<?xml version="1.0" encoding="utf-8" standalone="no"?>
<!DOCTYPE svg PUBLIC "-//W3C//DTD SVG 1.1//EN"
  "http://www.w3.org/Graphics/SVG/1.1/DTD/svg11.dtd">
<svg xmlns:xlink="http://www.w3.org/1999/xlink" width="576pt" height="288pt" viewBox="0 0 576 288" xmlns="http://www.w3.org/2000/svg" version="1.1">
 <metadata>
  <rdf:RDF xmlns:dc="http://purl.org/dc/elements/1.1/" xmlns:cc="http://creativecommons.org/ns#" xmlns:rdf="http://www.w3.org/1999/02/22-rdf-syntax-ns#">
   <cc:Work>
    <dc:type rdf:resource="http://purl.org/dc/dcmitype/StillImage"/>
    <dc:date>2025-11-27T16:48:12.890752</dc:date>
    <dc:format>image/svg+xml</dc:format>
    <dc:creator>
     <cc:Agent>
      <dc:title>Matplotlib v3.10.7, https://matplotlib.org/</dc:title>
     </cc:Agent>
    </dc:creator>
   </cc:Work>
  </rdf:RDF>
 </metadata>
 <defs>
  <style type="text/css">*{stroke-linejoin: round; stroke-linecap: butt}</style>
 </defs>
 <g id="figure_1">
  <g id="patch_1">
   <path d="M 0 288 
L 576 288 
L 576 0 
L 0 0 
z
" style="fill: #ffffff"/>
  </g>
  <g id="axes_1">
   <g id="patch_2">
    <path d="M 52.160938 250.421875 
L 568.8 250.421875 
L 568.8 7.2 
L 52.160938 7.2 
z
" style="fill: #ffffff"/>
   </g>
   <g id="matplotlib.axis_1">
    <g id="xtick_1">
     <g id="line2d_1">
      <path d="M 75.644531 250.421875 
L 75.644531 7.2 
" clip-path="url(#pea6ade0703)" style="fill: none; stroke-dasharray: 2.96,1.28; stroke-dashoffset: 0; stroke: #b0b0b0; stroke-opacity: 0.8; stroke-width: 0.8"/>
     </g>
     <g id="line2d_2">
      <defs>
       <path id="m73ea106894" d="M 0 0 
L 0 3.5 
" style="stroke: #000000; stroke-width: 0.8"/>
      </defs>
      <g>
       <use xlink:href="#m73ea106894" x="75.644531" y="250.421875" style="stroke: #000000; stroke-width: 0.8"/>
      </g>
     </g>
     <g id="text_1">
      <!-- 0 -->
      <g transform="translate(72.463281 265.020312) scale(0.1 -0.1)">
       <defs>
        <path id="DejaVuSans-30" d="M 2034 4250 
Q 1547 4250 1301 3770 
Q 1056 3291 1056 2328 
Q 1056 1369 1301 889 
Q 1547 409 2034 409 
Q 2525 409 2770 889 
Q 3016 1369 3016 2328 
Q 3016 3291 2770 3770 
Q 2525 4250 2034 4250 
z
M 2034 4750 
Q 2819 4750 3233 4129 
Q 3647 3509 3647 2328 
Q 3647 1150 3233 529 
Q 2819 -91 2034 -91 
Q 1250 -91 836 529 
Q 422 1150 422 2328 
Q 422 3509 836 4129 
Q 1250 4750 2034 4750 
z
" transform="scale(0.015625)"/>
       </defs>
       <use xlink:href="#DejaVuSans-30"/>
      </g>
     </g>
    </g>
    <g id="xtick_2">
     <g id="line2d_3">
      <path d="M 134.500656 250.421875 
L 134.500656 7.2 
" clip-path="url(#pea6ade0703)" style="fill: none; stroke-dasharray: 2.96,1.28; stroke-dashoffset: 0; stroke: #b0b0b0; stroke-opacity: 0.8; stroke-width: 0.8"/>
     </g>
     <g id="line2d_4">
      <g>
       <use xlink:href="#m73ea106894" x="134.500656" y="250.421875" style="stroke: #000000; stroke-width: 0.8"/>
      </g>
     </g>
     <g id="text_2">
      <!-- 50 -->
      <g transform="translate(128.138156 265.020312) scale(0.1 -0.1)">
       <defs>
        <path id="DejaVuSans-35" d="M 691 4666 
L 3169 4666 
L 3169 4134 
L 1269 4134 
L 1269 2991 
Q 1406 3038 1543 3061 
Q 1681 3084 1819 3084 
Q 2600 3084 3056 2656 
Q 3513 2228 3513 1497 
Q 3513 744 3044 326 
Q 2575 -91 1722 -91 
Q 1428 -91 1123 -41 
Q 819 9 494 109 
L 494 744 
Q 775 591 1075 516 
Q 1375 441 1709 441 
Q 2250 441 2565 725 
Q 2881 1009 2881 1497 
Q 2881 1984 2565 2268 
Q 2250 2553 1709 2553 
Q 1456 2553 1204 2497 
Q 953 2441 691 2322 
L 691 4666 
z
" transform="scale(0.015625)"/>
       </defs>
       <use xlink:href="#DejaVuSans-35"/>
       <use xlink:href="#DejaVuSans-30" transform="translate(63.623047 0)"/>
      </g>
     </g>
    </g>
    <g id="xtick_3">
     <g id="line2d_5">
      <path d="M 193.356781 250.421875 
L 193.356781 7.2 
" clip-path="url(#pea6ade0703)" style="fill: none; stroke-dasharray: 2.96,1.28; stroke-dashoffset: 0; stroke: #b0b0b0; stroke-opacity: 0.8; stroke-width: 0.8"/>
     </g>
     <g id="line2d_6">
      <g>
       <use xlink:href="#m73ea106894" x="193.356781" y="250.421875" style="stroke: #000000; stroke-width: 0.8"/>
      </g>
     </g>
     <g id="text_3">
      <!-- 100 -->
      <g transform="translate(183.813031 265.020312) scale(0.1 -0.1)">
       <defs>
        <path id="DejaVuSans-31" d="M 794 531 
L 1825 531 
L 1825 4091 
L 703 3866 
L 703 4441 
L 1819 4666 
L 2450 4666 
L 2450 531 
L 3481 531 
L 3481 0 
L 794 0 
L 794 531 
z
" transform="scale(0.015625)"/>
       </defs>
       <use xlink:href="#DejaVuSans-31"/>
       <use xlink:href="#DejaVuSans-30" transform="translate(63.623047 0)"/>
       <use xlink:href="#DejaVuSans-30" transform="translate(127.246094 0)"/>
      </g>
     </g>
    </g>
    <g id="xtick_4">
     <g id="line2d_7">
      <path d="M 252.212905 250.421875 
L 252.212905 7.2 
" clip-path="url(#pea6ade0703)" style="fill: none; stroke-dasharray: 2.96,1.28; stroke-dashoffset: 0; stroke: #b0b0b0; stroke-opacity: 0.8; stroke-width: 0.8"/>
     </g>
     <g id="line2d_8">
      <g>
       <use xlink:href="#m73ea106894" x="252.212905" y="250.421875" style="stroke: #000000; stroke-width: 0.8"/>
      </g>
     </g>
     <g id="text_4">
      <!-- 150 -->
      <g transform="translate(242.669155 265.020312) scale(0.1 -0.1)">
       <use xlink:href="#DejaVuSans-31"/>
       <use xlink:href="#DejaVuSans-35" transform="translate(63.623047 0)"/>
       <use xlink:href="#DejaVuSans-30" transform="translate(127.246094 0)"/>
      </g>
     </g>
    </g>
    <g id="xtick_5">
     <g id="line2d_9">
      <path d="M 311.06903 250.421875 
L 311.06903 7.2 
" clip-path="url(#pea6ade0703)" style="fill: none; stroke-dasharray: 2.96,1.28; stroke-dashoffset: 0; stroke: #b0b0b0; stroke-opacity: 0.8; stroke-width: 0.8"/>
     </g>
     <g id="line2d_10">
      <g>
       <use xlink:href="#m73ea106894" x="311.06903" y="250.421875" style="stroke: #000000; stroke-width: 0.8"/>
      </g>
     </g>
     <g id="text_5">
      <!-- 200 -->
      <g transform="translate(301.52528 265.020312) scale(0.1 -0.1)">
       <defs>
        <path id="DejaVuSans-32" d="M 1228 531 
L 3431 531 
L 3431 0 
L 469 0 
L 469 531 
Q 828 903 1448 1529 
Q 2069 2156 2228 2338 
Q 2531 2678 2651 2914 
Q 2772 3150 2772 3378 
Q 2772 3750 2511 3984 
Q 2250 4219 1831 4219 
Q 1534 4219 1204 4116 
Q 875 4013 500 3803 
L 500 4441 
Q 881 4594 1212 4672 
Q 1544 4750 1819 4750 
Q 2544 4750 2975 4387 
Q 3406 4025 3406 3419 
Q 3406 3131 3298 2873 
Q 3191 2616 2906 2266 
Q 2828 2175 2409 1742 
Q 1991 1309 1228 531 
z
" transform="scale(0.015625)"/>
       </defs>
       <use xlink:href="#DejaVuSans-32"/>
       <use xlink:href="#DejaVuSans-30" transform="translate(63.623047 0)"/>
       <use xlink:href="#DejaVuSans-30" transform="translate(127.246094 0)"/>
      </g>
     </g>
    </g>
    <g id="xtick_6">
     <g id="line2d_11">
      <path d="M 369.925155 250.421875 
L 369.925155 7.2 
" clip-path="url(#pea6ade0703)" style="fill: none; stroke-dasharray: 2.96,1.28; stroke-dashoffset: 0; stroke: #b0b0b0; stroke-opacity: 0.8; stroke-width: 0.8"/>
     </g>
     <g id="line2d_12">
      <g>
       <use xlink:href="#m73ea106894" x="369.925155" y="250.421875" style="stroke: #000000; stroke-width: 0.8"/>
      </g>
     </g>
     <g id="text_6">
      <!-- 250 -->
      <g transform="translate(360.381405 265.020312) scale(0.1 -0.1)">
       <use xlink:href="#DejaVuSans-32"/>
       <use xlink:href="#DejaVuSans-35" transform="translate(63.623047 0)"/>
       <use xlink:href="#DejaVuSans-30" transform="translate(127.246094 0)"/>
      </g>
     </g>
    </g>
    <g id="xtick_7">
     <g id="line2d_13">
      <path d="M 428.781279 250.421875 
L 428.781279 7.2 
" clip-path="url(#pea6ade0703)" style="fill: none; stroke-dasharray: 2.96,1.28; stroke-dashoffset: 0; stroke: #b0b0b0; stroke-opacity: 0.8; stroke-width: 0.8"/>
     </g>
     <g id="line2d_14">
      <g>
       <use xlink:href="#m73ea106894" x="428.781279" y="250.421875" style="stroke: #000000; stroke-width: 0.8"/>
      </g>
     </g>
     <g id="text_7">
      <!-- 300 -->
      <g transform="translate(419.237529 265.020312) scale(0.1 -0.1)">
       <defs>
        <path id="DejaVuSans-33" d="M 2597 2516 
Q 3050 2419 3304 2112 
Q 3559 1806 3559 1356 
Q 3559 666 3084 287 
Q 2609 -91 1734 -91 
Q 1441 -91 1130 -33 
Q 819 25 488 141 
L 488 750 
Q 750 597 1062 519 
Q 1375 441 1716 441 
Q 2309 441 2620 675 
Q 2931 909 2931 1356 
Q 2931 1769 2642 2001 
Q 2353 2234 1838 2234 
L 1294 2234 
L 1294 2753 
L 1863 2753 
Q 2328 2753 2575 2939 
Q 2822 3125 2822 3475 
Q 2822 3834 2567 4026 
Q 2313 4219 1838 4219 
Q 1578 4219 1281 4162 
Q 984 4106 628 3988 
L 628 4550 
Q 988 4650 1302 4700 
Q 1616 4750 1894 4750 
Q 2613 4750 3031 4423 
Q 3450 4097 3450 3541 
Q 3450 3153 3228 2886 
Q 3006 2619 2597 2516 
z
" transform="scale(0.015625)"/>
       </defs>
       <use xlink:href="#DejaVuSans-33"/>
       <use xlink:href="#DejaVuSans-30" transform="translate(63.623047 0)"/>
       <use xlink:href="#DejaVuSans-30" transform="translate(127.246094 0)"/>
      </g>
     </g>
    </g>
    <g id="xtick_8">
     <g id="line2d_15">
      <path d="M 487.637404 250.421875 
L 487.637404 7.2 
" clip-path="url(#pea6ade0703)" style="fill: none; stroke-dasharray: 2.96,1.28; stroke-dashoffset: 0; stroke: #b0b0b0; stroke-opacity: 0.8; stroke-width: 0.8"/>
     </g>
     <g id="line2d_16">
      <g>
       <use xlink:href="#m73ea106894" x="487.637404" y="250.421875" style="stroke: #000000; stroke-width: 0.8"/>
      </g>
     </g>
     <g id="text_8">
      <!-- 350 -->
      <g transform="translate(478.093654 265.020312) scale(0.1 -0.1)">
       <use xlink:href="#DejaVuSans-33"/>
       <use xlink:href="#DejaVuSans-35" transform="translate(63.623047 0)"/>
       <use xlink:href="#DejaVuSans-30" transform="translate(127.246094 0)"/>
      </g>
     </g>
    </g>
    <g id="xtick_9">
     <g id="line2d_17">
      <path d="M 546.493529 250.421875 
L 546.493529 7.2 
" clip-path="url(#pea6ade0703)" style="fill: none; stroke-dasharray: 2.96,1.28; stroke-dashoffset: 0; stroke: #b0b0b0; stroke-opacity: 0.8; stroke-width: 0.8"/>
     </g>
     <g id="line2d_18">
      <g>
       <use xlink:href="#m73ea106894" x="546.493529" y="250.421875" style="stroke: #000000; stroke-width: 0.8"/>
      </g>
     </g>
     <g id="text_9">
      <!-- 400 -->
      <g transform="translate(536.949779 265.020312) scale(0.1 -0.1)">
       <defs>
        <path id="DejaVuSans-34" d="M 2419 4116 
L 825 1625 
L 2419 1625 
L 2419 4116 
z
M 2253 4666 
L 3047 4666 
L 3047 1625 
L 3713 1625 
L 3713 1100 
L 3047 1100 
L 3047 0 
L 2419 0 
L 2419 1100 
L 313 1100 
L 313 1709 
L 2253 4666 
z
" transform="scale(0.015625)"/>
       </defs>
       <use xlink:href="#DejaVuSans-34"/>
       <use xlink:href="#DejaVuSans-30" transform="translate(63.623047 0)"/>
       <use xlink:href="#DejaVuSans-30" transform="translate(127.246094 0)"/>
      </g>
     </g>
    </g>
    <g id="text_10">
     <!-- Sample, $n$ -->
     <g transform="translate(285.380469 278.7) scale(0.1 -0.1)">
      <defs>
       <path id="DejaVuSans-53" d="M 3425 4513 
L 3425 3897 
Q 3066 4069 2747 4153 
Q 2428 4238 2131 4238 
Q 1616 4238 1336 4038 
Q 1056 3838 1056 3469 
Q 1056 3159 1242 3001 
Q 1428 2844 1947 2747 
L 2328 2669 
Q 3034 2534 3370 2195 
Q 3706 1856 3706 1288 
Q 3706 609 3251 259 
Q 2797 -91 1919 -91 
Q 1588 -91 1214 -16 
Q 841 59 441 206 
L 441 856 
Q 825 641 1194 531 
Q 1563 422 1919 422 
Q 2459 422 2753 634 
Q 3047 847 3047 1241 
Q 3047 1584 2836 1778 
Q 2625 1972 2144 2069 
L 1759 2144 
Q 1053 2284 737 2584 
Q 422 2884 422 3419 
Q 422 4038 858 4394 
Q 1294 4750 2059 4750 
Q 2388 4750 2728 4690 
Q 3069 4631 3425 4513 
z
" transform="scale(0.015625)"/>
       <path id="DejaVuSans-61" d="M 2194 1759 
Q 1497 1759 1228 1600 
Q 959 1441 959 1056 
Q 959 750 1161 570 
Q 1363 391 1709 391 
Q 2188 391 2477 730 
Q 2766 1069 2766 1631 
L 2766 1759 
L 2194 1759 
z
M 3341 1997 
L 3341 0 
L 2766 0 
L 2766 531 
Q 2569 213 2275 61 
Q 1981 -91 1556 -91 
Q 1019 -91 701 211 
Q 384 513 384 1019 
Q 384 1609 779 1909 
Q 1175 2209 1959 2209 
L 2766 2209 
L 2766 2266 
Q 2766 2663 2505 2880 
Q 2244 3097 1772 3097 
Q 1472 3097 1187 3025 
Q 903 2953 641 2809 
L 641 3341 
Q 956 3463 1253 3523 
Q 1550 3584 1831 3584 
Q 2591 3584 2966 3190 
Q 3341 2797 3341 1997 
z
" transform="scale(0.015625)"/>
       <path id="DejaVuSans-6d" d="M 3328 2828 
Q 3544 3216 3844 3400 
Q 4144 3584 4550 3584 
Q 5097 3584 5394 3201 
Q 5691 2819 5691 2113 
L 5691 0 
L 5113 0 
L 5113 2094 
Q 5113 2597 4934 2840 
Q 4756 3084 4391 3084 
Q 3944 3084 3684 2787 
Q 3425 2491 3425 1978 
L 3425 0 
L 2847 0 
L 2847 2094 
Q 2847 2600 2669 2842 
Q 2491 3084 2119 3084 
Q 1678 3084 1418 2786 
Q 1159 2488 1159 1978 
L 1159 0 
L 581 0 
L 581 3500 
L 1159 3500 
L 1159 2956 
Q 1356 3278 1631 3431 
Q 1906 3584 2284 3584 
Q 2666 3584 2933 3390 
Q 3200 3197 3328 2828 
z
" transform="scale(0.015625)"/>
       <path id="DejaVuSans-70" d="M 1159 525 
L 1159 -1331 
L 581 -1331 
L 581 3500 
L 1159 3500 
L 1159 2969 
Q 1341 3281 1617 3432 
Q 1894 3584 2278 3584 
Q 2916 3584 3314 3078 
Q 3713 2572 3713 1747 
Q 3713 922 3314 415 
Q 2916 -91 2278 -91 
Q 1894 -91 1617 61 
Q 1341 213 1159 525 
z
M 3116 1747 
Q 3116 2381 2855 2742 
Q 2594 3103 2138 3103 
Q 1681 3103 1420 2742 
Q 1159 2381 1159 1747 
Q 1159 1113 1420 752 
Q 1681 391 2138 391 
Q 2594 391 2855 752 
Q 3116 1113 3116 1747 
z
" transform="scale(0.015625)"/>
       <path id="DejaVuSans-6c" d="M 603 4863 
L 1178 4863 
L 1178 0 
L 603 0 
L 603 4863 
z
" transform="scale(0.015625)"/>
       <path id="DejaVuSans-65" d="M 3597 1894 
L 3597 1613 
L 953 1613 
Q 991 1019 1311 708 
Q 1631 397 2203 397 
Q 2534 397 2845 478 
Q 3156 559 3463 722 
L 3463 178 
Q 3153 47 2828 -22 
Q 2503 -91 2169 -91 
Q 1331 -91 842 396 
Q 353 884 353 1716 
Q 353 2575 817 3079 
Q 1281 3584 2069 3584 
Q 2775 3584 3186 3129 
Q 3597 2675 3597 1894 
z
M 3022 2063 
Q 3016 2534 2758 2815 
Q 2500 3097 2075 3097 
Q 1594 3097 1305 2825 
Q 1016 2553 972 2059 
L 3022 2063 
z
" transform="scale(0.015625)"/>
       <path id="DejaVuSans-2c" d="M 750 794 
L 1409 794 
L 1409 256 
L 897 -744 
L 494 -744 
L 750 256 
L 750 794 
z
" transform="scale(0.015625)"/>
       <path id="DejaVuSans-20" transform="scale(0.015625)"/>
       <path id="DejaVuSans-Oblique-6e" d="M 3566 2113 
L 3156 0 
L 2578 0 
L 2988 2091 
Q 3016 2238 3031 2350 
Q 3047 2463 3047 2528 
Q 3047 2791 2881 2937 
Q 2716 3084 2419 3084 
Q 1956 3084 1622 2776 
Q 1288 2469 1184 1941 
L 800 0 
L 225 0 
L 903 3500 
L 1478 3500 
L 1363 2950 
Q 1603 3253 1940 3418 
Q 2278 3584 2650 3584 
Q 3113 3584 3367 3334 
Q 3622 3084 3622 2631 
Q 3622 2519 3608 2391 
Q 3594 2263 3566 2113 
z
" transform="scale(0.015625)"/>
      </defs>
      <use xlink:href="#DejaVuSans-53" transform="translate(0 0.015625)"/>
      <use xlink:href="#DejaVuSans-61" transform="translate(63.476562 0.015625)"/>
      <use xlink:href="#DejaVuSans-6d" transform="translate(124.755859 0.015625)"/>
      <use xlink:href="#DejaVuSans-70" transform="translate(222.167969 0.015625)"/>
      <use xlink:href="#DejaVuSans-6c" transform="translate(285.644531 0.015625)"/>
      <use xlink:href="#DejaVuSans-65" transform="translate(313.427734 0.015625)"/>
      <use xlink:href="#DejaVuSans-2c" transform="translate(374.951172 0.015625)"/>
      <use xlink:href="#DejaVuSans-20" transform="translate(406.738281 0.015625)"/>
      <use xlink:href="#DejaVuSans-Oblique-6e" transform="translate(438.525391 0.015625)"/>
     </g>
    </g>
   </g>
   <g id="matplotlib.axis_2">
    <g id="ytick_1">
     <g id="line2d_19">
      <path d="M 52.160938 229.85832 
L 568.8 229.85832 
" clip-path="url(#pea6ade0703)" style="fill: none; stroke-dasharray: 2.96,1.28; stroke-dashoffset: 0; stroke: #b0b0b0; stroke-opacity: 0.8; stroke-width: 0.8"/>
     </g>
     <g id="line2d_20">
      <defs>
       <path id="m0bae1e3c10" d="M 0 0 
L -3.5 0 
" style="stroke: #000000; stroke-width: 0.8"/>
      </defs>
      <g>
       <use xlink:href="#m0bae1e3c10" x="52.160938" y="229.85832" style="stroke: #000000; stroke-width: 0.8"/>
      </g>
     </g>
     <g id="text_11">
      <!-- −0.4 -->
      <g transform="translate(20.878125 233.657539) scale(0.1 -0.1)">
       <defs>
        <path id="DejaVuSans-2212" d="M 678 2272 
L 4684 2272 
L 4684 1741 
L 678 1741 
L 678 2272 
z
" transform="scale(0.015625)"/>
        <path id="DejaVuSans-2e" d="M 684 794 
L 1344 794 
L 1344 0 
L 684 0 
L 684 794 
z
" transform="scale(0.015625)"/>
       </defs>
       <use xlink:href="#DejaVuSans-2212"/>
       <use xlink:href="#DejaVuSans-30" transform="translate(83.789062 0)"/>
       <use xlink:href="#DejaVuSans-2e" transform="translate(147.412109 0)"/>
       <use xlink:href="#DejaVuSans-34" transform="translate(179.199219 0)"/>
      </g>
     </g>
    </g>
    <g id="ytick_2">
     <g id="line2d_21">
      <path d="M 52.160938 179.532453 
L 568.8 179.532453 
" clip-path="url(#pea6ade0703)" style="fill: none; stroke-dasharray: 2.96,1.28; stroke-dashoffset: 0; stroke: #b0b0b0; stroke-opacity: 0.8; stroke-width: 0.8"/>
     </g>
     <g id="line2d_22">
      <g>
       <use xlink:href="#m0bae1e3c10" x="52.160938" y="179.532453" style="stroke: #000000; stroke-width: 0.8"/>
      </g>
     </g>
     <g id="text_12">
      <!-- −0.2 -->
      <g transform="translate(20.878125 183.331672) scale(0.1 -0.1)">
       <use xlink:href="#DejaVuSans-2212"/>
       <use xlink:href="#DejaVuSans-30" transform="translate(83.789062 0)"/>
       <use xlink:href="#DejaVuSans-2e" transform="translate(147.412109 0)"/>
       <use xlink:href="#DejaVuSans-32" transform="translate(179.199219 0)"/>
      </g>
     </g>
    </g>
    <g id="ytick_3">
     <g id="line2d_23">
      <path d="M 52.160938 129.206587 
L 568.8 129.206587 
" clip-path="url(#pea6ade0703)" style="fill: none; stroke-dasharray: 2.96,1.28; stroke-dashoffset: 0; stroke: #b0b0b0; stroke-opacity: 0.8; stroke-width: 0.8"/>
     </g>
     <g id="line2d_24">
      <g>
       <use xlink:href="#m0bae1e3c10" x="52.160938" y="129.206587" style="stroke: #000000; stroke-width: 0.8"/>
      </g>
     </g>
     <g id="text_13">
      <!-- 0.0 -->
      <g transform="translate(29.257812 133.005805) scale(0.1 -0.1)">
       <use xlink:href="#DejaVuSans-30"/>
       <use xlink:href="#DejaVuSans-2e" transform="translate(63.623047 0)"/>
       <use xlink:href="#DejaVuSans-30" transform="translate(95.410156 0)"/>
      </g>
     </g>
    </g>
    <g id="ytick_4">
     <g id="line2d_25">
      <path d="M 52.160938 78.88072 
L 568.8 78.88072 
" clip-path="url(#pea6ade0703)" style="fill: none; stroke-dasharray: 2.96,1.28; stroke-dashoffset: 0; stroke: #b0b0b0; stroke-opacity: 0.8; stroke-width: 0.8"/>
     </g>
     <g id="line2d_26">
      <g>
       <use xlink:href="#m0bae1e3c10" x="52.160938" y="78.88072" style="stroke: #000000; stroke-width: 0.8"/>
      </g>
     </g>
     <g id="text_14">
      <!-- 0.2 -->
      <g transform="translate(29.257812 82.679939) scale(0.1 -0.1)">
       <use xlink:href="#DejaVuSans-30"/>
       <use xlink:href="#DejaVuSans-2e" transform="translate(63.623047 0)"/>
       <use xlink:href="#DejaVuSans-32" transform="translate(95.410156 0)"/>
      </g>
     </g>
    </g>
    <g id="ytick_5">
     <g id="line2d_27">
      <path d="M 52.160938 28.554853 
L 568.8 28.554853 
" clip-path="url(#pea6ade0703)" style="fill: none; stroke-dasharray: 2.96,1.28; stroke-dashoffset: 0; stroke: #b0b0b0; stroke-opacity: 0.8; stroke-width: 0.8"/>
     </g>
     <g id="line2d_28">
      <g>
       <use xlink:href="#m0bae1e3c10" x="52.160938" y="28.554853" style="stroke: #000000; stroke-width: 0.8"/>
      </g>
     </g>
     <g id="text_15">
      <!-- 0.4 -->
      <g transform="translate(29.257812 32.354072) scale(0.1 -0.1)">
       <use xlink:href="#DejaVuSans-30"/>
       <use xlink:href="#DejaVuSans-2e" transform="translate(63.623047 0)"/>
       <use xlink:href="#DejaVuSans-34" transform="translate(95.410156 0)"/>
      </g>
     </g>
    </g>
    <g id="text_16">
     <!-- Amplitude -->
     <g transform="translate(14.798437 154.433594) rotate(-90) scale(0.1 -0.1)">
      <defs>
       <path id="DejaVuSans-41" d="M 2188 4044 
L 1331 1722 
L 3047 1722 
L 2188 4044 
z
M 1831 4666 
L 2547 4666 
L 4325 0 
L 3669 0 
L 3244 1197 
L 1141 1197 
L 716 0 
L 50 0 
L 1831 4666 
z
" transform="scale(0.015625)"/>
       <path id="DejaVuSans-69" d="M 603 3500 
L 1178 3500 
L 1178 0 
L 603 0 
L 603 3500 
z
M 603 4863 
L 1178 4863 
L 1178 4134 
L 603 4134 
L 603 4863 
z
" transform="scale(0.015625)"/>
       <path id="DejaVuSans-74" d="M 1172 4494 
L 1172 3500 
L 2356 3500 
L 2356 3053 
L 1172 3053 
L 1172 1153 
Q 1172 725 1289 603 
Q 1406 481 1766 481 
L 2356 481 
L 2356 0 
L 1766 0 
Q 1100 0 847 248 
Q 594 497 594 1153 
L 594 3053 
L 172 3053 
L 172 3500 
L 594 3500 
L 594 4494 
L 1172 4494 
z
" transform="scale(0.015625)"/>
       <path id="DejaVuSans-75" d="M 544 1381 
L 544 3500 
L 1119 3500 
L 1119 1403 
Q 1119 906 1312 657 
Q 1506 409 1894 409 
Q 2359 409 2629 706 
Q 2900 1003 2900 1516 
L 2900 3500 
L 3475 3500 
L 3475 0 
L 2900 0 
L 2900 538 
Q 2691 219 2414 64 
Q 2138 -91 1772 -91 
Q 1169 -91 856 284 
Q 544 659 544 1381 
z
M 1991 3584 
L 1991 3584 
z
" transform="scale(0.015625)"/>
       <path id="DejaVuSans-64" d="M 2906 2969 
L 2906 4863 
L 3481 4863 
L 3481 0 
L 2906 0 
L 2906 525 
Q 2725 213 2448 61 
Q 2172 -91 1784 -91 
Q 1150 -91 751 415 
Q 353 922 353 1747 
Q 353 2572 751 3078 
Q 1150 3584 1784 3584 
Q 2172 3584 2448 3432 
Q 2725 3281 2906 2969 
z
M 947 1747 
Q 947 1113 1208 752 
Q 1469 391 1925 391 
Q 2381 391 2643 752 
Q 2906 1113 2906 1747 
Q 2906 2381 2643 2742 
Q 2381 3103 1925 3103 
Q 1469 3103 1208 2742 
Q 947 2381 947 1747 
z
" transform="scale(0.015625)"/>
      </defs>
      <use xlink:href="#DejaVuSans-41"/>
      <use xlink:href="#DejaVuSans-6d" transform="translate(68.408203 0)"/>
      <use xlink:href="#DejaVuSans-70" transform="translate(165.820312 0)"/>
      <use xlink:href="#DejaVuSans-6c" transform="translate(229.296875 0)"/>
      <use xlink:href="#DejaVuSans-69" transform="translate(257.080078 0)"/>
      <use xlink:href="#DejaVuSans-74" transform="translate(284.863281 0)"/>
      <use xlink:href="#DejaVuSans-75" transform="translate(324.072266 0)"/>
      <use xlink:href="#DejaVuSans-64" transform="translate(387.451172 0)"/>
      <use xlink:href="#DejaVuSans-65" transform="translate(450.927734 0)"/>
     </g>
    </g>
   </g>
   <g id="line2d_29">
    <path d="M 75.644531 133.828853 
L 76.821654 121.333556 
L 77.998776 129.732013 
L 79.175899 131.041268 
L 80.353021 136.673372 
L 81.530144 132.685861 
L 82.707266 136.082336 
L 83.884389 133.691664 
L 85.061511 132.325625 
L 86.238634 132.247759 
L 87.415756 131.841148 
L 88.592879 128.962345 
L 89.770001 127.78592 
L 90.947124 117.816311 
L 92.124246 129.112016 
L 93.301369 120.116738 
L 95.655614 132.335967 
L 96.832736 129.645074 
L 98.009859 137.949779 
L 99.186981 139.048021 
L 100.364104 143.028125 
L 101.541226 144.026154 
L 102.718349 143.498464 
L 103.895471 130.106294 
L 105.072594 121.918647 
L 106.249716 119.281855 
L 107.426839 108.774228 
L 108.603961 112.380603 
L 109.781084 104.701227 
L 110.958206 110.408548 
L 112.135329 114.381034 
L 113.312451 127.826156 
L 114.489574 137.198007 
L 115.666696 147.911921 
L 116.843819 169.506368 
L 118.020941 183.003654 
L 119.198064 191.547599 
L 120.375186 197.367622 
L 121.552309 208.4281 
L 122.729431 205.473032 
L 123.906553 189.313448 
L 125.083676 169.85496 
L 127.437921 117.936321 
L 130.969288 55.053208 
L 132.146411 52.678948 
L 133.323533 52.536712 
L 134.500656 65.372382 
L 135.677778 85.001463 
L 136.854901 116.079453 
L 138.032023 143.582311 
L 141.563391 205.785369 
L 142.740513 218.495398 
L 143.917636 212.844775 
L 145.094758 211.723923 
L 146.271881 205.883669 
L 148.626126 180.410453 
L 149.803248 181.08852 
L 150.980371 179.108971 
L 152.157493 177.602797 
L 153.334616 185.510419 
L 154.511738 192.08159 
L 155.688861 208.56313 
L 156.865983 218.089624 
L 158.043106 210.785642 
L 159.220228 216.778541 
L 160.397351 204.243802 
L 161.574473 188.301972 
L 162.751596 166.146552 
L 163.928718 126.822493 
L 165.105841 112.387787 
L 166.282963 100.093942 
L 167.460086 69.414553 
L 168.637208 63.789456 
L 169.814331 51.040658 
L 170.991453 59.34286 
L 172.168576 75.656419 
L 173.345698 103.249014 
L 175.699943 149.324372 
L 176.877066 181.792497 
L 178.054188 196.723177 
L 179.231311 202.888515 
L 180.408433 193.487954 
L 181.585556 199.251526 
L 183.939801 159.459178 
L 185.116923 123.760843 
L 186.294046 102.60611 
L 187.471168 86.525935 
L 188.648291 55.529521 
L 189.825413 31.320344 
L 191.002536 31.714101 
L 192.179658 31.072699 
L 193.356781 23.987228 
L 194.533903 37.003473 
L 195.711026 46.1775 
L 196.888148 60.379665 
L 198.065271 72.796941 
L 199.242393 88.214015 
L 200.419516 111.463276 
L 201.596638 115.181439 
L 202.773761 129.105772 
L 203.950883 152.594953 
L 205.128006 156.934976 
L 206.305128 170.77666 
L 207.482251 182.967866 
L 208.659373 193.221625 
L 209.836496 215.215818 
L 211.013618 220.236616 
L 213.367863 228.218193 
L 214.544986 222.683474 
L 215.722108 203.334896 
L 216.89923 200.52876 
L 218.076353 175.856444 
L 219.253475 156.411705 
L 220.430598 128.479807 
L 221.60772 117.299544 
L 222.784843 96.670542 
L 223.961965 70.642696 
L 226.31621 64.071494 
L 227.493333 67.082667 
L 228.670455 73.956806 
L 229.847578 97.631442 
L 231.0247 107.474582 
L 232.201823 135.104552 
L 233.378945 152.283038 
L 234.556068 171.761507 
L 235.73319 196.992258 
L 238.087435 221.062805 
L 239.264558 227.1871 
L 240.44168 230.973721 
L 241.618803 222.082841 
L 242.795925 227.445018 
L 243.973048 209.005311 
L 245.15017 194.873862 
L 246.327293 178.010743 
L 247.504415 155.535781 
L 248.681538 129.141618 
L 249.85866 118.420026 
L 251.035783 99.903866 
L 252.212905 85.09004 
L 253.390028 66.698378 
L 254.56715 60.637723 
L 255.744273 60.621548 
L 256.921395 63.904825 
L 258.098518 61.142344 
L 259.27564 60.920609 
L 260.452763 70.909462 
L 261.629885 57.731285 
L 262.807008 65.279765 
L 263.98413 66.519509 
L 265.161253 63.28224 
L 267.515498 59.438576 
L 268.69262 57.280908 
L 269.869743 61.326342 
L 271.046865 66.193175 
L 272.223988 64.721817 
L 273.40111 66.718222 
L 275.755355 82.823873 
L 276.932478 102.348693 
L 278.1096 111.84854 
L 280.463845 155.202806 
L 281.640968 175.215783 
L 282.81809 185.041669 
L 283.995213 202.559882 
L 285.172335 217.771353 
L 286.349458 239.366335 
L 287.52658 238.912654 
L 289.880825 218.686929 
L 291.057948 210.244582 
L 292.23507 192.168043 
L 293.412193 176.326091 
L 294.589315 143.816184 
L 295.766438 131.330841 
L 296.94356 101.118015 
L 298.120683 88.098769 
L 299.297805 67.50591 
L 300.474928 68.352625 
L 301.65205 62.403043 
L 302.829173 67.064411 
L 304.006295 78.029304 
L 305.183418 102.022299 
L 306.36054 122.533507 
L 307.537663 140.324887 
L 308.714785 166.451342 
L 309.891908 178.803938 
L 311.06903 203.985637 
L 312.246152 206.657574 
L 313.423275 216.497971 
L 314.600397 218.403908 
L 315.77752 214.612425 
L 316.954642 201.191215 
L 318.131765 202.389529 
L 319.308887 199.085357 
L 320.48601 184.243092 
L 321.663132 184.068446 
L 322.840255 183.643448 
L 324.017377 178.525086 
L 325.1945 179.318459 
L 326.371622 184.951067 
L 327.548745 185.323379 
L 328.725867 200.372908 
L 329.90299 199.717375 
L 331.080112 203.926402 
L 332.257235 196.111413 
L 333.434357 199.455433 
L 334.61148 189.700792 
L 335.788602 191.635251 
L 336.965725 192.432554 
L 338.142847 180.636077 
L 339.31997 183.720276 
L 340.497092 195.860748 
L 342.851337 192.622013 
L 344.02846 196.866487 
L 345.205582 196.721066 
L 346.382705 197.413152 
L 347.559827 195.497593 
L 348.73695 195.552273 
L 349.914072 190.584135 
L 351.091195 189.197655 
L 352.268317 189.640123 
L 353.44544 182.640955 
L 354.622562 186.196728 
L 356.976807 184.736866 
L 358.15393 182.631961 
L 359.331052 196.003863 
L 360.508175 199.536632 
L 361.685297 207.425194 
L 362.86242 205.249866 
L 364.039542 202.42032 
L 365.216665 203.18314 
L 366.393787 195.95673 
L 367.57091 193.302548 
L 368.748032 187.66894 
L 369.925155 167.440136 
L 371.102277 158.575681 
L 372.2794 138.835275 
L 373.456522 116.437532 
L 374.633645 112.081058 
L 375.810767 85.208528 
L 376.98789 67.2449 
L 378.165012 53.684127 
L 379.342135 46.00459 
L 380.519257 30.876156 
L 381.69638 30.36808 
L 382.873502 21.603473 
L 384.050625 33.157122 
L 385.227747 43.513559 
L 386.40487 74.274208 
L 388.759115 100.602517 
L 389.936237 127.645073 
L 391.11336 144.653 
L 392.290482 171.941632 
L 393.467605 190.218477 
L 394.644727 190.531899 
L 395.82185 201.125617 
L 398.176095 179.507513 
L 399.353217 165.157121 
L 400.53034 141.076969 
L 401.707462 119.653019 
L 402.884585 90.177873 
L 404.061707 82.07863 
L 405.238829 64.806353 
L 406.415952 49.250246 
L 408.770197 42.603028 
L 409.947319 47.215965 
L 411.124442 52.600267 
L 412.301564 57.198275 
L 413.478687 65.676664 
L 414.655809 81.793436 
L 415.832932 83.969744 
L 417.010054 71.46967 
L 418.187177 70.892051 
L 419.364299 69.935939 
L 421.718544 54.304744 
L 422.895667 60.896946 
L 425.249912 51.982729 
L 426.427034 59.033651 
L 427.604157 71.812126 
L 428.781279 68.333675 
L 429.958402 82.009897 
L 431.135524 76.83065 
L 432.312647 89.485846 
L 433.489769 83.094343 
L 435.844014 59.988374 
L 437.021137 54.362397 
L 438.198259 41.106411 
L 439.375382 30.704059 
L 440.552504 37.121671 
L 441.729627 31.545271 
L 442.906749 55.467945 
L 445.260994 95.383984 
L 446.438117 127.129602 
L 448.792362 181.861073 
L 449.969484 200.253627 
L 451.146607 204.868718 
L 452.323729 195.269676 
L 453.500852 186.926155 
L 454.677974 176.562777 
L 455.855097 145.808859 
L 457.032219 123.245851 
L 458.209342 96.706645 
L 459.386464 74.192352 
L 460.563587 68.776392 
L 461.740709 58.687871 
L 462.917832 55.968659 
L 464.094954 70.964068 
L 465.272077 83.845694 
L 466.449199 113.243966 
L 468.803444 179.130605 
L 469.980567 183.307344 
L 471.157689 200.192296 
L 472.334812 208.818274 
L 473.511934 202.999956 
L 474.689057 182.46974 
L 475.866179 166.222973 
L 477.043302 134.85301 
L 481.751792 39.556764 
L 482.928914 32.334014 
L 484.106037 18.25554 
L 485.283159 20.888104 
L 486.460282 25.01085 
L 487.637404 42.146178 
L 488.814527 51.991382 
L 491.168772 95.665619 
L 492.345894 97.381853 
L 493.523017 124.250314 
L 495.877262 155.351842 
L 497.054384 158.063494 
L 498.231507 176.119369 
L 499.408629 186.052795 
L 500.585751 193.568853 
L 501.762874 198.231264 
L 502.939996 209.95421 
L 504.117119 200.352795 
L 505.294241 211.023079 
L 507.648486 201.391119 
L 508.825609 192.228512 
L 510.002731 196.197078 
L 512.356976 173.690658 
L 513.534099 171.836677 
L 514.711221 173.75741 
L 515.888344 172.728428 
L 517.065466 178.164811 
L 518.242589 186.600348 
L 519.419711 198.063755 
L 520.596834 203.320645 
L 521.773956 213.551882 
L 522.951079 222.739215 
L 524.128201 225.53103 
L 525.305324 216.116152 
L 526.482446 218.702957 
L 527.659569 202.980595 
L 528.836691 182.779904 
L 530.013814 157.057957 
L 531.190936 125.954891 
L 533.545181 83.654128 
L 534.722304 68.403979 
L 535.899426 58.282025 
L 537.076549 59.965138 
L 538.253671 69.567113 
L 539.430794 82.029577 
L 541.785039 123.11215 
L 542.962161 152.469689 
L 544.139284 166.311774 
L 545.316406 190.745245 
L 545.316406 190.745245 
" clip-path="url(#pea6ade0703)" style="fill: none; stroke: #1f77b4; stroke-linecap: square"/>
   </g>
   <g id="line2d_30">
    <path d="M 75.644531 126.845382 
L 76.821654 130.719185 
L 77.998776 131.929198 
L 79.175899 127.21112 
L 80.353021 131.586338 
L 82.707266 127.116246 
L 83.884389 127.818716 
L 85.061511 131.276907 
L 86.238634 128.506497 
L 87.415756 132.15414 
L 88.592879 122.723903 
L 89.770001 140.576346 
L 90.947124 128.860866 
L 92.124246 132.384025 
L 93.301369 125.750433 
L 94.478491 130.476601 
L 95.655614 129.103466 
L 96.832736 137.25836 
L 98.009859 138.667699 
L 99.186981 135.349575 
L 100.364104 130.195017 
L 101.541226 128.950433 
L 102.718349 125.072141 
L 103.895471 123.776049 
L 105.072594 119.803561 
L 106.249716 119.866333 
L 107.426839 123.205618 
L 108.603961 131.343121 
L 109.781084 125.42098 
L 110.958206 132.692467 
L 112.135329 136.17446 
L 113.312451 142.717586 
L 114.489574 147.257746 
L 115.666696 144.995202 
L 116.843819 150.830267 
L 118.020941 137.996695 
L 119.198064 120.476202 
L 120.375186 109.720975 
L 121.552309 94.560318 
L 122.729431 89.786268 
L 123.906553 70.690225 
L 125.083676 62.450046 
L 126.260798 58.044802 
L 127.437921 65.724029 
L 128.615043 67.208474 
L 129.792166 79.739376 
L 130.969288 105.330021 
L 133.323533 143.593524 
L 134.500656 171.910019 
L 135.677778 183.31262 
L 136.854901 189.17642 
L 138.032023 204.311273 
L 139.209146 214.795134 
L 140.386268 211.708135 
L 141.563391 212.587918 
L 142.740513 203.485331 
L 143.917636 192.533276 
L 145.094758 194.750925 
L 146.271881 186.207972 
L 147.449003 183.462503 
L 148.626126 183.739852 
L 149.803248 183.463986 
L 150.980371 186.432116 
L 152.157493 188.646749 
L 153.334616 186.772753 
L 154.511738 202.675213 
L 155.688861 197.249085 
L 156.865983 196.8163 
L 158.043106 198.952644 
L 160.397351 199.839331 
L 161.574473 181.336315 
L 162.751596 179.131941 
L 163.928718 189.836204 
L 165.105841 188.140064 
L 166.282963 197.066839 
L 167.460086 197.661178 
L 168.637208 209.129686 
L 169.814331 201.335222 
L 170.991453 210.086132 
L 172.168576 212.441309 
L 173.345698 209.268321 
L 174.522821 193.25843 
L 176.877066 166.784957 
L 179.231311 123.909437 
L 180.408433 112.522239 
L 181.585556 81.075515 
L 182.762678 71.502221 
L 183.939801 65.884354 
L 185.116923 51.777302 
L 186.294046 41.446465 
L 187.471168 49.800044 
L 188.648291 56.379137 
L 189.825413 57.624425 
L 191.002536 69.695969 
L 192.179658 63.261165 
L 193.356781 68.733579 
L 195.711026 77.16003 
L 196.888148 70.712147 
L 198.065271 72.6341 
L 199.242393 62.732165 
L 200.419516 69.87672 
L 201.596638 63.296852 
L 202.773761 62.040806 
L 203.950883 56.394025 
L 205.128006 68.911379 
L 206.305128 65.085482 
L 207.482251 69.584546 
L 208.659373 78.077395 
L 209.836496 83.253654 
L 211.013618 81.637748 
L 212.190741 80.762134 
L 213.367863 68.727681 
L 214.544986 65.322808 
L 215.722108 54.711039 
L 216.89923 37.872716 
L 218.076353 36.915961 
L 219.253475 35.30443 
L 220.430598 43.798882 
L 221.60772 48.867311 
L 225.139088 129.633423 
L 226.31621 153.651741 
L 227.493333 180.097214 
L 228.670455 187.486123 
L 229.847578 199.516367 
L 231.0247 207.727343 
L 233.378945 176.951784 
L 234.556068 150.800068 
L 235.73319 129.1185 
L 238.087435 77.842328 
L 240.44168 54.75357 
L 241.618803 53.054367 
L 242.795925 74.382089 
L 243.973048 82.145818 
L 245.15017 105.853121 
L 247.504415 161.087295 
L 249.85866 206.14367 
L 251.035783 207.51614 
L 252.212905 222.778236 
L 253.390028 222.019206 
L 254.56715 211.01861 
L 256.921395 204.437751 
L 258.098518 195.179276 
L 259.27564 175.412295 
L 260.452763 179.536089 
L 261.629885 176.560131 
L 262.807008 181.404794 
L 263.98413 184.243618 
L 265.161253 192.978536 
L 266.338375 191.239187 
L 267.515498 203.096445 
L 268.69262 201.261292 
L 269.869743 206.401965 
L 271.046865 196.096926 
L 272.223988 193.254158 
L 273.40111 182.069018 
L 274.578233 181.730539 
L 275.755355 172.07528 
L 276.932478 171.536772 
L 278.1096 179.100036 
L 279.286723 187.875802 
L 280.463845 199.885632 
L 281.640968 207.954945 
L 282.81809 210.411822 
L 283.995213 229.204507 
L 285.172335 220.563637 
L 286.349458 214.32301 
L 287.52658 200.257338 
L 288.703703 181.282192 
L 289.880825 147.969892 
L 291.057948 130.710725 
L 292.23507 107.162061 
L 293.412193 92.801383 
L 294.589315 69.099997 
L 295.766438 67.29319 
L 296.94356 55.32016 
L 298.120683 65.503671 
L 299.297805 84.256434 
L 300.474928 97.180404 
L 302.829173 146.794613 
L 304.006295 174.028952 
L 305.183418 183.522396 
L 306.36054 198.06342 
L 307.537663 198.181376 
L 308.714785 198.526477 
L 309.891908 175.748031 
L 311.06903 158.556278 
L 312.246152 134.782362 
L 313.423275 101.562059 
L 315.77752 62.59273 
L 316.954642 43.451059 
L 318.131765 31.776491 
L 319.308887 33.310298 
L 320.48601 30.009075 
L 321.663132 34.861949 
L 322.840255 44.377831 
L 324.017377 57.921406 
L 325.1945 73.048126 
L 326.371622 80.242962 
L 327.548745 100.520318 
L 331.080112 152.036245 
L 332.257235 161.271157 
L 333.434357 178.992623 
L 334.61148 179.650262 
L 335.788602 196.509219 
L 336.965725 207.984955 
L 338.142847 213.676867 
L 339.31997 216.757342 
L 340.497092 210.574535 
L 341.674215 215.27052 
L 342.851337 199.143794 
L 344.02846 189.677908 
L 345.205582 186.103689 
L 346.382705 167.741181 
L 347.559827 156.454348 
L 348.73695 122.402239 
L 349.914072 107.833994 
L 351.091195 96.597596 
L 352.268317 79.459239 
L 353.44544 68.753447 
L 354.622562 59.567249 
L 355.799685 46.21312 
L 356.976807 37.937017 
L 358.15393 39.366014 
L 359.331052 33.07575 
L 361.685297 56.375563 
L 362.86242 65.008678 
L 364.039542 72.460125 
L 365.216665 87.62749 
L 366.393787 114.947069 
L 368.748032 157.292139 
L 369.925155 183.981711 
L 371.102277 187.084352 
L 372.2794 195.516629 
L 373.456522 198.518067 
L 374.633645 199.99974 
L 375.810767 201.701421 
L 376.98789 195.690273 
L 378.165012 188.335024 
L 379.342135 189.240697 
L 380.519257 190.920856 
L 381.69638 188.944441 
L 382.873502 188.51518 
L 384.050625 191.720576 
L 385.227747 205.481699 
L 386.40487 202.637481 
L 387.581992 220.843285 
L 388.759115 221.59703 
L 389.936237 212.271076 
L 391.11336 207.510707 
L 392.290482 188.887634 
L 394.644727 137.761745 
L 395.82185 116.980017 
L 396.998972 93.609763 
L 398.176095 66.727928 
L 399.353217 61.180011 
L 400.53034 54.136585 
L 401.707462 51.946677 
L 402.884585 68.254727 
L 404.061707 92.993236 
L 405.238829 112.053646 
L 406.415952 142.986961 
L 407.593074 164.19629 
L 408.770197 181.083891 
L 409.947319 202.783661 
L 411.124442 205.00635 
L 412.301564 226.799948 
L 413.478687 208.111778 
L 414.655809 206.960915 
L 415.832932 199.402647 
L 417.010054 201.370223 
L 418.187177 189.103814 
L 419.364299 187.527329 
L 420.541422 187.219181 
L 421.718544 187.735031 
L 424.072789 196.781141 
L 425.249912 204.453411 
L 426.427034 197.728004 
L 427.604157 199.738302 
L 428.781279 194.740444 
L 429.958402 199.609447 
L 431.135524 183.419207 
L 432.312647 162.133346 
L 433.489769 142.97938 
L 434.666892 127.90588 
L 437.021137 82.142791 
L 438.198259 61.544284 
L 439.375382 48.915351 
L 440.552504 39.154284 
L 441.729627 25.794508 
L 442.906749 26.593599 
L 444.083872 30.519466 
L 445.260994 36.681139 
L 446.438117 48.553682 
L 447.615239 69.872724 
L 448.792362 83.243688 
L 449.969484 110.957103 
L 451.146607 133.361543 
L 452.323729 148.229303 
L 453.500852 170.341094 
L 454.677974 180.919835 
L 455.855097 189.668581 
L 457.032219 195.413839 
L 458.209342 192.228235 
L 459.386464 176.736275 
L 460.563587 169.891478 
L 464.094954 97.949367 
L 465.272077 76.915075 
L 467.626322 52.911651 
L 468.803444 38.168853 
L 469.980567 30.581872 
L 471.157689 26.665987 
L 472.334812 37.270287 
L 473.511934 43.012551 
L 474.689057 53.360762 
L 475.866179 66.046292 
L 477.043302 93.274515 
L 478.220424 99.966376 
L 479.397547 118.801429 
L 480.574669 127.91808 
L 481.751792 140.596441 
L 482.928914 167.355863 
L 484.106037 185.127987 
L 485.283159 184.013304 
L 486.460282 190.685947 
L 487.637404 204.277097 
L 488.814527 209.344052 
L 489.991649 218.518655 
L 491.168772 212.052604 
L 492.345894 207.510553 
L 494.700139 194.380869 
L 495.877262 171.402494 
L 497.054384 166.491801 
L 498.231507 139.597286 
L 499.408629 123.723246 
L 501.762874 97.171311 
L 502.939996 76.84483 
L 504.117119 65.527079 
L 505.294241 60.036501 
L 506.471364 52.065752 
L 507.648486 36.886666 
L 508.825609 42.088859 
L 510.002731 38.703511 
L 511.179854 44.16898 
L 512.356976 54.625515 
L 513.534099 61.582068 
L 514.711221 84.124516 
L 515.888344 95.091673 
L 518.242589 128.451544 
L 519.419711 149.118759 
L 520.596834 174.686776 
L 521.773956 174.413769 
L 522.951079 195.129027 
L 524.128201 194.631616 
L 525.305324 207.224572 
L 526.482446 204.807673 
L 527.659569 212.006032 
L 528.836691 204.347632 
L 530.013814 215.012874 
L 531.190936 197.190433 
L 532.368059 196.214028 
L 533.545181 193.963865 
L 534.722304 185.951611 
L 535.899426 184.42378 
L 537.076549 182.594946 
L 538.253671 166.542975 
L 539.430794 175.124192 
L 540.607916 181.311931 
L 541.785039 180.723717 
L 542.962161 192.827289 
L 544.139284 203.171958 
L 545.316406 215.102803 
L 545.316406 215.102803 
" clip-path="url(#pea6ade0703)" style="fill: none; stroke: #ff7f0e; stroke-linecap: square"/>
   </g>
   <g id="patch_3">
    <path d="M 52.160938 250.421875 
L 52.160938 7.2 
" style="fill: none; stroke: #000000; stroke-width: 0.8; stroke-linejoin: miter; stroke-linecap: square"/>
   </g>
   <g id="patch_4">
    <path d="M 568.8 250.421875 
L 568.8 7.2 
" style="fill: none; stroke: #000000; stroke-width: 0.8; stroke-linejoin: miter; stroke-linecap: square"/>
   </g>
   <g id="patch_5">
    <path d="M 52.160937 250.421875 
L 568.8 250.421875 
" style="fill: none; stroke: #000000; stroke-width: 0.8; stroke-linejoin: miter; stroke-linecap: square"/>
   </g>
   <g id="patch_6">
    <path d="M 52.160937 7.2 
L 568.8 7.2 
" style="fill: none; stroke: #000000; stroke-width: 0.8; stroke-linejoin: miter; stroke-linecap: square"/>
   </g>
   <g id="legend_1">
    <g id="patch_7">
     <path d="M 59.160938 44.55625 
L 116.15625 44.55625 
Q 118.15625 44.55625 118.15625 42.55625 
L 118.15625 14.2 
Q 118.15625 12.2 116.15625 12.2 
L 59.160938 12.2 
Q 57.160938 12.2 57.160938 14.2 
L 57.160938 42.55625 
Q 57.160938 44.55625 59.160938 44.55625 
z
" style="fill: #ffffff; opacity: 0.8; stroke: #cccccc; stroke-linejoin: miter"/>
    </g>
    <g id="line2d_31">
     <path d="M 61.160938 20.298438 
L 71.160938 20.298438 
L 81.160938 20.298438 
" style="fill: none; stroke: #1f77b4; stroke-linecap: square"/>
    </g>
    <g id="text_17">
     <!-- real -->
     <g transform="translate(89.160938 23.798438) scale(0.1 -0.1)">
      <defs>
       <path id="DejaVuSans-72" d="M 2631 2963 
Q 2534 3019 2420 3045 
Q 2306 3072 2169 3072 
Q 1681 3072 1420 2755 
Q 1159 2438 1159 1844 
L 1159 0 
L 581 0 
L 581 3500 
L 1159 3500 
L 1159 2956 
Q 1341 3275 1631 3429 
Q 1922 3584 2338 3584 
Q 2397 3584 2469 3576 
Q 2541 3569 2628 3553 
L 2631 2963 
z
" transform="scale(0.015625)"/>
      </defs>
      <use xlink:href="#DejaVuSans-72"/>
      <use xlink:href="#DejaVuSans-65" transform="translate(38.863281 0)"/>
      <use xlink:href="#DejaVuSans-61" transform="translate(100.386719 0)"/>
      <use xlink:href="#DejaVuSans-6c" transform="translate(161.666016 0)"/>
     </g>
    </g>
    <g id="line2d_32">
     <path d="M 61.160938 34.976563 
L 71.160938 34.976563 
L 81.160938 34.976563 
" style="fill: none; stroke: #ff7f0e; stroke-linecap: square"/>
    </g>
    <g id="text_18">
     <!-- imag -->
     <g transform="translate(89.160938 38.476563) scale(0.1 -0.1)">
      <defs>
       <path id="DejaVuSans-67" d="M 2906 1791 
Q 2906 2416 2648 2759 
Q 2391 3103 1925 3103 
Q 1463 3103 1205 2759 
Q 947 2416 947 1791 
Q 947 1169 1205 825 
Q 1463 481 1925 481 
Q 2391 481 2648 825 
Q 2906 1169 2906 1791 
z
M 3481 434 
Q 3481 -459 3084 -895 
Q 2688 -1331 1869 -1331 
Q 1566 -1331 1297 -1286 
Q 1028 -1241 775 -1147 
L 775 -588 
Q 1028 -725 1275 -790 
Q 1522 -856 1778 -856 
Q 2344 -856 2625 -561 
Q 2906 -266 2906 331 
L 2906 616 
Q 2728 306 2450 153 
Q 2172 0 1784 0 
Q 1141 0 747 490 
Q 353 981 353 1791 
Q 353 2603 747 3093 
Q 1141 3584 1784 3584 
Q 2172 3584 2450 3431 
Q 2728 3278 2906 2969 
L 2906 3500 
L 3481 3500 
L 3481 434 
z
" transform="scale(0.015625)"/>
      </defs>
      <use xlink:href="#DejaVuSans-69"/>
      <use xlink:href="#DejaVuSans-6d" transform="translate(27.783203 0)"/>
      <use xlink:href="#DejaVuSans-61" transform="translate(125.195312 0)"/>
      <use xlink:href="#DejaVuSans-67" transform="translate(186.474609 0)"/>
     </g>
    </g>
   </g>
  </g>
 </g>
 <defs>
  <clipPath id="pea6ade0703">
   <rect x="52.160938" y="7.2" width="516.639063" height="243.221875"/>
  </clipPath>
 </defs>
</svg>
