<?xml version="1.0" encoding="utf-8" standalone="no"?>
<!DOCTYPE svg PUBLIC "-//W3C//DTD SVG 1.1//EN"
  "http://www.w3.org/Graphics/SVG/1.1/DTD/svg11.dtd">
<svg xmlns:xlink="http://www.w3.org/1999/xlink" width="576pt" height="288pt" viewBox="0 0 576 288" xmlns="http://www.w3.org/2000/svg" version="1.1">
 <metadata>
  <rdf:RDF xmlns:dc="http://purl.org/dc/elements/1.1/" xmlns:cc="http://creativecommons.org/ns#" xmlns:rdf="http://www.w3.org/1999/02/22-rdf-syntax-ns#">
   <cc:Work>
    <dc:type rdf:resource="http://purl.org/dc/dcmitype/StillImage"/>
    <dc:date>2025-05-04T14:38:59.280722</dc:date>
    <dc:format>image/svg+xml</dc:format>
    <dc:creator>
     <cc:Agent>
      <dc:title>Matplotlib v3.10.1, https://matplotlib.org/</dc:title>
     </cc:Agent>
    </dc:creator>
   </cc:Work>
  </rdf:RDF>
 </metadata>
 <defs>
  <style type="text/css">*{stroke-linejoin: round; stroke-linecap: butt}</style>
 </defs>
 <g id="figure_1">
  <g id="patch_1">
   <path d="M 0 288 
L 576 288 
L 576 0 
L 0 0 
z
" style="fill: #ffffff"/>
  </g>
  <g id="axes_1">
   <g id="patch_2">
    <path d="M 50.14375 250.44375 
L 568.8 250.44375 
L 568.8 22.318125 
L 50.14375 22.318125 
z
" style="fill: #ffffff"/>
   </g>
   <g id="matplotlib.axis_1">
    <g id="xtick_1">
     <g id="line2d_1">
      <path d="M 73.719034 250.44375 
L 73.719034 22.318125 
" clip-path="url(#pc2eb526218)" style="fill: none; stroke-dasharray: 2.96,1.28; stroke-dashoffset: 0; stroke: #b0b0b0; stroke-opacity: 0.8; stroke-width: 0.8"/>
     </g>
     <g id="line2d_2">
      <defs>
       <path id="m1ef2ab0c42" d="M 0 0 
L 0 3.5 
" style="stroke: #000000; stroke-width: 0.8"/>
      </defs>
      <g>
       <use xlink:href="#m1ef2ab0c42" x="73.719034" y="250.44375" style="stroke: #000000; stroke-width: 0.8"/>
      </g>
     </g>
     <g id="text_1">
      <!-- 0.0 -->
      <g transform="translate(65.767472 265.042188) scale(0.1 -0.1)">
       <defs>
        <path id="DejaVuSans-30" d="M 2034 4250 
Q 1547 4250 1301 3770 
Q 1056 3291 1056 2328 
Q 1056 1369 1301 889 
Q 1547 409 2034 409 
Q 2525 409 2770 889 
Q 3016 1369 3016 2328 
Q 3016 3291 2770 3770 
Q 2525 4250 2034 4250 
z
M 2034 4750 
Q 2819 4750 3233 4129 
Q 3647 3509 3647 2328 
Q 3647 1150 3233 529 
Q 2819 -91 2034 -91 
Q 1250 -91 836 529 
Q 422 1150 422 2328 
Q 422 3509 836 4129 
Q 1250 4750 2034 4750 
z
" transform="scale(0.015625)"/>
        <path id="DejaVuSans-2e" d="M 684 794 
L 1344 794 
L 1344 0 
L 684 0 
L 684 794 
z
" transform="scale(0.015625)"/>
       </defs>
       <use xlink:href="#DejaVuSans-30"/>
       <use xlink:href="#DejaVuSans-2e" transform="translate(63.623047 0)"/>
       <use xlink:href="#DejaVuSans-30" transform="translate(95.410156 0)"/>
      </g>
     </g>
    </g>
    <g id="xtick_2">
     <g id="line2d_3">
      <path d="M 132.657244 250.44375 
L 132.657244 22.318125 
" clip-path="url(#pc2eb526218)" style="fill: none; stroke-dasharray: 2.96,1.28; stroke-dashoffset: 0; stroke: #b0b0b0; stroke-opacity: 0.8; stroke-width: 0.8"/>
     </g>
     <g id="line2d_4">
      <g>
       <use xlink:href="#m1ef2ab0c42" x="132.657244" y="250.44375" style="stroke: #000000; stroke-width: 0.8"/>
      </g>
     </g>
     <g id="text_2">
      <!-- 0.5 -->
      <g transform="translate(124.705682 265.042188) scale(0.1 -0.1)">
       <defs>
        <path id="DejaVuSans-35" d="M 691 4666 
L 3169 4666 
L 3169 4134 
L 1269 4134 
L 1269 2991 
Q 1406 3038 1543 3061 
Q 1681 3084 1819 3084 
Q 2600 3084 3056 2656 
Q 3513 2228 3513 1497 
Q 3513 744 3044 326 
Q 2575 -91 1722 -91 
Q 1428 -91 1123 -41 
Q 819 9 494 109 
L 494 744 
Q 775 591 1075 516 
Q 1375 441 1709 441 
Q 2250 441 2565 725 
Q 2881 1009 2881 1497 
Q 2881 1984 2565 2268 
Q 2250 2553 1709 2553 
Q 1456 2553 1204 2497 
Q 953 2441 691 2322 
L 691 4666 
z
" transform="scale(0.015625)"/>
       </defs>
       <use xlink:href="#DejaVuSans-30"/>
       <use xlink:href="#DejaVuSans-2e" transform="translate(63.623047 0)"/>
       <use xlink:href="#DejaVuSans-35" transform="translate(95.410156 0)"/>
      </g>
     </g>
    </g>
    <g id="xtick_3">
     <g id="line2d_5">
      <path d="M 191.595455 250.44375 
L 191.595455 22.318125 
" clip-path="url(#pc2eb526218)" style="fill: none; stroke-dasharray: 2.96,1.28; stroke-dashoffset: 0; stroke: #b0b0b0; stroke-opacity: 0.8; stroke-width: 0.8"/>
     </g>
     <g id="line2d_6">
      <g>
       <use xlink:href="#m1ef2ab0c42" x="191.595455" y="250.44375" style="stroke: #000000; stroke-width: 0.8"/>
      </g>
     </g>
     <g id="text_3">
      <!-- 1.0 -->
      <g transform="translate(183.643892 265.042188) scale(0.1 -0.1)">
       <defs>
        <path id="DejaVuSans-31" d="M 794 531 
L 1825 531 
L 1825 4091 
L 703 3866 
L 703 4441 
L 1819 4666 
L 2450 4666 
L 2450 531 
L 3481 531 
L 3481 0 
L 794 0 
L 794 531 
z
" transform="scale(0.015625)"/>
       </defs>
       <use xlink:href="#DejaVuSans-31"/>
       <use xlink:href="#DejaVuSans-2e" transform="translate(63.623047 0)"/>
       <use xlink:href="#DejaVuSans-30" transform="translate(95.410156 0)"/>
      </g>
     </g>
    </g>
    <g id="xtick_4">
     <g id="line2d_7">
      <path d="M 250.533665 250.44375 
L 250.533665 22.318125 
" clip-path="url(#pc2eb526218)" style="fill: none; stroke-dasharray: 2.96,1.28; stroke-dashoffset: 0; stroke: #b0b0b0; stroke-opacity: 0.8; stroke-width: 0.8"/>
     </g>
     <g id="line2d_8">
      <g>
       <use xlink:href="#m1ef2ab0c42" x="250.533665" y="250.44375" style="stroke: #000000; stroke-width: 0.8"/>
      </g>
     </g>
     <g id="text_4">
      <!-- 1.5 -->
      <g transform="translate(242.582102 265.042188) scale(0.1 -0.1)">
       <use xlink:href="#DejaVuSans-31"/>
       <use xlink:href="#DejaVuSans-2e" transform="translate(63.623047 0)"/>
       <use xlink:href="#DejaVuSans-35" transform="translate(95.410156 0)"/>
      </g>
     </g>
    </g>
    <g id="xtick_5">
     <g id="line2d_9">
      <path d="M 309.471875 250.44375 
L 309.471875 22.318125 
" clip-path="url(#pc2eb526218)" style="fill: none; stroke-dasharray: 2.96,1.28; stroke-dashoffset: 0; stroke: #b0b0b0; stroke-opacity: 0.8; stroke-width: 0.8"/>
     </g>
     <g id="line2d_10">
      <g>
       <use xlink:href="#m1ef2ab0c42" x="309.471875" y="250.44375" style="stroke: #000000; stroke-width: 0.8"/>
      </g>
     </g>
     <g id="text_5">
      <!-- 2.0 -->
      <g transform="translate(301.520313 265.042188) scale(0.1 -0.1)">
       <defs>
        <path id="DejaVuSans-32" d="M 1228 531 
L 3431 531 
L 3431 0 
L 469 0 
L 469 531 
Q 828 903 1448 1529 
Q 2069 2156 2228 2338 
Q 2531 2678 2651 2914 
Q 2772 3150 2772 3378 
Q 2772 3750 2511 3984 
Q 2250 4219 1831 4219 
Q 1534 4219 1204 4116 
Q 875 4013 500 3803 
L 500 4441 
Q 881 4594 1212 4672 
Q 1544 4750 1819 4750 
Q 2544 4750 2975 4387 
Q 3406 4025 3406 3419 
Q 3406 3131 3298 2873 
Q 3191 2616 2906 2266 
Q 2828 2175 2409 1742 
Q 1991 1309 1228 531 
z
" transform="scale(0.015625)"/>
       </defs>
       <use xlink:href="#DejaVuSans-32"/>
       <use xlink:href="#DejaVuSans-2e" transform="translate(63.623047 0)"/>
       <use xlink:href="#DejaVuSans-30" transform="translate(95.410156 0)"/>
      </g>
     </g>
    </g>
    <g id="xtick_6">
     <g id="line2d_11">
      <path d="M 368.410085 250.44375 
L 368.410085 22.318125 
" clip-path="url(#pc2eb526218)" style="fill: none; stroke-dasharray: 2.96,1.28; stroke-dashoffset: 0; stroke: #b0b0b0; stroke-opacity: 0.8; stroke-width: 0.8"/>
     </g>
     <g id="line2d_12">
      <g>
       <use xlink:href="#m1ef2ab0c42" x="368.410085" y="250.44375" style="stroke: #000000; stroke-width: 0.8"/>
      </g>
     </g>
     <g id="text_6">
      <!-- 2.5 -->
      <g transform="translate(360.458523 265.042188) scale(0.1 -0.1)">
       <use xlink:href="#DejaVuSans-32"/>
       <use xlink:href="#DejaVuSans-2e" transform="translate(63.623047 0)"/>
       <use xlink:href="#DejaVuSans-35" transform="translate(95.410156 0)"/>
      </g>
     </g>
    </g>
    <g id="xtick_7">
     <g id="line2d_13">
      <path d="M 427.348295 250.44375 
L 427.348295 22.318125 
" clip-path="url(#pc2eb526218)" style="fill: none; stroke-dasharray: 2.96,1.28; stroke-dashoffset: 0; stroke: #b0b0b0; stroke-opacity: 0.8; stroke-width: 0.8"/>
     </g>
     <g id="line2d_14">
      <g>
       <use xlink:href="#m1ef2ab0c42" x="427.348295" y="250.44375" style="stroke: #000000; stroke-width: 0.8"/>
      </g>
     </g>
     <g id="text_7">
      <!-- 3.0 -->
      <g transform="translate(419.396733 265.042188) scale(0.1 -0.1)">
       <defs>
        <path id="DejaVuSans-33" d="M 2597 2516 
Q 3050 2419 3304 2112 
Q 3559 1806 3559 1356 
Q 3559 666 3084 287 
Q 2609 -91 1734 -91 
Q 1441 -91 1130 -33 
Q 819 25 488 141 
L 488 750 
Q 750 597 1062 519 
Q 1375 441 1716 441 
Q 2309 441 2620 675 
Q 2931 909 2931 1356 
Q 2931 1769 2642 2001 
Q 2353 2234 1838 2234 
L 1294 2234 
L 1294 2753 
L 1863 2753 
Q 2328 2753 2575 2939 
Q 2822 3125 2822 3475 
Q 2822 3834 2567 4026 
Q 2313 4219 1838 4219 
Q 1578 4219 1281 4162 
Q 984 4106 628 3988 
L 628 4550 
Q 988 4650 1302 4700 
Q 1616 4750 1894 4750 
Q 2613 4750 3031 4423 
Q 3450 4097 3450 3541 
Q 3450 3153 3228 2886 
Q 3006 2619 2597 2516 
z
" transform="scale(0.015625)"/>
       </defs>
       <use xlink:href="#DejaVuSans-33"/>
       <use xlink:href="#DejaVuSans-2e" transform="translate(63.623047 0)"/>
       <use xlink:href="#DejaVuSans-30" transform="translate(95.410156 0)"/>
      </g>
     </g>
    </g>
    <g id="xtick_8">
     <g id="line2d_15">
      <path d="M 486.286506 250.44375 
L 486.286506 22.318125 
" clip-path="url(#pc2eb526218)" style="fill: none; stroke-dasharray: 2.96,1.28; stroke-dashoffset: 0; stroke: #b0b0b0; stroke-opacity: 0.8; stroke-width: 0.8"/>
     </g>
     <g id="line2d_16">
      <g>
       <use xlink:href="#m1ef2ab0c42" x="486.286506" y="250.44375" style="stroke: #000000; stroke-width: 0.8"/>
      </g>
     </g>
     <g id="text_8">
      <!-- 3.5 -->
      <g transform="translate(478.334943 265.042188) scale(0.1 -0.1)">
       <use xlink:href="#DejaVuSans-33"/>
       <use xlink:href="#DejaVuSans-2e" transform="translate(63.623047 0)"/>
       <use xlink:href="#DejaVuSans-35" transform="translate(95.410156 0)"/>
      </g>
     </g>
    </g>
    <g id="xtick_9">
     <g id="line2d_17">
      <path d="M 545.224716 250.44375 
L 545.224716 22.318125 
" clip-path="url(#pc2eb526218)" style="fill: none; stroke-dasharray: 2.96,1.28; stroke-dashoffset: 0; stroke: #b0b0b0; stroke-opacity: 0.8; stroke-width: 0.8"/>
     </g>
     <g id="line2d_18">
      <g>
       <use xlink:href="#m1ef2ab0c42" x="545.224716" y="250.44375" style="stroke: #000000; stroke-width: 0.8"/>
      </g>
     </g>
     <g id="text_9">
      <!-- 4.0 -->
      <g transform="translate(537.273153 265.042188) scale(0.1 -0.1)">
       <defs>
        <path id="DejaVuSans-34" d="M 2419 4116 
L 825 1625 
L 2419 1625 
L 2419 4116 
z
M 2253 4666 
L 3047 4666 
L 3047 1625 
L 3713 1625 
L 3713 1100 
L 3047 1100 
L 3047 0 
L 2419 0 
L 2419 1100 
L 313 1100 
L 313 1709 
L 2253 4666 
z
" transform="scale(0.015625)"/>
       </defs>
       <use xlink:href="#DejaVuSans-34"/>
       <use xlink:href="#DejaVuSans-2e" transform="translate(63.623047 0)"/>
       <use xlink:href="#DejaVuSans-30" transform="translate(95.410156 0)"/>
      </g>
     </g>
    </g>
    <g id="text_10">
     <!-- Random variable -->
     <g transform="translate(267.0125 278.720312) scale(0.1 -0.1)">
      <defs>
       <path id="DejaVuSans-52" d="M 2841 2188 
Q 3044 2119 3236 1894 
Q 3428 1669 3622 1275 
L 4263 0 
L 3584 0 
L 2988 1197 
Q 2756 1666 2539 1819 
Q 2322 1972 1947 1972 
L 1259 1972 
L 1259 0 
L 628 0 
L 628 4666 
L 2053 4666 
Q 2853 4666 3247 4331 
Q 3641 3997 3641 3322 
Q 3641 2881 3436 2590 
Q 3231 2300 2841 2188 
z
M 1259 4147 
L 1259 2491 
L 2053 2491 
Q 2509 2491 2742 2702 
Q 2975 2913 2975 3322 
Q 2975 3731 2742 3939 
Q 2509 4147 2053 4147 
L 1259 4147 
z
" transform="scale(0.015625)"/>
       <path id="DejaVuSans-61" d="M 2194 1759 
Q 1497 1759 1228 1600 
Q 959 1441 959 1056 
Q 959 750 1161 570 
Q 1363 391 1709 391 
Q 2188 391 2477 730 
Q 2766 1069 2766 1631 
L 2766 1759 
L 2194 1759 
z
M 3341 1997 
L 3341 0 
L 2766 0 
L 2766 531 
Q 2569 213 2275 61 
Q 1981 -91 1556 -91 
Q 1019 -91 701 211 
Q 384 513 384 1019 
Q 384 1609 779 1909 
Q 1175 2209 1959 2209 
L 2766 2209 
L 2766 2266 
Q 2766 2663 2505 2880 
Q 2244 3097 1772 3097 
Q 1472 3097 1187 3025 
Q 903 2953 641 2809 
L 641 3341 
Q 956 3463 1253 3523 
Q 1550 3584 1831 3584 
Q 2591 3584 2966 3190 
Q 3341 2797 3341 1997 
z
" transform="scale(0.015625)"/>
       <path id="DejaVuSans-6e" d="M 3513 2113 
L 3513 0 
L 2938 0 
L 2938 2094 
Q 2938 2591 2744 2837 
Q 2550 3084 2163 3084 
Q 1697 3084 1428 2787 
Q 1159 2491 1159 1978 
L 1159 0 
L 581 0 
L 581 3500 
L 1159 3500 
L 1159 2956 
Q 1366 3272 1645 3428 
Q 1925 3584 2291 3584 
Q 2894 3584 3203 3211 
Q 3513 2838 3513 2113 
z
" transform="scale(0.015625)"/>
       <path id="DejaVuSans-64" d="M 2906 2969 
L 2906 4863 
L 3481 4863 
L 3481 0 
L 2906 0 
L 2906 525 
Q 2725 213 2448 61 
Q 2172 -91 1784 -91 
Q 1150 -91 751 415 
Q 353 922 353 1747 
Q 353 2572 751 3078 
Q 1150 3584 1784 3584 
Q 2172 3584 2448 3432 
Q 2725 3281 2906 2969 
z
M 947 1747 
Q 947 1113 1208 752 
Q 1469 391 1925 391 
Q 2381 391 2643 752 
Q 2906 1113 2906 1747 
Q 2906 2381 2643 2742 
Q 2381 3103 1925 3103 
Q 1469 3103 1208 2742 
Q 947 2381 947 1747 
z
" transform="scale(0.015625)"/>
       <path id="DejaVuSans-6f" d="M 1959 3097 
Q 1497 3097 1228 2736 
Q 959 2375 959 1747 
Q 959 1119 1226 758 
Q 1494 397 1959 397 
Q 2419 397 2687 759 
Q 2956 1122 2956 1747 
Q 2956 2369 2687 2733 
Q 2419 3097 1959 3097 
z
M 1959 3584 
Q 2709 3584 3137 3096 
Q 3566 2609 3566 1747 
Q 3566 888 3137 398 
Q 2709 -91 1959 -91 
Q 1206 -91 779 398 
Q 353 888 353 1747 
Q 353 2609 779 3096 
Q 1206 3584 1959 3584 
z
" transform="scale(0.015625)"/>
       <path id="DejaVuSans-6d" d="M 3328 2828 
Q 3544 3216 3844 3400 
Q 4144 3584 4550 3584 
Q 5097 3584 5394 3201 
Q 5691 2819 5691 2113 
L 5691 0 
L 5113 0 
L 5113 2094 
Q 5113 2597 4934 2840 
Q 4756 3084 4391 3084 
Q 3944 3084 3684 2787 
Q 3425 2491 3425 1978 
L 3425 0 
L 2847 0 
L 2847 2094 
Q 2847 2600 2669 2842 
Q 2491 3084 2119 3084 
Q 1678 3084 1418 2786 
Q 1159 2488 1159 1978 
L 1159 0 
L 581 0 
L 581 3500 
L 1159 3500 
L 1159 2956 
Q 1356 3278 1631 3431 
Q 1906 3584 2284 3584 
Q 2666 3584 2933 3390 
Q 3200 3197 3328 2828 
z
" transform="scale(0.015625)"/>
       <path id="DejaVuSans-20" transform="scale(0.015625)"/>
       <path id="DejaVuSans-76" d="M 191 3500 
L 800 3500 
L 1894 563 
L 2988 3500 
L 3597 3500 
L 2284 0 
L 1503 0 
L 191 3500 
z
" transform="scale(0.015625)"/>
       <path id="DejaVuSans-72" d="M 2631 2963 
Q 2534 3019 2420 3045 
Q 2306 3072 2169 3072 
Q 1681 3072 1420 2755 
Q 1159 2438 1159 1844 
L 1159 0 
L 581 0 
L 581 3500 
L 1159 3500 
L 1159 2956 
Q 1341 3275 1631 3429 
Q 1922 3584 2338 3584 
Q 2397 3584 2469 3576 
Q 2541 3569 2628 3553 
L 2631 2963 
z
" transform="scale(0.015625)"/>
       <path id="DejaVuSans-69" d="M 603 3500 
L 1178 3500 
L 1178 0 
L 603 0 
L 603 3500 
z
M 603 4863 
L 1178 4863 
L 1178 4134 
L 603 4134 
L 603 4863 
z
" transform="scale(0.015625)"/>
       <path id="DejaVuSans-62" d="M 3116 1747 
Q 3116 2381 2855 2742 
Q 2594 3103 2138 3103 
Q 1681 3103 1420 2742 
Q 1159 2381 1159 1747 
Q 1159 1113 1420 752 
Q 1681 391 2138 391 
Q 2594 391 2855 752 
Q 3116 1113 3116 1747 
z
M 1159 2969 
Q 1341 3281 1617 3432 
Q 1894 3584 2278 3584 
Q 2916 3584 3314 3078 
Q 3713 2572 3713 1747 
Q 3713 922 3314 415 
Q 2916 -91 2278 -91 
Q 1894 -91 1617 61 
Q 1341 213 1159 525 
L 1159 0 
L 581 0 
L 581 4863 
L 1159 4863 
L 1159 2969 
z
" transform="scale(0.015625)"/>
       <path id="DejaVuSans-6c" d="M 603 4863 
L 1178 4863 
L 1178 0 
L 603 0 
L 603 4863 
z
" transform="scale(0.015625)"/>
       <path id="DejaVuSans-65" d="M 3597 1894 
L 3597 1613 
L 953 1613 
Q 991 1019 1311 708 
Q 1631 397 2203 397 
Q 2534 397 2845 478 
Q 3156 559 3463 722 
L 3463 178 
Q 3153 47 2828 -22 
Q 2503 -91 2169 -91 
Q 1331 -91 842 396 
Q 353 884 353 1716 
Q 353 2575 817 3079 
Q 1281 3584 2069 3584 
Q 2775 3584 3186 3129 
Q 3597 2675 3597 1894 
z
M 3022 2063 
Q 3016 2534 2758 2815 
Q 2500 3097 2075 3097 
Q 1594 3097 1305 2825 
Q 1016 2553 972 2059 
L 3022 2063 
z
" transform="scale(0.015625)"/>
      </defs>
      <use xlink:href="#DejaVuSans-52"/>
      <use xlink:href="#DejaVuSans-61" transform="translate(67.232422 0)"/>
      <use xlink:href="#DejaVuSans-6e" transform="translate(128.511719 0)"/>
      <use xlink:href="#DejaVuSans-64" transform="translate(191.890625 0)"/>
      <use xlink:href="#DejaVuSans-6f" transform="translate(255.367188 0)"/>
      <use xlink:href="#DejaVuSans-6d" transform="translate(316.548828 0)"/>
      <use xlink:href="#DejaVuSans-20" transform="translate(413.960938 0)"/>
      <use xlink:href="#DejaVuSans-76" transform="translate(445.748047 0)"/>
      <use xlink:href="#DejaVuSans-61" transform="translate(504.927734 0)"/>
      <use xlink:href="#DejaVuSans-72" transform="translate(566.207031 0)"/>
      <use xlink:href="#DejaVuSans-69" transform="translate(607.320312 0)"/>
      <use xlink:href="#DejaVuSans-61" transform="translate(635.103516 0)"/>
      <use xlink:href="#DejaVuSans-62" transform="translate(696.382812 0)"/>
      <use xlink:href="#DejaVuSans-6c" transform="translate(759.859375 0)"/>
      <use xlink:href="#DejaVuSans-65" transform="translate(787.642578 0)"/>
     </g>
    </g>
   </g>
   <g id="matplotlib.axis_2">
    <g id="ytick_1">
     <g id="line2d_19">
      <path d="M 50.14375 250.44375 
L 568.8 250.44375 
" clip-path="url(#pc2eb526218)" style="fill: none; stroke-dasharray: 2.96,1.28; stroke-dashoffset: 0; stroke: #b0b0b0; stroke-opacity: 0.8; stroke-width: 0.8"/>
     </g>
     <g id="line2d_20">
      <defs>
       <path id="m88a1b4ea4c" d="M 0 0 
L -3.5 0 
" style="stroke: #000000; stroke-width: 0.8"/>
      </defs>
      <g>
       <use xlink:href="#m88a1b4ea4c" x="50.14375" y="250.44375" style="stroke: #000000; stroke-width: 0.8"/>
      </g>
     </g>
     <g id="text_11">
      <!-- 0.00 -->
      <g transform="translate(20.878125 254.242969) scale(0.1 -0.1)">
       <use xlink:href="#DejaVuSans-30"/>
       <use xlink:href="#DejaVuSans-2e" transform="translate(63.623047 0)"/>
       <use xlink:href="#DejaVuSans-30" transform="translate(95.410156 0)"/>
       <use xlink:href="#DejaVuSans-30" transform="translate(159.033203 0)"/>
      </g>
     </g>
    </g>
    <g id="ytick_2">
     <g id="line2d_21">
      <path d="M 50.14375 222.446168 
L 568.8 222.446168 
" clip-path="url(#pc2eb526218)" style="fill: none; stroke-dasharray: 2.96,1.28; stroke-dashoffset: 0; stroke: #b0b0b0; stroke-opacity: 0.8; stroke-width: 0.8"/>
     </g>
     <g id="line2d_22">
      <g>
       <use xlink:href="#m88a1b4ea4c" x="50.14375" y="222.446168" style="stroke: #000000; stroke-width: 0.8"/>
      </g>
     </g>
     <g id="text_12">
      <!-- 0.25 -->
      <g transform="translate(20.878125 226.245386) scale(0.1 -0.1)">
       <use xlink:href="#DejaVuSans-30"/>
       <use xlink:href="#DejaVuSans-2e" transform="translate(63.623047 0)"/>
       <use xlink:href="#DejaVuSans-32" transform="translate(95.410156 0)"/>
       <use xlink:href="#DejaVuSans-35" transform="translate(159.033203 0)"/>
      </g>
     </g>
    </g>
    <g id="ytick_3">
     <g id="line2d_23">
      <path d="M 50.14375 194.448585 
L 568.8 194.448585 
" clip-path="url(#pc2eb526218)" style="fill: none; stroke-dasharray: 2.96,1.28; stroke-dashoffset: 0; stroke: #b0b0b0; stroke-opacity: 0.8; stroke-width: 0.8"/>
     </g>
     <g id="line2d_24">
      <g>
       <use xlink:href="#m88a1b4ea4c" x="50.14375" y="194.448585" style="stroke: #000000; stroke-width: 0.8"/>
      </g>
     </g>
     <g id="text_13">
      <!-- 0.50 -->
      <g transform="translate(20.878125 198.247804) scale(0.1 -0.1)">
       <use xlink:href="#DejaVuSans-30"/>
       <use xlink:href="#DejaVuSans-2e" transform="translate(63.623047 0)"/>
       <use xlink:href="#DejaVuSans-35" transform="translate(95.410156 0)"/>
       <use xlink:href="#DejaVuSans-30" transform="translate(159.033203 0)"/>
      </g>
     </g>
    </g>
    <g id="ytick_4">
     <g id="line2d_25">
      <path d="M 50.14375 166.451003 
L 568.8 166.451003 
" clip-path="url(#pc2eb526218)" style="fill: none; stroke-dasharray: 2.96,1.28; stroke-dashoffset: 0; stroke: #b0b0b0; stroke-opacity: 0.8; stroke-width: 0.8"/>
     </g>
     <g id="line2d_26">
      <g>
       <use xlink:href="#m88a1b4ea4c" x="50.14375" y="166.451003" style="stroke: #000000; stroke-width: 0.8"/>
      </g>
     </g>
     <g id="text_14">
      <!-- 0.75 -->
      <g transform="translate(20.878125 170.250222) scale(0.1 -0.1)">
       <defs>
        <path id="DejaVuSans-37" d="M 525 4666 
L 3525 4666 
L 3525 4397 
L 1831 0 
L 1172 0 
L 2766 4134 
L 525 4134 
L 525 4666 
z
" transform="scale(0.015625)"/>
       </defs>
       <use xlink:href="#DejaVuSans-30"/>
       <use xlink:href="#DejaVuSans-2e" transform="translate(63.623047 0)"/>
       <use xlink:href="#DejaVuSans-37" transform="translate(95.410156 0)"/>
       <use xlink:href="#DejaVuSans-35" transform="translate(159.033203 0)"/>
      </g>
     </g>
    </g>
    <g id="ytick_5">
     <g id="line2d_27">
      <path d="M 50.14375 138.453421 
L 568.8 138.453421 
" clip-path="url(#pc2eb526218)" style="fill: none; stroke-dasharray: 2.96,1.28; stroke-dashoffset: 0; stroke: #b0b0b0; stroke-opacity: 0.8; stroke-width: 0.8"/>
     </g>
     <g id="line2d_28">
      <g>
       <use xlink:href="#m88a1b4ea4c" x="50.14375" y="138.453421" style="stroke: #000000; stroke-width: 0.8"/>
      </g>
     </g>
     <g id="text_15">
      <!-- 1.00 -->
      <g transform="translate(20.878125 142.25264) scale(0.1 -0.1)">
       <use xlink:href="#DejaVuSans-31"/>
       <use xlink:href="#DejaVuSans-2e" transform="translate(63.623047 0)"/>
       <use xlink:href="#DejaVuSans-30" transform="translate(95.410156 0)"/>
       <use xlink:href="#DejaVuSans-30" transform="translate(159.033203 0)"/>
      </g>
     </g>
    </g>
    <g id="ytick_6">
     <g id="line2d_29">
      <path d="M 50.14375 110.455839 
L 568.8 110.455839 
" clip-path="url(#pc2eb526218)" style="fill: none; stroke-dasharray: 2.96,1.28; stroke-dashoffset: 0; stroke: #b0b0b0; stroke-opacity: 0.8; stroke-width: 0.8"/>
     </g>
     <g id="line2d_30">
      <g>
       <use xlink:href="#m88a1b4ea4c" x="50.14375" y="110.455839" style="stroke: #000000; stroke-width: 0.8"/>
      </g>
     </g>
     <g id="text_16">
      <!-- 1.25 -->
      <g transform="translate(20.878125 114.255057) scale(0.1 -0.1)">
       <use xlink:href="#DejaVuSans-31"/>
       <use xlink:href="#DejaVuSans-2e" transform="translate(63.623047 0)"/>
       <use xlink:href="#DejaVuSans-32" transform="translate(95.410156 0)"/>
       <use xlink:href="#DejaVuSans-35" transform="translate(159.033203 0)"/>
      </g>
     </g>
    </g>
    <g id="ytick_7">
     <g id="line2d_31">
      <path d="M 50.14375 82.458256 
L 568.8 82.458256 
" clip-path="url(#pc2eb526218)" style="fill: none; stroke-dasharray: 2.96,1.28; stroke-dashoffset: 0; stroke: #b0b0b0; stroke-opacity: 0.8; stroke-width: 0.8"/>
     </g>
     <g id="line2d_32">
      <g>
       <use xlink:href="#m88a1b4ea4c" x="50.14375" y="82.458256" style="stroke: #000000; stroke-width: 0.8"/>
      </g>
     </g>
     <g id="text_17">
      <!-- 1.50 -->
      <g transform="translate(20.878125 86.257475) scale(0.1 -0.1)">
       <use xlink:href="#DejaVuSans-31"/>
       <use xlink:href="#DejaVuSans-2e" transform="translate(63.623047 0)"/>
       <use xlink:href="#DejaVuSans-35" transform="translate(95.410156 0)"/>
       <use xlink:href="#DejaVuSans-30" transform="translate(159.033203 0)"/>
      </g>
     </g>
    </g>
    <g id="ytick_8">
     <g id="line2d_33">
      <path d="M 50.14375 54.460674 
L 568.8 54.460674 
" clip-path="url(#pc2eb526218)" style="fill: none; stroke-dasharray: 2.96,1.28; stroke-dashoffset: 0; stroke: #b0b0b0; stroke-opacity: 0.8; stroke-width: 0.8"/>
     </g>
     <g id="line2d_34">
      <g>
       <use xlink:href="#m88a1b4ea4c" x="50.14375" y="54.460674" style="stroke: #000000; stroke-width: 0.8"/>
      </g>
     </g>
     <g id="text_18">
      <!-- 1.75 -->
      <g transform="translate(20.878125 58.259893) scale(0.1 -0.1)">
       <use xlink:href="#DejaVuSans-31"/>
       <use xlink:href="#DejaVuSans-2e" transform="translate(63.623047 0)"/>
       <use xlink:href="#DejaVuSans-37" transform="translate(95.410156 0)"/>
       <use xlink:href="#DejaVuSans-35" transform="translate(159.033203 0)"/>
      </g>
     </g>
    </g>
    <g id="ytick_9">
     <g id="line2d_35">
      <path d="M 50.14375 26.463092 
L 568.8 26.463092 
" clip-path="url(#pc2eb526218)" style="fill: none; stroke-dasharray: 2.96,1.28; stroke-dashoffset: 0; stroke: #b0b0b0; stroke-opacity: 0.8; stroke-width: 0.8"/>
     </g>
     <g id="line2d_36">
      <g>
       <use xlink:href="#m88a1b4ea4c" x="50.14375" y="26.463092" style="stroke: #000000; stroke-width: 0.8"/>
      </g>
     </g>
     <g id="text_19">
      <!-- 2.00 -->
      <g transform="translate(20.878125 30.26231) scale(0.1 -0.1)">
       <use xlink:href="#DejaVuSans-32"/>
       <use xlink:href="#DejaVuSans-2e" transform="translate(63.623047 0)"/>
       <use xlink:href="#DejaVuSans-30" transform="translate(95.410156 0)"/>
       <use xlink:href="#DejaVuSans-30" transform="translate(159.033203 0)"/>
      </g>
     </g>
    </g>
    <g id="text_20">
     <!-- Probability density -->
     <g transform="translate(14.798437 182.731719) rotate(-90) scale(0.1 -0.1)">
      <defs>
       <path id="DejaVuSans-50" d="M 1259 4147 
L 1259 2394 
L 2053 2394 
Q 2494 2394 2734 2622 
Q 2975 2850 2975 3272 
Q 2975 3691 2734 3919 
Q 2494 4147 2053 4147 
L 1259 4147 
z
M 628 4666 
L 2053 4666 
Q 2838 4666 3239 4311 
Q 3641 3956 3641 3272 
Q 3641 2581 3239 2228 
Q 2838 1875 2053 1875 
L 1259 1875 
L 1259 0 
L 628 0 
L 628 4666 
z
" transform="scale(0.015625)"/>
       <path id="DejaVuSans-74" d="M 1172 4494 
L 1172 3500 
L 2356 3500 
L 2356 3053 
L 1172 3053 
L 1172 1153 
Q 1172 725 1289 603 
Q 1406 481 1766 481 
L 2356 481 
L 2356 0 
L 1766 0 
Q 1100 0 847 248 
Q 594 497 594 1153 
L 594 3053 
L 172 3053 
L 172 3500 
L 594 3500 
L 594 4494 
L 1172 4494 
z
" transform="scale(0.015625)"/>
       <path id="DejaVuSans-79" d="M 2059 -325 
Q 1816 -950 1584 -1140 
Q 1353 -1331 966 -1331 
L 506 -1331 
L 506 -850 
L 844 -850 
Q 1081 -850 1212 -737 
Q 1344 -625 1503 -206 
L 1606 56 
L 191 3500 
L 800 3500 
L 1894 763 
L 2988 3500 
L 3597 3500 
L 2059 -325 
z
" transform="scale(0.015625)"/>
       <path id="DejaVuSans-73" d="M 2834 3397 
L 2834 2853 
Q 2591 2978 2328 3040 
Q 2066 3103 1784 3103 
Q 1356 3103 1142 2972 
Q 928 2841 928 2578 
Q 928 2378 1081 2264 
Q 1234 2150 1697 2047 
L 1894 2003 
Q 2506 1872 2764 1633 
Q 3022 1394 3022 966 
Q 3022 478 2636 193 
Q 2250 -91 1575 -91 
Q 1294 -91 989 -36 
Q 684 19 347 128 
L 347 722 
Q 666 556 975 473 
Q 1284 391 1588 391 
Q 1994 391 2212 530 
Q 2431 669 2431 922 
Q 2431 1156 2273 1281 
Q 2116 1406 1581 1522 
L 1381 1569 
Q 847 1681 609 1914 
Q 372 2147 372 2553 
Q 372 3047 722 3315 
Q 1072 3584 1716 3584 
Q 2034 3584 2315 3537 
Q 2597 3491 2834 3397 
z
" transform="scale(0.015625)"/>
      </defs>
      <use xlink:href="#DejaVuSans-50"/>
      <use xlink:href="#DejaVuSans-72" transform="translate(58.552734 0)"/>
      <use xlink:href="#DejaVuSans-6f" transform="translate(97.416016 0)"/>
      <use xlink:href="#DejaVuSans-62" transform="translate(158.597656 0)"/>
      <use xlink:href="#DejaVuSans-61" transform="translate(222.074219 0)"/>
      <use xlink:href="#DejaVuSans-62" transform="translate(283.353516 0)"/>
      <use xlink:href="#DejaVuSans-69" transform="translate(346.830078 0)"/>
      <use xlink:href="#DejaVuSans-6c" transform="translate(374.613281 0)"/>
      <use xlink:href="#DejaVuSans-69" transform="translate(402.396484 0)"/>
      <use xlink:href="#DejaVuSans-74" transform="translate(430.179688 0)"/>
      <use xlink:href="#DejaVuSans-79" transform="translate(469.388672 0)"/>
      <use xlink:href="#DejaVuSans-20" transform="translate(528.568359 0)"/>
      <use xlink:href="#DejaVuSans-64" transform="translate(560.355469 0)"/>
      <use xlink:href="#DejaVuSans-65" transform="translate(623.832031 0)"/>
      <use xlink:href="#DejaVuSans-6e" transform="translate(685.355469 0)"/>
      <use xlink:href="#DejaVuSans-73" transform="translate(748.734375 0)"/>
      <use xlink:href="#DejaVuSans-69" transform="translate(800.833984 0)"/>
      <use xlink:href="#DejaVuSans-74" transform="translate(828.617188 0)"/>
      <use xlink:href="#DejaVuSans-79" transform="translate(867.826172 0)"/>
     </g>
    </g>
   </g>
   <g id="line2d_37">
    <path d="M 73.719034 250.44375 
L 90.221733 234.918004 
L 99.180341 226.81161 
L 106.724432 220.291883 
L 113.325511 214.88023 
L 119.455085 210.142174 
L 125.113153 206.043216 
L 130.771222 202.231451 
L 135.957784 199.006556 
L 141.144347 196.052449 
L 145.859403 193.610728 
L 150.57446 191.40761 
L 155.289517 189.447573 
L 160.004574 187.733447 
L 164.719631 186.266435 
L 169.434688 185.046149 
L 174.149744 184.070656 
L 178.864801 183.336548 
L 183.579858 182.839013 
L 188.294915 182.571922 
L 193.009972 182.527924 
L 197.725028 182.698548 
L 202.911591 183.122785 
L 208.098153 183.78137 
L 213.284716 184.659328 
L 218.942784 185.848596 
L 224.600852 187.258392 
L 230.730426 189.008603 
L 237.331506 191.120317 
L 244.875597 193.77616 
L 253.362699 197.008909 
L 263.735824 201.208188 
L 281.181534 208.55881 
L 298.627244 215.830516 
L 309.943381 220.312896 
L 319.845 224.007209 
L 329.275114 227.291184 
L 338.233722 230.178563 
L 347.19233 232.828241 
L 356.150938 235.235999 
L 365.109545 237.403404 
L 374.068153 239.33682 
L 383.026761 241.046431 
L 392.456875 242.618649 
L 402.358494 244.037558 
L 412.731619 245.293089 
L 423.57625 246.381289 
L 435.363892 247.3384 
L 448.094545 248.149176 
L 462.711222 248.848014 
L 479.21392 249.40597 
L 499.017159 249.84161 
L 524.00696 250.153652 
L 545.224716 250.293476 
L 545.224716 250.293476 
" clip-path="url(#pc2eb526218)" style="fill: none; stroke: #1f77b4; stroke-linecap: square"/>
   </g>
   <g id="line2d_38">
    <path d="M 73.719034 250.443734 
L 74.19054 250.443734 
L 74.662045 240.833587 
L 75.133551 240.833587 
L 75.605057 231.244672 
L 76.076562 231.244672 
L 76.548068 221.698141 
L 77.019574 221.698141 
L 77.49108 212.214992 
L 77.962585 212.214992 
L 78.434091 202.815989 
L 78.905597 202.815989 
L 79.377102 193.521588 
L 79.848608 193.521588 
L 80.320114 184.351862 
L 81.263125 184.351862 
L 81.734631 175.326428 
L 82.206136 175.326428 
L 82.677642 166.464381 
L 83.149148 166.464381 
L 83.620653 157.784221 
L 84.092159 157.784221 
L 84.563665 149.303793 
L 85.03517 149.303793 
L 85.506676 141.040223 
L 85.978182 141.040223 
L 86.449688 133.009867 
L 86.921193 133.009867 
L 87.392699 125.228247 
L 88.33571 125.228247 
L 88.807216 117.710013 
L 89.278722 117.710013 
L 89.750227 110.46889 
L 90.221733 110.46889 
L 90.693239 103.517641 
L 91.164744 103.517641 
L 91.63625 96.868031 
L 92.107756 96.868031 
L 92.579261 90.530794 
L 93.050767 90.530794 
L 93.522273 84.515611 
L 93.993778 84.515611 
L 94.465284 78.831083 
L 95.408295 78.831083 
L 95.879801 73.484722 
L 96.351307 73.484722 
L 96.822812 68.482933 
L 97.294318 68.482933 
L 97.765824 63.831014 
L 98.23733 63.831014 
L 98.708835 59.533148 
L 99.180341 59.533148 
L 99.651847 55.592416 
L 100.123352 55.592416 
L 100.594858 52.010795 
L 101.537869 52.010795 
L 102.009375 48.789182 
L 102.480881 48.789182 
L 102.952386 45.927402 
L 103.423892 45.927402 
L 103.895398 43.424236 
L 104.366903 43.424236 
L 104.838409 41.277446 
L 105.309915 41.277446 
L 105.78142 39.483804 
L 106.252926 39.483804 
L 106.724432 38.039126 
L 107.195938 38.039126 
L 107.667443 36.938311 
L 108.610455 36.938311 
L 109.08196 36.175378 
L 109.553466 36.175378 
L 110.024972 35.743513 
L 112.3825 35.841823 
L 112.854006 36.354615 
L 113.325511 36.354615 
L 113.797017 37.163809 
L 114.268523 37.163809 
L 114.740028 38.259143 
L 115.68304 38.259143 
L 116.154545 39.629818 
L 116.626051 39.629818 
L 117.097557 41.264562 
L 117.569063 41.264562 
L 118.040568 43.151678 
L 118.512074 43.151678 
L 118.98358 45.279102 
L 119.455085 45.279102 
L 119.926591 47.634459 
L 120.398097 47.634459 
L 120.869602 50.205117 
L 121.341108 50.205117 
L 121.812614 52.97824 
L 122.755625 52.97824 
L 123.227131 55.940845 
L 123.698636 55.940845 
L 124.170142 59.079849 
L 124.641648 59.079849 
L 125.113153 62.382124 
L 125.584659 62.382124 
L 126.056165 65.834544 
L 126.52767 65.834544 
L 126.999176 69.424034 
L 127.470682 69.424034 
L 127.942188 73.137613 
L 128.413693 73.137613 
L 128.885199 76.962438 
L 129.82821 76.962438 
L 130.299716 80.885848 
L 130.771222 80.885848 
L 131.242727 84.895398 
L 131.714233 84.895398 
L 132.185739 88.978898 
L 132.657244 88.978898 
L 133.12875 93.124446 
L 133.600256 93.124446 
L 134.071761 97.320459 
L 134.543267 97.320459 
L 135.014773 101.555701 
L 135.486278 101.555701 
L 135.957784 105.819309 
L 136.900795 105.819309 
L 137.372301 110.100816 
L 137.843807 110.100816 
L 138.315313 114.390169 
L 138.786818 114.390169 
L 139.258324 118.677751 
L 139.72983 118.677751 
L 140.201335 122.954391 
L 140.672841 122.954391 
L 141.144347 127.21138 
L 141.615852 127.21138 
L 142.087358 131.440475 
L 142.558864 131.440475 
L 143.030369 135.633916 
L 143.973381 135.633916 
L 144.444886 139.78442 
L 144.916392 139.78442 
L 145.387898 143.885189 
L 145.859403 143.885189 
L 146.330909 147.929912 
L 146.802415 147.929912 
L 147.27392 151.912758 
L 147.745426 151.912758 
L 148.216932 155.828375 
L 148.688438 155.828375 
L 149.159943 159.671885 
L 150.102955 159.671885 
L 150.57446 163.438875 
L 151.045966 163.438875 
L 151.517472 167.125389 
L 151.988977 167.125389 
L 152.460483 170.727916 
L 152.931989 170.727916 
L 153.403494 174.243379 
L 153.875 174.243379 
L 154.346506 177.669124 
L 154.818011 177.669124 
L 155.289517 181.002903 
L 155.761023 181.002903 
L 156.232528 184.242858 
L 157.17554 184.242858 
L 157.647045 187.387508 
L 158.118551 187.387508 
L 158.590057 190.435733 
L 159.061563 190.435733 
L 159.533068 193.386752 
L 160.004574 193.386752 
L 160.47608 196.240111 
L 160.947585 196.240111 
L 161.419091 198.995662 
L 161.890597 198.995662 
L 162.362102 201.653543 
L 162.833608 201.653543 
L 163.305114 204.214165 
L 164.248125 204.214165 
L 164.719631 206.678189 
L 165.191136 206.678189 
L 165.662642 209.046511 
L 166.134148 209.046511 
L 166.605653 211.32024 
L 167.077159 211.32024 
L 167.548665 213.500684 
L 168.02017 213.500684 
L 168.491676 215.589332 
L 168.963182 215.589332 
L 169.434688 217.587833 
L 169.906193 217.587833 
L 170.377699 219.497985 
L 171.32071 219.497985 
L 171.792216 221.321715 
L 172.263722 221.321715 
L 172.735227 223.061063 
L 173.206733 223.061063 
L 173.678239 224.71817 
L 174.149744 224.71817 
L 174.62125 226.29526 
L 175.092756 226.29526 
L 175.564261 227.794629 
L 176.035767 227.794629 
L 176.507273 229.21863 
L 176.978778 229.21863 
L 177.450284 230.569662 
L 178.393295 230.569662 
L 178.864801 231.850157 
L 179.336307 231.850157 
L 179.807813 233.062569 
L 180.279318 233.062569 
L 180.750824 234.209365 
L 181.22233 234.209365 
L 181.693835 235.293013 
L 182.165341 235.293013 
L 182.636847 236.315976 
L 183.108352 236.315976 
L 183.579858 237.280702 
L 184.051364 237.280702 
L 184.522869 238.189615 
L 185.465881 238.189615 
L 185.937386 239.045112 
L 186.408892 239.045112 
L 186.880398 239.849554 
L 187.351903 239.849554 
L 187.823409 240.605261 
L 188.294915 240.605261 
L 188.76642 241.314506 
L 189.237926 241.314506 
L 189.709432 241.979513 
L 190.180938 241.979513 
L 190.652443 242.602452 
L 191.595455 242.602452 
L 192.06696 243.185435 
L 192.538466 243.185435 
L 193.009972 243.730513 
L 193.481477 243.730513 
L 193.952983 244.239677 
L 194.424489 244.239677 
L 194.895994 244.71485 
L 195.3675 244.71485 
L 195.839006 245.157894 
L 196.310511 245.157894 
L 196.782017 245.5706 
L 197.253523 245.5706 
L 197.725028 245.954693 
L 198.66804 245.954693 
L 199.139545 246.311832 
L 199.611051 246.311832 
L 200.082557 246.643607 
L 200.554063 246.643607 
L 201.025568 246.951539 
L 201.497074 246.951539 
L 201.96858 247.237084 
L 202.440085 247.237084 
L 202.911591 247.501633 
L 203.383097 247.501633 
L 203.854602 247.746509 
L 204.326108 247.746509 
L 204.797614 247.972974 
L 205.740625 247.972974 
L 206.212131 248.182226 
L 206.683636 248.182226 
L 207.155142 248.375401 
L 207.626648 248.375401 
L 208.098153 248.553577 
L 208.569659 248.553577 
L 209.041165 248.717774 
L 209.51267 248.717774 
L 209.984176 248.868956 
L 210.455682 248.868956 
L 210.927188 249.008033 
L 211.398693 249.008033 
L 211.870199 249.135862 
L 212.81321 249.135862 
L 213.284716 249.253251 
L 214.699233 249.360959 
L 216.11375 249.550138 
L 217.528267 249.632904 
L 218.942784 249.777722 
L 220.828807 249.840832 
L 222.243324 249.95084 
L 224.600852 250.042037 
L 226.486875 250.117382 
L 229.787415 250.206148 
L 233.55946 250.289826 
L 244.875597 250.399996 
L 258.549261 250.436039 
L 545.224716 250.44375 
L 545.224716 250.44375 
" clip-path="url(#pc2eb526218)" style="fill: none; stroke: #ff7f0e; stroke-linecap: square"/>
   </g>
   <g id="patch_3">
    <path d="M 73.859215 250.44375 
L 73.859215 241.378762 
L 75.635857 241.378762 
L 75.635857 224.140424 
L 77.4125 224.140424 
L 77.4125 210.02282 
L 79.189143 210.02282 
L 79.189143 189.440839 
L 80.965785 189.440839 
L 80.965785 173.985777 
L 82.742428 173.985777 
L 82.742428 159.273747 
L 84.51907 159.273747 
L 84.51907 145.230446 
L 86.295713 145.230446 
L 86.295713 132.301693 
L 88.072355 132.301693 
L 88.072355 116.252206 
L 89.848998 116.252206 
L 89.848998 105.849761 
L 91.62564 105.849761 
L 91.62564 95.818831 
L 93.402283 95.818831 
L 93.402283 79.917951 
L 95.178925 79.917951 
L 95.178925 65.503134 
L 96.955568 65.503134 
L 96.955568 67.732229 
L 98.73221 67.732229 
L 98.73221 57.255481 
L 100.508853 57.255481 
L 100.508853 53.614625 
L 102.285496 53.614625 
L 102.285496 55.84372 
L 104.062138 55.84372 
L 104.062138 40.685871 
L 105.838781 40.685871 
L 105.838781 38.010957 
L 107.615423 38.010957 
L 107.615423 40.760174 
L 109.392066 40.760174 
L 109.392066 41.800419 
L 111.168708 41.800419 
L 111.168708 33.18125 
L 112.945351 33.18125 
L 112.945351 35.484649 
L 114.721993 35.484649 
L 114.721993 34.667314 
L 116.498636 34.667314 
L 116.498636 42.023328 
L 118.275278 42.023328 
L 118.275278 48.413402 
L 120.051921 48.413402 
L 120.051921 40.760174 
L 121.828563 40.760174 
L 121.828563 55.397901 
L 123.605206 55.397901 
L 123.605206 55.769417 
L 125.381849 55.769417 
L 125.381849 59.558879 
L 127.158491 59.558879 
L 127.158491 68.400958 
L 128.935134 68.400958 
L 128.935134 75.756972 
L 130.711776 75.756972 
L 130.711776 79.323525 
L 132.488419 79.323525 
L 132.488419 91.732156 
L 134.265061 91.732156 
L 134.265061 102.654724 
L 136.041704 102.654724 
L 136.041704 108.524675 
L 137.818346 108.524675 
L 137.818346 123.013795 
L 139.594989 123.013795 
L 139.594989 126.208832 
L 141.371631 126.208832 
L 141.371631 130.815629 
L 143.148274 130.815629 
L 143.148274 143.22426 
L 144.924916 143.22426 
L 144.924916 148.276877 
L 146.701559 148.276877 
L 146.701559 152.214945 
L 148.478202 152.214945 
L 148.478202 159.868173 
L 150.254844 159.868173 
L 150.254844 167.372794 
L 152.031487 167.372794 
L 152.031487 171.608075 
L 153.808129 171.608075 
L 153.808129 180.227244 
L 155.584772 180.227244 
L 155.584772 179.187 
L 157.361414 179.187 
L 157.361414 188.99502 
L 159.138057 188.99502 
L 159.138057 193.601817 
L 160.914699 193.601817 
L 160.914699 196.499641 
L 162.691342 196.499641 
L 162.691342 202.666805 
L 164.467984 202.666805 
L 164.467984 206.381964 
L 166.244627 206.381964 
L 166.244627 212.994947 
L 168.021269 212.994947 
L 168.021269 212.251915 
L 169.797912 212.251915 
L 169.797912 220.796781 
L 171.574554 220.796781 
L 171.574554 219.013505 
L 173.351197 219.013505 
L 173.351197 225.775094 
L 175.12784 225.775094 
L 175.12784 228.598615 
L 176.904482 228.598615 
L 176.904482 228.375705 
L 178.681125 228.375705 
L 178.681125 233.056806 
L 180.457767 233.056806 
L 180.457767 236.474752 
L 182.23441 236.474752 
L 182.23441 236.994874 
L 184.011052 236.994874 
L 184.011052 238.778151 
L 185.787695 238.778151 
L 185.787695 239.22397 
L 187.564337 239.22397 
L 187.564337 240.561427 
L 189.34098 240.561427 
L 189.34098 241.081549 
L 191.117622 241.081549 
L 191.117622 243.013432 
L 192.894265 243.013432 
L 192.894265 244.425192 
L 194.670907 244.425192 
L 194.670907 244.945315 
L 196.44755 244.945315 
L 196.44755 245.53974 
L 198.224193 245.53974 
L 198.224193 247.100107 
L 200.000835 247.100107 
L 200.000835 246.802894 
L 201.777478 246.802894 
L 201.777478 247.694532 
L 203.55412 247.694532 
L 203.55412 247.39732 
L 207.107405 247.471623 
L 207.107405 248.511867 
L 208.884048 248.511867 
L 208.884048 248.660474 
L 210.66069 248.660474 
L 210.66069 248.511867 
L 212.437333 248.511867 
L 212.437333 249.403505 
L 214.213975 249.403505 
L 214.213975 249.849325 
L 215.990618 249.849325 
L 215.990618 249.700718 
L 219.543903 249.700718 
L 219.543903 250.072234 
L 221.320546 250.072234 
L 221.320546 249.775021 
L 223.097188 249.775021 
L 223.097188 250.072234 
L 224.873831 250.072234 
L 224.873831 249.923628 
L 226.650473 249.923628 
L 226.650473 250.22084 
L 231.980401 250.146537 
L 231.980401 250.369447 
L 235.533686 250.369447 
L 235.533686 250.22084 
L 237.310328 250.22084 
L 237.310328 250.369447 
L 253.300111 250.369447 
L 253.300111 250.44375 
" clip-path="url(#pc2eb526218)" style="fill: none; stroke: #2ca02c; stroke-linejoin: miter"/>
   </g>
   <g id="patch_4">
    <path d="M 50.14375 250.44375 
L 50.14375 22.318125 
" style="fill: none; stroke: #000000; stroke-width: 0.8; stroke-linejoin: miter; stroke-linecap: square"/>
   </g>
   <g id="patch_5">
    <path d="M 568.8 250.44375 
L 568.8 22.318125 
" style="fill: none; stroke: #000000; stroke-width: 0.8; stroke-linejoin: miter; stroke-linecap: square"/>
   </g>
   <g id="patch_6">
    <path d="M 50.14375 250.44375 
L 568.8 250.44375 
" style="fill: none; stroke: #000000; stroke-width: 0.8; stroke-linejoin: miter; stroke-linecap: square"/>
   </g>
   <g id="patch_7">
    <path d="M 50.14375 22.318125 
L 568.8 22.318125 
" style="fill: none; stroke: #000000; stroke-width: 0.8; stroke-linejoin: miter; stroke-linecap: square"/>
   </g>
   <g id="text_21">
    <!-- Minimum of 10 Rayleigh random variables -->
    <g transform="translate(182.212813 16.318125) scale(0.12 -0.12)">
     <defs>
      <path id="DejaVuSans-4d" d="M 628 4666 
L 1569 4666 
L 2759 1491 
L 3956 4666 
L 4897 4666 
L 4897 0 
L 4281 0 
L 4281 4097 
L 3078 897 
L 2444 897 
L 1241 4097 
L 1241 0 
L 628 0 
L 628 4666 
z
" transform="scale(0.015625)"/>
      <path id="DejaVuSans-75" d="M 544 1381 
L 544 3500 
L 1119 3500 
L 1119 1403 
Q 1119 906 1312 657 
Q 1506 409 1894 409 
Q 2359 409 2629 706 
Q 2900 1003 2900 1516 
L 2900 3500 
L 3475 3500 
L 3475 0 
L 2900 0 
L 2900 538 
Q 2691 219 2414 64 
Q 2138 -91 1772 -91 
Q 1169 -91 856 284 
Q 544 659 544 1381 
z
M 1991 3584 
L 1991 3584 
z
" transform="scale(0.015625)"/>
      <path id="DejaVuSans-66" d="M 2375 4863 
L 2375 4384 
L 1825 4384 
Q 1516 4384 1395 4259 
Q 1275 4134 1275 3809 
L 1275 3500 
L 2222 3500 
L 2222 3053 
L 1275 3053 
L 1275 0 
L 697 0 
L 697 3053 
L 147 3053 
L 147 3500 
L 697 3500 
L 697 3744 
Q 697 4328 969 4595 
Q 1241 4863 1831 4863 
L 2375 4863 
z
" transform="scale(0.015625)"/>
      <path id="DejaVuSans-67" d="M 2906 1791 
Q 2906 2416 2648 2759 
Q 2391 3103 1925 3103 
Q 1463 3103 1205 2759 
Q 947 2416 947 1791 
Q 947 1169 1205 825 
Q 1463 481 1925 481 
Q 2391 481 2648 825 
Q 2906 1169 2906 1791 
z
M 3481 434 
Q 3481 -459 3084 -895 
Q 2688 -1331 1869 -1331 
Q 1566 -1331 1297 -1286 
Q 1028 -1241 775 -1147 
L 775 -588 
Q 1028 -725 1275 -790 
Q 1522 -856 1778 -856 
Q 2344 -856 2625 -561 
Q 2906 -266 2906 331 
L 2906 616 
Q 2728 306 2450 153 
Q 2172 0 1784 0 
Q 1141 0 747 490 
Q 353 981 353 1791 
Q 353 2603 747 3093 
Q 1141 3584 1784 3584 
Q 2172 3584 2450 3431 
Q 2728 3278 2906 2969 
L 2906 3500 
L 3481 3500 
L 3481 434 
z
" transform="scale(0.015625)"/>
      <path id="DejaVuSans-68" d="M 3513 2113 
L 3513 0 
L 2938 0 
L 2938 2094 
Q 2938 2591 2744 2837 
Q 2550 3084 2163 3084 
Q 1697 3084 1428 2787 
Q 1159 2491 1159 1978 
L 1159 0 
L 581 0 
L 581 4863 
L 1159 4863 
L 1159 2956 
Q 1366 3272 1645 3428 
Q 1925 3584 2291 3584 
Q 2894 3584 3203 3211 
Q 3513 2838 3513 2113 
z
" transform="scale(0.015625)"/>
     </defs>
     <use xlink:href="#DejaVuSans-4d"/>
     <use xlink:href="#DejaVuSans-69" transform="translate(86.279297 0)"/>
     <use xlink:href="#DejaVuSans-6e" transform="translate(114.0625 0)"/>
     <use xlink:href="#DejaVuSans-69" transform="translate(177.441406 0)"/>
     <use xlink:href="#DejaVuSans-6d" transform="translate(205.224609 0)"/>
     <use xlink:href="#DejaVuSans-75" transform="translate(302.636719 0)"/>
     <use xlink:href="#DejaVuSans-6d" transform="translate(366.015625 0)"/>
     <use xlink:href="#DejaVuSans-20" transform="translate(463.427734 0)"/>
     <use xlink:href="#DejaVuSans-6f" transform="translate(495.214844 0)"/>
     <use xlink:href="#DejaVuSans-66" transform="translate(556.396484 0)"/>
     <use xlink:href="#DejaVuSans-20" transform="translate(591.601562 0)"/>
     <use xlink:href="#DejaVuSans-31" transform="translate(623.388672 0)"/>
     <use xlink:href="#DejaVuSans-30" transform="translate(687.011719 0)"/>
     <use xlink:href="#DejaVuSans-20" transform="translate(750.634766 0)"/>
     <use xlink:href="#DejaVuSans-52" transform="translate(782.421875 0)"/>
     <use xlink:href="#DejaVuSans-61" transform="translate(849.654297 0)"/>
     <use xlink:href="#DejaVuSans-79" transform="translate(910.933594 0)"/>
     <use xlink:href="#DejaVuSans-6c" transform="translate(970.113281 0)"/>
     <use xlink:href="#DejaVuSans-65" transform="translate(997.896484 0)"/>
     <use xlink:href="#DejaVuSans-69" transform="translate(1059.419922 0)"/>
     <use xlink:href="#DejaVuSans-67" transform="translate(1087.203125 0)"/>
     <use xlink:href="#DejaVuSans-68" transform="translate(1150.679688 0)"/>
     <use xlink:href="#DejaVuSans-20" transform="translate(1214.058594 0)"/>
     <use xlink:href="#DejaVuSans-72" transform="translate(1245.845703 0)"/>
     <use xlink:href="#DejaVuSans-61" transform="translate(1286.958984 0)"/>
     <use xlink:href="#DejaVuSans-6e" transform="translate(1348.238281 0)"/>
     <use xlink:href="#DejaVuSans-64" transform="translate(1411.617188 0)"/>
     <use xlink:href="#DejaVuSans-6f" transform="translate(1475.09375 0)"/>
     <use xlink:href="#DejaVuSans-6d" transform="translate(1536.275391 0)"/>
     <use xlink:href="#DejaVuSans-20" transform="translate(1633.6875 0)"/>
     <use xlink:href="#DejaVuSans-76" transform="translate(1665.474609 0)"/>
     <use xlink:href="#DejaVuSans-61" transform="translate(1724.654297 0)"/>
     <use xlink:href="#DejaVuSans-72" transform="translate(1785.933594 0)"/>
     <use xlink:href="#DejaVuSans-69" transform="translate(1827.046875 0)"/>
     <use xlink:href="#DejaVuSans-61" transform="translate(1854.830078 0)"/>
     <use xlink:href="#DejaVuSans-62" transform="translate(1916.109375 0)"/>
     <use xlink:href="#DejaVuSans-6c" transform="translate(1979.585938 0)"/>
     <use xlink:href="#DejaVuSans-65" transform="translate(2007.369141 0)"/>
     <use xlink:href="#DejaVuSans-73" transform="translate(2068.892578 0)"/>
    </g>
   </g>
   <g id="legend_1">
    <g id="patch_8">
     <path d="M 406.3 74.374375 
L 561.8 74.374375 
Q 563.8 74.374375 563.8 72.374375 
L 563.8 29.318125 
Q 563.8 27.318125 561.8 27.318125 
L 406.3 27.318125 
Q 404.3 27.318125 404.3 29.318125 
L 404.3 72.374375 
Q 404.3 74.374375 406.3 74.374375 
z
" style="fill: #ffffff; opacity: 0.8; stroke: #cccccc; stroke-linejoin: miter"/>
    </g>
    <g id="line2d_39">
     <path d="M 408.3 35.416562 
L 418.3 35.416562 
L 428.3 35.416562 
" style="fill: none; stroke: #1f77b4; stroke-linecap: square"/>
    </g>
    <g id="text_22">
     <!-- $X$ -->
     <g transform="translate(436.3 38.916562) scale(0.1 -0.1)">
      <defs>
       <path id="DejaVuSans-Oblique-58" d="M 878 4666 
L 1516 4666 
L 2316 2981 
L 3763 4666 
L 4500 4666 
L 2578 2438 
L 3738 0 
L 3103 0 
L 2163 1966 
L 459 0 
L -275 0 
L 1906 2509 
L 878 4666 
z
" transform="scale(0.015625)"/>
      </defs>
      <use xlink:href="#DejaVuSans-Oblique-58" transform="translate(0 0.09375)"/>
     </g>
    </g>
    <g id="line2d_40">
     <path d="M 408.3 50.094687 
L 418.3 50.094687 
L 428.3 50.094687 
" style="fill: none; stroke: #ff7f0e; stroke-linecap: square"/>
    </g>
    <g id="text_23">
     <!-- $\min(X_1, \dots, X_3)$ -->
     <g transform="translate(436.3 53.594687) scale(0.1 -0.1)">
      <defs>
       <path id="DejaVuSans-28" d="M 1984 4856 
Q 1566 4138 1362 3434 
Q 1159 2731 1159 2009 
Q 1159 1288 1364 580 
Q 1569 -128 1984 -844 
L 1484 -844 
Q 1016 -109 783 600 
Q 550 1309 550 2009 
Q 550 2706 781 3412 
Q 1013 4119 1484 4856 
L 1984 4856 
z
" transform="scale(0.015625)"/>
       <path id="DejaVuSans-2c" d="M 750 794 
L 1409 794 
L 1409 256 
L 897 -744 
L 494 -744 
L 750 256 
L 750 794 
z
" transform="scale(0.015625)"/>
       <path id="DejaVuSans-2026" d="M 2869 794 
L 3531 794 
L 3531 0 
L 2869 0 
L 2869 794 
z
M 4997 794 
L 5663 794 
L 5663 0 
L 4997 0 
L 4997 794 
z
M 738 794 
L 1403 794 
L 1403 0 
L 738 0 
L 738 794 
z
" transform="scale(0.015625)"/>
       <path id="DejaVuSans-29" d="M 513 4856 
L 1013 4856 
Q 1481 4119 1714 3412 
Q 1947 2706 1947 2009 
Q 1947 1309 1714 600 
Q 1481 -109 1013 -844 
L 513 -844 
Q 928 -128 1133 580 
Q 1338 1288 1338 2009 
Q 1338 2731 1133 3434 
Q 928 4138 513 4856 
z
" transform="scale(0.015625)"/>
      </defs>
      <use xlink:href="#DejaVuSans-6d" transform="translate(0 0.015625)"/>
      <use xlink:href="#DejaVuSans-69" transform="translate(97.412109 0.015625)"/>
      <use xlink:href="#DejaVuSans-6e" transform="translate(125.195312 0.015625)"/>
      <use xlink:href="#DejaVuSans-28" transform="translate(188.574219 0.015625)"/>
      <use xlink:href="#DejaVuSans-Oblique-58" transform="translate(227.587891 0.015625)"/>
      <use xlink:href="#DejaVuSans-31" transform="translate(296.09375 -16.390625) scale(0.7)"/>
      <use xlink:href="#DejaVuSans-2c" transform="translate(343.364258 0.015625)"/>
      <use xlink:href="#DejaVuSans-2026" transform="translate(414.116211 0.015625)"/>
      <use xlink:href="#DejaVuSans-2c" transform="translate(533.598633 0.015625)"/>
      <use xlink:href="#DejaVuSans-Oblique-58" transform="translate(584.868164 0.015625)"/>
      <use xlink:href="#DejaVuSans-33" transform="translate(653.374023 -16.390625) scale(0.7)"/>
      <use xlink:href="#DejaVuSans-29" transform="translate(700.644531 0.015625)"/>
     </g>
    </g>
    <g id="patch_9">
     <path d="M 408.3 68.274375 
L 428.3 68.274375 
L 428.3 61.274375 
L 408.3 61.274375 
L 408.3 68.274375 
z
" style="fill: none; stroke: #2ca02c; stroke-linejoin: miter"/>
    </g>
    <g id="text_24">
     <!-- $\min(X_1, \dots, X_3)$ empirical -->
     <g transform="translate(436.3 68.274375) scale(0.1 -0.1)">
      <defs>
       <path id="DejaVuSans-70" d="M 1159 525 
L 1159 -1331 
L 581 -1331 
L 581 3500 
L 1159 3500 
L 1159 2969 
Q 1341 3281 1617 3432 
Q 1894 3584 2278 3584 
Q 2916 3584 3314 3078 
Q 3713 2572 3713 1747 
Q 3713 922 3314 415 
Q 2916 -91 2278 -91 
Q 1894 -91 1617 61 
Q 1341 213 1159 525 
z
M 3116 1747 
Q 3116 2381 2855 2742 
Q 2594 3103 2138 3103 
Q 1681 3103 1420 2742 
Q 1159 2381 1159 1747 
Q 1159 1113 1420 752 
Q 1681 391 2138 391 
Q 2594 391 2855 752 
Q 3116 1113 3116 1747 
z
" transform="scale(0.015625)"/>
       <path id="DejaVuSans-63" d="M 3122 3366 
L 3122 2828 
Q 2878 2963 2633 3030 
Q 2388 3097 2138 3097 
Q 1578 3097 1268 2742 
Q 959 2388 959 1747 
Q 959 1106 1268 751 
Q 1578 397 2138 397 
Q 2388 397 2633 464 
Q 2878 531 3122 666 
L 3122 134 
Q 2881 22 2623 -34 
Q 2366 -91 2075 -91 
Q 1284 -91 818 406 
Q 353 903 353 1747 
Q 353 2603 823 3093 
Q 1294 3584 2113 3584 
Q 2378 3584 2631 3529 
Q 2884 3475 3122 3366 
z
" transform="scale(0.015625)"/>
      </defs>
      <use xlink:href="#DejaVuSans-6d" transform="translate(0 0.015625)"/>
      <use xlink:href="#DejaVuSans-69" transform="translate(97.412109 0.015625)"/>
      <use xlink:href="#DejaVuSans-6e" transform="translate(125.195312 0.015625)"/>
      <use xlink:href="#DejaVuSans-28" transform="translate(188.574219 0.015625)"/>
      <use xlink:href="#DejaVuSans-Oblique-58" transform="translate(227.587891 0.015625)"/>
      <use xlink:href="#DejaVuSans-31" transform="translate(296.09375 -16.390625) scale(0.7)"/>
      <use xlink:href="#DejaVuSans-2c" transform="translate(343.364258 0.015625)"/>
      <use xlink:href="#DejaVuSans-2026" transform="translate(414.116211 0.015625)"/>
      <use xlink:href="#DejaVuSans-2c" transform="translate(533.598633 0.015625)"/>
      <use xlink:href="#DejaVuSans-Oblique-58" transform="translate(584.868164 0.015625)"/>
      <use xlink:href="#DejaVuSans-33" transform="translate(653.374023 -16.390625) scale(0.7)"/>
      <use xlink:href="#DejaVuSans-29" transform="translate(700.644531 0.015625)"/>
      <use xlink:href="#DejaVuSans-20" transform="translate(739.658203 0.015625)"/>
      <use xlink:href="#DejaVuSans-65" transform="translate(771.445312 0.015625)"/>
      <use xlink:href="#DejaVuSans-6d" transform="translate(832.96875 0.015625)"/>
      <use xlink:href="#DejaVuSans-70" transform="translate(930.380859 0.015625)"/>
      <use xlink:href="#DejaVuSans-69" transform="translate(993.857422 0.015625)"/>
      <use xlink:href="#DejaVuSans-72" transform="translate(1021.640625 0.015625)"/>
      <use xlink:href="#DejaVuSans-69" transform="translate(1062.753906 0.015625)"/>
      <use xlink:href="#DejaVuSans-63" transform="translate(1090.537109 0.015625)"/>
      <use xlink:href="#DejaVuSans-61" transform="translate(1145.517578 0.015625)"/>
      <use xlink:href="#DejaVuSans-6c" transform="translate(1206.796875 0.015625)"/>
     </g>
    </g>
   </g>
  </g>
 </g>
 <defs>
  <clipPath id="pc2eb526218">
   <rect x="50.14375" y="22.318125" width="518.65625" height="228.125625"/>
  </clipPath>
 </defs>
</svg>
