<?xml version="1.0" encoding="utf-8" standalone="no"?>
<!DOCTYPE svg PUBLIC "-//W3C//DTD SVG 1.1//EN"
  "http://www.w3.org/Graphics/SVG/1.1/DTD/svg11.dtd">
<svg xmlns:xlink="http://www.w3.org/1999/xlink" width="576pt" height="288pt" viewBox="0 0 576 288" xmlns="http://www.w3.org/2000/svg" version="1.1">
 <metadata>
  <rdf:RDF xmlns:dc="http://purl.org/dc/elements/1.1/" xmlns:cc="http://creativecommons.org/ns#" xmlns:rdf="http://www.w3.org/1999/02/22-rdf-syntax-ns#">
   <cc:Work>
    <dc:type rdf:resource="http://purl.org/dc/dcmitype/StillImage"/>
    <dc:date>2025-11-29T04:01:41.662712</dc:date>
    <dc:format>image/svg+xml</dc:format>
    <dc:creator>
     <cc:Agent>
      <dc:title>Matplotlib v3.10.7, https://matplotlib.org/</dc:title>
     </cc:Agent>
    </dc:creator>
   </cc:Work>
  </rdf:RDF>
 </metadata>
 <defs>
  <style type="text/css">*{stroke-linejoin: round; stroke-linecap: butt}</style>
 </defs>
 <g id="figure_1">
  <g id="patch_1">
   <path d="M 0 288 
L 576 288 
L 576 0 
L 0 0 
z
" style="fill: #ffffff"/>
  </g>
  <g id="axes_1">
   <g id="patch_2">
    <path d="M 48.982813 250.421875 
L 568.8 250.421875 
L 568.8 22.32 
L 48.982813 22.32 
z
" style="fill: #ffffff"/>
   </g>
   <g id="matplotlib.axis_1">
    <g id="xtick_1">
     <g id="line2d_1">
      <path d="M 72.610866 250.421875 
L 72.610866 22.32 
" clip-path="url(#pc80bf336bb)" style="fill: none; stroke-dasharray: 2.96,1.28; stroke-dashoffset: 0; stroke: #b0b0b0; stroke-opacity: 0.8; stroke-width: 0.8"/>
     </g>
     <g id="line2d_2">
      <defs>
       <path id="m2496806ab6" d="M 0 0 
L 0 3.5 
" style="stroke: #000000; stroke-width: 0.8"/>
      </defs>
      <g>
       <use xlink:href="#m2496806ab6" x="72.610866" y="250.421875" style="stroke: #000000; stroke-width: 0.8"/>
      </g>
     </g>
     <g id="text_1">
      <!-- 0 -->
      <g transform="translate(69.429616 265.020312) scale(0.1 -0.1)">
       <defs>
        <path id="DejaVuSans-30" d="M 2034 4250 
Q 1547 4250 1301 3770 
Q 1056 3291 1056 2328 
Q 1056 1369 1301 889 
Q 1547 409 2034 409 
Q 2525 409 2770 889 
Q 3016 1369 3016 2328 
Q 3016 3291 2770 3770 
Q 2525 4250 2034 4250 
z
M 2034 4750 
Q 2819 4750 3233 4129 
Q 3647 3509 3647 2328 
Q 3647 1150 3233 529 
Q 2819 -91 2034 -91 
Q 1250 -91 836 529 
Q 422 1150 422 2328 
Q 422 3509 836 4129 
Q 1250 4750 2034 4750 
z
" transform="scale(0.015625)"/>
       </defs>
       <use xlink:href="#DejaVuSans-30"/>
      </g>
     </g>
    </g>
    <g id="xtick_2">
     <g id="line2d_3">
      <path d="M 167.123082 250.421875 
L 167.123082 22.32 
" clip-path="url(#pc80bf336bb)" style="fill: none; stroke-dasharray: 2.96,1.28; stroke-dashoffset: 0; stroke: #b0b0b0; stroke-opacity: 0.8; stroke-width: 0.8"/>
     </g>
     <g id="line2d_4">
      <g>
       <use xlink:href="#m2496806ab6" x="167.123082" y="250.421875" style="stroke: #000000; stroke-width: 0.8"/>
      </g>
     </g>
     <g id="text_2">
      <!-- 100 -->
      <g transform="translate(157.579332 265.020312) scale(0.1 -0.1)">
       <defs>
        <path id="DejaVuSans-31" d="M 794 531 
L 1825 531 
L 1825 4091 
L 703 3866 
L 703 4441 
L 1819 4666 
L 2450 4666 
L 2450 531 
L 3481 531 
L 3481 0 
L 794 0 
L 794 531 
z
" transform="scale(0.015625)"/>
       </defs>
       <use xlink:href="#DejaVuSans-31"/>
       <use xlink:href="#DejaVuSans-30" transform="translate(63.623047 0)"/>
       <use xlink:href="#DejaVuSans-30" transform="translate(127.246094 0)"/>
      </g>
     </g>
    </g>
    <g id="xtick_3">
     <g id="line2d_5">
      <path d="M 261.635298 250.421875 
L 261.635298 22.32 
" clip-path="url(#pc80bf336bb)" style="fill: none; stroke-dasharray: 2.96,1.28; stroke-dashoffset: 0; stroke: #b0b0b0; stroke-opacity: 0.8; stroke-width: 0.8"/>
     </g>
     <g id="line2d_6">
      <g>
       <use xlink:href="#m2496806ab6" x="261.635298" y="250.421875" style="stroke: #000000; stroke-width: 0.8"/>
      </g>
     </g>
     <g id="text_3">
      <!-- 200 -->
      <g transform="translate(252.091548 265.020312) scale(0.1 -0.1)">
       <defs>
        <path id="DejaVuSans-32" d="M 1228 531 
L 3431 531 
L 3431 0 
L 469 0 
L 469 531 
Q 828 903 1448 1529 
Q 2069 2156 2228 2338 
Q 2531 2678 2651 2914 
Q 2772 3150 2772 3378 
Q 2772 3750 2511 3984 
Q 2250 4219 1831 4219 
Q 1534 4219 1204 4116 
Q 875 4013 500 3803 
L 500 4441 
Q 881 4594 1212 4672 
Q 1544 4750 1819 4750 
Q 2544 4750 2975 4387 
Q 3406 4025 3406 3419 
Q 3406 3131 3298 2873 
Q 3191 2616 2906 2266 
Q 2828 2175 2409 1742 
Q 1991 1309 1228 531 
z
" transform="scale(0.015625)"/>
       </defs>
       <use xlink:href="#DejaVuSans-32"/>
       <use xlink:href="#DejaVuSans-30" transform="translate(63.623047 0)"/>
       <use xlink:href="#DejaVuSans-30" transform="translate(127.246094 0)"/>
      </g>
     </g>
    </g>
    <g id="xtick_4">
     <g id="line2d_7">
      <path d="M 356.147514 250.421875 
L 356.147514 22.32 
" clip-path="url(#pc80bf336bb)" style="fill: none; stroke-dasharray: 2.96,1.28; stroke-dashoffset: 0; stroke: #b0b0b0; stroke-opacity: 0.8; stroke-width: 0.8"/>
     </g>
     <g id="line2d_8">
      <g>
       <use xlink:href="#m2496806ab6" x="356.147514" y="250.421875" style="stroke: #000000; stroke-width: 0.8"/>
      </g>
     </g>
     <g id="text_4">
      <!-- 300 -->
      <g transform="translate(346.603764 265.020312) scale(0.1 -0.1)">
       <defs>
        <path id="DejaVuSans-33" d="M 2597 2516 
Q 3050 2419 3304 2112 
Q 3559 1806 3559 1356 
Q 3559 666 3084 287 
Q 2609 -91 1734 -91 
Q 1441 -91 1130 -33 
Q 819 25 488 141 
L 488 750 
Q 750 597 1062 519 
Q 1375 441 1716 441 
Q 2309 441 2620 675 
Q 2931 909 2931 1356 
Q 2931 1769 2642 2001 
Q 2353 2234 1838 2234 
L 1294 2234 
L 1294 2753 
L 1863 2753 
Q 2328 2753 2575 2939 
Q 2822 3125 2822 3475 
Q 2822 3834 2567 4026 
Q 2313 4219 1838 4219 
Q 1578 4219 1281 4162 
Q 984 4106 628 3988 
L 628 4550 
Q 988 4650 1302 4700 
Q 1616 4750 1894 4750 
Q 2613 4750 3031 4423 
Q 3450 4097 3450 3541 
Q 3450 3153 3228 2886 
Q 3006 2619 2597 2516 
z
" transform="scale(0.015625)"/>
       </defs>
       <use xlink:href="#DejaVuSans-33"/>
       <use xlink:href="#DejaVuSans-30" transform="translate(63.623047 0)"/>
       <use xlink:href="#DejaVuSans-30" transform="translate(127.246094 0)"/>
      </g>
     </g>
    </g>
    <g id="xtick_5">
     <g id="line2d_9">
      <path d="M 450.65973 250.421875 
L 450.65973 22.32 
" clip-path="url(#pc80bf336bb)" style="fill: none; stroke-dasharray: 2.96,1.28; stroke-dashoffset: 0; stroke: #b0b0b0; stroke-opacity: 0.8; stroke-width: 0.8"/>
     </g>
     <g id="line2d_10">
      <g>
       <use xlink:href="#m2496806ab6" x="450.65973" y="250.421875" style="stroke: #000000; stroke-width: 0.8"/>
      </g>
     </g>
     <g id="text_5">
      <!-- 400 -->
      <g transform="translate(441.11598 265.020312) scale(0.1 -0.1)">
       <defs>
        <path id="DejaVuSans-34" d="M 2419 4116 
L 825 1625 
L 2419 1625 
L 2419 4116 
z
M 2253 4666 
L 3047 4666 
L 3047 1625 
L 3713 1625 
L 3713 1100 
L 3047 1100 
L 3047 0 
L 2419 0 
L 2419 1100 
L 313 1100 
L 313 1709 
L 2253 4666 
z
" transform="scale(0.015625)"/>
       </defs>
       <use xlink:href="#DejaVuSans-34"/>
       <use xlink:href="#DejaVuSans-30" transform="translate(63.623047 0)"/>
       <use xlink:href="#DejaVuSans-30" transform="translate(127.246094 0)"/>
      </g>
     </g>
    </g>
    <g id="xtick_6">
     <g id="line2d_11">
      <path d="M 545.171946 250.421875 
L 545.171946 22.32 
" clip-path="url(#pc80bf336bb)" style="fill: none; stroke-dasharray: 2.96,1.28; stroke-dashoffset: 0; stroke: #b0b0b0; stroke-opacity: 0.8; stroke-width: 0.8"/>
     </g>
     <g id="line2d_12">
      <g>
       <use xlink:href="#m2496806ab6" x="545.171946" y="250.421875" style="stroke: #000000; stroke-width: 0.8"/>
      </g>
     </g>
     <g id="text_6">
      <!-- 500 -->
      <g transform="translate(535.628196 265.020312) scale(0.1 -0.1)">
       <defs>
        <path id="DejaVuSans-35" d="M 691 4666 
L 3169 4666 
L 3169 4134 
L 1269 4134 
L 1269 2991 
Q 1406 3038 1543 3061 
Q 1681 3084 1819 3084 
Q 2600 3084 3056 2656 
Q 3513 2228 3513 1497 
Q 3513 744 3044 326 
Q 2575 -91 1722 -91 
Q 1428 -91 1123 -41 
Q 819 9 494 109 
L 494 744 
Q 775 591 1075 516 
Q 1375 441 1709 441 
Q 2250 441 2565 725 
Q 2881 1009 2881 1497 
Q 2881 1984 2565 2268 
Q 2250 2553 1709 2553 
Q 1456 2553 1204 2497 
Q 953 2441 691 2322 
L 691 4666 
z
" transform="scale(0.015625)"/>
       </defs>
       <use xlink:href="#DejaVuSans-35"/>
       <use xlink:href="#DejaVuSans-30" transform="translate(63.623047 0)"/>
       <use xlink:href="#DejaVuSans-30" transform="translate(127.246094 0)"/>
      </g>
     </g>
    </g>
    <g id="text_7">
     <!-- Frequency (Hz), $f$ -->
     <g transform="translate(265.741406 278.7) scale(0.1 -0.1)">
      <defs>
       <path id="DejaVuSans-46" d="M 628 4666 
L 3309 4666 
L 3309 4134 
L 1259 4134 
L 1259 2759 
L 3109 2759 
L 3109 2228 
L 1259 2228 
L 1259 0 
L 628 0 
L 628 4666 
z
" transform="scale(0.015625)"/>
       <path id="DejaVuSans-72" d="M 2631 2963 
Q 2534 3019 2420 3045 
Q 2306 3072 2169 3072 
Q 1681 3072 1420 2755 
Q 1159 2438 1159 1844 
L 1159 0 
L 581 0 
L 581 3500 
L 1159 3500 
L 1159 2956 
Q 1341 3275 1631 3429 
Q 1922 3584 2338 3584 
Q 2397 3584 2469 3576 
Q 2541 3569 2628 3553 
L 2631 2963 
z
" transform="scale(0.015625)"/>
       <path id="DejaVuSans-65" d="M 3597 1894 
L 3597 1613 
L 953 1613 
Q 991 1019 1311 708 
Q 1631 397 2203 397 
Q 2534 397 2845 478 
Q 3156 559 3463 722 
L 3463 178 
Q 3153 47 2828 -22 
Q 2503 -91 2169 -91 
Q 1331 -91 842 396 
Q 353 884 353 1716 
Q 353 2575 817 3079 
Q 1281 3584 2069 3584 
Q 2775 3584 3186 3129 
Q 3597 2675 3597 1894 
z
M 3022 2063 
Q 3016 2534 2758 2815 
Q 2500 3097 2075 3097 
Q 1594 3097 1305 2825 
Q 1016 2553 972 2059 
L 3022 2063 
z
" transform="scale(0.015625)"/>
       <path id="DejaVuSans-71" d="M 947 1747 
Q 947 1113 1208 752 
Q 1469 391 1925 391 
Q 2381 391 2643 752 
Q 2906 1113 2906 1747 
Q 2906 2381 2643 2742 
Q 2381 3103 1925 3103 
Q 1469 3103 1208 2742 
Q 947 2381 947 1747 
z
M 2906 525 
Q 2725 213 2448 61 
Q 2172 -91 1784 -91 
Q 1150 -91 751 415 
Q 353 922 353 1747 
Q 353 2572 751 3078 
Q 1150 3584 1784 3584 
Q 2172 3584 2448 3432 
Q 2725 3281 2906 2969 
L 2906 3500 
L 3481 3500 
L 3481 -1331 
L 2906 -1331 
L 2906 525 
z
" transform="scale(0.015625)"/>
       <path id="DejaVuSans-75" d="M 544 1381 
L 544 3500 
L 1119 3500 
L 1119 1403 
Q 1119 906 1312 657 
Q 1506 409 1894 409 
Q 2359 409 2629 706 
Q 2900 1003 2900 1516 
L 2900 3500 
L 3475 3500 
L 3475 0 
L 2900 0 
L 2900 538 
Q 2691 219 2414 64 
Q 2138 -91 1772 -91 
Q 1169 -91 856 284 
Q 544 659 544 1381 
z
M 1991 3584 
L 1991 3584 
z
" transform="scale(0.015625)"/>
       <path id="DejaVuSans-6e" d="M 3513 2113 
L 3513 0 
L 2938 0 
L 2938 2094 
Q 2938 2591 2744 2837 
Q 2550 3084 2163 3084 
Q 1697 3084 1428 2787 
Q 1159 2491 1159 1978 
L 1159 0 
L 581 0 
L 581 3500 
L 1159 3500 
L 1159 2956 
Q 1366 3272 1645 3428 
Q 1925 3584 2291 3584 
Q 2894 3584 3203 3211 
Q 3513 2838 3513 2113 
z
" transform="scale(0.015625)"/>
       <path id="DejaVuSans-63" d="M 3122 3366 
L 3122 2828 
Q 2878 2963 2633 3030 
Q 2388 3097 2138 3097 
Q 1578 3097 1268 2742 
Q 959 2388 959 1747 
Q 959 1106 1268 751 
Q 1578 397 2138 397 
Q 2388 397 2633 464 
Q 2878 531 3122 666 
L 3122 134 
Q 2881 22 2623 -34 
Q 2366 -91 2075 -91 
Q 1284 -91 818 406 
Q 353 903 353 1747 
Q 353 2603 823 3093 
Q 1294 3584 2113 3584 
Q 2378 3584 2631 3529 
Q 2884 3475 3122 3366 
z
" transform="scale(0.015625)"/>
       <path id="DejaVuSans-79" d="M 2059 -325 
Q 1816 -950 1584 -1140 
Q 1353 -1331 966 -1331 
L 506 -1331 
L 506 -850 
L 844 -850 
Q 1081 -850 1212 -737 
Q 1344 -625 1503 -206 
L 1606 56 
L 191 3500 
L 800 3500 
L 1894 763 
L 2988 3500 
L 3597 3500 
L 2059 -325 
z
" transform="scale(0.015625)"/>
       <path id="DejaVuSans-20" transform="scale(0.015625)"/>
       <path id="DejaVuSans-28" d="M 1984 4856 
Q 1566 4138 1362 3434 
Q 1159 2731 1159 2009 
Q 1159 1288 1364 580 
Q 1569 -128 1984 -844 
L 1484 -844 
Q 1016 -109 783 600 
Q 550 1309 550 2009 
Q 550 2706 781 3412 
Q 1013 4119 1484 4856 
L 1984 4856 
z
" transform="scale(0.015625)"/>
       <path id="DejaVuSans-48" d="M 628 4666 
L 1259 4666 
L 1259 2753 
L 3553 2753 
L 3553 4666 
L 4184 4666 
L 4184 0 
L 3553 0 
L 3553 2222 
L 1259 2222 
L 1259 0 
L 628 0 
L 628 4666 
z
" transform="scale(0.015625)"/>
       <path id="DejaVuSans-7a" d="M 353 3500 
L 3084 3500 
L 3084 2975 
L 922 459 
L 3084 459 
L 3084 0 
L 275 0 
L 275 525 
L 2438 3041 
L 353 3041 
L 353 3500 
z
" transform="scale(0.015625)"/>
       <path id="DejaVuSans-29" d="M 513 4856 
L 1013 4856 
Q 1481 4119 1714 3412 
Q 1947 2706 1947 2009 
Q 1947 1309 1714 600 
Q 1481 -109 1013 -844 
L 513 -844 
Q 928 -128 1133 580 
Q 1338 1288 1338 2009 
Q 1338 2731 1133 3434 
Q 928 4138 513 4856 
z
" transform="scale(0.015625)"/>
       <path id="DejaVuSans-2c" d="M 750 794 
L 1409 794 
L 1409 256 
L 897 -744 
L 494 -744 
L 750 256 
L 750 794 
z
" transform="scale(0.015625)"/>
       <path id="DejaVuSans-Oblique-66" d="M 3059 4863 
L 2969 4384 
L 2419 4384 
Q 2106 4384 1964 4261 
Q 1822 4138 1753 3809 
L 1691 3500 
L 2638 3500 
L 2553 3053 
L 1606 3053 
L 1013 0 
L 434 0 
L 1031 3053 
L 481 3053 
L 563 3500 
L 1113 3500 
L 1159 3744 
Q 1278 4363 1576 4613 
Q 1875 4863 2516 4863 
L 3059 4863 
z
" transform="scale(0.015625)"/>
      </defs>
      <use xlink:href="#DejaVuSans-46" transform="translate(0 0.015625)"/>
      <use xlink:href="#DejaVuSans-72" transform="translate(57.519531 0.015625)"/>
      <use xlink:href="#DejaVuSans-65" transform="translate(98.632812 0.015625)"/>
      <use xlink:href="#DejaVuSans-71" transform="translate(160.15625 0.015625)"/>
      <use xlink:href="#DejaVuSans-75" transform="translate(223.632812 0.015625)"/>
      <use xlink:href="#DejaVuSans-65" transform="translate(287.011719 0.015625)"/>
      <use xlink:href="#DejaVuSans-6e" transform="translate(348.535156 0.015625)"/>
      <use xlink:href="#DejaVuSans-63" transform="translate(411.914062 0.015625)"/>
      <use xlink:href="#DejaVuSans-79" transform="translate(466.894531 0.015625)"/>
      <use xlink:href="#DejaVuSans-20" transform="translate(526.074219 0.015625)"/>
      <use xlink:href="#DejaVuSans-28" transform="translate(557.861328 0.015625)"/>
      <use xlink:href="#DejaVuSans-48" transform="translate(596.875 0.015625)"/>
      <use xlink:href="#DejaVuSans-7a" transform="translate(672.070312 0.015625)"/>
      <use xlink:href="#DejaVuSans-29" transform="translate(724.560547 0.015625)"/>
      <use xlink:href="#DejaVuSans-2c" transform="translate(763.574219 0.015625)"/>
      <use xlink:href="#DejaVuSans-20" transform="translate(795.361328 0.015625)"/>
      <use xlink:href="#DejaVuSans-Oblique-66" transform="translate(827.148438 0.015625)"/>
     </g>
    </g>
   </g>
   <g id="matplotlib.axis_2">
    <g id="ytick_1">
     <g id="line2d_13">
      <path d="M 48.982813 216.388056 
L 568.8 216.388056 
" clip-path="url(#pc80bf336bb)" style="fill: none; stroke-dasharray: 2.96,1.28; stroke-dashoffset: 0; stroke: #b0b0b0; stroke-opacity: 0.8; stroke-width: 0.8"/>
     </g>
     <g id="line2d_14">
      <defs>
       <path id="m71ce71345f" d="M 0 0 
L -3.5 0 
" style="stroke: #000000; stroke-width: 0.8"/>
      </defs>
      <g>
       <use xlink:href="#m71ce71345f" x="48.982813" y="216.388056" style="stroke: #000000; stroke-width: 0.8"/>
      </g>
     </g>
     <g id="text_8">
      <!-- −60 -->
      <g transform="translate(20.878125 220.187275) scale(0.1 -0.1)">
       <defs>
        <path id="DejaVuSans-2212" d="M 678 2272 
L 4684 2272 
L 4684 1741 
L 678 1741 
L 678 2272 
z
" transform="scale(0.015625)"/>
        <path id="DejaVuSans-36" d="M 2113 2584 
Q 1688 2584 1439 2293 
Q 1191 2003 1191 1497 
Q 1191 994 1439 701 
Q 1688 409 2113 409 
Q 2538 409 2786 701 
Q 3034 994 3034 1497 
Q 3034 2003 2786 2293 
Q 2538 2584 2113 2584 
z
M 3366 4563 
L 3366 3988 
Q 3128 4100 2886 4159 
Q 2644 4219 2406 4219 
Q 1781 4219 1451 3797 
Q 1122 3375 1075 2522 
Q 1259 2794 1537 2939 
Q 1816 3084 2150 3084 
Q 2853 3084 3261 2657 
Q 3669 2231 3669 1497 
Q 3669 778 3244 343 
Q 2819 -91 2113 -91 
Q 1303 -91 875 529 
Q 447 1150 447 2328 
Q 447 3434 972 4092 
Q 1497 4750 2381 4750 
Q 2619 4750 2861 4703 
Q 3103 4656 3366 4563 
z
" transform="scale(0.015625)"/>
       </defs>
       <use xlink:href="#DejaVuSans-2212"/>
       <use xlink:href="#DejaVuSans-36" transform="translate(83.789062 0)"/>
       <use xlink:href="#DejaVuSans-30" transform="translate(147.412109 0)"/>
      </g>
     </g>
    </g>
    <g id="ytick_2">
     <g id="line2d_15">
      <path d="M 48.982813 179.142615 
L 568.8 179.142615 
" clip-path="url(#pc80bf336bb)" style="fill: none; stroke-dasharray: 2.96,1.28; stroke-dashoffset: 0; stroke: #b0b0b0; stroke-opacity: 0.8; stroke-width: 0.8"/>
     </g>
     <g id="line2d_16">
      <g>
       <use xlink:href="#m71ce71345f" x="48.982813" y="179.142615" style="stroke: #000000; stroke-width: 0.8"/>
      </g>
     </g>
     <g id="text_9">
      <!-- −50 -->
      <g transform="translate(20.878125 182.941834) scale(0.1 -0.1)">
       <use xlink:href="#DejaVuSans-2212"/>
       <use xlink:href="#DejaVuSans-35" transform="translate(83.789062 0)"/>
       <use xlink:href="#DejaVuSans-30" transform="translate(147.412109 0)"/>
      </g>
     </g>
    </g>
    <g id="ytick_3">
     <g id="line2d_17">
      <path d="M 48.982813 141.897174 
L 568.8 141.897174 
" clip-path="url(#pc80bf336bb)" style="fill: none; stroke-dasharray: 2.96,1.28; stroke-dashoffset: 0; stroke: #b0b0b0; stroke-opacity: 0.8; stroke-width: 0.8"/>
     </g>
     <g id="line2d_18">
      <g>
       <use xlink:href="#m71ce71345f" x="48.982813" y="141.897174" style="stroke: #000000; stroke-width: 0.8"/>
      </g>
     </g>
     <g id="text_10">
      <!-- −40 -->
      <g transform="translate(20.878125 145.696393) scale(0.1 -0.1)">
       <use xlink:href="#DejaVuSans-2212"/>
       <use xlink:href="#DejaVuSans-34" transform="translate(83.789062 0)"/>
       <use xlink:href="#DejaVuSans-30" transform="translate(147.412109 0)"/>
      </g>
     </g>
    </g>
    <g id="ytick_4">
     <g id="line2d_19">
      <path d="M 48.982813 104.651733 
L 568.8 104.651733 
" clip-path="url(#pc80bf336bb)" style="fill: none; stroke-dasharray: 2.96,1.28; stroke-dashoffset: 0; stroke: #b0b0b0; stroke-opacity: 0.8; stroke-width: 0.8"/>
     </g>
     <g id="line2d_20">
      <g>
       <use xlink:href="#m71ce71345f" x="48.982813" y="104.651733" style="stroke: #000000; stroke-width: 0.8"/>
      </g>
     </g>
     <g id="text_11">
      <!-- −30 -->
      <g transform="translate(20.878125 108.450952) scale(0.1 -0.1)">
       <use xlink:href="#DejaVuSans-2212"/>
       <use xlink:href="#DejaVuSans-33" transform="translate(83.789062 0)"/>
       <use xlink:href="#DejaVuSans-30" transform="translate(147.412109 0)"/>
      </g>
     </g>
    </g>
    <g id="ytick_5">
     <g id="line2d_21">
      <path d="M 48.982813 67.406292 
L 568.8 67.406292 
" clip-path="url(#pc80bf336bb)" style="fill: none; stroke-dasharray: 2.96,1.28; stroke-dashoffset: 0; stroke: #b0b0b0; stroke-opacity: 0.8; stroke-width: 0.8"/>
     </g>
     <g id="line2d_22">
      <g>
       <use xlink:href="#m71ce71345f" x="48.982813" y="67.406292" style="stroke: #000000; stroke-width: 0.8"/>
      </g>
     </g>
     <g id="text_12">
      <!-- −20 -->
      <g transform="translate(20.878125 71.205511) scale(0.1 -0.1)">
       <use xlink:href="#DejaVuSans-2212"/>
       <use xlink:href="#DejaVuSans-32" transform="translate(83.789062 0)"/>
       <use xlink:href="#DejaVuSans-30" transform="translate(147.412109 0)"/>
      </g>
     </g>
    </g>
    <g id="ytick_6">
     <g id="line2d_23">
      <path d="M 48.982813 30.160851 
L 568.8 30.160851 
" clip-path="url(#pc80bf336bb)" style="fill: none; stroke-dasharray: 2.96,1.28; stroke-dashoffset: 0; stroke: #b0b0b0; stroke-opacity: 0.8; stroke-width: 0.8"/>
     </g>
     <g id="line2d_24">
      <g>
       <use xlink:href="#m71ce71345f" x="48.982813" y="30.160851" style="stroke: #000000; stroke-width: 0.8"/>
      </g>
     </g>
     <g id="text_13">
      <!-- −10 -->
      <g transform="translate(20.878125 33.960069) scale(0.1 -0.1)">
       <use xlink:href="#DejaVuSans-2212"/>
       <use xlink:href="#DejaVuSans-31" transform="translate(83.789062 0)"/>
       <use xlink:href="#DejaVuSans-30" transform="translate(147.412109 0)"/>
      </g>
     </g>
    </g>
    <g id="text_14">
     <!-- Power density (dB/Hz) -->
     <g transform="translate(14.798437 191.570938) rotate(-90) scale(0.1 -0.1)">
      <defs>
       <path id="DejaVuSans-50" d="M 1259 4147 
L 1259 2394 
L 2053 2394 
Q 2494 2394 2734 2622 
Q 2975 2850 2975 3272 
Q 2975 3691 2734 3919 
Q 2494 4147 2053 4147 
L 1259 4147 
z
M 628 4666 
L 2053 4666 
Q 2838 4666 3239 4311 
Q 3641 3956 3641 3272 
Q 3641 2581 3239 2228 
Q 2838 1875 2053 1875 
L 1259 1875 
L 1259 0 
L 628 0 
L 628 4666 
z
" transform="scale(0.015625)"/>
       <path id="DejaVuSans-6f" d="M 1959 3097 
Q 1497 3097 1228 2736 
Q 959 2375 959 1747 
Q 959 1119 1226 758 
Q 1494 397 1959 397 
Q 2419 397 2687 759 
Q 2956 1122 2956 1747 
Q 2956 2369 2687 2733 
Q 2419 3097 1959 3097 
z
M 1959 3584 
Q 2709 3584 3137 3096 
Q 3566 2609 3566 1747 
Q 3566 888 3137 398 
Q 2709 -91 1959 -91 
Q 1206 -91 779 398 
Q 353 888 353 1747 
Q 353 2609 779 3096 
Q 1206 3584 1959 3584 
z
" transform="scale(0.015625)"/>
       <path id="DejaVuSans-77" d="M 269 3500 
L 844 3500 
L 1563 769 
L 2278 3500 
L 2956 3500 
L 3675 769 
L 4391 3500 
L 4966 3500 
L 4050 0 
L 3372 0 
L 2619 2869 
L 1863 0 
L 1184 0 
L 269 3500 
z
" transform="scale(0.015625)"/>
       <path id="DejaVuSans-64" d="M 2906 2969 
L 2906 4863 
L 3481 4863 
L 3481 0 
L 2906 0 
L 2906 525 
Q 2725 213 2448 61 
Q 2172 -91 1784 -91 
Q 1150 -91 751 415 
Q 353 922 353 1747 
Q 353 2572 751 3078 
Q 1150 3584 1784 3584 
Q 2172 3584 2448 3432 
Q 2725 3281 2906 2969 
z
M 947 1747 
Q 947 1113 1208 752 
Q 1469 391 1925 391 
Q 2381 391 2643 752 
Q 2906 1113 2906 1747 
Q 2906 2381 2643 2742 
Q 2381 3103 1925 3103 
Q 1469 3103 1208 2742 
Q 947 2381 947 1747 
z
" transform="scale(0.015625)"/>
       <path id="DejaVuSans-73" d="M 2834 3397 
L 2834 2853 
Q 2591 2978 2328 3040 
Q 2066 3103 1784 3103 
Q 1356 3103 1142 2972 
Q 928 2841 928 2578 
Q 928 2378 1081 2264 
Q 1234 2150 1697 2047 
L 1894 2003 
Q 2506 1872 2764 1633 
Q 3022 1394 3022 966 
Q 3022 478 2636 193 
Q 2250 -91 1575 -91 
Q 1294 -91 989 -36 
Q 684 19 347 128 
L 347 722 
Q 666 556 975 473 
Q 1284 391 1588 391 
Q 1994 391 2212 530 
Q 2431 669 2431 922 
Q 2431 1156 2273 1281 
Q 2116 1406 1581 1522 
L 1381 1569 
Q 847 1681 609 1914 
Q 372 2147 372 2553 
Q 372 3047 722 3315 
Q 1072 3584 1716 3584 
Q 2034 3584 2315 3537 
Q 2597 3491 2834 3397 
z
" transform="scale(0.015625)"/>
       <path id="DejaVuSans-69" d="M 603 3500 
L 1178 3500 
L 1178 0 
L 603 0 
L 603 3500 
z
M 603 4863 
L 1178 4863 
L 1178 4134 
L 603 4134 
L 603 4863 
z
" transform="scale(0.015625)"/>
       <path id="DejaVuSans-74" d="M 1172 4494 
L 1172 3500 
L 2356 3500 
L 2356 3053 
L 1172 3053 
L 1172 1153 
Q 1172 725 1289 603 
Q 1406 481 1766 481 
L 2356 481 
L 2356 0 
L 1766 0 
Q 1100 0 847 248 
Q 594 497 594 1153 
L 594 3053 
L 172 3053 
L 172 3500 
L 594 3500 
L 594 4494 
L 1172 4494 
z
" transform="scale(0.015625)"/>
       <path id="DejaVuSans-42" d="M 1259 2228 
L 1259 519 
L 2272 519 
Q 2781 519 3026 730 
Q 3272 941 3272 1375 
Q 3272 1813 3026 2020 
Q 2781 2228 2272 2228 
L 1259 2228 
z
M 1259 4147 
L 1259 2741 
L 2194 2741 
Q 2656 2741 2882 2914 
Q 3109 3088 3109 3444 
Q 3109 3797 2882 3972 
Q 2656 4147 2194 4147 
L 1259 4147 
z
M 628 4666 
L 2241 4666 
Q 2963 4666 3353 4366 
Q 3744 4066 3744 3513 
Q 3744 3084 3544 2831 
Q 3344 2578 2956 2516 
Q 3422 2416 3680 2098 
Q 3938 1781 3938 1306 
Q 3938 681 3513 340 
Q 3088 0 2303 0 
L 628 0 
L 628 4666 
z
" transform="scale(0.015625)"/>
       <path id="DejaVuSans-2f" d="M 1625 4666 
L 2156 4666 
L 531 -594 
L 0 -594 
L 1625 4666 
z
" transform="scale(0.015625)"/>
      </defs>
      <use xlink:href="#DejaVuSans-50"/>
      <use xlink:href="#DejaVuSans-6f" transform="translate(56.677734 0)"/>
      <use xlink:href="#DejaVuSans-77" transform="translate(117.859375 0)"/>
      <use xlink:href="#DejaVuSans-65" transform="translate(199.646484 0)"/>
      <use xlink:href="#DejaVuSans-72" transform="translate(261.169922 0)"/>
      <use xlink:href="#DejaVuSans-20" transform="translate(302.283203 0)"/>
      <use xlink:href="#DejaVuSans-64" transform="translate(334.070312 0)"/>
      <use xlink:href="#DejaVuSans-65" transform="translate(397.546875 0)"/>
      <use xlink:href="#DejaVuSans-6e" transform="translate(459.070312 0)"/>
      <use xlink:href="#DejaVuSans-73" transform="translate(522.449219 0)"/>
      <use xlink:href="#DejaVuSans-69" transform="translate(574.548828 0)"/>
      <use xlink:href="#DejaVuSans-74" transform="translate(602.332031 0)"/>
      <use xlink:href="#DejaVuSans-79" transform="translate(641.541016 0)"/>
      <use xlink:href="#DejaVuSans-20" transform="translate(700.720703 0)"/>
      <use xlink:href="#DejaVuSans-28" transform="translate(732.507812 0)"/>
      <use xlink:href="#DejaVuSans-64" transform="translate(771.521484 0)"/>
      <use xlink:href="#DejaVuSans-42" transform="translate(834.998047 0)"/>
      <use xlink:href="#DejaVuSans-2f" transform="translate(903.601562 0)"/>
      <use xlink:href="#DejaVuSans-48" transform="translate(937.292969 0)"/>
      <use xlink:href="#DejaVuSans-7a" transform="translate(1012.488281 0)"/>
      <use xlink:href="#DejaVuSans-29" transform="translate(1064.978516 0)"/>
     </g>
    </g>
   </g>
   <g id="line2d_25">
    <path d="M 72.610866 240.053608 
L 73.072352 228.677877 
L 73.533837 228.220222 
L 75.841264 225.003534 
L 76.30275 224.735461 
L 76.764235 224.633292 
L 78.148692 224.692036 
L 78.610177 224.557279 
L 79.071662 224.243795 
L 79.994633 223.142315 
L 80.917604 221.905402 
L 81.37909 221.459332 
L 81.840575 221.208941 
L 82.30206 221.168148 
L 83.225031 221.543985 
L 83.686517 221.762893 
L 84.148002 221.820252 
L 84.609488 221.58706 
L 85.070973 220.991549 
L 85.532458 220.048015 
L 87.839886 214.181198 
L 88.301371 213.498253 
L 88.762857 213.05667 
L 89.224342 212.817669 
L 91.070284 212.377437 
L 91.531769 212.026852 
L 92.45474 210.933111 
L 93.377711 209.761781 
L 93.839196 209.35399 
L 94.300682 209.15417 
L 94.762167 209.201882 
L 95.223653 209.511187 
L 95.685138 210.06917 
L 96.608109 211.735677 
L 97.53108 213.528569 
L 97.992565 214.17747 
L 98.454051 214.520684 
L 98.915536 214.507957 
L 99.377021 214.151633 
L 100.299992 212.710039 
L 101.684449 210.235991 
L 102.145934 209.662651 
L 102.607419 209.309248 
L 103.068905 209.214669 
L 103.53039 209.409393 
L 103.991876 209.915521 
L 104.453361 210.744301 
L 105.376332 213.323006 
L 107.222274 219.578644 
L 107.683759 220.211995 
L 108.145245 220.075788 
L 108.60673 219.202379 
L 109.529701 216.103949 
L 110.452672 212.842873 
L 110.914157 211.569691 
L 111.375643 210.643743 
L 111.837128 210.100704 
L 112.298613 209.953947 
L 112.760099 210.200394 
L 113.221584 210.8213 
L 113.68307 211.778352 
L 114.606041 214.39683 
L 115.529011 217.006535 
L 115.990497 217.803686 
L 116.451982 218.017493 
L 116.913468 217.594815 
L 117.374953 216.627299 
L 119.220895 211.292336 
L 119.68238 210.401843 
L 120.143866 209.854946 
L 120.605351 209.674206 
L 121.066837 209.861323 
L 121.528322 210.401131 
L 121.989807 211.262544 
L 122.912778 213.737046 
L 124.297235 217.992043 
L 124.75872 219.093335 
L 125.220205 219.861464 
L 125.681691 220.248605 
L 126.143176 220.259809 
L 126.604662 219.942562 
L 127.066147 219.366 
L 127.989118 217.71055 
L 130.296545 213.031661 
L 130.758031 212.376216 
L 131.219516 211.928019 
L 131.681001 211.729213 
L 132.142487 211.81076 
L 132.603972 212.186737 
L 133.065458 212.846958 
L 133.988429 214.797655 
L 134.911399 216.7204 
L 135.372885 217.184787 
L 135.83437 217.08254 
L 136.295856 216.368239 
L 136.757341 215.137941 
L 138.603283 208.935524 
L 139.064768 207.817201 
L 139.526254 207.009632 
L 139.987739 206.519941 
L 140.449225 206.335407 
L 140.91071 206.430105 
L 141.372195 206.769964 
L 142.295166 208.03194 
L 143.218137 209.819506 
L 145.525564 214.743956 
L 146.448535 216.11823 
L 146.910021 216.547156 
L 147.371506 216.772393 
L 147.832991 216.770145 
L 148.294477 216.51843 
L 148.755962 216.007717 
L 149.678933 214.313706 
L 151.524875 210.278575 
L 152.447846 208.775906 
L 153.370817 207.602066 
L 153.832302 207.186333 
L 154.293787 206.974649 
L 154.755273 207.030329 
L 156.139729 207.922271 
L 156.601215 207.425481 
L 157.0627 206.062053 
L 157.985671 202.299961 
L 158.447156 201.382176 
L 158.908642 202.024339 
L 159.831613 206.445192 
L 160.293098 201.515361 
L 162.13904 151.450423 
L 163.062011 134.992779 
L 163.984981 123.195031 
L 164.907952 115.009162 
L 165.369438 112.083787 
L 165.830923 109.875366 
L 166.292409 108.354119 
L 166.753894 107.500395 
L 167.215379 107.303309 
L 167.676865 107.760011 
L 168.13835 108.875494 
L 168.599836 110.662906 
L 169.061321 113.144427 
L 169.984292 120.333972 
L 170.907263 130.889211 
L 171.830234 145.65291 
L 172.753205 166.27947 
L 174.137661 208.904154 
L 174.599146 212.111799 
L 175.522117 205.303789 
L 175.983603 204.278391 
L 176.445088 204.780628 
L 177.368059 207.729961 
L 178.29103 210.430659 
L 179.675486 213.588653 
L 180.136971 214.424648 
L 180.598457 214.867206 
L 181.059942 214.789875 
L 181.521428 214.254399 
L 182.444399 212.732393 
L 182.905884 212.205217 
L 183.367369 212.000499 
L 183.828855 212.127817 
L 184.29034 212.531144 
L 185.213311 213.793281 
L 187.982224 218.116883 
L 188.905195 220.20562 
L 190.751136 224.737113 
L 191.212622 225.536089 
L 191.674107 226.049263 
L 192.135593 226.224306 
L 192.597078 226.03492 
L 193.058564 225.482004 
L 193.520049 224.590124 
L 194.44302 221.973922 
L 197.673418 211.138789 
L 198.134903 210.232228 
L 198.596389 209.609961 
L 199.057874 209.285882 
L 199.51936 209.262947 
L 199.980845 209.532551 
L 200.44233 210.073082 
L 201.365301 211.80255 
L 203.211243 215.783267 
L 203.672728 216.38311 
L 204.134214 216.723857 
L 204.595699 216.826928 
L 205.51867 216.576338 
L 206.441641 216.238065 
L 206.903126 216.191541 
L 207.364612 216.267746 
L 208.287583 216.761972 
L 209.210554 217.409993 
L 209.672039 217.595722 
L 210.133524 217.569575 
L 210.59501 217.267448 
L 211.056495 216.672331 
L 211.979466 214.805531 
L 213.363922 211.824332 
L 213.825408 211.16001 
L 214.286893 210.754942 
L 214.748379 210.628599 
L 215.209864 210.778156 
L 215.67135 211.180503 
L 216.59432 212.561325 
L 218.440262 215.744351 
L 218.901748 216.259984 
L 219.363233 216.6024 
L 219.824718 216.778187 
L 220.286204 216.806607 
L 221.209175 216.511984 
L 222.132146 215.862811 
L 223.516602 214.44243 
L 224.901058 213.023136 
L 225.362544 212.713591 
L 225.824029 212.546092 
L 226.285514 212.546836 
L 226.747 212.729985 
L 227.208485 213.094374 
L 228.131456 214.270399 
L 229.515912 216.317898 
L 229.977398 216.792779 
L 230.438883 217.078162 
L 230.900369 217.170647 
L 231.82334 216.929895 
L 233.207796 216.356807 
L 235.515223 215.787039 
L 235.976708 215.435033 
L 236.899679 214.270081 
L 238.284136 211.721429 
L 239.668592 209.189332 
L 240.591563 207.915154 
L 241.514534 207.084883 
L 242.437504 206.717529 
L 242.89899 206.709516 
L 243.360475 206.821811 
L 243.821961 207.05857 
L 244.744932 207.922212 
L 245.667902 209.304183 
L 247.052359 212.06164 
L 247.97533 213.843595 
L 248.8983 215.028623 
L 249.359786 215.317409 
L 250.282757 215.429711 
L 251.205728 215.407527 
L 251.667213 215.525387 
L 252.128698 215.781908 
L 253.051669 216.673533 
L 254.436126 218.140317 
L 254.897611 218.419162 
L 255.820582 218.598897 
L 257.205038 218.66647 
L 258.128009 219.005336 
L 259.05098 219.344984 
L 259.512465 219.323954 
L 259.973951 219.075748 
L 260.435436 218.57053 
L 261.358407 216.951095 
L 262.281378 215.179348 
L 262.742863 214.498955 
L 263.204349 214.047247 
L 263.665834 213.847774 
L 264.12732 213.888678 
L 264.588805 214.128303 
L 265.973261 215.388724 
L 266.896232 216.102749 
L 267.819203 216.497706 
L 268.742174 216.606928 
L 269.665145 216.47465 
L 270.588116 216.125585 
L 272.895543 214.931905 
L 273.357028 214.887524 
L 275.20297 215.077431 
L 275.664455 214.679342 
L 276.125941 213.952277 
L 277.971882 210.196724 
L 278.433368 209.664547 
L 279.356339 209.050149 
L 280.27931 208.408163 
L 281.20228 207.636526 
L 281.663766 207.388003 
L 282.125251 207.297623 
L 284.432679 207.562648 
L 284.894164 207.878195 
L 285.355649 208.563487 
L 286.740106 211.922814 
L 287.201591 212.363086 
L 287.663077 212.163873 
L 288.124562 211.783376 
L 288.586047 211.910977 
L 289.047533 213.094625 
L 289.970504 217.857574 
L 290.431989 217.943936 
L 290.893475 213.974186 
L 291.816445 202.5892 
L 292.277931 199.230872 
L 292.739416 198.39598 
L 293.200902 200.392226 
L 294.123873 211.168364 
L 294.585358 211.027748 
L 295.508329 193.95937 
L 295.969814 188.515841 
L 296.4313 187.16 
L 296.892785 190.793935 
L 297.815756 210.529406 
L 298.738727 171.90531 
L 299.200212 159.62568 
L 299.661698 152.26032 
L 300.123183 149.372296 
L 300.584669 151.990408 
L 301.046154 164.916674 
L 301.507639 214.815091 
L 301.969125 150.699015 
L 302.43061 122.409946 
L 302.892096 103.991133 
L 303.815067 78.837159 
L 304.738037 61.722256 
L 305.661008 49.543481 
L 306.583979 41.056361 
L 307.50695 35.651144 
L 307.968435 33.998941 
L 308.429921 33.015353 
L 308.891406 32.688267 
L 309.352892 33.013713 
L 309.814377 33.995597 
L 310.275863 35.64596 
L 310.737348 37.985815 
L 311.198833 41.0467 
L 312.121804 49.527165 
L 313.044775 61.694123 
L 313.967746 78.783012 
L 314.429231 89.971543 
L 314.890717 103.858287 
L 315.352202 122.158916 
L 315.813688 150.051092 
L 316.275173 213.522115 
L 316.736659 166.032723 
L 317.198144 152.832658 
L 317.659629 150.229726 
L 318.121115 153.285549 
L 318.5826 161.00474 
L 319.044086 173.928375 
L 319.505571 193.286839 
L 319.967057 205.656164 
L 320.428542 193.32615 
L 320.890027 184.242951 
L 321.351513 180.911003 
L 321.812998 181.790748 
L 322.274484 186.090415 
L 322.735969 193.315947 
L 323.65894 209.413459 
L 324.120425 210.422161 
L 324.581911 208.10658 
L 325.043396 206.825502 
L 325.504882 207.999286 
L 325.966367 211.559661 
L 326.427853 216.401694 
L 326.889338 219.780967 
L 327.350823 218.987187 
L 328.273794 211.862214 
L 328.73528 209.863485 
L 329.196765 209.586174 
L 329.658251 210.77769 
L 330.581221 215.071891 
L 331.042707 216.42672 
L 331.504192 216.542958 
L 333.350134 213.653373 
L 334.273105 213.012416 
L 335.196076 212.110359 
L 335.657561 211.986881 
L 336.119047 212.417865 
L 336.580532 213.47132 
L 337.503503 216.091428 
L 337.964988 216.187824 
L 338.426474 214.847923 
L 339.349445 210.67369 
L 339.81093 209.747786 
L 340.272415 210.415074 
L 340.733901 212.893737 
L 341.656872 220.528516 
L 342.118357 220.64879 
L 343.041328 212.216681 
L 343.502813 209.889373 
L 343.964299 210.922286 
L 344.425784 215.287346 
L 344.88727 217.528033 
L 345.348755 207.252348 
L 346.271726 180.995748 
L 346.733211 173.087934 
L 347.194697 168.881856 
L 347.656182 168.943963 
L 348.117668 175.449609 
L 348.579153 196.732677 
L 349.040639 193.564903 
L 349.502124 155.802342 
L 349.963609 133.905739 
L 350.88658 105.844632 
L 351.809551 87.318959 
L 352.732522 74.215923 
L 353.655493 65.020106 
L 354.578464 59.015148 
L 355.039949 57.086145 
L 355.501435 55.834781 
L 355.96292 55.245152 
L 356.424405 55.309882 
L 356.885891 56.029608 
L 357.347376 57.413019 
L 357.808862 59.477454 
L 358.270347 62.250148 
L 359.193318 70.092858 
L 360.116289 81.477534 
L 361.03926 97.477684 
L 361.962231 120.620431 
L 362.423716 136.948063 
L 362.885201 160.004598 
L 363.346687 201.373966 
L 363.808172 195.725428 
L 364.269658 176.73518 
L 364.731143 171.507983 
L 365.192629 172.625513 
L 365.654114 178.290946 
L 366.115599 188.288419 
L 367.03857 216.522629 
L 367.500056 213.766902 
L 367.961541 205.465722 
L 368.423027 200.96452 
L 368.884512 200.241121 
L 369.345997 202.484844 
L 370.730454 216.159088 
L 371.191939 217.191963 
L 372.11491 214.861174 
L 372.576395 214.465594 
L 373.037881 214.950798 
L 373.499366 215.747043 
L 373.960852 216.040769 
L 374.422337 215.2996 
L 376.268279 208.717653 
L 376.729764 207.885446 
L 379.037191 205.18324 
L 379.960162 203.900506 
L 380.883133 203.06657 
L 381.344619 202.865848 
L 381.806104 202.822119 
L 382.267589 202.957729 
L 382.729075 203.304833 
L 383.19056 203.895659 
L 383.652046 204.750643 
L 384.575017 207.224777 
L 387.343929 216.42587 
L 387.805415 217.285431 
L 388.2669 217.71625 
L 388.728386 217.691301 
L 389.189871 217.246412 
L 389.651356 216.470753 
L 390.574327 214.360255 
L 394.266211 205.127269 
L 394.727696 204.3528 
L 395.189182 203.806764 
L 395.650667 203.512536 
L 396.112152 203.473321 
L 396.573638 203.671342 
L 397.496609 204.610589 
L 399.34255 206.939805 
L 400.265521 207.653604 
L 403.034434 209.28103 
L 403.957405 210.06567 
L 404.880376 211.130485 
L 405.803346 212.631891 
L 408.572259 217.917282 
L 409.033744 218.265422 
L 409.49523 218.376562 
L 409.956715 218.2961 
L 410.879686 217.81527 
L 413.187113 216.308422 
L 414.110084 215.419966 
L 416.417511 212.785347 
L 417.340482 212.294397 
L 418.263453 212.233238 
L 421.955336 212.773923 
L 422.416822 213.105922 
L 423.339793 214.187835 
L 424.724249 216.239198 
L 425.185734 216.732366 
L 425.64722 217.007773 
L 426.108705 217.041629 
L 426.570191 216.859253 
L 428.877618 215.326769 
L 429.339103 215.335356 
L 429.800589 215.492133 
L 430.72356 216.116325 
L 431.64653 216.78709 
L 432.108016 216.985885 
L 432.569501 217.027939 
L 433.030987 216.888441 
L 433.492472 216.566212 
L 434.415443 215.468468 
L 437.184356 211.41125 
L 438.107326 210.687779 
L 438.568812 210.536111 
L 439.030297 210.537245 
L 439.491783 210.695241 
L 439.953268 211.009204 
L 440.876239 212.071372 
L 442.260695 214.407739 
L 443.183666 215.951013 
L 443.645152 216.534789 
L 444.106637 216.914911 
L 444.568122 217.054752 
L 445.029608 216.945751 
L 445.491093 216.608185 
L 446.414064 215.425098 
L 448.260006 212.280442 
L 450.567433 208.423543 
L 451.951889 206.484522 
L 453.336346 205.004617 
L 454.259316 204.294943 
L 455.182287 203.895112 
L 455.643773 203.862373 
L 456.105258 203.97403 
L 456.566744 204.252776 
L 457.028229 204.715385 
L 457.9512 206.210195 
L 458.874171 208.359474 
L 460.720112 213.061254 
L 461.643083 214.631002 
L 462.566054 215.486137 
L 463.95051 216.32378 
L 464.873481 217.207961 
L 466.257938 218.906599 
L 466.719423 219.23823 
L 467.180908 219.251819 
L 467.642394 218.86282 
L 468.103879 218.060577 
L 469.02685 215.565203 
L 469.949821 212.833128 
L 470.872792 210.845135 
L 471.334277 210.301003 
L 471.795763 210.087461 
L 472.257248 210.194977 
L 472.718734 210.588903 
L 473.641704 211.966619 
L 474.564675 213.450833 
L 475.026161 213.95146 
L 475.487646 214.190416 
L 475.949132 214.163362 
L 476.872102 213.577898 
L 477.795073 212.95879 
L 478.256559 212.845113 
L 478.718044 212.910061 
L 479.641015 213.499954 
L 480.563986 214.271115 
L 481.025471 214.50454 
L 481.486957 214.538459 
L 481.948442 214.345083 
L 482.409928 213.94272 
L 483.794384 212.11252 
L 484.717355 211.056449 
L 485.17884 210.71737 
L 485.640326 210.534282 
L 486.101811 210.519998 
L 486.563297 210.684286 
L 487.024782 211.035924 
L 487.486267 211.582506 
L 488.409238 213.266258 
L 489.793695 216.871449 
L 490.716665 218.954233 
L 491.178151 219.443185 
L 491.639636 219.395957 
L 492.101122 218.800923 
L 492.562607 217.756478 
L 494.408549 212.474133 
L 494.870034 211.537183 
L 495.33152 210.878591 
L 495.793005 210.504467 
L 496.254491 210.400828 
L 496.715976 210.539385 
L 497.177461 210.88235 
L 498.100432 212.008056 
L 500.407859 215.411372 
L 500.869345 215.843934 
L 501.33083 216.071227 
L 501.792316 216.044923 
L 502.253801 215.740405 
L 502.715287 215.169424 
L 503.638257 213.461815 
L 505.022714 210.806912 
L 505.484199 210.206578 
L 505.945685 209.823309 
L 506.40717 209.671241 
L 506.868655 209.746989 
L 507.330141 210.03253 
L 508.253112 211.106618 
L 511.48351 215.94538 
L 511.944995 216.236822 
L 512.406481 216.282033 
L 512.867966 216.035987 
L 513.329451 215.482267 
L 514.252422 213.597899 
L 515.636879 210.205614 
L 516.098364 209.324742 
L 516.559849 208.687584 
L 517.021335 208.32834 
L 517.48282 208.256663 
L 517.944306 208.458842 
L 518.405791 208.899023 
L 519.328762 210.253135 
L 520.713218 212.342294 
L 521.636189 213.186473 
L 523.482131 214.307073 
L 524.405102 215.194145 
L 526.251043 217.217377 
L 527.174014 217.8134 
L 529.019956 218.573131 
L 529.942927 219.3307 
L 531.327383 220.798443 
L 531.788869 221.128638 
L 532.250354 221.266852 
L 532.711839 221.186645 
L 533.173325 220.908683 
L 535.019267 219.365344 
L 535.480752 219.289841 
L 535.942237 219.444103 
L 536.403723 219.835513 
L 537.326694 221.226731 
L 539.172635 224.569762 
L 539.634121 225.085737 
L 540.095606 225.410572 
L 541.018577 225.652444 
L 541.941548 225.778295 
L 542.864519 226.155941 
L 544.710461 227.247484 
L 545.171946 238.530965 
L 545.171946 238.530965 
" clip-path="url(#pc80bf336bb)" style="fill: none; stroke: #1f77b4; stroke-linecap: square"/>
   </g>
   <g id="patch_3">
    <path d="M 48.982813 250.421875 
L 48.982813 22.32 
" style="fill: none; stroke: #000000; stroke-width: 0.8; stroke-linejoin: miter; stroke-linecap: square"/>
   </g>
   <g id="patch_4">
    <path d="M 568.8 250.421875 
L 568.8 22.32 
" style="fill: none; stroke: #000000; stroke-width: 0.8; stroke-linejoin: miter; stroke-linecap: square"/>
   </g>
   <g id="patch_5">
    <path d="M 48.982813 250.421875 
L 568.8 250.421875 
" style="fill: none; stroke: #000000; stroke-width: 0.8; stroke-linejoin: miter; stroke-linecap: square"/>
   </g>
   <g id="patch_6">
    <path d="M 48.982813 22.32 
L 568.8 22.32 
" style="fill: none; stroke: #000000; stroke-width: 0.8; stroke-linejoin: miter; stroke-linecap: square"/>
   </g>
   <g id="text_15">
    <!-- Periodogram of $x_r[n]$ -->
    <g transform="translate(246.971406 16.32) scale(0.12 -0.12)">
     <defs>
      <path id="DejaVuSans-67" d="M 2906 1791 
Q 2906 2416 2648 2759 
Q 2391 3103 1925 3103 
Q 1463 3103 1205 2759 
Q 947 2416 947 1791 
Q 947 1169 1205 825 
Q 1463 481 1925 481 
Q 2391 481 2648 825 
Q 2906 1169 2906 1791 
z
M 3481 434 
Q 3481 -459 3084 -895 
Q 2688 -1331 1869 -1331 
Q 1566 -1331 1297 -1286 
Q 1028 -1241 775 -1147 
L 775 -588 
Q 1028 -725 1275 -790 
Q 1522 -856 1778 -856 
Q 2344 -856 2625 -561 
Q 2906 -266 2906 331 
L 2906 616 
Q 2728 306 2450 153 
Q 2172 0 1784 0 
Q 1141 0 747 490 
Q 353 981 353 1791 
Q 353 2603 747 3093 
Q 1141 3584 1784 3584 
Q 2172 3584 2450 3431 
Q 2728 3278 2906 2969 
L 2906 3500 
L 3481 3500 
L 3481 434 
z
" transform="scale(0.015625)"/>
      <path id="DejaVuSans-61" d="M 2194 1759 
Q 1497 1759 1228 1600 
Q 959 1441 959 1056 
Q 959 750 1161 570 
Q 1363 391 1709 391 
Q 2188 391 2477 730 
Q 2766 1069 2766 1631 
L 2766 1759 
L 2194 1759 
z
M 3341 1997 
L 3341 0 
L 2766 0 
L 2766 531 
Q 2569 213 2275 61 
Q 1981 -91 1556 -91 
Q 1019 -91 701 211 
Q 384 513 384 1019 
Q 384 1609 779 1909 
Q 1175 2209 1959 2209 
L 2766 2209 
L 2766 2266 
Q 2766 2663 2505 2880 
Q 2244 3097 1772 3097 
Q 1472 3097 1187 3025 
Q 903 2953 641 2809 
L 641 3341 
Q 956 3463 1253 3523 
Q 1550 3584 1831 3584 
Q 2591 3584 2966 3190 
Q 3341 2797 3341 1997 
z
" transform="scale(0.015625)"/>
      <path id="DejaVuSans-6d" d="M 3328 2828 
Q 3544 3216 3844 3400 
Q 4144 3584 4550 3584 
Q 5097 3584 5394 3201 
Q 5691 2819 5691 2113 
L 5691 0 
L 5113 0 
L 5113 2094 
Q 5113 2597 4934 2840 
Q 4756 3084 4391 3084 
Q 3944 3084 3684 2787 
Q 3425 2491 3425 1978 
L 3425 0 
L 2847 0 
L 2847 2094 
Q 2847 2600 2669 2842 
Q 2491 3084 2119 3084 
Q 1678 3084 1418 2786 
Q 1159 2488 1159 1978 
L 1159 0 
L 581 0 
L 581 3500 
L 1159 3500 
L 1159 2956 
Q 1356 3278 1631 3431 
Q 1906 3584 2284 3584 
Q 2666 3584 2933 3390 
Q 3200 3197 3328 2828 
z
" transform="scale(0.015625)"/>
      <path id="DejaVuSans-66" d="M 2375 4863 
L 2375 4384 
L 1825 4384 
Q 1516 4384 1395 4259 
Q 1275 4134 1275 3809 
L 1275 3500 
L 2222 3500 
L 2222 3053 
L 1275 3053 
L 1275 0 
L 697 0 
L 697 3053 
L 147 3053 
L 147 3500 
L 697 3500 
L 697 3744 
Q 697 4328 969 4595 
Q 1241 4863 1831 4863 
L 2375 4863 
z
" transform="scale(0.015625)"/>
      <path id="DejaVuSans-Oblique-78" d="M 3841 3500 
L 2234 1784 
L 3219 0 
L 2559 0 
L 1819 1388 
L 531 0 
L -166 0 
L 1556 1844 
L 641 3500 
L 1300 3500 
L 1972 2234 
L 3144 3500 
L 3841 3500 
z
" transform="scale(0.015625)"/>
      <path id="DejaVuSans-Oblique-72" d="M 2853 2969 
Q 2766 3016 2653 3041 
Q 2541 3066 2413 3066 
Q 1953 3066 1609 2717 
Q 1266 2369 1153 1784 
L 800 0 
L 225 0 
L 909 3500 
L 1484 3500 
L 1375 2956 
Q 1603 3259 1920 3421 
Q 2238 3584 2597 3584 
Q 2691 3584 2781 3573 
Q 2872 3563 2963 3538 
L 2853 2969 
z
" transform="scale(0.015625)"/>
      <path id="DejaVuSans-5b" d="M 550 4863 
L 1875 4863 
L 1875 4416 
L 1125 4416 
L 1125 -397 
L 1875 -397 
L 1875 -844 
L 550 -844 
L 550 4863 
z
" transform="scale(0.015625)"/>
      <path id="DejaVuSans-Oblique-6e" d="M 3566 2113 
L 3156 0 
L 2578 0 
L 2988 2091 
Q 3016 2238 3031 2350 
Q 3047 2463 3047 2528 
Q 3047 2791 2881 2937 
Q 2716 3084 2419 3084 
Q 1956 3084 1622 2776 
Q 1288 2469 1184 1941 
L 800 0 
L 225 0 
L 903 3500 
L 1478 3500 
L 1363 2950 
Q 1603 3253 1940 3418 
Q 2278 3584 2650 3584 
Q 3113 3584 3367 3334 
Q 3622 3084 3622 2631 
Q 3622 2519 3608 2391 
Q 3594 2263 3566 2113 
z
" transform="scale(0.015625)"/>
      <path id="DejaVuSans-5d" d="M 1947 4863 
L 1947 -844 
L 622 -844 
L 622 -397 
L 1369 -397 
L 1369 4416 
L 622 4416 
L 622 4863 
L 1947 4863 
z
" transform="scale(0.015625)"/>
     </defs>
     <use xlink:href="#DejaVuSans-50" transform="translate(0 0.015625)"/>
     <use xlink:href="#DejaVuSans-65" transform="translate(60.302734 0.015625)"/>
     <use xlink:href="#DejaVuSans-72" transform="translate(121.826172 0.015625)"/>
     <use xlink:href="#DejaVuSans-69" transform="translate(162.939453 0.015625)"/>
     <use xlink:href="#DejaVuSans-6f" transform="translate(190.722656 0.015625)"/>
     <use xlink:href="#DejaVuSans-64" transform="translate(251.904297 0.015625)"/>
     <use xlink:href="#DejaVuSans-6f" transform="translate(315.380859 0.015625)"/>
     <use xlink:href="#DejaVuSans-67" transform="translate(376.5625 0.015625)"/>
     <use xlink:href="#DejaVuSans-72" transform="translate(440.039062 0.015625)"/>
     <use xlink:href="#DejaVuSans-61" transform="translate(481.152344 0.015625)"/>
     <use xlink:href="#DejaVuSans-6d" transform="translate(542.431641 0.015625)"/>
     <use xlink:href="#DejaVuSans-20" transform="translate(639.84375 0.015625)"/>
     <use xlink:href="#DejaVuSans-6f" transform="translate(671.630859 0.015625)"/>
     <use xlink:href="#DejaVuSans-66" transform="translate(732.8125 0.015625)"/>
     <use xlink:href="#DejaVuSans-20" transform="translate(768.017578 0.015625)"/>
     <use xlink:href="#DejaVuSans-Oblique-78" transform="translate(799.804688 0.015625)"/>
     <use xlink:href="#DejaVuSans-Oblique-72" transform="translate(858.984375 -16.390625) scale(0.7)"/>
     <use xlink:href="#DejaVuSans-5b" transform="translate(890.498047 0.015625)"/>
     <use xlink:href="#DejaVuSans-Oblique-6e" transform="translate(929.511719 0.015625)"/>
     <use xlink:href="#DejaVuSans-5d" transform="translate(992.890625 0.015625)"/>
    </g>
   </g>
  </g>
 </g>
 <defs>
  <clipPath id="pc80bf336bb">
   <rect x="48.982813" y="22.32" width="519.817188" height="228.101875"/>
  </clipPath>
 </defs>
</svg>
