<?xml version="1.0" encoding="utf-8" standalone="no"?>
<!DOCTYPE svg PUBLIC "-//W3C//DTD SVG 1.1//EN"
  "http://www.w3.org/Graphics/SVG/1.1/DTD/svg11.dtd">
<svg xmlns:xlink="http://www.w3.org/1999/xlink" width="576pt" height="288pt" viewBox="0 0 576 288" xmlns="http://www.w3.org/2000/svg" version="1.1">
 <metadata>
  <rdf:RDF xmlns:dc="http://purl.org/dc/elements/1.1/" xmlns:cc="http://creativecommons.org/ns#" xmlns:rdf="http://www.w3.org/1999/02/22-rdf-syntax-ns#">
   <cc:Work>
    <dc:type rdf:resource="http://purl.org/dc/dcmitype/StillImage"/>
    <dc:date>2026-05-03T18:07:54.167101</dc:date>
    <dc:format>image/svg+xml</dc:format>
    <dc:creator>
     <cc:Agent>
      <dc:title>Matplotlib v3.10.9, https://matplotlib.org/</dc:title>
     </cc:Agent>
    </dc:creator>
   </cc:Work>
  </rdf:RDF>
 </metadata>
 <defs>
  <style type="text/css">*{stroke-linejoin: round; stroke-linecap: butt}</style>
 </defs>
 <g id="figure_1">
  <g id="patch_1">
   <path d="M 0 288 
L 576 288 
L 576 0 
L 0 0 
z
" style="fill: #ffffff"/>
  </g>
  <g id="axes_1">
   <g id="patch_2">
    <path d="M 52.160938 250.421875 
L 568.8 250.421875 
L 568.8 7.2 
L 52.160938 7.2 
z
" style="fill: #ffffff"/>
   </g>
   <g id="matplotlib.axis_1">
    <g id="xtick_1">
     <g id="line2d_1">
      <path d="M 75.644531 250.421875 
L 75.644531 7.2 
" clip-path="url(#pf7d599f6ff)" style="fill: none; stroke-dasharray: 2.96,1.28; stroke-dashoffset: 0; stroke: #b0b0b0; stroke-opacity: 0.8; stroke-width: 0.8"/>
     </g>
     <g id="line2d_2">
      <defs>
       <path id="mf07085d464" d="M 0 0 
L 0 3.5 
" style="stroke: #000000; stroke-width: 0.8"/>
      </defs>
      <g>
       <use xlink:href="#mf07085d464" x="75.644531" y="250.421875" style="stroke: #000000; stroke-width: 0.8"/>
      </g>
     </g>
     <g id="text_1">
      <!-- 0 -->
      <g transform="translate(72.463281 265.020312) scale(0.1 -0.1)">
       <defs>
        <path id="DejaVuSans-30" d="M 2034 4250 
Q 1547 4250 1301 3770 
Q 1056 3291 1056 2328 
Q 1056 1369 1301 889 
Q 1547 409 2034 409 
Q 2525 409 2770 889 
Q 3016 1369 3016 2328 
Q 3016 3291 2770 3770 
Q 2525 4250 2034 4250 
z
M 2034 4750 
Q 2819 4750 3233 4129 
Q 3647 3509 3647 2328 
Q 3647 1150 3233 529 
Q 2819 -91 2034 -91 
Q 1250 -91 836 529 
Q 422 1150 422 2328 
Q 422 3509 836 4129 
Q 1250 4750 2034 4750 
z
" transform="scale(0.015625)"/>
       </defs>
       <use xlink:href="#DejaVuSans-30"/>
      </g>
     </g>
    </g>
    <g id="xtick_2">
     <g id="line2d_3">
      <path d="M 134.500656 250.421875 
L 134.500656 7.2 
" clip-path="url(#pf7d599f6ff)" style="fill: none; stroke-dasharray: 2.96,1.28; stroke-dashoffset: 0; stroke: #b0b0b0; stroke-opacity: 0.8; stroke-width: 0.8"/>
     </g>
     <g id="line2d_4">
      <g>
       <use xlink:href="#mf07085d464" x="134.500656" y="250.421875" style="stroke: #000000; stroke-width: 0.8"/>
      </g>
     </g>
     <g id="text_2">
      <!-- 50 -->
      <g transform="translate(128.138156 265.020312) scale(0.1 -0.1)">
       <defs>
        <path id="DejaVuSans-35" d="M 691 4666 
L 3169 4666 
L 3169 4134 
L 1269 4134 
L 1269 2991 
Q 1406 3038 1543 3061 
Q 1681 3084 1819 3084 
Q 2600 3084 3056 2656 
Q 3513 2228 3513 1497 
Q 3513 744 3044 326 
Q 2575 -91 1722 -91 
Q 1428 -91 1123 -41 
Q 819 9 494 109 
L 494 744 
Q 775 591 1075 516 
Q 1375 441 1709 441 
Q 2250 441 2565 725 
Q 2881 1009 2881 1497 
Q 2881 1984 2565 2268 
Q 2250 2553 1709 2553 
Q 1456 2553 1204 2497 
Q 953 2441 691 2322 
L 691 4666 
z
" transform="scale(0.015625)"/>
       </defs>
       <use xlink:href="#DejaVuSans-35"/>
       <use xlink:href="#DejaVuSans-30" transform="translate(63.623047 0)"/>
      </g>
     </g>
    </g>
    <g id="xtick_3">
     <g id="line2d_5">
      <path d="M 193.356781 250.421875 
L 193.356781 7.2 
" clip-path="url(#pf7d599f6ff)" style="fill: none; stroke-dasharray: 2.96,1.28; stroke-dashoffset: 0; stroke: #b0b0b0; stroke-opacity: 0.8; stroke-width: 0.8"/>
     </g>
     <g id="line2d_6">
      <g>
       <use xlink:href="#mf07085d464" x="193.356781" y="250.421875" style="stroke: #000000; stroke-width: 0.8"/>
      </g>
     </g>
     <g id="text_3">
      <!-- 100 -->
      <g transform="translate(183.813031 265.020312) scale(0.1 -0.1)">
       <defs>
        <path id="DejaVuSans-31" d="M 794 531 
L 1825 531 
L 1825 4091 
L 703 3866 
L 703 4441 
L 1819 4666 
L 2450 4666 
L 2450 531 
L 3481 531 
L 3481 0 
L 794 0 
L 794 531 
z
" transform="scale(0.015625)"/>
       </defs>
       <use xlink:href="#DejaVuSans-31"/>
       <use xlink:href="#DejaVuSans-30" transform="translate(63.623047 0)"/>
       <use xlink:href="#DejaVuSans-30" transform="translate(127.246094 0)"/>
      </g>
     </g>
    </g>
    <g id="xtick_4">
     <g id="line2d_7">
      <path d="M 252.212905 250.421875 
L 252.212905 7.2 
" clip-path="url(#pf7d599f6ff)" style="fill: none; stroke-dasharray: 2.96,1.28; stroke-dashoffset: 0; stroke: #b0b0b0; stroke-opacity: 0.8; stroke-width: 0.8"/>
     </g>
     <g id="line2d_8">
      <g>
       <use xlink:href="#mf07085d464" x="252.212905" y="250.421875" style="stroke: #000000; stroke-width: 0.8"/>
      </g>
     </g>
     <g id="text_4">
      <!-- 150 -->
      <g transform="translate(242.669155 265.020312) scale(0.1 -0.1)">
       <use xlink:href="#DejaVuSans-31"/>
       <use xlink:href="#DejaVuSans-35" transform="translate(63.623047 0)"/>
       <use xlink:href="#DejaVuSans-30" transform="translate(127.246094 0)"/>
      </g>
     </g>
    </g>
    <g id="xtick_5">
     <g id="line2d_9">
      <path d="M 311.06903 250.421875 
L 311.06903 7.2 
" clip-path="url(#pf7d599f6ff)" style="fill: none; stroke-dasharray: 2.96,1.28; stroke-dashoffset: 0; stroke: #b0b0b0; stroke-opacity: 0.8; stroke-width: 0.8"/>
     </g>
     <g id="line2d_10">
      <g>
       <use xlink:href="#mf07085d464" x="311.06903" y="250.421875" style="stroke: #000000; stroke-width: 0.8"/>
      </g>
     </g>
     <g id="text_5">
      <!-- 200 -->
      <g transform="translate(301.52528 265.020312) scale(0.1 -0.1)">
       <defs>
        <path id="DejaVuSans-32" d="M 1228 531 
L 3431 531 
L 3431 0 
L 469 0 
L 469 531 
Q 828 903 1448 1529 
Q 2069 2156 2228 2338 
Q 2531 2678 2651 2914 
Q 2772 3150 2772 3378 
Q 2772 3750 2511 3984 
Q 2250 4219 1831 4219 
Q 1534 4219 1204 4116 
Q 875 4013 500 3803 
L 500 4441 
Q 881 4594 1212 4672 
Q 1544 4750 1819 4750 
Q 2544 4750 2975 4387 
Q 3406 4025 3406 3419 
Q 3406 3131 3298 2873 
Q 3191 2616 2906 2266 
Q 2828 2175 2409 1742 
Q 1991 1309 1228 531 
z
" transform="scale(0.015625)"/>
       </defs>
       <use xlink:href="#DejaVuSans-32"/>
       <use xlink:href="#DejaVuSans-30" transform="translate(63.623047 0)"/>
       <use xlink:href="#DejaVuSans-30" transform="translate(127.246094 0)"/>
      </g>
     </g>
    </g>
    <g id="xtick_6">
     <g id="line2d_11">
      <path d="M 369.925155 250.421875 
L 369.925155 7.2 
" clip-path="url(#pf7d599f6ff)" style="fill: none; stroke-dasharray: 2.96,1.28; stroke-dashoffset: 0; stroke: #b0b0b0; stroke-opacity: 0.8; stroke-width: 0.8"/>
     </g>
     <g id="line2d_12">
      <g>
       <use xlink:href="#mf07085d464" x="369.925155" y="250.421875" style="stroke: #000000; stroke-width: 0.8"/>
      </g>
     </g>
     <g id="text_6">
      <!-- 250 -->
      <g transform="translate(360.381405 265.020312) scale(0.1 -0.1)">
       <use xlink:href="#DejaVuSans-32"/>
       <use xlink:href="#DejaVuSans-35" transform="translate(63.623047 0)"/>
       <use xlink:href="#DejaVuSans-30" transform="translate(127.246094 0)"/>
      </g>
     </g>
    </g>
    <g id="xtick_7">
     <g id="line2d_13">
      <path d="M 428.781279 250.421875 
L 428.781279 7.2 
" clip-path="url(#pf7d599f6ff)" style="fill: none; stroke-dasharray: 2.96,1.28; stroke-dashoffset: 0; stroke: #b0b0b0; stroke-opacity: 0.8; stroke-width: 0.8"/>
     </g>
     <g id="line2d_14">
      <g>
       <use xlink:href="#mf07085d464" x="428.781279" y="250.421875" style="stroke: #000000; stroke-width: 0.8"/>
      </g>
     </g>
     <g id="text_7">
      <!-- 300 -->
      <g transform="translate(419.237529 265.020312) scale(0.1 -0.1)">
       <defs>
        <path id="DejaVuSans-33" d="M 2597 2516 
Q 3050 2419 3304 2112 
Q 3559 1806 3559 1356 
Q 3559 666 3084 287 
Q 2609 -91 1734 -91 
Q 1441 -91 1130 -33 
Q 819 25 488 141 
L 488 750 
Q 750 597 1062 519 
Q 1375 441 1716 441 
Q 2309 441 2620 675 
Q 2931 909 2931 1356 
Q 2931 1769 2642 2001 
Q 2353 2234 1838 2234 
L 1294 2234 
L 1294 2753 
L 1863 2753 
Q 2328 2753 2575 2939 
Q 2822 3125 2822 3475 
Q 2822 3834 2567 4026 
Q 2313 4219 1838 4219 
Q 1578 4219 1281 4162 
Q 984 4106 628 3988 
L 628 4550 
Q 988 4650 1302 4700 
Q 1616 4750 1894 4750 
Q 2613 4750 3031 4423 
Q 3450 4097 3450 3541 
Q 3450 3153 3228 2886 
Q 3006 2619 2597 2516 
z
" transform="scale(0.015625)"/>
       </defs>
       <use xlink:href="#DejaVuSans-33"/>
       <use xlink:href="#DejaVuSans-30" transform="translate(63.623047 0)"/>
       <use xlink:href="#DejaVuSans-30" transform="translate(127.246094 0)"/>
      </g>
     </g>
    </g>
    <g id="xtick_8">
     <g id="line2d_15">
      <path d="M 487.637404 250.421875 
L 487.637404 7.2 
" clip-path="url(#pf7d599f6ff)" style="fill: none; stroke-dasharray: 2.96,1.28; stroke-dashoffset: 0; stroke: #b0b0b0; stroke-opacity: 0.8; stroke-width: 0.8"/>
     </g>
     <g id="line2d_16">
      <g>
       <use xlink:href="#mf07085d464" x="487.637404" y="250.421875" style="stroke: #000000; stroke-width: 0.8"/>
      </g>
     </g>
     <g id="text_8">
      <!-- 350 -->
      <g transform="translate(478.093654 265.020312) scale(0.1 -0.1)">
       <use xlink:href="#DejaVuSans-33"/>
       <use xlink:href="#DejaVuSans-35" transform="translate(63.623047 0)"/>
       <use xlink:href="#DejaVuSans-30" transform="translate(127.246094 0)"/>
      </g>
     </g>
    </g>
    <g id="xtick_9">
     <g id="line2d_17">
      <path d="M 546.493529 250.421875 
L 546.493529 7.2 
" clip-path="url(#pf7d599f6ff)" style="fill: none; stroke-dasharray: 2.96,1.28; stroke-dashoffset: 0; stroke: #b0b0b0; stroke-opacity: 0.8; stroke-width: 0.8"/>
     </g>
     <g id="line2d_18">
      <g>
       <use xlink:href="#mf07085d464" x="546.493529" y="250.421875" style="stroke: #000000; stroke-width: 0.8"/>
      </g>
     </g>
     <g id="text_9">
      <!-- 400 -->
      <g transform="translate(536.949779 265.020312) scale(0.1 -0.1)">
       <defs>
        <path id="DejaVuSans-34" d="M 2419 4116 
L 825 1625 
L 2419 1625 
L 2419 4116 
z
M 2253 4666 
L 3047 4666 
L 3047 1625 
L 3713 1625 
L 3713 1100 
L 3047 1100 
L 3047 0 
L 2419 0 
L 2419 1100 
L 313 1100 
L 313 1709 
L 2253 4666 
z
" transform="scale(0.015625)"/>
       </defs>
       <use xlink:href="#DejaVuSans-34"/>
       <use xlink:href="#DejaVuSans-30" transform="translate(63.623047 0)"/>
       <use xlink:href="#DejaVuSans-30" transform="translate(127.246094 0)"/>
      </g>
     </g>
    </g>
    <g id="text_10">
     <!-- Sample, $n$ -->
     <g transform="translate(285.380469 278.7) scale(0.1 -0.1)">
      <defs>
       <path id="DejaVuSans-53" d="M 3425 4513 
L 3425 3897 
Q 3066 4069 2747 4153 
Q 2428 4238 2131 4238 
Q 1616 4238 1336 4038 
Q 1056 3838 1056 3469 
Q 1056 3159 1242 3001 
Q 1428 2844 1947 2747 
L 2328 2669 
Q 3034 2534 3370 2195 
Q 3706 1856 3706 1288 
Q 3706 609 3251 259 
Q 2797 -91 1919 -91 
Q 1588 -91 1214 -16 
Q 841 59 441 206 
L 441 856 
Q 825 641 1194 531 
Q 1563 422 1919 422 
Q 2459 422 2753 634 
Q 3047 847 3047 1241 
Q 3047 1584 2836 1778 
Q 2625 1972 2144 2069 
L 1759 2144 
Q 1053 2284 737 2584 
Q 422 2884 422 3419 
Q 422 4038 858 4394 
Q 1294 4750 2059 4750 
Q 2388 4750 2728 4690 
Q 3069 4631 3425 4513 
z
" transform="scale(0.015625)"/>
       <path id="DejaVuSans-61" d="M 2194 1759 
Q 1497 1759 1228 1600 
Q 959 1441 959 1056 
Q 959 750 1161 570 
Q 1363 391 1709 391 
Q 2188 391 2477 730 
Q 2766 1069 2766 1631 
L 2766 1759 
L 2194 1759 
z
M 3341 1997 
L 3341 0 
L 2766 0 
L 2766 531 
Q 2569 213 2275 61 
Q 1981 -91 1556 -91 
Q 1019 -91 701 211 
Q 384 513 384 1019 
Q 384 1609 779 1909 
Q 1175 2209 1959 2209 
L 2766 2209 
L 2766 2266 
Q 2766 2663 2505 2880 
Q 2244 3097 1772 3097 
Q 1472 3097 1187 3025 
Q 903 2953 641 2809 
L 641 3341 
Q 956 3463 1253 3523 
Q 1550 3584 1831 3584 
Q 2591 3584 2966 3190 
Q 3341 2797 3341 1997 
z
" transform="scale(0.015625)"/>
       <path id="DejaVuSans-6d" d="M 3328 2828 
Q 3544 3216 3844 3400 
Q 4144 3584 4550 3584 
Q 5097 3584 5394 3201 
Q 5691 2819 5691 2113 
L 5691 0 
L 5113 0 
L 5113 2094 
Q 5113 2597 4934 2840 
Q 4756 3084 4391 3084 
Q 3944 3084 3684 2787 
Q 3425 2491 3425 1978 
L 3425 0 
L 2847 0 
L 2847 2094 
Q 2847 2600 2669 2842 
Q 2491 3084 2119 3084 
Q 1678 3084 1418 2786 
Q 1159 2488 1159 1978 
L 1159 0 
L 581 0 
L 581 3500 
L 1159 3500 
L 1159 2956 
Q 1356 3278 1631 3431 
Q 1906 3584 2284 3584 
Q 2666 3584 2933 3390 
Q 3200 3197 3328 2828 
z
" transform="scale(0.015625)"/>
       <path id="DejaVuSans-70" d="M 1159 525 
L 1159 -1331 
L 581 -1331 
L 581 3500 
L 1159 3500 
L 1159 2969 
Q 1341 3281 1617 3432 
Q 1894 3584 2278 3584 
Q 2916 3584 3314 3078 
Q 3713 2572 3713 1747 
Q 3713 922 3314 415 
Q 2916 -91 2278 -91 
Q 1894 -91 1617 61 
Q 1341 213 1159 525 
z
M 3116 1747 
Q 3116 2381 2855 2742 
Q 2594 3103 2138 3103 
Q 1681 3103 1420 2742 
Q 1159 2381 1159 1747 
Q 1159 1113 1420 752 
Q 1681 391 2138 391 
Q 2594 391 2855 752 
Q 3116 1113 3116 1747 
z
" transform="scale(0.015625)"/>
       <path id="DejaVuSans-6c" d="M 603 4863 
L 1178 4863 
L 1178 0 
L 603 0 
L 603 4863 
z
" transform="scale(0.015625)"/>
       <path id="DejaVuSans-65" d="M 3597 1894 
L 3597 1613 
L 953 1613 
Q 991 1019 1311 708 
Q 1631 397 2203 397 
Q 2534 397 2845 478 
Q 3156 559 3463 722 
L 3463 178 
Q 3153 47 2828 -22 
Q 2503 -91 2169 -91 
Q 1331 -91 842 396 
Q 353 884 353 1716 
Q 353 2575 817 3079 
Q 1281 3584 2069 3584 
Q 2775 3584 3186 3129 
Q 3597 2675 3597 1894 
z
M 3022 2063 
Q 3016 2534 2758 2815 
Q 2500 3097 2075 3097 
Q 1594 3097 1305 2825 
Q 1016 2553 972 2059 
L 3022 2063 
z
" transform="scale(0.015625)"/>
       <path id="DejaVuSans-2c" d="M 750 794 
L 1409 794 
L 1409 256 
L 897 -744 
L 494 -744 
L 750 256 
L 750 794 
z
" transform="scale(0.015625)"/>
       <path id="DejaVuSans-20" transform="scale(0.015625)"/>
       <path id="DejaVuSans-Oblique-6e" d="M 3566 2113 
L 3156 0 
L 2578 0 
L 2988 2091 
Q 3016 2238 3031 2350 
Q 3047 2463 3047 2528 
Q 3047 2791 2881 2937 
Q 2716 3084 2419 3084 
Q 1956 3084 1622 2776 
Q 1288 2469 1184 1941 
L 800 0 
L 225 0 
L 903 3500 
L 1478 3500 
L 1363 2950 
Q 1603 3253 1940 3418 
Q 2278 3584 2650 3584 
Q 3113 3584 3367 3334 
Q 3622 3084 3622 2631 
Q 3622 2519 3608 2391 
Q 3594 2263 3566 2113 
z
" transform="scale(0.015625)"/>
      </defs>
      <use xlink:href="#DejaVuSans-53" transform="translate(0 0.015625)"/>
      <use xlink:href="#DejaVuSans-61" transform="translate(63.476562 0.015625)"/>
      <use xlink:href="#DejaVuSans-6d" transform="translate(124.755859 0.015625)"/>
      <use xlink:href="#DejaVuSans-70" transform="translate(222.167969 0.015625)"/>
      <use xlink:href="#DejaVuSans-6c" transform="translate(285.644531 0.015625)"/>
      <use xlink:href="#DejaVuSans-65" transform="translate(313.427734 0.015625)"/>
      <use xlink:href="#DejaVuSans-2c" transform="translate(374.951172 0.015625)"/>
      <use xlink:href="#DejaVuSans-20" transform="translate(406.738281 0.015625)"/>
      <use xlink:href="#DejaVuSans-Oblique-6e" transform="translate(438.525391 0.015625)"/>
     </g>
    </g>
   </g>
   <g id="matplotlib.axis_2">
    <g id="ytick_1">
     <g id="line2d_19">
      <path d="M 52.160938 239.067206 
L 568.8 239.067206 
" clip-path="url(#pf7d599f6ff)" style="fill: none; stroke-dasharray: 2.96,1.28; stroke-dashoffset: 0; stroke: #b0b0b0; stroke-opacity: 0.8; stroke-width: 0.8"/>
     </g>
     <g id="line2d_20">
      <defs>
       <path id="m965e82886e" d="M 0 0 
L -3.5 0 
" style="stroke: #000000; stroke-width: 0.8"/>
      </defs>
      <g>
       <use xlink:href="#m965e82886e" x="52.160938" y="239.067206" style="stroke: #000000; stroke-width: 0.8"/>
      </g>
     </g>
     <g id="text_11">
      <!-- −0.4 -->
      <g transform="translate(20.878125 242.866424) scale(0.1 -0.1)">
       <defs>
        <path id="DejaVuSans-2212" d="M 678 2272 
L 4684 2272 
L 4684 1741 
L 678 1741 
L 678 2272 
z
" transform="scale(0.015625)"/>
        <path id="DejaVuSans-2e" d="M 684 794 
L 1344 794 
L 1344 0 
L 684 0 
L 684 794 
z
" transform="scale(0.015625)"/>
       </defs>
       <use xlink:href="#DejaVuSans-2212"/>
       <use xlink:href="#DejaVuSans-30" transform="translate(83.789062 0)"/>
       <use xlink:href="#DejaVuSans-2e" transform="translate(147.412109 0)"/>
       <use xlink:href="#DejaVuSans-34" transform="translate(179.199219 0)"/>
      </g>
     </g>
    </g>
    <g id="ytick_2">
     <g id="line2d_21">
      <path d="M 52.160938 186.204721 
L 568.8 186.204721 
" clip-path="url(#pf7d599f6ff)" style="fill: none; stroke-dasharray: 2.96,1.28; stroke-dashoffset: 0; stroke: #b0b0b0; stroke-opacity: 0.8; stroke-width: 0.8"/>
     </g>
     <g id="line2d_22">
      <g>
       <use xlink:href="#m965e82886e" x="52.160938" y="186.204721" style="stroke: #000000; stroke-width: 0.8"/>
      </g>
     </g>
     <g id="text_12">
      <!-- −0.2 -->
      <g transform="translate(20.878125 190.00394) scale(0.1 -0.1)">
       <use xlink:href="#DejaVuSans-2212"/>
       <use xlink:href="#DejaVuSans-30" transform="translate(83.789062 0)"/>
       <use xlink:href="#DejaVuSans-2e" transform="translate(147.412109 0)"/>
       <use xlink:href="#DejaVuSans-32" transform="translate(179.199219 0)"/>
      </g>
     </g>
    </g>
    <g id="ytick_3">
     <g id="line2d_23">
      <path d="M 52.160938 133.342236 
L 568.8 133.342236 
" clip-path="url(#pf7d599f6ff)" style="fill: none; stroke-dasharray: 2.96,1.28; stroke-dashoffset: 0; stroke: #b0b0b0; stroke-opacity: 0.8; stroke-width: 0.8"/>
     </g>
     <g id="line2d_24">
      <g>
       <use xlink:href="#m965e82886e" x="52.160938" y="133.342236" style="stroke: #000000; stroke-width: 0.8"/>
      </g>
     </g>
     <g id="text_13">
      <!-- 0.0 -->
      <g transform="translate(29.257812 137.141455) scale(0.1 -0.1)">
       <use xlink:href="#DejaVuSans-30"/>
       <use xlink:href="#DejaVuSans-2e" transform="translate(63.623047 0)"/>
       <use xlink:href="#DejaVuSans-30" transform="translate(95.410156 0)"/>
      </g>
     </g>
    </g>
    <g id="ytick_4">
     <g id="line2d_25">
      <path d="M 52.160938 80.479752 
L 568.8 80.479752 
" clip-path="url(#pf7d599f6ff)" style="fill: none; stroke-dasharray: 2.96,1.28; stroke-dashoffset: 0; stroke: #b0b0b0; stroke-opacity: 0.8; stroke-width: 0.8"/>
     </g>
     <g id="line2d_26">
      <g>
       <use xlink:href="#m965e82886e" x="52.160938" y="80.479752" style="stroke: #000000; stroke-width: 0.8"/>
      </g>
     </g>
     <g id="text_14">
      <!-- 0.2 -->
      <g transform="translate(29.257812 84.278971) scale(0.1 -0.1)">
       <use xlink:href="#DejaVuSans-30"/>
       <use xlink:href="#DejaVuSans-2e" transform="translate(63.623047 0)"/>
       <use xlink:href="#DejaVuSans-32" transform="translate(95.410156 0)"/>
      </g>
     </g>
    </g>
    <g id="ytick_5">
     <g id="line2d_27">
      <path d="M 52.160938 27.617267 
L 568.8 27.617267 
" clip-path="url(#pf7d599f6ff)" style="fill: none; stroke-dasharray: 2.96,1.28; stroke-dashoffset: 0; stroke: #b0b0b0; stroke-opacity: 0.8; stroke-width: 0.8"/>
     </g>
     <g id="line2d_28">
      <g>
       <use xlink:href="#m965e82886e" x="52.160938" y="27.617267" style="stroke: #000000; stroke-width: 0.8"/>
      </g>
     </g>
     <g id="text_15">
      <!-- 0.4 -->
      <g transform="translate(29.257812 31.416486) scale(0.1 -0.1)">
       <use xlink:href="#DejaVuSans-30"/>
       <use xlink:href="#DejaVuSans-2e" transform="translate(63.623047 0)"/>
       <use xlink:href="#DejaVuSans-34" transform="translate(95.410156 0)"/>
      </g>
     </g>
    </g>
    <g id="text_16">
     <!-- Amplitude -->
     <g transform="translate(14.798437 154.433594) rotate(-90) scale(0.1 -0.1)">
      <defs>
       <path id="DejaVuSans-41" d="M 2188 4044 
L 1331 1722 
L 3047 1722 
L 2188 4044 
z
M 1831 4666 
L 2547 4666 
L 4325 0 
L 3669 0 
L 3244 1197 
L 1141 1197 
L 716 0 
L 50 0 
L 1831 4666 
z
" transform="scale(0.015625)"/>
       <path id="DejaVuSans-69" d="M 603 3500 
L 1178 3500 
L 1178 0 
L 603 0 
L 603 3500 
z
M 603 4863 
L 1178 4863 
L 1178 4134 
L 603 4134 
L 603 4863 
z
" transform="scale(0.015625)"/>
       <path id="DejaVuSans-74" d="M 1172 4494 
L 1172 3500 
L 2356 3500 
L 2356 3053 
L 1172 3053 
L 1172 1153 
Q 1172 725 1289 603 
Q 1406 481 1766 481 
L 2356 481 
L 2356 0 
L 1766 0 
Q 1100 0 847 248 
Q 594 497 594 1153 
L 594 3053 
L 172 3053 
L 172 3500 
L 594 3500 
L 594 4494 
L 1172 4494 
z
" transform="scale(0.015625)"/>
       <path id="DejaVuSans-75" d="M 544 1381 
L 544 3500 
L 1119 3500 
L 1119 1403 
Q 1119 906 1312 657 
Q 1506 409 1894 409 
Q 2359 409 2629 706 
Q 2900 1003 2900 1516 
L 2900 3500 
L 3475 3500 
L 3475 0 
L 2900 0 
L 2900 538 
Q 2691 219 2414 64 
Q 2138 -91 1772 -91 
Q 1169 -91 856 284 
Q 544 659 544 1381 
z
M 1991 3584 
L 1991 3584 
z
" transform="scale(0.015625)"/>
       <path id="DejaVuSans-64" d="M 2906 2969 
L 2906 4863 
L 3481 4863 
L 3481 0 
L 2906 0 
L 2906 525 
Q 2725 213 2448 61 
Q 2172 -91 1784 -91 
Q 1150 -91 751 415 
Q 353 922 353 1747 
Q 353 2572 751 3078 
Q 1150 3584 1784 3584 
Q 2172 3584 2448 3432 
Q 2725 3281 2906 2969 
z
M 947 1747 
Q 947 1113 1208 752 
Q 1469 391 1925 391 
Q 2381 391 2643 752 
Q 2906 1113 2906 1747 
Q 2906 2381 2643 2742 
Q 2381 3103 1925 3103 
Q 1469 3103 1208 2742 
Q 947 2381 947 1747 
z
" transform="scale(0.015625)"/>
      </defs>
      <use xlink:href="#DejaVuSans-41"/>
      <use xlink:href="#DejaVuSans-6d" transform="translate(68.408203 0)"/>
      <use xlink:href="#DejaVuSans-70" transform="translate(165.820312 0)"/>
      <use xlink:href="#DejaVuSans-6c" transform="translate(229.296875 0)"/>
      <use xlink:href="#DejaVuSans-69" transform="translate(257.080078 0)"/>
      <use xlink:href="#DejaVuSans-74" transform="translate(284.863281 0)"/>
      <use xlink:href="#DejaVuSans-75" transform="translate(324.072266 0)"/>
      <use xlink:href="#DejaVuSans-64" transform="translate(387.451172 0)"/>
      <use xlink:href="#DejaVuSans-65" transform="translate(450.927734 0)"/>
     </g>
    </g>
   </g>
   <g id="line2d_29">
    <path d="M 75.644531 126.199897 
L 76.821654 130.990898 
L 77.998776 136.706227 
L 79.175899 128.341877 
L 80.353021 142.304209 
L 81.530144 136.137206 
L 82.707266 132.324603 
L 83.884389 134.81725 
L 85.061511 141.166101 
L 86.238634 131.587237 
L 87.415756 133.654086 
L 88.592879 131.523877 
L 90.947124 124.357075 
L 92.124246 132.669835 
L 93.301369 127.15262 
L 94.478491 133.906021 
L 95.655614 129.220135 
L 96.832736 133.538022 
L 98.009859 134.786728 
L 99.186981 143.97464 
L 101.541226 141.291892 
L 102.718349 148.434862 
L 103.895471 142.849378 
L 105.072594 132.422129 
L 106.249716 129.435551 
L 107.426839 118.774246 
L 108.603961 110.124251 
L 109.781084 117.553381 
L 110.958206 117.589788 
L 112.135329 120.907614 
L 113.312451 128.786764 
L 114.489574 144.174634 
L 115.666696 149.735506 
L 116.843819 185.490687 
L 118.020941 196.336467 
L 120.375186 215.889396 
L 121.552309 210.616853 
L 122.729431 212.439122 
L 123.906553 196.639688 
L 125.083676 176.033821 
L 126.260798 148.707663 
L 127.437921 128.097589 
L 128.615043 91.700445 
L 129.792166 75.128987 
L 130.969288 60.401693 
L 133.323533 55.896612 
L 134.500656 76.34327 
L 135.677778 89.969862 
L 136.854901 115.775561 
L 138.032023 150.020578 
L 140.386268 198.639074 
L 141.563391 216.073004 
L 142.740513 228.740816 
L 143.917636 217.970055 
L 145.094758 230.876022 
L 146.271881 213.412622 
L 147.449003 202.158872 
L 148.626126 198.942861 
L 149.803248 182.516589 
L 150.980371 178.405553 
L 152.157493 184.137813 
L 153.334616 198.373611 
L 154.511738 204.767339 
L 155.688861 219.785093 
L 156.865983 224.263735 
L 158.043106 231.161003 
L 159.220228 227.895602 
L 160.397351 213.822228 
L 161.574473 196.666346 
L 163.928718 147.960954 
L 165.105841 116.874888 
L 166.282963 79.758035 
L 167.460086 73.055114 
L 168.637208 56.544184 
L 169.814331 53.361311 
L 170.991453 66.682699 
L 172.168576 81.344561 
L 173.345698 104.044308 
L 175.699943 154.185458 
L 178.054188 199.738351 
L 179.231311 199.362606 
L 180.408433 208.325253 
L 181.585556 199.649898 
L 182.762678 185.506691 
L 185.116923 141.718032 
L 186.294046 106.792957 
L 187.471168 78.356236 
L 188.648291 56.225137 
L 189.825413 38.431195 
L 191.002536 33.646532 
L 192.179658 19.217516 
L 193.356781 24.429935 
L 194.533903 37.369599 
L 195.711026 53.79421 
L 196.888148 63.671852 
L 198.065271 75.245162 
L 199.242393 92.005189 
L 200.419516 103.132423 
L 201.596638 122.76944 
L 202.773761 139.791703 
L 203.950883 153.211086 
L 205.128006 162.249385 
L 206.305128 178.034942 
L 207.482251 198.657149 
L 208.659373 217.092659 
L 209.836496 217.343879 
L 211.013618 218.448235 
L 212.190741 238.364782 
L 213.367863 237.325498 
L 214.544986 233.613216 
L 215.722108 219.010356 
L 218.076353 187.647246 
L 219.253475 165.189554 
L 220.430598 139.703536 
L 221.60772 123.60786 
L 222.784843 91.439497 
L 223.961965 80.76271 
L 225.139088 62.649796 
L 226.31621 64.923427 
L 227.493333 64.006112 
L 229.847578 99.953343 
L 231.0247 115.18139 
L 232.201823 133.867097 
L 233.378945 155.730024 
L 234.556068 185.879674 
L 235.73319 196.373905 
L 236.910313 212.187413 
L 238.087435 233.039803 
L 239.264558 231.582565 
L 240.44168 239.366335 
L 241.618803 239.311015 
L 242.795925 234.804807 
L 243.973048 216.38649 
L 245.15017 199.895819 
L 246.327293 171.020577 
L 247.504415 156.843076 
L 248.681538 138.666116 
L 249.85866 115.218469 
L 251.035783 96.359646 
L 252.212905 90.407387 
L 253.390028 74.327737 
L 254.56715 68.222163 
L 255.744273 64.102154 
L 256.921395 65.323102 
L 258.098518 57.578666 
L 259.27564 63.364734 
L 260.452763 62.568483 
L 261.629885 72.864809 
L 262.807008 68.173066 
L 263.98413 64.830455 
L 265.161253 65.324996 
L 266.338375 66.893942 
L 267.515498 69.756261 
L 268.69262 61.079762 
L 269.869743 58.413448 
L 271.046865 59.369487 
L 272.223988 64.869254 
L 274.578233 74.246856 
L 275.755355 90.251702 
L 276.932478 104.315329 
L 278.1096 116.563178 
L 280.463845 159.659436 
L 281.640968 187.327586 
L 282.81809 192.501743 
L 283.995213 213.410338 
L 285.172335 237.470597 
L 286.349458 235.597974 
L 287.52658 239.24651 
L 288.703703 238.490395 
L 289.880825 224.121682 
L 291.057948 224.524626 
L 293.412193 181.306208 
L 295.766438 130.966839 
L 296.94356 99.596583 
L 298.120683 87.327281 
L 299.297805 71.145089 
L 300.474928 70.550322 
L 301.65205 63.875205 
L 302.829173 66.220629 
L 305.183418 97.139916 
L 306.36054 122.292191 
L 307.537663 142.453366 
L 308.714785 172.522958 
L 309.891908 183.765668 
L 311.06903 201.419327 
L 312.246152 216.733783 
L 313.423275 221.418841 
L 314.600397 221.888519 
L 315.77752 219.168932 
L 316.954642 215.971983 
L 318.131765 203.373379 
L 319.308887 196.71793 
L 320.48601 196.317315 
L 321.663132 182.355053 
L 322.840255 183.621293 
L 324.017377 189.033661 
L 325.1945 188.238631 
L 326.371622 189.820026 
L 327.548745 201.551332 
L 328.725867 202.766366 
L 329.90299 203.794669 
L 331.080112 201.466762 
L 332.257235 207.389163 
L 333.434357 205.47473 
L 334.61148 206.548526 
L 335.788602 197.184601 
L 336.965725 200.984372 
L 338.142847 192.477156 
L 339.31997 187.694081 
L 340.497092 199.708427 
L 341.674215 202.383672 
L 342.851337 197.887048 
L 344.02846 197.478086 
L 345.205582 204.884544 
L 346.382705 207.170923 
L 347.559827 213.786738 
L 348.73695 199.860144 
L 349.914072 197.894016 
L 351.091195 202.183943 
L 353.44544 193.946825 
L 354.622562 196.785566 
L 355.799685 193.27409 
L 356.976807 193.363815 
L 358.15393 201.335688 
L 359.331052 203.538111 
L 360.508175 200.77184 
L 361.685297 206.167615 
L 362.86242 216.859016 
L 364.039542 209.454738 
L 365.216665 205.653626 
L 366.393787 204.684998 
L 367.57091 203.124689 
L 368.748032 193.867796 
L 369.925155 177.515402 
L 371.102277 167.911602 
L 372.2794 151.265504 
L 373.456522 125.706909 
L 374.633645 110.177704 
L 375.810767 84.696944 
L 376.98789 64.885088 
L 378.165012 54.087813 
L 379.342135 39.873928 
L 380.519257 29.07023 
L 381.69638 29.323838 
L 382.873502 20.733987 
L 384.050625 30.214167 
L 385.227747 41.235764 
L 386.40487 54.824356 
L 387.581992 85.599893 
L 388.759115 108.592385 
L 389.936237 134.29985 
L 391.11336 156.736229 
L 392.290482 183.029352 
L 393.467605 193.90679 
L 394.644727 208.214019 
L 395.82185 202.873358 
L 396.998972 201.729837 
L 398.176095 191.401842 
L 400.53034 142.074283 
L 402.884585 98.242054 
L 404.061707 71.337169 
L 405.238829 54.817399 
L 406.415952 56.214352 
L 407.593074 41.919187 
L 408.770197 48.799215 
L 409.947319 41.649066 
L 411.124442 50.844102 
L 412.301564 68.319248 
L 413.478687 73.268675 
L 414.655809 75.524429 
L 415.832932 88.452785 
L 417.010054 81.242421 
L 418.187177 75.161659 
L 419.364299 70.065423 
L 420.541422 71.132002 
L 421.718544 71.249877 
L 422.895667 60.202077 
L 424.072789 58.81545 
L 425.249912 55.665224 
L 426.427034 64.318456 
L 427.604157 66.670894 
L 428.781279 74.366647 
L 429.958402 89.27695 
L 431.135524 79.168873 
L 432.312647 85.082557 
L 433.489769 80.254008 
L 434.666892 69.241818 
L 435.844014 65.132491 
L 437.021137 50.616953 
L 439.375382 34.597337 
L 440.552504 28.332744 
L 441.729627 39.573183 
L 442.906749 48.485303 
L 444.083872 84.232179 
L 445.260994 100.438301 
L 446.438117 126.741049 
L 447.615239 161.382031 
L 448.792362 186.922615 
L 449.969484 197.346006 
L 451.146607 212.614213 
L 452.323729 217.12245 
L 453.500852 195.113566 
L 455.855097 158.704831 
L 458.209342 95.452374 
L 460.563587 56.218653 
L 461.740709 64.721421 
L 462.917832 53.597442 
L 464.094954 63.824178 
L 465.272077 90.976081 
L 466.449199 124.185535 
L 467.626322 152.223988 
L 468.803444 175.360846 
L 469.980567 196.070606 
L 471.157689 219.171668 
L 472.334812 220.393078 
L 474.689057 193.901714 
L 477.043302 138.305087 
L 478.220424 113.966377 
L 479.397547 84.361723 
L 481.751792 34.704677 
L 482.928914 27.450339 
L 484.106037 18.25554 
L 485.283159 26.432363 
L 486.460282 30.015279 
L 487.637404 45.615575 
L 488.814527 51.747485 
L 489.991649 76.352325 
L 491.168772 87.825245 
L 492.345894 110.460366 
L 493.523017 125.220983 
L 494.700139 148.818402 
L 497.054384 173.157701 
L 499.408629 186.224206 
L 500.585751 202.448345 
L 501.762874 216.123424 
L 502.939996 212.288968 
L 504.117119 210.165587 
L 505.294241 214.660018 
L 506.471364 213.308336 
L 507.648486 204.811542 
L 508.825609 205.334589 
L 510.002731 199.843261 
L 511.179854 191.911439 
L 512.356976 186.699425 
L 513.534099 178.809364 
L 514.711221 178.765128 
L 515.888344 187.361375 
L 517.065466 182.691467 
L 518.242589 199.482173 
L 519.419711 199.18076 
L 520.596834 207.253921 
L 521.773956 225.611717 
L 522.951079 227.859287 
L 524.128201 233.13792 
L 525.305324 233.92432 
L 526.482446 221.528332 
L 528.836691 184.495405 
L 530.013814 160.564316 
L 531.190936 130.777791 
L 532.368059 104.775921 
L 533.545181 95.043181 
L 534.722304 61.242275 
L 535.899426 60.399686 
L 537.076549 62.959503 
L 538.253671 66.050641 
L 539.430794 78.099751 
L 540.607916 99.317183 
L 541.785039 122.922847 
L 542.962161 164.086184 
L 544.139284 171.247964 
L 545.316406 192.052905 
L 545.316406 192.052905 
" clip-path="url(#pf7d599f6ff)" style="fill: none; stroke: #1f77b4; stroke-linecap: square"/>
   </g>
   <g id="line2d_30">
    <path d="M 75.644531 135.420895 
L 76.821654 132.790817 
L 77.998776 133.858892 
L 79.175899 138.232432 
L 80.353021 135.756761 
L 81.530144 132.627364 
L 82.707266 142.433377 
L 83.884389 136.173572 
L 85.061511 128.780148 
L 86.238634 131.964924 
L 87.415756 129.57114 
L 88.592879 135.300978 
L 89.770001 134.419941 
L 90.947124 128.31939 
L 92.124246 134.911688 
L 93.301369 133.361177 
L 94.478491 131.303133 
L 95.655614 137.478624 
L 96.832736 137.348123 
L 98.009859 144.984326 
L 99.186981 136.466345 
L 100.364104 134.387319 
L 101.541226 129.301378 
L 102.718349 131.383546 
L 103.895471 129.511319 
L 105.072594 120.314366 
L 106.249716 126.447374 
L 107.426839 125.700242 
L 108.603961 130.692169 
L 109.781084 137.727999 
L 110.958206 143.723011 
L 112.135329 148.720432 
L 113.312451 148.819106 
L 114.489574 157.771184 
L 115.666696 145.767358 
L 116.843819 143.518844 
L 118.020941 143.296325 
L 119.198064 117.784934 
L 120.375186 111.013369 
L 121.552309 111.97128 
L 122.729431 80.22944 
L 123.906553 74.451031 
L 125.083676 60.455893 
L 126.260798 62.112065 
L 127.437921 55.558304 
L 128.615043 72.275565 
L 129.792166 78.687263 
L 130.969288 101.529375 
L 132.146411 132.676732 
L 134.500656 168.587241 
L 135.677778 181.060396 
L 136.854901 210.730039 
L 138.032023 218.147773 
L 139.209146 223.717946 
L 140.386268 221.65477 
L 141.563391 216.408834 
L 142.740513 216.519032 
L 143.917636 199.775266 
L 145.094758 200.088968 
L 146.271881 192.625738 
L 147.449003 191.786049 
L 148.626126 192.472374 
L 149.803248 188.547118 
L 150.980371 196.658798 
L 152.157493 196.544317 
L 153.334616 209.725645 
L 154.511738 203.279619 
L 155.688861 200.75457 
L 156.865983 208.748983 
L 158.043106 204.697777 
L 159.220228 202.341208 
L 160.397351 193.488224 
L 161.574473 196.085095 
L 162.751596 183.720797 
L 165.105841 193.691793 
L 166.282963 201.310489 
L 167.460086 215.15818 
L 168.637208 210.412144 
L 169.814331 215.531998 
L 170.991453 219.66971 
L 172.168576 215.213119 
L 173.345698 218.029841 
L 174.522821 206.300235 
L 175.699943 187.192184 
L 178.054188 157.097491 
L 179.231311 136.205116 
L 180.408433 109.287084 
L 182.762678 76.92918 
L 183.939801 57.144091 
L 185.116923 52.432328 
L 186.294046 51.93522 
L 187.471168 58.173012 
L 188.648291 57.998698 
L 189.825413 60.447548 
L 191.002536 65.89865 
L 192.179658 66.774639 
L 193.356781 72.200113 
L 194.533903 79.635641 
L 195.711026 77.891476 
L 196.888148 71.91013 
L 198.065271 63.595413 
L 199.242393 79.590707 
L 200.419516 67.31475 
L 201.596638 59.854853 
L 202.773761 65.783604 
L 203.950883 49.352275 
L 205.128006 66.296689 
L 206.305128 71.470203 
L 207.482251 77.310695 
L 208.659373 81.874443 
L 209.836496 79.390525 
L 211.013618 84.133258 
L 212.190741 78.060417 
L 213.367863 70.39508 
L 214.544986 68.102134 
L 215.722108 53.580129 
L 216.89923 37.354268 
L 218.076353 32.02578 
L 219.253475 36.433108 
L 220.430598 37.549793 
L 221.60772 56.888501 
L 222.784843 84.00196 
L 223.961965 97.842692 
L 225.139088 134.800312 
L 226.31621 150.082884 
L 227.493333 178.869714 
L 228.670455 198.123852 
L 229.847578 209.473691 
L 231.0247 208.027464 
L 232.201823 199.516399 
L 233.378945 186.545104 
L 234.556068 157.891888 
L 235.73319 124.635708 
L 238.087435 84.514382 
L 239.264558 62.434935 
L 240.44168 51.959085 
L 241.618803 48.591704 
L 242.795925 67.51876 
L 243.973048 89.648186 
L 245.15017 109.247332 
L 247.504415 169.489594 
L 248.681538 187.481767 
L 249.85866 211.421486 
L 251.035783 228.793689 
L 252.212905 226.884316 
L 253.390028 229.505963 
L 255.744273 214.888802 
L 256.921395 201.192263 
L 258.098518 199.275135 
L 260.452763 179.776927 
L 261.629885 179.05932 
L 262.807008 185.652321 
L 263.98413 192.957438 
L 265.161253 195.939255 
L 266.338375 212.158767 
L 267.515498 207.134737 
L 268.69262 206.886084 
L 269.869743 209.475672 
L 271.046865 213.938597 
L 272.223988 201.185152 
L 273.40111 194.015943 
L 274.578233 183.097235 
L 275.755355 180.0231 
L 276.932478 183.477073 
L 278.1096 184.887342 
L 279.286723 192.999758 
L 282.81809 224.12129 
L 283.995213 237.675244 
L 285.172335 224.925719 
L 286.349458 231.863702 
L 287.52658 208.042813 
L 288.703703 190.071402 
L 289.880825 161.345472 
L 291.057948 140.693046 
L 292.23507 109.506774 
L 293.412193 94.408012 
L 294.589315 73.416521 
L 295.766438 61.063883 
L 296.94356 54.753399 
L 298.120683 63.119153 
L 299.297805 80.912055 
L 300.474928 107.047918 
L 304.006295 175.447706 
L 306.36054 218.513496 
L 307.537663 207.875612 
L 308.714785 208.274919 
L 309.891908 181.787167 
L 311.06903 162.019798 
L 313.423275 110.373815 
L 314.600397 77.499441 
L 315.77752 65.307018 
L 316.954642 36.482911 
L 318.131765 28.749115 
L 319.308887 23.186102 
L 320.48601 21.863664 
L 321.663132 32.539225 
L 322.840255 36.907692 
L 324.017377 58.762531 
L 325.1945 72.543734 
L 326.371622 91.341353 
L 327.548745 105.694936 
L 328.725867 114.15221 
L 329.90299 138.348409 
L 331.080112 150.509038 
L 332.257235 178.744415 
L 333.434357 184.164831 
L 334.61148 190.135403 
L 335.788602 207.586557 
L 336.965725 206.540554 
L 338.142847 217.845945 
L 339.31997 221.985321 
L 340.497092 226.560791 
L 342.851337 212.39282 
L 344.02846 199.010848 
L 345.205582 183.461718 
L 346.382705 172.039256 
L 347.559827 153.7589 
L 348.73695 139.271914 
L 351.091195 98.30514 
L 352.268317 85.387656 
L 353.44544 64.361311 
L 354.622562 56.942984 
L 355.799685 54.868953 
L 356.976807 34.916934 
L 358.15393 39.225829 
L 359.331052 38.141794 
L 360.508175 34.534954 
L 361.685297 48.082738 
L 362.86242 58.48641 
L 364.039542 75.924422 
L 365.216665 95.512101 
L 366.393787 131.341796 
L 367.57091 136.875686 
L 368.748032 169.128847 
L 369.925155 177.911535 
L 371.102277 204.381987 
L 372.2794 211.167494 
L 373.456522 207.957603 
L 374.633645 206.325522 
L 375.810767 203.379816 
L 376.98789 203.588392 
L 378.165012 191.020944 
L 379.342135 192.558502 
L 380.519257 192.72901 
L 381.69638 189.82805 
L 384.050625 204.257289 
L 385.227747 215.979475 
L 386.40487 215.937954 
L 387.581992 221.731254 
L 388.759115 218.913796 
L 389.936237 219.061846 
L 392.290482 189.083414 
L 393.467605 170.924431 
L 394.644727 144.795417 
L 395.82185 127.037043 
L 398.176095 70.220548 
L 399.353217 56.349616 
L 400.53034 64.078544 
L 401.707462 60.926848 
L 402.884585 70.102462 
L 404.061707 96.930689 
L 405.238829 115.717016 
L 406.415952 145.250737 
L 407.593074 171.772482 
L 408.770197 192.705117 
L 409.947319 205.096627 
L 411.124442 221.150235 
L 412.301564 228.897908 
L 413.478687 222.167912 
L 414.655809 212.13249 
L 415.832932 206.636125 
L 417.010054 205.825888 
L 418.187177 192.997421 
L 419.364299 194.115523 
L 420.541422 196.331557 
L 421.718544 193.59834 
L 422.895667 208.634354 
L 424.072789 197.663203 
L 425.249912 204.88932 
L 426.427034 205.701562 
L 427.604157 211.422489 
L 428.781279 200.704241 
L 429.958402 197.67395 
L 431.135524 189.57735 
L 432.312647 174.956778 
L 433.489769 145.996697 
L 434.666892 133.472589 
L 435.844014 99.993338 
L 437.021137 86.731597 
L 438.198259 60.581852 
L 439.375382 48.095919 
L 440.552504 38.281472 
L 441.729627 30.456424 
L 442.906749 34.693814 
L 444.083872 21.189962 
L 445.260994 41.261402 
L 446.438117 49.96366 
L 447.615239 64.312824 
L 448.792362 85.69521 
L 449.969484 114.169146 
L 451.146607 133.343309 
L 452.323729 160.92677 
L 453.500852 182.186927 
L 454.677974 182.367811 
L 455.855097 201.341475 
L 457.032219 199.124491 
L 458.209342 198.289613 
L 459.386464 185.764554 
L 460.563587 177.024923 
L 461.740709 149.393187 
L 462.917832 128.475717 
L 464.094954 104.88154 
L 465.272077 77.42904 
L 466.449199 60.178969 
L 467.626322 50.194652 
L 468.803444 36.162802 
L 469.980567 26.212425 
L 471.157689 25.519798 
L 472.334812 35.674714 
L 473.511934 47.187272 
L 474.689057 51.7657 
L 477.043302 82.601486 
L 478.220424 106.009985 
L 480.574669 145.931972 
L 481.751792 153.292744 
L 482.928914 177.465224 
L 484.106037 183.008378 
L 485.283159 199.263486 
L 486.460282 200.057937 
L 487.637404 215.170056 
L 488.814527 226.504046 
L 489.991649 228.788835 
L 491.168772 221.930442 
L 492.345894 219.788438 
L 493.523017 217.894506 
L 494.700139 200.789052 
L 495.877262 181.153962 
L 497.054384 168.347598 
L 498.231507 153.046221 
L 499.408629 130.981694 
L 500.585751 111.578113 
L 501.762874 96.656887 
L 502.939996 89.122266 
L 504.117119 65.635037 
L 505.294241 60.973627 
L 506.471364 46.825215 
L 507.648486 35.331173 
L 508.825609 42.152638 
L 510.002731 41.090065 
L 511.179854 41.570901 
L 512.356976 52.492221 
L 513.534099 65.992928 
L 514.711221 82.502145 
L 517.065466 111.775277 
L 518.242589 129.949883 
L 519.419711 159.575992 
L 520.596834 176.535858 
L 521.773956 189.598977 
L 522.951079 200.92274 
L 524.128201 209.676886 
L 525.305324 208.912727 
L 526.482446 217.906074 
L 527.659569 214.241886 
L 528.836691 209.901847 
L 530.013814 212.006054 
L 531.190936 207.399528 
L 532.368059 198.759258 
L 533.545181 198.389527 
L 534.722304 182.894894 
L 535.899426 191.733237 
L 537.076549 186.376683 
L 538.253671 180.164573 
L 539.430794 176.507506 
L 540.607916 182.58824 
L 541.785039 194.646458 
L 542.962161 204.946359 
L 544.139284 218.379654 
L 545.316406 220.202272 
L 545.316406 220.202272 
" clip-path="url(#pf7d599f6ff)" style="fill: none; stroke: #ff7f0e; stroke-linecap: square"/>
   </g>
   <g id="patch_3">
    <path d="M 52.160938 250.421875 
L 52.160938 7.2 
" style="fill: none; stroke: #000000; stroke-width: 0.8; stroke-linejoin: miter; stroke-linecap: square"/>
   </g>
   <g id="patch_4">
    <path d="M 568.8 250.421875 
L 568.8 7.2 
" style="fill: none; stroke: #000000; stroke-width: 0.8; stroke-linejoin: miter; stroke-linecap: square"/>
   </g>
   <g id="patch_5">
    <path d="M 52.160937 250.421875 
L 568.8 250.421875 
" style="fill: none; stroke: #000000; stroke-width: 0.8; stroke-linejoin: miter; stroke-linecap: square"/>
   </g>
   <g id="patch_6">
    <path d="M 52.160937 7.2 
L 568.8 7.2 
" style="fill: none; stroke: #000000; stroke-width: 0.8; stroke-linejoin: miter; stroke-linecap: square"/>
   </g>
   <g id="legend_1">
    <g id="patch_7">
     <path d="M 59.160938 44.55625 
L 116.15625 44.55625 
Q 118.15625 44.55625 118.15625 42.55625 
L 118.15625 14.2 
Q 118.15625 12.2 116.15625 12.2 
L 59.160938 12.2 
Q 57.160938 12.2 57.160938 14.2 
L 57.160938 42.55625 
Q 57.160938 44.55625 59.160938 44.55625 
z
" style="fill: #ffffff; opacity: 0.8; stroke: #cccccc; stroke-linejoin: miter"/>
    </g>
    <g id="line2d_31">
     <path d="M 61.160938 20.298437 
L 71.160938 20.298437 
L 81.160938 20.298437 
" style="fill: none; stroke: #1f77b4; stroke-linecap: square"/>
    </g>
    <g id="text_17">
     <!-- real -->
     <g transform="translate(89.160938 23.798437) scale(0.1 -0.1)">
      <defs>
       <path id="DejaVuSans-72" d="M 2631 2963 
Q 2534 3019 2420 3045 
Q 2306 3072 2169 3072 
Q 1681 3072 1420 2755 
Q 1159 2438 1159 1844 
L 1159 0 
L 581 0 
L 581 3500 
L 1159 3500 
L 1159 2956 
Q 1341 3275 1631 3429 
Q 1922 3584 2338 3584 
Q 2397 3584 2469 3576 
Q 2541 3569 2628 3553 
L 2631 2963 
z
" transform="scale(0.015625)"/>
      </defs>
      <use xlink:href="#DejaVuSans-72"/>
      <use xlink:href="#DejaVuSans-65" transform="translate(38.863281 0)"/>
      <use xlink:href="#DejaVuSans-61" transform="translate(100.386719 0)"/>
      <use xlink:href="#DejaVuSans-6c" transform="translate(161.666016 0)"/>
     </g>
    </g>
    <g id="line2d_32">
     <path d="M 61.160938 34.976562 
L 71.160938 34.976562 
L 81.160938 34.976562 
" style="fill: none; stroke: #ff7f0e; stroke-linecap: square"/>
    </g>
    <g id="text_18">
     <!-- imag -->
     <g transform="translate(89.160938 38.476562) scale(0.1 -0.1)">
      <defs>
       <path id="DejaVuSans-67" d="M 2906 1791 
Q 2906 2416 2648 2759 
Q 2391 3103 1925 3103 
Q 1463 3103 1205 2759 
Q 947 2416 947 1791 
Q 947 1169 1205 825 
Q 1463 481 1925 481 
Q 2391 481 2648 825 
Q 2906 1169 2906 1791 
z
M 3481 434 
Q 3481 -459 3084 -895 
Q 2688 -1331 1869 -1331 
Q 1566 -1331 1297 -1286 
Q 1028 -1241 775 -1147 
L 775 -588 
Q 1028 -725 1275 -790 
Q 1522 -856 1778 -856 
Q 2344 -856 2625 -561 
Q 2906 -266 2906 331 
L 2906 616 
Q 2728 306 2450 153 
Q 2172 0 1784 0 
Q 1141 0 747 490 
Q 353 981 353 1791 
Q 353 2603 747 3093 
Q 1141 3584 1784 3584 
Q 2172 3584 2450 3431 
Q 2728 3278 2906 2969 
L 2906 3500 
L 3481 3500 
L 3481 434 
z
" transform="scale(0.015625)"/>
      </defs>
      <use xlink:href="#DejaVuSans-69"/>
      <use xlink:href="#DejaVuSans-6d" transform="translate(27.783203 0)"/>
      <use xlink:href="#DejaVuSans-61" transform="translate(125.195312 0)"/>
      <use xlink:href="#DejaVuSans-67" transform="translate(186.474609 0)"/>
     </g>
    </g>
   </g>
  </g>
 </g>
 <defs>
  <clipPath id="pf7d599f6ff">
   <rect x="52.160938" y="7.2" width="516.639063" height="243.221875"/>
  </clipPath>
 </defs>
</svg>
