<?xml version="1.0" encoding="utf-8" standalone="no"?>
<!DOCTYPE svg PUBLIC "-//W3C//DTD SVG 1.1//EN"
  "http://www.w3.org/Graphics/SVG/1.1/DTD/svg11.dtd">
<svg xmlns:xlink="http://www.w3.org/1999/xlink" width="576pt" height="288pt" viewBox="0 0 576 288" xmlns="http://www.w3.org/2000/svg" version="1.1">
 <metadata>
  <rdf:RDF xmlns:dc="http://purl.org/dc/elements/1.1/" xmlns:cc="http://creativecommons.org/ns#" xmlns:rdf="http://www.w3.org/1999/02/22-rdf-syntax-ns#">
   <cc:Work>
    <dc:type rdf:resource="http://purl.org/dc/dcmitype/StillImage"/>
    <dc:date>2025-05-10T16:17:41.292139</dc:date>
    <dc:format>image/svg+xml</dc:format>
    <dc:creator>
     <cc:Agent>
      <dc:title>Matplotlib v3.10.3, https://matplotlib.org/</dc:title>
     </cc:Agent>
    </dc:creator>
   </cc:Work>
  </rdf:RDF>
 </metadata>
 <defs>
  <style type="text/css">*{stroke-linejoin: round; stroke-linecap: butt}</style>
 </defs>
 <g id="figure_1">
  <g id="patch_1">
   <path d="M 0 288 
L 576 288 
L 576 0 
L 0 0 
z
" style="fill: #ffffff"/>
  </g>
  <g id="axes_1">
   <g id="patch_2">
    <path d="M 57.167188 250.421875 
L 568.8 250.421875 
L 568.8 24.12 
L 57.167188 24.12 
z
" style="fill: #ffffff"/>
   </g>
   <g id="matplotlib.axis_1">
    <g id="xtick_1">
     <g id="line2d_1">
      <path d="M 80.423224 250.421875 
L 80.423224 24.12 
" clip-path="url(#p0b59820c3c)" style="fill: none; stroke-dasharray: 2.96,1.28; stroke-dashoffset: 0; stroke: #b0b0b0; stroke-opacity: 0.8; stroke-width: 0.8"/>
     </g>
     <g id="line2d_2">
      <defs>
       <path id="mecb475f6e2" d="M 0 0 
L 0 3.5 
" style="stroke: #000000; stroke-width: 0.8"/>
      </defs>
      <g>
       <use xlink:href="#mecb475f6e2" x="80.423224" y="250.421875" style="stroke: #000000; stroke-width: 0.8"/>
      </g>
     </g>
     <g id="text_1">
      <!-- 0 -->
      <g transform="translate(77.241974 265.020312) scale(0.1 -0.1)">
       <defs>
        <path id="DejaVuSans-30" d="M 2034 4250 
Q 1547 4250 1301 3770 
Q 1056 3291 1056 2328 
Q 1056 1369 1301 889 
Q 1547 409 2034 409 
Q 2525 409 2770 889 
Q 3016 1369 3016 2328 
Q 3016 3291 2770 3770 
Q 2525 4250 2034 4250 
z
M 2034 4750 
Q 2819 4750 3233 4129 
Q 3647 3509 3647 2328 
Q 3647 1150 3233 529 
Q 2819 -91 2034 -91 
Q 1250 -91 836 529 
Q 422 1150 422 2328 
Q 422 3509 836 4129 
Q 1250 4750 2034 4750 
z
" transform="scale(0.015625)"/>
       </defs>
       <use xlink:href="#DejaVuSans-30"/>
      </g>
     </g>
    </g>
    <g id="xtick_2">
     <g id="line2d_3">
      <path d="M 173.538305 250.421875 
L 173.538305 24.12 
" clip-path="url(#p0b59820c3c)" style="fill: none; stroke-dasharray: 2.96,1.28; stroke-dashoffset: 0; stroke: #b0b0b0; stroke-opacity: 0.8; stroke-width: 0.8"/>
     </g>
     <g id="line2d_4">
      <g>
       <use xlink:href="#mecb475f6e2" x="173.538305" y="250.421875" style="stroke: #000000; stroke-width: 0.8"/>
      </g>
     </g>
     <g id="text_2">
      <!-- 0.1 -->
      <g transform="translate(165.586742 265.020312) scale(0.1 -0.1)">
       <defs>
        <path id="DejaVuSans-2e" d="M 684 794 
L 1344 794 
L 1344 0 
L 684 0 
L 684 794 
z
" transform="scale(0.015625)"/>
        <path id="DejaVuSans-31" d="M 794 531 
L 1825 531 
L 1825 4091 
L 703 3866 
L 703 4441 
L 1819 4666 
L 2450 4666 
L 2450 531 
L 3481 531 
L 3481 0 
L 794 0 
L 794 531 
z
" transform="scale(0.015625)"/>
       </defs>
       <use xlink:href="#DejaVuSans-30"/>
       <use xlink:href="#DejaVuSans-2e" transform="translate(63.623047 0)"/>
       <use xlink:href="#DejaVuSans-31" transform="translate(95.410156 0)"/>
      </g>
     </g>
    </g>
    <g id="xtick_3">
     <g id="line2d_5">
      <path d="M 266.653385 250.421875 
L 266.653385 24.12 
" clip-path="url(#p0b59820c3c)" style="fill: none; stroke-dasharray: 2.96,1.28; stroke-dashoffset: 0; stroke: #b0b0b0; stroke-opacity: 0.8; stroke-width: 0.8"/>
     </g>
     <g id="line2d_6">
      <g>
       <use xlink:href="#mecb475f6e2" x="266.653385" y="250.421875" style="stroke: #000000; stroke-width: 0.8"/>
      </g>
     </g>
     <g id="text_3">
      <!-- 0.2 -->
      <g transform="translate(258.701823 265.020312) scale(0.1 -0.1)">
       <defs>
        <path id="DejaVuSans-32" d="M 1228 531 
L 3431 531 
L 3431 0 
L 469 0 
L 469 531 
Q 828 903 1448 1529 
Q 2069 2156 2228 2338 
Q 2531 2678 2651 2914 
Q 2772 3150 2772 3378 
Q 2772 3750 2511 3984 
Q 2250 4219 1831 4219 
Q 1534 4219 1204 4116 
Q 875 4013 500 3803 
L 500 4441 
Q 881 4594 1212 4672 
Q 1544 4750 1819 4750 
Q 2544 4750 2975 4387 
Q 3406 4025 3406 3419 
Q 3406 3131 3298 2873 
Q 3191 2616 2906 2266 
Q 2828 2175 2409 1742 
Q 1991 1309 1228 531 
z
" transform="scale(0.015625)"/>
       </defs>
       <use xlink:href="#DejaVuSans-30"/>
       <use xlink:href="#DejaVuSans-2e" transform="translate(63.623047 0)"/>
       <use xlink:href="#DejaVuSans-32" transform="translate(95.410156 0)"/>
      </g>
     </g>
    </g>
    <g id="xtick_4">
     <g id="line2d_7">
      <path d="M 359.768466 250.421875 
L 359.768466 24.12 
" clip-path="url(#p0b59820c3c)" style="fill: none; stroke-dasharray: 2.96,1.28; stroke-dashoffset: 0; stroke: #b0b0b0; stroke-opacity: 0.8; stroke-width: 0.8"/>
     </g>
     <g id="line2d_8">
      <g>
       <use xlink:href="#mecb475f6e2" x="359.768466" y="250.421875" style="stroke: #000000; stroke-width: 0.8"/>
      </g>
     </g>
     <g id="text_4">
      <!-- 0.3 -->
      <g transform="translate(351.816903 265.020312) scale(0.1 -0.1)">
       <defs>
        <path id="DejaVuSans-33" d="M 2597 2516 
Q 3050 2419 3304 2112 
Q 3559 1806 3559 1356 
Q 3559 666 3084 287 
Q 2609 -91 1734 -91 
Q 1441 -91 1130 -33 
Q 819 25 488 141 
L 488 750 
Q 750 597 1062 519 
Q 1375 441 1716 441 
Q 2309 441 2620 675 
Q 2931 909 2931 1356 
Q 2931 1769 2642 2001 
Q 2353 2234 1838 2234 
L 1294 2234 
L 1294 2753 
L 1863 2753 
Q 2328 2753 2575 2939 
Q 2822 3125 2822 3475 
Q 2822 3834 2567 4026 
Q 2313 4219 1838 4219 
Q 1578 4219 1281 4162 
Q 984 4106 628 3988 
L 628 4550 
Q 988 4650 1302 4700 
Q 1616 4750 1894 4750 
Q 2613 4750 3031 4423 
Q 3450 4097 3450 3541 
Q 3450 3153 3228 2886 
Q 3006 2619 2597 2516 
z
" transform="scale(0.015625)"/>
       </defs>
       <use xlink:href="#DejaVuSans-30"/>
       <use xlink:href="#DejaVuSans-2e" transform="translate(63.623047 0)"/>
       <use xlink:href="#DejaVuSans-33" transform="translate(95.410156 0)"/>
      </g>
     </g>
    </g>
    <g id="xtick_5">
     <g id="line2d_9">
      <path d="M 452.883546 250.421875 
L 452.883546 24.12 
" clip-path="url(#p0b59820c3c)" style="fill: none; stroke-dasharray: 2.96,1.28; stroke-dashoffset: 0; stroke: #b0b0b0; stroke-opacity: 0.8; stroke-width: 0.8"/>
     </g>
     <g id="line2d_10">
      <g>
       <use xlink:href="#mecb475f6e2" x="452.883546" y="250.421875" style="stroke: #000000; stroke-width: 0.8"/>
      </g>
     </g>
     <g id="text_5">
      <!-- 0.4 -->
      <g transform="translate(444.931984 265.020312) scale(0.1 -0.1)">
       <defs>
        <path id="DejaVuSans-34" d="M 2419 4116 
L 825 1625 
L 2419 1625 
L 2419 4116 
z
M 2253 4666 
L 3047 4666 
L 3047 1625 
L 3713 1625 
L 3713 1100 
L 3047 1100 
L 3047 0 
L 2419 0 
L 2419 1100 
L 313 1100 
L 313 1709 
L 2253 4666 
z
" transform="scale(0.015625)"/>
       </defs>
       <use xlink:href="#DejaVuSans-30"/>
       <use xlink:href="#DejaVuSans-2e" transform="translate(63.623047 0)"/>
       <use xlink:href="#DejaVuSans-34" transform="translate(95.410156 0)"/>
      </g>
     </g>
    </g>
    <g id="xtick_6">
     <g id="line2d_11">
      <path d="M 545.998627 250.421875 
L 545.998627 24.12 
" clip-path="url(#p0b59820c3c)" style="fill: none; stroke-dasharray: 2.96,1.28; stroke-dashoffset: 0; stroke: #b0b0b0; stroke-opacity: 0.8; stroke-width: 0.8"/>
     </g>
     <g id="line2d_12">
      <g>
       <use xlink:href="#mecb475f6e2" x="545.998627" y="250.421875" style="stroke: #000000; stroke-width: 0.8"/>
      </g>
     </g>
     <g id="text_6">
      <!-- 0.5 -->
      <g transform="translate(538.047064 265.020312) scale(0.1 -0.1)">
       <defs>
        <path id="DejaVuSans-35" d="M 691 4666 
L 3169 4666 
L 3169 4134 
L 1269 4134 
L 1269 2991 
Q 1406 3038 1543 3061 
Q 1681 3084 1819 3084 
Q 2600 3084 3056 2656 
Q 3513 2228 3513 1497 
Q 3513 744 3044 326 
Q 2575 -91 1722 -91 
Q 1428 -91 1123 -41 
Q 819 9 494 109 
L 494 744 
Q 775 591 1075 516 
Q 1375 441 1709 441 
Q 2250 441 2565 725 
Q 2881 1009 2881 1497 
Q 2881 1984 2565 2268 
Q 2250 2553 1709 2553 
Q 1456 2553 1204 2497 
Q 953 2441 691 2322 
L 691 4666 
z
" transform="scale(0.015625)"/>
       </defs>
       <use xlink:href="#DejaVuSans-30"/>
       <use xlink:href="#DejaVuSans-2e" transform="translate(63.623047 0)"/>
       <use xlink:href="#DejaVuSans-35" transform="translate(95.410156 0)"/>
      </g>
     </g>
    </g>
    <g id="text_7">
     <!-- Normalized frequency, $f/f_s$ -->
     <g transform="translate(247.383594 278.7) scale(0.1 -0.1)">
      <defs>
       <path id="DejaVuSans-4e" d="M 628 4666 
L 1478 4666 
L 3547 763 
L 3547 4666 
L 4159 4666 
L 4159 0 
L 3309 0 
L 1241 3903 
L 1241 0 
L 628 0 
L 628 4666 
z
" transform="scale(0.015625)"/>
       <path id="DejaVuSans-6f" d="M 1959 3097 
Q 1497 3097 1228 2736 
Q 959 2375 959 1747 
Q 959 1119 1226 758 
Q 1494 397 1959 397 
Q 2419 397 2687 759 
Q 2956 1122 2956 1747 
Q 2956 2369 2687 2733 
Q 2419 3097 1959 3097 
z
M 1959 3584 
Q 2709 3584 3137 3096 
Q 3566 2609 3566 1747 
Q 3566 888 3137 398 
Q 2709 -91 1959 -91 
Q 1206 -91 779 398 
Q 353 888 353 1747 
Q 353 2609 779 3096 
Q 1206 3584 1959 3584 
z
" transform="scale(0.015625)"/>
       <path id="DejaVuSans-72" d="M 2631 2963 
Q 2534 3019 2420 3045 
Q 2306 3072 2169 3072 
Q 1681 3072 1420 2755 
Q 1159 2438 1159 1844 
L 1159 0 
L 581 0 
L 581 3500 
L 1159 3500 
L 1159 2956 
Q 1341 3275 1631 3429 
Q 1922 3584 2338 3584 
Q 2397 3584 2469 3576 
Q 2541 3569 2628 3553 
L 2631 2963 
z
" transform="scale(0.015625)"/>
       <path id="DejaVuSans-6d" d="M 3328 2828 
Q 3544 3216 3844 3400 
Q 4144 3584 4550 3584 
Q 5097 3584 5394 3201 
Q 5691 2819 5691 2113 
L 5691 0 
L 5113 0 
L 5113 2094 
Q 5113 2597 4934 2840 
Q 4756 3084 4391 3084 
Q 3944 3084 3684 2787 
Q 3425 2491 3425 1978 
L 3425 0 
L 2847 0 
L 2847 2094 
Q 2847 2600 2669 2842 
Q 2491 3084 2119 3084 
Q 1678 3084 1418 2786 
Q 1159 2488 1159 1978 
L 1159 0 
L 581 0 
L 581 3500 
L 1159 3500 
L 1159 2956 
Q 1356 3278 1631 3431 
Q 1906 3584 2284 3584 
Q 2666 3584 2933 3390 
Q 3200 3197 3328 2828 
z
" transform="scale(0.015625)"/>
       <path id="DejaVuSans-61" d="M 2194 1759 
Q 1497 1759 1228 1600 
Q 959 1441 959 1056 
Q 959 750 1161 570 
Q 1363 391 1709 391 
Q 2188 391 2477 730 
Q 2766 1069 2766 1631 
L 2766 1759 
L 2194 1759 
z
M 3341 1997 
L 3341 0 
L 2766 0 
L 2766 531 
Q 2569 213 2275 61 
Q 1981 -91 1556 -91 
Q 1019 -91 701 211 
Q 384 513 384 1019 
Q 384 1609 779 1909 
Q 1175 2209 1959 2209 
L 2766 2209 
L 2766 2266 
Q 2766 2663 2505 2880 
Q 2244 3097 1772 3097 
Q 1472 3097 1187 3025 
Q 903 2953 641 2809 
L 641 3341 
Q 956 3463 1253 3523 
Q 1550 3584 1831 3584 
Q 2591 3584 2966 3190 
Q 3341 2797 3341 1997 
z
" transform="scale(0.015625)"/>
       <path id="DejaVuSans-6c" d="M 603 4863 
L 1178 4863 
L 1178 0 
L 603 0 
L 603 4863 
z
" transform="scale(0.015625)"/>
       <path id="DejaVuSans-69" d="M 603 3500 
L 1178 3500 
L 1178 0 
L 603 0 
L 603 3500 
z
M 603 4863 
L 1178 4863 
L 1178 4134 
L 603 4134 
L 603 4863 
z
" transform="scale(0.015625)"/>
       <path id="DejaVuSans-7a" d="M 353 3500 
L 3084 3500 
L 3084 2975 
L 922 459 
L 3084 459 
L 3084 0 
L 275 0 
L 275 525 
L 2438 3041 
L 353 3041 
L 353 3500 
z
" transform="scale(0.015625)"/>
       <path id="DejaVuSans-65" d="M 3597 1894 
L 3597 1613 
L 953 1613 
Q 991 1019 1311 708 
Q 1631 397 2203 397 
Q 2534 397 2845 478 
Q 3156 559 3463 722 
L 3463 178 
Q 3153 47 2828 -22 
Q 2503 -91 2169 -91 
Q 1331 -91 842 396 
Q 353 884 353 1716 
Q 353 2575 817 3079 
Q 1281 3584 2069 3584 
Q 2775 3584 3186 3129 
Q 3597 2675 3597 1894 
z
M 3022 2063 
Q 3016 2534 2758 2815 
Q 2500 3097 2075 3097 
Q 1594 3097 1305 2825 
Q 1016 2553 972 2059 
L 3022 2063 
z
" transform="scale(0.015625)"/>
       <path id="DejaVuSans-64" d="M 2906 2969 
L 2906 4863 
L 3481 4863 
L 3481 0 
L 2906 0 
L 2906 525 
Q 2725 213 2448 61 
Q 2172 -91 1784 -91 
Q 1150 -91 751 415 
Q 353 922 353 1747 
Q 353 2572 751 3078 
Q 1150 3584 1784 3584 
Q 2172 3584 2448 3432 
Q 2725 3281 2906 2969 
z
M 947 1747 
Q 947 1113 1208 752 
Q 1469 391 1925 391 
Q 2381 391 2643 752 
Q 2906 1113 2906 1747 
Q 2906 2381 2643 2742 
Q 2381 3103 1925 3103 
Q 1469 3103 1208 2742 
Q 947 2381 947 1747 
z
" transform="scale(0.015625)"/>
       <path id="DejaVuSans-20" transform="scale(0.015625)"/>
       <path id="DejaVuSans-66" d="M 2375 4863 
L 2375 4384 
L 1825 4384 
Q 1516 4384 1395 4259 
Q 1275 4134 1275 3809 
L 1275 3500 
L 2222 3500 
L 2222 3053 
L 1275 3053 
L 1275 0 
L 697 0 
L 697 3053 
L 147 3053 
L 147 3500 
L 697 3500 
L 697 3744 
Q 697 4328 969 4595 
Q 1241 4863 1831 4863 
L 2375 4863 
z
" transform="scale(0.015625)"/>
       <path id="DejaVuSans-71" d="M 947 1747 
Q 947 1113 1208 752 
Q 1469 391 1925 391 
Q 2381 391 2643 752 
Q 2906 1113 2906 1747 
Q 2906 2381 2643 2742 
Q 2381 3103 1925 3103 
Q 1469 3103 1208 2742 
Q 947 2381 947 1747 
z
M 2906 525 
Q 2725 213 2448 61 
Q 2172 -91 1784 -91 
Q 1150 -91 751 415 
Q 353 922 353 1747 
Q 353 2572 751 3078 
Q 1150 3584 1784 3584 
Q 2172 3584 2448 3432 
Q 2725 3281 2906 2969 
L 2906 3500 
L 3481 3500 
L 3481 -1331 
L 2906 -1331 
L 2906 525 
z
" transform="scale(0.015625)"/>
       <path id="DejaVuSans-75" d="M 544 1381 
L 544 3500 
L 1119 3500 
L 1119 1403 
Q 1119 906 1312 657 
Q 1506 409 1894 409 
Q 2359 409 2629 706 
Q 2900 1003 2900 1516 
L 2900 3500 
L 3475 3500 
L 3475 0 
L 2900 0 
L 2900 538 
Q 2691 219 2414 64 
Q 2138 -91 1772 -91 
Q 1169 -91 856 284 
Q 544 659 544 1381 
z
M 1991 3584 
L 1991 3584 
z
" transform="scale(0.015625)"/>
       <path id="DejaVuSans-6e" d="M 3513 2113 
L 3513 0 
L 2938 0 
L 2938 2094 
Q 2938 2591 2744 2837 
Q 2550 3084 2163 3084 
Q 1697 3084 1428 2787 
Q 1159 2491 1159 1978 
L 1159 0 
L 581 0 
L 581 3500 
L 1159 3500 
L 1159 2956 
Q 1366 3272 1645 3428 
Q 1925 3584 2291 3584 
Q 2894 3584 3203 3211 
Q 3513 2838 3513 2113 
z
" transform="scale(0.015625)"/>
       <path id="DejaVuSans-63" d="M 3122 3366 
L 3122 2828 
Q 2878 2963 2633 3030 
Q 2388 3097 2138 3097 
Q 1578 3097 1268 2742 
Q 959 2388 959 1747 
Q 959 1106 1268 751 
Q 1578 397 2138 397 
Q 2388 397 2633 464 
Q 2878 531 3122 666 
L 3122 134 
Q 2881 22 2623 -34 
Q 2366 -91 2075 -91 
Q 1284 -91 818 406 
Q 353 903 353 1747 
Q 353 2603 823 3093 
Q 1294 3584 2113 3584 
Q 2378 3584 2631 3529 
Q 2884 3475 3122 3366 
z
" transform="scale(0.015625)"/>
       <path id="DejaVuSans-79" d="M 2059 -325 
Q 1816 -950 1584 -1140 
Q 1353 -1331 966 -1331 
L 506 -1331 
L 506 -850 
L 844 -850 
Q 1081 -850 1212 -737 
Q 1344 -625 1503 -206 
L 1606 56 
L 191 3500 
L 800 3500 
L 1894 763 
L 2988 3500 
L 3597 3500 
L 2059 -325 
z
" transform="scale(0.015625)"/>
       <path id="DejaVuSans-2c" d="M 750 794 
L 1409 794 
L 1409 256 
L 897 -744 
L 494 -744 
L 750 256 
L 750 794 
z
" transform="scale(0.015625)"/>
       <path id="DejaVuSans-Oblique-66" d="M 3059 4863 
L 2969 4384 
L 2419 4384 
Q 2106 4384 1964 4261 
Q 1822 4138 1753 3809 
L 1691 3500 
L 2638 3500 
L 2553 3053 
L 1606 3053 
L 1013 0 
L 434 0 
L 1031 3053 
L 481 3053 
L 563 3500 
L 1113 3500 
L 1159 3744 
Q 1278 4363 1576 4613 
Q 1875 4863 2516 4863 
L 3059 4863 
z
" transform="scale(0.015625)"/>
       <path id="DejaVuSans-2f" d="M 1625 4666 
L 2156 4666 
L 531 -594 
L 0 -594 
L 1625 4666 
z
" transform="scale(0.015625)"/>
       <path id="DejaVuSans-Oblique-73" d="M 3200 3397 
L 3091 2853 
Q 2863 2978 2609 3040 
Q 2356 3103 2088 3103 
Q 1634 3103 1373 2948 
Q 1113 2794 1113 2528 
Q 1113 2219 1719 2053 
Q 1766 2041 1788 2034 
L 1972 1978 
Q 2547 1819 2739 1644 
Q 2931 1469 2931 1166 
Q 2931 609 2489 259 
Q 2047 -91 1331 -91 
Q 1053 -91 747 -37 
Q 441 16 72 128 
L 184 722 
Q 500 559 806 475 
Q 1113 391 1394 391 
Q 1816 391 2080 572 
Q 2344 753 2344 1031 
Q 2344 1331 1650 1516 
L 1591 1531 
L 1394 1581 
Q 956 1697 753 1886 
Q 550 2075 550 2369 
Q 550 2928 970 3256 
Q 1391 3584 2113 3584 
Q 2397 3584 2667 3537 
Q 2938 3491 3200 3397 
z
" transform="scale(0.015625)"/>
      </defs>
      <use xlink:href="#DejaVuSans-4e" transform="translate(0 0.015625)"/>
      <use xlink:href="#DejaVuSans-6f" transform="translate(74.804688 0.015625)"/>
      <use xlink:href="#DejaVuSans-72" transform="translate(135.986328 0.015625)"/>
      <use xlink:href="#DejaVuSans-6d" transform="translate(177.099609 0.015625)"/>
      <use xlink:href="#DejaVuSans-61" transform="translate(274.511719 0.015625)"/>
      <use xlink:href="#DejaVuSans-6c" transform="translate(335.791016 0.015625)"/>
      <use xlink:href="#DejaVuSans-69" transform="translate(363.574219 0.015625)"/>
      <use xlink:href="#DejaVuSans-7a" transform="translate(391.357422 0.015625)"/>
      <use xlink:href="#DejaVuSans-65" transform="translate(443.847656 0.015625)"/>
      <use xlink:href="#DejaVuSans-64" transform="translate(505.371094 0.015625)"/>
      <use xlink:href="#DejaVuSans-20" transform="translate(568.847656 0.015625)"/>
      <use xlink:href="#DejaVuSans-66" transform="translate(600.634766 0.015625)"/>
      <use xlink:href="#DejaVuSans-72" transform="translate(635.839844 0.015625)"/>
      <use xlink:href="#DejaVuSans-65" transform="translate(676.953125 0.015625)"/>
      <use xlink:href="#DejaVuSans-71" transform="translate(738.476562 0.015625)"/>
      <use xlink:href="#DejaVuSans-75" transform="translate(801.953125 0.015625)"/>
      <use xlink:href="#DejaVuSans-65" transform="translate(865.332031 0.015625)"/>
      <use xlink:href="#DejaVuSans-6e" transform="translate(926.855469 0.015625)"/>
      <use xlink:href="#DejaVuSans-63" transform="translate(990.234375 0.015625)"/>
      <use xlink:href="#DejaVuSans-79" transform="translate(1045.214844 0.015625)"/>
      <use xlink:href="#DejaVuSans-2c" transform="translate(1104.394531 0.015625)"/>
      <use xlink:href="#DejaVuSans-20" transform="translate(1136.181641 0.015625)"/>
      <use xlink:href="#DejaVuSans-Oblique-66" transform="translate(1167.96875 0.015625)"/>
      <use xlink:href="#DejaVuSans-2f" transform="translate(1203.173828 0.015625)"/>
      <use xlink:href="#DejaVuSans-Oblique-66" transform="translate(1236.865234 0.015625)"/>
      <use xlink:href="#DejaVuSans-Oblique-73" transform="translate(1272.070312 -16.390625) scale(0.7)"/>
     </g>
    </g>
   </g>
   <g id="matplotlib.axis_2">
    <g id="ytick_1">
     <g id="line2d_13">
      <path d="M 57.167188 250.284219 
L 568.8 250.284219 
" clip-path="url(#p0b59820c3c)" style="fill: none; stroke-dasharray: 2.96,1.28; stroke-dashoffset: 0; stroke: #b0b0b0; stroke-opacity: 0.8; stroke-width: 0.8"/>
     </g>
     <g id="line2d_14">
      <defs>
       <path id="me4041fa61b" d="M 0 0 
L -3.5 0 
" style="stroke: #000000; stroke-width: 0.8"/>
      </defs>
      <g>
       <use xlink:href="#me4041fa61b" x="57.167188" y="250.284219" style="stroke: #000000; stroke-width: 0.8"/>
      </g>
     </g>
     <g id="text_8">
      <!-- −120 -->
      <g transform="translate(22.7 254.083438) scale(0.1 -0.1)">
       <defs>
        <path id="DejaVuSans-2212" d="M 678 2272 
L 4684 2272 
L 4684 1741 
L 678 1741 
L 678 2272 
z
" transform="scale(0.015625)"/>
       </defs>
       <use xlink:href="#DejaVuSans-2212"/>
       <use xlink:href="#DejaVuSans-31" transform="translate(83.789062 0)"/>
       <use xlink:href="#DejaVuSans-32" transform="translate(147.412109 0)"/>
       <use xlink:href="#DejaVuSans-30" transform="translate(211.035156 0)"/>
      </g>
     </g>
    </g>
    <g id="ytick_2">
     <g id="line2d_15">
      <path d="M 57.167188 217.337412 
L 568.8 217.337412 
" clip-path="url(#p0b59820c3c)" style="fill: none; stroke-dasharray: 2.96,1.28; stroke-dashoffset: 0; stroke: #b0b0b0; stroke-opacity: 0.8; stroke-width: 0.8"/>
     </g>
     <g id="line2d_16">
      <g>
       <use xlink:href="#me4041fa61b" x="57.167188" y="217.337412" style="stroke: #000000; stroke-width: 0.8"/>
      </g>
     </g>
     <g id="text_9">
      <!-- −100 -->
      <g transform="translate(22.7 221.136631) scale(0.1 -0.1)">
       <use xlink:href="#DejaVuSans-2212"/>
       <use xlink:href="#DejaVuSans-31" transform="translate(83.789062 0)"/>
       <use xlink:href="#DejaVuSans-30" transform="translate(147.412109 0)"/>
       <use xlink:href="#DejaVuSans-30" transform="translate(211.035156 0)"/>
      </g>
     </g>
    </g>
    <g id="ytick_3">
     <g id="line2d_17">
      <path d="M 57.167188 184.390605 
L 568.8 184.390605 
" clip-path="url(#p0b59820c3c)" style="fill: none; stroke-dasharray: 2.96,1.28; stroke-dashoffset: 0; stroke: #b0b0b0; stroke-opacity: 0.8; stroke-width: 0.8"/>
     </g>
     <g id="line2d_18">
      <g>
       <use xlink:href="#me4041fa61b" x="57.167188" y="184.390605" style="stroke: #000000; stroke-width: 0.8"/>
      </g>
     </g>
     <g id="text_10">
      <!-- −80 -->
      <g transform="translate(29.0625 188.189824) scale(0.1 -0.1)">
       <defs>
        <path id="DejaVuSans-38" d="M 2034 2216 
Q 1584 2216 1326 1975 
Q 1069 1734 1069 1313 
Q 1069 891 1326 650 
Q 1584 409 2034 409 
Q 2484 409 2743 651 
Q 3003 894 3003 1313 
Q 3003 1734 2745 1975 
Q 2488 2216 2034 2216 
z
M 1403 2484 
Q 997 2584 770 2862 
Q 544 3141 544 3541 
Q 544 4100 942 4425 
Q 1341 4750 2034 4750 
Q 2731 4750 3128 4425 
Q 3525 4100 3525 3541 
Q 3525 3141 3298 2862 
Q 3072 2584 2669 2484 
Q 3125 2378 3379 2068 
Q 3634 1759 3634 1313 
Q 3634 634 3220 271 
Q 2806 -91 2034 -91 
Q 1263 -91 848 271 
Q 434 634 434 1313 
Q 434 1759 690 2068 
Q 947 2378 1403 2484 
z
M 1172 3481 
Q 1172 3119 1398 2916 
Q 1625 2713 2034 2713 
Q 2441 2713 2670 2916 
Q 2900 3119 2900 3481 
Q 2900 3844 2670 4047 
Q 2441 4250 2034 4250 
Q 1625 4250 1398 4047 
Q 1172 3844 1172 3481 
z
" transform="scale(0.015625)"/>
       </defs>
       <use xlink:href="#DejaVuSans-2212"/>
       <use xlink:href="#DejaVuSans-38" transform="translate(83.789062 0)"/>
       <use xlink:href="#DejaVuSans-30" transform="translate(147.412109 0)"/>
      </g>
     </g>
    </g>
    <g id="ytick_4">
     <g id="line2d_19">
      <path d="M 57.167188 151.443797 
L 568.8 151.443797 
" clip-path="url(#p0b59820c3c)" style="fill: none; stroke-dasharray: 2.96,1.28; stroke-dashoffset: 0; stroke: #b0b0b0; stroke-opacity: 0.8; stroke-width: 0.8"/>
     </g>
     <g id="line2d_20">
      <g>
       <use xlink:href="#me4041fa61b" x="57.167188" y="151.443797" style="stroke: #000000; stroke-width: 0.8"/>
      </g>
     </g>
     <g id="text_11">
      <!-- −60 -->
      <g transform="translate(29.0625 155.243016) scale(0.1 -0.1)">
       <defs>
        <path id="DejaVuSans-36" d="M 2113 2584 
Q 1688 2584 1439 2293 
Q 1191 2003 1191 1497 
Q 1191 994 1439 701 
Q 1688 409 2113 409 
Q 2538 409 2786 701 
Q 3034 994 3034 1497 
Q 3034 2003 2786 2293 
Q 2538 2584 2113 2584 
z
M 3366 4563 
L 3366 3988 
Q 3128 4100 2886 4159 
Q 2644 4219 2406 4219 
Q 1781 4219 1451 3797 
Q 1122 3375 1075 2522 
Q 1259 2794 1537 2939 
Q 1816 3084 2150 3084 
Q 2853 3084 3261 2657 
Q 3669 2231 3669 1497 
Q 3669 778 3244 343 
Q 2819 -91 2113 -91 
Q 1303 -91 875 529 
Q 447 1150 447 2328 
Q 447 3434 972 4092 
Q 1497 4750 2381 4750 
Q 2619 4750 2861 4703 
Q 3103 4656 3366 4563 
z
" transform="scale(0.015625)"/>
       </defs>
       <use xlink:href="#DejaVuSans-2212"/>
       <use xlink:href="#DejaVuSans-36" transform="translate(83.789062 0)"/>
       <use xlink:href="#DejaVuSans-30" transform="translate(147.412109 0)"/>
      </g>
     </g>
    </g>
    <g id="ytick_5">
     <g id="line2d_21">
      <path d="M 57.167188 118.49699 
L 568.8 118.49699 
" clip-path="url(#p0b59820c3c)" style="fill: none; stroke-dasharray: 2.96,1.28; stroke-dashoffset: 0; stroke: #b0b0b0; stroke-opacity: 0.8; stroke-width: 0.8"/>
     </g>
     <g id="line2d_22">
      <g>
       <use xlink:href="#me4041fa61b" x="57.167188" y="118.49699" style="stroke: #000000; stroke-width: 0.8"/>
      </g>
     </g>
     <g id="text_12">
      <!-- −40 -->
      <g transform="translate(29.0625 122.296209) scale(0.1 -0.1)">
       <use xlink:href="#DejaVuSans-2212"/>
       <use xlink:href="#DejaVuSans-34" transform="translate(83.789062 0)"/>
       <use xlink:href="#DejaVuSans-30" transform="translate(147.412109 0)"/>
      </g>
     </g>
    </g>
    <g id="ytick_6">
     <g id="line2d_23">
      <path d="M 57.167188 85.550183 
L 568.8 85.550183 
" clip-path="url(#p0b59820c3c)" style="fill: none; stroke-dasharray: 2.96,1.28; stroke-dashoffset: 0; stroke: #b0b0b0; stroke-opacity: 0.8; stroke-width: 0.8"/>
     </g>
     <g id="line2d_24">
      <g>
       <use xlink:href="#me4041fa61b" x="57.167188" y="85.550183" style="stroke: #000000; stroke-width: 0.8"/>
      </g>
     </g>
     <g id="text_13">
      <!-- −20 -->
      <g transform="translate(29.0625 89.349401) scale(0.1 -0.1)">
       <use xlink:href="#DejaVuSans-2212"/>
       <use xlink:href="#DejaVuSans-32" transform="translate(83.789062 0)"/>
       <use xlink:href="#DejaVuSans-30" transform="translate(147.412109 0)"/>
      </g>
     </g>
    </g>
    <g id="ytick_7">
     <g id="line2d_25">
      <path d="M 57.167188 52.603375 
L 568.8 52.603375 
" clip-path="url(#p0b59820c3c)" style="fill: none; stroke-dasharray: 2.96,1.28; stroke-dashoffset: 0; stroke: #b0b0b0; stroke-opacity: 0.8; stroke-width: 0.8"/>
     </g>
     <g id="line2d_26">
      <g>
       <use xlink:href="#me4041fa61b" x="57.167188" y="52.603375" style="stroke: #000000; stroke-width: 0.8"/>
      </g>
     </g>
     <g id="text_14">
      <!-- 0 -->
      <g transform="translate(43.804688 56.402594) scale(0.1 -0.1)">
       <use xlink:href="#DejaVuSans-30"/>
      </g>
     </g>
    </g>
    <g id="text_15">
     <!-- Power (dB), $|H(\omega)|^2$ -->
     <g transform="translate(16.3 185.470937) rotate(-90) scale(0.1 -0.1)">
      <defs>
       <path id="DejaVuSans-50" d="M 1259 4147 
L 1259 2394 
L 2053 2394 
Q 2494 2394 2734 2622 
Q 2975 2850 2975 3272 
Q 2975 3691 2734 3919 
Q 2494 4147 2053 4147 
L 1259 4147 
z
M 628 4666 
L 2053 4666 
Q 2838 4666 3239 4311 
Q 3641 3956 3641 3272 
Q 3641 2581 3239 2228 
Q 2838 1875 2053 1875 
L 1259 1875 
L 1259 0 
L 628 0 
L 628 4666 
z
" transform="scale(0.015625)"/>
       <path id="DejaVuSans-77" d="M 269 3500 
L 844 3500 
L 1563 769 
L 2278 3500 
L 2956 3500 
L 3675 769 
L 4391 3500 
L 4966 3500 
L 4050 0 
L 3372 0 
L 2619 2869 
L 1863 0 
L 1184 0 
L 269 3500 
z
" transform="scale(0.015625)"/>
       <path id="DejaVuSans-28" d="M 1984 4856 
Q 1566 4138 1362 3434 
Q 1159 2731 1159 2009 
Q 1159 1288 1364 580 
Q 1569 -128 1984 -844 
L 1484 -844 
Q 1016 -109 783 600 
Q 550 1309 550 2009 
Q 550 2706 781 3412 
Q 1013 4119 1484 4856 
L 1984 4856 
z
" transform="scale(0.015625)"/>
       <path id="DejaVuSans-42" d="M 1259 2228 
L 1259 519 
L 2272 519 
Q 2781 519 3026 730 
Q 3272 941 3272 1375 
Q 3272 1813 3026 2020 
Q 2781 2228 2272 2228 
L 1259 2228 
z
M 1259 4147 
L 1259 2741 
L 2194 2741 
Q 2656 2741 2882 2914 
Q 3109 3088 3109 3444 
Q 3109 3797 2882 3972 
Q 2656 4147 2194 4147 
L 1259 4147 
z
M 628 4666 
L 2241 4666 
Q 2963 4666 3353 4366 
Q 3744 4066 3744 3513 
Q 3744 3084 3544 2831 
Q 3344 2578 2956 2516 
Q 3422 2416 3680 2098 
Q 3938 1781 3938 1306 
Q 3938 681 3513 340 
Q 3088 0 2303 0 
L 628 0 
L 628 4666 
z
" transform="scale(0.015625)"/>
       <path id="DejaVuSans-29" d="M 513 4856 
L 1013 4856 
Q 1481 4119 1714 3412 
Q 1947 2706 1947 2009 
Q 1947 1309 1714 600 
Q 1481 -109 1013 -844 
L 513 -844 
Q 928 -128 1133 580 
Q 1338 1288 1338 2009 
Q 1338 2731 1133 3434 
Q 928 4138 513 4856 
z
" transform="scale(0.015625)"/>
       <path id="DejaVuSans-7c" d="M 1344 4891 
L 1344 -1509 
L 813 -1509 
L 813 4891 
L 1344 4891 
z
" transform="scale(0.015625)"/>
       <path id="DejaVuSans-Oblique-48" d="M 1081 4666 
L 1716 4666 
L 1344 2753 
L 3634 2753 
L 4006 4666 
L 4641 4666 
L 3731 0 
L 3097 0 
L 3531 2222 
L 1241 2222 
L 806 0 
L 172 0 
L 1081 4666 
z
" transform="scale(0.015625)"/>
       <path id="DejaVuSans-Oblique-3c9" d="M 1369 -91 
Q 72 -91 434 1766 
Q 575 2500 1256 3500 
L 1875 3500 
Q 1231 2500 1088 1750 
Q 819 397 1519 397 
Q 2166 397 2478 2078 
L 3009 2078 
Q 2669 388 3316 397 
Q 4013 403 4275 1750 
Q 4419 2500 4169 3500 
L 4788 3500 
Q 5075 2500 4934 1766 
Q 4578 -94 3278 -91 
Q 2428 -88 2503 844 
Q 2194 -91 1369 -91 
z
" transform="scale(0.015625)"/>
      </defs>
      <use xlink:href="#DejaVuSans-50" transform="translate(0 0.765625)"/>
      <use xlink:href="#DejaVuSans-6f" transform="translate(60.302734 0.765625)"/>
      <use xlink:href="#DejaVuSans-77" transform="translate(121.484375 0.765625)"/>
      <use xlink:href="#DejaVuSans-65" transform="translate(203.271484 0.765625)"/>
      <use xlink:href="#DejaVuSans-72" transform="translate(264.794922 0.765625)"/>
      <use xlink:href="#DejaVuSans-20" transform="translate(305.908203 0.765625)"/>
      <use xlink:href="#DejaVuSans-28" transform="translate(337.695312 0.765625)"/>
      <use xlink:href="#DejaVuSans-64" transform="translate(376.708984 0.765625)"/>
      <use xlink:href="#DejaVuSans-42" transform="translate(440.185547 0.765625)"/>
      <use xlink:href="#DejaVuSans-29" transform="translate(508.789062 0.765625)"/>
      <use xlink:href="#DejaVuSans-2c" transform="translate(547.802734 0.765625)"/>
      <use xlink:href="#DejaVuSans-20" transform="translate(579.589844 0.765625)"/>
      <use xlink:href="#DejaVuSans-7c" transform="translate(611.376953 0.765625)"/>
      <use xlink:href="#DejaVuSans-Oblique-48" transform="translate(645.068359 0.765625)"/>
      <use xlink:href="#DejaVuSans-28" transform="translate(720.263672 0.765625)"/>
      <use xlink:href="#DejaVuSans-Oblique-3c9" transform="translate(759.277344 0.765625)"/>
      <use xlink:href="#DejaVuSans-29" transform="translate(843.017578 0.765625)"/>
      <use xlink:href="#DejaVuSans-7c" transform="translate(882.03125 0.765625)"/>
      <use xlink:href="#DejaVuSans-32" transform="translate(916.679688 39.046875) scale(0.7)"/>
     </g>
    </g>
   </g>
   <g id="line2d_27">
    <path d="M 80.423224 37.241744 
L 83.605869 37.117072 
L 86.788513 36.767168 
L 91.335148 36.011823 
L 98.1551 34.853269 
L 101.792408 34.484436 
L 104.520389 34.407389 
L 107.24837 34.541894 
L 109.976351 34.919883 
L 112.249668 35.442592 
L 114.522985 36.172919 
L 116.796303 37.129881 
L 119.06962 38.335181 
L 121.342938 39.814894 
L 123.616255 41.601826 
L 125.434909 43.281069 
L 127.253563 45.213365 
L 129.072217 47.437478 
L 130.890871 50.006966 
L 132.709524 52.999338 
L 134.528178 56.533717 
L 135.892169 59.654715 
L 137.256159 63.32877 
L 138.62015 67.799325 
L 139.529477 71.443617 
L 140.438804 75.927105 
L 141.348131 81.840408 
L 141.802794 85.747455 
L 142.257458 90.831574 
L 142.712121 98.267541 
L 143.166784 113.109674 
L 143.621448 117.803373 
L 144.076111 100.94661 
L 144.530775 93.788073 
L 144.985438 89.30665 
L 145.894765 83.680294 
L 146.804092 80.196983 
L 147.713419 77.848076 
L 148.622746 76.219084 
L 149.532073 75.100585 
L 150.4414 74.373601 
L 151.350727 73.965705 
L 152.260054 73.831311 
L 153.169381 73.941878 
L 154.078708 74.280761 
L 154.988035 74.840542 
L 155.897362 75.62188 
L 156.806689 76.63351 
L 157.716016 77.893401 
L 158.625343 79.431426 
L 159.53467 81.294506 
L 160.443997 83.556387 
L 161.353324 86.337287 
L 162.262651 89.847622 
L 163.171978 94.502042 
L 163.626641 97.522336 
L 164.081304 101.305843 
L 164.535968 106.372703 
L 164.990631 114.097471 
L 165.445295 131.33742 
L 165.899958 127.833292 
L 166.354622 113.455134 
L 166.809285 106.611195 
L 167.263949 102.144477 
L 168.173276 96.311788 
L 169.082603 92.527089 
L 169.99193 89.849639 
L 170.901257 87.8845 
L 171.810584 86.42929 
L 172.719911 85.367617 
L 173.629238 84.627679 
L 174.538565 84.163465 
L 175.447891 83.945319 
L 176.357218 83.95489 
L 177.266545 84.182417 
L 178.175872 84.625401 
L 179.085199 85.288271 
L 179.994526 86.182937 
L 180.903853 87.330412 
L 181.81318 88.763972 
L 182.722507 90.53502 
L 183.631834 92.724172 
L 184.541161 95.463784 
L 185.450488 98.989205 
L 186.359815 103.777441 
L 186.814478 106.96063 
L 187.269142 111.04915 
L 187.723805 116.752359 
L 188.178469 126.24675 
L 188.633132 164.128682 
L 189.087796 128.696138 
L 189.542459 118.342702 
L 189.997123 112.517284 
L 190.90645 105.441891 
L 191.815777 101.017824 
L 192.725104 97.912618 
L 193.634431 95.618796 
L 194.543758 93.889289 
L 195.453085 92.586246 
L 196.362411 91.626098 
L 197.271738 90.955666 
L 198.181065 90.540468 
L 199.090392 90.358565 
L 199.999719 90.397212 
L 200.909046 90.651114 
L 201.818373 91.121735 
L 202.7277 91.817487 
L 203.637027 92.754813 
L 204.546354 93.960526 
L 205.455681 95.476134 
L 206.365008 97.365869 
L 207.274335 99.732322 
L 208.183662 102.749858 
L 209.092989 106.746698 
L 210.002316 112.456381 
L 210.456979 116.50912 
L 210.911643 122.177297 
L 211.366306 131.638669 
L 211.82097 169.556869 
L 212.275633 134.00571 
L 212.730297 123.620819 
L 213.18496 117.761955 
L 214.094287 110.619255 
L 215.003614 106.128543 
L 215.912941 102.957653 
L 216.822268 100.59917 
L 217.731595 98.806032 
L 218.640922 97.440371 
L 219.550249 96.418595 
L 220.459576 95.687488 
L 221.368903 95.212528 
L 222.27823 94.971726 
L 223.187557 94.952279 
L 224.096884 95.148814 
L 225.006211 95.562704 
L 225.915538 96.202233 
L 226.824865 97.083674 
L 227.734192 98.23359 
L 228.643518 99.693113 
L 229.552845 101.525856 
L 230.462172 103.833322 
L 231.371499 106.787724 
L 232.280826 110.712336 
L 233.190153 116.326122 
L 233.644817 120.307203 
L 234.09948 125.857384 
L 234.554144 135.027241 
L 235.008807 167.065659 
L 235.463471 138.601901 
L 235.918134 127.833687 
L 236.372798 121.840855 
L 237.282125 114.568274 
L 238.191452 109.998944 
L 239.100778 106.766639 
L 240.010105 104.354874 
L 240.919432 102.513129 
L 241.828759 101.101932 
L 242.738086 100.036842 
L 243.647413 99.264148 
L 244.55674 98.749022 
L 245.466067 98.469274 
L 246.375394 98.411962 
L 247.284721 98.57162 
L 248.194048 98.949553 
L 249.103375 99.554001 
L 250.012702 100.401209 
L 250.922029 101.517735 
L 251.831356 102.944725 
L 252.740683 104.745844 
L 253.65001 107.022712 
L 254.559337 109.947797 
L 255.468664 113.844984 
L 256.377991 119.435067 
L 256.832654 123.40756 
L 257.287318 128.955147 
L 257.741981 138.144101 
L 258.196645 170.775693 
L 258.651308 141.529282 
L 259.105972 130.794789 
L 259.560635 124.802703 
L 260.469962 117.514089 
L 261.379289 112.922766 
L 262.288616 109.666942 
L 263.197943 107.231309 
L 264.10727 105.365805 
L 265.016597 103.931182 
L 265.925924 102.843127 
L 266.835251 102.048025 
L 267.744578 101.511125 
L 268.653905 101.210319 
L 269.563232 101.132756 
L 270.472558 101.273081 
L 271.381885 101.632747 
L 272.291212 102.220196 
L 273.200539 103.051965 
L 274.109866 104.15504 
L 275.019193 105.571243 
L 275.92852 107.365363 
L 276.837847 109.641025 
L 277.747174 112.574698 
L 278.656501 116.499525 
L 279.565828 122.163731 
L 280.020492 126.218808 
L 280.475155 131.937662 
L 280.929819 141.634206 
L 281.384482 190.57825 
L 281.839145 142.688027 
L 282.293809 132.590354 
L 282.748472 126.793838 
L 283.657799 119.648089 
L 284.567126 115.107978 
L 285.476453 111.873693 
L 286.38578 109.446548 
L 287.295107 107.58284 
L 288.204434 106.146301 
L 289.113761 105.054222 
L 290.023088 104.253955 
L 290.932415 103.711393 
L 291.841742 103.404906 
L 292.751069 103.322045 
L 293.660396 103.457835 
L 294.569723 103.814141 
L 295.47905 104.399894 
L 296.388377 105.23228 
L 297.297704 106.339206 
L 298.207031 107.763899 
L 299.116358 109.57345 
L 300.025685 111.875606 
L 300.935012 114.855059 
L 301.844339 118.864183 
L 302.753665 124.709286 
L 303.208329 128.952191 
L 303.662992 135.056642 
L 304.117656 145.9604 
L 304.572319 174.002646 
L 305.026983 142.476421 
L 305.481646 133.432775 
L 305.93631 127.994113 
L 306.845637 121.133101 
L 307.754964 116.711407 
L 308.664291 113.539924 
L 309.573618 111.150511 
L 310.482945 109.311319 
L 311.392272 107.891674 
L 312.301599 106.811891 
L 313.210925 106.021131 
L 314.120252 105.486486 
L 315.029579 105.187195 
L 315.938906 105.111513 
L 316.848233 105.255115 
L 317.75756 105.620533 
L 318.666887 106.217482 
L 319.576214 107.064153 
L 320.485541 108.189873 
L 321.394868 109.640021 
L 322.304195 111.485233 
L 323.213522 113.839626 
L 324.122849 116.900759 
L 325.032176 121.051657 
L 325.486839 123.774674 
L 325.941503 127.194409 
L 326.396166 131.750466 
L 326.85083 138.527054 
L 327.305493 151.895659 
L 327.760157 160.632037 
L 328.21482 141.431484 
L 328.669484 133.573127 
L 329.124147 128.585098 
L 330.033474 122.107126 
L 330.942801 117.855455 
L 331.852128 114.779729 
L 332.761455 112.45181 
L 333.670782 110.655727 
L 334.580109 109.26841 
L 335.489436 108.214316 
L 336.398763 107.445106 
L 337.30809 106.929527 
L 338.217417 106.648019 
L 339.126744 106.58981 
L 340.036071 106.751459 
L 340.945398 107.136408 
L 341.854725 107.755428 
L 342.764052 108.628072 
L 343.673379 109.785582 
L 344.582706 111.276265 
L 345.492032 113.175604 
L 346.401359 115.606546 
L 347.310686 118.784784 
L 348.220013 123.137743 
L 348.674677 126.029084 
L 349.12934 129.71332 
L 349.584004 134.745699 
L 350.038667 142.636527 
L 350.493331 161.756719 
L 350.947994 153.351864 
L 351.402658 139.975815 
L 351.857321 133.23729 
L 352.311985 128.727412 
L 353.221312 122.684272 
L 354.130639 118.636552 
L 355.039966 115.68018 
L 355.949292 113.431537 
L 356.858619 111.692848 
L 357.767946 110.349918 
L 358.677273 109.332104 
L 359.5866 108.594057 
L 360.495927 108.106516 
L 361.405254 107.851382 
L 362.314581 107.819072 
L 363.223908 108.00723 
L 364.133235 108.420427 
L 365.042562 109.070751 
L 365.951889 109.979462 
L 366.861216 111.180226 
L 367.770543 112.725091 
L 368.67987 114.69581 
L 369.589197 117.226933 
L 370.498524 120.558541 
L 371.407851 125.179954 
L 371.862514 128.300385 
L 372.317178 132.356618 
L 372.771841 138.101182 
L 373.226505 147.919136 
L 373.681168 210.250636 
L 374.135832 148.330374 
L 374.590495 138.365455 
L 375.045159 132.597983 
L 375.954486 125.449945 
L 376.863812 120.885541 
L 377.773139 117.620441 
L 378.682466 115.16018 
L 379.591793 113.262711 
L 380.50112 111.792577 
L 381.410447 110.66755 
L 382.319774 109.835318 
L 383.229101 109.262063 
L 384.138428 108.926434 
L 385.047755 108.816295 
L 385.957082 108.927059 
L 386.866409 109.261085 
L 387.775736 109.827991 
L 388.685063 110.645934 
L 389.59439 111.744279 
L 390.503717 113.168547 
L 391.413044 114.989669 
L 392.322371 117.322372 
L 393.231698 120.365513 
L 394.141025 124.505322 
L 394.595688 127.227911 
L 395.050352 130.654205 
L 395.505015 135.231587 
L 395.959679 142.071063 
L 396.414342 155.739403 
L 396.869006 163.059878 
L 397.323669 144.502504 
L 397.778333 136.7331 
L 398.232996 131.774257 
L 399.142323 125.309411 
L 400.05165 121.051916 
L 400.960977 117.963966 
L 401.870304 115.621156 
L 402.779631 113.809037 
L 403.688958 112.405298 
L 404.598285 111.334835 
L 405.507612 110.549611 
L 406.416939 110.018609 
L 407.326266 109.72249 
L 408.235593 109.650715 
L 409.144919 109.800113 
L 410.054246 110.174477 
L 410.963573 110.785049 
L 411.8729 111.652052 
L 412.782227 112.807739 
L 413.691554 114.302022 
L 414.600881 116.213115 
L 415.510208 118.669036 
L 416.419535 121.896108 
L 417.328862 126.348471 
L 417.783526 129.330482 
L 418.238189 133.165917 
L 418.692853 138.489662 
L 419.147516 147.141551 
L 419.602179 172.746051 
L 420.056843 152.979006 
L 420.511506 141.407207 
L 420.96617 135.139081 
L 421.875497 127.592076 
L 422.784824 122.849095 
L 423.694151 119.477148 
L 424.603478 116.942282 
L 425.512805 114.987434 
L 426.422132 113.470164 
L 427.331459 112.304538 
L 428.240786 111.436072 
L 429.150113 110.829561 
L 430.059439 110.462705 
L 430.968766 110.322661 
L 431.878093 110.404258 
L 432.78742 110.70933 
L 433.696747 111.246944 
L 434.606074 112.03462 
L 435.515401 113.10088 
L 436.424728 114.490018 
L 437.334055 116.270991 
L 438.243382 118.555008 
L 439.152709 121.533833 
L 440.062036 125.576711 
L 440.5167 128.225391 
L 440.971363 131.542309 
L 441.426026 135.935122 
L 441.88069 142.380762 
L 442.335353 154.525964 
L 442.790017 170.015025 
L 443.24468 147.151905 
L 443.699344 138.799993 
L 444.154007 133.605603 
L 445.063334 126.926833 
L 445.972661 122.563954 
L 446.881988 119.409297 
L 447.791315 117.017977 
L 448.700642 115.167354 
L 449.609969 113.731183 
L 450.519296 112.632228 
L 451.428623 111.821178 
L 452.33795 111.266195 
L 453.247277 110.947372 
L 454.156604 110.85374 
L 455.065931 110.981777 
L 455.975258 111.33495 
L 456.884585 111.924163 
L 457.793912 112.769242 
L 458.703239 113.90191 
L 459.612566 115.371297 
L 460.521893 117.254338 
L 461.43122 119.676718 
L 462.340546 122.859907 
L 463.249873 127.245833 
L 463.704537 130.176061 
L 464.1592 133.931963 
L 464.613864 139.111094 
L 465.068527 147.395035 
L 465.523191 169.532679 
L 466.432518 143.013702 
L 466.887181 136.534607 
L 467.341845 132.135939 
L 468.251172 126.183757 
L 469.160499 122.166209 
L 470.069826 119.21735 
L 470.979153 116.965623 
L 471.88848 115.218304 
L 472.797806 113.863719 
L 473.707133 112.832662 
L 474.61646 112.080702 
L 475.525787 111.579236 
L 476.435114 111.310705 
L 477.344441 111.266027 
L 478.253768 111.44338 
L 479.163095 111.847965 
L 480.072422 112.492687 
L 480.981749 113.399944 
L 481.891076 114.605099 
L 482.800403 116.162902 
L 483.70973 118.159752 
L 484.619057 120.738971 
L 485.528384 124.159552 
L 486.437711 128.960592 
L 486.892374 132.248348 
L 487.347038 136.594966 
L 487.801701 142.948303 
L 488.256365 154.773302 
L 488.711028 172.584767 
L 489.165692 148.283685 
L 489.620355 139.77406 
L 490.075019 134.516063 
L 490.984346 127.77688 
L 491.893673 123.381201 
L 492.803 120.203486 
L 493.712327 117.793698 
L 494.621653 115.927156 
L 495.53098 114.476642 
L 496.440307 113.364397 
L 497.349634 112.540806 
L 498.258961 111.973837 
L 499.168288 111.643456 
L 500.077615 111.538608 
L 500.986942 111.655708 
L 501.896269 111.998178 
L 502.805596 112.576886 
L 503.714923 113.411631 
L 504.62425 114.534115 
L 505.533577 115.993447 
L 506.442904 117.866547 
L 507.352231 120.27908 
L 508.261558 123.452487 
L 509.170885 127.828643 
L 509.625548 130.753949 
L 510.080212 134.504842 
L 510.534875 139.678735 
L 510.989539 147.956608 
L 511.444202 170.077897 
L 512.353529 143.566872 
L 512.808193 137.082339 
L 513.262856 132.67871 
L 514.172183 126.717084 
L 515.08151 122.690372 
L 515.990837 119.732509 
L 516.900164 117.471902 
L 517.809491 115.715815 
L 518.718818 114.352571 
L 519.628145 113.312964 
L 520.537472 112.552569 
L 521.446799 112.042795 
L 522.356126 111.766097 
L 523.265453 111.713413 
L 524.17478 111.882948 
L 525.084107 112.279945 
L 525.993433 112.917365 
L 526.90276 113.817694 
L 527.812087 115.016428 
L 528.721414 116.568533 
L 529.630741 118.560787 
L 530.540068 121.137239 
L 531.449395 124.558461 
L 532.358722 129.367783 
L 532.813386 132.666329 
L 533.268049 137.034559 
L 533.722713 143.438684 
L 534.177376 155.457725 
L 534.63204 171.761611 
L 535.086703 148.391908 
L 535.541367 139.975739 
L 535.99603 134.750866 
L 536.905357 128.035319 
L 537.814684 123.645778 
L 538.724011 120.468118 
L 539.633338 118.055591 
L 540.542665 116.18482 
L 541.451992 114.729215 
L 542.361319 113.611357 
L 543.270646 112.781837 
L 544.179973 112.208763 
L 545.0893 111.872202 
L 545.543963 111.788884 
L 545.543963 111.788884 
" clip-path="url(#p0b59820c3c)" style="fill: none; stroke: #1f77b4; stroke-linecap: square"/>
   </g>
   <g id="line2d_28">
    <path d="M 80.423224 36.611225 
L 82.696542 36.51626 
L 85.879186 36.141307 
L 90.425821 35.600146 
L 93.153802 35.542727 
L 95.881783 35.758243 
L 99.973754 36.394669 
L 102.701735 36.73571 
L 104.975052 36.784298 
L 107.24837 36.557358 
L 109.976351 35.996966 
L 114.068322 35.130988 
L 115.886976 34.991958 
L 117.250966 35.070209 
L 118.614957 35.34487 
L 119.978947 35.849892 
L 121.342938 36.618907 
L 122.706928 37.687256 
L 124.070918 39.094687 
L 125.434909 40.889159 
L 126.798899 43.132643 
L 128.16289 45.91089 
L 129.52688 49.351669 
L 130.890871 53.663282 
L 131.800198 57.197986 
L 132.709524 61.486686 
L 133.618851 66.915599 
L 134.528178 74.375438 
L 134.982842 79.582955 
L 135.437505 86.945849 
L 136.346832 113.308449 
L 136.801496 93.251139 
L 137.256159 86.022588 
L 137.710823 81.842604 
L 138.165486 79.097244 
L 138.62015 77.208394 
L 139.074813 75.903907 
L 139.529477 75.03561 
L 139.98414 74.515683 
L 140.438804 74.289691 
L 140.893467 74.323691 
L 141.348131 74.597609 
L 141.802794 75.101817 
L 142.257458 75.835579 
L 143.166784 78.03335 
L 144.076111 81.390673 
L 144.985438 86.435175 
L 145.440102 89.98023 
L 145.894765 94.722012 
L 146.349429 101.756325 
L 146.804092 115.54901 
L 147.258756 123.904642 
L 147.713419 105.406879 
L 148.168083 98.020174 
L 148.622746 93.524962 
L 149.07741 90.424723 
L 149.532073 88.169246 
L 149.986737 86.495454 
L 150.4414 85.258207 
L 150.896064 84.370209 
L 151.350727 83.776244 
L 151.805391 83.44071 
L 152.260054 83.341102 
L 152.714718 83.464489 
L 153.169381 83.805704 
L 153.624044 84.366649 
L 154.078708 85.156533 
L 154.988035 87.505223 
L 155.897362 91.16046 
L 156.352025 93.686223 
L 156.806689 96.909982 
L 157.261352 101.208608 
L 157.716016 107.464718 
L 158.170679 118.763719 
L 158.625343 143.303505 
L 159.080006 114.783644 
L 159.53467 106.19661 
L 159.989333 101.152431 
L 160.443997 97.695773 
L 161.353324 93.262945 
L 162.262651 90.743683 
L 162.717314 89.970591 
L 163.171978 89.462149 
L 163.626641 89.193004 
L 164.081304 89.147819 
L 164.535968 89.319111 
L 164.990631 89.706281 
L 165.445295 90.315524 
L 165.899958 91.160634 
L 166.354622 92.264892 
L 167.263949 95.416038 
L 167.718612 97.607455 
L 168.173276 100.385903 
L 168.627939 104.01813 
L 169.082603 109.063811 
L 169.537266 117.056302 
L 169.99193 136.667044 
L 170.446593 127.587855 
L 170.901257 114.585695 
L 171.35592 108.142051 
L 171.810584 103.95719 
L 172.265247 100.958201 
L 173.174574 96.994629 
L 174.083901 94.710546 
L 174.538565 94.016731 
L 174.993228 93.573619 
L 175.447891 93.361111 
L 175.902555 93.367818 
L 176.357218 93.589543 
L 176.811882 94.028738 
L 177.266545 94.694816 
L 177.721209 95.605385 
L 178.175872 96.788764 
L 178.630536 98.288648 
L 179.085199 100.172748 
L 179.539863 102.549787 
L 179.994526 105.60629 
L 180.44919 109.698825 
L 180.903853 115.64643 
L 181.358517 126.18262 
L 181.81318 161.612716 
L 182.267844 124.208092 
L 182.722507 115.055504 
L 183.177171 109.743779 
L 183.631834 106.101036 
L 184.541161 101.382179 
L 185.450488 98.622411 
L 185.905151 97.736981 
L 186.359815 97.119309 
L 186.814478 96.742995 
L 187.269142 96.591848 
L 187.723805 96.657594 
L 188.178469 96.938804 
L 188.633132 97.440711 
L 189.087796 98.175877 
L 189.542459 99.165883 
L 189.997123 100.444589 
L 190.451786 102.064092 
L 190.90645 104.106011 
L 191.361113 106.704431 
L 191.815777 110.098236 
L 192.27044 114.773443 
L 192.725104 121.983194 
L 193.179767 137.44894 
L 193.634431 138.417223 
L 194.089094 122.574411 
L 194.543758 115.450433 
L 194.998421 110.927122 
L 195.453085 107.707289 
L 196.362411 103.440499 
L 197.271738 100.930103 
L 197.726402 100.136609 
L 198.181065 99.599061 
L 198.635729 99.295601 
L 199.090392 99.213466 
L 199.545056 99.347263 
L 199.999719 99.698275 
L 200.454383 100.274625 
L 200.909046 101.092324 
L 201.36371 102.177527 
L 201.818373 103.570714 
L 202.273037 105.334411 
L 202.7277 107.568175 
L 203.182364 110.440378 
L 203.637027 114.265469 
L 204.091691 119.736648 
L 204.546354 128.961068 
L 205.001018 163.35367 
L 205.455681 131.978594 
L 205.910345 121.474459 
L 206.365008 115.681896 
L 206.819671 111.773597 
L 207.728998 106.738347 
L 208.638325 103.769254 
L 209.092989 102.796734 
L 209.547652 102.098721 
L 210.002316 101.646662 
L 210.456979 101.422798 
L 210.911643 101.417605 
L 211.366306 101.628548 
L 211.82097 102.05975 
L 212.275633 102.722523 
L 212.730297 103.636871 
L 213.18496 104.834457 
L 213.639624 106.364031 
L 214.094287 108.301635 
L 214.548951 110.771068 
L 215.003614 113.989638 
L 215.458278 118.388617 
L 215.912941 125.028753 
L 216.822268 148.12158 
L 217.276931 128.407565 
L 217.731595 120.602654 
L 218.186258 115.775288 
L 218.640922 112.371836 
L 219.550249 107.873807 
L 220.459576 105.20555 
L 220.914239 104.345785 
L 221.368903 103.746924 
L 221.823566 103.385534 
L 222.27823 103.247682 
L 222.732893 103.327008 
L 223.187557 103.623915 
L 223.64222 104.145613 
L 224.096884 104.907049 
L 224.551547 105.932996 
L 225.006211 107.26194 
L 225.460874 108.953273 
L 225.915538 111.101119 
L 226.370201 113.863317 
L 226.824865 117.530579 
L 227.279528 122.728487 
L 227.734192 131.262614 
L 228.188855 156.084946 
L 228.643518 137.589579 
L 229.098182 125.995731 
L 229.552845 119.859845 
L 230.007509 115.771778 
L 230.916836 110.53209 
L 231.826163 107.433713 
L 232.280826 106.408742 
L 232.73549 105.662995 
L 233.190153 105.16648 
L 233.644817 104.90042 
L 234.09948 104.854513 
L 234.554144 105.025562 
L 235.008807 105.41707 
L 235.463471 106.039682 
L 235.918134 106.912604 
L 236.372798 108.066423 
L 236.827461 109.548289 
L 237.282125 111.43163 
L 237.736788 113.835509 
L 238.191452 116.967478 
L 238.646115 121.234744 
L 239.100778 127.617619 
L 239.555442 139.792365 
L 240.010105 154.956267 
L 240.464769 132.38927 
L 240.919432 124.200126 
L 241.374096 119.208548 
L 241.828759 115.707393 
L 242.738086 111.087087 
L 243.647413 108.335611 
L 244.102077 107.441045 
L 244.55674 106.810132 
L 245.011404 106.418659 
L 245.466067 106.252129 
L 245.920731 106.303747 
L 246.375394 106.573539 
L 246.830058 107.068357 
L 247.284721 107.802764 
L 247.739385 108.801056 
L 248.194048 110.101071 
L 248.648712 111.761206 
L 249.103375 113.873895 
L 249.558038 116.593758 
L 250.012702 120.204368 
L 250.467365 125.311454 
L 250.922029 133.636426 
L 251.376692 156.597752 
L 252.286019 129.046977 
L 252.740683 122.787074 
L 253.195346 118.632619 
L 254.104673 113.313663 
L 255.014 110.162047 
L 255.468664 109.114839 
L 255.923327 108.348667 
L 256.377991 107.833086 
L 256.832654 107.549021 
L 257.287318 107.48596 
L 257.741981 107.640558 
L 258.196645 108.016203 
L 258.651308 108.623452 
L 259.105972 109.481439 
L 259.560635 110.620683 
L 260.015298 112.088267 
L 260.469962 113.957541 
L 260.924625 116.34745 
L 261.379289 119.465338 
L 261.833952 123.717922 
L 262.288616 130.083951 
L 262.743279 142.229749 
L 263.197943 157.497142 
L 263.652606 134.850675 
L 264.10727 126.642648 
L 264.561933 121.637225 
L 265.016597 118.12391 
L 265.925924 113.481678 
L 266.835251 110.710323 
L 267.289914 109.806472 
L 267.744578 109.166716 
L 268.199241 108.766867 
L 268.653905 108.592475 
L 269.108568 108.636809 
L 269.563232 108.899993 
L 270.017895 109.389017 
L 270.472558 110.118641 
L 270.927222 111.11346 
L 271.381885 112.411779 
L 271.836549 114.072755 
L 272.291212 116.19017 
L 272.745876 118.921261 
L 273.200539 122.555449 
L 273.655203 127.714762 
L 274.109866 136.189655 
L 274.56453 160.639474 
L 275.019193 142.661793 
L 275.473857 130.978418 
L 275.92852 124.801104 
L 276.383184 120.682003 
L 277.292511 115.391064 
L 278.201838 112.248201 
L 278.656501 111.202678 
L 279.111165 110.437382 
L 279.565828 109.922312 
L 280.020492 109.638731 
L 280.475155 109.576422 
L 280.929819 109.732329 
L 281.384482 110.110163 
L 281.839145 110.720876 
L 282.293809 111.584132 
L 282.748472 112.731221 
L 283.203136 114.210423 
L 283.657799 116.097085 
L 284.112463 118.513826 
L 284.567126 121.675582 
L 285.02179 126.007818 
L 285.476453 132.551735 
L 286.38578 156.488785 
L 286.840444 136.153489 
L 287.295107 128.23032 
L 287.749771 123.334516 
L 288.204434 119.878477 
L 289.113761 115.294437 
L 290.023088 112.55268 
L 290.477752 111.65921 
L 290.932415 111.028379 
L 291.387079 110.636696 
L 291.841742 110.470257 
L 292.296405 110.52282 
L 292.751069 110.794991 
L 293.205732 111.294309 
L 293.660396 112.036225 
L 294.115059 113.046278 
L 294.569723 114.364172 
L 295.024386 116.05132 
L 295.47905 118.205439 
L 295.933713 120.991413 
L 296.388377 124.715875 
L 296.84304 130.049612 
L 297.297704 138.997378 
L 297.752367 169.362391 
L 298.207031 142.954486 
L 298.661694 132.084051 
L 299.116358 126.143013 
L 299.571021 122.136622 
L 300.480348 116.955947 
L 301.389675 113.869311 
L 301.844339 112.843726 
L 302.299002 112.095532 
L 302.753665 111.595868 
L 303.208329 111.326841 
L 303.662992 111.278933 
L 304.117656 111.449732 
L 304.572319 111.843628 
L 305.026983 112.472375 
L 305.481646 113.356682 
L 305.93631 114.529327 
L 306.390973 116.040885 
L 306.845637 117.970553 
L 307.3003 120.44804 
L 307.754964 123.703105 
L 308.209627 128.198501 
L 308.664291 135.104135 
L 309.118954 149.447695 
L 309.573618 153.888014 
L 310.028281 136.635597 
L 310.482945 129.190792 
L 310.937608 124.490792 
L 311.392272 121.142316 
L 312.301599 116.67584 
L 313.210925 114.000854 
L 313.665589 113.132614 
L 314.120252 112.524161 
L 314.574916 112.153206 
L 315.029579 112.006781 
L 315.484243 112.079455 
L 315.938906 112.37264 
L 316.39357 112.894763 
L 316.848233 113.662378 
L 317.302897 114.702533 
L 317.75756 116.057172 
L 318.212224 117.791312 
L 318.666887 120.009021 
L 319.121551 122.887674 
L 319.576214 126.762559 
L 320.030878 132.388351 
L 320.485541 142.167404 
L 320.940205 211.799196 
L 321.394868 142.4405 
L 321.849532 132.601656 
L 322.304195 126.990048 
L 322.758859 123.147839 
L 323.668185 118.135313 
L 324.577512 115.139591 
L 325.032176 114.147489 
L 325.486839 113.428524 
L 325.941503 112.955475 
L 326.396166 112.711665 
L 326.85083 112.688575 
L 327.305493 112.884718 
L 327.760157 113.305457 
L 328.21482 113.963688 
L 328.669484 114.881615 
L 329.124147 116.09415 
L 329.578811 117.655185 
L 330.033474 119.649518 
L 330.488138 122.217322 
L 330.942801 125.610652 
L 331.397465 130.350057 
L 331.852128 137.817123 
L 332.306792 154.953432 
L 332.761455 150.983686 
L 333.216119 136.578692 
L 333.670782 129.700058 
L 334.125446 125.245955 
L 335.034772 119.608401 
L 335.944099 116.268238 
L 336.853426 114.315128 
L 337.30809 113.73904 
L 337.762753 113.398242 
L 338.217417 113.280979 
L 338.67208 113.382886 
L 339.126744 113.706425 
L 339.581407 114.261202 
L 340.036071 115.065239 
L 340.490734 116.147604 
L 340.945398 117.553266 
L 341.400061 119.352165 
L 341.854725 121.657154 
L 342.309388 124.663215 
L 342.764052 128.74717 
L 343.218715 134.79141 
L 343.673379 145.879943 
L 344.128042 170.245719 
L 344.582706 141.501878 
L 345.037369 132.714942 
L 345.492032 127.475081 
L 345.946696 123.826222 
L 346.856023 119.018897 
L 347.76535 116.138204 
L 348.220013 115.189349 
L 348.674677 114.508518 
L 349.12934 114.070446 
L 349.584004 113.859927 
L 350.038667 113.869662 
L 350.493331 114.099312 
L 350.947994 114.55545 
L 351.402658 115.25242 
L 351.857321 116.214335 
L 352.311985 117.478865 
L 352.766648 119.104235 
L 353.221312 121.182665 
L 353.675975 123.868446 
L 354.130639 127.4445 
L 354.585302 132.514837 
L 355.039966 140.793791 
L 355.494629 163.581241 
L 356.403956 136.182187 
L 356.858619 129.885754 
L 357.313283 125.700577 
L 358.22261 120.327014 
L 359.131937 117.126121 
L 360.041264 115.267876 
L 360.495927 114.731588 
L 360.950591 114.4281 
L 361.405254 114.347069 
L 361.859918 114.485384 
L 362.314581 114.846767 
L 362.769245 115.442253 
L 363.223908 116.291678 
L 363.678572 117.426631 
L 364.133235 118.895908 
L 364.587899 120.775766 
L 365.042562 123.190536 
L 365.497226 126.358756 
L 365.951889 130.714912 
L 366.406552 137.330842 
L 366.861216 150.498835 
L 367.315879 159.81661 
L 367.770543 140.360569 
L 368.225206 132.54967 
L 368.67987 127.690749 
L 369.134533 124.248775 
L 370.04386 119.668658 
L 370.953187 116.919415 
L 371.407851 116.020833 
L 371.862514 115.384709 
L 372.317178 114.987931 
L 372.771841 114.816928 
L 373.226505 114.865788 
L 373.681168 115.135492 
L 374.135832 115.634043 
L 374.590495 116.377511 
L 375.045159 117.392326 
L 375.499822 118.719556 
L 375.954486 120.422837 
L 376.409149 122.60383 
L 376.863812 125.435187 
L 377.318476 129.24131 
L 377.773139 134.744639 
L 378.227803 144.190336 
L 378.682466 186.5373 
L 379.13713 145.778995 
L 379.591793 135.576064 
L 380.046457 129.837284 
L 380.50112 125.925833 
L 381.410447 120.832387 
L 382.319774 117.78455 
L 382.774438 116.771205 
L 383.229101 116.032917 
L 383.683765 115.54192 
L 384.138428 115.281161 
L 384.593092 115.24184 
L 385.047755 115.422247 
L 385.502419 115.827541 
L 385.957082 116.470422 
L 386.411746 117.372866 
L 386.866409 118.569496 
L 387.321073 120.113776 
L 387.775736 122.089811 
L 388.230399 124.636493 
L 388.685063 128.003145 
L 389.139726 132.70315 
L 389.59439 140.091065 
L 390.049053 156.835266 
L 390.503717 153.835037 
L 390.95838 139.144714 
L 391.413044 132.19608 
L 391.867707 127.706042 
L 392.777034 122.025663 
L 393.686361 118.656237 
L 394.595688 116.679361 
L 395.050352 116.092615 
L 395.505015 115.741773 
L 395.959679 115.615001 
L 396.414342 115.707889 
L 396.869006 116.022884 
L 397.323669 116.569604 
L 397.778333 117.366119 
L 398.232996 118.441587 
L 398.687659 119.841139 
L 399.142323 121.635003 
L 399.596986 123.936573 
L 400.05165 126.941945 
L 400.506313 131.030638 
L 400.960977 137.093605 
L 401.41564 148.264166 
L 401.870304 171.583132 
L 402.324967 143.586329 
L 402.779631 134.847749 
L 403.234294 129.621279 
L 403.688958 125.976205 
L 404.598285 121.166764 
L 405.507612 118.279567 
L 405.962275 117.326963 
L 406.416939 116.642336 
L 406.871602 116.200568 
L 407.326266 115.98658 
L 407.780929 115.993201 
L 408.235593 116.220237 
L 408.690256 116.67444 
L 409.144919 117.370394 
L 409.599583 118.332554 
L 410.054246 119.599113 
L 410.50891 121.229136 
L 410.963573 123.316322 
L 411.418237 126.017822 
L 411.8729 129.622936 
L 412.327564 134.753439 
L 412.782227 143.198804 
L 413.236891 167.600048 
L 413.691554 149.630467 
L 414.146218 137.91731 
L 414.600881 131.713883 
L 415.055545 127.569919 
L 415.964872 122.231763 
L 416.874199 119.044743 
L 417.783526 117.193087 
L 418.238189 116.659033 
L 418.692853 116.357588 
L 419.147516 116.278709 
L 419.602179 116.419575 
L 420.056843 116.784227 
L 420.511506 117.384082 
L 420.96617 118.239486 
L 421.420833 119.382765 
L 421.875497 120.863859 
L 422.33016 122.760948 
L 422.784824 125.201918 
L 423.239487 128.412744 
L 423.694151 132.846621 
L 424.148814 139.639956 
L 424.603478 153.559859 
L 425.058141 159.545092 
L 425.512805 141.618989 
L 425.967468 134.043979 
L 426.422132 129.279425 
L 426.876795 125.887623 
L 427.786122 121.359092 
L 428.695449 118.636221 
L 429.150113 117.746851 
L 429.604776 117.118599 
L 430.059439 116.728972 
L 430.514103 116.564885 
L 430.968766 116.620859 
L 431.42343 116.898313 
L 431.878093 117.405742 
L 432.332757 118.159841 
L 432.78742 119.187904 
L 433.242084 120.532291 
L 433.696747 122.258735 
L 434.151411 124.472616 
L 434.606074 127.353951 
L 435.060738 131.244219 
L 435.515401 136.916711 
L 435.970065 146.867271 
L 436.424728 203.987815 
L 436.879392 146.371719 
L 437.334055 136.70251 
L 437.788719 131.138744 
L 438.243382 127.314101 
L 439.152709 122.307234 
L 440.062036 119.303696 
L 440.5167 118.305961 
L 440.971363 117.580996 
L 441.426026 117.101958 
L 441.88069 116.852485 
L 442.335353 116.824358 
L 442.790017 117.016416 
L 443.24468 117.434405 
L 443.699344 118.091727 
L 444.154007 119.011293 
L 444.608671 120.229076 
L 445.063334 121.800658 
L 445.517998 123.813761 
L 445.972661 126.414109 
L 446.427325 129.865822 
L 446.881988 134.721632 
L 447.336652 142.487605 
L 447.791315 161.497503 
L 448.245979 153.186565 
L 448.700642 139.83594 
L 449.155306 133.194974 
L 449.609969 128.84195 
L 450.519296 123.290235 
L 451.428623 119.984365 
L 452.33795 118.048258 
L 452.792613 117.478062 
L 453.247277 117.14257 
L 453.70194 117.030686 
L 454.156604 117.138661 
L 454.611267 117.469611 
L 455.065931 118.033918 
L 455.520594 118.850621 
L 455.975258 119.950234 
L 456.429921 121.379943 
L 456.884585 123.213366 
L 457.339248 125.570039 
L 457.793912 128.658606 
L 458.248575 132.889072 
L 458.703239 139.251137 
L 459.612566 165.915534 
L 460.067229 143.702407 
L 460.521893 135.515215 
L 460.976556 130.498272 
L 461.43122 126.964442 
L 462.340546 122.273151 
L 463.249873 119.450978 
L 463.704537 118.522397 
L 464.1592 117.858773 
L 464.613864 117.436187 
L 465.068527 117.240476 
L 465.523191 117.265249 
L 465.977854 117.511058 
L 466.432518 117.98547 
L 466.887181 118.704054 
L 467.341845 119.692598 
L 467.796508 120.991246 
L 468.251172 122.662179 
L 468.705835 124.804527 
L 469.160499 127.585996 
L 469.615162 131.319687 
L 470.069826 136.69509 
L 470.524489 145.802467 
L 470.979153 179.383146 
L 471.433816 148.829859 
L 471.88848 138.200875 
L 472.343143 132.318725 
L 472.797806 128.330284 
L 473.707133 123.147523 
L 474.61646 120.042145 
L 475.071124 119.005209 
L 475.525787 118.245332 
L 475.980451 117.734131 
L 476.435114 117.45412 
L 476.889778 117.396164 
L 477.344441 117.558274 
L 477.799105 117.945345 
L 478.253768 118.569793 
L 478.708432 119.453255 
L 479.163095 120.629892 
L 479.617759 122.152475 
L 480.072422 124.103953 
L 480.527086 126.621072 
L 480.981749 129.948572 
L 481.436413 134.587861 
L 481.891076 141.848821 
L 482.34574 157.968229 
L 482.800403 156.621267 
L 483.255066 141.419335 
L 483.70973 134.353263 
L 484.164393 129.805798 
L 485.07372 124.060742 
L 485.983047 120.649325 
L 486.892374 118.638953 
L 487.347038 118.03713 
L 487.801701 117.671923 
L 488.256365 117.531304 
L 488.711028 117.610714 
L 489.165692 117.912475 
L 489.620355 118.446085 
L 490.075019 119.22949 
L 490.529682 120.291696 
L 490.984346 121.677625 
L 491.439009 123.45718 
L 491.893673 125.74319 
L 492.348336 128.730616 
L 492.803 132.796274 
L 493.257663 138.822573 
L 493.712327 149.893709 
L 494.16699 174.237783 
L 494.621653 145.479866 
L 495.076317 136.676255 
L 495.53098 131.419864 
L 495.985644 127.754729 
L 496.894971 122.915732 
L 497.804298 120.004694 
L 498.258961 119.041235 
L 498.713625 118.346234 
L 499.168288 117.894483 
L 499.622952 117.670847 
L 500.077615 117.668128 
L 500.532279 117.886118 
L 500.986942 118.331578 
L 501.441606 119.019118 
L 501.896269 119.973246 
L 502.350933 121.232249 
L 502.805596 122.855354 
L 503.26026 124.936559 
L 503.714923 127.633598 
L 504.169587 131.237092 
L 504.62425 136.37252 
L 505.078913 144.845238 
L 505.533577 169.603746 
L 505.98824 151.056256 
L 506.442904 139.404453 
L 506.897567 133.212425 
L 507.352231 129.069618 
L 508.261558 123.724558 
L 509.170885 120.526612 
L 510.080212 118.662921 
L 510.534875 118.122798 
L 510.989539 117.815373 
L 511.444202 117.730686 
L 511.898866 117.866004 
L 512.353529 118.225471 
L 512.808193 118.820639 
L 513.262856 119.67204 
L 513.71752 120.812278 
L 514.172183 122.291728 
L 514.626847 124.189314 
L 515.08151 126.634301 
L 515.536173 129.855576 
L 515.990837 134.313722 
L 516.4455 141.17108 
L 516.900164 155.395688 
L 517.354827 160.153993 
L 517.809491 142.734684 
L 518.264154 135.239641 
L 518.718818 130.504146 
L 519.628145 124.576747 
L 520.537472 121.06747 
L 521.446799 118.988784 
L 521.901462 118.35797 
L 522.356126 117.965572 
L 522.810789 117.798697 
L 523.265453 117.852044 
L 523.720116 118.127214 
L 524.17478 118.632914 
L 524.629443 119.386115 
L 525.084107 120.414494 
L 525.53877 121.760992 
L 525.993433 123.492292 
L 526.448097 125.715469 
L 526.90276 128.613927 
L 527.357424 132.537071 
L 527.812087 138.282224 
L 528.266751 148.468751 
L 528.721414 190.503433 
L 529.176078 147.040806 
L 529.630741 137.584185 
L 530.085405 132.089069 
L 530.540068 128.296273 
L 531.449395 123.316196 
L 532.358722 120.32139 
L 532.813386 119.325236 
L 533.268049 118.600893 
L 533.722713 118.121921 
L 534.177376 117.872265 
L 534.63204 117.843968 
L 535.086703 118.036117 
L 535.541367 118.454734 
L 535.99603 119.113551 
L 536.450693 120.035924 
L 536.905357 121.258474 
L 537.36002 122.83781 
L 537.814684 124.863412 
L 538.269347 127.484363 
L 538.724011 130.972127 
L 539.178674 135.899317 
L 539.633338 143.851276 
L 540.088001 164.182197 
L 541.451992 133.866764 
L 541.906655 129.570161 
L 542.815982 124.066749 
L 543.725309 120.779844 
L 544.634636 118.852372 
L 545.0893 118.284768 
L 545.543963 117.951343 
L 545.543963 117.951343 
" clip-path="url(#p0b59820c3c)" style="fill: none; stroke: #ff7f0e; stroke-linecap: square"/>
   </g>
   <g id="line2d_29">
    <path d="M 80.423224 36.217299 
L 84.060532 36.097207 
L 87.69784 36.049504 
L 94.517792 36.178745 
L 99.519091 36.021842 
L 106.339043 36.206211 
L 110.885677 35.945068 
L 113.158995 36.130563 
L 115.886976 36.38894 
L 117.70563 36.284378 
L 121.797601 35.772063 
L 122.706928 35.976361 
L 123.616255 36.445993 
L 124.525582 37.250943 
L 125.434909 38.46252 
L 126.344236 40.157954 
L 127.253563 42.42826 
L 128.16289 45.391628 
L 129.072217 49.218483 
L 129.981544 54.185526 
L 130.890871 60.817415 
L 131.800198 70.389808 
L 132.254861 77.4289 
L 132.709524 88.360506 
L 133.164188 125.955274 
L 133.618851 94.72694 
L 134.073515 86.366036 
L 134.528178 82.856046 
L 134.982842 81.463585 
L 135.437505 81.429373 
L 135.892169 82.497832 
L 136.346832 84.650855 
L 136.801496 88.087792 
L 137.256159 93.405193 
L 137.710823 102.513927 
L 138.165486 131.588692 
L 138.62015 108.353003 
L 139.074813 98.259729 
L 139.529477 93.465414 
L 139.98414 90.891307 
L 140.438804 89.686809 
L 140.893467 89.528801 
L 141.348131 90.30879 
L 141.802794 92.058295 
L 142.257458 94.968877 
L 142.712121 99.540849 
L 143.166784 107.220047 
L 143.621448 125.940029 
L 144.076111 119.17022 
L 144.530775 106.2312 
L 144.985438 100.417849 
L 145.440102 97.169497 
L 145.894765 95.402703 
L 146.349429 94.715012 
L 146.804092 94.951234 
L 147.258756 96.09435 
L 147.713419 98.25529 
L 148.168083 101.745635 
L 148.622746 107.366188 
L 149.07741 117.90365 
L 149.532073 150.342801 
L 149.986737 115.830036 
L 150.4414 107.311705 
L 150.896064 102.79961 
L 151.350727 100.193419 
L 151.805391 98.82995 
L 152.260054 98.444822 
L 152.714718 98.949402 
L 153.169381 100.375485 
L 153.624044 102.89408 
L 154.078708 106.937129 
L 154.533371 113.68241 
L 154.988035 128.414967 
L 155.442698 131.556691 
L 155.897362 115.297338 
L 156.352025 108.589112 
L 156.806689 104.802761 
L 157.261352 102.610358 
L 157.716016 101.53692 
L 158.170679 101.391725 
L 158.625343 102.12845 
L 159.080006 103.817792 
L 159.53467 106.690228 
L 159.989333 111.317903 
L 160.443997 119.404632 
L 160.89866 142.430889 
L 161.353324 126.918854 
L 161.807987 115.350197 
L 162.262651 109.733023 
L 162.717314 106.462357 
L 163.171978 104.593957 
L 163.626641 103.765847 
L 164.081304 103.837631 
L 164.535968 104.796693 
L 164.990631 106.750902 
L 165.445295 109.996933 
L 165.899958 115.283942 
L 166.354622 125.120367 
L 166.809285 176.694042 
L 167.263949 124.684973 
L 167.718612 115.552016 
L 168.173276 110.716131 
L 168.627939 107.859168 
L 169.082603 106.27053 
L 169.537266 105.66708 
L 169.99193 105.947787 
L 170.446593 107.130501 
L 170.901257 109.362242 
L 171.35592 113.018362 
L 171.810584 119.084781 
L 172.719911 144.37081 
L 173.174574 123.344842 
L 173.629238 115.784603 
L 174.083901 111.562744 
L 174.538565 109.060655 
L 174.993228 107.726725 
L 175.447891 107.337856 
L 175.902555 107.826531 
L 176.357218 109.240415 
L 176.811882 111.77031 
L 177.266545 115.889385 
L 177.721209 122.916904 
L 178.175872 139.393756 
L 178.630536 136.925105 
L 179.085199 122.438244 
L 179.539863 116.013918 
L 179.994526 112.302393 
L 180.44919 110.117151 
L 180.903853 109.022426 
L 181.358517 108.843557 
L 181.81318 109.54331 
L 182.267844 111.200203 
L 182.722507 114.056062 
L 183.177171 118.710045 
L 183.631834 126.976225 
L 184.086498 152.393186 
L 184.541161 132.924604 
L 184.995825 121.78099 
L 185.450488 116.234161 
L 185.905151 112.962207 
L 186.359815 111.067086 
L 186.814478 110.201395 
L 187.269142 110.231235 
L 187.723805 111.148042 
L 188.178469 113.063659 
L 188.633132 116.281353 
L 189.087796 121.568072 
L 189.542459 131.521351 
L 189.997123 173.795527 
L 190.451786 130.317984 
L 190.90645 121.284691 
L 191.361113 116.447401 
L 191.815777 113.563845 
L 192.27044 111.939218 
L 192.725104 111.295912 
L 193.179767 111.535585 
L 193.634431 112.67796 
L 194.089094 114.872193 
L 194.543758 118.497707 
L 194.998421 124.552966 
L 195.907748 149.091531 
L 196.362411 128.451286 
L 196.817075 120.901661 
L 197.271738 116.657529 
L 197.726402 114.123865 
L 198.181065 112.754924 
L 198.635729 112.329875 
L 199.090392 112.782437 
L 199.545056 114.161296 
L 199.999719 116.658677 
L 200.454383 120.750906 
L 200.909046 127.768564 
L 201.36371 144.363095 
L 201.818373 141.445045 
L 202.273037 127.041184 
L 202.7277 120.606348 
L 203.182364 116.870453 
L 203.637027 114.65666 
L 204.091691 113.532 
L 204.546354 113.323039 
L 205.001018 113.993346 
L 205.455681 115.62231 
L 205.910345 118.453275 
L 206.365008 123.089324 
L 206.819671 131.361195 
L 207.274335 157.158314 
L 207.728998 137.044394 
L 208.183662 125.938666 
L 208.638325 120.381959 
L 209.092989 117.090628 
L 209.547652 115.173117 
L 210.002316 114.284163 
L 210.456979 114.290954 
L 210.911643 115.185806 
L 211.366306 117.081743 
L 211.82097 120.284425 
L 212.275633 125.567781 
L 212.730297 135.565405 
L 213.18496 175.290607 
L 213.639624 134.055079 
L 214.094287 125.0572 
L 214.548951 120.217121 
L 215.003614 117.321432 
L 215.458278 115.681484 
L 215.912941 115.021955 
L 216.367605 115.245804 
L 216.822268 116.373969 
L 217.276931 118.557449 
L 217.731595 122.179758 
L 218.186258 128.252679 
L 219.095585 152.081719 
L 219.550249 131.856007 
L 220.004912 124.34535 
L 220.459576 120.105989 
L 220.914239 117.567367 
L 221.368903 116.189962 
L 221.823566 115.755513 
L 222.27823 116.199375 
L 222.732893 117.571963 
L 223.187557 120.068401 
L 223.64222 124.172046 
L 224.096884 131.239406 
L 224.551547 148.182474 
L 225.006211 144.313699 
L 225.460874 130.158549 
L 225.915538 123.767194 
L 226.370201 120.04316 
L 226.824865 117.831154 
L 227.279528 116.70453 
L 227.734192 116.492736 
L 228.188855 117.161398 
L 228.643518 118.792339 
L 229.098182 121.633384 
L 229.552845 126.299497 
L 230.007509 134.672509 
L 230.462172 161.795489 
L 230.916836 139.726272 
L 231.371499 128.807581 
L 231.826163 123.29796 
L 232.280826 120.024566 
L 232.73549 118.114868 
L 233.190153 117.22991 
L 233.644817 117.240049 
L 234.09948 118.14013 
L 234.554144 120.04651 
L 235.008807 123.271555 
L 235.463471 128.608795 
L 235.918134 138.794497 
L 236.372798 173.096056 
L 236.827461 136.559703 
L 237.282125 127.713382 
L 237.736788 122.922094 
L 238.191452 120.049008 
L 238.646115 118.421989 
L 239.100778 117.771824 
L 239.555442 118.004881 
L 240.010105 119.145171 
L 240.464769 121.348228 
L 240.919432 125.007562 
L 241.374096 131.167625 
L 241.828759 144.096233 
L 242.283423 153.474147 
L 242.738086 134.196487 
L 243.19275 126.815495 
L 243.647413 122.626174 
L 244.102077 120.114131 
L 244.55674 118.75426 
L 245.011404 118.334213 
L 245.466067 118.793025 
L 245.920731 120.184866 
L 246.375394 122.711029 
L 246.830058 126.869775 
L 247.284721 134.073165 
L 247.739385 151.821311 
L 248.194048 145.996853 
L 248.648712 132.350902 
L 249.103375 126.073794 
L 249.558038 122.400477 
L 250.012702 120.218319 
L 250.467365 119.113295 
L 250.922029 118.920572 
L 251.376692 119.609759 
L 251.831356 121.267272 
L 252.286019 124.149288 
L 252.740683 128.892973 
L 253.195346 137.477307 
L 253.65001 167.534774 
L 254.104673 141.449142 
L 254.559337 130.870021 
L 255.014 125.462195 
L 255.468664 122.239415 
L 255.923327 120.362105 
L 256.377991 119.502329 
L 256.832654 119.535973 
L 257.287318 120.462242 
L 257.741981 122.403196 
L 258.196645 125.682656 
L 258.651308 131.127957 
L 259.105972 141.657656 
L 259.560635 169.607561 
L 260.015298 138.250573 
L 260.469962 129.657648 
L 260.924625 124.959076 
L 261.379289 122.136635 
L 261.833952 120.544361 
L 262.288616 119.92281 
L 262.743279 120.183798 
L 263.197943 121.356217 
L 263.652606 123.602784 
L 264.10727 127.332913 
L 264.561933 133.643823 
L 265.016597 147.184835 
L 265.47126 153.829019 
L 265.925924 135.833093 
L 266.380587 128.653241 
L 266.835251 124.549355 
L 267.289914 122.087848 
L 267.744578 120.764776 
L 268.199241 120.376543 
L 268.653905 120.867636 
L 269.108568 122.297778 
L 269.563232 124.877405 
L 270.017895 129.127064 
L 270.472558 136.543651 
L 270.927222 155.614048 
L 271.381885 146.902244 
L 271.836549 133.929068 
L 272.291212 127.817424 
L 272.745876 124.22324 
L 273.200539 122.091301 
L 273.655203 121.024889 
L 274.109866 120.867096 
L 274.56453 121.593102 
L 275.019193 123.295804 
L 275.473857 126.243274 
L 275.92852 131.104755 
L 276.383184 140.003977 
L 276.837847 175.950847 
L 277.292511 142.525214 
L 277.747174 132.385569 
L 278.201838 127.118999 
L 278.656501 123.970657 
L 279.111165 122.143582 
L 279.565828 121.32433 
L 280.020492 121.396148 
L 280.475155 122.364105 
L 280.929819 124.358002 
L 281.384482 127.71741 
L 281.839145 133.316993 
L 282.293809 144.342256 
L 282.748472 166.25919 
L 283.203136 139.386676 
L 283.657799 131.112306 
L 284.112463 126.536986 
L 284.567126 123.785041 
L 285.02179 122.24303 
L 285.476453 121.663844 
L 285.931117 121.96627 
L 286.38578 123.185518 
L 286.840444 125.493735 
L 287.295107 129.32149 
L 287.749771 135.837871 
L 288.204434 150.250661 
L 288.659098 153.602108 
L 289.113761 136.986177 
L 289.568425 130.051639 
L 290.023088 126.056932 
L 290.477752 123.662523 
L 290.932415 122.38981 
L 291.387079 122.045865 
L 291.841742 122.581941 
L 292.296405 124.064794 
L 292.751069 126.716648 
L 293.205732 131.087313 
L 293.660396 138.788583 
L 294.115059 159.848688 
L 295.024386 135.073022 
L 295.47905 129.160253 
L 295.933713 125.664926 
L 296.388377 123.597661 
L 296.84304 122.582081 
L 297.297704 122.47076 
L 297.752367 123.24567 
L 298.207031 125.007761 
L 298.661694 128.040154 
L 299.116358 133.053523 
L 299.571021 142.366509 
L 300.025685 194.635434 
L 300.480348 143.161151 
L 300.935012 133.51035 
L 301.389675 128.41 
L 301.844339 125.352175 
L 302.299002 123.587734 
L 302.753665 122.819877 
L 303.208329 122.940458 
L 303.662992 123.961551 
L 304.117656 126.022405 
L 304.572319 129.482164 
L 305.026983 135.27579 
L 305.481646 146.949919 
L 305.93631 163.391136 
L 306.390973 140.136953 
L 306.845637 132.213945 
L 307.3003 127.780818 
L 307.754964 125.112598 
L 308.209627 123.631614 
L 308.664291 123.104642 
L 309.118954 123.458492 
L 309.573618 124.735857 
L 310.028281 127.120313 
L 310.482945 131.06866 
L 310.937608 137.841842 
L 311.392272 153.434424 
L 311.846935 153.053802 
L 312.301599 137.788065 
L 312.756262 131.124278 
L 313.210925 127.254543 
L 313.665589 124.938814 
L 314.120252 123.726195 
L 314.574916 123.435677 
L 315.029579 124.026252 
L 315.484243 125.57293 
L 315.938906 128.312087 
L 316.39357 132.829468 
L 316.848233 140.883541 
L 317.302897 164.922216 
L 317.75756 147.364059 
L 318.212224 135.899342 
L 318.666887 130.203869 
L 319.121551 126.819962 
L 319.576214 124.827157 
L 320.030878 123.870993 
L 320.485541 123.814497 
L 320.940205 124.647325 
L 321.394868 126.479789 
L 321.849532 129.612919 
L 322.304195 134.807961 
L 322.758859 144.634167 
L 323.213522 189.173786 
L 323.668185 143.494877 
L 324.122849 134.345874 
L 324.577512 129.425561 
L 325.032176 126.4685 
L 325.486839 124.775164 
L 325.941503 124.066492 
L 326.396166 124.243755 
L 326.85083 125.326934 
L 327.305493 127.466274 
L 327.760157 131.044278 
L 328.21482 137.07007 
L 329.124147 160.945645 
L 329.578811 140.603116 
L 330.033474 133.045347 
L 330.488138 128.766251 
L 330.942801 126.190835 
L 331.397465 124.778598 
L 331.852128 124.311103 
L 332.306792 124.723937 
L 332.761455 126.068224 
L 333.216119 128.540774 
L 333.670782 132.629513 
L 334.125446 139.708401 
L 334.580109 156.870634 
L 335.034772 152.346936 
L 335.489436 138.330493 
L 335.944099 131.947509 
L 336.398763 128.211869 
L 336.853426 125.98234 
L 337.30809 124.836543 
L 337.762753 124.606058 
L 338.217417 125.258295 
L 338.67208 126.87753 
L 339.126744 129.716474 
L 339.581407 134.403465 
L 340.036071 142.879013 
L 340.490734 171.680656 
L 340.945398 147.218209 
L 341.400061 136.486199 
L 341.854725 131.015936 
L 342.309388 127.750918 
L 342.764052 125.839103 
L 343.218715 124.948496 
L 343.673379 124.953137 
L 344.128042 125.851056 
L 344.582706 127.763136 
L 345.037369 131.011202 
L 345.492032 136.41702 
L 345.946696 146.869109 
L 346.401359 175.667285 
L 346.856023 143.606559 
L 347.310686 134.954273 
L 347.76535 130.221547 
L 348.220013 127.372049 
L 348.674677 125.755846 
L 349.12934 125.112122 
L 349.584004 125.352104 
L 350.038667 126.504416 
L 350.493331 128.731691 
L 350.947994 132.443462 
L 351.402658 138.737666 
L 351.857321 152.269448 
L 352.311985 158.857074 
L 352.766648 140.86055 
L 353.221312 133.666233 
L 353.675975 129.546706 
L 354.130639 127.069559 
L 354.585302 125.731238 
L 355.039966 125.328427 
L 355.494629 125.805969 
L 355.949292 127.224201 
L 356.403956 129.794862 
L 356.858619 134.04198 
L 357.313283 141.476196 
L 357.767946 160.756144 
L 358.22261 151.565079 
L 358.677273 138.674939 
L 359.131937 132.573228 
L 359.5866 128.976414 
L 360.041264 126.837914 
L 360.495927 125.76372 
L 360.950591 125.5983 
L 361.405254 126.317988 
L 361.859918 128.017273 
L 362.314581 130.967443 
L 362.769245 135.846752 
L 363.223908 144.82085 
L 363.678572 183.027079 
L 364.133235 146.921017 
L 364.587899 136.881234 
L 365.042562 131.638663 
L 365.497226 128.497132 
L 365.951889 126.67086 
L 366.406552 125.850336 
L 366.861216 125.920938 
L 367.315879 126.889621 
L 367.770543 128.888928 
L 368.225206 132.264281 
L 368.67987 137.908421 
L 369.134533 149.112852 
L 369.589197 169.182548 
L 370.04386 143.559781 
L 370.498524 135.383891 
L 370.953187 130.840278 
L 371.407851 128.101853 
L 371.862514 126.566596 
L 372.317178 125.991873 
L 372.771841 126.299151 
L 373.226505 127.52629 
L 373.681168 129.849645 
L 374.135832 133.709581 
L 374.590495 140.309319 
L 375.045159 155.139281 
L 375.499822 157.038649 
L 375.954486 140.957613 
L 376.409149 134.116924 
L 376.863812 130.158818 
L 377.318476 127.783214 
L 377.773139 126.522432 
L 378.227803 126.188293 
L 378.682466 126.73523 
L 379.13713 128.23353 
L 379.591793 130.911623 
L 380.046457 135.335145 
L 380.50112 143.179928 
L 380.955784 165.458982 
L 381.865111 138.858416 
L 382.319774 133.033942 
L 382.774438 129.578285 
L 383.229101 127.53402 
L 383.683765 126.534898 
L 384.138428 126.438374 
L 384.593092 127.230094 
L 385.047755 129.015608 
L 385.502419 132.086948 
L 385.957082 137.179931 
L 386.411746 146.736215 
L 386.866409 214.597808 
L 387.321073 146.524738 
L 387.775736 137.124689 
L 388.230399 132.106524 
L 388.685063 129.09003 
L 389.139726 127.351887 
L 389.59439 126.604515 
L 390.049053 126.744717 
L 390.503717 127.788805 
L 390.95838 129.882031 
L 391.413044 133.396371 
L 391.867707 139.307371 
L 392.777034 164.914762 
L 393.231698 143.390945 
L 393.686361 135.666066 
L 394.141025 131.310182 
L 394.595688 128.684612 
L 395.050352 127.232907 
L 395.505015 126.730293 
L 395.959679 127.108655 
L 396.414342 128.415648 
L 396.869006 130.842739 
L 397.323669 134.865333 
L 397.778333 141.811545 
L 398.232996 158.310195 
L 398.687659 155.412431 
L 399.142323 140.923048 
L 399.596986 134.422891 
L 400.05165 130.626047 
L 400.506313 128.3539 
L 400.960977 127.173192 
L 401.41564 126.910717 
L 401.870304 127.530738 
L 402.324967 129.114143 
L 402.779631 131.907749 
L 403.234294 136.524502 
L 403.688958 144.83823 
L 404.143621 171.70582 
L 404.598285 149.902607 
L 405.052948 138.915044 
L 405.507612 133.358371 
L 405.962275 130.043354 
L 406.416939 128.094751 
L 406.871602 127.172908 
L 407.326266 127.148131 
L 407.780929 128.015664 
L 408.235593 129.892946 
L 408.690256 133.095076 
L 409.144919 138.424155 
L 409.599583 148.662706 
L 410.054246 181.028534 
L 410.50891 146.051995 
L 410.963573 137.240503 
L 411.418237 132.441486 
L 411.8729 129.550302 
L 412.327564 127.901962 
L 412.782227 127.230095 
L 413.236891 127.442931 
L 413.691554 128.566551 
L 414.146218 130.760016 
L 414.600881 134.425107 
L 415.055545 140.634067 
L 415.510208 153.853507 
L 415.964872 161.716128 
L 416.419535 143.121605 
L 416.874199 135.821097 
L 417.328862 131.649884 
L 417.783526 129.137776 
L 418.238189 127.771294 
L 418.692853 127.343055 
L 419.147516 127.795443 
L 419.602179 129.186401 
L 420.056843 131.723839 
L 420.511506 135.922527 
L 420.96617 143.257573 
L 421.420833 161.952305 
L 421.875497 153.94562 
L 422.33016 140.785841 
L 422.784824 134.608436 
L 423.239487 130.970047 
L 423.694151 128.801648 
L 424.148814 127.702436 
L 424.603478 127.513797 
L 425.058141 128.209965 
L 425.512805 129.883077 
L 425.967468 132.800178 
L 426.422132 137.628082 
L 426.876795 146.479779 
L 427.331459 181.87678 
L 427.786122 149.054941 
L 428.240786 138.862263 
L 428.695449 133.563201 
L 429.150113 130.38749 
L 429.604776 128.53534 
L 430.059439 127.692453 
L 430.514103 127.741812 
L 430.968766 128.688531 
L 431.42343 130.662803 
L 431.878093 134.005334 
L 432.332757 139.594574 
L 432.78742 150.638417 
L 433.242084 172.125261 
L 433.696747 145.516485 
L 434.151411 137.245141 
L 434.606074 132.658648 
L 435.060738 129.891997 
L 435.515401 128.334303 
L 435.970065 127.73955 
L 436.424728 128.027324 
L 436.879392 129.233818 
L 437.334055 131.532954 
L 437.788719 135.359638 
L 438.243382 141.898218 
L 438.698046 156.481768 
L 439.152709 159.158806 
L 439.607373 142.775606 
L 440.062036 135.869682 
L 440.5167 131.877678 
L 440.971363 129.478167 
L 441.426026 128.197595 
L 441.88069 127.845299 
L 442.335353 128.374165 
L 442.790017 129.852908 
L 443.24468 132.507356 
L 443.699344 136.89665 
L 444.154007 144.670352 
L 444.608671 166.425707 
L 445.517998 140.55728 
L 445.972661 134.685782 
L 446.427325 131.202721 
L 446.881988 129.13798 
L 447.336652 128.121321 
L 447.791315 128.008339 
L 448.245979 128.783384 
L 448.700642 130.550511 
L 449.155306 133.598984 
L 449.609969 138.656914 
L 450.064633 148.128035 
L 450.519296 237.438929 
L 450.97396 148.19787 
L 451.428623 138.713645 
L 451.883286 133.660973 
L 452.33795 130.62226 
L 452.792613 128.866575 
L 453.247277 128.103646 
L 453.70194 128.228882 
L 454.156604 129.257481 
L 454.611267 131.333212 
L 455.065931 134.824969 
L 455.520594 140.698582 
L 456.429921 166.845292 
L 456.884585 144.935482 
L 457.339248 137.156114 
L 457.793912 132.773478 
L 458.248575 130.129273 
L 458.703239 128.662201 
L 459.157902 128.145583 
L 459.612566 128.51021 
L 460.067229 129.802735 
L 460.521893 132.213116 
L 460.976556 136.21326 
L 461.43122 143.118627 
L 461.885883 159.434583 
L 462.340546 156.99113 
L 462.79521 142.357834 
L 463.249873 135.820169 
L 463.704537 132.002144 
L 464.1592 129.714229 
L 464.613864 128.520032 
L 465.068527 128.244989 
L 465.523191 128.852498 
L 465.977854 130.422558 
L 466.432518 133.200476 
L 466.887181 137.795325 
L 467.341845 146.064378 
L 467.796508 172.4841 
L 468.251172 151.307283 
L 468.705835 140.248625 
L 469.160499 134.665641 
L 469.615162 131.333833 
L 470.069826 129.371904 
L 470.524489 128.438216 
L 470.979153 128.402122 
L 471.433816 129.258177 
L 471.88848 131.122988 
L 472.343143 134.310059 
L 472.797806 139.616879 
L 473.25247 149.801472 
L 473.707133 183.132982 
L 474.161797 147.337823 
L 474.61646 138.483603 
L 475.071124 133.664632 
L 475.525787 130.759493 
L 475.980451 129.099543 
L 476.435114 128.417079 
L 476.889778 128.619625 
L 477.344441 129.732686 
L 477.799105 131.914537 
L 478.253768 135.565283 
L 478.708432 141.751674 
L 479.163095 154.900744 
L 479.617759 163.040903 
L 480.072422 144.306336 
L 480.527086 136.978326 
L 480.981749 132.791744 
L 481.436413 130.267999 
L 481.891076 128.89143 
L 482.34574 128.453778 
L 482.800403 128.896922 
L 483.255066 130.278342 
L 483.70973 132.805252 
L 484.164393 136.990773 
L 484.619057 144.303782 
L 485.07372 162.893528 
L 485.528384 155.090898 
L 485.983047 141.877412 
L 486.437711 135.681966 
L 486.892374 132.031747 
L 487.347038 129.853659 
L 487.801701 128.745678 
L 488.256365 128.548645 
L 488.711028 129.236436 
L 489.165692 130.900807 
L 489.620355 133.808132 
L 490.075019 138.623447 
L 490.529682 147.451641 
L 490.984346 182.45621 
L 491.439009 150.092454 
L 491.893673 139.870972 
L 492.348336 134.55856 
L 492.803 131.373073 
L 493.257663 129.512501 
L 493.712327 128.661798 
L 494.16699 128.703586 
L 494.621653 129.642721 
L 495.076317 131.609091 
L 495.53098 134.942819 
L 495.985644 140.520617 
L 496.440307 151.54035 
L 496.894971 173.20236 
L 497.349634 146.46168 
L 497.804298 138.17391 
L 498.258961 133.577557 
L 498.713625 130.802901 
L 499.168288 129.237968 
L 499.622952 128.636344 
L 500.077615 128.917409 
L 500.532279 130.117206 
L 500.986942 132.409473 
L 501.441606 136.228738 
L 501.896269 142.758092 
L 502.350933 157.3203 
L 502.805596 160.044489 
L 503.26026 143.63558 
L 503.714923 136.720236 
L 504.169587 132.720964 
L 504.62425 130.314894 
L 505.078913 129.02808 
L 505.533577 128.669701 
L 505.98824 129.192553 
L 506.442904 130.665278 
L 506.897567 133.3136 
L 507.352231 137.696415 
L 507.806894 145.462328 
L 508.261558 167.19378 
L 509.170885 141.341526 
L 509.625548 135.463224 
L 510.080212 131.974122 
L 510.534875 129.903643 
L 510.989539 128.881407 
L 511.444202 128.762963 
L 511.898866 129.532643 
L 512.353529 131.294514 
L 512.808193 134.337892 
L 513.262856 139.391059 
L 513.71752 148.858636 
L 514.172183 240.135426 
L 514.626847 148.910805 
L 515.08151 139.42315 
L 515.536173 134.3659 
L 515.990837 131.322361 
L 516.4455 129.561791 
L 516.900164 128.793999 
L 517.354827 128.914451 
L 517.809491 129.938418 
L 518.264154 132.009803 
L 518.718818 135.497808 
L 519.173481 141.369286 
L 520.082808 167.44571 
L 520.537472 145.571756 
L 520.992135 137.792256 
L 521.446799 133.406552 
L 521.901462 130.758446 
L 522.356126 129.287167 
L 522.810789 128.766246 
L 523.265453 129.126605 
L 523.720116 130.415037 
L 524.17478 132.82172 
L 524.629443 136.819102 
L 525.084107 143.724605 
L 525.53877 160.062664 
L 525.993433 157.54211 
L 526.448097 142.925366 
L 526.90276 136.387495 
L 527.357424 132.566741 
L 527.812087 130.275299 
L 528.266751 129.077281 
L 528.721414 128.798355 
L 529.176078 129.402093 
L 529.630741 130.968702 
L 530.085405 133.743887 
L 530.540068 138.337778 
L 530.994732 146.612203 
L 531.449395 173.147179 
L 531.904059 151.791829 
L 532.358722 140.746095 
L 532.813386 135.163616 
L 533.268049 131.82972 
L 533.722713 129.864798 
L 534.177376 128.927776 
L 534.63204 128.888296 
L 535.086703 129.741143 
L 535.541367 131.603244 
L 535.99603 134.788747 
L 536.450693 140.097048 
L 536.905357 150.296338 
L 537.36002 183.211117 
L 537.814684 147.756076 
L 538.269347 138.912083 
L 538.724011 134.093863 
L 539.178674 131.187015 
L 539.633338 129.524427 
L 540.088001 128.838963 
L 540.542665 129.03846 
L 540.997328 130.148694 
L 541.451992 132.328342 
L 541.906655 135.978384 
L 542.361319 142.168469 
L 542.815982 155.346521 
L 543.270646 163.331357 
L 543.725309 144.663104 
L 544.179973 137.341608 
L 544.634636 133.155159 
L 545.0893 130.629634 
L 545.543963 129.250541 
L 545.543963 129.250541 
" clip-path="url(#p0b59820c3c)" style="fill: none; stroke: #2ca02c; stroke-linecap: square"/>
   </g>
   <g id="patch_3">
    <path d="M 57.167188 250.421875 
L 57.167188 24.12 
" style="fill: none; stroke: #000000; stroke-width: 0.8; stroke-linejoin: miter; stroke-linecap: square"/>
   </g>
   <g id="patch_4">
    <path d="M 568.8 250.421875 
L 568.8 24.12 
" style="fill: none; stroke: #000000; stroke-width: 0.8; stroke-linejoin: miter; stroke-linecap: square"/>
   </g>
   <g id="patch_5">
    <path d="M 57.167187 250.421875 
L 568.8 250.421875 
" style="fill: none; stroke: #000000; stroke-width: 0.8; stroke-linejoin: miter; stroke-linecap: square"/>
   </g>
   <g id="patch_6">
    <path d="M 57.167187 24.12 
L 568.8 24.12 
" style="fill: none; stroke: #000000; stroke-width: 0.8; stroke-linejoin: miter; stroke-linecap: square"/>
   </g>
   <g id="text_16">
    <!-- Magnitude response, $|H(\omega)|^2$ -->
    <g transform="translate(226.883594 18.12) scale(0.12 -0.12)">
     <defs>
      <path id="DejaVuSans-4d" d="M 628 4666 
L 1569 4666 
L 2759 1491 
L 3956 4666 
L 4897 4666 
L 4897 0 
L 4281 0 
L 4281 4097 
L 3078 897 
L 2444 897 
L 1241 4097 
L 1241 0 
L 628 0 
L 628 4666 
z
" transform="scale(0.015625)"/>
      <path id="DejaVuSans-67" d="M 2906 1791 
Q 2906 2416 2648 2759 
Q 2391 3103 1925 3103 
Q 1463 3103 1205 2759 
Q 947 2416 947 1791 
Q 947 1169 1205 825 
Q 1463 481 1925 481 
Q 2391 481 2648 825 
Q 2906 1169 2906 1791 
z
M 3481 434 
Q 3481 -459 3084 -895 
Q 2688 -1331 1869 -1331 
Q 1566 -1331 1297 -1286 
Q 1028 -1241 775 -1147 
L 775 -588 
Q 1028 -725 1275 -790 
Q 1522 -856 1778 -856 
Q 2344 -856 2625 -561 
Q 2906 -266 2906 331 
L 2906 616 
Q 2728 306 2450 153 
Q 2172 0 1784 0 
Q 1141 0 747 490 
Q 353 981 353 1791 
Q 353 2603 747 3093 
Q 1141 3584 1784 3584 
Q 2172 3584 2450 3431 
Q 2728 3278 2906 2969 
L 2906 3500 
L 3481 3500 
L 3481 434 
z
" transform="scale(0.015625)"/>
      <path id="DejaVuSans-74" d="M 1172 4494 
L 1172 3500 
L 2356 3500 
L 2356 3053 
L 1172 3053 
L 1172 1153 
Q 1172 725 1289 603 
Q 1406 481 1766 481 
L 2356 481 
L 2356 0 
L 1766 0 
Q 1100 0 847 248 
Q 594 497 594 1153 
L 594 3053 
L 172 3053 
L 172 3500 
L 594 3500 
L 594 4494 
L 1172 4494 
z
" transform="scale(0.015625)"/>
      <path id="DejaVuSans-73" d="M 2834 3397 
L 2834 2853 
Q 2591 2978 2328 3040 
Q 2066 3103 1784 3103 
Q 1356 3103 1142 2972 
Q 928 2841 928 2578 
Q 928 2378 1081 2264 
Q 1234 2150 1697 2047 
L 1894 2003 
Q 2506 1872 2764 1633 
Q 3022 1394 3022 966 
Q 3022 478 2636 193 
Q 2250 -91 1575 -91 
Q 1294 -91 989 -36 
Q 684 19 347 128 
L 347 722 
Q 666 556 975 473 
Q 1284 391 1588 391 
Q 1994 391 2212 530 
Q 2431 669 2431 922 
Q 2431 1156 2273 1281 
Q 2116 1406 1581 1522 
L 1381 1569 
Q 847 1681 609 1914 
Q 372 2147 372 2553 
Q 372 3047 722 3315 
Q 1072 3584 1716 3584 
Q 2034 3584 2315 3537 
Q 2597 3491 2834 3397 
z
" transform="scale(0.015625)"/>
      <path id="DejaVuSans-70" d="M 1159 525 
L 1159 -1331 
L 581 -1331 
L 581 3500 
L 1159 3500 
L 1159 2969 
Q 1341 3281 1617 3432 
Q 1894 3584 2278 3584 
Q 2916 3584 3314 3078 
Q 3713 2572 3713 1747 
Q 3713 922 3314 415 
Q 2916 -91 2278 -91 
Q 1894 -91 1617 61 
Q 1341 213 1159 525 
z
M 3116 1747 
Q 3116 2381 2855 2742 
Q 2594 3103 2138 3103 
Q 1681 3103 1420 2742 
Q 1159 2381 1159 1747 
Q 1159 1113 1420 752 
Q 1681 391 2138 391 
Q 2594 391 2855 752 
Q 3116 1113 3116 1747 
z
" transform="scale(0.015625)"/>
     </defs>
     <use xlink:href="#DejaVuSans-4d" transform="translate(0 0.765625)"/>
     <use xlink:href="#DejaVuSans-61" transform="translate(86.279297 0.765625)"/>
     <use xlink:href="#DejaVuSans-67" transform="translate(147.558594 0.765625)"/>
     <use xlink:href="#DejaVuSans-6e" transform="translate(211.035156 0.765625)"/>
     <use xlink:href="#DejaVuSans-69" transform="translate(274.414062 0.765625)"/>
     <use xlink:href="#DejaVuSans-74" transform="translate(302.197266 0.765625)"/>
     <use xlink:href="#DejaVuSans-75" transform="translate(341.40625 0.765625)"/>
     <use xlink:href="#DejaVuSans-64" transform="translate(404.785156 0.765625)"/>
     <use xlink:href="#DejaVuSans-65" transform="translate(468.261719 0.765625)"/>
     <use xlink:href="#DejaVuSans-20" transform="translate(529.785156 0.765625)"/>
     <use xlink:href="#DejaVuSans-72" transform="translate(561.572266 0.765625)"/>
     <use xlink:href="#DejaVuSans-65" transform="translate(602.685547 0.765625)"/>
     <use xlink:href="#DejaVuSans-73" transform="translate(664.208984 0.765625)"/>
     <use xlink:href="#DejaVuSans-70" transform="translate(716.308594 0.765625)"/>
     <use xlink:href="#DejaVuSans-6f" transform="translate(779.785156 0.765625)"/>
     <use xlink:href="#DejaVuSans-6e" transform="translate(840.966797 0.765625)"/>
     <use xlink:href="#DejaVuSans-73" transform="translate(904.345703 0.765625)"/>
     <use xlink:href="#DejaVuSans-65" transform="translate(956.445312 0.765625)"/>
     <use xlink:href="#DejaVuSans-2c" transform="translate(1017.96875 0.765625)"/>
     <use xlink:href="#DejaVuSans-20" transform="translate(1049.755859 0.765625)"/>
     <use xlink:href="#DejaVuSans-7c" transform="translate(1081.542969 0.765625)"/>
     <use xlink:href="#DejaVuSans-Oblique-48" transform="translate(1115.234375 0.765625)"/>
     <use xlink:href="#DejaVuSans-28" transform="translate(1190.429688 0.765625)"/>
     <use xlink:href="#DejaVuSans-Oblique-3c9" transform="translate(1229.443359 0.765625)"/>
     <use xlink:href="#DejaVuSans-29" transform="translate(1313.183594 0.765625)"/>
     <use xlink:href="#DejaVuSans-7c" transform="translate(1352.197266 0.765625)"/>
     <use xlink:href="#DejaVuSans-32" transform="translate(1386.845703 39.046875) scale(0.7)"/>
    </g>
   </g>
   <g id="legend_1">
    <g id="patch_7">
     <path d="M 478.315625 76.154375 
L 561.8 76.154375 
Q 563.8 76.154375 563.8 74.154375 
L 563.8 31.12 
Q 563.8 29.12 561.8 29.12 
L 478.315625 29.12 
Q 476.315625 29.12 476.315625 31.12 
L 476.315625 74.154375 
Q 476.315625 76.154375 478.315625 76.154375 
z
" style="fill: #ffffff; opacity: 0.8; stroke: #cccccc; stroke-linejoin: miter"/>
    </g>
    <g id="line2d_30">
     <path d="M 480.315625 37.218438 
L 490.315625 37.218438 
L 500.315625 37.218438 
" style="fill: none; stroke: #1f77b4; stroke-linecap: square"/>
    </g>
    <g id="text_17">
     <!-- span = 4 -->
     <g transform="translate(508.315625 40.718438) scale(0.1 -0.1)">
      <defs>
       <path id="DejaVuSans-3d" d="M 678 2906 
L 4684 2906 
L 4684 2381 
L 678 2381 
L 678 2906 
z
M 678 1631 
L 4684 1631 
L 4684 1100 
L 678 1100 
L 678 1631 
z
" transform="scale(0.015625)"/>
      </defs>
      <use xlink:href="#DejaVuSans-73"/>
      <use xlink:href="#DejaVuSans-70" transform="translate(52.099609 0)"/>
      <use xlink:href="#DejaVuSans-61" transform="translate(115.576172 0)"/>
      <use xlink:href="#DejaVuSans-6e" transform="translate(176.855469 0)"/>
      <use xlink:href="#DejaVuSans-20" transform="translate(240.234375 0)"/>
      <use xlink:href="#DejaVuSans-3d" transform="translate(272.021484 0)"/>
      <use xlink:href="#DejaVuSans-20" transform="translate(355.810547 0)"/>
      <use xlink:href="#DejaVuSans-34" transform="translate(387.597656 0)"/>
     </g>
    </g>
    <g id="line2d_31">
     <path d="M 480.315625 51.896563 
L 490.315625 51.896563 
L 500.315625 51.896563 
" style="fill: none; stroke: #ff7f0e; stroke-linecap: square"/>
    </g>
    <g id="text_18">
     <!-- span = 8 -->
     <g transform="translate(508.315625 55.396563) scale(0.1 -0.1)">
      <use xlink:href="#DejaVuSans-73"/>
      <use xlink:href="#DejaVuSans-70" transform="translate(52.099609 0)"/>
      <use xlink:href="#DejaVuSans-61" transform="translate(115.576172 0)"/>
      <use xlink:href="#DejaVuSans-6e" transform="translate(176.855469 0)"/>
      <use xlink:href="#DejaVuSans-20" transform="translate(240.234375 0)"/>
      <use xlink:href="#DejaVuSans-3d" transform="translate(272.021484 0)"/>
      <use xlink:href="#DejaVuSans-20" transform="translate(355.810547 0)"/>
      <use xlink:href="#DejaVuSans-38" transform="translate(387.597656 0)"/>
     </g>
    </g>
    <g id="line2d_32">
     <path d="M 480.315625 66.574688 
L 490.315625 66.574688 
L 500.315625 66.574688 
" style="fill: none; stroke: #2ca02c; stroke-linecap: square"/>
    </g>
    <g id="text_19">
     <!-- span = 16 -->
     <g transform="translate(508.315625 70.074688) scale(0.1 -0.1)">
      <use xlink:href="#DejaVuSans-73"/>
      <use xlink:href="#DejaVuSans-70" transform="translate(52.099609 0)"/>
      <use xlink:href="#DejaVuSans-61" transform="translate(115.576172 0)"/>
      <use xlink:href="#DejaVuSans-6e" transform="translate(176.855469 0)"/>
      <use xlink:href="#DejaVuSans-20" transform="translate(240.234375 0)"/>
      <use xlink:href="#DejaVuSans-3d" transform="translate(272.021484 0)"/>
      <use xlink:href="#DejaVuSans-20" transform="translate(355.810547 0)"/>
      <use xlink:href="#DejaVuSans-31" transform="translate(387.597656 0)"/>
      <use xlink:href="#DejaVuSans-36" transform="translate(451.220703 0)"/>
     </g>
    </g>
   </g>
  </g>
 </g>
 <defs>
  <clipPath id="p0b59820c3c">
   <rect x="57.167188" y="24.12" width="511.632813" height="226.301875"/>
  </clipPath>
 </defs>
</svg>
