<?xml version="1.0" encoding="utf-8" standalone="no"?>
<!DOCTYPE svg PUBLIC "-//W3C//DTD SVG 1.1//EN"
  "http://www.w3.org/Graphics/SVG/1.1/DTD/svg11.dtd">
<svg xmlns:xlink="http://www.w3.org/1999/xlink" width="576pt" height="288pt" viewBox="0 0 576 288" xmlns="http://www.w3.org/2000/svg" version="1.1">
 <metadata>
  <rdf:RDF xmlns:dc="http://purl.org/dc/elements/1.1/" xmlns:cc="http://creativecommons.org/ns#" xmlns:rdf="http://www.w3.org/1999/02/22-rdf-syntax-ns#">
   <cc:Work>
    <dc:type rdf:resource="http://purl.org/dc/dcmitype/StillImage"/>
    <dc:date>2025-05-10T16:32:41.342227</dc:date>
    <dc:format>image/svg+xml</dc:format>
    <dc:creator>
     <cc:Agent>
      <dc:title>Matplotlib v3.10.3, https://matplotlib.org/</dc:title>
     </cc:Agent>
    </dc:creator>
   </cc:Work>
  </rdf:RDF>
 </metadata>
 <defs>
  <style type="text/css">*{stroke-linejoin: round; stroke-linecap: butt}</style>
 </defs>
 <g id="figure_1">
  <g id="patch_1">
   <path d="M 0 288 
L 576 288 
L 576 0 
L 0 0 
z
" style="fill: #ffffff"/>
  </g>
  <g id="axes_1">
   <g id="patch_2">
    <path d="M 45.478125 250.44375 
L 560 250.44375 
L 560 35.7555 
L 45.478125 35.7555 
z
" style="fill: #ffffff"/>
   </g>
   <g id="matplotlib.axis_1">
    <g id="xtick_1">
     <g id="line2d_1">
      <path d="M 45.478125 250.44375 
L 45.478125 35.7555 
" clip-path="url(#pbaeef203ff)" style="fill: none; stroke-dasharray: 2.96,1.28; stroke-dashoffset: 0; stroke: #b0b0b0; stroke-opacity: 0.8; stroke-width: 0.8"/>
     </g>
     <g id="line2d_2">
      <defs>
       <path id="m1bc55108f5" d="M 0 0 
L 0 3.5 
" style="stroke: #000000; stroke-width: 0.8"/>
      </defs>
      <g>
       <use xlink:href="#m1bc55108f5" x="45.478125" y="250.44375" style="stroke: #000000; stroke-width: 0.8"/>
      </g>
     </g>
     <g id="text_1">
      <!-- $\mathdefault{10^{5}}$ -->
      <g transform="translate(36.678125 265.042188) scale(0.1 -0.1)">
       <defs>
        <path id="DejaVuSans-31" d="M 794 531 
L 1825 531 
L 1825 4091 
L 703 3866 
L 703 4441 
L 1819 4666 
L 2450 4666 
L 2450 531 
L 3481 531 
L 3481 0 
L 794 0 
L 794 531 
z
" transform="scale(0.015625)"/>
        <path id="DejaVuSans-30" d="M 2034 4250 
Q 1547 4250 1301 3770 
Q 1056 3291 1056 2328 
Q 1056 1369 1301 889 
Q 1547 409 2034 409 
Q 2525 409 2770 889 
Q 3016 1369 3016 2328 
Q 3016 3291 2770 3770 
Q 2525 4250 2034 4250 
z
M 2034 4750 
Q 2819 4750 3233 4129 
Q 3647 3509 3647 2328 
Q 3647 1150 3233 529 
Q 2819 -91 2034 -91 
Q 1250 -91 836 529 
Q 422 1150 422 2328 
Q 422 3509 836 4129 
Q 1250 4750 2034 4750 
z
" transform="scale(0.015625)"/>
        <path id="DejaVuSans-35" d="M 691 4666 
L 3169 4666 
L 3169 4134 
L 1269 4134 
L 1269 2991 
Q 1406 3038 1543 3061 
Q 1681 3084 1819 3084 
Q 2600 3084 3056 2656 
Q 3513 2228 3513 1497 
Q 3513 744 3044 326 
Q 2575 -91 1722 -91 
Q 1428 -91 1123 -41 
Q 819 9 494 109 
L 494 744 
Q 775 591 1075 516 
Q 1375 441 1709 441 
Q 2250 441 2565 725 
Q 2881 1009 2881 1497 
Q 2881 1984 2565 2268 
Q 2250 2553 1709 2553 
Q 1456 2553 1204 2497 
Q 953 2441 691 2322 
L 691 4666 
z
" transform="scale(0.015625)"/>
       </defs>
       <use xlink:href="#DejaVuSans-31" transform="translate(0 0.684375)"/>
       <use xlink:href="#DejaVuSans-30" transform="translate(63.623047 0.684375)"/>
       <use xlink:href="#DejaVuSans-35" transform="translate(128.203125 38.965625) scale(0.7)"/>
      </g>
     </g>
    </g>
    <g id="xtick_2">
     <g id="line2d_3">
      <path d="M 216.985417 250.44375 
L 216.985417 35.7555 
" clip-path="url(#pbaeef203ff)" style="fill: none; stroke-dasharray: 2.96,1.28; stroke-dashoffset: 0; stroke: #b0b0b0; stroke-opacity: 0.8; stroke-width: 0.8"/>
     </g>
     <g id="line2d_4">
      <g>
       <use xlink:href="#m1bc55108f5" x="216.985417" y="250.44375" style="stroke: #000000; stroke-width: 0.8"/>
      </g>
     </g>
     <g id="text_2">
      <!-- $\mathdefault{10^{6}}$ -->
      <g transform="translate(208.185417 265.042188) scale(0.1 -0.1)">
       <defs>
        <path id="DejaVuSans-36" d="M 2113 2584 
Q 1688 2584 1439 2293 
Q 1191 2003 1191 1497 
Q 1191 994 1439 701 
Q 1688 409 2113 409 
Q 2538 409 2786 701 
Q 3034 994 3034 1497 
Q 3034 2003 2786 2293 
Q 2538 2584 2113 2584 
z
M 3366 4563 
L 3366 3988 
Q 3128 4100 2886 4159 
Q 2644 4219 2406 4219 
Q 1781 4219 1451 3797 
Q 1122 3375 1075 2522 
Q 1259 2794 1537 2939 
Q 1816 3084 2150 3084 
Q 2853 3084 3261 2657 
Q 3669 2231 3669 1497 
Q 3669 778 3244 343 
Q 2819 -91 2113 -91 
Q 1303 -91 875 529 
Q 447 1150 447 2328 
Q 447 3434 972 4092 
Q 1497 4750 2381 4750 
Q 2619 4750 2861 4703 
Q 3103 4656 3366 4563 
z
" transform="scale(0.015625)"/>
       </defs>
       <use xlink:href="#DejaVuSans-31" transform="translate(0 0.765625)"/>
       <use xlink:href="#DejaVuSans-30" transform="translate(63.623047 0.765625)"/>
       <use xlink:href="#DejaVuSans-36" transform="translate(128.203125 39.046875) scale(0.7)"/>
      </g>
     </g>
    </g>
    <g id="xtick_3">
     <g id="line2d_5">
      <path d="M 388.492708 250.44375 
L 388.492708 35.7555 
" clip-path="url(#pbaeef203ff)" style="fill: none; stroke-dasharray: 2.96,1.28; stroke-dashoffset: 0; stroke: #b0b0b0; stroke-opacity: 0.8; stroke-width: 0.8"/>
     </g>
     <g id="line2d_6">
      <g>
       <use xlink:href="#m1bc55108f5" x="388.492708" y="250.44375" style="stroke: #000000; stroke-width: 0.8"/>
      </g>
     </g>
     <g id="text_3">
      <!-- $\mathdefault{10^{7}}$ -->
      <g transform="translate(379.692708 265.042188) scale(0.1 -0.1)">
       <defs>
        <path id="DejaVuSans-37" d="M 525 4666 
L 3525 4666 
L 3525 4397 
L 1831 0 
L 1172 0 
L 2766 4134 
L 525 4134 
L 525 4666 
z
" transform="scale(0.015625)"/>
       </defs>
       <use xlink:href="#DejaVuSans-31" transform="translate(0 0.684375)"/>
       <use xlink:href="#DejaVuSans-30" transform="translate(63.623047 0.684375)"/>
       <use xlink:href="#DejaVuSans-37" transform="translate(128.203125 38.965625) scale(0.7)"/>
      </g>
     </g>
    </g>
    <g id="xtick_4">
     <g id="line2d_7">
      <path d="M 560 250.44375 
L 560 35.7555 
" clip-path="url(#pbaeef203ff)" style="fill: none; stroke-dasharray: 2.96,1.28; stroke-dashoffset: 0; stroke: #b0b0b0; stroke-opacity: 0.8; stroke-width: 0.8"/>
     </g>
     <g id="line2d_8">
      <g>
       <use xlink:href="#m1bc55108f5" x="560" y="250.44375" style="stroke: #000000; stroke-width: 0.8"/>
      </g>
     </g>
     <g id="text_4">
      <!-- $\mathdefault{10^{8}}$ -->
      <g transform="translate(551.2 265.042188) scale(0.1 -0.1)">
       <defs>
        <path id="DejaVuSans-38" d="M 2034 2216 
Q 1584 2216 1326 1975 
Q 1069 1734 1069 1313 
Q 1069 891 1326 650 
Q 1584 409 2034 409 
Q 2484 409 2743 651 
Q 3003 894 3003 1313 
Q 3003 1734 2745 1975 
Q 2488 2216 2034 2216 
z
M 1403 2484 
Q 997 2584 770 2862 
Q 544 3141 544 3541 
Q 544 4100 942 4425 
Q 1341 4750 2034 4750 
Q 2731 4750 3128 4425 
Q 3525 4100 3525 3541 
Q 3525 3141 3298 2862 
Q 3072 2584 2669 2484 
Q 3125 2378 3379 2068 
Q 3634 1759 3634 1313 
Q 3634 634 3220 271 
Q 2806 -91 2034 -91 
Q 1263 -91 848 271 
Q 434 634 434 1313 
Q 434 1759 690 2068 
Q 947 2378 1403 2484 
z
M 1172 3481 
Q 1172 3119 1398 2916 
Q 1625 2713 2034 2713 
Q 2441 2713 2670 2916 
Q 2900 3119 2900 3481 
Q 2900 3844 2670 4047 
Q 2441 4250 2034 4250 
Q 1625 4250 1398 4047 
Q 1172 3844 1172 3481 
z
" transform="scale(0.015625)"/>
       </defs>
       <use xlink:href="#DejaVuSans-31" transform="translate(0 0.765625)"/>
       <use xlink:href="#DejaVuSans-30" transform="translate(63.623047 0.765625)"/>
       <use xlink:href="#DejaVuSans-38" transform="translate(128.203125 39.046875) scale(0.7)"/>
      </g>
     </g>
    </g>
    <g id="xtick_5">
     <g id="line2d_9">
      <path d="M 97.106964 250.44375 
L 97.106964 35.7555 
" clip-path="url(#pbaeef203ff)" style="fill: none; stroke-dasharray: 2.96,1.28; stroke-dashoffset: 0; stroke: #b0b0b0; stroke-opacity: 0.8; stroke-width: 0.8"/>
     </g>
     <g id="line2d_10">
      <defs>
       <path id="meac65fe661" d="M 0 0 
L 0 2 
" style="stroke: #000000; stroke-width: 0.6"/>
      </defs>
      <g>
       <use xlink:href="#meac65fe661" x="97.106964" y="250.44375" style="stroke: #000000; stroke-width: 0.6"/>
      </g>
     </g>
    </g>
    <g id="xtick_6">
     <g id="line2d_11">
      <path d="M 127.307899 250.44375 
L 127.307899 35.7555 
" clip-path="url(#pbaeef203ff)" style="fill: none; stroke-dasharray: 2.96,1.28; stroke-dashoffset: 0; stroke: #b0b0b0; stroke-opacity: 0.8; stroke-width: 0.8"/>
     </g>
     <g id="line2d_12">
      <g>
       <use xlink:href="#meac65fe661" x="127.307899" y="250.44375" style="stroke: #000000; stroke-width: 0.6"/>
      </g>
     </g>
    </g>
    <g id="xtick_7">
     <g id="line2d_13">
      <path d="M 148.735804 250.44375 
L 148.735804 35.7555 
" clip-path="url(#pbaeef203ff)" style="fill: none; stroke-dasharray: 2.96,1.28; stroke-dashoffset: 0; stroke: #b0b0b0; stroke-opacity: 0.8; stroke-width: 0.8"/>
     </g>
     <g id="line2d_14">
      <g>
       <use xlink:href="#meac65fe661" x="148.735804" y="250.44375" style="stroke: #000000; stroke-width: 0.6"/>
      </g>
     </g>
    </g>
    <g id="xtick_8">
     <g id="line2d_15">
      <path d="M 165.356577 250.44375 
L 165.356577 35.7555 
" clip-path="url(#pbaeef203ff)" style="fill: none; stroke-dasharray: 2.96,1.28; stroke-dashoffset: 0; stroke: #b0b0b0; stroke-opacity: 0.8; stroke-width: 0.8"/>
     </g>
     <g id="line2d_16">
      <g>
       <use xlink:href="#meac65fe661" x="165.356577" y="250.44375" style="stroke: #000000; stroke-width: 0.6"/>
      </g>
     </g>
    </g>
    <g id="xtick_9">
     <g id="line2d_17">
      <path d="M 178.936738 250.44375 
L 178.936738 35.7555 
" clip-path="url(#pbaeef203ff)" style="fill: none; stroke-dasharray: 2.96,1.28; stroke-dashoffset: 0; stroke: #b0b0b0; stroke-opacity: 0.8; stroke-width: 0.8"/>
     </g>
     <g id="line2d_18">
      <g>
       <use xlink:href="#meac65fe661" x="178.936738" y="250.44375" style="stroke: #000000; stroke-width: 0.6"/>
      </g>
     </g>
    </g>
    <g id="xtick_10">
     <g id="line2d_19">
      <path d="M 190.418601 250.44375 
L 190.418601 35.7555 
" clip-path="url(#pbaeef203ff)" style="fill: none; stroke-dasharray: 2.96,1.28; stroke-dashoffset: 0; stroke: #b0b0b0; stroke-opacity: 0.8; stroke-width: 0.8"/>
     </g>
     <g id="line2d_20">
      <g>
       <use xlink:href="#meac65fe661" x="190.418601" y="250.44375" style="stroke: #000000; stroke-width: 0.6"/>
      </g>
     </g>
    </g>
    <g id="xtick_11">
     <g id="line2d_21">
      <path d="M 200.364643 250.44375 
L 200.364643 35.7555 
" clip-path="url(#pbaeef203ff)" style="fill: none; stroke-dasharray: 2.96,1.28; stroke-dashoffset: 0; stroke: #b0b0b0; stroke-opacity: 0.8; stroke-width: 0.8"/>
     </g>
     <g id="line2d_22">
      <g>
       <use xlink:href="#meac65fe661" x="200.364643" y="250.44375" style="stroke: #000000; stroke-width: 0.6"/>
      </g>
     </g>
    </g>
    <g id="xtick_12">
     <g id="line2d_23">
      <path d="M 209.137673 250.44375 
L 209.137673 35.7555 
" clip-path="url(#pbaeef203ff)" style="fill: none; stroke-dasharray: 2.96,1.28; stroke-dashoffset: 0; stroke: #b0b0b0; stroke-opacity: 0.8; stroke-width: 0.8"/>
     </g>
     <g id="line2d_24">
      <g>
       <use xlink:href="#meac65fe661" x="209.137673" y="250.44375" style="stroke: #000000; stroke-width: 0.6"/>
      </g>
     </g>
    </g>
    <g id="xtick_13">
     <g id="line2d_25">
      <path d="M 268.614256 250.44375 
L 268.614256 35.7555 
" clip-path="url(#pbaeef203ff)" style="fill: none; stroke-dasharray: 2.96,1.28; stroke-dashoffset: 0; stroke: #b0b0b0; stroke-opacity: 0.8; stroke-width: 0.8"/>
     </g>
     <g id="line2d_26">
      <g>
       <use xlink:href="#meac65fe661" x="268.614256" y="250.44375" style="stroke: #000000; stroke-width: 0.6"/>
      </g>
     </g>
    </g>
    <g id="xtick_14">
     <g id="line2d_27">
      <path d="M 298.815191 250.44375 
L 298.815191 35.7555 
" clip-path="url(#pbaeef203ff)" style="fill: none; stroke-dasharray: 2.96,1.28; stroke-dashoffset: 0; stroke: #b0b0b0; stroke-opacity: 0.8; stroke-width: 0.8"/>
     </g>
     <g id="line2d_28">
      <g>
       <use xlink:href="#meac65fe661" x="298.815191" y="250.44375" style="stroke: #000000; stroke-width: 0.6"/>
      </g>
     </g>
    </g>
    <g id="xtick_15">
     <g id="line2d_29">
      <path d="M 320.243095 250.44375 
L 320.243095 35.7555 
" clip-path="url(#pbaeef203ff)" style="fill: none; stroke-dasharray: 2.96,1.28; stroke-dashoffset: 0; stroke: #b0b0b0; stroke-opacity: 0.8; stroke-width: 0.8"/>
     </g>
     <g id="line2d_30">
      <g>
       <use xlink:href="#meac65fe661" x="320.243095" y="250.44375" style="stroke: #000000; stroke-width: 0.6"/>
      </g>
     </g>
    </g>
    <g id="xtick_16">
     <g id="line2d_31">
      <path d="M 336.863869 250.44375 
L 336.863869 35.7555 
" clip-path="url(#pbaeef203ff)" style="fill: none; stroke-dasharray: 2.96,1.28; stroke-dashoffset: 0; stroke: #b0b0b0; stroke-opacity: 0.8; stroke-width: 0.8"/>
     </g>
     <g id="line2d_32">
      <g>
       <use xlink:href="#meac65fe661" x="336.863869" y="250.44375" style="stroke: #000000; stroke-width: 0.6"/>
      </g>
     </g>
    </g>
    <g id="xtick_17">
     <g id="line2d_33">
      <path d="M 350.44403 250.44375 
L 350.44403 35.7555 
" clip-path="url(#pbaeef203ff)" style="fill: none; stroke-dasharray: 2.96,1.28; stroke-dashoffset: 0; stroke: #b0b0b0; stroke-opacity: 0.8; stroke-width: 0.8"/>
     </g>
     <g id="line2d_34">
      <g>
       <use xlink:href="#meac65fe661" x="350.44403" y="250.44375" style="stroke: #000000; stroke-width: 0.6"/>
      </g>
     </g>
    </g>
    <g id="xtick_18">
     <g id="line2d_35">
      <path d="M 361.925893 250.44375 
L 361.925893 35.7555 
" clip-path="url(#pbaeef203ff)" style="fill: none; stroke-dasharray: 2.96,1.28; stroke-dashoffset: 0; stroke: #b0b0b0; stroke-opacity: 0.8; stroke-width: 0.8"/>
     </g>
     <g id="line2d_36">
      <g>
       <use xlink:href="#meac65fe661" x="361.925893" y="250.44375" style="stroke: #000000; stroke-width: 0.6"/>
      </g>
     </g>
    </g>
    <g id="xtick_19">
     <g id="line2d_37">
      <path d="M 371.871934 250.44375 
L 371.871934 35.7555 
" clip-path="url(#pbaeef203ff)" style="fill: none; stroke-dasharray: 2.96,1.28; stroke-dashoffset: 0; stroke: #b0b0b0; stroke-opacity: 0.8; stroke-width: 0.8"/>
     </g>
     <g id="line2d_38">
      <g>
       <use xlink:href="#meac65fe661" x="371.871934" y="250.44375" style="stroke: #000000; stroke-width: 0.6"/>
      </g>
     </g>
    </g>
    <g id="xtick_20">
     <g id="line2d_39">
      <path d="M 380.644965 250.44375 
L 380.644965 35.7555 
" clip-path="url(#pbaeef203ff)" style="fill: none; stroke-dasharray: 2.96,1.28; stroke-dashoffset: 0; stroke: #b0b0b0; stroke-opacity: 0.8; stroke-width: 0.8"/>
     </g>
     <g id="line2d_40">
      <g>
       <use xlink:href="#meac65fe661" x="380.644965" y="250.44375" style="stroke: #000000; stroke-width: 0.6"/>
      </g>
     </g>
    </g>
    <g id="xtick_21">
     <g id="line2d_41">
      <path d="M 440.121548 250.44375 
L 440.121548 35.7555 
" clip-path="url(#pbaeef203ff)" style="fill: none; stroke-dasharray: 2.96,1.28; stroke-dashoffset: 0; stroke: #b0b0b0; stroke-opacity: 0.8; stroke-width: 0.8"/>
     </g>
     <g id="line2d_42">
      <g>
       <use xlink:href="#meac65fe661" x="440.121548" y="250.44375" style="stroke: #000000; stroke-width: 0.6"/>
      </g>
     </g>
    </g>
    <g id="xtick_22">
     <g id="line2d_43">
      <path d="M 470.322483 250.44375 
L 470.322483 35.7555 
" clip-path="url(#pbaeef203ff)" style="fill: none; stroke-dasharray: 2.96,1.28; stroke-dashoffset: 0; stroke: #b0b0b0; stroke-opacity: 0.8; stroke-width: 0.8"/>
     </g>
     <g id="line2d_44">
      <g>
       <use xlink:href="#meac65fe661" x="470.322483" y="250.44375" style="stroke: #000000; stroke-width: 0.6"/>
      </g>
     </g>
    </g>
    <g id="xtick_23">
     <g id="line2d_45">
      <path d="M 491.750387 250.44375 
L 491.750387 35.7555 
" clip-path="url(#pbaeef203ff)" style="fill: none; stroke-dasharray: 2.96,1.28; stroke-dashoffset: 0; stroke: #b0b0b0; stroke-opacity: 0.8; stroke-width: 0.8"/>
     </g>
     <g id="line2d_46">
      <g>
       <use xlink:href="#meac65fe661" x="491.750387" y="250.44375" style="stroke: #000000; stroke-width: 0.6"/>
      </g>
     </g>
    </g>
    <g id="xtick_24">
     <g id="line2d_47">
      <path d="M 508.371161 250.44375 
L 508.371161 35.7555 
" clip-path="url(#pbaeef203ff)" style="fill: none; stroke-dasharray: 2.96,1.28; stroke-dashoffset: 0; stroke: #b0b0b0; stroke-opacity: 0.8; stroke-width: 0.8"/>
     </g>
     <g id="line2d_48">
      <g>
       <use xlink:href="#meac65fe661" x="508.371161" y="250.44375" style="stroke: #000000; stroke-width: 0.6"/>
      </g>
     </g>
    </g>
    <g id="xtick_25">
     <g id="line2d_49">
      <path d="M 521.951322 250.44375 
L 521.951322 35.7555 
" clip-path="url(#pbaeef203ff)" style="fill: none; stroke-dasharray: 2.96,1.28; stroke-dashoffset: 0; stroke: #b0b0b0; stroke-opacity: 0.8; stroke-width: 0.8"/>
     </g>
     <g id="line2d_50">
      <g>
       <use xlink:href="#meac65fe661" x="521.951322" y="250.44375" style="stroke: #000000; stroke-width: 0.6"/>
      </g>
     </g>
    </g>
    <g id="xtick_26">
     <g id="line2d_51">
      <path d="M 533.433184 250.44375 
L 533.433184 35.7555 
" clip-path="url(#pbaeef203ff)" style="fill: none; stroke-dasharray: 2.96,1.28; stroke-dashoffset: 0; stroke: #b0b0b0; stroke-opacity: 0.8; stroke-width: 0.8"/>
     </g>
     <g id="line2d_52">
      <g>
       <use xlink:href="#meac65fe661" x="533.433184" y="250.44375" style="stroke: #000000; stroke-width: 0.6"/>
      </g>
     </g>
    </g>
    <g id="xtick_27">
     <g id="line2d_53">
      <path d="M 543.379226 250.44375 
L 543.379226 35.7555 
" clip-path="url(#pbaeef203ff)" style="fill: none; stroke-dasharray: 2.96,1.28; stroke-dashoffset: 0; stroke: #b0b0b0; stroke-opacity: 0.8; stroke-width: 0.8"/>
     </g>
     <g id="line2d_54">
      <g>
       <use xlink:href="#meac65fe661" x="543.379226" y="250.44375" style="stroke: #000000; stroke-width: 0.6"/>
      </g>
     </g>
    </g>
    <g id="xtick_28">
     <g id="line2d_55">
      <path d="M 552.152257 250.44375 
L 552.152257 35.7555 
" clip-path="url(#pbaeef203ff)" style="fill: none; stroke-dasharray: 2.96,1.28; stroke-dashoffset: 0; stroke: #b0b0b0; stroke-opacity: 0.8; stroke-width: 0.8"/>
     </g>
     <g id="line2d_56">
      <g>
       <use xlink:href="#meac65fe661" x="552.152257" y="250.44375" style="stroke: #000000; stroke-width: 0.6"/>
      </g>
     </g>
    </g>
    <g id="text_5">
     <!-- Bandwidth (Hz), $B$ -->
     <g transform="translate(257.589063 278.720312) scale(0.1 -0.1)">
      <defs>
       <path id="DejaVuSans-42" d="M 1259 2228 
L 1259 519 
L 2272 519 
Q 2781 519 3026 730 
Q 3272 941 3272 1375 
Q 3272 1813 3026 2020 
Q 2781 2228 2272 2228 
L 1259 2228 
z
M 1259 4147 
L 1259 2741 
L 2194 2741 
Q 2656 2741 2882 2914 
Q 3109 3088 3109 3444 
Q 3109 3797 2882 3972 
Q 2656 4147 2194 4147 
L 1259 4147 
z
M 628 4666 
L 2241 4666 
Q 2963 4666 3353 4366 
Q 3744 4066 3744 3513 
Q 3744 3084 3544 2831 
Q 3344 2578 2956 2516 
Q 3422 2416 3680 2098 
Q 3938 1781 3938 1306 
Q 3938 681 3513 340 
Q 3088 0 2303 0 
L 628 0 
L 628 4666 
z
" transform="scale(0.015625)"/>
       <path id="DejaVuSans-61" d="M 2194 1759 
Q 1497 1759 1228 1600 
Q 959 1441 959 1056 
Q 959 750 1161 570 
Q 1363 391 1709 391 
Q 2188 391 2477 730 
Q 2766 1069 2766 1631 
L 2766 1759 
L 2194 1759 
z
M 3341 1997 
L 3341 0 
L 2766 0 
L 2766 531 
Q 2569 213 2275 61 
Q 1981 -91 1556 -91 
Q 1019 -91 701 211 
Q 384 513 384 1019 
Q 384 1609 779 1909 
Q 1175 2209 1959 2209 
L 2766 2209 
L 2766 2266 
Q 2766 2663 2505 2880 
Q 2244 3097 1772 3097 
Q 1472 3097 1187 3025 
Q 903 2953 641 2809 
L 641 3341 
Q 956 3463 1253 3523 
Q 1550 3584 1831 3584 
Q 2591 3584 2966 3190 
Q 3341 2797 3341 1997 
z
" transform="scale(0.015625)"/>
       <path id="DejaVuSans-6e" d="M 3513 2113 
L 3513 0 
L 2938 0 
L 2938 2094 
Q 2938 2591 2744 2837 
Q 2550 3084 2163 3084 
Q 1697 3084 1428 2787 
Q 1159 2491 1159 1978 
L 1159 0 
L 581 0 
L 581 3500 
L 1159 3500 
L 1159 2956 
Q 1366 3272 1645 3428 
Q 1925 3584 2291 3584 
Q 2894 3584 3203 3211 
Q 3513 2838 3513 2113 
z
" transform="scale(0.015625)"/>
       <path id="DejaVuSans-64" d="M 2906 2969 
L 2906 4863 
L 3481 4863 
L 3481 0 
L 2906 0 
L 2906 525 
Q 2725 213 2448 61 
Q 2172 -91 1784 -91 
Q 1150 -91 751 415 
Q 353 922 353 1747 
Q 353 2572 751 3078 
Q 1150 3584 1784 3584 
Q 2172 3584 2448 3432 
Q 2725 3281 2906 2969 
z
M 947 1747 
Q 947 1113 1208 752 
Q 1469 391 1925 391 
Q 2381 391 2643 752 
Q 2906 1113 2906 1747 
Q 2906 2381 2643 2742 
Q 2381 3103 1925 3103 
Q 1469 3103 1208 2742 
Q 947 2381 947 1747 
z
" transform="scale(0.015625)"/>
       <path id="DejaVuSans-77" d="M 269 3500 
L 844 3500 
L 1563 769 
L 2278 3500 
L 2956 3500 
L 3675 769 
L 4391 3500 
L 4966 3500 
L 4050 0 
L 3372 0 
L 2619 2869 
L 1863 0 
L 1184 0 
L 269 3500 
z
" transform="scale(0.015625)"/>
       <path id="DejaVuSans-69" d="M 603 3500 
L 1178 3500 
L 1178 0 
L 603 0 
L 603 3500 
z
M 603 4863 
L 1178 4863 
L 1178 4134 
L 603 4134 
L 603 4863 
z
" transform="scale(0.015625)"/>
       <path id="DejaVuSans-74" d="M 1172 4494 
L 1172 3500 
L 2356 3500 
L 2356 3053 
L 1172 3053 
L 1172 1153 
Q 1172 725 1289 603 
Q 1406 481 1766 481 
L 2356 481 
L 2356 0 
L 1766 0 
Q 1100 0 847 248 
Q 594 497 594 1153 
L 594 3053 
L 172 3053 
L 172 3500 
L 594 3500 
L 594 4494 
L 1172 4494 
z
" transform="scale(0.015625)"/>
       <path id="DejaVuSans-68" d="M 3513 2113 
L 3513 0 
L 2938 0 
L 2938 2094 
Q 2938 2591 2744 2837 
Q 2550 3084 2163 3084 
Q 1697 3084 1428 2787 
Q 1159 2491 1159 1978 
L 1159 0 
L 581 0 
L 581 4863 
L 1159 4863 
L 1159 2956 
Q 1366 3272 1645 3428 
Q 1925 3584 2291 3584 
Q 2894 3584 3203 3211 
Q 3513 2838 3513 2113 
z
" transform="scale(0.015625)"/>
       <path id="DejaVuSans-20" transform="scale(0.015625)"/>
       <path id="DejaVuSans-28" d="M 1984 4856 
Q 1566 4138 1362 3434 
Q 1159 2731 1159 2009 
Q 1159 1288 1364 580 
Q 1569 -128 1984 -844 
L 1484 -844 
Q 1016 -109 783 600 
Q 550 1309 550 2009 
Q 550 2706 781 3412 
Q 1013 4119 1484 4856 
L 1984 4856 
z
" transform="scale(0.015625)"/>
       <path id="DejaVuSans-48" d="M 628 4666 
L 1259 4666 
L 1259 2753 
L 3553 2753 
L 3553 4666 
L 4184 4666 
L 4184 0 
L 3553 0 
L 3553 2222 
L 1259 2222 
L 1259 0 
L 628 0 
L 628 4666 
z
" transform="scale(0.015625)"/>
       <path id="DejaVuSans-7a" d="M 353 3500 
L 3084 3500 
L 3084 2975 
L 922 459 
L 3084 459 
L 3084 0 
L 275 0 
L 275 525 
L 2438 3041 
L 353 3041 
L 353 3500 
z
" transform="scale(0.015625)"/>
       <path id="DejaVuSans-29" d="M 513 4856 
L 1013 4856 
Q 1481 4119 1714 3412 
Q 1947 2706 1947 2009 
Q 1947 1309 1714 600 
Q 1481 -109 1013 -844 
L 513 -844 
Q 928 -128 1133 580 
Q 1338 1288 1338 2009 
Q 1338 2731 1133 3434 
Q 928 4138 513 4856 
z
" transform="scale(0.015625)"/>
       <path id="DejaVuSans-2c" d="M 750 794 
L 1409 794 
L 1409 256 
L 897 -744 
L 494 -744 
L 750 256 
L 750 794 
z
" transform="scale(0.015625)"/>
       <path id="DejaVuSans-Oblique-42" d="M 1081 4666 
L 2694 4666 
Q 3350 4666 3675 4422 
Q 4000 4178 4000 3688 
Q 4000 3238 3720 2911 
Q 3441 2584 2988 2516 
Q 3375 2428 3569 2181 
Q 3763 1934 3763 1522 
Q 3763 819 3242 409 
Q 2722 0 1819 0 
L 172 0 
L 1081 4666 
z
M 1234 2228 
L 903 519 
L 1919 519 
Q 2491 519 2800 781 
Q 3109 1044 3109 1522 
Q 3109 1891 2904 2059 
Q 2700 2228 2247 2228 
L 1234 2228 
z
M 1606 4147 
L 1331 2741 
L 2272 2741 
Q 2775 2741 3058 2959 
Q 3341 3178 3341 3566 
Q 3341 3869 3150 4008 
Q 2959 4147 2541 4147 
L 1606 4147 
z
" transform="scale(0.015625)"/>
      </defs>
      <use xlink:href="#DejaVuSans-42" transform="translate(0 0.015625)"/>
      <use xlink:href="#DejaVuSans-61" transform="translate(68.603516 0.015625)"/>
      <use xlink:href="#DejaVuSans-6e" transform="translate(129.882812 0.015625)"/>
      <use xlink:href="#DejaVuSans-64" transform="translate(193.261719 0.015625)"/>
      <use xlink:href="#DejaVuSans-77" transform="translate(256.738281 0.015625)"/>
      <use xlink:href="#DejaVuSans-69" transform="translate(338.525391 0.015625)"/>
      <use xlink:href="#DejaVuSans-64" transform="translate(366.308594 0.015625)"/>
      <use xlink:href="#DejaVuSans-74" transform="translate(429.785156 0.015625)"/>
      <use xlink:href="#DejaVuSans-68" transform="translate(468.994141 0.015625)"/>
      <use xlink:href="#DejaVuSans-20" transform="translate(532.373047 0.015625)"/>
      <use xlink:href="#DejaVuSans-28" transform="translate(564.160156 0.015625)"/>
      <use xlink:href="#DejaVuSans-48" transform="translate(603.173828 0.015625)"/>
      <use xlink:href="#DejaVuSans-7a" transform="translate(678.369141 0.015625)"/>
      <use xlink:href="#DejaVuSans-29" transform="translate(730.859375 0.015625)"/>
      <use xlink:href="#DejaVuSans-2c" transform="translate(769.873047 0.015625)"/>
      <use xlink:href="#DejaVuSans-20" transform="translate(801.660156 0.015625)"/>
      <use xlink:href="#DejaVuSans-Oblique-42" transform="translate(833.447266 0.015625)"/>
     </g>
    </g>
   </g>
   <g id="matplotlib.axis_2">
    <g id="ytick_1">
     <g id="line2d_57">
      <path d="M 45.478125 250.44375 
L 560 250.44375 
" clip-path="url(#pbaeef203ff)" style="fill: none; stroke-dasharray: 2.96,1.28; stroke-dashoffset: 0; stroke: #b0b0b0; stroke-opacity: 0.8; stroke-width: 0.8"/>
     </g>
     <g id="line2d_58">
      <defs>
       <path id="m073ae8f76c" d="M 0 0 
L -3.5 0 
" style="stroke: #000000; stroke-width: 0.8"/>
      </defs>
      <g>
       <use xlink:href="#m073ae8f76c" x="45.478125" y="250.44375" style="stroke: #000000; stroke-width: 0.8"/>
      </g>
     </g>
     <g id="text_6">
      <!-- $\mathdefault{10^{0}}$ -->
      <g transform="translate(20.878125 254.242969) scale(0.1 -0.1)">
       <use xlink:href="#DejaVuSans-31" transform="translate(0 0.765625)"/>
       <use xlink:href="#DejaVuSans-30" transform="translate(63.623047 0.765625)"/>
       <use xlink:href="#DejaVuSans-30" transform="translate(128.203125 39.046875) scale(0.7)"/>
      </g>
     </g>
    </g>
    <g id="ytick_2">
     <g id="line2d_59">
      <path d="M 45.478125 214.662375 
L 560 214.662375 
" clip-path="url(#pbaeef203ff)" style="fill: none; stroke-dasharray: 2.96,1.28; stroke-dashoffset: 0; stroke: #b0b0b0; stroke-opacity: 0.8; stroke-width: 0.8"/>
     </g>
     <g id="line2d_60">
      <g>
       <use xlink:href="#m073ae8f76c" x="45.478125" y="214.662375" style="stroke: #000000; stroke-width: 0.8"/>
      </g>
     </g>
     <g id="text_7">
      <!-- $\mathdefault{10^{1}}$ -->
      <g transform="translate(20.878125 218.461594) scale(0.1 -0.1)">
       <use xlink:href="#DejaVuSans-31" transform="translate(0 0.684375)"/>
       <use xlink:href="#DejaVuSans-30" transform="translate(63.623047 0.684375)"/>
       <use xlink:href="#DejaVuSans-31" transform="translate(128.203125 38.965625) scale(0.7)"/>
      </g>
     </g>
    </g>
    <g id="ytick_3">
     <g id="line2d_61">
      <path d="M 45.478125 178.881 
L 560 178.881 
" clip-path="url(#pbaeef203ff)" style="fill: none; stroke-dasharray: 2.96,1.28; stroke-dashoffset: 0; stroke: #b0b0b0; stroke-opacity: 0.8; stroke-width: 0.8"/>
     </g>
     <g id="line2d_62">
      <g>
       <use xlink:href="#m073ae8f76c" x="45.478125" y="178.881" style="stroke: #000000; stroke-width: 0.8"/>
      </g>
     </g>
     <g id="text_8">
      <!-- $\mathdefault{10^{2}}$ -->
      <g transform="translate(20.878125 182.680219) scale(0.1 -0.1)">
       <defs>
        <path id="DejaVuSans-32" d="M 1228 531 
L 3431 531 
L 3431 0 
L 469 0 
L 469 531 
Q 828 903 1448 1529 
Q 2069 2156 2228 2338 
Q 2531 2678 2651 2914 
Q 2772 3150 2772 3378 
Q 2772 3750 2511 3984 
Q 2250 4219 1831 4219 
Q 1534 4219 1204 4116 
Q 875 4013 500 3803 
L 500 4441 
Q 881 4594 1212 4672 
Q 1544 4750 1819 4750 
Q 2544 4750 2975 4387 
Q 3406 4025 3406 3419 
Q 3406 3131 3298 2873 
Q 3191 2616 2906 2266 
Q 2828 2175 2409 1742 
Q 1991 1309 1228 531 
z
" transform="scale(0.015625)"/>
       </defs>
       <use xlink:href="#DejaVuSans-31" transform="translate(0 0.765625)"/>
       <use xlink:href="#DejaVuSans-30" transform="translate(63.623047 0.765625)"/>
       <use xlink:href="#DejaVuSans-32" transform="translate(128.203125 39.046875) scale(0.7)"/>
      </g>
     </g>
    </g>
    <g id="ytick_4">
     <g id="line2d_63">
      <path d="M 45.478125 143.099625 
L 560 143.099625 
" clip-path="url(#pbaeef203ff)" style="fill: none; stroke-dasharray: 2.96,1.28; stroke-dashoffset: 0; stroke: #b0b0b0; stroke-opacity: 0.8; stroke-width: 0.8"/>
     </g>
     <g id="line2d_64">
      <g>
       <use xlink:href="#m073ae8f76c" x="45.478125" y="143.099625" style="stroke: #000000; stroke-width: 0.8"/>
      </g>
     </g>
     <g id="text_9">
      <!-- $\mathdefault{10^{3}}$ -->
      <g transform="translate(20.878125 146.898844) scale(0.1 -0.1)">
       <defs>
        <path id="DejaVuSans-33" d="M 2597 2516 
Q 3050 2419 3304 2112 
Q 3559 1806 3559 1356 
Q 3559 666 3084 287 
Q 2609 -91 1734 -91 
Q 1441 -91 1130 -33 
Q 819 25 488 141 
L 488 750 
Q 750 597 1062 519 
Q 1375 441 1716 441 
Q 2309 441 2620 675 
Q 2931 909 2931 1356 
Q 2931 1769 2642 2001 
Q 2353 2234 1838 2234 
L 1294 2234 
L 1294 2753 
L 1863 2753 
Q 2328 2753 2575 2939 
Q 2822 3125 2822 3475 
Q 2822 3834 2567 4026 
Q 2313 4219 1838 4219 
Q 1578 4219 1281 4162 
Q 984 4106 628 3988 
L 628 4550 
Q 988 4650 1302 4700 
Q 1616 4750 1894 4750 
Q 2613 4750 3031 4423 
Q 3450 4097 3450 3541 
Q 3450 3153 3228 2886 
Q 3006 2619 2597 2516 
z
" transform="scale(0.015625)"/>
       </defs>
       <use xlink:href="#DejaVuSans-31" transform="translate(0 0.765625)"/>
       <use xlink:href="#DejaVuSans-30" transform="translate(63.623047 0.765625)"/>
       <use xlink:href="#DejaVuSans-33" transform="translate(128.203125 39.046875) scale(0.7)"/>
      </g>
     </g>
    </g>
    <g id="ytick_5">
     <g id="line2d_65">
      <path d="M 45.478125 107.31825 
L 560 107.31825 
" clip-path="url(#pbaeef203ff)" style="fill: none; stroke-dasharray: 2.96,1.28; stroke-dashoffset: 0; stroke: #b0b0b0; stroke-opacity: 0.8; stroke-width: 0.8"/>
     </g>
     <g id="line2d_66">
      <g>
       <use xlink:href="#m073ae8f76c" x="45.478125" y="107.31825" style="stroke: #000000; stroke-width: 0.8"/>
      </g>
     </g>
     <g id="text_10">
      <!-- $\mathdefault{10^{4}}$ -->
      <g transform="translate(20.878125 111.117469) scale(0.1 -0.1)">
       <defs>
        <path id="DejaVuSans-34" d="M 2419 4116 
L 825 1625 
L 2419 1625 
L 2419 4116 
z
M 2253 4666 
L 3047 4666 
L 3047 1625 
L 3713 1625 
L 3713 1100 
L 3047 1100 
L 3047 0 
L 2419 0 
L 2419 1100 
L 313 1100 
L 313 1709 
L 2253 4666 
z
" transform="scale(0.015625)"/>
       </defs>
       <use xlink:href="#DejaVuSans-31" transform="translate(0 0.684375)"/>
       <use xlink:href="#DejaVuSans-30" transform="translate(63.623047 0.684375)"/>
       <use xlink:href="#DejaVuSans-34" transform="translate(128.203125 38.965625) scale(0.7)"/>
      </g>
     </g>
    </g>
    <g id="ytick_6">
     <g id="line2d_67">
      <path d="M 45.478125 71.536875 
L 560 71.536875 
" clip-path="url(#pbaeef203ff)" style="fill: none; stroke-dasharray: 2.96,1.28; stroke-dashoffset: 0; stroke: #b0b0b0; stroke-opacity: 0.8; stroke-width: 0.8"/>
     </g>
     <g id="line2d_68">
      <g>
       <use xlink:href="#m073ae8f76c" x="45.478125" y="71.536875" style="stroke: #000000; stroke-width: 0.8"/>
      </g>
     </g>
     <g id="text_11">
      <!-- $\mathdefault{10^{5}}$ -->
      <g transform="translate(20.878125 75.336094) scale(0.1 -0.1)">
       <use xlink:href="#DejaVuSans-31" transform="translate(0 0.684375)"/>
       <use xlink:href="#DejaVuSans-30" transform="translate(63.623047 0.684375)"/>
       <use xlink:href="#DejaVuSans-35" transform="translate(128.203125 38.965625) scale(0.7)"/>
      </g>
     </g>
    </g>
    <g id="ytick_7">
     <g id="line2d_69">
      <path d="M 45.478125 35.7555 
L 560 35.7555 
" clip-path="url(#pbaeef203ff)" style="fill: none; stroke-dasharray: 2.96,1.28; stroke-dashoffset: 0; stroke: #b0b0b0; stroke-opacity: 0.8; stroke-width: 0.8"/>
     </g>
     <g id="line2d_70">
      <g>
       <use xlink:href="#m073ae8f76c" x="45.478125" y="35.7555" style="stroke: #000000; stroke-width: 0.8"/>
      </g>
     </g>
     <g id="text_12">
      <!-- $\mathdefault{10^{6}}$ -->
      <g transform="translate(20.878125 39.554719) scale(0.1 -0.1)">
       <use xlink:href="#DejaVuSans-31" transform="translate(0 0.765625)"/>
       <use xlink:href="#DejaVuSans-30" transform="translate(63.623047 0.765625)"/>
       <use xlink:href="#DejaVuSans-36" transform="translate(128.203125 39.046875) scale(0.7)"/>
      </g>
     </g>
    </g>
    <g id="ytick_8">
     <g id="line2d_71">
      <path d="M 45.478125 239.672483 
L 560 239.672483 
" clip-path="url(#pbaeef203ff)" style="fill: none; stroke-dasharray: 2.96,1.28; stroke-dashoffset: 0; stroke: #b0b0b0; stroke-opacity: 0.8; stroke-width: 0.8"/>
     </g>
     <g id="line2d_72">
      <defs>
       <path id="mf05d3b889f" d="M 0 0 
L -2 0 
" style="stroke: #000000; stroke-width: 0.6"/>
      </defs>
      <g>
       <use xlink:href="#mf05d3b889f" x="45.478125" y="239.672483" style="stroke: #000000; stroke-width: 0.6"/>
      </g>
     </g>
    </g>
    <g id="ytick_9">
     <g id="line2d_73">
      <path d="M 45.478125 233.371695 
L 560 233.371695 
" clip-path="url(#pbaeef203ff)" style="fill: none; stroke-dasharray: 2.96,1.28; stroke-dashoffset: 0; stroke: #b0b0b0; stroke-opacity: 0.8; stroke-width: 0.8"/>
     </g>
     <g id="line2d_74">
      <g>
       <use xlink:href="#mf05d3b889f" x="45.478125" y="233.371695" style="stroke: #000000; stroke-width: 0.6"/>
      </g>
     </g>
    </g>
    <g id="ytick_10">
     <g id="line2d_75">
      <path d="M 45.478125 228.901216 
L 560 228.901216 
" clip-path="url(#pbaeef203ff)" style="fill: none; stroke-dasharray: 2.96,1.28; stroke-dashoffset: 0; stroke: #b0b0b0; stroke-opacity: 0.8; stroke-width: 0.8"/>
     </g>
     <g id="line2d_76">
      <g>
       <use xlink:href="#mf05d3b889f" x="45.478125" y="228.901216" style="stroke: #000000; stroke-width: 0.6"/>
      </g>
     </g>
    </g>
    <g id="ytick_11">
     <g id="line2d_77">
      <path d="M 45.478125 225.433642 
L 560 225.433642 
" clip-path="url(#pbaeef203ff)" style="fill: none; stroke-dasharray: 2.96,1.28; stroke-dashoffset: 0; stroke: #b0b0b0; stroke-opacity: 0.8; stroke-width: 0.8"/>
     </g>
     <g id="line2d_78">
      <g>
       <use xlink:href="#mf05d3b889f" x="45.478125" y="225.433642" style="stroke: #000000; stroke-width: 0.6"/>
      </g>
     </g>
    </g>
    <g id="ytick_12">
     <g id="line2d_79">
      <path d="M 45.478125 222.600428 
L 560 222.600428 
" clip-path="url(#pbaeef203ff)" style="fill: none; stroke-dasharray: 2.96,1.28; stroke-dashoffset: 0; stroke: #b0b0b0; stroke-opacity: 0.8; stroke-width: 0.8"/>
     </g>
     <g id="line2d_80">
      <g>
       <use xlink:href="#mf05d3b889f" x="45.478125" y="222.600428" style="stroke: #000000; stroke-width: 0.6"/>
      </g>
     </g>
    </g>
    <g id="ytick_13">
     <g id="line2d_81">
      <path d="M 45.478125 220.20498 
L 560 220.20498 
" clip-path="url(#pbaeef203ff)" style="fill: none; stroke-dasharray: 2.96,1.28; stroke-dashoffset: 0; stroke: #b0b0b0; stroke-opacity: 0.8; stroke-width: 0.8"/>
     </g>
     <g id="line2d_82">
      <g>
       <use xlink:href="#mf05d3b889f" x="45.478125" y="220.20498" style="stroke: #000000; stroke-width: 0.6"/>
      </g>
     </g>
    </g>
    <g id="ytick_14">
     <g id="line2d_83">
      <path d="M 45.478125 218.129949 
L 560 218.129949 
" clip-path="url(#pbaeef203ff)" style="fill: none; stroke-dasharray: 2.96,1.28; stroke-dashoffset: 0; stroke: #b0b0b0; stroke-opacity: 0.8; stroke-width: 0.8"/>
     </g>
     <g id="line2d_84">
      <g>
       <use xlink:href="#mf05d3b889f" x="45.478125" y="218.129949" style="stroke: #000000; stroke-width: 0.6"/>
      </g>
     </g>
    </g>
    <g id="ytick_15">
     <g id="line2d_85">
      <path d="M 45.478125 216.299641 
L 560 216.299641 
" clip-path="url(#pbaeef203ff)" style="fill: none; stroke-dasharray: 2.96,1.28; stroke-dashoffset: 0; stroke: #b0b0b0; stroke-opacity: 0.8; stroke-width: 0.8"/>
     </g>
     <g id="line2d_86">
      <g>
       <use xlink:href="#mf05d3b889f" x="45.478125" y="216.299641" style="stroke: #000000; stroke-width: 0.6"/>
      </g>
     </g>
    </g>
    <g id="ytick_16">
     <g id="line2d_87">
      <path d="M 45.478125 203.891108 
L 560 203.891108 
" clip-path="url(#pbaeef203ff)" style="fill: none; stroke-dasharray: 2.96,1.28; stroke-dashoffset: 0; stroke: #b0b0b0; stroke-opacity: 0.8; stroke-width: 0.8"/>
     </g>
     <g id="line2d_88">
      <g>
       <use xlink:href="#mf05d3b889f" x="45.478125" y="203.891108" style="stroke: #000000; stroke-width: 0.6"/>
      </g>
     </g>
    </g>
    <g id="ytick_17">
     <g id="line2d_89">
      <path d="M 45.478125 197.59032 
L 560 197.59032 
" clip-path="url(#pbaeef203ff)" style="fill: none; stroke-dasharray: 2.96,1.28; stroke-dashoffset: 0; stroke: #b0b0b0; stroke-opacity: 0.8; stroke-width: 0.8"/>
     </g>
     <g id="line2d_90">
      <g>
       <use xlink:href="#mf05d3b889f" x="45.478125" y="197.59032" style="stroke: #000000; stroke-width: 0.6"/>
      </g>
     </g>
    </g>
    <g id="ytick_18">
     <g id="line2d_91">
      <path d="M 45.478125 193.119841 
L 560 193.119841 
" clip-path="url(#pbaeef203ff)" style="fill: none; stroke-dasharray: 2.96,1.28; stroke-dashoffset: 0; stroke: #b0b0b0; stroke-opacity: 0.8; stroke-width: 0.8"/>
     </g>
     <g id="line2d_92">
      <g>
       <use xlink:href="#mf05d3b889f" x="45.478125" y="193.119841" style="stroke: #000000; stroke-width: 0.6"/>
      </g>
     </g>
    </g>
    <g id="ytick_19">
     <g id="line2d_93">
      <path d="M 45.478125 189.652267 
L 560 189.652267 
" clip-path="url(#pbaeef203ff)" style="fill: none; stroke-dasharray: 2.96,1.28; stroke-dashoffset: 0; stroke: #b0b0b0; stroke-opacity: 0.8; stroke-width: 0.8"/>
     </g>
     <g id="line2d_94">
      <g>
       <use xlink:href="#mf05d3b889f" x="45.478125" y="189.652267" style="stroke: #000000; stroke-width: 0.6"/>
      </g>
     </g>
    </g>
    <g id="ytick_20">
     <g id="line2d_95">
      <path d="M 45.478125 186.819053 
L 560 186.819053 
" clip-path="url(#pbaeef203ff)" style="fill: none; stroke-dasharray: 2.96,1.28; stroke-dashoffset: 0; stroke: #b0b0b0; stroke-opacity: 0.8; stroke-width: 0.8"/>
     </g>
     <g id="line2d_96">
      <g>
       <use xlink:href="#mf05d3b889f" x="45.478125" y="186.819053" style="stroke: #000000; stroke-width: 0.6"/>
      </g>
     </g>
    </g>
    <g id="ytick_21">
     <g id="line2d_97">
      <path d="M 45.478125 184.423605 
L 560 184.423605 
" clip-path="url(#pbaeef203ff)" style="fill: none; stroke-dasharray: 2.96,1.28; stroke-dashoffset: 0; stroke: #b0b0b0; stroke-opacity: 0.8; stroke-width: 0.8"/>
     </g>
     <g id="line2d_98">
      <g>
       <use xlink:href="#mf05d3b889f" x="45.478125" y="184.423605" style="stroke: #000000; stroke-width: 0.6"/>
      </g>
     </g>
    </g>
    <g id="ytick_22">
     <g id="line2d_99">
      <path d="M 45.478125 182.348574 
L 560 182.348574 
" clip-path="url(#pbaeef203ff)" style="fill: none; stroke-dasharray: 2.96,1.28; stroke-dashoffset: 0; stroke: #b0b0b0; stroke-opacity: 0.8; stroke-width: 0.8"/>
     </g>
     <g id="line2d_100">
      <g>
       <use xlink:href="#mf05d3b889f" x="45.478125" y="182.348574" style="stroke: #000000; stroke-width: 0.6"/>
      </g>
     </g>
    </g>
    <g id="ytick_23">
     <g id="line2d_101">
      <path d="M 45.478125 180.518266 
L 560 180.518266 
" clip-path="url(#pbaeef203ff)" style="fill: none; stroke-dasharray: 2.96,1.28; stroke-dashoffset: 0; stroke: #b0b0b0; stroke-opacity: 0.8; stroke-width: 0.8"/>
     </g>
     <g id="line2d_102">
      <g>
       <use xlink:href="#mf05d3b889f" x="45.478125" y="180.518266" style="stroke: #000000; stroke-width: 0.6"/>
      </g>
     </g>
    </g>
    <g id="ytick_24">
     <g id="line2d_103">
      <path d="M 45.478125 168.109733 
L 560 168.109733 
" clip-path="url(#pbaeef203ff)" style="fill: none; stroke-dasharray: 2.96,1.28; stroke-dashoffset: 0; stroke: #b0b0b0; stroke-opacity: 0.8; stroke-width: 0.8"/>
     </g>
     <g id="line2d_104">
      <g>
       <use xlink:href="#mf05d3b889f" x="45.478125" y="168.109733" style="stroke: #000000; stroke-width: 0.6"/>
      </g>
     </g>
    </g>
    <g id="ytick_25">
     <g id="line2d_105">
      <path d="M 45.478125 161.808945 
L 560 161.808945 
" clip-path="url(#pbaeef203ff)" style="fill: none; stroke-dasharray: 2.96,1.28; stroke-dashoffset: 0; stroke: #b0b0b0; stroke-opacity: 0.8; stroke-width: 0.8"/>
     </g>
     <g id="line2d_106">
      <g>
       <use xlink:href="#mf05d3b889f" x="45.478125" y="161.808945" style="stroke: #000000; stroke-width: 0.6"/>
      </g>
     </g>
    </g>
    <g id="ytick_26">
     <g id="line2d_107">
      <path d="M 45.478125 157.338466 
L 560 157.338466 
" clip-path="url(#pbaeef203ff)" style="fill: none; stroke-dasharray: 2.96,1.28; stroke-dashoffset: 0; stroke: #b0b0b0; stroke-opacity: 0.8; stroke-width: 0.8"/>
     </g>
     <g id="line2d_108">
      <g>
       <use xlink:href="#mf05d3b889f" x="45.478125" y="157.338466" style="stroke: #000000; stroke-width: 0.6"/>
      </g>
     </g>
    </g>
    <g id="ytick_27">
     <g id="line2d_109">
      <path d="M 45.478125 153.870892 
L 560 153.870892 
" clip-path="url(#pbaeef203ff)" style="fill: none; stroke-dasharray: 2.96,1.28; stroke-dashoffset: 0; stroke: #b0b0b0; stroke-opacity: 0.8; stroke-width: 0.8"/>
     </g>
     <g id="line2d_110">
      <g>
       <use xlink:href="#mf05d3b889f" x="45.478125" y="153.870892" style="stroke: #000000; stroke-width: 0.6"/>
      </g>
     </g>
    </g>
    <g id="ytick_28">
     <g id="line2d_111">
      <path d="M 45.478125 151.037678 
L 560 151.037678 
" clip-path="url(#pbaeef203ff)" style="fill: none; stroke-dasharray: 2.96,1.28; stroke-dashoffset: 0; stroke: #b0b0b0; stroke-opacity: 0.8; stroke-width: 0.8"/>
     </g>
     <g id="line2d_112">
      <g>
       <use xlink:href="#mf05d3b889f" x="45.478125" y="151.037678" style="stroke: #000000; stroke-width: 0.6"/>
      </g>
     </g>
    </g>
    <g id="ytick_29">
     <g id="line2d_113">
      <path d="M 45.478125 148.64223 
L 560 148.64223 
" clip-path="url(#pbaeef203ff)" style="fill: none; stroke-dasharray: 2.96,1.28; stroke-dashoffset: 0; stroke: #b0b0b0; stroke-opacity: 0.8; stroke-width: 0.8"/>
     </g>
     <g id="line2d_114">
      <g>
       <use xlink:href="#mf05d3b889f" x="45.478125" y="148.64223" style="stroke: #000000; stroke-width: 0.6"/>
      </g>
     </g>
    </g>
    <g id="ytick_30">
     <g id="line2d_115">
      <path d="M 45.478125 146.567199 
L 560 146.567199 
" clip-path="url(#pbaeef203ff)" style="fill: none; stroke-dasharray: 2.96,1.28; stroke-dashoffset: 0; stroke: #b0b0b0; stroke-opacity: 0.8; stroke-width: 0.8"/>
     </g>
     <g id="line2d_116">
      <g>
       <use xlink:href="#mf05d3b889f" x="45.478125" y="146.567199" style="stroke: #000000; stroke-width: 0.6"/>
      </g>
     </g>
    </g>
    <g id="ytick_31">
     <g id="line2d_117">
      <path d="M 45.478125 144.736891 
L 560 144.736891 
" clip-path="url(#pbaeef203ff)" style="fill: none; stroke-dasharray: 2.96,1.28; stroke-dashoffset: 0; stroke: #b0b0b0; stroke-opacity: 0.8; stroke-width: 0.8"/>
     </g>
     <g id="line2d_118">
      <g>
       <use xlink:href="#mf05d3b889f" x="45.478125" y="144.736891" style="stroke: #000000; stroke-width: 0.6"/>
      </g>
     </g>
    </g>
    <g id="ytick_32">
     <g id="line2d_119">
      <path d="M 45.478125 132.328358 
L 560 132.328358 
" clip-path="url(#pbaeef203ff)" style="fill: none; stroke-dasharray: 2.96,1.28; stroke-dashoffset: 0; stroke: #b0b0b0; stroke-opacity: 0.8; stroke-width: 0.8"/>
     </g>
     <g id="line2d_120">
      <g>
       <use xlink:href="#mf05d3b889f" x="45.478125" y="132.328358" style="stroke: #000000; stroke-width: 0.6"/>
      </g>
     </g>
    </g>
    <g id="ytick_33">
     <g id="line2d_121">
      <path d="M 45.478125 126.02757 
L 560 126.02757 
" clip-path="url(#pbaeef203ff)" style="fill: none; stroke-dasharray: 2.96,1.28; stroke-dashoffset: 0; stroke: #b0b0b0; stroke-opacity: 0.8; stroke-width: 0.8"/>
     </g>
     <g id="line2d_122">
      <g>
       <use xlink:href="#mf05d3b889f" x="45.478125" y="126.02757" style="stroke: #000000; stroke-width: 0.6"/>
      </g>
     </g>
    </g>
    <g id="ytick_34">
     <g id="line2d_123">
      <path d="M 45.478125 121.557091 
L 560 121.557091 
" clip-path="url(#pbaeef203ff)" style="fill: none; stroke-dasharray: 2.96,1.28; stroke-dashoffset: 0; stroke: #b0b0b0; stroke-opacity: 0.8; stroke-width: 0.8"/>
     </g>
     <g id="line2d_124">
      <g>
       <use xlink:href="#mf05d3b889f" x="45.478125" y="121.557091" style="stroke: #000000; stroke-width: 0.6"/>
      </g>
     </g>
    </g>
    <g id="ytick_35">
     <g id="line2d_125">
      <path d="M 45.478125 118.089517 
L 560 118.089517 
" clip-path="url(#pbaeef203ff)" style="fill: none; stroke-dasharray: 2.96,1.28; stroke-dashoffset: 0; stroke: #b0b0b0; stroke-opacity: 0.8; stroke-width: 0.8"/>
     </g>
     <g id="line2d_126">
      <g>
       <use xlink:href="#mf05d3b889f" x="45.478125" y="118.089517" style="stroke: #000000; stroke-width: 0.6"/>
      </g>
     </g>
    </g>
    <g id="ytick_36">
     <g id="line2d_127">
      <path d="M 45.478125 115.256303 
L 560 115.256303 
" clip-path="url(#pbaeef203ff)" style="fill: none; stroke-dasharray: 2.96,1.28; stroke-dashoffset: 0; stroke: #b0b0b0; stroke-opacity: 0.8; stroke-width: 0.8"/>
     </g>
     <g id="line2d_128">
      <g>
       <use xlink:href="#mf05d3b889f" x="45.478125" y="115.256303" style="stroke: #000000; stroke-width: 0.6"/>
      </g>
     </g>
    </g>
    <g id="ytick_37">
     <g id="line2d_129">
      <path d="M 45.478125 112.860855 
L 560 112.860855 
" clip-path="url(#pbaeef203ff)" style="fill: none; stroke-dasharray: 2.96,1.28; stroke-dashoffset: 0; stroke: #b0b0b0; stroke-opacity: 0.8; stroke-width: 0.8"/>
     </g>
     <g id="line2d_130">
      <g>
       <use xlink:href="#mf05d3b889f" x="45.478125" y="112.860855" style="stroke: #000000; stroke-width: 0.6"/>
      </g>
     </g>
    </g>
    <g id="ytick_38">
     <g id="line2d_131">
      <path d="M 45.478125 110.785824 
L 560 110.785824 
" clip-path="url(#pbaeef203ff)" style="fill: none; stroke-dasharray: 2.96,1.28; stroke-dashoffset: 0; stroke: #b0b0b0; stroke-opacity: 0.8; stroke-width: 0.8"/>
     </g>
     <g id="line2d_132">
      <g>
       <use xlink:href="#mf05d3b889f" x="45.478125" y="110.785824" style="stroke: #000000; stroke-width: 0.6"/>
      </g>
     </g>
    </g>
    <g id="ytick_39">
     <g id="line2d_133">
      <path d="M 45.478125 108.955516 
L 560 108.955516 
" clip-path="url(#pbaeef203ff)" style="fill: none; stroke-dasharray: 2.96,1.28; stroke-dashoffset: 0; stroke: #b0b0b0; stroke-opacity: 0.8; stroke-width: 0.8"/>
     </g>
     <g id="line2d_134">
      <g>
       <use xlink:href="#mf05d3b889f" x="45.478125" y="108.955516" style="stroke: #000000; stroke-width: 0.6"/>
      </g>
     </g>
    </g>
    <g id="ytick_40">
     <g id="line2d_135">
      <path d="M 45.478125 96.546983 
L 560 96.546983 
" clip-path="url(#pbaeef203ff)" style="fill: none; stroke-dasharray: 2.96,1.28; stroke-dashoffset: 0; stroke: #b0b0b0; stroke-opacity: 0.8; stroke-width: 0.8"/>
     </g>
     <g id="line2d_136">
      <g>
       <use xlink:href="#mf05d3b889f" x="45.478125" y="96.546983" style="stroke: #000000; stroke-width: 0.6"/>
      </g>
     </g>
    </g>
    <g id="ytick_41">
     <g id="line2d_137">
      <path d="M 45.478125 90.246195 
L 560 90.246195 
" clip-path="url(#pbaeef203ff)" style="fill: none; stroke-dasharray: 2.96,1.28; stroke-dashoffset: 0; stroke: #b0b0b0; stroke-opacity: 0.8; stroke-width: 0.8"/>
     </g>
     <g id="line2d_138">
      <g>
       <use xlink:href="#mf05d3b889f" x="45.478125" y="90.246195" style="stroke: #000000; stroke-width: 0.6"/>
      </g>
     </g>
    </g>
    <g id="ytick_42">
     <g id="line2d_139">
      <path d="M 45.478125 85.775716 
L 560 85.775716 
" clip-path="url(#pbaeef203ff)" style="fill: none; stroke-dasharray: 2.96,1.28; stroke-dashoffset: 0; stroke: #b0b0b0; stroke-opacity: 0.8; stroke-width: 0.8"/>
     </g>
     <g id="line2d_140">
      <g>
       <use xlink:href="#mf05d3b889f" x="45.478125" y="85.775716" style="stroke: #000000; stroke-width: 0.6"/>
      </g>
     </g>
    </g>
    <g id="ytick_43">
     <g id="line2d_141">
      <path d="M 45.478125 82.308142 
L 560 82.308142 
" clip-path="url(#pbaeef203ff)" style="fill: none; stroke-dasharray: 2.96,1.28; stroke-dashoffset: 0; stroke: #b0b0b0; stroke-opacity: 0.8; stroke-width: 0.8"/>
     </g>
     <g id="line2d_142">
      <g>
       <use xlink:href="#mf05d3b889f" x="45.478125" y="82.308142" style="stroke: #000000; stroke-width: 0.6"/>
      </g>
     </g>
    </g>
    <g id="ytick_44">
     <g id="line2d_143">
      <path d="M 45.478125 79.474928 
L 560 79.474928 
" clip-path="url(#pbaeef203ff)" style="fill: none; stroke-dasharray: 2.96,1.28; stroke-dashoffset: 0; stroke: #b0b0b0; stroke-opacity: 0.8; stroke-width: 0.8"/>
     </g>
     <g id="line2d_144">
      <g>
       <use xlink:href="#mf05d3b889f" x="45.478125" y="79.474928" style="stroke: #000000; stroke-width: 0.6"/>
      </g>
     </g>
    </g>
    <g id="ytick_45">
     <g id="line2d_145">
      <path d="M 45.478125 77.07948 
L 560 77.07948 
" clip-path="url(#pbaeef203ff)" style="fill: none; stroke-dasharray: 2.96,1.28; stroke-dashoffset: 0; stroke: #b0b0b0; stroke-opacity: 0.8; stroke-width: 0.8"/>
     </g>
     <g id="line2d_146">
      <g>
       <use xlink:href="#mf05d3b889f" x="45.478125" y="77.07948" style="stroke: #000000; stroke-width: 0.6"/>
      </g>
     </g>
    </g>
    <g id="ytick_46">
     <g id="line2d_147">
      <path d="M 45.478125 75.004449 
L 560 75.004449 
" clip-path="url(#pbaeef203ff)" style="fill: none; stroke-dasharray: 2.96,1.28; stroke-dashoffset: 0; stroke: #b0b0b0; stroke-opacity: 0.8; stroke-width: 0.8"/>
     </g>
     <g id="line2d_148">
      <g>
       <use xlink:href="#mf05d3b889f" x="45.478125" y="75.004449" style="stroke: #000000; stroke-width: 0.6"/>
      </g>
     </g>
    </g>
    <g id="ytick_47">
     <g id="line2d_149">
      <path d="M 45.478125 73.174141 
L 560 73.174141 
" clip-path="url(#pbaeef203ff)" style="fill: none; stroke-dasharray: 2.96,1.28; stroke-dashoffset: 0; stroke: #b0b0b0; stroke-opacity: 0.8; stroke-width: 0.8"/>
     </g>
     <g id="line2d_150">
      <g>
       <use xlink:href="#mf05d3b889f" x="45.478125" y="73.174141" style="stroke: #000000; stroke-width: 0.6"/>
      </g>
     </g>
    </g>
    <g id="ytick_48">
     <g id="line2d_151">
      <path d="M 45.478125 60.765608 
L 560 60.765608 
" clip-path="url(#pbaeef203ff)" style="fill: none; stroke-dasharray: 2.96,1.28; stroke-dashoffset: 0; stroke: #b0b0b0; stroke-opacity: 0.8; stroke-width: 0.8"/>
     </g>
     <g id="line2d_152">
      <g>
       <use xlink:href="#mf05d3b889f" x="45.478125" y="60.765608" style="stroke: #000000; stroke-width: 0.6"/>
      </g>
     </g>
    </g>
    <g id="ytick_49">
     <g id="line2d_153">
      <path d="M 45.478125 54.46482 
L 560 54.46482 
" clip-path="url(#pbaeef203ff)" style="fill: none; stroke-dasharray: 2.96,1.28; stroke-dashoffset: 0; stroke: #b0b0b0; stroke-opacity: 0.8; stroke-width: 0.8"/>
     </g>
     <g id="line2d_154">
      <g>
       <use xlink:href="#mf05d3b889f" x="45.478125" y="54.46482" style="stroke: #000000; stroke-width: 0.6"/>
      </g>
     </g>
    </g>
    <g id="ytick_50">
     <g id="line2d_155">
      <path d="M 45.478125 49.994341 
L 560 49.994341 
" clip-path="url(#pbaeef203ff)" style="fill: none; stroke-dasharray: 2.96,1.28; stroke-dashoffset: 0; stroke: #b0b0b0; stroke-opacity: 0.8; stroke-width: 0.8"/>
     </g>
     <g id="line2d_156">
      <g>
       <use xlink:href="#mf05d3b889f" x="45.478125" y="49.994341" style="stroke: #000000; stroke-width: 0.6"/>
      </g>
     </g>
    </g>
    <g id="ytick_51">
     <g id="line2d_157">
      <path d="M 45.478125 46.526767 
L 560 46.526767 
" clip-path="url(#pbaeef203ff)" style="fill: none; stroke-dasharray: 2.96,1.28; stroke-dashoffset: 0; stroke: #b0b0b0; stroke-opacity: 0.8; stroke-width: 0.8"/>
     </g>
     <g id="line2d_158">
      <g>
       <use xlink:href="#mf05d3b889f" x="45.478125" y="46.526767" style="stroke: #000000; stroke-width: 0.6"/>
      </g>
     </g>
    </g>
    <g id="ytick_52">
     <g id="line2d_159">
      <path d="M 45.478125 43.693553 
L 560 43.693553 
" clip-path="url(#pbaeef203ff)" style="fill: none; stroke-dasharray: 2.96,1.28; stroke-dashoffset: 0; stroke: #b0b0b0; stroke-opacity: 0.8; stroke-width: 0.8"/>
     </g>
     <g id="line2d_160">
      <g>
       <use xlink:href="#mf05d3b889f" x="45.478125" y="43.693553" style="stroke: #000000; stroke-width: 0.6"/>
      </g>
     </g>
    </g>
    <g id="ytick_53">
     <g id="line2d_161">
      <path d="M 45.478125 41.298105 
L 560 41.298105 
" clip-path="url(#pbaeef203ff)" style="fill: none; stroke-dasharray: 2.96,1.28; stroke-dashoffset: 0; stroke: #b0b0b0; stroke-opacity: 0.8; stroke-width: 0.8"/>
     </g>
     <g id="line2d_162">
      <g>
       <use xlink:href="#mf05d3b889f" x="45.478125" y="41.298105" style="stroke: #000000; stroke-width: 0.6"/>
      </g>
     </g>
    </g>
    <g id="ytick_54">
     <g id="line2d_163">
      <path d="M 45.478125 39.223074 
L 560 39.223074 
" clip-path="url(#pbaeef203ff)" style="fill: none; stroke-dasharray: 2.96,1.28; stroke-dashoffset: 0; stroke: #b0b0b0; stroke-opacity: 0.8; stroke-width: 0.8"/>
     </g>
     <g id="line2d_164">
      <g>
       <use xlink:href="#mf05d3b889f" x="45.478125" y="39.223074" style="stroke: #000000; stroke-width: 0.6"/>
      </g>
     </g>
    </g>
    <g id="ytick_55">
     <g id="line2d_165">
      <path d="M 45.478125 37.392766 
L 560 37.392766 
" clip-path="url(#pbaeef203ff)" style="fill: none; stroke-dasharray: 2.96,1.28; stroke-dashoffset: 0; stroke: #b0b0b0; stroke-opacity: 0.8; stroke-width: 0.8"/>
     </g>
     <g id="line2d_166">
      <g>
       <use xlink:href="#mf05d3b889f" x="45.478125" y="37.392766" style="stroke: #000000; stroke-width: 0.6"/>
      </g>
     </g>
    </g>
    <g id="text_13">
     <!-- CRLB on FOA (Hz), $\sigma_{\text{foa}}$ -->
     <g transform="translate(14.798438 199.799625) rotate(-90) scale(0.1 -0.1)">
      <defs>
       <path id="DejaVuSans-43" d="M 4122 4306 
L 4122 3641 
Q 3803 3938 3442 4084 
Q 3081 4231 2675 4231 
Q 1875 4231 1450 3742 
Q 1025 3253 1025 2328 
Q 1025 1406 1450 917 
Q 1875 428 2675 428 
Q 3081 428 3442 575 
Q 3803 722 4122 1019 
L 4122 359 
Q 3791 134 3420 21 
Q 3050 -91 2638 -91 
Q 1578 -91 968 557 
Q 359 1206 359 2328 
Q 359 3453 968 4101 
Q 1578 4750 2638 4750 
Q 3056 4750 3426 4639 
Q 3797 4528 4122 4306 
z
" transform="scale(0.015625)"/>
       <path id="DejaVuSans-52" d="M 2841 2188 
Q 3044 2119 3236 1894 
Q 3428 1669 3622 1275 
L 4263 0 
L 3584 0 
L 2988 1197 
Q 2756 1666 2539 1819 
Q 2322 1972 1947 1972 
L 1259 1972 
L 1259 0 
L 628 0 
L 628 4666 
L 2053 4666 
Q 2853 4666 3247 4331 
Q 3641 3997 3641 3322 
Q 3641 2881 3436 2590 
Q 3231 2300 2841 2188 
z
M 1259 4147 
L 1259 2491 
L 2053 2491 
Q 2509 2491 2742 2702 
Q 2975 2913 2975 3322 
Q 2975 3731 2742 3939 
Q 2509 4147 2053 4147 
L 1259 4147 
z
" transform="scale(0.015625)"/>
       <path id="DejaVuSans-4c" d="M 628 4666 
L 1259 4666 
L 1259 531 
L 3531 531 
L 3531 0 
L 628 0 
L 628 4666 
z
" transform="scale(0.015625)"/>
       <path id="DejaVuSans-6f" d="M 1959 3097 
Q 1497 3097 1228 2736 
Q 959 2375 959 1747 
Q 959 1119 1226 758 
Q 1494 397 1959 397 
Q 2419 397 2687 759 
Q 2956 1122 2956 1747 
Q 2956 2369 2687 2733 
Q 2419 3097 1959 3097 
z
M 1959 3584 
Q 2709 3584 3137 3096 
Q 3566 2609 3566 1747 
Q 3566 888 3137 398 
Q 2709 -91 1959 -91 
Q 1206 -91 779 398 
Q 353 888 353 1747 
Q 353 2609 779 3096 
Q 1206 3584 1959 3584 
z
" transform="scale(0.015625)"/>
       <path id="DejaVuSans-46" d="M 628 4666 
L 3309 4666 
L 3309 4134 
L 1259 4134 
L 1259 2759 
L 3109 2759 
L 3109 2228 
L 1259 2228 
L 1259 0 
L 628 0 
L 628 4666 
z
" transform="scale(0.015625)"/>
       <path id="DejaVuSans-4f" d="M 2522 4238 
Q 1834 4238 1429 3725 
Q 1025 3213 1025 2328 
Q 1025 1447 1429 934 
Q 1834 422 2522 422 
Q 3209 422 3611 934 
Q 4013 1447 4013 2328 
Q 4013 3213 3611 3725 
Q 3209 4238 2522 4238 
z
M 2522 4750 
Q 3503 4750 4090 4092 
Q 4678 3434 4678 2328 
Q 4678 1225 4090 567 
Q 3503 -91 2522 -91 
Q 1538 -91 948 565 
Q 359 1222 359 2328 
Q 359 3434 948 4092 
Q 1538 4750 2522 4750 
z
" transform="scale(0.015625)"/>
       <path id="DejaVuSans-41" d="M 2188 4044 
L 1331 1722 
L 3047 1722 
L 2188 4044 
z
M 1831 4666 
L 2547 4666 
L 4325 0 
L 3669 0 
L 3244 1197 
L 1141 1197 
L 716 0 
L 50 0 
L 1831 4666 
z
" transform="scale(0.015625)"/>
       <path id="DejaVuSans-Oblique-3c3" d="M 2219 3044 
Q 1744 3044 1422 2700 
Q 1081 2341 969 1747 
Q 844 1119 1044 756 
Q 1241 397 1706 397 
Q 2166 397 2503 759 
Q 2844 1122 2966 1747 
Q 3075 2319 2881 2700 
Q 2700 3044 2219 3044 
z
M 2309 3503 
L 4219 3500 
L 4106 2925 
L 3463 2925 
Q 3706 2438 3575 1747 
Q 3406 888 2884 400 
Q 2359 -91 1609 -91 
Q 856 -91 525 400 
Q 194 888 363 1747 
Q 528 2609 1050 3097 
Q 1484 3503 2309 3503 
z
" transform="scale(0.015625)"/>
       <path id="DejaVuSans-66" d="M 2375 4863 
L 2375 4384 
L 1825 4384 
Q 1516 4384 1395 4259 
Q 1275 4134 1275 3809 
L 1275 3500 
L 2222 3500 
L 2222 3053 
L 1275 3053 
L 1275 0 
L 697 0 
L 697 3053 
L 147 3053 
L 147 3500 
L 697 3500 
L 697 3744 
Q 697 4328 969 4595 
Q 1241 4863 1831 4863 
L 2375 4863 
z
" transform="scale(0.015625)"/>
      </defs>
      <use xlink:href="#DejaVuSans-43" transform="translate(0 0.125)"/>
      <use xlink:href="#DejaVuSans-52" transform="translate(69.824219 0.125)"/>
      <use xlink:href="#DejaVuSans-4c" transform="translate(139.306641 0.125)"/>
      <use xlink:href="#DejaVuSans-42" transform="translate(195.019531 0.125)"/>
      <use xlink:href="#DejaVuSans-20" transform="translate(263.623047 0.125)"/>
      <use xlink:href="#DejaVuSans-6f" transform="translate(295.410156 0.125)"/>
      <use xlink:href="#DejaVuSans-6e" transform="translate(356.591797 0.125)"/>
      <use xlink:href="#DejaVuSans-20" transform="translate(419.970703 0.125)"/>
      <use xlink:href="#DejaVuSans-46" transform="translate(451.757812 0.125)"/>
      <use xlink:href="#DejaVuSans-4f" transform="translate(509.277344 0.125)"/>
      <use xlink:href="#DejaVuSans-41" transform="translate(587.988281 0.125)"/>
      <use xlink:href="#DejaVuSans-20" transform="translate(656.396484 0.125)"/>
      <use xlink:href="#DejaVuSans-28" transform="translate(688.183594 0.125)"/>
      <use xlink:href="#DejaVuSans-48" transform="translate(727.197266 0.125)"/>
      <use xlink:href="#DejaVuSans-7a" transform="translate(802.392578 0.125)"/>
      <use xlink:href="#DejaVuSans-29" transform="translate(854.882812 0.125)"/>
      <use xlink:href="#DejaVuSans-2c" transform="translate(893.896484 0.125)"/>
      <use xlink:href="#DejaVuSans-20" transform="translate(925.683594 0.125)"/>
      <use xlink:href="#DejaVuSans-Oblique-3c3" transform="translate(957.470703 0.125)"/>
      <use xlink:href="#DejaVuSans-66" transform="translate(1020.849609 -16.28125) scale(0.7)"/>
      <use xlink:href="#DejaVuSans-6f" transform="translate(1045.493164 -16.28125) scale(0.7)"/>
      <use xlink:href="#DejaVuSans-61" transform="translate(1088.320312 -16.28125) scale(0.7)"/>
     </g>
    </g>
   </g>
   <g id="line2d_167">
    <path d="M 168.963375 63.275107 
L 174.108594 63.811828 
L 179.253813 64.348549 
L 184.399031 64.885269 
L 189.54425 65.42199 
L 194.689469 65.95871 
L 199.834688 66.495431 
L 204.979906 67.032152 
L 210.125125 67.568872 
L 215.270344 68.105593 
L 220.415562 68.642314 
L 225.560781 69.179034 
L 230.706 69.715755 
L 235.851219 70.252475 
L 240.996438 70.789196 
L 246.141656 71.325917 
L 251.286875 71.862637 
L 256.432094 72.399358 
L 261.577312 72.936079 
L 266.722531 73.472799 
L 271.86775 74.00952 
L 277.012969 74.54624 
L 282.158188 75.082961 
L 287.303406 75.619682 
L 292.448625 76.156402 
L 297.593844 76.693123 
L 302.739063 77.229844 
L 307.884281 77.766564 
L 313.0295 78.303285 
L 318.174719 78.840005 
L 323.319938 79.376726 
L 328.465156 79.913447 
L 333.610375 80.450167 
L 338.755594 80.986888 
L 343.900813 81.523609 
L 349.046031 82.060329 
L 354.19125 82.59705 
L 359.336469 83.13377 
L 364.481688 83.670491 
L 369.626906 84.207212 
L 374.772125 84.743932 
L 379.917344 85.280653 
L 385.062563 85.817374 
L 390.207781 86.354094 
L 395.353 86.890815 
L 400.498219 87.427535 
L 405.643438 87.964256 
L 410.788656 88.500977 
L 415.933875 89.037697 
L 421.079094 89.574418 
L 426.224313 90.111139 
L 431.369531 90.647859 
L 436.51475 91.18458 
L 441.659969 91.7213 
L 446.805187 92.258021 
L 451.950406 92.794742 
L 457.095625 93.331462 
L 462.240844 93.868183 
L 467.386063 94.404904 
L 472.531281 94.941624 
L 477.6765 95.478345 
L 482.821719 96.015065 
L 487.966938 96.551786 
L 493.112156 97.088507 
L 498.257375 97.625227 
L 503.402594 98.161948 
L 508.547813 98.698669 
L 513.693031 99.235389 
L 518.83825 99.77211 
L 523.983469 100.30883 
L 529.128688 100.845551 
L 534.273906 101.382272 
L 539.419125 101.918992 
L 544.564344 102.455713 
L 549.709563 102.992434 
L 554.854781 103.529154 
L 560 104.065875 
" clip-path="url(#pbaeef203ff)" style="fill: none; stroke: #1f77b4; stroke-linecap: square"/>
   </g>
   <g id="line2d_168">
    <path d="M 45.478125 104.065875 
L 50.623344 104.602595 
L 55.768562 105.139316 
L 60.913781 105.676037 
L 66.059 106.212757 
L 71.204219 106.749478 
L 76.349437 107.286199 
L 81.494656 107.822919 
L 86.639875 108.35964 
L 91.785094 108.89636 
L 96.930313 109.433081 
L 102.075531 109.969802 
L 107.22075 110.506522 
L 112.365969 111.043243 
L 117.511188 111.579964 
L 122.656406 112.116684 
L 127.801625 112.653405 
L 132.946844 113.190125 
L 138.092062 113.726846 
L 143.237281 114.263567 
L 148.3825 114.800287 
L 153.527719 115.337008 
L 158.672938 115.873729 
L 163.818156 116.410449 
L 168.963375 116.94717 
L 174.108594 117.48389 
L 179.253813 118.020611 
L 184.399031 118.557332 
L 189.54425 119.094052 
L 194.689469 119.630773 
L 199.834688 120.167494 
L 204.979906 120.704214 
L 210.125125 121.240935 
L 215.270344 121.777655 
L 220.415562 122.314376 
L 225.560781 122.851097 
L 230.706 123.387817 
L 235.851219 123.924538 
L 240.996438 124.461259 
L 246.141656 124.997979 
L 251.286875 125.5347 
L 256.432094 126.07142 
L 261.577312 126.608141 
L 266.722531 127.144862 
L 271.86775 127.681582 
L 277.012969 128.218303 
L 282.158188 128.755024 
L 287.303406 129.291744 
L 292.448625 129.828465 
L 297.593844 130.365185 
L 302.739063 130.901906 
L 307.884281 131.438627 
L 313.0295 131.975347 
L 318.174719 132.512068 
L 323.319938 133.048789 
L 328.465156 133.585509 
L 333.610375 134.12223 
L 338.755594 134.65895 
L 343.900813 135.195671 
L 349.046031 135.732392 
L 354.19125 136.269112 
L 359.336469 136.805833 
L 364.481688 137.342554 
L 369.626906 137.879274 
L 374.772125 138.415995 
L 379.917344 138.952715 
L 385.062563 139.489436 
L 390.207781 140.026157 
L 395.353 140.562877 
L 400.498219 141.099598 
L 405.643438 141.636319 
L 410.788656 142.173039 
L 415.933875 142.70976 
L 421.079094 143.24648 
L 426.224313 143.783201 
L 431.369531 144.319922 
L 436.51475 144.856642 
L 441.659969 145.393363 
L 446.805187 145.930084 
L 451.950406 146.466804 
L 457.095625 147.003525 
L 462.240844 147.540245 
L 467.386063 148.076966 
L 472.531281 148.613687 
L 477.6765 149.150407 
L 482.821719 149.687128 
L 487.966938 150.223849 
L 493.112156 150.760569 
L 498.257375 151.29729 
L 503.402594 151.83401 
L 508.547813 152.370731 
L 513.693031 152.907452 
L 518.83825 153.444172 
L 523.983469 153.980893 
L 529.128688 154.517614 
L 534.273906 155.054334 
L 539.419125 155.591055 
L 544.564344 156.127775 
L 549.709563 156.664496 
L 554.854781 157.201217 
L 560 157.737937 
" clip-path="url(#pbaeef203ff)" style="fill: none; stroke: #ff7f0e; stroke-linecap: square"/>
   </g>
   <g id="line2d_169">
    <path d="M 45.478125 157.737937 
L 50.623344 158.274658 
L 55.768562 158.811379 
L 60.913781 159.348099 
L 66.059 159.88482 
L 71.204219 160.42154 
L 76.349437 160.958261 
L 81.494656 161.494982 
L 86.639875 162.031702 
L 91.785094 162.568423 
L 96.930313 163.105144 
L 102.075531 163.641864 
L 107.22075 164.178585 
L 112.365969 164.715305 
L 117.511188 165.252026 
L 122.656406 165.788747 
L 127.801625 166.325467 
L 132.946844 166.862188 
L 138.092062 167.398909 
L 143.237281 167.935629 
L 148.3825 168.47235 
L 153.527719 169.00907 
L 158.672938 169.545791 
L 163.818156 170.082512 
L 168.963375 170.619232 
L 174.108594 171.155953 
L 179.253813 171.692674 
L 184.399031 172.229394 
L 189.54425 172.766115 
L 194.689469 173.302835 
L 199.834688 173.839556 
L 204.979906 174.376277 
L 210.125125 174.912997 
L 215.270344 175.449718 
L 220.415562 175.986439 
L 225.560781 176.523159 
L 230.706 177.05988 
L 235.851219 177.5966 
L 240.996438 178.133321 
L 246.141656 178.670042 
L 251.286875 179.206762 
L 256.432094 179.743483 
L 261.577312 180.280204 
L 266.722531 180.816924 
L 271.86775 181.353645 
L 277.012969 181.890365 
L 282.158188 182.427086 
L 287.303406 182.963807 
L 292.448625 183.500527 
L 297.593844 184.037248 
L 302.739063 184.573969 
L 307.884281 185.110689 
L 313.0295 185.64741 
L 318.174719 186.18413 
L 323.319938 186.720851 
L 328.465156 187.257572 
L 333.610375 187.794292 
L 338.755594 188.331013 
L 343.900813 188.867734 
L 349.046031 189.404454 
L 354.19125 189.941175 
L 359.336469 190.477895 
L 364.481688 191.014616 
L 369.626906 191.551337 
L 374.772125 192.088057 
L 379.917344 192.624778 
L 385.062563 193.161499 
L 390.207781 193.698219 
L 395.353 194.23494 
L 400.498219 194.77166 
L 405.643438 195.308381 
L 410.788656 195.845102 
L 415.933875 196.381822 
L 421.079094 196.918543 
L 426.224313 197.455264 
L 431.369531 197.991984 
L 436.51475 198.528705 
L 441.659969 199.065425 
L 446.805187 199.602146 
L 451.950406 200.138867 
L 457.095625 200.675587 
L 462.240844 201.212308 
L 467.386063 201.749029 
L 472.531281 202.285749 
L 477.6765 202.82247 
L 482.821719 203.35919 
L 487.966938 203.895911 
L 493.112156 204.432632 
L 498.257375 204.969352 
L 503.402594 205.506073 
L 508.547813 206.042794 
L 513.693031 206.579514 
L 518.83825 207.116235 
L 523.983469 207.652955 
L 529.128688 208.189676 
L 534.273906 208.726397 
L 539.419125 209.263117 
L 544.564344 209.799838 
L 549.709563 210.336559 
L 554.854781 210.873279 
L 560 211.41 
" clip-path="url(#pbaeef203ff)" style="fill: none; stroke: #2ca02c; stroke-linecap: square"/>
   </g>
   <g id="line2d_170">
    <path d="M 45.478125 211.41 
L 50.623344 211.94672 
L 55.768562 212.483441 
L 60.913781 213.020162 
L 66.059 213.556882 
L 71.204219 214.093603 
L 76.349437 214.630324 
L 81.494656 215.167044 
L 86.639875 215.703765 
L 91.785094 216.240485 
L 96.930313 216.777206 
L 102.075531 217.313927 
L 107.22075 217.850647 
L 112.365969 218.387368 
L 117.511188 218.924089 
L 122.656406 219.460809 
L 127.801625 219.99753 
L 132.946844 220.53425 
L 138.092062 221.070971 
L 143.237281 221.607692 
L 148.3825 222.144412 
L 153.527719 222.681133 
L 158.672938 223.217854 
L 163.818156 223.754574 
L 168.963375 224.291295 
L 174.108594 224.828015 
L 179.253813 225.364736 
L 184.399031 225.901457 
L 189.54425 226.438177 
L 194.689469 226.974898 
L 199.834688 227.511619 
L 204.979906 228.048339 
L 210.125125 228.58506 
L 215.270344 229.12178 
L 220.415562 229.658501 
L 225.560781 230.195222 
L 230.706 230.731942 
L 235.851219 231.268663 
L 240.996438 231.805384 
L 246.141656 232.342104 
L 251.286875 232.878825 
L 256.432094 233.415545 
L 261.577312 233.952266 
L 266.722531 234.488987 
L 271.86775 235.025707 
L 277.012969 235.562428 
L 282.158188 236.099149 
L 287.303406 236.635869 
L 292.448625 237.17259 
L 297.593844 237.70931 
L 302.739063 238.246031 
L 307.884281 238.782752 
L 313.0295 239.319472 
L 318.174719 239.856193 
L 323.319938 240.392914 
L 328.465156 240.929634 
L 333.610375 241.466355 
L 338.755594 242.003075 
L 343.900813 242.539796 
L 349.046031 243.076517 
L 354.19125 243.613237 
L 359.336469 244.149958 
L 364.481688 244.686679 
L 369.626906 245.223399 
L 374.772125 245.76012 
L 379.917344 246.29684 
L 385.062563 246.833561 
L 390.207781 247.370282 
L 395.353 247.907002 
L 400.498219 248.443723 
L 405.643438 248.980444 
L 410.788656 249.517164 
L 415.933875 250.053885 
L 421.079094 250.590605 
L 426.224313 251.127326 
L 431.369531 251.664047 
L 436.51475 252.200767 
L 441.659969 252.737488 
L 446.805187 253.274209 
L 451.950406 253.810929 
L 457.095625 254.34765 
L 462.240844 254.88437 
L 467.386063 255.421091 
L 472.531281 255.957812 
L 477.6765 256.494532 
L 482.821719 257.031253 
L 487.966938 257.567974 
L 493.112156 258.104694 
L 498.257375 258.641415 
L 503.402594 259.178135 
L 508.547813 259.714856 
L 513.693031 260.251577 
L 518.83825 260.788297 
L 523.983469 261.325018 
L 529.128688 261.861739 
L 534.273906 262.398459 
L 539.419125 262.93518 
L 544.564344 263.4719 
L 549.709563 264.008621 
L 554.854781 264.545342 
L 560 265.082062 
" clip-path="url(#pbaeef203ff)" style="fill: none; stroke: #d62728; stroke-linecap: square"/>
   </g>
   <g id="patch_3">
    <path d="M 45.478125 250.44375 
L 45.478125 35.7555 
" style="fill: none; stroke: #000000; stroke-width: 0.8; stroke-linejoin: miter; stroke-linecap: square"/>
   </g>
   <g id="patch_4">
    <path d="M 560 250.44375 
L 560 35.7555 
" style="fill: none; stroke: #000000; stroke-width: 0.8; stroke-linejoin: miter; stroke-linecap: square"/>
   </g>
   <g id="patch_5">
    <path d="M 45.478125 250.44375 
L 560 250.44375 
" style="fill: none; stroke: #000000; stroke-width: 0.8; stroke-linejoin: miter; stroke-linecap: square"/>
   </g>
   <g id="patch_6">
    <path d="M 45.478125 35.7555 
L 560 35.7555 
" style="fill: none; stroke: #000000; stroke-width: 0.8; stroke-linejoin: miter; stroke-linecap: square"/>
   </g>
   <g id="text_14">
    <!-- Cramr-Rao lower bound (CRLB) on FOA estimation error -->
    <g transform="translate(132.071875 16.318125) scale(0.12 -0.12)">
     <defs>
      <path id="DejaVuSans-72" d="M 2631 2963 
Q 2534 3019 2420 3045 
Q 2306 3072 2169 3072 
Q 1681 3072 1420 2755 
Q 1159 2438 1159 1844 
L 1159 0 
L 581 0 
L 581 3500 
L 1159 3500 
L 1159 2956 
Q 1341 3275 1631 3429 
Q 1922 3584 2338 3584 
Q 2397 3584 2469 3576 
Q 2541 3569 2628 3553 
L 2631 2963 
z
" transform="scale(0.015625)"/>
      <path id="DejaVuSans-6d" d="M 3328 2828 
Q 3544 3216 3844 3400 
Q 4144 3584 4550 3584 
Q 5097 3584 5394 3201 
Q 5691 2819 5691 2113 
L 5691 0 
L 5113 0 
L 5113 2094 
Q 5113 2597 4934 2840 
Q 4756 3084 4391 3084 
Q 3944 3084 3684 2787 
Q 3425 2491 3425 1978 
L 3425 0 
L 2847 0 
L 2847 2094 
Q 2847 2600 2669 2842 
Q 2491 3084 2119 3084 
Q 1678 3084 1418 2786 
Q 1159 2488 1159 1978 
L 1159 0 
L 581 0 
L 581 3500 
L 1159 3500 
L 1159 2956 
Q 1356 3278 1631 3431 
Q 1906 3584 2284 3584 
Q 2666 3584 2933 3390 
Q 3200 3197 3328 2828 
z
" transform="scale(0.015625)"/>
      <path id="DejaVuSans-e9" d="M 3597 1894 
L 3597 1613 
L 953 1613 
Q 991 1019 1311 708 
Q 1631 397 2203 397 
Q 2534 397 2845 478 
Q 3156 559 3463 722 
L 3463 178 
Q 3153 47 2828 -22 
Q 2503 -91 2169 -91 
Q 1331 -91 842 396 
Q 353 884 353 1716 
Q 353 2575 817 3079 
Q 1281 3584 2069 3584 
Q 2775 3584 3186 3129 
Q 3597 2675 3597 1894 
z
M 3022 2063 
Q 3016 2534 2758 2815 
Q 2500 3097 2075 3097 
Q 1594 3097 1305 2825 
Q 1016 2553 972 2059 
L 3022 2063 
z
M 2466 5119 
L 3088 5119 
L 2070 3944 
L 1591 3944 
L 2466 5119 
z
" transform="scale(0.015625)"/>
      <path id="DejaVuSans-2d" d="M 313 2009 
L 1997 2009 
L 1997 1497 
L 313 1497 
L 313 2009 
z
" transform="scale(0.015625)"/>
      <path id="DejaVuSans-6c" d="M 603 4863 
L 1178 4863 
L 1178 0 
L 603 0 
L 603 4863 
z
" transform="scale(0.015625)"/>
      <path id="DejaVuSans-65" d="M 3597 1894 
L 3597 1613 
L 953 1613 
Q 991 1019 1311 708 
Q 1631 397 2203 397 
Q 2534 397 2845 478 
Q 3156 559 3463 722 
L 3463 178 
Q 3153 47 2828 -22 
Q 2503 -91 2169 -91 
Q 1331 -91 842 396 
Q 353 884 353 1716 
Q 353 2575 817 3079 
Q 1281 3584 2069 3584 
Q 2775 3584 3186 3129 
Q 3597 2675 3597 1894 
z
M 3022 2063 
Q 3016 2534 2758 2815 
Q 2500 3097 2075 3097 
Q 1594 3097 1305 2825 
Q 1016 2553 972 2059 
L 3022 2063 
z
" transform="scale(0.015625)"/>
      <path id="DejaVuSans-62" d="M 3116 1747 
Q 3116 2381 2855 2742 
Q 2594 3103 2138 3103 
Q 1681 3103 1420 2742 
Q 1159 2381 1159 1747 
Q 1159 1113 1420 752 
Q 1681 391 2138 391 
Q 2594 391 2855 752 
Q 3116 1113 3116 1747 
z
M 1159 2969 
Q 1341 3281 1617 3432 
Q 1894 3584 2278 3584 
Q 2916 3584 3314 3078 
Q 3713 2572 3713 1747 
Q 3713 922 3314 415 
Q 2916 -91 2278 -91 
Q 1894 -91 1617 61 
Q 1341 213 1159 525 
L 1159 0 
L 581 0 
L 581 4863 
L 1159 4863 
L 1159 2969 
z
" transform="scale(0.015625)"/>
      <path id="DejaVuSans-75" d="M 544 1381 
L 544 3500 
L 1119 3500 
L 1119 1403 
Q 1119 906 1312 657 
Q 1506 409 1894 409 
Q 2359 409 2629 706 
Q 2900 1003 2900 1516 
L 2900 3500 
L 3475 3500 
L 3475 0 
L 2900 0 
L 2900 538 
Q 2691 219 2414 64 
Q 2138 -91 1772 -91 
Q 1169 -91 856 284 
Q 544 659 544 1381 
z
M 1991 3584 
L 1991 3584 
z
" transform="scale(0.015625)"/>
      <path id="DejaVuSans-73" d="M 2834 3397 
L 2834 2853 
Q 2591 2978 2328 3040 
Q 2066 3103 1784 3103 
Q 1356 3103 1142 2972 
Q 928 2841 928 2578 
Q 928 2378 1081 2264 
Q 1234 2150 1697 2047 
L 1894 2003 
Q 2506 1872 2764 1633 
Q 3022 1394 3022 966 
Q 3022 478 2636 193 
Q 2250 -91 1575 -91 
Q 1294 -91 989 -36 
Q 684 19 347 128 
L 347 722 
Q 666 556 975 473 
Q 1284 391 1588 391 
Q 1994 391 2212 530 
Q 2431 669 2431 922 
Q 2431 1156 2273 1281 
Q 2116 1406 1581 1522 
L 1381 1569 
Q 847 1681 609 1914 
Q 372 2147 372 2553 
Q 372 3047 722 3315 
Q 1072 3584 1716 3584 
Q 2034 3584 2315 3537 
Q 2597 3491 2834 3397 
z
" transform="scale(0.015625)"/>
     </defs>
     <use xlink:href="#DejaVuSans-43"/>
     <use xlink:href="#DejaVuSans-72" transform="translate(69.824219 0)"/>
     <use xlink:href="#DejaVuSans-61" transform="translate(110.9375 0)"/>
     <use xlink:href="#DejaVuSans-6d" transform="translate(172.216797 0)"/>
     <use xlink:href="#DejaVuSans-e9" transform="translate(269.628906 0)"/>
     <use xlink:href="#DejaVuSans-72" transform="translate(331.152344 0)"/>
     <use xlink:href="#DejaVuSans-2d" transform="translate(365.890625 0)"/>
     <use xlink:href="#DejaVuSans-52" transform="translate(401.974609 0)"/>
     <use xlink:href="#DejaVuSans-61" transform="translate(469.207031 0)"/>
     <use xlink:href="#DejaVuSans-6f" transform="translate(530.486328 0)"/>
     <use xlink:href="#DejaVuSans-20" transform="translate(591.667969 0)"/>
     <use xlink:href="#DejaVuSans-6c" transform="translate(623.455078 0)"/>
     <use xlink:href="#DejaVuSans-6f" transform="translate(651.238281 0)"/>
     <use xlink:href="#DejaVuSans-77" transform="translate(712.419922 0)"/>
     <use xlink:href="#DejaVuSans-65" transform="translate(794.207031 0)"/>
     <use xlink:href="#DejaVuSans-72" transform="translate(855.730469 0)"/>
     <use xlink:href="#DejaVuSans-20" transform="translate(896.84375 0)"/>
     <use xlink:href="#DejaVuSans-62" transform="translate(928.630859 0)"/>
     <use xlink:href="#DejaVuSans-6f" transform="translate(992.107422 0)"/>
     <use xlink:href="#DejaVuSans-75" transform="translate(1053.289062 0)"/>
     <use xlink:href="#DejaVuSans-6e" transform="translate(1116.667969 0)"/>
     <use xlink:href="#DejaVuSans-64" transform="translate(1180.046875 0)"/>
     <use xlink:href="#DejaVuSans-20" transform="translate(1243.523438 0)"/>
     <use xlink:href="#DejaVuSans-28" transform="translate(1275.310547 0)"/>
     <use xlink:href="#DejaVuSans-43" transform="translate(1314.324219 0)"/>
     <use xlink:href="#DejaVuSans-52" transform="translate(1384.148438 0)"/>
     <use xlink:href="#DejaVuSans-4c" transform="translate(1453.630859 0)"/>
     <use xlink:href="#DejaVuSans-42" transform="translate(1509.34375 0)"/>
     <use xlink:href="#DejaVuSans-29" transform="translate(1577.947266 0)"/>
     <use xlink:href="#DejaVuSans-20" transform="translate(1616.960938 0)"/>
     <use xlink:href="#DejaVuSans-6f" transform="translate(1648.748047 0)"/>
     <use xlink:href="#DejaVuSans-6e" transform="translate(1709.929688 0)"/>
     <use xlink:href="#DejaVuSans-20" transform="translate(1773.308594 0)"/>
     <use xlink:href="#DejaVuSans-46" transform="translate(1805.095703 0)"/>
     <use xlink:href="#DejaVuSans-4f" transform="translate(1862.615234 0)"/>
     <use xlink:href="#DejaVuSans-41" transform="translate(1939.576172 0)"/>
     <use xlink:href="#DejaVuSans-20" transform="translate(2007.984375 0)"/>
     <use xlink:href="#DejaVuSans-65" transform="translate(2039.771484 0)"/>
     <use xlink:href="#DejaVuSans-73" transform="translate(2101.294922 0)"/>
     <use xlink:href="#DejaVuSans-74" transform="translate(2153.394531 0)"/>
     <use xlink:href="#DejaVuSans-69" transform="translate(2192.603516 0)"/>
     <use xlink:href="#DejaVuSans-6d" transform="translate(2220.386719 0)"/>
     <use xlink:href="#DejaVuSans-61" transform="translate(2317.798828 0)"/>
     <use xlink:href="#DejaVuSans-74" transform="translate(2379.078125 0)"/>
     <use xlink:href="#DejaVuSans-69" transform="translate(2418.287109 0)"/>
     <use xlink:href="#DejaVuSans-6f" transform="translate(2446.070312 0)"/>
     <use xlink:href="#DejaVuSans-6e" transform="translate(2507.251953 0)"/>
     <use xlink:href="#DejaVuSans-20" transform="translate(2570.630859 0)"/>
     <use xlink:href="#DejaVuSans-65" transform="translate(2602.417969 0)"/>
     <use xlink:href="#DejaVuSans-72" transform="translate(2663.941406 0)"/>
     <use xlink:href="#DejaVuSans-72" transform="translate(2703.304688 0)"/>
     <use xlink:href="#DejaVuSans-6f" transform="translate(2742.167969 0)"/>
     <use xlink:href="#DejaVuSans-72" transform="translate(2803.349609 0)"/>
    </g>
    <!-- standard deviation with 10-dB SNR -->
    <g transform="translate(197.688438 29.7555) scale(0.12 -0.12)">
     <defs>
      <path id="DejaVuSans-76" d="M 191 3500 
L 800 3500 
L 1894 563 
L 2988 3500 
L 3597 3500 
L 2284 0 
L 1503 0 
L 191 3500 
z
" transform="scale(0.015625)"/>
      <path id="DejaVuSans-53" d="M 3425 4513 
L 3425 3897 
Q 3066 4069 2747 4153 
Q 2428 4238 2131 4238 
Q 1616 4238 1336 4038 
Q 1056 3838 1056 3469 
Q 1056 3159 1242 3001 
Q 1428 2844 1947 2747 
L 2328 2669 
Q 3034 2534 3370 2195 
Q 3706 1856 3706 1288 
Q 3706 609 3251 259 
Q 2797 -91 1919 -91 
Q 1588 -91 1214 -16 
Q 841 59 441 206 
L 441 856 
Q 825 641 1194 531 
Q 1563 422 1919 422 
Q 2459 422 2753 634 
Q 3047 847 3047 1241 
Q 3047 1584 2836 1778 
Q 2625 1972 2144 2069 
L 1759 2144 
Q 1053 2284 737 2584 
Q 422 2884 422 3419 
Q 422 4038 858 4394 
Q 1294 4750 2059 4750 
Q 2388 4750 2728 4690 
Q 3069 4631 3425 4513 
z
" transform="scale(0.015625)"/>
      <path id="DejaVuSans-4e" d="M 628 4666 
L 1478 4666 
L 3547 763 
L 3547 4666 
L 4159 4666 
L 4159 0 
L 3309 0 
L 1241 3903 
L 1241 0 
L 628 0 
L 628 4666 
z
" transform="scale(0.015625)"/>
     </defs>
     <use xlink:href="#DejaVuSans-73"/>
     <use xlink:href="#DejaVuSans-74" transform="translate(52.099609 0)"/>
     <use xlink:href="#DejaVuSans-61" transform="translate(91.308594 0)"/>
     <use xlink:href="#DejaVuSans-6e" transform="translate(152.587891 0)"/>
     <use xlink:href="#DejaVuSans-64" transform="translate(215.966797 0)"/>
     <use xlink:href="#DejaVuSans-61" transform="translate(279.443359 0)"/>
     <use xlink:href="#DejaVuSans-72" transform="translate(340.722656 0)"/>
     <use xlink:href="#DejaVuSans-64" transform="translate(380.085938 0)"/>
     <use xlink:href="#DejaVuSans-20" transform="translate(443.5625 0)"/>
     <use xlink:href="#DejaVuSans-64" transform="translate(475.349609 0)"/>
     <use xlink:href="#DejaVuSans-65" transform="translate(538.826172 0)"/>
     <use xlink:href="#DejaVuSans-76" transform="translate(600.349609 0)"/>
     <use xlink:href="#DejaVuSans-69" transform="translate(659.529297 0)"/>
     <use xlink:href="#DejaVuSans-61" transform="translate(687.3125 0)"/>
     <use xlink:href="#DejaVuSans-74" transform="translate(748.591797 0)"/>
     <use xlink:href="#DejaVuSans-69" transform="translate(787.800781 0)"/>
     <use xlink:href="#DejaVuSans-6f" transform="translate(815.583984 0)"/>
     <use xlink:href="#DejaVuSans-6e" transform="translate(876.765625 0)"/>
     <use xlink:href="#DejaVuSans-20" transform="translate(940.144531 0)"/>
     <use xlink:href="#DejaVuSans-77" transform="translate(971.931641 0)"/>
     <use xlink:href="#DejaVuSans-69" transform="translate(1053.71875 0)"/>
     <use xlink:href="#DejaVuSans-74" transform="translate(1081.501953 0)"/>
     <use xlink:href="#DejaVuSans-68" transform="translate(1120.710938 0)"/>
     <use xlink:href="#DejaVuSans-20" transform="translate(1184.089844 0)"/>
     <use xlink:href="#DejaVuSans-31" transform="translate(1215.876953 0)"/>
     <use xlink:href="#DejaVuSans-30" transform="translate(1279.5 0)"/>
     <use xlink:href="#DejaVuSans-2d" transform="translate(1343.123047 0)"/>
     <use xlink:href="#DejaVuSans-64" transform="translate(1379.207031 0)"/>
     <use xlink:href="#DejaVuSans-42" transform="translate(1442.683594 0)"/>
     <use xlink:href="#DejaVuSans-20" transform="translate(1511.287109 0)"/>
     <use xlink:href="#DejaVuSans-53" transform="translate(1543.074219 0)"/>
     <use xlink:href="#DejaVuSans-4e" transform="translate(1606.550781 0)"/>
     <use xlink:href="#DejaVuSans-52" transform="translate(1681.355469 0)"/>
    </g>
   </g>
   <g id="legend_1">
    <g id="patch_7">
     <path d="M 260.302344 117.146125 
L 345.175781 117.146125 
Q 347.175781 117.146125 347.175781 115.146125 
L 347.175781 42.7555 
Q 347.175781 40.7555 345.175781 40.7555 
L 260.302344 40.7555 
Q 258.302344 40.7555 258.302344 42.7555 
L 258.302344 115.146125 
Q 258.302344 117.146125 260.302344 117.146125 
z
" style="fill: #ffffff; opacity: 0.8; stroke: #cccccc; stroke-linejoin: miter"/>
    </g>
    <g id="text_15">
     <!-- Integration time -->
     <g transform="translate(262.302344 52.353937) scale(0.1 -0.1)">
      <defs>
       <path id="DejaVuSans-49" d="M 628 4666 
L 1259 4666 
L 1259 0 
L 628 0 
L 628 4666 
z
" transform="scale(0.015625)"/>
       <path id="DejaVuSans-67" d="M 2906 1791 
Q 2906 2416 2648 2759 
Q 2391 3103 1925 3103 
Q 1463 3103 1205 2759 
Q 947 2416 947 1791 
Q 947 1169 1205 825 
Q 1463 481 1925 481 
Q 2391 481 2648 825 
Q 2906 1169 2906 1791 
z
M 3481 434 
Q 3481 -459 3084 -895 
Q 2688 -1331 1869 -1331 
Q 1566 -1331 1297 -1286 
Q 1028 -1241 775 -1147 
L 775 -588 
Q 1028 -725 1275 -790 
Q 1522 -856 1778 -856 
Q 2344 -856 2625 -561 
Q 2906 -266 2906 331 
L 2906 616 
Q 2728 306 2450 153 
Q 2172 0 1784 0 
Q 1141 0 747 490 
Q 353 981 353 1791 
Q 353 2603 747 3093 
Q 1141 3584 1784 3584 
Q 2172 3584 2450 3431 
Q 2728 3278 2906 2969 
L 2906 3500 
L 3481 3500 
L 3481 434 
z
" transform="scale(0.015625)"/>
      </defs>
      <use xlink:href="#DejaVuSans-49"/>
      <use xlink:href="#DejaVuSans-6e" transform="translate(29.492188 0)"/>
      <use xlink:href="#DejaVuSans-74" transform="translate(92.871094 0)"/>
      <use xlink:href="#DejaVuSans-65" transform="translate(132.080078 0)"/>
      <use xlink:href="#DejaVuSans-67" transform="translate(193.603516 0)"/>
      <use xlink:href="#DejaVuSans-72" transform="translate(257.080078 0)"/>
      <use xlink:href="#DejaVuSans-61" transform="translate(298.193359 0)"/>
      <use xlink:href="#DejaVuSans-74" transform="translate(359.472656 0)"/>
      <use xlink:href="#DejaVuSans-69" transform="translate(398.681641 0)"/>
      <use xlink:href="#DejaVuSans-6f" transform="translate(426.464844 0)"/>
      <use xlink:href="#DejaVuSans-6e" transform="translate(487.646484 0)"/>
      <use xlink:href="#DejaVuSans-20" transform="translate(551.025391 0)"/>
      <use xlink:href="#DejaVuSans-74" transform="translate(582.8125 0)"/>
      <use xlink:href="#DejaVuSans-69" transform="translate(622.021484 0)"/>
      <use xlink:href="#DejaVuSans-6d" transform="translate(649.804688 0)"/>
      <use xlink:href="#DejaVuSans-65" transform="translate(747.216797 0)"/>
     </g>
    </g>
    <g id="line2d_171">
     <path d="M 271.820313 63.532062 
L 281.820313 63.532062 
L 291.820313 63.532062 
" style="fill: none; stroke: #1f77b4; stroke-linecap: square"/>
    </g>
    <g id="text_16">
     <!-- 1 s -->
     <g transform="translate(299.820313 67.032062) scale(0.1 -0.1)">
      <defs>
       <path id="DejaVuSans-3bc" d="M 544 -1331 
L 544 3500 
L 1119 3500 
L 1119 1325 
Q 1119 872 1334 640 
Q 1550 409 1972 409 
Q 2434 409 2667 671 
Q 2900 934 2900 1459 
L 2900 3500 
L 3475 3500 
L 3475 806 
Q 3475 619 3529 530 
Q 3584 441 3700 441 
Q 3728 441 3778 458 
Q 3828 475 3916 513 
L 3916 50 
Q 3788 -22 3673 -56 
Q 3559 -91 3450 -91 
Q 3234 -91 3106 31 
Q 2978 153 2931 403 
Q 2775 156 2548 32 
Q 2322 -91 2016 -91 
Q 1697 -91 1473 31 
Q 1250 153 1119 397 
L 1119 -1331 
L 544 -1331 
z
" transform="scale(0.015625)"/>
      </defs>
      <use xlink:href="#DejaVuSans-31"/>
      <use xlink:href="#DejaVuSans-20" transform="translate(63.623047 0)"/>
      <use xlink:href="#DejaVuSans-3bc" transform="translate(95.410156 0)"/>
      <use xlink:href="#DejaVuSans-73" transform="translate(159.033203 0)"/>
     </g>
    </g>
    <g id="line2d_172">
     <path d="M 271.820313 78.210187 
L 281.820313 78.210187 
L 291.820313 78.210187 
" style="fill: none; stroke: #ff7f0e; stroke-linecap: square"/>
    </g>
    <g id="text_17">
     <!-- 10 s -->
     <g transform="translate(299.820313 81.710187) scale(0.1 -0.1)">
      <use xlink:href="#DejaVuSans-31"/>
      <use xlink:href="#DejaVuSans-30" transform="translate(63.623047 0)"/>
      <use xlink:href="#DejaVuSans-20" transform="translate(127.246094 0)"/>
      <use xlink:href="#DejaVuSans-3bc" transform="translate(159.033203 0)"/>
      <use xlink:href="#DejaVuSans-73" transform="translate(222.65625 0)"/>
     </g>
    </g>
    <g id="line2d_173">
     <path d="M 271.820313 92.888312 
L 281.820313 92.888312 
L 291.820313 92.888312 
" style="fill: none; stroke: #2ca02c; stroke-linecap: square"/>
    </g>
    <g id="text_18">
     <!-- 100 s -->
     <g transform="translate(299.820313 96.388312) scale(0.1 -0.1)">
      <use xlink:href="#DejaVuSans-31"/>
      <use xlink:href="#DejaVuSans-30" transform="translate(63.623047 0)"/>
      <use xlink:href="#DejaVuSans-30" transform="translate(127.246094 0)"/>
      <use xlink:href="#DejaVuSans-20" transform="translate(190.869141 0)"/>
      <use xlink:href="#DejaVuSans-3bc" transform="translate(222.65625 0)"/>
      <use xlink:href="#DejaVuSans-73" transform="translate(286.279297 0)"/>
     </g>
    </g>
    <g id="line2d_174">
     <path d="M 271.820313 107.566437 
L 281.820313 107.566437 
L 291.820313 107.566437 
" style="fill: none; stroke: #d62728; stroke-linecap: square"/>
    </g>
    <g id="text_19">
     <!-- 1 ms -->
     <g transform="translate(299.820313 111.066437) scale(0.1 -0.1)">
      <use xlink:href="#DejaVuSans-31"/>
      <use xlink:href="#DejaVuSans-20" transform="translate(63.623047 0)"/>
      <use xlink:href="#DejaVuSans-6d" transform="translate(95.410156 0)"/>
      <use xlink:href="#DejaVuSans-73" transform="translate(192.822266 0)"/>
     </g>
    </g>
   </g>
  </g>
 </g>
 <defs>
  <clipPath id="pbaeef203ff">
   <rect x="45.478125" y="35.7555" width="514.521875" height="214.68825"/>
  </clipPath>
 </defs>
</svg>
