<?xml version="1.0" encoding="utf-8" standalone="no"?>
<!DOCTYPE svg PUBLIC "-//W3C//DTD SVG 1.1//EN"
  "http://www.w3.org/Graphics/SVG/1.1/DTD/svg11.dtd">
<svg xmlns:xlink="http://www.w3.org/1999/xlink" width="576pt" height="288pt" viewBox="0 0 576 288" xmlns="http://www.w3.org/2000/svg" version="1.1">
 <metadata>
  <rdf:RDF xmlns:dc="http://purl.org/dc/elements/1.1/" xmlns:cc="http://creativecommons.org/ns#" xmlns:rdf="http://www.w3.org/1999/02/22-rdf-syntax-ns#">
   <cc:Work>
    <dc:type rdf:resource="http://purl.org/dc/dcmitype/StillImage"/>
    <dc:date>2025-05-10T16:31:15.088969</dc:date>
    <dc:format>image/svg+xml</dc:format>
    <dc:creator>
     <cc:Agent>
      <dc:title>Matplotlib v3.10.3, https://matplotlib.org/</dc:title>
     </cc:Agent>
    </dc:creator>
   </cc:Work>
  </rdf:RDF>
 </metadata>
 <defs>
  <style type="text/css">*{stroke-linejoin: round; stroke-linecap: butt}</style>
 </defs>
 <g id="figure_1">
  <g id="patch_1">
   <path d="M 0 288 
L 576 288 
L 576 0 
L 0 0 
z
" style="fill: #ffffff"/>
  </g>
  <g id="axes_1">
   <g id="patch_2">
    <path d="M 43.78125 250.421875 
L 568.8 250.421875 
L 568.8 7.2 
L 43.78125 7.2 
z
" style="fill: #ffffff"/>
   </g>
   <g id="matplotlib.axis_1">
    <g id="xtick_1">
     <g id="line2d_1">
      <path d="M 67.645739 250.421875 
L 67.645739 7.2 
" clip-path="url(#p715080ef81)" style="fill: none; stroke-dasharray: 2.96,1.28; stroke-dashoffset: 0; stroke: #b0b0b0; stroke-opacity: 0.8; stroke-width: 0.8"/>
     </g>
     <g id="line2d_2">
      <defs>
       <path id="m965d3549cc" d="M 0 0 
L 0 3.5 
" style="stroke: #000000; stroke-width: 0.8"/>
      </defs>
      <g>
       <use xlink:href="#m965d3549cc" x="67.645739" y="250.421875" style="stroke: #000000; stroke-width: 0.8"/>
      </g>
     </g>
     <g id="text_1">
      <!-- 0 -->
      <g transform="translate(64.464489 265.020312) scale(0.1 -0.1)">
       <defs>
        <path id="DejaVuSans-30" d="M 2034 4250 
Q 1547 4250 1301 3770 
Q 1056 3291 1056 2328 
Q 1056 1369 1301 889 
Q 1547 409 2034 409 
Q 2525 409 2770 889 
Q 3016 1369 3016 2328 
Q 3016 3291 2770 3770 
Q 2525 4250 2034 4250 
z
M 2034 4750 
Q 2819 4750 3233 4129 
Q 3647 3509 3647 2328 
Q 3647 1150 3233 529 
Q 2819 -91 2034 -91 
Q 1250 -91 836 529 
Q 422 1150 422 2328 
Q 422 3509 836 4129 
Q 1250 4750 2034 4750 
z
" transform="scale(0.015625)"/>
       </defs>
       <use xlink:href="#DejaVuSans-30"/>
      </g>
     </g>
    </g>
    <g id="xtick_2">
     <g id="line2d_3">
      <path d="M 160.503671 250.421875 
L 160.503671 7.2 
" clip-path="url(#p715080ef81)" style="fill: none; stroke-dasharray: 2.96,1.28; stroke-dashoffset: 0; stroke: #b0b0b0; stroke-opacity: 0.8; stroke-width: 0.8"/>
     </g>
     <g id="line2d_4">
      <g>
       <use xlink:href="#m965d3549cc" x="160.503671" y="250.421875" style="stroke: #000000; stroke-width: 0.8"/>
      </g>
     </g>
     <g id="text_2">
      <!-- 0.2 -->
      <g transform="translate(152.552109 265.020312) scale(0.1 -0.1)">
       <defs>
        <path id="DejaVuSans-2e" d="M 684 794 
L 1344 794 
L 1344 0 
L 684 0 
L 684 794 
z
" transform="scale(0.015625)"/>
        <path id="DejaVuSans-32" d="M 1228 531 
L 3431 531 
L 3431 0 
L 469 0 
L 469 531 
Q 828 903 1448 1529 
Q 2069 2156 2228 2338 
Q 2531 2678 2651 2914 
Q 2772 3150 2772 3378 
Q 2772 3750 2511 3984 
Q 2250 4219 1831 4219 
Q 1534 4219 1204 4116 
Q 875 4013 500 3803 
L 500 4441 
Q 881 4594 1212 4672 
Q 1544 4750 1819 4750 
Q 2544 4750 2975 4387 
Q 3406 4025 3406 3419 
Q 3406 3131 3298 2873 
Q 3191 2616 2906 2266 
Q 2828 2175 2409 1742 
Q 1991 1309 1228 531 
z
" transform="scale(0.015625)"/>
       </defs>
       <use xlink:href="#DejaVuSans-30"/>
       <use xlink:href="#DejaVuSans-2e" transform="translate(63.623047 0)"/>
       <use xlink:href="#DejaVuSans-32" transform="translate(95.410156 0)"/>
      </g>
     </g>
    </g>
    <g id="xtick_3">
     <g id="line2d_5">
      <path d="M 253.361604 250.421875 
L 253.361604 7.2 
" clip-path="url(#p715080ef81)" style="fill: none; stroke-dasharray: 2.96,1.28; stroke-dashoffset: 0; stroke: #b0b0b0; stroke-opacity: 0.8; stroke-width: 0.8"/>
     </g>
     <g id="line2d_6">
      <g>
       <use xlink:href="#m965d3549cc" x="253.361604" y="250.421875" style="stroke: #000000; stroke-width: 0.8"/>
      </g>
     </g>
     <g id="text_3">
      <!-- 0.4 -->
      <g transform="translate(245.410041 265.020312) scale(0.1 -0.1)">
       <defs>
        <path id="DejaVuSans-34" d="M 2419 4116 
L 825 1625 
L 2419 1625 
L 2419 4116 
z
M 2253 4666 
L 3047 4666 
L 3047 1625 
L 3713 1625 
L 3713 1100 
L 3047 1100 
L 3047 0 
L 2419 0 
L 2419 1100 
L 313 1100 
L 313 1709 
L 2253 4666 
z
" transform="scale(0.015625)"/>
       </defs>
       <use xlink:href="#DejaVuSans-30"/>
       <use xlink:href="#DejaVuSans-2e" transform="translate(63.623047 0)"/>
       <use xlink:href="#DejaVuSans-34" transform="translate(95.410156 0)"/>
      </g>
     </g>
    </g>
    <g id="xtick_4">
     <g id="line2d_7">
      <path d="M 346.219536 250.421875 
L 346.219536 7.2 
" clip-path="url(#p715080ef81)" style="fill: none; stroke-dasharray: 2.96,1.28; stroke-dashoffset: 0; stroke: #b0b0b0; stroke-opacity: 0.8; stroke-width: 0.8"/>
     </g>
     <g id="line2d_8">
      <g>
       <use xlink:href="#m965d3549cc" x="346.219536" y="250.421875" style="stroke: #000000; stroke-width: 0.8"/>
      </g>
     </g>
     <g id="text_4">
      <!-- 0.6 -->
      <g transform="translate(338.267973 265.020312) scale(0.1 -0.1)">
       <defs>
        <path id="DejaVuSans-36" d="M 2113 2584 
Q 1688 2584 1439 2293 
Q 1191 2003 1191 1497 
Q 1191 994 1439 701 
Q 1688 409 2113 409 
Q 2538 409 2786 701 
Q 3034 994 3034 1497 
Q 3034 2003 2786 2293 
Q 2538 2584 2113 2584 
z
M 3366 4563 
L 3366 3988 
Q 3128 4100 2886 4159 
Q 2644 4219 2406 4219 
Q 1781 4219 1451 3797 
Q 1122 3375 1075 2522 
Q 1259 2794 1537 2939 
Q 1816 3084 2150 3084 
Q 2853 3084 3261 2657 
Q 3669 2231 3669 1497 
Q 3669 778 3244 343 
Q 2819 -91 2113 -91 
Q 1303 -91 875 529 
Q 447 1150 447 2328 
Q 447 3434 972 4092 
Q 1497 4750 2381 4750 
Q 2619 4750 2861 4703 
Q 3103 4656 3366 4563 
z
" transform="scale(0.015625)"/>
       </defs>
       <use xlink:href="#DejaVuSans-30"/>
       <use xlink:href="#DejaVuSans-2e" transform="translate(63.623047 0)"/>
       <use xlink:href="#DejaVuSans-36" transform="translate(95.410156 0)"/>
      </g>
     </g>
    </g>
    <g id="xtick_5">
     <g id="line2d_9">
      <path d="M 439.077468 250.421875 
L 439.077468 7.2 
" clip-path="url(#p715080ef81)" style="fill: none; stroke-dasharray: 2.96,1.28; stroke-dashoffset: 0; stroke: #b0b0b0; stroke-opacity: 0.8; stroke-width: 0.8"/>
     </g>
     <g id="line2d_10">
      <g>
       <use xlink:href="#m965d3549cc" x="439.077468" y="250.421875" style="stroke: #000000; stroke-width: 0.8"/>
      </g>
     </g>
     <g id="text_5">
      <!-- 0.8 -->
      <g transform="translate(431.125906 265.020312) scale(0.1 -0.1)">
       <defs>
        <path id="DejaVuSans-38" d="M 2034 2216 
Q 1584 2216 1326 1975 
Q 1069 1734 1069 1313 
Q 1069 891 1326 650 
Q 1584 409 2034 409 
Q 2484 409 2743 651 
Q 3003 894 3003 1313 
Q 3003 1734 2745 1975 
Q 2488 2216 2034 2216 
z
M 1403 2484 
Q 997 2584 770 2862 
Q 544 3141 544 3541 
Q 544 4100 942 4425 
Q 1341 4750 2034 4750 
Q 2731 4750 3128 4425 
Q 3525 4100 3525 3541 
Q 3525 3141 3298 2862 
Q 3072 2584 2669 2484 
Q 3125 2378 3379 2068 
Q 3634 1759 3634 1313 
Q 3634 634 3220 271 
Q 2806 -91 2034 -91 
Q 1263 -91 848 271 
Q 434 634 434 1313 
Q 434 1759 690 2068 
Q 947 2378 1403 2484 
z
M 1172 3481 
Q 1172 3119 1398 2916 
Q 1625 2713 2034 2713 
Q 2441 2713 2670 2916 
Q 2900 3119 2900 3481 
Q 2900 3844 2670 4047 
Q 2441 4250 2034 4250 
Q 1625 4250 1398 4047 
Q 1172 3844 1172 3481 
z
" transform="scale(0.015625)"/>
       </defs>
       <use xlink:href="#DejaVuSans-30"/>
       <use xlink:href="#DejaVuSans-2e" transform="translate(63.623047 0)"/>
       <use xlink:href="#DejaVuSans-38" transform="translate(95.410156 0)"/>
      </g>
     </g>
    </g>
    <g id="xtick_6">
     <g id="line2d_11">
      <path d="M 531.935401 250.421875 
L 531.935401 7.2 
" clip-path="url(#p715080ef81)" style="fill: none; stroke-dasharray: 2.96,1.28; stroke-dashoffset: 0; stroke: #b0b0b0; stroke-opacity: 0.8; stroke-width: 0.8"/>
     </g>
     <g id="line2d_12">
      <g>
       <use xlink:href="#m965d3549cc" x="531.935401" y="250.421875" style="stroke: #000000; stroke-width: 0.8"/>
      </g>
     </g>
     <g id="text_6">
      <!-- 1 -->
      <g transform="translate(528.754151 265.020312) scale(0.1 -0.1)">
       <defs>
        <path id="DejaVuSans-31" d="M 794 531 
L 1825 531 
L 1825 4091 
L 703 3866 
L 703 4441 
L 1819 4666 
L 2450 4666 
L 2450 531 
L 3481 531 
L 3481 0 
L 794 0 
L 794 531 
z
" transform="scale(0.015625)"/>
       </defs>
       <use xlink:href="#DejaVuSans-31"/>
      </g>
     </g>
    </g>
    <g id="text_7">
     <!-- Sample (ksamples), $n$ -->
     <g transform="translate(251.990625 278.7) scale(0.1 -0.1)">
      <defs>
       <path id="DejaVuSans-53" d="M 3425 4513 
L 3425 3897 
Q 3066 4069 2747 4153 
Q 2428 4238 2131 4238 
Q 1616 4238 1336 4038 
Q 1056 3838 1056 3469 
Q 1056 3159 1242 3001 
Q 1428 2844 1947 2747 
L 2328 2669 
Q 3034 2534 3370 2195 
Q 3706 1856 3706 1288 
Q 3706 609 3251 259 
Q 2797 -91 1919 -91 
Q 1588 -91 1214 -16 
Q 841 59 441 206 
L 441 856 
Q 825 641 1194 531 
Q 1563 422 1919 422 
Q 2459 422 2753 634 
Q 3047 847 3047 1241 
Q 3047 1584 2836 1778 
Q 2625 1972 2144 2069 
L 1759 2144 
Q 1053 2284 737 2584 
Q 422 2884 422 3419 
Q 422 4038 858 4394 
Q 1294 4750 2059 4750 
Q 2388 4750 2728 4690 
Q 3069 4631 3425 4513 
z
" transform="scale(0.015625)"/>
       <path id="DejaVuSans-61" d="M 2194 1759 
Q 1497 1759 1228 1600 
Q 959 1441 959 1056 
Q 959 750 1161 570 
Q 1363 391 1709 391 
Q 2188 391 2477 730 
Q 2766 1069 2766 1631 
L 2766 1759 
L 2194 1759 
z
M 3341 1997 
L 3341 0 
L 2766 0 
L 2766 531 
Q 2569 213 2275 61 
Q 1981 -91 1556 -91 
Q 1019 -91 701 211 
Q 384 513 384 1019 
Q 384 1609 779 1909 
Q 1175 2209 1959 2209 
L 2766 2209 
L 2766 2266 
Q 2766 2663 2505 2880 
Q 2244 3097 1772 3097 
Q 1472 3097 1187 3025 
Q 903 2953 641 2809 
L 641 3341 
Q 956 3463 1253 3523 
Q 1550 3584 1831 3584 
Q 2591 3584 2966 3190 
Q 3341 2797 3341 1997 
z
" transform="scale(0.015625)"/>
       <path id="DejaVuSans-6d" d="M 3328 2828 
Q 3544 3216 3844 3400 
Q 4144 3584 4550 3584 
Q 5097 3584 5394 3201 
Q 5691 2819 5691 2113 
L 5691 0 
L 5113 0 
L 5113 2094 
Q 5113 2597 4934 2840 
Q 4756 3084 4391 3084 
Q 3944 3084 3684 2787 
Q 3425 2491 3425 1978 
L 3425 0 
L 2847 0 
L 2847 2094 
Q 2847 2600 2669 2842 
Q 2491 3084 2119 3084 
Q 1678 3084 1418 2786 
Q 1159 2488 1159 1978 
L 1159 0 
L 581 0 
L 581 3500 
L 1159 3500 
L 1159 2956 
Q 1356 3278 1631 3431 
Q 1906 3584 2284 3584 
Q 2666 3584 2933 3390 
Q 3200 3197 3328 2828 
z
" transform="scale(0.015625)"/>
       <path id="DejaVuSans-70" d="M 1159 525 
L 1159 -1331 
L 581 -1331 
L 581 3500 
L 1159 3500 
L 1159 2969 
Q 1341 3281 1617 3432 
Q 1894 3584 2278 3584 
Q 2916 3584 3314 3078 
Q 3713 2572 3713 1747 
Q 3713 922 3314 415 
Q 2916 -91 2278 -91 
Q 1894 -91 1617 61 
Q 1341 213 1159 525 
z
M 3116 1747 
Q 3116 2381 2855 2742 
Q 2594 3103 2138 3103 
Q 1681 3103 1420 2742 
Q 1159 2381 1159 1747 
Q 1159 1113 1420 752 
Q 1681 391 2138 391 
Q 2594 391 2855 752 
Q 3116 1113 3116 1747 
z
" transform="scale(0.015625)"/>
       <path id="DejaVuSans-6c" d="M 603 4863 
L 1178 4863 
L 1178 0 
L 603 0 
L 603 4863 
z
" transform="scale(0.015625)"/>
       <path id="DejaVuSans-65" d="M 3597 1894 
L 3597 1613 
L 953 1613 
Q 991 1019 1311 708 
Q 1631 397 2203 397 
Q 2534 397 2845 478 
Q 3156 559 3463 722 
L 3463 178 
Q 3153 47 2828 -22 
Q 2503 -91 2169 -91 
Q 1331 -91 842 396 
Q 353 884 353 1716 
Q 353 2575 817 3079 
Q 1281 3584 2069 3584 
Q 2775 3584 3186 3129 
Q 3597 2675 3597 1894 
z
M 3022 2063 
Q 3016 2534 2758 2815 
Q 2500 3097 2075 3097 
Q 1594 3097 1305 2825 
Q 1016 2553 972 2059 
L 3022 2063 
z
" transform="scale(0.015625)"/>
       <path id="DejaVuSans-20" transform="scale(0.015625)"/>
       <path id="DejaVuSans-28" d="M 1984 4856 
Q 1566 4138 1362 3434 
Q 1159 2731 1159 2009 
Q 1159 1288 1364 580 
Q 1569 -128 1984 -844 
L 1484 -844 
Q 1016 -109 783 600 
Q 550 1309 550 2009 
Q 550 2706 781 3412 
Q 1013 4119 1484 4856 
L 1984 4856 
z
" transform="scale(0.015625)"/>
       <path id="DejaVuSans-6b" d="M 581 4863 
L 1159 4863 
L 1159 1991 
L 2875 3500 
L 3609 3500 
L 1753 1863 
L 3688 0 
L 2938 0 
L 1159 1709 
L 1159 0 
L 581 0 
L 581 4863 
z
" transform="scale(0.015625)"/>
       <path id="DejaVuSans-73" d="M 2834 3397 
L 2834 2853 
Q 2591 2978 2328 3040 
Q 2066 3103 1784 3103 
Q 1356 3103 1142 2972 
Q 928 2841 928 2578 
Q 928 2378 1081 2264 
Q 1234 2150 1697 2047 
L 1894 2003 
Q 2506 1872 2764 1633 
Q 3022 1394 3022 966 
Q 3022 478 2636 193 
Q 2250 -91 1575 -91 
Q 1294 -91 989 -36 
Q 684 19 347 128 
L 347 722 
Q 666 556 975 473 
Q 1284 391 1588 391 
Q 1994 391 2212 530 
Q 2431 669 2431 922 
Q 2431 1156 2273 1281 
Q 2116 1406 1581 1522 
L 1381 1569 
Q 847 1681 609 1914 
Q 372 2147 372 2553 
Q 372 3047 722 3315 
Q 1072 3584 1716 3584 
Q 2034 3584 2315 3537 
Q 2597 3491 2834 3397 
z
" transform="scale(0.015625)"/>
       <path id="DejaVuSans-29" d="M 513 4856 
L 1013 4856 
Q 1481 4119 1714 3412 
Q 1947 2706 1947 2009 
Q 1947 1309 1714 600 
Q 1481 -109 1013 -844 
L 513 -844 
Q 928 -128 1133 580 
Q 1338 1288 1338 2009 
Q 1338 2731 1133 3434 
Q 928 4138 513 4856 
z
" transform="scale(0.015625)"/>
       <path id="DejaVuSans-2c" d="M 750 794 
L 1409 794 
L 1409 256 
L 897 -744 
L 494 -744 
L 750 256 
L 750 794 
z
" transform="scale(0.015625)"/>
       <path id="DejaVuSans-Oblique-6e" d="M 3566 2113 
L 3156 0 
L 2578 0 
L 2988 2091 
Q 3016 2238 3031 2350 
Q 3047 2463 3047 2528 
Q 3047 2791 2881 2937 
Q 2716 3084 2419 3084 
Q 1956 3084 1622 2776 
Q 1288 2469 1184 1941 
L 800 0 
L 225 0 
L 903 3500 
L 1478 3500 
L 1363 2950 
Q 1603 3253 1940 3418 
Q 2278 3584 2650 3584 
Q 3113 3584 3367 3334 
Q 3622 3084 3622 2631 
Q 3622 2519 3608 2391 
Q 3594 2263 3566 2113 
z
" transform="scale(0.015625)"/>
      </defs>
      <use xlink:href="#DejaVuSans-53" transform="translate(0 0.015625)"/>
      <use xlink:href="#DejaVuSans-61" transform="translate(63.476562 0.015625)"/>
      <use xlink:href="#DejaVuSans-6d" transform="translate(124.755859 0.015625)"/>
      <use xlink:href="#DejaVuSans-70" transform="translate(222.167969 0.015625)"/>
      <use xlink:href="#DejaVuSans-6c" transform="translate(285.644531 0.015625)"/>
      <use xlink:href="#DejaVuSans-65" transform="translate(313.427734 0.015625)"/>
      <use xlink:href="#DejaVuSans-20" transform="translate(374.951172 0.015625)"/>
      <use xlink:href="#DejaVuSans-28" transform="translate(406.738281 0.015625)"/>
      <use xlink:href="#DejaVuSans-6b" transform="translate(445.751953 0.015625)"/>
      <use xlink:href="#DejaVuSans-73" transform="translate(503.662109 0.015625)"/>
      <use xlink:href="#DejaVuSans-61" transform="translate(555.761719 0.015625)"/>
      <use xlink:href="#DejaVuSans-6d" transform="translate(617.041016 0.015625)"/>
      <use xlink:href="#DejaVuSans-70" transform="translate(714.453125 0.015625)"/>
      <use xlink:href="#DejaVuSans-6c" transform="translate(777.929688 0.015625)"/>
      <use xlink:href="#DejaVuSans-65" transform="translate(805.712891 0.015625)"/>
      <use xlink:href="#DejaVuSans-73" transform="translate(867.236328 0.015625)"/>
      <use xlink:href="#DejaVuSans-29" transform="translate(919.335938 0.015625)"/>
      <use xlink:href="#DejaVuSans-2c" transform="translate(958.349609 0.015625)"/>
      <use xlink:href="#DejaVuSans-20" transform="translate(990.136719 0.015625)"/>
      <use xlink:href="#DejaVuSans-Oblique-6e" transform="translate(1021.923828 0.015625)"/>
     </g>
    </g>
   </g>
   <g id="matplotlib.axis_2">
    <g id="ytick_1">
     <g id="line2d_13">
      <path d="M 43.78125 244.194823 
L 568.8 244.194823 
" clip-path="url(#p715080ef81)" style="fill: none; stroke-dasharray: 2.96,1.28; stroke-dashoffset: 0; stroke: #b0b0b0; stroke-opacity: 0.8; stroke-width: 0.8"/>
     </g>
     <g id="line2d_14">
      <defs>
       <path id="m873053c002" d="M 0 0 
L -3.5 0 
" style="stroke: #000000; stroke-width: 0.8"/>
      </defs>
      <g>
       <use xlink:href="#m873053c002" x="43.78125" y="244.194823" style="stroke: #000000; stroke-width: 0.8"/>
      </g>
     </g>
     <g id="text_8">
      <!-- 0.0 -->
      <g transform="translate(20.878125 247.994042) scale(0.1 -0.1)">
       <use xlink:href="#DejaVuSans-30"/>
       <use xlink:href="#DejaVuSans-2e" transform="translate(63.623047 0)"/>
       <use xlink:href="#DejaVuSans-30" transform="translate(95.410156 0)"/>
      </g>
     </g>
    </g>
    <g id="ytick_2">
     <g id="line2d_15">
      <path d="M 43.78125 200.082551 
L 568.8 200.082551 
" clip-path="url(#p715080ef81)" style="fill: none; stroke-dasharray: 2.96,1.28; stroke-dashoffset: 0; stroke: #b0b0b0; stroke-opacity: 0.8; stroke-width: 0.8"/>
     </g>
     <g id="line2d_16">
      <g>
       <use xlink:href="#m873053c002" x="43.78125" y="200.082551" style="stroke: #000000; stroke-width: 0.8"/>
      </g>
     </g>
     <g id="text_9">
      <!-- 0.5 -->
      <g transform="translate(20.878125 203.881769) scale(0.1 -0.1)">
       <defs>
        <path id="DejaVuSans-35" d="M 691 4666 
L 3169 4666 
L 3169 4134 
L 1269 4134 
L 1269 2991 
Q 1406 3038 1543 3061 
Q 1681 3084 1819 3084 
Q 2600 3084 3056 2656 
Q 3513 2228 3513 1497 
Q 3513 744 3044 326 
Q 2575 -91 1722 -91 
Q 1428 -91 1123 -41 
Q 819 9 494 109 
L 494 744 
Q 775 591 1075 516 
Q 1375 441 1709 441 
Q 2250 441 2565 725 
Q 2881 1009 2881 1497 
Q 2881 1984 2565 2268 
Q 2250 2553 1709 2553 
Q 1456 2553 1204 2497 
Q 953 2441 691 2322 
L 691 4666 
z
" transform="scale(0.015625)"/>
       </defs>
       <use xlink:href="#DejaVuSans-30"/>
       <use xlink:href="#DejaVuSans-2e" transform="translate(63.623047 0)"/>
       <use xlink:href="#DejaVuSans-35" transform="translate(95.410156 0)"/>
      </g>
     </g>
    </g>
    <g id="ytick_3">
     <g id="line2d_17">
      <path d="M 43.78125 155.970278 
L 568.8 155.970278 
" clip-path="url(#p715080ef81)" style="fill: none; stroke-dasharray: 2.96,1.28; stroke-dashoffset: 0; stroke: #b0b0b0; stroke-opacity: 0.8; stroke-width: 0.8"/>
     </g>
     <g id="line2d_18">
      <g>
       <use xlink:href="#m873053c002" x="43.78125" y="155.970278" style="stroke: #000000; stroke-width: 0.8"/>
      </g>
     </g>
     <g id="text_10">
      <!-- 1.0 -->
      <g transform="translate(20.878125 159.769497) scale(0.1 -0.1)">
       <use xlink:href="#DejaVuSans-31"/>
       <use xlink:href="#DejaVuSans-2e" transform="translate(63.623047 0)"/>
       <use xlink:href="#DejaVuSans-30" transform="translate(95.410156 0)"/>
      </g>
     </g>
    </g>
    <g id="ytick_4">
     <g id="line2d_19">
      <path d="M 43.78125 111.858006 
L 568.8 111.858006 
" clip-path="url(#p715080ef81)" style="fill: none; stroke-dasharray: 2.96,1.28; stroke-dashoffset: 0; stroke: #b0b0b0; stroke-opacity: 0.8; stroke-width: 0.8"/>
     </g>
     <g id="line2d_20">
      <g>
       <use xlink:href="#m873053c002" x="43.78125" y="111.858006" style="stroke: #000000; stroke-width: 0.8"/>
      </g>
     </g>
     <g id="text_11">
      <!-- 1.5 -->
      <g transform="translate(20.878125 115.657224) scale(0.1 -0.1)">
       <use xlink:href="#DejaVuSans-31"/>
       <use xlink:href="#DejaVuSans-2e" transform="translate(63.623047 0)"/>
       <use xlink:href="#DejaVuSans-35" transform="translate(95.410156 0)"/>
      </g>
     </g>
    </g>
    <g id="ytick_5">
     <g id="line2d_21">
      <path d="M 43.78125 67.745733 
L 568.8 67.745733 
" clip-path="url(#p715080ef81)" style="fill: none; stroke-dasharray: 2.96,1.28; stroke-dashoffset: 0; stroke: #b0b0b0; stroke-opacity: 0.8; stroke-width: 0.8"/>
     </g>
     <g id="line2d_22">
      <g>
       <use xlink:href="#m873053c002" x="43.78125" y="67.745733" style="stroke: #000000; stroke-width: 0.8"/>
      </g>
     </g>
     <g id="text_12">
      <!-- 2.0 -->
      <g transform="translate(20.878125 71.544952) scale(0.1 -0.1)">
       <use xlink:href="#DejaVuSans-32"/>
       <use xlink:href="#DejaVuSans-2e" transform="translate(63.623047 0)"/>
       <use xlink:href="#DejaVuSans-30" transform="translate(95.410156 0)"/>
      </g>
     </g>
    </g>
    <g id="ytick_6">
     <g id="line2d_23">
      <path d="M 43.78125 23.633461 
L 568.8 23.633461 
" clip-path="url(#p715080ef81)" style="fill: none; stroke-dasharray: 2.96,1.28; stroke-dashoffset: 0; stroke: #b0b0b0; stroke-opacity: 0.8; stroke-width: 0.8"/>
     </g>
     <g id="line2d_24">
      <g>
       <use xlink:href="#m873053c002" x="43.78125" y="23.633461" style="stroke: #000000; stroke-width: 0.8"/>
      </g>
     </g>
     <g id="text_13">
      <!-- 2.5 -->
      <g transform="translate(20.878125 27.43268) scale(0.1 -0.1)">
       <use xlink:href="#DejaVuSans-32"/>
       <use xlink:href="#DejaVuSans-2e" transform="translate(63.623047 0)"/>
       <use xlink:href="#DejaVuSans-35" transform="translate(95.410156 0)"/>
      </g>
     </g>
    </g>
    <g id="text_14">
     <!-- Amplitude -->
     <g transform="translate(14.798438 154.433594) rotate(-90) scale(0.1 -0.1)">
      <defs>
       <path id="DejaVuSans-41" d="M 2188 4044 
L 1331 1722 
L 3047 1722 
L 2188 4044 
z
M 1831 4666 
L 2547 4666 
L 4325 0 
L 3669 0 
L 3244 1197 
L 1141 1197 
L 716 0 
L 50 0 
L 1831 4666 
z
" transform="scale(0.015625)"/>
       <path id="DejaVuSans-69" d="M 603 3500 
L 1178 3500 
L 1178 0 
L 603 0 
L 603 3500 
z
M 603 4863 
L 1178 4863 
L 1178 4134 
L 603 4134 
L 603 4863 
z
" transform="scale(0.015625)"/>
       <path id="DejaVuSans-74" d="M 1172 4494 
L 1172 3500 
L 2356 3500 
L 2356 3053 
L 1172 3053 
L 1172 1153 
Q 1172 725 1289 603 
Q 1406 481 1766 481 
L 2356 481 
L 2356 0 
L 1766 0 
Q 1100 0 847 248 
Q 594 497 594 1153 
L 594 3053 
L 172 3053 
L 172 3500 
L 594 3500 
L 594 4494 
L 1172 4494 
z
" transform="scale(0.015625)"/>
       <path id="DejaVuSans-75" d="M 544 1381 
L 544 3500 
L 1119 3500 
L 1119 1403 
Q 1119 906 1312 657 
Q 1506 409 1894 409 
Q 2359 409 2629 706 
Q 2900 1003 2900 1516 
L 2900 3500 
L 3475 3500 
L 3475 0 
L 2900 0 
L 2900 538 
Q 2691 219 2414 64 
Q 2138 -91 1772 -91 
Q 1169 -91 856 284 
Q 544 659 544 1381 
z
M 1991 3584 
L 1991 3584 
z
" transform="scale(0.015625)"/>
       <path id="DejaVuSans-64" d="M 2906 2969 
L 2906 4863 
L 3481 4863 
L 3481 0 
L 2906 0 
L 2906 525 
Q 2725 213 2448 61 
Q 2172 -91 1784 -91 
Q 1150 -91 751 415 
Q 353 922 353 1747 
Q 353 2572 751 3078 
Q 1150 3584 1784 3584 
Q 2172 3584 2448 3432 
Q 2725 3281 2906 2969 
z
M 947 1747 
Q 947 1113 1208 752 
Q 1469 391 1925 391 
Q 2381 391 2643 752 
Q 2906 1113 2906 1747 
Q 2906 2381 2643 2742 
Q 2381 3103 1925 3103 
Q 1469 3103 1208 2742 
Q 947 2381 947 1747 
z
" transform="scale(0.015625)"/>
      </defs>
      <use xlink:href="#DejaVuSans-41"/>
      <use xlink:href="#DejaVuSans-6d" transform="translate(68.408203 0)"/>
      <use xlink:href="#DejaVuSans-70" transform="translate(165.820312 0)"/>
      <use xlink:href="#DejaVuSans-6c" transform="translate(229.296875 0)"/>
      <use xlink:href="#DejaVuSans-69" transform="translate(257.080078 0)"/>
      <use xlink:href="#DejaVuSans-74" transform="translate(284.863281 0)"/>
      <use xlink:href="#DejaVuSans-75" transform="translate(324.072266 0)"/>
      <use xlink:href="#DejaVuSans-64" transform="translate(387.451172 0)"/>
      <use xlink:href="#DejaVuSans-65" transform="translate(450.927734 0)"/>
     </g>
    </g>
   </g>
   <g id="line2d_25">
    <path d="M 67.645739 233.12543 
L 68.110028 226.067004 
L 68.574318 217.307077 
L 69.502897 193.461596 
L 69.967187 190.453957 
L 70.431477 181.778283 
L 71.360056 170.763672 
L 72.288635 157.369298 
L 73.217215 139.091198 
L 74.145794 125.66478 
L 74.610084 118.801868 
L 75.074373 108.526417 
L 75.538663 103.248114 
L 76.002953 96.445802 
L 76.467242 93.075906 
L 76.931532 94.702149 
L 77.860111 78.474553 
L 78.324401 74.775489 
L 78.788691 62.218917 
L 79.25298 60.614306 
L 80.18156 49.266939 
L 81.110139 28.674925 
L 81.574429 33.40701 
L 82.038718 33.471692 
L 82.503008 38.960799 
L 82.967297 51.376021 
L 83.431587 57.891315 
L 83.895877 54.557525 
L 84.360166 53.733501 
L 84.824456 49.752407 
L 85.288746 50.587916 
L 85.753035 52.684429 
L 86.217325 56.191639 
L 87.145904 71.900311 
L 87.610194 66.52126 
L 88.538773 71.594948 
L 89.003063 79.673006 
L 89.467353 76.783215 
L 89.931642 82.45007 
L 90.395932 80.56396 
L 90.860222 75.689486 
L 91.324511 76.47385 
L 91.788801 80.518184 
L 92.253091 81.807636 
L 92.71738 88.565451 
L 93.18167 83.02878 
L 93.64596 82.967732 
L 94.110249 81.527744 
L 95.038829 93.288667 
L 95.967408 97.891411 
L 96.431698 97.67191 
L 96.895987 96.923431 
L 97.360277 95.378507 
L 97.824567 97.019865 
L 98.288856 105.432043 
L 98.753146 107.607065 
L 99.217436 109.136207 
L 99.681725 108.094428 
L 100.610305 98.311371 
L 101.074594 89.942771 
L 101.538884 99.311045 
L 102.003174 96.629037 
L 102.467463 97.354642 
L 102.931753 96.231255 
L 103.396043 100.220004 
L 103.860332 96.390043 
L 104.324622 95.599241 
L 104.788912 96.39233 
L 105.253201 94.880973 
L 105.717491 92.00936 
L 106.181781 93.055148 
L 107.11036 84.279771 
L 107.57465 81.00881 
L 108.503229 83.710914 
L 108.967519 79.543207 
L 109.431808 78.751293 
L 109.896098 74.098924 
L 110.360388 71.09511 
L 110.824677 63.146309 
L 111.288967 62.620078 
L 111.753257 59.36061 
L 112.681836 50.644653 
L 113.146126 47.603228 
L 113.610415 46.573812 
L 114.074705 43.179931 
L 114.538995 47.522761 
L 115.003284 54.609797 
L 115.467574 48.127579 
L 115.931864 52.760735 
L 116.396153 45.030997 
L 116.860443 43.686519 
L 117.324732 44.182356 
L 117.789022 37.611114 
L 118.253312 33.422361 
L 118.717601 24.503716 
L 119.181891 24.48837 
L 119.646181 28.390507 
L 120.11047 18.25554 
L 120.57476 23.420368 
L 121.03905 26.635955 
L 121.503339 27.316836 
L 121.967629 27.243566 
L 122.431919 22.288781 
L 122.896208 22.67769 
L 123.360498 20.385021 
L 123.824788 27.213147 
L 124.289077 26.948582 
L 124.753367 25.92004 
L 125.681946 31.528598 
L 126.146236 32.839184 
L 126.610526 32.652756 
L 127.074815 31.048885 
L 127.539105 31.032791 
L 128.003395 38.834978 
L 128.467684 33.28563 
L 128.931974 31.532454 
L 129.396264 34.289666 
L 129.860553 32.709631 
L 130.324843 36.4362 
L 130.789133 33.524173 
L 131.253422 31.938613 
L 131.717712 36.429052 
L 132.182002 43.997472 
L 132.646291 53.875141 
L 133.110581 55.247483 
L 133.574871 52.224618 
L 134.03916 55.97426 
L 134.50345 48.177715 
L 134.96774 47.760051 
L 135.432029 53.230191 
L 135.896319 49.489393 
L 136.360609 55.165133 
L 136.824898 59.234611 
L 137.289188 60.542297 
L 137.753478 52.270529 
L 138.217767 55.337782 
L 138.682057 61.668847 
L 139.146347 59.91578 
L 139.610636 61.426901 
L 140.074926 56.833963 
L 140.539216 65.448193 
L 141.003505 70.799786 
L 141.467795 73.285607 
L 141.932085 72.486046 
L 142.860664 63.622314 
L 143.324954 63.458449 
L 143.789243 65.192325 
L 144.253533 64.698474 
L 145.182112 73.265896 
L 145.646402 70.9367 
L 146.110692 66.790135 
L 146.574981 59.696539 
L 147.039271 60.05139 
L 147.503561 58.021763 
L 147.96785 61.803823 
L 148.43214 71.853739 
L 148.89643 72.626836 
L 149.360719 72.305073 
L 149.825009 77.617856 
L 150.289299 75.087649 
L 150.753588 73.67881 
L 151.217878 74.519156 
L 151.682167 83.601267 
L 152.146457 83.303843 
L 152.610747 87.412062 
L 153.075036 85.283839 
L 153.539326 88.04403 
L 154.003616 94.605052 
L 154.467905 91.275762 
L 154.932195 90.076186 
L 155.396485 84.250911 
L 155.860774 86.588345 
L 156.325064 91.4774 
L 156.789354 94.384998 
L 157.253643 98.077621 
L 157.717933 92.934976 
L 158.182223 95.922581 
L 158.646512 90.711433 
L 159.110802 83.746767 
L 160.039381 77.880447 
L 160.503671 81.674222 
L 160.967961 83.315513 
L 161.43225 82.601397 
L 161.89654 78.759838 
L 162.36083 73.835807 
L 162.825119 80.595427 
L 163.289409 78.304284 
L 163.753699 78.446858 
L 164.217988 76.284012 
L 164.682278 76.624058 
L 165.146568 72.906355 
L 166.539437 58.55781 
L 167.003726 63.173946 
L 167.932306 56.470731 
L 168.396595 55.509123 
L 168.860885 46.689986 
L 169.325175 51.351982 
L 169.789464 50.361185 
L 170.253754 52.164002 
L 170.718044 53.41183 
L 171.182333 48.56073 
L 171.646623 54.630796 
L 172.110913 53.940267 
L 173.039492 57.488679 
L 173.503782 65.606961 
L 173.968071 70.237131 
L 174.432361 73.339338 
L 174.896651 74.086132 
L 175.36094 78.916488 
L 175.82523 79.619972 
L 176.28952 84.902604 
L 176.753809 77.850069 
L 177.218099 73.383523 
L 177.682389 77.300558 
L 178.146678 76.870216 
L 178.610968 74.59091 
L 179.075258 79.142167 
L 179.539547 81.243352 
L 180.003837 83.946577 
L 180.468127 83.450672 
L 180.932416 81.581979 
L 181.396706 85.30492 
L 181.860996 81.866068 
L 182.325285 79.806122 
L 182.789575 88.842296 
L 183.253865 93.030512 
L 183.718154 88.686895 
L 184.182444 89.362713 
L 184.646734 87.581903 
L 185.111023 89.936939 
L 185.575313 83.372046 
L 186.039602 81.514957 
L 186.503892 84.109064 
L 186.968182 88.860088 
L 187.432471 91.758624 
L 187.896761 89.263925 
L 188.361051 88.57224 
L 188.82534 88.61193 
L 189.28963 88.769125 
L 189.75392 90.147243 
L 191.146789 97.037905 
L 191.611078 90.690422 
L 192.539658 94.562458 
L 193.003947 91.514349 
L 193.468237 98.499736 
L 193.932527 92.356976 
L 194.396816 90.334034 
L 194.861106 91.343898 
L 195.325396 87.564798 
L 195.789685 89.501591 
L 196.718265 96.597911 
L 197.182554 86.214125 
L 197.646844 88.071562 
L 198.111134 83.378132 
L 198.575423 85.830783 
L 199.039713 80.373491 
L 199.504003 81.565096 
L 199.968292 81.817728 
L 200.432582 82.757778 
L 201.361161 68.444034 
L 202.289741 64.761428 
L 202.75403 64.685587 
L 203.21832 56.156536 
L 203.68261 59.119259 
L 204.146899 53.824815 
L 204.611189 51.036588 
L 205.075479 52.289865 
L 205.539768 50.835537 
L 206.004058 51.095985 
L 206.468348 50.294154 
L 206.932637 55.309934 
L 207.396927 42.279982 
L 207.861217 48.379464 
L 208.325506 51.526938 
L 208.789796 47.648611 
L 209.254086 47.853782 
L 209.718375 53.229598 
L 210.182665 56.848609 
L 210.646955 48.836474 
L 211.111244 55.377049 
L 211.575534 55.445161 
L 212.039824 55.275855 
L 212.504113 56.554452 
L 212.968403 63.221448 
L 213.896982 66.708422 
L 214.361272 63.758541 
L 214.825562 68.163982 
L 215.289851 70.373844 
L 215.754141 74.517902 
L 216.218431 74.787036 
L 216.68272 75.763288 
L 217.14701 81.731385 
L 217.6113 81.23409 
L 218.075589 84.237858 
L 218.539879 88.499644 
L 219.004169 89.250705 
L 219.468458 84.328453 
L 219.932748 85.226141 
L 220.397037 83.54045 
L 220.861327 77.500847 
L 221.325617 85.873579 
L 221.789906 83.252083 
L 222.254196 84.733381 
L 222.718486 94.513234 
L 223.182775 91.375265 
L 223.647065 92.615209 
L 224.111355 87.328641 
L 224.575644 91.380454 
L 225.039934 86.03074 
L 225.504224 82.495256 
L 225.968513 86.99803 
L 226.432803 85.707046 
L 226.897093 87.128636 
L 227.361382 87.293448 
L 228.289962 89.343872 
L 228.754251 88.039351 
L 229.218541 86.156793 
L 229.682831 84.812957 
L 230.14712 84.94394 
L 230.61141 86.781359 
L 231.0757 83.575821 
L 231.539989 82.983347 
L 232.004279 81.498052 
L 232.468569 82.112381 
L 232.932858 87.068843 
L 233.397148 95.111091 
L 233.861438 94.449276 
L 234.325727 95.398874 
L 234.790017 95.542183 
L 235.254307 92.034623 
L 235.718596 91.568222 
L 236.182886 87.08687 
L 236.647176 79.312846 
L 237.111465 80.622661 
L 237.575755 76.019583 
L 238.040045 78.50688 
L 238.504334 77.282684 
L 238.968624 85.480397 
L 239.432914 87.797961 
L 239.897203 89.385232 
L 240.361493 84.887342 
L 240.825783 82.050573 
L 241.290072 80.608344 
L 241.754362 78.331586 
L 242.218652 75.367217 
L 242.682941 80.446973 
L 243.147231 82.756765 
L 243.611521 81.196589 
L 244.07581 83.943202 
L 244.5401 78.575997 
L 245.00439 89.222041 
L 245.468679 90.201503 
L 245.932969 88.169621 
L 246.397259 91.508996 
L 246.861548 88.987071 
L 247.325838 91.909836 
L 247.790128 85.65239 
L 248.254417 86.993787 
L 248.718707 87.379525 
L 249.182997 88.045461 
L 249.647286 91.825237 
L 250.111576 97.578768 
L 250.575866 98.390891 
L 251.040155 101.103561 
L 251.504445 98.019886 
L 252.433024 88.402635 
L 252.897314 82.578159 
L 253.361604 85.163419 
L 254.290183 85.744941 
L 254.754472 83.963536 
L 255.218762 89.310042 
L 255.683052 89.716919 
L 256.147341 89.213435 
L 256.611631 84.421228 
L 257.075921 84.356971 
L 257.54021 89.320564 
L 258.0045 88.580739 
L 258.46879 87.36613 
L 258.933079 81.641975 
L 259.397369 79.321551 
L 259.861659 74.339539 
L 260.325948 67.454448 
L 261.254528 58.719534 
L 261.718817 59.09637 
L 262.183107 54.522335 
L 262.647397 53.457127 
L 263.111686 51.090063 
L 263.575976 56.210532 
L 264.040266 51.092931 
L 264.504555 50.617312 
L 264.968845 48.101602 
L 265.433135 47.851273 
L 265.897424 59.263939 
L 266.361714 65.251123 
L 266.826004 66.964584 
L 267.290293 66.576959 
L 267.754583 67.462173 
L 268.218873 67.161326 
L 268.683162 67.394888 
L 269.147452 65.04978 
L 269.611742 65.169368 
L 270.076031 65.148588 
L 270.540321 65.306313 
L 271.93319 56.710793 
L 272.39748 62.473968 
L 272.861769 61.817626 
L 273.326059 60.559663 
L 274.254638 65.431119 
L 274.718928 65.176472 
L 275.183218 68.430998 
L 276.111797 80.584231 
L 276.576087 86.419207 
L 277.040376 85.719224 
L 277.504666 78.197395 
L 277.968956 77.740469 
L 278.433245 76.361193 
L 278.897535 70.693971 
L 279.361825 74.846142 
L 279.826114 73.263288 
L 280.290404 71.002939 
L 280.754694 71.945495 
L 281.218983 72.094516 
L 281.683273 70.806214 
L 282.147563 74.653254 
L 282.611852 74.9342 
L 283.076142 73.557051 
L 283.540432 67.388283 
L 284.004721 72.629086 
L 284.469011 74.977065 
L 284.933301 84.061796 
L 285.39759 83.552375 
L 285.86188 88.319964 
L 286.32617 86.496757 
L 286.790459 87.054747 
L 287.254749 89.713308 
L 287.719039 87.175264 
L 288.647618 81.378256 
L 289.111907 81.13654 
L 289.576197 75.51598 
L 290.040487 73.732697 
L 290.504776 68.362662 
L 290.969066 67.747469 
L 291.433356 71.781959 
L 291.897645 73.85057 
L 292.361935 72.310487 
L 292.826225 86.063701 
L 293.290514 80.234434 
L 293.754804 72.133735 
L 294.219094 72.854248 
L 294.683383 72.056959 
L 295.147673 73.563882 
L 295.611963 71.714441 
L 296.076252 67.187128 
L 296.540542 63.903165 
L 297.004832 54.495368 
L 297.469121 61.807355 
L 298.397701 60.099225 
L 298.86199 56.362686 
L 299.32628 57.331212 
L 299.79057 50.275781 
L 300.254859 48.790043 
L 300.719149 44.755189 
L 301.183439 43.356795 
L 301.647728 49.492292 
L 302.112018 54.12603 
L 302.576308 62.806653 
L 303.040597 64.82214 
L 303.504887 71.608819 
L 303.969177 69.240204 
L 304.433466 68.875971 
L 304.897756 67.859844 
L 305.362046 69.105129 
L 306.290625 78.124499 
L 306.754915 69.797754 
L 307.219204 72.781619 
L 307.683494 71.326385 
L 308.147784 70.355963 
L 308.612073 65.879564 
L 309.076363 63.505354 
L 309.540653 65.161434 
L 310.469232 79.772877 
L 310.933522 86.989957 
L 311.397811 89.386123 
L 312.326391 79.028981 
L 312.79068 83.00363 
L 313.25497 80.233652 
L 313.71926 87.945467 
L 314.183549 86.664031 
L 314.647839 86.286066 
L 315.112129 85.40655 
L 315.576418 88.148094 
L 316.040708 88.160336 
L 316.969287 80.053935 
L 317.433577 77.182929 
L 317.897867 81.333337 
L 318.362156 83.338329 
L 318.826446 90.936044 
L 319.290736 87.729988 
L 319.755025 77.47569 
L 320.219315 76.665757 
L 320.683605 78.48805 
L 321.147894 76.783825 
L 321.612184 87.391817 
L 322.076474 84.753613 
L 322.540763 91.736799 
L 323.005053 90.600072 
L 323.469343 87.631608 
L 323.933632 79.915824 
L 324.397922 78.088468 
L 324.862211 80.794444 
L 325.326501 74.36415 
L 325.790791 84.071545 
L 326.25508 88.165145 
L 326.71937 85.160624 
L 327.18366 89.941294 
L 327.647949 77.440285 
L 328.112239 78.752168 
L 328.576529 81.780625 
L 329.040818 87.210607 
L 329.505108 85.591262 
L 330.897977 79.128746 
L 331.362267 78.50669 
L 331.826556 76.633722 
L 332.290846 75.927038 
L 332.755136 77.753776 
L 333.219425 76.933213 
L 333.683715 79.139881 
L 334.148005 76.27398 
L 334.612294 76.038781 
L 335.076584 81.578764 
L 335.540874 77.34142 
L 336.005163 81.201045 
L 336.469453 76.010549 
L 336.933743 82.232534 
L 337.398032 84.45642 
L 337.862322 90.579999 
L 338.326612 87.484634 
L 338.790901 87.120807 
L 339.255191 92.321596 
L 339.719481 86.006999 
L 340.18377 84.756978 
L 340.64806 81.946919 
L 341.11235 88.665423 
L 341.576639 92.982382 
L 342.040929 91.560089 
L 342.505219 92.779384 
L 342.969508 90.728086 
L 343.433798 87.549577 
L 343.898088 87.012354 
L 345.755246 96.725248 
L 346.219536 102.619269 
L 346.683826 96.011076 
L 347.148115 98.897119 
L 347.612405 100.455163 
L 348.076695 106.324573 
L 348.540984 106.989783 
L 349.005274 104.945511 
L 349.469564 106.540575 
L 349.933853 105.81654 
L 350.398143 110.263726 
L 350.862433 109.647778 
L 351.326722 111.539756 
L 351.791012 106.408256 
L 352.255302 106.083006 
L 352.719591 104.840802 
L 353.183881 102.266411 
L 353.648171 100.970119 
L 354.11246 101.310578 
L 355.04104 91.848444 
L 355.505329 91.456877 
L 355.969619 93.871442 
L 356.433909 93.885316 
L 356.898198 91.586223 
L 357.362488 93.723984 
L 357.826778 98.445267 
L 358.291067 96.523818 
L 358.755357 90.972511 
L 359.219646 88.402166 
L 359.683936 87.881042 
L 360.148226 85.342732 
L 360.612515 86.915462 
L 361.076805 82.767336 
L 361.541095 84.556369 
L 362.469674 78.835063 
L 362.933964 81.209819 
L 363.398253 75.583456 
L 363.862543 73.509668 
L 364.791122 63.537147 
L 365.255412 55.682692 
L 365.719702 54.420229 
L 366.183991 59.983576 
L 366.648281 63.177393 
L 367.112571 65.264566 
L 367.57686 62.896937 
L 368.04115 64.078882 
L 368.50544 69.627151 
L 368.969729 60.630478 
L 369.434019 61.776092 
L 369.898309 67.477119 
L 370.362598 65.884903 
L 370.826888 63.466696 
L 371.291178 61.699983 
L 371.755467 56.771441 
L 372.219757 57.508454 
L 372.684047 66.299556 
L 373.148336 67.224652 
L 373.612626 70.001463 
L 374.076916 70.723263 
L 374.541205 74.092246 
L 375.005495 74.132468 
L 375.469785 72.755758 
L 375.934074 72.739176 
L 376.398364 75.834688 
L 377.326943 70.772717 
L 377.791233 79.079169 
L 378.255523 81.970205 
L 378.719812 83.309247 
L 379.648392 101.637297 
L 380.112681 101.391947 
L 380.576971 97.164673 
L 381.041261 95.111904 
L 381.50555 100.89919 
L 381.96984 97.695734 
L 382.43413 91.744573 
L 383.362709 97.727561 
L 383.826999 87.596403 
L 384.755578 85.286091 
L 385.219868 87.880105 
L 385.684157 97.538536 
L 386.148447 91.115593 
L 386.612737 91.975731 
L 387.077026 90.990746 
L 387.541316 81.208522 
L 388.005606 77.493335 
L 388.469895 70.987319 
L 389.398475 82.251972 
L 389.862764 82.500582 
L 390.327054 77.3833 
L 390.791344 78.332674 
L 391.255633 83.84327 
L 391.719923 77.36705 
L 392.184213 75.293601 
L 392.648502 77.938068 
L 393.112792 75.95583 
L 393.577081 72.553204 
L 394.041371 66.649741 
L 394.505661 66.604712 
L 395.43424 55.975072 
L 395.89853 59.069154 
L 397.291399 60.410208 
L 397.755688 61.717238 
L 398.684268 69.391382 
L 399.148557 63.556075 
L 399.612847 55.518016 
L 400.077137 64.105006 
L 401.005716 57.623151 
L 401.470006 66.249411 
L 401.934295 68.359294 
L 402.398585 72.651534 
L 403.327164 63.598227 
L 403.791454 66.742354 
L 404.255744 72.559088 
L 404.720033 74.283994 
L 405.184323 68.290737 
L 405.648613 66.482997 
L 406.112902 67.937748 
L 406.577192 65.174609 
L 407.041482 64.013716 
L 407.505771 63.186901 
L 407.970061 69.499421 
L 408.434351 62.846176 
L 408.89864 75.719534 
L 409.36293 76.814805 
L 410.755799 88.043958 
L 411.220089 89.434105 
L 411.684378 94.786898 
L 412.148668 87.578032 
L 412.612958 87.115122 
L 413.077247 93.27168 
L 414.005827 88.947033 
L 414.470116 85.464012 
L 414.934406 93.83372 
L 415.398696 91.315954 
L 415.862985 87.905882 
L 416.327275 91.291663 
L 416.791565 90.514493 
L 417.720144 79.725662 
L 418.648723 69.98583 
L 419.113013 75.722851 
L 419.577303 77.995831 
L 420.041592 84.331101 
L 420.505882 84.172134 
L 421.898751 74.206908 
L 422.363041 79.433379 
L 422.82733 76.073743 
L 423.29162 78.031462 
L 423.75591 74.19713 
L 424.220199 68.450964 
L 425.148779 64.179579 
L 425.613068 60.763679 
L 426.077358 68.62772 
L 427.005937 66.491541 
L 427.470227 73.393978 
L 427.934516 73.596706 
L 428.398806 76.648031 
L 428.863096 76.083884 
L 429.327385 77.174157 
L 429.791675 75.066587 
L 430.255965 68.647069 
L 430.720254 68.165563 
L 431.184544 77.098823 
L 431.648834 75.652658 
L 432.113123 77.6317 
L 432.577413 78.0479 
L 433.041703 74.72438 
L 433.505992 78.840195 
L 433.970282 74.353701 
L 434.898861 76.183889 
L 435.363151 80.949489 
L 435.827441 77.162132 
L 436.29173 81.805555 
L 437.22031 80.687316 
L 437.684599 83.911565 
L 438.148889 90.599734 
L 438.613179 92.410684 
L 439.077468 86.793167 
L 440.006048 82.011112 
L 440.470337 83.728465 
L 440.934627 79.887836 
L 441.398917 73.428236 
L 441.863206 71.791262 
L 442.327496 70.934452 
L 443.256075 71.231882 
L 443.720365 77.177763 
L 444.184655 76.813832 
L 444.648944 75.637754 
L 445.113234 73.627571 
L 445.577524 73.652606 
L 446.041813 68.984265 
L 446.506103 72.503713 
L 446.970393 68.800361 
L 447.434682 67.308793 
L 447.898972 67.11952 
L 448.363262 64.923537 
L 449.291841 64.566798 
L 449.756131 70.165097 
L 450.22042 69.602659 
L 450.68471 65.997496 
L 451.149 65.246268 
L 451.613289 55.532618 
L 452.077579 50.251931 
L 452.541869 49.310513 
L 453.006158 52.50513 
L 453.470448 51.883694 
L 453.934738 51.624692 
L 454.399027 50.678997 
L 454.863317 53.294392 
L 455.327607 51.935521 
L 455.791896 55.894959 
L 456.256186 56.775667 
L 456.720476 50.427431 
L 457.184765 49.18078 
L 457.649055 46.910255 
L 458.113345 49.894763 
L 458.577634 50.010356 
L 459.041924 41.800124 
L 459.506214 41.982365 
L 459.970503 47.655367 
L 460.434793 43.469251 
L 460.899083 50.000968 
L 461.363372 49.698371 
L 461.827662 49.669407 
L 462.291951 57.232165 
L 462.756241 60.659539 
L 463.220531 59.219373 
L 463.68482 61.460882 
L 464.14911 62.534053 
L 464.6134 64.779988 
L 465.077689 70.582224 
L 465.541979 78.322504 
L 466.006269 83.928466 
L 466.470558 82.354398 
L 466.934848 79.915535 
L 467.399138 82.340573 
L 467.863427 82.368628 
L 468.792007 81.354299 
L 469.256296 86.894846 
L 470.184876 82.871907 
L 470.649165 88.286521 
L 471.113455 86.656702 
L 471.577745 84.181141 
L 472.042034 84.950385 
L 472.506324 88.520167 
L 472.970614 97.378083 
L 473.434903 96.516527 
L 474.363483 101.94605 
L 474.827772 102.886486 
L 475.292062 100.531936 
L 475.756352 105.904923 
L 476.220641 94.408505 
L 476.684931 93.851679 
L 477.149221 92.652247 
L 477.61351 89.297168 
L 478.0778 88.501592 
L 478.54209 89.827995 
L 479.006379 82.242555 
L 479.470669 82.594185 
L 479.934959 80.222591 
L 480.399248 82.654359 
L 480.863538 87.951848 
L 481.327828 87.070359 
L 481.792117 84.396136 
L 482.256407 85.204187 
L 482.720697 90.054516 
L 483.184986 81.188847 
L 483.649276 83.370269 
L 484.113566 88.811779 
L 484.577855 77.150892 
L 485.042145 80.884805 
L 485.506435 88.363626 
L 485.970724 88.516736 
L 486.435014 86.726122 
L 486.899304 83.583853 
L 487.363593 88.145384 
L 487.827883 79.664224 
L 488.756462 81.501851 
L 489.220752 78.826473 
L 489.685042 69.641439 
L 490.149331 75.94642 
L 490.613621 77.230796 
L 491.077911 74.376604 
L 491.5422 79.772418 
L 492.00649 81.138449 
L 492.47078 75.682566 
L 492.935069 78.599126 
L 493.399359 77.829504 
L 493.863649 77.589397 
L 494.327938 75.681622 
L 494.792228 77.597581 
L 495.256518 75.233668 
L 496.185097 72.953786 
L 496.649386 68.639447 
L 497.113676 67.634661 
L 497.577966 65.928644 
L 498.042255 62.158485 
L 498.506545 68.716343 
L 498.970835 63.201267 
L 499.435124 54.218528 
L 499.899414 52.969071 
L 500.363704 53.143207 
L 500.827993 57.755572 
L 501.292283 56.168256 
L 501.756573 63.999696 
L 502.220862 65.426734 
L 502.685152 56.997575 
L 503.613731 67.624659 
L 504.078021 64.144666 
L 504.542311 56.20689 
L 505.0066 57.822349 
L 505.47089 43.686781 
L 505.93518 40.299095 
L 506.399469 42.38334 
L 506.863759 41.410067 
L 507.328049 36.413656 
L 507.792338 35.959528 
L 508.256628 35.852056 
L 508.720918 34.819247 
L 509.185207 37.853088 
L 509.649497 37.628614 
L 510.113787 39.439317 
L 510.578076 38.016521 
L 511.042366 44.173057 
L 511.506656 40.820664 
L 511.970945 42.423929 
L 512.435235 36.59474 
L 512.899525 44.683411 
L 513.363814 50.442479 
L 513.828104 46.923305 
L 514.292394 46.957412 
L 514.756683 40.463881 
L 515.220973 41.005363 
L 515.685263 38.754209 
L 516.149552 35.757328 
L 516.613842 36.087632 
L 517.542421 27.821011 
L 518.006711 30.831747 
L 518.93529 32.550585 
L 519.39958 36.580123 
L 519.86387 30.437553 
L 520.792449 34.105888 
L 521.256739 40.867107 
L 521.721028 42.781046 
L 522.185318 43.562703 
L 522.649608 39.719074 
L 523.113897 40.863082 
L 523.578187 46.047581 
L 524.042477 41.709971 
L 524.506766 46.023633 
L 524.971056 45.473817 
L 525.435346 49.207072 
L 525.899635 44.710202 
L 526.363925 47.537462 
L 527.292504 42.295022 
L 527.756794 44.527984 
L 528.221084 47.751578 
L 528.685373 49.484304 
L 529.149663 47.175107 
L 529.613953 45.740941 
L 530.078242 46.360368 
L 530.542532 50.698273 
L 531.006821 56.103614 
L 531.935401 63.446425 
L 532.39969 72.177369 
L 532.86398 78.7224 
L 533.792559 100.493882 
L 534.721139 110.160148 
L 535.185428 113.500785 
L 537.506877 140.931953 
L 537.971166 149.944341 
L 538.435456 153.067842 
L 538.899746 160.22317 
L 539.364035 164.911005 
L 539.828325 172.922878 
L 540.292615 182.878316 
L 540.756904 187.868596 
L 541.685484 201.454663 
L 542.149773 204.985344 
L 544.471222 236.859614 
L 544.935511 239.366335 
L 544.935511 239.366335 
" clip-path="url(#p715080ef81)" style="fill: none; stroke: #1f77b4; stroke-linecap: square"/>
   </g>
   <g id="line2d_26">
    <path d="M 67.645739 222.056036 
L 68.574318 194.213898 
L 69.502897 154.627815 
L 69.967187 154.58367 
L 70.431477 143.206399 
L 71.360056 134.918333 
L 71.824346 128.025169 
L 72.288635 123.159328 
L 72.752925 110.91158 
L 73.217215 103.55771 
L 73.681504 100.454597 
L 74.610084 91.839637 
L 75.074373 81.445747 
L 75.538663 81.739079 
L 76.002953 78.964839 
L 76.467242 83.240379 
L 76.931532 97.223161 
L 77.860111 84.751491 
L 78.324401 87.982919 
L 78.788691 73.283902 
L 79.25298 81.468741 
L 79.71727 80.284739 
L 80.18156 80.549752 
L 81.110139 61.842989 
L 81.574429 61.325161 
L 82.038718 59.528985 
L 82.503008 65.298401 
L 82.967297 77.111881 
L 83.431587 78.533764 
L 83.895877 76.894974 
L 84.824456 61.890063 
L 85.288746 64.558557 
L 85.753035 66.54907 
L 86.217325 72.796055 
L 87.145904 89.976012 
L 87.610194 77.020242 
L 88.538773 81.199204 
L 89.003063 87.670793 
L 89.467353 81.76954 
L 89.931642 90.32698 
L 90.395932 90.072824 
L 90.860222 93.85116 
L 91.324511 89.835179 
L 91.788801 91.366919 
L 92.253091 96.736223 
L 92.71738 94.969281 
L 93.18167 90.635085 
L 93.64596 88.717899 
L 94.110249 85.540724 
L 94.574539 88.085244 
L 95.038829 88.862788 
L 95.503118 91.410152 
L 95.967408 91.947285 
L 96.431698 95.116479 
L 96.895987 103.445129 
L 97.360277 100.021613 
L 97.824567 100.233017 
L 98.288856 107.655432 
L 98.753146 102.272869 
L 99.217436 105.307459 
L 99.681725 102.49782 
L 100.146015 95.892768 
L 100.610305 93.257669 
L 101.074594 84.855333 
L 101.538884 90.977489 
L 102.003174 87.062278 
L 102.467463 89.802312 
L 102.931753 93.453586 
L 103.396043 95.144312 
L 103.860332 95.150179 
L 104.324622 92.992872 
L 104.788912 98.162717 
L 105.253201 90.836584 
L 105.717491 86.558337 
L 106.181781 94.33979 
L 107.57465 64.401851 
L 108.038939 65.683029 
L 108.503229 72.11832 
L 108.967519 65.624913 
L 109.431808 68.137641 
L 109.896098 60.921536 
L 110.360388 60.151485 
L 110.824677 54.913533 
L 111.288967 53.672995 
L 111.753257 50.455371 
L 112.217546 51.546305 
L 112.681836 42.122426 
L 113.146126 43.084196 
L 113.610415 42.363943 
L 114.074705 32.980055 
L 115.003284 52.332055 
L 115.467574 47.657995 
L 115.931864 55.897063 
L 116.396153 45.255301 
L 116.860443 49.18742 
L 117.324732 54.820898 
L 117.789022 44.372508 
L 118.253312 37.222873 
L 118.717601 28.273428 
L 119.181891 25.57589 
L 119.646181 33.452629 
L 120.11047 24.504529 
L 120.57476 28.963574 
L 121.03905 26.829294 
L 121.503339 23.985665 
L 121.967629 27.814716 
L 122.431919 26.864993 
L 122.896208 24.166291 
L 123.360498 24.857589 
L 123.824788 34.183074 
L 124.289077 34.666456 
L 124.753367 29.070422 
L 125.217657 35.733972 
L 125.681946 38.748185 
L 126.146236 43.24077 
L 126.610526 33.997737 
L 127.074815 32.293411 
L 127.539105 32.260356 
L 128.003395 39.154415 
L 128.467684 37.888835 
L 128.931974 43.845474 
L 129.396264 45.251609 
L 129.860553 50.491033 
L 130.324843 47.662811 
L 130.789133 45.610375 
L 131.253422 48.311203 
L 131.717712 47.277671 
L 132.646291 64.687203 
L 133.110581 62.306763 
L 133.574871 61.689048 
L 134.03916 58.357803 
L 134.50345 44.966874 
L 134.96774 40.93038 
L 135.432029 48.086958 
L 135.896319 42.82766 
L 136.360609 52.228554 
L 136.824898 55.977905 
L 137.289188 57.163799 
L 137.753478 47.792003 
L 138.682057 59.31298 
L 139.146347 60.454225 
L 139.610636 64.842664 
L 140.074926 58.409739 
L 141.003505 72.290352 
L 141.932085 77.037272 
L 142.396374 65.06903 
L 142.860664 59.663329 
L 143.324954 59.687211 
L 143.789243 67.432012 
L 144.253533 62.486691 
L 144.717823 68.720197 
L 145.182112 77.741014 
L 145.646402 70.087103 
L 146.110692 68.06687 
L 146.574981 62.629305 
L 147.039271 61.09576 
L 147.503561 56.499525 
L 147.96785 61.078368 
L 148.43214 67.605899 
L 148.89643 63.606331 
L 149.825009 72.605874 
L 150.289299 74.961141 
L 150.753588 74.377308 
L 151.217878 76.017266 
L 151.682167 83.552794 
L 152.146457 86.28452 
L 152.610747 98.125849 
L 153.075036 92.423124 
L 153.539326 100.200685 
L 154.003616 104.532603 
L 154.467905 101.773329 
L 154.932195 103.854663 
L 155.396485 92.37195 
L 155.860774 98.334317 
L 156.325064 94.724382 
L 156.789354 93.156853 
L 157.253643 98.333079 
L 157.717933 93.2162 
L 158.182223 92.527142 
L 159.110802 80.252776 
L 159.575092 66.695606 
L 160.039381 58.904643 
L 160.503671 61.665443 
L 160.967961 63.478737 
L 161.43225 57.295405 
L 162.36083 51.280227 
L 162.825119 61.888275 
L 163.289409 62.42185 
L 163.753699 67.117605 
L 164.217988 65.513065 
L 164.682278 66.239195 
L 165.146568 60.986289 
L 165.610857 59.571157 
L 166.075147 55.491233 
L 166.539437 59.051508 
L 167.003726 65.186012 
L 167.468016 67.768423 
L 167.932306 67.867019 
L 168.396595 65.6289 
L 168.860885 52.481589 
L 169.325175 53.74774 
L 169.789464 60.30346 
L 170.718044 65.888666 
L 171.182333 63.180571 
L 171.646623 72.547323 
L 172.110913 71.855133 
L 172.575202 70.660659 
L 173.039492 69.100726 
L 173.503782 72.523589 
L 173.968071 73.604434 
L 174.432361 81.589663 
L 175.36094 85.706341 
L 175.82523 82.061912 
L 176.28952 87.907744 
L 176.753809 81.968887 
L 177.218099 72.230662 
L 177.682389 84.106566 
L 178.146678 80.508745 
L 178.610968 75.676551 
L 179.075258 78.897002 
L 179.539547 80.490193 
L 180.003837 80.422117 
L 180.932416 82.240505 
L 181.396706 91.131832 
L 182.325285 75.441944 
L 182.789575 79.712776 
L 183.253865 87.539948 
L 183.718154 83.15562 
L 184.182444 85.514869 
L 184.646734 83.495343 
L 185.111023 84.323543 
L 186.039602 74.304365 
L 186.503892 78.134823 
L 187.432471 93.700067 
L 187.896761 88.379748 
L 188.361051 93.996585 
L 188.82534 95.227438 
L 189.28963 96.902626 
L 189.75392 95.268015 
L 190.218209 104.82169 
L 190.682499 101.239633 
L 191.146789 95.925369 
L 191.611078 93.526661 
L 192.075368 93.636451 
L 192.539658 91.337531 
L 193.003947 87.417699 
L 193.468237 102.413617 
L 193.932527 88.59846 
L 194.396816 84.913891 
L 194.861106 87.606577 
L 195.325396 88.581967 
L 195.789685 84.288875 
L 196.253975 83.86888 
L 196.718265 94.737751 
L 197.182554 80.795687 
L 197.646844 80.57585 
L 198.111134 73.720224 
L 198.575423 77.39231 
L 199.039713 67.712794 
L 199.504003 66.03082 
L 199.968292 62.56415 
L 200.432582 69.057389 
L 200.896872 61.846429 
L 201.361161 58.182456 
L 201.825451 51.163022 
L 202.289741 55.962719 
L 202.75403 59.57748 
L 203.21832 46.57123 
L 203.68261 54.217491 
L 204.146899 55.91898 
L 204.611189 50.020649 
L 205.075479 50.627539 
L 205.539768 48.34003 
L 206.004058 51.983158 
L 206.468348 50.857462 
L 206.932637 59.667862 
L 207.396927 50.453865 
L 207.861217 52.301655 
L 208.325506 57.331821 
L 208.789796 54.106659 
L 209.254086 57.725716 
L 210.182665 74.262536 
L 210.646955 69.747561 
L 211.575534 71.151914 
L 212.039824 64.585939 
L 212.504113 71.424171 
L 212.968403 75.476523 
L 213.432693 77.22486 
L 213.896982 76.037976 
L 214.361272 75.733197 
L 214.825562 76.888066 
L 215.289851 76.641041 
L 215.754141 76.679151 
L 216.68272 84.25975 
L 217.14701 81.54421 
L 217.6113 85.86435 
L 218.075589 91.463585 
L 218.539879 91.719184 
L 219.004169 91.048294 
L 219.468458 76.221563 
L 219.932748 79.801299 
L 220.397037 73.449678 
L 220.861327 68.674725 
L 221.325617 75.605734 
L 221.789906 70.533741 
L 222.254196 77.311029 
L 222.718486 92.313627 
L 223.182775 87.109616 
L 223.647065 96.146201 
L 224.111355 91.600604 
L 224.575644 94.033382 
L 225.039934 82.519998 
L 225.504224 75.250463 
L 225.968513 77.416799 
L 226.432803 80.817672 
L 226.897093 87.086971 
L 227.361382 88.390901 
L 227.825672 88.663506 
L 228.289962 89.413983 
L 228.754251 87.047758 
L 229.218541 82.358303 
L 229.682831 79.327591 
L 230.14712 83.049884 
L 230.61141 90.486174 
L 231.0757 80.944464 
L 232.004279 86.864598 
L 232.468569 88.655453 
L 232.932858 98.101737 
L 233.861438 99.634198 
L 234.790017 88.010584 
L 235.254307 86.637415 
L 235.718596 79.897176 
L 236.182886 77.08753 
L 236.647176 76.55698 
L 237.111465 75.023042 
L 237.575755 75.659243 
L 238.040045 77.454037 
L 238.504334 78.381528 
L 238.968624 84.307027 
L 239.432914 81.553485 
L 239.897203 86.47416 
L 240.361493 80.275429 
L 240.825783 80.907341 
L 241.290072 79.738789 
L 242.218652 71.698345 
L 242.682941 80.672673 
L 243.147231 81.02781 
L 243.611521 74.965446 
L 244.07581 84.471772 
L 244.5401 81.07886 
L 245.00439 93.456393 
L 245.468679 97.756363 
L 245.932969 95.528443 
L 246.397259 103.420458 
L 246.861548 106.838559 
L 247.325838 112.889169 
L 247.790128 100.185876 
L 248.254417 97.057272 
L 248.718707 91.766575 
L 249.182997 91.474879 
L 249.647286 91.971693 
L 250.111576 99.864142 
L 250.575866 99.439396 
L 251.040155 101.805306 
L 251.968735 85.994262 
L 252.433024 76.151811 
L 252.897314 70.577005 
L 253.361604 73.909319 
L 253.825893 80.061713 
L 254.290183 74.731414 
L 254.754472 72.170117 
L 255.218762 82.277058 
L 255.683052 79.217489 
L 256.147341 73.661995 
L 256.611631 72.920999 
L 257.075921 73.6644 
L 257.54021 78.020117 
L 258.0045 85.843149 
L 258.46879 79.929593 
L 258.933079 80.935434 
L 259.397369 81.429287 
L 259.861659 70.325814 
L 260.325948 66.127822 
L 260.790238 64.054625 
L 261.254528 63.465143 
L 262.183107 45.558812 
L 262.647397 41.570929 
L 263.111686 39.891482 
L 263.575976 54.068126 
L 264.040266 54.252279 
L 264.504555 55.917084 
L 264.968845 56.153062 
L 265.433135 51.379253 
L 265.897424 68.584136 
L 266.361714 71.876729 
L 266.826004 70.01385 
L 267.290293 72.608458 
L 267.754583 80.618003 
L 268.218873 74.648924 
L 268.683162 72.560252 
L 269.147452 77.950968 
L 269.611742 75.418979 
L 270.076031 70.075161 
L 270.540321 69.888736 
L 271.004611 65.037238 
L 271.4689 64.757507 
L 271.93319 67.281315 
L 272.39748 74.131566 
L 272.861769 74.211257 
L 273.326059 72.637462 
L 273.790349 67.160017 
L 274.254638 67.876085 
L 274.718928 65.177043 
L 275.183218 71.021786 
L 275.647507 75.406522 
L 276.111797 75.545073 
L 276.576087 81.228058 
L 277.040376 75.504837 
L 277.504666 72.263599 
L 278.433245 68.155882 
L 278.897535 56.241495 
L 279.361825 59.766133 
L 279.826114 73.246183 
L 280.290404 71.707275 
L 280.754694 71.740804 
L 281.218983 74.518325 
L 281.683273 79.82394 
L 282.147563 81.601879 
L 282.611852 79.61157 
L 283.076142 81.777899 
L 283.540432 66.653246 
L 284.469011 76.731598 
L 284.933301 89.593371 
L 285.39759 86.657722 
L 285.86188 97.256694 
L 286.32617 98.462172 
L 286.790459 98.035803 
L 287.254749 100.190827 
L 287.719039 87.800404 
L 288.647618 71.998141 
L 289.111907 76.904714 
L 289.576197 69.656136 
L 290.040487 66.611478 
L 290.504776 62.149966 
L 290.969066 56.468232 
L 291.433356 62.565081 
L 291.897645 65.406139 
L 292.361935 60.488636 
L 292.826225 76.591829 
L 293.290514 67.101243 
L 293.754804 63.890888 
L 294.219094 64.416692 
L 294.683383 63.341682 
L 295.147673 69.69299 
L 295.611963 71.621412 
L 296.540542 57.447346 
L 297.004832 42.275696 
L 297.469121 44.408497 
L 298.86199 60.956484 
L 299.32628 61.867014 
L 299.79057 60.007836 
L 300.254859 60.725096 
L 300.719149 54.744825 
L 301.647728 59.74981 
L 302.112018 63.701681 
L 303.040597 82.406346 
L 303.504887 88.36435 
L 303.969177 79.335249 
L 304.433466 73.297019 
L 304.897756 64.839895 
L 305.362046 72.869202 
L 305.826335 84.106372 
L 306.290625 86.897874 
L 306.754915 84.586961 
L 307.219204 80.531098 
L 307.683494 73.514949 
L 308.147784 71.458305 
L 308.612073 60.961056 
L 309.076363 62.722654 
L 309.540653 68.427926 
L 310.004942 78.27076 
L 310.469232 82.797698 
L 310.933522 80.370184 
L 311.397811 84.755683 
L 311.862101 78.112108 
L 312.326391 69.114218 
L 312.79068 82.960035 
L 313.25497 76.863706 
L 313.71926 89.428378 
L 314.183549 85.621397 
L 314.647839 77.225443 
L 315.112129 76.212002 
L 315.576418 83.174251 
L 316.040708 85.588976 
L 316.504998 85.93833 
L 316.969287 85.797388 
L 317.433577 85.78731 
L 317.897867 85.230828 
L 318.362156 82.809543 
L 318.826446 88.91368 
L 319.290736 88.925956 
L 319.755025 78.584081 
L 320.683605 81.909143 
L 321.147894 74.623351 
L 321.612184 89.217037 
L 322.076474 80.837177 
L 322.540763 83.681042 
L 323.005053 81.65452 
L 323.469343 80.16074 
L 323.933632 73.789819 
L 324.397922 74.960775 
L 324.862211 78.467673 
L 325.326501 70.11942 
L 325.790791 83.866385 
L 326.25508 82.672076 
L 326.71937 89.604994 
L 327.18366 92.627008 
L 327.647949 79.138776 
L 328.112239 78.641534 
L 328.576529 76.767818 
L 329.040818 86.64485 
L 329.505108 89.672885 
L 329.969398 87.054996 
L 330.433687 83.681156 
L 330.897977 78.990492 
L 331.362267 78.190095 
L 332.290846 71.281949 
L 332.755136 81.808069 
L 333.219425 80.652925 
L 333.683715 75.275923 
L 334.148005 71.304452 
L 334.612294 73.207289 
L 335.076584 77.581588 
L 335.540874 83.503368 
L 336.005163 83.223671 
L 336.469453 75.527445 
L 336.933743 86.488466 
L 337.398032 89.120194 
L 337.862322 94.399133 
L 338.326612 88.005405 
L 338.790901 89.915008 
L 339.255191 91.205176 
L 339.719481 90.917232 
L 340.18377 86.752824 
L 340.64806 87.793574 
L 341.11235 104.373357 
L 342.040929 94.087647 
L 342.505219 93.62278 
L 342.969508 98.273552 
L 343.898088 90.177224 
L 344.362377 91.446353 
L 344.826667 91.141048 
L 345.290957 95.052202 
L 345.755246 94.282167 
L 346.219536 101.632133 
L 346.683826 96.918522 
L 347.148115 100.528102 
L 347.612405 96.942174 
L 348.076695 103.265108 
L 348.540984 104.367654 
L 349.005274 102.576051 
L 349.469564 110.021662 
L 349.933853 106.526009 
L 350.398143 106.170665 
L 350.862433 113.856909 
L 351.326722 118.44803 
L 352.255302 103.32391 
L 352.719591 101.72787 
L 353.183881 97.081732 
L 354.11246 90.13313 
L 354.57675 81.076947 
L 355.04104 89.051816 
L 355.505329 83.652714 
L 355.969619 84.839087 
L 356.433909 85.018539 
L 356.898198 85.644742 
L 357.362488 86.657953 
L 357.826778 92.609179 
L 358.291067 89.873281 
L 358.755357 78.570232 
L 359.219646 78.178753 
L 359.683936 77.491365 
L 360.148226 80.884099 
L 360.612515 80.69915 
L 361.076805 77.093768 
L 362.005384 80.590476 
L 362.469674 77.362305 
L 362.933964 82.12057 
L 363.398253 79.677154 
L 363.862543 74.056892 
L 364.326833 65.637425 
L 364.791122 66.309573 
L 365.255412 58.361608 
L 365.719702 52.903193 
L 366.648281 67.448439 
L 367.112571 69.261944 
L 367.57686 63.109039 
L 368.04115 63.843318 
L 368.50544 67.636328 
L 368.969729 58.513892 
L 369.434019 57.44188 
L 369.898309 71.777695 
L 370.362598 69.643475 
L 370.826888 66.458269 
L 371.291178 65.217152 
L 371.755467 62.740681 
L 372.219757 63.470042 
L 372.684047 71.509413 
L 373.148336 73.438847 
L 374.541205 89.768579 
L 375.005495 85.639013 
L 375.469785 83.870338 
L 375.934074 85.43131 
L 376.398364 88.071441 
L 376.862654 86.85416 
L 377.326943 79.232834 
L 377.791233 90.255095 
L 378.255523 86.537821 
L 378.719812 88.494694 
L 379.648392 107.609787 
L 380.112681 110.320844 
L 381.041261 101.316528 
L 381.50555 104.601223 
L 382.43413 85.898524 
L 382.898419 82.358701 
L 383.362709 84.862919 
L 383.826999 77.108348 
L 384.755578 66.653071 
L 385.219868 70.586996 
L 385.684157 87.069397 
L 386.148447 73.330958 
L 386.612737 82.43321 
L 387.077026 81.66442 
L 387.541316 66.733829 
L 388.005606 64.856957 
L 388.469895 59.46642 
L 389.398475 79.236569 
L 389.862764 81.603677 
L 390.327054 74.264421 
L 390.791344 75.866355 
L 391.255633 79.998742 
L 391.719923 78.017503 
L 392.184213 70.969169 
L 393.112792 85.605716 
L 393.577081 89.053717 
L 394.041371 81.194919 
L 394.505661 78.917172 
L 394.96995 65.631859 
L 395.43424 60.26495 
L 395.89853 60.970086 
L 396.362819 53.981068 
L 396.827109 53.654764 
L 397.291399 58.740253 
L 397.755688 55.341254 
L 398.219978 60.263759 
L 398.684268 62.470568 
L 399.148557 55.01271 
L 399.612847 56.457279 
L 400.077137 61.933629 
L 400.541426 65.052168 
L 401.005716 59.221938 
L 401.470006 63.040034 
L 402.398585 68.771641 
L 402.862875 67.621464 
L 403.327164 69.89706 
L 403.791454 79.175055 
L 404.720033 88.058472 
L 405.184323 79.391537 
L 405.648613 73.835297 
L 406.112902 69.97528 
L 406.577192 72.798977 
L 407.041482 77.260284 
L 407.505771 79.611014 
L 407.970061 85.006772 
L 408.434351 69.168411 
L 408.89864 82.279731 
L 409.36293 77.993505 
L 409.82722 84.86559 
L 410.291509 84.337977 
L 411.684378 99.468774 
L 412.148668 87.031714 
L 412.612958 86.528172 
L 413.077247 89.779591 
L 413.541537 85.04173 
L 414.005827 83.827793 
L 414.470116 78.520679 
L 414.934406 88.531963 
L 415.398696 85.360527 
L 415.862985 79.641497 
L 416.327275 88.621363 
L 416.791565 84.593533 
L 417.255854 73.494023 
L 417.720144 73.198191 
L 418.648723 64.042248 
L 419.113013 68.450439 
L 419.577303 68.169565 
L 420.041592 77.357802 
L 420.505882 79.371398 
L 420.970172 77.033674 
L 421.434461 72.161464 
L 421.898751 71.722322 
L 422.363041 67.222534 
L 422.82733 73.744307 
L 423.29162 73.942548 
L 423.75591 73.416033 
L 424.220199 62.15939 
L 424.684489 63.791463 
L 425.148779 66.990116 
L 425.613068 66.91491 
L 426.077358 72.376189 
L 426.541648 70.933784 
L 427.005937 72.868369 
L 427.470227 83.062798 
L 427.934516 82.386245 
L 428.398806 83.277884 
L 428.863096 91.843727 
L 429.327385 90.632053 
L 429.791675 80.346448 
L 430.720254 72.261512 
L 431.184544 79.850656 
L 431.648834 76.238718 
L 432.113123 74.799393 
L 432.577413 71.217497 
L 433.041703 68.500298 
L 433.505992 76.44773 
L 433.970282 76.111101 
L 434.434572 80.010931 
L 434.898861 79.487827 
L 435.363151 83.983207 
L 435.827441 75.181235 
L 436.75602 84.225485 
L 437.22031 82.688145 
L 437.684599 88.027089 
L 438.148889 89.172714 
L 438.613179 92.625798 
L 439.077468 82.667126 
L 439.541758 77.050554 
L 440.006048 76.768248 
L 440.470337 78.467743 
L 440.934627 72.218807 
L 441.863206 66.488536 
L 442.327496 66.726402 
L 442.791786 76.723913 
L 443.256075 76.786851 
L 443.720365 79.316022 
L 444.184655 74.750689 
L 444.648944 68.332403 
L 445.113234 72.16312 
L 445.577524 69.113756 
L 446.041813 58.812746 
L 446.506103 63.335522 
L 446.970393 53.737084 
L 447.434682 59.685594 
L 447.898972 60.087895 
L 448.827551 61.068457 
L 449.291841 66.440527 
L 450.22042 73.781357 
L 451.149 69.267416 
L 451.613289 56.073775 
L 452.077579 48.788247 
L 452.541869 53.050792 
L 453.006158 52.11969 
L 453.470448 47.29674 
L 453.934738 48.480018 
L 454.399027 50.174005 
L 454.863317 51.042109 
L 455.327607 47.054678 
L 455.791896 53.423595 
L 456.256186 56.293873 
L 456.720476 54.290414 
L 457.184765 53.355617 
L 457.649055 52.905819 
L 458.113345 56.070183 
L 458.577634 51.128451 
L 459.041924 39.685633 
L 459.506214 39.165918 
L 459.970503 42.207434 
L 460.434793 39.464998 
L 461.363372 50.47906 
L 461.827662 51.437202 
L 462.291951 67.715508 
L 462.756241 74.504639 
L 463.220531 76.100631 
L 463.68482 83.503779 
L 464.14911 88.526874 
L 464.6134 89.710259 
L 465.077689 97.909282 
L 465.541979 98.286745 
L 466.006269 99.398942 
L 466.470558 97.139304 
L 466.934848 88.391242 
L 467.399138 86.000266 
L 467.863427 84.659418 
L 468.327717 82.946884 
L 468.792007 80.596033 
L 469.256296 85.719433 
L 469.720586 85.196253 
L 470.184876 82.216923 
L 470.649165 89.314488 
L 471.577745 75.42223 
L 472.042034 78.623987 
L 472.506324 79.318231 
L 472.970614 83.711928 
L 473.434903 78.534013 
L 473.899193 84.056518 
L 474.363483 84.277661 
L 474.827772 88.227387 
L 475.292062 86.562249 
L 475.756352 95.860819 
L 476.220641 86.184715 
L 476.684931 90.628913 
L 477.149221 88.751089 
L 477.61351 88.600716 
L 478.54209 95.317988 
L 479.006379 87.972282 
L 479.470669 89.715473 
L 479.934959 86.655899 
L 480.399248 90.109334 
L 480.863538 92.424913 
L 481.327828 88.002049 
L 481.792117 81.179303 
L 482.256407 81.314879 
L 482.720697 88.773485 
L 483.184986 75.620384 
L 483.649276 80.133319 
L 484.113566 88.374536 
L 484.577855 71.739821 
L 485.042145 73.849919 
L 485.506435 82.040354 
L 485.970724 85.107123 
L 486.435014 81.787932 
L 486.899304 79.732442 
L 487.363593 83.942889 
L 487.827883 72.142481 
L 488.292173 74.917107 
L 488.756462 81.406911 
L 489.220752 74.845717 
L 489.685042 66.55532 
L 490.149331 71.442878 
L 490.613621 79.438617 
L 491.077911 72.598428 
L 491.5422 84.316528 
L 492.00649 90.426351 
L 492.47078 83.224143 
L 492.935069 82.517813 
L 493.399359 83.085391 
L 493.863649 79.987608 
L 494.327938 80.070047 
L 494.792228 86.886829 
L 495.720807 69.621453 
L 496.185097 68.288714 
L 496.649386 67.987053 
L 497.113676 54.210143 
L 498.042255 58.998953 
L 498.506545 57.438326 
L 499.435124 41.321876 
L 499.899414 44.604296 
L 500.363704 44.333567 
L 500.827993 53.999764 
L 501.292283 56.751092 
L 502.220862 68.702794 
L 502.685152 58.748567 
L 503.149442 64.00832 
L 503.613731 67.384194 
L 504.078021 65.256507 
L 504.542311 57.789119 
L 505.0066 55.623149 
L 505.47089 40.201798 
L 505.93518 42.47723 
L 506.863759 42.692846 
L 507.328049 35.9226 
L 507.792338 35.060747 
L 508.256628 37.923367 
L 508.720918 45.484308 
L 509.185207 45.530675 
L 509.649497 38.769479 
L 510.113787 43.114945 
L 510.578076 41.645944 
L 511.042366 41.938178 
L 511.506656 38.579773 
L 511.970945 45.257439 
L 512.435235 32.954534 
L 512.899525 42.797508 
L 513.363814 46.610762 
L 513.828104 42.502241 
L 514.292394 42.439864 
L 514.756683 39.245245 
L 515.220973 44.063171 
L 515.685263 46.081984 
L 516.149552 47.45429 
L 516.613842 39.577238 
L 517.542421 34.73198 
L 518.006711 40.802579 
L 518.471001 36.900174 
L 518.93529 37.629755 
L 519.39958 31.467039 
L 519.86387 22.03965 
L 520.792449 32.004382 
L 521.256739 39.469137 
L 521.721028 42.198726 
L 522.185318 46.148795 
L 522.649608 45.474117 
L 523.113897 47.809181 
L 523.578187 51.265079 
L 524.042477 46.102287 
L 524.506766 53.061454 
L 524.971056 51.493022 
L 525.435346 54.964138 
L 525.899635 51.555772 
L 526.363925 44.487498 
L 526.828215 47.820761 
L 527.292504 46.555097 
L 527.756794 46.916212 
L 528.221084 53.006758 
L 528.685373 52.573132 
L 529.149663 51.884137 
L 529.613953 50.513221 
L 530.078242 52.828965 
L 530.542532 53.269412 
L 531.006821 60.98433 
L 531.471111 63.541387 
L 531.471111 63.541387 
" clip-path="url(#p715080ef81)" style="fill: none; stroke: #ff7f0e; stroke-linecap: square"/>
   </g>
   <g id="patch_3">
    <path d="M 43.78125 250.421875 
L 43.78125 7.2 
" style="fill: none; stroke: #000000; stroke-width: 0.8; stroke-linejoin: miter; stroke-linecap: square"/>
   </g>
   <g id="patch_4">
    <path d="M 568.8 250.421875 
L 568.8 7.2 
" style="fill: none; stroke: #000000; stroke-width: 0.8; stroke-linejoin: miter; stroke-linecap: square"/>
   </g>
   <g id="patch_5">
    <path d="M 43.78125 250.421875 
L 568.8 250.421875 
" style="fill: none; stroke: #000000; stroke-width: 0.8; stroke-linejoin: miter; stroke-linecap: square"/>
   </g>
   <g id="patch_6">
    <path d="M 43.78125 7.2 
L 568.8 7.2 
" style="fill: none; stroke: #000000; stroke-width: 0.8; stroke-linejoin: miter; stroke-linecap: square"/>
   </g>
   <g id="legend_1">
    <g id="patch_7">
     <path d="M 248.048438 245.421875 
L 364.532813 245.421875 
Q 366.532813 245.421875 366.532813 243.421875 
L 366.532813 215.065625 
Q 366.532813 213.065625 364.532813 213.065625 
L 248.048438 213.065625 
Q 246.048438 213.065625 246.048438 215.065625 
L 246.048438 243.421875 
Q 246.048438 245.421875 248.048438 245.421875 
z
" style="fill: #ffffff; opacity: 0.8; stroke: #cccccc; stroke-linejoin: miter"/>
    </g>
    <g id="line2d_27">
     <path d="M 250.048438 221.164062 
L 260.048438 221.164062 
L 270.048438 221.164062 
" style="fill: none; stroke: #1f77b4; stroke-linecap: square"/>
    </g>
    <g id="text_15">
     <!-- Moving Averager -->
     <g transform="translate(278.048438 224.664062) scale(0.1 -0.1)">
      <defs>
       <path id="DejaVuSans-4d" d="M 628 4666 
L 1569 4666 
L 2759 1491 
L 3956 4666 
L 4897 4666 
L 4897 0 
L 4281 0 
L 4281 4097 
L 3078 897 
L 2444 897 
L 1241 4097 
L 1241 0 
L 628 0 
L 628 4666 
z
" transform="scale(0.015625)"/>
       <path id="DejaVuSans-6f" d="M 1959 3097 
Q 1497 3097 1228 2736 
Q 959 2375 959 1747 
Q 959 1119 1226 758 
Q 1494 397 1959 397 
Q 2419 397 2687 759 
Q 2956 1122 2956 1747 
Q 2956 2369 2687 2733 
Q 2419 3097 1959 3097 
z
M 1959 3584 
Q 2709 3584 3137 3096 
Q 3566 2609 3566 1747 
Q 3566 888 3137 398 
Q 2709 -91 1959 -91 
Q 1206 -91 779 398 
Q 353 888 353 1747 
Q 353 2609 779 3096 
Q 1206 3584 1959 3584 
z
" transform="scale(0.015625)"/>
       <path id="DejaVuSans-76" d="M 191 3500 
L 800 3500 
L 1894 563 
L 2988 3500 
L 3597 3500 
L 2284 0 
L 1503 0 
L 191 3500 
z
" transform="scale(0.015625)"/>
       <path id="DejaVuSans-6e" d="M 3513 2113 
L 3513 0 
L 2938 0 
L 2938 2094 
Q 2938 2591 2744 2837 
Q 2550 3084 2163 3084 
Q 1697 3084 1428 2787 
Q 1159 2491 1159 1978 
L 1159 0 
L 581 0 
L 581 3500 
L 1159 3500 
L 1159 2956 
Q 1366 3272 1645 3428 
Q 1925 3584 2291 3584 
Q 2894 3584 3203 3211 
Q 3513 2838 3513 2113 
z
" transform="scale(0.015625)"/>
       <path id="DejaVuSans-67" d="M 2906 1791 
Q 2906 2416 2648 2759 
Q 2391 3103 1925 3103 
Q 1463 3103 1205 2759 
Q 947 2416 947 1791 
Q 947 1169 1205 825 
Q 1463 481 1925 481 
Q 2391 481 2648 825 
Q 2906 1169 2906 1791 
z
M 3481 434 
Q 3481 -459 3084 -895 
Q 2688 -1331 1869 -1331 
Q 1566 -1331 1297 -1286 
Q 1028 -1241 775 -1147 
L 775 -588 
Q 1028 -725 1275 -790 
Q 1522 -856 1778 -856 
Q 2344 -856 2625 -561 
Q 2906 -266 2906 331 
L 2906 616 
Q 2728 306 2450 153 
Q 2172 0 1784 0 
Q 1141 0 747 490 
Q 353 981 353 1791 
Q 353 2603 747 3093 
Q 1141 3584 1784 3584 
Q 2172 3584 2450 3431 
Q 2728 3278 2906 2969 
L 2906 3500 
L 3481 3500 
L 3481 434 
z
" transform="scale(0.015625)"/>
       <path id="DejaVuSans-72" d="M 2631 2963 
Q 2534 3019 2420 3045 
Q 2306 3072 2169 3072 
Q 1681 3072 1420 2755 
Q 1159 2438 1159 1844 
L 1159 0 
L 581 0 
L 581 3500 
L 1159 3500 
L 1159 2956 
Q 1341 3275 1631 3429 
Q 1922 3584 2338 3584 
Q 2397 3584 2469 3576 
Q 2541 3569 2628 3553 
L 2631 2963 
z
" transform="scale(0.015625)"/>
      </defs>
      <use xlink:href="#DejaVuSans-4d"/>
      <use xlink:href="#DejaVuSans-6f" transform="translate(86.279297 0)"/>
      <use xlink:href="#DejaVuSans-76" transform="translate(147.460938 0)"/>
      <use xlink:href="#DejaVuSans-69" transform="translate(206.640625 0)"/>
      <use xlink:href="#DejaVuSans-6e" transform="translate(234.423828 0)"/>
      <use xlink:href="#DejaVuSans-67" transform="translate(297.802734 0)"/>
      <use xlink:href="#DejaVuSans-20" transform="translate(361.279297 0)"/>
      <use xlink:href="#DejaVuSans-41" transform="translate(393.066406 0)"/>
      <use xlink:href="#DejaVuSans-76" transform="translate(455.599609 0)"/>
      <use xlink:href="#DejaVuSans-65" transform="translate(514.779297 0)"/>
      <use xlink:href="#DejaVuSans-72" transform="translate(576.302734 0)"/>
      <use xlink:href="#DejaVuSans-61" transform="translate(617.416016 0)"/>
      <use xlink:href="#DejaVuSans-67" transform="translate(678.695312 0)"/>
      <use xlink:href="#DejaVuSans-65" transform="translate(742.171875 0)"/>
      <use xlink:href="#DejaVuSans-72" transform="translate(803.695312 0)"/>
     </g>
    </g>
    <g id="line2d_28">
     <path d="M 250.048438 235.842187 
L 260.048438 235.842187 
L 270.048438 235.842187 
" style="fill: none; stroke: #ff7f0e; stroke-linecap: square"/>
    </g>
    <g id="text_16">
     <!-- Leaky Integrator -->
     <g transform="translate(278.048438 239.342187) scale(0.1 -0.1)">
      <defs>
       <path id="DejaVuSans-4c" d="M 628 4666 
L 1259 4666 
L 1259 531 
L 3531 531 
L 3531 0 
L 628 0 
L 628 4666 
z
" transform="scale(0.015625)"/>
       <path id="DejaVuSans-79" d="M 2059 -325 
Q 1816 -950 1584 -1140 
Q 1353 -1331 966 -1331 
L 506 -1331 
L 506 -850 
L 844 -850 
Q 1081 -850 1212 -737 
Q 1344 -625 1503 -206 
L 1606 56 
L 191 3500 
L 800 3500 
L 1894 763 
L 2988 3500 
L 3597 3500 
L 2059 -325 
z
" transform="scale(0.015625)"/>
       <path id="DejaVuSans-49" d="M 628 4666 
L 1259 4666 
L 1259 0 
L 628 0 
L 628 4666 
z
" transform="scale(0.015625)"/>
      </defs>
      <use xlink:href="#DejaVuSans-4c"/>
      <use xlink:href="#DejaVuSans-65" transform="translate(53.962891 0)"/>
      <use xlink:href="#DejaVuSans-61" transform="translate(115.486328 0)"/>
      <use xlink:href="#DejaVuSans-6b" transform="translate(176.765625 0)"/>
      <use xlink:href="#DejaVuSans-79" transform="translate(231.050781 0)"/>
      <use xlink:href="#DejaVuSans-20" transform="translate(290.230469 0)"/>
      <use xlink:href="#DejaVuSans-49" transform="translate(322.017578 0)"/>
      <use xlink:href="#DejaVuSans-6e" transform="translate(351.509766 0)"/>
      <use xlink:href="#DejaVuSans-74" transform="translate(414.888672 0)"/>
      <use xlink:href="#DejaVuSans-65" transform="translate(454.097656 0)"/>
      <use xlink:href="#DejaVuSans-67" transform="translate(515.621094 0)"/>
      <use xlink:href="#DejaVuSans-72" transform="translate(579.097656 0)"/>
      <use xlink:href="#DejaVuSans-61" transform="translate(620.210938 0)"/>
      <use xlink:href="#DejaVuSans-74" transform="translate(681.490234 0)"/>
      <use xlink:href="#DejaVuSans-6f" transform="translate(720.699219 0)"/>
      <use xlink:href="#DejaVuSans-72" transform="translate(781.880859 0)"/>
     </g>
    </g>
   </g>
  </g>
 </g>
 <defs>
  <clipPath id="p715080ef81">
   <rect x="43.78125" y="7.2" width="525.01875" height="243.221875"/>
  </clipPath>
 </defs>
</svg>
