<?xml version="1.0" encoding="utf-8" standalone="no"?>
<!DOCTYPE svg PUBLIC "-//W3C//DTD SVG 1.1//EN"
  "http://www.w3.org/Graphics/SVG/1.1/DTD/svg11.dtd">
<svg xmlns:xlink="http://www.w3.org/1999/xlink" width="576pt" height="288pt" viewBox="0 0 576 288" xmlns="http://www.w3.org/2000/svg" version="1.1">
 <metadata>
  <rdf:RDF xmlns:dc="http://purl.org/dc/elements/1.1/" xmlns:cc="http://creativecommons.org/ns#" xmlns:rdf="http://www.w3.org/1999/02/22-rdf-syntax-ns#">
   <cc:Work>
    <dc:type rdf:resource="http://purl.org/dc/dcmitype/StillImage"/>
    <dc:date>2025-05-10T16:17:38.833530</dc:date>
    <dc:format>image/svg+xml</dc:format>
    <dc:creator>
     <cc:Agent>
      <dc:title>Matplotlib v3.10.3, https://matplotlib.org/</dc:title>
     </cc:Agent>
    </dc:creator>
   </cc:Work>
  </rdf:RDF>
 </metadata>
 <defs>
  <style type="text/css">*{stroke-linejoin: round; stroke-linecap: butt}</style>
 </defs>
 <g id="figure_1">
  <g id="patch_1">
   <path d="M 0 288 
L 576 288 
L 576 0 
L 0 0 
z
" style="fill: #ffffff"/>
  </g>
  <g id="axes_1">
   <g id="patch_2">
    <path d="M 57.167188 250.421875 
L 568.8 250.421875 
L 568.8 24.12 
L 57.167188 24.12 
z
" style="fill: #ffffff"/>
   </g>
   <g id="matplotlib.axis_1">
    <g id="xtick_1">
     <g id="line2d_1">
      <path d="M 80.423224 250.421875 
L 80.423224 24.12 
" clip-path="url(#p25272f3445)" style="fill: none; stroke-dasharray: 2.96,1.28; stroke-dashoffset: 0; stroke: #b0b0b0; stroke-opacity: 0.8; stroke-width: 0.8"/>
     </g>
     <g id="line2d_2">
      <defs>
       <path id="me82469a69d" d="M 0 0 
L 0 3.5 
" style="stroke: #000000; stroke-width: 0.8"/>
      </defs>
      <g>
       <use xlink:href="#me82469a69d" x="80.423224" y="250.421875" style="stroke: #000000; stroke-width: 0.8"/>
      </g>
     </g>
     <g id="text_1">
      <!-- 0 -->
      <g transform="translate(77.241974 265.020312) scale(0.1 -0.1)">
       <defs>
        <path id="DejaVuSans-30" d="M 2034 4250 
Q 1547 4250 1301 3770 
Q 1056 3291 1056 2328 
Q 1056 1369 1301 889 
Q 1547 409 2034 409 
Q 2525 409 2770 889 
Q 3016 1369 3016 2328 
Q 3016 3291 2770 3770 
Q 2525 4250 2034 4250 
z
M 2034 4750 
Q 2819 4750 3233 4129 
Q 3647 3509 3647 2328 
Q 3647 1150 3233 529 
Q 2819 -91 2034 -91 
Q 1250 -91 836 529 
Q 422 1150 422 2328 
Q 422 3509 836 4129 
Q 1250 4750 2034 4750 
z
" transform="scale(0.015625)"/>
       </defs>
       <use xlink:href="#DejaVuSans-30"/>
      </g>
     </g>
    </g>
    <g id="xtick_2">
     <g id="line2d_3">
      <path d="M 173.538305 250.421875 
L 173.538305 24.12 
" clip-path="url(#p25272f3445)" style="fill: none; stroke-dasharray: 2.96,1.28; stroke-dashoffset: 0; stroke: #b0b0b0; stroke-opacity: 0.8; stroke-width: 0.8"/>
     </g>
     <g id="line2d_4">
      <g>
       <use xlink:href="#me82469a69d" x="173.538305" y="250.421875" style="stroke: #000000; stroke-width: 0.8"/>
      </g>
     </g>
     <g id="text_2">
      <!-- 0.1 -->
      <g transform="translate(165.586742 265.020312) scale(0.1 -0.1)">
       <defs>
        <path id="DejaVuSans-2e" d="M 684 794 
L 1344 794 
L 1344 0 
L 684 0 
L 684 794 
z
" transform="scale(0.015625)"/>
        <path id="DejaVuSans-31" d="M 794 531 
L 1825 531 
L 1825 4091 
L 703 3866 
L 703 4441 
L 1819 4666 
L 2450 4666 
L 2450 531 
L 3481 531 
L 3481 0 
L 794 0 
L 794 531 
z
" transform="scale(0.015625)"/>
       </defs>
       <use xlink:href="#DejaVuSans-30"/>
       <use xlink:href="#DejaVuSans-2e" transform="translate(63.623047 0)"/>
       <use xlink:href="#DejaVuSans-31" transform="translate(95.410156 0)"/>
      </g>
     </g>
    </g>
    <g id="xtick_3">
     <g id="line2d_5">
      <path d="M 266.653385 250.421875 
L 266.653385 24.12 
" clip-path="url(#p25272f3445)" style="fill: none; stroke-dasharray: 2.96,1.28; stroke-dashoffset: 0; stroke: #b0b0b0; stroke-opacity: 0.8; stroke-width: 0.8"/>
     </g>
     <g id="line2d_6">
      <g>
       <use xlink:href="#me82469a69d" x="266.653385" y="250.421875" style="stroke: #000000; stroke-width: 0.8"/>
      </g>
     </g>
     <g id="text_3">
      <!-- 0.2 -->
      <g transform="translate(258.701823 265.020312) scale(0.1 -0.1)">
       <defs>
        <path id="DejaVuSans-32" d="M 1228 531 
L 3431 531 
L 3431 0 
L 469 0 
L 469 531 
Q 828 903 1448 1529 
Q 2069 2156 2228 2338 
Q 2531 2678 2651 2914 
Q 2772 3150 2772 3378 
Q 2772 3750 2511 3984 
Q 2250 4219 1831 4219 
Q 1534 4219 1204 4116 
Q 875 4013 500 3803 
L 500 4441 
Q 881 4594 1212 4672 
Q 1544 4750 1819 4750 
Q 2544 4750 2975 4387 
Q 3406 4025 3406 3419 
Q 3406 3131 3298 2873 
Q 3191 2616 2906 2266 
Q 2828 2175 2409 1742 
Q 1991 1309 1228 531 
z
" transform="scale(0.015625)"/>
       </defs>
       <use xlink:href="#DejaVuSans-30"/>
       <use xlink:href="#DejaVuSans-2e" transform="translate(63.623047 0)"/>
       <use xlink:href="#DejaVuSans-32" transform="translate(95.410156 0)"/>
      </g>
     </g>
    </g>
    <g id="xtick_4">
     <g id="line2d_7">
      <path d="M 359.768466 250.421875 
L 359.768466 24.12 
" clip-path="url(#p25272f3445)" style="fill: none; stroke-dasharray: 2.96,1.28; stroke-dashoffset: 0; stroke: #b0b0b0; stroke-opacity: 0.8; stroke-width: 0.8"/>
     </g>
     <g id="line2d_8">
      <g>
       <use xlink:href="#me82469a69d" x="359.768466" y="250.421875" style="stroke: #000000; stroke-width: 0.8"/>
      </g>
     </g>
     <g id="text_4">
      <!-- 0.3 -->
      <g transform="translate(351.816903 265.020312) scale(0.1 -0.1)">
       <defs>
        <path id="DejaVuSans-33" d="M 2597 2516 
Q 3050 2419 3304 2112 
Q 3559 1806 3559 1356 
Q 3559 666 3084 287 
Q 2609 -91 1734 -91 
Q 1441 -91 1130 -33 
Q 819 25 488 141 
L 488 750 
Q 750 597 1062 519 
Q 1375 441 1716 441 
Q 2309 441 2620 675 
Q 2931 909 2931 1356 
Q 2931 1769 2642 2001 
Q 2353 2234 1838 2234 
L 1294 2234 
L 1294 2753 
L 1863 2753 
Q 2328 2753 2575 2939 
Q 2822 3125 2822 3475 
Q 2822 3834 2567 4026 
Q 2313 4219 1838 4219 
Q 1578 4219 1281 4162 
Q 984 4106 628 3988 
L 628 4550 
Q 988 4650 1302 4700 
Q 1616 4750 1894 4750 
Q 2613 4750 3031 4423 
Q 3450 4097 3450 3541 
Q 3450 3153 3228 2886 
Q 3006 2619 2597 2516 
z
" transform="scale(0.015625)"/>
       </defs>
       <use xlink:href="#DejaVuSans-30"/>
       <use xlink:href="#DejaVuSans-2e" transform="translate(63.623047 0)"/>
       <use xlink:href="#DejaVuSans-33" transform="translate(95.410156 0)"/>
      </g>
     </g>
    </g>
    <g id="xtick_5">
     <g id="line2d_9">
      <path d="M 452.883546 250.421875 
L 452.883546 24.12 
" clip-path="url(#p25272f3445)" style="fill: none; stroke-dasharray: 2.96,1.28; stroke-dashoffset: 0; stroke: #b0b0b0; stroke-opacity: 0.8; stroke-width: 0.8"/>
     </g>
     <g id="line2d_10">
      <g>
       <use xlink:href="#me82469a69d" x="452.883546" y="250.421875" style="stroke: #000000; stroke-width: 0.8"/>
      </g>
     </g>
     <g id="text_5">
      <!-- 0.4 -->
      <g transform="translate(444.931984 265.020312) scale(0.1 -0.1)">
       <defs>
        <path id="DejaVuSans-34" d="M 2419 4116 
L 825 1625 
L 2419 1625 
L 2419 4116 
z
M 2253 4666 
L 3047 4666 
L 3047 1625 
L 3713 1625 
L 3713 1100 
L 3047 1100 
L 3047 0 
L 2419 0 
L 2419 1100 
L 313 1100 
L 313 1709 
L 2253 4666 
z
" transform="scale(0.015625)"/>
       </defs>
       <use xlink:href="#DejaVuSans-30"/>
       <use xlink:href="#DejaVuSans-2e" transform="translate(63.623047 0)"/>
       <use xlink:href="#DejaVuSans-34" transform="translate(95.410156 0)"/>
      </g>
     </g>
    </g>
    <g id="xtick_6">
     <g id="line2d_11">
      <path d="M 545.998627 250.421875 
L 545.998627 24.12 
" clip-path="url(#p25272f3445)" style="fill: none; stroke-dasharray: 2.96,1.28; stroke-dashoffset: 0; stroke: #b0b0b0; stroke-opacity: 0.8; stroke-width: 0.8"/>
     </g>
     <g id="line2d_12">
      <g>
       <use xlink:href="#me82469a69d" x="545.998627" y="250.421875" style="stroke: #000000; stroke-width: 0.8"/>
      </g>
     </g>
     <g id="text_6">
      <!-- 0.5 -->
      <g transform="translate(538.047064 265.020312) scale(0.1 -0.1)">
       <defs>
        <path id="DejaVuSans-35" d="M 691 4666 
L 3169 4666 
L 3169 4134 
L 1269 4134 
L 1269 2991 
Q 1406 3038 1543 3061 
Q 1681 3084 1819 3084 
Q 2600 3084 3056 2656 
Q 3513 2228 3513 1497 
Q 3513 744 3044 326 
Q 2575 -91 1722 -91 
Q 1428 -91 1123 -41 
Q 819 9 494 109 
L 494 744 
Q 775 591 1075 516 
Q 1375 441 1709 441 
Q 2250 441 2565 725 
Q 2881 1009 2881 1497 
Q 2881 1984 2565 2268 
Q 2250 2553 1709 2553 
Q 1456 2553 1204 2497 
Q 953 2441 691 2322 
L 691 4666 
z
" transform="scale(0.015625)"/>
       </defs>
       <use xlink:href="#DejaVuSans-30"/>
       <use xlink:href="#DejaVuSans-2e" transform="translate(63.623047 0)"/>
       <use xlink:href="#DejaVuSans-35" transform="translate(95.410156 0)"/>
      </g>
     </g>
    </g>
    <g id="text_7">
     <!-- Normalized frequency, $f/f_s$ -->
     <g transform="translate(247.383594 278.7) scale(0.1 -0.1)">
      <defs>
       <path id="DejaVuSans-4e" d="M 628 4666 
L 1478 4666 
L 3547 763 
L 3547 4666 
L 4159 4666 
L 4159 0 
L 3309 0 
L 1241 3903 
L 1241 0 
L 628 0 
L 628 4666 
z
" transform="scale(0.015625)"/>
       <path id="DejaVuSans-6f" d="M 1959 3097 
Q 1497 3097 1228 2736 
Q 959 2375 959 1747 
Q 959 1119 1226 758 
Q 1494 397 1959 397 
Q 2419 397 2687 759 
Q 2956 1122 2956 1747 
Q 2956 2369 2687 2733 
Q 2419 3097 1959 3097 
z
M 1959 3584 
Q 2709 3584 3137 3096 
Q 3566 2609 3566 1747 
Q 3566 888 3137 398 
Q 2709 -91 1959 -91 
Q 1206 -91 779 398 
Q 353 888 353 1747 
Q 353 2609 779 3096 
Q 1206 3584 1959 3584 
z
" transform="scale(0.015625)"/>
       <path id="DejaVuSans-72" d="M 2631 2963 
Q 2534 3019 2420 3045 
Q 2306 3072 2169 3072 
Q 1681 3072 1420 2755 
Q 1159 2438 1159 1844 
L 1159 0 
L 581 0 
L 581 3500 
L 1159 3500 
L 1159 2956 
Q 1341 3275 1631 3429 
Q 1922 3584 2338 3584 
Q 2397 3584 2469 3576 
Q 2541 3569 2628 3553 
L 2631 2963 
z
" transform="scale(0.015625)"/>
       <path id="DejaVuSans-6d" d="M 3328 2828 
Q 3544 3216 3844 3400 
Q 4144 3584 4550 3584 
Q 5097 3584 5394 3201 
Q 5691 2819 5691 2113 
L 5691 0 
L 5113 0 
L 5113 2094 
Q 5113 2597 4934 2840 
Q 4756 3084 4391 3084 
Q 3944 3084 3684 2787 
Q 3425 2491 3425 1978 
L 3425 0 
L 2847 0 
L 2847 2094 
Q 2847 2600 2669 2842 
Q 2491 3084 2119 3084 
Q 1678 3084 1418 2786 
Q 1159 2488 1159 1978 
L 1159 0 
L 581 0 
L 581 3500 
L 1159 3500 
L 1159 2956 
Q 1356 3278 1631 3431 
Q 1906 3584 2284 3584 
Q 2666 3584 2933 3390 
Q 3200 3197 3328 2828 
z
" transform="scale(0.015625)"/>
       <path id="DejaVuSans-61" d="M 2194 1759 
Q 1497 1759 1228 1600 
Q 959 1441 959 1056 
Q 959 750 1161 570 
Q 1363 391 1709 391 
Q 2188 391 2477 730 
Q 2766 1069 2766 1631 
L 2766 1759 
L 2194 1759 
z
M 3341 1997 
L 3341 0 
L 2766 0 
L 2766 531 
Q 2569 213 2275 61 
Q 1981 -91 1556 -91 
Q 1019 -91 701 211 
Q 384 513 384 1019 
Q 384 1609 779 1909 
Q 1175 2209 1959 2209 
L 2766 2209 
L 2766 2266 
Q 2766 2663 2505 2880 
Q 2244 3097 1772 3097 
Q 1472 3097 1187 3025 
Q 903 2953 641 2809 
L 641 3341 
Q 956 3463 1253 3523 
Q 1550 3584 1831 3584 
Q 2591 3584 2966 3190 
Q 3341 2797 3341 1997 
z
" transform="scale(0.015625)"/>
       <path id="DejaVuSans-6c" d="M 603 4863 
L 1178 4863 
L 1178 0 
L 603 0 
L 603 4863 
z
" transform="scale(0.015625)"/>
       <path id="DejaVuSans-69" d="M 603 3500 
L 1178 3500 
L 1178 0 
L 603 0 
L 603 3500 
z
M 603 4863 
L 1178 4863 
L 1178 4134 
L 603 4134 
L 603 4863 
z
" transform="scale(0.015625)"/>
       <path id="DejaVuSans-7a" d="M 353 3500 
L 3084 3500 
L 3084 2975 
L 922 459 
L 3084 459 
L 3084 0 
L 275 0 
L 275 525 
L 2438 3041 
L 353 3041 
L 353 3500 
z
" transform="scale(0.015625)"/>
       <path id="DejaVuSans-65" d="M 3597 1894 
L 3597 1613 
L 953 1613 
Q 991 1019 1311 708 
Q 1631 397 2203 397 
Q 2534 397 2845 478 
Q 3156 559 3463 722 
L 3463 178 
Q 3153 47 2828 -22 
Q 2503 -91 2169 -91 
Q 1331 -91 842 396 
Q 353 884 353 1716 
Q 353 2575 817 3079 
Q 1281 3584 2069 3584 
Q 2775 3584 3186 3129 
Q 3597 2675 3597 1894 
z
M 3022 2063 
Q 3016 2534 2758 2815 
Q 2500 3097 2075 3097 
Q 1594 3097 1305 2825 
Q 1016 2553 972 2059 
L 3022 2063 
z
" transform="scale(0.015625)"/>
       <path id="DejaVuSans-64" d="M 2906 2969 
L 2906 4863 
L 3481 4863 
L 3481 0 
L 2906 0 
L 2906 525 
Q 2725 213 2448 61 
Q 2172 -91 1784 -91 
Q 1150 -91 751 415 
Q 353 922 353 1747 
Q 353 2572 751 3078 
Q 1150 3584 1784 3584 
Q 2172 3584 2448 3432 
Q 2725 3281 2906 2969 
z
M 947 1747 
Q 947 1113 1208 752 
Q 1469 391 1925 391 
Q 2381 391 2643 752 
Q 2906 1113 2906 1747 
Q 2906 2381 2643 2742 
Q 2381 3103 1925 3103 
Q 1469 3103 1208 2742 
Q 947 2381 947 1747 
z
" transform="scale(0.015625)"/>
       <path id="DejaVuSans-20" transform="scale(0.015625)"/>
       <path id="DejaVuSans-66" d="M 2375 4863 
L 2375 4384 
L 1825 4384 
Q 1516 4384 1395 4259 
Q 1275 4134 1275 3809 
L 1275 3500 
L 2222 3500 
L 2222 3053 
L 1275 3053 
L 1275 0 
L 697 0 
L 697 3053 
L 147 3053 
L 147 3500 
L 697 3500 
L 697 3744 
Q 697 4328 969 4595 
Q 1241 4863 1831 4863 
L 2375 4863 
z
" transform="scale(0.015625)"/>
       <path id="DejaVuSans-71" d="M 947 1747 
Q 947 1113 1208 752 
Q 1469 391 1925 391 
Q 2381 391 2643 752 
Q 2906 1113 2906 1747 
Q 2906 2381 2643 2742 
Q 2381 3103 1925 3103 
Q 1469 3103 1208 2742 
Q 947 2381 947 1747 
z
M 2906 525 
Q 2725 213 2448 61 
Q 2172 -91 1784 -91 
Q 1150 -91 751 415 
Q 353 922 353 1747 
Q 353 2572 751 3078 
Q 1150 3584 1784 3584 
Q 2172 3584 2448 3432 
Q 2725 3281 2906 2969 
L 2906 3500 
L 3481 3500 
L 3481 -1331 
L 2906 -1331 
L 2906 525 
z
" transform="scale(0.015625)"/>
       <path id="DejaVuSans-75" d="M 544 1381 
L 544 3500 
L 1119 3500 
L 1119 1403 
Q 1119 906 1312 657 
Q 1506 409 1894 409 
Q 2359 409 2629 706 
Q 2900 1003 2900 1516 
L 2900 3500 
L 3475 3500 
L 3475 0 
L 2900 0 
L 2900 538 
Q 2691 219 2414 64 
Q 2138 -91 1772 -91 
Q 1169 -91 856 284 
Q 544 659 544 1381 
z
M 1991 3584 
L 1991 3584 
z
" transform="scale(0.015625)"/>
       <path id="DejaVuSans-6e" d="M 3513 2113 
L 3513 0 
L 2938 0 
L 2938 2094 
Q 2938 2591 2744 2837 
Q 2550 3084 2163 3084 
Q 1697 3084 1428 2787 
Q 1159 2491 1159 1978 
L 1159 0 
L 581 0 
L 581 3500 
L 1159 3500 
L 1159 2956 
Q 1366 3272 1645 3428 
Q 1925 3584 2291 3584 
Q 2894 3584 3203 3211 
Q 3513 2838 3513 2113 
z
" transform="scale(0.015625)"/>
       <path id="DejaVuSans-63" d="M 3122 3366 
L 3122 2828 
Q 2878 2963 2633 3030 
Q 2388 3097 2138 3097 
Q 1578 3097 1268 2742 
Q 959 2388 959 1747 
Q 959 1106 1268 751 
Q 1578 397 2138 397 
Q 2388 397 2633 464 
Q 2878 531 3122 666 
L 3122 134 
Q 2881 22 2623 -34 
Q 2366 -91 2075 -91 
Q 1284 -91 818 406 
Q 353 903 353 1747 
Q 353 2603 823 3093 
Q 1294 3584 2113 3584 
Q 2378 3584 2631 3529 
Q 2884 3475 3122 3366 
z
" transform="scale(0.015625)"/>
       <path id="DejaVuSans-79" d="M 2059 -325 
Q 1816 -950 1584 -1140 
Q 1353 -1331 966 -1331 
L 506 -1331 
L 506 -850 
L 844 -850 
Q 1081 -850 1212 -737 
Q 1344 -625 1503 -206 
L 1606 56 
L 191 3500 
L 800 3500 
L 1894 763 
L 2988 3500 
L 3597 3500 
L 2059 -325 
z
" transform="scale(0.015625)"/>
       <path id="DejaVuSans-2c" d="M 750 794 
L 1409 794 
L 1409 256 
L 897 -744 
L 494 -744 
L 750 256 
L 750 794 
z
" transform="scale(0.015625)"/>
       <path id="DejaVuSans-Oblique-66" d="M 3059 4863 
L 2969 4384 
L 2419 4384 
Q 2106 4384 1964 4261 
Q 1822 4138 1753 3809 
L 1691 3500 
L 2638 3500 
L 2553 3053 
L 1606 3053 
L 1013 0 
L 434 0 
L 1031 3053 
L 481 3053 
L 563 3500 
L 1113 3500 
L 1159 3744 
Q 1278 4363 1576 4613 
Q 1875 4863 2516 4863 
L 3059 4863 
z
" transform="scale(0.015625)"/>
       <path id="DejaVuSans-2f" d="M 1625 4666 
L 2156 4666 
L 531 -594 
L 0 -594 
L 1625 4666 
z
" transform="scale(0.015625)"/>
       <path id="DejaVuSans-Oblique-73" d="M 3200 3397 
L 3091 2853 
Q 2863 2978 2609 3040 
Q 2356 3103 2088 3103 
Q 1634 3103 1373 2948 
Q 1113 2794 1113 2528 
Q 1113 2219 1719 2053 
Q 1766 2041 1788 2034 
L 1972 1978 
Q 2547 1819 2739 1644 
Q 2931 1469 2931 1166 
Q 2931 609 2489 259 
Q 2047 -91 1331 -91 
Q 1053 -91 747 -37 
Q 441 16 72 128 
L 184 722 
Q 500 559 806 475 
Q 1113 391 1394 391 
Q 1816 391 2080 572 
Q 2344 753 2344 1031 
Q 2344 1331 1650 1516 
L 1591 1531 
L 1394 1581 
Q 956 1697 753 1886 
Q 550 2075 550 2369 
Q 550 2928 970 3256 
Q 1391 3584 2113 3584 
Q 2397 3584 2667 3537 
Q 2938 3491 3200 3397 
z
" transform="scale(0.015625)"/>
      </defs>
      <use xlink:href="#DejaVuSans-4e" transform="translate(0 0.015625)"/>
      <use xlink:href="#DejaVuSans-6f" transform="translate(74.804688 0.015625)"/>
      <use xlink:href="#DejaVuSans-72" transform="translate(135.986328 0.015625)"/>
      <use xlink:href="#DejaVuSans-6d" transform="translate(177.099609 0.015625)"/>
      <use xlink:href="#DejaVuSans-61" transform="translate(274.511719 0.015625)"/>
      <use xlink:href="#DejaVuSans-6c" transform="translate(335.791016 0.015625)"/>
      <use xlink:href="#DejaVuSans-69" transform="translate(363.574219 0.015625)"/>
      <use xlink:href="#DejaVuSans-7a" transform="translate(391.357422 0.015625)"/>
      <use xlink:href="#DejaVuSans-65" transform="translate(443.847656 0.015625)"/>
      <use xlink:href="#DejaVuSans-64" transform="translate(505.371094 0.015625)"/>
      <use xlink:href="#DejaVuSans-20" transform="translate(568.847656 0.015625)"/>
      <use xlink:href="#DejaVuSans-66" transform="translate(600.634766 0.015625)"/>
      <use xlink:href="#DejaVuSans-72" transform="translate(635.839844 0.015625)"/>
      <use xlink:href="#DejaVuSans-65" transform="translate(676.953125 0.015625)"/>
      <use xlink:href="#DejaVuSans-71" transform="translate(738.476562 0.015625)"/>
      <use xlink:href="#DejaVuSans-75" transform="translate(801.953125 0.015625)"/>
      <use xlink:href="#DejaVuSans-65" transform="translate(865.332031 0.015625)"/>
      <use xlink:href="#DejaVuSans-6e" transform="translate(926.855469 0.015625)"/>
      <use xlink:href="#DejaVuSans-63" transform="translate(990.234375 0.015625)"/>
      <use xlink:href="#DejaVuSans-79" transform="translate(1045.214844 0.015625)"/>
      <use xlink:href="#DejaVuSans-2c" transform="translate(1104.394531 0.015625)"/>
      <use xlink:href="#DejaVuSans-20" transform="translate(1136.181641 0.015625)"/>
      <use xlink:href="#DejaVuSans-Oblique-66" transform="translate(1167.96875 0.015625)"/>
      <use xlink:href="#DejaVuSans-2f" transform="translate(1203.173828 0.015625)"/>
      <use xlink:href="#DejaVuSans-Oblique-66" transform="translate(1236.865234 0.015625)"/>
      <use xlink:href="#DejaVuSans-Oblique-73" transform="translate(1272.070312 -16.390625) scale(0.7)"/>
     </g>
    </g>
   </g>
   <g id="matplotlib.axis_2">
    <g id="ytick_1">
     <g id="line2d_13">
      <path d="M 57.167188 246.944469 
L 568.8 246.944469 
" clip-path="url(#p25272f3445)" style="fill: none; stroke-dasharray: 2.96,1.28; stroke-dashoffset: 0; stroke: #b0b0b0; stroke-opacity: 0.8; stroke-width: 0.8"/>
     </g>
     <g id="line2d_14">
      <defs>
       <path id="md9c6263931" d="M 0 0 
L -3.5 0 
" style="stroke: #000000; stroke-width: 0.8"/>
      </defs>
      <g>
       <use xlink:href="#md9c6263931" x="57.167188" y="246.944469" style="stroke: #000000; stroke-width: 0.8"/>
      </g>
     </g>
     <g id="text_8">
      <!-- −120 -->
      <g transform="translate(22.7 250.743688) scale(0.1 -0.1)">
       <defs>
        <path id="DejaVuSans-2212" d="M 678 2272 
L 4684 2272 
L 4684 1741 
L 678 1741 
L 678 2272 
z
" transform="scale(0.015625)"/>
       </defs>
       <use xlink:href="#DejaVuSans-2212"/>
       <use xlink:href="#DejaVuSans-31" transform="translate(83.789062 0)"/>
       <use xlink:href="#DejaVuSans-32" transform="translate(147.412109 0)"/>
       <use xlink:href="#DejaVuSans-30" transform="translate(211.035156 0)"/>
      </g>
     </g>
    </g>
    <g id="ytick_2">
     <g id="line2d_15">
      <path d="M 57.167188 214.545273 
L 568.8 214.545273 
" clip-path="url(#p25272f3445)" style="fill: none; stroke-dasharray: 2.96,1.28; stroke-dashoffset: 0; stroke: #b0b0b0; stroke-opacity: 0.8; stroke-width: 0.8"/>
     </g>
     <g id="line2d_16">
      <g>
       <use xlink:href="#md9c6263931" x="57.167188" y="214.545273" style="stroke: #000000; stroke-width: 0.8"/>
      </g>
     </g>
     <g id="text_9">
      <!-- −100 -->
      <g transform="translate(22.7 218.344492) scale(0.1 -0.1)">
       <use xlink:href="#DejaVuSans-2212"/>
       <use xlink:href="#DejaVuSans-31" transform="translate(83.789062 0)"/>
       <use xlink:href="#DejaVuSans-30" transform="translate(147.412109 0)"/>
       <use xlink:href="#DejaVuSans-30" transform="translate(211.035156 0)"/>
      </g>
     </g>
    </g>
    <g id="ytick_3">
     <g id="line2d_17">
      <path d="M 57.167188 182.146077 
L 568.8 182.146077 
" clip-path="url(#p25272f3445)" style="fill: none; stroke-dasharray: 2.96,1.28; stroke-dashoffset: 0; stroke: #b0b0b0; stroke-opacity: 0.8; stroke-width: 0.8"/>
     </g>
     <g id="line2d_18">
      <g>
       <use xlink:href="#md9c6263931" x="57.167188" y="182.146077" style="stroke: #000000; stroke-width: 0.8"/>
      </g>
     </g>
     <g id="text_10">
      <!-- −80 -->
      <g transform="translate(29.0625 185.945296) scale(0.1 -0.1)">
       <defs>
        <path id="DejaVuSans-38" d="M 2034 2216 
Q 1584 2216 1326 1975 
Q 1069 1734 1069 1313 
Q 1069 891 1326 650 
Q 1584 409 2034 409 
Q 2484 409 2743 651 
Q 3003 894 3003 1313 
Q 3003 1734 2745 1975 
Q 2488 2216 2034 2216 
z
M 1403 2484 
Q 997 2584 770 2862 
Q 544 3141 544 3541 
Q 544 4100 942 4425 
Q 1341 4750 2034 4750 
Q 2731 4750 3128 4425 
Q 3525 4100 3525 3541 
Q 3525 3141 3298 2862 
Q 3072 2584 2669 2484 
Q 3125 2378 3379 2068 
Q 3634 1759 3634 1313 
Q 3634 634 3220 271 
Q 2806 -91 2034 -91 
Q 1263 -91 848 271 
Q 434 634 434 1313 
Q 434 1759 690 2068 
Q 947 2378 1403 2484 
z
M 1172 3481 
Q 1172 3119 1398 2916 
Q 1625 2713 2034 2713 
Q 2441 2713 2670 2916 
Q 2900 3119 2900 3481 
Q 2900 3844 2670 4047 
Q 2441 4250 2034 4250 
Q 1625 4250 1398 4047 
Q 1172 3844 1172 3481 
z
" transform="scale(0.015625)"/>
       </defs>
       <use xlink:href="#DejaVuSans-2212"/>
       <use xlink:href="#DejaVuSans-38" transform="translate(83.789062 0)"/>
       <use xlink:href="#DejaVuSans-30" transform="translate(147.412109 0)"/>
      </g>
     </g>
    </g>
    <g id="ytick_4">
     <g id="line2d_19">
      <path d="M 57.167188 149.746881 
L 568.8 149.746881 
" clip-path="url(#p25272f3445)" style="fill: none; stroke-dasharray: 2.96,1.28; stroke-dashoffset: 0; stroke: #b0b0b0; stroke-opacity: 0.8; stroke-width: 0.8"/>
     </g>
     <g id="line2d_20">
      <g>
       <use xlink:href="#md9c6263931" x="57.167188" y="149.746881" style="stroke: #000000; stroke-width: 0.8"/>
      </g>
     </g>
     <g id="text_11">
      <!-- −60 -->
      <g transform="translate(29.0625 153.546099) scale(0.1 -0.1)">
       <defs>
        <path id="DejaVuSans-36" d="M 2113 2584 
Q 1688 2584 1439 2293 
Q 1191 2003 1191 1497 
Q 1191 994 1439 701 
Q 1688 409 2113 409 
Q 2538 409 2786 701 
Q 3034 994 3034 1497 
Q 3034 2003 2786 2293 
Q 2538 2584 2113 2584 
z
M 3366 4563 
L 3366 3988 
Q 3128 4100 2886 4159 
Q 2644 4219 2406 4219 
Q 1781 4219 1451 3797 
Q 1122 3375 1075 2522 
Q 1259 2794 1537 2939 
Q 1816 3084 2150 3084 
Q 2853 3084 3261 2657 
Q 3669 2231 3669 1497 
Q 3669 778 3244 343 
Q 2819 -91 2113 -91 
Q 1303 -91 875 529 
Q 447 1150 447 2328 
Q 447 3434 972 4092 
Q 1497 4750 2381 4750 
Q 2619 4750 2861 4703 
Q 3103 4656 3366 4563 
z
" transform="scale(0.015625)"/>
       </defs>
       <use xlink:href="#DejaVuSans-2212"/>
       <use xlink:href="#DejaVuSans-36" transform="translate(83.789062 0)"/>
       <use xlink:href="#DejaVuSans-30" transform="translate(147.412109 0)"/>
      </g>
     </g>
    </g>
    <g id="ytick_5">
     <g id="line2d_21">
      <path d="M 57.167188 117.347684 
L 568.8 117.347684 
" clip-path="url(#p25272f3445)" style="fill: none; stroke-dasharray: 2.96,1.28; stroke-dashoffset: 0; stroke: #b0b0b0; stroke-opacity: 0.8; stroke-width: 0.8"/>
     </g>
     <g id="line2d_22">
      <g>
       <use xlink:href="#md9c6263931" x="57.167188" y="117.347684" style="stroke: #000000; stroke-width: 0.8"/>
      </g>
     </g>
     <g id="text_12">
      <!-- −40 -->
      <g transform="translate(29.0625 121.146903) scale(0.1 -0.1)">
       <use xlink:href="#DejaVuSans-2212"/>
       <use xlink:href="#DejaVuSans-34" transform="translate(83.789062 0)"/>
       <use xlink:href="#DejaVuSans-30" transform="translate(147.412109 0)"/>
      </g>
     </g>
    </g>
    <g id="ytick_6">
     <g id="line2d_23">
      <path d="M 57.167188 84.948488 
L 568.8 84.948488 
" clip-path="url(#p25272f3445)" style="fill: none; stroke-dasharray: 2.96,1.28; stroke-dashoffset: 0; stroke: #b0b0b0; stroke-opacity: 0.8; stroke-width: 0.8"/>
     </g>
     <g id="line2d_24">
      <g>
       <use xlink:href="#md9c6263931" x="57.167188" y="84.948488" style="stroke: #000000; stroke-width: 0.8"/>
      </g>
     </g>
     <g id="text_13">
      <!-- −20 -->
      <g transform="translate(29.0625 88.747707) scale(0.1 -0.1)">
       <use xlink:href="#DejaVuSans-2212"/>
       <use xlink:href="#DejaVuSans-32" transform="translate(83.789062 0)"/>
       <use xlink:href="#DejaVuSans-30" transform="translate(147.412109 0)"/>
      </g>
     </g>
    </g>
    <g id="ytick_7">
     <g id="line2d_25">
      <path d="M 57.167188 52.549292 
L 568.8 52.549292 
" clip-path="url(#p25272f3445)" style="fill: none; stroke-dasharray: 2.96,1.28; stroke-dashoffset: 0; stroke: #b0b0b0; stroke-opacity: 0.8; stroke-width: 0.8"/>
     </g>
     <g id="line2d_26">
      <g>
       <use xlink:href="#md9c6263931" x="57.167188" y="52.549292" style="stroke: #000000; stroke-width: 0.8"/>
      </g>
     </g>
     <g id="text_14">
      <!-- 0 -->
      <g transform="translate(43.804688 56.34851) scale(0.1 -0.1)">
       <use xlink:href="#DejaVuSans-30"/>
      </g>
     </g>
    </g>
    <g id="text_15">
     <!-- Power (dB), $|H(\omega)|^2$ -->
     <g transform="translate(16.3 185.470937) rotate(-90) scale(0.1 -0.1)">
      <defs>
       <path id="DejaVuSans-50" d="M 1259 4147 
L 1259 2394 
L 2053 2394 
Q 2494 2394 2734 2622 
Q 2975 2850 2975 3272 
Q 2975 3691 2734 3919 
Q 2494 4147 2053 4147 
L 1259 4147 
z
M 628 4666 
L 2053 4666 
Q 2838 4666 3239 4311 
Q 3641 3956 3641 3272 
Q 3641 2581 3239 2228 
Q 2838 1875 2053 1875 
L 1259 1875 
L 1259 0 
L 628 0 
L 628 4666 
z
" transform="scale(0.015625)"/>
       <path id="DejaVuSans-77" d="M 269 3500 
L 844 3500 
L 1563 769 
L 2278 3500 
L 2956 3500 
L 3675 769 
L 4391 3500 
L 4966 3500 
L 4050 0 
L 3372 0 
L 2619 2869 
L 1863 0 
L 1184 0 
L 269 3500 
z
" transform="scale(0.015625)"/>
       <path id="DejaVuSans-28" d="M 1984 4856 
Q 1566 4138 1362 3434 
Q 1159 2731 1159 2009 
Q 1159 1288 1364 580 
Q 1569 -128 1984 -844 
L 1484 -844 
Q 1016 -109 783 600 
Q 550 1309 550 2009 
Q 550 2706 781 3412 
Q 1013 4119 1484 4856 
L 1984 4856 
z
" transform="scale(0.015625)"/>
       <path id="DejaVuSans-42" d="M 1259 2228 
L 1259 519 
L 2272 519 
Q 2781 519 3026 730 
Q 3272 941 3272 1375 
Q 3272 1813 3026 2020 
Q 2781 2228 2272 2228 
L 1259 2228 
z
M 1259 4147 
L 1259 2741 
L 2194 2741 
Q 2656 2741 2882 2914 
Q 3109 3088 3109 3444 
Q 3109 3797 2882 3972 
Q 2656 4147 2194 4147 
L 1259 4147 
z
M 628 4666 
L 2241 4666 
Q 2963 4666 3353 4366 
Q 3744 4066 3744 3513 
Q 3744 3084 3544 2831 
Q 3344 2578 2956 2516 
Q 3422 2416 3680 2098 
Q 3938 1781 3938 1306 
Q 3938 681 3513 340 
Q 3088 0 2303 0 
L 628 0 
L 628 4666 
z
" transform="scale(0.015625)"/>
       <path id="DejaVuSans-29" d="M 513 4856 
L 1013 4856 
Q 1481 4119 1714 3412 
Q 1947 2706 1947 2009 
Q 1947 1309 1714 600 
Q 1481 -109 1013 -844 
L 513 -844 
Q 928 -128 1133 580 
Q 1338 1288 1338 2009 
Q 1338 2731 1133 3434 
Q 928 4138 513 4856 
z
" transform="scale(0.015625)"/>
       <path id="DejaVuSans-7c" d="M 1344 4891 
L 1344 -1509 
L 813 -1509 
L 813 4891 
L 1344 4891 
z
" transform="scale(0.015625)"/>
       <path id="DejaVuSans-Oblique-48" d="M 1081 4666 
L 1716 4666 
L 1344 2753 
L 3634 2753 
L 4006 4666 
L 4641 4666 
L 3731 0 
L 3097 0 
L 3531 2222 
L 1241 2222 
L 806 0 
L 172 0 
L 1081 4666 
z
" transform="scale(0.015625)"/>
       <path id="DejaVuSans-Oblique-3c9" d="M 1369 -91 
Q 72 -91 434 1766 
Q 575 2500 1256 3500 
L 1875 3500 
Q 1231 2500 1088 1750 
Q 819 397 1519 397 
Q 2166 397 2478 2078 
L 3009 2078 
Q 2669 388 3316 397 
Q 4013 403 4275 1750 
Q 4419 2500 4169 3500 
L 4788 3500 
Q 5075 2500 4934 1766 
Q 4578 -94 3278 -91 
Q 2428 -88 2503 844 
Q 2194 -91 1369 -91 
z
" transform="scale(0.015625)"/>
      </defs>
      <use xlink:href="#DejaVuSans-50" transform="translate(0 0.765625)"/>
      <use xlink:href="#DejaVuSans-6f" transform="translate(60.302734 0.765625)"/>
      <use xlink:href="#DejaVuSans-77" transform="translate(121.484375 0.765625)"/>
      <use xlink:href="#DejaVuSans-65" transform="translate(203.271484 0.765625)"/>
      <use xlink:href="#DejaVuSans-72" transform="translate(264.794922 0.765625)"/>
      <use xlink:href="#DejaVuSans-20" transform="translate(305.908203 0.765625)"/>
      <use xlink:href="#DejaVuSans-28" transform="translate(337.695312 0.765625)"/>
      <use xlink:href="#DejaVuSans-64" transform="translate(376.708984 0.765625)"/>
      <use xlink:href="#DejaVuSans-42" transform="translate(440.185547 0.765625)"/>
      <use xlink:href="#DejaVuSans-29" transform="translate(508.789062 0.765625)"/>
      <use xlink:href="#DejaVuSans-2c" transform="translate(547.802734 0.765625)"/>
      <use xlink:href="#DejaVuSans-20" transform="translate(579.589844 0.765625)"/>
      <use xlink:href="#DejaVuSans-7c" transform="translate(611.376953 0.765625)"/>
      <use xlink:href="#DejaVuSans-Oblique-48" transform="translate(645.068359 0.765625)"/>
      <use xlink:href="#DejaVuSans-28" transform="translate(720.263672 0.765625)"/>
      <use xlink:href="#DejaVuSans-Oblique-3c9" transform="translate(759.277344 0.765625)"/>
      <use xlink:href="#DejaVuSans-29" transform="translate(843.017578 0.765625)"/>
      <use xlink:href="#DejaVuSans-7c" transform="translate(882.03125 0.765625)"/>
      <use xlink:href="#DejaVuSans-32" transform="translate(916.679688 39.046875) scale(0.7)"/>
     </g>
    </g>
   </g>
   <g id="line2d_27">
    <path d="M 80.423224 37.328274 
L 83.151205 37.22733 
L 86.33385 36.876805 
L 90.425821 36.172779 
L 98.1551 34.797164 
L 101.337744 34.478551 
L 104.065725 34.409979 
L 106.793706 34.570561 
L 109.067024 34.90355 
L 111.340341 35.43696 
L 113.613658 36.189068 
L 115.886976 37.179559 
L 118.160293 38.430988 
L 120.433611 39.970658 
L 122.706928 41.833271 
L 124.525582 43.586373 
L 126.344236 45.606953 
L 128.16289 47.937594 
L 129.981544 50.638077 
L 131.800198 53.796671 
L 133.164188 56.547012 
L 134.528178 59.723557 
L 135.892169 63.474301 
L 137.256159 68.061627 
L 138.165486 71.828582 
L 139.074813 76.51267 
L 139.98414 82.818845 
L 140.438804 87.107594 
L 140.893467 92.916377 
L 141.348131 102.21817 
L 141.802794 132.524552 
L 142.257458 106.933585 
L 142.712121 96.567579 
L 143.166784 90.989066 
L 143.621448 87.252525 
L 144.530775 82.377696 
L 145.440102 79.298585 
L 146.349429 77.219624 
L 147.258756 75.794776 
L 148.168083 74.843825 
L 149.07741 74.262653 
L 149.986737 73.987456 
L 150.896064 73.978256 
L 151.805391 74.210603 
L 152.714718 74.671249 
L 153.624044 75.355997 
L 154.533371 76.269006 
L 155.442698 77.423292 
L 156.352025 78.842613 
L 157.261352 80.565364 
L 158.170679 82.652033 
L 159.080006 85.199852 
L 159.989333 88.374027 
L 160.89866 92.483815 
L 161.807987 98.211843 
L 162.262651 102.190155 
L 162.717314 107.63565 
L 163.171978 116.369604 
L 163.626641 142.044854 
L 164.081304 122.356975 
L 164.535968 111.221951 
L 164.990631 105.266296 
L 165.445295 101.241077 
L 166.354622 95.880033 
L 167.263949 92.367079 
L 168.173276 89.881481 
L 169.082603 88.067883 
L 169.99193 86.741134 
L 170.901257 85.793741 
L 171.810584 85.159121 
L 172.719911 84.794672 
L 173.629238 84.673207 
L 174.538565 84.778388 
L 175.447891 85.102301 
L 176.357218 85.644376 
L 177.266545 86.41129 
L 178.175872 87.41786 
L 179.085199 88.689168 
L 179.994526 90.264625 
L 180.903853 92.205576 
L 181.81318 94.610113 
L 182.722507 97.644576 
L 183.631834 101.620333 
L 184.541161 107.225702 
L 184.995825 111.152536 
L 185.450488 116.564241 
L 185.905151 125.325554 
L 186.359815 152.065345 
L 186.814478 130.656238 
L 187.269142 119.623407 
L 187.723805 113.649555 
L 188.178469 109.580824 
L 189.087796 104.109967 
L 189.997123 100.477296 
L 190.90645 97.869006 
L 191.815777 95.931853 
L 192.725104 94.481432 
L 193.634431 93.410478 
L 194.543758 92.652366 
L 195.453085 92.164286 
L 196.362411 91.918701 
L 197.271738 91.898773 
L 198.181065 92.095906 
L 199.090392 92.508601 
L 199.999719 93.142253 
L 200.909046 94.009856 
L 201.818373 95.133803 
L 202.7277 96.549364 
L 203.637027 98.311122 
L 204.546354 100.505274 
L 205.455681 103.275063 
L 206.365008 106.880145 
L 207.274335 111.863922 
L 207.728998 115.248113 
L 208.183662 119.706922 
L 208.638325 126.230818 
L 209.547652 151.810307 
L 210.002316 130.645927 
L 210.456979 122.672507 
L 210.911643 117.715265 
L 211.82097 111.383647 
L 212.730297 107.300573 
L 213.639624 104.393934 
L 214.548951 102.231192 
L 215.458278 100.595345 
L 216.367605 99.363133 
L 217.276931 98.459037 
L 218.186258 97.834766 
L 219.095585 97.459069 
L 220.004912 97.31232 
L 220.914239 97.383588 
L 221.823566 97.669157 
L 222.732893 98.172047 
L 223.64222 98.9024 
L 224.551547 99.878834 
L 225.460874 101.131193 
L 226.370201 102.705614 
L 227.279528 104.674032 
L 228.188855 107.153144 
L 229.098182 110.346354 
L 230.007509 114.65249 
L 230.462172 117.475356 
L 230.916836 121.030392 
L 231.371499 125.80521 
L 231.826163 133.062437 
L 232.280826 148.688579 
L 232.73549 148.472983 
L 233.190153 133.21613 
L 233.644817 126.168091 
L 234.09948 121.579592 
L 235.008807 115.555617 
L 235.918134 111.595094 
L 236.827461 108.744431 
L 237.736788 106.606394 
L 238.646115 104.978219 
L 239.555442 103.743508 
L 240.464769 102.83047 
L 241.374096 102.193033 
L 242.283423 101.801367 
L 243.19275 101.63682 
L 244.102077 101.689179 
L 245.011404 101.9553 
L 245.920731 102.438711 
L 246.830058 103.150056 
L 247.739385 104.108527 
L 248.648712 105.3447 
L 249.558038 106.905772 
L 250.467365 108.86538 
L 251.376692 111.343274 
L 252.286019 114.549108 
L 253.195346 118.897048 
L 253.65001 121.764078 
L 254.104673 125.396789 
L 254.559337 130.323909 
L 255.014 137.9631 
L 255.468664 155.759267 
L 255.923327 149.857843 
L 256.377991 136.211932 
L 256.832654 129.502197 
L 257.287318 125.054141 
L 258.196645 119.14508 
L 259.105972 115.224765 
L 260.015298 112.386639 
L 260.924625 110.247948 
L 261.833952 108.611868 
L 262.743279 107.364892 
L 263.652606 106.436813 
L 264.561933 105.782501 
L 265.47126 105.372725 
L 266.380587 105.189241 
L 267.289914 105.22213 
L 268.199241 105.468474 
L 269.108568 105.931988 
L 270.017895 106.623491 
L 270.927222 107.562359 
L 271.836549 108.779389 
L 272.745876 110.322082 
L 273.655203 112.264552 
L 274.56453 114.727395 
L 275.473857 117.921989 
L 276.383184 122.26675 
L 276.837847 125.138654 
L 277.292511 128.78563 
L 277.747174 133.748223 
L 278.201838 141.490094 
L 278.656501 159.983958 
L 279.111165 152.486765 
L 279.565828 139.204297 
L 280.020492 132.57202 
L 280.475155 128.152609 
L 281.384482 122.25871 
L 282.293809 118.334308 
L 283.203136 115.484905 
L 284.112463 113.331499 
L 285.02179 111.678813 
L 285.931117 110.414093 
L 286.840444 109.467535 
L 287.749771 108.794244 
L 288.659098 108.365133 
L 289.568425 108.162042 
L 290.477752 108.175099 
L 291.387079 108.401409 
L 292.296405 108.844681 
L 293.205732 109.515707 
L 294.115059 110.433802 
L 295.024386 111.629655 
L 295.933713 113.150584 
L 296.84304 115.070383 
L 297.752367 117.509044 
L 298.661694 120.676679 
L 299.571021 124.98855 
L 300.025685 127.839224 
L 300.480348 131.457988 
L 300.935012 136.376564 
L 301.389675 144.024194 
L 301.844339 161.975539 
L 302.299002 155.652086 
L 302.753665 142.0839 
L 303.208329 135.376798 
L 303.662992 130.918744 
L 304.572319 124.978886 
L 305.481646 121.022905 
L 306.390973 118.147343 
L 307.3003 115.9704 
L 308.209627 114.295632 
L 309.118954 113.009707 
L 310.028281 112.042492 
L 310.937608 111.348885 
L 311.846935 110.899651 
L 312.756262 110.676513 
L 313.665589 110.669489 
L 314.574916 110.875573 
L 315.484243 111.298347 
L 316.39357 111.94844 
L 317.302897 112.844942 
L 318.212224 114.018221 
L 319.121551 115.515086 
L 320.030878 117.408479 
L 320.940205 119.816827 
L 321.849532 122.947 
L 322.758859 127.206243 
L 323.213522 130.01844 
L 323.668185 133.581102 
L 324.122849 138.404025 
L 324.577512 145.832508 
L 325.032176 162.544898 
L 325.486839 159.181946 
L 325.941503 144.830029 
L 326.396166 137.939101 
L 326.85083 133.395135 
L 327.760157 127.366833 
L 328.669484 123.360297 
L 329.578811 120.448335 
L 330.488138 118.241785 
L 331.397465 116.541167 
L 332.306792 115.231651 
L 333.216119 114.242275 
L 334.125446 113.527425 
L 335.034772 113.057517 
L 335.944099 112.814019 
L 336.853426 112.786734 
L 337.762753 112.972452 
L 338.67208 113.374543 
L 339.581407 114.003382 
L 340.490734 114.877727 
L 341.400061 116.027473 
L 342.309388 117.498704 
L 343.218715 119.363153 
L 344.128042 121.737046 
L 345.037369 124.822719 
L 345.946696 129.016287 
L 346.401359 131.778798 
L 346.856023 135.267593 
L 347.310686 139.963152 
L 347.76535 147.10199 
L 348.220013 162.337161 
L 348.674677 163.106554 
L 349.12934 147.451781 
L 349.584004 140.285075 
L 350.038667 135.617589 
L 350.947994 129.468191 
L 351.857321 125.396856 
L 352.766648 122.440886 
L 353.675975 120.200246 
L 354.585302 118.470998 
L 355.494629 117.136133 
L 356.403956 116.123484 
L 357.313283 115.3867 
L 358.22261 114.895707 
L 359.131937 114.631613 
L 360.041264 114.583929 
L 360.950591 114.749179 
L 361.859918 115.130459 
L 362.769245 115.737825 
L 363.678572 116.58963 
L 364.587899 117.715192 
L 365.497226 119.159723 
L 366.406552 120.993514 
L 367.315879 123.330172 
L 368.225206 126.366677 
L 369.134533 130.48612 
L 369.589197 133.191897 
L 370.04386 136.596073 
L 370.498524 141.146392 
L 370.953187 147.962517 
L 371.407851 161.739238 
L 371.862514 167.611493 
L 372.317178 149.969939 
L 372.771841 142.439141 
L 373.226505 137.615057 
L 374.135832 131.317328 
L 375.045159 127.169751 
L 375.954486 124.16377 
L 376.863812 121.885534 
L 377.773139 120.125492 
L 378.682466 118.763909 
L 379.591793 117.727118 
L 380.50112 116.967858 
L 381.410447 116.455455 
L 382.319774 116.170577 
L 383.229101 116.102387 
L 384.138428 116.247094 
L 385.047755 116.607477 
L 385.957082 117.193227 
L 386.866409 118.022238 
L 387.775736 119.123185 
L 388.685063 120.54031 
L 389.59439 122.342309 
L 390.503717 124.639907 
L 391.413044 127.62424 
L 392.322371 131.664318 
L 392.777034 134.30921 
L 393.231698 137.622858 
L 393.686361 142.019459 
L 394.141025 148.503873 
L 395.050352 173.135903 
L 395.505015 152.411272 
L 395.959679 144.422828 
L 396.414342 139.410673 
L 397.323669 132.940356 
L 398.232996 128.706829 
L 399.142323 125.64586 
L 400.05165 123.327156 
L 400.960977 121.534557 
L 401.870304 120.145142 
L 402.779631 119.083502 
L 403.688958 118.301324 
L 404.598285 117.767242 
L 405.507612 117.461424 
L 406.416939 117.372641 
L 407.326266 117.496751 
L 408.235593 117.836181 
L 409.144919 118.400229 
L 410.054246 119.20629 
L 410.963573 120.282353 
L 411.8729 121.671627 
L 412.782227 123.441116 
L 413.691554 125.698519 
L 414.600881 128.628862 
L 415.510208 132.58661 
L 416.419535 138.389041 
L 416.874199 142.629696 
L 417.328862 148.788001 
L 417.783526 160.062791 
L 418.238189 180.827704 
L 418.692853 154.807497 
L 419.147516 146.254832 
L 419.602179 141.022823 
L 420.511506 134.357179 
L 421.420833 130.0291 
L 422.33016 126.908854 
L 423.239487 124.547244 
L 424.148814 122.720603 
L 425.058141 121.302421 
L 425.967468 120.215336 
L 426.876795 119.409865 
L 427.786122 118.853873 
L 428.695449 118.526984 
L 429.604776 118.417534 
L 430.514103 118.521007 
L 431.42343 118.839454 
L 432.332757 119.381754 
L 433.242084 120.164782 
L 434.151411 121.215812 
L 435.060738 122.576979 
L 435.970065 124.313552 
L 436.879392 126.530127 
L 437.788719 129.405524 
L 438.698046 133.279608 
L 439.607373 138.924945 
L 440.062036 143.0115 
L 440.5167 148.857604 
L 440.971363 159.116623 
L 441.426026 195.660915 
L 441.88069 157.196657 
L 442.335353 147.951437 
L 442.790017 142.466028 
L 443.699344 135.582896 
L 444.608671 131.152383 
L 445.517998 127.969053 
L 446.427325 125.56241 
L 447.336652 123.700444 
L 448.245979 122.252687 
L 449.155306 121.139642 
L 450.064633 120.310551 
L 450.97396 119.73245 
L 451.883286 119.384372 
L 452.792613 119.254195 
L 453.70194 119.337002 
L 454.611267 119.634452 
L 455.520594 120.154992 
L 456.429921 120.914958 
L 457.339248 121.940894 
L 458.248575 123.273848 
L 459.157902 124.977328 
L 460.067229 127.152816 
L 460.976556 129.97295 
L 461.885883 133.763213 
L 462.79521 139.253027 
L 463.249873 143.189915 
L 463.704537 148.742022 
L 464.1592 158.124862 
L 464.613864 200.314705 
L 465.068527 159.626577 
L 465.523191 149.526973 
L 465.977854 143.751596 
L 466.887181 136.628751 
L 467.796508 132.088409 
L 468.705835 128.838542 
L 469.615162 126.384974 
L 470.524489 124.486551 
L 471.433816 123.008512 
L 472.343143 121.869055 
L 473.25247 121.016057 
L 474.161797 120.415667 
L 475.071124 120.046296 
L 475.980451 119.895338 
L 476.889778 119.957459 
L 477.799105 120.233913 
L 478.708432 120.732703 
L 479.617759 121.469621 
L 480.527086 122.470473 
L 481.436413 123.775216 
L 482.34574 125.445604 
L 483.255066 127.580032 
L 484.164393 130.345062 
L 485.07372 134.052205 
L 485.983047 139.389822 
L 486.437711 143.183054 
L 486.892374 148.461198 
L 487.347038 157.088402 
L 487.801701 183.679597 
L 488.256365 162.16129 
L 488.711028 150.994255 
L 489.165692 144.88807 
L 490.075019 137.502781 
L 490.984346 132.845552 
L 491.893673 129.525975 
L 492.803 127.023778 
L 493.712327 125.087893 
L 494.621653 123.578945 
L 495.53098 122.412677 
L 496.440307 121.535514 
L 497.349634 120.912675 
L 498.258961 120.521917 
L 499.168288 120.35013 
L 500.077615 120.391551 
L 500.986942 120.64702 
L 501.896269 121.124091 
L 502.805596 121.838008 
L 503.714923 122.81384 
L 504.62425 124.090461 
L 505.533577 125.727895 
L 506.442904 127.82151 
L 507.352231 130.531956 
L 508.261558 134.157314 
L 509.170885 139.347255 
L 509.625548 143.003754 
L 510.080212 148.028338 
L 510.534875 156.002348 
L 510.989539 176.417953 
L 511.898866 152.364943 
L 512.353529 145.881511 
L 512.808193 141.501556 
L 513.71752 135.590324 
L 514.626847 131.604117 
L 515.536173 128.67616 
L 516.4455 126.436158 
L 517.354827 124.692434 
L 518.264154 123.333989 
L 519.173481 122.29197 
L 520.082808 121.522035 
L 520.992135 120.995428 
L 521.901462 120.694194 
L 522.810789 120.608575 
L 523.720116 120.735724 
L 524.629443 121.079344 
L 525.53877 121.650161 
L 526.448097 122.467349 
L 527.357424 123.561348 
L 528.266751 124.979051 
L 529.176078 126.793505 
L 530.085405 129.1233 
L 530.994732 132.175614 
L 531.904059 136.358428 
L 532.358722 139.133531 
L 532.813386 142.660697 
L 533.268049 147.451672 
L 533.722713 154.859118 
L 534.177376 171.636097 
L 534.63204 167.96683 
L 535.086703 153.649845 
L 535.541367 146.735616 
L 535.99603 142.15917 
L 536.905357 136.058213 
L 537.814684 131.97559 
L 538.724011 128.9863 
L 539.633338 126.701851 
L 540.542665 124.923027 
L 541.451992 123.535118 
L 542.361319 122.467217 
L 543.270646 121.673726 
L 544.179973 121.125058 
L 545.0893 120.802656 
L 545.543963 120.722823 
L 545.543963 120.722823 
" clip-path="url(#p25272f3445)" style="fill: none; stroke: #1f77b4; stroke-linecap: square"/>
   </g>
   <g id="line2d_28">
    <path d="M 80.423224 36.728397 
L 82.696542 36.612509 
L 85.879186 36.162175 
L 89.971157 35.586702 
L 92.244475 35.496651 
L 94.517792 35.636196 
L 97.245773 36.056132 
L 101.792408 36.824258 
L 103.611062 36.919483 
L 105.429716 36.809746 
L 107.703033 36.400618 
L 114.068322 34.984402 
L 115.432312 34.950992 
L 116.796303 35.108868 
L 118.160293 35.49457 
L 119.524284 36.142861 
L 120.888274 37.08882 
L 122.252264 38.370521 
L 123.616255 40.032609 
L 124.980245 42.131502 
L 126.344236 44.743775 
L 127.708226 47.981264 
L 129.072217 52.021729 
L 129.981544 55.307432 
L 130.890871 59.245914 
L 131.800198 64.1262 
L 132.709524 70.555359 
L 133.164188 74.778283 
L 133.618851 80.240789 
L 134.073515 88.199011 
L 134.528178 104.466192 
L 134.982842 105.357882 
L 135.437505 90.805963 
L 135.892169 84.584537 
L 136.346832 80.873377 
L 136.801496 78.420371 
L 137.256159 76.743861 
L 137.710823 75.60903 
L 138.165486 74.885544 
L 138.62015 74.49545 
L 139.074813 74.390483 
L 139.529477 74.541034 
L 139.98414 74.930495 
L 140.438804 75.552418 
L 140.893467 76.409433 
L 141.802794 78.887885 
L 142.712121 82.622416 
L 143.166784 85.141394 
L 143.621448 88.294962 
L 144.076111 92.397927 
L 144.530775 98.14964 
L 144.985438 107.706846 
L 145.440102 146.237747 
L 145.894765 110.472651 
L 146.349429 100.677651 
L 146.804092 95.35651 
L 147.258756 91.850318 
L 147.713419 89.359346 
L 148.168083 87.535054 
L 148.622746 86.195189 
L 149.07741 85.233734 
L 149.532073 84.584968 
L 149.986737 84.206875 
L 150.4414 84.072729 
L 150.896064 84.166613 
L 151.350727 84.481061 
L 151.805391 85.016029 
L 152.260054 85.77888 
L 152.714718 86.785377 
L 153.624044 89.650259 
L 154.533371 94.06093 
L 154.988035 97.166744 
L 155.442698 101.273232 
L 155.897362 107.155982 
L 156.352025 117.347352 
L 156.806689 162.664793 
L 157.261352 116.771584 
L 157.716016 107.651453 
L 158.170679 102.473725 
L 158.625343 98.980761 
L 159.080006 96.451837 
L 159.989333 93.147568 
L 160.443997 92.100388 
L 160.89866 91.360104 
L 161.353324 90.886248 
L 161.807987 90.652887 
L 162.262651 90.64439 
L 162.717314 90.853185 
L 163.171978 91.278746 
L 163.626641 91.927526 
L 164.081304 92.813802 
L 164.990631 95.408986 
L 165.899958 99.470627 
L 166.354622 102.334576 
L 166.809285 106.095079 
L 167.263949 111.376229 
L 167.718612 119.992353 
L 168.173276 145.472592 
L 168.627939 126.001556 
L 169.082603 114.899226 
L 169.537266 109.047126 
L 169.99193 105.184127 
L 170.446593 102.403505 
L 171.35592 98.744258 
L 171.810584 97.555385 
L 172.265247 96.685732 
L 172.719911 96.090275 
L 173.174574 95.739923 
L 173.629238 95.616614 
L 174.083901 95.710667 
L 174.538565 96.019488 
L 174.993228 96.547235 
L 175.447891 97.305352 
L 175.902555 98.314123 
L 176.811882 101.229871 
L 177.266545 103.264438 
L 177.721209 105.837026 
L 178.175872 109.173721 
L 178.630536 113.72999 
L 179.085199 120.657791 
L 179.539863 134.913241 
L 179.994526 139.342142 
L 180.44919 122.534098 
L 180.903853 115.346805 
L 181.358517 110.854871 
L 181.81318 107.690088 
L 182.722507 103.549871 
L 183.631834 101.16673 
L 184.086498 100.434959 
L 184.541161 99.957559 
L 184.995825 99.712602 
L 185.450488 99.687314 
L 185.905151 99.876323 
L 186.359815 100.280965 
L 186.814478 100.909456 
L 187.269142 101.777967 
L 187.723805 102.912932 
L 188.178469 104.355337 
L 188.633132 106.168686 
L 189.087796 108.454534 
L 189.542459 111.385748 
L 189.997123 115.288415 
L 190.451786 120.893844 
L 190.90645 130.511023 
L 191.361113 183.745463 
L 191.815777 131.43518 
L 192.27044 121.752408 
L 192.725104 116.301317 
L 193.179767 112.607883 
L 194.089094 107.863872 
L 194.998421 105.107834 
L 195.453085 104.226849 
L 195.907748 103.613732 
L 196.362411 103.241437 
L 196.817075 103.093312 
L 197.271738 103.160715 
L 197.726402 103.441882 
L 198.181065 103.941697 
L 198.635729 104.672322 
L 199.090392 105.654848 
L 199.545056 106.922484 
L 199.999719 108.526429 
L 200.454383 110.546978 
L 200.909046 113.116133 
L 201.36371 116.469215 
L 201.818373 121.085303 
L 202.273037 128.200989 
L 202.7277 143.48051 
L 203.182364 144.274736 
L 203.637027 128.771558 
L 204.091691 121.794658 
L 204.546354 117.369085 
L 205.001018 114.223719 
L 205.910345 110.069111 
L 206.819671 107.643046 
L 207.274335 106.884935 
L 207.728998 106.379265 
L 208.183662 106.104666 
L 208.638325 106.048738 
L 209.092989 106.20637 
L 209.547652 106.579081 
L 210.002316 107.175214 
L 210.456979 108.011027 
L 210.911643 109.113004 
L 211.366306 110.522149 
L 211.82097 112.301933 
L 212.275633 114.553813 
L 212.730297 117.450405 
L 213.18496 121.317178 
L 213.639624 126.88355 
L 214.094287 136.449173 
L 214.548951 188.103398 
L 215.003614 137.387048 
L 215.458278 127.651395 
L 215.912941 122.1612 
L 216.367605 118.432066 
L 217.276931 113.620042 
L 218.186258 110.797572 
L 218.640922 109.883539 
L 219.095585 109.237353 
L 219.550249 108.831878 
L 220.004912 108.650362 
L 220.459576 108.684048 
L 220.914239 108.931022 
L 221.368903 109.395971 
L 221.823566 110.090782 
L 222.27823 111.036147 
L 222.732893 112.264673 
L 223.187557 113.826588 
L 223.64222 115.800527 
L 224.096884 118.315373 
L 224.551547 121.599809 
L 225.006211 126.115817 
L 225.460874 133.038357 
L 225.915538 147.508664 
L 226.370201 150.849954 
L 226.824865 134.377834 
L 227.279528 127.195211 
L 227.734192 122.666234 
L 228.188855 119.450988 
L 229.098182 115.19473 
L 230.007509 112.687274 
L 230.462172 111.891756 
L 230.916836 111.349813 
L 231.371499 111.039561 
L 231.826163 110.948182 
L 232.280826 111.070176 
L 232.73549 111.406661 
L 233.190153 111.965512 
L 233.644817 112.762382 
L 234.09948 113.822912 
L 234.554144 115.186833 
L 235.008807 116.915553 
L 235.463471 119.106874 
L 235.918134 121.926211 
L 236.372798 125.682471 
L 236.827461 131.056468 
L 237.282125 140.116404 
L 237.736788 173.761652 
L 238.191452 143.117852 
L 238.646115 132.775395 
L 239.100778 127.074287 
L 239.555442 123.228262 
L 240.464769 118.274095 
L 241.374096 115.353948 
L 241.828759 114.398038 
L 242.283423 113.712472 
L 242.738086 113.269163 
L 243.19275 113.050653 
L 243.647413 113.04759 
L 244.102077 113.257505 
L 244.55674 113.684497 
L 245.011404 114.339754 
L 245.466067 115.243051 
L 245.920731 116.425681 
L 246.375394 117.935845 
L 246.830058 119.848769 
L 247.284721 122.28704 
L 247.739385 125.466119 
L 248.194048 129.814555 
L 248.648712 136.390621 
L 249.103375 149.445232 
L 249.558038 158.431454 
L 250.012702 139.467024 
L 250.467365 131.856378 
L 250.922029 127.137559 
L 251.376692 123.807896 
L 252.286019 119.407025 
L 253.195346 116.799363 
L 253.65001 115.961028 
L 254.104673 115.378897 
L 254.559337 115.030049 
L 255.014 114.900865 
L 255.468664 114.98515 
L 255.923327 115.283341 
L 256.377991 115.802562 
L 256.832654 116.557544 
L 257.287318 117.572675 
L 257.741981 118.88584 
L 258.196645 120.555492 
L 258.651308 122.674275 
L 259.105972 125.397563 
L 259.560635 129.011591 
L 260.015298 134.132541 
L 260.469962 142.54027 
L 260.924625 167.056361 
L 261.379289 148.718814 
L 261.833952 137.341836 
L 262.288616 131.318721 
L 262.743279 127.306545 
L 263.652606 122.166975 
L 264.561933 119.131368 
L 265.016597 118.128601 
L 265.47126 117.400111 
L 265.925924 116.916377 
L 266.380587 116.658888 
L 266.835251 116.617445 
L 267.289914 116.788807 
L 267.744578 117.176285 
L 268.199241 117.790156 
L 268.653905 118.64903 
L 269.108568 119.782566 
L 269.563232 121.236466 
L 270.017895 123.081819 
L 270.472558 125.433652 
L 270.927222 128.491837 
L 271.381885 132.646459 
L 271.836549 138.827687 
L 272.291212 150.438563 
L 272.745876 168.041794 
L 273.200539 144.208387 
L 273.655203 135.983556 
L 274.109866 131.011695 
L 274.56453 127.537004 
L 275.473857 122.963215 
L 276.383184 120.243318 
L 276.837847 119.358753 
L 277.292511 118.733988 
L 277.747174 118.344742 
L 278.201838 118.176354 
L 278.656501 118.221751 
L 279.111165 118.480537 
L 279.565828 118.958935 
L 280.020492 119.670593 
L 280.475155 120.638457 
L 280.929819 121.898311 
L 281.384482 123.505293 
L 281.839145 125.546325 
L 282.293809 128.165821 
L 282.748472 131.625794 
L 283.203136 136.475789 
L 283.657799 144.220396 
L 284.112463 163.345625 
L 284.567126 154.423975 
L 285.02179 141.512269 
L 285.476453 135.068906 
L 285.931117 130.851353 
L 286.840444 125.49417 
L 287.749771 122.330468 
L 288.659098 120.50352 
L 289.113761 119.977606 
L 289.568425 119.679836 
L 290.023088 119.598994 
L 290.477752 119.730936 
L 290.932415 120.078068 
L 291.387079 120.649646 
L 291.841742 121.462997 
L 292.296405 122.546002 
L 292.751069 123.941687 
L 293.205732 125.716754 
L 293.660396 127.978341 
L 294.115059 130.910343 
L 294.569723 134.864539 
L 295.024386 140.649895 
L 295.47905 150.973502 
L 295.933713 184.874379 
L 296.388377 148.758506 
L 296.84304 139.715953 
L 297.297704 134.432944 
L 297.752367 130.787294 
L 298.661694 126.017963 
L 299.571021 123.176623 
L 300.025685 122.24327 
L 300.480348 121.574069 
L 300.935012 121.143126 
L 301.389675 120.934572 
L 301.844339 120.940333 
L 302.299002 121.159076 
L 302.753665 121.596043 
L 303.208329 122.263718 
L 303.662992 123.18352 
L 304.117656 124.389045 
L 304.572319 125.932013 
L 305.026983 127.893535 
L 305.481646 130.40707 
L 305.93631 133.71098 
L 306.390973 138.292163 
L 306.845637 145.415754 
L 307.3003 161.001747 
L 307.754964 160.602574 
L 308.209627 145.41013 
L 308.664291 138.441706 
L 309.118954 133.981655 
L 310.028281 128.378694 
L 310.937608 125.076468 
L 311.846935 123.149097 
L 312.301599 122.579636 
L 312.756262 122.240609 
L 313.210925 122.119653 
L 313.665589 122.211627 
L 314.120252 122.517962 
L 314.574916 123.046833 
L 315.029579 123.814231 
L 315.484243 124.846213 
L 315.938906 126.183097 
L 316.39357 127.887202 
L 316.848233 130.057901 
L 317.302897 132.863672 
L 317.75756 136.620395 
L 318.212224 142.02918 
L 318.666887 151.253262 
L 319.121551 189.820741 
L 319.576214 153.2746 
L 320.030878 143.154456 
L 320.485541 137.498931 
L 320.940205 133.657239 
L 321.849532 128.671834 
L 322.758859 125.701093 
L 323.213522 124.716793 
L 323.668185 124.001657 
L 324.122849 123.527966 
L 324.577512 123.278505 
L 325.032176 123.244102 
L 325.486839 123.42242 
L 325.941503 123.817667 
L 326.396166 124.441125 
L 326.85083 125.312665 
L 327.305493 126.463687 
L 327.760157 127.942536 
L 328.21482 129.824651 
L 328.669484 132.232994 
L 329.124147 135.383789 
L 329.578811 139.707473 
L 330.033474 146.268751 
L 330.488138 159.364464 
L 330.942801 167.96789 
L 331.397465 149.139235 
L 331.852128 141.520782 
L 332.306792 136.779198 
L 332.761455 133.422143 
L 333.670782 128.961376 
L 334.580109 126.291077 
L 335.034772 125.420922 
L 335.489436 124.80674 
L 335.944099 124.425642 
L 336.398763 124.264013 
L 336.853426 124.315646 
L 337.30809 124.580943 
L 337.762753 125.06697 
L 338.217417 125.788363 
L 338.67208 126.769364 
L 339.126744 128.047627 
L 339.581407 129.68122 
L 340.036071 131.762103 
L 340.490734 134.444316 
L 340.945398 138.011106 
L 341.400061 143.070277 
L 341.854725 151.365868 
L 342.309388 175.033205 
L 342.764052 157.944609 
L 343.218715 146.378208 
L 343.673379 140.279695 
L 344.128042 136.215631 
L 345.037369 130.993936 
L 345.946696 127.886342 
L 346.856023 126.086693 
L 347.310686 125.569326 
L 347.76535 125.278331 
L 348.220013 125.203355 
L 348.674677 125.341006 
L 349.12934 125.694424 
L 349.584004 126.273677 
L 350.038667 127.097094 
L 350.493331 128.193924 
L 350.947994 129.609242 
L 351.402658 131.413084 
L 351.857321 133.718569 
L 352.311985 136.721659 
L 352.766648 140.802955 
L 353.221312 146.86201 
L 353.675975 158.11694 
L 354.130639 178.530869 
L 354.585302 152.798726 
L 355.039966 144.369989 
L 355.494629 139.30307 
L 355.949292 135.764505 
L 356.858619 131.096058 
L 357.767946 128.298386 
L 358.22261 127.377638 
L 358.677273 126.71765 
L 359.131937 126.293749 
L 359.5866 126.090972 
L 360.041264 126.101983 
L 360.495927 126.326121 
L 360.950591 126.769324 
L 361.405254 127.444879 
L 361.859918 128.375249 
L 362.314581 129.59551 
L 362.769245 131.159675 
L 363.223908 133.152742 
L 363.678572 135.715461 
L 364.133235 139.10187 
L 364.587899 143.840112 
L 365.042562 151.350892 
L 365.497226 169.125785 
L 365.951889 163.044059 
L 366.406552 149.455167 
L 366.861216 142.828182 
L 367.315879 138.51265 
L 368.225206 133.033703 
L 369.134533 129.781901 
L 370.04386 127.878837 
L 370.498524 127.316923 
L 370.953187 126.983821 
L 371.407851 126.867926 
L 371.862514 126.964745 
L 372.317178 127.276329 
L 372.771841 127.81153 
L 373.226505 128.58716 
L 373.681168 129.630386 
L 374.135832 130.983159 
L 374.590495 132.710427 
L 375.045159 134.9162 
L 375.499822 137.778114 
L 375.954486 141.633248 
L 376.409149 147.245718 
L 376.863812 157.088345 
L 377.318476 209.76508 
L 377.773139 156.498287 
L 378.227803 147.041417 
L 378.682466 141.597857 
L 379.13713 137.857489 
L 380.046457 132.965411 
L 380.955784 130.034445 
L 381.410447 129.061544 
L 381.865111 128.354698 
L 382.319774 127.887296 
L 382.774438 127.642935 
L 383.229101 127.613092 
L 383.683765 127.796016 
L 384.138428 128.196504 
L 384.593092 128.826517 
L 385.047755 129.706782 
L 385.502419 130.869907 
L 385.957082 132.36608 
L 386.411746 134.273818 
L 386.866409 136.721753 
L 387.321073 139.937998 
L 387.775736 144.383041 
L 388.230399 151.226475 
L 388.685063 165.565732 
L 389.139726 169.078157 
L 389.59439 152.450043 
L 390.049053 145.186489 
L 390.503717 140.586212 
L 391.413044 134.827539 
L 392.322371 131.424021 
L 393.231698 129.41435 
L 393.686361 128.807034 
L 394.141025 128.431275 
L 394.595688 128.274143 
L 395.050352 128.330005 
L 395.505015 128.599805 
L 395.959679 129.091187 
L 396.414342 129.81948 
L 396.869006 130.809847 
L 397.323669 132.101279 
L 397.778333 133.753967 
L 398.232996 135.863556 
L 398.687659 138.591216 
L 399.142323 142.236194 
L 399.596986 147.451464 
L 400.05165 156.178348 
L 400.506313 185.042363 
L 400.960977 160.37975 
L 401.41564 149.580779 
L 401.870304 143.698543 
L 402.324967 139.733562 
L 403.234294 134.600818 
L 404.143621 131.530483 
L 405.052948 129.749098 
L 405.507612 129.237505 
L 405.962275 128.951135 
L 406.416939 128.880229 
L 406.871602 129.021915 
L 407.326266 129.379849 
L 407.780929 129.964682 
L 408.235593 130.795467 
L 408.690256 131.902462 
L 409.144919 133.332256 
L 409.599583 135.15738 
L 410.054246 137.495469 
L 410.50891 140.551721 
L 410.963573 144.729223 
L 411.418237 151.000701 
L 412.327564 177.286365 
L 412.782227 155.431936 
L 413.236891 147.389904 
L 413.691554 142.465853 
L 414.146218 138.999449 
L 415.055545 134.399829 
L 415.964872 131.632217 
L 416.419535 130.720192 
L 416.874199 130.066611 
L 417.328862 129.647645 
L 417.783526 129.448967 
L 418.238189 129.463762 
L 418.692853 129.691856 
L 419.147516 130.139693 
L 419.602179 130.821158 
L 420.056843 131.759495 
L 420.511506 132.990899 
L 420.96617 134.571139 
L 421.420833 136.588203 
L 421.875497 139.188519 
L 422.33016 142.638498 
L 422.784824 147.499581 
L 423.239487 155.323899 
L 423.694151 175.216515 
L 425.058141 145.633651 
L 425.512805 141.417889 
L 426.422132 136.025946 
L 427.331459 132.809896 
L 428.240786 130.924176 
L 428.695449 130.367689 
L 429.150113 130.038886 
L 429.604776 129.926711 
L 430.059439 130.027147 
L 430.514103 130.342709 
L 430.968766 130.88276 
L 431.42343 131.66474 
L 431.878093 132.716672 
L 432.332757 134.081782 
L 432.78742 135.827081 
L 433.242084 138.060253 
L 433.696747 140.966271 
L 434.151411 144.899456 
L 434.606074 150.676606 
L 435.060738 161.046946 
L 435.515401 193.165201 
L 435.970065 158.484077 
L 436.424728 149.469782 
L 436.879392 144.175218 
L 437.334055 140.507435 
L 438.243382 135.683007 
L 439.152709 132.781115 
L 439.607373 131.816584 
L 440.062036 131.115849 
L 440.5167 130.653113 
L 440.971363 130.412573 
L 441.426026 130.386194 
L 441.88069 130.572669 
L 442.335353 130.977251 
L 442.790017 131.612424 
L 443.24468 132.499595 
L 443.699344 133.67233 
L 444.154007 135.182289 
L 444.608671 137.110473 
L 445.063334 139.590128 
L 445.517998 142.85915 
L 445.972661 147.403223 
L 446.427325 154.482996 
L 446.881988 169.977635 
L 447.336652 169.721249 
L 447.791315 154.439456 
L 448.245979 147.427408 
L 448.700642 142.930341 
L 449.609969 137.258762 
L 450.519296 133.890284 
L 451.428623 131.897428 
L 451.883286 131.29532 
L 452.33795 130.923642 
L 452.792613 130.769985 
L 453.247277 130.829159 
L 453.70194 131.102535 
L 454.156604 131.598214 
L 454.611267 132.332079 
L 455.065931 133.330039 
L 455.520594 134.632173 
L 455.975258 136.300417 
L 456.429921 138.433459 
L 456.884585 141.198421 
L 457.339248 144.908078 
L 457.793912 150.254448 
L 458.248575 159.357903 
L 458.703239 195.44287 
L 459.157902 161.719637 
L 459.612566 151.455891 
L 460.067229 145.733753 
L 460.521893 141.843564 
L 461.43122 136.778749 
L 462.340546 133.737097 
L 463.249873 131.969847 
L 463.704537 131.462754 
L 464.1592 131.180022 
L 464.613864 131.112353 
L 465.068527 131.257291 
L 465.523191 131.618911 
L 465.977854 132.208332 
L 466.432518 133.04521 
L 466.887181 134.160632 
L 467.341845 135.602455 
L 467.796508 137.445307 
L 468.251172 139.810645 
L 468.705835 142.911568 
L 469.160499 147.170692 
L 469.615162 153.626093 
L 470.524489 176.447795 
L 470.979153 156.856453 
L 471.433816 149.101346 
L 471.88848 144.286841 
L 472.343143 140.87652 
L 473.25247 136.330862 
L 474.161797 133.586973 
L 474.61646 132.681858 
L 475.071124 132.033371 
L 475.525787 131.618354 
L 475.980451 131.422987 
L 476.435114 131.440877 
L 476.889778 131.672247 
L 477.344441 132.12396 
L 477.799105 132.8104 
L 478.253768 133.755468 
L 478.708432 134.996312 
L 479.163095 136.590196 
L 479.617759 138.627681 
L 480.072422 141.260117 
L 480.527086 144.764759 
L 480.981749 149.732774 
L 481.436413 157.838117 
L 481.891076 179.995691 
L 482.800403 153.378643 
L 483.255066 147.157905 
L 483.70973 143.020986 
L 484.619057 137.698613 
L 485.528384 134.511376 
L 486.437711 132.639702 
L 486.892374 132.087636 
L 487.347038 131.76236 
L 487.801701 131.65327 
L 488.256365 131.756743 
L 488.711028 132.075682 
L 489.165692 132.619884 
L 489.620355 133.407325 
L 490.075019 134.466768 
L 490.529682 135.842543 
L 490.984346 137.603465 
L 491.439009 139.860444 
L 491.893673 142.804959 
L 492.348336 146.806821 
L 492.803 152.73124 
L 493.257663 163.596399 
L 493.712327 187.866423 
L 494.16699 159.348718 
L 494.621653 150.675627 
L 495.076317 145.500301 
L 495.53098 141.891437 
L 496.440307 137.122413 
L 497.349634 134.244482 
L 497.804298 133.286874 
L 498.258961 132.59121 
L 498.713625 132.132366 
L 499.168288 131.89504 
L 499.622952 131.871608 
L 500.077615 132.061138 
L 500.532279 132.469277 
L 500.986942 133.108963 
L 501.441606 134.002197 
L 501.896269 135.183387 
L 502.350933 136.705502 
L 502.805596 138.651756 
L 503.26026 141.159539 
L 503.714923 144.475621 
L 504.169587 149.108891 
L 504.62425 156.40644 
L 505.078913 173.076403 
L 505.533577 169.571767 
L 505.98824 155.271664 
L 506.442904 148.462025 
L 506.897567 144.049932 
L 507.806894 138.450945 
L 508.716221 135.111902 
L 509.625548 133.133237 
L 510.080212 132.535547 
L 510.534875 132.167352 
L 510.989539 132.016688 
L 511.444202 132.078749 
L 511.898866 132.355275 
L 512.353529 132.854769 
L 512.808193 133.593608 
L 513.262856 134.598364 
L 513.71752 135.910099 
L 514.172183 137.592324 
L 514.626847 139.746501 
L 515.08151 142.545211 
L 515.536173 146.313783 
L 515.990837 151.781162 
L 516.4455 161.244614 
L 516.900164 212.430068 
L 517.354827 162.008362 
L 517.809491 152.170294 
L 518.264154 146.581284 
L 518.718818 142.754244 
L 519.628145 137.747319 
L 520.537472 134.730265 
L 521.446799 132.975192 
L 521.901462 132.472 
L 522.356126 132.192443 
L 522.810789 132.12763 
L 523.265453 132.275469 
L 523.720116 132.640406 
L 524.17478 133.233987 
L 524.629443 134.076408 
L 525.084107 135.199518 
L 525.53877 136.652336 
L 525.993433 138.511423 
L 526.448097 140.901792 
L 526.90276 144.043945 
L 527.357424 148.379052 
L 527.812087 155.008819 
L 528.266751 168.501255 
L 528.721414 175.153881 
L 529.176078 157.17525 
L 529.630741 149.6591 
L 530.085405 144.938219 
L 530.994732 139.041344 
L 531.904059 135.543834 
L 532.813386 133.455468 
L 533.268049 132.811467 
L 533.722713 132.399948 
L 534.177376 132.207537 
L 534.63204 132.22822 
L 535.086703 132.462577 
L 535.541367 132.917853 
L 535.99603 133.608891 
L 536.450693 134.5602 
L 536.905357 135.809815 
L 537.36002 137.416399 
L 537.814684 139.472937 
L 538.269347 142.135445 
L 538.724011 145.691566 
L 539.178674 150.761408 
L 539.633338 159.141715 
L 540.088001 183.993988 
L 540.542665 164.977338 
L 540.997328 153.606621 
L 541.451992 147.538479 
L 541.906655 143.470595 
L 542.815982 138.20974 
L 543.725309 135.048147 
L 544.634636 133.189028 
L 545.0893 132.640934 
L 545.543963 132.318849 
L 545.543963 132.318849 
" clip-path="url(#p25272f3445)" style="fill: none; stroke: #ff7f0e; stroke-linecap: square"/>
   </g>
   <g id="line2d_29">
    <path d="M 80.423224 36.350272 
L 82.696542 36.227084 
L 86.33385 35.984026 
L 88.607167 36.119193 
L 91.789811 36.360905 
L 94.063129 36.249966 
L 97.700437 35.958227 
L 99.519091 36.046148 
L 103.611062 36.409188 
L 105.429716 36.287605 
L 109.067024 35.881107 
L 110.885677 35.98773 
L 115.432312 36.549046 
L 116.796303 36.344704 
L 119.978947 35.578405 
L 120.888274 35.601118 
L 121.797601 35.876906 
L 122.706928 36.480208 
L 123.616255 37.482584 
L 124.525582 38.957098 
L 125.434909 40.985416 
L 126.344236 43.66891 
L 127.253563 47.147744 
L 128.16289 51.638772 
L 129.072217 57.525622 
L 129.981544 65.633356 
L 130.436207 71.13783 
L 130.890871 78.531516 
L 131.345534 90.432593 
L 131.800198 131.871314 
L 132.254861 92.903193 
L 132.709524 85.931844 
L 133.164188 83.047496 
L 133.618851 82.106364 
L 134.073515 82.482917 
L 134.528178 83.989537 
L 134.982842 86.681683 
L 135.437505 90.902031 
L 135.892169 97.678696 
L 136.346832 111.414877 
L 136.801496 119.65771 
L 137.256159 102.193317 
L 137.710823 95.770321 
L 138.165486 92.43104 
L 138.62015 90.740075 
L 139.074813 90.202839 
L 139.529477 90.631946 
L 139.98414 92.000446 
L 140.438804 94.424396 
L 140.893467 98.244817 
L 141.348131 104.373524 
L 141.802794 116.291864 
L 142.257458 132.931039 
L 142.712121 110.502041 
L 143.166784 103.166849 
L 143.621448 99.269766 
L 144.076111 97.115558 
L 144.530775 96.139306 
L 144.985438 96.117452 
L 145.440102 96.988518 
L 145.894765 98.814806 
L 146.349429 101.821365 
L 146.804092 106.57721 
L 147.258756 114.795553 
L 147.713419 138.462666 
L 148.168083 122.013186 
L 148.622746 111.011212 
L 149.07741 105.728901 
L 149.532073 102.730784 
L 149.986737 101.107028 
L 150.4414 100.509296 
L 150.896064 100.805707 
L 151.350727 101.992287 
L 151.805391 104.190645 
L 152.260054 107.728349 
L 152.714718 113.452122 
L 153.169381 124.425068 
L 153.624044 147.559115 
L 154.078708 120.447632 
L 154.533371 112.491533 
L 154.988035 108.219386 
L 155.442698 105.753462 
L 155.897362 104.483492 
L 156.352025 104.164828 
L 156.806689 104.718277 
L 157.261352 106.181408 
L 157.716016 108.730745 
L 158.170679 112.809024 
L 158.625343 119.636122 
L 159.080006 134.932263 
L 159.53467 135.534944 
L 159.989333 120.48417 
L 160.443997 114.093902 
L 160.89866 110.478947 
L 161.353324 108.400576 
L 161.807987 107.410233 
L 162.262651 107.328147 
L 162.717314 108.113547 
L 163.171978 109.840707 
L 163.626641 112.744084 
L 164.081304 117.405964 
L 164.535968 125.583078 
L 164.990631 150.047119 
L 165.445295 131.985012 
L 165.899958 121.022343 
L 166.354622 115.644084 
L 166.809285 112.519541 
L 167.263949 110.755037 
L 167.718612 110.005745 
L 168.173276 110.138822 
L 168.627939 111.14555 
L 169.082603 113.136314 
L 169.537266 116.410948 
L 169.99193 121.729104 
L 170.446593 131.674242 
L 170.901257 171.268979 
L 171.35592 130.481797 
L 171.810584 121.746219 
L 172.265247 117.104881 
L 172.719911 114.376239 
L 173.174574 112.882034 
L 173.629238 112.351133 
L 174.083901 112.687909 
L 174.538565 113.912803 
L 174.993228 116.174125 
L 175.447891 119.848677 
L 175.902555 125.930388 
L 176.811882 149.634448 
L 177.266545 129.821978 
L 177.721209 122.539408 
L 178.175872 118.474934 
L 178.630536 116.082179 
L 179.085199 114.829968 
L 179.539863 114.503224 
L 179.994526 115.037823 
L 180.44919 116.48241 
L 180.903853 119.026924 
L 181.358517 123.141652 
L 181.81318 130.141646 
L 182.267844 146.632696 
L 182.722507 143.605869 
L 183.177171 129.588521 
L 183.631834 123.353318 
L 184.086498 119.762677 
L 184.541161 117.664688 
L 184.995825 116.634935 
L 185.450488 116.503169 
L 185.905151 117.233329 
L 186.359815 118.902632 
L 186.814478 121.748226 
L 187.269142 126.356973 
L 187.723805 134.502268 
L 188.178469 159.279863 
L 188.633132 140.561563 
L 189.087796 129.596837 
L 189.542459 124.166447 
L 189.997123 120.978562 
L 190.451786 119.145652 
L 190.90645 118.32436 
L 191.361113 118.381757 
L 191.815777 119.30786 
L 192.27044 121.209916 
L 192.725104 124.380017 
L 193.179767 129.554033 
L 193.634431 139.192352 
L 194.089094 190.891956 
L 194.543758 138.76953 
L 194.998421 129.752972 
L 195.453085 124.969289 
L 195.907748 122.132642 
L 196.362411 120.542583 
L 196.817075 119.919538 
L 197.271738 120.162729 
L 197.726402 121.287314 
L 198.181065 123.433077 
L 198.635729 126.957487 
L 199.090392 132.791754 
L 199.545056 144.49485 
L 199.999719 159.888172 
L 200.454383 137.644703 
L 200.909046 130.00451 
L 201.36371 125.758019 
L 201.818373 123.233885 
L 202.273037 121.869626 
L 202.7277 121.437368 
L 203.182364 121.864907 
L 203.637027 123.192448 
L 204.091691 125.595946 
L 204.546354 129.512245 
L 205.001018 136.135841 
L 205.455681 150.958374 
L 205.910345 152.480145 
L 206.365008 136.923018 
L 206.819671 130.320253 
L 207.274335 126.531619 
L 207.728998 124.290095 
L 208.183662 123.138355 
L 208.638325 122.891544 
L 209.092989 123.503609 
L 209.547652 125.040463 
L 210.002316 127.719166 
L 210.456979 132.074842 
L 210.911643 139.668444 
L 211.366306 160.012167 
L 212.275633 136.465138 
L 212.730297 130.680725 
L 213.18496 127.29048 
L 213.639624 125.308011 
L 214.094287 124.358374 
L 214.548951 124.293391 
L 215.003614 125.091626 
L 215.458278 126.846088 
L 215.912941 129.821501 
L 216.367605 134.677106 
L 216.822268 143.504368 
L 217.276931 179.058514 
L 217.731595 146.090717 
L 218.186258 136.189847 
L 218.640922 131.073329 
L 219.095585 128.035703 
L 219.550249 126.293466 
L 220.004912 125.537773 
L 220.459576 125.652461 
L 220.914239 126.639904 
L 221.368903 128.622376 
L 221.823566 131.920886 
L 222.27823 137.354787 
L 222.732893 147.823575 
L 223.187557 174.568692 
L 223.64222 144.406644 
L 224.096884 136.046401 
L 224.551547 131.489703 
L 225.006211 128.768729 
L 225.460874 127.251534 
L 225.915538 126.683473 
L 226.370201 126.976972 
L 226.824865 128.158058 
L 227.279528 130.381307 
L 227.734192 134.035381 
L 228.188855 140.151085 
L 228.643518 152.948755 
L 229.098182 162.033685 
L 229.552845 143.207056 
L 230.007509 136.00143 
L 230.462172 131.924194 
L 230.916836 129.491144 
L 231.371499 128.186671 
L 231.826163 127.801481 
L 232.280826 128.274133 
L 232.73549 129.654749 
L 233.190153 132.13429 
L 233.644817 136.184148 
L 234.09948 143.12207 
L 234.554144 159.578181 
L 235.008807 156.394378 
L 235.463471 142.332169 
L 235.918134 136.032106 
L 236.372798 132.372941 
L 236.827461 130.204579 
L 237.282125 129.102831 
L 237.736788 128.897098 
L 238.191452 129.550397 
L 238.646115 131.137997 
L 239.100778 133.892606 
L 239.555442 138.388602 
L 240.010105 146.345979 
L 240.464769 169.827269 
L 240.919432 152.95469 
L 241.374096 141.687581 
L 241.828759 136.122331 
L 242.283423 132.833303 
L 242.738086 130.910657 
L 243.19275 130.003559 
L 243.647413 129.975075 
L 244.102077 130.811665 
L 244.55674 132.615441 
L 245.011404 135.66785 
L 245.466067 140.673922 
L 245.920731 149.940944 
L 246.375394 206.340759 
L 246.830058 150.599301 
L 247.284721 141.213342 
L 247.739385 136.260467 
L 248.194048 133.303491 
L 248.648712 131.610972 
L 249.103375 130.892075 
L 249.558038 131.039744 
L 250.012702 132.063445 
L 250.467365 134.094567 
L 250.922029 137.472407 
L 251.376692 143.071215 
L 251.831356 154.103048 
L 252.286019 174.308793 
L 252.740683 148.884742 
L 253.195346 140.869309 
L 253.65001 136.437936 
L 254.104673 133.782321 
L 254.559337 132.307079 
L 255.014 131.771341 
L 255.468664 132.095118 
L 255.923327 133.311001 
L 256.377991 135.582931 
L 256.832654 139.320019 
L 257.287318 145.620885 
L 257.741981 159.202161 
L 258.196645 164.851871 
L 258.651308 147.590096 
L 259.105972 140.627491 
L 259.560635 136.648317 
L 260.015298 134.269054 
L 260.469962 133.000491 
L 260.924625 132.64412 
L 261.379289 133.144989 
L 261.833952 134.559474 
L 262.288616 137.08839 
L 262.743279 141.226505 
L 263.197943 148.378229 
L 263.652606 166.090085 
L 264.10727 159.855802 
L 264.561933 146.589831 
L 265.016597 140.467746 
L 265.47126 136.886748 
L 265.925924 134.763279 
L 266.380587 133.692691 
L 266.835251 133.513024 
L 267.289914 134.192995 
L 267.744578 135.814003 
L 268.199241 138.619353 
L 268.653905 143.21075 
L 269.108568 151.423492 
L 269.563232 177.6857 
L 270.017895 156.595476 
L 270.472558 145.806121 
L 270.927222 140.375208 
L 271.381885 137.149516 
L 271.836549 135.26484 
L 272.291212 134.385138 
L 272.745876 134.380557 
L 273.200539 135.242703 
L 273.655203 137.079851 
L 274.109866 140.185087 
L 274.56453 145.296142 
L 275.019193 154.881613 
L 275.473857 205.301612 
L 275.92852 154.259364 
L 276.383184 145.187625 
L 276.837847 140.338674 
L 277.292511 137.433778 
L 277.747174 135.773779 
L 278.201838 135.07928 
L 278.656501 135.249163 
L 279.111165 136.29767 
L 279.565828 138.362533 
L 280.020492 141.796096 
L 280.475155 147.512745 
L 280.929819 158.965808 
L 281.384482 175.610168 
L 281.839145 152.494821 
L 282.293809 144.698858 
L 282.748472 140.349562 
L 283.203136 137.737352 
L 283.657799 136.290298 
L 284.112463 135.776564 
L 284.567126 136.121254 
L 285.02179 137.361511 
L 285.476453 139.667959 
L 285.931117 143.46462 
L 286.38578 149.900804 
L 286.840444 164.091066 
L 287.295107 167.448948 
L 287.749771 151.116943 
L 288.204434 144.314397 
L 288.659098 140.401208 
L 289.113761 138.058572 
L 289.568425 136.814731 
L 290.023088 136.47845 
L 290.477752 136.999255 
L 290.932415 138.437974 
L 291.387079 141.002611 
L 291.841742 145.20532 
L 292.296405 152.516689 
L 292.751069 171.259671 
L 293.205732 162.77327 
L 293.660396 150.016935 
L 294.115059 144.015496 
L 294.569723 140.488379 
L 295.024386 138.396183 
L 295.47905 137.347527 
L 295.933713 137.186426 
L 296.388377 137.885635 
L 296.84304 139.531013 
L 297.297704 142.373752 
L 297.752367 147.036261 
L 298.207031 155.44376 
L 298.661694 184.317397 
L 299.116358 159.594946 
L 299.571021 149.125563 
L 300.025685 143.78801 
L 300.480348 140.606936 
L 300.935012 138.749262 
L 301.389675 137.889238 
L 301.844339 137.902021 
L 302.299002 138.782948 
L 302.753665 140.644873 
L 303.208329 143.7897 
L 303.662992 148.980364 
L 304.117656 158.814035 
L 304.572319 197.420603 
L 305.026983 157.250405 
L 305.481646 148.396187 
L 305.93631 143.621065 
L 306.390973 140.753588 
L 306.845637 139.117158 
L 307.3003 138.440513 
L 307.754964 138.626827 
L 308.209627 139.693878 
L 308.664291 141.784201 
L 309.118954 145.260187 
L 309.573618 151.067667 
L 310.482945 177.132366 
L 310.937608 155.435975 
L 311.392272 147.796001 
L 311.846935 143.506169 
L 312.301599 140.92571 
L 312.756262 139.499448 
L 313.210925 139.002094 
L 313.665589 139.362512 
L 314.120252 140.621281 
L 314.574916 142.954167 
L 315.029579 146.796852 
L 315.484243 153.338994 
L 315.938906 168.029761 
L 316.39357 169.686624 
L 316.848233 153.987371 
L 317.302897 147.301132 
L 317.75756 143.436604 
L 318.212224 141.121211 
L 318.666887 139.895903 
L 319.121551 139.574818 
L 319.576214 140.110849 
L 320.030878 141.568243 
L 320.485541 144.160623 
L 320.940205 148.413928 
L 321.394868 155.852257 
L 321.849532 175.482367 
L 323.213522 146.893737 
L 323.668185 143.407006 
L 324.122849 141.338431 
L 324.577512 140.306466 
L 325.032176 140.159618 
L 325.486839 140.873729 
L 325.941503 142.538142 
L 326.396166 145.410301 
L 326.85083 150.129246 
L 327.305493 158.694076 
L 327.760157 190.136105 
L 328.21482 162.061892 
L 328.669484 151.827395 
L 329.124147 146.56018 
L 329.578811 143.413051 
L 330.033474 141.576067 
L 330.488138 140.731231 
L 330.942801 140.75753 
L 331.397465 141.6532 
L 331.852128 143.534723 
L 332.306792 146.711084 
L 332.761455 151.965728 
L 333.216119 162.003245 
L 333.670782 195.148858 
L 334.125446 159.699389 
L 334.580109 151.008496 
L 335.034772 146.289854 
L 335.489436 143.451242 
L 335.944099 141.833115 
L 336.398763 141.170434 
L 336.853426 141.369704 
L 337.30809 142.451494 
L 337.762753 144.562195 
L 338.217417 148.072361 
L 338.67208 153.953737 
L 339.581407 178.548418 
L 340.036071 157.838751 
L 340.490734 150.318086 
L 340.945398 146.074385 
L 341.400061 143.518738 
L 341.854725 142.108826 
L 342.309388 141.624445 
L 342.764052 141.997417 
L 343.218715 143.271069 
L 343.673379 145.625352 
L 344.128042 149.505527 
L 344.582706 156.134913 
L 345.037369 171.254676 
L 345.492032 171.55921 
L 345.946696 156.329225 
L 346.401359 149.733366 
L 346.856023 145.907078 
L 347.310686 143.613232 
L 347.76535 142.402672 
L 348.220013 142.093763 
L 348.674677 142.642086 
L 349.12934 144.11466 
L 349.584004 146.729727 
L 350.038667 151.024685 
L 350.493331 158.568814 
L 350.947994 178.990338 
L 351.857321 155.078795 
L 352.311985 149.237141 
L 352.766648 145.782527 
L 353.221312 143.73285 
L 353.675975 142.714317 
L 354.130639 142.579017 
L 354.585302 143.305289 
L 355.039966 144.985334 
L 355.494629 147.88179 
L 355.949292 152.647669 
L 356.403956 161.345249 
L 356.858619 195.421607 
L 357.313283 164.077956 
L 357.767946 154.027248 
L 358.22261 148.816165 
L 358.677273 145.696334 
L 359.131937 143.876082 
L 359.5866 143.0436 
L 360.041264 143.080966 
L 360.495927 143.988789 
L 360.950591 145.886562 
L 361.405254 149.089215 
L 361.859918 154.397595 
L 362.314581 164.609427 
L 362.769245 194.294669 
L 363.223908 161.694035 
L 363.678572 153.133102 
L 364.133235 148.460057 
L 364.587899 145.644902 
L 365.042562 144.041729 
L 365.497226 143.390522 
L 365.951889 143.600507 
L 366.406552 144.694562 
L 366.861216 146.822316 
L 367.315879 150.361241 
L 367.770543 156.305287 
L 368.67987 179.757675 
L 369.134533 159.791009 
L 369.589197 152.366619 
L 370.04386 148.16056 
L 370.498524 145.625279 
L 370.953187 144.228855 
L 371.407851 143.755237 
L 371.862514 144.138689 
L 372.317178 145.424841 
L 372.771841 147.797187 
L 373.226505 151.709184 
L 373.681168 158.413281 
L 374.135832 173.913399 
L 374.590495 173.087989 
L 375.045159 158.227835 
L 375.499822 151.705802 
L 375.954486 147.91103 
L 376.409149 145.635037 
L 376.863812 144.436758 
L 377.318476 144.138045 
L 377.773139 144.696723 
L 378.227803 146.182156 
L 378.682466 148.816537 
L 379.13713 153.14715 
L 379.591793 160.782782 
L 380.046457 181.931928 
L 380.955784 156.917456 
L 381.410447 151.133958 
L 381.865111 147.706064 
L 382.319774 145.672185 
L 382.774438 144.664937 
L 383.229101 144.539393 
L 383.683765 145.275998 
L 384.138428 146.969394 
L 384.593092 149.886703 
L 385.047755 154.693092 
L 385.502419 163.506676 
L 385.957082 200.401775 
L 386.411746 165.702238 
L 386.866409 155.802417 
L 387.321073 150.638154 
L 387.775736 147.541236 
L 388.230399 145.735092 
L 388.685063 144.913078 
L 389.139726 144.959872 
L 389.59439 145.878107 
L 390.049053 147.78987 
L 390.503717 151.015263 
L 390.95838 156.370404 
L 391.413044 166.736304 
L 391.867707 193.915252 
L 392.322371 163.295674 
L 392.777034 154.84286 
L 393.231698 150.208201 
L 393.686361 147.412902 
L 394.141025 145.822442 
L 394.595688 145.181038 
L 395.050352 145.400226 
L 395.505015 146.504872 
L 395.959679 148.647419 
L 396.414342 152.211404 
L 396.869006 158.210431 
L 397.778333 180.727742 
L 398.232996 161.353437 
L 398.687659 154.010048 
L 399.142323 149.835953 
L 399.596986 147.318049 
L 400.05165 145.933185 
L 400.506313 145.468835 
L 400.960977 145.86136 
L 401.41564 147.158387 
L 401.870304 149.546515 
L 402.324967 153.486446 
L 402.779631 160.256629 
L 403.234294 176.103792 
L 403.688958 174.296798 
L 404.143621 159.741917 
L 404.598285 153.282617 
L 405.052948 149.514825 
L 405.507612 147.254185 
L 405.962275 146.06651 
L 406.416939 145.776645 
L 406.871602 146.344354 
L 407.326266 147.841056 
L 407.780929 150.492433 
L 408.235593 154.854569 
L 408.690256 162.571828 
L 409.144919 184.407831 
L 410.054246 158.377915 
L 410.50891 152.644279 
L 410.963573 149.239437 
L 411.418237 147.219244 
L 411.8729 146.221815 
L 412.327564 146.104799 
L 412.782227 146.850481 
L 413.236891 148.555659 
L 413.691554 151.491442 
L 414.146218 156.333901 
L 414.600881 165.251904 
L 415.055545 205.30857 
L 415.510208 166.97725 
L 415.964872 157.206149 
L 416.419535 152.082363 
L 416.874199 149.005359 
L 417.328862 147.211525 
L 417.783526 146.398685 
L 418.238189 146.45378 
L 418.692853 147.381225 
L 419.147516 149.305416 
L 419.602179 152.551088 
L 420.056843 157.948158 
L 420.511506 168.454135 
L 420.96617 193.667659 
L 421.420833 164.54762 
L 421.875497 156.188061 
L 422.33016 151.586844 
L 422.784824 148.808926 
L 423.239487 147.229636 
L 423.694151 146.596882 
L 424.148814 146.824229 
L 424.603478 147.938308 
L 425.058141 150.09408 
L 425.512805 153.680561 
L 425.967468 159.729237 
L 426.422132 172.464507 
L 426.876795 181.449371 
L 427.331459 162.568588 
L 427.786122 155.295725 
L 428.240786 151.149681 
L 428.695449 148.647093 
L 429.150113 147.272454 
L 429.604776 146.816338 
L 430.059439 147.216959 
L 430.514103 148.523734 
L 430.968766 150.926064 
L 431.42343 154.891228 
L 431.878093 161.721522 
L 432.332757 177.893478 
L 432.78742 175.205843 
L 433.242084 160.912516 
L 433.696747 154.508296 
L 434.151411 150.764347 
L 434.606074 148.517327 
L 435.060738 147.339096 
L 435.515401 147.057143 
L 435.970065 147.632965 
L 436.424728 149.13983 
L 436.879392 151.806593 
L 437.334055 156.197386 
L 437.788719 163.989453 
L 438.243382 186.489633 
L 438.698046 171.036707 
L 439.152709 159.499346 
L 439.607373 153.809827 
L 440.062036 150.425492 
L 440.5167 148.41752 
L 440.971363 147.42889 
L 441.426026 147.31955 
L 441.88069 148.073437 
L 442.335353 149.789307 
L 442.790017 152.741914 
L 443.24468 157.61737 
L 443.699344 166.631843 
L 444.154007 210.447473 
L 444.608671 167.933306 
L 445.063334 158.275588 
L 445.517998 153.187871 
L 445.972661 150.128696 
L 446.427325 148.345924 
L 446.881988 147.541355 
L 447.336652 147.603968 
L 447.791315 148.539789 
L 448.245979 150.475325 
L 448.700642 153.739575 
L 449.155306 159.175243 
L 449.609969 169.811814 
L 450.064633 193.396582 
L 450.519296 165.480397 
L 450.97396 157.203763 
L 451.428623 152.632547 
L 451.883286 149.870286 
L 452.33795 148.301094 
L 452.792613 147.676189 
L 453.247277 147.91097 
L 453.70194 149.033678 
L 454.156604 151.201593 
L 454.611267 154.808801 
L 455.065931 160.903473 
L 455.520594 173.828638 
L 455.975258 181.920876 
L 456.429921 163.46626 
L 456.884585 156.256626 
L 457.339248 152.135908 
L 457.793912 149.647199 
L 458.248575 148.28186 
L 458.703239 147.833259 
L 459.157902 148.241303 
L 459.612566 149.557046 
L 460.067229 151.972488 
L 460.521893 155.961036 
L 460.976556 162.847384 
L 461.43122 179.330452 
L 461.885883 175.830342 
L 462.340546 161.768247 
L 462.79521 155.413773 
L 463.249873 151.691483 
L 463.704537 149.456879 
L 464.1592 148.287286 
L 464.613864 148.012598 
L 465.068527 148.595899 
L 465.523191 150.11217 
L 465.977854 152.793216 
L 466.432518 157.210717 
L 466.887181 165.073024 
L 467.341845 188.230245 
L 467.796508 171.698893 
L 468.251172 160.308955 
L 468.705835 154.659551 
L 469.160499 151.293955 
L 469.615162 149.297188 
L 470.069826 148.316652 
L 470.524489 148.214401 
L 470.979153 148.975896 
L 471.433816 150.701713 
L 471.88848 153.670026 
L 472.343143 158.576409 
L 472.797806 167.682141 
L 473.25247 216.349496 
L 473.707133 168.591448 
L 474.161797 159.036419 
L 474.61646 153.981708 
L 475.071124 150.938919 
L 475.525787 149.166345 
L 475.980451 148.369429 
L 476.435114 148.439025 
L 476.889778 149.382655 
L 477.344441 151.328803 
L 477.799105 154.610489 
L 478.253768 160.082544 
L 478.708432 170.843707 
L 479.163095 193.02056 
L 479.617759 166.114986 
L 480.072422 157.914089 
L 480.527086 153.370493 
L 480.981749 150.622701 
L 481.436413 149.062871 
L 481.891076 148.445267 
L 482.34574 148.686991 
L 482.800403 149.817787 
L 483.255066 151.997121 
L 483.70973 155.623885 
L 484.164393 161.762175 
L 484.619057 174.870427 
L 485.07372 182.142026 
L 485.528384 164.066768 
L 485.983047 156.915308 
L 486.437711 152.81804 
L 486.892374 150.342229 
L 487.347038 148.985557 
L 487.801701 148.543987 
L 488.256365 148.958999 
L 488.711028 150.283194 
L 489.165692 152.71103 
L 489.620355 156.721758 
L 490.075019 163.661586 
L 490.529682 180.44927 
L 490.984346 176.180464 
L 491.439009 162.328457 
L 491.893673 156.020058 
L 492.348336 152.317934 
L 492.803 150.094929 
L 493.257663 148.933431 
L 493.712327 148.665575 
L 494.16699 149.255936 
L 494.621653 150.781115 
L 495.076317 153.475734 
L 495.53098 157.918702 
L 495.985644 165.84846 
L 496.440307 189.670263 
L 496.894971 172.079283 
L 497.349634 160.824961 
L 497.804298 155.212942 
L 498.258961 151.864889 
L 498.713625 149.878644 
L 499.168288 148.905733 
L 499.622952 148.810184 
L 500.077615 149.578898 
L 500.532279 151.314186 
L 500.986942 154.297498 
L 501.441606 159.23353 
L 501.896269 168.427518 
L 502.350933 224.300114 
L 502.805596 168.965339 
L 503.26026 159.505654 
L 503.714923 154.481883 
L 504.169587 151.454514 
L 504.62425 149.691566 
L 505.078913 148.901899 
L 505.533577 148.97813 
L 505.98824 149.929208 
L 506.442904 151.885511 
L 506.897567 155.183931 
L 507.352231 160.691059 
L 507.806894 171.573702 
L 508.261558 192.49086 
L 508.716221 166.464838 
L 509.170885 158.334806 
L 509.625548 153.817244 
L 510.080212 151.08314 
L 510.534875 149.532192 
L 510.989539 148.921539 
L 511.444202 149.169895 
L 511.898866 150.308445 
L 512.353529 152.49876 
L 512.808193 156.144388 
L 513.262856 162.324956 
L 513.71752 175.613556 
L 514.172183 182.11137 
L 514.626847 164.38294 
L 515.08151 157.286282 
L 515.536173 153.211236 
L 515.990837 150.747687 
L 516.4455 149.399281 
L 516.900164 148.964437 
L 517.354827 149.386141 
L 517.809491 150.718479 
L 518.264154 153.158292 
L 518.718818 157.190523 
L 519.173481 164.182492 
L 519.628145 181.274839 
L 520.082808 176.261508 
L 520.537472 162.605133 
L 520.992135 156.340405 
L 521.446799 152.657492 
L 521.901462 150.44557 
L 522.356126 149.291829 
L 522.810789 149.030544 
L 523.265453 149.627719 
L 523.720116 151.161524 
L 524.17478 153.869322 
L 524.629443 158.337105 
L 525.084107 166.333036 
L 525.53877 190.842226 
L 525.993433 172.184982 
L 526.448097 161.058389 
L 526.90276 155.482011 
L 527.357424 152.150754 
L 527.812087 150.174612 
L 528.266751 149.209047 
L 528.721414 149.119975 
L 529.176078 149.895691 
L 529.630741 151.640194 
L 530.085405 154.638141 
L 530.540068 159.603212 
L 530.994732 168.884383 
L 531.449395 240.135426 
L 531.904059 169.062397 
L 532.358722 159.69329 
L 532.813386 154.699176 
L 533.268049 151.686646 
L 533.722713 149.932987 
L 534.177376 149.150335 
L 534.63204 149.233012 
L 535.086703 150.191351 
L 535.541367 152.157581 
L 535.99603 155.47241 
L 536.450693 161.014071 
L 536.905357 172.017676 
L 537.36002 191.773831 
L 537.814684 166.537067 
L 538.269347 158.474845 
L 538.724011 153.98237 
L 539.178674 151.261501 
L 539.633338 149.719166 
L 540.088001 149.115274 
L 540.542665 149.370106 
L 540.997328 150.51625 
L 541.451992 152.717352 
L 541.906655 156.381566 
L 542.361319 162.603988 
L 542.815982 176.074001 
L 543.270646 181.824845 
L 543.725309 164.421275 
L 544.179973 157.377392 
L 544.634636 153.323871 
L 545.0893 150.872236 
L 545.543963 149.531883 
L 545.543963 149.531883 
" clip-path="url(#p25272f3445)" style="fill: none; stroke: #2ca02c; stroke-linecap: square"/>
   </g>
   <g id="patch_3">
    <path d="M 57.167188 250.421875 
L 57.167188 24.12 
" style="fill: none; stroke: #000000; stroke-width: 0.8; stroke-linejoin: miter; stroke-linecap: square"/>
   </g>
   <g id="patch_4">
    <path d="M 568.8 250.421875 
L 568.8 24.12 
" style="fill: none; stroke: #000000; stroke-width: 0.8; stroke-linejoin: miter; stroke-linecap: square"/>
   </g>
   <g id="patch_5">
    <path d="M 57.167187 250.421875 
L 568.8 250.421875 
" style="fill: none; stroke: #000000; stroke-width: 0.8; stroke-linejoin: miter; stroke-linecap: square"/>
   </g>
   <g id="patch_6">
    <path d="M 57.167187 24.12 
L 568.8 24.12 
" style="fill: none; stroke: #000000; stroke-width: 0.8; stroke-linejoin: miter; stroke-linecap: square"/>
   </g>
   <g id="text_16">
    <!-- Magnitude response, $|H(\omega)|^2$ -->
    <g transform="translate(226.883594 18.12) scale(0.12 -0.12)">
     <defs>
      <path id="DejaVuSans-4d" d="M 628 4666 
L 1569 4666 
L 2759 1491 
L 3956 4666 
L 4897 4666 
L 4897 0 
L 4281 0 
L 4281 4097 
L 3078 897 
L 2444 897 
L 1241 4097 
L 1241 0 
L 628 0 
L 628 4666 
z
" transform="scale(0.015625)"/>
      <path id="DejaVuSans-67" d="M 2906 1791 
Q 2906 2416 2648 2759 
Q 2391 3103 1925 3103 
Q 1463 3103 1205 2759 
Q 947 2416 947 1791 
Q 947 1169 1205 825 
Q 1463 481 1925 481 
Q 2391 481 2648 825 
Q 2906 1169 2906 1791 
z
M 3481 434 
Q 3481 -459 3084 -895 
Q 2688 -1331 1869 -1331 
Q 1566 -1331 1297 -1286 
Q 1028 -1241 775 -1147 
L 775 -588 
Q 1028 -725 1275 -790 
Q 1522 -856 1778 -856 
Q 2344 -856 2625 -561 
Q 2906 -266 2906 331 
L 2906 616 
Q 2728 306 2450 153 
Q 2172 0 1784 0 
Q 1141 0 747 490 
Q 353 981 353 1791 
Q 353 2603 747 3093 
Q 1141 3584 1784 3584 
Q 2172 3584 2450 3431 
Q 2728 3278 2906 2969 
L 2906 3500 
L 3481 3500 
L 3481 434 
z
" transform="scale(0.015625)"/>
      <path id="DejaVuSans-74" d="M 1172 4494 
L 1172 3500 
L 2356 3500 
L 2356 3053 
L 1172 3053 
L 1172 1153 
Q 1172 725 1289 603 
Q 1406 481 1766 481 
L 2356 481 
L 2356 0 
L 1766 0 
Q 1100 0 847 248 
Q 594 497 594 1153 
L 594 3053 
L 172 3053 
L 172 3500 
L 594 3500 
L 594 4494 
L 1172 4494 
z
" transform="scale(0.015625)"/>
      <path id="DejaVuSans-73" d="M 2834 3397 
L 2834 2853 
Q 2591 2978 2328 3040 
Q 2066 3103 1784 3103 
Q 1356 3103 1142 2972 
Q 928 2841 928 2578 
Q 928 2378 1081 2264 
Q 1234 2150 1697 2047 
L 1894 2003 
Q 2506 1872 2764 1633 
Q 3022 1394 3022 966 
Q 3022 478 2636 193 
Q 2250 -91 1575 -91 
Q 1294 -91 989 -36 
Q 684 19 347 128 
L 347 722 
Q 666 556 975 473 
Q 1284 391 1588 391 
Q 1994 391 2212 530 
Q 2431 669 2431 922 
Q 2431 1156 2273 1281 
Q 2116 1406 1581 1522 
L 1381 1569 
Q 847 1681 609 1914 
Q 372 2147 372 2553 
Q 372 3047 722 3315 
Q 1072 3584 1716 3584 
Q 2034 3584 2315 3537 
Q 2597 3491 2834 3397 
z
" transform="scale(0.015625)"/>
      <path id="DejaVuSans-70" d="M 1159 525 
L 1159 -1331 
L 581 -1331 
L 581 3500 
L 1159 3500 
L 1159 2969 
Q 1341 3281 1617 3432 
Q 1894 3584 2278 3584 
Q 2916 3584 3314 3078 
Q 3713 2572 3713 1747 
Q 3713 922 3314 415 
Q 2916 -91 2278 -91 
Q 1894 -91 1617 61 
Q 1341 213 1159 525 
z
M 3116 1747 
Q 3116 2381 2855 2742 
Q 2594 3103 2138 3103 
Q 1681 3103 1420 2742 
Q 1159 2381 1159 1747 
Q 1159 1113 1420 752 
Q 1681 391 2138 391 
Q 2594 391 2855 752 
Q 3116 1113 3116 1747 
z
" transform="scale(0.015625)"/>
     </defs>
     <use xlink:href="#DejaVuSans-4d" transform="translate(0 0.765625)"/>
     <use xlink:href="#DejaVuSans-61" transform="translate(86.279297 0.765625)"/>
     <use xlink:href="#DejaVuSans-67" transform="translate(147.558594 0.765625)"/>
     <use xlink:href="#DejaVuSans-6e" transform="translate(211.035156 0.765625)"/>
     <use xlink:href="#DejaVuSans-69" transform="translate(274.414062 0.765625)"/>
     <use xlink:href="#DejaVuSans-74" transform="translate(302.197266 0.765625)"/>
     <use xlink:href="#DejaVuSans-75" transform="translate(341.40625 0.765625)"/>
     <use xlink:href="#DejaVuSans-64" transform="translate(404.785156 0.765625)"/>
     <use xlink:href="#DejaVuSans-65" transform="translate(468.261719 0.765625)"/>
     <use xlink:href="#DejaVuSans-20" transform="translate(529.785156 0.765625)"/>
     <use xlink:href="#DejaVuSans-72" transform="translate(561.572266 0.765625)"/>
     <use xlink:href="#DejaVuSans-65" transform="translate(602.685547 0.765625)"/>
     <use xlink:href="#DejaVuSans-73" transform="translate(664.208984 0.765625)"/>
     <use xlink:href="#DejaVuSans-70" transform="translate(716.308594 0.765625)"/>
     <use xlink:href="#DejaVuSans-6f" transform="translate(779.785156 0.765625)"/>
     <use xlink:href="#DejaVuSans-6e" transform="translate(840.966797 0.765625)"/>
     <use xlink:href="#DejaVuSans-73" transform="translate(904.345703 0.765625)"/>
     <use xlink:href="#DejaVuSans-65" transform="translate(956.445312 0.765625)"/>
     <use xlink:href="#DejaVuSans-2c" transform="translate(1017.96875 0.765625)"/>
     <use xlink:href="#DejaVuSans-20" transform="translate(1049.755859 0.765625)"/>
     <use xlink:href="#DejaVuSans-7c" transform="translate(1081.542969 0.765625)"/>
     <use xlink:href="#DejaVuSans-Oblique-48" transform="translate(1115.234375 0.765625)"/>
     <use xlink:href="#DejaVuSans-28" transform="translate(1190.429688 0.765625)"/>
     <use xlink:href="#DejaVuSans-Oblique-3c9" transform="translate(1229.443359 0.765625)"/>
     <use xlink:href="#DejaVuSans-29" transform="translate(1313.183594 0.765625)"/>
     <use xlink:href="#DejaVuSans-7c" transform="translate(1352.197266 0.765625)"/>
     <use xlink:href="#DejaVuSans-32" transform="translate(1386.845703 39.046875) scale(0.7)"/>
    </g>
   </g>
   <g id="legend_1">
    <g id="patch_7">
     <path d="M 478.315625 76.154375 
L 561.8 76.154375 
Q 563.8 76.154375 563.8 74.154375 
L 563.8 31.12 
Q 563.8 29.12 561.8 29.12 
L 478.315625 29.12 
Q 476.315625 29.12 476.315625 31.12 
L 476.315625 74.154375 
Q 476.315625 76.154375 478.315625 76.154375 
z
" style="fill: #ffffff; opacity: 0.8; stroke: #cccccc; stroke-linejoin: miter"/>
    </g>
    <g id="line2d_30">
     <path d="M 480.315625 37.218438 
L 490.315625 37.218438 
L 500.315625 37.218438 
" style="fill: none; stroke: #1f77b4; stroke-linecap: square"/>
    </g>
    <g id="text_17">
     <!-- span = 4 -->
     <g transform="translate(508.315625 40.718438) scale(0.1 -0.1)">
      <defs>
       <path id="DejaVuSans-3d" d="M 678 2906 
L 4684 2906 
L 4684 2381 
L 678 2381 
L 678 2906 
z
M 678 1631 
L 4684 1631 
L 4684 1100 
L 678 1100 
L 678 1631 
z
" transform="scale(0.015625)"/>
      </defs>
      <use xlink:href="#DejaVuSans-73"/>
      <use xlink:href="#DejaVuSans-70" transform="translate(52.099609 0)"/>
      <use xlink:href="#DejaVuSans-61" transform="translate(115.576172 0)"/>
      <use xlink:href="#DejaVuSans-6e" transform="translate(176.855469 0)"/>
      <use xlink:href="#DejaVuSans-20" transform="translate(240.234375 0)"/>
      <use xlink:href="#DejaVuSans-3d" transform="translate(272.021484 0)"/>
      <use xlink:href="#DejaVuSans-20" transform="translate(355.810547 0)"/>
      <use xlink:href="#DejaVuSans-34" transform="translate(387.597656 0)"/>
     </g>
    </g>
    <g id="line2d_31">
     <path d="M 480.315625 51.896563 
L 490.315625 51.896563 
L 500.315625 51.896563 
" style="fill: none; stroke: #ff7f0e; stroke-linecap: square"/>
    </g>
    <g id="text_18">
     <!-- span = 8 -->
     <g transform="translate(508.315625 55.396563) scale(0.1 -0.1)">
      <use xlink:href="#DejaVuSans-73"/>
      <use xlink:href="#DejaVuSans-70" transform="translate(52.099609 0)"/>
      <use xlink:href="#DejaVuSans-61" transform="translate(115.576172 0)"/>
      <use xlink:href="#DejaVuSans-6e" transform="translate(176.855469 0)"/>
      <use xlink:href="#DejaVuSans-20" transform="translate(240.234375 0)"/>
      <use xlink:href="#DejaVuSans-3d" transform="translate(272.021484 0)"/>
      <use xlink:href="#DejaVuSans-20" transform="translate(355.810547 0)"/>
      <use xlink:href="#DejaVuSans-38" transform="translate(387.597656 0)"/>
     </g>
    </g>
    <g id="line2d_32">
     <path d="M 480.315625 66.574688 
L 490.315625 66.574688 
L 500.315625 66.574688 
" style="fill: none; stroke: #2ca02c; stroke-linecap: square"/>
    </g>
    <g id="text_19">
     <!-- span = 16 -->
     <g transform="translate(508.315625 70.074688) scale(0.1 -0.1)">
      <use xlink:href="#DejaVuSans-73"/>
      <use xlink:href="#DejaVuSans-70" transform="translate(52.099609 0)"/>
      <use xlink:href="#DejaVuSans-61" transform="translate(115.576172 0)"/>
      <use xlink:href="#DejaVuSans-6e" transform="translate(176.855469 0)"/>
      <use xlink:href="#DejaVuSans-20" transform="translate(240.234375 0)"/>
      <use xlink:href="#DejaVuSans-3d" transform="translate(272.021484 0)"/>
      <use xlink:href="#DejaVuSans-20" transform="translate(355.810547 0)"/>
      <use xlink:href="#DejaVuSans-31" transform="translate(387.597656 0)"/>
      <use xlink:href="#DejaVuSans-36" transform="translate(451.220703 0)"/>
     </g>
    </g>
   </g>
  </g>
 </g>
 <defs>
  <clipPath id="p25272f3445">
   <rect x="57.167188" y="24.12" width="511.632813" height="226.301875"/>
  </clipPath>
 </defs>
</svg>
