<?xml version="1.0" encoding="utf-8" standalone="no"?>
<!DOCTYPE svg PUBLIC "-//W3C//DTD SVG 1.1//EN"
  "http://www.w3.org/Graphics/SVG/1.1/DTD/svg11.dtd">
<svg xmlns:xlink="http://www.w3.org/1999/xlink" width="576pt" height="288pt" viewBox="0 0 576 288" xmlns="http://www.w3.org/2000/svg" version="1.1">
 <metadata>
  <rdf:RDF xmlns:dc="http://purl.org/dc/elements/1.1/" xmlns:cc="http://creativecommons.org/ns#" xmlns:rdf="http://www.w3.org/1999/02/22-rdf-syntax-ns#">
   <cc:Work>
    <dc:type rdf:resource="http://purl.org/dc/dcmitype/StillImage"/>
    <dc:date>2025-11-10T13:27:54.956080</dc:date>
    <dc:format>image/svg+xml</dc:format>
    <dc:creator>
     <cc:Agent>
      <dc:title>Matplotlib v3.10.7, https://matplotlib.org/</dc:title>
     </cc:Agent>
    </dc:creator>
   </cc:Work>
  </rdf:RDF>
 </metadata>
 <defs>
  <style type="text/css">*{stroke-linejoin: round; stroke-linecap: butt}</style>
 </defs>
 <g id="figure_1">
  <g id="patch_1">
   <path d="M 0 288 
L 576 288 
L 576 0 
L 0 0 
z
" style="fill: #ffffff"/>
  </g>
  <g id="axes_1">
   <g id="patch_2">
    <path d="M 52.160938 250.421875 
L 568.8 250.421875 
L 568.8 7.2 
L 52.160938 7.2 
z
" style="fill: #ffffff"/>
   </g>
   <g id="matplotlib.axis_1">
    <g id="xtick_1">
     <g id="line2d_1">
      <path d="M 75.644531 250.421875 
L 75.644531 7.2 
" clip-path="url(#p18bc922902)" style="fill: none; stroke-dasharray: 2.96,1.28; stroke-dashoffset: 0; stroke: #b0b0b0; stroke-opacity: 0.8; stroke-width: 0.8"/>
     </g>
     <g id="line2d_2">
      <defs>
       <path id="mb35f661237" d="M 0 0 
L 0 3.5 
" style="stroke: #000000; stroke-width: 0.8"/>
      </defs>
      <g>
       <use xlink:href="#mb35f661237" x="75.644531" y="250.421875" style="stroke: #000000; stroke-width: 0.8"/>
      </g>
     </g>
     <g id="text_1">
      <!-- 0 -->
      <g transform="translate(72.463281 265.020312) scale(0.1 -0.1)">
       <defs>
        <path id="DejaVuSans-30" d="M 2034 4250 
Q 1547 4250 1301 3770 
Q 1056 3291 1056 2328 
Q 1056 1369 1301 889 
Q 1547 409 2034 409 
Q 2525 409 2770 889 
Q 3016 1369 3016 2328 
Q 3016 3291 2770 3770 
Q 2525 4250 2034 4250 
z
M 2034 4750 
Q 2819 4750 3233 4129 
Q 3647 3509 3647 2328 
Q 3647 1150 3233 529 
Q 2819 -91 2034 -91 
Q 1250 -91 836 529 
Q 422 1150 422 2328 
Q 422 3509 836 4129 
Q 1250 4750 2034 4750 
z
" transform="scale(0.015625)"/>
       </defs>
       <use xlink:href="#DejaVuSans-30"/>
      </g>
     </g>
    </g>
    <g id="xtick_2">
     <g id="line2d_3">
      <path d="M 134.500656 250.421875 
L 134.500656 7.2 
" clip-path="url(#p18bc922902)" style="fill: none; stroke-dasharray: 2.96,1.28; stroke-dashoffset: 0; stroke: #b0b0b0; stroke-opacity: 0.8; stroke-width: 0.8"/>
     </g>
     <g id="line2d_4">
      <g>
       <use xlink:href="#mb35f661237" x="134.500656" y="250.421875" style="stroke: #000000; stroke-width: 0.8"/>
      </g>
     </g>
     <g id="text_2">
      <!-- 50 -->
      <g transform="translate(128.138156 265.020312) scale(0.1 -0.1)">
       <defs>
        <path id="DejaVuSans-35" d="M 691 4666 
L 3169 4666 
L 3169 4134 
L 1269 4134 
L 1269 2991 
Q 1406 3038 1543 3061 
Q 1681 3084 1819 3084 
Q 2600 3084 3056 2656 
Q 3513 2228 3513 1497 
Q 3513 744 3044 326 
Q 2575 -91 1722 -91 
Q 1428 -91 1123 -41 
Q 819 9 494 109 
L 494 744 
Q 775 591 1075 516 
Q 1375 441 1709 441 
Q 2250 441 2565 725 
Q 2881 1009 2881 1497 
Q 2881 1984 2565 2268 
Q 2250 2553 1709 2553 
Q 1456 2553 1204 2497 
Q 953 2441 691 2322 
L 691 4666 
z
" transform="scale(0.015625)"/>
       </defs>
       <use xlink:href="#DejaVuSans-35"/>
       <use xlink:href="#DejaVuSans-30" transform="translate(63.623047 0)"/>
      </g>
     </g>
    </g>
    <g id="xtick_3">
     <g id="line2d_5">
      <path d="M 193.356781 250.421875 
L 193.356781 7.2 
" clip-path="url(#p18bc922902)" style="fill: none; stroke-dasharray: 2.96,1.28; stroke-dashoffset: 0; stroke: #b0b0b0; stroke-opacity: 0.8; stroke-width: 0.8"/>
     </g>
     <g id="line2d_6">
      <g>
       <use xlink:href="#mb35f661237" x="193.356781" y="250.421875" style="stroke: #000000; stroke-width: 0.8"/>
      </g>
     </g>
     <g id="text_3">
      <!-- 100 -->
      <g transform="translate(183.813031 265.020312) scale(0.1 -0.1)">
       <defs>
        <path id="DejaVuSans-31" d="M 794 531 
L 1825 531 
L 1825 4091 
L 703 3866 
L 703 4441 
L 1819 4666 
L 2450 4666 
L 2450 531 
L 3481 531 
L 3481 0 
L 794 0 
L 794 531 
z
" transform="scale(0.015625)"/>
       </defs>
       <use xlink:href="#DejaVuSans-31"/>
       <use xlink:href="#DejaVuSans-30" transform="translate(63.623047 0)"/>
       <use xlink:href="#DejaVuSans-30" transform="translate(127.246094 0)"/>
      </g>
     </g>
    </g>
    <g id="xtick_4">
     <g id="line2d_7">
      <path d="M 252.212905 250.421875 
L 252.212905 7.2 
" clip-path="url(#p18bc922902)" style="fill: none; stroke-dasharray: 2.96,1.28; stroke-dashoffset: 0; stroke: #b0b0b0; stroke-opacity: 0.8; stroke-width: 0.8"/>
     </g>
     <g id="line2d_8">
      <g>
       <use xlink:href="#mb35f661237" x="252.212905" y="250.421875" style="stroke: #000000; stroke-width: 0.8"/>
      </g>
     </g>
     <g id="text_4">
      <!-- 150 -->
      <g transform="translate(242.669155 265.020312) scale(0.1 -0.1)">
       <use xlink:href="#DejaVuSans-31"/>
       <use xlink:href="#DejaVuSans-35" transform="translate(63.623047 0)"/>
       <use xlink:href="#DejaVuSans-30" transform="translate(127.246094 0)"/>
      </g>
     </g>
    </g>
    <g id="xtick_5">
     <g id="line2d_9">
      <path d="M 311.06903 250.421875 
L 311.06903 7.2 
" clip-path="url(#p18bc922902)" style="fill: none; stroke-dasharray: 2.96,1.28; stroke-dashoffset: 0; stroke: #b0b0b0; stroke-opacity: 0.8; stroke-width: 0.8"/>
     </g>
     <g id="line2d_10">
      <g>
       <use xlink:href="#mb35f661237" x="311.06903" y="250.421875" style="stroke: #000000; stroke-width: 0.8"/>
      </g>
     </g>
     <g id="text_5">
      <!-- 200 -->
      <g transform="translate(301.52528 265.020312) scale(0.1 -0.1)">
       <defs>
        <path id="DejaVuSans-32" d="M 1228 531 
L 3431 531 
L 3431 0 
L 469 0 
L 469 531 
Q 828 903 1448 1529 
Q 2069 2156 2228 2338 
Q 2531 2678 2651 2914 
Q 2772 3150 2772 3378 
Q 2772 3750 2511 3984 
Q 2250 4219 1831 4219 
Q 1534 4219 1204 4116 
Q 875 4013 500 3803 
L 500 4441 
Q 881 4594 1212 4672 
Q 1544 4750 1819 4750 
Q 2544 4750 2975 4387 
Q 3406 4025 3406 3419 
Q 3406 3131 3298 2873 
Q 3191 2616 2906 2266 
Q 2828 2175 2409 1742 
Q 1991 1309 1228 531 
z
" transform="scale(0.015625)"/>
       </defs>
       <use xlink:href="#DejaVuSans-32"/>
       <use xlink:href="#DejaVuSans-30" transform="translate(63.623047 0)"/>
       <use xlink:href="#DejaVuSans-30" transform="translate(127.246094 0)"/>
      </g>
     </g>
    </g>
    <g id="xtick_6">
     <g id="line2d_11">
      <path d="M 369.925155 250.421875 
L 369.925155 7.2 
" clip-path="url(#p18bc922902)" style="fill: none; stroke-dasharray: 2.96,1.28; stroke-dashoffset: 0; stroke: #b0b0b0; stroke-opacity: 0.8; stroke-width: 0.8"/>
     </g>
     <g id="line2d_12">
      <g>
       <use xlink:href="#mb35f661237" x="369.925155" y="250.421875" style="stroke: #000000; stroke-width: 0.8"/>
      </g>
     </g>
     <g id="text_6">
      <!-- 250 -->
      <g transform="translate(360.381405 265.020312) scale(0.1 -0.1)">
       <use xlink:href="#DejaVuSans-32"/>
       <use xlink:href="#DejaVuSans-35" transform="translate(63.623047 0)"/>
       <use xlink:href="#DejaVuSans-30" transform="translate(127.246094 0)"/>
      </g>
     </g>
    </g>
    <g id="xtick_7">
     <g id="line2d_13">
      <path d="M 428.781279 250.421875 
L 428.781279 7.2 
" clip-path="url(#p18bc922902)" style="fill: none; stroke-dasharray: 2.96,1.28; stroke-dashoffset: 0; stroke: #b0b0b0; stroke-opacity: 0.8; stroke-width: 0.8"/>
     </g>
     <g id="line2d_14">
      <g>
       <use xlink:href="#mb35f661237" x="428.781279" y="250.421875" style="stroke: #000000; stroke-width: 0.8"/>
      </g>
     </g>
     <g id="text_7">
      <!-- 300 -->
      <g transform="translate(419.237529 265.020312) scale(0.1 -0.1)">
       <defs>
        <path id="DejaVuSans-33" d="M 2597 2516 
Q 3050 2419 3304 2112 
Q 3559 1806 3559 1356 
Q 3559 666 3084 287 
Q 2609 -91 1734 -91 
Q 1441 -91 1130 -33 
Q 819 25 488 141 
L 488 750 
Q 750 597 1062 519 
Q 1375 441 1716 441 
Q 2309 441 2620 675 
Q 2931 909 2931 1356 
Q 2931 1769 2642 2001 
Q 2353 2234 1838 2234 
L 1294 2234 
L 1294 2753 
L 1863 2753 
Q 2328 2753 2575 2939 
Q 2822 3125 2822 3475 
Q 2822 3834 2567 4026 
Q 2313 4219 1838 4219 
Q 1578 4219 1281 4162 
Q 984 4106 628 3988 
L 628 4550 
Q 988 4650 1302 4700 
Q 1616 4750 1894 4750 
Q 2613 4750 3031 4423 
Q 3450 4097 3450 3541 
Q 3450 3153 3228 2886 
Q 3006 2619 2597 2516 
z
" transform="scale(0.015625)"/>
       </defs>
       <use xlink:href="#DejaVuSans-33"/>
       <use xlink:href="#DejaVuSans-30" transform="translate(63.623047 0)"/>
       <use xlink:href="#DejaVuSans-30" transform="translate(127.246094 0)"/>
      </g>
     </g>
    </g>
    <g id="xtick_8">
     <g id="line2d_15">
      <path d="M 487.637404 250.421875 
L 487.637404 7.2 
" clip-path="url(#p18bc922902)" style="fill: none; stroke-dasharray: 2.96,1.28; stroke-dashoffset: 0; stroke: #b0b0b0; stroke-opacity: 0.8; stroke-width: 0.8"/>
     </g>
     <g id="line2d_16">
      <g>
       <use xlink:href="#mb35f661237" x="487.637404" y="250.421875" style="stroke: #000000; stroke-width: 0.8"/>
      </g>
     </g>
     <g id="text_8">
      <!-- 350 -->
      <g transform="translate(478.093654 265.020312) scale(0.1 -0.1)">
       <use xlink:href="#DejaVuSans-33"/>
       <use xlink:href="#DejaVuSans-35" transform="translate(63.623047 0)"/>
       <use xlink:href="#DejaVuSans-30" transform="translate(127.246094 0)"/>
      </g>
     </g>
    </g>
    <g id="xtick_9">
     <g id="line2d_17">
      <path d="M 546.493529 250.421875 
L 546.493529 7.2 
" clip-path="url(#p18bc922902)" style="fill: none; stroke-dasharray: 2.96,1.28; stroke-dashoffset: 0; stroke: #b0b0b0; stroke-opacity: 0.8; stroke-width: 0.8"/>
     </g>
     <g id="line2d_18">
      <g>
       <use xlink:href="#mb35f661237" x="546.493529" y="250.421875" style="stroke: #000000; stroke-width: 0.8"/>
      </g>
     </g>
     <g id="text_9">
      <!-- 400 -->
      <g transform="translate(536.949779 265.020312) scale(0.1 -0.1)">
       <defs>
        <path id="DejaVuSans-34" d="M 2419 4116 
L 825 1625 
L 2419 1625 
L 2419 4116 
z
M 2253 4666 
L 3047 4666 
L 3047 1625 
L 3713 1625 
L 3713 1100 
L 3047 1100 
L 3047 0 
L 2419 0 
L 2419 1100 
L 313 1100 
L 313 1709 
L 2253 4666 
z
" transform="scale(0.015625)"/>
       </defs>
       <use xlink:href="#DejaVuSans-34"/>
       <use xlink:href="#DejaVuSans-30" transform="translate(63.623047 0)"/>
       <use xlink:href="#DejaVuSans-30" transform="translate(127.246094 0)"/>
      </g>
     </g>
    </g>
    <g id="text_10">
     <!-- Sample, $n$ -->
     <g transform="translate(285.380469 278.7) scale(0.1 -0.1)">
      <defs>
       <path id="DejaVuSans-53" d="M 3425 4513 
L 3425 3897 
Q 3066 4069 2747 4153 
Q 2428 4238 2131 4238 
Q 1616 4238 1336 4038 
Q 1056 3838 1056 3469 
Q 1056 3159 1242 3001 
Q 1428 2844 1947 2747 
L 2328 2669 
Q 3034 2534 3370 2195 
Q 3706 1856 3706 1288 
Q 3706 609 3251 259 
Q 2797 -91 1919 -91 
Q 1588 -91 1214 -16 
Q 841 59 441 206 
L 441 856 
Q 825 641 1194 531 
Q 1563 422 1919 422 
Q 2459 422 2753 634 
Q 3047 847 3047 1241 
Q 3047 1584 2836 1778 
Q 2625 1972 2144 2069 
L 1759 2144 
Q 1053 2284 737 2584 
Q 422 2884 422 3419 
Q 422 4038 858 4394 
Q 1294 4750 2059 4750 
Q 2388 4750 2728 4690 
Q 3069 4631 3425 4513 
z
" transform="scale(0.015625)"/>
       <path id="DejaVuSans-61" d="M 2194 1759 
Q 1497 1759 1228 1600 
Q 959 1441 959 1056 
Q 959 750 1161 570 
Q 1363 391 1709 391 
Q 2188 391 2477 730 
Q 2766 1069 2766 1631 
L 2766 1759 
L 2194 1759 
z
M 3341 1997 
L 3341 0 
L 2766 0 
L 2766 531 
Q 2569 213 2275 61 
Q 1981 -91 1556 -91 
Q 1019 -91 701 211 
Q 384 513 384 1019 
Q 384 1609 779 1909 
Q 1175 2209 1959 2209 
L 2766 2209 
L 2766 2266 
Q 2766 2663 2505 2880 
Q 2244 3097 1772 3097 
Q 1472 3097 1187 3025 
Q 903 2953 641 2809 
L 641 3341 
Q 956 3463 1253 3523 
Q 1550 3584 1831 3584 
Q 2591 3584 2966 3190 
Q 3341 2797 3341 1997 
z
" transform="scale(0.015625)"/>
       <path id="DejaVuSans-6d" d="M 3328 2828 
Q 3544 3216 3844 3400 
Q 4144 3584 4550 3584 
Q 5097 3584 5394 3201 
Q 5691 2819 5691 2113 
L 5691 0 
L 5113 0 
L 5113 2094 
Q 5113 2597 4934 2840 
Q 4756 3084 4391 3084 
Q 3944 3084 3684 2787 
Q 3425 2491 3425 1978 
L 3425 0 
L 2847 0 
L 2847 2094 
Q 2847 2600 2669 2842 
Q 2491 3084 2119 3084 
Q 1678 3084 1418 2786 
Q 1159 2488 1159 1978 
L 1159 0 
L 581 0 
L 581 3500 
L 1159 3500 
L 1159 2956 
Q 1356 3278 1631 3431 
Q 1906 3584 2284 3584 
Q 2666 3584 2933 3390 
Q 3200 3197 3328 2828 
z
" transform="scale(0.015625)"/>
       <path id="DejaVuSans-70" d="M 1159 525 
L 1159 -1331 
L 581 -1331 
L 581 3500 
L 1159 3500 
L 1159 2969 
Q 1341 3281 1617 3432 
Q 1894 3584 2278 3584 
Q 2916 3584 3314 3078 
Q 3713 2572 3713 1747 
Q 3713 922 3314 415 
Q 2916 -91 2278 -91 
Q 1894 -91 1617 61 
Q 1341 213 1159 525 
z
M 3116 1747 
Q 3116 2381 2855 2742 
Q 2594 3103 2138 3103 
Q 1681 3103 1420 2742 
Q 1159 2381 1159 1747 
Q 1159 1113 1420 752 
Q 1681 391 2138 391 
Q 2594 391 2855 752 
Q 3116 1113 3116 1747 
z
" transform="scale(0.015625)"/>
       <path id="DejaVuSans-6c" d="M 603 4863 
L 1178 4863 
L 1178 0 
L 603 0 
L 603 4863 
z
" transform="scale(0.015625)"/>
       <path id="DejaVuSans-65" d="M 3597 1894 
L 3597 1613 
L 953 1613 
Q 991 1019 1311 708 
Q 1631 397 2203 397 
Q 2534 397 2845 478 
Q 3156 559 3463 722 
L 3463 178 
Q 3153 47 2828 -22 
Q 2503 -91 2169 -91 
Q 1331 -91 842 396 
Q 353 884 353 1716 
Q 353 2575 817 3079 
Q 1281 3584 2069 3584 
Q 2775 3584 3186 3129 
Q 3597 2675 3597 1894 
z
M 3022 2063 
Q 3016 2534 2758 2815 
Q 2500 3097 2075 3097 
Q 1594 3097 1305 2825 
Q 1016 2553 972 2059 
L 3022 2063 
z
" transform="scale(0.015625)"/>
       <path id="DejaVuSans-2c" d="M 750 794 
L 1409 794 
L 1409 256 
L 897 -744 
L 494 -744 
L 750 256 
L 750 794 
z
" transform="scale(0.015625)"/>
       <path id="DejaVuSans-20" transform="scale(0.015625)"/>
       <path id="DejaVuSans-Oblique-6e" d="M 3566 2113 
L 3156 0 
L 2578 0 
L 2988 2091 
Q 3016 2238 3031 2350 
Q 3047 2463 3047 2528 
Q 3047 2791 2881 2937 
Q 2716 3084 2419 3084 
Q 1956 3084 1622 2776 
Q 1288 2469 1184 1941 
L 800 0 
L 225 0 
L 903 3500 
L 1478 3500 
L 1363 2950 
Q 1603 3253 1940 3418 
Q 2278 3584 2650 3584 
Q 3113 3584 3367 3334 
Q 3622 3084 3622 2631 
Q 3622 2519 3608 2391 
Q 3594 2263 3566 2113 
z
" transform="scale(0.015625)"/>
      </defs>
      <use xlink:href="#DejaVuSans-53" transform="translate(0 0.015625)"/>
      <use xlink:href="#DejaVuSans-61" transform="translate(63.476562 0.015625)"/>
      <use xlink:href="#DejaVuSans-6d" transform="translate(124.755859 0.015625)"/>
      <use xlink:href="#DejaVuSans-70" transform="translate(222.167969 0.015625)"/>
      <use xlink:href="#DejaVuSans-6c" transform="translate(285.644531 0.015625)"/>
      <use xlink:href="#DejaVuSans-65" transform="translate(313.427734 0.015625)"/>
      <use xlink:href="#DejaVuSans-2c" transform="translate(374.951172 0.015625)"/>
      <use xlink:href="#DejaVuSans-20" transform="translate(406.738281 0.015625)"/>
      <use xlink:href="#DejaVuSans-Oblique-6e" transform="translate(438.525391 0.015625)"/>
     </g>
    </g>
   </g>
   <g id="matplotlib.axis_2">
    <g id="ytick_1">
     <g id="line2d_19">
      <path d="M 52.160938 236.199056 
L 568.8 236.199056 
" clip-path="url(#p18bc922902)" style="fill: none; stroke-dasharray: 2.96,1.28; stroke-dashoffset: 0; stroke: #b0b0b0; stroke-opacity: 0.8; stroke-width: 0.8"/>
     </g>
     <g id="line2d_20">
      <defs>
       <path id="m77967055ae" d="M 0 0 
L -3.5 0 
" style="stroke: #000000; stroke-width: 0.8"/>
      </defs>
      <g>
       <use xlink:href="#m77967055ae" x="52.160938" y="236.199056" style="stroke: #000000; stroke-width: 0.8"/>
      </g>
     </g>
     <g id="text_11">
      <!-- −0.4 -->
      <g transform="translate(20.878125 239.998275) scale(0.1 -0.1)">
       <defs>
        <path id="DejaVuSans-2212" d="M 678 2272 
L 4684 2272 
L 4684 1741 
L 678 1741 
L 678 2272 
z
" transform="scale(0.015625)"/>
        <path id="DejaVuSans-2e" d="M 684 794 
L 1344 794 
L 1344 0 
L 684 0 
L 684 794 
z
" transform="scale(0.015625)"/>
       </defs>
       <use xlink:href="#DejaVuSans-2212"/>
       <use xlink:href="#DejaVuSans-30" transform="translate(83.789062 0)"/>
       <use xlink:href="#DejaVuSans-2e" transform="translate(147.412109 0)"/>
       <use xlink:href="#DejaVuSans-34" transform="translate(179.199219 0)"/>
      </g>
     </g>
    </g>
    <g id="ytick_2">
     <g id="line2d_21">
      <path d="M 52.160938 183.836465 
L 568.8 183.836465 
" clip-path="url(#p18bc922902)" style="fill: none; stroke-dasharray: 2.96,1.28; stroke-dashoffset: 0; stroke: #b0b0b0; stroke-opacity: 0.8; stroke-width: 0.8"/>
     </g>
     <g id="line2d_22">
      <g>
       <use xlink:href="#m77967055ae" x="52.160938" y="183.836465" style="stroke: #000000; stroke-width: 0.8"/>
      </g>
     </g>
     <g id="text_12">
      <!-- −0.2 -->
      <g transform="translate(20.878125 187.635684) scale(0.1 -0.1)">
       <use xlink:href="#DejaVuSans-2212"/>
       <use xlink:href="#DejaVuSans-30" transform="translate(83.789062 0)"/>
       <use xlink:href="#DejaVuSans-2e" transform="translate(147.412109 0)"/>
       <use xlink:href="#DejaVuSans-32" transform="translate(179.199219 0)"/>
      </g>
     </g>
    </g>
    <g id="ytick_3">
     <g id="line2d_23">
      <path d="M 52.160938 131.473874 
L 568.8 131.473874 
" clip-path="url(#p18bc922902)" style="fill: none; stroke-dasharray: 2.96,1.28; stroke-dashoffset: 0; stroke: #b0b0b0; stroke-opacity: 0.8; stroke-width: 0.8"/>
     </g>
     <g id="line2d_24">
      <g>
       <use xlink:href="#m77967055ae" x="52.160938" y="131.473874" style="stroke: #000000; stroke-width: 0.8"/>
      </g>
     </g>
     <g id="text_13">
      <!-- 0.0 -->
      <g transform="translate(29.257812 135.273093) scale(0.1 -0.1)">
       <use xlink:href="#DejaVuSans-30"/>
       <use xlink:href="#DejaVuSans-2e" transform="translate(63.623047 0)"/>
       <use xlink:href="#DejaVuSans-30" transform="translate(95.410156 0)"/>
      </g>
     </g>
    </g>
    <g id="ytick_4">
     <g id="line2d_25">
      <path d="M 52.160938 79.111283 
L 568.8 79.111283 
" clip-path="url(#p18bc922902)" style="fill: none; stroke-dasharray: 2.96,1.28; stroke-dashoffset: 0; stroke: #b0b0b0; stroke-opacity: 0.8; stroke-width: 0.8"/>
     </g>
     <g id="line2d_26">
      <g>
       <use xlink:href="#m77967055ae" x="52.160938" y="79.111283" style="stroke: #000000; stroke-width: 0.8"/>
      </g>
     </g>
     <g id="text_14">
      <!-- 0.2 -->
      <g transform="translate(29.257812 82.910502) scale(0.1 -0.1)">
       <use xlink:href="#DejaVuSans-30"/>
       <use xlink:href="#DejaVuSans-2e" transform="translate(63.623047 0)"/>
       <use xlink:href="#DejaVuSans-32" transform="translate(95.410156 0)"/>
      </g>
     </g>
    </g>
    <g id="ytick_5">
     <g id="line2d_27">
      <path d="M 52.160938 26.748692 
L 568.8 26.748692 
" clip-path="url(#p18bc922902)" style="fill: none; stroke-dasharray: 2.96,1.28; stroke-dashoffset: 0; stroke: #b0b0b0; stroke-opacity: 0.8; stroke-width: 0.8"/>
     </g>
     <g id="line2d_28">
      <g>
       <use xlink:href="#m77967055ae" x="52.160938" y="26.748692" style="stroke: #000000; stroke-width: 0.8"/>
      </g>
     </g>
     <g id="text_15">
      <!-- 0.4 -->
      <g transform="translate(29.257812 30.547911) scale(0.1 -0.1)">
       <use xlink:href="#DejaVuSans-30"/>
       <use xlink:href="#DejaVuSans-2e" transform="translate(63.623047 0)"/>
       <use xlink:href="#DejaVuSans-34" transform="translate(95.410156 0)"/>
      </g>
     </g>
    </g>
    <g id="text_16">
     <!-- Amplitude -->
     <g transform="translate(14.798437 154.433594) rotate(-90) scale(0.1 -0.1)">
      <defs>
       <path id="DejaVuSans-41" d="M 2188 4044 
L 1331 1722 
L 3047 1722 
L 2188 4044 
z
M 1831 4666 
L 2547 4666 
L 4325 0 
L 3669 0 
L 3244 1197 
L 1141 1197 
L 716 0 
L 50 0 
L 1831 4666 
z
" transform="scale(0.015625)"/>
       <path id="DejaVuSans-69" d="M 603 3500 
L 1178 3500 
L 1178 0 
L 603 0 
L 603 3500 
z
M 603 4863 
L 1178 4863 
L 1178 4134 
L 603 4134 
L 603 4863 
z
" transform="scale(0.015625)"/>
       <path id="DejaVuSans-74" d="M 1172 4494 
L 1172 3500 
L 2356 3500 
L 2356 3053 
L 1172 3053 
L 1172 1153 
Q 1172 725 1289 603 
Q 1406 481 1766 481 
L 2356 481 
L 2356 0 
L 1766 0 
Q 1100 0 847 248 
Q 594 497 594 1153 
L 594 3053 
L 172 3053 
L 172 3500 
L 594 3500 
L 594 4494 
L 1172 4494 
z
" transform="scale(0.015625)"/>
       <path id="DejaVuSans-75" d="M 544 1381 
L 544 3500 
L 1119 3500 
L 1119 1403 
Q 1119 906 1312 657 
Q 1506 409 1894 409 
Q 2359 409 2629 706 
Q 2900 1003 2900 1516 
L 2900 3500 
L 3475 3500 
L 3475 0 
L 2900 0 
L 2900 538 
Q 2691 219 2414 64 
Q 2138 -91 1772 -91 
Q 1169 -91 856 284 
Q 544 659 544 1381 
z
M 1991 3584 
L 1991 3584 
z
" transform="scale(0.015625)"/>
       <path id="DejaVuSans-64" d="M 2906 2969 
L 2906 4863 
L 3481 4863 
L 3481 0 
L 2906 0 
L 2906 525 
Q 2725 213 2448 61 
Q 2172 -91 1784 -91 
Q 1150 -91 751 415 
Q 353 922 353 1747 
Q 353 2572 751 3078 
Q 1150 3584 1784 3584 
Q 2172 3584 2448 3432 
Q 2725 3281 2906 2969 
z
M 947 1747 
Q 947 1113 1208 752 
Q 1469 391 1925 391 
Q 2381 391 2643 752 
Q 2906 1113 2906 1747 
Q 2906 2381 2643 2742 
Q 2381 3103 1925 3103 
Q 1469 3103 1208 2742 
Q 947 2381 947 1747 
z
" transform="scale(0.015625)"/>
      </defs>
      <use xlink:href="#DejaVuSans-41"/>
      <use xlink:href="#DejaVuSans-6d" transform="translate(68.408203 0)"/>
      <use xlink:href="#DejaVuSans-70" transform="translate(165.820312 0)"/>
      <use xlink:href="#DejaVuSans-6c" transform="translate(229.296875 0)"/>
      <use xlink:href="#DejaVuSans-69" transform="translate(257.080078 0)"/>
      <use xlink:href="#DejaVuSans-74" transform="translate(284.863281 0)"/>
      <use xlink:href="#DejaVuSans-75" transform="translate(324.072266 0)"/>
      <use xlink:href="#DejaVuSans-64" transform="translate(387.451172 0)"/>
      <use xlink:href="#DejaVuSans-65" transform="translate(450.927734 0)"/>
     </g>
    </g>
   </g>
   <g id="line2d_29">
    <path d="M 75.644531 128.999223 
L 76.821654 128.796078 
L 77.998776 135.118125 
L 80.353021 124.138683 
L 81.530144 121.961852 
L 82.707266 134.88846 
L 83.884389 129.419854 
L 85.061511 140.298623 
L 86.238634 134.162926 
L 87.415756 134.120283 
L 88.592879 133.304184 
L 89.770001 129.51468 
L 90.947124 129.671774 
L 92.124246 130.847602 
L 93.301369 121.597381 
L 94.478491 128.846738 
L 95.655614 130.243594 
L 96.832736 133.169206 
L 98.009859 140.894408 
L 99.186981 139.852366 
L 100.364104 140.128635 
L 101.541226 140.593864 
L 102.718349 144.135998 
L 103.895471 136.181576 
L 105.072594 132.974013 
L 106.249716 123.16386 
L 107.426839 118.722941 
L 108.603961 104.237583 
L 109.781084 108.36281 
L 110.958206 109.137695 
L 112.135329 116.90163 
L 113.312451 121.838863 
L 114.489574 140.678373 
L 115.666696 157.523789 
L 116.843819 165.813591 
L 119.198064 197.199272 
L 120.375186 218.711397 
L 121.552309 214.199077 
L 122.729431 210.282676 
L 123.906553 194.898787 
L 125.083676 174.882077 
L 128.615043 96.822083 
L 129.792166 75.428535 
L 130.969288 56.482055 
L 132.146411 49.823844 
L 133.323533 58.769721 
L 134.500656 70.416774 
L 135.677778 89.936996 
L 136.854901 113.072613 
L 138.032023 150.682638 
L 139.209146 170.781901 
L 140.386268 198.579492 
L 141.563391 215.688684 
L 142.740513 227.861068 
L 143.917636 229.916527 
L 146.271881 216.074627 
L 147.449003 204.84463 
L 148.626126 191.27005 
L 149.803248 183.789197 
L 150.980371 174.978051 
L 153.334616 192.795335 
L 154.511738 205.610176 
L 155.688861 213.146748 
L 156.865983 212.73917 
L 158.043106 223.169862 
L 159.220228 220.052345 
L 160.397351 207.12203 
L 161.574473 190.045595 
L 162.751596 167.795723 
L 165.105841 112.52505 
L 166.282963 92.110969 
L 167.460086 61.782451 
L 168.637208 58.986567 
L 169.814331 57.422805 
L 170.991453 67.462412 
L 172.168576 75.793671 
L 173.345698 106.16818 
L 174.522821 122.541049 
L 175.699943 145.26522 
L 176.877066 175.021476 
L 178.054188 193.362981 
L 179.231311 208.918264 
L 180.408433 212.251915 
L 181.585556 199.864784 
L 182.762678 183.228235 
L 185.116923 132.468568 
L 186.294046 99.429365 
L 187.471168 80.762021 
L 188.648291 52.057832 
L 189.825413 38.293213 
L 191.002536 35.453881 
L 192.179658 23.482331 
L 193.356781 24.78072 
L 194.533903 41.892358 
L 195.711026 45.856822 
L 196.888148 63.649901 
L 198.065271 67.871672 
L 199.242393 87.361809 
L 200.419516 104.936693 
L 201.596638 125.046182 
L 202.773761 129.902087 
L 203.950883 148.091465 
L 205.128006 151.910925 
L 206.305128 174.239935 
L 207.482251 191.039717 
L 208.659373 204.574821 
L 209.836496 210.516855 
L 211.013618 234.385344 
L 212.190741 226.503575 
L 213.367863 231.221823 
L 214.544986 220.755266 
L 215.722108 215.201917 
L 216.89923 204.959525 
L 218.076353 178.082169 
L 219.253475 154.56853 
L 220.430598 138.014273 
L 221.60772 107.769659 
L 223.961965 67.33736 
L 225.139088 70.983087 
L 226.31621 62.253321 
L 227.493333 68.293143 
L 228.670455 83.938313 
L 229.847578 80.405184 
L 231.0247 102.638148 
L 232.201823 130.151769 
L 233.378945 150.98381 
L 234.556068 176.846096 
L 235.73319 197.04109 
L 236.910313 209.940979 
L 238.087435 232.679312 
L 239.264558 232.138007 
L 240.44168 237.791121 
L 241.618803 239.366335 
L 242.795925 225.202064 
L 243.973048 212.580759 
L 245.15017 205.843274 
L 246.327293 175.325147 
L 247.504415 161.617394 
L 248.681538 139.621075 
L 249.85866 115.139862 
L 251.035783 96.551918 
L 252.212905 86.100595 
L 253.390028 79.550659 
L 254.56715 66.472832 
L 255.744273 55.147376 
L 256.921395 57.76994 
L 258.098518 57.224901 
L 259.27564 62.851241 
L 260.452763 57.399765 
L 261.629885 63.609014 
L 262.807008 63.269204 
L 263.98413 73.946157 
L 265.161253 56.747426 
L 266.338375 62.785621 
L 267.515498 65.679148 
L 268.69262 63.267784 
L 269.869743 61.881586 
L 271.046865 55.599238 
L 272.223988 56.58031 
L 273.40111 66.659179 
L 274.578233 72.998227 
L 275.755355 87.345765 
L 276.932478 97.650546 
L 278.1096 115.582657 
L 279.286723 130.988858 
L 280.463845 154.017142 
L 281.640968 172.81434 
L 282.81809 193.706127 
L 283.995213 217.400303 
L 285.172335 234.691951 
L 286.349458 235.122575 
L 287.52658 237.475834 
L 288.703703 232.632836 
L 289.880825 229.07946 
L 291.057948 224.509716 
L 292.23507 205.536641 
L 293.412193 178.82601 
L 294.589315 147.234495 
L 296.94356 105.365667 
L 298.120683 92.806302 
L 299.297805 69.75985 
L 301.65205 70.85397 
L 302.829173 74.112184 
L 304.006295 86.882637 
L 305.183418 96.810487 
L 306.36054 121.865599 
L 307.537663 140.179418 
L 308.714785 178.136988 
L 311.06903 200.107994 
L 312.246152 213.291724 
L 313.423275 216.03218 
L 314.600397 220.000681 
L 315.77752 222.42523 
L 316.954642 209.81017 
L 318.131765 204.342516 
L 319.308887 204.077869 
L 321.663132 181.286922 
L 322.840255 178.400401 
L 324.017377 179.388115 
L 325.1945 187.893822 
L 326.371622 194.008744 
L 327.548745 188.595422 
L 328.725867 199.272915 
L 329.90299 200.945972 
L 331.080112 208.111766 
L 332.257235 201.826894 
L 333.434357 206.816849 
L 334.61148 196.310032 
L 335.788602 196.583871 
L 336.965725 193.917853 
L 338.142847 184.122836 
L 339.31997 199.777273 
L 340.497092 190.447778 
L 341.674215 188.141327 
L 342.851337 193.521148 
L 344.02846 202.728424 
L 345.205582 197.914719 
L 346.382705 197.941865 
L 347.559827 194.841212 
L 348.73695 193.951017 
L 351.091195 200.662285 
L 352.268317 191.52788 
L 353.44544 190.630565 
L 354.622562 192.700555 
L 355.799685 190.516549 
L 356.976807 191.227652 
L 358.15393 198.286679 
L 359.331052 209.788011 
L 360.508175 206.425934 
L 361.685297 209.230405 
L 362.86242 200.439088 
L 364.039542 203.86909 
L 365.216665 210.974622 
L 366.393787 209.315049 
L 367.57091 199.202706 
L 368.748032 183.142417 
L 369.925155 178.376867 
L 372.2794 134.262929 
L 373.456522 125.442911 
L 374.633645 108.096966 
L 376.98789 70.88633 
L 378.165012 57.316721 
L 379.342135 36.517277 
L 380.519257 26.825238 
L 381.69638 22.896241 
L 382.873502 24.948559 
L 385.227747 48.665274 
L 386.40487 63.339777 
L 387.581992 89.045707 
L 388.759115 109.804792 
L 389.936237 135.205877 
L 391.11336 149.861351 
L 393.467605 194.990103 
L 394.644727 206.452654 
L 395.82185 206.396222 
L 396.998972 188.485073 
L 398.176095 184.870522 
L 399.353217 170.378563 
L 401.707462 121.322769 
L 402.884585 97.678793 
L 404.061707 76.310006 
L 405.238829 61.198996 
L 406.415952 42.870426 
L 407.593074 43.850982 
L 408.770197 45.710209 
L 409.947319 40.065306 
L 411.124442 58.335532 
L 412.301564 54.540497 
L 413.478687 66.37485 
L 414.655809 70.092093 
L 415.832932 75.826817 
L 417.010054 76.640621 
L 418.187177 72.848837 
L 419.364299 70.246778 
L 420.541422 67.940593 
L 421.718544 64.877193 
L 422.895667 54.029617 
L 424.072789 57.541563 
L 425.249912 47.022901 
L 426.427034 64.053554 
L 427.604157 62.374808 
L 428.781279 75.717408 
L 429.958402 74.308194 
L 431.135524 92.00268 
L 432.312647 85.650438 
L 433.489769 82.525524 
L 434.666892 76.828839 
L 435.844014 64.037205 
L 437.021137 47.118915 
L 438.198259 41.321669 
L 439.375382 24.603602 
L 440.552504 33.922989 
L 441.729627 37.413274 
L 442.906749 50.323836 
L 444.083872 70.953272 
L 447.615239 162.346939 
L 448.792362 183.931761 
L 449.969484 207.742137 
L 451.146607 216.281327 
L 452.323729 210.745001 
L 453.500852 202.154793 
L 454.677974 183.253042 
L 455.855097 151.901229 
L 457.032219 129.287555 
L 458.209342 98.221903 
L 460.563587 58.51436 
L 461.740709 52.405771 
L 462.917832 55.326174 
L 464.094954 66.3767 
L 465.272077 101.516555 
L 466.449199 116.689993 
L 467.626322 154.978243 
L 468.803444 176.133114 
L 469.980567 200.153514 
L 471.157689 203.719224 
L 472.334812 207.899261 
L 473.511934 204.131991 
L 474.689057 195.99807 
L 479.397547 83.015491 
L 480.574669 63.584291 
L 481.751792 33.025667 
L 482.928914 19.39552 
L 484.106037 19.715233 
L 485.283159 22.675755 
L 486.460282 18.25554 
L 487.637404 42.215346 
L 488.814527 55.977112 
L 491.168772 94.874642 
L 492.345894 106.451883 
L 493.523017 127.098041 
L 494.700139 145.453685 
L 495.877262 150.599508 
L 497.054384 165.72703 
L 498.231507 178.497515 
L 499.408629 186.69337 
L 500.585751 205.804505 
L 501.762874 201.593477 
L 502.939996 206.637396 
L 504.117119 208.505539 
L 505.294241 216.587565 
L 506.471364 207.255721 
L 507.648486 204.910114 
L 508.825609 202.164095 
L 510.002731 201.066263 
L 511.179854 189.715002 
L 512.356976 180.128718 
L 513.534099 178.030049 
L 514.711221 176.629675 
L 515.888344 178.01359 
L 517.065466 189.342676 
L 518.242589 178.414431 
L 519.419711 205.629165 
L 520.596834 211.197466 
L 521.773956 221.613726 
L 522.951079 229.482061 
L 524.128201 234.325055 
L 525.305324 228.413407 
L 526.482446 223.933012 
L 527.659569 196.253946 
L 528.836691 182.039983 
L 530.013814 158.539568 
L 531.190936 131.274205 
L 532.368059 114.917799 
L 533.545181 80.681327 
L 535.899426 57.145245 
L 537.076549 67.713388 
L 538.253671 71.745396 
L 539.430794 79.851353 
L 540.607916 99.002855 
L 541.785039 126.1272 
L 542.962161 147.890194 
L 544.139284 166.216346 
L 545.316406 189.288663 
L 545.316406 189.288663 
" clip-path="url(#p18bc922902)" style="fill: none; stroke: #1f77b4; stroke-linecap: square"/>
   </g>
   <g id="line2d_30">
    <path d="M 75.644531 133.355008 
L 76.821654 122.643809 
L 77.998776 130.108884 
L 79.175899 127.522347 
L 80.353021 137.142984 
L 81.530144 126.791349 
L 82.707266 131.572691 
L 85.061511 136.862179 
L 86.238634 124.230091 
L 87.415756 130.595073 
L 88.592879 125.411691 
L 89.770001 129.308625 
L 90.947124 126.92812 
L 92.124246 125.671773 
L 93.301369 136.083674 
L 94.478491 139.451914 
L 95.655614 139.883855 
L 96.832736 129.528585 
L 98.009859 137.407915 
L 99.186981 130.92543 
L 100.364104 135.046415 
L 101.541226 126.486117 
L 102.718349 128.49967 
L 103.895471 124.123218 
L 105.072594 123.526383 
L 106.249716 121.717347 
L 107.426839 127.46563 
L 108.603961 123.708611 
L 109.781084 137.316348 
L 110.958206 136.963299 
L 112.135329 147.695736 
L 113.312451 144.605116 
L 114.489574 145.707495 
L 115.666696 154.732395 
L 116.843819 144.794733 
L 118.020941 129.371031 
L 119.198064 131.51112 
L 121.552309 92.83181 
L 122.729431 78.254327 
L 123.906553 78.501173 
L 125.083676 58.372195 
L 126.260798 59.72493 
L 127.437921 52.495412 
L 128.615043 69.888287 
L 129.792166 83.115551 
L 130.969288 97.893415 
L 132.146411 122.266029 
L 133.323533 143.880333 
L 134.500656 160.72468 
L 135.677778 190.091465 
L 136.854901 210.686645 
L 138.032023 220.1762 
L 139.209146 221.341575 
L 140.386268 217.753815 
L 141.563391 204.917953 
L 142.740513 213.624836 
L 143.917636 194.537484 
L 145.094758 193.801966 
L 146.271881 195.76992 
L 147.449003 182.128776 
L 148.626126 187.965248 
L 149.803248 186.675758 
L 150.980371 191.48842 
L 152.157493 197.91814 
L 154.511738 206.992651 
L 155.688861 202.272289 
L 156.865983 203.031797 
L 158.043106 194.490875 
L 159.220228 188.65009 
L 160.397351 191.579448 
L 161.574473 192.699107 
L 162.751596 182.793272 
L 163.928718 192.541413 
L 165.105841 188.635675 
L 166.282963 194.620305 
L 167.460086 205.400339 
L 168.637208 204.905444 
L 169.814331 217.184959 
L 170.991453 218.52631 
L 172.168576 215.594342 
L 173.345698 204.701571 
L 174.522821 205.87085 
L 175.699943 182.287665 
L 176.877066 173.678088 
L 179.231311 137.741809 
L 180.408433 111.268167 
L 181.585556 99.488225 
L 182.762678 64.859936 
L 183.939801 60.511043 
L 185.116923 52.512648 
L 186.294046 46.493821 
L 187.471168 48.537771 
L 188.648291 50.117165 
L 189.825413 57.160366 
L 191.002536 69.351131 
L 192.179658 64.589761 
L 193.356781 67.396629 
L 194.533903 74.286478 
L 195.711026 71.220718 
L 196.888148 72.193396 
L 198.065271 68.734129 
L 199.242393 54.928581 
L 200.419516 63.877135 
L 201.596638 55.948507 
L 202.773761 51.187246 
L 203.950883 60.953872 
L 205.128006 59.592264 
L 206.305128 71.415617 
L 207.482251 73.368531 
L 208.659373 80.384387 
L 209.836496 77.054584 
L 211.013618 79.567074 
L 212.190741 75.291448 
L 213.367863 74.304093 
L 214.544986 53.558239 
L 215.722108 54.039988 
L 216.89923 41.816018 
L 218.076353 37.676729 
L 219.253475 38.712984 
L 220.430598 44.359164 
L 221.60772 55.025574 
L 222.784843 73.649418 
L 223.961965 102.85925 
L 225.139088 123.917416 
L 226.31621 154.700096 
L 227.493333 182.340895 
L 228.670455 198.961871 
L 229.847578 204.014171 
L 231.0247 222.0372 
L 232.201823 195.782783 
L 233.378945 181.210848 
L 234.556068 159.275431 
L 235.73319 127.458561 
L 236.910313 100.13558 
L 238.087435 84.846091 
L 239.264558 59.917127 
L 240.44168 60.195702 
L 241.618803 58.828539 
L 242.795925 68.335905 
L 245.15017 101.810544 
L 246.327293 138.556706 
L 247.504415 161.006988 
L 248.681538 185.677629 
L 249.85866 216.40257 
L 251.035783 215.815146 
L 252.212905 227.014357 
L 253.390028 227.809068 
L 254.56715 222.801421 
L 255.744273 210.461378 
L 256.921395 210.718713 
L 258.098518 192.795156 
L 259.27564 186.505552 
L 260.452763 177.373166 
L 261.629885 184.710997 
L 262.807008 180.187452 
L 263.98413 188.417324 
L 265.161253 194.445826 
L 266.338375 206.524385 
L 267.515498 212.329567 
L 268.69262 204.460473 
L 269.869743 205.607571 
L 271.046865 203.669693 
L 272.223988 199.746356 
L 273.40111 184.002661 
L 274.578233 185.631271 
L 275.755355 186.132968 
L 276.932478 179.707349 
L 278.1096 182.064388 
L 279.286723 195.104684 
L 281.640968 208.915722 
L 282.81809 223.061164 
L 283.995213 223.196935 
L 285.172335 233.135573 
L 286.349458 214.126342 
L 287.52658 210.073252 
L 288.703703 185.573999 
L 291.057948 133.61669 
L 292.23507 108.725529 
L 293.412193 92.825249 
L 294.589315 65.026982 
L 296.94356 57.624406 
L 298.120683 66.32866 
L 299.297805 82.483839 
L 300.474928 108.224811 
L 302.829173 150.603841 
L 304.006295 176.194581 
L 305.183418 194.320259 
L 306.36054 209.018895 
L 307.537663 209.302662 
L 308.714785 199.64583 
L 309.891908 180.200949 
L 311.06903 171.894264 
L 312.246152 135.039218 
L 314.600397 76.767854 
L 315.77752 57.803318 
L 316.954642 36.101072 
L 318.131765 31.30991 
L 319.308887 21.725111 
L 320.48601 24.587361 
L 321.663132 30.856727 
L 322.840255 38.406112 
L 324.017377 55.410677 
L 325.1945 74.538106 
L 326.371622 78.777005 
L 327.548745 108.930479 
L 328.725867 122.078406 
L 329.90299 132.432065 
L 331.080112 152.921789 
L 332.257235 157.547349 
L 333.434357 176.738298 
L 334.61148 193.495653 
L 335.788602 203.858428 
L 336.965725 216.729254 
L 338.142847 212.890062 
L 339.31997 224.116082 
L 340.497092 213.961999 
L 341.674215 219.423588 
L 342.851337 213.796509 
L 344.02846 195.752277 
L 345.205582 186.018643 
L 346.382705 165.583272 
L 347.559827 150.785426 
L 348.73695 131.185929 
L 349.914072 109.377236 
L 351.091195 91.681611 
L 352.268317 77.620154 
L 353.44544 67.64937 
L 354.622562 60.59708 
L 355.799685 42.073172 
L 356.976807 46.207193 
L 358.15393 29.351133 
L 359.331052 38.909487 
L 360.508175 31.915931 
L 361.685297 54.039186 
L 362.86242 59.80453 
L 364.039542 83.886357 
L 365.216665 95.765228 
L 366.393787 124.704091 
L 367.57091 147.572531 
L 369.925155 179.579425 
L 371.102277 194.996727 
L 372.2794 207.013611 
L 373.456522 211.675674 
L 375.810767 201.994016 
L 376.98789 203.82257 
L 378.165012 185.428382 
L 379.342135 194.171715 
L 380.519257 192.278953 
L 381.69638 192.757946 
L 382.873502 200.198028 
L 384.050625 200.741672 
L 385.227747 211.897032 
L 386.40487 214.092611 
L 387.581992 220.296639 
L 388.759115 220.940049 
L 389.936237 217.750955 
L 391.11336 210.51325 
L 393.467605 172.725744 
L 396.998972 95.346477 
L 398.176095 63.325023 
L 399.353217 58.864764 
L 400.53034 58.364523 
L 401.707462 61.413557 
L 402.884585 68.618311 
L 404.061707 94.462096 
L 405.238829 116.374033 
L 406.415952 152.124297 
L 407.593074 173.00556 
L 408.770197 189.626229 
L 409.947319 208.735682 
L 411.124442 217.573916 
L 412.301564 221.243013 
L 413.478687 226.05624 
L 414.655809 210.133052 
L 415.832932 216.200717 
L 418.187177 189.276451 
L 419.364299 189.162613 
L 420.541422 186.173073 
L 421.718544 191.884334 
L 422.895667 198.497214 
L 424.072789 194.011045 
L 425.249912 195.734066 
L 426.427034 204.670865 
L 427.604157 200.338257 
L 428.781279 205.042244 
L 429.958402 191.344642 
L 431.135524 188.396048 
L 432.312647 162.355289 
L 433.489769 148.291381 
L 434.666892 123.410819 
L 435.844014 107.639465 
L 437.021137 87.280228 
L 438.198259 61.829817 
L 439.375382 39.576192 
L 440.552504 38.912994 
L 441.729627 27.611422 
L 442.906749 21.346973 
L 444.083872 29.36593 
L 445.260994 35.946431 
L 448.792362 84.789641 
L 449.969484 111.623929 
L 451.146607 128.80478 
L 452.323729 148.344715 
L 453.500852 170.381696 
L 454.677974 188.594189 
L 455.855097 202.396348 
L 457.032219 196.210659 
L 458.209342 192.70891 
L 459.386464 187.412579 
L 460.563587 168.90321 
L 461.740709 156.463047 
L 464.094954 102.428573 
L 465.272077 80.229575 
L 466.449199 60.824552 
L 467.626322 46.828034 
L 468.803444 36.761718 
L 469.980567 29.346849 
L 471.157689 30.459719 
L 472.334812 33.902637 
L 473.511934 47.42743 
L 474.689057 57.279135 
L 475.866179 62.25744 
L 477.043302 86.57305 
L 479.397547 112.80945 
L 480.574669 136.838317 
L 481.751792 148.369175 
L 482.928914 171.320452 
L 484.106037 176.970601 
L 485.283159 197.365278 
L 486.460282 207.819081 
L 487.637404 209.159698 
L 488.814527 213.260781 
L 489.991649 225.451449 
L 491.168772 225.89495 
L 492.345894 209.498306 
L 493.523017 210.270621 
L 494.700139 200.642877 
L 495.877262 186.615522 
L 497.054384 167.556285 
L 498.231507 145.223111 
L 499.408629 129.503363 
L 500.585751 119.151666 
L 501.762874 94.496308 
L 502.939996 83.433271 
L 504.117119 68.855505 
L 506.471364 37.26432 
L 507.648486 37.942063 
L 508.825609 30.483509 
L 510.002731 45.059451 
L 511.179854 37.478194 
L 512.356976 50.970669 
L 515.888344 98.303989 
L 517.065466 121.546523 
L 519.419711 155.691432 
L 520.596834 171.395845 
L 521.773956 180.757976 
L 524.128201 207.332185 
L 525.305324 204.292557 
L 526.482446 216.870792 
L 527.659569 210.332482 
L 528.836691 219.042714 
L 530.013814 206.045454 
L 531.190936 211.53429 
L 532.368059 201.644928 
L 533.545181 196.2001 
L 534.722304 186.783773 
L 535.899426 178.431852 
L 537.076549 178.456805 
L 538.253671 181.517908 
L 540.607916 179.001593 
L 541.785039 180.160804 
L 542.962161 198.878801 
L 544.139284 205.445086 
L 545.316406 224.28274 
L 545.316406 224.28274 
" clip-path="url(#p18bc922902)" style="fill: none; stroke: #ff7f0e; stroke-linecap: square"/>
   </g>
   <g id="patch_3">
    <path d="M 52.160938 250.421875 
L 52.160938 7.2 
" style="fill: none; stroke: #000000; stroke-width: 0.8; stroke-linejoin: miter; stroke-linecap: square"/>
   </g>
   <g id="patch_4">
    <path d="M 568.8 250.421875 
L 568.8 7.2 
" style="fill: none; stroke: #000000; stroke-width: 0.8; stroke-linejoin: miter; stroke-linecap: square"/>
   </g>
   <g id="patch_5">
    <path d="M 52.160937 250.421875 
L 568.8 250.421875 
" style="fill: none; stroke: #000000; stroke-width: 0.8; stroke-linejoin: miter; stroke-linecap: square"/>
   </g>
   <g id="patch_6">
    <path d="M 52.160937 7.2 
L 568.8 7.2 
" style="fill: none; stroke: #000000; stroke-width: 0.8; stroke-linejoin: miter; stroke-linecap: square"/>
   </g>
   <g id="legend_1">
    <g id="patch_7">
     <path d="M 59.160938 44.55625 
L 116.15625 44.55625 
Q 118.15625 44.55625 118.15625 42.55625 
L 118.15625 14.2 
Q 118.15625 12.2 116.15625 12.2 
L 59.160938 12.2 
Q 57.160938 12.2 57.160938 14.2 
L 57.160938 42.55625 
Q 57.160938 44.55625 59.160938 44.55625 
z
" style="fill: #ffffff; opacity: 0.8; stroke: #cccccc; stroke-linejoin: miter"/>
    </g>
    <g id="line2d_31">
     <path d="M 61.160938 20.298438 
L 71.160938 20.298438 
L 81.160938 20.298438 
" style="fill: none; stroke: #1f77b4; stroke-linecap: square"/>
    </g>
    <g id="text_17">
     <!-- real -->
     <g transform="translate(89.160938 23.798438) scale(0.1 -0.1)">
      <defs>
       <path id="DejaVuSans-72" d="M 2631 2963 
Q 2534 3019 2420 3045 
Q 2306 3072 2169 3072 
Q 1681 3072 1420 2755 
Q 1159 2438 1159 1844 
L 1159 0 
L 581 0 
L 581 3500 
L 1159 3500 
L 1159 2956 
Q 1341 3275 1631 3429 
Q 1922 3584 2338 3584 
Q 2397 3584 2469 3576 
Q 2541 3569 2628 3553 
L 2631 2963 
z
" transform="scale(0.015625)"/>
      </defs>
      <use xlink:href="#DejaVuSans-72"/>
      <use xlink:href="#DejaVuSans-65" transform="translate(38.863281 0)"/>
      <use xlink:href="#DejaVuSans-61" transform="translate(100.386719 0)"/>
      <use xlink:href="#DejaVuSans-6c" transform="translate(161.666016 0)"/>
     </g>
    </g>
    <g id="line2d_32">
     <path d="M 61.160938 34.976563 
L 71.160938 34.976563 
L 81.160938 34.976563 
" style="fill: none; stroke: #ff7f0e; stroke-linecap: square"/>
    </g>
    <g id="text_18">
     <!-- imag -->
     <g transform="translate(89.160938 38.476563) scale(0.1 -0.1)">
      <defs>
       <path id="DejaVuSans-67" d="M 2906 1791 
Q 2906 2416 2648 2759 
Q 2391 3103 1925 3103 
Q 1463 3103 1205 2759 
Q 947 2416 947 1791 
Q 947 1169 1205 825 
Q 1463 481 1925 481 
Q 2391 481 2648 825 
Q 2906 1169 2906 1791 
z
M 3481 434 
Q 3481 -459 3084 -895 
Q 2688 -1331 1869 -1331 
Q 1566 -1331 1297 -1286 
Q 1028 -1241 775 -1147 
L 775 -588 
Q 1028 -725 1275 -790 
Q 1522 -856 1778 -856 
Q 2344 -856 2625 -561 
Q 2906 -266 2906 331 
L 2906 616 
Q 2728 306 2450 153 
Q 2172 0 1784 0 
Q 1141 0 747 490 
Q 353 981 353 1791 
Q 353 2603 747 3093 
Q 1141 3584 1784 3584 
Q 2172 3584 2450 3431 
Q 2728 3278 2906 2969 
L 2906 3500 
L 3481 3500 
L 3481 434 
z
" transform="scale(0.015625)"/>
      </defs>
      <use xlink:href="#DejaVuSans-69"/>
      <use xlink:href="#DejaVuSans-6d" transform="translate(27.783203 0)"/>
      <use xlink:href="#DejaVuSans-61" transform="translate(125.195312 0)"/>
      <use xlink:href="#DejaVuSans-67" transform="translate(186.474609 0)"/>
     </g>
    </g>
   </g>
  </g>
 </g>
 <defs>
  <clipPath id="p18bc922902">
   <rect x="52.160938" y="7.2" width="516.639063" height="243.221875"/>
  </clipPath>
 </defs>
</svg>
