<?xml version="1.0" encoding="utf-8" standalone="no"?>
<!DOCTYPE svg PUBLIC "-//W3C//DTD SVG 1.1//EN"
  "http://www.w3.org/Graphics/SVG/1.1/DTD/svg11.dtd">
<svg xmlns:xlink="http://www.w3.org/1999/xlink" width="576pt" height="288pt" viewBox="0 0 576 288" xmlns="http://www.w3.org/2000/svg" version="1.1">
 <metadata>
  <rdf:RDF xmlns:dc="http://purl.org/dc/elements/1.1/" xmlns:cc="http://creativecommons.org/ns#" xmlns:rdf="http://www.w3.org/1999/02/22-rdf-syntax-ns#">
   <cc:Work>
    <dc:type rdf:resource="http://purl.org/dc/dcmitype/StillImage"/>
    <dc:date>2026-05-03T15:50:48.240890</dc:date>
    <dc:format>image/svg+xml</dc:format>
    <dc:creator>
     <cc:Agent>
      <dc:title>Matplotlib v3.10.9, https://matplotlib.org/</dc:title>
     </cc:Agent>
    </dc:creator>
   </cc:Work>
  </rdf:RDF>
 </metadata>
 <defs>
  <style type="text/css">*{stroke-linejoin: round; stroke-linecap: butt}</style>
 </defs>
 <g id="figure_1">
  <g id="patch_1">
   <path d="M 0 288 
L 576 288 
L 576 0 
L 0 0 
z
" style="fill: #ffffff"/>
  </g>
  <g id="axes_1">
   <g id="patch_2">
    <path d="M 52.160938 250.421875 
L 568.8 250.421875 
L 568.8 7.2 
L 52.160938 7.2 
z
" style="fill: #ffffff"/>
   </g>
   <g id="matplotlib.axis_1">
    <g id="xtick_1">
     <g id="line2d_1">
      <path d="M 75.644531 250.421875 
L 75.644531 7.2 
" clip-path="url(#pb5e5276f75)" style="fill: none; stroke-dasharray: 2.96,1.28; stroke-dashoffset: 0; stroke: #b0b0b0; stroke-opacity: 0.8; stroke-width: 0.8"/>
     </g>
     <g id="line2d_2">
      <defs>
       <path id="mb7301f9b56" d="M 0 0 
L 0 3.5 
" style="stroke: #000000; stroke-width: 0.8"/>
      </defs>
      <g>
       <use xlink:href="#mb7301f9b56" x="75.644531" y="250.421875" style="stroke: #000000; stroke-width: 0.8"/>
      </g>
     </g>
     <g id="text_1">
      <!-- 0 -->
      <g transform="translate(72.463281 265.020312) scale(0.1 -0.1)">
       <defs>
        <path id="DejaVuSans-30" d="M 2034 4250 
Q 1547 4250 1301 3770 
Q 1056 3291 1056 2328 
Q 1056 1369 1301 889 
Q 1547 409 2034 409 
Q 2525 409 2770 889 
Q 3016 1369 3016 2328 
Q 3016 3291 2770 3770 
Q 2525 4250 2034 4250 
z
M 2034 4750 
Q 2819 4750 3233 4129 
Q 3647 3509 3647 2328 
Q 3647 1150 3233 529 
Q 2819 -91 2034 -91 
Q 1250 -91 836 529 
Q 422 1150 422 2328 
Q 422 3509 836 4129 
Q 1250 4750 2034 4750 
z
" transform="scale(0.015625)"/>
       </defs>
       <use xlink:href="#DejaVuSans-30"/>
      </g>
     </g>
    </g>
    <g id="xtick_2">
     <g id="line2d_3">
      <path d="M 134.500656 250.421875 
L 134.500656 7.2 
" clip-path="url(#pb5e5276f75)" style="fill: none; stroke-dasharray: 2.96,1.28; stroke-dashoffset: 0; stroke: #b0b0b0; stroke-opacity: 0.8; stroke-width: 0.8"/>
     </g>
     <g id="line2d_4">
      <g>
       <use xlink:href="#mb7301f9b56" x="134.500656" y="250.421875" style="stroke: #000000; stroke-width: 0.8"/>
      </g>
     </g>
     <g id="text_2">
      <!-- 50 -->
      <g transform="translate(128.138156 265.020312) scale(0.1 -0.1)">
       <defs>
        <path id="DejaVuSans-35" d="M 691 4666 
L 3169 4666 
L 3169 4134 
L 1269 4134 
L 1269 2991 
Q 1406 3038 1543 3061 
Q 1681 3084 1819 3084 
Q 2600 3084 3056 2656 
Q 3513 2228 3513 1497 
Q 3513 744 3044 326 
Q 2575 -91 1722 -91 
Q 1428 -91 1123 -41 
Q 819 9 494 109 
L 494 744 
Q 775 591 1075 516 
Q 1375 441 1709 441 
Q 2250 441 2565 725 
Q 2881 1009 2881 1497 
Q 2881 1984 2565 2268 
Q 2250 2553 1709 2553 
Q 1456 2553 1204 2497 
Q 953 2441 691 2322 
L 691 4666 
z
" transform="scale(0.015625)"/>
       </defs>
       <use xlink:href="#DejaVuSans-35"/>
       <use xlink:href="#DejaVuSans-30" transform="translate(63.623047 0)"/>
      </g>
     </g>
    </g>
    <g id="xtick_3">
     <g id="line2d_5">
      <path d="M 193.356781 250.421875 
L 193.356781 7.2 
" clip-path="url(#pb5e5276f75)" style="fill: none; stroke-dasharray: 2.96,1.28; stroke-dashoffset: 0; stroke: #b0b0b0; stroke-opacity: 0.8; stroke-width: 0.8"/>
     </g>
     <g id="line2d_6">
      <g>
       <use xlink:href="#mb7301f9b56" x="193.356781" y="250.421875" style="stroke: #000000; stroke-width: 0.8"/>
      </g>
     </g>
     <g id="text_3">
      <!-- 100 -->
      <g transform="translate(183.813031 265.020312) scale(0.1 -0.1)">
       <defs>
        <path id="DejaVuSans-31" d="M 794 531 
L 1825 531 
L 1825 4091 
L 703 3866 
L 703 4441 
L 1819 4666 
L 2450 4666 
L 2450 531 
L 3481 531 
L 3481 0 
L 794 0 
L 794 531 
z
" transform="scale(0.015625)"/>
       </defs>
       <use xlink:href="#DejaVuSans-31"/>
       <use xlink:href="#DejaVuSans-30" transform="translate(63.623047 0)"/>
       <use xlink:href="#DejaVuSans-30" transform="translate(127.246094 0)"/>
      </g>
     </g>
    </g>
    <g id="xtick_4">
     <g id="line2d_7">
      <path d="M 252.212905 250.421875 
L 252.212905 7.2 
" clip-path="url(#pb5e5276f75)" style="fill: none; stroke-dasharray: 2.96,1.28; stroke-dashoffset: 0; stroke: #b0b0b0; stroke-opacity: 0.8; stroke-width: 0.8"/>
     </g>
     <g id="line2d_8">
      <g>
       <use xlink:href="#mb7301f9b56" x="252.212905" y="250.421875" style="stroke: #000000; stroke-width: 0.8"/>
      </g>
     </g>
     <g id="text_4">
      <!-- 150 -->
      <g transform="translate(242.669155 265.020312) scale(0.1 -0.1)">
       <use xlink:href="#DejaVuSans-31"/>
       <use xlink:href="#DejaVuSans-35" transform="translate(63.623047 0)"/>
       <use xlink:href="#DejaVuSans-30" transform="translate(127.246094 0)"/>
      </g>
     </g>
    </g>
    <g id="xtick_5">
     <g id="line2d_9">
      <path d="M 311.06903 250.421875 
L 311.06903 7.2 
" clip-path="url(#pb5e5276f75)" style="fill: none; stroke-dasharray: 2.96,1.28; stroke-dashoffset: 0; stroke: #b0b0b0; stroke-opacity: 0.8; stroke-width: 0.8"/>
     </g>
     <g id="line2d_10">
      <g>
       <use xlink:href="#mb7301f9b56" x="311.06903" y="250.421875" style="stroke: #000000; stroke-width: 0.8"/>
      </g>
     </g>
     <g id="text_5">
      <!-- 200 -->
      <g transform="translate(301.52528 265.020312) scale(0.1 -0.1)">
       <defs>
        <path id="DejaVuSans-32" d="M 1228 531 
L 3431 531 
L 3431 0 
L 469 0 
L 469 531 
Q 828 903 1448 1529 
Q 2069 2156 2228 2338 
Q 2531 2678 2651 2914 
Q 2772 3150 2772 3378 
Q 2772 3750 2511 3984 
Q 2250 4219 1831 4219 
Q 1534 4219 1204 4116 
Q 875 4013 500 3803 
L 500 4441 
Q 881 4594 1212 4672 
Q 1544 4750 1819 4750 
Q 2544 4750 2975 4387 
Q 3406 4025 3406 3419 
Q 3406 3131 3298 2873 
Q 3191 2616 2906 2266 
Q 2828 2175 2409 1742 
Q 1991 1309 1228 531 
z
" transform="scale(0.015625)"/>
       </defs>
       <use xlink:href="#DejaVuSans-32"/>
       <use xlink:href="#DejaVuSans-30" transform="translate(63.623047 0)"/>
       <use xlink:href="#DejaVuSans-30" transform="translate(127.246094 0)"/>
      </g>
     </g>
    </g>
    <g id="xtick_6">
     <g id="line2d_11">
      <path d="M 369.925155 250.421875 
L 369.925155 7.2 
" clip-path="url(#pb5e5276f75)" style="fill: none; stroke-dasharray: 2.96,1.28; stroke-dashoffset: 0; stroke: #b0b0b0; stroke-opacity: 0.8; stroke-width: 0.8"/>
     </g>
     <g id="line2d_12">
      <g>
       <use xlink:href="#mb7301f9b56" x="369.925155" y="250.421875" style="stroke: #000000; stroke-width: 0.8"/>
      </g>
     </g>
     <g id="text_6">
      <!-- 250 -->
      <g transform="translate(360.381405 265.020312) scale(0.1 -0.1)">
       <use xlink:href="#DejaVuSans-32"/>
       <use xlink:href="#DejaVuSans-35" transform="translate(63.623047 0)"/>
       <use xlink:href="#DejaVuSans-30" transform="translate(127.246094 0)"/>
      </g>
     </g>
    </g>
    <g id="xtick_7">
     <g id="line2d_13">
      <path d="M 428.781279 250.421875 
L 428.781279 7.2 
" clip-path="url(#pb5e5276f75)" style="fill: none; stroke-dasharray: 2.96,1.28; stroke-dashoffset: 0; stroke: #b0b0b0; stroke-opacity: 0.8; stroke-width: 0.8"/>
     </g>
     <g id="line2d_14">
      <g>
       <use xlink:href="#mb7301f9b56" x="428.781279" y="250.421875" style="stroke: #000000; stroke-width: 0.8"/>
      </g>
     </g>
     <g id="text_7">
      <!-- 300 -->
      <g transform="translate(419.237529 265.020312) scale(0.1 -0.1)">
       <defs>
        <path id="DejaVuSans-33" d="M 2597 2516 
Q 3050 2419 3304 2112 
Q 3559 1806 3559 1356 
Q 3559 666 3084 287 
Q 2609 -91 1734 -91 
Q 1441 -91 1130 -33 
Q 819 25 488 141 
L 488 750 
Q 750 597 1062 519 
Q 1375 441 1716 441 
Q 2309 441 2620 675 
Q 2931 909 2931 1356 
Q 2931 1769 2642 2001 
Q 2353 2234 1838 2234 
L 1294 2234 
L 1294 2753 
L 1863 2753 
Q 2328 2753 2575 2939 
Q 2822 3125 2822 3475 
Q 2822 3834 2567 4026 
Q 2313 4219 1838 4219 
Q 1578 4219 1281 4162 
Q 984 4106 628 3988 
L 628 4550 
Q 988 4650 1302 4700 
Q 1616 4750 1894 4750 
Q 2613 4750 3031 4423 
Q 3450 4097 3450 3541 
Q 3450 3153 3228 2886 
Q 3006 2619 2597 2516 
z
" transform="scale(0.015625)"/>
       </defs>
       <use xlink:href="#DejaVuSans-33"/>
       <use xlink:href="#DejaVuSans-30" transform="translate(63.623047 0)"/>
       <use xlink:href="#DejaVuSans-30" transform="translate(127.246094 0)"/>
      </g>
     </g>
    </g>
    <g id="xtick_8">
     <g id="line2d_15">
      <path d="M 487.637404 250.421875 
L 487.637404 7.2 
" clip-path="url(#pb5e5276f75)" style="fill: none; stroke-dasharray: 2.96,1.28; stroke-dashoffset: 0; stroke: #b0b0b0; stroke-opacity: 0.8; stroke-width: 0.8"/>
     </g>
     <g id="line2d_16">
      <g>
       <use xlink:href="#mb7301f9b56" x="487.637404" y="250.421875" style="stroke: #000000; stroke-width: 0.8"/>
      </g>
     </g>
     <g id="text_8">
      <!-- 350 -->
      <g transform="translate(478.093654 265.020312) scale(0.1 -0.1)">
       <use xlink:href="#DejaVuSans-33"/>
       <use xlink:href="#DejaVuSans-35" transform="translate(63.623047 0)"/>
       <use xlink:href="#DejaVuSans-30" transform="translate(127.246094 0)"/>
      </g>
     </g>
    </g>
    <g id="xtick_9">
     <g id="line2d_17">
      <path d="M 546.493529 250.421875 
L 546.493529 7.2 
" clip-path="url(#pb5e5276f75)" style="fill: none; stroke-dasharray: 2.96,1.28; stroke-dashoffset: 0; stroke: #b0b0b0; stroke-opacity: 0.8; stroke-width: 0.8"/>
     </g>
     <g id="line2d_18">
      <g>
       <use xlink:href="#mb7301f9b56" x="546.493529" y="250.421875" style="stroke: #000000; stroke-width: 0.8"/>
      </g>
     </g>
     <g id="text_9">
      <!-- 400 -->
      <g transform="translate(536.949779 265.020312) scale(0.1 -0.1)">
       <defs>
        <path id="DejaVuSans-34" d="M 2419 4116 
L 825 1625 
L 2419 1625 
L 2419 4116 
z
M 2253 4666 
L 3047 4666 
L 3047 1625 
L 3713 1625 
L 3713 1100 
L 3047 1100 
L 3047 0 
L 2419 0 
L 2419 1100 
L 313 1100 
L 313 1709 
L 2253 4666 
z
" transform="scale(0.015625)"/>
       </defs>
       <use xlink:href="#DejaVuSans-34"/>
       <use xlink:href="#DejaVuSans-30" transform="translate(63.623047 0)"/>
       <use xlink:href="#DejaVuSans-30" transform="translate(127.246094 0)"/>
      </g>
     </g>
    </g>
    <g id="text_10">
     <!-- Sample, $n$ -->
     <g transform="translate(285.380469 278.7) scale(0.1 -0.1)">
      <defs>
       <path id="DejaVuSans-53" d="M 3425 4513 
L 3425 3897 
Q 3066 4069 2747 4153 
Q 2428 4238 2131 4238 
Q 1616 4238 1336 4038 
Q 1056 3838 1056 3469 
Q 1056 3159 1242 3001 
Q 1428 2844 1947 2747 
L 2328 2669 
Q 3034 2534 3370 2195 
Q 3706 1856 3706 1288 
Q 3706 609 3251 259 
Q 2797 -91 1919 -91 
Q 1588 -91 1214 -16 
Q 841 59 441 206 
L 441 856 
Q 825 641 1194 531 
Q 1563 422 1919 422 
Q 2459 422 2753 634 
Q 3047 847 3047 1241 
Q 3047 1584 2836 1778 
Q 2625 1972 2144 2069 
L 1759 2144 
Q 1053 2284 737 2584 
Q 422 2884 422 3419 
Q 422 4038 858 4394 
Q 1294 4750 2059 4750 
Q 2388 4750 2728 4690 
Q 3069 4631 3425 4513 
z
" transform="scale(0.015625)"/>
       <path id="DejaVuSans-61" d="M 2194 1759 
Q 1497 1759 1228 1600 
Q 959 1441 959 1056 
Q 959 750 1161 570 
Q 1363 391 1709 391 
Q 2188 391 2477 730 
Q 2766 1069 2766 1631 
L 2766 1759 
L 2194 1759 
z
M 3341 1997 
L 3341 0 
L 2766 0 
L 2766 531 
Q 2569 213 2275 61 
Q 1981 -91 1556 -91 
Q 1019 -91 701 211 
Q 384 513 384 1019 
Q 384 1609 779 1909 
Q 1175 2209 1959 2209 
L 2766 2209 
L 2766 2266 
Q 2766 2663 2505 2880 
Q 2244 3097 1772 3097 
Q 1472 3097 1187 3025 
Q 903 2953 641 2809 
L 641 3341 
Q 956 3463 1253 3523 
Q 1550 3584 1831 3584 
Q 2591 3584 2966 3190 
Q 3341 2797 3341 1997 
z
" transform="scale(0.015625)"/>
       <path id="DejaVuSans-6d" d="M 3328 2828 
Q 3544 3216 3844 3400 
Q 4144 3584 4550 3584 
Q 5097 3584 5394 3201 
Q 5691 2819 5691 2113 
L 5691 0 
L 5113 0 
L 5113 2094 
Q 5113 2597 4934 2840 
Q 4756 3084 4391 3084 
Q 3944 3084 3684 2787 
Q 3425 2491 3425 1978 
L 3425 0 
L 2847 0 
L 2847 2094 
Q 2847 2600 2669 2842 
Q 2491 3084 2119 3084 
Q 1678 3084 1418 2786 
Q 1159 2488 1159 1978 
L 1159 0 
L 581 0 
L 581 3500 
L 1159 3500 
L 1159 2956 
Q 1356 3278 1631 3431 
Q 1906 3584 2284 3584 
Q 2666 3584 2933 3390 
Q 3200 3197 3328 2828 
z
" transform="scale(0.015625)"/>
       <path id="DejaVuSans-70" d="M 1159 525 
L 1159 -1331 
L 581 -1331 
L 581 3500 
L 1159 3500 
L 1159 2969 
Q 1341 3281 1617 3432 
Q 1894 3584 2278 3584 
Q 2916 3584 3314 3078 
Q 3713 2572 3713 1747 
Q 3713 922 3314 415 
Q 2916 -91 2278 -91 
Q 1894 -91 1617 61 
Q 1341 213 1159 525 
z
M 3116 1747 
Q 3116 2381 2855 2742 
Q 2594 3103 2138 3103 
Q 1681 3103 1420 2742 
Q 1159 2381 1159 1747 
Q 1159 1113 1420 752 
Q 1681 391 2138 391 
Q 2594 391 2855 752 
Q 3116 1113 3116 1747 
z
" transform="scale(0.015625)"/>
       <path id="DejaVuSans-6c" d="M 603 4863 
L 1178 4863 
L 1178 0 
L 603 0 
L 603 4863 
z
" transform="scale(0.015625)"/>
       <path id="DejaVuSans-65" d="M 3597 1894 
L 3597 1613 
L 953 1613 
Q 991 1019 1311 708 
Q 1631 397 2203 397 
Q 2534 397 2845 478 
Q 3156 559 3463 722 
L 3463 178 
Q 3153 47 2828 -22 
Q 2503 -91 2169 -91 
Q 1331 -91 842 396 
Q 353 884 353 1716 
Q 353 2575 817 3079 
Q 1281 3584 2069 3584 
Q 2775 3584 3186 3129 
Q 3597 2675 3597 1894 
z
M 3022 2063 
Q 3016 2534 2758 2815 
Q 2500 3097 2075 3097 
Q 1594 3097 1305 2825 
Q 1016 2553 972 2059 
L 3022 2063 
z
" transform="scale(0.015625)"/>
       <path id="DejaVuSans-2c" d="M 750 794 
L 1409 794 
L 1409 256 
L 897 -744 
L 494 -744 
L 750 256 
L 750 794 
z
" transform="scale(0.015625)"/>
       <path id="DejaVuSans-20" transform="scale(0.015625)"/>
       <path id="DejaVuSans-Oblique-6e" d="M 3566 2113 
L 3156 0 
L 2578 0 
L 2988 2091 
Q 3016 2238 3031 2350 
Q 3047 2463 3047 2528 
Q 3047 2791 2881 2937 
Q 2716 3084 2419 3084 
Q 1956 3084 1622 2776 
Q 1288 2469 1184 1941 
L 800 0 
L 225 0 
L 903 3500 
L 1478 3500 
L 1363 2950 
Q 1603 3253 1940 3418 
Q 2278 3584 2650 3584 
Q 3113 3584 3367 3334 
Q 3622 3084 3622 2631 
Q 3622 2519 3608 2391 
Q 3594 2263 3566 2113 
z
" transform="scale(0.015625)"/>
      </defs>
      <use xlink:href="#DejaVuSans-53" transform="translate(0 0.015625)"/>
      <use xlink:href="#DejaVuSans-61" transform="translate(63.476562 0.015625)"/>
      <use xlink:href="#DejaVuSans-6d" transform="translate(124.755859 0.015625)"/>
      <use xlink:href="#DejaVuSans-70" transform="translate(222.167969 0.015625)"/>
      <use xlink:href="#DejaVuSans-6c" transform="translate(285.644531 0.015625)"/>
      <use xlink:href="#DejaVuSans-65" transform="translate(313.427734 0.015625)"/>
      <use xlink:href="#DejaVuSans-2c" transform="translate(374.951172 0.015625)"/>
      <use xlink:href="#DejaVuSans-20" transform="translate(406.738281 0.015625)"/>
      <use xlink:href="#DejaVuSans-Oblique-6e" transform="translate(438.525391 0.015625)"/>
     </g>
    </g>
   </g>
   <g id="matplotlib.axis_2">
    <g id="ytick_1">
     <g id="line2d_19">
      <path d="M 52.160938 244.492568 
L 568.8 244.492568 
" clip-path="url(#pb5e5276f75)" style="fill: none; stroke-dasharray: 2.96,1.28; stroke-dashoffset: 0; stroke: #b0b0b0; stroke-opacity: 0.8; stroke-width: 0.8"/>
     </g>
     <g id="line2d_20">
      <defs>
       <path id="m1802a4a486" d="M 0 0 
L -3.5 0 
" style="stroke: #000000; stroke-width: 0.8"/>
      </defs>
      <g>
       <use xlink:href="#m1802a4a486" x="52.160938" y="244.492568" style="stroke: #000000; stroke-width: 0.8"/>
      </g>
     </g>
     <g id="text_11">
      <!-- −0.4 -->
      <g transform="translate(20.878125 248.291787) scale(0.1 -0.1)">
       <defs>
        <path id="DejaVuSans-2212" d="M 678 2272 
L 4684 2272 
L 4684 1741 
L 678 1741 
L 678 2272 
z
" transform="scale(0.015625)"/>
        <path id="DejaVuSans-2e" d="M 684 794 
L 1344 794 
L 1344 0 
L 684 0 
L 684 794 
z
" transform="scale(0.015625)"/>
       </defs>
       <use xlink:href="#DejaVuSans-2212"/>
       <use xlink:href="#DejaVuSans-30" transform="translate(83.789062 0)"/>
       <use xlink:href="#DejaVuSans-2e" transform="translate(147.412109 0)"/>
       <use xlink:href="#DejaVuSans-34" transform="translate(179.199219 0)"/>
      </g>
     </g>
    </g>
    <g id="ytick_2">
     <g id="line2d_21">
      <path d="M 52.160938 215.646101 
L 568.8 215.646101 
" clip-path="url(#pb5e5276f75)" style="fill: none; stroke-dasharray: 2.96,1.28; stroke-dashoffset: 0; stroke: #b0b0b0; stroke-opacity: 0.8; stroke-width: 0.8"/>
     </g>
     <g id="line2d_22">
      <g>
       <use xlink:href="#m1802a4a486" x="52.160938" y="215.646101" style="stroke: #000000; stroke-width: 0.8"/>
      </g>
     </g>
     <g id="text_12">
      <!-- −0.3 -->
      <g transform="translate(20.878125 219.44532) scale(0.1 -0.1)">
       <use xlink:href="#DejaVuSans-2212"/>
       <use xlink:href="#DejaVuSans-30" transform="translate(83.789062 0)"/>
       <use xlink:href="#DejaVuSans-2e" transform="translate(147.412109 0)"/>
       <use xlink:href="#DejaVuSans-33" transform="translate(179.199219 0)"/>
      </g>
     </g>
    </g>
    <g id="ytick_3">
     <g id="line2d_23">
      <path d="M 52.160938 186.799634 
L 568.8 186.799634 
" clip-path="url(#pb5e5276f75)" style="fill: none; stroke-dasharray: 2.96,1.28; stroke-dashoffset: 0; stroke: #b0b0b0; stroke-opacity: 0.8; stroke-width: 0.8"/>
     </g>
     <g id="line2d_24">
      <g>
       <use xlink:href="#m1802a4a486" x="52.160938" y="186.799634" style="stroke: #000000; stroke-width: 0.8"/>
      </g>
     </g>
     <g id="text_13">
      <!-- −0.2 -->
      <g transform="translate(20.878125 190.598852) scale(0.1 -0.1)">
       <use xlink:href="#DejaVuSans-2212"/>
       <use xlink:href="#DejaVuSans-30" transform="translate(83.789062 0)"/>
       <use xlink:href="#DejaVuSans-2e" transform="translate(147.412109 0)"/>
       <use xlink:href="#DejaVuSans-32" transform="translate(179.199219 0)"/>
      </g>
     </g>
    </g>
    <g id="ytick_4">
     <g id="line2d_25">
      <path d="M 52.160938 157.953166 
L 568.8 157.953166 
" clip-path="url(#pb5e5276f75)" style="fill: none; stroke-dasharray: 2.96,1.28; stroke-dashoffset: 0; stroke: #b0b0b0; stroke-opacity: 0.8; stroke-width: 0.8"/>
     </g>
     <g id="line2d_26">
      <g>
       <use xlink:href="#m1802a4a486" x="52.160938" y="157.953166" style="stroke: #000000; stroke-width: 0.8"/>
      </g>
     </g>
     <g id="text_14">
      <!-- −0.1 -->
      <g transform="translate(20.878125 161.752385) scale(0.1 -0.1)">
       <use xlink:href="#DejaVuSans-2212"/>
       <use xlink:href="#DejaVuSans-30" transform="translate(83.789062 0)"/>
       <use xlink:href="#DejaVuSans-2e" transform="translate(147.412109 0)"/>
       <use xlink:href="#DejaVuSans-31" transform="translate(179.199219 0)"/>
      </g>
     </g>
    </g>
    <g id="ytick_5">
     <g id="line2d_27">
      <path d="M 52.160938 129.106699 
L 568.8 129.106699 
" clip-path="url(#pb5e5276f75)" style="fill: none; stroke-dasharray: 2.96,1.28; stroke-dashoffset: 0; stroke: #b0b0b0; stroke-opacity: 0.8; stroke-width: 0.8"/>
     </g>
     <g id="line2d_28">
      <g>
       <use xlink:href="#m1802a4a486" x="52.160938" y="129.106699" style="stroke: #000000; stroke-width: 0.8"/>
      </g>
     </g>
     <g id="text_15">
      <!-- 0.0 -->
      <g transform="translate(29.257812 132.905918) scale(0.1 -0.1)">
       <use xlink:href="#DejaVuSans-30"/>
       <use xlink:href="#DejaVuSans-2e" transform="translate(63.623047 0)"/>
       <use xlink:href="#DejaVuSans-30" transform="translate(95.410156 0)"/>
      </g>
     </g>
    </g>
    <g id="ytick_6">
     <g id="line2d_29">
      <path d="M 52.160938 100.260232 
L 568.8 100.260232 
" clip-path="url(#pb5e5276f75)" style="fill: none; stroke-dasharray: 2.96,1.28; stroke-dashoffset: 0; stroke: #b0b0b0; stroke-opacity: 0.8; stroke-width: 0.8"/>
     </g>
     <g id="line2d_30">
      <g>
       <use xlink:href="#m1802a4a486" x="52.160938" y="100.260232" style="stroke: #000000; stroke-width: 0.8"/>
      </g>
     </g>
     <g id="text_16">
      <!-- 0.1 -->
      <g transform="translate(29.257812 104.059451) scale(0.1 -0.1)">
       <use xlink:href="#DejaVuSans-30"/>
       <use xlink:href="#DejaVuSans-2e" transform="translate(63.623047 0)"/>
       <use xlink:href="#DejaVuSans-31" transform="translate(95.410156 0)"/>
      </g>
     </g>
    </g>
    <g id="ytick_7">
     <g id="line2d_31">
      <path d="M 52.160938 71.413765 
L 568.8 71.413765 
" clip-path="url(#pb5e5276f75)" style="fill: none; stroke-dasharray: 2.96,1.28; stroke-dashoffset: 0; stroke: #b0b0b0; stroke-opacity: 0.8; stroke-width: 0.8"/>
     </g>
     <g id="line2d_32">
      <g>
       <use xlink:href="#m1802a4a486" x="52.160938" y="71.413765" style="stroke: #000000; stroke-width: 0.8"/>
      </g>
     </g>
     <g id="text_17">
      <!-- 0.2 -->
      <g transform="translate(29.257812 75.212983) scale(0.1 -0.1)">
       <use xlink:href="#DejaVuSans-30"/>
       <use xlink:href="#DejaVuSans-2e" transform="translate(63.623047 0)"/>
       <use xlink:href="#DejaVuSans-32" transform="translate(95.410156 0)"/>
      </g>
     </g>
    </g>
    <g id="ytick_8">
     <g id="line2d_33">
      <path d="M 52.160938 42.567297 
L 568.8 42.567297 
" clip-path="url(#pb5e5276f75)" style="fill: none; stroke-dasharray: 2.96,1.28; stroke-dashoffset: 0; stroke: #b0b0b0; stroke-opacity: 0.8; stroke-width: 0.8"/>
     </g>
     <g id="line2d_34">
      <g>
       <use xlink:href="#m1802a4a486" x="52.160938" y="42.567297" style="stroke: #000000; stroke-width: 0.8"/>
      </g>
     </g>
     <g id="text_18">
      <!-- 0.3 -->
      <g transform="translate(29.257812 46.366516) scale(0.1 -0.1)">
       <use xlink:href="#DejaVuSans-30"/>
       <use xlink:href="#DejaVuSans-2e" transform="translate(63.623047 0)"/>
       <use xlink:href="#DejaVuSans-33" transform="translate(95.410156 0)"/>
      </g>
     </g>
    </g>
    <g id="ytick_9">
     <g id="line2d_35">
      <path d="M 52.160938 13.72083 
L 568.8 13.72083 
" clip-path="url(#pb5e5276f75)" style="fill: none; stroke-dasharray: 2.96,1.28; stroke-dashoffset: 0; stroke: #b0b0b0; stroke-opacity: 0.8; stroke-width: 0.8"/>
     </g>
     <g id="line2d_36">
      <g>
       <use xlink:href="#m1802a4a486" x="52.160938" y="13.72083" style="stroke: #000000; stroke-width: 0.8"/>
      </g>
     </g>
     <g id="text_19">
      <!-- 0.4 -->
      <g transform="translate(29.257812 17.520049) scale(0.1 -0.1)">
       <use xlink:href="#DejaVuSans-30"/>
       <use xlink:href="#DejaVuSans-2e" transform="translate(63.623047 0)"/>
       <use xlink:href="#DejaVuSans-34" transform="translate(95.410156 0)"/>
      </g>
     </g>
    </g>
    <g id="text_20">
     <!-- Amplitude -->
     <g transform="translate(14.798437 154.433594) rotate(-90) scale(0.1 -0.1)">
      <defs>
       <path id="DejaVuSans-41" d="M 2188 4044 
L 1331 1722 
L 3047 1722 
L 2188 4044 
z
M 1831 4666 
L 2547 4666 
L 4325 0 
L 3669 0 
L 3244 1197 
L 1141 1197 
L 716 0 
L 50 0 
L 1831 4666 
z
" transform="scale(0.015625)"/>
       <path id="DejaVuSans-69" d="M 603 3500 
L 1178 3500 
L 1178 0 
L 603 0 
L 603 3500 
z
M 603 4863 
L 1178 4863 
L 1178 4134 
L 603 4134 
L 603 4863 
z
" transform="scale(0.015625)"/>
       <path id="DejaVuSans-74" d="M 1172 4494 
L 1172 3500 
L 2356 3500 
L 2356 3053 
L 1172 3053 
L 1172 1153 
Q 1172 725 1289 603 
Q 1406 481 1766 481 
L 2356 481 
L 2356 0 
L 1766 0 
Q 1100 0 847 248 
Q 594 497 594 1153 
L 594 3053 
L 172 3053 
L 172 3500 
L 594 3500 
L 594 4494 
L 1172 4494 
z
" transform="scale(0.015625)"/>
       <path id="DejaVuSans-75" d="M 544 1381 
L 544 3500 
L 1119 3500 
L 1119 1403 
Q 1119 906 1312 657 
Q 1506 409 1894 409 
Q 2359 409 2629 706 
Q 2900 1003 2900 1516 
L 2900 3500 
L 3475 3500 
L 3475 0 
L 2900 0 
L 2900 538 
Q 2691 219 2414 64 
Q 2138 -91 1772 -91 
Q 1169 -91 856 284 
Q 544 659 544 1381 
z
M 1991 3584 
L 1991 3584 
z
" transform="scale(0.015625)"/>
       <path id="DejaVuSans-64" d="M 2906 2969 
L 2906 4863 
L 3481 4863 
L 3481 0 
L 2906 0 
L 2906 525 
Q 2725 213 2448 61 
Q 2172 -91 1784 -91 
Q 1150 -91 751 415 
Q 353 922 353 1747 
Q 353 2572 751 3078 
Q 1150 3584 1784 3584 
Q 2172 3584 2448 3432 
Q 2725 3281 2906 2969 
z
M 947 1747 
Q 947 1113 1208 752 
Q 1469 391 1925 391 
Q 2381 391 2643 752 
Q 2906 1113 2906 1747 
Q 2906 2381 2643 2742 
Q 2381 3103 1925 3103 
Q 1469 3103 1208 2742 
Q 947 2381 947 1747 
z
" transform="scale(0.015625)"/>
      </defs>
      <use xlink:href="#DejaVuSans-41"/>
      <use xlink:href="#DejaVuSans-6d" transform="translate(68.408203 0)"/>
      <use xlink:href="#DejaVuSans-70" transform="translate(165.820312 0)"/>
      <use xlink:href="#DejaVuSans-6c" transform="translate(229.296875 0)"/>
      <use xlink:href="#DejaVuSans-69" transform="translate(257.080078 0)"/>
      <use xlink:href="#DejaVuSans-74" transform="translate(284.863281 0)"/>
      <use xlink:href="#DejaVuSans-75" transform="translate(324.072266 0)"/>
      <use xlink:href="#DejaVuSans-64" transform="translate(387.451172 0)"/>
      <use xlink:href="#DejaVuSans-65" transform="translate(450.927734 0)"/>
     </g>
    </g>
   </g>
   <g id="line2d_37">
    <path d="M 75.644531 130.506026 
L 77.998776 205.426982 
L 79.175899 227.464795 
L 80.353021 225.042149 
L 81.530144 231.598873 
L 83.884389 163.163341 
L 85.061511 136.115955 
L 86.238634 93.474792 
L 87.415756 55.704055 
L 88.592879 33.090786 
L 89.770001 33.364713 
L 90.947124 27.964718 
L 93.301369 87.071004 
L 94.478491 125.325573 
L 96.832736 211.904249 
L 98.009859 223.678015 
L 99.186981 217.043527 
L 100.364104 215.293642 
L 101.541226 198.637103 
L 103.895471 134.045652 
L 105.072594 175.465747 
L 106.249716 207.912028 
L 107.426839 224.40619 
L 108.603961 232.456122 
L 109.781084 224.831737 
L 110.958206 193.60946 
L 112.135329 170.77189 
L 113.312451 127.142934 
L 114.489574 166.802892 
L 116.843819 222.32484 
L 118.020941 231.797968 
L 119.198064 220.715772 
L 120.375186 204.532974 
L 121.552309 166.840874 
L 122.729431 133.826651 
L 123.906553 84.552546 
L 125.083676 63.26269 
L 126.260798 45.709113 
L 127.437921 23.813456 
L 128.615043 30.645641 
L 129.792166 48.266261 
L 130.969288 89.183565 
L 132.146411 136.664173 
L 133.323533 159.384562 
L 134.500656 206.348855 
L 135.677778 227.333885 
L 136.854901 233.255156 
L 138.032023 225.689738 
L 139.209146 194.099568 
L 140.386268 167.159954 
L 141.563391 129.927787 
L 142.740513 82.501332 
L 143.917636 55.926094 
L 145.094758 35.708866 
L 146.271881 26.154268 
L 147.449003 32.434469 
L 148.626126 56.458327 
L 149.803248 88.617706 
L 150.980371 125.246773 
L 152.157493 95.904845 
L 153.334616 60.890281 
L 154.511738 35.077249 
L 155.688861 32.350746 
L 156.865983 35.734207 
L 158.043106 57.608969 
L 160.397351 124.525928 
L 162.751596 204.926411 
L 163.928718 223.284479 
L 165.105841 237.652057 
L 166.282963 230.024324 
L 167.460086 190.276727 
L 168.637208 169.691298 
L 169.814331 120.079791 
L 170.991453 167.260926 
L 172.168576 200.305182 
L 173.345698 229.066049 
L 174.522821 236.223 
L 175.699943 223.11585 
L 176.877066 201.039624 
L 178.054188 166.181045 
L 179.231311 122.913897 
L 180.408433 93.344163 
L 181.585556 52.731794 
L 182.762678 39.098968 
L 183.939801 21.234899 
L 186.294046 59.069488 
L 191.002536 198.636682 
L 192.179658 220.410163 
L 193.356781 235.802981 
L 194.533903 221.851104 
L 195.711026 197.423263 
L 196.888148 168.118771 
L 198.065271 128.9268 
L 200.419516 207.255757 
L 201.596638 224.08894 
L 202.773761 234.796329 
L 203.950883 230.087644 
L 205.128006 201.851228 
L 209.836496 53.734028 
L 211.013618 38.465661 
L 212.190741 29.641631 
L 213.367863 36.407866 
L 214.544986 46.22616 
L 215.722108 80.094209 
L 216.89923 128.107291 
L 218.076353 80.976927 
L 219.253475 62.82271 
L 220.430598 39.77355 
L 221.60772 20.084426 
L 222.784843 33.226628 
L 223.961965 59.470513 
L 226.31621 123.043646 
L 227.493333 87.749941 
L 228.670455 55.790383 
L 229.847578 33.795894 
L 231.0247 21.713289 
L 232.201823 32.051237 
L 233.378945 50.034166 
L 235.73319 135.939195 
L 236.910313 161.705531 
L 238.087435 197.280794 
L 239.264558 221.050796 
L 240.44168 234.267142 
L 241.618803 228.480632 
L 242.795925 201.558925 
L 243.973048 157.803087 
L 245.15017 129.627435 
L 246.327293 175.250173 
L 247.504415 202.50701 
L 248.681538 226.806596 
L 249.85866 227.7572 
L 251.035783 216.423171 
L 252.212905 203.105239 
L 253.390028 167.69405 
L 254.56715 127.919136 
L 255.744273 73.157584 
L 256.921395 59.608247 
L 258.098518 37.527948 
L 259.27564 24.048463 
L 260.452763 38.797846 
L 261.629885 55.291172 
L 262.807008 92.118867 
L 263.98413 125.233989 
L 265.161253 167.380029 
L 266.338375 204.720863 
L 267.515498 224.531766 
L 268.69262 230.176403 
L 269.869743 217.098309 
L 271.046865 202.351675 
L 272.223988 172.902167 
L 273.40111 121.980775 
L 274.578233 169.758061 
L 275.755355 199.686278 
L 276.932478 223.035807 
L 278.1096 231.259421 
L 279.286723 222.718296 
L 280.463845 210.727414 
L 281.640968 165.42002 
L 282.81809 129.214886 
L 283.995213 167.273017 
L 285.172335 201.093479 
L 286.349458 228.40352 
L 287.52658 233.316372 
L 288.703703 225.056105 
L 289.880825 201.939085 
L 291.057948 171.425752 
L 292.23507 121.132009 
L 293.412193 169.319217 
L 294.589315 197.459241 
L 295.766438 221.382063 
L 296.94356 230.79614 
L 298.120683 222.901039 
L 299.297805 203.771408 
L 300.474928 166.921726 
L 301.65205 133.980433 
L 302.829173 165.189668 
L 304.006295 205.399561 
L 305.183418 224.592967 
L 306.36054 233.035651 
L 307.537663 226.748374 
L 308.714785 193.418027 
L 309.891908 173.0041 
L 311.06903 133.211442 
L 312.246152 176.786825 
L 313.423275 190.903956 
L 314.600397 233.802213 
L 315.77752 229.147586 
L 316.954642 230.815015 
L 318.131765 200.655071 
L 319.308887 164.741212 
L 320.48601 123.680561 
L 321.663132 167.179585 
L 322.840255 196.498852 
L 324.017377 215.165014 
L 325.1945 228.170349 
L 326.371622 227.264649 
L 327.548745 206.10675 
L 328.725867 171.454635 
L 331.080112 90.801185 
L 332.257235 61.771866 
L 333.434357 28.924025 
L 334.61148 23.991544 
L 335.788602 30.195511 
L 336.965725 57.787311 
L 338.142847 90.332941 
L 339.31997 129.157335 
L 340.497092 95.200499 
L 341.674215 55.679464 
L 342.851337 38.630218 
L 344.02846 35.161784 
L 345.205582 35.441036 
L 346.382705 47.49991 
L 347.559827 86.531665 
L 348.73695 131.479753 
L 349.914072 161.805995 
L 351.091195 203.52064 
L 352.268317 226.041636 
L 353.44544 231.736145 
L 354.622562 225.22737 
L 356.976807 164.670528 
L 358.15393 117.050246 
L 361.685297 28.402204 
L 362.86242 31.007845 
L 364.039542 31.176761 
L 365.216665 55.134407 
L 366.393787 88.08975 
L 367.57091 128.540442 
L 368.748032 87.047333 
L 369.925155 49.938074 
L 371.102277 35.747132 
L 372.2794 26.682382 
L 373.456522 34.4089 
L 374.633645 61.38825 
L 375.810767 83.950204 
L 376.98789 124.648394 
L 378.165012 87.604512 
L 380.519257 29.285295 
L 381.69638 22.009397 
L 382.873502 33.495172 
L 384.050625 65.912479 
L 385.227747 84.230667 
L 386.40487 135.784115 
L 388.759115 55.88671 
L 389.936237 40.073808 
L 391.11336 35.507918 
L 392.290482 38.558219 
L 393.467605 53.255564 
L 394.644727 89.362366 
L 395.82185 129.307008 
L 396.998972 88.282934 
L 399.353217 32.310879 
L 400.53034 33.629619 
L 401.707462 32.027964 
L 402.884585 58.835025 
L 407.593074 196.701627 
L 409.947319 238.478683 
L 411.124442 224.149213 
L 412.301564 202.844969 
L 413.478687 158.174038 
L 414.655809 130.361212 
L 415.832932 94.614748 
L 417.010054 51.860403 
L 418.187177 41.998181 
L 419.364299 28.421432 
L 420.541422 33.005606 
L 421.718544 59.011709 
L 422.895667 91.739672 
L 424.072789 128.567075 
L 425.249912 175.469912 
L 426.427034 204.806816 
L 427.604157 215.97856 
L 428.781279 238.745732 
L 429.958402 217.268231 
L 431.135524 205.412252 
L 432.312647 169.622538 
L 433.489769 121.965505 
L 434.666892 91.821895 
L 435.844014 55.334196 
L 437.021137 34.542191 
L 438.198259 26.785656 
L 439.375382 39.156374 
L 440.552504 53.159626 
L 442.906749 123.420288 
L 444.083872 83.087176 
L 445.260994 56.255221 
L 446.438117 43.848637 
L 447.615239 32.679117 
L 448.792362 36.085805 
L 449.969484 55.050535 
L 451.146607 85.700168 
L 452.323729 121.268739 
L 453.500852 161.141935 
L 454.677974 212.366276 
L 455.855097 223.435422 
L 457.032219 239.366335 
L 458.209342 223.457903 
L 459.386464 205.317855 
L 460.563587 169.460095 
L 461.740709 123.375699 
L 462.917832 161.059423 
L 464.094954 202.311768 
L 465.272077 226.179817 
L 466.449199 219.385374 
L 467.626322 224.743156 
L 468.803444 204.883024 
L 471.157689 134.201929 
L 472.334812 164.714377 
L 473.511934 199.042689 
L 474.689057 215.13979 
L 475.866179 228.228883 
L 477.043302 223.731406 
L 478.220424 199.242588 
L 479.397547 168.682331 
L 480.574669 123.860123 
L 481.751792 171.578773 
L 482.928914 206.209661 
L 484.106037 231.048136 
L 485.283159 214.647415 
L 486.460282 224.455466 
L 488.814527 172.595166 
L 489.991649 124.861499 
L 491.168772 94.568191 
L 492.345894 61.078138 
L 493.523017 39.319077 
L 494.700139 28.650541 
L 495.877262 25.275611 
L 497.054384 61.020647 
L 498.231507 86.957892 
L 499.408629 130.910157 
L 500.585751 161.927174 
L 501.762874 197.836182 
L 502.939996 218.752031 
L 504.117119 227.253599 
L 505.294241 217.72584 
L 507.648486 175.509802 
L 508.825609 129.025636 
L 510.002731 89.991638 
L 511.179854 63.100502 
L 512.356976 45.47193 
L 513.534099 23.818754 
L 514.711221 26.294464 
L 515.888344 53.367051 
L 517.065466 88.873209 
L 518.242589 129.918152 
L 519.419711 87.963474 
L 520.596834 57.764142 
L 521.773956 31.09713 
L 522.951079 22.956367 
L 524.128201 34.188285 
L 525.305324 57.083112 
L 526.482446 87.382512 
L 528.836691 165.070155 
L 530.013814 201.441673 
L 531.190936 220.166699 
L 532.368059 225.02331 
L 533.545181 224.593211 
L 534.722304 194.824296 
L 535.899426 170.102344 
L 537.076549 134.292072 
L 539.430794 50.837133 
L 540.607916 25.21774 
L 541.785039 26.937342 
L 542.962161 36.028674 
L 544.139284 58.118525 
L 545.316406 90.353359 
L 545.316406 90.353359 
" clip-path="url(#pb5e5276f75)" style="fill: none; stroke: #1f77b4; stroke-linecap: square"/>
   </g>
   <g id="line2d_38">
    <path d="M 75.644531 139.933923 
L 76.821654 129.686462 
L 77.998776 131.326907 
L 79.175899 124.448297 
L 80.353021 135.174695 
L 82.707266 58.613266 
L 83.884389 40.696215 
L 85.061511 30.990707 
L 86.238634 34.207919 
L 87.415756 55.041001 
L 88.592879 92.890441 
L 89.770001 136.143467 
L 90.947124 170.210689 
L 93.301369 217.470567 
L 94.478491 233.036472 
L 95.655614 218.614117 
L 96.832736 201.416718 
L 98.009859 174.936708 
L 99.186981 139.768834 
L 100.364104 162.533865 
L 101.541226 197.251028 
L 102.718349 214.467192 
L 105.072594 232.193717 
L 106.249716 207.491238 
L 108.603961 128.477219 
L 109.781084 169.693847 
L 110.958206 204.892892 
L 112.135329 227.391356 
L 113.312451 227.218704 
L 115.666696 204.965167 
L 116.843819 172.005629 
L 118.020941 126.279515 
L 119.198064 156.858768 
L 120.375186 199.355605 
L 121.552309 223.194434 
L 122.729431 226.53143 
L 123.906553 229.111464 
L 125.083676 205.999801 
L 126.260798 170.184812 
L 127.437921 126.84734 
L 129.792166 204.319731 
L 130.969288 230.942806 
L 132.146411 232.19773 
L 133.323533 221.031727 
L 134.500656 203.878445 
L 135.677778 168.879354 
L 136.854901 128.882459 
L 138.032023 95.305264 
L 139.209146 57.845438 
L 140.386268 27.524909 
L 141.563391 23.700624 
L 142.740513 30.343328 
L 143.917636 51.566497 
L 146.271881 131.960154 
L 147.449003 86.595116 
L 148.626126 66.319008 
L 149.803248 32.837463 
L 150.980371 27.637578 
L 152.157493 28.932405 
L 153.334616 53.467906 
L 154.511738 84.632992 
L 155.688861 138.490365 
L 156.865983 92.613832 
L 158.043106 60.977718 
L 159.220228 37.706737 
L 160.397351 26.435227 
L 161.574473 39.452573 
L 162.751596 54.234442 
L 163.928718 86.992365 
L 165.105841 129.895362 
L 166.282963 96.842894 
L 167.460086 56.738165 
L 168.637208 35.875032 
L 169.814331 24.885738 
L 170.991453 27.177598 
L 172.168576 59.496349 
L 173.345698 95.511941 
L 174.522821 123.029748 
L 175.699943 94.39431 
L 176.877066 55.929786 
L 178.054188 41.525579 
L 179.231311 31.644622 
L 180.408433 31.89203 
L 181.585556 56.447648 
L 183.939801 125.542382 
L 185.116923 168.866076 
L 186.294046 205.57601 
L 187.471168 230.826401 
L 188.648291 231.746293 
L 189.825413 223.893582 
L 191.002536 200.05322 
L 192.179658 168.702012 
L 195.711026 56.833149 
L 198.065271 25.596077 
L 199.242393 32.086544 
L 200.419516 44.785649 
L 201.596638 90.316022 
L 202.773761 122.13949 
L 203.950883 172.837572 
L 205.128006 204.181673 
L 206.305128 221.527892 
L 207.482251 232.423847 
L 208.659373 224.776394 
L 209.836496 202.981823 
L 212.190741 131.718442 
L 214.544986 200.900369 
L 215.722108 227.817447 
L 216.89923 226.644056 
L 218.076353 228.421603 
L 219.253475 201.010626 
L 221.60772 127.542218 
L 222.784843 167.036803 
L 223.961965 199.794937 
L 225.139088 225.562936 
L 226.31621 227.562813 
L 227.493333 227.039644 
L 228.670455 200.320598 
L 229.847578 167.263364 
L 231.0247 127.269516 
L 233.378945 198.885683 
L 234.556068 226.533634 
L 235.73319 236.93244 
L 236.910313 225.246405 
L 238.087435 203.226347 
L 239.264558 170.141504 
L 240.44168 126.073233 
L 241.618803 171.684571 
L 242.795925 201.68432 
L 243.973048 225.719404 
L 245.15017 231.108304 
L 246.327293 217.826718 
L 247.504415 197.644076 
L 248.681538 165.447904 
L 251.035783 86.005732 
L 253.390028 33.530902 
L 254.56715 25.763443 
L 255.744273 32.702886 
L 256.921395 51.774044 
L 258.098518 89.776885 
L 260.452763 173.340853 
L 261.629885 198.994273 
L 262.807008 230.421995 
L 263.98413 237.476938 
L 265.161253 222.841888 
L 266.338375 199.791282 
L 267.515498 170.357875 
L 269.869743 86.664044 
L 271.046865 56.927731 
L 272.223988 41.47825 
L 273.40111 18.25554 
L 274.578233 37.998893 
L 275.755355 53.268408 
L 278.1096 125.960732 
L 280.463845 54.487869 
L 282.81809 18.395407 
L 283.995213 36.371556 
L 285.172335 51.922952 
L 286.349458 93.089596 
L 287.52658 123.833676 
L 289.880825 207.625472 
L 291.057948 223.429195 
L 292.23507 228.665294 
L 293.412193 223.070721 
L 294.589315 198.508337 
L 295.766438 159.771633 
L 296.94356 130.901127 
L 298.120683 165.521788 
L 299.297805 207.886964 
L 300.474928 219.191113 
L 301.65205 228.098568 
L 302.829173 230.955944 
L 304.006295 202.763791 
L 305.183418 166.01441 
L 306.36054 133.182565 
L 307.537663 88.400588 
L 308.714785 56.946068 
L 309.891908 34.630452 
L 311.06903 22.685704 
L 312.246152 38.509843 
L 313.423275 58.739954 
L 314.600397 90.117013 
L 315.77752 131.248345 
L 318.131765 56.858852 
L 319.308887 28.463746 
L 320.48601 20.590049 
L 321.663132 33.638487 
L 324.017377 93.267633 
L 326.371622 162.906837 
L 328.725867 219.075139 
L 329.90299 235.120247 
L 331.080112 228.847484 
L 332.257235 206.443612 
L 333.434357 174.1492 
L 334.61148 121.233904 
L 335.788602 169.170958 
L 336.965725 198.806627 
L 338.142847 225.340783 
L 339.31997 227.212605 
L 340.497092 218.546267 
L 341.674215 204.06332 
L 342.851337 173.154542 
L 344.02846 128.030089 
L 345.205582 172.863992 
L 346.382705 205.422308 
L 347.559827 222.507584 
L 348.73695 225.060206 
L 349.914072 225.294094 
L 353.44544 124.265318 
L 354.622562 101.430781 
L 355.799685 58.137741 
L 356.976807 31.162489 
L 358.15393 26.927233 
L 359.331052 39.012553 
L 360.508175 57.584494 
L 361.685297 91.715232 
L 364.039542 169.833353 
L 365.216665 217.118266 
L 366.393787 222.061589 
L 367.57091 235.626561 
L 368.748032 217.428469 
L 369.925155 207.673462 
L 372.2794 122.421577 
L 373.456522 169.722565 
L 374.633645 206.832552 
L 375.810767 223.78833 
L 376.98789 228.217382 
L 378.165012 222.666152 
L 379.342135 207.169751 
L 380.519257 173.164108 
L 381.69638 133.261101 
L 382.873502 175.312195 
L 385.227747 224.52448 
L 386.40487 234.946 
L 387.581992 222.359947 
L 389.936237 173.994028 
L 391.11336 131.065505 
L 393.467605 62.040363 
L 394.644727 37.125003 
L 395.82185 34.353023 
L 396.998972 40.544932 
L 398.176095 50.851526 
L 399.353217 86.273011 
L 400.53034 129.709235 
L 402.884585 52.823554 
L 404.061707 40.862033 
L 405.238829 27.278993 
L 406.415952 25.144652 
L 408.770197 91.586504 
L 409.947319 140.616118 
L 411.124442 166.039089 
L 413.478687 222.989063 
L 414.655809 235.862853 
L 415.832932 221.194111 
L 417.010054 199.074055 
L 418.187177 165.958784 
L 419.364299 128.794435 
L 420.541422 82.859394 
L 421.718544 59.538593 
L 422.895667 33.24202 
L 424.072789 29.154051 
L 425.249912 33.336595 
L 426.427034 59.726215 
L 427.604157 89.184489 
L 428.781279 130.454261 
L 431.135524 51.145894 
L 432.312647 31.919037 
L 433.489769 25.855467 
L 434.666892 42.173326 
L 435.844014 49.587495 
L 437.021137 88.229649 
L 438.198259 133.804968 
L 439.375382 164.631587 
L 440.552504 201.971086 
L 441.729627 218.271029 
L 442.906749 221.725778 
L 444.083872 226.016065 
L 446.438117 170.701181 
L 447.615239 122.105153 
L 448.792362 164.210924 
L 449.969484 201.764894 
L 451.146607 226.509136 
L 452.323729 228.77811 
L 453.500852 232.094811 
L 454.677974 196.688873 
L 455.855097 168.926016 
L 459.386464 56.000426 
L 460.563587 32.000774 
L 461.740709 21.332056 
L 462.917832 32.945501 
L 464.094954 57.800215 
L 465.272077 98.172671 
L 466.449199 130.089608 
L 467.626322 89.55007 
L 468.803444 53.346902 
L 469.980567 36.388135 
L 471.157689 24.922914 
L 472.334812 37.9765 
L 473.511934 57.84444 
L 477.043302 168.648515 
L 478.220424 204.788085 
L 479.397547 221.947557 
L 480.574669 229.908286 
L 481.751792 222.581528 
L 482.928914 212.721851 
L 484.106037 172.651341 
L 485.283159 126.181627 
L 486.460282 178.399858 
L 487.637404 205.257574 
L 488.814527 225.17758 
L 489.991649 226.553524 
L 491.168772 218.928976 
L 492.345894 206.589403 
L 493.523017 176.044482 
L 494.700139 127.06943 
L 495.877262 170.12674 
L 497.054384 197.899367 
L 498.231507 229.463299 
L 499.408629 234.069477 
L 500.585751 209.375379 
L 501.762874 200.983319 
L 502.939996 169.233314 
L 504.117119 122.925787 
L 505.294241 175.780042 
L 506.471364 211.082993 
L 507.648486 227.015165 
L 508.825609 234.098736 
L 510.002731 214.232516 
L 511.179854 198.848715 
L 512.356976 168.595606 
L 513.534099 121.919914 
L 514.711221 86.15407 
L 515.888344 54.723651 
L 517.065466 31.627128 
L 518.242589 27.683046 
L 519.419711 34.72427 
L 520.596834 54.68919 
L 521.773956 90.736103 
L 522.951079 130.981834 
L 524.128201 166.558164 
L 525.305324 212.38734 
L 526.482446 222.83653 
L 527.659569 223.881105 
L 528.836691 230.388763 
L 530.013814 200.820472 
L 531.190936 160.135644 
L 532.368059 127.936724 
L 533.545181 85.108781 
L 534.722304 50.213866 
L 535.899426 37.822371 
L 537.076549 39.458586 
L 538.253671 29.121476 
L 539.430794 52.711642 
L 540.607916 90.060102 
L 541.785039 122.51279 
L 542.962161 172.718024 
L 544.139284 199.846474 
L 545.316406 220.616204 
L 545.316406 220.616204 
" clip-path="url(#pb5e5276f75)" style="fill: none; stroke: #ff7f0e; stroke-linecap: square"/>
   </g>
   <g id="patch_3">
    <path d="M 52.160938 250.421875 
L 52.160938 7.2 
" style="fill: none; stroke: #000000; stroke-width: 0.8; stroke-linejoin: miter; stroke-linecap: square"/>
   </g>
   <g id="patch_4">
    <path d="M 568.8 250.421875 
L 568.8 7.2 
" style="fill: none; stroke: #000000; stroke-width: 0.8; stroke-linejoin: miter; stroke-linecap: square"/>
   </g>
   <g id="patch_5">
    <path d="M 52.160937 250.421875 
L 568.8 250.421875 
" style="fill: none; stroke: #000000; stroke-width: 0.8; stroke-linejoin: miter; stroke-linecap: square"/>
   </g>
   <g id="patch_6">
    <path d="M 52.160937 7.2 
L 568.8 7.2 
" style="fill: none; stroke: #000000; stroke-width: 0.8; stroke-linejoin: miter; stroke-linecap: square"/>
   </g>
   <g id="legend_1">
    <g id="patch_7">
     <path d="M 59.160938 44.55625 
L 116.15625 44.55625 
Q 118.15625 44.55625 118.15625 42.55625 
L 118.15625 14.2 
Q 118.15625 12.2 116.15625 12.2 
L 59.160938 12.2 
Q 57.160938 12.2 57.160938 14.2 
L 57.160938 42.55625 
Q 57.160938 44.55625 59.160938 44.55625 
z
" style="fill: #ffffff; opacity: 0.8; stroke: #cccccc; stroke-linejoin: miter"/>
    </g>
    <g id="line2d_39">
     <path d="M 61.160938 20.298437 
L 71.160938 20.298437 
L 81.160938 20.298437 
" style="fill: none; stroke: #1f77b4; stroke-linecap: square"/>
    </g>
    <g id="text_21">
     <!-- real -->
     <g transform="translate(89.160938 23.798437) scale(0.1 -0.1)">
      <defs>
       <path id="DejaVuSans-72" d="M 2631 2963 
Q 2534 3019 2420 3045 
Q 2306 3072 2169 3072 
Q 1681 3072 1420 2755 
Q 1159 2438 1159 1844 
L 1159 0 
L 581 0 
L 581 3500 
L 1159 3500 
L 1159 2956 
Q 1341 3275 1631 3429 
Q 1922 3584 2338 3584 
Q 2397 3584 2469 3576 
Q 2541 3569 2628 3553 
L 2631 2963 
z
" transform="scale(0.015625)"/>
      </defs>
      <use xlink:href="#DejaVuSans-72"/>
      <use xlink:href="#DejaVuSans-65" transform="translate(38.863281 0)"/>
      <use xlink:href="#DejaVuSans-61" transform="translate(100.386719 0)"/>
      <use xlink:href="#DejaVuSans-6c" transform="translate(161.666016 0)"/>
     </g>
    </g>
    <g id="line2d_40">
     <path d="M 61.160938 34.976562 
L 71.160938 34.976562 
L 81.160938 34.976562 
" style="fill: none; stroke: #ff7f0e; stroke-linecap: square"/>
    </g>
    <g id="text_22">
     <!-- imag -->
     <g transform="translate(89.160938 38.476562) scale(0.1 -0.1)">
      <defs>
       <path id="DejaVuSans-67" d="M 2906 1791 
Q 2906 2416 2648 2759 
Q 2391 3103 1925 3103 
Q 1463 3103 1205 2759 
Q 947 2416 947 1791 
Q 947 1169 1205 825 
Q 1463 481 1925 481 
Q 2391 481 2648 825 
Q 2906 1169 2906 1791 
z
M 3481 434 
Q 3481 -459 3084 -895 
Q 2688 -1331 1869 -1331 
Q 1566 -1331 1297 -1286 
Q 1028 -1241 775 -1147 
L 775 -588 
Q 1028 -725 1275 -790 
Q 1522 -856 1778 -856 
Q 2344 -856 2625 -561 
Q 2906 -266 2906 331 
L 2906 616 
Q 2728 306 2450 153 
Q 2172 0 1784 0 
Q 1141 0 747 490 
Q 353 981 353 1791 
Q 353 2603 747 3093 
Q 1141 3584 1784 3584 
Q 2172 3584 2450 3431 
Q 2728 3278 2906 2969 
L 2906 3500 
L 3481 3500 
L 3481 434 
z
" transform="scale(0.015625)"/>
      </defs>
      <use xlink:href="#DejaVuSans-69"/>
      <use xlink:href="#DejaVuSans-6d" transform="translate(27.783203 0)"/>
      <use xlink:href="#DejaVuSans-61" transform="translate(125.195312 0)"/>
      <use xlink:href="#DejaVuSans-67" transform="translate(186.474609 0)"/>
     </g>
    </g>
   </g>
  </g>
 </g>
 <defs>
  <clipPath id="pb5e5276f75">
   <rect x="52.160938" y="7.2" width="516.639063" height="243.221875"/>
  </clipPath>
 </defs>
</svg>
