<?xml version="1.0" encoding="utf-8" standalone="no"?>
<!DOCTYPE svg PUBLIC "-//W3C//DTD SVG 1.1//EN"
  "http://www.w3.org/Graphics/SVG/1.1/DTD/svg11.dtd">
<svg xmlns:xlink="http://www.w3.org/1999/xlink" width="576pt" height="288pt" viewBox="0 0 576 288" xmlns="http://www.w3.org/2000/svg" version="1.1">
 <metadata>
  <rdf:RDF xmlns:dc="http://purl.org/dc/elements/1.1/" xmlns:cc="http://creativecommons.org/ns#" xmlns:rdf="http://www.w3.org/1999/02/22-rdf-syntax-ns#">
   <cc:Work>
    <dc:type rdf:resource="http://purl.org/dc/dcmitype/StillImage"/>
    <dc:date>2026-05-03T17:01:06.951384</dc:date>
    <dc:format>image/svg+xml</dc:format>
    <dc:creator>
     <cc:Agent>
      <dc:title>Matplotlib v3.10.9, https://matplotlib.org/</dc:title>
     </cc:Agent>
    </dc:creator>
   </cc:Work>
  </rdf:RDF>
 </metadata>
 <defs>
  <style type="text/css">*{stroke-linejoin: round; stroke-linecap: butt}</style>
 </defs>
 <g id="figure_1">
  <g id="patch_1">
   <path d="M 0 288 
L 576 288 
L 576 0 
L 0 0 
z
" style="fill: #ffffff"/>
  </g>
  <g id="axes_1">
   <g id="patch_2">
    <path d="M 48.982813 250.421875 
L 568.8 250.421875 
L 568.8 22.32 
L 48.982813 22.32 
z
" style="fill: #ffffff"/>
   </g>
   <g id="matplotlib.axis_1">
    <g id="xtick_1">
     <g id="line2d_1">
      <path d="M 119.89006 250.421875 
L 119.89006 22.32 
" clip-path="url(#p4108672183)" style="fill: none; stroke-dasharray: 2.96,1.28; stroke-dashoffset: 0; stroke: #b0b0b0; stroke-opacity: 0.8; stroke-width: 0.8"/>
     </g>
     <g id="line2d_2">
      <defs>
       <path id="m1286fe8e70" d="M 0 0 
L 0 3.5 
" style="stroke: #000000; stroke-width: 0.8"/>
      </defs>
      <g>
       <use xlink:href="#m1286fe8e70" x="119.89006" y="250.421875" style="stroke: #000000; stroke-width: 0.8"/>
      </g>
     </g>
     <g id="text_1">
      <!-- -200 -->
      <g transform="translate(108.542404 265.020312) scale(0.1 -0.1)">
       <defs>
        <path id="DejaVuSans-2d" d="M 313 2009 
L 1997 2009 
L 1997 1497 
L 313 1497 
L 313 2009 
z
" transform="scale(0.015625)"/>
        <path id="DejaVuSans-32" d="M 1228 531 
L 3431 531 
L 3431 0 
L 469 0 
L 469 531 
Q 828 903 1448 1529 
Q 2069 2156 2228 2338 
Q 2531 2678 2651 2914 
Q 2772 3150 2772 3378 
Q 2772 3750 2511 3984 
Q 2250 4219 1831 4219 
Q 1534 4219 1204 4116 
Q 875 4013 500 3803 
L 500 4441 
Q 881 4594 1212 4672 
Q 1544 4750 1819 4750 
Q 2544 4750 2975 4387 
Q 3406 4025 3406 3419 
Q 3406 3131 3298 2873 
Q 3191 2616 2906 2266 
Q 2828 2175 2409 1742 
Q 1991 1309 1228 531 
z
" transform="scale(0.015625)"/>
        <path id="DejaVuSans-30" d="M 2034 4250 
Q 1547 4250 1301 3770 
Q 1056 3291 1056 2328 
Q 1056 1369 1301 889 
Q 1547 409 2034 409 
Q 2525 409 2770 889 
Q 3016 1369 3016 2328 
Q 3016 3291 2770 3770 
Q 2525 4250 2034 4250 
z
M 2034 4750 
Q 2819 4750 3233 4129 
Q 3647 3509 3647 2328 
Q 3647 1150 3233 529 
Q 2819 -91 2034 -91 
Q 1250 -91 836 529 
Q 422 1150 422 2328 
Q 422 3509 836 4129 
Q 1250 4750 2034 4750 
z
" transform="scale(0.015625)"/>
       </defs>
       <use xlink:href="#DejaVuSans-2d"/>
       <use xlink:href="#DejaVuSans-32" transform="translate(36.083984 0)"/>
       <use xlink:href="#DejaVuSans-30" transform="translate(99.707031 0)"/>
       <use xlink:href="#DejaVuSans-30" transform="translate(163.330078 0)"/>
      </g>
     </g>
    </g>
    <g id="xtick_2">
     <g id="line2d_3">
      <path d="M 214.448447 250.421875 
L 214.448447 22.32 
" clip-path="url(#p4108672183)" style="fill: none; stroke-dasharray: 2.96,1.28; stroke-dashoffset: 0; stroke: #b0b0b0; stroke-opacity: 0.8; stroke-width: 0.8"/>
     </g>
     <g id="line2d_4">
      <g>
       <use xlink:href="#m1286fe8e70" x="214.448447" y="250.421875" style="stroke: #000000; stroke-width: 0.8"/>
      </g>
     </g>
     <g id="text_2">
      <!-- -100 -->
      <g transform="translate(203.100791 265.020312) scale(0.1 -0.1)">
       <defs>
        <path id="DejaVuSans-31" d="M 794 531 
L 1825 531 
L 1825 4091 
L 703 3866 
L 703 4441 
L 1819 4666 
L 2450 4666 
L 2450 531 
L 3481 531 
L 3481 0 
L 794 0 
L 794 531 
z
" transform="scale(0.015625)"/>
       </defs>
       <use xlink:href="#DejaVuSans-2d"/>
       <use xlink:href="#DejaVuSans-31" transform="translate(36.083984 0)"/>
       <use xlink:href="#DejaVuSans-30" transform="translate(99.707031 0)"/>
       <use xlink:href="#DejaVuSans-30" transform="translate(163.330078 0)"/>
      </g>
     </g>
    </g>
    <g id="xtick_3">
     <g id="line2d_5">
      <path d="M 309.006834 250.421875 
L 309.006834 22.32 
" clip-path="url(#p4108672183)" style="fill: none; stroke-dasharray: 2.96,1.28; stroke-dashoffset: 0; stroke: #b0b0b0; stroke-opacity: 0.8; stroke-width: 0.8"/>
     </g>
     <g id="line2d_6">
      <g>
       <use xlink:href="#m1286fe8e70" x="309.006834" y="250.421875" style="stroke: #000000; stroke-width: 0.8"/>
      </g>
     </g>
     <g id="text_3">
      <!-- 0 -->
      <g transform="translate(305.825584 265.020312) scale(0.1 -0.1)">
       <use xlink:href="#DejaVuSans-30"/>
      </g>
     </g>
    </g>
    <g id="xtick_4">
     <g id="line2d_7">
      <path d="M 403.565221 250.421875 
L 403.565221 22.32 
" clip-path="url(#p4108672183)" style="fill: none; stroke-dasharray: 2.96,1.28; stroke-dashoffset: 0; stroke: #b0b0b0; stroke-opacity: 0.8; stroke-width: 0.8"/>
     </g>
     <g id="line2d_8">
      <g>
       <use xlink:href="#m1286fe8e70" x="403.565221" y="250.421875" style="stroke: #000000; stroke-width: 0.8"/>
      </g>
     </g>
     <g id="text_4">
      <!-- 100 -->
      <g transform="translate(394.021471 265.020312) scale(0.1 -0.1)">
       <use xlink:href="#DejaVuSans-31"/>
       <use xlink:href="#DejaVuSans-30" transform="translate(63.623047 0)"/>
       <use xlink:href="#DejaVuSans-30" transform="translate(127.246094 0)"/>
      </g>
     </g>
    </g>
    <g id="xtick_5">
     <g id="line2d_9">
      <path d="M 498.123608 250.421875 
L 498.123608 22.32 
" clip-path="url(#p4108672183)" style="fill: none; stroke-dasharray: 2.96,1.28; stroke-dashoffset: 0; stroke: #b0b0b0; stroke-opacity: 0.8; stroke-width: 0.8"/>
     </g>
     <g id="line2d_10">
      <g>
       <use xlink:href="#m1286fe8e70" x="498.123608" y="250.421875" style="stroke: #000000; stroke-width: 0.8"/>
      </g>
     </g>
     <g id="text_5">
      <!-- 200 -->
      <g transform="translate(488.579858 265.020312) scale(0.1 -0.1)">
       <use xlink:href="#DejaVuSans-32"/>
       <use xlink:href="#DejaVuSans-30" transform="translate(63.623047 0)"/>
       <use xlink:href="#DejaVuSans-30" transform="translate(127.246094 0)"/>
      </g>
     </g>
    </g>
    <g id="text_6">
     <!-- Frequency (Hz), $f$ -->
     <g transform="translate(265.741406 278.7) scale(0.1 -0.1)">
      <defs>
       <path id="DejaVuSans-46" d="M 628 4666 
L 3309 4666 
L 3309 4134 
L 1259 4134 
L 1259 2759 
L 3109 2759 
L 3109 2228 
L 1259 2228 
L 1259 0 
L 628 0 
L 628 4666 
z
" transform="scale(0.015625)"/>
       <path id="DejaVuSans-72" d="M 2631 2963 
Q 2534 3019 2420 3045 
Q 2306 3072 2169 3072 
Q 1681 3072 1420 2755 
Q 1159 2438 1159 1844 
L 1159 0 
L 581 0 
L 581 3500 
L 1159 3500 
L 1159 2956 
Q 1341 3275 1631 3429 
Q 1922 3584 2338 3584 
Q 2397 3584 2469 3576 
Q 2541 3569 2628 3553 
L 2631 2963 
z
" transform="scale(0.015625)"/>
       <path id="DejaVuSans-65" d="M 3597 1894 
L 3597 1613 
L 953 1613 
Q 991 1019 1311 708 
Q 1631 397 2203 397 
Q 2534 397 2845 478 
Q 3156 559 3463 722 
L 3463 178 
Q 3153 47 2828 -22 
Q 2503 -91 2169 -91 
Q 1331 -91 842 396 
Q 353 884 353 1716 
Q 353 2575 817 3079 
Q 1281 3584 2069 3584 
Q 2775 3584 3186 3129 
Q 3597 2675 3597 1894 
z
M 3022 2063 
Q 3016 2534 2758 2815 
Q 2500 3097 2075 3097 
Q 1594 3097 1305 2825 
Q 1016 2553 972 2059 
L 3022 2063 
z
" transform="scale(0.015625)"/>
       <path id="DejaVuSans-71" d="M 947 1747 
Q 947 1113 1208 752 
Q 1469 391 1925 391 
Q 2381 391 2643 752 
Q 2906 1113 2906 1747 
Q 2906 2381 2643 2742 
Q 2381 3103 1925 3103 
Q 1469 3103 1208 2742 
Q 947 2381 947 1747 
z
M 2906 525 
Q 2725 213 2448 61 
Q 2172 -91 1784 -91 
Q 1150 -91 751 415 
Q 353 922 353 1747 
Q 353 2572 751 3078 
Q 1150 3584 1784 3584 
Q 2172 3584 2448 3432 
Q 2725 3281 2906 2969 
L 2906 3500 
L 3481 3500 
L 3481 -1331 
L 2906 -1331 
L 2906 525 
z
" transform="scale(0.015625)"/>
       <path id="DejaVuSans-75" d="M 544 1381 
L 544 3500 
L 1119 3500 
L 1119 1403 
Q 1119 906 1312 657 
Q 1506 409 1894 409 
Q 2359 409 2629 706 
Q 2900 1003 2900 1516 
L 2900 3500 
L 3475 3500 
L 3475 0 
L 2900 0 
L 2900 538 
Q 2691 219 2414 64 
Q 2138 -91 1772 -91 
Q 1169 -91 856 284 
Q 544 659 544 1381 
z
M 1991 3584 
L 1991 3584 
z
" transform="scale(0.015625)"/>
       <path id="DejaVuSans-6e" d="M 3513 2113 
L 3513 0 
L 2938 0 
L 2938 2094 
Q 2938 2591 2744 2837 
Q 2550 3084 2163 3084 
Q 1697 3084 1428 2787 
Q 1159 2491 1159 1978 
L 1159 0 
L 581 0 
L 581 3500 
L 1159 3500 
L 1159 2956 
Q 1366 3272 1645 3428 
Q 1925 3584 2291 3584 
Q 2894 3584 3203 3211 
Q 3513 2838 3513 2113 
z
" transform="scale(0.015625)"/>
       <path id="DejaVuSans-63" d="M 3122 3366 
L 3122 2828 
Q 2878 2963 2633 3030 
Q 2388 3097 2138 3097 
Q 1578 3097 1268 2742 
Q 959 2388 959 1747 
Q 959 1106 1268 751 
Q 1578 397 2138 397 
Q 2388 397 2633 464 
Q 2878 531 3122 666 
L 3122 134 
Q 2881 22 2623 -34 
Q 2366 -91 2075 -91 
Q 1284 -91 818 406 
Q 353 903 353 1747 
Q 353 2603 823 3093 
Q 1294 3584 2113 3584 
Q 2378 3584 2631 3529 
Q 2884 3475 3122 3366 
z
" transform="scale(0.015625)"/>
       <path id="DejaVuSans-79" d="M 2059 -325 
Q 1816 -950 1584 -1140 
Q 1353 -1331 966 -1331 
L 506 -1331 
L 506 -850 
L 844 -850 
Q 1081 -850 1212 -737 
Q 1344 -625 1503 -206 
L 1606 56 
L 191 3500 
L 800 3500 
L 1894 763 
L 2988 3500 
L 3597 3500 
L 2059 -325 
z
" transform="scale(0.015625)"/>
       <path id="DejaVuSans-20" transform="scale(0.015625)"/>
       <path id="DejaVuSans-28" d="M 1984 4856 
Q 1566 4138 1362 3434 
Q 1159 2731 1159 2009 
Q 1159 1288 1364 580 
Q 1569 -128 1984 -844 
L 1484 -844 
Q 1016 -109 783 600 
Q 550 1309 550 2009 
Q 550 2706 781 3412 
Q 1013 4119 1484 4856 
L 1984 4856 
z
" transform="scale(0.015625)"/>
       <path id="DejaVuSans-48" d="M 628 4666 
L 1259 4666 
L 1259 2753 
L 3553 2753 
L 3553 4666 
L 4184 4666 
L 4184 0 
L 3553 0 
L 3553 2222 
L 1259 2222 
L 1259 0 
L 628 0 
L 628 4666 
z
" transform="scale(0.015625)"/>
       <path id="DejaVuSans-7a" d="M 353 3500 
L 3084 3500 
L 3084 2975 
L 922 459 
L 3084 459 
L 3084 0 
L 275 0 
L 275 525 
L 2438 3041 
L 353 3041 
L 353 3500 
z
" transform="scale(0.015625)"/>
       <path id="DejaVuSans-29" d="M 513 4856 
L 1013 4856 
Q 1481 4119 1714 3412 
Q 1947 2706 1947 2009 
Q 1947 1309 1714 600 
Q 1481 -109 1013 -844 
L 513 -844 
Q 928 -128 1133 580 
Q 1338 1288 1338 2009 
Q 1338 2731 1133 3434 
Q 928 4138 513 4856 
z
" transform="scale(0.015625)"/>
       <path id="DejaVuSans-2c" d="M 750 794 
L 1409 794 
L 1409 256 
L 897 -744 
L 494 -744 
L 750 256 
L 750 794 
z
" transform="scale(0.015625)"/>
       <path id="DejaVuSans-Oblique-66" d="M 3059 4863 
L 2969 4384 
L 2419 4384 
Q 2106 4384 1964 4261 
Q 1822 4138 1753 3809 
L 1691 3500 
L 2638 3500 
L 2553 3053 
L 1606 3053 
L 1013 0 
L 434 0 
L 1031 3053 
L 481 3053 
L 563 3500 
L 1113 3500 
L 1159 3744 
Q 1278 4363 1576 4613 
Q 1875 4863 2516 4863 
L 3059 4863 
z
" transform="scale(0.015625)"/>
      </defs>
      <use xlink:href="#DejaVuSans-46" transform="translate(0 0.015625)"/>
      <use xlink:href="#DejaVuSans-72" transform="translate(57.519531 0.015625)"/>
      <use xlink:href="#DejaVuSans-65" transform="translate(98.632812 0.015625)"/>
      <use xlink:href="#DejaVuSans-71" transform="translate(160.15625 0.015625)"/>
      <use xlink:href="#DejaVuSans-75" transform="translate(223.632812 0.015625)"/>
      <use xlink:href="#DejaVuSans-65" transform="translate(287.011719 0.015625)"/>
      <use xlink:href="#DejaVuSans-6e" transform="translate(348.535156 0.015625)"/>
      <use xlink:href="#DejaVuSans-63" transform="translate(411.914062 0.015625)"/>
      <use xlink:href="#DejaVuSans-79" transform="translate(466.894531 0.015625)"/>
      <use xlink:href="#DejaVuSans-20" transform="translate(526.074219 0.015625)"/>
      <use xlink:href="#DejaVuSans-28" transform="translate(557.861328 0.015625)"/>
      <use xlink:href="#DejaVuSans-48" transform="translate(596.875 0.015625)"/>
      <use xlink:href="#DejaVuSans-7a" transform="translate(672.070312 0.015625)"/>
      <use xlink:href="#DejaVuSans-29" transform="translate(724.560547 0.015625)"/>
      <use xlink:href="#DejaVuSans-2c" transform="translate(763.574219 0.015625)"/>
      <use xlink:href="#DejaVuSans-20" transform="translate(795.361328 0.015625)"/>
      <use xlink:href="#DejaVuSans-Oblique-66" transform="translate(827.148438 0.015625)"/>
     </g>
    </g>
   </g>
   <g id="matplotlib.axis_2">
    <g id="ytick_1">
     <g id="line2d_11">
      <path d="M 48.982813 229.289137 
L 568.8 229.289137 
" clip-path="url(#p4108672183)" style="fill: none; stroke-dasharray: 2.96,1.28; stroke-dashoffset: 0; stroke: #b0b0b0; stroke-opacity: 0.8; stroke-width: 0.8"/>
     </g>
     <g id="line2d_12">
      <defs>
       <path id="mf335488976" d="M 0 0 
L -3.5 0 
" style="stroke: #000000; stroke-width: 0.8"/>
      </defs>
      <g>
       <use xlink:href="#mf335488976" x="48.982813" y="229.289137" style="stroke: #000000; stroke-width: 0.8"/>
      </g>
     </g>
     <g id="text_7">
      <!-- −60 -->
      <g transform="translate(20.878125 233.088356) scale(0.1 -0.1)">
       <defs>
        <path id="DejaVuSans-2212" d="M 678 2272 
L 4684 2272 
L 4684 1741 
L 678 1741 
L 678 2272 
z
" transform="scale(0.015625)"/>
        <path id="DejaVuSans-36" d="M 2113 2584 
Q 1688 2584 1439 2293 
Q 1191 2003 1191 1497 
Q 1191 994 1439 701 
Q 1688 409 2113 409 
Q 2538 409 2786 701 
Q 3034 994 3034 1497 
Q 3034 2003 2786 2293 
Q 2538 2584 2113 2584 
z
M 3366 4563 
L 3366 3988 
Q 3128 4100 2886 4159 
Q 2644 4219 2406 4219 
Q 1781 4219 1451 3797 
Q 1122 3375 1075 2522 
Q 1259 2794 1537 2939 
Q 1816 3084 2150 3084 
Q 2853 3084 3261 2657 
Q 3669 2231 3669 1497 
Q 3669 778 3244 343 
Q 2819 -91 2113 -91 
Q 1303 -91 875 529 
Q 447 1150 447 2328 
Q 447 3434 972 4092 
Q 1497 4750 2381 4750 
Q 2619 4750 2861 4703 
Q 3103 4656 3366 4563 
z
" transform="scale(0.015625)"/>
       </defs>
       <use xlink:href="#DejaVuSans-2212"/>
       <use xlink:href="#DejaVuSans-36" transform="translate(83.789062 0)"/>
       <use xlink:href="#DejaVuSans-30" transform="translate(147.412109 0)"/>
      </g>
     </g>
    </g>
    <g id="ytick_2">
     <g id="line2d_13">
      <path d="M 48.982813 193.761886 
L 568.8 193.761886 
" clip-path="url(#p4108672183)" style="fill: none; stroke-dasharray: 2.96,1.28; stroke-dashoffset: 0; stroke: #b0b0b0; stroke-opacity: 0.8; stroke-width: 0.8"/>
     </g>
     <g id="line2d_14">
      <g>
       <use xlink:href="#mf335488976" x="48.982813" y="193.761886" style="stroke: #000000; stroke-width: 0.8"/>
      </g>
     </g>
     <g id="text_8">
      <!-- −50 -->
      <g transform="translate(20.878125 197.561105) scale(0.1 -0.1)">
       <defs>
        <path id="DejaVuSans-35" d="M 691 4666 
L 3169 4666 
L 3169 4134 
L 1269 4134 
L 1269 2991 
Q 1406 3038 1543 3061 
Q 1681 3084 1819 3084 
Q 2600 3084 3056 2656 
Q 3513 2228 3513 1497 
Q 3513 744 3044 326 
Q 2575 -91 1722 -91 
Q 1428 -91 1123 -41 
Q 819 9 494 109 
L 494 744 
Q 775 591 1075 516 
Q 1375 441 1709 441 
Q 2250 441 2565 725 
Q 2881 1009 2881 1497 
Q 2881 1984 2565 2268 
Q 2250 2553 1709 2553 
Q 1456 2553 1204 2497 
Q 953 2441 691 2322 
L 691 4666 
z
" transform="scale(0.015625)"/>
       </defs>
       <use xlink:href="#DejaVuSans-2212"/>
       <use xlink:href="#DejaVuSans-35" transform="translate(83.789062 0)"/>
       <use xlink:href="#DejaVuSans-30" transform="translate(147.412109 0)"/>
      </g>
     </g>
    </g>
    <g id="ytick_3">
     <g id="line2d_15">
      <path d="M 48.982813 158.234635 
L 568.8 158.234635 
" clip-path="url(#p4108672183)" style="fill: none; stroke-dasharray: 2.96,1.28; stroke-dashoffset: 0; stroke: #b0b0b0; stroke-opacity: 0.8; stroke-width: 0.8"/>
     </g>
     <g id="line2d_16">
      <g>
       <use xlink:href="#mf335488976" x="48.982813" y="158.234635" style="stroke: #000000; stroke-width: 0.8"/>
      </g>
     </g>
     <g id="text_9">
      <!-- −40 -->
      <g transform="translate(20.878125 162.033854) scale(0.1 -0.1)">
       <defs>
        <path id="DejaVuSans-34" d="M 2419 4116 
L 825 1625 
L 2419 1625 
L 2419 4116 
z
M 2253 4666 
L 3047 4666 
L 3047 1625 
L 3713 1625 
L 3713 1100 
L 3047 1100 
L 3047 0 
L 2419 0 
L 2419 1100 
L 313 1100 
L 313 1709 
L 2253 4666 
z
" transform="scale(0.015625)"/>
       </defs>
       <use xlink:href="#DejaVuSans-2212"/>
       <use xlink:href="#DejaVuSans-34" transform="translate(83.789062 0)"/>
       <use xlink:href="#DejaVuSans-30" transform="translate(147.412109 0)"/>
      </g>
     </g>
    </g>
    <g id="ytick_4">
     <g id="line2d_17">
      <path d="M 48.982813 122.707384 
L 568.8 122.707384 
" clip-path="url(#p4108672183)" style="fill: none; stroke-dasharray: 2.96,1.28; stroke-dashoffset: 0; stroke: #b0b0b0; stroke-opacity: 0.8; stroke-width: 0.8"/>
     </g>
     <g id="line2d_18">
      <g>
       <use xlink:href="#mf335488976" x="48.982813" y="122.707384" style="stroke: #000000; stroke-width: 0.8"/>
      </g>
     </g>
     <g id="text_10">
      <!-- −30 -->
      <g transform="translate(20.878125 126.506603) scale(0.1 -0.1)">
       <defs>
        <path id="DejaVuSans-33" d="M 2597 2516 
Q 3050 2419 3304 2112 
Q 3559 1806 3559 1356 
Q 3559 666 3084 287 
Q 2609 -91 1734 -91 
Q 1441 -91 1130 -33 
Q 819 25 488 141 
L 488 750 
Q 750 597 1062 519 
Q 1375 441 1716 441 
Q 2309 441 2620 675 
Q 2931 909 2931 1356 
Q 2931 1769 2642 2001 
Q 2353 2234 1838 2234 
L 1294 2234 
L 1294 2753 
L 1863 2753 
Q 2328 2753 2575 2939 
Q 2822 3125 2822 3475 
Q 2822 3834 2567 4026 
Q 2313 4219 1838 4219 
Q 1578 4219 1281 4162 
Q 984 4106 628 3988 
L 628 4550 
Q 988 4650 1302 4700 
Q 1616 4750 1894 4750 
Q 2613 4750 3031 4423 
Q 3450 4097 3450 3541 
Q 3450 3153 3228 2886 
Q 3006 2619 2597 2516 
z
" transform="scale(0.015625)"/>
       </defs>
       <use xlink:href="#DejaVuSans-2212"/>
       <use xlink:href="#DejaVuSans-33" transform="translate(83.789062 0)"/>
       <use xlink:href="#DejaVuSans-30" transform="translate(147.412109 0)"/>
      </g>
     </g>
    </g>
    <g id="ytick_5">
     <g id="line2d_19">
      <path d="M 48.982813 87.180133 
L 568.8 87.180133 
" clip-path="url(#p4108672183)" style="fill: none; stroke-dasharray: 2.96,1.28; stroke-dashoffset: 0; stroke: #b0b0b0; stroke-opacity: 0.8; stroke-width: 0.8"/>
     </g>
     <g id="line2d_20">
      <g>
       <use xlink:href="#mf335488976" x="48.982813" y="87.180133" style="stroke: #000000; stroke-width: 0.8"/>
      </g>
     </g>
     <g id="text_11">
      <!-- −20 -->
      <g transform="translate(20.878125 90.979352) scale(0.1 -0.1)">
       <use xlink:href="#DejaVuSans-2212"/>
       <use xlink:href="#DejaVuSans-32" transform="translate(83.789062 0)"/>
       <use xlink:href="#DejaVuSans-30" transform="translate(147.412109 0)"/>
      </g>
     </g>
    </g>
    <g id="ytick_6">
     <g id="line2d_21">
      <path d="M 48.982813 51.652883 
L 568.8 51.652883 
" clip-path="url(#p4108672183)" style="fill: none; stroke-dasharray: 2.96,1.28; stroke-dashoffset: 0; stroke: #b0b0b0; stroke-opacity: 0.8; stroke-width: 0.8"/>
     </g>
     <g id="line2d_22">
      <g>
       <use xlink:href="#mf335488976" x="48.982813" y="51.652883" style="stroke: #000000; stroke-width: 0.8"/>
      </g>
     </g>
     <g id="text_12">
      <!-- −10 -->
      <g transform="translate(20.878125 55.452101) scale(0.1 -0.1)">
       <use xlink:href="#DejaVuSans-2212"/>
       <use xlink:href="#DejaVuSans-31" transform="translate(83.789062 0)"/>
       <use xlink:href="#DejaVuSans-30" transform="translate(147.412109 0)"/>
      </g>
     </g>
    </g>
    <g id="text_13">
     <!-- Power density (dB/Hz) -->
     <g transform="translate(14.798437 191.570938) rotate(-90) scale(0.1 -0.1)">
      <defs>
       <path id="DejaVuSans-50" d="M 1259 4147 
L 1259 2394 
L 2053 2394 
Q 2494 2394 2734 2622 
Q 2975 2850 2975 3272 
Q 2975 3691 2734 3919 
Q 2494 4147 2053 4147 
L 1259 4147 
z
M 628 4666 
L 2053 4666 
Q 2838 4666 3239 4311 
Q 3641 3956 3641 3272 
Q 3641 2581 3239 2228 
Q 2838 1875 2053 1875 
L 1259 1875 
L 1259 0 
L 628 0 
L 628 4666 
z
" transform="scale(0.015625)"/>
       <path id="DejaVuSans-6f" d="M 1959 3097 
Q 1497 3097 1228 2736 
Q 959 2375 959 1747 
Q 959 1119 1226 758 
Q 1494 397 1959 397 
Q 2419 397 2687 759 
Q 2956 1122 2956 1747 
Q 2956 2369 2687 2733 
Q 2419 3097 1959 3097 
z
M 1959 3584 
Q 2709 3584 3137 3096 
Q 3566 2609 3566 1747 
Q 3566 888 3137 398 
Q 2709 -91 1959 -91 
Q 1206 -91 779 398 
Q 353 888 353 1747 
Q 353 2609 779 3096 
Q 1206 3584 1959 3584 
z
" transform="scale(0.015625)"/>
       <path id="DejaVuSans-77" d="M 269 3500 
L 844 3500 
L 1563 769 
L 2278 3500 
L 2956 3500 
L 3675 769 
L 4391 3500 
L 4966 3500 
L 4050 0 
L 3372 0 
L 2619 2869 
L 1863 0 
L 1184 0 
L 269 3500 
z
" transform="scale(0.015625)"/>
       <path id="DejaVuSans-64" d="M 2906 2969 
L 2906 4863 
L 3481 4863 
L 3481 0 
L 2906 0 
L 2906 525 
Q 2725 213 2448 61 
Q 2172 -91 1784 -91 
Q 1150 -91 751 415 
Q 353 922 353 1747 
Q 353 2572 751 3078 
Q 1150 3584 1784 3584 
Q 2172 3584 2448 3432 
Q 2725 3281 2906 2969 
z
M 947 1747 
Q 947 1113 1208 752 
Q 1469 391 1925 391 
Q 2381 391 2643 752 
Q 2906 1113 2906 1747 
Q 2906 2381 2643 2742 
Q 2381 3103 1925 3103 
Q 1469 3103 1208 2742 
Q 947 2381 947 1747 
z
" transform="scale(0.015625)"/>
       <path id="DejaVuSans-73" d="M 2834 3397 
L 2834 2853 
Q 2591 2978 2328 3040 
Q 2066 3103 1784 3103 
Q 1356 3103 1142 2972 
Q 928 2841 928 2578 
Q 928 2378 1081 2264 
Q 1234 2150 1697 2047 
L 1894 2003 
Q 2506 1872 2764 1633 
Q 3022 1394 3022 966 
Q 3022 478 2636 193 
Q 2250 -91 1575 -91 
Q 1294 -91 989 -36 
Q 684 19 347 128 
L 347 722 
Q 666 556 975 473 
Q 1284 391 1588 391 
Q 1994 391 2212 530 
Q 2431 669 2431 922 
Q 2431 1156 2273 1281 
Q 2116 1406 1581 1522 
L 1381 1569 
Q 847 1681 609 1914 
Q 372 2147 372 2553 
Q 372 3047 722 3315 
Q 1072 3584 1716 3584 
Q 2034 3584 2315 3537 
Q 2597 3491 2834 3397 
z
" transform="scale(0.015625)"/>
       <path id="DejaVuSans-69" d="M 603 3500 
L 1178 3500 
L 1178 0 
L 603 0 
L 603 3500 
z
M 603 4863 
L 1178 4863 
L 1178 4134 
L 603 4134 
L 603 4863 
z
" transform="scale(0.015625)"/>
       <path id="DejaVuSans-74" d="M 1172 4494 
L 1172 3500 
L 2356 3500 
L 2356 3053 
L 1172 3053 
L 1172 1153 
Q 1172 725 1289 603 
Q 1406 481 1766 481 
L 2356 481 
L 2356 0 
L 1766 0 
Q 1100 0 847 248 
Q 594 497 594 1153 
L 594 3053 
L 172 3053 
L 172 3500 
L 594 3500 
L 594 4494 
L 1172 4494 
z
" transform="scale(0.015625)"/>
       <path id="DejaVuSans-42" d="M 1259 2228 
L 1259 519 
L 2272 519 
Q 2781 519 3026 730 
Q 3272 941 3272 1375 
Q 3272 1813 3026 2020 
Q 2781 2228 2272 2228 
L 1259 2228 
z
M 1259 4147 
L 1259 2741 
L 2194 2741 
Q 2656 2741 2882 2914 
Q 3109 3088 3109 3444 
Q 3109 3797 2882 3972 
Q 2656 4147 2194 4147 
L 1259 4147 
z
M 628 4666 
L 2241 4666 
Q 2963 4666 3353 4366 
Q 3744 4066 3744 3513 
Q 3744 3084 3544 2831 
Q 3344 2578 2956 2516 
Q 3422 2416 3680 2098 
Q 3938 1781 3938 1306 
Q 3938 681 3513 340 
Q 3088 0 2303 0 
L 628 0 
L 628 4666 
z
" transform="scale(0.015625)"/>
       <path id="DejaVuSans-2f" d="M 1625 4666 
L 2156 4666 
L 531 -594 
L 0 -594 
L 1625 4666 
z
" transform="scale(0.015625)"/>
      </defs>
      <use xlink:href="#DejaVuSans-50"/>
      <use xlink:href="#DejaVuSans-6f" transform="translate(56.677734 0)"/>
      <use xlink:href="#DejaVuSans-77" transform="translate(117.859375 0)"/>
      <use xlink:href="#DejaVuSans-65" transform="translate(199.646484 0)"/>
      <use xlink:href="#DejaVuSans-72" transform="translate(261.169922 0)"/>
      <use xlink:href="#DejaVuSans-20" transform="translate(302.283203 0)"/>
      <use xlink:href="#DejaVuSans-64" transform="translate(334.070312 0)"/>
      <use xlink:href="#DejaVuSans-65" transform="translate(397.546875 0)"/>
      <use xlink:href="#DejaVuSans-6e" transform="translate(459.070312 0)"/>
      <use xlink:href="#DejaVuSans-73" transform="translate(522.449219 0)"/>
      <use xlink:href="#DejaVuSans-69" transform="translate(574.548828 0)"/>
      <use xlink:href="#DejaVuSans-74" transform="translate(602.332031 0)"/>
      <use xlink:href="#DejaVuSans-79" transform="translate(641.541016 0)"/>
      <use xlink:href="#DejaVuSans-20" transform="translate(700.720703 0)"/>
      <use xlink:href="#DejaVuSans-28" transform="translate(732.507812 0)"/>
      <use xlink:href="#DejaVuSans-64" transform="translate(771.521484 0)"/>
      <use xlink:href="#DejaVuSans-42" transform="translate(834.998047 0)"/>
      <use xlink:href="#DejaVuSans-2f" transform="translate(903.601562 0)"/>
      <use xlink:href="#DejaVuSans-48" transform="translate(937.292969 0)"/>
      <use xlink:href="#DejaVuSans-7a" transform="translate(1012.488281 0)"/>
      <use xlink:href="#DejaVuSans-29" transform="translate(1064.978516 0)"/>
     </g>
    </g>
   </g>
   <g id="line2d_23">
    <path d="M 72.610866 210.825812 
L 73.765144 218.166766 
L 73.995999 217.743666 
L 74.45771 214.145745 
L 75.150276 207.635173 
L 75.611987 205.212929 
L 75.842843 204.769171 
L 76.073698 204.837576 
L 76.304553 205.393988 
L 76.766264 207.74727 
L 77.689686 213.318701 
L 77.920542 213.64015 
L 78.151397 213.328034 
L 78.613108 211.509447 
L 79.305674 208.82977 
L 79.767385 208.058772 
L 80.459951 207.519661 
L 80.921662 206.645154 
L 82.075939 203.502439 
L 82.306795 203.293738 
L 82.53765 203.341352 
L 82.768506 203.653166 
L 83.230217 205.006561 
L 83.922783 208.276131 
L 85.07706 214.815868 
L 85.769626 220.013419 
L 87.847325 238.003511 
L 88.309036 239.79844 
L 88.539892 240.053608 
L 88.770747 239.695711 
L 89.001603 238.654125 
L 89.463313 234.855162 
L 90.848446 221.613065 
L 91.541012 217.075952 
L 92.233579 213.751938 
L 92.695289 212.265532 
L 93.157 211.549249 
L 93.387856 211.541252 
L 93.618711 211.796283 
L 93.849567 212.329937 
L 94.311278 214.235755 
L 95.465555 220.341959 
L 95.69641 220.27598 
L 95.927266 219.372728 
L 96.388976 215.662675 
L 97.312398 207.431184 
L 97.774109 205.041286 
L 98.004965 204.400744 
L 98.23582 204.125632 
L 98.466675 204.20312 
L 98.697531 204.61476 
L 99.159242 206.339633 
L 99.851808 210.642643 
L 101.467796 221.833027 
L 101.929507 223.840747 
L 102.391218 225.04271 
L 102.852929 225.529277 
L 103.31464 225.517393 
L 103.77635 225.151987 
L 104.238061 224.410534 
L 104.930628 222.618806 
L 105.623194 220.786938 
L 106.084905 219.987403 
L 107.470037 218.341372 
L 108.162604 216.89956 
L 109.778592 213.384054 
L 110.240303 212.843653 
L 110.702014 212.665817 
L 112.087146 212.654718 
L 112.548857 212.237898 
L 113.010568 211.520176 
L 113.472279 210.428695 
L 114.395701 207.274615 
L 114.857411 205.903554 
L 115.088267 205.490941 
L 115.319122 205.332366 
L 115.549978 205.465389 
L 115.780833 205.911245 
L 116.242544 207.723895 
L 117.396821 213.909591 
L 117.627677 214.186395 
L 117.858532 213.879985 
L 118.320243 211.996552 
L 119.012809 208.858181 
L 119.243665 208.311854 
L 119.47452 208.145027 
L 119.705376 208.395568 
L 119.936231 209.085238 
L 120.397942 211.798459 
L 121.090508 218.62474 
L 121.552219 223.263541 
L 121.783075 224.688725 
L 122.01393 225.13881 
L 122.244785 224.611266 
L 122.706496 221.697072 
L 123.399063 216.792611 
L 123.860773 214.52539 
L 124.322484 213.182646 
L 124.55334 212.844583 
L 124.784195 212.727777 
L 125.015051 212.832253 
L 125.476762 213.655157 
L 126.169328 215.517808 
L 126.400183 215.807736 
L 126.631039 215.687751 
L 126.861894 215.098498 
L 127.323605 212.824247 
L 128.016171 209.238443 
L 128.247027 208.570949 
L 128.477882 208.282145 
L 128.708738 208.380189 
L 128.939593 208.837925 
L 129.401304 210.550238 
L 130.09387 213.337682 
L 130.555581 214.142534 
L 131.017292 214.230816 
L 131.479003 214.290427 
L 132.171569 214.542655 
L 132.402425 214.370058 
L 132.63328 213.922854 
L 133.094991 212.213168 
L 134.018413 208.347406 
L 134.249268 207.904114 
L 134.480124 207.780403 
L 134.710979 207.98174 
L 135.17269 209.261416 
L 136.557823 214.863359 
L 136.788678 215.189898 
L 137.019533 215.275457 
L 137.250389 215.172741 
L 138.635521 213.863965 
L 139.097232 213.948976 
L 139.558943 214.36417 
L 140.25151 215.470667 
L 140.71322 216.627628 
L 141.174931 218.4816 
L 141.636642 221.50585 
L 142.329208 228.697419 
L 142.790919 233.513394 
L 143.021775 234.540595 
L 143.25263 234.062717 
L 143.714341 229.675573 
L 144.406907 222.200181 
L 144.868618 219.089552 
L 145.561185 216.455149 
L 146.946317 212.000168 
L 147.177173 211.721974 
L 147.408028 211.796439 
L 147.638884 212.282317 
L 147.869739 213.217813 
L 148.33145 216.471772 
L 149.716582 229.615566 
L 149.947438 230.008438 
L 150.178293 229.722544 
L 151.33257 226.57484 
L 151.794281 226.269797 
L 152.255992 226.041781 
L 152.717703 225.370535 
L 153.179414 224.089467 
L 153.641125 222.185088 
L 154.333691 217.997597 
L 155.257113 212.001411 
L 155.718824 210.594683 
L 155.949679 210.514447 
L 156.180535 210.858934 
L 156.642246 212.681191 
L 157.334812 217.193641 
L 158.258234 224.478428 
L 158.9508 232.284882 
L 159.412511 236.683562 
L 159.643366 236.195942 
L 160.105077 229.233714 
L 160.566788 221.688422 
L 161.028499 218.168045 
L 161.49021 217.584349 
L 161.721065 216.388903 
L 162.182776 209.211852 
L 162.644487 202.164629 
L 162.875342 201.59176 
L 163.106198 204.607882 
L 163.337053 213.835496 
L 163.567909 231.258802 
L 164.49133 155.764419 
L 164.953041 136.719917 
L 165.645608 118.417532 
L 166.107318 110.810299 
L 166.569029 106.128966 
L 167.03074 104.087278 
L 167.261596 104.015271 
L 167.492451 104.571053 
L 167.723307 105.760942 
L 168.185017 110.11075 
L 168.646728 117.304993 
L 169.108439 127.82237 
L 169.57015 142.600607 
L 170.031861 163.686959 
L 170.493572 196.192893 
L 170.724427 216.220398 
L 170.955283 219.092309 
L 171.186138 212.02769 
L 171.416994 208.898365 
L 171.647849 209.627465 
L 172.340415 220.380539 
L 172.571271 219.769209 
L 173.263837 210.546156 
L 173.494692 208.917092 
L 173.725548 208.162169 
L 173.956403 208.0493 
L 174.187259 208.343954 
L 174.879825 210.085702 
L 177.188379 216.452939 
L 177.65009 217.073102 
L 177.880946 217.00997 
L 178.111801 216.601908 
L 178.573512 214.662027 
L 179.266078 209.639333 
L 180.1895 202.821925 
L 180.651211 200.780131 
L 180.882066 200.24747 
L 181.112922 200.057079 
L 181.343777 200.206528 
L 181.574633 200.682199 
L 182.036344 202.498321 
L 183.652332 211.087052 
L 184.114043 211.91632 
L 184.575753 212.101532 
L 185.26832 212.219652 
L 185.730031 212.585691 
L 186.191741 213.27738 
L 186.884308 214.904627 
L 187.576874 217.210209 
L 188.26944 220.564551 
L 188.962007 225.598864 
L 189.654573 230.562324 
L 189.885428 231.033681 
L 190.116284 230.485051 
L 190.577995 226.825936 
L 191.501417 217.640832 
L 191.963127 214.602119 
L 192.424838 212.80933 
L 192.655694 212.339168 
L 192.886549 212.13183 
L 193.117405 212.175834 
L 193.34826 212.46377 
L 193.809971 213.757623 
L 194.271682 215.999688 
L 194.964248 221.081579 
L 195.88767 230.35044 
L 196.580236 236.580255 
L 196.811092 237.475352 
L 197.041947 237.380245 
L 197.272802 236.256351 
L 197.734513 231.742633 
L 198.657935 221.267812 
L 199.119646 217.719291 
L 199.581357 215.793248 
L 199.812212 215.453362 
L 200.043068 215.516401 
L 200.273923 215.958758 
L 200.735634 217.802715 
L 201.659056 222.519396 
L 201.889911 222.997707 
L 202.120767 222.905494 
L 202.351622 222.223724 
L 202.813333 219.456895 
L 204.198466 209.018006 
L 204.660176 206.799927 
L 205.121887 205.58101 
L 205.352743 205.349159 
L 205.583598 205.35021 
L 205.814454 205.554369 
L 206.276165 206.38111 
L 206.968731 207.660334 
L 207.199586 207.83455 
L 207.430442 207.828651 
L 207.892153 207.367376 
L 208.584719 206.395338 
L 208.815574 206.239112 
L 209.04643 206.248256 
L 209.277285 206.460455 
L 209.508141 206.908739 
L 209.969851 208.629961 
L 210.431562 211.593149 
L 211.816695 223.072146 
L 212.04755 223.138097 
L 212.278406 222.341749 
L 213.201828 216.984861 
L 213.432683 216.311609 
L 213.663538 216.087315 
L 213.894394 216.296687 
L 214.356105 217.738598 
L 215.048671 220.311691 
L 215.279527 220.574762 
L 215.510382 220.3774 
L 215.972093 218.915338 
L 216.664659 216.274968 
L 217.12637 215.412541 
L 217.357225 215.346363 
L 217.588081 215.507216 
L 218.049792 216.357655 
L 218.742358 217.952433 
L 218.973214 218.201266 
L 219.204069 218.150129 
L 219.434924 217.741779 
L 219.896635 215.880045 
L 221.281768 208.110339 
L 221.743479 206.965494 
L 221.974334 206.850099 
L 222.20519 207.043721 
L 222.666901 208.254386 
L 223.590322 211.644694 
L 223.821178 211.96017 
L 224.052033 211.894637 
L 224.513744 210.899118 
L 224.975455 209.711207 
L 225.20631 209.396524 
L 225.437166 209.394962 
L 225.668021 209.759184 
L 225.898877 210.511908 
L 226.360588 213.128638 
L 227.514865 221.552329 
L 227.74572 222.225873 
L 227.976576 222.342737 
L 228.207431 222.021482 
L 229.130853 219.745698 
L 229.361708 219.488299 
L 229.592564 219.429758 
L 229.823419 219.554848 
L 230.28513 220.217271 
L 231.208552 221.814838 
L 231.439407 221.992225 
L 231.670263 222.026633 
L 232.131973 221.712307 
L 233.747962 219.903383 
L 234.209672 219.267195 
L 234.671383 218.225363 
L 235.594805 215.856288 
L 236.056516 215.366678 
L 236.287371 215.406883 
L 236.518227 215.635796 
L 236.979938 216.565023 
L 238.134215 219.408758 
L 238.36507 219.588927 
L 238.595926 219.521009 
L 238.826781 219.19171 
L 239.288492 217.851262 
L 240.211914 214.398288 
L 240.673625 213.54524 
L 240.90448 213.545143 
L 241.135335 213.871741 
L 241.597046 215.506274 
L 242.520468 220.009065 
L 242.751324 220.024054 
L 242.982179 219.1245 
L 243.44389 215.122252 
L 244.367312 206.331426 
L 244.829022 204.054264 
L 245.059878 203.56019 
L 245.290733 203.473231 
L 245.521589 203.76202 
L 245.9833 205.300014 
L 246.675866 209.268981 
L 247.599288 216.146359 
L 249.215276 229.83843 
L 249.446131 230.620812 
L 249.676987 230.784314 
L 249.907842 230.424052 
L 250.600408 227.969158 
L 251.062119 226.539331 
L 251.754686 225.2414 
L 252.216396 224.164046 
L 252.678107 222.155273 
L 254.06324 214.564393 
L 254.294095 214.230214 
L 254.524951 214.368824 
L 254.755806 215.005221 
L 255.217517 217.700641 
L 255.910083 223.12703 
L 256.140939 223.952214 
L 256.371794 223.661871 
L 256.60265 222.278608 
L 257.987782 210.404556 
L 258.218638 209.608207 
L 258.449493 209.237693 
L 258.680349 209.264249 
L 258.911204 209.649443 
L 259.372915 211.293929 
L 260.988903 218.906513 
L 262.14318 222.650454 
L 262.835747 225.183556 
L 263.066602 225.651094 
L 263.297457 225.764837 
L 263.528313 225.511571 
L 263.990024 224.235752 
L 264.68259 222.274713 
L 265.144301 221.695639 
L 265.606012 221.250288 
L 265.836867 220.754439 
L 266.298578 218.66962 
L 266.991144 213.308325 
L 267.683711 208.240367 
L 268.145422 206.184283 
L 268.607132 205.33778 
L 268.837988 205.30417 
L 269.299699 205.758411 
L 270.223121 207.100757 
L 272.300819 209.184857 
L 272.76253 209.994765 
L 273.224241 211.204383 
L 273.685952 212.995 
L 274.609374 217.981475 
L 275.071085 220.216253 
L 275.30194 220.891592 
L 275.532796 221.114834 
L 275.763651 220.824178 
L 276.225362 218.880558 
L 277.148784 213.764432 
L 277.379639 213.046196 
L 277.610495 212.699604 
L 277.84135 212.741727 
L 278.072205 213.163365 
L 278.533916 214.979788 
L 279.688193 220.653613 
L 279.919049 221.055408 
L 280.149904 221.080314 
L 280.38076 220.764958 
L 280.842471 219.377557 
L 281.996748 214.974146 
L 282.458459 214.249605 
L 282.689314 214.290218 
L 282.92017 214.623488 
L 283.38188 216.184727 
L 283.843591 218.868636 
L 284.767013 225.063 
L 284.997869 225.629266 
L 285.228724 225.43623 
L 285.690435 223.297781 
L 286.383001 219.393132 
L 286.844712 217.699467 
L 287.537278 215.992061 
L 287.998989 215.177822 
L 288.229845 214.971695 
L 288.4607 214.969986 
L 288.691556 215.212773 
L 289.153266 216.496889 
L 290.307544 221.580108 
L 290.538399 221.69709 
L 290.769254 221.252163 
L 291.461821 218.243122 
L 293.077809 211.550376 
L 293.308664 211.04218 
L 293.53952 210.985619 
L 293.770375 211.39856 
L 294.462941 213.799737 
L 294.693797 214.055222 
L 294.924652 213.776938 
L 296.309785 209.987756 
L 296.54064 209.604244 
L 296.771496 209.498677 
L 297.002351 209.890651 
L 297.233207 210.919224 
L 297.694918 214.010994 
L 297.925773 214.541095 
L 298.156628 213.359396 
L 298.849195 207.187005 
L 299.08005 207.688472 
L 299.310906 210.475696 
L 300.003472 224.389236 
L 300.696038 208.479084 
L 300.926894 208.664489 
L 301.157749 213.852712 
L 301.388605 224.143414 
L 301.61946 223.137005 
L 302.081171 191.213817 
L 302.542882 177.418541 
L 302.773737 176.543422 
L 303.004593 180.381916 
L 303.466303 206.755227 
L 304.15887 154.051329 
L 304.389725 146.701934 
L 304.620581 143.75258 
L 304.851436 146.069197 
L 305.082292 158.073776 
L 305.313147 209.802668 
L 305.544002 146.043626 
L 306.005713 100.869359 
L 306.467424 76.770878 
L 307.15999 54.097602 
L 307.852557 40.674489 
L 308.314268 35.515805 
L 308.775979 33.000521 
L 309.006834 32.688267 
L 309.237689 32.998509 
L 309.468545 33.934902 
L 309.930256 37.740406 
L 310.391967 44.308793 
L 310.853677 54.055851 
L 311.315388 67.796082 
L 311.777099 87.320885 
L 312.23881 118.059243 
L 312.469666 144.841832 
L 312.700521 214.438595 
L 312.931376 159.892672 
L 313.162232 147.126477 
L 313.393087 144.569544 
L 313.623943 147.414604 
L 313.854798 154.738194 
L 314.085654 167.320717 
L 314.316509 188.848382 
L 314.547364 223.807013 
L 315.009075 184.887453 
L 315.239931 180.580579 
L 315.470786 181.746585 
L 315.701642 187.507298 
L 315.932497 198.402391 
L 316.394208 228.139872 
L 316.855919 204.710656 
L 317.086774 200.429606 
L 317.31763 200.290281 
L 317.548485 203.380794 
L 318.241051 218.776518 
L 318.471907 217.705051 
L 318.933618 213.516289 
L 319.164473 213.920178 
L 319.85704 220.255638 
L 320.087895 219.465295 
L 320.780461 212.894175 
L 321.011317 212.403969 
L 321.242172 212.86613 
L 321.703883 214.809519 
L 321.934738 215.306742 
L 322.165594 215.270644 
L 322.627305 214.795011 
L 322.85816 214.930911 
L 323.550726 216.298765 
L 323.781582 216.30508 
L 324.243293 215.419516 
L 324.705004 214.692146 
L 324.935859 214.712728 
L 325.39757 215.399998 
L 326.090136 217.140956 
L 327.013558 219.616656 
L 327.244413 219.764305 
L 327.475269 219.646292 
L 327.93698 219.20218 
L 328.167835 219.244403 
L 328.398691 219.633321 
L 328.860402 221.467902 
L 329.783823 225.900241 
L 330.245534 226.683837 
L 330.47639 226.71016 
L 330.707245 226.523784 
L 330.9381 226.119044 
L 331.399811 224.652708 
L 333.708366 215.092571 
L 334.170077 214.251239 
L 334.400932 214.073596 
L 334.631787 214.0843 
L 334.862643 214.307825 
L 335.093498 214.770654 
L 335.555209 216.495072 
L 336.247776 220.799513 
L 336.709486 223.512708 
L 336.940342 224.182502 
L 337.171197 224.153095 
L 337.402053 223.419499 
L 337.863764 220.545498 
L 338.55633 216.043331 
L 339.018041 214.37885 
L 339.248896 214.011893 
L 339.479752 213.897324 
L 339.941463 214.118342 
L 340.403173 214.356812 
L 340.634029 214.284741 
L 340.864884 214.009403 
L 341.326595 212.787881 
L 342.250017 209.652351 
L 342.480872 209.458838 
L 342.711728 209.706954 
L 342.942583 210.418815 
L 343.404294 213.024124 
L 344.327716 220.291748 
L 345.251138 229.150309 
L 345.481993 229.279839 
L 345.712848 227.781631 
L 346.174559 223.468696 
L 346.405415 222.171657 
L 347.097981 220.570764 
L 347.559692 216.276256 
L 348.021403 212.798237 
L 348.252258 213.166551 
L 348.713969 216.943563 
L 348.944825 215.730836 
L 349.868246 194.352302 
L 350.099102 194.341953 
L 350.329957 198.111991 
L 350.791668 210.25688 
L 351.484234 172.149128 
L 351.71509 166.022248 
L 351.945945 164.067044 
L 352.176801 167.572224 
L 352.407656 182.010552 
L 352.638512 213.410344 
L 352.869367 160.951554 
L 353.331078 119.434708 
L 353.792789 96.284988 
L 354.485355 74.343125 
L 354.947066 64.914523 
L 355.408777 58.62368 
L 355.870488 55.073569 
L 356.101343 54.260362 
L 356.332199 54.071874 
L 356.563054 54.505498 
L 356.793909 55.566118 
L 357.25562 59.627762 
L 357.717331 66.472771 
L 358.179042 76.534556 
L 358.640753 90.660058 
L 359.102464 110.719833 
L 359.564175 142.458101 
L 359.79503 170.462794 
L 360.025886 219.118901 
L 360.256741 180.504748 
L 360.487596 169.786768 
L 360.718452 168.214577 
L 360.949307 171.885347 
L 361.180163 180.055894 
L 361.872729 216.560607 
L 362.33444 199.599608 
L 362.565295 198.073728 
L 362.796151 200.371732 
L 363.488717 218.174388 
L 363.719573 217.443146 
L 364.181283 210.83765 
L 364.412139 210.344304 
L 364.642994 212.30076 
L 365.104705 222.379328 
L 365.335561 227.729843 
L 365.566416 229.046162 
L 366.489838 217.182491 
L 366.720693 216.617777 
L 366.951549 216.826144 
L 367.644115 218.46064 
L 368.336681 219.30832 
L 368.798392 219.567912 
L 369.260103 219.232513 
L 369.490958 219.017706 
L 369.721814 218.968166 
L 369.952669 219.190315 
L 370.41438 220.459344 
L 371.106947 222.862776 
L 372.722935 226.92845 
L 372.95379 227.087613 
L 373.184645 226.948967 
L 373.646356 226.106833 
L 374.800634 223.540889 
L 375.262344 221.825698 
L 376.185766 217.873139 
L 376.647477 216.911004 
L 376.878332 216.879554 
L 377.109188 217.167124 
L 377.570899 218.60281 
L 378.494321 222.483543 
L 378.725176 222.879897 
L 378.956031 222.820753 
L 379.186887 222.297776 
L 379.648598 220.160476 
L 380.802875 213.735642 
L 381.264586 212.331116 
L 381.495441 211.970906 
L 381.726297 211.817375 
L 381.957152 211.840522 
L 382.418863 212.267974 
L 383.57314 213.790411 
L 383.803996 213.870463 
L 384.034851 213.785142 
L 384.265706 213.512882 
L 384.727417 212.470049 
L 385.419984 210.731061 
L 385.650839 210.503135 
L 385.881694 210.604698 
L 386.11255 211.100119 
L 386.574261 213.38415 
L 387.728538 221.401304 
L 387.959393 221.173989 
L 388.190249 220.027814 
L 389.113671 213.277218 
L 389.575381 211.806253 
L 389.806237 211.784314 
L 390.037092 212.212996 
L 390.498803 214.181749 
L 391.422225 218.878328 
L 391.65308 219.246824 
L 391.883936 219.182669 
L 392.576502 218.146675 
L 392.807358 218.213908 
L 393.038213 218.764035 
L 393.269068 219.908846 
L 393.730779 224.284315 
L 394.654201 238.247311 
L 394.885057 238.917632 
L 395.115912 236.929916 
L 396.270189 220.005163 
L 396.7319 216.83632 
L 397.193611 215.423946 
L 397.655322 214.939016 
L 398.117033 214.459313 
L 398.578744 213.232181 
L 399.27131 209.836636 
L 399.963876 206.35804 
L 400.425587 205.060247 
L 400.656442 204.862592 
L 400.887298 204.993017 
L 401.118153 205.452363 
L 401.579864 207.268555 
L 402.734141 213.285656 
L 402.964997 213.763729 
L 403.195852 213.84113 
L 403.426708 213.600972 
L 404.119274 212.431779 
L 404.350129 212.333498 
L 404.580985 212.510164 
L 405.042696 213.661787 
L 405.735262 215.728742 
L 405.966118 215.741346 
L 406.196973 215.176336 
L 406.658684 212.652736 
L 407.35125 208.387996 
L 407.812961 206.819628 
L 408.043816 206.501387 
L 408.274672 206.436923 
L 408.736383 206.768128 
L 409.428949 207.381591 
L 409.89066 207.74958 
L 410.121515 208.095629 
L 410.583226 209.511893 
L 411.044937 212.26209 
L 411.737503 218.953403 
L 412.660925 228.50669 
L 412.891781 229.70808 
L 413.122636 230.048822 
L 413.353491 229.465659 
L 413.815202 225.860447 
L 415.200335 210.616223 
L 415.662046 207.977548 
L 415.892901 207.333473 
L 416.123757 207.133054 
L 416.354612 207.355783 
L 416.585468 207.96813 
L 417.047178 210.149384 
L 418.432311 218.191597 
L 419.586588 222.936178 
L 420.740865 229.132263 
L 420.971721 229.771548 
L 421.202576 229.994911 
L 421.433432 229.786538 
L 421.664287 229.160835 
L 422.125998 226.737565 
L 422.587709 222.883036 
L 424.434552 204.414838 
L 424.896263 201.740596 
L 425.357974 200.168949 
L 425.58883 199.781038 
L 425.819685 199.64696 
L 426.050541 199.757911 
L 426.281396 200.105271 
L 426.743107 201.473668 
L 427.204818 203.666521 
L 427.897384 208.180419 
L 431.360216 233.880698 
L 431.591071 234.466402 
L 431.821926 234.325304 
L 432.052782 233.384008 
L 432.514493 229.418905 
L 433.899625 214.413571 
L 434.361336 211.499218 
L 434.823047 209.937338 
L 435.053903 209.592169 
L 435.284758 209.476745 
L 435.515613 209.537142 
L 435.977324 209.975923 
L 436.900746 211.316944 
L 438.285879 213.654381 
L 438.516734 213.66878 
L 438.74759 213.488752 
L 439.901867 211.753549 
L 440.132722 211.727245 
L 440.363578 211.887322 
L 440.825288 212.673539 
L 441.74871 214.587989 
L 442.210421 214.924794 
L 442.672132 214.773875 
L 443.364698 214.056641 
L 444.518975 212.712961 
L 444.980686 212.479481 
L 445.442397 212.622265 
L 445.904108 213.206531 
L 446.596674 214.744779 
L 447.289241 216.243818 
L 447.520096 216.502281 
L 447.750952 216.576933 
L 447.981807 216.463933 
L 448.443518 215.802325 
L 449.136084 214.646477 
L 449.36694 214.473497 
L 449.597795 214.485004 
L 449.828651 214.707374 
L 450.290361 215.823548 
L 450.752072 217.775686 
L 452.36806 225.870658 
L 452.598916 226.18784 
L 452.829771 226.111761 
L 453.060627 225.654852 
L 453.522338 223.828531 
L 454.90747 216.938902 
L 455.369181 215.769029 
L 455.600036 215.51142 
L 455.830892 215.465304 
L 456.061747 215.609831 
L 456.523458 216.328426 
L 458.139446 219.481371 
L 459.293723 221.484275 
L 459.524579 221.449736 
L 459.755434 221.099648 
L 460.217145 219.527454 
L 461.140567 215.594178 
L 461.602278 214.448828 
L 462.5257 212.926015 
L 462.98741 211.313083 
L 464.372543 204.812897 
L 464.603399 204.454316 
L 464.834254 204.504387 
L 465.065109 205.010206 
L 465.295965 206.007815 
L 465.757676 209.541717 
L 466.911953 221.633903 
L 467.142808 221.722549 
L 467.373664 220.534479 
L 468.527941 211.194456 
L 468.989652 209.515744 
L 469.451363 208.71032 
L 471.067351 206.752173 
L 471.298206 206.799349 
L 471.529062 207.044984 
L 471.990772 208.155458 
L 472.683339 210.94761 
L 473.14505 212.758288 
L 473.375905 213.357061 
L 473.606761 213.643449 
L 473.837616 213.591015 
L 474.068471 213.232205 
L 475.222749 210.250861 
L 475.453604 210.045949 
L 475.684459 210.071682 
L 475.915315 210.316383 
L 476.377026 211.296245 
L 477.069592 212.982445 
L 477.531303 213.596467 
L 478.68558 214.292748 
L 479.609002 215.453036 
L 479.839857 215.486526 
L 480.070713 215.263793 
L 480.301568 214.747149 
L 480.763279 212.918588 
L 481.917556 207.550798 
L 482.379267 206.633956 
L 482.610123 206.569661 
L 482.840978 206.760488 
L 483.302689 207.787783 
L 484.456966 211.314199 
L 484.918677 211.860429 
L 485.380388 211.846901 
L 486.76552 211.278592 
L 487.458087 211.291204 
L 487.919798 211.544666 
L 488.381509 212.151116 
L 488.843219 213.191757 
L 489.535786 215.527813 
L 490.228352 218.73465 
L 490.920918 223.094987 
L 492.075196 231.438318 
L 492.306051 232.337211 
L 492.536906 232.683234 
L 492.767762 232.452075 
L 492.998617 231.692097 
L 493.460328 228.973035 
L 495.076316 217.564812 
L 495.538027 216.377235 
L 495.768883 216.304418 
L 495.999738 216.551894 
L 496.461449 217.784047 
L 497.154015 220.084352 
L 497.615726 220.790441 
L 497.846581 220.765068 
L 498.077437 220.518653 
L 498.539148 219.542646 
L 499.231714 217.325473 
L 500.847702 211.418397 
L 501.540268 209.989634 
L 502.232835 209.218627 
L 503.156256 208.654601 
L 505.233955 207.76251 
L 505.695666 208.133866 
L 506.157377 208.957213 
L 507.080799 211.37405 
L 508.004221 214.183494 
L 508.465932 216.346218 
L 509.158498 221.337751 
L 509.851064 226.410102 
L 510.08192 227.007535 
L 510.312775 226.723299 
L 510.774486 224.092312 
L 511.467052 219.330979 
L 511.928763 217.709669 
L 512.159619 217.512652 
L 512.390474 217.700458 
L 512.852185 218.998461 
L 513.775607 222.388802 
L 514.006462 222.758197 
L 514.237317 222.849279 
L 514.468173 222.716073 
L 515.62245 221.461524 
L 516.084161 221.472798 
L 516.545872 221.814988 
L 517.007583 222.463466 
L 517.469294 223.443545 
L 518.854426 227.146748 
L 519.085282 227.370619 
L 519.316137 227.309761 
L 519.546993 226.924955 
L 520.008703 225.203955 
L 521.624691 217.051771 
L 521.855547 216.626668 
L 522.086402 216.490726 
L 522.317258 216.634413 
L 522.778969 217.641618 
L 524.625812 223.600113 
L 525.087523 224.280814 
L 525.318378 224.442517 
L 525.549234 224.452493 
L 525.780089 224.287203 
L 526.2418 223.417365 
L 527.857788 219.159867 
L 528.319499 218.931716 
L 528.78121 219.13633 
L 529.473776 219.50064 
L 529.935487 219.34275 
L 531.089764 218.368748 
L 532.013186 218.244856 
L 532.244042 217.950313 
L 532.705752 216.572438 
L 534.090885 210.159199 
L 534.32174 209.731842 
L 534.552596 209.644619 
L 534.783451 209.911892 
L 535.014307 210.531204 
L 535.476018 212.729467 
L 537.322861 224.036128 
L 538.707994 228.874493 
L 538.938849 229.12917 
L 539.169705 228.879998 
L 539.40056 228.082995 
L 540.093126 223.689206 
L 540.554837 221.080216 
L 540.785693 220.342192 
L 541.016548 220.102825 
L 541.247404 220.418102 
L 541.478259 221.318056 
L 541.93997 224.763249 
L 542.401681 229.027334 
L 542.632536 230.125592 
L 542.863392 229.616279 
L 543.094247 227.421452 
L 544.248524 212.079043 
L 544.710235 209.639235 
L 544.941091 209.419217 
L 545.171946 209.831658 
L 545.171946 209.831658 
" clip-path="url(#p4108672183)" style="fill: none; stroke: #1f77b4; stroke-linecap: square"/>
   </g>
   <g id="patch_3">
    <path d="M 48.982813 250.421875 
L 48.982813 22.32 
" style="fill: none; stroke: #000000; stroke-width: 0.8; stroke-linejoin: miter; stroke-linecap: square"/>
   </g>
   <g id="patch_4">
    <path d="M 568.8 250.421875 
L 568.8 22.32 
" style="fill: none; stroke: #000000; stroke-width: 0.8; stroke-linejoin: miter; stroke-linecap: square"/>
   </g>
   <g id="patch_5">
    <path d="M 48.982813 250.421875 
L 568.8 250.421875 
" style="fill: none; stroke: #000000; stroke-width: 0.8; stroke-linejoin: miter; stroke-linecap: square"/>
   </g>
   <g id="patch_6">
    <path d="M 48.982813 22.32 
L 568.8 22.32 
" style="fill: none; stroke: #000000; stroke-width: 0.8; stroke-linejoin: miter; stroke-linecap: square"/>
   </g>
   <g id="text_14">
    <!-- Periodogram of $x_c[n]$ -->
    <g transform="translate(246.371406 16.32) scale(0.12 -0.12)">
     <defs>
      <path id="DejaVuSans-67" d="M 2906 1791 
Q 2906 2416 2648 2759 
Q 2391 3103 1925 3103 
Q 1463 3103 1205 2759 
Q 947 2416 947 1791 
Q 947 1169 1205 825 
Q 1463 481 1925 481 
Q 2391 481 2648 825 
Q 2906 1169 2906 1791 
z
M 3481 434 
Q 3481 -459 3084 -895 
Q 2688 -1331 1869 -1331 
Q 1566 -1331 1297 -1286 
Q 1028 -1241 775 -1147 
L 775 -588 
Q 1028 -725 1275 -790 
Q 1522 -856 1778 -856 
Q 2344 -856 2625 -561 
Q 2906 -266 2906 331 
L 2906 616 
Q 2728 306 2450 153 
Q 2172 0 1784 0 
Q 1141 0 747 490 
Q 353 981 353 1791 
Q 353 2603 747 3093 
Q 1141 3584 1784 3584 
Q 2172 3584 2450 3431 
Q 2728 3278 2906 2969 
L 2906 3500 
L 3481 3500 
L 3481 434 
z
" transform="scale(0.015625)"/>
      <path id="DejaVuSans-61" d="M 2194 1759 
Q 1497 1759 1228 1600 
Q 959 1441 959 1056 
Q 959 750 1161 570 
Q 1363 391 1709 391 
Q 2188 391 2477 730 
Q 2766 1069 2766 1631 
L 2766 1759 
L 2194 1759 
z
M 3341 1997 
L 3341 0 
L 2766 0 
L 2766 531 
Q 2569 213 2275 61 
Q 1981 -91 1556 -91 
Q 1019 -91 701 211 
Q 384 513 384 1019 
Q 384 1609 779 1909 
Q 1175 2209 1959 2209 
L 2766 2209 
L 2766 2266 
Q 2766 2663 2505 2880 
Q 2244 3097 1772 3097 
Q 1472 3097 1187 3025 
Q 903 2953 641 2809 
L 641 3341 
Q 956 3463 1253 3523 
Q 1550 3584 1831 3584 
Q 2591 3584 2966 3190 
Q 3341 2797 3341 1997 
z
" transform="scale(0.015625)"/>
      <path id="DejaVuSans-6d" d="M 3328 2828 
Q 3544 3216 3844 3400 
Q 4144 3584 4550 3584 
Q 5097 3584 5394 3201 
Q 5691 2819 5691 2113 
L 5691 0 
L 5113 0 
L 5113 2094 
Q 5113 2597 4934 2840 
Q 4756 3084 4391 3084 
Q 3944 3084 3684 2787 
Q 3425 2491 3425 1978 
L 3425 0 
L 2847 0 
L 2847 2094 
Q 2847 2600 2669 2842 
Q 2491 3084 2119 3084 
Q 1678 3084 1418 2786 
Q 1159 2488 1159 1978 
L 1159 0 
L 581 0 
L 581 3500 
L 1159 3500 
L 1159 2956 
Q 1356 3278 1631 3431 
Q 1906 3584 2284 3584 
Q 2666 3584 2933 3390 
Q 3200 3197 3328 2828 
z
" transform="scale(0.015625)"/>
      <path id="DejaVuSans-66" d="M 2375 4863 
L 2375 4384 
L 1825 4384 
Q 1516 4384 1395 4259 
Q 1275 4134 1275 3809 
L 1275 3500 
L 2222 3500 
L 2222 3053 
L 1275 3053 
L 1275 0 
L 697 0 
L 697 3053 
L 147 3053 
L 147 3500 
L 697 3500 
L 697 3744 
Q 697 4328 969 4595 
Q 1241 4863 1831 4863 
L 2375 4863 
z
" transform="scale(0.015625)"/>
      <path id="DejaVuSans-Oblique-78" d="M 3841 3500 
L 2234 1784 
L 3219 0 
L 2559 0 
L 1819 1388 
L 531 0 
L -166 0 
L 1556 1844 
L 641 3500 
L 1300 3500 
L 1972 2234 
L 3144 3500 
L 3841 3500 
z
" transform="scale(0.015625)"/>
      <path id="DejaVuSans-Oblique-63" d="M 3431 3366 
L 3316 2797 
Q 3109 2947 2876 3022 
Q 2644 3097 2394 3097 
Q 2119 3097 1870 3000 
Q 1622 2903 1453 2725 
Q 1184 2453 1037 2087 
Q 891 1722 891 1331 
Q 891 859 1127 628 
Q 1363 397 1844 397 
Q 2081 397 2348 469 
Q 2616 541 2906 684 
L 2797 116 
Q 2547 13 2283 -39 
Q 2019 -91 1741 -91 
Q 1044 -91 669 257 
Q 294 606 294 1253 
Q 294 1797 489 2255 
Q 684 2713 1069 3078 
Q 1331 3328 1684 3456 
Q 2038 3584 2456 3584 
Q 2700 3584 2940 3529 
Q 3181 3475 3431 3366 
z
" transform="scale(0.015625)"/>
      <path id="DejaVuSans-5b" d="M 550 4863 
L 1875 4863 
L 1875 4416 
L 1125 4416 
L 1125 -397 
L 1875 -397 
L 1875 -844 
L 550 -844 
L 550 4863 
z
" transform="scale(0.015625)"/>
      <path id="DejaVuSans-Oblique-6e" d="M 3566 2113 
L 3156 0 
L 2578 0 
L 2988 2091 
Q 3016 2238 3031 2350 
Q 3047 2463 3047 2528 
Q 3047 2791 2881 2937 
Q 2716 3084 2419 3084 
Q 1956 3084 1622 2776 
Q 1288 2469 1184 1941 
L 800 0 
L 225 0 
L 903 3500 
L 1478 3500 
L 1363 2950 
Q 1603 3253 1940 3418 
Q 2278 3584 2650 3584 
Q 3113 3584 3367 3334 
Q 3622 3084 3622 2631 
Q 3622 2519 3608 2391 
Q 3594 2263 3566 2113 
z
" transform="scale(0.015625)"/>
      <path id="DejaVuSans-5d" d="M 1947 4863 
L 1947 -844 
L 622 -844 
L 622 -397 
L 1369 -397 
L 1369 4416 
L 622 4416 
L 622 4863 
L 1947 4863 
z
" transform="scale(0.015625)"/>
     </defs>
     <use xlink:href="#DejaVuSans-50" transform="translate(0 0.015625)"/>
     <use xlink:href="#DejaVuSans-65" transform="translate(60.302734 0.015625)"/>
     <use xlink:href="#DejaVuSans-72" transform="translate(121.826172 0.015625)"/>
     <use xlink:href="#DejaVuSans-69" transform="translate(162.939453 0.015625)"/>
     <use xlink:href="#DejaVuSans-6f" transform="translate(190.722656 0.015625)"/>
     <use xlink:href="#DejaVuSans-64" transform="translate(251.904297 0.015625)"/>
     <use xlink:href="#DejaVuSans-6f" transform="translate(315.380859 0.015625)"/>
     <use xlink:href="#DejaVuSans-67" transform="translate(376.5625 0.015625)"/>
     <use xlink:href="#DejaVuSans-72" transform="translate(440.039062 0.015625)"/>
     <use xlink:href="#DejaVuSans-61" transform="translate(481.152344 0.015625)"/>
     <use xlink:href="#DejaVuSans-6d" transform="translate(542.431641 0.015625)"/>
     <use xlink:href="#DejaVuSans-20" transform="translate(639.84375 0.015625)"/>
     <use xlink:href="#DejaVuSans-6f" transform="translate(671.630859 0.015625)"/>
     <use xlink:href="#DejaVuSans-66" transform="translate(732.8125 0.015625)"/>
     <use xlink:href="#DejaVuSans-20" transform="translate(768.017578 0.015625)"/>
     <use xlink:href="#DejaVuSans-Oblique-78" transform="translate(799.804688 0.015625)"/>
     <use xlink:href="#DejaVuSans-Oblique-63" transform="translate(858.984375 -16.390625) scale(0.7)"/>
     <use xlink:href="#DejaVuSans-5b" transform="translate(900.205078 0.015625)"/>
     <use xlink:href="#DejaVuSans-Oblique-6e" transform="translate(939.21875 0.015625)"/>
     <use xlink:href="#DejaVuSans-5d" transform="translate(1002.597656 0.015625)"/>
    </g>
   </g>
  </g>
 </g>
 <defs>
  <clipPath id="p4108672183">
   <rect x="48.982813" y="22.32" width="519.817188" height="228.101875"/>
  </clipPath>
 </defs>
</svg>
