<?xml version="1.0" encoding="utf-8" standalone="no"?>
<!DOCTYPE svg PUBLIC "-//W3C//DTD SVG 1.1//EN"
  "http://www.w3.org/Graphics/SVG/1.1/DTD/svg11.dtd">
<svg xmlns:xlink="http://www.w3.org/1999/xlink" width="576pt" height="288pt" viewBox="0 0 576 288" xmlns="http://www.w3.org/2000/svg" version="1.1">
 <metadata>
  <rdf:RDF xmlns:dc="http://purl.org/dc/elements/1.1/" xmlns:cc="http://creativecommons.org/ns#" xmlns:rdf="http://www.w3.org/1999/02/22-rdf-syntax-ns#">
   <cc:Work>
    <dc:type rdf:resource="http://purl.org/dc/dcmitype/StillImage"/>
    <dc:date>2025-05-10T16:30:46.931024</dc:date>
    <dc:format>image/svg+xml</dc:format>
    <dc:creator>
     <cc:Agent>
      <dc:title>Matplotlib v3.10.3, https://matplotlib.org/</dc:title>
     </cc:Agent>
    </dc:creator>
   </cc:Work>
  </rdf:RDF>
 </metadata>
 <defs>
  <style type="text/css">*{stroke-linejoin: round; stroke-linecap: butt}</style>
 </defs>
 <g id="figure_1">
  <g id="patch_1">
   <path d="M 0 288 
L 576 288 
L 576 0 
L 0 0 
z
" style="fill: #ffffff"/>
  </g>
  <g id="axes_1">
   <g id="patch_2">
    <path d="M 42.425 250.421875 
L 568.8 250.421875 
L 568.8 22.318125 
L 42.425 22.318125 
z
" style="fill: #ffffff"/>
   </g>
   <g id="matplotlib.axis_1">
    <g id="xtick_1">
     <g id="line2d_1">
      <path d="M 66.351136 250.421875 
L 66.351136 22.318125 
" clip-path="url(#p83bfb7f249)" style="fill: none; stroke-dasharray: 2.96,1.28; stroke-dashoffset: 0; stroke: #b0b0b0; stroke-opacity: 0.8; stroke-width: 0.8"/>
     </g>
     <g id="line2d_2">
      <defs>
       <path id="m8e36b65452" d="M 0 0 
L 0 3.5 
" style="stroke: #000000; stroke-width: 0.8"/>
      </defs>
      <g>
       <use xlink:href="#m8e36b65452" x="66.351136" y="250.421875" style="stroke: #000000; stroke-width: 0.8"/>
      </g>
     </g>
     <g id="text_1">
      <!-- 0 -->
      <g transform="translate(63.169886 265.020312) scale(0.1 -0.1)">
       <defs>
        <path id="DejaVuSans-30" d="M 2034 4250 
Q 1547 4250 1301 3770 
Q 1056 3291 1056 2328 
Q 1056 1369 1301 889 
Q 1547 409 2034 409 
Q 2525 409 2770 889 
Q 3016 1369 3016 2328 
Q 3016 3291 2770 3770 
Q 2525 4250 2034 4250 
z
M 2034 4750 
Q 2819 4750 3233 4129 
Q 3647 3509 3647 2328 
Q 3647 1150 3233 529 
Q 2819 -91 2034 -91 
Q 1250 -91 836 529 
Q 422 1150 422 2328 
Q 422 3509 836 4129 
Q 1250 4750 2034 4750 
z
" transform="scale(0.015625)"/>
       </defs>
       <use xlink:href="#DejaVuSans-30"/>
      </g>
     </g>
    </g>
    <g id="xtick_2">
     <g id="line2d_3">
      <path d="M 162.055682 250.421875 
L 162.055682 22.318125 
" clip-path="url(#p83bfb7f249)" style="fill: none; stroke-dasharray: 2.96,1.28; stroke-dashoffset: 0; stroke: #b0b0b0; stroke-opacity: 0.8; stroke-width: 0.8"/>
     </g>
     <g id="line2d_4">
      <g>
       <use xlink:href="#m8e36b65452" x="162.055682" y="250.421875" style="stroke: #000000; stroke-width: 0.8"/>
      </g>
     </g>
     <g id="text_2">
      <!-- 0.1 -->
      <g transform="translate(154.104119 265.020312) scale(0.1 -0.1)">
       <defs>
        <path id="DejaVuSans-2e" d="M 684 794 
L 1344 794 
L 1344 0 
L 684 0 
L 684 794 
z
" transform="scale(0.015625)"/>
        <path id="DejaVuSans-31" d="M 794 531 
L 1825 531 
L 1825 4091 
L 703 3866 
L 703 4441 
L 1819 4666 
L 2450 4666 
L 2450 531 
L 3481 531 
L 3481 0 
L 794 0 
L 794 531 
z
" transform="scale(0.015625)"/>
       </defs>
       <use xlink:href="#DejaVuSans-30"/>
       <use xlink:href="#DejaVuSans-2e" transform="translate(63.623047 0)"/>
       <use xlink:href="#DejaVuSans-31" transform="translate(95.410156 0)"/>
      </g>
     </g>
    </g>
    <g id="xtick_3">
     <g id="line2d_5">
      <path d="M 257.760227 250.421875 
L 257.760227 22.318125 
" clip-path="url(#p83bfb7f249)" style="fill: none; stroke-dasharray: 2.96,1.28; stroke-dashoffset: 0; stroke: #b0b0b0; stroke-opacity: 0.8; stroke-width: 0.8"/>
     </g>
     <g id="line2d_6">
      <g>
       <use xlink:href="#m8e36b65452" x="257.760227" y="250.421875" style="stroke: #000000; stroke-width: 0.8"/>
      </g>
     </g>
     <g id="text_3">
      <!-- 0.2 -->
      <g transform="translate(249.808665 265.020312) scale(0.1 -0.1)">
       <defs>
        <path id="DejaVuSans-32" d="M 1228 531 
L 3431 531 
L 3431 0 
L 469 0 
L 469 531 
Q 828 903 1448 1529 
Q 2069 2156 2228 2338 
Q 2531 2678 2651 2914 
Q 2772 3150 2772 3378 
Q 2772 3750 2511 3984 
Q 2250 4219 1831 4219 
Q 1534 4219 1204 4116 
Q 875 4013 500 3803 
L 500 4441 
Q 881 4594 1212 4672 
Q 1544 4750 1819 4750 
Q 2544 4750 2975 4387 
Q 3406 4025 3406 3419 
Q 3406 3131 3298 2873 
Q 3191 2616 2906 2266 
Q 2828 2175 2409 1742 
Q 1991 1309 1228 531 
z
" transform="scale(0.015625)"/>
       </defs>
       <use xlink:href="#DejaVuSans-30"/>
       <use xlink:href="#DejaVuSans-2e" transform="translate(63.623047 0)"/>
       <use xlink:href="#DejaVuSans-32" transform="translate(95.410156 0)"/>
      </g>
     </g>
    </g>
    <g id="xtick_4">
     <g id="line2d_7">
      <path d="M 353.464773 250.421875 
L 353.464773 22.318125 
" clip-path="url(#p83bfb7f249)" style="fill: none; stroke-dasharray: 2.96,1.28; stroke-dashoffset: 0; stroke: #b0b0b0; stroke-opacity: 0.8; stroke-width: 0.8"/>
     </g>
     <g id="line2d_8">
      <g>
       <use xlink:href="#m8e36b65452" x="353.464773" y="250.421875" style="stroke: #000000; stroke-width: 0.8"/>
      </g>
     </g>
     <g id="text_4">
      <!-- 0.3 -->
      <g transform="translate(345.51321 265.020312) scale(0.1 -0.1)">
       <defs>
        <path id="DejaVuSans-33" d="M 2597 2516 
Q 3050 2419 3304 2112 
Q 3559 1806 3559 1356 
Q 3559 666 3084 287 
Q 2609 -91 1734 -91 
Q 1441 -91 1130 -33 
Q 819 25 488 141 
L 488 750 
Q 750 597 1062 519 
Q 1375 441 1716 441 
Q 2309 441 2620 675 
Q 2931 909 2931 1356 
Q 2931 1769 2642 2001 
Q 2353 2234 1838 2234 
L 1294 2234 
L 1294 2753 
L 1863 2753 
Q 2328 2753 2575 2939 
Q 2822 3125 2822 3475 
Q 2822 3834 2567 4026 
Q 2313 4219 1838 4219 
Q 1578 4219 1281 4162 
Q 984 4106 628 3988 
L 628 4550 
Q 988 4650 1302 4700 
Q 1616 4750 1894 4750 
Q 2613 4750 3031 4423 
Q 3450 4097 3450 3541 
Q 3450 3153 3228 2886 
Q 3006 2619 2597 2516 
z
" transform="scale(0.015625)"/>
       </defs>
       <use xlink:href="#DejaVuSans-30"/>
       <use xlink:href="#DejaVuSans-2e" transform="translate(63.623047 0)"/>
       <use xlink:href="#DejaVuSans-33" transform="translate(95.410156 0)"/>
      </g>
     </g>
    </g>
    <g id="xtick_5">
     <g id="line2d_9">
      <path d="M 449.169318 250.421875 
L 449.169318 22.318125 
" clip-path="url(#p83bfb7f249)" style="fill: none; stroke-dasharray: 2.96,1.28; stroke-dashoffset: 0; stroke: #b0b0b0; stroke-opacity: 0.8; stroke-width: 0.8"/>
     </g>
     <g id="line2d_10">
      <g>
       <use xlink:href="#m8e36b65452" x="449.169318" y="250.421875" style="stroke: #000000; stroke-width: 0.8"/>
      </g>
     </g>
     <g id="text_5">
      <!-- 0.4 -->
      <g transform="translate(441.217756 265.020312) scale(0.1 -0.1)">
       <defs>
        <path id="DejaVuSans-34" d="M 2419 4116 
L 825 1625 
L 2419 1625 
L 2419 4116 
z
M 2253 4666 
L 3047 4666 
L 3047 1625 
L 3713 1625 
L 3713 1100 
L 3047 1100 
L 3047 0 
L 2419 0 
L 2419 1100 
L 313 1100 
L 313 1709 
L 2253 4666 
z
" transform="scale(0.015625)"/>
       </defs>
       <use xlink:href="#DejaVuSans-30"/>
       <use xlink:href="#DejaVuSans-2e" transform="translate(63.623047 0)"/>
       <use xlink:href="#DejaVuSans-34" transform="translate(95.410156 0)"/>
      </g>
     </g>
    </g>
    <g id="xtick_6">
     <g id="line2d_11">
      <path d="M 544.873864 250.421875 
L 544.873864 22.318125 
" clip-path="url(#p83bfb7f249)" style="fill: none; stroke-dasharray: 2.96,1.28; stroke-dashoffset: 0; stroke: #b0b0b0; stroke-opacity: 0.8; stroke-width: 0.8"/>
     </g>
     <g id="line2d_12">
      <g>
       <use xlink:href="#m8e36b65452" x="544.873864" y="250.421875" style="stroke: #000000; stroke-width: 0.8"/>
      </g>
     </g>
     <g id="text_6">
      <!-- 0.5 -->
      <g transform="translate(536.922301 265.020312) scale(0.1 -0.1)">
       <defs>
        <path id="DejaVuSans-35" d="M 691 4666 
L 3169 4666 
L 3169 4134 
L 1269 4134 
L 1269 2991 
Q 1406 3038 1543 3061 
Q 1681 3084 1819 3084 
Q 2600 3084 3056 2656 
Q 3513 2228 3513 1497 
Q 3513 744 3044 326 
Q 2575 -91 1722 -91 
Q 1428 -91 1123 -41 
Q 819 9 494 109 
L 494 744 
Q 775 591 1075 516 
Q 1375 441 1709 441 
Q 2250 441 2565 725 
Q 2881 1009 2881 1497 
Q 2881 1984 2565 2268 
Q 2250 2553 1709 2553 
Q 1456 2553 1204 2497 
Q 953 2441 691 2322 
L 691 4666 
z
" transform="scale(0.015625)"/>
       </defs>
       <use xlink:href="#DejaVuSans-30"/>
       <use xlink:href="#DejaVuSans-2e" transform="translate(63.623047 0)"/>
       <use xlink:href="#DejaVuSans-35" transform="translate(95.410156 0)"/>
      </g>
     </g>
    </g>
    <g id="text_7">
     <!-- Normalized frequency, $f/f_s$ -->
     <g transform="translate(240.0125 278.7) scale(0.1 -0.1)">
      <defs>
       <path id="DejaVuSans-4e" d="M 628 4666 
L 1478 4666 
L 3547 763 
L 3547 4666 
L 4159 4666 
L 4159 0 
L 3309 0 
L 1241 3903 
L 1241 0 
L 628 0 
L 628 4666 
z
" transform="scale(0.015625)"/>
       <path id="DejaVuSans-6f" d="M 1959 3097 
Q 1497 3097 1228 2736 
Q 959 2375 959 1747 
Q 959 1119 1226 758 
Q 1494 397 1959 397 
Q 2419 397 2687 759 
Q 2956 1122 2956 1747 
Q 2956 2369 2687 2733 
Q 2419 3097 1959 3097 
z
M 1959 3584 
Q 2709 3584 3137 3096 
Q 3566 2609 3566 1747 
Q 3566 888 3137 398 
Q 2709 -91 1959 -91 
Q 1206 -91 779 398 
Q 353 888 353 1747 
Q 353 2609 779 3096 
Q 1206 3584 1959 3584 
z
" transform="scale(0.015625)"/>
       <path id="DejaVuSans-72" d="M 2631 2963 
Q 2534 3019 2420 3045 
Q 2306 3072 2169 3072 
Q 1681 3072 1420 2755 
Q 1159 2438 1159 1844 
L 1159 0 
L 581 0 
L 581 3500 
L 1159 3500 
L 1159 2956 
Q 1341 3275 1631 3429 
Q 1922 3584 2338 3584 
Q 2397 3584 2469 3576 
Q 2541 3569 2628 3553 
L 2631 2963 
z
" transform="scale(0.015625)"/>
       <path id="DejaVuSans-6d" d="M 3328 2828 
Q 3544 3216 3844 3400 
Q 4144 3584 4550 3584 
Q 5097 3584 5394 3201 
Q 5691 2819 5691 2113 
L 5691 0 
L 5113 0 
L 5113 2094 
Q 5113 2597 4934 2840 
Q 4756 3084 4391 3084 
Q 3944 3084 3684 2787 
Q 3425 2491 3425 1978 
L 3425 0 
L 2847 0 
L 2847 2094 
Q 2847 2600 2669 2842 
Q 2491 3084 2119 3084 
Q 1678 3084 1418 2786 
Q 1159 2488 1159 1978 
L 1159 0 
L 581 0 
L 581 3500 
L 1159 3500 
L 1159 2956 
Q 1356 3278 1631 3431 
Q 1906 3584 2284 3584 
Q 2666 3584 2933 3390 
Q 3200 3197 3328 2828 
z
" transform="scale(0.015625)"/>
       <path id="DejaVuSans-61" d="M 2194 1759 
Q 1497 1759 1228 1600 
Q 959 1441 959 1056 
Q 959 750 1161 570 
Q 1363 391 1709 391 
Q 2188 391 2477 730 
Q 2766 1069 2766 1631 
L 2766 1759 
L 2194 1759 
z
M 3341 1997 
L 3341 0 
L 2766 0 
L 2766 531 
Q 2569 213 2275 61 
Q 1981 -91 1556 -91 
Q 1019 -91 701 211 
Q 384 513 384 1019 
Q 384 1609 779 1909 
Q 1175 2209 1959 2209 
L 2766 2209 
L 2766 2266 
Q 2766 2663 2505 2880 
Q 2244 3097 1772 3097 
Q 1472 3097 1187 3025 
Q 903 2953 641 2809 
L 641 3341 
Q 956 3463 1253 3523 
Q 1550 3584 1831 3584 
Q 2591 3584 2966 3190 
Q 3341 2797 3341 1997 
z
" transform="scale(0.015625)"/>
       <path id="DejaVuSans-6c" d="M 603 4863 
L 1178 4863 
L 1178 0 
L 603 0 
L 603 4863 
z
" transform="scale(0.015625)"/>
       <path id="DejaVuSans-69" d="M 603 3500 
L 1178 3500 
L 1178 0 
L 603 0 
L 603 3500 
z
M 603 4863 
L 1178 4863 
L 1178 4134 
L 603 4134 
L 603 4863 
z
" transform="scale(0.015625)"/>
       <path id="DejaVuSans-7a" d="M 353 3500 
L 3084 3500 
L 3084 2975 
L 922 459 
L 3084 459 
L 3084 0 
L 275 0 
L 275 525 
L 2438 3041 
L 353 3041 
L 353 3500 
z
" transform="scale(0.015625)"/>
       <path id="DejaVuSans-65" d="M 3597 1894 
L 3597 1613 
L 953 1613 
Q 991 1019 1311 708 
Q 1631 397 2203 397 
Q 2534 397 2845 478 
Q 3156 559 3463 722 
L 3463 178 
Q 3153 47 2828 -22 
Q 2503 -91 2169 -91 
Q 1331 -91 842 396 
Q 353 884 353 1716 
Q 353 2575 817 3079 
Q 1281 3584 2069 3584 
Q 2775 3584 3186 3129 
Q 3597 2675 3597 1894 
z
M 3022 2063 
Q 3016 2534 2758 2815 
Q 2500 3097 2075 3097 
Q 1594 3097 1305 2825 
Q 1016 2553 972 2059 
L 3022 2063 
z
" transform="scale(0.015625)"/>
       <path id="DejaVuSans-64" d="M 2906 2969 
L 2906 4863 
L 3481 4863 
L 3481 0 
L 2906 0 
L 2906 525 
Q 2725 213 2448 61 
Q 2172 -91 1784 -91 
Q 1150 -91 751 415 
Q 353 922 353 1747 
Q 353 2572 751 3078 
Q 1150 3584 1784 3584 
Q 2172 3584 2448 3432 
Q 2725 3281 2906 2969 
z
M 947 1747 
Q 947 1113 1208 752 
Q 1469 391 1925 391 
Q 2381 391 2643 752 
Q 2906 1113 2906 1747 
Q 2906 2381 2643 2742 
Q 2381 3103 1925 3103 
Q 1469 3103 1208 2742 
Q 947 2381 947 1747 
z
" transform="scale(0.015625)"/>
       <path id="DejaVuSans-20" transform="scale(0.015625)"/>
       <path id="DejaVuSans-66" d="M 2375 4863 
L 2375 4384 
L 1825 4384 
Q 1516 4384 1395 4259 
Q 1275 4134 1275 3809 
L 1275 3500 
L 2222 3500 
L 2222 3053 
L 1275 3053 
L 1275 0 
L 697 0 
L 697 3053 
L 147 3053 
L 147 3500 
L 697 3500 
L 697 3744 
Q 697 4328 969 4595 
Q 1241 4863 1831 4863 
L 2375 4863 
z
" transform="scale(0.015625)"/>
       <path id="DejaVuSans-71" d="M 947 1747 
Q 947 1113 1208 752 
Q 1469 391 1925 391 
Q 2381 391 2643 752 
Q 2906 1113 2906 1747 
Q 2906 2381 2643 2742 
Q 2381 3103 1925 3103 
Q 1469 3103 1208 2742 
Q 947 2381 947 1747 
z
M 2906 525 
Q 2725 213 2448 61 
Q 2172 -91 1784 -91 
Q 1150 -91 751 415 
Q 353 922 353 1747 
Q 353 2572 751 3078 
Q 1150 3584 1784 3584 
Q 2172 3584 2448 3432 
Q 2725 3281 2906 2969 
L 2906 3500 
L 3481 3500 
L 3481 -1331 
L 2906 -1331 
L 2906 525 
z
" transform="scale(0.015625)"/>
       <path id="DejaVuSans-75" d="M 544 1381 
L 544 3500 
L 1119 3500 
L 1119 1403 
Q 1119 906 1312 657 
Q 1506 409 1894 409 
Q 2359 409 2629 706 
Q 2900 1003 2900 1516 
L 2900 3500 
L 3475 3500 
L 3475 0 
L 2900 0 
L 2900 538 
Q 2691 219 2414 64 
Q 2138 -91 1772 -91 
Q 1169 -91 856 284 
Q 544 659 544 1381 
z
M 1991 3584 
L 1991 3584 
z
" transform="scale(0.015625)"/>
       <path id="DejaVuSans-6e" d="M 3513 2113 
L 3513 0 
L 2938 0 
L 2938 2094 
Q 2938 2591 2744 2837 
Q 2550 3084 2163 3084 
Q 1697 3084 1428 2787 
Q 1159 2491 1159 1978 
L 1159 0 
L 581 0 
L 581 3500 
L 1159 3500 
L 1159 2956 
Q 1366 3272 1645 3428 
Q 1925 3584 2291 3584 
Q 2894 3584 3203 3211 
Q 3513 2838 3513 2113 
z
" transform="scale(0.015625)"/>
       <path id="DejaVuSans-63" d="M 3122 3366 
L 3122 2828 
Q 2878 2963 2633 3030 
Q 2388 3097 2138 3097 
Q 1578 3097 1268 2742 
Q 959 2388 959 1747 
Q 959 1106 1268 751 
Q 1578 397 2138 397 
Q 2388 397 2633 464 
Q 2878 531 3122 666 
L 3122 134 
Q 2881 22 2623 -34 
Q 2366 -91 2075 -91 
Q 1284 -91 818 406 
Q 353 903 353 1747 
Q 353 2603 823 3093 
Q 1294 3584 2113 3584 
Q 2378 3584 2631 3529 
Q 2884 3475 3122 3366 
z
" transform="scale(0.015625)"/>
       <path id="DejaVuSans-79" d="M 2059 -325 
Q 1816 -950 1584 -1140 
Q 1353 -1331 966 -1331 
L 506 -1331 
L 506 -850 
L 844 -850 
Q 1081 -850 1212 -737 
Q 1344 -625 1503 -206 
L 1606 56 
L 191 3500 
L 800 3500 
L 1894 763 
L 2988 3500 
L 3597 3500 
L 2059 -325 
z
" transform="scale(0.015625)"/>
       <path id="DejaVuSans-2c" d="M 750 794 
L 1409 794 
L 1409 256 
L 897 -744 
L 494 -744 
L 750 256 
L 750 794 
z
" transform="scale(0.015625)"/>
       <path id="DejaVuSans-Oblique-66" d="M 3059 4863 
L 2969 4384 
L 2419 4384 
Q 2106 4384 1964 4261 
Q 1822 4138 1753 3809 
L 1691 3500 
L 2638 3500 
L 2553 3053 
L 1606 3053 
L 1013 0 
L 434 0 
L 1031 3053 
L 481 3053 
L 563 3500 
L 1113 3500 
L 1159 3744 
Q 1278 4363 1576 4613 
Q 1875 4863 2516 4863 
L 3059 4863 
z
" transform="scale(0.015625)"/>
       <path id="DejaVuSans-2f" d="M 1625 4666 
L 2156 4666 
L 531 -594 
L 0 -594 
L 1625 4666 
z
" transform="scale(0.015625)"/>
       <path id="DejaVuSans-Oblique-73" d="M 3200 3397 
L 3091 2853 
Q 2863 2978 2609 3040 
Q 2356 3103 2088 3103 
Q 1634 3103 1373 2948 
Q 1113 2794 1113 2528 
Q 1113 2219 1719 2053 
Q 1766 2041 1788 2034 
L 1972 1978 
Q 2547 1819 2739 1644 
Q 2931 1469 2931 1166 
Q 2931 609 2489 259 
Q 2047 -91 1331 -91 
Q 1053 -91 747 -37 
Q 441 16 72 128 
L 184 722 
Q 500 559 806 475 
Q 1113 391 1394 391 
Q 1816 391 2080 572 
Q 2344 753 2344 1031 
Q 2344 1331 1650 1516 
L 1591 1531 
L 1394 1581 
Q 956 1697 753 1886 
Q 550 2075 550 2369 
Q 550 2928 970 3256 
Q 1391 3584 2113 3584 
Q 2397 3584 2667 3537 
Q 2938 3491 3200 3397 
z
" transform="scale(0.015625)"/>
      </defs>
      <use xlink:href="#DejaVuSans-4e" transform="translate(0 0.015625)"/>
      <use xlink:href="#DejaVuSans-6f" transform="translate(74.804688 0.015625)"/>
      <use xlink:href="#DejaVuSans-72" transform="translate(135.986328 0.015625)"/>
      <use xlink:href="#DejaVuSans-6d" transform="translate(177.099609 0.015625)"/>
      <use xlink:href="#DejaVuSans-61" transform="translate(274.511719 0.015625)"/>
      <use xlink:href="#DejaVuSans-6c" transform="translate(335.791016 0.015625)"/>
      <use xlink:href="#DejaVuSans-69" transform="translate(363.574219 0.015625)"/>
      <use xlink:href="#DejaVuSans-7a" transform="translate(391.357422 0.015625)"/>
      <use xlink:href="#DejaVuSans-65" transform="translate(443.847656 0.015625)"/>
      <use xlink:href="#DejaVuSans-64" transform="translate(505.371094 0.015625)"/>
      <use xlink:href="#DejaVuSans-20" transform="translate(568.847656 0.015625)"/>
      <use xlink:href="#DejaVuSans-66" transform="translate(600.634766 0.015625)"/>
      <use xlink:href="#DejaVuSans-72" transform="translate(635.839844 0.015625)"/>
      <use xlink:href="#DejaVuSans-65" transform="translate(676.953125 0.015625)"/>
      <use xlink:href="#DejaVuSans-71" transform="translate(738.476562 0.015625)"/>
      <use xlink:href="#DejaVuSans-75" transform="translate(801.953125 0.015625)"/>
      <use xlink:href="#DejaVuSans-65" transform="translate(865.332031 0.015625)"/>
      <use xlink:href="#DejaVuSans-6e" transform="translate(926.855469 0.015625)"/>
      <use xlink:href="#DejaVuSans-63" transform="translate(990.234375 0.015625)"/>
      <use xlink:href="#DejaVuSans-79" transform="translate(1045.214844 0.015625)"/>
      <use xlink:href="#DejaVuSans-2c" transform="translate(1104.394531 0.015625)"/>
      <use xlink:href="#DejaVuSans-20" transform="translate(1136.181641 0.015625)"/>
      <use xlink:href="#DejaVuSans-Oblique-66" transform="translate(1167.96875 0.015625)"/>
      <use xlink:href="#DejaVuSans-2f" transform="translate(1203.173828 0.015625)"/>
      <use xlink:href="#DejaVuSans-Oblique-66" transform="translate(1236.865234 0.015625)"/>
      <use xlink:href="#DejaVuSans-Oblique-73" transform="translate(1272.070312 -16.390625) scale(0.7)"/>
     </g>
    </g>
   </g>
   <g id="matplotlib.axis_2">
    <g id="ytick_1">
     <g id="line2d_13">
      <path d="M 42.425 240.053523 
L 568.8 240.053523 
" clip-path="url(#p83bfb7f249)" style="fill: none; stroke-dasharray: 2.96,1.28; stroke-dashoffset: 0; stroke: #b0b0b0; stroke-opacity: 0.8; stroke-width: 0.8"/>
     </g>
     <g id="line2d_14">
      <defs>
       <path id="m89a4615963" d="M 0 0 
L -3.5 0 
" style="stroke: #000000; stroke-width: 0.8"/>
      </defs>
      <g>
       <use xlink:href="#m89a4615963" x="42.425" y="240.053523" style="stroke: #000000; stroke-width: 0.8"/>
      </g>
     </g>
     <g id="text_8">
      <!-- 0 -->
      <g transform="translate(29.0625 243.852741) scale(0.1 -0.1)">
       <use xlink:href="#DejaVuSans-30"/>
      </g>
     </g>
    </g>
    <g id="ytick_2">
     <g id="line2d_15">
      <path d="M 42.425 198.032174 
L 568.8 198.032174 
" clip-path="url(#p83bfb7f249)" style="fill: none; stroke-dasharray: 2.96,1.28; stroke-dashoffset: 0; stroke: #b0b0b0; stroke-opacity: 0.8; stroke-width: 0.8"/>
     </g>
     <g id="line2d_16">
      <g>
       <use xlink:href="#m89a4615963" x="42.425" y="198.032174" style="stroke: #000000; stroke-width: 0.8"/>
      </g>
     </g>
     <g id="text_9">
      <!-- 2 -->
      <g transform="translate(29.0625 201.831392) scale(0.1 -0.1)">
       <use xlink:href="#DejaVuSans-32"/>
      </g>
     </g>
    </g>
    <g id="ytick_3">
     <g id="line2d_17">
      <path d="M 42.425 156.010825 
L 568.8 156.010825 
" clip-path="url(#p83bfb7f249)" style="fill: none; stroke-dasharray: 2.96,1.28; stroke-dashoffset: 0; stroke: #b0b0b0; stroke-opacity: 0.8; stroke-width: 0.8"/>
     </g>
     <g id="line2d_18">
      <g>
       <use xlink:href="#m89a4615963" x="42.425" y="156.010825" style="stroke: #000000; stroke-width: 0.8"/>
      </g>
     </g>
     <g id="text_10">
      <!-- 4 -->
      <g transform="translate(29.0625 159.810044) scale(0.1 -0.1)">
       <use xlink:href="#DejaVuSans-34"/>
      </g>
     </g>
    </g>
    <g id="ytick_4">
     <g id="line2d_19">
      <path d="M 42.425 113.989476 
L 568.8 113.989476 
" clip-path="url(#p83bfb7f249)" style="fill: none; stroke-dasharray: 2.96,1.28; stroke-dashoffset: 0; stroke: #b0b0b0; stroke-opacity: 0.8; stroke-width: 0.8"/>
     </g>
     <g id="line2d_20">
      <g>
       <use xlink:href="#m89a4615963" x="42.425" y="113.989476" style="stroke: #000000; stroke-width: 0.8"/>
      </g>
     </g>
     <g id="text_11">
      <!-- 6 -->
      <g transform="translate(29.0625 117.788695) scale(0.1 -0.1)">
       <defs>
        <path id="DejaVuSans-36" d="M 2113 2584 
Q 1688 2584 1439 2293 
Q 1191 2003 1191 1497 
Q 1191 994 1439 701 
Q 1688 409 2113 409 
Q 2538 409 2786 701 
Q 3034 994 3034 1497 
Q 3034 2003 2786 2293 
Q 2538 2584 2113 2584 
z
M 3366 4563 
L 3366 3988 
Q 3128 4100 2886 4159 
Q 2644 4219 2406 4219 
Q 1781 4219 1451 3797 
Q 1122 3375 1075 2522 
Q 1259 2794 1537 2939 
Q 1816 3084 2150 3084 
Q 2853 3084 3261 2657 
Q 3669 2231 3669 1497 
Q 3669 778 3244 343 
Q 2819 -91 2113 -91 
Q 1303 -91 875 529 
Q 447 1150 447 2328 
Q 447 3434 972 4092 
Q 1497 4750 2381 4750 
Q 2619 4750 2861 4703 
Q 3103 4656 3366 4563 
z
" transform="scale(0.015625)"/>
       </defs>
       <use xlink:href="#DejaVuSans-36"/>
      </g>
     </g>
    </g>
    <g id="ytick_5">
     <g id="line2d_21">
      <path d="M 42.425 71.968127 
L 568.8 71.968127 
" clip-path="url(#p83bfb7f249)" style="fill: none; stroke-dasharray: 2.96,1.28; stroke-dashoffset: 0; stroke: #b0b0b0; stroke-opacity: 0.8; stroke-width: 0.8"/>
     </g>
     <g id="line2d_22">
      <g>
       <use xlink:href="#m89a4615963" x="42.425" y="71.968127" style="stroke: #000000; stroke-width: 0.8"/>
      </g>
     </g>
     <g id="text_12">
      <!-- 8 -->
      <g transform="translate(29.0625 75.767346) scale(0.1 -0.1)">
       <defs>
        <path id="DejaVuSans-38" d="M 2034 2216 
Q 1584 2216 1326 1975 
Q 1069 1734 1069 1313 
Q 1069 891 1326 650 
Q 1584 409 2034 409 
Q 2484 409 2743 651 
Q 3003 894 3003 1313 
Q 3003 1734 2745 1975 
Q 2488 2216 2034 2216 
z
M 1403 2484 
Q 997 2584 770 2862 
Q 544 3141 544 3541 
Q 544 4100 942 4425 
Q 1341 4750 2034 4750 
Q 2731 4750 3128 4425 
Q 3525 4100 3525 3541 
Q 3525 3141 3298 2862 
Q 3072 2584 2669 2484 
Q 3125 2378 3379 2068 
Q 3634 1759 3634 1313 
Q 3634 634 3220 271 
Q 2806 -91 2034 -91 
Q 1263 -91 848 271 
Q 434 634 434 1313 
Q 434 1759 690 2068 
Q 947 2378 1403 2484 
z
M 1172 3481 
Q 1172 3119 1398 2916 
Q 1625 2713 2034 2713 
Q 2441 2713 2670 2916 
Q 2900 3119 2900 3481 
Q 2900 3844 2670 4047 
Q 2441 4250 2034 4250 
Q 1625 4250 1398 4047 
Q 1172 3844 1172 3481 
z
" transform="scale(0.015625)"/>
       </defs>
       <use xlink:href="#DejaVuSans-38"/>
      </g>
     </g>
    </g>
    <g id="ytick_6">
     <g id="line2d_23">
      <path d="M 42.425 29.946778 
L 568.8 29.946778 
" clip-path="url(#p83bfb7f249)" style="fill: none; stroke-dasharray: 2.96,1.28; stroke-dashoffset: 0; stroke: #b0b0b0; stroke-opacity: 0.8; stroke-width: 0.8"/>
     </g>
     <g id="line2d_24">
      <g>
       <use xlink:href="#m89a4615963" x="42.425" y="29.946778" style="stroke: #000000; stroke-width: 0.8"/>
      </g>
     </g>
     <g id="text_13">
      <!-- 10 -->
      <g transform="translate(22.7 33.745997) scale(0.1 -0.1)">
       <use xlink:href="#DejaVuSans-31"/>
       <use xlink:href="#DejaVuSans-30" transform="translate(63.623047 0)"/>
      </g>
     </g>
    </g>
    <g id="text_14">
     <!-- Power, $|H(\omega)|^2$ -->
     <g transform="translate(16.3 172.52) rotate(-90) scale(0.1 -0.1)">
      <defs>
       <path id="DejaVuSans-50" d="M 1259 4147 
L 1259 2394 
L 2053 2394 
Q 2494 2394 2734 2622 
Q 2975 2850 2975 3272 
Q 2975 3691 2734 3919 
Q 2494 4147 2053 4147 
L 1259 4147 
z
M 628 4666 
L 2053 4666 
Q 2838 4666 3239 4311 
Q 3641 3956 3641 3272 
Q 3641 2581 3239 2228 
Q 2838 1875 2053 1875 
L 1259 1875 
L 1259 0 
L 628 0 
L 628 4666 
z
" transform="scale(0.015625)"/>
       <path id="DejaVuSans-77" d="M 269 3500 
L 844 3500 
L 1563 769 
L 2278 3500 
L 2956 3500 
L 3675 769 
L 4391 3500 
L 4966 3500 
L 4050 0 
L 3372 0 
L 2619 2869 
L 1863 0 
L 1184 0 
L 269 3500 
z
" transform="scale(0.015625)"/>
       <path id="DejaVuSans-7c" d="M 1344 4891 
L 1344 -1509 
L 813 -1509 
L 813 4891 
L 1344 4891 
z
" transform="scale(0.015625)"/>
       <path id="DejaVuSans-Oblique-48" d="M 1081 4666 
L 1716 4666 
L 1344 2753 
L 3634 2753 
L 4006 4666 
L 4641 4666 
L 3731 0 
L 3097 0 
L 3531 2222 
L 1241 2222 
L 806 0 
L 172 0 
L 1081 4666 
z
" transform="scale(0.015625)"/>
       <path id="DejaVuSans-28" d="M 1984 4856 
Q 1566 4138 1362 3434 
Q 1159 2731 1159 2009 
Q 1159 1288 1364 580 
Q 1569 -128 1984 -844 
L 1484 -844 
Q 1016 -109 783 600 
Q 550 1309 550 2009 
Q 550 2706 781 3412 
Q 1013 4119 1484 4856 
L 1984 4856 
z
" transform="scale(0.015625)"/>
       <path id="DejaVuSans-Oblique-3c9" d="M 1369 -91 
Q 72 -91 434 1766 
Q 575 2500 1256 3500 
L 1875 3500 
Q 1231 2500 1088 1750 
Q 819 397 1519 397 
Q 2166 397 2478 2078 
L 3009 2078 
Q 2669 388 3316 397 
Q 4013 403 4275 1750 
Q 4419 2500 4169 3500 
L 4788 3500 
Q 5075 2500 4934 1766 
Q 4578 -94 3278 -91 
Q 2428 -88 2503 844 
Q 2194 -91 1369 -91 
z
" transform="scale(0.015625)"/>
       <path id="DejaVuSans-29" d="M 513 4856 
L 1013 4856 
Q 1481 4119 1714 3412 
Q 1947 2706 1947 2009 
Q 1947 1309 1714 600 
Q 1481 -109 1013 -844 
L 513 -844 
Q 928 -128 1133 580 
Q 1338 1288 1338 2009 
Q 1338 2731 1133 3434 
Q 928 4138 513 4856 
z
" transform="scale(0.015625)"/>
      </defs>
      <use xlink:href="#DejaVuSans-50" transform="translate(0 0.765625)"/>
      <use xlink:href="#DejaVuSans-6f" transform="translate(60.302734 0.765625)"/>
      <use xlink:href="#DejaVuSans-77" transform="translate(121.484375 0.765625)"/>
      <use xlink:href="#DejaVuSans-65" transform="translate(203.271484 0.765625)"/>
      <use xlink:href="#DejaVuSans-72" transform="translate(264.794922 0.765625)"/>
      <use xlink:href="#DejaVuSans-2c" transform="translate(305.908203 0.765625)"/>
      <use xlink:href="#DejaVuSans-20" transform="translate(337.695312 0.765625)"/>
      <use xlink:href="#DejaVuSans-7c" transform="translate(369.482422 0.765625)"/>
      <use xlink:href="#DejaVuSans-Oblique-48" transform="translate(403.173828 0.765625)"/>
      <use xlink:href="#DejaVuSans-28" transform="translate(478.369141 0.765625)"/>
      <use xlink:href="#DejaVuSans-Oblique-3c9" transform="translate(517.382812 0.765625)"/>
      <use xlink:href="#DejaVuSans-29" transform="translate(601.123047 0.765625)"/>
      <use xlink:href="#DejaVuSans-7c" transform="translate(640.136719 0.765625)"/>
      <use xlink:href="#DejaVuSans-32" transform="translate(674.785156 39.046875) scale(0.7)"/>
     </g>
    </g>
   </g>
   <g id="line2d_25">
    <path d="M 66.351136 240.053523 
L 77.566513 239.939818 
L 88.781889 239.601166 
L 99.997266 239.044898 
L 111.679949 238.247078 
L 124.297248 237.156645 
L 137.849161 235.754315 
L 153.270304 233.922918 
L 172.429905 231.407675 
L 223.366406 224.596004 
L 238.787549 222.833968 
L 252.339462 221.509845 
L 264.95676 220.504488 
L 276.639444 219.793916 
L 287.854821 219.327123 
L 299.070197 219.081585 
L 310.285574 219.062618 
L 321.50095 219.270632 
L 332.716326 219.701123 
L 344.39901 220.376028 
L 356.549001 221.306154 
L 369.633607 222.541126 
L 383.652828 224.092176 
L 400.008585 226.130691 
L 423.373952 229.290372 
L 455.61816 233.627881 
L 471.973917 235.597245 
L 485.993137 237.067179 
L 498.610436 238.174144 
L 510.760427 239.017159 
L 522.443111 239.601166 
L 533.658487 239.939818 
L 544.406556 240.053325 
L 544.406556 240.053325 
" clip-path="url(#p83bfb7f249)" style="fill: none; stroke: #1f77b4; stroke-linecap: square"/>
   </g>
   <g id="line2d_26">
    <path d="M 66.351136 240.053523 
L 77.566513 239.939658 
L 88.781889 239.598617 
L 99.997266 239.032114 
L 111.212642 238.24319 
L 122.428018 237.236477 
L 134.110702 235.963344 
L 146.260693 234.407154 
L 158.877992 232.556857 
L 171.962598 230.409689 
L 186.449126 227.799748 
L 203.27219 224.532972 
L 231.777939 218.720251 
L 252.806769 214.540323 
L 266.82599 211.97677 
L 278.508674 210.05928 
L 289.256743 208.522391 
L 299.070197 207.345868 
L 308.416344 206.454492 
L 317.295184 205.835903 
L 325.706716 205.470513 
L 334.118248 205.33159 
L 342.062473 205.41604 
L 350.006698 205.714521 
L 357.950923 206.228528 
L 365.895148 206.956459 
L 374.306681 207.954956 
L 382.718213 209.178058 
L 391.597053 210.697311 
L 400.9432 212.526537 
L 411.223961 214.7749 
L 422.906645 217.570056 
L 437.86048 221.393497 
L 469.63738 229.584059 
L 480.852757 232.209972 
L 490.666211 234.286257 
L 499.545051 235.942436 
L 507.956583 237.285261 
L 515.900808 238.328946 
L 523.377725 239.096375 
L 530.854643 239.644061 
L 538.331561 239.964052 
L 544.406556 240.053066 
L 544.406556 240.053066 
" clip-path="url(#p83bfb7f249)" style="fill: none; stroke: #ff7f0e; stroke-linecap: square"/>
   </g>
   <g id="line2d_27">
    <path d="M 66.351136 240.053523 
L 77.566513 239.939602 
L 88.781889 239.597718 
L 99.997266 239.027556 
L 111.212642 238.228745 
L 122.428018 237.201045 
L 133.643395 235.944525 
L 144.858771 234.459676 
L 156.074148 232.747408 
L 167.289524 230.808894 
L 178.504901 228.645275 
L 189.720277 226.257278 
L 200.935653 223.644829 
L 212.15103 220.806822 
L 223.366406 217.741184 
L 234.581783 214.445442 
L 245.797159 210.917949 
L 257.012536 207.159909 
L 268.695219 203.007742 
L 280.84521 198.452825 
L 294.864431 192.95153 
L 336.454785 176.430789 
L 344.866317 173.438443 
L 352.343235 171.013818 
L 358.885538 169.124215 
L 364.960534 167.602998 
L 370.568222 166.429655 
L 375.708603 165.573163 
L 380.848983 164.947767 
L 385.522057 164.596636 
L 390.195131 164.467169 
L 394.868204 164.572284 
L 399.07397 164.876934 
L 403.279736 165.387976 
L 407.485502 166.111161 
L 411.691269 167.050723 
L 415.897035 168.209217 
L 420.102801 169.587366 
L 424.308567 171.183934 
L 428.981641 173.209961 
L 433.654714 175.493795 
L 438.327788 178.024315 
L 443.468169 181.075273 
L 448.608549 184.382666 
L 454.216238 188.248621 
L 460.75854 193.040628 
L 468.702765 199.154 
L 493.470055 218.448211 
L 499.545051 222.778639 
L 504.685431 226.187874 
L 509.358505 229.041042 
L 514.031578 231.624682 
L 518.237345 233.693733 
L 522.443111 235.498825 
L 526.18157 236.867188 
L 529.920028 238.001952 
L 533.658487 238.894093 
L 537.396946 239.536492 
L 540.668097 239.889631 
L 543.939249 240.045423 
L 544.406556 240.051498 
L 544.406556 240.051498 
" clip-path="url(#p83bfb7f249)" style="fill: none; stroke: #2ca02c; stroke-linecap: square"/>
   </g>
   <g id="line2d_28">
    <path d="M 66.351136 240.053523 
L 77.566513 239.939621 
L 88.781889 239.59799 
L 99.997266 239.028738 
L 111.212642 238.231751 
L 122.428018 237.206613 
L 133.643395 235.952843 
L 144.858771 234.470394 
L 156.074148 232.760015 
L 167.289524 230.82309 
L 178.504901 228.660827 
L 189.720277 226.273166 
L 200.935653 223.65817 
L 212.15103 220.812555 
L 223.366406 217.733454 
L 234.581783 214.420656 
L 245.797159 210.877916 
L 257.479843 206.950409 
L 269.162527 202.788051 
L 280.84521 198.392245 
L 292.527894 193.755081 
L 303.743271 189.062104 
L 314.49134 184.330326 
L 325.706716 179.144282 
L 337.3894 173.48429 
L 349.539391 167.348484 
L 362.623997 160.491079 
L 375.241295 153.635615 
L 386.923979 147.035867 
L 397.672048 140.711622 
L 410.756654 132.733746 
L 423.373952 125.102479 
L 429.448948 121.695242 
L 434.122021 119.323067 
L 437.86048 117.648061 
L 441.131632 116.390296 
L 444.402783 115.367629 
L 447.206627 114.709884 
L 450.010471 114.283145 
L 452.347008 114.124292 
L 454.683545 114.161796 
L 457.020082 114.411908 
L 459.356618 114.890493 
L 461.693155 115.612771 
L 464.029692 116.59304 
L 466.366229 117.84438 
L 468.702765 119.378347 
L 471.039302 121.204666 
L 473.375839 123.330918 
L 475.712376 125.762232 
L 478.048912 128.501 
L 480.385449 131.546595 
L 483.189293 135.600608 
L 485.993137 140.07732 
L 488.796982 144.95576 
L 492.068133 151.116072 
L 495.806592 158.700402 
L 500.012358 167.790471 
L 505.620046 180.497294 
L 514.966193 201.73172 
L 518.704652 209.702067 
L 521.975803 216.201009 
L 524.779648 221.319358 
L 527.583492 225.942186 
L 529.920028 229.366722 
L 532.256565 232.364189 
L 534.125795 234.433345 
L 535.995024 236.194859 
L 537.864253 237.636682 
L 539.733483 238.748899 
L 541.135405 239.362048 
L 542.537327 239.783034 
L 543.939249 240.010212 
L 544.406556 240.042694 
L 544.406556 240.042694 
" clip-path="url(#p83bfb7f249)" style="fill: none; stroke: #d62728; stroke-linecap: square"/>
   </g>
   <g id="line2d_29">
    <path d="M 66.351136 240.053523 
L 77.566513 239.939616 
L 88.781889 239.597908 
L 99.997266 239.028335 
L 111.212642 238.23086 
L 122.428018 237.205715 
L 133.643395 235.952972 
L 144.858771 234.472107 
L 156.074148 232.762929 
L 167.289524 230.826392 
L 178.504901 228.662979 
L 189.720277 226.27118 
L 200.935653 223.64993 
L 212.15103 220.801386 
L 223.366406 217.727624 
L 234.581783 214.425829 
L 245.797159 210.892313 
L 257.012536 207.130405 
L 268.695219 202.975405 
L 279.910596 198.755887 
L 291.125972 194.300715 
L 302.808656 189.413312 
L 314.958647 184.080549 
L 326.641331 178.708039 
L 337.856707 173.301646 
L 349.539391 167.414975 
L 362.156689 160.807215 
L 373.839373 154.452513 
L 384.587442 148.353797 
L 396.270126 141.450434 
L 411.223961 132.337878 
L 422.906645 124.988631 
L 432.252792 118.847941 
L 443.000861 111.501379 
L 466.833536 94.876785 
L 477.581605 87.021212 
L 482.254679 83.748818 
L 485.058523 82.005587 
L 487.395059 80.778812 
L 489.264289 80.005731 
L 491.133518 79.472492 
L 492.53544 79.263832 
L 493.937362 79.247639 
L 495.339284 79.451045 
L 496.741206 79.902187 
L 498.143129 80.629795 
L 499.545051 81.662708 
L 500.946973 83.02932 
L 502.348895 84.756958 
L 503.750817 86.871199 
L 505.152739 89.395134 
L 506.554661 92.348596 
L 507.956583 95.747377 
L 509.825812 100.989939 
L 511.695042 107.053121 
L 513.564271 113.926342 
L 515.433501 121.575769 
L 517.770037 132.136719 
L 520.573881 146.038451 
L 524.31234 165.944525 
L 529.920028 195.957843 
L 532.256565 207.416257 
L 534.125795 215.732051 
L 535.995024 223.078828 
L 537.396946 227.845003 
L 538.798868 231.898903 
L 540.20079 235.183091 
L 541.135405 236.921216 
L 542.07002 238.2849 
L 543.004634 239.265333 
L 543.939249 239.856154 
L 544.406556 240.00416 
L 544.406556 240.00416 
" clip-path="url(#p83bfb7f249)" style="fill: none; stroke: #9467bd; stroke-linecap: square"/>
   </g>
   <g id="line2d_30">
    <path d="M 66.351136 240.053523 
L 77.566513 239.939613 
L 88.781889 239.597879 
L 99.997266 239.028338 
L 111.212642 238.230951 
L 122.428018 237.205782 
L 133.643395 235.952745 
L 144.858771 234.471937 
L 156.074148 232.763272 
L 167.289524 230.826792 
L 178.504901 228.662543 
L 189.720277 226.270337 
L 200.935653 223.650565 
L 212.15103 220.802565 
L 223.366406 217.727342 
L 234.581783 214.423482 
L 245.797159 210.892861 
L 257.012536 207.133105 
L 268.227912 203.147096 
L 279.443288 198.931473 
L 291.125972 194.300003 
L 302.341349 189.61903 
L 314.024032 184.503228 
L 325.239409 179.357018 
L 336.922093 173.7567 
L 348.137469 168.145537 
L 360.28746 161.811994 
L 371.502836 155.726337 
L 383.652828 148.878332 
L 394.868204 142.318686 
L 407.485502 134.667769 
L 418.700879 127.623984 
L 432.252792 118.813326 
L 442.533554 111.900869 
L 458.889311 100.540315 
L 467.300843 94.462065 
L 488.796982 78.481082 
L 505.152739 65.745105 
L 513.564271 59.301902 
L 514.966193 58.566105 
L 515.900808 58.251579 
L 516.835423 58.129248 
L 517.770037 58.250299 
L 518.704652 58.671808 
L 519.639267 59.455969 
L 520.573881 60.668938 
L 521.508496 62.379276 
L 522.443111 64.655973 
L 523.377725 67.566065 
L 524.31234 71.171884 
L 525.246955 75.527988 
L 526.18157 80.677886 
L 527.583492 89.949955 
L 528.985414 101.089392 
L 530.387336 114.004284 
L 532.256565 133.585433 
L 535.060409 166.038426 
L 537.864253 197.968298 
L 539.266175 211.976673 
L 540.668097 223.736274 
L 541.602712 230.016446 
L 542.537327 234.867796 
L 543.471942 238.170909 
L 543.939249 239.214602 
L 544.406556 239.843461 
L 544.406556 239.843461 
" clip-path="url(#p83bfb7f249)" style="fill: none; stroke: #8c564b; stroke-linecap: square"/>
   </g>
   <g id="line2d_31">
    <path d="M 66.351136 240.053523 
L 71.184699 240.032365 
L 76.018262 239.968892 
L 80.851825 239.863103 
L 85.685388 239.714999 
L 90.518951 239.524579 
L 95.352514 239.291844 
L 100.186077 239.016793 
L 105.01964 238.699427 
L 109.853202 238.339745 
L 114.686765 237.937748 
L 119.520328 237.493436 
L 124.353891 237.006808 
L 129.187454 236.477864 
L 134.021017 235.906605 
L 138.85458 235.29303 
L 143.688143 234.63714 
L 148.521706 233.938935 
L 153.355269 233.198414 
L 158.188831 232.415577 
L 163.022394 231.590425 
L 167.855957 230.722958 
L 172.68952 229.813175 
L 177.523083 228.861076 
L 182.356646 227.866662 
L 187.190209 226.829933 
L 192.023772 225.750888 
L 196.857335 224.629528 
L 201.690898 223.465852 
L 206.524461 222.25986 
L 211.358023 221.011553 
L 216.191586 219.720931 
L 221.025149 218.387993 
L 225.858712 217.01274 
L 230.692275 215.595171 
L 235.525838 214.135287 
L 240.359401 212.633087 
L 245.192964 211.088572 
L 250.026527 209.501741 
L 254.86009 207.872595 
L 259.693652 206.201133 
L 264.527215 204.487356 
L 269.360778 202.731263 
L 274.194341 200.932855 
L 279.027904 199.092131 
L 283.861467 197.209092 
L 288.69503 195.283737 
L 293.528593 193.316067 
L 298.362156 191.306081 
L 303.195719 189.25378 
L 308.029281 187.159164 
L 312.862844 185.022232 
L 317.696407 182.842984 
L 322.52997 180.621421 
L 327.363533 178.357542 
L 332.197096 176.051348 
L 337.030659 173.702839 
L 341.864222 171.312014 
L 346.697785 168.878873 
L 351.531348 166.403417 
L 356.36491 163.885646 
L 361.198473 161.325559 
L 366.032036 158.723156 
L 370.865599 156.078438 
L 375.699162 153.391405 
L 380.532725 150.662056 
L 385.366288 147.890391 
L 390.199851 145.076412 
L 395.033414 142.220116 
L 399.866977 139.321505 
L 404.700539 136.380579 
L 409.534102 133.397337 
L 414.367665 130.37178 
L 419.201228 127.303907 
L 424.034791 124.193719 
L 428.868354 121.041215 
L 433.701917 117.846395 
L 438.53548 114.609261 
L 443.369043 111.32981 
L 448.202606 108.008045 
L 453.036169 104.643963 
L 457.869731 101.237567 
L 462.703294 97.788854 
L 467.536857 94.297827 
L 472.37042 90.764484 
L 477.203983 87.188825 
L 482.037546 83.570851 
L 486.871109 79.910561 
L 491.704672 76.207956 
L 496.538235 72.463035 
L 501.371798 68.675799 
L 506.20536 64.846248 
L 511.038923 60.974381 
L 515.872486 57.060198 
L 520.706049 53.1037 
L 525.539612 49.104886 
L 530.373175 45.063757 
L 535.206738 40.980313 
L 540.040301 36.854553 
L 544.873864 32.686477 
" clip-path="url(#p83bfb7f249)" style="fill: none; stroke-dasharray: 3.7,1.6; stroke-dashoffset: 0; stroke: #000000"/>
   </g>
   <g id="patch_3">
    <path d="M 42.425 250.421875 
L 42.425 22.318125 
" style="fill: none; stroke: #000000; stroke-width: 0.8; stroke-linejoin: miter; stroke-linecap: square"/>
   </g>
   <g id="patch_4">
    <path d="M 568.8 250.421875 
L 568.8 22.318125 
" style="fill: none; stroke: #000000; stroke-width: 0.8; stroke-linejoin: miter; stroke-linecap: square"/>
   </g>
   <g id="patch_5">
    <path d="M 42.425 250.421875 
L 568.8 250.421875 
" style="fill: none; stroke: #000000; stroke-width: 0.8; stroke-linejoin: miter; stroke-linecap: square"/>
   </g>
   <g id="patch_6">
    <path d="M 42.425 22.318125 
L 568.8 22.318125 
" style="fill: none; stroke: #000000; stroke-width: 0.8; stroke-linejoin: miter; stroke-linecap: square"/>
   </g>
   <g id="text_15">
    <!-- Magnitude response of differentiator FIR filters -->
    <g transform="translate(165.38125 16.318125) scale(0.12 -0.12)">
     <defs>
      <path id="DejaVuSans-4d" d="M 628 4666 
L 1569 4666 
L 2759 1491 
L 3956 4666 
L 4897 4666 
L 4897 0 
L 4281 0 
L 4281 4097 
L 3078 897 
L 2444 897 
L 1241 4097 
L 1241 0 
L 628 0 
L 628 4666 
z
" transform="scale(0.015625)"/>
      <path id="DejaVuSans-67" d="M 2906 1791 
Q 2906 2416 2648 2759 
Q 2391 3103 1925 3103 
Q 1463 3103 1205 2759 
Q 947 2416 947 1791 
Q 947 1169 1205 825 
Q 1463 481 1925 481 
Q 2391 481 2648 825 
Q 2906 1169 2906 1791 
z
M 3481 434 
Q 3481 -459 3084 -895 
Q 2688 -1331 1869 -1331 
Q 1566 -1331 1297 -1286 
Q 1028 -1241 775 -1147 
L 775 -588 
Q 1028 -725 1275 -790 
Q 1522 -856 1778 -856 
Q 2344 -856 2625 -561 
Q 2906 -266 2906 331 
L 2906 616 
Q 2728 306 2450 153 
Q 2172 0 1784 0 
Q 1141 0 747 490 
Q 353 981 353 1791 
Q 353 2603 747 3093 
Q 1141 3584 1784 3584 
Q 2172 3584 2450 3431 
Q 2728 3278 2906 2969 
L 2906 3500 
L 3481 3500 
L 3481 434 
z
" transform="scale(0.015625)"/>
      <path id="DejaVuSans-74" d="M 1172 4494 
L 1172 3500 
L 2356 3500 
L 2356 3053 
L 1172 3053 
L 1172 1153 
Q 1172 725 1289 603 
Q 1406 481 1766 481 
L 2356 481 
L 2356 0 
L 1766 0 
Q 1100 0 847 248 
Q 594 497 594 1153 
L 594 3053 
L 172 3053 
L 172 3500 
L 594 3500 
L 594 4494 
L 1172 4494 
z
" transform="scale(0.015625)"/>
      <path id="DejaVuSans-73" d="M 2834 3397 
L 2834 2853 
Q 2591 2978 2328 3040 
Q 2066 3103 1784 3103 
Q 1356 3103 1142 2972 
Q 928 2841 928 2578 
Q 928 2378 1081 2264 
Q 1234 2150 1697 2047 
L 1894 2003 
Q 2506 1872 2764 1633 
Q 3022 1394 3022 966 
Q 3022 478 2636 193 
Q 2250 -91 1575 -91 
Q 1294 -91 989 -36 
Q 684 19 347 128 
L 347 722 
Q 666 556 975 473 
Q 1284 391 1588 391 
Q 1994 391 2212 530 
Q 2431 669 2431 922 
Q 2431 1156 2273 1281 
Q 2116 1406 1581 1522 
L 1381 1569 
Q 847 1681 609 1914 
Q 372 2147 372 2553 
Q 372 3047 722 3315 
Q 1072 3584 1716 3584 
Q 2034 3584 2315 3537 
Q 2597 3491 2834 3397 
z
" transform="scale(0.015625)"/>
      <path id="DejaVuSans-70" d="M 1159 525 
L 1159 -1331 
L 581 -1331 
L 581 3500 
L 1159 3500 
L 1159 2969 
Q 1341 3281 1617 3432 
Q 1894 3584 2278 3584 
Q 2916 3584 3314 3078 
Q 3713 2572 3713 1747 
Q 3713 922 3314 415 
Q 2916 -91 2278 -91 
Q 1894 -91 1617 61 
Q 1341 213 1159 525 
z
M 3116 1747 
Q 3116 2381 2855 2742 
Q 2594 3103 2138 3103 
Q 1681 3103 1420 2742 
Q 1159 2381 1159 1747 
Q 1159 1113 1420 752 
Q 1681 391 2138 391 
Q 2594 391 2855 752 
Q 3116 1113 3116 1747 
z
" transform="scale(0.015625)"/>
      <path id="DejaVuSans-46" d="M 628 4666 
L 3309 4666 
L 3309 4134 
L 1259 4134 
L 1259 2759 
L 3109 2759 
L 3109 2228 
L 1259 2228 
L 1259 0 
L 628 0 
L 628 4666 
z
" transform="scale(0.015625)"/>
      <path id="DejaVuSans-49" d="M 628 4666 
L 1259 4666 
L 1259 0 
L 628 0 
L 628 4666 
z
" transform="scale(0.015625)"/>
      <path id="DejaVuSans-52" d="M 2841 2188 
Q 3044 2119 3236 1894 
Q 3428 1669 3622 1275 
L 4263 0 
L 3584 0 
L 2988 1197 
Q 2756 1666 2539 1819 
Q 2322 1972 1947 1972 
L 1259 1972 
L 1259 0 
L 628 0 
L 628 4666 
L 2053 4666 
Q 2853 4666 3247 4331 
Q 3641 3997 3641 3322 
Q 3641 2881 3436 2590 
Q 3231 2300 2841 2188 
z
M 1259 4147 
L 1259 2491 
L 2053 2491 
Q 2509 2491 2742 2702 
Q 2975 2913 2975 3322 
Q 2975 3731 2742 3939 
Q 2509 4147 2053 4147 
L 1259 4147 
z
" transform="scale(0.015625)"/>
     </defs>
     <use xlink:href="#DejaVuSans-4d"/>
     <use xlink:href="#DejaVuSans-61" transform="translate(86.279297 0)"/>
     <use xlink:href="#DejaVuSans-67" transform="translate(147.558594 0)"/>
     <use xlink:href="#DejaVuSans-6e" transform="translate(211.035156 0)"/>
     <use xlink:href="#DejaVuSans-69" transform="translate(274.414062 0)"/>
     <use xlink:href="#DejaVuSans-74" transform="translate(302.197266 0)"/>
     <use xlink:href="#DejaVuSans-75" transform="translate(341.40625 0)"/>
     <use xlink:href="#DejaVuSans-64" transform="translate(404.785156 0)"/>
     <use xlink:href="#DejaVuSans-65" transform="translate(468.261719 0)"/>
     <use xlink:href="#DejaVuSans-20" transform="translate(529.785156 0)"/>
     <use xlink:href="#DejaVuSans-72" transform="translate(561.572266 0)"/>
     <use xlink:href="#DejaVuSans-65" transform="translate(600.435547 0)"/>
     <use xlink:href="#DejaVuSans-73" transform="translate(661.958984 0)"/>
     <use xlink:href="#DejaVuSans-70" transform="translate(714.058594 0)"/>
     <use xlink:href="#DejaVuSans-6f" transform="translate(777.535156 0)"/>
     <use xlink:href="#DejaVuSans-6e" transform="translate(838.716797 0)"/>
     <use xlink:href="#DejaVuSans-73" transform="translate(902.095703 0)"/>
     <use xlink:href="#DejaVuSans-65" transform="translate(954.195312 0)"/>
     <use xlink:href="#DejaVuSans-20" transform="translate(1015.71875 0)"/>
     <use xlink:href="#DejaVuSans-6f" transform="translate(1047.505859 0)"/>
     <use xlink:href="#DejaVuSans-66" transform="translate(1108.6875 0)"/>
     <use xlink:href="#DejaVuSans-20" transform="translate(1143.892578 0)"/>
     <use xlink:href="#DejaVuSans-64" transform="translate(1175.679688 0)"/>
     <use xlink:href="#DejaVuSans-69" transform="translate(1239.15625 0)"/>
     <use xlink:href="#DejaVuSans-66" transform="translate(1266.939453 0)"/>
     <use xlink:href="#DejaVuSans-66" transform="translate(1302.144531 0)"/>
     <use xlink:href="#DejaVuSans-65" transform="translate(1337.349609 0)"/>
     <use xlink:href="#DejaVuSans-72" transform="translate(1398.873047 0)"/>
     <use xlink:href="#DejaVuSans-65" transform="translate(1437.736328 0)"/>
     <use xlink:href="#DejaVuSans-6e" transform="translate(1499.259766 0)"/>
     <use xlink:href="#DejaVuSans-74" transform="translate(1562.638672 0)"/>
     <use xlink:href="#DejaVuSans-69" transform="translate(1601.847656 0)"/>
     <use xlink:href="#DejaVuSans-61" transform="translate(1629.630859 0)"/>
     <use xlink:href="#DejaVuSans-74" transform="translate(1690.910156 0)"/>
     <use xlink:href="#DejaVuSans-6f" transform="translate(1730.119141 0)"/>
     <use xlink:href="#DejaVuSans-72" transform="translate(1791.300781 0)"/>
     <use xlink:href="#DejaVuSans-20" transform="translate(1832.414062 0)"/>
     <use xlink:href="#DejaVuSans-46" transform="translate(1864.201172 0)"/>
     <use xlink:href="#DejaVuSans-49" transform="translate(1921.720703 0)"/>
     <use xlink:href="#DejaVuSans-52" transform="translate(1951.212891 0)"/>
     <use xlink:href="#DejaVuSans-20" transform="translate(2020.695312 0)"/>
     <use xlink:href="#DejaVuSans-66" transform="translate(2052.482422 0)"/>
     <use xlink:href="#DejaVuSans-69" transform="translate(2087.6875 0)"/>
     <use xlink:href="#DejaVuSans-6c" transform="translate(2115.470703 0)"/>
     <use xlink:href="#DejaVuSans-74" transform="translate(2143.253906 0)"/>
     <use xlink:href="#DejaVuSans-65" transform="translate(2182.462891 0)"/>
     <use xlink:href="#DejaVuSans-72" transform="translate(2243.986328 0)"/>
     <use xlink:href="#DejaVuSans-73" transform="translate(2285.099609 0)"/>
    </g>
   </g>
   <g id="legend_1">
    <g id="patch_7">
     <path d="M 49.425 133.065 
L 116.171875 133.065 
Q 118.171875 133.065 118.171875 131.065 
L 118.171875 29.318125 
Q 118.171875 27.318125 116.171875 27.318125 
L 49.425 27.318125 
Q 47.425 27.318125 47.425 29.318125 
L 47.425 131.065 
Q 47.425 133.065 49.425 133.065 
z
" style="fill: #ffffff; opacity: 0.8; stroke: #cccccc; stroke-linejoin: miter"/>
    </g>
    <g id="line2d_32">
     <path d="M 51.425 35.416562 
L 61.425 35.416562 
L 71.425 35.416562 
" style="fill: none; stroke: #1f77b4; stroke-linecap: square"/>
    </g>
    <g id="text_16">
     <!-- N=2 -->
     <g transform="translate(79.425 38.916562) scale(0.1 -0.1)">
      <defs>
       <path id="DejaVuSans-3d" d="M 678 2906 
L 4684 2906 
L 4684 2381 
L 678 2381 
L 678 2906 
z
M 678 1631 
L 4684 1631 
L 4684 1100 
L 678 1100 
L 678 1631 
z
" transform="scale(0.015625)"/>
      </defs>
      <use xlink:href="#DejaVuSans-4e"/>
      <use xlink:href="#DejaVuSans-3d" transform="translate(74.804688 0)"/>
      <use xlink:href="#DejaVuSans-32" transform="translate(158.59375 0)"/>
     </g>
    </g>
    <g id="line2d_33">
     <path d="M 51.425 50.094688 
L 61.425 50.094688 
L 71.425 50.094688 
" style="fill: none; stroke: #ff7f0e; stroke-linecap: square"/>
    </g>
    <g id="text_17">
     <!-- N=6 -->
     <g transform="translate(79.425 53.594688) scale(0.1 -0.1)">
      <use xlink:href="#DejaVuSans-4e"/>
      <use xlink:href="#DejaVuSans-3d" transform="translate(74.804688 0)"/>
      <use xlink:href="#DejaVuSans-36" transform="translate(158.59375 0)"/>
     </g>
    </g>
    <g id="line2d_34">
     <path d="M 51.425 64.772812 
L 61.425 64.772812 
L 71.425 64.772812 
" style="fill: none; stroke: #2ca02c; stroke-linecap: square"/>
    </g>
    <g id="text_18">
     <!-- N=10 -->
     <g transform="translate(79.425 68.272812) scale(0.1 -0.1)">
      <use xlink:href="#DejaVuSans-4e"/>
      <use xlink:href="#DejaVuSans-3d" transform="translate(74.804688 0)"/>
      <use xlink:href="#DejaVuSans-31" transform="translate(158.59375 0)"/>
      <use xlink:href="#DejaVuSans-30" transform="translate(222.216797 0)"/>
     </g>
    </g>
    <g id="line2d_35">
     <path d="M 51.425 79.450938 
L 61.425 79.450938 
L 71.425 79.450938 
" style="fill: none; stroke: #d62728; stroke-linecap: square"/>
    </g>
    <g id="text_19">
     <!-- N=20 -->
     <g transform="translate(79.425 82.950938) scale(0.1 -0.1)">
      <use xlink:href="#DejaVuSans-4e"/>
      <use xlink:href="#DejaVuSans-3d" transform="translate(74.804688 0)"/>
      <use xlink:href="#DejaVuSans-32" transform="translate(158.59375 0)"/>
      <use xlink:href="#DejaVuSans-30" transform="translate(222.216797 0)"/>
     </g>
    </g>
    <g id="line2d_36">
     <path d="M 51.425 94.129063 
L 61.425 94.129063 
L 71.425 94.129063 
" style="fill: none; stroke: #9467bd; stroke-linecap: square"/>
    </g>
    <g id="text_20">
     <!-- N=40 -->
     <g transform="translate(79.425 97.629063) scale(0.1 -0.1)">
      <use xlink:href="#DejaVuSans-4e"/>
      <use xlink:href="#DejaVuSans-3d" transform="translate(74.804688 0)"/>
      <use xlink:href="#DejaVuSans-34" transform="translate(158.59375 0)"/>
      <use xlink:href="#DejaVuSans-30" transform="translate(222.216797 0)"/>
     </g>
    </g>
    <g id="line2d_37">
     <path d="M 51.425 108.807187 
L 61.425 108.807187 
L 71.425 108.807187 
" style="fill: none; stroke: #8c564b; stroke-linecap: square"/>
    </g>
    <g id="text_21">
     <!-- N=80 -->
     <g transform="translate(79.425 112.307187) scale(0.1 -0.1)">
      <use xlink:href="#DejaVuSans-4e"/>
      <use xlink:href="#DejaVuSans-3d" transform="translate(74.804688 0)"/>
      <use xlink:href="#DejaVuSans-38" transform="translate(158.59375 0)"/>
      <use xlink:href="#DejaVuSans-30" transform="translate(222.216797 0)"/>
     </g>
    </g>
    <g id="line2d_38">
     <path d="M 51.425 123.485312 
L 61.425 123.485312 
L 71.425 123.485312 
" style="fill: none; stroke-dasharray: 3.7,1.6; stroke-dashoffset: 0; stroke: #000000"/>
    </g>
    <g id="text_22">
     <!-- Theory -->
     <g transform="translate(79.425 126.985312) scale(0.1 -0.1)">
      <defs>
       <path id="DejaVuSans-54" d="M -19 4666 
L 3928 4666 
L 3928 4134 
L 2272 4134 
L 2272 0 
L 1638 0 
L 1638 4134 
L -19 4134 
L -19 4666 
z
" transform="scale(0.015625)"/>
       <path id="DejaVuSans-68" d="M 3513 2113 
L 3513 0 
L 2938 0 
L 2938 2094 
Q 2938 2591 2744 2837 
Q 2550 3084 2163 3084 
Q 1697 3084 1428 2787 
Q 1159 2491 1159 1978 
L 1159 0 
L 581 0 
L 581 4863 
L 1159 4863 
L 1159 2956 
Q 1366 3272 1645 3428 
Q 1925 3584 2291 3584 
Q 2894 3584 3203 3211 
Q 3513 2838 3513 2113 
z
" transform="scale(0.015625)"/>
      </defs>
      <use xlink:href="#DejaVuSans-54"/>
      <use xlink:href="#DejaVuSans-68" transform="translate(61.083984 0)"/>
      <use xlink:href="#DejaVuSans-65" transform="translate(124.462891 0)"/>
      <use xlink:href="#DejaVuSans-6f" transform="translate(185.986328 0)"/>
      <use xlink:href="#DejaVuSans-72" transform="translate(247.167969 0)"/>
      <use xlink:href="#DejaVuSans-79" transform="translate(288.28125 0)"/>
     </g>
    </g>
   </g>
  </g>
 </g>
 <defs>
  <clipPath id="p83bfb7f249">
   <rect x="42.425" y="22.318125" width="526.375" height="228.10375"/>
  </clipPath>
 </defs>
</svg>
