<?xml version="1.0" encoding="utf-8" standalone="no"?>
<!DOCTYPE svg PUBLIC "-//W3C//DTD SVG 1.1//EN"
  "http://www.w3.org/Graphics/SVG/1.1/DTD/svg11.dtd">
<svg xmlns:xlink="http://www.w3.org/1999/xlink" width="576pt" height="288pt" viewBox="0 0 576 288" xmlns="http://www.w3.org/2000/svg" version="1.1">
 <metadata>
  <rdf:RDF xmlns:dc="http://purl.org/dc/elements/1.1/" xmlns:cc="http://creativecommons.org/ns#" xmlns:rdf="http://www.w3.org/1999/02/22-rdf-syntax-ns#">
   <cc:Work>
    <dc:type rdf:resource="http://purl.org/dc/dcmitype/StillImage"/>
    <dc:date>2025-05-10T16:17:10.394922</dc:date>
    <dc:format>image/svg+xml</dc:format>
    <dc:creator>
     <cc:Agent>
      <dc:title>Matplotlib v3.10.3, https://matplotlib.org/</dc:title>
     </cc:Agent>
    </dc:creator>
   </cc:Work>
  </rdf:RDF>
 </metadata>
 <defs>
  <style type="text/css">*{stroke-linejoin: round; stroke-linecap: butt}</style>
 </defs>
 <g id="figure_1">
  <g id="patch_1">
   <path d="M 0 288 
L 576 288 
L 576 0 
L 0 0 
z
" style="fill: #ffffff"/>
  </g>
  <g id="axes_1">
   <g id="patch_2">
    <path d="M 43.803125 248.921875 
L 568.8 248.921875 
L 568.8 22.318125 
L 43.803125 22.318125 
z
" style="fill: #ffffff"/>
   </g>
   <g id="matplotlib.axis_1">
    <g id="xtick_1">
     <g id="line2d_1">
      <path d="M 67.666619 248.921875 
L 67.666619 22.318125 
" clip-path="url(#pd61321dc05)" style="fill: none; stroke-dasharray: 2.96,1.28; stroke-dashoffset: 0; stroke: #b0b0b0; stroke-opacity: 0.8; stroke-width: 0.8"/>
     </g>
     <g id="line2d_2">
      <defs>
       <path id="m6c2a174ded" d="M 0 0 
L 0 3.5 
" style="stroke: #000000; stroke-width: 0.8"/>
      </defs>
      <g>
       <use xlink:href="#m6c2a174ded" x="67.666619" y="248.921875" style="stroke: #000000; stroke-width: 0.8"/>
      </g>
     </g>
     <g id="text_1">
      <!-- −10 -->
      <g transform="translate(57.114276 263.520312) scale(0.1 -0.1)">
       <defs>
        <path id="DejaVuSans-2212" d="M 678 2272 
L 4684 2272 
L 4684 1741 
L 678 1741 
L 678 2272 
z
" transform="scale(0.015625)"/>
        <path id="DejaVuSans-31" d="M 794 531 
L 1825 531 
L 1825 4091 
L 703 3866 
L 703 4441 
L 1819 4666 
L 2450 4666 
L 2450 531 
L 3481 531 
L 3481 0 
L 794 0 
L 794 531 
z
" transform="scale(0.015625)"/>
        <path id="DejaVuSans-30" d="M 2034 4250 
Q 1547 4250 1301 3770 
Q 1056 3291 1056 2328 
Q 1056 1369 1301 889 
Q 1547 409 2034 409 
Q 2525 409 2770 889 
Q 3016 1369 3016 2328 
Q 3016 3291 2770 3770 
Q 2525 4250 2034 4250 
z
M 2034 4750 
Q 2819 4750 3233 4129 
Q 3647 3509 3647 2328 
Q 3647 1150 3233 529 
Q 2819 -91 2034 -91 
Q 1250 -91 836 529 
Q 422 1150 422 2328 
Q 422 3509 836 4129 
Q 1250 4750 2034 4750 
z
" transform="scale(0.015625)"/>
       </defs>
       <use xlink:href="#DejaVuSans-2212"/>
       <use xlink:href="#DejaVuSans-31" transform="translate(83.789062 0)"/>
       <use xlink:href="#DejaVuSans-30" transform="translate(147.412109 0)"/>
      </g>
     </g>
    </g>
    <g id="xtick_2">
     <g id="line2d_3">
      <path d="M 147.2116 248.921875 
L 147.2116 22.318125 
" clip-path="url(#pd61321dc05)" style="fill: none; stroke-dasharray: 2.96,1.28; stroke-dashoffset: 0; stroke: #b0b0b0; stroke-opacity: 0.8; stroke-width: 0.8"/>
     </g>
     <g id="line2d_4">
      <g>
       <use xlink:href="#m6c2a174ded" x="147.2116" y="248.921875" style="stroke: #000000; stroke-width: 0.8"/>
      </g>
     </g>
     <g id="text_2">
      <!-- −5 -->
      <g transform="translate(139.840507 263.520312) scale(0.1 -0.1)">
       <defs>
        <path id="DejaVuSans-35" d="M 691 4666 
L 3169 4666 
L 3169 4134 
L 1269 4134 
L 1269 2991 
Q 1406 3038 1543 3061 
Q 1681 3084 1819 3084 
Q 2600 3084 3056 2656 
Q 3513 2228 3513 1497 
Q 3513 744 3044 326 
Q 2575 -91 1722 -91 
Q 1428 -91 1123 -41 
Q 819 9 494 109 
L 494 744 
Q 775 591 1075 516 
Q 1375 441 1709 441 
Q 2250 441 2565 725 
Q 2881 1009 2881 1497 
Q 2881 1984 2565 2268 
Q 2250 2553 1709 2553 
Q 1456 2553 1204 2497 
Q 953 2441 691 2322 
L 691 4666 
z
" transform="scale(0.015625)"/>
       </defs>
       <use xlink:href="#DejaVuSans-2212"/>
       <use xlink:href="#DejaVuSans-35" transform="translate(83.789062 0)"/>
      </g>
     </g>
    </g>
    <g id="xtick_3">
     <g id="line2d_5">
      <path d="M 226.756581 248.921875 
L 226.756581 22.318125 
" clip-path="url(#pd61321dc05)" style="fill: none; stroke-dasharray: 2.96,1.28; stroke-dashoffset: 0; stroke: #b0b0b0; stroke-opacity: 0.8; stroke-width: 0.8"/>
     </g>
     <g id="line2d_6">
      <g>
       <use xlink:href="#m6c2a174ded" x="226.756581" y="248.921875" style="stroke: #000000; stroke-width: 0.8"/>
      </g>
     </g>
     <g id="text_3">
      <!-- 0 -->
      <g transform="translate(223.575331 263.520312) scale(0.1 -0.1)">
       <use xlink:href="#DejaVuSans-30"/>
      </g>
     </g>
    </g>
    <g id="xtick_4">
     <g id="line2d_7">
      <path d="M 306.301563 248.921875 
L 306.301563 22.318125 
" clip-path="url(#pd61321dc05)" style="fill: none; stroke-dasharray: 2.96,1.28; stroke-dashoffset: 0; stroke: #b0b0b0; stroke-opacity: 0.8; stroke-width: 0.8"/>
     </g>
     <g id="line2d_8">
      <g>
       <use xlink:href="#m6c2a174ded" x="306.301563" y="248.921875" style="stroke: #000000; stroke-width: 0.8"/>
      </g>
     </g>
     <g id="text_4">
      <!-- 5 -->
      <g transform="translate(303.120313 263.520312) scale(0.1 -0.1)">
       <use xlink:href="#DejaVuSans-35"/>
      </g>
     </g>
    </g>
    <g id="xtick_5">
     <g id="line2d_9">
      <path d="M 385.846544 248.921875 
L 385.846544 22.318125 
" clip-path="url(#pd61321dc05)" style="fill: none; stroke-dasharray: 2.96,1.28; stroke-dashoffset: 0; stroke: #b0b0b0; stroke-opacity: 0.8; stroke-width: 0.8"/>
     </g>
     <g id="line2d_10">
      <g>
       <use xlink:href="#m6c2a174ded" x="385.846544" y="248.921875" style="stroke: #000000; stroke-width: 0.8"/>
      </g>
     </g>
     <g id="text_5">
      <!-- 10 -->
      <g transform="translate(379.484044 263.520312) scale(0.1 -0.1)">
       <use xlink:href="#DejaVuSans-31"/>
       <use xlink:href="#DejaVuSans-30" transform="translate(63.623047 0)"/>
      </g>
     </g>
    </g>
    <g id="xtick_6">
     <g id="line2d_11">
      <path d="M 465.391525 248.921875 
L 465.391525 22.318125 
" clip-path="url(#pd61321dc05)" style="fill: none; stroke-dasharray: 2.96,1.28; stroke-dashoffset: 0; stroke: #b0b0b0; stroke-opacity: 0.8; stroke-width: 0.8"/>
     </g>
     <g id="line2d_12">
      <g>
       <use xlink:href="#m6c2a174ded" x="465.391525" y="248.921875" style="stroke: #000000; stroke-width: 0.8"/>
      </g>
     </g>
     <g id="text_6">
      <!-- 15 -->
      <g transform="translate(459.029025 263.520312) scale(0.1 -0.1)">
       <use xlink:href="#DejaVuSans-31"/>
       <use xlink:href="#DejaVuSans-35" transform="translate(63.623047 0)"/>
      </g>
     </g>
    </g>
    <g id="xtick_7">
     <g id="line2d_13">
      <path d="M 544.936506 248.921875 
L 544.936506 22.318125 
" clip-path="url(#pd61321dc05)" style="fill: none; stroke-dasharray: 2.96,1.28; stroke-dashoffset: 0; stroke: #b0b0b0; stroke-opacity: 0.8; stroke-width: 0.8"/>
     </g>
     <g id="line2d_14">
      <g>
       <use xlink:href="#m6c2a174ded" x="544.936506" y="248.921875" style="stroke: #000000; stroke-width: 0.8"/>
      </g>
     </g>
     <g id="text_7">
      <!-- 20 -->
      <g transform="translate(538.574006 263.520312) scale(0.1 -0.1)">
       <defs>
        <path id="DejaVuSans-32" d="M 1228 531 
L 3431 531 
L 3431 0 
L 469 0 
L 469 531 
Q 828 903 1448 1529 
Q 2069 2156 2228 2338 
Q 2531 2678 2651 2914 
Q 2772 3150 2772 3378 
Q 2772 3750 2511 3984 
Q 2250 4219 1831 4219 
Q 1534 4219 1204 4116 
Q 875 4013 500 3803 
L 500 4441 
Q 881 4594 1212 4672 
Q 1544 4750 1819 4750 
Q 2544 4750 2975 4387 
Q 3406 4025 3406 3419 
Q 3406 3131 3298 2873 
Q 3191 2616 2906 2266 
Q 2828 2175 2409 1742 
Q 1991 1309 1228 531 
z
" transform="scale(0.015625)"/>
       </defs>
       <use xlink:href="#DejaVuSans-32"/>
       <use xlink:href="#DejaVuSans-30" transform="translate(63.623047 0)"/>
      </g>
     </g>
    </g>
    <g id="text_8">
     <!-- Signal-to-noise ratio (dB), $S/\sigma^2$ -->
     <g transform="translate(230.001563 278.7) scale(0.1 -0.1)">
      <defs>
       <path id="DejaVuSans-53" d="M 3425 4513 
L 3425 3897 
Q 3066 4069 2747 4153 
Q 2428 4238 2131 4238 
Q 1616 4238 1336 4038 
Q 1056 3838 1056 3469 
Q 1056 3159 1242 3001 
Q 1428 2844 1947 2747 
L 2328 2669 
Q 3034 2534 3370 2195 
Q 3706 1856 3706 1288 
Q 3706 609 3251 259 
Q 2797 -91 1919 -91 
Q 1588 -91 1214 -16 
Q 841 59 441 206 
L 441 856 
Q 825 641 1194 531 
Q 1563 422 1919 422 
Q 2459 422 2753 634 
Q 3047 847 3047 1241 
Q 3047 1584 2836 1778 
Q 2625 1972 2144 2069 
L 1759 2144 
Q 1053 2284 737 2584 
Q 422 2884 422 3419 
Q 422 4038 858 4394 
Q 1294 4750 2059 4750 
Q 2388 4750 2728 4690 
Q 3069 4631 3425 4513 
z
" transform="scale(0.015625)"/>
       <path id="DejaVuSans-69" d="M 603 3500 
L 1178 3500 
L 1178 0 
L 603 0 
L 603 3500 
z
M 603 4863 
L 1178 4863 
L 1178 4134 
L 603 4134 
L 603 4863 
z
" transform="scale(0.015625)"/>
       <path id="DejaVuSans-67" d="M 2906 1791 
Q 2906 2416 2648 2759 
Q 2391 3103 1925 3103 
Q 1463 3103 1205 2759 
Q 947 2416 947 1791 
Q 947 1169 1205 825 
Q 1463 481 1925 481 
Q 2391 481 2648 825 
Q 2906 1169 2906 1791 
z
M 3481 434 
Q 3481 -459 3084 -895 
Q 2688 -1331 1869 -1331 
Q 1566 -1331 1297 -1286 
Q 1028 -1241 775 -1147 
L 775 -588 
Q 1028 -725 1275 -790 
Q 1522 -856 1778 -856 
Q 2344 -856 2625 -561 
Q 2906 -266 2906 331 
L 2906 616 
Q 2728 306 2450 153 
Q 2172 0 1784 0 
Q 1141 0 747 490 
Q 353 981 353 1791 
Q 353 2603 747 3093 
Q 1141 3584 1784 3584 
Q 2172 3584 2450 3431 
Q 2728 3278 2906 2969 
L 2906 3500 
L 3481 3500 
L 3481 434 
z
" transform="scale(0.015625)"/>
       <path id="DejaVuSans-6e" d="M 3513 2113 
L 3513 0 
L 2938 0 
L 2938 2094 
Q 2938 2591 2744 2837 
Q 2550 3084 2163 3084 
Q 1697 3084 1428 2787 
Q 1159 2491 1159 1978 
L 1159 0 
L 581 0 
L 581 3500 
L 1159 3500 
L 1159 2956 
Q 1366 3272 1645 3428 
Q 1925 3584 2291 3584 
Q 2894 3584 3203 3211 
Q 3513 2838 3513 2113 
z
" transform="scale(0.015625)"/>
       <path id="DejaVuSans-61" d="M 2194 1759 
Q 1497 1759 1228 1600 
Q 959 1441 959 1056 
Q 959 750 1161 570 
Q 1363 391 1709 391 
Q 2188 391 2477 730 
Q 2766 1069 2766 1631 
L 2766 1759 
L 2194 1759 
z
M 3341 1997 
L 3341 0 
L 2766 0 
L 2766 531 
Q 2569 213 2275 61 
Q 1981 -91 1556 -91 
Q 1019 -91 701 211 
Q 384 513 384 1019 
Q 384 1609 779 1909 
Q 1175 2209 1959 2209 
L 2766 2209 
L 2766 2266 
Q 2766 2663 2505 2880 
Q 2244 3097 1772 3097 
Q 1472 3097 1187 3025 
Q 903 2953 641 2809 
L 641 3341 
Q 956 3463 1253 3523 
Q 1550 3584 1831 3584 
Q 2591 3584 2966 3190 
Q 3341 2797 3341 1997 
z
" transform="scale(0.015625)"/>
       <path id="DejaVuSans-6c" d="M 603 4863 
L 1178 4863 
L 1178 0 
L 603 0 
L 603 4863 
z
" transform="scale(0.015625)"/>
       <path id="DejaVuSans-2d" d="M 313 2009 
L 1997 2009 
L 1997 1497 
L 313 1497 
L 313 2009 
z
" transform="scale(0.015625)"/>
       <path id="DejaVuSans-74" d="M 1172 4494 
L 1172 3500 
L 2356 3500 
L 2356 3053 
L 1172 3053 
L 1172 1153 
Q 1172 725 1289 603 
Q 1406 481 1766 481 
L 2356 481 
L 2356 0 
L 1766 0 
Q 1100 0 847 248 
Q 594 497 594 1153 
L 594 3053 
L 172 3053 
L 172 3500 
L 594 3500 
L 594 4494 
L 1172 4494 
z
" transform="scale(0.015625)"/>
       <path id="DejaVuSans-6f" d="M 1959 3097 
Q 1497 3097 1228 2736 
Q 959 2375 959 1747 
Q 959 1119 1226 758 
Q 1494 397 1959 397 
Q 2419 397 2687 759 
Q 2956 1122 2956 1747 
Q 2956 2369 2687 2733 
Q 2419 3097 1959 3097 
z
M 1959 3584 
Q 2709 3584 3137 3096 
Q 3566 2609 3566 1747 
Q 3566 888 3137 398 
Q 2709 -91 1959 -91 
Q 1206 -91 779 398 
Q 353 888 353 1747 
Q 353 2609 779 3096 
Q 1206 3584 1959 3584 
z
" transform="scale(0.015625)"/>
       <path id="DejaVuSans-73" d="M 2834 3397 
L 2834 2853 
Q 2591 2978 2328 3040 
Q 2066 3103 1784 3103 
Q 1356 3103 1142 2972 
Q 928 2841 928 2578 
Q 928 2378 1081 2264 
Q 1234 2150 1697 2047 
L 1894 2003 
Q 2506 1872 2764 1633 
Q 3022 1394 3022 966 
Q 3022 478 2636 193 
Q 2250 -91 1575 -91 
Q 1294 -91 989 -36 
Q 684 19 347 128 
L 347 722 
Q 666 556 975 473 
Q 1284 391 1588 391 
Q 1994 391 2212 530 
Q 2431 669 2431 922 
Q 2431 1156 2273 1281 
Q 2116 1406 1581 1522 
L 1381 1569 
Q 847 1681 609 1914 
Q 372 2147 372 2553 
Q 372 3047 722 3315 
Q 1072 3584 1716 3584 
Q 2034 3584 2315 3537 
Q 2597 3491 2834 3397 
z
" transform="scale(0.015625)"/>
       <path id="DejaVuSans-65" d="M 3597 1894 
L 3597 1613 
L 953 1613 
Q 991 1019 1311 708 
Q 1631 397 2203 397 
Q 2534 397 2845 478 
Q 3156 559 3463 722 
L 3463 178 
Q 3153 47 2828 -22 
Q 2503 -91 2169 -91 
Q 1331 -91 842 396 
Q 353 884 353 1716 
Q 353 2575 817 3079 
Q 1281 3584 2069 3584 
Q 2775 3584 3186 3129 
Q 3597 2675 3597 1894 
z
M 3022 2063 
Q 3016 2534 2758 2815 
Q 2500 3097 2075 3097 
Q 1594 3097 1305 2825 
Q 1016 2553 972 2059 
L 3022 2063 
z
" transform="scale(0.015625)"/>
       <path id="DejaVuSans-20" transform="scale(0.015625)"/>
       <path id="DejaVuSans-72" d="M 2631 2963 
Q 2534 3019 2420 3045 
Q 2306 3072 2169 3072 
Q 1681 3072 1420 2755 
Q 1159 2438 1159 1844 
L 1159 0 
L 581 0 
L 581 3500 
L 1159 3500 
L 1159 2956 
Q 1341 3275 1631 3429 
Q 1922 3584 2338 3584 
Q 2397 3584 2469 3576 
Q 2541 3569 2628 3553 
L 2631 2963 
z
" transform="scale(0.015625)"/>
       <path id="DejaVuSans-28" d="M 1984 4856 
Q 1566 4138 1362 3434 
Q 1159 2731 1159 2009 
Q 1159 1288 1364 580 
Q 1569 -128 1984 -844 
L 1484 -844 
Q 1016 -109 783 600 
Q 550 1309 550 2009 
Q 550 2706 781 3412 
Q 1013 4119 1484 4856 
L 1984 4856 
z
" transform="scale(0.015625)"/>
       <path id="DejaVuSans-64" d="M 2906 2969 
L 2906 4863 
L 3481 4863 
L 3481 0 
L 2906 0 
L 2906 525 
Q 2725 213 2448 61 
Q 2172 -91 1784 -91 
Q 1150 -91 751 415 
Q 353 922 353 1747 
Q 353 2572 751 3078 
Q 1150 3584 1784 3584 
Q 2172 3584 2448 3432 
Q 2725 3281 2906 2969 
z
M 947 1747 
Q 947 1113 1208 752 
Q 1469 391 1925 391 
Q 2381 391 2643 752 
Q 2906 1113 2906 1747 
Q 2906 2381 2643 2742 
Q 2381 3103 1925 3103 
Q 1469 3103 1208 2742 
Q 947 2381 947 1747 
z
" transform="scale(0.015625)"/>
       <path id="DejaVuSans-42" d="M 1259 2228 
L 1259 519 
L 2272 519 
Q 2781 519 3026 730 
Q 3272 941 3272 1375 
Q 3272 1813 3026 2020 
Q 2781 2228 2272 2228 
L 1259 2228 
z
M 1259 4147 
L 1259 2741 
L 2194 2741 
Q 2656 2741 2882 2914 
Q 3109 3088 3109 3444 
Q 3109 3797 2882 3972 
Q 2656 4147 2194 4147 
L 1259 4147 
z
M 628 4666 
L 2241 4666 
Q 2963 4666 3353 4366 
Q 3744 4066 3744 3513 
Q 3744 3084 3544 2831 
Q 3344 2578 2956 2516 
Q 3422 2416 3680 2098 
Q 3938 1781 3938 1306 
Q 3938 681 3513 340 
Q 3088 0 2303 0 
L 628 0 
L 628 4666 
z
" transform="scale(0.015625)"/>
       <path id="DejaVuSans-29" d="M 513 4856 
L 1013 4856 
Q 1481 4119 1714 3412 
Q 1947 2706 1947 2009 
Q 1947 1309 1714 600 
Q 1481 -109 1013 -844 
L 513 -844 
Q 928 -128 1133 580 
Q 1338 1288 1338 2009 
Q 1338 2731 1133 3434 
Q 928 4138 513 4856 
z
" transform="scale(0.015625)"/>
       <path id="DejaVuSans-2c" d="M 750 794 
L 1409 794 
L 1409 256 
L 897 -744 
L 494 -744 
L 750 256 
L 750 794 
z
" transform="scale(0.015625)"/>
       <path id="DejaVuSans-Oblique-53" d="M 3859 4513 
L 3738 3897 
Q 3422 4066 3111 4152 
Q 2800 4238 2509 4238 
Q 1944 4238 1609 3991 
Q 1275 3744 1275 3334 
Q 1275 3109 1398 2989 
Q 1522 2869 2034 2731 
L 2413 2638 
Q 3053 2472 3303 2217 
Q 3553 1963 3553 1503 
Q 3553 797 2998 353 
Q 2444 -91 1538 -91 
Q 1166 -91 791 -17 
Q 416 56 38 206 
L 166 856 
Q 513 641 861 531 
Q 1209 422 1556 422 
Q 2147 422 2503 684 
Q 2859 947 2859 1369 
Q 2859 1650 2717 1795 
Q 2575 1941 2106 2059 
L 1728 2156 
Q 1081 2325 845 2545 
Q 609 2766 609 3163 
Q 609 3859 1145 4304 
Q 1681 4750 2541 4750 
Q 2875 4750 3203 4690 
Q 3531 4631 3859 4513 
z
" transform="scale(0.015625)"/>
       <path id="DejaVuSans-2f" d="M 1625 4666 
L 2156 4666 
L 531 -594 
L 0 -594 
L 1625 4666 
z
" transform="scale(0.015625)"/>
       <path id="DejaVuSans-Oblique-3c3" d="M 2219 3044 
Q 1744 3044 1422 2700 
Q 1081 2341 969 1747 
Q 844 1119 1044 756 
Q 1241 397 1706 397 
Q 2166 397 2503 759 
Q 2844 1122 2966 1747 
Q 3075 2319 2881 2700 
Q 2700 3044 2219 3044 
z
M 2309 3503 
L 4219 3500 
L 4106 2925 
L 3463 2925 
Q 3706 2438 3575 1747 
Q 3406 888 2884 400 
Q 2359 -91 1609 -91 
Q 856 -91 525 400 
Q 194 888 363 1747 
Q 528 2609 1050 3097 
Q 1484 3503 2309 3503 
z
" transform="scale(0.015625)"/>
      </defs>
      <use xlink:href="#DejaVuSans-53" transform="translate(0 0.765625)"/>
      <use xlink:href="#DejaVuSans-69" transform="translate(63.476562 0.765625)"/>
      <use xlink:href="#DejaVuSans-67" transform="translate(91.259766 0.765625)"/>
      <use xlink:href="#DejaVuSans-6e" transform="translate(154.736328 0.765625)"/>
      <use xlink:href="#DejaVuSans-61" transform="translate(218.115234 0.765625)"/>
      <use xlink:href="#DejaVuSans-6c" transform="translate(279.394531 0.765625)"/>
      <use xlink:href="#DejaVuSans-2d" transform="translate(307.177734 0.765625)"/>
      <use xlink:href="#DejaVuSans-74" transform="translate(343.261719 0.765625)"/>
      <use xlink:href="#DejaVuSans-6f" transform="translate(382.470703 0.765625)"/>
      <use xlink:href="#DejaVuSans-2d" transform="translate(443.652344 0.765625)"/>
      <use xlink:href="#DejaVuSans-6e" transform="translate(479.736328 0.765625)"/>
      <use xlink:href="#DejaVuSans-6f" transform="translate(543.115234 0.765625)"/>
      <use xlink:href="#DejaVuSans-69" transform="translate(604.296875 0.765625)"/>
      <use xlink:href="#DejaVuSans-73" transform="translate(632.080078 0.765625)"/>
      <use xlink:href="#DejaVuSans-65" transform="translate(684.179688 0.765625)"/>
      <use xlink:href="#DejaVuSans-20" transform="translate(745.703125 0.765625)"/>
      <use xlink:href="#DejaVuSans-72" transform="translate(777.490234 0.765625)"/>
      <use xlink:href="#DejaVuSans-61" transform="translate(818.603516 0.765625)"/>
      <use xlink:href="#DejaVuSans-74" transform="translate(879.882812 0.765625)"/>
      <use xlink:href="#DejaVuSans-69" transform="translate(919.091797 0.765625)"/>
      <use xlink:href="#DejaVuSans-6f" transform="translate(946.875 0.765625)"/>
      <use xlink:href="#DejaVuSans-20" transform="translate(1008.056641 0.765625)"/>
      <use xlink:href="#DejaVuSans-28" transform="translate(1039.84375 0.765625)"/>
      <use xlink:href="#DejaVuSans-64" transform="translate(1078.857422 0.765625)"/>
      <use xlink:href="#DejaVuSans-42" transform="translate(1142.333984 0.765625)"/>
      <use xlink:href="#DejaVuSans-29" transform="translate(1210.9375 0.765625)"/>
      <use xlink:href="#DejaVuSans-2c" transform="translate(1249.951172 0.765625)"/>
      <use xlink:href="#DejaVuSans-20" transform="translate(1281.738281 0.765625)"/>
      <use xlink:href="#DejaVuSans-Oblique-53" transform="translate(1313.525391 0.765625)"/>
      <use xlink:href="#DejaVuSans-2f" transform="translate(1377.001953 0.765625)"/>
      <use xlink:href="#DejaVuSans-Oblique-3c3" transform="translate(1410.693359 0.765625)"/>
      <use xlink:href="#DejaVuSans-32" transform="translate(1478.544974 39.046875) scale(0.7)"/>
     </g>
    </g>
   </g>
   <g id="matplotlib.axis_2">
    <g id="ytick_1">
     <g id="line2d_15">
      <path d="M 43.803125 238.621705 
L 568.8 238.621705 
" clip-path="url(#pd61321dc05)" style="fill: none; stroke-dasharray: 2.96,1.28; stroke-dashoffset: 0; stroke: #b0b0b0; stroke-opacity: 0.8; stroke-width: 0.8"/>
     </g>
     <g id="line2d_16">
      <defs>
       <path id="mf95ae7e6e2" d="M 0 0 
L -3.5 0 
" style="stroke: #000000; stroke-width: 0.8"/>
      </defs>
      <g>
       <use xlink:href="#mf95ae7e6e2" x="43.803125" y="238.621705" style="stroke: #000000; stroke-width: 0.8"/>
      </g>
     </g>
     <g id="text_9">
      <!-- 0.0 -->
      <g transform="translate(20.9 242.420923) scale(0.1 -0.1)">
       <defs>
        <path id="DejaVuSans-2e" d="M 684 794 
L 1344 794 
L 1344 0 
L 684 0 
L 684 794 
z
" transform="scale(0.015625)"/>
       </defs>
       <use xlink:href="#DejaVuSans-30"/>
       <use xlink:href="#DejaVuSans-2e" transform="translate(63.623047 0)"/>
       <use xlink:href="#DejaVuSans-30" transform="translate(95.410156 0)"/>
      </g>
     </g>
    </g>
    <g id="ytick_2">
     <g id="line2d_17">
      <path d="M 43.803125 197.421023 
L 568.8 197.421023 
" clip-path="url(#pd61321dc05)" style="fill: none; stroke-dasharray: 2.96,1.28; stroke-dashoffset: 0; stroke: #b0b0b0; stroke-opacity: 0.8; stroke-width: 0.8"/>
     </g>
     <g id="line2d_18">
      <g>
       <use xlink:href="#mf95ae7e6e2" x="43.803125" y="197.421023" style="stroke: #000000; stroke-width: 0.8"/>
      </g>
     </g>
     <g id="text_10">
      <!-- 0.2 -->
      <g transform="translate(20.9 201.220241) scale(0.1 -0.1)">
       <use xlink:href="#DejaVuSans-30"/>
       <use xlink:href="#DejaVuSans-2e" transform="translate(63.623047 0)"/>
       <use xlink:href="#DejaVuSans-32" transform="translate(95.410156 0)"/>
      </g>
     </g>
    </g>
    <g id="ytick_3">
     <g id="line2d_19">
      <path d="M 43.803125 156.220341 
L 568.8 156.220341 
" clip-path="url(#pd61321dc05)" style="fill: none; stroke-dasharray: 2.96,1.28; stroke-dashoffset: 0; stroke: #b0b0b0; stroke-opacity: 0.8; stroke-width: 0.8"/>
     </g>
     <g id="line2d_20">
      <g>
       <use xlink:href="#mf95ae7e6e2" x="43.803125" y="156.220341" style="stroke: #000000; stroke-width: 0.8"/>
      </g>
     </g>
     <g id="text_11">
      <!-- 0.4 -->
      <g transform="translate(20.9 160.01956) scale(0.1 -0.1)">
       <defs>
        <path id="DejaVuSans-34" d="M 2419 4116 
L 825 1625 
L 2419 1625 
L 2419 4116 
z
M 2253 4666 
L 3047 4666 
L 3047 1625 
L 3713 1625 
L 3713 1100 
L 3047 1100 
L 3047 0 
L 2419 0 
L 2419 1100 
L 313 1100 
L 313 1709 
L 2253 4666 
z
" transform="scale(0.015625)"/>
       </defs>
       <use xlink:href="#DejaVuSans-30"/>
       <use xlink:href="#DejaVuSans-2e" transform="translate(63.623047 0)"/>
       <use xlink:href="#DejaVuSans-34" transform="translate(95.410156 0)"/>
      </g>
     </g>
    </g>
    <g id="ytick_4">
     <g id="line2d_21">
      <path d="M 43.803125 115.019659 
L 568.8 115.019659 
" clip-path="url(#pd61321dc05)" style="fill: none; stroke-dasharray: 2.96,1.28; stroke-dashoffset: 0; stroke: #b0b0b0; stroke-opacity: 0.8; stroke-width: 0.8"/>
     </g>
     <g id="line2d_22">
      <g>
       <use xlink:href="#mf95ae7e6e2" x="43.803125" y="115.019659" style="stroke: #000000; stroke-width: 0.8"/>
      </g>
     </g>
     <g id="text_12">
      <!-- 0.6 -->
      <g transform="translate(20.9 118.818878) scale(0.1 -0.1)">
       <defs>
        <path id="DejaVuSans-36" d="M 2113 2584 
Q 1688 2584 1439 2293 
Q 1191 2003 1191 1497 
Q 1191 994 1439 701 
Q 1688 409 2113 409 
Q 2538 409 2786 701 
Q 3034 994 3034 1497 
Q 3034 2003 2786 2293 
Q 2538 2584 2113 2584 
z
M 3366 4563 
L 3366 3988 
Q 3128 4100 2886 4159 
Q 2644 4219 2406 4219 
Q 1781 4219 1451 3797 
Q 1122 3375 1075 2522 
Q 1259 2794 1537 2939 
Q 1816 3084 2150 3084 
Q 2853 3084 3261 2657 
Q 3669 2231 3669 1497 
Q 3669 778 3244 343 
Q 2819 -91 2113 -91 
Q 1303 -91 875 529 
Q 447 1150 447 2328 
Q 447 3434 972 4092 
Q 1497 4750 2381 4750 
Q 2619 4750 2861 4703 
Q 3103 4656 3366 4563 
z
" transform="scale(0.015625)"/>
       </defs>
       <use xlink:href="#DejaVuSans-30"/>
       <use xlink:href="#DejaVuSans-2e" transform="translate(63.623047 0)"/>
       <use xlink:href="#DejaVuSans-36" transform="translate(95.410156 0)"/>
      </g>
     </g>
    </g>
    <g id="ytick_5">
     <g id="line2d_23">
      <path d="M 43.803125 73.818977 
L 568.8 73.818977 
" clip-path="url(#pd61321dc05)" style="fill: none; stroke-dasharray: 2.96,1.28; stroke-dashoffset: 0; stroke: #b0b0b0; stroke-opacity: 0.8; stroke-width: 0.8"/>
     </g>
     <g id="line2d_24">
      <g>
       <use xlink:href="#mf95ae7e6e2" x="43.803125" y="73.818977" style="stroke: #000000; stroke-width: 0.8"/>
      </g>
     </g>
     <g id="text_13">
      <!-- 0.8 -->
      <g transform="translate(20.9 77.618196) scale(0.1 -0.1)">
       <defs>
        <path id="DejaVuSans-38" d="M 2034 2216 
Q 1584 2216 1326 1975 
Q 1069 1734 1069 1313 
Q 1069 891 1326 650 
Q 1584 409 2034 409 
Q 2484 409 2743 651 
Q 3003 894 3003 1313 
Q 3003 1734 2745 1975 
Q 2488 2216 2034 2216 
z
M 1403 2484 
Q 997 2584 770 2862 
Q 544 3141 544 3541 
Q 544 4100 942 4425 
Q 1341 4750 2034 4750 
Q 2731 4750 3128 4425 
Q 3525 4100 3525 3541 
Q 3525 3141 3298 2862 
Q 3072 2584 2669 2484 
Q 3125 2378 3379 2068 
Q 3634 1759 3634 1313 
Q 3634 634 3220 271 
Q 2806 -91 2034 -91 
Q 1263 -91 848 271 
Q 434 634 434 1313 
Q 434 1759 690 2068 
Q 947 2378 1403 2484 
z
M 1172 3481 
Q 1172 3119 1398 2916 
Q 1625 2713 2034 2713 
Q 2441 2713 2670 2916 
Q 2900 3119 2900 3481 
Q 2900 3844 2670 4047 
Q 2441 4250 2034 4250 
Q 1625 4250 1398 4047 
Q 1172 3844 1172 3481 
z
" transform="scale(0.015625)"/>
       </defs>
       <use xlink:href="#DejaVuSans-30"/>
       <use xlink:href="#DejaVuSans-2e" transform="translate(63.623047 0)"/>
       <use xlink:href="#DejaVuSans-38" transform="translate(95.410156 0)"/>
      </g>
     </g>
    </g>
    <g id="ytick_6">
     <g id="line2d_25">
      <path d="M 43.803125 32.618295 
L 568.8 32.618295 
" clip-path="url(#pd61321dc05)" style="fill: none; stroke-dasharray: 2.96,1.28; stroke-dashoffset: 0; stroke: #b0b0b0; stroke-opacity: 0.8; stroke-width: 0.8"/>
     </g>
     <g id="line2d_26">
      <g>
       <use xlink:href="#mf95ae7e6e2" x="43.803125" y="32.618295" style="stroke: #000000; stroke-width: 0.8"/>
      </g>
     </g>
     <g id="text_14">
      <!-- 1.0 -->
      <g transform="translate(20.9 36.417514) scale(0.1 -0.1)">
       <use xlink:href="#DejaVuSans-31"/>
       <use xlink:href="#DejaVuSans-2e" transform="translate(63.623047 0)"/>
       <use xlink:href="#DejaVuSans-30" transform="translate(95.410156 0)"/>
      </g>
     </g>
    </g>
    <g id="text_15">
     <!-- Probability of detection, $P_d$ -->
     <g transform="translate(14.8 202.42) rotate(-90) scale(0.1 -0.1)">
      <defs>
       <path id="DejaVuSans-50" d="M 1259 4147 
L 1259 2394 
L 2053 2394 
Q 2494 2394 2734 2622 
Q 2975 2850 2975 3272 
Q 2975 3691 2734 3919 
Q 2494 4147 2053 4147 
L 1259 4147 
z
M 628 4666 
L 2053 4666 
Q 2838 4666 3239 4311 
Q 3641 3956 3641 3272 
Q 3641 2581 3239 2228 
Q 2838 1875 2053 1875 
L 1259 1875 
L 1259 0 
L 628 0 
L 628 4666 
z
" transform="scale(0.015625)"/>
       <path id="DejaVuSans-62" d="M 3116 1747 
Q 3116 2381 2855 2742 
Q 2594 3103 2138 3103 
Q 1681 3103 1420 2742 
Q 1159 2381 1159 1747 
Q 1159 1113 1420 752 
Q 1681 391 2138 391 
Q 2594 391 2855 752 
Q 3116 1113 3116 1747 
z
M 1159 2969 
Q 1341 3281 1617 3432 
Q 1894 3584 2278 3584 
Q 2916 3584 3314 3078 
Q 3713 2572 3713 1747 
Q 3713 922 3314 415 
Q 2916 -91 2278 -91 
Q 1894 -91 1617 61 
Q 1341 213 1159 525 
L 1159 0 
L 581 0 
L 581 4863 
L 1159 4863 
L 1159 2969 
z
" transform="scale(0.015625)"/>
       <path id="DejaVuSans-79" d="M 2059 -325 
Q 1816 -950 1584 -1140 
Q 1353 -1331 966 -1331 
L 506 -1331 
L 506 -850 
L 844 -850 
Q 1081 -850 1212 -737 
Q 1344 -625 1503 -206 
L 1606 56 
L 191 3500 
L 800 3500 
L 1894 763 
L 2988 3500 
L 3597 3500 
L 2059 -325 
z
" transform="scale(0.015625)"/>
       <path id="DejaVuSans-66" d="M 2375 4863 
L 2375 4384 
L 1825 4384 
Q 1516 4384 1395 4259 
Q 1275 4134 1275 3809 
L 1275 3500 
L 2222 3500 
L 2222 3053 
L 1275 3053 
L 1275 0 
L 697 0 
L 697 3053 
L 147 3053 
L 147 3500 
L 697 3500 
L 697 3744 
Q 697 4328 969 4595 
Q 1241 4863 1831 4863 
L 2375 4863 
z
" transform="scale(0.015625)"/>
       <path id="DejaVuSans-63" d="M 3122 3366 
L 3122 2828 
Q 2878 2963 2633 3030 
Q 2388 3097 2138 3097 
Q 1578 3097 1268 2742 
Q 959 2388 959 1747 
Q 959 1106 1268 751 
Q 1578 397 2138 397 
Q 2388 397 2633 464 
Q 2878 531 3122 666 
L 3122 134 
Q 2881 22 2623 -34 
Q 2366 -91 2075 -91 
Q 1284 -91 818 406 
Q 353 903 353 1747 
Q 353 2603 823 3093 
Q 1294 3584 2113 3584 
Q 2378 3584 2631 3529 
Q 2884 3475 3122 3366 
z
" transform="scale(0.015625)"/>
       <path id="DejaVuSans-Oblique-50" d="M 1081 4666 
L 2541 4666 
Q 3178 4666 3512 4369 
Q 3847 4072 3847 3500 
Q 3847 2731 3353 2303 
Q 2859 1875 1966 1875 
L 1172 1875 
L 806 0 
L 172 0 
L 1081 4666 
z
M 1613 4147 
L 1275 2394 
L 2069 2394 
Q 2606 2394 2893 2669 
Q 3181 2944 3181 3456 
Q 3181 3784 2986 3965 
Q 2791 4147 2438 4147 
L 1613 4147 
z
" transform="scale(0.015625)"/>
       <path id="DejaVuSans-Oblique-64" d="M 2675 525 
Q 2444 222 2128 65 
Q 1813 -91 1428 -91 
Q 903 -91 598 267 
Q 294 625 294 1247 
Q 294 1766 478 2236 
Q 663 2706 1013 3078 
Q 1244 3325 1534 3454 
Q 1825 3584 2144 3584 
Q 2481 3584 2739 3421 
Q 2997 3259 3138 2956 
L 3513 4863 
L 4091 4863 
L 3144 0 
L 2566 0 
L 2675 525 
z
M 891 1350 
Q 891 897 1095 644 
Q 1300 391 1663 391 
Q 1931 391 2161 520 
Q 2391 650 2566 903 
Q 2750 1166 2856 1509 
Q 2963 1853 2963 2188 
Q 2963 2622 2758 2865 
Q 2553 3109 2194 3109 
Q 1922 3109 1687 2981 
Q 1453 2853 1288 2613 
Q 1106 2353 998 2009 
Q 891 1666 891 1350 
z
" transform="scale(0.015625)"/>
      </defs>
      <use xlink:href="#DejaVuSans-50" transform="translate(0 0.015625)"/>
      <use xlink:href="#DejaVuSans-72" transform="translate(60.302734 0.015625)"/>
      <use xlink:href="#DejaVuSans-6f" transform="translate(101.416016 0.015625)"/>
      <use xlink:href="#DejaVuSans-62" transform="translate(162.597656 0.015625)"/>
      <use xlink:href="#DejaVuSans-61" transform="translate(226.074219 0.015625)"/>
      <use xlink:href="#DejaVuSans-62" transform="translate(287.353516 0.015625)"/>
      <use xlink:href="#DejaVuSans-69" transform="translate(350.830078 0.015625)"/>
      <use xlink:href="#DejaVuSans-6c" transform="translate(378.613281 0.015625)"/>
      <use xlink:href="#DejaVuSans-69" transform="translate(406.396484 0.015625)"/>
      <use xlink:href="#DejaVuSans-74" transform="translate(434.179688 0.015625)"/>
      <use xlink:href="#DejaVuSans-79" transform="translate(473.388672 0.015625)"/>
      <use xlink:href="#DejaVuSans-20" transform="translate(532.568359 0.015625)"/>
      <use xlink:href="#DejaVuSans-6f" transform="translate(564.355469 0.015625)"/>
      <use xlink:href="#DejaVuSans-66" transform="translate(625.537109 0.015625)"/>
      <use xlink:href="#DejaVuSans-20" transform="translate(660.742188 0.015625)"/>
      <use xlink:href="#DejaVuSans-64" transform="translate(692.529297 0.015625)"/>
      <use xlink:href="#DejaVuSans-65" transform="translate(756.005859 0.015625)"/>
      <use xlink:href="#DejaVuSans-74" transform="translate(817.529297 0.015625)"/>
      <use xlink:href="#DejaVuSans-65" transform="translate(856.738281 0.015625)"/>
      <use xlink:href="#DejaVuSans-63" transform="translate(918.261719 0.015625)"/>
      <use xlink:href="#DejaVuSans-74" transform="translate(973.242188 0.015625)"/>
      <use xlink:href="#DejaVuSans-69" transform="translate(1012.451172 0.015625)"/>
      <use xlink:href="#DejaVuSans-6f" transform="translate(1040.234375 0.015625)"/>
      <use xlink:href="#DejaVuSans-6e" transform="translate(1101.416016 0.015625)"/>
      <use xlink:href="#DejaVuSans-2c" transform="translate(1164.794922 0.015625)"/>
      <use xlink:href="#DejaVuSans-20" transform="translate(1196.582031 0.015625)"/>
      <use xlink:href="#DejaVuSans-Oblique-50" transform="translate(1228.369141 0.015625)"/>
      <use xlink:href="#DejaVuSans-Oblique-64" transform="translate(1288.671875 -16.390625) scale(0.7)"/>
     </g>
    </g>
   </g>
   <g id="line2d_27">
    <path d="M 67.666619 238.621705 
L 72.439318 238.621705 
L 77.212017 238.621705 
L 81.984716 238.621705 
L 86.757415 238.621705 
L 91.530114 238.621705 
L 96.302813 238.621705 
L 101.075511 238.621705 
L 105.84821 238.621705 
L 110.620909 238.621705 
L 115.393608 238.621705 
L 120.166307 238.621705 
L 124.939006 238.621705 
L 129.711705 238.621705 
L 134.484403 238.621705 
L 139.257102 238.621705 
L 144.029801 238.621705 
L 148.8025 238.621705 
L 153.575199 238.621705 
L 158.347898 238.621705 
L 163.120597 238.621705 
L 167.893295 238.621705 
L 172.665994 238.621705 
L 177.438693 238.621705 
L 182.211392 238.621705 
L 186.984091 238.621705 
L 191.75679 238.621705 
L 196.529489 238.621705 
L 201.302188 238.621705 
L 206.074886 238.621705 
L 210.847585 238.621705 
L 215.620284 238.621705 
L 220.392983 238.621705 
L 225.165682 238.621705 
L 229.938381 238.621705 
L 234.71108 238.621705 
L 239.483778 238.621705 
L 244.256477 238.621705 
L 249.029176 238.621705 
L 253.801875 238.621705 
L 258.574574 238.621705 
L 263.347273 238.621705 
L 268.119972 238.621705 
L 272.89267 238.621704 
L 277.665369 238.621704 
L 282.438068 238.621704 
L 287.210767 238.621704 
L 291.983466 238.621704 
L 296.756165 238.621704 
L 301.528864 238.621704 
L 306.301563 238.621703 
L 311.074261 238.621702 
L 315.84696 238.621701 
L 320.619659 238.621698 
L 325.392358 238.621694 
L 330.165057 238.621687 
L 334.937756 238.621673 
L 339.710455 238.62165 
L 344.483153 238.621608 
L 349.255852 238.621531 
L 354.028551 238.621393 
L 358.80125 238.621141 
L 363.573949 238.620678 
L 368.346648 238.619825 
L 373.119347 238.618253 
L 377.892045 238.615348 
L 382.664744 238.60998 
L 387.437443 238.60008 
L 392.210142 238.581877 
L 396.982841 238.548575 
L 401.75554 238.48808 
L 406.528239 238.379201 
L 411.300938 238.185525 
L 416.073636 237.845934 
L 420.846335 237.260717 
L 425.619034 236.272699 
L 430.391733 234.644217 
L 435.164432 232.033765 
L 439.937131 227.980929 
L 444.70983 221.914283 
L 449.482528 213.201647 
L 454.255227 201.260622 
L 459.027926 185.73294 
L 463.800625 166.695272 
L 468.573324 144.837608 
L 473.346023 121.509878 
L 478.118722 98.550852 
L 482.89142 77.892345 
L 487.664119 61.055526 
L 492.436818 48.750982 
L 497.209517 40.774731 
L 501.982216 36.241851 
L 506.754915 34.011826 
L 511.527614 33.07491 
L 516.300313 32.743637 
L 521.073011 32.646604 
L 525.84571 32.623455 
L 530.618409 32.619039 
L 535.391108 32.618378 
L 540.163807 32.618302 
L 544.936506 32.618296 
" clip-path="url(#pd61321dc05)" style="fill: none; stroke: #1f77b4; stroke-linecap: square"/>
   </g>
   <g id="line2d_28">
    <path d="M 67.666619 238.621705 
L 72.439318 238.621705 
L 77.212017 238.621705 
L 81.984716 238.621705 
L 86.757415 238.621705 
L 91.530114 238.621705 
L 96.302813 238.621705 
L 101.075511 238.621705 
L 105.84821 238.621705 
L 110.620909 238.621705 
L 115.393608 238.621705 
L 120.166307 238.621705 
L 124.939006 238.621705 
L 129.711705 238.621705 
L 134.484403 238.621705 
L 139.257102 238.621705 
L 144.029801 238.621705 
L 148.8025 238.621705 
L 153.575199 238.621705 
L 158.347898 238.621705 
L 163.120597 238.621705 
L 167.893295 238.621705 
L 172.665994 238.621705 
L 177.438693 238.621705 
L 182.211392 238.621705 
L 186.984091 238.621704 
L 191.75679 238.621704 
L 196.529489 238.621704 
L 201.302188 238.621704 
L 206.074886 238.621704 
L 210.847585 238.621704 
L 215.620284 238.621704 
L 220.392983 238.621704 
L 225.165682 238.621704 
L 229.938381 238.621704 
L 234.71108 238.621704 
L 239.483778 238.621704 
L 244.256477 238.621703 
L 249.029176 238.621703 
L 253.801875 238.621702 
L 258.574574 238.621701 
L 263.347273 238.6217 
L 268.119972 238.621698 
L 272.89267 238.621695 
L 277.665369 238.62169 
L 282.438068 238.621684 
L 287.210767 238.621674 
L 291.983466 238.621659 
L 296.756165 238.621636 
L 301.528864 238.621602 
L 306.301563 238.621547 
L 311.074261 238.621463 
L 315.84696 238.62133 
L 320.619659 238.62112 
L 325.392358 238.620785 
L 330.165057 238.620249 
L 334.937756 238.619384 
L 339.710455 238.617985 
L 344.483153 238.615709 
L 349.255852 238.611997 
L 354.028551 238.605925 
L 358.80125 238.595974 
L 363.573949 238.579651 
L 368.346648 238.552888 
L 373.119347 238.509072 
L 377.892045 238.437544 
L 382.664744 238.321286 
L 387.437443 238.133464 
L 392.210142 237.832399 
L 396.982841 237.354536 
L 401.75554 236.605116 
L 406.528239 235.446638 
L 411.300938 233.686056 
L 416.073636 231.063102 
L 420.846335 227.244192 
L 425.619034 221.828806 
L 430.391733 214.377079 
L 435.164432 204.466978 
L 439.937131 191.78468 
L 444.70983 176.240794 
L 449.482528 158.0885 
L 454.255227 138.002417 
L 459.027926 117.069422 
L 463.800625 96.656506 
L 468.573324 78.16168 
L 473.346023 62.710792 
L 478.118722 50.906618 
L 482.89142 42.732639 
L 487.664119 37.651283 
L 492.436818 34.844683 
L 497.209517 33.482631 
L 501.982216 32.908775 
L 506.754915 32.701574 
L 511.527614 32.638346 
L 516.300313 32.622282 
L 521.073011 32.618938 
L 525.84571 32.618378 
L 530.618409 32.618304 
L 535.391108 32.618296 
L 540.163807 32.618295 
L 544.936506 32.618295 
" clip-path="url(#pd61321dc05)" style="fill: none; stroke: #ff7f0e; stroke-linecap: square"/>
   </g>
   <g id="line2d_29">
    <path d="M 67.666619 238.621704 
L 72.439318 238.621704 
L 77.212017 238.621704 
L 81.984716 238.621703 
L 86.757415 238.621703 
L 91.530114 238.621703 
L 96.302813 238.621703 
L 101.075511 238.621703 
L 105.84821 238.621703 
L 110.620909 238.621703 
L 115.393608 238.621702 
L 120.166307 238.621702 
L 124.939006 238.621702 
L 129.711705 238.621701 
L 134.484403 238.621701 
L 139.257102 238.6217 
L 144.029801 238.6217 
L 148.8025 238.621699 
L 153.575199 238.621698 
L 158.347898 238.621697 
L 163.120597 238.621696 
L 167.893295 238.621695 
L 172.665994 238.621693 
L 177.438693 238.621691 
L 182.211392 238.621688 
L 186.984091 238.621685 
L 191.75679 238.621681 
L 196.529489 238.621675 
L 201.302188 238.621669 
L 206.074886 238.621661 
L 210.847585 238.621651 
L 215.620284 238.621637 
L 220.392983 238.62162 
L 225.165682 238.621599 
L 229.938381 238.62157 
L 234.71108 238.621533 
L 239.483778 238.621484 
L 244.256477 238.621419 
L 249.029176 238.621333 
L 253.801875 238.621217 
L 258.574574 238.621061 
L 263.347273 238.620849 
L 268.119972 238.62056 
L 272.89267 238.620164 
L 277.665369 238.619616 
L 282.438068 238.618854 
L 287.210767 238.617791 
L 291.983466 238.616297 
L 296.756165 238.614188 
L 301.528864 238.611195 
L 306.301563 238.606928 
L 311.074261 238.600819 
L 315.84696 238.592037 
L 320.619659 238.579367 
L 325.392358 238.561031 
L 330.165057 238.53443 
L 334.937756 238.495764 
L 339.710455 238.439491 
L 344.483153 238.357553 
L 349.255852 238.238291 
L 354.028551 238.064931 
L 358.80125 237.813518 
L 363.573949 237.450181 
L 368.346648 236.927571 
L 373.119347 236.180456 
L 377.892045 235.120513 
L 382.664744 233.630669 
L 387.437443 231.559707 
L 392.210142 228.718439 
L 396.982841 224.879437 
L 401.75554 219.783067 
L 406.528239 213.152985 
L 411.300938 204.724078 
L 416.073636 194.284327 
L 420.846335 181.728877 
L 425.619034 167.119536 
L 430.391733 150.736861 
L 435.164432 133.106901 
L 439.937131 114.983788 
L 444.70983 97.275903 
L 449.482528 80.918545 
L 454.255227 66.716784 
L 459.027926 55.200299 
L 463.800625 46.536795 
L 468.573324 40.535067 
L 473.346023 36.736411 
L 478.118722 34.558461 
L 482.89142 33.437644 
L 487.664119 32.925033 
L 492.436818 32.718888 
L 497.209517 32.646827 
L 501.982216 32.625199 
L 506.754915 32.6197 
L 511.527614 32.618532 
L 516.300313 32.618328 
L 521.073011 32.618299 
L 525.84571 32.618296 
L 530.618409 32.618295 
L 535.391108 32.618295 
L 540.163807 32.618295 
L 544.936506 32.618295 
" clip-path="url(#pd61321dc05)" style="fill: none; stroke: #2ca02c; stroke-linecap: square"/>
   </g>
   <g id="line2d_30">
    <path d="M 67.666619 238.62112 
L 72.439318 238.621085 
L 77.212017 238.621047 
L 81.984716 238.621003 
L 86.757415 238.620955 
L 91.530114 238.620902 
L 96.302813 238.620842 
L 101.075511 238.620775 
L 105.84821 238.620699 
L 110.620909 238.620614 
L 115.393608 238.620518 
L 120.166307 238.620409 
L 124.939006 238.620285 
L 129.711705 238.620145 
L 134.484403 238.619984 
L 139.257102 238.6198 
L 144.029801 238.619589 
L 148.8025 238.619345 
L 153.575199 238.619063 
L 158.347898 238.618737 
L 163.120597 238.618356 
L 167.893295 238.617912 
L 172.665994 238.617391 
L 177.438693 238.616778 
L 182.211392 238.616054 
L 186.984091 238.615195 
L 191.75679 238.614174 
L 196.529489 238.612954 
L 201.302188 238.611491 
L 206.074886 238.609729 
L 210.847585 238.607599 
L 215.620284 238.605015 
L 220.392983 238.601866 
L 225.165682 238.598012 
L 229.938381 238.593279 
L 234.71108 238.587442 
L 239.483778 238.580214 
L 244.256477 238.571228 
L 249.029176 238.560014 
L 253.801875 238.545966 
L 258.574574 238.528302 
L 263.347273 238.506012 
L 268.119972 238.477785 
L 272.89267 238.441923 
L 277.665369 238.396218 
L 282.438068 238.337799 
L 287.210767 238.262928 
L 291.983466 238.166746 
L 296.756165 238.04293 
L 301.528864 237.883266 
L 306.301563 237.677107 
L 311.074261 237.410682 
L 315.84696 237.066247 
L 320.619659 236.621043 
L 325.392358 236.046048 
L 330.165057 235.304523 
L 334.937756 234.350366 
L 339.710455 233.126346 
L 344.483153 231.562351 
L 349.255852 229.573837 
L 354.028551 227.060839 
L 358.80125 223.907967 
L 363.573949 219.986022 
L 368.346648 215.15592 
L 373.119347 209.275723 
L 377.892045 202.21143 
L 382.664744 193.851919 
L 387.437443 184.127769 
L 392.210142 173.032756 
L 396.982841 160.645543 
L 401.75554 147.147691 
L 406.528239 132.83302 
L 411.300938 118.103063 
L 416.073636 103.444459 
L 420.846335 89.387095 
L 425.619034 76.44641 
L 430.391733 65.058652 
L 435.164432 55.522229 
L 439.937131 47.959464 
L 444.70983 42.309619 
L 449.482528 38.356089 
L 454.255227 35.780572 
L 459.027926 34.228883 
L 463.800625 33.370436 
L 468.573324 32.937663 
L 473.346023 32.740485 
L 478.118722 32.660012 
L 482.89142 32.630872 
L 487.664119 32.621606 
L 492.436818 32.619047 
L 497.209517 32.618441 
L 501.982216 32.618319 
L 506.754915 32.618299 
L 511.527614 32.618296 
L 516.300313 32.618295 
L 521.073011 32.618295 
L 525.84571 32.618295 
L 530.618409 32.618295 
L 535.391108 32.618295 
L 540.163807 32.618295 
L 544.936506 32.618295 
" clip-path="url(#pd61321dc05)" style="fill: none; stroke: #d62728; stroke-linecap: square"/>
   </g>
   <g id="line2d_31">
    <path d="M 67.666619 238.255459 
L 72.439318 238.242585 
L 77.212017 238.228574 
L 81.984716 238.213313 
L 86.757415 238.196672 
L 91.530114 238.178509 
L 96.302813 238.158663 
L 101.075511 238.136954 
L 105.84821 238.113179 
L 110.620909 238.087109 
L 115.393608 238.058486 
L 120.166307 238.027019 
L 124.939006 237.992377 
L 129.711705 237.954187 
L 134.484403 237.912023 
L 139.257102 237.865401 
L 144.029801 237.813769 
L 148.8025 237.756499 
L 153.575199 237.69287 
L 158.347898 237.622059 
L 163.120597 237.54312 
L 167.893295 237.454969 
L 172.665994 237.356358 
L 177.438693 237.245851 
L 182.211392 237.121791 
L 186.984091 236.982268 
L 191.75679 236.825074 
L 196.529489 236.647656 
L 201.302188 236.447059 
L 206.074886 236.219862 
L 210.847585 235.9621 
L 215.620284 235.669177 
L 220.392983 235.335767 
L 225.165682 234.955697 
L 229.938381 234.521813 
L 234.71108 234.025835 
L 239.483778 233.458183 
L 244.256477 232.807794 
L 249.029176 232.061911 
L 253.801875 231.205862 
L 258.574574 230.222821 
L 263.347273 229.093557 
L 268.119972 227.796188 
L 272.89267 226.305948 
L 277.665369 224.594978 
L 282.438068 222.632182 
L 287.210767 220.383164 
L 291.983466 217.810297 
L 296.756165 214.872976 
L 301.528864 211.528106 
L 306.301563 207.730904 
L 311.074261 203.436086 
L 315.84696 198.599512 
L 320.619659 193.180354 
L 325.392358 187.143828 
L 330.165057 180.464492 
L 334.937756 173.130062 
L 339.710455 165.145576 
L 344.483153 156.537684 
L 349.255852 147.35867 
L 354.028551 137.689703 
L 358.80125 127.642709 
L 363.573949 117.360187 
L 368.346648 107.012342 
L 373.119347 96.791033 
L 377.892045 86.900396 
L 382.664744 77.54443 
L 387.437443 68.912447 
L 392.210142 61.163893 
L 396.982841 54.414515 
L 401.75554 48.726093 
L 406.528239 44.101665 
L 411.300938 40.487496 
L 416.073636 37.78182 
L 420.846335 35.8491 
L 425.619034 34.537303 
L 430.391733 33.695122 
L 435.164432 33.186175 
L 439.937131 32.898176 
L 444.70983 32.746432 
L 449.482528 32.672437 
L 454.255227 32.639261 
L 459.027926 32.62568 
L 463.800625 32.620642 
L 468.573324 32.618963 
L 473.346023 32.618463 
L 478.118722 32.618333 
L 482.89142 32.618303 
L 487.664119 32.618297 
L 492.436818 32.618296 
L 497.209517 32.618295 
L 501.982216 32.618295 
L 506.754915 32.618295 
L 511.527614 32.618295 
L 516.300313 32.618295 
L 521.073011 32.618295 
L 525.84571 32.618295 
L 530.618409 32.618295 
L 535.391108 32.618295 
L 540.163807 32.618295 
L 544.936506 32.618295 
" clip-path="url(#pd61321dc05)" style="fill: none; stroke: #9467bd; stroke-linecap: square"/>
   </g>
   <g id="line2d_32">
    <path d="M 67.666619 213.245329 
L 72.439318 212.901511 
L 77.212017 212.532812 
L 81.984716 212.13742 
L 86.757415 211.713387 
L 91.530114 211.258625 
L 96.302813 210.770894 
L 101.075511 210.247791 
L 105.84821 209.686737 
L 110.620909 209.084969 
L 115.393608 208.439525 
L 120.166307 207.747231 
L 124.939006 207.00469 
L 129.711705 206.208266 
L 134.484403 205.35407 
L 139.257102 204.437949 
L 144.029801 203.455468 
L 148.8025 202.4019 
L 153.575199 201.272214 
L 158.347898 200.061062 
L 163.120597 198.762769 
L 167.893295 197.37133 
L 172.665994 195.880406 
L 177.438693 194.283322 
L 182.211392 192.573078 
L 186.984091 190.742361 
L 191.75679 188.783572 
L 196.529489 186.688852 
L 201.302188 184.450136 
L 206.074886 182.059213 
L 210.847585 179.507804 
L 215.620284 176.787664 
L 220.392983 173.890709 
L 225.165682 170.809169 
L 229.938381 167.535769 
L 234.71108 164.063947 
L 239.483778 160.388111 
L 244.256477 156.503922 
L 249.029176 152.408633 
L 253.801875 148.101447 
L 258.574574 143.583921 
L 263.347273 138.860389 
L 268.119972 133.938407 
L 272.89267 128.829192 
L 277.665369 123.54805 
L 282.438068 118.114757 
L 287.210767 112.553858 
L 291.983466 106.894869 
L 296.756165 101.172309 
L 301.528864 95.425551 
L 306.301563 89.698427 
L 311.074261 84.03856 
L 315.84696 78.496393 
L 320.619659 73.123904 
L 325.392358 67.973026 
L 330.165057 63.093801 
L 334.937756 58.532359 
L 339.710455 54.328826 
L 344.483153 50.515311 
L 349.255852 47.114142 
L 354.028551 44.136529 
L 358.80125 41.581831 
L 363.573949 39.437554 
L 368.346648 37.680147 
L 373.119347 36.276589 
L 377.892045 35.186648 
L 382.664744 34.365605 
L 387.437443 33.76717 
L 392.210142 33.34628 
L 396.982841 33.061477 
L 401.75554 32.876647 
L 406.528239 32.761996 
L 411.300938 32.694268 
L 416.073636 32.656315 
L 420.846335 32.636226 
L 425.619034 32.626226 
L 430.391733 32.621568 
L 435.164432 32.619549 
L 439.937131 32.618738 
L 444.70983 32.618439 
L 449.482528 32.618338 
L 454.255227 32.618307 
L 459.027926 32.618298 
L 463.800625 32.618296 
L 468.573324 32.618296 
L 473.346023 32.618295 
L 478.118722 32.618295 
L 482.89142 32.618295 
L 487.664119 32.618295 
L 492.436818 32.618295 
L 497.209517 32.618295 
L 501.982216 32.618295 
L 506.754915 32.618295 
L 511.527614 32.618295 
L 516.300313 32.618295 
L 521.073011 32.618295 
L 525.84571 32.618295 
L 530.618409 32.618295 
L 535.391108 32.618295 
L 540.163807 32.618295 
L 544.936506 32.618295 
" clip-path="url(#pd61321dc05)" style="fill: none; stroke: #8c564b; stroke-linecap: square"/>
   </g>
   <g id="patch_3">
    <path d="M 43.803125 248.921875 
L 43.803125 22.318125 
" style="fill: none; stroke: #000000; stroke-width: 0.8; stroke-linejoin: miter; stroke-linecap: square"/>
   </g>
   <g id="patch_4">
    <path d="M 568.8 248.921875 
L 568.8 22.318125 
" style="fill: none; stroke: #000000; stroke-width: 0.8; stroke-linejoin: miter; stroke-linecap: square"/>
   </g>
   <g id="patch_5">
    <path d="M 43.803125 248.921875 
L 568.8 248.921875 
" style="fill: none; stroke: #000000; stroke-width: 0.8; stroke-linejoin: miter; stroke-linecap: square"/>
   </g>
   <g id="patch_6">
    <path d="M 43.803125 22.318125 
L 568.8 22.318125 
" style="fill: none; stroke: #000000; stroke-width: 0.8; stroke-linejoin: miter; stroke-linecap: square"/>
   </g>
   <g id="text_16">
    <!-- Square-Law Detector: Probability of detection -->
    <g transform="translate(169.565313 16.318125) scale(0.12 -0.12)">
     <defs>
      <path id="DejaVuSans-71" d="M 947 1747 
Q 947 1113 1208 752 
Q 1469 391 1925 391 
Q 2381 391 2643 752 
Q 2906 1113 2906 1747 
Q 2906 2381 2643 2742 
Q 2381 3103 1925 3103 
Q 1469 3103 1208 2742 
Q 947 2381 947 1747 
z
M 2906 525 
Q 2725 213 2448 61 
Q 2172 -91 1784 -91 
Q 1150 -91 751 415 
Q 353 922 353 1747 
Q 353 2572 751 3078 
Q 1150 3584 1784 3584 
Q 2172 3584 2448 3432 
Q 2725 3281 2906 2969 
L 2906 3500 
L 3481 3500 
L 3481 -1331 
L 2906 -1331 
L 2906 525 
z
" transform="scale(0.015625)"/>
      <path id="DejaVuSans-75" d="M 544 1381 
L 544 3500 
L 1119 3500 
L 1119 1403 
Q 1119 906 1312 657 
Q 1506 409 1894 409 
Q 2359 409 2629 706 
Q 2900 1003 2900 1516 
L 2900 3500 
L 3475 3500 
L 3475 0 
L 2900 0 
L 2900 538 
Q 2691 219 2414 64 
Q 2138 -91 1772 -91 
Q 1169 -91 856 284 
Q 544 659 544 1381 
z
M 1991 3584 
L 1991 3584 
z
" transform="scale(0.015625)"/>
      <path id="DejaVuSans-4c" d="M 628 4666 
L 1259 4666 
L 1259 531 
L 3531 531 
L 3531 0 
L 628 0 
L 628 4666 
z
" transform="scale(0.015625)"/>
      <path id="DejaVuSans-77" d="M 269 3500 
L 844 3500 
L 1563 769 
L 2278 3500 
L 2956 3500 
L 3675 769 
L 4391 3500 
L 4966 3500 
L 4050 0 
L 3372 0 
L 2619 2869 
L 1863 0 
L 1184 0 
L 269 3500 
z
" transform="scale(0.015625)"/>
      <path id="DejaVuSans-44" d="M 1259 4147 
L 1259 519 
L 2022 519 
Q 2988 519 3436 956 
Q 3884 1394 3884 2338 
Q 3884 3275 3436 3711 
Q 2988 4147 2022 4147 
L 1259 4147 
z
M 628 4666 
L 1925 4666 
Q 3281 4666 3915 4102 
Q 4550 3538 4550 2338 
Q 4550 1131 3912 565 
Q 3275 0 1925 0 
L 628 0 
L 628 4666 
z
" transform="scale(0.015625)"/>
      <path id="DejaVuSans-3a" d="M 750 794 
L 1409 794 
L 1409 0 
L 750 0 
L 750 794 
z
M 750 3309 
L 1409 3309 
L 1409 2516 
L 750 2516 
L 750 3309 
z
" transform="scale(0.015625)"/>
     </defs>
     <use xlink:href="#DejaVuSans-53"/>
     <use xlink:href="#DejaVuSans-71" transform="translate(63.476562 0)"/>
     <use xlink:href="#DejaVuSans-75" transform="translate(126.953125 0)"/>
     <use xlink:href="#DejaVuSans-61" transform="translate(190.332031 0)"/>
     <use xlink:href="#DejaVuSans-72" transform="translate(251.611328 0)"/>
     <use xlink:href="#DejaVuSans-65" transform="translate(290.474609 0)"/>
     <use xlink:href="#DejaVuSans-2d" transform="translate(351.998047 0)"/>
     <use xlink:href="#DejaVuSans-4c" transform="translate(388.082031 0)"/>
     <use xlink:href="#DejaVuSans-61" transform="translate(443.794922 0)"/>
     <use xlink:href="#DejaVuSans-77" transform="translate(505.074219 0)"/>
     <use xlink:href="#DejaVuSans-20" transform="translate(586.861328 0)"/>
     <use xlink:href="#DejaVuSans-44" transform="translate(618.648438 0)"/>
     <use xlink:href="#DejaVuSans-65" transform="translate(695.650391 0)"/>
     <use xlink:href="#DejaVuSans-74" transform="translate(757.173828 0)"/>
     <use xlink:href="#DejaVuSans-65" transform="translate(796.382812 0)"/>
     <use xlink:href="#DejaVuSans-63" transform="translate(857.90625 0)"/>
     <use xlink:href="#DejaVuSans-74" transform="translate(912.886719 0)"/>
     <use xlink:href="#DejaVuSans-6f" transform="translate(952.095703 0)"/>
     <use xlink:href="#DejaVuSans-72" transform="translate(1013.277344 0)"/>
     <use xlink:href="#DejaVuSans-3a" transform="translate(1052.640625 0)"/>
     <use xlink:href="#DejaVuSans-20" transform="translate(1086.332031 0)"/>
     <use xlink:href="#DejaVuSans-50" transform="translate(1118.119141 0)"/>
     <use xlink:href="#DejaVuSans-72" transform="translate(1176.671875 0)"/>
     <use xlink:href="#DejaVuSans-6f" transform="translate(1215.535156 0)"/>
     <use xlink:href="#DejaVuSans-62" transform="translate(1276.716797 0)"/>
     <use xlink:href="#DejaVuSans-61" transform="translate(1340.193359 0)"/>
     <use xlink:href="#DejaVuSans-62" transform="translate(1401.472656 0)"/>
     <use xlink:href="#DejaVuSans-69" transform="translate(1464.949219 0)"/>
     <use xlink:href="#DejaVuSans-6c" transform="translate(1492.732422 0)"/>
     <use xlink:href="#DejaVuSans-69" transform="translate(1520.515625 0)"/>
     <use xlink:href="#DejaVuSans-74" transform="translate(1548.298828 0)"/>
     <use xlink:href="#DejaVuSans-79" transform="translate(1587.507812 0)"/>
     <use xlink:href="#DejaVuSans-20" transform="translate(1646.6875 0)"/>
     <use xlink:href="#DejaVuSans-6f" transform="translate(1678.474609 0)"/>
     <use xlink:href="#DejaVuSans-66" transform="translate(1739.65625 0)"/>
     <use xlink:href="#DejaVuSans-20" transform="translate(1774.861328 0)"/>
     <use xlink:href="#DejaVuSans-64" transform="translate(1806.648438 0)"/>
     <use xlink:href="#DejaVuSans-65" transform="translate(1870.125 0)"/>
     <use xlink:href="#DejaVuSans-74" transform="translate(1931.648438 0)"/>
     <use xlink:href="#DejaVuSans-65" transform="translate(1970.857422 0)"/>
     <use xlink:href="#DejaVuSans-63" transform="translate(2032.380859 0)"/>
     <use xlink:href="#DejaVuSans-74" transform="translate(2087.361328 0)"/>
     <use xlink:href="#DejaVuSans-69" transform="translate(2126.570312 0)"/>
     <use xlink:href="#DejaVuSans-6f" transform="translate(2154.353516 0)"/>
     <use xlink:href="#DejaVuSans-6e" transform="translate(2215.535156 0)"/>
    </g>
   </g>
   <g id="legend_1">
    <g id="patch_7">
     <path d="M 50.803125 133.065 
L 111.651563 133.065 
Q 113.651563 133.065 113.651563 131.065 
L 113.651563 29.318125 
Q 113.651563 27.318125 111.651563 27.318125 
L 50.803125 27.318125 
Q 48.803125 27.318125 48.803125 29.318125 
L 48.803125 131.065 
Q 48.803125 133.065 50.803125 133.065 
z
" style="fill: #ffffff; opacity: 0.8; stroke: #cccccc; stroke-linejoin: miter"/>
    </g>
    <g id="text_17">
     <!-- $P_{fa}$ -->
     <g transform="translate(74.677344 38.916562) scale(0.1 -0.1)">
      <defs>
       <path id="DejaVuSans-Oblique-66" d="M 3059 4863 
L 2969 4384 
L 2419 4384 
Q 2106 4384 1964 4261 
Q 1822 4138 1753 3809 
L 1691 3500 
L 2638 3500 
L 2553 3053 
L 1606 3053 
L 1013 0 
L 434 0 
L 1031 3053 
L 481 3053 
L 563 3500 
L 1113 3500 
L 1159 3744 
Q 1278 4363 1576 4613 
Q 1875 4863 2516 4863 
L 3059 4863 
z
" transform="scale(0.015625)"/>
       <path id="DejaVuSans-Oblique-61" d="M 3438 1997 
L 3047 0 
L 2472 0 
L 2578 531 
Q 2325 219 2001 64 
Q 1678 -91 1281 -91 
Q 834 -91 548 182 
Q 263 456 263 884 
Q 263 1497 752 1853 
Q 1241 2209 2100 2209 
L 2900 2209 
L 2931 2363 
Q 2938 2388 2941 2417 
Q 2944 2447 2944 2509 
Q 2944 2788 2717 2942 
Q 2491 3097 2081 3097 
Q 1800 3097 1504 3025 
Q 1209 2953 897 2809 
L 997 3341 
Q 1322 3463 1633 3523 
Q 1944 3584 2234 3584 
Q 2853 3584 3176 3315 
Q 3500 3047 3500 2534 
Q 3500 2431 3484 2292 
Q 3469 2153 3438 1997 
z
M 2816 1759 
L 2241 1759 
Q 1534 1759 1195 1570 
Q 856 1381 856 984 
Q 856 709 1029 553 
Q 1203 397 1509 397 
Q 1978 397 2328 733 
Q 2678 1069 2791 1631 
L 2816 1759 
z
" transform="scale(0.015625)"/>
      </defs>
      <use xlink:href="#DejaVuSans-Oblique-50" transform="translate(0 0.09375)"/>
      <use xlink:href="#DejaVuSans-Oblique-66" transform="translate(60.302734 -16.3125) scale(0.7)"/>
      <use xlink:href="#DejaVuSans-Oblique-61" transform="translate(84.946289 -16.3125) scale(0.7)"/>
     </g>
    </g>
    <g id="line2d_33">
     <path d="M 52.803125 50.094688 
L 62.803125 50.094688 
L 72.803125 50.094688 
" style="fill: none; stroke: #1f77b4; stroke-linecap: square"/>
    </g>
    <g id="text_18">
     <!-- 1e-15 -->
     <g transform="translate(80.803125 53.594688) scale(0.1 -0.1)">
      <use xlink:href="#DejaVuSans-31"/>
      <use xlink:href="#DejaVuSans-65" transform="translate(63.623047 0)"/>
      <use xlink:href="#DejaVuSans-2d" transform="translate(125.146484 0)"/>
      <use xlink:href="#DejaVuSans-31" transform="translate(161.230469 0)"/>
      <use xlink:href="#DejaVuSans-35" transform="translate(224.853516 0)"/>
     </g>
    </g>
    <g id="line2d_34">
     <path d="M 52.803125 64.772813 
L 62.803125 64.772813 
L 72.803125 64.772813 
" style="fill: none; stroke: #ff7f0e; stroke-linecap: square"/>
    </g>
    <g id="text_19">
     <!-- 1e-12 -->
     <g transform="translate(80.803125 68.272813) scale(0.1 -0.1)">
      <use xlink:href="#DejaVuSans-31"/>
      <use xlink:href="#DejaVuSans-65" transform="translate(63.623047 0)"/>
      <use xlink:href="#DejaVuSans-2d" transform="translate(125.146484 0)"/>
      <use xlink:href="#DejaVuSans-31" transform="translate(161.230469 0)"/>
      <use xlink:href="#DejaVuSans-32" transform="translate(224.853516 0)"/>
     </g>
    </g>
    <g id="line2d_35">
     <path d="M 52.803125 79.450938 
L 62.803125 79.450938 
L 72.803125 79.450938 
" style="fill: none; stroke: #2ca02c; stroke-linecap: square"/>
    </g>
    <g id="text_20">
     <!-- 1e-09 -->
     <g transform="translate(80.803125 82.950938) scale(0.1 -0.1)">
      <defs>
       <path id="DejaVuSans-39" d="M 703 97 
L 703 672 
Q 941 559 1184 500 
Q 1428 441 1663 441 
Q 2288 441 2617 861 
Q 2947 1281 2994 2138 
Q 2813 1869 2534 1725 
Q 2256 1581 1919 1581 
Q 1219 1581 811 2004 
Q 403 2428 403 3163 
Q 403 3881 828 4315 
Q 1253 4750 1959 4750 
Q 2769 4750 3195 4129 
Q 3622 3509 3622 2328 
Q 3622 1225 3098 567 
Q 2575 -91 1691 -91 
Q 1453 -91 1209 -44 
Q 966 3 703 97 
z
M 1959 2075 
Q 2384 2075 2632 2365 
Q 2881 2656 2881 3163 
Q 2881 3666 2632 3958 
Q 2384 4250 1959 4250 
Q 1534 4250 1286 3958 
Q 1038 3666 1038 3163 
Q 1038 2656 1286 2365 
Q 1534 2075 1959 2075 
z
" transform="scale(0.015625)"/>
      </defs>
      <use xlink:href="#DejaVuSans-31"/>
      <use xlink:href="#DejaVuSans-65" transform="translate(63.623047 0)"/>
      <use xlink:href="#DejaVuSans-2d" transform="translate(125.146484 0)"/>
      <use xlink:href="#DejaVuSans-30" transform="translate(161.230469 0)"/>
      <use xlink:href="#DejaVuSans-39" transform="translate(224.853516 0)"/>
     </g>
    </g>
    <g id="line2d_36">
     <path d="M 52.803125 94.129063 
L 62.803125 94.129063 
L 72.803125 94.129063 
" style="fill: none; stroke: #d62728; stroke-linecap: square"/>
    </g>
    <g id="text_21">
     <!-- 1e-06 -->
     <g transform="translate(80.803125 97.629063) scale(0.1 -0.1)">
      <use xlink:href="#DejaVuSans-31"/>
      <use xlink:href="#DejaVuSans-65" transform="translate(63.623047 0)"/>
      <use xlink:href="#DejaVuSans-2d" transform="translate(125.146484 0)"/>
      <use xlink:href="#DejaVuSans-30" transform="translate(161.230469 0)"/>
      <use xlink:href="#DejaVuSans-36" transform="translate(224.853516 0)"/>
     </g>
    </g>
    <g id="line2d_37">
     <path d="M 52.803125 108.807188 
L 62.803125 108.807188 
L 72.803125 108.807188 
" style="fill: none; stroke: #9467bd; stroke-linecap: square"/>
    </g>
    <g id="text_22">
     <!-- 1e-03 -->
     <g transform="translate(80.803125 112.307188) scale(0.1 -0.1)">
      <defs>
       <path id="DejaVuSans-33" d="M 2597 2516 
Q 3050 2419 3304 2112 
Q 3559 1806 3559 1356 
Q 3559 666 3084 287 
Q 2609 -91 1734 -91 
Q 1441 -91 1130 -33 
Q 819 25 488 141 
L 488 750 
Q 750 597 1062 519 
Q 1375 441 1716 441 
Q 2309 441 2620 675 
Q 2931 909 2931 1356 
Q 2931 1769 2642 2001 
Q 2353 2234 1838 2234 
L 1294 2234 
L 1294 2753 
L 1863 2753 
Q 2328 2753 2575 2939 
Q 2822 3125 2822 3475 
Q 2822 3834 2567 4026 
Q 2313 4219 1838 4219 
Q 1578 4219 1281 4162 
Q 984 4106 628 3988 
L 628 4550 
Q 988 4650 1302 4700 
Q 1616 4750 1894 4750 
Q 2613 4750 3031 4423 
Q 3450 4097 3450 3541 
Q 3450 3153 3228 2886 
Q 3006 2619 2597 2516 
z
" transform="scale(0.015625)"/>
      </defs>
      <use xlink:href="#DejaVuSans-31"/>
      <use xlink:href="#DejaVuSans-65" transform="translate(63.623047 0)"/>
      <use xlink:href="#DejaVuSans-2d" transform="translate(125.146484 0)"/>
      <use xlink:href="#DejaVuSans-30" transform="translate(161.230469 0)"/>
      <use xlink:href="#DejaVuSans-33" transform="translate(224.853516 0)"/>
     </g>
    </g>
    <g id="line2d_38">
     <path d="M 52.803125 123.485313 
L 62.803125 123.485313 
L 72.803125 123.485313 
" style="fill: none; stroke: #8c564b; stroke-linecap: square"/>
    </g>
    <g id="text_23">
     <!-- 1e-01 -->
     <g transform="translate(80.803125 126.985313) scale(0.1 -0.1)">
      <use xlink:href="#DejaVuSans-31"/>
      <use xlink:href="#DejaVuSans-65" transform="translate(63.623047 0)"/>
      <use xlink:href="#DejaVuSans-2d" transform="translate(125.146484 0)"/>
      <use xlink:href="#DejaVuSans-30" transform="translate(161.230469 0)"/>
      <use xlink:href="#DejaVuSans-31" transform="translate(224.853516 0)"/>
     </g>
    </g>
   </g>
  </g>
 </g>
 <defs>
  <clipPath id="pd61321dc05">
   <rect x="43.803125" y="22.318125" width="524.996875" height="226.60375"/>
  </clipPath>
 </defs>
</svg>
