<?xml version="1.0" encoding="utf-8" standalone="no"?>
<!DOCTYPE svg PUBLIC "-//W3C//DTD SVG 1.1//EN"
  "http://www.w3.org/Graphics/SVG/1.1/DTD/svg11.dtd">
<svg xmlns:xlink="http://www.w3.org/1999/xlink" width="576pt" height="288pt" viewBox="0 0 576 288" xmlns="http://www.w3.org/2000/svg" version="1.1">
 <metadata>
  <rdf:RDF xmlns:dc="http://purl.org/dc/elements/1.1/" xmlns:cc="http://creativecommons.org/ns#" xmlns:rdf="http://www.w3.org/1999/02/22-rdf-syntax-ns#">
   <cc:Work>
    <dc:type rdf:resource="http://purl.org/dc/dcmitype/StillImage"/>
    <dc:date>2026-05-03T16:50:51.260539</dc:date>
    <dc:format>image/svg+xml</dc:format>
    <dc:creator>
     <cc:Agent>
      <dc:title>Matplotlib v3.10.9, https://matplotlib.org/</dc:title>
     </cc:Agent>
    </dc:creator>
   </cc:Work>
  </rdf:RDF>
 </metadata>
 <defs>
  <style type="text/css">*{stroke-linejoin: round; stroke-linecap: butt}</style>
 </defs>
 <g id="figure_1">
  <g id="patch_1">
   <path d="M 0 288 
L 576 288 
L 576 0 
L 0 0 
z
" style="fill: #ffffff"/>
  </g>
  <g id="axes_1">
   <g id="patch_2">
    <path d="M 48.982813 250.421875 
L 568.8 250.421875 
L 568.8 22.32 
L 48.982813 22.32 
z
" style="fill: #ffffff"/>
   </g>
   <g id="matplotlib.axis_1">
    <g id="xtick_1">
     <g id="line2d_1">
      <path d="M 72.610866 250.421875 
L 72.610866 22.32 
" clip-path="url(#p94a636cbd5)" style="fill: none; stroke-dasharray: 2.96,1.28; stroke-dashoffset: 0; stroke: #b0b0b0; stroke-opacity: 0.8; stroke-width: 0.8"/>
     </g>
     <g id="line2d_2">
      <defs>
       <path id="m220465956f" d="M 0 0 
L 0 3.5 
" style="stroke: #000000; stroke-width: 0.8"/>
      </defs>
      <g>
       <use xlink:href="#m220465956f" x="72.610866" y="250.421875" style="stroke: #000000; stroke-width: 0.8"/>
      </g>
     </g>
     <g id="text_1">
      <!-- 0 -->
      <g transform="translate(69.429616 265.020312) scale(0.1 -0.1)">
       <defs>
        <path id="DejaVuSans-30" d="M 2034 4250 
Q 1547 4250 1301 3770 
Q 1056 3291 1056 2328 
Q 1056 1369 1301 889 
Q 1547 409 2034 409 
Q 2525 409 2770 889 
Q 3016 1369 3016 2328 
Q 3016 3291 2770 3770 
Q 2525 4250 2034 4250 
z
M 2034 4750 
Q 2819 4750 3233 4129 
Q 3647 3509 3647 2328 
Q 3647 1150 3233 529 
Q 2819 -91 2034 -91 
Q 1250 -91 836 529 
Q 422 1150 422 2328 
Q 422 3509 836 4129 
Q 1250 4750 2034 4750 
z
" transform="scale(0.015625)"/>
       </defs>
       <use xlink:href="#DejaVuSans-30"/>
      </g>
     </g>
    </g>
    <g id="xtick_2">
     <g id="line2d_3">
      <path d="M 167.123082 250.421875 
L 167.123082 22.32 
" clip-path="url(#p94a636cbd5)" style="fill: none; stroke-dasharray: 2.96,1.28; stroke-dashoffset: 0; stroke: #b0b0b0; stroke-opacity: 0.8; stroke-width: 0.8"/>
     </g>
     <g id="line2d_4">
      <g>
       <use xlink:href="#m220465956f" x="167.123082" y="250.421875" style="stroke: #000000; stroke-width: 0.8"/>
      </g>
     </g>
     <g id="text_2">
      <!-- 100 -->
      <g transform="translate(157.579332 265.020312) scale(0.1 -0.1)">
       <defs>
        <path id="DejaVuSans-31" d="M 794 531 
L 1825 531 
L 1825 4091 
L 703 3866 
L 703 4441 
L 1819 4666 
L 2450 4666 
L 2450 531 
L 3481 531 
L 3481 0 
L 794 0 
L 794 531 
z
" transform="scale(0.015625)"/>
       </defs>
       <use xlink:href="#DejaVuSans-31"/>
       <use xlink:href="#DejaVuSans-30" transform="translate(63.623047 0)"/>
       <use xlink:href="#DejaVuSans-30" transform="translate(127.246094 0)"/>
      </g>
     </g>
    </g>
    <g id="xtick_3">
     <g id="line2d_5">
      <path d="M 261.635298 250.421875 
L 261.635298 22.32 
" clip-path="url(#p94a636cbd5)" style="fill: none; stroke-dasharray: 2.96,1.28; stroke-dashoffset: 0; stroke: #b0b0b0; stroke-opacity: 0.8; stroke-width: 0.8"/>
     </g>
     <g id="line2d_6">
      <g>
       <use xlink:href="#m220465956f" x="261.635298" y="250.421875" style="stroke: #000000; stroke-width: 0.8"/>
      </g>
     </g>
     <g id="text_3">
      <!-- 200 -->
      <g transform="translate(252.091548 265.020312) scale(0.1 -0.1)">
       <defs>
        <path id="DejaVuSans-32" d="M 1228 531 
L 3431 531 
L 3431 0 
L 469 0 
L 469 531 
Q 828 903 1448 1529 
Q 2069 2156 2228 2338 
Q 2531 2678 2651 2914 
Q 2772 3150 2772 3378 
Q 2772 3750 2511 3984 
Q 2250 4219 1831 4219 
Q 1534 4219 1204 4116 
Q 875 4013 500 3803 
L 500 4441 
Q 881 4594 1212 4672 
Q 1544 4750 1819 4750 
Q 2544 4750 2975 4387 
Q 3406 4025 3406 3419 
Q 3406 3131 3298 2873 
Q 3191 2616 2906 2266 
Q 2828 2175 2409 1742 
Q 1991 1309 1228 531 
z
" transform="scale(0.015625)"/>
       </defs>
       <use xlink:href="#DejaVuSans-32"/>
       <use xlink:href="#DejaVuSans-30" transform="translate(63.623047 0)"/>
       <use xlink:href="#DejaVuSans-30" transform="translate(127.246094 0)"/>
      </g>
     </g>
    </g>
    <g id="xtick_4">
     <g id="line2d_7">
      <path d="M 356.147514 250.421875 
L 356.147514 22.32 
" clip-path="url(#p94a636cbd5)" style="fill: none; stroke-dasharray: 2.96,1.28; stroke-dashoffset: 0; stroke: #b0b0b0; stroke-opacity: 0.8; stroke-width: 0.8"/>
     </g>
     <g id="line2d_8">
      <g>
       <use xlink:href="#m220465956f" x="356.147514" y="250.421875" style="stroke: #000000; stroke-width: 0.8"/>
      </g>
     </g>
     <g id="text_4">
      <!-- 300 -->
      <g transform="translate(346.603764 265.020312) scale(0.1 -0.1)">
       <defs>
        <path id="DejaVuSans-33" d="M 2597 2516 
Q 3050 2419 3304 2112 
Q 3559 1806 3559 1356 
Q 3559 666 3084 287 
Q 2609 -91 1734 -91 
Q 1441 -91 1130 -33 
Q 819 25 488 141 
L 488 750 
Q 750 597 1062 519 
Q 1375 441 1716 441 
Q 2309 441 2620 675 
Q 2931 909 2931 1356 
Q 2931 1769 2642 2001 
Q 2353 2234 1838 2234 
L 1294 2234 
L 1294 2753 
L 1863 2753 
Q 2328 2753 2575 2939 
Q 2822 3125 2822 3475 
Q 2822 3834 2567 4026 
Q 2313 4219 1838 4219 
Q 1578 4219 1281 4162 
Q 984 4106 628 3988 
L 628 4550 
Q 988 4650 1302 4700 
Q 1616 4750 1894 4750 
Q 2613 4750 3031 4423 
Q 3450 4097 3450 3541 
Q 3450 3153 3228 2886 
Q 3006 2619 2597 2516 
z
" transform="scale(0.015625)"/>
       </defs>
       <use xlink:href="#DejaVuSans-33"/>
       <use xlink:href="#DejaVuSans-30" transform="translate(63.623047 0)"/>
       <use xlink:href="#DejaVuSans-30" transform="translate(127.246094 0)"/>
      </g>
     </g>
    </g>
    <g id="xtick_5">
     <g id="line2d_9">
      <path d="M 450.65973 250.421875 
L 450.65973 22.32 
" clip-path="url(#p94a636cbd5)" style="fill: none; stroke-dasharray: 2.96,1.28; stroke-dashoffset: 0; stroke: #b0b0b0; stroke-opacity: 0.8; stroke-width: 0.8"/>
     </g>
     <g id="line2d_10">
      <g>
       <use xlink:href="#m220465956f" x="450.65973" y="250.421875" style="stroke: #000000; stroke-width: 0.8"/>
      </g>
     </g>
     <g id="text_5">
      <!-- 400 -->
      <g transform="translate(441.11598 265.020312) scale(0.1 -0.1)">
       <defs>
        <path id="DejaVuSans-34" d="M 2419 4116 
L 825 1625 
L 2419 1625 
L 2419 4116 
z
M 2253 4666 
L 3047 4666 
L 3047 1625 
L 3713 1625 
L 3713 1100 
L 3047 1100 
L 3047 0 
L 2419 0 
L 2419 1100 
L 313 1100 
L 313 1709 
L 2253 4666 
z
" transform="scale(0.015625)"/>
       </defs>
       <use xlink:href="#DejaVuSans-34"/>
       <use xlink:href="#DejaVuSans-30" transform="translate(63.623047 0)"/>
       <use xlink:href="#DejaVuSans-30" transform="translate(127.246094 0)"/>
      </g>
     </g>
    </g>
    <g id="xtick_6">
     <g id="line2d_11">
      <path d="M 545.171946 250.421875 
L 545.171946 22.32 
" clip-path="url(#p94a636cbd5)" style="fill: none; stroke-dasharray: 2.96,1.28; stroke-dashoffset: 0; stroke: #b0b0b0; stroke-opacity: 0.8; stroke-width: 0.8"/>
     </g>
     <g id="line2d_12">
      <g>
       <use xlink:href="#m220465956f" x="545.171946" y="250.421875" style="stroke: #000000; stroke-width: 0.8"/>
      </g>
     </g>
     <g id="text_6">
      <!-- 500 -->
      <g transform="translate(535.628196 265.020312) scale(0.1 -0.1)">
       <defs>
        <path id="DejaVuSans-35" d="M 691 4666 
L 3169 4666 
L 3169 4134 
L 1269 4134 
L 1269 2991 
Q 1406 3038 1543 3061 
Q 1681 3084 1819 3084 
Q 2600 3084 3056 2656 
Q 3513 2228 3513 1497 
Q 3513 744 3044 326 
Q 2575 -91 1722 -91 
Q 1428 -91 1123 -41 
Q 819 9 494 109 
L 494 744 
Q 775 591 1075 516 
Q 1375 441 1709 441 
Q 2250 441 2565 725 
Q 2881 1009 2881 1497 
Q 2881 1984 2565 2268 
Q 2250 2553 1709 2553 
Q 1456 2553 1204 2497 
Q 953 2441 691 2322 
L 691 4666 
z
" transform="scale(0.015625)"/>
       </defs>
       <use xlink:href="#DejaVuSans-35"/>
       <use xlink:href="#DejaVuSans-30" transform="translate(63.623047 0)"/>
       <use xlink:href="#DejaVuSans-30" transform="translate(127.246094 0)"/>
      </g>
     </g>
    </g>
    <g id="text_7">
     <!-- Frequency (Hz), $f$ -->
     <g transform="translate(265.741406 278.7) scale(0.1 -0.1)">
      <defs>
       <path id="DejaVuSans-46" d="M 628 4666 
L 3309 4666 
L 3309 4134 
L 1259 4134 
L 1259 2759 
L 3109 2759 
L 3109 2228 
L 1259 2228 
L 1259 0 
L 628 0 
L 628 4666 
z
" transform="scale(0.015625)"/>
       <path id="DejaVuSans-72" d="M 2631 2963 
Q 2534 3019 2420 3045 
Q 2306 3072 2169 3072 
Q 1681 3072 1420 2755 
Q 1159 2438 1159 1844 
L 1159 0 
L 581 0 
L 581 3500 
L 1159 3500 
L 1159 2956 
Q 1341 3275 1631 3429 
Q 1922 3584 2338 3584 
Q 2397 3584 2469 3576 
Q 2541 3569 2628 3553 
L 2631 2963 
z
" transform="scale(0.015625)"/>
       <path id="DejaVuSans-65" d="M 3597 1894 
L 3597 1613 
L 953 1613 
Q 991 1019 1311 708 
Q 1631 397 2203 397 
Q 2534 397 2845 478 
Q 3156 559 3463 722 
L 3463 178 
Q 3153 47 2828 -22 
Q 2503 -91 2169 -91 
Q 1331 -91 842 396 
Q 353 884 353 1716 
Q 353 2575 817 3079 
Q 1281 3584 2069 3584 
Q 2775 3584 3186 3129 
Q 3597 2675 3597 1894 
z
M 3022 2063 
Q 3016 2534 2758 2815 
Q 2500 3097 2075 3097 
Q 1594 3097 1305 2825 
Q 1016 2553 972 2059 
L 3022 2063 
z
" transform="scale(0.015625)"/>
       <path id="DejaVuSans-71" d="M 947 1747 
Q 947 1113 1208 752 
Q 1469 391 1925 391 
Q 2381 391 2643 752 
Q 2906 1113 2906 1747 
Q 2906 2381 2643 2742 
Q 2381 3103 1925 3103 
Q 1469 3103 1208 2742 
Q 947 2381 947 1747 
z
M 2906 525 
Q 2725 213 2448 61 
Q 2172 -91 1784 -91 
Q 1150 -91 751 415 
Q 353 922 353 1747 
Q 353 2572 751 3078 
Q 1150 3584 1784 3584 
Q 2172 3584 2448 3432 
Q 2725 3281 2906 2969 
L 2906 3500 
L 3481 3500 
L 3481 -1331 
L 2906 -1331 
L 2906 525 
z
" transform="scale(0.015625)"/>
       <path id="DejaVuSans-75" d="M 544 1381 
L 544 3500 
L 1119 3500 
L 1119 1403 
Q 1119 906 1312 657 
Q 1506 409 1894 409 
Q 2359 409 2629 706 
Q 2900 1003 2900 1516 
L 2900 3500 
L 3475 3500 
L 3475 0 
L 2900 0 
L 2900 538 
Q 2691 219 2414 64 
Q 2138 -91 1772 -91 
Q 1169 -91 856 284 
Q 544 659 544 1381 
z
M 1991 3584 
L 1991 3584 
z
" transform="scale(0.015625)"/>
       <path id="DejaVuSans-6e" d="M 3513 2113 
L 3513 0 
L 2938 0 
L 2938 2094 
Q 2938 2591 2744 2837 
Q 2550 3084 2163 3084 
Q 1697 3084 1428 2787 
Q 1159 2491 1159 1978 
L 1159 0 
L 581 0 
L 581 3500 
L 1159 3500 
L 1159 2956 
Q 1366 3272 1645 3428 
Q 1925 3584 2291 3584 
Q 2894 3584 3203 3211 
Q 3513 2838 3513 2113 
z
" transform="scale(0.015625)"/>
       <path id="DejaVuSans-63" d="M 3122 3366 
L 3122 2828 
Q 2878 2963 2633 3030 
Q 2388 3097 2138 3097 
Q 1578 3097 1268 2742 
Q 959 2388 959 1747 
Q 959 1106 1268 751 
Q 1578 397 2138 397 
Q 2388 397 2633 464 
Q 2878 531 3122 666 
L 3122 134 
Q 2881 22 2623 -34 
Q 2366 -91 2075 -91 
Q 1284 -91 818 406 
Q 353 903 353 1747 
Q 353 2603 823 3093 
Q 1294 3584 2113 3584 
Q 2378 3584 2631 3529 
Q 2884 3475 3122 3366 
z
" transform="scale(0.015625)"/>
       <path id="DejaVuSans-79" d="M 2059 -325 
Q 1816 -950 1584 -1140 
Q 1353 -1331 966 -1331 
L 506 -1331 
L 506 -850 
L 844 -850 
Q 1081 -850 1212 -737 
Q 1344 -625 1503 -206 
L 1606 56 
L 191 3500 
L 800 3500 
L 1894 763 
L 2988 3500 
L 3597 3500 
L 2059 -325 
z
" transform="scale(0.015625)"/>
       <path id="DejaVuSans-20" transform="scale(0.015625)"/>
       <path id="DejaVuSans-28" d="M 1984 4856 
Q 1566 4138 1362 3434 
Q 1159 2731 1159 2009 
Q 1159 1288 1364 580 
Q 1569 -128 1984 -844 
L 1484 -844 
Q 1016 -109 783 600 
Q 550 1309 550 2009 
Q 550 2706 781 3412 
Q 1013 4119 1484 4856 
L 1984 4856 
z
" transform="scale(0.015625)"/>
       <path id="DejaVuSans-48" d="M 628 4666 
L 1259 4666 
L 1259 2753 
L 3553 2753 
L 3553 4666 
L 4184 4666 
L 4184 0 
L 3553 0 
L 3553 2222 
L 1259 2222 
L 1259 0 
L 628 0 
L 628 4666 
z
" transform="scale(0.015625)"/>
       <path id="DejaVuSans-7a" d="M 353 3500 
L 3084 3500 
L 3084 2975 
L 922 459 
L 3084 459 
L 3084 0 
L 275 0 
L 275 525 
L 2438 3041 
L 353 3041 
L 353 3500 
z
" transform="scale(0.015625)"/>
       <path id="DejaVuSans-29" d="M 513 4856 
L 1013 4856 
Q 1481 4119 1714 3412 
Q 1947 2706 1947 2009 
Q 1947 1309 1714 600 
Q 1481 -109 1013 -844 
L 513 -844 
Q 928 -128 1133 580 
Q 1338 1288 1338 2009 
Q 1338 2731 1133 3434 
Q 928 4138 513 4856 
z
" transform="scale(0.015625)"/>
       <path id="DejaVuSans-2c" d="M 750 794 
L 1409 794 
L 1409 256 
L 897 -744 
L 494 -744 
L 750 256 
L 750 794 
z
" transform="scale(0.015625)"/>
       <path id="DejaVuSans-Oblique-66" d="M 3059 4863 
L 2969 4384 
L 2419 4384 
Q 2106 4384 1964 4261 
Q 1822 4138 1753 3809 
L 1691 3500 
L 2638 3500 
L 2553 3053 
L 1606 3053 
L 1013 0 
L 434 0 
L 1031 3053 
L 481 3053 
L 563 3500 
L 1113 3500 
L 1159 3744 
Q 1278 4363 1576 4613 
Q 1875 4863 2516 4863 
L 3059 4863 
z
" transform="scale(0.015625)"/>
      </defs>
      <use xlink:href="#DejaVuSans-46" transform="translate(0 0.015625)"/>
      <use xlink:href="#DejaVuSans-72" transform="translate(57.519531 0.015625)"/>
      <use xlink:href="#DejaVuSans-65" transform="translate(98.632812 0.015625)"/>
      <use xlink:href="#DejaVuSans-71" transform="translate(160.15625 0.015625)"/>
      <use xlink:href="#DejaVuSans-75" transform="translate(223.632812 0.015625)"/>
      <use xlink:href="#DejaVuSans-65" transform="translate(287.011719 0.015625)"/>
      <use xlink:href="#DejaVuSans-6e" transform="translate(348.535156 0.015625)"/>
      <use xlink:href="#DejaVuSans-63" transform="translate(411.914062 0.015625)"/>
      <use xlink:href="#DejaVuSans-79" transform="translate(466.894531 0.015625)"/>
      <use xlink:href="#DejaVuSans-20" transform="translate(526.074219 0.015625)"/>
      <use xlink:href="#DejaVuSans-28" transform="translate(557.861328 0.015625)"/>
      <use xlink:href="#DejaVuSans-48" transform="translate(596.875 0.015625)"/>
      <use xlink:href="#DejaVuSans-7a" transform="translate(672.070312 0.015625)"/>
      <use xlink:href="#DejaVuSans-29" transform="translate(724.560547 0.015625)"/>
      <use xlink:href="#DejaVuSans-2c" transform="translate(763.574219 0.015625)"/>
      <use xlink:href="#DejaVuSans-20" transform="translate(795.361328 0.015625)"/>
      <use xlink:href="#DejaVuSans-Oblique-66" transform="translate(827.148438 0.015625)"/>
     </g>
    </g>
   </g>
   <g id="matplotlib.axis_2">
    <g id="ytick_1">
     <g id="line2d_13">
      <path d="M 48.982813 221.175666 
L 568.8 221.175666 
" clip-path="url(#p94a636cbd5)" style="fill: none; stroke-dasharray: 2.96,1.28; stroke-dashoffset: 0; stroke: #b0b0b0; stroke-opacity: 0.8; stroke-width: 0.8"/>
     </g>
     <g id="line2d_14">
      <defs>
       <path id="m5380af373b" d="M 0 0 
L -3.5 0 
" style="stroke: #000000; stroke-width: 0.8"/>
      </defs>
      <g>
       <use xlink:href="#m5380af373b" x="48.982813" y="221.175666" style="stroke: #000000; stroke-width: 0.8"/>
      </g>
     </g>
     <g id="text_8">
      <!-- −60 -->
      <g transform="translate(20.878125 224.974884) scale(0.1 -0.1)">
       <defs>
        <path id="DejaVuSans-2212" d="M 678 2272 
L 4684 2272 
L 4684 1741 
L 678 1741 
L 678 2272 
z
" transform="scale(0.015625)"/>
        <path id="DejaVuSans-36" d="M 2113 2584 
Q 1688 2584 1439 2293 
Q 1191 2003 1191 1497 
Q 1191 994 1439 701 
Q 1688 409 2113 409 
Q 2538 409 2786 701 
Q 3034 994 3034 1497 
Q 3034 2003 2786 2293 
Q 2538 2584 2113 2584 
z
M 3366 4563 
L 3366 3988 
Q 3128 4100 2886 4159 
Q 2644 4219 2406 4219 
Q 1781 4219 1451 3797 
Q 1122 3375 1075 2522 
Q 1259 2794 1537 2939 
Q 1816 3084 2150 3084 
Q 2853 3084 3261 2657 
Q 3669 2231 3669 1497 
Q 3669 778 3244 343 
Q 2819 -91 2113 -91 
Q 1303 -91 875 529 
Q 447 1150 447 2328 
Q 447 3434 972 4092 
Q 1497 4750 2381 4750 
Q 2619 4750 2861 4703 
Q 3103 4656 3366 4563 
z
" transform="scale(0.015625)"/>
       </defs>
       <use xlink:href="#DejaVuSans-2212"/>
       <use xlink:href="#DejaVuSans-36" transform="translate(83.789062 0)"/>
       <use xlink:href="#DejaVuSans-30" transform="translate(147.412109 0)"/>
      </g>
     </g>
    </g>
    <g id="ytick_2">
     <g id="line2d_15">
      <path d="M 48.982813 182.945736 
L 568.8 182.945736 
" clip-path="url(#p94a636cbd5)" style="fill: none; stroke-dasharray: 2.96,1.28; stroke-dashoffset: 0; stroke: #b0b0b0; stroke-opacity: 0.8; stroke-width: 0.8"/>
     </g>
     <g id="line2d_16">
      <g>
       <use xlink:href="#m5380af373b" x="48.982813" y="182.945736" style="stroke: #000000; stroke-width: 0.8"/>
      </g>
     </g>
     <g id="text_9">
      <!-- −50 -->
      <g transform="translate(20.878125 186.744955) scale(0.1 -0.1)">
       <use xlink:href="#DejaVuSans-2212"/>
       <use xlink:href="#DejaVuSans-35" transform="translate(83.789062 0)"/>
       <use xlink:href="#DejaVuSans-30" transform="translate(147.412109 0)"/>
      </g>
     </g>
    </g>
    <g id="ytick_3">
     <g id="line2d_17">
      <path d="M 48.982813 144.715807 
L 568.8 144.715807 
" clip-path="url(#p94a636cbd5)" style="fill: none; stroke-dasharray: 2.96,1.28; stroke-dashoffset: 0; stroke: #b0b0b0; stroke-opacity: 0.8; stroke-width: 0.8"/>
     </g>
     <g id="line2d_18">
      <g>
       <use xlink:href="#m5380af373b" x="48.982813" y="144.715807" style="stroke: #000000; stroke-width: 0.8"/>
      </g>
     </g>
     <g id="text_10">
      <!-- −40 -->
      <g transform="translate(20.878125 148.515026) scale(0.1 -0.1)">
       <use xlink:href="#DejaVuSans-2212"/>
       <use xlink:href="#DejaVuSans-34" transform="translate(83.789062 0)"/>
       <use xlink:href="#DejaVuSans-30" transform="translate(147.412109 0)"/>
      </g>
     </g>
    </g>
    <g id="ytick_4">
     <g id="line2d_19">
      <path d="M 48.982813 106.485878 
L 568.8 106.485878 
" clip-path="url(#p94a636cbd5)" style="fill: none; stroke-dasharray: 2.96,1.28; stroke-dashoffset: 0; stroke: #b0b0b0; stroke-opacity: 0.8; stroke-width: 0.8"/>
     </g>
     <g id="line2d_20">
      <g>
       <use xlink:href="#m5380af373b" x="48.982813" y="106.485878" style="stroke: #000000; stroke-width: 0.8"/>
      </g>
     </g>
     <g id="text_11">
      <!-- −30 -->
      <g transform="translate(20.878125 110.285097) scale(0.1 -0.1)">
       <use xlink:href="#DejaVuSans-2212"/>
       <use xlink:href="#DejaVuSans-33" transform="translate(83.789062 0)"/>
       <use xlink:href="#DejaVuSans-30" transform="translate(147.412109 0)"/>
      </g>
     </g>
    </g>
    <g id="ytick_5">
     <g id="line2d_21">
      <path d="M 48.982813 68.255949 
L 568.8 68.255949 
" clip-path="url(#p94a636cbd5)" style="fill: none; stroke-dasharray: 2.96,1.28; stroke-dashoffset: 0; stroke: #b0b0b0; stroke-opacity: 0.8; stroke-width: 0.8"/>
     </g>
     <g id="line2d_22">
      <g>
       <use xlink:href="#m5380af373b" x="48.982813" y="68.255949" style="stroke: #000000; stroke-width: 0.8"/>
      </g>
     </g>
     <g id="text_12">
      <!-- −20 -->
      <g transform="translate(20.878125 72.055167) scale(0.1 -0.1)">
       <use xlink:href="#DejaVuSans-2212"/>
       <use xlink:href="#DejaVuSans-32" transform="translate(83.789062 0)"/>
       <use xlink:href="#DejaVuSans-30" transform="translate(147.412109 0)"/>
      </g>
     </g>
    </g>
    <g id="ytick_6">
     <g id="line2d_23">
      <path d="M 48.982813 30.02602 
L 568.8 30.02602 
" clip-path="url(#p94a636cbd5)" style="fill: none; stroke-dasharray: 2.96,1.28; stroke-dashoffset: 0; stroke: #b0b0b0; stroke-opacity: 0.8; stroke-width: 0.8"/>
     </g>
     <g id="line2d_24">
      <g>
       <use xlink:href="#m5380af373b" x="48.982813" y="30.02602" style="stroke: #000000; stroke-width: 0.8"/>
      </g>
     </g>
     <g id="text_13">
      <!-- −10 -->
      <g transform="translate(20.878125 33.825238) scale(0.1 -0.1)">
       <use xlink:href="#DejaVuSans-2212"/>
       <use xlink:href="#DejaVuSans-31" transform="translate(83.789062 0)"/>
       <use xlink:href="#DejaVuSans-30" transform="translate(147.412109 0)"/>
      </g>
     </g>
    </g>
    <g id="text_14">
     <!-- Power density (dB/Hz) -->
     <g transform="translate(14.798437 191.570938) rotate(-90) scale(0.1 -0.1)">
      <defs>
       <path id="DejaVuSans-50" d="M 1259 4147 
L 1259 2394 
L 2053 2394 
Q 2494 2394 2734 2622 
Q 2975 2850 2975 3272 
Q 2975 3691 2734 3919 
Q 2494 4147 2053 4147 
L 1259 4147 
z
M 628 4666 
L 2053 4666 
Q 2838 4666 3239 4311 
Q 3641 3956 3641 3272 
Q 3641 2581 3239 2228 
Q 2838 1875 2053 1875 
L 1259 1875 
L 1259 0 
L 628 0 
L 628 4666 
z
" transform="scale(0.015625)"/>
       <path id="DejaVuSans-6f" d="M 1959 3097 
Q 1497 3097 1228 2736 
Q 959 2375 959 1747 
Q 959 1119 1226 758 
Q 1494 397 1959 397 
Q 2419 397 2687 759 
Q 2956 1122 2956 1747 
Q 2956 2369 2687 2733 
Q 2419 3097 1959 3097 
z
M 1959 3584 
Q 2709 3584 3137 3096 
Q 3566 2609 3566 1747 
Q 3566 888 3137 398 
Q 2709 -91 1959 -91 
Q 1206 -91 779 398 
Q 353 888 353 1747 
Q 353 2609 779 3096 
Q 1206 3584 1959 3584 
z
" transform="scale(0.015625)"/>
       <path id="DejaVuSans-77" d="M 269 3500 
L 844 3500 
L 1563 769 
L 2278 3500 
L 2956 3500 
L 3675 769 
L 4391 3500 
L 4966 3500 
L 4050 0 
L 3372 0 
L 2619 2869 
L 1863 0 
L 1184 0 
L 269 3500 
z
" transform="scale(0.015625)"/>
       <path id="DejaVuSans-64" d="M 2906 2969 
L 2906 4863 
L 3481 4863 
L 3481 0 
L 2906 0 
L 2906 525 
Q 2725 213 2448 61 
Q 2172 -91 1784 -91 
Q 1150 -91 751 415 
Q 353 922 353 1747 
Q 353 2572 751 3078 
Q 1150 3584 1784 3584 
Q 2172 3584 2448 3432 
Q 2725 3281 2906 2969 
z
M 947 1747 
Q 947 1113 1208 752 
Q 1469 391 1925 391 
Q 2381 391 2643 752 
Q 2906 1113 2906 1747 
Q 2906 2381 2643 2742 
Q 2381 3103 1925 3103 
Q 1469 3103 1208 2742 
Q 947 2381 947 1747 
z
" transform="scale(0.015625)"/>
       <path id="DejaVuSans-73" d="M 2834 3397 
L 2834 2853 
Q 2591 2978 2328 3040 
Q 2066 3103 1784 3103 
Q 1356 3103 1142 2972 
Q 928 2841 928 2578 
Q 928 2378 1081 2264 
Q 1234 2150 1697 2047 
L 1894 2003 
Q 2506 1872 2764 1633 
Q 3022 1394 3022 966 
Q 3022 478 2636 193 
Q 2250 -91 1575 -91 
Q 1294 -91 989 -36 
Q 684 19 347 128 
L 347 722 
Q 666 556 975 473 
Q 1284 391 1588 391 
Q 1994 391 2212 530 
Q 2431 669 2431 922 
Q 2431 1156 2273 1281 
Q 2116 1406 1581 1522 
L 1381 1569 
Q 847 1681 609 1914 
Q 372 2147 372 2553 
Q 372 3047 722 3315 
Q 1072 3584 1716 3584 
Q 2034 3584 2315 3537 
Q 2597 3491 2834 3397 
z
" transform="scale(0.015625)"/>
       <path id="DejaVuSans-69" d="M 603 3500 
L 1178 3500 
L 1178 0 
L 603 0 
L 603 3500 
z
M 603 4863 
L 1178 4863 
L 1178 4134 
L 603 4134 
L 603 4863 
z
" transform="scale(0.015625)"/>
       <path id="DejaVuSans-74" d="M 1172 4494 
L 1172 3500 
L 2356 3500 
L 2356 3053 
L 1172 3053 
L 1172 1153 
Q 1172 725 1289 603 
Q 1406 481 1766 481 
L 2356 481 
L 2356 0 
L 1766 0 
Q 1100 0 847 248 
Q 594 497 594 1153 
L 594 3053 
L 172 3053 
L 172 3500 
L 594 3500 
L 594 4494 
L 1172 4494 
z
" transform="scale(0.015625)"/>
       <path id="DejaVuSans-42" d="M 1259 2228 
L 1259 519 
L 2272 519 
Q 2781 519 3026 730 
Q 3272 941 3272 1375 
Q 3272 1813 3026 2020 
Q 2781 2228 2272 2228 
L 1259 2228 
z
M 1259 4147 
L 1259 2741 
L 2194 2741 
Q 2656 2741 2882 2914 
Q 3109 3088 3109 3444 
Q 3109 3797 2882 3972 
Q 2656 4147 2194 4147 
L 1259 4147 
z
M 628 4666 
L 2241 4666 
Q 2963 4666 3353 4366 
Q 3744 4066 3744 3513 
Q 3744 3084 3544 2831 
Q 3344 2578 2956 2516 
Q 3422 2416 3680 2098 
Q 3938 1781 3938 1306 
Q 3938 681 3513 340 
Q 3088 0 2303 0 
L 628 0 
L 628 4666 
z
" transform="scale(0.015625)"/>
       <path id="DejaVuSans-2f" d="M 1625 4666 
L 2156 4666 
L 531 -594 
L 0 -594 
L 1625 4666 
z
" transform="scale(0.015625)"/>
      </defs>
      <use xlink:href="#DejaVuSans-50"/>
      <use xlink:href="#DejaVuSans-6f" transform="translate(56.677734 0)"/>
      <use xlink:href="#DejaVuSans-77" transform="translate(117.859375 0)"/>
      <use xlink:href="#DejaVuSans-65" transform="translate(199.646484 0)"/>
      <use xlink:href="#DejaVuSans-72" transform="translate(261.169922 0)"/>
      <use xlink:href="#DejaVuSans-20" transform="translate(302.283203 0)"/>
      <use xlink:href="#DejaVuSans-64" transform="translate(334.070312 0)"/>
      <use xlink:href="#DejaVuSans-65" transform="translate(397.546875 0)"/>
      <use xlink:href="#DejaVuSans-6e" transform="translate(459.070312 0)"/>
      <use xlink:href="#DejaVuSans-73" transform="translate(522.449219 0)"/>
      <use xlink:href="#DejaVuSans-69" transform="translate(574.548828 0)"/>
      <use xlink:href="#DejaVuSans-74" transform="translate(602.332031 0)"/>
      <use xlink:href="#DejaVuSans-79" transform="translate(641.541016 0)"/>
      <use xlink:href="#DejaVuSans-20" transform="translate(700.720703 0)"/>
      <use xlink:href="#DejaVuSans-28" transform="translate(732.507812 0)"/>
      <use xlink:href="#DejaVuSans-64" transform="translate(771.521484 0)"/>
      <use xlink:href="#DejaVuSans-42" transform="translate(834.998047 0)"/>
      <use xlink:href="#DejaVuSans-2f" transform="translate(903.601562 0)"/>
      <use xlink:href="#DejaVuSans-48" transform="translate(937.292969 0)"/>
      <use xlink:href="#DejaVuSans-7a" transform="translate(1012.488281 0)"/>
      <use xlink:href="#DejaVuSans-29" transform="translate(1064.978516 0)"/>
     </g>
    </g>
   </g>
   <g id="line2d_25">
    <path d="M 72.610866 236.167902 
L 73.072352 224.016952 
L 73.533837 222.293508 
L 75.379779 213.130108 
L 75.841264 211.560309 
L 76.30275 210.4322 
L 76.764235 209.733361 
L 77.225721 209.433726 
L 77.687206 209.493764 
L 78.148692 209.869054 
L 78.610177 210.513119 
L 79.533148 212.423111 
L 80.917604 216.204515 
L 82.30206 220.087314 
L 83.225031 221.969698 
L 83.686517 222.460931 
L 84.148002 222.558764 
L 84.609488 222.237557 
L 85.070973 221.524859 
L 85.993944 219.267541 
L 87.3784 215.466148 
L 88.301371 213.63542 
L 88.762857 213.051997 
L 89.224342 212.69989 
L 89.685827 212.569268 
L 90.147313 212.639002 
L 90.608798 212.877998 
L 91.531769 213.694793 
L 92.45474 214.608673 
L 92.916225 214.954935 
L 93.377711 215.155071 
L 93.839196 215.170926 
L 94.300682 214.985519 
L 94.762167 214.606516 
L 95.685138 213.409424 
L 97.069594 211.349012 
L 97.992565 210.441062 
L 98.454051 210.25341 
L 98.915536 210.281907 
L 99.377021 210.547039 
L 99.838507 211.062849 
L 100.299992 211.836556 
L 101.222963 214.144948 
L 102.145934 217.33093 
L 103.991876 224.402708 
L 104.453361 225.73021 
L 104.914847 226.689425 
L 105.376332 227.257466 
L 105.837817 227.478976 
L 106.299303 227.45537 
L 107.222274 227.204252 
L 107.683759 227.227259 
L 108.145245 227.471043 
L 108.60673 227.976482 
L 109.529701 229.657954 
L 110.452672 231.309777 
L 110.914157 231.524315 
L 111.375643 231.027268 
L 111.837128 229.771224 
L 112.760099 225.66875 
L 114.144555 219.08201 
L 115.067526 215.862359 
L 115.990497 213.675678 
L 116.913468 212.249809 
L 117.836439 211.323181 
L 118.759409 210.770879 
L 119.68238 210.591987 
L 120.605351 210.815974 
L 121.528322 211.421635 
L 122.451293 212.324814 
L 123.835749 214.058788 
L 124.75872 215.483079 
L 125.681691 217.236107 
L 127.989118 222.395907 
L 128.450603 223.022684 
L 128.912089 223.293141 
L 129.373574 223.172122 
L 129.83506 222.691874 
L 130.758031 221.032113 
L 132.142487 218.273406 
L 135.83437 212.064446 
L 136.295856 211.46837 
L 136.757341 211.080323 
L 137.218827 210.957185 
L 137.680312 211.139964 
L 138.141797 211.649769 
L 138.603283 212.483748 
L 139.526254 214.957687 
L 140.91071 218.98594 
L 141.372195 219.733503 
L 141.833681 219.957088 
L 142.295166 219.666719 
L 142.756652 218.983224 
L 144.141108 216.349849 
L 144.602593 215.750853 
L 145.064079 215.417918 
L 145.525564 215.370052 
L 145.98705 215.599781 
L 146.448535 216.077942 
L 147.371506 217.555285 
L 148.294477 219.104016 
L 148.755962 219.593414 
L 149.217448 219.73818 
L 149.678933 219.489525 
L 150.140419 218.880087 
L 151.063389 217.001105 
L 152.447846 214.056035 
L 153.370817 212.581221 
L 153.832302 212.136205 
L 154.293787 212.019292 
L 154.755273 212.347867 
L 155.216758 213.2021 
L 156.139729 216.185122 
L 156.601215 217.621791 
L 157.0627 218.31369 
L 157.524185 218.110959 
L 157.985671 217.63098 
L 158.447156 218.026502 
L 158.908642 220.476677 
L 159.370127 225.027026 
L 159.831613 224.827209 
L 160.293098 210.521433 
L 161.216069 177.362441 
L 162.13904 154.086757 
L 163.062011 137.534071 
L 163.984981 125.618406 
L 164.907952 117.321041 
L 165.369438 114.350621 
L 165.830923 112.107032 
L 166.292409 110.561846 
L 166.753894 109.69641 
L 167.215379 109.500598 
L 167.676865 109.972166 
L 168.13835 111.116614 
L 168.599836 112.947522 
L 169.061321 115.487427 
L 169.984292 122.839148 
L 170.907263 133.613828 
L 171.830234 148.623795 
L 172.753205 169.318785 
L 174.137661 207.597507 
L 174.599146 210.133506 
L 175.522117 205.274166 
L 175.983603 204.319492 
L 176.445088 204.435613 
L 177.829544 206.210662 
L 178.752515 206.864262 
L 179.214001 207.40807 
L 179.675486 208.270126 
L 180.598457 210.915684 
L 181.982913 215.438964 
L 182.444399 216.52597 
L 182.905884 217.252017 
L 183.367369 217.612208 
L 183.828855 217.662534 
L 185.213311 217.167937 
L 185.674797 217.260628 
L 186.136282 217.674397 
L 186.597768 218.462034 
L 187.520738 221.047167 
L 188.443709 223.910413 
L 188.905195 224.70605 
L 189.36668 224.665487 
L 189.828166 223.688133 
L 190.289651 221.91606 
L 193.058564 208.589039 
L 193.981534 206.030477 
L 194.44302 205.239216 
L 194.904505 204.772857 
L 195.365991 204.626757 
L 195.827476 204.792898 
L 196.288962 205.259367 
L 196.750447 206.009589 
L 197.673418 208.26615 
L 198.596389 211.299289 
L 200.44233 217.888433 
L 201.365301 220.19141 
L 201.826787 220.855964 
L 202.288272 221.18657 
L 202.749758 221.235915 
L 203.672728 220.872503 
L 204.134214 220.678966 
L 204.595699 220.609622 
L 205.057185 220.739363 
L 205.51867 221.121001 
L 205.980156 221.78687 
L 206.441641 222.751527 
L 207.364612 225.562037 
L 208.287583 229.39435 
L 210.133524 238.008947 
L 210.59501 239.443071 
L 211.056495 240.053608 
L 211.517981 239.611465 
L 211.979466 238.086446 
L 212.902437 232.726518 
L 214.286893 223.559549 
L 215.209864 218.810025 
L 216.132835 215.645144 
L 216.59432 214.654938 
L 217.055806 214.033688 
L 217.517291 213.752194 
L 217.978777 213.775677 
L 218.440262 214.065592 
L 218.901748 214.58186 
L 219.824718 216.142744 
L 220.747689 218.218448 
L 222.132146 222.103105 
L 223.516602 226.844698 
L 224.901058 231.429706 
L 225.362544 232.466196 
L 225.824029 233.067252 
L 226.285514 233.180009 
L 226.747 232.825966 
L 227.208485 232.093385 
L 228.131456 229.991634 
L 229.515912 226.7244 
L 230.900369 224.056934 
L 235.053738 216.62716 
L 235.976708 215.705749 
L 236.899679 215.23316 
L 237.82265 215.088427 
L 238.745621 215.158265 
L 239.668592 215.46697 
L 240.130077 215.767302 
L 240.591563 216.209854 
L 241.053048 216.82936 
L 241.976019 218.706663 
L 242.89899 221.48003 
L 244.744932 228.020157 
L 245.206417 229.066736 
L 245.667902 229.547636 
L 246.129388 229.410725 
L 246.590873 228.731645 
L 248.8983 223.650472 
L 249.359786 223.318083 
L 249.821271 223.379269 
L 250.282757 223.853185 
L 250.744242 224.745722 
L 251.205728 226.051304 
L 252.128698 229.799833 
L 253.97464 238.641759 
L 254.436126 239.509238 
L 254.897611 239.151963 
L 255.359096 237.57343 
L 256.282067 232.092232 
L 257.666524 223.330794 
L 258.589494 219.115908 
L 259.05098 217.632768 
L 259.512465 216.562243 
L 259.973951 215.884729 
L 260.435436 215.571153 
L 260.896922 215.584491 
L 261.358407 215.87995 
L 262.281378 217.088786 
L 263.665834 219.199812 
L 264.12732 219.557805 
L 264.588805 219.590803 
L 265.05029 219.281166 
L 265.511776 218.681323 
L 267.357718 215.65727 
L 267.819203 215.253166 
L 268.280688 215.108239 
L 268.742174 215.249881 
L 269.203659 215.700656 
L 269.665145 216.482552 
L 270.12663 217.615304 
L 271.049601 220.947025 
L 273.357028 231.508551 
L 273.818514 232.739662 
L 274.279999 233.51824 
L 274.741484 233.960229 
L 275.664455 234.345173 
L 277.510397 234.837472 
L 277.971882 234.688236 
L 278.433368 234.037438 
L 278.894853 232.666955 
L 279.817824 228.095112 
L 280.740795 223.609637 
L 281.20228 222.298738 
L 281.663766 221.823798 
L 282.125251 222.154159 
L 283.509708 225.203391 
L 283.971193 225.578785 
L 284.432679 225.412484 
L 285.355649 224.804331 
L 286.27862 224.719327 
L 286.740106 224.103606 
L 287.201591 222.690969 
L 288.124562 219.279835 
L 288.586047 218.858612 
L 289.047533 220.16473 
L 289.509018 223.485496 
L 289.970504 228.213987 
L 290.431989 231.166857 
L 290.893475 227.888073 
L 291.816445 213.995502 
L 292.277931 210.104146 
L 292.739416 209.459243 
L 293.200902 212.426007 
L 294.123873 224.006289 
L 294.585358 216.822517 
L 295.508329 194.433151 
L 295.969814 188.702906 
L 296.4313 187.059896 
L 296.892785 190.108313 
L 297.354271 199.451195 
L 297.815756 212.625279 
L 298.277241 198.775277 
L 298.738727 178.373296 
L 299.200212 164.962042 
L 299.661698 156.985157 
L 300.123183 153.844657 
L 300.584669 156.57439 
L 301.046154 170.328238 
L 301.507639 213.70147 
L 301.969125 152.472632 
L 302.43061 124.264887 
L 303.353581 91.406263 
L 304.276552 70.442581 
L 305.199523 55.672281 
L 306.122494 45.189832 
L 307.045465 38.124457 
L 307.50695 35.723805 
L 307.968435 34.030371 
L 308.429921 33.02264 
L 308.891406 32.688267 
L 309.352892 33.023228 
L 309.814377 34.031546 
L 310.275863 35.725562 
L 310.737348 38.126795 
L 311.198833 41.267518 
L 312.121804 49.967514 
L 313.044775 62.445693 
L 313.967746 79.962758 
L 314.890717 105.637106 
L 315.352202 124.339662 
L 315.813688 152.760728 
L 316.275173 223.040342 
L 316.736659 170.618107 
L 317.198144 156.646043 
L 317.659629 153.909061 
L 318.121115 157.122525 
L 318.5826 165.338611 
L 319.044086 179.604465 
L 319.967057 233.178618 
L 320.428542 205.142789 
L 320.890027 192.3773 
L 321.351513 188.223019 
L 321.812998 189.307188 
L 322.274484 194.665616 
L 322.735969 204.216929 
L 323.197455 217.414615 
L 323.65894 226.950908 
L 324.120425 222.380141 
L 324.581911 214.956484 
L 325.043396 211.001601 
L 325.504882 210.559498 
L 325.966367 212.935876 
L 326.889338 221.686955 
L 327.350823 224.158534 
L 327.812309 223.863309 
L 328.273794 222.470203 
L 328.73528 221.744218 
L 329.196765 222.343983 
L 330.119736 225.645502 
L 330.581221 225.827528 
L 331.042707 223.928733 
L 331.965678 217.876021 
L 332.427163 215.791725 
L 332.888649 214.858236 
L 333.350134 215.05279 
L 333.811619 216.187475 
L 335.657561 223.001569 
L 336.119047 223.7735 
L 336.580532 224.11933 
L 337.042017 224.110225 
L 337.503503 223.710218 
L 337.964988 222.879338 
L 338.887959 220.723162 
L 339.349445 220.280645 
L 339.81093 220.852351 
L 340.272415 222.542303 
L 340.733901 224.664628 
L 341.195386 225.140587 
L 341.656872 221.806451 
L 342.579843 209.639124 
L 343.041328 205.390066 
L 343.502813 203.786602 
L 343.964299 205.461062 
L 344.425784 211.053793 
L 344.88727 218.963912 
L 345.348755 216.003269 
L 346.271726 187.387835 
L 346.733211 178.354385 
L 347.194697 173.4766 
L 347.656182 173.14273 
L 348.117668 179.309518 
L 348.579153 198.106201 
L 349.040639 192.496227 
L 349.502124 157.999015 
L 349.963609 136.110764 
L 350.88658 107.551563 
L 351.809551 88.590759 
L 352.732522 75.161865 
L 353.655493 65.733602 
L 354.578464 59.576346 
L 355.039949 57.598461 
L 355.501435 56.315397 
L 355.96292 55.710746 
L 356.424405 55.776787 
L 356.885891 56.513959 
L 357.347376 57.930875 
L 357.808862 60.044912 
L 358.270347 62.883448 
L 359.193318 70.907526 
L 360.116289 82.541648 
L 361.03926 98.858765 
L 361.962231 122.364233 
L 362.423716 138.853293 
L 362.885201 161.978225 
L 363.346687 204.638426 
L 363.808172 206.489897 
L 364.269658 182.89008 
L 364.731143 176.583775 
L 365.192629 177.248113 
L 365.654114 182.650735 
L 366.115599 192.404061 
L 367.03857 222.177942 
L 367.500056 223.439034 
L 367.961541 215.733294 
L 368.423027 211.21199 
L 368.884512 210.68086 
L 369.345997 213.182722 
L 370.268968 220.756947 
L 370.730454 221.109682 
L 372.11491 214.775876 
L 372.576395 214.766166 
L 373.037881 215.978012 
L 373.960852 219.307209 
L 374.422337 219.813041 
L 374.883823 219.256584 
L 375.806793 217.419716 
L 376.268279 217.205026 
L 376.729764 217.657778 
L 378.114221 220.390358 
L 378.575706 220.536133 
L 379.037191 220.05843 
L 380.883133 216.686864 
L 381.344619 216.394548 
L 381.806104 216.457177 
L 382.267589 216.891796 
L 382.729075 217.706381 
L 383.19056 218.887082 
L 385.036502 224.833379 
L 385.497988 225.390953 
L 385.959473 225.162079 
L 386.420958 224.251129 
L 388.2669 219.072718 
L 388.728386 218.319505 
L 389.189871 217.911103 
L 389.651356 217.835834 
L 390.112842 218.05981 
L 390.574327 218.531444 
L 391.497298 219.93903 
L 392.881754 222.061799 
L 393.804725 222.954702 
L 396.573638 224.896808 
L 397.496609 225.904325 
L 398.41958 227.201722 
L 400.265521 230.034829 
L 400.727007 230.447614 
L 401.188492 230.578699 
L 401.649978 230.370306 
L 402.111463 229.809346 
L 403.034434 227.837495 
L 404.41889 224.329683 
L 404.880376 223.429662 
L 405.341861 222.777809 
L 405.803346 222.40279 
L 406.264832 222.308384 
L 406.726317 222.475275 
L 407.187803 222.862812 
L 408.110774 224.046547 
L 409.033744 225.255495 
L 409.49523 225.694788 
L 409.956715 225.979406 
L 410.879686 226.171435 
L 411.802657 226.264593 
L 412.264142 226.439027 
L 413.187113 227.182148 
L 414.110084 228.14689 
L 414.57157 228.428722 
L 415.033055 228.383154 
L 415.49454 227.909977 
L 415.956026 226.997802 
L 416.878997 224.25969 
L 418.263453 220.091824 
L 419.186424 218.375941 
L 419.647909 217.894858 
L 420.109395 217.628488 
L 420.57088 217.532951 
L 421.493851 217.671973 
L 422.878307 218.246421 
L 424.724249 219.167888 
L 425.185734 219.275074 
L 425.64722 219.24948 
L 426.108705 219.057433 
L 426.570191 218.686367 
L 427.493162 217.473377 
L 428.877618 215.024249 
L 430.72356 211.760536 
L 431.64653 210.440806 
L 432.569501 209.516447 
L 433.492472 209.055524 
L 434.415443 208.994654 
L 435.799899 209.318576 
L 438.107326 210.192861 
L 441.337724 211.686923 
L 442.722181 212.778704 
L 444.106637 213.848811 
L 445.029608 214.16746 
L 446.414064 214.344884 
L 446.87555 214.559423 
L 447.337035 214.959401 
L 447.79852 215.593127 
L 448.260006 216.49113 
L 449.182977 219.098638 
L 450.567433 224.449925 
L 451.490404 227.840918 
L 451.951889 229.077128 
L 452.413375 229.878541 
L 452.87486 230.240996 
L 453.336346 230.241181 
L 454.259316 229.671145 
L 455.643773 228.797808 
L 456.105258 228.483942 
L 456.566744 227.975658 
L 457.028229 227.12894 
L 457.489714 225.851706 
L 458.412685 222.151135 
L 459.797142 216.167335 
L 460.258627 214.714872 
L 460.720112 213.696419 
L 461.181598 213.146819 
L 461.643083 213.063081 
L 462.104569 213.402058 
L 463.02754 214.928305 
L 463.489025 215.762449 
L 463.95051 216.335353 
L 464.411996 216.433336 
L 464.873481 215.949916 
L 465.334967 214.932114 
L 467.642394 208.304453 
L 468.103879 207.646312 
L 468.565365 207.326586 
L 469.02685 207.335354 
L 469.488336 207.649582 
L 469.949821 208.238289 
L 470.872792 210.092432 
L 472.257248 213.912585 
L 473.641704 217.637324 
L 474.564675 219.337272 
L 475.487646 220.404602 
L 476.410617 221.351505 
L 477.333588 222.677363 
L 479.641015 226.835752 
L 481.948442 229.816451 
L 482.871413 231.099862 
L 483.332899 231.140853 
L 483.794384 230.369985 
L 484.255869 228.652977 
L 485.17884 223.110332 
L 486.563297 214.237601 
L 487.486267 210.010318 
L 487.947753 208.528164 
L 488.409238 207.455658 
L 488.870724 206.775786 
L 489.332209 206.472159 
L 489.793695 206.53156 
L 490.25518 206.943866 
L 490.716665 207.699273 
L 491.178151 208.782376 
L 492.101122 211.779232 
L 493.485578 216.659916 
L 493.947063 217.559534 
L 494.408549 217.738407 
L 494.870034 217.163757 
L 495.33152 215.980791 
L 497.177461 210.023165 
L 497.638947 209.104837 
L 498.100432 208.581984 
L 498.561918 208.481625 
L 499.023403 208.817244 
L 499.484889 209.593798 
L 499.946374 210.808115 
L 500.869345 214.460407 
L 502.715287 223.243114 
L 503.176772 224.075398 
L 503.638257 223.790733 
L 504.099743 222.516026 
L 505.945685 214.82083 
L 506.40717 213.519776 
L 506.868655 212.643962 
L 507.330141 212.178553 
L 507.791626 212.078208 
L 508.253112 212.274693 
L 509.176083 213.205843 
L 510.099053 214.224873 
L 510.560539 214.575441 
L 511.022024 214.770641 
L 511.48351 214.812093 
L 512.406481 214.54648 
L 514.252422 213.757744 
L 514.713908 213.740842 
L 515.175393 213.870284 
L 515.636879 214.175598 
L 516.098364 214.675303 
L 517.021335 216.241197 
L 518.867277 220.056034 
L 519.328762 220.574072 
L 519.790247 220.743626 
L 520.251733 220.553773 
L 520.713218 220.044233 
L 521.636189 218.352713 
L 524.405102 212.30817 
L 524.866587 211.680132 
L 525.328073 211.294516 
L 525.789558 211.19472 
L 526.251043 211.413978 
L 526.712529 211.972822 
L 527.174014 212.877315 
L 528.096985 215.668179 
L 529.019956 219.513431 
L 531.788869 232.036289 
L 532.711839 234.625609 
L 533.173325 235.316137 
L 533.63481 235.569851 
L 534.096296 235.429351 
L 534.557781 234.990892 
L 536.403723 232.578684 
L 538.249665 230.968486 
L 538.71115 230.202145 
L 539.172635 229.021585 
L 539.634121 227.334337 
L 540.557092 222.494167 
L 542.864519 208.365168 
L 543.78749 204.614932 
L 544.248975 203.407815 
L 544.710461 202.676506 
L 545.171946 213.939978 
L 545.171946 213.939978 
" clip-path="url(#p94a636cbd5)" style="fill: none; stroke: #1f77b4; stroke-linecap: square"/>
   </g>
   <g id="patch_3">
    <path d="M 48.982813 250.421875 
L 48.982813 22.32 
" style="fill: none; stroke: #000000; stroke-width: 0.8; stroke-linejoin: miter; stroke-linecap: square"/>
   </g>
   <g id="patch_4">
    <path d="M 568.8 250.421875 
L 568.8 22.32 
" style="fill: none; stroke: #000000; stroke-width: 0.8; stroke-linejoin: miter; stroke-linecap: square"/>
   </g>
   <g id="patch_5">
    <path d="M 48.982813 250.421875 
L 568.8 250.421875 
" style="fill: none; stroke: #000000; stroke-width: 0.8; stroke-linejoin: miter; stroke-linecap: square"/>
   </g>
   <g id="patch_6">
    <path d="M 48.982813 22.32 
L 568.8 22.32 
" style="fill: none; stroke: #000000; stroke-width: 0.8; stroke-linejoin: miter; stroke-linecap: square"/>
   </g>
   <g id="text_15">
    <!-- Periodogram of $x_r[n]$ -->
    <g transform="translate(246.971406 16.32) scale(0.12 -0.12)">
     <defs>
      <path id="DejaVuSans-67" d="M 2906 1791 
Q 2906 2416 2648 2759 
Q 2391 3103 1925 3103 
Q 1463 3103 1205 2759 
Q 947 2416 947 1791 
Q 947 1169 1205 825 
Q 1463 481 1925 481 
Q 2391 481 2648 825 
Q 2906 1169 2906 1791 
z
M 3481 434 
Q 3481 -459 3084 -895 
Q 2688 -1331 1869 -1331 
Q 1566 -1331 1297 -1286 
Q 1028 -1241 775 -1147 
L 775 -588 
Q 1028 -725 1275 -790 
Q 1522 -856 1778 -856 
Q 2344 -856 2625 -561 
Q 2906 -266 2906 331 
L 2906 616 
Q 2728 306 2450 153 
Q 2172 0 1784 0 
Q 1141 0 747 490 
Q 353 981 353 1791 
Q 353 2603 747 3093 
Q 1141 3584 1784 3584 
Q 2172 3584 2450 3431 
Q 2728 3278 2906 2969 
L 2906 3500 
L 3481 3500 
L 3481 434 
z
" transform="scale(0.015625)"/>
      <path id="DejaVuSans-61" d="M 2194 1759 
Q 1497 1759 1228 1600 
Q 959 1441 959 1056 
Q 959 750 1161 570 
Q 1363 391 1709 391 
Q 2188 391 2477 730 
Q 2766 1069 2766 1631 
L 2766 1759 
L 2194 1759 
z
M 3341 1997 
L 3341 0 
L 2766 0 
L 2766 531 
Q 2569 213 2275 61 
Q 1981 -91 1556 -91 
Q 1019 -91 701 211 
Q 384 513 384 1019 
Q 384 1609 779 1909 
Q 1175 2209 1959 2209 
L 2766 2209 
L 2766 2266 
Q 2766 2663 2505 2880 
Q 2244 3097 1772 3097 
Q 1472 3097 1187 3025 
Q 903 2953 641 2809 
L 641 3341 
Q 956 3463 1253 3523 
Q 1550 3584 1831 3584 
Q 2591 3584 2966 3190 
Q 3341 2797 3341 1997 
z
" transform="scale(0.015625)"/>
      <path id="DejaVuSans-6d" d="M 3328 2828 
Q 3544 3216 3844 3400 
Q 4144 3584 4550 3584 
Q 5097 3584 5394 3201 
Q 5691 2819 5691 2113 
L 5691 0 
L 5113 0 
L 5113 2094 
Q 5113 2597 4934 2840 
Q 4756 3084 4391 3084 
Q 3944 3084 3684 2787 
Q 3425 2491 3425 1978 
L 3425 0 
L 2847 0 
L 2847 2094 
Q 2847 2600 2669 2842 
Q 2491 3084 2119 3084 
Q 1678 3084 1418 2786 
Q 1159 2488 1159 1978 
L 1159 0 
L 581 0 
L 581 3500 
L 1159 3500 
L 1159 2956 
Q 1356 3278 1631 3431 
Q 1906 3584 2284 3584 
Q 2666 3584 2933 3390 
Q 3200 3197 3328 2828 
z
" transform="scale(0.015625)"/>
      <path id="DejaVuSans-66" d="M 2375 4863 
L 2375 4384 
L 1825 4384 
Q 1516 4384 1395 4259 
Q 1275 4134 1275 3809 
L 1275 3500 
L 2222 3500 
L 2222 3053 
L 1275 3053 
L 1275 0 
L 697 0 
L 697 3053 
L 147 3053 
L 147 3500 
L 697 3500 
L 697 3744 
Q 697 4328 969 4595 
Q 1241 4863 1831 4863 
L 2375 4863 
z
" transform="scale(0.015625)"/>
      <path id="DejaVuSans-Oblique-78" d="M 3841 3500 
L 2234 1784 
L 3219 0 
L 2559 0 
L 1819 1388 
L 531 0 
L -166 0 
L 1556 1844 
L 641 3500 
L 1300 3500 
L 1972 2234 
L 3144 3500 
L 3841 3500 
z
" transform="scale(0.015625)"/>
      <path id="DejaVuSans-Oblique-72" d="M 2853 2969 
Q 2766 3016 2653 3041 
Q 2541 3066 2413 3066 
Q 1953 3066 1609 2717 
Q 1266 2369 1153 1784 
L 800 0 
L 225 0 
L 909 3500 
L 1484 3500 
L 1375 2956 
Q 1603 3259 1920 3421 
Q 2238 3584 2597 3584 
Q 2691 3584 2781 3573 
Q 2872 3563 2963 3538 
L 2853 2969 
z
" transform="scale(0.015625)"/>
      <path id="DejaVuSans-5b" d="M 550 4863 
L 1875 4863 
L 1875 4416 
L 1125 4416 
L 1125 -397 
L 1875 -397 
L 1875 -844 
L 550 -844 
L 550 4863 
z
" transform="scale(0.015625)"/>
      <path id="DejaVuSans-Oblique-6e" d="M 3566 2113 
L 3156 0 
L 2578 0 
L 2988 2091 
Q 3016 2238 3031 2350 
Q 3047 2463 3047 2528 
Q 3047 2791 2881 2937 
Q 2716 3084 2419 3084 
Q 1956 3084 1622 2776 
Q 1288 2469 1184 1941 
L 800 0 
L 225 0 
L 903 3500 
L 1478 3500 
L 1363 2950 
Q 1603 3253 1940 3418 
Q 2278 3584 2650 3584 
Q 3113 3584 3367 3334 
Q 3622 3084 3622 2631 
Q 3622 2519 3608 2391 
Q 3594 2263 3566 2113 
z
" transform="scale(0.015625)"/>
      <path id="DejaVuSans-5d" d="M 1947 4863 
L 1947 -844 
L 622 -844 
L 622 -397 
L 1369 -397 
L 1369 4416 
L 622 4416 
L 622 4863 
L 1947 4863 
z
" transform="scale(0.015625)"/>
     </defs>
     <use xlink:href="#DejaVuSans-50" transform="translate(0 0.015625)"/>
     <use xlink:href="#DejaVuSans-65" transform="translate(60.302734 0.015625)"/>
     <use xlink:href="#DejaVuSans-72" transform="translate(121.826172 0.015625)"/>
     <use xlink:href="#DejaVuSans-69" transform="translate(162.939453 0.015625)"/>
     <use xlink:href="#DejaVuSans-6f" transform="translate(190.722656 0.015625)"/>
     <use xlink:href="#DejaVuSans-64" transform="translate(251.904297 0.015625)"/>
     <use xlink:href="#DejaVuSans-6f" transform="translate(315.380859 0.015625)"/>
     <use xlink:href="#DejaVuSans-67" transform="translate(376.5625 0.015625)"/>
     <use xlink:href="#DejaVuSans-72" transform="translate(440.039062 0.015625)"/>
     <use xlink:href="#DejaVuSans-61" transform="translate(481.152344 0.015625)"/>
     <use xlink:href="#DejaVuSans-6d" transform="translate(542.431641 0.015625)"/>
     <use xlink:href="#DejaVuSans-20" transform="translate(639.84375 0.015625)"/>
     <use xlink:href="#DejaVuSans-6f" transform="translate(671.630859 0.015625)"/>
     <use xlink:href="#DejaVuSans-66" transform="translate(732.8125 0.015625)"/>
     <use xlink:href="#DejaVuSans-20" transform="translate(768.017578 0.015625)"/>
     <use xlink:href="#DejaVuSans-Oblique-78" transform="translate(799.804688 0.015625)"/>
     <use xlink:href="#DejaVuSans-Oblique-72" transform="translate(858.984375 -16.390625) scale(0.7)"/>
     <use xlink:href="#DejaVuSans-5b" transform="translate(890.498047 0.015625)"/>
     <use xlink:href="#DejaVuSans-Oblique-6e" transform="translate(929.511719 0.015625)"/>
     <use xlink:href="#DejaVuSans-5d" transform="translate(992.890625 0.015625)"/>
    </g>
   </g>
  </g>
 </g>
 <defs>
  <clipPath id="p94a636cbd5">
   <rect x="48.982813" y="22.32" width="519.817188" height="228.101875"/>
  </clipPath>
 </defs>
</svg>
