<?xml version="1.0" encoding="utf-8" standalone="no"?>
<!DOCTYPE svg PUBLIC "-//W3C//DTD SVG 1.1//EN"
  "http://www.w3.org/Graphics/SVG/1.1/DTD/svg11.dtd">
<svg xmlns:xlink="http://www.w3.org/1999/xlink" width="576pt" height="288pt" viewBox="0 0 576 288" xmlns="http://www.w3.org/2000/svg" version="1.1">
 <metadata>
  <rdf:RDF xmlns:dc="http://purl.org/dc/elements/1.1/" xmlns:cc="http://creativecommons.org/ns#" xmlns:rdf="http://www.w3.org/1999/02/22-rdf-syntax-ns#">
   <cc:Work>
    <dc:type rdf:resource="http://purl.org/dc/dcmitype/StillImage"/>
    <dc:date>2026-05-03T16:47:51.720362</dc:date>
    <dc:format>image/svg+xml</dc:format>
    <dc:creator>
     <cc:Agent>
      <dc:title>Matplotlib v3.10.9, https://matplotlib.org/</dc:title>
     </cc:Agent>
    </dc:creator>
   </cc:Work>
  </rdf:RDF>
 </metadata>
 <defs>
  <style type="text/css">*{stroke-linejoin: round; stroke-linecap: butt}</style>
 </defs>
 <g id="figure_1">
  <g id="patch_1">
   <path d="M 0 288 
L 576 288 
L 576 0 
L 0 0 
z
" style="fill: #ffffff"/>
  </g>
  <g id="axes_1">
   <g id="patch_2">
    <path d="M 52.160938 250.421875 
L 568.8 250.421875 
L 568.8 7.2 
L 52.160938 7.2 
z
" style="fill: #ffffff"/>
   </g>
   <g id="matplotlib.axis_1">
    <g id="xtick_1">
     <g id="line2d_1">
      <path d="M 75.644531 250.421875 
L 75.644531 7.2 
" clip-path="url(#pff4a8b6e78)" style="fill: none; stroke-dasharray: 2.96,1.28; stroke-dashoffset: 0; stroke: #b0b0b0; stroke-opacity: 0.8; stroke-width: 0.8"/>
     </g>
     <g id="line2d_2">
      <defs>
       <path id="m9b2f20c868" d="M 0 0 
L 0 3.5 
" style="stroke: #000000; stroke-width: 0.8"/>
      </defs>
      <g>
       <use xlink:href="#m9b2f20c868" x="75.644531" y="250.421875" style="stroke: #000000; stroke-width: 0.8"/>
      </g>
     </g>
     <g id="text_1">
      <!-- 0 -->
      <g transform="translate(72.463281 265.020312) scale(0.1 -0.1)">
       <defs>
        <path id="DejaVuSans-30" d="M 2034 4250 
Q 1547 4250 1301 3770 
Q 1056 3291 1056 2328 
Q 1056 1369 1301 889 
Q 1547 409 2034 409 
Q 2525 409 2770 889 
Q 3016 1369 3016 2328 
Q 3016 3291 2770 3770 
Q 2525 4250 2034 4250 
z
M 2034 4750 
Q 2819 4750 3233 4129 
Q 3647 3509 3647 2328 
Q 3647 1150 3233 529 
Q 2819 -91 2034 -91 
Q 1250 -91 836 529 
Q 422 1150 422 2328 
Q 422 3509 836 4129 
Q 1250 4750 2034 4750 
z
" transform="scale(0.015625)"/>
       </defs>
       <use xlink:href="#DejaVuSans-30"/>
      </g>
     </g>
    </g>
    <g id="xtick_2">
     <g id="line2d_3">
      <path d="M 134.500656 250.421875 
L 134.500656 7.2 
" clip-path="url(#pff4a8b6e78)" style="fill: none; stroke-dasharray: 2.96,1.28; stroke-dashoffset: 0; stroke: #b0b0b0; stroke-opacity: 0.8; stroke-width: 0.8"/>
     </g>
     <g id="line2d_4">
      <g>
       <use xlink:href="#m9b2f20c868" x="134.500656" y="250.421875" style="stroke: #000000; stroke-width: 0.8"/>
      </g>
     </g>
     <g id="text_2">
      <!-- 50 -->
      <g transform="translate(128.138156 265.020312) scale(0.1 -0.1)">
       <defs>
        <path id="DejaVuSans-35" d="M 691 4666 
L 3169 4666 
L 3169 4134 
L 1269 4134 
L 1269 2991 
Q 1406 3038 1543 3061 
Q 1681 3084 1819 3084 
Q 2600 3084 3056 2656 
Q 3513 2228 3513 1497 
Q 3513 744 3044 326 
Q 2575 -91 1722 -91 
Q 1428 -91 1123 -41 
Q 819 9 494 109 
L 494 744 
Q 775 591 1075 516 
Q 1375 441 1709 441 
Q 2250 441 2565 725 
Q 2881 1009 2881 1497 
Q 2881 1984 2565 2268 
Q 2250 2553 1709 2553 
Q 1456 2553 1204 2497 
Q 953 2441 691 2322 
L 691 4666 
z
" transform="scale(0.015625)"/>
       </defs>
       <use xlink:href="#DejaVuSans-35"/>
       <use xlink:href="#DejaVuSans-30" transform="translate(63.623047 0)"/>
      </g>
     </g>
    </g>
    <g id="xtick_3">
     <g id="line2d_5">
      <path d="M 193.356781 250.421875 
L 193.356781 7.2 
" clip-path="url(#pff4a8b6e78)" style="fill: none; stroke-dasharray: 2.96,1.28; stroke-dashoffset: 0; stroke: #b0b0b0; stroke-opacity: 0.8; stroke-width: 0.8"/>
     </g>
     <g id="line2d_6">
      <g>
       <use xlink:href="#m9b2f20c868" x="193.356781" y="250.421875" style="stroke: #000000; stroke-width: 0.8"/>
      </g>
     </g>
     <g id="text_3">
      <!-- 100 -->
      <g transform="translate(183.813031 265.020312) scale(0.1 -0.1)">
       <defs>
        <path id="DejaVuSans-31" d="M 794 531 
L 1825 531 
L 1825 4091 
L 703 3866 
L 703 4441 
L 1819 4666 
L 2450 4666 
L 2450 531 
L 3481 531 
L 3481 0 
L 794 0 
L 794 531 
z
" transform="scale(0.015625)"/>
       </defs>
       <use xlink:href="#DejaVuSans-31"/>
       <use xlink:href="#DejaVuSans-30" transform="translate(63.623047 0)"/>
       <use xlink:href="#DejaVuSans-30" transform="translate(127.246094 0)"/>
      </g>
     </g>
    </g>
    <g id="xtick_4">
     <g id="line2d_7">
      <path d="M 252.212905 250.421875 
L 252.212905 7.2 
" clip-path="url(#pff4a8b6e78)" style="fill: none; stroke-dasharray: 2.96,1.28; stroke-dashoffset: 0; stroke: #b0b0b0; stroke-opacity: 0.8; stroke-width: 0.8"/>
     </g>
     <g id="line2d_8">
      <g>
       <use xlink:href="#m9b2f20c868" x="252.212905" y="250.421875" style="stroke: #000000; stroke-width: 0.8"/>
      </g>
     </g>
     <g id="text_4">
      <!-- 150 -->
      <g transform="translate(242.669155 265.020312) scale(0.1 -0.1)">
       <use xlink:href="#DejaVuSans-31"/>
       <use xlink:href="#DejaVuSans-35" transform="translate(63.623047 0)"/>
       <use xlink:href="#DejaVuSans-30" transform="translate(127.246094 0)"/>
      </g>
     </g>
    </g>
    <g id="xtick_5">
     <g id="line2d_9">
      <path d="M 311.06903 250.421875 
L 311.06903 7.2 
" clip-path="url(#pff4a8b6e78)" style="fill: none; stroke-dasharray: 2.96,1.28; stroke-dashoffset: 0; stroke: #b0b0b0; stroke-opacity: 0.8; stroke-width: 0.8"/>
     </g>
     <g id="line2d_10">
      <g>
       <use xlink:href="#m9b2f20c868" x="311.06903" y="250.421875" style="stroke: #000000; stroke-width: 0.8"/>
      </g>
     </g>
     <g id="text_5">
      <!-- 200 -->
      <g transform="translate(301.52528 265.020312) scale(0.1 -0.1)">
       <defs>
        <path id="DejaVuSans-32" d="M 1228 531 
L 3431 531 
L 3431 0 
L 469 0 
L 469 531 
Q 828 903 1448 1529 
Q 2069 2156 2228 2338 
Q 2531 2678 2651 2914 
Q 2772 3150 2772 3378 
Q 2772 3750 2511 3984 
Q 2250 4219 1831 4219 
Q 1534 4219 1204 4116 
Q 875 4013 500 3803 
L 500 4441 
Q 881 4594 1212 4672 
Q 1544 4750 1819 4750 
Q 2544 4750 2975 4387 
Q 3406 4025 3406 3419 
Q 3406 3131 3298 2873 
Q 3191 2616 2906 2266 
Q 2828 2175 2409 1742 
Q 1991 1309 1228 531 
z
" transform="scale(0.015625)"/>
       </defs>
       <use xlink:href="#DejaVuSans-32"/>
       <use xlink:href="#DejaVuSans-30" transform="translate(63.623047 0)"/>
       <use xlink:href="#DejaVuSans-30" transform="translate(127.246094 0)"/>
      </g>
     </g>
    </g>
    <g id="xtick_6">
     <g id="line2d_11">
      <path d="M 369.925155 250.421875 
L 369.925155 7.2 
" clip-path="url(#pff4a8b6e78)" style="fill: none; stroke-dasharray: 2.96,1.28; stroke-dashoffset: 0; stroke: #b0b0b0; stroke-opacity: 0.8; stroke-width: 0.8"/>
     </g>
     <g id="line2d_12">
      <g>
       <use xlink:href="#m9b2f20c868" x="369.925155" y="250.421875" style="stroke: #000000; stroke-width: 0.8"/>
      </g>
     </g>
     <g id="text_6">
      <!-- 250 -->
      <g transform="translate(360.381405 265.020312) scale(0.1 -0.1)">
       <use xlink:href="#DejaVuSans-32"/>
       <use xlink:href="#DejaVuSans-35" transform="translate(63.623047 0)"/>
       <use xlink:href="#DejaVuSans-30" transform="translate(127.246094 0)"/>
      </g>
     </g>
    </g>
    <g id="xtick_7">
     <g id="line2d_13">
      <path d="M 428.781279 250.421875 
L 428.781279 7.2 
" clip-path="url(#pff4a8b6e78)" style="fill: none; stroke-dasharray: 2.96,1.28; stroke-dashoffset: 0; stroke: #b0b0b0; stroke-opacity: 0.8; stroke-width: 0.8"/>
     </g>
     <g id="line2d_14">
      <g>
       <use xlink:href="#m9b2f20c868" x="428.781279" y="250.421875" style="stroke: #000000; stroke-width: 0.8"/>
      </g>
     </g>
     <g id="text_7">
      <!-- 300 -->
      <g transform="translate(419.237529 265.020312) scale(0.1 -0.1)">
       <defs>
        <path id="DejaVuSans-33" d="M 2597 2516 
Q 3050 2419 3304 2112 
Q 3559 1806 3559 1356 
Q 3559 666 3084 287 
Q 2609 -91 1734 -91 
Q 1441 -91 1130 -33 
Q 819 25 488 141 
L 488 750 
Q 750 597 1062 519 
Q 1375 441 1716 441 
Q 2309 441 2620 675 
Q 2931 909 2931 1356 
Q 2931 1769 2642 2001 
Q 2353 2234 1838 2234 
L 1294 2234 
L 1294 2753 
L 1863 2753 
Q 2328 2753 2575 2939 
Q 2822 3125 2822 3475 
Q 2822 3834 2567 4026 
Q 2313 4219 1838 4219 
Q 1578 4219 1281 4162 
Q 984 4106 628 3988 
L 628 4550 
Q 988 4650 1302 4700 
Q 1616 4750 1894 4750 
Q 2613 4750 3031 4423 
Q 3450 4097 3450 3541 
Q 3450 3153 3228 2886 
Q 3006 2619 2597 2516 
z
" transform="scale(0.015625)"/>
       </defs>
       <use xlink:href="#DejaVuSans-33"/>
       <use xlink:href="#DejaVuSans-30" transform="translate(63.623047 0)"/>
       <use xlink:href="#DejaVuSans-30" transform="translate(127.246094 0)"/>
      </g>
     </g>
    </g>
    <g id="xtick_8">
     <g id="line2d_15">
      <path d="M 487.637404 250.421875 
L 487.637404 7.2 
" clip-path="url(#pff4a8b6e78)" style="fill: none; stroke-dasharray: 2.96,1.28; stroke-dashoffset: 0; stroke: #b0b0b0; stroke-opacity: 0.8; stroke-width: 0.8"/>
     </g>
     <g id="line2d_16">
      <g>
       <use xlink:href="#m9b2f20c868" x="487.637404" y="250.421875" style="stroke: #000000; stroke-width: 0.8"/>
      </g>
     </g>
     <g id="text_8">
      <!-- 350 -->
      <g transform="translate(478.093654 265.020312) scale(0.1 -0.1)">
       <use xlink:href="#DejaVuSans-33"/>
       <use xlink:href="#DejaVuSans-35" transform="translate(63.623047 0)"/>
       <use xlink:href="#DejaVuSans-30" transform="translate(127.246094 0)"/>
      </g>
     </g>
    </g>
    <g id="xtick_9">
     <g id="line2d_17">
      <path d="M 546.493529 250.421875 
L 546.493529 7.2 
" clip-path="url(#pff4a8b6e78)" style="fill: none; stroke-dasharray: 2.96,1.28; stroke-dashoffset: 0; stroke: #b0b0b0; stroke-opacity: 0.8; stroke-width: 0.8"/>
     </g>
     <g id="line2d_18">
      <g>
       <use xlink:href="#m9b2f20c868" x="546.493529" y="250.421875" style="stroke: #000000; stroke-width: 0.8"/>
      </g>
     </g>
     <g id="text_9">
      <!-- 400 -->
      <g transform="translate(536.949779 265.020312) scale(0.1 -0.1)">
       <defs>
        <path id="DejaVuSans-34" d="M 2419 4116 
L 825 1625 
L 2419 1625 
L 2419 4116 
z
M 2253 4666 
L 3047 4666 
L 3047 1625 
L 3713 1625 
L 3713 1100 
L 3047 1100 
L 3047 0 
L 2419 0 
L 2419 1100 
L 313 1100 
L 313 1709 
L 2253 4666 
z
" transform="scale(0.015625)"/>
       </defs>
       <use xlink:href="#DejaVuSans-34"/>
       <use xlink:href="#DejaVuSans-30" transform="translate(63.623047 0)"/>
       <use xlink:href="#DejaVuSans-30" transform="translate(127.246094 0)"/>
      </g>
     </g>
    </g>
    <g id="text_10">
     <!-- Sample, $n$ -->
     <g transform="translate(285.380469 278.7) scale(0.1 -0.1)">
      <defs>
       <path id="DejaVuSans-53" d="M 3425 4513 
L 3425 3897 
Q 3066 4069 2747 4153 
Q 2428 4238 2131 4238 
Q 1616 4238 1336 4038 
Q 1056 3838 1056 3469 
Q 1056 3159 1242 3001 
Q 1428 2844 1947 2747 
L 2328 2669 
Q 3034 2534 3370 2195 
Q 3706 1856 3706 1288 
Q 3706 609 3251 259 
Q 2797 -91 1919 -91 
Q 1588 -91 1214 -16 
Q 841 59 441 206 
L 441 856 
Q 825 641 1194 531 
Q 1563 422 1919 422 
Q 2459 422 2753 634 
Q 3047 847 3047 1241 
Q 3047 1584 2836 1778 
Q 2625 1972 2144 2069 
L 1759 2144 
Q 1053 2284 737 2584 
Q 422 2884 422 3419 
Q 422 4038 858 4394 
Q 1294 4750 2059 4750 
Q 2388 4750 2728 4690 
Q 3069 4631 3425 4513 
z
" transform="scale(0.015625)"/>
       <path id="DejaVuSans-61" d="M 2194 1759 
Q 1497 1759 1228 1600 
Q 959 1441 959 1056 
Q 959 750 1161 570 
Q 1363 391 1709 391 
Q 2188 391 2477 730 
Q 2766 1069 2766 1631 
L 2766 1759 
L 2194 1759 
z
M 3341 1997 
L 3341 0 
L 2766 0 
L 2766 531 
Q 2569 213 2275 61 
Q 1981 -91 1556 -91 
Q 1019 -91 701 211 
Q 384 513 384 1019 
Q 384 1609 779 1909 
Q 1175 2209 1959 2209 
L 2766 2209 
L 2766 2266 
Q 2766 2663 2505 2880 
Q 2244 3097 1772 3097 
Q 1472 3097 1187 3025 
Q 903 2953 641 2809 
L 641 3341 
Q 956 3463 1253 3523 
Q 1550 3584 1831 3584 
Q 2591 3584 2966 3190 
Q 3341 2797 3341 1997 
z
" transform="scale(0.015625)"/>
       <path id="DejaVuSans-6d" d="M 3328 2828 
Q 3544 3216 3844 3400 
Q 4144 3584 4550 3584 
Q 5097 3584 5394 3201 
Q 5691 2819 5691 2113 
L 5691 0 
L 5113 0 
L 5113 2094 
Q 5113 2597 4934 2840 
Q 4756 3084 4391 3084 
Q 3944 3084 3684 2787 
Q 3425 2491 3425 1978 
L 3425 0 
L 2847 0 
L 2847 2094 
Q 2847 2600 2669 2842 
Q 2491 3084 2119 3084 
Q 1678 3084 1418 2786 
Q 1159 2488 1159 1978 
L 1159 0 
L 581 0 
L 581 3500 
L 1159 3500 
L 1159 2956 
Q 1356 3278 1631 3431 
Q 1906 3584 2284 3584 
Q 2666 3584 2933 3390 
Q 3200 3197 3328 2828 
z
" transform="scale(0.015625)"/>
       <path id="DejaVuSans-70" d="M 1159 525 
L 1159 -1331 
L 581 -1331 
L 581 3500 
L 1159 3500 
L 1159 2969 
Q 1341 3281 1617 3432 
Q 1894 3584 2278 3584 
Q 2916 3584 3314 3078 
Q 3713 2572 3713 1747 
Q 3713 922 3314 415 
Q 2916 -91 2278 -91 
Q 1894 -91 1617 61 
Q 1341 213 1159 525 
z
M 3116 1747 
Q 3116 2381 2855 2742 
Q 2594 3103 2138 3103 
Q 1681 3103 1420 2742 
Q 1159 2381 1159 1747 
Q 1159 1113 1420 752 
Q 1681 391 2138 391 
Q 2594 391 2855 752 
Q 3116 1113 3116 1747 
z
" transform="scale(0.015625)"/>
       <path id="DejaVuSans-6c" d="M 603 4863 
L 1178 4863 
L 1178 0 
L 603 0 
L 603 4863 
z
" transform="scale(0.015625)"/>
       <path id="DejaVuSans-65" d="M 3597 1894 
L 3597 1613 
L 953 1613 
Q 991 1019 1311 708 
Q 1631 397 2203 397 
Q 2534 397 2845 478 
Q 3156 559 3463 722 
L 3463 178 
Q 3153 47 2828 -22 
Q 2503 -91 2169 -91 
Q 1331 -91 842 396 
Q 353 884 353 1716 
Q 353 2575 817 3079 
Q 1281 3584 2069 3584 
Q 2775 3584 3186 3129 
Q 3597 2675 3597 1894 
z
M 3022 2063 
Q 3016 2534 2758 2815 
Q 2500 3097 2075 3097 
Q 1594 3097 1305 2825 
Q 1016 2553 972 2059 
L 3022 2063 
z
" transform="scale(0.015625)"/>
       <path id="DejaVuSans-2c" d="M 750 794 
L 1409 794 
L 1409 256 
L 897 -744 
L 494 -744 
L 750 256 
L 750 794 
z
" transform="scale(0.015625)"/>
       <path id="DejaVuSans-20" transform="scale(0.015625)"/>
       <path id="DejaVuSans-Oblique-6e" d="M 3566 2113 
L 3156 0 
L 2578 0 
L 2988 2091 
Q 3016 2238 3031 2350 
Q 3047 2463 3047 2528 
Q 3047 2791 2881 2937 
Q 2716 3084 2419 3084 
Q 1956 3084 1622 2776 
Q 1288 2469 1184 1941 
L 800 0 
L 225 0 
L 903 3500 
L 1478 3500 
L 1363 2950 
Q 1603 3253 1940 3418 
Q 2278 3584 2650 3584 
Q 3113 3584 3367 3334 
Q 3622 3084 3622 2631 
Q 3622 2519 3608 2391 
Q 3594 2263 3566 2113 
z
" transform="scale(0.015625)"/>
      </defs>
      <use xlink:href="#DejaVuSans-53" transform="translate(0 0.015625)"/>
      <use xlink:href="#DejaVuSans-61" transform="translate(63.476562 0.015625)"/>
      <use xlink:href="#DejaVuSans-6d" transform="translate(124.755859 0.015625)"/>
      <use xlink:href="#DejaVuSans-70" transform="translate(222.167969 0.015625)"/>
      <use xlink:href="#DejaVuSans-6c" transform="translate(285.644531 0.015625)"/>
      <use xlink:href="#DejaVuSans-65" transform="translate(313.427734 0.015625)"/>
      <use xlink:href="#DejaVuSans-2c" transform="translate(374.951172 0.015625)"/>
      <use xlink:href="#DejaVuSans-20" transform="translate(406.738281 0.015625)"/>
      <use xlink:href="#DejaVuSans-Oblique-6e" transform="translate(438.525391 0.015625)"/>
     </g>
    </g>
   </g>
   <g id="matplotlib.axis_2">
    <g id="ytick_1">
     <g id="line2d_19">
      <path d="M 52.160938 220.245592 
L 568.8 220.245592 
" clip-path="url(#pff4a8b6e78)" style="fill: none; stroke-dasharray: 2.96,1.28; stroke-dashoffset: 0; stroke: #b0b0b0; stroke-opacity: 0.8; stroke-width: 0.8"/>
     </g>
     <g id="line2d_20">
      <defs>
       <path id="mbe5ac5335a" d="M 0 0 
L -3.5 0 
" style="stroke: #000000; stroke-width: 0.8"/>
      </defs>
      <g>
       <use xlink:href="#mbe5ac5335a" x="52.160938" y="220.245592" style="stroke: #000000; stroke-width: 0.8"/>
      </g>
     </g>
     <g id="text_11">
      <!-- −0.4 -->
      <g transform="translate(20.878125 224.044811) scale(0.1 -0.1)">
       <defs>
        <path id="DejaVuSans-2212" d="M 678 2272 
L 4684 2272 
L 4684 1741 
L 678 1741 
L 678 2272 
z
" transform="scale(0.015625)"/>
        <path id="DejaVuSans-2e" d="M 684 794 
L 1344 794 
L 1344 0 
L 684 0 
L 684 794 
z
" transform="scale(0.015625)"/>
       </defs>
       <use xlink:href="#DejaVuSans-2212"/>
       <use xlink:href="#DejaVuSans-30" transform="translate(83.789062 0)"/>
       <use xlink:href="#DejaVuSans-2e" transform="translate(147.412109 0)"/>
       <use xlink:href="#DejaVuSans-34" transform="translate(179.199219 0)"/>
      </g>
     </g>
    </g>
    <g id="ytick_2">
     <g id="line2d_21">
      <path d="M 52.160938 176.481339 
L 568.8 176.481339 
" clip-path="url(#pff4a8b6e78)" style="fill: none; stroke-dasharray: 2.96,1.28; stroke-dashoffset: 0; stroke: #b0b0b0; stroke-opacity: 0.8; stroke-width: 0.8"/>
     </g>
     <g id="line2d_22">
      <g>
       <use xlink:href="#mbe5ac5335a" x="52.160938" y="176.481339" style="stroke: #000000; stroke-width: 0.8"/>
      </g>
     </g>
     <g id="text_12">
      <!-- −0.2 -->
      <g transform="translate(20.878125 180.280558) scale(0.1 -0.1)">
       <use xlink:href="#DejaVuSans-2212"/>
       <use xlink:href="#DejaVuSans-30" transform="translate(83.789062 0)"/>
       <use xlink:href="#DejaVuSans-2e" transform="translate(147.412109 0)"/>
       <use xlink:href="#DejaVuSans-32" transform="translate(179.199219 0)"/>
      </g>
     </g>
    </g>
    <g id="ytick_3">
     <g id="line2d_23">
      <path d="M 52.160938 132.717086 
L 568.8 132.717086 
" clip-path="url(#pff4a8b6e78)" style="fill: none; stroke-dasharray: 2.96,1.28; stroke-dashoffset: 0; stroke: #b0b0b0; stroke-opacity: 0.8; stroke-width: 0.8"/>
     </g>
     <g id="line2d_24">
      <g>
       <use xlink:href="#mbe5ac5335a" x="52.160938" y="132.717086" style="stroke: #000000; stroke-width: 0.8"/>
      </g>
     </g>
     <g id="text_13">
      <!-- 0.0 -->
      <g transform="translate(29.257812 136.516305) scale(0.1 -0.1)">
       <use xlink:href="#DejaVuSans-30"/>
       <use xlink:href="#DejaVuSans-2e" transform="translate(63.623047 0)"/>
       <use xlink:href="#DejaVuSans-30" transform="translate(95.410156 0)"/>
      </g>
     </g>
    </g>
    <g id="ytick_4">
     <g id="line2d_25">
      <path d="M 52.160938 88.952833 
L 568.8 88.952833 
" clip-path="url(#pff4a8b6e78)" style="fill: none; stroke-dasharray: 2.96,1.28; stroke-dashoffset: 0; stroke: #b0b0b0; stroke-opacity: 0.8; stroke-width: 0.8"/>
     </g>
     <g id="line2d_26">
      <g>
       <use xlink:href="#mbe5ac5335a" x="52.160938" y="88.952833" style="stroke: #000000; stroke-width: 0.8"/>
      </g>
     </g>
     <g id="text_14">
      <!-- 0.2 -->
      <g transform="translate(29.257812 92.752052) scale(0.1 -0.1)">
       <use xlink:href="#DejaVuSans-30"/>
       <use xlink:href="#DejaVuSans-2e" transform="translate(63.623047 0)"/>
       <use xlink:href="#DejaVuSans-32" transform="translate(95.410156 0)"/>
      </g>
     </g>
    </g>
    <g id="ytick_5">
     <g id="line2d_27">
      <path d="M 52.160938 45.18858 
L 568.8 45.18858 
" clip-path="url(#pff4a8b6e78)" style="fill: none; stroke-dasharray: 2.96,1.28; stroke-dashoffset: 0; stroke: #b0b0b0; stroke-opacity: 0.8; stroke-width: 0.8"/>
     </g>
     <g id="line2d_28">
      <g>
       <use xlink:href="#mbe5ac5335a" x="52.160938" y="45.18858" style="stroke: #000000; stroke-width: 0.8"/>
      </g>
     </g>
     <g id="text_15">
      <!-- 0.4 -->
      <g transform="translate(29.257812 48.987799) scale(0.1 -0.1)">
       <use xlink:href="#DejaVuSans-30"/>
       <use xlink:href="#DejaVuSans-2e" transform="translate(63.623047 0)"/>
       <use xlink:href="#DejaVuSans-34" transform="translate(95.410156 0)"/>
      </g>
     </g>
    </g>
    <g id="text_16">
     <!-- Amplitude -->
     <g transform="translate(14.798437 154.433594) rotate(-90) scale(0.1 -0.1)">
      <defs>
       <path id="DejaVuSans-41" d="M 2188 4044 
L 1331 1722 
L 3047 1722 
L 2188 4044 
z
M 1831 4666 
L 2547 4666 
L 4325 0 
L 3669 0 
L 3244 1197 
L 1141 1197 
L 716 0 
L 50 0 
L 1831 4666 
z
" transform="scale(0.015625)"/>
       <path id="DejaVuSans-69" d="M 603 3500 
L 1178 3500 
L 1178 0 
L 603 0 
L 603 3500 
z
M 603 4863 
L 1178 4863 
L 1178 4134 
L 603 4134 
L 603 4863 
z
" transform="scale(0.015625)"/>
       <path id="DejaVuSans-74" d="M 1172 4494 
L 1172 3500 
L 2356 3500 
L 2356 3053 
L 1172 3053 
L 1172 1153 
Q 1172 725 1289 603 
Q 1406 481 1766 481 
L 2356 481 
L 2356 0 
L 1766 0 
Q 1100 0 847 248 
Q 594 497 594 1153 
L 594 3053 
L 172 3053 
L 172 3500 
L 594 3500 
L 594 4494 
L 1172 4494 
z
" transform="scale(0.015625)"/>
       <path id="DejaVuSans-75" d="M 544 1381 
L 544 3500 
L 1119 3500 
L 1119 1403 
Q 1119 906 1312 657 
Q 1506 409 1894 409 
Q 2359 409 2629 706 
Q 2900 1003 2900 1516 
L 2900 3500 
L 3475 3500 
L 3475 0 
L 2900 0 
L 2900 538 
Q 2691 219 2414 64 
Q 2138 -91 1772 -91 
Q 1169 -91 856 284 
Q 544 659 544 1381 
z
M 1991 3584 
L 1991 3584 
z
" transform="scale(0.015625)"/>
       <path id="DejaVuSans-64" d="M 2906 2969 
L 2906 4863 
L 3481 4863 
L 3481 0 
L 2906 0 
L 2906 525 
Q 2725 213 2448 61 
Q 2172 -91 1784 -91 
Q 1150 -91 751 415 
Q 353 922 353 1747 
Q 353 2572 751 3078 
Q 1150 3584 1784 3584 
Q 2172 3584 2448 3432 
Q 2725 3281 2906 2969 
z
M 947 1747 
Q 947 1113 1208 752 
Q 1469 391 1925 391 
Q 2381 391 2643 752 
Q 2906 1113 2906 1747 
Q 2906 2381 2643 2742 
Q 2381 3103 1925 3103 
Q 1469 3103 1208 2742 
Q 947 2381 947 1747 
z
" transform="scale(0.015625)"/>
      </defs>
      <use xlink:href="#DejaVuSans-41"/>
      <use xlink:href="#DejaVuSans-6d" transform="translate(68.408203 0)"/>
      <use xlink:href="#DejaVuSans-70" transform="translate(165.820312 0)"/>
      <use xlink:href="#DejaVuSans-6c" transform="translate(229.296875 0)"/>
      <use xlink:href="#DejaVuSans-69" transform="translate(257.080078 0)"/>
      <use xlink:href="#DejaVuSans-74" transform="translate(284.863281 0)"/>
      <use xlink:href="#DejaVuSans-75" transform="translate(324.072266 0)"/>
      <use xlink:href="#DejaVuSans-64" transform="translate(387.451172 0)"/>
      <use xlink:href="#DejaVuSans-65" transform="translate(450.927734 0)"/>
     </g>
    </g>
   </g>
   <g id="line2d_29">
    <path d="M 75.644531 137.095795 
L 76.821654 131.884682 
L 77.998776 137.39813 
L 79.175899 135.965574 
L 80.353021 133.018427 
L 81.530144 132.803001 
L 82.707266 134.603007 
L 83.884389 126.529476 
L 85.061511 142.899807 
L 86.238634 133.713876 
L 87.415756 131.672815 
L 88.592879 131.680968 
L 89.770001 133.509315 
L 90.947124 130.406107 
L 92.124246 135.483093 
L 93.301369 136.552905 
L 94.478491 118.686182 
L 95.655614 137.641998 
L 96.832736 132.337013 
L 98.009859 135.614347 
L 99.186981 131.96118 
L 100.364104 139.105998 
L 101.541226 143.312369 
L 102.718349 138.298931 
L 103.895471 136.414445 
L 105.072594 131.707059 
L 106.249716 131.302112 
L 107.426839 127.318083 
L 108.603961 124.89771 
L 109.781084 130.619624 
L 110.958206 125.39395 
L 112.135329 127.658761 
L 113.312451 128.110254 
L 114.489574 130.69195 
L 115.666696 138.778792 
L 116.843819 147.828122 
L 118.020941 147.688096 
L 119.198064 149.761679 
L 120.375186 150.873656 
L 121.552309 143.588192 
L 122.729431 142.647309 
L 123.906553 130.509278 
L 125.083676 115.763624 
L 126.260798 93.01301 
L 127.437921 85.890971 
L 128.615043 72.466243 
L 129.792166 65.520881 
L 130.969288 61.228931 
L 134.500656 96.206045 
L 136.854901 138.833914 
L 138.032023 170.958823 
L 139.209146 184.515797 
L 140.386268 210.090149 
L 141.563391 224.976477 
L 142.740513 221.030655 
L 143.917636 224.972621 
L 145.094758 218.440203 
L 146.271881 205.28564 
L 147.449003 200.95628 
L 148.626126 182.685927 
L 149.803248 168.315772 
L 150.980371 178.560862 
L 152.157493 180.111108 
L 153.334616 182.999391 
L 154.511738 197.370743 
L 155.688861 205.92618 
L 156.865983 217.967715 
L 158.043106 222.766605 
L 159.220228 231.666694 
L 160.397351 216.770122 
L 162.751596 193.430947 
L 163.928718 169.108276 
L 165.105841 142.184678 
L 166.282963 122.27514 
L 167.460086 99.13959 
L 168.637208 81.076672 
L 169.814331 66.658761 
L 170.991453 60.093208 
L 172.168576 67.883882 
L 173.345698 72.708414 
L 174.522821 80.735043 
L 175.699943 101.756241 
L 176.877066 112.881762 
L 178.054188 129.075415 
L 179.231311 138.775929 
L 180.408433 142.321401 
L 181.585556 138.818683 
L 182.762678 140.191456 
L 183.939801 130.071555 
L 185.116923 111.58096 
L 186.294046 101.535743 
L 188.648291 77.605903 
L 189.825413 60.53623 
L 191.002536 53.789551 
L 192.179658 44.226982 
L 193.356781 36.027929 
L 194.533903 36.171211 
L 195.711026 34.240189 
L 196.888148 41.169769 
L 198.065271 52.668914 
L 199.242393 76.072959 
L 200.419516 87.068313 
L 201.596638 108.995166 
L 202.773761 133.368068 
L 205.128006 165.85885 
L 206.305128 176.966453 
L 207.482251 189.825842 
L 208.659373 200.513151 
L 209.836496 193.96996 
L 211.013618 192.832884 
L 212.190741 190.282377 
L 213.367863 171.404395 
L 215.722108 149.791138 
L 216.89923 128.439629 
L 219.253475 105.422776 
L 220.430598 92.091215 
L 221.60772 88.593613 
L 222.784843 78.607303 
L 223.961965 79.786273 
L 225.139088 78.52141 
L 226.31621 80.967962 
L 227.493333 87.251269 
L 228.670455 77.035917 
L 229.847578 87.875475 
L 231.0247 95.807114 
L 232.201823 100.550234 
L 233.378945 118.700719 
L 234.556068 119.674739 
L 235.73319 127.899943 
L 236.910313 142.015573 
L 238.087435 147.014493 
L 239.264558 159.860935 
L 240.44168 168.72479 
L 241.618803 175.937216 
L 242.795925 186.743502 
L 243.973048 187.013524 
L 245.15017 190.720132 
L 246.327293 190.366643 
L 247.504415 184.614858 
L 248.681538 175.762876 
L 249.85866 171.906421 
L 251.035783 164.656312 
L 253.390028 135.400619 
L 254.56715 136.327379 
L 255.744273 119.729688 
L 256.921395 112.776591 
L 258.098518 112.017848 
L 259.27564 95.06681 
L 260.452763 84.896326 
L 262.807008 77.134531 
L 263.98413 76.328286 
L 265.161253 76.276825 
L 266.338375 83.007629 
L 267.515498 85.711755 
L 269.869743 102.171899 
L 271.046865 111.938538 
L 272.223988 124.007716 
L 273.40111 132.355871 
L 274.578233 143.950774 
L 275.755355 151.173242 
L 276.932478 157.282582 
L 278.1096 165.33889 
L 279.286723 178.762612 
L 280.463845 190.48065 
L 281.640968 184.764092 
L 283.995213 190.934911 
L 285.172335 184.210974 
L 286.349458 173.588159 
L 287.52658 175.177947 
L 288.703703 163.909743 
L 289.880825 154.075745 
L 292.23507 137.027057 
L 293.412193 123.396282 
L 295.766438 101.353811 
L 296.94356 97.777739 
L 299.297805 78.645854 
L 300.474928 70.994083 
L 301.65205 75.715816 
L 302.829173 79.888674 
L 304.006295 83.152057 
L 305.183418 92.967039 
L 306.36054 98.572382 
L 307.537663 104.724 
L 308.714785 106.076064 
L 311.06903 128.137704 
L 312.246152 143.774881 
L 313.423275 149.891705 
L 314.600397 159.340969 
L 315.77752 163.725774 
L 316.954642 176.149528 
L 318.131765 179.369995 
L 319.308887 183.695822 
L 320.48601 189.206317 
L 321.663132 196.395186 
L 322.840255 197.957482 
L 324.017377 196.254802 
L 325.1945 202.543912 
L 326.371622 200.868582 
L 327.548745 209.799471 
L 328.725867 202.351976 
L 329.90299 212.300409 
L 331.080112 211.796086 
L 332.257235 213.725976 
L 333.434357 214.941676 
L 334.61148 204.299401 
L 335.788602 207.283748 
L 336.965725 203.020096 
L 338.142847 191.980141 
L 339.31997 188.067367 
L 340.497092 178.111622 
L 341.674215 166.14896 
L 342.851337 168.248518 
L 344.02846 155.140043 
L 345.205582 151.14088 
L 346.382705 147.813655 
L 347.559827 133.86724 
L 348.73695 136.528288 
L 349.914072 133.39769 
L 351.091195 134.483393 
L 352.268317 138.814512 
L 353.44544 144.75601 
L 354.622562 151.826156 
L 355.799685 165.21375 
L 356.976807 173.51448 
L 358.15393 186.665829 
L 359.331052 201.465146 
L 360.508175 208.83013 
L 361.685297 222.435275 
L 362.86242 226.764125 
L 364.039542 229.921291 
L 365.216665 229.489725 
L 366.393787 221.623088 
L 367.57091 219.455283 
L 368.748032 198.914715 
L 369.925155 185.899502 
L 371.102277 164.328529 
L 372.2794 138.407666 
L 373.456522 114.969489 
L 374.633645 98.048442 
L 375.810767 86.038533 
L 376.98789 75.168133 
L 378.165012 72.228305 
L 379.342135 69.605055 
L 380.519257 71.722946 
L 381.69638 88.033751 
L 382.873502 93.177212 
L 384.050625 106.138828 
L 385.227747 124.982967 
L 386.40487 138.214245 
L 387.581992 147.395236 
L 388.759115 163.371679 
L 389.936237 174.584258 
L 391.11336 179.607823 
L 392.290482 179.590044 
L 393.467605 183.124759 
L 394.644727 185.825662 
L 395.82185 185.724289 
L 396.998972 181.707045 
L 398.176095 178.24072 
L 399.353217 170.834174 
L 400.53034 172.717498 
L 401.707462 160.737611 
L 402.884585 159.893629 
L 404.061707 146.868826 
L 405.238829 132.416146 
L 406.415952 122.601454 
L 408.770197 97.077985 
L 409.947319 91.493748 
L 411.124442 87.012954 
L 412.301564 73.716307 
L 413.478687 71.74764 
L 414.655809 74.161183 
L 415.832932 79.622109 
L 418.187177 97.162647 
L 419.364299 102.734588 
L 420.541422 104.766293 
L 421.718544 115.511307 
L 422.895667 124.426986 
L 424.072789 122.296121 
L 425.249912 129.753744 
L 426.427034 135.628231 
L 427.604157 127.819958 
L 428.781279 133.718622 
L 429.958402 126.917501 
L 431.135524 110.137175 
L 432.312647 103.778824 
L 433.489769 91.021748 
L 435.844014 54.947221 
L 437.021137 44.71323 
L 438.198259 28.118355 
L 439.375382 20.643965 
L 441.729627 32.705255 
L 442.906749 47.827947 
L 445.260994 92.700606 
L 446.438117 118.941546 
L 447.615239 147.80946 
L 448.792362 162.557205 
L 449.969484 190.957748 
L 451.146607 192.950637 
L 452.323729 200.450648 
L 453.500852 181.404785 
L 454.677974 170.487369 
L 455.855097 149.942256 
L 457.032219 120.669597 
L 458.209342 98.376174 
L 459.386464 65.164186 
L 461.740709 51.656715 
L 462.917832 46.015305 
L 464.094954 57.948249 
L 465.272077 71.215302 
L 466.449199 103.574922 
L 467.626322 127.5293 
L 468.803444 155.836507 
L 469.980567 176.139054 
L 472.334812 205.503257 
L 473.511934 214.288166 
L 474.689057 212.581915 
L 475.866179 198.344255 
L 477.043302 180.259539 
L 478.220424 164.011769 
L 479.397547 151.547576 
L 480.574669 125.622206 
L 481.751792 103.889251 
L 482.928914 94.203949 
L 484.106037 85.709976 
L 485.283159 82.908482 
L 486.460282 78.859485 
L 487.637404 82.721562 
L 488.814527 83.245923 
L 489.991649 86.602213 
L 491.168772 93.841304 
L 492.345894 93.750368 
L 493.523017 94.367487 
L 494.700139 104.827797 
L 495.877262 110.913439 
L 498.231507 119.992613 
L 499.408629 129.923626 
L 500.585751 144.883078 
L 501.762874 139.763711 
L 502.939996 156.889868 
L 504.117119 168.874187 
L 505.294241 170.554948 
L 506.471364 176.816163 
L 507.648486 181.779787 
L 508.825609 185.382927 
L 510.002731 194.108558 
L 511.179854 201.127349 
L 512.356976 200.295866 
L 513.534099 201.767643 
L 514.711221 199.540566 
L 515.888344 203.546665 
L 517.065466 201.991121 
L 518.242589 202.282189 
L 519.419711 210.187201 
L 520.596834 209.63846 
L 521.773956 216.602857 
L 522.951079 213.83344 
L 525.305324 204.986407 
L 526.482446 195.407161 
L 527.659569 189.630397 
L 528.836691 187.227893 
L 530.013814 167.276303 
L 532.368059 141.599104 
L 534.722304 125.517206 
L 535.899426 119.946334 
L 537.076549 124.534497 
L 538.253671 134.686463 
L 539.430794 148.234804 
L 540.607916 159.682375 
L 542.962161 178.296949 
L 545.316406 193.079803 
L 545.316406 193.079803 
" clip-path="url(#pff4a8b6e78)" style="fill: none; stroke: #1f77b4; stroke-linecap: square"/>
   </g>
   <g id="line2d_30">
    <path d="M 75.644531 132.892955 
L 76.821654 136.724166 
L 77.998776 132.966967 
L 79.175899 131.146811 
L 80.353021 134.959168 
L 82.707266 126.527619 
L 83.884389 133.116076 
L 85.061511 125.491062 
L 86.238634 132.756888 
L 87.415756 129.201255 
L 88.592879 134.539764 
L 89.770001 136.266577 
L 90.947124 131.619193 
L 92.124246 142.369262 
L 94.478491 137.433712 
L 95.655614 135.9578 
L 96.832736 135.479028 
L 98.009859 125.941679 
L 99.186981 122.447432 
L 100.364104 124.71578 
L 101.541226 122.463334 
L 102.718349 120.557424 
L 103.895471 126.887873 
L 105.072594 132.354101 
L 106.249716 137.022246 
L 108.603961 153.189772 
L 109.781084 157.681658 
L 110.958206 163.793329 
L 112.135329 151.390984 
L 113.312451 146.72983 
L 114.489574 124.745539 
L 115.666696 113.632641 
L 116.843819 86.924531 
L 118.020941 67.555078 
L 119.198064 60.81516 
L 120.375186 46.941943 
L 121.552309 41.875129 
L 122.729431 48.438366 
L 123.906553 52.5121 
L 125.083676 79.334151 
L 126.260798 98.107769 
L 127.437921 122.716148 
L 128.615043 153.315281 
L 129.792166 176.734453 
L 130.969288 192.950227 
L 132.146411 200.001479 
L 133.323533 204.589929 
L 134.500656 196.173308 
L 135.677778 183.510834 
L 136.854901 174.714391 
L 138.032023 148.308257 
L 139.209146 137.921005 
L 140.386268 118.299748 
L 141.563391 116.759656 
L 142.740513 122.195134 
L 143.917636 134.612455 
L 145.094758 138.488826 
L 146.271881 156.981745 
L 147.449003 168.81584 
L 148.626126 188.58815 
L 149.803248 197.663376 
L 150.980371 200.568784 
L 152.157493 194.850473 
L 153.334616 188.164573 
L 154.511738 170.070546 
L 155.688861 159.685217 
L 156.865983 141.242654 
L 158.043106 133.425907 
L 159.220228 127.288067 
L 160.397351 124.893672 
L 161.574473 117.717444 
L 165.105841 166.155217 
L 166.282963 175.069778 
L 167.460086 190.22147 
L 168.637208 195.046786 
L 169.814331 202.905913 
L 170.991453 193.774058 
L 172.168576 180.455317 
L 173.345698 160.918019 
L 174.522821 134.037207 
L 175.699943 116.246863 
L 176.877066 89.024242 
L 178.054188 69.422762 
L 179.231311 45.56865 
L 180.408433 40.961633 
L 181.585556 28.686108 
L 182.762678 29.791327 
L 183.939801 34.107756 
L 186.294046 64.515928 
L 187.471168 71.136879 
L 188.648291 90.021395 
L 189.825413 102.462009 
L 191.002536 106.154955 
L 192.179658 120.174742 
L 193.356781 117.857368 
L 194.533903 120.192266 
L 195.711026 121.805038 
L 196.888148 122.452831 
L 198.065271 120.845033 
L 199.242393 123.46398 
L 200.419516 123.200061 
L 201.596638 126.752152 
L 205.128006 112.372685 
L 206.305128 102.139743 
L 208.659373 74.532633 
L 209.836496 56.420399 
L 211.013618 45.125818 
L 212.190741 32.562603 
L 213.367863 18.25554 
L 214.544986 27.88481 
L 215.722108 39.191179 
L 216.89923 48.304972 
L 218.076353 72.402455 
L 219.253475 91.397188 
L 220.430598 117.708715 
L 221.60772 138.912474 
L 222.784843 174.797629 
L 223.961965 190.630803 
L 225.139088 199.912228 
L 226.31621 203.877231 
L 227.493333 190.845087 
L 228.670455 167.820339 
L 229.847578 142.609555 
L 231.0247 125.80403 
L 232.201823 92.32427 
L 233.378945 78.425482 
L 234.556068 57.306596 
L 236.910313 40.25945 
L 238.087435 53.674682 
L 239.264558 69.243835 
L 240.44168 90.601747 
L 242.795925 142.396497 
L 243.973048 174.930205 
L 245.15017 196.246815 
L 246.327293 213.957387 
L 247.504415 226.314033 
L 248.681538 231.760191 
L 249.85866 236.503425 
L 251.035783 226.064386 
L 252.212905 223.386925 
L 253.390028 209.480553 
L 254.56715 198.249736 
L 255.744273 191.587717 
L 256.921395 190.090528 
L 258.098518 189.486622 
L 259.27564 189.708476 
L 260.452763 190.188522 
L 261.629885 201.188661 
L 262.807008 195.866286 
L 263.98413 200.807591 
L 265.161253 195.3408 
L 266.338375 192.240968 
L 267.515498 189.728573 
L 268.69262 191.522878 
L 269.869743 184.716792 
L 271.046865 190.491853 
L 272.223988 187.718266 
L 273.40111 202.321521 
L 274.578233 209.587224 
L 275.755355 218.804711 
L 276.932478 226.704443 
L 278.1096 232.751236 
L 279.286723 234.723054 
L 280.463845 228.012412 
L 282.81809 195.140438 
L 287.52658 90.997724 
L 288.703703 69.115637 
L 289.880825 50.951292 
L 291.057948 44.896587 
L 292.23507 47.200854 
L 293.412193 59.724264 
L 294.589315 65.970552 
L 296.94356 120.812515 
L 298.120683 146.106702 
L 299.297805 167.859849 
L 300.474928 198.427808 
L 301.65205 198.112938 
L 302.829173 191.843991 
L 304.006295 191.175451 
L 305.183418 162.399851 
L 306.36054 139.379415 
L 307.537663 109.624914 
L 308.714785 88.670984 
L 309.891908 63.40263 
L 311.06903 41.445673 
L 312.246152 30.840129 
L 313.423275 33.424695 
L 314.600397 28.892559 
L 315.77752 36.50589 
L 316.954642 51.305451 
L 318.131765 58.088214 
L 320.48601 89.880057 
L 321.663132 90.867967 
L 322.840255 100.881766 
L 324.017377 101.269789 
L 325.1945 107.640921 
L 326.371622 103.214752 
L 327.548745 110.431837 
L 328.725867 111.509112 
L 329.90299 122.603938 
L 331.080112 134.974322 
L 332.257235 142.251883 
L 333.434357 156.830269 
L 334.61148 175.181874 
L 335.788602 190.265843 
L 336.965725 199.733997 
L 338.142847 207.832884 
L 339.31997 192.992786 
L 340.497092 179.725198 
L 341.674215 171.652217 
L 346.382705 81.831423 
L 347.559827 61.522122 
L 348.73695 54.98486 
L 349.914072 43.62253 
L 351.091195 35.960353 
L 352.268317 38.652858 
L 353.44544 43.262985 
L 354.622562 49.516392 
L 355.799685 60.640776 
L 356.976807 69.88813 
L 359.331052 85.339088 
L 361.685297 101.612852 
L 362.86242 118.523516 
L 364.039542 122.761023 
L 365.216665 128.997819 
L 366.393787 130.480972 
L 367.57091 139.917593 
L 368.748032 132.697758 
L 371.102277 145.558249 
L 372.2794 143.09594 
L 373.456522 153.688141 
L 374.633645 152.834879 
L 375.810767 176.517784 
L 376.98789 180.313108 
L 378.165012 192.363385 
L 379.342135 213.306084 
L 380.519257 221.427934 
L 381.69638 234.829855 
L 382.873502 236.316954 
L 384.050625 234.332133 
L 385.227747 232.679475 
L 386.40487 217.833267 
L 387.581992 194.072219 
L 388.759115 173.432076 
L 391.11336 120.925082 
L 392.290482 101.332992 
L 393.467605 88.074105 
L 394.644727 71.154581 
L 395.82185 62.460709 
L 396.998972 72.571906 
L 398.176095 88.15327 
L 399.353217 114.226756 
L 400.53034 136.802476 
L 401.707462 155.544479 
L 402.884585 180.717952 
L 404.061707 208.974783 
L 405.238829 221.734124 
L 406.415952 220.733833 
L 407.593074 232.105461 
L 408.770197 227.407177 
L 409.947319 218.128315 
L 411.124442 199.164882 
L 412.301564 193.331949 
L 413.478687 192.669512 
L 414.655809 179.224158 
L 415.832932 177.462558 
L 417.010054 180.656339 
L 419.364299 206.150321 
L 420.541422 212.372124 
L 421.718544 223.286231 
L 422.895667 223.788494 
L 424.072789 218.456214 
L 425.249912 215.904216 
L 426.427034 191.091898 
L 427.604157 172.759797 
L 428.781279 143.836535 
L 429.958402 123.121546 
L 431.135524 97.310506 
L 432.312647 87.65763 
L 433.489769 71.959514 
L 434.666892 53.853669 
L 435.844014 60.508888 
L 437.021137 71.04749 
L 438.198259 78.30412 
L 439.375382 87.194508 
L 440.552504 113.410766 
L 441.729627 131.749325 
L 442.906749 139.386763 
L 444.083872 152.65835 
L 446.438117 168.830014 
L 447.615239 171.43276 
L 448.792362 177.874729 
L 449.969484 186.092126 
L 451.146607 186.906223 
L 452.323729 185.982726 
L 453.500852 178.109994 
L 454.677974 185.306958 
L 455.855097 174.464145 
L 457.032219 175.215416 
L 458.209342 167.10228 
L 459.386464 164.525896 
L 460.563587 153.592368 
L 461.740709 135.493996 
L 462.917832 124.523422 
L 464.094954 106.367668 
L 465.272077 96.711004 
L 466.449199 79.392591 
L 467.626322 78.121628 
L 469.980567 68.520502 
L 471.157689 71.443314 
L 472.334812 88.053111 
L 473.511934 98.661483 
L 474.689057 111.532663 
L 475.866179 134.035659 
L 477.043302 152.169733 
L 478.220424 177.270545 
L 479.397547 197.693831 
L 481.751792 224.014345 
L 482.928914 224.332204 
L 484.106037 239.366335 
L 485.283159 229.41887 
L 486.460282 230.409347 
L 487.637404 217.495585 
L 488.814527 205.859385 
L 489.991649 184.018303 
L 491.168772 165.918455 
L 492.345894 139.285933 
L 493.523017 120.637575 
L 494.700139 107.151926 
L 497.054384 75.8439 
L 498.231507 65.822176 
L 499.408629 51.4596 
L 500.585751 49.582294 
L 501.762874 49.163078 
L 502.939996 50.769283 
L 504.117119 46.417619 
L 505.294241 53.127307 
L 506.471364 64.845199 
L 507.648486 69.510366 
L 508.825609 72.144232 
L 510.002731 87.848835 
L 511.179854 88.669044 
L 512.356976 99.780741 
L 513.534099 107.00858 
L 514.711221 111.390655 
L 515.888344 122.250852 
L 517.065466 125.524461 
L 518.242589 128.22021 
L 519.419711 138.543689 
L 520.596834 143.33631 
L 521.773956 149.003633 
L 522.951079 158.739954 
L 524.128201 166.109207 
L 525.305324 180.442162 
L 526.482446 183.47783 
L 527.659569 194.302572 
L 528.836691 200.777997 
L 530.013814 201.732336 
L 531.190936 201.938511 
L 532.368059 207.776729 
L 533.545181 201.575912 
L 534.722304 201.609959 
L 535.899426 204.214028 
L 537.076549 200.391959 
L 538.253671 200.570521 
L 539.430794 208.786492 
L 540.607916 212.395072 
L 541.785039 215.222926 
L 542.962161 211.716802 
L 544.139284 217.324002 
L 545.316406 209.699185 
L 545.316406 209.699185 
" clip-path="url(#pff4a8b6e78)" style="fill: none; stroke: #ff7f0e; stroke-linecap: square"/>
   </g>
   <g id="patch_3">
    <path d="M 52.160938 250.421875 
L 52.160938 7.2 
" style="fill: none; stroke: #000000; stroke-width: 0.8; stroke-linejoin: miter; stroke-linecap: square"/>
   </g>
   <g id="patch_4">
    <path d="M 568.8 250.421875 
L 568.8 7.2 
" style="fill: none; stroke: #000000; stroke-width: 0.8; stroke-linejoin: miter; stroke-linecap: square"/>
   </g>
   <g id="patch_5">
    <path d="M 52.160937 250.421875 
L 568.8 250.421875 
" style="fill: none; stroke: #000000; stroke-width: 0.8; stroke-linejoin: miter; stroke-linecap: square"/>
   </g>
   <g id="patch_6">
    <path d="M 52.160937 7.2 
L 568.8 7.2 
" style="fill: none; stroke: #000000; stroke-width: 0.8; stroke-linejoin: miter; stroke-linecap: square"/>
   </g>
   <g id="legend_1">
    <g id="patch_7">
     <path d="M 504.804688 44.55625 
L 561.8 44.55625 
Q 563.8 44.55625 563.8 42.55625 
L 563.8 14.2 
Q 563.8 12.2 561.8 12.2 
L 504.804688 12.2 
Q 502.804688 12.2 502.804688 14.2 
L 502.804688 42.55625 
Q 502.804688 44.55625 504.804688 44.55625 
z
" style="fill: #ffffff; opacity: 0.8; stroke: #cccccc; stroke-linejoin: miter"/>
    </g>
    <g id="line2d_31">
     <path d="M 506.804688 20.298437 
L 516.804688 20.298437 
L 526.804688 20.298437 
" style="fill: none; stroke: #1f77b4; stroke-linecap: square"/>
    </g>
    <g id="text_17">
     <!-- real -->
     <g transform="translate(534.804688 23.798437) scale(0.1 -0.1)">
      <defs>
       <path id="DejaVuSans-72" d="M 2631 2963 
Q 2534 3019 2420 3045 
Q 2306 3072 2169 3072 
Q 1681 3072 1420 2755 
Q 1159 2438 1159 1844 
L 1159 0 
L 581 0 
L 581 3500 
L 1159 3500 
L 1159 2956 
Q 1341 3275 1631 3429 
Q 1922 3584 2338 3584 
Q 2397 3584 2469 3576 
Q 2541 3569 2628 3553 
L 2631 2963 
z
" transform="scale(0.015625)"/>
      </defs>
      <use xlink:href="#DejaVuSans-72"/>
      <use xlink:href="#DejaVuSans-65" transform="translate(38.863281 0)"/>
      <use xlink:href="#DejaVuSans-61" transform="translate(100.386719 0)"/>
      <use xlink:href="#DejaVuSans-6c" transform="translate(161.666016 0)"/>
     </g>
    </g>
    <g id="line2d_32">
     <path d="M 506.804688 34.976562 
L 516.804688 34.976562 
L 526.804688 34.976562 
" style="fill: none; stroke: #ff7f0e; stroke-linecap: square"/>
    </g>
    <g id="text_18">
     <!-- imag -->
     <g transform="translate(534.804688 38.476562) scale(0.1 -0.1)">
      <defs>
       <path id="DejaVuSans-67" d="M 2906 1791 
Q 2906 2416 2648 2759 
Q 2391 3103 1925 3103 
Q 1463 3103 1205 2759 
Q 947 2416 947 1791 
Q 947 1169 1205 825 
Q 1463 481 1925 481 
Q 2391 481 2648 825 
Q 2906 1169 2906 1791 
z
M 3481 434 
Q 3481 -459 3084 -895 
Q 2688 -1331 1869 -1331 
Q 1566 -1331 1297 -1286 
Q 1028 -1241 775 -1147 
L 775 -588 
Q 1028 -725 1275 -790 
Q 1522 -856 1778 -856 
Q 2344 -856 2625 -561 
Q 2906 -266 2906 331 
L 2906 616 
Q 2728 306 2450 153 
Q 2172 0 1784 0 
Q 1141 0 747 490 
Q 353 981 353 1791 
Q 353 2603 747 3093 
Q 1141 3584 1784 3584 
Q 2172 3584 2450 3431 
Q 2728 3278 2906 2969 
L 2906 3500 
L 3481 3500 
L 3481 434 
z
" transform="scale(0.015625)"/>
      </defs>
      <use xlink:href="#DejaVuSans-69"/>
      <use xlink:href="#DejaVuSans-6d" transform="translate(27.783203 0)"/>
      <use xlink:href="#DejaVuSans-61" transform="translate(125.195312 0)"/>
      <use xlink:href="#DejaVuSans-67" transform="translate(186.474609 0)"/>
     </g>
    </g>
   </g>
  </g>
 </g>
 <defs>
  <clipPath id="pff4a8b6e78">
   <rect x="52.160938" y="7.2" width="516.639063" height="243.221875"/>
  </clipPath>
 </defs>
</svg>
