<?xml version="1.0" encoding="utf-8" standalone="no"?>
<!DOCTYPE svg PUBLIC "-//W3C//DTD SVG 1.1//EN"
  "http://www.w3.org/Graphics/SVG/1.1/DTD/svg11.dtd">
<svg xmlns:xlink="http://www.w3.org/1999/xlink" width="576pt" height="288pt" viewBox="0 0 576 288" xmlns="http://www.w3.org/2000/svg" version="1.1">
 <metadata>
  <rdf:RDF xmlns:dc="http://purl.org/dc/elements/1.1/" xmlns:cc="http://creativecommons.org/ns#" xmlns:rdf="http://www.w3.org/1999/02/22-rdf-syntax-ns#">
   <cc:Work>
    <dc:type rdf:resource="http://purl.org/dc/dcmitype/StillImage"/>
    <dc:date>2025-05-10T16:31:17.756495</dc:date>
    <dc:format>image/svg+xml</dc:format>
    <dc:creator>
     <cc:Agent>
      <dc:title>Matplotlib v3.10.3, https://matplotlib.org/</dc:title>
     </cc:Agent>
    </dc:creator>
   </cc:Work>
  </rdf:RDF>
 </metadata>
 <defs>
  <style type="text/css">*{stroke-linejoin: round; stroke-linecap: butt}</style>
 </defs>
 <g id="figure_1">
  <g id="patch_1">
   <path d="M 0 288 
L 576 288 
L 576 0 
L 0 0 
z
" style="fill: #ffffff"/>
  </g>
  <g id="axes_1">
   <g id="patch_2">
    <path d="M 52.160938 250.421875 
L 568.8 250.421875 
L 568.8 7.2 
L 52.160938 7.2 
z
" style="fill: #ffffff"/>
   </g>
   <g id="matplotlib.axis_1">
    <g id="xtick_1">
     <g id="line2d_1">
      <path d="M 75.644531 250.421875 
L 75.644531 7.2 
" clip-path="url(#p1a343004c8)" style="fill: none; stroke-dasharray: 2.96,1.28; stroke-dashoffset: 0; stroke: #b0b0b0; stroke-opacity: 0.8; stroke-width: 0.8"/>
     </g>
     <g id="line2d_2">
      <defs>
       <path id="m55ba4f569e" d="M 0 0 
L 0 3.5 
" style="stroke: #000000; stroke-width: 0.8"/>
      </defs>
      <g>
       <use xlink:href="#m55ba4f569e" x="75.644531" y="250.421875" style="stroke: #000000; stroke-width: 0.8"/>
      </g>
     </g>
     <g id="text_1">
      <!-- 0 -->
      <g transform="translate(72.463281 265.020312) scale(0.1 -0.1)">
       <defs>
        <path id="DejaVuSans-30" d="M 2034 4250 
Q 1547 4250 1301 3770 
Q 1056 3291 1056 2328 
Q 1056 1369 1301 889 
Q 1547 409 2034 409 
Q 2525 409 2770 889 
Q 3016 1369 3016 2328 
Q 3016 3291 2770 3770 
Q 2525 4250 2034 4250 
z
M 2034 4750 
Q 2819 4750 3233 4129 
Q 3647 3509 3647 2328 
Q 3647 1150 3233 529 
Q 2819 -91 2034 -91 
Q 1250 -91 836 529 
Q 422 1150 422 2328 
Q 422 3509 836 4129 
Q 1250 4750 2034 4750 
z
" transform="scale(0.015625)"/>
       </defs>
       <use xlink:href="#DejaVuSans-30"/>
      </g>
     </g>
    </g>
    <g id="xtick_2">
     <g id="line2d_3">
      <path d="M 134.500656 250.421875 
L 134.500656 7.2 
" clip-path="url(#p1a343004c8)" style="fill: none; stroke-dasharray: 2.96,1.28; stroke-dashoffset: 0; stroke: #b0b0b0; stroke-opacity: 0.8; stroke-width: 0.8"/>
     </g>
     <g id="line2d_4">
      <g>
       <use xlink:href="#m55ba4f569e" x="134.500656" y="250.421875" style="stroke: #000000; stroke-width: 0.8"/>
      </g>
     </g>
     <g id="text_2">
      <!-- 50 -->
      <g transform="translate(128.138156 265.020312) scale(0.1 -0.1)">
       <defs>
        <path id="DejaVuSans-35" d="M 691 4666 
L 3169 4666 
L 3169 4134 
L 1269 4134 
L 1269 2991 
Q 1406 3038 1543 3061 
Q 1681 3084 1819 3084 
Q 2600 3084 3056 2656 
Q 3513 2228 3513 1497 
Q 3513 744 3044 326 
Q 2575 -91 1722 -91 
Q 1428 -91 1123 -41 
Q 819 9 494 109 
L 494 744 
Q 775 591 1075 516 
Q 1375 441 1709 441 
Q 2250 441 2565 725 
Q 2881 1009 2881 1497 
Q 2881 1984 2565 2268 
Q 2250 2553 1709 2553 
Q 1456 2553 1204 2497 
Q 953 2441 691 2322 
L 691 4666 
z
" transform="scale(0.015625)"/>
       </defs>
       <use xlink:href="#DejaVuSans-35"/>
       <use xlink:href="#DejaVuSans-30" transform="translate(63.623047 0)"/>
      </g>
     </g>
    </g>
    <g id="xtick_3">
     <g id="line2d_5">
      <path d="M 193.356781 250.421875 
L 193.356781 7.2 
" clip-path="url(#p1a343004c8)" style="fill: none; stroke-dasharray: 2.96,1.28; stroke-dashoffset: 0; stroke: #b0b0b0; stroke-opacity: 0.8; stroke-width: 0.8"/>
     </g>
     <g id="line2d_6">
      <g>
       <use xlink:href="#m55ba4f569e" x="193.356781" y="250.421875" style="stroke: #000000; stroke-width: 0.8"/>
      </g>
     </g>
     <g id="text_3">
      <!-- 100 -->
      <g transform="translate(183.813031 265.020312) scale(0.1 -0.1)">
       <defs>
        <path id="DejaVuSans-31" d="M 794 531 
L 1825 531 
L 1825 4091 
L 703 3866 
L 703 4441 
L 1819 4666 
L 2450 4666 
L 2450 531 
L 3481 531 
L 3481 0 
L 794 0 
L 794 531 
z
" transform="scale(0.015625)"/>
       </defs>
       <use xlink:href="#DejaVuSans-31"/>
       <use xlink:href="#DejaVuSans-30" transform="translate(63.623047 0)"/>
       <use xlink:href="#DejaVuSans-30" transform="translate(127.246094 0)"/>
      </g>
     </g>
    </g>
    <g id="xtick_4">
     <g id="line2d_7">
      <path d="M 252.212905 250.421875 
L 252.212905 7.2 
" clip-path="url(#p1a343004c8)" style="fill: none; stroke-dasharray: 2.96,1.28; stroke-dashoffset: 0; stroke: #b0b0b0; stroke-opacity: 0.8; stroke-width: 0.8"/>
     </g>
     <g id="line2d_8">
      <g>
       <use xlink:href="#m55ba4f569e" x="252.212905" y="250.421875" style="stroke: #000000; stroke-width: 0.8"/>
      </g>
     </g>
     <g id="text_4">
      <!-- 150 -->
      <g transform="translate(242.669155 265.020312) scale(0.1 -0.1)">
       <use xlink:href="#DejaVuSans-31"/>
       <use xlink:href="#DejaVuSans-35" transform="translate(63.623047 0)"/>
       <use xlink:href="#DejaVuSans-30" transform="translate(127.246094 0)"/>
      </g>
     </g>
    </g>
    <g id="xtick_5">
     <g id="line2d_9">
      <path d="M 311.06903 250.421875 
L 311.06903 7.2 
" clip-path="url(#p1a343004c8)" style="fill: none; stroke-dasharray: 2.96,1.28; stroke-dashoffset: 0; stroke: #b0b0b0; stroke-opacity: 0.8; stroke-width: 0.8"/>
     </g>
     <g id="line2d_10">
      <g>
       <use xlink:href="#m55ba4f569e" x="311.06903" y="250.421875" style="stroke: #000000; stroke-width: 0.8"/>
      </g>
     </g>
     <g id="text_5">
      <!-- 200 -->
      <g transform="translate(301.52528 265.020312) scale(0.1 -0.1)">
       <defs>
        <path id="DejaVuSans-32" d="M 1228 531 
L 3431 531 
L 3431 0 
L 469 0 
L 469 531 
Q 828 903 1448 1529 
Q 2069 2156 2228 2338 
Q 2531 2678 2651 2914 
Q 2772 3150 2772 3378 
Q 2772 3750 2511 3984 
Q 2250 4219 1831 4219 
Q 1534 4219 1204 4116 
Q 875 4013 500 3803 
L 500 4441 
Q 881 4594 1212 4672 
Q 1544 4750 1819 4750 
Q 2544 4750 2975 4387 
Q 3406 4025 3406 3419 
Q 3406 3131 3298 2873 
Q 3191 2616 2906 2266 
Q 2828 2175 2409 1742 
Q 1991 1309 1228 531 
z
" transform="scale(0.015625)"/>
       </defs>
       <use xlink:href="#DejaVuSans-32"/>
       <use xlink:href="#DejaVuSans-30" transform="translate(63.623047 0)"/>
       <use xlink:href="#DejaVuSans-30" transform="translate(127.246094 0)"/>
      </g>
     </g>
    </g>
    <g id="xtick_6">
     <g id="line2d_11">
      <path d="M 369.925155 250.421875 
L 369.925155 7.2 
" clip-path="url(#p1a343004c8)" style="fill: none; stroke-dasharray: 2.96,1.28; stroke-dashoffset: 0; stroke: #b0b0b0; stroke-opacity: 0.8; stroke-width: 0.8"/>
     </g>
     <g id="line2d_12">
      <g>
       <use xlink:href="#m55ba4f569e" x="369.925155" y="250.421875" style="stroke: #000000; stroke-width: 0.8"/>
      </g>
     </g>
     <g id="text_6">
      <!-- 250 -->
      <g transform="translate(360.381405 265.020312) scale(0.1 -0.1)">
       <use xlink:href="#DejaVuSans-32"/>
       <use xlink:href="#DejaVuSans-35" transform="translate(63.623047 0)"/>
       <use xlink:href="#DejaVuSans-30" transform="translate(127.246094 0)"/>
      </g>
     </g>
    </g>
    <g id="xtick_7">
     <g id="line2d_13">
      <path d="M 428.781279 250.421875 
L 428.781279 7.2 
" clip-path="url(#p1a343004c8)" style="fill: none; stroke-dasharray: 2.96,1.28; stroke-dashoffset: 0; stroke: #b0b0b0; stroke-opacity: 0.8; stroke-width: 0.8"/>
     </g>
     <g id="line2d_14">
      <g>
       <use xlink:href="#m55ba4f569e" x="428.781279" y="250.421875" style="stroke: #000000; stroke-width: 0.8"/>
      </g>
     </g>
     <g id="text_7">
      <!-- 300 -->
      <g transform="translate(419.237529 265.020312) scale(0.1 -0.1)">
       <defs>
        <path id="DejaVuSans-33" d="M 2597 2516 
Q 3050 2419 3304 2112 
Q 3559 1806 3559 1356 
Q 3559 666 3084 287 
Q 2609 -91 1734 -91 
Q 1441 -91 1130 -33 
Q 819 25 488 141 
L 488 750 
Q 750 597 1062 519 
Q 1375 441 1716 441 
Q 2309 441 2620 675 
Q 2931 909 2931 1356 
Q 2931 1769 2642 2001 
Q 2353 2234 1838 2234 
L 1294 2234 
L 1294 2753 
L 1863 2753 
Q 2328 2753 2575 2939 
Q 2822 3125 2822 3475 
Q 2822 3834 2567 4026 
Q 2313 4219 1838 4219 
Q 1578 4219 1281 4162 
Q 984 4106 628 3988 
L 628 4550 
Q 988 4650 1302 4700 
Q 1616 4750 1894 4750 
Q 2613 4750 3031 4423 
Q 3450 4097 3450 3541 
Q 3450 3153 3228 2886 
Q 3006 2619 2597 2516 
z
" transform="scale(0.015625)"/>
       </defs>
       <use xlink:href="#DejaVuSans-33"/>
       <use xlink:href="#DejaVuSans-30" transform="translate(63.623047 0)"/>
       <use xlink:href="#DejaVuSans-30" transform="translate(127.246094 0)"/>
      </g>
     </g>
    </g>
    <g id="xtick_8">
     <g id="line2d_15">
      <path d="M 487.637404 250.421875 
L 487.637404 7.2 
" clip-path="url(#p1a343004c8)" style="fill: none; stroke-dasharray: 2.96,1.28; stroke-dashoffset: 0; stroke: #b0b0b0; stroke-opacity: 0.8; stroke-width: 0.8"/>
     </g>
     <g id="line2d_16">
      <g>
       <use xlink:href="#m55ba4f569e" x="487.637404" y="250.421875" style="stroke: #000000; stroke-width: 0.8"/>
      </g>
     </g>
     <g id="text_8">
      <!-- 350 -->
      <g transform="translate(478.093654 265.020312) scale(0.1 -0.1)">
       <use xlink:href="#DejaVuSans-33"/>
       <use xlink:href="#DejaVuSans-35" transform="translate(63.623047 0)"/>
       <use xlink:href="#DejaVuSans-30" transform="translate(127.246094 0)"/>
      </g>
     </g>
    </g>
    <g id="xtick_9">
     <g id="line2d_17">
      <path d="M 546.493529 250.421875 
L 546.493529 7.2 
" clip-path="url(#p1a343004c8)" style="fill: none; stroke-dasharray: 2.96,1.28; stroke-dashoffset: 0; stroke: #b0b0b0; stroke-opacity: 0.8; stroke-width: 0.8"/>
     </g>
     <g id="line2d_18">
      <g>
       <use xlink:href="#m55ba4f569e" x="546.493529" y="250.421875" style="stroke: #000000; stroke-width: 0.8"/>
      </g>
     </g>
     <g id="text_9">
      <!-- 400 -->
      <g transform="translate(536.949779 265.020312) scale(0.1 -0.1)">
       <defs>
        <path id="DejaVuSans-34" d="M 2419 4116 
L 825 1625 
L 2419 1625 
L 2419 4116 
z
M 2253 4666 
L 3047 4666 
L 3047 1625 
L 3713 1625 
L 3713 1100 
L 3047 1100 
L 3047 0 
L 2419 0 
L 2419 1100 
L 313 1100 
L 313 1709 
L 2253 4666 
z
" transform="scale(0.015625)"/>
       </defs>
       <use xlink:href="#DejaVuSans-34"/>
       <use xlink:href="#DejaVuSans-30" transform="translate(63.623047 0)"/>
       <use xlink:href="#DejaVuSans-30" transform="translate(127.246094 0)"/>
      </g>
     </g>
    </g>
    <g id="text_10">
     <!-- Sample, $n$ -->
     <g transform="translate(285.380469 278.7) scale(0.1 -0.1)">
      <defs>
       <path id="DejaVuSans-53" d="M 3425 4513 
L 3425 3897 
Q 3066 4069 2747 4153 
Q 2428 4238 2131 4238 
Q 1616 4238 1336 4038 
Q 1056 3838 1056 3469 
Q 1056 3159 1242 3001 
Q 1428 2844 1947 2747 
L 2328 2669 
Q 3034 2534 3370 2195 
Q 3706 1856 3706 1288 
Q 3706 609 3251 259 
Q 2797 -91 1919 -91 
Q 1588 -91 1214 -16 
Q 841 59 441 206 
L 441 856 
Q 825 641 1194 531 
Q 1563 422 1919 422 
Q 2459 422 2753 634 
Q 3047 847 3047 1241 
Q 3047 1584 2836 1778 
Q 2625 1972 2144 2069 
L 1759 2144 
Q 1053 2284 737 2584 
Q 422 2884 422 3419 
Q 422 4038 858 4394 
Q 1294 4750 2059 4750 
Q 2388 4750 2728 4690 
Q 3069 4631 3425 4513 
z
" transform="scale(0.015625)"/>
       <path id="DejaVuSans-61" d="M 2194 1759 
Q 1497 1759 1228 1600 
Q 959 1441 959 1056 
Q 959 750 1161 570 
Q 1363 391 1709 391 
Q 2188 391 2477 730 
Q 2766 1069 2766 1631 
L 2766 1759 
L 2194 1759 
z
M 3341 1997 
L 3341 0 
L 2766 0 
L 2766 531 
Q 2569 213 2275 61 
Q 1981 -91 1556 -91 
Q 1019 -91 701 211 
Q 384 513 384 1019 
Q 384 1609 779 1909 
Q 1175 2209 1959 2209 
L 2766 2209 
L 2766 2266 
Q 2766 2663 2505 2880 
Q 2244 3097 1772 3097 
Q 1472 3097 1187 3025 
Q 903 2953 641 2809 
L 641 3341 
Q 956 3463 1253 3523 
Q 1550 3584 1831 3584 
Q 2591 3584 2966 3190 
Q 3341 2797 3341 1997 
z
" transform="scale(0.015625)"/>
       <path id="DejaVuSans-6d" d="M 3328 2828 
Q 3544 3216 3844 3400 
Q 4144 3584 4550 3584 
Q 5097 3584 5394 3201 
Q 5691 2819 5691 2113 
L 5691 0 
L 5113 0 
L 5113 2094 
Q 5113 2597 4934 2840 
Q 4756 3084 4391 3084 
Q 3944 3084 3684 2787 
Q 3425 2491 3425 1978 
L 3425 0 
L 2847 0 
L 2847 2094 
Q 2847 2600 2669 2842 
Q 2491 3084 2119 3084 
Q 1678 3084 1418 2786 
Q 1159 2488 1159 1978 
L 1159 0 
L 581 0 
L 581 3500 
L 1159 3500 
L 1159 2956 
Q 1356 3278 1631 3431 
Q 1906 3584 2284 3584 
Q 2666 3584 2933 3390 
Q 3200 3197 3328 2828 
z
" transform="scale(0.015625)"/>
       <path id="DejaVuSans-70" d="M 1159 525 
L 1159 -1331 
L 581 -1331 
L 581 3500 
L 1159 3500 
L 1159 2969 
Q 1341 3281 1617 3432 
Q 1894 3584 2278 3584 
Q 2916 3584 3314 3078 
Q 3713 2572 3713 1747 
Q 3713 922 3314 415 
Q 2916 -91 2278 -91 
Q 1894 -91 1617 61 
Q 1341 213 1159 525 
z
M 3116 1747 
Q 3116 2381 2855 2742 
Q 2594 3103 2138 3103 
Q 1681 3103 1420 2742 
Q 1159 2381 1159 1747 
Q 1159 1113 1420 752 
Q 1681 391 2138 391 
Q 2594 391 2855 752 
Q 3116 1113 3116 1747 
z
" transform="scale(0.015625)"/>
       <path id="DejaVuSans-6c" d="M 603 4863 
L 1178 4863 
L 1178 0 
L 603 0 
L 603 4863 
z
" transform="scale(0.015625)"/>
       <path id="DejaVuSans-65" d="M 3597 1894 
L 3597 1613 
L 953 1613 
Q 991 1019 1311 708 
Q 1631 397 2203 397 
Q 2534 397 2845 478 
Q 3156 559 3463 722 
L 3463 178 
Q 3153 47 2828 -22 
Q 2503 -91 2169 -91 
Q 1331 -91 842 396 
Q 353 884 353 1716 
Q 353 2575 817 3079 
Q 1281 3584 2069 3584 
Q 2775 3584 3186 3129 
Q 3597 2675 3597 1894 
z
M 3022 2063 
Q 3016 2534 2758 2815 
Q 2500 3097 2075 3097 
Q 1594 3097 1305 2825 
Q 1016 2553 972 2059 
L 3022 2063 
z
" transform="scale(0.015625)"/>
       <path id="DejaVuSans-2c" d="M 750 794 
L 1409 794 
L 1409 256 
L 897 -744 
L 494 -744 
L 750 256 
L 750 794 
z
" transform="scale(0.015625)"/>
       <path id="DejaVuSans-20" transform="scale(0.015625)"/>
       <path id="DejaVuSans-Oblique-6e" d="M 3566 2113 
L 3156 0 
L 2578 0 
L 2988 2091 
Q 3016 2238 3031 2350 
Q 3047 2463 3047 2528 
Q 3047 2791 2881 2937 
Q 2716 3084 2419 3084 
Q 1956 3084 1622 2776 
Q 1288 2469 1184 1941 
L 800 0 
L 225 0 
L 903 3500 
L 1478 3500 
L 1363 2950 
Q 1603 3253 1940 3418 
Q 2278 3584 2650 3584 
Q 3113 3584 3367 3334 
Q 3622 3084 3622 2631 
Q 3622 2519 3608 2391 
Q 3594 2263 3566 2113 
z
" transform="scale(0.015625)"/>
      </defs>
      <use xlink:href="#DejaVuSans-53" transform="translate(0 0.015625)"/>
      <use xlink:href="#DejaVuSans-61" transform="translate(63.476562 0.015625)"/>
      <use xlink:href="#DejaVuSans-6d" transform="translate(124.755859 0.015625)"/>
      <use xlink:href="#DejaVuSans-70" transform="translate(222.167969 0.015625)"/>
      <use xlink:href="#DejaVuSans-6c" transform="translate(285.644531 0.015625)"/>
      <use xlink:href="#DejaVuSans-65" transform="translate(313.427734 0.015625)"/>
      <use xlink:href="#DejaVuSans-2c" transform="translate(374.951172 0.015625)"/>
      <use xlink:href="#DejaVuSans-20" transform="translate(406.738281 0.015625)"/>
      <use xlink:href="#DejaVuSans-Oblique-6e" transform="translate(438.525391 0.015625)"/>
     </g>
    </g>
   </g>
   <g id="matplotlib.axis_2">
    <g id="ytick_1">
     <g id="line2d_19">
      <path d="M 52.160938 242.056927 
L 568.8 242.056927 
" clip-path="url(#p1a343004c8)" style="fill: none; stroke-dasharray: 2.96,1.28; stroke-dashoffset: 0; stroke: #b0b0b0; stroke-opacity: 0.8; stroke-width: 0.8"/>
     </g>
     <g id="line2d_20">
      <defs>
       <path id="me3995618b4" d="M 0 0 
L -3.5 0 
" style="stroke: #000000; stroke-width: 0.8"/>
      </defs>
      <g>
       <use xlink:href="#me3995618b4" x="52.160938" y="242.056927" style="stroke: #000000; stroke-width: 0.8"/>
      </g>
     </g>
     <g id="text_11">
      <!-- −0.4 -->
      <g transform="translate(20.878125 245.856146) scale(0.1 -0.1)">
       <defs>
        <path id="DejaVuSans-2212" d="M 678 2272 
L 4684 2272 
L 4684 1741 
L 678 1741 
L 678 2272 
z
" transform="scale(0.015625)"/>
        <path id="DejaVuSans-2e" d="M 684 794 
L 1344 794 
L 1344 0 
L 684 0 
L 684 794 
z
" transform="scale(0.015625)"/>
       </defs>
       <use xlink:href="#DejaVuSans-2212"/>
       <use xlink:href="#DejaVuSans-30" transform="translate(83.789062 0)"/>
       <use xlink:href="#DejaVuSans-2e" transform="translate(147.412109 0)"/>
       <use xlink:href="#DejaVuSans-34" transform="translate(179.199219 0)"/>
      </g>
     </g>
    </g>
    <g id="ytick_2">
     <g id="line2d_21">
      <path d="M 52.160938 213.993325 
L 568.8 213.993325 
" clip-path="url(#p1a343004c8)" style="fill: none; stroke-dasharray: 2.96,1.28; stroke-dashoffset: 0; stroke: #b0b0b0; stroke-opacity: 0.8; stroke-width: 0.8"/>
     </g>
     <g id="line2d_22">
      <g>
       <use xlink:href="#me3995618b4" x="52.160938" y="213.993325" style="stroke: #000000; stroke-width: 0.8"/>
      </g>
     </g>
     <g id="text_12">
      <!-- −0.3 -->
      <g transform="translate(20.878125 217.792544) scale(0.1 -0.1)">
       <use xlink:href="#DejaVuSans-2212"/>
       <use xlink:href="#DejaVuSans-30" transform="translate(83.789062 0)"/>
       <use xlink:href="#DejaVuSans-2e" transform="translate(147.412109 0)"/>
       <use xlink:href="#DejaVuSans-33" transform="translate(179.199219 0)"/>
      </g>
     </g>
    </g>
    <g id="ytick_3">
     <g id="line2d_23">
      <path d="M 52.160938 185.929724 
L 568.8 185.929724 
" clip-path="url(#p1a343004c8)" style="fill: none; stroke-dasharray: 2.96,1.28; stroke-dashoffset: 0; stroke: #b0b0b0; stroke-opacity: 0.8; stroke-width: 0.8"/>
     </g>
     <g id="line2d_24">
      <g>
       <use xlink:href="#me3995618b4" x="52.160938" y="185.929724" style="stroke: #000000; stroke-width: 0.8"/>
      </g>
     </g>
     <g id="text_13">
      <!-- −0.2 -->
      <g transform="translate(20.878125 189.728942) scale(0.1 -0.1)">
       <use xlink:href="#DejaVuSans-2212"/>
       <use xlink:href="#DejaVuSans-30" transform="translate(83.789062 0)"/>
       <use xlink:href="#DejaVuSans-2e" transform="translate(147.412109 0)"/>
       <use xlink:href="#DejaVuSans-32" transform="translate(179.199219 0)"/>
      </g>
     </g>
    </g>
    <g id="ytick_4">
     <g id="line2d_25">
      <path d="M 52.160938 157.866122 
L 568.8 157.866122 
" clip-path="url(#p1a343004c8)" style="fill: none; stroke-dasharray: 2.96,1.28; stroke-dashoffset: 0; stroke: #b0b0b0; stroke-opacity: 0.8; stroke-width: 0.8"/>
     </g>
     <g id="line2d_26">
      <g>
       <use xlink:href="#me3995618b4" x="52.160938" y="157.866122" style="stroke: #000000; stroke-width: 0.8"/>
      </g>
     </g>
     <g id="text_14">
      <!-- −0.1 -->
      <g transform="translate(20.878125 161.665341) scale(0.1 -0.1)">
       <use xlink:href="#DejaVuSans-2212"/>
       <use xlink:href="#DejaVuSans-30" transform="translate(83.789062 0)"/>
       <use xlink:href="#DejaVuSans-2e" transform="translate(147.412109 0)"/>
       <use xlink:href="#DejaVuSans-31" transform="translate(179.199219 0)"/>
      </g>
     </g>
    </g>
    <g id="ytick_5">
     <g id="line2d_27">
      <path d="M 52.160938 129.80252 
L 568.8 129.80252 
" clip-path="url(#p1a343004c8)" style="fill: none; stroke-dasharray: 2.96,1.28; stroke-dashoffset: 0; stroke: #b0b0b0; stroke-opacity: 0.8; stroke-width: 0.8"/>
     </g>
     <g id="line2d_28">
      <g>
       <use xlink:href="#me3995618b4" x="52.160938" y="129.80252" style="stroke: #000000; stroke-width: 0.8"/>
      </g>
     </g>
     <g id="text_15">
      <!-- 0.0 -->
      <g transform="translate(29.257812 133.601739) scale(0.1 -0.1)">
       <use xlink:href="#DejaVuSans-30"/>
       <use xlink:href="#DejaVuSans-2e" transform="translate(63.623047 0)"/>
       <use xlink:href="#DejaVuSans-30" transform="translate(95.410156 0)"/>
      </g>
     </g>
    </g>
    <g id="ytick_6">
     <g id="line2d_29">
      <path d="M 52.160938 101.738918 
L 568.8 101.738918 
" clip-path="url(#p1a343004c8)" style="fill: none; stroke-dasharray: 2.96,1.28; stroke-dashoffset: 0; stroke: #b0b0b0; stroke-opacity: 0.8; stroke-width: 0.8"/>
     </g>
     <g id="line2d_30">
      <g>
       <use xlink:href="#me3995618b4" x="52.160938" y="101.738918" style="stroke: #000000; stroke-width: 0.8"/>
      </g>
     </g>
     <g id="text_16">
      <!-- 0.1 -->
      <g transform="translate(29.257812 105.538137) scale(0.1 -0.1)">
       <use xlink:href="#DejaVuSans-30"/>
       <use xlink:href="#DejaVuSans-2e" transform="translate(63.623047 0)"/>
       <use xlink:href="#DejaVuSans-31" transform="translate(95.410156 0)"/>
      </g>
     </g>
    </g>
    <g id="ytick_7">
     <g id="line2d_31">
      <path d="M 52.160938 73.675317 
L 568.8 73.675317 
" clip-path="url(#p1a343004c8)" style="fill: none; stroke-dasharray: 2.96,1.28; stroke-dashoffset: 0; stroke: #b0b0b0; stroke-opacity: 0.8; stroke-width: 0.8"/>
     </g>
     <g id="line2d_32">
      <g>
       <use xlink:href="#me3995618b4" x="52.160938" y="73.675317" style="stroke: #000000; stroke-width: 0.8"/>
      </g>
     </g>
     <g id="text_17">
      <!-- 0.2 -->
      <g transform="translate(29.257812 77.474535) scale(0.1 -0.1)">
       <use xlink:href="#DejaVuSans-30"/>
       <use xlink:href="#DejaVuSans-2e" transform="translate(63.623047 0)"/>
       <use xlink:href="#DejaVuSans-32" transform="translate(95.410156 0)"/>
      </g>
     </g>
    </g>
    <g id="ytick_8">
     <g id="line2d_33">
      <path d="M 52.160938 45.611715 
L 568.8 45.611715 
" clip-path="url(#p1a343004c8)" style="fill: none; stroke-dasharray: 2.96,1.28; stroke-dashoffset: 0; stroke: #b0b0b0; stroke-opacity: 0.8; stroke-width: 0.8"/>
     </g>
     <g id="line2d_34">
      <g>
       <use xlink:href="#me3995618b4" x="52.160938" y="45.611715" style="stroke: #000000; stroke-width: 0.8"/>
      </g>
     </g>
     <g id="text_18">
      <!-- 0.3 -->
      <g transform="translate(29.257812 49.410934) scale(0.1 -0.1)">
       <use xlink:href="#DejaVuSans-30"/>
       <use xlink:href="#DejaVuSans-2e" transform="translate(63.623047 0)"/>
       <use xlink:href="#DejaVuSans-33" transform="translate(95.410156 0)"/>
      </g>
     </g>
    </g>
    <g id="ytick_9">
     <g id="line2d_35">
      <path d="M 52.160938 17.548113 
L 568.8 17.548113 
" clip-path="url(#p1a343004c8)" style="fill: none; stroke-dasharray: 2.96,1.28; stroke-dashoffset: 0; stroke: #b0b0b0; stroke-opacity: 0.8; stroke-width: 0.8"/>
     </g>
     <g id="line2d_36">
      <g>
       <use xlink:href="#me3995618b4" x="52.160938" y="17.548113" style="stroke: #000000; stroke-width: 0.8"/>
      </g>
     </g>
     <g id="text_19">
      <!-- 0.4 -->
      <g transform="translate(29.257812 21.347332) scale(0.1 -0.1)">
       <use xlink:href="#DejaVuSans-30"/>
       <use xlink:href="#DejaVuSans-2e" transform="translate(63.623047 0)"/>
       <use xlink:href="#DejaVuSans-34" transform="translate(95.410156 0)"/>
      </g>
     </g>
    </g>
    <g id="text_20">
     <!-- Amplitude -->
     <g transform="translate(14.798437 154.433594) rotate(-90) scale(0.1 -0.1)">
      <defs>
       <path id="DejaVuSans-41" d="M 2188 4044 
L 1331 1722 
L 3047 1722 
L 2188 4044 
z
M 1831 4666 
L 2547 4666 
L 4325 0 
L 3669 0 
L 3244 1197 
L 1141 1197 
L 716 0 
L 50 0 
L 1831 4666 
z
" transform="scale(0.015625)"/>
       <path id="DejaVuSans-69" d="M 603 3500 
L 1178 3500 
L 1178 0 
L 603 0 
L 603 3500 
z
M 603 4863 
L 1178 4863 
L 1178 4134 
L 603 4134 
L 603 4863 
z
" transform="scale(0.015625)"/>
       <path id="DejaVuSans-74" d="M 1172 4494 
L 1172 3500 
L 2356 3500 
L 2356 3053 
L 1172 3053 
L 1172 1153 
Q 1172 725 1289 603 
Q 1406 481 1766 481 
L 2356 481 
L 2356 0 
L 1766 0 
Q 1100 0 847 248 
Q 594 497 594 1153 
L 594 3053 
L 172 3053 
L 172 3500 
L 594 3500 
L 594 4494 
L 1172 4494 
z
" transform="scale(0.015625)"/>
       <path id="DejaVuSans-75" d="M 544 1381 
L 544 3500 
L 1119 3500 
L 1119 1403 
Q 1119 906 1312 657 
Q 1506 409 1894 409 
Q 2359 409 2629 706 
Q 2900 1003 2900 1516 
L 2900 3500 
L 3475 3500 
L 3475 0 
L 2900 0 
L 2900 538 
Q 2691 219 2414 64 
Q 2138 -91 1772 -91 
Q 1169 -91 856 284 
Q 544 659 544 1381 
z
M 1991 3584 
L 1991 3584 
z
" transform="scale(0.015625)"/>
       <path id="DejaVuSans-64" d="M 2906 2969 
L 2906 4863 
L 3481 4863 
L 3481 0 
L 2906 0 
L 2906 525 
Q 2725 213 2448 61 
Q 2172 -91 1784 -91 
Q 1150 -91 751 415 
Q 353 922 353 1747 
Q 353 2572 751 3078 
Q 1150 3584 1784 3584 
Q 2172 3584 2448 3432 
Q 2725 3281 2906 2969 
z
M 947 1747 
Q 947 1113 1208 752 
Q 1469 391 1925 391 
Q 2381 391 2643 752 
Q 2906 1113 2906 1747 
Q 2906 2381 2643 2742 
Q 2381 3103 1925 3103 
Q 1469 3103 1208 2742 
Q 947 2381 947 1747 
z
" transform="scale(0.015625)"/>
      </defs>
      <use xlink:href="#DejaVuSans-41"/>
      <use xlink:href="#DejaVuSans-6d" transform="translate(68.408203 0)"/>
      <use xlink:href="#DejaVuSans-70" transform="translate(165.820312 0)"/>
      <use xlink:href="#DejaVuSans-6c" transform="translate(229.296875 0)"/>
      <use xlink:href="#DejaVuSans-69" transform="translate(257.080078 0)"/>
      <use xlink:href="#DejaVuSans-74" transform="translate(284.863281 0)"/>
      <use xlink:href="#DejaVuSans-75" transform="translate(324.072266 0)"/>
      <use xlink:href="#DejaVuSans-64" transform="translate(387.451172 0)"/>
      <use xlink:href="#DejaVuSans-65" transform="translate(450.927734 0)"/>
     </g>
    </g>
   </g>
   <g id="line2d_37">
    <path d="M 75.644531 126.934569 
L 76.821654 174.665089 
L 77.998776 202.085524 
L 79.175899 212.829993 
L 80.353021 227.287826 
L 81.530144 216.798198 
L 82.707266 197.464095 
L 83.884389 168.141137 
L 86.238634 96.419076 
L 87.415756 54.988578 
L 88.592879 37.133723 
L 89.770001 28.088689 
L 90.947124 39.284362 
L 93.301369 85.022394 
L 94.478491 130.383867 
L 95.655614 170.870757 
L 96.832736 197.068936 
L 99.186981 228.780621 
L 101.541226 198.93446 
L 102.718349 170.871422 
L 103.895471 137.872958 
L 105.072594 165.038195 
L 106.249716 204.030209 
L 107.426839 224.759195 
L 108.603961 235.849555 
L 109.781084 223.676411 
L 110.958206 188.597391 
L 112.135329 170.447002 
L 113.312451 129.901453 
L 114.489574 164.592228 
L 116.843819 222.358241 
L 118.020941 236.650854 
L 119.198064 222.677918 
L 120.375186 200.959971 
L 121.552309 164.551241 
L 122.729431 124.464831 
L 125.083676 60.188066 
L 126.260798 40.111254 
L 127.437921 33.610806 
L 128.615043 38.284544 
L 129.792166 56.473712 
L 134.500656 204.316416 
L 136.854901 226.370397 
L 138.032023 226.354485 
L 139.209146 190.06588 
L 140.386268 166.848334 
L 142.740513 84.733392 
L 143.917636 51.127862 
L 145.094758 38.076386 
L 146.271881 32.778493 
L 147.449003 36.169971 
L 148.626126 59.873329 
L 149.803248 97.611137 
L 150.980371 128.810075 
L 153.334616 57.263974 
L 155.688861 25.139775 
L 156.865983 36.035445 
L 158.043106 58.975298 
L 159.220228 89.042672 
L 160.397351 136.907995 
L 161.574473 167.034231 
L 162.751596 201.264507 
L 163.928718 223.850706 
L 165.105841 226.328506 
L 166.282963 223.317575 
L 168.637208 172.114545 
L 169.814331 124.55446 
L 170.991453 157.295018 
L 172.168576 196.62368 
L 173.345698 211.855859 
L 174.522821 234.082166 
L 175.699943 226.742679 
L 176.877066 194.541382 
L 178.054188 169.364531 
L 179.231311 136.858861 
L 180.408433 100.763688 
L 181.585556 71.164902 
L 182.762678 34.115509 
L 183.939801 37.041447 
L 185.116923 27.361334 
L 186.294046 62.616774 
L 187.471168 90.592563 
L 188.648291 133.482627 
L 189.825413 165.132921 
L 191.002536 203.216801 
L 192.179658 225.802679 
L 193.356781 235.01042 
L 194.533903 220.191956 
L 195.711026 197.902745 
L 196.888148 165.52123 
L 198.065271 128.657621 
L 199.242393 174.591714 
L 200.419516 203.324706 
L 201.596638 223.652134 
L 202.773761 228.413021 
L 203.950883 219.682051 
L 205.128006 205.205607 
L 206.305128 160.393772 
L 207.482251 128.483376 
L 208.659373 89.098964 
L 209.836496 60.791666 
L 211.013618 37.692942 
L 212.190741 37.693084 
L 213.367863 30.971151 
L 214.544986 61.648785 
L 215.722108 87.964202 
L 216.89923 126.783267 
L 219.253475 59.033831 
L 220.430598 35.71089 
L 221.60772 34.411904 
L 222.784843 34.150591 
L 223.961965 62.285751 
L 226.31621 124.768306 
L 227.493333 84.969643 
L 228.670455 63.516106 
L 229.847578 34.900749 
L 231.0247 33.943899 
L 232.201823 34.844912 
L 234.556068 88.312225 
L 235.73319 123.422997 
L 236.910313 164.698795 
L 238.087435 198.724525 
L 239.264558 210.240134 
L 240.44168 231.592909 
L 241.618803 221.987515 
L 242.795925 199.407697 
L 243.973048 170.295065 
L 245.15017 132.230352 
L 247.504415 199.132202 
L 248.681538 219.753856 
L 249.85866 229.957665 
L 251.035783 225.252908 
L 252.212905 202.629377 
L 253.390028 161.309844 
L 254.56715 133.181812 
L 255.744273 90.776265 
L 256.921395 54.953526 
L 259.27564 26.169532 
L 260.452763 36.318646 
L 261.629885 62.372889 
L 262.807008 94.489285 
L 266.338375 204.038796 
L 267.515498 214.935398 
L 268.69262 229.272527 
L 269.869743 225.690776 
L 272.223988 172.985731 
L 273.40111 130.036829 
L 275.755355 199.002428 
L 276.932478 224.950365 
L 278.1096 235.467778 
L 279.286723 216.64174 
L 280.463845 206.497701 
L 281.640968 158.183975 
L 282.81809 129.238649 
L 283.995213 170.790772 
L 286.349458 225.611929 
L 287.52658 232.753008 
L 288.703703 225.513333 
L 289.880825 206.646101 
L 291.057948 166.695263 
L 292.23507 132.083708 
L 293.412193 169.26123 
L 294.589315 201.646196 
L 295.766438 223.198228 
L 296.94356 237.439189 
L 298.120683 228.492738 
L 299.297805 195.288975 
L 300.474928 174.168695 
L 301.65205 137.160536 
L 302.829173 160.326079 
L 304.006295 203.002162 
L 305.183418 219.218063 
L 306.36054 224.588732 
L 307.537663 221.283672 
L 308.714785 193.968922 
L 309.891908 162.517095 
L 311.06903 125.224114 
L 312.246152 174.285863 
L 313.423275 204.143968 
L 314.600397 211.350255 
L 315.77752 224.750038 
L 316.954642 220.436895 
L 318.131765 198.147357 
L 319.308887 165.937047 
L 320.48601 127.235284 
L 321.663132 168.974587 
L 322.840255 194.841309 
L 324.017377 227.864062 
L 325.1945 230.996421 
L 326.371622 217.022902 
L 327.548745 194.054165 
L 328.725867 157.711167 
L 329.90299 129.515005 
L 331.080112 87.846428 
L 333.434357 35.358147 
L 334.61148 32.575919 
L 335.788602 45.625299 
L 336.965725 57.210102 
L 338.142847 87.184508 
L 339.31997 128.894941 
L 340.497092 80.805558 
L 341.674215 54.006618 
L 342.851337 42.567337 
L 344.02846 40.859734 
L 345.205582 40.179638 
L 346.382705 62.433844 
L 347.559827 89.683514 
L 349.914072 166.291106 
L 351.091195 196.945766 
L 352.268317 217.748165 
L 353.44544 226.70815 
L 354.622562 224.768233 
L 355.799685 203.218415 
L 356.976807 163.771692 
L 358.15393 132.953173 
L 359.331052 90.515505 
L 360.508175 59.132322 
L 361.685297 36.902168 
L 362.86242 32.032207 
L 364.039542 39.603728 
L 365.216665 61.30782 
L 367.57091 124.398731 
L 368.748032 96.86285 
L 369.925155 72.227231 
L 371.102277 42.196187 
L 372.2794 26.250018 
L 373.456522 41.35613 
L 374.633645 54.173125 
L 375.810767 100.339576 
L 376.98789 120.731977 
L 378.165012 100.584387 
L 379.342135 57.39263 
L 380.519257 38.802385 
L 381.69638 33.15772 
L 382.873502 40.739522 
L 384.050625 75.64191 
L 385.227747 85.224692 
L 386.40487 127.836778 
L 387.581992 99.781873 
L 389.936237 35.844295 
L 391.11336 32.443603 
L 392.290482 36.29042 
L 393.467605 50.379792 
L 395.82185 132.095987 
L 396.998972 85.323345 
L 398.176095 50.354765 
L 399.353217 40.075039 
L 400.53034 25.692434 
L 401.707462 44.334741 
L 402.884585 60.719781 
L 404.061707 87.067492 
L 405.238829 131.127659 
L 406.415952 156.792542 
L 407.593074 201.186717 
L 408.770197 221.525135 
L 409.947319 229.707693 
L 411.124442 220.46964 
L 412.301564 204.791456 
L 413.478687 170.277228 
L 414.655809 124.492695 
L 417.010054 63.409337 
L 418.187177 39.012828 
L 419.364299 31.140506 
L 420.541422 34.88121 
L 421.718544 58.128585 
L 422.895667 88.894504 
L 425.249912 172.604407 
L 426.427034 204.266292 
L 427.604157 228.277853 
L 428.781279 226.59885 
L 429.958402 222.373425 
L 431.135524 199.245072 
L 432.312647 173.505264 
L 433.489769 122.156355 
L 434.666892 87.314212 
L 437.021137 33.225074 
L 438.198259 25.132213 
L 439.375382 38.552901 
L 440.552504 62.071225 
L 441.729627 88.60391 
L 442.906749 129.942452 
L 444.083872 98.146413 
L 445.260994 55.35971 
L 446.438117 33.099633 
L 447.615239 30.287412 
L 448.792362 35.130211 
L 449.969484 53.986951 
L 451.146607 87.003485 
L 452.323729 127.554049 
L 453.500852 175.664422 
L 454.677974 206.581635 
L 457.032219 226.206446 
L 458.209342 217.917697 
L 459.386464 201.418605 
L 460.563587 169.0951 
L 461.740709 127.07196 
L 462.917832 168.645738 
L 464.094954 192.390215 
L 465.272077 219.656485 
L 466.449199 233.094113 
L 467.626322 225.216786 
L 468.803444 199.920303 
L 469.980567 155.961415 
L 471.157689 126.844122 
L 473.511934 204.071119 
L 474.689057 215.717064 
L 475.866179 232.876837 
L 477.043302 221.207717 
L 478.220424 200.196267 
L 479.397547 172.764869 
L 480.574669 125.970986 
L 481.751792 174.254211 
L 484.106037 217.41949 
L 485.283159 228.816089 
L 486.460282 218.157266 
L 487.637404 198.385432 
L 488.814527 163.484663 
L 489.991649 121.265836 
L 491.168772 91.845263 
L 492.345894 57.75463 
L 493.523017 37.899629 
L 494.700139 25.333789 
L 495.877262 32.668898 
L 497.054384 53.069151 
L 498.231507 90.009924 
L 499.408629 133.799499 
L 501.762874 200.228881 
L 502.939996 226.446843 
L 504.117119 233.171155 
L 506.471364 202.93456 
L 507.648486 168.151595 
L 508.825609 119.660037 
L 510.002731 92.970612 
L 511.179854 55.222599 
L 512.356976 43.054456 
L 513.534099 28.402004 
L 514.711221 28.864396 
L 517.065466 85.010284 
L 518.242589 129.904768 
L 519.419711 80.720472 
L 520.596834 61.423532 
L 521.773956 35.256123 
L 522.951079 21.972645 
L 524.128201 34.997159 
L 525.305324 50.653615 
L 526.482446 84.233957 
L 527.659569 133.330917 
L 528.836691 166.974781 
L 530.013814 195.429764 
L 531.190936 220.062334 
L 532.368059 233.356282 
L 533.545181 226.925143 
L 535.899426 164.442856 
L 537.076549 138.478191 
L 540.607916 31.595117 
L 541.785039 28.423358 
L 542.962161 34.673818 
L 544.139284 55.003234 
L 545.316406 95.419918 
L 545.316406 95.419918 
" clip-path="url(#p1a343004c8)" style="fill: none; stroke: #1f77b4; stroke-linecap: square"/>
   </g>
   <g id="line2d_38">
    <path d="M 75.644531 125.150423 
L 76.821654 129.819079 
L 77.998776 125.033887 
L 79.175899 135.108127 
L 80.353021 132.718684 
L 82.707266 57.928131 
L 83.884389 37.420729 
L 85.061511 34.07814 
L 86.238634 37.747575 
L 87.415756 60.916508 
L 88.592879 91.968674 
L 89.770001 133.363088 
L 93.301369 227.28194 
L 94.478491 228.772669 
L 95.655614 217.191459 
L 96.832736 199.872055 
L 98.009859 164.896821 
L 99.186981 126.408537 
L 100.364104 171.373732 
L 101.541226 191.646939 
L 102.718349 222.143194 
L 103.895471 235.078834 
L 105.072594 228.444118 
L 106.249716 201.845969 
L 107.426839 170.150033 
L 108.603961 132.077609 
L 109.781084 171.169508 
L 110.958206 203.522076 
L 112.135329 225.352062 
L 113.312451 228.690396 
L 114.489574 219.757741 
L 116.843819 174.748872 
L 118.020941 124.990019 
L 119.198064 167.468606 
L 120.375186 214.820596 
L 121.552309 222.332229 
L 122.729431 234.557957 
L 123.906553 218.771005 
L 127.437921 134.257296 
L 129.792166 200.676965 
L 130.969288 225.568662 
L 132.146411 227.016947 
L 133.323533 217.712255 
L 134.500656 198.311729 
L 136.854901 131.395335 
L 138.032023 83.017102 
L 139.209146 61.597185 
L 140.386268 33.330229 
L 141.563391 28.459812 
L 142.740513 41.669102 
L 143.917636 57.752824 
L 145.094758 95.182636 
L 146.271881 126.709539 
L 147.449003 87.021467 
L 148.626126 59.896097 
L 149.803248 36.082905 
L 150.980371 25.860021 
L 152.157493 43.959125 
L 153.334616 60.046254 
L 154.511738 87.66575 
L 155.688861 127.662285 
L 156.865983 93.209646 
L 158.043106 67.430622 
L 159.220228 37.150455 
L 160.397351 31.636355 
L 161.574473 42.536688 
L 162.751596 68.845802 
L 163.928718 82.590849 
L 165.105841 139.170254 
L 166.282963 87.14967 
L 167.460086 53.296504 
L 169.814331 29.808341 
L 170.991453 36.796643 
L 172.168576 56.833005 
L 174.522821 139.16156 
L 175.699943 94.079659 
L 176.877066 65.701118 
L 178.054188 34.259512 
L 179.231311 37.841905 
L 180.408433 38.43745 
L 181.585556 55.81185 
L 182.762678 93.933982 
L 183.939801 126.714649 
L 185.116923 164.719876 
L 186.294046 196.902116 
L 187.471168 225.021326 
L 188.648291 225.38958 
L 189.825413 227.398565 
L 191.002536 197.600608 
L 192.179658 163.451521 
L 194.533903 87.6294 
L 195.711026 63.651614 
L 196.888148 31.301874 
L 198.065271 42.673141 
L 199.242393 32.320444 
L 202.773761 133.171165 
L 203.950883 171.908849 
L 205.128006 194.029549 
L 206.305128 225.526285 
L 207.482251 219.198062 
L 208.659373 217.11013 
L 209.836496 195.399537 
L 212.190741 133.351922 
L 213.367863 164.199636 
L 214.544986 203.543625 
L 215.722108 213.761764 
L 216.89923 228.968848 
L 218.076353 218.669981 
L 219.253475 195.51345 
L 221.60772 129.077789 
L 222.784843 170.884681 
L 223.961965 197.045248 
L 225.139088 226.746911 
L 226.31621 230.634716 
L 227.493333 221.18958 
L 228.670455 201.022743 
L 229.847578 176.498831 
L 231.0247 128.934122 
L 233.378945 197.91071 
L 234.556068 224.473663 
L 235.73319 232.922954 
L 236.910313 225.967054 
L 238.087435 195.783095 
L 239.264558 168.785391 
L 240.44168 125.786244 
L 241.618803 166.684285 
L 242.795925 199.874667 
L 243.973048 217.853706 
L 245.15017 232.098735 
L 246.327293 231.846508 
L 247.504415 205.986478 
L 249.85866 128.820134 
L 252.212905 59.931699 
L 254.56715 26.472416 
L 255.744273 38.421172 
L 256.921395 61.279723 
L 259.27564 124.939774 
L 260.452763 166.714033 
L 261.629885 202.92824 
L 262.807008 222.932642 
L 263.98413 232.218176 
L 265.161253 225.323028 
L 266.338375 197.607152 
L 268.69262 129.605565 
L 269.869743 88.562026 
L 271.046865 55.567679 
L 272.223988 35.783716 
L 273.40111 37.586186 
L 274.578233 41.182169 
L 275.755355 59.333532 
L 276.932478 85.394857 
L 278.1096 129.814512 
L 280.463845 60.265793 
L 281.640968 33.117356 
L 282.81809 29.570457 
L 283.995213 39.520727 
L 285.172335 66.288697 
L 287.52658 129.456223 
L 289.880825 201.567704 
L 291.057948 228.298084 
L 292.23507 233.776011 
L 293.412193 217.429583 
L 294.589315 211.048869 
L 295.766438 171.300604 
L 296.94356 135.565137 
L 300.474928 228.27947 
L 301.65205 226.77511 
L 302.829173 219.548099 
L 304.006295 195.205371 
L 306.36054 136.282633 
L 307.537663 93.945574 
L 308.714785 68.11364 
L 309.891908 34.797748 
L 311.06903 40.43469 
L 312.246152 38.891164 
L 313.423275 57.343457 
L 315.77752 125.029812 
L 318.131765 61.409281 
L 319.308887 39.138791 
L 320.48601 28.069468 
L 322.840255 60.169628 
L 326.371622 171.542652 
L 327.548745 204.621392 
L 328.725867 223.415372 
L 329.90299 232.233073 
L 331.080112 220.649502 
L 332.257235 199.566446 
L 333.434357 168.322377 
L 334.61148 133.947096 
L 335.788602 167.665508 
L 336.965725 216.313121 
L 338.142847 215.494072 
L 339.31997 227.579978 
L 340.497092 228.158283 
L 342.851337 170.249638 
L 344.02846 122.87413 
L 345.205582 171.340798 
L 346.382705 197.158764 
L 347.559827 215.320071 
L 348.73695 229.712198 
L 349.914072 217.638807 
L 351.091195 200.308264 
L 352.268317 170.491564 
L 353.44544 124.631572 
L 355.799685 64.695292 
L 356.976807 32.669787 
L 358.15393 18.25554 
L 359.331052 41.737067 
L 360.508175 54.485913 
L 361.685297 83.255184 
L 364.039542 176.115122 
L 365.216665 200.793647 
L 366.393787 222.8443 
L 367.57091 224.700508 
L 368.748032 213.302285 
L 369.925155 196.729651 
L 371.102277 168.887295 
L 372.2794 131.312663 
L 373.456522 159.50533 
L 374.633645 197.868114 
L 375.810767 222.372772 
L 376.98789 228.431257 
L 378.165012 217.697533 
L 379.342135 201.896198 
L 380.519257 160.412692 
L 381.69638 128.826447 
L 382.873502 168.031198 
L 384.050625 199.222879 
L 385.227747 226.937287 
L 386.40487 230.76772 
L 387.581992 221.807235 
L 388.759115 204.194345 
L 389.936237 173.854311 
L 391.11336 131.349466 
L 392.290482 93.717031 
L 393.467605 63.143871 
L 394.644727 42.098401 
L 395.82185 33.989 
L 396.998972 36.008102 
L 398.176095 57.866896 
L 400.53034 129.357174 
L 402.884585 49.136048 
L 404.061707 33.607681 
L 405.238829 30.567542 
L 406.415952 37.273407 
L 407.593074 61.955984 
L 408.770197 101.989683 
L 409.947319 128.414169 
L 412.301564 205.236015 
L 413.478687 216.273099 
L 414.655809 232.643936 
L 415.832932 220.888767 
L 417.010054 199.423028 
L 418.187177 170.624441 
L 419.364299 127.753173 
L 420.541422 90.736131 
L 422.895667 34.963085 
L 424.072789 30.432207 
L 425.249912 38.345389 
L 427.604157 91.944492 
L 428.781279 123.398962 
L 431.135524 63.218519 
L 432.312647 44.96556 
L 433.489769 35.194414 
L 434.666892 39.32537 
L 435.844014 50.973276 
L 438.198259 127.860081 
L 439.375382 170.84175 
L 440.552504 202.997542 
L 441.729627 217.058219 
L 442.906749 224.203281 
L 444.083872 221.712733 
L 445.260994 205.819828 
L 446.438117 162.025264 
L 447.615239 132.609905 
L 449.969484 200.557933 
L 451.146607 222.622105 
L 452.323729 231.441701 
L 453.500852 225.579103 
L 454.677974 201.627419 
L 455.855097 163.576299 
L 457.032219 135.53334 
L 458.209342 93.87871 
L 460.563587 43.597533 
L 461.740709 27.527658 
L 462.917832 32.880903 
L 464.094954 54.272386 
L 466.449199 128.07777 
L 468.803444 53.431821 
L 469.980567 44.091485 
L 471.157689 26.802604 
L 472.334812 41.549719 
L 473.511934 60.050934 
L 474.689057 86.144822 
L 475.866179 121.944876 
L 477.043302 168.43976 
L 478.220424 204.914397 
L 479.397547 224.042219 
L 480.574669 224.747734 
L 481.751792 228.124123 
L 482.928914 202.257828 
L 484.106037 161.630466 
L 485.283159 128.182177 
L 486.460282 175.279101 
L 487.637404 195.763314 
L 488.814527 219.419063 
L 489.991649 239.366335 
L 491.168772 224.850819 
L 492.345894 198.715979 
L 493.523017 165.653194 
L 494.700139 141.065062 
L 495.877262 160.343975 
L 497.054384 199.603022 
L 498.231507 212.053845 
L 499.408629 229.937884 
L 500.585751 224.585025 
L 501.762874 206.51633 
L 502.939996 168.177208 
L 504.117119 124.351904 
L 505.294241 170.249988 
L 506.471364 197.765088 
L 507.648486 219.557429 
L 508.825609 220.34108 
L 510.002731 226.544593 
L 511.179854 208.340652 
L 512.356976 163.468658 
L 513.534099 123.870719 
L 514.711221 94.387102 
L 515.888344 51.849949 
L 517.065466 45.664888 
L 518.242589 30.652829 
L 519.419711 39.223581 
L 520.596834 57.0134 
L 521.773956 97.910874 
L 522.951079 130.08984 
L 525.305324 201.09386 
L 526.482446 222.314921 
L 527.659569 238.496216 
L 528.836691 215.997667 
L 530.013814 202.573296 
L 531.190936 170.612017 
L 533.545181 94.263966 
L 534.722304 57.340437 
L 535.899426 32.532631 
L 537.076549 25.470253 
L 538.253671 37.486809 
L 539.430794 52.133315 
L 540.607916 92.066062 
L 541.785039 136.47397 
L 542.962161 166.163198 
L 544.139284 200.877028 
L 545.316406 222.567819 
L 545.316406 222.567819 
" clip-path="url(#p1a343004c8)" style="fill: none; stroke: #ff7f0e; stroke-linecap: square"/>
   </g>
   <g id="patch_3">
    <path d="M 52.160938 250.421875 
L 52.160938 7.2 
" style="fill: none; stroke: #000000; stroke-width: 0.8; stroke-linejoin: miter; stroke-linecap: square"/>
   </g>
   <g id="patch_4">
    <path d="M 568.8 250.421875 
L 568.8 7.2 
" style="fill: none; stroke: #000000; stroke-width: 0.8; stroke-linejoin: miter; stroke-linecap: square"/>
   </g>
   <g id="patch_5">
    <path d="M 52.160937 250.421875 
L 568.8 250.421875 
" style="fill: none; stroke: #000000; stroke-width: 0.8; stroke-linejoin: miter; stroke-linecap: square"/>
   </g>
   <g id="patch_6">
    <path d="M 52.160937 7.2 
L 568.8 7.2 
" style="fill: none; stroke: #000000; stroke-width: 0.8; stroke-linejoin: miter; stroke-linecap: square"/>
   </g>
   <g id="legend_1">
    <g id="patch_7">
     <path d="M 59.160938 44.55625 
L 116.15625 44.55625 
Q 118.15625 44.55625 118.15625 42.55625 
L 118.15625 14.2 
Q 118.15625 12.2 116.15625 12.2 
L 59.160938 12.2 
Q 57.160938 12.2 57.160938 14.2 
L 57.160938 42.55625 
Q 57.160938 44.55625 59.160938 44.55625 
z
" style="fill: #ffffff; opacity: 0.8; stroke: #cccccc; stroke-linejoin: miter"/>
    </g>
    <g id="line2d_39">
     <path d="M 61.160938 20.298437 
L 71.160938 20.298437 
L 81.160938 20.298437 
" style="fill: none; stroke: #1f77b4; stroke-linecap: square"/>
    </g>
    <g id="text_21">
     <!-- real -->
     <g transform="translate(89.160938 23.798437) scale(0.1 -0.1)">
      <defs>
       <path id="DejaVuSans-72" d="M 2631 2963 
Q 2534 3019 2420 3045 
Q 2306 3072 2169 3072 
Q 1681 3072 1420 2755 
Q 1159 2438 1159 1844 
L 1159 0 
L 581 0 
L 581 3500 
L 1159 3500 
L 1159 2956 
Q 1341 3275 1631 3429 
Q 1922 3584 2338 3584 
Q 2397 3584 2469 3576 
Q 2541 3569 2628 3553 
L 2631 2963 
z
" transform="scale(0.015625)"/>
      </defs>
      <use xlink:href="#DejaVuSans-72"/>
      <use xlink:href="#DejaVuSans-65" transform="translate(38.863281 0)"/>
      <use xlink:href="#DejaVuSans-61" transform="translate(100.386719 0)"/>
      <use xlink:href="#DejaVuSans-6c" transform="translate(161.666016 0)"/>
     </g>
    </g>
    <g id="line2d_40">
     <path d="M 61.160938 34.976562 
L 71.160938 34.976562 
L 81.160938 34.976562 
" style="fill: none; stroke: #ff7f0e; stroke-linecap: square"/>
    </g>
    <g id="text_22">
     <!-- imag -->
     <g transform="translate(89.160938 38.476562) scale(0.1 -0.1)">
      <defs>
       <path id="DejaVuSans-67" d="M 2906 1791 
Q 2906 2416 2648 2759 
Q 2391 3103 1925 3103 
Q 1463 3103 1205 2759 
Q 947 2416 947 1791 
Q 947 1169 1205 825 
Q 1463 481 1925 481 
Q 2391 481 2648 825 
Q 2906 1169 2906 1791 
z
M 3481 434 
Q 3481 -459 3084 -895 
Q 2688 -1331 1869 -1331 
Q 1566 -1331 1297 -1286 
Q 1028 -1241 775 -1147 
L 775 -588 
Q 1028 -725 1275 -790 
Q 1522 -856 1778 -856 
Q 2344 -856 2625 -561 
Q 2906 -266 2906 331 
L 2906 616 
Q 2728 306 2450 153 
Q 2172 0 1784 0 
Q 1141 0 747 490 
Q 353 981 353 1791 
Q 353 2603 747 3093 
Q 1141 3584 1784 3584 
Q 2172 3584 2450 3431 
Q 2728 3278 2906 2969 
L 2906 3500 
L 3481 3500 
L 3481 434 
z
" transform="scale(0.015625)"/>
      </defs>
      <use xlink:href="#DejaVuSans-69"/>
      <use xlink:href="#DejaVuSans-6d" transform="translate(27.783203 0)"/>
      <use xlink:href="#DejaVuSans-61" transform="translate(125.195312 0)"/>
      <use xlink:href="#DejaVuSans-67" transform="translate(186.474609 0)"/>
     </g>
    </g>
   </g>
  </g>
 </g>
 <defs>
  <clipPath id="p1a343004c8">
   <rect x="52.160938" y="7.2" width="516.639063" height="243.221875"/>
  </clipPath>
 </defs>
</svg>
