<?xml version="1.0" encoding="utf-8" standalone="no"?>
<!DOCTYPE svg PUBLIC "-//W3C//DTD SVG 1.1//EN"
  "http://www.w3.org/Graphics/SVG/1.1/DTD/svg11.dtd">
<svg xmlns:xlink="http://www.w3.org/1999/xlink" width="576pt" height="288pt" viewBox="0 0 576 288" xmlns="http://www.w3.org/2000/svg" version="1.1">
 <metadata>
  <rdf:RDF xmlns:dc="http://purl.org/dc/elements/1.1/" xmlns:cc="http://creativecommons.org/ns#" xmlns:rdf="http://www.w3.org/1999/02/22-rdf-syntax-ns#">
   <cc:Work>
    <dc:type rdf:resource="http://purl.org/dc/dcmitype/StillImage"/>
    <dc:date>2025-05-10T16:33:00.243262</dc:date>
    <dc:format>image/svg+xml</dc:format>
    <dc:creator>
     <cc:Agent>
      <dc:title>Matplotlib v3.10.3, https://matplotlib.org/</dc:title>
     </cc:Agent>
    </dc:creator>
   </cc:Work>
  </rdf:RDF>
 </metadata>
 <defs>
  <style type="text/css">*{stroke-linejoin: round; stroke-linecap: butt}</style>
 </defs>
 <g id="figure_1">
  <g id="patch_1">
   <path d="M 0 288 
L 576 288 
L 576 0 
L 0 0 
z
" style="fill: #ffffff"/>
  </g>
  <g id="axes_1">
   <g id="patch_2">
    <path d="M 43.78125 250.44375 
L 568.8 250.44375 
L 568.8 22.318125 
L 43.78125 22.318125 
z
" style="fill: #ffffff"/>
   </g>
   <g id="matplotlib.axis_1">
    <g id="xtick_1">
     <g id="line2d_1">
      <path d="M 67.645739 250.44375 
L 67.645739 22.318125 
" clip-path="url(#p3cc8f9fa4c)" style="fill: none; stroke-dasharray: 2.96,1.28; stroke-dashoffset: 0; stroke: #b0b0b0; stroke-opacity: 0.8; stroke-width: 0.8"/>
     </g>
     <g id="line2d_2">
      <defs>
       <path id="m078cd379a7" d="M 0 0 
L 0 3.5 
" style="stroke: #000000; stroke-width: 0.8"/>
      </defs>
      <g>
       <use xlink:href="#m078cd379a7" x="67.645739" y="250.44375" style="stroke: #000000; stroke-width: 0.8"/>
      </g>
     </g>
     <g id="text_1">
      <!-- 0 -->
      <g transform="translate(64.464489 265.042188) scale(0.1 -0.1)">
       <defs>
        <path id="DejaVuSans-30" d="M 2034 4250 
Q 1547 4250 1301 3770 
Q 1056 3291 1056 2328 
Q 1056 1369 1301 889 
Q 1547 409 2034 409 
Q 2525 409 2770 889 
Q 3016 1369 3016 2328 
Q 3016 3291 2770 3770 
Q 2525 4250 2034 4250 
z
M 2034 4750 
Q 2819 4750 3233 4129 
Q 3647 3509 3647 2328 
Q 3647 1150 3233 529 
Q 2819 -91 2034 -91 
Q 1250 -91 836 529 
Q 422 1150 422 2328 
Q 422 3509 836 4129 
Q 1250 4750 2034 4750 
z
" transform="scale(0.015625)"/>
       </defs>
       <use xlink:href="#DejaVuSans-30"/>
      </g>
     </g>
    </g>
    <g id="xtick_2">
     <g id="line2d_3">
      <path d="M 147.194034 250.44375 
L 147.194034 22.318125 
" clip-path="url(#p3cc8f9fa4c)" style="fill: none; stroke-dasharray: 2.96,1.28; stroke-dashoffset: 0; stroke: #b0b0b0; stroke-opacity: 0.8; stroke-width: 0.8"/>
     </g>
     <g id="line2d_4">
      <g>
       <use xlink:href="#m078cd379a7" x="147.194034" y="250.44375" style="stroke: #000000; stroke-width: 0.8"/>
      </g>
     </g>
     <g id="text_2">
      <!-- 1 -->
      <g transform="translate(144.012784 265.042188) scale(0.1 -0.1)">
       <defs>
        <path id="DejaVuSans-31" d="M 794 531 
L 1825 531 
L 1825 4091 
L 703 3866 
L 703 4441 
L 1819 4666 
L 2450 4666 
L 2450 531 
L 3481 531 
L 3481 0 
L 794 0 
L 794 531 
z
" transform="scale(0.015625)"/>
       </defs>
       <use xlink:href="#DejaVuSans-31"/>
      </g>
     </g>
    </g>
    <g id="xtick_3">
     <g id="line2d_5">
      <path d="M 226.74233 250.44375 
L 226.74233 22.318125 
" clip-path="url(#p3cc8f9fa4c)" style="fill: none; stroke-dasharray: 2.96,1.28; stroke-dashoffset: 0; stroke: #b0b0b0; stroke-opacity: 0.8; stroke-width: 0.8"/>
     </g>
     <g id="line2d_6">
      <g>
       <use xlink:href="#m078cd379a7" x="226.74233" y="250.44375" style="stroke: #000000; stroke-width: 0.8"/>
      </g>
     </g>
     <g id="text_3">
      <!-- 2 -->
      <g transform="translate(223.56108 265.042188) scale(0.1 -0.1)">
       <defs>
        <path id="DejaVuSans-32" d="M 1228 531 
L 3431 531 
L 3431 0 
L 469 0 
L 469 531 
Q 828 903 1448 1529 
Q 2069 2156 2228 2338 
Q 2531 2678 2651 2914 
Q 2772 3150 2772 3378 
Q 2772 3750 2511 3984 
Q 2250 4219 1831 4219 
Q 1534 4219 1204 4116 
Q 875 4013 500 3803 
L 500 4441 
Q 881 4594 1212 4672 
Q 1544 4750 1819 4750 
Q 2544 4750 2975 4387 
Q 3406 4025 3406 3419 
Q 3406 3131 3298 2873 
Q 3191 2616 2906 2266 
Q 2828 2175 2409 1742 
Q 1991 1309 1228 531 
z
" transform="scale(0.015625)"/>
       </defs>
       <use xlink:href="#DejaVuSans-32"/>
      </g>
     </g>
    </g>
    <g id="xtick_4">
     <g id="line2d_7">
      <path d="M 306.290625 250.44375 
L 306.290625 22.318125 
" clip-path="url(#p3cc8f9fa4c)" style="fill: none; stroke-dasharray: 2.96,1.28; stroke-dashoffset: 0; stroke: #b0b0b0; stroke-opacity: 0.8; stroke-width: 0.8"/>
     </g>
     <g id="line2d_8">
      <g>
       <use xlink:href="#m078cd379a7" x="306.290625" y="250.44375" style="stroke: #000000; stroke-width: 0.8"/>
      </g>
     </g>
     <g id="text_4">
      <!-- 3 -->
      <g transform="translate(303.109375 265.042188) scale(0.1 -0.1)">
       <defs>
        <path id="DejaVuSans-33" d="M 2597 2516 
Q 3050 2419 3304 2112 
Q 3559 1806 3559 1356 
Q 3559 666 3084 287 
Q 2609 -91 1734 -91 
Q 1441 -91 1130 -33 
Q 819 25 488 141 
L 488 750 
Q 750 597 1062 519 
Q 1375 441 1716 441 
Q 2309 441 2620 675 
Q 2931 909 2931 1356 
Q 2931 1769 2642 2001 
Q 2353 2234 1838 2234 
L 1294 2234 
L 1294 2753 
L 1863 2753 
Q 2328 2753 2575 2939 
Q 2822 3125 2822 3475 
Q 2822 3834 2567 4026 
Q 2313 4219 1838 4219 
Q 1578 4219 1281 4162 
Q 984 4106 628 3988 
L 628 4550 
Q 988 4650 1302 4700 
Q 1616 4750 1894 4750 
Q 2613 4750 3031 4423 
Q 3450 4097 3450 3541 
Q 3450 3153 3228 2886 
Q 3006 2619 2597 2516 
z
" transform="scale(0.015625)"/>
       </defs>
       <use xlink:href="#DejaVuSans-33"/>
      </g>
     </g>
    </g>
    <g id="xtick_5">
     <g id="line2d_9">
      <path d="M 385.83892 250.44375 
L 385.83892 22.318125 
" clip-path="url(#p3cc8f9fa4c)" style="fill: none; stroke-dasharray: 2.96,1.28; stroke-dashoffset: 0; stroke: #b0b0b0; stroke-opacity: 0.8; stroke-width: 0.8"/>
     </g>
     <g id="line2d_10">
      <g>
       <use xlink:href="#m078cd379a7" x="385.83892" y="250.44375" style="stroke: #000000; stroke-width: 0.8"/>
      </g>
     </g>
     <g id="text_5">
      <!-- 4 -->
      <g transform="translate(382.65767 265.042188) scale(0.1 -0.1)">
       <defs>
        <path id="DejaVuSans-34" d="M 2419 4116 
L 825 1625 
L 2419 1625 
L 2419 4116 
z
M 2253 4666 
L 3047 4666 
L 3047 1625 
L 3713 1625 
L 3713 1100 
L 3047 1100 
L 3047 0 
L 2419 0 
L 2419 1100 
L 313 1100 
L 313 1709 
L 2253 4666 
z
" transform="scale(0.015625)"/>
       </defs>
       <use xlink:href="#DejaVuSans-34"/>
      </g>
     </g>
    </g>
    <g id="xtick_6">
     <g id="line2d_11">
      <path d="M 465.387216 250.44375 
L 465.387216 22.318125 
" clip-path="url(#p3cc8f9fa4c)" style="fill: none; stroke-dasharray: 2.96,1.28; stroke-dashoffset: 0; stroke: #b0b0b0; stroke-opacity: 0.8; stroke-width: 0.8"/>
     </g>
     <g id="line2d_12">
      <g>
       <use xlink:href="#m078cd379a7" x="465.387216" y="250.44375" style="stroke: #000000; stroke-width: 0.8"/>
      </g>
     </g>
     <g id="text_6">
      <!-- 5 -->
      <g transform="translate(462.205966 265.042188) scale(0.1 -0.1)">
       <defs>
        <path id="DejaVuSans-35" d="M 691 4666 
L 3169 4666 
L 3169 4134 
L 1269 4134 
L 1269 2991 
Q 1406 3038 1543 3061 
Q 1681 3084 1819 3084 
Q 2600 3084 3056 2656 
Q 3513 2228 3513 1497 
Q 3513 744 3044 326 
Q 2575 -91 1722 -91 
Q 1428 -91 1123 -41 
Q 819 9 494 109 
L 494 744 
Q 775 591 1075 516 
Q 1375 441 1709 441 
Q 2250 441 2565 725 
Q 2881 1009 2881 1497 
Q 2881 1984 2565 2268 
Q 2250 2553 1709 2553 
Q 1456 2553 1204 2497 
Q 953 2441 691 2322 
L 691 4666 
z
" transform="scale(0.015625)"/>
       </defs>
       <use xlink:href="#DejaVuSans-35"/>
      </g>
     </g>
    </g>
    <g id="xtick_7">
     <g id="line2d_13">
      <path d="M 544.935511 250.44375 
L 544.935511 22.318125 
" clip-path="url(#p3cc8f9fa4c)" style="fill: none; stroke-dasharray: 2.96,1.28; stroke-dashoffset: 0; stroke: #b0b0b0; stroke-opacity: 0.8; stroke-width: 0.8"/>
     </g>
     <g id="line2d_14">
      <g>
       <use xlink:href="#m078cd379a7" x="544.935511" y="250.44375" style="stroke: #000000; stroke-width: 0.8"/>
      </g>
     </g>
     <g id="text_7">
      <!-- 6 -->
      <g transform="translate(541.754261 265.042188) scale(0.1 -0.1)">
       <defs>
        <path id="DejaVuSans-36" d="M 2113 2584 
Q 1688 2584 1439 2293 
Q 1191 2003 1191 1497 
Q 1191 994 1439 701 
Q 1688 409 2113 409 
Q 2538 409 2786 701 
Q 3034 994 3034 1497 
Q 3034 2003 2786 2293 
Q 2538 2584 2113 2584 
z
M 3366 4563 
L 3366 3988 
Q 3128 4100 2886 4159 
Q 2644 4219 2406 4219 
Q 1781 4219 1451 3797 
Q 1122 3375 1075 2522 
Q 1259 2794 1537 2939 
Q 1816 3084 2150 3084 
Q 2853 3084 3261 2657 
Q 3669 2231 3669 1497 
Q 3669 778 3244 343 
Q 2819 -91 2113 -91 
Q 1303 -91 875 529 
Q 447 1150 447 2328 
Q 447 3434 972 4092 
Q 1497 4750 2381 4750 
Q 2619 4750 2861 4703 
Q 3103 4656 3366 4563 
z
" transform="scale(0.015625)"/>
       </defs>
       <use xlink:href="#DejaVuSans-36"/>
      </g>
     </g>
    </g>
    <g id="text_8">
     <!-- Random variable -->
     <g transform="translate(263.83125 278.720312) scale(0.1 -0.1)">
      <defs>
       <path id="DejaVuSans-52" d="M 2841 2188 
Q 3044 2119 3236 1894 
Q 3428 1669 3622 1275 
L 4263 0 
L 3584 0 
L 2988 1197 
Q 2756 1666 2539 1819 
Q 2322 1972 1947 1972 
L 1259 1972 
L 1259 0 
L 628 0 
L 628 4666 
L 2053 4666 
Q 2853 4666 3247 4331 
Q 3641 3997 3641 3322 
Q 3641 2881 3436 2590 
Q 3231 2300 2841 2188 
z
M 1259 4147 
L 1259 2491 
L 2053 2491 
Q 2509 2491 2742 2702 
Q 2975 2913 2975 3322 
Q 2975 3731 2742 3939 
Q 2509 4147 2053 4147 
L 1259 4147 
z
" transform="scale(0.015625)"/>
       <path id="DejaVuSans-61" d="M 2194 1759 
Q 1497 1759 1228 1600 
Q 959 1441 959 1056 
Q 959 750 1161 570 
Q 1363 391 1709 391 
Q 2188 391 2477 730 
Q 2766 1069 2766 1631 
L 2766 1759 
L 2194 1759 
z
M 3341 1997 
L 3341 0 
L 2766 0 
L 2766 531 
Q 2569 213 2275 61 
Q 1981 -91 1556 -91 
Q 1019 -91 701 211 
Q 384 513 384 1019 
Q 384 1609 779 1909 
Q 1175 2209 1959 2209 
L 2766 2209 
L 2766 2266 
Q 2766 2663 2505 2880 
Q 2244 3097 1772 3097 
Q 1472 3097 1187 3025 
Q 903 2953 641 2809 
L 641 3341 
Q 956 3463 1253 3523 
Q 1550 3584 1831 3584 
Q 2591 3584 2966 3190 
Q 3341 2797 3341 1997 
z
" transform="scale(0.015625)"/>
       <path id="DejaVuSans-6e" d="M 3513 2113 
L 3513 0 
L 2938 0 
L 2938 2094 
Q 2938 2591 2744 2837 
Q 2550 3084 2163 3084 
Q 1697 3084 1428 2787 
Q 1159 2491 1159 1978 
L 1159 0 
L 581 0 
L 581 3500 
L 1159 3500 
L 1159 2956 
Q 1366 3272 1645 3428 
Q 1925 3584 2291 3584 
Q 2894 3584 3203 3211 
Q 3513 2838 3513 2113 
z
" transform="scale(0.015625)"/>
       <path id="DejaVuSans-64" d="M 2906 2969 
L 2906 4863 
L 3481 4863 
L 3481 0 
L 2906 0 
L 2906 525 
Q 2725 213 2448 61 
Q 2172 -91 1784 -91 
Q 1150 -91 751 415 
Q 353 922 353 1747 
Q 353 2572 751 3078 
Q 1150 3584 1784 3584 
Q 2172 3584 2448 3432 
Q 2725 3281 2906 2969 
z
M 947 1747 
Q 947 1113 1208 752 
Q 1469 391 1925 391 
Q 2381 391 2643 752 
Q 2906 1113 2906 1747 
Q 2906 2381 2643 2742 
Q 2381 3103 1925 3103 
Q 1469 3103 1208 2742 
Q 947 2381 947 1747 
z
" transform="scale(0.015625)"/>
       <path id="DejaVuSans-6f" d="M 1959 3097 
Q 1497 3097 1228 2736 
Q 959 2375 959 1747 
Q 959 1119 1226 758 
Q 1494 397 1959 397 
Q 2419 397 2687 759 
Q 2956 1122 2956 1747 
Q 2956 2369 2687 2733 
Q 2419 3097 1959 3097 
z
M 1959 3584 
Q 2709 3584 3137 3096 
Q 3566 2609 3566 1747 
Q 3566 888 3137 398 
Q 2709 -91 1959 -91 
Q 1206 -91 779 398 
Q 353 888 353 1747 
Q 353 2609 779 3096 
Q 1206 3584 1959 3584 
z
" transform="scale(0.015625)"/>
       <path id="DejaVuSans-6d" d="M 3328 2828 
Q 3544 3216 3844 3400 
Q 4144 3584 4550 3584 
Q 5097 3584 5394 3201 
Q 5691 2819 5691 2113 
L 5691 0 
L 5113 0 
L 5113 2094 
Q 5113 2597 4934 2840 
Q 4756 3084 4391 3084 
Q 3944 3084 3684 2787 
Q 3425 2491 3425 1978 
L 3425 0 
L 2847 0 
L 2847 2094 
Q 2847 2600 2669 2842 
Q 2491 3084 2119 3084 
Q 1678 3084 1418 2786 
Q 1159 2488 1159 1978 
L 1159 0 
L 581 0 
L 581 3500 
L 1159 3500 
L 1159 2956 
Q 1356 3278 1631 3431 
Q 1906 3584 2284 3584 
Q 2666 3584 2933 3390 
Q 3200 3197 3328 2828 
z
" transform="scale(0.015625)"/>
       <path id="DejaVuSans-20" transform="scale(0.015625)"/>
       <path id="DejaVuSans-76" d="M 191 3500 
L 800 3500 
L 1894 563 
L 2988 3500 
L 3597 3500 
L 2284 0 
L 1503 0 
L 191 3500 
z
" transform="scale(0.015625)"/>
       <path id="DejaVuSans-72" d="M 2631 2963 
Q 2534 3019 2420 3045 
Q 2306 3072 2169 3072 
Q 1681 3072 1420 2755 
Q 1159 2438 1159 1844 
L 1159 0 
L 581 0 
L 581 3500 
L 1159 3500 
L 1159 2956 
Q 1341 3275 1631 3429 
Q 1922 3584 2338 3584 
Q 2397 3584 2469 3576 
Q 2541 3569 2628 3553 
L 2631 2963 
z
" transform="scale(0.015625)"/>
       <path id="DejaVuSans-69" d="M 603 3500 
L 1178 3500 
L 1178 0 
L 603 0 
L 603 3500 
z
M 603 4863 
L 1178 4863 
L 1178 4134 
L 603 4134 
L 603 4863 
z
" transform="scale(0.015625)"/>
       <path id="DejaVuSans-62" d="M 3116 1747 
Q 3116 2381 2855 2742 
Q 2594 3103 2138 3103 
Q 1681 3103 1420 2742 
Q 1159 2381 1159 1747 
Q 1159 1113 1420 752 
Q 1681 391 2138 391 
Q 2594 391 2855 752 
Q 3116 1113 3116 1747 
z
M 1159 2969 
Q 1341 3281 1617 3432 
Q 1894 3584 2278 3584 
Q 2916 3584 3314 3078 
Q 3713 2572 3713 1747 
Q 3713 922 3314 415 
Q 2916 -91 2278 -91 
Q 1894 -91 1617 61 
Q 1341 213 1159 525 
L 1159 0 
L 581 0 
L 581 4863 
L 1159 4863 
L 1159 2969 
z
" transform="scale(0.015625)"/>
       <path id="DejaVuSans-6c" d="M 603 4863 
L 1178 4863 
L 1178 0 
L 603 0 
L 603 4863 
z
" transform="scale(0.015625)"/>
       <path id="DejaVuSans-65" d="M 3597 1894 
L 3597 1613 
L 953 1613 
Q 991 1019 1311 708 
Q 1631 397 2203 397 
Q 2534 397 2845 478 
Q 3156 559 3463 722 
L 3463 178 
Q 3153 47 2828 -22 
Q 2503 -91 2169 -91 
Q 1331 -91 842 396 
Q 353 884 353 1716 
Q 353 2575 817 3079 
Q 1281 3584 2069 3584 
Q 2775 3584 3186 3129 
Q 3597 2675 3597 1894 
z
M 3022 2063 
Q 3016 2534 2758 2815 
Q 2500 3097 2075 3097 
Q 1594 3097 1305 2825 
Q 1016 2553 972 2059 
L 3022 2063 
z
" transform="scale(0.015625)"/>
      </defs>
      <use xlink:href="#DejaVuSans-52"/>
      <use xlink:href="#DejaVuSans-61" transform="translate(67.232422 0)"/>
      <use xlink:href="#DejaVuSans-6e" transform="translate(128.511719 0)"/>
      <use xlink:href="#DejaVuSans-64" transform="translate(191.890625 0)"/>
      <use xlink:href="#DejaVuSans-6f" transform="translate(255.367188 0)"/>
      <use xlink:href="#DejaVuSans-6d" transform="translate(316.548828 0)"/>
      <use xlink:href="#DejaVuSans-20" transform="translate(413.960938 0)"/>
      <use xlink:href="#DejaVuSans-76" transform="translate(445.748047 0)"/>
      <use xlink:href="#DejaVuSans-61" transform="translate(504.927734 0)"/>
      <use xlink:href="#DejaVuSans-72" transform="translate(566.207031 0)"/>
      <use xlink:href="#DejaVuSans-69" transform="translate(607.320312 0)"/>
      <use xlink:href="#DejaVuSans-61" transform="translate(635.103516 0)"/>
      <use xlink:href="#DejaVuSans-62" transform="translate(696.382812 0)"/>
      <use xlink:href="#DejaVuSans-6c" transform="translate(759.859375 0)"/>
      <use xlink:href="#DejaVuSans-65" transform="translate(787.642578 0)"/>
     </g>
    </g>
   </g>
   <g id="matplotlib.axis_2">
    <g id="ytick_1">
     <g id="line2d_15">
      <path d="M 43.78125 250.44375 
L 568.8 250.44375 
" clip-path="url(#p3cc8f9fa4c)" style="fill: none; stroke-dasharray: 2.96,1.28; stroke-dashoffset: 0; stroke: #b0b0b0; stroke-opacity: 0.8; stroke-width: 0.8"/>
     </g>
     <g id="line2d_16">
      <defs>
       <path id="md6b2ca96c7" d="M 0 0 
L -3.5 0 
" style="stroke: #000000; stroke-width: 0.8"/>
      </defs>
      <g>
       <use xlink:href="#md6b2ca96c7" x="43.78125" y="250.44375" style="stroke: #000000; stroke-width: 0.8"/>
      </g>
     </g>
     <g id="text_9">
      <!-- 0.0 -->
      <g transform="translate(20.878125 254.242969) scale(0.1 -0.1)">
       <defs>
        <path id="DejaVuSans-2e" d="M 684 794 
L 1344 794 
L 1344 0 
L 684 0 
L 684 794 
z
" transform="scale(0.015625)"/>
       </defs>
       <use xlink:href="#DejaVuSans-30"/>
       <use xlink:href="#DejaVuSans-2e" transform="translate(63.623047 0)"/>
       <use xlink:href="#DejaVuSans-30" transform="translate(95.410156 0)"/>
      </g>
     </g>
    </g>
    <g id="ytick_2">
     <g id="line2d_17">
      <path d="M 43.78125 200.08494 
L 568.8 200.08494 
" clip-path="url(#p3cc8f9fa4c)" style="fill: none; stroke-dasharray: 2.96,1.28; stroke-dashoffset: 0; stroke: #b0b0b0; stroke-opacity: 0.8; stroke-width: 0.8"/>
     </g>
     <g id="line2d_18">
      <g>
       <use xlink:href="#md6b2ca96c7" x="43.78125" y="200.08494" style="stroke: #000000; stroke-width: 0.8"/>
      </g>
     </g>
     <g id="text_10">
      <!-- 0.2 -->
      <g transform="translate(20.878125 203.884159) scale(0.1 -0.1)">
       <use xlink:href="#DejaVuSans-30"/>
       <use xlink:href="#DejaVuSans-2e" transform="translate(63.623047 0)"/>
       <use xlink:href="#DejaVuSans-32" transform="translate(95.410156 0)"/>
      </g>
     </g>
    </g>
    <g id="ytick_3">
     <g id="line2d_19">
      <path d="M 43.78125 149.72613 
L 568.8 149.72613 
" clip-path="url(#p3cc8f9fa4c)" style="fill: none; stroke-dasharray: 2.96,1.28; stroke-dashoffset: 0; stroke: #b0b0b0; stroke-opacity: 0.8; stroke-width: 0.8"/>
     </g>
     <g id="line2d_20">
      <g>
       <use xlink:href="#md6b2ca96c7" x="43.78125" y="149.72613" style="stroke: #000000; stroke-width: 0.8"/>
      </g>
     </g>
     <g id="text_11">
      <!-- 0.4 -->
      <g transform="translate(20.878125 153.525349) scale(0.1 -0.1)">
       <use xlink:href="#DejaVuSans-30"/>
       <use xlink:href="#DejaVuSans-2e" transform="translate(63.623047 0)"/>
       <use xlink:href="#DejaVuSans-34" transform="translate(95.410156 0)"/>
      </g>
     </g>
    </g>
    <g id="ytick_4">
     <g id="line2d_21">
      <path d="M 43.78125 99.36732 
L 568.8 99.36732 
" clip-path="url(#p3cc8f9fa4c)" style="fill: none; stroke-dasharray: 2.96,1.28; stroke-dashoffset: 0; stroke: #b0b0b0; stroke-opacity: 0.8; stroke-width: 0.8"/>
     </g>
     <g id="line2d_22">
      <g>
       <use xlink:href="#md6b2ca96c7" x="43.78125" y="99.36732" style="stroke: #000000; stroke-width: 0.8"/>
      </g>
     </g>
     <g id="text_12">
      <!-- 0.6 -->
      <g transform="translate(20.878125 103.166539) scale(0.1 -0.1)">
       <use xlink:href="#DejaVuSans-30"/>
       <use xlink:href="#DejaVuSans-2e" transform="translate(63.623047 0)"/>
       <use xlink:href="#DejaVuSans-36" transform="translate(95.410156 0)"/>
      </g>
     </g>
    </g>
    <g id="ytick_5">
     <g id="line2d_23">
      <path d="M 43.78125 49.00851 
L 568.8 49.00851 
" clip-path="url(#p3cc8f9fa4c)" style="fill: none; stroke-dasharray: 2.96,1.28; stroke-dashoffset: 0; stroke: #b0b0b0; stroke-opacity: 0.8; stroke-width: 0.8"/>
     </g>
     <g id="line2d_24">
      <g>
       <use xlink:href="#md6b2ca96c7" x="43.78125" y="49.00851" style="stroke: #000000; stroke-width: 0.8"/>
      </g>
     </g>
     <g id="text_13">
      <!-- 0.8 -->
      <g transform="translate(20.878125 52.807729) scale(0.1 -0.1)">
       <defs>
        <path id="DejaVuSans-38" d="M 2034 2216 
Q 1584 2216 1326 1975 
Q 1069 1734 1069 1313 
Q 1069 891 1326 650 
Q 1584 409 2034 409 
Q 2484 409 2743 651 
Q 3003 894 3003 1313 
Q 3003 1734 2745 1975 
Q 2488 2216 2034 2216 
z
M 1403 2484 
Q 997 2584 770 2862 
Q 544 3141 544 3541 
Q 544 4100 942 4425 
Q 1341 4750 2034 4750 
Q 2731 4750 3128 4425 
Q 3525 4100 3525 3541 
Q 3525 3141 3298 2862 
Q 3072 2584 2669 2484 
Q 3125 2378 3379 2068 
Q 3634 1759 3634 1313 
Q 3634 634 3220 271 
Q 2806 -91 2034 -91 
Q 1263 -91 848 271 
Q 434 634 434 1313 
Q 434 1759 690 2068 
Q 947 2378 1403 2484 
z
M 1172 3481 
Q 1172 3119 1398 2916 
Q 1625 2713 2034 2713 
Q 2441 2713 2670 2916 
Q 2900 3119 2900 3481 
Q 2900 3844 2670 4047 
Q 2441 4250 2034 4250 
Q 1625 4250 1398 4047 
Q 1172 3844 1172 3481 
z
" transform="scale(0.015625)"/>
       </defs>
       <use xlink:href="#DejaVuSans-30"/>
       <use xlink:href="#DejaVuSans-2e" transform="translate(63.623047 0)"/>
       <use xlink:href="#DejaVuSans-38" transform="translate(95.410156 0)"/>
      </g>
     </g>
    </g>
    <g id="text_14">
     <!-- Probability density -->
     <g transform="translate(14.798438 182.731719) rotate(-90) scale(0.1 -0.1)">
      <defs>
       <path id="DejaVuSans-50" d="M 1259 4147 
L 1259 2394 
L 2053 2394 
Q 2494 2394 2734 2622 
Q 2975 2850 2975 3272 
Q 2975 3691 2734 3919 
Q 2494 4147 2053 4147 
L 1259 4147 
z
M 628 4666 
L 2053 4666 
Q 2838 4666 3239 4311 
Q 3641 3956 3641 3272 
Q 3641 2581 3239 2228 
Q 2838 1875 2053 1875 
L 1259 1875 
L 1259 0 
L 628 0 
L 628 4666 
z
" transform="scale(0.015625)"/>
       <path id="DejaVuSans-74" d="M 1172 4494 
L 1172 3500 
L 2356 3500 
L 2356 3053 
L 1172 3053 
L 1172 1153 
Q 1172 725 1289 603 
Q 1406 481 1766 481 
L 2356 481 
L 2356 0 
L 1766 0 
Q 1100 0 847 248 
Q 594 497 594 1153 
L 594 3053 
L 172 3053 
L 172 3500 
L 594 3500 
L 594 4494 
L 1172 4494 
z
" transform="scale(0.015625)"/>
       <path id="DejaVuSans-79" d="M 2059 -325 
Q 1816 -950 1584 -1140 
Q 1353 -1331 966 -1331 
L 506 -1331 
L 506 -850 
L 844 -850 
Q 1081 -850 1212 -737 
Q 1344 -625 1503 -206 
L 1606 56 
L 191 3500 
L 800 3500 
L 1894 763 
L 2988 3500 
L 3597 3500 
L 2059 -325 
z
" transform="scale(0.015625)"/>
       <path id="DejaVuSans-73" d="M 2834 3397 
L 2834 2853 
Q 2591 2978 2328 3040 
Q 2066 3103 1784 3103 
Q 1356 3103 1142 2972 
Q 928 2841 928 2578 
Q 928 2378 1081 2264 
Q 1234 2150 1697 2047 
L 1894 2003 
Q 2506 1872 2764 1633 
Q 3022 1394 3022 966 
Q 3022 478 2636 193 
Q 2250 -91 1575 -91 
Q 1294 -91 989 -36 
Q 684 19 347 128 
L 347 722 
Q 666 556 975 473 
Q 1284 391 1588 391 
Q 1994 391 2212 530 
Q 2431 669 2431 922 
Q 2431 1156 2273 1281 
Q 2116 1406 1581 1522 
L 1381 1569 
Q 847 1681 609 1914 
Q 372 2147 372 2553 
Q 372 3047 722 3315 
Q 1072 3584 1716 3584 
Q 2034 3584 2315 3537 
Q 2597 3491 2834 3397 
z
" transform="scale(0.015625)"/>
      </defs>
      <use xlink:href="#DejaVuSans-50"/>
      <use xlink:href="#DejaVuSans-72" transform="translate(58.552734 0)"/>
      <use xlink:href="#DejaVuSans-6f" transform="translate(97.416016 0)"/>
      <use xlink:href="#DejaVuSans-62" transform="translate(158.597656 0)"/>
      <use xlink:href="#DejaVuSans-61" transform="translate(222.074219 0)"/>
      <use xlink:href="#DejaVuSans-62" transform="translate(283.353516 0)"/>
      <use xlink:href="#DejaVuSans-69" transform="translate(346.830078 0)"/>
      <use xlink:href="#DejaVuSans-6c" transform="translate(374.613281 0)"/>
      <use xlink:href="#DejaVuSans-69" transform="translate(402.396484 0)"/>
      <use xlink:href="#DejaVuSans-74" transform="translate(430.179688 0)"/>
      <use xlink:href="#DejaVuSans-79" transform="translate(469.388672 0)"/>
      <use xlink:href="#DejaVuSans-20" transform="translate(528.568359 0)"/>
      <use xlink:href="#DejaVuSans-64" transform="translate(560.355469 0)"/>
      <use xlink:href="#DejaVuSans-65" transform="translate(623.832031 0)"/>
      <use xlink:href="#DejaVuSans-6e" transform="translate(685.355469 0)"/>
      <use xlink:href="#DejaVuSans-73" transform="translate(748.734375 0)"/>
      <use xlink:href="#DejaVuSans-69" transform="translate(800.833984 0)"/>
      <use xlink:href="#DejaVuSans-74" transform="translate(828.617188 0)"/>
      <use xlink:href="#DejaVuSans-79" transform="translate(867.826172 0)"/>
     </g>
    </g>
   </g>
   <g id="line2d_25">
    <path d="M 67.645739 250.44375 
L 78.623403 216.025467 
L 84.82817 197.310303 
L 90.078358 182.205771 
L 94.373966 170.484321 
L 98.669574 159.435246 
L 102.487892 150.24526 
L 105.82892 142.733762 
L 109.169949 135.748134 
L 112.510977 129.313978 
L 115.374716 124.254108 
L 118.238455 119.625785 
L 121.102193 115.4373 
L 123.965932 111.694506 
L 126.352381 108.918516 
L 128.73883 106.455177 
L 131.125278 104.30408 
L 133.511727 102.463715 
L 135.898176 100.931503 
L 138.284625 99.703832 
L 140.671074 98.776102 
L 142.580233 98.246179 
L 144.489392 97.901433 
L 146.398551 97.738261 
L 148.785 97.783614 
L 151.171449 98.098145 
L 153.557898 98.672792 
L 155.944347 99.497848 
L 158.330795 100.563034 
L 160.717244 101.857553 
L 163.580983 103.69784 
L 166.444722 105.832013 
L 169.30846 108.239295 
L 172.649489 111.364596 
L 175.990517 114.798408 
L 179.808835 119.056221 
L 184.104443 124.209929 
L 188.877341 130.303243 
L 194.604818 137.994277 
L 202.718744 149.308313 
L 217.992017 170.674482 
L 224.674074 179.610011 
L 230.401551 186.918329 
L 235.651739 193.276862 
L 240.901926 199.272568 
L 245.674824 204.387103 
L 250.447722 209.169093 
L 255.220619 213.612624 
L 259.516227 217.321814 
L 263.811835 220.759076 
L 268.107443 223.929816 
L 272.403051 226.841676 
L 276.698659 229.50414 
L 280.994267 231.928175 
L 285.767165 234.35666 
L 290.540063 236.523523 
L 295.31296 238.447307 
L 300.085858 240.146902 
L 305.336045 241.780034 
L 310.586233 243.189368 
L 316.31371 244.49948 
L 322.518477 245.68396 
L 329.200534 246.724883 
L 336.359881 247.61325 
L 344.473807 248.388405 
L 353.542313 249.02545 
L 364.042688 249.53673 
L 376.929511 249.932944 
L 393.634653 250.210977 
L 418.453722 250.377317 
L 468.569148 250.439881 
L 544.935511 250.443727 
L 544.935511 250.443727 
" clip-path="url(#p3cc8f9fa4c)" style="fill: none; stroke: #1f77b4; stroke-linecap: square"/>
   </g>
   <g id="line2d_26">
    <path d="M 67.645739 250.44375 
L 140.671074 250.341076 
L 148.785 249.981155 
L 155.944347 249.096126 
L 156.898926 248.804598 
L 157.376216 248.804598 
L 158.808085 248.267923 
L 159.285375 248.267923 
L 160.239955 247.833566 
L 160.717244 247.833566 
L 161.671824 247.329008 
L 162.149114 247.329008 
L 163.103693 246.74603 
L 163.580983 246.74603 
L 165.012852 245.705449 
L 165.490142 245.705449 
L 166.444722 244.887626 
L 166.922011 244.887626 
L 167.876591 243.959418 
L 168.353881 243.959418 
L 169.78575 242.338712 
L 170.26304 242.338712 
L 171.217619 241.091511 
L 171.694909 241.091511 
L 172.649489 239.699358 
L 173.126778 239.699358 
L 174.558648 237.318044 
L 175.035938 237.318044 
L 175.990517 235.521388 
L 176.467807 235.521388 
L 177.422386 233.547036 
L 177.899676 233.547036 
L 179.331545 230.234451 
L 179.808835 230.234451 
L 180.763415 227.781356 
L 181.240705 227.781356 
L 182.195284 225.125158 
L 182.672574 225.125158 
L 184.104443 220.749203 
L 184.581733 220.749203 
L 185.536313 217.565559 
L 186.013602 217.565559 
L 186.968182 214.166411 
L 187.445472 214.166411 
L 188.877341 208.663038 
L 189.354631 208.663038 
L 190.30921 204.726515 
L 190.7865 204.726515 
L 191.74108 200.579764 
L 192.218369 200.579764 
L 193.650239 193.977268 
L 194.127528 193.977268 
L 195.082108 189.331348 
L 195.559398 189.331348 
L 196.513977 184.500776 
L 196.991267 184.500776 
L 198.423136 176.933399 
L 198.900426 176.933399 
L 199.855006 171.693239 
L 200.332295 171.693239 
L 201.286875 166.314171 
L 201.764165 166.314171 
L 203.196034 158.02139 
L 203.673324 158.02139 
L 204.627903 152.369698 
L 205.105193 152.369698 
L 206.059773 146.641981 
L 206.537063 146.641981 
L 207.968932 137.95269 
L 208.446222 137.95269 
L 209.400801 132.125835 
L 209.878091 132.125835 
L 210.83267 126.297466 
L 211.30996 126.297466 
L 212.26454 120.490037 
L 212.74183 120.490037 
L 214.173699 111.867703 
L 214.650989 111.867703 
L 215.605568 106.211682 
L 216.082858 106.211682 
L 217.037438 100.655535 
L 217.514727 100.655535 
L 218.946597 92.556381 
L 219.423886 92.556381 
L 220.378466 87.344507 
L 220.855756 87.344507 
L 221.810335 82.306324 
L 222.287625 82.306324 
L 223.719494 75.116423 
L 224.196784 75.116423 
L 225.151364 70.594046 
L 225.628653 70.594046 
L 226.583233 66.307534 
L 227.060523 66.307534 
L 228.492392 60.352228 
L 228.969682 60.352228 
L 229.924261 56.717435 
L 230.401551 56.717435 
L 231.356131 53.364267 
L 231.83342 53.364267 
L 233.26529 48.883217 
L 233.74258 48.883217 
L 234.697159 46.272805 
L 235.174449 46.272805 
L 236.129028 43.970778 
L 236.606318 43.970778 
L 238.038188 41.10439 
L 238.515477 41.10439 
L 239.470057 39.587621 
L 239.947347 39.587621 
L 240.901926 38.386621 
L 241.379216 38.386621 
L 242.333795 37.50012 
L 242.811085 37.174023 
L 243.288375 37.174023 
L 244.242955 36.753834 
L 245.197534 36.658578 
L 246.629403 36.694264 
L 248.538563 37.300679 
L 249.015852 37.646425 
L 249.493142 37.646425 
L 250.447722 38.546846 
L 250.925011 38.546846 
L 251.879591 39.717888 
L 252.356881 40.401723 
L 252.83417 40.401723 
L 253.78875 41.95928 
L 254.26604 41.95928 
L 255.220619 43.760567 
L 255.697909 43.760567 
L 256.652489 45.793751 
L 257.129778 45.793751 
L 258.561648 49.251306 
L 259.038938 49.251306 
L 259.993517 51.809584 
L 260.470807 51.809584 
L 261.425386 54.555214 
L 261.902676 54.555214 
L 263.334545 58.99592 
L 263.811835 58.99592 
L 264.766415 62.151765 
L 265.243705 62.151765 
L 266.198284 65.448351 
L 266.675574 65.448351 
L 268.107443 70.628199 
L 268.584733 70.628199 
L 269.539313 74.219073 
L 270.016602 74.219073 
L 270.971182 77.905157 
L 271.448472 77.905157 
L 272.880341 83.585646 
L 273.357631 83.585646 
L 274.31221 87.456003 
L 274.7895 87.456003 
L 275.74408 91.379519 
L 276.221369 91.379519 
L 277.653239 97.34024 
L 278.130528 97.34024 
L 279.085108 101.348944 
L 279.562398 101.348944 
L 280.516977 105.373856 
L 280.994267 105.373856 
L 282.426136 111.421019 
L 282.903426 111.421019 
L 283.858006 115.446091 
L 284.335295 115.446091 
L 285.289875 119.456422 
L 285.767165 119.456422 
L 287.199034 125.427606 
L 287.676324 125.427606 
L 288.630903 129.368584 
L 289.108193 129.368584 
L 290.062773 133.270167 
L 290.540063 133.270167 
L 291.971932 139.035898 
L 292.449222 139.035898 
L 293.403801 142.814243 
L 293.881091 142.814243 
L 294.83567 146.534661 
L 295.31296 146.534661 
L 296.74483 151.997533 
L 297.222119 151.997533 
L 298.176699 155.555576 
L 298.653989 155.555576 
L 299.608568 159.042782 
L 300.085858 159.042782 
L 301.517727 164.134856 
L 301.995017 164.134856 
L 302.949597 167.433765 
L 303.426886 167.433765 
L 304.381466 170.653846 
L 304.858756 170.653846 
L 305.813335 173.793609 
L 306.290625 173.793609 
L 307.722494 178.350176 
L 308.199784 178.350176 
L 309.154364 181.284664 
L 309.631653 181.284664 
L 310.586233 184.135997 
L 311.063523 184.135997 
L 312.495392 188.256688 
L 312.972682 188.256688 
L 313.927261 190.899725 
L 314.404551 190.899725 
L 315.359131 193.459858 
L 315.83642 193.459858 
L 317.26829 197.145828 
L 317.74558 197.145828 
L 318.700159 199.501409 
L 319.177449 199.501409 
L 320.132028 201.776679 
L 320.609318 201.776679 
L 322.041188 205.041387 
L 322.518477 205.041387 
L 323.473057 207.120846 
L 323.950347 207.120846 
L 324.904926 209.124262 
L 325.382216 209.124262 
L 326.814085 211.989989 
L 327.291375 211.989989 
L 328.245955 213.809792 
L 328.723244 213.809792 
L 329.677824 215.55893 
L 330.155114 215.55893 
L 331.586983 218.053817 
L 332.064273 218.053817 
L 333.018852 219.63371 
L 333.496142 219.63371 
L 334.450722 221.148967 
L 334.928011 221.148967 
L 336.359881 223.304572 
L 336.83717 223.304572 
L 337.79175 224.666088 
L 338.26904 224.666088 
L 339.223619 225.969276 
L 339.700909 225.969276 
L 341.132778 227.818656 
L 341.610068 227.818656 
L 342.564648 228.983942 
L 343.041938 228.983942 
L 343.996517 230.097209 
L 344.473807 230.097209 
L 345.905676 231.673451 
L 346.382966 231.673451 
L 347.337545 232.664388 
L 347.814835 232.664388 
L 348.769415 233.609417 
L 349.246705 233.609417 
L 350.201284 234.510228 
L 350.678574 234.510228 
L 352.110443 235.782149 
L 352.587733 235.782149 
L 353.542313 236.579591 
L 354.019602 236.579591 
L 354.974182 237.338469 
L 355.451472 237.338469 
L 356.883341 238.407827 
L 357.360631 238.407827 
L 358.31521 239.076931 
L 358.7925 239.076931 
L 359.74708 239.712679 
L 360.224369 239.712679 
L 361.656239 240.606809 
L 362.133528 240.606809 
L 363.088108 241.165203 
L 363.565398 241.165203 
L 364.519977 241.694963 
L 364.997267 241.694963 
L 366.429136 242.438657 
L 366.906426 242.438657 
L 367.861006 242.90225 
L 368.338295 242.90225 
L 369.292875 243.341435 
L 369.770165 243.341435 
L 371.202034 243.956882 
L 371.679324 243.956882 
L 372.633903 244.33985 
L 373.111193 244.33985 
L 374.065773 244.702149 
L 374.543063 244.702149 
L 375.974932 245.20898 
L 376.452222 245.20898 
L 377.406801 245.523819 
L 377.884091 245.523819 
L 378.83867 245.821263 
L 379.31596 245.821263 
L 380.74783 246.236671 
L 381.225119 246.236671 
L 382.179699 246.494287 
L 382.656989 246.494287 
L 383.611568 246.737348 
L 384.088858 246.737348 
L 385.520727 247.076253 
L 386.475307 247.182722 
L 388.384466 247.483802 
L 389.339045 247.578318 
L 391.725494 247.929188 
L 392.680074 248.010467 
L 395.066523 248.31186 
L 396.021102 248.381598 
L 397.930261 248.578318 
L 398.884841 248.639917 
L 401.27129 248.86789 
L 403.180449 248.971536 
L 406.044188 249.203523 
L 407.953347 249.286378 
L 412.248955 249.537402 
L 414.635403 249.628525 
L 419.885591 249.831305 
L 426.090358 250.002448 
L 433.726994 250.150621 
L 444.227369 250.278474 
L 459.977932 250.380015 
L 544.935511 250.44352 
L 544.935511 250.44352 
" clip-path="url(#p3cc8f9fa4c)" style="fill: none; stroke: #ff7f0e; stroke-linecap: square"/>
   </g>
   <g id="patch_3">
    <path d="M 122.441264 250.44375 
L 122.441264 250.390824 
L 141.3636 250.390824 
L 141.3636 250.232045 
L 148.932534 250.126192 
L 148.932534 249.649855 
L 152.717001 249.649855 
L 152.717001 249.332298 
L 156.501468 249.332298 
L 156.501468 248.326698 
L 160.285935 248.326698 
L 160.285935 247.268171 
L 164.070402 247.268171 
L 164.070402 245.680382 
L 167.854869 245.680382 
L 167.854869 243.034067 
L 171.639336 243.034067 
L 171.639336 239.223372 
L 175.423803 239.223372 
L 175.423803 233.242699 
L 179.20827 233.242699 
L 179.20827 225.938869 
L 182.992737 225.938869 
L 182.992737 220.699164 
L 186.777205 220.699164 
L 186.777205 208.684892 
L 190.561672 208.684892 
L 190.561672 198.311335 
L 194.346139 198.311335 
L 194.346139 190.689947 
L 198.130606 190.689947 
L 198.130606 173.488896 
L 201.915073 173.488896 
L 201.915073 156.552477 
L 205.69954 156.552477 
L 205.69954 139.721911 
L 209.484007 139.721911 
L 209.484007 130.883217 
L 213.268474 130.883217 
L 213.268474 108.124904 
L 217.052941 108.124904 
L 217.052941 93.728948 
L 220.837408 93.728948 
L 220.837408 76.422045 
L 224.621875 76.422045 
L 224.621875 69.806256 
L 228.406342 69.806256 
L 228.406342 57.103942 
L 232.190809 57.103942 
L 232.190809 45.671859 
L 235.975276 45.671859 
L 235.975276 42.760912 
L 239.759743 42.760912 
L 239.759743 33.18125 
L 243.54421 33.18125 
L 243.54421 37.944618 
L 247.328678 37.944618 
L 247.328678 39.373628 
L 251.113145 39.373628 
L 251.113145 34.874892 
L 254.897612 34.874892 
L 254.897612 42.019944 
L 258.682079 42.019944 
L 258.682079 58.003689 
L 262.466546 58.003689 
L 262.466546 64.090215 
L 266.251013 64.090215 
L 266.251013 68.16554 
L 270.03548 68.16554 
L 270.03548 79.703476 
L 273.819947 79.703476 
L 273.819947 88.436317 
L 277.604414 88.436317 
L 277.604414 102.832273 
L 281.388881 102.832273 
L 281.388881 113.893872 
L 285.173348 113.893872 
L 285.173348 125.325955 
L 288.957815 125.325955 
L 288.957815 134.323427 
L 292.742282 134.323427 
L 292.742282 144.802836 
L 296.526749 144.802836 
L 296.526749 155.705656 
L 300.311216 155.705656 
L 300.311216 168.143339 
L 304.095684 168.143339 
L 304.095684 172.695002 
L 307.880151 172.695002 
L 307.880151 184.603421 
L 311.664618 184.603421 
L 311.664618 186.720474 
L 315.449085 186.720474 
L 315.449085 196.617693 
L 319.233552 196.617693 
L 319.233552 203.921524 
L 323.018019 203.921524 
L 323.018019 207.838071 
L 326.802486 207.838071 
L 326.802486 214.295081 
L 330.586953 214.295081 
L 330.586953 219.217227 
L 334.37142 219.217227 
L 334.37142 222.498659 
L 338.155887 222.498659 
L 338.155887 226.732763 
L 341.940354 226.732763 
L 341.940354 230.172974 
L 345.724821 230.172974 
L 345.724821 233.189773 
L 349.509288 233.189773 
L 349.509288 234.248299 
L 353.293755 234.248299 
L 353.293755 237.423878 
L 357.078222 237.423878 
L 357.078222 239.911414 
L 364.647157 239.911414 
L 364.647157 243.245772 
L 368.431624 243.245772 
L 368.431624 243.775035 
L 372.216091 243.775035 
L 372.216091 244.198445 
L 379.785025 244.092593 
L 379.785025 246.42135 
L 383.569492 246.42135 
L 383.569492 247.00354 
L 387.353959 247.00354 
L 387.353959 247.321098 
L 391.138426 247.321098 
L 391.138426 248.114992 
L 394.922893 248.114992 
L 394.922893 248.485477 
L 402.491827 248.591329 
L 402.491827 249.385224 
L 410.060761 249.385224 
L 410.060761 248.908887 
L 413.845228 248.908887 
L 413.845228 249.226445 
L 417.629696 249.226445 
L 417.629696 249.649855 
L 421.414163 249.649855 
L 421.414163 249.914487 
L 425.19863 249.914487 
L 425.19863 249.702782 
L 428.983097 249.702782 
L 428.983097 250.232045 
L 459.258833 250.337897 
L 459.258833 250.44375 
L 504.672438 250.390824 
L 504.672438 250.44375 
" clip-path="url(#p3cc8f9fa4c)" style="fill: none; stroke: #2ca02c; stroke-linejoin: miter"/>
   </g>
   <g id="patch_4">
    <path d="M 43.78125 250.44375 
L 43.78125 22.318125 
" style="fill: none; stroke: #000000; stroke-width: 0.8; stroke-linejoin: miter; stroke-linecap: square"/>
   </g>
   <g id="patch_5">
    <path d="M 568.8 250.44375 
L 568.8 22.318125 
" style="fill: none; stroke: #000000; stroke-width: 0.8; stroke-linejoin: miter; stroke-linecap: square"/>
   </g>
   <g id="patch_6">
    <path d="M 43.78125 250.44375 
L 568.8 250.44375 
" style="fill: none; stroke: #000000; stroke-width: 0.8; stroke-linejoin: miter; stroke-linecap: square"/>
   </g>
   <g id="patch_7">
    <path d="M 43.78125 22.318125 
L 568.8 22.318125 
" style="fill: none; stroke: #000000; stroke-width: 0.8; stroke-linejoin: miter; stroke-linecap: square"/>
   </g>
   <g id="text_15">
    <!-- Maximum of 10 Rayleigh random variables -->
    <g transform="translate(177.272813 16.318125) scale(0.12 -0.12)">
     <defs>
      <path id="DejaVuSans-4d" d="M 628 4666 
L 1569 4666 
L 2759 1491 
L 3956 4666 
L 4897 4666 
L 4897 0 
L 4281 0 
L 4281 4097 
L 3078 897 
L 2444 897 
L 1241 4097 
L 1241 0 
L 628 0 
L 628 4666 
z
" transform="scale(0.015625)"/>
      <path id="DejaVuSans-78" d="M 3513 3500 
L 2247 1797 
L 3578 0 
L 2900 0 
L 1881 1375 
L 863 0 
L 184 0 
L 1544 1831 
L 300 3500 
L 978 3500 
L 1906 2253 
L 2834 3500 
L 3513 3500 
z
" transform="scale(0.015625)"/>
      <path id="DejaVuSans-75" d="M 544 1381 
L 544 3500 
L 1119 3500 
L 1119 1403 
Q 1119 906 1312 657 
Q 1506 409 1894 409 
Q 2359 409 2629 706 
Q 2900 1003 2900 1516 
L 2900 3500 
L 3475 3500 
L 3475 0 
L 2900 0 
L 2900 538 
Q 2691 219 2414 64 
Q 2138 -91 1772 -91 
Q 1169 -91 856 284 
Q 544 659 544 1381 
z
M 1991 3584 
L 1991 3584 
z
" transform="scale(0.015625)"/>
      <path id="DejaVuSans-66" d="M 2375 4863 
L 2375 4384 
L 1825 4384 
Q 1516 4384 1395 4259 
Q 1275 4134 1275 3809 
L 1275 3500 
L 2222 3500 
L 2222 3053 
L 1275 3053 
L 1275 0 
L 697 0 
L 697 3053 
L 147 3053 
L 147 3500 
L 697 3500 
L 697 3744 
Q 697 4328 969 4595 
Q 1241 4863 1831 4863 
L 2375 4863 
z
" transform="scale(0.015625)"/>
      <path id="DejaVuSans-67" d="M 2906 1791 
Q 2906 2416 2648 2759 
Q 2391 3103 1925 3103 
Q 1463 3103 1205 2759 
Q 947 2416 947 1791 
Q 947 1169 1205 825 
Q 1463 481 1925 481 
Q 2391 481 2648 825 
Q 2906 1169 2906 1791 
z
M 3481 434 
Q 3481 -459 3084 -895 
Q 2688 -1331 1869 -1331 
Q 1566 -1331 1297 -1286 
Q 1028 -1241 775 -1147 
L 775 -588 
Q 1028 -725 1275 -790 
Q 1522 -856 1778 -856 
Q 2344 -856 2625 -561 
Q 2906 -266 2906 331 
L 2906 616 
Q 2728 306 2450 153 
Q 2172 0 1784 0 
Q 1141 0 747 490 
Q 353 981 353 1791 
Q 353 2603 747 3093 
Q 1141 3584 1784 3584 
Q 2172 3584 2450 3431 
Q 2728 3278 2906 2969 
L 2906 3500 
L 3481 3500 
L 3481 434 
z
" transform="scale(0.015625)"/>
      <path id="DejaVuSans-68" d="M 3513 2113 
L 3513 0 
L 2938 0 
L 2938 2094 
Q 2938 2591 2744 2837 
Q 2550 3084 2163 3084 
Q 1697 3084 1428 2787 
Q 1159 2491 1159 1978 
L 1159 0 
L 581 0 
L 581 4863 
L 1159 4863 
L 1159 2956 
Q 1366 3272 1645 3428 
Q 1925 3584 2291 3584 
Q 2894 3584 3203 3211 
Q 3513 2838 3513 2113 
z
" transform="scale(0.015625)"/>
     </defs>
     <use xlink:href="#DejaVuSans-4d"/>
     <use xlink:href="#DejaVuSans-61" transform="translate(86.279297 0)"/>
     <use xlink:href="#DejaVuSans-78" transform="translate(147.558594 0)"/>
     <use xlink:href="#DejaVuSans-69" transform="translate(206.738281 0)"/>
     <use xlink:href="#DejaVuSans-6d" transform="translate(234.521484 0)"/>
     <use xlink:href="#DejaVuSans-75" transform="translate(331.933594 0)"/>
     <use xlink:href="#DejaVuSans-6d" transform="translate(395.3125 0)"/>
     <use xlink:href="#DejaVuSans-20" transform="translate(492.724609 0)"/>
     <use xlink:href="#DejaVuSans-6f" transform="translate(524.511719 0)"/>
     <use xlink:href="#DejaVuSans-66" transform="translate(585.693359 0)"/>
     <use xlink:href="#DejaVuSans-20" transform="translate(620.898438 0)"/>
     <use xlink:href="#DejaVuSans-31" transform="translate(652.685547 0)"/>
     <use xlink:href="#DejaVuSans-30" transform="translate(716.308594 0)"/>
     <use xlink:href="#DejaVuSans-20" transform="translate(779.931641 0)"/>
     <use xlink:href="#DejaVuSans-52" transform="translate(811.71875 0)"/>
     <use xlink:href="#DejaVuSans-61" transform="translate(878.951172 0)"/>
     <use xlink:href="#DejaVuSans-79" transform="translate(940.230469 0)"/>
     <use xlink:href="#DejaVuSans-6c" transform="translate(999.410156 0)"/>
     <use xlink:href="#DejaVuSans-65" transform="translate(1027.193359 0)"/>
     <use xlink:href="#DejaVuSans-69" transform="translate(1088.716797 0)"/>
     <use xlink:href="#DejaVuSans-67" transform="translate(1116.5 0)"/>
     <use xlink:href="#DejaVuSans-68" transform="translate(1179.976562 0)"/>
     <use xlink:href="#DejaVuSans-20" transform="translate(1243.355469 0)"/>
     <use xlink:href="#DejaVuSans-72" transform="translate(1275.142578 0)"/>
     <use xlink:href="#DejaVuSans-61" transform="translate(1316.255859 0)"/>
     <use xlink:href="#DejaVuSans-6e" transform="translate(1377.535156 0)"/>
     <use xlink:href="#DejaVuSans-64" transform="translate(1440.914062 0)"/>
     <use xlink:href="#DejaVuSans-6f" transform="translate(1504.390625 0)"/>
     <use xlink:href="#DejaVuSans-6d" transform="translate(1565.572266 0)"/>
     <use xlink:href="#DejaVuSans-20" transform="translate(1662.984375 0)"/>
     <use xlink:href="#DejaVuSans-76" transform="translate(1694.771484 0)"/>
     <use xlink:href="#DejaVuSans-61" transform="translate(1753.951172 0)"/>
     <use xlink:href="#DejaVuSans-72" transform="translate(1815.230469 0)"/>
     <use xlink:href="#DejaVuSans-69" transform="translate(1856.34375 0)"/>
     <use xlink:href="#DejaVuSans-61" transform="translate(1884.126953 0)"/>
     <use xlink:href="#DejaVuSans-62" transform="translate(1945.40625 0)"/>
     <use xlink:href="#DejaVuSans-6c" transform="translate(2008.882812 0)"/>
     <use xlink:href="#DejaVuSans-65" transform="translate(2036.666016 0)"/>
     <use xlink:href="#DejaVuSans-73" transform="translate(2098.189453 0)"/>
    </g>
   </g>
   <g id="legend_1">
    <g id="patch_8">
     <path d="M 403.4 74.374375 
L 561.8 74.374375 
Q 563.8 74.374375 563.8 72.374375 
L 563.8 29.318125 
Q 563.8 27.318125 561.8 27.318125 
L 403.4 27.318125 
Q 401.4 27.318125 401.4 29.318125 
L 401.4 72.374375 
Q 401.4 74.374375 403.4 74.374375 
z
" style="fill: #ffffff; opacity: 0.8; stroke: #cccccc; stroke-linejoin: miter"/>
    </g>
    <g id="line2d_27">
     <path d="M 405.4 35.416562 
L 415.4 35.416562 
L 425.4 35.416562 
" style="fill: none; stroke: #1f77b4; stroke-linecap: square"/>
    </g>
    <g id="text_16">
     <!-- $X$ -->
     <g transform="translate(433.4 38.916562) scale(0.1 -0.1)">
      <defs>
       <path id="DejaVuSans-Oblique-58" d="M 878 4666 
L 1516 4666 
L 2316 2981 
L 3763 4666 
L 4500 4666 
L 2578 2438 
L 3738 0 
L 3103 0 
L 2163 1966 
L 459 0 
L -275 0 
L 1906 2509 
L 878 4666 
z
" transform="scale(0.015625)"/>
      </defs>
      <use xlink:href="#DejaVuSans-Oblique-58" transform="translate(0 0.09375)"/>
     </g>
    </g>
    <g id="line2d_28">
     <path d="M 405.4 50.094687 
L 415.4 50.094687 
L 425.4 50.094687 
" style="fill: none; stroke: #ff7f0e; stroke-linecap: square"/>
    </g>
    <g id="text_17">
     <!-- $\max(X_1, \dots, X_3)$ -->
     <g transform="translate(433.4 53.594687) scale(0.1 -0.1)">
      <defs>
       <path id="DejaVuSans-28" d="M 1984 4856 
Q 1566 4138 1362 3434 
Q 1159 2731 1159 2009 
Q 1159 1288 1364 580 
Q 1569 -128 1984 -844 
L 1484 -844 
Q 1016 -109 783 600 
Q 550 1309 550 2009 
Q 550 2706 781 3412 
Q 1013 4119 1484 4856 
L 1984 4856 
z
" transform="scale(0.015625)"/>
       <path id="DejaVuSans-2c" d="M 750 794 
L 1409 794 
L 1409 256 
L 897 -744 
L 494 -744 
L 750 256 
L 750 794 
z
" transform="scale(0.015625)"/>
       <path id="DejaVuSans-2026" d="M 2869 794 
L 3531 794 
L 3531 0 
L 2869 0 
L 2869 794 
z
M 4997 794 
L 5663 794 
L 5663 0 
L 4997 0 
L 4997 794 
z
M 738 794 
L 1403 794 
L 1403 0 
L 738 0 
L 738 794 
z
" transform="scale(0.015625)"/>
       <path id="DejaVuSans-29" d="M 513 4856 
L 1013 4856 
Q 1481 4119 1714 3412 
Q 1947 2706 1947 2009 
Q 1947 1309 1714 600 
Q 1481 -109 1013 -844 
L 513 -844 
Q 928 -128 1133 580 
Q 1338 1288 1338 2009 
Q 1338 2731 1133 3434 
Q 928 4138 513 4856 
z
" transform="scale(0.015625)"/>
      </defs>
      <use xlink:href="#DejaVuSans-6d" transform="translate(0 0.125)"/>
      <use xlink:href="#DejaVuSans-61" transform="translate(97.412109 0.125)"/>
      <use xlink:href="#DejaVuSans-78" transform="translate(158.691406 0.125)"/>
      <use xlink:href="#DejaVuSans-28" transform="translate(217.871094 0.125)"/>
      <use xlink:href="#DejaVuSans-Oblique-58" transform="translate(256.884766 0.125)"/>
      <use xlink:href="#DejaVuSans-31" transform="translate(325.390625 -16.28125) scale(0.7)"/>
      <use xlink:href="#DejaVuSans-2c" transform="translate(372.661133 0.125)"/>
      <use xlink:href="#DejaVuSans-2026" transform="translate(443.413086 0.125)"/>
      <use xlink:href="#DejaVuSans-2c" transform="translate(562.895508 0.125)"/>
      <use xlink:href="#DejaVuSans-Oblique-58" transform="translate(614.165039 0.125)"/>
      <use xlink:href="#DejaVuSans-33" transform="translate(682.670898 -16.28125) scale(0.7)"/>
      <use xlink:href="#DejaVuSans-29" transform="translate(729.941406 0.125)"/>
     </g>
    </g>
    <g id="patch_9">
     <path d="M 405.4 68.274375 
L 425.4 68.274375 
L 425.4 61.274375 
L 405.4 61.274375 
L 405.4 68.274375 
z
" style="fill: none; stroke: #2ca02c; stroke-linejoin: miter"/>
    </g>
    <g id="text_18">
     <!-- $\max(X_1, \dots, X_3)$ empirical -->
     <g transform="translate(433.4 68.274375) scale(0.1 -0.1)">
      <defs>
       <path id="DejaVuSans-70" d="M 1159 525 
L 1159 -1331 
L 581 -1331 
L 581 3500 
L 1159 3500 
L 1159 2969 
Q 1341 3281 1617 3432 
Q 1894 3584 2278 3584 
Q 2916 3584 3314 3078 
Q 3713 2572 3713 1747 
Q 3713 922 3314 415 
Q 2916 -91 2278 -91 
Q 1894 -91 1617 61 
Q 1341 213 1159 525 
z
M 3116 1747 
Q 3116 2381 2855 2742 
Q 2594 3103 2138 3103 
Q 1681 3103 1420 2742 
Q 1159 2381 1159 1747 
Q 1159 1113 1420 752 
Q 1681 391 2138 391 
Q 2594 391 2855 752 
Q 3116 1113 3116 1747 
z
" transform="scale(0.015625)"/>
       <path id="DejaVuSans-63" d="M 3122 3366 
L 3122 2828 
Q 2878 2963 2633 3030 
Q 2388 3097 2138 3097 
Q 1578 3097 1268 2742 
Q 959 2388 959 1747 
Q 959 1106 1268 751 
Q 1578 397 2138 397 
Q 2388 397 2633 464 
Q 2878 531 3122 666 
L 3122 134 
Q 2881 22 2623 -34 
Q 2366 -91 2075 -91 
Q 1284 -91 818 406 
Q 353 903 353 1747 
Q 353 2603 823 3093 
Q 1294 3584 2113 3584 
Q 2378 3584 2631 3529 
Q 2884 3475 3122 3366 
z
" transform="scale(0.015625)"/>
      </defs>
      <use xlink:href="#DejaVuSans-6d" transform="translate(0 0.015625)"/>
      <use xlink:href="#DejaVuSans-61" transform="translate(97.412109 0.015625)"/>
      <use xlink:href="#DejaVuSans-78" transform="translate(158.691406 0.015625)"/>
      <use xlink:href="#DejaVuSans-28" transform="translate(217.871094 0.015625)"/>
      <use xlink:href="#DejaVuSans-Oblique-58" transform="translate(256.884766 0.015625)"/>
      <use xlink:href="#DejaVuSans-31" transform="translate(325.390625 -16.390625) scale(0.7)"/>
      <use xlink:href="#DejaVuSans-2c" transform="translate(372.661133 0.015625)"/>
      <use xlink:href="#DejaVuSans-2026" transform="translate(443.413086 0.015625)"/>
      <use xlink:href="#DejaVuSans-2c" transform="translate(562.895508 0.015625)"/>
      <use xlink:href="#DejaVuSans-Oblique-58" transform="translate(614.165039 0.015625)"/>
      <use xlink:href="#DejaVuSans-33" transform="translate(682.670898 -16.390625) scale(0.7)"/>
      <use xlink:href="#DejaVuSans-29" transform="translate(729.941406 0.015625)"/>
      <use xlink:href="#DejaVuSans-20" transform="translate(768.955078 0.015625)"/>
      <use xlink:href="#DejaVuSans-65" transform="translate(800.742188 0.015625)"/>
      <use xlink:href="#DejaVuSans-6d" transform="translate(862.265625 0.015625)"/>
      <use xlink:href="#DejaVuSans-70" transform="translate(959.677734 0.015625)"/>
      <use xlink:href="#DejaVuSans-69" transform="translate(1023.154297 0.015625)"/>
      <use xlink:href="#DejaVuSans-72" transform="translate(1050.9375 0.015625)"/>
      <use xlink:href="#DejaVuSans-69" transform="translate(1092.050781 0.015625)"/>
      <use xlink:href="#DejaVuSans-63" transform="translate(1119.833984 0.015625)"/>
      <use xlink:href="#DejaVuSans-61" transform="translate(1174.814453 0.015625)"/>
      <use xlink:href="#DejaVuSans-6c" transform="translate(1236.09375 0.015625)"/>
     </g>
    </g>
   </g>
  </g>
 </g>
 <defs>
  <clipPath id="p3cc8f9fa4c">
   <rect x="43.78125" y="22.318125" width="525.01875" height="228.125625"/>
  </clipPath>
 </defs>
</svg>
