<?xml version="1.0" encoding="utf-8" standalone="no"?>
<!DOCTYPE svg PUBLIC "-//W3C//DTD SVG 1.1//EN"
  "http://www.w3.org/Graphics/SVG/1.1/DTD/svg11.dtd">
<svg xmlns:xlink="http://www.w3.org/1999/xlink" width="576pt" height="288pt" viewBox="0 0 576 288" xmlns="http://www.w3.org/2000/svg" version="1.1">
 <metadata>
  <rdf:RDF xmlns:dc="http://purl.org/dc/elements/1.1/" xmlns:cc="http://creativecommons.org/ns#" xmlns:rdf="http://www.w3.org/1999/02/22-rdf-syntax-ns#">
   <cc:Work>
    <dc:type rdf:resource="http://purl.org/dc/dcmitype/StillImage"/>
    <dc:date>2025-05-12T21:37:45.711559</dc:date>
    <dc:format>image/svg+xml</dc:format>
    <dc:creator>
     <cc:Agent>
      <dc:title>Matplotlib v3.10.3, https://matplotlib.org/</dc:title>
     </cc:Agent>
    </dc:creator>
   </cc:Work>
  </rdf:RDF>
 </metadata>
 <defs>
  <style type="text/css">*{stroke-linejoin: round; stroke-linecap: butt}</style>
 </defs>
 <g id="figure_1">
  <g id="patch_1">
   <path d="M 0 288 
L 576 288 
L 576 0 
L 0 0 
z
" style="fill: #ffffff"/>
  </g>
  <g id="axes_1">
   <g id="patch_2">
    <path d="M 50.165625 250.421875 
L 568.8 250.421875 
L 568.8 22.318125 
L 50.165625 22.318125 
z
" style="fill: #ffffff"/>
   </g>
   <g id="matplotlib.axis_1">
    <g id="xtick_1">
     <g id="line2d_1">
      <path d="M 73.739915 250.421875 
L 73.739915 22.318125 
" clip-path="url(#p34ee4e4ec8)" style="fill: none; stroke-dasharray: 2.96,1.28; stroke-dashoffset: 0; stroke: #b0b0b0; stroke-opacity: 0.8; stroke-width: 0.8"/>
     </g>
     <g id="line2d_2">
      <defs>
       <path id="m82f8276d3f" d="M 0 0 
L 0 3.5 
" style="stroke: #000000; stroke-width: 0.8"/>
      </defs>
      <g>
       <use xlink:href="#m82f8276d3f" x="73.739915" y="250.421875" style="stroke: #000000; stroke-width: 0.8"/>
      </g>
     </g>
     <g id="text_1">
      <!-- 0 -->
      <g transform="translate(70.558665 265.020312) scale(0.1 -0.1)">
       <defs>
        <path id="DejaVuSans-30" d="M 2034 4250 
Q 1547 4250 1301 3770 
Q 1056 3291 1056 2328 
Q 1056 1369 1301 889 
Q 1547 409 2034 409 
Q 2525 409 2770 889 
Q 3016 1369 3016 2328 
Q 3016 3291 2770 3770 
Q 2525 4250 2034 4250 
z
M 2034 4750 
Q 2819 4750 3233 4129 
Q 3647 3509 3647 2328 
Q 3647 1150 3233 529 
Q 2819 -91 2034 -91 
Q 1250 -91 836 529 
Q 422 1150 422 2328 
Q 422 3509 836 4129 
Q 1250 4750 2034 4750 
z
" transform="scale(0.015625)"/>
       </defs>
       <use xlink:href="#DejaVuSans-30"/>
      </g>
     </g>
    </g>
    <g id="xtick_2">
     <g id="line2d_3">
      <path d="M 141.095028 250.421875 
L 141.095028 22.318125 
" clip-path="url(#p34ee4e4ec8)" style="fill: none; stroke-dasharray: 2.96,1.28; stroke-dashoffset: 0; stroke: #b0b0b0; stroke-opacity: 0.8; stroke-width: 0.8"/>
     </g>
     <g id="line2d_4">
      <g>
       <use xlink:href="#m82f8276d3f" x="141.095028" y="250.421875" style="stroke: #000000; stroke-width: 0.8"/>
      </g>
     </g>
     <g id="text_2">
      <!-- 3 -->
      <g transform="translate(137.913778 265.020312) scale(0.1 -0.1)">
       <defs>
        <path id="DejaVuSans-33" d="M 2597 2516 
Q 3050 2419 3304 2112 
Q 3559 1806 3559 1356 
Q 3559 666 3084 287 
Q 2609 -91 1734 -91 
Q 1441 -91 1130 -33 
Q 819 25 488 141 
L 488 750 
Q 750 597 1062 519 
Q 1375 441 1716 441 
Q 2309 441 2620 675 
Q 2931 909 2931 1356 
Q 2931 1769 2642 2001 
Q 2353 2234 1838 2234 
L 1294 2234 
L 1294 2753 
L 1863 2753 
Q 2328 2753 2575 2939 
Q 2822 3125 2822 3475 
Q 2822 3834 2567 4026 
Q 2313 4219 1838 4219 
Q 1578 4219 1281 4162 
Q 984 4106 628 3988 
L 628 4550 
Q 988 4650 1302 4700 
Q 1616 4750 1894 4750 
Q 2613 4750 3031 4423 
Q 3450 4097 3450 3541 
Q 3450 3153 3228 2886 
Q 3006 2619 2597 2516 
z
" transform="scale(0.015625)"/>
       </defs>
       <use xlink:href="#DejaVuSans-33"/>
      </g>
     </g>
    </g>
    <g id="xtick_3">
     <g id="line2d_5">
      <path d="M 208.450142 250.421875 
L 208.450142 22.318125 
" clip-path="url(#p34ee4e4ec8)" style="fill: none; stroke-dasharray: 2.96,1.28; stroke-dashoffset: 0; stroke: #b0b0b0; stroke-opacity: 0.8; stroke-width: 0.8"/>
     </g>
     <g id="line2d_6">
      <g>
       <use xlink:href="#m82f8276d3f" x="208.450142" y="250.421875" style="stroke: #000000; stroke-width: 0.8"/>
      </g>
     </g>
     <g id="text_3">
      <!-- 6 -->
      <g transform="translate(205.268892 265.020312) scale(0.1 -0.1)">
       <defs>
        <path id="DejaVuSans-36" d="M 2113 2584 
Q 1688 2584 1439 2293 
Q 1191 2003 1191 1497 
Q 1191 994 1439 701 
Q 1688 409 2113 409 
Q 2538 409 2786 701 
Q 3034 994 3034 1497 
Q 3034 2003 2786 2293 
Q 2538 2584 2113 2584 
z
M 3366 4563 
L 3366 3988 
Q 3128 4100 2886 4159 
Q 2644 4219 2406 4219 
Q 1781 4219 1451 3797 
Q 1122 3375 1075 2522 
Q 1259 2794 1537 2939 
Q 1816 3084 2150 3084 
Q 2853 3084 3261 2657 
Q 3669 2231 3669 1497 
Q 3669 778 3244 343 
Q 2819 -91 2113 -91 
Q 1303 -91 875 529 
Q 447 1150 447 2328 
Q 447 3434 972 4092 
Q 1497 4750 2381 4750 
Q 2619 4750 2861 4703 
Q 3103 4656 3366 4563 
z
" transform="scale(0.015625)"/>
       </defs>
       <use xlink:href="#DejaVuSans-36"/>
      </g>
     </g>
    </g>
    <g id="xtick_4">
     <g id="line2d_7">
      <path d="M 275.805256 250.421875 
L 275.805256 22.318125 
" clip-path="url(#p34ee4e4ec8)" style="fill: none; stroke-dasharray: 2.96,1.28; stroke-dashoffset: 0; stroke: #b0b0b0; stroke-opacity: 0.8; stroke-width: 0.8"/>
     </g>
     <g id="line2d_8">
      <g>
       <use xlink:href="#m82f8276d3f" x="275.805256" y="250.421875" style="stroke: #000000; stroke-width: 0.8"/>
      </g>
     </g>
     <g id="text_4">
      <!-- 9 -->
      <g transform="translate(272.624006 265.020312) scale(0.1 -0.1)">
       <defs>
        <path id="DejaVuSans-39" d="M 703 97 
L 703 672 
Q 941 559 1184 500 
Q 1428 441 1663 441 
Q 2288 441 2617 861 
Q 2947 1281 2994 2138 
Q 2813 1869 2534 1725 
Q 2256 1581 1919 1581 
Q 1219 1581 811 2004 
Q 403 2428 403 3163 
Q 403 3881 828 4315 
Q 1253 4750 1959 4750 
Q 2769 4750 3195 4129 
Q 3622 3509 3622 2328 
Q 3622 1225 3098 567 
Q 2575 -91 1691 -91 
Q 1453 -91 1209 -44 
Q 966 3 703 97 
z
M 1959 2075 
Q 2384 2075 2632 2365 
Q 2881 2656 2881 3163 
Q 2881 3666 2632 3958 
Q 2384 4250 1959 4250 
Q 1534 4250 1286 3958 
Q 1038 3666 1038 3163 
Q 1038 2656 1286 2365 
Q 1534 2075 1959 2075 
z
" transform="scale(0.015625)"/>
       </defs>
       <use xlink:href="#DejaVuSans-39"/>
      </g>
     </g>
    </g>
    <g id="xtick_5">
     <g id="line2d_9">
      <path d="M 343.160369 250.421875 
L 343.160369 22.318125 
" clip-path="url(#p34ee4e4ec8)" style="fill: none; stroke-dasharray: 2.96,1.28; stroke-dashoffset: 0; stroke: #b0b0b0; stroke-opacity: 0.8; stroke-width: 0.8"/>
     </g>
     <g id="line2d_10">
      <g>
       <use xlink:href="#m82f8276d3f" x="343.160369" y="250.421875" style="stroke: #000000; stroke-width: 0.8"/>
      </g>
     </g>
     <g id="text_5">
      <!-- 12 -->
      <g transform="translate(336.797869 265.020312) scale(0.1 -0.1)">
       <defs>
        <path id="DejaVuSans-31" d="M 794 531 
L 1825 531 
L 1825 4091 
L 703 3866 
L 703 4441 
L 1819 4666 
L 2450 4666 
L 2450 531 
L 3481 531 
L 3481 0 
L 794 0 
L 794 531 
z
" transform="scale(0.015625)"/>
        <path id="DejaVuSans-32" d="M 1228 531 
L 3431 531 
L 3431 0 
L 469 0 
L 469 531 
Q 828 903 1448 1529 
Q 2069 2156 2228 2338 
Q 2531 2678 2651 2914 
Q 2772 3150 2772 3378 
Q 2772 3750 2511 3984 
Q 2250 4219 1831 4219 
Q 1534 4219 1204 4116 
Q 875 4013 500 3803 
L 500 4441 
Q 881 4594 1212 4672 
Q 1544 4750 1819 4750 
Q 2544 4750 2975 4387 
Q 3406 4025 3406 3419 
Q 3406 3131 3298 2873 
Q 3191 2616 2906 2266 
Q 2828 2175 2409 1742 
Q 1991 1309 1228 531 
z
" transform="scale(0.015625)"/>
       </defs>
       <use xlink:href="#DejaVuSans-31"/>
       <use xlink:href="#DejaVuSans-32" transform="translate(63.623047 0)"/>
      </g>
     </g>
    </g>
    <g id="xtick_6">
     <g id="line2d_11">
      <path d="M 410.515483 250.421875 
L 410.515483 22.318125 
" clip-path="url(#p34ee4e4ec8)" style="fill: none; stroke-dasharray: 2.96,1.28; stroke-dashoffset: 0; stroke: #b0b0b0; stroke-opacity: 0.8; stroke-width: 0.8"/>
     </g>
     <g id="line2d_12">
      <g>
       <use xlink:href="#m82f8276d3f" x="410.515483" y="250.421875" style="stroke: #000000; stroke-width: 0.8"/>
      </g>
     </g>
     <g id="text_6">
      <!-- 15 -->
      <g transform="translate(404.152983 265.020312) scale(0.1 -0.1)">
       <defs>
        <path id="DejaVuSans-35" d="M 691 4666 
L 3169 4666 
L 3169 4134 
L 1269 4134 
L 1269 2991 
Q 1406 3038 1543 3061 
Q 1681 3084 1819 3084 
Q 2600 3084 3056 2656 
Q 3513 2228 3513 1497 
Q 3513 744 3044 326 
Q 2575 -91 1722 -91 
Q 1428 -91 1123 -41 
Q 819 9 494 109 
L 494 744 
Q 775 591 1075 516 
Q 1375 441 1709 441 
Q 2250 441 2565 725 
Q 2881 1009 2881 1497 
Q 2881 1984 2565 2268 
Q 2250 2553 1709 2553 
Q 1456 2553 1204 2497 
Q 953 2441 691 2322 
L 691 4666 
z
" transform="scale(0.015625)"/>
       </defs>
       <use xlink:href="#DejaVuSans-31"/>
       <use xlink:href="#DejaVuSans-35" transform="translate(63.623047 0)"/>
      </g>
     </g>
    </g>
    <g id="xtick_7">
     <g id="line2d_13">
      <path d="M 477.870597 250.421875 
L 477.870597 22.318125 
" clip-path="url(#p34ee4e4ec8)" style="fill: none; stroke-dasharray: 2.96,1.28; stroke-dashoffset: 0; stroke: #b0b0b0; stroke-opacity: 0.8; stroke-width: 0.8"/>
     </g>
     <g id="line2d_14">
      <g>
       <use xlink:href="#m82f8276d3f" x="477.870597" y="250.421875" style="stroke: #000000; stroke-width: 0.8"/>
      </g>
     </g>
     <g id="text_7">
      <!-- 18 -->
      <g transform="translate(471.508097 265.020312) scale(0.1 -0.1)">
       <defs>
        <path id="DejaVuSans-38" d="M 2034 2216 
Q 1584 2216 1326 1975 
Q 1069 1734 1069 1313 
Q 1069 891 1326 650 
Q 1584 409 2034 409 
Q 2484 409 2743 651 
Q 3003 894 3003 1313 
Q 3003 1734 2745 1975 
Q 2488 2216 2034 2216 
z
M 1403 2484 
Q 997 2584 770 2862 
Q 544 3141 544 3541 
Q 544 4100 942 4425 
Q 1341 4750 2034 4750 
Q 2731 4750 3128 4425 
Q 3525 4100 3525 3541 
Q 3525 3141 3298 2862 
Q 3072 2584 2669 2484 
Q 3125 2378 3379 2068 
Q 3634 1759 3634 1313 
Q 3634 634 3220 271 
Q 2806 -91 2034 -91 
Q 1263 -91 848 271 
Q 434 634 434 1313 
Q 434 1759 690 2068 
Q 947 2378 1403 2484 
z
M 1172 3481 
Q 1172 3119 1398 2916 
Q 1625 2713 2034 2713 
Q 2441 2713 2670 2916 
Q 2900 3119 2900 3481 
Q 2900 3844 2670 4047 
Q 2441 4250 2034 4250 
Q 1625 4250 1398 4047 
Q 1172 3844 1172 3481 
z
" transform="scale(0.015625)"/>
       </defs>
       <use xlink:href="#DejaVuSans-31"/>
       <use xlink:href="#DejaVuSans-38" transform="translate(63.623047 0)"/>
      </g>
     </g>
    </g>
    <g id="xtick_8">
     <g id="line2d_15">
      <path d="M 545.22571 250.421875 
L 545.22571 22.318125 
" clip-path="url(#p34ee4e4ec8)" style="fill: none; stroke-dasharray: 2.96,1.28; stroke-dashoffset: 0; stroke: #b0b0b0; stroke-opacity: 0.8; stroke-width: 0.8"/>
     </g>
     <g id="line2d_16">
      <g>
       <use xlink:href="#m82f8276d3f" x="545.22571" y="250.421875" style="stroke: #000000; stroke-width: 0.8"/>
      </g>
     </g>
     <g id="text_8">
      <!-- 21 -->
      <g transform="translate(538.86321 265.020312) scale(0.1 -0.1)">
       <use xlink:href="#DejaVuSans-32"/>
       <use xlink:href="#DejaVuSans-31" transform="translate(63.623047 0)"/>
      </g>
     </g>
    </g>
    <g id="text_9">
     <!-- Output sample, $n$ -->
     <g transform="translate(265.982813 278.7) scale(0.1 -0.1)">
      <defs>
       <path id="DejaVuSans-4f" d="M 2522 4238 
Q 1834 4238 1429 3725 
Q 1025 3213 1025 2328 
Q 1025 1447 1429 934 
Q 1834 422 2522 422 
Q 3209 422 3611 934 
Q 4013 1447 4013 2328 
Q 4013 3213 3611 3725 
Q 3209 4238 2522 4238 
z
M 2522 4750 
Q 3503 4750 4090 4092 
Q 4678 3434 4678 2328 
Q 4678 1225 4090 567 
Q 3503 -91 2522 -91 
Q 1538 -91 948 565 
Q 359 1222 359 2328 
Q 359 3434 948 4092 
Q 1538 4750 2522 4750 
z
" transform="scale(0.015625)"/>
       <path id="DejaVuSans-75" d="M 544 1381 
L 544 3500 
L 1119 3500 
L 1119 1403 
Q 1119 906 1312 657 
Q 1506 409 1894 409 
Q 2359 409 2629 706 
Q 2900 1003 2900 1516 
L 2900 3500 
L 3475 3500 
L 3475 0 
L 2900 0 
L 2900 538 
Q 2691 219 2414 64 
Q 2138 -91 1772 -91 
Q 1169 -91 856 284 
Q 544 659 544 1381 
z
M 1991 3584 
L 1991 3584 
z
" transform="scale(0.015625)"/>
       <path id="DejaVuSans-74" d="M 1172 4494 
L 1172 3500 
L 2356 3500 
L 2356 3053 
L 1172 3053 
L 1172 1153 
Q 1172 725 1289 603 
Q 1406 481 1766 481 
L 2356 481 
L 2356 0 
L 1766 0 
Q 1100 0 847 248 
Q 594 497 594 1153 
L 594 3053 
L 172 3053 
L 172 3500 
L 594 3500 
L 594 4494 
L 1172 4494 
z
" transform="scale(0.015625)"/>
       <path id="DejaVuSans-70" d="M 1159 525 
L 1159 -1331 
L 581 -1331 
L 581 3500 
L 1159 3500 
L 1159 2969 
Q 1341 3281 1617 3432 
Q 1894 3584 2278 3584 
Q 2916 3584 3314 3078 
Q 3713 2572 3713 1747 
Q 3713 922 3314 415 
Q 2916 -91 2278 -91 
Q 1894 -91 1617 61 
Q 1341 213 1159 525 
z
M 3116 1747 
Q 3116 2381 2855 2742 
Q 2594 3103 2138 3103 
Q 1681 3103 1420 2742 
Q 1159 2381 1159 1747 
Q 1159 1113 1420 752 
Q 1681 391 2138 391 
Q 2594 391 2855 752 
Q 3116 1113 3116 1747 
z
" transform="scale(0.015625)"/>
       <path id="DejaVuSans-20" transform="scale(0.015625)"/>
       <path id="DejaVuSans-73" d="M 2834 3397 
L 2834 2853 
Q 2591 2978 2328 3040 
Q 2066 3103 1784 3103 
Q 1356 3103 1142 2972 
Q 928 2841 928 2578 
Q 928 2378 1081 2264 
Q 1234 2150 1697 2047 
L 1894 2003 
Q 2506 1872 2764 1633 
Q 3022 1394 3022 966 
Q 3022 478 2636 193 
Q 2250 -91 1575 -91 
Q 1294 -91 989 -36 
Q 684 19 347 128 
L 347 722 
Q 666 556 975 473 
Q 1284 391 1588 391 
Q 1994 391 2212 530 
Q 2431 669 2431 922 
Q 2431 1156 2273 1281 
Q 2116 1406 1581 1522 
L 1381 1569 
Q 847 1681 609 1914 
Q 372 2147 372 2553 
Q 372 3047 722 3315 
Q 1072 3584 1716 3584 
Q 2034 3584 2315 3537 
Q 2597 3491 2834 3397 
z
" transform="scale(0.015625)"/>
       <path id="DejaVuSans-61" d="M 2194 1759 
Q 1497 1759 1228 1600 
Q 959 1441 959 1056 
Q 959 750 1161 570 
Q 1363 391 1709 391 
Q 2188 391 2477 730 
Q 2766 1069 2766 1631 
L 2766 1759 
L 2194 1759 
z
M 3341 1997 
L 3341 0 
L 2766 0 
L 2766 531 
Q 2569 213 2275 61 
Q 1981 -91 1556 -91 
Q 1019 -91 701 211 
Q 384 513 384 1019 
Q 384 1609 779 1909 
Q 1175 2209 1959 2209 
L 2766 2209 
L 2766 2266 
Q 2766 2663 2505 2880 
Q 2244 3097 1772 3097 
Q 1472 3097 1187 3025 
Q 903 2953 641 2809 
L 641 3341 
Q 956 3463 1253 3523 
Q 1550 3584 1831 3584 
Q 2591 3584 2966 3190 
Q 3341 2797 3341 1997 
z
" transform="scale(0.015625)"/>
       <path id="DejaVuSans-6d" d="M 3328 2828 
Q 3544 3216 3844 3400 
Q 4144 3584 4550 3584 
Q 5097 3584 5394 3201 
Q 5691 2819 5691 2113 
L 5691 0 
L 5113 0 
L 5113 2094 
Q 5113 2597 4934 2840 
Q 4756 3084 4391 3084 
Q 3944 3084 3684 2787 
Q 3425 2491 3425 1978 
L 3425 0 
L 2847 0 
L 2847 2094 
Q 2847 2600 2669 2842 
Q 2491 3084 2119 3084 
Q 1678 3084 1418 2786 
Q 1159 2488 1159 1978 
L 1159 0 
L 581 0 
L 581 3500 
L 1159 3500 
L 1159 2956 
Q 1356 3278 1631 3431 
Q 1906 3584 2284 3584 
Q 2666 3584 2933 3390 
Q 3200 3197 3328 2828 
z
" transform="scale(0.015625)"/>
       <path id="DejaVuSans-6c" d="M 603 4863 
L 1178 4863 
L 1178 0 
L 603 0 
L 603 4863 
z
" transform="scale(0.015625)"/>
       <path id="DejaVuSans-65" d="M 3597 1894 
L 3597 1613 
L 953 1613 
Q 991 1019 1311 708 
Q 1631 397 2203 397 
Q 2534 397 2845 478 
Q 3156 559 3463 722 
L 3463 178 
Q 3153 47 2828 -22 
Q 2503 -91 2169 -91 
Q 1331 -91 842 396 
Q 353 884 353 1716 
Q 353 2575 817 3079 
Q 1281 3584 2069 3584 
Q 2775 3584 3186 3129 
Q 3597 2675 3597 1894 
z
M 3022 2063 
Q 3016 2534 2758 2815 
Q 2500 3097 2075 3097 
Q 1594 3097 1305 2825 
Q 1016 2553 972 2059 
L 3022 2063 
z
" transform="scale(0.015625)"/>
       <path id="DejaVuSans-2c" d="M 750 794 
L 1409 794 
L 1409 256 
L 897 -744 
L 494 -744 
L 750 256 
L 750 794 
z
" transform="scale(0.015625)"/>
       <path id="DejaVuSans-Oblique-6e" d="M 3566 2113 
L 3156 0 
L 2578 0 
L 2988 2091 
Q 3016 2238 3031 2350 
Q 3047 2463 3047 2528 
Q 3047 2791 2881 2937 
Q 2716 3084 2419 3084 
Q 1956 3084 1622 2776 
Q 1288 2469 1184 1941 
L 800 0 
L 225 0 
L 903 3500 
L 1478 3500 
L 1363 2950 
Q 1603 3253 1940 3418 
Q 2278 3584 2650 3584 
Q 3113 3584 3367 3334 
Q 3622 3084 3622 2631 
Q 3622 2519 3608 2391 
Q 3594 2263 3566 2113 
z
" transform="scale(0.015625)"/>
      </defs>
      <use xlink:href="#DejaVuSans-4f" transform="translate(0 0.015625)"/>
      <use xlink:href="#DejaVuSans-75" transform="translate(78.710938 0.015625)"/>
      <use xlink:href="#DejaVuSans-74" transform="translate(142.089844 0.015625)"/>
      <use xlink:href="#DejaVuSans-70" transform="translate(181.298828 0.015625)"/>
      <use xlink:href="#DejaVuSans-75" transform="translate(244.775391 0.015625)"/>
      <use xlink:href="#DejaVuSans-74" transform="translate(308.154297 0.015625)"/>
      <use xlink:href="#DejaVuSans-20" transform="translate(347.363281 0.015625)"/>
      <use xlink:href="#DejaVuSans-73" transform="translate(379.150391 0.015625)"/>
      <use xlink:href="#DejaVuSans-61" transform="translate(431.25 0.015625)"/>
      <use xlink:href="#DejaVuSans-6d" transform="translate(492.529297 0.015625)"/>
      <use xlink:href="#DejaVuSans-70" transform="translate(589.941406 0.015625)"/>
      <use xlink:href="#DejaVuSans-6c" transform="translate(653.417969 0.015625)"/>
      <use xlink:href="#DejaVuSans-65" transform="translate(681.201172 0.015625)"/>
      <use xlink:href="#DejaVuSans-2c" transform="translate(742.724609 0.015625)"/>
      <use xlink:href="#DejaVuSans-20" transform="translate(774.511719 0.015625)"/>
      <use xlink:href="#DejaVuSans-Oblique-6e" transform="translate(806.298828 0.015625)"/>
     </g>
    </g>
   </g>
   <g id="matplotlib.axis_2">
    <g id="ytick_1">
     <g id="line2d_17">
      <path d="M 50.165625 240.053523 
L 568.8 240.053523 
" clip-path="url(#p34ee4e4ec8)" style="fill: none; stroke-dasharray: 2.96,1.28; stroke-dashoffset: 0; stroke: #b0b0b0; stroke-opacity: 0.8; stroke-width: 0.8"/>
     </g>
     <g id="line2d_18">
      <defs>
       <path id="m0a821d2d3b" d="M 0 0 
L -3.5 0 
" style="stroke: #000000; stroke-width: 0.8"/>
      </defs>
      <g>
       <use xlink:href="#m0a821d2d3b" x="50.165625" y="240.053523" style="stroke: #000000; stroke-width: 0.8"/>
      </g>
     </g>
     <g id="text_10">
      <!-- 0.0 -->
      <g transform="translate(27.2625 243.852741) scale(0.1 -0.1)">
       <defs>
        <path id="DejaVuSans-2e" d="M 684 794 
L 1344 794 
L 1344 0 
L 684 0 
L 684 794 
z
" transform="scale(0.015625)"/>
       </defs>
       <use xlink:href="#DejaVuSans-30"/>
       <use xlink:href="#DejaVuSans-2e" transform="translate(63.623047 0)"/>
       <use xlink:href="#DejaVuSans-30" transform="translate(95.410156 0)"/>
      </g>
     </g>
    </g>
    <g id="ytick_2">
     <g id="line2d_19">
      <path d="M 50.165625 211.017037 
L 568.8 211.017037 
" clip-path="url(#p34ee4e4ec8)" style="fill: none; stroke-dasharray: 2.96,1.28; stroke-dashoffset: 0; stroke: #b0b0b0; stroke-opacity: 0.8; stroke-width: 0.8"/>
     </g>
     <g id="line2d_20">
      <g>
       <use xlink:href="#m0a821d2d3b" x="50.165625" y="211.017037" style="stroke: #000000; stroke-width: 0.8"/>
      </g>
     </g>
     <g id="text_11">
      <!-- 2.5 -->
      <g transform="translate(27.2625 214.816256) scale(0.1 -0.1)">
       <use xlink:href="#DejaVuSans-32"/>
       <use xlink:href="#DejaVuSans-2e" transform="translate(63.623047 0)"/>
       <use xlink:href="#DejaVuSans-35" transform="translate(95.410156 0)"/>
      </g>
     </g>
    </g>
    <g id="ytick_3">
     <g id="line2d_21">
      <path d="M 50.165625 181.980551 
L 568.8 181.980551 
" clip-path="url(#p34ee4e4ec8)" style="fill: none; stroke-dasharray: 2.96,1.28; stroke-dashoffset: 0; stroke: #b0b0b0; stroke-opacity: 0.8; stroke-width: 0.8"/>
     </g>
     <g id="line2d_22">
      <g>
       <use xlink:href="#m0a821d2d3b" x="50.165625" y="181.980551" style="stroke: #000000; stroke-width: 0.8"/>
      </g>
     </g>
     <g id="text_12">
      <!-- 5.0 -->
      <g transform="translate(27.2625 185.77977) scale(0.1 -0.1)">
       <use xlink:href="#DejaVuSans-35"/>
       <use xlink:href="#DejaVuSans-2e" transform="translate(63.623047 0)"/>
       <use xlink:href="#DejaVuSans-30" transform="translate(95.410156 0)"/>
      </g>
     </g>
    </g>
    <g id="ytick_4">
     <g id="line2d_23">
      <path d="M 50.165625 152.944066 
L 568.8 152.944066 
" clip-path="url(#p34ee4e4ec8)" style="fill: none; stroke-dasharray: 2.96,1.28; stroke-dashoffset: 0; stroke: #b0b0b0; stroke-opacity: 0.8; stroke-width: 0.8"/>
     </g>
     <g id="line2d_24">
      <g>
       <use xlink:href="#m0a821d2d3b" x="50.165625" y="152.944066" style="stroke: #000000; stroke-width: 0.8"/>
      </g>
     </g>
     <g id="text_13">
      <!-- 7.5 -->
      <g transform="translate(27.2625 156.743284) scale(0.1 -0.1)">
       <defs>
        <path id="DejaVuSans-37" d="M 525 4666 
L 3525 4666 
L 3525 4397 
L 1831 0 
L 1172 0 
L 2766 4134 
L 525 4134 
L 525 4666 
z
" transform="scale(0.015625)"/>
       </defs>
       <use xlink:href="#DejaVuSans-37"/>
       <use xlink:href="#DejaVuSans-2e" transform="translate(63.623047 0)"/>
       <use xlink:href="#DejaVuSans-35" transform="translate(95.410156 0)"/>
      </g>
     </g>
    </g>
    <g id="ytick_5">
     <g id="line2d_25">
      <path d="M 50.165625 123.90758 
L 568.8 123.90758 
" clip-path="url(#p34ee4e4ec8)" style="fill: none; stroke-dasharray: 2.96,1.28; stroke-dashoffset: 0; stroke: #b0b0b0; stroke-opacity: 0.8; stroke-width: 0.8"/>
     </g>
     <g id="line2d_26">
      <g>
       <use xlink:href="#m0a821d2d3b" x="50.165625" y="123.90758" style="stroke: #000000; stroke-width: 0.8"/>
      </g>
     </g>
     <g id="text_14">
      <!-- 10.0 -->
      <g transform="translate(20.9 127.706799) scale(0.1 -0.1)">
       <use xlink:href="#DejaVuSans-31"/>
       <use xlink:href="#DejaVuSans-30" transform="translate(63.623047 0)"/>
       <use xlink:href="#DejaVuSans-2e" transform="translate(127.246094 0)"/>
       <use xlink:href="#DejaVuSans-30" transform="translate(159.033203 0)"/>
      </g>
     </g>
    </g>
    <g id="ytick_6">
     <g id="line2d_27">
      <path d="M 50.165625 94.871094 
L 568.8 94.871094 
" clip-path="url(#p34ee4e4ec8)" style="fill: none; stroke-dasharray: 2.96,1.28; stroke-dashoffset: 0; stroke: #b0b0b0; stroke-opacity: 0.8; stroke-width: 0.8"/>
     </g>
     <g id="line2d_28">
      <g>
       <use xlink:href="#m0a821d2d3b" x="50.165625" y="94.871094" style="stroke: #000000; stroke-width: 0.8"/>
      </g>
     </g>
     <g id="text_15">
      <!-- 12.5 -->
      <g transform="translate(20.9 98.670313) scale(0.1 -0.1)">
       <use xlink:href="#DejaVuSans-31"/>
       <use xlink:href="#DejaVuSans-32" transform="translate(63.623047 0)"/>
       <use xlink:href="#DejaVuSans-2e" transform="translate(127.246094 0)"/>
       <use xlink:href="#DejaVuSans-35" transform="translate(159.033203 0)"/>
      </g>
     </g>
    </g>
    <g id="ytick_7">
     <g id="line2d_29">
      <path d="M 50.165625 65.834608 
L 568.8 65.834608 
" clip-path="url(#p34ee4e4ec8)" style="fill: none; stroke-dasharray: 2.96,1.28; stroke-dashoffset: 0; stroke: #b0b0b0; stroke-opacity: 0.8; stroke-width: 0.8"/>
     </g>
     <g id="line2d_30">
      <g>
       <use xlink:href="#m0a821d2d3b" x="50.165625" y="65.834608" style="stroke: #000000; stroke-width: 0.8"/>
      </g>
     </g>
     <g id="text_16">
      <!-- 15.0 -->
      <g transform="translate(20.9 69.633827) scale(0.1 -0.1)">
       <use xlink:href="#DejaVuSans-31"/>
       <use xlink:href="#DejaVuSans-35" transform="translate(63.623047 0)"/>
       <use xlink:href="#DejaVuSans-2e" transform="translate(127.246094 0)"/>
       <use xlink:href="#DejaVuSans-30" transform="translate(159.033203 0)"/>
      </g>
     </g>
    </g>
    <g id="ytick_8">
     <g id="line2d_31">
      <path d="M 50.165625 36.798123 
L 568.8 36.798123 
" clip-path="url(#p34ee4e4ec8)" style="fill: none; stroke-dasharray: 2.96,1.28; stroke-dashoffset: 0; stroke: #b0b0b0; stroke-opacity: 0.8; stroke-width: 0.8"/>
     </g>
     <g id="line2d_32">
      <g>
       <use xlink:href="#m0a821d2d3b" x="50.165625" y="36.798123" style="stroke: #000000; stroke-width: 0.8"/>
      </g>
     </g>
     <g id="text_17">
      <!-- 17.5 -->
      <g transform="translate(20.9 40.597341) scale(0.1 -0.1)">
       <use xlink:href="#DejaVuSans-31"/>
       <use xlink:href="#DejaVuSans-37" transform="translate(63.623047 0)"/>
       <use xlink:href="#DejaVuSans-2e" transform="translate(127.246094 0)"/>
       <use xlink:href="#DejaVuSans-35" transform="translate(159.033203 0)"/>
      </g>
     </g>
    </g>
    <g id="text_18">
     <!-- Input sample, $n$ -->
     <g transform="translate(14.8 175.47) rotate(-90) scale(0.1 -0.1)">
      <defs>
       <path id="DejaVuSans-49" d="M 628 4666 
L 1259 4666 
L 1259 0 
L 628 0 
L 628 4666 
z
" transform="scale(0.015625)"/>
       <path id="DejaVuSans-6e" d="M 3513 2113 
L 3513 0 
L 2938 0 
L 2938 2094 
Q 2938 2591 2744 2837 
Q 2550 3084 2163 3084 
Q 1697 3084 1428 2787 
Q 1159 2491 1159 1978 
L 1159 0 
L 581 0 
L 581 3500 
L 1159 3500 
L 1159 2956 
Q 1366 3272 1645 3428 
Q 1925 3584 2291 3584 
Q 2894 3584 3203 3211 
Q 3513 2838 3513 2113 
z
" transform="scale(0.015625)"/>
      </defs>
      <use xlink:href="#DejaVuSans-49" transform="translate(0 0.015625)"/>
      <use xlink:href="#DejaVuSans-6e" transform="translate(29.492188 0.015625)"/>
      <use xlink:href="#DejaVuSans-70" transform="translate(92.871094 0.015625)"/>
      <use xlink:href="#DejaVuSans-75" transform="translate(156.347656 0.015625)"/>
      <use xlink:href="#DejaVuSans-74" transform="translate(219.726562 0.015625)"/>
      <use xlink:href="#DejaVuSans-20" transform="translate(258.935547 0.015625)"/>
      <use xlink:href="#DejaVuSans-73" transform="translate(290.722656 0.015625)"/>
      <use xlink:href="#DejaVuSans-61" transform="translate(342.822266 0.015625)"/>
      <use xlink:href="#DejaVuSans-6d" transform="translate(404.101562 0.015625)"/>
      <use xlink:href="#DejaVuSans-70" transform="translate(501.513672 0.015625)"/>
      <use xlink:href="#DejaVuSans-6c" transform="translate(564.990234 0.015625)"/>
      <use xlink:href="#DejaVuSans-65" transform="translate(592.773438 0.015625)"/>
      <use xlink:href="#DejaVuSans-2c" transform="translate(654.296875 0.015625)"/>
      <use xlink:href="#DejaVuSans-20" transform="translate(686.083984 0.015625)"/>
      <use xlink:href="#DejaVuSans-Oblique-6e" transform="translate(717.871094 0.015625)"/>
     </g>
    </g>
   </g>
   <g id="line2d_33">
    <path d="M 73.739915 240.053523 
L 96.191619 228.438928 
L 118.643324 216.824334 
L 141.095028 205.20974 
L 163.546733 193.595146 
L 185.998438 181.980551 
L 208.450142 170.365957 
L 230.901847 158.751363 
L 253.353551 147.136768 
L 275.805256 135.522174 
L 298.25696 123.90758 
L 320.708665 112.292985 
L 343.160369 100.678391 
L 365.612074 89.063797 
L 388.063778 77.449203 
L 410.515483 65.834608 
L 432.967188 54.220014 
L 455.418892 42.60542 
" clip-path="url(#p34ee4e4ec8)" style="fill: none; stroke: #1f77b4; stroke-linecap: square"/>
    <defs>
     <path id="m155a554664" d="M 0 1.5 
C 0.397805 1.5 0.77937 1.341951 1.06066 1.06066 
C 1.341951 0.77937 1.5 0.397805 1.5 0 
C 1.5 -0.397805 1.341951 -0.77937 1.06066 -1.06066 
C 0.77937 -1.341951 0.397805 -1.5 0 -1.5 
C -0.397805 -1.5 -0.77937 -1.341951 -1.06066 -1.06066 
C -1.341951 -0.77937 -1.5 -0.397805 -1.5 0 
C -1.5 0.397805 -1.341951 0.77937 -1.06066 1.06066 
C -0.77937 1.341951 -0.397805 1.5 0 1.5 
z
" style="stroke: #1f77b4"/>
    </defs>
    <g clip-path="url(#p34ee4e4ec8)">
     <use xlink:href="#m155a554664" x="73.739915" y="240.053523" style="fill: #1f77b4; stroke: #1f77b4"/>
     <use xlink:href="#m155a554664" x="96.191619" y="228.438928" style="fill: #1f77b4; stroke: #1f77b4"/>
     <use xlink:href="#m155a554664" x="118.643324" y="216.824334" style="fill: #1f77b4; stroke: #1f77b4"/>
     <use xlink:href="#m155a554664" x="141.095028" y="205.20974" style="fill: #1f77b4; stroke: #1f77b4"/>
     <use xlink:href="#m155a554664" x="163.546733" y="193.595146" style="fill: #1f77b4; stroke: #1f77b4"/>
     <use xlink:href="#m155a554664" x="185.998438" y="181.980551" style="fill: #1f77b4; stroke: #1f77b4"/>
     <use xlink:href="#m155a554664" x="208.450142" y="170.365957" style="fill: #1f77b4; stroke: #1f77b4"/>
     <use xlink:href="#m155a554664" x="230.901847" y="158.751363" style="fill: #1f77b4; stroke: #1f77b4"/>
     <use xlink:href="#m155a554664" x="253.353551" y="147.136768" style="fill: #1f77b4; stroke: #1f77b4"/>
     <use xlink:href="#m155a554664" x="275.805256" y="135.522174" style="fill: #1f77b4; stroke: #1f77b4"/>
     <use xlink:href="#m155a554664" x="298.25696" y="123.90758" style="fill: #1f77b4; stroke: #1f77b4"/>
     <use xlink:href="#m155a554664" x="320.708665" y="112.292985" style="fill: #1f77b4; stroke: #1f77b4"/>
     <use xlink:href="#m155a554664" x="343.160369" y="100.678391" style="fill: #1f77b4; stroke: #1f77b4"/>
     <use xlink:href="#m155a554664" x="365.612074" y="89.063797" style="fill: #1f77b4; stroke: #1f77b4"/>
     <use xlink:href="#m155a554664" x="388.063778" y="77.449203" style="fill: #1f77b4; stroke: #1f77b4"/>
     <use xlink:href="#m155a554664" x="410.515483" y="65.834608" style="fill: #1f77b4; stroke: #1f77b4"/>
     <use xlink:href="#m155a554664" x="432.967188" y="54.220014" style="fill: #1f77b4; stroke: #1f77b4"/>
     <use xlink:href="#m155a554664" x="455.418892" y="42.60542" style="fill: #1f77b4; stroke: #1f77b4"/>
    </g>
   </g>
   <g id="line2d_34">
    <path d="M 73.739915 240.053523 
L 96.191619 230.68836 
L 118.643324 220.695866 
L 141.095028 211.017037 
L 163.546733 201.338208 
L 185.998438 191.65938 
L 208.450142 181.980551 
L 230.901847 172.301723 
L 253.353551 162.622894 
L 275.805256 152.944066 
L 298.25696 143.265237 
L 320.708665 133.586408 
L 343.160369 123.90758 
L 365.612074 114.228751 
L 388.063778 104.549923 
L 410.515483 94.871094 
L 432.967188 85.192265 
L 455.418892 75.513437 
L 477.870597 65.834608 
L 500.322301 56.15578 
L 522.774006 46.476951 
L 545.22571 36.798123 
" clip-path="url(#p34ee4e4ec8)" style="fill: none; stroke: #ff7f0e; stroke-linecap: square"/>
    <defs>
     <path id="ma23cfee6fb" d="M 0 1.5 
C 0.397805 1.5 0.77937 1.341951 1.06066 1.06066 
C 1.341951 0.77937 1.5 0.397805 1.5 0 
C 1.5 -0.397805 1.341951 -0.77937 1.06066 -1.06066 
C 0.77937 -1.341951 0.397805 -1.5 0 -1.5 
C -0.397805 -1.5 -0.77937 -1.341951 -1.06066 -1.06066 
C -1.341951 -0.77937 -1.5 -0.397805 -1.5 0 
C -1.5 0.397805 -1.341951 0.77937 -1.06066 1.06066 
C -0.77937 1.341951 -0.397805 1.5 0 1.5 
z
" style="stroke: #ff7f0e"/>
    </defs>
    <g clip-path="url(#p34ee4e4ec8)">
     <use xlink:href="#ma23cfee6fb" x="73.739915" y="240.053523" style="fill: #ff7f0e; stroke: #ff7f0e"/>
     <use xlink:href="#ma23cfee6fb" x="96.191619" y="230.68836" style="fill: #ff7f0e; stroke: #ff7f0e"/>
     <use xlink:href="#ma23cfee6fb" x="118.643324" y="220.695866" style="fill: #ff7f0e; stroke: #ff7f0e"/>
     <use xlink:href="#ma23cfee6fb" x="141.095028" y="211.017037" style="fill: #ff7f0e; stroke: #ff7f0e"/>
     <use xlink:href="#ma23cfee6fb" x="163.546733" y="201.338208" style="fill: #ff7f0e; stroke: #ff7f0e"/>
     <use xlink:href="#ma23cfee6fb" x="185.998438" y="191.65938" style="fill: #ff7f0e; stroke: #ff7f0e"/>
     <use xlink:href="#ma23cfee6fb" x="208.450142" y="181.980551" style="fill: #ff7f0e; stroke: #ff7f0e"/>
     <use xlink:href="#ma23cfee6fb" x="230.901847" y="172.301723" style="fill: #ff7f0e; stroke: #ff7f0e"/>
     <use xlink:href="#ma23cfee6fb" x="253.353551" y="162.622894" style="fill: #ff7f0e; stroke: #ff7f0e"/>
     <use xlink:href="#ma23cfee6fb" x="275.805256" y="152.944066" style="fill: #ff7f0e; stroke: #ff7f0e"/>
     <use xlink:href="#ma23cfee6fb" x="298.25696" y="143.265237" style="fill: #ff7f0e; stroke: #ff7f0e"/>
     <use xlink:href="#ma23cfee6fb" x="320.708665" y="133.586408" style="fill: #ff7f0e; stroke: #ff7f0e"/>
     <use xlink:href="#ma23cfee6fb" x="343.160369" y="123.90758" style="fill: #ff7f0e; stroke: #ff7f0e"/>
     <use xlink:href="#ma23cfee6fb" x="365.612074" y="114.228751" style="fill: #ff7f0e; stroke: #ff7f0e"/>
     <use xlink:href="#ma23cfee6fb" x="388.063778" y="104.549923" style="fill: #ff7f0e; stroke: #ff7f0e"/>
     <use xlink:href="#ma23cfee6fb" x="410.515483" y="94.871094" style="fill: #ff7f0e; stroke: #ff7f0e"/>
     <use xlink:href="#ma23cfee6fb" x="432.967188" y="85.192265" style="fill: #ff7f0e; stroke: #ff7f0e"/>
     <use xlink:href="#ma23cfee6fb" x="455.418892" y="75.513437" style="fill: #ff7f0e; stroke: #ff7f0e"/>
     <use xlink:href="#ma23cfee6fb" x="477.870597" y="65.834608" style="fill: #ff7f0e; stroke: #ff7f0e"/>
     <use xlink:href="#ma23cfee6fb" x="500.322301" y="56.15578" style="fill: #ff7f0e; stroke: #ff7f0e"/>
     <use xlink:href="#ma23cfee6fb" x="522.774006" y="46.476951" style="fill: #ff7f0e; stroke: #ff7f0e"/>
     <use xlink:href="#ma23cfee6fb" x="545.22571" y="36.798123" style="fill: #ff7f0e; stroke: #ff7f0e"/>
    </g>
   </g>
   <g id="line2d_35">
    <path d="M 73.739915 240.053523 
L 96.191619 230.68836 
L 118.643324 220.695866 
L 141.095028 210.935702 
L 163.546733 201.092826 
L 185.998438 191.165822 
L 208.450142 181.153241 
L 230.901847 171.053594 
L 253.353551 160.953946 
L 275.805256 150.765706 
L 298.25696 140.487304 
L 320.708665 130.11713 
L 343.160369 119.653532 
L 365.612074 109.09481 
L 388.063778 98.439219 
L 410.515483 87.684965 
L 432.967188 76.830204 
L 455.418892 65.873039 
L 477.870597 54.915875 
L 500.322301 43.854356 
L 522.774006 32.686477 
" clip-path="url(#p34ee4e4ec8)" style="fill: none; stroke: #2ca02c; stroke-linecap: square"/>
    <defs>
     <path id="m7a98f92310" d="M 0 1.5 
C 0.397805 1.5 0.77937 1.341951 1.06066 1.06066 
C 1.341951 0.77937 1.5 0.397805 1.5 0 
C 1.5 -0.397805 1.341951 -0.77937 1.06066 -1.06066 
C 0.77937 -1.341951 0.397805 -1.5 0 -1.5 
C -0.397805 -1.5 -0.77937 -1.341951 -1.06066 -1.06066 
C -1.341951 -0.77937 -1.5 -0.397805 -1.5 0 
C -1.5 0.397805 -1.341951 0.77937 -1.06066 1.06066 
C -0.77937 1.341951 -0.397805 1.5 0 1.5 
z
" style="stroke: #2ca02c"/>
    </defs>
    <g clip-path="url(#p34ee4e4ec8)">
     <use xlink:href="#m7a98f92310" x="73.739915" y="240.053523" style="fill: #2ca02c; stroke: #2ca02c"/>
     <use xlink:href="#m7a98f92310" x="96.191619" y="230.68836" style="fill: #2ca02c; stroke: #2ca02c"/>
     <use xlink:href="#m7a98f92310" x="118.643324" y="220.695866" style="fill: #2ca02c; stroke: #2ca02c"/>
     <use xlink:href="#m7a98f92310" x="141.095028" y="210.935702" style="fill: #2ca02c; stroke: #2ca02c"/>
     <use xlink:href="#m7a98f92310" x="163.546733" y="201.092826" style="fill: #2ca02c; stroke: #2ca02c"/>
     <use xlink:href="#m7a98f92310" x="185.998438" y="191.165822" style="fill: #2ca02c; stroke: #2ca02c"/>
     <use xlink:href="#m7a98f92310" x="208.450142" y="181.153241" style="fill: #2ca02c; stroke: #2ca02c"/>
     <use xlink:href="#m7a98f92310" x="230.901847" y="171.053594" style="fill: #2ca02c; stroke: #2ca02c"/>
     <use xlink:href="#m7a98f92310" x="253.353551" y="160.953946" style="fill: #2ca02c; stroke: #2ca02c"/>
     <use xlink:href="#m7a98f92310" x="275.805256" y="150.765706" style="fill: #2ca02c; stroke: #2ca02c"/>
     <use xlink:href="#m7a98f92310" x="298.25696" y="140.487304" style="fill: #2ca02c; stroke: #2ca02c"/>
     <use xlink:href="#m7a98f92310" x="320.708665" y="130.11713" style="fill: #2ca02c; stroke: #2ca02c"/>
     <use xlink:href="#m7a98f92310" x="343.160369" y="119.653532" style="fill: #2ca02c; stroke: #2ca02c"/>
     <use xlink:href="#m7a98f92310" x="365.612074" y="109.09481" style="fill: #2ca02c; stroke: #2ca02c"/>
     <use xlink:href="#m7a98f92310" x="388.063778" y="98.439219" style="fill: #2ca02c; stroke: #2ca02c"/>
     <use xlink:href="#m7a98f92310" x="410.515483" y="87.684965" style="fill: #2ca02c; stroke: #2ca02c"/>
     <use xlink:href="#m7a98f92310" x="432.967188" y="76.830204" style="fill: #2ca02c; stroke: #2ca02c"/>
     <use xlink:href="#m7a98f92310" x="455.418892" y="65.873039" style="fill: #2ca02c; stroke: #2ca02c"/>
     <use xlink:href="#m7a98f92310" x="477.870597" y="54.915875" style="fill: #2ca02c; stroke: #2ca02c"/>
     <use xlink:href="#m7a98f92310" x="500.322301" y="43.854356" style="fill: #2ca02c; stroke: #2ca02c"/>
     <use xlink:href="#m7a98f92310" x="522.774006" y="32.686477" style="fill: #2ca02c; stroke: #2ca02c"/>
    </g>
   </g>
   <g id="line2d_36">
    <path d="M 73.739915 240.053523 
L 96.191619 230.68836 
L 118.643324 220.695866 
L 141.095028 210.852989 
L 163.546733 200.840408 
L 185.998438 190.652167 
L 208.450142 180.281994 
L 230.901847 169.723272 
L 253.353551 158.969018 
L 275.805256 148.214764 
L 298.25696 137.257599 
L 320.708665 126.08972 
L 343.160369 114.702863 
L 365.612074 103.088269 
L 388.063778 91.236642 
L 410.515483 79.138106 
L 432.967188 66.782155 
L 455.418892 54.157596 
L 477.870597 40.959193 
" clip-path="url(#p34ee4e4ec8)" style="fill: none; stroke: #d62728; stroke-linecap: square"/>
    <defs>
     <path id="m47dac006c3" d="M 0 1.5 
C 0.397805 1.5 0.77937 1.341951 1.06066 1.06066 
C 1.341951 0.77937 1.5 0.397805 1.5 0 
C 1.5 -0.397805 1.341951 -0.77937 1.06066 -1.06066 
C 0.77937 -1.341951 0.397805 -1.5 0 -1.5 
C -0.397805 -1.5 -0.77937 -1.341951 -1.06066 -1.06066 
C -1.341951 -0.77937 -1.5 -0.397805 -1.5 0 
C -1.5 0.397805 -1.341951 0.77937 -1.06066 1.06066 
C -0.77937 1.341951 -0.397805 1.5 0 1.5 
z
" style="stroke: #d62728"/>
    </defs>
    <g clip-path="url(#p34ee4e4ec8)">
     <use xlink:href="#m47dac006c3" x="73.739915" y="240.053523" style="fill: #d62728; stroke: #d62728"/>
     <use xlink:href="#m47dac006c3" x="96.191619" y="230.68836" style="fill: #d62728; stroke: #d62728"/>
     <use xlink:href="#m47dac006c3" x="118.643324" y="220.695866" style="fill: #d62728; stroke: #d62728"/>
     <use xlink:href="#m47dac006c3" x="141.095028" y="210.852989" style="fill: #d62728; stroke: #d62728"/>
     <use xlink:href="#m47dac006c3" x="163.546733" y="200.840408" style="fill: #d62728; stroke: #d62728"/>
     <use xlink:href="#m47dac006c3" x="185.998438" y="190.652167" style="fill: #d62728; stroke: #d62728"/>
     <use xlink:href="#m47dac006c3" x="208.450142" y="180.281994" style="fill: #d62728; stroke: #d62728"/>
     <use xlink:href="#m47dac006c3" x="230.901847" y="169.723272" style="fill: #d62728; stroke: #d62728"/>
     <use xlink:href="#m47dac006c3" x="253.353551" y="158.969018" style="fill: #d62728; stroke: #d62728"/>
     <use xlink:href="#m47dac006c3" x="275.805256" y="148.214764" style="fill: #d62728; stroke: #d62728"/>
     <use xlink:href="#m47dac006c3" x="298.25696" y="137.257599" style="fill: #d62728; stroke: #d62728"/>
     <use xlink:href="#m47dac006c3" x="320.708665" y="126.08972" style="fill: #d62728; stroke: #d62728"/>
     <use xlink:href="#m47dac006c3" x="343.160369" y="114.702863" style="fill: #d62728; stroke: #d62728"/>
     <use xlink:href="#m47dac006c3" x="365.612074" y="103.088269" style="fill: #d62728; stroke: #d62728"/>
     <use xlink:href="#m47dac006c3" x="388.063778" y="91.236642" style="fill: #d62728; stroke: #d62728"/>
     <use xlink:href="#m47dac006c3" x="410.515483" y="79.138106" style="fill: #d62728; stroke: #d62728"/>
     <use xlink:href="#m47dac006c3" x="432.967188" y="66.782155" style="fill: #d62728; stroke: #d62728"/>
     <use xlink:href="#m47dac006c3" x="455.418892" y="54.157596" style="fill: #d62728; stroke: #d62728"/>
     <use xlink:href="#m47dac006c3" x="477.870597" y="40.959193" style="fill: #d62728; stroke: #d62728"/>
    </g>
   </g>
   <g id="line2d_37">
    <path d="M 73.739915 240.053523 
L 96.191619 230.68836 
L 118.643324 220.695866 
L 141.095028 210.683284 
L 163.546733 200.313111 
L 185.998438 189.558857 
L 208.450142 178.390978 
L 230.901847 166.776383 
L 253.353551 154.677848 
L 275.805256 142.053289 
L 298.25696 128.854886 
L 320.708665 115.027988 
L 343.160369 100.509745 
L 365.612074 84.378364 
L 388.063778 67.298079 
L 410.515483 49.150275 
" clip-path="url(#p34ee4e4ec8)" style="fill: none; stroke: #9467bd; stroke-linecap: square"/>
    <defs>
     <path id="me17119d378" d="M 0 1.5 
C 0.397805 1.5 0.77937 1.341951 1.06066 1.06066 
C 1.341951 0.77937 1.5 0.397805 1.5 0 
C 1.5 -0.397805 1.341951 -0.77937 1.06066 -1.06066 
C 0.77937 -1.341951 0.397805 -1.5 0 -1.5 
C -0.397805 -1.5 -0.77937 -1.341951 -1.06066 -1.06066 
C -1.341951 -0.77937 -1.5 -0.397805 -1.5 0 
C -1.5 0.397805 -1.341951 0.77937 -1.06066 1.06066 
C -0.77937 1.341951 -0.397805 1.5 0 1.5 
z
" style="stroke: #9467bd"/>
    </defs>
    <g clip-path="url(#p34ee4e4ec8)">
     <use xlink:href="#me17119d378" x="73.739915" y="240.053523" style="fill: #9467bd; stroke: #9467bd"/>
     <use xlink:href="#me17119d378" x="96.191619" y="230.68836" style="fill: #9467bd; stroke: #9467bd"/>
     <use xlink:href="#me17119d378" x="118.643324" y="220.695866" style="fill: #9467bd; stroke: #9467bd"/>
     <use xlink:href="#me17119d378" x="141.095028" y="210.683284" style="fill: #9467bd; stroke: #9467bd"/>
     <use xlink:href="#me17119d378" x="163.546733" y="200.313111" style="fill: #9467bd; stroke: #9467bd"/>
     <use xlink:href="#me17119d378" x="185.998438" y="189.558857" style="fill: #9467bd; stroke: #9467bd"/>
     <use xlink:href="#me17119d378" x="208.450142" y="178.390978" style="fill: #9467bd; stroke: #9467bd"/>
     <use xlink:href="#me17119d378" x="230.901847" y="166.776383" style="fill: #9467bd; stroke: #9467bd"/>
     <use xlink:href="#me17119d378" x="253.353551" y="154.677848" style="fill: #9467bd; stroke: #9467bd"/>
     <use xlink:href="#me17119d378" x="275.805256" y="142.053289" style="fill: #9467bd; stroke: #9467bd"/>
     <use xlink:href="#me17119d378" x="298.25696" y="128.854886" style="fill: #9467bd; stroke: #9467bd"/>
     <use xlink:href="#me17119d378" x="320.708665" y="115.027988" style="fill: #9467bd; stroke: #9467bd"/>
     <use xlink:href="#me17119d378" x="343.160369" y="100.509745" style="fill: #9467bd; stroke: #9467bd"/>
     <use xlink:href="#me17119d378" x="365.612074" y="84.378364" style="fill: #9467bd; stroke: #9467bd"/>
     <use xlink:href="#me17119d378" x="388.063778" y="67.298079" style="fill: #9467bd; stroke: #9467bd"/>
     <use xlink:href="#me17119d378" x="410.515483" y="49.150275" style="fill: #9467bd; stroke: #9467bd"/>
    </g>
   </g>
   <g id="patch_3">
    <path d="M 50.165625 250.421875 
L 50.165625 22.318125 
" style="fill: none; stroke: #000000; stroke-width: 0.8; stroke-linejoin: miter; stroke-linecap: square"/>
   </g>
   <g id="patch_4">
    <path d="M 568.8 250.421875 
L 568.8 22.318125 
" style="fill: none; stroke: #000000; stroke-width: 0.8; stroke-linejoin: miter; stroke-linecap: square"/>
   </g>
   <g id="patch_5">
    <path d="M 50.165625 250.421875 
L 568.8 250.421875 
" style="fill: none; stroke: #000000; stroke-width: 0.8; stroke-linejoin: miter; stroke-linecap: square"/>
   </g>
   <g id="patch_6">
    <path d="M 50.165625 22.318125 
L 568.8 22.318125 
" style="fill: none; stroke: #000000; stroke-width: 0.8; stroke-linejoin: miter; stroke-linecap: square"/>
   </g>
   <g id="text_19">
    <!-- Constant sample rate offset rate -->
    <g transform="translate(211.6275 16.318125) scale(0.12 -0.12)">
     <defs>
      <path id="DejaVuSans-43" d="M 4122 4306 
L 4122 3641 
Q 3803 3938 3442 4084 
Q 3081 4231 2675 4231 
Q 1875 4231 1450 3742 
Q 1025 3253 1025 2328 
Q 1025 1406 1450 917 
Q 1875 428 2675 428 
Q 3081 428 3442 575 
Q 3803 722 4122 1019 
L 4122 359 
Q 3791 134 3420 21 
Q 3050 -91 2638 -91 
Q 1578 -91 968 557 
Q 359 1206 359 2328 
Q 359 3453 968 4101 
Q 1578 4750 2638 4750 
Q 3056 4750 3426 4639 
Q 3797 4528 4122 4306 
z
" transform="scale(0.015625)"/>
      <path id="DejaVuSans-6f" d="M 1959 3097 
Q 1497 3097 1228 2736 
Q 959 2375 959 1747 
Q 959 1119 1226 758 
Q 1494 397 1959 397 
Q 2419 397 2687 759 
Q 2956 1122 2956 1747 
Q 2956 2369 2687 2733 
Q 2419 3097 1959 3097 
z
M 1959 3584 
Q 2709 3584 3137 3096 
Q 3566 2609 3566 1747 
Q 3566 888 3137 398 
Q 2709 -91 1959 -91 
Q 1206 -91 779 398 
Q 353 888 353 1747 
Q 353 2609 779 3096 
Q 1206 3584 1959 3584 
z
" transform="scale(0.015625)"/>
      <path id="DejaVuSans-72" d="M 2631 2963 
Q 2534 3019 2420 3045 
Q 2306 3072 2169 3072 
Q 1681 3072 1420 2755 
Q 1159 2438 1159 1844 
L 1159 0 
L 581 0 
L 581 3500 
L 1159 3500 
L 1159 2956 
Q 1341 3275 1631 3429 
Q 1922 3584 2338 3584 
Q 2397 3584 2469 3576 
Q 2541 3569 2628 3553 
L 2631 2963 
z
" transform="scale(0.015625)"/>
      <path id="DejaVuSans-66" d="M 2375 4863 
L 2375 4384 
L 1825 4384 
Q 1516 4384 1395 4259 
Q 1275 4134 1275 3809 
L 1275 3500 
L 2222 3500 
L 2222 3053 
L 1275 3053 
L 1275 0 
L 697 0 
L 697 3053 
L 147 3053 
L 147 3500 
L 697 3500 
L 697 3744 
Q 697 4328 969 4595 
Q 1241 4863 1831 4863 
L 2375 4863 
z
" transform="scale(0.015625)"/>
     </defs>
     <use xlink:href="#DejaVuSans-43"/>
     <use xlink:href="#DejaVuSans-6f" transform="translate(69.824219 0)"/>
     <use xlink:href="#DejaVuSans-6e" transform="translate(131.005859 0)"/>
     <use xlink:href="#DejaVuSans-73" transform="translate(194.384766 0)"/>
     <use xlink:href="#DejaVuSans-74" transform="translate(246.484375 0)"/>
     <use xlink:href="#DejaVuSans-61" transform="translate(285.693359 0)"/>
     <use xlink:href="#DejaVuSans-6e" transform="translate(346.972656 0)"/>
     <use xlink:href="#DejaVuSans-74" transform="translate(410.351562 0)"/>
     <use xlink:href="#DejaVuSans-20" transform="translate(449.560547 0)"/>
     <use xlink:href="#DejaVuSans-73" transform="translate(481.347656 0)"/>
     <use xlink:href="#DejaVuSans-61" transform="translate(533.447266 0)"/>
     <use xlink:href="#DejaVuSans-6d" transform="translate(594.726562 0)"/>
     <use xlink:href="#DejaVuSans-70" transform="translate(692.138672 0)"/>
     <use xlink:href="#DejaVuSans-6c" transform="translate(755.615234 0)"/>
     <use xlink:href="#DejaVuSans-65" transform="translate(783.398438 0)"/>
     <use xlink:href="#DejaVuSans-20" transform="translate(844.921875 0)"/>
     <use xlink:href="#DejaVuSans-72" transform="translate(876.708984 0)"/>
     <use xlink:href="#DejaVuSans-61" transform="translate(917.822266 0)"/>
     <use xlink:href="#DejaVuSans-74" transform="translate(979.101562 0)"/>
     <use xlink:href="#DejaVuSans-65" transform="translate(1018.310547 0)"/>
     <use xlink:href="#DejaVuSans-20" transform="translate(1079.833984 0)"/>
     <use xlink:href="#DejaVuSans-6f" transform="translate(1111.621094 0)"/>
     <use xlink:href="#DejaVuSans-66" transform="translate(1172.802734 0)"/>
     <use xlink:href="#DejaVuSans-66" transform="translate(1208.007812 0)"/>
     <use xlink:href="#DejaVuSans-73" transform="translate(1243.212891 0)"/>
     <use xlink:href="#DejaVuSans-65" transform="translate(1295.3125 0)"/>
     <use xlink:href="#DejaVuSans-74" transform="translate(1356.835938 0)"/>
     <use xlink:href="#DejaVuSans-20" transform="translate(1396.044922 0)"/>
     <use xlink:href="#DejaVuSans-72" transform="translate(1427.832031 0)"/>
     <use xlink:href="#DejaVuSans-61" transform="translate(1468.945312 0)"/>
     <use xlink:href="#DejaVuSans-74" transform="translate(1530.224609 0)"/>
     <use xlink:href="#DejaVuSans-65" transform="translate(1569.433594 0)"/>
    </g>
   </g>
   <g id="legend_1">
    <g id="patch_7">
     <path d="M 57.165625 118.386875 
L 149.021875 118.386875 
Q 151.021875 118.386875 151.021875 116.386875 
L 151.021875 29.318125 
Q 151.021875 27.318125 149.021875 27.318125 
L 57.165625 27.318125 
Q 55.165625 27.318125 55.165625 29.318125 
L 55.165625 116.386875 
Q 55.165625 118.386875 57.165625 118.386875 
z
" style="fill: #ffffff; opacity: 0.8; stroke: #cccccc; stroke-linejoin: miter"/>
    </g>
    <g id="text_20">
     <!-- Offset -->
     <g transform="translate(87.996094 38.916562) scale(0.1 -0.1)">
      <use xlink:href="#DejaVuSans-4f"/>
      <use xlink:href="#DejaVuSans-66" transform="translate(78.710938 0)"/>
      <use xlink:href="#DejaVuSans-66" transform="translate(113.916016 0)"/>
      <use xlink:href="#DejaVuSans-73" transform="translate(149.121094 0)"/>
      <use xlink:href="#DejaVuSans-65" transform="translate(201.220703 0)"/>
      <use xlink:href="#DejaVuSans-74" transform="translate(262.744141 0)"/>
     </g>
    </g>
    <g id="line2d_38">
     <path d="M 59.165625 50.094687 
L 69.165625 50.094687 
L 79.165625 50.094687 
" style="fill: none; stroke: #1f77b4; stroke-linecap: square"/>
     <g>
      <use xlink:href="#m155a554664" x="69.165625" y="50.094687" style="fill: #1f77b4; stroke: #1f77b4"/>
     </g>
    </g>
    <g id="text_21">
     <!-- 0 -->
     <g transform="translate(87.165625 53.594687) scale(0.1 -0.1)">
      <use xlink:href="#DejaVuSans-30"/>
     </g>
    </g>
    <g id="line2d_39">
     <path d="M 59.165625 64.772812 
L 69.165625 64.772812 
L 79.165625 64.772812 
" style="fill: none; stroke: #ff7f0e; stroke-linecap: square"/>
     <g>
      <use xlink:href="#ma23cfee6fb" x="69.165625" y="64.772812" style="fill: #ff7f0e; stroke: #ff7f0e"/>
     </g>
    </g>
    <g id="text_22">
     <!-- 0.2 + 0/n -->
     <g transform="translate(87.165625 68.272812) scale(0.1 -0.1)">
      <defs>
       <path id="DejaVuSans-2b" d="M 2944 4013 
L 2944 2272 
L 4684 2272 
L 4684 1741 
L 2944 1741 
L 2944 0 
L 2419 0 
L 2419 1741 
L 678 1741 
L 678 2272 
L 2419 2272 
L 2419 4013 
L 2944 4013 
z
" transform="scale(0.015625)"/>
       <path id="DejaVuSans-2f" d="M 1625 4666 
L 2156 4666 
L 531 -594 
L 0 -594 
L 1625 4666 
z
" transform="scale(0.015625)"/>
      </defs>
      <use xlink:href="#DejaVuSans-30"/>
      <use xlink:href="#DejaVuSans-2e" transform="translate(63.623047 0)"/>
      <use xlink:href="#DejaVuSans-32" transform="translate(95.410156 0)"/>
      <use xlink:href="#DejaVuSans-20" transform="translate(159.033203 0)"/>
      <use xlink:href="#DejaVuSans-2b" transform="translate(190.820312 0)"/>
      <use xlink:href="#DejaVuSans-20" transform="translate(274.609375 0)"/>
      <use xlink:href="#DejaVuSans-30" transform="translate(306.396484 0)"/>
      <use xlink:href="#DejaVuSans-2f" transform="translate(370.019531 0)"/>
      <use xlink:href="#DejaVuSans-6e" transform="translate(403.710938 0)"/>
     </g>
    </g>
    <g id="line2d_40">
     <path d="M 59.165625 79.450938 
L 69.165625 79.450938 
L 79.165625 79.450938 
" style="fill: none; stroke: #2ca02c; stroke-linecap: square"/>
     <g>
      <use xlink:href="#m7a98f92310" x="69.165625" y="79.450938" style="fill: #2ca02c; stroke: #2ca02c"/>
     </g>
    </g>
    <g id="text_23">
     <!-- 0.2 + -0.2/n -->
     <g transform="translate(87.165625 82.950938) scale(0.1 -0.1)">
      <defs>
       <path id="DejaVuSans-2d" d="M 313 2009 
L 1997 2009 
L 1997 1497 
L 313 1497 
L 313 2009 
z
" transform="scale(0.015625)"/>
      </defs>
      <use xlink:href="#DejaVuSans-30"/>
      <use xlink:href="#DejaVuSans-2e" transform="translate(63.623047 0)"/>
      <use xlink:href="#DejaVuSans-32" transform="translate(95.410156 0)"/>
      <use xlink:href="#DejaVuSans-20" transform="translate(159.033203 0)"/>
      <use xlink:href="#DejaVuSans-2b" transform="translate(190.820312 0)"/>
      <use xlink:href="#DejaVuSans-20" transform="translate(274.609375 0)"/>
      <use xlink:href="#DejaVuSans-2d" transform="translate(306.396484 0)"/>
      <use xlink:href="#DejaVuSans-30" transform="translate(342.480469 0)"/>
      <use xlink:href="#DejaVuSans-2e" transform="translate(406.103516 0)"/>
      <use xlink:href="#DejaVuSans-32" transform="translate(437.890625 0)"/>
      <use xlink:href="#DejaVuSans-2f" transform="translate(501.513672 0)"/>
      <use xlink:href="#DejaVuSans-6e" transform="translate(535.205078 0)"/>
     </g>
    </g>
    <g id="line2d_41">
     <path d="M 59.165625 94.129063 
L 69.165625 94.129063 
L 79.165625 94.129063 
" style="fill: none; stroke: #d62728; stroke-linecap: square"/>
     <g>
      <use xlink:href="#m47dac006c3" x="69.165625" y="94.129063" style="fill: #d62728; stroke: #d62728"/>
     </g>
    </g>
    <g id="text_24">
     <!-- 0.2 + -0.4/n -->
     <g transform="translate(87.165625 97.629063) scale(0.1 -0.1)">
      <defs>
       <path id="DejaVuSans-34" d="M 2419 4116 
L 825 1625 
L 2419 1625 
L 2419 4116 
z
M 2253 4666 
L 3047 4666 
L 3047 1625 
L 3713 1625 
L 3713 1100 
L 3047 1100 
L 3047 0 
L 2419 0 
L 2419 1100 
L 313 1100 
L 313 1709 
L 2253 4666 
z
" transform="scale(0.015625)"/>
      </defs>
      <use xlink:href="#DejaVuSans-30"/>
      <use xlink:href="#DejaVuSans-2e" transform="translate(63.623047 0)"/>
      <use xlink:href="#DejaVuSans-32" transform="translate(95.410156 0)"/>
      <use xlink:href="#DejaVuSans-20" transform="translate(159.033203 0)"/>
      <use xlink:href="#DejaVuSans-2b" transform="translate(190.820312 0)"/>
      <use xlink:href="#DejaVuSans-20" transform="translate(274.609375 0)"/>
      <use xlink:href="#DejaVuSans-2d" transform="translate(306.396484 0)"/>
      <use xlink:href="#DejaVuSans-30" transform="translate(342.480469 0)"/>
      <use xlink:href="#DejaVuSans-2e" transform="translate(406.103516 0)"/>
      <use xlink:href="#DejaVuSans-34" transform="translate(437.890625 0)"/>
      <use xlink:href="#DejaVuSans-2f" transform="translate(501.513672 0)"/>
      <use xlink:href="#DejaVuSans-6e" transform="translate(535.205078 0)"/>
     </g>
    </g>
    <g id="line2d_42">
     <path d="M 59.165625 108.807187 
L 69.165625 108.807187 
L 79.165625 108.807187 
" style="fill: none; stroke: #9467bd; stroke-linecap: square"/>
     <g>
      <use xlink:href="#me17119d378" x="69.165625" y="108.807187" style="fill: #9467bd; stroke: #9467bd"/>
     </g>
    </g>
    <g id="text_25">
     <!-- 0.2 + -0.8/n -->
     <g transform="translate(87.165625 112.307187) scale(0.1 -0.1)">
      <use xlink:href="#DejaVuSans-30"/>
      <use xlink:href="#DejaVuSans-2e" transform="translate(63.623047 0)"/>
      <use xlink:href="#DejaVuSans-32" transform="translate(95.410156 0)"/>
      <use xlink:href="#DejaVuSans-20" transform="translate(159.033203 0)"/>
      <use xlink:href="#DejaVuSans-2b" transform="translate(190.820312 0)"/>
      <use xlink:href="#DejaVuSans-20" transform="translate(274.609375 0)"/>
      <use xlink:href="#DejaVuSans-2d" transform="translate(306.396484 0)"/>
      <use xlink:href="#DejaVuSans-30" transform="translate(342.480469 0)"/>
      <use xlink:href="#DejaVuSans-2e" transform="translate(406.103516 0)"/>
      <use xlink:href="#DejaVuSans-38" transform="translate(437.890625 0)"/>
      <use xlink:href="#DejaVuSans-2f" transform="translate(501.513672 0)"/>
      <use xlink:href="#DejaVuSans-6e" transform="translate(535.205078 0)"/>
     </g>
    </g>
   </g>
  </g>
 </g>
 <defs>
  <clipPath id="p34ee4e4ec8">
   <rect x="50.165625" y="22.318125" width="518.634375" height="228.10375"/>
  </clipPath>
 </defs>
</svg>
