<?xml version="1.0" encoding="utf-8" standalone="no"?>
<!DOCTYPE svg PUBLIC "-//W3C//DTD SVG 1.1//EN"
  "http://www.w3.org/Graphics/SVG/1.1/DTD/svg11.dtd">
<svg xmlns:xlink="http://www.w3.org/1999/xlink" width="576pt" height="288pt" viewBox="0 0 576 288" xmlns="http://www.w3.org/2000/svg" version="1.1">
 <metadata>
  <rdf:RDF xmlns:dc="http://purl.org/dc/elements/1.1/" xmlns:cc="http://creativecommons.org/ns#" xmlns:rdf="http://www.w3.org/1999/02/22-rdf-syntax-ns#">
   <cc:Work>
    <dc:type rdf:resource="http://purl.org/dc/dcmitype/StillImage"/>
    <dc:date>2025-05-10T16:33:00.936176</dc:date>
    <dc:format>image/svg+xml</dc:format>
    <dc:creator>
     <cc:Agent>
      <dc:title>Matplotlib v3.10.3, https://matplotlib.org/</dc:title>
     </cc:Agent>
    </dc:creator>
   </cc:Work>
  </rdf:RDF>
 </metadata>
 <defs>
  <style type="text/css">*{stroke-linejoin: round; stroke-linecap: butt}</style>
 </defs>
 <g id="figure_1">
  <g id="patch_1">
   <path d="M 0 288 
L 576 288 
L 576 0 
L 0 0 
z
" style="fill: #ffffff"/>
  </g>
  <g id="axes_1">
   <g id="patch_2">
    <path d="M 43.78125 250.44375 
L 568.8 250.44375 
L 568.8 22.318125 
L 43.78125 22.318125 
z
" style="fill: #ffffff"/>
   </g>
   <g id="matplotlib.axis_1">
    <g id="xtick_1">
     <g id="line2d_1">
      <path d="M 67.645739 250.44375 
L 67.645739 22.318125 
" clip-path="url(#pc0673ee6ae)" style="fill: none; stroke-dasharray: 2.96,1.28; stroke-dashoffset: 0; stroke: #b0b0b0; stroke-opacity: 0.8; stroke-width: 0.8"/>
     </g>
     <g id="line2d_2">
      <defs>
       <path id="ma22a571aa8" d="M 0 0 
L 0 3.5 
" style="stroke: #000000; stroke-width: 0.8"/>
      </defs>
      <g>
       <use xlink:href="#ma22a571aa8" x="67.645739" y="250.44375" style="stroke: #000000; stroke-width: 0.8"/>
      </g>
     </g>
     <g id="text_1">
      <!-- 0 -->
      <g transform="translate(64.464489 265.042188) scale(0.1 -0.1)">
       <defs>
        <path id="DejaVuSans-30" d="M 2034 4250 
Q 1547 4250 1301 3770 
Q 1056 3291 1056 2328 
Q 1056 1369 1301 889 
Q 1547 409 2034 409 
Q 2525 409 2770 889 
Q 3016 1369 3016 2328 
Q 3016 3291 2770 3770 
Q 2525 4250 2034 4250 
z
M 2034 4750 
Q 2819 4750 3233 4129 
Q 3647 3509 3647 2328 
Q 3647 1150 3233 529 
Q 2819 -91 2034 -91 
Q 1250 -91 836 529 
Q 422 1150 422 2328 
Q 422 3509 836 4129 
Q 1250 4750 2034 4750 
z
" transform="scale(0.015625)"/>
       </defs>
       <use xlink:href="#DejaVuSans-30"/>
      </g>
     </g>
    </g>
    <g id="xtick_2">
     <g id="line2d_3">
      <path d="M 127.30696 250.44375 
L 127.30696 22.318125 
" clip-path="url(#pc0673ee6ae)" style="fill: none; stroke-dasharray: 2.96,1.28; stroke-dashoffset: 0; stroke: #b0b0b0; stroke-opacity: 0.8; stroke-width: 0.8"/>
     </g>
     <g id="line2d_4">
      <g>
       <use xlink:href="#ma22a571aa8" x="127.30696" y="250.44375" style="stroke: #000000; stroke-width: 0.8"/>
      </g>
     </g>
     <g id="text_2">
      <!-- 1 -->
      <g transform="translate(124.12571 265.042188) scale(0.1 -0.1)">
       <defs>
        <path id="DejaVuSans-31" d="M 794 531 
L 1825 531 
L 1825 4091 
L 703 3866 
L 703 4441 
L 1819 4666 
L 2450 4666 
L 2450 531 
L 3481 531 
L 3481 0 
L 794 0 
L 794 531 
z
" transform="scale(0.015625)"/>
       </defs>
       <use xlink:href="#DejaVuSans-31"/>
      </g>
     </g>
    </g>
    <g id="xtick_3">
     <g id="line2d_5">
      <path d="M 186.968182 250.44375 
L 186.968182 22.318125 
" clip-path="url(#pc0673ee6ae)" style="fill: none; stroke-dasharray: 2.96,1.28; stroke-dashoffset: 0; stroke: #b0b0b0; stroke-opacity: 0.8; stroke-width: 0.8"/>
     </g>
     <g id="line2d_6">
      <g>
       <use xlink:href="#ma22a571aa8" x="186.968182" y="250.44375" style="stroke: #000000; stroke-width: 0.8"/>
      </g>
     </g>
     <g id="text_3">
      <!-- 2 -->
      <g transform="translate(183.786932 265.042188) scale(0.1 -0.1)">
       <defs>
        <path id="DejaVuSans-32" d="M 1228 531 
L 3431 531 
L 3431 0 
L 469 0 
L 469 531 
Q 828 903 1448 1529 
Q 2069 2156 2228 2338 
Q 2531 2678 2651 2914 
Q 2772 3150 2772 3378 
Q 2772 3750 2511 3984 
Q 2250 4219 1831 4219 
Q 1534 4219 1204 4116 
Q 875 4013 500 3803 
L 500 4441 
Q 881 4594 1212 4672 
Q 1544 4750 1819 4750 
Q 2544 4750 2975 4387 
Q 3406 4025 3406 3419 
Q 3406 3131 3298 2873 
Q 3191 2616 2906 2266 
Q 2828 2175 2409 1742 
Q 1991 1309 1228 531 
z
" transform="scale(0.015625)"/>
       </defs>
       <use xlink:href="#DejaVuSans-32"/>
      </g>
     </g>
    </g>
    <g id="xtick_4">
     <g id="line2d_7">
      <path d="M 246.629403 250.44375 
L 246.629403 22.318125 
" clip-path="url(#pc0673ee6ae)" style="fill: none; stroke-dasharray: 2.96,1.28; stroke-dashoffset: 0; stroke: #b0b0b0; stroke-opacity: 0.8; stroke-width: 0.8"/>
     </g>
     <g id="line2d_8">
      <g>
       <use xlink:href="#ma22a571aa8" x="246.629403" y="250.44375" style="stroke: #000000; stroke-width: 0.8"/>
      </g>
     </g>
     <g id="text_4">
      <!-- 3 -->
      <g transform="translate(243.448153 265.042188) scale(0.1 -0.1)">
       <defs>
        <path id="DejaVuSans-33" d="M 2597 2516 
Q 3050 2419 3304 2112 
Q 3559 1806 3559 1356 
Q 3559 666 3084 287 
Q 2609 -91 1734 -91 
Q 1441 -91 1130 -33 
Q 819 25 488 141 
L 488 750 
Q 750 597 1062 519 
Q 1375 441 1716 441 
Q 2309 441 2620 675 
Q 2931 909 2931 1356 
Q 2931 1769 2642 2001 
Q 2353 2234 1838 2234 
L 1294 2234 
L 1294 2753 
L 1863 2753 
Q 2328 2753 2575 2939 
Q 2822 3125 2822 3475 
Q 2822 3834 2567 4026 
Q 2313 4219 1838 4219 
Q 1578 4219 1281 4162 
Q 984 4106 628 3988 
L 628 4550 
Q 988 4650 1302 4700 
Q 1616 4750 1894 4750 
Q 2613 4750 3031 4423 
Q 3450 4097 3450 3541 
Q 3450 3153 3228 2886 
Q 3006 2619 2597 2516 
z
" transform="scale(0.015625)"/>
       </defs>
       <use xlink:href="#DejaVuSans-33"/>
      </g>
     </g>
    </g>
    <g id="xtick_5">
     <g id="line2d_9">
      <path d="M 306.290625 250.44375 
L 306.290625 22.318125 
" clip-path="url(#pc0673ee6ae)" style="fill: none; stroke-dasharray: 2.96,1.28; stroke-dashoffset: 0; stroke: #b0b0b0; stroke-opacity: 0.8; stroke-width: 0.8"/>
     </g>
     <g id="line2d_10">
      <g>
       <use xlink:href="#ma22a571aa8" x="306.290625" y="250.44375" style="stroke: #000000; stroke-width: 0.8"/>
      </g>
     </g>
     <g id="text_5">
      <!-- 4 -->
      <g transform="translate(303.109375 265.042188) scale(0.1 -0.1)">
       <defs>
        <path id="DejaVuSans-34" d="M 2419 4116 
L 825 1625 
L 2419 1625 
L 2419 4116 
z
M 2253 4666 
L 3047 4666 
L 3047 1625 
L 3713 1625 
L 3713 1100 
L 3047 1100 
L 3047 0 
L 2419 0 
L 2419 1100 
L 313 1100 
L 313 1709 
L 2253 4666 
z
" transform="scale(0.015625)"/>
       </defs>
       <use xlink:href="#DejaVuSans-34"/>
      </g>
     </g>
    </g>
    <g id="xtick_6">
     <g id="line2d_11">
      <path d="M 365.951847 250.44375 
L 365.951847 22.318125 
" clip-path="url(#pc0673ee6ae)" style="fill: none; stroke-dasharray: 2.96,1.28; stroke-dashoffset: 0; stroke: #b0b0b0; stroke-opacity: 0.8; stroke-width: 0.8"/>
     </g>
     <g id="line2d_12">
      <g>
       <use xlink:href="#ma22a571aa8" x="365.951847" y="250.44375" style="stroke: #000000; stroke-width: 0.8"/>
      </g>
     </g>
     <g id="text_6">
      <!-- 5 -->
      <g transform="translate(362.770597 265.042188) scale(0.1 -0.1)">
       <defs>
        <path id="DejaVuSans-35" d="M 691 4666 
L 3169 4666 
L 3169 4134 
L 1269 4134 
L 1269 2991 
Q 1406 3038 1543 3061 
Q 1681 3084 1819 3084 
Q 2600 3084 3056 2656 
Q 3513 2228 3513 1497 
Q 3513 744 3044 326 
Q 2575 -91 1722 -91 
Q 1428 -91 1123 -41 
Q 819 9 494 109 
L 494 744 
Q 775 591 1075 516 
Q 1375 441 1709 441 
Q 2250 441 2565 725 
Q 2881 1009 2881 1497 
Q 2881 1984 2565 2268 
Q 2250 2553 1709 2553 
Q 1456 2553 1204 2497 
Q 953 2441 691 2322 
L 691 4666 
z
" transform="scale(0.015625)"/>
       </defs>
       <use xlink:href="#DejaVuSans-35"/>
      </g>
     </g>
    </g>
    <g id="xtick_7">
     <g id="line2d_13">
      <path d="M 425.613068 250.44375 
L 425.613068 22.318125 
" clip-path="url(#pc0673ee6ae)" style="fill: none; stroke-dasharray: 2.96,1.28; stroke-dashoffset: 0; stroke: #b0b0b0; stroke-opacity: 0.8; stroke-width: 0.8"/>
     </g>
     <g id="line2d_14">
      <g>
       <use xlink:href="#ma22a571aa8" x="425.613068" y="250.44375" style="stroke: #000000; stroke-width: 0.8"/>
      </g>
     </g>
     <g id="text_7">
      <!-- 6 -->
      <g transform="translate(422.431818 265.042188) scale(0.1 -0.1)">
       <defs>
        <path id="DejaVuSans-36" d="M 2113 2584 
Q 1688 2584 1439 2293 
Q 1191 2003 1191 1497 
Q 1191 994 1439 701 
Q 1688 409 2113 409 
Q 2538 409 2786 701 
Q 3034 994 3034 1497 
Q 3034 2003 2786 2293 
Q 2538 2584 2113 2584 
z
M 3366 4563 
L 3366 3988 
Q 3128 4100 2886 4159 
Q 2644 4219 2406 4219 
Q 1781 4219 1451 3797 
Q 1122 3375 1075 2522 
Q 1259 2794 1537 2939 
Q 1816 3084 2150 3084 
Q 2853 3084 3261 2657 
Q 3669 2231 3669 1497 
Q 3669 778 3244 343 
Q 2819 -91 2113 -91 
Q 1303 -91 875 529 
Q 447 1150 447 2328 
Q 447 3434 972 4092 
Q 1497 4750 2381 4750 
Q 2619 4750 2861 4703 
Q 3103 4656 3366 4563 
z
" transform="scale(0.015625)"/>
       </defs>
       <use xlink:href="#DejaVuSans-36"/>
      </g>
     </g>
    </g>
    <g id="xtick_8">
     <g id="line2d_15">
      <path d="M 485.27429 250.44375 
L 485.27429 22.318125 
" clip-path="url(#pc0673ee6ae)" style="fill: none; stroke-dasharray: 2.96,1.28; stroke-dashoffset: 0; stroke: #b0b0b0; stroke-opacity: 0.8; stroke-width: 0.8"/>
     </g>
     <g id="line2d_16">
      <g>
       <use xlink:href="#ma22a571aa8" x="485.27429" y="250.44375" style="stroke: #000000; stroke-width: 0.8"/>
      </g>
     </g>
     <g id="text_8">
      <!-- 7 -->
      <g transform="translate(482.09304 265.042188) scale(0.1 -0.1)">
       <defs>
        <path id="DejaVuSans-37" d="M 525 4666 
L 3525 4666 
L 3525 4397 
L 1831 0 
L 1172 0 
L 2766 4134 
L 525 4134 
L 525 4666 
z
" transform="scale(0.015625)"/>
       </defs>
       <use xlink:href="#DejaVuSans-37"/>
      </g>
     </g>
    </g>
    <g id="xtick_9">
     <g id="line2d_17">
      <path d="M 544.935511 250.44375 
L 544.935511 22.318125 
" clip-path="url(#pc0673ee6ae)" style="fill: none; stroke-dasharray: 2.96,1.28; stroke-dashoffset: 0; stroke: #b0b0b0; stroke-opacity: 0.8; stroke-width: 0.8"/>
     </g>
     <g id="line2d_18">
      <g>
       <use xlink:href="#ma22a571aa8" x="544.935511" y="250.44375" style="stroke: #000000; stroke-width: 0.8"/>
      </g>
     </g>
     <g id="text_9">
      <!-- 8 -->
      <g transform="translate(541.754261 265.042188) scale(0.1 -0.1)">
       <defs>
        <path id="DejaVuSans-38" d="M 2034 2216 
Q 1584 2216 1326 1975 
Q 1069 1734 1069 1313 
Q 1069 891 1326 650 
Q 1584 409 2034 409 
Q 2484 409 2743 651 
Q 3003 894 3003 1313 
Q 3003 1734 2745 1975 
Q 2488 2216 2034 2216 
z
M 1403 2484 
Q 997 2584 770 2862 
Q 544 3141 544 3541 
Q 544 4100 942 4425 
Q 1341 4750 2034 4750 
Q 2731 4750 3128 4425 
Q 3525 4100 3525 3541 
Q 3525 3141 3298 2862 
Q 3072 2584 2669 2484 
Q 3125 2378 3379 2068 
Q 3634 1759 3634 1313 
Q 3634 634 3220 271 
Q 2806 -91 2034 -91 
Q 1263 -91 848 271 
Q 434 634 434 1313 
Q 434 1759 690 2068 
Q 947 2378 1403 2484 
z
M 1172 3481 
Q 1172 3119 1398 2916 
Q 1625 2713 2034 2713 
Q 2441 2713 2670 2916 
Q 2900 3119 2900 3481 
Q 2900 3844 2670 4047 
Q 2441 4250 2034 4250 
Q 1625 4250 1398 4047 
Q 1172 3844 1172 3481 
z
" transform="scale(0.015625)"/>
       </defs>
       <use xlink:href="#DejaVuSans-38"/>
      </g>
     </g>
    </g>
    <g id="text_10">
     <!-- Random variable -->
     <g transform="translate(263.83125 278.720312) scale(0.1 -0.1)">
      <defs>
       <path id="DejaVuSans-52" d="M 2841 2188 
Q 3044 2119 3236 1894 
Q 3428 1669 3622 1275 
L 4263 0 
L 3584 0 
L 2988 1197 
Q 2756 1666 2539 1819 
Q 2322 1972 1947 1972 
L 1259 1972 
L 1259 0 
L 628 0 
L 628 4666 
L 2053 4666 
Q 2853 4666 3247 4331 
Q 3641 3997 3641 3322 
Q 3641 2881 3436 2590 
Q 3231 2300 2841 2188 
z
M 1259 4147 
L 1259 2491 
L 2053 2491 
Q 2509 2491 2742 2702 
Q 2975 2913 2975 3322 
Q 2975 3731 2742 3939 
Q 2509 4147 2053 4147 
L 1259 4147 
z
" transform="scale(0.015625)"/>
       <path id="DejaVuSans-61" d="M 2194 1759 
Q 1497 1759 1228 1600 
Q 959 1441 959 1056 
Q 959 750 1161 570 
Q 1363 391 1709 391 
Q 2188 391 2477 730 
Q 2766 1069 2766 1631 
L 2766 1759 
L 2194 1759 
z
M 3341 1997 
L 3341 0 
L 2766 0 
L 2766 531 
Q 2569 213 2275 61 
Q 1981 -91 1556 -91 
Q 1019 -91 701 211 
Q 384 513 384 1019 
Q 384 1609 779 1909 
Q 1175 2209 1959 2209 
L 2766 2209 
L 2766 2266 
Q 2766 2663 2505 2880 
Q 2244 3097 1772 3097 
Q 1472 3097 1187 3025 
Q 903 2953 641 2809 
L 641 3341 
Q 956 3463 1253 3523 
Q 1550 3584 1831 3584 
Q 2591 3584 2966 3190 
Q 3341 2797 3341 1997 
z
" transform="scale(0.015625)"/>
       <path id="DejaVuSans-6e" d="M 3513 2113 
L 3513 0 
L 2938 0 
L 2938 2094 
Q 2938 2591 2744 2837 
Q 2550 3084 2163 3084 
Q 1697 3084 1428 2787 
Q 1159 2491 1159 1978 
L 1159 0 
L 581 0 
L 581 3500 
L 1159 3500 
L 1159 2956 
Q 1366 3272 1645 3428 
Q 1925 3584 2291 3584 
Q 2894 3584 3203 3211 
Q 3513 2838 3513 2113 
z
" transform="scale(0.015625)"/>
       <path id="DejaVuSans-64" d="M 2906 2969 
L 2906 4863 
L 3481 4863 
L 3481 0 
L 2906 0 
L 2906 525 
Q 2725 213 2448 61 
Q 2172 -91 1784 -91 
Q 1150 -91 751 415 
Q 353 922 353 1747 
Q 353 2572 751 3078 
Q 1150 3584 1784 3584 
Q 2172 3584 2448 3432 
Q 2725 3281 2906 2969 
z
M 947 1747 
Q 947 1113 1208 752 
Q 1469 391 1925 391 
Q 2381 391 2643 752 
Q 2906 1113 2906 1747 
Q 2906 2381 2643 2742 
Q 2381 3103 1925 3103 
Q 1469 3103 1208 2742 
Q 947 2381 947 1747 
z
" transform="scale(0.015625)"/>
       <path id="DejaVuSans-6f" d="M 1959 3097 
Q 1497 3097 1228 2736 
Q 959 2375 959 1747 
Q 959 1119 1226 758 
Q 1494 397 1959 397 
Q 2419 397 2687 759 
Q 2956 1122 2956 1747 
Q 2956 2369 2687 2733 
Q 2419 3097 1959 3097 
z
M 1959 3584 
Q 2709 3584 3137 3096 
Q 3566 2609 3566 1747 
Q 3566 888 3137 398 
Q 2709 -91 1959 -91 
Q 1206 -91 779 398 
Q 353 888 353 1747 
Q 353 2609 779 3096 
Q 1206 3584 1959 3584 
z
" transform="scale(0.015625)"/>
       <path id="DejaVuSans-6d" d="M 3328 2828 
Q 3544 3216 3844 3400 
Q 4144 3584 4550 3584 
Q 5097 3584 5394 3201 
Q 5691 2819 5691 2113 
L 5691 0 
L 5113 0 
L 5113 2094 
Q 5113 2597 4934 2840 
Q 4756 3084 4391 3084 
Q 3944 3084 3684 2787 
Q 3425 2491 3425 1978 
L 3425 0 
L 2847 0 
L 2847 2094 
Q 2847 2600 2669 2842 
Q 2491 3084 2119 3084 
Q 1678 3084 1418 2786 
Q 1159 2488 1159 1978 
L 1159 0 
L 581 0 
L 581 3500 
L 1159 3500 
L 1159 2956 
Q 1356 3278 1631 3431 
Q 1906 3584 2284 3584 
Q 2666 3584 2933 3390 
Q 3200 3197 3328 2828 
z
" transform="scale(0.015625)"/>
       <path id="DejaVuSans-20" transform="scale(0.015625)"/>
       <path id="DejaVuSans-76" d="M 191 3500 
L 800 3500 
L 1894 563 
L 2988 3500 
L 3597 3500 
L 2284 0 
L 1503 0 
L 191 3500 
z
" transform="scale(0.015625)"/>
       <path id="DejaVuSans-72" d="M 2631 2963 
Q 2534 3019 2420 3045 
Q 2306 3072 2169 3072 
Q 1681 3072 1420 2755 
Q 1159 2438 1159 1844 
L 1159 0 
L 581 0 
L 581 3500 
L 1159 3500 
L 1159 2956 
Q 1341 3275 1631 3429 
Q 1922 3584 2338 3584 
Q 2397 3584 2469 3576 
Q 2541 3569 2628 3553 
L 2631 2963 
z
" transform="scale(0.015625)"/>
       <path id="DejaVuSans-69" d="M 603 3500 
L 1178 3500 
L 1178 0 
L 603 0 
L 603 3500 
z
M 603 4863 
L 1178 4863 
L 1178 4134 
L 603 4134 
L 603 4863 
z
" transform="scale(0.015625)"/>
       <path id="DejaVuSans-62" d="M 3116 1747 
Q 3116 2381 2855 2742 
Q 2594 3103 2138 3103 
Q 1681 3103 1420 2742 
Q 1159 2381 1159 1747 
Q 1159 1113 1420 752 
Q 1681 391 2138 391 
Q 2594 391 2855 752 
Q 3116 1113 3116 1747 
z
M 1159 2969 
Q 1341 3281 1617 3432 
Q 1894 3584 2278 3584 
Q 2916 3584 3314 3078 
Q 3713 2572 3713 1747 
Q 3713 922 3314 415 
Q 2916 -91 2278 -91 
Q 1894 -91 1617 61 
Q 1341 213 1159 525 
L 1159 0 
L 581 0 
L 581 4863 
L 1159 4863 
L 1159 2969 
z
" transform="scale(0.015625)"/>
       <path id="DejaVuSans-6c" d="M 603 4863 
L 1178 4863 
L 1178 0 
L 603 0 
L 603 4863 
z
" transform="scale(0.015625)"/>
       <path id="DejaVuSans-65" d="M 3597 1894 
L 3597 1613 
L 953 1613 
Q 991 1019 1311 708 
Q 1631 397 2203 397 
Q 2534 397 2845 478 
Q 3156 559 3463 722 
L 3463 178 
Q 3153 47 2828 -22 
Q 2503 -91 2169 -91 
Q 1331 -91 842 396 
Q 353 884 353 1716 
Q 353 2575 817 3079 
Q 1281 3584 2069 3584 
Q 2775 3584 3186 3129 
Q 3597 2675 3597 1894 
z
M 3022 2063 
Q 3016 2534 2758 2815 
Q 2500 3097 2075 3097 
Q 1594 3097 1305 2825 
Q 1016 2553 972 2059 
L 3022 2063 
z
" transform="scale(0.015625)"/>
      </defs>
      <use xlink:href="#DejaVuSans-52"/>
      <use xlink:href="#DejaVuSans-61" transform="translate(67.232422 0)"/>
      <use xlink:href="#DejaVuSans-6e" transform="translate(128.511719 0)"/>
      <use xlink:href="#DejaVuSans-64" transform="translate(191.890625 0)"/>
      <use xlink:href="#DejaVuSans-6f" transform="translate(255.367188 0)"/>
      <use xlink:href="#DejaVuSans-6d" transform="translate(316.548828 0)"/>
      <use xlink:href="#DejaVuSans-20" transform="translate(413.960938 0)"/>
      <use xlink:href="#DejaVuSans-76" transform="translate(445.748047 0)"/>
      <use xlink:href="#DejaVuSans-61" transform="translate(504.927734 0)"/>
      <use xlink:href="#DejaVuSans-72" transform="translate(566.207031 0)"/>
      <use xlink:href="#DejaVuSans-69" transform="translate(607.320312 0)"/>
      <use xlink:href="#DejaVuSans-61" transform="translate(635.103516 0)"/>
      <use xlink:href="#DejaVuSans-62" transform="translate(696.382812 0)"/>
      <use xlink:href="#DejaVuSans-6c" transform="translate(759.859375 0)"/>
      <use xlink:href="#DejaVuSans-65" transform="translate(787.642578 0)"/>
     </g>
    </g>
   </g>
   <g id="matplotlib.axis_2">
    <g id="ytick_1">
     <g id="line2d_19">
      <path d="M 43.78125 250.44375 
L 568.8 250.44375 
" clip-path="url(#pc0673ee6ae)" style="fill: none; stroke-dasharray: 2.96,1.28; stroke-dashoffset: 0; stroke: #b0b0b0; stroke-opacity: 0.8; stroke-width: 0.8"/>
     </g>
     <g id="line2d_20">
      <defs>
       <path id="mcab2045663" d="M 0 0 
L -3.5 0 
" style="stroke: #000000; stroke-width: 0.8"/>
      </defs>
      <g>
       <use xlink:href="#mcab2045663" x="43.78125" y="250.44375" style="stroke: #000000; stroke-width: 0.8"/>
      </g>
     </g>
     <g id="text_11">
      <!-- 0.0 -->
      <g transform="translate(20.878125 254.242969) scale(0.1 -0.1)">
       <defs>
        <path id="DejaVuSans-2e" d="M 684 794 
L 1344 794 
L 1344 0 
L 684 0 
L 684 794 
z
" transform="scale(0.015625)"/>
       </defs>
       <use xlink:href="#DejaVuSans-30"/>
       <use xlink:href="#DejaVuSans-2e" transform="translate(63.623047 0)"/>
       <use xlink:href="#DejaVuSans-30" transform="translate(95.410156 0)"/>
      </g>
     </g>
    </g>
    <g id="ytick_2">
     <g id="line2d_21">
      <path d="M 43.78125 208.66941 
L 568.8 208.66941 
" clip-path="url(#pc0673ee6ae)" style="fill: none; stroke-dasharray: 2.96,1.28; stroke-dashoffset: 0; stroke: #b0b0b0; stroke-opacity: 0.8; stroke-width: 0.8"/>
     </g>
     <g id="line2d_22">
      <g>
       <use xlink:href="#mcab2045663" x="43.78125" y="208.66941" style="stroke: #000000; stroke-width: 0.8"/>
      </g>
     </g>
     <g id="text_12">
      <!-- 0.2 -->
      <g transform="translate(20.878125 212.468628) scale(0.1 -0.1)">
       <use xlink:href="#DejaVuSans-30"/>
       <use xlink:href="#DejaVuSans-2e" transform="translate(63.623047 0)"/>
       <use xlink:href="#DejaVuSans-32" transform="translate(95.410156 0)"/>
      </g>
     </g>
    </g>
    <g id="ytick_3">
     <g id="line2d_23">
      <path d="M 43.78125 166.895069 
L 568.8 166.895069 
" clip-path="url(#pc0673ee6ae)" style="fill: none; stroke-dasharray: 2.96,1.28; stroke-dashoffset: 0; stroke: #b0b0b0; stroke-opacity: 0.8; stroke-width: 0.8"/>
     </g>
     <g id="line2d_24">
      <g>
       <use xlink:href="#mcab2045663" x="43.78125" y="166.895069" style="stroke: #000000; stroke-width: 0.8"/>
      </g>
     </g>
     <g id="text_13">
      <!-- 0.4 -->
      <g transform="translate(20.878125 170.694288) scale(0.1 -0.1)">
       <use xlink:href="#DejaVuSans-30"/>
       <use xlink:href="#DejaVuSans-2e" transform="translate(63.623047 0)"/>
       <use xlink:href="#DejaVuSans-34" transform="translate(95.410156 0)"/>
      </g>
     </g>
    </g>
    <g id="ytick_4">
     <g id="line2d_25">
      <path d="M 43.78125 125.120729 
L 568.8 125.120729 
" clip-path="url(#pc0673ee6ae)" style="fill: none; stroke-dasharray: 2.96,1.28; stroke-dashoffset: 0; stroke: #b0b0b0; stroke-opacity: 0.8; stroke-width: 0.8"/>
     </g>
     <g id="line2d_26">
      <g>
       <use xlink:href="#mcab2045663" x="43.78125" y="125.120729" style="stroke: #000000; stroke-width: 0.8"/>
      </g>
     </g>
     <g id="text_14">
      <!-- 0.6 -->
      <g transform="translate(20.878125 128.919948) scale(0.1 -0.1)">
       <use xlink:href="#DejaVuSans-30"/>
       <use xlink:href="#DejaVuSans-2e" transform="translate(63.623047 0)"/>
       <use xlink:href="#DejaVuSans-36" transform="translate(95.410156 0)"/>
      </g>
     </g>
    </g>
    <g id="ytick_5">
     <g id="line2d_27">
      <path d="M 43.78125 83.346388 
L 568.8 83.346388 
" clip-path="url(#pc0673ee6ae)" style="fill: none; stroke-dasharray: 2.96,1.28; stroke-dashoffset: 0; stroke: #b0b0b0; stroke-opacity: 0.8; stroke-width: 0.8"/>
     </g>
     <g id="line2d_28">
      <g>
       <use xlink:href="#mcab2045663" x="43.78125" y="83.346388" style="stroke: #000000; stroke-width: 0.8"/>
      </g>
     </g>
     <g id="text_15">
      <!-- 0.8 -->
      <g transform="translate(20.878125 87.145607) scale(0.1 -0.1)">
       <use xlink:href="#DejaVuSans-30"/>
       <use xlink:href="#DejaVuSans-2e" transform="translate(63.623047 0)"/>
       <use xlink:href="#DejaVuSans-38" transform="translate(95.410156 0)"/>
      </g>
     </g>
    </g>
    <g id="ytick_6">
     <g id="line2d_29">
      <path d="M 43.78125 41.572048 
L 568.8 41.572048 
" clip-path="url(#pc0673ee6ae)" style="fill: none; stroke-dasharray: 2.96,1.28; stroke-dashoffset: 0; stroke: #b0b0b0; stroke-opacity: 0.8; stroke-width: 0.8"/>
     </g>
     <g id="line2d_30">
      <g>
       <use xlink:href="#mcab2045663" x="43.78125" y="41.572048" style="stroke: #000000; stroke-width: 0.8"/>
      </g>
     </g>
     <g id="text_16">
      <!-- 1.0 -->
      <g transform="translate(20.878125 45.371267) scale(0.1 -0.1)">
       <use xlink:href="#DejaVuSans-31"/>
       <use xlink:href="#DejaVuSans-2e" transform="translate(63.623047 0)"/>
       <use xlink:href="#DejaVuSans-30" transform="translate(95.410156 0)"/>
      </g>
     </g>
    </g>
    <g id="text_17">
     <!-- Probability density -->
     <g transform="translate(14.798438 182.731719) rotate(-90) scale(0.1 -0.1)">
      <defs>
       <path id="DejaVuSans-50" d="M 1259 4147 
L 1259 2394 
L 2053 2394 
Q 2494 2394 2734 2622 
Q 2975 2850 2975 3272 
Q 2975 3691 2734 3919 
Q 2494 4147 2053 4147 
L 1259 4147 
z
M 628 4666 
L 2053 4666 
Q 2838 4666 3239 4311 
Q 3641 3956 3641 3272 
Q 3641 2581 3239 2228 
Q 2838 1875 2053 1875 
L 1259 1875 
L 1259 0 
L 628 0 
L 628 4666 
z
" transform="scale(0.015625)"/>
       <path id="DejaVuSans-74" d="M 1172 4494 
L 1172 3500 
L 2356 3500 
L 2356 3053 
L 1172 3053 
L 1172 1153 
Q 1172 725 1289 603 
Q 1406 481 1766 481 
L 2356 481 
L 2356 0 
L 1766 0 
Q 1100 0 847 248 
Q 594 497 594 1153 
L 594 3053 
L 172 3053 
L 172 3500 
L 594 3500 
L 594 4494 
L 1172 4494 
z
" transform="scale(0.015625)"/>
       <path id="DejaVuSans-79" d="M 2059 -325 
Q 1816 -950 1584 -1140 
Q 1353 -1331 966 -1331 
L 506 -1331 
L 506 -850 
L 844 -850 
Q 1081 -850 1212 -737 
Q 1344 -625 1503 -206 
L 1606 56 
L 191 3500 
L 800 3500 
L 1894 763 
L 2988 3500 
L 3597 3500 
L 2059 -325 
z
" transform="scale(0.015625)"/>
       <path id="DejaVuSans-73" d="M 2834 3397 
L 2834 2853 
Q 2591 2978 2328 3040 
Q 2066 3103 1784 3103 
Q 1356 3103 1142 2972 
Q 928 2841 928 2578 
Q 928 2378 1081 2264 
Q 1234 2150 1697 2047 
L 1894 2003 
Q 2506 1872 2764 1633 
Q 3022 1394 3022 966 
Q 3022 478 2636 193 
Q 2250 -91 1575 -91 
Q 1294 -91 989 -36 
Q 684 19 347 128 
L 347 722 
Q 666 556 975 473 
Q 1284 391 1588 391 
Q 1994 391 2212 530 
Q 2431 669 2431 922 
Q 2431 1156 2273 1281 
Q 2116 1406 1581 1522 
L 1381 1569 
Q 847 1681 609 1914 
Q 372 2147 372 2553 
Q 372 3047 722 3315 
Q 1072 3584 1716 3584 
Q 2034 3584 2315 3537 
Q 2597 3491 2834 3397 
z
" transform="scale(0.015625)"/>
      </defs>
      <use xlink:href="#DejaVuSans-50"/>
      <use xlink:href="#DejaVuSans-72" transform="translate(58.552734 0)"/>
      <use xlink:href="#DejaVuSans-6f" transform="translate(97.416016 0)"/>
      <use xlink:href="#DejaVuSans-62" transform="translate(158.597656 0)"/>
      <use xlink:href="#DejaVuSans-61" transform="translate(222.074219 0)"/>
      <use xlink:href="#DejaVuSans-62" transform="translate(283.353516 0)"/>
      <use xlink:href="#DejaVuSans-69" transform="translate(346.830078 0)"/>
      <use xlink:href="#DejaVuSans-6c" transform="translate(374.613281 0)"/>
      <use xlink:href="#DejaVuSans-69" transform="translate(402.396484 0)"/>
      <use xlink:href="#DejaVuSans-74" transform="translate(430.179688 0)"/>
      <use xlink:href="#DejaVuSans-79" transform="translate(469.388672 0)"/>
      <use xlink:href="#DejaVuSans-20" transform="translate(528.568359 0)"/>
      <use xlink:href="#DejaVuSans-64" transform="translate(560.355469 0)"/>
      <use xlink:href="#DejaVuSans-65" transform="translate(623.832031 0)"/>
      <use xlink:href="#DejaVuSans-6e" transform="translate(685.355469 0)"/>
      <use xlink:href="#DejaVuSans-73" transform="translate(748.734375 0)"/>
      <use xlink:href="#DejaVuSans-69" transform="translate(800.833984 0)"/>
      <use xlink:href="#DejaVuSans-74" transform="translate(828.617188 0)"/>
      <use xlink:href="#DejaVuSans-79" transform="translate(867.826172 0)"/>
     </g>
    </g>
   </g>
   <g id="line2d_31">
    <path d="M 67.645739 250.44375 
L 79.577983 244.678265 
L 86.26004 241.20535 
L 91.987517 237.990162 
L 97.237705 234.802879 
L 102.487892 231.355574 
L 107.73808 227.630182 
L 112.988267 223.62121 
L 118.238455 219.33672 
L 123.965932 214.374934 
L 130.647989 208.270616 
L 139.716494 199.637172 
L 152.603318 187.365317 
L 158.808085 181.790461 
L 163.580983 177.784439 
L 167.876591 174.452546 
L 171.694909 171.749175 
L 175.513227 169.322056 
L 178.854256 167.447767 
L 182.195284 165.824459 
L 185.536313 164.467146 
L 188.400051 163.525005 
L 191.26379 162.793843 
L 194.127528 162.278451 
L 196.991267 161.982041 
L 199.855006 161.906216 
L 202.718744 162.050951 
L 205.582483 162.414603 
L 208.446222 162.993936 
L 211.30996 163.784164 
L 214.173699 164.779015 
L 217.514727 166.187978 
L 220.855756 167.850522 
L 224.196784 169.750028 
L 228.015102 172.187195 
L 231.83342 174.879367 
L 236.129028 178.172474 
L 240.901926 182.102969 
L 246.629403 187.103714 
L 255.220619 194.941935 
L 269.062023 207.579545 
L 275.74408 213.356989 
L 281.471557 218.022663 
L 286.721744 222.021294 
L 291.971932 225.725439 
L 296.74483 228.82274 
L 301.517727 231.656323 
L 306.290625 234.225797 
L 311.063523 236.535732 
L 315.83642 238.594853 
L 320.609318 240.41523 
L 325.382216 242.011478 
L 330.632403 243.528099 
L 335.882591 244.816738 
L 341.610068 245.990703 
L 347.814835 247.024336 
L 354.496892 247.902438 
L 361.656239 248.620737 
L 369.770165 249.214671 
L 379.31596 249.689208 
L 391.248205 250.048465 
L 406.998767 250.285529 
L 431.817835 250.411364 
L 498.161114 250.443553 
L 544.935511 250.443747 
L 544.935511 250.443747 
" clip-path="url(#pc0673ee6ae)" style="fill: none; stroke: #1f77b4; stroke-linecap: square"/>
   </g>
   <g id="line2d_32">
    <path d="M 67.645739 250.44375 
L 274.31221 250.349139 
L 279.085108 250.067062 
L 282.426136 249.501322 
L 282.903426 249.355981 
L 283.380716 249.355981 
L 284.812585 248.796936 
L 285.767165 248.299829 
L 286.244455 248.299829 
L 287.676324 247.317388 
L 288.153614 246.915492 
L 288.630903 246.915492 
L 290.062773 245.443125 
L 291.017352 244.205886 
L 291.494642 244.205886 
L 292.926511 241.896224 
L 293.403801 240.990859 
L 293.881091 240.990859 
L 295.31296 237.817787 
L 296.26754 235.286659 
L 296.74483 235.286659 
L 298.176699 230.801521 
L 298.653989 229.111403 
L 299.131278 229.111403 
L 300.563148 223.422789 
L 301.517727 219.097941 
L 301.995017 219.097941 
L 303.426886 211.792796 
L 303.904176 209.139207 
L 304.381466 209.139207 
L 306.290625 197.457007 
L 306.767915 194.279085 
L 307.245205 194.279085 
L 309.154364 180.628835 
L 309.631653 180.628835 
L 312.018102 161.794024 
L 312.495392 161.794024 
L 314.404551 145.764971 
L 314.881841 145.764971 
L 317.26829 125.278498 
L 317.74558 125.278498 
L 319.654739 109.143842 
L 320.132028 109.143842 
L 322.518477 90.126042 
L 322.995767 90.126042 
L 324.904926 76.405282 
L 325.382216 76.405282 
L 327.291375 64.448442 
L 327.768665 64.448442 
L 329.200534 56.830159 
L 330.155114 52.450292 
L 330.632403 52.450292 
L 332.064273 46.980594 
L 332.541563 45.457488 
L 333.018852 45.457488 
L 333.973432 42.866974 
L 334.928011 40.885206 
L 335.405301 40.1217 
L 335.882591 40.1217 
L 336.83717 39.044695 
L 337.31446 38.728347 
L 337.79175 38.55771 
L 339.223619 38.644744 
L 339.700909 38.897369 
L 340.655489 39.806499 
L 341.132778 39.806499 
L 342.087358 41.232642 
L 343.041938 43.147573 
L 343.519227 43.147573 
L 344.473807 45.520756 
L 345.905676 49.868658 
L 346.382966 49.868658 
L 347.814835 55.06042 
L 348.292125 56.958279 
L 348.769415 56.958279 
L 350.678574 65.269686 
L 351.155864 67.505916 
L 351.633153 67.505916 
L 353.542313 76.957942 
L 354.019602 76.957942 
L 356.406051 89.615596 
L 356.883341 89.615596 
L 358.7925 100.129711 
L 359.26979 100.129711 
L 361.656239 113.420924 
L 362.133528 113.420924 
L 364.042688 123.962101 
L 364.519977 123.962101 
L 366.906426 136.79361 
L 367.383716 136.79361 
L 369.292875 146.649778 
L 369.770165 146.649778 
L 372.156614 158.326334 
L 372.633903 158.326334 
L 374.543063 167.085185 
L 375.020352 167.085185 
L 377.406801 177.250425 
L 377.884091 177.250425 
L 379.79325 184.736887 
L 380.27054 184.736887 
L 382.179699 191.647416 
L 382.656989 191.647416 
L 385.043438 199.490491 
L 385.520727 199.490491 
L 387.429886 205.150794 
L 387.907176 205.150794 
L 390.293625 211.498346 
L 390.770915 211.498346 
L 392.680074 216.028971 
L 393.157364 216.028971 
L 395.066523 220.106642 
L 395.543813 221.059057 
L 396.021102 221.059057 
L 397.930261 224.615982 
L 398.407551 224.615982 
L 400.31671 227.792861 
L 400.794 228.531459 
L 401.27129 228.531459 
L 403.180449 231.278048 
L 403.657739 231.278048 
L 406.044188 234.279147 
L 406.521477 234.279147 
L 408.430636 236.369522 
L 408.907926 236.369522 
L 411.294375 238.638618 
L 411.771665 238.638618 
L 413.680824 240.209172 
L 414.158114 240.209172 
L 416.544563 241.903901 
L 417.021852 241.903901 
L 418.931011 243.070171 
L 419.408301 243.070171 
L 421.79475 244.321794 
L 422.27204 244.321794 
L 424.181199 245.178546 
L 424.658489 245.178546 
L 427.044938 246.093318 
L 427.522227 246.093318 
L 429.431386 246.716355 
L 429.908676 246.716355 
L 432.295125 247.378378 
L 432.772415 247.378378 
L 434.681574 247.82712 
L 435.636153 247.929281 
L 437.545313 248.30174 
L 438.499892 248.386413 
L 441.363631 248.764676 
L 444.704659 249.132299 
L 447.568398 249.379283 
L 449.000267 249.465199 
L 452.818585 249.717124 
L 454.727744 249.805093 
L 460.932511 250.048841 
L 465.228119 250.154702 
L 475.251205 250.310947 
L 491.479057 250.409048 
L 532.525977 250.442881 
L 544.935511 250.443488 
L 544.935511 250.443488 
" clip-path="url(#pc0673ee6ae)" style="fill: none; stroke: #ff7f0e; stroke-linecap: square"/>
   </g>
   <g id="patch_3">
    <path d="M 267.627921 250.44375 
L 267.627921 250.393469 
L 277.541517 250.292908 
L 277.541517 250.142066 
L 280.019917 250.142066 
L 280.019917 249.739822 
L 282.498316 249.739822 
L 282.498316 249.387857 
L 284.976715 249.387857 
L 284.976715 248.281684 
L 287.455114 248.281684 
L 287.455114 247.276072 
L 289.933513 247.276072 
L 289.933513 245.365409 
L 292.411912 245.365409 
L 292.411912 241.242399 
L 294.890311 241.242399 
L 294.890311 236.817706 
L 297.36871 236.817706 
L 297.36871 231.3874 
L 299.847109 231.3874 
L 299.847109 218.465284 
L 302.325508 218.465284 
L 302.325508 212.381331 
L 304.803907 212.381331 
L 304.803907 198.654725 
L 307.282306 198.654725 
L 307.282306 183.972788 
L 309.760706 183.972788 
L 309.760706 174.11779 
L 312.239105 174.11779 
L 312.239105 153.351899 
L 314.717504 153.351899 
L 314.717504 136.558177 
L 317.195903 136.558177 
L 317.195903 121.373434 
L 319.674302 121.373434 
L 319.674302 97.490146 
L 322.152701 97.490146 
L 322.152701 85.774764 
L 324.6311 85.774764 
L 324.6311 68.277113 
L 327.109499 68.277113 
L 327.109499 62.846808 
L 329.587898 62.846808 
L 329.587898 48.617396 
L 332.066297 48.617396 
L 332.066297 43.99158 
L 334.544696 43.99158 
L 334.544696 47.611784 
L 337.023096 47.611784 
L 337.023096 33.18125 
L 339.501495 33.18125 
L 339.501495 36.650612 
L 341.979894 36.650612 
L 341.979894 41.980356 
L 344.458293 41.980356 
L 344.458293 46.254208 
L 346.936692 46.254208 
L 346.936692 53.293493 
L 349.415091 53.293493 
L 349.415091 66.768695 
L 351.89349 66.768695 
L 351.89349 78.081831 
L 354.371889 78.081831 
L 354.371889 81.148948 
L 356.850288 81.148948 
L 356.850288 92.260962 
L 359.328687 92.260962 
L 359.328687 104.931675 
L 361.807086 104.931675 
L 361.807086 118.507439 
L 364.285486 118.507439 
L 364.285486 133.440779 
L 366.763885 133.440779 
L 366.763885 142.994094 
L 369.242284 142.994094 
L 369.242284 151.038991 
L 371.720683 151.038991 
L 371.720683 160.03922 
L 374.199082 160.03922 
L 374.199082 170.547867 
L 376.677481 170.547867 
L 376.677481 176.330136 
L 379.15588 176.330136 
L 379.15588 185.581768 
L 381.634279 185.581768 
L 381.634279 191.364038 
L 384.112678 191.364038 
L 384.112678 198.302761 
L 386.591077 198.302761 
L 386.591077 208.911969 
L 389.069476 208.911969 
L 389.069476 212.129928 
L 391.547876 212.129928 
L 391.547876 214.694239 
L 394.026275 214.694239 
L 394.026275 222.28661 
L 396.504674 222.28661 
L 396.504674 225.806253 
L 398.983073 225.806253 
L 398.983073 228.06888 
L 401.461472 228.06888 
L 401.461472 230.53263 
L 403.939871 230.53263 
L 403.939871 232.946099 
L 406.41827 232.946099 
L 406.41827 235.912655 
L 408.896669 235.912655 
L 408.896669 238.125001 
L 411.375068 238.125001 
L 411.375068 241.141838 
L 413.853467 241.141838 
L 413.853467 240.940715 
L 416.331866 240.940715 
L 416.331866 243.505026 
L 418.810266 243.505026 
L 418.810266 243.856991 
L 421.288665 243.856991 
L 421.288665 244.560919 
L 423.767064 244.560919 
L 423.767064 244.711761 
L 426.245463 244.711761 
L 426.245463 246.873827 
L 428.723862 246.873827 
L 428.723862 247.12523 
L 431.202261 247.12523 
L 431.202261 248.482806 
L 433.68066 248.482806 
L 433.68066 248.030281 
L 436.159059 248.030281 
L 436.159059 248.583368 
L 443.594256 248.683929 
L 443.594256 249.035893 
L 446.072656 249.035893 
L 446.072656 249.538699 
L 448.551055 249.538699 
L 448.551055 249.136454 
L 451.029454 249.136454 
L 451.029454 250.041505 
L 453.507853 250.041505 
L 453.507853 249.538699 
L 455.986252 249.538699 
L 455.986252 249.890663 
L 458.464651 249.890663 
L 458.464651 250.041505 
L 460.94305 250.041505 
L 460.94305 250.242628 
L 463.421449 250.242628 
L 463.421449 249.890663 
L 465.899848 249.890663 
L 465.899848 250.142066 
L 473.335046 250.192347 
L 473.335046 250.343189 
L 517.946229 250.393469 
L 517.946229 250.44375 
" clip-path="url(#pc0673ee6ae)" style="fill: none; stroke: #2ca02c; stroke-linejoin: miter"/>
   </g>
   <g id="patch_4">
    <path d="M 43.78125 250.44375 
L 43.78125 22.318125 
" style="fill: none; stroke: #000000; stroke-width: 0.8; stroke-linejoin: miter; stroke-linecap: square"/>
   </g>
   <g id="patch_5">
    <path d="M 568.8 250.44375 
L 568.8 22.318125 
" style="fill: none; stroke: #000000; stroke-width: 0.8; stroke-linejoin: miter; stroke-linecap: square"/>
   </g>
   <g id="patch_6">
    <path d="M 43.78125 250.44375 
L 568.8 250.44375 
" style="fill: none; stroke: #000000; stroke-width: 0.8; stroke-linejoin: miter; stroke-linecap: square"/>
   </g>
   <g id="patch_7">
    <path d="M 43.78125 22.318125 
L 568.8 22.318125 
" style="fill: none; stroke: #000000; stroke-width: 0.8; stroke-linejoin: miter; stroke-linecap: square"/>
   </g>
   <g id="text_18">
    <!-- Maximum of 100 Rician random variables -->
    <g transform="translate(181.073438 16.318125) scale(0.12 -0.12)">
     <defs>
      <path id="DejaVuSans-4d" d="M 628 4666 
L 1569 4666 
L 2759 1491 
L 3956 4666 
L 4897 4666 
L 4897 0 
L 4281 0 
L 4281 4097 
L 3078 897 
L 2444 897 
L 1241 4097 
L 1241 0 
L 628 0 
L 628 4666 
z
" transform="scale(0.015625)"/>
      <path id="DejaVuSans-78" d="M 3513 3500 
L 2247 1797 
L 3578 0 
L 2900 0 
L 1881 1375 
L 863 0 
L 184 0 
L 1544 1831 
L 300 3500 
L 978 3500 
L 1906 2253 
L 2834 3500 
L 3513 3500 
z
" transform="scale(0.015625)"/>
      <path id="DejaVuSans-75" d="M 544 1381 
L 544 3500 
L 1119 3500 
L 1119 1403 
Q 1119 906 1312 657 
Q 1506 409 1894 409 
Q 2359 409 2629 706 
Q 2900 1003 2900 1516 
L 2900 3500 
L 3475 3500 
L 3475 0 
L 2900 0 
L 2900 538 
Q 2691 219 2414 64 
Q 2138 -91 1772 -91 
Q 1169 -91 856 284 
Q 544 659 544 1381 
z
M 1991 3584 
L 1991 3584 
z
" transform="scale(0.015625)"/>
      <path id="DejaVuSans-66" d="M 2375 4863 
L 2375 4384 
L 1825 4384 
Q 1516 4384 1395 4259 
Q 1275 4134 1275 3809 
L 1275 3500 
L 2222 3500 
L 2222 3053 
L 1275 3053 
L 1275 0 
L 697 0 
L 697 3053 
L 147 3053 
L 147 3500 
L 697 3500 
L 697 3744 
Q 697 4328 969 4595 
Q 1241 4863 1831 4863 
L 2375 4863 
z
" transform="scale(0.015625)"/>
      <path id="DejaVuSans-63" d="M 3122 3366 
L 3122 2828 
Q 2878 2963 2633 3030 
Q 2388 3097 2138 3097 
Q 1578 3097 1268 2742 
Q 959 2388 959 1747 
Q 959 1106 1268 751 
Q 1578 397 2138 397 
Q 2388 397 2633 464 
Q 2878 531 3122 666 
L 3122 134 
Q 2881 22 2623 -34 
Q 2366 -91 2075 -91 
Q 1284 -91 818 406 
Q 353 903 353 1747 
Q 353 2603 823 3093 
Q 1294 3584 2113 3584 
Q 2378 3584 2631 3529 
Q 2884 3475 3122 3366 
z
" transform="scale(0.015625)"/>
     </defs>
     <use xlink:href="#DejaVuSans-4d"/>
     <use xlink:href="#DejaVuSans-61" transform="translate(86.279297 0)"/>
     <use xlink:href="#DejaVuSans-78" transform="translate(147.558594 0)"/>
     <use xlink:href="#DejaVuSans-69" transform="translate(206.738281 0)"/>
     <use xlink:href="#DejaVuSans-6d" transform="translate(234.521484 0)"/>
     <use xlink:href="#DejaVuSans-75" transform="translate(331.933594 0)"/>
     <use xlink:href="#DejaVuSans-6d" transform="translate(395.3125 0)"/>
     <use xlink:href="#DejaVuSans-20" transform="translate(492.724609 0)"/>
     <use xlink:href="#DejaVuSans-6f" transform="translate(524.511719 0)"/>
     <use xlink:href="#DejaVuSans-66" transform="translate(585.693359 0)"/>
     <use xlink:href="#DejaVuSans-20" transform="translate(620.898438 0)"/>
     <use xlink:href="#DejaVuSans-31" transform="translate(652.685547 0)"/>
     <use xlink:href="#DejaVuSans-30" transform="translate(716.308594 0)"/>
     <use xlink:href="#DejaVuSans-30" transform="translate(779.931641 0)"/>
     <use xlink:href="#DejaVuSans-20" transform="translate(843.554688 0)"/>
     <use xlink:href="#DejaVuSans-52" transform="translate(875.341797 0)"/>
     <use xlink:href="#DejaVuSans-69" transform="translate(944.824219 0)"/>
     <use xlink:href="#DejaVuSans-63" transform="translate(972.607422 0)"/>
     <use xlink:href="#DejaVuSans-69" transform="translate(1027.587891 0)"/>
     <use xlink:href="#DejaVuSans-61" transform="translate(1055.371094 0)"/>
     <use xlink:href="#DejaVuSans-6e" transform="translate(1116.650391 0)"/>
     <use xlink:href="#DejaVuSans-20" transform="translate(1180.029297 0)"/>
     <use xlink:href="#DejaVuSans-72" transform="translate(1211.816406 0)"/>
     <use xlink:href="#DejaVuSans-61" transform="translate(1252.929688 0)"/>
     <use xlink:href="#DejaVuSans-6e" transform="translate(1314.208984 0)"/>
     <use xlink:href="#DejaVuSans-64" transform="translate(1377.587891 0)"/>
     <use xlink:href="#DejaVuSans-6f" transform="translate(1441.064453 0)"/>
     <use xlink:href="#DejaVuSans-6d" transform="translate(1502.246094 0)"/>
     <use xlink:href="#DejaVuSans-20" transform="translate(1599.658203 0)"/>
     <use xlink:href="#DejaVuSans-76" transform="translate(1631.445312 0)"/>
     <use xlink:href="#DejaVuSans-61" transform="translate(1690.625 0)"/>
     <use xlink:href="#DejaVuSans-72" transform="translate(1751.904297 0)"/>
     <use xlink:href="#DejaVuSans-69" transform="translate(1793.017578 0)"/>
     <use xlink:href="#DejaVuSans-61" transform="translate(1820.800781 0)"/>
     <use xlink:href="#DejaVuSans-62" transform="translate(1882.080078 0)"/>
     <use xlink:href="#DejaVuSans-6c" transform="translate(1945.556641 0)"/>
     <use xlink:href="#DejaVuSans-65" transform="translate(1973.339844 0)"/>
     <use xlink:href="#DejaVuSans-73" transform="translate(2034.863281 0)"/>
    </g>
   </g>
   <g id="legend_1">
    <g id="patch_8">
     <path d="M 394.5 74.374375 
L 561.8 74.374375 
Q 563.8 74.374375 563.8 72.374375 
L 563.8 29.318125 
Q 563.8 27.318125 561.8 27.318125 
L 394.5 27.318125 
Q 392.5 27.318125 392.5 29.318125 
L 392.5 72.374375 
Q 392.5 74.374375 394.5 74.374375 
z
" style="fill: #ffffff; opacity: 0.8; stroke: #cccccc; stroke-linejoin: miter"/>
    </g>
    <g id="line2d_33">
     <path d="M 396.5 35.416562 
L 406.5 35.416562 
L 416.5 35.416562 
" style="fill: none; stroke: #1f77b4; stroke-linecap: square"/>
    </g>
    <g id="text_19">
     <!-- $X$ -->
     <g transform="translate(424.5 38.916562) scale(0.1 -0.1)">
      <defs>
       <path id="DejaVuSans-Oblique-58" d="M 878 4666 
L 1516 4666 
L 2316 2981 
L 3763 4666 
L 4500 4666 
L 2578 2438 
L 3738 0 
L 3103 0 
L 2163 1966 
L 459 0 
L -275 0 
L 1906 2509 
L 878 4666 
z
" transform="scale(0.015625)"/>
      </defs>
      <use xlink:href="#DejaVuSans-Oblique-58" transform="translate(0 0.09375)"/>
     </g>
    </g>
    <g id="line2d_34">
     <path d="M 396.5 50.094687 
L 406.5 50.094687 
L 416.5 50.094687 
" style="fill: none; stroke: #ff7f0e; stroke-linecap: square"/>
    </g>
    <g id="text_20">
     <!-- $\max(X_1, \dots, X_{100})$ -->
     <g transform="translate(424.5 53.594687) scale(0.1 -0.1)">
      <defs>
       <path id="DejaVuSans-28" d="M 1984 4856 
Q 1566 4138 1362 3434 
Q 1159 2731 1159 2009 
Q 1159 1288 1364 580 
Q 1569 -128 1984 -844 
L 1484 -844 
Q 1016 -109 783 600 
Q 550 1309 550 2009 
Q 550 2706 781 3412 
Q 1013 4119 1484 4856 
L 1984 4856 
z
" transform="scale(0.015625)"/>
       <path id="DejaVuSans-2c" d="M 750 794 
L 1409 794 
L 1409 256 
L 897 -744 
L 494 -744 
L 750 256 
L 750 794 
z
" transform="scale(0.015625)"/>
       <path id="DejaVuSans-2026" d="M 2869 794 
L 3531 794 
L 3531 0 
L 2869 0 
L 2869 794 
z
M 4997 794 
L 5663 794 
L 5663 0 
L 4997 0 
L 4997 794 
z
M 738 794 
L 1403 794 
L 1403 0 
L 738 0 
L 738 794 
z
" transform="scale(0.015625)"/>
       <path id="DejaVuSans-29" d="M 513 4856 
L 1013 4856 
Q 1481 4119 1714 3412 
Q 1947 2706 1947 2009 
Q 1947 1309 1714 600 
Q 1481 -109 1013 -844 
L 513 -844 
Q 928 -128 1133 580 
Q 1338 1288 1338 2009 
Q 1338 2731 1133 3434 
Q 928 4138 513 4856 
z
" transform="scale(0.015625)"/>
      </defs>
      <use xlink:href="#DejaVuSans-6d" transform="translate(0 0.125)"/>
      <use xlink:href="#DejaVuSans-61" transform="translate(97.412109 0.125)"/>
      <use xlink:href="#DejaVuSans-78" transform="translate(158.691406 0.125)"/>
      <use xlink:href="#DejaVuSans-28" transform="translate(217.871094 0.125)"/>
      <use xlink:href="#DejaVuSans-Oblique-58" transform="translate(256.884766 0.125)"/>
      <use xlink:href="#DejaVuSans-31" transform="translate(325.390625 -16.28125) scale(0.7)"/>
      <use xlink:href="#DejaVuSans-2c" transform="translate(372.661133 0.125)"/>
      <use xlink:href="#DejaVuSans-2026" transform="translate(443.413086 0.125)"/>
      <use xlink:href="#DejaVuSans-2c" transform="translate(562.895508 0.125)"/>
      <use xlink:href="#DejaVuSans-Oblique-58" transform="translate(614.165039 0.125)"/>
      <use xlink:href="#DejaVuSans-31" transform="translate(682.670898 -16.28125) scale(0.7)"/>
      <use xlink:href="#DejaVuSans-30" transform="translate(727.207031 -16.28125) scale(0.7)"/>
      <use xlink:href="#DejaVuSans-30" transform="translate(771.743164 -16.28125) scale(0.7)"/>
      <use xlink:href="#DejaVuSans-29" transform="translate(819.013672 0.125)"/>
     </g>
    </g>
    <g id="patch_9">
     <path d="M 396.5 68.274375 
L 416.5 68.274375 
L 416.5 61.274375 
L 396.5 61.274375 
L 396.5 68.274375 
z
" style="fill: none; stroke: #2ca02c; stroke-linejoin: miter"/>
    </g>
    <g id="text_21">
     <!-- $\max(X_1, \dots, X_{100})$ empirical -->
     <g transform="translate(424.5 68.274375) scale(0.1 -0.1)">
      <defs>
       <path id="DejaVuSans-70" d="M 1159 525 
L 1159 -1331 
L 581 -1331 
L 581 3500 
L 1159 3500 
L 1159 2969 
Q 1341 3281 1617 3432 
Q 1894 3584 2278 3584 
Q 2916 3584 3314 3078 
Q 3713 2572 3713 1747 
Q 3713 922 3314 415 
Q 2916 -91 2278 -91 
Q 1894 -91 1617 61 
Q 1341 213 1159 525 
z
M 3116 1747 
Q 3116 2381 2855 2742 
Q 2594 3103 2138 3103 
Q 1681 3103 1420 2742 
Q 1159 2381 1159 1747 
Q 1159 1113 1420 752 
Q 1681 391 2138 391 
Q 2594 391 2855 752 
Q 3116 1113 3116 1747 
z
" transform="scale(0.015625)"/>
      </defs>
      <use xlink:href="#DejaVuSans-6d" transform="translate(0 0.015625)"/>
      <use xlink:href="#DejaVuSans-61" transform="translate(97.412109 0.015625)"/>
      <use xlink:href="#DejaVuSans-78" transform="translate(158.691406 0.015625)"/>
      <use xlink:href="#DejaVuSans-28" transform="translate(217.871094 0.015625)"/>
      <use xlink:href="#DejaVuSans-Oblique-58" transform="translate(256.884766 0.015625)"/>
      <use xlink:href="#DejaVuSans-31" transform="translate(325.390625 -16.390625) scale(0.7)"/>
      <use xlink:href="#DejaVuSans-2c" transform="translate(372.661133 0.015625)"/>
      <use xlink:href="#DejaVuSans-2026" transform="translate(443.413086 0.015625)"/>
      <use xlink:href="#DejaVuSans-2c" transform="translate(562.895508 0.015625)"/>
      <use xlink:href="#DejaVuSans-Oblique-58" transform="translate(614.165039 0.015625)"/>
      <use xlink:href="#DejaVuSans-31" transform="translate(682.670898 -16.390625) scale(0.7)"/>
      <use xlink:href="#DejaVuSans-30" transform="translate(727.207031 -16.390625) scale(0.7)"/>
      <use xlink:href="#DejaVuSans-30" transform="translate(771.743164 -16.390625) scale(0.7)"/>
      <use xlink:href="#DejaVuSans-29" transform="translate(819.013672 0.015625)"/>
      <use xlink:href="#DejaVuSans-20" transform="translate(858.027344 0.015625)"/>
      <use xlink:href="#DejaVuSans-65" transform="translate(889.814453 0.015625)"/>
      <use xlink:href="#DejaVuSans-6d" transform="translate(951.337891 0.015625)"/>
      <use xlink:href="#DejaVuSans-70" transform="translate(1048.75 0.015625)"/>
      <use xlink:href="#DejaVuSans-69" transform="translate(1112.226562 0.015625)"/>
      <use xlink:href="#DejaVuSans-72" transform="translate(1140.009766 0.015625)"/>
      <use xlink:href="#DejaVuSans-69" transform="translate(1181.123047 0.015625)"/>
      <use xlink:href="#DejaVuSans-63" transform="translate(1208.90625 0.015625)"/>
      <use xlink:href="#DejaVuSans-61" transform="translate(1263.886719 0.015625)"/>
      <use xlink:href="#DejaVuSans-6c" transform="translate(1325.166016 0.015625)"/>
     </g>
    </g>
   </g>
  </g>
 </g>
 <defs>
  <clipPath id="pc0673ee6ae">
   <rect x="43.78125" y="22.318125" width="525.01875" height="228.125625"/>
  </clipPath>
 </defs>
</svg>
