<?xml version="1.0" encoding="utf-8" standalone="no"?>
<!DOCTYPE svg PUBLIC "-//W3C//DTD SVG 1.1//EN"
  "http://www.w3.org/Graphics/SVG/1.1/DTD/svg11.dtd">
<svg xmlns:xlink="http://www.w3.org/1999/xlink" width="576pt" height="288pt" viewBox="0 0 576 288" xmlns="http://www.w3.org/2000/svg" version="1.1">
 <metadata>
  <rdf:RDF xmlns:dc="http://purl.org/dc/elements/1.1/" xmlns:cc="http://creativecommons.org/ns#" xmlns:rdf="http://www.w3.org/1999/02/22-rdf-syntax-ns#">
   <cc:Work>
    <dc:type rdf:resource="http://purl.org/dc/dcmitype/StillImage"/>
    <dc:date>2025-05-12T21:37:38.794695</dc:date>
    <dc:format>image/svg+xml</dc:format>
    <dc:creator>
     <cc:Agent>
      <dc:title>Matplotlib v3.10.3, https://matplotlib.org/</dc:title>
     </cc:Agent>
    </dc:creator>
   </cc:Work>
  </rdf:RDF>
 </metadata>
 <defs>
  <style type="text/css">*{stroke-linejoin: round; stroke-linecap: butt}</style>
 </defs>
 <g id="figure_1">
  <g id="patch_1">
   <path d="M 0 288 
L 576 288 
L 576 0 
L 0 0 
z
" style="fill: #ffffff"/>
  </g>
  <g id="axes_1">
   <g id="patch_2">
    <path d="M 44.845313 264.121875 
L 568.8 264.121875 
L 568.8 22.318125 
L 44.845313 22.318125 
z
" style="fill: #ffffff"/>
   </g>
   <g id="matplotlib.axis_1">
    <g id="xtick_1">
     <g id="line2d_1">
      <path d="M 68.661435 264.121875 
L 68.661435 22.318125 
" clip-path="url(#p2f1f2b3aa7)" style="fill: none; stroke-dasharray: 2.96,1.28; stroke-dashoffset: 0; stroke: #b0b0b0; stroke-opacity: 0.8; stroke-width: 0.8"/>
     </g>
     <g id="line2d_2">
      <defs>
       <path id="m92c0b2427d" d="M 0 0 
L 0 3.5 
" style="stroke: #000000; stroke-width: 0.8"/>
      </defs>
      <g>
       <use xlink:href="#m92c0b2427d" x="68.661435" y="264.121875" style="stroke: #000000; stroke-width: 0.8"/>
      </g>
     </g>
     <g id="text_1">
      <!-- 0 -->
      <g transform="translate(65.480185 278.720312) scale(0.1 -0.1)">
       <defs>
        <path id="DejaVuSans-30" d="M 2034 4250 
Q 1547 4250 1301 3770 
Q 1056 3291 1056 2328 
Q 1056 1369 1301 889 
Q 1547 409 2034 409 
Q 2525 409 2770 889 
Q 3016 1369 3016 2328 
Q 3016 3291 2770 3770 
Q 2525 4250 2034 4250 
z
M 2034 4750 
Q 2819 4750 3233 4129 
Q 3647 3509 3647 2328 
Q 3647 1150 3233 529 
Q 2819 -91 2034 -91 
Q 1250 -91 836 529 
Q 422 1150 422 2328 
Q 422 3509 836 4129 
Q 1250 4750 2034 4750 
z
" transform="scale(0.015625)"/>
       </defs>
       <use xlink:href="#DejaVuSans-30"/>
      </g>
     </g>
    </g>
    <g id="xtick_2">
     <g id="line2d_3">
      <path d="M 128.20174 264.121875 
L 128.20174 22.318125 
" clip-path="url(#p2f1f2b3aa7)" style="fill: none; stroke-dasharray: 2.96,1.28; stroke-dashoffset: 0; stroke: #b0b0b0; stroke-opacity: 0.8; stroke-width: 0.8"/>
     </g>
     <g id="line2d_4">
      <g>
       <use xlink:href="#m92c0b2427d" x="128.20174" y="264.121875" style="stroke: #000000; stroke-width: 0.8"/>
      </g>
     </g>
     <g id="text_2">
      <!-- 10 -->
      <g transform="translate(121.83924 278.720312) scale(0.1 -0.1)">
       <defs>
        <path id="DejaVuSans-31" d="M 794 531 
L 1825 531 
L 1825 4091 
L 703 3866 
L 703 4441 
L 1819 4666 
L 2450 4666 
L 2450 531 
L 3481 531 
L 3481 0 
L 794 0 
L 794 531 
z
" transform="scale(0.015625)"/>
       </defs>
       <use xlink:href="#DejaVuSans-31"/>
       <use xlink:href="#DejaVuSans-30" transform="translate(63.623047 0)"/>
      </g>
     </g>
    </g>
    <g id="xtick_3">
     <g id="line2d_5">
      <path d="M 187.742045 264.121875 
L 187.742045 22.318125 
" clip-path="url(#p2f1f2b3aa7)" style="fill: none; stroke-dasharray: 2.96,1.28; stroke-dashoffset: 0; stroke: #b0b0b0; stroke-opacity: 0.8; stroke-width: 0.8"/>
     </g>
     <g id="line2d_6">
      <g>
       <use xlink:href="#m92c0b2427d" x="187.742045" y="264.121875" style="stroke: #000000; stroke-width: 0.8"/>
      </g>
     </g>
     <g id="text_3">
      <!-- 20 -->
      <g transform="translate(181.379545 278.720312) scale(0.1 -0.1)">
       <defs>
        <path id="DejaVuSans-32" d="M 1228 531 
L 3431 531 
L 3431 0 
L 469 0 
L 469 531 
Q 828 903 1448 1529 
Q 2069 2156 2228 2338 
Q 2531 2678 2651 2914 
Q 2772 3150 2772 3378 
Q 2772 3750 2511 3984 
Q 2250 4219 1831 4219 
Q 1534 4219 1204 4116 
Q 875 4013 500 3803 
L 500 4441 
Q 881 4594 1212 4672 
Q 1544 4750 1819 4750 
Q 2544 4750 2975 4387 
Q 3406 4025 3406 3419 
Q 3406 3131 3298 2873 
Q 3191 2616 2906 2266 
Q 2828 2175 2409 1742 
Q 1991 1309 1228 531 
z
" transform="scale(0.015625)"/>
       </defs>
       <use xlink:href="#DejaVuSans-32"/>
       <use xlink:href="#DejaVuSans-30" transform="translate(63.623047 0)"/>
      </g>
     </g>
    </g>
    <g id="xtick_4">
     <g id="line2d_7">
      <path d="M 247.282351 264.121875 
L 247.282351 22.318125 
" clip-path="url(#p2f1f2b3aa7)" style="fill: none; stroke-dasharray: 2.96,1.28; stroke-dashoffset: 0; stroke: #b0b0b0; stroke-opacity: 0.8; stroke-width: 0.8"/>
     </g>
     <g id="line2d_8">
      <g>
       <use xlink:href="#m92c0b2427d" x="247.282351" y="264.121875" style="stroke: #000000; stroke-width: 0.8"/>
      </g>
     </g>
     <g id="text_4">
      <!-- 30 -->
      <g transform="translate(240.919851 278.720312) scale(0.1 -0.1)">
       <defs>
        <path id="DejaVuSans-33" d="M 2597 2516 
Q 3050 2419 3304 2112 
Q 3559 1806 3559 1356 
Q 3559 666 3084 287 
Q 2609 -91 1734 -91 
Q 1441 -91 1130 -33 
Q 819 25 488 141 
L 488 750 
Q 750 597 1062 519 
Q 1375 441 1716 441 
Q 2309 441 2620 675 
Q 2931 909 2931 1356 
Q 2931 1769 2642 2001 
Q 2353 2234 1838 2234 
L 1294 2234 
L 1294 2753 
L 1863 2753 
Q 2328 2753 2575 2939 
Q 2822 3125 2822 3475 
Q 2822 3834 2567 4026 
Q 2313 4219 1838 4219 
Q 1578 4219 1281 4162 
Q 984 4106 628 3988 
L 628 4550 
Q 988 4650 1302 4700 
Q 1616 4750 1894 4750 
Q 2613 4750 3031 4423 
Q 3450 4097 3450 3541 
Q 3450 3153 3228 2886 
Q 3006 2619 2597 2516 
z
" transform="scale(0.015625)"/>
       </defs>
       <use xlink:href="#DejaVuSans-33"/>
       <use xlink:href="#DejaVuSans-30" transform="translate(63.623047 0)"/>
      </g>
     </g>
    </g>
    <g id="xtick_5">
     <g id="line2d_9">
      <path d="M 306.822656 264.121875 
L 306.822656 22.318125 
" clip-path="url(#p2f1f2b3aa7)" style="fill: none; stroke-dasharray: 2.96,1.28; stroke-dashoffset: 0; stroke: #b0b0b0; stroke-opacity: 0.8; stroke-width: 0.8"/>
     </g>
     <g id="line2d_10">
      <g>
       <use xlink:href="#m92c0b2427d" x="306.822656" y="264.121875" style="stroke: #000000; stroke-width: 0.8"/>
      </g>
     </g>
     <g id="text_5">
      <!-- 40 -->
      <g transform="translate(300.460156 278.720312) scale(0.1 -0.1)">
       <defs>
        <path id="DejaVuSans-34" d="M 2419 4116 
L 825 1625 
L 2419 1625 
L 2419 4116 
z
M 2253 4666 
L 3047 4666 
L 3047 1625 
L 3713 1625 
L 3713 1100 
L 3047 1100 
L 3047 0 
L 2419 0 
L 2419 1100 
L 313 1100 
L 313 1709 
L 2253 4666 
z
" transform="scale(0.015625)"/>
       </defs>
       <use xlink:href="#DejaVuSans-34"/>
       <use xlink:href="#DejaVuSans-30" transform="translate(63.623047 0)"/>
      </g>
     </g>
    </g>
    <g id="xtick_6">
     <g id="line2d_11">
      <path d="M 366.362962 264.121875 
L 366.362962 22.318125 
" clip-path="url(#p2f1f2b3aa7)" style="fill: none; stroke-dasharray: 2.96,1.28; stroke-dashoffset: 0; stroke: #b0b0b0; stroke-opacity: 0.8; stroke-width: 0.8"/>
     </g>
     <g id="line2d_12">
      <g>
       <use xlink:href="#m92c0b2427d" x="366.362962" y="264.121875" style="stroke: #000000; stroke-width: 0.8"/>
      </g>
     </g>
     <g id="text_6">
      <!-- 50 -->
      <g transform="translate(360.000462 278.720312) scale(0.1 -0.1)">
       <defs>
        <path id="DejaVuSans-35" d="M 691 4666 
L 3169 4666 
L 3169 4134 
L 1269 4134 
L 1269 2991 
Q 1406 3038 1543 3061 
Q 1681 3084 1819 3084 
Q 2600 3084 3056 2656 
Q 3513 2228 3513 1497 
Q 3513 744 3044 326 
Q 2575 -91 1722 -91 
Q 1428 -91 1123 -41 
Q 819 9 494 109 
L 494 744 
Q 775 591 1075 516 
Q 1375 441 1709 441 
Q 2250 441 2565 725 
Q 2881 1009 2881 1497 
Q 2881 1984 2565 2268 
Q 2250 2553 1709 2553 
Q 1456 2553 1204 2497 
Q 953 2441 691 2322 
L 691 4666 
z
" transform="scale(0.015625)"/>
       </defs>
       <use xlink:href="#DejaVuSans-35"/>
       <use xlink:href="#DejaVuSans-30" transform="translate(63.623047 0)"/>
      </g>
     </g>
    </g>
    <g id="xtick_7">
     <g id="line2d_13">
      <path d="M 425.903267 264.121875 
L 425.903267 22.318125 
" clip-path="url(#p2f1f2b3aa7)" style="fill: none; stroke-dasharray: 2.96,1.28; stroke-dashoffset: 0; stroke: #b0b0b0; stroke-opacity: 0.8; stroke-width: 0.8"/>
     </g>
     <g id="line2d_14">
      <g>
       <use xlink:href="#m92c0b2427d" x="425.903267" y="264.121875" style="stroke: #000000; stroke-width: 0.8"/>
      </g>
     </g>
     <g id="text_7">
      <!-- 60 -->
      <g transform="translate(419.540767 278.720312) scale(0.1 -0.1)">
       <defs>
        <path id="DejaVuSans-36" d="M 2113 2584 
Q 1688 2584 1439 2293 
Q 1191 2003 1191 1497 
Q 1191 994 1439 701 
Q 1688 409 2113 409 
Q 2538 409 2786 701 
Q 3034 994 3034 1497 
Q 3034 2003 2786 2293 
Q 2538 2584 2113 2584 
z
M 3366 4563 
L 3366 3988 
Q 3128 4100 2886 4159 
Q 2644 4219 2406 4219 
Q 1781 4219 1451 3797 
Q 1122 3375 1075 2522 
Q 1259 2794 1537 2939 
Q 1816 3084 2150 3084 
Q 2853 3084 3261 2657 
Q 3669 2231 3669 1497 
Q 3669 778 3244 343 
Q 2819 -91 2113 -91 
Q 1303 -91 875 529 
Q 447 1150 447 2328 
Q 447 3434 972 4092 
Q 1497 4750 2381 4750 
Q 2619 4750 2861 4703 
Q 3103 4656 3366 4563 
z
" transform="scale(0.015625)"/>
       </defs>
       <use xlink:href="#DejaVuSans-36"/>
       <use xlink:href="#DejaVuSans-30" transform="translate(63.623047 0)"/>
      </g>
     </g>
    </g>
    <g id="xtick_8">
     <g id="line2d_15">
      <path d="M 485.443572 264.121875 
L 485.443572 22.318125 
" clip-path="url(#p2f1f2b3aa7)" style="fill: none; stroke-dasharray: 2.96,1.28; stroke-dashoffset: 0; stroke: #b0b0b0; stroke-opacity: 0.8; stroke-width: 0.8"/>
     </g>
     <g id="line2d_16">
      <g>
       <use xlink:href="#m92c0b2427d" x="485.443572" y="264.121875" style="stroke: #000000; stroke-width: 0.8"/>
      </g>
     </g>
     <g id="text_8">
      <!-- 70 -->
      <g transform="translate(479.081072 278.720312) scale(0.1 -0.1)">
       <defs>
        <path id="DejaVuSans-37" d="M 525 4666 
L 3525 4666 
L 3525 4397 
L 1831 0 
L 1172 0 
L 2766 4134 
L 525 4134 
L 525 4666 
z
" transform="scale(0.015625)"/>
       </defs>
       <use xlink:href="#DejaVuSans-37"/>
       <use xlink:href="#DejaVuSans-30" transform="translate(63.623047 0)"/>
      </g>
     </g>
    </g>
    <g id="xtick_9">
     <g id="line2d_17">
      <path d="M 544.983878 264.121875 
L 544.983878 22.318125 
" clip-path="url(#p2f1f2b3aa7)" style="fill: none; stroke-dasharray: 2.96,1.28; stroke-dashoffset: 0; stroke: #b0b0b0; stroke-opacity: 0.8; stroke-width: 0.8"/>
     </g>
     <g id="line2d_18">
      <g>
       <use xlink:href="#m92c0b2427d" x="544.983878" y="264.121875" style="stroke: #000000; stroke-width: 0.8"/>
      </g>
     </g>
     <g id="text_9">
      <!-- 80 -->
      <g transform="translate(538.621378 278.720312) scale(0.1 -0.1)">
       <defs>
        <path id="DejaVuSans-38" d="M 2034 2216 
Q 1584 2216 1326 1975 
Q 1069 1734 1069 1313 
Q 1069 891 1326 650 
Q 1584 409 2034 409 
Q 2484 409 2743 651 
Q 3003 894 3003 1313 
Q 3003 1734 2745 1975 
Q 2488 2216 2034 2216 
z
M 1403 2484 
Q 997 2584 770 2862 
Q 544 3141 544 3541 
Q 544 4100 942 4425 
Q 1341 4750 2034 4750 
Q 2731 4750 3128 4425 
Q 3525 4100 3525 3541 
Q 3525 3141 3298 2862 
Q 3072 2584 2669 2484 
Q 3125 2378 3379 2068 
Q 3634 1759 3634 1313 
Q 3634 634 3220 271 
Q 2806 -91 2034 -91 
Q 1263 -91 848 271 
Q 434 634 434 1313 
Q 434 1759 690 2068 
Q 947 2378 1403 2484 
z
M 1172 3481 
Q 1172 3119 1398 2916 
Q 1625 2713 2034 2713 
Q 2441 2713 2670 2916 
Q 2900 3119 2900 3481 
Q 2900 3844 2670 4047 
Q 2441 4250 2034 4250 
Q 1625 4250 1398 4047 
Q 1172 3844 1172 3481 
z
" transform="scale(0.015625)"/>
       </defs>
       <use xlink:href="#DejaVuSans-38"/>
       <use xlink:href="#DejaVuSans-30" transform="translate(63.623047 0)"/>
      </g>
     </g>
    </g>
   </g>
   <g id="matplotlib.axis_2">
    <g id="ytick_1">
     <g id="line2d_19">
      <path d="M 44.845313 242.8353 
L 568.8 242.8353 
" clip-path="url(#p2f1f2b3aa7)" style="fill: none; stroke-dasharray: 2.96,1.28; stroke-dashoffset: 0; stroke: #b0b0b0; stroke-opacity: 0.8; stroke-width: 0.8"/>
     </g>
     <g id="line2d_20">
      <defs>
       <path id="m03bbfaf543" d="M 0 0 
L -3.5 0 
" style="stroke: #000000; stroke-width: 0.8"/>
      </defs>
      <g>
       <use xlink:href="#m03bbfaf543" x="44.845313" y="242.8353" style="stroke: #000000; stroke-width: 0.8"/>
      </g>
     </g>
     <g id="text_10">
      <!-- −0.05 -->
      <g transform="translate(7.2 246.634519) scale(0.1 -0.1)">
       <defs>
        <path id="DejaVuSans-2212" d="M 678 2272 
L 4684 2272 
L 4684 1741 
L 678 1741 
L 678 2272 
z
" transform="scale(0.015625)"/>
        <path id="DejaVuSans-2e" d="M 684 794 
L 1344 794 
L 1344 0 
L 684 0 
L 684 794 
z
" transform="scale(0.015625)"/>
       </defs>
       <use xlink:href="#DejaVuSans-2212"/>
       <use xlink:href="#DejaVuSans-30" transform="translate(83.789062 0)"/>
       <use xlink:href="#DejaVuSans-2e" transform="translate(147.412109 0)"/>
       <use xlink:href="#DejaVuSans-30" transform="translate(179.199219 0)"/>
       <use xlink:href="#DejaVuSans-35" transform="translate(242.822266 0)"/>
      </g>
     </g>
    </g>
    <g id="ytick_2">
     <g id="line2d_21">
      <path d="M 44.845313 214.635159 
L 568.8 214.635159 
" clip-path="url(#p2f1f2b3aa7)" style="fill: none; stroke-dasharray: 2.96,1.28; stroke-dashoffset: 0; stroke: #b0b0b0; stroke-opacity: 0.8; stroke-width: 0.8"/>
     </g>
     <g id="line2d_22">
      <g>
       <use xlink:href="#m03bbfaf543" x="44.845313" y="214.635159" style="stroke: #000000; stroke-width: 0.8"/>
      </g>
     </g>
     <g id="text_11">
      <!-- 0.00 -->
      <g transform="translate(15.579688 218.434378) scale(0.1 -0.1)">
       <use xlink:href="#DejaVuSans-30"/>
       <use xlink:href="#DejaVuSans-2e" transform="translate(63.623047 0)"/>
       <use xlink:href="#DejaVuSans-30" transform="translate(95.410156 0)"/>
       <use xlink:href="#DejaVuSans-30" transform="translate(159.033203 0)"/>
      </g>
     </g>
    </g>
    <g id="ytick_3">
     <g id="line2d_23">
      <path d="M 44.845313 186.435018 
L 568.8 186.435018 
" clip-path="url(#p2f1f2b3aa7)" style="fill: none; stroke-dasharray: 2.96,1.28; stroke-dashoffset: 0; stroke: #b0b0b0; stroke-opacity: 0.8; stroke-width: 0.8"/>
     </g>
     <g id="line2d_24">
      <g>
       <use xlink:href="#m03bbfaf543" x="44.845313" y="186.435018" style="stroke: #000000; stroke-width: 0.8"/>
      </g>
     </g>
     <g id="text_12">
      <!-- 0.05 -->
      <g transform="translate(15.579688 190.234237) scale(0.1 -0.1)">
       <use xlink:href="#DejaVuSans-30"/>
       <use xlink:href="#DejaVuSans-2e" transform="translate(63.623047 0)"/>
       <use xlink:href="#DejaVuSans-30" transform="translate(95.410156 0)"/>
       <use xlink:href="#DejaVuSans-35" transform="translate(159.033203 0)"/>
      </g>
     </g>
    </g>
    <g id="ytick_4">
     <g id="line2d_25">
      <path d="M 44.845313 158.234877 
L 568.8 158.234877 
" clip-path="url(#p2f1f2b3aa7)" style="fill: none; stroke-dasharray: 2.96,1.28; stroke-dashoffset: 0; stroke: #b0b0b0; stroke-opacity: 0.8; stroke-width: 0.8"/>
     </g>
     <g id="line2d_26">
      <g>
       <use xlink:href="#m03bbfaf543" x="44.845313" y="158.234877" style="stroke: #000000; stroke-width: 0.8"/>
      </g>
     </g>
     <g id="text_13">
      <!-- 0.10 -->
      <g transform="translate(15.579688 162.034096) scale(0.1 -0.1)">
       <use xlink:href="#DejaVuSans-30"/>
       <use xlink:href="#DejaVuSans-2e" transform="translate(63.623047 0)"/>
       <use xlink:href="#DejaVuSans-31" transform="translate(95.410156 0)"/>
       <use xlink:href="#DejaVuSans-30" transform="translate(159.033203 0)"/>
      </g>
     </g>
    </g>
    <g id="ytick_5">
     <g id="line2d_27">
      <path d="M 44.845313 130.034736 
L 568.8 130.034736 
" clip-path="url(#p2f1f2b3aa7)" style="fill: none; stroke-dasharray: 2.96,1.28; stroke-dashoffset: 0; stroke: #b0b0b0; stroke-opacity: 0.8; stroke-width: 0.8"/>
     </g>
     <g id="line2d_28">
      <g>
       <use xlink:href="#m03bbfaf543" x="44.845313" y="130.034736" style="stroke: #000000; stroke-width: 0.8"/>
      </g>
     </g>
     <g id="text_14">
      <!-- 0.15 -->
      <g transform="translate(15.579688 133.833955) scale(0.1 -0.1)">
       <use xlink:href="#DejaVuSans-30"/>
       <use xlink:href="#DejaVuSans-2e" transform="translate(63.623047 0)"/>
       <use xlink:href="#DejaVuSans-31" transform="translate(95.410156 0)"/>
       <use xlink:href="#DejaVuSans-35" transform="translate(159.033203 0)"/>
      </g>
     </g>
    </g>
    <g id="ytick_6">
     <g id="line2d_29">
      <path d="M 44.845313 101.834596 
L 568.8 101.834596 
" clip-path="url(#p2f1f2b3aa7)" style="fill: none; stroke-dasharray: 2.96,1.28; stroke-dashoffset: 0; stroke: #b0b0b0; stroke-opacity: 0.8; stroke-width: 0.8"/>
     </g>
     <g id="line2d_30">
      <g>
       <use xlink:href="#m03bbfaf543" x="44.845313" y="101.834596" style="stroke: #000000; stroke-width: 0.8"/>
      </g>
     </g>
     <g id="text_15">
      <!-- 0.20 -->
      <g transform="translate(15.579688 105.633814) scale(0.1 -0.1)">
       <use xlink:href="#DejaVuSans-30"/>
       <use xlink:href="#DejaVuSans-2e" transform="translate(63.623047 0)"/>
       <use xlink:href="#DejaVuSans-32" transform="translate(95.410156 0)"/>
       <use xlink:href="#DejaVuSans-30" transform="translate(159.033203 0)"/>
      </g>
     </g>
    </g>
    <g id="ytick_7">
     <g id="line2d_31">
      <path d="M 44.845313 73.634455 
L 568.8 73.634455 
" clip-path="url(#p2f1f2b3aa7)" style="fill: none; stroke-dasharray: 2.96,1.28; stroke-dashoffset: 0; stroke: #b0b0b0; stroke-opacity: 0.8; stroke-width: 0.8"/>
     </g>
     <g id="line2d_32">
      <g>
       <use xlink:href="#m03bbfaf543" x="44.845313" y="73.634455" style="stroke: #000000; stroke-width: 0.8"/>
      </g>
     </g>
     <g id="text_16">
      <!-- 0.25 -->
      <g transform="translate(15.579688 77.433673) scale(0.1 -0.1)">
       <use xlink:href="#DejaVuSans-30"/>
       <use xlink:href="#DejaVuSans-2e" transform="translate(63.623047 0)"/>
       <use xlink:href="#DejaVuSans-32" transform="translate(95.410156 0)"/>
       <use xlink:href="#DejaVuSans-35" transform="translate(159.033203 0)"/>
      </g>
     </g>
    </g>
    <g id="ytick_8">
     <g id="line2d_33">
      <path d="M 44.845313 45.434314 
L 568.8 45.434314 
" clip-path="url(#p2f1f2b3aa7)" style="fill: none; stroke-dasharray: 2.96,1.28; stroke-dashoffset: 0; stroke: #b0b0b0; stroke-opacity: 0.8; stroke-width: 0.8"/>
     </g>
     <g id="line2d_34">
      <g>
       <use xlink:href="#m03bbfaf543" x="44.845313" y="45.434314" style="stroke: #000000; stroke-width: 0.8"/>
      </g>
     </g>
     <g id="text_17">
      <!-- 0.30 -->
      <g transform="translate(15.579688 49.233532) scale(0.1 -0.1)">
       <use xlink:href="#DejaVuSans-30"/>
       <use xlink:href="#DejaVuSans-2e" transform="translate(63.623047 0)"/>
       <use xlink:href="#DejaVuSans-33" transform="translate(95.410156 0)"/>
       <use xlink:href="#DejaVuSans-30" transform="translate(159.033203 0)"/>
      </g>
     </g>
    </g>
   </g>
   <g id="line2d_35"/>
   <g id="LineCollection_1">
    <path d="M 68.661435 214.635159 
L 68.661435 214.635159 
" clip-path="url(#p2f1f2b3aa7)" style="fill: none; stroke: #1f77b4"/>
    <path d="M 74.615465 214.635159 
L 74.615465 218.591093 
" clip-path="url(#p2f1f2b3aa7)" style="fill: none; stroke: #1f77b4"/>
    <path d="M 80.569496 214.635159 
L 80.569496 222.415813 
" clip-path="url(#p2f1f2b3aa7)" style="fill: none; stroke: #1f77b4"/>
    <path d="M 86.523526 214.635159 
L 86.523526 225.714035 
" clip-path="url(#p2f1f2b3aa7)" style="fill: none; stroke: #1f77b4"/>
    <path d="M 92.477557 214.635159 
L 92.477557 228.115845 
" clip-path="url(#p2f1f2b3aa7)" style="fill: none; stroke: #1f77b4"/>
    <path d="M 98.431587 214.635159 
L 98.431587 229.314909 
" clip-path="url(#p2f1f2b3aa7)" style="fill: none; stroke: #1f77b4"/>
    <path d="M 104.385618 214.635159 
L 104.385618 229.102986 
" clip-path="url(#p2f1f2b3aa7)" style="fill: none; stroke: #1f77b4"/>
    <path d="M 110.339648 214.635159 
L 110.339648 227.397194 
" clip-path="url(#p2f1f2b3aa7)" style="fill: none; stroke: #1f77b4"/>
    <path d="M 116.293679 214.635159 
L 116.293679 224.256972 
" clip-path="url(#p2f1f2b3aa7)" style="fill: none; stroke: #1f77b4"/>
    <path d="M 122.24771 214.635159 
L 122.24771 219.888468 
" clip-path="url(#p2f1f2b3aa7)" style="fill: none; stroke: #1f77b4"/>
    <path d="M 128.20174 214.635159 
L 128.20174 214.635159 
" clip-path="url(#p2f1f2b3aa7)" style="fill: none; stroke: #1f77b4"/>
    <path d="M 134.155771 214.635159 
L 134.155771 208.95471 
" clip-path="url(#p2f1f2b3aa7)" style="fill: none; stroke: #1f77b4"/>
    <path d="M 140.109801 214.635159 
L 140.109801 203.383362 
" clip-path="url(#p2f1f2b3aa7)" style="fill: none; stroke: #1f77b4"/>
    <path d="M 146.063832 214.635159 
L 146.063832 198.490394 
" clip-path="url(#p2f1f2b3aa7)" style="fill: none; stroke: #1f77b4"/>
    <path d="M 152.017862 214.635159 
L 152.017862 194.826203 
" clip-path="url(#p2f1f2b3aa7)" style="fill: none; stroke: #1f77b4"/>
    <path d="M 157.971893 214.635159 
L 157.971893 192.868397 
" clip-path="url(#p2f1f2b3aa7)" style="fill: none; stroke: #1f77b4"/>
    <path d="M 163.925923 214.635159 
L 163.925923 192.970645 
" clip-path="url(#p2f1f2b3aa7)" style="fill: none; stroke: #1f77b4"/>
    <path d="M 169.879954 214.635159 
L 169.879954 195.319085 
" clip-path="url(#p2f1f2b3aa7)" style="fill: none; stroke: #1f77b4"/>
    <path d="M 175.833984 214.635159 
L 175.833984 199.900649 
" clip-path="url(#p2f1f2b3aa7)" style="fill: none; stroke: #1f77b4"/>
    <path d="M 181.788015 214.635159 
L 181.788015 206.48682 
" clip-path="url(#p2f1f2b3aa7)" style="fill: none; stroke: #1f77b4"/>
    <path d="M 187.742045 214.635159 
L 187.742045 214.635159 
" clip-path="url(#p2f1f2b3aa7)" style="fill: none; stroke: #1f77b4"/>
    <path d="M 193.696076 214.635159 
L 193.696076 223.709517 
" clip-path="url(#p2f1f2b3aa7)" style="fill: none; stroke: #1f77b4"/>
    <path d="M 199.650107 214.635159 
L 199.650107 232.918205 
" clip-path="url(#p2f1f2b3aa7)" style="fill: none; stroke: #1f77b4"/>
    <path d="M 205.604137 214.635159 
L 205.604137 241.367876 
" clip-path="url(#p2f1f2b3aa7)" style="fill: none; stroke: #1f77b4"/>
    <path d="M 211.558168 214.635159 
L 211.558168 248.129368 
" clip-path="url(#p2f1f2b3aa7)" style="fill: none; stroke: #1f77b4"/>
    <path d="M 217.512198 214.635159 
L 217.512198 252.310599 
" clip-path="url(#p2f1f2b3aa7)" style="fill: none; stroke: #1f77b4"/>
    <path d="M 223.466229 214.635159 
L 223.466229 253.130795 
" clip-path="url(#p2f1f2b3aa7)" style="fill: none; stroke: #1f77b4"/>
    <path d="M 229.420259 214.635159 
L 229.420259 249.989986 
" clip-path="url(#p2f1f2b3aa7)" style="fill: none; stroke: #1f77b4"/>
    <path d="M 235.37429 214.635159 
L 235.37429 242.527876 
" clip-path="url(#p2f1f2b3aa7)" style="fill: none; stroke: #1f77b4"/>
    <path d="M 241.32832 214.635159 
L 241.32832 230.666873 
" clip-path="url(#p2f1f2b3aa7)" style="fill: none; stroke: #1f77b4"/>
    <path d="M 247.282351 214.635159 
L 247.282351 214.635159 
" clip-path="url(#p2f1f2b3aa7)" style="fill: none; stroke: #1f77b4"/>
    <path d="M 253.236381 214.635159 
L 253.236381 194.967251 
" clip-path="url(#p2f1f2b3aa7)" style="fill: none; stroke: #1f77b4"/>
    <path d="M 259.190412 214.635159 
L 259.190412 172.481194 
" clip-path="url(#p2f1f2b3aa7)" style="fill: none; stroke: #1f77b4"/>
    <path d="M 265.144442 214.635159 
L 265.144442 148.233462 
" clip-path="url(#p2f1f2b3aa7)" style="fill: none; stroke: #1f77b4"/>
    <path d="M 271.098473 214.635159 
L 271.098473 123.454445 
" clip-path="url(#p2f1f2b3aa7)" style="fill: none; stroke: #1f77b4"/>
    <path d="M 277.052504 214.635159 
L 277.052504 99.469015 
" clip-path="url(#p2f1f2b3aa7)" style="fill: none; stroke: #1f77b4"/>
    <path d="M 283.006534 214.635159 
L 283.006534 77.607974 
" clip-path="url(#p2f1f2b3aa7)" style="fill: none; stroke: #1f77b4"/>
    <path d="M 288.960565 214.635159 
L 288.960565 59.117014 
" clip-path="url(#p2f1f2b3aa7)" style="fill: none; stroke: #1f77b4"/>
    <path d="M 294.914595 214.635159 
L 294.914595 45.070091 
" clip-path="url(#p2f1f2b3aa7)" style="fill: none; stroke: #1f77b4"/>
    <path d="M 300.868626 214.635159 
L 300.868626 36.293885 
" clip-path="url(#p2f1f2b3aa7)" style="fill: none; stroke: #1f77b4"/>
    <path d="M 306.822656 214.635159 
L 306.822656 33.309205 
" clip-path="url(#p2f1f2b3aa7)" style="fill: none; stroke: #1f77b4"/>
    <path d="M 312.776687 214.635159 
L 312.776687 36.293885 
" clip-path="url(#p2f1f2b3aa7)" style="fill: none; stroke: #1f77b4"/>
    <path d="M 318.730717 214.635159 
L 318.730717 45.070091 
" clip-path="url(#p2f1f2b3aa7)" style="fill: none; stroke: #1f77b4"/>
    <path d="M 324.684748 214.635159 
L 324.684748 59.117014 
" clip-path="url(#p2f1f2b3aa7)" style="fill: none; stroke: #1f77b4"/>
    <path d="M 330.638778 214.635159 
L 330.638778 77.607974 
" clip-path="url(#p2f1f2b3aa7)" style="fill: none; stroke: #1f77b4"/>
    <path d="M 336.592809 214.635159 
L 336.592809 99.469015 
" clip-path="url(#p2f1f2b3aa7)" style="fill: none; stroke: #1f77b4"/>
    <path d="M 342.546839 214.635159 
L 342.546839 123.454445 
" clip-path="url(#p2f1f2b3aa7)" style="fill: none; stroke: #1f77b4"/>
    <path d="M 348.50087 214.635159 
L 348.50087 148.233462 
" clip-path="url(#p2f1f2b3aa7)" style="fill: none; stroke: #1f77b4"/>
    <path d="M 354.454901 214.635159 
L 354.454901 172.481194 
" clip-path="url(#p2f1f2b3aa7)" style="fill: none; stroke: #1f77b4"/>
    <path d="M 360.408931 214.635159 
L 360.408931 194.967251 
" clip-path="url(#p2f1f2b3aa7)" style="fill: none; stroke: #1f77b4"/>
    <path d="M 366.362962 214.635159 
L 366.362962 214.635159 
" clip-path="url(#p2f1f2b3aa7)" style="fill: none; stroke: #1f77b4"/>
    <path d="M 372.316992 214.635159 
L 372.316992 230.666873 
" clip-path="url(#p2f1f2b3aa7)" style="fill: none; stroke: #1f77b4"/>
    <path d="M 378.271023 214.635159 
L 378.271023 242.527876 
" clip-path="url(#p2f1f2b3aa7)" style="fill: none; stroke: #1f77b4"/>
    <path d="M 384.225053 214.635159 
L 384.225053 249.989986 
" clip-path="url(#p2f1f2b3aa7)" style="fill: none; stroke: #1f77b4"/>
    <path d="M 390.179084 214.635159 
L 390.179084 253.130795 
" clip-path="url(#p2f1f2b3aa7)" style="fill: none; stroke: #1f77b4"/>
    <path d="M 396.133114 214.635159 
L 396.133114 252.310599 
" clip-path="url(#p2f1f2b3aa7)" style="fill: none; stroke: #1f77b4"/>
    <path d="M 402.087145 214.635159 
L 402.087145 248.129368 
" clip-path="url(#p2f1f2b3aa7)" style="fill: none; stroke: #1f77b4"/>
    <path d="M 408.041175 214.635159 
L 408.041175 241.367876 
" clip-path="url(#p2f1f2b3aa7)" style="fill: none; stroke: #1f77b4"/>
    <path d="M 413.995206 214.635159 
L 413.995206 232.918205 
" clip-path="url(#p2f1f2b3aa7)" style="fill: none; stroke: #1f77b4"/>
    <path d="M 419.949237 214.635159 
L 419.949237 223.709517 
" clip-path="url(#p2f1f2b3aa7)" style="fill: none; stroke: #1f77b4"/>
    <path d="M 425.903267 214.635159 
L 425.903267 214.635159 
" clip-path="url(#p2f1f2b3aa7)" style="fill: none; stroke: #1f77b4"/>
    <path d="M 431.857298 214.635159 
L 431.857298 206.48682 
" clip-path="url(#p2f1f2b3aa7)" style="fill: none; stroke: #1f77b4"/>
    <path d="M 437.811328 214.635159 
L 437.811328 199.900649 
" clip-path="url(#p2f1f2b3aa7)" style="fill: none; stroke: #1f77b4"/>
    <path d="M 443.765359 214.635159 
L 443.765359 195.319085 
" clip-path="url(#p2f1f2b3aa7)" style="fill: none; stroke: #1f77b4"/>
    <path d="M 449.719389 214.635159 
L 449.719389 192.970645 
" clip-path="url(#p2f1f2b3aa7)" style="fill: none; stroke: #1f77b4"/>
    <path d="M 455.67342 214.635159 
L 455.67342 192.868397 
" clip-path="url(#p2f1f2b3aa7)" style="fill: none; stroke: #1f77b4"/>
    <path d="M 461.62745 214.635159 
L 461.62745 194.826203 
" clip-path="url(#p2f1f2b3aa7)" style="fill: none; stroke: #1f77b4"/>
    <path d="M 467.581481 214.635159 
L 467.581481 198.490394 
" clip-path="url(#p2f1f2b3aa7)" style="fill: none; stroke: #1f77b4"/>
    <path d="M 473.535511 214.635159 
L 473.535511 203.383362 
" clip-path="url(#p2f1f2b3aa7)" style="fill: none; stroke: #1f77b4"/>
    <path d="M 479.489542 214.635159 
L 479.489542 208.95471 
" clip-path="url(#p2f1f2b3aa7)" style="fill: none; stroke: #1f77b4"/>
    <path d="M 485.443572 214.635159 
L 485.443572 214.635159 
" clip-path="url(#p2f1f2b3aa7)" style="fill: none; stroke: #1f77b4"/>
    <path d="M 491.397603 214.635159 
L 491.397603 219.888468 
" clip-path="url(#p2f1f2b3aa7)" style="fill: none; stroke: #1f77b4"/>
    <path d="M 497.351634 214.635159 
L 497.351634 224.256972 
" clip-path="url(#p2f1f2b3aa7)" style="fill: none; stroke: #1f77b4"/>
    <path d="M 503.305664 214.635159 
L 503.305664 227.397194 
" clip-path="url(#p2f1f2b3aa7)" style="fill: none; stroke: #1f77b4"/>
    <path d="M 509.259695 214.635159 
L 509.259695 229.102986 
" clip-path="url(#p2f1f2b3aa7)" style="fill: none; stroke: #1f77b4"/>
    <path d="M 515.213725 214.635159 
L 515.213725 229.314909 
" clip-path="url(#p2f1f2b3aa7)" style="fill: none; stroke: #1f77b4"/>
    <path d="M 521.167756 214.635159 
L 521.167756 228.115845 
" clip-path="url(#p2f1f2b3aa7)" style="fill: none; stroke: #1f77b4"/>
    <path d="M 527.121786 214.635159 
L 527.121786 225.714035 
" clip-path="url(#p2f1f2b3aa7)" style="fill: none; stroke: #1f77b4"/>
    <path d="M 533.075817 214.635159 
L 533.075817 222.415813 
" clip-path="url(#p2f1f2b3aa7)" style="fill: none; stroke: #1f77b4"/>
    <path d="M 539.029847 214.635159 
L 539.029847 218.591093 
" clip-path="url(#p2f1f2b3aa7)" style="fill: none; stroke: #1f77b4"/>
    <path d="M 544.983878 214.635159 
L 544.983878 214.635159 
" clip-path="url(#p2f1f2b3aa7)" style="fill: none; stroke: #1f77b4"/>
   </g>
   <g id="line2d_36">
    <defs>
     <path id="m52fa95ea42" d="M 0 3 
C 0.795609 3 1.55874 2.683901 2.12132 2.12132 
C 2.683901 1.55874 3 0.795609 3 0 
C 3 -0.795609 2.683901 -1.55874 2.12132 -2.12132 
C 1.55874 -2.683901 0.795609 -3 0 -3 
C -0.795609 -3 -1.55874 -2.683901 -2.12132 -2.12132 
C -2.683901 -1.55874 -3 -0.795609 -3 0 
C -3 0.795609 -2.683901 1.55874 -2.12132 2.12132 
C -1.55874 2.683901 -0.795609 3 0 3 
z
" style="stroke: #1f77b4"/>
    </defs>
    <g clip-path="url(#p2f1f2b3aa7)">
     <use xlink:href="#m52fa95ea42" x="68.661435" y="214.635159" style="fill-opacity: 0; stroke: #1f77b4"/>
     <use xlink:href="#m52fa95ea42" x="74.615465" y="218.591093" style="fill-opacity: 0; stroke: #1f77b4"/>
     <use xlink:href="#m52fa95ea42" x="80.569496" y="222.415813" style="fill-opacity: 0; stroke: #1f77b4"/>
     <use xlink:href="#m52fa95ea42" x="86.523526" y="225.714035" style="fill-opacity: 0; stroke: #1f77b4"/>
     <use xlink:href="#m52fa95ea42" x="92.477557" y="228.115845" style="fill-opacity: 0; stroke: #1f77b4"/>
     <use xlink:href="#m52fa95ea42" x="98.431587" y="229.314909" style="fill-opacity: 0; stroke: #1f77b4"/>
     <use xlink:href="#m52fa95ea42" x="104.385618" y="229.102986" style="fill-opacity: 0; stroke: #1f77b4"/>
     <use xlink:href="#m52fa95ea42" x="110.339648" y="227.397194" style="fill-opacity: 0; stroke: #1f77b4"/>
     <use xlink:href="#m52fa95ea42" x="116.293679" y="224.256972" style="fill-opacity: 0; stroke: #1f77b4"/>
     <use xlink:href="#m52fa95ea42" x="122.24771" y="219.888468" style="fill-opacity: 0; stroke: #1f77b4"/>
     <use xlink:href="#m52fa95ea42" x="128.20174" y="214.635159" style="fill-opacity: 0; stroke: #1f77b4"/>
     <use xlink:href="#m52fa95ea42" x="134.155771" y="208.95471" style="fill-opacity: 0; stroke: #1f77b4"/>
     <use xlink:href="#m52fa95ea42" x="140.109801" y="203.383362" style="fill-opacity: 0; stroke: #1f77b4"/>
     <use xlink:href="#m52fa95ea42" x="146.063832" y="198.490394" style="fill-opacity: 0; stroke: #1f77b4"/>
     <use xlink:href="#m52fa95ea42" x="152.017862" y="194.826203" style="fill-opacity: 0; stroke: #1f77b4"/>
     <use xlink:href="#m52fa95ea42" x="157.971893" y="192.868397" style="fill-opacity: 0; stroke: #1f77b4"/>
     <use xlink:href="#m52fa95ea42" x="163.925923" y="192.970645" style="fill-opacity: 0; stroke: #1f77b4"/>
     <use xlink:href="#m52fa95ea42" x="169.879954" y="195.319085" style="fill-opacity: 0; stroke: #1f77b4"/>
     <use xlink:href="#m52fa95ea42" x="175.833984" y="199.900649" style="fill-opacity: 0; stroke: #1f77b4"/>
     <use xlink:href="#m52fa95ea42" x="181.788015" y="206.48682" style="fill-opacity: 0; stroke: #1f77b4"/>
     <use xlink:href="#m52fa95ea42" x="187.742045" y="214.635159" style="fill-opacity: 0; stroke: #1f77b4"/>
     <use xlink:href="#m52fa95ea42" x="193.696076" y="223.709517" style="fill-opacity: 0; stroke: #1f77b4"/>
     <use xlink:href="#m52fa95ea42" x="199.650107" y="232.918205" style="fill-opacity: 0; stroke: #1f77b4"/>
     <use xlink:href="#m52fa95ea42" x="205.604137" y="241.367876" style="fill-opacity: 0; stroke: #1f77b4"/>
     <use xlink:href="#m52fa95ea42" x="211.558168" y="248.129368" style="fill-opacity: 0; stroke: #1f77b4"/>
     <use xlink:href="#m52fa95ea42" x="217.512198" y="252.310599" style="fill-opacity: 0; stroke: #1f77b4"/>
     <use xlink:href="#m52fa95ea42" x="223.466229" y="253.130795" style="fill-opacity: 0; stroke: #1f77b4"/>
     <use xlink:href="#m52fa95ea42" x="229.420259" y="249.989986" style="fill-opacity: 0; stroke: #1f77b4"/>
     <use xlink:href="#m52fa95ea42" x="235.37429" y="242.527876" style="fill-opacity: 0; stroke: #1f77b4"/>
     <use xlink:href="#m52fa95ea42" x="241.32832" y="230.666873" style="fill-opacity: 0; stroke: #1f77b4"/>
     <use xlink:href="#m52fa95ea42" x="247.282351" y="214.635159" style="fill-opacity: 0; stroke: #1f77b4"/>
     <use xlink:href="#m52fa95ea42" x="253.236381" y="194.967251" style="fill-opacity: 0; stroke: #1f77b4"/>
     <use xlink:href="#m52fa95ea42" x="259.190412" y="172.481194" style="fill-opacity: 0; stroke: #1f77b4"/>
     <use xlink:href="#m52fa95ea42" x="265.144442" y="148.233462" style="fill-opacity: 0; stroke: #1f77b4"/>
     <use xlink:href="#m52fa95ea42" x="271.098473" y="123.454445" style="fill-opacity: 0; stroke: #1f77b4"/>
     <use xlink:href="#m52fa95ea42" x="277.052504" y="99.469015" style="fill-opacity: 0; stroke: #1f77b4"/>
     <use xlink:href="#m52fa95ea42" x="283.006534" y="77.607974" style="fill-opacity: 0; stroke: #1f77b4"/>
     <use xlink:href="#m52fa95ea42" x="288.960565" y="59.117014" style="fill-opacity: 0; stroke: #1f77b4"/>
     <use xlink:href="#m52fa95ea42" x="294.914595" y="45.070091" style="fill-opacity: 0; stroke: #1f77b4"/>
     <use xlink:href="#m52fa95ea42" x="300.868626" y="36.293885" style="fill-opacity: 0; stroke: #1f77b4"/>
     <use xlink:href="#m52fa95ea42" x="306.822656" y="33.309205" style="fill-opacity: 0; stroke: #1f77b4"/>
     <use xlink:href="#m52fa95ea42" x="312.776687" y="36.293885" style="fill-opacity: 0; stroke: #1f77b4"/>
     <use xlink:href="#m52fa95ea42" x="318.730717" y="45.070091" style="fill-opacity: 0; stroke: #1f77b4"/>
     <use xlink:href="#m52fa95ea42" x="324.684748" y="59.117014" style="fill-opacity: 0; stroke: #1f77b4"/>
     <use xlink:href="#m52fa95ea42" x="330.638778" y="77.607974" style="fill-opacity: 0; stroke: #1f77b4"/>
     <use xlink:href="#m52fa95ea42" x="336.592809" y="99.469015" style="fill-opacity: 0; stroke: #1f77b4"/>
     <use xlink:href="#m52fa95ea42" x="342.546839" y="123.454445" style="fill-opacity: 0; stroke: #1f77b4"/>
     <use xlink:href="#m52fa95ea42" x="348.50087" y="148.233462" style="fill-opacity: 0; stroke: #1f77b4"/>
     <use xlink:href="#m52fa95ea42" x="354.454901" y="172.481194" style="fill-opacity: 0; stroke: #1f77b4"/>
     <use xlink:href="#m52fa95ea42" x="360.408931" y="194.967251" style="fill-opacity: 0; stroke: #1f77b4"/>
     <use xlink:href="#m52fa95ea42" x="366.362962" y="214.635159" style="fill-opacity: 0; stroke: #1f77b4"/>
     <use xlink:href="#m52fa95ea42" x="372.316992" y="230.666873" style="fill-opacity: 0; stroke: #1f77b4"/>
     <use xlink:href="#m52fa95ea42" x="378.271023" y="242.527876" style="fill-opacity: 0; stroke: #1f77b4"/>
     <use xlink:href="#m52fa95ea42" x="384.225053" y="249.989986" style="fill-opacity: 0; stroke: #1f77b4"/>
     <use xlink:href="#m52fa95ea42" x="390.179084" y="253.130795" style="fill-opacity: 0; stroke: #1f77b4"/>
     <use xlink:href="#m52fa95ea42" x="396.133114" y="252.310599" style="fill-opacity: 0; stroke: #1f77b4"/>
     <use xlink:href="#m52fa95ea42" x="402.087145" y="248.129368" style="fill-opacity: 0; stroke: #1f77b4"/>
     <use xlink:href="#m52fa95ea42" x="408.041175" y="241.367876" style="fill-opacity: 0; stroke: #1f77b4"/>
     <use xlink:href="#m52fa95ea42" x="413.995206" y="232.918205" style="fill-opacity: 0; stroke: #1f77b4"/>
     <use xlink:href="#m52fa95ea42" x="419.949237" y="223.709517" style="fill-opacity: 0; stroke: #1f77b4"/>
     <use xlink:href="#m52fa95ea42" x="425.903267" y="214.635159" style="fill-opacity: 0; stroke: #1f77b4"/>
     <use xlink:href="#m52fa95ea42" x="431.857298" y="206.48682" style="fill-opacity: 0; stroke: #1f77b4"/>
     <use xlink:href="#m52fa95ea42" x="437.811328" y="199.900649" style="fill-opacity: 0; stroke: #1f77b4"/>
     <use xlink:href="#m52fa95ea42" x="443.765359" y="195.319085" style="fill-opacity: 0; stroke: #1f77b4"/>
     <use xlink:href="#m52fa95ea42" x="449.719389" y="192.970645" style="fill-opacity: 0; stroke: #1f77b4"/>
     <use xlink:href="#m52fa95ea42" x="455.67342" y="192.868397" style="fill-opacity: 0; stroke: #1f77b4"/>
     <use xlink:href="#m52fa95ea42" x="461.62745" y="194.826203" style="fill-opacity: 0; stroke: #1f77b4"/>
     <use xlink:href="#m52fa95ea42" x="467.581481" y="198.490394" style="fill-opacity: 0; stroke: #1f77b4"/>
     <use xlink:href="#m52fa95ea42" x="473.535511" y="203.383362" style="fill-opacity: 0; stroke: #1f77b4"/>
     <use xlink:href="#m52fa95ea42" x="479.489542" y="208.95471" style="fill-opacity: 0; stroke: #1f77b4"/>
     <use xlink:href="#m52fa95ea42" x="485.443572" y="214.635159" style="fill-opacity: 0; stroke: #1f77b4"/>
     <use xlink:href="#m52fa95ea42" x="491.397603" y="219.888468" style="fill-opacity: 0; stroke: #1f77b4"/>
     <use xlink:href="#m52fa95ea42" x="497.351634" y="224.256972" style="fill-opacity: 0; stroke: #1f77b4"/>
     <use xlink:href="#m52fa95ea42" x="503.305664" y="227.397194" style="fill-opacity: 0; stroke: #1f77b4"/>
     <use xlink:href="#m52fa95ea42" x="509.259695" y="229.102986" style="fill-opacity: 0; stroke: #1f77b4"/>
     <use xlink:href="#m52fa95ea42" x="515.213725" y="229.314909" style="fill-opacity: 0; stroke: #1f77b4"/>
     <use xlink:href="#m52fa95ea42" x="521.167756" y="228.115845" style="fill-opacity: 0; stroke: #1f77b4"/>
     <use xlink:href="#m52fa95ea42" x="527.121786" y="225.714035" style="fill-opacity: 0; stroke: #1f77b4"/>
     <use xlink:href="#m52fa95ea42" x="533.075817" y="222.415813" style="fill-opacity: 0; stroke: #1f77b4"/>
     <use xlink:href="#m52fa95ea42" x="539.029847" y="218.591093" style="fill-opacity: 0; stroke: #1f77b4"/>
     <use xlink:href="#m52fa95ea42" x="544.983878" y="214.635159" style="fill-opacity: 0; stroke: #1f77b4"/>
    </g>
   </g>
   <g id="line2d_37">
    <path d="M 68.661435 214.635159 
L 544.983878 214.635159 
" clip-path="url(#p2f1f2b3aa7)" style="fill: none; stroke: #000000; stroke-opacity: 0; stroke-linecap: square"/>
   </g>
   <g id="patch_3">
    <path d="M 44.845313 264.121875 
L 44.845313 22.318125 
" style="fill: none; stroke: #000000; stroke-width: 0.8; stroke-linejoin: miter; stroke-linecap: square"/>
   </g>
   <g id="patch_4">
    <path d="M 568.8 264.121875 
L 568.8 22.318125 
" style="fill: none; stroke: #000000; stroke-width: 0.8; stroke-linejoin: miter; stroke-linecap: square"/>
   </g>
   <g id="patch_5">
    <path d="M 44.845313 264.121875 
L 568.8 264.121875 
" style="fill: none; stroke: #000000; stroke-width: 0.8; stroke-linejoin: miter; stroke-linecap: square"/>
   </g>
   <g id="patch_6">
    <path d="M 44.845313 22.318125 
L 568.8 22.318125 
" style="fill: none; stroke: #000000; stroke-width: 0.8; stroke-linejoin: miter; stroke-linecap: square"/>
   </g>
   <g id="text_18">
    <!-- sdr.plot.stem() -->
    <g transform="translate(262.959844 16.318125) scale(0.12 -0.12)">
     <defs>
      <path id="DejaVuSans-73" d="M 2834 3397 
L 2834 2853 
Q 2591 2978 2328 3040 
Q 2066 3103 1784 3103 
Q 1356 3103 1142 2972 
Q 928 2841 928 2578 
Q 928 2378 1081 2264 
Q 1234 2150 1697 2047 
L 1894 2003 
Q 2506 1872 2764 1633 
Q 3022 1394 3022 966 
Q 3022 478 2636 193 
Q 2250 -91 1575 -91 
Q 1294 -91 989 -36 
Q 684 19 347 128 
L 347 722 
Q 666 556 975 473 
Q 1284 391 1588 391 
Q 1994 391 2212 530 
Q 2431 669 2431 922 
Q 2431 1156 2273 1281 
Q 2116 1406 1581 1522 
L 1381 1569 
Q 847 1681 609 1914 
Q 372 2147 372 2553 
Q 372 3047 722 3315 
Q 1072 3584 1716 3584 
Q 2034 3584 2315 3537 
Q 2597 3491 2834 3397 
z
" transform="scale(0.015625)"/>
      <path id="DejaVuSans-64" d="M 2906 2969 
L 2906 4863 
L 3481 4863 
L 3481 0 
L 2906 0 
L 2906 525 
Q 2725 213 2448 61 
Q 2172 -91 1784 -91 
Q 1150 -91 751 415 
Q 353 922 353 1747 
Q 353 2572 751 3078 
Q 1150 3584 1784 3584 
Q 2172 3584 2448 3432 
Q 2725 3281 2906 2969 
z
M 947 1747 
Q 947 1113 1208 752 
Q 1469 391 1925 391 
Q 2381 391 2643 752 
Q 2906 1113 2906 1747 
Q 2906 2381 2643 2742 
Q 2381 3103 1925 3103 
Q 1469 3103 1208 2742 
Q 947 2381 947 1747 
z
" transform="scale(0.015625)"/>
      <path id="DejaVuSans-72" d="M 2631 2963 
Q 2534 3019 2420 3045 
Q 2306 3072 2169 3072 
Q 1681 3072 1420 2755 
Q 1159 2438 1159 1844 
L 1159 0 
L 581 0 
L 581 3500 
L 1159 3500 
L 1159 2956 
Q 1341 3275 1631 3429 
Q 1922 3584 2338 3584 
Q 2397 3584 2469 3576 
Q 2541 3569 2628 3553 
L 2631 2963 
z
" transform="scale(0.015625)"/>
      <path id="DejaVuSans-70" d="M 1159 525 
L 1159 -1331 
L 581 -1331 
L 581 3500 
L 1159 3500 
L 1159 2969 
Q 1341 3281 1617 3432 
Q 1894 3584 2278 3584 
Q 2916 3584 3314 3078 
Q 3713 2572 3713 1747 
Q 3713 922 3314 415 
Q 2916 -91 2278 -91 
Q 1894 -91 1617 61 
Q 1341 213 1159 525 
z
M 3116 1747 
Q 3116 2381 2855 2742 
Q 2594 3103 2138 3103 
Q 1681 3103 1420 2742 
Q 1159 2381 1159 1747 
Q 1159 1113 1420 752 
Q 1681 391 2138 391 
Q 2594 391 2855 752 
Q 3116 1113 3116 1747 
z
" transform="scale(0.015625)"/>
      <path id="DejaVuSans-6c" d="M 603 4863 
L 1178 4863 
L 1178 0 
L 603 0 
L 603 4863 
z
" transform="scale(0.015625)"/>
      <path id="DejaVuSans-6f" d="M 1959 3097 
Q 1497 3097 1228 2736 
Q 959 2375 959 1747 
Q 959 1119 1226 758 
Q 1494 397 1959 397 
Q 2419 397 2687 759 
Q 2956 1122 2956 1747 
Q 2956 2369 2687 2733 
Q 2419 3097 1959 3097 
z
M 1959 3584 
Q 2709 3584 3137 3096 
Q 3566 2609 3566 1747 
Q 3566 888 3137 398 
Q 2709 -91 1959 -91 
Q 1206 -91 779 398 
Q 353 888 353 1747 
Q 353 2609 779 3096 
Q 1206 3584 1959 3584 
z
" transform="scale(0.015625)"/>
      <path id="DejaVuSans-74" d="M 1172 4494 
L 1172 3500 
L 2356 3500 
L 2356 3053 
L 1172 3053 
L 1172 1153 
Q 1172 725 1289 603 
Q 1406 481 1766 481 
L 2356 481 
L 2356 0 
L 1766 0 
Q 1100 0 847 248 
Q 594 497 594 1153 
L 594 3053 
L 172 3053 
L 172 3500 
L 594 3500 
L 594 4494 
L 1172 4494 
z
" transform="scale(0.015625)"/>
      <path id="DejaVuSans-65" d="M 3597 1894 
L 3597 1613 
L 953 1613 
Q 991 1019 1311 708 
Q 1631 397 2203 397 
Q 2534 397 2845 478 
Q 3156 559 3463 722 
L 3463 178 
Q 3153 47 2828 -22 
Q 2503 -91 2169 -91 
Q 1331 -91 842 396 
Q 353 884 353 1716 
Q 353 2575 817 3079 
Q 1281 3584 2069 3584 
Q 2775 3584 3186 3129 
Q 3597 2675 3597 1894 
z
M 3022 2063 
Q 3016 2534 2758 2815 
Q 2500 3097 2075 3097 
Q 1594 3097 1305 2825 
Q 1016 2553 972 2059 
L 3022 2063 
z
" transform="scale(0.015625)"/>
      <path id="DejaVuSans-6d" d="M 3328 2828 
Q 3544 3216 3844 3400 
Q 4144 3584 4550 3584 
Q 5097 3584 5394 3201 
Q 5691 2819 5691 2113 
L 5691 0 
L 5113 0 
L 5113 2094 
Q 5113 2597 4934 2840 
Q 4756 3084 4391 3084 
Q 3944 3084 3684 2787 
Q 3425 2491 3425 1978 
L 3425 0 
L 2847 0 
L 2847 2094 
Q 2847 2600 2669 2842 
Q 2491 3084 2119 3084 
Q 1678 3084 1418 2786 
Q 1159 2488 1159 1978 
L 1159 0 
L 581 0 
L 581 3500 
L 1159 3500 
L 1159 2956 
Q 1356 3278 1631 3431 
Q 1906 3584 2284 3584 
Q 2666 3584 2933 3390 
Q 3200 3197 3328 2828 
z
" transform="scale(0.015625)"/>
      <path id="DejaVuSans-28" d="M 1984 4856 
Q 1566 4138 1362 3434 
Q 1159 2731 1159 2009 
Q 1159 1288 1364 580 
Q 1569 -128 1984 -844 
L 1484 -844 
Q 1016 -109 783 600 
Q 550 1309 550 2009 
Q 550 2706 781 3412 
Q 1013 4119 1484 4856 
L 1984 4856 
z
" transform="scale(0.015625)"/>
      <path id="DejaVuSans-29" d="M 513 4856 
L 1013 4856 
Q 1481 4119 1714 3412 
Q 1947 2706 1947 2009 
Q 1947 1309 1714 600 
Q 1481 -109 1013 -844 
L 513 -844 
Q 928 -128 1133 580 
Q 1338 1288 1338 2009 
Q 1338 2731 1133 3434 
Q 928 4138 513 4856 
z
" transform="scale(0.015625)"/>
     </defs>
     <use xlink:href="#DejaVuSans-73"/>
     <use xlink:href="#DejaVuSans-64" transform="translate(52.099609 0)"/>
     <use xlink:href="#DejaVuSans-72" transform="translate(115.576172 0)"/>
     <use xlink:href="#DejaVuSans-2e" transform="translate(147.564453 0)"/>
     <use xlink:href="#DejaVuSans-70" transform="translate(179.351562 0)"/>
     <use xlink:href="#DejaVuSans-6c" transform="translate(242.828125 0)"/>
     <use xlink:href="#DejaVuSans-6f" transform="translate(270.611328 0)"/>
     <use xlink:href="#DejaVuSans-74" transform="translate(331.792969 0)"/>
     <use xlink:href="#DejaVuSans-2e" transform="translate(371.001953 0)"/>
     <use xlink:href="#DejaVuSans-73" transform="translate(402.789062 0)"/>
     <use xlink:href="#DejaVuSans-74" transform="translate(454.888672 0)"/>
     <use xlink:href="#DejaVuSans-65" transform="translate(494.097656 0)"/>
     <use xlink:href="#DejaVuSans-6d" transform="translate(555.621094 0)"/>
     <use xlink:href="#DejaVuSans-28" transform="translate(653.033203 0)"/>
     <use xlink:href="#DejaVuSans-29" transform="translate(692.046875 0)"/>
    </g>
   </g>
  </g>
 </g>
 <defs>
  <clipPath id="p2f1f2b3aa7">
   <rect x="44.845313" y="22.318125" width="523.954688" height="241.80375"/>
  </clipPath>
 </defs>
</svg>
