<?xml version="1.0" encoding="utf-8" standalone="no"?>
<!DOCTYPE svg PUBLIC "-//W3C//DTD SVG 1.1//EN"
  "http://www.w3.org/Graphics/SVG/1.1/DTD/svg11.dtd">
<svg xmlns:xlink="http://www.w3.org/1999/xlink" width="576pt" height="288pt" viewBox="0 0 576 288" xmlns="http://www.w3.org/2000/svg" version="1.1">
 <metadata>
  <rdf:RDF xmlns:dc="http://purl.org/dc/elements/1.1/" xmlns:cc="http://creativecommons.org/ns#" xmlns:rdf="http://www.w3.org/1999/02/22-rdf-syntax-ns#">
   <cc:Work>
    <dc:type rdf:resource="http://purl.org/dc/dcmitype/StillImage"/>
    <dc:date>2025-05-12T21:36:05.605767</dc:date>
    <dc:format>image/svg+xml</dc:format>
    <dc:creator>
     <cc:Agent>
      <dc:title>Matplotlib v3.10.3, https://matplotlib.org/</dc:title>
     </cc:Agent>
    </dc:creator>
   </cc:Work>
  </rdf:RDF>
 </metadata>
 <defs>
  <style type="text/css">*{stroke-linejoin: round; stroke-linecap: butt}</style>
 </defs>
 <g id="figure_1">
  <g id="patch_1">
   <path d="M 0 288 
L 576 288 
L 576 0 
L 0 0 
z
" style="fill: #ffffff"/>
  </g>
  <g id="axes_1">
   <g id="patch_2">
    <path d="M 43.78125 250.44375 
L 566.290745 250.44375 
L 566.290745 22.318125 
L 43.78125 22.318125 
z
" style="fill: #ffffff"/>
   </g>
   <g id="matplotlib.axis_1">
    <g id="xtick_1">
     <g id="line2d_1">
      <path d="M 67.531682 250.44375 
L 67.531682 22.318125 
" clip-path="url(#pb5483666dc)" style="fill: none; stroke-dasharray: 2.96,1.28; stroke-dashoffset: 0; stroke: #b0b0b0; stroke-opacity: 0.8; stroke-width: 0.8"/>
     </g>
     <g id="line2d_2">
      <defs>
       <path id="mf326a75752" d="M 0 0 
L 0 3.5 
" style="stroke: #000000; stroke-width: 0.8"/>
      </defs>
      <g>
       <use xlink:href="#mf326a75752" x="67.531682" y="250.44375" style="stroke: #000000; stroke-width: 0.8"/>
      </g>
     </g>
     <g id="text_1">
      <!-- 0 -->
      <g transform="translate(64.350432 265.042188) scale(0.1 -0.1)">
       <defs>
        <path id="DejaVuSans-30" d="M 2034 4250 
Q 1547 4250 1301 3770 
Q 1056 3291 1056 2328 
Q 1056 1369 1301 889 
Q 1547 409 2034 409 
Q 2525 409 2770 889 
Q 3016 1369 3016 2328 
Q 3016 3291 2770 3770 
Q 2525 4250 2034 4250 
z
M 2034 4750 
Q 2819 4750 3233 4129 
Q 3647 3509 3647 2328 
Q 3647 1150 3233 529 
Q 2819 -91 2034 -91 
Q 1250 -91 836 529 
Q 422 1150 422 2328 
Q 422 3509 836 4129 
Q 1250 4750 2034 4750 
z
" transform="scale(0.015625)"/>
       </defs>
       <use xlink:href="#DejaVuSans-30"/>
      </g>
     </g>
    </g>
    <g id="xtick_2">
     <g id="line2d_3">
      <path d="M 150.015298 250.44375 
L 150.015298 22.318125 
" clip-path="url(#pb5483666dc)" style="fill: none; stroke-dasharray: 2.96,1.28; stroke-dashoffset: 0; stroke: #b0b0b0; stroke-opacity: 0.8; stroke-width: 0.8"/>
     </g>
     <g id="line2d_4">
      <g>
       <use xlink:href="#mf326a75752" x="150.015298" y="250.44375" style="stroke: #000000; stroke-width: 0.8"/>
      </g>
     </g>
     <g id="text_2">
      <!-- 2 -->
      <g transform="translate(146.834048 265.042188) scale(0.1 -0.1)">
       <defs>
        <path id="DejaVuSans-32" d="M 1228 531 
L 3431 531 
L 3431 0 
L 469 0 
L 469 531 
Q 828 903 1448 1529 
Q 2069 2156 2228 2338 
Q 2531 2678 2651 2914 
Q 2772 3150 2772 3378 
Q 2772 3750 2511 3984 
Q 2250 4219 1831 4219 
Q 1534 4219 1204 4116 
Q 875 4013 500 3803 
L 500 4441 
Q 881 4594 1212 4672 
Q 1544 4750 1819 4750 
Q 2544 4750 2975 4387 
Q 3406 4025 3406 3419 
Q 3406 3131 3298 2873 
Q 3191 2616 2906 2266 
Q 2828 2175 2409 1742 
Q 1991 1309 1228 531 
z
" transform="scale(0.015625)"/>
       </defs>
       <use xlink:href="#DejaVuSans-32"/>
      </g>
     </g>
    </g>
    <g id="xtick_3">
     <g id="line2d_5">
      <path d="M 232.498915 250.44375 
L 232.498915 22.318125 
" clip-path="url(#pb5483666dc)" style="fill: none; stroke-dasharray: 2.96,1.28; stroke-dashoffset: 0; stroke: #b0b0b0; stroke-opacity: 0.8; stroke-width: 0.8"/>
     </g>
     <g id="line2d_6">
      <g>
       <use xlink:href="#mf326a75752" x="232.498915" y="250.44375" style="stroke: #000000; stroke-width: 0.8"/>
      </g>
     </g>
     <g id="text_3">
      <!-- 4 -->
      <g transform="translate(229.317665 265.042188) scale(0.1 -0.1)">
       <defs>
        <path id="DejaVuSans-34" d="M 2419 4116 
L 825 1625 
L 2419 1625 
L 2419 4116 
z
M 2253 4666 
L 3047 4666 
L 3047 1625 
L 3713 1625 
L 3713 1100 
L 3047 1100 
L 3047 0 
L 2419 0 
L 2419 1100 
L 313 1100 
L 313 1709 
L 2253 4666 
z
" transform="scale(0.015625)"/>
       </defs>
       <use xlink:href="#DejaVuSans-34"/>
      </g>
     </g>
    </g>
    <g id="xtick_4">
     <g id="line2d_7">
      <path d="M 314.982532 250.44375 
L 314.982532 22.318125 
" clip-path="url(#pb5483666dc)" style="fill: none; stroke-dasharray: 2.96,1.28; stroke-dashoffset: 0; stroke: #b0b0b0; stroke-opacity: 0.8; stroke-width: 0.8"/>
     </g>
     <g id="line2d_8">
      <g>
       <use xlink:href="#mf326a75752" x="314.982532" y="250.44375" style="stroke: #000000; stroke-width: 0.8"/>
      </g>
     </g>
     <g id="text_4">
      <!-- 6 -->
      <g transform="translate(311.801282 265.042188) scale(0.1 -0.1)">
       <defs>
        <path id="DejaVuSans-36" d="M 2113 2584 
Q 1688 2584 1439 2293 
Q 1191 2003 1191 1497 
Q 1191 994 1439 701 
Q 1688 409 2113 409 
Q 2538 409 2786 701 
Q 3034 994 3034 1497 
Q 3034 2003 2786 2293 
Q 2538 2584 2113 2584 
z
M 3366 4563 
L 3366 3988 
Q 3128 4100 2886 4159 
Q 2644 4219 2406 4219 
Q 1781 4219 1451 3797 
Q 1122 3375 1075 2522 
Q 1259 2794 1537 2939 
Q 1816 3084 2150 3084 
Q 2853 3084 3261 2657 
Q 3669 2231 3669 1497 
Q 3669 778 3244 343 
Q 2819 -91 2113 -91 
Q 1303 -91 875 529 
Q 447 1150 447 2328 
Q 447 3434 972 4092 
Q 1497 4750 2381 4750 
Q 2619 4750 2861 4703 
Q 3103 4656 3366 4563 
z
" transform="scale(0.015625)"/>
       </defs>
       <use xlink:href="#DejaVuSans-36"/>
      </g>
     </g>
    </g>
    <g id="xtick_5">
     <g id="line2d_9">
      <path d="M 397.466149 250.44375 
L 397.466149 22.318125 
" clip-path="url(#pb5483666dc)" style="fill: none; stroke-dasharray: 2.96,1.28; stroke-dashoffset: 0; stroke: #b0b0b0; stroke-opacity: 0.8; stroke-width: 0.8"/>
     </g>
     <g id="line2d_10">
      <g>
       <use xlink:href="#mf326a75752" x="397.466149" y="250.44375" style="stroke: #000000; stroke-width: 0.8"/>
      </g>
     </g>
     <g id="text_5">
      <!-- 8 -->
      <g transform="translate(394.284899 265.042188) scale(0.1 -0.1)">
       <defs>
        <path id="DejaVuSans-38" d="M 2034 2216 
Q 1584 2216 1326 1975 
Q 1069 1734 1069 1313 
Q 1069 891 1326 650 
Q 1584 409 2034 409 
Q 2484 409 2743 651 
Q 3003 894 3003 1313 
Q 3003 1734 2745 1975 
Q 2488 2216 2034 2216 
z
M 1403 2484 
Q 997 2584 770 2862 
Q 544 3141 544 3541 
Q 544 4100 942 4425 
Q 1341 4750 2034 4750 
Q 2731 4750 3128 4425 
Q 3525 4100 3525 3541 
Q 3525 3141 3298 2862 
Q 3072 2584 2669 2484 
Q 3125 2378 3379 2068 
Q 3634 1759 3634 1313 
Q 3634 634 3220 271 
Q 2806 -91 2034 -91 
Q 1263 -91 848 271 
Q 434 634 434 1313 
Q 434 1759 690 2068 
Q 947 2378 1403 2484 
z
M 1172 3481 
Q 1172 3119 1398 2916 
Q 1625 2713 2034 2713 
Q 2441 2713 2670 2916 
Q 2900 3119 2900 3481 
Q 2900 3844 2670 4047 
Q 2441 4250 2034 4250 
Q 1625 4250 1398 4047 
Q 1172 3844 1172 3481 
z
" transform="scale(0.015625)"/>
       </defs>
       <use xlink:href="#DejaVuSans-38"/>
      </g>
     </g>
    </g>
    <g id="xtick_6">
     <g id="line2d_11">
      <path d="M 479.949766 250.44375 
L 479.949766 22.318125 
" clip-path="url(#pb5483666dc)" style="fill: none; stroke-dasharray: 2.96,1.28; stroke-dashoffset: 0; stroke: #b0b0b0; stroke-opacity: 0.8; stroke-width: 0.8"/>
     </g>
     <g id="line2d_12">
      <g>
       <use xlink:href="#mf326a75752" x="479.949766" y="250.44375" style="stroke: #000000; stroke-width: 0.8"/>
      </g>
     </g>
     <g id="text_6">
      <!-- 10 -->
      <g transform="translate(473.587266 265.042188) scale(0.1 -0.1)">
       <defs>
        <path id="DejaVuSans-31" d="M 794 531 
L 1825 531 
L 1825 4091 
L 703 3866 
L 703 4441 
L 1819 4666 
L 2450 4666 
L 2450 531 
L 3481 531 
L 3481 0 
L 794 0 
L 794 531 
z
" transform="scale(0.015625)"/>
       </defs>
       <use xlink:href="#DejaVuSans-31"/>
       <use xlink:href="#DejaVuSans-30" transform="translate(63.623047 0)"/>
      </g>
     </g>
    </g>
    <g id="xtick_7">
     <g id="line2d_13">
      <path d="M 562.433382 250.44375 
L 562.433382 22.318125 
" clip-path="url(#pb5483666dc)" style="fill: none; stroke-dasharray: 2.96,1.28; stroke-dashoffset: 0; stroke: #b0b0b0; stroke-opacity: 0.8; stroke-width: 0.8"/>
     </g>
     <g id="line2d_14">
      <g>
       <use xlink:href="#mf326a75752" x="562.433382" y="250.44375" style="stroke: #000000; stroke-width: 0.8"/>
      </g>
     </g>
     <g id="text_7">
      <!-- 12 -->
      <g transform="translate(556.070882 265.042188) scale(0.1 -0.1)">
       <use xlink:href="#DejaVuSans-31"/>
       <use xlink:href="#DejaVuSans-32" transform="translate(63.623047 0)"/>
      </g>
     </g>
    </g>
    <g id="text_8">
     <!-- Random variable -->
     <g transform="translate(262.576622 278.720312) scale(0.1 -0.1)">
      <defs>
       <path id="DejaVuSans-52" d="M 2841 2188 
Q 3044 2119 3236 1894 
Q 3428 1669 3622 1275 
L 4263 0 
L 3584 0 
L 2988 1197 
Q 2756 1666 2539 1819 
Q 2322 1972 1947 1972 
L 1259 1972 
L 1259 0 
L 628 0 
L 628 4666 
L 2053 4666 
Q 2853 4666 3247 4331 
Q 3641 3997 3641 3322 
Q 3641 2881 3436 2590 
Q 3231 2300 2841 2188 
z
M 1259 4147 
L 1259 2491 
L 2053 2491 
Q 2509 2491 2742 2702 
Q 2975 2913 2975 3322 
Q 2975 3731 2742 3939 
Q 2509 4147 2053 4147 
L 1259 4147 
z
" transform="scale(0.015625)"/>
       <path id="DejaVuSans-61" d="M 2194 1759 
Q 1497 1759 1228 1600 
Q 959 1441 959 1056 
Q 959 750 1161 570 
Q 1363 391 1709 391 
Q 2188 391 2477 730 
Q 2766 1069 2766 1631 
L 2766 1759 
L 2194 1759 
z
M 3341 1997 
L 3341 0 
L 2766 0 
L 2766 531 
Q 2569 213 2275 61 
Q 1981 -91 1556 -91 
Q 1019 -91 701 211 
Q 384 513 384 1019 
Q 384 1609 779 1909 
Q 1175 2209 1959 2209 
L 2766 2209 
L 2766 2266 
Q 2766 2663 2505 2880 
Q 2244 3097 1772 3097 
Q 1472 3097 1187 3025 
Q 903 2953 641 2809 
L 641 3341 
Q 956 3463 1253 3523 
Q 1550 3584 1831 3584 
Q 2591 3584 2966 3190 
Q 3341 2797 3341 1997 
z
" transform="scale(0.015625)"/>
       <path id="DejaVuSans-6e" d="M 3513 2113 
L 3513 0 
L 2938 0 
L 2938 2094 
Q 2938 2591 2744 2837 
Q 2550 3084 2163 3084 
Q 1697 3084 1428 2787 
Q 1159 2491 1159 1978 
L 1159 0 
L 581 0 
L 581 3500 
L 1159 3500 
L 1159 2956 
Q 1366 3272 1645 3428 
Q 1925 3584 2291 3584 
Q 2894 3584 3203 3211 
Q 3513 2838 3513 2113 
z
" transform="scale(0.015625)"/>
       <path id="DejaVuSans-64" d="M 2906 2969 
L 2906 4863 
L 3481 4863 
L 3481 0 
L 2906 0 
L 2906 525 
Q 2725 213 2448 61 
Q 2172 -91 1784 -91 
Q 1150 -91 751 415 
Q 353 922 353 1747 
Q 353 2572 751 3078 
Q 1150 3584 1784 3584 
Q 2172 3584 2448 3432 
Q 2725 3281 2906 2969 
z
M 947 1747 
Q 947 1113 1208 752 
Q 1469 391 1925 391 
Q 2381 391 2643 752 
Q 2906 1113 2906 1747 
Q 2906 2381 2643 2742 
Q 2381 3103 1925 3103 
Q 1469 3103 1208 2742 
Q 947 2381 947 1747 
z
" transform="scale(0.015625)"/>
       <path id="DejaVuSans-6f" d="M 1959 3097 
Q 1497 3097 1228 2736 
Q 959 2375 959 1747 
Q 959 1119 1226 758 
Q 1494 397 1959 397 
Q 2419 397 2687 759 
Q 2956 1122 2956 1747 
Q 2956 2369 2687 2733 
Q 2419 3097 1959 3097 
z
M 1959 3584 
Q 2709 3584 3137 3096 
Q 3566 2609 3566 1747 
Q 3566 888 3137 398 
Q 2709 -91 1959 -91 
Q 1206 -91 779 398 
Q 353 888 353 1747 
Q 353 2609 779 3096 
Q 1206 3584 1959 3584 
z
" transform="scale(0.015625)"/>
       <path id="DejaVuSans-6d" d="M 3328 2828 
Q 3544 3216 3844 3400 
Q 4144 3584 4550 3584 
Q 5097 3584 5394 3201 
Q 5691 2819 5691 2113 
L 5691 0 
L 5113 0 
L 5113 2094 
Q 5113 2597 4934 2840 
Q 4756 3084 4391 3084 
Q 3944 3084 3684 2787 
Q 3425 2491 3425 1978 
L 3425 0 
L 2847 0 
L 2847 2094 
Q 2847 2600 2669 2842 
Q 2491 3084 2119 3084 
Q 1678 3084 1418 2786 
Q 1159 2488 1159 1978 
L 1159 0 
L 581 0 
L 581 3500 
L 1159 3500 
L 1159 2956 
Q 1356 3278 1631 3431 
Q 1906 3584 2284 3584 
Q 2666 3584 2933 3390 
Q 3200 3197 3328 2828 
z
" transform="scale(0.015625)"/>
       <path id="DejaVuSans-20" transform="scale(0.015625)"/>
       <path id="DejaVuSans-76" d="M 191 3500 
L 800 3500 
L 1894 563 
L 2988 3500 
L 3597 3500 
L 2284 0 
L 1503 0 
L 191 3500 
z
" transform="scale(0.015625)"/>
       <path id="DejaVuSans-72" d="M 2631 2963 
Q 2534 3019 2420 3045 
Q 2306 3072 2169 3072 
Q 1681 3072 1420 2755 
Q 1159 2438 1159 1844 
L 1159 0 
L 581 0 
L 581 3500 
L 1159 3500 
L 1159 2956 
Q 1341 3275 1631 3429 
Q 1922 3584 2338 3584 
Q 2397 3584 2469 3576 
Q 2541 3569 2628 3553 
L 2631 2963 
z
" transform="scale(0.015625)"/>
       <path id="DejaVuSans-69" d="M 603 3500 
L 1178 3500 
L 1178 0 
L 603 0 
L 603 3500 
z
M 603 4863 
L 1178 4863 
L 1178 4134 
L 603 4134 
L 603 4863 
z
" transform="scale(0.015625)"/>
       <path id="DejaVuSans-62" d="M 3116 1747 
Q 3116 2381 2855 2742 
Q 2594 3103 2138 3103 
Q 1681 3103 1420 2742 
Q 1159 2381 1159 1747 
Q 1159 1113 1420 752 
Q 1681 391 2138 391 
Q 2594 391 2855 752 
Q 3116 1113 3116 1747 
z
M 1159 2969 
Q 1341 3281 1617 3432 
Q 1894 3584 2278 3584 
Q 2916 3584 3314 3078 
Q 3713 2572 3713 1747 
Q 3713 922 3314 415 
Q 2916 -91 2278 -91 
Q 1894 -91 1617 61 
Q 1341 213 1159 525 
L 1159 0 
L 581 0 
L 581 4863 
L 1159 4863 
L 1159 2969 
z
" transform="scale(0.015625)"/>
       <path id="DejaVuSans-6c" d="M 603 4863 
L 1178 4863 
L 1178 0 
L 603 0 
L 603 4863 
z
" transform="scale(0.015625)"/>
       <path id="DejaVuSans-65" d="M 3597 1894 
L 3597 1613 
L 953 1613 
Q 991 1019 1311 708 
Q 1631 397 2203 397 
Q 2534 397 2845 478 
Q 3156 559 3463 722 
L 3463 178 
Q 3153 47 2828 -22 
Q 2503 -91 2169 -91 
Q 1331 -91 842 396 
Q 353 884 353 1716 
Q 353 2575 817 3079 
Q 1281 3584 2069 3584 
Q 2775 3584 3186 3129 
Q 3597 2675 3597 1894 
z
M 3022 2063 
Q 3016 2534 2758 2815 
Q 2500 3097 2075 3097 
Q 1594 3097 1305 2825 
Q 1016 2553 972 2059 
L 3022 2063 
z
" transform="scale(0.015625)"/>
      </defs>
      <use xlink:href="#DejaVuSans-52"/>
      <use xlink:href="#DejaVuSans-61" transform="translate(67.232422 0)"/>
      <use xlink:href="#DejaVuSans-6e" transform="translate(128.511719 0)"/>
      <use xlink:href="#DejaVuSans-64" transform="translate(191.890625 0)"/>
      <use xlink:href="#DejaVuSans-6f" transform="translate(255.367188 0)"/>
      <use xlink:href="#DejaVuSans-6d" transform="translate(316.548828 0)"/>
      <use xlink:href="#DejaVuSans-20" transform="translate(413.960938 0)"/>
      <use xlink:href="#DejaVuSans-76" transform="translate(445.748047 0)"/>
      <use xlink:href="#DejaVuSans-61" transform="translate(504.927734 0)"/>
      <use xlink:href="#DejaVuSans-72" transform="translate(566.207031 0)"/>
      <use xlink:href="#DejaVuSans-69" transform="translate(607.320312 0)"/>
      <use xlink:href="#DejaVuSans-61" transform="translate(635.103516 0)"/>
      <use xlink:href="#DejaVuSans-62" transform="translate(696.382812 0)"/>
      <use xlink:href="#DejaVuSans-6c" transform="translate(759.859375 0)"/>
      <use xlink:href="#DejaVuSans-65" transform="translate(787.642578 0)"/>
     </g>
    </g>
   </g>
   <g id="matplotlib.axis_2">
    <g id="ytick_1">
     <g id="line2d_15">
      <path d="M 43.78125 250.44375 
L 566.290745 250.44375 
" clip-path="url(#pb5483666dc)" style="fill: none; stroke-dasharray: 2.96,1.28; stroke-dashoffset: 0; stroke: #b0b0b0; stroke-opacity: 0.8; stroke-width: 0.8"/>
     </g>
     <g id="line2d_16">
      <defs>
       <path id="mbd633498e1" d="M 0 0 
L -3.5 0 
" style="stroke: #000000; stroke-width: 0.8"/>
      </defs>
      <g>
       <use xlink:href="#mbd633498e1" x="43.78125" y="250.44375" style="stroke: #000000; stroke-width: 0.8"/>
      </g>
     </g>
     <g id="text_9">
      <!-- 0.0 -->
      <g transform="translate(20.878125 254.242969) scale(0.1 -0.1)">
       <defs>
        <path id="DejaVuSans-2e" d="M 684 794 
L 1344 794 
L 1344 0 
L 684 0 
L 684 794 
z
" transform="scale(0.015625)"/>
       </defs>
       <use xlink:href="#DejaVuSans-30"/>
       <use xlink:href="#DejaVuSans-2e" transform="translate(63.623047 0)"/>
       <use xlink:href="#DejaVuSans-30" transform="translate(95.410156 0)"/>
      </g>
     </g>
    </g>
    <g id="ytick_2">
     <g id="line2d_17">
      <path d="M 43.78125 223.213934 
L 566.290745 223.213934 
" clip-path="url(#pb5483666dc)" style="fill: none; stroke-dasharray: 2.96,1.28; stroke-dashoffset: 0; stroke: #b0b0b0; stroke-opacity: 0.8; stroke-width: 0.8"/>
     </g>
     <g id="line2d_18">
      <g>
       <use xlink:href="#mbd633498e1" x="43.78125" y="223.213934" style="stroke: #000000; stroke-width: 0.8"/>
      </g>
     </g>
     <g id="text_10">
      <!-- 0.1 -->
      <g transform="translate(20.878125 227.013152) scale(0.1 -0.1)">
       <use xlink:href="#DejaVuSans-30"/>
       <use xlink:href="#DejaVuSans-2e" transform="translate(63.623047 0)"/>
       <use xlink:href="#DejaVuSans-31" transform="translate(95.410156 0)"/>
      </g>
     </g>
    </g>
    <g id="ytick_3">
     <g id="line2d_19">
      <path d="M 43.78125 195.984117 
L 566.290745 195.984117 
" clip-path="url(#pb5483666dc)" style="fill: none; stroke-dasharray: 2.96,1.28; stroke-dashoffset: 0; stroke: #b0b0b0; stroke-opacity: 0.8; stroke-width: 0.8"/>
     </g>
     <g id="line2d_20">
      <g>
       <use xlink:href="#mbd633498e1" x="43.78125" y="195.984117" style="stroke: #000000; stroke-width: 0.8"/>
      </g>
     </g>
     <g id="text_11">
      <!-- 0.2 -->
      <g transform="translate(20.878125 199.783336) scale(0.1 -0.1)">
       <use xlink:href="#DejaVuSans-30"/>
       <use xlink:href="#DejaVuSans-2e" transform="translate(63.623047 0)"/>
       <use xlink:href="#DejaVuSans-32" transform="translate(95.410156 0)"/>
      </g>
     </g>
    </g>
    <g id="ytick_4">
     <g id="line2d_21">
      <path d="M 43.78125 168.754301 
L 566.290745 168.754301 
" clip-path="url(#pb5483666dc)" style="fill: none; stroke-dasharray: 2.96,1.28; stroke-dashoffset: 0; stroke: #b0b0b0; stroke-opacity: 0.8; stroke-width: 0.8"/>
     </g>
     <g id="line2d_22">
      <g>
       <use xlink:href="#mbd633498e1" x="43.78125" y="168.754301" style="stroke: #000000; stroke-width: 0.8"/>
      </g>
     </g>
     <g id="text_12">
      <!-- 0.3 -->
      <g transform="translate(20.878125 172.55352) scale(0.1 -0.1)">
       <defs>
        <path id="DejaVuSans-33" d="M 2597 2516 
Q 3050 2419 3304 2112 
Q 3559 1806 3559 1356 
Q 3559 666 3084 287 
Q 2609 -91 1734 -91 
Q 1441 -91 1130 -33 
Q 819 25 488 141 
L 488 750 
Q 750 597 1062 519 
Q 1375 441 1716 441 
Q 2309 441 2620 675 
Q 2931 909 2931 1356 
Q 2931 1769 2642 2001 
Q 2353 2234 1838 2234 
L 1294 2234 
L 1294 2753 
L 1863 2753 
Q 2328 2753 2575 2939 
Q 2822 3125 2822 3475 
Q 2822 3834 2567 4026 
Q 2313 4219 1838 4219 
Q 1578 4219 1281 4162 
Q 984 4106 628 3988 
L 628 4550 
Q 988 4650 1302 4700 
Q 1616 4750 1894 4750 
Q 2613 4750 3031 4423 
Q 3450 4097 3450 3541 
Q 3450 3153 3228 2886 
Q 3006 2619 2597 2516 
z
" transform="scale(0.015625)"/>
       </defs>
       <use xlink:href="#DejaVuSans-30"/>
       <use xlink:href="#DejaVuSans-2e" transform="translate(63.623047 0)"/>
       <use xlink:href="#DejaVuSans-33" transform="translate(95.410156 0)"/>
      </g>
     </g>
    </g>
    <g id="ytick_5">
     <g id="line2d_23">
      <path d="M 43.78125 141.524485 
L 566.290745 141.524485 
" clip-path="url(#pb5483666dc)" style="fill: none; stroke-dasharray: 2.96,1.28; stroke-dashoffset: 0; stroke: #b0b0b0; stroke-opacity: 0.8; stroke-width: 0.8"/>
     </g>
     <g id="line2d_24">
      <g>
       <use xlink:href="#mbd633498e1" x="43.78125" y="141.524485" style="stroke: #000000; stroke-width: 0.8"/>
      </g>
     </g>
     <g id="text_13">
      <!-- 0.4 -->
      <g transform="translate(20.878125 145.323704) scale(0.1 -0.1)">
       <use xlink:href="#DejaVuSans-30"/>
       <use xlink:href="#DejaVuSans-2e" transform="translate(63.623047 0)"/>
       <use xlink:href="#DejaVuSans-34" transform="translate(95.410156 0)"/>
      </g>
     </g>
    </g>
    <g id="ytick_6">
     <g id="line2d_25">
      <path d="M 43.78125 114.294669 
L 566.290745 114.294669 
" clip-path="url(#pb5483666dc)" style="fill: none; stroke-dasharray: 2.96,1.28; stroke-dashoffset: 0; stroke: #b0b0b0; stroke-opacity: 0.8; stroke-width: 0.8"/>
     </g>
     <g id="line2d_26">
      <g>
       <use xlink:href="#mbd633498e1" x="43.78125" y="114.294669" style="stroke: #000000; stroke-width: 0.8"/>
      </g>
     </g>
     <g id="text_14">
      <!-- 0.5 -->
      <g transform="translate(20.878125 118.093887) scale(0.1 -0.1)">
       <defs>
        <path id="DejaVuSans-35" d="M 691 4666 
L 3169 4666 
L 3169 4134 
L 1269 4134 
L 1269 2991 
Q 1406 3038 1543 3061 
Q 1681 3084 1819 3084 
Q 2600 3084 3056 2656 
Q 3513 2228 3513 1497 
Q 3513 744 3044 326 
Q 2575 -91 1722 -91 
Q 1428 -91 1123 -41 
Q 819 9 494 109 
L 494 744 
Q 775 591 1075 516 
Q 1375 441 1709 441 
Q 2250 441 2565 725 
Q 2881 1009 2881 1497 
Q 2881 1984 2565 2268 
Q 2250 2553 1709 2553 
Q 1456 2553 1204 2497 
Q 953 2441 691 2322 
L 691 4666 
z
" transform="scale(0.015625)"/>
       </defs>
       <use xlink:href="#DejaVuSans-30"/>
       <use xlink:href="#DejaVuSans-2e" transform="translate(63.623047 0)"/>
       <use xlink:href="#DejaVuSans-35" transform="translate(95.410156 0)"/>
      </g>
     </g>
    </g>
    <g id="ytick_7">
     <g id="line2d_27">
      <path d="M 43.78125 87.064852 
L 566.290745 87.064852 
" clip-path="url(#pb5483666dc)" style="fill: none; stroke-dasharray: 2.96,1.28; stroke-dashoffset: 0; stroke: #b0b0b0; stroke-opacity: 0.8; stroke-width: 0.8"/>
     </g>
     <g id="line2d_28">
      <g>
       <use xlink:href="#mbd633498e1" x="43.78125" y="87.064852" style="stroke: #000000; stroke-width: 0.8"/>
      </g>
     </g>
     <g id="text_15">
      <!-- 0.6 -->
      <g transform="translate(20.878125 90.864071) scale(0.1 -0.1)">
       <use xlink:href="#DejaVuSans-30"/>
       <use xlink:href="#DejaVuSans-2e" transform="translate(63.623047 0)"/>
       <use xlink:href="#DejaVuSans-36" transform="translate(95.410156 0)"/>
      </g>
     </g>
    </g>
    <g id="ytick_8">
     <g id="line2d_29">
      <path d="M 43.78125 59.835036 
L 566.290745 59.835036 
" clip-path="url(#pb5483666dc)" style="fill: none; stroke-dasharray: 2.96,1.28; stroke-dashoffset: 0; stroke: #b0b0b0; stroke-opacity: 0.8; stroke-width: 0.8"/>
     </g>
     <g id="line2d_30">
      <g>
       <use xlink:href="#mbd633498e1" x="43.78125" y="59.835036" style="stroke: #000000; stroke-width: 0.8"/>
      </g>
     </g>
     <g id="text_16">
      <!-- 0.7 -->
      <g transform="translate(20.878125 63.634255) scale(0.1 -0.1)">
       <defs>
        <path id="DejaVuSans-37" d="M 525 4666 
L 3525 4666 
L 3525 4397 
L 1831 0 
L 1172 0 
L 2766 4134 
L 525 4134 
L 525 4666 
z
" transform="scale(0.015625)"/>
       </defs>
       <use xlink:href="#DejaVuSans-30"/>
       <use xlink:href="#DejaVuSans-2e" transform="translate(63.623047 0)"/>
       <use xlink:href="#DejaVuSans-37" transform="translate(95.410156 0)"/>
      </g>
     </g>
    </g>
    <g id="ytick_9">
     <g id="line2d_31">
      <path d="M 43.78125 32.60522 
L 566.290745 32.60522 
" clip-path="url(#pb5483666dc)" style="fill: none; stroke-dasharray: 2.96,1.28; stroke-dashoffset: 0; stroke: #b0b0b0; stroke-opacity: 0.8; stroke-width: 0.8"/>
     </g>
     <g id="line2d_32">
      <g>
       <use xlink:href="#mbd633498e1" x="43.78125" y="32.60522" style="stroke: #000000; stroke-width: 0.8"/>
      </g>
     </g>
     <g id="text_17">
      <!-- 0.8 -->
      <g transform="translate(20.878125 36.404439) scale(0.1 -0.1)">
       <use xlink:href="#DejaVuSans-30"/>
       <use xlink:href="#DejaVuSans-2e" transform="translate(63.623047 0)"/>
       <use xlink:href="#DejaVuSans-38" transform="translate(95.410156 0)"/>
      </g>
     </g>
    </g>
    <g id="text_18">
     <!-- Probability density -->
     <g transform="translate(14.798438 182.731719) rotate(-90) scale(0.1 -0.1)">
      <defs>
       <path id="DejaVuSans-50" d="M 1259 4147 
L 1259 2394 
L 2053 2394 
Q 2494 2394 2734 2622 
Q 2975 2850 2975 3272 
Q 2975 3691 2734 3919 
Q 2494 4147 2053 4147 
L 1259 4147 
z
M 628 4666 
L 2053 4666 
Q 2838 4666 3239 4311 
Q 3641 3956 3641 3272 
Q 3641 2581 3239 2228 
Q 2838 1875 2053 1875 
L 1259 1875 
L 1259 0 
L 628 0 
L 628 4666 
z
" transform="scale(0.015625)"/>
       <path id="DejaVuSans-74" d="M 1172 4494 
L 1172 3500 
L 2356 3500 
L 2356 3053 
L 1172 3053 
L 1172 1153 
Q 1172 725 1289 603 
Q 1406 481 1766 481 
L 2356 481 
L 2356 0 
L 1766 0 
Q 1100 0 847 248 
Q 594 497 594 1153 
L 594 3053 
L 172 3053 
L 172 3500 
L 594 3500 
L 594 4494 
L 1172 4494 
z
" transform="scale(0.015625)"/>
       <path id="DejaVuSans-79" d="M 2059 -325 
Q 1816 -950 1584 -1140 
Q 1353 -1331 966 -1331 
L 506 -1331 
L 506 -850 
L 844 -850 
Q 1081 -850 1212 -737 
Q 1344 -625 1503 -206 
L 1606 56 
L 191 3500 
L 800 3500 
L 1894 763 
L 2988 3500 
L 3597 3500 
L 2059 -325 
z
" transform="scale(0.015625)"/>
       <path id="DejaVuSans-73" d="M 2834 3397 
L 2834 2853 
Q 2591 2978 2328 3040 
Q 2066 3103 1784 3103 
Q 1356 3103 1142 2972 
Q 928 2841 928 2578 
Q 928 2378 1081 2264 
Q 1234 2150 1697 2047 
L 1894 2003 
Q 2506 1872 2764 1633 
Q 3022 1394 3022 966 
Q 3022 478 2636 193 
Q 2250 -91 1575 -91 
Q 1294 -91 989 -36 
Q 684 19 347 128 
L 347 722 
Q 666 556 975 473 
Q 1284 391 1588 391 
Q 1994 391 2212 530 
Q 2431 669 2431 922 
Q 2431 1156 2273 1281 
Q 2116 1406 1581 1522 
L 1381 1569 
Q 847 1681 609 1914 
Q 372 2147 372 2553 
Q 372 3047 722 3315 
Q 1072 3584 1716 3584 
Q 2034 3584 2315 3537 
Q 2597 3491 2834 3397 
z
" transform="scale(0.015625)"/>
      </defs>
      <use xlink:href="#DejaVuSans-50"/>
      <use xlink:href="#DejaVuSans-72" transform="translate(58.552734 0)"/>
      <use xlink:href="#DejaVuSans-6f" transform="translate(97.416016 0)"/>
      <use xlink:href="#DejaVuSans-62" transform="translate(158.597656 0)"/>
      <use xlink:href="#DejaVuSans-61" transform="translate(222.074219 0)"/>
      <use xlink:href="#DejaVuSans-62" transform="translate(283.353516 0)"/>
      <use xlink:href="#DejaVuSans-69" transform="translate(346.830078 0)"/>
      <use xlink:href="#DejaVuSans-6c" transform="translate(374.613281 0)"/>
      <use xlink:href="#DejaVuSans-69" transform="translate(402.396484 0)"/>
      <use xlink:href="#DejaVuSans-74" transform="translate(430.179688 0)"/>
      <use xlink:href="#DejaVuSans-79" transform="translate(469.388672 0)"/>
      <use xlink:href="#DejaVuSans-20" transform="translate(528.568359 0)"/>
      <use xlink:href="#DejaVuSans-64" transform="translate(560.355469 0)"/>
      <use xlink:href="#DejaVuSans-65" transform="translate(623.832031 0)"/>
      <use xlink:href="#DejaVuSans-6e" transform="translate(685.355469 0)"/>
      <use xlink:href="#DejaVuSans-73" transform="translate(748.734375 0)"/>
      <use xlink:href="#DejaVuSans-69" transform="translate(800.833984 0)"/>
      <use xlink:href="#DejaVuSans-74" transform="translate(828.617188 0)"/>
      <use xlink:href="#DejaVuSans-79" transform="translate(867.826172 0)"/>
     </g>
    </g>
   </g>
   <g id="line2d_33">
    <path d="M 67.531682 250.443747 
L 110.83558 250.335563 
L 117.43427 250.085704 
L 121.558451 249.725612 
L 124.857795 249.22612 
L 127.744722 248.551236 
L 130.21923 247.724635 
L 132.281321 246.806215 
L 134.343411 245.626003 
L 135.993084 244.454859 
L 137.642756 243.046515 
L 139.292428 241.365274 
L 140.942101 239.373002 
L 142.591773 237.029651 
L 144.241445 234.293972 
L 145.891118 231.124417 
L 147.54079 227.480243 
L 149.190462 223.322805 
L 150.840135 218.617026 
L 152.489807 213.333014 
L 154.551897 205.880644 
L 156.613988 197.464184 
L 158.676078 188.084857 
L 161.150587 175.607208 
L 163.625095 161.916864 
L 166.512022 144.690738 
L 171.048621 116.032208 
L 175.58522 87.678936 
L 178.059728 73.416035 
L 180.121819 62.657133 
L 181.771491 54.993416 
L 183.421163 48.314711 
L 184.658417 44.025118 
L 185.895672 40.402004 
L 187.132926 37.483336 
L 187.957762 35.944488 
L 188.782598 34.739922 
L 189.607434 33.875379 
L 190.432271 33.35499 
L 191.257107 33.18125 
L 192.081943 33.35499 
L 192.906779 33.875379 
L 193.731615 34.739922 
L 194.556451 35.944488 
L 195.381288 37.483336 
L 196.618542 40.402004 
L 197.855796 44.025118 
L 199.09305 48.314711 
L 200.742723 54.993416 
L 202.392395 62.657133 
L 204.454485 73.416035 
L 206.928994 87.678936 
L 210.228339 108.14819 
L 217.651864 154.677886 
L 220.538791 171.17006 
L 223.013299 184.069691 
L 225.07539 193.826919 
L 227.13748 202.630333 
L 229.199571 210.46667 
L 231.261661 217.351262 
L 233.323751 223.322805 
L 234.973424 227.480243 
L 236.623096 231.124417 
L 238.272768 234.293972 
L 239.922441 237.029651 
L 241.572113 239.373002 
L 243.221785 241.365274 
L 244.871458 243.046515 
L 246.52113 244.454859 
L 248.58322 245.885648 
L 250.645311 247.00913 
L 252.707401 247.881447 
L 255.18191 248.664652 
L 258.068836 249.302292 
L 261.368181 249.772688 
L 265.492362 250.11051 
L 271.266215 250.32681 
L 281.164249 250.427565 
L 319.519131 250.443749 
L 479.949766 250.44375 
L 479.949766 250.44375 
" clip-path="url(#pb5483666dc)" style="fill: none; stroke: #1f77b4; stroke-linecap: square"/>
   </g>
   <g id="line2d_34">
    <path d="M 67.531682 250.44375 
L 108.77349 250.44375 
L 120.733614 230.90858 
L 127.332304 220.575887 
L 132.693739 212.586363 
L 137.642756 205.62268 
L 142.179355 199.645101 
L 146.303536 194.587573 
L 150.015298 190.368179 
L 153.727061 186.483072 
L 157.026406 183.322912 
L 160.325751 180.448013 
L 163.625095 177.865177 
L 166.92444 175.579199 
L 170.223785 173.592871 
L 173.110711 172.101338 
L 175.997638 170.839235 
L 178.884564 169.804819 
L 181.771491 168.995297 
L 184.658417 168.406873 
L 187.545344 168.034801 
L 190.432271 167.873443 
L 193.319197 167.916331 
L 196.618542 168.206137 
L 199.917887 168.741356 
L 203.217231 169.509054 
L 206.516576 170.495404 
L 210.228339 171.848235 
L 213.940101 173.437688 
L 218.064282 175.454075 
L 222.600881 177.940313 
L 227.549898 180.925203 
L 232.911333 184.418921 
L 239.510023 188.99384 
L 248.995639 195.87951 
L 265.90478 208.188864 
L 273.740724 213.592201 
L 280.339413 217.88916 
L 286.525684 221.668124 
L 292.711955 225.181731 
L 298.485809 228.208929 
L 304.259662 230.987071 
L 310.033515 233.516098 
L 315.807368 235.800445 
L 321.581221 237.848247 
L 327.355075 239.670566 
L 333.541346 241.387941 
L 339.727617 242.879979 
L 346.326306 244.245043 
L 353.337414 245.465816 
L 360.760939 246.531872 
L 369.009301 247.482159 
L 378.082499 248.290674 
L 387.980533 248.945958 
L 399.528239 249.482174 
L 413.550454 249.898102 
L 431.284432 250.188819 
L 456.854353 250.365716 
L 479.949766 250.419203 
L 479.949766 250.419203 
" clip-path="url(#pb5483666dc)" style="fill: none; stroke: #ff7f0e; stroke-linecap: square"/>
   </g>
   <g id="line2d_35">
    <path d="M 67.531682 250.44375 
L 128.981976 250.338545 
L 136.81792 249.904654 
L 139.704846 249.498411 
L 141.766937 249.097963 
L 143.004191 248.755871 
L 144.241445 248.452462 
L 145.066281 248.103481 
L 146.303536 247.703643 
L 146.715954 247.406057 
L 147.953208 246.908733 
L 148.365626 246.540533 
L 150.015298 245.707485 
L 150.427716 245.238624 
L 152.077389 244.185825 
L 152.489807 243.597608 
L 153.727061 242.631886 
L 154.139479 241.929263 
L 155.789152 240.372954 
L 156.20157 239.514893 
L 157.851242 237.628245 
L 158.26366 236.595519 
L 159.500914 234.929122 
L 159.913332 233.737285 
L 161.563005 231.151793 
L 161.975423 229.755103 
L 163.212677 227.526472 
L 163.625095 225.950104 
L 165.274768 222.576356 
L 165.687186 220.778006 
L 167.336858 216.957754 
L 167.749276 214.936396 
L 168.98653 211.767174 
L 169.398948 209.564457 
L 171.048621 204.949965 
L 171.461039 202.542051 
L 173.110711 197.536984 
L 173.523129 194.945659 
L 174.760383 190.957157 
L 175.172802 188.23604 
L 176.822474 182.663857 
L 177.234892 179.822126 
L 178.472146 175.504222 
L 178.884564 172.596668 
L 180.534237 166.738014 
L 180.946655 163.799031 
L 182.596327 157.933391 
L 183.008745 155.01982 
L 184.245999 150.692322 
L 184.658417 147.845769 
L 186.30809 142.27551 
L 186.720508 139.565327 
L 188.37018 134.328116 
L 188.782598 131.814039 
L 190.019853 128.191154 
L 190.432271 125.883414 
L 192.081943 121.551251 
L 192.494361 119.537272 
L 193.731615 116.719858 
L 194.144033 114.983539 
L 195.793706 111.868492 
L 196.206124 110.49615 
L 198.680632 106.705753 
L 199.505468 105.918495 
L 199.917887 105.264118 
L 201.155141 104.531686 
L 202.392395 104.016858 
L 203.629649 103.971415 
L 205.279322 104.523878 
L 205.69174 104.956699 
L 206.928994 105.822476 
L 207.341412 106.166921 
L 207.75383 106.936531 
L 208.991084 108.284531 
L 209.403503 109.305521 
L 211.053175 111.619027 
L 211.465593 112.901286 
L 213.115265 115.69023 
L 213.527683 117.186026 
L 214.764938 119.540895 
L 215.177356 121.176881 
L 216.827028 124.582799 
L 217.239446 126.341956 
L 218.889118 129.946442 
L 219.301537 131.781657 
L 220.538791 134.562059 
L 220.951209 136.427323 
L 222.600881 140.166292 
L 223.013299 142.03188 
L 224.250554 144.81483 
L 224.662972 146.654825 
L 226.312644 150.284059 
L 226.725062 152.06772 
L 228.374734 155.560977 
L 228.787152 157.266416 
L 230.024407 159.768132 
L 230.436825 161.396193 
L 232.086497 164.551682 
L 232.498915 166.077342 
L 234.148588 169.021494 
L 234.561006 170.439314 
L 235.79826 172.497896 
L 236.210678 173.82498 
L 237.86035 176.371612 
L 238.272768 177.592013 
L 239.510023 179.358062 
L 239.922441 180.493394 
L 241.572113 182.666721 
L 241.984531 183.706455 
L 243.634203 185.696765 
L 244.046622 186.649325 
L 245.283876 188.027801 
L 245.696294 188.91473 
L 247.345966 190.616373 
L 247.758384 191.433174 
L 249.408057 193.003877 
L 249.820475 193.759783 
L 251.057729 194.859569 
L 251.470147 195.57141 
L 253.119819 196.947879 
L 253.532238 197.61421 
L 254.769492 198.588589 
L 255.18191 199.222532 
L 256.831582 200.456057 
L 257.244 201.056952 
L 258.893673 202.230025 
L 259.306091 202.803304 
L 260.543345 203.648066 
L 260.955763 204.201806 
L 262.605435 205.288508 
L 263.017853 205.822219 
L 264.667526 206.872019 
L 265.079944 207.388693 
L 266.317198 208.15415 
L 266.729616 208.658416 
L 268.379289 209.653355 
L 268.791707 210.144374 
L 270.028961 210.873259 
L 270.441379 211.354272 
L 272.091051 212.305001 
L 272.503469 212.774898 
L 274.153142 213.704127 
L 274.56556 214.163577 
L 275.802814 214.846429 
L 276.215232 215.297502 
L 277.864904 216.189784 
L 278.277323 216.631033 
L 279.926995 217.503812 
L 280.339413 217.935356 
L 281.576667 218.57662 
L 281.989085 219.000094 
L 283.638758 219.837333 
L 284.051176 220.251086 
L 285.28843 220.865606 
L 285.700848 221.271199 
L 287.35052 222.072525 
L 287.762938 222.468235 
L 289.412611 223.249691 
L 289.825029 223.635412 
L 291.062283 224.207704 
L 291.474701 224.585022 
L 293.124374 225.329507 
L 293.536792 225.696655 
L 295.186464 226.420718 
L 295.598882 226.777617 
L 296.836136 227.306531 
L 297.248554 227.654842 
L 298.898227 228.34113 
L 299.310645 228.6791 
L 300.547899 229.17958 
L 300.960317 229.508915 
L 302.60999 230.157224 
L 303.022408 230.476199 
L 304.67208 231.103804 
L 305.084498 231.412441 
L 306.321752 231.868954 
L 306.73417 232.169008 
L 308.383843 232.75886 
L 308.796261 233.048673 
L 310.445933 233.618118 
L 310.858351 233.897771 
L 312.095605 234.310943 
L 312.508024 234.582205 
L 314.157696 235.114739 
L 314.570114 235.376038 
L 315.807368 235.761819 
L 316.632204 236.140243 
L 317.869459 236.511367 
L 318.694295 236.875247 
L 321.581221 237.810642 
L 322.406058 238.148492 
L 325.705402 239.120661 
L 326.530238 239.431164 
L 329.417165 240.226862 
L 330.242001 240.513356 
L 333.128928 241.246459 
L 333.953764 241.510029 
L 336.84069 242.183506 
L 337.665527 242.425289 
L 340.964871 243.116551 
L 341.789707 243.335903 
L 344.676634 243.894749 
L 345.50147 244.094785 
L 350.450487 244.962816 
L 351.275323 245.135351 
L 357.874013 246.125793 
L 359.111267 246.313065 
L 377.670081 248.265527 
L 396.641313 249.371814 
L 418.087053 249.992955 
L 445.306647 250.308438 
L 479.949766 250.419045 
L 479.949766 250.419045 
" clip-path="url(#pb5483666dc)" style="fill: none; stroke: #2ca02c; stroke-linecap: square"/>
   </g>
   <g id="patch_3">
    <path d="M 128.442883 250.44375 
L 128.442883 250.224625 
L 136.642832 250.115063 
L 136.642832 249.841157 
L 140.742806 249.841157 
L 140.742806 248.937268 
L 144.842781 248.937268 
L 144.842781 247.348614 
L 148.942755 247.348614 
L 148.942755 245.020415 
L 153.04273 245.020415 
L 153.04273 241.404858 
L 157.142705 241.404858 
L 157.142705 235.050243 
L 161.242679 235.050243 
L 161.242679 226.066133 
L 165.342654 226.066133 
L 165.342654 216.862897 
L 169.442628 216.862897 
L 169.442628 203.605856 
L 173.542603 203.605856 
L 173.542603 188.869723 
L 177.642577 188.869723 
L 177.642577 170.244128 
L 181.742552 170.244128 
L 181.742552 152.084173 
L 185.842527 152.084173 
L 185.842527 135.622433 
L 189.942501 135.622433 
L 189.942501 123.871874 
L 194.042476 123.871874 
L 194.042476 112.477392 
L 198.14245 112.477392 
L 198.14245 106.369292 
L 202.242425 106.369292 
L 202.242425 102.781126 
L 206.342399 102.781126 
L 206.342399 106.999276 
L 210.442374 106.999276 
L 210.442374 112.148705 
L 214.542348 112.148705 
L 214.542348 126.090511 
L 218.642323 126.090511 
L 218.642323 135.677214 
L 222.742298 135.677214 
L 222.742298 145.592605 
L 226.842272 145.592605 
L 226.842272 157.014477 
L 230.942247 157.014477 
L 230.942247 167.943319 
L 235.042221 167.943319 
L 235.042221 177.064383 
L 239.142196 177.064383 
L 239.142196 181.939906 
L 243.24217 181.939906 
L 243.24217 188.677989 
L 247.342145 188.677989 
L 247.342145 191.444438 
L 251.44212 191.444438 
L 251.44212 193.991762 
L 255.542094 193.991762 
L 255.542094 201.935031 
L 259.642069 201.935031 
L 259.642069 203.194997 
L 263.742043 203.194997 
L 263.742043 207.057069 
L 267.842018 207.057069 
L 267.842018 210.754798 
L 271.941992 210.754798 
L 271.941992 214.342964 
L 276.041967 214.342964 
L 276.041967 215.712493 
L 280.141941 215.712493 
L 280.141941 218.122864 
L 284.241916 218.122864 
L 284.241916 222.204061 
L 288.341891 222.204061 
L 288.341891 222.970997 
L 292.441865 222.970997 
L 292.441865 226.312648 
L 296.54184 226.312648 
L 296.54184 228.613457 
L 300.641814 228.613457 
L 300.641814 230.17472 
L 304.741789 230.17472 
L 304.741789 232.229013 
L 308.841763 232.229013 
L 308.841763 234.365479 
L 312.941738 234.365479 
L 312.941738 235.762398 
L 317.041713 235.762398 
L 317.041713 237.159318 
L 321.141687 237.159318 
L 321.141687 237.624958 
L 325.241662 237.624958 
L 325.241662 240.007939 
L 329.341636 240.007939 
L 329.341636 241.158343 
L 333.441611 241.158343 
L 333.441611 241.98006 
L 337.541585 241.98006 
L 337.541585 242.664825 
L 341.64156 242.664825 
L 341.64156 243.596105 
L 345.741534 243.596105 
L 345.741534 244.828681 
L 353.941484 244.856071 
L 353.941484 245.677789 
L 358.041458 245.677789 
L 358.041458 246.800803 
L 362.141433 246.800803 
L 362.141433 246.526897 
L 366.241407 246.526897 
L 366.241407 247.649911 
L 374.441356 247.540348 
L 374.441356 248.033379 
L 378.541331 248.033379 
L 378.541331 248.526409 
L 382.641305 248.526409 
L 382.641305 248.663362 
L 386.74128 248.663362 
L 386.74128 249.04683 
L 394.941229 248.937268 
L 394.941229 249.375517 
L 399.041204 249.375517 
L 399.041204 249.594642 
L 403.141178 249.594642 
L 403.141178 249.868548 
L 407.241153 249.868548 
L 407.241153 249.731595 
L 411.341127 249.731595 
L 411.341127 249.95072 
L 415.441102 249.95072 
L 415.441102 249.786376 
L 419.541077 249.786376 
L 419.541077 250.115063 
L 435.940975 250.169844 
L 435.940975 250.252016 
L 456.440848 250.334188 
L 456.440848 250.416359 
L 464.640797 250.388969 
L 464.640797 250.252016 
L 472.840746 250.361578 
L 472.840746 250.388969 
L 542.540313 250.416359 
L 542.540313 250.44375 
" clip-path="url(#pb5483666dc)" style="fill: none; stroke: #d62728; stroke-linejoin: miter"/>
   </g>
   <g id="patch_4">
    <path d="M 43.78125 250.44375 
L 43.78125 22.318125 
" style="fill: none; stroke: #000000; stroke-width: 0.8; stroke-linejoin: miter; stroke-linecap: square"/>
   </g>
   <g id="patch_5">
    <path d="M 566.290745 250.44375 
L 566.290745 22.318125 
" style="fill: none; stroke: #000000; stroke-width: 0.8; stroke-linejoin: miter; stroke-linecap: square"/>
   </g>
   <g id="patch_6">
    <path d="M 43.78125 250.44375 
L 566.290745 250.44375 
" style="fill: none; stroke: #000000; stroke-width: 0.8; stroke-linejoin: miter; stroke-linecap: square"/>
   </g>
   <g id="patch_7">
    <path d="M 43.78125 22.318125 
L 566.290745 22.318125 
" style="fill: none; stroke: #000000; stroke-width: 0.8; stroke-linejoin: miter; stroke-linecap: square"/>
   </g>
   <g id="text_19">
    <!-- Maximum of normal and Rayleigh random variables -->
    <g transform="translate(149.434435 16.318125) scale(0.12 -0.12)">
     <defs>
      <path id="DejaVuSans-4d" d="M 628 4666 
L 1569 4666 
L 2759 1491 
L 3956 4666 
L 4897 4666 
L 4897 0 
L 4281 0 
L 4281 4097 
L 3078 897 
L 2444 897 
L 1241 4097 
L 1241 0 
L 628 0 
L 628 4666 
z
" transform="scale(0.015625)"/>
      <path id="DejaVuSans-78" d="M 3513 3500 
L 2247 1797 
L 3578 0 
L 2900 0 
L 1881 1375 
L 863 0 
L 184 0 
L 1544 1831 
L 300 3500 
L 978 3500 
L 1906 2253 
L 2834 3500 
L 3513 3500 
z
" transform="scale(0.015625)"/>
      <path id="DejaVuSans-75" d="M 544 1381 
L 544 3500 
L 1119 3500 
L 1119 1403 
Q 1119 906 1312 657 
Q 1506 409 1894 409 
Q 2359 409 2629 706 
Q 2900 1003 2900 1516 
L 2900 3500 
L 3475 3500 
L 3475 0 
L 2900 0 
L 2900 538 
Q 2691 219 2414 64 
Q 2138 -91 1772 -91 
Q 1169 -91 856 284 
Q 544 659 544 1381 
z
M 1991 3584 
L 1991 3584 
z
" transform="scale(0.015625)"/>
      <path id="DejaVuSans-66" d="M 2375 4863 
L 2375 4384 
L 1825 4384 
Q 1516 4384 1395 4259 
Q 1275 4134 1275 3809 
L 1275 3500 
L 2222 3500 
L 2222 3053 
L 1275 3053 
L 1275 0 
L 697 0 
L 697 3053 
L 147 3053 
L 147 3500 
L 697 3500 
L 697 3744 
Q 697 4328 969 4595 
Q 1241 4863 1831 4863 
L 2375 4863 
z
" transform="scale(0.015625)"/>
      <path id="DejaVuSans-67" d="M 2906 1791 
Q 2906 2416 2648 2759 
Q 2391 3103 1925 3103 
Q 1463 3103 1205 2759 
Q 947 2416 947 1791 
Q 947 1169 1205 825 
Q 1463 481 1925 481 
Q 2391 481 2648 825 
Q 2906 1169 2906 1791 
z
M 3481 434 
Q 3481 -459 3084 -895 
Q 2688 -1331 1869 -1331 
Q 1566 -1331 1297 -1286 
Q 1028 -1241 775 -1147 
L 775 -588 
Q 1028 -725 1275 -790 
Q 1522 -856 1778 -856 
Q 2344 -856 2625 -561 
Q 2906 -266 2906 331 
L 2906 616 
Q 2728 306 2450 153 
Q 2172 0 1784 0 
Q 1141 0 747 490 
Q 353 981 353 1791 
Q 353 2603 747 3093 
Q 1141 3584 1784 3584 
Q 2172 3584 2450 3431 
Q 2728 3278 2906 2969 
L 2906 3500 
L 3481 3500 
L 3481 434 
z
" transform="scale(0.015625)"/>
      <path id="DejaVuSans-68" d="M 3513 2113 
L 3513 0 
L 2938 0 
L 2938 2094 
Q 2938 2591 2744 2837 
Q 2550 3084 2163 3084 
Q 1697 3084 1428 2787 
Q 1159 2491 1159 1978 
L 1159 0 
L 581 0 
L 581 4863 
L 1159 4863 
L 1159 2956 
Q 1366 3272 1645 3428 
Q 1925 3584 2291 3584 
Q 2894 3584 3203 3211 
Q 3513 2838 3513 2113 
z
" transform="scale(0.015625)"/>
     </defs>
     <use xlink:href="#DejaVuSans-4d"/>
     <use xlink:href="#DejaVuSans-61" transform="translate(86.279297 0)"/>
     <use xlink:href="#DejaVuSans-78" transform="translate(147.558594 0)"/>
     <use xlink:href="#DejaVuSans-69" transform="translate(206.738281 0)"/>
     <use xlink:href="#DejaVuSans-6d" transform="translate(234.521484 0)"/>
     <use xlink:href="#DejaVuSans-75" transform="translate(331.933594 0)"/>
     <use xlink:href="#DejaVuSans-6d" transform="translate(395.3125 0)"/>
     <use xlink:href="#DejaVuSans-20" transform="translate(492.724609 0)"/>
     <use xlink:href="#DejaVuSans-6f" transform="translate(524.511719 0)"/>
     <use xlink:href="#DejaVuSans-66" transform="translate(585.693359 0)"/>
     <use xlink:href="#DejaVuSans-20" transform="translate(620.898438 0)"/>
     <use xlink:href="#DejaVuSans-6e" transform="translate(652.685547 0)"/>
     <use xlink:href="#DejaVuSans-6f" transform="translate(716.064453 0)"/>
     <use xlink:href="#DejaVuSans-72" transform="translate(777.246094 0)"/>
     <use xlink:href="#DejaVuSans-6d" transform="translate(816.609375 0)"/>
     <use xlink:href="#DejaVuSans-61" transform="translate(914.021484 0)"/>
     <use xlink:href="#DejaVuSans-6c" transform="translate(975.300781 0)"/>
     <use xlink:href="#DejaVuSans-20" transform="translate(1003.083984 0)"/>
     <use xlink:href="#DejaVuSans-61" transform="translate(1034.871094 0)"/>
     <use xlink:href="#DejaVuSans-6e" transform="translate(1096.150391 0)"/>
     <use xlink:href="#DejaVuSans-64" transform="translate(1159.529297 0)"/>
     <use xlink:href="#DejaVuSans-20" transform="translate(1223.005859 0)"/>
     <use xlink:href="#DejaVuSans-52" transform="translate(1254.792969 0)"/>
     <use xlink:href="#DejaVuSans-61" transform="translate(1322.025391 0)"/>
     <use xlink:href="#DejaVuSans-79" transform="translate(1383.304688 0)"/>
     <use xlink:href="#DejaVuSans-6c" transform="translate(1442.484375 0)"/>
     <use xlink:href="#DejaVuSans-65" transform="translate(1470.267578 0)"/>
     <use xlink:href="#DejaVuSans-69" transform="translate(1531.791016 0)"/>
     <use xlink:href="#DejaVuSans-67" transform="translate(1559.574219 0)"/>
     <use xlink:href="#DejaVuSans-68" transform="translate(1623.050781 0)"/>
     <use xlink:href="#DejaVuSans-20" transform="translate(1686.429688 0)"/>
     <use xlink:href="#DejaVuSans-72" transform="translate(1718.216797 0)"/>
     <use xlink:href="#DejaVuSans-61" transform="translate(1759.330078 0)"/>
     <use xlink:href="#DejaVuSans-6e" transform="translate(1820.609375 0)"/>
     <use xlink:href="#DejaVuSans-64" transform="translate(1883.988281 0)"/>
     <use xlink:href="#DejaVuSans-6f" transform="translate(1947.464844 0)"/>
     <use xlink:href="#DejaVuSans-6d" transform="translate(2008.646484 0)"/>
     <use xlink:href="#DejaVuSans-20" transform="translate(2106.058594 0)"/>
     <use xlink:href="#DejaVuSans-76" transform="translate(2137.845703 0)"/>
     <use xlink:href="#DejaVuSans-61" transform="translate(2197.025391 0)"/>
     <use xlink:href="#DejaVuSans-72" transform="translate(2258.304688 0)"/>
     <use xlink:href="#DejaVuSans-69" transform="translate(2299.417969 0)"/>
     <use xlink:href="#DejaVuSans-61" transform="translate(2327.201172 0)"/>
     <use xlink:href="#DejaVuSans-62" transform="translate(2388.480469 0)"/>
     <use xlink:href="#DejaVuSans-6c" transform="translate(2451.957031 0)"/>
     <use xlink:href="#DejaVuSans-65" transform="translate(2479.740234 0)"/>
     <use xlink:href="#DejaVuSans-73" transform="translate(2541.263672 0)"/>
    </g>
   </g>
   <g id="legend_1">
    <g id="patch_8">
     <path d="M 430.090745 89.0525 
L 559.290745 89.0525 
Q 561.290745 89.0525 561.290745 87.0525 
L 561.290745 29.318125 
Q 561.290745 27.318125 559.290745 27.318125 
L 430.090745 27.318125 
Q 428.090745 27.318125 428.090745 29.318125 
L 428.090745 87.0525 
Q 428.090745 89.0525 430.090745 89.0525 
z
" style="fill: #ffffff; opacity: 0.8; stroke: #cccccc; stroke-linejoin: miter"/>
    </g>
    <g id="line2d_36">
     <path d="M 432.090745 35.416562 
L 442.090745 35.416562 
L 452.090745 35.416562 
" style="fill: none; stroke: #1f77b4; stroke-linecap: square"/>
    </g>
    <g id="text_20">
     <!-- $X$ -->
     <g transform="translate(460.090745 38.916562) scale(0.1 -0.1)">
      <defs>
       <path id="DejaVuSans-Oblique-58" d="M 878 4666 
L 1516 4666 
L 2316 2981 
L 3763 4666 
L 4500 4666 
L 2578 2438 
L 3738 0 
L 3103 0 
L 2163 1966 
L 459 0 
L -275 0 
L 1906 2509 
L 878 4666 
z
" transform="scale(0.015625)"/>
      </defs>
      <use xlink:href="#DejaVuSans-Oblique-58" transform="translate(0 0.09375)"/>
     </g>
    </g>
    <g id="line2d_37">
     <path d="M 432.090745 50.094687 
L 442.090745 50.094687 
L 452.090745 50.094687 
" style="fill: none; stroke: #ff7f0e; stroke-linecap: square"/>
    </g>
    <g id="text_21">
     <!-- $Y$ -->
     <g transform="translate(460.090745 53.594687) scale(0.1 -0.1)">
      <defs>
       <path id="DejaVuSans-Oblique-59" d="M 403 4666 
L 1081 4666 
L 1953 2747 
L 3616 4666 
L 4325 4666 
L 2209 2222 
L 1778 0 
L 1147 0 
L 1575 2222 
L 403 4666 
z
" transform="scale(0.015625)"/>
      </defs>
      <use xlink:href="#DejaVuSans-Oblique-59" transform="translate(0 0.09375)"/>
     </g>
    </g>
    <g id="line2d_38">
     <path d="M 432.090745 64.772812 
L 442.090745 64.772812 
L 452.090745 64.772812 
" style="fill: none; stroke: #2ca02c; stroke-linecap: square"/>
    </g>
    <g id="text_22">
     <!-- $\max(X, Y)$ -->
     <g transform="translate(460.090745 68.272812) scale(0.1 -0.1)">
      <defs>
       <path id="DejaVuSans-28" d="M 1984 4856 
Q 1566 4138 1362 3434 
Q 1159 2731 1159 2009 
Q 1159 1288 1364 580 
Q 1569 -128 1984 -844 
L 1484 -844 
Q 1016 -109 783 600 
Q 550 1309 550 2009 
Q 550 2706 781 3412 
Q 1013 4119 1484 4856 
L 1984 4856 
z
" transform="scale(0.015625)"/>
       <path id="DejaVuSans-2c" d="M 750 794 
L 1409 794 
L 1409 256 
L 897 -744 
L 494 -744 
L 750 256 
L 750 794 
z
" transform="scale(0.015625)"/>
       <path id="DejaVuSans-29" d="M 513 4856 
L 1013 4856 
Q 1481 4119 1714 3412 
Q 1947 2706 1947 2009 
Q 1947 1309 1714 600 
Q 1481 -109 1013 -844 
L 513 -844 
Q 928 -128 1133 580 
Q 1338 1288 1338 2009 
Q 1338 2731 1133 3434 
Q 928 4138 513 4856 
z
" transform="scale(0.015625)"/>
      </defs>
      <use xlink:href="#DejaVuSans-6d" transform="translate(0 0.125)"/>
      <use xlink:href="#DejaVuSans-61" transform="translate(97.412109 0.125)"/>
      <use xlink:href="#DejaVuSans-78" transform="translate(158.691406 0.125)"/>
      <use xlink:href="#DejaVuSans-28" transform="translate(217.871094 0.125)"/>
      <use xlink:href="#DejaVuSans-Oblique-58" transform="translate(256.884766 0.125)"/>
      <use xlink:href="#DejaVuSans-2c" transform="translate(325.390625 0.125)"/>
      <use xlink:href="#DejaVuSans-Oblique-59" transform="translate(376.660156 0.125)"/>
      <use xlink:href="#DejaVuSans-29" transform="translate(437.744141 0.125)"/>
     </g>
    </g>
    <g id="patch_9">
     <path d="M 432.090745 82.9525 
L 452.090745 82.9525 
L 452.090745 75.9525 
L 432.090745 75.9525 
L 432.090745 82.9525 
z
" style="fill: none; stroke: #d62728; stroke-linejoin: miter"/>
    </g>
    <g id="text_23">
     <!-- $\max(X, Y)$ empirical -->
     <g transform="translate(460.090745 82.9525) scale(0.1 -0.1)">
      <defs>
       <path id="DejaVuSans-70" d="M 1159 525 
L 1159 -1331 
L 581 -1331 
L 581 3500 
L 1159 3500 
L 1159 2969 
Q 1341 3281 1617 3432 
Q 1894 3584 2278 3584 
Q 2916 3584 3314 3078 
Q 3713 2572 3713 1747 
Q 3713 922 3314 415 
Q 2916 -91 2278 -91 
Q 1894 -91 1617 61 
Q 1341 213 1159 525 
z
M 3116 1747 
Q 3116 2381 2855 2742 
Q 2594 3103 2138 3103 
Q 1681 3103 1420 2742 
Q 1159 2381 1159 1747 
Q 1159 1113 1420 752 
Q 1681 391 2138 391 
Q 2594 391 2855 752 
Q 3116 1113 3116 1747 
z
" transform="scale(0.015625)"/>
       <path id="DejaVuSans-63" d="M 3122 3366 
L 3122 2828 
Q 2878 2963 2633 3030 
Q 2388 3097 2138 3097 
Q 1578 3097 1268 2742 
Q 959 2388 959 1747 
Q 959 1106 1268 751 
Q 1578 397 2138 397 
Q 2388 397 2633 464 
Q 2878 531 3122 666 
L 3122 134 
Q 2881 22 2623 -34 
Q 2366 -91 2075 -91 
Q 1284 -91 818 406 
Q 353 903 353 1747 
Q 353 2603 823 3093 
Q 1294 3584 2113 3584 
Q 2378 3584 2631 3529 
Q 2884 3475 3122 3366 
z
" transform="scale(0.015625)"/>
      </defs>
      <use xlink:href="#DejaVuSans-6d" transform="translate(0 0.015625)"/>
      <use xlink:href="#DejaVuSans-61" transform="translate(97.412109 0.015625)"/>
      <use xlink:href="#DejaVuSans-78" transform="translate(158.691406 0.015625)"/>
      <use xlink:href="#DejaVuSans-28" transform="translate(217.871094 0.015625)"/>
      <use xlink:href="#DejaVuSans-Oblique-58" transform="translate(256.884766 0.015625)"/>
      <use xlink:href="#DejaVuSans-2c" transform="translate(325.390625 0.015625)"/>
      <use xlink:href="#DejaVuSans-Oblique-59" transform="translate(376.660156 0.015625)"/>
      <use xlink:href="#DejaVuSans-29" transform="translate(437.744141 0.015625)"/>
      <use xlink:href="#DejaVuSans-20" transform="translate(476.757812 0.015625)"/>
      <use xlink:href="#DejaVuSans-65" transform="translate(508.544922 0.015625)"/>
      <use xlink:href="#DejaVuSans-6d" transform="translate(570.068359 0.015625)"/>
      <use xlink:href="#DejaVuSans-70" transform="translate(667.480469 0.015625)"/>
      <use xlink:href="#DejaVuSans-69" transform="translate(730.957031 0.015625)"/>
      <use xlink:href="#DejaVuSans-72" transform="translate(758.740234 0.015625)"/>
      <use xlink:href="#DejaVuSans-69" transform="translate(799.853516 0.015625)"/>
      <use xlink:href="#DejaVuSans-63" transform="translate(827.636719 0.015625)"/>
      <use xlink:href="#DejaVuSans-61" transform="translate(882.617188 0.015625)"/>
      <use xlink:href="#DejaVuSans-6c" transform="translate(943.896484 0.015625)"/>
     </g>
    </g>
   </g>
  </g>
 </g>
 <defs>
  <clipPath id="pb5483666dc">
   <rect x="43.78125" y="22.318125" width="522.509495" height="228.125625"/>
  </clipPath>
 </defs>
</svg>
