<?xml version="1.0" encoding="utf-8" standalone="no"?>
<!DOCTYPE svg PUBLIC "-//W3C//DTD SVG 1.1//EN"
  "http://www.w3.org/Graphics/SVG/1.1/DTD/svg11.dtd">
<svg xmlns:xlink="http://www.w3.org/1999/xlink" width="576pt" height="288pt" viewBox="0 0 576 288" xmlns="http://www.w3.org/2000/svg" version="1.1">
 <metadata>
  <rdf:RDF xmlns:dc="http://purl.org/dc/elements/1.1/" xmlns:cc="http://creativecommons.org/ns#" xmlns:rdf="http://www.w3.org/1999/02/22-rdf-syntax-ns#">
   <cc:Work>
    <dc:type rdf:resource="http://purl.org/dc/dcmitype/StillImage"/>
    <dc:date>2025-05-04T14:40:46.278381</dc:date>
    <dc:format>image/svg+xml</dc:format>
    <dc:creator>
     <cc:Agent>
      <dc:title>Matplotlib v3.10.1, https://matplotlib.org/</dc:title>
     </cc:Agent>
    </dc:creator>
   </cc:Work>
  </rdf:RDF>
 </metadata>
 <defs>
  <style type="text/css">*{stroke-linejoin: round; stroke-linecap: butt}</style>
 </defs>
 <g id="figure_1">
  <g id="patch_1">
   <path d="M 0 288 
L 576 288 
L 576 0 
L 0 0 
z
" style="fill: #ffffff"/>
  </g>
  <g id="axes_1">
   <g id="patch_2">
    <path d="M 48.982813 250.421875 
L 568.8 250.421875 
L 568.8 22.32 
L 48.982813 22.32 
z
" style="fill: #ffffff"/>
   </g>
   <g id="matplotlib.axis_1">
    <g id="xtick_1">
     <g id="line2d_1">
      <path d="M 72.610866 250.421875 
L 72.610866 22.32 
" clip-path="url(#pefbaa02e99)" style="fill: none; stroke-dasharray: 2.96,1.28; stroke-dashoffset: 0; stroke: #b0b0b0; stroke-opacity: 0.8; stroke-width: 0.8"/>
     </g>
     <g id="line2d_2">
      <defs>
       <path id="m9eb25f8b91" d="M 0 0 
L 0 3.5 
" style="stroke: #000000; stroke-width: 0.8"/>
      </defs>
      <g>
       <use xlink:href="#m9eb25f8b91" x="72.610866" y="250.421875" style="stroke: #000000; stroke-width: 0.8"/>
      </g>
     </g>
     <g id="text_1">
      <!-- 0 -->
      <g transform="translate(69.429616 265.020312) scale(0.1 -0.1)">
       <defs>
        <path id="DejaVuSans-30" d="M 2034 4250 
Q 1547 4250 1301 3770 
Q 1056 3291 1056 2328 
Q 1056 1369 1301 889 
Q 1547 409 2034 409 
Q 2525 409 2770 889 
Q 3016 1369 3016 2328 
Q 3016 3291 2770 3770 
Q 2525 4250 2034 4250 
z
M 2034 4750 
Q 2819 4750 3233 4129 
Q 3647 3509 3647 2328 
Q 3647 1150 3233 529 
Q 2819 -91 2034 -91 
Q 1250 -91 836 529 
Q 422 1150 422 2328 
Q 422 3509 836 4129 
Q 1250 4750 2034 4750 
z
" transform="scale(0.015625)"/>
       </defs>
       <use xlink:href="#DejaVuSans-30"/>
      </g>
     </g>
    </g>
    <g id="xtick_2">
     <g id="line2d_3">
      <path d="M 167.123082 250.421875 
L 167.123082 22.32 
" clip-path="url(#pefbaa02e99)" style="fill: none; stroke-dasharray: 2.96,1.28; stroke-dashoffset: 0; stroke: #b0b0b0; stroke-opacity: 0.8; stroke-width: 0.8"/>
     </g>
     <g id="line2d_4">
      <g>
       <use xlink:href="#m9eb25f8b91" x="167.123082" y="250.421875" style="stroke: #000000; stroke-width: 0.8"/>
      </g>
     </g>
     <g id="text_2">
      <!-- 100 -->
      <g transform="translate(157.579332 265.020312) scale(0.1 -0.1)">
       <defs>
        <path id="DejaVuSans-31" d="M 794 531 
L 1825 531 
L 1825 4091 
L 703 3866 
L 703 4441 
L 1819 4666 
L 2450 4666 
L 2450 531 
L 3481 531 
L 3481 0 
L 794 0 
L 794 531 
z
" transform="scale(0.015625)"/>
       </defs>
       <use xlink:href="#DejaVuSans-31"/>
       <use xlink:href="#DejaVuSans-30" transform="translate(63.623047 0)"/>
       <use xlink:href="#DejaVuSans-30" transform="translate(127.246094 0)"/>
      </g>
     </g>
    </g>
    <g id="xtick_3">
     <g id="line2d_5">
      <path d="M 261.635298 250.421875 
L 261.635298 22.32 
" clip-path="url(#pefbaa02e99)" style="fill: none; stroke-dasharray: 2.96,1.28; stroke-dashoffset: 0; stroke: #b0b0b0; stroke-opacity: 0.8; stroke-width: 0.8"/>
     </g>
     <g id="line2d_6">
      <g>
       <use xlink:href="#m9eb25f8b91" x="261.635298" y="250.421875" style="stroke: #000000; stroke-width: 0.8"/>
      </g>
     </g>
     <g id="text_3">
      <!-- 200 -->
      <g transform="translate(252.091548 265.020312) scale(0.1 -0.1)">
       <defs>
        <path id="DejaVuSans-32" d="M 1228 531 
L 3431 531 
L 3431 0 
L 469 0 
L 469 531 
Q 828 903 1448 1529 
Q 2069 2156 2228 2338 
Q 2531 2678 2651 2914 
Q 2772 3150 2772 3378 
Q 2772 3750 2511 3984 
Q 2250 4219 1831 4219 
Q 1534 4219 1204 4116 
Q 875 4013 500 3803 
L 500 4441 
Q 881 4594 1212 4672 
Q 1544 4750 1819 4750 
Q 2544 4750 2975 4387 
Q 3406 4025 3406 3419 
Q 3406 3131 3298 2873 
Q 3191 2616 2906 2266 
Q 2828 2175 2409 1742 
Q 1991 1309 1228 531 
z
" transform="scale(0.015625)"/>
       </defs>
       <use xlink:href="#DejaVuSans-32"/>
       <use xlink:href="#DejaVuSans-30" transform="translate(63.623047 0)"/>
       <use xlink:href="#DejaVuSans-30" transform="translate(127.246094 0)"/>
      </g>
     </g>
    </g>
    <g id="xtick_4">
     <g id="line2d_7">
      <path d="M 356.147514 250.421875 
L 356.147514 22.32 
" clip-path="url(#pefbaa02e99)" style="fill: none; stroke-dasharray: 2.96,1.28; stroke-dashoffset: 0; stroke: #b0b0b0; stroke-opacity: 0.8; stroke-width: 0.8"/>
     </g>
     <g id="line2d_8">
      <g>
       <use xlink:href="#m9eb25f8b91" x="356.147514" y="250.421875" style="stroke: #000000; stroke-width: 0.8"/>
      </g>
     </g>
     <g id="text_4">
      <!-- 300 -->
      <g transform="translate(346.603764 265.020312) scale(0.1 -0.1)">
       <defs>
        <path id="DejaVuSans-33" d="M 2597 2516 
Q 3050 2419 3304 2112 
Q 3559 1806 3559 1356 
Q 3559 666 3084 287 
Q 2609 -91 1734 -91 
Q 1441 -91 1130 -33 
Q 819 25 488 141 
L 488 750 
Q 750 597 1062 519 
Q 1375 441 1716 441 
Q 2309 441 2620 675 
Q 2931 909 2931 1356 
Q 2931 1769 2642 2001 
Q 2353 2234 1838 2234 
L 1294 2234 
L 1294 2753 
L 1863 2753 
Q 2328 2753 2575 2939 
Q 2822 3125 2822 3475 
Q 2822 3834 2567 4026 
Q 2313 4219 1838 4219 
Q 1578 4219 1281 4162 
Q 984 4106 628 3988 
L 628 4550 
Q 988 4650 1302 4700 
Q 1616 4750 1894 4750 
Q 2613 4750 3031 4423 
Q 3450 4097 3450 3541 
Q 3450 3153 3228 2886 
Q 3006 2619 2597 2516 
z
" transform="scale(0.015625)"/>
       </defs>
       <use xlink:href="#DejaVuSans-33"/>
       <use xlink:href="#DejaVuSans-30" transform="translate(63.623047 0)"/>
       <use xlink:href="#DejaVuSans-30" transform="translate(127.246094 0)"/>
      </g>
     </g>
    </g>
    <g id="xtick_5">
     <g id="line2d_9">
      <path d="M 450.65973 250.421875 
L 450.65973 22.32 
" clip-path="url(#pefbaa02e99)" style="fill: none; stroke-dasharray: 2.96,1.28; stroke-dashoffset: 0; stroke: #b0b0b0; stroke-opacity: 0.8; stroke-width: 0.8"/>
     </g>
     <g id="line2d_10">
      <g>
       <use xlink:href="#m9eb25f8b91" x="450.65973" y="250.421875" style="stroke: #000000; stroke-width: 0.8"/>
      </g>
     </g>
     <g id="text_5">
      <!-- 400 -->
      <g transform="translate(441.11598 265.020312) scale(0.1 -0.1)">
       <defs>
        <path id="DejaVuSans-34" d="M 2419 4116 
L 825 1625 
L 2419 1625 
L 2419 4116 
z
M 2253 4666 
L 3047 4666 
L 3047 1625 
L 3713 1625 
L 3713 1100 
L 3047 1100 
L 3047 0 
L 2419 0 
L 2419 1100 
L 313 1100 
L 313 1709 
L 2253 4666 
z
" transform="scale(0.015625)"/>
       </defs>
       <use xlink:href="#DejaVuSans-34"/>
       <use xlink:href="#DejaVuSans-30" transform="translate(63.623047 0)"/>
       <use xlink:href="#DejaVuSans-30" transform="translate(127.246094 0)"/>
      </g>
     </g>
    </g>
    <g id="xtick_6">
     <g id="line2d_11">
      <path d="M 545.171946 250.421875 
L 545.171946 22.32 
" clip-path="url(#pefbaa02e99)" style="fill: none; stroke-dasharray: 2.96,1.28; stroke-dashoffset: 0; stroke: #b0b0b0; stroke-opacity: 0.8; stroke-width: 0.8"/>
     </g>
     <g id="line2d_12">
      <g>
       <use xlink:href="#m9eb25f8b91" x="545.171946" y="250.421875" style="stroke: #000000; stroke-width: 0.8"/>
      </g>
     </g>
     <g id="text_6">
      <!-- 500 -->
      <g transform="translate(535.628196 265.020312) scale(0.1 -0.1)">
       <defs>
        <path id="DejaVuSans-35" d="M 691 4666 
L 3169 4666 
L 3169 4134 
L 1269 4134 
L 1269 2991 
Q 1406 3038 1543 3061 
Q 1681 3084 1819 3084 
Q 2600 3084 3056 2656 
Q 3513 2228 3513 1497 
Q 3513 744 3044 326 
Q 2575 -91 1722 -91 
Q 1428 -91 1123 -41 
Q 819 9 494 109 
L 494 744 
Q 775 591 1075 516 
Q 1375 441 1709 441 
Q 2250 441 2565 725 
Q 2881 1009 2881 1497 
Q 2881 1984 2565 2268 
Q 2250 2553 1709 2553 
Q 1456 2553 1204 2497 
Q 953 2441 691 2322 
L 691 4666 
z
" transform="scale(0.015625)"/>
       </defs>
       <use xlink:href="#DejaVuSans-35"/>
       <use xlink:href="#DejaVuSans-30" transform="translate(63.623047 0)"/>
       <use xlink:href="#DejaVuSans-30" transform="translate(127.246094 0)"/>
      </g>
     </g>
    </g>
    <g id="text_7">
     <!-- Frequency (Hz), $f$ -->
     <g transform="translate(265.741406 278.7) scale(0.1 -0.1)">
      <defs>
       <path id="DejaVuSans-46" d="M 628 4666 
L 3309 4666 
L 3309 4134 
L 1259 4134 
L 1259 2759 
L 3109 2759 
L 3109 2228 
L 1259 2228 
L 1259 0 
L 628 0 
L 628 4666 
z
" transform="scale(0.015625)"/>
       <path id="DejaVuSans-72" d="M 2631 2963 
Q 2534 3019 2420 3045 
Q 2306 3072 2169 3072 
Q 1681 3072 1420 2755 
Q 1159 2438 1159 1844 
L 1159 0 
L 581 0 
L 581 3500 
L 1159 3500 
L 1159 2956 
Q 1341 3275 1631 3429 
Q 1922 3584 2338 3584 
Q 2397 3584 2469 3576 
Q 2541 3569 2628 3553 
L 2631 2963 
z
" transform="scale(0.015625)"/>
       <path id="DejaVuSans-65" d="M 3597 1894 
L 3597 1613 
L 953 1613 
Q 991 1019 1311 708 
Q 1631 397 2203 397 
Q 2534 397 2845 478 
Q 3156 559 3463 722 
L 3463 178 
Q 3153 47 2828 -22 
Q 2503 -91 2169 -91 
Q 1331 -91 842 396 
Q 353 884 353 1716 
Q 353 2575 817 3079 
Q 1281 3584 2069 3584 
Q 2775 3584 3186 3129 
Q 3597 2675 3597 1894 
z
M 3022 2063 
Q 3016 2534 2758 2815 
Q 2500 3097 2075 3097 
Q 1594 3097 1305 2825 
Q 1016 2553 972 2059 
L 3022 2063 
z
" transform="scale(0.015625)"/>
       <path id="DejaVuSans-71" d="M 947 1747 
Q 947 1113 1208 752 
Q 1469 391 1925 391 
Q 2381 391 2643 752 
Q 2906 1113 2906 1747 
Q 2906 2381 2643 2742 
Q 2381 3103 1925 3103 
Q 1469 3103 1208 2742 
Q 947 2381 947 1747 
z
M 2906 525 
Q 2725 213 2448 61 
Q 2172 -91 1784 -91 
Q 1150 -91 751 415 
Q 353 922 353 1747 
Q 353 2572 751 3078 
Q 1150 3584 1784 3584 
Q 2172 3584 2448 3432 
Q 2725 3281 2906 2969 
L 2906 3500 
L 3481 3500 
L 3481 -1331 
L 2906 -1331 
L 2906 525 
z
" transform="scale(0.015625)"/>
       <path id="DejaVuSans-75" d="M 544 1381 
L 544 3500 
L 1119 3500 
L 1119 1403 
Q 1119 906 1312 657 
Q 1506 409 1894 409 
Q 2359 409 2629 706 
Q 2900 1003 2900 1516 
L 2900 3500 
L 3475 3500 
L 3475 0 
L 2900 0 
L 2900 538 
Q 2691 219 2414 64 
Q 2138 -91 1772 -91 
Q 1169 -91 856 284 
Q 544 659 544 1381 
z
M 1991 3584 
L 1991 3584 
z
" transform="scale(0.015625)"/>
       <path id="DejaVuSans-6e" d="M 3513 2113 
L 3513 0 
L 2938 0 
L 2938 2094 
Q 2938 2591 2744 2837 
Q 2550 3084 2163 3084 
Q 1697 3084 1428 2787 
Q 1159 2491 1159 1978 
L 1159 0 
L 581 0 
L 581 3500 
L 1159 3500 
L 1159 2956 
Q 1366 3272 1645 3428 
Q 1925 3584 2291 3584 
Q 2894 3584 3203 3211 
Q 3513 2838 3513 2113 
z
" transform="scale(0.015625)"/>
       <path id="DejaVuSans-63" d="M 3122 3366 
L 3122 2828 
Q 2878 2963 2633 3030 
Q 2388 3097 2138 3097 
Q 1578 3097 1268 2742 
Q 959 2388 959 1747 
Q 959 1106 1268 751 
Q 1578 397 2138 397 
Q 2388 397 2633 464 
Q 2878 531 3122 666 
L 3122 134 
Q 2881 22 2623 -34 
Q 2366 -91 2075 -91 
Q 1284 -91 818 406 
Q 353 903 353 1747 
Q 353 2603 823 3093 
Q 1294 3584 2113 3584 
Q 2378 3584 2631 3529 
Q 2884 3475 3122 3366 
z
" transform="scale(0.015625)"/>
       <path id="DejaVuSans-79" d="M 2059 -325 
Q 1816 -950 1584 -1140 
Q 1353 -1331 966 -1331 
L 506 -1331 
L 506 -850 
L 844 -850 
Q 1081 -850 1212 -737 
Q 1344 -625 1503 -206 
L 1606 56 
L 191 3500 
L 800 3500 
L 1894 763 
L 2988 3500 
L 3597 3500 
L 2059 -325 
z
" transform="scale(0.015625)"/>
       <path id="DejaVuSans-20" transform="scale(0.015625)"/>
       <path id="DejaVuSans-28" d="M 1984 4856 
Q 1566 4138 1362 3434 
Q 1159 2731 1159 2009 
Q 1159 1288 1364 580 
Q 1569 -128 1984 -844 
L 1484 -844 
Q 1016 -109 783 600 
Q 550 1309 550 2009 
Q 550 2706 781 3412 
Q 1013 4119 1484 4856 
L 1984 4856 
z
" transform="scale(0.015625)"/>
       <path id="DejaVuSans-48" d="M 628 4666 
L 1259 4666 
L 1259 2753 
L 3553 2753 
L 3553 4666 
L 4184 4666 
L 4184 0 
L 3553 0 
L 3553 2222 
L 1259 2222 
L 1259 0 
L 628 0 
L 628 4666 
z
" transform="scale(0.015625)"/>
       <path id="DejaVuSans-7a" d="M 353 3500 
L 3084 3500 
L 3084 2975 
L 922 459 
L 3084 459 
L 3084 0 
L 275 0 
L 275 525 
L 2438 3041 
L 353 3041 
L 353 3500 
z
" transform="scale(0.015625)"/>
       <path id="DejaVuSans-29" d="M 513 4856 
L 1013 4856 
Q 1481 4119 1714 3412 
Q 1947 2706 1947 2009 
Q 1947 1309 1714 600 
Q 1481 -109 1013 -844 
L 513 -844 
Q 928 -128 1133 580 
Q 1338 1288 1338 2009 
Q 1338 2731 1133 3434 
Q 928 4138 513 4856 
z
" transform="scale(0.015625)"/>
       <path id="DejaVuSans-2c" d="M 750 794 
L 1409 794 
L 1409 256 
L 897 -744 
L 494 -744 
L 750 256 
L 750 794 
z
" transform="scale(0.015625)"/>
       <path id="DejaVuSans-Oblique-66" d="M 3059 4863 
L 2969 4384 
L 2419 4384 
Q 2106 4384 1964 4261 
Q 1822 4138 1753 3809 
L 1691 3500 
L 2638 3500 
L 2553 3053 
L 1606 3053 
L 1013 0 
L 434 0 
L 1031 3053 
L 481 3053 
L 563 3500 
L 1113 3500 
L 1159 3744 
Q 1278 4363 1576 4613 
Q 1875 4863 2516 4863 
L 3059 4863 
z
" transform="scale(0.015625)"/>
      </defs>
      <use xlink:href="#DejaVuSans-46" transform="translate(0 0.015625)"/>
      <use xlink:href="#DejaVuSans-72" transform="translate(57.519531 0.015625)"/>
      <use xlink:href="#DejaVuSans-65" transform="translate(98.632812 0.015625)"/>
      <use xlink:href="#DejaVuSans-71" transform="translate(160.15625 0.015625)"/>
      <use xlink:href="#DejaVuSans-75" transform="translate(223.632812 0.015625)"/>
      <use xlink:href="#DejaVuSans-65" transform="translate(287.011719 0.015625)"/>
      <use xlink:href="#DejaVuSans-6e" transform="translate(348.535156 0.015625)"/>
      <use xlink:href="#DejaVuSans-63" transform="translate(411.914062 0.015625)"/>
      <use xlink:href="#DejaVuSans-79" transform="translate(466.894531 0.015625)"/>
      <use xlink:href="#DejaVuSans-20" transform="translate(526.074219 0.015625)"/>
      <use xlink:href="#DejaVuSans-28" transform="translate(557.861328 0.015625)"/>
      <use xlink:href="#DejaVuSans-48" transform="translate(596.875 0.015625)"/>
      <use xlink:href="#DejaVuSans-7a" transform="translate(672.070312 0.015625)"/>
      <use xlink:href="#DejaVuSans-29" transform="translate(724.560547 0.015625)"/>
      <use xlink:href="#DejaVuSans-2c" transform="translate(763.574219 0.015625)"/>
      <use xlink:href="#DejaVuSans-20" transform="translate(795.361328 0.015625)"/>
      <use xlink:href="#DejaVuSans-Oblique-66" transform="translate(827.148438 0.015625)"/>
     </g>
    </g>
   </g>
   <g id="matplotlib.axis_2">
    <g id="ytick_1">
     <g id="line2d_13">
      <path d="M 48.982813 238.32105 
L 568.8 238.32105 
" clip-path="url(#pefbaa02e99)" style="fill: none; stroke-dasharray: 2.96,1.28; stroke-dashoffset: 0; stroke: #b0b0b0; stroke-opacity: 0.8; stroke-width: 0.8"/>
     </g>
     <g id="line2d_14">
      <defs>
       <path id="mc172f39088" d="M 0 0 
L -3.5 0 
" style="stroke: #000000; stroke-width: 0.8"/>
      </defs>
      <g>
       <use xlink:href="#mc172f39088" x="48.982813" y="238.32105" style="stroke: #000000; stroke-width: 0.8"/>
      </g>
     </g>
     <g id="text_8">
      <!-- −70 -->
      <g transform="translate(20.878125 242.120269) scale(0.1 -0.1)">
       <defs>
        <path id="DejaVuSans-2212" d="M 678 2272 
L 4684 2272 
L 4684 1741 
L 678 1741 
L 678 2272 
z
" transform="scale(0.015625)"/>
        <path id="DejaVuSans-37" d="M 525 4666 
L 3525 4666 
L 3525 4397 
L 1831 0 
L 1172 0 
L 2766 4134 
L 525 4134 
L 525 4666 
z
" transform="scale(0.015625)"/>
       </defs>
       <use xlink:href="#DejaVuSans-2212"/>
       <use xlink:href="#DejaVuSans-37" transform="translate(83.789062 0)"/>
       <use xlink:href="#DejaVuSans-30" transform="translate(147.412109 0)"/>
      </g>
     </g>
    </g>
    <g id="ytick_2">
     <g id="line2d_15">
      <path d="M 48.982813 203.66036 
L 568.8 203.66036 
" clip-path="url(#pefbaa02e99)" style="fill: none; stroke-dasharray: 2.96,1.28; stroke-dashoffset: 0; stroke: #b0b0b0; stroke-opacity: 0.8; stroke-width: 0.8"/>
     </g>
     <g id="line2d_16">
      <g>
       <use xlink:href="#mc172f39088" x="48.982813" y="203.66036" style="stroke: #000000; stroke-width: 0.8"/>
      </g>
     </g>
     <g id="text_9">
      <!-- −60 -->
      <g transform="translate(20.878125 207.459579) scale(0.1 -0.1)">
       <defs>
        <path id="DejaVuSans-36" d="M 2113 2584 
Q 1688 2584 1439 2293 
Q 1191 2003 1191 1497 
Q 1191 994 1439 701 
Q 1688 409 2113 409 
Q 2538 409 2786 701 
Q 3034 994 3034 1497 
Q 3034 2003 2786 2293 
Q 2538 2584 2113 2584 
z
M 3366 4563 
L 3366 3988 
Q 3128 4100 2886 4159 
Q 2644 4219 2406 4219 
Q 1781 4219 1451 3797 
Q 1122 3375 1075 2522 
Q 1259 2794 1537 2939 
Q 1816 3084 2150 3084 
Q 2853 3084 3261 2657 
Q 3669 2231 3669 1497 
Q 3669 778 3244 343 
Q 2819 -91 2113 -91 
Q 1303 -91 875 529 
Q 447 1150 447 2328 
Q 447 3434 972 4092 
Q 1497 4750 2381 4750 
Q 2619 4750 2861 4703 
Q 3103 4656 3366 4563 
z
" transform="scale(0.015625)"/>
       </defs>
       <use xlink:href="#DejaVuSans-2212"/>
       <use xlink:href="#DejaVuSans-36" transform="translate(83.789062 0)"/>
       <use xlink:href="#DejaVuSans-30" transform="translate(147.412109 0)"/>
      </g>
     </g>
    </g>
    <g id="ytick_3">
     <g id="line2d_17">
      <path d="M 48.982813 168.999669 
L 568.8 168.999669 
" clip-path="url(#pefbaa02e99)" style="fill: none; stroke-dasharray: 2.96,1.28; stroke-dashoffset: 0; stroke: #b0b0b0; stroke-opacity: 0.8; stroke-width: 0.8"/>
     </g>
     <g id="line2d_18">
      <g>
       <use xlink:href="#mc172f39088" x="48.982813" y="168.999669" style="stroke: #000000; stroke-width: 0.8"/>
      </g>
     </g>
     <g id="text_10">
      <!-- −50 -->
      <g transform="translate(20.878125 172.798888) scale(0.1 -0.1)">
       <use xlink:href="#DejaVuSans-2212"/>
       <use xlink:href="#DejaVuSans-35" transform="translate(83.789062 0)"/>
       <use xlink:href="#DejaVuSans-30" transform="translate(147.412109 0)"/>
      </g>
     </g>
    </g>
    <g id="ytick_4">
     <g id="line2d_19">
      <path d="M 48.982813 134.338979 
L 568.8 134.338979 
" clip-path="url(#pefbaa02e99)" style="fill: none; stroke-dasharray: 2.96,1.28; stroke-dashoffset: 0; stroke: #b0b0b0; stroke-opacity: 0.8; stroke-width: 0.8"/>
     </g>
     <g id="line2d_20">
      <g>
       <use xlink:href="#mc172f39088" x="48.982813" y="134.338979" style="stroke: #000000; stroke-width: 0.8"/>
      </g>
     </g>
     <g id="text_11">
      <!-- −40 -->
      <g transform="translate(20.878125 138.138198) scale(0.1 -0.1)">
       <use xlink:href="#DejaVuSans-2212"/>
       <use xlink:href="#DejaVuSans-34" transform="translate(83.789062 0)"/>
       <use xlink:href="#DejaVuSans-30" transform="translate(147.412109 0)"/>
      </g>
     </g>
    </g>
    <g id="ytick_5">
     <g id="line2d_21">
      <path d="M 48.982813 99.678288 
L 568.8 99.678288 
" clip-path="url(#pefbaa02e99)" style="fill: none; stroke-dasharray: 2.96,1.28; stroke-dashoffset: 0; stroke: #b0b0b0; stroke-opacity: 0.8; stroke-width: 0.8"/>
     </g>
     <g id="line2d_22">
      <g>
       <use xlink:href="#mc172f39088" x="48.982813" y="99.678288" style="stroke: #000000; stroke-width: 0.8"/>
      </g>
     </g>
     <g id="text_12">
      <!-- −30 -->
      <g transform="translate(20.878125 103.477507) scale(0.1 -0.1)">
       <use xlink:href="#DejaVuSans-2212"/>
       <use xlink:href="#DejaVuSans-33" transform="translate(83.789062 0)"/>
       <use xlink:href="#DejaVuSans-30" transform="translate(147.412109 0)"/>
      </g>
     </g>
    </g>
    <g id="ytick_6">
     <g id="line2d_23">
      <path d="M 48.982813 65.017598 
L 568.8 65.017598 
" clip-path="url(#pefbaa02e99)" style="fill: none; stroke-dasharray: 2.96,1.28; stroke-dashoffset: 0; stroke: #b0b0b0; stroke-opacity: 0.8; stroke-width: 0.8"/>
     </g>
     <g id="line2d_24">
      <g>
       <use xlink:href="#mc172f39088" x="48.982813" y="65.017598" style="stroke: #000000; stroke-width: 0.8"/>
      </g>
     </g>
     <g id="text_13">
      <!-- −20 -->
      <g transform="translate(20.878125 68.816817) scale(0.1 -0.1)">
       <use xlink:href="#DejaVuSans-2212"/>
       <use xlink:href="#DejaVuSans-32" transform="translate(83.789062 0)"/>
       <use xlink:href="#DejaVuSans-30" transform="translate(147.412109 0)"/>
      </g>
     </g>
    </g>
    <g id="ytick_7">
     <g id="line2d_25">
      <path d="M 48.982813 30.356908 
L 568.8 30.356908 
" clip-path="url(#pefbaa02e99)" style="fill: none; stroke-dasharray: 2.96,1.28; stroke-dashoffset: 0; stroke: #b0b0b0; stroke-opacity: 0.8; stroke-width: 0.8"/>
     </g>
     <g id="line2d_26">
      <g>
       <use xlink:href="#mc172f39088" x="48.982813" y="30.356908" style="stroke: #000000; stroke-width: 0.8"/>
      </g>
     </g>
     <g id="text_14">
      <!-- −10 -->
      <g transform="translate(20.878125 34.156126) scale(0.1 -0.1)">
       <use xlink:href="#DejaVuSans-2212"/>
       <use xlink:href="#DejaVuSans-31" transform="translate(83.789062 0)"/>
       <use xlink:href="#DejaVuSans-30" transform="translate(147.412109 0)"/>
      </g>
     </g>
    </g>
    <g id="text_15">
     <!-- Power density (dB/Hz) -->
     <g transform="translate(14.798437 191.570938) rotate(-90) scale(0.1 -0.1)">
      <defs>
       <path id="DejaVuSans-50" d="M 1259 4147 
L 1259 2394 
L 2053 2394 
Q 2494 2394 2734 2622 
Q 2975 2850 2975 3272 
Q 2975 3691 2734 3919 
Q 2494 4147 2053 4147 
L 1259 4147 
z
M 628 4666 
L 2053 4666 
Q 2838 4666 3239 4311 
Q 3641 3956 3641 3272 
Q 3641 2581 3239 2228 
Q 2838 1875 2053 1875 
L 1259 1875 
L 1259 0 
L 628 0 
L 628 4666 
z
" transform="scale(0.015625)"/>
       <path id="DejaVuSans-6f" d="M 1959 3097 
Q 1497 3097 1228 2736 
Q 959 2375 959 1747 
Q 959 1119 1226 758 
Q 1494 397 1959 397 
Q 2419 397 2687 759 
Q 2956 1122 2956 1747 
Q 2956 2369 2687 2733 
Q 2419 3097 1959 3097 
z
M 1959 3584 
Q 2709 3584 3137 3096 
Q 3566 2609 3566 1747 
Q 3566 888 3137 398 
Q 2709 -91 1959 -91 
Q 1206 -91 779 398 
Q 353 888 353 1747 
Q 353 2609 779 3096 
Q 1206 3584 1959 3584 
z
" transform="scale(0.015625)"/>
       <path id="DejaVuSans-77" d="M 269 3500 
L 844 3500 
L 1563 769 
L 2278 3500 
L 2956 3500 
L 3675 769 
L 4391 3500 
L 4966 3500 
L 4050 0 
L 3372 0 
L 2619 2869 
L 1863 0 
L 1184 0 
L 269 3500 
z
" transform="scale(0.015625)"/>
       <path id="DejaVuSans-64" d="M 2906 2969 
L 2906 4863 
L 3481 4863 
L 3481 0 
L 2906 0 
L 2906 525 
Q 2725 213 2448 61 
Q 2172 -91 1784 -91 
Q 1150 -91 751 415 
Q 353 922 353 1747 
Q 353 2572 751 3078 
Q 1150 3584 1784 3584 
Q 2172 3584 2448 3432 
Q 2725 3281 2906 2969 
z
M 947 1747 
Q 947 1113 1208 752 
Q 1469 391 1925 391 
Q 2381 391 2643 752 
Q 2906 1113 2906 1747 
Q 2906 2381 2643 2742 
Q 2381 3103 1925 3103 
Q 1469 3103 1208 2742 
Q 947 2381 947 1747 
z
" transform="scale(0.015625)"/>
       <path id="DejaVuSans-73" d="M 2834 3397 
L 2834 2853 
Q 2591 2978 2328 3040 
Q 2066 3103 1784 3103 
Q 1356 3103 1142 2972 
Q 928 2841 928 2578 
Q 928 2378 1081 2264 
Q 1234 2150 1697 2047 
L 1894 2003 
Q 2506 1872 2764 1633 
Q 3022 1394 3022 966 
Q 3022 478 2636 193 
Q 2250 -91 1575 -91 
Q 1294 -91 989 -36 
Q 684 19 347 128 
L 347 722 
Q 666 556 975 473 
Q 1284 391 1588 391 
Q 1994 391 2212 530 
Q 2431 669 2431 922 
Q 2431 1156 2273 1281 
Q 2116 1406 1581 1522 
L 1381 1569 
Q 847 1681 609 1914 
Q 372 2147 372 2553 
Q 372 3047 722 3315 
Q 1072 3584 1716 3584 
Q 2034 3584 2315 3537 
Q 2597 3491 2834 3397 
z
" transform="scale(0.015625)"/>
       <path id="DejaVuSans-69" d="M 603 3500 
L 1178 3500 
L 1178 0 
L 603 0 
L 603 3500 
z
M 603 4863 
L 1178 4863 
L 1178 4134 
L 603 4134 
L 603 4863 
z
" transform="scale(0.015625)"/>
       <path id="DejaVuSans-74" d="M 1172 4494 
L 1172 3500 
L 2356 3500 
L 2356 3053 
L 1172 3053 
L 1172 1153 
Q 1172 725 1289 603 
Q 1406 481 1766 481 
L 2356 481 
L 2356 0 
L 1766 0 
Q 1100 0 847 248 
Q 594 497 594 1153 
L 594 3053 
L 172 3053 
L 172 3500 
L 594 3500 
L 594 4494 
L 1172 4494 
z
" transform="scale(0.015625)"/>
       <path id="DejaVuSans-42" d="M 1259 2228 
L 1259 519 
L 2272 519 
Q 2781 519 3026 730 
Q 3272 941 3272 1375 
Q 3272 1813 3026 2020 
Q 2781 2228 2272 2228 
L 1259 2228 
z
M 1259 4147 
L 1259 2741 
L 2194 2741 
Q 2656 2741 2882 2914 
Q 3109 3088 3109 3444 
Q 3109 3797 2882 3972 
Q 2656 4147 2194 4147 
L 1259 4147 
z
M 628 4666 
L 2241 4666 
Q 2963 4666 3353 4366 
Q 3744 4066 3744 3513 
Q 3744 3084 3544 2831 
Q 3344 2578 2956 2516 
Q 3422 2416 3680 2098 
Q 3938 1781 3938 1306 
Q 3938 681 3513 340 
Q 3088 0 2303 0 
L 628 0 
L 628 4666 
z
" transform="scale(0.015625)"/>
       <path id="DejaVuSans-2f" d="M 1625 4666 
L 2156 4666 
L 531 -594 
L 0 -594 
L 1625 4666 
z
" transform="scale(0.015625)"/>
      </defs>
      <use xlink:href="#DejaVuSans-50"/>
      <use xlink:href="#DejaVuSans-6f" transform="translate(56.677734 0)"/>
      <use xlink:href="#DejaVuSans-77" transform="translate(117.859375 0)"/>
      <use xlink:href="#DejaVuSans-65" transform="translate(199.646484 0)"/>
      <use xlink:href="#DejaVuSans-72" transform="translate(261.169922 0)"/>
      <use xlink:href="#DejaVuSans-20" transform="translate(302.283203 0)"/>
      <use xlink:href="#DejaVuSans-64" transform="translate(334.070312 0)"/>
      <use xlink:href="#DejaVuSans-65" transform="translate(397.546875 0)"/>
      <use xlink:href="#DejaVuSans-6e" transform="translate(459.070312 0)"/>
      <use xlink:href="#DejaVuSans-73" transform="translate(522.449219 0)"/>
      <use xlink:href="#DejaVuSans-69" transform="translate(574.548828 0)"/>
      <use xlink:href="#DejaVuSans-74" transform="translate(602.332031 0)"/>
      <use xlink:href="#DejaVuSans-79" transform="translate(641.541016 0)"/>
      <use xlink:href="#DejaVuSans-20" transform="translate(700.720703 0)"/>
      <use xlink:href="#DejaVuSans-28" transform="translate(732.507812 0)"/>
      <use xlink:href="#DejaVuSans-64" transform="translate(771.521484 0)"/>
      <use xlink:href="#DejaVuSans-42" transform="translate(834.998047 0)"/>
      <use xlink:href="#DejaVuSans-2f" transform="translate(903.601562 0)"/>
      <use xlink:href="#DejaVuSans-48" transform="translate(937.292969 0)"/>
      <use xlink:href="#DejaVuSans-7a" transform="translate(1012.488281 0)"/>
      <use xlink:href="#DejaVuSans-29" transform="translate(1064.978516 0)"/>
     </g>
    </g>
   </g>
   <g id="line2d_27">
    <path d="M 72.610866 216.615197 
L 73.072352 206.013683 
L 73.533837 205.535514 
L 74.456808 203.946294 
L 75.379779 202.185602 
L 75.841264 201.482706 
L 76.30275 200.999412 
L 76.764235 200.790664 
L 77.225721 200.895457 
L 77.687206 201.337998 
L 78.148692 202.128371 
L 78.610177 203.26229 
L 79.533148 206.462453 
L 81.840575 216.299105 
L 82.30206 217.42918 
L 82.763546 217.855424 
L 83.225031 217.483673 
L 83.686517 216.342363 
L 84.609488 212.401469 
L 86.455429 203.450872 
L 87.3784 200.424753 
L 87.839886 199.451276 
L 88.301371 198.857316 
L 88.762857 198.646729 
L 89.224342 198.816816 
L 89.685827 199.358198 
L 90.147313 200.252894 
L 91.070284 202.960804 
L 92.916225 209.58162 
L 93.377711 210.643649 
L 93.839196 211.216924 
L 94.300682 211.320296 
L 94.762167 211.071969 
L 96.146623 209.816039 
L 96.608109 209.592396 
L 97.992565 209.354842 
L 98.454051 209.027726 
L 98.915536 208.353639 
L 99.377021 207.279204 
L 100.299992 204.194662 
L 101.684449 199.41337 
L 102.145934 198.274621 
L 102.607419 197.471622 
L 103.068905 197.025609 
L 103.53039 196.937356 
L 103.991876 197.191125 
L 104.453361 197.756719 
L 105.376332 199.634808 
L 107.683759 205.446492 
L 108.60673 206.886929 
L 109.529701 207.647726 
L 110.452672 207.962269 
L 111.375643 208.029279 
L 112.298613 207.892103 
L 113.221584 207.452723 
L 114.144555 206.585114 
L 115.067526 205.295 
L 117.836439 201.029925 
L 119.220895 199.154623 
L 120.605351 196.767665 
L 121.989807 194.362994 
L 122.451293 193.807308 
L 122.912778 193.449711 
L 123.374264 193.307105 
L 123.835749 193.370667 
L 124.75872 193.938057 
L 125.681691 194.548338 
L 126.143176 194.639211 
L 126.604662 194.513462 
L 127.066147 194.182319 
L 128.912089 192.448862 
L 129.373574 192.371882 
L 129.83506 192.552152 
L 130.296545 192.998801 
L 130.758031 193.695182 
L 131.681001 195.662444 
L 133.988429 201.139652 
L 136.295856 205.519133 
L 137.218827 206.837514 
L 137.680312 207.183093 
L 138.141797 207.237757 
L 138.603283 206.979329 
L 139.064768 206.427739 
L 139.987739 204.693122 
L 141.372195 201.764012 
L 141.833681 201.015987 
L 142.295166 200.48854 
L 142.756652 200.228683 
L 143.218137 200.268796 
L 143.679623 200.622373 
L 144.141108 201.278288 
L 145.064079 203.290443 
L 145.98705 205.530791 
L 146.448535 206.390608 
L 146.910021 206.928932 
L 147.371506 207.114827 
L 147.832991 206.987721 
L 148.294477 206.629378 
L 149.678933 204.965637 
L 151.98636 201.95311 
L 152.909331 200.076947 
L 153.832302 197.864671 
L 154.293787 197.021154 
L 154.755273 196.62454 
L 155.216758 196.843306 
L 155.678244 197.768981 
L 156.139729 199.363458 
L 157.0627 203.351991 
L 157.524185 204.719195 
L 157.985671 205.332662 
L 158.447156 205.583786 
L 158.908642 205.591819 
L 159.370127 203.519202 
L 159.831613 195.981101 
L 161.677554 149.59113 
L 162.600525 133.264012 
L 163.523496 121.126801 
L 164.446467 112.34526 
L 165.369438 106.420932 
L 165.830923 104.434863 
L 166.292409 103.068157 
L 166.753894 102.30695 
L 167.215379 102.14418 
L 167.676865 102.579291 
L 168.13835 103.618278 
L 168.599836 105.274122 
L 169.061321 107.567657 
L 169.984292 114.199885 
L 170.907263 123.917034 
L 171.830234 137.469466 
L 172.753205 156.322906 
L 173.676175 182.937791 
L 174.137661 197.520276 
L 174.599146 203.929415 
L 175.522117 198.681432 
L 175.983603 197.897622 
L 176.445088 198.690337 
L 177.368059 201.658349 
L 177.829544 202.504562 
L 179.214001 203.503376 
L 179.675486 204.591339 
L 180.136971 206.303815 
L 181.521428 212.655914 
L 181.982913 213.510784 
L 182.444399 213.035743 
L 182.905884 211.376292 
L 185.213311 199.279793 
L 185.674797 197.696496 
L 186.136282 196.579158 
L 186.597768 195.940346 
L 187.059253 195.774918 
L 187.520738 196.061697 
L 187.982224 196.763353 
L 188.443709 197.824818 
L 189.36668 200.701276 
L 190.289651 203.797565 
L 190.751136 205.060708 
L 191.212622 205.942333 
L 191.674107 206.351848 
L 192.135593 206.273318 
L 192.597078 205.768383 
L 193.520049 203.97128 
L 194.44302 202.014318 
L 194.904505 201.239918 
L 195.365991 200.690527 
L 195.827476 200.40229 
L 196.288962 200.388797 
L 196.750447 200.640599 
L 197.211932 201.122422 
L 199.057874 203.519299 
L 199.51936 203.540442 
L 199.980845 203.076531 
L 200.44233 202.112247 
L 201.365301 199.036499 
L 203.211243 191.975243 
L 204.134214 189.374226 
L 204.595699 188.435866 
L 205.057185 187.76035 
L 205.51867 187.361454 
L 205.980156 187.254444 
L 206.441641 187.457719 
L 206.903126 187.993703 
L 207.364612 188.88907 
L 207.826097 190.174312 
L 208.287583 191.882446 
L 209.210554 196.691884 
L 210.133524 203.413521 
L 211.517981 214.576629 
L 211.979466 216.666497 
L 212.440952 217.079089 
L 212.902437 216.061337 
L 214.286893 210.755003 
L 214.748379 209.511453 
L 215.209864 208.686407 
L 215.67135 208.210432 
L 217.055806 207.38105 
L 217.517291 206.721165 
L 217.978777 205.690717 
L 218.901748 202.783872 
L 219.824718 199.784396 
L 220.286204 198.619647 
L 220.747689 197.800668 
L 221.209175 197.368357 
L 221.67066 197.327342 
L 222.132146 197.647224 
L 222.593631 198.260898 
L 223.978087 200.644849 
L 224.439573 201.119753 
L 224.901058 201.247315 
L 225.362544 201.023998 
L 225.824029 200.522497 
L 228.131456 197.233358 
L 229.054427 196.393768 
L 229.977398 195.953227 
L 230.438883 195.937164 
L 230.900369 196.100697 
L 231.361854 196.473474 
L 231.82334 197.07236 
L 232.74631 198.899945 
L 234.130767 202.149808 
L 234.592252 202.876094 
L 235.053738 203.232019 
L 235.515223 203.19564 
L 235.976708 202.829718 
L 237.82265 200.499731 
L 238.284136 200.169395 
L 238.745621 200.014673 
L 239.207106 200.028833 
L 239.668592 200.194194 
L 240.591563 200.899275 
L 241.514534 202.010309 
L 243.821961 205.387616 
L 244.283446 205.642892 
L 244.744932 205.549398 
L 245.206417 205.089368 
L 246.129388 203.377091 
L 247.052359 201.54289 
L 247.513844 200.917358 
L 247.97533 200.605717 
L 248.436815 200.651543 
L 248.8983 201.061569 
L 249.359786 201.803244 
L 251.205728 205.790255 
L 251.667213 206.152049 
L 252.128698 205.981226 
L 252.590184 205.317066 
L 253.513155 203.129681 
L 254.436126 200.943275 
L 254.897611 200.148634 
L 255.359096 199.632598 
L 255.820582 199.420068 
L 256.282067 199.517559 
L 256.743553 199.9172 
L 257.205038 200.597363 
L 258.128009 202.627011 
L 259.512465 206.054456 
L 259.973951 206.798345 
L 260.435436 207.155989 
L 260.896922 207.1077 
L 261.358407 206.718617 
L 263.665834 203.688197 
L 266.896232 200.905381 
L 267.357718 200.693194 
L 267.819203 200.677302 
L 268.280688 200.901543 
L 268.742174 201.389845 
L 269.203659 202.140125 
L 271.049601 206.1937 
L 271.511086 206.615199 
L 271.972572 206.42933 
L 272.434057 205.626944 
L 273.357028 202.787743 
L 275.664455 194.768385 
L 276.587426 192.080461 
L 277.048912 191.061734 
L 277.510397 190.365293 
L 277.971882 190.040115 
L 278.433368 190.092904 
L 278.894853 190.482546 
L 279.817824 191.912264 
L 282.586737 196.706135 
L 283.048222 197.267929 
L 283.509708 197.529735 
L 283.971193 197.480975 
L 284.894164 197.098585 
L 285.355649 197.163976 
L 286.27862 197.713439 
L 286.740106 197.488248 
L 287.201591 196.412779 
L 289.047533 189.433988 
L 289.509018 189.099341 
L 289.970504 189.414552 
L 290.431989 189.943766 
L 290.893475 190.130223 
L 291.35496 189.702085 
L 291.816445 189.004494 
L 292.277931 188.814723 
L 292.739416 189.896198 
L 293.200902 192.603115 
L 293.662387 195.994397 
L 294.123873 196.168661 
L 294.585358 190.161945 
L 295.508329 175.303513 
L 295.969814 171.361711 
L 296.4313 170.620916 
L 296.892785 173.880007 
L 297.354271 182.900865 
L 297.815756 197.024257 
L 298.277241 184.948868 
L 298.738727 165.505398 
L 299.200212 153.061061 
L 299.661698 145.760385 
L 300.123183 142.946673 
L 300.584669 145.571238 
L 301.046154 158.594893 
L 301.507639 199.574247 
L 301.969125 140.696825 
L 302.43061 115.402009 
L 303.353581 85.788992 
L 304.276552 66.846586 
L 305.199523 53.486799 
L 306.122494 44.000641 
L 307.045465 37.605437 
L 307.50695 35.432602 
L 307.968435 33.900276 
L 308.429921 32.989165 
L 308.891406 32.688267 
L 309.352892 32.99411 
L 309.814377 33.910525 
L 310.275863 35.448906 
L 310.737348 37.629005 
L 311.198833 40.480401 
L 312.121804 48.38039 
L 313.044775 59.717706 
L 313.967746 75.652926 
L 314.429231 86.097341 
L 314.890717 99.079533 
L 315.352202 116.240325 
L 315.813688 142.639739 
L 316.275173 207.393019 
L 316.736659 156.162413 
L 317.198144 144.097104 
L 317.659629 141.794931 
L 318.121115 144.767958 
L 318.5826 152.210375 
L 319.044086 165.044601 
L 319.967057 209.063914 
L 320.428542 186.838575 
L 320.890027 175.603539 
L 321.351513 171.66026 
L 321.812998 172.194325 
L 322.274484 176.273533 
L 322.735969 183.676422 
L 323.65894 205.312437 
L 324.120425 208.671247 
L 325.043396 201.784108 
L 325.504882 201.894733 
L 325.966367 204.875321 
L 326.427853 209.561526 
L 326.889338 213.071593 
L 327.350823 212.270996 
L 328.273794 205.123255 
L 328.73528 203.308869 
L 329.196765 203.213679 
L 329.658251 204.406801 
L 330.119736 206.038842 
L 330.581221 206.961729 
L 331.042707 206.407109 
L 332.427163 201.156261 
L 332.888649 200.355766 
L 333.350134 200.230607 
L 334.273105 200.861452 
L 334.73459 200.943958 
L 335.196076 200.645443 
L 337.503503 197.655729 
L 338.887959 195.318461 
L 339.349445 195.038636 
L 339.81093 195.565078 
L 340.272415 197.107702 
L 341.195386 201.842548 
L 341.656872 202.150934 
L 342.118357 199.370508 
L 343.041328 191.495584 
L 343.502813 189.926751 
L 343.964299 191.116362 
L 344.88727 200.683933 
L 345.348755 196.778151 
L 346.271726 172.967199 
L 346.733211 165.249058 
L 347.194697 161.171962 
L 347.656182 161.282435 
L 348.117668 167.764204 
L 348.579153 189.167988 
L 349.040639 179.502544 
L 349.502124 146.20066 
L 349.963609 126.376893 
L 350.88658 100.62319 
L 351.809551 83.508225 
L 352.732522 71.374507 
L 353.655493 62.851029 
L 354.578464 57.284525 
L 355.039949 55.497504 
L 355.501435 54.339848 
L 355.96292 53.797057 
L 356.424405 53.862512 
L 356.885891 54.537018 
L 357.347376 55.828873 
L 357.808862 57.754451 
L 358.270347 60.339402 
L 359.193318 67.649942 
L 360.116289 78.26701 
L 361.03926 93.21177 
L 361.962231 114.925073 
L 362.423716 130.374545 
L 362.885201 152.546047 
L 363.346687 193.817415 
L 364.269658 164.01052 
L 364.731143 159.254088 
L 365.192629 159.90275 
L 365.654114 164.260929 
L 366.115599 171.779832 
L 367.03857 192.547002 
L 367.500056 196.99202 
L 368.423027 192.621246 
L 368.884512 192.813861 
L 369.345997 195.567702 
L 370.268968 205.570516 
L 370.730454 208.651311 
L 371.191939 208.160286 
L 371.653425 206.048578 
L 372.11491 204.493305 
L 372.576395 204.269648 
L 373.037881 205.280918 
L 373.960852 208.4581 
L 374.422337 209.07941 
L 374.883823 208.807475 
L 375.345308 208.252187 
L 375.806793 208.075654 
L 376.268279 208.632606 
L 376.729764 209.911353 
L 377.652735 212.784535 
L 378.114221 212.894722 
L 378.575706 211.598967 
L 380.883133 200.692126 
L 381.344619 199.521877 
L 381.806104 198.766303 
L 382.267589 198.414721 
L 382.729075 198.458794 
L 383.19056 198.877185 
L 383.652046 199.616394 
L 385.036502 202.492561 
L 385.497988 203.091032 
L 385.959473 203.301085 
L 386.420958 203.151252 
L 388.2669 201.727056 
L 388.728386 201.755668 
L 389.189871 202.041337 
L 389.651356 202.583152 
L 390.574327 204.331687 
L 391.958784 207.481188 
L 392.420269 208.091343 
L 392.881754 208.170784 
L 393.34324 207.604866 
L 393.804725 206.402902 
L 394.727696 202.673783 
L 396.112152 196.547042 
L 397.035123 193.563724 
L 397.496609 192.586566 
L 397.958094 191.99102 
L 398.41958 191.793854 
L 398.881065 192.005675 
L 399.34255 192.632678 
L 399.804036 193.677432 
L 400.265521 195.138434 
L 401.188492 199.264326 
L 402.572948 207.642685 
L 403.495919 212.502375 
L 403.957405 213.641864 
L 404.41889 213.591557 
L 404.880376 212.485345 
L 405.803346 208.588366 
L 407.187803 202.738411 
L 408.110774 199.958739 
L 409.033744 198.049097 
L 409.956715 196.827359 
L 410.418201 196.441587 
L 410.879686 196.211634 
L 411.341172 196.158846 
L 411.802657 196.316693 
L 412.264142 196.727356 
L 412.725628 197.436894 
L 413.187113 198.489013 
L 413.648599 199.916492 
L 414.57157 203.883856 
L 415.956026 210.477767 
L 416.417511 211.396327 
L 416.878997 211.04103 
L 417.340482 209.517251 
L 419.647909 198.613916 
L 420.109395 197.3276 
L 420.57088 196.440731 
L 421.032366 195.929727 
L 421.493851 195.766589 
L 421.955336 195.924248 
L 422.416822 196.379198 
L 422.878307 197.112086 
L 423.801278 199.345471 
L 424.724249 202.459254 
L 427.031676 211.096304 
L 427.493162 212.254511 
L 427.954647 213.088348 
L 428.416132 213.62213 
L 428.877618 213.90489 
L 429.339103 213.983929 
L 429.800589 213.886958 
L 430.262074 213.619869 
L 430.72356 213.178668 
L 431.64653 211.81732 
L 433.030987 209.397597 
L 433.492472 208.813271 
L 433.953958 208.461514 
L 434.415443 208.387523 
L 434.876928 208.61265 
L 435.338414 209.131195 
L 436.261385 210.854779 
L 437.184356 212.710556 
L 437.645841 213.214769 
L 438.107326 213.161827 
L 438.568812 212.441791 
L 439.030297 211.086769 
L 439.953268 207.154439 
L 441.337724 201.046684 
L 442.260695 198.140666 
L 442.722181 197.164667 
L 443.183666 196.517757 
L 443.645152 196.193588 
L 444.106637 196.175682 
L 444.568122 196.437121 
L 445.029608 196.939603 
L 445.952579 198.454012 
L 447.337035 200.972317 
L 448.260006 202.094003 
L 448.721491 202.402885 
L 449.182977 202.550016 
L 449.644462 202.547588 
L 450.105948 202.402464 
L 450.567433 202.112839 
L 451.490404 201.078038 
L 452.413375 199.501624 
L 453.797831 196.94927 
L 454.259316 196.331096 
L 454.720802 195.941514 
L 455.182287 195.833517 
L 455.643773 196.049236 
L 456.105258 196.620806 
L 456.566744 197.571163 
L 457.028229 198.913753 
L 457.9512 202.762845 
L 460.258627 214.846044 
L 460.720112 215.673589 
L 461.181598 215.395207 
L 461.643083 214.197773 
L 463.95051 205.591577 
L 464.411996 204.510032 
L 464.873481 203.716478 
L 465.334967 203.184506 
L 465.796452 202.882106 
L 466.257938 202.779455 
L 466.719423 202.855424 
L 467.180908 203.10219 
L 467.642394 203.526729 
L 468.103879 204.14806 
L 468.565365 204.989523 
L 469.488336 207.362627 
L 470.872792 211.433346 
L 471.334277 212.004175 
L 471.795763 211.681352 
L 472.257248 210.397072 
L 473.180219 205.898522 
L 474.564675 198.830478 
L 475.487646 195.514644 
L 476.410617 193.326463 
L 477.333588 191.900242 
L 478.256559 190.895453 
L 479.17953 190.174485 
L 480.1025 189.818945 
L 480.563986 189.833333 
L 481.025471 190.0028 
L 481.486957 190.339538 
L 482.409928 191.517885 
L 483.332899 193.27419 
L 486.101811 199.315758 
L 488.870724 204.336122 
L 489.793695 206.712875 
L 491.639636 212.089799 
L 492.101122 212.975856 
L 492.562607 213.391319 
L 493.024093 213.247145 
L 493.485578 212.545971 
L 493.947063 211.380097 
L 494.870034 208.238556 
L 496.254491 203.34519 
L 497.177461 200.700958 
L 498.100432 198.730637 
L 499.023403 197.461835 
L 499.484889 197.089995 
L 499.946374 196.89004 
L 500.407859 196.858027 
L 500.869345 196.989642 
L 501.33083 197.281738 
L 501.792316 197.734316 
L 502.715287 199.146045 
L 503.638257 201.315195 
L 504.561228 204.258088 
L 505.484199 207.434019 
L 505.945685 208.598783 
L 506.40717 209.056876 
L 506.868655 208.560516 
L 507.330141 207.098613 
L 508.253112 202.348398 
L 509.637568 195.033903 
L 510.560539 191.575326 
L 511.48351 189.372215 
L 511.944995 188.685104 
L 512.406481 188.240961 
L 512.867966 188.020425 
L 513.329451 188.011662 
L 513.790937 188.211527 
L 514.252422 188.625659 
L 514.713908 189.267592 
L 515.175393 190.157078 
L 516.098364 192.773252 
L 517.021335 196.633217 
L 519.328762 208.578715 
L 519.790247 209.382247 
L 520.251733 209.018907 
L 520.713218 207.689811 
L 522.55916 200.156058 
L 523.482131 197.66607 
L 524.405102 196.060446 
L 526.712529 193.004641 
L 527.174014 192.533685 
L 527.6355 192.227969 
L 528.096985 192.149379 
L 528.558471 192.348206 
L 529.019956 192.858748 
L 529.481441 193.696937 
L 530.404412 196.318043 
L 531.327383 199.914112 
L 534.557781 213.986516 
L 535.480752 220.241031 
L 536.403723 229.564533 
L 536.865208 234.909535 
L 537.326694 238.842203 
L 537.788179 238.856886 
L 538.249665 234.88926 
L 539.172635 224.347115 
L 539.634121 220.176612 
L 540.095606 217.033837 
L 540.557092 214.871307 
L 541.018577 213.62084 
L 541.480063 213.22576 
L 541.941548 213.645778 
L 542.403033 214.851645 
L 542.864519 216.810852 
L 543.78749 222.619197 
L 544.710461 228.565866 
L 545.171946 240.053608 
L 545.171946 240.053608 
" clip-path="url(#pefbaa02e99)" style="fill: none; stroke: #1f77b4; stroke-linecap: square"/>
   </g>
   <g id="patch_3">
    <path d="M 48.982813 250.421875 
L 48.982813 22.32 
" style="fill: none; stroke: #000000; stroke-width: 0.8; stroke-linejoin: miter; stroke-linecap: square"/>
   </g>
   <g id="patch_4">
    <path d="M 568.8 250.421875 
L 568.8 22.32 
" style="fill: none; stroke: #000000; stroke-width: 0.8; stroke-linejoin: miter; stroke-linecap: square"/>
   </g>
   <g id="patch_5">
    <path d="M 48.982813 250.421875 
L 568.8 250.421875 
" style="fill: none; stroke: #000000; stroke-width: 0.8; stroke-linejoin: miter; stroke-linecap: square"/>
   </g>
   <g id="patch_6">
    <path d="M 48.982813 22.32 
L 568.8 22.32 
" style="fill: none; stroke: #000000; stroke-width: 0.8; stroke-linejoin: miter; stroke-linecap: square"/>
   </g>
   <g id="text_16">
    <!-- Periodogram of $x_r[n]$ -->
    <g transform="translate(246.971406 16.32) scale(0.12 -0.12)">
     <defs>
      <path id="DejaVuSans-67" d="M 2906 1791 
Q 2906 2416 2648 2759 
Q 2391 3103 1925 3103 
Q 1463 3103 1205 2759 
Q 947 2416 947 1791 
Q 947 1169 1205 825 
Q 1463 481 1925 481 
Q 2391 481 2648 825 
Q 2906 1169 2906 1791 
z
M 3481 434 
Q 3481 -459 3084 -895 
Q 2688 -1331 1869 -1331 
Q 1566 -1331 1297 -1286 
Q 1028 -1241 775 -1147 
L 775 -588 
Q 1028 -725 1275 -790 
Q 1522 -856 1778 -856 
Q 2344 -856 2625 -561 
Q 2906 -266 2906 331 
L 2906 616 
Q 2728 306 2450 153 
Q 2172 0 1784 0 
Q 1141 0 747 490 
Q 353 981 353 1791 
Q 353 2603 747 3093 
Q 1141 3584 1784 3584 
Q 2172 3584 2450 3431 
Q 2728 3278 2906 2969 
L 2906 3500 
L 3481 3500 
L 3481 434 
z
" transform="scale(0.015625)"/>
      <path id="DejaVuSans-61" d="M 2194 1759 
Q 1497 1759 1228 1600 
Q 959 1441 959 1056 
Q 959 750 1161 570 
Q 1363 391 1709 391 
Q 2188 391 2477 730 
Q 2766 1069 2766 1631 
L 2766 1759 
L 2194 1759 
z
M 3341 1997 
L 3341 0 
L 2766 0 
L 2766 531 
Q 2569 213 2275 61 
Q 1981 -91 1556 -91 
Q 1019 -91 701 211 
Q 384 513 384 1019 
Q 384 1609 779 1909 
Q 1175 2209 1959 2209 
L 2766 2209 
L 2766 2266 
Q 2766 2663 2505 2880 
Q 2244 3097 1772 3097 
Q 1472 3097 1187 3025 
Q 903 2953 641 2809 
L 641 3341 
Q 956 3463 1253 3523 
Q 1550 3584 1831 3584 
Q 2591 3584 2966 3190 
Q 3341 2797 3341 1997 
z
" transform="scale(0.015625)"/>
      <path id="DejaVuSans-6d" d="M 3328 2828 
Q 3544 3216 3844 3400 
Q 4144 3584 4550 3584 
Q 5097 3584 5394 3201 
Q 5691 2819 5691 2113 
L 5691 0 
L 5113 0 
L 5113 2094 
Q 5113 2597 4934 2840 
Q 4756 3084 4391 3084 
Q 3944 3084 3684 2787 
Q 3425 2491 3425 1978 
L 3425 0 
L 2847 0 
L 2847 2094 
Q 2847 2600 2669 2842 
Q 2491 3084 2119 3084 
Q 1678 3084 1418 2786 
Q 1159 2488 1159 1978 
L 1159 0 
L 581 0 
L 581 3500 
L 1159 3500 
L 1159 2956 
Q 1356 3278 1631 3431 
Q 1906 3584 2284 3584 
Q 2666 3584 2933 3390 
Q 3200 3197 3328 2828 
z
" transform="scale(0.015625)"/>
      <path id="DejaVuSans-66" d="M 2375 4863 
L 2375 4384 
L 1825 4384 
Q 1516 4384 1395 4259 
Q 1275 4134 1275 3809 
L 1275 3500 
L 2222 3500 
L 2222 3053 
L 1275 3053 
L 1275 0 
L 697 0 
L 697 3053 
L 147 3053 
L 147 3500 
L 697 3500 
L 697 3744 
Q 697 4328 969 4595 
Q 1241 4863 1831 4863 
L 2375 4863 
z
" transform="scale(0.015625)"/>
      <path id="DejaVuSans-Oblique-78" d="M 3841 3500 
L 2234 1784 
L 3219 0 
L 2559 0 
L 1819 1388 
L 531 0 
L -166 0 
L 1556 1844 
L 641 3500 
L 1300 3500 
L 1972 2234 
L 3144 3500 
L 3841 3500 
z
" transform="scale(0.015625)"/>
      <path id="DejaVuSans-Oblique-72" d="M 2853 2969 
Q 2766 3016 2653 3041 
Q 2541 3066 2413 3066 
Q 1953 3066 1609 2717 
Q 1266 2369 1153 1784 
L 800 0 
L 225 0 
L 909 3500 
L 1484 3500 
L 1375 2956 
Q 1603 3259 1920 3421 
Q 2238 3584 2597 3584 
Q 2691 3584 2781 3573 
Q 2872 3563 2963 3538 
L 2853 2969 
z
" transform="scale(0.015625)"/>
      <path id="DejaVuSans-5b" d="M 550 4863 
L 1875 4863 
L 1875 4416 
L 1125 4416 
L 1125 -397 
L 1875 -397 
L 1875 -844 
L 550 -844 
L 550 4863 
z
" transform="scale(0.015625)"/>
      <path id="DejaVuSans-Oblique-6e" d="M 3566 2113 
L 3156 0 
L 2578 0 
L 2988 2091 
Q 3016 2238 3031 2350 
Q 3047 2463 3047 2528 
Q 3047 2791 2881 2937 
Q 2716 3084 2419 3084 
Q 1956 3084 1622 2776 
Q 1288 2469 1184 1941 
L 800 0 
L 225 0 
L 903 3500 
L 1478 3500 
L 1363 2950 
Q 1603 3253 1940 3418 
Q 2278 3584 2650 3584 
Q 3113 3584 3367 3334 
Q 3622 3084 3622 2631 
Q 3622 2519 3608 2391 
Q 3594 2263 3566 2113 
z
" transform="scale(0.015625)"/>
      <path id="DejaVuSans-5d" d="M 1947 4863 
L 1947 -844 
L 622 -844 
L 622 -397 
L 1369 -397 
L 1369 4416 
L 622 4416 
L 622 4863 
L 1947 4863 
z
" transform="scale(0.015625)"/>
     </defs>
     <use xlink:href="#DejaVuSans-50" transform="translate(0 0.015625)"/>
     <use xlink:href="#DejaVuSans-65" transform="translate(60.302734 0.015625)"/>
     <use xlink:href="#DejaVuSans-72" transform="translate(121.826172 0.015625)"/>
     <use xlink:href="#DejaVuSans-69" transform="translate(162.939453 0.015625)"/>
     <use xlink:href="#DejaVuSans-6f" transform="translate(190.722656 0.015625)"/>
     <use xlink:href="#DejaVuSans-64" transform="translate(251.904297 0.015625)"/>
     <use xlink:href="#DejaVuSans-6f" transform="translate(315.380859 0.015625)"/>
     <use xlink:href="#DejaVuSans-67" transform="translate(376.5625 0.015625)"/>
     <use xlink:href="#DejaVuSans-72" transform="translate(440.039062 0.015625)"/>
     <use xlink:href="#DejaVuSans-61" transform="translate(481.152344 0.015625)"/>
     <use xlink:href="#DejaVuSans-6d" transform="translate(542.431641 0.015625)"/>
     <use xlink:href="#DejaVuSans-20" transform="translate(639.84375 0.015625)"/>
     <use xlink:href="#DejaVuSans-6f" transform="translate(671.630859 0.015625)"/>
     <use xlink:href="#DejaVuSans-66" transform="translate(732.8125 0.015625)"/>
     <use xlink:href="#DejaVuSans-20" transform="translate(768.017578 0.015625)"/>
     <use xlink:href="#DejaVuSans-Oblique-78" transform="translate(799.804688 0.015625)"/>
     <use xlink:href="#DejaVuSans-Oblique-72" transform="translate(858.984375 -16.390625) scale(0.7)"/>
     <use xlink:href="#DejaVuSans-5b" transform="translate(890.498047 0.015625)"/>
     <use xlink:href="#DejaVuSans-Oblique-6e" transform="translate(929.511719 0.015625)"/>
     <use xlink:href="#DejaVuSans-5d" transform="translate(992.890625 0.015625)"/>
    </g>
   </g>
  </g>
 </g>
 <defs>
  <clipPath id="pefbaa02e99">
   <rect x="48.982813" y="22.32" width="519.817188" height="228.101875"/>
  </clipPath>
 </defs>
</svg>
