<?xml version="1.0" encoding="utf-8" standalone="no"?>
<!DOCTYPE svg PUBLIC "-//W3C//DTD SVG 1.1//EN"
  "http://www.w3.org/Graphics/SVG/1.1/DTD/svg11.dtd">
<svg xmlns:xlink="http://www.w3.org/1999/xlink" width="576pt" height="288pt" viewBox="0 0 576 288" xmlns="http://www.w3.org/2000/svg" version="1.1">
 <metadata>
  <rdf:RDF xmlns:dc="http://purl.org/dc/elements/1.1/" xmlns:cc="http://creativecommons.org/ns#" xmlns:rdf="http://www.w3.org/1999/02/22-rdf-syntax-ns#">
   <cc:Work>
    <dc:type rdf:resource="http://purl.org/dc/dcmitype/StillImage"/>
    <dc:date>2025-05-10T16:17:52.427038</dc:date>
    <dc:format>image/svg+xml</dc:format>
    <dc:creator>
     <cc:Agent>
      <dc:title>Matplotlib v3.10.3, https://matplotlib.org/</dc:title>
     </cc:Agent>
    </dc:creator>
   </cc:Work>
  </rdf:RDF>
 </metadata>
 <defs>
  <style type="text/css">*{stroke-linejoin: round; stroke-linecap: butt}</style>
 </defs>
 <g id="figure_1">
  <g id="patch_1">
   <path d="M 0 288 
L 576 288 
L 576 0 
L 0 0 
z
" style="fill: #ffffff"/>
  </g>
  <g id="axes_1">
   <g id="patch_2">
    <path d="M 55.345313 250.421875 
L 559.25625 250.421875 
L 559.25625 22.32 
L 55.345313 22.32 
z
" style="fill: #ffffff"/>
   </g>
   <g id="matplotlib.axis_1">
    <g id="xtick_1">
     <g id="line2d_1">
      <path d="M 55.345312 250.421875 
L 55.345312 22.32 
" clip-path="url(#p1cdaf360c7)" style="fill: none; stroke-dasharray: 2.96,1.28; stroke-dashoffset: 0; stroke: #b0b0b0; stroke-opacity: 0.8; stroke-width: 0.8"/>
     </g>
     <g id="line2d_2">
      <defs>
       <path id="mf8966ce025" d="M 0 0 
L 0 3.5 
" style="stroke: #000000; stroke-width: 0.8"/>
      </defs>
      <g>
       <use xlink:href="#mf8966ce025" x="55.345312" y="250.421875" style="stroke: #000000; stroke-width: 0.8"/>
      </g>
     </g>
     <g id="text_1">
      <!-- -200 -->
      <g transform="translate(43.997656 265.020312) scale(0.1 -0.1)">
       <defs>
        <path id="DejaVuSans-2d" d="M 313 2009 
L 1997 2009 
L 1997 1497 
L 313 1497 
L 313 2009 
z
" transform="scale(0.015625)"/>
        <path id="DejaVuSans-32" d="M 1228 531 
L 3431 531 
L 3431 0 
L 469 0 
L 469 531 
Q 828 903 1448 1529 
Q 2069 2156 2228 2338 
Q 2531 2678 2651 2914 
Q 2772 3150 2772 3378 
Q 2772 3750 2511 3984 
Q 2250 4219 1831 4219 
Q 1534 4219 1204 4116 
Q 875 4013 500 3803 
L 500 4441 
Q 881 4594 1212 4672 
Q 1544 4750 1819 4750 
Q 2544 4750 2975 4387 
Q 3406 4025 3406 3419 
Q 3406 3131 3298 2873 
Q 3191 2616 2906 2266 
Q 2828 2175 2409 1742 
Q 1991 1309 1228 531 
z
" transform="scale(0.015625)"/>
        <path id="DejaVuSans-30" d="M 2034 4250 
Q 1547 4250 1301 3770 
Q 1056 3291 1056 2328 
Q 1056 1369 1301 889 
Q 1547 409 2034 409 
Q 2525 409 2770 889 
Q 3016 1369 3016 2328 
Q 3016 3291 2770 3770 
Q 2525 4250 2034 4250 
z
M 2034 4750 
Q 2819 4750 3233 4129 
Q 3647 3509 3647 2328 
Q 3647 1150 3233 529 
Q 2819 -91 2034 -91 
Q 1250 -91 836 529 
Q 422 1150 422 2328 
Q 422 3509 836 4129 
Q 1250 4750 2034 4750 
z
" transform="scale(0.015625)"/>
       </defs>
       <use xlink:href="#DejaVuSans-2d"/>
       <use xlink:href="#DejaVuSans-32" transform="translate(36.083984 0)"/>
       <use xlink:href="#DejaVuSans-30" transform="translate(99.707031 0)"/>
       <use xlink:href="#DejaVuSans-30" transform="translate(163.330078 0)"/>
      </g>
     </g>
    </g>
    <g id="xtick_2">
     <g id="line2d_3">
      <path d="M 118.33418 250.421875 
L 118.33418 22.32 
" clip-path="url(#p1cdaf360c7)" style="fill: none; stroke-dasharray: 2.96,1.28; stroke-dashoffset: 0; stroke: #b0b0b0; stroke-opacity: 0.8; stroke-width: 0.8"/>
     </g>
     <g id="line2d_4">
      <g>
       <use xlink:href="#mf8966ce025" x="118.33418" y="250.421875" style="stroke: #000000; stroke-width: 0.8"/>
      </g>
     </g>
     <g id="text_2">
      <!-- -150 -->
      <g transform="translate(106.986523 265.020312) scale(0.1 -0.1)">
       <defs>
        <path id="DejaVuSans-31" d="M 794 531 
L 1825 531 
L 1825 4091 
L 703 3866 
L 703 4441 
L 1819 4666 
L 2450 4666 
L 2450 531 
L 3481 531 
L 3481 0 
L 794 0 
L 794 531 
z
" transform="scale(0.015625)"/>
        <path id="DejaVuSans-35" d="M 691 4666 
L 3169 4666 
L 3169 4134 
L 1269 4134 
L 1269 2991 
Q 1406 3038 1543 3061 
Q 1681 3084 1819 3084 
Q 2600 3084 3056 2656 
Q 3513 2228 3513 1497 
Q 3513 744 3044 326 
Q 2575 -91 1722 -91 
Q 1428 -91 1123 -41 
Q 819 9 494 109 
L 494 744 
Q 775 591 1075 516 
Q 1375 441 1709 441 
Q 2250 441 2565 725 
Q 2881 1009 2881 1497 
Q 2881 1984 2565 2268 
Q 2250 2553 1709 2553 
Q 1456 2553 1204 2497 
Q 953 2441 691 2322 
L 691 4666 
z
" transform="scale(0.015625)"/>
       </defs>
       <use xlink:href="#DejaVuSans-2d"/>
       <use xlink:href="#DejaVuSans-31" transform="translate(36.083984 0)"/>
       <use xlink:href="#DejaVuSans-35" transform="translate(99.707031 0)"/>
       <use xlink:href="#DejaVuSans-30" transform="translate(163.330078 0)"/>
      </g>
     </g>
    </g>
    <g id="xtick_3">
     <g id="line2d_5">
      <path d="M 181.323047 250.421875 
L 181.323047 22.32 
" clip-path="url(#p1cdaf360c7)" style="fill: none; stroke-dasharray: 2.96,1.28; stroke-dashoffset: 0; stroke: #b0b0b0; stroke-opacity: 0.8; stroke-width: 0.8"/>
     </g>
     <g id="line2d_6">
      <g>
       <use xlink:href="#mf8966ce025" x="181.323047" y="250.421875" style="stroke: #000000; stroke-width: 0.8"/>
      </g>
     </g>
     <g id="text_3">
      <!-- -100 -->
      <g transform="translate(169.975391 265.020312) scale(0.1 -0.1)">
       <use xlink:href="#DejaVuSans-2d"/>
       <use xlink:href="#DejaVuSans-31" transform="translate(36.083984 0)"/>
       <use xlink:href="#DejaVuSans-30" transform="translate(99.707031 0)"/>
       <use xlink:href="#DejaVuSans-30" transform="translate(163.330078 0)"/>
      </g>
     </g>
    </g>
    <g id="xtick_4">
     <g id="line2d_7">
      <path d="M 244.311914 250.421875 
L 244.311914 22.32 
" clip-path="url(#p1cdaf360c7)" style="fill: none; stroke-dasharray: 2.96,1.28; stroke-dashoffset: 0; stroke: #b0b0b0; stroke-opacity: 0.8; stroke-width: 0.8"/>
     </g>
     <g id="line2d_8">
      <g>
       <use xlink:href="#mf8966ce025" x="244.311914" y="250.421875" style="stroke: #000000; stroke-width: 0.8"/>
      </g>
     </g>
     <g id="text_4">
      <!-- -50 -->
      <g transform="translate(236.145508 265.020312) scale(0.1 -0.1)">
       <use xlink:href="#DejaVuSans-2d"/>
       <use xlink:href="#DejaVuSans-35" transform="translate(36.083984 0)"/>
       <use xlink:href="#DejaVuSans-30" transform="translate(99.707031 0)"/>
      </g>
     </g>
    </g>
    <g id="xtick_5">
     <g id="line2d_9">
      <path d="M 307.300781 250.421875 
L 307.300781 22.32 
" clip-path="url(#p1cdaf360c7)" style="fill: none; stroke-dasharray: 2.96,1.28; stroke-dashoffset: 0; stroke: #b0b0b0; stroke-opacity: 0.8; stroke-width: 0.8"/>
     </g>
     <g id="line2d_10">
      <g>
       <use xlink:href="#mf8966ce025" x="307.300781" y="250.421875" style="stroke: #000000; stroke-width: 0.8"/>
      </g>
     </g>
     <g id="text_5">
      <!-- 0 -->
      <g transform="translate(304.119531 265.020312) scale(0.1 -0.1)">
       <use xlink:href="#DejaVuSans-30"/>
      </g>
     </g>
    </g>
    <g id="xtick_6">
     <g id="line2d_11">
      <path d="M 370.289648 250.421875 
L 370.289648 22.32 
" clip-path="url(#p1cdaf360c7)" style="fill: none; stroke-dasharray: 2.96,1.28; stroke-dashoffset: 0; stroke: #b0b0b0; stroke-opacity: 0.8; stroke-width: 0.8"/>
     </g>
     <g id="line2d_12">
      <g>
       <use xlink:href="#mf8966ce025" x="370.289648" y="250.421875" style="stroke: #000000; stroke-width: 0.8"/>
      </g>
     </g>
     <g id="text_6">
      <!-- 50 -->
      <g transform="translate(363.927148 265.020312) scale(0.1 -0.1)">
       <use xlink:href="#DejaVuSans-35"/>
       <use xlink:href="#DejaVuSans-30" transform="translate(63.623047 0)"/>
      </g>
     </g>
    </g>
    <g id="xtick_7">
     <g id="line2d_13">
      <path d="M 433.278516 250.421875 
L 433.278516 22.32 
" clip-path="url(#p1cdaf360c7)" style="fill: none; stroke-dasharray: 2.96,1.28; stroke-dashoffset: 0; stroke: #b0b0b0; stroke-opacity: 0.8; stroke-width: 0.8"/>
     </g>
     <g id="line2d_14">
      <g>
       <use xlink:href="#mf8966ce025" x="433.278516" y="250.421875" style="stroke: #000000; stroke-width: 0.8"/>
      </g>
     </g>
     <g id="text_7">
      <!-- 100 -->
      <g transform="translate(423.734766 265.020312) scale(0.1 -0.1)">
       <use xlink:href="#DejaVuSans-31"/>
       <use xlink:href="#DejaVuSans-30" transform="translate(63.623047 0)"/>
       <use xlink:href="#DejaVuSans-30" transform="translate(127.246094 0)"/>
      </g>
     </g>
    </g>
    <g id="xtick_8">
     <g id="line2d_15">
      <path d="M 496.267383 250.421875 
L 496.267383 22.32 
" clip-path="url(#p1cdaf360c7)" style="fill: none; stroke-dasharray: 2.96,1.28; stroke-dashoffset: 0; stroke: #b0b0b0; stroke-opacity: 0.8; stroke-width: 0.8"/>
     </g>
     <g id="line2d_16">
      <g>
       <use xlink:href="#mf8966ce025" x="496.267383" y="250.421875" style="stroke: #000000; stroke-width: 0.8"/>
      </g>
     </g>
     <g id="text_8">
      <!-- 150 -->
      <g transform="translate(486.723633 265.020312) scale(0.1 -0.1)">
       <use xlink:href="#DejaVuSans-31"/>
       <use xlink:href="#DejaVuSans-35" transform="translate(63.623047 0)"/>
       <use xlink:href="#DejaVuSans-30" transform="translate(127.246094 0)"/>
      </g>
     </g>
    </g>
    <g id="xtick_9">
     <g id="line2d_17">
      <path d="M 559.25625 250.421875 
L 559.25625 22.32 
" clip-path="url(#p1cdaf360c7)" style="fill: none; stroke-dasharray: 2.96,1.28; stroke-dashoffset: 0; stroke: #b0b0b0; stroke-opacity: 0.8; stroke-width: 0.8"/>
     </g>
     <g id="line2d_18">
      <g>
       <use xlink:href="#mf8966ce025" x="559.25625" y="250.421875" style="stroke: #000000; stroke-width: 0.8"/>
      </g>
     </g>
     <g id="text_9">
      <!-- 200 -->
      <g transform="translate(549.7125 265.020312) scale(0.1 -0.1)">
       <use xlink:href="#DejaVuSans-32"/>
       <use xlink:href="#DejaVuSans-30" transform="translate(63.623047 0)"/>
       <use xlink:href="#DejaVuSans-30" transform="translate(127.246094 0)"/>
      </g>
     </g>
    </g>
    <g id="text_10">
     <!-- Frequency (Hz), $f$ -->
     <g transform="translate(264.150781 278.7) scale(0.1 -0.1)">
      <defs>
       <path id="DejaVuSans-46" d="M 628 4666 
L 3309 4666 
L 3309 4134 
L 1259 4134 
L 1259 2759 
L 3109 2759 
L 3109 2228 
L 1259 2228 
L 1259 0 
L 628 0 
L 628 4666 
z
" transform="scale(0.015625)"/>
       <path id="DejaVuSans-72" d="M 2631 2963 
Q 2534 3019 2420 3045 
Q 2306 3072 2169 3072 
Q 1681 3072 1420 2755 
Q 1159 2438 1159 1844 
L 1159 0 
L 581 0 
L 581 3500 
L 1159 3500 
L 1159 2956 
Q 1341 3275 1631 3429 
Q 1922 3584 2338 3584 
Q 2397 3584 2469 3576 
Q 2541 3569 2628 3553 
L 2631 2963 
z
" transform="scale(0.015625)"/>
       <path id="DejaVuSans-65" d="M 3597 1894 
L 3597 1613 
L 953 1613 
Q 991 1019 1311 708 
Q 1631 397 2203 397 
Q 2534 397 2845 478 
Q 3156 559 3463 722 
L 3463 178 
Q 3153 47 2828 -22 
Q 2503 -91 2169 -91 
Q 1331 -91 842 396 
Q 353 884 353 1716 
Q 353 2575 817 3079 
Q 1281 3584 2069 3584 
Q 2775 3584 3186 3129 
Q 3597 2675 3597 1894 
z
M 3022 2063 
Q 3016 2534 2758 2815 
Q 2500 3097 2075 3097 
Q 1594 3097 1305 2825 
Q 1016 2553 972 2059 
L 3022 2063 
z
" transform="scale(0.015625)"/>
       <path id="DejaVuSans-71" d="M 947 1747 
Q 947 1113 1208 752 
Q 1469 391 1925 391 
Q 2381 391 2643 752 
Q 2906 1113 2906 1747 
Q 2906 2381 2643 2742 
Q 2381 3103 1925 3103 
Q 1469 3103 1208 2742 
Q 947 2381 947 1747 
z
M 2906 525 
Q 2725 213 2448 61 
Q 2172 -91 1784 -91 
Q 1150 -91 751 415 
Q 353 922 353 1747 
Q 353 2572 751 3078 
Q 1150 3584 1784 3584 
Q 2172 3584 2448 3432 
Q 2725 3281 2906 2969 
L 2906 3500 
L 3481 3500 
L 3481 -1331 
L 2906 -1331 
L 2906 525 
z
" transform="scale(0.015625)"/>
       <path id="DejaVuSans-75" d="M 544 1381 
L 544 3500 
L 1119 3500 
L 1119 1403 
Q 1119 906 1312 657 
Q 1506 409 1894 409 
Q 2359 409 2629 706 
Q 2900 1003 2900 1516 
L 2900 3500 
L 3475 3500 
L 3475 0 
L 2900 0 
L 2900 538 
Q 2691 219 2414 64 
Q 2138 -91 1772 -91 
Q 1169 -91 856 284 
Q 544 659 544 1381 
z
M 1991 3584 
L 1991 3584 
z
" transform="scale(0.015625)"/>
       <path id="DejaVuSans-6e" d="M 3513 2113 
L 3513 0 
L 2938 0 
L 2938 2094 
Q 2938 2591 2744 2837 
Q 2550 3084 2163 3084 
Q 1697 3084 1428 2787 
Q 1159 2491 1159 1978 
L 1159 0 
L 581 0 
L 581 3500 
L 1159 3500 
L 1159 2956 
Q 1366 3272 1645 3428 
Q 1925 3584 2291 3584 
Q 2894 3584 3203 3211 
Q 3513 2838 3513 2113 
z
" transform="scale(0.015625)"/>
       <path id="DejaVuSans-63" d="M 3122 3366 
L 3122 2828 
Q 2878 2963 2633 3030 
Q 2388 3097 2138 3097 
Q 1578 3097 1268 2742 
Q 959 2388 959 1747 
Q 959 1106 1268 751 
Q 1578 397 2138 397 
Q 2388 397 2633 464 
Q 2878 531 3122 666 
L 3122 134 
Q 2881 22 2623 -34 
Q 2366 -91 2075 -91 
Q 1284 -91 818 406 
Q 353 903 353 1747 
Q 353 2603 823 3093 
Q 1294 3584 2113 3584 
Q 2378 3584 2631 3529 
Q 2884 3475 3122 3366 
z
" transform="scale(0.015625)"/>
       <path id="DejaVuSans-79" d="M 2059 -325 
Q 1816 -950 1584 -1140 
Q 1353 -1331 966 -1331 
L 506 -1331 
L 506 -850 
L 844 -850 
Q 1081 -850 1212 -737 
Q 1344 -625 1503 -206 
L 1606 56 
L 191 3500 
L 800 3500 
L 1894 763 
L 2988 3500 
L 3597 3500 
L 2059 -325 
z
" transform="scale(0.015625)"/>
       <path id="DejaVuSans-20" transform="scale(0.015625)"/>
       <path id="DejaVuSans-28" d="M 1984 4856 
Q 1566 4138 1362 3434 
Q 1159 2731 1159 2009 
Q 1159 1288 1364 580 
Q 1569 -128 1984 -844 
L 1484 -844 
Q 1016 -109 783 600 
Q 550 1309 550 2009 
Q 550 2706 781 3412 
Q 1013 4119 1484 4856 
L 1984 4856 
z
" transform="scale(0.015625)"/>
       <path id="DejaVuSans-48" d="M 628 4666 
L 1259 4666 
L 1259 2753 
L 3553 2753 
L 3553 4666 
L 4184 4666 
L 4184 0 
L 3553 0 
L 3553 2222 
L 1259 2222 
L 1259 0 
L 628 0 
L 628 4666 
z
" transform="scale(0.015625)"/>
       <path id="DejaVuSans-7a" d="M 353 3500 
L 3084 3500 
L 3084 2975 
L 922 459 
L 3084 459 
L 3084 0 
L 275 0 
L 275 525 
L 2438 3041 
L 353 3041 
L 353 3500 
z
" transform="scale(0.015625)"/>
       <path id="DejaVuSans-29" d="M 513 4856 
L 1013 4856 
Q 1481 4119 1714 3412 
Q 1947 2706 1947 2009 
Q 1947 1309 1714 600 
Q 1481 -109 1013 -844 
L 513 -844 
Q 928 -128 1133 580 
Q 1338 1288 1338 2009 
Q 1338 2731 1133 3434 
Q 928 4138 513 4856 
z
" transform="scale(0.015625)"/>
       <path id="DejaVuSans-2c" d="M 750 794 
L 1409 794 
L 1409 256 
L 897 -744 
L 494 -744 
L 750 256 
L 750 794 
z
" transform="scale(0.015625)"/>
       <path id="DejaVuSans-Oblique-66" d="M 3059 4863 
L 2969 4384 
L 2419 4384 
Q 2106 4384 1964 4261 
Q 1822 4138 1753 3809 
L 1691 3500 
L 2638 3500 
L 2553 3053 
L 1606 3053 
L 1013 0 
L 434 0 
L 1031 3053 
L 481 3053 
L 563 3500 
L 1113 3500 
L 1159 3744 
Q 1278 4363 1576 4613 
Q 1875 4863 2516 4863 
L 3059 4863 
z
" transform="scale(0.015625)"/>
      </defs>
      <use xlink:href="#DejaVuSans-46" transform="translate(0 0.015625)"/>
      <use xlink:href="#DejaVuSans-72" transform="translate(57.519531 0.015625)"/>
      <use xlink:href="#DejaVuSans-65" transform="translate(98.632812 0.015625)"/>
      <use xlink:href="#DejaVuSans-71" transform="translate(160.15625 0.015625)"/>
      <use xlink:href="#DejaVuSans-75" transform="translate(223.632812 0.015625)"/>
      <use xlink:href="#DejaVuSans-65" transform="translate(287.011719 0.015625)"/>
      <use xlink:href="#DejaVuSans-6e" transform="translate(348.535156 0.015625)"/>
      <use xlink:href="#DejaVuSans-63" transform="translate(411.914062 0.015625)"/>
      <use xlink:href="#DejaVuSans-79" transform="translate(466.894531 0.015625)"/>
      <use xlink:href="#DejaVuSans-20" transform="translate(526.074219 0.015625)"/>
      <use xlink:href="#DejaVuSans-28" transform="translate(557.861328 0.015625)"/>
      <use xlink:href="#DejaVuSans-48" transform="translate(596.875 0.015625)"/>
      <use xlink:href="#DejaVuSans-7a" transform="translate(672.070312 0.015625)"/>
      <use xlink:href="#DejaVuSans-29" transform="translate(724.560547 0.015625)"/>
      <use xlink:href="#DejaVuSans-2c" transform="translate(763.574219 0.015625)"/>
      <use xlink:href="#DejaVuSans-20" transform="translate(795.361328 0.015625)"/>
      <use xlink:href="#DejaVuSans-Oblique-66" transform="translate(827.148438 0.015625)"/>
     </g>
    </g>
   </g>
   <g id="matplotlib.axis_2">
    <g id="ytick_1">
     <g id="line2d_19">
      <path d="M 55.345313 250.421875 
L 559.25625 250.421875 
" clip-path="url(#p1cdaf360c7)" style="fill: none; stroke-dasharray: 2.96,1.28; stroke-dashoffset: 0; stroke: #b0b0b0; stroke-opacity: 0.8; stroke-width: 0.8"/>
     </g>
     <g id="line2d_20">
      <defs>
       <path id="m14ff65dd75" d="M 0 0 
L -3.5 0 
" style="stroke: #000000; stroke-width: 0.8"/>
      </defs>
      <g>
       <use xlink:href="#m14ff65dd75" x="55.345313" y="250.421875" style="stroke: #000000; stroke-width: 0.8"/>
      </g>
     </g>
     <g id="text_11">
      <!-- −100 -->
      <g transform="translate(20.878125 254.221094) scale(0.1 -0.1)">
       <defs>
        <path id="DejaVuSans-2212" d="M 678 2272 
L 4684 2272 
L 4684 1741 
L 678 1741 
L 678 2272 
z
" transform="scale(0.015625)"/>
       </defs>
       <use xlink:href="#DejaVuSans-2212"/>
       <use xlink:href="#DejaVuSans-31" transform="translate(83.789062 0)"/>
       <use xlink:href="#DejaVuSans-30" transform="translate(147.412109 0)"/>
       <use xlink:href="#DejaVuSans-30" transform="translate(211.035156 0)"/>
      </g>
     </g>
    </g>
    <g id="ytick_2">
     <g id="line2d_21">
      <path d="M 55.345313 204.8015 
L 559.25625 204.8015 
" clip-path="url(#p1cdaf360c7)" style="fill: none; stroke-dasharray: 2.96,1.28; stroke-dashoffset: 0; stroke: #b0b0b0; stroke-opacity: 0.8; stroke-width: 0.8"/>
     </g>
     <g id="line2d_22">
      <g>
       <use xlink:href="#m14ff65dd75" x="55.345313" y="204.8015" style="stroke: #000000; stroke-width: 0.8"/>
      </g>
     </g>
     <g id="text_12">
      <!-- −80 -->
      <g transform="translate(27.240625 208.600719) scale(0.1 -0.1)">
       <defs>
        <path id="DejaVuSans-38" d="M 2034 2216 
Q 1584 2216 1326 1975 
Q 1069 1734 1069 1313 
Q 1069 891 1326 650 
Q 1584 409 2034 409 
Q 2484 409 2743 651 
Q 3003 894 3003 1313 
Q 3003 1734 2745 1975 
Q 2488 2216 2034 2216 
z
M 1403 2484 
Q 997 2584 770 2862 
Q 544 3141 544 3541 
Q 544 4100 942 4425 
Q 1341 4750 2034 4750 
Q 2731 4750 3128 4425 
Q 3525 4100 3525 3541 
Q 3525 3141 3298 2862 
Q 3072 2584 2669 2484 
Q 3125 2378 3379 2068 
Q 3634 1759 3634 1313 
Q 3634 634 3220 271 
Q 2806 -91 2034 -91 
Q 1263 -91 848 271 
Q 434 634 434 1313 
Q 434 1759 690 2068 
Q 947 2378 1403 2484 
z
M 1172 3481 
Q 1172 3119 1398 2916 
Q 1625 2713 2034 2713 
Q 2441 2713 2670 2916 
Q 2900 3119 2900 3481 
Q 2900 3844 2670 4047 
Q 2441 4250 2034 4250 
Q 1625 4250 1398 4047 
Q 1172 3844 1172 3481 
z
" transform="scale(0.015625)"/>
       </defs>
       <use xlink:href="#DejaVuSans-2212"/>
       <use xlink:href="#DejaVuSans-38" transform="translate(83.789062 0)"/>
       <use xlink:href="#DejaVuSans-30" transform="translate(147.412109 0)"/>
      </g>
     </g>
    </g>
    <g id="ytick_3">
     <g id="line2d_23">
      <path d="M 55.345313 159.181125 
L 559.25625 159.181125 
" clip-path="url(#p1cdaf360c7)" style="fill: none; stroke-dasharray: 2.96,1.28; stroke-dashoffset: 0; stroke: #b0b0b0; stroke-opacity: 0.8; stroke-width: 0.8"/>
     </g>
     <g id="line2d_24">
      <g>
       <use xlink:href="#m14ff65dd75" x="55.345313" y="159.181125" style="stroke: #000000; stroke-width: 0.8"/>
      </g>
     </g>
     <g id="text_13">
      <!-- −60 -->
      <g transform="translate(27.240625 162.980344) scale(0.1 -0.1)">
       <defs>
        <path id="DejaVuSans-36" d="M 2113 2584 
Q 1688 2584 1439 2293 
Q 1191 2003 1191 1497 
Q 1191 994 1439 701 
Q 1688 409 2113 409 
Q 2538 409 2786 701 
Q 3034 994 3034 1497 
Q 3034 2003 2786 2293 
Q 2538 2584 2113 2584 
z
M 3366 4563 
L 3366 3988 
Q 3128 4100 2886 4159 
Q 2644 4219 2406 4219 
Q 1781 4219 1451 3797 
Q 1122 3375 1075 2522 
Q 1259 2794 1537 2939 
Q 1816 3084 2150 3084 
Q 2853 3084 3261 2657 
Q 3669 2231 3669 1497 
Q 3669 778 3244 343 
Q 2819 -91 2113 -91 
Q 1303 -91 875 529 
Q 447 1150 447 2328 
Q 447 3434 972 4092 
Q 1497 4750 2381 4750 
Q 2619 4750 2861 4703 
Q 3103 4656 3366 4563 
z
" transform="scale(0.015625)"/>
       </defs>
       <use xlink:href="#DejaVuSans-2212"/>
       <use xlink:href="#DejaVuSans-36" transform="translate(83.789062 0)"/>
       <use xlink:href="#DejaVuSans-30" transform="translate(147.412109 0)"/>
      </g>
     </g>
    </g>
    <g id="ytick_4">
     <g id="line2d_25">
      <path d="M 55.345313 113.56075 
L 559.25625 113.56075 
" clip-path="url(#p1cdaf360c7)" style="fill: none; stroke-dasharray: 2.96,1.28; stroke-dashoffset: 0; stroke: #b0b0b0; stroke-opacity: 0.8; stroke-width: 0.8"/>
     </g>
     <g id="line2d_26">
      <g>
       <use xlink:href="#m14ff65dd75" x="55.345313" y="113.56075" style="stroke: #000000; stroke-width: 0.8"/>
      </g>
     </g>
     <g id="text_14">
      <!-- −40 -->
      <g transform="translate(27.240625 117.359969) scale(0.1 -0.1)">
       <defs>
        <path id="DejaVuSans-34" d="M 2419 4116 
L 825 1625 
L 2419 1625 
L 2419 4116 
z
M 2253 4666 
L 3047 4666 
L 3047 1625 
L 3713 1625 
L 3713 1100 
L 3047 1100 
L 3047 0 
L 2419 0 
L 2419 1100 
L 313 1100 
L 313 1709 
L 2253 4666 
z
" transform="scale(0.015625)"/>
       </defs>
       <use xlink:href="#DejaVuSans-2212"/>
       <use xlink:href="#DejaVuSans-34" transform="translate(83.789062 0)"/>
       <use xlink:href="#DejaVuSans-30" transform="translate(147.412109 0)"/>
      </g>
     </g>
    </g>
    <g id="ytick_5">
     <g id="line2d_27">
      <path d="M 55.345313 67.940375 
L 559.25625 67.940375 
" clip-path="url(#p1cdaf360c7)" style="fill: none; stroke-dasharray: 2.96,1.28; stroke-dashoffset: 0; stroke: #b0b0b0; stroke-opacity: 0.8; stroke-width: 0.8"/>
     </g>
     <g id="line2d_28">
      <g>
       <use xlink:href="#m14ff65dd75" x="55.345313" y="67.940375" style="stroke: #000000; stroke-width: 0.8"/>
      </g>
     </g>
     <g id="text_15">
      <!-- −20 -->
      <g transform="translate(27.240625 71.739594) scale(0.1 -0.1)">
       <use xlink:href="#DejaVuSans-2212"/>
       <use xlink:href="#DejaVuSans-32" transform="translate(83.789062 0)"/>
       <use xlink:href="#DejaVuSans-30" transform="translate(147.412109 0)"/>
      </g>
     </g>
    </g>
    <g id="ytick_6">
     <g id="line2d_29">
      <path d="M 55.345313 22.32 
L 559.25625 22.32 
" clip-path="url(#p1cdaf360c7)" style="fill: none; stroke-dasharray: 2.96,1.28; stroke-dashoffset: 0; stroke: #b0b0b0; stroke-opacity: 0.8; stroke-width: 0.8"/>
     </g>
     <g id="line2d_30">
      <g>
       <use xlink:href="#m14ff65dd75" x="55.345313" y="22.32" style="stroke: #000000; stroke-width: 0.8"/>
      </g>
     </g>
     <g id="text_16">
      <!-- 0 -->
      <g transform="translate(41.982813 26.119219) scale(0.1 -0.1)">
       <use xlink:href="#DejaVuSans-30"/>
      </g>
     </g>
    </g>
    <g id="text_17">
     <!-- Power density (dB/Hz) -->
     <g transform="translate(14.798438 191.570938) rotate(-90) scale(0.1 -0.1)">
      <defs>
       <path id="DejaVuSans-50" d="M 1259 4147 
L 1259 2394 
L 2053 2394 
Q 2494 2394 2734 2622 
Q 2975 2850 2975 3272 
Q 2975 3691 2734 3919 
Q 2494 4147 2053 4147 
L 1259 4147 
z
M 628 4666 
L 2053 4666 
Q 2838 4666 3239 4311 
Q 3641 3956 3641 3272 
Q 3641 2581 3239 2228 
Q 2838 1875 2053 1875 
L 1259 1875 
L 1259 0 
L 628 0 
L 628 4666 
z
" transform="scale(0.015625)"/>
       <path id="DejaVuSans-6f" d="M 1959 3097 
Q 1497 3097 1228 2736 
Q 959 2375 959 1747 
Q 959 1119 1226 758 
Q 1494 397 1959 397 
Q 2419 397 2687 759 
Q 2956 1122 2956 1747 
Q 2956 2369 2687 2733 
Q 2419 3097 1959 3097 
z
M 1959 3584 
Q 2709 3584 3137 3096 
Q 3566 2609 3566 1747 
Q 3566 888 3137 398 
Q 2709 -91 1959 -91 
Q 1206 -91 779 398 
Q 353 888 353 1747 
Q 353 2609 779 3096 
Q 1206 3584 1959 3584 
z
" transform="scale(0.015625)"/>
       <path id="DejaVuSans-77" d="M 269 3500 
L 844 3500 
L 1563 769 
L 2278 3500 
L 2956 3500 
L 3675 769 
L 4391 3500 
L 4966 3500 
L 4050 0 
L 3372 0 
L 2619 2869 
L 1863 0 
L 1184 0 
L 269 3500 
z
" transform="scale(0.015625)"/>
       <path id="DejaVuSans-64" d="M 2906 2969 
L 2906 4863 
L 3481 4863 
L 3481 0 
L 2906 0 
L 2906 525 
Q 2725 213 2448 61 
Q 2172 -91 1784 -91 
Q 1150 -91 751 415 
Q 353 922 353 1747 
Q 353 2572 751 3078 
Q 1150 3584 1784 3584 
Q 2172 3584 2448 3432 
Q 2725 3281 2906 2969 
z
M 947 1747 
Q 947 1113 1208 752 
Q 1469 391 1925 391 
Q 2381 391 2643 752 
Q 2906 1113 2906 1747 
Q 2906 2381 2643 2742 
Q 2381 3103 1925 3103 
Q 1469 3103 1208 2742 
Q 947 2381 947 1747 
z
" transform="scale(0.015625)"/>
       <path id="DejaVuSans-73" d="M 2834 3397 
L 2834 2853 
Q 2591 2978 2328 3040 
Q 2066 3103 1784 3103 
Q 1356 3103 1142 2972 
Q 928 2841 928 2578 
Q 928 2378 1081 2264 
Q 1234 2150 1697 2047 
L 1894 2003 
Q 2506 1872 2764 1633 
Q 3022 1394 3022 966 
Q 3022 478 2636 193 
Q 2250 -91 1575 -91 
Q 1294 -91 989 -36 
Q 684 19 347 128 
L 347 722 
Q 666 556 975 473 
Q 1284 391 1588 391 
Q 1994 391 2212 530 
Q 2431 669 2431 922 
Q 2431 1156 2273 1281 
Q 2116 1406 1581 1522 
L 1381 1569 
Q 847 1681 609 1914 
Q 372 2147 372 2553 
Q 372 3047 722 3315 
Q 1072 3584 1716 3584 
Q 2034 3584 2315 3537 
Q 2597 3491 2834 3397 
z
" transform="scale(0.015625)"/>
       <path id="DejaVuSans-69" d="M 603 3500 
L 1178 3500 
L 1178 0 
L 603 0 
L 603 3500 
z
M 603 4863 
L 1178 4863 
L 1178 4134 
L 603 4134 
L 603 4863 
z
" transform="scale(0.015625)"/>
       <path id="DejaVuSans-74" d="M 1172 4494 
L 1172 3500 
L 2356 3500 
L 2356 3053 
L 1172 3053 
L 1172 1153 
Q 1172 725 1289 603 
Q 1406 481 1766 481 
L 2356 481 
L 2356 0 
L 1766 0 
Q 1100 0 847 248 
Q 594 497 594 1153 
L 594 3053 
L 172 3053 
L 172 3500 
L 594 3500 
L 594 4494 
L 1172 4494 
z
" transform="scale(0.015625)"/>
       <path id="DejaVuSans-42" d="M 1259 2228 
L 1259 519 
L 2272 519 
Q 2781 519 3026 730 
Q 3272 941 3272 1375 
Q 3272 1813 3026 2020 
Q 2781 2228 2272 2228 
L 1259 2228 
z
M 1259 4147 
L 1259 2741 
L 2194 2741 
Q 2656 2741 2882 2914 
Q 3109 3088 3109 3444 
Q 3109 3797 2882 3972 
Q 2656 4147 2194 4147 
L 1259 4147 
z
M 628 4666 
L 2241 4666 
Q 2963 4666 3353 4366 
Q 3744 4066 3744 3513 
Q 3744 3084 3544 2831 
Q 3344 2578 2956 2516 
Q 3422 2416 3680 2098 
Q 3938 1781 3938 1306 
Q 3938 681 3513 340 
Q 3088 0 2303 0 
L 628 0 
L 628 4666 
z
" transform="scale(0.015625)"/>
       <path id="DejaVuSans-2f" d="M 1625 4666 
L 2156 4666 
L 531 -594 
L 0 -594 
L 1625 4666 
z
" transform="scale(0.015625)"/>
      </defs>
      <use xlink:href="#DejaVuSans-50"/>
      <use xlink:href="#DejaVuSans-6f" transform="translate(56.677734 0)"/>
      <use xlink:href="#DejaVuSans-77" transform="translate(117.859375 0)"/>
      <use xlink:href="#DejaVuSans-65" transform="translate(199.646484 0)"/>
      <use xlink:href="#DejaVuSans-72" transform="translate(261.169922 0)"/>
      <use xlink:href="#DejaVuSans-20" transform="translate(302.283203 0)"/>
      <use xlink:href="#DejaVuSans-64" transform="translate(334.070312 0)"/>
      <use xlink:href="#DejaVuSans-65" transform="translate(397.546875 0)"/>
      <use xlink:href="#DejaVuSans-6e" transform="translate(459.070312 0)"/>
      <use xlink:href="#DejaVuSans-73" transform="translate(522.449219 0)"/>
      <use xlink:href="#DejaVuSans-69" transform="translate(574.548828 0)"/>
      <use xlink:href="#DejaVuSans-74" transform="translate(602.332031 0)"/>
      <use xlink:href="#DejaVuSans-79" transform="translate(641.541016 0)"/>
      <use xlink:href="#DejaVuSans-20" transform="translate(700.720703 0)"/>
      <use xlink:href="#DejaVuSans-28" transform="translate(732.507812 0)"/>
      <use xlink:href="#DejaVuSans-64" transform="translate(771.521484 0)"/>
      <use xlink:href="#DejaVuSans-42" transform="translate(834.998047 0)"/>
      <use xlink:href="#DejaVuSans-2f" transform="translate(903.601562 0)"/>
      <use xlink:href="#DejaVuSans-48" transform="translate(937.292969 0)"/>
      <use xlink:href="#DejaVuSans-7a" transform="translate(1012.488281 0)"/>
      <use xlink:href="#DejaVuSans-29" transform="translate(1064.978516 0)"/>
     </g>
    </g>
   </g>
   <g id="line2d_31">
    <path d="M 55.554263 289 
L 55.591363 196.220592 
L 56.083463 173.11745 
L 56.575564 162.013549 
L 57.067664 154.734501 
L 57.805815 147.514399 
L 58.297916 144.390632 
L 58.790016 142.404802 
L 59.036066 141.835103 
L 59.282117 141.564813 
L 59.528167 141.621508 
L 59.774217 142.049173 
L 60.020267 142.916032 
L 60.266318 144.329304 
L 60.512368 146.464987 
L 60.758418 149.635029 
L 61.004469 154.466709 
L 61.250519 162.536831 
L 61.496569 180.483814 
L 61.742619 187.091396 
L 61.98867 160.902359 
L 62.48077 140.747826 
L 62.972871 129.209674 
L 63.711021 117.246411 
L 64.695222 105.845855 
L 65.679424 97.241861 
L 66.663625 90.423841 
L 67.647826 84.917974 
L 68.632027 80.461708 
L 69.616228 76.894576 
L 70.600429 74.11271 
L 71.58463 72.047082 
L 72.322781 70.939794 
L 73.060931 70.196722 
L 73.799082 69.809702 
L 74.291183 69.747294 
L 74.783283 69.84092 
L 75.521434 70.27509 
L 76.259585 71.066161 
L 76.997736 72.222862 
L 77.735886 73.758545 
L 78.720087 76.429244 
L 79.704288 79.872993 
L 80.68849 84.187393 
L 81.672691 89.522347 
L 82.656892 96.120482 
L 83.641093 104.411821 
L 84.379243 112.24016 
L 85.117394 122.306293 
L 85.609495 131.193476 
L 86.101595 143.725891 
L 86.347646 153.041068 
L 86.593696 168.109442 
L 86.640574 289 
M 87.039814 289 
L 87.085796 170.94996 
L 87.331847 158.727622 
L 87.823947 148.213431 
L 88.316048 143.689221 
L 88.808148 141.829895 
L 89.054198 141.557214 
L 89.300249 141.635544 
L 89.546299 142.028158 
L 90.0384 143.677921 
L 90.5305 146.452193 
L 91.022601 150.452381 
L 91.514701 155.991954 
L 92.006802 163.83325 
L 92.498902 176.192049 
L 92.744952 186.47098 
L 92.991003 206.650475 
L 93.237053 215.517173 
L 93.483103 191.617006 
L 93.975204 176.14361 
L 94.467304 169.451964 
L 94.959405 166.077528 
L 95.451505 164.640659 
L 95.697556 164.470213 
L 95.943606 164.617477 
L 96.189656 165.064031 
L 96.681757 166.831859 
L 97.173857 169.821809 
L 97.665958 174.266416 
L 98.158058 180.742698 
L 98.650159 190.796345 
L 98.896209 198.582374 
L 99.142259 211.048396 
L 99.388309 247.098423 
L 99.88041 204.94688 
L 100.372511 191.903045 
L 100.864611 185.679993 
L 101.356712 182.386661 
L 101.848812 180.90512 
L 102.094862 180.693776 
L 102.340913 180.795759 
L 102.586963 181.196845 
L 103.079063 182.887588 
L 103.571164 185.844993 
L 104.063264 190.350096 
L 104.555365 197.093717 
L 105.047466 208.028696 
L 105.293516 217.05915 
L 105.539566 233.499452 
L 105.785616 261.435592 
L 106.031667 226.502216 
L 106.523767 208.49306 
L 107.015868 200.696729 
L 107.507968 196.49421 
L 108.000069 194.341918 
L 108.246119 193.838709 
L 108.492169 193.665041 
L 108.738219 193.799997 
L 108.98427 194.233361 
L 109.47637 196.001212 
L 109.968471 199.080887 
L 110.460571 203.809936 
L 110.952672 211.021049 
L 111.444772 223.233969 
L 111.690823 234.165201 
L 111.936873 259.336645 
L 112.182923 251.752269 
L 112.428973 232.866635 
L 112.921074 218.192688 
L 113.413174 211.241752 
L 113.905275 207.429901 
L 114.397375 205.51614 
L 114.643426 205.107107 
L 114.889476 205.019666 
L 115.135526 205.237432 
L 115.381577 205.754033 
L 115.873677 207.704573 
L 116.365778 211.019679 
L 116.857878 216.103176 
L 117.349979 223.967064 
L 117.842079 237.95072 
L 118.088129 251.961668 
L 118.105793 289 
M 118.562946 289 
L 118.58023 252.818425 
L 119.07233 232.311876 
L 119.564431 223.864922 
L 120.056532 219.30835 
L 120.548632 216.91093 
L 120.794682 216.307596 
L 121.040733 216.043981 
L 121.286783 216.096814 
L 121.532833 216.453974 
L 122.024934 218.080158 
L 122.517034 221.018608 
L 123.009135 225.578415 
L 123.501235 232.518384 
L 123.993336 244.051504 
L 124.239386 253.945281 
L 124.485436 273.757801 
L 124.731487 282.275536 
L 124.977537 258.044298 
L 125.469637 241.962138 
L 125.961738 234.732791 
L 126.453838 230.892149 
L 126.945939 229.06167 
L 127.191989 228.722184 
L 127.438039 228.719305 
L 127.68409 229.034968 
L 127.93014 229.661486 
L 128.42224 231.863025 
L 128.914341 235.459736 
L 129.406441 240.827962 
L 129.898542 248.893104 
L 130.390643 262.555261 
L 130.636693 275.176571 
L 130.730554 289 
M 131.090059 289 
L 131.374844 269.740299 
L 131.866944 257.33015 
L 132.359045 251.922317 
L 132.851145 249.660432 
L 133.097195 249.340432 
L 133.343246 249.474128 
L 133.589296 250.029325 
L 134.081396 252.359019 
L 134.573497 256.375939 
L 135.065598 262.359914 
L 135.557698 270.950578 
L 136.049799 283.579842 
L 136.200835 289 
M 138.254852 289 
L 138.510301 280.608171 
L 139.002402 268.973215 
L 139.494502 260.982236 
L 139.986603 255.428025 
L 140.478703 251.762665 
L 140.970804 249.757956 
L 141.216854 249.368706 
L 141.462904 249.411482 
L 141.708955 249.926991 
L 141.955005 250.983892 
L 142.201055 252.695393 
L 142.447105 255.253733 
L 142.693156 259.010502 
L 142.939206 264.701123 
L 143.185256 274.305852 
L 143.33667 289 
M 143.681479 289 
L 143.923407 269.21698 
L 144.415508 252.150166 
L 144.907608 242.895734 
L 145.399709 236.857544 
L 145.891809 232.784408 
L 146.38391 230.186901 
L 146.87601 228.871184 
L 147.12206 228.681472 
L 147.368111 228.816179 
L 147.614161 229.29813 
L 147.860211 230.164657 
L 148.352312 233.315455 
L 148.844412 239.276106 
L 149.090462 244.107946 
L 149.336513 251.381939 
L 149.582563 264.462336 
L 149.594127 289 
M 150.062655 289 
L 150.074664 263.472538 
L 150.566764 241.136099 
L 151.058865 230.872817 
L 151.550965 224.510539 
L 152.043066 220.315212 
L 152.535166 217.655421 
L 153.027267 216.274961 
L 153.273317 216.038707 
L 153.519367 216.110426 
L 153.765417 216.506424 
L 154.011468 217.255236 
L 154.503568 220.015798 
L 154.995669 225.148165 
L 155.487769 234.862485 
L 155.73382 243.841741 
L 155.97987 262.735812 
L 156.22592 270.330776 
L 156.47197 245.172032 
L 156.964071 227.218936 
L 157.456171 218.094385 
L 157.948272 212.330331 
L 158.440372 208.543901 
L 158.932473 206.208224 
L 159.424574 205.114318 
L 159.670624 205.017341 
L 159.916674 205.230835 
L 160.162724 205.775715 
L 160.654825 208.016862 
L 161.146925 212.315593 
L 161.639026 220.215511 
L 161.885076 226.932985 
L 162.131126 238.335676 
L 162.377177 273.327361 
L 162.869277 229.073204 
L 163.361378 213.94406 
L 163.853478 205.651324 
L 164.345579 200.302316 
L 164.837679 196.777544 
L 165.32978 194.635887 
L 165.82188 193.709852 
L 166.067931 193.696564 
L 166.313981 193.998862 
L 166.560031 194.642651 
L 167.052132 197.142365 
L 167.544232 201.885161 
L 168.036333 210.822522 
L 168.282383 218.854952 
L 168.528433 234.297528 
L 168.774483 261.236077 
L 169.020534 225.305076 
L 169.512634 205.299903 
L 170.004735 195.505421 
L 170.496835 189.301271 
L 170.988936 185.142516 
L 171.481036 182.452967 
L 171.973137 181.001011 
L 172.219187 180.718509 
L 172.465237 180.739557 
L 172.711288 181.08272 
L 172.957338 181.779439 
L 173.449438 184.456707 
L 173.941539 189.602505 
L 174.187589 193.72372 
L 174.43364 199.734977 
L 174.67969 209.619793 
L 174.92574 233.740411 
L 175.17179 225.100578 
L 175.417841 205.154634 
L 175.909941 188.344586 
L 176.402042 179.235317 
L 176.894142 173.240904 
L 177.386243 169.118241 
L 177.878343 166.384291 
L 178.370444 164.850226 
L 178.616494 164.521875 
L 178.862544 164.498841 
L 179.108595 164.804281 
L 179.354645 165.47581 
L 179.600695 166.571652 
L 180.092796 170.451439 
L 180.584896 178.173348 
L 180.830946 185.144738 
L 181.076997 197.904757 
L 181.113523 289 
M 181.531997 289 
L 181.569097 196.220592 
L 182.061198 173.11745 
L 182.553298 162.013549 
L 183.045399 154.734501 
L 183.783549 147.514399 
L 184.27565 144.390632 
L 184.767751 142.404802 
L 185.013801 141.835103 
L 185.259851 141.564813 
L 185.505901 141.621508 
L 185.751952 142.049173 
L 185.998002 142.916032 
L 186.244052 144.329304 
L 186.490102 146.464987 
L 186.736153 149.635029 
L 186.982203 154.466709 
L 187.228253 162.536831 
L 187.474303 180.483814 
L 187.720354 187.091396 
L 187.966404 160.902359 
L 188.458504 140.747826 
L 188.950605 129.209674 
L 189.688756 117.246411 
L 190.672957 105.845855 
L 191.657158 97.241861 
L 192.641359 90.423841 
L 193.62556 84.917974 
L 194.609761 80.461708 
L 195.593962 76.894576 
L 196.578163 74.11271 
L 197.562364 72.047082 
L 198.300515 70.939794 
L 199.038666 70.196722 
L 199.776817 69.809702 
L 200.268917 69.747294 
L 200.761018 69.84092 
L 201.499168 70.27509 
L 202.237319 71.066161 
L 202.97547 72.222862 
L 203.713621 73.758545 
L 204.697822 76.429244 
L 205.682023 79.872993 
L 206.666224 84.187393 
L 207.650425 89.522347 
L 208.634626 96.120482 
L 209.618827 104.411821 
L 210.356978 112.24016 
L 211.095129 122.306293 
L 211.587229 131.193476 
L 212.07933 143.725891 
L 212.32538 153.041068 
L 212.57143 168.109442 
L 212.618309 289 
M 213.017548 289 
L 213.063531 170.94996 
L 213.309581 158.727622 
L 213.801682 148.213431 
L 214.293782 143.689221 
L 214.785883 141.829895 
L 215.031933 141.557214 
L 215.277983 141.635544 
L 215.524033 142.028158 
L 216.016134 143.677921 
L 216.508234 146.452193 
L 217.000335 150.452381 
L 217.492435 155.991954 
L 217.984536 163.83325 
L 218.476637 176.192049 
L 218.722687 186.47098 
L 218.968737 206.650475 
L 219.214787 215.517173 
L 219.460838 191.617006 
L 219.952938 176.14361 
L 220.445039 169.451964 
L 220.937139 166.077528 
L 221.42924 164.640659 
L 221.67529 164.470213 
L 221.92134 164.617477 
L 222.16739 165.064031 
L 222.659491 166.831859 
L 223.151591 169.821809 
L 223.643692 174.266416 
L 224.135793 180.742698 
L 224.627893 190.796345 
L 224.873943 198.582374 
L 225.119994 211.048396 
L 225.366044 247.098423 
L 225.858144 204.94688 
L 226.350245 191.903045 
L 226.842345 185.679993 
L 227.334446 182.386661 
L 227.826546 180.90512 
L 228.072597 180.693776 
L 228.318647 180.795759 
L 228.564697 181.196845 
L 229.056798 182.887588 
L 229.548898 185.844993 
L 230.040999 190.350096 
L 230.533099 197.093717 
L 231.0252 208.028696 
L 231.27125 217.05915 
L 231.5173 233.499452 
L 231.763351 261.435592 
L 232.009401 226.502216 
L 232.501501 208.49306 
L 232.993602 200.696729 
L 233.485703 196.49421 
L 233.977803 194.341918 
L 234.223853 193.838709 
L 234.469904 193.665041 
L 234.715954 193.799997 
L 234.962004 194.233361 
L 235.454105 196.001212 
L 235.946205 199.080887 
L 236.438306 203.809936 
L 236.930406 211.021049 
L 237.422507 223.233969 
L 237.668557 234.165201 
L 237.914607 259.336645 
L 238.160658 251.752269 
L 238.406708 232.866635 
L 238.898808 218.192688 
L 239.390909 211.241752 
L 239.883009 207.429901 
L 240.37511 205.51614 
L 240.62116 205.107107 
L 240.86721 205.019666 
L 241.113261 205.237432 
L 241.359311 205.754033 
L 241.851411 207.704573 
L 242.343512 211.019679 
L 242.835612 216.103176 
L 243.327713 223.967064 
L 243.819814 237.95072 
L 244.065864 251.961668 
L 244.083528 289 
M 244.54068 289 
L 244.557964 252.818425 
L 245.050065 232.311876 
L 245.542165 223.864922 
L 246.034266 219.30835 
L 246.526366 216.91093 
L 246.772417 216.307596 
L 247.018467 216.043981 
L 247.264517 216.096814 
L 247.510567 216.453974 
L 248.002668 218.080158 
L 248.494769 221.018608 
L 248.986869 225.578415 
L 249.47897 232.518384 
L 249.97107 244.051504 
L 250.21712 253.945281 
L 250.463171 273.757801 
L 250.709221 282.275536 
L 250.955271 258.044298 
L 251.447372 241.962138 
L 251.939472 234.732791 
L 252.431573 230.892149 
L 252.923673 229.06167 
L 253.169724 228.722184 
L 253.415774 228.719305 
L 253.661824 229.034968 
L 253.907874 229.661486 
L 254.399975 231.863025 
L 254.892075 235.459736 
L 255.384176 240.827962 
L 255.876276 248.893104 
L 256.368377 262.555261 
L 256.614427 275.176571 
L 256.708288 289 
M 257.067794 289 
L 257.352578 269.740299 
L 257.844678 257.33015 
L 258.336779 251.922317 
L 258.82888 249.660432 
L 259.07493 249.340432 
L 259.32098 249.474128 
L 259.56703 250.029325 
L 260.059131 252.359019 
L 260.551231 256.375939 
L 261.043332 262.359914 
L 261.535432 270.950578 
L 262.027533 283.579842 
L 262.17857 289 
M 264.232586 289 
L 264.488036 280.608171 
L 264.980136 268.973215 
L 265.472237 260.982236 
L 265.964337 255.428025 
L 266.456438 251.762665 
L 266.948538 249.757956 
L 267.194588 249.368706 
L 267.440639 249.411482 
L 267.686689 249.926991 
L 267.932739 250.983892 
L 268.17879 252.695393 
L 268.42484 255.253733 
L 268.67089 259.010502 
L 268.91694 264.701123 
L 269.162991 274.305852 
L 269.314405 289 
M 269.659213 289 
L 269.901141 269.21698 
L 270.393242 252.150166 
L 270.885342 242.895734 
L 271.377443 236.857544 
L 271.869543 232.784408 
L 272.361644 230.186901 
L 272.853745 228.871184 
L 273.099795 228.681472 
L 273.345845 228.816179 
L 273.591895 229.29813 
L 273.837946 230.164657 
L 274.330046 233.315455 
L 274.822147 239.276106 
L 275.068197 244.107946 
L 275.314247 251.381939 
L 275.560297 264.462336 
L 275.571862 289 
M 276.04039 289 
L 276.052398 263.472538 
L 276.544498 241.136099 
L 277.036599 230.872817 
L 277.528699 224.510539 
L 278.0208 220.315212 
L 278.512901 217.655421 
L 279.005001 216.274961 
L 279.251051 216.038707 
L 279.497102 216.110426 
L 279.743152 216.506424 
L 279.989202 217.255236 
L 280.481303 220.015798 
L 280.973403 225.148165 
L 281.465504 234.862485 
L 281.711554 243.841741 
L 281.957604 262.735812 
L 282.203654 270.330776 
L 282.449705 245.172032 
L 282.941805 227.218936 
L 283.433906 218.094385 
L 283.926006 212.330331 
L 284.418107 208.543901 
L 284.910207 206.208224 
L 285.402308 205.114318 
L 285.648358 205.017341 
L 285.894408 205.230835 
L 286.140459 205.775715 
L 286.632559 208.016862 
L 287.12466 212.315593 
L 287.61676 220.215511 
L 287.862811 226.932985 
L 288.108861 238.335676 
L 288.354911 273.327361 
L 288.847012 229.073204 
L 289.339112 213.94406 
L 289.831213 205.651324 
L 290.323313 200.302316 
L 290.815414 196.777544 
L 291.307514 194.635887 
L 291.799615 193.709852 
L 292.045665 193.696564 
L 292.291715 193.998862 
L 292.537766 194.642651 
L 293.029866 197.142365 
L 293.521967 201.885161 
L 294.014067 210.822522 
L 294.260117 218.854952 
L 294.506168 234.297528 
L 294.752218 261.236077 
L 294.998268 225.305076 
L 295.490369 205.299903 
L 295.982469 195.505421 
L 296.47457 189.301271 
L 296.96667 185.142516 
L 297.458771 182.452967 
L 297.950871 181.001011 
L 298.196922 180.718509 
L 298.442972 180.739557 
L 298.689022 181.08272 
L 298.935072 181.779439 
L 299.427173 184.456707 
L 299.919273 189.602505 
L 300.165324 193.72372 
L 300.411374 199.734977 
L 300.657424 209.619793 
L 300.903474 233.740411 
L 301.149525 225.100578 
L 301.395575 205.154634 
L 301.887675 188.344586 
L 302.379776 179.235317 
L 302.871877 173.240904 
L 303.363977 169.118241 
L 303.856078 166.384291 
L 304.348178 164.850226 
L 304.594228 164.521875 
L 304.840279 164.498841 
L 305.086329 164.804281 
L 305.332379 165.47581 
L 305.578429 166.571652 
L 306.07053 170.451439 
L 306.56263 178.173348 
L 306.808681 185.144738 
L 307.054731 197.904757 
L 307.091257 289 
M 307.509732 289 
L 307.546832 196.220592 
L 308.038932 173.11745 
L 308.531033 162.013549 
L 309.023133 154.734501 
L 309.761284 147.514399 
L 310.253384 144.390632 
L 310.745485 142.404802 
L 310.991535 141.835103 
L 311.237585 141.564813 
L 311.483636 141.621508 
L 311.729686 142.049173 
L 311.975736 142.916032 
L 312.221786 144.329304 
L 312.467837 146.464987 
L 312.713887 149.635029 
L 312.959937 154.466709 
L 313.205988 162.536831 
L 313.452038 180.483814 
L 313.698088 187.091396 
L 313.944138 160.902359 
L 314.436239 140.747826 
L 314.928339 129.209674 
L 315.66649 117.246411 
L 316.650691 105.845855 
L 317.634892 97.241861 
L 318.619093 90.423841 
L 319.603294 84.917974 
L 320.587495 80.461708 
L 321.571696 76.894576 
L 322.555898 74.11271 
L 323.540099 72.047082 
L 324.278249 70.939794 
L 325.0164 70.196722 
L 325.754551 69.809702 
L 326.246651 69.747294 
L 326.738752 69.84092 
L 327.476903 70.27509 
L 328.215054 71.066161 
L 328.953204 72.222862 
L 329.691355 73.758545 
L 330.675556 76.429244 
L 331.659757 79.872993 
L 332.643958 84.187393 
L 333.628159 89.522347 
L 334.61236 96.120482 
L 335.596561 104.411821 
L 336.334712 112.24016 
L 337.072863 122.306293 
L 337.564964 131.193476 
L 338.057064 143.725891 
L 338.303114 153.041068 
L 338.549165 168.109442 
L 338.596043 289 
M 338.995282 289 
L 339.041265 170.94996 
L 339.287315 158.727622 
L 339.779416 148.213431 
L 340.271516 143.689221 
L 340.763617 141.829895 
L 341.009667 141.557214 
L 341.255717 141.635544 
L 341.501768 142.028158 
L 341.993868 143.677921 
L 342.485969 146.452193 
L 342.978069 150.452381 
L 343.47017 155.991954 
L 343.96227 163.83325 
L 344.454371 176.192049 
L 344.700421 186.47098 
L 344.946471 206.650475 
L 345.192522 215.517173 
L 345.438572 191.617006 
L 345.930672 176.14361 
L 346.422773 169.451964 
L 346.914874 166.077528 
L 347.406974 164.640659 
L 347.653024 164.470213 
L 347.899075 164.617477 
L 348.145125 165.064031 
L 348.637225 166.831859 
L 349.129326 169.821809 
L 349.621426 174.266416 
L 350.113527 180.742698 
L 350.605627 190.796345 
L 350.851678 198.582374 
L 351.097728 211.048396 
L 351.343778 247.098423 
L 351.835879 204.94688 
L 352.327979 191.903045 
L 352.82008 185.679993 
L 353.31218 182.386661 
L 353.804281 180.90512 
L 354.050331 180.693776 
L 354.296381 180.795759 
L 354.542432 181.196845 
L 355.034532 182.887588 
L 355.526633 185.844993 
L 356.018733 190.350096 
L 356.510834 197.093717 
L 357.002934 208.028696 
L 357.248985 217.05915 
L 357.495035 233.499452 
L 357.741085 261.435592 
L 357.987135 226.502216 
L 358.479236 208.49306 
L 358.971336 200.696729 
L 359.463437 196.49421 
L 359.955537 194.341918 
L 360.201588 193.838709 
L 360.447638 193.665041 
L 360.693688 193.799997 
L 360.939738 194.233361 
L 361.431839 196.001212 
L 361.92394 199.080887 
L 362.41604 203.809936 
L 362.908141 211.021049 
L 363.400241 223.233969 
L 363.646291 234.165201 
L 363.892342 259.336645 
L 364.138392 251.752269 
L 364.384442 232.866635 
L 364.876543 218.192688 
L 365.368643 211.241752 
L 365.860744 207.429901 
L 366.352844 205.51614 
L 366.598895 205.107107 
L 366.844945 205.019666 
L 367.090995 205.237432 
L 367.337045 205.754033 
L 367.829146 207.704573 
L 368.321246 211.019679 
L 368.813347 216.103176 
L 369.305447 223.967064 
L 369.797548 237.95072 
L 370.043598 251.961668 
L 370.061262 289 
M 370.518415 289 
L 370.535699 252.818425 
L 371.027799 232.311876 
L 371.5199 223.864922 
L 372.012 219.30835 
L 372.504101 216.91093 
L 372.750151 216.307596 
L 372.996201 216.043981 
L 373.242252 216.096814 
L 373.488302 216.453974 
L 373.980402 218.080158 
L 374.472503 221.018608 
L 374.964603 225.578415 
L 375.456704 232.518384 
L 375.948804 244.051504 
L 376.194855 253.945281 
L 376.440905 273.757801 
L 376.686955 282.275536 
L 376.933006 258.044298 
L 377.425106 241.962138 
L 377.917207 234.732791 
L 378.409307 230.892149 
L 378.901408 229.06167 
L 379.147458 228.722184 
L 379.393508 228.719305 
L 379.639558 229.034968 
L 379.885609 229.661486 
L 380.377709 231.863025 
L 380.86981 235.459736 
L 381.36191 240.827962 
L 381.854011 248.893104 
L 382.346111 262.555261 
L 382.592162 275.176571 
L 382.686023 289 
M 383.045528 289 
L 383.330312 269.740299 
L 383.822413 257.33015 
L 384.314513 251.922317 
L 384.806614 249.660432 
L 385.052664 249.340432 
L 385.298714 249.474128 
L 385.544765 250.029325 
L 386.036865 252.359019 
L 386.528966 256.375939 
L 387.021066 262.359914 
L 387.513167 270.950578 
L 388.005267 283.579842 
L 388.156304 289 
M 390.210321 289 
L 390.46577 280.608171 
L 390.95787 268.973215 
L 391.449971 260.982236 
L 391.942072 255.428025 
L 392.434172 251.762665 
L 392.926273 249.757956 
L 393.172323 249.368706 
L 393.418373 249.411482 
L 393.664423 249.926991 
L 393.910474 250.983892 
L 394.156524 252.695393 
L 394.402574 255.253733 
L 394.648624 259.010502 
L 394.894675 264.701123 
L 395.140725 274.305852 
L 395.292139 289 
M 395.636948 289 
L 395.878876 269.21698 
L 396.370976 252.150166 
L 396.863077 242.895734 
L 397.355177 236.857544 
L 397.847278 232.784408 
L 398.339378 230.186901 
L 398.831479 228.871184 
L 399.077529 228.681472 
L 399.323579 228.816179 
L 399.56963 229.29813 
L 399.81568 230.164657 
L 400.30778 233.315455 
L 400.799881 239.276106 
L 401.045931 244.107946 
L 401.291982 251.381939 
L 401.538032 264.462336 
L 401.549596 289 
M 402.018124 289 
L 402.030132 263.472538 
L 402.522233 241.136099 
L 403.014333 230.872817 
L 403.506434 224.510539 
L 403.998534 220.315212 
L 404.490635 217.655421 
L 404.982735 216.274961 
L 405.228786 216.038707 
L 405.474836 216.110426 
L 405.720886 216.506424 
L 405.966936 217.255236 
L 406.459037 220.015798 
L 406.951138 225.148165 
L 407.443238 234.862485 
L 407.689288 243.841741 
L 407.935339 262.735812 
L 408.181389 270.330776 
L 408.427439 245.172032 
L 408.91954 227.218936 
L 409.41164 218.094385 
L 409.903741 212.330331 
L 410.395841 208.543901 
L 410.887942 206.208224 
L 411.380042 205.114318 
L 411.626093 205.017341 
L 411.872143 205.230835 
L 412.118193 205.775715 
L 412.610294 208.016862 
L 413.102394 212.315593 
L 413.594495 220.215511 
L 413.840545 226.932985 
L 414.086595 238.335676 
L 414.332645 273.327361 
L 414.824746 229.073204 
L 415.316846 213.94406 
L 415.808947 205.651324 
L 416.301048 200.302316 
L 416.793148 196.777544 
L 417.285249 194.635887 
L 417.777349 193.709852 
L 418.023399 193.696564 
L 418.26945 193.998862 
L 418.5155 194.642651 
L 419.0076 197.142365 
L 419.499701 201.885161 
L 419.991801 210.822522 
L 420.237852 218.854952 
L 420.483902 234.297528 
L 420.729952 261.236077 
L 420.976003 225.305076 
L 421.468103 205.299903 
L 421.960204 195.505421 
L 422.452304 189.301271 
L 422.944405 185.142516 
L 423.436505 182.452967 
L 423.928606 181.001011 
L 424.174656 180.718509 
L 424.420706 180.739557 
L 424.666756 181.08272 
L 424.912807 181.779439 
L 425.404907 184.456707 
L 425.897008 189.602505 
L 426.143058 193.72372 
L 426.389108 199.734977 
L 426.635159 209.619793 
L 426.881209 233.740411 
L 427.127259 225.100578 
L 427.373309 205.154634 
L 427.86541 188.344586 
L 428.35751 179.235317 
L 428.849611 173.240904 
L 429.341711 169.118241 
L 429.833812 166.384291 
L 430.325912 164.850226 
L 430.571963 164.521875 
L 430.818013 164.498841 
L 431.064063 164.804281 
L 431.310114 165.47581 
L 431.556164 166.571652 
L 432.048264 170.451439 
L 432.540365 178.173348 
L 432.786415 185.144738 
L 433.032465 197.904757 
L 433.068992 289 
M 433.487466 289 
L 433.524566 196.220592 
L 434.016666 173.11745 
L 434.508767 162.013549 
L 435.000867 154.734501 
L 435.739018 147.514399 
L 436.231119 144.390632 
L 436.723219 142.404802 
L 436.96927 141.835103 
L 437.21532 141.564813 
L 437.46137 141.621508 
L 437.70742 142.049173 
L 437.953471 142.916032 
L 438.199521 144.329304 
L 438.445571 146.464987 
L 438.691621 149.635029 
L 438.937672 154.466709 
L 439.183722 162.536831 
L 439.429772 180.483814 
L 439.675822 187.091396 
L 439.921873 160.902359 
L 440.413973 140.747826 
L 440.906074 129.209674 
L 441.644225 117.246411 
L 442.628426 105.845855 
L 443.612627 97.241861 
L 444.596828 90.423841 
L 445.581029 84.917974 
L 446.56523 80.461708 
L 447.549431 76.894576 
L 448.533632 74.11271 
L 449.517833 72.047082 
L 450.255984 70.939794 
L 450.994135 70.196722 
L 451.732285 69.809702 
L 452.224386 69.747294 
L 452.716486 69.84092 
L 453.454637 70.27509 
L 454.192788 71.066161 
L 454.930939 72.222862 
L 455.66909 73.758545 
L 456.653291 76.429244 
L 457.637492 79.872993 
L 458.621693 84.187393 
L 459.605894 89.522347 
L 460.590095 96.120482 
L 461.574296 104.411821 
L 462.312447 112.24016 
L 463.050597 122.306293 
L 463.542698 131.193476 
L 464.034798 143.725891 
L 464.280849 153.041068 
L 464.526899 168.109442 
L 464.573777 289 
M 464.973017 289 
L 465.018999 170.94996 
L 465.26505 158.727622 
L 465.75715 148.213431 
L 466.249251 143.689221 
L 466.741351 141.829895 
L 466.987402 141.557214 
L 467.233452 141.635544 
L 467.479502 142.028158 
L 467.971603 143.677921 
L 468.463703 146.452193 
L 468.955804 150.452381 
L 469.447904 155.991954 
L 469.940005 163.83325 
L 470.432105 176.192049 
L 470.678156 186.47098 
L 470.924206 206.650475 
L 471.170256 215.517173 
L 471.416306 191.617006 
L 471.908407 176.14361 
L 472.400507 169.451964 
L 472.892608 166.077528 
L 473.384708 164.640659 
L 473.630759 164.470213 
L 473.876809 164.617477 
L 474.122859 165.064031 
L 474.61496 166.831859 
L 475.10706 169.821809 
L 475.599161 174.266416 
L 476.091261 180.742698 
L 476.583362 190.796345 
L 476.829412 198.582374 
L 477.075462 211.048396 
L 477.321513 247.098423 
L 477.813613 204.94688 
L 478.305714 191.903045 
L 478.797814 185.679993 
L 479.289915 182.386661 
L 479.782015 180.90512 
L 480.028065 180.693776 
L 480.274116 180.795759 
L 480.520166 181.196845 
L 481.012267 182.887588 
L 481.504367 185.844993 
L 481.996468 190.350096 
L 482.488568 197.093717 
L 482.980669 208.028696 
L 483.226719 217.05915 
L 483.472769 233.499452 
L 483.718819 261.435592 
L 483.96487 226.502216 
L 484.45697 208.49306 
L 484.949071 200.696729 
L 485.441171 196.49421 
L 485.933272 194.341918 
L 486.179322 193.838709 
L 486.425372 193.665041 
L 486.671423 193.799997 
L 486.917473 194.233361 
L 487.409573 196.001212 
L 487.901674 199.080887 
L 488.393774 203.809936 
L 488.885875 211.021049 
L 489.377975 223.233969 
L 489.624026 234.165201 
L 489.870076 259.336645 
L 490.116126 251.752269 
L 490.362177 232.866635 
L 490.854277 218.192688 
L 491.346378 211.241752 
L 491.838478 207.429901 
L 492.330579 205.51614 
L 492.576629 205.107107 
L 492.822679 205.019666 
L 493.068729 205.237432 
L 493.31478 205.754033 
L 493.80688 207.704573 
L 494.298981 211.019679 
L 494.791081 216.103176 
L 495.283182 223.967064 
L 495.775282 237.95072 
L 496.021333 251.961668 
L 496.038996 289 
M 496.496149 289 
L 496.513433 252.818425 
L 497.005534 232.311876 
L 497.497634 223.864922 
L 497.989735 219.30835 
L 498.481835 216.91093 
L 498.727885 216.307596 
L 498.973936 216.043981 
L 499.219986 216.096814 
L 499.466036 216.453974 
L 499.958137 218.080158 
L 500.450237 221.018608 
L 500.942338 225.578415 
L 501.434438 232.518384 
L 501.926539 244.051504 
L 502.172589 253.945281 
L 502.418639 273.757801 
L 502.66469 282.275536 
L 502.91074 258.044298 
L 503.40284 241.962138 
L 503.894941 234.732791 
L 504.387041 230.892149 
L 504.879142 229.06167 
L 505.125192 228.722184 
L 505.371243 228.719305 
L 505.617293 229.034968 
L 505.863343 229.661486 
L 506.355444 231.863025 
L 506.847544 235.459736 
L 507.339645 240.827962 
L 507.831745 248.893104 
L 508.323846 262.555261 
L 508.569896 275.176571 
L 508.663757 289 
M 509.023262 289 
L 509.308047 269.740299 
L 509.800147 257.33015 
L 510.292248 251.922317 
L 510.784348 249.660432 
L 511.030399 249.340432 
L 511.276449 249.474128 
L 511.522499 250.029325 
L 512.0146 252.359019 
L 512.5067 256.375939 
L 512.998801 262.359914 
L 513.490901 270.950578 
L 513.983002 283.579842 
L 514.134039 289 
M 516.188055 289 
L 516.443504 280.608171 
L 516.935605 268.973215 
L 517.427705 260.982236 
L 517.919806 255.428025 
L 518.411906 251.762665 
L 518.904007 249.757956 
L 519.150057 249.368706 
L 519.396107 249.411482 
L 519.642158 249.926991 
L 519.888208 250.983892 
L 520.134258 252.695393 
L 520.380309 255.253733 
L 520.626359 259.010502 
L 520.872409 264.701123 
L 521.118459 274.305852 
L 521.269873 289 
M 521.614682 289 
L 521.85661 269.21698 
L 522.348711 252.150166 
L 522.840811 242.895734 
L 523.332912 236.857544 
L 523.825012 232.784408 
L 524.317113 230.186901 
L 524.809213 228.871184 
L 525.055264 228.681472 
L 525.301314 228.816179 
L 525.547364 229.29813 
L 525.793414 230.164657 
L 526.285515 233.315455 
L 526.777615 239.276106 
L 527.023666 244.107946 
L 527.269716 251.381939 
L 527.515766 264.462336 
L 527.527331 289 
M 527.995859 289 
L 528.007867 263.472538 
L 528.499967 241.136099 
L 528.992068 230.872817 
L 529.484168 224.510539 
L 529.976269 220.315212 
L 530.468369 217.655421 
L 530.96047 216.274961 
L 531.20652 216.038707 
L 531.45257 216.110426 
L 531.698621 216.506424 
L 531.944671 217.255236 
L 532.436771 220.015798 
L 532.928872 225.148165 
L 533.420972 234.862485 
L 533.667023 243.841741 
L 533.913073 262.735812 
L 534.159123 270.330776 
L 534.405173 245.172032 
L 534.897274 227.218936 
L 535.389375 218.094385 
L 535.881475 212.330331 
L 536.373576 208.543901 
L 536.865676 206.208224 
L 537.357777 205.114318 
L 537.603827 205.017341 
L 537.849877 205.230835 
L 538.095927 205.775715 
L 538.588028 208.016862 
L 539.080128 212.315593 
L 539.572229 220.215511 
L 539.818279 226.932985 
L 540.06433 238.335676 
L 540.31038 273.327361 
L 540.80248 229.073204 
L 541.294581 213.94406 
L 541.786681 205.651324 
L 542.278782 200.302316 
L 542.770882 196.777544 
L 543.262983 194.635887 
L 543.755083 193.709852 
L 544.001134 193.696564 
L 544.247184 193.998862 
L 544.493234 194.642651 
L 544.985335 197.142365 
L 545.477435 201.885161 
L 545.969536 210.822522 
L 546.215586 218.854952 
L 546.461636 234.297528 
L 546.707687 261.236077 
L 546.953737 225.305076 
L 547.445837 205.299903 
L 547.937938 195.505421 
L 548.430038 189.301271 
L 548.922139 185.142516 
L 549.41424 182.452967 
L 549.90634 181.001011 
L 550.15239 180.718509 
L 550.398441 180.739557 
L 550.644491 181.08272 
L 550.890541 181.779439 
L 551.382642 184.456707 
L 551.874742 189.602505 
L 552.120792 193.72372 
L 552.366843 199.734977 
L 552.612893 209.619793 
L 552.858943 233.740411 
L 553.104993 225.100578 
L 553.351044 205.154634 
L 553.843144 188.344586 
L 554.335245 179.235317 
L 554.827345 173.240904 
L 555.319446 169.118241 
L 555.811546 166.384291 
L 556.303647 164.850226 
L 556.549697 164.521875 
L 556.795747 164.498841 
L 557.041798 164.804281 
L 557.287848 165.47581 
L 557.533898 166.571652 
L 558.025999 170.451439 
L 558.518099 178.173348 
L 558.764149 185.144738 
L 559.0102 197.904757 
L 559.0102 197.904757 
" clip-path="url(#p1cdaf360c7)" style="fill: none; stroke: #1f77b4; stroke-linecap: square"/>
   </g>
   <g id="patch_3">
    <path d="M 55.345313 250.421875 
L 55.345313 22.32 
" style="fill: none; stroke: #000000; stroke-width: 0.8; stroke-linejoin: miter; stroke-linecap: square"/>
   </g>
   <g id="patch_4">
    <path d="M 559.25625 250.421875 
L 559.25625 22.32 
" style="fill: none; stroke: #000000; stroke-width: 0.8; stroke-linejoin: miter; stroke-linecap: square"/>
   </g>
   <g id="patch_5">
    <path d="M 55.345312 250.421875 
L 559.25625 250.421875 
" style="fill: none; stroke: #000000; stroke-width: 0.8; stroke-linejoin: miter; stroke-linecap: square"/>
   </g>
   <g id="patch_6">
    <path d="M 55.345312 22.32 
L 559.25625 22.32 
" style="fill: none; stroke: #000000; stroke-width: 0.8; stroke-linejoin: miter; stroke-linecap: square"/>
   </g>
   <g id="text_18">
    <!-- Upsampled signal $y[n]$ -->
    <g transform="translate(239.860781 16.32) scale(0.12 -0.12)">
     <defs>
      <path id="DejaVuSans-55" d="M 556 4666 
L 1191 4666 
L 1191 1831 
Q 1191 1081 1462 751 
Q 1734 422 2344 422 
Q 2950 422 3222 751 
Q 3494 1081 3494 1831 
L 3494 4666 
L 4128 4666 
L 4128 1753 
Q 4128 841 3676 375 
Q 3225 -91 2344 -91 
Q 1459 -91 1007 375 
Q 556 841 556 1753 
L 556 4666 
z
" transform="scale(0.015625)"/>
      <path id="DejaVuSans-70" d="M 1159 525 
L 1159 -1331 
L 581 -1331 
L 581 3500 
L 1159 3500 
L 1159 2969 
Q 1341 3281 1617 3432 
Q 1894 3584 2278 3584 
Q 2916 3584 3314 3078 
Q 3713 2572 3713 1747 
Q 3713 922 3314 415 
Q 2916 -91 2278 -91 
Q 1894 -91 1617 61 
Q 1341 213 1159 525 
z
M 3116 1747 
Q 3116 2381 2855 2742 
Q 2594 3103 2138 3103 
Q 1681 3103 1420 2742 
Q 1159 2381 1159 1747 
Q 1159 1113 1420 752 
Q 1681 391 2138 391 
Q 2594 391 2855 752 
Q 3116 1113 3116 1747 
z
" transform="scale(0.015625)"/>
      <path id="DejaVuSans-61" d="M 2194 1759 
Q 1497 1759 1228 1600 
Q 959 1441 959 1056 
Q 959 750 1161 570 
Q 1363 391 1709 391 
Q 2188 391 2477 730 
Q 2766 1069 2766 1631 
L 2766 1759 
L 2194 1759 
z
M 3341 1997 
L 3341 0 
L 2766 0 
L 2766 531 
Q 2569 213 2275 61 
Q 1981 -91 1556 -91 
Q 1019 -91 701 211 
Q 384 513 384 1019 
Q 384 1609 779 1909 
Q 1175 2209 1959 2209 
L 2766 2209 
L 2766 2266 
Q 2766 2663 2505 2880 
Q 2244 3097 1772 3097 
Q 1472 3097 1187 3025 
Q 903 2953 641 2809 
L 641 3341 
Q 956 3463 1253 3523 
Q 1550 3584 1831 3584 
Q 2591 3584 2966 3190 
Q 3341 2797 3341 1997 
z
" transform="scale(0.015625)"/>
      <path id="DejaVuSans-6d" d="M 3328 2828 
Q 3544 3216 3844 3400 
Q 4144 3584 4550 3584 
Q 5097 3584 5394 3201 
Q 5691 2819 5691 2113 
L 5691 0 
L 5113 0 
L 5113 2094 
Q 5113 2597 4934 2840 
Q 4756 3084 4391 3084 
Q 3944 3084 3684 2787 
Q 3425 2491 3425 1978 
L 3425 0 
L 2847 0 
L 2847 2094 
Q 2847 2600 2669 2842 
Q 2491 3084 2119 3084 
Q 1678 3084 1418 2786 
Q 1159 2488 1159 1978 
L 1159 0 
L 581 0 
L 581 3500 
L 1159 3500 
L 1159 2956 
Q 1356 3278 1631 3431 
Q 1906 3584 2284 3584 
Q 2666 3584 2933 3390 
Q 3200 3197 3328 2828 
z
" transform="scale(0.015625)"/>
      <path id="DejaVuSans-6c" d="M 603 4863 
L 1178 4863 
L 1178 0 
L 603 0 
L 603 4863 
z
" transform="scale(0.015625)"/>
      <path id="DejaVuSans-67" d="M 2906 1791 
Q 2906 2416 2648 2759 
Q 2391 3103 1925 3103 
Q 1463 3103 1205 2759 
Q 947 2416 947 1791 
Q 947 1169 1205 825 
Q 1463 481 1925 481 
Q 2391 481 2648 825 
Q 2906 1169 2906 1791 
z
M 3481 434 
Q 3481 -459 3084 -895 
Q 2688 -1331 1869 -1331 
Q 1566 -1331 1297 -1286 
Q 1028 -1241 775 -1147 
L 775 -588 
Q 1028 -725 1275 -790 
Q 1522 -856 1778 -856 
Q 2344 -856 2625 -561 
Q 2906 -266 2906 331 
L 2906 616 
Q 2728 306 2450 153 
Q 2172 0 1784 0 
Q 1141 0 747 490 
Q 353 981 353 1791 
Q 353 2603 747 3093 
Q 1141 3584 1784 3584 
Q 2172 3584 2450 3431 
Q 2728 3278 2906 2969 
L 2906 3500 
L 3481 3500 
L 3481 434 
z
" transform="scale(0.015625)"/>
      <path id="DejaVuSans-Oblique-79" d="M 1588 -325 
Q 1188 -997 936 -1164 
Q 684 -1331 294 -1331 
L -159 -1331 
L -63 -850 
L 269 -850 
Q 509 -850 678 -719 
Q 847 -588 1056 -206 
L 1234 128 
L 459 3500 
L 1069 3500 
L 1650 819 
L 3256 3500 
L 3859 3500 
L 1588 -325 
z
" transform="scale(0.015625)"/>
      <path id="DejaVuSans-5b" d="M 550 4863 
L 1875 4863 
L 1875 4416 
L 1125 4416 
L 1125 -397 
L 1875 -397 
L 1875 -844 
L 550 -844 
L 550 4863 
z
" transform="scale(0.015625)"/>
      <path id="DejaVuSans-Oblique-6e" d="M 3566 2113 
L 3156 0 
L 2578 0 
L 2988 2091 
Q 3016 2238 3031 2350 
Q 3047 2463 3047 2528 
Q 3047 2791 2881 2937 
Q 2716 3084 2419 3084 
Q 1956 3084 1622 2776 
Q 1288 2469 1184 1941 
L 800 0 
L 225 0 
L 903 3500 
L 1478 3500 
L 1363 2950 
Q 1603 3253 1940 3418 
Q 2278 3584 2650 3584 
Q 3113 3584 3367 3334 
Q 3622 3084 3622 2631 
Q 3622 2519 3608 2391 
Q 3594 2263 3566 2113 
z
" transform="scale(0.015625)"/>
      <path id="DejaVuSans-5d" d="M 1947 4863 
L 1947 -844 
L 622 -844 
L 622 -397 
L 1369 -397 
L 1369 4416 
L 622 4416 
L 622 4863 
L 1947 4863 
z
" transform="scale(0.015625)"/>
     </defs>
     <use xlink:href="#DejaVuSans-55" transform="translate(0 0.015625)"/>
     <use xlink:href="#DejaVuSans-70" transform="translate(73.193359 0.015625)"/>
     <use xlink:href="#DejaVuSans-73" transform="translate(136.669922 0.015625)"/>
     <use xlink:href="#DejaVuSans-61" transform="translate(188.769531 0.015625)"/>
     <use xlink:href="#DejaVuSans-6d" transform="translate(250.048828 0.015625)"/>
     <use xlink:href="#DejaVuSans-70" transform="translate(347.460938 0.015625)"/>
     <use xlink:href="#DejaVuSans-6c" transform="translate(410.9375 0.015625)"/>
     <use xlink:href="#DejaVuSans-65" transform="translate(438.720703 0.015625)"/>
     <use xlink:href="#DejaVuSans-64" transform="translate(500.244141 0.015625)"/>
     <use xlink:href="#DejaVuSans-20" transform="translate(563.720703 0.015625)"/>
     <use xlink:href="#DejaVuSans-73" transform="translate(595.507812 0.015625)"/>
     <use xlink:href="#DejaVuSans-69" transform="translate(647.607422 0.015625)"/>
     <use xlink:href="#DejaVuSans-67" transform="translate(675.390625 0.015625)"/>
     <use xlink:href="#DejaVuSans-6e" transform="translate(738.867188 0.015625)"/>
     <use xlink:href="#DejaVuSans-61" transform="translate(802.246094 0.015625)"/>
     <use xlink:href="#DejaVuSans-6c" transform="translate(863.525391 0.015625)"/>
     <use xlink:href="#DejaVuSans-20" transform="translate(891.308594 0.015625)"/>
     <use xlink:href="#DejaVuSans-Oblique-79" transform="translate(923.095703 0.015625)"/>
     <use xlink:href="#DejaVuSans-5b" transform="translate(982.275391 0.015625)"/>
     <use xlink:href="#DejaVuSans-Oblique-6e" transform="translate(1021.289062 0.015625)"/>
     <use xlink:href="#DejaVuSans-5d" transform="translate(1084.667969 0.015625)"/>
    </g>
   </g>
  </g>
 </g>
 <defs>
  <clipPath id="p1cdaf360c7">
   <rect x="55.345313" y="22.32" width="503.910938" height="228.101875"/>
  </clipPath>
 </defs>
</svg>
