<?xml version="1.0" encoding="utf-8" standalone="no"?>
<!DOCTYPE svg PUBLIC "-//W3C//DTD SVG 1.1//EN"
  "http://www.w3.org/Graphics/SVG/1.1/DTD/svg11.dtd">
<svg xmlns:xlink="http://www.w3.org/1999/xlink" width="576pt" height="288pt" viewBox="0 0 576 288" xmlns="http://www.w3.org/2000/svg" version="1.1">
 <metadata>
  <rdf:RDF xmlns:dc="http://purl.org/dc/elements/1.1/" xmlns:cc="http://creativecommons.org/ns#" xmlns:rdf="http://www.w3.org/1999/02/22-rdf-syntax-ns#">
   <cc:Work>
    <dc:type rdf:resource="http://purl.org/dc/dcmitype/StillImage"/>
    <dc:date>2025-05-10T16:14:15.622953</dc:date>
    <dc:format>image/svg+xml</dc:format>
    <dc:creator>
     <cc:Agent>
      <dc:title>Matplotlib v3.10.3, https://matplotlib.org/</dc:title>
     </cc:Agent>
    </dc:creator>
   </cc:Work>
  </rdf:RDF>
 </metadata>
 <defs>
  <style type="text/css">*{stroke-linejoin: round; stroke-linecap: butt}</style>
 </defs>
 <g id="figure_1">
  <g id="patch_1">
   <path d="M 0 288 
L 576 288 
L 576 0 
L 0 0 
z
" style="fill: #ffffff"/>
  </g>
  <g id="axes_1">
   <g id="patch_2">
    <path d="M 52.160938 250.421875 
L 568.8 250.421875 
L 568.8 7.2 
L 52.160938 7.2 
z
" style="fill: #ffffff"/>
   </g>
   <g id="matplotlib.axis_1">
    <g id="xtick_1">
     <g id="line2d_1">
      <path d="M 75.644531 250.421875 
L 75.644531 7.2 
" clip-path="url(#p1cecc0eb2e)" style="fill: none; stroke-dasharray: 2.96,1.28; stroke-dashoffset: 0; stroke: #b0b0b0; stroke-opacity: 0.8; stroke-width: 0.8"/>
     </g>
     <g id="line2d_2">
      <defs>
       <path id="m52fa4fcf09" d="M 0 0 
L 0 3.5 
" style="stroke: #000000; stroke-width: 0.8"/>
      </defs>
      <g>
       <use xlink:href="#m52fa4fcf09" x="75.644531" y="250.421875" style="stroke: #000000; stroke-width: 0.8"/>
      </g>
     </g>
     <g id="text_1">
      <!-- 0 -->
      <g transform="translate(72.463281 265.020312) scale(0.1 -0.1)">
       <defs>
        <path id="DejaVuSans-30" d="M 2034 4250 
Q 1547 4250 1301 3770 
Q 1056 3291 1056 2328 
Q 1056 1369 1301 889 
Q 1547 409 2034 409 
Q 2525 409 2770 889 
Q 3016 1369 3016 2328 
Q 3016 3291 2770 3770 
Q 2525 4250 2034 4250 
z
M 2034 4750 
Q 2819 4750 3233 4129 
Q 3647 3509 3647 2328 
Q 3647 1150 3233 529 
Q 2819 -91 2034 -91 
Q 1250 -91 836 529 
Q 422 1150 422 2328 
Q 422 3509 836 4129 
Q 1250 4750 2034 4750 
z
" transform="scale(0.015625)"/>
       </defs>
       <use xlink:href="#DejaVuSans-30"/>
      </g>
     </g>
    </g>
    <g id="xtick_2">
     <g id="line2d_3">
      <path d="M 134.500656 250.421875 
L 134.500656 7.2 
" clip-path="url(#p1cecc0eb2e)" style="fill: none; stroke-dasharray: 2.96,1.28; stroke-dashoffset: 0; stroke: #b0b0b0; stroke-opacity: 0.8; stroke-width: 0.8"/>
     </g>
     <g id="line2d_4">
      <g>
       <use xlink:href="#m52fa4fcf09" x="134.500656" y="250.421875" style="stroke: #000000; stroke-width: 0.8"/>
      </g>
     </g>
     <g id="text_2">
      <!-- 50 -->
      <g transform="translate(128.138156 265.020312) scale(0.1 -0.1)">
       <defs>
        <path id="DejaVuSans-35" d="M 691 4666 
L 3169 4666 
L 3169 4134 
L 1269 4134 
L 1269 2991 
Q 1406 3038 1543 3061 
Q 1681 3084 1819 3084 
Q 2600 3084 3056 2656 
Q 3513 2228 3513 1497 
Q 3513 744 3044 326 
Q 2575 -91 1722 -91 
Q 1428 -91 1123 -41 
Q 819 9 494 109 
L 494 744 
Q 775 591 1075 516 
Q 1375 441 1709 441 
Q 2250 441 2565 725 
Q 2881 1009 2881 1497 
Q 2881 1984 2565 2268 
Q 2250 2553 1709 2553 
Q 1456 2553 1204 2497 
Q 953 2441 691 2322 
L 691 4666 
z
" transform="scale(0.015625)"/>
       </defs>
       <use xlink:href="#DejaVuSans-35"/>
       <use xlink:href="#DejaVuSans-30" transform="translate(63.623047 0)"/>
      </g>
     </g>
    </g>
    <g id="xtick_3">
     <g id="line2d_5">
      <path d="M 193.356781 250.421875 
L 193.356781 7.2 
" clip-path="url(#p1cecc0eb2e)" style="fill: none; stroke-dasharray: 2.96,1.28; stroke-dashoffset: 0; stroke: #b0b0b0; stroke-opacity: 0.8; stroke-width: 0.8"/>
     </g>
     <g id="line2d_6">
      <g>
       <use xlink:href="#m52fa4fcf09" x="193.356781" y="250.421875" style="stroke: #000000; stroke-width: 0.8"/>
      </g>
     </g>
     <g id="text_3">
      <!-- 100 -->
      <g transform="translate(183.813031 265.020312) scale(0.1 -0.1)">
       <defs>
        <path id="DejaVuSans-31" d="M 794 531 
L 1825 531 
L 1825 4091 
L 703 3866 
L 703 4441 
L 1819 4666 
L 2450 4666 
L 2450 531 
L 3481 531 
L 3481 0 
L 794 0 
L 794 531 
z
" transform="scale(0.015625)"/>
       </defs>
       <use xlink:href="#DejaVuSans-31"/>
       <use xlink:href="#DejaVuSans-30" transform="translate(63.623047 0)"/>
       <use xlink:href="#DejaVuSans-30" transform="translate(127.246094 0)"/>
      </g>
     </g>
    </g>
    <g id="xtick_4">
     <g id="line2d_7">
      <path d="M 252.212905 250.421875 
L 252.212905 7.2 
" clip-path="url(#p1cecc0eb2e)" style="fill: none; stroke-dasharray: 2.96,1.28; stroke-dashoffset: 0; stroke: #b0b0b0; stroke-opacity: 0.8; stroke-width: 0.8"/>
     </g>
     <g id="line2d_8">
      <g>
       <use xlink:href="#m52fa4fcf09" x="252.212905" y="250.421875" style="stroke: #000000; stroke-width: 0.8"/>
      </g>
     </g>
     <g id="text_4">
      <!-- 150 -->
      <g transform="translate(242.669155 265.020312) scale(0.1 -0.1)">
       <use xlink:href="#DejaVuSans-31"/>
       <use xlink:href="#DejaVuSans-35" transform="translate(63.623047 0)"/>
       <use xlink:href="#DejaVuSans-30" transform="translate(127.246094 0)"/>
      </g>
     </g>
    </g>
    <g id="xtick_5">
     <g id="line2d_9">
      <path d="M 311.06903 250.421875 
L 311.06903 7.2 
" clip-path="url(#p1cecc0eb2e)" style="fill: none; stroke-dasharray: 2.96,1.28; stroke-dashoffset: 0; stroke: #b0b0b0; stroke-opacity: 0.8; stroke-width: 0.8"/>
     </g>
     <g id="line2d_10">
      <g>
       <use xlink:href="#m52fa4fcf09" x="311.06903" y="250.421875" style="stroke: #000000; stroke-width: 0.8"/>
      </g>
     </g>
     <g id="text_5">
      <!-- 200 -->
      <g transform="translate(301.52528 265.020312) scale(0.1 -0.1)">
       <defs>
        <path id="DejaVuSans-32" d="M 1228 531 
L 3431 531 
L 3431 0 
L 469 0 
L 469 531 
Q 828 903 1448 1529 
Q 2069 2156 2228 2338 
Q 2531 2678 2651 2914 
Q 2772 3150 2772 3378 
Q 2772 3750 2511 3984 
Q 2250 4219 1831 4219 
Q 1534 4219 1204 4116 
Q 875 4013 500 3803 
L 500 4441 
Q 881 4594 1212 4672 
Q 1544 4750 1819 4750 
Q 2544 4750 2975 4387 
Q 3406 4025 3406 3419 
Q 3406 3131 3298 2873 
Q 3191 2616 2906 2266 
Q 2828 2175 2409 1742 
Q 1991 1309 1228 531 
z
" transform="scale(0.015625)"/>
       </defs>
       <use xlink:href="#DejaVuSans-32"/>
       <use xlink:href="#DejaVuSans-30" transform="translate(63.623047 0)"/>
       <use xlink:href="#DejaVuSans-30" transform="translate(127.246094 0)"/>
      </g>
     </g>
    </g>
    <g id="xtick_6">
     <g id="line2d_11">
      <path d="M 369.925155 250.421875 
L 369.925155 7.2 
" clip-path="url(#p1cecc0eb2e)" style="fill: none; stroke-dasharray: 2.96,1.28; stroke-dashoffset: 0; stroke: #b0b0b0; stroke-opacity: 0.8; stroke-width: 0.8"/>
     </g>
     <g id="line2d_12">
      <g>
       <use xlink:href="#m52fa4fcf09" x="369.925155" y="250.421875" style="stroke: #000000; stroke-width: 0.8"/>
      </g>
     </g>
     <g id="text_6">
      <!-- 250 -->
      <g transform="translate(360.381405 265.020312) scale(0.1 -0.1)">
       <use xlink:href="#DejaVuSans-32"/>
       <use xlink:href="#DejaVuSans-35" transform="translate(63.623047 0)"/>
       <use xlink:href="#DejaVuSans-30" transform="translate(127.246094 0)"/>
      </g>
     </g>
    </g>
    <g id="xtick_7">
     <g id="line2d_13">
      <path d="M 428.781279 250.421875 
L 428.781279 7.2 
" clip-path="url(#p1cecc0eb2e)" style="fill: none; stroke-dasharray: 2.96,1.28; stroke-dashoffset: 0; stroke: #b0b0b0; stroke-opacity: 0.8; stroke-width: 0.8"/>
     </g>
     <g id="line2d_14">
      <g>
       <use xlink:href="#m52fa4fcf09" x="428.781279" y="250.421875" style="stroke: #000000; stroke-width: 0.8"/>
      </g>
     </g>
     <g id="text_7">
      <!-- 300 -->
      <g transform="translate(419.237529 265.020312) scale(0.1 -0.1)">
       <defs>
        <path id="DejaVuSans-33" d="M 2597 2516 
Q 3050 2419 3304 2112 
Q 3559 1806 3559 1356 
Q 3559 666 3084 287 
Q 2609 -91 1734 -91 
Q 1441 -91 1130 -33 
Q 819 25 488 141 
L 488 750 
Q 750 597 1062 519 
Q 1375 441 1716 441 
Q 2309 441 2620 675 
Q 2931 909 2931 1356 
Q 2931 1769 2642 2001 
Q 2353 2234 1838 2234 
L 1294 2234 
L 1294 2753 
L 1863 2753 
Q 2328 2753 2575 2939 
Q 2822 3125 2822 3475 
Q 2822 3834 2567 4026 
Q 2313 4219 1838 4219 
Q 1578 4219 1281 4162 
Q 984 4106 628 3988 
L 628 4550 
Q 988 4650 1302 4700 
Q 1616 4750 1894 4750 
Q 2613 4750 3031 4423 
Q 3450 4097 3450 3541 
Q 3450 3153 3228 2886 
Q 3006 2619 2597 2516 
z
" transform="scale(0.015625)"/>
       </defs>
       <use xlink:href="#DejaVuSans-33"/>
       <use xlink:href="#DejaVuSans-30" transform="translate(63.623047 0)"/>
       <use xlink:href="#DejaVuSans-30" transform="translate(127.246094 0)"/>
      </g>
     </g>
    </g>
    <g id="xtick_8">
     <g id="line2d_15">
      <path d="M 487.637404 250.421875 
L 487.637404 7.2 
" clip-path="url(#p1cecc0eb2e)" style="fill: none; stroke-dasharray: 2.96,1.28; stroke-dashoffset: 0; stroke: #b0b0b0; stroke-opacity: 0.8; stroke-width: 0.8"/>
     </g>
     <g id="line2d_16">
      <g>
       <use xlink:href="#m52fa4fcf09" x="487.637404" y="250.421875" style="stroke: #000000; stroke-width: 0.8"/>
      </g>
     </g>
     <g id="text_8">
      <!-- 350 -->
      <g transform="translate(478.093654 265.020312) scale(0.1 -0.1)">
       <use xlink:href="#DejaVuSans-33"/>
       <use xlink:href="#DejaVuSans-35" transform="translate(63.623047 0)"/>
       <use xlink:href="#DejaVuSans-30" transform="translate(127.246094 0)"/>
      </g>
     </g>
    </g>
    <g id="xtick_9">
     <g id="line2d_17">
      <path d="M 546.493529 250.421875 
L 546.493529 7.2 
" clip-path="url(#p1cecc0eb2e)" style="fill: none; stroke-dasharray: 2.96,1.28; stroke-dashoffset: 0; stroke: #b0b0b0; stroke-opacity: 0.8; stroke-width: 0.8"/>
     </g>
     <g id="line2d_18">
      <g>
       <use xlink:href="#m52fa4fcf09" x="546.493529" y="250.421875" style="stroke: #000000; stroke-width: 0.8"/>
      </g>
     </g>
     <g id="text_9">
      <!-- 400 -->
      <g transform="translate(536.949779 265.020312) scale(0.1 -0.1)">
       <defs>
        <path id="DejaVuSans-34" d="M 2419 4116 
L 825 1625 
L 2419 1625 
L 2419 4116 
z
M 2253 4666 
L 3047 4666 
L 3047 1625 
L 3713 1625 
L 3713 1100 
L 3047 1100 
L 3047 0 
L 2419 0 
L 2419 1100 
L 313 1100 
L 313 1709 
L 2253 4666 
z
" transform="scale(0.015625)"/>
       </defs>
       <use xlink:href="#DejaVuSans-34"/>
       <use xlink:href="#DejaVuSans-30" transform="translate(63.623047 0)"/>
       <use xlink:href="#DejaVuSans-30" transform="translate(127.246094 0)"/>
      </g>
     </g>
    </g>
    <g id="text_10">
     <!-- Sample, $n$ -->
     <g transform="translate(285.380469 278.7) scale(0.1 -0.1)">
      <defs>
       <path id="DejaVuSans-53" d="M 3425 4513 
L 3425 3897 
Q 3066 4069 2747 4153 
Q 2428 4238 2131 4238 
Q 1616 4238 1336 4038 
Q 1056 3838 1056 3469 
Q 1056 3159 1242 3001 
Q 1428 2844 1947 2747 
L 2328 2669 
Q 3034 2534 3370 2195 
Q 3706 1856 3706 1288 
Q 3706 609 3251 259 
Q 2797 -91 1919 -91 
Q 1588 -91 1214 -16 
Q 841 59 441 206 
L 441 856 
Q 825 641 1194 531 
Q 1563 422 1919 422 
Q 2459 422 2753 634 
Q 3047 847 3047 1241 
Q 3047 1584 2836 1778 
Q 2625 1972 2144 2069 
L 1759 2144 
Q 1053 2284 737 2584 
Q 422 2884 422 3419 
Q 422 4038 858 4394 
Q 1294 4750 2059 4750 
Q 2388 4750 2728 4690 
Q 3069 4631 3425 4513 
z
" transform="scale(0.015625)"/>
       <path id="DejaVuSans-61" d="M 2194 1759 
Q 1497 1759 1228 1600 
Q 959 1441 959 1056 
Q 959 750 1161 570 
Q 1363 391 1709 391 
Q 2188 391 2477 730 
Q 2766 1069 2766 1631 
L 2766 1759 
L 2194 1759 
z
M 3341 1997 
L 3341 0 
L 2766 0 
L 2766 531 
Q 2569 213 2275 61 
Q 1981 -91 1556 -91 
Q 1019 -91 701 211 
Q 384 513 384 1019 
Q 384 1609 779 1909 
Q 1175 2209 1959 2209 
L 2766 2209 
L 2766 2266 
Q 2766 2663 2505 2880 
Q 2244 3097 1772 3097 
Q 1472 3097 1187 3025 
Q 903 2953 641 2809 
L 641 3341 
Q 956 3463 1253 3523 
Q 1550 3584 1831 3584 
Q 2591 3584 2966 3190 
Q 3341 2797 3341 1997 
z
" transform="scale(0.015625)"/>
       <path id="DejaVuSans-6d" d="M 3328 2828 
Q 3544 3216 3844 3400 
Q 4144 3584 4550 3584 
Q 5097 3584 5394 3201 
Q 5691 2819 5691 2113 
L 5691 0 
L 5113 0 
L 5113 2094 
Q 5113 2597 4934 2840 
Q 4756 3084 4391 3084 
Q 3944 3084 3684 2787 
Q 3425 2491 3425 1978 
L 3425 0 
L 2847 0 
L 2847 2094 
Q 2847 2600 2669 2842 
Q 2491 3084 2119 3084 
Q 1678 3084 1418 2786 
Q 1159 2488 1159 1978 
L 1159 0 
L 581 0 
L 581 3500 
L 1159 3500 
L 1159 2956 
Q 1356 3278 1631 3431 
Q 1906 3584 2284 3584 
Q 2666 3584 2933 3390 
Q 3200 3197 3328 2828 
z
" transform="scale(0.015625)"/>
       <path id="DejaVuSans-70" d="M 1159 525 
L 1159 -1331 
L 581 -1331 
L 581 3500 
L 1159 3500 
L 1159 2969 
Q 1341 3281 1617 3432 
Q 1894 3584 2278 3584 
Q 2916 3584 3314 3078 
Q 3713 2572 3713 1747 
Q 3713 922 3314 415 
Q 2916 -91 2278 -91 
Q 1894 -91 1617 61 
Q 1341 213 1159 525 
z
M 3116 1747 
Q 3116 2381 2855 2742 
Q 2594 3103 2138 3103 
Q 1681 3103 1420 2742 
Q 1159 2381 1159 1747 
Q 1159 1113 1420 752 
Q 1681 391 2138 391 
Q 2594 391 2855 752 
Q 3116 1113 3116 1747 
z
" transform="scale(0.015625)"/>
       <path id="DejaVuSans-6c" d="M 603 4863 
L 1178 4863 
L 1178 0 
L 603 0 
L 603 4863 
z
" transform="scale(0.015625)"/>
       <path id="DejaVuSans-65" d="M 3597 1894 
L 3597 1613 
L 953 1613 
Q 991 1019 1311 708 
Q 1631 397 2203 397 
Q 2534 397 2845 478 
Q 3156 559 3463 722 
L 3463 178 
Q 3153 47 2828 -22 
Q 2503 -91 2169 -91 
Q 1331 -91 842 396 
Q 353 884 353 1716 
Q 353 2575 817 3079 
Q 1281 3584 2069 3584 
Q 2775 3584 3186 3129 
Q 3597 2675 3597 1894 
z
M 3022 2063 
Q 3016 2534 2758 2815 
Q 2500 3097 2075 3097 
Q 1594 3097 1305 2825 
Q 1016 2553 972 2059 
L 3022 2063 
z
" transform="scale(0.015625)"/>
       <path id="DejaVuSans-2c" d="M 750 794 
L 1409 794 
L 1409 256 
L 897 -744 
L 494 -744 
L 750 256 
L 750 794 
z
" transform="scale(0.015625)"/>
       <path id="DejaVuSans-20" transform="scale(0.015625)"/>
       <path id="DejaVuSans-Oblique-6e" d="M 3566 2113 
L 3156 0 
L 2578 0 
L 2988 2091 
Q 3016 2238 3031 2350 
Q 3047 2463 3047 2528 
Q 3047 2791 2881 2937 
Q 2716 3084 2419 3084 
Q 1956 3084 1622 2776 
Q 1288 2469 1184 1941 
L 800 0 
L 225 0 
L 903 3500 
L 1478 3500 
L 1363 2950 
Q 1603 3253 1940 3418 
Q 2278 3584 2650 3584 
Q 3113 3584 3367 3334 
Q 3622 3084 3622 2631 
Q 3622 2519 3608 2391 
Q 3594 2263 3566 2113 
z
" transform="scale(0.015625)"/>
      </defs>
      <use xlink:href="#DejaVuSans-53" transform="translate(0 0.015625)"/>
      <use xlink:href="#DejaVuSans-61" transform="translate(63.476562 0.015625)"/>
      <use xlink:href="#DejaVuSans-6d" transform="translate(124.755859 0.015625)"/>
      <use xlink:href="#DejaVuSans-70" transform="translate(222.167969 0.015625)"/>
      <use xlink:href="#DejaVuSans-6c" transform="translate(285.644531 0.015625)"/>
      <use xlink:href="#DejaVuSans-65" transform="translate(313.427734 0.015625)"/>
      <use xlink:href="#DejaVuSans-2c" transform="translate(374.951172 0.015625)"/>
      <use xlink:href="#DejaVuSans-20" transform="translate(406.738281 0.015625)"/>
      <use xlink:href="#DejaVuSans-Oblique-6e" transform="translate(438.525391 0.015625)"/>
     </g>
    </g>
   </g>
   <g id="matplotlib.axis_2">
    <g id="ytick_1">
     <g id="line2d_19">
      <path d="M 52.160938 236.190429 
L 568.8 236.190429 
" clip-path="url(#p1cecc0eb2e)" style="fill: none; stroke-dasharray: 2.96,1.28; stroke-dashoffset: 0; stroke: #b0b0b0; stroke-opacity: 0.8; stroke-width: 0.8"/>
     </g>
     <g id="line2d_20">
      <defs>
       <path id="m7d305824b1" d="M 0 0 
L -3.5 0 
" style="stroke: #000000; stroke-width: 0.8"/>
      </defs>
      <g>
       <use xlink:href="#m7d305824b1" x="52.160938" y="236.190429" style="stroke: #000000; stroke-width: 0.8"/>
      </g>
     </g>
     <g id="text_11">
      <!-- −0.4 -->
      <g transform="translate(20.878125 239.989647) scale(0.1 -0.1)">
       <defs>
        <path id="DejaVuSans-2212" d="M 678 2272 
L 4684 2272 
L 4684 1741 
L 678 1741 
L 678 2272 
z
" transform="scale(0.015625)"/>
        <path id="DejaVuSans-2e" d="M 684 794 
L 1344 794 
L 1344 0 
L 684 0 
L 684 794 
z
" transform="scale(0.015625)"/>
       </defs>
       <use xlink:href="#DejaVuSans-2212"/>
       <use xlink:href="#DejaVuSans-30" transform="translate(83.789062 0)"/>
       <use xlink:href="#DejaVuSans-2e" transform="translate(147.412109 0)"/>
       <use xlink:href="#DejaVuSans-34" transform="translate(179.199219 0)"/>
      </g>
     </g>
    </g>
    <g id="ytick_2">
     <g id="line2d_21">
      <path d="M 52.160938 183.712041 
L 568.8 183.712041 
" clip-path="url(#p1cecc0eb2e)" style="fill: none; stroke-dasharray: 2.96,1.28; stroke-dashoffset: 0; stroke: #b0b0b0; stroke-opacity: 0.8; stroke-width: 0.8"/>
     </g>
     <g id="line2d_22">
      <g>
       <use xlink:href="#m7d305824b1" x="52.160938" y="183.712041" style="stroke: #000000; stroke-width: 0.8"/>
      </g>
     </g>
     <g id="text_12">
      <!-- −0.2 -->
      <g transform="translate(20.878125 187.511259) scale(0.1 -0.1)">
       <use xlink:href="#DejaVuSans-2212"/>
       <use xlink:href="#DejaVuSans-30" transform="translate(83.789062 0)"/>
       <use xlink:href="#DejaVuSans-2e" transform="translate(147.412109 0)"/>
       <use xlink:href="#DejaVuSans-32" transform="translate(179.199219 0)"/>
      </g>
     </g>
    </g>
    <g id="ytick_3">
     <g id="line2d_23">
      <path d="M 52.160938 131.233653 
L 568.8 131.233653 
" clip-path="url(#p1cecc0eb2e)" style="fill: none; stroke-dasharray: 2.96,1.28; stroke-dashoffset: 0; stroke: #b0b0b0; stroke-opacity: 0.8; stroke-width: 0.8"/>
     </g>
     <g id="line2d_24">
      <g>
       <use xlink:href="#m7d305824b1" x="52.160938" y="131.233653" style="stroke: #000000; stroke-width: 0.8"/>
      </g>
     </g>
     <g id="text_13">
      <!-- 0.0 -->
      <g transform="translate(29.257812 135.032872) scale(0.1 -0.1)">
       <use xlink:href="#DejaVuSans-30"/>
       <use xlink:href="#DejaVuSans-2e" transform="translate(63.623047 0)"/>
       <use xlink:href="#DejaVuSans-30" transform="translate(95.410156 0)"/>
      </g>
     </g>
    </g>
    <g id="ytick_4">
     <g id="line2d_25">
      <path d="M 52.160938 78.755265 
L 568.8 78.755265 
" clip-path="url(#p1cecc0eb2e)" style="fill: none; stroke-dasharray: 2.96,1.28; stroke-dashoffset: 0; stroke: #b0b0b0; stroke-opacity: 0.8; stroke-width: 0.8"/>
     </g>
     <g id="line2d_26">
      <g>
       <use xlink:href="#m7d305824b1" x="52.160938" y="78.755265" style="stroke: #000000; stroke-width: 0.8"/>
      </g>
     </g>
     <g id="text_14">
      <!-- 0.2 -->
      <g transform="translate(29.257812 82.554484) scale(0.1 -0.1)">
       <use xlink:href="#DejaVuSans-30"/>
       <use xlink:href="#DejaVuSans-2e" transform="translate(63.623047 0)"/>
       <use xlink:href="#DejaVuSans-32" transform="translate(95.410156 0)"/>
      </g>
     </g>
    </g>
    <g id="ytick_5">
     <g id="line2d_27">
      <path d="M 52.160938 26.276877 
L 568.8 26.276877 
" clip-path="url(#p1cecc0eb2e)" style="fill: none; stroke-dasharray: 2.96,1.28; stroke-dashoffset: 0; stroke: #b0b0b0; stroke-opacity: 0.8; stroke-width: 0.8"/>
     </g>
     <g id="line2d_28">
      <g>
       <use xlink:href="#m7d305824b1" x="52.160938" y="26.276877" style="stroke: #000000; stroke-width: 0.8"/>
      </g>
     </g>
     <g id="text_15">
      <!-- 0.4 -->
      <g transform="translate(29.257812 30.076096) scale(0.1 -0.1)">
       <use xlink:href="#DejaVuSans-30"/>
       <use xlink:href="#DejaVuSans-2e" transform="translate(63.623047 0)"/>
       <use xlink:href="#DejaVuSans-34" transform="translate(95.410156 0)"/>
      </g>
     </g>
    </g>
    <g id="text_16">
     <!-- Amplitude -->
     <g transform="translate(14.798437 154.433594) rotate(-90) scale(0.1 -0.1)">
      <defs>
       <path id="DejaVuSans-41" d="M 2188 4044 
L 1331 1722 
L 3047 1722 
L 2188 4044 
z
M 1831 4666 
L 2547 4666 
L 4325 0 
L 3669 0 
L 3244 1197 
L 1141 1197 
L 716 0 
L 50 0 
L 1831 4666 
z
" transform="scale(0.015625)"/>
       <path id="DejaVuSans-69" d="M 603 3500 
L 1178 3500 
L 1178 0 
L 603 0 
L 603 3500 
z
M 603 4863 
L 1178 4863 
L 1178 4134 
L 603 4134 
L 603 4863 
z
" transform="scale(0.015625)"/>
       <path id="DejaVuSans-74" d="M 1172 4494 
L 1172 3500 
L 2356 3500 
L 2356 3053 
L 1172 3053 
L 1172 1153 
Q 1172 725 1289 603 
Q 1406 481 1766 481 
L 2356 481 
L 2356 0 
L 1766 0 
Q 1100 0 847 248 
Q 594 497 594 1153 
L 594 3053 
L 172 3053 
L 172 3500 
L 594 3500 
L 594 4494 
L 1172 4494 
z
" transform="scale(0.015625)"/>
       <path id="DejaVuSans-75" d="M 544 1381 
L 544 3500 
L 1119 3500 
L 1119 1403 
Q 1119 906 1312 657 
Q 1506 409 1894 409 
Q 2359 409 2629 706 
Q 2900 1003 2900 1516 
L 2900 3500 
L 3475 3500 
L 3475 0 
L 2900 0 
L 2900 538 
Q 2691 219 2414 64 
Q 2138 -91 1772 -91 
Q 1169 -91 856 284 
Q 544 659 544 1381 
z
M 1991 3584 
L 1991 3584 
z
" transform="scale(0.015625)"/>
       <path id="DejaVuSans-64" d="M 2906 2969 
L 2906 4863 
L 3481 4863 
L 3481 0 
L 2906 0 
L 2906 525 
Q 2725 213 2448 61 
Q 2172 -91 1784 -91 
Q 1150 -91 751 415 
Q 353 922 353 1747 
Q 353 2572 751 3078 
Q 1150 3584 1784 3584 
Q 2172 3584 2448 3432 
Q 2725 3281 2906 2969 
z
M 947 1747 
Q 947 1113 1208 752 
Q 1469 391 1925 391 
Q 2381 391 2643 752 
Q 2906 1113 2906 1747 
Q 2906 2381 2643 2742 
Q 2381 3103 1925 3103 
Q 1469 3103 1208 2742 
Q 947 2381 947 1747 
z
" transform="scale(0.015625)"/>
      </defs>
      <use xlink:href="#DejaVuSans-41"/>
      <use xlink:href="#DejaVuSans-6d" transform="translate(68.408203 0)"/>
      <use xlink:href="#DejaVuSans-70" transform="translate(165.820312 0)"/>
      <use xlink:href="#DejaVuSans-6c" transform="translate(229.296875 0)"/>
      <use xlink:href="#DejaVuSans-69" transform="translate(257.080078 0)"/>
      <use xlink:href="#DejaVuSans-74" transform="translate(284.863281 0)"/>
      <use xlink:href="#DejaVuSans-75" transform="translate(324.072266 0)"/>
      <use xlink:href="#DejaVuSans-64" transform="translate(387.451172 0)"/>
      <use xlink:href="#DejaVuSans-65" transform="translate(450.927734 0)"/>
     </g>
    </g>
   </g>
   <g id="line2d_29">
    <path d="M 75.644531 130.119808 
L 76.821654 130.279198 
L 77.998776 130.695247 
L 80.353021 132.034391 
L 81.530144 132.708117 
L 82.707266 133.180949 
L 83.884389 133.316359 
L 85.061511 134.142486 
L 86.238634 133.262509 
L 87.415756 131.772059 
L 89.770001 127.944009 
L 90.947124 126.339763 
L 92.124246 125.466661 
L 94.478491 125.849239 
L 95.655614 128.444142 
L 96.832736 132.090207 
L 99.186981 140.092519 
L 100.364104 142.872364 
L 101.541226 143.820451 
L 102.718349 142.429422 
L 103.895471 137.446952 
L 105.072594 131.573725 
L 107.426839 117.56006 
L 108.603961 111.855763 
L 109.781084 108.774687 
L 110.958206 109.419273 
L 112.135329 114.474309 
L 113.312451 122.935042 
L 114.489574 136.638819 
L 119.198064 202.186886 
L 120.375186 210.681487 
L 121.552309 212.299921 
L 122.729431 207.367436 
L 123.906553 193.644032 
L 125.083676 173.264108 
L 127.437921 121.392732 
L 128.615043 95.732853 
L 129.792166 74.338055 
L 130.969288 59.805774 
L 132.146411 52.814259 
L 133.323533 56.49192 
L 134.500656 69.412649 
L 135.677778 90.025319 
L 138.032023 143.838715 
L 139.209146 170.795366 
L 140.386268 193.842612 
L 141.563391 211.92757 
L 142.740513 221.494816 
L 143.917636 223.520201 
L 145.094758 219.09606 
L 146.271881 210.234217 
L 148.626126 189.579059 
L 149.803248 182.782171 
L 150.980371 181.789351 
L 152.157493 184.744931 
L 153.334616 192.064761 
L 155.688861 212.723122 
L 156.865983 221.122938 
L 158.043106 224.854196 
L 159.220228 221.980926 
L 160.397351 210.380471 
L 161.574473 192.574411 
L 162.751596 168.862 
L 166.282963 88.174387 
L 167.460086 68.359835 
L 168.637208 56.508106 
L 169.814331 52.914409 
L 170.991453 61.226902 
L 172.168576 77.133837 
L 173.345698 99.753289 
L 176.877066 177.694076 
L 178.054188 196.342663 
L 179.231311 208.191715 
L 180.408433 208.603303 
L 181.585556 200.791983 
L 182.762678 184.531051 
L 183.939801 161.635286 
L 188.648291 54.858451 
L 189.825413 38.450869 
L 191.002536 27.616409 
L 192.179658 23.732256 
L 193.356781 26.303922 
L 194.533903 34.243759 
L 195.711026 46.105493 
L 198.065271 74.463898 
L 199.242393 90.815776 
L 201.596638 119.385407 
L 206.305128 173.908032 
L 208.659373 204.269002 
L 209.836496 216.361813 
L 211.013618 225.695759 
L 212.190741 231.185572 
L 213.367863 231.896199 
L 214.544986 227.211504 
L 215.722108 216.969895 
L 216.89923 202.657695 
L 219.253475 159.08912 
L 221.60772 111.970465 
L 222.784843 91.425898 
L 223.961965 75.314934 
L 225.139088 65.043586 
L 226.31621 62.616429 
L 227.493333 66.952496 
L 228.670455 76.391746 
L 229.847578 91.262064 
L 231.0247 110.368989 
L 235.73319 196.840028 
L 236.910313 212.912183 
L 238.087435 226.134693 
L 239.264558 234.587821 
L 240.44168 237.76486 
L 241.618803 235.483539 
L 242.795925 227.895798 
L 243.973048 215.480956 
L 245.15017 197.906835 
L 249.85866 116.718872 
L 251.035783 99.056913 
L 252.212905 84.17487 
L 253.390028 72.589651 
L 254.56715 65.627278 
L 255.744273 61.815762 
L 256.921395 59.43052 
L 258.098518 59.063157 
L 259.27564 60.08189 
L 261.629885 63.605777 
L 262.807008 64.923015 
L 263.98413 64.276824 
L 265.161253 64.923015 
L 266.338375 63.605777 
L 268.69262 60.08189 
L 269.869743 59.063157 
L 271.046865 59.43052 
L 272.223988 61.815762 
L 273.40111 65.627278 
L 274.578233 72.589651 
L 275.755355 84.17487 
L 276.932478 99.056913 
L 278.1096 116.718872 
L 280.463845 157.041291 
L 281.640968 177.578143 
L 283.995213 213.572046 
L 285.172335 226.818986 
L 286.349458 235.647373 
L 287.52658 239.366335 
L 288.703703 237.53675 
L 289.880825 230.029285 
L 291.057948 217.077596 
L 293.412193 177.856907 
L 296.94356 106.992653 
L 298.120683 87.372141 
L 299.297805 72.646945 
L 300.474928 64.071367 
L 301.65205 61.255248 
L 302.829173 65.671078 
L 304.006295 78.104855 
L 305.183418 96.187314 
L 307.537663 141.826442 
L 308.714785 165.08934 
L 309.891908 185.91547 
L 311.06903 201.591996 
L 312.246152 212.458619 
L 313.423275 219.466318 
L 314.600397 221.655208 
L 315.77752 219.684494 
L 316.954642 214.595964 
L 319.308887 200.156022 
L 320.48601 192.173623 
L 321.663132 185.986473 
L 322.840255 183.47695 
L 324.017377 183.576127 
L 325.1945 185.906525 
L 326.371622 189.776567 
L 329.90299 203.237933 
L 331.080112 206.121508 
L 332.257235 205.832766 
L 333.434357 203.740786 
L 334.61148 200.421306 
L 336.965725 193.22197 
L 338.142847 190.851842 
L 339.31997 191.106817 
L 341.674215 194.298782 
L 345.205582 200.791857 
L 346.382705 201.938174 
L 347.559827 201.956096 
L 348.73695 199.647955 
L 349.914072 196.538564 
L 352.268317 192.304354 
L 353.44544 190.884337 
L 354.622562 190.414977 
L 355.799685 191.116343 
L 356.976807 193.033015 
L 358.15393 197.124783 
L 359.331052 201.677332 
L 360.508175 204.861748 
L 361.685297 207.306761 
L 362.86242 208.546049 
L 364.039542 208.165565 
L 365.216665 205.826706 
L 366.393787 201.279036 
L 367.57091 195.478847 
L 368.748032 186.996526 
L 369.925155 174.547635 
L 371.102277 159.520471 
L 373.456522 123.725681 
L 375.810767 85.129054 
L 376.98789 68.150449 
L 378.165012 53.060672 
L 379.342135 39.542912 
L 380.519257 29.768861 
L 381.69638 24.702446 
L 382.873502 25.094391 
L 384.050625 31.361209 
L 385.227747 43.4808 
L 386.40487 62.037299 
L 388.759115 108.349589 
L 391.11336 155.474652 
L 392.290482 175.095164 
L 393.467605 189.82036 
L 394.644727 198.395939 
L 395.82185 201.212058 
L 396.998972 196.796227 
L 398.176095 184.362451 
L 399.353217 166.279991 
L 401.707462 120.640864 
L 402.884585 97.377966 
L 404.061707 76.551836 
L 405.238829 58.64762 
L 406.415952 48.099776 
L 407.593074 41.924176 
L 408.770197 40.975932 
L 409.947319 44.384288 
L 411.124442 50.82027 
L 414.655809 73.88366 
L 415.832932 78.629634 
L 417.010054 78.990355 
L 418.187177 76.363392 
L 419.364299 71.582969 
L 421.718544 60.501272 
L 422.895667 56.733398 
L 424.072789 54.278213 
L 425.249912 54.824488 
L 426.427034 59.42446 
L 429.958402 79.312321 
L 431.135524 82.884948 
L 432.312647 82.795047 
L 433.489769 79.701328 
L 434.666892 70.534407 
L 438.198259 37.805 
L 439.375382 31.188153 
L 440.552504 30.390191 
L 441.729627 36.887822 
L 442.906749 52.334171 
L 444.083872 74.790635 
L 445.260994 101.244698 
L 447.615239 158.850988 
L 448.792362 183.659557 
L 449.969484 201.746863 
L 451.146607 210.85694 
L 452.323729 208.686389 
L 453.500852 196.68739 
L 454.677974 177.572144 
L 455.855097 152.639719 
L 458.209342 98.415378 
L 459.386464 76.105021 
L 460.563587 61.019381 
L 461.740709 53.980108 
L 462.917832 57.09386 
L 464.094954 71.133617 
L 465.272077 93.102497 
L 468.803444 174.904156 
L 469.980567 195.715171 
L 471.157689 207.325208 
L 472.334812 209.575522 
L 473.511934 203.459972 
L 474.689057 188.584808 
L 475.866179 166.613097 
L 478.220424 111.139509 
L 480.574669 57.08614 
L 481.751792 36.434258 
L 482.928914 23.721817 
L 484.106037 18.25554 
L 485.283159 19.724634 
L 486.460282 27.241074 
L 487.637404 39.542912 
L 488.814527 55.209474 
L 491.168772 91.203376 
L 493.523017 126.510775 
L 495.877262 156.735377 
L 497.054384 169.576232 
L 498.231507 180.922203 
L 500.585751 199.130234 
L 501.762874 205.826706 
L 502.939996 210.693352 
L 504.117119 213.52386 
L 505.294241 214.145612 
L 506.471364 212.501141 
L 507.648486 208.723874 
L 508.825609 204.303632 
L 510.002731 196.463234 
L 512.356976 182.961939 
L 513.534099 178.144416 
L 514.711221 175.865781 
L 515.888344 176.792437 
L 517.065466 181.193568 
L 518.242589 189.944826 
L 520.596834 211.396469 
L 521.773956 221.013673 
L 522.951079 228.038641 
L 524.128201 230.858011 
L 525.305324 228.182522 
L 526.482446 219.26527 
L 527.659569 202.953178 
L 528.836691 181.362457 
L 533.545181 85.482765 
L 534.722304 69.436646 
L 535.899426 60.565818 
L 537.076549 60.959765 
L 538.253671 67.301225 
L 539.430794 82.105241 
L 540.607916 102.538383 
L 544.139284 172.722673 
L 545.316406 190.268341 
L 545.316406 190.268341 
" clip-path="url(#p1cecc0eb2e)" style="fill: none; stroke: #1f77b4; stroke-linecap: square"/>
   </g>
   <g id="line2d_30">
    <path d="M 75.644531 131.233653 
L 79.175899 131.233653 
L 80.353021 132.347497 
L 81.530144 132.188108 
L 82.707266 131.772059 
L 85.061511 130.432915 
L 86.238634 129.759188 
L 87.415756 129.286357 
L 88.592879 129.150947 
L 89.770001 128.324819 
L 90.947124 129.204797 
L 92.124246 130.695247 
L 94.478491 134.523296 
L 95.655614 136.127543 
L 96.832736 137.000645 
L 98.009859 136.83963 
L 101.541226 129.300287 
L 102.718349 126.407075 
L 103.895471 123.976262 
L 105.072594 122.54387 
L 106.249716 122.541447 
L 107.426839 124.203296 
L 108.603961 126.382643 
L 109.781084 131.133472 
L 112.135329 142.543293 
L 113.312451 147.235207 
L 114.489574 149.802697 
L 115.666696 149.303233 
L 116.843819 145.111868 
L 118.020941 135.943393 
L 119.198064 124.547068 
L 121.552309 96.047624 
L 122.729431 81.849104 
L 123.906553 69.880141 
L 125.083676 61.680631 
L 126.260798 58.465838 
L 127.437921 59.851838 
L 128.615043 68.36971 
L 129.792166 82.534823 
L 130.969288 101.266715 
L 135.677778 187.336598 
L 136.854901 203.919835 
L 138.032023 214.383715 
L 139.209146 219.490316 
L 140.386268 219.640442 
L 141.563391 215.803439 
L 142.740513 209.348245 
L 145.094758 194.722409 
L 146.271881 190.37808 
L 147.449003 187.187146 
L 148.626126 186.426162 
L 149.803248 187.88504 
L 150.980371 190.971029 
L 153.334616 198.609848 
L 154.511738 201.448549 
L 155.688861 203.91797 
L 156.865983 203.41131 
L 158.043106 201.095549 
L 159.220228 197.504906 
L 160.397351 193.459935 
L 161.574473 189.911918 
L 162.751596 187.760156 
L 163.928718 187.673256 
L 165.105841 191.058671 
L 166.282963 195.363118 
L 169.814331 211.922385 
L 170.991453 214.840581 
L 172.168576 214.54291 
L 173.345698 210.234488 
L 174.522821 202.657695 
L 175.699943 188.517835 
L 176.877066 171.757715 
L 179.231311 131.233653 
L 181.585556 90.709591 
L 182.762678 73.94947 
L 183.939801 59.80961 
L 185.116923 52.232818 
L 186.294046 47.924396 
L 187.471168 47.626725 
L 188.648291 50.544921 
L 189.825413 55.581686 
L 192.179658 67.104188 
L 193.356781 72.522479 
L 194.533903 75.748505 
L 195.711026 75.245555 
L 196.888148 72.47347 
L 198.065271 68.206633 
L 199.242393 63.487936 
L 200.419516 59.42446 
L 201.596638 56.97329 
L 202.773761 55.640502 
L 203.950883 58.9899 
L 205.128006 63.319052 
L 207.482251 74.78592 
L 208.659373 79.476155 
L 209.836496 81.808136 
L 211.013618 80.886137 
L 212.190741 75.24595 
L 213.367863 68.625497 
L 216.89923 39.406476 
L 218.076353 34.137081 
L 219.253475 34.284784 
L 220.430598 41.053234 
L 221.60772 53.696461 
L 222.784843 75.030526 
L 223.961965 100.167886 
L 226.31621 155.474652 
L 227.493333 179.769635 
L 228.670455 198.002063 
L 229.847578 207.975811 
L 231.0247 207.325208 
L 232.201823 197.314883 
L 233.378945 180.362065 
L 234.556068 157.401135 
L 236.910313 105.06617 
L 238.087435 82.105241 
L 239.264558 65.152423 
L 240.44168 55.142098 
L 241.618803 54.491495 
L 242.795925 64.465243 
L 243.973048 82.697671 
L 245.15017 106.992653 
L 248.681538 187.436779 
L 249.85866 208.770845 
L 251.035783 221.414071 
L 252.212905 228.182522 
L 253.390028 228.330224 
L 254.56715 223.06083 
L 255.744273 214.174823 
L 258.098518 193.841808 
L 259.27564 184.993667 
L 260.452763 179.672259 
L 261.629885 179.582358 
L 262.807008 183.154985 
L 263.98413 189.282861 
L 266.338375 203.042845 
L 267.515498 207.642818 
L 268.69262 210.416782 
L 269.869743 207.642818 
L 271.046865 203.042845 
L 274.578233 183.154985 
L 275.755355 179.582358 
L 276.932478 179.672259 
L 278.1096 184.993667 
L 279.286723 193.841808 
L 282.81809 223.06083 
L 283.995213 228.330224 
L 285.172335 228.182522 
L 286.349458 221.414071 
L 287.52658 206.543156 
L 288.703703 185.527869 
L 291.057948 134.701073 
L 292.23507 108.594129 
L 293.412193 85.6466 
L 294.589315 68.359835 
L 295.766438 58.656907 
L 296.94356 56.504387 
L 298.120683 65.392314 
L 299.297805 81.028429 
L 300.474928 102.702218 
L 304.006295 176.617265 
L 305.183418 194.433753 
L 306.36054 205.964026 
L 307.537663 208.603303 
L 308.714785 200.791983 
L 309.891908 184.531051 
L 311.06903 161.635286 
L 314.600397 79.163568 
L 315.77752 57.08614 
L 316.954642 40.359779 
L 318.131765 28.69322 
L 319.308887 23.568421 
L 320.48601 24.702446 
L 321.663132 31.294831 
L 322.840255 42.2109 
L 325.1945 70.87392 
L 327.548745 105.453874 
L 329.90299 137.81294 
L 332.257235 167.470604 
L 333.434357 180.954574 
L 335.788602 203.881401 
L 336.965725 212.495081 
L 338.142847 218.57039 
L 339.31997 221.648603 
L 340.497092 221.355484 
L 341.674215 217.466485 
L 342.851337 209.955724 
L 344.02846 197.906835 
L 346.382705 167.470604 
L 349.914072 115.074343 
L 352.268317 81.620432 
L 353.44544 68.150449 
L 355.799685 46.077633 
L 356.976807 38.420199 
L 358.15393 34.239415 
L 359.331052 34.109136 
L 360.508175 38.43824 
L 361.685297 47.37395 
L 362.86242 59.609311 
L 364.039542 75.93371 
L 366.393787 119.414618 
L 368.748032 163.831535 
L 369.925155 182.187028 
L 371.102277 196.191869 
L 372.2794 204.019984 
L 373.456522 206.965758 
L 374.633645 206.931378 
L 375.810767 203.82529 
L 378.165012 193.980952 
L 379.342135 190.145325 
L 380.519257 188.588838 
L 381.69638 188.783944 
L 382.873502 194.114071 
L 384.050625 200.574638 
L 386.40487 215.125336 
L 387.581992 219.842721 
L 388.759115 220.57099 
L 389.936237 215.99654 
L 391.11336 206.543156 
L 392.290482 190.945401 
L 393.467605 168.83414 
L 396.998972 91.712416 
L 398.176095 71.542274 
L 399.353217 58.384645 
L 400.53034 54.941799 
L 401.707462 58.384645 
L 402.884585 71.542274 
L 404.061707 91.712416 
L 406.415952 143.188577 
L 407.593074 168.83414 
L 408.770197 190.945401 
L 409.947319 206.543156 
L 411.124442 215.99654 
L 412.301564 220.57099 
L 413.478687 219.842721 
L 414.655809 215.125336 
L 418.187177 194.114071 
L 419.364299 191.011633 
L 420.541422 190.497749 
L 421.718544 191.222136 
L 422.895667 193.817118 
L 425.249912 200.876361 
L 426.427034 203.036786 
L 427.604157 202.800345 
L 428.781279 200.430006 
L 429.958402 194.043067 
L 431.135524 182.187028 
L 432.312647 166.359322 
L 433.489769 147.34991 
L 438.198259 62.332782 
L 439.375382 46.986349 
L 440.552504 34.571508 
L 441.729627 26.983767 
L 442.906749 24.702446 
L 444.083872 27.879485 
L 445.260994 36.332613 
L 446.438117 49.555122 
L 447.615239 65.627278 
L 448.792362 84.85029 
L 452.323729 152.098316 
L 453.500852 171.205242 
L 454.677974 186.07556 
L 455.855097 195.514809 
L 457.032219 199.850876 
L 458.209342 197.423719 
L 459.386464 187.152372 
L 460.563587 171.041407 
L 461.740709 150.49684 
L 465.272077 80.684878 
L 466.449199 62.037299 
L 467.626322 47.406321 
L 468.803444 36.332613 
L 469.980567 30.407272 
L 471.157689 29.680258 
L 472.334812 33.822618 
L 473.511934 42.2109 
L 474.689057 54.032891 
L 475.866179 67.283942 
L 481.751792 152.869678 
L 484.106037 182.863484 
L 485.283159 194.316856 
L 486.460282 203.881401 
L 487.637404 212.495081 
L 488.814527 218.57039 
L 489.991649 221.648603 
L 491.168772 221.355484 
L 492.345894 217.466485 
L 493.523017 209.955724 
L 494.700139 197.906835 
L 497.054384 167.470604 
L 500.585751 115.074343 
L 502.939996 81.620432 
L 504.117119 65.92276 
L 505.294241 54.660383 
L 506.471364 45.000821 
L 507.648486 38.584034 
L 508.825609 35.840891 
L 510.002731 37.058064 
L 511.179854 42.332832 
L 512.356976 51.539362 
L 514.711221 79.991422 
L 517.065466 116.722996 
L 519.419711 154.043755 
L 520.596834 170.653043 
L 521.773956 184.979915 
L 522.951079 195.478847 
L 524.128201 203.295647 
L 525.305324 209.721298 
L 526.482446 213.64228 
L 527.659569 215.125336 
L 528.836691 214.309446 
L 530.013814 211.424329 
L 532.368059 202.075943 
L 533.545181 196.463234 
L 535.899426 182.961939 
L 537.076549 178.144416 
L 538.253671 175.865781 
L 539.430794 176.792437 
L 540.607916 181.193568 
L 541.785039 187.717137 
L 545.316406 221.177508 
L 545.316406 221.177508 
" clip-path="url(#p1cecc0eb2e)" style="fill: none; stroke: #ff7f0e; stroke-linecap: square"/>
   </g>
   <g id="patch_3">
    <path d="M 52.160938 250.421875 
L 52.160938 7.2 
" style="fill: none; stroke: #000000; stroke-width: 0.8; stroke-linejoin: miter; stroke-linecap: square"/>
   </g>
   <g id="patch_4">
    <path d="M 568.8 250.421875 
L 568.8 7.2 
" style="fill: none; stroke: #000000; stroke-width: 0.8; stroke-linejoin: miter; stroke-linecap: square"/>
   </g>
   <g id="patch_5">
    <path d="M 52.160937 250.421875 
L 568.8 250.421875 
" style="fill: none; stroke: #000000; stroke-width: 0.8; stroke-linejoin: miter; stroke-linecap: square"/>
   </g>
   <g id="patch_6">
    <path d="M 52.160937 7.2 
L 568.8 7.2 
" style="fill: none; stroke: #000000; stroke-width: 0.8; stroke-linejoin: miter; stroke-linecap: square"/>
   </g>
   <g id="legend_1">
    <g id="patch_7">
     <path d="M 59.160938 44.55625 
L 116.15625 44.55625 
Q 118.15625 44.55625 118.15625 42.55625 
L 118.15625 14.2 
Q 118.15625 12.2 116.15625 12.2 
L 59.160938 12.2 
Q 57.160938 12.2 57.160938 14.2 
L 57.160938 42.55625 
Q 57.160938 44.55625 59.160938 44.55625 
z
" style="fill: #ffffff; opacity: 0.8; stroke: #cccccc; stroke-linejoin: miter"/>
    </g>
    <g id="line2d_31">
     <path d="M 61.160938 20.298437 
L 71.160938 20.298437 
L 81.160938 20.298437 
" style="fill: none; stroke: #1f77b4; stroke-linecap: square"/>
    </g>
    <g id="text_17">
     <!-- real -->
     <g transform="translate(89.160938 23.798437) scale(0.1 -0.1)">
      <defs>
       <path id="DejaVuSans-72" d="M 2631 2963 
Q 2534 3019 2420 3045 
Q 2306 3072 2169 3072 
Q 1681 3072 1420 2755 
Q 1159 2438 1159 1844 
L 1159 0 
L 581 0 
L 581 3500 
L 1159 3500 
L 1159 2956 
Q 1341 3275 1631 3429 
Q 1922 3584 2338 3584 
Q 2397 3584 2469 3576 
Q 2541 3569 2628 3553 
L 2631 2963 
z
" transform="scale(0.015625)"/>
      </defs>
      <use xlink:href="#DejaVuSans-72"/>
      <use xlink:href="#DejaVuSans-65" transform="translate(38.863281 0)"/>
      <use xlink:href="#DejaVuSans-61" transform="translate(100.386719 0)"/>
      <use xlink:href="#DejaVuSans-6c" transform="translate(161.666016 0)"/>
     </g>
    </g>
    <g id="line2d_32">
     <path d="M 61.160938 34.976562 
L 71.160938 34.976562 
L 81.160938 34.976562 
" style="fill: none; stroke: #ff7f0e; stroke-linecap: square"/>
    </g>
    <g id="text_18">
     <!-- imag -->
     <g transform="translate(89.160938 38.476562) scale(0.1 -0.1)">
      <defs>
       <path id="DejaVuSans-67" d="M 2906 1791 
Q 2906 2416 2648 2759 
Q 2391 3103 1925 3103 
Q 1463 3103 1205 2759 
Q 947 2416 947 1791 
Q 947 1169 1205 825 
Q 1463 481 1925 481 
Q 2391 481 2648 825 
Q 2906 1169 2906 1791 
z
M 3481 434 
Q 3481 -459 3084 -895 
Q 2688 -1331 1869 -1331 
Q 1566 -1331 1297 -1286 
Q 1028 -1241 775 -1147 
L 775 -588 
Q 1028 -725 1275 -790 
Q 1522 -856 1778 -856 
Q 2344 -856 2625 -561 
Q 2906 -266 2906 331 
L 2906 616 
Q 2728 306 2450 153 
Q 2172 0 1784 0 
Q 1141 0 747 490 
Q 353 981 353 1791 
Q 353 2603 747 3093 
Q 1141 3584 1784 3584 
Q 2172 3584 2450 3431 
Q 2728 3278 2906 2969 
L 2906 3500 
L 3481 3500 
L 3481 434 
z
" transform="scale(0.015625)"/>
      </defs>
      <use xlink:href="#DejaVuSans-69"/>
      <use xlink:href="#DejaVuSans-6d" transform="translate(27.783203 0)"/>
      <use xlink:href="#DejaVuSans-61" transform="translate(125.195312 0)"/>
      <use xlink:href="#DejaVuSans-67" transform="translate(186.474609 0)"/>
     </g>
    </g>
   </g>
  </g>
 </g>
 <defs>
  <clipPath id="p1cecc0eb2e">
   <rect x="52.160938" y="7.2" width="516.639063" height="243.221875"/>
  </clipPath>
 </defs>
</svg>
