<?xml version="1.0" encoding="utf-8" standalone="no"?>
<!DOCTYPE svg PUBLIC "-//W3C//DTD SVG 1.1//EN"
  "http://www.w3.org/Graphics/SVG/1.1/DTD/svg11.dtd">
<svg xmlns:xlink="http://www.w3.org/1999/xlink" width="576pt" height="288pt" viewBox="0 0 576 288" xmlns="http://www.w3.org/2000/svg" version="1.1">
 <metadata>
  <rdf:RDF xmlns:dc="http://purl.org/dc/elements/1.1/" xmlns:cc="http://creativecommons.org/ns#" xmlns:rdf="http://www.w3.org/1999/02/22-rdf-syntax-ns#">
   <cc:Work>
    <dc:type rdf:resource="http://purl.org/dc/dcmitype/StillImage"/>
    <dc:date>2025-05-12T21:37:44.664177</dc:date>
    <dc:format>image/svg+xml</dc:format>
    <dc:creator>
     <cc:Agent>
      <dc:title>Matplotlib v3.10.3, https://matplotlib.org/</dc:title>
     </cc:Agent>
    </dc:creator>
   </cc:Work>
  </rdf:RDF>
 </metadata>
 <defs>
  <style type="text/css">*{stroke-linejoin: round; stroke-linecap: butt}</style>
 </defs>
 <g id="figure_1">
  <g id="patch_1">
   <path d="M 0 288 
L 576 288 
L 576 0 
L 0 0 
z
" style="fill: #ffffff"/>
  </g>
  <g id="axes_1">
   <g id="patch_2">
    <path d="M 57.167188 250.421875 
L 568.8 250.421875 
L 568.8 24.12 
L 57.167188 24.12 
z
" style="fill: #ffffff"/>
   </g>
   <g id="matplotlib.axis_1">
    <g id="xtick_1">
     <g id="line2d_1">
      <path d="M 80.423224 250.421875 
L 80.423224 24.12 
" clip-path="url(#p21a3fac7bf)" style="fill: none; stroke-dasharray: 2.96,1.28; stroke-dashoffset: 0; stroke: #b0b0b0; stroke-opacity: 0.8; stroke-width: 0.8"/>
     </g>
     <g id="line2d_2">
      <defs>
       <path id="m6457a12d51" d="M 0 0 
L 0 3.5 
" style="stroke: #000000; stroke-width: 0.8"/>
      </defs>
      <g>
       <use xlink:href="#m6457a12d51" x="80.423224" y="250.421875" style="stroke: #000000; stroke-width: 0.8"/>
      </g>
     </g>
     <g id="text_1">
      <!-- 0 -->
      <g transform="translate(77.241974 265.020312) scale(0.1 -0.1)">
       <defs>
        <path id="DejaVuSans-30" d="M 2034 4250 
Q 1547 4250 1301 3770 
Q 1056 3291 1056 2328 
Q 1056 1369 1301 889 
Q 1547 409 2034 409 
Q 2525 409 2770 889 
Q 3016 1369 3016 2328 
Q 3016 3291 2770 3770 
Q 2525 4250 2034 4250 
z
M 2034 4750 
Q 2819 4750 3233 4129 
Q 3647 3509 3647 2328 
Q 3647 1150 3233 529 
Q 2819 -91 2034 -91 
Q 1250 -91 836 529 
Q 422 1150 422 2328 
Q 422 3509 836 4129 
Q 1250 4750 2034 4750 
z
" transform="scale(0.015625)"/>
       </defs>
       <use xlink:href="#DejaVuSans-30"/>
      </g>
     </g>
    </g>
    <g id="xtick_2">
     <g id="line2d_3">
      <path d="M 173.538305 250.421875 
L 173.538305 24.12 
" clip-path="url(#p21a3fac7bf)" style="fill: none; stroke-dasharray: 2.96,1.28; stroke-dashoffset: 0; stroke: #b0b0b0; stroke-opacity: 0.8; stroke-width: 0.8"/>
     </g>
     <g id="line2d_4">
      <g>
       <use xlink:href="#m6457a12d51" x="173.538305" y="250.421875" style="stroke: #000000; stroke-width: 0.8"/>
      </g>
     </g>
     <g id="text_2">
      <!-- 0.1 -->
      <g transform="translate(165.586742 265.020312) scale(0.1 -0.1)">
       <defs>
        <path id="DejaVuSans-2e" d="M 684 794 
L 1344 794 
L 1344 0 
L 684 0 
L 684 794 
z
" transform="scale(0.015625)"/>
        <path id="DejaVuSans-31" d="M 794 531 
L 1825 531 
L 1825 4091 
L 703 3866 
L 703 4441 
L 1819 4666 
L 2450 4666 
L 2450 531 
L 3481 531 
L 3481 0 
L 794 0 
L 794 531 
z
" transform="scale(0.015625)"/>
       </defs>
       <use xlink:href="#DejaVuSans-30"/>
       <use xlink:href="#DejaVuSans-2e" transform="translate(63.623047 0)"/>
       <use xlink:href="#DejaVuSans-31" transform="translate(95.410156 0)"/>
      </g>
     </g>
    </g>
    <g id="xtick_3">
     <g id="line2d_5">
      <path d="M 266.653385 250.421875 
L 266.653385 24.12 
" clip-path="url(#p21a3fac7bf)" style="fill: none; stroke-dasharray: 2.96,1.28; stroke-dashoffset: 0; stroke: #b0b0b0; stroke-opacity: 0.8; stroke-width: 0.8"/>
     </g>
     <g id="line2d_6">
      <g>
       <use xlink:href="#m6457a12d51" x="266.653385" y="250.421875" style="stroke: #000000; stroke-width: 0.8"/>
      </g>
     </g>
     <g id="text_3">
      <!-- 0.2 -->
      <g transform="translate(258.701823 265.020312) scale(0.1 -0.1)">
       <defs>
        <path id="DejaVuSans-32" d="M 1228 531 
L 3431 531 
L 3431 0 
L 469 0 
L 469 531 
Q 828 903 1448 1529 
Q 2069 2156 2228 2338 
Q 2531 2678 2651 2914 
Q 2772 3150 2772 3378 
Q 2772 3750 2511 3984 
Q 2250 4219 1831 4219 
Q 1534 4219 1204 4116 
Q 875 4013 500 3803 
L 500 4441 
Q 881 4594 1212 4672 
Q 1544 4750 1819 4750 
Q 2544 4750 2975 4387 
Q 3406 4025 3406 3419 
Q 3406 3131 3298 2873 
Q 3191 2616 2906 2266 
Q 2828 2175 2409 1742 
Q 1991 1309 1228 531 
z
" transform="scale(0.015625)"/>
       </defs>
       <use xlink:href="#DejaVuSans-30"/>
       <use xlink:href="#DejaVuSans-2e" transform="translate(63.623047 0)"/>
       <use xlink:href="#DejaVuSans-32" transform="translate(95.410156 0)"/>
      </g>
     </g>
    </g>
    <g id="xtick_4">
     <g id="line2d_7">
      <path d="M 359.768466 250.421875 
L 359.768466 24.12 
" clip-path="url(#p21a3fac7bf)" style="fill: none; stroke-dasharray: 2.96,1.28; stroke-dashoffset: 0; stroke: #b0b0b0; stroke-opacity: 0.8; stroke-width: 0.8"/>
     </g>
     <g id="line2d_8">
      <g>
       <use xlink:href="#m6457a12d51" x="359.768466" y="250.421875" style="stroke: #000000; stroke-width: 0.8"/>
      </g>
     </g>
     <g id="text_4">
      <!-- 0.3 -->
      <g transform="translate(351.816903 265.020312) scale(0.1 -0.1)">
       <defs>
        <path id="DejaVuSans-33" d="M 2597 2516 
Q 3050 2419 3304 2112 
Q 3559 1806 3559 1356 
Q 3559 666 3084 287 
Q 2609 -91 1734 -91 
Q 1441 -91 1130 -33 
Q 819 25 488 141 
L 488 750 
Q 750 597 1062 519 
Q 1375 441 1716 441 
Q 2309 441 2620 675 
Q 2931 909 2931 1356 
Q 2931 1769 2642 2001 
Q 2353 2234 1838 2234 
L 1294 2234 
L 1294 2753 
L 1863 2753 
Q 2328 2753 2575 2939 
Q 2822 3125 2822 3475 
Q 2822 3834 2567 4026 
Q 2313 4219 1838 4219 
Q 1578 4219 1281 4162 
Q 984 4106 628 3988 
L 628 4550 
Q 988 4650 1302 4700 
Q 1616 4750 1894 4750 
Q 2613 4750 3031 4423 
Q 3450 4097 3450 3541 
Q 3450 3153 3228 2886 
Q 3006 2619 2597 2516 
z
" transform="scale(0.015625)"/>
       </defs>
       <use xlink:href="#DejaVuSans-30"/>
       <use xlink:href="#DejaVuSans-2e" transform="translate(63.623047 0)"/>
       <use xlink:href="#DejaVuSans-33" transform="translate(95.410156 0)"/>
      </g>
     </g>
    </g>
    <g id="xtick_5">
     <g id="line2d_9">
      <path d="M 452.883546 250.421875 
L 452.883546 24.12 
" clip-path="url(#p21a3fac7bf)" style="fill: none; stroke-dasharray: 2.96,1.28; stroke-dashoffset: 0; stroke: #b0b0b0; stroke-opacity: 0.8; stroke-width: 0.8"/>
     </g>
     <g id="line2d_10">
      <g>
       <use xlink:href="#m6457a12d51" x="452.883546" y="250.421875" style="stroke: #000000; stroke-width: 0.8"/>
      </g>
     </g>
     <g id="text_5">
      <!-- 0.4 -->
      <g transform="translate(444.931984 265.020312) scale(0.1 -0.1)">
       <defs>
        <path id="DejaVuSans-34" d="M 2419 4116 
L 825 1625 
L 2419 1625 
L 2419 4116 
z
M 2253 4666 
L 3047 4666 
L 3047 1625 
L 3713 1625 
L 3713 1100 
L 3047 1100 
L 3047 0 
L 2419 0 
L 2419 1100 
L 313 1100 
L 313 1709 
L 2253 4666 
z
" transform="scale(0.015625)"/>
       </defs>
       <use xlink:href="#DejaVuSans-30"/>
       <use xlink:href="#DejaVuSans-2e" transform="translate(63.623047 0)"/>
       <use xlink:href="#DejaVuSans-34" transform="translate(95.410156 0)"/>
      </g>
     </g>
    </g>
    <g id="xtick_6">
     <g id="line2d_11">
      <path d="M 545.998627 250.421875 
L 545.998627 24.12 
" clip-path="url(#p21a3fac7bf)" style="fill: none; stroke-dasharray: 2.96,1.28; stroke-dashoffset: 0; stroke: #b0b0b0; stroke-opacity: 0.8; stroke-width: 0.8"/>
     </g>
     <g id="line2d_12">
      <g>
       <use xlink:href="#m6457a12d51" x="545.998627" y="250.421875" style="stroke: #000000; stroke-width: 0.8"/>
      </g>
     </g>
     <g id="text_6">
      <!-- 0.5 -->
      <g transform="translate(538.047064 265.020312) scale(0.1 -0.1)">
       <defs>
        <path id="DejaVuSans-35" d="M 691 4666 
L 3169 4666 
L 3169 4134 
L 1269 4134 
L 1269 2991 
Q 1406 3038 1543 3061 
Q 1681 3084 1819 3084 
Q 2600 3084 3056 2656 
Q 3513 2228 3513 1497 
Q 3513 744 3044 326 
Q 2575 -91 1722 -91 
Q 1428 -91 1123 -41 
Q 819 9 494 109 
L 494 744 
Q 775 591 1075 516 
Q 1375 441 1709 441 
Q 2250 441 2565 725 
Q 2881 1009 2881 1497 
Q 2881 1984 2565 2268 
Q 2250 2553 1709 2553 
Q 1456 2553 1204 2497 
Q 953 2441 691 2322 
L 691 4666 
z
" transform="scale(0.015625)"/>
       </defs>
       <use xlink:href="#DejaVuSans-30"/>
       <use xlink:href="#DejaVuSans-2e" transform="translate(63.623047 0)"/>
       <use xlink:href="#DejaVuSans-35" transform="translate(95.410156 0)"/>
      </g>
     </g>
    </g>
    <g id="text_7">
     <!-- Normalized frequency, $f/f_s$ -->
     <g transform="translate(247.383594 278.7) scale(0.1 -0.1)">
      <defs>
       <path id="DejaVuSans-4e" d="M 628 4666 
L 1478 4666 
L 3547 763 
L 3547 4666 
L 4159 4666 
L 4159 0 
L 3309 0 
L 1241 3903 
L 1241 0 
L 628 0 
L 628 4666 
z
" transform="scale(0.015625)"/>
       <path id="DejaVuSans-6f" d="M 1959 3097 
Q 1497 3097 1228 2736 
Q 959 2375 959 1747 
Q 959 1119 1226 758 
Q 1494 397 1959 397 
Q 2419 397 2687 759 
Q 2956 1122 2956 1747 
Q 2956 2369 2687 2733 
Q 2419 3097 1959 3097 
z
M 1959 3584 
Q 2709 3584 3137 3096 
Q 3566 2609 3566 1747 
Q 3566 888 3137 398 
Q 2709 -91 1959 -91 
Q 1206 -91 779 398 
Q 353 888 353 1747 
Q 353 2609 779 3096 
Q 1206 3584 1959 3584 
z
" transform="scale(0.015625)"/>
       <path id="DejaVuSans-72" d="M 2631 2963 
Q 2534 3019 2420 3045 
Q 2306 3072 2169 3072 
Q 1681 3072 1420 2755 
Q 1159 2438 1159 1844 
L 1159 0 
L 581 0 
L 581 3500 
L 1159 3500 
L 1159 2956 
Q 1341 3275 1631 3429 
Q 1922 3584 2338 3584 
Q 2397 3584 2469 3576 
Q 2541 3569 2628 3553 
L 2631 2963 
z
" transform="scale(0.015625)"/>
       <path id="DejaVuSans-6d" d="M 3328 2828 
Q 3544 3216 3844 3400 
Q 4144 3584 4550 3584 
Q 5097 3584 5394 3201 
Q 5691 2819 5691 2113 
L 5691 0 
L 5113 0 
L 5113 2094 
Q 5113 2597 4934 2840 
Q 4756 3084 4391 3084 
Q 3944 3084 3684 2787 
Q 3425 2491 3425 1978 
L 3425 0 
L 2847 0 
L 2847 2094 
Q 2847 2600 2669 2842 
Q 2491 3084 2119 3084 
Q 1678 3084 1418 2786 
Q 1159 2488 1159 1978 
L 1159 0 
L 581 0 
L 581 3500 
L 1159 3500 
L 1159 2956 
Q 1356 3278 1631 3431 
Q 1906 3584 2284 3584 
Q 2666 3584 2933 3390 
Q 3200 3197 3328 2828 
z
" transform="scale(0.015625)"/>
       <path id="DejaVuSans-61" d="M 2194 1759 
Q 1497 1759 1228 1600 
Q 959 1441 959 1056 
Q 959 750 1161 570 
Q 1363 391 1709 391 
Q 2188 391 2477 730 
Q 2766 1069 2766 1631 
L 2766 1759 
L 2194 1759 
z
M 3341 1997 
L 3341 0 
L 2766 0 
L 2766 531 
Q 2569 213 2275 61 
Q 1981 -91 1556 -91 
Q 1019 -91 701 211 
Q 384 513 384 1019 
Q 384 1609 779 1909 
Q 1175 2209 1959 2209 
L 2766 2209 
L 2766 2266 
Q 2766 2663 2505 2880 
Q 2244 3097 1772 3097 
Q 1472 3097 1187 3025 
Q 903 2953 641 2809 
L 641 3341 
Q 956 3463 1253 3523 
Q 1550 3584 1831 3584 
Q 2591 3584 2966 3190 
Q 3341 2797 3341 1997 
z
" transform="scale(0.015625)"/>
       <path id="DejaVuSans-6c" d="M 603 4863 
L 1178 4863 
L 1178 0 
L 603 0 
L 603 4863 
z
" transform="scale(0.015625)"/>
       <path id="DejaVuSans-69" d="M 603 3500 
L 1178 3500 
L 1178 0 
L 603 0 
L 603 3500 
z
M 603 4863 
L 1178 4863 
L 1178 4134 
L 603 4134 
L 603 4863 
z
" transform="scale(0.015625)"/>
       <path id="DejaVuSans-7a" d="M 353 3500 
L 3084 3500 
L 3084 2975 
L 922 459 
L 3084 459 
L 3084 0 
L 275 0 
L 275 525 
L 2438 3041 
L 353 3041 
L 353 3500 
z
" transform="scale(0.015625)"/>
       <path id="DejaVuSans-65" d="M 3597 1894 
L 3597 1613 
L 953 1613 
Q 991 1019 1311 708 
Q 1631 397 2203 397 
Q 2534 397 2845 478 
Q 3156 559 3463 722 
L 3463 178 
Q 3153 47 2828 -22 
Q 2503 -91 2169 -91 
Q 1331 -91 842 396 
Q 353 884 353 1716 
Q 353 2575 817 3079 
Q 1281 3584 2069 3584 
Q 2775 3584 3186 3129 
Q 3597 2675 3597 1894 
z
M 3022 2063 
Q 3016 2534 2758 2815 
Q 2500 3097 2075 3097 
Q 1594 3097 1305 2825 
Q 1016 2553 972 2059 
L 3022 2063 
z
" transform="scale(0.015625)"/>
       <path id="DejaVuSans-64" d="M 2906 2969 
L 2906 4863 
L 3481 4863 
L 3481 0 
L 2906 0 
L 2906 525 
Q 2725 213 2448 61 
Q 2172 -91 1784 -91 
Q 1150 -91 751 415 
Q 353 922 353 1747 
Q 353 2572 751 3078 
Q 1150 3584 1784 3584 
Q 2172 3584 2448 3432 
Q 2725 3281 2906 2969 
z
M 947 1747 
Q 947 1113 1208 752 
Q 1469 391 1925 391 
Q 2381 391 2643 752 
Q 2906 1113 2906 1747 
Q 2906 2381 2643 2742 
Q 2381 3103 1925 3103 
Q 1469 3103 1208 2742 
Q 947 2381 947 1747 
z
" transform="scale(0.015625)"/>
       <path id="DejaVuSans-20" transform="scale(0.015625)"/>
       <path id="DejaVuSans-66" d="M 2375 4863 
L 2375 4384 
L 1825 4384 
Q 1516 4384 1395 4259 
Q 1275 4134 1275 3809 
L 1275 3500 
L 2222 3500 
L 2222 3053 
L 1275 3053 
L 1275 0 
L 697 0 
L 697 3053 
L 147 3053 
L 147 3500 
L 697 3500 
L 697 3744 
Q 697 4328 969 4595 
Q 1241 4863 1831 4863 
L 2375 4863 
z
" transform="scale(0.015625)"/>
       <path id="DejaVuSans-71" d="M 947 1747 
Q 947 1113 1208 752 
Q 1469 391 1925 391 
Q 2381 391 2643 752 
Q 2906 1113 2906 1747 
Q 2906 2381 2643 2742 
Q 2381 3103 1925 3103 
Q 1469 3103 1208 2742 
Q 947 2381 947 1747 
z
M 2906 525 
Q 2725 213 2448 61 
Q 2172 -91 1784 -91 
Q 1150 -91 751 415 
Q 353 922 353 1747 
Q 353 2572 751 3078 
Q 1150 3584 1784 3584 
Q 2172 3584 2448 3432 
Q 2725 3281 2906 2969 
L 2906 3500 
L 3481 3500 
L 3481 -1331 
L 2906 -1331 
L 2906 525 
z
" transform="scale(0.015625)"/>
       <path id="DejaVuSans-75" d="M 544 1381 
L 544 3500 
L 1119 3500 
L 1119 1403 
Q 1119 906 1312 657 
Q 1506 409 1894 409 
Q 2359 409 2629 706 
Q 2900 1003 2900 1516 
L 2900 3500 
L 3475 3500 
L 3475 0 
L 2900 0 
L 2900 538 
Q 2691 219 2414 64 
Q 2138 -91 1772 -91 
Q 1169 -91 856 284 
Q 544 659 544 1381 
z
M 1991 3584 
L 1991 3584 
z
" transform="scale(0.015625)"/>
       <path id="DejaVuSans-6e" d="M 3513 2113 
L 3513 0 
L 2938 0 
L 2938 2094 
Q 2938 2591 2744 2837 
Q 2550 3084 2163 3084 
Q 1697 3084 1428 2787 
Q 1159 2491 1159 1978 
L 1159 0 
L 581 0 
L 581 3500 
L 1159 3500 
L 1159 2956 
Q 1366 3272 1645 3428 
Q 1925 3584 2291 3584 
Q 2894 3584 3203 3211 
Q 3513 2838 3513 2113 
z
" transform="scale(0.015625)"/>
       <path id="DejaVuSans-63" d="M 3122 3366 
L 3122 2828 
Q 2878 2963 2633 3030 
Q 2388 3097 2138 3097 
Q 1578 3097 1268 2742 
Q 959 2388 959 1747 
Q 959 1106 1268 751 
Q 1578 397 2138 397 
Q 2388 397 2633 464 
Q 2878 531 3122 666 
L 3122 134 
Q 2881 22 2623 -34 
Q 2366 -91 2075 -91 
Q 1284 -91 818 406 
Q 353 903 353 1747 
Q 353 2603 823 3093 
Q 1294 3584 2113 3584 
Q 2378 3584 2631 3529 
Q 2884 3475 3122 3366 
z
" transform="scale(0.015625)"/>
       <path id="DejaVuSans-79" d="M 2059 -325 
Q 1816 -950 1584 -1140 
Q 1353 -1331 966 -1331 
L 506 -1331 
L 506 -850 
L 844 -850 
Q 1081 -850 1212 -737 
Q 1344 -625 1503 -206 
L 1606 56 
L 191 3500 
L 800 3500 
L 1894 763 
L 2988 3500 
L 3597 3500 
L 2059 -325 
z
" transform="scale(0.015625)"/>
       <path id="DejaVuSans-2c" d="M 750 794 
L 1409 794 
L 1409 256 
L 897 -744 
L 494 -744 
L 750 256 
L 750 794 
z
" transform="scale(0.015625)"/>
       <path id="DejaVuSans-Oblique-66" d="M 3059 4863 
L 2969 4384 
L 2419 4384 
Q 2106 4384 1964 4261 
Q 1822 4138 1753 3809 
L 1691 3500 
L 2638 3500 
L 2553 3053 
L 1606 3053 
L 1013 0 
L 434 0 
L 1031 3053 
L 481 3053 
L 563 3500 
L 1113 3500 
L 1159 3744 
Q 1278 4363 1576 4613 
Q 1875 4863 2516 4863 
L 3059 4863 
z
" transform="scale(0.015625)"/>
       <path id="DejaVuSans-2f" d="M 1625 4666 
L 2156 4666 
L 531 -594 
L 0 -594 
L 1625 4666 
z
" transform="scale(0.015625)"/>
       <path id="DejaVuSans-Oblique-73" d="M 3200 3397 
L 3091 2853 
Q 2863 2978 2609 3040 
Q 2356 3103 2088 3103 
Q 1634 3103 1373 2948 
Q 1113 2794 1113 2528 
Q 1113 2219 1719 2053 
Q 1766 2041 1788 2034 
L 1972 1978 
Q 2547 1819 2739 1644 
Q 2931 1469 2931 1166 
Q 2931 609 2489 259 
Q 2047 -91 1331 -91 
Q 1053 -91 747 -37 
Q 441 16 72 128 
L 184 722 
Q 500 559 806 475 
Q 1113 391 1394 391 
Q 1816 391 2080 572 
Q 2344 753 2344 1031 
Q 2344 1331 1650 1516 
L 1591 1531 
L 1394 1581 
Q 956 1697 753 1886 
Q 550 2075 550 2369 
Q 550 2928 970 3256 
Q 1391 3584 2113 3584 
Q 2397 3584 2667 3537 
Q 2938 3491 3200 3397 
z
" transform="scale(0.015625)"/>
      </defs>
      <use xlink:href="#DejaVuSans-4e" transform="translate(0 0.015625)"/>
      <use xlink:href="#DejaVuSans-6f" transform="translate(74.804688 0.015625)"/>
      <use xlink:href="#DejaVuSans-72" transform="translate(135.986328 0.015625)"/>
      <use xlink:href="#DejaVuSans-6d" transform="translate(177.099609 0.015625)"/>
      <use xlink:href="#DejaVuSans-61" transform="translate(274.511719 0.015625)"/>
      <use xlink:href="#DejaVuSans-6c" transform="translate(335.791016 0.015625)"/>
      <use xlink:href="#DejaVuSans-69" transform="translate(363.574219 0.015625)"/>
      <use xlink:href="#DejaVuSans-7a" transform="translate(391.357422 0.015625)"/>
      <use xlink:href="#DejaVuSans-65" transform="translate(443.847656 0.015625)"/>
      <use xlink:href="#DejaVuSans-64" transform="translate(505.371094 0.015625)"/>
      <use xlink:href="#DejaVuSans-20" transform="translate(568.847656 0.015625)"/>
      <use xlink:href="#DejaVuSans-66" transform="translate(600.634766 0.015625)"/>
      <use xlink:href="#DejaVuSans-72" transform="translate(635.839844 0.015625)"/>
      <use xlink:href="#DejaVuSans-65" transform="translate(676.953125 0.015625)"/>
      <use xlink:href="#DejaVuSans-71" transform="translate(738.476562 0.015625)"/>
      <use xlink:href="#DejaVuSans-75" transform="translate(801.953125 0.015625)"/>
      <use xlink:href="#DejaVuSans-65" transform="translate(865.332031 0.015625)"/>
      <use xlink:href="#DejaVuSans-6e" transform="translate(926.855469 0.015625)"/>
      <use xlink:href="#DejaVuSans-63" transform="translate(990.234375 0.015625)"/>
      <use xlink:href="#DejaVuSans-79" transform="translate(1045.214844 0.015625)"/>
      <use xlink:href="#DejaVuSans-2c" transform="translate(1104.394531 0.015625)"/>
      <use xlink:href="#DejaVuSans-20" transform="translate(1136.181641 0.015625)"/>
      <use xlink:href="#DejaVuSans-Oblique-66" transform="translate(1167.96875 0.015625)"/>
      <use xlink:href="#DejaVuSans-2f" transform="translate(1203.173828 0.015625)"/>
      <use xlink:href="#DejaVuSans-Oblique-66" transform="translate(1236.865234 0.015625)"/>
      <use xlink:href="#DejaVuSans-Oblique-73" transform="translate(1272.070312 -16.390625) scale(0.7)"/>
     </g>
    </g>
   </g>
   <g id="matplotlib.axis_2">
    <g id="ytick_1">
     <g id="line2d_13">
      <path d="M 57.167188 224.317467 
L 568.8 224.317467 
" clip-path="url(#p21a3fac7bf)" style="fill: none; stroke-dasharray: 2.96,1.28; stroke-dashoffset: 0; stroke: #b0b0b0; stroke-opacity: 0.8; stroke-width: 0.8"/>
     </g>
     <g id="line2d_14">
      <defs>
       <path id="mf2e2e240ea" d="M 0 0 
L -3.5 0 
" style="stroke: #000000; stroke-width: 0.8"/>
      </defs>
      <g>
       <use xlink:href="#mf2e2e240ea" x="57.167188" y="224.317467" style="stroke: #000000; stroke-width: 0.8"/>
      </g>
     </g>
     <g id="text_8">
      <!-- −100 -->
      <g transform="translate(22.7 228.116686) scale(0.1 -0.1)">
       <defs>
        <path id="DejaVuSans-2212" d="M 678 2272 
L 4684 2272 
L 4684 1741 
L 678 1741 
L 678 2272 
z
" transform="scale(0.015625)"/>
       </defs>
       <use xlink:href="#DejaVuSans-2212"/>
       <use xlink:href="#DejaVuSans-31" transform="translate(83.789062 0)"/>
       <use xlink:href="#DejaVuSans-30" transform="translate(147.412109 0)"/>
       <use xlink:href="#DejaVuSans-30" transform="translate(211.035156 0)"/>
      </g>
     </g>
    </g>
    <g id="ytick_2">
     <g id="line2d_15">
      <path d="M 57.167188 190.003687 
L 568.8 190.003687 
" clip-path="url(#p21a3fac7bf)" style="fill: none; stroke-dasharray: 2.96,1.28; stroke-dashoffset: 0; stroke: #b0b0b0; stroke-opacity: 0.8; stroke-width: 0.8"/>
     </g>
     <g id="line2d_16">
      <g>
       <use xlink:href="#mf2e2e240ea" x="57.167188" y="190.003687" style="stroke: #000000; stroke-width: 0.8"/>
      </g>
     </g>
     <g id="text_9">
      <!-- −80 -->
      <g transform="translate(29.0625 193.802906) scale(0.1 -0.1)">
       <defs>
        <path id="DejaVuSans-38" d="M 2034 2216 
Q 1584 2216 1326 1975 
Q 1069 1734 1069 1313 
Q 1069 891 1326 650 
Q 1584 409 2034 409 
Q 2484 409 2743 651 
Q 3003 894 3003 1313 
Q 3003 1734 2745 1975 
Q 2488 2216 2034 2216 
z
M 1403 2484 
Q 997 2584 770 2862 
Q 544 3141 544 3541 
Q 544 4100 942 4425 
Q 1341 4750 2034 4750 
Q 2731 4750 3128 4425 
Q 3525 4100 3525 3541 
Q 3525 3141 3298 2862 
Q 3072 2584 2669 2484 
Q 3125 2378 3379 2068 
Q 3634 1759 3634 1313 
Q 3634 634 3220 271 
Q 2806 -91 2034 -91 
Q 1263 -91 848 271 
Q 434 634 434 1313 
Q 434 1759 690 2068 
Q 947 2378 1403 2484 
z
M 1172 3481 
Q 1172 3119 1398 2916 
Q 1625 2713 2034 2713 
Q 2441 2713 2670 2916 
Q 2900 3119 2900 3481 
Q 2900 3844 2670 4047 
Q 2441 4250 2034 4250 
Q 1625 4250 1398 4047 
Q 1172 3844 1172 3481 
z
" transform="scale(0.015625)"/>
       </defs>
       <use xlink:href="#DejaVuSans-2212"/>
       <use xlink:href="#DejaVuSans-38" transform="translate(83.789062 0)"/>
       <use xlink:href="#DejaVuSans-30" transform="translate(147.412109 0)"/>
      </g>
     </g>
    </g>
    <g id="ytick_3">
     <g id="line2d_17">
      <path d="M 57.167188 155.689908 
L 568.8 155.689908 
" clip-path="url(#p21a3fac7bf)" style="fill: none; stroke-dasharray: 2.96,1.28; stroke-dashoffset: 0; stroke: #b0b0b0; stroke-opacity: 0.8; stroke-width: 0.8"/>
     </g>
     <g id="line2d_18">
      <g>
       <use xlink:href="#mf2e2e240ea" x="57.167188" y="155.689908" style="stroke: #000000; stroke-width: 0.8"/>
      </g>
     </g>
     <g id="text_10">
      <!-- −60 -->
      <g transform="translate(29.0625 159.489127) scale(0.1 -0.1)">
       <defs>
        <path id="DejaVuSans-36" d="M 2113 2584 
Q 1688 2584 1439 2293 
Q 1191 2003 1191 1497 
Q 1191 994 1439 701 
Q 1688 409 2113 409 
Q 2538 409 2786 701 
Q 3034 994 3034 1497 
Q 3034 2003 2786 2293 
Q 2538 2584 2113 2584 
z
M 3366 4563 
L 3366 3988 
Q 3128 4100 2886 4159 
Q 2644 4219 2406 4219 
Q 1781 4219 1451 3797 
Q 1122 3375 1075 2522 
Q 1259 2794 1537 2939 
Q 1816 3084 2150 3084 
Q 2853 3084 3261 2657 
Q 3669 2231 3669 1497 
Q 3669 778 3244 343 
Q 2819 -91 2113 -91 
Q 1303 -91 875 529 
Q 447 1150 447 2328 
Q 447 3434 972 4092 
Q 1497 4750 2381 4750 
Q 2619 4750 2861 4703 
Q 3103 4656 3366 4563 
z
" transform="scale(0.015625)"/>
       </defs>
       <use xlink:href="#DejaVuSans-2212"/>
       <use xlink:href="#DejaVuSans-36" transform="translate(83.789062 0)"/>
       <use xlink:href="#DejaVuSans-30" transform="translate(147.412109 0)"/>
      </g>
     </g>
    </g>
    <g id="ytick_4">
     <g id="line2d_19">
      <path d="M 57.167188 121.376128 
L 568.8 121.376128 
" clip-path="url(#p21a3fac7bf)" style="fill: none; stroke-dasharray: 2.96,1.28; stroke-dashoffset: 0; stroke: #b0b0b0; stroke-opacity: 0.8; stroke-width: 0.8"/>
     </g>
     <g id="line2d_20">
      <g>
       <use xlink:href="#mf2e2e240ea" x="57.167188" y="121.376128" style="stroke: #000000; stroke-width: 0.8"/>
      </g>
     </g>
     <g id="text_11">
      <!-- −40 -->
      <g transform="translate(29.0625 125.175347) scale(0.1 -0.1)">
       <use xlink:href="#DejaVuSans-2212"/>
       <use xlink:href="#DejaVuSans-34" transform="translate(83.789062 0)"/>
       <use xlink:href="#DejaVuSans-30" transform="translate(147.412109 0)"/>
      </g>
     </g>
    </g>
    <g id="ytick_5">
     <g id="line2d_21">
      <path d="M 57.167188 87.062348 
L 568.8 87.062348 
" clip-path="url(#p21a3fac7bf)" style="fill: none; stroke-dasharray: 2.96,1.28; stroke-dashoffset: 0; stroke: #b0b0b0; stroke-opacity: 0.8; stroke-width: 0.8"/>
     </g>
     <g id="line2d_22">
      <g>
       <use xlink:href="#mf2e2e240ea" x="57.167188" y="87.062348" style="stroke: #000000; stroke-width: 0.8"/>
      </g>
     </g>
     <g id="text_12">
      <!-- −20 -->
      <g transform="translate(29.0625 90.861567) scale(0.1 -0.1)">
       <use xlink:href="#DejaVuSans-2212"/>
       <use xlink:href="#DejaVuSans-32" transform="translate(83.789062 0)"/>
       <use xlink:href="#DejaVuSans-30" transform="translate(147.412109 0)"/>
      </g>
     </g>
    </g>
    <g id="ytick_6">
     <g id="line2d_23">
      <path d="M 57.167188 52.748569 
L 568.8 52.748569 
" clip-path="url(#p21a3fac7bf)" style="fill: none; stroke-dasharray: 2.96,1.28; stroke-dashoffset: 0; stroke: #b0b0b0; stroke-opacity: 0.8; stroke-width: 0.8"/>
     </g>
     <g id="line2d_24">
      <g>
       <use xlink:href="#mf2e2e240ea" x="57.167188" y="52.748569" style="stroke: #000000; stroke-width: 0.8"/>
      </g>
     </g>
     <g id="text_13">
      <!-- 0 -->
      <g transform="translate(43.804688 56.547787) scale(0.1 -0.1)">
       <use xlink:href="#DejaVuSans-30"/>
      </g>
     </g>
    </g>
    <g id="text_14">
     <!-- Power (dB), $|H(\omega)|^2$ -->
     <g transform="translate(16.3 185.470937) rotate(-90) scale(0.1 -0.1)">
      <defs>
       <path id="DejaVuSans-50" d="M 1259 4147 
L 1259 2394 
L 2053 2394 
Q 2494 2394 2734 2622 
Q 2975 2850 2975 3272 
Q 2975 3691 2734 3919 
Q 2494 4147 2053 4147 
L 1259 4147 
z
M 628 4666 
L 2053 4666 
Q 2838 4666 3239 4311 
Q 3641 3956 3641 3272 
Q 3641 2581 3239 2228 
Q 2838 1875 2053 1875 
L 1259 1875 
L 1259 0 
L 628 0 
L 628 4666 
z
" transform="scale(0.015625)"/>
       <path id="DejaVuSans-77" d="M 269 3500 
L 844 3500 
L 1563 769 
L 2278 3500 
L 2956 3500 
L 3675 769 
L 4391 3500 
L 4966 3500 
L 4050 0 
L 3372 0 
L 2619 2869 
L 1863 0 
L 1184 0 
L 269 3500 
z
" transform="scale(0.015625)"/>
       <path id="DejaVuSans-28" d="M 1984 4856 
Q 1566 4138 1362 3434 
Q 1159 2731 1159 2009 
Q 1159 1288 1364 580 
Q 1569 -128 1984 -844 
L 1484 -844 
Q 1016 -109 783 600 
Q 550 1309 550 2009 
Q 550 2706 781 3412 
Q 1013 4119 1484 4856 
L 1984 4856 
z
" transform="scale(0.015625)"/>
       <path id="DejaVuSans-42" d="M 1259 2228 
L 1259 519 
L 2272 519 
Q 2781 519 3026 730 
Q 3272 941 3272 1375 
Q 3272 1813 3026 2020 
Q 2781 2228 2272 2228 
L 1259 2228 
z
M 1259 4147 
L 1259 2741 
L 2194 2741 
Q 2656 2741 2882 2914 
Q 3109 3088 3109 3444 
Q 3109 3797 2882 3972 
Q 2656 4147 2194 4147 
L 1259 4147 
z
M 628 4666 
L 2241 4666 
Q 2963 4666 3353 4366 
Q 3744 4066 3744 3513 
Q 3744 3084 3544 2831 
Q 3344 2578 2956 2516 
Q 3422 2416 3680 2098 
Q 3938 1781 3938 1306 
Q 3938 681 3513 340 
Q 3088 0 2303 0 
L 628 0 
L 628 4666 
z
" transform="scale(0.015625)"/>
       <path id="DejaVuSans-29" d="M 513 4856 
L 1013 4856 
Q 1481 4119 1714 3412 
Q 1947 2706 1947 2009 
Q 1947 1309 1714 600 
Q 1481 -109 1013 -844 
L 513 -844 
Q 928 -128 1133 580 
Q 1338 1288 1338 2009 
Q 1338 2731 1133 3434 
Q 928 4138 513 4856 
z
" transform="scale(0.015625)"/>
       <path id="DejaVuSans-7c" d="M 1344 4891 
L 1344 -1509 
L 813 -1509 
L 813 4891 
L 1344 4891 
z
" transform="scale(0.015625)"/>
       <path id="DejaVuSans-Oblique-48" d="M 1081 4666 
L 1716 4666 
L 1344 2753 
L 3634 2753 
L 4006 4666 
L 4641 4666 
L 3731 0 
L 3097 0 
L 3531 2222 
L 1241 2222 
L 806 0 
L 172 0 
L 1081 4666 
z
" transform="scale(0.015625)"/>
       <path id="DejaVuSans-Oblique-3c9" d="M 1369 -91 
Q 72 -91 434 1766 
Q 575 2500 1256 3500 
L 1875 3500 
Q 1231 2500 1088 1750 
Q 819 397 1519 397 
Q 2166 397 2478 2078 
L 3009 2078 
Q 2669 388 3316 397 
Q 4013 403 4275 1750 
Q 4419 2500 4169 3500 
L 4788 3500 
Q 5075 2500 4934 1766 
Q 4578 -94 3278 -91 
Q 2428 -88 2503 844 
Q 2194 -91 1369 -91 
z
" transform="scale(0.015625)"/>
      </defs>
      <use xlink:href="#DejaVuSans-50" transform="translate(0 0.765625)"/>
      <use xlink:href="#DejaVuSans-6f" transform="translate(60.302734 0.765625)"/>
      <use xlink:href="#DejaVuSans-77" transform="translate(121.484375 0.765625)"/>
      <use xlink:href="#DejaVuSans-65" transform="translate(203.271484 0.765625)"/>
      <use xlink:href="#DejaVuSans-72" transform="translate(264.794922 0.765625)"/>
      <use xlink:href="#DejaVuSans-20" transform="translate(305.908203 0.765625)"/>
      <use xlink:href="#DejaVuSans-28" transform="translate(337.695312 0.765625)"/>
      <use xlink:href="#DejaVuSans-64" transform="translate(376.708984 0.765625)"/>
      <use xlink:href="#DejaVuSans-42" transform="translate(440.185547 0.765625)"/>
      <use xlink:href="#DejaVuSans-29" transform="translate(508.789062 0.765625)"/>
      <use xlink:href="#DejaVuSans-2c" transform="translate(547.802734 0.765625)"/>
      <use xlink:href="#DejaVuSans-20" transform="translate(579.589844 0.765625)"/>
      <use xlink:href="#DejaVuSans-7c" transform="translate(611.376953 0.765625)"/>
      <use xlink:href="#DejaVuSans-Oblique-48" transform="translate(645.068359 0.765625)"/>
      <use xlink:href="#DejaVuSans-28" transform="translate(720.263672 0.765625)"/>
      <use xlink:href="#DejaVuSans-Oblique-3c9" transform="translate(759.277344 0.765625)"/>
      <use xlink:href="#DejaVuSans-29" transform="translate(843.017578 0.765625)"/>
      <use xlink:href="#DejaVuSans-7c" transform="translate(882.03125 0.765625)"/>
      <use xlink:href="#DejaVuSans-32" transform="translate(916.679688 39.046875) scale(0.7)"/>
     </g>
    </g>
   </g>
   <g id="line2d_25">
    <path d="M 80.423224 36.0929 
L 82.696542 35.993994 
L 85.879186 35.603485 
L 90.425821 35.039871 
L 92.699138 34.969998 
L 94.972456 35.100455 
L 97.700437 35.47769 
L 102.701735 36.22255 
L 104.975052 36.273153 
L 106.793706 36.106187 
L 109.067024 35.671676 
L 114.522985 34.492282 
L 116.341639 34.413132 
L 117.70563 34.558797 
L 119.06962 34.920952 
L 120.433611 35.534645 
L 121.797601 36.435235 
L 123.161591 37.660701 
L 124.525582 39.254775 
L 125.889572 41.271451 
L 127.253563 43.7821 
L 128.617553 46.887838 
L 129.981544 50.743537 
L 130.890871 53.852451 
L 131.800198 57.533811 
L 132.709524 62.00045 
L 133.618851 67.654611 
L 134.528178 75.42396 
L 134.982842 80.847539 
L 135.437505 88.515921 
L 136.346832 115.972313 
L 136.801496 95.08282 
L 137.256159 87.554354 
L 137.710823 83.200941 
L 138.165486 80.341675 
L 138.62015 78.374457 
L 139.074813 77.015846 
L 139.529477 76.111523 
L 139.98414 75.570024 
L 140.438804 75.334656 
L 140.893467 75.370066 
L 141.348131 75.655349 
L 141.802794 76.180477 
L 142.257458 76.944683 
L 143.166784 79.23364 
L 144.076111 82.730259 
L 144.985438 87.984059 
L 145.440102 91.676199 
L 145.894765 96.614719 
L 146.349429 103.940888 
L 146.804092 118.305836 
L 147.258756 127.008145 
L 147.713419 107.742905 
L 148.168083 100.049723 
L 148.622746 95.368004 
L 149.07741 92.139134 
L 149.532073 89.790077 
L 149.986737 88.04684 
L 150.4414 86.758259 
L 150.896064 85.833417 
L 151.350727 85.214808 
L 151.805391 84.865353 
L 152.260054 84.761612 
L 152.714718 84.890119 
L 153.169381 85.245491 
L 153.624044 85.829709 
L 154.078708 86.652366 
L 154.533371 87.731942 
L 155.442698 90.79874 
L 156.352025 95.535955 
L 156.806689 98.893469 
L 157.261352 103.370446 
L 157.716016 109.886124 
L 158.170679 121.653924 
L 158.625343 147.211872 
L 159.080006 117.508714 
L 159.53467 108.565402 
L 159.989333 103.311938 
L 160.443997 99.711862 
L 161.353324 95.095116 
L 162.262651 92.471328 
L 162.717314 91.666161 
L 163.171978 91.136623 
L 163.626641 90.856312 
L 164.081304 90.809252 
L 164.535968 90.987651 
L 164.990631 91.390884 
L 165.445295 92.025405 
L 165.899958 92.905579 
L 166.354622 94.055652 
L 167.263949 97.337541 
L 167.718612 99.619881 
L 168.173276 102.513607 
L 168.627939 106.296536 
L 169.082603 111.551563 
L 169.537266 119.875666 
L 169.99193 140.300063 
L 170.446593 130.844176 
L 170.901257 117.302552 
L 171.35592 110.59156 
L 171.810584 106.233068 
L 172.265247 103.10965 
L 173.174574 98.981628 
L 174.083901 96.602778 
L 174.538565 95.880176 
L 174.993228 95.41868 
L 175.447891 95.197354 
L 175.902555 95.20434 
L 176.357218 95.435264 
L 176.811882 95.892681 
L 177.266545 96.586395 
L 177.721209 97.534743 
L 178.175872 98.767222 
L 178.630536 100.329336 
L 179.085199 102.291608 
L 179.539863 104.767271 
L 179.994526 107.950589 
L 180.44919 112.212925 
L 180.903853 118.407297 
L 181.358517 129.380637 
L 181.81318 166.280738 
L 182.267844 127.324185 
L 182.722507 117.791853 
L 183.177171 112.259744 
L 183.631834 108.465863 
L 184.541161 103.551219 
L 185.450488 100.676947 
L 185.905151 99.754781 
L 186.359815 99.111481 
L 186.814478 98.719554 
L 187.269142 98.562136 
L 187.723805 98.630609 
L 188.178469 98.923487 
L 188.633132 99.446219 
L 189.087796 100.211886 
L 189.542459 101.242968 
L 189.997123 102.574727 
L 190.451786 104.261424 
L 190.90645 106.388063 
L 191.361113 109.094292 
L 191.815777 112.628907 
L 192.27044 117.49809 
L 192.725104 125.006975 
L 193.179767 141.1144 
L 193.634431 142.122857 
L 194.089094 125.622722 
L 194.543758 118.203169 
L 194.998421 113.492184 
L 195.453085 110.138759 
L 196.362411 105.694938 
L 197.271738 103.080386 
L 197.726402 102.253969 
L 198.181065 101.694119 
L 198.635729 101.378068 
L 199.090392 101.292525 
L 199.545056 101.431873 
L 199.999719 101.797449 
L 200.454383 102.397711 
L 200.909046 103.249337 
L 201.36371 104.379566 
L 201.818373 105.830556 
L 202.273037 107.667429 
L 202.7277 109.993873 
L 203.182364 112.985245 
L 203.637027 116.969039 
L 204.091691 122.667219 
L 204.546354 132.274364 
L 205.001018 168.093925 
L 205.455681 135.417087 
L 205.910345 124.477133 
L 206.365008 118.444235 
L 206.819671 114.373779 
L 207.728998 109.129615 
L 208.638325 106.037334 
L 209.092989 105.024464 
L 209.547652 104.29749 
L 210.002316 103.826675 
L 210.456979 103.593522 
L 210.911643 103.588115 
L 211.366306 103.80781 
L 211.82097 104.256903 
L 212.275633 104.947173 
L 212.730297 105.899458 
L 213.18496 107.146732 
L 213.639624 108.739769 
L 214.094287 110.757765 
L 214.548951 113.329656 
L 215.003614 116.681764 
L 215.458278 121.263258 
L 215.912941 128.178896 
L 216.822268 152.22985 
L 217.276931 131.697895 
L 217.731595 123.569156 
L 218.186258 118.541502 
L 218.640922 114.99684 
L 219.550249 110.312186 
L 220.459576 107.533222 
L 220.914239 106.637785 
L 221.368903 106.014077 
L 221.823566 105.637694 
L 222.27823 105.494121 
L 222.732893 105.576739 
L 223.187557 105.885965 
L 223.64222 106.429308 
L 224.096884 107.222337 
L 224.551547 108.29085 
L 225.006211 109.674933 
L 225.460874 111.43644 
L 225.915538 113.6734 
L 226.370201 116.550203 
L 226.824865 120.369621 
L 227.279528 125.783191 
L 227.734192 134.671402 
L 228.188855 160.523619 
L 228.643518 141.260874 
L 229.098182 129.185994 
L 229.552845 122.795528 
L 230.007509 118.537846 
L 230.916836 113.080762 
L 231.826163 109.853833 
L 232.280826 108.786335 
L 232.73549 108.009647 
L 233.190153 107.492532 
L 233.644817 107.215433 
L 234.09948 107.167621 
L 234.554144 107.345767 
L 235.008807 107.753518 
L 235.463471 108.401962 
L 235.918134 109.311103 
L 236.372798 110.512794 
L 236.827461 112.056143 
L 237.282125 114.017624 
L 237.736788 116.521241 
L 238.191452 119.783157 
L 238.646115 124.227472 
L 239.100778 130.875175 
L 239.555442 143.555054 
L 240.010105 159.34811 
L 240.464769 135.844803 
L 240.919432 127.315889 
L 241.374096 122.117209 
L 241.828759 118.47079 
L 242.738086 113.658786 
L 243.647413 110.793151 
L 244.102077 109.861468 
L 244.55674 109.204379 
L 245.011404 108.796663 
L 245.466067 108.623224 
L 245.920731 108.676984 
L 246.375394 108.957969 
L 246.830058 109.473317 
L 247.284721 110.238195 
L 247.739385 111.277907 
L 248.194048 112.63186 
L 248.648712 114.360874 
L 249.103375 116.56122 
L 249.558038 119.393931 
L 250.012702 123.154346 
L 250.467365 128.473326 
L 250.922029 137.143704 
L 251.376692 161.057701 
L 252.286019 132.363837 
L 252.740683 125.844209 
L 253.195346 121.517384 
L 254.104673 115.977743 
L 255.014 112.695366 
L 255.468664 111.604709 
L 255.923327 110.806748 
L 256.377991 110.269776 
L 256.832654 109.973924 
L 257.287318 109.908247 
L 257.741981 110.069259 
L 258.196645 110.46049 
L 258.651308 111.092934 
L 259.105972 111.98652 
L 259.560635 113.17303 
L 260.015298 114.701506 
L 260.469962 116.648336 
L 260.924625 119.137403 
L 261.379289 122.384653 
L 261.833952 126.813678 
L 262.288616 133.443836 
L 262.743279 146.093566 
L 263.197943 161.994407 
L 263.652606 138.408332 
L 264.10727 129.859752 
L 264.561933 124.646652 
L 265.016597 120.987569 
L 265.925924 116.152729 
L 266.835251 113.266389 
L 267.289914 112.325038 
L 267.744578 111.658738 
L 268.199241 111.2423 
L 268.653905 111.060672 
L 269.108568 111.106845 
L 269.563232 111.380949 
L 270.017895 111.890262 
L 270.472558 112.650158 
L 270.927222 113.686254 
L 271.381885 115.03844 
L 271.836549 116.76833 
L 272.291212 118.973598 
L 272.745876 121.818003 
L 273.200539 125.602973 
L 273.655203 130.976348 
L 274.109866 139.802867 
L 274.56453 165.267115 
L 275.019193 146.543535 
L 275.473857 134.375414 
L 275.92852 127.941801 
L 276.383184 123.651798 
L 277.292511 118.141337 
L 278.201838 114.868075 
L 278.656501 113.779173 
L 279.111165 112.982125 
L 279.565828 112.445684 
L 280.020492 112.150337 
L 280.475155 112.085443 
L 280.929819 112.247819 
L 281.384482 112.641329 
L 281.839145 113.277381 
L 282.293809 114.176454 
L 282.748472 115.371136 
L 283.203136 116.91171 
L 283.657799 118.87665 
L 284.112463 121.393663 
L 284.567126 124.686601 
L 285.02179 129.198582 
L 285.476453 136.014009 
L 286.38578 160.944213 
L 286.840444 139.7652 
L 287.295107 131.513297 
L 287.749771 126.414364 
L 288.204434 122.814933 
L 289.113761 118.0407 
L 290.023088 115.185187 
L 290.477752 114.254647 
L 290.932415 113.597642 
L 291.387079 113.189708 
L 291.841742 113.016364 
L 292.296405 113.071107 
L 292.751069 113.354571 
L 293.205732 113.874606 
L 293.660396 114.647304 
L 294.115059 115.699264 
L 294.569723 117.071838 
L 295.024386 118.828987 
L 295.47905 121.07248 
L 295.933713 123.974045 
L 296.388377 127.853036 
L 296.84304 133.408072 
L 297.297704 142.727083 
L 297.752367 174.351949 
L 298.207031 146.848373 
L 298.661694 135.52692 
L 299.116358 129.339387 
L 299.571021 125.166769 
L 300.480348 119.771147 
L 301.389675 116.556445 
L 301.844339 115.488309 
L 302.299002 114.709072 
L 302.753665 114.188676 
L 303.208329 113.908488 
L 303.662992 113.858592 
L 304.117656 114.036478 
L 304.572319 114.446716 
L 305.026983 115.10155 
L 305.481646 116.022547 
L 305.93631 117.243845 
L 306.390973 118.818119 
L 306.845637 120.827849 
L 307.3003 123.408127 
L 307.754964 126.798247 
L 308.209627 131.480157 
L 308.664291 138.672308 
L 309.118954 153.610987 
L 309.573618 158.235535 
L 310.028281 140.267311 
L 310.482945 132.513619 
L 310.937608 127.618614 
L 311.392272 124.131209 
L 312.301599 119.479418 
L 313.210925 116.693446 
L 313.665589 115.789183 
L 314.120252 115.155485 
L 314.574916 114.769139 
L 315.029579 114.616638 
L 315.484243 114.692328 
L 315.938906 114.997677 
L 316.39357 115.541463 
L 316.848233 116.340926 
L 317.302897 117.424238 
L 317.75756 118.835081 
L 318.212224 120.641171 
L 318.666887 122.950894 
L 319.121551 125.948983 
L 319.576214 129.984638 
L 320.030878 135.843846 
L 320.485541 146.028634 
L 320.940205 218.549469 
L 321.394868 146.313061 
L 321.849532 136.066001 
L 322.304195 130.221565 
L 322.758859 126.219942 
L 323.668185 120.999445 
L 324.577512 117.87943 
L 325.032176 116.846165 
L 325.486839 116.09737 
L 325.941503 115.604694 
L 326.396166 115.350768 
L 326.85083 115.32672 
L 327.305493 115.531002 
L 327.760157 115.969197 
L 328.21482 116.654738 
L 328.669484 117.61075 
L 329.124147 118.873594 
L 329.578811 120.499396 
L 330.033474 122.576474 
L 330.488138 125.250818 
L 330.942801 128.784938 
L 331.397465 133.720982 
L 331.852128 141.497859 
L 332.306792 159.345158 
L 332.761455 155.210706 
L 333.216119 140.208045 
L 333.670782 133.044015 
L 334.125446 128.40511 
L 335.034772 122.533652 
L 335.944099 119.054904 
L 336.853426 117.02076 
L 337.30809 116.420769 
L 337.762753 116.065831 
L 338.217417 115.943703 
L 338.67208 116.049838 
L 339.126744 116.386801 
L 339.581407 116.964596 
L 340.036071 117.801993 
L 340.490734 118.929265 
L 340.945398 120.393249 
L 341.400061 122.266784 
L 341.854725 124.667408 
L 342.309388 127.798191 
L 342.764052 132.051591 
L 343.218715 138.346608 
L 343.673379 149.895208 
L 344.128042 175.271927 
L 344.582706 145.335495 
L 345.037369 136.183987 
L 345.492032 130.726722 
L 345.946696 126.926471 
L 346.856023 121.919689 
L 347.76535 118.919476 
L 348.220013 117.931252 
L 348.674677 117.222173 
L 349.12934 116.765926 
L 349.584004 116.546672 
L 350.038667 116.556811 
L 350.493331 116.795989 
L 350.947994 117.271053 
L 351.402658 117.99694 
L 351.857321 118.998765 
L 352.311985 120.315761 
L 352.766648 122.008567 
L 353.221312 124.173232 
L 353.675975 126.970447 
L 354.130639 130.694873 
L 354.585302 135.975579 
L 355.039966 144.59803 
L 355.494629 168.330938 
L 356.403956 139.795089 
L 356.858619 133.237415 
L 357.313283 128.878593 
L 358.22261 123.282081 
L 359.131937 119.948381 
L 360.041264 118.013037 
L 360.495927 117.454498 
L 360.950591 117.138419 
L 361.405254 117.054026 
L 361.859918 117.198079 
L 362.314581 117.574456 
L 362.769245 118.194649 
L 363.223908 119.079317 
L 363.678572 120.26136 
L 364.133235 121.791597 
L 364.587899 123.749451 
L 365.042562 126.264411 
L 365.497226 129.564081 
L 365.951889 134.100975 
L 366.406552 140.991402 
L 366.861216 154.705739 
L 367.315879 164.410111 
L 367.770543 144.146833 
L 368.225206 136.011858 
L 368.67987 130.951339 
L 369.134533 127.366556 
L 370.04386 122.596409 
L 370.953187 119.733099 
L 371.407851 118.797234 
L 371.862514 118.134717 
L 372.317178 117.721477 
L 372.771841 117.543379 
L 373.226505 117.594266 
L 373.681168 117.875161 
L 374.135832 118.394396 
L 374.590495 119.168711 
L 375.045159 120.225631 
L 375.499822 121.607928 
L 375.954486 123.381879 
L 376.409149 125.653362 
L 376.863812 128.602193 
L 377.318476 132.566233 
L 377.773139 138.297897 
L 378.227803 148.135498 
L 378.682466 192.23945 
L 379.13713 149.790071 
L 379.591793 139.163818 
L 380.046457 133.186934 
L 380.50112 129.113196 
L 381.410447 123.808422 
L 382.319774 120.634129 
L 382.774438 119.57874 
L 383.229101 118.80982 
L 383.683765 118.298452 
L 384.138428 118.026873 
L 384.593092 117.985921 
L 385.047755 118.173813 
L 385.502419 118.595923 
L 385.957082 119.265477 
L 386.411746 120.205364 
L 386.866409 121.451642 
L 387.321073 123.059995 
L 387.775736 125.118016 
L 388.230399 127.770361 
L 388.685063 131.276696 
L 389.139726 136.171705 
L 389.59439 143.866147 
L 390.049053 161.30507 
L 390.503717 158.180361 
L 390.95838 142.880532 
L 391.413044 135.643598 
L 391.867707 130.967266 
L 392.777034 125.051207 
L 393.686361 121.541983 
L 394.595688 119.483085 
L 395.050352 118.871995 
L 395.505015 118.506597 
L 395.959679 118.374565 
L 396.414342 118.471306 
L 396.869006 118.79937 
L 397.323669 119.368774 
L 397.778333 120.198337 
L 398.232996 121.318426 
L 398.687659 122.776046 
L 399.142323 124.644338 
L 399.596986 127.041401 
L 400.05165 130.171467 
L 400.506313 134.4298 
L 400.960977 140.744322 
L 401.41564 152.378352 
L 401.870304 176.664829 
L 402.324967 147.506431 
L 402.779631 138.405285 
L 403.234294 132.961967 
L 403.688958 129.165658 
L 404.598285 124.156672 
L 405.507612 121.149684 
L 405.962275 120.157556 
L 406.416939 119.444524 
L 406.871602 118.984427 
L 407.326266 118.76156 
L 407.780929 118.768456 
L 408.235593 119.004911 
L 408.690256 119.47796 
L 409.144919 120.202789 
L 409.599583 121.20487 
L 410.054246 122.523978 
L 410.50891 124.221631 
L 410.963573 126.395416 
L 411.418237 129.209002 
L 411.8729 132.963693 
L 412.327564 138.307062 
L 412.782227 147.102828 
L 413.236891 172.516486 
L 413.691554 153.801342 
L 414.146218 141.602203 
L 414.600881 135.141394 
L 415.055545 130.825495 
L 415.964872 125.265857 
L 416.874199 121.946608 
L 417.783526 120.018125 
L 418.238189 119.461914 
L 418.692853 119.147961 
L 419.147516 119.065809 
L 419.602179 119.212521 
L 420.056843 119.592302 
L 420.511506 120.217045 
L 420.96617 121.107941 
L 421.420833 122.298654 
L 421.875497 123.841199 
L 422.33016 125.816999 
L 422.784824 128.359245 
L 423.239487 131.70329 
L 423.694151 136.321129 
L 424.148814 143.396322 
L 424.603478 157.893765 
L 425.058141 164.127328 
L 425.512805 145.457465 
L 425.967468 137.568166 
L 426.422132 132.60593 
L 426.876795 129.0734 
L 427.786122 124.356979 
L 428.695449 121.521136 
L 429.150113 120.594865 
L 429.604776 119.940548 
L 430.059439 119.534755 
L 430.514103 119.363859 
L 430.968766 119.422156 
L 431.42343 119.711121 
L 431.878093 120.239604 
L 432.332757 121.024991 
L 432.78742 122.095709 
L 433.242084 123.495874 
L 433.696747 125.293949 
L 434.151411 127.599684 
L 434.606074 130.600567 
L 435.060738 134.652243 
L 435.515401 140.560089 
L 435.970065 150.9235 
L 436.424728 210.413992 
L 436.879392 150.407387 
L 437.334055 140.337 
L 437.788719 134.542392 
L 438.243382 130.559063 
L 439.152709 125.34446 
L 440.062036 122.216304 
L 440.5167 121.177173 
L 440.971363 120.422129 
L 441.426026 119.923216 
L 441.88069 119.663392 
L 442.335353 119.634098 
L 442.790017 119.834124 
L 443.24468 120.269456 
L 443.699344 120.95405 
L 444.154007 121.91177 
L 444.608671 123.180078 
L 445.063334 124.816866 
L 445.517998 126.913493 
L 445.972661 129.621731 
L 446.427325 133.216656 
L 446.881988 138.273935 
L 447.336652 146.36212 
L 447.791315 166.160744 
L 448.245979 157.504983 
L 448.700642 143.600438 
L 449.155306 136.683935 
L 449.609969 132.150303 
L 450.519296 126.368246 
L 451.428623 122.925215 
L 452.33795 120.908778 
L 452.792613 120.314925 
L 453.247277 119.965513 
L 453.70194 119.848987 
L 454.156604 119.961442 
L 454.611267 120.306123 
L 455.065931 120.893843 
L 455.520594 121.744431 
L 455.975258 122.889667 
L 456.429921 124.378695 
L 456.884585 126.288188 
L 457.339248 128.74264 
L 457.793912 131.959352 
L 458.248575 136.365342 
L 458.703239 142.99137 
L 459.612566 170.762081 
L 460.067229 147.627325 
L 460.521893 139.100444 
L 460.976556 133.875346 
L 461.43122 130.194897 
L 462.340546 125.308963 
L 463.249873 122.369698 
L 463.704537 121.40259 
L 464.1592 120.711431 
L 464.613864 120.271312 
L 465.068527 120.067481 
L 465.523191 120.093282 
L 465.977854 120.34929 
L 466.432518 120.843384 
L 466.887181 121.591783 
L 467.341845 122.621342 
L 467.796508 123.973871 
L 468.251172 125.714132 
L 468.705835 127.945367 
L 469.160499 130.842239 
L 469.615162 134.730842 
L 470.069826 140.329272 
L 470.524489 149.814517 
L 470.979153 184.788468 
L 471.433816 152.967516 
L 471.88848 141.897532 
L 472.343143 135.771331 
L 472.797806 131.617408 
L 473.707133 126.219613 
L 474.61646 122.985392 
L 475.071124 121.905434 
L 475.525787 121.114028 
L 475.980451 120.581618 
L 476.435114 120.289989 
L 476.889778 120.229629 
L 477.344441 120.398464 
L 477.799105 120.801595 
L 478.253768 121.451951 
L 478.708432 122.372069 
L 479.163095 123.597525 
L 479.617759 125.183281 
L 480.072422 127.215726 
L 480.527086 129.83728 
L 480.981749 133.302839 
L 481.436413 138.134613 
L 481.891076 145.696833 
L 482.34574 162.48504 
L 482.800403 161.082192 
L 483.255066 145.249528 
L 483.70973 137.890282 
L 484.164393 133.154141 
L 485.07372 127.170722 
L 485.983047 123.617764 
L 486.892374 121.523981 
L 487.347038 120.897188 
L 487.801701 120.516829 
L 488.256365 120.370376 
L 488.711028 120.453081 
L 489.165692 120.767361 
L 489.620355 121.323111 
L 490.075019 122.139019 
L 490.529682 123.245296 
L 490.984346 124.688728 
L 491.439009 126.542118 
L 491.893673 128.922975 
L 492.348336 132.03435 
L 492.803 136.268693 
L 493.257663 142.545025 
L 493.712327 154.075505 
L 494.16699 179.429622 
L 494.621653 149.478531 
L 495.076317 140.309656 
L 495.53098 134.835176 
L 495.985644 131.017973 
L 496.894971 125.978205 
L 497.804298 122.946387 
L 498.258961 121.942954 
L 498.713625 121.219117 
L 499.168288 120.748623 
L 499.622952 120.515708 
L 500.077615 120.512876 
L 500.532279 120.739911 
L 500.986942 121.203853 
L 501.441606 121.919919 
L 501.896269 122.913635 
L 502.350933 124.224873 
L 502.805596 125.915322 
L 503.26026 128.082877 
L 503.714923 130.891817 
L 504.169587 134.64482 
L 504.62425 139.993319 
L 505.078913 148.817572 
L 505.533577 174.603318 
L 505.98824 155.286288 
L 506.442904 143.151048 
L 506.897567 136.702111 
L 507.352231 132.387417 
L 508.261558 126.82059 
L 509.170885 123.48996 
L 510.080212 121.548943 
L 510.534875 120.986411 
L 510.989539 120.66623 
L 511.444202 120.57803 
L 511.898866 120.718962 
L 512.353529 121.093343 
L 512.808193 121.713205 
L 513.262856 122.599931 
L 513.71752 123.787478 
L 514.172183 125.328311 
L 514.626847 127.304628 
L 515.08151 129.851059 
L 515.536173 133.205985 
L 515.990837 137.849101 
L 516.4455 144.990973 
L 516.900164 159.805763 
L 517.354827 164.761492 
L 517.809491 146.619451 
L 518.264154 138.813436 
L 518.718818 133.881464 
L 519.628145 127.708136 
L 520.537472 124.053258 
L 521.446799 121.888327 
L 521.901462 121.23134 
L 522.356126 120.822661 
L 522.810789 120.648863 
L 523.265453 120.704423 
L 523.720116 120.991009 
L 524.17478 121.517692 
L 524.629443 122.302143 
L 525.084107 123.37319 
L 525.53877 124.775554 
L 525.993433 126.578687 
L 526.448097 128.894104 
L 526.90276 131.912819 
L 527.357424 135.998736 
L 527.812087 141.982257 
L 528.266751 152.591426 
L 528.721414 196.370138 
L 529.176078 151.104235 
L 529.630741 141.255256 
L 530.085405 135.532146 
L 530.540068 131.581987 
L 531.449395 126.395284 
L 532.358722 123.276223 
L 532.813386 122.238738 
L 533.268049 121.484342 
L 533.722713 120.985497 
L 534.177376 120.725483 
L 534.63204 120.696011 
L 535.086703 120.896133 
L 535.541367 121.332119 
L 535.99603 122.01827 
L 536.450693 122.978913 
L 536.905357 124.252187 
L 537.36002 125.897049 
L 537.814684 128.006694 
L 538.269347 130.736389 
L 538.724011 134.368862 
L 539.178674 139.500482 
L 539.633338 147.78237 
L 540.088001 168.956827 
L 541.451992 137.383598 
L 541.906655 132.908728 
L 542.815982 127.176978 
L 543.725309 123.753698 
L 544.634636 121.746255 
L 545.0893 121.155101 
L 545.543963 120.807842 
L 545.543963 120.807842 
" clip-path="url(#p21a3fac7bf)" style="fill: none; stroke: #1f77b4; stroke-linecap: square"/>
   </g>
   <g id="line2d_26">
    <path d="M 80.423224 35.579792 
L 106.793706 35.679791 
L 110.431014 35.959087 
L 113.613658 36.416724 
L 116.796303 37.100279 
L 119.978947 38.006293 
L 123.161591 39.120408 
L 126.344236 40.451135 
L 129.072217 41.814606 
L 131.345534 43.176639 
L 133.618851 44.829245 
L 135.437505 46.430392 
L 137.256159 48.349597 
L 139.074813 50.664308 
L 140.438804 52.715812 
L 141.802794 55.09135 
L 143.166784 57.852279 
L 144.530775 61.079446 
L 145.894765 64.886228 
L 147.258756 69.444633 
L 148.622746 75.044454 
L 149.532073 79.614663 
L 150.4414 85.211701 
L 151.350727 92.526745 
L 151.805391 97.324887 
L 152.260054 103.563446 
L 152.714718 112.838966 
L 153.169381 134.131506 
L 153.624044 125.74436 
L 154.078708 113.078627 
L 154.533371 107.255422 
L 154.988035 103.781437 
L 155.442698 101.540634 
L 155.897362 100.08382 
L 156.352025 99.187936 
L 156.806689 98.729068 
L 157.261352 98.634599 
L 157.716016 98.862157 
L 158.170679 99.389612 
L 158.625343 100.210445 
L 159.080006 101.332368 
L 159.989333 104.592157 
L 160.443997 106.845784 
L 160.89866 109.661865 
L 161.353324 113.258216 
L 161.807987 118.067877 
L 162.262651 125.146991 
L 163.171978 152.147423 
L 163.626641 130.435368 
L 164.081304 122.429288 
L 164.535968 117.6522 
L 164.990631 114.401285 
L 165.445295 112.067838 
L 165.899958 110.365138 
L 166.354622 109.136756 
L 166.809285 108.289691 
L 167.263949 107.766062 
L 167.718612 107.529592 
L 168.173276 107.558672 
L 168.627939 107.842795 
L 169.082603 108.380965 
L 169.537266 109.181546 
L 169.99193 110.263503 
L 170.446593 111.659457 
L 170.901257 113.421675 
L 171.35592 115.633698 
L 171.810584 118.434186 
L 172.265247 122.071534 
L 172.719911 127.052648 
L 173.174574 134.687466 
L 173.629238 150.981645 
L 174.083901 151.896401 
L 174.538565 135.598441 
L 174.993228 128.326051 
L 175.447891 123.758939 
L 175.902555 120.551883 
L 176.357218 118.188025 
L 176.811882 116.4148 
L 177.266545 115.091211 
L 177.721209 114.132037 
L 178.175872 113.483495 
L 178.630536 113.11136 
L 179.085199 112.994767 
L 179.539863 113.122936 
L 179.994526 113.493632 
L 180.44919 114.112861 
L 180.903853 114.9957 
L 181.358517 116.168536 
L 181.81318 117.673457 
L 182.267844 119.576548 
L 182.722507 121.984176 
L 183.177171 125.077905 
L 183.631834 129.200415 
L 184.086498 135.119218 
L 184.541161 145.246796 
L 184.995825 196.792516 
L 185.450488 146.531343 
L 185.905151 136.223535 
L 186.359815 130.449775 
L 186.814478 126.553155 
L 187.723805 121.582573 
L 188.633132 118.741118 
L 189.087796 117.855634 
L 189.542459 117.260415 
L 189.997123 116.927687 
L 190.451786 116.841032 
L 190.90645 116.992976 
L 191.361113 117.383963 
L 191.815777 118.022419 
L 192.27044 118.92591 
L 192.725104 120.123759 
L 193.179767 121.662016 
L 193.634431 123.612828 
L 194.089094 126.093019 
L 194.543758 129.304736 
L 194.998421 133.638755 
L 195.453085 140.009356 
L 195.907748 151.602509 
L 196.362411 177.649249 
L 196.817075 147.384141 
L 197.271738 138.300549 
L 197.726402 132.932187 
L 198.181065 129.228182 
L 199.090392 124.426168 
L 199.999719 121.643996 
L 200.454383 120.770002 
L 200.909046 120.179141 
L 201.36371 119.845718 
L 201.818373 119.754744 
L 202.273037 119.899783 
L 202.7277 120.282085 
L 203.182364 120.910753 
L 203.637027 121.803991 
L 204.091691 122.9918 
L 204.546354 124.52108 
L 205.001018 126.465203 
L 205.455681 128.943056 
L 205.910345 132.16083 
L 206.365008 136.518867 
L 206.819671 142.961671 
L 207.274335 154.849956 
L 207.728998 177.354996 
L 208.183662 149.591817 
L 208.638325 140.678101 
L 209.092989 135.35805 
L 209.547652 131.668187 
L 210.456979 126.857996 
L 211.366306 124.048114 
L 211.82097 123.156638 
L 212.275633 122.546627 
L 212.730297 122.19265 
L 213.18496 122.079836 
L 213.639624 122.20176 
L 214.094287 122.559579 
L 214.548951 123.162189 
L 215.003614 124.02743 
L 215.458278 125.184709 
L 215.912941 126.679945 
L 216.367605 128.584828 
L 216.822268 131.015146 
L 217.276931 134.170744 
L 217.731595 138.436684 
L 218.186258 144.709035 
L 218.640922 156.070609 
L 219.095585 184.625557 
L 219.550249 152.388693 
L 220.004912 143.137135 
L 220.459576 137.679991 
L 220.914239 133.908621 
L 221.823566 128.993079 
L 222.732893 126.106326 
L 223.187557 125.180666 
L 223.64222 124.537783 
L 224.096884 124.151509 
L 224.551547 124.006371 
L 225.006211 124.095376 
L 225.460874 124.419084 
L 225.915538 124.985672 
L 226.370201 125.812042 
L 226.824865 126.92627 
L 227.279528 128.372242 
L 227.734192 130.218305 
L 228.188855 132.574247 
L 228.643518 135.627859 
L 229.098182 139.735721 
L 229.552845 145.706287 
L 230.007509 156.154958 
L 230.462172 212.572205 
L 230.916836 155.626228 
L 231.371499 145.64279 
L 231.826163 139.916545 
L 232.280826 135.997803 
L 233.190153 130.911342 
L 234.09948 127.914919 
L 234.554144 126.943962 
L 235.008807 126.259081 
L 235.463471 125.832712 
L 235.918134 125.648308 
L 236.372798 125.697939 
L 236.827461 125.981245 
L 237.282125 126.505379 
L 237.736788 127.285965 
L 238.191452 128.349328 
L 238.646115 129.736744 
L 239.100778 131.512349 
L 239.555442 133.778489 
L 240.010105 136.708275 
L 240.464769 140.624458 
L 240.919432 146.235694 
L 241.374096 155.675915 
L 241.828759 188.975539 
L 242.283423 159.362404 
L 242.738086 148.213507 
L 243.19275 142.098654 
L 243.647413 137.977519 
L 244.55674 132.668308 
L 245.466067 129.537358 
L 245.920731 128.51285 
L 246.375394 127.77927 
L 246.830058 127.307152 
L 247.284721 127.078517 
L 247.739385 127.084238 
L 248.194048 127.322816 
L 248.648712 127.800183 
L 249.103375 128.530483 
L 249.558038 129.538064 
L 250.012702 130.861312 
L 250.467365 132.559764 
L 250.922029 134.727786 
L 251.376692 137.523051 
L 251.831356 141.233741 
L 252.286019 146.471297 
L 252.740683 154.948391 
L 253.195346 177.285549 
L 254.104673 150.891649 
L 254.559337 144.259238 
L 255.014 139.88243 
L 255.923327 134.304024 
L 256.832654 131.017656 
L 257.287318 129.93289 
L 257.741981 129.145274 
L 258.196645 128.622995 
L 258.651308 128.34635 
L 259.105972 128.304804 
L 259.560635 128.495559 
L 260.015298 128.923195 
L 260.469962 129.600264 
L 260.924625 130.549028 
L 261.379289 131.80488 
L 261.833952 133.422677 
L 262.288616 135.488799 
L 262.743279 138.145805 
L 263.197943 141.649041 
L 263.652606 146.522052 
L 264.10727 154.13421 
L 264.561933 171.029923 
L 265.016597 169.468695 
L 265.47126 153.736525 
L 265.925924 146.43021 
L 266.380587 141.740728 
L 267.289914 135.847683 
L 268.199241 132.386963 
L 268.653905 131.236107 
L 269.108568 130.389922 
L 269.563232 129.813829 
L 270.017895 129.486131 
L 270.472558 129.394704 
L 270.927222 129.535326 
L 271.381885 129.911132 
L 271.836549 130.533019 
L 272.291212 131.421128 
L 272.745876 132.60786 
L 273.200539 134.143483 
L 273.655203 136.10668 
L 274.109866 138.625769 
L 274.56453 141.926085 
L 275.019193 146.454654 
L 275.473857 153.30934 
L 276.383184 177.597998 
L 276.837847 156.834943 
L 277.292511 148.646414 
L 277.747174 143.578141 
L 278.201838 140.000493 
L 279.111165 135.263413 
L 280.020492 132.446634 
L 280.475155 131.537778 
L 280.929819 130.904658 
L 281.384482 130.523319 
L 281.839145 130.379877 
L 282.293809 130.468577 
L 282.748472 130.791043 
L 283.203136 131.356481 
L 283.657799 132.182919 
L 284.112463 133.299841 
L 284.567126 134.753108 
L 285.02179 136.614166 
L 285.476453 138.998224 
L 285.931117 142.103825 
L 286.38578 146.312787 
L 286.840444 152.510893 
L 287.295107 163.723533 
L 287.749771 193.870565 
L 288.204434 160.31333 
L 288.659098 150.944606 
L 289.113761 145.417142 
L 289.568425 141.587877 
L 290.477752 136.568427 
L 291.387079 133.582202 
L 291.841742 132.606822 
L 292.296405 131.913737 
L 292.751069 131.476461 
L 293.205732 131.279184 
L 293.660396 131.314515 
L 294.115059 131.582509 
L 294.569723 132.090667 
L 295.024386 132.854937 
L 295.47905 133.901985 
L 295.933713 135.273505 
L 296.388377 137.034217 
L 296.84304 139.28743 
L 297.297704 142.208056 
L 297.752367 146.122888 
L 298.207031 151.752181 
L 298.661694 161.28309 
L 299.116358 196.720717 
L 299.571021 164.384975 
L 300.025685 153.371071 
L 300.480348 147.281366 
L 300.935012 143.160111 
L 301.844339 137.825907 
L 302.753665 134.657245 
L 303.208329 133.611534 
L 303.662992 132.855656 
L 304.117656 132.360301 
L 304.572319 132.107555 
L 305.026983 132.088289 
L 305.481646 132.300935 
L 305.93631 132.751286 
L 306.390973 133.453249 
L 306.845637 134.430797 
L 307.3003 135.721711 
L 307.754964 137.384524 
L 308.209627 139.511827 
L 308.664291 142.257858 
L 309.118954 145.903203 
L 309.573618 151.038532 
L 310.028281 159.292208 
L 310.482945 180.101719 
L 310.937608 169.446034 
L 311.392272 155.98343 
L 311.846935 149.194491 
L 312.301599 144.732715 
L 313.210925 139.047554 
L 314.120252 135.682861 
L 314.574916 134.562985 
L 315.029579 133.74153 
L 315.484243 133.18604 
L 315.938906 132.876308 
L 316.39357 132.801357 
L 316.848233 132.957947 
L 317.302897 133.350151 
L 317.75756 133.989891 
L 318.212224 134.898569 
L 318.666887 136.11031 
L 319.121551 137.677978 
L 319.576214 139.684561 
L 320.030878 142.266263 
L 320.485541 145.664893 
L 320.940205 150.368995 
L 321.394868 157.620621 
L 321.849532 172.846268 
L 322.304195 176.414538 
L 322.758859 158.863259 
L 323.213522 151.184029 
L 323.668185 146.321504 
L 324.122849 142.853935 
L 325.032176 138.230276 
L 325.941503 135.470366 
L 326.396166 134.580497 
L 326.85083 133.962819 
L 327.305493 133.594626 
L 327.760157 133.462973 
L 328.21482 133.562887 
L 328.669484 133.896721 
L 329.124147 134.474453 
L 329.578811 135.315037 
L 330.033474 136.449189 
L 330.488138 137.924596 
L 330.942801 139.815653 
L 331.397465 142.242853 
L 331.852128 145.415414 
L 332.306792 149.740756 
L 332.761455 156.185819 
L 333.216119 168.244485 
L 333.670782 188.463668 
L 334.125446 162.133287 
L 334.580109 153.282935 
L 335.034772 147.942906 
L 335.489436 144.208866 
L 336.398763 139.283151 
L 337.30809 136.341355 
L 337.762753 135.380124 
L 338.217417 134.698168 
L 338.67208 134.270042 
L 339.126744 134.080701 
L 339.581407 134.123378 
L 340.036071 134.398688 
L 340.490734 134.914713 
L 340.945398 135.688071 
L 341.400061 136.746304 
L 341.854725 138.13237 
L 342.309388 139.912989 
L 342.764052 142.194963 
L 343.218715 145.160049 
L 343.673379 149.150716 
L 344.128042 154.933114 
L 344.582706 164.91204 
L 345.037369 215.35886 
L 345.492032 165.994575 
L 345.946696 155.532044 
L 346.401359 149.614151 
L 346.856023 145.574867 
L 347.76535 140.317044 
L 348.674677 137.182053 
L 349.12934 136.146362 
L 349.584004 135.397959 
L 350.038667 134.908394 
L 350.493331 134.660373 
L 350.947994 134.645256 
L 351.402658 134.861904 
L 351.857321 135.316535 
L 352.311985 136.023538 
L 352.766648 137.007491 
L 353.221312 138.30703 
L 353.675975 139.982008 
L 354.130639 142.127268 
L 354.585302 144.901327 
L 355.039966 148.594169 
L 355.494629 153.822107 
L 355.949292 162.317778 
L 356.403956 185.003779 
L 357.313283 157.988814 
L 357.767946 151.356621 
L 358.22261 146.964024 
L 359.131937 141.339086 
L 360.041264 137.998394 
L 360.495927 136.8849 
L 360.950591 136.06774 
L 361.405254 135.515153 
L 361.859918 135.20742 
L 362.314581 135.13394 
L 362.769245 135.291792 
L 363.223908 135.685356 
L 363.678572 136.326885 
L 364.133235 137.238187 
L 364.587899 138.453944 
L 365.042562 140.02786 
L 365.497226 142.044319 
L 365.951889 144.642101 
L 366.406552 148.068457 
L 366.861216 152.825882 
L 367.315879 160.20651 
L 367.770543 176.056886 
L 368.225206 177.501505 
L 368.67987 160.731703 
L 369.134533 153.193716 
L 369.589197 148.387622 
L 370.498524 142.354811 
L 371.407851 138.794676 
L 372.317178 136.711443 
L 372.771841 136.094167 
L 373.226505 135.725638 
L 373.681168 135.59319 
L 374.135832 135.692077 
L 374.590495 136.02486 
L 375.045159 136.601735 
L 375.499822 137.44191 
L 375.954486 138.576439 
L 376.409149 140.053502 
L 376.863812 141.948297 
L 377.318476 144.382752 
L 377.773139 147.569007 
L 378.227803 151.921566 
L 378.682466 158.430295 
L 379.13713 170.728938 
L 379.591793 188.916817 
L 380.046457 163.886616 
L 380.50112 155.157928 
L 380.955784 149.860385 
L 381.410447 146.145988 
L 382.319774 141.23515 
L 383.229101 138.295581 
L 383.683765 137.333348 
L 384.138428 136.649574 
L 384.593092 136.219073 
L 385.047755 136.026988 
L 385.502419 136.066699 
L 385.957082 136.33895 
L 386.411746 136.85195 
L 386.866409 137.622455 
L 387.321073 138.678186 
L 387.775736 140.062349 
L 388.230399 141.842055 
L 388.685063 144.124785 
L 389.139726 147.093627 
L 389.59439 151.094119 
L 390.049053 156.901503 
L 390.503717 166.96498 
L 390.95838 223.898785 
L 391.413044 167.658812 
L 391.867707 157.288835 
L 392.322371 151.397237 
L 392.777034 147.368029 
L 393.686361 142.114272 
L 394.595688 138.975349 
L 395.050352 137.936372 
L 395.505015 137.184164 
L 395.959679 136.690428 
L 396.414342 136.437974 
L 396.869006 136.418239 
L 397.323669 136.630147 
L 397.778333 137.079968 
L 398.232996 137.782145 
L 398.687659 138.761314 
L 399.142323 140.056185 
L 399.596986 141.726724 
L 400.05165 143.867953 
L 400.506313 146.638729 
L 400.960977 150.329775 
L 401.41564 155.559438 
L 401.870304 164.068733 
L 402.324967 186.909918 
L 403.234294 159.644286 
L 403.688958 153.018132 
L 404.143621 148.625045 
L 405.052948 142.993168 
L 405.962275 139.642657 
L 406.416939 138.523763 
L 406.871602 137.700992 
L 407.326266 137.142626 
L 407.780929 136.828974 
L 408.235593 136.749446 
L 408.690256 136.901126 
L 409.144919 137.288389 
L 409.599583 137.923471 
L 410.054246 138.828151 
L 410.50891 140.037063 
L 410.963573 141.603828 
L 411.418237 143.612681 
L 411.8729 146.202127 
L 412.327564 149.618815 
L 412.782227 154.363692 
L 413.236891 161.723279 
L 413.691554 177.495823 
L 414.146218 179.164994 
L 414.600881 162.30669 
L 415.055545 154.746701 
L 415.510208 149.927652 
L 416.419535 143.876152 
L 417.328862 140.300378 
L 418.238189 138.202443 
L 418.692853 137.577926 
L 419.147516 137.202154 
L 419.602179 137.062413 
L 420.056843 137.15391 
L 420.511506 137.479151 
L 420.96617 138.048264 
L 421.420833 138.880364 
L 421.875497 140.006371 
L 422.33016 141.474257 
L 422.784824 143.358869 
L 423.239487 145.781497 
L 423.694151 148.952972 
L 424.148814 153.28461 
L 424.603478 159.755922 
L 425.058141 171.937033 
L 425.512805 191.006619 
L 425.967468 165.405423 
L 426.422132 156.613805 
L 426.876795 151.288393 
L 427.331459 147.556245 
L 428.240786 142.620633 
L 429.150113 139.661695 
L 429.604776 138.690613 
L 430.059439 137.998266 
L 430.514103 137.559336 
L 430.968766 137.358861 
L 431.42343 137.390127 
L 431.878093 137.653782 
L 432.332757 138.157923 
L 432.78742 138.919167 
L 433.242084 139.965039 
L 433.696747 141.33845 
L 434.151411 143.106033 
L 434.606074 145.374422 
L 435.060738 148.325027 
L 435.515401 152.299506 
L 435.970065 158.061592 
L 436.424728 168.004327 
L 436.879392 217.105403 
L 437.334055 169.163922 
L 437.788719 158.662225 
L 438.243382 152.723203 
L 438.698046 148.667124 
L 439.607373 143.37983 
L 440.5167 140.21717 
L 440.971363 139.167835 
L 441.426026 138.405797 
L 441.88069 137.902541 
L 442.335353 137.640715 
L 442.790017 137.611618 
L 443.24468 137.814039 
L 443.699344 138.254105 
L 444.154007 138.946083 
L 444.608671 139.914374 
L 445.063334 141.197343 
L 445.517998 142.854409 
L 445.972661 144.97965 
L 446.427325 147.730116 
L 446.881988 151.392539 
L 447.336652 156.574306 
L 447.791315 164.971386 
L 448.245979 186.957901 
L 449.155306 160.949287 
L 449.609969 154.249896 
L 450.064633 149.819367 
L 450.97396 144.144684 
L 451.883286 140.766144 
L 452.792613 138.801701 
L 453.247277 138.232823 
L 453.70194 137.908922 
L 454.156604 137.819229 
L 454.611267 137.960658 
L 455.065931 138.337414 
L 455.520594 138.96153 
L 455.975258 139.854523 
L 456.429921 141.050648 
L 456.884585 142.602946 
L 457.339248 144.594673 
L 457.793912 147.162508 
L 458.248575 150.549241 
L 458.703239 155.245903 
L 459.157902 162.503385 
L 459.612566 177.820541 
L 460.067229 180.986506 
L 460.521893 163.564865 
L 460.976556 155.894135 
L 461.43122 151.024416 
L 462.340546 144.919593 
L 463.249873 141.311309 
L 464.1592 139.188039 
L 464.613864 138.552071 
L 465.068527 138.165244 
L 465.523191 138.014618 
L 465.977854 138.095206 
L 466.432518 138.409315 
L 466.887181 138.966851 
L 467.341845 139.786648 
L 467.796508 140.899237 
L 468.251172 142.351996 
L 468.705835 144.218804 
L 469.160499 146.619194 
L 469.615162 149.760415 
L 470.069826 154.04511 
L 470.524489 160.424841 
L 470.979153 172.301529 
L 471.433816 193.999317 
L 471.88848 166.645207 
L 472.343143 157.68602 
L 472.797806 152.293356 
L 473.25247 148.522625 
L 474.161797 143.540202 
L 475.071124 140.549901 
L 475.525787 139.565612 
L 475.980451 138.86094 
L 476.435114 138.410221 
L 476.889778 138.198227 
L 477.344441 138.218015 
L 477.799105 138.470017 
L 478.253768 138.962091 
L 478.708432 139.710563 
L 479.163095 140.742561 
L 479.617759 142.100414 
L 480.072422 143.849817 
L 480.527086 146.09575 
L 480.981749 149.016372 
L 481.436413 152.945857 
L 481.891076 158.62592 
L 482.34574 168.344095 
L 482.800403 208.933843 
L 483.255066 170.435544 
L 483.70973 159.670757 
L 484.164393 153.642547 
L 484.619057 149.538909 
L 485.528384 144.197171 
L 486.437711 140.999801 
L 486.892374 139.936197 
L 487.347038 139.160996 
L 487.801701 138.645265 
L 488.256365 138.371341 
L 488.711028 138.330266 
L 489.165692 138.520591 
L 489.620355 138.948192 
L 490.075019 139.627038 
L 490.529682 140.581136 
L 490.984346 141.848285 
L 491.439009 143.487011 
L 491.893673 145.589863 
L 492.348336 148.310969 
L 492.803 151.930649 
L 493.257663 157.038822 
L 493.712327 165.260793 
L 494.16699 185.99372 
L 494.621653 175.416569 
L 495.076317 161.908973 
L 495.53098 155.090102 
L 495.985644 150.601042 
L 496.894971 144.863354 
L 497.804298 141.446634 
L 498.713625 139.452898 
L 499.168288 138.870903 
L 499.622952 138.534381 
L 500.077615 138.432275 
L 500.532279 138.561244 
L 500.986942 138.925228 
L 501.441606 139.535962 
L 501.896269 140.414575 
L 502.350933 141.594783 
L 502.805596 143.128789 
L 503.26026 145.09845 
L 503.714923 147.637858 
L 504.169587 150.984349 
L 504.62425 155.615055 
L 505.078913 162.731628 
L 505.533577 177.438677 
L 505.98824 182.806147 
L 506.442904 164.494723 
L 506.897567 156.661146 
L 507.352231 151.719404 
L 507.806894 148.196703 
L 508.716221 143.489648 
L 509.625548 140.660201 
L 510.080212 139.737676 
L 510.534875 139.087991 
L 510.989539 138.688065 
L 511.444202 138.524642 
L 511.898866 138.592456 
L 512.353529 138.893543 
L 512.808193 139.437509 
L 513.262856 140.242809 
L 513.71752 141.339456 
L 514.172183 142.774052 
L 514.626847 144.6192 
L 515.08151 146.99214 
L 515.536173 150.09547 
L 515.990837 154.320645 
L 516.4455 160.58364 
L 516.900164 172.07935 
L 517.354827 197.812396 
L 517.809491 167.57873 
L 518.264154 158.388684 
L 518.718818 152.906317 
L 519.173481 149.085423 
L 520.082808 144.044169 
L 520.992135 141.016075 
L 521.446799 140.016265 
L 521.901462 139.297294 
L 522.356126 138.833031 
L 522.810789 138.607897 
L 523.265453 138.614654 
L 523.720116 138.853451 
L 524.17478 139.331847 
L 524.629443 140.065801 
L 525.084107 141.081955 
L 525.53877 142.421917 
L 525.993433 144.150237 
L 526.448097 146.369879 
L 526.90276 149.255061 
L 527.357424 153.130945 
L 527.812087 158.713043 
L 528.266751 168.166554 
L 528.721414 202.643625 
L 529.176078 171.426333 
L 529.630741 160.317111 
L 530.085405 154.176261 
L 530.540068 150.013878 
L 531.449395 144.606685 
L 532.358722 141.368963 
L 532.813386 140.289108 
L 533.268049 139.499071 
L 533.722713 138.969397 
L 534.177376 138.682036 
L 534.63204 138.627715 
L 535.086703 138.804696 
L 535.541367 139.218553 
L 535.99603 139.882901 
L 536.450693 140.821287 
L 536.905357 142.070846 
L 537.36002 143.689069 
L 537.814684 145.766732 
L 538.269347 148.454604 
L 538.724011 152.02567 
L 539.178674 157.050073 
L 539.633338 165.0748 
L 540.088001 184.521248 
L 540.542665 176.590087 
L 540.997328 162.513532 
L 541.451992 155.549685 
L 541.906655 150.991103 
L 542.815982 145.180273 
L 543.725309 141.720439 
L 544.634636 139.694323 
L 545.0893 139.098002 
L 545.543963 138.747773 
L 545.543963 138.747773 
" clip-path="url(#p21a3fac7bf)" style="fill: none; stroke: #ff7f0e; stroke-linecap: square"/>
   </g>
   <g id="line2d_27">
    <path d="M 80.423224 35.552923 
L 89.061831 35.661997 
L 97.245773 35.98053 
L 103.156398 36.434423 
L 108.61236 37.087369 
L 114.977649 38.099642 
L 121.342938 39.332753 
L 125.889572 40.412997 
L 129.981544 41.607847 
L 134.073515 43.050736 
L 138.165486 44.729175 
L 142.257458 46.625092 
L 145.894765 48.546909 
L 148.622746 50.232403 
L 150.896064 51.889137 
L 152.714718 53.44366 
L 154.533371 55.261428 
L 156.352025 57.40684 
L 158.170679 59.955923 
L 159.989333 63.002022 
L 161.353324 65.684395 
L 162.717314 68.782082 
L 164.081304 72.388337 
L 165.445295 76.639642 
L 166.809285 81.754361 
L 167.718612 85.825884 
L 168.627939 90.656203 
L 169.537266 96.631828 
L 170.446593 104.626331 
L 170.901257 110.06456 
L 171.35592 117.535369 
L 171.810584 130.3423 
L 172.265247 154.981659 
L 172.719911 127.398222 
L 173.174574 119.372932 
L 173.629238 114.963005 
L 174.083901 112.179077 
L 174.538565 110.347324 
L 174.993228 109.159624 
L 175.447891 108.451747 
L 175.902555 108.128432 
L 176.357218 108.132393 
L 176.811882 108.429841 
L 177.266545 109.003358 
L 177.721209 109.848571 
L 178.175872 110.973255 
L 179.085199 114.162569 
L 179.994526 119.000085 
L 180.44919 122.356682 
L 180.903853 126.737931 
L 181.358517 132.90505 
L 181.81318 143.243533 
L 182.267844 192.042314 
L 182.722507 145.277381 
L 183.177171 135.166042 
L 183.631834 129.626167 
L 184.086498 125.970127 
L 184.541161 123.375468 
L 184.995825 121.481143 
L 185.450488 120.097674 
L 185.905151 119.114701 
L 186.359815 118.463889 
L 186.814478 118.101761 
L 187.269142 118.001001 
L 187.723805 118.145845 
L 188.178469 118.529725 
L 188.633132 119.154344 
L 189.087796 120.029902 
L 189.542459 121.176541 
L 190.451786 124.434943 
L 190.90645 126.681564 
L 191.361113 129.50351 
L 191.815777 133.143133 
L 192.27044 138.091004 
L 192.725104 145.597187 
L 193.179767 161.155404 
L 193.634431 164.594085 
L 194.089094 147.407163 
L 194.543758 139.977243 
L 194.998421 135.347307 
L 195.453085 132.105419 
L 196.362411 127.921274 
L 196.817075 126.574761 
L 197.271738 125.589671 
L 197.726402 124.910559 
L 198.181065 124.501692 
L 198.635729 124.340614 
L 199.090392 124.414674 
L 199.545056 124.719269 
L 199.999719 125.257237 
L 200.454383 126.039227 
L 200.909046 127.085148 
L 201.818373 130.115191 
L 202.273037 132.227485 
L 202.7277 134.891552 
L 203.182364 138.331124 
L 203.637027 142.989288 
L 204.091691 149.950679 
L 205.001018 175.152418 
L 205.455681 154.126134 
L 205.910345 146.017176 
L 206.365008 141.05942 
L 206.819671 137.599991 
L 207.728998 133.102816 
L 208.638325 130.520969 
L 209.092989 129.726205 
L 209.547652 129.204425 
L 210.002316 128.931319 
L 210.456979 128.892611 
L 210.911643 129.082067 
L 211.366306 129.500685 
L 211.82097 130.156824 
L 212.275633 131.0673 
L 212.730297 132.259792 
L 213.18496 133.777337 
L 213.639624 135.686674 
L 214.094287 138.094529 
L 214.548951 141.182413 
L 215.003614 145.292127 
L 215.458278 151.187738 
L 215.912941 161.263781 
L 216.367605 210.653712 
L 216.822268 162.664613 
L 217.276931 152.289994 
L 217.731595 146.473536 
L 218.186258 142.537197 
L 219.095585 137.481798 
L 220.004912 134.540788 
L 220.459576 133.598169 
L 220.914239 132.939867 
L 221.368903 132.537111 
L 221.823566 132.372211 
L 222.27823 132.436008 
L 222.732893 132.726674 
L 223.187557 133.249477 
L 223.64222 134.017453 
L 224.096884 135.05319 
L 224.551547 136.392258 
L 225.006211 138.089537 
L 225.460874 140.231207 
L 225.915538 142.959232 
L 226.370201 146.52747 
L 226.824865 151.455363 
L 227.279528 159.096805 
L 227.734192 175.850689 
L 228.188855 174.94637 
L 228.643518 159.090813 
L 229.098182 151.806196 
L 229.552845 147.157848 
L 230.007509 143.843435 
L 230.916836 139.45187 
L 231.826163 136.877703 
L 232.280826 136.070327 
L 232.73549 135.529643 
L 233.190153 135.233384 
L 233.644817 135.16873 
L 234.09948 135.330568 
L 234.554144 135.720832 
L 235.008807 136.34875 
L 235.463471 137.232056 
L 235.918134 138.399531 
L 236.372798 139.895713 
L 236.827461 141.789649 
L 237.282125 144.192035 
L 237.736788 147.292153 
L 238.191452 151.44975 
L 238.646115 157.482498 
L 239.100778 168.052408 
L 239.555442 217.983885 
L 240.010105 167.224635 
L 240.464769 157.347664 
L 240.919432 151.669857 
L 241.374096 147.782849 
L 242.283423 142.737586 
L 243.19275 139.763497 
L 243.647413 138.797528 
L 244.102077 138.113361 
L 244.55674 137.683077 
L 245.011404 137.489567 
L 245.466067 137.524102 
L 245.920731 137.785189 
L 246.375394 138.278382 
L 246.830058 139.016994 
L 247.284721 140.023913 
L 247.739385 141.335081 
L 248.194048 143.005909 
L 248.648712 145.123429 
L 249.103375 147.83116 
L 249.558038 151.386248 
L 250.012702 156.316669 
L 250.467365 164.007958 
L 250.922029 181.158071 
L 251.376692 179.025971 
L 251.831356 163.509587 
L 252.286019 156.271127 
L 252.740683 151.625378 
L 253.195346 148.299049 
L 254.104673 143.867301 
L 255.014 141.244611 
L 255.468664 140.411725 
L 255.923327 139.845134 
L 256.377991 139.522758 
L 256.832654 139.431911 
L 257.287318 139.567577 
L 257.741981 139.931766 
L 258.196645 140.533773 
L 258.651308 141.391396 
L 259.105972 142.533487 
L 259.560635 144.004673 
L 260.015298 145.874129 
L 260.469962 148.252772 
L 260.924625 151.330305 
L 261.379289 155.467458 
L 261.833952 161.484858 
L 262.288616 172.059713 
L 262.743279 220.336945 
L 263.197943 171.070187 
L 263.652606 161.195807 
L 264.10727 155.503227 
L 264.561933 151.597166 
L 265.47126 146.509944 
L 266.380587 143.492575 
L 266.835251 142.504956 
L 267.289914 141.799242 
L 267.744578 141.347563 
L 268.199241 141.132845 
L 268.653905 141.14639 
L 269.108568 141.386736 
L 269.563232 141.859469 
L 270.017895 142.57794 
L 270.472558 143.565087 
L 270.927222 144.856933 
L 271.381885 146.509004 
L 271.836549 148.608539 
L 272.291212 151.299441 
L 272.745876 154.839682 
L 273.200539 159.759407 
L 273.655203 167.452248 
L 274.109866 184.694585 
L 274.56453 182.242403 
L 275.019193 166.797487 
L 275.473857 159.559762 
L 275.92852 154.904157 
L 276.837847 149.045544 
L 277.747174 145.598225 
L 278.656501 143.599801 
L 279.111165 143.017566 
L 279.565828 142.679737 
L 280.020492 142.573687 
L 280.475155 142.694463 
L 280.929819 143.044148 
L 281.384482 143.632128 
L 281.839145 144.476324 
L 282.293809 145.605767 
L 282.748472 147.06536 
L 283.203136 148.924736 
L 283.657799 151.295632 
L 284.112463 154.3694 
L 284.567126 158.510636 
L 285.02179 164.551745 
L 285.476453 175.231031 
L 285.931117 218.306756 
L 286.38578 173.767992 
L 286.840444 163.983543 
L 287.295107 158.312888 
L 287.749771 154.411351 
L 288.659098 149.316016 
L 289.568425 146.28258 
L 290.023088 145.285872 
L 290.477752 144.57081 
L 290.932415 144.109727 
L 291.387079 143.885715 
L 291.841742 143.890221 
L 292.296405 144.121934 
L 292.751069 144.586609 
L 293.205732 145.297814 
L 293.660396 146.278784 
L 294.115059 147.565976 
L 294.569723 149.215611 
L 295.024386 151.316113 
L 295.47905 154.013623 
L 295.933713 157.570937 
L 296.388377 162.530898 
L 296.84304 170.334995 
L 297.297704 188.239247 
L 297.752367 184.032548 
L 298.207031 169.0744 
L 298.661694 161.934811 
L 299.116358 157.31674 
L 300.025685 151.482821 
L 300.935012 148.038288 
L 301.844339 146.035488 
L 302.299002 145.450027 
L 302.753665 145.108762 
L 303.208329 144.99934 
L 303.662992 145.117057 
L 304.117656 145.464262 
L 304.572319 146.050647 
L 305.026983 146.894533 
L 305.481646 148.025514 
L 305.93631 149.489346 
L 306.390973 151.357065 
L 306.845637 153.742918 
L 307.3003 156.843299 
L 307.754964 161.034709 
L 308.209627 167.186153 
L 308.664291 178.230773 
L 309.118954 211.452856 
L 309.573618 175.418686 
L 310.028281 165.924913 
L 310.482945 160.35159 
L 310.937608 156.496574 
L 311.846935 151.442799 
L 312.756262 148.425721 
L 313.210925 147.433352 
L 313.665589 146.721342 
L 314.120252 146.262601 
L 314.574916 146.040662 
L 315.029579 146.04735 
L 315.484243 146.281717 
L 315.938906 146.749917 
L 316.39357 147.466005 
L 316.848233 148.453868 
L 317.302897 149.750913 
L 317.75756 151.414858 
L 318.212224 153.536688 
L 318.666887 156.267394 
L 319.121551 159.880279 
L 319.576214 164.946169 
L 320.030878 173.014493 
L 320.485541 192.535021 
L 320.940205 184.55708 
L 321.394868 170.532779 
L 321.849532 163.605764 
L 322.304195 159.080203 
L 323.213522 153.328986 
L 324.122849 149.921499 
L 325.032176 147.939989 
L 325.486839 147.362604 
L 325.941503 147.02867 
L 326.396166 146.926365 
L 326.85083 147.051465 
L 327.305493 147.406805 
L 327.760157 148.002642 
L 328.21482 148.858012 
L 328.669484 150.003506 
L 329.124147 151.486399 
L 329.578811 153.380207 
L 330.033474 155.80365 
L 330.488138 158.962159 
L 330.942801 163.253829 
L 331.397465 169.615508 
L 331.852128 181.362279 
L 332.306792 204.650675 
L 332.761455 176.234033 
L 333.216119 167.206853 
L 333.670782 161.801536 
L 334.125446 158.032797 
L 335.034772 153.066948 
L 335.944099 150.095489 
L 336.398763 149.119285 
L 336.853426 148.421115 
L 337.30809 147.974839 
L 337.762753 147.764712 
L 338.217417 147.78317 
L 338.67208 148.02985 
L 339.126744 148.511538 
L 339.581407 149.243052 
L 340.036071 150.249301 
L 340.490734 151.569178 
L 340.945398 153.262744 
L 341.400061 155.42502 
L 341.854725 158.214688 
L 342.309388 161.921929 
L 342.764052 167.163421 
L 343.218715 175.67307 
L 343.673379 198.392299 
L 344.582706 171.358494 
L 345.037369 164.73409 
L 345.492032 160.347015 
L 346.401359 154.728102 
L 347.310686 151.386912 
L 348.220013 149.448362 
L 348.674677 148.888531 
L 349.12934 148.570936 
L 349.584004 148.484524 
L 350.038667 148.625763 
L 350.493331 148.998193 
L 350.947994 149.612874 
L 351.402658 150.48987 
L 351.857321 151.661208 
L 352.311985 153.176343 
L 352.766648 155.112393 
L 353.221312 157.59461 
L 353.675975 160.841792 
L 354.130639 165.284581 
L 354.585302 171.965676 
L 355.494629 199.075156 
L 355.949292 176.434141 
L 356.403956 167.982452 
L 356.858619 162.797263 
L 357.313283 159.145883 
L 358.22261 154.305354 
L 359.131937 151.40344 
L 359.5866 150.453093 
L 360.041264 149.77761 
L 360.495927 149.352111 
L 360.950591 149.161813 
L 361.405254 149.199969 
L 361.859918 149.466998 
L 362.314581 149.970532 
L 362.769245 150.726419 
L 363.223908 151.760943 
L 363.678572 153.115015 
L 364.133235 154.851899 
L 364.587899 157.072171 
L 365.042562 159.945239 
L 365.497226 163.785238 
L 365.951889 169.275878 
L 366.406552 178.438312 
L 366.861216 207.937308 
L 367.315879 183.269809 
L 367.770543 171.710344 
L 368.225206 165.444066 
L 368.67987 161.227972 
L 369.589197 155.778952 
L 370.498524 152.527118 
L 370.953187 151.443045 
L 371.407851 150.648882 
L 371.862514 150.114257 
L 372.317178 149.820314 
L 372.771841 149.756964 
L 373.226505 149.921553 
L 373.681168 150.31851 
L 374.135832 150.959929 
L 374.590495 151.867196 
L 375.045159 153.074199 
L 375.499822 154.633241 
L 375.954486 156.626188 
L 376.409149 159.187005 
L 376.863812 162.55262 
L 377.318476 167.198988 
L 377.773139 174.323459 
L 378.227803 188.996908 
L 378.682466 194.585557 
L 379.13713 176.205422 
L 379.591793 168.372877 
L 380.046457 163.439562 
L 380.50112 159.92686 
L 381.410447 155.239196 
L 382.319774 152.425286 
L 382.774438 151.508416 
L 383.229101 150.86264 
L 383.683765 150.464573 
L 384.138428 150.300578 
L 384.593092 150.364894 
L 385.047755 150.658891 
L 385.502419 151.191244 
L 385.957082 151.979071 
L 386.411746 153.050383 
L 386.866409 154.448631 
L 387.321073 156.241159 
L 387.775736 158.535702 
L 388.230399 161.515713 
L 388.685063 165.52742 
L 389.139726 171.347963 
L 389.59439 181.435652 
L 390.049053 240.135426 
L 390.503717 182.062125 
L 390.95838 171.714336 
L 391.413044 165.830704 
L 391.867707 161.805113 
L 392.777034 156.551826 
L 393.686361 153.406508 
L 394.141025 152.361795 
L 394.595688 151.601999 
L 395.050352 151.098613 
L 395.505015 150.834152 
L 395.959679 150.79965 
L 396.414342 150.993475 
L 396.869006 151.421119 
L 397.323669 152.095911 
L 397.778333 153.040843 
L 398.232996 154.292085 
L 398.687659 155.905467 
L 399.142323 157.968807 
L 399.596986 160.627151 
L 400.05165 164.14099 
L 400.506313 169.047142 
L 400.960977 176.764375 
L 401.41564 194.317654 
L 401.870304 190.90284 
L 402.324967 175.688396 
L 402.779631 168.47122 
L 403.234294 163.804238 
L 404.143621 157.8977 
L 405.052948 154.393264 
L 405.962275 152.336723 
L 406.416939 151.726091 
L 406.871602 151.360685 
L 407.326266 151.228156 
L 407.780929 151.32386 
L 408.235593 151.650262 
L 408.690256 152.217252 
L 409.144919 153.043455 
L 409.599583 154.158942 
L 410.054246 155.610242 
L 410.50891 157.469693 
L 410.963573 159.853927 
L 411.418237 162.964181 
L 411.8729 167.188528 
L 412.327564 173.432138 
L 412.782227 184.828374 
L 413.236891 212.021667 
L 413.691554 180.71776 
L 414.146218 171.465262 
L 414.600881 165.965844 
L 415.055545 162.139671 
L 415.964872 157.097916 
L 416.874199 154.07117 
L 417.328862 153.070998 
L 417.783526 152.350421 
L 418.238189 151.882932 
L 418.692853 151.652539 
L 419.147516 151.65151 
L 419.602179 151.879359 
L 420.056843 152.342789 
L 420.511506 153.056557 
L 420.96617 154.045534 
L 421.420833 155.348594 
L 421.875497 157.025804 
L 422.33016 159.172223 
L 422.784824 161.946641 
L 423.239487 165.639501 
L 423.694151 170.868242 
L 424.148814 179.369939 
L 424.603478 202.135135 
L 425.512805 174.981329 
L 425.967468 168.347184 
L 426.422132 163.948159 
L 427.331459 158.303943 
L 428.240786 154.9376 
L 429.150113 152.974881 
L 429.604776 152.403496 
L 430.059439 152.074791 
L 430.514103 151.977797 
L 430.968766 152.10909 
L 431.42343 152.472356 
L 431.878093 153.078855 
L 432.332757 153.948945 
L 432.78742 155.115095 
L 433.242084 156.627462 
L 433.696747 158.56436 
L 434.151411 161.053242 
L 434.606074 164.317484 
L 435.060738 168.799066 
L 435.515401 175.578612 
L 436.424728 200.645157 
L 436.879392 179.323286 
L 437.334055 171.03167 
L 437.788719 165.903121 
L 438.243382 162.277405 
L 439.152709 157.454995 
L 440.062036 154.554667 
L 440.5167 153.6027 
L 440.971363 152.924897 
L 441.426026 152.49682 
L 441.88069 152.304042 
L 442.335353 152.340148 
L 442.790017 152.605901 
L 443.24468 153.109342 
L 443.699344 153.866841 
L 444.154007 154.905418 
L 444.608671 156.267087 
L 445.063334 158.016902 
L 445.517998 160.258589 
L 445.972661 163.167724 
L 446.427325 167.072456 
L 446.881988 172.696803 
L 447.336652 182.245133 
L 447.791315 218.431706 
L 448.245979 185.136478 
L 448.700642 174.149478 
L 449.155306 168.051818 
L 449.609969 163.913709 
L 450.519296 158.534775 
L 451.428623 155.31251 
L 451.883286 154.237145 
L 452.33795 153.449638 
L 452.792613 152.920502 
L 453.247277 152.631546 
L 453.70194 152.573247 
L 454.156604 152.743479 
L 454.611267 153.147252 
L 455.065931 153.79735 
L 455.520594 154.716077 
L 455.975258 155.938648 
L 456.429921 157.51943 
L 456.884585 159.543778 
L 457.339248 162.152151 
L 457.793912 165.595233 
L 458.248575 170.384258 
L 458.703239 177.843006 
L 459.157902 194.095928 
L 459.612566 194.261998 
L 460.067229 177.922894 
L 460.521893 170.461627 
L 460.976556 165.682033 
L 461.885883 159.659211 
L 462.79521 156.087038 
L 463.704537 153.980262 
L 464.1592 153.34772 
L 464.613864 152.96162 
L 465.068527 152.80914 
L 465.523191 152.885239 
L 465.977854 153.192014 
L 466.432518 153.738962 
L 466.887181 154.544239 
L 467.341845 155.637291 
L 467.796508 157.063726 
L 468.251172 158.894395 
L 468.705835 161.243284 
L 469.160499 164.306312 
L 469.615162 168.458919 
L 470.069826 174.566891 
L 470.524489 185.546027 
L 470.979153 219.390496 
L 471.433816 182.783952 
L 471.88848 173.234418 
L 472.343143 167.621745 
L 472.797806 163.732155 
L 473.707133 158.615264 
L 474.61646 155.539675 
L 475.071124 154.519418 
L 475.525787 153.780413 
L 475.980451 153.295611 
L 476.435114 153.048629 
L 476.889778 153.03142 
L 477.344441 153.243223 
L 477.799105 153.690463 
L 478.253768 154.387585 
L 478.708432 155.359061 
L 479.163095 156.643206 
L 479.617759 158.299218 
L 480.072422 160.420675 
L 480.527086 163.163546 
L 480.981749 166.812073 
L 481.436413 171.966713 
L 481.891076 180.295088 
L 482.34574 201.766943 
L 483.255066 176.536289 
L 483.70973 169.787894 
L 484.164393 165.331191 
L 485.07372 159.622422 
L 485.983047 156.215263 
L 486.892374 154.22061 
L 487.347038 153.634929 
L 487.801701 153.292578 
L 488.256365 153.18235 
L 488.711028 153.300619 
L 489.165692 153.650884 
L 489.620355 154.244206 
L 490.075019 155.100704 
L 490.529682 156.252526 
L 490.984346 157.749353 
L 491.439009 159.668721 
L 491.893673 162.136672 
L 492.348336 165.373677 
L 492.803 169.814537 
L 493.257663 176.515827 
L 494.16699 202.81146 
L 494.621653 180.66793 
L 495.076317 172.261464 
L 495.53098 167.082626 
L 495.985644 163.426178 
L 496.894971 158.563772 
L 497.804298 155.634817 
L 498.258961 154.670481 
L 498.713625 153.981077 
L 499.168288 153.541931 
L 499.622952 153.338445 
L 500.077615 153.364072 
L 500.532279 153.619458 
L 500.986942 154.112526 
L 501.441606 154.859519 
L 501.896269 155.887294 
L 502.350933 157.237639 
L 502.805596 158.975252 
L 503.26026 161.203245 
L 503.714923 164.096004 
L 504.169587 167.978967 
L 504.62425 173.568318 
L 505.078913 183.032192 
L 505.533577 217.632392 
L 505.98824 186.268486 
L 506.442904 175.16948 
L 506.897567 169.032044 
L 507.352231 164.870827 
L 508.261558 159.461834 
L 509.170885 156.217479 
L 509.625548 155.132389 
L 510.080212 154.335682 
L 510.534875 153.797723 
L 510.989539 153.50022 
L 511.444202 153.43357 
L 511.898866 153.595592 
L 512.353529 153.991241 
L 512.808193 154.633249 
L 513.262856 155.543864 
L 513.71752 156.758227 
L 514.172183 158.3306 
L 514.626847 160.346171 
L 515.08151 162.945087 
L 515.536173 166.377382 
L 515.990837 171.152611 
L 516.4455 178.588426 
L 516.900164 194.754616 
L 517.354827 195.156881 
L 517.809491 178.729127 
L 518.264154 171.244965 
L 518.718818 166.451833 
L 519.628145 160.409664 
L 520.537472 156.821691 
L 521.446799 154.700531 
L 521.901462 154.061109 
L 522.356126 153.668285 
L 522.810789 153.509215 
L 523.265453 153.578848 
L 523.720116 153.879273 
L 524.17478 154.419992 
L 524.629443 155.219171 
L 525.084107 156.306276 
L 525.53877 157.726953 
L 525.993433 159.552123 
L 526.448097 161.895897 
L 526.90276 164.954454 
L 527.357424 169.103854 
L 527.812087 175.21181 
L 528.266751 186.204567 
L 528.721414 219.644917 
L 529.176078 183.361577 
L 529.630741 173.820893 
L 530.085405 168.207504 
L 530.540068 164.314674 
L 531.449395 159.188791 
L 532.358722 156.10307 
L 532.813386 155.077609 
L 533.268049 154.33338 
L 533.722713 153.843368 
L 534.177376 153.59122 
L 534.63204 153.568919 
L 535.086703 153.775737 
L 535.541367 154.218138 
L 535.99603 154.910621 
L 536.450693 155.877732 
L 536.905357 157.1579 
L 537.36002 158.810508 
L 537.814684 160.92945 
L 538.269347 163.67131 
L 538.724011 167.32168 
L 539.178674 172.484713 
L 539.633338 180.843035 
L 540.088001 202.578157 
L 540.997328 176.922319 
L 541.451992 170.191842 
L 541.906655 165.74041 
L 542.815982 160.03099 
L 543.725309 156.618106 
L 544.634636 154.615995 
L 545.0893 154.02632 
L 545.543963 153.679912 
L 545.543963 153.679912 
" clip-path="url(#p21a3fac7bf)" style="fill: none; stroke: #2ca02c; stroke-linecap: square"/>
   </g>
   <g id="patch_3">
    <path d="M 57.167188 250.421875 
L 57.167188 24.12 
" style="fill: none; stroke: #000000; stroke-width: 0.8; stroke-linejoin: miter; stroke-linecap: square"/>
   </g>
   <g id="patch_4">
    <path d="M 568.8 250.421875 
L 568.8 24.12 
" style="fill: none; stroke: #000000; stroke-width: 0.8; stroke-linejoin: miter; stroke-linecap: square"/>
   </g>
   <g id="patch_5">
    <path d="M 57.167187 250.421875 
L 568.8 250.421875 
" style="fill: none; stroke: #000000; stroke-width: 0.8; stroke-linejoin: miter; stroke-linecap: square"/>
   </g>
   <g id="patch_6">
    <path d="M 57.167187 24.12 
L 568.8 24.12 
" style="fill: none; stroke: #000000; stroke-width: 0.8; stroke-linejoin: miter; stroke-linecap: square"/>
   </g>
   <g id="text_15">
    <!-- Magnitude response, $|H(\omega)|^2$ -->
    <g transform="translate(226.883594 18.12) scale(0.12 -0.12)">
     <defs>
      <path id="DejaVuSans-4d" d="M 628 4666 
L 1569 4666 
L 2759 1491 
L 3956 4666 
L 4897 4666 
L 4897 0 
L 4281 0 
L 4281 4097 
L 3078 897 
L 2444 897 
L 1241 4097 
L 1241 0 
L 628 0 
L 628 4666 
z
" transform="scale(0.015625)"/>
      <path id="DejaVuSans-67" d="M 2906 1791 
Q 2906 2416 2648 2759 
Q 2391 3103 1925 3103 
Q 1463 3103 1205 2759 
Q 947 2416 947 1791 
Q 947 1169 1205 825 
Q 1463 481 1925 481 
Q 2391 481 2648 825 
Q 2906 1169 2906 1791 
z
M 3481 434 
Q 3481 -459 3084 -895 
Q 2688 -1331 1869 -1331 
Q 1566 -1331 1297 -1286 
Q 1028 -1241 775 -1147 
L 775 -588 
Q 1028 -725 1275 -790 
Q 1522 -856 1778 -856 
Q 2344 -856 2625 -561 
Q 2906 -266 2906 331 
L 2906 616 
Q 2728 306 2450 153 
Q 2172 0 1784 0 
Q 1141 0 747 490 
Q 353 981 353 1791 
Q 353 2603 747 3093 
Q 1141 3584 1784 3584 
Q 2172 3584 2450 3431 
Q 2728 3278 2906 2969 
L 2906 3500 
L 3481 3500 
L 3481 434 
z
" transform="scale(0.015625)"/>
      <path id="DejaVuSans-74" d="M 1172 4494 
L 1172 3500 
L 2356 3500 
L 2356 3053 
L 1172 3053 
L 1172 1153 
Q 1172 725 1289 603 
Q 1406 481 1766 481 
L 2356 481 
L 2356 0 
L 1766 0 
Q 1100 0 847 248 
Q 594 497 594 1153 
L 594 3053 
L 172 3053 
L 172 3500 
L 594 3500 
L 594 4494 
L 1172 4494 
z
" transform="scale(0.015625)"/>
      <path id="DejaVuSans-73" d="M 2834 3397 
L 2834 2853 
Q 2591 2978 2328 3040 
Q 2066 3103 1784 3103 
Q 1356 3103 1142 2972 
Q 928 2841 928 2578 
Q 928 2378 1081 2264 
Q 1234 2150 1697 2047 
L 1894 2003 
Q 2506 1872 2764 1633 
Q 3022 1394 3022 966 
Q 3022 478 2636 193 
Q 2250 -91 1575 -91 
Q 1294 -91 989 -36 
Q 684 19 347 128 
L 347 722 
Q 666 556 975 473 
Q 1284 391 1588 391 
Q 1994 391 2212 530 
Q 2431 669 2431 922 
Q 2431 1156 2273 1281 
Q 2116 1406 1581 1522 
L 1381 1569 
Q 847 1681 609 1914 
Q 372 2147 372 2553 
Q 372 3047 722 3315 
Q 1072 3584 1716 3584 
Q 2034 3584 2315 3537 
Q 2597 3491 2834 3397 
z
" transform="scale(0.015625)"/>
      <path id="DejaVuSans-70" d="M 1159 525 
L 1159 -1331 
L 581 -1331 
L 581 3500 
L 1159 3500 
L 1159 2969 
Q 1341 3281 1617 3432 
Q 1894 3584 2278 3584 
Q 2916 3584 3314 3078 
Q 3713 2572 3713 1747 
Q 3713 922 3314 415 
Q 2916 -91 2278 -91 
Q 1894 -91 1617 61 
Q 1341 213 1159 525 
z
M 3116 1747 
Q 3116 2381 2855 2742 
Q 2594 3103 2138 3103 
Q 1681 3103 1420 2742 
Q 1159 2381 1159 1747 
Q 1159 1113 1420 752 
Q 1681 391 2138 391 
Q 2594 391 2855 752 
Q 3116 1113 3116 1747 
z
" transform="scale(0.015625)"/>
     </defs>
     <use xlink:href="#DejaVuSans-4d" transform="translate(0 0.765625)"/>
     <use xlink:href="#DejaVuSans-61" transform="translate(86.279297 0.765625)"/>
     <use xlink:href="#DejaVuSans-67" transform="translate(147.558594 0.765625)"/>
     <use xlink:href="#DejaVuSans-6e" transform="translate(211.035156 0.765625)"/>
     <use xlink:href="#DejaVuSans-69" transform="translate(274.414062 0.765625)"/>
     <use xlink:href="#DejaVuSans-74" transform="translate(302.197266 0.765625)"/>
     <use xlink:href="#DejaVuSans-75" transform="translate(341.40625 0.765625)"/>
     <use xlink:href="#DejaVuSans-64" transform="translate(404.785156 0.765625)"/>
     <use xlink:href="#DejaVuSans-65" transform="translate(468.261719 0.765625)"/>
     <use xlink:href="#DejaVuSans-20" transform="translate(529.785156 0.765625)"/>
     <use xlink:href="#DejaVuSans-72" transform="translate(561.572266 0.765625)"/>
     <use xlink:href="#DejaVuSans-65" transform="translate(602.685547 0.765625)"/>
     <use xlink:href="#DejaVuSans-73" transform="translate(664.208984 0.765625)"/>
     <use xlink:href="#DejaVuSans-70" transform="translate(716.308594 0.765625)"/>
     <use xlink:href="#DejaVuSans-6f" transform="translate(779.785156 0.765625)"/>
     <use xlink:href="#DejaVuSans-6e" transform="translate(840.966797 0.765625)"/>
     <use xlink:href="#DejaVuSans-73" transform="translate(904.345703 0.765625)"/>
     <use xlink:href="#DejaVuSans-65" transform="translate(956.445312 0.765625)"/>
     <use xlink:href="#DejaVuSans-2c" transform="translate(1017.96875 0.765625)"/>
     <use xlink:href="#DejaVuSans-20" transform="translate(1049.755859 0.765625)"/>
     <use xlink:href="#DejaVuSans-7c" transform="translate(1081.542969 0.765625)"/>
     <use xlink:href="#DejaVuSans-Oblique-48" transform="translate(1115.234375 0.765625)"/>
     <use xlink:href="#DejaVuSans-28" transform="translate(1190.429688 0.765625)"/>
     <use xlink:href="#DejaVuSans-Oblique-3c9" transform="translate(1229.443359 0.765625)"/>
     <use xlink:href="#DejaVuSans-29" transform="translate(1313.183594 0.765625)"/>
     <use xlink:href="#DejaVuSans-7c" transform="translate(1352.197266 0.765625)"/>
     <use xlink:href="#DejaVuSans-32" transform="translate(1386.845703 39.046875) scale(0.7)"/>
    </g>
   </g>
   <g id="legend_1">
    <g id="patch_7">
     <path d="M 495 76.154375 
L 561.8 76.154375 
Q 563.8 76.154375 563.8 74.154375 
L 563.8 31.12 
Q 563.8 29.12 561.8 29.12 
L 495 29.12 
Q 493 29.12 493 31.12 
L 493 74.154375 
Q 493 76.154375 495 76.154375 
z
" style="fill: #ffffff; opacity: 0.8; stroke: #cccccc; stroke-linejoin: miter"/>
    </g>
    <g id="line2d_28">
     <path d="M 497 37.218438 
L 507 37.218438 
L 517 37.218438 
" style="fill: none; stroke: #1f77b4; stroke-linecap: square"/>
    </g>
    <g id="text_16">
     <!-- $\alpha = 0.1$ -->
     <g transform="translate(525 40.718438) scale(0.1 -0.1)">
      <defs>
       <path id="DejaVuSans-Oblique-3b1" d="M 2619 1628 
L 2622 2350 
Q 2625 3088 2069 3091 
Q 1653 3094 1394 2747 
Q 1069 2319 959 1747 
Q 825 1059 994 731 
Q 1169 397 1547 397 
Q 1966 397 2319 1063 
L 2619 1628 
z
M 2166 3578 
Q 3141 3594 3128 2584 
Q 3128 2584 3616 3500 
L 4128 3500 
L 3119 1603 
L 3109 919 
Q 3109 766 3194 638 
Q 3291 488 3391 488 
L 3669 488 
L 3575 0 
L 3228 0 
Q 2934 0 2722 263 
Q 2622 394 2619 669 
Q 2416 334 2066 50 
Q 1900 -81 1453 -78 
Q 722 -72 456 397 
Q 184 884 353 1747 
Q 534 2675 1009 3097 
Q 1544 3569 2166 3578 
z
" transform="scale(0.015625)"/>
       <path id="DejaVuSans-3d" d="M 678 2906 
L 4684 2906 
L 4684 2381 
L 678 2381 
L 678 2906 
z
M 678 1631 
L 4684 1631 
L 4684 1100 
L 678 1100 
L 678 1631 
z
" transform="scale(0.015625)"/>
      </defs>
      <use xlink:href="#DejaVuSans-Oblique-3b1" transform="translate(0 0.78125)"/>
      <use xlink:href="#DejaVuSans-3d" transform="translate(85.400391 0.78125)"/>
      <use xlink:href="#DejaVuSans-30" transform="translate(188.671875 0.78125)"/>
      <use xlink:href="#DejaVuSans-2e" transform="translate(252.294922 0.78125)"/>
      <use xlink:href="#DejaVuSans-31" transform="translate(284.082031 0.78125)"/>
     </g>
    </g>
    <g id="line2d_29">
     <path d="M 497 51.896563 
L 507 51.896563 
L 517 51.896563 
" style="fill: none; stroke: #ff7f0e; stroke-linecap: square"/>
    </g>
    <g id="text_17">
     <!-- $\alpha = 0.5$ -->
     <g transform="translate(525 55.396563) scale(0.1 -0.1)">
      <use xlink:href="#DejaVuSans-Oblique-3b1" transform="translate(0 0.78125)"/>
      <use xlink:href="#DejaVuSans-3d" transform="translate(85.400391 0.78125)"/>
      <use xlink:href="#DejaVuSans-30" transform="translate(188.671875 0.78125)"/>
      <use xlink:href="#DejaVuSans-2e" transform="translate(252.294922 0.78125)"/>
      <use xlink:href="#DejaVuSans-35" transform="translate(284.082031 0.78125)"/>
     </g>
    </g>
    <g id="line2d_30">
     <path d="M 497 66.574688 
L 507 66.574688 
L 517 66.574688 
" style="fill: none; stroke: #2ca02c; stroke-linecap: square"/>
    </g>
    <g id="text_18">
     <!-- $\alpha = 0.9$ -->
     <g transform="translate(525 70.074688) scale(0.1 -0.1)">
      <defs>
       <path id="DejaVuSans-39" d="M 703 97 
L 703 672 
Q 941 559 1184 500 
Q 1428 441 1663 441 
Q 2288 441 2617 861 
Q 2947 1281 2994 2138 
Q 2813 1869 2534 1725 
Q 2256 1581 1919 1581 
Q 1219 1581 811 2004 
Q 403 2428 403 3163 
Q 403 3881 828 4315 
Q 1253 4750 1959 4750 
Q 2769 4750 3195 4129 
Q 3622 3509 3622 2328 
Q 3622 1225 3098 567 
Q 2575 -91 1691 -91 
Q 1453 -91 1209 -44 
Q 966 3 703 97 
z
M 1959 2075 
Q 2384 2075 2632 2365 
Q 2881 2656 2881 3163 
Q 2881 3666 2632 3958 
Q 2384 4250 1959 4250 
Q 1534 4250 1286 3958 
Q 1038 3666 1038 3163 
Q 1038 2656 1286 2365 
Q 1534 2075 1959 2075 
z
" transform="scale(0.015625)"/>
      </defs>
      <use xlink:href="#DejaVuSans-Oblique-3b1" transform="translate(0 0.78125)"/>
      <use xlink:href="#DejaVuSans-3d" transform="translate(85.400391 0.78125)"/>
      <use xlink:href="#DejaVuSans-30" transform="translate(188.671875 0.78125)"/>
      <use xlink:href="#DejaVuSans-2e" transform="translate(252.294922 0.78125)"/>
      <use xlink:href="#DejaVuSans-39" transform="translate(284.082031 0.78125)"/>
     </g>
    </g>
   </g>
  </g>
 </g>
 <defs>
  <clipPath id="p21a3fac7bf">
   <rect x="57.167188" y="24.12" width="511.632813" height="226.301875"/>
  </clipPath>
 </defs>
</svg>
