<?xml version="1.0" encoding="utf-8" standalone="no"?>
<!DOCTYPE svg PUBLIC "-//W3C//DTD SVG 1.1//EN"
  "http://www.w3.org/Graphics/SVG/1.1/DTD/svg11.dtd">
<svg xmlns:xlink="http://www.w3.org/1999/xlink" width="576pt" height="288pt" viewBox="0 0 576 288" xmlns="http://www.w3.org/2000/svg" version="1.1">
 <metadata>
  <rdf:RDF xmlns:dc="http://purl.org/dc/elements/1.1/" xmlns:cc="http://creativecommons.org/ns#" xmlns:rdf="http://www.w3.org/1999/02/22-rdf-syntax-ns#">
   <cc:Work>
    <dc:type rdf:resource="http://purl.org/dc/dcmitype/StillImage"/>
    <dc:date>2025-05-10T16:16:49.949031</dc:date>
    <dc:format>image/svg+xml</dc:format>
    <dc:creator>
     <cc:Agent>
      <dc:title>Matplotlib v3.10.3, https://matplotlib.org/</dc:title>
     </cc:Agent>
    </dc:creator>
   </cc:Work>
  </rdf:RDF>
 </metadata>
 <defs>
  <style type="text/css">*{stroke-linejoin: round; stroke-linecap: butt}</style>
 </defs>
 <g id="figure_1">
  <g id="patch_1">
   <path d="M 0 288 
L 576 288 
L 576 0 
L 0 0 
z
" style="fill: #ffffff"/>
  </g>
  <g id="axes_1">
   <g id="patch_2">
    <path d="M 40.625 250.421875 
L 568.8 250.421875 
L 568.8 22.318125 
L 40.625 22.318125 
z
" style="fill: #ffffff"/>
   </g>
   <g id="matplotlib.axis_1">
    <g id="xtick_1">
     <g id="line2d_1">
      <path d="M 64.632955 250.421875 
L 64.632955 22.318125 
" clip-path="url(#p31176659f9)" style="fill: none; stroke-dasharray: 2.96,1.28; stroke-dashoffset: 0; stroke: #b0b0b0; stroke-opacity: 0.8; stroke-width: 0.8"/>
     </g>
     <g id="line2d_2">
      <defs>
       <path id="mfb8f713a29" d="M 0 0 
L 0 3.5 
" style="stroke: #000000; stroke-width: 0.8"/>
      </defs>
      <g>
       <use xlink:href="#mfb8f713a29" x="64.632955" y="250.421875" style="stroke: #000000; stroke-width: 0.8"/>
      </g>
     </g>
     <g id="text_1">
      <!-- $\mathdefault{10^{0}}$ -->
      <g transform="translate(55.832955 265.020312) scale(0.1 -0.1)">
       <defs>
        <path id="DejaVuSans-31" d="M 794 531 
L 1825 531 
L 1825 4091 
L 703 3866 
L 703 4441 
L 1819 4666 
L 2450 4666 
L 2450 531 
L 3481 531 
L 3481 0 
L 794 0 
L 794 531 
z
" transform="scale(0.015625)"/>
        <path id="DejaVuSans-30" d="M 2034 4250 
Q 1547 4250 1301 3770 
Q 1056 3291 1056 2328 
Q 1056 1369 1301 889 
Q 1547 409 2034 409 
Q 2525 409 2770 889 
Q 3016 1369 3016 2328 
Q 3016 3291 2770 3770 
Q 2525 4250 2034 4250 
z
M 2034 4750 
Q 2819 4750 3233 4129 
Q 3647 3509 3647 2328 
Q 3647 1150 3233 529 
Q 2819 -91 2034 -91 
Q 1250 -91 836 529 
Q 422 1150 422 2328 
Q 422 3509 836 4129 
Q 1250 4750 2034 4750 
z
" transform="scale(0.015625)"/>
       </defs>
       <use xlink:href="#DejaVuSans-31" transform="translate(0 0.765625)"/>
       <use xlink:href="#DejaVuSans-30" transform="translate(63.623047 0.765625)"/>
       <use xlink:href="#DejaVuSans-30" transform="translate(128.203125 39.046875) scale(0.7)"/>
      </g>
     </g>
    </g>
    <g id="xtick_2">
     <g id="line2d_3">
      <path d="M 224.685985 250.421875 
L 224.685985 22.318125 
" clip-path="url(#p31176659f9)" style="fill: none; stroke-dasharray: 2.96,1.28; stroke-dashoffset: 0; stroke: #b0b0b0; stroke-opacity: 0.8; stroke-width: 0.8"/>
     </g>
     <g id="line2d_4">
      <g>
       <use xlink:href="#mfb8f713a29" x="224.685985" y="250.421875" style="stroke: #000000; stroke-width: 0.8"/>
      </g>
     </g>
     <g id="text_2">
      <!-- $\mathdefault{10^{1}}$ -->
      <g transform="translate(215.885985 265.020312) scale(0.1 -0.1)">
       <use xlink:href="#DejaVuSans-31" transform="translate(0 0.684375)"/>
       <use xlink:href="#DejaVuSans-30" transform="translate(63.623047 0.684375)"/>
       <use xlink:href="#DejaVuSans-31" transform="translate(128.203125 38.965625) scale(0.7)"/>
      </g>
     </g>
    </g>
    <g id="xtick_3">
     <g id="line2d_5">
      <path d="M 384.739015 250.421875 
L 384.739015 22.318125 
" clip-path="url(#p31176659f9)" style="fill: none; stroke-dasharray: 2.96,1.28; stroke-dashoffset: 0; stroke: #b0b0b0; stroke-opacity: 0.8; stroke-width: 0.8"/>
     </g>
     <g id="line2d_6">
      <g>
       <use xlink:href="#mfb8f713a29" x="384.739015" y="250.421875" style="stroke: #000000; stroke-width: 0.8"/>
      </g>
     </g>
     <g id="text_3">
      <!-- $\mathdefault{10^{2}}$ -->
      <g transform="translate(375.939015 265.020312) scale(0.1 -0.1)">
       <defs>
        <path id="DejaVuSans-32" d="M 1228 531 
L 3431 531 
L 3431 0 
L 469 0 
L 469 531 
Q 828 903 1448 1529 
Q 2069 2156 2228 2338 
Q 2531 2678 2651 2914 
Q 2772 3150 2772 3378 
Q 2772 3750 2511 3984 
Q 2250 4219 1831 4219 
Q 1534 4219 1204 4116 
Q 875 4013 500 3803 
L 500 4441 
Q 881 4594 1212 4672 
Q 1544 4750 1819 4750 
Q 2544 4750 2975 4387 
Q 3406 4025 3406 3419 
Q 3406 3131 3298 2873 
Q 3191 2616 2906 2266 
Q 2828 2175 2409 1742 
Q 1991 1309 1228 531 
z
" transform="scale(0.015625)"/>
       </defs>
       <use xlink:href="#DejaVuSans-31" transform="translate(0 0.765625)"/>
       <use xlink:href="#DejaVuSans-30" transform="translate(63.623047 0.765625)"/>
       <use xlink:href="#DejaVuSans-32" transform="translate(128.203125 39.046875) scale(0.7)"/>
      </g>
     </g>
    </g>
    <g id="xtick_4">
     <g id="line2d_7">
      <path d="M 544.792045 250.421875 
L 544.792045 22.318125 
" clip-path="url(#p31176659f9)" style="fill: none; stroke-dasharray: 2.96,1.28; stroke-dashoffset: 0; stroke: #b0b0b0; stroke-opacity: 0.8; stroke-width: 0.8"/>
     </g>
     <g id="line2d_8">
      <g>
       <use xlink:href="#mfb8f713a29" x="544.792045" y="250.421875" style="stroke: #000000; stroke-width: 0.8"/>
      </g>
     </g>
     <g id="text_4">
      <!-- $\mathdefault{10^{3}}$ -->
      <g transform="translate(535.992045 265.020312) scale(0.1 -0.1)">
       <defs>
        <path id="DejaVuSans-33" d="M 2597 2516 
Q 3050 2419 3304 2112 
Q 3559 1806 3559 1356 
Q 3559 666 3084 287 
Q 2609 -91 1734 -91 
Q 1441 -91 1130 -33 
Q 819 25 488 141 
L 488 750 
Q 750 597 1062 519 
Q 1375 441 1716 441 
Q 2309 441 2620 675 
Q 2931 909 2931 1356 
Q 2931 1769 2642 2001 
Q 2353 2234 1838 2234 
L 1294 2234 
L 1294 2753 
L 1863 2753 
Q 2328 2753 2575 2939 
Q 2822 3125 2822 3475 
Q 2822 3834 2567 4026 
Q 2313 4219 1838 4219 
Q 1578 4219 1281 4162 
Q 984 4106 628 3988 
L 628 4550 
Q 988 4650 1302 4700 
Q 1616 4750 1894 4750 
Q 2613 4750 3031 4423 
Q 3450 4097 3450 3541 
Q 3450 3153 3228 2886 
Q 3006 2619 2597 2516 
z
" transform="scale(0.015625)"/>
       </defs>
       <use xlink:href="#DejaVuSans-31" transform="translate(0 0.765625)"/>
       <use xlink:href="#DejaVuSans-30" transform="translate(63.623047 0.765625)"/>
       <use xlink:href="#DejaVuSans-33" transform="translate(128.203125 39.046875) scale(0.7)"/>
      </g>
     </g>
    </g>
    <g id="xtick_5">
     <g id="line2d_9">
      <path d="M 49.122213 250.421875 
L 49.122213 22.318125 
" clip-path="url(#p31176659f9)" style="fill: none; stroke-dasharray: 2.96,1.28; stroke-dashoffset: 0; stroke: #b0b0b0; stroke-opacity: 0.8; stroke-width: 0.8"/>
     </g>
     <g id="line2d_10">
      <defs>
       <path id="mebd3e33184" d="M 0 0 
L 0 2 
" style="stroke: #000000; stroke-width: 0.6"/>
      </defs>
      <g>
       <use xlink:href="#mebd3e33184" x="49.122213" y="250.421875" style="stroke: #000000; stroke-width: 0.6"/>
      </g>
     </g>
    </g>
    <g id="xtick_6">
     <g id="line2d_11">
      <path d="M 57.30933 250.421875 
L 57.30933 22.318125 
" clip-path="url(#p31176659f9)" style="fill: none; stroke-dasharray: 2.96,1.28; stroke-dashoffset: 0; stroke: #b0b0b0; stroke-opacity: 0.8; stroke-width: 0.8"/>
     </g>
     <g id="line2d_12">
      <g>
       <use xlink:href="#mebd3e33184" x="57.30933" y="250.421875" style="stroke: #000000; stroke-width: 0.6"/>
      </g>
     </g>
    </g>
    <g id="xtick_7">
     <g id="line2d_13">
      <path d="M 112.813718 250.421875 
L 112.813718 22.318125 
" clip-path="url(#p31176659f9)" style="fill: none; stroke-dasharray: 2.96,1.28; stroke-dashoffset: 0; stroke: #b0b0b0; stroke-opacity: 0.8; stroke-width: 0.8"/>
     </g>
     <g id="line2d_14">
      <g>
       <use xlink:href="#mebd3e33184" x="112.813718" y="250.421875" style="stroke: #000000; stroke-width: 0.6"/>
      </g>
     </g>
    </g>
    <g id="xtick_8">
     <g id="line2d_15">
      <path d="M 140.997657 250.421875 
L 140.997657 22.318125 
" clip-path="url(#p31176659f9)" style="fill: none; stroke-dasharray: 2.96,1.28; stroke-dashoffset: 0; stroke: #b0b0b0; stroke-opacity: 0.8; stroke-width: 0.8"/>
     </g>
     <g id="line2d_16">
      <g>
       <use xlink:href="#mebd3e33184" x="140.997657" y="250.421875" style="stroke: #000000; stroke-width: 0.6"/>
      </g>
     </g>
    </g>
    <g id="xtick_9">
     <g id="line2d_17">
      <path d="M 160.994481 250.421875 
L 160.994481 22.318125 
" clip-path="url(#p31176659f9)" style="fill: none; stroke-dasharray: 2.96,1.28; stroke-dashoffset: 0; stroke: #b0b0b0; stroke-opacity: 0.8; stroke-width: 0.8"/>
     </g>
     <g id="line2d_18">
      <g>
       <use xlink:href="#mebd3e33184" x="160.994481" y="250.421875" style="stroke: #000000; stroke-width: 0.6"/>
      </g>
     </g>
    </g>
    <g id="xtick_10">
     <g id="line2d_19">
      <path d="M 176.505222 250.421875 
L 176.505222 22.318125 
" clip-path="url(#p31176659f9)" style="fill: none; stroke-dasharray: 2.96,1.28; stroke-dashoffset: 0; stroke: #b0b0b0; stroke-opacity: 0.8; stroke-width: 0.8"/>
     </g>
     <g id="line2d_20">
      <g>
       <use xlink:href="#mebd3e33184" x="176.505222" y="250.421875" style="stroke: #000000; stroke-width: 0.6"/>
      </g>
     </g>
    </g>
    <g id="xtick_11">
     <g id="line2d_21">
      <path d="M 189.17842 250.421875 
L 189.17842 22.318125 
" clip-path="url(#p31176659f9)" style="fill: none; stroke-dasharray: 2.96,1.28; stroke-dashoffset: 0; stroke: #b0b0b0; stroke-opacity: 0.8; stroke-width: 0.8"/>
     </g>
     <g id="line2d_22">
      <g>
       <use xlink:href="#mebd3e33184" x="189.17842" y="250.421875" style="stroke: #000000; stroke-width: 0.6"/>
      </g>
     </g>
    </g>
    <g id="xtick_12">
     <g id="line2d_23">
      <path d="M 199.893457 250.421875 
L 199.893457 22.318125 
" clip-path="url(#p31176659f9)" style="fill: none; stroke-dasharray: 2.96,1.28; stroke-dashoffset: 0; stroke: #b0b0b0; stroke-opacity: 0.8; stroke-width: 0.8"/>
     </g>
     <g id="line2d_24">
      <g>
       <use xlink:href="#mebd3e33184" x="199.893457" y="250.421875" style="stroke: #000000; stroke-width: 0.6"/>
      </g>
     </g>
    </g>
    <g id="xtick_13">
     <g id="line2d_25">
      <path d="M 209.175244 250.421875 
L 209.175244 22.318125 
" clip-path="url(#p31176659f9)" style="fill: none; stroke-dasharray: 2.96,1.28; stroke-dashoffset: 0; stroke: #b0b0b0; stroke-opacity: 0.8; stroke-width: 0.8"/>
     </g>
     <g id="line2d_26">
      <g>
       <use xlink:href="#mebd3e33184" x="209.175244" y="250.421875" style="stroke: #000000; stroke-width: 0.6"/>
      </g>
     </g>
    </g>
    <g id="xtick_14">
     <g id="line2d_27">
      <path d="M 217.36236 250.421875 
L 217.36236 22.318125 
" clip-path="url(#p31176659f9)" style="fill: none; stroke-dasharray: 2.96,1.28; stroke-dashoffset: 0; stroke: #b0b0b0; stroke-opacity: 0.8; stroke-width: 0.8"/>
     </g>
     <g id="line2d_28">
      <g>
       <use xlink:href="#mebd3e33184" x="217.36236" y="250.421875" style="stroke: #000000; stroke-width: 0.6"/>
      </g>
     </g>
    </g>
    <g id="xtick_15">
     <g id="line2d_29">
      <path d="M 272.866748 250.421875 
L 272.866748 22.318125 
" clip-path="url(#p31176659f9)" style="fill: none; stroke-dasharray: 2.96,1.28; stroke-dashoffset: 0; stroke: #b0b0b0; stroke-opacity: 0.8; stroke-width: 0.8"/>
     </g>
     <g id="line2d_30">
      <g>
       <use xlink:href="#mebd3e33184" x="272.866748" y="250.421875" style="stroke: #000000; stroke-width: 0.6"/>
      </g>
     </g>
    </g>
    <g id="xtick_16">
     <g id="line2d_31">
      <path d="M 301.050687 250.421875 
L 301.050687 22.318125 
" clip-path="url(#p31176659f9)" style="fill: none; stroke-dasharray: 2.96,1.28; stroke-dashoffset: 0; stroke: #b0b0b0; stroke-opacity: 0.8; stroke-width: 0.8"/>
     </g>
     <g id="line2d_32">
      <g>
       <use xlink:href="#mebd3e33184" x="301.050687" y="250.421875" style="stroke: #000000; stroke-width: 0.6"/>
      </g>
     </g>
    </g>
    <g id="xtick_17">
     <g id="line2d_33">
      <path d="M 321.047511 250.421875 
L 321.047511 22.318125 
" clip-path="url(#p31176659f9)" style="fill: none; stroke-dasharray: 2.96,1.28; stroke-dashoffset: 0; stroke: #b0b0b0; stroke-opacity: 0.8; stroke-width: 0.8"/>
     </g>
     <g id="line2d_34">
      <g>
       <use xlink:href="#mebd3e33184" x="321.047511" y="250.421875" style="stroke: #000000; stroke-width: 0.6"/>
      </g>
     </g>
    </g>
    <g id="xtick_18">
     <g id="line2d_35">
      <path d="M 336.558252 250.421875 
L 336.558252 22.318125 
" clip-path="url(#p31176659f9)" style="fill: none; stroke-dasharray: 2.96,1.28; stroke-dashoffset: 0; stroke: #b0b0b0; stroke-opacity: 0.8; stroke-width: 0.8"/>
     </g>
     <g id="line2d_36">
      <g>
       <use xlink:href="#mebd3e33184" x="336.558252" y="250.421875" style="stroke: #000000; stroke-width: 0.6"/>
      </g>
     </g>
    </g>
    <g id="xtick_19">
     <g id="line2d_37">
      <path d="M 349.231451 250.421875 
L 349.231451 22.318125 
" clip-path="url(#p31176659f9)" style="fill: none; stroke-dasharray: 2.96,1.28; stroke-dashoffset: 0; stroke: #b0b0b0; stroke-opacity: 0.8; stroke-width: 0.8"/>
     </g>
     <g id="line2d_38">
      <g>
       <use xlink:href="#mebd3e33184" x="349.231451" y="250.421875" style="stroke: #000000; stroke-width: 0.6"/>
      </g>
     </g>
    </g>
    <g id="xtick_20">
     <g id="line2d_39">
      <path d="M 359.946487 250.421875 
L 359.946487 22.318125 
" clip-path="url(#p31176659f9)" style="fill: none; stroke-dasharray: 2.96,1.28; stroke-dashoffset: 0; stroke: #b0b0b0; stroke-opacity: 0.8; stroke-width: 0.8"/>
     </g>
     <g id="line2d_40">
      <g>
       <use xlink:href="#mebd3e33184" x="359.946487" y="250.421875" style="stroke: #000000; stroke-width: 0.6"/>
      </g>
     </g>
    </g>
    <g id="xtick_21">
     <g id="line2d_41">
      <path d="M 369.228274 250.421875 
L 369.228274 22.318125 
" clip-path="url(#p31176659f9)" style="fill: none; stroke-dasharray: 2.96,1.28; stroke-dashoffset: 0; stroke: #b0b0b0; stroke-opacity: 0.8; stroke-width: 0.8"/>
     </g>
     <g id="line2d_42">
      <g>
       <use xlink:href="#mebd3e33184" x="369.228274" y="250.421875" style="stroke: #000000; stroke-width: 0.6"/>
      </g>
     </g>
    </g>
    <g id="xtick_22">
     <g id="line2d_43">
      <path d="M 377.41539 250.421875 
L 377.41539 22.318125 
" clip-path="url(#p31176659f9)" style="fill: none; stroke-dasharray: 2.96,1.28; stroke-dashoffset: 0; stroke: #b0b0b0; stroke-opacity: 0.8; stroke-width: 0.8"/>
     </g>
     <g id="line2d_44">
      <g>
       <use xlink:href="#mebd3e33184" x="377.41539" y="250.421875" style="stroke: #000000; stroke-width: 0.6"/>
      </g>
     </g>
    </g>
    <g id="xtick_23">
     <g id="line2d_45">
      <path d="M 432.919778 250.421875 
L 432.919778 22.318125 
" clip-path="url(#p31176659f9)" style="fill: none; stroke-dasharray: 2.96,1.28; stroke-dashoffset: 0; stroke: #b0b0b0; stroke-opacity: 0.8; stroke-width: 0.8"/>
     </g>
     <g id="line2d_46">
      <g>
       <use xlink:href="#mebd3e33184" x="432.919778" y="250.421875" style="stroke: #000000; stroke-width: 0.6"/>
      </g>
     </g>
    </g>
    <g id="xtick_24">
     <g id="line2d_47">
      <path d="M 461.103718 250.421875 
L 461.103718 22.318125 
" clip-path="url(#p31176659f9)" style="fill: none; stroke-dasharray: 2.96,1.28; stroke-dashoffset: 0; stroke: #b0b0b0; stroke-opacity: 0.8; stroke-width: 0.8"/>
     </g>
     <g id="line2d_48">
      <g>
       <use xlink:href="#mebd3e33184" x="461.103718" y="250.421875" style="stroke: #000000; stroke-width: 0.6"/>
      </g>
     </g>
    </g>
    <g id="xtick_25">
     <g id="line2d_49">
      <path d="M 481.100541 250.421875 
L 481.100541 22.318125 
" clip-path="url(#p31176659f9)" style="fill: none; stroke-dasharray: 2.96,1.28; stroke-dashoffset: 0; stroke: #b0b0b0; stroke-opacity: 0.8; stroke-width: 0.8"/>
     </g>
     <g id="line2d_50">
      <g>
       <use xlink:href="#mebd3e33184" x="481.100541" y="250.421875" style="stroke: #000000; stroke-width: 0.6"/>
      </g>
     </g>
    </g>
    <g id="xtick_26">
     <g id="line2d_51">
      <path d="M 496.611282 250.421875 
L 496.611282 22.318125 
" clip-path="url(#p31176659f9)" style="fill: none; stroke-dasharray: 2.96,1.28; stroke-dashoffset: 0; stroke: #b0b0b0; stroke-opacity: 0.8; stroke-width: 0.8"/>
     </g>
     <g id="line2d_52">
      <g>
       <use xlink:href="#mebd3e33184" x="496.611282" y="250.421875" style="stroke: #000000; stroke-width: 0.6"/>
      </g>
     </g>
    </g>
    <g id="xtick_27">
     <g id="line2d_53">
      <path d="M 509.284481 250.421875 
L 509.284481 22.318125 
" clip-path="url(#p31176659f9)" style="fill: none; stroke-dasharray: 2.96,1.28; stroke-dashoffset: 0; stroke: #b0b0b0; stroke-opacity: 0.8; stroke-width: 0.8"/>
     </g>
     <g id="line2d_54">
      <g>
       <use xlink:href="#mebd3e33184" x="509.284481" y="250.421875" style="stroke: #000000; stroke-width: 0.6"/>
      </g>
     </g>
    </g>
    <g id="xtick_28">
     <g id="line2d_55">
      <path d="M 519.999517 250.421875 
L 519.999517 22.318125 
" clip-path="url(#p31176659f9)" style="fill: none; stroke-dasharray: 2.96,1.28; stroke-dashoffset: 0; stroke: #b0b0b0; stroke-opacity: 0.8; stroke-width: 0.8"/>
     </g>
     <g id="line2d_56">
      <g>
       <use xlink:href="#mebd3e33184" x="519.999517" y="250.421875" style="stroke: #000000; stroke-width: 0.6"/>
      </g>
     </g>
    </g>
    <g id="xtick_29">
     <g id="line2d_57">
      <path d="M 529.281304 250.421875 
L 529.281304 22.318125 
" clip-path="url(#p31176659f9)" style="fill: none; stroke-dasharray: 2.96,1.28; stroke-dashoffset: 0; stroke: #b0b0b0; stroke-opacity: 0.8; stroke-width: 0.8"/>
     </g>
     <g id="line2d_58">
      <g>
       <use xlink:href="#mebd3e33184" x="529.281304" y="250.421875" style="stroke: #000000; stroke-width: 0.6"/>
      </g>
     </g>
    </g>
    <g id="xtick_30">
     <g id="line2d_59">
      <path d="M 537.46842 250.421875 
L 537.46842 22.318125 
" clip-path="url(#p31176659f9)" style="fill: none; stroke-dasharray: 2.96,1.28; stroke-dashoffset: 0; stroke: #b0b0b0; stroke-opacity: 0.8; stroke-width: 0.8"/>
     </g>
     <g id="line2d_60">
      <g>
       <use xlink:href="#mebd3e33184" x="537.46842" y="250.421875" style="stroke: #000000; stroke-width: 0.6"/>
      </g>
     </g>
    </g>
    <g id="text_5">
     <!-- Number of samples, $N_{nc}$ -->
     <g transform="translate(244.6125 278.7) scale(0.1 -0.1)">
      <defs>
       <path id="DejaVuSans-4e" d="M 628 4666 
L 1478 4666 
L 3547 763 
L 3547 4666 
L 4159 4666 
L 4159 0 
L 3309 0 
L 1241 3903 
L 1241 0 
L 628 0 
L 628 4666 
z
" transform="scale(0.015625)"/>
       <path id="DejaVuSans-75" d="M 544 1381 
L 544 3500 
L 1119 3500 
L 1119 1403 
Q 1119 906 1312 657 
Q 1506 409 1894 409 
Q 2359 409 2629 706 
Q 2900 1003 2900 1516 
L 2900 3500 
L 3475 3500 
L 3475 0 
L 2900 0 
L 2900 538 
Q 2691 219 2414 64 
Q 2138 -91 1772 -91 
Q 1169 -91 856 284 
Q 544 659 544 1381 
z
M 1991 3584 
L 1991 3584 
z
" transform="scale(0.015625)"/>
       <path id="DejaVuSans-6d" d="M 3328 2828 
Q 3544 3216 3844 3400 
Q 4144 3584 4550 3584 
Q 5097 3584 5394 3201 
Q 5691 2819 5691 2113 
L 5691 0 
L 5113 0 
L 5113 2094 
Q 5113 2597 4934 2840 
Q 4756 3084 4391 3084 
Q 3944 3084 3684 2787 
Q 3425 2491 3425 1978 
L 3425 0 
L 2847 0 
L 2847 2094 
Q 2847 2600 2669 2842 
Q 2491 3084 2119 3084 
Q 1678 3084 1418 2786 
Q 1159 2488 1159 1978 
L 1159 0 
L 581 0 
L 581 3500 
L 1159 3500 
L 1159 2956 
Q 1356 3278 1631 3431 
Q 1906 3584 2284 3584 
Q 2666 3584 2933 3390 
Q 3200 3197 3328 2828 
z
" transform="scale(0.015625)"/>
       <path id="DejaVuSans-62" d="M 3116 1747 
Q 3116 2381 2855 2742 
Q 2594 3103 2138 3103 
Q 1681 3103 1420 2742 
Q 1159 2381 1159 1747 
Q 1159 1113 1420 752 
Q 1681 391 2138 391 
Q 2594 391 2855 752 
Q 3116 1113 3116 1747 
z
M 1159 2969 
Q 1341 3281 1617 3432 
Q 1894 3584 2278 3584 
Q 2916 3584 3314 3078 
Q 3713 2572 3713 1747 
Q 3713 922 3314 415 
Q 2916 -91 2278 -91 
Q 1894 -91 1617 61 
Q 1341 213 1159 525 
L 1159 0 
L 581 0 
L 581 4863 
L 1159 4863 
L 1159 2969 
z
" transform="scale(0.015625)"/>
       <path id="DejaVuSans-65" d="M 3597 1894 
L 3597 1613 
L 953 1613 
Q 991 1019 1311 708 
Q 1631 397 2203 397 
Q 2534 397 2845 478 
Q 3156 559 3463 722 
L 3463 178 
Q 3153 47 2828 -22 
Q 2503 -91 2169 -91 
Q 1331 -91 842 396 
Q 353 884 353 1716 
Q 353 2575 817 3079 
Q 1281 3584 2069 3584 
Q 2775 3584 3186 3129 
Q 3597 2675 3597 1894 
z
M 3022 2063 
Q 3016 2534 2758 2815 
Q 2500 3097 2075 3097 
Q 1594 3097 1305 2825 
Q 1016 2553 972 2059 
L 3022 2063 
z
" transform="scale(0.015625)"/>
       <path id="DejaVuSans-72" d="M 2631 2963 
Q 2534 3019 2420 3045 
Q 2306 3072 2169 3072 
Q 1681 3072 1420 2755 
Q 1159 2438 1159 1844 
L 1159 0 
L 581 0 
L 581 3500 
L 1159 3500 
L 1159 2956 
Q 1341 3275 1631 3429 
Q 1922 3584 2338 3584 
Q 2397 3584 2469 3576 
Q 2541 3569 2628 3553 
L 2631 2963 
z
" transform="scale(0.015625)"/>
       <path id="DejaVuSans-20" transform="scale(0.015625)"/>
       <path id="DejaVuSans-6f" d="M 1959 3097 
Q 1497 3097 1228 2736 
Q 959 2375 959 1747 
Q 959 1119 1226 758 
Q 1494 397 1959 397 
Q 2419 397 2687 759 
Q 2956 1122 2956 1747 
Q 2956 2369 2687 2733 
Q 2419 3097 1959 3097 
z
M 1959 3584 
Q 2709 3584 3137 3096 
Q 3566 2609 3566 1747 
Q 3566 888 3137 398 
Q 2709 -91 1959 -91 
Q 1206 -91 779 398 
Q 353 888 353 1747 
Q 353 2609 779 3096 
Q 1206 3584 1959 3584 
z
" transform="scale(0.015625)"/>
       <path id="DejaVuSans-66" d="M 2375 4863 
L 2375 4384 
L 1825 4384 
Q 1516 4384 1395 4259 
Q 1275 4134 1275 3809 
L 1275 3500 
L 2222 3500 
L 2222 3053 
L 1275 3053 
L 1275 0 
L 697 0 
L 697 3053 
L 147 3053 
L 147 3500 
L 697 3500 
L 697 3744 
Q 697 4328 969 4595 
Q 1241 4863 1831 4863 
L 2375 4863 
z
" transform="scale(0.015625)"/>
       <path id="DejaVuSans-73" d="M 2834 3397 
L 2834 2853 
Q 2591 2978 2328 3040 
Q 2066 3103 1784 3103 
Q 1356 3103 1142 2972 
Q 928 2841 928 2578 
Q 928 2378 1081 2264 
Q 1234 2150 1697 2047 
L 1894 2003 
Q 2506 1872 2764 1633 
Q 3022 1394 3022 966 
Q 3022 478 2636 193 
Q 2250 -91 1575 -91 
Q 1294 -91 989 -36 
Q 684 19 347 128 
L 347 722 
Q 666 556 975 473 
Q 1284 391 1588 391 
Q 1994 391 2212 530 
Q 2431 669 2431 922 
Q 2431 1156 2273 1281 
Q 2116 1406 1581 1522 
L 1381 1569 
Q 847 1681 609 1914 
Q 372 2147 372 2553 
Q 372 3047 722 3315 
Q 1072 3584 1716 3584 
Q 2034 3584 2315 3537 
Q 2597 3491 2834 3397 
z
" transform="scale(0.015625)"/>
       <path id="DejaVuSans-61" d="M 2194 1759 
Q 1497 1759 1228 1600 
Q 959 1441 959 1056 
Q 959 750 1161 570 
Q 1363 391 1709 391 
Q 2188 391 2477 730 
Q 2766 1069 2766 1631 
L 2766 1759 
L 2194 1759 
z
M 3341 1997 
L 3341 0 
L 2766 0 
L 2766 531 
Q 2569 213 2275 61 
Q 1981 -91 1556 -91 
Q 1019 -91 701 211 
Q 384 513 384 1019 
Q 384 1609 779 1909 
Q 1175 2209 1959 2209 
L 2766 2209 
L 2766 2266 
Q 2766 2663 2505 2880 
Q 2244 3097 1772 3097 
Q 1472 3097 1187 3025 
Q 903 2953 641 2809 
L 641 3341 
Q 956 3463 1253 3523 
Q 1550 3584 1831 3584 
Q 2591 3584 2966 3190 
Q 3341 2797 3341 1997 
z
" transform="scale(0.015625)"/>
       <path id="DejaVuSans-70" d="M 1159 525 
L 1159 -1331 
L 581 -1331 
L 581 3500 
L 1159 3500 
L 1159 2969 
Q 1341 3281 1617 3432 
Q 1894 3584 2278 3584 
Q 2916 3584 3314 3078 
Q 3713 2572 3713 1747 
Q 3713 922 3314 415 
Q 2916 -91 2278 -91 
Q 1894 -91 1617 61 
Q 1341 213 1159 525 
z
M 3116 1747 
Q 3116 2381 2855 2742 
Q 2594 3103 2138 3103 
Q 1681 3103 1420 2742 
Q 1159 2381 1159 1747 
Q 1159 1113 1420 752 
Q 1681 391 2138 391 
Q 2594 391 2855 752 
Q 3116 1113 3116 1747 
z
" transform="scale(0.015625)"/>
       <path id="DejaVuSans-6c" d="M 603 4863 
L 1178 4863 
L 1178 0 
L 603 0 
L 603 4863 
z
" transform="scale(0.015625)"/>
       <path id="DejaVuSans-2c" d="M 750 794 
L 1409 794 
L 1409 256 
L 897 -744 
L 494 -744 
L 750 256 
L 750 794 
z
" transform="scale(0.015625)"/>
       <path id="DejaVuSans-Oblique-4e" d="M 1081 4666 
L 1931 4666 
L 3219 666 
L 4000 4666 
L 4616 4666 
L 3706 0 
L 2853 0 
L 1569 4025 
L 788 0 
L 172 0 
L 1081 4666 
z
" transform="scale(0.015625)"/>
       <path id="DejaVuSans-Oblique-6e" d="M 3566 2113 
L 3156 0 
L 2578 0 
L 2988 2091 
Q 3016 2238 3031 2350 
Q 3047 2463 3047 2528 
Q 3047 2791 2881 2937 
Q 2716 3084 2419 3084 
Q 1956 3084 1622 2776 
Q 1288 2469 1184 1941 
L 800 0 
L 225 0 
L 903 3500 
L 1478 3500 
L 1363 2950 
Q 1603 3253 1940 3418 
Q 2278 3584 2650 3584 
Q 3113 3584 3367 3334 
Q 3622 3084 3622 2631 
Q 3622 2519 3608 2391 
Q 3594 2263 3566 2113 
z
" transform="scale(0.015625)"/>
       <path id="DejaVuSans-Oblique-63" d="M 3431 3366 
L 3316 2797 
Q 3109 2947 2876 3022 
Q 2644 3097 2394 3097 
Q 2119 3097 1870 3000 
Q 1622 2903 1453 2725 
Q 1184 2453 1037 2087 
Q 891 1722 891 1331 
Q 891 859 1127 628 
Q 1363 397 1844 397 
Q 2081 397 2348 469 
Q 2616 541 2906 684 
L 2797 116 
Q 2547 13 2283 -39 
Q 2019 -91 1741 -91 
Q 1044 -91 669 257 
Q 294 606 294 1253 
Q 294 1797 489 2255 
Q 684 2713 1069 3078 
Q 1331 3328 1684 3456 
Q 2038 3584 2456 3584 
Q 2700 3584 2940 3529 
Q 3181 3475 3431 3366 
z
" transform="scale(0.015625)"/>
      </defs>
      <use xlink:href="#DejaVuSans-4e" transform="translate(0 0.015625)"/>
      <use xlink:href="#DejaVuSans-75" transform="translate(74.804688 0.015625)"/>
      <use xlink:href="#DejaVuSans-6d" transform="translate(138.183594 0.015625)"/>
      <use xlink:href="#DejaVuSans-62" transform="translate(235.595703 0.015625)"/>
      <use xlink:href="#DejaVuSans-65" transform="translate(299.072266 0.015625)"/>
      <use xlink:href="#DejaVuSans-72" transform="translate(360.595703 0.015625)"/>
      <use xlink:href="#DejaVuSans-20" transform="translate(401.708984 0.015625)"/>
      <use xlink:href="#DejaVuSans-6f" transform="translate(433.496094 0.015625)"/>
      <use xlink:href="#DejaVuSans-66" transform="translate(494.677734 0.015625)"/>
      <use xlink:href="#DejaVuSans-20" transform="translate(529.882812 0.015625)"/>
      <use xlink:href="#DejaVuSans-73" transform="translate(561.669922 0.015625)"/>
      <use xlink:href="#DejaVuSans-61" transform="translate(613.769531 0.015625)"/>
      <use xlink:href="#DejaVuSans-6d" transform="translate(675.048828 0.015625)"/>
      <use xlink:href="#DejaVuSans-70" transform="translate(772.460938 0.015625)"/>
      <use xlink:href="#DejaVuSans-6c" transform="translate(835.9375 0.015625)"/>
      <use xlink:href="#DejaVuSans-65" transform="translate(863.720703 0.015625)"/>
      <use xlink:href="#DejaVuSans-73" transform="translate(925.244141 0.015625)"/>
      <use xlink:href="#DejaVuSans-2c" transform="translate(977.34375 0.015625)"/>
      <use xlink:href="#DejaVuSans-20" transform="translate(1009.130859 0.015625)"/>
      <use xlink:href="#DejaVuSans-Oblique-4e" transform="translate(1040.917969 0.015625)"/>
      <use xlink:href="#DejaVuSans-Oblique-6e" transform="translate(1115.722656 -16.390625) scale(0.7)"/>
      <use xlink:href="#DejaVuSans-Oblique-63" transform="translate(1160.087891 -16.390625) scale(0.7)"/>
     </g>
    </g>
   </g>
   <g id="matplotlib.axis_2">
    <g id="ytick_1">
     <g id="line2d_61">
      <path d="M 40.625 240.053523 
L 568.8 240.053523 
" clip-path="url(#p31176659f9)" style="fill: none; stroke-dasharray: 2.96,1.28; stroke-dashoffset: 0; stroke: #b0b0b0; stroke-opacity: 0.8; stroke-width: 0.8"/>
     </g>
     <g id="line2d_62">
      <defs>
       <path id="m71f1b82e93" d="M 0 0 
L -3.5 0 
" style="stroke: #000000; stroke-width: 0.8"/>
      </defs>
      <g>
       <use xlink:href="#m71f1b82e93" x="40.625" y="240.053523" style="stroke: #000000; stroke-width: 0.8"/>
      </g>
     </g>
     <g id="text_6">
      <!-- 0 -->
      <g transform="translate(27.2625 243.852741) scale(0.1 -0.1)">
       <use xlink:href="#DejaVuSans-30"/>
      </g>
     </g>
    </g>
    <g id="ytick_2">
     <g id="line2d_63">
      <path d="M 40.625 205.492348 
L 568.8 205.492348 
" clip-path="url(#p31176659f9)" style="fill: none; stroke-dasharray: 2.96,1.28; stroke-dashoffset: 0; stroke: #b0b0b0; stroke-opacity: 0.8; stroke-width: 0.8"/>
     </g>
     <g id="line2d_64">
      <g>
       <use xlink:href="#m71f1b82e93" x="40.625" y="205.492348" style="stroke: #000000; stroke-width: 0.8"/>
      </g>
     </g>
     <g id="text_7">
      <!-- 5 -->
      <g transform="translate(27.2625 209.291567) scale(0.1 -0.1)">
       <defs>
        <path id="DejaVuSans-35" d="M 691 4666 
L 3169 4666 
L 3169 4134 
L 1269 4134 
L 1269 2991 
Q 1406 3038 1543 3061 
Q 1681 3084 1819 3084 
Q 2600 3084 3056 2656 
Q 3513 2228 3513 1497 
Q 3513 744 3044 326 
Q 2575 -91 1722 -91 
Q 1428 -91 1123 -41 
Q 819 9 494 109 
L 494 744 
Q 775 591 1075 516 
Q 1375 441 1709 441 
Q 2250 441 2565 725 
Q 2881 1009 2881 1497 
Q 2881 1984 2565 2268 
Q 2250 2553 1709 2553 
Q 1456 2553 1204 2497 
Q 953 2441 691 2322 
L 691 4666 
z
" transform="scale(0.015625)"/>
       </defs>
       <use xlink:href="#DejaVuSans-35"/>
      </g>
     </g>
    </g>
    <g id="ytick_3">
     <g id="line2d_65">
      <path d="M 40.625 170.931174 
L 568.8 170.931174 
" clip-path="url(#p31176659f9)" style="fill: none; stroke-dasharray: 2.96,1.28; stroke-dashoffset: 0; stroke: #b0b0b0; stroke-opacity: 0.8; stroke-width: 0.8"/>
     </g>
     <g id="line2d_66">
      <g>
       <use xlink:href="#m71f1b82e93" x="40.625" y="170.931174" style="stroke: #000000; stroke-width: 0.8"/>
      </g>
     </g>
     <g id="text_8">
      <!-- 10 -->
      <g transform="translate(20.9 174.730393) scale(0.1 -0.1)">
       <use xlink:href="#DejaVuSans-31"/>
       <use xlink:href="#DejaVuSans-30" transform="translate(63.623047 0)"/>
      </g>
     </g>
    </g>
    <g id="ytick_4">
     <g id="line2d_67">
      <path d="M 40.625 136.37 
L 568.8 136.37 
" clip-path="url(#p31176659f9)" style="fill: none; stroke-dasharray: 2.96,1.28; stroke-dashoffset: 0; stroke: #b0b0b0; stroke-opacity: 0.8; stroke-width: 0.8"/>
     </g>
     <g id="line2d_68">
      <g>
       <use xlink:href="#m71f1b82e93" x="40.625" y="136.37" style="stroke: #000000; stroke-width: 0.8"/>
      </g>
     </g>
     <g id="text_9">
      <!-- 15 -->
      <g transform="translate(20.9 140.169219) scale(0.1 -0.1)">
       <use xlink:href="#DejaVuSans-31"/>
       <use xlink:href="#DejaVuSans-35" transform="translate(63.623047 0)"/>
      </g>
     </g>
    </g>
    <g id="ytick_5">
     <g id="line2d_69">
      <path d="M 40.625 101.808826 
L 568.8 101.808826 
" clip-path="url(#p31176659f9)" style="fill: none; stroke-dasharray: 2.96,1.28; stroke-dashoffset: 0; stroke: #b0b0b0; stroke-opacity: 0.8; stroke-width: 0.8"/>
     </g>
     <g id="line2d_70">
      <g>
       <use xlink:href="#m71f1b82e93" x="40.625" y="101.808826" style="stroke: #000000; stroke-width: 0.8"/>
      </g>
     </g>
     <g id="text_10">
      <!-- 20 -->
      <g transform="translate(20.9 105.608045) scale(0.1 -0.1)">
       <use xlink:href="#DejaVuSans-32"/>
       <use xlink:href="#DejaVuSans-30" transform="translate(63.623047 0)"/>
      </g>
     </g>
    </g>
    <g id="ytick_6">
     <g id="line2d_71">
      <path d="M 40.625 67.247652 
L 568.8 67.247652 
" clip-path="url(#p31176659f9)" style="fill: none; stroke-dasharray: 2.96,1.28; stroke-dashoffset: 0; stroke: #b0b0b0; stroke-opacity: 0.8; stroke-width: 0.8"/>
     </g>
     <g id="line2d_72">
      <g>
       <use xlink:href="#m71f1b82e93" x="40.625" y="67.247652" style="stroke: #000000; stroke-width: 0.8"/>
      </g>
     </g>
     <g id="text_11">
      <!-- 25 -->
      <g transform="translate(20.9 71.04687) scale(0.1 -0.1)">
       <use xlink:href="#DejaVuSans-32"/>
       <use xlink:href="#DejaVuSans-35" transform="translate(63.623047 0)"/>
      </g>
     </g>
    </g>
    <g id="ytick_7">
     <g id="line2d_73">
      <path d="M 40.625 32.686477 
L 568.8 32.686477 
" clip-path="url(#p31176659f9)" style="fill: none; stroke-dasharray: 2.96,1.28; stroke-dashoffset: 0; stroke: #b0b0b0; stroke-opacity: 0.8; stroke-width: 0.8"/>
     </g>
     <g id="line2d_74">
      <g>
       <use xlink:href="#m71f1b82e93" x="40.625" y="32.686477" style="stroke: #000000; stroke-width: 0.8"/>
      </g>
     </g>
     <g id="text_12">
      <!-- 30 -->
      <g transform="translate(20.9 36.485696) scale(0.1 -0.1)">
       <use xlink:href="#DejaVuSans-33"/>
       <use xlink:href="#DejaVuSans-30" transform="translate(63.623047 0)"/>
      </g>
     </g>
    </g>
    <g id="text_13">
     <!-- Non-coherent gain, $G_{nc}$ -->
     <g transform="translate(14.8 194.22) rotate(-90) scale(0.1 -0.1)">
      <defs>
       <path id="DejaVuSans-6e" d="M 3513 2113 
L 3513 0 
L 2938 0 
L 2938 2094 
Q 2938 2591 2744 2837 
Q 2550 3084 2163 3084 
Q 1697 3084 1428 2787 
Q 1159 2491 1159 1978 
L 1159 0 
L 581 0 
L 581 3500 
L 1159 3500 
L 1159 2956 
Q 1366 3272 1645 3428 
Q 1925 3584 2291 3584 
Q 2894 3584 3203 3211 
Q 3513 2838 3513 2113 
z
" transform="scale(0.015625)"/>
       <path id="DejaVuSans-2d" d="M 313 2009 
L 1997 2009 
L 1997 1497 
L 313 1497 
L 313 2009 
z
" transform="scale(0.015625)"/>
       <path id="DejaVuSans-63" d="M 3122 3366 
L 3122 2828 
Q 2878 2963 2633 3030 
Q 2388 3097 2138 3097 
Q 1578 3097 1268 2742 
Q 959 2388 959 1747 
Q 959 1106 1268 751 
Q 1578 397 2138 397 
Q 2388 397 2633 464 
Q 2878 531 3122 666 
L 3122 134 
Q 2881 22 2623 -34 
Q 2366 -91 2075 -91 
Q 1284 -91 818 406 
Q 353 903 353 1747 
Q 353 2603 823 3093 
Q 1294 3584 2113 3584 
Q 2378 3584 2631 3529 
Q 2884 3475 3122 3366 
z
" transform="scale(0.015625)"/>
       <path id="DejaVuSans-68" d="M 3513 2113 
L 3513 0 
L 2938 0 
L 2938 2094 
Q 2938 2591 2744 2837 
Q 2550 3084 2163 3084 
Q 1697 3084 1428 2787 
Q 1159 2491 1159 1978 
L 1159 0 
L 581 0 
L 581 4863 
L 1159 4863 
L 1159 2956 
Q 1366 3272 1645 3428 
Q 1925 3584 2291 3584 
Q 2894 3584 3203 3211 
Q 3513 2838 3513 2113 
z
" transform="scale(0.015625)"/>
       <path id="DejaVuSans-74" d="M 1172 4494 
L 1172 3500 
L 2356 3500 
L 2356 3053 
L 1172 3053 
L 1172 1153 
Q 1172 725 1289 603 
Q 1406 481 1766 481 
L 2356 481 
L 2356 0 
L 1766 0 
Q 1100 0 847 248 
Q 594 497 594 1153 
L 594 3053 
L 172 3053 
L 172 3500 
L 594 3500 
L 594 4494 
L 1172 4494 
z
" transform="scale(0.015625)"/>
       <path id="DejaVuSans-67" d="M 2906 1791 
Q 2906 2416 2648 2759 
Q 2391 3103 1925 3103 
Q 1463 3103 1205 2759 
Q 947 2416 947 1791 
Q 947 1169 1205 825 
Q 1463 481 1925 481 
Q 2391 481 2648 825 
Q 2906 1169 2906 1791 
z
M 3481 434 
Q 3481 -459 3084 -895 
Q 2688 -1331 1869 -1331 
Q 1566 -1331 1297 -1286 
Q 1028 -1241 775 -1147 
L 775 -588 
Q 1028 -725 1275 -790 
Q 1522 -856 1778 -856 
Q 2344 -856 2625 -561 
Q 2906 -266 2906 331 
L 2906 616 
Q 2728 306 2450 153 
Q 2172 0 1784 0 
Q 1141 0 747 490 
Q 353 981 353 1791 
Q 353 2603 747 3093 
Q 1141 3584 1784 3584 
Q 2172 3584 2450 3431 
Q 2728 3278 2906 2969 
L 2906 3500 
L 3481 3500 
L 3481 434 
z
" transform="scale(0.015625)"/>
       <path id="DejaVuSans-69" d="M 603 3500 
L 1178 3500 
L 1178 0 
L 603 0 
L 603 3500 
z
M 603 4863 
L 1178 4863 
L 1178 4134 
L 603 4134 
L 603 4863 
z
" transform="scale(0.015625)"/>
       <path id="DejaVuSans-Oblique-47" d="M 3494 697 
L 3738 1919 
L 2700 1919 
L 2797 2438 
L 4453 2438 
L 4050 384 
Q 3634 156 3143 32 
Q 2653 -91 2156 -91 
Q 1278 -91 783 396 
Q 288 884 288 1753 
Q 288 2475 589 3126 
Q 891 3778 1422 4213 
Q 1756 4484 2153 4617 
Q 2550 4750 3034 4750 
Q 3472 4750 3873 4639 
Q 4275 4528 4641 4306 
L 4513 3634 
Q 4231 3928 3853 4083 
Q 3475 4238 3047 4238 
Q 2550 4238 2172 4048 
Q 1794 3859 1497 3463 
Q 1244 3125 1098 2667 
Q 953 2209 953 1734 
Q 953 1081 1287 751 
Q 1622 422 2284 422 
Q 2616 422 2925 492 
Q 3234 563 3494 697 
z
" transform="scale(0.015625)"/>
      </defs>
      <use xlink:href="#DejaVuSans-4e" transform="translate(0 0.015625)"/>
      <use xlink:href="#DejaVuSans-6f" transform="translate(74.804688 0.015625)"/>
      <use xlink:href="#DejaVuSans-6e" transform="translate(135.986328 0.015625)"/>
      <use xlink:href="#DejaVuSans-2d" transform="translate(199.365234 0.015625)"/>
      <use xlink:href="#DejaVuSans-63" transform="translate(235.449219 0.015625)"/>
      <use xlink:href="#DejaVuSans-6f" transform="translate(290.429688 0.015625)"/>
      <use xlink:href="#DejaVuSans-68" transform="translate(351.611328 0.015625)"/>
      <use xlink:href="#DejaVuSans-65" transform="translate(414.990234 0.015625)"/>
      <use xlink:href="#DejaVuSans-72" transform="translate(476.513672 0.015625)"/>
      <use xlink:href="#DejaVuSans-65" transform="translate(517.626953 0.015625)"/>
      <use xlink:href="#DejaVuSans-6e" transform="translate(579.150391 0.015625)"/>
      <use xlink:href="#DejaVuSans-74" transform="translate(642.529297 0.015625)"/>
      <use xlink:href="#DejaVuSans-20" transform="translate(681.738281 0.015625)"/>
      <use xlink:href="#DejaVuSans-67" transform="translate(713.525391 0.015625)"/>
      <use xlink:href="#DejaVuSans-61" transform="translate(777.001953 0.015625)"/>
      <use xlink:href="#DejaVuSans-69" transform="translate(838.28125 0.015625)"/>
      <use xlink:href="#DejaVuSans-6e" transform="translate(866.064453 0.015625)"/>
      <use xlink:href="#DejaVuSans-2c" transform="translate(929.443359 0.015625)"/>
      <use xlink:href="#DejaVuSans-20" transform="translate(961.230469 0.015625)"/>
      <use xlink:href="#DejaVuSans-Oblique-47" transform="translate(993.017578 0.015625)"/>
      <use xlink:href="#DejaVuSans-Oblique-6e" transform="translate(1070.507812 -16.390625) scale(0.7)"/>
      <use xlink:href="#DejaVuSans-Oblique-63" transform="translate(1114.873047 -16.390625) scale(0.7)"/>
     </g>
    </g>
   </g>
   <g id="line2d_75">
    <path d="M 64.632955 240.053523 
L 64.632955 240.053523 
L 64.632955 240.053523 
L 64.632955 240.053523 
L 64.632955 240.053523 
L 64.632955 240.053523 
L 112.813718 219.245622 
L 112.813718 219.245622 
L 140.997657 207.073781 
L 140.997657 207.073781 
L 140.997657 207.073781 
L 160.994481 198.437722 
L 176.505222 191.739075 
L 189.17842 186.265881 
L 189.17842 186.265881 
L 199.893457 181.638362 
L 217.36236 174.094039 
L 224.685985 170.931174 
L 237.359183 165.457981 
L 242.922964 163.055142 
L 252.869924 158.759333 
L 265.543123 153.286139 
L 272.866748 150.123274 
L 282.581621 145.927697 
L 293.727062 141.114298 
L 303.329913 136.9671 
L 313.723886 132.478239 
L 322.763898 128.574115 
L 332.257284 124.474192 
L 341.907825 120.306398 
L 352.622862 115.678878 
L 361.904649 111.670339 
L 371.787219 107.402338 
L 381.173611 103.348622 
L 390.72924 99.221818 
L 400.249756 95.110178 
L 410.085412 90.862438 
L 419.547979 86.775825 
L 429.354374 82.540722 
L 438.910003 78.413918 
L 448.708005 74.18244 
L 458.266175 70.054538 
L 467.939061 65.877094 
L 477.535137 61.732822 
L 487.090766 57.606018 
L 496.750164 53.434399 
L 506.326156 49.2988 
L 515.909506 45.160024 
L 525.532737 41.004024 
L 535.111919 36.867049 
L 544.792045 32.686477 
" clip-path="url(#p31176659f9)" style="fill: none; stroke: #000000; stroke-linecap: square"/>
   </g>
   <g id="line2d_76">
    <path d="M 64.632955 240.053523 
L 64.632955 240.053523 
L 64.632955 240.053523 
L 64.632955 240.053523 
L 64.632955 240.053523 
L 64.632955 240.053523 
L 112.813718 236.093346 
L 112.813718 236.093346 
L 140.997657 233.358342 
L 140.997657 233.358342 
L 140.997657 233.358342 
L 160.994481 231.21666 
L 176.505222 229.438311 
L 189.17842 227.909296 
L 189.17842 227.909296 
L 199.893457 226.563606 
L 217.36236 224.26728 
L 224.685985 223.267482 
L 237.359183 221.486844 
L 242.922964 220.685265 
L 252.869924 219.222733 
L 265.543123 217.306031 
L 272.866748 216.171976 
L 282.581621 214.638721 
L 293.727062 212.840378 
L 303.329913 211.258485 
L 313.723886 209.513744 
L 322.763898 207.969835 
L 332.257284 206.323049 
L 341.907825 204.623327 
L 352.622862 202.707075 
L 361.904649 201.023493 
L 371.787219 199.207856 
L 381.173611 197.462256 
L 390.72924 195.66494 
L 400.249756 193.854761 
L 410.085412 191.965111 
L 419.547979 190.129155 
L 429.354374 188.208636 
L 438.910003 186.320432 
L 448.708005 184.367779 
L 458.266175 182.447357 
L 467.939061 180.488778 
L 477.535137 178.531218 
L 487.090766 176.567955 
L 496.750164 174.569604 
L 506.326156 172.575179 
L 515.909506 170.566217 
L 525.532737 168.536037 
L 535.111919 166.50254 
L 544.792045 164.43497 
" clip-path="url(#p31176659f9)" style="fill: none; stroke: #1f77b4; stroke-linecap: square"/>
   </g>
   <g id="line2d_77">
    <path d="M 64.632955 240.053523 
L 64.632955 240.053523 
L 64.632955 240.053523 
L 64.632955 240.053523 
L 64.632955 240.053523 
L 64.632955 240.053523 
L 112.813718 235.782066 
L 112.813718 235.782066 
L 140.997657 232.841072 
L 140.997657 232.841072 
L 140.997657 232.841072 
L 160.994481 230.544293 
L 176.505222 228.640237 
L 189.17842 227.004527 
L 189.17842 227.004527 
L 199.893457 225.565424 
L 217.36236 223.109435 
L 224.685985 222.039581 
L 237.359183 220.132699 
L 242.922964 219.27349 
L 252.869924 217.704221 
L 265.543123 215.643947 
L 272.866748 214.422655 
L 282.581621 212.768391 
L 293.727062 210.823137 
L 303.329913 209.107112 
L 313.723886 207.208606 
L 322.763898 205.523132 
L 332.257284 203.719242 
L 341.907825 201.850318 
L 352.622862 199.734156 
L 361.904649 197.866436 
L 371.787219 195.842779 
L 381.173611 193.887451 
L 390.72924 191.863703 
L 400.249756 189.814185 
L 410.085412 187.662024 
L 419.547979 185.55806 
L 429.354374 183.34292 
L 438.910003 181.150238 
L 448.708005 178.866649 
L 458.266175 176.60423 
L 467.939061 174.279391 
L 477.535137 171.937573 
L 487.090766 169.570135 
L 496.750164 167.140548 
L 506.326156 164.695318 
L 515.909506 162.211241 
L 525.532737 159.679153 
L 535.111919 157.12072 
L 544.792045 154.496454 
" clip-path="url(#p31176659f9)" style="fill: none; stroke: #ff7f0e; stroke-linecap: square"/>
   </g>
   <g id="line2d_78">
    <path d="M 64.632955 240.053523 
L 64.632955 240.053523 
L 64.632955 240.053523 
L 64.632955 240.053523 
L 64.632955 240.053523 
L 64.632955 240.053523 
L 112.813718 233.463536 
L 112.813718 233.463536 
L 140.997657 229.017231 
L 140.997657 229.017231 
L 140.997657 229.017231 
L 160.994481 225.598947 
L 176.505222 222.795082 
L 189.17842 220.403847 
L 189.17842 220.403847 
L 199.893457 218.310743 
L 217.36236 214.756106 
L 224.685985 213.21279 
L 237.359183 210.467237 
L 242.922964 209.231699 
L 252.869924 206.976628 
L 265.543123 204.017358 
L 272.866748 202.263125 
L 282.581621 199.886212 
L 293.727062 197.089282 
L 303.329913 194.619675 
L 313.723886 191.884598 
L 322.763898 189.45377 
L 332.257284 186.849398 
L 341.907825 184.148282 
L 352.622862 181.086716 
L 361.904649 178.382303 
L 371.787219 175.450316 
L 381.173611 172.616272 
L 390.72924 169.682797 
L 400.249756 166.712616 
L 410.085412 163.595472 
L 419.547979 160.551026 
L 429.354374 157.350043 
L 438.910003 154.187158 
L 448.708005 150.900473 
L 458.266175 147.652973 
L 467.939061 144.326279 
L 477.535137 140.987289 
L 487.090766 137.625312 
L 496.750164 134.190512 
L 506.326156 130.750589 
L 515.909506 127.274596 
L 525.532737 123.751729 
L 535.111919 120.213956 
L 544.792045 116.608673 
" clip-path="url(#p31176659f9)" style="fill: none; stroke: #2ca02c; stroke-linecap: square"/>
   </g>
   <g id="line2d_79">
    <path d="M 64.632955 240.053523 
L 64.632955 240.053523 
L 64.632955 240.053523 
L 64.632955 240.053523 
L 64.632955 240.053523 
L 64.632955 240.053523 
L 112.813718 227.455285 
L 112.813718 227.455285 
L 140.997657 219.484715 
L 140.997657 219.484715 
L 140.997657 219.484715 
L 160.994481 213.590578 
L 176.505222 208.889477 
L 189.17842 204.967286 
L 189.17842 204.967286 
L 199.893457 201.595499 
L 217.36236 195.991532 
L 224.685985 193.603446 
L 237.359183 189.418034 
L 242.922964 187.559658 
L 252.869924 184.205978 
L 265.543123 179.876037 
L 272.866748 177.345241 
L 282.581621 173.956458 
L 293.727062 170.025145 
L 303.329913 166.601575 
L 313.723886 162.859034 
L 322.763898 159.573643 
L 332.257284 156.093934 
L 341.907825 152.526503 
L 352.622862 148.53116 
L 361.904649 145.041968 
L 371.787219 141.299128 
L 381.173611 137.718611 
L 390.72924 134.048892 
L 400.249756 130.368886 
L 410.085412 126.543163 
L 419.547979 122.840588 
L 429.354374 118.981735 
L 438.910003 115.201211 
L 448.708005 111.304755 
L 458.266175 107.336172 
L 467.939061 103.286288 
L 477.535137 99.25372 
L 487.090766 95.238149 
L 496.750164 91.17897 
L 506.326156 87.154842 
L 515.909506 83.127622 
L 525.532737 79.083642 
L 535.111919 75.058173 
L 544.792045 70.990284 
" clip-path="url(#p31176659f9)" style="fill: none; stroke: #d62728; stroke-linecap: square"/>
   </g>
   <g id="line2d_80">
    <path d="M 64.632955 240.053523 
L 64.632955 240.053523 
L 64.632955 240.053523 
L 64.632955 240.053523 
L 64.632955 240.053523 
L 64.632955 240.053523 
L 112.813718 222.776771 
L 112.813718 222.776771 
L 140.997657 212.326864 
L 140.997657 212.326864 
L 140.997657 212.326864 
L 160.994481 204.783796 
L 176.505222 198.866212 
L 189.17842 193.990697 
L 189.17842 193.990697 
L 199.893457 189.841478 
L 217.36236 183.026418 
L 224.685985 180.151454 
L 237.359183 175.17646 
L 242.922964 172.992341 
L 252.869924 169.087559 
L 265.543123 164.112565 
L 272.866748 161.237601 
L 282.581621 157.423928 
L 293.727062 153.048671 
L 303.329913 149.278974 
L 313.723886 145.198713 
L 322.763898 141.649963 
L 332.257284 137.923237 
L 341.907825 134.134818 
L 352.622862 129.928521 
L 361.904649 126.28486 
L 371.787219 122.405356 
L 381.173611 118.720632 
L 390.72924 114.969472 
L 400.249756 111.232095 
L 410.085412 107.371008 
L 419.547979 103.65638 
L 429.354374 99.806779 
L 438.910003 96.055619 
L 448.708005 92.209312 
L 458.266175 88.457155 
L 467.939061 84.659964 
L 477.535137 80.892926 
L 487.090766 77.141766 
L 496.750164 73.349871 
L 506.326156 69.590717 
L 515.909506 65.828674 
L 525.532737 62.050976 
L 535.111919 58.29057 
L 544.792045 54.490537 
" clip-path="url(#p31176659f9)" style="fill: none; stroke: #9467bd; stroke-linecap: square"/>
   </g>
   <g id="line2d_81">
    <path d="M 64.632955 240.053523 
L 64.632955 240.053523 
L 64.632955 240.053523 
L 64.632955 240.053523 
L 64.632955 240.053523 
L 64.632955 240.053523 
" clip-path="url(#p31176659f9)" style="fill: none; stroke: #8c564b; stroke-linecap: square"/>
   </g>
   <g id="line2d_82">
    <path d="M 64.632955 240.053523 
L 64.632955 240.053523 
L 64.632955 240.053523 
L 64.632955 240.053523 
L 64.632955 240.053523 
L 64.632955 240.053523 
" clip-path="url(#p31176659f9)" style="fill: none; stroke: #e377c2; stroke-linecap: square"/>
   </g>
   <g id="patch_3">
    <path d="M 40.625 250.421875 
L 40.625 22.318125 
" style="fill: none; stroke: #000000; stroke-width: 0.8; stroke-linejoin: miter; stroke-linecap: square"/>
   </g>
   <g id="patch_4">
    <path d="M 568.8 250.421875 
L 568.8 22.318125 
" style="fill: none; stroke: #000000; stroke-width: 0.8; stroke-linejoin: miter; stroke-linecap: square"/>
   </g>
   <g id="patch_5">
    <path d="M 40.625 250.421875 
L 568.8 250.421875 
" style="fill: none; stroke: #000000; stroke-width: 0.8; stroke-linejoin: miter; stroke-linecap: square"/>
   </g>
   <g id="patch_6">
    <path d="M 40.625 22.318125 
L 568.8 22.318125 
" style="fill: none; stroke: #000000; stroke-width: 0.8; stroke-linejoin: miter; stroke-linecap: square"/>
   </g>
   <g id="text_14">
    <!-- Non-coherent gain for various input SNRs -->
    <g transform="translate(180.21625 16.318125) scale(0.12 -0.12)">
     <defs>
      <path id="DejaVuSans-76" d="M 191 3500 
L 800 3500 
L 1894 563 
L 2988 3500 
L 3597 3500 
L 2284 0 
L 1503 0 
L 191 3500 
z
" transform="scale(0.015625)"/>
      <path id="DejaVuSans-53" d="M 3425 4513 
L 3425 3897 
Q 3066 4069 2747 4153 
Q 2428 4238 2131 4238 
Q 1616 4238 1336 4038 
Q 1056 3838 1056 3469 
Q 1056 3159 1242 3001 
Q 1428 2844 1947 2747 
L 2328 2669 
Q 3034 2534 3370 2195 
Q 3706 1856 3706 1288 
Q 3706 609 3251 259 
Q 2797 -91 1919 -91 
Q 1588 -91 1214 -16 
Q 841 59 441 206 
L 441 856 
Q 825 641 1194 531 
Q 1563 422 1919 422 
Q 2459 422 2753 634 
Q 3047 847 3047 1241 
Q 3047 1584 2836 1778 
Q 2625 1972 2144 2069 
L 1759 2144 
Q 1053 2284 737 2584 
Q 422 2884 422 3419 
Q 422 4038 858 4394 
Q 1294 4750 2059 4750 
Q 2388 4750 2728 4690 
Q 3069 4631 3425 4513 
z
" transform="scale(0.015625)"/>
      <path id="DejaVuSans-52" d="M 2841 2188 
Q 3044 2119 3236 1894 
Q 3428 1669 3622 1275 
L 4263 0 
L 3584 0 
L 2988 1197 
Q 2756 1666 2539 1819 
Q 2322 1972 1947 1972 
L 1259 1972 
L 1259 0 
L 628 0 
L 628 4666 
L 2053 4666 
Q 2853 4666 3247 4331 
Q 3641 3997 3641 3322 
Q 3641 2881 3436 2590 
Q 3231 2300 2841 2188 
z
M 1259 4147 
L 1259 2491 
L 2053 2491 
Q 2509 2491 2742 2702 
Q 2975 2913 2975 3322 
Q 2975 3731 2742 3939 
Q 2509 4147 2053 4147 
L 1259 4147 
z
" transform="scale(0.015625)"/>
     </defs>
     <use xlink:href="#DejaVuSans-4e"/>
     <use xlink:href="#DejaVuSans-6f" transform="translate(74.804688 0)"/>
     <use xlink:href="#DejaVuSans-6e" transform="translate(135.986328 0)"/>
     <use xlink:href="#DejaVuSans-2d" transform="translate(199.365234 0)"/>
     <use xlink:href="#DejaVuSans-63" transform="translate(235.449219 0)"/>
     <use xlink:href="#DejaVuSans-6f" transform="translate(290.429688 0)"/>
     <use xlink:href="#DejaVuSans-68" transform="translate(351.611328 0)"/>
     <use xlink:href="#DejaVuSans-65" transform="translate(414.990234 0)"/>
     <use xlink:href="#DejaVuSans-72" transform="translate(476.513672 0)"/>
     <use xlink:href="#DejaVuSans-65" transform="translate(515.376953 0)"/>
     <use xlink:href="#DejaVuSans-6e" transform="translate(576.900391 0)"/>
     <use xlink:href="#DejaVuSans-74" transform="translate(640.279297 0)"/>
     <use xlink:href="#DejaVuSans-20" transform="translate(679.488281 0)"/>
     <use xlink:href="#DejaVuSans-67" transform="translate(711.275391 0)"/>
     <use xlink:href="#DejaVuSans-61" transform="translate(774.751953 0)"/>
     <use xlink:href="#DejaVuSans-69" transform="translate(836.03125 0)"/>
     <use xlink:href="#DejaVuSans-6e" transform="translate(863.814453 0)"/>
     <use xlink:href="#DejaVuSans-20" transform="translate(927.193359 0)"/>
     <use xlink:href="#DejaVuSans-66" transform="translate(958.980469 0)"/>
     <use xlink:href="#DejaVuSans-6f" transform="translate(994.185547 0)"/>
     <use xlink:href="#DejaVuSans-72" transform="translate(1055.367188 0)"/>
     <use xlink:href="#DejaVuSans-20" transform="translate(1096.480469 0)"/>
     <use xlink:href="#DejaVuSans-76" transform="translate(1128.267578 0)"/>
     <use xlink:href="#DejaVuSans-61" transform="translate(1187.447266 0)"/>
     <use xlink:href="#DejaVuSans-72" transform="translate(1248.726562 0)"/>
     <use xlink:href="#DejaVuSans-69" transform="translate(1289.839844 0)"/>
     <use xlink:href="#DejaVuSans-6f" transform="translate(1317.623047 0)"/>
     <use xlink:href="#DejaVuSans-75" transform="translate(1378.804688 0)"/>
     <use xlink:href="#DejaVuSans-73" transform="translate(1442.183594 0)"/>
     <use xlink:href="#DejaVuSans-20" transform="translate(1494.283203 0)"/>
     <use xlink:href="#DejaVuSans-69" transform="translate(1526.070312 0)"/>
     <use xlink:href="#DejaVuSans-6e" transform="translate(1553.853516 0)"/>
     <use xlink:href="#DejaVuSans-70" transform="translate(1617.232422 0)"/>
     <use xlink:href="#DejaVuSans-75" transform="translate(1680.708984 0)"/>
     <use xlink:href="#DejaVuSans-74" transform="translate(1744.087891 0)"/>
     <use xlink:href="#DejaVuSans-20" transform="translate(1783.296875 0)"/>
     <use xlink:href="#DejaVuSans-53" transform="translate(1815.083984 0)"/>
     <use xlink:href="#DejaVuSans-4e" transform="translate(1878.560547 0)"/>
     <use xlink:href="#DejaVuSans-52" transform="translate(1953.365234 0)"/>
     <use xlink:href="#DejaVuSans-73" transform="translate(2022.847656 0)"/>
    </g>
   </g>
   <g id="legend_1">
    <g id="patch_7">
     <path d="M 47.625 147.743125 
L 112.345313 147.743125 
Q 114.345313 147.743125 114.345313 145.743125 
L 114.345313 29.318125 
Q 114.345313 27.318125 112.345313 27.318125 
L 47.625 27.318125 
Q 45.625 27.318125 45.625 29.318125 
L 45.625 145.743125 
Q 45.625 147.743125 47.625 147.743125 
z
" style="fill: #ffffff; opacity: 0.8; stroke: #cccccc; stroke-linejoin: miter"/>
    </g>
    <g id="text_15">
     <!-- Input SNR -->
     <g transform="translate(55.060156 38.916562) scale(0.1 -0.1)">
      <defs>
       <path id="DejaVuSans-49" d="M 628 4666 
L 1259 4666 
L 1259 0 
L 628 0 
L 628 4666 
z
" transform="scale(0.015625)"/>
      </defs>
      <use xlink:href="#DejaVuSans-49"/>
      <use xlink:href="#DejaVuSans-6e" transform="translate(29.492188 0)"/>
      <use xlink:href="#DejaVuSans-70" transform="translate(92.871094 0)"/>
      <use xlink:href="#DejaVuSans-75" transform="translate(156.347656 0)"/>
      <use xlink:href="#DejaVuSans-74" transform="translate(219.726562 0)"/>
      <use xlink:href="#DejaVuSans-20" transform="translate(258.935547 0)"/>
      <use xlink:href="#DejaVuSans-53" transform="translate(290.722656 0)"/>
      <use xlink:href="#DejaVuSans-4e" transform="translate(354.199219 0)"/>
      <use xlink:href="#DejaVuSans-52" transform="translate(429.003906 0)"/>
     </g>
    </g>
    <g id="line2d_83">
     <path d="M 49.625 50.094688 
L 59.625 50.094688 
L 69.625 50.094688 
" style="fill: none; stroke: #1f77b4; stroke-linecap: square"/>
    </g>
    <g id="text_16">
     <!-- -30 dB -->
     <g transform="translate(77.625 53.594688) scale(0.1 -0.1)">
      <defs>
       <path id="DejaVuSans-64" d="M 2906 2969 
L 2906 4863 
L 3481 4863 
L 3481 0 
L 2906 0 
L 2906 525 
Q 2725 213 2448 61 
Q 2172 -91 1784 -91 
Q 1150 -91 751 415 
Q 353 922 353 1747 
Q 353 2572 751 3078 
Q 1150 3584 1784 3584 
Q 2172 3584 2448 3432 
Q 2725 3281 2906 2969 
z
M 947 1747 
Q 947 1113 1208 752 
Q 1469 391 1925 391 
Q 2381 391 2643 752 
Q 2906 1113 2906 1747 
Q 2906 2381 2643 2742 
Q 2381 3103 1925 3103 
Q 1469 3103 1208 2742 
Q 947 2381 947 1747 
z
" transform="scale(0.015625)"/>
       <path id="DejaVuSans-42" d="M 1259 2228 
L 1259 519 
L 2272 519 
Q 2781 519 3026 730 
Q 3272 941 3272 1375 
Q 3272 1813 3026 2020 
Q 2781 2228 2272 2228 
L 1259 2228 
z
M 1259 4147 
L 1259 2741 
L 2194 2741 
Q 2656 2741 2882 2914 
Q 3109 3088 3109 3444 
Q 3109 3797 2882 3972 
Q 2656 4147 2194 4147 
L 1259 4147 
z
M 628 4666 
L 2241 4666 
Q 2963 4666 3353 4366 
Q 3744 4066 3744 3513 
Q 3744 3084 3544 2831 
Q 3344 2578 2956 2516 
Q 3422 2416 3680 2098 
Q 3938 1781 3938 1306 
Q 3938 681 3513 340 
Q 3088 0 2303 0 
L 628 0 
L 628 4666 
z
" transform="scale(0.015625)"/>
      </defs>
      <use xlink:href="#DejaVuSans-2d"/>
      <use xlink:href="#DejaVuSans-33" transform="translate(36.083984 0)"/>
      <use xlink:href="#DejaVuSans-30" transform="translate(99.707031 0)"/>
      <use xlink:href="#DejaVuSans-20" transform="translate(163.330078 0)"/>
      <use xlink:href="#DejaVuSans-64" transform="translate(195.117188 0)"/>
      <use xlink:href="#DejaVuSans-42" transform="translate(258.59375 0)"/>
     </g>
    </g>
    <g id="line2d_84">
     <path d="M 49.625 64.772813 
L 59.625 64.772813 
L 69.625 64.772813 
" style="fill: none; stroke: #ff7f0e; stroke-linecap: square"/>
    </g>
    <g id="text_17">
     <!-- -20 dB -->
     <g transform="translate(77.625 68.272813) scale(0.1 -0.1)">
      <use xlink:href="#DejaVuSans-2d"/>
      <use xlink:href="#DejaVuSans-32" transform="translate(36.083984 0)"/>
      <use xlink:href="#DejaVuSans-30" transform="translate(99.707031 0)"/>
      <use xlink:href="#DejaVuSans-20" transform="translate(163.330078 0)"/>
      <use xlink:href="#DejaVuSans-64" transform="translate(195.117188 0)"/>
      <use xlink:href="#DejaVuSans-42" transform="translate(258.59375 0)"/>
     </g>
    </g>
    <g id="line2d_85">
     <path d="M 49.625 79.450938 
L 59.625 79.450938 
L 69.625 79.450938 
" style="fill: none; stroke: #2ca02c; stroke-linecap: square"/>
    </g>
    <g id="text_18">
     <!-- -10 dB -->
     <g transform="translate(77.625 82.950938) scale(0.1 -0.1)">
      <use xlink:href="#DejaVuSans-2d"/>
      <use xlink:href="#DejaVuSans-31" transform="translate(36.083984 0)"/>
      <use xlink:href="#DejaVuSans-30" transform="translate(99.707031 0)"/>
      <use xlink:href="#DejaVuSans-20" transform="translate(163.330078 0)"/>
      <use xlink:href="#DejaVuSans-64" transform="translate(195.117188 0)"/>
      <use xlink:href="#DejaVuSans-42" transform="translate(258.59375 0)"/>
     </g>
    </g>
    <g id="line2d_86">
     <path d="M 49.625 94.129063 
L 59.625 94.129063 
L 69.625 94.129063 
" style="fill: none; stroke: #d62728; stroke-linecap: square"/>
    </g>
    <g id="text_19">
     <!-- 0 dB -->
     <g transform="translate(77.625 97.629063) scale(0.1 -0.1)">
      <use xlink:href="#DejaVuSans-30"/>
      <use xlink:href="#DejaVuSans-20" transform="translate(63.623047 0)"/>
      <use xlink:href="#DejaVuSans-64" transform="translate(95.410156 0)"/>
      <use xlink:href="#DejaVuSans-42" transform="translate(158.886719 0)"/>
     </g>
    </g>
    <g id="line2d_87">
     <path d="M 49.625 108.807188 
L 59.625 108.807188 
L 69.625 108.807188 
" style="fill: none; stroke: #9467bd; stroke-linecap: square"/>
    </g>
    <g id="text_20">
     <!-- 10 dB -->
     <g transform="translate(77.625 112.307188) scale(0.1 -0.1)">
      <use xlink:href="#DejaVuSans-31"/>
      <use xlink:href="#DejaVuSans-30" transform="translate(63.623047 0)"/>
      <use xlink:href="#DejaVuSans-20" transform="translate(127.246094 0)"/>
      <use xlink:href="#DejaVuSans-64" transform="translate(159.033203 0)"/>
      <use xlink:href="#DejaVuSans-42" transform="translate(222.509766 0)"/>
     </g>
    </g>
    <g id="line2d_88">
     <path d="M 49.625 123.485313 
L 59.625 123.485313 
L 69.625 123.485313 
" style="fill: none; stroke: #8c564b; stroke-linecap: square"/>
    </g>
    <g id="text_21">
     <!-- 20 dB -->
     <g transform="translate(77.625 126.985313) scale(0.1 -0.1)">
      <use xlink:href="#DejaVuSans-32"/>
      <use xlink:href="#DejaVuSans-30" transform="translate(63.623047 0)"/>
      <use xlink:href="#DejaVuSans-20" transform="translate(127.246094 0)"/>
      <use xlink:href="#DejaVuSans-64" transform="translate(159.033203 0)"/>
      <use xlink:href="#DejaVuSans-42" transform="translate(222.509766 0)"/>
     </g>
    </g>
    <g id="line2d_89">
     <path d="M 49.625 138.163438 
L 59.625 138.163438 
L 69.625 138.163438 
" style="fill: none; stroke: #e377c2; stroke-linecap: square"/>
    </g>
    <g id="text_22">
     <!-- 30 dB -->
     <g transform="translate(77.625 141.663438) scale(0.1 -0.1)">
      <use xlink:href="#DejaVuSans-33"/>
      <use xlink:href="#DejaVuSans-30" transform="translate(63.623047 0)"/>
      <use xlink:href="#DejaVuSans-20" transform="translate(127.246094 0)"/>
      <use xlink:href="#DejaVuSans-64" transform="translate(159.033203 0)"/>
      <use xlink:href="#DejaVuSans-42" transform="translate(222.509766 0)"/>
     </g>
    </g>
   </g>
  </g>
 </g>
 <defs>
  <clipPath id="p31176659f9">
   <rect x="40.625" y="22.318125" width="528.175" height="228.10375"/>
  </clipPath>
 </defs>
</svg>
