<?xml version="1.0" encoding="utf-8" standalone="no"?>
<!DOCTYPE svg PUBLIC "-//W3C//DTD SVG 1.1//EN"
  "http://www.w3.org/Graphics/SVG/1.1/DTD/svg11.dtd">
<svg xmlns:xlink="http://www.w3.org/1999/xlink" width="576pt" height="288pt" viewBox="0 0 576 288" xmlns="http://www.w3.org/2000/svg" version="1.1">
 <metadata>
  <rdf:RDF xmlns:dc="http://purl.org/dc/elements/1.1/" xmlns:cc="http://creativecommons.org/ns#" xmlns:rdf="http://www.w3.org/1999/02/22-rdf-syntax-ns#">
   <cc:Work>
    <dc:type rdf:resource="http://purl.org/dc/dcmitype/StillImage"/>
    <dc:date>2025-05-10T16:34:13.394158</dc:date>
    <dc:format>image/svg+xml</dc:format>
    <dc:creator>
     <cc:Agent>
      <dc:title>Matplotlib v3.10.3, https://matplotlib.org/</dc:title>
     </cc:Agent>
    </dc:creator>
   </cc:Work>
  </rdf:RDF>
 </metadata>
 <defs>
  <style type="text/css">*{stroke-linejoin: round; stroke-linecap: butt}</style>
 </defs>
 <g id="figure_1">
  <g id="patch_1">
   <path d="M 0 288 
L 576 288 
L 576 0 
L 0 0 
z
" style="fill: #ffffff"/>
  </g>
  <g id="axes_1">
   <g id="patch_2">
    <path d="M 40.603125 250.44375 
L 568.8 250.44375 
L 568.8 22.32 
L 40.603125 22.32 
z
" style="fill: #ffffff"/>
   </g>
   <g id="matplotlib.axis_1">
    <g id="xtick_1">
     <g id="line2d_1">
      <path d="M 64.612074 250.44375 
L 64.612074 22.32 
" clip-path="url(#pa92e1f2c6c)" style="fill: none; stroke-dasharray: 2.96,1.28; stroke-dashoffset: 0; stroke: #b0b0b0; stroke-opacity: 0.8; stroke-width: 0.8"/>
     </g>
     <g id="line2d_2">
      <defs>
       <path id="m8e4b988bae" d="M 0 0 
L 0 3.5 
" style="stroke: #000000; stroke-width: 0.8"/>
      </defs>
      <g>
       <use xlink:href="#m8e4b988bae" x="64.612074" y="250.44375" style="stroke: #000000; stroke-width: 0.8"/>
      </g>
     </g>
     <g id="text_1">
      <!-- −40 -->
      <g transform="translate(54.05973 265.042188) scale(0.1 -0.1)">
       <defs>
        <path id="DejaVuSans-2212" d="M 678 2272 
L 4684 2272 
L 4684 1741 
L 678 1741 
L 678 2272 
z
" transform="scale(0.015625)"/>
        <path id="DejaVuSans-34" d="M 2419 4116 
L 825 1625 
L 2419 1625 
L 2419 4116 
z
M 2253 4666 
L 3047 4666 
L 3047 1625 
L 3713 1625 
L 3713 1100 
L 3047 1100 
L 3047 0 
L 2419 0 
L 2419 1100 
L 313 1100 
L 313 1709 
L 2253 4666 
z
" transform="scale(0.015625)"/>
        <path id="DejaVuSans-30" d="M 2034 4250 
Q 1547 4250 1301 3770 
Q 1056 3291 1056 2328 
Q 1056 1369 1301 889 
Q 1547 409 2034 409 
Q 2525 409 2770 889 
Q 3016 1369 3016 2328 
Q 3016 3291 2770 3770 
Q 2525 4250 2034 4250 
z
M 2034 4750 
Q 2819 4750 3233 4129 
Q 3647 3509 3647 2328 
Q 3647 1150 3233 529 
Q 2819 -91 2034 -91 
Q 1250 -91 836 529 
Q 422 1150 422 2328 
Q 422 3509 836 4129 
Q 1250 4750 2034 4750 
z
" transform="scale(0.015625)"/>
       </defs>
       <use xlink:href="#DejaVuSans-2212"/>
       <use xlink:href="#DejaVuSans-34" transform="translate(83.789062 0)"/>
       <use xlink:href="#DejaVuSans-30" transform="translate(147.412109 0)"/>
      </g>
     </g>
    </g>
    <g id="xtick_2">
     <g id="line2d_3">
      <path d="M 156.954185 250.44375 
L 156.954185 22.32 
" clip-path="url(#pa92e1f2c6c)" style="fill: none; stroke-dasharray: 2.96,1.28; stroke-dashoffset: 0; stroke: #b0b0b0; stroke-opacity: 0.8; stroke-width: 0.8"/>
     </g>
     <g id="line2d_4">
      <g>
       <use xlink:href="#m8e4b988bae" x="156.954185" y="250.44375" style="stroke: #000000; stroke-width: 0.8"/>
      </g>
     </g>
     <g id="text_2">
      <!-- −30 -->
      <g transform="translate(146.401841 265.042188) scale(0.1 -0.1)">
       <defs>
        <path id="DejaVuSans-33" d="M 2597 2516 
Q 3050 2419 3304 2112 
Q 3559 1806 3559 1356 
Q 3559 666 3084 287 
Q 2609 -91 1734 -91 
Q 1441 -91 1130 -33 
Q 819 25 488 141 
L 488 750 
Q 750 597 1062 519 
Q 1375 441 1716 441 
Q 2309 441 2620 675 
Q 2931 909 2931 1356 
Q 2931 1769 2642 2001 
Q 2353 2234 1838 2234 
L 1294 2234 
L 1294 2753 
L 1863 2753 
Q 2328 2753 2575 2939 
Q 2822 3125 2822 3475 
Q 2822 3834 2567 4026 
Q 2313 4219 1838 4219 
Q 1578 4219 1281 4162 
Q 984 4106 628 3988 
L 628 4550 
Q 988 4650 1302 4700 
Q 1616 4750 1894 4750 
Q 2613 4750 3031 4423 
Q 3450 4097 3450 3541 
Q 3450 3153 3228 2886 
Q 3006 2619 2597 2516 
z
" transform="scale(0.015625)"/>
       </defs>
       <use xlink:href="#DejaVuSans-2212"/>
       <use xlink:href="#DejaVuSans-33" transform="translate(83.789062 0)"/>
       <use xlink:href="#DejaVuSans-30" transform="translate(147.412109 0)"/>
      </g>
     </g>
    </g>
    <g id="xtick_3">
     <g id="line2d_5">
      <path d="M 249.296296 250.44375 
L 249.296296 22.32 
" clip-path="url(#pa92e1f2c6c)" style="fill: none; stroke-dasharray: 2.96,1.28; stroke-dashoffset: 0; stroke: #b0b0b0; stroke-opacity: 0.8; stroke-width: 0.8"/>
     </g>
     <g id="line2d_6">
      <g>
       <use xlink:href="#m8e4b988bae" x="249.296296" y="250.44375" style="stroke: #000000; stroke-width: 0.8"/>
      </g>
     </g>
     <g id="text_3">
      <!-- −20 -->
      <g transform="translate(238.743952 265.042188) scale(0.1 -0.1)">
       <defs>
        <path id="DejaVuSans-32" d="M 1228 531 
L 3431 531 
L 3431 0 
L 469 0 
L 469 531 
Q 828 903 1448 1529 
Q 2069 2156 2228 2338 
Q 2531 2678 2651 2914 
Q 2772 3150 2772 3378 
Q 2772 3750 2511 3984 
Q 2250 4219 1831 4219 
Q 1534 4219 1204 4116 
Q 875 4013 500 3803 
L 500 4441 
Q 881 4594 1212 4672 
Q 1544 4750 1819 4750 
Q 2544 4750 2975 4387 
Q 3406 4025 3406 3419 
Q 3406 3131 3298 2873 
Q 3191 2616 2906 2266 
Q 2828 2175 2409 1742 
Q 1991 1309 1228 531 
z
" transform="scale(0.015625)"/>
       </defs>
       <use xlink:href="#DejaVuSans-2212"/>
       <use xlink:href="#DejaVuSans-32" transform="translate(83.789062 0)"/>
       <use xlink:href="#DejaVuSans-30" transform="translate(147.412109 0)"/>
      </g>
     </g>
    </g>
    <g id="xtick_4">
     <g id="line2d_7">
      <path d="M 341.638407 250.44375 
L 341.638407 22.32 
" clip-path="url(#pa92e1f2c6c)" style="fill: none; stroke-dasharray: 2.96,1.28; stroke-dashoffset: 0; stroke: #b0b0b0; stroke-opacity: 0.8; stroke-width: 0.8"/>
     </g>
     <g id="line2d_8">
      <g>
       <use xlink:href="#m8e4b988bae" x="341.638407" y="250.44375" style="stroke: #000000; stroke-width: 0.8"/>
      </g>
     </g>
     <g id="text_4">
      <!-- −10 -->
      <g transform="translate(331.086063 265.042188) scale(0.1 -0.1)">
       <defs>
        <path id="DejaVuSans-31" d="M 794 531 
L 1825 531 
L 1825 4091 
L 703 3866 
L 703 4441 
L 1819 4666 
L 2450 4666 
L 2450 531 
L 3481 531 
L 3481 0 
L 794 0 
L 794 531 
z
" transform="scale(0.015625)"/>
       </defs>
       <use xlink:href="#DejaVuSans-2212"/>
       <use xlink:href="#DejaVuSans-31" transform="translate(83.789062 0)"/>
       <use xlink:href="#DejaVuSans-30" transform="translate(147.412109 0)"/>
      </g>
     </g>
    </g>
    <g id="xtick_5">
     <g id="line2d_9">
      <path d="M 433.980518 250.44375 
L 433.980518 22.32 
" clip-path="url(#pa92e1f2c6c)" style="fill: none; stroke-dasharray: 2.96,1.28; stroke-dashoffset: 0; stroke: #b0b0b0; stroke-opacity: 0.8; stroke-width: 0.8"/>
     </g>
     <g id="line2d_10">
      <g>
       <use xlink:href="#m8e4b988bae" x="433.980518" y="250.44375" style="stroke: #000000; stroke-width: 0.8"/>
      </g>
     </g>
     <g id="text_5">
      <!-- 0 -->
      <g transform="translate(430.799268 265.042188) scale(0.1 -0.1)">
       <use xlink:href="#DejaVuSans-30"/>
      </g>
     </g>
    </g>
    <g id="xtick_6">
     <g id="line2d_11">
      <path d="M 526.322629 250.44375 
L 526.322629 22.32 
" clip-path="url(#pa92e1f2c6c)" style="fill: none; stroke-dasharray: 2.96,1.28; stroke-dashoffset: 0; stroke: #b0b0b0; stroke-opacity: 0.8; stroke-width: 0.8"/>
     </g>
     <g id="line2d_12">
      <g>
       <use xlink:href="#m8e4b988bae" x="526.322629" y="250.44375" style="stroke: #000000; stroke-width: 0.8"/>
      </g>
     </g>
     <g id="text_6">
      <!-- 10 -->
      <g transform="translate(519.960129 265.042188) scale(0.1 -0.1)">
       <use xlink:href="#DejaVuSans-31"/>
       <use xlink:href="#DejaVuSans-30" transform="translate(63.623047 0)"/>
      </g>
     </g>
    </g>
    <g id="text_7">
     <!-- Input signal-to-noise ratio (dB) -->
     <g transform="translate(228.14375 278.720312) scale(0.1 -0.1)">
      <defs>
       <path id="DejaVuSans-49" d="M 628 4666 
L 1259 4666 
L 1259 0 
L 628 0 
L 628 4666 
z
" transform="scale(0.015625)"/>
       <path id="DejaVuSans-6e" d="M 3513 2113 
L 3513 0 
L 2938 0 
L 2938 2094 
Q 2938 2591 2744 2837 
Q 2550 3084 2163 3084 
Q 1697 3084 1428 2787 
Q 1159 2491 1159 1978 
L 1159 0 
L 581 0 
L 581 3500 
L 1159 3500 
L 1159 2956 
Q 1366 3272 1645 3428 
Q 1925 3584 2291 3584 
Q 2894 3584 3203 3211 
Q 3513 2838 3513 2113 
z
" transform="scale(0.015625)"/>
       <path id="DejaVuSans-70" d="M 1159 525 
L 1159 -1331 
L 581 -1331 
L 581 3500 
L 1159 3500 
L 1159 2969 
Q 1341 3281 1617 3432 
Q 1894 3584 2278 3584 
Q 2916 3584 3314 3078 
Q 3713 2572 3713 1747 
Q 3713 922 3314 415 
Q 2916 -91 2278 -91 
Q 1894 -91 1617 61 
Q 1341 213 1159 525 
z
M 3116 1747 
Q 3116 2381 2855 2742 
Q 2594 3103 2138 3103 
Q 1681 3103 1420 2742 
Q 1159 2381 1159 1747 
Q 1159 1113 1420 752 
Q 1681 391 2138 391 
Q 2594 391 2855 752 
Q 3116 1113 3116 1747 
z
" transform="scale(0.015625)"/>
       <path id="DejaVuSans-75" d="M 544 1381 
L 544 3500 
L 1119 3500 
L 1119 1403 
Q 1119 906 1312 657 
Q 1506 409 1894 409 
Q 2359 409 2629 706 
Q 2900 1003 2900 1516 
L 2900 3500 
L 3475 3500 
L 3475 0 
L 2900 0 
L 2900 538 
Q 2691 219 2414 64 
Q 2138 -91 1772 -91 
Q 1169 -91 856 284 
Q 544 659 544 1381 
z
M 1991 3584 
L 1991 3584 
z
" transform="scale(0.015625)"/>
       <path id="DejaVuSans-74" d="M 1172 4494 
L 1172 3500 
L 2356 3500 
L 2356 3053 
L 1172 3053 
L 1172 1153 
Q 1172 725 1289 603 
Q 1406 481 1766 481 
L 2356 481 
L 2356 0 
L 1766 0 
Q 1100 0 847 248 
Q 594 497 594 1153 
L 594 3053 
L 172 3053 
L 172 3500 
L 594 3500 
L 594 4494 
L 1172 4494 
z
" transform="scale(0.015625)"/>
       <path id="DejaVuSans-20" transform="scale(0.015625)"/>
       <path id="DejaVuSans-73" d="M 2834 3397 
L 2834 2853 
Q 2591 2978 2328 3040 
Q 2066 3103 1784 3103 
Q 1356 3103 1142 2972 
Q 928 2841 928 2578 
Q 928 2378 1081 2264 
Q 1234 2150 1697 2047 
L 1894 2003 
Q 2506 1872 2764 1633 
Q 3022 1394 3022 966 
Q 3022 478 2636 193 
Q 2250 -91 1575 -91 
Q 1294 -91 989 -36 
Q 684 19 347 128 
L 347 722 
Q 666 556 975 473 
Q 1284 391 1588 391 
Q 1994 391 2212 530 
Q 2431 669 2431 922 
Q 2431 1156 2273 1281 
Q 2116 1406 1581 1522 
L 1381 1569 
Q 847 1681 609 1914 
Q 372 2147 372 2553 
Q 372 3047 722 3315 
Q 1072 3584 1716 3584 
Q 2034 3584 2315 3537 
Q 2597 3491 2834 3397 
z
" transform="scale(0.015625)"/>
       <path id="DejaVuSans-69" d="M 603 3500 
L 1178 3500 
L 1178 0 
L 603 0 
L 603 3500 
z
M 603 4863 
L 1178 4863 
L 1178 4134 
L 603 4134 
L 603 4863 
z
" transform="scale(0.015625)"/>
       <path id="DejaVuSans-67" d="M 2906 1791 
Q 2906 2416 2648 2759 
Q 2391 3103 1925 3103 
Q 1463 3103 1205 2759 
Q 947 2416 947 1791 
Q 947 1169 1205 825 
Q 1463 481 1925 481 
Q 2391 481 2648 825 
Q 2906 1169 2906 1791 
z
M 3481 434 
Q 3481 -459 3084 -895 
Q 2688 -1331 1869 -1331 
Q 1566 -1331 1297 -1286 
Q 1028 -1241 775 -1147 
L 775 -588 
Q 1028 -725 1275 -790 
Q 1522 -856 1778 -856 
Q 2344 -856 2625 -561 
Q 2906 -266 2906 331 
L 2906 616 
Q 2728 306 2450 153 
Q 2172 0 1784 0 
Q 1141 0 747 490 
Q 353 981 353 1791 
Q 353 2603 747 3093 
Q 1141 3584 1784 3584 
Q 2172 3584 2450 3431 
Q 2728 3278 2906 2969 
L 2906 3500 
L 3481 3500 
L 3481 434 
z
" transform="scale(0.015625)"/>
       <path id="DejaVuSans-61" d="M 2194 1759 
Q 1497 1759 1228 1600 
Q 959 1441 959 1056 
Q 959 750 1161 570 
Q 1363 391 1709 391 
Q 2188 391 2477 730 
Q 2766 1069 2766 1631 
L 2766 1759 
L 2194 1759 
z
M 3341 1997 
L 3341 0 
L 2766 0 
L 2766 531 
Q 2569 213 2275 61 
Q 1981 -91 1556 -91 
Q 1019 -91 701 211 
Q 384 513 384 1019 
Q 384 1609 779 1909 
Q 1175 2209 1959 2209 
L 2766 2209 
L 2766 2266 
Q 2766 2663 2505 2880 
Q 2244 3097 1772 3097 
Q 1472 3097 1187 3025 
Q 903 2953 641 2809 
L 641 3341 
Q 956 3463 1253 3523 
Q 1550 3584 1831 3584 
Q 2591 3584 2966 3190 
Q 3341 2797 3341 1997 
z
" transform="scale(0.015625)"/>
       <path id="DejaVuSans-6c" d="M 603 4863 
L 1178 4863 
L 1178 0 
L 603 0 
L 603 4863 
z
" transform="scale(0.015625)"/>
       <path id="DejaVuSans-2d" d="M 313 2009 
L 1997 2009 
L 1997 1497 
L 313 1497 
L 313 2009 
z
" transform="scale(0.015625)"/>
       <path id="DejaVuSans-6f" d="M 1959 3097 
Q 1497 3097 1228 2736 
Q 959 2375 959 1747 
Q 959 1119 1226 758 
Q 1494 397 1959 397 
Q 2419 397 2687 759 
Q 2956 1122 2956 1747 
Q 2956 2369 2687 2733 
Q 2419 3097 1959 3097 
z
M 1959 3584 
Q 2709 3584 3137 3096 
Q 3566 2609 3566 1747 
Q 3566 888 3137 398 
Q 2709 -91 1959 -91 
Q 1206 -91 779 398 
Q 353 888 353 1747 
Q 353 2609 779 3096 
Q 1206 3584 1959 3584 
z
" transform="scale(0.015625)"/>
       <path id="DejaVuSans-65" d="M 3597 1894 
L 3597 1613 
L 953 1613 
Q 991 1019 1311 708 
Q 1631 397 2203 397 
Q 2534 397 2845 478 
Q 3156 559 3463 722 
L 3463 178 
Q 3153 47 2828 -22 
Q 2503 -91 2169 -91 
Q 1331 -91 842 396 
Q 353 884 353 1716 
Q 353 2575 817 3079 
Q 1281 3584 2069 3584 
Q 2775 3584 3186 3129 
Q 3597 2675 3597 1894 
z
M 3022 2063 
Q 3016 2534 2758 2815 
Q 2500 3097 2075 3097 
Q 1594 3097 1305 2825 
Q 1016 2553 972 2059 
L 3022 2063 
z
" transform="scale(0.015625)"/>
       <path id="DejaVuSans-72" d="M 2631 2963 
Q 2534 3019 2420 3045 
Q 2306 3072 2169 3072 
Q 1681 3072 1420 2755 
Q 1159 2438 1159 1844 
L 1159 0 
L 581 0 
L 581 3500 
L 1159 3500 
L 1159 2956 
Q 1341 3275 1631 3429 
Q 1922 3584 2338 3584 
Q 2397 3584 2469 3576 
Q 2541 3569 2628 3553 
L 2631 2963 
z
" transform="scale(0.015625)"/>
       <path id="DejaVuSans-28" d="M 1984 4856 
Q 1566 4138 1362 3434 
Q 1159 2731 1159 2009 
Q 1159 1288 1364 580 
Q 1569 -128 1984 -844 
L 1484 -844 
Q 1016 -109 783 600 
Q 550 1309 550 2009 
Q 550 2706 781 3412 
Q 1013 4119 1484 4856 
L 1984 4856 
z
" transform="scale(0.015625)"/>
       <path id="DejaVuSans-64" d="M 2906 2969 
L 2906 4863 
L 3481 4863 
L 3481 0 
L 2906 0 
L 2906 525 
Q 2725 213 2448 61 
Q 2172 -91 1784 -91 
Q 1150 -91 751 415 
Q 353 922 353 1747 
Q 353 2572 751 3078 
Q 1150 3584 1784 3584 
Q 2172 3584 2448 3432 
Q 2725 3281 2906 2969 
z
M 947 1747 
Q 947 1113 1208 752 
Q 1469 391 1925 391 
Q 2381 391 2643 752 
Q 2906 1113 2906 1747 
Q 2906 2381 2643 2742 
Q 2381 3103 1925 3103 
Q 1469 3103 1208 2742 
Q 947 2381 947 1747 
z
" transform="scale(0.015625)"/>
       <path id="DejaVuSans-42" d="M 1259 2228 
L 1259 519 
L 2272 519 
Q 2781 519 3026 730 
Q 3272 941 3272 1375 
Q 3272 1813 3026 2020 
Q 2781 2228 2272 2228 
L 1259 2228 
z
M 1259 4147 
L 1259 2741 
L 2194 2741 
Q 2656 2741 2882 2914 
Q 3109 3088 3109 3444 
Q 3109 3797 2882 3972 
Q 2656 4147 2194 4147 
L 1259 4147 
z
M 628 4666 
L 2241 4666 
Q 2963 4666 3353 4366 
Q 3744 4066 3744 3513 
Q 3744 3084 3544 2831 
Q 3344 2578 2956 2516 
Q 3422 2416 3680 2098 
Q 3938 1781 3938 1306 
Q 3938 681 3513 340 
Q 3088 0 2303 0 
L 628 0 
L 628 4666 
z
" transform="scale(0.015625)"/>
       <path id="DejaVuSans-29" d="M 513 4856 
L 1013 4856 
Q 1481 4119 1714 3412 
Q 1947 2706 1947 2009 
Q 1947 1309 1714 600 
Q 1481 -109 1013 -844 
L 513 -844 
Q 928 -128 1133 580 
Q 1338 1288 1338 2009 
Q 1338 2731 1133 3434 
Q 928 4138 513 4856 
z
" transform="scale(0.015625)"/>
      </defs>
      <use xlink:href="#DejaVuSans-49"/>
      <use xlink:href="#DejaVuSans-6e" transform="translate(29.492188 0)"/>
      <use xlink:href="#DejaVuSans-70" transform="translate(92.871094 0)"/>
      <use xlink:href="#DejaVuSans-75" transform="translate(156.347656 0)"/>
      <use xlink:href="#DejaVuSans-74" transform="translate(219.726562 0)"/>
      <use xlink:href="#DejaVuSans-20" transform="translate(258.935547 0)"/>
      <use xlink:href="#DejaVuSans-73" transform="translate(290.722656 0)"/>
      <use xlink:href="#DejaVuSans-69" transform="translate(342.822266 0)"/>
      <use xlink:href="#DejaVuSans-67" transform="translate(370.605469 0)"/>
      <use xlink:href="#DejaVuSans-6e" transform="translate(434.082031 0)"/>
      <use xlink:href="#DejaVuSans-61" transform="translate(497.460938 0)"/>
      <use xlink:href="#DejaVuSans-6c" transform="translate(558.740234 0)"/>
      <use xlink:href="#DejaVuSans-2d" transform="translate(586.523438 0)"/>
      <use xlink:href="#DejaVuSans-74" transform="translate(622.607422 0)"/>
      <use xlink:href="#DejaVuSans-6f" transform="translate(661.816406 0)"/>
      <use xlink:href="#DejaVuSans-2d" transform="translate(724.873047 0)"/>
      <use xlink:href="#DejaVuSans-6e" transform="translate(760.957031 0)"/>
      <use xlink:href="#DejaVuSans-6f" transform="translate(824.335938 0)"/>
      <use xlink:href="#DejaVuSans-69" transform="translate(885.517578 0)"/>
      <use xlink:href="#DejaVuSans-73" transform="translate(913.300781 0)"/>
      <use xlink:href="#DejaVuSans-65" transform="translate(965.400391 0)"/>
      <use xlink:href="#DejaVuSans-20" transform="translate(1026.923828 0)"/>
      <use xlink:href="#DejaVuSans-72" transform="translate(1058.710938 0)"/>
      <use xlink:href="#DejaVuSans-61" transform="translate(1099.824219 0)"/>
      <use xlink:href="#DejaVuSans-74" transform="translate(1161.103516 0)"/>
      <use xlink:href="#DejaVuSans-69" transform="translate(1200.3125 0)"/>
      <use xlink:href="#DejaVuSans-6f" transform="translate(1228.095703 0)"/>
      <use xlink:href="#DejaVuSans-20" transform="translate(1289.277344 0)"/>
      <use xlink:href="#DejaVuSans-28" transform="translate(1321.064453 0)"/>
      <use xlink:href="#DejaVuSans-64" transform="translate(1360.078125 0)"/>
      <use xlink:href="#DejaVuSans-42" transform="translate(1423.554688 0)"/>
      <use xlink:href="#DejaVuSans-29" transform="translate(1492.158203 0)"/>
     </g>
    </g>
   </g>
   <g id="matplotlib.axis_2">
    <g id="ytick_1">
     <g id="line2d_13">
      <path d="M 40.603125 250.44375 
L 568.8 250.44375 
" clip-path="url(#pa92e1f2c6c)" style="fill: none; stroke-dasharray: 2.96,1.28; stroke-dashoffset: 0; stroke: #b0b0b0; stroke-opacity: 0.8; stroke-width: 0.8"/>
     </g>
     <g id="line2d_14">
      <defs>
       <path id="me16962b55e" d="M 0 0 
L -3.5 0 
" style="stroke: #000000; stroke-width: 0.8"/>
      </defs>
      <g>
       <use xlink:href="#me16962b55e" x="40.603125" y="250.44375" style="stroke: #000000; stroke-width: 0.8"/>
      </g>
     </g>
     <g id="text_8">
      <!-- 0 -->
      <g transform="translate(27.240625 254.242969) scale(0.1 -0.1)">
       <use xlink:href="#DejaVuSans-30"/>
      </g>
     </g>
    </g>
    <g id="ytick_2">
     <g id="line2d_15">
      <path d="M 40.603125 204.819 
L 568.8 204.819 
" clip-path="url(#pa92e1f2c6c)" style="fill: none; stroke-dasharray: 2.96,1.28; stroke-dashoffset: 0; stroke: #b0b0b0; stroke-opacity: 0.8; stroke-width: 0.8"/>
     </g>
     <g id="line2d_16">
      <g>
       <use xlink:href="#me16962b55e" x="40.603125" y="204.819" style="stroke: #000000; stroke-width: 0.8"/>
      </g>
     </g>
     <g id="text_9">
      <!-- 2 -->
      <g transform="translate(27.240625 208.618219) scale(0.1 -0.1)">
       <use xlink:href="#DejaVuSans-32"/>
      </g>
     </g>
    </g>
    <g id="ytick_3">
     <g id="line2d_17">
      <path d="M 40.603125 159.19425 
L 568.8 159.19425 
" clip-path="url(#pa92e1f2c6c)" style="fill: none; stroke-dasharray: 2.96,1.28; stroke-dashoffset: 0; stroke: #b0b0b0; stroke-opacity: 0.8; stroke-width: 0.8"/>
     </g>
     <g id="line2d_18">
      <g>
       <use xlink:href="#me16962b55e" x="40.603125" y="159.19425" style="stroke: #000000; stroke-width: 0.8"/>
      </g>
     </g>
     <g id="text_10">
      <!-- 4 -->
      <g transform="translate(27.240625 162.993469) scale(0.1 -0.1)">
       <use xlink:href="#DejaVuSans-34"/>
      </g>
     </g>
    </g>
    <g id="ytick_4">
     <g id="line2d_19">
      <path d="M 40.603125 113.5695 
L 568.8 113.5695 
" clip-path="url(#pa92e1f2c6c)" style="fill: none; stroke-dasharray: 2.96,1.28; stroke-dashoffset: 0; stroke: #b0b0b0; stroke-opacity: 0.8; stroke-width: 0.8"/>
     </g>
     <g id="line2d_20">
      <g>
       <use xlink:href="#me16962b55e" x="40.603125" y="113.5695" style="stroke: #000000; stroke-width: 0.8"/>
      </g>
     </g>
     <g id="text_11">
      <!-- 6 -->
      <g transform="translate(27.240625 117.368719) scale(0.1 -0.1)">
       <defs>
        <path id="DejaVuSans-36" d="M 2113 2584 
Q 1688 2584 1439 2293 
Q 1191 2003 1191 1497 
Q 1191 994 1439 701 
Q 1688 409 2113 409 
Q 2538 409 2786 701 
Q 3034 994 3034 1497 
Q 3034 2003 2786 2293 
Q 2538 2584 2113 2584 
z
M 3366 4563 
L 3366 3988 
Q 3128 4100 2886 4159 
Q 2644 4219 2406 4219 
Q 1781 4219 1451 3797 
Q 1122 3375 1075 2522 
Q 1259 2794 1537 2939 
Q 1816 3084 2150 3084 
Q 2853 3084 3261 2657 
Q 3669 2231 3669 1497 
Q 3669 778 3244 343 
Q 2819 -91 2113 -91 
Q 1303 -91 875 529 
Q 447 1150 447 2328 
Q 447 3434 972 4092 
Q 1497 4750 2381 4750 
Q 2619 4750 2861 4703 
Q 3103 4656 3366 4563 
z
" transform="scale(0.015625)"/>
       </defs>
       <use xlink:href="#DejaVuSans-36"/>
      </g>
     </g>
    </g>
    <g id="ytick_5">
     <g id="line2d_21">
      <path d="M 40.603125 67.94475 
L 568.8 67.94475 
" clip-path="url(#pa92e1f2c6c)" style="fill: none; stroke-dasharray: 2.96,1.28; stroke-dashoffset: 0; stroke: #b0b0b0; stroke-opacity: 0.8; stroke-width: 0.8"/>
     </g>
     <g id="line2d_22">
      <g>
       <use xlink:href="#me16962b55e" x="40.603125" y="67.94475" style="stroke: #000000; stroke-width: 0.8"/>
      </g>
     </g>
     <g id="text_12">
      <!-- 8 -->
      <g transform="translate(27.240625 71.743969) scale(0.1 -0.1)">
       <defs>
        <path id="DejaVuSans-38" d="M 2034 2216 
Q 1584 2216 1326 1975 
Q 1069 1734 1069 1313 
Q 1069 891 1326 650 
Q 1584 409 2034 409 
Q 2484 409 2743 651 
Q 3003 894 3003 1313 
Q 3003 1734 2745 1975 
Q 2488 2216 2034 2216 
z
M 1403 2484 
Q 997 2584 770 2862 
Q 544 3141 544 3541 
Q 544 4100 942 4425 
Q 1341 4750 2034 4750 
Q 2731 4750 3128 4425 
Q 3525 4100 3525 3541 
Q 3525 3141 3298 2862 
Q 3072 2584 2669 2484 
Q 3125 2378 3379 2068 
Q 3634 1759 3634 1313 
Q 3634 634 3220 271 
Q 2806 -91 2034 -91 
Q 1263 -91 848 271 
Q 434 634 434 1313 
Q 434 1759 690 2068 
Q 947 2378 1403 2484 
z
M 1172 3481 
Q 1172 3119 1398 2916 
Q 1625 2713 2034 2713 
Q 2441 2713 2670 2916 
Q 2900 3119 2900 3481 
Q 2900 3844 2670 4047 
Q 2441 4250 2034 4250 
Q 1625 4250 1398 4047 
Q 1172 3844 1172 3481 
z
" transform="scale(0.015625)"/>
       </defs>
       <use xlink:href="#DejaVuSans-38"/>
      </g>
     </g>
    </g>
    <g id="ytick_6">
     <g id="line2d_23">
      <path d="M 40.603125 22.32 
L 568.8 22.32 
" clip-path="url(#pa92e1f2c6c)" style="fill: none; stroke-dasharray: 2.96,1.28; stroke-dashoffset: 0; stroke: #b0b0b0; stroke-opacity: 0.8; stroke-width: 0.8"/>
     </g>
     <g id="line2d_24">
      <g>
       <use xlink:href="#me16962b55e" x="40.603125" y="22.32" style="stroke: #000000; stroke-width: 0.8"/>
      </g>
     </g>
     <g id="text_13">
      <!-- 10 -->
      <g transform="translate(20.878125 26.119219) scale(0.1 -0.1)">
       <use xlink:href="#DejaVuSans-31"/>
       <use xlink:href="#DejaVuSans-30" transform="translate(63.623047 0)"/>
      </g>
     </g>
    </g>
    <g id="text_14">
     <!-- Non-coherent gain (dB) -->
     <g transform="translate(14.798438 194.837344) rotate(-90) scale(0.1 -0.1)">
      <defs>
       <path id="DejaVuSans-4e" d="M 628 4666 
L 1478 4666 
L 3547 763 
L 3547 4666 
L 4159 4666 
L 4159 0 
L 3309 0 
L 1241 3903 
L 1241 0 
L 628 0 
L 628 4666 
z
" transform="scale(0.015625)"/>
       <path id="DejaVuSans-63" d="M 3122 3366 
L 3122 2828 
Q 2878 2963 2633 3030 
Q 2388 3097 2138 3097 
Q 1578 3097 1268 2742 
Q 959 2388 959 1747 
Q 959 1106 1268 751 
Q 1578 397 2138 397 
Q 2388 397 2633 464 
Q 2878 531 3122 666 
L 3122 134 
Q 2881 22 2623 -34 
Q 2366 -91 2075 -91 
Q 1284 -91 818 406 
Q 353 903 353 1747 
Q 353 2603 823 3093 
Q 1294 3584 2113 3584 
Q 2378 3584 2631 3529 
Q 2884 3475 3122 3366 
z
" transform="scale(0.015625)"/>
       <path id="DejaVuSans-68" d="M 3513 2113 
L 3513 0 
L 2938 0 
L 2938 2094 
Q 2938 2591 2744 2837 
Q 2550 3084 2163 3084 
Q 1697 3084 1428 2787 
Q 1159 2491 1159 1978 
L 1159 0 
L 581 0 
L 581 4863 
L 1159 4863 
L 1159 2956 
Q 1366 3272 1645 3428 
Q 1925 3584 2291 3584 
Q 2894 3584 3203 3211 
Q 3513 2838 3513 2113 
z
" transform="scale(0.015625)"/>
      </defs>
      <use xlink:href="#DejaVuSans-4e"/>
      <use xlink:href="#DejaVuSans-6f" transform="translate(74.804688 0)"/>
      <use xlink:href="#DejaVuSans-6e" transform="translate(135.986328 0)"/>
      <use xlink:href="#DejaVuSans-2d" transform="translate(199.365234 0)"/>
      <use xlink:href="#DejaVuSans-63" transform="translate(235.449219 0)"/>
      <use xlink:href="#DejaVuSans-6f" transform="translate(290.429688 0)"/>
      <use xlink:href="#DejaVuSans-68" transform="translate(351.611328 0)"/>
      <use xlink:href="#DejaVuSans-65" transform="translate(414.990234 0)"/>
      <use xlink:href="#DejaVuSans-72" transform="translate(476.513672 0)"/>
      <use xlink:href="#DejaVuSans-65" transform="translate(515.376953 0)"/>
      <use xlink:href="#DejaVuSans-6e" transform="translate(576.900391 0)"/>
      <use xlink:href="#DejaVuSans-74" transform="translate(640.279297 0)"/>
      <use xlink:href="#DejaVuSans-20" transform="translate(679.488281 0)"/>
      <use xlink:href="#DejaVuSans-67" transform="translate(711.275391 0)"/>
      <use xlink:href="#DejaVuSans-61" transform="translate(774.751953 0)"/>
      <use xlink:href="#DejaVuSans-69" transform="translate(836.03125 0)"/>
      <use xlink:href="#DejaVuSans-6e" transform="translate(863.814453 0)"/>
      <use xlink:href="#DejaVuSans-20" transform="translate(927.193359 0)"/>
      <use xlink:href="#DejaVuSans-28" transform="translate(958.980469 0)"/>
      <use xlink:href="#DejaVuSans-64" transform="translate(997.994141 0)"/>
      <use xlink:href="#DejaVuSans-42" transform="translate(1061.470703 0)"/>
      <use xlink:href="#DejaVuSans-29" transform="translate(1130.074219 0)"/>
     </g>
    </g>
   </g>
   <g id="line2d_25">
    <path d="M 64.612074 213.024538 
L 69.413864 213.012775 
L 74.215653 212.999518 
L 79.017443 212.984577 
L 83.819233 212.96774 
L 88.621023 212.948765 
L 93.422813 212.927383 
L 98.224602 212.903289 
L 103.026392 212.87614 
L 107.828182 212.845549 
L 112.629972 212.811083 
L 117.431761 212.772252 
L 122.233551 212.728508 
L 127.035341 212.67923 
L 131.837131 212.623725 
L 136.63892 212.56121 
L 141.44071 212.490808 
L 146.2425 212.411534 
L 151.04429 212.322281 
L 155.84608 212.221807 
L 160.647869 212.108722 
L 165.449659 211.981466 
L 170.251449 211.838294 
L 175.053239 211.677255 
L 179.855028 211.496169 
L 184.656818 211.292603 
L 189.458608 211.063847 
L 194.260398 210.806883 
L 199.062188 210.518363 
L 203.863977 210.194574 
L 208.665767 209.831412 
L 213.467557 209.424349 
L 218.269347 208.968409 
L 223.071136 208.458144 
L 227.872926 207.887607 
L 232.674716 207.250346 
L 237.476506 206.539399 
L 242.278295 205.7473 
L 247.080085 204.866111 
L 251.881875 203.887468 
L 256.683665 202.802657 
L 261.485455 201.602724 
L 266.287244 200.278619 
L 271.089034 198.821381 
L 275.890824 197.222368 
L 280.692614 195.473527 
L 285.494403 193.567707 
L 290.296193 191.498985 
L 295.097983 189.263017 
L 299.899773 186.857361 
L 304.701563 184.28177 
L 309.503352 181.538404 
L 314.305142 178.631944 
L 319.106932 175.569597 
L 323.908722 172.360961 
L 328.710511 169.017777 
L 333.512301 165.553586 
L 338.314091 161.983316 
L 343.115881 158.322842 
L 347.91767 154.588559 
L 352.71946 150.796975 
L 357.52125 146.964378 
L 362.32304 143.106543 
L 367.12483 139.238513 
L 371.926619 135.374431 
L 376.728409 131.527422 
L 381.530199 127.709523 
L 386.331989 123.931639 
L 391.133778 120.203534 
L 395.935568 116.53385 
L 400.737358 112.930132 
L 405.539148 109.398882 
L 410.340938 105.945609 
L 415.142727 102.574899 
L 419.944517 99.290477 
L 424.746307 96.095284 
L 429.548097 92.99154 
L 434.349886 89.980816 
L 439.151676 87.064103 
L 443.953466 84.241869 
L 448.755256 81.514123 
L 453.557045 78.880471 
L 458.358835 76.340165 
L 463.160625 73.892151 
L 467.962415 71.535113 
L 472.764205 69.267512 
L 477.565994 67.087621 
L 482.367784 64.993557 
L 487.169574 62.983309 
L 491.971364 61.054766 
L 496.773153 59.205737 
L 501.574943 57.433971 
L 506.376733 55.737175 
L 511.178523 54.113033 
L 515.980313 52.559213 
L 520.782102 51.073383 
L 525.583892 49.653222 
L 530.385682 48.296425 
L 535.187472 47.000715 
L 539.989261 45.763927 
L 544.791051 44.385638 
" clip-path="url(#pa92e1f2c6c)" style="fill: none; stroke: #1f77b4; stroke-linecap: square"/>
   </g>
   <g id="line2d_26">
    <path d="M 64.612074 210.09693 
L 69.413864 210.086567 
L 74.215653 210.074887 
L 79.017443 210.061724 
L 83.819233 210.046889 
L 88.621023 210.030171 
L 93.422813 210.011332 
L 98.224602 209.990102 
L 103.026392 209.966178 
L 107.828182 209.939222 
L 112.629972 209.908849 
L 117.431761 209.874628 
L 122.233551 209.836074 
L 127.035341 209.79264 
L 131.837131 209.743714 
L 136.63892 209.688605 
L 141.44071 209.626536 
L 146.2425 209.556638 
L 151.04429 209.477931 
L 155.84608 209.389317 
L 160.647869 209.289564 
L 165.449659 209.177292 
L 170.251449 209.050952 
L 175.053239 208.908813 
L 179.855028 208.748939 
L 184.656818 208.569166 
L 189.458608 208.367081 
L 194.260398 208.139993 
L 199.062188 207.884911 
L 203.863977 207.598511 
L 208.665767 207.277113 
L 213.467557 206.916645 
L 218.269347 206.51262 
L 223.071136 206.060103 
L 227.872926 205.553693 
L 232.674716 204.987499 
L 237.476506 204.35513 
L 242.278295 203.649687 
L 247.080085 202.863781 
L 251.881875 201.989554 
L 256.683665 201.018732 
L 261.485455 199.942697 
L 266.287244 198.752601 
L 271.089034 197.439503 
L 275.890824 195.994561 
L 280.692614 194.409253 
L 285.494403 192.675652 
L 290.296193 190.786728 
L 295.097983 188.736676 
L 299.899773 186.521262 
L 304.701563 184.138141 
L 309.503352 181.587147 
L 314.305142 178.8705 
L 319.106932 175.992918 
L 323.908722 172.961621 
L 328.710511 169.786192 
L 333.512301 166.478336 
L 338.314091 163.051531 
L 343.115881 159.520623 
L 347.91767 155.901387 
L 352.71946 152.210095 
L 357.52125 148.463128 
L 362.32304 144.676625 
L 367.12483 140.86621 
L 371.926619 137.046766 
L 376.728409 133.232272 
L 381.530199 129.435688 
L 386.331989 125.668886 
L 391.133778 121.942608 
L 395.935568 118.266464 
L 400.737358 114.648945 
L 405.539148 111.097454 
L 410.340938 107.618358 
L 415.142727 104.217043 
L 419.944517 100.897979 
L 424.746307 97.664789 
L 429.548097 94.520315 
L 434.349886 91.466692 
L 439.151676 88.505415 
L 443.953466 85.637406 
L 448.755256 82.863073 
L 453.557045 80.182375 
L 458.358835 77.59487 
L 463.160625 75.099774 
L 467.962415 72.696001 
L 472.764205 70.382207 
L 477.565994 68.156834 
L 482.367784 66.018138 
L 487.169574 63.964224 
L 491.971364 61.993074 
L 496.773153 60.102573 
L 501.574943 58.290526 
L 506.376733 56.554687 
L 511.178523 54.892767 
L 515.980313 53.302454 
L 520.782102 51.781428 
L 525.583892 50.327366 
L 530.385682 48.93796 
L 535.187472 47.610917 
L 539.989261 46.344975 
L 544.791051 45.213194 
" clip-path="url(#pa92e1f2c6c)" style="fill: none; stroke: #ff7f0e; stroke-linecap: square"/>
   </g>
   <g id="line2d_27">
    <path d="M 64.612074 206.471161 
L 69.413864 206.462226 
L 74.215653 206.452155 
L 79.017443 206.440806 
L 83.819233 206.428014 
L 88.621023 206.413599 
L 93.422813 206.397353 
L 98.224602 206.379046 
L 103.026392 206.358415 
L 107.828182 206.335168 
L 112.629972 206.308973 
L 117.431761 206.279458 
L 122.233551 206.246203 
L 127.035341 206.208737 
L 131.837131 206.16653 
L 136.63892 206.118984 
L 141.44071 206.06543 
L 146.2425 206.005112 
L 151.04429 205.937185 
L 155.84608 205.860697 
L 160.647869 205.77458 
L 165.449659 205.677637 
L 170.251449 205.568525 
L 175.053239 205.44574 
L 179.855028 205.307599 
L 184.656818 205.152217 
L 189.458608 204.977492 
L 194.260398 204.781075 
L 199.062188 204.560351 
L 203.863977 204.312409 
L 208.665767 204.034015 
L 213.467557 203.721587 
L 218.269347 203.371161 
L 223.071136 202.978369 
L 227.872926 202.538404 
L 232.674716 202.046004 
L 237.476506 201.495425 
L 242.278295 200.880434 
L 247.080085 200.194299 
L 251.881875 199.429801 
L 256.683665 198.57926 
L 261.485455 197.634576 
L 266.287244 196.587303 
L 271.089034 195.428754 
L 275.890824 194.150133 
L 280.692614 192.742713 
L 285.494403 191.19806 
L 290.296193 189.508286 
L 295.097983 187.666345 
L 299.899773 185.666365 
L 304.701563 183.50397 
L 309.503352 181.176613 
L 314.305142 178.683858 
L 319.106932 176.027604 
L 323.908722 173.212208 
L 328.710511 170.244503 
L 333.512301 167.133684 
L 338.314091 163.891082 
L 343.115881 160.529834 
L 347.91767 157.064483 
L 352.71946 153.510551 
L 357.52125 149.884104 
L 362.32304 146.201356 
L 367.12483 142.478323 
L 371.926619 138.73053 
L 376.728409 134.972786 
L 381.530199 131.219015 
L 386.331989 127.482139 
L 391.133778 123.773996 
L 395.935568 120.105309 
L 400.737358 116.485671 
L 405.539148 112.923561 
L 410.340938 109.426376 
L 415.142727 106.000477 
L 419.944517 102.651249 
L 424.746307 99.383161 
L 429.548097 96.199835 
L 434.349886 93.104117 
L 439.151676 90.098145 
L 443.953466 87.183417 
L 448.755256 84.360859 
L 453.557045 81.630886 
L 458.358835 78.993461 
L 463.160625 76.44815 
L 467.962415 73.994176 
L 472.764205 71.630461 
L 477.565994 69.35567 
L 482.367784 67.168253 
L 487.169574 65.066477 
L 491.971364 63.048458 
L 496.773153 61.112188 
L 501.574943 59.255563 
L 506.376733 57.476404 
L 511.178523 55.772473 
L 515.980313 54.141498 
L 520.782102 52.58118 
L 525.583892 51.089212 
L 530.385682 49.66329 
L 535.187472 48.299649 
L 539.989261 47.092107 
L 544.791051 45.857946 
" clip-path="url(#pa92e1f2c6c)" style="fill: none; stroke: #2ca02c; stroke-linecap: square"/>
   </g>
   <g id="line2d_28">
    <path d="M 64.612074 201.807735 
L 69.413864 201.800265 
L 74.215653 201.791846 
L 79.017443 201.782358 
L 83.819233 201.771664 
L 88.621023 201.759612 
L 93.422813 201.74603 
L 98.224602 201.730723 
L 103.026392 201.713473 
L 107.828182 201.694034 
L 112.629972 201.67213 
L 117.431761 201.647447 
L 122.233551 201.619636 
L 127.035341 201.588301 
L 131.837131 201.552997 
L 136.63892 201.513224 
L 141.44071 201.468421 
L 146.2425 201.417953 
L 151.04429 201.361111 
L 155.84608 201.297096 
L 160.647869 201.22501 
L 165.449659 201.143847 
L 170.251449 201.052477 
L 175.053239 200.949632 
L 179.855028 200.833894 
L 184.656818 200.703671 
L 189.458608 200.557187 
L 194.260398 200.392453 
L 199.062188 200.207252 
L 203.863977 199.999109 
L 208.665767 199.765273 
L 213.467557 199.502683 
L 218.269347 199.207947 
L 223.071136 198.87731 
L 227.872926 198.506626 
L 232.674716 198.091335 
L 237.476506 197.626433 
L 242.278295 197.106456 
L 247.080085 196.525461 
L 251.881875 195.877019 
L 256.683665 195.154222 
L 261.485455 194.349697 
L 266.287244 193.455649 
L 271.089034 192.463915 
L 275.890824 191.366059 
L 280.692614 190.153492 
L 285.494403 188.817631 
L 290.296193 187.350098 
L 295.097983 185.742963 
L 299.899773 183.98902 
L 304.701563 182.082095 
L 309.503352 180.017373 
L 314.305142 177.79172 
L 319.106932 175.403985 
L 323.908722 172.855235 
L 328.710511 170.148925 
L 333.512301 167.290948 
L 338.314091 164.289575 
L 343.115881 161.155271 
L 347.91767 157.900404 
L 352.71946 154.538875 
L 357.52125 151.085697 
L 362.32304 147.556566 
L 367.12483 143.967456 
L 371.926619 140.334248 
L 376.728409 136.672426 
L 381.530199 132.996828 
L 386.331989 129.321461 
L 391.133778 125.659366 
L 395.935568 122.022532 
L 400.737358 118.421846 
L 405.539148 114.867077 
L 410.340938 111.366881 
L 415.142727 107.928833 
L 419.944517 104.559469 
L 424.746307 101.264338 
L 429.548097 98.048067 
L 434.349886 94.914428 
L 439.151676 91.866403 
L 443.953466 88.906258 
L 448.755256 86.035607 
L 453.557045 83.255484 
L 458.358835 80.5664 
L 463.160625 77.968407 
L 467.962415 75.46115 
L 472.764205 73.043923 
L 477.565994 70.715714 
L 482.367784 68.475246 
L 487.169574 66.321021 
L 491.971364 64.251355 
L 496.773153 62.264404 
L 501.574943 60.358202 
L 506.376733 58.53068 
L 511.178523 56.779688 
L 515.980313 55.103022 
L 520.782102 53.498433 
L 525.583892 51.963648 
L 530.385682 50.496368 
L 535.187472 48.909542 
L 539.989261 47.844003 
L 544.791051 46.685784 
" clip-path="url(#pa92e1f2c6c)" style="fill: none; stroke: #d62728; stroke-linecap: square"/>
   </g>
   <g id="line2d_29">
    <path d="M 64.612074 195.464683 
L 69.413864 195.458732 
L 74.215653 195.452025 
L 79.017443 195.444466 
L 83.819233 195.435946 
L 88.621023 195.426344 
L 93.422813 195.415523 
L 98.224602 195.403327 
L 103.026392 195.389582 
L 107.828182 195.374092 
L 112.629972 195.356637 
L 117.431761 195.336967 
L 122.233551 195.314801 
L 127.035341 195.289826 
L 131.837131 195.261685 
L 136.63892 195.229979 
L 141.44071 195.194258 
L 146.2425 195.154017 
L 151.04429 195.108687 
L 155.84608 195.057629 
L 160.647869 195.000123 
L 165.449659 194.935364 
L 170.251449 194.862444 
L 175.053239 194.780347 
L 179.855028 194.687931 
L 184.656818 194.583917 
L 189.458608 194.466872 
L 194.260398 194.335192 
L 199.062188 194.187084 
L 203.863977 194.020544 
L 208.665767 193.833337 
L 213.467557 193.622973 
L 218.269347 193.38668 
L 223.071136 193.121382 
L 227.872926 192.82367 
L 232.674716 192.489775 
L 237.476506 192.11554 
L 242.278295 191.696397 
L 247.080085 191.227344 
L 251.881875 190.702924 
L 256.683665 190.117215 
L 261.485455 189.463824 
L 266.287244 188.7359 
L 271.089034 187.926152 
L 275.890824 187.026896 
L 280.692614 186.030121 
L 285.494403 184.927588 
L 290.296193 183.710955 
L 295.097983 182.371947 
L 299.899773 180.902564 
L 304.701563 179.29532 
L 309.503352 177.543526 
L 314.305142 175.641598 
L 319.106932 173.58537 
L 323.908722 171.372403 
L 328.710511 169.002265 
L 333.512301 166.476745 
L 338.314091 163.79998 
L 343.115881 160.97848 
L 347.91767 158.021034 
L 352.71946 154.938496 
L 357.52125 151.743476 
L 362.32304 148.449962 
L 367.12483 145.072902 
L 371.926619 141.627781 
L 376.728409 138.130234 
L 381.530199 134.595694 
L 386.331989 131.039113 
L 391.133778 127.474735 
L 395.935568 123.915926 
L 400.737358 120.375064 
L 405.539148 116.863465 
L 410.340938 113.391346 
L 415.142727 109.967823 
L 419.944517 106.600924 
L 424.746307 103.297628 
L 429.548097 100.063909 
L 434.349886 96.904797 
L 439.151676 93.824438 
L 443.953466 90.826168 
L 448.755256 87.912575 
L 453.557045 85.08557 
L 458.358835 82.346456 
L 463.160625 79.695989 
L 467.962415 77.13444 
L 472.764205 74.661655 
L 477.565994 72.277104 
L 482.367784 69.979931 
L 487.169574 67.769003 
L 491.971364 65.642947 
L 496.773153 63.600187 
L 501.574943 61.638979 
L 506.376733 59.757443 
L 511.178523 57.953586 
L 515.980313 56.225327 
L 520.782102 54.57052 
L 525.583892 52.986955 
L 530.385682 51.483905 
L 535.187472 50.143635 
L 539.989261 48.899023 
L 544.791051 47.811359 
" clip-path="url(#pa92e1f2c6c)" style="fill: none; stroke: #9467bd; stroke-linecap: square"/>
   </g>
   <g id="line2d_30">
    <path d="M 64.612074 186.000652 
L 69.413864 185.996303 
L 74.215653 185.991402 
L 79.017443 185.985878 
L 83.819233 185.979652 
L 88.621023 185.972635 
L 93.422813 185.964726 
L 98.224602 185.955813 
L 103.026392 185.945767 
L 107.828182 185.934445 
L 112.629972 185.921686 
L 117.431761 185.907306 
L 122.233551 185.891102 
L 127.035341 185.872842 
L 131.837131 185.852266 
L 136.63892 185.82908 
L 141.44071 185.802956 
L 146.2425 185.773522 
L 151.04429 185.740361 
L 155.84608 185.703004 
L 160.647869 185.660922 
L 165.449659 185.613521 
L 170.251449 185.560135 
L 175.053239 185.500014 
L 179.855028 185.432316 
L 184.656818 185.356096 
L 189.458608 185.270296 
L 194.260398 185.173725 
L 199.062188 185.065054 
L 203.863977 184.942793 
L 208.665767 184.805274 
L 213.467557 184.650636 
L 218.269347 184.476803 
L 223.071136 184.281458 
L 227.872926 184.062025 
L 232.674716 183.815644 
L 237.476506 183.539142 
L 242.278295 183.229012 
L 247.080085 182.881384 
L 251.881875 182.492004 
L 256.683665 182.056207 
L 261.485455 181.568903 
L 266.287244 181.024564 
L 271.089034 180.417215 
L 275.890824 179.740442 
L 280.692614 178.987409 
L 285.494403 178.150897 
L 290.296193 177.223362 
L 295.097983 176.197015 
L 299.899773 175.063944 
L 304.701563 173.816256 
L 309.503352 172.446265 
L 314.305142 170.946716 
L 319.106932 169.31104 
L 323.908722 167.533637 
L 328.710511 165.610176 
L 333.512301 163.537897 
L 338.314091 161.315878 
L 343.115881 158.945267 
L 347.91767 156.429433 
L 352.71946 153.774018 
L 357.52125 150.986884 
L 362.32304 148.077948 
L 367.12483 145.058914 
L 371.926619 141.94292 
L 376.728409 138.74415 
L 381.530199 135.477418 
L 386.331989 132.157779 
L 391.133778 128.800177 
L 395.935568 125.419146 
L 400.737358 122.028571 
L 405.539148 118.641516 
L 410.340938 115.270097 
L 415.142727 111.9254 
L 419.944517 108.617448 
L 424.746307 105.355186 
L 429.548097 102.146494 
L 434.349886 98.998227 
L 439.151676 95.916253 
L 443.953466 92.905514 
L 448.755256 89.970087 
L 453.557045 87.113251 
L 458.358835 84.337553 
L 463.160625 81.644876 
L 467.962415 79.036506 
L 472.764205 76.513193 
L 477.565994 74.075214 
L 482.367784 71.722426 
L 487.169574 69.454319 
L 491.971364 67.270069 
L 496.773153 65.168574 
L 501.574943 63.148501 
L 506.376733 61.208322 
L 511.178523 59.346343 
L 515.980313 57.560726 
L 520.782102 55.849662 
L 525.583892 54.180829 
L 530.385682 52.77376 
L 535.187472 51.440007 
L 539.989261 50.269257 
" clip-path="url(#pa92e1f2c6c)" style="fill: none; stroke: #8c564b; stroke-linecap: square"/>
   </g>
   <g id="line2d_31">
    <path d="M 64.612074 168.923041 
L 69.413864 168.920452 
L 74.215653 168.917534 
L 79.017443 168.914246 
L 83.819233 168.910539 
L 88.621023 168.90636 
L 93.422813 168.901651 
L 98.224602 168.896343 
L 103.026392 168.890361 
L 107.828182 168.883618 
L 112.629972 168.876019 
L 117.431761 168.867455 
L 122.233551 168.857803 
L 127.035341 168.846925 
L 131.837131 168.834666 
L 136.63892 168.820851 
L 141.44071 168.805283 
L 146.2425 168.78774 
L 151.04429 168.767973 
L 155.84608 168.7457 
L 160.647869 168.720605 
L 165.449659 168.692332 
L 170.251449 168.66048 
L 175.053239 168.6246 
L 179.855028 168.584184 
L 184.656818 168.538663 
L 189.458608 168.487399 
L 194.260398 168.429672 
L 199.062188 168.364676 
L 203.863977 168.291508 
L 208.665767 168.209152 
L 213.467557 168.116472 
L 218.269347 168.012195 
L 223.071136 167.894899 
L 227.872926 167.762992 
L 232.674716 167.614698 
L 237.476506 167.448037 
L 242.278295 167.260806 
L 247.080085 167.050555 
L 251.881875 166.814568 
L 256.683665 166.549836 
L 261.485455 166.253041 
L 266.287244 165.920525 
L 271.089034 165.548278 
L 275.890824 165.131915 
L 280.692614 164.666662 
L 285.494403 164.14735 
L 290.296193 163.568413 
L 295.097983 162.9239 
L 299.899773 162.207499 
L 304.701563 161.412576 
L 309.503352 160.532241 
L 314.305142 159.559432 
L 319.106932 158.487034 
L 323.908722 157.308018 
L 328.710511 156.015629 
L 333.512301 154.603587 
L 338.314091 153.066332 
L 343.115881 151.39928 
L 347.91767 149.599094 
L 352.71946 147.663941 
L 357.52125 145.593727 
L 362.32304 143.390285 
L 367.12483 141.057478 
L 371.926619 138.601231 
L 376.728409 136.029445 
L 381.530199 133.351829 
L 386.331989 130.579626 
L 391.133778 127.725286 
L 395.935568 124.802096 
L 400.737358 121.8238 
L 405.539148 118.804243 
L 410.340938 115.757054 
L 415.142727 112.695381 
L 419.944517 109.63169 
L 424.746307 106.577612 
L 429.548097 103.543846 
L 434.349886 100.540098 
L 439.151676 97.575068 
L 443.953466 94.656443 
L 448.755256 91.790931 
L 453.557045 88.984298 
L 458.358835 86.241416 
L 463.160625 83.566328 
L 467.962415 80.962304 
L 472.764205 78.431908 
L 477.565994 75.977062 
L 482.367784 73.59911 
L 487.169574 71.298877 
L 491.971364 69.076727 
L 496.773153 66.932621 
L 501.574943 64.866161 
L 506.376733 62.876644 
L 511.178523 60.963044 
L 515.980313 59.131381 
L 520.782102 57.518419 
L 525.583892 55.447949 
L 530.385682 53.371111 
L 535.187472 52.513042 
" clip-path="url(#pa92e1f2c6c)" style="fill: none; stroke: #e377c2; stroke-linecap: square"/>
   </g>
   <g id="patch_3">
    <path d="M 40.603125 250.44375 
L 40.603125 22.32 
" style="fill: none; stroke: #000000; stroke-width: 0.8; stroke-linejoin: miter; stroke-linecap: square"/>
   </g>
   <g id="patch_4">
    <path d="M 568.8 250.44375 
L 568.8 22.32 
" style="fill: none; stroke: #000000; stroke-width: 0.8; stroke-linejoin: miter; stroke-linecap: square"/>
   </g>
   <g id="patch_5">
    <path d="M 40.603125 250.44375 
L 568.8 250.44375 
" style="fill: none; stroke: #000000; stroke-width: 0.8; stroke-linejoin: miter; stroke-linecap: square"/>
   </g>
   <g id="patch_6">
    <path d="M 40.603125 22.32 
L 568.8 22.32 
" style="fill: none; stroke: #000000; stroke-width: 0.8; stroke-linejoin: miter; stroke-linecap: square"/>
   </g>
   <g id="text_15">
    <!-- Non-coherent gain for $N_{nc} = 10$ -->
    <g transform="translate(212.241563 16.32) scale(0.12 -0.12)">
     <defs>
      <path id="DejaVuSans-66" d="M 2375 4863 
L 2375 4384 
L 1825 4384 
Q 1516 4384 1395 4259 
Q 1275 4134 1275 3809 
L 1275 3500 
L 2222 3500 
L 2222 3053 
L 1275 3053 
L 1275 0 
L 697 0 
L 697 3053 
L 147 3053 
L 147 3500 
L 697 3500 
L 697 3744 
Q 697 4328 969 4595 
Q 1241 4863 1831 4863 
L 2375 4863 
z
" transform="scale(0.015625)"/>
      <path id="DejaVuSans-Oblique-4e" d="M 1081 4666 
L 1931 4666 
L 3219 666 
L 4000 4666 
L 4616 4666 
L 3706 0 
L 2853 0 
L 1569 4025 
L 788 0 
L 172 0 
L 1081 4666 
z
" transform="scale(0.015625)"/>
      <path id="DejaVuSans-Oblique-6e" d="M 3566 2113 
L 3156 0 
L 2578 0 
L 2988 2091 
Q 3016 2238 3031 2350 
Q 3047 2463 3047 2528 
Q 3047 2791 2881 2937 
Q 2716 3084 2419 3084 
Q 1956 3084 1622 2776 
Q 1288 2469 1184 1941 
L 800 0 
L 225 0 
L 903 3500 
L 1478 3500 
L 1363 2950 
Q 1603 3253 1940 3418 
Q 2278 3584 2650 3584 
Q 3113 3584 3367 3334 
Q 3622 3084 3622 2631 
Q 3622 2519 3608 2391 
Q 3594 2263 3566 2113 
z
" transform="scale(0.015625)"/>
      <path id="DejaVuSans-Oblique-63" d="M 3431 3366 
L 3316 2797 
Q 3109 2947 2876 3022 
Q 2644 3097 2394 3097 
Q 2119 3097 1870 3000 
Q 1622 2903 1453 2725 
Q 1184 2453 1037 2087 
Q 891 1722 891 1331 
Q 891 859 1127 628 
Q 1363 397 1844 397 
Q 2081 397 2348 469 
Q 2616 541 2906 684 
L 2797 116 
Q 2547 13 2283 -39 
Q 2019 -91 1741 -91 
Q 1044 -91 669 257 
Q 294 606 294 1253 
Q 294 1797 489 2255 
Q 684 2713 1069 3078 
Q 1331 3328 1684 3456 
Q 2038 3584 2456 3584 
Q 2700 3584 2940 3529 
Q 3181 3475 3431 3366 
z
" transform="scale(0.015625)"/>
      <path id="DejaVuSans-3d" d="M 678 2906 
L 4684 2906 
L 4684 2381 
L 678 2381 
L 678 2906 
z
M 678 1631 
L 4684 1631 
L 4684 1100 
L 678 1100 
L 678 1631 
z
" transform="scale(0.015625)"/>
     </defs>
     <use xlink:href="#DejaVuSans-4e" transform="translate(0 0.015625)"/>
     <use xlink:href="#DejaVuSans-6f" transform="translate(74.804688 0.015625)"/>
     <use xlink:href="#DejaVuSans-6e" transform="translate(135.986328 0.015625)"/>
     <use xlink:href="#DejaVuSans-2d" transform="translate(199.365234 0.015625)"/>
     <use xlink:href="#DejaVuSans-63" transform="translate(235.449219 0.015625)"/>
     <use xlink:href="#DejaVuSans-6f" transform="translate(290.429688 0.015625)"/>
     <use xlink:href="#DejaVuSans-68" transform="translate(351.611328 0.015625)"/>
     <use xlink:href="#DejaVuSans-65" transform="translate(414.990234 0.015625)"/>
     <use xlink:href="#DejaVuSans-72" transform="translate(476.513672 0.015625)"/>
     <use xlink:href="#DejaVuSans-65" transform="translate(517.626953 0.015625)"/>
     <use xlink:href="#DejaVuSans-6e" transform="translate(579.150391 0.015625)"/>
     <use xlink:href="#DejaVuSans-74" transform="translate(642.529297 0.015625)"/>
     <use xlink:href="#DejaVuSans-20" transform="translate(681.738281 0.015625)"/>
     <use xlink:href="#DejaVuSans-67" transform="translate(713.525391 0.015625)"/>
     <use xlink:href="#DejaVuSans-61" transform="translate(777.001953 0.015625)"/>
     <use xlink:href="#DejaVuSans-69" transform="translate(838.28125 0.015625)"/>
     <use xlink:href="#DejaVuSans-6e" transform="translate(866.064453 0.015625)"/>
     <use xlink:href="#DejaVuSans-20" transform="translate(929.443359 0.015625)"/>
     <use xlink:href="#DejaVuSans-66" transform="translate(961.230469 0.015625)"/>
     <use xlink:href="#DejaVuSans-6f" transform="translate(996.435547 0.015625)"/>
     <use xlink:href="#DejaVuSans-72" transform="translate(1057.617188 0.015625)"/>
     <use xlink:href="#DejaVuSans-20" transform="translate(1098.730469 0.015625)"/>
     <use xlink:href="#DejaVuSans-Oblique-4e" transform="translate(1130.517578 0.015625)"/>
     <use xlink:href="#DejaVuSans-Oblique-6e" transform="translate(1205.322266 -16.390625) scale(0.7)"/>
     <use xlink:href="#DejaVuSans-Oblique-63" transform="translate(1249.6875 -16.390625) scale(0.7)"/>
     <use xlink:href="#DejaVuSans-3d" transform="translate(1310.390625 0.015625)"/>
     <use xlink:href="#DejaVuSans-31" transform="translate(1413.662109 0.015625)"/>
     <use xlink:href="#DejaVuSans-30" transform="translate(1477.285156 0.015625)"/>
    </g>
   </g>
   <g id="legend_1">
    <g id="patch_7">
     <path d="M 47.603125 147.745 
L 108.451563 147.745 
Q 110.451563 147.745 110.451563 145.745 
L 110.451563 29.32 
Q 110.451563 27.32 108.451563 27.32 
L 47.603125 27.32 
Q 45.603125 27.32 45.603125 29.32 
L 45.603125 145.745 
Q 45.603125 147.745 47.603125 147.745 
z
" style="fill: #ffffff; opacity: 0.8; stroke: #cccccc; stroke-linejoin: miter"/>
    </g>
    <g id="text_16">
     <!-- $P_{fa}$ -->
     <g transform="translate(71.477344 38.918437) scale(0.1 -0.1)">
      <defs>
       <path id="DejaVuSans-Oblique-50" d="M 1081 4666 
L 2541 4666 
Q 3178 4666 3512 4369 
Q 3847 4072 3847 3500 
Q 3847 2731 3353 2303 
Q 2859 1875 1966 1875 
L 1172 1875 
L 806 0 
L 172 0 
L 1081 4666 
z
M 1613 4147 
L 1275 2394 
L 2069 2394 
Q 2606 2394 2893 2669 
Q 3181 2944 3181 3456 
Q 3181 3784 2986 3965 
Q 2791 4147 2438 4147 
L 1613 4147 
z
" transform="scale(0.015625)"/>
       <path id="DejaVuSans-Oblique-66" d="M 3059 4863 
L 2969 4384 
L 2419 4384 
Q 2106 4384 1964 4261 
Q 1822 4138 1753 3809 
L 1691 3500 
L 2638 3500 
L 2553 3053 
L 1606 3053 
L 1013 0 
L 434 0 
L 1031 3053 
L 481 3053 
L 563 3500 
L 1113 3500 
L 1159 3744 
Q 1278 4363 1576 4613 
Q 1875 4863 2516 4863 
L 3059 4863 
z
" transform="scale(0.015625)"/>
       <path id="DejaVuSans-Oblique-61" d="M 3438 1997 
L 3047 0 
L 2472 0 
L 2578 531 
Q 2325 219 2001 64 
Q 1678 -91 1281 -91 
Q 834 -91 548 182 
Q 263 456 263 884 
Q 263 1497 752 1853 
Q 1241 2209 2100 2209 
L 2900 2209 
L 2931 2363 
Q 2938 2388 2941 2417 
Q 2944 2447 2944 2509 
Q 2944 2788 2717 2942 
Q 2491 3097 2081 3097 
Q 1800 3097 1504 3025 
Q 1209 2953 897 2809 
L 997 3341 
Q 1322 3463 1633 3523 
Q 1944 3584 2234 3584 
Q 2853 3584 3176 3315 
Q 3500 3047 3500 2534 
Q 3500 2431 3484 2292 
Q 3469 2153 3438 1997 
z
M 2816 1759 
L 2241 1759 
Q 1534 1759 1195 1570 
Q 856 1381 856 984 
Q 856 709 1029 553 
Q 1203 397 1509 397 
Q 1978 397 2328 733 
Q 2678 1069 2791 1631 
L 2816 1759 
z
" transform="scale(0.015625)"/>
      </defs>
      <use xlink:href="#DejaVuSans-Oblique-50" transform="translate(0 0.09375)"/>
      <use xlink:href="#DejaVuSans-Oblique-66" transform="translate(60.302734 -16.3125) scale(0.7)"/>
      <use xlink:href="#DejaVuSans-Oblique-61" transform="translate(84.946289 -16.3125) scale(0.7)"/>
     </g>
    </g>
    <g id="line2d_32">
     <path d="M 49.603125 50.096563 
L 59.603125 50.096563 
L 69.603125 50.096563 
" style="fill: none; stroke: #1f77b4; stroke-linecap: square"/>
    </g>
    <g id="text_17">
     <!-- 1e-14 -->
     <g transform="translate(77.603125 53.596563) scale(0.1 -0.1)">
      <use xlink:href="#DejaVuSans-31"/>
      <use xlink:href="#DejaVuSans-65" transform="translate(63.623047 0)"/>
      <use xlink:href="#DejaVuSans-2d" transform="translate(125.146484 0)"/>
      <use xlink:href="#DejaVuSans-31" transform="translate(161.230469 0)"/>
      <use xlink:href="#DejaVuSans-34" transform="translate(224.853516 0)"/>
     </g>
    </g>
    <g id="line2d_33">
     <path d="M 49.603125 64.774688 
L 59.603125 64.774688 
L 69.603125 64.774688 
" style="fill: none; stroke: #ff7f0e; stroke-linecap: square"/>
    </g>
    <g id="text_18">
     <!-- 1e-12 -->
     <g transform="translate(77.603125 68.274688) scale(0.1 -0.1)">
      <use xlink:href="#DejaVuSans-31"/>
      <use xlink:href="#DejaVuSans-65" transform="translate(63.623047 0)"/>
      <use xlink:href="#DejaVuSans-2d" transform="translate(125.146484 0)"/>
      <use xlink:href="#DejaVuSans-31" transform="translate(161.230469 0)"/>
      <use xlink:href="#DejaVuSans-32" transform="translate(224.853516 0)"/>
     </g>
    </g>
    <g id="line2d_34">
     <path d="M 49.603125 79.452812 
L 59.603125 79.452812 
L 69.603125 79.452812 
" style="fill: none; stroke: #2ca02c; stroke-linecap: square"/>
    </g>
    <g id="text_19">
     <!-- 1e-10 -->
     <g transform="translate(77.603125 82.952812) scale(0.1 -0.1)">
      <use xlink:href="#DejaVuSans-31"/>
      <use xlink:href="#DejaVuSans-65" transform="translate(63.623047 0)"/>
      <use xlink:href="#DejaVuSans-2d" transform="translate(125.146484 0)"/>
      <use xlink:href="#DejaVuSans-31" transform="translate(161.230469 0)"/>
      <use xlink:href="#DejaVuSans-30" transform="translate(224.853516 0)"/>
     </g>
    </g>
    <g id="line2d_35">
     <path d="M 49.603125 94.130938 
L 59.603125 94.130938 
L 69.603125 94.130938 
" style="fill: none; stroke: #d62728; stroke-linecap: square"/>
    </g>
    <g id="text_20">
     <!-- 1e-08 -->
     <g transform="translate(77.603125 97.630938) scale(0.1 -0.1)">
      <use xlink:href="#DejaVuSans-31"/>
      <use xlink:href="#DejaVuSans-65" transform="translate(63.623047 0)"/>
      <use xlink:href="#DejaVuSans-2d" transform="translate(125.146484 0)"/>
      <use xlink:href="#DejaVuSans-30" transform="translate(161.230469 0)"/>
      <use xlink:href="#DejaVuSans-38" transform="translate(224.853516 0)"/>
     </g>
    </g>
    <g id="line2d_36">
     <path d="M 49.603125 108.809063 
L 59.603125 108.809063 
L 69.603125 108.809063 
" style="fill: none; stroke: #9467bd; stroke-linecap: square"/>
    </g>
    <g id="text_21">
     <!-- 1e-06 -->
     <g transform="translate(77.603125 112.309063) scale(0.1 -0.1)">
      <use xlink:href="#DejaVuSans-31"/>
      <use xlink:href="#DejaVuSans-65" transform="translate(63.623047 0)"/>
      <use xlink:href="#DejaVuSans-2d" transform="translate(125.146484 0)"/>
      <use xlink:href="#DejaVuSans-30" transform="translate(161.230469 0)"/>
      <use xlink:href="#DejaVuSans-36" transform="translate(224.853516 0)"/>
     </g>
    </g>
    <g id="line2d_37">
     <path d="M 49.603125 123.487188 
L 59.603125 123.487188 
L 69.603125 123.487188 
" style="fill: none; stroke: #8c564b; stroke-linecap: square"/>
    </g>
    <g id="text_22">
     <!-- 1e-04 -->
     <g transform="translate(77.603125 126.987188) scale(0.1 -0.1)">
      <use xlink:href="#DejaVuSans-31"/>
      <use xlink:href="#DejaVuSans-65" transform="translate(63.623047 0)"/>
      <use xlink:href="#DejaVuSans-2d" transform="translate(125.146484 0)"/>
      <use xlink:href="#DejaVuSans-30" transform="translate(161.230469 0)"/>
      <use xlink:href="#DejaVuSans-34" transform="translate(224.853516 0)"/>
     </g>
    </g>
    <g id="line2d_38">
     <path d="M 49.603125 138.165312 
L 59.603125 138.165312 
L 69.603125 138.165312 
" style="fill: none; stroke: #e377c2; stroke-linecap: square"/>
    </g>
    <g id="text_23">
     <!-- 1e-02 -->
     <g transform="translate(77.603125 141.665312) scale(0.1 -0.1)">
      <use xlink:href="#DejaVuSans-31"/>
      <use xlink:href="#DejaVuSans-65" transform="translate(63.623047 0)"/>
      <use xlink:href="#DejaVuSans-2d" transform="translate(125.146484 0)"/>
      <use xlink:href="#DejaVuSans-30" transform="translate(161.230469 0)"/>
      <use xlink:href="#DejaVuSans-32" transform="translate(224.853516 0)"/>
     </g>
    </g>
   </g>
  </g>
 </g>
 <defs>
  <clipPath id="pa92e1f2c6c">
   <rect x="40.603125" y="22.32" width="528.196875" height="228.12375"/>
  </clipPath>
 </defs>
</svg>
