<?xml version="1.0" encoding="utf-8" standalone="no"?>
<!DOCTYPE svg PUBLIC "-//W3C//DTD SVG 1.1//EN"
  "http://www.w3.org/Graphics/SVG/1.1/DTD/svg11.dtd">
<svg xmlns:xlink="http://www.w3.org/1999/xlink" width="576pt" height="288pt" viewBox="0 0 576 288" xmlns="http://www.w3.org/2000/svg" version="1.1">
 <metadata>
  <rdf:RDF xmlns:dc="http://purl.org/dc/elements/1.1/" xmlns:cc="http://creativecommons.org/ns#" xmlns:rdf="http://www.w3.org/1999/02/22-rdf-syntax-ns#">
   <cc:Work>
    <dc:type rdf:resource="http://purl.org/dc/dcmitype/StillImage"/>
    <dc:date>2025-05-10T16:34:52.900559</dc:date>
    <dc:format>image/svg+xml</dc:format>
    <dc:creator>
     <cc:Agent>
      <dc:title>Matplotlib v3.10.3, https://matplotlib.org/</dc:title>
     </cc:Agent>
    </dc:creator>
   </cc:Work>
  </rdf:RDF>
 </metadata>
 <defs>
  <style type="text/css">*{stroke-linejoin: round; stroke-linecap: butt}</style>
 </defs>
 <g id="figure_1">
  <g id="patch_1">
   <path d="M 0 288 
L 576 288 
L 576 0 
L 0 0 
z
" style="fill: #ffffff"/>
  </g>
  <g id="axes_1">
   <g id="patch_2">
    <path d="M 48.982813 250.421875 
L 568.8 250.421875 
L 568.8 22.32 
L 48.982813 22.32 
z
" style="fill: #ffffff"/>
   </g>
   <g id="matplotlib.axis_1">
    <g id="xtick_1">
     <g id="line2d_1">
      <path d="M 72.610866 250.421875 
L 72.610866 22.32 
" clip-path="url(#pe91304ed41)" style="fill: none; stroke-dasharray: 2.96,1.28; stroke-dashoffset: 0; stroke: #b0b0b0; stroke-opacity: 0.8; stroke-width: 0.8"/>
     </g>
     <g id="line2d_2">
      <defs>
       <path id="m3cbb9ec9c4" d="M 0 0 
L 0 3.5 
" style="stroke: #000000; stroke-width: 0.8"/>
      </defs>
      <g>
       <use xlink:href="#m3cbb9ec9c4" x="72.610866" y="250.421875" style="stroke: #000000; stroke-width: 0.8"/>
      </g>
     </g>
     <g id="text_1">
      <!-- 0 -->
      <g transform="translate(69.429616 265.020312) scale(0.1 -0.1)">
       <defs>
        <path id="DejaVuSans-30" d="M 2034 4250 
Q 1547 4250 1301 3770 
Q 1056 3291 1056 2328 
Q 1056 1369 1301 889 
Q 1547 409 2034 409 
Q 2525 409 2770 889 
Q 3016 1369 3016 2328 
Q 3016 3291 2770 3770 
Q 2525 4250 2034 4250 
z
M 2034 4750 
Q 2819 4750 3233 4129 
Q 3647 3509 3647 2328 
Q 3647 1150 3233 529 
Q 2819 -91 2034 -91 
Q 1250 -91 836 529 
Q 422 1150 422 2328 
Q 422 3509 836 4129 
Q 1250 4750 2034 4750 
z
" transform="scale(0.015625)"/>
       </defs>
       <use xlink:href="#DejaVuSans-30"/>
      </g>
     </g>
    </g>
    <g id="xtick_2">
     <g id="line2d_3">
      <path d="M 167.123082 250.421875 
L 167.123082 22.32 
" clip-path="url(#pe91304ed41)" style="fill: none; stroke-dasharray: 2.96,1.28; stroke-dashoffset: 0; stroke: #b0b0b0; stroke-opacity: 0.8; stroke-width: 0.8"/>
     </g>
     <g id="line2d_4">
      <g>
       <use xlink:href="#m3cbb9ec9c4" x="167.123082" y="250.421875" style="stroke: #000000; stroke-width: 0.8"/>
      </g>
     </g>
     <g id="text_2">
      <!-- 100 -->
      <g transform="translate(157.579332 265.020312) scale(0.1 -0.1)">
       <defs>
        <path id="DejaVuSans-31" d="M 794 531 
L 1825 531 
L 1825 4091 
L 703 3866 
L 703 4441 
L 1819 4666 
L 2450 4666 
L 2450 531 
L 3481 531 
L 3481 0 
L 794 0 
L 794 531 
z
" transform="scale(0.015625)"/>
       </defs>
       <use xlink:href="#DejaVuSans-31"/>
       <use xlink:href="#DejaVuSans-30" transform="translate(63.623047 0)"/>
       <use xlink:href="#DejaVuSans-30" transform="translate(127.246094 0)"/>
      </g>
     </g>
    </g>
    <g id="xtick_3">
     <g id="line2d_5">
      <path d="M 261.635298 250.421875 
L 261.635298 22.32 
" clip-path="url(#pe91304ed41)" style="fill: none; stroke-dasharray: 2.96,1.28; stroke-dashoffset: 0; stroke: #b0b0b0; stroke-opacity: 0.8; stroke-width: 0.8"/>
     </g>
     <g id="line2d_6">
      <g>
       <use xlink:href="#m3cbb9ec9c4" x="261.635298" y="250.421875" style="stroke: #000000; stroke-width: 0.8"/>
      </g>
     </g>
     <g id="text_3">
      <!-- 200 -->
      <g transform="translate(252.091548 265.020312) scale(0.1 -0.1)">
       <defs>
        <path id="DejaVuSans-32" d="M 1228 531 
L 3431 531 
L 3431 0 
L 469 0 
L 469 531 
Q 828 903 1448 1529 
Q 2069 2156 2228 2338 
Q 2531 2678 2651 2914 
Q 2772 3150 2772 3378 
Q 2772 3750 2511 3984 
Q 2250 4219 1831 4219 
Q 1534 4219 1204 4116 
Q 875 4013 500 3803 
L 500 4441 
Q 881 4594 1212 4672 
Q 1544 4750 1819 4750 
Q 2544 4750 2975 4387 
Q 3406 4025 3406 3419 
Q 3406 3131 3298 2873 
Q 3191 2616 2906 2266 
Q 2828 2175 2409 1742 
Q 1991 1309 1228 531 
z
" transform="scale(0.015625)"/>
       </defs>
       <use xlink:href="#DejaVuSans-32"/>
       <use xlink:href="#DejaVuSans-30" transform="translate(63.623047 0)"/>
       <use xlink:href="#DejaVuSans-30" transform="translate(127.246094 0)"/>
      </g>
     </g>
    </g>
    <g id="xtick_4">
     <g id="line2d_7">
      <path d="M 356.147514 250.421875 
L 356.147514 22.32 
" clip-path="url(#pe91304ed41)" style="fill: none; stroke-dasharray: 2.96,1.28; stroke-dashoffset: 0; stroke: #b0b0b0; stroke-opacity: 0.8; stroke-width: 0.8"/>
     </g>
     <g id="line2d_8">
      <g>
       <use xlink:href="#m3cbb9ec9c4" x="356.147514" y="250.421875" style="stroke: #000000; stroke-width: 0.8"/>
      </g>
     </g>
     <g id="text_4">
      <!-- 300 -->
      <g transform="translate(346.603764 265.020312) scale(0.1 -0.1)">
       <defs>
        <path id="DejaVuSans-33" d="M 2597 2516 
Q 3050 2419 3304 2112 
Q 3559 1806 3559 1356 
Q 3559 666 3084 287 
Q 2609 -91 1734 -91 
Q 1441 -91 1130 -33 
Q 819 25 488 141 
L 488 750 
Q 750 597 1062 519 
Q 1375 441 1716 441 
Q 2309 441 2620 675 
Q 2931 909 2931 1356 
Q 2931 1769 2642 2001 
Q 2353 2234 1838 2234 
L 1294 2234 
L 1294 2753 
L 1863 2753 
Q 2328 2753 2575 2939 
Q 2822 3125 2822 3475 
Q 2822 3834 2567 4026 
Q 2313 4219 1838 4219 
Q 1578 4219 1281 4162 
Q 984 4106 628 3988 
L 628 4550 
Q 988 4650 1302 4700 
Q 1616 4750 1894 4750 
Q 2613 4750 3031 4423 
Q 3450 4097 3450 3541 
Q 3450 3153 3228 2886 
Q 3006 2619 2597 2516 
z
" transform="scale(0.015625)"/>
       </defs>
       <use xlink:href="#DejaVuSans-33"/>
       <use xlink:href="#DejaVuSans-30" transform="translate(63.623047 0)"/>
       <use xlink:href="#DejaVuSans-30" transform="translate(127.246094 0)"/>
      </g>
     </g>
    </g>
    <g id="xtick_5">
     <g id="line2d_9">
      <path d="M 450.65973 250.421875 
L 450.65973 22.32 
" clip-path="url(#pe91304ed41)" style="fill: none; stroke-dasharray: 2.96,1.28; stroke-dashoffset: 0; stroke: #b0b0b0; stroke-opacity: 0.8; stroke-width: 0.8"/>
     </g>
     <g id="line2d_10">
      <g>
       <use xlink:href="#m3cbb9ec9c4" x="450.65973" y="250.421875" style="stroke: #000000; stroke-width: 0.8"/>
      </g>
     </g>
     <g id="text_5">
      <!-- 400 -->
      <g transform="translate(441.11598 265.020312) scale(0.1 -0.1)">
       <defs>
        <path id="DejaVuSans-34" d="M 2419 4116 
L 825 1625 
L 2419 1625 
L 2419 4116 
z
M 2253 4666 
L 3047 4666 
L 3047 1625 
L 3713 1625 
L 3713 1100 
L 3047 1100 
L 3047 0 
L 2419 0 
L 2419 1100 
L 313 1100 
L 313 1709 
L 2253 4666 
z
" transform="scale(0.015625)"/>
       </defs>
       <use xlink:href="#DejaVuSans-34"/>
       <use xlink:href="#DejaVuSans-30" transform="translate(63.623047 0)"/>
       <use xlink:href="#DejaVuSans-30" transform="translate(127.246094 0)"/>
      </g>
     </g>
    </g>
    <g id="xtick_6">
     <g id="line2d_11">
      <path d="M 545.171946 250.421875 
L 545.171946 22.32 
" clip-path="url(#pe91304ed41)" style="fill: none; stroke-dasharray: 2.96,1.28; stroke-dashoffset: 0; stroke: #b0b0b0; stroke-opacity: 0.8; stroke-width: 0.8"/>
     </g>
     <g id="line2d_12">
      <g>
       <use xlink:href="#m3cbb9ec9c4" x="545.171946" y="250.421875" style="stroke: #000000; stroke-width: 0.8"/>
      </g>
     </g>
     <g id="text_6">
      <!-- 500 -->
      <g transform="translate(535.628196 265.020312) scale(0.1 -0.1)">
       <defs>
        <path id="DejaVuSans-35" d="M 691 4666 
L 3169 4666 
L 3169 4134 
L 1269 4134 
L 1269 2991 
Q 1406 3038 1543 3061 
Q 1681 3084 1819 3084 
Q 2600 3084 3056 2656 
Q 3513 2228 3513 1497 
Q 3513 744 3044 326 
Q 2575 -91 1722 -91 
Q 1428 -91 1123 -41 
Q 819 9 494 109 
L 494 744 
Q 775 591 1075 516 
Q 1375 441 1709 441 
Q 2250 441 2565 725 
Q 2881 1009 2881 1497 
Q 2881 1984 2565 2268 
Q 2250 2553 1709 2553 
Q 1456 2553 1204 2497 
Q 953 2441 691 2322 
L 691 4666 
z
" transform="scale(0.015625)"/>
       </defs>
       <use xlink:href="#DejaVuSans-35"/>
       <use xlink:href="#DejaVuSans-30" transform="translate(63.623047 0)"/>
       <use xlink:href="#DejaVuSans-30" transform="translate(127.246094 0)"/>
      </g>
     </g>
    </g>
    <g id="text_7">
     <!-- Frequency (Hz), $f$ -->
     <g transform="translate(265.741406 278.7) scale(0.1 -0.1)">
      <defs>
       <path id="DejaVuSans-46" d="M 628 4666 
L 3309 4666 
L 3309 4134 
L 1259 4134 
L 1259 2759 
L 3109 2759 
L 3109 2228 
L 1259 2228 
L 1259 0 
L 628 0 
L 628 4666 
z
" transform="scale(0.015625)"/>
       <path id="DejaVuSans-72" d="M 2631 2963 
Q 2534 3019 2420 3045 
Q 2306 3072 2169 3072 
Q 1681 3072 1420 2755 
Q 1159 2438 1159 1844 
L 1159 0 
L 581 0 
L 581 3500 
L 1159 3500 
L 1159 2956 
Q 1341 3275 1631 3429 
Q 1922 3584 2338 3584 
Q 2397 3584 2469 3576 
Q 2541 3569 2628 3553 
L 2631 2963 
z
" transform="scale(0.015625)"/>
       <path id="DejaVuSans-65" d="M 3597 1894 
L 3597 1613 
L 953 1613 
Q 991 1019 1311 708 
Q 1631 397 2203 397 
Q 2534 397 2845 478 
Q 3156 559 3463 722 
L 3463 178 
Q 3153 47 2828 -22 
Q 2503 -91 2169 -91 
Q 1331 -91 842 396 
Q 353 884 353 1716 
Q 353 2575 817 3079 
Q 1281 3584 2069 3584 
Q 2775 3584 3186 3129 
Q 3597 2675 3597 1894 
z
M 3022 2063 
Q 3016 2534 2758 2815 
Q 2500 3097 2075 3097 
Q 1594 3097 1305 2825 
Q 1016 2553 972 2059 
L 3022 2063 
z
" transform="scale(0.015625)"/>
       <path id="DejaVuSans-71" d="M 947 1747 
Q 947 1113 1208 752 
Q 1469 391 1925 391 
Q 2381 391 2643 752 
Q 2906 1113 2906 1747 
Q 2906 2381 2643 2742 
Q 2381 3103 1925 3103 
Q 1469 3103 1208 2742 
Q 947 2381 947 1747 
z
M 2906 525 
Q 2725 213 2448 61 
Q 2172 -91 1784 -91 
Q 1150 -91 751 415 
Q 353 922 353 1747 
Q 353 2572 751 3078 
Q 1150 3584 1784 3584 
Q 2172 3584 2448 3432 
Q 2725 3281 2906 2969 
L 2906 3500 
L 3481 3500 
L 3481 -1331 
L 2906 -1331 
L 2906 525 
z
" transform="scale(0.015625)"/>
       <path id="DejaVuSans-75" d="M 544 1381 
L 544 3500 
L 1119 3500 
L 1119 1403 
Q 1119 906 1312 657 
Q 1506 409 1894 409 
Q 2359 409 2629 706 
Q 2900 1003 2900 1516 
L 2900 3500 
L 3475 3500 
L 3475 0 
L 2900 0 
L 2900 538 
Q 2691 219 2414 64 
Q 2138 -91 1772 -91 
Q 1169 -91 856 284 
Q 544 659 544 1381 
z
M 1991 3584 
L 1991 3584 
z
" transform="scale(0.015625)"/>
       <path id="DejaVuSans-6e" d="M 3513 2113 
L 3513 0 
L 2938 0 
L 2938 2094 
Q 2938 2591 2744 2837 
Q 2550 3084 2163 3084 
Q 1697 3084 1428 2787 
Q 1159 2491 1159 1978 
L 1159 0 
L 581 0 
L 581 3500 
L 1159 3500 
L 1159 2956 
Q 1366 3272 1645 3428 
Q 1925 3584 2291 3584 
Q 2894 3584 3203 3211 
Q 3513 2838 3513 2113 
z
" transform="scale(0.015625)"/>
       <path id="DejaVuSans-63" d="M 3122 3366 
L 3122 2828 
Q 2878 2963 2633 3030 
Q 2388 3097 2138 3097 
Q 1578 3097 1268 2742 
Q 959 2388 959 1747 
Q 959 1106 1268 751 
Q 1578 397 2138 397 
Q 2388 397 2633 464 
Q 2878 531 3122 666 
L 3122 134 
Q 2881 22 2623 -34 
Q 2366 -91 2075 -91 
Q 1284 -91 818 406 
Q 353 903 353 1747 
Q 353 2603 823 3093 
Q 1294 3584 2113 3584 
Q 2378 3584 2631 3529 
Q 2884 3475 3122 3366 
z
" transform="scale(0.015625)"/>
       <path id="DejaVuSans-79" d="M 2059 -325 
Q 1816 -950 1584 -1140 
Q 1353 -1331 966 -1331 
L 506 -1331 
L 506 -850 
L 844 -850 
Q 1081 -850 1212 -737 
Q 1344 -625 1503 -206 
L 1606 56 
L 191 3500 
L 800 3500 
L 1894 763 
L 2988 3500 
L 3597 3500 
L 2059 -325 
z
" transform="scale(0.015625)"/>
       <path id="DejaVuSans-20" transform="scale(0.015625)"/>
       <path id="DejaVuSans-28" d="M 1984 4856 
Q 1566 4138 1362 3434 
Q 1159 2731 1159 2009 
Q 1159 1288 1364 580 
Q 1569 -128 1984 -844 
L 1484 -844 
Q 1016 -109 783 600 
Q 550 1309 550 2009 
Q 550 2706 781 3412 
Q 1013 4119 1484 4856 
L 1984 4856 
z
" transform="scale(0.015625)"/>
       <path id="DejaVuSans-48" d="M 628 4666 
L 1259 4666 
L 1259 2753 
L 3553 2753 
L 3553 4666 
L 4184 4666 
L 4184 0 
L 3553 0 
L 3553 2222 
L 1259 2222 
L 1259 0 
L 628 0 
L 628 4666 
z
" transform="scale(0.015625)"/>
       <path id="DejaVuSans-7a" d="M 353 3500 
L 3084 3500 
L 3084 2975 
L 922 459 
L 3084 459 
L 3084 0 
L 275 0 
L 275 525 
L 2438 3041 
L 353 3041 
L 353 3500 
z
" transform="scale(0.015625)"/>
       <path id="DejaVuSans-29" d="M 513 4856 
L 1013 4856 
Q 1481 4119 1714 3412 
Q 1947 2706 1947 2009 
Q 1947 1309 1714 600 
Q 1481 -109 1013 -844 
L 513 -844 
Q 928 -128 1133 580 
Q 1338 1288 1338 2009 
Q 1338 2731 1133 3434 
Q 928 4138 513 4856 
z
" transform="scale(0.015625)"/>
       <path id="DejaVuSans-2c" d="M 750 794 
L 1409 794 
L 1409 256 
L 897 -744 
L 494 -744 
L 750 256 
L 750 794 
z
" transform="scale(0.015625)"/>
       <path id="DejaVuSans-Oblique-66" d="M 3059 4863 
L 2969 4384 
L 2419 4384 
Q 2106 4384 1964 4261 
Q 1822 4138 1753 3809 
L 1691 3500 
L 2638 3500 
L 2553 3053 
L 1606 3053 
L 1013 0 
L 434 0 
L 1031 3053 
L 481 3053 
L 563 3500 
L 1113 3500 
L 1159 3744 
Q 1278 4363 1576 4613 
Q 1875 4863 2516 4863 
L 3059 4863 
z
" transform="scale(0.015625)"/>
      </defs>
      <use xlink:href="#DejaVuSans-46" transform="translate(0 0.015625)"/>
      <use xlink:href="#DejaVuSans-72" transform="translate(57.519531 0.015625)"/>
      <use xlink:href="#DejaVuSans-65" transform="translate(98.632812 0.015625)"/>
      <use xlink:href="#DejaVuSans-71" transform="translate(160.15625 0.015625)"/>
      <use xlink:href="#DejaVuSans-75" transform="translate(223.632812 0.015625)"/>
      <use xlink:href="#DejaVuSans-65" transform="translate(287.011719 0.015625)"/>
      <use xlink:href="#DejaVuSans-6e" transform="translate(348.535156 0.015625)"/>
      <use xlink:href="#DejaVuSans-63" transform="translate(411.914062 0.015625)"/>
      <use xlink:href="#DejaVuSans-79" transform="translate(466.894531 0.015625)"/>
      <use xlink:href="#DejaVuSans-20" transform="translate(526.074219 0.015625)"/>
      <use xlink:href="#DejaVuSans-28" transform="translate(557.861328 0.015625)"/>
      <use xlink:href="#DejaVuSans-48" transform="translate(596.875 0.015625)"/>
      <use xlink:href="#DejaVuSans-7a" transform="translate(672.070312 0.015625)"/>
      <use xlink:href="#DejaVuSans-29" transform="translate(724.560547 0.015625)"/>
      <use xlink:href="#DejaVuSans-2c" transform="translate(763.574219 0.015625)"/>
      <use xlink:href="#DejaVuSans-20" transform="translate(795.361328 0.015625)"/>
      <use xlink:href="#DejaVuSans-Oblique-66" transform="translate(827.148438 0.015625)"/>
     </g>
    </g>
   </g>
   <g id="matplotlib.axis_2">
    <g id="ytick_1">
     <g id="line2d_13">
      <path d="M 48.982813 236.104889 
L 568.8 236.104889 
" clip-path="url(#pe91304ed41)" style="fill: none; stroke-dasharray: 2.96,1.28; stroke-dashoffset: 0; stroke: #b0b0b0; stroke-opacity: 0.8; stroke-width: 0.8"/>
     </g>
     <g id="line2d_14">
      <defs>
       <path id="md7c54a684b" d="M 0 0 
L -3.5 0 
" style="stroke: #000000; stroke-width: 0.8"/>
      </defs>
      <g>
       <use xlink:href="#md7c54a684b" x="48.982813" y="236.104889" style="stroke: #000000; stroke-width: 0.8"/>
      </g>
     </g>
     <g id="text_8">
      <!-- −70 -->
      <g transform="translate(20.878125 239.904108) scale(0.1 -0.1)">
       <defs>
        <path id="DejaVuSans-2212" d="M 678 2272 
L 4684 2272 
L 4684 1741 
L 678 1741 
L 678 2272 
z
" transform="scale(0.015625)"/>
        <path id="DejaVuSans-37" d="M 525 4666 
L 3525 4666 
L 3525 4397 
L 1831 0 
L 1172 0 
L 2766 4134 
L 525 4134 
L 525 4666 
z
" transform="scale(0.015625)"/>
       </defs>
       <use xlink:href="#DejaVuSans-2212"/>
       <use xlink:href="#DejaVuSans-37" transform="translate(83.789062 0)"/>
       <use xlink:href="#DejaVuSans-30" transform="translate(147.412109 0)"/>
      </g>
     </g>
    </g>
    <g id="ytick_2">
     <g id="line2d_15">
      <path d="M 48.982813 201.809393 
L 568.8 201.809393 
" clip-path="url(#pe91304ed41)" style="fill: none; stroke-dasharray: 2.96,1.28; stroke-dashoffset: 0; stroke: #b0b0b0; stroke-opacity: 0.8; stroke-width: 0.8"/>
     </g>
     <g id="line2d_16">
      <g>
       <use xlink:href="#md7c54a684b" x="48.982813" y="201.809393" style="stroke: #000000; stroke-width: 0.8"/>
      </g>
     </g>
     <g id="text_9">
      <!-- −60 -->
      <g transform="translate(20.878125 205.608612) scale(0.1 -0.1)">
       <defs>
        <path id="DejaVuSans-36" d="M 2113 2584 
Q 1688 2584 1439 2293 
Q 1191 2003 1191 1497 
Q 1191 994 1439 701 
Q 1688 409 2113 409 
Q 2538 409 2786 701 
Q 3034 994 3034 1497 
Q 3034 2003 2786 2293 
Q 2538 2584 2113 2584 
z
M 3366 4563 
L 3366 3988 
Q 3128 4100 2886 4159 
Q 2644 4219 2406 4219 
Q 1781 4219 1451 3797 
Q 1122 3375 1075 2522 
Q 1259 2794 1537 2939 
Q 1816 3084 2150 3084 
Q 2853 3084 3261 2657 
Q 3669 2231 3669 1497 
Q 3669 778 3244 343 
Q 2819 -91 2113 -91 
Q 1303 -91 875 529 
Q 447 1150 447 2328 
Q 447 3434 972 4092 
Q 1497 4750 2381 4750 
Q 2619 4750 2861 4703 
Q 3103 4656 3366 4563 
z
" transform="scale(0.015625)"/>
       </defs>
       <use xlink:href="#DejaVuSans-2212"/>
       <use xlink:href="#DejaVuSans-36" transform="translate(83.789062 0)"/>
       <use xlink:href="#DejaVuSans-30" transform="translate(147.412109 0)"/>
      </g>
     </g>
    </g>
    <g id="ytick_3">
     <g id="line2d_17">
      <path d="M 48.982813 167.513897 
L 568.8 167.513897 
" clip-path="url(#pe91304ed41)" style="fill: none; stroke-dasharray: 2.96,1.28; stroke-dashoffset: 0; stroke: #b0b0b0; stroke-opacity: 0.8; stroke-width: 0.8"/>
     </g>
     <g id="line2d_18">
      <g>
       <use xlink:href="#md7c54a684b" x="48.982813" y="167.513897" style="stroke: #000000; stroke-width: 0.8"/>
      </g>
     </g>
     <g id="text_10">
      <!-- −50 -->
      <g transform="translate(20.878125 171.313116) scale(0.1 -0.1)">
       <use xlink:href="#DejaVuSans-2212"/>
       <use xlink:href="#DejaVuSans-35" transform="translate(83.789062 0)"/>
       <use xlink:href="#DejaVuSans-30" transform="translate(147.412109 0)"/>
      </g>
     </g>
    </g>
    <g id="ytick_4">
     <g id="line2d_19">
      <path d="M 48.982813 133.218401 
L 568.8 133.218401 
" clip-path="url(#pe91304ed41)" style="fill: none; stroke-dasharray: 2.96,1.28; stroke-dashoffset: 0; stroke: #b0b0b0; stroke-opacity: 0.8; stroke-width: 0.8"/>
     </g>
     <g id="line2d_20">
      <g>
       <use xlink:href="#md7c54a684b" x="48.982813" y="133.218401" style="stroke: #000000; stroke-width: 0.8"/>
      </g>
     </g>
     <g id="text_11">
      <!-- −40 -->
      <g transform="translate(20.878125 137.01762) scale(0.1 -0.1)">
       <use xlink:href="#DejaVuSans-2212"/>
       <use xlink:href="#DejaVuSans-34" transform="translate(83.789062 0)"/>
       <use xlink:href="#DejaVuSans-30" transform="translate(147.412109 0)"/>
      </g>
     </g>
    </g>
    <g id="ytick_5">
     <g id="line2d_21">
      <path d="M 48.982813 98.922905 
L 568.8 98.922905 
" clip-path="url(#pe91304ed41)" style="fill: none; stroke-dasharray: 2.96,1.28; stroke-dashoffset: 0; stroke: #b0b0b0; stroke-opacity: 0.8; stroke-width: 0.8"/>
     </g>
     <g id="line2d_22">
      <g>
       <use xlink:href="#md7c54a684b" x="48.982813" y="98.922905" style="stroke: #000000; stroke-width: 0.8"/>
      </g>
     </g>
     <g id="text_12">
      <!-- −30 -->
      <g transform="translate(20.878125 102.722124) scale(0.1 -0.1)">
       <use xlink:href="#DejaVuSans-2212"/>
       <use xlink:href="#DejaVuSans-33" transform="translate(83.789062 0)"/>
       <use xlink:href="#DejaVuSans-30" transform="translate(147.412109 0)"/>
      </g>
     </g>
    </g>
    <g id="ytick_6">
     <g id="line2d_23">
      <path d="M 48.982813 64.627409 
L 568.8 64.627409 
" clip-path="url(#pe91304ed41)" style="fill: none; stroke-dasharray: 2.96,1.28; stroke-dashoffset: 0; stroke: #b0b0b0; stroke-opacity: 0.8; stroke-width: 0.8"/>
     </g>
     <g id="line2d_24">
      <g>
       <use xlink:href="#md7c54a684b" x="48.982813" y="64.627409" style="stroke: #000000; stroke-width: 0.8"/>
      </g>
     </g>
     <g id="text_13">
      <!-- −20 -->
      <g transform="translate(20.878125 68.426628) scale(0.1 -0.1)">
       <use xlink:href="#DejaVuSans-2212"/>
       <use xlink:href="#DejaVuSans-32" transform="translate(83.789062 0)"/>
       <use xlink:href="#DejaVuSans-30" transform="translate(147.412109 0)"/>
      </g>
     </g>
    </g>
    <g id="ytick_7">
     <g id="line2d_25">
      <path d="M 48.982813 30.331913 
L 568.8 30.331913 
" clip-path="url(#pe91304ed41)" style="fill: none; stroke-dasharray: 2.96,1.28; stroke-dashoffset: 0; stroke: #b0b0b0; stroke-opacity: 0.8; stroke-width: 0.8"/>
     </g>
     <g id="line2d_26">
      <g>
       <use xlink:href="#md7c54a684b" x="48.982813" y="30.331913" style="stroke: #000000; stroke-width: 0.8"/>
      </g>
     </g>
     <g id="text_14">
      <!-- −10 -->
      <g transform="translate(20.878125 34.131132) scale(0.1 -0.1)">
       <use xlink:href="#DejaVuSans-2212"/>
       <use xlink:href="#DejaVuSans-31" transform="translate(83.789062 0)"/>
       <use xlink:href="#DejaVuSans-30" transform="translate(147.412109 0)"/>
      </g>
     </g>
    </g>
    <g id="text_15">
     <!-- Power density (dB/Hz) -->
     <g transform="translate(14.798437 191.570938) rotate(-90) scale(0.1 -0.1)">
      <defs>
       <path id="DejaVuSans-50" d="M 1259 4147 
L 1259 2394 
L 2053 2394 
Q 2494 2394 2734 2622 
Q 2975 2850 2975 3272 
Q 2975 3691 2734 3919 
Q 2494 4147 2053 4147 
L 1259 4147 
z
M 628 4666 
L 2053 4666 
Q 2838 4666 3239 4311 
Q 3641 3956 3641 3272 
Q 3641 2581 3239 2228 
Q 2838 1875 2053 1875 
L 1259 1875 
L 1259 0 
L 628 0 
L 628 4666 
z
" transform="scale(0.015625)"/>
       <path id="DejaVuSans-6f" d="M 1959 3097 
Q 1497 3097 1228 2736 
Q 959 2375 959 1747 
Q 959 1119 1226 758 
Q 1494 397 1959 397 
Q 2419 397 2687 759 
Q 2956 1122 2956 1747 
Q 2956 2369 2687 2733 
Q 2419 3097 1959 3097 
z
M 1959 3584 
Q 2709 3584 3137 3096 
Q 3566 2609 3566 1747 
Q 3566 888 3137 398 
Q 2709 -91 1959 -91 
Q 1206 -91 779 398 
Q 353 888 353 1747 
Q 353 2609 779 3096 
Q 1206 3584 1959 3584 
z
" transform="scale(0.015625)"/>
       <path id="DejaVuSans-77" d="M 269 3500 
L 844 3500 
L 1563 769 
L 2278 3500 
L 2956 3500 
L 3675 769 
L 4391 3500 
L 4966 3500 
L 4050 0 
L 3372 0 
L 2619 2869 
L 1863 0 
L 1184 0 
L 269 3500 
z
" transform="scale(0.015625)"/>
       <path id="DejaVuSans-64" d="M 2906 2969 
L 2906 4863 
L 3481 4863 
L 3481 0 
L 2906 0 
L 2906 525 
Q 2725 213 2448 61 
Q 2172 -91 1784 -91 
Q 1150 -91 751 415 
Q 353 922 353 1747 
Q 353 2572 751 3078 
Q 1150 3584 1784 3584 
Q 2172 3584 2448 3432 
Q 2725 3281 2906 2969 
z
M 947 1747 
Q 947 1113 1208 752 
Q 1469 391 1925 391 
Q 2381 391 2643 752 
Q 2906 1113 2906 1747 
Q 2906 2381 2643 2742 
Q 2381 3103 1925 3103 
Q 1469 3103 1208 2742 
Q 947 2381 947 1747 
z
" transform="scale(0.015625)"/>
       <path id="DejaVuSans-73" d="M 2834 3397 
L 2834 2853 
Q 2591 2978 2328 3040 
Q 2066 3103 1784 3103 
Q 1356 3103 1142 2972 
Q 928 2841 928 2578 
Q 928 2378 1081 2264 
Q 1234 2150 1697 2047 
L 1894 2003 
Q 2506 1872 2764 1633 
Q 3022 1394 3022 966 
Q 3022 478 2636 193 
Q 2250 -91 1575 -91 
Q 1294 -91 989 -36 
Q 684 19 347 128 
L 347 722 
Q 666 556 975 473 
Q 1284 391 1588 391 
Q 1994 391 2212 530 
Q 2431 669 2431 922 
Q 2431 1156 2273 1281 
Q 2116 1406 1581 1522 
L 1381 1569 
Q 847 1681 609 1914 
Q 372 2147 372 2553 
Q 372 3047 722 3315 
Q 1072 3584 1716 3584 
Q 2034 3584 2315 3537 
Q 2597 3491 2834 3397 
z
" transform="scale(0.015625)"/>
       <path id="DejaVuSans-69" d="M 603 3500 
L 1178 3500 
L 1178 0 
L 603 0 
L 603 3500 
z
M 603 4863 
L 1178 4863 
L 1178 4134 
L 603 4134 
L 603 4863 
z
" transform="scale(0.015625)"/>
       <path id="DejaVuSans-74" d="M 1172 4494 
L 1172 3500 
L 2356 3500 
L 2356 3053 
L 1172 3053 
L 1172 1153 
Q 1172 725 1289 603 
Q 1406 481 1766 481 
L 2356 481 
L 2356 0 
L 1766 0 
Q 1100 0 847 248 
Q 594 497 594 1153 
L 594 3053 
L 172 3053 
L 172 3500 
L 594 3500 
L 594 4494 
L 1172 4494 
z
" transform="scale(0.015625)"/>
       <path id="DejaVuSans-42" d="M 1259 2228 
L 1259 519 
L 2272 519 
Q 2781 519 3026 730 
Q 3272 941 3272 1375 
Q 3272 1813 3026 2020 
Q 2781 2228 2272 2228 
L 1259 2228 
z
M 1259 4147 
L 1259 2741 
L 2194 2741 
Q 2656 2741 2882 2914 
Q 3109 3088 3109 3444 
Q 3109 3797 2882 3972 
Q 2656 4147 2194 4147 
L 1259 4147 
z
M 628 4666 
L 2241 4666 
Q 2963 4666 3353 4366 
Q 3744 4066 3744 3513 
Q 3744 3084 3544 2831 
Q 3344 2578 2956 2516 
Q 3422 2416 3680 2098 
Q 3938 1781 3938 1306 
Q 3938 681 3513 340 
Q 3088 0 2303 0 
L 628 0 
L 628 4666 
z
" transform="scale(0.015625)"/>
       <path id="DejaVuSans-2f" d="M 1625 4666 
L 2156 4666 
L 531 -594 
L 0 -594 
L 1625 4666 
z
" transform="scale(0.015625)"/>
      </defs>
      <use xlink:href="#DejaVuSans-50"/>
      <use xlink:href="#DejaVuSans-6f" transform="translate(56.677734 0)"/>
      <use xlink:href="#DejaVuSans-77" transform="translate(117.859375 0)"/>
      <use xlink:href="#DejaVuSans-65" transform="translate(199.646484 0)"/>
      <use xlink:href="#DejaVuSans-72" transform="translate(261.169922 0)"/>
      <use xlink:href="#DejaVuSans-20" transform="translate(302.283203 0)"/>
      <use xlink:href="#DejaVuSans-64" transform="translate(334.070312 0)"/>
      <use xlink:href="#DejaVuSans-65" transform="translate(397.546875 0)"/>
      <use xlink:href="#DejaVuSans-6e" transform="translate(459.070312 0)"/>
      <use xlink:href="#DejaVuSans-73" transform="translate(522.449219 0)"/>
      <use xlink:href="#DejaVuSans-69" transform="translate(574.548828 0)"/>
      <use xlink:href="#DejaVuSans-74" transform="translate(602.332031 0)"/>
      <use xlink:href="#DejaVuSans-79" transform="translate(641.541016 0)"/>
      <use xlink:href="#DejaVuSans-20" transform="translate(700.720703 0)"/>
      <use xlink:href="#DejaVuSans-28" transform="translate(732.507812 0)"/>
      <use xlink:href="#DejaVuSans-64" transform="translate(771.521484 0)"/>
      <use xlink:href="#DejaVuSans-42" transform="translate(834.998047 0)"/>
      <use xlink:href="#DejaVuSans-2f" transform="translate(903.601562 0)"/>
      <use xlink:href="#DejaVuSans-48" transform="translate(937.292969 0)"/>
      <use xlink:href="#DejaVuSans-7a" transform="translate(1012.488281 0)"/>
      <use xlink:href="#DejaVuSans-29" transform="translate(1064.978516 0)"/>
     </g>
    </g>
   </g>
   <g id="line2d_27">
    <path d="M 72.610866 213.540552 
L 73.072352 203.115086 
L 73.533837 202.819735 
L 74.456808 201.774376 
L 75.841264 199.957724 
L 76.30275 199.594226 
L 76.764235 199.491385 
L 77.225721 199.733064 
L 77.687206 200.404166 
L 78.148692 201.594305 
L 78.610177 203.403758 
L 79.071662 205.951969 
L 79.533148 209.388732 
L 79.994633 213.905472 
L 80.456119 219.728096 
L 81.840575 240.053608 
L 82.30206 237.221658 
L 83.225031 222.892914 
L 84.148002 212.873943 
L 85.070973 207.059025 
L 85.993944 203.458837 
L 87.3784 198.720233 
L 89.685827 189.868298 
L 90.147313 188.637902 
L 90.608798 187.744437 
L 91.070284 187.211902 
L 91.531769 187.04716 
L 91.993255 187.243062 
L 92.45474 187.780519 
L 92.916225 188.629878 
L 93.839196 191.102499 
L 95.223653 196.072113 
L 96.608109 202.048976 
L 98.915536 213.401466 
L 99.377021 213.61898 
L 99.838507 212.068399 
L 100.299992 209.062455 
L 102.145934 194.692976 
L 103.068905 189.907917 
L 103.53039 188.278048 
L 103.991876 187.129525 
L 104.453361 186.436175 
L 104.914847 186.170587 
L 105.376332 186.304368 
L 105.837817 186.807323 
L 106.299303 187.645985 
L 107.222274 190.168522 
L 108.60673 195.235174 
L 109.991186 200.142807 
L 110.914157 202.602143 
L 111.837128 204.441305 
L 113.221584 206.579328 
L 114.144555 207.55773 
L 114.606041 207.781623 
L 115.067526 207.760042 
L 115.529011 207.468687 
L 115.990497 206.919377 
L 116.913468 205.259427 
L 118.297924 202.464682 
L 119.220895 201.01402 
L 120.143866 199.971753 
L 121.989807 198.112203 
L 123.835749 195.853232 
L 124.75872 195.166527 
L 125.220205 195.028281 
L 126.143176 195.08655 
L 127.527633 195.338417 
L 128.450603 195.228185 
L 129.373574 195.076815 
L 129.83506 195.124253 
L 130.296545 195.319266 
L 130.758031 195.685751 
L 131.681001 196.885578 
L 133.065458 198.9578 
L 133.526943 199.404969 
L 133.988429 199.655808 
L 134.911399 199.709852 
L 135.83437 199.691763 
L 136.295856 199.846759 
L 136.757341 200.166777 
L 137.680312 201.285412 
L 139.526254 204.142455 
L 140.449225 205.156805 
L 141.833681 206.412915 
L 142.756652 207.628811 
L 143.679623 209.418797 
L 145.525564 213.570532 
L 145.98705 214.066755 
L 146.448535 214.033646 
L 146.910021 213.368914 
L 147.371506 212.063592 
L 148.294477 207.989647 
L 149.678933 201.235646 
L 150.140419 199.590757 
L 150.601904 198.482598 
L 151.063389 197.993786 
L 151.524875 198.162389 
L 151.98636 198.965682 
L 152.909331 201.879205 
L 153.370817 203.334607 
L 153.832302 204.190462 
L 154.293787 204.158602 
L 154.755273 203.308359 
L 155.678244 200.365472 
L 156.601215 196.716467 
L 157.985671 190.586157 
L 158.447156 189.477289 
L 158.908642 189.338341 
L 159.370127 189.709088 
L 159.831613 188.322314 
L 160.293098 181.874992 
L 162.13904 140.564603 
L 163.062011 126.060601 
L 163.984981 115.459006 
L 164.907952 108.031925 
L 165.830923 103.351071 
L 166.292409 101.961986 
L 166.753894 101.183651 
L 167.215379 101.007938 
L 167.676865 101.433713 
L 168.13835 102.466846 
L 168.599836 104.120652 
L 169.061321 106.416825 
L 169.984292 113.075428 
L 170.907263 122.871056 
L 171.830234 136.616074 
L 172.753205 155.892771 
L 174.137661 193.583922 
L 174.599146 194.859923 
L 175.060632 191.563848 
L 175.522117 189.449374 
L 175.983603 189.31919 
L 176.445088 190.789573 
L 177.368059 196.360074 
L 178.29103 201.80601 
L 178.752515 203.592684 
L 179.214001 204.689441 
L 179.675486 205.130273 
L 180.136971 204.909716 
L 180.598457 204.05293 
L 181.521428 201.124642 
L 182.444399 198.220994 
L 182.905884 197.167979 
L 183.367369 196.403134 
L 184.29034 195.444767 
L 185.674797 194.208711 
L 187.059253 192.868601 
L 187.982224 192.354183 
L 188.905195 192.247378 
L 190.751136 192.457301 
L 191.674107 192.197693 
L 192.597078 191.525653 
L 193.981534 190.279849 
L 194.904505 189.79727 
L 195.365991 189.738615 
L 196.288962 189.975572 
L 197.211932 190.561237 
L 198.134903 191.357864 
L 199.057874 192.382701 
L 199.980845 193.815686 
L 200.903816 195.826954 
L 203.211243 201.973451 
L 203.672728 202.755581 
L 204.134214 203.193509 
L 204.595699 203.266304 
L 205.057185 202.997433 
L 205.51867 202.443026 
L 206.441641 200.777289 
L 207.826097 198.046052 
L 208.287583 197.353423 
L 208.749068 196.863978 
L 209.210554 196.617438 
L 209.672039 196.639259 
L 210.133524 196.938578 
L 210.59501 197.505982 
L 211.517981 199.301318 
L 213.363922 203.479391 
L 214.286893 204.797383 
L 215.67135 206.372766 
L 216.59432 207.90715 
L 217.517291 209.570424 
L 217.978777 210.073042 
L 218.440262 210.113383 
L 218.901748 209.605572 
L 219.363233 208.608706 
L 221.209175 203.628544 
L 221.67066 202.963816 
L 222.132146 202.680831 
L 222.593631 202.772342 
L 223.055116 203.193632 
L 223.978087 204.668432 
L 224.901058 206.105456 
L 225.362544 206.462952 
L 225.824029 206.467184 
L 226.285514 206.117518 
L 226.747 205.471015 
L 227.669971 203.622843 
L 230.438883 197.373035 
L 231.361854 195.780926 
L 231.82334 195.20862 
L 232.284825 194.825525 
L 232.74631 194.653331 
L 233.207796 194.702965 
L 233.669281 194.971348 
L 234.130767 195.438224 
L 235.053738 196.785364 
L 235.976708 198.187511 
L 236.438194 198.690316 
L 236.899679 198.970515 
L 237.361165 199.007448 
L 237.82265 198.825956 
L 238.745621 198.065784 
L 239.668592 197.268406 
L 240.591563 196.838508 
L 241.053048 196.805556 
L 241.976019 197.057219 
L 244.744932 198.397598 
L 247.052359 198.867685 
L 247.513844 199.178334 
L 247.97533 199.655681 
L 248.436815 200.326711 
L 249.359786 202.282997 
L 250.744242 206.35914 
L 251.667213 209.048309 
L 252.128698 210.10883 
L 252.590184 210.872608 
L 253.051669 211.284681 
L 253.513155 211.309399 
L 253.97464 210.925518 
L 254.436126 210.126633 
L 254.897611 208.930064 
L 255.820582 205.592066 
L 257.666524 198.293532 
L 258.128009 196.973935 
L 258.589494 195.992104 
L 259.05098 195.374757 
L 259.512465 195.129003 
L 259.973951 195.244879 
L 260.435436 195.697453 
L 260.896922 196.448857 
L 261.819892 198.648207 
L 263.204349 202.875219 
L 264.588805 207.512728 
L 265.511776 211.228651 
L 267.357718 220.418132 
L 267.819203 221.074696 
L 268.280688 219.884588 
L 268.742174 217.145853 
L 270.12663 207.479883 
L 270.588116 205.276219 
L 271.049601 203.773046 
L 271.511086 202.937589 
L 271.972572 202.708303 
L 272.434057 203.017177 
L 272.895543 203.806601 
L 273.357028 205.043207 
L 273.818514 206.725667 
L 274.741484 211.540744 
L 276.587426 224.108881 
L 277.048912 224.753232 
L 277.510397 223.259382 
L 278.433368 216.717888 
L 279.356339 209.944253 
L 280.27931 204.987417 
L 280.740795 203.395732 
L 281.20228 202.419214 
L 281.663766 201.99539 
L 282.125251 201.964912 
L 282.586737 202.065337 
L 283.048222 201.988832 
L 283.509708 201.523037 
L 285.355649 198.389147 
L 286.27862 197.888178 
L 286.740106 197.259476 
L 287.663077 194.648647 
L 288.124562 193.448612 
L 288.586047 193.076904 
L 289.047533 193.990325 
L 289.509018 196.442371 
L 290.431989 203.819916 
L 290.893475 204.033591 
L 291.35496 199.970696 
L 291.816445 194.843761 
L 292.277931 191.190908 
L 292.739416 189.928309 
L 293.200902 191.319616 
L 294.123873 198.216025 
L 294.585358 195.179466 
L 295.508329 179.839298 
L 295.969814 175.530343 
L 296.4313 174.929452 
L 296.892785 179.133303 
L 297.815756 201.064857 
L 298.738727 160.297832 
L 299.200212 148.947024 
L 299.661698 142.185971 
L 300.123183 139.531543 
L 300.584669 141.895413 
L 301.046154 153.620695 
L 301.507639 208.206608 
L 301.969125 142.116417 
L 302.43061 115.556757 
L 302.892096 98.460027 
L 303.815067 75.213208 
L 304.738037 59.429832 
L 305.661008 48.207778 
L 306.583979 40.390637 
L 307.50695 35.413682 
L 307.968435 33.89295 
L 308.429921 32.988187 
L 308.891406 32.688267 
L 309.352892 32.989604 
L 309.814377 33.89591 
L 310.275863 35.418449 
L 310.737348 37.576824 
L 311.198833 40.400443 
L 312.121804 48.225968 
L 313.044775 59.462618 
L 313.967746 75.272713 
L 314.429231 85.649969 
L 314.890717 98.572135 
L 315.352202 115.707775 
L 315.813688 142.186922 
L 316.275173 190.811201 
L 316.736659 152.454471 
L 317.198144 141.369212 
L 317.659629 139.161522 
L 318.121115 141.838666 
L 318.5826 148.474545 
L 319.044086 159.258992 
L 319.967057 187.141517 
L 320.428542 181.532096 
L 320.890027 174.217956 
L 321.351513 171.419114 
L 321.812998 172.540784 
L 322.274484 177.007716 
L 323.197455 192.621551 
L 323.65894 196.419987 
L 324.120425 193.51556 
L 324.581911 189.506702 
L 325.043396 187.51687 
L 325.504882 188.00206 
L 325.966367 190.765509 
L 327.350823 203.983556 
L 327.812309 204.268697 
L 328.73528 201.00897 
L 329.196765 200.416127 
L 329.658251 200.7591 
L 330.119736 201.467739 
L 330.581221 201.781382 
L 331.042707 201.23054 
L 332.427163 197.605446 
L 332.888649 197.195824 
L 333.350134 197.357587 
L 335.657561 199.996428 
L 336.119047 200.783962 
L 336.580532 202.039579 
L 337.503503 205.308873 
L 337.964988 206.175431 
L 338.426474 205.776862 
L 339.349445 202.883383 
L 339.81093 202.024388 
L 340.272415 202.099699 
L 340.733901 202.685127 
L 341.195386 202.443848 
L 341.656872 199.887411 
L 343.041328 186.983539 
L 343.502813 185.667702 
L 343.964299 187.277405 
L 344.425784 192.788134 
L 344.88727 202.52552 
L 345.348755 204.080709 
L 346.271726 174.884873 
L 346.733211 166.09078 
L 347.194697 161.512015 
L 347.656182 161.446088 
L 348.117668 168.161845 
L 348.579153 192.203963 
L 349.040639 177.643915 
L 349.502124 144.526213 
L 349.963609 125.04155 
L 350.88658 99.649129 
L 351.809551 82.735727 
L 352.732522 70.734492 
L 353.655493 62.301145 
L 354.578464 56.792998 
L 355.039949 55.024903 
L 355.501435 53.879857 
L 355.96292 53.34361 
L 356.424405 53.409708 
L 356.885891 54.079061 
L 357.347376 55.360013 
L 357.808862 57.268925 
L 358.270347 59.831387 
L 359.193318 67.078881 
L 360.116289 77.606803 
L 361.03926 92.430653 
L 361.962231 113.970015 
L 362.423716 129.277651 
L 362.885201 151.104138 
L 363.346687 188.372977 
L 363.808172 176.916385 
L 364.269658 162.082979 
L 364.731143 157.765967 
L 365.192629 158.684003 
L 365.654114 163.302047 
L 366.115599 171.138803 
L 367.03857 191.81679 
L 367.500056 194.343521 
L 368.423027 188.397335 
L 368.884512 188.329593 
L 369.345997 190.553083 
L 370.268968 197.81907 
L 370.730454 199.43907 
L 371.191939 198.791613 
L 371.653425 197.420446 
L 372.11491 196.753915 
L 372.576395 197.366555 
L 373.037881 199.218447 
L 373.960852 203.98865 
L 374.422337 204.68775 
L 374.883823 203.628227 
L 375.806793 199.911553 
L 376.268279 198.822766 
L 376.729764 198.580641 
L 377.19125 199.106358 
L 378.114221 201.560553 
L 379.037191 204.021371 
L 379.498677 204.778782 
L 379.960162 205.218337 
L 381.806104 206.227649 
L 382.267589 206.852943 
L 382.729075 207.770689 
L 384.113531 211.512344 
L 384.575017 212.168534 
L 385.036502 211.88605 
L 385.497988 210.556324 
L 386.420958 205.950868 
L 387.343929 201.257963 
L 388.2669 197.918773 
L 388.728386 196.828373 
L 389.189871 196.096555 
L 389.651356 195.691758 
L 390.112842 195.580412 
L 390.574327 195.72736 
L 391.035813 196.094683 
L 391.958784 197.321762 
L 393.804725 200.621701 
L 396.112152 205.162206 
L 398.41958 210.092038 
L 398.881065 210.701773 
L 399.34255 210.990556 
L 399.804036 210.906389 
L 400.265521 210.45253 
L 400.727007 209.685605 
L 401.649978 207.568781 
L 403.495919 203.093844 
L 404.41889 201.574285 
L 404.880376 201.167349 
L 405.341861 201.056811 
L 405.803346 201.272855 
L 406.264832 201.822575 
L 407.187803 203.769807 
L 408.110774 206.071888 
L 408.572259 206.874917 
L 409.033744 207.185857 
L 409.49523 206.927863 
L 409.956715 206.167166 
L 412.725628 199.767519 
L 413.648599 198.579283 
L 418.263453 193.916972 
L 419.186424 193.313094 
L 419.647909 193.215509 
L 420.109395 193.296438 
L 420.57088 193.580912 
L 421.032366 194.085778 
L 421.493851 194.817331 
L 422.416822 196.914572 
L 424.262764 202.070533 
L 424.724249 202.916515 
L 425.185734 203.325207 
L 425.64722 203.241594 
L 426.108705 202.699206 
L 427.031676 200.712773 
L 428.416132 197.494289 
L 429.339103 196.112387 
L 429.800589 195.702468 
L 430.72356 195.327381 
L 431.64653 195.294461 
L 434.415443 195.526244 
L 435.338414 195.80514 
L 436.261385 196.277081 
L 437.184356 196.977333 
L 438.107326 197.993462 
L 439.030297 199.388949 
L 440.414754 201.703049 
L 440.876239 202.226581 
L 441.337724 202.47206 
L 441.79921 202.393568 
L 442.260695 202.009541 
L 443.183666 200.679986 
L 444.106637 199.375589 
L 444.568122 198.96514 
L 445.029608 198.779605 
L 445.491093 198.828297 
L 445.952579 199.093489 
L 446.87555 200.09307 
L 448.721491 202.349386 
L 449.644462 203.370914 
L 450.105948 204.078241 
L 450.567433 205.070992 
L 451.028918 206.472524 
L 451.490404 208.401794 
L 451.951889 210.961098 
L 452.87486 218.026467 
L 453.336346 221.938059 
L 453.797831 224.67747 
L 454.259316 224.551375 
L 454.720802 221.265585 
L 456.105258 206.931503 
L 457.028229 200.55614 
L 457.489714 198.597118 
L 457.9512 197.412909 
L 458.412685 196.977037 
L 458.874171 197.275021 
L 459.335656 198.302605 
L 459.797142 200.058561 
L 460.258627 202.526137 
L 462.104569 214.43885 
L 462.566054 214.141803 
L 463.02754 211.521269 
L 464.873481 196.47871 
L 465.796452 191.867036 
L 466.257938 190.455166 
L 466.719423 189.604713 
L 467.180908 189.29261 
L 467.642394 189.500257 
L 468.103879 190.212781 
L 468.565365 191.417501 
L 469.02685 193.101906 
L 469.949821 197.844287 
L 470.872792 204.218485 
L 472.718734 218.764887 
L 473.180219 221.309282 
L 473.641704 222.627514 
L 474.10319 222.53029 
L 474.564675 221.185652 
L 475.487646 216.413447 
L 476.872102 208.692558 
L 478.256559 202.502888 
L 479.641015 197.610155 
L 480.563986 195.084072 
L 481.486957 193.42772 
L 481.948442 193.015757 
L 482.409928 192.919034 
L 482.871413 193.15439 
L 483.332899 193.726553 
L 483.794384 194.624821 
L 484.717355 197.247317 
L 486.101811 201.801035 
L 486.563297 202.860832 
L 487.024782 203.436719 
L 487.486267 203.490922 
L 487.947753 203.101246 
L 489.793695 200.410953 
L 490.25518 200.135646 
L 490.716665 200.148602 
L 491.178151 200.445874 
L 491.639636 200.988603 
L 493.485578 203.796692 
L 493.947063 204.134163 
L 494.408549 204.230337 
L 495.33152 203.985846 
L 495.793005 203.862274 
L 496.254491 203.86735 
L 496.715976 204.055266 
L 497.177461 204.436295 
L 498.100432 205.611162 
L 499.023403 206.798128 
L 499.946374 207.47464 
L 501.33083 208.083125 
L 501.792316 208.536934 
L 502.253801 209.237538 
L 503.176772 211.408746 
L 504.561228 215.138869 
L 505.022714 215.641284 
L 505.484199 215.356041 
L 505.945685 214.213343 
L 506.40717 212.344336 
L 509.176083 198.85531 
L 510.099053 196.415456 
L 510.560539 195.703619 
L 511.022024 195.3045 
L 511.48351 195.186859 
L 511.944995 195.31303 
L 512.406481 195.642338 
L 513.329451 196.760533 
L 514.252422 198.332799 
L 515.175393 200.32464 
L 517.48282 205.843576 
L 517.944306 206.137887 
L 518.405791 205.80159 
L 518.867277 204.837551 
L 519.790247 201.675423 
L 520.713218 198.318846 
L 521.174704 196.990746 
L 521.636189 196.029253 
L 522.097675 195.49418 
L 522.55916 195.427481 
L 523.020645 195.860921 
L 523.482131 196.819767 
L 523.943616 198.32202 
L 524.405102 200.371207 
L 525.328073 205.920153 
L 526.251043 211.934448 
L 526.712529 213.820313 
L 527.174014 214.155251 
L 527.6355 212.928065 
L 529.942927 202.256121 
L 530.404412 201.256186 
L 530.865898 200.745756 
L 531.327383 200.68362 
L 531.788869 201.012553 
L 532.250354 201.658398 
L 534.096296 205.157638 
L 534.557781 205.553625 
L 535.019267 205.52225 
L 535.480752 205.049844 
L 535.942237 204.200724 
L 538.71115 197.771339 
L 539.172635 197.298523 
L 539.634121 197.116514 
L 540.095606 197.239857 
L 540.557092 197.673842 
L 541.018577 198.414252 
L 541.941548 200.739058 
L 543.326004 205.579543 
L 544.248975 208.483477 
L 544.710461 209.365144 
L 545.171946 220.000078 
L 545.171946 220.000078 
" clip-path="url(#pe91304ed41)" style="fill: none; stroke: #1f77b4; stroke-linecap: square"/>
   </g>
   <g id="patch_3">
    <path d="M 48.982813 250.421875 
L 48.982813 22.32 
" style="fill: none; stroke: #000000; stroke-width: 0.8; stroke-linejoin: miter; stroke-linecap: square"/>
   </g>
   <g id="patch_4">
    <path d="M 568.8 250.421875 
L 568.8 22.32 
" style="fill: none; stroke: #000000; stroke-width: 0.8; stroke-linejoin: miter; stroke-linecap: square"/>
   </g>
   <g id="patch_5">
    <path d="M 48.982813 250.421875 
L 568.8 250.421875 
" style="fill: none; stroke: #000000; stroke-width: 0.8; stroke-linejoin: miter; stroke-linecap: square"/>
   </g>
   <g id="patch_6">
    <path d="M 48.982813 22.32 
L 568.8 22.32 
" style="fill: none; stroke: #000000; stroke-width: 0.8; stroke-linejoin: miter; stroke-linecap: square"/>
   </g>
   <g id="text_16">
    <!-- Periodogram of $x_r[n]$ -->
    <g transform="translate(246.971406 16.32) scale(0.12 -0.12)">
     <defs>
      <path id="DejaVuSans-67" d="M 2906 1791 
Q 2906 2416 2648 2759 
Q 2391 3103 1925 3103 
Q 1463 3103 1205 2759 
Q 947 2416 947 1791 
Q 947 1169 1205 825 
Q 1463 481 1925 481 
Q 2391 481 2648 825 
Q 2906 1169 2906 1791 
z
M 3481 434 
Q 3481 -459 3084 -895 
Q 2688 -1331 1869 -1331 
Q 1566 -1331 1297 -1286 
Q 1028 -1241 775 -1147 
L 775 -588 
Q 1028 -725 1275 -790 
Q 1522 -856 1778 -856 
Q 2344 -856 2625 -561 
Q 2906 -266 2906 331 
L 2906 616 
Q 2728 306 2450 153 
Q 2172 0 1784 0 
Q 1141 0 747 490 
Q 353 981 353 1791 
Q 353 2603 747 3093 
Q 1141 3584 1784 3584 
Q 2172 3584 2450 3431 
Q 2728 3278 2906 2969 
L 2906 3500 
L 3481 3500 
L 3481 434 
z
" transform="scale(0.015625)"/>
      <path id="DejaVuSans-61" d="M 2194 1759 
Q 1497 1759 1228 1600 
Q 959 1441 959 1056 
Q 959 750 1161 570 
Q 1363 391 1709 391 
Q 2188 391 2477 730 
Q 2766 1069 2766 1631 
L 2766 1759 
L 2194 1759 
z
M 3341 1997 
L 3341 0 
L 2766 0 
L 2766 531 
Q 2569 213 2275 61 
Q 1981 -91 1556 -91 
Q 1019 -91 701 211 
Q 384 513 384 1019 
Q 384 1609 779 1909 
Q 1175 2209 1959 2209 
L 2766 2209 
L 2766 2266 
Q 2766 2663 2505 2880 
Q 2244 3097 1772 3097 
Q 1472 3097 1187 3025 
Q 903 2953 641 2809 
L 641 3341 
Q 956 3463 1253 3523 
Q 1550 3584 1831 3584 
Q 2591 3584 2966 3190 
Q 3341 2797 3341 1997 
z
" transform="scale(0.015625)"/>
      <path id="DejaVuSans-6d" d="M 3328 2828 
Q 3544 3216 3844 3400 
Q 4144 3584 4550 3584 
Q 5097 3584 5394 3201 
Q 5691 2819 5691 2113 
L 5691 0 
L 5113 0 
L 5113 2094 
Q 5113 2597 4934 2840 
Q 4756 3084 4391 3084 
Q 3944 3084 3684 2787 
Q 3425 2491 3425 1978 
L 3425 0 
L 2847 0 
L 2847 2094 
Q 2847 2600 2669 2842 
Q 2491 3084 2119 3084 
Q 1678 3084 1418 2786 
Q 1159 2488 1159 1978 
L 1159 0 
L 581 0 
L 581 3500 
L 1159 3500 
L 1159 2956 
Q 1356 3278 1631 3431 
Q 1906 3584 2284 3584 
Q 2666 3584 2933 3390 
Q 3200 3197 3328 2828 
z
" transform="scale(0.015625)"/>
      <path id="DejaVuSans-66" d="M 2375 4863 
L 2375 4384 
L 1825 4384 
Q 1516 4384 1395 4259 
Q 1275 4134 1275 3809 
L 1275 3500 
L 2222 3500 
L 2222 3053 
L 1275 3053 
L 1275 0 
L 697 0 
L 697 3053 
L 147 3053 
L 147 3500 
L 697 3500 
L 697 3744 
Q 697 4328 969 4595 
Q 1241 4863 1831 4863 
L 2375 4863 
z
" transform="scale(0.015625)"/>
      <path id="DejaVuSans-Oblique-78" d="M 3841 3500 
L 2234 1784 
L 3219 0 
L 2559 0 
L 1819 1388 
L 531 0 
L -166 0 
L 1556 1844 
L 641 3500 
L 1300 3500 
L 1972 2234 
L 3144 3500 
L 3841 3500 
z
" transform="scale(0.015625)"/>
      <path id="DejaVuSans-Oblique-72" d="M 2853 2969 
Q 2766 3016 2653 3041 
Q 2541 3066 2413 3066 
Q 1953 3066 1609 2717 
Q 1266 2369 1153 1784 
L 800 0 
L 225 0 
L 909 3500 
L 1484 3500 
L 1375 2956 
Q 1603 3259 1920 3421 
Q 2238 3584 2597 3584 
Q 2691 3584 2781 3573 
Q 2872 3563 2963 3538 
L 2853 2969 
z
" transform="scale(0.015625)"/>
      <path id="DejaVuSans-5b" d="M 550 4863 
L 1875 4863 
L 1875 4416 
L 1125 4416 
L 1125 -397 
L 1875 -397 
L 1875 -844 
L 550 -844 
L 550 4863 
z
" transform="scale(0.015625)"/>
      <path id="DejaVuSans-Oblique-6e" d="M 3566 2113 
L 3156 0 
L 2578 0 
L 2988 2091 
Q 3016 2238 3031 2350 
Q 3047 2463 3047 2528 
Q 3047 2791 2881 2937 
Q 2716 3084 2419 3084 
Q 1956 3084 1622 2776 
Q 1288 2469 1184 1941 
L 800 0 
L 225 0 
L 903 3500 
L 1478 3500 
L 1363 2950 
Q 1603 3253 1940 3418 
Q 2278 3584 2650 3584 
Q 3113 3584 3367 3334 
Q 3622 3084 3622 2631 
Q 3622 2519 3608 2391 
Q 3594 2263 3566 2113 
z
" transform="scale(0.015625)"/>
      <path id="DejaVuSans-5d" d="M 1947 4863 
L 1947 -844 
L 622 -844 
L 622 -397 
L 1369 -397 
L 1369 4416 
L 622 4416 
L 622 4863 
L 1947 4863 
z
" transform="scale(0.015625)"/>
     </defs>
     <use xlink:href="#DejaVuSans-50" transform="translate(0 0.015625)"/>
     <use xlink:href="#DejaVuSans-65" transform="translate(60.302734 0.015625)"/>
     <use xlink:href="#DejaVuSans-72" transform="translate(121.826172 0.015625)"/>
     <use xlink:href="#DejaVuSans-69" transform="translate(162.939453 0.015625)"/>
     <use xlink:href="#DejaVuSans-6f" transform="translate(190.722656 0.015625)"/>
     <use xlink:href="#DejaVuSans-64" transform="translate(251.904297 0.015625)"/>
     <use xlink:href="#DejaVuSans-6f" transform="translate(315.380859 0.015625)"/>
     <use xlink:href="#DejaVuSans-67" transform="translate(376.5625 0.015625)"/>
     <use xlink:href="#DejaVuSans-72" transform="translate(440.039062 0.015625)"/>
     <use xlink:href="#DejaVuSans-61" transform="translate(481.152344 0.015625)"/>
     <use xlink:href="#DejaVuSans-6d" transform="translate(542.431641 0.015625)"/>
     <use xlink:href="#DejaVuSans-20" transform="translate(639.84375 0.015625)"/>
     <use xlink:href="#DejaVuSans-6f" transform="translate(671.630859 0.015625)"/>
     <use xlink:href="#DejaVuSans-66" transform="translate(732.8125 0.015625)"/>
     <use xlink:href="#DejaVuSans-20" transform="translate(768.017578 0.015625)"/>
     <use xlink:href="#DejaVuSans-Oblique-78" transform="translate(799.804688 0.015625)"/>
     <use xlink:href="#DejaVuSans-Oblique-72" transform="translate(858.984375 -16.390625) scale(0.7)"/>
     <use xlink:href="#DejaVuSans-5b" transform="translate(890.498047 0.015625)"/>
     <use xlink:href="#DejaVuSans-Oblique-6e" transform="translate(929.511719 0.015625)"/>
     <use xlink:href="#DejaVuSans-5d" transform="translate(992.890625 0.015625)"/>
    </g>
   </g>
  </g>
 </g>
 <defs>
  <clipPath id="pe91304ed41">
   <rect x="48.982813" y="22.32" width="519.817188" height="228.101875"/>
  </clipPath>
 </defs>
</svg>
