<?xml version="1.0" encoding="utf-8" standalone="no"?>
<!DOCTYPE svg PUBLIC "-//W3C//DTD SVG 1.1//EN"
  "http://www.w3.org/Graphics/SVG/1.1/DTD/svg11.dtd">
<svg xmlns:xlink="http://www.w3.org/1999/xlink" width="576pt" height="288pt" viewBox="0 0 576 288" xmlns="http://www.w3.org/2000/svg" version="1.1">
 <metadata>
  <rdf:RDF xmlns:dc="http://purl.org/dc/elements/1.1/" xmlns:cc="http://creativecommons.org/ns#" xmlns:rdf="http://www.w3.org/1999/02/22-rdf-syntax-ns#">
   <cc:Work>
    <dc:type rdf:resource="http://purl.org/dc/dcmitype/StillImage"/>
    <dc:date>2026-05-03T16:47:44.158355</dc:date>
    <dc:format>image/svg+xml</dc:format>
    <dc:creator>
     <cc:Agent>
      <dc:title>Matplotlib v3.10.9, https://matplotlib.org/</dc:title>
     </cc:Agent>
    </dc:creator>
   </cc:Work>
  </rdf:RDF>
 </metadata>
 <defs>
  <style type="text/css">*{stroke-linejoin: round; stroke-linecap: butt}</style>
 </defs>
 <g id="figure_1">
  <g id="patch_1">
   <path d="M 0 288 
L 576 288 
L 576 0 
L 0 0 
z
" style="fill: #ffffff"/>
  </g>
  <g id="axes_1">
   <g id="patch_2">
    <path d="M 52.160938 250.421875 
L 568.8 250.421875 
L 568.8 7.2 
L 52.160938 7.2 
z
" style="fill: #ffffff"/>
   </g>
   <g id="matplotlib.axis_1">
    <g id="xtick_1">
     <g id="line2d_1">
      <path d="M 75.644531 250.421875 
L 75.644531 7.2 
" clip-path="url(#p1ada728cfa)" style="fill: none; stroke-dasharray: 2.96,1.28; stroke-dashoffset: 0; stroke: #b0b0b0; stroke-opacity: 0.8; stroke-width: 0.8"/>
     </g>
     <g id="line2d_2">
      <defs>
       <path id="m1e5ea89b35" d="M 0 0 
L 0 3.5 
" style="stroke: #000000; stroke-width: 0.8"/>
      </defs>
      <g>
       <use xlink:href="#m1e5ea89b35" x="75.644531" y="250.421875" style="stroke: #000000; stroke-width: 0.8"/>
      </g>
     </g>
     <g id="text_1">
      <!-- 0 -->
      <g transform="translate(72.463281 265.020312) scale(0.1 -0.1)">
       <defs>
        <path id="DejaVuSans-30" d="M 2034 4250 
Q 1547 4250 1301 3770 
Q 1056 3291 1056 2328 
Q 1056 1369 1301 889 
Q 1547 409 2034 409 
Q 2525 409 2770 889 
Q 3016 1369 3016 2328 
Q 3016 3291 2770 3770 
Q 2525 4250 2034 4250 
z
M 2034 4750 
Q 2819 4750 3233 4129 
Q 3647 3509 3647 2328 
Q 3647 1150 3233 529 
Q 2819 -91 2034 -91 
Q 1250 -91 836 529 
Q 422 1150 422 2328 
Q 422 3509 836 4129 
Q 1250 4750 2034 4750 
z
" transform="scale(0.015625)"/>
       </defs>
       <use xlink:href="#DejaVuSans-30"/>
      </g>
     </g>
    </g>
    <g id="xtick_2">
     <g id="line2d_3">
      <path d="M 134.500656 250.421875 
L 134.500656 7.2 
" clip-path="url(#p1ada728cfa)" style="fill: none; stroke-dasharray: 2.96,1.28; stroke-dashoffset: 0; stroke: #b0b0b0; stroke-opacity: 0.8; stroke-width: 0.8"/>
     </g>
     <g id="line2d_4">
      <g>
       <use xlink:href="#m1e5ea89b35" x="134.500656" y="250.421875" style="stroke: #000000; stroke-width: 0.8"/>
      </g>
     </g>
     <g id="text_2">
      <!-- 50 -->
      <g transform="translate(128.138156 265.020312) scale(0.1 -0.1)">
       <defs>
        <path id="DejaVuSans-35" d="M 691 4666 
L 3169 4666 
L 3169 4134 
L 1269 4134 
L 1269 2991 
Q 1406 3038 1543 3061 
Q 1681 3084 1819 3084 
Q 2600 3084 3056 2656 
Q 3513 2228 3513 1497 
Q 3513 744 3044 326 
Q 2575 -91 1722 -91 
Q 1428 -91 1123 -41 
Q 819 9 494 109 
L 494 744 
Q 775 591 1075 516 
Q 1375 441 1709 441 
Q 2250 441 2565 725 
Q 2881 1009 2881 1497 
Q 2881 1984 2565 2268 
Q 2250 2553 1709 2553 
Q 1456 2553 1204 2497 
Q 953 2441 691 2322 
L 691 4666 
z
" transform="scale(0.015625)"/>
       </defs>
       <use xlink:href="#DejaVuSans-35"/>
       <use xlink:href="#DejaVuSans-30" transform="translate(63.623047 0)"/>
      </g>
     </g>
    </g>
    <g id="xtick_3">
     <g id="line2d_5">
      <path d="M 193.356781 250.421875 
L 193.356781 7.2 
" clip-path="url(#p1ada728cfa)" style="fill: none; stroke-dasharray: 2.96,1.28; stroke-dashoffset: 0; stroke: #b0b0b0; stroke-opacity: 0.8; stroke-width: 0.8"/>
     </g>
     <g id="line2d_6">
      <g>
       <use xlink:href="#m1e5ea89b35" x="193.356781" y="250.421875" style="stroke: #000000; stroke-width: 0.8"/>
      </g>
     </g>
     <g id="text_3">
      <!-- 100 -->
      <g transform="translate(183.813031 265.020312) scale(0.1 -0.1)">
       <defs>
        <path id="DejaVuSans-31" d="M 794 531 
L 1825 531 
L 1825 4091 
L 703 3866 
L 703 4441 
L 1819 4666 
L 2450 4666 
L 2450 531 
L 3481 531 
L 3481 0 
L 794 0 
L 794 531 
z
" transform="scale(0.015625)"/>
       </defs>
       <use xlink:href="#DejaVuSans-31"/>
       <use xlink:href="#DejaVuSans-30" transform="translate(63.623047 0)"/>
       <use xlink:href="#DejaVuSans-30" transform="translate(127.246094 0)"/>
      </g>
     </g>
    </g>
    <g id="xtick_4">
     <g id="line2d_7">
      <path d="M 252.212905 250.421875 
L 252.212905 7.2 
" clip-path="url(#p1ada728cfa)" style="fill: none; stroke-dasharray: 2.96,1.28; stroke-dashoffset: 0; stroke: #b0b0b0; stroke-opacity: 0.8; stroke-width: 0.8"/>
     </g>
     <g id="line2d_8">
      <g>
       <use xlink:href="#m1e5ea89b35" x="252.212905" y="250.421875" style="stroke: #000000; stroke-width: 0.8"/>
      </g>
     </g>
     <g id="text_4">
      <!-- 150 -->
      <g transform="translate(242.669155 265.020312) scale(0.1 -0.1)">
       <use xlink:href="#DejaVuSans-31"/>
       <use xlink:href="#DejaVuSans-35" transform="translate(63.623047 0)"/>
       <use xlink:href="#DejaVuSans-30" transform="translate(127.246094 0)"/>
      </g>
     </g>
    </g>
    <g id="xtick_5">
     <g id="line2d_9">
      <path d="M 311.06903 250.421875 
L 311.06903 7.2 
" clip-path="url(#p1ada728cfa)" style="fill: none; stroke-dasharray: 2.96,1.28; stroke-dashoffset: 0; stroke: #b0b0b0; stroke-opacity: 0.8; stroke-width: 0.8"/>
     </g>
     <g id="line2d_10">
      <g>
       <use xlink:href="#m1e5ea89b35" x="311.06903" y="250.421875" style="stroke: #000000; stroke-width: 0.8"/>
      </g>
     </g>
     <g id="text_5">
      <!-- 200 -->
      <g transform="translate(301.52528 265.020312) scale(0.1 -0.1)">
       <defs>
        <path id="DejaVuSans-32" d="M 1228 531 
L 3431 531 
L 3431 0 
L 469 0 
L 469 531 
Q 828 903 1448 1529 
Q 2069 2156 2228 2338 
Q 2531 2678 2651 2914 
Q 2772 3150 2772 3378 
Q 2772 3750 2511 3984 
Q 2250 4219 1831 4219 
Q 1534 4219 1204 4116 
Q 875 4013 500 3803 
L 500 4441 
Q 881 4594 1212 4672 
Q 1544 4750 1819 4750 
Q 2544 4750 2975 4387 
Q 3406 4025 3406 3419 
Q 3406 3131 3298 2873 
Q 3191 2616 2906 2266 
Q 2828 2175 2409 1742 
Q 1991 1309 1228 531 
z
" transform="scale(0.015625)"/>
       </defs>
       <use xlink:href="#DejaVuSans-32"/>
       <use xlink:href="#DejaVuSans-30" transform="translate(63.623047 0)"/>
       <use xlink:href="#DejaVuSans-30" transform="translate(127.246094 0)"/>
      </g>
     </g>
    </g>
    <g id="xtick_6">
     <g id="line2d_11">
      <path d="M 369.925155 250.421875 
L 369.925155 7.2 
" clip-path="url(#p1ada728cfa)" style="fill: none; stroke-dasharray: 2.96,1.28; stroke-dashoffset: 0; stroke: #b0b0b0; stroke-opacity: 0.8; stroke-width: 0.8"/>
     </g>
     <g id="line2d_12">
      <g>
       <use xlink:href="#m1e5ea89b35" x="369.925155" y="250.421875" style="stroke: #000000; stroke-width: 0.8"/>
      </g>
     </g>
     <g id="text_6">
      <!-- 250 -->
      <g transform="translate(360.381405 265.020312) scale(0.1 -0.1)">
       <use xlink:href="#DejaVuSans-32"/>
       <use xlink:href="#DejaVuSans-35" transform="translate(63.623047 0)"/>
       <use xlink:href="#DejaVuSans-30" transform="translate(127.246094 0)"/>
      </g>
     </g>
    </g>
    <g id="xtick_7">
     <g id="line2d_13">
      <path d="M 428.781279 250.421875 
L 428.781279 7.2 
" clip-path="url(#p1ada728cfa)" style="fill: none; stroke-dasharray: 2.96,1.28; stroke-dashoffset: 0; stroke: #b0b0b0; stroke-opacity: 0.8; stroke-width: 0.8"/>
     </g>
     <g id="line2d_14">
      <g>
       <use xlink:href="#m1e5ea89b35" x="428.781279" y="250.421875" style="stroke: #000000; stroke-width: 0.8"/>
      </g>
     </g>
     <g id="text_7">
      <!-- 300 -->
      <g transform="translate(419.237529 265.020312) scale(0.1 -0.1)">
       <defs>
        <path id="DejaVuSans-33" d="M 2597 2516 
Q 3050 2419 3304 2112 
Q 3559 1806 3559 1356 
Q 3559 666 3084 287 
Q 2609 -91 1734 -91 
Q 1441 -91 1130 -33 
Q 819 25 488 141 
L 488 750 
Q 750 597 1062 519 
Q 1375 441 1716 441 
Q 2309 441 2620 675 
Q 2931 909 2931 1356 
Q 2931 1769 2642 2001 
Q 2353 2234 1838 2234 
L 1294 2234 
L 1294 2753 
L 1863 2753 
Q 2328 2753 2575 2939 
Q 2822 3125 2822 3475 
Q 2822 3834 2567 4026 
Q 2313 4219 1838 4219 
Q 1578 4219 1281 4162 
Q 984 4106 628 3988 
L 628 4550 
Q 988 4650 1302 4700 
Q 1616 4750 1894 4750 
Q 2613 4750 3031 4423 
Q 3450 4097 3450 3541 
Q 3450 3153 3228 2886 
Q 3006 2619 2597 2516 
z
" transform="scale(0.015625)"/>
       </defs>
       <use xlink:href="#DejaVuSans-33"/>
       <use xlink:href="#DejaVuSans-30" transform="translate(63.623047 0)"/>
       <use xlink:href="#DejaVuSans-30" transform="translate(127.246094 0)"/>
      </g>
     </g>
    </g>
    <g id="xtick_8">
     <g id="line2d_15">
      <path d="M 487.637404 250.421875 
L 487.637404 7.2 
" clip-path="url(#p1ada728cfa)" style="fill: none; stroke-dasharray: 2.96,1.28; stroke-dashoffset: 0; stroke: #b0b0b0; stroke-opacity: 0.8; stroke-width: 0.8"/>
     </g>
     <g id="line2d_16">
      <g>
       <use xlink:href="#m1e5ea89b35" x="487.637404" y="250.421875" style="stroke: #000000; stroke-width: 0.8"/>
      </g>
     </g>
     <g id="text_8">
      <!-- 350 -->
      <g transform="translate(478.093654 265.020312) scale(0.1 -0.1)">
       <use xlink:href="#DejaVuSans-33"/>
       <use xlink:href="#DejaVuSans-35" transform="translate(63.623047 0)"/>
       <use xlink:href="#DejaVuSans-30" transform="translate(127.246094 0)"/>
      </g>
     </g>
    </g>
    <g id="xtick_9">
     <g id="line2d_17">
      <path d="M 546.493529 250.421875 
L 546.493529 7.2 
" clip-path="url(#p1ada728cfa)" style="fill: none; stroke-dasharray: 2.96,1.28; stroke-dashoffset: 0; stroke: #b0b0b0; stroke-opacity: 0.8; stroke-width: 0.8"/>
     </g>
     <g id="line2d_18">
      <g>
       <use xlink:href="#m1e5ea89b35" x="546.493529" y="250.421875" style="stroke: #000000; stroke-width: 0.8"/>
      </g>
     </g>
     <g id="text_9">
      <!-- 400 -->
      <g transform="translate(536.949779 265.020312) scale(0.1 -0.1)">
       <defs>
        <path id="DejaVuSans-34" d="M 2419 4116 
L 825 1625 
L 2419 1625 
L 2419 4116 
z
M 2253 4666 
L 3047 4666 
L 3047 1625 
L 3713 1625 
L 3713 1100 
L 3047 1100 
L 3047 0 
L 2419 0 
L 2419 1100 
L 313 1100 
L 313 1709 
L 2253 4666 
z
" transform="scale(0.015625)"/>
       </defs>
       <use xlink:href="#DejaVuSans-34"/>
       <use xlink:href="#DejaVuSans-30" transform="translate(63.623047 0)"/>
       <use xlink:href="#DejaVuSans-30" transform="translate(127.246094 0)"/>
      </g>
     </g>
    </g>
    <g id="text_10">
     <!-- Sample, $n$ -->
     <g transform="translate(285.380469 278.7) scale(0.1 -0.1)">
      <defs>
       <path id="DejaVuSans-53" d="M 3425 4513 
L 3425 3897 
Q 3066 4069 2747 4153 
Q 2428 4238 2131 4238 
Q 1616 4238 1336 4038 
Q 1056 3838 1056 3469 
Q 1056 3159 1242 3001 
Q 1428 2844 1947 2747 
L 2328 2669 
Q 3034 2534 3370 2195 
Q 3706 1856 3706 1288 
Q 3706 609 3251 259 
Q 2797 -91 1919 -91 
Q 1588 -91 1214 -16 
Q 841 59 441 206 
L 441 856 
Q 825 641 1194 531 
Q 1563 422 1919 422 
Q 2459 422 2753 634 
Q 3047 847 3047 1241 
Q 3047 1584 2836 1778 
Q 2625 1972 2144 2069 
L 1759 2144 
Q 1053 2284 737 2584 
Q 422 2884 422 3419 
Q 422 4038 858 4394 
Q 1294 4750 2059 4750 
Q 2388 4750 2728 4690 
Q 3069 4631 3425 4513 
z
" transform="scale(0.015625)"/>
       <path id="DejaVuSans-61" d="M 2194 1759 
Q 1497 1759 1228 1600 
Q 959 1441 959 1056 
Q 959 750 1161 570 
Q 1363 391 1709 391 
Q 2188 391 2477 730 
Q 2766 1069 2766 1631 
L 2766 1759 
L 2194 1759 
z
M 3341 1997 
L 3341 0 
L 2766 0 
L 2766 531 
Q 2569 213 2275 61 
Q 1981 -91 1556 -91 
Q 1019 -91 701 211 
Q 384 513 384 1019 
Q 384 1609 779 1909 
Q 1175 2209 1959 2209 
L 2766 2209 
L 2766 2266 
Q 2766 2663 2505 2880 
Q 2244 3097 1772 3097 
Q 1472 3097 1187 3025 
Q 903 2953 641 2809 
L 641 3341 
Q 956 3463 1253 3523 
Q 1550 3584 1831 3584 
Q 2591 3584 2966 3190 
Q 3341 2797 3341 1997 
z
" transform="scale(0.015625)"/>
       <path id="DejaVuSans-6d" d="M 3328 2828 
Q 3544 3216 3844 3400 
Q 4144 3584 4550 3584 
Q 5097 3584 5394 3201 
Q 5691 2819 5691 2113 
L 5691 0 
L 5113 0 
L 5113 2094 
Q 5113 2597 4934 2840 
Q 4756 3084 4391 3084 
Q 3944 3084 3684 2787 
Q 3425 2491 3425 1978 
L 3425 0 
L 2847 0 
L 2847 2094 
Q 2847 2600 2669 2842 
Q 2491 3084 2119 3084 
Q 1678 3084 1418 2786 
Q 1159 2488 1159 1978 
L 1159 0 
L 581 0 
L 581 3500 
L 1159 3500 
L 1159 2956 
Q 1356 3278 1631 3431 
Q 1906 3584 2284 3584 
Q 2666 3584 2933 3390 
Q 3200 3197 3328 2828 
z
" transform="scale(0.015625)"/>
       <path id="DejaVuSans-70" d="M 1159 525 
L 1159 -1331 
L 581 -1331 
L 581 3500 
L 1159 3500 
L 1159 2969 
Q 1341 3281 1617 3432 
Q 1894 3584 2278 3584 
Q 2916 3584 3314 3078 
Q 3713 2572 3713 1747 
Q 3713 922 3314 415 
Q 2916 -91 2278 -91 
Q 1894 -91 1617 61 
Q 1341 213 1159 525 
z
M 3116 1747 
Q 3116 2381 2855 2742 
Q 2594 3103 2138 3103 
Q 1681 3103 1420 2742 
Q 1159 2381 1159 1747 
Q 1159 1113 1420 752 
Q 1681 391 2138 391 
Q 2594 391 2855 752 
Q 3116 1113 3116 1747 
z
" transform="scale(0.015625)"/>
       <path id="DejaVuSans-6c" d="M 603 4863 
L 1178 4863 
L 1178 0 
L 603 0 
L 603 4863 
z
" transform="scale(0.015625)"/>
       <path id="DejaVuSans-65" d="M 3597 1894 
L 3597 1613 
L 953 1613 
Q 991 1019 1311 708 
Q 1631 397 2203 397 
Q 2534 397 2845 478 
Q 3156 559 3463 722 
L 3463 178 
Q 3153 47 2828 -22 
Q 2503 -91 2169 -91 
Q 1331 -91 842 396 
Q 353 884 353 1716 
Q 353 2575 817 3079 
Q 1281 3584 2069 3584 
Q 2775 3584 3186 3129 
Q 3597 2675 3597 1894 
z
M 3022 2063 
Q 3016 2534 2758 2815 
Q 2500 3097 2075 3097 
Q 1594 3097 1305 2825 
Q 1016 2553 972 2059 
L 3022 2063 
z
" transform="scale(0.015625)"/>
       <path id="DejaVuSans-2c" d="M 750 794 
L 1409 794 
L 1409 256 
L 897 -744 
L 494 -744 
L 750 256 
L 750 794 
z
" transform="scale(0.015625)"/>
       <path id="DejaVuSans-20" transform="scale(0.015625)"/>
       <path id="DejaVuSans-Oblique-6e" d="M 3566 2113 
L 3156 0 
L 2578 0 
L 2988 2091 
Q 3016 2238 3031 2350 
Q 3047 2463 3047 2528 
Q 3047 2791 2881 2937 
Q 2716 3084 2419 3084 
Q 1956 3084 1622 2776 
Q 1288 2469 1184 1941 
L 800 0 
L 225 0 
L 903 3500 
L 1478 3500 
L 1363 2950 
Q 1603 3253 1940 3418 
Q 2278 3584 2650 3584 
Q 3113 3584 3367 3334 
Q 3622 3084 3622 2631 
Q 3622 2519 3608 2391 
Q 3594 2263 3566 2113 
z
" transform="scale(0.015625)"/>
      </defs>
      <use xlink:href="#DejaVuSans-53" transform="translate(0 0.015625)"/>
      <use xlink:href="#DejaVuSans-61" transform="translate(63.476562 0.015625)"/>
      <use xlink:href="#DejaVuSans-6d" transform="translate(124.755859 0.015625)"/>
      <use xlink:href="#DejaVuSans-70" transform="translate(222.167969 0.015625)"/>
      <use xlink:href="#DejaVuSans-6c" transform="translate(285.644531 0.015625)"/>
      <use xlink:href="#DejaVuSans-65" transform="translate(313.427734 0.015625)"/>
      <use xlink:href="#DejaVuSans-2c" transform="translate(374.951172 0.015625)"/>
      <use xlink:href="#DejaVuSans-20" transform="translate(406.738281 0.015625)"/>
      <use xlink:href="#DejaVuSans-Oblique-6e" transform="translate(438.525391 0.015625)"/>
     </g>
    </g>
   </g>
   <g id="matplotlib.axis_2">
    <g id="ytick_1">
     <g id="line2d_19">
      <path d="M 52.160938 235.405104 
L 568.8 235.405104 
" clip-path="url(#p1ada728cfa)" style="fill: none; stroke-dasharray: 2.96,1.28; stroke-dashoffset: 0; stroke: #b0b0b0; stroke-opacity: 0.8; stroke-width: 0.8"/>
     </g>
     <g id="line2d_20">
      <defs>
       <path id="m1110647992" d="M 0 0 
L -3.5 0 
" style="stroke: #000000; stroke-width: 0.8"/>
      </defs>
      <g>
       <use xlink:href="#m1110647992" x="52.160938" y="235.405104" style="stroke: #000000; stroke-width: 0.8"/>
      </g>
     </g>
     <g id="text_11">
      <!-- −0.4 -->
      <g transform="translate(20.878125 239.204323) scale(0.1 -0.1)">
       <defs>
        <path id="DejaVuSans-2212" d="M 678 2272 
L 4684 2272 
L 4684 1741 
L 678 1741 
L 678 2272 
z
" transform="scale(0.015625)"/>
        <path id="DejaVuSans-2e" d="M 684 794 
L 1344 794 
L 1344 0 
L 684 0 
L 684 794 
z
" transform="scale(0.015625)"/>
       </defs>
       <use xlink:href="#DejaVuSans-2212"/>
       <use xlink:href="#DejaVuSans-30" transform="translate(83.789062 0)"/>
       <use xlink:href="#DejaVuSans-2e" transform="translate(147.412109 0)"/>
       <use xlink:href="#DejaVuSans-34" transform="translate(179.199219 0)"/>
      </g>
     </g>
    </g>
    <g id="ytick_2">
     <g id="line2d_21">
      <path d="M 52.160938 184.336411 
L 568.8 184.336411 
" clip-path="url(#p1ada728cfa)" style="fill: none; stroke-dasharray: 2.96,1.28; stroke-dashoffset: 0; stroke: #b0b0b0; stroke-opacity: 0.8; stroke-width: 0.8"/>
     </g>
     <g id="line2d_22">
      <g>
       <use xlink:href="#m1110647992" x="52.160938" y="184.336411" style="stroke: #000000; stroke-width: 0.8"/>
      </g>
     </g>
     <g id="text_12">
      <!-- −0.2 -->
      <g transform="translate(20.878125 188.13563) scale(0.1 -0.1)">
       <use xlink:href="#DejaVuSans-2212"/>
       <use xlink:href="#DejaVuSans-30" transform="translate(83.789062 0)"/>
       <use xlink:href="#DejaVuSans-2e" transform="translate(147.412109 0)"/>
       <use xlink:href="#DejaVuSans-32" transform="translate(179.199219 0)"/>
      </g>
     </g>
    </g>
    <g id="ytick_3">
     <g id="line2d_23">
      <path d="M 52.160938 133.267718 
L 568.8 133.267718 
" clip-path="url(#p1ada728cfa)" style="fill: none; stroke-dasharray: 2.96,1.28; stroke-dashoffset: 0; stroke: #b0b0b0; stroke-opacity: 0.8; stroke-width: 0.8"/>
     </g>
     <g id="line2d_24">
      <g>
       <use xlink:href="#m1110647992" x="52.160938" y="133.267718" style="stroke: #000000; stroke-width: 0.8"/>
      </g>
     </g>
     <g id="text_13">
      <!-- 0.0 -->
      <g transform="translate(29.257812 137.066937) scale(0.1 -0.1)">
       <use xlink:href="#DejaVuSans-30"/>
       <use xlink:href="#DejaVuSans-2e" transform="translate(63.623047 0)"/>
       <use xlink:href="#DejaVuSans-30" transform="translate(95.410156 0)"/>
      </g>
     </g>
    </g>
    <g id="ytick_4">
     <g id="line2d_25">
      <path d="M 52.160938 82.199026 
L 568.8 82.199026 
" clip-path="url(#p1ada728cfa)" style="fill: none; stroke-dasharray: 2.96,1.28; stroke-dashoffset: 0; stroke: #b0b0b0; stroke-opacity: 0.8; stroke-width: 0.8"/>
     </g>
     <g id="line2d_26">
      <g>
       <use xlink:href="#m1110647992" x="52.160938" y="82.199026" style="stroke: #000000; stroke-width: 0.8"/>
      </g>
     </g>
     <g id="text_14">
      <!-- 0.2 -->
      <g transform="translate(29.257812 85.998244) scale(0.1 -0.1)">
       <use xlink:href="#DejaVuSans-30"/>
       <use xlink:href="#DejaVuSans-2e" transform="translate(63.623047 0)"/>
       <use xlink:href="#DejaVuSans-32" transform="translate(95.410156 0)"/>
      </g>
     </g>
    </g>
    <g id="ytick_5">
     <g id="line2d_27">
      <path d="M 52.160938 31.130333 
L 568.8 31.130333 
" clip-path="url(#p1ada728cfa)" style="fill: none; stroke-dasharray: 2.96,1.28; stroke-dashoffset: 0; stroke: #b0b0b0; stroke-opacity: 0.8; stroke-width: 0.8"/>
     </g>
     <g id="line2d_28">
      <g>
       <use xlink:href="#m1110647992" x="52.160938" y="31.130333" style="stroke: #000000; stroke-width: 0.8"/>
      </g>
     </g>
     <g id="text_15">
      <!-- 0.4 -->
      <g transform="translate(29.257812 34.929552) scale(0.1 -0.1)">
       <use xlink:href="#DejaVuSans-30"/>
       <use xlink:href="#DejaVuSans-2e" transform="translate(63.623047 0)"/>
       <use xlink:href="#DejaVuSans-34" transform="translate(95.410156 0)"/>
      </g>
     </g>
    </g>
    <g id="text_16">
     <!-- Amplitude -->
     <g transform="translate(14.798437 154.433594) rotate(-90) scale(0.1 -0.1)">
      <defs>
       <path id="DejaVuSans-41" d="M 2188 4044 
L 1331 1722 
L 3047 1722 
L 2188 4044 
z
M 1831 4666 
L 2547 4666 
L 4325 0 
L 3669 0 
L 3244 1197 
L 1141 1197 
L 716 0 
L 50 0 
L 1831 4666 
z
" transform="scale(0.015625)"/>
       <path id="DejaVuSans-69" d="M 603 3500 
L 1178 3500 
L 1178 0 
L 603 0 
L 603 3500 
z
M 603 4863 
L 1178 4863 
L 1178 4134 
L 603 4134 
L 603 4863 
z
" transform="scale(0.015625)"/>
       <path id="DejaVuSans-74" d="M 1172 4494 
L 1172 3500 
L 2356 3500 
L 2356 3053 
L 1172 3053 
L 1172 1153 
Q 1172 725 1289 603 
Q 1406 481 1766 481 
L 2356 481 
L 2356 0 
L 1766 0 
Q 1100 0 847 248 
Q 594 497 594 1153 
L 594 3053 
L 172 3053 
L 172 3500 
L 594 3500 
L 594 4494 
L 1172 4494 
z
" transform="scale(0.015625)"/>
       <path id="DejaVuSans-75" d="M 544 1381 
L 544 3500 
L 1119 3500 
L 1119 1403 
Q 1119 906 1312 657 
Q 1506 409 1894 409 
Q 2359 409 2629 706 
Q 2900 1003 2900 1516 
L 2900 3500 
L 3475 3500 
L 3475 0 
L 2900 0 
L 2900 538 
Q 2691 219 2414 64 
Q 2138 -91 1772 -91 
Q 1169 -91 856 284 
Q 544 659 544 1381 
z
M 1991 3584 
L 1991 3584 
z
" transform="scale(0.015625)"/>
       <path id="DejaVuSans-64" d="M 2906 2969 
L 2906 4863 
L 3481 4863 
L 3481 0 
L 2906 0 
L 2906 525 
Q 2725 213 2448 61 
Q 2172 -91 1784 -91 
Q 1150 -91 751 415 
Q 353 922 353 1747 
Q 353 2572 751 3078 
Q 1150 3584 1784 3584 
Q 2172 3584 2448 3432 
Q 2725 3281 2906 2969 
z
M 947 1747 
Q 947 1113 1208 752 
Q 1469 391 1925 391 
Q 2381 391 2643 752 
Q 2906 1113 2906 1747 
Q 2906 2381 2643 2742 
Q 2381 3103 1925 3103 
Q 1469 3103 1208 2742 
Q 947 2381 947 1747 
z
" transform="scale(0.015625)"/>
      </defs>
      <use xlink:href="#DejaVuSans-41"/>
      <use xlink:href="#DejaVuSans-6d" transform="translate(68.408203 0)"/>
      <use xlink:href="#DejaVuSans-70" transform="translate(165.820312 0)"/>
      <use xlink:href="#DejaVuSans-6c" transform="translate(229.296875 0)"/>
      <use xlink:href="#DejaVuSans-69" transform="translate(257.080078 0)"/>
      <use xlink:href="#DejaVuSans-74" transform="translate(284.863281 0)"/>
      <use xlink:href="#DejaVuSans-75" transform="translate(324.072266 0)"/>
      <use xlink:href="#DejaVuSans-64" transform="translate(387.451172 0)"/>
      <use xlink:href="#DejaVuSans-65" transform="translate(450.927734 0)"/>
     </g>
    </g>
   </g>
   <g id="line2d_29">
    <path d="M 75.644531 135.724436 
L 76.821654 134.174803 
L 77.998776 132.991501 
L 79.175899 132.047796 
L 80.353021 133.959564 
L 81.530144 133.497275 
L 82.707266 135.04692 
L 83.884389 140.165603 
L 85.061511 135.239649 
L 86.238634 136.655005 
L 87.415756 132.289102 
L 88.592879 130.011182 
L 89.770001 125.762808 
L 90.947124 132.269052 
L 92.124246 128.131008 
L 93.301369 128.256323 
L 94.478491 125.002454 
L 95.655614 127.036353 
L 96.832736 137.69217 
L 98.009859 129.966674 
L 99.186981 141.30802 
L 100.364104 140.19838 
L 101.541226 146.408054 
L 102.718349 139.801699 
L 103.895471 136.391545 
L 105.072594 129.606967 
L 106.249716 129.750735 
L 107.426839 127.067633 
L 108.603961 118.916058 
L 109.781084 109.031238 
L 110.958206 110.798348 
L 112.135329 115.393357 
L 113.312451 122.890315 
L 114.489574 134.2282 
L 115.666696 159.172863 
L 116.843819 172.82182 
L 118.020941 192.380648 
L 119.198064 200.793237 
L 120.375186 213.530431 
L 121.552309 212.456271 
L 122.729431 207.057026 
L 123.906553 199.056683 
L 125.083676 175.289748 
L 126.260798 146.398087 
L 127.437921 127.774566 
L 128.615043 97.992108 
L 129.792166 77.718184 
L 130.969288 64.755348 
L 132.146411 62.514649 
L 133.323533 55.896407 
L 135.677778 90.875624 
L 136.854901 120.692525 
L 138.032023 147.036326 
L 139.209146 168.229451 
L 140.386268 191.663024 
L 141.563391 209.358078 
L 142.740513 220.140617 
L 143.917636 218.478332 
L 145.094758 218.557834 
L 146.271881 213.790753 
L 147.449003 197.00687 
L 148.626126 192.912104 
L 149.803248 186.991485 
L 150.980371 179.40133 
L 152.157493 188.560144 
L 153.334616 200.817771 
L 154.511738 203.478285 
L 156.865983 216.385725 
L 158.043106 227.230453 
L 159.220228 217.494272 
L 160.397351 200.637379 
L 161.574473 192.330018 
L 162.751596 174.264006 
L 163.928718 144.752001 
L 165.105841 110.359306 
L 166.282963 90.971839 
L 167.460086 73.890197 
L 168.637208 54.112325 
L 169.814331 56.827835 
L 170.991453 68.029533 
L 172.168576 82.127185 
L 173.345698 102.23158 
L 174.522821 133.987285 
L 175.699943 148.996837 
L 176.877066 178.006358 
L 178.054188 194.981604 
L 179.231311 204.097963 
L 180.408433 203.06473 
L 181.585556 199.692908 
L 182.762678 185.78393 
L 183.939801 167.839462 
L 185.116923 145.411792 
L 186.294046 111.093205 
L 187.471168 81.873384 
L 188.648291 56.688582 
L 189.825413 40.596688 
L 191.002536 30.786663 
L 192.179658 31.860171 
L 193.356781 25.32494 
L 195.711026 46.080848 
L 196.888148 66.155743 
L 198.065271 73.932524 
L 199.242393 94.978081 
L 200.419516 106.52238 
L 201.596638 126.729822 
L 202.773761 133.909906 
L 203.950883 143.392728 
L 207.482251 194.001088 
L 208.659373 205.78084 
L 209.836496 212.446464 
L 211.013618 223.254607 
L 212.190741 236.355409 
L 213.367863 227.301555 
L 214.544986 227.637377 
L 215.722108 226.515482 
L 218.076353 190.145544 
L 219.253475 158.125442 
L 222.784843 92.219638 
L 223.961965 80.713566 
L 225.139088 66.482939 
L 226.31621 66.46046 
L 227.493333 69.006355 
L 228.670455 70.848255 
L 229.847578 89.914305 
L 231.0247 110.816575 
L 233.378945 159.270952 
L 234.556068 180.974944 
L 235.73319 194.82843 
L 236.910313 210.943055 
L 238.087435 224.517366 
L 239.264558 232.908358 
L 240.44168 236.377687 
L 241.618803 239.366335 
L 242.795925 227.868227 
L 243.973048 209.675891 
L 245.15017 201.707763 
L 246.327293 176.922862 
L 247.504415 158.470684 
L 248.681538 132.936821 
L 249.85866 123.769213 
L 251.035783 102.249005 
L 252.212905 84.600081 
L 253.390028 75.724079 
L 254.56715 64.130851 
L 255.744273 64.4051 
L 256.921395 55.055489 
L 258.098518 59.869198 
L 259.27564 60.344966 
L 260.452763 66.224367 
L 261.629885 69.779201 
L 262.807008 69.490621 
L 263.98413 67.636043 
L 265.161253 69.649339 
L 266.338375 71.242402 
L 267.515498 70.973886 
L 268.69262 59.590112 
L 269.869743 59.570577 
L 271.046865 61.759207 
L 272.223988 66.037733 
L 273.40111 69.346437 
L 274.578233 74.852376 
L 275.755355 85.507318 
L 276.932478 98.1811 
L 278.1096 115.436227 
L 279.286723 145.242136 
L 280.463845 159.421462 
L 281.640968 180.684025 
L 282.81809 189.394966 
L 283.995213 211.412894 
L 285.172335 225.041588 
L 286.349458 235.040883 
L 287.52658 236.200993 
L 288.703703 236.670996 
L 289.880825 235.19611 
L 291.057948 219.158445 
L 293.412193 179.692976 
L 294.589315 151.476052 
L 295.766438 138.152636 
L 296.94356 113.020825 
L 298.120683 90.940992 
L 299.297805 75.744977 
L 300.474928 70.932819 
L 301.65205 63.461806 
L 302.829173 75.006328 
L 304.006295 83.895212 
L 305.183418 100.142414 
L 306.36054 122.357217 
L 307.537663 142.0264 
L 308.714785 174.400447 
L 309.891908 185.927379 
L 311.06903 194.785336 
L 312.246152 215.60817 
L 313.423275 216.82381 
L 314.600397 223.332678 
L 315.77752 216.753114 
L 316.954642 212.899574 
L 318.131765 210.325873 
L 319.308887 194.321353 
L 320.48601 191.838505 
L 321.663132 180.123305 
L 322.840255 175.072832 
L 324.017377 184.663797 
L 325.1945 184.035039 
L 326.371622 191.199939 
L 327.548745 190.107375 
L 328.725867 197.928128 
L 329.90299 204.948465 
L 331.080112 208.233259 
L 332.257235 203.703705 
L 333.434357 200.390842 
L 334.61148 200.634894 
L 335.788602 195.579749 
L 336.965725 191.381914 
L 338.142847 189.182757 
L 339.31997 192.661552 
L 340.497092 191.268205 
L 341.674215 196.171585 
L 342.851337 196.172173 
L 344.02846 193.725661 
L 345.205582 207.253939 
L 346.382705 206.771749 
L 347.559827 209.923099 
L 348.73695 191.331856 
L 349.914072 194.86533 
L 351.091195 200.007575 
L 352.268317 194.669635 
L 353.44544 191.579231 
L 354.622562 192.144933 
L 355.799685 192.556491 
L 356.976807 191.649166 
L 358.15393 198.373366 
L 359.331052 198.14808 
L 360.508175 207.706707 
L 361.685297 200.075871 
L 362.86242 203.309085 
L 364.039542 207.054053 
L 365.216665 207.830441 
L 366.393787 202.841086 
L 367.57091 194.93734 
L 368.748032 186.183156 
L 369.925155 172.668705 
L 371.102277 173.152889 
L 372.2794 144.235781 
L 373.456522 123.363291 
L 374.633645 107.800299 
L 375.810767 95.630589 
L 376.98789 71.505545 
L 379.342135 41.062543 
L 380.519257 36.381625 
L 381.69638 29.144034 
L 382.873502 36.21864 
L 384.050625 32.499365 
L 385.227747 50.569209 
L 386.40487 64.395868 
L 387.581992 87.414685 
L 388.759115 115.67161 
L 389.936237 136.452208 
L 391.11336 161.04154 
L 392.290482 179.263021 
L 393.467605 191.738626 
L 394.644727 195.189059 
L 395.82185 200.232054 
L 396.998972 193.276424 
L 399.353217 175.431081 
L 400.53034 142.631561 
L 402.884585 101.800351 
L 404.061707 77.865735 
L 405.238829 56.818704 
L 406.415952 49.890667 
L 407.593074 45.479131 
L 408.770197 48.656721 
L 409.947319 55.434368 
L 411.124442 58.169218 
L 412.301564 65.450053 
L 413.478687 69.174931 
L 414.655809 78.515502 
L 415.832932 81.077514 
L 417.010054 90.173689 
L 419.364299 68.987729 
L 420.541422 67.032618 
L 421.718544 59.341523 
L 422.895667 59.511223 
L 424.072789 57.390483 
L 425.249912 58.851431 
L 426.427034 69.907234 
L 427.604157 73.180185 
L 428.781279 76.931883 
L 429.958402 81.474962 
L 431.135524 88.132863 
L 432.312647 92.665529 
L 433.489769 80.466576 
L 434.666892 73.735286 
L 435.844014 60.036055 
L 437.021137 56.184679 
L 438.198259 47.143158 
L 439.375382 33.617463 
L 440.552504 37.827655 
L 441.729627 38.692522 
L 442.906749 58.60216 
L 444.083872 76.377602 
L 445.260994 106.722442 
L 448.792362 187.442648 
L 449.969484 200.785543 
L 451.146607 220.268849 
L 452.323729 212.766455 
L 453.500852 198.110731 
L 454.677974 177.332664 
L 455.855097 152.022229 
L 457.032219 134.625703 
L 458.209342 102.623892 
L 460.563587 63.140232 
L 462.917832 67.769524 
L 464.094954 74.918889 
L 465.272077 93.752636 
L 466.449199 126.629154 
L 467.626322 148.978109 
L 468.803444 175.623015 
L 469.980567 197.300118 
L 471.157689 209.17885 
L 472.334812 208.88399 
L 473.511934 200.993742 
L 474.689057 188.780918 
L 475.866179 174.642263 
L 477.043302 148.18729 
L 479.397547 87.238283 
L 481.751792 42.546974 
L 482.928914 22.159811 
L 484.106037 23.21461 
L 485.283159 18.25554 
L 486.460282 27.74623 
L 488.814527 56.015157 
L 489.991649 77.059667 
L 491.168772 90.44448 
L 492.345894 111.078375 
L 493.523017 125.563982 
L 494.700139 146.183314 
L 495.877262 157.300353 
L 497.054384 170.670501 
L 498.231507 180.551375 
L 500.585751 198.703485 
L 501.762874 218.642872 
L 502.939996 209.244105 
L 504.117119 208.424613 
L 505.294241 219.625118 
L 506.471364 215.583515 
L 507.648486 205.960285 
L 508.825609 208.530149 
L 510.002731 201.252929 
L 511.179854 188.310297 
L 512.356976 185.891951 
L 513.534099 182.750392 
L 514.711221 169.82797 
L 515.888344 183.395182 
L 517.065466 178.978067 
L 518.242589 187.308095 
L 519.419711 205.79601 
L 520.596834 213.36707 
L 521.773956 218.602642 
L 522.951079 234.760363 
L 524.128201 225.611871 
L 525.305324 231.821359 
L 526.482446 219.336601 
L 530.013814 163.339448 
L 531.190936 132.588571 
L 532.368059 106.588615 
L 533.545181 89.655695 
L 534.722304 71.063487 
L 535.899426 67.007179 
L 537.076549 65.5578 
L 538.253671 72.292011 
L 539.430794 87.359912 
L 540.607916 104.399438 
L 541.785039 132.604626 
L 542.962161 153.897803 
L 544.139284 178.766429 
L 545.316406 191.029451 
L 545.316406 191.029451 
" clip-path="url(#p1ada728cfa)" style="fill: none; stroke: #1f77b4; stroke-linecap: square"/>
   </g>
   <g id="line2d_30">
    <path d="M 75.644531 129.834185 
L 76.821654 133.60872 
L 77.998776 132.852683 
L 79.175899 130.409961 
L 80.353021 132.604855 
L 81.530144 138.141314 
L 82.707266 131.345254 
L 83.884389 136.186316 
L 85.061511 132.855858 
L 86.238634 126.170219 
L 87.415756 133.234237 
L 88.592879 134.492451 
L 89.770001 133.659323 
L 90.947124 135.00235 
L 93.301369 138.780186 
L 94.478491 135.620016 
L 95.655614 134.158302 
L 96.832736 131.423458 
L 98.009859 127.120638 
L 99.186981 125.933386 
L 100.364104 123.707515 
L 101.541226 119.626079 
L 102.718349 126.185718 
L 103.895471 127.646106 
L 105.072594 130.03843 
L 106.249716 138.196942 
L 107.426839 145.485813 
L 108.603961 149.673301 
L 109.781084 146.713452 
L 110.958206 154.525796 
L 112.135329 146.358151 
L 113.312451 140.661688 
L 114.489574 131.898269 
L 115.666696 120.830492 
L 116.843819 102.794103 
L 118.020941 80.996564 
L 119.198064 70.762805 
L 120.375186 62.060372 
L 121.552309 66.222675 
L 122.729431 71.370187 
L 123.906553 75.252019 
L 125.083676 91.65624 
L 126.260798 105.487245 
L 127.437921 127.45054 
L 129.792166 166.703328 
L 130.969288 183.634028 
L 133.323533 211.784006 
L 134.500656 215.292757 
L 135.677778 218.311734 
L 136.854901 215.35644 
L 138.032023 211.211611 
L 139.209146 202.352165 
L 140.386268 190.011214 
L 141.563391 190.008364 
L 142.740513 188.838749 
L 143.917636 186.96845 
L 145.094758 194.345194 
L 146.271881 185.224814 
L 147.449003 190.278016 
L 148.626126 197.668105 
L 149.803248 198.541762 
L 150.980371 215.631545 
L 152.157493 206.775571 
L 153.334616 204.179076 
L 155.688861 193.211137 
L 156.865983 193.674144 
L 158.043106 188.775756 
L 159.220228 191.188959 
L 160.397351 188.716387 
L 161.574473 196.104897 
L 162.751596 204.652924 
L 163.928718 207.959977 
L 165.105841 220.575497 
L 166.282963 215.173752 
L 168.637208 212.281517 
L 169.814331 202.35034 
L 170.991453 189.522994 
L 172.168576 180.063882 
L 174.522821 128.002101 
L 175.699943 118.698992 
L 176.877066 91.969094 
L 178.054188 79.037397 
L 179.231311 58.052305 
L 180.408433 51.433384 
L 181.585556 49.143939 
L 182.762678 50.104343 
L 183.939801 56.163673 
L 185.116923 53.808023 
L 186.294046 64.105842 
L 187.471168 70.476345 
L 188.648291 77.782947 
L 189.825413 75.872967 
L 191.002536 81.344861 
L 192.179658 70.852487 
L 193.356781 71.557139 
L 194.533903 66.525432 
L 195.711026 65.659683 
L 196.888148 58.430261 
L 198.065271 54.092237 
L 199.242393 59.563338 
L 200.419516 71.580883 
L 201.596638 73.032652 
L 202.773761 78.11929 
L 203.950883 77.515916 
L 205.128006 84.180494 
L 206.305128 82.663415 
L 207.482251 78.274895 
L 208.659373 67.641011 
L 209.836496 53.154821 
L 211.013618 53.536835 
L 212.190741 52.867986 
L 213.367863 36.898022 
L 214.544986 34.155031 
L 215.722108 38.443539 
L 218.076353 78.135637 
L 220.430598 130.47139 
L 221.60772 150.099104 
L 222.784843 174.326956 
L 223.961965 206.219155 
L 225.139088 208.360362 
L 226.31621 212.412142 
L 227.493333 200.941503 
L 228.670455 182.234298 
L 229.847578 154.592404 
L 231.0247 135.899902 
L 233.378945 87.701424 
L 234.556068 67.937474 
L 236.910313 53.991299 
L 238.087435 69.157552 
L 239.264558 90.276756 
L 240.44168 104.545174 
L 241.618803 139.032936 
L 242.795925 161.494332 
L 243.973048 176.557042 
L 245.15017 215.131183 
L 246.327293 213.93352 
L 247.504415 224.369547 
L 248.681538 228.249687 
L 249.85866 218.306012 
L 251.035783 212.203682 
L 252.212905 199.475455 
L 253.390028 191.751524 
L 254.56715 190.704054 
L 255.744273 177.89045 
L 256.921395 179.600115 
L 258.098518 181.043615 
L 259.27564 190.629474 
L 260.452763 201.829687 
L 261.629885 200.844791 
L 262.807008 206.29447 
L 263.98413 213.598159 
L 265.161253 201.173871 
L 266.338375 209.446354 
L 267.515498 196.940197 
L 268.69262 188.766826 
L 269.869743 187.488245 
L 271.046865 181.907373 
L 272.223988 179.890293 
L 273.40111 181.093455 
L 274.578233 190.767887 
L 275.755355 201.868331 
L 276.932478 222.542485 
L 278.1096 224.096002 
L 279.286723 234.519731 
L 280.463845 236.097706 
L 281.640968 226.580148 
L 282.81809 207.223568 
L 283.995213 180.542723 
L 285.172335 156.645986 
L 286.349458 139.041509 
L 287.52658 109.978233 
L 288.703703 78.061313 
L 289.880825 73.216619 
L 291.057948 54.174217 
L 292.23507 56.666512 
L 293.412193 70.003947 
L 294.589315 80.194754 
L 296.94356 131.719085 
L 298.120683 156.223932 
L 299.297805 174.564787 
L 300.474928 203.029443 
L 301.65205 202.747471 
L 302.829173 211.582479 
L 304.006295 195.054645 
L 305.183418 181.339189 
L 306.36054 159.520376 
L 309.891908 77.924268 
L 311.06903 59.182487 
L 312.246152 50.213563 
L 313.423275 26.943887 
L 314.600397 24.95594 
L 315.77752 28.831445 
L 316.954642 33.641038 
L 318.131765 46.729385 
L 319.308887 66.753631 
L 320.48601 70.884088 
L 321.663132 81.770226 
L 322.840255 108.548108 
L 324.017377 125.469499 
L 325.1945 137.91785 
L 326.371622 152.506781 
L 328.725867 188.986344 
L 329.90299 190.620983 
L 331.080112 208.349702 
L 332.257235 210.902876 
L 334.61148 226.493348 
L 335.788602 219.072776 
L 336.965725 213.553242 
L 338.142847 208.768593 
L 339.31997 195.364423 
L 340.497092 184.35449 
L 342.851337 150.245817 
L 345.205582 111.263582 
L 346.382705 100.830193 
L 347.559827 86.152437 
L 348.73695 75.199007 
L 349.914072 59.814334 
L 351.091195 46.912221 
L 352.268317 39.052219 
L 353.44544 42.614784 
L 354.622562 42.776498 
L 355.799685 41.851602 
L 356.976807 58.119583 
L 358.15393 56.355424 
L 359.331052 74.515438 
L 364.039542 167.63532 
L 366.393787 196.78039 
L 367.57091 204.47216 
L 368.748032 203.151219 
L 369.925155 210.484354 
L 371.102277 206.870132 
L 372.2794 201.124655 
L 373.456522 197.279837 
L 374.633645 186.05896 
L 375.810767 187.916226 
L 376.98789 187.579048 
L 378.165012 196.044382 
L 379.342135 196.467723 
L 380.519257 208.6935 
L 381.69638 211.718224 
L 382.873502 218.458719 
L 384.050625 221.519701 
L 385.227747 218.209047 
L 386.40487 205.232111 
L 388.759115 170.276048 
L 389.936237 147.57589 
L 392.290482 95.268564 
L 393.467605 74.068321 
L 394.644727 71.623614 
L 395.82185 54.295537 
L 396.998972 59.59227 
L 398.176095 79.58362 
L 399.353217 84.804222 
L 400.53034 127.309848 
L 401.707462 143.441291 
L 402.884585 165.525185 
L 404.061707 190.945224 
L 405.238829 202.391739 
L 407.593074 219.764454 
L 408.770197 219.118517 
L 409.947319 207.599666 
L 411.124442 213.66155 
L 412.301564 204.408735 
L 413.478687 191.077203 
L 414.655809 202.616026 
L 415.832932 191.049758 
L 417.010054 185.530681 
L 418.187177 197.217099 
L 419.364299 200.522678 
L 420.541422 204.282245 
L 421.718544 205.418097 
L 422.895667 202.857203 
L 424.072789 195.339053 
L 425.249912 185.192021 
L 426.427034 183.898201 
L 427.604157 171.29347 
L 428.781279 144.878842 
L 429.958402 130.407365 
L 431.135524 109.95566 
L 432.312647 77.61315 
L 433.489769 73.946068 
L 434.666892 54.606714 
L 435.844014 38.059028 
L 437.021137 33.15978 
L 438.198259 29.088626 
L 439.375382 25.95146 
L 440.552504 45.420905 
L 441.729627 49.501036 
L 442.906749 69.870164 
L 444.083872 87.923227 
L 445.260994 110.657361 
L 446.438117 127.32316 
L 447.615239 158.134252 
L 449.969484 187.425562 
L 451.146607 189.94262 
L 452.323729 202.368924 
L 453.500852 199.732083 
L 454.677974 184.662676 
L 455.855097 171.556382 
L 457.032219 149.726761 
L 458.209342 132.642217 
L 459.386464 103.119614 
L 460.563587 80.625742 
L 461.740709 70.085566 
L 462.917832 45.312229 
L 464.094954 36.130989 
L 465.272077 28.617461 
L 467.626322 33.18694 
L 469.980567 60.408792 
L 471.157689 71.525178 
L 472.334812 84.528313 
L 473.511934 107.064054 
L 474.689057 117.862288 
L 475.866179 137.23411 
L 477.043302 146.475071 
L 478.220424 165.953843 
L 480.574669 194.595719 
L 481.751792 202.261161 
L 482.928914 214.91948 
L 484.106037 220.292188 
L 485.283159 215.773432 
L 486.460282 224.387159 
L 487.637404 227.660772 
L 488.814527 206.532866 
L 489.991649 195.14214 
L 491.168772 192.889677 
L 492.345894 169.476514 
L 493.523017 149.167414 
L 494.700139 134.555984 
L 495.877262 115.645218 
L 497.054384 103.597561 
L 498.231507 87.59011 
L 499.408629 74.368785 
L 500.585751 54.689186 
L 501.762874 53.452738 
L 502.939996 35.741732 
L 504.117119 35.962128 
L 505.294241 44.466969 
L 506.471364 49.566427 
L 507.648486 57.06581 
L 510.002731 80.230302 
L 511.179854 100.629448 
L 513.534099 136.497688 
L 514.711221 164.467291 
L 515.888344 172.318762 
L 517.065466 187.877965 
L 518.242589 196.779215 
L 519.419711 201.342123 
L 520.596834 211.441135 
L 521.773956 209.077818 
L 522.951079 215.139439 
L 524.128201 214.665834 
L 525.305324 212.266672 
L 526.482446 208.068538 
L 527.659569 202.322599 
L 528.836691 199.734346 
L 530.013814 187.945088 
L 531.190936 178.476498 
L 532.368059 176.799655 
L 533.545181 176.335066 
L 534.722304 181.262998 
L 535.899426 178.555236 
L 537.076549 181.642947 
L 538.253671 203.510485 
L 539.430794 209.638703 
L 540.607916 226.576303 
L 541.785039 233.590921 
L 542.962161 230.355216 
L 544.139284 232.272399 
L 545.316406 228.656801 
L 545.316406 228.656801 
" clip-path="url(#p1ada728cfa)" style="fill: none; stroke: #ff7f0e; stroke-linecap: square"/>
   </g>
   <g id="patch_3">
    <path d="M 52.160938 250.421875 
L 52.160938 7.2 
" style="fill: none; stroke: #000000; stroke-width: 0.8; stroke-linejoin: miter; stroke-linecap: square"/>
   </g>
   <g id="patch_4">
    <path d="M 568.8 250.421875 
L 568.8 7.2 
" style="fill: none; stroke: #000000; stroke-width: 0.8; stroke-linejoin: miter; stroke-linecap: square"/>
   </g>
   <g id="patch_5">
    <path d="M 52.160937 250.421875 
L 568.8 250.421875 
" style="fill: none; stroke: #000000; stroke-width: 0.8; stroke-linejoin: miter; stroke-linecap: square"/>
   </g>
   <g id="patch_6">
    <path d="M 52.160937 7.2 
L 568.8 7.2 
" style="fill: none; stroke: #000000; stroke-width: 0.8; stroke-linejoin: miter; stroke-linecap: square"/>
   </g>
   <g id="legend_1">
    <g id="patch_7">
     <path d="M 59.160938 44.55625 
L 116.15625 44.55625 
Q 118.15625 44.55625 118.15625 42.55625 
L 118.15625 14.2 
Q 118.15625 12.2 116.15625 12.2 
L 59.160938 12.2 
Q 57.160938 12.2 57.160938 14.2 
L 57.160938 42.55625 
Q 57.160938 44.55625 59.160938 44.55625 
z
" style="fill: #ffffff; opacity: 0.8; stroke: #cccccc; stroke-linejoin: miter"/>
    </g>
    <g id="line2d_31">
     <path d="M 61.160938 20.298437 
L 71.160938 20.298437 
L 81.160938 20.298437 
" style="fill: none; stroke: #1f77b4; stroke-linecap: square"/>
    </g>
    <g id="text_17">
     <!-- real -->
     <g transform="translate(89.160938 23.798437) scale(0.1 -0.1)">
      <defs>
       <path id="DejaVuSans-72" d="M 2631 2963 
Q 2534 3019 2420 3045 
Q 2306 3072 2169 3072 
Q 1681 3072 1420 2755 
Q 1159 2438 1159 1844 
L 1159 0 
L 581 0 
L 581 3500 
L 1159 3500 
L 1159 2956 
Q 1341 3275 1631 3429 
Q 1922 3584 2338 3584 
Q 2397 3584 2469 3576 
Q 2541 3569 2628 3553 
L 2631 2963 
z
" transform="scale(0.015625)"/>
      </defs>
      <use xlink:href="#DejaVuSans-72"/>
      <use xlink:href="#DejaVuSans-65" transform="translate(38.863281 0)"/>
      <use xlink:href="#DejaVuSans-61" transform="translate(100.386719 0)"/>
      <use xlink:href="#DejaVuSans-6c" transform="translate(161.666016 0)"/>
     </g>
    </g>
    <g id="line2d_32">
     <path d="M 61.160938 34.976562 
L 71.160938 34.976562 
L 81.160938 34.976562 
" style="fill: none; stroke: #ff7f0e; stroke-linecap: square"/>
    </g>
    <g id="text_18">
     <!-- imag -->
     <g transform="translate(89.160938 38.476562) scale(0.1 -0.1)">
      <defs>
       <path id="DejaVuSans-67" d="M 2906 1791 
Q 2906 2416 2648 2759 
Q 2391 3103 1925 3103 
Q 1463 3103 1205 2759 
Q 947 2416 947 1791 
Q 947 1169 1205 825 
Q 1463 481 1925 481 
Q 2391 481 2648 825 
Q 2906 1169 2906 1791 
z
M 3481 434 
Q 3481 -459 3084 -895 
Q 2688 -1331 1869 -1331 
Q 1566 -1331 1297 -1286 
Q 1028 -1241 775 -1147 
L 775 -588 
Q 1028 -725 1275 -790 
Q 1522 -856 1778 -856 
Q 2344 -856 2625 -561 
Q 2906 -266 2906 331 
L 2906 616 
Q 2728 306 2450 153 
Q 2172 0 1784 0 
Q 1141 0 747 490 
Q 353 981 353 1791 
Q 353 2603 747 3093 
Q 1141 3584 1784 3584 
Q 2172 3584 2450 3431 
Q 2728 3278 2906 2969 
L 2906 3500 
L 3481 3500 
L 3481 434 
z
" transform="scale(0.015625)"/>
      </defs>
      <use xlink:href="#DejaVuSans-69"/>
      <use xlink:href="#DejaVuSans-6d" transform="translate(27.783203 0)"/>
      <use xlink:href="#DejaVuSans-61" transform="translate(125.195312 0)"/>
      <use xlink:href="#DejaVuSans-67" transform="translate(186.474609 0)"/>
     </g>
    </g>
   </g>
  </g>
 </g>
 <defs>
  <clipPath id="p1ada728cfa">
   <rect x="52.160938" y="7.2" width="516.639063" height="243.221875"/>
  </clipPath>
 </defs>
</svg>
