<?xml version="1.0" encoding="utf-8" standalone="no"?>
<!DOCTYPE svg PUBLIC "-//W3C//DTD SVG 1.1//EN"
  "http://www.w3.org/Graphics/SVG/1.1/DTD/svg11.dtd">
<svg xmlns:xlink="http://www.w3.org/1999/xlink" width="576pt" height="288pt" viewBox="0 0 576 288" xmlns="http://www.w3.org/2000/svg" version="1.1">
 <metadata>
  <rdf:RDF xmlns:dc="http://purl.org/dc/elements/1.1/" xmlns:cc="http://creativecommons.org/ns#" xmlns:rdf="http://www.w3.org/1999/02/22-rdf-syntax-ns#">
   <cc:Work>
    <dc:type rdf:resource="http://purl.org/dc/dcmitype/StillImage"/>
    <dc:date>2025-11-29T03:58:20.025702</dc:date>
    <dc:format>image/svg+xml</dc:format>
    <dc:creator>
     <cc:Agent>
      <dc:title>Matplotlib v3.10.7, https://matplotlib.org/</dc:title>
     </cc:Agent>
    </dc:creator>
   </cc:Work>
  </rdf:RDF>
 </metadata>
 <defs>
  <style type="text/css">*{stroke-linejoin: round; stroke-linecap: butt}</style>
 </defs>
 <g id="figure_1">
  <g id="patch_1">
   <path d="M 0 288 
L 576 288 
L 576 0 
L 0 0 
z
" style="fill: #ffffff"/>
  </g>
  <g id="axes_1">
   <g id="patch_2">
    <path d="M 52.160938 250.421875 
L 568.8 250.421875 
L 568.8 7.2 
L 52.160938 7.2 
z
" style="fill: #ffffff"/>
   </g>
   <g id="matplotlib.axis_1">
    <g id="xtick_1">
     <g id="line2d_1">
      <path d="M 75.644531 250.421875 
L 75.644531 7.2 
" clip-path="url(#p6473186776)" style="fill: none; stroke-dasharray: 2.96,1.28; stroke-dashoffset: 0; stroke: #b0b0b0; stroke-opacity: 0.8; stroke-width: 0.8"/>
     </g>
     <g id="line2d_2">
      <defs>
       <path id="ma17c45986b" d="M 0 0 
L 0 3.5 
" style="stroke: #000000; stroke-width: 0.8"/>
      </defs>
      <g>
       <use xlink:href="#ma17c45986b" x="75.644531" y="250.421875" style="stroke: #000000; stroke-width: 0.8"/>
      </g>
     </g>
     <g id="text_1">
      <!-- 0 -->
      <g transform="translate(72.463281 265.020312) scale(0.1 -0.1)">
       <defs>
        <path id="DejaVuSans-30" d="M 2034 4250 
Q 1547 4250 1301 3770 
Q 1056 3291 1056 2328 
Q 1056 1369 1301 889 
Q 1547 409 2034 409 
Q 2525 409 2770 889 
Q 3016 1369 3016 2328 
Q 3016 3291 2770 3770 
Q 2525 4250 2034 4250 
z
M 2034 4750 
Q 2819 4750 3233 4129 
Q 3647 3509 3647 2328 
Q 3647 1150 3233 529 
Q 2819 -91 2034 -91 
Q 1250 -91 836 529 
Q 422 1150 422 2328 
Q 422 3509 836 4129 
Q 1250 4750 2034 4750 
z
" transform="scale(0.015625)"/>
       </defs>
       <use xlink:href="#DejaVuSans-30"/>
      </g>
     </g>
    </g>
    <g id="xtick_2">
     <g id="line2d_3">
      <path d="M 134.500656 250.421875 
L 134.500656 7.2 
" clip-path="url(#p6473186776)" style="fill: none; stroke-dasharray: 2.96,1.28; stroke-dashoffset: 0; stroke: #b0b0b0; stroke-opacity: 0.8; stroke-width: 0.8"/>
     </g>
     <g id="line2d_4">
      <g>
       <use xlink:href="#ma17c45986b" x="134.500656" y="250.421875" style="stroke: #000000; stroke-width: 0.8"/>
      </g>
     </g>
     <g id="text_2">
      <!-- 50 -->
      <g transform="translate(128.138156 265.020312) scale(0.1 -0.1)">
       <defs>
        <path id="DejaVuSans-35" d="M 691 4666 
L 3169 4666 
L 3169 4134 
L 1269 4134 
L 1269 2991 
Q 1406 3038 1543 3061 
Q 1681 3084 1819 3084 
Q 2600 3084 3056 2656 
Q 3513 2228 3513 1497 
Q 3513 744 3044 326 
Q 2575 -91 1722 -91 
Q 1428 -91 1123 -41 
Q 819 9 494 109 
L 494 744 
Q 775 591 1075 516 
Q 1375 441 1709 441 
Q 2250 441 2565 725 
Q 2881 1009 2881 1497 
Q 2881 1984 2565 2268 
Q 2250 2553 1709 2553 
Q 1456 2553 1204 2497 
Q 953 2441 691 2322 
L 691 4666 
z
" transform="scale(0.015625)"/>
       </defs>
       <use xlink:href="#DejaVuSans-35"/>
       <use xlink:href="#DejaVuSans-30" transform="translate(63.623047 0)"/>
      </g>
     </g>
    </g>
    <g id="xtick_3">
     <g id="line2d_5">
      <path d="M 193.356781 250.421875 
L 193.356781 7.2 
" clip-path="url(#p6473186776)" style="fill: none; stroke-dasharray: 2.96,1.28; stroke-dashoffset: 0; stroke: #b0b0b0; stroke-opacity: 0.8; stroke-width: 0.8"/>
     </g>
     <g id="line2d_6">
      <g>
       <use xlink:href="#ma17c45986b" x="193.356781" y="250.421875" style="stroke: #000000; stroke-width: 0.8"/>
      </g>
     </g>
     <g id="text_3">
      <!-- 100 -->
      <g transform="translate(183.813031 265.020312) scale(0.1 -0.1)">
       <defs>
        <path id="DejaVuSans-31" d="M 794 531 
L 1825 531 
L 1825 4091 
L 703 3866 
L 703 4441 
L 1819 4666 
L 2450 4666 
L 2450 531 
L 3481 531 
L 3481 0 
L 794 0 
L 794 531 
z
" transform="scale(0.015625)"/>
       </defs>
       <use xlink:href="#DejaVuSans-31"/>
       <use xlink:href="#DejaVuSans-30" transform="translate(63.623047 0)"/>
       <use xlink:href="#DejaVuSans-30" transform="translate(127.246094 0)"/>
      </g>
     </g>
    </g>
    <g id="xtick_4">
     <g id="line2d_7">
      <path d="M 252.212905 250.421875 
L 252.212905 7.2 
" clip-path="url(#p6473186776)" style="fill: none; stroke-dasharray: 2.96,1.28; stroke-dashoffset: 0; stroke: #b0b0b0; stroke-opacity: 0.8; stroke-width: 0.8"/>
     </g>
     <g id="line2d_8">
      <g>
       <use xlink:href="#ma17c45986b" x="252.212905" y="250.421875" style="stroke: #000000; stroke-width: 0.8"/>
      </g>
     </g>
     <g id="text_4">
      <!-- 150 -->
      <g transform="translate(242.669155 265.020312) scale(0.1 -0.1)">
       <use xlink:href="#DejaVuSans-31"/>
       <use xlink:href="#DejaVuSans-35" transform="translate(63.623047 0)"/>
       <use xlink:href="#DejaVuSans-30" transform="translate(127.246094 0)"/>
      </g>
     </g>
    </g>
    <g id="xtick_5">
     <g id="line2d_9">
      <path d="M 311.06903 250.421875 
L 311.06903 7.2 
" clip-path="url(#p6473186776)" style="fill: none; stroke-dasharray: 2.96,1.28; stroke-dashoffset: 0; stroke: #b0b0b0; stroke-opacity: 0.8; stroke-width: 0.8"/>
     </g>
     <g id="line2d_10">
      <g>
       <use xlink:href="#ma17c45986b" x="311.06903" y="250.421875" style="stroke: #000000; stroke-width: 0.8"/>
      </g>
     </g>
     <g id="text_5">
      <!-- 200 -->
      <g transform="translate(301.52528 265.020312) scale(0.1 -0.1)">
       <defs>
        <path id="DejaVuSans-32" d="M 1228 531 
L 3431 531 
L 3431 0 
L 469 0 
L 469 531 
Q 828 903 1448 1529 
Q 2069 2156 2228 2338 
Q 2531 2678 2651 2914 
Q 2772 3150 2772 3378 
Q 2772 3750 2511 3984 
Q 2250 4219 1831 4219 
Q 1534 4219 1204 4116 
Q 875 4013 500 3803 
L 500 4441 
Q 881 4594 1212 4672 
Q 1544 4750 1819 4750 
Q 2544 4750 2975 4387 
Q 3406 4025 3406 3419 
Q 3406 3131 3298 2873 
Q 3191 2616 2906 2266 
Q 2828 2175 2409 1742 
Q 1991 1309 1228 531 
z
" transform="scale(0.015625)"/>
       </defs>
       <use xlink:href="#DejaVuSans-32"/>
       <use xlink:href="#DejaVuSans-30" transform="translate(63.623047 0)"/>
       <use xlink:href="#DejaVuSans-30" transform="translate(127.246094 0)"/>
      </g>
     </g>
    </g>
    <g id="xtick_6">
     <g id="line2d_11">
      <path d="M 369.925155 250.421875 
L 369.925155 7.2 
" clip-path="url(#p6473186776)" style="fill: none; stroke-dasharray: 2.96,1.28; stroke-dashoffset: 0; stroke: #b0b0b0; stroke-opacity: 0.8; stroke-width: 0.8"/>
     </g>
     <g id="line2d_12">
      <g>
       <use xlink:href="#ma17c45986b" x="369.925155" y="250.421875" style="stroke: #000000; stroke-width: 0.8"/>
      </g>
     </g>
     <g id="text_6">
      <!-- 250 -->
      <g transform="translate(360.381405 265.020312) scale(0.1 -0.1)">
       <use xlink:href="#DejaVuSans-32"/>
       <use xlink:href="#DejaVuSans-35" transform="translate(63.623047 0)"/>
       <use xlink:href="#DejaVuSans-30" transform="translate(127.246094 0)"/>
      </g>
     </g>
    </g>
    <g id="xtick_7">
     <g id="line2d_13">
      <path d="M 428.781279 250.421875 
L 428.781279 7.2 
" clip-path="url(#p6473186776)" style="fill: none; stroke-dasharray: 2.96,1.28; stroke-dashoffset: 0; stroke: #b0b0b0; stroke-opacity: 0.8; stroke-width: 0.8"/>
     </g>
     <g id="line2d_14">
      <g>
       <use xlink:href="#ma17c45986b" x="428.781279" y="250.421875" style="stroke: #000000; stroke-width: 0.8"/>
      </g>
     </g>
     <g id="text_7">
      <!-- 300 -->
      <g transform="translate(419.237529 265.020312) scale(0.1 -0.1)">
       <defs>
        <path id="DejaVuSans-33" d="M 2597 2516 
Q 3050 2419 3304 2112 
Q 3559 1806 3559 1356 
Q 3559 666 3084 287 
Q 2609 -91 1734 -91 
Q 1441 -91 1130 -33 
Q 819 25 488 141 
L 488 750 
Q 750 597 1062 519 
Q 1375 441 1716 441 
Q 2309 441 2620 675 
Q 2931 909 2931 1356 
Q 2931 1769 2642 2001 
Q 2353 2234 1838 2234 
L 1294 2234 
L 1294 2753 
L 1863 2753 
Q 2328 2753 2575 2939 
Q 2822 3125 2822 3475 
Q 2822 3834 2567 4026 
Q 2313 4219 1838 4219 
Q 1578 4219 1281 4162 
Q 984 4106 628 3988 
L 628 4550 
Q 988 4650 1302 4700 
Q 1616 4750 1894 4750 
Q 2613 4750 3031 4423 
Q 3450 4097 3450 3541 
Q 3450 3153 3228 2886 
Q 3006 2619 2597 2516 
z
" transform="scale(0.015625)"/>
       </defs>
       <use xlink:href="#DejaVuSans-33"/>
       <use xlink:href="#DejaVuSans-30" transform="translate(63.623047 0)"/>
       <use xlink:href="#DejaVuSans-30" transform="translate(127.246094 0)"/>
      </g>
     </g>
    </g>
    <g id="xtick_8">
     <g id="line2d_15">
      <path d="M 487.637404 250.421875 
L 487.637404 7.2 
" clip-path="url(#p6473186776)" style="fill: none; stroke-dasharray: 2.96,1.28; stroke-dashoffset: 0; stroke: #b0b0b0; stroke-opacity: 0.8; stroke-width: 0.8"/>
     </g>
     <g id="line2d_16">
      <g>
       <use xlink:href="#ma17c45986b" x="487.637404" y="250.421875" style="stroke: #000000; stroke-width: 0.8"/>
      </g>
     </g>
     <g id="text_8">
      <!-- 350 -->
      <g transform="translate(478.093654 265.020312) scale(0.1 -0.1)">
       <use xlink:href="#DejaVuSans-33"/>
       <use xlink:href="#DejaVuSans-35" transform="translate(63.623047 0)"/>
       <use xlink:href="#DejaVuSans-30" transform="translate(127.246094 0)"/>
      </g>
     </g>
    </g>
    <g id="xtick_9">
     <g id="line2d_17">
      <path d="M 546.493529 250.421875 
L 546.493529 7.2 
" clip-path="url(#p6473186776)" style="fill: none; stroke-dasharray: 2.96,1.28; stroke-dashoffset: 0; stroke: #b0b0b0; stroke-opacity: 0.8; stroke-width: 0.8"/>
     </g>
     <g id="line2d_18">
      <g>
       <use xlink:href="#ma17c45986b" x="546.493529" y="250.421875" style="stroke: #000000; stroke-width: 0.8"/>
      </g>
     </g>
     <g id="text_9">
      <!-- 400 -->
      <g transform="translate(536.949779 265.020312) scale(0.1 -0.1)">
       <defs>
        <path id="DejaVuSans-34" d="M 2419 4116 
L 825 1625 
L 2419 1625 
L 2419 4116 
z
M 2253 4666 
L 3047 4666 
L 3047 1625 
L 3713 1625 
L 3713 1100 
L 3047 1100 
L 3047 0 
L 2419 0 
L 2419 1100 
L 313 1100 
L 313 1709 
L 2253 4666 
z
" transform="scale(0.015625)"/>
       </defs>
       <use xlink:href="#DejaVuSans-34"/>
       <use xlink:href="#DejaVuSans-30" transform="translate(63.623047 0)"/>
       <use xlink:href="#DejaVuSans-30" transform="translate(127.246094 0)"/>
      </g>
     </g>
    </g>
    <g id="text_10">
     <!-- Sample, $n$ -->
     <g transform="translate(285.380469 278.7) scale(0.1 -0.1)">
      <defs>
       <path id="DejaVuSans-53" d="M 3425 4513 
L 3425 3897 
Q 3066 4069 2747 4153 
Q 2428 4238 2131 4238 
Q 1616 4238 1336 4038 
Q 1056 3838 1056 3469 
Q 1056 3159 1242 3001 
Q 1428 2844 1947 2747 
L 2328 2669 
Q 3034 2534 3370 2195 
Q 3706 1856 3706 1288 
Q 3706 609 3251 259 
Q 2797 -91 1919 -91 
Q 1588 -91 1214 -16 
Q 841 59 441 206 
L 441 856 
Q 825 641 1194 531 
Q 1563 422 1919 422 
Q 2459 422 2753 634 
Q 3047 847 3047 1241 
Q 3047 1584 2836 1778 
Q 2625 1972 2144 2069 
L 1759 2144 
Q 1053 2284 737 2584 
Q 422 2884 422 3419 
Q 422 4038 858 4394 
Q 1294 4750 2059 4750 
Q 2388 4750 2728 4690 
Q 3069 4631 3425 4513 
z
" transform="scale(0.015625)"/>
       <path id="DejaVuSans-61" d="M 2194 1759 
Q 1497 1759 1228 1600 
Q 959 1441 959 1056 
Q 959 750 1161 570 
Q 1363 391 1709 391 
Q 2188 391 2477 730 
Q 2766 1069 2766 1631 
L 2766 1759 
L 2194 1759 
z
M 3341 1997 
L 3341 0 
L 2766 0 
L 2766 531 
Q 2569 213 2275 61 
Q 1981 -91 1556 -91 
Q 1019 -91 701 211 
Q 384 513 384 1019 
Q 384 1609 779 1909 
Q 1175 2209 1959 2209 
L 2766 2209 
L 2766 2266 
Q 2766 2663 2505 2880 
Q 2244 3097 1772 3097 
Q 1472 3097 1187 3025 
Q 903 2953 641 2809 
L 641 3341 
Q 956 3463 1253 3523 
Q 1550 3584 1831 3584 
Q 2591 3584 2966 3190 
Q 3341 2797 3341 1997 
z
" transform="scale(0.015625)"/>
       <path id="DejaVuSans-6d" d="M 3328 2828 
Q 3544 3216 3844 3400 
Q 4144 3584 4550 3584 
Q 5097 3584 5394 3201 
Q 5691 2819 5691 2113 
L 5691 0 
L 5113 0 
L 5113 2094 
Q 5113 2597 4934 2840 
Q 4756 3084 4391 3084 
Q 3944 3084 3684 2787 
Q 3425 2491 3425 1978 
L 3425 0 
L 2847 0 
L 2847 2094 
Q 2847 2600 2669 2842 
Q 2491 3084 2119 3084 
Q 1678 3084 1418 2786 
Q 1159 2488 1159 1978 
L 1159 0 
L 581 0 
L 581 3500 
L 1159 3500 
L 1159 2956 
Q 1356 3278 1631 3431 
Q 1906 3584 2284 3584 
Q 2666 3584 2933 3390 
Q 3200 3197 3328 2828 
z
" transform="scale(0.015625)"/>
       <path id="DejaVuSans-70" d="M 1159 525 
L 1159 -1331 
L 581 -1331 
L 581 3500 
L 1159 3500 
L 1159 2969 
Q 1341 3281 1617 3432 
Q 1894 3584 2278 3584 
Q 2916 3584 3314 3078 
Q 3713 2572 3713 1747 
Q 3713 922 3314 415 
Q 2916 -91 2278 -91 
Q 1894 -91 1617 61 
Q 1341 213 1159 525 
z
M 3116 1747 
Q 3116 2381 2855 2742 
Q 2594 3103 2138 3103 
Q 1681 3103 1420 2742 
Q 1159 2381 1159 1747 
Q 1159 1113 1420 752 
Q 1681 391 2138 391 
Q 2594 391 2855 752 
Q 3116 1113 3116 1747 
z
" transform="scale(0.015625)"/>
       <path id="DejaVuSans-6c" d="M 603 4863 
L 1178 4863 
L 1178 0 
L 603 0 
L 603 4863 
z
" transform="scale(0.015625)"/>
       <path id="DejaVuSans-65" d="M 3597 1894 
L 3597 1613 
L 953 1613 
Q 991 1019 1311 708 
Q 1631 397 2203 397 
Q 2534 397 2845 478 
Q 3156 559 3463 722 
L 3463 178 
Q 3153 47 2828 -22 
Q 2503 -91 2169 -91 
Q 1331 -91 842 396 
Q 353 884 353 1716 
Q 353 2575 817 3079 
Q 1281 3584 2069 3584 
Q 2775 3584 3186 3129 
Q 3597 2675 3597 1894 
z
M 3022 2063 
Q 3016 2534 2758 2815 
Q 2500 3097 2075 3097 
Q 1594 3097 1305 2825 
Q 1016 2553 972 2059 
L 3022 2063 
z
" transform="scale(0.015625)"/>
       <path id="DejaVuSans-2c" d="M 750 794 
L 1409 794 
L 1409 256 
L 897 -744 
L 494 -744 
L 750 256 
L 750 794 
z
" transform="scale(0.015625)"/>
       <path id="DejaVuSans-20" transform="scale(0.015625)"/>
       <path id="DejaVuSans-Oblique-6e" d="M 3566 2113 
L 3156 0 
L 2578 0 
L 2988 2091 
Q 3016 2238 3031 2350 
Q 3047 2463 3047 2528 
Q 3047 2791 2881 2937 
Q 2716 3084 2419 3084 
Q 1956 3084 1622 2776 
Q 1288 2469 1184 1941 
L 800 0 
L 225 0 
L 903 3500 
L 1478 3500 
L 1363 2950 
Q 1603 3253 1940 3418 
Q 2278 3584 2650 3584 
Q 3113 3584 3367 3334 
Q 3622 3084 3622 2631 
Q 3622 2519 3608 2391 
Q 3594 2263 3566 2113 
z
" transform="scale(0.015625)"/>
      </defs>
      <use xlink:href="#DejaVuSans-53" transform="translate(0 0.015625)"/>
      <use xlink:href="#DejaVuSans-61" transform="translate(63.476562 0.015625)"/>
      <use xlink:href="#DejaVuSans-6d" transform="translate(124.755859 0.015625)"/>
      <use xlink:href="#DejaVuSans-70" transform="translate(222.167969 0.015625)"/>
      <use xlink:href="#DejaVuSans-6c" transform="translate(285.644531 0.015625)"/>
      <use xlink:href="#DejaVuSans-65" transform="translate(313.427734 0.015625)"/>
      <use xlink:href="#DejaVuSans-2c" transform="translate(374.951172 0.015625)"/>
      <use xlink:href="#DejaVuSans-20" transform="translate(406.738281 0.015625)"/>
      <use xlink:href="#DejaVuSans-Oblique-6e" transform="translate(438.525391 0.015625)"/>
     </g>
    </g>
   </g>
   <g id="matplotlib.axis_2">
    <g id="ytick_1">
     <g id="line2d_19">
      <path d="M 52.160938 235.648665 
L 568.8 235.648665 
" clip-path="url(#p6473186776)" style="fill: none; stroke-dasharray: 2.96,1.28; stroke-dashoffset: 0; stroke: #b0b0b0; stroke-opacity: 0.8; stroke-width: 0.8"/>
     </g>
     <g id="line2d_20">
      <defs>
       <path id="m7c086b4176" d="M 0 0 
L -3.5 0 
" style="stroke: #000000; stroke-width: 0.8"/>
      </defs>
      <g>
       <use xlink:href="#m7c086b4176" x="52.160938" y="235.648665" style="stroke: #000000; stroke-width: 0.8"/>
      </g>
     </g>
     <g id="text_11">
      <!-- −0.4 -->
      <g transform="translate(20.878125 239.447884) scale(0.1 -0.1)">
       <defs>
        <path id="DejaVuSans-2212" d="M 678 2272 
L 4684 2272 
L 4684 1741 
L 678 1741 
L 678 2272 
z
" transform="scale(0.015625)"/>
        <path id="DejaVuSans-2e" d="M 684 794 
L 1344 794 
L 1344 0 
L 684 0 
L 684 794 
z
" transform="scale(0.015625)"/>
       </defs>
       <use xlink:href="#DejaVuSans-2212"/>
       <use xlink:href="#DejaVuSans-30" transform="translate(83.789062 0)"/>
       <use xlink:href="#DejaVuSans-2e" transform="translate(147.412109 0)"/>
       <use xlink:href="#DejaVuSans-34" transform="translate(179.199219 0)"/>
      </g>
     </g>
    </g>
    <g id="ytick_2">
     <g id="line2d_21">
      <path d="M 52.160938 183.709501 
L 568.8 183.709501 
" clip-path="url(#p6473186776)" style="fill: none; stroke-dasharray: 2.96,1.28; stroke-dashoffset: 0; stroke: #b0b0b0; stroke-opacity: 0.8; stroke-width: 0.8"/>
     </g>
     <g id="line2d_22">
      <g>
       <use xlink:href="#m7c086b4176" x="52.160938" y="183.709501" style="stroke: #000000; stroke-width: 0.8"/>
      </g>
     </g>
     <g id="text_12">
      <!-- −0.2 -->
      <g transform="translate(20.878125 187.508719) scale(0.1 -0.1)">
       <use xlink:href="#DejaVuSans-2212"/>
       <use xlink:href="#DejaVuSans-30" transform="translate(83.789062 0)"/>
       <use xlink:href="#DejaVuSans-2e" transform="translate(147.412109 0)"/>
       <use xlink:href="#DejaVuSans-32" transform="translate(179.199219 0)"/>
      </g>
     </g>
    </g>
    <g id="ytick_3">
     <g id="line2d_23">
      <path d="M 52.160938 131.770336 
L 568.8 131.770336 
" clip-path="url(#p6473186776)" style="fill: none; stroke-dasharray: 2.96,1.28; stroke-dashoffset: 0; stroke: #b0b0b0; stroke-opacity: 0.8; stroke-width: 0.8"/>
     </g>
     <g id="line2d_24">
      <g>
       <use xlink:href="#m7c086b4176" x="52.160938" y="131.770336" style="stroke: #000000; stroke-width: 0.8"/>
      </g>
     </g>
     <g id="text_13">
      <!-- 0.0 -->
      <g transform="translate(29.257812 135.569555) scale(0.1 -0.1)">
       <use xlink:href="#DejaVuSans-30"/>
       <use xlink:href="#DejaVuSans-2e" transform="translate(63.623047 0)"/>
       <use xlink:href="#DejaVuSans-30" transform="translate(95.410156 0)"/>
      </g>
     </g>
    </g>
    <g id="ytick_4">
     <g id="line2d_25">
      <path d="M 52.160938 79.831172 
L 568.8 79.831172 
" clip-path="url(#p6473186776)" style="fill: none; stroke-dasharray: 2.96,1.28; stroke-dashoffset: 0; stroke: #b0b0b0; stroke-opacity: 0.8; stroke-width: 0.8"/>
     </g>
     <g id="line2d_26">
      <g>
       <use xlink:href="#m7c086b4176" x="52.160938" y="79.831172" style="stroke: #000000; stroke-width: 0.8"/>
      </g>
     </g>
     <g id="text_14">
      <!-- 0.2 -->
      <g transform="translate(29.257812 83.630391) scale(0.1 -0.1)">
       <use xlink:href="#DejaVuSans-30"/>
       <use xlink:href="#DejaVuSans-2e" transform="translate(63.623047 0)"/>
       <use xlink:href="#DejaVuSans-32" transform="translate(95.410156 0)"/>
      </g>
     </g>
    </g>
    <g id="ytick_5">
     <g id="line2d_27">
      <path d="M 52.160938 27.892008 
L 568.8 27.892008 
" clip-path="url(#p6473186776)" style="fill: none; stroke-dasharray: 2.96,1.28; stroke-dashoffset: 0; stroke: #b0b0b0; stroke-opacity: 0.8; stroke-width: 0.8"/>
     </g>
     <g id="line2d_28">
      <g>
       <use xlink:href="#m7c086b4176" x="52.160938" y="27.892008" style="stroke: #000000; stroke-width: 0.8"/>
      </g>
     </g>
     <g id="text_15">
      <!-- 0.4 -->
      <g transform="translate(29.257812 31.691227) scale(0.1 -0.1)">
       <use xlink:href="#DejaVuSans-30"/>
       <use xlink:href="#DejaVuSans-2e" transform="translate(63.623047 0)"/>
       <use xlink:href="#DejaVuSans-34" transform="translate(95.410156 0)"/>
      </g>
     </g>
    </g>
    <g id="text_16">
     <!-- Amplitude -->
     <g transform="translate(14.798437 154.433594) rotate(-90) scale(0.1 -0.1)">
      <defs>
       <path id="DejaVuSans-41" d="M 2188 4044 
L 1331 1722 
L 3047 1722 
L 2188 4044 
z
M 1831 4666 
L 2547 4666 
L 4325 0 
L 3669 0 
L 3244 1197 
L 1141 1197 
L 716 0 
L 50 0 
L 1831 4666 
z
" transform="scale(0.015625)"/>
       <path id="DejaVuSans-69" d="M 603 3500 
L 1178 3500 
L 1178 0 
L 603 0 
L 603 3500 
z
M 603 4863 
L 1178 4863 
L 1178 4134 
L 603 4134 
L 603 4863 
z
" transform="scale(0.015625)"/>
       <path id="DejaVuSans-74" d="M 1172 4494 
L 1172 3500 
L 2356 3500 
L 2356 3053 
L 1172 3053 
L 1172 1153 
Q 1172 725 1289 603 
Q 1406 481 1766 481 
L 2356 481 
L 2356 0 
L 1766 0 
Q 1100 0 847 248 
Q 594 497 594 1153 
L 594 3053 
L 172 3053 
L 172 3500 
L 594 3500 
L 594 4494 
L 1172 4494 
z
" transform="scale(0.015625)"/>
       <path id="DejaVuSans-75" d="M 544 1381 
L 544 3500 
L 1119 3500 
L 1119 1403 
Q 1119 906 1312 657 
Q 1506 409 1894 409 
Q 2359 409 2629 706 
Q 2900 1003 2900 1516 
L 2900 3500 
L 3475 3500 
L 3475 0 
L 2900 0 
L 2900 538 
Q 2691 219 2414 64 
Q 2138 -91 1772 -91 
Q 1169 -91 856 284 
Q 544 659 544 1381 
z
M 1991 3584 
L 1991 3584 
z
" transform="scale(0.015625)"/>
       <path id="DejaVuSans-64" d="M 2906 2969 
L 2906 4863 
L 3481 4863 
L 3481 0 
L 2906 0 
L 2906 525 
Q 2725 213 2448 61 
Q 2172 -91 1784 -91 
Q 1150 -91 751 415 
Q 353 922 353 1747 
Q 353 2572 751 3078 
Q 1150 3584 1784 3584 
Q 2172 3584 2448 3432 
Q 2725 3281 2906 2969 
z
M 947 1747 
Q 947 1113 1208 752 
Q 1469 391 1925 391 
Q 2381 391 2643 752 
Q 2906 1113 2906 1747 
Q 2906 2381 2643 2742 
Q 2381 3103 1925 3103 
Q 1469 3103 1208 2742 
Q 947 2381 947 1747 
z
" transform="scale(0.015625)"/>
      </defs>
      <use xlink:href="#DejaVuSans-41"/>
      <use xlink:href="#DejaVuSans-6d" transform="translate(68.408203 0)"/>
      <use xlink:href="#DejaVuSans-70" transform="translate(165.820312 0)"/>
      <use xlink:href="#DejaVuSans-6c" transform="translate(229.296875 0)"/>
      <use xlink:href="#DejaVuSans-69" transform="translate(257.080078 0)"/>
      <use xlink:href="#DejaVuSans-74" transform="translate(284.863281 0)"/>
      <use xlink:href="#DejaVuSans-75" transform="translate(324.072266 0)"/>
      <use xlink:href="#DejaVuSans-64" transform="translate(387.451172 0)"/>
      <use xlink:href="#DejaVuSans-65" transform="translate(450.927734 0)"/>
     </g>
    </g>
   </g>
   <g id="line2d_29">
    <path d="M 75.644531 135.143393 
L 76.821654 124.00316 
L 77.998776 130.260462 
L 79.175899 124.288838 
L 80.353021 128.205402 
L 81.530144 133.160082 
L 82.707266 132.161252 
L 83.884389 135.04729 
L 85.061511 132.325312 
L 86.238634 133.004987 
L 87.415756 134.60793 
L 88.592879 128.421281 
L 89.770001 126.423941 
L 90.947124 122.295042 
L 92.124246 126.890711 
L 93.301369 124.1865 
L 94.478491 129.989141 
L 95.655614 133.273589 
L 96.832736 133.059399 
L 98.009859 136.960208 
L 99.186981 149.758724 
L 100.364104 147.563273 
L 101.541226 153.994747 
L 102.718349 145.303509 
L 103.895471 135.619492 
L 105.072594 127.925653 
L 106.249716 128.654161 
L 107.426839 122.566657 
L 108.603961 110.45384 
L 109.781084 108.072138 
L 110.958206 106.732977 
L 112.135329 119.4355 
L 113.312451 124.114914 
L 114.489574 141.56628 
L 118.020941 185.2334 
L 119.198064 195.871195 
L 120.375186 209.813293 
L 121.552309 210.982738 
L 122.729431 199.68453 
L 123.906553 197.368534 
L 125.083676 167.952977 
L 126.260798 150.456428 
L 127.437921 116.916084 
L 128.615043 94.715798 
L 129.792166 68.714592 
L 130.969288 53.430944 
L 132.146411 48.999201 
L 133.323533 52.680931 
L 134.500656 71.800302 
L 136.854901 113.604204 
L 138.032023 145.626753 
L 139.209146 164.453662 
L 140.386268 198.89991 
L 142.740513 223.893246 
L 143.917636 218.803055 
L 145.094758 222.381117 
L 146.271881 216.811377 
L 147.449003 203.245685 
L 148.626126 185.49728 
L 149.803248 182.486171 
L 150.980371 175.88981 
L 152.157493 188.856634 
L 153.334616 192.652725 
L 155.688861 210.917949 
L 156.865983 226.541118 
L 158.043106 220.759893 
L 159.220228 223.525784 
L 160.397351 198.967455 
L 161.574473 193.843968 
L 162.751596 171.142658 
L 163.928718 140.788916 
L 165.105841 118.078841 
L 166.282963 89.806003 
L 167.460086 66.651459 
L 168.637208 59.424358 
L 169.814331 46.895237 
L 170.991453 60.581743 
L 172.168576 80.820439 
L 173.345698 96.474232 
L 174.522821 117.121742 
L 175.699943 158.184061 
L 178.054188 193.592869 
L 179.231311 213.016868 
L 180.408433 209.048619 
L 181.585556 198.94158 
L 182.762678 179.64793 
L 183.939801 165.779925 
L 185.116923 141.217977 
L 186.294046 103.000323 
L 187.471168 85.186583 
L 188.648291 51.581887 
L 189.825413 28.720871 
L 192.179658 20.455716 
L 193.356781 27.323764 
L 194.533903 37.190208 
L 195.711026 53.620795 
L 196.888148 58.767972 
L 198.065271 76.850485 
L 199.242393 92.165215 
L 200.419516 101.498179 
L 201.596638 121.617295 
L 202.773761 125.42512 
L 203.950883 155.33561 
L 205.128006 157.682531 
L 206.305128 180.115798 
L 207.482251 186.734419 
L 208.659373 207.469614 
L 209.836496 219.719272 
L 211.013618 228.592666 
L 212.190741 231.665839 
L 213.367863 235.211663 
L 214.544986 222.617819 
L 215.722108 219.150344 
L 216.89923 201.692168 
L 218.076353 192.404119 
L 219.253475 155.784957 
L 220.430598 136.477964 
L 221.60772 107.188064 
L 222.784843 90.815707 
L 223.961965 76.912585 
L 225.139088 61.12837 
L 226.31621 62.841096 
L 227.493333 70.26247 
L 228.670455 81.809714 
L 229.847578 91.37356 
L 231.0247 110.975444 
L 234.556068 179.80962 
L 235.73319 195.168303 
L 236.910313 212.442626 
L 238.087435 226.717231 
L 239.264558 235.617102 
L 240.44168 235.647915 
L 241.618803 230.817379 
L 242.795925 223.61908 
L 243.973048 218.528989 
L 245.15017 193.667279 
L 246.327293 177.558728 
L 248.681538 136.388804 
L 249.85866 124.043824 
L 251.035783 101.789517 
L 252.212905 85.145959 
L 253.390028 73.130079 
L 254.56715 66.000437 
L 255.744273 61.074325 
L 256.921395 61.397331 
L 258.098518 60.784234 
L 259.27564 62.141942 
L 260.452763 62.038054 
L 261.629885 71.754129 
L 262.807008 71.112448 
L 263.98413 69.839127 
L 265.161253 61.887799 
L 266.338375 71.22074 
L 267.515498 66.19925 
L 268.69262 59.815316 
L 269.869743 63.458822 
L 271.046865 62.493312 
L 273.40111 71.426353 
L 274.578233 72.703379 
L 275.755355 83.886322 
L 276.932478 100.9335 
L 278.1096 112.299316 
L 279.286723 133.749752 
L 280.463845 162.396969 
L 281.640968 174.648754 
L 282.81809 193.048404 
L 283.995213 213.972957 
L 285.172335 228.737717 
L 286.349458 235.611926 
L 287.52658 239.366335 
L 288.703703 237.018243 
L 289.880825 227.977024 
L 291.057948 220.048394 
L 292.23507 195.895121 
L 293.412193 177.295 
L 294.589315 151.161419 
L 295.766438 133.313249 
L 298.120683 89.675178 
L 299.297805 74.621088 
L 300.474928 71.585863 
L 301.65205 67.153884 
L 302.829173 64.022143 
L 304.006295 70.760282 
L 305.183418 101.910329 
L 306.36054 118.81773 
L 307.537663 146.912186 
L 308.714785 161.1054 
L 309.891908 189.552927 
L 311.06903 206.072548 
L 312.246152 207.879561 
L 313.423275 218.87062 
L 314.600397 221.243782 
L 315.77752 213.551024 
L 316.954642 212.783993 
L 318.131765 206.269617 
L 319.308887 202.157415 
L 320.48601 192.98119 
L 321.663132 186.364904 
L 322.840255 181.576441 
L 324.017377 184.401566 
L 325.1945 188.611282 
L 326.371622 189.750885 
L 327.548745 196.213089 
L 328.725867 197.89817 
L 329.90299 202.055251 
L 331.080112 205.667304 
L 332.257235 210.63859 
L 333.434357 204.838737 
L 334.61148 200.109085 
L 335.788602 192.060384 
L 336.965725 200.22967 
L 338.142847 192.462929 
L 339.31997 197.787732 
L 340.497092 196.205322 
L 341.674215 197.63923 
L 342.851337 197.748608 
L 344.02846 202.795308 
L 345.205582 206.97535 
L 346.382705 197.252428 
L 347.559827 209.673486 
L 348.73695 197.759244 
L 349.914072 195.628885 
L 351.091195 188.28952 
L 352.268317 192.692838 
L 353.44544 193.154972 
L 354.622562 193.751638 
L 355.799685 191.110918 
L 356.976807 197.036054 
L 358.15393 198.15919 
L 359.331052 199.768824 
L 360.508175 199.283167 
L 361.685297 206.872153 
L 362.86242 204.073768 
L 364.039542 210.914693 
L 365.216665 209.493525 
L 366.393787 208.494794 
L 367.57091 195.533577 
L 368.748032 179.415049 
L 369.925155 177.655457 
L 371.102277 154.440082 
L 372.2794 145.728806 
L 373.456522 127.601986 
L 374.633645 105.498415 
L 375.810767 80.750282 
L 376.98789 73.715326 
L 378.165012 61.708988 
L 379.342135 38.044851 
L 380.519257 26.886064 
L 381.69638 32.815351 
L 382.873502 29.290876 
L 384.050625 36.469231 
L 385.227747 42.218952 
L 386.40487 62.018185 
L 387.581992 79.821258 
L 388.759115 113.839873 
L 389.936237 127.180902 
L 391.11336 158.324747 
L 392.290482 177.597768 
L 393.467605 183.345013 
L 394.644727 197.628651 
L 395.82185 198.196368 
L 396.998972 190.560285 
L 398.176095 184.399408 
L 399.353217 169.153784 
L 400.53034 139.832143 
L 402.884585 105.827013 
L 404.061707 76.664318 
L 405.238829 54.565677 
L 406.415952 51.36248 
L 407.593074 37.076137 
L 408.770197 37.587381 
L 409.947319 44.907601 
L 411.124442 50.306746 
L 412.301564 56.416711 
L 413.478687 71.297159 
L 414.655809 70.771093 
L 415.832932 78.694924 
L 417.010054 76.941762 
L 418.187177 74.665792 
L 419.364299 75.489846 
L 420.541422 64.137351 
L 421.718544 65.969183 
L 422.895667 54.728923 
L 424.072789 56.287641 
L 425.249912 51.232087 
L 426.427034 59.227259 
L 427.604157 66.347968 
L 428.781279 67.763312 
L 429.958402 79.261336 
L 431.135524 85.963071 
L 432.312647 81.170254 
L 433.489769 73.040939 
L 434.666892 71.194583 
L 435.844014 58.375739 
L 438.198259 37.030776 
L 439.375382 35.066038 
L 440.552504 35.061352 
L 442.906749 51.446842 
L 444.083872 77.83615 
L 445.260994 98.614185 
L 446.438117 131.085951 
L 448.792362 187.470489 
L 449.969484 202.529354 
L 451.146607 214.019399 
L 452.323729 208.592121 
L 453.500852 198.224876 
L 454.677974 184.857477 
L 455.855097 153.342416 
L 457.032219 126.376556 
L 458.209342 102.381266 
L 459.386464 74.510216 
L 460.563587 54.599379 
L 461.740709 50.246453 
L 462.917832 55.470184 
L 464.094954 76.727634 
L 466.449199 123.604045 
L 467.626322 144.076992 
L 468.803444 179.186064 
L 469.980567 194.184874 
L 471.157689 196.587367 
L 472.334812 200.894481 
L 473.511934 203.327376 
L 475.866179 165.349309 
L 478.220424 113.905482 
L 480.574669 56.0901 
L 481.751792 41.689766 
L 482.928914 25.527007 
L 484.106037 20.440508 
L 485.283159 21.664386 
L 486.460282 24.786125 
L 487.637404 46.21583 
L 488.814527 52.937466 
L 489.991649 76.717603 
L 491.168772 94.018821 
L 492.345894 105.327496 
L 493.523017 126.990735 
L 494.700139 144.205394 
L 495.877262 157.106635 
L 497.054384 172.8273 
L 498.231507 179.928114 
L 499.408629 184.011129 
L 500.585751 204.401321 
L 501.762874 209.162371 
L 502.939996 200.11635 
L 504.117119 219.085297 
L 505.294241 217.603031 
L 506.471364 216.86422 
L 507.648486 204.582212 
L 508.825609 205.065608 
L 510.002731 199.231161 
L 511.179854 186.96244 
L 512.356976 180.379658 
L 513.534099 179.368259 
L 514.711221 172.332083 
L 515.888344 181.643422 
L 517.065466 182.396281 
L 518.242589 191.780139 
L 519.419711 199.95998 
L 520.596834 210.065972 
L 521.773956 214.889945 
L 522.951079 229.163763 
L 524.128201 221.001563 
L 525.305324 222.664668 
L 526.482446 225.449778 
L 530.013814 155.099326 
L 531.190936 124.531838 
L 532.368059 106.449134 
L 533.545181 84.233792 
L 534.722304 75.870813 
L 535.899426 61.387807 
L 537.076549 69.102638 
L 538.253671 68.307159 
L 539.430794 81.070137 
L 541.785039 125.952157 
L 542.962161 141.159965 
L 544.139284 171.101002 
L 545.316406 186.988634 
L 545.316406 186.988634 
" clip-path="url(#p6473186776)" style="fill: none; stroke: #1f77b4; stroke-linecap: square"/>
   </g>
   <g id="line2d_30">
    <path d="M 75.644531 130.828782 
L 76.821654 135.57121 
L 77.998776 135.902063 
L 79.175899 125.639548 
L 80.353021 135.184053 
L 81.530144 127.860081 
L 82.707266 128.221877 
L 83.884389 129.556496 
L 85.061511 123.538658 
L 86.238634 123.598775 
L 87.415756 128.388057 
L 88.592879 128.632305 
L 89.770001 140.43772 
L 90.947124 136.49565 
L 92.124246 131.518417 
L 93.301369 132.116972 
L 94.478491 136.169252 
L 95.655614 133.109679 
L 96.832736 127.534371 
L 98.009859 124.491655 
L 99.186981 131.971984 
L 100.364104 116.405806 
L 101.541226 122.152016 
L 102.718349 125.070341 
L 103.895471 123.332831 
L 105.072594 129.998486 
L 106.249716 129.186135 
L 107.426839 145.015622 
L 108.603961 155.384397 
L 109.781084 147.010189 
L 110.958206 153.851703 
L 112.135329 153.76542 
L 113.312451 138.024156 
L 114.489574 128.700548 
L 116.843819 97.427897 
L 118.020941 81.866946 
L 119.198064 71.71317 
L 120.375186 65.134243 
L 121.552309 62.796024 
L 122.729431 64.526335 
L 123.906553 72.322664 
L 125.083676 89.754219 
L 126.260798 104.742874 
L 128.615043 152.348899 
L 130.969288 192.229941 
L 132.146411 204.183714 
L 133.323533 207.959669 
L 134.500656 218.113305 
L 135.677778 217.883393 
L 136.854901 210.199431 
L 138.032023 205.566306 
L 139.209146 203.748239 
L 140.386268 188.977834 
L 141.563391 187.543766 
L 142.740513 190.264246 
L 143.917636 187.320765 
L 145.094758 187.568701 
L 146.271881 193.132659 
L 147.449003 192.439701 
L 148.626126 197.897326 
L 150.980371 207.180233 
L 152.157493 205.482448 
L 153.334616 197.347164 
L 154.511738 195.258061 
L 155.688861 193.426346 
L 156.865983 186.09189 
L 158.043106 183.152503 
L 159.220228 183.325362 
L 160.397351 192.509892 
L 161.574473 197.769961 
L 162.751596 202.491481 
L 163.928718 208.058569 
L 165.105841 213.050649 
L 166.282963 216.02798 
L 167.460086 219.433591 
L 169.814331 201.110303 
L 170.991453 189.95489 
L 172.168576 173.876043 
L 173.345698 149.579135 
L 175.699943 109.549257 
L 179.231311 59.6067 
L 180.408433 56.567104 
L 181.585556 50.039049 
L 182.762678 51.133454 
L 183.939801 46.107578 
L 185.116923 54.76019 
L 186.294046 58.93517 
L 188.648291 70.484297 
L 189.825413 79.749003 
L 191.002536 72.66991 
L 192.179658 77.325325 
L 193.356781 65.502739 
L 194.533903 64.447978 
L 195.711026 62.679036 
L 196.888148 62.606869 
L 198.065271 58.090178 
L 199.242393 66.169859 
L 200.419516 64.623225 
L 201.596638 68.776489 
L 203.950883 84.662031 
L 205.128006 80.215858 
L 206.305128 79.21804 
L 207.482251 77.940705 
L 208.659373 71.79554 
L 211.013618 52.608522 
L 212.190741 37.725011 
L 213.367863 34.799023 
L 214.544986 30.085198 
L 215.722108 44.719263 
L 216.89923 53.682449 
L 218.076353 82.497298 
L 221.60772 143.935868 
L 222.784843 171.411003 
L 223.961965 196.159342 
L 225.139088 207.110251 
L 226.31621 215.444871 
L 228.670455 171.417488 
L 229.847578 156.541904 
L 231.0247 132.582901 
L 232.201823 111.600492 
L 233.378945 93.670544 
L 234.556068 60.960392 
L 235.73319 56.265734 
L 236.910313 60.131421 
L 238.087435 60.116696 
L 239.264558 81.046437 
L 241.618803 132.486847 
L 242.795925 165.645719 
L 243.973048 187.595056 
L 245.15017 203.541992 
L 246.327293 230.693067 
L 247.504415 234.617442 
L 248.681538 224.777186 
L 249.85866 228.051775 
L 251.035783 216.908474 
L 252.212905 202.3932 
L 253.390028 192.886112 
L 254.56715 180.706691 
L 255.744273 178.084934 
L 256.921395 179.280531 
L 258.098518 177.527756 
L 259.27564 185.834933 
L 260.452763 196.520482 
L 261.629885 205.28537 
L 262.807008 203.270565 
L 263.98413 207.063151 
L 265.161253 208.496758 
L 266.338375 204.455447 
L 267.515498 191.650025 
L 268.69262 188.403446 
L 269.869743 190.211462 
L 271.046865 172.810123 
L 272.223988 189.351853 
L 273.40111 186.35319 
L 274.578233 193.618776 
L 275.755355 203.793218 
L 276.932478 208.79582 
L 278.1096 227.381876 
L 279.286723 235.333648 
L 280.463845 227.305742 
L 281.640968 221.393013 
L 282.81809 203.506024 
L 285.172335 157.793051 
L 286.349458 131.992654 
L 287.52658 112.12779 
L 288.703703 85.352408 
L 289.880825 69.406929 
L 291.057948 62.938189 
L 292.23507 52.06128 
L 293.412193 64.823894 
L 294.589315 84.109794 
L 295.766438 106.482832 
L 296.94356 125.273388 
L 298.120683 152.886433 
L 299.297805 175.716417 
L 300.474928 190.377428 
L 301.65205 208.713354 
L 302.829173 209.735397 
L 304.006295 199.18277 
L 305.183418 183.219118 
L 308.714785 108.316539 
L 309.891908 88.789186 
L 311.06903 60.239652 
L 312.246152 42.355449 
L 313.423275 26.992355 
L 314.600397 22.734314 
L 315.77752 27.211992 
L 316.954642 25.49942 
L 318.131765 47.35339 
L 319.308887 49.856879 
L 320.48601 73.874326 
L 321.663132 86.324022 
L 322.840255 108.031123 
L 324.017377 122.202876 
L 325.1945 139.459038 
L 326.371622 152.636757 
L 327.548745 171.026001 
L 329.90299 192.494146 
L 332.257235 213.001808 
L 333.434357 224.944972 
L 334.61148 220.54272 
L 335.788602 222.436548 
L 336.965725 215.718707 
L 338.142847 214.992654 
L 339.31997 192.756094 
L 340.497092 182.8508 
L 341.674215 170.27834 
L 342.851337 148.618681 
L 344.02846 136.125016 
L 345.205582 116.483785 
L 346.382705 105.466614 
L 347.559827 90.970316 
L 348.73695 70.80269 
L 349.914072 55.885725 
L 351.091195 51.257964 
L 352.268317 33.854399 
L 353.44544 47.497854 
L 354.622562 35.76526 
L 355.799685 41.928052 
L 358.15393 64.438941 
L 359.331052 79.055577 
L 360.508175 96.882243 
L 361.685297 127.637599 
L 362.86242 149.102998 
L 364.039542 164.012151 
L 365.216665 186.893412 
L 366.393787 189.966146 
L 367.57091 204.469272 
L 368.748032 204.273391 
L 369.925155 204.622677 
L 371.102277 208.21703 
L 372.2794 199.44049 
L 373.456522 193.939683 
L 374.633645 185.593261 
L 375.810767 187.086785 
L 376.98789 197.003621 
L 378.165012 194.007827 
L 379.342135 203.011858 
L 380.519257 205.89573 
L 381.69638 210.252289 
L 382.873502 223.039511 
L 384.050625 221.449295 
L 385.227747 206.840232 
L 386.40487 203.798743 
L 387.581992 192.909687 
L 388.759115 176.355167 
L 389.936237 144.147777 
L 391.11336 118.330722 
L 393.467605 75.675373 
L 394.644727 58.375009 
L 395.82185 57.837091 
L 396.998972 59.077586 
L 398.176095 70.535078 
L 400.53034 115.646246 
L 401.707462 143.65767 
L 402.884585 165.079707 
L 404.061707 195.069134 
L 405.238829 198.951372 
L 406.415952 217.974396 
L 407.593074 225.865938 
L 408.770197 216.347904 
L 409.947319 216.618069 
L 412.301564 208.434 
L 413.478687 193.934642 
L 414.655809 190.687754 
L 415.832932 186.797691 
L 417.010054 183.856346 
L 418.187177 197.6628 
L 419.364299 202.102308 
L 420.541422 192.107744 
L 421.718544 202.438826 
L 422.895667 203.982611 
L 424.072789 193.179398 
L 425.249912 201.50961 
L 426.427034 181.116249 
L 427.604157 170.856478 
L 428.781279 143.492723 
L 429.958402 124.831874 
L 431.135524 109.848276 
L 432.312647 81.419772 
L 433.489769 75.215027 
L 434.666892 44.65837 
L 437.021137 24.063658 
L 438.198259 18.25554 
L 439.375382 30.049349 
L 440.552504 36.826239 
L 444.083872 80.179082 
L 445.260994 108.040568 
L 446.438117 126.137113 
L 448.792362 177.028804 
L 449.969484 180.50329 
L 451.146607 193.430623 
L 452.323729 194.615603 
L 453.500852 198.663397 
L 454.677974 190.002111 
L 458.209342 122.535528 
L 459.386464 101.361316 
L 460.563587 87.381158 
L 461.740709 58.832243 
L 462.917832 47.461551 
L 465.272077 31.343825 
L 466.449199 29.678332 
L 467.626322 30.615518 
L 468.803444 51.172798 
L 469.980567 57.259042 
L 471.157689 73.5068 
L 472.334812 87.860906 
L 473.511934 107.229671 
L 474.689057 121.862887 
L 475.866179 134.30909 
L 479.397547 190.032008 
L 480.574669 199.813295 
L 481.751792 203.365931 
L 482.928914 212.7062 
L 484.106037 212.072062 
L 485.283159 223.316297 
L 486.460282 225.048736 
L 487.637404 218.913679 
L 488.814527 205.154702 
L 489.991649 196.863259 
L 491.168772 177.216876 
L 492.345894 168.832958 
L 493.523017 142.351286 
L 494.700139 135.758831 
L 498.231507 86.127728 
L 499.408629 70.216822 
L 500.585751 52.436276 
L 501.762874 42.252423 
L 502.939996 35.243124 
L 504.117119 38.856386 
L 505.294241 36.763087 
L 506.471364 41.66419 
L 508.825609 65.656382 
L 510.002731 81.872644 
L 514.711221 154.203107 
L 515.888344 166.261173 
L 517.065466 185.792405 
L 518.242589 193.763382 
L 519.419711 205.511973 
L 520.596834 204.734402 
L 521.773956 208.076409 
L 522.951079 215.830515 
L 524.128201 208.510724 
L 525.305324 209.25198 
L 526.482446 206.223423 
L 527.659569 200.363666 
L 528.836691 191.812015 
L 530.013814 193.119578 
L 531.190936 191.16527 
L 532.368059 181.763025 
L 533.545181 176.89261 
L 534.722304 174.462734 
L 535.899426 178.170982 
L 537.076549 182.580953 
L 538.253671 203.706229 
L 539.430794 212.441083 
L 540.607916 223.673777 
L 541.785039 220.192554 
L 542.962161 238.260052 
L 544.139284 236.503733 
L 545.316406 213.535901 
L 545.316406 213.535901 
" clip-path="url(#p6473186776)" style="fill: none; stroke: #ff7f0e; stroke-linecap: square"/>
   </g>
   <g id="patch_3">
    <path d="M 52.160938 250.421875 
L 52.160938 7.2 
" style="fill: none; stroke: #000000; stroke-width: 0.8; stroke-linejoin: miter; stroke-linecap: square"/>
   </g>
   <g id="patch_4">
    <path d="M 568.8 250.421875 
L 568.8 7.2 
" style="fill: none; stroke: #000000; stroke-width: 0.8; stroke-linejoin: miter; stroke-linecap: square"/>
   </g>
   <g id="patch_5">
    <path d="M 52.160937 250.421875 
L 568.8 250.421875 
" style="fill: none; stroke: #000000; stroke-width: 0.8; stroke-linejoin: miter; stroke-linecap: square"/>
   </g>
   <g id="patch_6">
    <path d="M 52.160937 7.2 
L 568.8 7.2 
" style="fill: none; stroke: #000000; stroke-width: 0.8; stroke-linejoin: miter; stroke-linecap: square"/>
   </g>
   <g id="legend_1">
    <g id="patch_7">
     <path d="M 59.160938 44.55625 
L 116.15625 44.55625 
Q 118.15625 44.55625 118.15625 42.55625 
L 118.15625 14.2 
Q 118.15625 12.2 116.15625 12.2 
L 59.160938 12.2 
Q 57.160938 12.2 57.160938 14.2 
L 57.160938 42.55625 
Q 57.160938 44.55625 59.160938 44.55625 
z
" style="fill: #ffffff; opacity: 0.8; stroke: #cccccc; stroke-linejoin: miter"/>
    </g>
    <g id="line2d_31">
     <path d="M 61.160938 20.298437 
L 71.160938 20.298437 
L 81.160938 20.298437 
" style="fill: none; stroke: #1f77b4; stroke-linecap: square"/>
    </g>
    <g id="text_17">
     <!-- real -->
     <g transform="translate(89.160938 23.798437) scale(0.1 -0.1)">
      <defs>
       <path id="DejaVuSans-72" d="M 2631 2963 
Q 2534 3019 2420 3045 
Q 2306 3072 2169 3072 
Q 1681 3072 1420 2755 
Q 1159 2438 1159 1844 
L 1159 0 
L 581 0 
L 581 3500 
L 1159 3500 
L 1159 2956 
Q 1341 3275 1631 3429 
Q 1922 3584 2338 3584 
Q 2397 3584 2469 3576 
Q 2541 3569 2628 3553 
L 2631 2963 
z
" transform="scale(0.015625)"/>
      </defs>
      <use xlink:href="#DejaVuSans-72"/>
      <use xlink:href="#DejaVuSans-65" transform="translate(38.863281 0)"/>
      <use xlink:href="#DejaVuSans-61" transform="translate(100.386719 0)"/>
      <use xlink:href="#DejaVuSans-6c" transform="translate(161.666016 0)"/>
     </g>
    </g>
    <g id="line2d_32">
     <path d="M 61.160938 34.976562 
L 71.160938 34.976562 
L 81.160938 34.976562 
" style="fill: none; stroke: #ff7f0e; stroke-linecap: square"/>
    </g>
    <g id="text_18">
     <!-- imag -->
     <g transform="translate(89.160938 38.476562) scale(0.1 -0.1)">
      <defs>
       <path id="DejaVuSans-67" d="M 2906 1791 
Q 2906 2416 2648 2759 
Q 2391 3103 1925 3103 
Q 1463 3103 1205 2759 
Q 947 2416 947 1791 
Q 947 1169 1205 825 
Q 1463 481 1925 481 
Q 2391 481 2648 825 
Q 2906 1169 2906 1791 
z
M 3481 434 
Q 3481 -459 3084 -895 
Q 2688 -1331 1869 -1331 
Q 1566 -1331 1297 -1286 
Q 1028 -1241 775 -1147 
L 775 -588 
Q 1028 -725 1275 -790 
Q 1522 -856 1778 -856 
Q 2344 -856 2625 -561 
Q 2906 -266 2906 331 
L 2906 616 
Q 2728 306 2450 153 
Q 2172 0 1784 0 
Q 1141 0 747 490 
Q 353 981 353 1791 
Q 353 2603 747 3093 
Q 1141 3584 1784 3584 
Q 2172 3584 2450 3431 
Q 2728 3278 2906 2969 
L 2906 3500 
L 3481 3500 
L 3481 434 
z
" transform="scale(0.015625)"/>
      </defs>
      <use xlink:href="#DejaVuSans-69"/>
      <use xlink:href="#DejaVuSans-6d" transform="translate(27.783203 0)"/>
      <use xlink:href="#DejaVuSans-61" transform="translate(125.195312 0)"/>
      <use xlink:href="#DejaVuSans-67" transform="translate(186.474609 0)"/>
     </g>
    </g>
   </g>
  </g>
 </g>
 <defs>
  <clipPath id="p6473186776">
   <rect x="52.160938" y="7.2" width="516.639063" height="243.221875"/>
  </clipPath>
 </defs>
</svg>
