<?xml version="1.0" encoding="utf-8" standalone="no"?>
<!DOCTYPE svg PUBLIC "-//W3C//DTD SVG 1.1//EN"
  "http://www.w3.org/Graphics/SVG/1.1/DTD/svg11.dtd">
<svg xmlns:xlink="http://www.w3.org/1999/xlink" width="576pt" height="288pt" viewBox="0 0 576 288" xmlns="http://www.w3.org/2000/svg" version="1.1">
 <metadata>
  <rdf:RDF xmlns:dc="http://purl.org/dc/elements/1.1/" xmlns:cc="http://creativecommons.org/ns#" xmlns:rdf="http://www.w3.org/1999/02/22-rdf-syntax-ns#">
   <cc:Work>
    <dc:type rdf:resource="http://purl.org/dc/dcmitype/StillImage"/>
    <dc:date>2025-05-04T14:39:00.580006</dc:date>
    <dc:format>image/svg+xml</dc:format>
    <dc:creator>
     <cc:Agent>
      <dc:title>Matplotlib v3.10.1, https://matplotlib.org/</dc:title>
     </cc:Agent>
    </dc:creator>
   </cc:Work>
  </rdf:RDF>
 </metadata>
 <defs>
  <style type="text/css">*{stroke-linejoin: round; stroke-linecap: butt}</style>
 </defs>
 <g id="figure_1">
  <g id="patch_1">
   <path d="M 0 288 
L 576 288 
L 576 0 
L 0 0 
z
" style="fill: #ffffff"/>
  </g>
  <g id="axes_1">
   <g id="patch_2">
    <path d="M 43.78125 250.44375 
L 568.8 250.44375 
L 568.8 22.318125 
L 43.78125 22.318125 
z
" style="fill: #ffffff"/>
   </g>
   <g id="matplotlib.axis_1">
    <g id="xtick_1">
     <g id="line2d_1">
      <path d="M 67.645739 250.44375 
L 67.645739 22.318125 
" clip-path="url(#p0854c56487)" style="fill: none; stroke-dasharray: 2.96,1.28; stroke-dashoffset: 0; stroke: #b0b0b0; stroke-opacity: 0.8; stroke-width: 0.8"/>
     </g>
     <g id="line2d_2">
      <defs>
       <path id="m321de224e3" d="M 0 0 
L 0 3.5 
" style="stroke: #000000; stroke-width: 0.8"/>
      </defs>
      <g>
       <use xlink:href="#m321de224e3" x="67.645739" y="250.44375" style="stroke: #000000; stroke-width: 0.8"/>
      </g>
     </g>
     <g id="text_1">
      <!-- 0 -->
      <g transform="translate(64.464489 265.042188) scale(0.1 -0.1)">
       <defs>
        <path id="DejaVuSans-30" d="M 2034 4250 
Q 1547 4250 1301 3770 
Q 1056 3291 1056 2328 
Q 1056 1369 1301 889 
Q 1547 409 2034 409 
Q 2525 409 2770 889 
Q 3016 1369 3016 2328 
Q 3016 3291 2770 3770 
Q 2525 4250 2034 4250 
z
M 2034 4750 
Q 2819 4750 3233 4129 
Q 3647 3509 3647 2328 
Q 3647 1150 3233 529 
Q 2819 -91 2034 -91 
Q 1250 -91 836 529 
Q 422 1150 422 2328 
Q 422 3509 836 4129 
Q 1250 4750 2034 4750 
z
" transform="scale(0.015625)"/>
       </defs>
       <use xlink:href="#DejaVuSans-30"/>
      </g>
     </g>
    </g>
    <g id="xtick_2">
     <g id="line2d_3">
      <path d="M 127.30696 250.44375 
L 127.30696 22.318125 
" clip-path="url(#p0854c56487)" style="fill: none; stroke-dasharray: 2.96,1.28; stroke-dashoffset: 0; stroke: #b0b0b0; stroke-opacity: 0.8; stroke-width: 0.8"/>
     </g>
     <g id="line2d_4">
      <g>
       <use xlink:href="#m321de224e3" x="127.30696" y="250.44375" style="stroke: #000000; stroke-width: 0.8"/>
      </g>
     </g>
     <g id="text_2">
      <!-- 1 -->
      <g transform="translate(124.12571 265.042188) scale(0.1 -0.1)">
       <defs>
        <path id="DejaVuSans-31" d="M 794 531 
L 1825 531 
L 1825 4091 
L 703 3866 
L 703 4441 
L 1819 4666 
L 2450 4666 
L 2450 531 
L 3481 531 
L 3481 0 
L 794 0 
L 794 531 
z
" transform="scale(0.015625)"/>
       </defs>
       <use xlink:href="#DejaVuSans-31"/>
      </g>
     </g>
    </g>
    <g id="xtick_3">
     <g id="line2d_5">
      <path d="M 186.968182 250.44375 
L 186.968182 22.318125 
" clip-path="url(#p0854c56487)" style="fill: none; stroke-dasharray: 2.96,1.28; stroke-dashoffset: 0; stroke: #b0b0b0; stroke-opacity: 0.8; stroke-width: 0.8"/>
     </g>
     <g id="line2d_6">
      <g>
       <use xlink:href="#m321de224e3" x="186.968182" y="250.44375" style="stroke: #000000; stroke-width: 0.8"/>
      </g>
     </g>
     <g id="text_3">
      <!-- 2 -->
      <g transform="translate(183.786932 265.042188) scale(0.1 -0.1)">
       <defs>
        <path id="DejaVuSans-32" d="M 1228 531 
L 3431 531 
L 3431 0 
L 469 0 
L 469 531 
Q 828 903 1448 1529 
Q 2069 2156 2228 2338 
Q 2531 2678 2651 2914 
Q 2772 3150 2772 3378 
Q 2772 3750 2511 3984 
Q 2250 4219 1831 4219 
Q 1534 4219 1204 4116 
Q 875 4013 500 3803 
L 500 4441 
Q 881 4594 1212 4672 
Q 1544 4750 1819 4750 
Q 2544 4750 2975 4387 
Q 3406 4025 3406 3419 
Q 3406 3131 3298 2873 
Q 3191 2616 2906 2266 
Q 2828 2175 2409 1742 
Q 1991 1309 1228 531 
z
" transform="scale(0.015625)"/>
       </defs>
       <use xlink:href="#DejaVuSans-32"/>
      </g>
     </g>
    </g>
    <g id="xtick_4">
     <g id="line2d_7">
      <path d="M 246.629403 250.44375 
L 246.629403 22.318125 
" clip-path="url(#p0854c56487)" style="fill: none; stroke-dasharray: 2.96,1.28; stroke-dashoffset: 0; stroke: #b0b0b0; stroke-opacity: 0.8; stroke-width: 0.8"/>
     </g>
     <g id="line2d_8">
      <g>
       <use xlink:href="#m321de224e3" x="246.629403" y="250.44375" style="stroke: #000000; stroke-width: 0.8"/>
      </g>
     </g>
     <g id="text_4">
      <!-- 3 -->
      <g transform="translate(243.448153 265.042188) scale(0.1 -0.1)">
       <defs>
        <path id="DejaVuSans-33" d="M 2597 2516 
Q 3050 2419 3304 2112 
Q 3559 1806 3559 1356 
Q 3559 666 3084 287 
Q 2609 -91 1734 -91 
Q 1441 -91 1130 -33 
Q 819 25 488 141 
L 488 750 
Q 750 597 1062 519 
Q 1375 441 1716 441 
Q 2309 441 2620 675 
Q 2931 909 2931 1356 
Q 2931 1769 2642 2001 
Q 2353 2234 1838 2234 
L 1294 2234 
L 1294 2753 
L 1863 2753 
Q 2328 2753 2575 2939 
Q 2822 3125 2822 3475 
Q 2822 3834 2567 4026 
Q 2313 4219 1838 4219 
Q 1578 4219 1281 4162 
Q 984 4106 628 3988 
L 628 4550 
Q 988 4650 1302 4700 
Q 1616 4750 1894 4750 
Q 2613 4750 3031 4423 
Q 3450 4097 3450 3541 
Q 3450 3153 3228 2886 
Q 3006 2619 2597 2516 
z
" transform="scale(0.015625)"/>
       </defs>
       <use xlink:href="#DejaVuSans-33"/>
      </g>
     </g>
    </g>
    <g id="xtick_5">
     <g id="line2d_9">
      <path d="M 306.290625 250.44375 
L 306.290625 22.318125 
" clip-path="url(#p0854c56487)" style="fill: none; stroke-dasharray: 2.96,1.28; stroke-dashoffset: 0; stroke: #b0b0b0; stroke-opacity: 0.8; stroke-width: 0.8"/>
     </g>
     <g id="line2d_10">
      <g>
       <use xlink:href="#m321de224e3" x="306.290625" y="250.44375" style="stroke: #000000; stroke-width: 0.8"/>
      </g>
     </g>
     <g id="text_5">
      <!-- 4 -->
      <g transform="translate(303.109375 265.042188) scale(0.1 -0.1)">
       <defs>
        <path id="DejaVuSans-34" d="M 2419 4116 
L 825 1625 
L 2419 1625 
L 2419 4116 
z
M 2253 4666 
L 3047 4666 
L 3047 1625 
L 3713 1625 
L 3713 1100 
L 3047 1100 
L 3047 0 
L 2419 0 
L 2419 1100 
L 313 1100 
L 313 1709 
L 2253 4666 
z
" transform="scale(0.015625)"/>
       </defs>
       <use xlink:href="#DejaVuSans-34"/>
      </g>
     </g>
    </g>
    <g id="xtick_6">
     <g id="line2d_11">
      <path d="M 365.951847 250.44375 
L 365.951847 22.318125 
" clip-path="url(#p0854c56487)" style="fill: none; stroke-dasharray: 2.96,1.28; stroke-dashoffset: 0; stroke: #b0b0b0; stroke-opacity: 0.8; stroke-width: 0.8"/>
     </g>
     <g id="line2d_12">
      <g>
       <use xlink:href="#m321de224e3" x="365.951847" y="250.44375" style="stroke: #000000; stroke-width: 0.8"/>
      </g>
     </g>
     <g id="text_6">
      <!-- 5 -->
      <g transform="translate(362.770597 265.042188) scale(0.1 -0.1)">
       <defs>
        <path id="DejaVuSans-35" d="M 691 4666 
L 3169 4666 
L 3169 4134 
L 1269 4134 
L 1269 2991 
Q 1406 3038 1543 3061 
Q 1681 3084 1819 3084 
Q 2600 3084 3056 2656 
Q 3513 2228 3513 1497 
Q 3513 744 3044 326 
Q 2575 -91 1722 -91 
Q 1428 -91 1123 -41 
Q 819 9 494 109 
L 494 744 
Q 775 591 1075 516 
Q 1375 441 1709 441 
Q 2250 441 2565 725 
Q 2881 1009 2881 1497 
Q 2881 1984 2565 2268 
Q 2250 2553 1709 2553 
Q 1456 2553 1204 2497 
Q 953 2441 691 2322 
L 691 4666 
z
" transform="scale(0.015625)"/>
       </defs>
       <use xlink:href="#DejaVuSans-35"/>
      </g>
     </g>
    </g>
    <g id="xtick_7">
     <g id="line2d_13">
      <path d="M 425.613068 250.44375 
L 425.613068 22.318125 
" clip-path="url(#p0854c56487)" style="fill: none; stroke-dasharray: 2.96,1.28; stroke-dashoffset: 0; stroke: #b0b0b0; stroke-opacity: 0.8; stroke-width: 0.8"/>
     </g>
     <g id="line2d_14">
      <g>
       <use xlink:href="#m321de224e3" x="425.613068" y="250.44375" style="stroke: #000000; stroke-width: 0.8"/>
      </g>
     </g>
     <g id="text_7">
      <!-- 6 -->
      <g transform="translate(422.431818 265.042188) scale(0.1 -0.1)">
       <defs>
        <path id="DejaVuSans-36" d="M 2113 2584 
Q 1688 2584 1439 2293 
Q 1191 2003 1191 1497 
Q 1191 994 1439 701 
Q 1688 409 2113 409 
Q 2538 409 2786 701 
Q 3034 994 3034 1497 
Q 3034 2003 2786 2293 
Q 2538 2584 2113 2584 
z
M 3366 4563 
L 3366 3988 
Q 3128 4100 2886 4159 
Q 2644 4219 2406 4219 
Q 1781 4219 1451 3797 
Q 1122 3375 1075 2522 
Q 1259 2794 1537 2939 
Q 1816 3084 2150 3084 
Q 2853 3084 3261 2657 
Q 3669 2231 3669 1497 
Q 3669 778 3244 343 
Q 2819 -91 2113 -91 
Q 1303 -91 875 529 
Q 447 1150 447 2328 
Q 447 3434 972 4092 
Q 1497 4750 2381 4750 
Q 2619 4750 2861 4703 
Q 3103 4656 3366 4563 
z
" transform="scale(0.015625)"/>
       </defs>
       <use xlink:href="#DejaVuSans-36"/>
      </g>
     </g>
    </g>
    <g id="xtick_8">
     <g id="line2d_15">
      <path d="M 485.27429 250.44375 
L 485.27429 22.318125 
" clip-path="url(#p0854c56487)" style="fill: none; stroke-dasharray: 2.96,1.28; stroke-dashoffset: 0; stroke: #b0b0b0; stroke-opacity: 0.8; stroke-width: 0.8"/>
     </g>
     <g id="line2d_16">
      <g>
       <use xlink:href="#m321de224e3" x="485.27429" y="250.44375" style="stroke: #000000; stroke-width: 0.8"/>
      </g>
     </g>
     <g id="text_8">
      <!-- 7 -->
      <g transform="translate(482.09304 265.042188) scale(0.1 -0.1)">
       <defs>
        <path id="DejaVuSans-37" d="M 525 4666 
L 3525 4666 
L 3525 4397 
L 1831 0 
L 1172 0 
L 2766 4134 
L 525 4134 
L 525 4666 
z
" transform="scale(0.015625)"/>
       </defs>
       <use xlink:href="#DejaVuSans-37"/>
      </g>
     </g>
    </g>
    <g id="xtick_9">
     <g id="line2d_17">
      <path d="M 544.935511 250.44375 
L 544.935511 22.318125 
" clip-path="url(#p0854c56487)" style="fill: none; stroke-dasharray: 2.96,1.28; stroke-dashoffset: 0; stroke: #b0b0b0; stroke-opacity: 0.8; stroke-width: 0.8"/>
     </g>
     <g id="line2d_18">
      <g>
       <use xlink:href="#m321de224e3" x="544.935511" y="250.44375" style="stroke: #000000; stroke-width: 0.8"/>
      </g>
     </g>
     <g id="text_9">
      <!-- 8 -->
      <g transform="translate(541.754261 265.042188) scale(0.1 -0.1)">
       <defs>
        <path id="DejaVuSans-38" d="M 2034 2216 
Q 1584 2216 1326 1975 
Q 1069 1734 1069 1313 
Q 1069 891 1326 650 
Q 1584 409 2034 409 
Q 2484 409 2743 651 
Q 3003 894 3003 1313 
Q 3003 1734 2745 1975 
Q 2488 2216 2034 2216 
z
M 1403 2484 
Q 997 2584 770 2862 
Q 544 3141 544 3541 
Q 544 4100 942 4425 
Q 1341 4750 2034 4750 
Q 2731 4750 3128 4425 
Q 3525 4100 3525 3541 
Q 3525 3141 3298 2862 
Q 3072 2584 2669 2484 
Q 3125 2378 3379 2068 
Q 3634 1759 3634 1313 
Q 3634 634 3220 271 
Q 2806 -91 2034 -91 
Q 1263 -91 848 271 
Q 434 634 434 1313 
Q 434 1759 690 2068 
Q 947 2378 1403 2484 
z
M 1172 3481 
Q 1172 3119 1398 2916 
Q 1625 2713 2034 2713 
Q 2441 2713 2670 2916 
Q 2900 3119 2900 3481 
Q 2900 3844 2670 4047 
Q 2441 4250 2034 4250 
Q 1625 4250 1398 4047 
Q 1172 3844 1172 3481 
z
" transform="scale(0.015625)"/>
       </defs>
       <use xlink:href="#DejaVuSans-38"/>
      </g>
     </g>
    </g>
    <g id="text_10">
     <!-- Random variable -->
     <g transform="translate(263.83125 278.720312) scale(0.1 -0.1)">
      <defs>
       <path id="DejaVuSans-52" d="M 2841 2188 
Q 3044 2119 3236 1894 
Q 3428 1669 3622 1275 
L 4263 0 
L 3584 0 
L 2988 1197 
Q 2756 1666 2539 1819 
Q 2322 1972 1947 1972 
L 1259 1972 
L 1259 0 
L 628 0 
L 628 4666 
L 2053 4666 
Q 2853 4666 3247 4331 
Q 3641 3997 3641 3322 
Q 3641 2881 3436 2590 
Q 3231 2300 2841 2188 
z
M 1259 4147 
L 1259 2491 
L 2053 2491 
Q 2509 2491 2742 2702 
Q 2975 2913 2975 3322 
Q 2975 3731 2742 3939 
Q 2509 4147 2053 4147 
L 1259 4147 
z
" transform="scale(0.015625)"/>
       <path id="DejaVuSans-61" d="M 2194 1759 
Q 1497 1759 1228 1600 
Q 959 1441 959 1056 
Q 959 750 1161 570 
Q 1363 391 1709 391 
Q 2188 391 2477 730 
Q 2766 1069 2766 1631 
L 2766 1759 
L 2194 1759 
z
M 3341 1997 
L 3341 0 
L 2766 0 
L 2766 531 
Q 2569 213 2275 61 
Q 1981 -91 1556 -91 
Q 1019 -91 701 211 
Q 384 513 384 1019 
Q 384 1609 779 1909 
Q 1175 2209 1959 2209 
L 2766 2209 
L 2766 2266 
Q 2766 2663 2505 2880 
Q 2244 3097 1772 3097 
Q 1472 3097 1187 3025 
Q 903 2953 641 2809 
L 641 3341 
Q 956 3463 1253 3523 
Q 1550 3584 1831 3584 
Q 2591 3584 2966 3190 
Q 3341 2797 3341 1997 
z
" transform="scale(0.015625)"/>
       <path id="DejaVuSans-6e" d="M 3513 2113 
L 3513 0 
L 2938 0 
L 2938 2094 
Q 2938 2591 2744 2837 
Q 2550 3084 2163 3084 
Q 1697 3084 1428 2787 
Q 1159 2491 1159 1978 
L 1159 0 
L 581 0 
L 581 3500 
L 1159 3500 
L 1159 2956 
Q 1366 3272 1645 3428 
Q 1925 3584 2291 3584 
Q 2894 3584 3203 3211 
Q 3513 2838 3513 2113 
z
" transform="scale(0.015625)"/>
       <path id="DejaVuSans-64" d="M 2906 2969 
L 2906 4863 
L 3481 4863 
L 3481 0 
L 2906 0 
L 2906 525 
Q 2725 213 2448 61 
Q 2172 -91 1784 -91 
Q 1150 -91 751 415 
Q 353 922 353 1747 
Q 353 2572 751 3078 
Q 1150 3584 1784 3584 
Q 2172 3584 2448 3432 
Q 2725 3281 2906 2969 
z
M 947 1747 
Q 947 1113 1208 752 
Q 1469 391 1925 391 
Q 2381 391 2643 752 
Q 2906 1113 2906 1747 
Q 2906 2381 2643 2742 
Q 2381 3103 1925 3103 
Q 1469 3103 1208 2742 
Q 947 2381 947 1747 
z
" transform="scale(0.015625)"/>
       <path id="DejaVuSans-6f" d="M 1959 3097 
Q 1497 3097 1228 2736 
Q 959 2375 959 1747 
Q 959 1119 1226 758 
Q 1494 397 1959 397 
Q 2419 397 2687 759 
Q 2956 1122 2956 1747 
Q 2956 2369 2687 2733 
Q 2419 3097 1959 3097 
z
M 1959 3584 
Q 2709 3584 3137 3096 
Q 3566 2609 3566 1747 
Q 3566 888 3137 398 
Q 2709 -91 1959 -91 
Q 1206 -91 779 398 
Q 353 888 353 1747 
Q 353 2609 779 3096 
Q 1206 3584 1959 3584 
z
" transform="scale(0.015625)"/>
       <path id="DejaVuSans-6d" d="M 3328 2828 
Q 3544 3216 3844 3400 
Q 4144 3584 4550 3584 
Q 5097 3584 5394 3201 
Q 5691 2819 5691 2113 
L 5691 0 
L 5113 0 
L 5113 2094 
Q 5113 2597 4934 2840 
Q 4756 3084 4391 3084 
Q 3944 3084 3684 2787 
Q 3425 2491 3425 1978 
L 3425 0 
L 2847 0 
L 2847 2094 
Q 2847 2600 2669 2842 
Q 2491 3084 2119 3084 
Q 1678 3084 1418 2786 
Q 1159 2488 1159 1978 
L 1159 0 
L 581 0 
L 581 3500 
L 1159 3500 
L 1159 2956 
Q 1356 3278 1631 3431 
Q 1906 3584 2284 3584 
Q 2666 3584 2933 3390 
Q 3200 3197 3328 2828 
z
" transform="scale(0.015625)"/>
       <path id="DejaVuSans-20" transform="scale(0.015625)"/>
       <path id="DejaVuSans-76" d="M 191 3500 
L 800 3500 
L 1894 563 
L 2988 3500 
L 3597 3500 
L 2284 0 
L 1503 0 
L 191 3500 
z
" transform="scale(0.015625)"/>
       <path id="DejaVuSans-72" d="M 2631 2963 
Q 2534 3019 2420 3045 
Q 2306 3072 2169 3072 
Q 1681 3072 1420 2755 
Q 1159 2438 1159 1844 
L 1159 0 
L 581 0 
L 581 3500 
L 1159 3500 
L 1159 2956 
Q 1341 3275 1631 3429 
Q 1922 3584 2338 3584 
Q 2397 3584 2469 3576 
Q 2541 3569 2628 3553 
L 2631 2963 
z
" transform="scale(0.015625)"/>
       <path id="DejaVuSans-69" d="M 603 3500 
L 1178 3500 
L 1178 0 
L 603 0 
L 603 3500 
z
M 603 4863 
L 1178 4863 
L 1178 4134 
L 603 4134 
L 603 4863 
z
" transform="scale(0.015625)"/>
       <path id="DejaVuSans-62" d="M 3116 1747 
Q 3116 2381 2855 2742 
Q 2594 3103 2138 3103 
Q 1681 3103 1420 2742 
Q 1159 2381 1159 1747 
Q 1159 1113 1420 752 
Q 1681 391 2138 391 
Q 2594 391 2855 752 
Q 3116 1113 3116 1747 
z
M 1159 2969 
Q 1341 3281 1617 3432 
Q 1894 3584 2278 3584 
Q 2916 3584 3314 3078 
Q 3713 2572 3713 1747 
Q 3713 922 3314 415 
Q 2916 -91 2278 -91 
Q 1894 -91 1617 61 
Q 1341 213 1159 525 
L 1159 0 
L 581 0 
L 581 4863 
L 1159 4863 
L 1159 2969 
z
" transform="scale(0.015625)"/>
       <path id="DejaVuSans-6c" d="M 603 4863 
L 1178 4863 
L 1178 0 
L 603 0 
L 603 4863 
z
" transform="scale(0.015625)"/>
       <path id="DejaVuSans-65" d="M 3597 1894 
L 3597 1613 
L 953 1613 
Q 991 1019 1311 708 
Q 1631 397 2203 397 
Q 2534 397 2845 478 
Q 3156 559 3463 722 
L 3463 178 
Q 3153 47 2828 -22 
Q 2503 -91 2169 -91 
Q 1331 -91 842 396 
Q 353 884 353 1716 
Q 353 2575 817 3079 
Q 1281 3584 2069 3584 
Q 2775 3584 3186 3129 
Q 3597 2675 3597 1894 
z
M 3022 2063 
Q 3016 2534 2758 2815 
Q 2500 3097 2075 3097 
Q 1594 3097 1305 2825 
Q 1016 2553 972 2059 
L 3022 2063 
z
" transform="scale(0.015625)"/>
      </defs>
      <use xlink:href="#DejaVuSans-52"/>
      <use xlink:href="#DejaVuSans-61" transform="translate(67.232422 0)"/>
      <use xlink:href="#DejaVuSans-6e" transform="translate(128.511719 0)"/>
      <use xlink:href="#DejaVuSans-64" transform="translate(191.890625 0)"/>
      <use xlink:href="#DejaVuSans-6f" transform="translate(255.367188 0)"/>
      <use xlink:href="#DejaVuSans-6d" transform="translate(316.548828 0)"/>
      <use xlink:href="#DejaVuSans-20" transform="translate(413.960938 0)"/>
      <use xlink:href="#DejaVuSans-76" transform="translate(445.748047 0)"/>
      <use xlink:href="#DejaVuSans-61" transform="translate(504.927734 0)"/>
      <use xlink:href="#DejaVuSans-72" transform="translate(566.207031 0)"/>
      <use xlink:href="#DejaVuSans-69" transform="translate(607.320312 0)"/>
      <use xlink:href="#DejaVuSans-61" transform="translate(635.103516 0)"/>
      <use xlink:href="#DejaVuSans-62" transform="translate(696.382812 0)"/>
      <use xlink:href="#DejaVuSans-6c" transform="translate(759.859375 0)"/>
      <use xlink:href="#DejaVuSans-65" transform="translate(787.642578 0)"/>
     </g>
    </g>
   </g>
   <g id="matplotlib.axis_2">
    <g id="ytick_1">
     <g id="line2d_19">
      <path d="M 43.78125 250.44375 
L 568.8 250.44375 
" clip-path="url(#p0854c56487)" style="fill: none; stroke-dasharray: 2.96,1.28; stroke-dashoffset: 0; stroke: #b0b0b0; stroke-opacity: 0.8; stroke-width: 0.8"/>
     </g>
     <g id="line2d_20">
      <defs>
       <path id="m4780ac031f" d="M 0 0 
L -3.5 0 
" style="stroke: #000000; stroke-width: 0.8"/>
      </defs>
      <g>
       <use xlink:href="#m4780ac031f" x="43.78125" y="250.44375" style="stroke: #000000; stroke-width: 0.8"/>
      </g>
     </g>
     <g id="text_11">
      <!-- 0.0 -->
      <g transform="translate(20.878125 254.242969) scale(0.1 -0.1)">
       <defs>
        <path id="DejaVuSans-2e" d="M 684 794 
L 1344 794 
L 1344 0 
L 684 0 
L 684 794 
z
" transform="scale(0.015625)"/>
       </defs>
       <use xlink:href="#DejaVuSans-30"/>
       <use xlink:href="#DejaVuSans-2e" transform="translate(63.623047 0)"/>
       <use xlink:href="#DejaVuSans-30" transform="translate(95.410156 0)"/>
      </g>
     </g>
    </g>
    <g id="ytick_2">
     <g id="line2d_21">
      <path d="M 43.78125 205.761676 
L 568.8 205.761676 
" clip-path="url(#p0854c56487)" style="fill: none; stroke-dasharray: 2.96,1.28; stroke-dashoffset: 0; stroke: #b0b0b0; stroke-opacity: 0.8; stroke-width: 0.8"/>
     </g>
     <g id="line2d_22">
      <g>
       <use xlink:href="#m4780ac031f" x="43.78125" y="205.761676" style="stroke: #000000; stroke-width: 0.8"/>
      </g>
     </g>
     <g id="text_12">
      <!-- 0.1 -->
      <g transform="translate(20.878125 209.560895) scale(0.1 -0.1)">
       <use xlink:href="#DejaVuSans-30"/>
       <use xlink:href="#DejaVuSans-2e" transform="translate(63.623047 0)"/>
       <use xlink:href="#DejaVuSans-31" transform="translate(95.410156 0)"/>
      </g>
     </g>
    </g>
    <g id="ytick_3">
     <g id="line2d_23">
      <path d="M 43.78125 161.079602 
L 568.8 161.079602 
" clip-path="url(#p0854c56487)" style="fill: none; stroke-dasharray: 2.96,1.28; stroke-dashoffset: 0; stroke: #b0b0b0; stroke-opacity: 0.8; stroke-width: 0.8"/>
     </g>
     <g id="line2d_24">
      <g>
       <use xlink:href="#m4780ac031f" x="43.78125" y="161.079602" style="stroke: #000000; stroke-width: 0.8"/>
      </g>
     </g>
     <g id="text_13">
      <!-- 0.2 -->
      <g transform="translate(20.878125 164.878821) scale(0.1 -0.1)">
       <use xlink:href="#DejaVuSans-30"/>
       <use xlink:href="#DejaVuSans-2e" transform="translate(63.623047 0)"/>
       <use xlink:href="#DejaVuSans-32" transform="translate(95.410156 0)"/>
      </g>
     </g>
    </g>
    <g id="ytick_4">
     <g id="line2d_25">
      <path d="M 43.78125 116.397528 
L 568.8 116.397528 
" clip-path="url(#p0854c56487)" style="fill: none; stroke-dasharray: 2.96,1.28; stroke-dashoffset: 0; stroke: #b0b0b0; stroke-opacity: 0.8; stroke-width: 0.8"/>
     </g>
     <g id="line2d_26">
      <g>
       <use xlink:href="#m4780ac031f" x="43.78125" y="116.397528" style="stroke: #000000; stroke-width: 0.8"/>
      </g>
     </g>
     <g id="text_14">
      <!-- 0.3 -->
      <g transform="translate(20.878125 120.196747) scale(0.1 -0.1)">
       <use xlink:href="#DejaVuSans-30"/>
       <use xlink:href="#DejaVuSans-2e" transform="translate(63.623047 0)"/>
       <use xlink:href="#DejaVuSans-33" transform="translate(95.410156 0)"/>
      </g>
     </g>
    </g>
    <g id="ytick_5">
     <g id="line2d_27">
      <path d="M 43.78125 71.715454 
L 568.8 71.715454 
" clip-path="url(#p0854c56487)" style="fill: none; stroke-dasharray: 2.96,1.28; stroke-dashoffset: 0; stroke: #b0b0b0; stroke-opacity: 0.8; stroke-width: 0.8"/>
     </g>
     <g id="line2d_28">
      <g>
       <use xlink:href="#m4780ac031f" x="43.78125" y="71.715454" style="stroke: #000000; stroke-width: 0.8"/>
      </g>
     </g>
     <g id="text_15">
      <!-- 0.4 -->
      <g transform="translate(20.878125 75.514673) scale(0.1 -0.1)">
       <use xlink:href="#DejaVuSans-30"/>
       <use xlink:href="#DejaVuSans-2e" transform="translate(63.623047 0)"/>
       <use xlink:href="#DejaVuSans-34" transform="translate(95.410156 0)"/>
      </g>
     </g>
    </g>
    <g id="ytick_6">
     <g id="line2d_29">
      <path d="M 43.78125 27.03338 
L 568.8 27.03338 
" clip-path="url(#p0854c56487)" style="fill: none; stroke-dasharray: 2.96,1.28; stroke-dashoffset: 0; stroke: #b0b0b0; stroke-opacity: 0.8; stroke-width: 0.8"/>
     </g>
     <g id="line2d_30">
      <g>
       <use xlink:href="#m4780ac031f" x="43.78125" y="27.03338" style="stroke: #000000; stroke-width: 0.8"/>
      </g>
     </g>
     <g id="text_16">
      <!-- 0.5 -->
      <g transform="translate(20.878125 30.832599) scale(0.1 -0.1)">
       <use xlink:href="#DejaVuSans-30"/>
       <use xlink:href="#DejaVuSans-2e" transform="translate(63.623047 0)"/>
       <use xlink:href="#DejaVuSans-35" transform="translate(95.410156 0)"/>
      </g>
     </g>
    </g>
    <g id="text_17">
     <!-- Probability density -->
     <g transform="translate(14.798438 182.731719) rotate(-90) scale(0.1 -0.1)">
      <defs>
       <path id="DejaVuSans-50" d="M 1259 4147 
L 1259 2394 
L 2053 2394 
Q 2494 2394 2734 2622 
Q 2975 2850 2975 3272 
Q 2975 3691 2734 3919 
Q 2494 4147 2053 4147 
L 1259 4147 
z
M 628 4666 
L 2053 4666 
Q 2838 4666 3239 4311 
Q 3641 3956 3641 3272 
Q 3641 2581 3239 2228 
Q 2838 1875 2053 1875 
L 1259 1875 
L 1259 0 
L 628 0 
L 628 4666 
z
" transform="scale(0.015625)"/>
       <path id="DejaVuSans-74" d="M 1172 4494 
L 1172 3500 
L 2356 3500 
L 2356 3053 
L 1172 3053 
L 1172 1153 
Q 1172 725 1289 603 
Q 1406 481 1766 481 
L 2356 481 
L 2356 0 
L 1766 0 
Q 1100 0 847 248 
Q 594 497 594 1153 
L 594 3053 
L 172 3053 
L 172 3500 
L 594 3500 
L 594 4494 
L 1172 4494 
z
" transform="scale(0.015625)"/>
       <path id="DejaVuSans-79" d="M 2059 -325 
Q 1816 -950 1584 -1140 
Q 1353 -1331 966 -1331 
L 506 -1331 
L 506 -850 
L 844 -850 
Q 1081 -850 1212 -737 
Q 1344 -625 1503 -206 
L 1606 56 
L 191 3500 
L 800 3500 
L 1894 763 
L 2988 3500 
L 3597 3500 
L 2059 -325 
z
" transform="scale(0.015625)"/>
       <path id="DejaVuSans-73" d="M 2834 3397 
L 2834 2853 
Q 2591 2978 2328 3040 
Q 2066 3103 1784 3103 
Q 1356 3103 1142 2972 
Q 928 2841 928 2578 
Q 928 2378 1081 2264 
Q 1234 2150 1697 2047 
L 1894 2003 
Q 2506 1872 2764 1633 
Q 3022 1394 3022 966 
Q 3022 478 2636 193 
Q 2250 -91 1575 -91 
Q 1294 -91 989 -36 
Q 684 19 347 128 
L 347 722 
Q 666 556 975 473 
Q 1284 391 1588 391 
Q 1994 391 2212 530 
Q 2431 669 2431 922 
Q 2431 1156 2273 1281 
Q 2116 1406 1581 1522 
L 1381 1569 
Q 847 1681 609 1914 
Q 372 2147 372 2553 
Q 372 3047 722 3315 
Q 1072 3584 1716 3584 
Q 2034 3584 2315 3537 
Q 2597 3491 2834 3397 
z
" transform="scale(0.015625)"/>
      </defs>
      <use xlink:href="#DejaVuSans-50"/>
      <use xlink:href="#DejaVuSans-72" transform="translate(58.552734 0)"/>
      <use xlink:href="#DejaVuSans-6f" transform="translate(97.416016 0)"/>
      <use xlink:href="#DejaVuSans-62" transform="translate(158.597656 0)"/>
      <use xlink:href="#DejaVuSans-61" transform="translate(222.074219 0)"/>
      <use xlink:href="#DejaVuSans-62" transform="translate(283.353516 0)"/>
      <use xlink:href="#DejaVuSans-69" transform="translate(346.830078 0)"/>
      <use xlink:href="#DejaVuSans-6c" transform="translate(374.613281 0)"/>
      <use xlink:href="#DejaVuSans-69" transform="translate(402.396484 0)"/>
      <use xlink:href="#DejaVuSans-74" transform="translate(430.179688 0)"/>
      <use xlink:href="#DejaVuSans-79" transform="translate(469.388672 0)"/>
      <use xlink:href="#DejaVuSans-20" transform="translate(528.568359 0)"/>
      <use xlink:href="#DejaVuSans-64" transform="translate(560.355469 0)"/>
      <use xlink:href="#DejaVuSans-65" transform="translate(623.832031 0)"/>
      <use xlink:href="#DejaVuSans-6e" transform="translate(685.355469 0)"/>
      <use xlink:href="#DejaVuSans-73" transform="translate(748.734375 0)"/>
      <use xlink:href="#DejaVuSans-69" transform="translate(800.833984 0)"/>
      <use xlink:href="#DejaVuSans-74" transform="translate(828.617188 0)"/>
      <use xlink:href="#DejaVuSans-79" transform="translate(867.826172 0)"/>
     </g>
    </g>
   </g>
   <g id="line2d_31">
    <path d="M 67.645739 250.44375 
L 82.919011 222.080528 
L 91.032938 207.488379 
L 97.714994 195.903873 
L 103.919761 185.593892 
L 109.647239 176.527389 
L 114.897426 168.645059 
L 119.670324 161.868784 
L 124.443222 155.49048 
L 128.73883 150.109446 
L 133.034438 145.08425 
L 137.330045 140.427508 
L 141.148364 136.606023 
L 144.966682 133.089901 
L 148.785 129.883717 
L 152.603318 126.990698 
L 155.944347 124.717715 
L 159.285375 122.6864 
L 162.626403 120.896431 
L 165.967432 119.346744 
L 169.30846 118.035553 
L 172.649489 116.960376 
L 175.990517 116.118056 
L 179.331545 115.504793 
L 182.672574 115.116175 
L 186.013602 114.947206 
L 189.354631 114.992346 
L 192.695659 115.245544 
L 196.036688 115.700278 
L 199.855006 116.457807 
L 203.673324 117.458454 
L 207.491642 118.690613 
L 211.30996 120.142165 
L 215.605568 122.021754 
L 219.901176 124.144702 
L 224.674074 126.766031 
L 229.446972 129.638289 
L 234.697159 133.056002 
L 240.424636 137.052798 
L 246.629403 141.647658 
L 253.78875 147.220293 
L 262.857256 154.571503 
L 279.085108 168.081504 
L 292.926511 179.473812 
L 302.472307 187.040438 
L 310.586233 193.198229 
L 318.222869 198.718418 
L 325.382216 203.623372 
L 332.541563 208.248085 
L 339.223619 212.300767 
L 345.905676 216.092975 
L 352.587733 219.622805 
L 359.26979 222.891661 
L 365.951847 225.903833 
L 372.633903 228.666065 
L 379.31596 231.187137 
L 385.998017 233.477477 
L 393.157364 235.688676 
L 400.31671 237.663988 
L 407.953347 239.529396 
L 415.589983 241.165294 
L 423.703909 242.674707 
L 432.295125 244.042142 
L 441.363631 245.257712 
L 450.909426 246.31724 
L 461.409801 247.260404 
L 472.864756 248.068268 
L 485.75158 248.755137 
L 500.547563 249.320193 
L 518.207284 249.767649 
L 540.639903 250.100873 
L 544.935511 250.143967 
L 544.935511 250.143967 
" clip-path="url(#p0854c56487)" style="fill: none; stroke: #1f77b4; stroke-linecap: square"/>
   </g>
   <g id="line2d_32">
    <path d="M 67.645739 250.44375 
L 77.668824 240.142333 
L 83.396301 233.932842 
L 88.169199 228.447223 
L 92.464807 223.204544 
L 96.760415 217.626668 
L 101.056023 211.679175 
L 105.351631 205.338309 
L 109.647239 198.592067 
L 113.942847 191.441079 
L 118.715744 183.038187 
L 123.488642 174.191838 
L 129.216119 163.076045 
L 136.375466 148.623509 
L 154.035188 112.689928 
L 158.808085 103.579848 
L 163.103693 95.838492 
L 166.922011 89.412761 
L 170.26304 84.202345 
L 173.604068 79.425458 
L 176.467807 75.709004 
L 179.331545 72.368029 
L 181.717994 69.887133 
L 184.104443 67.694484 
L 186.490892 65.800421 
L 188.877341 64.213828 
L 191.26379 62.942063 
L 193.172949 62.15526 
L 195.082108 61.575879 
L 196.991267 61.205448 
L 198.900426 61.044812 
L 200.809585 61.094126 
L 202.718744 61.352861 
L 204.627903 61.819803 
L 206.537062 62.493068 
L 208.446222 63.370105 
L 210.83267 64.748026 
L 213.219119 66.431684 
L 215.605568 68.411993 
L 217.992017 70.678482 
L 220.378466 73.219382 
L 223.242205 76.612346 
L 226.105943 80.357267 
L 229.446972 85.13581 
L 232.788 90.312535 
L 236.606318 96.655685 
L 240.901926 104.248368 
L 246.152114 114.034861 
L 252.83417 127.007485 
L 269.539312 159.652288 
L 275.26679 170.248011 
L 280.039688 178.653097 
L 284.812585 186.601895 
L 289.108193 193.324681 
L 293.403801 199.612501 
L 297.222119 204.823491 
L 301.040437 209.672807 
L 304.858756 214.160055 
L 308.677074 218.289261 
L 312.495392 222.068311 
L 316.31371 225.508374 
L 320.132028 228.623334 
L 323.950347 231.429236 
L 327.768665 233.943754 
L 331.586983 236.185701 
L 335.405301 238.17458 
L 339.223619 239.930179 
L 343.519227 241.650932 
L 347.814835 243.128901 
L 352.587733 244.518511 
L 357.360631 245.675382 
L 362.610818 246.717037 
L 368.338295 247.621201 
L 374.543063 248.376943 
L 381.702409 249.02078 
L 390.293625 249.551934 
L 400.31671 249.940285 
L 413.680824 250.219083 
L 433.249705 250.380866 
L 473.819335 250.440577 
L 544.935511 250.443745 
L 544.935511 250.443745 
" clip-path="url(#p0854c56487)" style="fill: none; stroke: #ff7f0e; stroke-linecap: square"/>
   </g>
   <g id="line2d_33">
    <path d="M 67.645739 250.443745 
L 68.600318 247.073603 
L 69.077608 247.073603 
L 71.464057 238.647924 
L 71.941347 238.647924 
L 73.850506 231.90673 
L 74.327795 231.90673 
L 76.714244 223.479272 
L 77.191534 223.479272 
L 79.100693 216.736875 
L 79.577983 216.736875 
L 81.964432 208.309654 
L 82.441722 208.309654 
L 84.350881 201.570262 
L 84.82817 201.570262 
L 87.214619 193.152652 
L 87.691909 193.152652 
L 89.601068 186.427659 
L 90.078358 186.427659 
L 92.464807 178.039505 
L 92.942097 178.039505 
L 94.851256 171.34974 
L 95.328545 171.34974 
L 97.237705 164.685172 
L 97.714994 164.685172 
L 100.101443 156.401171 
L 100.578733 156.401171 
L 102.487892 149.82174 
L 102.965182 149.82174 
L 105.351631 141.673146 
L 105.82892 141.673146 
L 107.73808 135.228157 
L 108.215369 135.228157 
L 110.601818 127.284115 
L 111.079108 127.284115 
L 112.988267 121.034714 
L 113.465557 121.034714 
L 115.852006 113.378567 
L 116.329295 113.378567 
L 118.238455 107.396569 
L 118.715744 107.396569 
L 121.102193 100.123844 
L 121.579483 100.123844 
L 123.488642 94.48969 
L 123.965932 94.48969 
L 126.352381 87.705047 
L 126.82967 87.705047 
L 128.73883 82.504984 
L 129.216119 82.504984 
L 131.602568 76.318249 
L 132.079858 76.318249 
L 133.989017 71.64085 
L 134.466307 71.64085 
L 136.852756 66.162345 
L 137.330045 66.162345 
L 139.239205 62.094557 
L 139.716494 62.094557 
L 142.102943 57.429964 
L 142.580233 57.429964 
L 144.489392 54.052909 
L 144.966682 54.052909 
L 147.353131 50.297981 
L 147.83042 50.297981 
L 149.73958 47.682752 
L 150.216869 47.682752 
L 152.126028 45.425412 
L 152.603318 44.918188 
L 153.080608 44.918188 
L 154.989767 43.121917 
L 155.467057 43.121917 
L 157.376216 41.70353 
L 157.853506 41.70353 
L 159.285375 40.89151 
L 160.239955 40.471189 
L 160.717244 40.471189 
L 162.149114 40.023329 
L 163.103693 39.922891 
L 164.535563 39.768412 
L 166.444722 39.834219 
L 168.83117 40.263721 
L 170.26304 40.840608 
L 170.74033 41.081079 
L 171.217619 41.081079 
L 172.649489 41.945799 
L 173.126778 42.281467 
L 173.604068 42.281467 
L 175.035938 43.429116 
L 175.990517 44.310077 
L 176.467807 44.310077 
L 178.376966 46.344576 
L 178.854256 46.344576 
L 180.763415 48.733144 
L 181.240705 49.384149 
L 181.717994 49.384149 
L 183.627153 52.197135 
L 184.104443 52.197135 
L 186.490892 56.165676 
L 186.968182 56.165676 
L 188.877341 59.682184 
L 189.354631 59.682184 
L 191.74108 64.475234 
L 192.218369 64.475234 
L 194.127528 68.603904 
L 194.604818 68.603904 
L 196.991267 74.098725 
L 197.468557 74.098725 
L 199.377716 78.735493 
L 199.855006 78.735493 
L 202.241455 84.796027 
L 202.718744 84.796027 
L 204.627903 89.828318 
L 205.105193 89.828318 
L 207.491642 96.310624 
L 207.968932 96.310624 
L 209.878091 101.621787 
L 210.355381 101.621787 
L 212.26454 107.019383 
L 212.74183 107.019383 
L 215.128278 113.853338 
L 215.605568 113.853338 
L 217.514727 119.363011 
L 217.992017 119.363011 
L 220.378466 126.267972 
L 220.855756 126.267972 
L 222.764915 131.781102 
L 223.242205 131.781102 
L 225.628653 138.626813 
L 226.105943 138.626813 
L 228.015102 144.044348 
L 228.492392 144.044348 
L 230.878841 150.714303 
L 231.356131 150.714303 
L 233.26529 155.949431 
L 233.74258 155.949431 
L 236.129028 162.343718 
L 236.606318 162.343718 
L 238.515477 167.323745 
L 238.992767 167.323745 
L 241.379216 173.360875 
L 241.856506 173.360875 
L 243.765665 178.02827 
L 244.242955 178.02827 
L 246.629403 183.64599 
L 247.106693 183.64599 
L 249.015852 187.958645 
L 249.493142 187.958645 
L 251.879591 193.113788 
L 252.356881 193.113788 
L 254.26604 197.044558 
L 254.74333 197.044558 
L 257.129778 201.712074 
L 257.607068 201.712074 
L 259.516227 205.247707 
L 259.993517 205.247707 
L 262.379966 209.419022 
L 262.857256 209.419022 
L 264.766415 212.558633 
L 265.243705 212.558633 
L 267.152864 215.524773 
L 267.630153 215.524773 
L 270.016602 218.992723 
L 270.493892 218.992723 
L 272.403051 221.579597 
L 272.880341 221.579597 
L 275.26679 224.58575 
L 275.74408 224.58575 
L 277.653239 226.814587 
L 278.130528 226.814587 
L 280.516977 229.389232 
L 280.994267 229.389232 
L 282.903426 231.286787 
L 283.380716 231.286787 
L 285.767165 233.465901 
L 286.244455 233.465901 
L 288.153614 235.062535 
L 288.630903 235.062535 
L 291.017352 236.885483 
L 291.494642 236.885483 
L 293.403801 238.213436 
L 293.881091 238.213436 
L 296.26754 239.720974 
L 296.74483 239.720974 
L 298.653989 240.812891 
L 299.131278 240.812891 
L 301.517727 242.045485 
L 301.995017 242.045485 
L 303.904176 242.933216 
L 304.381466 242.933216 
L 306.767915 243.929729 
L 307.245205 243.929729 
L 309.154364 244.643415 
L 309.631653 244.643415 
L 312.018102 245.440131 
L 312.495392 245.440131 
L 314.404551 246.007561 
L 314.881841 246.007561 
L 317.26829 246.637535 
L 317.74558 246.637535 
L 319.654739 247.083741 
L 320.609318 247.187845 
L 322.518477 247.576439 
L 323.473057 247.666946 
L 326.336795 248.082655 
L 329.677824 248.507897 
L 332.541563 248.808558 
L 333.973432 248.9166 
L 337.79175 249.246095 
L 339.223619 249.327647 
L 343.996517 249.606017 
L 350.201284 249.88615 
L 357.83792 250.105494 
L 367.861006 250.273122 
L 383.611568 250.390172 
L 416.067273 250.440085 
L 544.935511 250.44375 
L 544.935511 250.44375 
" clip-path="url(#p0854c56487)" style="fill: none; stroke: #2ca02c; stroke-linecap: square"/>
   </g>
   <g id="patch_3">
    <path d="M 67.952774 250.44375 
L 67.952774 246.144796 
L 71.177301 246.144796 
L 71.177301 235.728101 
L 74.401828 235.728101 
L 74.401828 225.394078 
L 77.626355 225.394078 
L 77.626355 219.937714 
L 80.850883 219.937714 
L 80.850883 208.859641 
L 84.07541 208.859641 
L 84.07541 199.104324 
L 87.299937 199.104324 
L 87.299937 188.604956 
L 90.524464 188.604956 
L 90.524464 184.22333 
L 93.748992 184.22333 
L 93.748992 168.763632 
L 96.973519 168.763632 
L 96.973519 163.555284 
L 100.198046 163.555284 
L 100.198046 155.122722 
L 103.422574 155.122722 
L 103.422574 140.324401 
L 106.647101 140.324401 
L 106.647101 130.651755 
L 109.871628 130.651755 
L 109.871628 125.608752 
L 113.096155 125.608752 
L 113.096155 113.207924 
L 116.320683 113.207924 
L 116.320683 106.428805 
L 119.54521 106.428805 
L 119.54521 93.945305 
L 122.769737 93.945305 
L 122.769737 84.686021 
L 125.994264 84.686021 
L 125.994264 88.488941 
L 129.218792 88.488941 
L 129.218792 76.501475 
L 132.443319 76.501475 
L 132.443319 73.359932 
L 135.667846 73.359932 
L 135.667846 67.490206 
L 138.892373 67.490206 
L 138.892373 61.95117 
L 142.116901 61.95117 
L 142.116901 54.676018 
L 145.341428 54.676018 
L 145.341428 49.798359 
L 148.565955 49.798359 
L 148.565955 52.691885 
L 151.790483 52.691885 
L 151.790483 45.995439 
L 155.01501 45.995439 
L 155.01501 42.440535 
L 161.464064 42.357862 
L 161.464064 50.625081 
L 164.688592 50.625081 
L 164.688592 34.007972 
L 167.913119 34.007972 
L 167.913119 33.18125 
L 171.137646 33.18125 
L 171.137646 48.971637 
L 174.362173 48.971637 
L 174.362173 47.235521 
L 177.586701 47.235521 
L 177.586701 47.400866 
L 180.811228 47.400866 
L 180.811228 55.420068 
L 184.035755 55.420068 
L 184.035755 54.841362 
L 187.260282 54.841362 
L 187.260282 59.636349 
L 190.48481 59.636349 
L 190.48481 56.577478 
L 193.709337 56.577478 
L 193.709337 69.8877 
L 196.933864 69.8877 
L 196.933864 74.351998 
L 200.158391 74.351998 
L 200.158391 81.62715 
L 203.382919 81.62715 
L 203.382919 91.713156 
L 206.607446 91.713156 
L 206.607446 97.169521 
L 209.831973 97.169521 
L 209.831973 105.436739 
L 213.056501 105.436739 
L 213.056501 112.877236 
L 216.281028 112.877236 
L 216.281028 121.805831 
L 219.505555 121.805831 
L 219.505555 123.128586 
L 222.730082 123.128586 
L 222.730082 134.123987 
L 225.95461 134.123987 
L 225.95461 142.969911 
L 229.179137 142.969911 
L 229.179137 149.335669 
L 232.403664 149.335669 
L 232.403664 157.272198 
L 235.628191 157.272198 
L 235.628191 160.74443 
L 238.852719 160.74443 
L 238.852719 172.566553 
L 242.077246 172.566553 
L 242.077246 179.593688 
L 245.301773 179.593688 
L 245.301773 184.884708 
L 248.5263 184.884708 
L 248.5263 191.415811 
L 251.750828 191.415811 
L 251.750828 192.325205 
L 254.975355 192.325205 
L 254.975355 199.517685 
L 258.199882 199.517685 
L 258.199882 205.056721 
L 261.42441 205.056721 
L 261.42441 207.867575 
L 264.648937 207.867575 
L 264.648937 215.804105 
L 267.873464 215.804105 
L 267.873464 219.193664 
L 271.097991 219.193664 
L 271.097991 220.020386 
L 274.322519 220.020386 
L 274.322519 224.732701 
L 277.547046 224.732701 
L 277.547046 230.106393 
L 283.9961 230.106393 
L 283.9961 232.66923 
L 287.220628 232.66923 
L 287.220628 235.397412 
L 290.445155 235.397412 
L 290.445155 238.869644 
L 293.669682 238.869644 
L 293.669682 238.208267 
L 296.894209 238.208267 
L 296.894209 241.845843 
L 300.118737 241.845843 
L 300.118737 242.837909 
L 303.343264 242.837909 
L 303.343264 243.99532 
L 306.567791 243.99532 
L 306.567791 244.656697 
L 309.792319 244.656697 
L 309.792319 244.822041 
L 313.016846 244.822041 
L 313.016846 245.979452 
L 316.241373 245.979452 
L 316.241373 246.227469 
L 319.4659 246.227469 
L 319.4659 247.550224 
L 325.914955 247.467551 
L 325.914955 248.211601 
L 329.139482 248.211601 
L 329.139482 249.203667 
L 332.364009 249.203667 
L 332.364009 248.54229 
L 335.588537 248.54229 
L 335.588537 249.534356 
L 348.486646 249.534356 
L 348.486646 249.6997 
L 351.711173 249.6997 
L 351.711173 250.030389 
L 354.9357 250.030389 
L 354.9357 249.865045 
L 358.160227 249.865045 
L 358.160227 250.113061 
L 361.384755 250.113061 
L 361.384755 250.278406 
L 374.282864 250.278406 
L 374.282864 250.44375 
L 393.630027 250.361078 
L 393.630027 250.44375 
" clip-path="url(#p0854c56487)" style="fill: none; stroke: #d62728; stroke-linejoin: miter"/>
   </g>
   <g id="patch_4">
    <path d="M 43.78125 250.44375 
L 43.78125 22.318125 
" style="fill: none; stroke: #000000; stroke-width: 0.8; stroke-linejoin: miter; stroke-linecap: square"/>
   </g>
   <g id="patch_5">
    <path d="M 568.8 250.44375 
L 568.8 22.318125 
" style="fill: none; stroke: #000000; stroke-width: 0.8; stroke-linejoin: miter; stroke-linecap: square"/>
   </g>
   <g id="patch_6">
    <path d="M 43.78125 250.44375 
L 568.8 250.44375 
" style="fill: none; stroke: #000000; stroke-width: 0.8; stroke-linejoin: miter; stroke-linecap: square"/>
   </g>
   <g id="patch_7">
    <path d="M 43.78125 22.318125 
L 568.8 22.318125 
" style="fill: none; stroke: #000000; stroke-width: 0.8; stroke-linejoin: miter; stroke-linecap: square"/>
   </g>
   <g id="text_18">
    <!-- Minimum of Rayleigh and Rician random variables -->
    <g transform="translate(155.19 16.318125) scale(0.12 -0.12)">
     <defs>
      <path id="DejaVuSans-4d" d="M 628 4666 
L 1569 4666 
L 2759 1491 
L 3956 4666 
L 4897 4666 
L 4897 0 
L 4281 0 
L 4281 4097 
L 3078 897 
L 2444 897 
L 1241 4097 
L 1241 0 
L 628 0 
L 628 4666 
z
" transform="scale(0.015625)"/>
      <path id="DejaVuSans-75" d="M 544 1381 
L 544 3500 
L 1119 3500 
L 1119 1403 
Q 1119 906 1312 657 
Q 1506 409 1894 409 
Q 2359 409 2629 706 
Q 2900 1003 2900 1516 
L 2900 3500 
L 3475 3500 
L 3475 0 
L 2900 0 
L 2900 538 
Q 2691 219 2414 64 
Q 2138 -91 1772 -91 
Q 1169 -91 856 284 
Q 544 659 544 1381 
z
M 1991 3584 
L 1991 3584 
z
" transform="scale(0.015625)"/>
      <path id="DejaVuSans-66" d="M 2375 4863 
L 2375 4384 
L 1825 4384 
Q 1516 4384 1395 4259 
Q 1275 4134 1275 3809 
L 1275 3500 
L 2222 3500 
L 2222 3053 
L 1275 3053 
L 1275 0 
L 697 0 
L 697 3053 
L 147 3053 
L 147 3500 
L 697 3500 
L 697 3744 
Q 697 4328 969 4595 
Q 1241 4863 1831 4863 
L 2375 4863 
z
" transform="scale(0.015625)"/>
      <path id="DejaVuSans-67" d="M 2906 1791 
Q 2906 2416 2648 2759 
Q 2391 3103 1925 3103 
Q 1463 3103 1205 2759 
Q 947 2416 947 1791 
Q 947 1169 1205 825 
Q 1463 481 1925 481 
Q 2391 481 2648 825 
Q 2906 1169 2906 1791 
z
M 3481 434 
Q 3481 -459 3084 -895 
Q 2688 -1331 1869 -1331 
Q 1566 -1331 1297 -1286 
Q 1028 -1241 775 -1147 
L 775 -588 
Q 1028 -725 1275 -790 
Q 1522 -856 1778 -856 
Q 2344 -856 2625 -561 
Q 2906 -266 2906 331 
L 2906 616 
Q 2728 306 2450 153 
Q 2172 0 1784 0 
Q 1141 0 747 490 
Q 353 981 353 1791 
Q 353 2603 747 3093 
Q 1141 3584 1784 3584 
Q 2172 3584 2450 3431 
Q 2728 3278 2906 2969 
L 2906 3500 
L 3481 3500 
L 3481 434 
z
" transform="scale(0.015625)"/>
      <path id="DejaVuSans-68" d="M 3513 2113 
L 3513 0 
L 2938 0 
L 2938 2094 
Q 2938 2591 2744 2837 
Q 2550 3084 2163 3084 
Q 1697 3084 1428 2787 
Q 1159 2491 1159 1978 
L 1159 0 
L 581 0 
L 581 4863 
L 1159 4863 
L 1159 2956 
Q 1366 3272 1645 3428 
Q 1925 3584 2291 3584 
Q 2894 3584 3203 3211 
Q 3513 2838 3513 2113 
z
" transform="scale(0.015625)"/>
      <path id="DejaVuSans-63" d="M 3122 3366 
L 3122 2828 
Q 2878 2963 2633 3030 
Q 2388 3097 2138 3097 
Q 1578 3097 1268 2742 
Q 959 2388 959 1747 
Q 959 1106 1268 751 
Q 1578 397 2138 397 
Q 2388 397 2633 464 
Q 2878 531 3122 666 
L 3122 134 
Q 2881 22 2623 -34 
Q 2366 -91 2075 -91 
Q 1284 -91 818 406 
Q 353 903 353 1747 
Q 353 2603 823 3093 
Q 1294 3584 2113 3584 
Q 2378 3584 2631 3529 
Q 2884 3475 3122 3366 
z
" transform="scale(0.015625)"/>
     </defs>
     <use xlink:href="#DejaVuSans-4d"/>
     <use xlink:href="#DejaVuSans-69" transform="translate(86.279297 0)"/>
     <use xlink:href="#DejaVuSans-6e" transform="translate(114.0625 0)"/>
     <use xlink:href="#DejaVuSans-69" transform="translate(177.441406 0)"/>
     <use xlink:href="#DejaVuSans-6d" transform="translate(205.224609 0)"/>
     <use xlink:href="#DejaVuSans-75" transform="translate(302.636719 0)"/>
     <use xlink:href="#DejaVuSans-6d" transform="translate(366.015625 0)"/>
     <use xlink:href="#DejaVuSans-20" transform="translate(463.427734 0)"/>
     <use xlink:href="#DejaVuSans-6f" transform="translate(495.214844 0)"/>
     <use xlink:href="#DejaVuSans-66" transform="translate(556.396484 0)"/>
     <use xlink:href="#DejaVuSans-20" transform="translate(591.601562 0)"/>
     <use xlink:href="#DejaVuSans-52" transform="translate(623.388672 0)"/>
     <use xlink:href="#DejaVuSans-61" transform="translate(690.621094 0)"/>
     <use xlink:href="#DejaVuSans-79" transform="translate(751.900391 0)"/>
     <use xlink:href="#DejaVuSans-6c" transform="translate(811.080078 0)"/>
     <use xlink:href="#DejaVuSans-65" transform="translate(838.863281 0)"/>
     <use xlink:href="#DejaVuSans-69" transform="translate(900.386719 0)"/>
     <use xlink:href="#DejaVuSans-67" transform="translate(928.169922 0)"/>
     <use xlink:href="#DejaVuSans-68" transform="translate(991.646484 0)"/>
     <use xlink:href="#DejaVuSans-20" transform="translate(1055.025391 0)"/>
     <use xlink:href="#DejaVuSans-61" transform="translate(1086.8125 0)"/>
     <use xlink:href="#DejaVuSans-6e" transform="translate(1148.091797 0)"/>
     <use xlink:href="#DejaVuSans-64" transform="translate(1211.470703 0)"/>
     <use xlink:href="#DejaVuSans-20" transform="translate(1274.947266 0)"/>
     <use xlink:href="#DejaVuSans-52" transform="translate(1306.734375 0)"/>
     <use xlink:href="#DejaVuSans-69" transform="translate(1376.216797 0)"/>
     <use xlink:href="#DejaVuSans-63" transform="translate(1404 0)"/>
     <use xlink:href="#DejaVuSans-69" transform="translate(1458.980469 0)"/>
     <use xlink:href="#DejaVuSans-61" transform="translate(1486.763672 0)"/>
     <use xlink:href="#DejaVuSans-6e" transform="translate(1548.042969 0)"/>
     <use xlink:href="#DejaVuSans-20" transform="translate(1611.421875 0)"/>
     <use xlink:href="#DejaVuSans-72" transform="translate(1643.208984 0)"/>
     <use xlink:href="#DejaVuSans-61" transform="translate(1684.322266 0)"/>
     <use xlink:href="#DejaVuSans-6e" transform="translate(1745.601562 0)"/>
     <use xlink:href="#DejaVuSans-64" transform="translate(1808.980469 0)"/>
     <use xlink:href="#DejaVuSans-6f" transform="translate(1872.457031 0)"/>
     <use xlink:href="#DejaVuSans-6d" transform="translate(1933.638672 0)"/>
     <use xlink:href="#DejaVuSans-20" transform="translate(2031.050781 0)"/>
     <use xlink:href="#DejaVuSans-76" transform="translate(2062.837891 0)"/>
     <use xlink:href="#DejaVuSans-61" transform="translate(2122.017578 0)"/>
     <use xlink:href="#DejaVuSans-72" transform="translate(2183.296875 0)"/>
     <use xlink:href="#DejaVuSans-69" transform="translate(2224.410156 0)"/>
     <use xlink:href="#DejaVuSans-61" transform="translate(2252.193359 0)"/>
     <use xlink:href="#DejaVuSans-62" transform="translate(2313.472656 0)"/>
     <use xlink:href="#DejaVuSans-6c" transform="translate(2376.949219 0)"/>
     <use xlink:href="#DejaVuSans-65" transform="translate(2404.732422 0)"/>
     <use xlink:href="#DejaVuSans-73" transform="translate(2466.255859 0)"/>
    </g>
   </g>
   <g id="legend_1">
    <g id="patch_8">
     <path d="M 435.5 89.0525 
L 561.8 89.0525 
Q 563.8 89.0525 563.8 87.0525 
L 563.8 29.318125 
Q 563.8 27.318125 561.8 27.318125 
L 435.5 27.318125 
Q 433.5 27.318125 433.5 29.318125 
L 433.5 87.0525 
Q 433.5 89.0525 435.5 89.0525 
z
" style="fill: #ffffff; opacity: 0.8; stroke: #cccccc; stroke-linejoin: miter"/>
    </g>
    <g id="line2d_34">
     <path d="M 437.5 35.416562 
L 447.5 35.416562 
L 457.5 35.416562 
" style="fill: none; stroke: #1f77b4; stroke-linecap: square"/>
    </g>
    <g id="text_19">
     <!-- $X$ -->
     <g transform="translate(465.5 38.916562) scale(0.1 -0.1)">
      <defs>
       <path id="DejaVuSans-Oblique-58" d="M 878 4666 
L 1516 4666 
L 2316 2981 
L 3763 4666 
L 4500 4666 
L 2578 2438 
L 3738 0 
L 3103 0 
L 2163 1966 
L 459 0 
L -275 0 
L 1906 2509 
L 878 4666 
z
" transform="scale(0.015625)"/>
      </defs>
      <use xlink:href="#DejaVuSans-Oblique-58" transform="translate(0 0.09375)"/>
     </g>
    </g>
    <g id="line2d_35">
     <path d="M 437.5 50.094687 
L 447.5 50.094687 
L 457.5 50.094687 
" style="fill: none; stroke: #ff7f0e; stroke-linecap: square"/>
    </g>
    <g id="text_20">
     <!-- $Y$ -->
     <g transform="translate(465.5 53.594687) scale(0.1 -0.1)">
      <defs>
       <path id="DejaVuSans-Oblique-59" d="M 403 4666 
L 1081 4666 
L 1953 2747 
L 3616 4666 
L 4325 4666 
L 2209 2222 
L 1778 0 
L 1147 0 
L 1575 2222 
L 403 4666 
z
" transform="scale(0.015625)"/>
      </defs>
      <use xlink:href="#DejaVuSans-Oblique-59" transform="translate(0 0.09375)"/>
     </g>
    </g>
    <g id="line2d_36">
     <path d="M 437.5 64.772812 
L 447.5 64.772812 
L 457.5 64.772812 
" style="fill: none; stroke: #2ca02c; stroke-linecap: square"/>
    </g>
    <g id="text_21">
     <!-- $\min(X, Y)$ -->
     <g transform="translate(465.5 68.272812) scale(0.1 -0.1)">
      <defs>
       <path id="DejaVuSans-28" d="M 1984 4856 
Q 1566 4138 1362 3434 
Q 1159 2731 1159 2009 
Q 1159 1288 1364 580 
Q 1569 -128 1984 -844 
L 1484 -844 
Q 1016 -109 783 600 
Q 550 1309 550 2009 
Q 550 2706 781 3412 
Q 1013 4119 1484 4856 
L 1984 4856 
z
" transform="scale(0.015625)"/>
       <path id="DejaVuSans-2c" d="M 750 794 
L 1409 794 
L 1409 256 
L 897 -744 
L 494 -744 
L 750 256 
L 750 794 
z
" transform="scale(0.015625)"/>
       <path id="DejaVuSans-29" d="M 513 4856 
L 1013 4856 
Q 1481 4119 1714 3412 
Q 1947 2706 1947 2009 
Q 1947 1309 1714 600 
Q 1481 -109 1013 -844 
L 513 -844 
Q 928 -128 1133 580 
Q 1338 1288 1338 2009 
Q 1338 2731 1133 3434 
Q 928 4138 513 4856 
z
" transform="scale(0.015625)"/>
      </defs>
      <use xlink:href="#DejaVuSans-6d" transform="translate(0 0.015625)"/>
      <use xlink:href="#DejaVuSans-69" transform="translate(97.412109 0.015625)"/>
      <use xlink:href="#DejaVuSans-6e" transform="translate(125.195312 0.015625)"/>
      <use xlink:href="#DejaVuSans-28" transform="translate(188.574219 0.015625)"/>
      <use xlink:href="#DejaVuSans-Oblique-58" transform="translate(227.587891 0.015625)"/>
      <use xlink:href="#DejaVuSans-2c" transform="translate(296.09375 0.015625)"/>
      <use xlink:href="#DejaVuSans-Oblique-59" transform="translate(347.363281 0.015625)"/>
      <use xlink:href="#DejaVuSans-29" transform="translate(408.447266 0.015625)"/>
     </g>
    </g>
    <g id="patch_9">
     <path d="M 437.5 82.9525 
L 457.5 82.9525 
L 457.5 75.9525 
L 437.5 75.9525 
L 437.5 82.9525 
z
" style="fill: none; stroke: #d62728; stroke-linejoin: miter"/>
    </g>
    <g id="text_22">
     <!-- $\min(X, Y)$ empirical -->
     <g transform="translate(465.5 82.9525) scale(0.1 -0.1)">
      <defs>
       <path id="DejaVuSans-70" d="M 1159 525 
L 1159 -1331 
L 581 -1331 
L 581 3500 
L 1159 3500 
L 1159 2969 
Q 1341 3281 1617 3432 
Q 1894 3584 2278 3584 
Q 2916 3584 3314 3078 
Q 3713 2572 3713 1747 
Q 3713 922 3314 415 
Q 2916 -91 2278 -91 
Q 1894 -91 1617 61 
Q 1341 213 1159 525 
z
M 3116 1747 
Q 3116 2381 2855 2742 
Q 2594 3103 2138 3103 
Q 1681 3103 1420 2742 
Q 1159 2381 1159 1747 
Q 1159 1113 1420 752 
Q 1681 391 2138 391 
Q 2594 391 2855 752 
Q 3116 1113 3116 1747 
z
" transform="scale(0.015625)"/>
      </defs>
      <use xlink:href="#DejaVuSans-6d" transform="translate(0 0.015625)"/>
      <use xlink:href="#DejaVuSans-69" transform="translate(97.412109 0.015625)"/>
      <use xlink:href="#DejaVuSans-6e" transform="translate(125.195312 0.015625)"/>
      <use xlink:href="#DejaVuSans-28" transform="translate(188.574219 0.015625)"/>
      <use xlink:href="#DejaVuSans-Oblique-58" transform="translate(227.587891 0.015625)"/>
      <use xlink:href="#DejaVuSans-2c" transform="translate(296.09375 0.015625)"/>
      <use xlink:href="#DejaVuSans-Oblique-59" transform="translate(347.363281 0.015625)"/>
      <use xlink:href="#DejaVuSans-29" transform="translate(408.447266 0.015625)"/>
      <use xlink:href="#DejaVuSans-20" transform="translate(447.460938 0.015625)"/>
      <use xlink:href="#DejaVuSans-65" transform="translate(479.248047 0.015625)"/>
      <use xlink:href="#DejaVuSans-6d" transform="translate(540.771484 0.015625)"/>
      <use xlink:href="#DejaVuSans-70" transform="translate(638.183594 0.015625)"/>
      <use xlink:href="#DejaVuSans-69" transform="translate(701.660156 0.015625)"/>
      <use xlink:href="#DejaVuSans-72" transform="translate(729.443359 0.015625)"/>
      <use xlink:href="#DejaVuSans-69" transform="translate(770.556641 0.015625)"/>
      <use xlink:href="#DejaVuSans-63" transform="translate(798.339844 0.015625)"/>
      <use xlink:href="#DejaVuSans-61" transform="translate(853.320312 0.015625)"/>
      <use xlink:href="#DejaVuSans-6c" transform="translate(914.599609 0.015625)"/>
     </g>
    </g>
   </g>
  </g>
 </g>
 <defs>
  <clipPath id="p0854c56487">
   <rect x="43.78125" y="22.318125" width="525.01875" height="228.125625"/>
  </clipPath>
 </defs>
</svg>
