<?xml version="1.0" encoding="utf-8" standalone="no"?>
<!DOCTYPE svg PUBLIC "-//W3C//DTD SVG 1.1//EN"
  "http://www.w3.org/Graphics/SVG/1.1/DTD/svg11.dtd">
<svg xmlns:xlink="http://www.w3.org/1999/xlink" width="576pt" height="288pt" viewBox="0 0 576 288" xmlns="http://www.w3.org/2000/svg" version="1.1">
 <metadata>
  <rdf:RDF xmlns:dc="http://purl.org/dc/elements/1.1/" xmlns:cc="http://creativecommons.org/ns#" xmlns:rdf="http://www.w3.org/1999/02/22-rdf-syntax-ns#">
   <cc:Work>
    <dc:type rdf:resource="http://purl.org/dc/dcmitype/StillImage"/>
    <dc:date>2025-05-10T16:17:39.626815</dc:date>
    <dc:format>image/svg+xml</dc:format>
    <dc:creator>
     <cc:Agent>
      <dc:title>Matplotlib v3.10.3, https://matplotlib.org/</dc:title>
     </cc:Agent>
    </dc:creator>
   </cc:Work>
  </rdf:RDF>
 </metadata>
 <defs>
  <style type="text/css">*{stroke-linejoin: round; stroke-linecap: butt}</style>
 </defs>
 <g id="figure_1">
  <g id="patch_1">
   <path d="M 0 288 
L 576 288 
L 576 0 
L 0 0 
z
" style="fill: #ffffff"/>
  </g>
  <g id="axes_1">
   <g id="patch_2">
    <path d="M 48.982813 250.421875 
L 568.8 250.421875 
L 568.8 22.318125 
L 48.982813 22.318125 
z
" style="fill: #ffffff"/>
   </g>
   <g id="matplotlib.axis_1">
    <g id="xtick_1">
     <g id="line2d_1">
      <path d="M 72.610866 250.421875 
L 72.610866 22.318125 
" clip-path="url(#pd24ddb9175)" style="fill: none; stroke-dasharray: 2.96,1.28; stroke-dashoffset: 0; stroke: #b0b0b0; stroke-opacity: 0.8; stroke-width: 0.8"/>
     </g>
     <g id="line2d_2">
      <defs>
       <path id="m3a26d6ca1d" d="M 0 0 
L 0 3.5 
" style="stroke: #000000; stroke-width: 0.8"/>
      </defs>
      <g>
       <use xlink:href="#m3a26d6ca1d" x="72.610866" y="250.421875" style="stroke: #000000; stroke-width: 0.8"/>
      </g>
     </g>
     <g id="text_1">
      <!-- -4 -->
      <g transform="translate(67.62571 265.020312) scale(0.1 -0.1)">
       <defs>
        <path id="DejaVuSans-2d" d="M 313 2009 
L 1997 2009 
L 1997 1497 
L 313 1497 
L 313 2009 
z
" transform="scale(0.015625)"/>
        <path id="DejaVuSans-34" d="M 2419 4116 
L 825 1625 
L 2419 1625 
L 2419 4116 
z
M 2253 4666 
L 3047 4666 
L 3047 1625 
L 3713 1625 
L 3713 1100 
L 3047 1100 
L 3047 0 
L 2419 0 
L 2419 1100 
L 313 1100 
L 313 1709 
L 2253 4666 
z
" transform="scale(0.015625)"/>
       </defs>
       <use xlink:href="#DejaVuSans-2d"/>
       <use xlink:href="#DejaVuSans-34" transform="translate(36.083984 0)"/>
      </g>
     </g>
    </g>
    <g id="xtick_2">
     <g id="line2d_3">
      <path d="M 131.912649 250.421875 
L 131.912649 22.318125 
" clip-path="url(#pd24ddb9175)" style="fill: none; stroke-dasharray: 2.96,1.28; stroke-dashoffset: 0; stroke: #b0b0b0; stroke-opacity: 0.8; stroke-width: 0.8"/>
     </g>
     <g id="line2d_4">
      <g>
       <use xlink:href="#m3a26d6ca1d" x="131.912649" y="250.421875" style="stroke: #000000; stroke-width: 0.8"/>
      </g>
     </g>
     <g id="text_2">
      <!-- -3 -->
      <g transform="translate(126.927493 265.020312) scale(0.1 -0.1)">
       <defs>
        <path id="DejaVuSans-33" d="M 2597 2516 
Q 3050 2419 3304 2112 
Q 3559 1806 3559 1356 
Q 3559 666 3084 287 
Q 2609 -91 1734 -91 
Q 1441 -91 1130 -33 
Q 819 25 488 141 
L 488 750 
Q 750 597 1062 519 
Q 1375 441 1716 441 
Q 2309 441 2620 675 
Q 2931 909 2931 1356 
Q 2931 1769 2642 2001 
Q 2353 2234 1838 2234 
L 1294 2234 
L 1294 2753 
L 1863 2753 
Q 2328 2753 2575 2939 
Q 2822 3125 2822 3475 
Q 2822 3834 2567 4026 
Q 2313 4219 1838 4219 
Q 1578 4219 1281 4162 
Q 984 4106 628 3988 
L 628 4550 
Q 988 4650 1302 4700 
Q 1616 4750 1894 4750 
Q 2613 4750 3031 4423 
Q 3450 4097 3450 3541 
Q 3450 3153 3228 2886 
Q 3006 2619 2597 2516 
z
" transform="scale(0.015625)"/>
       </defs>
       <use xlink:href="#DejaVuSans-2d"/>
       <use xlink:href="#DejaVuSans-33" transform="translate(36.083984 0)"/>
      </g>
     </g>
    </g>
    <g id="xtick_3">
     <g id="line2d_5">
      <path d="M 191.214432 250.421875 
L 191.214432 22.318125 
" clip-path="url(#pd24ddb9175)" style="fill: none; stroke-dasharray: 2.96,1.28; stroke-dashoffset: 0; stroke: #b0b0b0; stroke-opacity: 0.8; stroke-width: 0.8"/>
     </g>
     <g id="line2d_6">
      <g>
       <use xlink:href="#m3a26d6ca1d" x="191.214432" y="250.421875" style="stroke: #000000; stroke-width: 0.8"/>
      </g>
     </g>
     <g id="text_3">
      <!-- -2 -->
      <g transform="translate(186.229275 265.020312) scale(0.1 -0.1)">
       <defs>
        <path id="DejaVuSans-32" d="M 1228 531 
L 3431 531 
L 3431 0 
L 469 0 
L 469 531 
Q 828 903 1448 1529 
Q 2069 2156 2228 2338 
Q 2531 2678 2651 2914 
Q 2772 3150 2772 3378 
Q 2772 3750 2511 3984 
Q 2250 4219 1831 4219 
Q 1534 4219 1204 4116 
Q 875 4013 500 3803 
L 500 4441 
Q 881 4594 1212 4672 
Q 1544 4750 1819 4750 
Q 2544 4750 2975 4387 
Q 3406 4025 3406 3419 
Q 3406 3131 3298 2873 
Q 3191 2616 2906 2266 
Q 2828 2175 2409 1742 
Q 1991 1309 1228 531 
z
" transform="scale(0.015625)"/>
       </defs>
       <use xlink:href="#DejaVuSans-2d"/>
       <use xlink:href="#DejaVuSans-32" transform="translate(36.083984 0)"/>
      </g>
     </g>
    </g>
    <g id="xtick_4">
     <g id="line2d_7">
      <path d="M 250.516214 250.421875 
L 250.516214 22.318125 
" clip-path="url(#pd24ddb9175)" style="fill: none; stroke-dasharray: 2.96,1.28; stroke-dashoffset: 0; stroke: #b0b0b0; stroke-opacity: 0.8; stroke-width: 0.8"/>
     </g>
     <g id="line2d_8">
      <g>
       <use xlink:href="#m3a26d6ca1d" x="250.516214" y="250.421875" style="stroke: #000000; stroke-width: 0.8"/>
      </g>
     </g>
     <g id="text_4">
      <!-- -1 -->
      <g transform="translate(245.531058 265.020312) scale(0.1 -0.1)">
       <defs>
        <path id="DejaVuSans-31" d="M 794 531 
L 1825 531 
L 1825 4091 
L 703 3866 
L 703 4441 
L 1819 4666 
L 2450 4666 
L 2450 531 
L 3481 531 
L 3481 0 
L 794 0 
L 794 531 
z
" transform="scale(0.015625)"/>
       </defs>
       <use xlink:href="#DejaVuSans-2d"/>
       <use xlink:href="#DejaVuSans-31" transform="translate(36.083984 0)"/>
      </g>
     </g>
    </g>
    <g id="xtick_5">
     <g id="line2d_9">
      <path d="M 309.817997 250.421875 
L 309.817997 22.318125 
" clip-path="url(#pd24ddb9175)" style="fill: none; stroke-dasharray: 2.96,1.28; stroke-dashoffset: 0; stroke: #b0b0b0; stroke-opacity: 0.8; stroke-width: 0.8"/>
     </g>
     <g id="line2d_10">
      <g>
       <use xlink:href="#m3a26d6ca1d" x="309.817997" y="250.421875" style="stroke: #000000; stroke-width: 0.8"/>
      </g>
     </g>
     <g id="text_5">
      <!-- 0 -->
      <g transform="translate(306.636747 265.020312) scale(0.1 -0.1)">
       <defs>
        <path id="DejaVuSans-30" d="M 2034 4250 
Q 1547 4250 1301 3770 
Q 1056 3291 1056 2328 
Q 1056 1369 1301 889 
Q 1547 409 2034 409 
Q 2525 409 2770 889 
Q 3016 1369 3016 2328 
Q 3016 3291 2770 3770 
Q 2525 4250 2034 4250 
z
M 2034 4750 
Q 2819 4750 3233 4129 
Q 3647 3509 3647 2328 
Q 3647 1150 3233 529 
Q 2819 -91 2034 -91 
Q 1250 -91 836 529 
Q 422 1150 422 2328 
Q 422 3509 836 4129 
Q 1250 4750 2034 4750 
z
" transform="scale(0.015625)"/>
       </defs>
       <use xlink:href="#DejaVuSans-30"/>
      </g>
     </g>
    </g>
    <g id="xtick_6">
     <g id="line2d_11">
      <path d="M 369.119779 250.421875 
L 369.119779 22.318125 
" clip-path="url(#pd24ddb9175)" style="fill: none; stroke-dasharray: 2.96,1.28; stroke-dashoffset: 0; stroke: #b0b0b0; stroke-opacity: 0.8; stroke-width: 0.8"/>
     </g>
     <g id="line2d_12">
      <g>
       <use xlink:href="#m3a26d6ca1d" x="369.119779" y="250.421875" style="stroke: #000000; stroke-width: 0.8"/>
      </g>
     </g>
     <g id="text_6">
      <!-- 1 -->
      <g transform="translate(365.938529 265.020312) scale(0.1 -0.1)">
       <use xlink:href="#DejaVuSans-31"/>
      </g>
     </g>
    </g>
    <g id="xtick_7">
     <g id="line2d_13">
      <path d="M 428.421562 250.421875 
L 428.421562 22.318125 
" clip-path="url(#pd24ddb9175)" style="fill: none; stroke-dasharray: 2.96,1.28; stroke-dashoffset: 0; stroke: #b0b0b0; stroke-opacity: 0.8; stroke-width: 0.8"/>
     </g>
     <g id="line2d_14">
      <g>
       <use xlink:href="#m3a26d6ca1d" x="428.421562" y="250.421875" style="stroke: #000000; stroke-width: 0.8"/>
      </g>
     </g>
     <g id="text_7">
      <!-- 2 -->
      <g transform="translate(425.240312 265.020312) scale(0.1 -0.1)">
       <use xlink:href="#DejaVuSans-32"/>
      </g>
     </g>
    </g>
    <g id="xtick_8">
     <g id="line2d_15">
      <path d="M 487.723344 250.421875 
L 487.723344 22.318125 
" clip-path="url(#pd24ddb9175)" style="fill: none; stroke-dasharray: 2.96,1.28; stroke-dashoffset: 0; stroke: #b0b0b0; stroke-opacity: 0.8; stroke-width: 0.8"/>
     </g>
     <g id="line2d_16">
      <g>
       <use xlink:href="#m3a26d6ca1d" x="487.723344" y="250.421875" style="stroke: #000000; stroke-width: 0.8"/>
      </g>
     </g>
     <g id="text_8">
      <!-- 3 -->
      <g transform="translate(484.542094 265.020312) scale(0.1 -0.1)">
       <use xlink:href="#DejaVuSans-33"/>
      </g>
     </g>
    </g>
    <g id="xtick_9">
     <g id="line2d_17">
      <path d="M 547.025127 250.421875 
L 547.025127 22.318125 
" clip-path="url(#pd24ddb9175)" style="fill: none; stroke-dasharray: 2.96,1.28; stroke-dashoffset: 0; stroke: #b0b0b0; stroke-opacity: 0.8; stroke-width: 0.8"/>
     </g>
     <g id="line2d_18">
      <g>
       <use xlink:href="#m3a26d6ca1d" x="547.025127" y="250.421875" style="stroke: #000000; stroke-width: 0.8"/>
      </g>
     </g>
     <g id="text_9">
      <!-- 4 -->
      <g transform="translate(543.843877 265.020312) scale(0.1 -0.1)">
       <use xlink:href="#DejaVuSans-34"/>
      </g>
     </g>
    </g>
    <g id="text_10">
     <!-- Frequency (Hz), $f$ -->
     <g transform="translate(265.741406 278.7) scale(0.1 -0.1)">
      <defs>
       <path id="DejaVuSans-46" d="M 628 4666 
L 3309 4666 
L 3309 4134 
L 1259 4134 
L 1259 2759 
L 3109 2759 
L 3109 2228 
L 1259 2228 
L 1259 0 
L 628 0 
L 628 4666 
z
" transform="scale(0.015625)"/>
       <path id="DejaVuSans-72" d="M 2631 2963 
Q 2534 3019 2420 3045 
Q 2306 3072 2169 3072 
Q 1681 3072 1420 2755 
Q 1159 2438 1159 1844 
L 1159 0 
L 581 0 
L 581 3500 
L 1159 3500 
L 1159 2956 
Q 1341 3275 1631 3429 
Q 1922 3584 2338 3584 
Q 2397 3584 2469 3576 
Q 2541 3569 2628 3553 
L 2631 2963 
z
" transform="scale(0.015625)"/>
       <path id="DejaVuSans-65" d="M 3597 1894 
L 3597 1613 
L 953 1613 
Q 991 1019 1311 708 
Q 1631 397 2203 397 
Q 2534 397 2845 478 
Q 3156 559 3463 722 
L 3463 178 
Q 3153 47 2828 -22 
Q 2503 -91 2169 -91 
Q 1331 -91 842 396 
Q 353 884 353 1716 
Q 353 2575 817 3079 
Q 1281 3584 2069 3584 
Q 2775 3584 3186 3129 
Q 3597 2675 3597 1894 
z
M 3022 2063 
Q 3016 2534 2758 2815 
Q 2500 3097 2075 3097 
Q 1594 3097 1305 2825 
Q 1016 2553 972 2059 
L 3022 2063 
z
" transform="scale(0.015625)"/>
       <path id="DejaVuSans-71" d="M 947 1747 
Q 947 1113 1208 752 
Q 1469 391 1925 391 
Q 2381 391 2643 752 
Q 2906 1113 2906 1747 
Q 2906 2381 2643 2742 
Q 2381 3103 1925 3103 
Q 1469 3103 1208 2742 
Q 947 2381 947 1747 
z
M 2906 525 
Q 2725 213 2448 61 
Q 2172 -91 1784 -91 
Q 1150 -91 751 415 
Q 353 922 353 1747 
Q 353 2572 751 3078 
Q 1150 3584 1784 3584 
Q 2172 3584 2448 3432 
Q 2725 3281 2906 2969 
L 2906 3500 
L 3481 3500 
L 3481 -1331 
L 2906 -1331 
L 2906 525 
z
" transform="scale(0.015625)"/>
       <path id="DejaVuSans-75" d="M 544 1381 
L 544 3500 
L 1119 3500 
L 1119 1403 
Q 1119 906 1312 657 
Q 1506 409 1894 409 
Q 2359 409 2629 706 
Q 2900 1003 2900 1516 
L 2900 3500 
L 3475 3500 
L 3475 0 
L 2900 0 
L 2900 538 
Q 2691 219 2414 64 
Q 2138 -91 1772 -91 
Q 1169 -91 856 284 
Q 544 659 544 1381 
z
M 1991 3584 
L 1991 3584 
z
" transform="scale(0.015625)"/>
       <path id="DejaVuSans-6e" d="M 3513 2113 
L 3513 0 
L 2938 0 
L 2938 2094 
Q 2938 2591 2744 2837 
Q 2550 3084 2163 3084 
Q 1697 3084 1428 2787 
Q 1159 2491 1159 1978 
L 1159 0 
L 581 0 
L 581 3500 
L 1159 3500 
L 1159 2956 
Q 1366 3272 1645 3428 
Q 1925 3584 2291 3584 
Q 2894 3584 3203 3211 
Q 3513 2838 3513 2113 
z
" transform="scale(0.015625)"/>
       <path id="DejaVuSans-63" d="M 3122 3366 
L 3122 2828 
Q 2878 2963 2633 3030 
Q 2388 3097 2138 3097 
Q 1578 3097 1268 2742 
Q 959 2388 959 1747 
Q 959 1106 1268 751 
Q 1578 397 2138 397 
Q 2388 397 2633 464 
Q 2878 531 3122 666 
L 3122 134 
Q 2881 22 2623 -34 
Q 2366 -91 2075 -91 
Q 1284 -91 818 406 
Q 353 903 353 1747 
Q 353 2603 823 3093 
Q 1294 3584 2113 3584 
Q 2378 3584 2631 3529 
Q 2884 3475 3122 3366 
z
" transform="scale(0.015625)"/>
       <path id="DejaVuSans-79" d="M 2059 -325 
Q 1816 -950 1584 -1140 
Q 1353 -1331 966 -1331 
L 506 -1331 
L 506 -850 
L 844 -850 
Q 1081 -850 1212 -737 
Q 1344 -625 1503 -206 
L 1606 56 
L 191 3500 
L 800 3500 
L 1894 763 
L 2988 3500 
L 3597 3500 
L 2059 -325 
z
" transform="scale(0.015625)"/>
       <path id="DejaVuSans-20" transform="scale(0.015625)"/>
       <path id="DejaVuSans-28" d="M 1984 4856 
Q 1566 4138 1362 3434 
Q 1159 2731 1159 2009 
Q 1159 1288 1364 580 
Q 1569 -128 1984 -844 
L 1484 -844 
Q 1016 -109 783 600 
Q 550 1309 550 2009 
Q 550 2706 781 3412 
Q 1013 4119 1484 4856 
L 1984 4856 
z
" transform="scale(0.015625)"/>
       <path id="DejaVuSans-48" d="M 628 4666 
L 1259 4666 
L 1259 2753 
L 3553 2753 
L 3553 4666 
L 4184 4666 
L 4184 0 
L 3553 0 
L 3553 2222 
L 1259 2222 
L 1259 0 
L 628 0 
L 628 4666 
z
" transform="scale(0.015625)"/>
       <path id="DejaVuSans-7a" d="M 353 3500 
L 3084 3500 
L 3084 2975 
L 922 459 
L 3084 459 
L 3084 0 
L 275 0 
L 275 525 
L 2438 3041 
L 353 3041 
L 353 3500 
z
" transform="scale(0.015625)"/>
       <path id="DejaVuSans-29" d="M 513 4856 
L 1013 4856 
Q 1481 4119 1714 3412 
Q 1947 2706 1947 2009 
Q 1947 1309 1714 600 
Q 1481 -109 1013 -844 
L 513 -844 
Q 928 -128 1133 580 
Q 1338 1288 1338 2009 
Q 1338 2731 1133 3434 
Q 928 4138 513 4856 
z
" transform="scale(0.015625)"/>
       <path id="DejaVuSans-2c" d="M 750 794 
L 1409 794 
L 1409 256 
L 897 -744 
L 494 -744 
L 750 256 
L 750 794 
z
" transform="scale(0.015625)"/>
       <path id="DejaVuSans-Oblique-66" d="M 3059 4863 
L 2969 4384 
L 2419 4384 
Q 2106 4384 1964 4261 
Q 1822 4138 1753 3809 
L 1691 3500 
L 2638 3500 
L 2553 3053 
L 1606 3053 
L 1013 0 
L 434 0 
L 1031 3053 
L 481 3053 
L 563 3500 
L 1113 3500 
L 1159 3744 
Q 1278 4363 1576 4613 
Q 1875 4863 2516 4863 
L 3059 4863 
z
" transform="scale(0.015625)"/>
      </defs>
      <use xlink:href="#DejaVuSans-46" transform="translate(0 0.015625)"/>
      <use xlink:href="#DejaVuSans-72" transform="translate(57.519531 0.015625)"/>
      <use xlink:href="#DejaVuSans-65" transform="translate(98.632812 0.015625)"/>
      <use xlink:href="#DejaVuSans-71" transform="translate(160.15625 0.015625)"/>
      <use xlink:href="#DejaVuSans-75" transform="translate(223.632812 0.015625)"/>
      <use xlink:href="#DejaVuSans-65" transform="translate(287.011719 0.015625)"/>
      <use xlink:href="#DejaVuSans-6e" transform="translate(348.535156 0.015625)"/>
      <use xlink:href="#DejaVuSans-63" transform="translate(411.914062 0.015625)"/>
      <use xlink:href="#DejaVuSans-79" transform="translate(466.894531 0.015625)"/>
      <use xlink:href="#DejaVuSans-20" transform="translate(526.074219 0.015625)"/>
      <use xlink:href="#DejaVuSans-28" transform="translate(557.861328 0.015625)"/>
      <use xlink:href="#DejaVuSans-48" transform="translate(596.875 0.015625)"/>
      <use xlink:href="#DejaVuSans-7a" transform="translate(672.070312 0.015625)"/>
      <use xlink:href="#DejaVuSans-29" transform="translate(724.560547 0.015625)"/>
      <use xlink:href="#DejaVuSans-2c" transform="translate(763.574219 0.015625)"/>
      <use xlink:href="#DejaVuSans-20" transform="translate(795.361328 0.015625)"/>
      <use xlink:href="#DejaVuSans-Oblique-66" transform="translate(827.148438 0.015625)"/>
     </g>
    </g>
   </g>
   <g id="matplotlib.axis_2">
    <g id="ytick_1">
     <g id="line2d_19">
      <path d="M 48.982813 244.603957 
L 568.8 244.603957 
" clip-path="url(#pd24ddb9175)" style="fill: none; stroke-dasharray: 2.96,1.28; stroke-dashoffset: 0; stroke: #b0b0b0; stroke-opacity: 0.8; stroke-width: 0.8"/>
     </g>
     <g id="line2d_20">
      <defs>
       <path id="mc7137025e8" d="M 0 0 
L -3.5 0 
" style="stroke: #000000; stroke-width: 0.8"/>
      </defs>
      <g>
       <use xlink:href="#mc7137025e8" x="48.982813" y="244.603957" style="stroke: #000000; stroke-width: 0.8"/>
      </g>
     </g>
     <g id="text_11">
      <!-- −70 -->
      <g transform="translate(20.878125 248.403175) scale(0.1 -0.1)">
       <defs>
        <path id="DejaVuSans-2212" d="M 678 2272 
L 4684 2272 
L 4684 1741 
L 678 1741 
L 678 2272 
z
" transform="scale(0.015625)"/>
        <path id="DejaVuSans-37" d="M 525 4666 
L 3525 4666 
L 3525 4397 
L 1831 0 
L 1172 0 
L 2766 4134 
L 525 4134 
L 525 4666 
z
" transform="scale(0.015625)"/>
       </defs>
       <use xlink:href="#DejaVuSans-2212"/>
       <use xlink:href="#DejaVuSans-37" transform="translate(83.789062 0)"/>
       <use xlink:href="#DejaVuSans-30" transform="translate(147.412109 0)"/>
      </g>
     </g>
    </g>
    <g id="ytick_2">
     <g id="line2d_21">
      <path d="M 48.982813 210.092673 
L 568.8 210.092673 
" clip-path="url(#pd24ddb9175)" style="fill: none; stroke-dasharray: 2.96,1.28; stroke-dashoffset: 0; stroke: #b0b0b0; stroke-opacity: 0.8; stroke-width: 0.8"/>
     </g>
     <g id="line2d_22">
      <g>
       <use xlink:href="#mc7137025e8" x="48.982813" y="210.092673" style="stroke: #000000; stroke-width: 0.8"/>
      </g>
     </g>
     <g id="text_12">
      <!-- −60 -->
      <g transform="translate(20.878125 213.891892) scale(0.1 -0.1)">
       <defs>
        <path id="DejaVuSans-36" d="M 2113 2584 
Q 1688 2584 1439 2293 
Q 1191 2003 1191 1497 
Q 1191 994 1439 701 
Q 1688 409 2113 409 
Q 2538 409 2786 701 
Q 3034 994 3034 1497 
Q 3034 2003 2786 2293 
Q 2538 2584 2113 2584 
z
M 3366 4563 
L 3366 3988 
Q 3128 4100 2886 4159 
Q 2644 4219 2406 4219 
Q 1781 4219 1451 3797 
Q 1122 3375 1075 2522 
Q 1259 2794 1537 2939 
Q 1816 3084 2150 3084 
Q 2853 3084 3261 2657 
Q 3669 2231 3669 1497 
Q 3669 778 3244 343 
Q 2819 -91 2113 -91 
Q 1303 -91 875 529 
Q 447 1150 447 2328 
Q 447 3434 972 4092 
Q 1497 4750 2381 4750 
Q 2619 4750 2861 4703 
Q 3103 4656 3366 4563 
z
" transform="scale(0.015625)"/>
       </defs>
       <use xlink:href="#DejaVuSans-2212"/>
       <use xlink:href="#DejaVuSans-36" transform="translate(83.789062 0)"/>
       <use xlink:href="#DejaVuSans-30" transform="translate(147.412109 0)"/>
      </g>
     </g>
    </g>
    <g id="ytick_3">
     <g id="line2d_23">
      <path d="M 48.982813 175.58139 
L 568.8 175.58139 
" clip-path="url(#pd24ddb9175)" style="fill: none; stroke-dasharray: 2.96,1.28; stroke-dashoffset: 0; stroke: #b0b0b0; stroke-opacity: 0.8; stroke-width: 0.8"/>
     </g>
     <g id="line2d_24">
      <g>
       <use xlink:href="#mc7137025e8" x="48.982813" y="175.58139" style="stroke: #000000; stroke-width: 0.8"/>
      </g>
     </g>
     <g id="text_13">
      <!-- −50 -->
      <g transform="translate(20.878125 179.380608) scale(0.1 -0.1)">
       <defs>
        <path id="DejaVuSans-35" d="M 691 4666 
L 3169 4666 
L 3169 4134 
L 1269 4134 
L 1269 2991 
Q 1406 3038 1543 3061 
Q 1681 3084 1819 3084 
Q 2600 3084 3056 2656 
Q 3513 2228 3513 1497 
Q 3513 744 3044 326 
Q 2575 -91 1722 -91 
Q 1428 -91 1123 -41 
Q 819 9 494 109 
L 494 744 
Q 775 591 1075 516 
Q 1375 441 1709 441 
Q 2250 441 2565 725 
Q 2881 1009 2881 1497 
Q 2881 1984 2565 2268 
Q 2250 2553 1709 2553 
Q 1456 2553 1204 2497 
Q 953 2441 691 2322 
L 691 4666 
z
" transform="scale(0.015625)"/>
       </defs>
       <use xlink:href="#DejaVuSans-2212"/>
       <use xlink:href="#DejaVuSans-35" transform="translate(83.789062 0)"/>
       <use xlink:href="#DejaVuSans-30" transform="translate(147.412109 0)"/>
      </g>
     </g>
    </g>
    <g id="ytick_4">
     <g id="line2d_25">
      <path d="M 48.982813 141.070106 
L 568.8 141.070106 
" clip-path="url(#pd24ddb9175)" style="fill: none; stroke-dasharray: 2.96,1.28; stroke-dashoffset: 0; stroke: #b0b0b0; stroke-opacity: 0.8; stroke-width: 0.8"/>
     </g>
     <g id="line2d_26">
      <g>
       <use xlink:href="#mc7137025e8" x="48.982813" y="141.070106" style="stroke: #000000; stroke-width: 0.8"/>
      </g>
     </g>
     <g id="text_14">
      <!-- −40 -->
      <g transform="translate(20.878125 144.869325) scale(0.1 -0.1)">
       <use xlink:href="#DejaVuSans-2212"/>
       <use xlink:href="#DejaVuSans-34" transform="translate(83.789062 0)"/>
       <use xlink:href="#DejaVuSans-30" transform="translate(147.412109 0)"/>
      </g>
     </g>
    </g>
    <g id="ytick_5">
     <g id="line2d_27">
      <path d="M 48.982813 106.558822 
L 568.8 106.558822 
" clip-path="url(#pd24ddb9175)" style="fill: none; stroke-dasharray: 2.96,1.28; stroke-dashoffset: 0; stroke: #b0b0b0; stroke-opacity: 0.8; stroke-width: 0.8"/>
     </g>
     <g id="line2d_28">
      <g>
       <use xlink:href="#mc7137025e8" x="48.982813" y="106.558822" style="stroke: #000000; stroke-width: 0.8"/>
      </g>
     </g>
     <g id="text_15">
      <!-- −30 -->
      <g transform="translate(20.878125 110.358041) scale(0.1 -0.1)">
       <use xlink:href="#DejaVuSans-2212"/>
       <use xlink:href="#DejaVuSans-33" transform="translate(83.789062 0)"/>
       <use xlink:href="#DejaVuSans-30" transform="translate(147.412109 0)"/>
      </g>
     </g>
    </g>
    <g id="ytick_6">
     <g id="line2d_29">
      <path d="M 48.982813 72.047539 
L 568.8 72.047539 
" clip-path="url(#pd24ddb9175)" style="fill: none; stroke-dasharray: 2.96,1.28; stroke-dashoffset: 0; stroke: #b0b0b0; stroke-opacity: 0.8; stroke-width: 0.8"/>
     </g>
     <g id="line2d_30">
      <g>
       <use xlink:href="#mc7137025e8" x="48.982813" y="72.047539" style="stroke: #000000; stroke-width: 0.8"/>
      </g>
     </g>
     <g id="text_16">
      <!-- −20 -->
      <g transform="translate(20.878125 75.846758) scale(0.1 -0.1)">
       <use xlink:href="#DejaVuSans-2212"/>
       <use xlink:href="#DejaVuSans-32" transform="translate(83.789062 0)"/>
       <use xlink:href="#DejaVuSans-30" transform="translate(147.412109 0)"/>
      </g>
     </g>
    </g>
    <g id="ytick_7">
     <g id="line2d_31">
      <path d="M 48.982813 37.536255 
L 568.8 37.536255 
" clip-path="url(#pd24ddb9175)" style="fill: none; stroke-dasharray: 2.96,1.28; stroke-dashoffset: 0; stroke: #b0b0b0; stroke-opacity: 0.8; stroke-width: 0.8"/>
     </g>
     <g id="line2d_32">
      <g>
       <use xlink:href="#mc7137025e8" x="48.982813" y="37.536255" style="stroke: #000000; stroke-width: 0.8"/>
      </g>
     </g>
     <g id="text_17">
      <!-- −10 -->
      <g transform="translate(20.878125 41.335474) scale(0.1 -0.1)">
       <use xlink:href="#DejaVuSans-2212"/>
       <use xlink:href="#DejaVuSans-31" transform="translate(83.789062 0)"/>
       <use xlink:href="#DejaVuSans-30" transform="translate(147.412109 0)"/>
      </g>
     </g>
    </g>
    <g id="text_18">
     <!-- Power density (dB/Hz) -->
     <g transform="translate(14.798437 191.57) rotate(-90) scale(0.1 -0.1)">
      <defs>
       <path id="DejaVuSans-50" d="M 1259 4147 
L 1259 2394 
L 2053 2394 
Q 2494 2394 2734 2622 
Q 2975 2850 2975 3272 
Q 2975 3691 2734 3919 
Q 2494 4147 2053 4147 
L 1259 4147 
z
M 628 4666 
L 2053 4666 
Q 2838 4666 3239 4311 
Q 3641 3956 3641 3272 
Q 3641 2581 3239 2228 
Q 2838 1875 2053 1875 
L 1259 1875 
L 1259 0 
L 628 0 
L 628 4666 
z
" transform="scale(0.015625)"/>
       <path id="DejaVuSans-6f" d="M 1959 3097 
Q 1497 3097 1228 2736 
Q 959 2375 959 1747 
Q 959 1119 1226 758 
Q 1494 397 1959 397 
Q 2419 397 2687 759 
Q 2956 1122 2956 1747 
Q 2956 2369 2687 2733 
Q 2419 3097 1959 3097 
z
M 1959 3584 
Q 2709 3584 3137 3096 
Q 3566 2609 3566 1747 
Q 3566 888 3137 398 
Q 2709 -91 1959 -91 
Q 1206 -91 779 398 
Q 353 888 353 1747 
Q 353 2609 779 3096 
Q 1206 3584 1959 3584 
z
" transform="scale(0.015625)"/>
       <path id="DejaVuSans-77" d="M 269 3500 
L 844 3500 
L 1563 769 
L 2278 3500 
L 2956 3500 
L 3675 769 
L 4391 3500 
L 4966 3500 
L 4050 0 
L 3372 0 
L 2619 2869 
L 1863 0 
L 1184 0 
L 269 3500 
z
" transform="scale(0.015625)"/>
       <path id="DejaVuSans-64" d="M 2906 2969 
L 2906 4863 
L 3481 4863 
L 3481 0 
L 2906 0 
L 2906 525 
Q 2725 213 2448 61 
Q 2172 -91 1784 -91 
Q 1150 -91 751 415 
Q 353 922 353 1747 
Q 353 2572 751 3078 
Q 1150 3584 1784 3584 
Q 2172 3584 2448 3432 
Q 2725 3281 2906 2969 
z
M 947 1747 
Q 947 1113 1208 752 
Q 1469 391 1925 391 
Q 2381 391 2643 752 
Q 2906 1113 2906 1747 
Q 2906 2381 2643 2742 
Q 2381 3103 1925 3103 
Q 1469 3103 1208 2742 
Q 947 2381 947 1747 
z
" transform="scale(0.015625)"/>
       <path id="DejaVuSans-73" d="M 2834 3397 
L 2834 2853 
Q 2591 2978 2328 3040 
Q 2066 3103 1784 3103 
Q 1356 3103 1142 2972 
Q 928 2841 928 2578 
Q 928 2378 1081 2264 
Q 1234 2150 1697 2047 
L 1894 2003 
Q 2506 1872 2764 1633 
Q 3022 1394 3022 966 
Q 3022 478 2636 193 
Q 2250 -91 1575 -91 
Q 1294 -91 989 -36 
Q 684 19 347 128 
L 347 722 
Q 666 556 975 473 
Q 1284 391 1588 391 
Q 1994 391 2212 530 
Q 2431 669 2431 922 
Q 2431 1156 2273 1281 
Q 2116 1406 1581 1522 
L 1381 1569 
Q 847 1681 609 1914 
Q 372 2147 372 2553 
Q 372 3047 722 3315 
Q 1072 3584 1716 3584 
Q 2034 3584 2315 3537 
Q 2597 3491 2834 3397 
z
" transform="scale(0.015625)"/>
       <path id="DejaVuSans-69" d="M 603 3500 
L 1178 3500 
L 1178 0 
L 603 0 
L 603 3500 
z
M 603 4863 
L 1178 4863 
L 1178 4134 
L 603 4134 
L 603 4863 
z
" transform="scale(0.015625)"/>
       <path id="DejaVuSans-74" d="M 1172 4494 
L 1172 3500 
L 2356 3500 
L 2356 3053 
L 1172 3053 
L 1172 1153 
Q 1172 725 1289 603 
Q 1406 481 1766 481 
L 2356 481 
L 2356 0 
L 1766 0 
Q 1100 0 847 248 
Q 594 497 594 1153 
L 594 3053 
L 172 3053 
L 172 3500 
L 594 3500 
L 594 4494 
L 1172 4494 
z
" transform="scale(0.015625)"/>
       <path id="DejaVuSans-42" d="M 1259 2228 
L 1259 519 
L 2272 519 
Q 2781 519 3026 730 
Q 3272 941 3272 1375 
Q 3272 1813 3026 2020 
Q 2781 2228 2272 2228 
L 1259 2228 
z
M 1259 4147 
L 1259 2741 
L 2194 2741 
Q 2656 2741 2882 2914 
Q 3109 3088 3109 3444 
Q 3109 3797 2882 3972 
Q 2656 4147 2194 4147 
L 1259 4147 
z
M 628 4666 
L 2241 4666 
Q 2963 4666 3353 4366 
Q 3744 4066 3744 3513 
Q 3744 3084 3544 2831 
Q 3344 2578 2956 2516 
Q 3422 2416 3680 2098 
Q 3938 1781 3938 1306 
Q 3938 681 3513 340 
Q 3088 0 2303 0 
L 628 0 
L 628 4666 
z
" transform="scale(0.015625)"/>
       <path id="DejaVuSans-2f" d="M 1625 4666 
L 2156 4666 
L 531 -594 
L 0 -594 
L 1625 4666 
z
" transform="scale(0.015625)"/>
      </defs>
      <use xlink:href="#DejaVuSans-50"/>
      <use xlink:href="#DejaVuSans-6f" transform="translate(56.677734 0)"/>
      <use xlink:href="#DejaVuSans-77" transform="translate(117.859375 0)"/>
      <use xlink:href="#DejaVuSans-65" transform="translate(199.646484 0)"/>
      <use xlink:href="#DejaVuSans-72" transform="translate(261.169922 0)"/>
      <use xlink:href="#DejaVuSans-20" transform="translate(302.283203 0)"/>
      <use xlink:href="#DejaVuSans-64" transform="translate(334.070312 0)"/>
      <use xlink:href="#DejaVuSans-65" transform="translate(397.546875 0)"/>
      <use xlink:href="#DejaVuSans-6e" transform="translate(459.070312 0)"/>
      <use xlink:href="#DejaVuSans-73" transform="translate(522.449219 0)"/>
      <use xlink:href="#DejaVuSans-69" transform="translate(574.548828 0)"/>
      <use xlink:href="#DejaVuSans-74" transform="translate(602.332031 0)"/>
      <use xlink:href="#DejaVuSans-79" transform="translate(641.541016 0)"/>
      <use xlink:href="#DejaVuSans-20" transform="translate(700.720703 0)"/>
      <use xlink:href="#DejaVuSans-28" transform="translate(732.507812 0)"/>
      <use xlink:href="#DejaVuSans-64" transform="translate(771.521484 0)"/>
      <use xlink:href="#DejaVuSans-42" transform="translate(834.998047 0)"/>
      <use xlink:href="#DejaVuSans-2f" transform="translate(903.601562 0)"/>
      <use xlink:href="#DejaVuSans-48" transform="translate(937.292969 0)"/>
      <use xlink:href="#DejaVuSans-7a" transform="translate(1012.488281 0)"/>
      <use xlink:href="#DejaVuSans-29" transform="translate(1064.978516 0)"/>
     </g>
    </g>
   </g>
   <g id="line2d_33">
    <path d="M 72.610866 180.929327 
L 76.317228 143.668648 
L 78.170409 132.570916 
L 80.023589 124.568192 
L 81.87677 119.110977 
L 83.729951 114.309979 
L 85.583131 110.579908 
L 87.436312 107.955491 
L 89.289493 104.116795 
L 91.142674 100.970418 
L 92.995854 100.147176 
L 96.702216 97.531429 
L 98.555396 97.36057 
L 100.408577 96.189474 
L 102.261758 95.906194 
L 104.114938 96.045189 
L 105.968119 97.069544 
L 107.8213 97.09239 
L 111.527661 99.416606 
L 113.380842 100.095375 
L 115.234023 103.104244 
L 117.087203 106.788995 
L 118.940384 109.266416 
L 120.793565 112.854397 
L 122.646745 117.506528 
L 124.499926 122.821181 
L 126.353107 130.680889 
L 128.206288 141.64527 
L 131.912649 178.554932 
L 133.76583 159.143652 
L 135.61901 140.94057 
L 137.472191 129.705661 
L 139.325372 121.554453 
L 141.178553 115.947735 
L 143.031733 110.989185 
L 144.884914 107.10709 
L 146.738095 104.323887 
L 148.591275 100.317178 
L 150.444456 97.019182 
L 152.297637 96.034969 
L 156.003998 93.089541 
L 157.857179 92.748482 
L 159.71036 91.407117 
L 161.56354 90.954427 
L 163.416721 90.922404 
L 165.269902 91.770734 
L 167.123082 91.614384 
L 170.829444 93.57946 
L 172.682624 94.077449 
L 174.535805 96.912317 
L 176.388986 100.400093 
L 178.242167 102.68729 
L 180.095347 106.089444 
L 181.948528 110.544488 
L 183.801709 115.668428 
L 185.654889 123.334603 
L 187.50807 134.116591 
L 191.214432 170.534116 
L 193.067612 150.798594 
L 194.920793 132.414728 
L 196.773974 120.978916 
L 198.627154 112.607713 
L 200.480335 106.776639 
L 202.333516 101.57885 
L 204.186696 97.462608 
L 206.039877 94.43173 
L 207.893058 90.159323 
L 209.746239 86.618197 
L 211.599419 85.372123 
L 215.305781 81.879094 
L 217.158961 81.24852 
L 219.012142 79.613697 
L 220.865323 78.863887 
L 222.718504 78.527656 
L 224.571684 79.057108 
L 226.424865 78.571474 
L 228.278046 79.28036 
L 230.131226 79.858242 
L 231.984407 80.006092 
L 233.837588 82.497688 
L 235.690768 85.589568 
L 237.543949 87.486984 
L 239.39713 90.501309 
L 241.250311 94.536048 
L 243.103491 99.245569 
L 244.956672 106.482255 
L 246.809853 116.851297 
L 250.516214 152.099247 
L 252.369395 131.578085 
L 254.222575 112.734628 
L 256.075756 100.776988 
L 257.928937 91.81984 
L 259.782118 85.373962 
L 261.635298 79.50276 
L 263.488479 74.70515 
L 265.34166 70.931185 
L 267.19484 65.833998 
L 269.048021 61.510718 
L 270.901202 59.389564 
L 274.607563 53.956909 
L 276.460744 52.227103 
L 278.313925 49.431813 
L 280.167105 47.439033 
L 282.020286 45.767556 
L 283.873467 44.802949 
L 285.726647 42.688883 
L 287.579828 41.68218 
L 289.433009 40.21756 
L 291.28619 38.193295 
L 294.992551 38.455205 
L 296.845732 37.038554 
L 300.552093 35.510473 
L 302.405274 34.477226 
L 304.258454 34.018923 
L 306.111635 33.771345 
L 309.817997 33.965911 
L 313.524358 33.771345 
L 315.377539 34.018923 
L 317.230719 34.477226 
L 319.0839 35.510473 
L 322.790262 37.038554 
L 324.643442 38.455205 
L 328.349804 38.193295 
L 330.202984 40.21756 
L 332.056165 41.68218 
L 333.909346 42.688883 
L 335.762526 44.802949 
L 337.615707 45.767556 
L 339.468888 47.439033 
L 341.322069 49.431813 
L 343.175249 52.227103 
L 345.02843 53.956909 
L 348.734791 59.389564 
L 350.587972 61.510718 
L 352.441153 65.833998 
L 354.294334 70.931185 
L 356.147514 74.70515 
L 358.000695 79.50276 
L 359.853876 85.373962 
L 361.707056 91.81984 
L 363.560237 100.776988 
L 365.413418 112.734628 
L 367.266598 131.578085 
L 369.119779 152.099247 
L 372.826141 116.851297 
L 374.679321 106.482255 
L 376.532502 99.245569 
L 378.385683 94.536048 
L 380.238863 90.501309 
L 382.092044 87.486984 
L 383.945225 85.589568 
L 385.798405 82.497688 
L 387.651586 80.006092 
L 389.504767 79.858242 
L 391.357948 79.28036 
L 393.211128 78.571474 
L 395.064309 79.057108 
L 396.91749 78.527656 
L 398.77067 78.863887 
L 400.623851 79.613697 
L 402.477032 81.24852 
L 404.330213 81.879094 
L 408.036574 85.372123 
L 409.889755 86.618197 
L 411.742935 90.159323 
L 413.596116 94.43173 
L 415.449297 97.462608 
L 417.302477 101.57885 
L 419.155658 106.776639 
L 421.008839 112.607713 
L 422.86202 120.978916 
L 424.7152 132.414728 
L 426.568381 150.798594 
L 428.421562 170.534116 
L 432.127923 134.116591 
L 433.981104 123.334603 
L 435.834284 115.668428 
L 437.687465 110.544488 
L 439.540646 106.089444 
L 441.393827 102.68729 
L 443.247007 100.400093 
L 445.100188 96.912317 
L 446.953369 94.077449 
L 448.806549 93.57946 
L 452.512911 91.614384 
L 454.366092 91.770734 
L 456.219272 90.922404 
L 458.072453 90.954427 
L 459.925634 91.407117 
L 461.778814 92.748482 
L 463.631995 93.089541 
L 467.338356 96.034969 
L 469.191537 97.019182 
L 471.044718 100.317178 
L 472.897899 104.323887 
L 474.751079 107.10709 
L 476.60426 110.989185 
L 478.457441 115.947735 
L 480.310621 121.554453 
L 482.163802 129.705661 
L 484.016983 140.94057 
L 485.870163 159.143652 
L 487.723344 178.554932 
L 491.429706 141.64527 
L 493.282886 130.680889 
L 495.136067 122.821181 
L 496.989248 117.506528 
L 498.842428 112.854397 
L 500.695609 109.266416 
L 502.54879 106.788995 
L 504.401971 103.104244 
L 506.255151 100.095375 
L 508.108332 99.416606 
L 511.814693 97.09239 
L 513.667874 97.069544 
L 515.521055 96.045189 
L 517.374235 95.906194 
L 519.227416 96.189474 
L 521.080597 97.36057 
L 522.933778 97.531429 
L 526.640139 100.147176 
L 528.49332 100.970418 
L 530.3465 104.116795 
L 532.199681 107.955491 
L 534.052862 110.579908 
L 535.906043 114.309979 
L 537.759223 119.110977 
L 539.612404 124.568192 
L 541.465585 132.570916 
L 543.318765 143.668648 
L 545.171946 161.747037 
L 545.171946 161.747037 
" clip-path="url(#pd24ddb9175)" style="fill: none; stroke: #1f77b4; stroke-linecap: square"/>
   </g>
   <g id="line2d_34">
    <path d="M 72.610866 221.434097 
L 74.464047 231.406687 
L 76.317228 234.417621 
L 78.170409 222.257431 
L 80.023589 229.079309 
L 81.87677 238.133217 
L 83.729951 223.391038 
L 85.583131 227.137858 
L 87.436312 240.053523 
L 89.289493 224.014441 
L 91.142674 224.037349 
L 92.995854 238.346331 
L 94.849035 225.855901 
L 96.702216 222.757433 
L 98.555396 236.853902 
L 100.408577 228.240177 
L 102.261758 222.689732 
L 104.114938 235.494815 
L 105.968119 231.042848 
L 107.8213 221.232993 
L 109.674481 231.535258 
L 111.527661 232.022661 
L 113.380842 220.537729 
L 115.234023 227.849899 
L 117.087203 235.890307 
L 118.940384 222.182899 
L 120.793565 226.293297 
L 122.646745 237.512718 
L 124.499926 221.979938 
L 126.353107 223.248685 
L 128.206288 237.054786 
L 130.059468 222.900078 
L 131.912649 220.655284 
L 133.76583 235.146789 
L 135.61901 224.292497 
L 137.472191 219.369668 
L 139.325372 232.661207 
L 141.178553 227.333953 
L 143.031733 218.770109 
L 144.884914 229.413348 
L 146.738095 230.334587 
L 148.591275 218.198384 
L 150.444456 225.421851 
L 152.297637 231.362318 
L 154.150817 217.828023 
L 156.003998 222.433692 
L 157.857179 231.41555 
L 159.71036 217.845355 
L 161.56354 220.581177 
L 163.416721 233.471684 
L 165.269902 219.67455 
L 167.123082 217.634971 
L 168.976263 231.557888 
L 170.829444 218.859507 
L 172.682624 214.633195 
L 174.535805 227.990782 
L 178.242167 214.414999 
L 180.095347 226.107455 
L 181.948528 222.526692 
L 183.801709 211.825451 
L 185.654889 220.998595 
L 187.50807 223.807281 
L 189.361251 210.880403 
L 191.214432 217.117329 
L 193.067612 224.831068 
L 194.920793 209.869573 
L 196.773974 212.996727 
L 198.627154 224.197668 
L 200.480335 210.444568 
L 202.333516 210.503783 
L 204.186696 222.944423 
L 206.039877 211.362057 
L 207.893058 208.113151 
L 209.746239 219.835586 
L 211.599419 211.032022 
L 213.4526 204.871577 
L 215.305781 216.613893 
L 217.158961 210.879828 
L 219.012142 201.761557 
L 220.865323 212.487768 
L 222.718504 211.326851 
L 224.571684 200.837625 
L 226.424865 207.883632 
L 228.278046 211.886865 
L 230.131226 197.127481 
L 231.984407 201.381378 
L 233.837588 211.02483 
L 235.690768 195.634242 
L 237.543949 197.778818 
L 239.39713 208.993524 
L 241.250311 192.618083 
L 243.103491 191.090595 
L 244.956672 202.787098 
L 246.809853 189.335772 
L 248.663033 185.912471 
L 250.516214 199.218278 
L 252.369395 185.857091 
L 254.222575 179.074738 
L 256.075756 189.535487 
L 257.928937 179.443027 
L 259.782118 171.942369 
L 261.635298 182.394773 
L 263.488479 171.420943 
L 265.34166 161.901756 
L 267.19484 170.019075 
L 269.048021 152.535201 
L 270.901202 144.195585 
L 272.754383 127.750386 
L 274.607563 93.783805 
L 276.460744 70.467066 
L 278.313925 54.671245 
L 280.167105 44.893717 
L 282.020286 38.97421 
L 283.873467 36.89298 
L 285.726647 34.094445 
L 287.579828 34.117268 
L 289.433009 34.548281 
L 291.28619 33.51084 
L 294.992551 35.31128 
L 296.845732 34.905587 
L 298.698912 33.827307 
L 302.405274 34.1653 
L 304.258454 33.856297 
L 306.111635 33.717791 
L 307.964816 33.745376 
L 309.817997 32.686477 
L 311.671177 33.745376 
L 313.524358 33.717791 
L 315.377539 33.856297 
L 317.230719 34.1653 
L 320.937081 33.827307 
L 322.790262 34.905587 
L 324.643442 35.31128 
L 328.349804 33.51084 
L 330.202984 34.548281 
L 332.056165 34.117268 
L 333.909346 34.094445 
L 335.762526 36.89298 
L 337.615707 38.97421 
L 339.468888 44.893717 
L 341.322069 54.671245 
L 343.175249 70.467066 
L 345.02843 93.783805 
L 346.881611 127.750386 
L 348.734791 144.195585 
L 350.587972 152.535201 
L 352.441153 170.019075 
L 354.294334 161.901756 
L 356.147514 171.420943 
L 358.000695 182.394773 
L 359.853876 171.942369 
L 361.707056 179.443027 
L 363.560237 189.535487 
L 365.413418 179.074738 
L 367.266598 185.857091 
L 369.119779 199.218278 
L 370.97296 185.912471 
L 372.826141 189.335772 
L 374.679321 202.787098 
L 376.532502 191.090595 
L 378.385683 192.618083 
L 380.238863 208.993524 
L 382.092044 197.778818 
L 383.945225 195.634242 
L 385.798405 211.02483 
L 387.651586 201.381378 
L 389.504767 197.127481 
L 391.357948 211.886865 
L 393.211128 207.883632 
L 395.064309 200.837625 
L 396.91749 211.326851 
L 398.77067 212.487768 
L 400.623851 201.761557 
L 402.477032 210.879828 
L 404.330213 216.613893 
L 406.183393 204.871577 
L 408.036574 211.032022 
L 409.889755 219.835586 
L 411.742935 208.113151 
L 413.596116 211.362057 
L 415.449297 222.944423 
L 417.302477 210.503783 
L 419.155658 210.444568 
L 421.008839 224.197668 
L 422.86202 212.996727 
L 424.7152 209.869573 
L 426.568381 224.831068 
L 428.421562 217.117329 
L 430.274742 210.880403 
L 432.127923 223.807281 
L 433.981104 220.998595 
L 435.834284 211.825451 
L 437.687465 222.526692 
L 439.540646 226.107455 
L 441.393827 214.414999 
L 445.100188 227.990782 
L 446.953369 214.633195 
L 448.806549 218.859507 
L 450.65973 231.557888 
L 452.512911 217.634971 
L 454.366092 219.67455 
L 456.219272 233.471684 
L 458.072453 220.581177 
L 459.925634 217.845355 
L 461.778814 231.41555 
L 463.631995 222.433692 
L 465.485176 217.828023 
L 467.338356 231.362318 
L 469.191537 225.421851 
L 471.044718 218.198384 
L 472.897899 230.334587 
L 474.751079 229.413348 
L 476.60426 218.770109 
L 478.457441 227.333953 
L 480.310621 232.661207 
L 482.163802 219.369668 
L 484.016983 224.292497 
L 485.870163 235.146789 
L 487.723344 220.655284 
L 489.576525 222.900078 
L 491.429706 237.054786 
L 493.282886 223.248685 
L 495.136067 221.979938 
L 496.989248 237.512718 
L 498.842428 226.293297 
L 500.695609 222.182899 
L 502.54879 235.890307 
L 504.401971 227.849899 
L 506.255151 220.537729 
L 508.108332 232.022661 
L 509.961513 231.535258 
L 511.814693 221.232993 
L 513.667874 231.042848 
L 515.521055 235.494815 
L 517.374235 222.689732 
L 519.227416 228.240177 
L 521.080597 236.853902 
L 522.933778 222.757433 
L 524.786958 225.855901 
L 526.640139 238.346331 
L 528.49332 224.037349 
L 530.3465 224.014441 
L 532.199681 240.053523 
L 534.052862 227.137858 
L 535.906043 223.391038 
L 537.759223 238.133217 
L 539.612404 229.079309 
L 541.465585 222.257431 
L 543.318765 234.417621 
L 545.171946 231.406687 
L 545.171946 231.406687 
" clip-path="url(#pd24ddb9175)" style="fill: none; stroke: #ff7f0e; stroke-linecap: square"/>
   </g>
   <g id="patch_3">
    <path d="M 48.982813 250.421875 
L 48.982813 22.318125 
" style="fill: none; stroke: #000000; stroke-width: 0.8; stroke-linejoin: miter; stroke-linecap: square"/>
   </g>
   <g id="patch_4">
    <path d="M 568.8 250.421875 
L 568.8 22.318125 
" style="fill: none; stroke: #000000; stroke-width: 0.8; stroke-linejoin: miter; stroke-linecap: square"/>
   </g>
   <g id="patch_5">
    <path d="M 48.982812 250.421875 
L 568.8 250.421875 
" style="fill: none; stroke: #000000; stroke-width: 0.8; stroke-linejoin: miter; stroke-linecap: square"/>
   </g>
   <g id="patch_6">
    <path d="M 48.982812 22.318125 
L 568.8 22.318125 
" style="fill: none; stroke: #000000; stroke-width: 0.8; stroke-linejoin: miter; stroke-linecap: square"/>
   </g>
   <g id="text_19">
    <!-- Power spectral density -->
    <g transform="translate(240.853281 16.318125) scale(0.12 -0.12)">
     <defs>
      <path id="DejaVuSans-70" d="M 1159 525 
L 1159 -1331 
L 581 -1331 
L 581 3500 
L 1159 3500 
L 1159 2969 
Q 1341 3281 1617 3432 
Q 1894 3584 2278 3584 
Q 2916 3584 3314 3078 
Q 3713 2572 3713 1747 
Q 3713 922 3314 415 
Q 2916 -91 2278 -91 
Q 1894 -91 1617 61 
Q 1341 213 1159 525 
z
M 3116 1747 
Q 3116 2381 2855 2742 
Q 2594 3103 2138 3103 
Q 1681 3103 1420 2742 
Q 1159 2381 1159 1747 
Q 1159 1113 1420 752 
Q 1681 391 2138 391 
Q 2594 391 2855 752 
Q 3116 1113 3116 1747 
z
" transform="scale(0.015625)"/>
      <path id="DejaVuSans-61" d="M 2194 1759 
Q 1497 1759 1228 1600 
Q 959 1441 959 1056 
Q 959 750 1161 570 
Q 1363 391 1709 391 
Q 2188 391 2477 730 
Q 2766 1069 2766 1631 
L 2766 1759 
L 2194 1759 
z
M 3341 1997 
L 3341 0 
L 2766 0 
L 2766 531 
Q 2569 213 2275 61 
Q 1981 -91 1556 -91 
Q 1019 -91 701 211 
Q 384 513 384 1019 
Q 384 1609 779 1909 
Q 1175 2209 1959 2209 
L 2766 2209 
L 2766 2266 
Q 2766 2663 2505 2880 
Q 2244 3097 1772 3097 
Q 1472 3097 1187 3025 
Q 903 2953 641 2809 
L 641 3341 
Q 956 3463 1253 3523 
Q 1550 3584 1831 3584 
Q 2591 3584 2966 3190 
Q 3341 2797 3341 1997 
z
" transform="scale(0.015625)"/>
      <path id="DejaVuSans-6c" d="M 603 4863 
L 1178 4863 
L 1178 0 
L 603 0 
L 603 4863 
z
" transform="scale(0.015625)"/>
     </defs>
     <use xlink:href="#DejaVuSans-50"/>
     <use xlink:href="#DejaVuSans-6f" transform="translate(56.677734 0)"/>
     <use xlink:href="#DejaVuSans-77" transform="translate(117.859375 0)"/>
     <use xlink:href="#DejaVuSans-65" transform="translate(199.646484 0)"/>
     <use xlink:href="#DejaVuSans-72" transform="translate(261.169922 0)"/>
     <use xlink:href="#DejaVuSans-20" transform="translate(302.283203 0)"/>
     <use xlink:href="#DejaVuSans-73" transform="translate(334.070312 0)"/>
     <use xlink:href="#DejaVuSans-70" transform="translate(386.169922 0)"/>
     <use xlink:href="#DejaVuSans-65" transform="translate(449.646484 0)"/>
     <use xlink:href="#DejaVuSans-63" transform="translate(511.169922 0)"/>
     <use xlink:href="#DejaVuSans-74" transform="translate(566.150391 0)"/>
     <use xlink:href="#DejaVuSans-72" transform="translate(605.359375 0)"/>
     <use xlink:href="#DejaVuSans-61" transform="translate(646.472656 0)"/>
     <use xlink:href="#DejaVuSans-6c" transform="translate(707.751953 0)"/>
     <use xlink:href="#DejaVuSans-20" transform="translate(735.535156 0)"/>
     <use xlink:href="#DejaVuSans-64" transform="translate(767.322266 0)"/>
     <use xlink:href="#DejaVuSans-65" transform="translate(830.798828 0)"/>
     <use xlink:href="#DejaVuSans-6e" transform="translate(892.322266 0)"/>
     <use xlink:href="#DejaVuSans-73" transform="translate(955.701172 0)"/>
     <use xlink:href="#DejaVuSans-69" transform="translate(1007.800781 0)"/>
     <use xlink:href="#DejaVuSans-74" transform="translate(1035.583984 0)"/>
     <use xlink:href="#DejaVuSans-79" transform="translate(1074.792969 0)"/>
    </g>
   </g>
   <g id="legend_1">
    <g id="patch_7">
     <path d="M 469.560938 59.674375 
L 561.8 59.674375 
Q 563.8 59.674375 563.8 57.674375 
L 563.8 29.318125 
Q 563.8 27.318125 561.8 27.318125 
L 469.560938 27.318125 
Q 467.560938 27.318125 467.560938 29.318125 
L 467.560938 57.674375 
Q 467.560938 59.674375 469.560938 59.674375 
z
" style="fill: #ffffff; opacity: 0.8; stroke: #cccccc; stroke-linejoin: miter"/>
    </g>
    <g id="line2d_35">
     <path d="M 471.560938 35.416562 
L 481.560938 35.416562 
L 491.560938 35.416562 
" style="fill: none; stroke: #1f77b4; stroke-linecap: square"/>
    </g>
    <g id="text_20">
     <!-- Rectangular -->
     <g transform="translate(499.560938 38.916562) scale(0.1 -0.1)">
      <defs>
       <path id="DejaVuSans-52" d="M 2841 2188 
Q 3044 2119 3236 1894 
Q 3428 1669 3622 1275 
L 4263 0 
L 3584 0 
L 2988 1197 
Q 2756 1666 2539 1819 
Q 2322 1972 1947 1972 
L 1259 1972 
L 1259 0 
L 628 0 
L 628 4666 
L 2053 4666 
Q 2853 4666 3247 4331 
Q 3641 3997 3641 3322 
Q 3641 2881 3436 2590 
Q 3231 2300 2841 2188 
z
M 1259 4147 
L 1259 2491 
L 2053 2491 
Q 2509 2491 2742 2702 
Q 2975 2913 2975 3322 
Q 2975 3731 2742 3939 
Q 2509 4147 2053 4147 
L 1259 4147 
z
" transform="scale(0.015625)"/>
       <path id="DejaVuSans-67" d="M 2906 1791 
Q 2906 2416 2648 2759 
Q 2391 3103 1925 3103 
Q 1463 3103 1205 2759 
Q 947 2416 947 1791 
Q 947 1169 1205 825 
Q 1463 481 1925 481 
Q 2391 481 2648 825 
Q 2906 1169 2906 1791 
z
M 3481 434 
Q 3481 -459 3084 -895 
Q 2688 -1331 1869 -1331 
Q 1566 -1331 1297 -1286 
Q 1028 -1241 775 -1147 
L 775 -588 
Q 1028 -725 1275 -790 
Q 1522 -856 1778 -856 
Q 2344 -856 2625 -561 
Q 2906 -266 2906 331 
L 2906 616 
Q 2728 306 2450 153 
Q 2172 0 1784 0 
Q 1141 0 747 490 
Q 353 981 353 1791 
Q 353 2603 747 3093 
Q 1141 3584 1784 3584 
Q 2172 3584 2450 3431 
Q 2728 3278 2906 2969 
L 2906 3500 
L 3481 3500 
L 3481 434 
z
" transform="scale(0.015625)"/>
      </defs>
      <use xlink:href="#DejaVuSans-52"/>
      <use xlink:href="#DejaVuSans-65" transform="translate(64.982422 0)"/>
      <use xlink:href="#DejaVuSans-63" transform="translate(126.505859 0)"/>
      <use xlink:href="#DejaVuSans-74" transform="translate(181.486328 0)"/>
      <use xlink:href="#DejaVuSans-61" transform="translate(220.695312 0)"/>
      <use xlink:href="#DejaVuSans-6e" transform="translate(281.974609 0)"/>
      <use xlink:href="#DejaVuSans-67" transform="translate(345.353516 0)"/>
      <use xlink:href="#DejaVuSans-75" transform="translate(408.830078 0)"/>
      <use xlink:href="#DejaVuSans-6c" transform="translate(472.208984 0)"/>
      <use xlink:href="#DejaVuSans-61" transform="translate(499.992188 0)"/>
      <use xlink:href="#DejaVuSans-72" transform="translate(561.271484 0)"/>
     </g>
    </g>
    <g id="line2d_36">
     <path d="M 471.560938 50.094687 
L 481.560938 50.094687 
L 491.560938 50.094687 
" style="fill: none; stroke: #ff7f0e; stroke-linecap: square"/>
    </g>
    <g id="text_21">
     <!-- SRRC -->
     <g transform="translate(499.560938 53.594687) scale(0.1 -0.1)">
      <defs>
       <path id="DejaVuSans-53" d="M 3425 4513 
L 3425 3897 
Q 3066 4069 2747 4153 
Q 2428 4238 2131 4238 
Q 1616 4238 1336 4038 
Q 1056 3838 1056 3469 
Q 1056 3159 1242 3001 
Q 1428 2844 1947 2747 
L 2328 2669 
Q 3034 2534 3370 2195 
Q 3706 1856 3706 1288 
Q 3706 609 3251 259 
Q 2797 -91 1919 -91 
Q 1588 -91 1214 -16 
Q 841 59 441 206 
L 441 856 
Q 825 641 1194 531 
Q 1563 422 1919 422 
Q 2459 422 2753 634 
Q 3047 847 3047 1241 
Q 3047 1584 2836 1778 
Q 2625 1972 2144 2069 
L 1759 2144 
Q 1053 2284 737 2584 
Q 422 2884 422 3419 
Q 422 4038 858 4394 
Q 1294 4750 2059 4750 
Q 2388 4750 2728 4690 
Q 3069 4631 3425 4513 
z
" transform="scale(0.015625)"/>
       <path id="DejaVuSans-43" d="M 4122 4306 
L 4122 3641 
Q 3803 3938 3442 4084 
Q 3081 4231 2675 4231 
Q 1875 4231 1450 3742 
Q 1025 3253 1025 2328 
Q 1025 1406 1450 917 
Q 1875 428 2675 428 
Q 3081 428 3442 575 
Q 3803 722 4122 1019 
L 4122 359 
Q 3791 134 3420 21 
Q 3050 -91 2638 -91 
Q 1578 -91 968 557 
Q 359 1206 359 2328 
Q 359 3453 968 4101 
Q 1578 4750 2638 4750 
Q 3056 4750 3426 4639 
Q 3797 4528 4122 4306 
z
" transform="scale(0.015625)"/>
      </defs>
      <use xlink:href="#DejaVuSans-53"/>
      <use xlink:href="#DejaVuSans-52" transform="translate(63.476562 0)"/>
      <use xlink:href="#DejaVuSans-52" transform="translate(132.958984 0)"/>
      <use xlink:href="#DejaVuSans-43" transform="translate(197.441406 0)"/>
     </g>
    </g>
   </g>
  </g>
 </g>
 <defs>
  <clipPath id="pd24ddb9175">
   <rect x="48.982813" y="22.318125" width="519.817188" height="228.10375"/>
  </clipPath>
 </defs>
</svg>
