<?xml version="1.0" encoding="utf-8" standalone="no"?>
<!DOCTYPE svg PUBLIC "-//W3C//DTD SVG 1.1//EN"
  "http://www.w3.org/Graphics/SVG/1.1/DTD/svg11.dtd">
<svg xmlns:xlink="http://www.w3.org/1999/xlink" width="576pt" height="288pt" viewBox="0 0 576 288" xmlns="http://www.w3.org/2000/svg" version="1.1">
 <metadata>
  <rdf:RDF xmlns:dc="http://purl.org/dc/elements/1.1/" xmlns:cc="http://creativecommons.org/ns#" xmlns:rdf="http://www.w3.org/1999/02/22-rdf-syntax-ns#">
   <cc:Work>
    <dc:type rdf:resource="http://purl.org/dc/dcmitype/StillImage"/>
    <dc:date>2026-05-03T18:07:50.181729</dc:date>
    <dc:format>image/svg+xml</dc:format>
    <dc:creator>
     <cc:Agent>
      <dc:title>Matplotlib v3.10.9, https://matplotlib.org/</dc:title>
     </cc:Agent>
    </dc:creator>
   </cc:Work>
  </rdf:RDF>
 </metadata>
 <defs>
  <style type="text/css">*{stroke-linejoin: round; stroke-linecap: butt}</style>
 </defs>
 <g id="figure_1">
  <g id="patch_1">
   <path d="M 0 288 
L 576 288 
L 576 0 
L 0 0 
z
" style="fill: #ffffff"/>
  </g>
  <g id="axes_1">
   <g id="patch_2">
    <path d="M 52.160938 250.421875 
L 568.8 250.421875 
L 568.8 7.2 
L 52.160938 7.2 
z
" style="fill: #ffffff"/>
   </g>
   <g id="matplotlib.axis_1">
    <g id="xtick_1">
     <g id="line2d_1">
      <path d="M 75.644531 250.421875 
L 75.644531 7.2 
" clip-path="url(#p10cb01cbea)" style="fill: none; stroke-dasharray: 2.96,1.28; stroke-dashoffset: 0; stroke: #b0b0b0; stroke-opacity: 0.8; stroke-width: 0.8"/>
     </g>
     <g id="line2d_2">
      <defs>
       <path id="mc54faaff2d" d="M 0 0 
L 0 3.5 
" style="stroke: #000000; stroke-width: 0.8"/>
      </defs>
      <g>
       <use xlink:href="#mc54faaff2d" x="75.644531" y="250.421875" style="stroke: #000000; stroke-width: 0.8"/>
      </g>
     </g>
     <g id="text_1">
      <!-- 0 -->
      <g transform="translate(72.463281 265.020312) scale(0.1 -0.1)">
       <defs>
        <path id="DejaVuSans-30" d="M 2034 4250 
Q 1547 4250 1301 3770 
Q 1056 3291 1056 2328 
Q 1056 1369 1301 889 
Q 1547 409 2034 409 
Q 2525 409 2770 889 
Q 3016 1369 3016 2328 
Q 3016 3291 2770 3770 
Q 2525 4250 2034 4250 
z
M 2034 4750 
Q 2819 4750 3233 4129 
Q 3647 3509 3647 2328 
Q 3647 1150 3233 529 
Q 2819 -91 2034 -91 
Q 1250 -91 836 529 
Q 422 1150 422 2328 
Q 422 3509 836 4129 
Q 1250 4750 2034 4750 
z
" transform="scale(0.015625)"/>
       </defs>
       <use xlink:href="#DejaVuSans-30"/>
      </g>
     </g>
    </g>
    <g id="xtick_2">
     <g id="line2d_3">
      <path d="M 134.500656 250.421875 
L 134.500656 7.2 
" clip-path="url(#p10cb01cbea)" style="fill: none; stroke-dasharray: 2.96,1.28; stroke-dashoffset: 0; stroke: #b0b0b0; stroke-opacity: 0.8; stroke-width: 0.8"/>
     </g>
     <g id="line2d_4">
      <g>
       <use xlink:href="#mc54faaff2d" x="134.500656" y="250.421875" style="stroke: #000000; stroke-width: 0.8"/>
      </g>
     </g>
     <g id="text_2">
      <!-- 50 -->
      <g transform="translate(128.138156 265.020312) scale(0.1 -0.1)">
       <defs>
        <path id="DejaVuSans-35" d="M 691 4666 
L 3169 4666 
L 3169 4134 
L 1269 4134 
L 1269 2991 
Q 1406 3038 1543 3061 
Q 1681 3084 1819 3084 
Q 2600 3084 3056 2656 
Q 3513 2228 3513 1497 
Q 3513 744 3044 326 
Q 2575 -91 1722 -91 
Q 1428 -91 1123 -41 
Q 819 9 494 109 
L 494 744 
Q 775 591 1075 516 
Q 1375 441 1709 441 
Q 2250 441 2565 725 
Q 2881 1009 2881 1497 
Q 2881 1984 2565 2268 
Q 2250 2553 1709 2553 
Q 1456 2553 1204 2497 
Q 953 2441 691 2322 
L 691 4666 
z
" transform="scale(0.015625)"/>
       </defs>
       <use xlink:href="#DejaVuSans-35"/>
       <use xlink:href="#DejaVuSans-30" transform="translate(63.623047 0)"/>
      </g>
     </g>
    </g>
    <g id="xtick_3">
     <g id="line2d_5">
      <path d="M 193.356781 250.421875 
L 193.356781 7.2 
" clip-path="url(#p10cb01cbea)" style="fill: none; stroke-dasharray: 2.96,1.28; stroke-dashoffset: 0; stroke: #b0b0b0; stroke-opacity: 0.8; stroke-width: 0.8"/>
     </g>
     <g id="line2d_6">
      <g>
       <use xlink:href="#mc54faaff2d" x="193.356781" y="250.421875" style="stroke: #000000; stroke-width: 0.8"/>
      </g>
     </g>
     <g id="text_3">
      <!-- 100 -->
      <g transform="translate(183.813031 265.020312) scale(0.1 -0.1)">
       <defs>
        <path id="DejaVuSans-31" d="M 794 531 
L 1825 531 
L 1825 4091 
L 703 3866 
L 703 4441 
L 1819 4666 
L 2450 4666 
L 2450 531 
L 3481 531 
L 3481 0 
L 794 0 
L 794 531 
z
" transform="scale(0.015625)"/>
       </defs>
       <use xlink:href="#DejaVuSans-31"/>
       <use xlink:href="#DejaVuSans-30" transform="translate(63.623047 0)"/>
       <use xlink:href="#DejaVuSans-30" transform="translate(127.246094 0)"/>
      </g>
     </g>
    </g>
    <g id="xtick_4">
     <g id="line2d_7">
      <path d="M 252.212905 250.421875 
L 252.212905 7.2 
" clip-path="url(#p10cb01cbea)" style="fill: none; stroke-dasharray: 2.96,1.28; stroke-dashoffset: 0; stroke: #b0b0b0; stroke-opacity: 0.8; stroke-width: 0.8"/>
     </g>
     <g id="line2d_8">
      <g>
       <use xlink:href="#mc54faaff2d" x="252.212905" y="250.421875" style="stroke: #000000; stroke-width: 0.8"/>
      </g>
     </g>
     <g id="text_4">
      <!-- 150 -->
      <g transform="translate(242.669155 265.020312) scale(0.1 -0.1)">
       <use xlink:href="#DejaVuSans-31"/>
       <use xlink:href="#DejaVuSans-35" transform="translate(63.623047 0)"/>
       <use xlink:href="#DejaVuSans-30" transform="translate(127.246094 0)"/>
      </g>
     </g>
    </g>
    <g id="xtick_5">
     <g id="line2d_9">
      <path d="M 311.06903 250.421875 
L 311.06903 7.2 
" clip-path="url(#p10cb01cbea)" style="fill: none; stroke-dasharray: 2.96,1.28; stroke-dashoffset: 0; stroke: #b0b0b0; stroke-opacity: 0.8; stroke-width: 0.8"/>
     </g>
     <g id="line2d_10">
      <g>
       <use xlink:href="#mc54faaff2d" x="311.06903" y="250.421875" style="stroke: #000000; stroke-width: 0.8"/>
      </g>
     </g>
     <g id="text_5">
      <!-- 200 -->
      <g transform="translate(301.52528 265.020312) scale(0.1 -0.1)">
       <defs>
        <path id="DejaVuSans-32" d="M 1228 531 
L 3431 531 
L 3431 0 
L 469 0 
L 469 531 
Q 828 903 1448 1529 
Q 2069 2156 2228 2338 
Q 2531 2678 2651 2914 
Q 2772 3150 2772 3378 
Q 2772 3750 2511 3984 
Q 2250 4219 1831 4219 
Q 1534 4219 1204 4116 
Q 875 4013 500 3803 
L 500 4441 
Q 881 4594 1212 4672 
Q 1544 4750 1819 4750 
Q 2544 4750 2975 4387 
Q 3406 4025 3406 3419 
Q 3406 3131 3298 2873 
Q 3191 2616 2906 2266 
Q 2828 2175 2409 1742 
Q 1991 1309 1228 531 
z
" transform="scale(0.015625)"/>
       </defs>
       <use xlink:href="#DejaVuSans-32"/>
       <use xlink:href="#DejaVuSans-30" transform="translate(63.623047 0)"/>
       <use xlink:href="#DejaVuSans-30" transform="translate(127.246094 0)"/>
      </g>
     </g>
    </g>
    <g id="xtick_6">
     <g id="line2d_11">
      <path d="M 369.925155 250.421875 
L 369.925155 7.2 
" clip-path="url(#p10cb01cbea)" style="fill: none; stroke-dasharray: 2.96,1.28; stroke-dashoffset: 0; stroke: #b0b0b0; stroke-opacity: 0.8; stroke-width: 0.8"/>
     </g>
     <g id="line2d_12">
      <g>
       <use xlink:href="#mc54faaff2d" x="369.925155" y="250.421875" style="stroke: #000000; stroke-width: 0.8"/>
      </g>
     </g>
     <g id="text_6">
      <!-- 250 -->
      <g transform="translate(360.381405 265.020312) scale(0.1 -0.1)">
       <use xlink:href="#DejaVuSans-32"/>
       <use xlink:href="#DejaVuSans-35" transform="translate(63.623047 0)"/>
       <use xlink:href="#DejaVuSans-30" transform="translate(127.246094 0)"/>
      </g>
     </g>
    </g>
    <g id="xtick_7">
     <g id="line2d_13">
      <path d="M 428.781279 250.421875 
L 428.781279 7.2 
" clip-path="url(#p10cb01cbea)" style="fill: none; stroke-dasharray: 2.96,1.28; stroke-dashoffset: 0; stroke: #b0b0b0; stroke-opacity: 0.8; stroke-width: 0.8"/>
     </g>
     <g id="line2d_14">
      <g>
       <use xlink:href="#mc54faaff2d" x="428.781279" y="250.421875" style="stroke: #000000; stroke-width: 0.8"/>
      </g>
     </g>
     <g id="text_7">
      <!-- 300 -->
      <g transform="translate(419.237529 265.020312) scale(0.1 -0.1)">
       <defs>
        <path id="DejaVuSans-33" d="M 2597 2516 
Q 3050 2419 3304 2112 
Q 3559 1806 3559 1356 
Q 3559 666 3084 287 
Q 2609 -91 1734 -91 
Q 1441 -91 1130 -33 
Q 819 25 488 141 
L 488 750 
Q 750 597 1062 519 
Q 1375 441 1716 441 
Q 2309 441 2620 675 
Q 2931 909 2931 1356 
Q 2931 1769 2642 2001 
Q 2353 2234 1838 2234 
L 1294 2234 
L 1294 2753 
L 1863 2753 
Q 2328 2753 2575 2939 
Q 2822 3125 2822 3475 
Q 2822 3834 2567 4026 
Q 2313 4219 1838 4219 
Q 1578 4219 1281 4162 
Q 984 4106 628 3988 
L 628 4550 
Q 988 4650 1302 4700 
Q 1616 4750 1894 4750 
Q 2613 4750 3031 4423 
Q 3450 4097 3450 3541 
Q 3450 3153 3228 2886 
Q 3006 2619 2597 2516 
z
" transform="scale(0.015625)"/>
       </defs>
       <use xlink:href="#DejaVuSans-33"/>
       <use xlink:href="#DejaVuSans-30" transform="translate(63.623047 0)"/>
       <use xlink:href="#DejaVuSans-30" transform="translate(127.246094 0)"/>
      </g>
     </g>
    </g>
    <g id="xtick_8">
     <g id="line2d_15">
      <path d="M 487.637404 250.421875 
L 487.637404 7.2 
" clip-path="url(#p10cb01cbea)" style="fill: none; stroke-dasharray: 2.96,1.28; stroke-dashoffset: 0; stroke: #b0b0b0; stroke-opacity: 0.8; stroke-width: 0.8"/>
     </g>
     <g id="line2d_16">
      <g>
       <use xlink:href="#mc54faaff2d" x="487.637404" y="250.421875" style="stroke: #000000; stroke-width: 0.8"/>
      </g>
     </g>
     <g id="text_8">
      <!-- 350 -->
      <g transform="translate(478.093654 265.020312) scale(0.1 -0.1)">
       <use xlink:href="#DejaVuSans-33"/>
       <use xlink:href="#DejaVuSans-35" transform="translate(63.623047 0)"/>
       <use xlink:href="#DejaVuSans-30" transform="translate(127.246094 0)"/>
      </g>
     </g>
    </g>
    <g id="xtick_9">
     <g id="line2d_17">
      <path d="M 546.493529 250.421875 
L 546.493529 7.2 
" clip-path="url(#p10cb01cbea)" style="fill: none; stroke-dasharray: 2.96,1.28; stroke-dashoffset: 0; stroke: #b0b0b0; stroke-opacity: 0.8; stroke-width: 0.8"/>
     </g>
     <g id="line2d_18">
      <g>
       <use xlink:href="#mc54faaff2d" x="546.493529" y="250.421875" style="stroke: #000000; stroke-width: 0.8"/>
      </g>
     </g>
     <g id="text_9">
      <!-- 400 -->
      <g transform="translate(536.949779 265.020312) scale(0.1 -0.1)">
       <defs>
        <path id="DejaVuSans-34" d="M 2419 4116 
L 825 1625 
L 2419 1625 
L 2419 4116 
z
M 2253 4666 
L 3047 4666 
L 3047 1625 
L 3713 1625 
L 3713 1100 
L 3047 1100 
L 3047 0 
L 2419 0 
L 2419 1100 
L 313 1100 
L 313 1709 
L 2253 4666 
z
" transform="scale(0.015625)"/>
       </defs>
       <use xlink:href="#DejaVuSans-34"/>
       <use xlink:href="#DejaVuSans-30" transform="translate(63.623047 0)"/>
       <use xlink:href="#DejaVuSans-30" transform="translate(127.246094 0)"/>
      </g>
     </g>
    </g>
    <g id="text_10">
     <!-- Sample, $n$ -->
     <g transform="translate(285.380469 278.7) scale(0.1 -0.1)">
      <defs>
       <path id="DejaVuSans-53" d="M 3425 4513 
L 3425 3897 
Q 3066 4069 2747 4153 
Q 2428 4238 2131 4238 
Q 1616 4238 1336 4038 
Q 1056 3838 1056 3469 
Q 1056 3159 1242 3001 
Q 1428 2844 1947 2747 
L 2328 2669 
Q 3034 2534 3370 2195 
Q 3706 1856 3706 1288 
Q 3706 609 3251 259 
Q 2797 -91 1919 -91 
Q 1588 -91 1214 -16 
Q 841 59 441 206 
L 441 856 
Q 825 641 1194 531 
Q 1563 422 1919 422 
Q 2459 422 2753 634 
Q 3047 847 3047 1241 
Q 3047 1584 2836 1778 
Q 2625 1972 2144 2069 
L 1759 2144 
Q 1053 2284 737 2584 
Q 422 2884 422 3419 
Q 422 4038 858 4394 
Q 1294 4750 2059 4750 
Q 2388 4750 2728 4690 
Q 3069 4631 3425 4513 
z
" transform="scale(0.015625)"/>
       <path id="DejaVuSans-61" d="M 2194 1759 
Q 1497 1759 1228 1600 
Q 959 1441 959 1056 
Q 959 750 1161 570 
Q 1363 391 1709 391 
Q 2188 391 2477 730 
Q 2766 1069 2766 1631 
L 2766 1759 
L 2194 1759 
z
M 3341 1997 
L 3341 0 
L 2766 0 
L 2766 531 
Q 2569 213 2275 61 
Q 1981 -91 1556 -91 
Q 1019 -91 701 211 
Q 384 513 384 1019 
Q 384 1609 779 1909 
Q 1175 2209 1959 2209 
L 2766 2209 
L 2766 2266 
Q 2766 2663 2505 2880 
Q 2244 3097 1772 3097 
Q 1472 3097 1187 3025 
Q 903 2953 641 2809 
L 641 3341 
Q 956 3463 1253 3523 
Q 1550 3584 1831 3584 
Q 2591 3584 2966 3190 
Q 3341 2797 3341 1997 
z
" transform="scale(0.015625)"/>
       <path id="DejaVuSans-6d" d="M 3328 2828 
Q 3544 3216 3844 3400 
Q 4144 3584 4550 3584 
Q 5097 3584 5394 3201 
Q 5691 2819 5691 2113 
L 5691 0 
L 5113 0 
L 5113 2094 
Q 5113 2597 4934 2840 
Q 4756 3084 4391 3084 
Q 3944 3084 3684 2787 
Q 3425 2491 3425 1978 
L 3425 0 
L 2847 0 
L 2847 2094 
Q 2847 2600 2669 2842 
Q 2491 3084 2119 3084 
Q 1678 3084 1418 2786 
Q 1159 2488 1159 1978 
L 1159 0 
L 581 0 
L 581 3500 
L 1159 3500 
L 1159 2956 
Q 1356 3278 1631 3431 
Q 1906 3584 2284 3584 
Q 2666 3584 2933 3390 
Q 3200 3197 3328 2828 
z
" transform="scale(0.015625)"/>
       <path id="DejaVuSans-70" d="M 1159 525 
L 1159 -1331 
L 581 -1331 
L 581 3500 
L 1159 3500 
L 1159 2969 
Q 1341 3281 1617 3432 
Q 1894 3584 2278 3584 
Q 2916 3584 3314 3078 
Q 3713 2572 3713 1747 
Q 3713 922 3314 415 
Q 2916 -91 2278 -91 
Q 1894 -91 1617 61 
Q 1341 213 1159 525 
z
M 3116 1747 
Q 3116 2381 2855 2742 
Q 2594 3103 2138 3103 
Q 1681 3103 1420 2742 
Q 1159 2381 1159 1747 
Q 1159 1113 1420 752 
Q 1681 391 2138 391 
Q 2594 391 2855 752 
Q 3116 1113 3116 1747 
z
" transform="scale(0.015625)"/>
       <path id="DejaVuSans-6c" d="M 603 4863 
L 1178 4863 
L 1178 0 
L 603 0 
L 603 4863 
z
" transform="scale(0.015625)"/>
       <path id="DejaVuSans-65" d="M 3597 1894 
L 3597 1613 
L 953 1613 
Q 991 1019 1311 708 
Q 1631 397 2203 397 
Q 2534 397 2845 478 
Q 3156 559 3463 722 
L 3463 178 
Q 3153 47 2828 -22 
Q 2503 -91 2169 -91 
Q 1331 -91 842 396 
Q 353 884 353 1716 
Q 353 2575 817 3079 
Q 1281 3584 2069 3584 
Q 2775 3584 3186 3129 
Q 3597 2675 3597 1894 
z
M 3022 2063 
Q 3016 2534 2758 2815 
Q 2500 3097 2075 3097 
Q 1594 3097 1305 2825 
Q 1016 2553 972 2059 
L 3022 2063 
z
" transform="scale(0.015625)"/>
       <path id="DejaVuSans-2c" d="M 750 794 
L 1409 794 
L 1409 256 
L 897 -744 
L 494 -744 
L 750 256 
L 750 794 
z
" transform="scale(0.015625)"/>
       <path id="DejaVuSans-20" transform="scale(0.015625)"/>
       <path id="DejaVuSans-Oblique-6e" d="M 3566 2113 
L 3156 0 
L 2578 0 
L 2988 2091 
Q 3016 2238 3031 2350 
Q 3047 2463 3047 2528 
Q 3047 2791 2881 2937 
Q 2716 3084 2419 3084 
Q 1956 3084 1622 2776 
Q 1288 2469 1184 1941 
L 800 0 
L 225 0 
L 903 3500 
L 1478 3500 
L 1363 2950 
Q 1603 3253 1940 3418 
Q 2278 3584 2650 3584 
Q 3113 3584 3367 3334 
Q 3622 3084 3622 2631 
Q 3622 2519 3608 2391 
Q 3594 2263 3566 2113 
z
" transform="scale(0.015625)"/>
      </defs>
      <use xlink:href="#DejaVuSans-53" transform="translate(0 0.015625)"/>
      <use xlink:href="#DejaVuSans-61" transform="translate(63.476562 0.015625)"/>
      <use xlink:href="#DejaVuSans-6d" transform="translate(124.755859 0.015625)"/>
      <use xlink:href="#DejaVuSans-70" transform="translate(222.167969 0.015625)"/>
      <use xlink:href="#DejaVuSans-6c" transform="translate(285.644531 0.015625)"/>
      <use xlink:href="#DejaVuSans-65" transform="translate(313.427734 0.015625)"/>
      <use xlink:href="#DejaVuSans-2c" transform="translate(374.951172 0.015625)"/>
      <use xlink:href="#DejaVuSans-20" transform="translate(406.738281 0.015625)"/>
      <use xlink:href="#DejaVuSans-Oblique-6e" transform="translate(438.525391 0.015625)"/>
     </g>
    </g>
   </g>
   <g id="matplotlib.axis_2">
    <g id="ytick_1">
     <g id="line2d_19">
      <path d="M 52.160938 242.9567 
L 568.8 242.9567 
" clip-path="url(#p10cb01cbea)" style="fill: none; stroke-dasharray: 2.96,1.28; stroke-dashoffset: 0; stroke: #b0b0b0; stroke-opacity: 0.8; stroke-width: 0.8"/>
     </g>
     <g id="line2d_20">
      <defs>
       <path id="mf627c1fb0e" d="M 0 0 
L -3.5 0 
" style="stroke: #000000; stroke-width: 0.8"/>
      </defs>
      <g>
       <use xlink:href="#mf627c1fb0e" x="52.160938" y="242.9567" style="stroke: #000000; stroke-width: 0.8"/>
      </g>
     </g>
     <g id="text_11">
      <!-- −0.4 -->
      <g transform="translate(20.878125 246.755918) scale(0.1 -0.1)">
       <defs>
        <path id="DejaVuSans-2212" d="M 678 2272 
L 4684 2272 
L 4684 1741 
L 678 1741 
L 678 2272 
z
" transform="scale(0.015625)"/>
        <path id="DejaVuSans-2e" d="M 684 794 
L 1344 794 
L 1344 0 
L 684 0 
L 684 794 
z
" transform="scale(0.015625)"/>
       </defs>
       <use xlink:href="#DejaVuSans-2212"/>
       <use xlink:href="#DejaVuSans-30" transform="translate(83.789062 0)"/>
       <use xlink:href="#DejaVuSans-2e" transform="translate(147.412109 0)"/>
       <use xlink:href="#DejaVuSans-34" transform="translate(179.199219 0)"/>
      </g>
     </g>
    </g>
    <g id="ytick_2">
     <g id="line2d_21">
      <path d="M 52.160938 214.233775 
L 568.8 214.233775 
" clip-path="url(#p10cb01cbea)" style="fill: none; stroke-dasharray: 2.96,1.28; stroke-dashoffset: 0; stroke: #b0b0b0; stroke-opacity: 0.8; stroke-width: 0.8"/>
     </g>
     <g id="line2d_22">
      <g>
       <use xlink:href="#mf627c1fb0e" x="52.160938" y="214.233775" style="stroke: #000000; stroke-width: 0.8"/>
      </g>
     </g>
     <g id="text_12">
      <!-- −0.3 -->
      <g transform="translate(20.878125 218.032994) scale(0.1 -0.1)">
       <use xlink:href="#DejaVuSans-2212"/>
       <use xlink:href="#DejaVuSans-30" transform="translate(83.789062 0)"/>
       <use xlink:href="#DejaVuSans-2e" transform="translate(147.412109 0)"/>
       <use xlink:href="#DejaVuSans-33" transform="translate(179.199219 0)"/>
      </g>
     </g>
    </g>
    <g id="ytick_3">
     <g id="line2d_23">
      <path d="M 52.160938 185.510851 
L 568.8 185.510851 
" clip-path="url(#p10cb01cbea)" style="fill: none; stroke-dasharray: 2.96,1.28; stroke-dashoffset: 0; stroke: #b0b0b0; stroke-opacity: 0.8; stroke-width: 0.8"/>
     </g>
     <g id="line2d_24">
      <g>
       <use xlink:href="#mf627c1fb0e" x="52.160938" y="185.510851" style="stroke: #000000; stroke-width: 0.8"/>
      </g>
     </g>
     <g id="text_13">
      <!-- −0.2 -->
      <g transform="translate(20.878125 189.31007) scale(0.1 -0.1)">
       <use xlink:href="#DejaVuSans-2212"/>
       <use xlink:href="#DejaVuSans-30" transform="translate(83.789062 0)"/>
       <use xlink:href="#DejaVuSans-2e" transform="translate(147.412109 0)"/>
       <use xlink:href="#DejaVuSans-32" transform="translate(179.199219 0)"/>
      </g>
     </g>
    </g>
    <g id="ytick_4">
     <g id="line2d_25">
      <path d="M 52.160938 156.787926 
L 568.8 156.787926 
" clip-path="url(#p10cb01cbea)" style="fill: none; stroke-dasharray: 2.96,1.28; stroke-dashoffset: 0; stroke: #b0b0b0; stroke-opacity: 0.8; stroke-width: 0.8"/>
     </g>
     <g id="line2d_26">
      <g>
       <use xlink:href="#mf627c1fb0e" x="52.160938" y="156.787926" style="stroke: #000000; stroke-width: 0.8"/>
      </g>
     </g>
     <g id="text_14">
      <!-- −0.1 -->
      <g transform="translate(20.878125 160.587145) scale(0.1 -0.1)">
       <use xlink:href="#DejaVuSans-2212"/>
       <use xlink:href="#DejaVuSans-30" transform="translate(83.789062 0)"/>
       <use xlink:href="#DejaVuSans-2e" transform="translate(147.412109 0)"/>
       <use xlink:href="#DejaVuSans-31" transform="translate(179.199219 0)"/>
      </g>
     </g>
    </g>
    <g id="ytick_5">
     <g id="line2d_27">
      <path d="M 52.160938 128.065002 
L 568.8 128.065002 
" clip-path="url(#p10cb01cbea)" style="fill: none; stroke-dasharray: 2.96,1.28; stroke-dashoffset: 0; stroke: #b0b0b0; stroke-opacity: 0.8; stroke-width: 0.8"/>
     </g>
     <g id="line2d_28">
      <g>
       <use xlink:href="#mf627c1fb0e" x="52.160938" y="128.065002" style="stroke: #000000; stroke-width: 0.8"/>
      </g>
     </g>
     <g id="text_15">
      <!-- 0.0 -->
      <g transform="translate(29.257812 131.864221) scale(0.1 -0.1)">
       <use xlink:href="#DejaVuSans-30"/>
       <use xlink:href="#DejaVuSans-2e" transform="translate(63.623047 0)"/>
       <use xlink:href="#DejaVuSans-30" transform="translate(95.410156 0)"/>
      </g>
     </g>
    </g>
    <g id="ytick_6">
     <g id="line2d_29">
      <path d="M 52.160938 99.342078 
L 568.8 99.342078 
" clip-path="url(#p10cb01cbea)" style="fill: none; stroke-dasharray: 2.96,1.28; stroke-dashoffset: 0; stroke: #b0b0b0; stroke-opacity: 0.8; stroke-width: 0.8"/>
     </g>
     <g id="line2d_30">
      <g>
       <use xlink:href="#mf627c1fb0e" x="52.160938" y="99.342078" style="stroke: #000000; stroke-width: 0.8"/>
      </g>
     </g>
     <g id="text_16">
      <!-- 0.1 -->
      <g transform="translate(29.257812 103.141296) scale(0.1 -0.1)">
       <use xlink:href="#DejaVuSans-30"/>
       <use xlink:href="#DejaVuSans-2e" transform="translate(63.623047 0)"/>
       <use xlink:href="#DejaVuSans-31" transform="translate(95.410156 0)"/>
      </g>
     </g>
    </g>
    <g id="ytick_7">
     <g id="line2d_31">
      <path d="M 52.160938 70.619153 
L 568.8 70.619153 
" clip-path="url(#p10cb01cbea)" style="fill: none; stroke-dasharray: 2.96,1.28; stroke-dashoffset: 0; stroke: #b0b0b0; stroke-opacity: 0.8; stroke-width: 0.8"/>
     </g>
     <g id="line2d_32">
      <g>
       <use xlink:href="#mf627c1fb0e" x="52.160938" y="70.619153" style="stroke: #000000; stroke-width: 0.8"/>
      </g>
     </g>
     <g id="text_17">
      <!-- 0.2 -->
      <g transform="translate(29.257812 74.418372) scale(0.1 -0.1)">
       <use xlink:href="#DejaVuSans-30"/>
       <use xlink:href="#DejaVuSans-2e" transform="translate(63.623047 0)"/>
       <use xlink:href="#DejaVuSans-32" transform="translate(95.410156 0)"/>
      </g>
     </g>
    </g>
    <g id="ytick_8">
     <g id="line2d_33">
      <path d="M 52.160938 41.896229 
L 568.8 41.896229 
" clip-path="url(#p10cb01cbea)" style="fill: none; stroke-dasharray: 2.96,1.28; stroke-dashoffset: 0; stroke: #b0b0b0; stroke-opacity: 0.8; stroke-width: 0.8"/>
     </g>
     <g id="line2d_34">
      <g>
       <use xlink:href="#mf627c1fb0e" x="52.160938" y="41.896229" style="stroke: #000000; stroke-width: 0.8"/>
      </g>
     </g>
     <g id="text_18">
      <!-- 0.3 -->
      <g transform="translate(29.257812 45.695448) scale(0.1 -0.1)">
       <use xlink:href="#DejaVuSans-30"/>
       <use xlink:href="#DejaVuSans-2e" transform="translate(63.623047 0)"/>
       <use xlink:href="#DejaVuSans-33" transform="translate(95.410156 0)"/>
      </g>
     </g>
    </g>
    <g id="ytick_9">
     <g id="line2d_35">
      <path d="M 52.160938 13.173304 
L 568.8 13.173304 
" clip-path="url(#p10cb01cbea)" style="fill: none; stroke-dasharray: 2.96,1.28; stroke-dashoffset: 0; stroke: #b0b0b0; stroke-opacity: 0.8; stroke-width: 0.8"/>
     </g>
     <g id="line2d_36">
      <g>
       <use xlink:href="#mf627c1fb0e" x="52.160938" y="13.173304" style="stroke: #000000; stroke-width: 0.8"/>
      </g>
     </g>
     <g id="text_19">
      <!-- 0.4 -->
      <g transform="translate(29.257812 16.972523) scale(0.1 -0.1)">
       <use xlink:href="#DejaVuSans-30"/>
       <use xlink:href="#DejaVuSans-2e" transform="translate(63.623047 0)"/>
       <use xlink:href="#DejaVuSans-34" transform="translate(95.410156 0)"/>
      </g>
     </g>
    </g>
    <g id="text_20">
     <!-- Amplitude -->
     <g transform="translate(14.798437 154.433594) rotate(-90) scale(0.1 -0.1)">
      <defs>
       <path id="DejaVuSans-41" d="M 2188 4044 
L 1331 1722 
L 3047 1722 
L 2188 4044 
z
M 1831 4666 
L 2547 4666 
L 4325 0 
L 3669 0 
L 3244 1197 
L 1141 1197 
L 716 0 
L 50 0 
L 1831 4666 
z
" transform="scale(0.015625)"/>
       <path id="DejaVuSans-69" d="M 603 3500 
L 1178 3500 
L 1178 0 
L 603 0 
L 603 3500 
z
M 603 4863 
L 1178 4863 
L 1178 4134 
L 603 4134 
L 603 4863 
z
" transform="scale(0.015625)"/>
       <path id="DejaVuSans-74" d="M 1172 4494 
L 1172 3500 
L 2356 3500 
L 2356 3053 
L 1172 3053 
L 1172 1153 
Q 1172 725 1289 603 
Q 1406 481 1766 481 
L 2356 481 
L 2356 0 
L 1766 0 
Q 1100 0 847 248 
Q 594 497 594 1153 
L 594 3053 
L 172 3053 
L 172 3500 
L 594 3500 
L 594 4494 
L 1172 4494 
z
" transform="scale(0.015625)"/>
       <path id="DejaVuSans-75" d="M 544 1381 
L 544 3500 
L 1119 3500 
L 1119 1403 
Q 1119 906 1312 657 
Q 1506 409 1894 409 
Q 2359 409 2629 706 
Q 2900 1003 2900 1516 
L 2900 3500 
L 3475 3500 
L 3475 0 
L 2900 0 
L 2900 538 
Q 2691 219 2414 64 
Q 2138 -91 1772 -91 
Q 1169 -91 856 284 
Q 544 659 544 1381 
z
M 1991 3584 
L 1991 3584 
z
" transform="scale(0.015625)"/>
       <path id="DejaVuSans-64" d="M 2906 2969 
L 2906 4863 
L 3481 4863 
L 3481 0 
L 2906 0 
L 2906 525 
Q 2725 213 2448 61 
Q 2172 -91 1784 -91 
Q 1150 -91 751 415 
Q 353 922 353 1747 
Q 353 2572 751 3078 
Q 1150 3584 1784 3584 
Q 2172 3584 2448 3432 
Q 2725 3281 2906 2969 
z
M 947 1747 
Q 947 1113 1208 752 
Q 1469 391 1925 391 
Q 2381 391 2643 752 
Q 2906 1113 2906 1747 
Q 2906 2381 2643 2742 
Q 2381 3103 1925 3103 
Q 1469 3103 1208 2742 
Q 947 2381 947 1747 
z
" transform="scale(0.015625)"/>
      </defs>
      <use xlink:href="#DejaVuSans-41"/>
      <use xlink:href="#DejaVuSans-6d" transform="translate(68.408203 0)"/>
      <use xlink:href="#DejaVuSans-70" transform="translate(165.820312 0)"/>
      <use xlink:href="#DejaVuSans-6c" transform="translate(229.296875 0)"/>
      <use xlink:href="#DejaVuSans-69" transform="translate(257.080078 0)"/>
      <use xlink:href="#DejaVuSans-74" transform="translate(284.863281 0)"/>
      <use xlink:href="#DejaVuSans-75" transform="translate(324.072266 0)"/>
      <use xlink:href="#DejaVuSans-64" transform="translate(387.451172 0)"/>
      <use xlink:href="#DejaVuSans-65" transform="translate(450.927734 0)"/>
     </g>
    </g>
   </g>
   <g id="line2d_37">
    <path d="M 75.644531 115.442735 
L 76.821654 166.021139 
L 77.998776 198.994754 
L 79.175899 226.101456 
L 80.353021 237.115155 
L 81.530144 221.587412 
L 82.707266 203.461808 
L 83.884389 162.376003 
L 85.061511 131.028609 
L 86.238634 86.265604 
L 87.415756 50.346758 
L 88.592879 34.462922 
L 89.770001 23.193463 
L 90.947124 32.871616 
L 92.124246 55.883854 
L 93.301369 83.140558 
L 94.478491 134.019934 
L 95.655614 168.638137 
L 96.832736 206.557796 
L 98.009859 223.605119 
L 99.186981 223.837367 
L 100.364104 220.859001 
L 101.541226 195.52018 
L 102.718349 164.130423 
L 103.895471 127.962446 
L 106.249716 204.818435 
L 107.426839 227.749456 
L 108.603961 227.185161 
L 109.781084 227.412655 
L 110.958206 204.921961 
L 113.312451 128.944184 
L 115.666696 205.845245 
L 116.843819 219.925453 
L 118.020941 222.163205 
L 119.198064 225.377178 
L 120.375186 203.089536 
L 121.552309 171.589173 
L 122.729431 126.004135 
L 125.083676 53.665569 
L 126.260798 35.024171 
L 127.437921 28.716672 
L 128.615043 43.642855 
L 129.792166 56.805264 
L 132.146411 124.200907 
L 134.500656 201.345283 
L 135.677778 220.755087 
L 136.854901 230.582764 
L 138.032023 222.607088 
L 139.209146 200.219375 
L 140.386268 169.928097 
L 141.563391 123.614985 
L 142.740513 88.408328 
L 143.917636 64.8248 
L 145.094758 32.559667 
L 146.271881 22.573769 
L 147.449003 31.882267 
L 148.626126 65.601082 
L 149.803248 86.412112 
L 150.980371 128.50519 
L 152.157493 82.572589 
L 153.334616 63.889306 
L 154.511738 23.494791 
L 155.688861 31.921549 
L 156.865983 37.526187 
L 158.043106 54.332325 
L 159.220228 83.991792 
L 161.574473 171.783821 
L 162.751596 200.145574 
L 163.928718 213.291745 
L 165.105841 225.188341 
L 166.282963 219.349031 
L 167.460086 200.889451 
L 168.637208 169.440189 
L 169.814331 132.454018 
L 172.168576 201.51601 
L 173.345698 218.83532 
L 174.522821 226.088802 
L 175.699943 222.626033 
L 176.877066 203.81515 
L 179.231311 132.804539 
L 180.408433 95.096918 
L 182.762678 34.19548 
L 183.939801 25.554419 
L 185.116923 28.146276 
L 186.294046 49.628356 
L 187.471168 85.279924 
L 188.648291 129.611572 
L 191.002536 205.338174 
L 192.179658 222.95328 
L 193.356781 230.461587 
L 194.533903 225.544087 
L 196.888148 163.537255 
L 198.065271 138.444926 
L 199.242393 162.815483 
L 200.419516 205.91811 
L 201.596638 224.956104 
L 202.773761 224.372005 
L 203.950883 222.019678 
L 206.305128 169.560501 
L 207.482251 131.596565 
L 208.659373 89.763794 
L 209.836496 56.989439 
L 211.013618 35.572155 
L 212.190741 32.007712 
L 213.367863 37.475439 
L 214.544986 55.002371 
L 215.722108 89.099122 
L 216.89923 129.486987 
L 218.076353 79.702659 
L 219.253475 51.073576 
L 220.430598 34.522591 
L 221.60772 26.549016 
L 222.784843 37.884439 
L 223.961965 65.71233 
L 225.139088 86.201265 
L 226.31621 128.691553 
L 228.670455 52.581833 
L 229.847578 29.138528 
L 231.0247 25.284486 
L 233.378945 55.162387 
L 234.556068 88.944837 
L 238.087435 203.844798 
L 239.264558 217.452249 
L 240.44168 228.328434 
L 241.618803 224.191342 
L 242.795925 201.92452 
L 243.973048 170.681089 
L 245.15017 125.825721 
L 246.327293 176.502199 
L 248.681538 224.248876 
L 249.85866 234.184748 
L 251.035783 220.764946 
L 252.212905 201.440564 
L 253.390028 165.198482 
L 254.56715 124.735754 
L 256.921395 57.012556 
L 258.098518 30.304655 
L 259.27564 23.484351 
L 260.452763 24.635484 
L 261.629885 49.209319 
L 262.807008 86.525585 
L 263.98413 132.765041 
L 265.161253 156.882 
L 267.515498 225.187957 
L 268.69262 230.104494 
L 269.869743 229.976142 
L 271.046865 198.867433 
L 272.223988 173.481837 
L 273.40111 122.797606 
L 274.578233 171.112334 
L 276.932478 221.452858 
L 278.1096 227.588436 
L 279.286723 218.592882 
L 280.463845 201.116196 
L 281.640968 162.11906 
L 282.81809 127.812154 
L 285.172335 201.640088 
L 287.52658 237.356765 
L 288.703703 224.346004 
L 291.057948 160.868526 
L 292.23507 120.382905 
L 293.412193 166.157178 
L 295.766438 226.988673 
L 296.94356 231.340086 
L 298.120683 224.175283 
L 299.297805 203.676072 
L 300.474928 171.416011 
L 301.65205 120.926451 
L 302.829173 171.30933 
L 305.183418 221.876256 
L 306.36054 234.356654 
L 308.714785 195.936305 
L 309.891908 169.128212 
L 311.06903 131.501667 
L 313.423275 201.655136 
L 314.600397 219.333767 
L 315.77752 222.400204 
L 316.954642 227.384972 
L 319.308887 162.517033 
L 320.48601 122.755484 
L 324.017377 224.15238 
L 325.1945 228.837361 
L 326.371622 227.521698 
L 327.548745 199.677349 
L 328.725867 176.003776 
L 329.90299 124.49848 
L 331.080112 85.114691 
L 332.257235 53.713358 
L 333.434357 35.597678 
L 334.61148 23.020751 
L 336.965725 56.120102 
L 338.142847 90.188886 
L 339.31997 127.86658 
L 340.497092 77.689148 
L 342.851337 33.913693 
L 344.02846 23.962251 
L 345.205582 33.527506 
L 346.382705 56.850247 
L 347.559827 96.933228 
L 348.73695 129.450529 
L 351.091195 199.510853 
L 352.268317 221.771074 
L 353.44544 225.321992 
L 354.622562 226.520704 
L 356.976807 162.910347 
L 358.15393 131.595217 
L 360.508175 56.526344 
L 361.685297 33.952994 
L 362.86242 34.695765 
L 364.039542 29.852144 
L 365.216665 51.710833 
L 366.393787 93.397993 
L 367.57091 128.567473 
L 368.748032 89.787932 
L 369.925155 68.400368 
L 371.102277 36.241871 
L 372.2794 27.570728 
L 373.456522 38.053398 
L 374.633645 52.942037 
L 375.810767 85.697432 
L 376.98789 126.716802 
L 379.342135 56.521516 
L 380.519257 29.185444 
L 381.69638 18.25554 
L 382.873502 37.140187 
L 384.050625 62.06753 
L 385.227747 92.765411 
L 386.40487 117.573241 
L 388.759115 52.649738 
L 389.936237 36.351636 
L 391.11336 25.577664 
L 392.290482 40.712802 
L 394.644727 83.489754 
L 395.82185 123.546846 
L 398.176095 54.184046 
L 399.353217 40.314 
L 400.53034 22.157243 
L 401.707462 35.670999 
L 402.884585 70.811111 
L 405.238829 121.927216 
L 406.415952 172.927046 
L 407.593074 197.857494 
L 408.770197 228.924457 
L 409.947319 225.773538 
L 411.124442 226.752881 
L 412.301564 201.806447 
L 413.478687 167.74129 
L 415.832932 92.339519 
L 417.010054 59.120476 
L 418.187177 42.425326 
L 419.364299 21.286934 
L 420.541422 46.008963 
L 421.718544 62.622844 
L 422.895667 89.384468 
L 424.072789 126.020316 
L 425.249912 173.472699 
L 426.427034 202.809901 
L 427.604157 224.482726 
L 428.781279 230.46338 
L 429.958402 223.814955 
L 431.135524 203.229154 
L 432.312647 160.514856 
L 433.489769 126.017565 
L 434.666892 95.759437 
L 435.844014 53.815312 
L 437.021137 41.019438 
L 438.198259 20.926673 
L 439.375382 29.150138 
L 440.552504 50.848393 
L 441.729627 92.05857 
L 442.906749 129.309809 
L 444.083872 97.006344 
L 445.260994 48.551987 
L 446.438117 28.828674 
L 447.615239 25.00064 
L 448.792362 37.838469 
L 449.969484 57.088482 
L 451.146607 85.738942 
L 453.500852 167.054036 
L 454.677974 197.580453 
L 455.855097 223.503147 
L 457.032219 239.366335 
L 458.209342 224.329717 
L 459.386464 207.740405 
L 460.563587 170.198991 
L 461.740709 126.114236 
L 462.917832 173.411027 
L 464.094954 206.080604 
L 465.272077 226.11355 
L 466.449199 224.67244 
L 467.626322 214.214747 
L 468.803444 205.409629 
L 469.980567 156.471827 
L 471.157689 124.435205 
L 473.511934 197.954192 
L 474.689057 208.088223 
L 475.866179 227.898114 
L 477.043302 223.716623 
L 478.220424 207.108283 
L 479.397547 158.995706 
L 480.574669 124.032404 
L 481.751792 164.507864 
L 482.928914 190.238862 
L 484.106037 224.133653 
L 486.460282 223.038142 
L 487.637404 189.903731 
L 488.814527 166.784122 
L 489.991649 122.110466 
L 491.168772 82.938255 
L 493.523017 34.575112 
L 494.700139 30.883561 
L 495.877262 32.758967 
L 497.054384 57.194433 
L 498.231507 92.885658 
L 499.408629 118.522994 
L 500.585751 166.177925 
L 501.762874 204.771656 
L 502.939996 223.017762 
L 504.117119 228.279998 
L 505.294241 229.915843 
L 506.471364 196.467445 
L 507.648486 158.021363 
L 508.825609 129.206048 
L 511.179854 57.778071 
L 512.356976 38.409881 
L 513.534099 25.408143 
L 514.711221 31.076121 
L 515.888344 54.690702 
L 517.065466 86.393914 
L 518.242589 127.707769 
L 519.419711 89.942916 
L 520.596834 55.953416 
L 521.773956 34.699638 
L 522.951079 27.147524 
L 524.128201 25.395477 
L 525.305324 55.993281 
L 526.482446 93.826339 
L 527.659569 121.008628 
L 528.836691 170.347521 
L 531.190936 222.963493 
L 532.368059 229.056586 
L 533.545181 223.251109 
L 534.722304 200.216394 
L 535.899426 169.925828 
L 537.076549 132.937626 
L 538.253671 86.525247 
L 539.430794 54.920418 
L 540.607916 37.540175 
L 541.785039 22.25255 
L 542.962161 37.207655 
L 544.139284 58.541356 
L 545.316406 85.644684 
L 545.316406 85.644684 
" clip-path="url(#p10cb01cbea)" style="fill: none; stroke: #1f77b4; stroke-linecap: square"/>
   </g>
   <g id="line2d_38">
    <path d="M 75.644531 126.434658 
L 76.821654 126.208007 
L 77.998776 128.414704 
L 79.175899 136.857775 
L 80.353021 134.003875 
L 82.707266 52.001663 
L 83.884389 40.562179 
L 85.061511 27.212574 
L 86.238634 34.963314 
L 87.415756 51.441742 
L 88.592879 92.577884 
L 89.770001 127.833863 
L 90.947124 167.886117 
L 92.124246 198.786391 
L 93.301369 215.326398 
L 94.478491 238.73235 
L 95.655614 220.728387 
L 96.832736 197.093704 
L 98.009859 162.304249 
L 99.186981 132.921145 
L 100.364104 159.94121 
L 101.541226 204.58183 
L 102.718349 224.607803 
L 103.895471 227.322223 
L 105.072594 226.162604 
L 106.249716 194.158796 
L 107.426839 175.555839 
L 108.603961 128.596842 
L 109.781084 165.035254 
L 110.958206 211.783939 
L 113.312451 234.519192 
L 114.489574 218.799769 
L 115.666696 206.820708 
L 118.020941 122.391794 
L 119.198064 171.935193 
L 121.552309 221.048706 
L 122.729431 231.304582 
L 123.906553 221.373491 
L 125.083676 199.883198 
L 126.260798 170.922473 
L 127.437921 117.554432 
L 128.615043 168.059819 
L 129.792166 201.487356 
L 130.969288 217.613537 
L 132.146411 228.540953 
L 133.323533 217.739621 
L 134.500656 195.061194 
L 135.677778 166.832262 
L 138.032023 91.064902 
L 139.209146 56.698161 
L 140.386268 38.865166 
L 141.563391 24.824983 
L 142.740513 27.139904 
L 143.917636 54.180586 
L 145.094758 84.290134 
L 146.271881 129.554099 
L 148.626126 58.098406 
L 149.803248 32.276423 
L 150.980371 28.402254 
L 152.157493 28.646283 
L 153.334616 58.875102 
L 154.511738 81.683073 
L 155.688861 127.689195 
L 156.865983 92.742056 
L 158.043106 53.346452 
L 159.220228 30.657479 
L 160.397351 26.496857 
L 161.574473 38.179039 
L 162.751596 69.793427 
L 163.928718 86.581091 
L 165.105841 119.686164 
L 166.282963 90.543102 
L 167.460086 57.926841 
L 168.637208 30.431914 
L 169.814331 19.574795 
L 170.991453 37.418539 
L 172.168576 58.8279 
L 173.345698 86.540538 
L 174.522821 129.081443 
L 175.699943 99.63542 
L 176.877066 53.981092 
L 178.054188 27.625577 
L 179.231311 28.297141 
L 180.408433 25.359014 
L 181.585556 54.894349 
L 182.762678 88.25285 
L 186.294046 205.246328 
L 187.471168 212.823482 
L 188.648291 229.343785 
L 189.825413 222.434292 
L 191.002536 199.290098 
L 193.356781 133.506395 
L 194.533903 84.643313 
L 195.711026 53.498757 
L 196.888148 40.111388 
L 198.065271 23.814955 
L 199.242393 38.472777 
L 200.419516 51.734698 
L 202.773761 133.08014 
L 203.950883 176.816297 
L 205.128006 197.55192 
L 206.305128 223.834487 
L 207.482251 235.313256 
L 208.659373 226.161323 
L 209.836496 201.203883 
L 211.013618 168.239053 
L 212.190741 131.507368 
L 214.544986 204.348882 
L 215.722108 230.990557 
L 216.89923 232.549381 
L 218.076353 219.634112 
L 219.253475 203.643518 
L 220.430598 174.018153 
L 221.60772 128.571323 
L 223.961965 207.929386 
L 225.139088 216.198676 
L 226.31621 228.298959 
L 227.493333 210.815921 
L 228.670455 203.31029 
L 229.847578 171.738931 
L 231.0247 127.341445 
L 232.201823 157.249338 
L 233.378945 197.726845 
L 234.556068 219.739218 
L 235.73319 224.579286 
L 236.910313 222.926744 
L 238.087435 193.765016 
L 239.264558 168.753779 
L 240.44168 127.116799 
L 241.618803 161.468359 
L 242.795925 204.943036 
L 243.973048 214.749807 
L 245.15017 226.573101 
L 246.327293 225.089082 
L 247.504415 205.527757 
L 248.681538 170.441272 
L 249.85866 121.426673 
L 251.035783 89.961208 
L 252.212905 54.280937 
L 253.390028 25.508923 
L 254.56715 21.3769 
L 255.744273 34.938813 
L 256.921395 57.45519 
L 260.452763 159.23795 
L 261.629885 199.164724 
L 262.807008 217.029643 
L 263.98413 229.82157 
L 265.161253 227.897205 
L 266.338375 204.217633 
L 269.869743 83.631389 
L 271.046865 55.860055 
L 272.223988 40.942932 
L 273.40111 29.421183 
L 274.578233 31.966829 
L 275.755355 48.503447 
L 276.932478 83.864663 
L 278.1096 123.571255 
L 279.286723 91.84257 
L 280.463845 55.985046 
L 281.640968 23.721277 
L 282.81809 25.968691 
L 283.995213 31.706673 
L 285.172335 58.702318 
L 286.349458 89.522777 
L 287.52658 125.017317 
L 288.703703 173.463463 
L 289.880825 203.47932 
L 291.057948 211.187393 
L 292.23507 228.3163 
L 293.412193 220.865179 
L 294.589315 197.34133 
L 295.766438 165.618899 
L 296.94356 124.062469 
L 299.297805 202.722149 
L 300.474928 221.02889 
L 301.65205 230.652519 
L 302.829173 220.380571 
L 304.006295 198.374256 
L 308.714785 55.915077 
L 309.891908 33.971038 
L 311.06903 19.848798 
L 312.246152 37.703167 
L 313.423275 58.532516 
L 314.600397 83.012885 
L 315.77752 128.928518 
L 316.954642 85.003929 
L 318.131765 52.622869 
L 319.308887 27.934634 
L 320.48601 27.808367 
L 321.663132 34.514234 
L 324.017377 84.921001 
L 325.1945 121.298241 
L 326.371622 167.003062 
L 328.725867 221.006059 
L 329.90299 232.467134 
L 331.080112 225.013176 
L 332.257235 200.042203 
L 333.434357 166.73565 
L 334.61148 128.572653 
L 338.142847 227.496759 
L 339.31997 230.813558 
L 340.497092 224.177682 
L 341.674215 210.061563 
L 342.851337 163.374685 
L 344.02846 128.934546 
L 345.205582 170.956814 
L 347.559827 221.105724 
L 348.73695 228.702773 
L 349.914072 224.523552 
L 352.268317 169.445285 
L 353.44544 123.3206 
L 355.799685 62.303152 
L 356.976807 38.869229 
L 358.15393 27.477812 
L 359.331052 36.944397 
L 360.508175 52.674205 
L 361.685297 87.095532 
L 364.039542 170.708045 
L 365.216665 203.773046 
L 366.393787 222.792222 
L 367.57091 229.237837 
L 368.748032 225.467363 
L 369.925155 202.095126 
L 371.102277 157.617094 
L 372.2794 137.280336 
L 373.456522 168.517743 
L 374.633645 196.755694 
L 375.810767 216.247783 
L 376.98789 229.811015 
L 378.165012 225.815508 
L 379.342135 206.977533 
L 380.519257 161.635771 
L 381.69638 129.660223 
L 382.873502 163.423775 
L 384.050625 205.171045 
L 385.227747 224.250136 
L 386.40487 236.79777 
L 387.581992 228.915963 
L 389.936237 172.236208 
L 392.290482 88.634087 
L 393.467605 54.330343 
L 394.644727 31.595962 
L 395.82185 24.757195 
L 396.998972 34.94579 
L 398.176095 46.628909 
L 399.353217 86.684579 
L 400.53034 118.434369 
L 404.061707 37.833173 
L 405.238829 25.251906 
L 406.415952 40.794236 
L 407.593074 50.798245 
L 408.770197 86.097172 
L 409.947319 131.733208 
L 411.124442 169.242376 
L 412.301564 199.577759 
L 413.478687 222.901207 
L 414.655809 225.9149 
L 415.832932 219.163511 
L 417.010054 202.611772 
L 418.187177 174.77034 
L 419.364299 126.212193 
L 420.541422 85.298288 
L 422.895667 30.579724 
L 424.072789 22.38784 
L 425.249912 34.430996 
L 426.427034 51.056656 
L 427.604157 80.261092 
L 428.781279 123.077456 
L 429.958402 92.975102 
L 431.135524 55.41205 
L 432.312647 32.263795 
L 433.489769 23.980034 
L 434.666892 33.780454 
L 435.844014 52.819576 
L 437.021137 90.615073 
L 439.375382 172.34258 
L 441.729627 225.831446 
L 442.906749 223.568185 
L 444.083872 222.954895 
L 445.260994 199.217765 
L 446.438117 163.274088 
L 447.615239 130.791805 
L 448.792362 168.974243 
L 449.969484 197.668694 
L 451.146607 218.42931 
L 452.323729 230.978207 
L 453.500852 225.484206 
L 454.677974 187.452027 
L 455.855097 172.74492 
L 458.209342 86.456278 
L 459.386464 55.952118 
L 460.563587 32.342299 
L 461.740709 28.528788 
L 462.917832 38.789894 
L 464.094954 53.832614 
L 465.272077 85.910333 
L 466.449199 114.417649 
L 467.626322 91.043799 
L 468.803444 52.625387 
L 469.980567 42.884399 
L 471.157689 22.562435 
L 472.334812 30.719085 
L 473.511934 49.902215 
L 474.689057 83.22701 
L 477.043302 168.046766 
L 478.220424 201.04642 
L 479.397547 222.501245 
L 480.574669 228.209572 
L 481.751792 227.367857 
L 482.928914 196.791896 
L 484.106037 176.922988 
L 485.283159 127.838577 
L 487.637404 200.581751 
L 488.814527 221.730156 
L 489.991649 225.048779 
L 491.168772 223.136889 
L 492.345894 203.272586 
L 493.523017 170.535463 
L 494.700139 125.175821 
L 495.877262 165.40979 
L 497.054384 188.317819 
L 498.231507 218.207336 
L 499.408629 224.866601 
L 500.585751 227.135598 
L 502.939996 166.977986 
L 504.117119 134.720527 
L 505.294241 169.730057 
L 506.471364 188.474325 
L 507.648486 230.062584 
L 508.825609 227.824666 
L 510.002731 216.56065 
L 511.179854 195.143967 
L 512.356976 163.769046 
L 513.534099 122.983968 
L 514.711221 101.917577 
L 515.888344 56.30873 
L 517.065466 32.972967 
L 518.242589 27.702556 
L 519.419711 35.418168 
L 520.596834 58.080461 
L 522.951079 127.20417 
L 524.128201 158.983355 
L 525.305324 203.162183 
L 526.482446 218.981026 
L 527.659569 226.785733 
L 528.836691 220.113698 
L 530.013814 198.700588 
L 532.368059 121.94393 
L 534.722304 53.791328 
L 535.899426 30.702033 
L 537.076549 19.795579 
L 538.253671 27.324086 
L 540.607916 93.209201 
L 541.785039 128.260154 
L 542.962161 174.880068 
L 544.139284 200.252963 
L 545.316406 222.68874 
L 545.316406 222.68874 
" clip-path="url(#p10cb01cbea)" style="fill: none; stroke: #ff7f0e; stroke-linecap: square"/>
   </g>
   <g id="patch_3">
    <path d="M 52.160938 250.421875 
L 52.160938 7.2 
" style="fill: none; stroke: #000000; stroke-width: 0.8; stroke-linejoin: miter; stroke-linecap: square"/>
   </g>
   <g id="patch_4">
    <path d="M 568.8 250.421875 
L 568.8 7.2 
" style="fill: none; stroke: #000000; stroke-width: 0.8; stroke-linejoin: miter; stroke-linecap: square"/>
   </g>
   <g id="patch_5">
    <path d="M 52.160937 250.421875 
L 568.8 250.421875 
" style="fill: none; stroke: #000000; stroke-width: 0.8; stroke-linejoin: miter; stroke-linecap: square"/>
   </g>
   <g id="patch_6">
    <path d="M 52.160937 7.2 
L 568.8 7.2 
" style="fill: none; stroke: #000000; stroke-width: 0.8; stroke-linejoin: miter; stroke-linecap: square"/>
   </g>
   <g id="legend_1">
    <g id="patch_7">
     <path d="M 59.160938 44.55625 
L 116.15625 44.55625 
Q 118.15625 44.55625 118.15625 42.55625 
L 118.15625 14.2 
Q 118.15625 12.2 116.15625 12.2 
L 59.160938 12.2 
Q 57.160938 12.2 57.160938 14.2 
L 57.160938 42.55625 
Q 57.160938 44.55625 59.160938 44.55625 
z
" style="fill: #ffffff; opacity: 0.8; stroke: #cccccc; stroke-linejoin: miter"/>
    </g>
    <g id="line2d_39">
     <path d="M 61.160938 20.298437 
L 71.160938 20.298437 
L 81.160938 20.298437 
" style="fill: none; stroke: #1f77b4; stroke-linecap: square"/>
    </g>
    <g id="text_21">
     <!-- real -->
     <g transform="translate(89.160938 23.798437) scale(0.1 -0.1)">
      <defs>
       <path id="DejaVuSans-72" d="M 2631 2963 
Q 2534 3019 2420 3045 
Q 2306 3072 2169 3072 
Q 1681 3072 1420 2755 
Q 1159 2438 1159 1844 
L 1159 0 
L 581 0 
L 581 3500 
L 1159 3500 
L 1159 2956 
Q 1341 3275 1631 3429 
Q 1922 3584 2338 3584 
Q 2397 3584 2469 3576 
Q 2541 3569 2628 3553 
L 2631 2963 
z
" transform="scale(0.015625)"/>
      </defs>
      <use xlink:href="#DejaVuSans-72"/>
      <use xlink:href="#DejaVuSans-65" transform="translate(38.863281 0)"/>
      <use xlink:href="#DejaVuSans-61" transform="translate(100.386719 0)"/>
      <use xlink:href="#DejaVuSans-6c" transform="translate(161.666016 0)"/>
     </g>
    </g>
    <g id="line2d_40">
     <path d="M 61.160938 34.976562 
L 71.160938 34.976562 
L 81.160938 34.976562 
" style="fill: none; stroke: #ff7f0e; stroke-linecap: square"/>
    </g>
    <g id="text_22">
     <!-- imag -->
     <g transform="translate(89.160938 38.476562) scale(0.1 -0.1)">
      <defs>
       <path id="DejaVuSans-67" d="M 2906 1791 
Q 2906 2416 2648 2759 
Q 2391 3103 1925 3103 
Q 1463 3103 1205 2759 
Q 947 2416 947 1791 
Q 947 1169 1205 825 
Q 1463 481 1925 481 
Q 2391 481 2648 825 
Q 2906 1169 2906 1791 
z
M 3481 434 
Q 3481 -459 3084 -895 
Q 2688 -1331 1869 -1331 
Q 1566 -1331 1297 -1286 
Q 1028 -1241 775 -1147 
L 775 -588 
Q 1028 -725 1275 -790 
Q 1522 -856 1778 -856 
Q 2344 -856 2625 -561 
Q 2906 -266 2906 331 
L 2906 616 
Q 2728 306 2450 153 
Q 2172 0 1784 0 
Q 1141 0 747 490 
Q 353 981 353 1791 
Q 353 2603 747 3093 
Q 1141 3584 1784 3584 
Q 2172 3584 2450 3431 
Q 2728 3278 2906 2969 
L 2906 3500 
L 3481 3500 
L 3481 434 
z
" transform="scale(0.015625)"/>
      </defs>
      <use xlink:href="#DejaVuSans-69"/>
      <use xlink:href="#DejaVuSans-6d" transform="translate(27.783203 0)"/>
      <use xlink:href="#DejaVuSans-61" transform="translate(125.195312 0)"/>
      <use xlink:href="#DejaVuSans-67" transform="translate(186.474609 0)"/>
     </g>
    </g>
   </g>
  </g>
 </g>
 <defs>
  <clipPath id="p10cb01cbea">
   <rect x="52.160938" y="7.2" width="516.639063" height="243.221875"/>
  </clipPath>
 </defs>
</svg>
