<?xml version="1.0" encoding="utf-8" standalone="no"?>
<!DOCTYPE svg PUBLIC "-//W3C//DTD SVG 1.1//EN"
  "http://www.w3.org/Graphics/SVG/1.1/DTD/svg11.dtd">
<svg xmlns:xlink="http://www.w3.org/1999/xlink" width="576pt" height="288pt" viewBox="0 0 576 288" xmlns="http://www.w3.org/2000/svg" version="1.1">
 <metadata>
  <rdf:RDF xmlns:dc="http://purl.org/dc/elements/1.1/" xmlns:cc="http://creativecommons.org/ns#" xmlns:rdf="http://www.w3.org/1999/02/22-rdf-syntax-ns#">
   <cc:Work>
    <dc:type rdf:resource="http://purl.org/dc/dcmitype/StillImage"/>
    <dc:date>2025-05-04T14:40:09.366330</dc:date>
    <dc:format>image/svg+xml</dc:format>
    <dc:creator>
     <cc:Agent>
      <dc:title>Matplotlib v3.10.1, https://matplotlib.org/</dc:title>
     </cc:Agent>
    </dc:creator>
   </cc:Work>
  </rdf:RDF>
 </metadata>
 <defs>
  <style type="text/css">*{stroke-linejoin: round; stroke-linecap: butt}</style>
 </defs>
 <g id="figure_1">
  <g id="patch_1">
   <path d="M 0 288 
L 576 288 
L 576 0 
L 0 0 
z
" style="fill: #ffffff"/>
  </g>
  <g id="axes_1">
   <g id="patch_2">
    <path d="M 43.803125 250.421875 
L 568.8 250.421875 
L 568.8 22.318125 
L 43.803125 22.318125 
z
" style="fill: #ffffff"/>
   </g>
   <g id="matplotlib.axis_1">
    <g id="xtick_1">
     <g id="line2d_1">
      <path d="M 99.484612 250.421875 
L 99.484612 22.318125 
" clip-path="url(#p198cb3c88c)" style="fill: none; stroke-dasharray: 2.96,1.28; stroke-dashoffset: 0; stroke: #b0b0b0; stroke-opacity: 0.8; stroke-width: 0.8"/>
     </g>
     <g id="line2d_2">
      <defs>
       <path id="mbbfc3ee31a" d="M 0 0 
L 0 3.5 
" style="stroke: #000000; stroke-width: 0.8"/>
      </defs>
      <g>
       <use xlink:href="#mbbfc3ee31a" x="99.484612" y="250.421875" style="stroke: #000000; stroke-width: 0.8"/>
      </g>
     </g>
     <g id="text_1">
      <!-- $\mathdefault{10^{-14}}$ -->
      <g transform="translate(85.534612 265.020312) scale(0.1 -0.1)">
       <defs>
        <path id="DejaVuSans-31" d="M 794 531 
L 1825 531 
L 1825 4091 
L 703 3866 
L 703 4441 
L 1819 4666 
L 2450 4666 
L 2450 531 
L 3481 531 
L 3481 0 
L 794 0 
L 794 531 
z
" transform="scale(0.015625)"/>
        <path id="DejaVuSans-30" d="M 2034 4250 
Q 1547 4250 1301 3770 
Q 1056 3291 1056 2328 
Q 1056 1369 1301 889 
Q 1547 409 2034 409 
Q 2525 409 2770 889 
Q 3016 1369 3016 2328 
Q 3016 3291 2770 3770 
Q 2525 4250 2034 4250 
z
M 2034 4750 
Q 2819 4750 3233 4129 
Q 3647 3509 3647 2328 
Q 3647 1150 3233 529 
Q 2819 -91 2034 -91 
Q 1250 -91 836 529 
Q 422 1150 422 2328 
Q 422 3509 836 4129 
Q 1250 4750 2034 4750 
z
" transform="scale(0.015625)"/>
        <path id="DejaVuSans-2212" d="M 678 2272 
L 4684 2272 
L 4684 1741 
L 678 1741 
L 678 2272 
z
" transform="scale(0.015625)"/>
        <path id="DejaVuSans-34" d="M 2419 4116 
L 825 1625 
L 2419 1625 
L 2419 4116 
z
M 2253 4666 
L 3047 4666 
L 3047 1625 
L 3713 1625 
L 3713 1100 
L 3047 1100 
L 3047 0 
L 2419 0 
L 2419 1100 
L 313 1100 
L 313 1709 
L 2253 4666 
z
" transform="scale(0.015625)"/>
       </defs>
       <use xlink:href="#DejaVuSans-31" transform="translate(0 0.684375)"/>
       <use xlink:href="#DejaVuSans-30" transform="translate(63.623047 0.684375)"/>
       <use xlink:href="#DejaVuSans-2212" transform="translate(128.203125 38.965625) scale(0.7)"/>
       <use xlink:href="#DejaVuSans-31" transform="translate(186.855469 38.965625) scale(0.7)"/>
       <use xlink:href="#DejaVuSans-34" transform="translate(231.391602 38.965625) scale(0.7)"/>
      </g>
     </g>
    </g>
    <g id="xtick_2">
     <g id="line2d_3">
      <path d="M 163.120597 250.421875 
L 163.120597 22.318125 
" clip-path="url(#p198cb3c88c)" style="fill: none; stroke-dasharray: 2.96,1.28; stroke-dashoffset: 0; stroke: #b0b0b0; stroke-opacity: 0.8; stroke-width: 0.8"/>
     </g>
     <g id="line2d_4">
      <g>
       <use xlink:href="#mbbfc3ee31a" x="163.120597" y="250.421875" style="stroke: #000000; stroke-width: 0.8"/>
      </g>
     </g>
     <g id="text_2">
      <!-- $\mathdefault{10^{-12}}$ -->
      <g transform="translate(149.170597 265.020312) scale(0.1 -0.1)">
       <defs>
        <path id="DejaVuSans-32" d="M 1228 531 
L 3431 531 
L 3431 0 
L 469 0 
L 469 531 
Q 828 903 1448 1529 
Q 2069 2156 2228 2338 
Q 2531 2678 2651 2914 
Q 2772 3150 2772 3378 
Q 2772 3750 2511 3984 
Q 2250 4219 1831 4219 
Q 1534 4219 1204 4116 
Q 875 4013 500 3803 
L 500 4441 
Q 881 4594 1212 4672 
Q 1544 4750 1819 4750 
Q 2544 4750 2975 4387 
Q 3406 4025 3406 3419 
Q 3406 3131 3298 2873 
Q 3191 2616 2906 2266 
Q 2828 2175 2409 1742 
Q 1991 1309 1228 531 
z
" transform="scale(0.015625)"/>
       </defs>
       <use xlink:href="#DejaVuSans-31" transform="translate(0 0.765625)"/>
       <use xlink:href="#DejaVuSans-30" transform="translate(63.623047 0.765625)"/>
       <use xlink:href="#DejaVuSans-2212" transform="translate(128.203125 39.046875) scale(0.7)"/>
       <use xlink:href="#DejaVuSans-31" transform="translate(186.855469 39.046875) scale(0.7)"/>
       <use xlink:href="#DejaVuSans-32" transform="translate(231.391602 39.046875) scale(0.7)"/>
      </g>
     </g>
    </g>
    <g id="xtick_3">
     <g id="line2d_5">
      <path d="M 226.756581 250.421875 
L 226.756581 22.318125 
" clip-path="url(#p198cb3c88c)" style="fill: none; stroke-dasharray: 2.96,1.28; stroke-dashoffset: 0; stroke: #b0b0b0; stroke-opacity: 0.8; stroke-width: 0.8"/>
     </g>
     <g id="line2d_6">
      <g>
       <use xlink:href="#mbbfc3ee31a" x="226.756581" y="250.421875" style="stroke: #000000; stroke-width: 0.8"/>
      </g>
     </g>
     <g id="text_3">
      <!-- $\mathdefault{10^{-10}}$ -->
      <g transform="translate(212.806581 265.020312) scale(0.1 -0.1)">
       <use xlink:href="#DejaVuSans-31" transform="translate(0 0.765625)"/>
       <use xlink:href="#DejaVuSans-30" transform="translate(63.623047 0.765625)"/>
       <use xlink:href="#DejaVuSans-2212" transform="translate(128.203125 39.046875) scale(0.7)"/>
       <use xlink:href="#DejaVuSans-31" transform="translate(186.855469 39.046875) scale(0.7)"/>
       <use xlink:href="#DejaVuSans-30" transform="translate(231.391602 39.046875) scale(0.7)"/>
      </g>
     </g>
    </g>
    <g id="xtick_4">
     <g id="line2d_7">
      <path d="M 290.392566 250.421875 
L 290.392566 22.318125 
" clip-path="url(#p198cb3c88c)" style="fill: none; stroke-dasharray: 2.96,1.28; stroke-dashoffset: 0; stroke: #b0b0b0; stroke-opacity: 0.8; stroke-width: 0.8"/>
     </g>
     <g id="line2d_8">
      <g>
       <use xlink:href="#mbbfc3ee31a" x="290.392566" y="250.421875" style="stroke: #000000; stroke-width: 0.8"/>
      </g>
     </g>
     <g id="text_4">
      <!-- $\mathdefault{10^{-8}}$ -->
      <g transform="translate(278.642566 265.020312) scale(0.1 -0.1)">
       <defs>
        <path id="DejaVuSans-38" d="M 2034 2216 
Q 1584 2216 1326 1975 
Q 1069 1734 1069 1313 
Q 1069 891 1326 650 
Q 1584 409 2034 409 
Q 2484 409 2743 651 
Q 3003 894 3003 1313 
Q 3003 1734 2745 1975 
Q 2488 2216 2034 2216 
z
M 1403 2484 
Q 997 2584 770 2862 
Q 544 3141 544 3541 
Q 544 4100 942 4425 
Q 1341 4750 2034 4750 
Q 2731 4750 3128 4425 
Q 3525 4100 3525 3541 
Q 3525 3141 3298 2862 
Q 3072 2584 2669 2484 
Q 3125 2378 3379 2068 
Q 3634 1759 3634 1313 
Q 3634 634 3220 271 
Q 2806 -91 2034 -91 
Q 1263 -91 848 271 
Q 434 634 434 1313 
Q 434 1759 690 2068 
Q 947 2378 1403 2484 
z
M 1172 3481 
Q 1172 3119 1398 2916 
Q 1625 2713 2034 2713 
Q 2441 2713 2670 2916 
Q 2900 3119 2900 3481 
Q 2900 3844 2670 4047 
Q 2441 4250 2034 4250 
Q 1625 4250 1398 4047 
Q 1172 3844 1172 3481 
z
" transform="scale(0.015625)"/>
       </defs>
       <use xlink:href="#DejaVuSans-31" transform="translate(0 0.765625)"/>
       <use xlink:href="#DejaVuSans-30" transform="translate(63.623047 0.765625)"/>
       <use xlink:href="#DejaVuSans-2212" transform="translate(128.203125 39.046875) scale(0.7)"/>
       <use xlink:href="#DejaVuSans-38" transform="translate(186.855469 39.046875) scale(0.7)"/>
      </g>
     </g>
    </g>
    <g id="xtick_5">
     <g id="line2d_9">
      <path d="M 354.028551 250.421875 
L 354.028551 22.318125 
" clip-path="url(#p198cb3c88c)" style="fill: none; stroke-dasharray: 2.96,1.28; stroke-dashoffset: 0; stroke: #b0b0b0; stroke-opacity: 0.8; stroke-width: 0.8"/>
     </g>
     <g id="line2d_10">
      <g>
       <use xlink:href="#mbbfc3ee31a" x="354.028551" y="250.421875" style="stroke: #000000; stroke-width: 0.8"/>
      </g>
     </g>
     <g id="text_5">
      <!-- $\mathdefault{10^{-6}}$ -->
      <g transform="translate(342.278551 265.020312) scale(0.1 -0.1)">
       <defs>
        <path id="DejaVuSans-36" d="M 2113 2584 
Q 1688 2584 1439 2293 
Q 1191 2003 1191 1497 
Q 1191 994 1439 701 
Q 1688 409 2113 409 
Q 2538 409 2786 701 
Q 3034 994 3034 1497 
Q 3034 2003 2786 2293 
Q 2538 2584 2113 2584 
z
M 3366 4563 
L 3366 3988 
Q 3128 4100 2886 4159 
Q 2644 4219 2406 4219 
Q 1781 4219 1451 3797 
Q 1122 3375 1075 2522 
Q 1259 2794 1537 2939 
Q 1816 3084 2150 3084 
Q 2853 3084 3261 2657 
Q 3669 2231 3669 1497 
Q 3669 778 3244 343 
Q 2819 -91 2113 -91 
Q 1303 -91 875 529 
Q 447 1150 447 2328 
Q 447 3434 972 4092 
Q 1497 4750 2381 4750 
Q 2619 4750 2861 4703 
Q 3103 4656 3366 4563 
z
" transform="scale(0.015625)"/>
       </defs>
       <use xlink:href="#DejaVuSans-31" transform="translate(0 0.765625)"/>
       <use xlink:href="#DejaVuSans-30" transform="translate(63.623047 0.765625)"/>
       <use xlink:href="#DejaVuSans-2212" transform="translate(128.203125 39.046875) scale(0.7)"/>
       <use xlink:href="#DejaVuSans-36" transform="translate(186.855469 39.046875) scale(0.7)"/>
      </g>
     </g>
    </g>
    <g id="xtick_6">
     <g id="line2d_11">
      <path d="M 417.664536 250.421875 
L 417.664536 22.318125 
" clip-path="url(#p198cb3c88c)" style="fill: none; stroke-dasharray: 2.96,1.28; stroke-dashoffset: 0; stroke: #b0b0b0; stroke-opacity: 0.8; stroke-width: 0.8"/>
     </g>
     <g id="line2d_12">
      <g>
       <use xlink:href="#mbbfc3ee31a" x="417.664536" y="250.421875" style="stroke: #000000; stroke-width: 0.8"/>
      </g>
     </g>
     <g id="text_6">
      <!-- $\mathdefault{10^{-4}}$ -->
      <g transform="translate(405.914536 265.020312) scale(0.1 -0.1)">
       <use xlink:href="#DejaVuSans-31" transform="translate(0 0.684375)"/>
       <use xlink:href="#DejaVuSans-30" transform="translate(63.623047 0.684375)"/>
       <use xlink:href="#DejaVuSans-2212" transform="translate(128.203125 38.965625) scale(0.7)"/>
       <use xlink:href="#DejaVuSans-34" transform="translate(186.855469 38.965625) scale(0.7)"/>
      </g>
     </g>
    </g>
    <g id="xtick_7">
     <g id="line2d_13">
      <path d="M 481.300521 250.421875 
L 481.300521 22.318125 
" clip-path="url(#p198cb3c88c)" style="fill: none; stroke-dasharray: 2.96,1.28; stroke-dashoffset: 0; stroke: #b0b0b0; stroke-opacity: 0.8; stroke-width: 0.8"/>
     </g>
     <g id="line2d_14">
      <g>
       <use xlink:href="#mbbfc3ee31a" x="481.300521" y="250.421875" style="stroke: #000000; stroke-width: 0.8"/>
      </g>
     </g>
     <g id="text_7">
      <!-- $\mathdefault{10^{-2}}$ -->
      <g transform="translate(469.550521 265.020312) scale(0.1 -0.1)">
       <use xlink:href="#DejaVuSans-31" transform="translate(0 0.765625)"/>
       <use xlink:href="#DejaVuSans-30" transform="translate(63.623047 0.765625)"/>
       <use xlink:href="#DejaVuSans-2212" transform="translate(128.203125 39.046875) scale(0.7)"/>
       <use xlink:href="#DejaVuSans-32" transform="translate(186.855469 39.046875) scale(0.7)"/>
      </g>
     </g>
    </g>
    <g id="xtick_8">
     <g id="line2d_15">
      <path d="M 544.936506 250.421875 
L 544.936506 22.318125 
" clip-path="url(#p198cb3c88c)" style="fill: none; stroke-dasharray: 2.96,1.28; stroke-dashoffset: 0; stroke: #b0b0b0; stroke-opacity: 0.8; stroke-width: 0.8"/>
     </g>
     <g id="line2d_16">
      <g>
       <use xlink:href="#mbbfc3ee31a" x="544.936506" y="250.421875" style="stroke: #000000; stroke-width: 0.8"/>
      </g>
     </g>
     <g id="text_8">
      <!-- $\mathdefault{10^{0}}$ -->
      <g transform="translate(536.136506 265.020312) scale(0.1 -0.1)">
       <use xlink:href="#DejaVuSans-31" transform="translate(0 0.765625)"/>
       <use xlink:href="#DejaVuSans-30" transform="translate(63.623047 0.765625)"/>
       <use xlink:href="#DejaVuSans-30" transform="translate(128.203125 39.046875) scale(0.7)"/>
      </g>
     </g>
    </g>
    <g id="text_9">
     <!-- Probability of false alarm, $P_{fa}$ -->
     <g transform="translate(234.001563 278.7) scale(0.1 -0.1)">
      <defs>
       <path id="DejaVuSans-50" d="M 1259 4147 
L 1259 2394 
L 2053 2394 
Q 2494 2394 2734 2622 
Q 2975 2850 2975 3272 
Q 2975 3691 2734 3919 
Q 2494 4147 2053 4147 
L 1259 4147 
z
M 628 4666 
L 2053 4666 
Q 2838 4666 3239 4311 
Q 3641 3956 3641 3272 
Q 3641 2581 3239 2228 
Q 2838 1875 2053 1875 
L 1259 1875 
L 1259 0 
L 628 0 
L 628 4666 
z
" transform="scale(0.015625)"/>
       <path id="DejaVuSans-72" d="M 2631 2963 
Q 2534 3019 2420 3045 
Q 2306 3072 2169 3072 
Q 1681 3072 1420 2755 
Q 1159 2438 1159 1844 
L 1159 0 
L 581 0 
L 581 3500 
L 1159 3500 
L 1159 2956 
Q 1341 3275 1631 3429 
Q 1922 3584 2338 3584 
Q 2397 3584 2469 3576 
Q 2541 3569 2628 3553 
L 2631 2963 
z
" transform="scale(0.015625)"/>
       <path id="DejaVuSans-6f" d="M 1959 3097 
Q 1497 3097 1228 2736 
Q 959 2375 959 1747 
Q 959 1119 1226 758 
Q 1494 397 1959 397 
Q 2419 397 2687 759 
Q 2956 1122 2956 1747 
Q 2956 2369 2687 2733 
Q 2419 3097 1959 3097 
z
M 1959 3584 
Q 2709 3584 3137 3096 
Q 3566 2609 3566 1747 
Q 3566 888 3137 398 
Q 2709 -91 1959 -91 
Q 1206 -91 779 398 
Q 353 888 353 1747 
Q 353 2609 779 3096 
Q 1206 3584 1959 3584 
z
" transform="scale(0.015625)"/>
       <path id="DejaVuSans-62" d="M 3116 1747 
Q 3116 2381 2855 2742 
Q 2594 3103 2138 3103 
Q 1681 3103 1420 2742 
Q 1159 2381 1159 1747 
Q 1159 1113 1420 752 
Q 1681 391 2138 391 
Q 2594 391 2855 752 
Q 3116 1113 3116 1747 
z
M 1159 2969 
Q 1341 3281 1617 3432 
Q 1894 3584 2278 3584 
Q 2916 3584 3314 3078 
Q 3713 2572 3713 1747 
Q 3713 922 3314 415 
Q 2916 -91 2278 -91 
Q 1894 -91 1617 61 
Q 1341 213 1159 525 
L 1159 0 
L 581 0 
L 581 4863 
L 1159 4863 
L 1159 2969 
z
" transform="scale(0.015625)"/>
       <path id="DejaVuSans-61" d="M 2194 1759 
Q 1497 1759 1228 1600 
Q 959 1441 959 1056 
Q 959 750 1161 570 
Q 1363 391 1709 391 
Q 2188 391 2477 730 
Q 2766 1069 2766 1631 
L 2766 1759 
L 2194 1759 
z
M 3341 1997 
L 3341 0 
L 2766 0 
L 2766 531 
Q 2569 213 2275 61 
Q 1981 -91 1556 -91 
Q 1019 -91 701 211 
Q 384 513 384 1019 
Q 384 1609 779 1909 
Q 1175 2209 1959 2209 
L 2766 2209 
L 2766 2266 
Q 2766 2663 2505 2880 
Q 2244 3097 1772 3097 
Q 1472 3097 1187 3025 
Q 903 2953 641 2809 
L 641 3341 
Q 956 3463 1253 3523 
Q 1550 3584 1831 3584 
Q 2591 3584 2966 3190 
Q 3341 2797 3341 1997 
z
" transform="scale(0.015625)"/>
       <path id="DejaVuSans-69" d="M 603 3500 
L 1178 3500 
L 1178 0 
L 603 0 
L 603 3500 
z
M 603 4863 
L 1178 4863 
L 1178 4134 
L 603 4134 
L 603 4863 
z
" transform="scale(0.015625)"/>
       <path id="DejaVuSans-6c" d="M 603 4863 
L 1178 4863 
L 1178 0 
L 603 0 
L 603 4863 
z
" transform="scale(0.015625)"/>
       <path id="DejaVuSans-74" d="M 1172 4494 
L 1172 3500 
L 2356 3500 
L 2356 3053 
L 1172 3053 
L 1172 1153 
Q 1172 725 1289 603 
Q 1406 481 1766 481 
L 2356 481 
L 2356 0 
L 1766 0 
Q 1100 0 847 248 
Q 594 497 594 1153 
L 594 3053 
L 172 3053 
L 172 3500 
L 594 3500 
L 594 4494 
L 1172 4494 
z
" transform="scale(0.015625)"/>
       <path id="DejaVuSans-79" d="M 2059 -325 
Q 1816 -950 1584 -1140 
Q 1353 -1331 966 -1331 
L 506 -1331 
L 506 -850 
L 844 -850 
Q 1081 -850 1212 -737 
Q 1344 -625 1503 -206 
L 1606 56 
L 191 3500 
L 800 3500 
L 1894 763 
L 2988 3500 
L 3597 3500 
L 2059 -325 
z
" transform="scale(0.015625)"/>
       <path id="DejaVuSans-20" transform="scale(0.015625)"/>
       <path id="DejaVuSans-66" d="M 2375 4863 
L 2375 4384 
L 1825 4384 
Q 1516 4384 1395 4259 
Q 1275 4134 1275 3809 
L 1275 3500 
L 2222 3500 
L 2222 3053 
L 1275 3053 
L 1275 0 
L 697 0 
L 697 3053 
L 147 3053 
L 147 3500 
L 697 3500 
L 697 3744 
Q 697 4328 969 4595 
Q 1241 4863 1831 4863 
L 2375 4863 
z
" transform="scale(0.015625)"/>
       <path id="DejaVuSans-73" d="M 2834 3397 
L 2834 2853 
Q 2591 2978 2328 3040 
Q 2066 3103 1784 3103 
Q 1356 3103 1142 2972 
Q 928 2841 928 2578 
Q 928 2378 1081 2264 
Q 1234 2150 1697 2047 
L 1894 2003 
Q 2506 1872 2764 1633 
Q 3022 1394 3022 966 
Q 3022 478 2636 193 
Q 2250 -91 1575 -91 
Q 1294 -91 989 -36 
Q 684 19 347 128 
L 347 722 
Q 666 556 975 473 
Q 1284 391 1588 391 
Q 1994 391 2212 530 
Q 2431 669 2431 922 
Q 2431 1156 2273 1281 
Q 2116 1406 1581 1522 
L 1381 1569 
Q 847 1681 609 1914 
Q 372 2147 372 2553 
Q 372 3047 722 3315 
Q 1072 3584 1716 3584 
Q 2034 3584 2315 3537 
Q 2597 3491 2834 3397 
z
" transform="scale(0.015625)"/>
       <path id="DejaVuSans-65" d="M 3597 1894 
L 3597 1613 
L 953 1613 
Q 991 1019 1311 708 
Q 1631 397 2203 397 
Q 2534 397 2845 478 
Q 3156 559 3463 722 
L 3463 178 
Q 3153 47 2828 -22 
Q 2503 -91 2169 -91 
Q 1331 -91 842 396 
Q 353 884 353 1716 
Q 353 2575 817 3079 
Q 1281 3584 2069 3584 
Q 2775 3584 3186 3129 
Q 3597 2675 3597 1894 
z
M 3022 2063 
Q 3016 2534 2758 2815 
Q 2500 3097 2075 3097 
Q 1594 3097 1305 2825 
Q 1016 2553 972 2059 
L 3022 2063 
z
" transform="scale(0.015625)"/>
       <path id="DejaVuSans-6d" d="M 3328 2828 
Q 3544 3216 3844 3400 
Q 4144 3584 4550 3584 
Q 5097 3584 5394 3201 
Q 5691 2819 5691 2113 
L 5691 0 
L 5113 0 
L 5113 2094 
Q 5113 2597 4934 2840 
Q 4756 3084 4391 3084 
Q 3944 3084 3684 2787 
Q 3425 2491 3425 1978 
L 3425 0 
L 2847 0 
L 2847 2094 
Q 2847 2600 2669 2842 
Q 2491 3084 2119 3084 
Q 1678 3084 1418 2786 
Q 1159 2488 1159 1978 
L 1159 0 
L 581 0 
L 581 3500 
L 1159 3500 
L 1159 2956 
Q 1356 3278 1631 3431 
Q 1906 3584 2284 3584 
Q 2666 3584 2933 3390 
Q 3200 3197 3328 2828 
z
" transform="scale(0.015625)"/>
       <path id="DejaVuSans-2c" d="M 750 794 
L 1409 794 
L 1409 256 
L 897 -744 
L 494 -744 
L 750 256 
L 750 794 
z
" transform="scale(0.015625)"/>
       <path id="DejaVuSans-Oblique-50" d="M 1081 4666 
L 2541 4666 
Q 3178 4666 3512 4369 
Q 3847 4072 3847 3500 
Q 3847 2731 3353 2303 
Q 2859 1875 1966 1875 
L 1172 1875 
L 806 0 
L 172 0 
L 1081 4666 
z
M 1613 4147 
L 1275 2394 
L 2069 2394 
Q 2606 2394 2893 2669 
Q 3181 2944 3181 3456 
Q 3181 3784 2986 3965 
Q 2791 4147 2438 4147 
L 1613 4147 
z
" transform="scale(0.015625)"/>
       <path id="DejaVuSans-Oblique-66" d="M 3059 4863 
L 2969 4384 
L 2419 4384 
Q 2106 4384 1964 4261 
Q 1822 4138 1753 3809 
L 1691 3500 
L 2638 3500 
L 2553 3053 
L 1606 3053 
L 1013 0 
L 434 0 
L 1031 3053 
L 481 3053 
L 563 3500 
L 1113 3500 
L 1159 3744 
Q 1278 4363 1576 4613 
Q 1875 4863 2516 4863 
L 3059 4863 
z
" transform="scale(0.015625)"/>
       <path id="DejaVuSans-Oblique-61" d="M 3438 1997 
L 3047 0 
L 2472 0 
L 2578 531 
Q 2325 219 2001 64 
Q 1678 -91 1281 -91 
Q 834 -91 548 182 
Q 263 456 263 884 
Q 263 1497 752 1853 
Q 1241 2209 2100 2209 
L 2900 2209 
L 2931 2363 
Q 2938 2388 2941 2417 
Q 2944 2447 2944 2509 
Q 2944 2788 2717 2942 
Q 2491 3097 2081 3097 
Q 1800 3097 1504 3025 
Q 1209 2953 897 2809 
L 997 3341 
Q 1322 3463 1633 3523 
Q 1944 3584 2234 3584 
Q 2853 3584 3176 3315 
Q 3500 3047 3500 2534 
Q 3500 2431 3484 2292 
Q 3469 2153 3438 1997 
z
M 2816 1759 
L 2241 1759 
Q 1534 1759 1195 1570 
Q 856 1381 856 984 
Q 856 709 1029 553 
Q 1203 397 1509 397 
Q 1978 397 2328 733 
Q 2678 1069 2791 1631 
L 2816 1759 
z
" transform="scale(0.015625)"/>
      </defs>
      <use xlink:href="#DejaVuSans-50" transform="translate(0 0.015625)"/>
      <use xlink:href="#DejaVuSans-72" transform="translate(60.302734 0.015625)"/>
      <use xlink:href="#DejaVuSans-6f" transform="translate(101.416016 0.015625)"/>
      <use xlink:href="#DejaVuSans-62" transform="translate(162.597656 0.015625)"/>
      <use xlink:href="#DejaVuSans-61" transform="translate(226.074219 0.015625)"/>
      <use xlink:href="#DejaVuSans-62" transform="translate(287.353516 0.015625)"/>
      <use xlink:href="#DejaVuSans-69" transform="translate(350.830078 0.015625)"/>
      <use xlink:href="#DejaVuSans-6c" transform="translate(378.613281 0.015625)"/>
      <use xlink:href="#DejaVuSans-69" transform="translate(406.396484 0.015625)"/>
      <use xlink:href="#DejaVuSans-74" transform="translate(434.179688 0.015625)"/>
      <use xlink:href="#DejaVuSans-79" transform="translate(473.388672 0.015625)"/>
      <use xlink:href="#DejaVuSans-20" transform="translate(532.568359 0.015625)"/>
      <use xlink:href="#DejaVuSans-6f" transform="translate(564.355469 0.015625)"/>
      <use xlink:href="#DejaVuSans-66" transform="translate(625.537109 0.015625)"/>
      <use xlink:href="#DejaVuSans-20" transform="translate(660.742188 0.015625)"/>
      <use xlink:href="#DejaVuSans-66" transform="translate(692.529297 0.015625)"/>
      <use xlink:href="#DejaVuSans-61" transform="translate(727.734375 0.015625)"/>
      <use xlink:href="#DejaVuSans-6c" transform="translate(789.013672 0.015625)"/>
      <use xlink:href="#DejaVuSans-73" transform="translate(816.796875 0.015625)"/>
      <use xlink:href="#DejaVuSans-65" transform="translate(868.896484 0.015625)"/>
      <use xlink:href="#DejaVuSans-20" transform="translate(930.419922 0.015625)"/>
      <use xlink:href="#DejaVuSans-61" transform="translate(962.207031 0.015625)"/>
      <use xlink:href="#DejaVuSans-6c" transform="translate(1023.486328 0.015625)"/>
      <use xlink:href="#DejaVuSans-61" transform="translate(1051.269531 0.015625)"/>
      <use xlink:href="#DejaVuSans-72" transform="translate(1112.548828 0.015625)"/>
      <use xlink:href="#DejaVuSans-6d" transform="translate(1153.662109 0.015625)"/>
      <use xlink:href="#DejaVuSans-2c" transform="translate(1251.074219 0.015625)"/>
      <use xlink:href="#DejaVuSans-20" transform="translate(1282.861328 0.015625)"/>
      <use xlink:href="#DejaVuSans-Oblique-50" transform="translate(1314.648438 0.015625)"/>
      <use xlink:href="#DejaVuSans-Oblique-66" transform="translate(1374.951172 -16.390625) scale(0.7)"/>
      <use xlink:href="#DejaVuSans-Oblique-61" transform="translate(1399.594727 -16.390625) scale(0.7)"/>
     </g>
    </g>
   </g>
   <g id="matplotlib.axis_2">
    <g id="ytick_1">
     <g id="line2d_17">
      <path d="M 43.803125 240.053523 
L 568.8 240.053523 
" clip-path="url(#p198cb3c88c)" style="fill: none; stroke-dasharray: 2.96,1.28; stroke-dashoffset: 0; stroke: #b0b0b0; stroke-opacity: 0.8; stroke-width: 0.8"/>
     </g>
     <g id="line2d_18">
      <defs>
       <path id="mfd002cdf8a" d="M 0 0 
L -3.5 0 
" style="stroke: #000000; stroke-width: 0.8"/>
      </defs>
      <g>
       <use xlink:href="#mfd002cdf8a" x="43.803125" y="240.053523" style="stroke: #000000; stroke-width: 0.8"/>
      </g>
     </g>
     <g id="text_10">
      <!-- 0.0 -->
      <g transform="translate(20.9 243.852741) scale(0.1 -0.1)">
       <defs>
        <path id="DejaVuSans-2e" d="M 684 794 
L 1344 794 
L 1344 0 
L 684 0 
L 684 794 
z
" transform="scale(0.015625)"/>
       </defs>
       <use xlink:href="#DejaVuSans-30"/>
       <use xlink:href="#DejaVuSans-2e" transform="translate(63.623047 0)"/>
       <use xlink:href="#DejaVuSans-30" transform="translate(95.410156 0)"/>
      </g>
     </g>
    </g>
    <g id="ytick_2">
     <g id="line2d_19">
      <path d="M 43.803125 198.580114 
L 568.8 198.580114 
" clip-path="url(#p198cb3c88c)" style="fill: none; stroke-dasharray: 2.96,1.28; stroke-dashoffset: 0; stroke: #b0b0b0; stroke-opacity: 0.8; stroke-width: 0.8"/>
     </g>
     <g id="line2d_20">
      <g>
       <use xlink:href="#mfd002cdf8a" x="43.803125" y="198.580114" style="stroke: #000000; stroke-width: 0.8"/>
      </g>
     </g>
     <g id="text_11">
      <!-- 0.2 -->
      <g transform="translate(20.9 202.379332) scale(0.1 -0.1)">
       <use xlink:href="#DejaVuSans-30"/>
       <use xlink:href="#DejaVuSans-2e" transform="translate(63.623047 0)"/>
       <use xlink:href="#DejaVuSans-32" transform="translate(95.410156 0)"/>
      </g>
     </g>
    </g>
    <g id="ytick_3">
     <g id="line2d_21">
      <path d="M 43.803125 157.106705 
L 568.8 157.106705 
" clip-path="url(#p198cb3c88c)" style="fill: none; stroke-dasharray: 2.96,1.28; stroke-dashoffset: 0; stroke: #b0b0b0; stroke-opacity: 0.8; stroke-width: 0.8"/>
     </g>
     <g id="line2d_22">
      <g>
       <use xlink:href="#mfd002cdf8a" x="43.803125" y="157.106705" style="stroke: #000000; stroke-width: 0.8"/>
      </g>
     </g>
     <g id="text_12">
      <!-- 0.4 -->
      <g transform="translate(20.9 160.905923) scale(0.1 -0.1)">
       <use xlink:href="#DejaVuSans-30"/>
       <use xlink:href="#DejaVuSans-2e" transform="translate(63.623047 0)"/>
       <use xlink:href="#DejaVuSans-34" transform="translate(95.410156 0)"/>
      </g>
     </g>
    </g>
    <g id="ytick_4">
     <g id="line2d_23">
      <path d="M 43.803125 115.633295 
L 568.8 115.633295 
" clip-path="url(#p198cb3c88c)" style="fill: none; stroke-dasharray: 2.96,1.28; stroke-dashoffset: 0; stroke: #b0b0b0; stroke-opacity: 0.8; stroke-width: 0.8"/>
     </g>
     <g id="line2d_24">
      <g>
       <use xlink:href="#mfd002cdf8a" x="43.803125" y="115.633295" style="stroke: #000000; stroke-width: 0.8"/>
      </g>
     </g>
     <g id="text_13">
      <!-- 0.6 -->
      <g transform="translate(20.9 119.432514) scale(0.1 -0.1)">
       <use xlink:href="#DejaVuSans-30"/>
       <use xlink:href="#DejaVuSans-2e" transform="translate(63.623047 0)"/>
       <use xlink:href="#DejaVuSans-36" transform="translate(95.410156 0)"/>
      </g>
     </g>
    </g>
    <g id="ytick_5">
     <g id="line2d_25">
      <path d="M 43.803125 74.159886 
L 568.8 74.159886 
" clip-path="url(#p198cb3c88c)" style="fill: none; stroke-dasharray: 2.96,1.28; stroke-dashoffset: 0; stroke: #b0b0b0; stroke-opacity: 0.8; stroke-width: 0.8"/>
     </g>
     <g id="line2d_26">
      <g>
       <use xlink:href="#mfd002cdf8a" x="43.803125" y="74.159886" style="stroke: #000000; stroke-width: 0.8"/>
      </g>
     </g>
     <g id="text_14">
      <!-- 0.8 -->
      <g transform="translate(20.9 77.959105) scale(0.1 -0.1)">
       <use xlink:href="#DejaVuSans-30"/>
       <use xlink:href="#DejaVuSans-2e" transform="translate(63.623047 0)"/>
       <use xlink:href="#DejaVuSans-38" transform="translate(95.410156 0)"/>
      </g>
     </g>
    </g>
    <g id="ytick_6">
     <g id="line2d_27">
      <path d="M 43.803125 32.686477 
L 568.8 32.686477 
" clip-path="url(#p198cb3c88c)" style="fill: none; stroke-dasharray: 2.96,1.28; stroke-dashoffset: 0; stroke: #b0b0b0; stroke-opacity: 0.8; stroke-width: 0.8"/>
     </g>
     <g id="line2d_28">
      <g>
       <use xlink:href="#mfd002cdf8a" x="43.803125" y="32.686477" style="stroke: #000000; stroke-width: 0.8"/>
      </g>
     </g>
     <g id="text_15">
      <!-- 1.0 -->
      <g transform="translate(20.9 36.485696) scale(0.1 -0.1)">
       <use xlink:href="#DejaVuSans-31"/>
       <use xlink:href="#DejaVuSans-2e" transform="translate(63.623047 0)"/>
       <use xlink:href="#DejaVuSans-30" transform="translate(95.410156 0)"/>
      </g>
     </g>
    </g>
    <g id="text_16">
     <!-- Probability of detection, $P_d$ -->
     <g transform="translate(14.8 203.17) rotate(-90) scale(0.1 -0.1)">
      <defs>
       <path id="DejaVuSans-64" d="M 2906 2969 
L 2906 4863 
L 3481 4863 
L 3481 0 
L 2906 0 
L 2906 525 
Q 2725 213 2448 61 
Q 2172 -91 1784 -91 
Q 1150 -91 751 415 
Q 353 922 353 1747 
Q 353 2572 751 3078 
Q 1150 3584 1784 3584 
Q 2172 3584 2448 3432 
Q 2725 3281 2906 2969 
z
M 947 1747 
Q 947 1113 1208 752 
Q 1469 391 1925 391 
Q 2381 391 2643 752 
Q 2906 1113 2906 1747 
Q 2906 2381 2643 2742 
Q 2381 3103 1925 3103 
Q 1469 3103 1208 2742 
Q 947 2381 947 1747 
z
" transform="scale(0.015625)"/>
       <path id="DejaVuSans-63" d="M 3122 3366 
L 3122 2828 
Q 2878 2963 2633 3030 
Q 2388 3097 2138 3097 
Q 1578 3097 1268 2742 
Q 959 2388 959 1747 
Q 959 1106 1268 751 
Q 1578 397 2138 397 
Q 2388 397 2633 464 
Q 2878 531 3122 666 
L 3122 134 
Q 2881 22 2623 -34 
Q 2366 -91 2075 -91 
Q 1284 -91 818 406 
Q 353 903 353 1747 
Q 353 2603 823 3093 
Q 1294 3584 2113 3584 
Q 2378 3584 2631 3529 
Q 2884 3475 3122 3366 
z
" transform="scale(0.015625)"/>
       <path id="DejaVuSans-6e" d="M 3513 2113 
L 3513 0 
L 2938 0 
L 2938 2094 
Q 2938 2591 2744 2837 
Q 2550 3084 2163 3084 
Q 1697 3084 1428 2787 
Q 1159 2491 1159 1978 
L 1159 0 
L 581 0 
L 581 3500 
L 1159 3500 
L 1159 2956 
Q 1366 3272 1645 3428 
Q 1925 3584 2291 3584 
Q 2894 3584 3203 3211 
Q 3513 2838 3513 2113 
z
" transform="scale(0.015625)"/>
       <path id="DejaVuSans-Oblique-64" d="M 2675 525 
Q 2444 222 2128 65 
Q 1813 -91 1428 -91 
Q 903 -91 598 267 
Q 294 625 294 1247 
Q 294 1766 478 2236 
Q 663 2706 1013 3078 
Q 1244 3325 1534 3454 
Q 1825 3584 2144 3584 
Q 2481 3584 2739 3421 
Q 2997 3259 3138 2956 
L 3513 4863 
L 4091 4863 
L 3144 0 
L 2566 0 
L 2675 525 
z
M 891 1350 
Q 891 897 1095 644 
Q 1300 391 1663 391 
Q 1931 391 2161 520 
Q 2391 650 2566 903 
Q 2750 1166 2856 1509 
Q 2963 1853 2963 2188 
Q 2963 2622 2758 2865 
Q 2553 3109 2194 3109 
Q 1922 3109 1687 2981 
Q 1453 2853 1288 2613 
Q 1106 2353 998 2009 
Q 891 1666 891 1350 
z
" transform="scale(0.015625)"/>
      </defs>
      <use xlink:href="#DejaVuSans-50" transform="translate(0 0.015625)"/>
      <use xlink:href="#DejaVuSans-72" transform="translate(60.302734 0.015625)"/>
      <use xlink:href="#DejaVuSans-6f" transform="translate(101.416016 0.015625)"/>
      <use xlink:href="#DejaVuSans-62" transform="translate(162.597656 0.015625)"/>
      <use xlink:href="#DejaVuSans-61" transform="translate(226.074219 0.015625)"/>
      <use xlink:href="#DejaVuSans-62" transform="translate(287.353516 0.015625)"/>
      <use xlink:href="#DejaVuSans-69" transform="translate(350.830078 0.015625)"/>
      <use xlink:href="#DejaVuSans-6c" transform="translate(378.613281 0.015625)"/>
      <use xlink:href="#DejaVuSans-69" transform="translate(406.396484 0.015625)"/>
      <use xlink:href="#DejaVuSans-74" transform="translate(434.179688 0.015625)"/>
      <use xlink:href="#DejaVuSans-79" transform="translate(473.388672 0.015625)"/>
      <use xlink:href="#DejaVuSans-20" transform="translate(532.568359 0.015625)"/>
      <use xlink:href="#DejaVuSans-6f" transform="translate(564.355469 0.015625)"/>
      <use xlink:href="#DejaVuSans-66" transform="translate(625.537109 0.015625)"/>
      <use xlink:href="#DejaVuSans-20" transform="translate(660.742188 0.015625)"/>
      <use xlink:href="#DejaVuSans-64" transform="translate(692.529297 0.015625)"/>
      <use xlink:href="#DejaVuSans-65" transform="translate(756.005859 0.015625)"/>
      <use xlink:href="#DejaVuSans-74" transform="translate(817.529297 0.015625)"/>
      <use xlink:href="#DejaVuSans-65" transform="translate(856.738281 0.015625)"/>
      <use xlink:href="#DejaVuSans-63" transform="translate(918.261719 0.015625)"/>
      <use xlink:href="#DejaVuSans-74" transform="translate(973.242188 0.015625)"/>
      <use xlink:href="#DejaVuSans-69" transform="translate(1012.451172 0.015625)"/>
      <use xlink:href="#DejaVuSans-6f" transform="translate(1040.234375 0.015625)"/>
      <use xlink:href="#DejaVuSans-6e" transform="translate(1101.416016 0.015625)"/>
      <use xlink:href="#DejaVuSans-2c" transform="translate(1164.794922 0.015625)"/>
      <use xlink:href="#DejaVuSans-20" transform="translate(1196.582031 0.015625)"/>
      <use xlink:href="#DejaVuSans-Oblique-50" transform="translate(1228.369141 0.015625)"/>
      <use xlink:href="#DejaVuSans-Oblique-64" transform="translate(1288.671875 -16.390625) scale(0.7)"/>
     </g>
    </g>
   </g>
   <g id="line2d_29">
    <path d="M 67.666619 240.053523 
L 72.439318 240.053523 
L 77.212017 240.053523 
L 81.984716 240.053523 
L 86.757415 240.053523 
L 91.530114 240.053523 
L 96.302813 240.053523 
L 101.075511 240.053523 
L 105.84821 240.053523 
L 110.620909 240.053523 
L 115.393608 240.053523 
L 120.166307 240.053523 
L 124.939006 240.053523 
L 129.711705 240.053523 
L 134.484403 240.053523 
L 139.257102 240.053523 
L 144.029801 240.053523 
L 148.8025 240.053523 
L 153.575199 240.053523 
L 158.347898 240.053523 
L 163.120597 240.053523 
L 167.893295 240.053523 
L 172.665994 240.053523 
L 177.438693 240.053523 
L 182.211392 240.053523 
L 186.984091 240.053523 
L 191.75679 240.053523 
L 196.529489 240.053523 
L 201.302188 240.053523 
L 206.074886 240.053523 
L 210.847585 240.053522 
L 215.620284 240.053522 
L 220.392983 240.053522 
L 225.165682 240.053522 
L 229.938381 240.053522 
L 234.71108 240.053522 
L 239.483778 240.053521 
L 244.256477 240.053521 
L 249.029176 240.05352 
L 253.801875 240.053519 
L 258.574574 240.053518 
L 263.347273 240.053516 
L 268.119972 240.053513 
L 272.89267 240.05351 
L 277.665369 240.053505 
L 282.438068 240.053499 
L 287.210767 240.05349 
L 291.983466 240.053479 
L 296.756165 240.053463 
L 301.528864 240.053441 
L 306.301563 240.053412 
L 311.074261 240.053373 
L 315.84696 240.05332 
L 320.619659 240.053248 
L 325.392358 240.05315 
L 330.165057 240.053018 
L 334.937756 240.052839 
L 339.710455 240.052597 
L 344.483153 240.052271 
L 349.255852 240.051829 
L 354.028551 240.051233 
L 358.80125 240.050429 
L 363.573949 240.049344 
L 368.346648 240.04788 
L 373.119347 240.045908 
L 377.892045 240.043252 
L 382.664744 240.039675 
L 387.437443 240.034864 
L 392.210142 240.028393 
L 396.982841 240.019697 
L 401.75554 240.008019 
L 406.528239 239.992345 
L 411.300938 239.971323 
L 416.073636 239.943149 
L 420.846335 239.905417 
L 425.619034 239.854926 
L 430.391733 239.787415 
L 435.164432 239.697224 
L 439.937131 239.576844 
L 444.70983 239.416321 
L 449.482528 239.20248 
L 454.255227 238.917911 
L 459.027926 238.539637 
L 463.800625 238.037392 
L 468.573324 237.371368 
L 473.346023 236.48932 
L 478.118722 235.322809 
L 482.89142 233.782393 
L 487.664119 231.751462 
L 492.436818 229.07839 
L 497.209517 225.566606 
L 501.982216 220.962091 
L 506.754915 214.937784 
L 511.527614 207.074282 
L 516.300313 196.836228 
L 521.073011 183.543825 
L 525.84571 166.339048 
L 530.618409 144.146487 
L 535.391108 115.629413 
L 540.163807 79.142742 
L 544.936506 32.686477 
" clip-path="url(#p198cb3c88c)" style="fill: none; stroke: #1f77b4; stroke-linecap: square"/>
   </g>
   <g id="line2d_30">
    <path d="M 67.666619 240.053523 
L 72.439318 240.053523 
L 77.212017 240.053523 
L 81.984716 240.053523 
L 86.757415 240.053523 
L 91.530114 240.053523 
L 96.302813 240.053523 
L 101.075511 240.053523 
L 105.84821 240.053523 
L 110.620909 240.053523 
L 115.393608 240.053523 
L 120.166307 240.053523 
L 124.939006 240.053523 
L 129.711705 240.053523 
L 134.484403 240.053523 
L 139.257102 240.053523 
L 144.029801 240.053523 
L 148.8025 240.053523 
L 153.575199 240.053522 
L 158.347898 240.053522 
L 163.120597 240.053522 
L 167.893295 240.053522 
L 172.665994 240.053522 
L 177.438693 240.053522 
L 182.211392 240.053521 
L 186.984091 240.053521 
L 191.75679 240.05352 
L 196.529489 240.05352 
L 201.302188 240.053519 
L 206.074886 240.053517 
L 210.847585 240.053516 
L 215.620284 240.053513 
L 220.392983 240.05351 
L 225.165682 240.053506 
L 229.938381 240.053501 
L 234.71108 240.053494 
L 239.483778 240.053485 
L 244.256477 240.053472 
L 249.029176 240.053456 
L 253.801875 240.053435 
L 258.574574 240.053407 
L 263.347273 240.053371 
L 268.119972 240.053323 
L 272.89267 240.05326 
L 277.665369 240.053177 
L 282.438068 240.053068 
L 287.210767 240.052925 
L 291.983466 240.052739 
L 296.756165 240.052494 
L 301.528864 240.052174 
L 306.301563 240.051756 
L 311.074261 240.051209 
L 315.84696 240.050496 
L 320.619659 240.049565 
L 325.392358 240.048351 
L 330.165057 240.04677 
L 334.937756 240.044712 
L 339.710455 240.042036 
L 344.483153 240.038559 
L 349.255852 240.034046 
L 354.028551 240.028194 
L 358.80125 240.020612 
L 363.573949 240.010799 
L 368.346648 239.998112 
L 373.119347 239.981727 
L 377.892045 239.960591 
L 382.664744 239.933357 
L 387.437443 239.898309 
L 392.210142 239.853263 
L 396.982841 239.795445 
L 401.75554 239.721335 
L 406.528239 239.626482 
L 411.300938 239.505266 
L 416.073636 239.350605 
L 420.846335 239.153606 
L 425.619034 238.90312 
L 430.391733 238.585221 
L 435.164432 238.18256 
L 439.937131 237.673602 
L 444.70983 237.03171 
L 449.482528 236.224068 
L 454.255227 235.210431 
L 459.027926 233.941675 
L 463.800625 232.358169 
L 468.573324 230.38797 
L 473.346023 227.944875 
L 478.118722 224.926422 
L 482.89142 221.211938 
L 487.664119 216.660858 
L 492.436818 211.111588 
L 497.209517 204.381355 
L 501.982216 196.267666 
L 506.754915 186.55223 
L 511.527614 175.008545 
L 516.300313 161.414738 
L 521.073011 145.573813 
L 525.84571 127.344113 
L 530.618409 106.683609 
L 535.391108 83.712676 
L 540.163807 58.801108 
L 544.936506 32.686477 
" clip-path="url(#p198cb3c88c)" style="fill: none; stroke: #ff7f0e; stroke-linecap: square"/>
   </g>
   <g id="line2d_31">
    <path d="M 67.666619 240.053521 
L 72.439318 240.053521 
L 77.212017 240.053521 
L 81.984716 240.05352 
L 86.757415 240.053519 
L 91.530114 240.053518 
L 96.302813 240.053517 
L 101.075511 240.053516 
L 105.84821 240.053514 
L 110.620909 240.053511 
L 115.393608 240.053508 
L 120.166307 240.053504 
L 124.939006 240.053499 
L 129.711705 240.053493 
L 134.484403 240.053484 
L 139.257102 240.053474 
L 144.029801 240.053461 
L 148.8025 240.053445 
L 153.575199 240.053424 
L 158.347898 240.053398 
L 163.120597 240.053365 
L 167.893295 240.053323 
L 172.665994 240.05327 
L 177.438693 240.053204 
L 182.211392 240.053121 
L 186.984091 240.053016 
L 191.75679 240.052885 
L 196.529489 240.05272 
L 201.302188 240.052513 
L 206.074886 240.052254 
L 210.847585 240.051929 
L 215.620284 240.051523 
L 220.392983 240.051015 
L 225.165682 240.050381 
L 229.938381 240.04959 
L 234.71108 240.048603 
L 239.483778 240.047373 
L 244.256477 240.045844 
L 249.029176 240.043942 
L 253.801875 240.04158 
L 258.574574 240.038649 
L 263.347273 240.035016 
L 268.119972 240.030518 
L 272.89267 240.024955 
L 277.665369 240.018083 
L 282.438068 240.009602 
L 287.210767 239.99915 
L 291.983466 239.986283 
L 296.756165 239.970462 
L 301.528864 239.951036 
L 306.301563 239.927213 
L 311.074261 239.898038 
L 315.84696 239.86236 
L 320.619659 239.81879 
L 325.392358 239.765661 
L 330.165057 239.700977 
L 334.937756 239.622348 
L 339.710455 239.526923 
L 344.483153 239.41131 
L 349.255852 239.271482 
L 354.028551 239.102673 
L 358.80125 238.899255 
L 363.573949 238.654611 
L 368.346648 238.360975 
L 373.119347 238.009275 
L 377.892045 237.588946 
L 382.664744 237.087732 
L 387.437443 236.49148 
L 392.210142 235.783915 
L 396.982841 234.94642 
L 401.75554 233.957803 
L 406.528239 232.794091 
L 411.300938 231.428327 
L 416.073636 229.83042 
L 420.846335 227.967039 
L 425.619034 225.801594 
L 430.391733 223.294314 
L 435.164432 220.402479 
L 439.937131 217.080819 
L 444.70983 213.282142 
L 449.482528 208.958241 
L 454.255227 204.061108 
L 459.027926 198.544545 
L 463.800625 192.366198 
L 468.573324 185.49006 
L 473.346023 177.889495 
L 478.118722 169.550778 
L 482.89142 160.477139 
L 487.664119 150.693247 
L 492.436818 140.25001 
L 497.209517 129.229492 
L 501.982216 117.749632 
L 506.754915 105.968344 
L 511.527614 94.086419 
L 516.300313 82.348483 
L 521.073011 71.041077 
L 525.84571 60.486752 
L 530.618409 51.032879 
L 535.391108 43.033782 
L 540.163807 36.824729 
L 544.936506 32.686477 
" clip-path="url(#p198cb3c88c)" style="fill: none; stroke: #2ca02c; stroke-linecap: square"/>
   </g>
   <g id="line2d_32">
    <path d="M 67.666619 240.035772 
L 72.439318 240.032555 
L 77.212017 240.028776 
L 81.984716 240.024341 
L 86.757415 240.019139 
L 91.530114 240.013046 
L 96.302813 240.005914 
L 101.075511 239.997575 
L 105.84821 239.987834 
L 110.620909 239.976468 
L 115.393608 239.963218 
L 120.166307 239.947788 
L 124.939006 239.929841 
L 129.711705 239.908986 
L 134.484403 239.884779 
L 139.257102 239.856715 
L 144.029801 239.824214 
L 148.8025 239.786619 
L 153.575199 239.743184 
L 158.347898 239.693061 
L 163.120597 239.635291 
L 167.893295 239.56879 
L 172.665994 239.492337 
L 177.438693 239.404556 
L 182.211392 239.303901 
L 186.984091 239.188639 
L 191.75679 239.056832 
L 196.529489 238.906316 
L 201.302188 238.734679 
L 206.074886 238.539245 
L 210.847585 238.317043 
L 215.620284 238.064791 
L 220.392983 237.778869 
L 225.165682 237.455297 
L 229.938381 237.089709 
L 234.71108 236.677334 
L 239.483778 236.212971 
L 244.256477 235.690971 
L 249.029176 235.105221 
L 253.801875 234.449128 
L 258.574574 233.71561 
L 263.347273 232.897091 
L 268.119972 231.985504 
L 272.89267 230.972298 
L 277.665369 229.848458 
L 282.438068 228.604528 
L 287.210767 227.230655 
L 291.983466 225.716637 
L 296.756165 224.051988 
L 301.528864 222.22602 
L 306.301563 220.22794 
L 311.074261 218.046962 
L 315.84696 215.672443 
L 320.619659 213.094034 
L 325.392358 210.301851 
L 330.165057 207.286666 
L 334.937756 204.040114 
L 339.710455 200.554923 
L 344.483153 196.82515 
L 349.255852 192.846438 
L 354.028551 188.616277 
L 358.80125 184.13427 
L 363.573949 179.402396 
L 368.346648 174.425269 
L 373.119347 169.21038 
L 377.892045 163.768309 
L 382.664744 158.112917 
L 387.437443 152.261482 
L 392.210142 146.23479 
L 396.982841 140.05716 
L 401.75554 133.756393 
L 406.528239 127.363642 
L 411.300938 120.913185 
L 416.073636 114.442102 
L 420.846335 107.989851 
L 425.619034 101.597731 
L 430.391733 95.308246 
L 435.164432 89.164375 
L 439.937131 83.208748 
L 444.70983 77.482752 
L 449.482528 72.025587 
L 454.255227 66.873302 
L 459.027926 62.057829 
L 463.800625 57.606063 
L 468.573324 53.539032 
L 473.346023 49.871177 
L 478.118722 46.609811 
L 482.89142 43.754778 
L 487.664119 41.298357 
L 492.436818 39.225435 
L 497.209517 37.513974 
L 501.982216 36.135766 
L 506.754915 35.057481 
L 511.527614 34.241954 
L 516.300313 33.649688 
L 521.073011 33.240484 
L 525.84571 32.975118 
L 530.618409 32.816953 
L 535.391108 32.733395 
L 540.163807 32.697045 
L 544.936506 32.686477 
" clip-path="url(#p198cb3c88c)" style="fill: none; stroke: #d62728; stroke-linecap: square"/>
   </g>
   <g id="line2d_33">
    <path d="M 67.666619 160.578229 
L 72.439318 157.248269 
L 77.212017 153.86539 
L 81.984716 150.434463 
L 86.757415 146.960682 
L 91.530114 143.449542 
L 96.302813 139.906822 
L 101.075511 136.338559 
L 105.84821 132.751029 
L 110.620909 129.150714 
L 115.393608 125.544276 
L 120.166307 121.938519 
L 124.939006 118.340359 
L 129.711705 114.756782 
L 134.484403 111.19481 
L 139.257102 107.661459 
L 144.029801 104.163695 
L 148.8025 100.708394 
L 153.575199 97.302303 
L 158.347898 93.951991 
L 163.120597 90.663812 
L 167.893295 87.443862 
L 172.665994 84.297942 
L 177.438693 81.231517 
L 182.211392 78.249682 
L 186.984091 75.357131 
L 191.75679 72.558123 
L 196.529489 69.856462 
L 201.302188 67.255468 
L 206.074886 64.757964 
L 210.847585 62.366258 
L 215.620284 60.082137 
L 220.392983 57.906858 
L 225.165682 55.841152 
L 229.938381 53.885227 
L 234.71108 52.038776 
L 239.483778 50.300994 
L 244.256477 48.670595 
L 249.029176 47.145832 
L 253.801875 45.724531 
L 258.574574 44.404112 
L 263.347273 43.18163 
L 268.119972 42.053806 
L 272.89267 41.01707 
L 277.665369 40.067595 
L 282.438068 39.201345 
L 287.210767 38.414111 
L 291.983466 37.701556 
L 296.756165 37.059256 
L 301.528864 36.48274 
L 306.301563 35.967528 
L 311.074261 35.509172 
L 315.84696 35.103284 
L 320.619659 34.745573 
L 325.392358 34.431872 
L 330.165057 34.158164 
L 334.937756 33.920602 
L 339.710455 33.715531 
L 344.483153 33.5395 
L 349.255852 33.389274 
L 354.028551 33.261839 
L 358.80125 33.154413 
L 363.573949 33.06444 
L 368.346648 32.98959 
L 373.119347 32.927756 
L 377.892045 32.877046 
L 382.664744 32.835775 
L 387.437443 32.80245 
L 392.210142 32.775764 
L 396.982841 32.754579 
L 401.75554 32.737913 
L 406.528239 32.724926 
L 411.300938 32.714907 
L 416.073636 32.707258 
L 420.846335 32.701484 
L 425.619034 32.697175 
L 430.391733 32.694 
L 435.164432 32.691691 
L 439.937131 32.690034 
L 444.70983 32.688864 
L 449.482528 32.688051 
L 454.255227 32.687495 
L 459.027926 32.687122 
L 463.800625 32.686876 
L 468.573324 32.686718 
L 473.346023 32.686619 
L 478.118722 32.686558 
L 482.89142 32.686522 
L 487.664119 32.686501 
L 492.436818 32.686489 
L 497.209517 32.686483 
L 501.982216 32.68648 
L 506.754915 32.686478 
L 511.527614 32.686478 
L 516.300313 32.686477 
L 521.073011 32.686477 
L 525.84571 32.686477 
L 530.618409 32.686477 
L 535.391108 32.686477 
L 540.163807 32.686477 
L 544.936506 32.686477 
" clip-path="url(#p198cb3c88c)" style="fill: none; stroke: #9467bd; stroke-linecap: square"/>
   </g>
   <g id="line2d_34">
    <path d="M 67.666619 32.686478 
L 72.439318 32.686478 
L 77.212017 32.686478 
L 81.984716 32.686477 
L 86.757415 32.686477 
L 91.530114 32.686477 
L 96.302813 32.686477 
L 101.075511 32.686477 
L 105.84821 32.686477 
L 110.620909 32.686477 
L 115.393608 32.686477 
L 120.166307 32.686477 
L 124.939006 32.686477 
L 129.711705 32.686477 
L 134.484403 32.686477 
L 139.257102 32.686477 
L 144.029801 32.686477 
L 148.8025 32.686477 
L 153.575199 32.686477 
L 158.347898 32.686477 
L 163.120597 32.686477 
L 167.893295 32.686477 
L 172.665994 32.686477 
L 177.438693 32.686477 
L 182.211392 32.686477 
L 186.984091 32.686477 
L 191.75679 32.686477 
L 196.529489 32.686477 
L 201.302188 32.686477 
L 206.074886 32.686477 
L 210.847585 32.686477 
L 215.620284 32.686477 
L 220.392983 32.686477 
L 225.165682 32.686477 
L 229.938381 32.686477 
L 234.71108 32.686477 
L 239.483778 32.686477 
L 244.256477 32.686477 
L 249.029176 32.686477 
L 253.801875 32.686477 
L 258.574574 32.686477 
L 263.347273 32.686477 
L 268.119972 32.686477 
L 272.89267 32.686477 
L 277.665369 32.686477 
L 282.438068 32.686477 
L 287.210767 32.686477 
L 291.983466 32.686477 
L 296.756165 32.686477 
L 301.528864 32.686477 
L 306.301563 32.686477 
L 311.074261 32.686477 
L 315.84696 32.686477 
L 320.619659 32.686477 
L 325.392358 32.686477 
L 330.165057 32.686477 
L 334.937756 32.686477 
L 339.710455 32.686477 
L 344.483153 32.686477 
L 349.255852 32.686477 
L 354.028551 32.686477 
L 358.80125 32.686477 
L 363.573949 32.686477 
L 368.346648 32.686477 
L 373.119347 32.686477 
L 377.892045 32.686477 
L 382.664744 32.686477 
L 387.437443 32.686477 
L 392.210142 32.686477 
L 396.982841 32.686477 
L 401.75554 32.686477 
L 406.528239 32.686477 
L 411.300938 32.686477 
L 416.073636 32.686477 
L 420.846335 32.686477 
L 425.619034 32.686477 
L 430.391733 32.686477 
L 435.164432 32.686477 
L 439.937131 32.686477 
L 444.70983 32.686477 
L 449.482528 32.686477 
L 454.255227 32.686477 
L 459.027926 32.686477 
L 463.800625 32.686477 
L 468.573324 32.686477 
L 473.346023 32.686477 
L 478.118722 32.686477 
L 482.89142 32.686477 
L 487.664119 32.686477 
L 492.436818 32.686477 
L 497.209517 32.686477 
L 501.982216 32.686477 
L 506.754915 32.686477 
L 511.527614 32.686477 
L 516.300313 32.686477 
L 521.073011 32.686477 
L 525.84571 32.686477 
L 530.618409 32.686477 
L 535.391108 32.686477 
L 540.163807 32.686477 
L 544.936506 32.686477 
" clip-path="url(#p198cb3c88c)" style="fill: none; stroke: #8c564b; stroke-linecap: square"/>
   </g>
   <g id="patch_3">
    <path d="M 43.803125 250.421875 
L 43.803125 22.318125 
" style="fill: none; stroke: #000000; stroke-width: 0.8; stroke-linejoin: miter; stroke-linecap: square"/>
   </g>
   <g id="patch_4">
    <path d="M 568.8 250.421875 
L 568.8 22.318125 
" style="fill: none; stroke: #000000; stroke-width: 0.8; stroke-linejoin: miter; stroke-linecap: square"/>
   </g>
   <g id="patch_5">
    <path d="M 43.803125 250.421875 
L 568.8 250.421875 
" style="fill: none; stroke: #000000; stroke-width: 0.8; stroke-linejoin: miter; stroke-linecap: square"/>
   </g>
   <g id="patch_6">
    <path d="M 43.803125 22.318125 
L 568.8 22.318125 
" style="fill: none; stroke: #000000; stroke-width: 0.8; stroke-linejoin: miter; stroke-linecap: square"/>
   </g>
   <g id="text_17">
    <!-- Square-Law Detector: Receiver operating characteristic -->
    <g transform="translate(139.653438 16.318125) scale(0.12 -0.12)">
     <defs>
      <path id="DejaVuSans-53" d="M 3425 4513 
L 3425 3897 
Q 3066 4069 2747 4153 
Q 2428 4238 2131 4238 
Q 1616 4238 1336 4038 
Q 1056 3838 1056 3469 
Q 1056 3159 1242 3001 
Q 1428 2844 1947 2747 
L 2328 2669 
Q 3034 2534 3370 2195 
Q 3706 1856 3706 1288 
Q 3706 609 3251 259 
Q 2797 -91 1919 -91 
Q 1588 -91 1214 -16 
Q 841 59 441 206 
L 441 856 
Q 825 641 1194 531 
Q 1563 422 1919 422 
Q 2459 422 2753 634 
Q 3047 847 3047 1241 
Q 3047 1584 2836 1778 
Q 2625 1972 2144 2069 
L 1759 2144 
Q 1053 2284 737 2584 
Q 422 2884 422 3419 
Q 422 4038 858 4394 
Q 1294 4750 2059 4750 
Q 2388 4750 2728 4690 
Q 3069 4631 3425 4513 
z
" transform="scale(0.015625)"/>
      <path id="DejaVuSans-71" d="M 947 1747 
Q 947 1113 1208 752 
Q 1469 391 1925 391 
Q 2381 391 2643 752 
Q 2906 1113 2906 1747 
Q 2906 2381 2643 2742 
Q 2381 3103 1925 3103 
Q 1469 3103 1208 2742 
Q 947 2381 947 1747 
z
M 2906 525 
Q 2725 213 2448 61 
Q 2172 -91 1784 -91 
Q 1150 -91 751 415 
Q 353 922 353 1747 
Q 353 2572 751 3078 
Q 1150 3584 1784 3584 
Q 2172 3584 2448 3432 
Q 2725 3281 2906 2969 
L 2906 3500 
L 3481 3500 
L 3481 -1331 
L 2906 -1331 
L 2906 525 
z
" transform="scale(0.015625)"/>
      <path id="DejaVuSans-75" d="M 544 1381 
L 544 3500 
L 1119 3500 
L 1119 1403 
Q 1119 906 1312 657 
Q 1506 409 1894 409 
Q 2359 409 2629 706 
Q 2900 1003 2900 1516 
L 2900 3500 
L 3475 3500 
L 3475 0 
L 2900 0 
L 2900 538 
Q 2691 219 2414 64 
Q 2138 -91 1772 -91 
Q 1169 -91 856 284 
Q 544 659 544 1381 
z
M 1991 3584 
L 1991 3584 
z
" transform="scale(0.015625)"/>
      <path id="DejaVuSans-2d" d="M 313 2009 
L 1997 2009 
L 1997 1497 
L 313 1497 
L 313 2009 
z
" transform="scale(0.015625)"/>
      <path id="DejaVuSans-4c" d="M 628 4666 
L 1259 4666 
L 1259 531 
L 3531 531 
L 3531 0 
L 628 0 
L 628 4666 
z
" transform="scale(0.015625)"/>
      <path id="DejaVuSans-77" d="M 269 3500 
L 844 3500 
L 1563 769 
L 2278 3500 
L 2956 3500 
L 3675 769 
L 4391 3500 
L 4966 3500 
L 4050 0 
L 3372 0 
L 2619 2869 
L 1863 0 
L 1184 0 
L 269 3500 
z
" transform="scale(0.015625)"/>
      <path id="DejaVuSans-44" d="M 1259 4147 
L 1259 519 
L 2022 519 
Q 2988 519 3436 956 
Q 3884 1394 3884 2338 
Q 3884 3275 3436 3711 
Q 2988 4147 2022 4147 
L 1259 4147 
z
M 628 4666 
L 1925 4666 
Q 3281 4666 3915 4102 
Q 4550 3538 4550 2338 
Q 4550 1131 3912 565 
Q 3275 0 1925 0 
L 628 0 
L 628 4666 
z
" transform="scale(0.015625)"/>
      <path id="DejaVuSans-3a" d="M 750 794 
L 1409 794 
L 1409 0 
L 750 0 
L 750 794 
z
M 750 3309 
L 1409 3309 
L 1409 2516 
L 750 2516 
L 750 3309 
z
" transform="scale(0.015625)"/>
      <path id="DejaVuSans-52" d="M 2841 2188 
Q 3044 2119 3236 1894 
Q 3428 1669 3622 1275 
L 4263 0 
L 3584 0 
L 2988 1197 
Q 2756 1666 2539 1819 
Q 2322 1972 1947 1972 
L 1259 1972 
L 1259 0 
L 628 0 
L 628 4666 
L 2053 4666 
Q 2853 4666 3247 4331 
Q 3641 3997 3641 3322 
Q 3641 2881 3436 2590 
Q 3231 2300 2841 2188 
z
M 1259 4147 
L 1259 2491 
L 2053 2491 
Q 2509 2491 2742 2702 
Q 2975 2913 2975 3322 
Q 2975 3731 2742 3939 
Q 2509 4147 2053 4147 
L 1259 4147 
z
" transform="scale(0.015625)"/>
      <path id="DejaVuSans-76" d="M 191 3500 
L 800 3500 
L 1894 563 
L 2988 3500 
L 3597 3500 
L 2284 0 
L 1503 0 
L 191 3500 
z
" transform="scale(0.015625)"/>
      <path id="DejaVuSans-70" d="M 1159 525 
L 1159 -1331 
L 581 -1331 
L 581 3500 
L 1159 3500 
L 1159 2969 
Q 1341 3281 1617 3432 
Q 1894 3584 2278 3584 
Q 2916 3584 3314 3078 
Q 3713 2572 3713 1747 
Q 3713 922 3314 415 
Q 2916 -91 2278 -91 
Q 1894 -91 1617 61 
Q 1341 213 1159 525 
z
M 3116 1747 
Q 3116 2381 2855 2742 
Q 2594 3103 2138 3103 
Q 1681 3103 1420 2742 
Q 1159 2381 1159 1747 
Q 1159 1113 1420 752 
Q 1681 391 2138 391 
Q 2594 391 2855 752 
Q 3116 1113 3116 1747 
z
" transform="scale(0.015625)"/>
      <path id="DejaVuSans-67" d="M 2906 1791 
Q 2906 2416 2648 2759 
Q 2391 3103 1925 3103 
Q 1463 3103 1205 2759 
Q 947 2416 947 1791 
Q 947 1169 1205 825 
Q 1463 481 1925 481 
Q 2391 481 2648 825 
Q 2906 1169 2906 1791 
z
M 3481 434 
Q 3481 -459 3084 -895 
Q 2688 -1331 1869 -1331 
Q 1566 -1331 1297 -1286 
Q 1028 -1241 775 -1147 
L 775 -588 
Q 1028 -725 1275 -790 
Q 1522 -856 1778 -856 
Q 2344 -856 2625 -561 
Q 2906 -266 2906 331 
L 2906 616 
Q 2728 306 2450 153 
Q 2172 0 1784 0 
Q 1141 0 747 490 
Q 353 981 353 1791 
Q 353 2603 747 3093 
Q 1141 3584 1784 3584 
Q 2172 3584 2450 3431 
Q 2728 3278 2906 2969 
L 2906 3500 
L 3481 3500 
L 3481 434 
z
" transform="scale(0.015625)"/>
      <path id="DejaVuSans-68" d="M 3513 2113 
L 3513 0 
L 2938 0 
L 2938 2094 
Q 2938 2591 2744 2837 
Q 2550 3084 2163 3084 
Q 1697 3084 1428 2787 
Q 1159 2491 1159 1978 
L 1159 0 
L 581 0 
L 581 4863 
L 1159 4863 
L 1159 2956 
Q 1366 3272 1645 3428 
Q 1925 3584 2291 3584 
Q 2894 3584 3203 3211 
Q 3513 2838 3513 2113 
z
" transform="scale(0.015625)"/>
     </defs>
     <use xlink:href="#DejaVuSans-53"/>
     <use xlink:href="#DejaVuSans-71" transform="translate(63.476562 0)"/>
     <use xlink:href="#DejaVuSans-75" transform="translate(126.953125 0)"/>
     <use xlink:href="#DejaVuSans-61" transform="translate(190.332031 0)"/>
     <use xlink:href="#DejaVuSans-72" transform="translate(251.611328 0)"/>
     <use xlink:href="#DejaVuSans-65" transform="translate(290.474609 0)"/>
     <use xlink:href="#DejaVuSans-2d" transform="translate(351.998047 0)"/>
     <use xlink:href="#DejaVuSans-4c" transform="translate(388.082031 0)"/>
     <use xlink:href="#DejaVuSans-61" transform="translate(443.794922 0)"/>
     <use xlink:href="#DejaVuSans-77" transform="translate(505.074219 0)"/>
     <use xlink:href="#DejaVuSans-20" transform="translate(586.861328 0)"/>
     <use xlink:href="#DejaVuSans-44" transform="translate(618.648438 0)"/>
     <use xlink:href="#DejaVuSans-65" transform="translate(695.650391 0)"/>
     <use xlink:href="#DejaVuSans-74" transform="translate(757.173828 0)"/>
     <use xlink:href="#DejaVuSans-65" transform="translate(796.382812 0)"/>
     <use xlink:href="#DejaVuSans-63" transform="translate(857.90625 0)"/>
     <use xlink:href="#DejaVuSans-74" transform="translate(912.886719 0)"/>
     <use xlink:href="#DejaVuSans-6f" transform="translate(952.095703 0)"/>
     <use xlink:href="#DejaVuSans-72" transform="translate(1013.277344 0)"/>
     <use xlink:href="#DejaVuSans-3a" transform="translate(1052.640625 0)"/>
     <use xlink:href="#DejaVuSans-20" transform="translate(1086.332031 0)"/>
     <use xlink:href="#DejaVuSans-52" transform="translate(1118.119141 0)"/>
     <use xlink:href="#DejaVuSans-65" transform="translate(1183.101562 0)"/>
     <use xlink:href="#DejaVuSans-63" transform="translate(1244.625 0)"/>
     <use xlink:href="#DejaVuSans-65" transform="translate(1299.605469 0)"/>
     <use xlink:href="#DejaVuSans-69" transform="translate(1361.128906 0)"/>
     <use xlink:href="#DejaVuSans-76" transform="translate(1388.912109 0)"/>
     <use xlink:href="#DejaVuSans-65" transform="translate(1448.091797 0)"/>
     <use xlink:href="#DejaVuSans-72" transform="translate(1509.615234 0)"/>
     <use xlink:href="#DejaVuSans-20" transform="translate(1550.728516 0)"/>
     <use xlink:href="#DejaVuSans-6f" transform="translate(1582.515625 0)"/>
     <use xlink:href="#DejaVuSans-70" transform="translate(1643.697266 0)"/>
     <use xlink:href="#DejaVuSans-65" transform="translate(1707.173828 0)"/>
     <use xlink:href="#DejaVuSans-72" transform="translate(1768.697266 0)"/>
     <use xlink:href="#DejaVuSans-61" transform="translate(1809.810547 0)"/>
     <use xlink:href="#DejaVuSans-74" transform="translate(1871.089844 0)"/>
     <use xlink:href="#DejaVuSans-69" transform="translate(1910.298828 0)"/>
     <use xlink:href="#DejaVuSans-6e" transform="translate(1938.082031 0)"/>
     <use xlink:href="#DejaVuSans-67" transform="translate(2001.460938 0)"/>
     <use xlink:href="#DejaVuSans-20" transform="translate(2064.9375 0)"/>
     <use xlink:href="#DejaVuSans-63" transform="translate(2096.724609 0)"/>
     <use xlink:href="#DejaVuSans-68" transform="translate(2151.705078 0)"/>
     <use xlink:href="#DejaVuSans-61" transform="translate(2215.083984 0)"/>
     <use xlink:href="#DejaVuSans-72" transform="translate(2276.363281 0)"/>
     <use xlink:href="#DejaVuSans-61" transform="translate(2317.476562 0)"/>
     <use xlink:href="#DejaVuSans-63" transform="translate(2378.755859 0)"/>
     <use xlink:href="#DejaVuSans-74" transform="translate(2433.736328 0)"/>
     <use xlink:href="#DejaVuSans-65" transform="translate(2472.945312 0)"/>
     <use xlink:href="#DejaVuSans-72" transform="translate(2534.46875 0)"/>
     <use xlink:href="#DejaVuSans-69" transform="translate(2575.582031 0)"/>
     <use xlink:href="#DejaVuSans-73" transform="translate(2603.365234 0)"/>
     <use xlink:href="#DejaVuSans-74" transform="translate(2655.464844 0)"/>
     <use xlink:href="#DejaVuSans-69" transform="translate(2694.673828 0)"/>
     <use xlink:href="#DejaVuSans-63" transform="translate(2722.457031 0)"/>
    </g>
   </g>
   <g id="legend_1">
    <g id="patch_7">
     <path d="M 275.745313 189.243438 
L 336.857813 189.243438 
Q 338.857813 189.243438 338.857813 187.243438 
L 338.857813 85.496563 
Q 338.857813 83.496563 336.857813 83.496563 
L 275.745313 83.496563 
Q 273.745313 83.496563 273.745313 85.496563 
L 273.745313 187.243438 
Q 273.745313 189.243438 275.745313 189.243438 
z
" style="fill: #ffffff; opacity: 0.8; stroke: #cccccc; stroke-linejoin: miter"/>
    </g>
    <g id="text_18">
     <!-- SNR -->
     <g transform="translate(295.9125 95.095) scale(0.1 -0.1)">
      <defs>
       <path id="DejaVuSans-4e" d="M 628 4666 
L 1478 4666 
L 3547 763 
L 3547 4666 
L 4159 4666 
L 4159 0 
L 3309 0 
L 1241 3903 
L 1241 0 
L 628 0 
L 628 4666 
z
" transform="scale(0.015625)"/>
      </defs>
      <use xlink:href="#DejaVuSans-53"/>
      <use xlink:href="#DejaVuSans-4e" transform="translate(63.476562 0)"/>
      <use xlink:href="#DejaVuSans-52" transform="translate(138.28125 0)"/>
     </g>
    </g>
    <g id="line2d_35">
     <path d="M 277.745313 106.273125 
L 287.745313 106.273125 
L 297.745313 106.273125 
" style="fill: none; stroke: #1f77b4; stroke-linecap: square"/>
    </g>
    <g id="text_19">
     <!-- -5 dB -->
     <g transform="translate(305.745313 109.773125) scale(0.1 -0.1)">
      <defs>
       <path id="DejaVuSans-35" d="M 691 4666 
L 3169 4666 
L 3169 4134 
L 1269 4134 
L 1269 2991 
Q 1406 3038 1543 3061 
Q 1681 3084 1819 3084 
Q 2600 3084 3056 2656 
Q 3513 2228 3513 1497 
Q 3513 744 3044 326 
Q 2575 -91 1722 -91 
Q 1428 -91 1123 -41 
Q 819 9 494 109 
L 494 744 
Q 775 591 1075 516 
Q 1375 441 1709 441 
Q 2250 441 2565 725 
Q 2881 1009 2881 1497 
Q 2881 1984 2565 2268 
Q 2250 2553 1709 2553 
Q 1456 2553 1204 2497 
Q 953 2441 691 2322 
L 691 4666 
z
" transform="scale(0.015625)"/>
       <path id="DejaVuSans-42" d="M 1259 2228 
L 1259 519 
L 2272 519 
Q 2781 519 3026 730 
Q 3272 941 3272 1375 
Q 3272 1813 3026 2020 
Q 2781 2228 2272 2228 
L 1259 2228 
z
M 1259 4147 
L 1259 2741 
L 2194 2741 
Q 2656 2741 2882 2914 
Q 3109 3088 3109 3444 
Q 3109 3797 2882 3972 
Q 2656 4147 2194 4147 
L 1259 4147 
z
M 628 4666 
L 2241 4666 
Q 2963 4666 3353 4366 
Q 3744 4066 3744 3513 
Q 3744 3084 3544 2831 
Q 3344 2578 2956 2516 
Q 3422 2416 3680 2098 
Q 3938 1781 3938 1306 
Q 3938 681 3513 340 
Q 3088 0 2303 0 
L 628 0 
L 628 4666 
z
" transform="scale(0.015625)"/>
      </defs>
      <use xlink:href="#DejaVuSans-2d"/>
      <use xlink:href="#DejaVuSans-35" transform="translate(36.083984 0)"/>
      <use xlink:href="#DejaVuSans-20" transform="translate(99.707031 0)"/>
      <use xlink:href="#DejaVuSans-64" transform="translate(131.494141 0)"/>
      <use xlink:href="#DejaVuSans-42" transform="translate(194.970703 0)"/>
     </g>
    </g>
    <g id="line2d_36">
     <path d="M 277.745313 120.95125 
L 287.745313 120.95125 
L 297.745313 120.95125 
" style="fill: none; stroke: #ff7f0e; stroke-linecap: square"/>
    </g>
    <g id="text_20">
     <!-- 0 dB -->
     <g transform="translate(305.745313 124.45125) scale(0.1 -0.1)">
      <use xlink:href="#DejaVuSans-30"/>
      <use xlink:href="#DejaVuSans-20" transform="translate(63.623047 0)"/>
      <use xlink:href="#DejaVuSans-64" transform="translate(95.410156 0)"/>
      <use xlink:href="#DejaVuSans-42" transform="translate(158.886719 0)"/>
     </g>
    </g>
    <g id="line2d_37">
     <path d="M 277.745313 135.629375 
L 287.745313 135.629375 
L 297.745313 135.629375 
" style="fill: none; stroke: #2ca02c; stroke-linecap: square"/>
    </g>
    <g id="text_21">
     <!-- 5 dB -->
     <g transform="translate(305.745313 139.129375) scale(0.1 -0.1)">
      <use xlink:href="#DejaVuSans-35"/>
      <use xlink:href="#DejaVuSans-20" transform="translate(63.623047 0)"/>
      <use xlink:href="#DejaVuSans-64" transform="translate(95.410156 0)"/>
      <use xlink:href="#DejaVuSans-42" transform="translate(158.886719 0)"/>
     </g>
    </g>
    <g id="line2d_38">
     <path d="M 277.745313 150.3075 
L 287.745313 150.3075 
L 297.745313 150.3075 
" style="fill: none; stroke: #d62728; stroke-linecap: square"/>
    </g>
    <g id="text_22">
     <!-- 10 dB -->
     <g transform="translate(305.745313 153.8075) scale(0.1 -0.1)">
      <use xlink:href="#DejaVuSans-31"/>
      <use xlink:href="#DejaVuSans-30" transform="translate(63.623047 0)"/>
      <use xlink:href="#DejaVuSans-20" transform="translate(127.246094 0)"/>
      <use xlink:href="#DejaVuSans-64" transform="translate(159.033203 0)"/>
      <use xlink:href="#DejaVuSans-42" transform="translate(222.509766 0)"/>
     </g>
    </g>
    <g id="line2d_39">
     <path d="M 277.745313 164.985625 
L 287.745313 164.985625 
L 297.745313 164.985625 
" style="fill: none; stroke: #9467bd; stroke-linecap: square"/>
    </g>
    <g id="text_23">
     <!-- 15 dB -->
     <g transform="translate(305.745313 168.485625) scale(0.1 -0.1)">
      <use xlink:href="#DejaVuSans-31"/>
      <use xlink:href="#DejaVuSans-35" transform="translate(63.623047 0)"/>
      <use xlink:href="#DejaVuSans-20" transform="translate(127.246094 0)"/>
      <use xlink:href="#DejaVuSans-64" transform="translate(159.033203 0)"/>
      <use xlink:href="#DejaVuSans-42" transform="translate(222.509766 0)"/>
     </g>
    </g>
    <g id="line2d_40">
     <path d="M 277.745313 179.66375 
L 287.745313 179.66375 
L 297.745313 179.66375 
" style="fill: none; stroke: #8c564b; stroke-linecap: square"/>
    </g>
    <g id="text_24">
     <!-- 20 dB -->
     <g transform="translate(305.745313 183.16375) scale(0.1 -0.1)">
      <use xlink:href="#DejaVuSans-32"/>
      <use xlink:href="#DejaVuSans-30" transform="translate(63.623047 0)"/>
      <use xlink:href="#DejaVuSans-20" transform="translate(127.246094 0)"/>
      <use xlink:href="#DejaVuSans-64" transform="translate(159.033203 0)"/>
      <use xlink:href="#DejaVuSans-42" transform="translate(222.509766 0)"/>
     </g>
    </g>
   </g>
  </g>
 </g>
 <defs>
  <clipPath id="p198cb3c88c">
   <rect x="43.803125" y="22.318125" width="524.996875" height="228.10375"/>
  </clipPath>
 </defs>
</svg>
