<?xml version="1.0" encoding="utf-8" standalone="no"?>
<!DOCTYPE svg PUBLIC "-//W3C//DTD SVG 1.1//EN"
  "http://www.w3.org/Graphics/SVG/1.1/DTD/svg11.dtd">
<svg xmlns:xlink="http://www.w3.org/1999/xlink" width="576pt" height="288pt" viewBox="0 0 576 288" xmlns="http://www.w3.org/2000/svg" version="1.1">
 <metadata>
  <rdf:RDF xmlns:dc="http://purl.org/dc/elements/1.1/" xmlns:cc="http://creativecommons.org/ns#" xmlns:rdf="http://www.w3.org/1999/02/22-rdf-syntax-ns#">
   <cc:Work>
    <dc:type rdf:resource="http://purl.org/dc/dcmitype/StillImage"/>
    <dc:date>2025-11-27T16:51:33.507001</dc:date>
    <dc:format>image/svg+xml</dc:format>
    <dc:creator>
     <cc:Agent>
      <dc:title>Matplotlib v3.10.7, https://matplotlib.org/</dc:title>
     </cc:Agent>
    </dc:creator>
   </cc:Work>
  </rdf:RDF>
 </metadata>
 <defs>
  <style type="text/css">*{stroke-linejoin: round; stroke-linecap: butt}</style>
 </defs>
 <g id="figure_1">
  <g id="patch_1">
   <path d="M 0 288 
L 576 288 
L 576 0 
L 0 0 
z
" style="fill: #ffffff"/>
  </g>
  <g id="axes_1">
   <g id="patch_2">
    <path d="M 48.982813 250.421875 
L 568.8 250.421875 
L 568.8 22.32 
L 48.982813 22.32 
z
" style="fill: #ffffff"/>
   </g>
   <g id="matplotlib.axis_1">
    <g id="xtick_1">
     <g id="line2d_1">
      <path d="M 119.89006 250.421875 
L 119.89006 22.32 
" clip-path="url(#p7e6b3260e7)" style="fill: none; stroke-dasharray: 2.96,1.28; stroke-dashoffset: 0; stroke: #b0b0b0; stroke-opacity: 0.8; stroke-width: 0.8"/>
     </g>
     <g id="line2d_2">
      <defs>
       <path id="m342fa9677b" d="M 0 0 
L 0 3.5 
" style="stroke: #000000; stroke-width: 0.8"/>
      </defs>
      <g>
       <use xlink:href="#m342fa9677b" x="119.89006" y="250.421875" style="stroke: #000000; stroke-width: 0.8"/>
      </g>
     </g>
     <g id="text_1">
      <!-- -200 -->
      <g transform="translate(108.542404 265.020312) scale(0.1 -0.1)">
       <defs>
        <path id="DejaVuSans-2d" d="M 313 2009 
L 1997 2009 
L 1997 1497 
L 313 1497 
L 313 2009 
z
" transform="scale(0.015625)"/>
        <path id="DejaVuSans-32" d="M 1228 531 
L 3431 531 
L 3431 0 
L 469 0 
L 469 531 
Q 828 903 1448 1529 
Q 2069 2156 2228 2338 
Q 2531 2678 2651 2914 
Q 2772 3150 2772 3378 
Q 2772 3750 2511 3984 
Q 2250 4219 1831 4219 
Q 1534 4219 1204 4116 
Q 875 4013 500 3803 
L 500 4441 
Q 881 4594 1212 4672 
Q 1544 4750 1819 4750 
Q 2544 4750 2975 4387 
Q 3406 4025 3406 3419 
Q 3406 3131 3298 2873 
Q 3191 2616 2906 2266 
Q 2828 2175 2409 1742 
Q 1991 1309 1228 531 
z
" transform="scale(0.015625)"/>
        <path id="DejaVuSans-30" d="M 2034 4250 
Q 1547 4250 1301 3770 
Q 1056 3291 1056 2328 
Q 1056 1369 1301 889 
Q 1547 409 2034 409 
Q 2525 409 2770 889 
Q 3016 1369 3016 2328 
Q 3016 3291 2770 3770 
Q 2525 4250 2034 4250 
z
M 2034 4750 
Q 2819 4750 3233 4129 
Q 3647 3509 3647 2328 
Q 3647 1150 3233 529 
Q 2819 -91 2034 -91 
Q 1250 -91 836 529 
Q 422 1150 422 2328 
Q 422 3509 836 4129 
Q 1250 4750 2034 4750 
z
" transform="scale(0.015625)"/>
       </defs>
       <use xlink:href="#DejaVuSans-2d"/>
       <use xlink:href="#DejaVuSans-32" transform="translate(36.083984 0)"/>
       <use xlink:href="#DejaVuSans-30" transform="translate(99.707031 0)"/>
       <use xlink:href="#DejaVuSans-30" transform="translate(163.330078 0)"/>
      </g>
     </g>
    </g>
    <g id="xtick_2">
     <g id="line2d_3">
      <path d="M 214.448447 250.421875 
L 214.448447 22.32 
" clip-path="url(#p7e6b3260e7)" style="fill: none; stroke-dasharray: 2.96,1.28; stroke-dashoffset: 0; stroke: #b0b0b0; stroke-opacity: 0.8; stroke-width: 0.8"/>
     </g>
     <g id="line2d_4">
      <g>
       <use xlink:href="#m342fa9677b" x="214.448447" y="250.421875" style="stroke: #000000; stroke-width: 0.8"/>
      </g>
     </g>
     <g id="text_2">
      <!-- -100 -->
      <g transform="translate(203.100791 265.020312) scale(0.1 -0.1)">
       <defs>
        <path id="DejaVuSans-31" d="M 794 531 
L 1825 531 
L 1825 4091 
L 703 3866 
L 703 4441 
L 1819 4666 
L 2450 4666 
L 2450 531 
L 3481 531 
L 3481 0 
L 794 0 
L 794 531 
z
" transform="scale(0.015625)"/>
       </defs>
       <use xlink:href="#DejaVuSans-2d"/>
       <use xlink:href="#DejaVuSans-31" transform="translate(36.083984 0)"/>
       <use xlink:href="#DejaVuSans-30" transform="translate(99.707031 0)"/>
       <use xlink:href="#DejaVuSans-30" transform="translate(163.330078 0)"/>
      </g>
     </g>
    </g>
    <g id="xtick_3">
     <g id="line2d_5">
      <path d="M 309.006834 250.421875 
L 309.006834 22.32 
" clip-path="url(#p7e6b3260e7)" style="fill: none; stroke-dasharray: 2.96,1.28; stroke-dashoffset: 0; stroke: #b0b0b0; stroke-opacity: 0.8; stroke-width: 0.8"/>
     </g>
     <g id="line2d_6">
      <g>
       <use xlink:href="#m342fa9677b" x="309.006834" y="250.421875" style="stroke: #000000; stroke-width: 0.8"/>
      </g>
     </g>
     <g id="text_3">
      <!-- 0 -->
      <g transform="translate(305.825584 265.020312) scale(0.1 -0.1)">
       <use xlink:href="#DejaVuSans-30"/>
      </g>
     </g>
    </g>
    <g id="xtick_4">
     <g id="line2d_7">
      <path d="M 403.565221 250.421875 
L 403.565221 22.32 
" clip-path="url(#p7e6b3260e7)" style="fill: none; stroke-dasharray: 2.96,1.28; stroke-dashoffset: 0; stroke: #b0b0b0; stroke-opacity: 0.8; stroke-width: 0.8"/>
     </g>
     <g id="line2d_8">
      <g>
       <use xlink:href="#m342fa9677b" x="403.565221" y="250.421875" style="stroke: #000000; stroke-width: 0.8"/>
      </g>
     </g>
     <g id="text_4">
      <!-- 100 -->
      <g transform="translate(394.021471 265.020312) scale(0.1 -0.1)">
       <use xlink:href="#DejaVuSans-31"/>
       <use xlink:href="#DejaVuSans-30" transform="translate(63.623047 0)"/>
       <use xlink:href="#DejaVuSans-30" transform="translate(127.246094 0)"/>
      </g>
     </g>
    </g>
    <g id="xtick_5">
     <g id="line2d_9">
      <path d="M 498.123608 250.421875 
L 498.123608 22.32 
" clip-path="url(#p7e6b3260e7)" style="fill: none; stroke-dasharray: 2.96,1.28; stroke-dashoffset: 0; stroke: #b0b0b0; stroke-opacity: 0.8; stroke-width: 0.8"/>
     </g>
     <g id="line2d_10">
      <g>
       <use xlink:href="#m342fa9677b" x="498.123608" y="250.421875" style="stroke: #000000; stroke-width: 0.8"/>
      </g>
     </g>
     <g id="text_5">
      <!-- 200 -->
      <g transform="translate(488.579858 265.020312) scale(0.1 -0.1)">
       <use xlink:href="#DejaVuSans-32"/>
       <use xlink:href="#DejaVuSans-30" transform="translate(63.623047 0)"/>
       <use xlink:href="#DejaVuSans-30" transform="translate(127.246094 0)"/>
      </g>
     </g>
    </g>
    <g id="text_6">
     <!-- Frequency (Hz), $f$ -->
     <g transform="translate(265.741406 278.7) scale(0.1 -0.1)">
      <defs>
       <path id="DejaVuSans-46" d="M 628 4666 
L 3309 4666 
L 3309 4134 
L 1259 4134 
L 1259 2759 
L 3109 2759 
L 3109 2228 
L 1259 2228 
L 1259 0 
L 628 0 
L 628 4666 
z
" transform="scale(0.015625)"/>
       <path id="DejaVuSans-72" d="M 2631 2963 
Q 2534 3019 2420 3045 
Q 2306 3072 2169 3072 
Q 1681 3072 1420 2755 
Q 1159 2438 1159 1844 
L 1159 0 
L 581 0 
L 581 3500 
L 1159 3500 
L 1159 2956 
Q 1341 3275 1631 3429 
Q 1922 3584 2338 3584 
Q 2397 3584 2469 3576 
Q 2541 3569 2628 3553 
L 2631 2963 
z
" transform="scale(0.015625)"/>
       <path id="DejaVuSans-65" d="M 3597 1894 
L 3597 1613 
L 953 1613 
Q 991 1019 1311 708 
Q 1631 397 2203 397 
Q 2534 397 2845 478 
Q 3156 559 3463 722 
L 3463 178 
Q 3153 47 2828 -22 
Q 2503 -91 2169 -91 
Q 1331 -91 842 396 
Q 353 884 353 1716 
Q 353 2575 817 3079 
Q 1281 3584 2069 3584 
Q 2775 3584 3186 3129 
Q 3597 2675 3597 1894 
z
M 3022 2063 
Q 3016 2534 2758 2815 
Q 2500 3097 2075 3097 
Q 1594 3097 1305 2825 
Q 1016 2553 972 2059 
L 3022 2063 
z
" transform="scale(0.015625)"/>
       <path id="DejaVuSans-71" d="M 947 1747 
Q 947 1113 1208 752 
Q 1469 391 1925 391 
Q 2381 391 2643 752 
Q 2906 1113 2906 1747 
Q 2906 2381 2643 2742 
Q 2381 3103 1925 3103 
Q 1469 3103 1208 2742 
Q 947 2381 947 1747 
z
M 2906 525 
Q 2725 213 2448 61 
Q 2172 -91 1784 -91 
Q 1150 -91 751 415 
Q 353 922 353 1747 
Q 353 2572 751 3078 
Q 1150 3584 1784 3584 
Q 2172 3584 2448 3432 
Q 2725 3281 2906 2969 
L 2906 3500 
L 3481 3500 
L 3481 -1331 
L 2906 -1331 
L 2906 525 
z
" transform="scale(0.015625)"/>
       <path id="DejaVuSans-75" d="M 544 1381 
L 544 3500 
L 1119 3500 
L 1119 1403 
Q 1119 906 1312 657 
Q 1506 409 1894 409 
Q 2359 409 2629 706 
Q 2900 1003 2900 1516 
L 2900 3500 
L 3475 3500 
L 3475 0 
L 2900 0 
L 2900 538 
Q 2691 219 2414 64 
Q 2138 -91 1772 -91 
Q 1169 -91 856 284 
Q 544 659 544 1381 
z
M 1991 3584 
L 1991 3584 
z
" transform="scale(0.015625)"/>
       <path id="DejaVuSans-6e" d="M 3513 2113 
L 3513 0 
L 2938 0 
L 2938 2094 
Q 2938 2591 2744 2837 
Q 2550 3084 2163 3084 
Q 1697 3084 1428 2787 
Q 1159 2491 1159 1978 
L 1159 0 
L 581 0 
L 581 3500 
L 1159 3500 
L 1159 2956 
Q 1366 3272 1645 3428 
Q 1925 3584 2291 3584 
Q 2894 3584 3203 3211 
Q 3513 2838 3513 2113 
z
" transform="scale(0.015625)"/>
       <path id="DejaVuSans-63" d="M 3122 3366 
L 3122 2828 
Q 2878 2963 2633 3030 
Q 2388 3097 2138 3097 
Q 1578 3097 1268 2742 
Q 959 2388 959 1747 
Q 959 1106 1268 751 
Q 1578 397 2138 397 
Q 2388 397 2633 464 
Q 2878 531 3122 666 
L 3122 134 
Q 2881 22 2623 -34 
Q 2366 -91 2075 -91 
Q 1284 -91 818 406 
Q 353 903 353 1747 
Q 353 2603 823 3093 
Q 1294 3584 2113 3584 
Q 2378 3584 2631 3529 
Q 2884 3475 3122 3366 
z
" transform="scale(0.015625)"/>
       <path id="DejaVuSans-79" d="M 2059 -325 
Q 1816 -950 1584 -1140 
Q 1353 -1331 966 -1331 
L 506 -1331 
L 506 -850 
L 844 -850 
Q 1081 -850 1212 -737 
Q 1344 -625 1503 -206 
L 1606 56 
L 191 3500 
L 800 3500 
L 1894 763 
L 2988 3500 
L 3597 3500 
L 2059 -325 
z
" transform="scale(0.015625)"/>
       <path id="DejaVuSans-20" transform="scale(0.015625)"/>
       <path id="DejaVuSans-28" d="M 1984 4856 
Q 1566 4138 1362 3434 
Q 1159 2731 1159 2009 
Q 1159 1288 1364 580 
Q 1569 -128 1984 -844 
L 1484 -844 
Q 1016 -109 783 600 
Q 550 1309 550 2009 
Q 550 2706 781 3412 
Q 1013 4119 1484 4856 
L 1984 4856 
z
" transform="scale(0.015625)"/>
       <path id="DejaVuSans-48" d="M 628 4666 
L 1259 4666 
L 1259 2753 
L 3553 2753 
L 3553 4666 
L 4184 4666 
L 4184 0 
L 3553 0 
L 3553 2222 
L 1259 2222 
L 1259 0 
L 628 0 
L 628 4666 
z
" transform="scale(0.015625)"/>
       <path id="DejaVuSans-7a" d="M 353 3500 
L 3084 3500 
L 3084 2975 
L 922 459 
L 3084 459 
L 3084 0 
L 275 0 
L 275 525 
L 2438 3041 
L 353 3041 
L 353 3500 
z
" transform="scale(0.015625)"/>
       <path id="DejaVuSans-29" d="M 513 4856 
L 1013 4856 
Q 1481 4119 1714 3412 
Q 1947 2706 1947 2009 
Q 1947 1309 1714 600 
Q 1481 -109 1013 -844 
L 513 -844 
Q 928 -128 1133 580 
Q 1338 1288 1338 2009 
Q 1338 2731 1133 3434 
Q 928 4138 513 4856 
z
" transform="scale(0.015625)"/>
       <path id="DejaVuSans-2c" d="M 750 794 
L 1409 794 
L 1409 256 
L 897 -744 
L 494 -744 
L 750 256 
L 750 794 
z
" transform="scale(0.015625)"/>
       <path id="DejaVuSans-Oblique-66" d="M 3059 4863 
L 2969 4384 
L 2419 4384 
Q 2106 4384 1964 4261 
Q 1822 4138 1753 3809 
L 1691 3500 
L 2638 3500 
L 2553 3053 
L 1606 3053 
L 1013 0 
L 434 0 
L 1031 3053 
L 481 3053 
L 563 3500 
L 1113 3500 
L 1159 3744 
Q 1278 4363 1576 4613 
Q 1875 4863 2516 4863 
L 3059 4863 
z
" transform="scale(0.015625)"/>
      </defs>
      <use xlink:href="#DejaVuSans-46" transform="translate(0 0.015625)"/>
      <use xlink:href="#DejaVuSans-72" transform="translate(57.519531 0.015625)"/>
      <use xlink:href="#DejaVuSans-65" transform="translate(98.632812 0.015625)"/>
      <use xlink:href="#DejaVuSans-71" transform="translate(160.15625 0.015625)"/>
      <use xlink:href="#DejaVuSans-75" transform="translate(223.632812 0.015625)"/>
      <use xlink:href="#DejaVuSans-65" transform="translate(287.011719 0.015625)"/>
      <use xlink:href="#DejaVuSans-6e" transform="translate(348.535156 0.015625)"/>
      <use xlink:href="#DejaVuSans-63" transform="translate(411.914062 0.015625)"/>
      <use xlink:href="#DejaVuSans-79" transform="translate(466.894531 0.015625)"/>
      <use xlink:href="#DejaVuSans-20" transform="translate(526.074219 0.015625)"/>
      <use xlink:href="#DejaVuSans-28" transform="translate(557.861328 0.015625)"/>
      <use xlink:href="#DejaVuSans-48" transform="translate(596.875 0.015625)"/>
      <use xlink:href="#DejaVuSans-7a" transform="translate(672.070312 0.015625)"/>
      <use xlink:href="#DejaVuSans-29" transform="translate(724.560547 0.015625)"/>
      <use xlink:href="#DejaVuSans-2c" transform="translate(763.574219 0.015625)"/>
      <use xlink:href="#DejaVuSans-20" transform="translate(795.361328 0.015625)"/>
      <use xlink:href="#DejaVuSans-Oblique-66" transform="translate(827.148438 0.015625)"/>
     </g>
    </g>
   </g>
   <g id="matplotlib.axis_2">
    <g id="ytick_1">
     <g id="line2d_11">
      <path d="M 48.982813 229.363776 
L 568.8 229.363776 
" clip-path="url(#p7e6b3260e7)" style="fill: none; stroke-dasharray: 2.96,1.28; stroke-dashoffset: 0; stroke: #b0b0b0; stroke-opacity: 0.8; stroke-width: 0.8"/>
     </g>
     <g id="line2d_12">
      <defs>
       <path id="mbd9e145741" d="M 0 0 
L -3.5 0 
" style="stroke: #000000; stroke-width: 0.8"/>
      </defs>
      <g>
       <use xlink:href="#mbd9e145741" x="48.982813" y="229.363776" style="stroke: #000000; stroke-width: 0.8"/>
      </g>
     </g>
     <g id="text_7">
      <!-- −60 -->
      <g transform="translate(20.878125 233.162995) scale(0.1 -0.1)">
       <defs>
        <path id="DejaVuSans-2212" d="M 678 2272 
L 4684 2272 
L 4684 1741 
L 678 1741 
L 678 2272 
z
" transform="scale(0.015625)"/>
        <path id="DejaVuSans-36" d="M 2113 2584 
Q 1688 2584 1439 2293 
Q 1191 2003 1191 1497 
Q 1191 994 1439 701 
Q 1688 409 2113 409 
Q 2538 409 2786 701 
Q 3034 994 3034 1497 
Q 3034 2003 2786 2293 
Q 2538 2584 2113 2584 
z
M 3366 4563 
L 3366 3988 
Q 3128 4100 2886 4159 
Q 2644 4219 2406 4219 
Q 1781 4219 1451 3797 
Q 1122 3375 1075 2522 
Q 1259 2794 1537 2939 
Q 1816 3084 2150 3084 
Q 2853 3084 3261 2657 
Q 3669 2231 3669 1497 
Q 3669 778 3244 343 
Q 2819 -91 2113 -91 
Q 1303 -91 875 529 
Q 447 1150 447 2328 
Q 447 3434 972 4092 
Q 1497 4750 2381 4750 
Q 2619 4750 2861 4703 
Q 3103 4656 3366 4563 
z
" transform="scale(0.015625)"/>
       </defs>
       <use xlink:href="#DejaVuSans-2212"/>
       <use xlink:href="#DejaVuSans-36" transform="translate(83.789062 0)"/>
       <use xlink:href="#DejaVuSans-30" transform="translate(147.412109 0)"/>
      </g>
     </g>
    </g>
    <g id="ytick_2">
     <g id="line2d_13">
      <path d="M 48.982813 193.816319 
L 568.8 193.816319 
" clip-path="url(#p7e6b3260e7)" style="fill: none; stroke-dasharray: 2.96,1.28; stroke-dashoffset: 0; stroke: #b0b0b0; stroke-opacity: 0.8; stroke-width: 0.8"/>
     </g>
     <g id="line2d_14">
      <g>
       <use xlink:href="#mbd9e145741" x="48.982813" y="193.816319" style="stroke: #000000; stroke-width: 0.8"/>
      </g>
     </g>
     <g id="text_8">
      <!-- −50 -->
      <g transform="translate(20.878125 197.615538) scale(0.1 -0.1)">
       <defs>
        <path id="DejaVuSans-35" d="M 691 4666 
L 3169 4666 
L 3169 4134 
L 1269 4134 
L 1269 2991 
Q 1406 3038 1543 3061 
Q 1681 3084 1819 3084 
Q 2600 3084 3056 2656 
Q 3513 2228 3513 1497 
Q 3513 744 3044 326 
Q 2575 -91 1722 -91 
Q 1428 -91 1123 -41 
Q 819 9 494 109 
L 494 744 
Q 775 591 1075 516 
Q 1375 441 1709 441 
Q 2250 441 2565 725 
Q 2881 1009 2881 1497 
Q 2881 1984 2565 2268 
Q 2250 2553 1709 2553 
Q 1456 2553 1204 2497 
Q 953 2441 691 2322 
L 691 4666 
z
" transform="scale(0.015625)"/>
       </defs>
       <use xlink:href="#DejaVuSans-2212"/>
       <use xlink:href="#DejaVuSans-35" transform="translate(83.789062 0)"/>
       <use xlink:href="#DejaVuSans-30" transform="translate(147.412109 0)"/>
      </g>
     </g>
    </g>
    <g id="ytick_3">
     <g id="line2d_15">
      <path d="M 48.982813 158.268862 
L 568.8 158.268862 
" clip-path="url(#p7e6b3260e7)" style="fill: none; stroke-dasharray: 2.96,1.28; stroke-dashoffset: 0; stroke: #b0b0b0; stroke-opacity: 0.8; stroke-width: 0.8"/>
     </g>
     <g id="line2d_16">
      <g>
       <use xlink:href="#mbd9e145741" x="48.982813" y="158.268862" style="stroke: #000000; stroke-width: 0.8"/>
      </g>
     </g>
     <g id="text_9">
      <!-- −40 -->
      <g transform="translate(20.878125 162.068081) scale(0.1 -0.1)">
       <defs>
        <path id="DejaVuSans-34" d="M 2419 4116 
L 825 1625 
L 2419 1625 
L 2419 4116 
z
M 2253 4666 
L 3047 4666 
L 3047 1625 
L 3713 1625 
L 3713 1100 
L 3047 1100 
L 3047 0 
L 2419 0 
L 2419 1100 
L 313 1100 
L 313 1709 
L 2253 4666 
z
" transform="scale(0.015625)"/>
       </defs>
       <use xlink:href="#DejaVuSans-2212"/>
       <use xlink:href="#DejaVuSans-34" transform="translate(83.789062 0)"/>
       <use xlink:href="#DejaVuSans-30" transform="translate(147.412109 0)"/>
      </g>
     </g>
    </g>
    <g id="ytick_4">
     <g id="line2d_17">
      <path d="M 48.982813 122.721405 
L 568.8 122.721405 
" clip-path="url(#p7e6b3260e7)" style="fill: none; stroke-dasharray: 2.96,1.28; stroke-dashoffset: 0; stroke: #b0b0b0; stroke-opacity: 0.8; stroke-width: 0.8"/>
     </g>
     <g id="line2d_18">
      <g>
       <use xlink:href="#mbd9e145741" x="48.982813" y="122.721405" style="stroke: #000000; stroke-width: 0.8"/>
      </g>
     </g>
     <g id="text_10">
      <!-- −30 -->
      <g transform="translate(20.878125 126.520624) scale(0.1 -0.1)">
       <defs>
        <path id="DejaVuSans-33" d="M 2597 2516 
Q 3050 2419 3304 2112 
Q 3559 1806 3559 1356 
Q 3559 666 3084 287 
Q 2609 -91 1734 -91 
Q 1441 -91 1130 -33 
Q 819 25 488 141 
L 488 750 
Q 750 597 1062 519 
Q 1375 441 1716 441 
Q 2309 441 2620 675 
Q 2931 909 2931 1356 
Q 2931 1769 2642 2001 
Q 2353 2234 1838 2234 
L 1294 2234 
L 1294 2753 
L 1863 2753 
Q 2328 2753 2575 2939 
Q 2822 3125 2822 3475 
Q 2822 3834 2567 4026 
Q 2313 4219 1838 4219 
Q 1578 4219 1281 4162 
Q 984 4106 628 3988 
L 628 4550 
Q 988 4650 1302 4700 
Q 1616 4750 1894 4750 
Q 2613 4750 3031 4423 
Q 3450 4097 3450 3541 
Q 3450 3153 3228 2886 
Q 3006 2619 2597 2516 
z
" transform="scale(0.015625)"/>
       </defs>
       <use xlink:href="#DejaVuSans-2212"/>
       <use xlink:href="#DejaVuSans-33" transform="translate(83.789062 0)"/>
       <use xlink:href="#DejaVuSans-30" transform="translate(147.412109 0)"/>
      </g>
     </g>
    </g>
    <g id="ytick_5">
     <g id="line2d_19">
      <path d="M 48.982813 87.173948 
L 568.8 87.173948 
" clip-path="url(#p7e6b3260e7)" style="fill: none; stroke-dasharray: 2.96,1.28; stroke-dashoffset: 0; stroke: #b0b0b0; stroke-opacity: 0.8; stroke-width: 0.8"/>
     </g>
     <g id="line2d_20">
      <g>
       <use xlink:href="#mbd9e145741" x="48.982813" y="87.173948" style="stroke: #000000; stroke-width: 0.8"/>
      </g>
     </g>
     <g id="text_11">
      <!-- −20 -->
      <g transform="translate(20.878125 90.973167) scale(0.1 -0.1)">
       <use xlink:href="#DejaVuSans-2212"/>
       <use xlink:href="#DejaVuSans-32" transform="translate(83.789062 0)"/>
       <use xlink:href="#DejaVuSans-30" transform="translate(147.412109 0)"/>
      </g>
     </g>
    </g>
    <g id="ytick_6">
     <g id="line2d_21">
      <path d="M 48.982813 51.626491 
L 568.8 51.626491 
" clip-path="url(#p7e6b3260e7)" style="fill: none; stroke-dasharray: 2.96,1.28; stroke-dashoffset: 0; stroke: #b0b0b0; stroke-opacity: 0.8; stroke-width: 0.8"/>
     </g>
     <g id="line2d_22">
      <g>
       <use xlink:href="#mbd9e145741" x="48.982813" y="51.626491" style="stroke: #000000; stroke-width: 0.8"/>
      </g>
     </g>
     <g id="text_12">
      <!-- −10 -->
      <g transform="translate(20.878125 55.42571) scale(0.1 -0.1)">
       <use xlink:href="#DejaVuSans-2212"/>
       <use xlink:href="#DejaVuSans-31" transform="translate(83.789062 0)"/>
       <use xlink:href="#DejaVuSans-30" transform="translate(147.412109 0)"/>
      </g>
     </g>
    </g>
    <g id="text_13">
     <!-- Power density (dB/Hz) -->
     <g transform="translate(14.798437 191.570938) rotate(-90) scale(0.1 -0.1)">
      <defs>
       <path id="DejaVuSans-50" d="M 1259 4147 
L 1259 2394 
L 2053 2394 
Q 2494 2394 2734 2622 
Q 2975 2850 2975 3272 
Q 2975 3691 2734 3919 
Q 2494 4147 2053 4147 
L 1259 4147 
z
M 628 4666 
L 2053 4666 
Q 2838 4666 3239 4311 
Q 3641 3956 3641 3272 
Q 3641 2581 3239 2228 
Q 2838 1875 2053 1875 
L 1259 1875 
L 1259 0 
L 628 0 
L 628 4666 
z
" transform="scale(0.015625)"/>
       <path id="DejaVuSans-6f" d="M 1959 3097 
Q 1497 3097 1228 2736 
Q 959 2375 959 1747 
Q 959 1119 1226 758 
Q 1494 397 1959 397 
Q 2419 397 2687 759 
Q 2956 1122 2956 1747 
Q 2956 2369 2687 2733 
Q 2419 3097 1959 3097 
z
M 1959 3584 
Q 2709 3584 3137 3096 
Q 3566 2609 3566 1747 
Q 3566 888 3137 398 
Q 2709 -91 1959 -91 
Q 1206 -91 779 398 
Q 353 888 353 1747 
Q 353 2609 779 3096 
Q 1206 3584 1959 3584 
z
" transform="scale(0.015625)"/>
       <path id="DejaVuSans-77" d="M 269 3500 
L 844 3500 
L 1563 769 
L 2278 3500 
L 2956 3500 
L 3675 769 
L 4391 3500 
L 4966 3500 
L 4050 0 
L 3372 0 
L 2619 2869 
L 1863 0 
L 1184 0 
L 269 3500 
z
" transform="scale(0.015625)"/>
       <path id="DejaVuSans-64" d="M 2906 2969 
L 2906 4863 
L 3481 4863 
L 3481 0 
L 2906 0 
L 2906 525 
Q 2725 213 2448 61 
Q 2172 -91 1784 -91 
Q 1150 -91 751 415 
Q 353 922 353 1747 
Q 353 2572 751 3078 
Q 1150 3584 1784 3584 
Q 2172 3584 2448 3432 
Q 2725 3281 2906 2969 
z
M 947 1747 
Q 947 1113 1208 752 
Q 1469 391 1925 391 
Q 2381 391 2643 752 
Q 2906 1113 2906 1747 
Q 2906 2381 2643 2742 
Q 2381 3103 1925 3103 
Q 1469 3103 1208 2742 
Q 947 2381 947 1747 
z
" transform="scale(0.015625)"/>
       <path id="DejaVuSans-73" d="M 2834 3397 
L 2834 2853 
Q 2591 2978 2328 3040 
Q 2066 3103 1784 3103 
Q 1356 3103 1142 2972 
Q 928 2841 928 2578 
Q 928 2378 1081 2264 
Q 1234 2150 1697 2047 
L 1894 2003 
Q 2506 1872 2764 1633 
Q 3022 1394 3022 966 
Q 3022 478 2636 193 
Q 2250 -91 1575 -91 
Q 1294 -91 989 -36 
Q 684 19 347 128 
L 347 722 
Q 666 556 975 473 
Q 1284 391 1588 391 
Q 1994 391 2212 530 
Q 2431 669 2431 922 
Q 2431 1156 2273 1281 
Q 2116 1406 1581 1522 
L 1381 1569 
Q 847 1681 609 1914 
Q 372 2147 372 2553 
Q 372 3047 722 3315 
Q 1072 3584 1716 3584 
Q 2034 3584 2315 3537 
Q 2597 3491 2834 3397 
z
" transform="scale(0.015625)"/>
       <path id="DejaVuSans-69" d="M 603 3500 
L 1178 3500 
L 1178 0 
L 603 0 
L 603 3500 
z
M 603 4863 
L 1178 4863 
L 1178 4134 
L 603 4134 
L 603 4863 
z
" transform="scale(0.015625)"/>
       <path id="DejaVuSans-74" d="M 1172 4494 
L 1172 3500 
L 2356 3500 
L 2356 3053 
L 1172 3053 
L 1172 1153 
Q 1172 725 1289 603 
Q 1406 481 1766 481 
L 2356 481 
L 2356 0 
L 1766 0 
Q 1100 0 847 248 
Q 594 497 594 1153 
L 594 3053 
L 172 3053 
L 172 3500 
L 594 3500 
L 594 4494 
L 1172 4494 
z
" transform="scale(0.015625)"/>
       <path id="DejaVuSans-42" d="M 1259 2228 
L 1259 519 
L 2272 519 
Q 2781 519 3026 730 
Q 3272 941 3272 1375 
Q 3272 1813 3026 2020 
Q 2781 2228 2272 2228 
L 1259 2228 
z
M 1259 4147 
L 1259 2741 
L 2194 2741 
Q 2656 2741 2882 2914 
Q 3109 3088 3109 3444 
Q 3109 3797 2882 3972 
Q 2656 4147 2194 4147 
L 1259 4147 
z
M 628 4666 
L 2241 4666 
Q 2963 4666 3353 4366 
Q 3744 4066 3744 3513 
Q 3744 3084 3544 2831 
Q 3344 2578 2956 2516 
Q 3422 2416 3680 2098 
Q 3938 1781 3938 1306 
Q 3938 681 3513 340 
Q 3088 0 2303 0 
L 628 0 
L 628 4666 
z
" transform="scale(0.015625)"/>
       <path id="DejaVuSans-2f" d="M 1625 4666 
L 2156 4666 
L 531 -594 
L 0 -594 
L 1625 4666 
z
" transform="scale(0.015625)"/>
      </defs>
      <use xlink:href="#DejaVuSans-50"/>
      <use xlink:href="#DejaVuSans-6f" transform="translate(56.677734 0)"/>
      <use xlink:href="#DejaVuSans-77" transform="translate(117.859375 0)"/>
      <use xlink:href="#DejaVuSans-65" transform="translate(199.646484 0)"/>
      <use xlink:href="#DejaVuSans-72" transform="translate(261.169922 0)"/>
      <use xlink:href="#DejaVuSans-20" transform="translate(302.283203 0)"/>
      <use xlink:href="#DejaVuSans-64" transform="translate(334.070312 0)"/>
      <use xlink:href="#DejaVuSans-65" transform="translate(397.546875 0)"/>
      <use xlink:href="#DejaVuSans-6e" transform="translate(459.070312 0)"/>
      <use xlink:href="#DejaVuSans-73" transform="translate(522.449219 0)"/>
      <use xlink:href="#DejaVuSans-69" transform="translate(574.548828 0)"/>
      <use xlink:href="#DejaVuSans-74" transform="translate(602.332031 0)"/>
      <use xlink:href="#DejaVuSans-79" transform="translate(641.541016 0)"/>
      <use xlink:href="#DejaVuSans-20" transform="translate(700.720703 0)"/>
      <use xlink:href="#DejaVuSans-28" transform="translate(732.507812 0)"/>
      <use xlink:href="#DejaVuSans-64" transform="translate(771.521484 0)"/>
      <use xlink:href="#DejaVuSans-42" transform="translate(834.998047 0)"/>
      <use xlink:href="#DejaVuSans-2f" transform="translate(903.601562 0)"/>
      <use xlink:href="#DejaVuSans-48" transform="translate(937.292969 0)"/>
      <use xlink:href="#DejaVuSans-7a" transform="translate(1012.488281 0)"/>
      <use xlink:href="#DejaVuSans-29" transform="translate(1064.978516 0)"/>
     </g>
    </g>
   </g>
   <g id="line2d_23">
    <path d="M 72.610866 221.5659 
L 72.841722 221.744846 
L 73.072577 221.728683 
L 73.303433 221.501702 
L 73.765144 220.42844 
L 75.381132 214.990387 
L 76.073698 214.039773 
L 76.535409 213.409816 
L 77.458831 211.808169 
L 77.689686 211.721537 
L 77.920542 211.948119 
L 78.151397 212.567248 
L 78.613108 215.18073 
L 79.767385 225.120095 
L 79.99824 224.931686 
L 80.229096 223.467232 
L 81.383373 212.541427 
L 81.845084 210.479374 
L 82.306795 209.611032 
L 84.153638 208.004429 
L 84.384494 208.127191 
L 84.846205 208.947819 
L 86.000482 212.05971 
L 86.231337 212.200659 
L 86.462193 212.073829 
L 86.923904 211.228746 
L 87.61647 209.757446 
L 87.847325 209.502734 
L 88.078181 209.437781 
L 88.309036 209.582299 
L 88.539892 209.943353 
L 89.001603 211.281752 
L 90.617591 217.350166 
L 90.848446 217.571728 
L 91.310157 217.614367 
L 91.771868 217.684457 
L 92.233579 218.17358 
L 92.926145 219.144992 
L 93.157 219.214541 
L 93.387856 219.063737 
L 93.849567 218.248734 
L 94.311278 217.437563 
L 94.542133 217.329772 
L 94.772988 217.545353 
L 95.003844 218.14232 
L 95.465555 220.543446 
L 96.619832 228.729903 
L 96.850687 228.97268 
L 97.081543 228.475487 
L 97.543254 226.15675 
L 98.466675 221.418392 
L 99.620953 216.086892 
L 100.544374 211.826148 
L 101.006085 210.839262 
L 101.236941 210.760481 
L 101.467796 210.971404 
L 101.698652 211.467266 
L 102.160362 213.238278 
L 102.852929 217.230904 
L 103.545495 221.14912 
L 104.007206 222.665286 
L 104.238061 222.979203 
L 104.468917 223.026986 
L 104.930628 222.577772 
L 105.623194 221.671125 
L 105.854049 221.561518 
L 106.084905 221.612826 
L 106.31576 221.834838 
L 106.777471 222.707967 
L 107.470037 224.092638 
L 107.700893 224.196688 
L 107.931748 223.997739 
L 108.162604 223.485012 
L 108.624315 221.691661 
L 110.932869 210.44757 
L 111.39458 209.642966 
L 111.625435 209.592009 
L 111.856291 209.770395 
L 112.318002 210.723494 
L 113.010568 213.11839 
L 114.857411 220.235017 
L 115.088267 220.495934 
L 115.319122 220.462323 
L 115.780833 219.790411 
L 116.242544 219.065621 
L 116.4734 218.903539 
L 116.93511 218.974831 
L 117.165966 219.021572 
L 117.396821 218.877296 
L 117.627677 218.396824 
L 118.089388 216.2326 
L 119.243665 208.952655 
L 119.705376 207.471911 
L 119.936231 207.125687 
L 120.167086 207.005177 
L 120.397942 207.077068 
L 120.859653 207.694263 
L 121.321364 208.885179 
L 121.783075 210.709053 
L 123.168207 217.599907 
L 123.399063 217.86568 
L 123.629918 217.656104 
L 124.091629 216.20605 
L 124.784195 213.593091 
L 125.245906 212.61048 
L 125.476762 212.427353 
L 125.707617 212.446212 
L 125.938472 212.659919 
L 126.400183 213.655893 
L 126.861894 215.415052 
L 127.55446 219.403886 
L 128.477882 225.080175 
L 128.708738 225.800242 
L 128.939593 226.00997 
L 129.170449 225.696747 
L 129.632159 223.846386 
L 130.555581 219.104768 
L 131.017292 217.855632 
L 131.248147 217.681967 
L 131.479003 217.81877 
L 131.709858 218.24828 
L 132.171569 219.800577 
L 133.094991 223.279779 
L 133.556702 223.959919 
L 134.018413 223.967045 
L 134.710979 223.533036 
L 135.17269 223.016905 
L 135.865256 221.701914 
L 137.7121 217.572883 
L 139.097232 212.831714 
L 139.558943 212.221501 
L 139.789799 212.182068 
L 140.25151 212.482117 
L 141.405787 213.616233 
L 142.329208 214.043126 
L 143.714341 214.612526 
L 144.176052 215.104154 
L 145.330329 216.538971 
L 145.79204 216.56751 
L 146.715462 216.24426 
L 146.946317 216.363185 
L 147.408028 217.073445 
L 147.869739 218.473711 
L 148.562305 221.756922 
L 149.485727 226.656328 
L 149.716582 227.327396 
L 149.947438 227.532632 
L 150.178293 227.229635 
L 150.640004 225.359 
L 152.025137 218.103872 
L 152.486848 216.61738 
L 152.948559 215.692297 
L 153.410269 215.374899 
L 153.641125 215.445696 
L 154.102836 215.951508 
L 156.41139 219.409879 
L 156.873101 219.771422 
L 157.565667 219.949195 
L 158.027378 220.484209 
L 158.9508 222.393567 
L 159.181655 222.408733 
L 159.412511 221.944051 
L 159.874222 219.5705 
L 160.335933 216.765928 
L 160.566788 216.108746 
L 160.797643 216.465979 
L 161.028499 218.213012 
L 161.49021 226.762715 
L 161.721065 231.527892 
L 161.951921 230.664523 
L 162.644487 210.503292 
L 162.875342 208.525339 
L 163.106198 210.786926 
L 163.337053 218.548418 
L 163.567909 222.566217 
L 164.260475 166.215785 
L 164.722186 143.960894 
L 165.414752 122.617218 
L 165.876463 113.471111 
L 166.338174 107.430686 
L 166.799885 104.119312 
L 167.03074 103.4258 
L 167.261596 103.359666 
L 167.492451 103.920351 
L 167.723307 105.115142 
L 168.185017 109.479163 
L 168.646728 116.704309 
L 169.108439 127.294444 
L 169.57015 142.250891 
L 170.031861 163.807872 
L 170.724427 213.459289 
L 170.955283 210.587805 
L 171.186138 203.839978 
L 171.416994 200.984805 
L 171.647849 201.342694 
L 172.10956 207.652227 
L 172.571271 213.304242 
L 172.802126 213.382214 
L 173.494692 210.784844 
L 173.725548 210.950533 
L 173.956403 211.717382 
L 174.418114 214.362783 
L 176.034102 224.571793 
L 176.264958 225.161043 
L 176.495813 225.285029 
L 176.726669 225.004536 
L 177.188379 223.737518 
L 177.880946 221.831245 
L 178.111801 221.522056 
L 178.342657 221.471646 
L 178.573512 221.718588 
L 178.804367 222.281704 
L 179.266078 224.286659 
L 180.1895 229.155972 
L 180.420356 229.678603 
L 180.651211 229.701552 
L 180.882066 229.242109 
L 181.343777 227.23475 
L 183.190621 216.895355 
L 183.652332 215.64918 
L 183.883187 215.385892 
L 184.114043 215.375237 
L 184.344898 215.614626 
L 184.806609 216.780819 
L 185.499175 219.759894 
L 186.653452 224.904264 
L 187.115163 226.054941 
L 187.346019 226.348385 
L 187.576874 226.448737 
L 187.80773 226.355239 
L 188.038585 226.064943 
L 188.500296 224.871119 
L 188.962007 222.876328 
L 190.347139 215.663753 
L 190.80885 214.480705 
L 191.039706 214.281347 
L 191.270561 214.346854 
L 191.501417 214.663795 
L 191.963127 215.930832 
L 193.117405 219.839111 
L 193.34826 220.104673 
L 193.579115 220.084629 
L 193.809971 219.808145 
L 194.502537 218.192642 
L 194.964248 217.305508 
L 195.195104 217.114547 
L 195.425959 217.142549 
L 195.656814 217.409469 
L 196.118525 218.670495 
L 196.811092 221.949984 
L 197.272802 224.13418 
L 197.503658 224.84384 
L 197.734513 225.146925 
L 197.965369 225.008379 
L 198.42708 223.67581 
L 199.119646 221.043511 
L 199.581357 220.148341 
L 199.812212 220.12384 
L 200.043068 220.403123 
L 200.504779 221.845986 
L 201.197345 225.710613 
L 201.889911 229.575797 
L 202.120767 230.172657 
L 202.351622 230.140887 
L 202.582478 229.381153 
L 203.044188 225.783709 
L 204.891032 205.641057 
L 205.352743 203.176971 
L 205.583598 202.518914 
L 205.814454 202.249361 
L 206.045309 202.366866 
L 206.276165 202.864726 
L 206.737875 204.934681 
L 207.430442 210.053044 
L 208.123008 214.975388 
L 208.353863 215.85323 
L 208.584719 216.216316 
L 208.815574 216.127567 
L 209.277285 215.139798 
L 210.200707 212.881295 
L 211.354984 210.900381 
L 211.816695 210.57428 
L 212.04755 210.671405 
L 212.278406 210.990318 
L 212.740117 212.341163 
L 213.432683 215.776269 
L 214.356105 220.452305 
L 215.741237 225.589202 
L 215.972093 226.191708 
L 216.202948 226.457823 
L 216.433804 226.263016 
L 216.664659 225.562055 
L 217.12637 222.973666 
L 218.049792 217.451158 
L 218.511503 216.139843 
L 218.742358 215.920146 
L 218.973214 215.94758 
L 219.434924 216.501851 
L 220.127491 217.53653 
L 221.050912 218.567275 
L 221.512623 219.949286 
L 221.974334 222.373248 
L 222.666901 226.211779 
L 222.897756 226.60132 
L 223.128611 226.221343 
L 223.590322 223.573236 
L 224.513744 217.068497 
L 224.975455 214.933802 
L 225.437166 213.504539 
L 225.898877 212.704573 
L 226.129732 212.591155 
L 226.360588 212.720042 
L 226.591443 213.128196 
L 227.053154 214.83584 
L 227.976576 219.587764 
L 228.207431 219.913139 
L 228.438286 219.520863 
L 228.899997 216.959542 
L 229.823419 210.603513 
L 230.28513 208.536402 
L 230.746841 207.216998 
L 231.208552 206.486148 
L 231.439407 206.34012 
L 231.670263 206.365358 
L 231.901118 206.590598 
L 232.131973 207.046479 
L 232.593684 208.756517 
L 233.055395 211.639118 
L 233.747962 218.134445 
L 235.133094 233.125565 
L 235.36395 233.748793 
L 235.594805 233.250999 
L 236.056516 229.628801 
L 237.441648 215.888646 
L 238.134215 211.386925 
L 238.595926 209.330368 
L 239.057637 208.075397 
L 239.288492 207.757151 
L 239.519347 207.637915 
L 239.750203 207.702156 
L 240.211914 208.281884 
L 240.90448 209.83941 
L 242.751324 214.651927 
L 242.982179 214.818995 
L 243.213034 214.754712 
L 243.674745 214.049828 
L 244.367312 212.732354 
L 244.598167 212.553191 
L 244.829022 212.591722 
L 245.059878 212.865044 
L 245.521589 214.068646 
L 246.906721 218.832977 
L 247.137577 219.103481 
L 247.368432 219.173962 
L 247.830143 218.919909 
L 248.522709 218.452036 
L 248.753565 218.460074 
L 248.98442 218.594161 
L 249.446131 219.269114 
L 250.138698 221.136164 
L 251.062119 223.757348 
L 251.52383 224.359258 
L 251.754686 224.429172 
L 252.216396 224.223477 
L 252.908963 223.485837 
L 253.601529 222.419659 
L 254.294095 220.783951 
L 255.217517 218.441792 
L 255.448373 218.117775 
L 255.679228 217.998388 
L 255.910083 218.128547 
L 256.140939 218.547124 
L 256.60265 220.352171 
L 257.295216 225.111696 
L 257.756927 227.648827 
L 257.987782 227.631627 
L 258.218638 226.420921 
L 258.680349 221.338384 
L 259.372915 212.905004 
L 259.834626 209.141934 
L 260.296337 207.249721 
L 260.527192 206.972756 
L 260.758048 207.104752 
L 260.988903 207.609847 
L 261.450614 209.568833 
L 262.14318 214.11724 
L 263.066602 220.431408 
L 263.528313 221.990685 
L 263.759168 222.058263 
L 263.990024 221.672887 
L 264.68259 219.154572 
L 265.144301 217.864463 
L 265.375156 217.638599 
L 265.606012 217.732665 
L 265.836867 218.127833 
L 266.991144 221.379932 
L 267.222 221.408258 
L 267.452855 221.082553 
L 267.914566 219.69813 
L 268.837988 216.680099 
L 269.530554 215.232478 
L 270.223121 214.336308 
L 270.453976 214.239749 
L 270.684831 214.312169 
L 270.915687 214.599697 
L 271.146542 215.145562 
L 271.608253 217.159074 
L 272.069964 220.594735 
L 272.531675 225.611388 
L 273.685952 240.053608 
L 273.916808 239.786951 
L 274.147663 237.626876 
L 275.763651 215.706201 
L 276.225362 212.432029 
L 276.687073 210.449006 
L 277.148784 209.637264 
L 277.379639 209.627768 
L 277.610495 209.846798 
L 278.072205 210.805259 
L 279.226483 213.719418 
L 279.688193 214.293603 
L 280.842471 215.208365 
L 281.765892 216.362277 
L 281.996748 216.395057 
L 282.227603 216.182513 
L 282.689314 214.94563 
L 284.074447 209.653314 
L 284.536158 209.015325 
L 284.767013 208.94153 
L 284.997869 209.013003 
L 285.228724 209.232233 
L 285.690435 210.210477 
L 286.152146 212.139237 
L 286.844712 216.712634 
L 287.306423 219.551835 
L 287.537278 220.37087 
L 287.768134 220.684032 
L 287.998989 220.575883 
L 288.691556 219.506691 
L 288.922411 219.415285 
L 289.153266 219.598766 
L 289.384122 220.075919 
L 289.845833 221.765827 
L 290.538399 224.456948 
L 291.00011 225.214004 
L 291.461821 225.758674 
L 291.923532 226.436617 
L 292.154387 226.30088 
L 292.385243 225.439693 
L 292.846953 221.754665 
L 293.308664 217.92326 
L 293.770375 215.890467 
L 294.232086 214.833083 
L 294.693797 212.773447 
L 295.386363 208.764231 
L 295.617219 208.054 
L 295.848074 207.781324 
L 296.078929 207.872075 
L 296.309785 208.229723 
L 296.771496 209.687377 
L 297.233207 212.846444 
L 297.694918 217.083213 
L 297.925773 217.656136 
L 298.156628 216.163561 
L 298.618339 210.950205 
L 298.849195 209.875106 
L 299.08005 210.877002 
L 299.310906 214.28864 
L 299.772616 222.449376 
L 300.003472 217.535846 
L 300.465183 201.918279 
L 300.696038 197.890177 
L 300.926894 197.129132 
L 301.157749 200.017111 
L 301.61946 215.678287 
L 301.850315 211.008963 
L 302.312026 187.40782 
L 302.542882 181.816274 
L 302.773737 180.680065 
L 303.004593 184.941082 
L 303.466303 216.162959 
L 303.928014 166.151333 
L 304.389725 146.58774 
L 304.620581 143.692392 
L 304.851436 146.048328 
L 305.082292 158.166805 
L 305.313147 228.23893 
L 305.544002 146.565031 
L 306.005713 100.991839 
L 306.467424 76.834892 
L 307.15999 54.125669 
L 307.852557 40.684624 
L 308.314268 35.519354 
L 308.775979 33.000892 
L 309.006834 32.688267 
L 309.237689 32.998968 
L 309.468545 33.936697 
L 309.930256 37.747865 
L 310.391967 44.327015 
L 310.853677 54.092593 
L 311.315388 67.865302 
L 311.777099 87.45465 
L 312.23881 118.379622 
L 312.469666 145.546776 
L 312.700521 225.755951 
L 312.931376 159.600417 
L 313.162232 147.027731 
L 313.393087 144.606502 
L 313.623943 147.609079 
L 313.854798 155.186974 
L 314.085654 168.303595 
L 314.547364 225.433242 
L 314.77822 194.895411 
L 315.009075 181.948271 
L 315.239931 177.716365 
L 315.470786 178.548511 
L 315.701642 183.4749 
L 315.932497 192.55225 
L 316.394208 218.752879 
L 316.625063 215.074962 
L 316.855919 206.781046 
L 317.086774 202.542818 
L 317.31763 202.239033 
L 317.548485 205.159401 
L 318.241051 220.091336 
L 318.471907 219.240495 
L 318.702762 217.017128 
L 318.933618 216.121421 
L 319.164473 217.418321 
L 319.85704 227.22202 
L 320.087895 225.331362 
L 320.549606 217.29244 
L 320.780461 214.922961 
L 321.011317 214.141196 
L 321.242172 214.70942 
L 322.165594 220.235179 
L 322.396449 220.33412 
L 323.089016 219.497231 
L 323.319871 219.034572 
L 323.781582 217.249391 
L 324.243293 215.125975 
L 324.474148 214.48875 
L 324.705004 214.306509 
L 324.935859 214.57752 
L 325.39757 216.052477 
L 325.859281 217.574384 
L 326.090136 217.8711 
L 326.320992 217.663674 
L 326.551847 216.897794 
L 327.013558 214.009606 
L 327.706124 209.337745 
L 327.93698 208.456429 
L 328.167835 208.068437 
L 328.398691 208.16735 
L 328.629546 208.683519 
L 329.552968 211.903263 
L 330.014679 212.459046 
L 330.47639 212.650413 
L 330.9381 213.24983 
L 331.630667 214.637654 
L 331.861522 214.804352 
L 332.092378 214.637462 
L 332.323233 214.106459 
L 332.784944 212.212494 
L 333.47751 209.122952 
L 333.939221 207.944189 
L 334.170077 207.693588 
L 334.400932 207.640219 
L 334.862643 207.957558 
L 336.01692 209.170661 
L 336.478631 209.249032 
L 337.171197 209.279558 
L 337.402053 209.488932 
L 337.632908 209.903721 
L 338.094619 211.564615 
L 338.55633 214.574157 
L 339.248896 221.440489 
L 339.941463 227.966051 
L 340.172318 229.066299 
L 340.403173 229.511916 
L 340.634029 229.428012 
L 340.864884 228.960842 
L 341.326595 227.215278 
L 343.404294 216.149676 
L 344.327716 208.126662 
L 344.558571 207.296541 
L 344.789427 207.158885 
L 345.020282 207.619103 
L 345.712848 210.036118 
L 345.943704 210.308221 
L 346.174559 210.256719 
L 346.867126 209.653144 
L 347.097981 209.136238 
L 348.021403 205.781871 
L 348.252258 206.859002 
L 348.944825 214.981376 
L 349.17568 212.02404 
L 349.637391 199.704708 
L 349.868246 196.093707 
L 350.099102 195.633158 
L 350.329957 199.217618 
L 350.791668 219.386577 
L 351.71509 170.246206 
L 351.945945 168.310993 
L 352.176801 172.548054 
L 352.638512 199.800995 
L 353.100222 134.54935 
L 353.561933 106.109805 
L 354.2545 80.299038 
L 354.947066 64.853661 
L 355.408777 58.582991 
L 355.870488 55.041762 
L 356.101343 54.23157 
L 356.332199 54.046221 
L 356.563054 54.483831 
L 356.793909 55.550039 
L 357.25562 59.631369 
L 357.717331 66.516754 
L 358.179042 76.661097 
L 358.640753 90.964887 
L 359.102464 111.473297 
L 359.564175 144.91422 
L 360.025886 209.206609 
L 360.256741 174.187442 
L 360.487596 165.355489 
L 360.718452 164.367977 
L 360.949307 168.171106 
L 361.180163 176.238408 
L 361.411018 189.354766 
L 361.872729 220.501507 
L 362.33444 198.318886 
L 362.565295 195.106103 
L 362.796151 195.719798 
L 363.027006 199.187881 
L 363.719573 214.122596 
L 363.950428 214.287974 
L 364.412139 211.411438 
L 364.642994 210.815891 
L 364.87385 210.589381 
L 365.104705 210.088004 
L 365.566416 207.348008 
L 366.028127 204.776326 
L 366.258982 204.481204 
L 366.489838 204.944653 
L 366.951549 207.491118 
L 367.644115 211.599057 
L 368.336681 214.337556 
L 368.567537 215.003995 
L 368.798392 215.273874 
L 369.029248 214.977314 
L 369.490958 212.94724 
L 369.952669 210.670987 
L 370.183525 209.953259 
L 370.41438 209.600497 
L 370.645236 209.582484 
L 370.876091 209.829715 
L 371.337802 210.800866 
L 373.646356 216.553481 
L 374.338923 217.770071 
L 374.569778 217.936418 
L 374.800634 217.887278 
L 375.031489 217.584182 
L 375.4932 216.216936 
L 377.109188 209.534886 
L 377.340043 209.245184 
L 377.570899 209.266818 
L 377.801754 209.620806 
L 378.263465 211.344228 
L 378.725176 214.266076 
L 379.648598 220.741541 
L 380.110309 222.140056 
L 380.341164 222.303865 
L 381.03373 222.401814 
L 381.495441 222.983053 
L 381.726297 223.298668 
L 381.957152 223.421879 
L 382.188007 223.184158 
L 382.418863 222.484219 
L 382.880574 219.851315 
L 383.803996 213.714963 
L 384.265706 211.781881 
L 384.727417 210.726043 
L 385.189128 210.30712 
L 385.650839 210.300285 
L 386.11255 210.628348 
L 386.574261 211.373035 
L 387.035972 212.698287 
L 387.497683 214.757889 
L 388.190249 219.192203 
L 388.882815 223.437101 
L 389.113671 224.054576 
L 389.344526 224.065803 
L 389.575381 223.531384 
L 390.729659 219.481332 
L 390.960514 219.326692 
L 391.65308 219.621411 
L 391.883936 219.393001 
L 392.114791 218.710051 
L 392.576502 215.891827 
L 393.730779 206.715207 
L 394.19249 204.418974 
L 394.654201 203.193524 
L 394.885057 202.95403 
L 395.115912 202.941584 
L 395.346767 203.137327 
L 395.808478 204.06127 
L 396.501045 206.291203 
L 397.655322 209.941755 
L 398.347888 212.161037 
L 399.27131 215.287822 
L 399.502165 215.463298 
L 399.733021 215.14914 
L 400.194732 213.136634 
L 401.118153 207.657899 
L 401.579864 206.172805 
L 401.81072 205.916129 
L 402.041575 205.983199 
L 402.272431 206.353763 
L 402.734141 207.850354 
L 404.119274 213.460336 
L 404.580985 214.1112 
L 404.81184 214.168833 
L 405.042696 214.074801 
L 405.504407 213.473197 
L 406.196973 211.76806 
L 406.889539 210.223797 
L 407.120395 210.037622 
L 407.35125 210.084991 
L 407.582106 210.372363 
L 408.043816 211.551991 
L 408.967238 214.290673 
L 409.428949 214.804492 
L 410.814082 215.21469 
L 412.660925 216.782629 
L 413.353491 217.923134 
L 413.815202 218.948078 
L 414.276913 220.472777 
L 414.738624 223.030872 
L 415.200335 227.017995 
L 415.892901 233.344207 
L 416.123757 233.694975 
L 416.354612 232.472145 
L 416.816323 226.907617 
L 417.508889 218.599754 
L 417.9706 215.374066 
L 418.432311 213.949731 
L 418.663167 213.780669 
L 418.894022 213.895416 
L 419.355733 214.756004 
L 420.51001 217.946354 
L 420.740865 218.089623 
L 420.971721 217.815215 
L 421.202576 217.081664 
L 421.664287 214.512274 
L 422.356854 210.239129 
L 422.818564 208.727788 
L 423.04942 208.610173 
L 423.280275 208.967795 
L 423.511131 209.820226 
L 423.972842 213.03452 
L 424.434552 218.170041 
L 425.58883 233.562013 
L 425.819685 234.866353 
L 426.050541 235.037159 
L 426.281396 234.259757 
L 426.743107 231.118077 
L 428.128239 220.509415 
L 428.820806 216.588618 
L 429.282517 215.05138 
L 429.513372 214.736599 
L 429.744228 214.779201 
L 429.975083 215.212124 
L 430.436794 217.313575 
L 431.12936 222.969152 
L 431.591071 226.419125 
L 431.821926 227.138509 
L 432.052782 226.95024 
L 432.514493 224.542072 
L 433.437915 218.879474 
L 436.20818 207.375257 
L 436.439035 207.086914 
L 436.669891 207.041286 
L 436.900746 207.228674 
L 437.362457 208.20575 
L 438.74759 212.307911 
L 438.978445 212.537426 
L 439.2093 212.565042 
L 439.671011 212.18073 
L 440.363578 211.463328 
L 440.594433 211.420547 
L 440.825288 211.538574 
L 441.286999 212.300191 
L 441.979566 214.436143 
L 442.441277 215.760094 
L 442.672132 216.089593 
L 442.902987 216.079522 
L 443.133843 215.698107 
L 443.595554 213.994279 
L 444.518975 209.666972 
L 444.980686 208.440815 
L 445.211542 208.222752 
L 445.442397 208.281498 
L 445.673253 208.602089 
L 446.134964 209.825806 
L 446.596674 211.109557 
L 446.82753 211.386403 
L 447.058385 211.232462 
L 447.289241 210.606164 
L 447.750952 208.300966 
L 448.443518 204.704661 
L 448.905229 203.644482 
L 449.136084 203.659103 
L 449.36694 204.034007 
L 449.828651 205.733582 
L 451.213783 212.976187 
L 451.444639 213.522905 
L 451.675494 213.761535 
L 451.906349 213.748328 
L 452.829771 213.172186 
L 453.060627 213.373017 
L 453.291482 213.831717 
L 453.753193 215.51982 
L 454.676615 219.790869 
L 454.90747 220.304958 
L 455.138326 220.452931 
L 455.369181 220.305153 
L 456.061747 219.441078 
L 456.292603 219.39736 
L 456.523458 219.562676 
L 456.985169 220.414252 
L 457.677735 221.834191 
L 457.908591 222.011777 
L 458.139446 221.984095 
L 458.601157 221.483768 
L 459.062868 220.900143 
L 459.293723 220.762752 
L 459.524579 220.796029 
L 459.755434 221.025321 
L 460.217145 222.064426 
L 461.140567 224.929349 
L 461.371422 225.178147 
L 461.602278 225.007721 
L 461.833133 224.38631 
L 462.294844 222.051396 
L 463.449121 215.327356 
L 463.910832 213.726858 
L 464.372543 212.788511 
L 465.065109 212.0373 
L 465.988531 211.018258 
L 466.681097 210.248212 
L 467.142808 210.055226 
L 467.604519 210.241026 
L 468.06623 210.752167 
L 469.220507 212.189353 
L 469.682218 212.400491 
L 470.60564 212.605767 
L 471.067351 213.098725 
L 471.529062 214.065488 
L 472.683339 217.000602 
L 472.914194 217.172978 
L 473.14505 217.108321 
L 473.606761 216.416985 
L 474.299327 215.07037 
L 474.761038 214.65159 
L 475.222749 214.725287 
L 475.915315 215.136078 
L 476.14617 215.138464 
L 476.377026 214.995977 
L 476.838737 214.220014 
L 478.454725 210.315735 
L 478.68558 210.236356 
L 478.916436 210.329305 
L 479.378146 210.90186 
L 480.070713 211.857588 
L 480.301568 211.960697 
L 480.532424 211.903516 
L 480.994135 211.371396 
L 482.148412 209.52723 
L 482.379267 209.369411 
L 482.610123 209.352229 
L 482.840978 209.507122 
L 483.071833 209.866783 
L 483.533544 211.317539 
L 483.995255 213.826471 
L 484.918677 220.110557 
L 485.149532 220.954349 
L 485.380388 221.124011 
L 485.611243 220.61022 
L 486.072954 218.193679 
L 486.76552 214.134403 
L 487.227231 212.346043 
L 487.688942 211.319308 
L 488.150653 210.75182 
L 488.612364 210.411112 
L 489.074075 210.343043 
L 489.30493 210.501959 
L 489.535786 210.853446 
L 489.997497 212.289473 
L 490.459207 214.741288 
L 491.151774 218.733383 
L 491.382629 219.244022 
L 491.613485 218.935486 
L 491.84434 217.77882 
L 492.536906 211.478573 
L 493.229473 205.929181 
L 493.691184 204.107686 
L 493.922039 203.835534 
L 494.152894 203.985994 
L 494.38375 204.542504 
L 494.845461 206.728416 
L 495.999738 213.841757 
L 496.230593 214.391784 
L 496.461449 214.483566 
L 496.692304 214.218616 
L 498.077437 211.61897 
L 498.539148 210.83891 
L 499.000859 209.494831 
L 500.155136 205.104755 
L 500.616847 204.346012 
L 500.847702 204.350851 
L 501.078558 204.619713 
L 501.540268 205.888127 
L 502.232835 209.037137 
L 502.925401 212.172246 
L 503.387112 213.484733 
L 503.848823 214.196225 
L 504.541389 215.182461 
L 505.0031 216.33579 
L 505.695666 218.331639 
L 505.926522 218.687029 
L 506.157377 218.7158 
L 506.388233 218.380995 
L 506.849943 216.828053 
L 507.773365 213.315704 
L 508.235076 212.586604 
L 508.465932 212.520406 
L 508.927642 212.786322 
L 509.620209 213.304856 
L 509.851064 213.313565 
L 510.312775 213.005062 
L 511.005341 212.052215 
L 512.390474 210.131317 
L 512.852185 209.909092 
L 513.08304 210.043469 
L 513.313896 210.41908 
L 513.544751 211.094918 
L 514.006462 213.55279 
L 514.468173 217.661638 
L 515.391595 227.435404 
L 515.62245 228.179676 
L 515.853306 227.652514 
L 516.315016 224.194865 
L 516.776727 220.564463 
L 517.238438 218.636919 
L 517.469294 218.466283 
L 517.700149 218.82196 
L 517.931004 219.676474 
L 518.392715 222.679877 
L 519.546993 232.385499 
L 520.008703 234.029571 
L 520.239559 234.209646 
L 520.470414 234.075221 
L 520.70127 233.673913 
L 521.162981 231.959908 
L 521.624691 228.686196 
L 523.009824 216.132257 
L 523.471535 214.199731 
L 523.70239 213.8627 
L 523.933246 213.917468 
L 524.164101 214.308504 
L 525.087523 216.756503 
L 525.318378 216.712046 
L 525.549234 216.148973 
L 526.010945 213.782536 
L 526.703511 209.78832 
L 527.165222 208.393771 
L 527.396077 208.224091 
L 527.626933 208.389042 
L 528.088644 209.496825 
L 528.78121 211.66576 
L 529.242921 212.378628 
L 529.704632 212.425405 
L 531.089764 212.000228 
L 531.551475 210.998653 
L 532.705752 207.105986 
L 532.936608 206.82679 
L 533.167463 206.88259 
L 533.398319 207.306489 
L 533.86003 209.305627 
L 534.32174 212.7299 
L 535.245162 220.854642 
L 535.476018 222.018156 
L 535.706873 222.487829 
L 535.937729 222.319829 
L 537.092006 219.531051 
L 537.322861 219.6953 
L 537.784572 220.941168 
L 538.477138 223.404665 
L 538.707994 223.790109 
L 538.938849 223.821133 
L 539.169705 223.552057 
L 539.862271 222.263119 
L 540.093126 222.060084 
L 540.323982 222.050906 
L 540.785693 222.449508 
L 541.247404 222.775554 
L 541.478259 222.653392 
L 541.709114 222.271308 
L 542.170825 220.877291 
L 542.863392 218.61213 
L 543.325103 217.908368 
L 543.555958 217.892208 
L 543.786813 218.08724 
L 544.248524 218.969871 
L 545.171946 221.218071 
L 545.171946 221.218071 
" clip-path="url(#p7e6b3260e7)" style="fill: none; stroke: #1f77b4; stroke-linecap: square"/>
   </g>
   <g id="patch_3">
    <path d="M 48.982813 250.421875 
L 48.982813 22.32 
" style="fill: none; stroke: #000000; stroke-width: 0.8; stroke-linejoin: miter; stroke-linecap: square"/>
   </g>
   <g id="patch_4">
    <path d="M 568.8 250.421875 
L 568.8 22.32 
" style="fill: none; stroke: #000000; stroke-width: 0.8; stroke-linejoin: miter; stroke-linecap: square"/>
   </g>
   <g id="patch_5">
    <path d="M 48.982813 250.421875 
L 568.8 250.421875 
" style="fill: none; stroke: #000000; stroke-width: 0.8; stroke-linejoin: miter; stroke-linecap: square"/>
   </g>
   <g id="patch_6">
    <path d="M 48.982813 22.32 
L 568.8 22.32 
" style="fill: none; stroke: #000000; stroke-width: 0.8; stroke-linejoin: miter; stroke-linecap: square"/>
   </g>
   <g id="text_14">
    <!-- Periodogram of $x_c[n]$ -->
    <g transform="translate(246.371406 16.32) scale(0.12 -0.12)">
     <defs>
      <path id="DejaVuSans-67" d="M 2906 1791 
Q 2906 2416 2648 2759 
Q 2391 3103 1925 3103 
Q 1463 3103 1205 2759 
Q 947 2416 947 1791 
Q 947 1169 1205 825 
Q 1463 481 1925 481 
Q 2391 481 2648 825 
Q 2906 1169 2906 1791 
z
M 3481 434 
Q 3481 -459 3084 -895 
Q 2688 -1331 1869 -1331 
Q 1566 -1331 1297 -1286 
Q 1028 -1241 775 -1147 
L 775 -588 
Q 1028 -725 1275 -790 
Q 1522 -856 1778 -856 
Q 2344 -856 2625 -561 
Q 2906 -266 2906 331 
L 2906 616 
Q 2728 306 2450 153 
Q 2172 0 1784 0 
Q 1141 0 747 490 
Q 353 981 353 1791 
Q 353 2603 747 3093 
Q 1141 3584 1784 3584 
Q 2172 3584 2450 3431 
Q 2728 3278 2906 2969 
L 2906 3500 
L 3481 3500 
L 3481 434 
z
" transform="scale(0.015625)"/>
      <path id="DejaVuSans-61" d="M 2194 1759 
Q 1497 1759 1228 1600 
Q 959 1441 959 1056 
Q 959 750 1161 570 
Q 1363 391 1709 391 
Q 2188 391 2477 730 
Q 2766 1069 2766 1631 
L 2766 1759 
L 2194 1759 
z
M 3341 1997 
L 3341 0 
L 2766 0 
L 2766 531 
Q 2569 213 2275 61 
Q 1981 -91 1556 -91 
Q 1019 -91 701 211 
Q 384 513 384 1019 
Q 384 1609 779 1909 
Q 1175 2209 1959 2209 
L 2766 2209 
L 2766 2266 
Q 2766 2663 2505 2880 
Q 2244 3097 1772 3097 
Q 1472 3097 1187 3025 
Q 903 2953 641 2809 
L 641 3341 
Q 956 3463 1253 3523 
Q 1550 3584 1831 3584 
Q 2591 3584 2966 3190 
Q 3341 2797 3341 1997 
z
" transform="scale(0.015625)"/>
      <path id="DejaVuSans-6d" d="M 3328 2828 
Q 3544 3216 3844 3400 
Q 4144 3584 4550 3584 
Q 5097 3584 5394 3201 
Q 5691 2819 5691 2113 
L 5691 0 
L 5113 0 
L 5113 2094 
Q 5113 2597 4934 2840 
Q 4756 3084 4391 3084 
Q 3944 3084 3684 2787 
Q 3425 2491 3425 1978 
L 3425 0 
L 2847 0 
L 2847 2094 
Q 2847 2600 2669 2842 
Q 2491 3084 2119 3084 
Q 1678 3084 1418 2786 
Q 1159 2488 1159 1978 
L 1159 0 
L 581 0 
L 581 3500 
L 1159 3500 
L 1159 2956 
Q 1356 3278 1631 3431 
Q 1906 3584 2284 3584 
Q 2666 3584 2933 3390 
Q 3200 3197 3328 2828 
z
" transform="scale(0.015625)"/>
      <path id="DejaVuSans-66" d="M 2375 4863 
L 2375 4384 
L 1825 4384 
Q 1516 4384 1395 4259 
Q 1275 4134 1275 3809 
L 1275 3500 
L 2222 3500 
L 2222 3053 
L 1275 3053 
L 1275 0 
L 697 0 
L 697 3053 
L 147 3053 
L 147 3500 
L 697 3500 
L 697 3744 
Q 697 4328 969 4595 
Q 1241 4863 1831 4863 
L 2375 4863 
z
" transform="scale(0.015625)"/>
      <path id="DejaVuSans-Oblique-78" d="M 3841 3500 
L 2234 1784 
L 3219 0 
L 2559 0 
L 1819 1388 
L 531 0 
L -166 0 
L 1556 1844 
L 641 3500 
L 1300 3500 
L 1972 2234 
L 3144 3500 
L 3841 3500 
z
" transform="scale(0.015625)"/>
      <path id="DejaVuSans-Oblique-63" d="M 3431 3366 
L 3316 2797 
Q 3109 2947 2876 3022 
Q 2644 3097 2394 3097 
Q 2119 3097 1870 3000 
Q 1622 2903 1453 2725 
Q 1184 2453 1037 2087 
Q 891 1722 891 1331 
Q 891 859 1127 628 
Q 1363 397 1844 397 
Q 2081 397 2348 469 
Q 2616 541 2906 684 
L 2797 116 
Q 2547 13 2283 -39 
Q 2019 -91 1741 -91 
Q 1044 -91 669 257 
Q 294 606 294 1253 
Q 294 1797 489 2255 
Q 684 2713 1069 3078 
Q 1331 3328 1684 3456 
Q 2038 3584 2456 3584 
Q 2700 3584 2940 3529 
Q 3181 3475 3431 3366 
z
" transform="scale(0.015625)"/>
      <path id="DejaVuSans-5b" d="M 550 4863 
L 1875 4863 
L 1875 4416 
L 1125 4416 
L 1125 -397 
L 1875 -397 
L 1875 -844 
L 550 -844 
L 550 4863 
z
" transform="scale(0.015625)"/>
      <path id="DejaVuSans-Oblique-6e" d="M 3566 2113 
L 3156 0 
L 2578 0 
L 2988 2091 
Q 3016 2238 3031 2350 
Q 3047 2463 3047 2528 
Q 3047 2791 2881 2937 
Q 2716 3084 2419 3084 
Q 1956 3084 1622 2776 
Q 1288 2469 1184 1941 
L 800 0 
L 225 0 
L 903 3500 
L 1478 3500 
L 1363 2950 
Q 1603 3253 1940 3418 
Q 2278 3584 2650 3584 
Q 3113 3584 3367 3334 
Q 3622 3084 3622 2631 
Q 3622 2519 3608 2391 
Q 3594 2263 3566 2113 
z
" transform="scale(0.015625)"/>
      <path id="DejaVuSans-5d" d="M 1947 4863 
L 1947 -844 
L 622 -844 
L 622 -397 
L 1369 -397 
L 1369 4416 
L 622 4416 
L 622 4863 
L 1947 4863 
z
" transform="scale(0.015625)"/>
     </defs>
     <use xlink:href="#DejaVuSans-50" transform="translate(0 0.015625)"/>
     <use xlink:href="#DejaVuSans-65" transform="translate(60.302734 0.015625)"/>
     <use xlink:href="#DejaVuSans-72" transform="translate(121.826172 0.015625)"/>
     <use xlink:href="#DejaVuSans-69" transform="translate(162.939453 0.015625)"/>
     <use xlink:href="#DejaVuSans-6f" transform="translate(190.722656 0.015625)"/>
     <use xlink:href="#DejaVuSans-64" transform="translate(251.904297 0.015625)"/>
     <use xlink:href="#DejaVuSans-6f" transform="translate(315.380859 0.015625)"/>
     <use xlink:href="#DejaVuSans-67" transform="translate(376.5625 0.015625)"/>
     <use xlink:href="#DejaVuSans-72" transform="translate(440.039062 0.015625)"/>
     <use xlink:href="#DejaVuSans-61" transform="translate(481.152344 0.015625)"/>
     <use xlink:href="#DejaVuSans-6d" transform="translate(542.431641 0.015625)"/>
     <use xlink:href="#DejaVuSans-20" transform="translate(639.84375 0.015625)"/>
     <use xlink:href="#DejaVuSans-6f" transform="translate(671.630859 0.015625)"/>
     <use xlink:href="#DejaVuSans-66" transform="translate(732.8125 0.015625)"/>
     <use xlink:href="#DejaVuSans-20" transform="translate(768.017578 0.015625)"/>
     <use xlink:href="#DejaVuSans-Oblique-78" transform="translate(799.804688 0.015625)"/>
     <use xlink:href="#DejaVuSans-Oblique-63" transform="translate(858.984375 -16.390625) scale(0.7)"/>
     <use xlink:href="#DejaVuSans-5b" transform="translate(900.205078 0.015625)"/>
     <use xlink:href="#DejaVuSans-Oblique-6e" transform="translate(939.21875 0.015625)"/>
     <use xlink:href="#DejaVuSans-5d" transform="translate(1002.597656 0.015625)"/>
    </g>
   </g>
  </g>
 </g>
 <defs>
  <clipPath id="p7e6b3260e7">
   <rect x="48.982813" y="22.32" width="519.817188" height="228.101875"/>
  </clipPath>
 </defs>
</svg>
