<?xml version="1.0" encoding="utf-8" standalone="no"?>
<!DOCTYPE svg PUBLIC "-//W3C//DTD SVG 1.1//EN"
  "http://www.w3.org/Graphics/SVG/1.1/DTD/svg11.dtd">
<svg xmlns:xlink="http://www.w3.org/1999/xlink" width="576pt" height="288pt" viewBox="0 0 576 288" xmlns="http://www.w3.org/2000/svg" version="1.1">
 <metadata>
  <rdf:RDF xmlns:dc="http://purl.org/dc/elements/1.1/" xmlns:cc="http://creativecommons.org/ns#" xmlns:rdf="http://www.w3.org/1999/02/22-rdf-syntax-ns#">
   <cc:Work>
    <dc:type rdf:resource="http://purl.org/dc/dcmitype/StillImage"/>
    <dc:date>2025-05-10T16:16:00.244818</dc:date>
    <dc:format>image/svg+xml</dc:format>
    <dc:creator>
     <cc:Agent>
      <dc:title>Matplotlib v3.10.3, https://matplotlib.org/</dc:title>
     </cc:Agent>
    </dc:creator>
   </cc:Work>
  </rdf:RDF>
 </metadata>
 <defs>
  <style type="text/css">*{stroke-linejoin: round; stroke-linecap: butt}</style>
 </defs>
 <g id="figure_1">
  <g id="patch_1">
   <path d="M 0 288 
L 576 288 
L 576 0 
L 0 0 
z
" style="fill: #ffffff"/>
  </g>
  <g id="axes_1">
   <g id="patch_2">
    <path d="M 40.603125 250.44375 
L 568.8 250.44375 
L 568.8 22.318125 
L 40.603125 22.318125 
z
" style="fill: #ffffff"/>
   </g>
   <g id="matplotlib.axis_1">
    <g id="xtick_1">
     <g id="line2d_1">
      <path d="M 64.612074 250.44375 
L 64.612074 22.318125 
" clip-path="url(#pcd146b5e6a)" style="fill: none; stroke-dasharray: 2.96,1.28; stroke-dashoffset: 0; stroke: #b0b0b0; stroke-opacity: 0.8; stroke-width: 0.8"/>
     </g>
     <g id="line2d_2">
      <defs>
       <path id="m912db95677" d="M 0 0 
L 0 3.5 
" style="stroke: #000000; stroke-width: 0.8"/>
      </defs>
      <g>
       <use xlink:href="#m912db95677" x="64.612074" y="250.44375" style="stroke: #000000; stroke-width: 0.8"/>
      </g>
     </g>
     <g id="text_1">
      <!-- 0 -->
      <g transform="translate(61.430824 265.042188) scale(0.1 -0.1)">
       <defs>
        <path id="DejaVuSans-30" d="M 2034 4250 
Q 1547 4250 1301 3770 
Q 1056 3291 1056 2328 
Q 1056 1369 1301 889 
Q 1547 409 2034 409 
Q 2525 409 2770 889 
Q 3016 1369 3016 2328 
Q 3016 3291 2770 3770 
Q 2525 4250 2034 4250 
z
M 2034 4750 
Q 2819 4750 3233 4129 
Q 3647 3509 3647 2328 
Q 3647 1150 3233 529 
Q 2819 -91 2034 -91 
Q 1250 -91 836 529 
Q 422 1150 422 2328 
Q 422 3509 836 4129 
Q 1250 4750 2034 4750 
z
" transform="scale(0.015625)"/>
       </defs>
       <use xlink:href="#DejaVuSans-30"/>
      </g>
     </g>
    </g>
    <g id="xtick_2">
     <g id="line2d_3">
      <path d="M 160.647869 250.44375 
L 160.647869 22.318125 
" clip-path="url(#pcd146b5e6a)" style="fill: none; stroke-dasharray: 2.96,1.28; stroke-dashoffset: 0; stroke: #b0b0b0; stroke-opacity: 0.8; stroke-width: 0.8"/>
     </g>
     <g id="line2d_4">
      <g>
       <use xlink:href="#m912db95677" x="160.647869" y="250.44375" style="stroke: #000000; stroke-width: 0.8"/>
      </g>
     </g>
     <g id="text_2">
      <!-- 2 -->
      <g transform="translate(157.466619 265.042188) scale(0.1 -0.1)">
       <defs>
        <path id="DejaVuSans-32" d="M 1228 531 
L 3431 531 
L 3431 0 
L 469 0 
L 469 531 
Q 828 903 1448 1529 
Q 2069 2156 2228 2338 
Q 2531 2678 2651 2914 
Q 2772 3150 2772 3378 
Q 2772 3750 2511 3984 
Q 2250 4219 1831 4219 
Q 1534 4219 1204 4116 
Q 875 4013 500 3803 
L 500 4441 
Q 881 4594 1212 4672 
Q 1544 4750 1819 4750 
Q 2544 4750 2975 4387 
Q 3406 4025 3406 3419 
Q 3406 3131 3298 2873 
Q 3191 2616 2906 2266 
Q 2828 2175 2409 1742 
Q 1991 1309 1228 531 
z
" transform="scale(0.015625)"/>
       </defs>
       <use xlink:href="#DejaVuSans-32"/>
      </g>
     </g>
    </g>
    <g id="xtick_3">
     <g id="line2d_5">
      <path d="M 256.683665 250.44375 
L 256.683665 22.318125 
" clip-path="url(#pcd146b5e6a)" style="fill: none; stroke-dasharray: 2.96,1.28; stroke-dashoffset: 0; stroke: #b0b0b0; stroke-opacity: 0.8; stroke-width: 0.8"/>
     </g>
     <g id="line2d_6">
      <g>
       <use xlink:href="#m912db95677" x="256.683665" y="250.44375" style="stroke: #000000; stroke-width: 0.8"/>
      </g>
     </g>
     <g id="text_3">
      <!-- 4 -->
      <g transform="translate(253.502415 265.042188) scale(0.1 -0.1)">
       <defs>
        <path id="DejaVuSans-34" d="M 2419 4116 
L 825 1625 
L 2419 1625 
L 2419 4116 
z
M 2253 4666 
L 3047 4666 
L 3047 1625 
L 3713 1625 
L 3713 1100 
L 3047 1100 
L 3047 0 
L 2419 0 
L 2419 1100 
L 313 1100 
L 313 1709 
L 2253 4666 
z
" transform="scale(0.015625)"/>
       </defs>
       <use xlink:href="#DejaVuSans-34"/>
      </g>
     </g>
    </g>
    <g id="xtick_4">
     <g id="line2d_7">
      <path d="M 352.71946 250.44375 
L 352.71946 22.318125 
" clip-path="url(#pcd146b5e6a)" style="fill: none; stroke-dasharray: 2.96,1.28; stroke-dashoffset: 0; stroke: #b0b0b0; stroke-opacity: 0.8; stroke-width: 0.8"/>
     </g>
     <g id="line2d_8">
      <g>
       <use xlink:href="#m912db95677" x="352.71946" y="250.44375" style="stroke: #000000; stroke-width: 0.8"/>
      </g>
     </g>
     <g id="text_4">
      <!-- 6 -->
      <g transform="translate(349.53821 265.042188) scale(0.1 -0.1)">
       <defs>
        <path id="DejaVuSans-36" d="M 2113 2584 
Q 1688 2584 1439 2293 
Q 1191 2003 1191 1497 
Q 1191 994 1439 701 
Q 1688 409 2113 409 
Q 2538 409 2786 701 
Q 3034 994 3034 1497 
Q 3034 2003 2786 2293 
Q 2538 2584 2113 2584 
z
M 3366 4563 
L 3366 3988 
Q 3128 4100 2886 4159 
Q 2644 4219 2406 4219 
Q 1781 4219 1451 3797 
Q 1122 3375 1075 2522 
Q 1259 2794 1537 2939 
Q 1816 3084 2150 3084 
Q 2853 3084 3261 2657 
Q 3669 2231 3669 1497 
Q 3669 778 3244 343 
Q 2819 -91 2113 -91 
Q 1303 -91 875 529 
Q 447 1150 447 2328 
Q 447 3434 972 4092 
Q 1497 4750 2381 4750 
Q 2619 4750 2861 4703 
Q 3103 4656 3366 4563 
z
" transform="scale(0.015625)"/>
       </defs>
       <use xlink:href="#DejaVuSans-36"/>
      </g>
     </g>
    </g>
    <g id="xtick_5">
     <g id="line2d_9">
      <path d="M 448.755256 250.44375 
L 448.755256 22.318125 
" clip-path="url(#pcd146b5e6a)" style="fill: none; stroke-dasharray: 2.96,1.28; stroke-dashoffset: 0; stroke: #b0b0b0; stroke-opacity: 0.8; stroke-width: 0.8"/>
     </g>
     <g id="line2d_10">
      <g>
       <use xlink:href="#m912db95677" x="448.755256" y="250.44375" style="stroke: #000000; stroke-width: 0.8"/>
      </g>
     </g>
     <g id="text_5">
      <!-- 8 -->
      <g transform="translate(445.574006 265.042188) scale(0.1 -0.1)">
       <defs>
        <path id="DejaVuSans-38" d="M 2034 2216 
Q 1584 2216 1326 1975 
Q 1069 1734 1069 1313 
Q 1069 891 1326 650 
Q 1584 409 2034 409 
Q 2484 409 2743 651 
Q 3003 894 3003 1313 
Q 3003 1734 2745 1975 
Q 2488 2216 2034 2216 
z
M 1403 2484 
Q 997 2584 770 2862 
Q 544 3141 544 3541 
Q 544 4100 942 4425 
Q 1341 4750 2034 4750 
Q 2731 4750 3128 4425 
Q 3525 4100 3525 3541 
Q 3525 3141 3298 2862 
Q 3072 2584 2669 2484 
Q 3125 2378 3379 2068 
Q 3634 1759 3634 1313 
Q 3634 634 3220 271 
Q 2806 -91 2034 -91 
Q 1263 -91 848 271 
Q 434 634 434 1313 
Q 434 1759 690 2068 
Q 947 2378 1403 2484 
z
M 1172 3481 
Q 1172 3119 1398 2916 
Q 1625 2713 2034 2713 
Q 2441 2713 2670 2916 
Q 2900 3119 2900 3481 
Q 2900 3844 2670 4047 
Q 2441 4250 2034 4250 
Q 1625 4250 1398 4047 
Q 1172 3844 1172 3481 
z
" transform="scale(0.015625)"/>
       </defs>
       <use xlink:href="#DejaVuSans-38"/>
      </g>
     </g>
    </g>
    <g id="xtick_6">
     <g id="line2d_11">
      <path d="M 544.791051 250.44375 
L 544.791051 22.318125 
" clip-path="url(#pcd146b5e6a)" style="fill: none; stroke-dasharray: 2.96,1.28; stroke-dashoffset: 0; stroke: #b0b0b0; stroke-opacity: 0.8; stroke-width: 0.8"/>
     </g>
     <g id="line2d_12">
      <g>
       <use xlink:href="#m912db95677" x="544.791051" y="250.44375" style="stroke: #000000; stroke-width: 0.8"/>
      </g>
     </g>
     <g id="text_6">
      <!-- 10 -->
      <g transform="translate(538.428551 265.042188) scale(0.1 -0.1)">
       <defs>
        <path id="DejaVuSans-31" d="M 794 531 
L 1825 531 
L 1825 4091 
L 703 3866 
L 703 4441 
L 1819 4666 
L 2450 4666 
L 2450 531 
L 3481 531 
L 3481 0 
L 794 0 
L 794 531 
z
" transform="scale(0.015625)"/>
       </defs>
       <use xlink:href="#DejaVuSans-31"/>
       <use xlink:href="#DejaVuSans-30" transform="translate(63.623047 0)"/>
      </g>
     </g>
    </g>
    <g id="text_7">
     <!-- Coherent gain loss (dB) -->
     <g transform="translate(246.029688 278.720312) scale(0.1 -0.1)">
      <defs>
       <path id="DejaVuSans-43" d="M 4122 4306 
L 4122 3641 
Q 3803 3938 3442 4084 
Q 3081 4231 2675 4231 
Q 1875 4231 1450 3742 
Q 1025 3253 1025 2328 
Q 1025 1406 1450 917 
Q 1875 428 2675 428 
Q 3081 428 3442 575 
Q 3803 722 4122 1019 
L 4122 359 
Q 3791 134 3420 21 
Q 3050 -91 2638 -91 
Q 1578 -91 968 557 
Q 359 1206 359 2328 
Q 359 3453 968 4101 
Q 1578 4750 2638 4750 
Q 3056 4750 3426 4639 
Q 3797 4528 4122 4306 
z
" transform="scale(0.015625)"/>
       <path id="DejaVuSans-6f" d="M 1959 3097 
Q 1497 3097 1228 2736 
Q 959 2375 959 1747 
Q 959 1119 1226 758 
Q 1494 397 1959 397 
Q 2419 397 2687 759 
Q 2956 1122 2956 1747 
Q 2956 2369 2687 2733 
Q 2419 3097 1959 3097 
z
M 1959 3584 
Q 2709 3584 3137 3096 
Q 3566 2609 3566 1747 
Q 3566 888 3137 398 
Q 2709 -91 1959 -91 
Q 1206 -91 779 398 
Q 353 888 353 1747 
Q 353 2609 779 3096 
Q 1206 3584 1959 3584 
z
" transform="scale(0.015625)"/>
       <path id="DejaVuSans-68" d="M 3513 2113 
L 3513 0 
L 2938 0 
L 2938 2094 
Q 2938 2591 2744 2837 
Q 2550 3084 2163 3084 
Q 1697 3084 1428 2787 
Q 1159 2491 1159 1978 
L 1159 0 
L 581 0 
L 581 4863 
L 1159 4863 
L 1159 2956 
Q 1366 3272 1645 3428 
Q 1925 3584 2291 3584 
Q 2894 3584 3203 3211 
Q 3513 2838 3513 2113 
z
" transform="scale(0.015625)"/>
       <path id="DejaVuSans-65" d="M 3597 1894 
L 3597 1613 
L 953 1613 
Q 991 1019 1311 708 
Q 1631 397 2203 397 
Q 2534 397 2845 478 
Q 3156 559 3463 722 
L 3463 178 
Q 3153 47 2828 -22 
Q 2503 -91 2169 -91 
Q 1331 -91 842 396 
Q 353 884 353 1716 
Q 353 2575 817 3079 
Q 1281 3584 2069 3584 
Q 2775 3584 3186 3129 
Q 3597 2675 3597 1894 
z
M 3022 2063 
Q 3016 2534 2758 2815 
Q 2500 3097 2075 3097 
Q 1594 3097 1305 2825 
Q 1016 2553 972 2059 
L 3022 2063 
z
" transform="scale(0.015625)"/>
       <path id="DejaVuSans-72" d="M 2631 2963 
Q 2534 3019 2420 3045 
Q 2306 3072 2169 3072 
Q 1681 3072 1420 2755 
Q 1159 2438 1159 1844 
L 1159 0 
L 581 0 
L 581 3500 
L 1159 3500 
L 1159 2956 
Q 1341 3275 1631 3429 
Q 1922 3584 2338 3584 
Q 2397 3584 2469 3576 
Q 2541 3569 2628 3553 
L 2631 2963 
z
" transform="scale(0.015625)"/>
       <path id="DejaVuSans-6e" d="M 3513 2113 
L 3513 0 
L 2938 0 
L 2938 2094 
Q 2938 2591 2744 2837 
Q 2550 3084 2163 3084 
Q 1697 3084 1428 2787 
Q 1159 2491 1159 1978 
L 1159 0 
L 581 0 
L 581 3500 
L 1159 3500 
L 1159 2956 
Q 1366 3272 1645 3428 
Q 1925 3584 2291 3584 
Q 2894 3584 3203 3211 
Q 3513 2838 3513 2113 
z
" transform="scale(0.015625)"/>
       <path id="DejaVuSans-74" d="M 1172 4494 
L 1172 3500 
L 2356 3500 
L 2356 3053 
L 1172 3053 
L 1172 1153 
Q 1172 725 1289 603 
Q 1406 481 1766 481 
L 2356 481 
L 2356 0 
L 1766 0 
Q 1100 0 847 248 
Q 594 497 594 1153 
L 594 3053 
L 172 3053 
L 172 3500 
L 594 3500 
L 594 4494 
L 1172 4494 
z
" transform="scale(0.015625)"/>
       <path id="DejaVuSans-20" transform="scale(0.015625)"/>
       <path id="DejaVuSans-67" d="M 2906 1791 
Q 2906 2416 2648 2759 
Q 2391 3103 1925 3103 
Q 1463 3103 1205 2759 
Q 947 2416 947 1791 
Q 947 1169 1205 825 
Q 1463 481 1925 481 
Q 2391 481 2648 825 
Q 2906 1169 2906 1791 
z
M 3481 434 
Q 3481 -459 3084 -895 
Q 2688 -1331 1869 -1331 
Q 1566 -1331 1297 -1286 
Q 1028 -1241 775 -1147 
L 775 -588 
Q 1028 -725 1275 -790 
Q 1522 -856 1778 -856 
Q 2344 -856 2625 -561 
Q 2906 -266 2906 331 
L 2906 616 
Q 2728 306 2450 153 
Q 2172 0 1784 0 
Q 1141 0 747 490 
Q 353 981 353 1791 
Q 353 2603 747 3093 
Q 1141 3584 1784 3584 
Q 2172 3584 2450 3431 
Q 2728 3278 2906 2969 
L 2906 3500 
L 3481 3500 
L 3481 434 
z
" transform="scale(0.015625)"/>
       <path id="DejaVuSans-61" d="M 2194 1759 
Q 1497 1759 1228 1600 
Q 959 1441 959 1056 
Q 959 750 1161 570 
Q 1363 391 1709 391 
Q 2188 391 2477 730 
Q 2766 1069 2766 1631 
L 2766 1759 
L 2194 1759 
z
M 3341 1997 
L 3341 0 
L 2766 0 
L 2766 531 
Q 2569 213 2275 61 
Q 1981 -91 1556 -91 
Q 1019 -91 701 211 
Q 384 513 384 1019 
Q 384 1609 779 1909 
Q 1175 2209 1959 2209 
L 2766 2209 
L 2766 2266 
Q 2766 2663 2505 2880 
Q 2244 3097 1772 3097 
Q 1472 3097 1187 3025 
Q 903 2953 641 2809 
L 641 3341 
Q 956 3463 1253 3523 
Q 1550 3584 1831 3584 
Q 2591 3584 2966 3190 
Q 3341 2797 3341 1997 
z
" transform="scale(0.015625)"/>
       <path id="DejaVuSans-69" d="M 603 3500 
L 1178 3500 
L 1178 0 
L 603 0 
L 603 3500 
z
M 603 4863 
L 1178 4863 
L 1178 4134 
L 603 4134 
L 603 4863 
z
" transform="scale(0.015625)"/>
       <path id="DejaVuSans-6c" d="M 603 4863 
L 1178 4863 
L 1178 0 
L 603 0 
L 603 4863 
z
" transform="scale(0.015625)"/>
       <path id="DejaVuSans-73" d="M 2834 3397 
L 2834 2853 
Q 2591 2978 2328 3040 
Q 2066 3103 1784 3103 
Q 1356 3103 1142 2972 
Q 928 2841 928 2578 
Q 928 2378 1081 2264 
Q 1234 2150 1697 2047 
L 1894 2003 
Q 2506 1872 2764 1633 
Q 3022 1394 3022 966 
Q 3022 478 2636 193 
Q 2250 -91 1575 -91 
Q 1294 -91 989 -36 
Q 684 19 347 128 
L 347 722 
Q 666 556 975 473 
Q 1284 391 1588 391 
Q 1994 391 2212 530 
Q 2431 669 2431 922 
Q 2431 1156 2273 1281 
Q 2116 1406 1581 1522 
L 1381 1569 
Q 847 1681 609 1914 
Q 372 2147 372 2553 
Q 372 3047 722 3315 
Q 1072 3584 1716 3584 
Q 2034 3584 2315 3537 
Q 2597 3491 2834 3397 
z
" transform="scale(0.015625)"/>
       <path id="DejaVuSans-28" d="M 1984 4856 
Q 1566 4138 1362 3434 
Q 1159 2731 1159 2009 
Q 1159 1288 1364 580 
Q 1569 -128 1984 -844 
L 1484 -844 
Q 1016 -109 783 600 
Q 550 1309 550 2009 
Q 550 2706 781 3412 
Q 1013 4119 1484 4856 
L 1984 4856 
z
" transform="scale(0.015625)"/>
       <path id="DejaVuSans-64" d="M 2906 2969 
L 2906 4863 
L 3481 4863 
L 3481 0 
L 2906 0 
L 2906 525 
Q 2725 213 2448 61 
Q 2172 -91 1784 -91 
Q 1150 -91 751 415 
Q 353 922 353 1747 
Q 353 2572 751 3078 
Q 1150 3584 1784 3584 
Q 2172 3584 2448 3432 
Q 2725 3281 2906 2969 
z
M 947 1747 
Q 947 1113 1208 752 
Q 1469 391 1925 391 
Q 2381 391 2643 752 
Q 2906 1113 2906 1747 
Q 2906 2381 2643 2742 
Q 2381 3103 1925 3103 
Q 1469 3103 1208 2742 
Q 947 2381 947 1747 
z
" transform="scale(0.015625)"/>
       <path id="DejaVuSans-42" d="M 1259 2228 
L 1259 519 
L 2272 519 
Q 2781 519 3026 730 
Q 3272 941 3272 1375 
Q 3272 1813 3026 2020 
Q 2781 2228 2272 2228 
L 1259 2228 
z
M 1259 4147 
L 1259 2741 
L 2194 2741 
Q 2656 2741 2882 2914 
Q 3109 3088 3109 3444 
Q 3109 3797 2882 3972 
Q 2656 4147 2194 4147 
L 1259 4147 
z
M 628 4666 
L 2241 4666 
Q 2963 4666 3353 4366 
Q 3744 4066 3744 3513 
Q 3744 3084 3544 2831 
Q 3344 2578 2956 2516 
Q 3422 2416 3680 2098 
Q 3938 1781 3938 1306 
Q 3938 681 3513 340 
Q 3088 0 2303 0 
L 628 0 
L 628 4666 
z
" transform="scale(0.015625)"/>
       <path id="DejaVuSans-29" d="M 513 4856 
L 1013 4856 
Q 1481 4119 1714 3412 
Q 1947 2706 1947 2009 
Q 1947 1309 1714 600 
Q 1481 -109 1013 -844 
L 513 -844 
Q 928 -128 1133 580 
Q 1338 1288 1338 2009 
Q 1338 2731 1133 3434 
Q 928 4138 513 4856 
z
" transform="scale(0.015625)"/>
      </defs>
      <use xlink:href="#DejaVuSans-43"/>
      <use xlink:href="#DejaVuSans-6f" transform="translate(69.824219 0)"/>
      <use xlink:href="#DejaVuSans-68" transform="translate(131.005859 0)"/>
      <use xlink:href="#DejaVuSans-65" transform="translate(194.384766 0)"/>
      <use xlink:href="#DejaVuSans-72" transform="translate(255.908203 0)"/>
      <use xlink:href="#DejaVuSans-65" transform="translate(294.771484 0)"/>
      <use xlink:href="#DejaVuSans-6e" transform="translate(356.294922 0)"/>
      <use xlink:href="#DejaVuSans-74" transform="translate(419.673828 0)"/>
      <use xlink:href="#DejaVuSans-20" transform="translate(458.882812 0)"/>
      <use xlink:href="#DejaVuSans-67" transform="translate(490.669922 0)"/>
      <use xlink:href="#DejaVuSans-61" transform="translate(554.146484 0)"/>
      <use xlink:href="#DejaVuSans-69" transform="translate(615.425781 0)"/>
      <use xlink:href="#DejaVuSans-6e" transform="translate(643.208984 0)"/>
      <use xlink:href="#DejaVuSans-20" transform="translate(706.587891 0)"/>
      <use xlink:href="#DejaVuSans-6c" transform="translate(738.375 0)"/>
      <use xlink:href="#DejaVuSans-6f" transform="translate(766.158203 0)"/>
      <use xlink:href="#DejaVuSans-73" transform="translate(827.339844 0)"/>
      <use xlink:href="#DejaVuSans-73" transform="translate(879.439453 0)"/>
      <use xlink:href="#DejaVuSans-20" transform="translate(931.539062 0)"/>
      <use xlink:href="#DejaVuSans-28" transform="translate(963.326172 0)"/>
      <use xlink:href="#DejaVuSans-64" transform="translate(1002.339844 0)"/>
      <use xlink:href="#DejaVuSans-42" transform="translate(1065.816406 0)"/>
      <use xlink:href="#DejaVuSans-29" transform="translate(1134.419922 0)"/>
     </g>
    </g>
   </g>
   <g id="matplotlib.axis_2">
    <g id="ytick_1">
     <g id="line2d_13">
      <path d="M 40.603125 250.44375 
L 568.8 250.44375 
" clip-path="url(#pcd146b5e6a)" style="fill: none; stroke-dasharray: 2.96,1.28; stroke-dashoffset: 0; stroke: #b0b0b0; stroke-opacity: 0.8; stroke-width: 0.8"/>
     </g>
     <g id="line2d_14">
      <defs>
       <path id="ma852d260bb" d="M 0 0 
L -3.5 0 
" style="stroke: #000000; stroke-width: 0.8"/>
      </defs>
      <g>
       <use xlink:href="#ma852d260bb" x="40.603125" y="250.44375" style="stroke: #000000; stroke-width: 0.8"/>
      </g>
     </g>
     <g id="text_8">
      <!-- 0 -->
      <g transform="translate(27.240625 254.242969) scale(0.1 -0.1)">
       <use xlink:href="#DejaVuSans-30"/>
      </g>
     </g>
    </g>
    <g id="ytick_2">
     <g id="line2d_15">
      <path d="M 40.603125 204.818625 
L 568.8 204.818625 
" clip-path="url(#pcd146b5e6a)" style="fill: none; stroke-dasharray: 2.96,1.28; stroke-dashoffset: 0; stroke: #b0b0b0; stroke-opacity: 0.8; stroke-width: 0.8"/>
     </g>
     <g id="line2d_16">
      <g>
       <use xlink:href="#ma852d260bb" x="40.603125" y="204.818625" style="stroke: #000000; stroke-width: 0.8"/>
      </g>
     </g>
     <g id="text_9">
      <!-- 2 -->
      <g transform="translate(27.240625 208.617844) scale(0.1 -0.1)">
       <use xlink:href="#DejaVuSans-32"/>
      </g>
     </g>
    </g>
    <g id="ytick_3">
     <g id="line2d_17">
      <path d="M 40.603125 159.1935 
L 568.8 159.1935 
" clip-path="url(#pcd146b5e6a)" style="fill: none; stroke-dasharray: 2.96,1.28; stroke-dashoffset: 0; stroke: #b0b0b0; stroke-opacity: 0.8; stroke-width: 0.8"/>
     </g>
     <g id="line2d_18">
      <g>
       <use xlink:href="#ma852d260bb" x="40.603125" y="159.1935" style="stroke: #000000; stroke-width: 0.8"/>
      </g>
     </g>
     <g id="text_10">
      <!-- 4 -->
      <g transform="translate(27.240625 162.992719) scale(0.1 -0.1)">
       <use xlink:href="#DejaVuSans-34"/>
      </g>
     </g>
    </g>
    <g id="ytick_4">
     <g id="line2d_19">
      <path d="M 40.603125 113.568375 
L 568.8 113.568375 
" clip-path="url(#pcd146b5e6a)" style="fill: none; stroke-dasharray: 2.96,1.28; stroke-dashoffset: 0; stroke: #b0b0b0; stroke-opacity: 0.8; stroke-width: 0.8"/>
     </g>
     <g id="line2d_20">
      <g>
       <use xlink:href="#ma852d260bb" x="40.603125" y="113.568375" style="stroke: #000000; stroke-width: 0.8"/>
      </g>
     </g>
     <g id="text_11">
      <!-- 6 -->
      <g transform="translate(27.240625 117.367594) scale(0.1 -0.1)">
       <use xlink:href="#DejaVuSans-36"/>
      </g>
     </g>
    </g>
    <g id="ytick_5">
     <g id="line2d_21">
      <path d="M 40.603125 67.94325 
L 568.8 67.94325 
" clip-path="url(#pcd146b5e6a)" style="fill: none; stroke-dasharray: 2.96,1.28; stroke-dashoffset: 0; stroke: #b0b0b0; stroke-opacity: 0.8; stroke-width: 0.8"/>
     </g>
     <g id="line2d_22">
      <g>
       <use xlink:href="#ma852d260bb" x="40.603125" y="67.94325" style="stroke: #000000; stroke-width: 0.8"/>
      </g>
     </g>
     <g id="text_12">
      <!-- 8 -->
      <g transform="translate(27.240625 71.742469) scale(0.1 -0.1)">
       <use xlink:href="#DejaVuSans-38"/>
      </g>
     </g>
    </g>
    <g id="ytick_6">
     <g id="line2d_23">
      <path d="M 40.603125 22.318125 
L 568.8 22.318125 
" clip-path="url(#pcd146b5e6a)" style="fill: none; stroke-dasharray: 2.96,1.28; stroke-dashoffset: 0; stroke: #b0b0b0; stroke-opacity: 0.8; stroke-width: 0.8"/>
     </g>
     <g id="line2d_24">
      <g>
       <use xlink:href="#ma852d260bb" x="40.603125" y="22.318125" style="stroke: #000000; stroke-width: 0.8"/>
      </g>
     </g>
     <g id="text_13">
      <!-- 10 -->
      <g transform="translate(20.878125 26.117344) scale(0.1 -0.1)">
       <use xlink:href="#DejaVuSans-31"/>
       <use xlink:href="#DejaVuSans-30" transform="translate(63.623047 0)"/>
      </g>
     </g>
    </g>
    <g id="text_14">
     <!-- Maximum integration time (ms) -->
     <g transform="translate(14.798437 215.922344) rotate(-90) scale(0.1 -0.1)">
      <defs>
       <path id="DejaVuSans-4d" d="M 628 4666 
L 1569 4666 
L 2759 1491 
L 3956 4666 
L 4897 4666 
L 4897 0 
L 4281 0 
L 4281 4097 
L 3078 897 
L 2444 897 
L 1241 4097 
L 1241 0 
L 628 0 
L 628 4666 
z
" transform="scale(0.015625)"/>
       <path id="DejaVuSans-78" d="M 3513 3500 
L 2247 1797 
L 3578 0 
L 2900 0 
L 1881 1375 
L 863 0 
L 184 0 
L 1544 1831 
L 300 3500 
L 978 3500 
L 1906 2253 
L 2834 3500 
L 3513 3500 
z
" transform="scale(0.015625)"/>
       <path id="DejaVuSans-6d" d="M 3328 2828 
Q 3544 3216 3844 3400 
Q 4144 3584 4550 3584 
Q 5097 3584 5394 3201 
Q 5691 2819 5691 2113 
L 5691 0 
L 5113 0 
L 5113 2094 
Q 5113 2597 4934 2840 
Q 4756 3084 4391 3084 
Q 3944 3084 3684 2787 
Q 3425 2491 3425 1978 
L 3425 0 
L 2847 0 
L 2847 2094 
Q 2847 2600 2669 2842 
Q 2491 3084 2119 3084 
Q 1678 3084 1418 2786 
Q 1159 2488 1159 1978 
L 1159 0 
L 581 0 
L 581 3500 
L 1159 3500 
L 1159 2956 
Q 1356 3278 1631 3431 
Q 1906 3584 2284 3584 
Q 2666 3584 2933 3390 
Q 3200 3197 3328 2828 
z
" transform="scale(0.015625)"/>
       <path id="DejaVuSans-75" d="M 544 1381 
L 544 3500 
L 1119 3500 
L 1119 1403 
Q 1119 906 1312 657 
Q 1506 409 1894 409 
Q 2359 409 2629 706 
Q 2900 1003 2900 1516 
L 2900 3500 
L 3475 3500 
L 3475 0 
L 2900 0 
L 2900 538 
Q 2691 219 2414 64 
Q 2138 -91 1772 -91 
Q 1169 -91 856 284 
Q 544 659 544 1381 
z
M 1991 3584 
L 1991 3584 
z
" transform="scale(0.015625)"/>
      </defs>
      <use xlink:href="#DejaVuSans-4d"/>
      <use xlink:href="#DejaVuSans-61" transform="translate(86.279297 0)"/>
      <use xlink:href="#DejaVuSans-78" transform="translate(147.558594 0)"/>
      <use xlink:href="#DejaVuSans-69" transform="translate(206.738281 0)"/>
      <use xlink:href="#DejaVuSans-6d" transform="translate(234.521484 0)"/>
      <use xlink:href="#DejaVuSans-75" transform="translate(331.933594 0)"/>
      <use xlink:href="#DejaVuSans-6d" transform="translate(395.3125 0)"/>
      <use xlink:href="#DejaVuSans-20" transform="translate(492.724609 0)"/>
      <use xlink:href="#DejaVuSans-69" transform="translate(524.511719 0)"/>
      <use xlink:href="#DejaVuSans-6e" transform="translate(552.294922 0)"/>
      <use xlink:href="#DejaVuSans-74" transform="translate(615.673828 0)"/>
      <use xlink:href="#DejaVuSans-65" transform="translate(654.882812 0)"/>
      <use xlink:href="#DejaVuSans-67" transform="translate(716.40625 0)"/>
      <use xlink:href="#DejaVuSans-72" transform="translate(779.882812 0)"/>
      <use xlink:href="#DejaVuSans-61" transform="translate(820.996094 0)"/>
      <use xlink:href="#DejaVuSans-74" transform="translate(882.275391 0)"/>
      <use xlink:href="#DejaVuSans-69" transform="translate(921.484375 0)"/>
      <use xlink:href="#DejaVuSans-6f" transform="translate(949.267578 0)"/>
      <use xlink:href="#DejaVuSans-6e" transform="translate(1010.449219 0)"/>
      <use xlink:href="#DejaVuSans-20" transform="translate(1073.828125 0)"/>
      <use xlink:href="#DejaVuSans-74" transform="translate(1105.615234 0)"/>
      <use xlink:href="#DejaVuSans-69" transform="translate(1144.824219 0)"/>
      <use xlink:href="#DejaVuSans-6d" transform="translate(1172.607422 0)"/>
      <use xlink:href="#DejaVuSans-65" transform="translate(1270.019531 0)"/>
      <use xlink:href="#DejaVuSans-20" transform="translate(1331.542969 0)"/>
      <use xlink:href="#DejaVuSans-28" transform="translate(1363.330078 0)"/>
      <use xlink:href="#DejaVuSans-6d" transform="translate(1402.34375 0)"/>
      <use xlink:href="#DejaVuSans-73" transform="translate(1499.755859 0)"/>
      <use xlink:href="#DejaVuSans-29" transform="translate(1551.855469 0)"/>
     </g>
    </g>
   </g>
   <g id="line2d_25">
    <path d="M 64.612074 250.44375 
L 65.092253 238.374712 
L 65.572432 233.377518 
L 66.53279 226.314013 
L 67.493148 220.897789 
L 68.933685 214.269999 
L 70.374222 208.688353 
L 72.294938 202.251027 
L 74.215653 196.587538 
L 76.616548 190.265472 
L 79.017443 184.55988 
L 81.898517 178.321731 
L 84.779591 172.59725 
L 88.140844 166.42823 
L 91.502097 160.700443 
L 95.343528 154.59343 
L 99.665139 148.182931 
L 103.98675 142.176211 
L 108.78854 135.898483 
L 113.59033 129.975032 
L 118.872298 123.809141 
L 124.634446 117.442751 
L 130.396594 111.401896 
L 136.63892 105.177897 
L 143.361426 98.801791 
L 150.083932 92.724318 
L 157.286616 86.506368 
L 164.96948 80.171997 
L 173.132523 73.742609 
L 181.295565 67.59109 
L 189.938787 61.350363 
L 199.062188 55.037932 
L 208.665767 48.669651 
L 218.749526 42.259909 
L 228.833284 36.108667 
L 239.397222 29.918017 
L 250.441338 23.700419 
L 261.965634 17.467367 
L 273.970108 11.229495 
L 286.454761 4.996672 
L 298.947942 -1 
L 298.947942 -1 
" clip-path="url(#pcd146b5e6a)" style="fill: none; stroke: #1f77b4; stroke-linecap: square"/>
   </g>
   <g id="line2d_26">
    <path d="M 64.612074 250.44375 
L 65.092253 244.409231 
L 66.052611 239.994064 
L 67.012969 236.956371 
L 68.453506 233.389314 
L 69.894043 230.452569 
L 71.814759 227.109854 
L 73.735474 224.194446 
L 76.136369 220.959125 
L 79.017443 217.501815 
L 81.898517 214.38274 
L 85.25977 211.064424 
L 89.101202 207.597222 
L 93.422813 204.018792 
L 98.224602 200.35746 
L 103.506571 196.634788 
L 109.268719 192.867437 
L 115.511045 189.068501 
L 122.233551 185.248459 
L 129.436236 181.415846 
L 137.119099 177.57774 
L 145.282142 173.740117 
L 154.405543 169.701519 
L 164.009122 165.695936 
L 174.57306 161.540723 
L 185.617176 157.440578 
L 197.621651 153.230357 
L 210.106304 149.090485 
L 223.551315 144.871838 
L 237.476506 140.734516 
L 252.362054 136.543912 
L 268.20796 132.318135 
L 285.014224 128.073494 
L 302.300668 123.93656 
L 320.547469 119.797081 
L 339.754628 115.668112 
L 359.922145 111.561623 
L 381.05002 107.488629 
L 403.138253 103.4593 
L 426.186844 99.48305 
L 450.195793 95.568611 
L 475.165099 91.724094 
L 501.094764 87.957031 
L 527.984787 84.274413 
L 544.791051 82.081008 
L 544.791051 82.081008 
" clip-path="url(#pcd146b5e6a)" style="fill: none; stroke: #ff7f0e; stroke-linecap: square"/>
   </g>
   <g id="line2d_27">
    <path d="M 64.612074 250.44375 
L 65.092253 247.42649 
L 66.052611 245.218907 
L 67.012969 243.700061 
L 68.453506 241.916532 
L 70.374222 240.004901 
L 72.775116 238.026204 
L 75.65619 236.010168 
L 79.017443 233.972783 
L 82.858875 231.923462 
L 87.180486 229.868207 
L 92.462455 227.616111 
L 98.224602 225.400605 
L 104.947108 223.055174 
L 112.629972 220.616302 
L 121.273193 218.111284 
L 130.876773 215.560773 
L 141.920889 212.868235 
L 153.925364 210.175927 
L 167.370375 207.395397 
L 182.255923 204.553897 
L 198.582009 201.673703 
L 216.348631 198.773237 
L 235.55579 195.867946 
L 256.203486 192.970982 
L 278.771898 190.033473 
L 302.780847 187.134243 
L 328.710511 184.229345 
L 356.560892 181.337207 
L 386.331989 178.474168 
L 418.023801 175.654815 
L 451.63633 172.892232 
L 487.169574 170.198194 
L 524.623534 167.583306 
L 544.791051 166.262379 
L 544.791051 166.262379 
" clip-path="url(#pcd146b5e6a)" style="fill: none; stroke: #2ca02c; stroke-linecap: square"/>
   </g>
   <g id="patch_3">
    <path d="M 40.603125 250.44375 
L 40.603125 22.318125 
" style="fill: none; stroke: #000000; stroke-width: 0.8; stroke-linejoin: miter; stroke-linecap: square"/>
   </g>
   <g id="patch_4">
    <path d="M 568.8 250.44375 
L 568.8 22.318125 
" style="fill: none; stroke: #000000; stroke-width: 0.8; stroke-linejoin: miter; stroke-linecap: square"/>
   </g>
   <g id="patch_5">
    <path d="M 40.603125 250.44375 
L 568.8 250.44375 
" style="fill: none; stroke: #000000; stroke-width: 0.8; stroke-linejoin: miter; stroke-linecap: square"/>
   </g>
   <g id="patch_6">
    <path d="M 40.603125 22.318125 
L 568.8 22.318125 
" style="fill: none; stroke: #000000; stroke-width: 0.8; stroke-linejoin: miter; stroke-linecap: square"/>
   </g>
   <g id="text_15">
    <!-- Maximum integration time for various frequency offsets -->
    <g transform="translate(136.689375 16.318125) scale(0.12 -0.12)">
     <defs>
      <path id="DejaVuSans-66" d="M 2375 4863 
L 2375 4384 
L 1825 4384 
Q 1516 4384 1395 4259 
Q 1275 4134 1275 3809 
L 1275 3500 
L 2222 3500 
L 2222 3053 
L 1275 3053 
L 1275 0 
L 697 0 
L 697 3053 
L 147 3053 
L 147 3500 
L 697 3500 
L 697 3744 
Q 697 4328 969 4595 
Q 1241 4863 1831 4863 
L 2375 4863 
z
" transform="scale(0.015625)"/>
      <path id="DejaVuSans-76" d="M 191 3500 
L 800 3500 
L 1894 563 
L 2988 3500 
L 3597 3500 
L 2284 0 
L 1503 0 
L 191 3500 
z
" transform="scale(0.015625)"/>
      <path id="DejaVuSans-71" d="M 947 1747 
Q 947 1113 1208 752 
Q 1469 391 1925 391 
Q 2381 391 2643 752 
Q 2906 1113 2906 1747 
Q 2906 2381 2643 2742 
Q 2381 3103 1925 3103 
Q 1469 3103 1208 2742 
Q 947 2381 947 1747 
z
M 2906 525 
Q 2725 213 2448 61 
Q 2172 -91 1784 -91 
Q 1150 -91 751 415 
Q 353 922 353 1747 
Q 353 2572 751 3078 
Q 1150 3584 1784 3584 
Q 2172 3584 2448 3432 
Q 2725 3281 2906 2969 
L 2906 3500 
L 3481 3500 
L 3481 -1331 
L 2906 -1331 
L 2906 525 
z
" transform="scale(0.015625)"/>
      <path id="DejaVuSans-63" d="M 3122 3366 
L 3122 2828 
Q 2878 2963 2633 3030 
Q 2388 3097 2138 3097 
Q 1578 3097 1268 2742 
Q 959 2388 959 1747 
Q 959 1106 1268 751 
Q 1578 397 2138 397 
Q 2388 397 2633 464 
Q 2878 531 3122 666 
L 3122 134 
Q 2881 22 2623 -34 
Q 2366 -91 2075 -91 
Q 1284 -91 818 406 
Q 353 903 353 1747 
Q 353 2603 823 3093 
Q 1294 3584 2113 3584 
Q 2378 3584 2631 3529 
Q 2884 3475 3122 3366 
z
" transform="scale(0.015625)"/>
      <path id="DejaVuSans-79" d="M 2059 -325 
Q 1816 -950 1584 -1140 
Q 1353 -1331 966 -1331 
L 506 -1331 
L 506 -850 
L 844 -850 
Q 1081 -850 1212 -737 
Q 1344 -625 1503 -206 
L 1606 56 
L 191 3500 
L 800 3500 
L 1894 763 
L 2988 3500 
L 3597 3500 
L 2059 -325 
z
" transform="scale(0.015625)"/>
     </defs>
     <use xlink:href="#DejaVuSans-4d"/>
     <use xlink:href="#DejaVuSans-61" transform="translate(86.279297 0)"/>
     <use xlink:href="#DejaVuSans-78" transform="translate(147.558594 0)"/>
     <use xlink:href="#DejaVuSans-69" transform="translate(206.738281 0)"/>
     <use xlink:href="#DejaVuSans-6d" transform="translate(234.521484 0)"/>
     <use xlink:href="#DejaVuSans-75" transform="translate(331.933594 0)"/>
     <use xlink:href="#DejaVuSans-6d" transform="translate(395.3125 0)"/>
     <use xlink:href="#DejaVuSans-20" transform="translate(492.724609 0)"/>
     <use xlink:href="#DejaVuSans-69" transform="translate(524.511719 0)"/>
     <use xlink:href="#DejaVuSans-6e" transform="translate(552.294922 0)"/>
     <use xlink:href="#DejaVuSans-74" transform="translate(615.673828 0)"/>
     <use xlink:href="#DejaVuSans-65" transform="translate(654.882812 0)"/>
     <use xlink:href="#DejaVuSans-67" transform="translate(716.40625 0)"/>
     <use xlink:href="#DejaVuSans-72" transform="translate(779.882812 0)"/>
     <use xlink:href="#DejaVuSans-61" transform="translate(820.996094 0)"/>
     <use xlink:href="#DejaVuSans-74" transform="translate(882.275391 0)"/>
     <use xlink:href="#DejaVuSans-69" transform="translate(921.484375 0)"/>
     <use xlink:href="#DejaVuSans-6f" transform="translate(949.267578 0)"/>
     <use xlink:href="#DejaVuSans-6e" transform="translate(1010.449219 0)"/>
     <use xlink:href="#DejaVuSans-20" transform="translate(1073.828125 0)"/>
     <use xlink:href="#DejaVuSans-74" transform="translate(1105.615234 0)"/>
     <use xlink:href="#DejaVuSans-69" transform="translate(1144.824219 0)"/>
     <use xlink:href="#DejaVuSans-6d" transform="translate(1172.607422 0)"/>
     <use xlink:href="#DejaVuSans-65" transform="translate(1270.019531 0)"/>
     <use xlink:href="#DejaVuSans-20" transform="translate(1331.542969 0)"/>
     <use xlink:href="#DejaVuSans-66" transform="translate(1363.330078 0)"/>
     <use xlink:href="#DejaVuSans-6f" transform="translate(1398.535156 0)"/>
     <use xlink:href="#DejaVuSans-72" transform="translate(1459.716797 0)"/>
     <use xlink:href="#DejaVuSans-20" transform="translate(1500.830078 0)"/>
     <use xlink:href="#DejaVuSans-76" transform="translate(1532.617188 0)"/>
     <use xlink:href="#DejaVuSans-61" transform="translate(1591.796875 0)"/>
     <use xlink:href="#DejaVuSans-72" transform="translate(1653.076172 0)"/>
     <use xlink:href="#DejaVuSans-69" transform="translate(1694.189453 0)"/>
     <use xlink:href="#DejaVuSans-6f" transform="translate(1721.972656 0)"/>
     <use xlink:href="#DejaVuSans-75" transform="translate(1783.154297 0)"/>
     <use xlink:href="#DejaVuSans-73" transform="translate(1846.533203 0)"/>
     <use xlink:href="#DejaVuSans-20" transform="translate(1898.632812 0)"/>
     <use xlink:href="#DejaVuSans-66" transform="translate(1930.419922 0)"/>
     <use xlink:href="#DejaVuSans-72" transform="translate(1965.625 0)"/>
     <use xlink:href="#DejaVuSans-65" transform="translate(2004.488281 0)"/>
     <use xlink:href="#DejaVuSans-71" transform="translate(2066.011719 0)"/>
     <use xlink:href="#DejaVuSans-75" transform="translate(2129.488281 0)"/>
     <use xlink:href="#DejaVuSans-65" transform="translate(2192.867188 0)"/>
     <use xlink:href="#DejaVuSans-6e" transform="translate(2254.390625 0)"/>
     <use xlink:href="#DejaVuSans-63" transform="translate(2317.769531 0)"/>
     <use xlink:href="#DejaVuSans-79" transform="translate(2372.75 0)"/>
     <use xlink:href="#DejaVuSans-20" transform="translate(2431.929688 0)"/>
     <use xlink:href="#DejaVuSans-6f" transform="translate(2463.716797 0)"/>
     <use xlink:href="#DejaVuSans-66" transform="translate(2524.898438 0)"/>
     <use xlink:href="#DejaVuSans-66" transform="translate(2560.103516 0)"/>
     <use xlink:href="#DejaVuSans-73" transform="translate(2595.308594 0)"/>
     <use xlink:href="#DejaVuSans-65" transform="translate(2647.408203 0)"/>
     <use xlink:href="#DejaVuSans-74" transform="translate(2708.931641 0)"/>
     <use xlink:href="#DejaVuSans-73" transform="translate(2748.140625 0)"/>
    </g>
   </g>
   <g id="legend_1">
    <g id="patch_7">
     <path d="M 494.765625 74.3525 
L 561.8 74.3525 
Q 563.8 74.3525 563.8 72.3525 
L 563.8 29.318125 
Q 563.8 27.318125 561.8 27.318125 
L 494.765625 27.318125 
Q 492.765625 27.318125 492.765625 29.318125 
L 492.765625 72.3525 
Q 492.765625 74.3525 494.765625 74.3525 
z
" style="fill: #ffffff; opacity: 0.8; stroke: #cccccc; stroke-linejoin: miter"/>
    </g>
    <g id="line2d_28">
     <path d="M 496.765625 35.416563 
L 506.765625 35.416563 
L 516.765625 35.416563 
" style="fill: none; stroke: #1f77b4; stroke-linecap: square"/>
    </g>
    <g id="text_16">
     <!-- 50 Hz -->
     <g transform="translate(524.765625 38.916563) scale(0.1 -0.1)">
      <defs>
       <path id="DejaVuSans-35" d="M 691 4666 
L 3169 4666 
L 3169 4134 
L 1269 4134 
L 1269 2991 
Q 1406 3038 1543 3061 
Q 1681 3084 1819 3084 
Q 2600 3084 3056 2656 
Q 3513 2228 3513 1497 
Q 3513 744 3044 326 
Q 2575 -91 1722 -91 
Q 1428 -91 1123 -41 
Q 819 9 494 109 
L 494 744 
Q 775 591 1075 516 
Q 1375 441 1709 441 
Q 2250 441 2565 725 
Q 2881 1009 2881 1497 
Q 2881 1984 2565 2268 
Q 2250 2553 1709 2553 
Q 1456 2553 1204 2497 
Q 953 2441 691 2322 
L 691 4666 
z
" transform="scale(0.015625)"/>
       <path id="DejaVuSans-48" d="M 628 4666 
L 1259 4666 
L 1259 2753 
L 3553 2753 
L 3553 4666 
L 4184 4666 
L 4184 0 
L 3553 0 
L 3553 2222 
L 1259 2222 
L 1259 0 
L 628 0 
L 628 4666 
z
" transform="scale(0.015625)"/>
       <path id="DejaVuSans-7a" d="M 353 3500 
L 3084 3500 
L 3084 2975 
L 922 459 
L 3084 459 
L 3084 0 
L 275 0 
L 275 525 
L 2438 3041 
L 353 3041 
L 353 3500 
z
" transform="scale(0.015625)"/>
      </defs>
      <use xlink:href="#DejaVuSans-35"/>
      <use xlink:href="#DejaVuSans-30" transform="translate(63.623047 0)"/>
      <use xlink:href="#DejaVuSans-20" transform="translate(127.246094 0)"/>
      <use xlink:href="#DejaVuSans-48" transform="translate(159.033203 0)"/>
      <use xlink:href="#DejaVuSans-7a" transform="translate(234.228516 0)"/>
     </g>
    </g>
    <g id="line2d_29">
     <path d="M 496.765625 50.094688 
L 506.765625 50.094688 
L 516.765625 50.094688 
" style="fill: none; stroke: #ff7f0e; stroke-linecap: square"/>
    </g>
    <g id="text_17">
     <!-- 100 Hz -->
     <g transform="translate(524.765625 53.594688) scale(0.1 -0.1)">
      <use xlink:href="#DejaVuSans-31"/>
      <use xlink:href="#DejaVuSans-30" transform="translate(63.623047 0)"/>
      <use xlink:href="#DejaVuSans-30" transform="translate(127.246094 0)"/>
      <use xlink:href="#DejaVuSans-20" transform="translate(190.869141 0)"/>
      <use xlink:href="#DejaVuSans-48" transform="translate(222.65625 0)"/>
      <use xlink:href="#DejaVuSans-7a" transform="translate(297.851562 0)"/>
     </g>
    </g>
    <g id="line2d_30">
     <path d="M 496.765625 64.772813 
L 506.765625 64.772813 
L 516.765625 64.772813 
" style="fill: none; stroke: #2ca02c; stroke-linecap: square"/>
    </g>
    <g id="text_18">
     <!-- 200 Hz -->
     <g transform="translate(524.765625 68.272813) scale(0.1 -0.1)">
      <use xlink:href="#DejaVuSans-32"/>
      <use xlink:href="#DejaVuSans-30" transform="translate(63.623047 0)"/>
      <use xlink:href="#DejaVuSans-30" transform="translate(127.246094 0)"/>
      <use xlink:href="#DejaVuSans-20" transform="translate(190.869141 0)"/>
      <use xlink:href="#DejaVuSans-48" transform="translate(222.65625 0)"/>
      <use xlink:href="#DejaVuSans-7a" transform="translate(297.851562 0)"/>
     </g>
    </g>
   </g>
  </g>
 </g>
 <defs>
  <clipPath id="pcd146b5e6a">
   <rect x="40.603125" y="22.318125" width="528.196875" height="228.125625"/>
  </clipPath>
 </defs>
</svg>
