<?xml version="1.0" encoding="utf-8" standalone="no"?>
<!DOCTYPE svg PUBLIC "-//W3C//DTD SVG 1.1//EN"
  "http://www.w3.org/Graphics/SVG/1.1/DTD/svg11.dtd">
<svg xmlns:xlink="http://www.w3.org/1999/xlink" width="576pt" height="288pt" viewBox="0 0 576 288" xmlns="http://www.w3.org/2000/svg" version="1.1">
 <metadata>
  <rdf:RDF xmlns:dc="http://purl.org/dc/elements/1.1/" xmlns:cc="http://creativecommons.org/ns#" xmlns:rdf="http://www.w3.org/1999/02/22-rdf-syntax-ns#">
   <cc:Work>
    <dc:type rdf:resource="http://purl.org/dc/dcmitype/StillImage"/>
    <dc:date>2025-05-10T16:31:19.732131</dc:date>
    <dc:format>image/svg+xml</dc:format>
    <dc:creator>
     <cc:Agent>
      <dc:title>Matplotlib v3.10.3, https://matplotlib.org/</dc:title>
     </cc:Agent>
    </dc:creator>
   </cc:Work>
  </rdf:RDF>
 </metadata>
 <defs>
  <style type="text/css">*{stroke-linejoin: round; stroke-linecap: butt}</style>
 </defs>
 <g id="figure_1">
  <g id="patch_1">
   <path d="M 0 288 
L 576 288 
L 576 0 
L 0 0 
z
" style="fill: #ffffff"/>
  </g>
  <g id="axes_1">
   <g id="patch_2">
    <path d="M 58.523438 250.421875 
L 568.8 250.421875 
L 568.8 22.318125 
L 58.523438 22.318125 
z
" style="fill: #ffffff"/>
   </g>
   <g id="matplotlib.axis_1">
    <g id="xtick_1">
     <g id="line2d_1">
      <path d="M 81.717827 250.421875 
L 81.717827 22.318125 
" clip-path="url(#p171502f126)" style="fill: none; stroke-dasharray: 2.96,1.28; stroke-dashoffset: 0; stroke: #b0b0b0; stroke-opacity: 0.8; stroke-width: 0.8"/>
     </g>
     <g id="line2d_2">
      <defs>
       <path id="m548c1e85b3" d="M 0 0 
L 0 3.5 
" style="stroke: #000000; stroke-width: 0.8"/>
      </defs>
      <g>
       <use xlink:href="#m548c1e85b3" x="81.717827" y="250.421875" style="stroke: #000000; stroke-width: 0.8"/>
      </g>
     </g>
     <g id="text_1">
      <!-- 0 -->
      <g transform="translate(78.536577 265.020312) scale(0.1 -0.1)">
       <defs>
        <path id="DejaVuSans-30" d="M 2034 4250 
Q 1547 4250 1301 3770 
Q 1056 3291 1056 2328 
Q 1056 1369 1301 889 
Q 1547 409 2034 409 
Q 2525 409 2770 889 
Q 3016 1369 3016 2328 
Q 3016 3291 2770 3770 
Q 2525 4250 2034 4250 
z
M 2034 4750 
Q 2819 4750 3233 4129 
Q 3647 3509 3647 2328 
Q 3647 1150 3233 529 
Q 2819 -91 2034 -91 
Q 1250 -91 836 529 
Q 422 1150 422 2328 
Q 422 3509 836 4129 
Q 1250 4750 2034 4750 
z
" transform="scale(0.015625)"/>
       </defs>
       <use xlink:href="#DejaVuSans-30"/>
      </g>
     </g>
    </g>
    <g id="xtick_2">
     <g id="line2d_3">
      <path d="M 140.191077 250.421875 
L 140.191077 22.318125 
" clip-path="url(#p171502f126)" style="fill: none; stroke-dasharray: 2.96,1.28; stroke-dashoffset: 0; stroke: #b0b0b0; stroke-opacity: 0.8; stroke-width: 0.8"/>
     </g>
     <g id="line2d_4">
      <g>
       <use xlink:href="#m548c1e85b3" x="140.191077" y="250.421875" style="stroke: #000000; stroke-width: 0.8"/>
      </g>
     </g>
     <g id="text_2">
      <!-- 15 -->
      <g transform="translate(133.828577 265.020312) scale(0.1 -0.1)">
       <defs>
        <path id="DejaVuSans-31" d="M 794 531 
L 1825 531 
L 1825 4091 
L 703 3866 
L 703 4441 
L 1819 4666 
L 2450 4666 
L 2450 531 
L 3481 531 
L 3481 0 
L 794 0 
L 794 531 
z
" transform="scale(0.015625)"/>
        <path id="DejaVuSans-35" d="M 691 4666 
L 3169 4666 
L 3169 4134 
L 1269 4134 
L 1269 2991 
Q 1406 3038 1543 3061 
Q 1681 3084 1819 3084 
Q 2600 3084 3056 2656 
Q 3513 2228 3513 1497 
Q 3513 744 3044 326 
Q 2575 -91 1722 -91 
Q 1428 -91 1123 -41 
Q 819 9 494 109 
L 494 744 
Q 775 591 1075 516 
Q 1375 441 1709 441 
Q 2250 441 2565 725 
Q 2881 1009 2881 1497 
Q 2881 1984 2565 2268 
Q 2250 2553 1709 2553 
Q 1456 2553 1204 2497 
Q 953 2441 691 2322 
L 691 4666 
z
" transform="scale(0.015625)"/>
       </defs>
       <use xlink:href="#DejaVuSans-31"/>
       <use xlink:href="#DejaVuSans-35" transform="translate(63.623047 0)"/>
      </g>
     </g>
    </g>
    <g id="xtick_3">
     <g id="line2d_5">
      <path d="M 198.664327 250.421875 
L 198.664327 22.318125 
" clip-path="url(#p171502f126)" style="fill: none; stroke-dasharray: 2.96,1.28; stroke-dashoffset: 0; stroke: #b0b0b0; stroke-opacity: 0.8; stroke-width: 0.8"/>
     </g>
     <g id="line2d_6">
      <g>
       <use xlink:href="#m548c1e85b3" x="198.664327" y="250.421875" style="stroke: #000000; stroke-width: 0.8"/>
      </g>
     </g>
     <g id="text_3">
      <!-- 30 -->
      <g transform="translate(192.301827 265.020312) scale(0.1 -0.1)">
       <defs>
        <path id="DejaVuSans-33" d="M 2597 2516 
Q 3050 2419 3304 2112 
Q 3559 1806 3559 1356 
Q 3559 666 3084 287 
Q 2609 -91 1734 -91 
Q 1441 -91 1130 -33 
Q 819 25 488 141 
L 488 750 
Q 750 597 1062 519 
Q 1375 441 1716 441 
Q 2309 441 2620 675 
Q 2931 909 2931 1356 
Q 2931 1769 2642 2001 
Q 2353 2234 1838 2234 
L 1294 2234 
L 1294 2753 
L 1863 2753 
Q 2328 2753 2575 2939 
Q 2822 3125 2822 3475 
Q 2822 3834 2567 4026 
Q 2313 4219 1838 4219 
Q 1578 4219 1281 4162 
Q 984 4106 628 3988 
L 628 4550 
Q 988 4650 1302 4700 
Q 1616 4750 1894 4750 
Q 2613 4750 3031 4423 
Q 3450 4097 3450 3541 
Q 3450 3153 3228 2886 
Q 3006 2619 2597 2516 
z
" transform="scale(0.015625)"/>
       </defs>
       <use xlink:href="#DejaVuSans-33"/>
       <use xlink:href="#DejaVuSans-30" transform="translate(63.623047 0)"/>
      </g>
     </g>
    </g>
    <g id="xtick_4">
     <g id="line2d_7">
      <path d="M 257.137577 250.421875 
L 257.137577 22.318125 
" clip-path="url(#p171502f126)" style="fill: none; stroke-dasharray: 2.96,1.28; stroke-dashoffset: 0; stroke: #b0b0b0; stroke-opacity: 0.8; stroke-width: 0.8"/>
     </g>
     <g id="line2d_8">
      <g>
       <use xlink:href="#m548c1e85b3" x="257.137577" y="250.421875" style="stroke: #000000; stroke-width: 0.8"/>
      </g>
     </g>
     <g id="text_4">
      <!-- 45 -->
      <g transform="translate(250.775077 265.020312) scale(0.1 -0.1)">
       <defs>
        <path id="DejaVuSans-34" d="M 2419 4116 
L 825 1625 
L 2419 1625 
L 2419 4116 
z
M 2253 4666 
L 3047 4666 
L 3047 1625 
L 3713 1625 
L 3713 1100 
L 3047 1100 
L 3047 0 
L 2419 0 
L 2419 1100 
L 313 1100 
L 313 1709 
L 2253 4666 
z
" transform="scale(0.015625)"/>
       </defs>
       <use xlink:href="#DejaVuSans-34"/>
       <use xlink:href="#DejaVuSans-35" transform="translate(63.623047 0)"/>
      </g>
     </g>
    </g>
    <g id="xtick_5">
     <g id="line2d_9">
      <path d="M 315.610827 250.421875 
L 315.610827 22.318125 
" clip-path="url(#p171502f126)" style="fill: none; stroke-dasharray: 2.96,1.28; stroke-dashoffset: 0; stroke: #b0b0b0; stroke-opacity: 0.8; stroke-width: 0.8"/>
     </g>
     <g id="line2d_10">
      <g>
       <use xlink:href="#m548c1e85b3" x="315.610827" y="250.421875" style="stroke: #000000; stroke-width: 0.8"/>
      </g>
     </g>
     <g id="text_5">
      <!-- 60 -->
      <g transform="translate(309.248327 265.020312) scale(0.1 -0.1)">
       <defs>
        <path id="DejaVuSans-36" d="M 2113 2584 
Q 1688 2584 1439 2293 
Q 1191 2003 1191 1497 
Q 1191 994 1439 701 
Q 1688 409 2113 409 
Q 2538 409 2786 701 
Q 3034 994 3034 1497 
Q 3034 2003 2786 2293 
Q 2538 2584 2113 2584 
z
M 3366 4563 
L 3366 3988 
Q 3128 4100 2886 4159 
Q 2644 4219 2406 4219 
Q 1781 4219 1451 3797 
Q 1122 3375 1075 2522 
Q 1259 2794 1537 2939 
Q 1816 3084 2150 3084 
Q 2853 3084 3261 2657 
Q 3669 2231 3669 1497 
Q 3669 778 3244 343 
Q 2819 -91 2113 -91 
Q 1303 -91 875 529 
Q 447 1150 447 2328 
Q 447 3434 972 4092 
Q 1497 4750 2381 4750 
Q 2619 4750 2861 4703 
Q 3103 4656 3366 4563 
z
" transform="scale(0.015625)"/>
       </defs>
       <use xlink:href="#DejaVuSans-36"/>
       <use xlink:href="#DejaVuSans-30" transform="translate(63.623047 0)"/>
      </g>
     </g>
    </g>
    <g id="xtick_6">
     <g id="line2d_11">
      <path d="M 374.084077 250.421875 
L 374.084077 22.318125 
" clip-path="url(#p171502f126)" style="fill: none; stroke-dasharray: 2.96,1.28; stroke-dashoffset: 0; stroke: #b0b0b0; stroke-opacity: 0.8; stroke-width: 0.8"/>
     </g>
     <g id="line2d_12">
      <g>
       <use xlink:href="#m548c1e85b3" x="374.084077" y="250.421875" style="stroke: #000000; stroke-width: 0.8"/>
      </g>
     </g>
     <g id="text_6">
      <!-- 75 -->
      <g transform="translate(367.721577 265.020312) scale(0.1 -0.1)">
       <defs>
        <path id="DejaVuSans-37" d="M 525 4666 
L 3525 4666 
L 3525 4397 
L 1831 0 
L 1172 0 
L 2766 4134 
L 525 4134 
L 525 4666 
z
" transform="scale(0.015625)"/>
       </defs>
       <use xlink:href="#DejaVuSans-37"/>
       <use xlink:href="#DejaVuSans-35" transform="translate(63.623047 0)"/>
      </g>
     </g>
    </g>
    <g id="xtick_7">
     <g id="line2d_13">
      <path d="M 432.557327 250.421875 
L 432.557327 22.318125 
" clip-path="url(#p171502f126)" style="fill: none; stroke-dasharray: 2.96,1.28; stroke-dashoffset: 0; stroke: #b0b0b0; stroke-opacity: 0.8; stroke-width: 0.8"/>
     </g>
     <g id="line2d_14">
      <g>
       <use xlink:href="#m548c1e85b3" x="432.557327" y="250.421875" style="stroke: #000000; stroke-width: 0.8"/>
      </g>
     </g>
     <g id="text_7">
      <!-- 90 -->
      <g transform="translate(426.194827 265.020312) scale(0.1 -0.1)">
       <defs>
        <path id="DejaVuSans-39" d="M 703 97 
L 703 672 
Q 941 559 1184 500 
Q 1428 441 1663 441 
Q 2288 441 2617 861 
Q 2947 1281 2994 2138 
Q 2813 1869 2534 1725 
Q 2256 1581 1919 1581 
Q 1219 1581 811 2004 
Q 403 2428 403 3163 
Q 403 3881 828 4315 
Q 1253 4750 1959 4750 
Q 2769 4750 3195 4129 
Q 3622 3509 3622 2328 
Q 3622 1225 3098 567 
Q 2575 -91 1691 -91 
Q 1453 -91 1209 -44 
Q 966 3 703 97 
z
M 1959 2075 
Q 2384 2075 2632 2365 
Q 2881 2656 2881 3163 
Q 2881 3666 2632 3958 
Q 2384 4250 1959 4250 
Q 1534 4250 1286 3958 
Q 1038 3666 1038 3163 
Q 1038 2656 1286 2365 
Q 1534 2075 1959 2075 
z
" transform="scale(0.015625)"/>
       </defs>
       <use xlink:href="#DejaVuSans-39"/>
       <use xlink:href="#DejaVuSans-30" transform="translate(63.623047 0)"/>
      </g>
     </g>
    </g>
    <g id="xtick_8">
     <g id="line2d_15">
      <path d="M 491.030577 250.421875 
L 491.030577 22.318125 
" clip-path="url(#p171502f126)" style="fill: none; stroke-dasharray: 2.96,1.28; stroke-dashoffset: 0; stroke: #b0b0b0; stroke-opacity: 0.8; stroke-width: 0.8"/>
     </g>
     <g id="line2d_16">
      <g>
       <use xlink:href="#m548c1e85b3" x="491.030577" y="250.421875" style="stroke: #000000; stroke-width: 0.8"/>
      </g>
     </g>
     <g id="text_8">
      <!-- 105 -->
      <g transform="translate(481.486827 265.020312) scale(0.1 -0.1)">
       <use xlink:href="#DejaVuSans-31"/>
       <use xlink:href="#DejaVuSans-30" transform="translate(63.623047 0)"/>
       <use xlink:href="#DejaVuSans-35" transform="translate(127.246094 0)"/>
      </g>
     </g>
    </g>
    <g id="xtick_9">
     <g id="line2d_17">
      <path d="M 549.503827 250.421875 
L 549.503827 22.318125 
" clip-path="url(#p171502f126)" style="fill: none; stroke-dasharray: 2.96,1.28; stroke-dashoffset: 0; stroke: #b0b0b0; stroke-opacity: 0.8; stroke-width: 0.8"/>
     </g>
     <g id="line2d_18">
      <g>
       <use xlink:href="#m548c1e85b3" x="549.503827" y="250.421875" style="stroke: #000000; stroke-width: 0.8"/>
      </g>
     </g>
     <g id="text_9">
      <!-- 120 -->
      <g transform="translate(539.960077 265.020312) scale(0.1 -0.1)">
       <defs>
        <path id="DejaVuSans-32" d="M 1228 531 
L 3431 531 
L 3431 0 
L 469 0 
L 469 531 
Q 828 903 1448 1529 
Q 2069 2156 2228 2338 
Q 2531 2678 2651 2914 
Q 2772 3150 2772 3378 
Q 2772 3750 2511 3984 
Q 2250 4219 1831 4219 
Q 1534 4219 1204 4116 
Q 875 4013 500 3803 
L 500 4441 
Q 881 4594 1212 4672 
Q 1544 4750 1819 4750 
Q 2544 4750 2975 4387 
Q 3406 4025 3406 3419 
Q 3406 3131 3298 2873 
Q 3191 2616 2906 2266 
Q 2828 2175 2409 1742 
Q 1991 1309 1228 531 
z
" transform="scale(0.015625)"/>
       </defs>
       <use xlink:href="#DejaVuSans-31"/>
       <use xlink:href="#DejaVuSans-32" transform="translate(63.623047 0)"/>
       <use xlink:href="#DejaVuSans-30" transform="translate(127.246094 0)"/>
      </g>
     </g>
    </g>
    <g id="text_10">
     <!-- Sample, $n$ -->
     <g transform="translate(288.561719 278.7) scale(0.1 -0.1)">
      <defs>
       <path id="DejaVuSans-53" d="M 3425 4513 
L 3425 3897 
Q 3066 4069 2747 4153 
Q 2428 4238 2131 4238 
Q 1616 4238 1336 4038 
Q 1056 3838 1056 3469 
Q 1056 3159 1242 3001 
Q 1428 2844 1947 2747 
L 2328 2669 
Q 3034 2534 3370 2195 
Q 3706 1856 3706 1288 
Q 3706 609 3251 259 
Q 2797 -91 1919 -91 
Q 1588 -91 1214 -16 
Q 841 59 441 206 
L 441 856 
Q 825 641 1194 531 
Q 1563 422 1919 422 
Q 2459 422 2753 634 
Q 3047 847 3047 1241 
Q 3047 1584 2836 1778 
Q 2625 1972 2144 2069 
L 1759 2144 
Q 1053 2284 737 2584 
Q 422 2884 422 3419 
Q 422 4038 858 4394 
Q 1294 4750 2059 4750 
Q 2388 4750 2728 4690 
Q 3069 4631 3425 4513 
z
" transform="scale(0.015625)"/>
       <path id="DejaVuSans-61" d="M 2194 1759 
Q 1497 1759 1228 1600 
Q 959 1441 959 1056 
Q 959 750 1161 570 
Q 1363 391 1709 391 
Q 2188 391 2477 730 
Q 2766 1069 2766 1631 
L 2766 1759 
L 2194 1759 
z
M 3341 1997 
L 3341 0 
L 2766 0 
L 2766 531 
Q 2569 213 2275 61 
Q 1981 -91 1556 -91 
Q 1019 -91 701 211 
Q 384 513 384 1019 
Q 384 1609 779 1909 
Q 1175 2209 1959 2209 
L 2766 2209 
L 2766 2266 
Q 2766 2663 2505 2880 
Q 2244 3097 1772 3097 
Q 1472 3097 1187 3025 
Q 903 2953 641 2809 
L 641 3341 
Q 956 3463 1253 3523 
Q 1550 3584 1831 3584 
Q 2591 3584 2966 3190 
Q 3341 2797 3341 1997 
z
" transform="scale(0.015625)"/>
       <path id="DejaVuSans-6d" d="M 3328 2828 
Q 3544 3216 3844 3400 
Q 4144 3584 4550 3584 
Q 5097 3584 5394 3201 
Q 5691 2819 5691 2113 
L 5691 0 
L 5113 0 
L 5113 2094 
Q 5113 2597 4934 2840 
Q 4756 3084 4391 3084 
Q 3944 3084 3684 2787 
Q 3425 2491 3425 1978 
L 3425 0 
L 2847 0 
L 2847 2094 
Q 2847 2600 2669 2842 
Q 2491 3084 2119 3084 
Q 1678 3084 1418 2786 
Q 1159 2488 1159 1978 
L 1159 0 
L 581 0 
L 581 3500 
L 1159 3500 
L 1159 2956 
Q 1356 3278 1631 3431 
Q 1906 3584 2284 3584 
Q 2666 3584 2933 3390 
Q 3200 3197 3328 2828 
z
" transform="scale(0.015625)"/>
       <path id="DejaVuSans-70" d="M 1159 525 
L 1159 -1331 
L 581 -1331 
L 581 3500 
L 1159 3500 
L 1159 2969 
Q 1341 3281 1617 3432 
Q 1894 3584 2278 3584 
Q 2916 3584 3314 3078 
Q 3713 2572 3713 1747 
Q 3713 922 3314 415 
Q 2916 -91 2278 -91 
Q 1894 -91 1617 61 
Q 1341 213 1159 525 
z
M 3116 1747 
Q 3116 2381 2855 2742 
Q 2594 3103 2138 3103 
Q 1681 3103 1420 2742 
Q 1159 2381 1159 1747 
Q 1159 1113 1420 752 
Q 1681 391 2138 391 
Q 2594 391 2855 752 
Q 3116 1113 3116 1747 
z
" transform="scale(0.015625)"/>
       <path id="DejaVuSans-6c" d="M 603 4863 
L 1178 4863 
L 1178 0 
L 603 0 
L 603 4863 
z
" transform="scale(0.015625)"/>
       <path id="DejaVuSans-65" d="M 3597 1894 
L 3597 1613 
L 953 1613 
Q 991 1019 1311 708 
Q 1631 397 2203 397 
Q 2534 397 2845 478 
Q 3156 559 3463 722 
L 3463 178 
Q 3153 47 2828 -22 
Q 2503 -91 2169 -91 
Q 1331 -91 842 396 
Q 353 884 353 1716 
Q 353 2575 817 3079 
Q 1281 3584 2069 3584 
Q 2775 3584 3186 3129 
Q 3597 2675 3597 1894 
z
M 3022 2063 
Q 3016 2534 2758 2815 
Q 2500 3097 2075 3097 
Q 1594 3097 1305 2825 
Q 1016 2553 972 2059 
L 3022 2063 
z
" transform="scale(0.015625)"/>
       <path id="DejaVuSans-2c" d="M 750 794 
L 1409 794 
L 1409 256 
L 897 -744 
L 494 -744 
L 750 256 
L 750 794 
z
" transform="scale(0.015625)"/>
       <path id="DejaVuSans-20" transform="scale(0.015625)"/>
       <path id="DejaVuSans-Oblique-6e" d="M 3566 2113 
L 3156 0 
L 2578 0 
L 2988 2091 
Q 3016 2238 3031 2350 
Q 3047 2463 3047 2528 
Q 3047 2791 2881 2937 
Q 2716 3084 2419 3084 
Q 1956 3084 1622 2776 
Q 1288 2469 1184 1941 
L 800 0 
L 225 0 
L 903 3500 
L 1478 3500 
L 1363 2950 
Q 1603 3253 1940 3418 
Q 2278 3584 2650 3584 
Q 3113 3584 3367 3334 
Q 3622 3084 3622 2631 
Q 3622 2519 3608 2391 
Q 3594 2263 3566 2113 
z
" transform="scale(0.015625)"/>
      </defs>
      <use xlink:href="#DejaVuSans-53" transform="translate(0 0.015625)"/>
      <use xlink:href="#DejaVuSans-61" transform="translate(63.476562 0.015625)"/>
      <use xlink:href="#DejaVuSans-6d" transform="translate(124.755859 0.015625)"/>
      <use xlink:href="#DejaVuSans-70" transform="translate(222.167969 0.015625)"/>
      <use xlink:href="#DejaVuSans-6c" transform="translate(285.644531 0.015625)"/>
      <use xlink:href="#DejaVuSans-65" transform="translate(313.427734 0.015625)"/>
      <use xlink:href="#DejaVuSans-2c" transform="translate(374.951172 0.015625)"/>
      <use xlink:href="#DejaVuSans-20" transform="translate(406.738281 0.015625)"/>
      <use xlink:href="#DejaVuSans-Oblique-6e" transform="translate(438.525391 0.015625)"/>
     </g>
    </g>
   </g>
   <g id="matplotlib.axis_2">
    <g id="ytick_1">
     <g id="line2d_19">
      <path d="M 58.523438 240.053523 
L 568.8 240.053523 
" clip-path="url(#p171502f126)" style="fill: none; stroke-dasharray: 2.96,1.28; stroke-dashoffset: 0; stroke: #b0b0b0; stroke-opacity: 0.8; stroke-width: 0.8"/>
     </g>
     <g id="line2d_20">
      <defs>
       <path id="mcc64ebcf1e" d="M 0 0 
L -3.5 0 
" style="stroke: #000000; stroke-width: 0.8"/>
      </defs>
      <g>
       <use xlink:href="#mcc64ebcf1e" x="58.523438" y="240.053523" style="stroke: #000000; stroke-width: 0.8"/>
      </g>
     </g>
     <g id="text_11">
      <!-- −1.00 -->
      <g transform="translate(20.878125 243.852741) scale(0.1 -0.1)">
       <defs>
        <path id="DejaVuSans-2212" d="M 678 2272 
L 4684 2272 
L 4684 1741 
L 678 1741 
L 678 2272 
z
" transform="scale(0.015625)"/>
        <path id="DejaVuSans-2e" d="M 684 794 
L 1344 794 
L 1344 0 
L 684 0 
L 684 794 
z
" transform="scale(0.015625)"/>
       </defs>
       <use xlink:href="#DejaVuSans-2212"/>
       <use xlink:href="#DejaVuSans-31" transform="translate(83.789062 0)"/>
       <use xlink:href="#DejaVuSans-2e" transform="translate(147.412109 0)"/>
       <use xlink:href="#DejaVuSans-30" transform="translate(179.199219 0)"/>
       <use xlink:href="#DejaVuSans-30" transform="translate(242.822266 0)"/>
      </g>
     </g>
    </g>
    <g id="ytick_2">
     <g id="line2d_21">
      <path d="M 58.523438 214.132642 
L 568.8 214.132642 
" clip-path="url(#p171502f126)" style="fill: none; stroke-dasharray: 2.96,1.28; stroke-dashoffset: 0; stroke: #b0b0b0; stroke-opacity: 0.8; stroke-width: 0.8"/>
     </g>
     <g id="line2d_22">
      <g>
       <use xlink:href="#mcc64ebcf1e" x="58.523438" y="214.132642" style="stroke: #000000; stroke-width: 0.8"/>
      </g>
     </g>
     <g id="text_12">
      <!-- −0.75 -->
      <g transform="translate(20.878125 217.931861) scale(0.1 -0.1)">
       <use xlink:href="#DejaVuSans-2212"/>
       <use xlink:href="#DejaVuSans-30" transform="translate(83.789062 0)"/>
       <use xlink:href="#DejaVuSans-2e" transform="translate(147.412109 0)"/>
       <use xlink:href="#DejaVuSans-37" transform="translate(179.199219 0)"/>
       <use xlink:href="#DejaVuSans-35" transform="translate(242.822266 0)"/>
      </g>
     </g>
    </g>
    <g id="ytick_3">
     <g id="line2d_23">
      <path d="M 58.523438 188.211761 
L 568.8 188.211761 
" clip-path="url(#p171502f126)" style="fill: none; stroke-dasharray: 2.96,1.28; stroke-dashoffset: 0; stroke: #b0b0b0; stroke-opacity: 0.8; stroke-width: 0.8"/>
     </g>
     <g id="line2d_24">
      <g>
       <use xlink:href="#mcc64ebcf1e" x="58.523438" y="188.211761" style="stroke: #000000; stroke-width: 0.8"/>
      </g>
     </g>
     <g id="text_13">
      <!-- −0.50 -->
      <g transform="translate(20.878125 192.01098) scale(0.1 -0.1)">
       <use xlink:href="#DejaVuSans-2212"/>
       <use xlink:href="#DejaVuSans-30" transform="translate(83.789062 0)"/>
       <use xlink:href="#DejaVuSans-2e" transform="translate(147.412109 0)"/>
       <use xlink:href="#DejaVuSans-35" transform="translate(179.199219 0)"/>
       <use xlink:href="#DejaVuSans-30" transform="translate(242.822266 0)"/>
      </g>
     </g>
    </g>
    <g id="ytick_4">
     <g id="line2d_25">
      <path d="M 58.523438 162.290881 
L 568.8 162.290881 
" clip-path="url(#p171502f126)" style="fill: none; stroke-dasharray: 2.96,1.28; stroke-dashoffset: 0; stroke: #b0b0b0; stroke-opacity: 0.8; stroke-width: 0.8"/>
     </g>
     <g id="line2d_26">
      <g>
       <use xlink:href="#mcc64ebcf1e" x="58.523438" y="162.290881" style="stroke: #000000; stroke-width: 0.8"/>
      </g>
     </g>
     <g id="text_14">
      <!-- −0.25 -->
      <g transform="translate(20.878125 166.090099) scale(0.1 -0.1)">
       <use xlink:href="#DejaVuSans-2212"/>
       <use xlink:href="#DejaVuSans-30" transform="translate(83.789062 0)"/>
       <use xlink:href="#DejaVuSans-2e" transform="translate(147.412109 0)"/>
       <use xlink:href="#DejaVuSans-32" transform="translate(179.199219 0)"/>
       <use xlink:href="#DejaVuSans-35" transform="translate(242.822266 0)"/>
      </g>
     </g>
    </g>
    <g id="ytick_5">
     <g id="line2d_27">
      <path d="M 58.523438 136.37 
L 568.8 136.37 
" clip-path="url(#p171502f126)" style="fill: none; stroke-dasharray: 2.96,1.28; stroke-dashoffset: 0; stroke: #b0b0b0; stroke-opacity: 0.8; stroke-width: 0.8"/>
     </g>
     <g id="line2d_28">
      <g>
       <use xlink:href="#mcc64ebcf1e" x="58.523438" y="136.37" style="stroke: #000000; stroke-width: 0.8"/>
      </g>
     </g>
     <g id="text_15">
      <!-- 0.00 -->
      <g transform="translate(29.257813 140.169219) scale(0.1 -0.1)">
       <use xlink:href="#DejaVuSans-30"/>
       <use xlink:href="#DejaVuSans-2e" transform="translate(63.623047 0)"/>
       <use xlink:href="#DejaVuSans-30" transform="translate(95.410156 0)"/>
       <use xlink:href="#DejaVuSans-30" transform="translate(159.033203 0)"/>
      </g>
     </g>
    </g>
    <g id="ytick_6">
     <g id="line2d_29">
      <path d="M 58.523438 110.449119 
L 568.8 110.449119 
" clip-path="url(#p171502f126)" style="fill: none; stroke-dasharray: 2.96,1.28; stroke-dashoffset: 0; stroke: #b0b0b0; stroke-opacity: 0.8; stroke-width: 0.8"/>
     </g>
     <g id="line2d_30">
      <g>
       <use xlink:href="#mcc64ebcf1e" x="58.523438" y="110.449119" style="stroke: #000000; stroke-width: 0.8"/>
      </g>
     </g>
     <g id="text_16">
      <!-- 0.25 -->
      <g transform="translate(29.257813 114.248338) scale(0.1 -0.1)">
       <use xlink:href="#DejaVuSans-30"/>
       <use xlink:href="#DejaVuSans-2e" transform="translate(63.623047 0)"/>
       <use xlink:href="#DejaVuSans-32" transform="translate(95.410156 0)"/>
       <use xlink:href="#DejaVuSans-35" transform="translate(159.033203 0)"/>
      </g>
     </g>
    </g>
    <g id="ytick_7">
     <g id="line2d_31">
      <path d="M 58.523438 84.528239 
L 568.8 84.528239 
" clip-path="url(#p171502f126)" style="fill: none; stroke-dasharray: 2.96,1.28; stroke-dashoffset: 0; stroke: #b0b0b0; stroke-opacity: 0.8; stroke-width: 0.8"/>
     </g>
     <g id="line2d_32">
      <g>
       <use xlink:href="#mcc64ebcf1e" x="58.523438" y="84.528239" style="stroke: #000000; stroke-width: 0.8"/>
      </g>
     </g>
     <g id="text_17">
      <!-- 0.50 -->
      <g transform="translate(29.257813 88.327457) scale(0.1 -0.1)">
       <use xlink:href="#DejaVuSans-30"/>
       <use xlink:href="#DejaVuSans-2e" transform="translate(63.623047 0)"/>
       <use xlink:href="#DejaVuSans-35" transform="translate(95.410156 0)"/>
       <use xlink:href="#DejaVuSans-30" transform="translate(159.033203 0)"/>
      </g>
     </g>
    </g>
    <g id="ytick_8">
     <g id="line2d_33">
      <path d="M 58.523438 58.607358 
L 568.8 58.607358 
" clip-path="url(#p171502f126)" style="fill: none; stroke-dasharray: 2.96,1.28; stroke-dashoffset: 0; stroke: #b0b0b0; stroke-opacity: 0.8; stroke-width: 0.8"/>
     </g>
     <g id="line2d_34">
      <g>
       <use xlink:href="#mcc64ebcf1e" x="58.523438" y="58.607358" style="stroke: #000000; stroke-width: 0.8"/>
      </g>
     </g>
     <g id="text_18">
      <!-- 0.75 -->
      <g transform="translate(29.257813 62.406577) scale(0.1 -0.1)">
       <use xlink:href="#DejaVuSans-30"/>
       <use xlink:href="#DejaVuSans-2e" transform="translate(63.623047 0)"/>
       <use xlink:href="#DejaVuSans-37" transform="translate(95.410156 0)"/>
       <use xlink:href="#DejaVuSans-35" transform="translate(159.033203 0)"/>
      </g>
     </g>
    </g>
    <g id="ytick_9">
     <g id="line2d_35">
      <path d="M 58.523438 32.686477 
L 568.8 32.686477 
" clip-path="url(#p171502f126)" style="fill: none; stroke-dasharray: 2.96,1.28; stroke-dashoffset: 0; stroke: #b0b0b0; stroke-opacity: 0.8; stroke-width: 0.8"/>
     </g>
     <g id="line2d_36">
      <g>
       <use xlink:href="#mcc64ebcf1e" x="58.523438" y="32.686477" style="stroke: #000000; stroke-width: 0.8"/>
      </g>
     </g>
     <g id="text_19">
      <!-- 1.00 -->
      <g transform="translate(29.257813 36.485696) scale(0.1 -0.1)">
       <use xlink:href="#DejaVuSans-31"/>
       <use xlink:href="#DejaVuSans-2e" transform="translate(63.623047 0)"/>
       <use xlink:href="#DejaVuSans-30" transform="translate(95.410156 0)"/>
       <use xlink:href="#DejaVuSans-30" transform="translate(159.033203 0)"/>
      </g>
     </g>
    </g>
    <g id="text_20">
     <!-- Amplitude -->
     <g transform="translate(14.798438 161.992656) rotate(-90) scale(0.1 -0.1)">
      <defs>
       <path id="DejaVuSans-41" d="M 2188 4044 
L 1331 1722 
L 3047 1722 
L 2188 4044 
z
M 1831 4666 
L 2547 4666 
L 4325 0 
L 3669 0 
L 3244 1197 
L 1141 1197 
L 716 0 
L 50 0 
L 1831 4666 
z
" transform="scale(0.015625)"/>
       <path id="DejaVuSans-69" d="M 603 3500 
L 1178 3500 
L 1178 0 
L 603 0 
L 603 3500 
z
M 603 4863 
L 1178 4863 
L 1178 4134 
L 603 4134 
L 603 4863 
z
" transform="scale(0.015625)"/>
       <path id="DejaVuSans-74" d="M 1172 4494 
L 1172 3500 
L 2356 3500 
L 2356 3053 
L 1172 3053 
L 1172 1153 
Q 1172 725 1289 603 
Q 1406 481 1766 481 
L 2356 481 
L 2356 0 
L 1766 0 
Q 1100 0 847 248 
Q 594 497 594 1153 
L 594 3053 
L 172 3053 
L 172 3500 
L 594 3500 
L 594 4494 
L 1172 4494 
z
" transform="scale(0.015625)"/>
       <path id="DejaVuSans-75" d="M 544 1381 
L 544 3500 
L 1119 3500 
L 1119 1403 
Q 1119 906 1312 657 
Q 1506 409 1894 409 
Q 2359 409 2629 706 
Q 2900 1003 2900 1516 
L 2900 3500 
L 3475 3500 
L 3475 0 
L 2900 0 
L 2900 538 
Q 2691 219 2414 64 
Q 2138 -91 1772 -91 
Q 1169 -91 856 284 
Q 544 659 544 1381 
z
M 1991 3584 
L 1991 3584 
z
" transform="scale(0.015625)"/>
       <path id="DejaVuSans-64" d="M 2906 2969 
L 2906 4863 
L 3481 4863 
L 3481 0 
L 2906 0 
L 2906 525 
Q 2725 213 2448 61 
Q 2172 -91 1784 -91 
Q 1150 -91 751 415 
Q 353 922 353 1747 
Q 353 2572 751 3078 
Q 1150 3584 1784 3584 
Q 2172 3584 2448 3432 
Q 2725 3281 2906 2969 
z
M 947 1747 
Q 947 1113 1208 752 
Q 1469 391 1925 391 
Q 2381 391 2643 752 
Q 2906 1113 2906 1747 
Q 2906 2381 2643 2742 
Q 2381 3103 1925 3103 
Q 1469 3103 1208 2742 
Q 947 2381 947 1747 
z
" transform="scale(0.015625)"/>
      </defs>
      <use xlink:href="#DejaVuSans-41"/>
      <use xlink:href="#DejaVuSans-6d" transform="translate(68.408203 0)"/>
      <use xlink:href="#DejaVuSans-70" transform="translate(165.820312 0)"/>
      <use xlink:href="#DejaVuSans-6c" transform="translate(229.296875 0)"/>
      <use xlink:href="#DejaVuSans-69" transform="translate(257.080078 0)"/>
      <use xlink:href="#DejaVuSans-74" transform="translate(284.863281 0)"/>
      <use xlink:href="#DejaVuSans-75" transform="translate(324.072266 0)"/>
      <use xlink:href="#DejaVuSans-64" transform="translate(387.451172 0)"/>
      <use xlink:href="#DejaVuSans-65" transform="translate(450.927734 0)"/>
     </g>
    </g>
   </g>
   <g id="line2d_37">
    <path d="M 81.717827 32.686477 
L 85.616043 33.254466 
L 89.51426 34.952211 
L 93.412477 37.76111 
L 97.310693 41.650389 
L 101.20891 46.577435 
L 105.107127 52.488268 
L 109.005343 59.318127 
L 112.90356 66.992182 
L 116.801777 75.426354 
L 120.699993 84.528239 
L 124.59821 94.198112 
L 128.496427 104.330029 
L 132.394643 114.812983 
L 136.29286 125.532121 
L 140.191077 136.37 
L 144.089293 147.207879 
L 147.98751 157.927017 
L 151.885727 168.409971 
L 155.783943 178.541888 
L 159.68216 188.211761 
L 163.580377 205.747818 
L 167.478594 220.251732 
L 171.37681 231.089611 
L 175.275027 237.787789 
L 179.173244 240.053523 
L 183.07146 237.787789 
L 186.969677 231.089611 
L 190.867894 220.251732 
L 194.76611 205.747818 
L 198.664327 188.211761 
L 202.562544 168.409971 
L 206.46076 147.207879 
L 210.358977 125.532121 
L 214.257194 104.330029 
L 218.15541 84.528239 
L 222.053627 66.992182 
L 225.951844 52.488268 
L 229.85006 41.650389 
L 233.748277 34.952211 
L 237.646494 32.686477 
L 241.54471 37.76111 
L 245.442927 52.488268 
L 249.341144 75.426354 
L 253.23936 104.330029 
L 257.137577 136.37 
L 261.035794 168.409971 
L 264.93401 197.313646 
L 268.832227 220.251732 
L 272.730444 234.97889 
L 276.62866 240.053523 
L 280.526877 234.97889 
L 284.425094 220.251732 
L 288.32331 197.313646 
L 292.221527 168.409971 
L 296.119744 136.37 
L 300.01796 104.330029 
L 303.916177 75.426354 
L 307.814394 52.488268 
L 311.71261 37.76111 
L 315.610827 32.686477 
L 319.509044 32.686477 
L 323.40726 32.686477 
L 327.305477 32.686477 
L 331.203694 32.686477 
L 335.10191 32.686477 
L 339.000127 32.686477 
L 342.898344 32.686477 
L 346.79656 32.686477 
L 350.694777 32.686477 
L 354.592994 32.686477 
L 358.49121 32.686477 
L 362.389427 32.686477 
L 366.287644 32.686477 
L 370.185861 32.686477 
L 374.084077 32.686477 
L 377.982294 32.686477 
L 381.880511 32.686477 
L 385.778727 32.686477 
L 389.676944 32.686477 
L 393.575161 32.686477 
L 397.473377 34.952211 
L 401.371594 41.650389 
L 405.269811 52.488268 
L 409.168027 66.992182 
L 413.066244 84.528239 
L 416.964461 104.330029 
L 420.862677 125.532121 
L 424.760894 147.207879 
L 428.659111 168.409971 
L 432.557327 188.211761 
L 436.455544 205.747818 
L 440.353761 220.251732 
L 444.251977 231.089611 
L 448.150194 237.787789 
L 452.048411 240.053523 
L 455.946627 237.787789 
L 459.844844 231.089611 
L 463.743061 220.251732 
L 467.641277 205.747818 
L 471.539494 188.211761 
L 475.437711 197.313646 
L 479.335927 205.747818 
L 483.234144 213.421873 
L 487.132361 220.251732 
L 491.030577 226.162565 
L 494.928794 231.089611 
L 498.827011 234.97889 
L 502.725227 237.787789 
L 506.623444 239.485534 
L 510.521661 240.053523 
L 514.419877 239.485534 
L 518.318094 237.787789 
L 522.216311 234.97889 
L 526.114527 231.089611 
L 530.012744 226.162565 
L 533.910961 220.251732 
L 537.809177 213.421873 
L 541.707394 205.747818 
L 545.605611 197.313646 
" clip-path="url(#p171502f126)" style="fill: none; stroke: #1f77b4; stroke-linecap: square"/>
    <defs>
     <path id="m40746d98b7" d="M 0 1.5 
C 0.397805 1.5 0.77937 1.341951 1.06066 1.06066 
C 1.341951 0.77937 1.5 0.397805 1.5 0 
C 1.5 -0.397805 1.341951 -0.77937 1.06066 -1.06066 
C 0.77937 -1.341951 0.397805 -1.5 0 -1.5 
C -0.397805 -1.5 -0.77937 -1.341951 -1.06066 -1.06066 
C -1.341951 -0.77937 -1.5 -0.397805 -1.5 0 
C -1.5 0.397805 -1.341951 0.77937 -1.06066 1.06066 
C -0.77937 1.341951 -0.397805 1.5 0 1.5 
z
" style="stroke: #1f77b4"/>
    </defs>
    <g clip-path="url(#p171502f126)">
     <use xlink:href="#m40746d98b7" x="81.717827" y="32.686477" style="fill: #1f77b4; stroke: #1f77b4"/>
     <use xlink:href="#m40746d98b7" x="85.616043" y="33.254466" style="fill: #1f77b4; stroke: #1f77b4"/>
     <use xlink:href="#m40746d98b7" x="89.51426" y="34.952211" style="fill: #1f77b4; stroke: #1f77b4"/>
     <use xlink:href="#m40746d98b7" x="93.412477" y="37.76111" style="fill: #1f77b4; stroke: #1f77b4"/>
     <use xlink:href="#m40746d98b7" x="97.310693" y="41.650389" style="fill: #1f77b4; stroke: #1f77b4"/>
     <use xlink:href="#m40746d98b7" x="101.20891" y="46.577435" style="fill: #1f77b4; stroke: #1f77b4"/>
     <use xlink:href="#m40746d98b7" x="105.107127" y="52.488268" style="fill: #1f77b4; stroke: #1f77b4"/>
     <use xlink:href="#m40746d98b7" x="109.005343" y="59.318127" style="fill: #1f77b4; stroke: #1f77b4"/>
     <use xlink:href="#m40746d98b7" x="112.90356" y="66.992182" style="fill: #1f77b4; stroke: #1f77b4"/>
     <use xlink:href="#m40746d98b7" x="116.801777" y="75.426354" style="fill: #1f77b4; stroke: #1f77b4"/>
     <use xlink:href="#m40746d98b7" x="120.699993" y="84.528239" style="fill: #1f77b4; stroke: #1f77b4"/>
     <use xlink:href="#m40746d98b7" x="124.59821" y="94.198112" style="fill: #1f77b4; stroke: #1f77b4"/>
     <use xlink:href="#m40746d98b7" x="128.496427" y="104.330029" style="fill: #1f77b4; stroke: #1f77b4"/>
     <use xlink:href="#m40746d98b7" x="132.394643" y="114.812983" style="fill: #1f77b4; stroke: #1f77b4"/>
     <use xlink:href="#m40746d98b7" x="136.29286" y="125.532121" style="fill: #1f77b4; stroke: #1f77b4"/>
     <use xlink:href="#m40746d98b7" x="140.191077" y="136.37" style="fill: #1f77b4; stroke: #1f77b4"/>
     <use xlink:href="#m40746d98b7" x="144.089293" y="147.207879" style="fill: #1f77b4; stroke: #1f77b4"/>
     <use xlink:href="#m40746d98b7" x="147.98751" y="157.927017" style="fill: #1f77b4; stroke: #1f77b4"/>
     <use xlink:href="#m40746d98b7" x="151.885727" y="168.409971" style="fill: #1f77b4; stroke: #1f77b4"/>
     <use xlink:href="#m40746d98b7" x="155.783943" y="178.541888" style="fill: #1f77b4; stroke: #1f77b4"/>
     <use xlink:href="#m40746d98b7" x="159.68216" y="188.211761" style="fill: #1f77b4; stroke: #1f77b4"/>
     <use xlink:href="#m40746d98b7" x="163.580377" y="205.747818" style="fill: #1f77b4; stroke: #1f77b4"/>
     <use xlink:href="#m40746d98b7" x="167.478594" y="220.251732" style="fill: #1f77b4; stroke: #1f77b4"/>
     <use xlink:href="#m40746d98b7" x="171.37681" y="231.089611" style="fill: #1f77b4; stroke: #1f77b4"/>
     <use xlink:href="#m40746d98b7" x="175.275027" y="237.787789" style="fill: #1f77b4; stroke: #1f77b4"/>
     <use xlink:href="#m40746d98b7" x="179.173244" y="240.053523" style="fill: #1f77b4; stroke: #1f77b4"/>
     <use xlink:href="#m40746d98b7" x="183.07146" y="237.787789" style="fill: #1f77b4; stroke: #1f77b4"/>
     <use xlink:href="#m40746d98b7" x="186.969677" y="231.089611" style="fill: #1f77b4; stroke: #1f77b4"/>
     <use xlink:href="#m40746d98b7" x="190.867894" y="220.251732" style="fill: #1f77b4; stroke: #1f77b4"/>
     <use xlink:href="#m40746d98b7" x="194.76611" y="205.747818" style="fill: #1f77b4; stroke: #1f77b4"/>
     <use xlink:href="#m40746d98b7" x="198.664327" y="188.211761" style="fill: #1f77b4; stroke: #1f77b4"/>
     <use xlink:href="#m40746d98b7" x="202.562544" y="168.409971" style="fill: #1f77b4; stroke: #1f77b4"/>
     <use xlink:href="#m40746d98b7" x="206.46076" y="147.207879" style="fill: #1f77b4; stroke: #1f77b4"/>
     <use xlink:href="#m40746d98b7" x="210.358977" y="125.532121" style="fill: #1f77b4; stroke: #1f77b4"/>
     <use xlink:href="#m40746d98b7" x="214.257194" y="104.330029" style="fill: #1f77b4; stroke: #1f77b4"/>
     <use xlink:href="#m40746d98b7" x="218.15541" y="84.528239" style="fill: #1f77b4; stroke: #1f77b4"/>
     <use xlink:href="#m40746d98b7" x="222.053627" y="66.992182" style="fill: #1f77b4; stroke: #1f77b4"/>
     <use xlink:href="#m40746d98b7" x="225.951844" y="52.488268" style="fill: #1f77b4; stroke: #1f77b4"/>
     <use xlink:href="#m40746d98b7" x="229.85006" y="41.650389" style="fill: #1f77b4; stroke: #1f77b4"/>
     <use xlink:href="#m40746d98b7" x="233.748277" y="34.952211" style="fill: #1f77b4; stroke: #1f77b4"/>
     <use xlink:href="#m40746d98b7" x="237.646494" y="32.686477" style="fill: #1f77b4; stroke: #1f77b4"/>
     <use xlink:href="#m40746d98b7" x="241.54471" y="37.76111" style="fill: #1f77b4; stroke: #1f77b4"/>
     <use xlink:href="#m40746d98b7" x="245.442927" y="52.488268" style="fill: #1f77b4; stroke: #1f77b4"/>
     <use xlink:href="#m40746d98b7" x="249.341144" y="75.426354" style="fill: #1f77b4; stroke: #1f77b4"/>
     <use xlink:href="#m40746d98b7" x="253.23936" y="104.330029" style="fill: #1f77b4; stroke: #1f77b4"/>
     <use xlink:href="#m40746d98b7" x="257.137577" y="136.37" style="fill: #1f77b4; stroke: #1f77b4"/>
     <use xlink:href="#m40746d98b7" x="261.035794" y="168.409971" style="fill: #1f77b4; stroke: #1f77b4"/>
     <use xlink:href="#m40746d98b7" x="264.93401" y="197.313646" style="fill: #1f77b4; stroke: #1f77b4"/>
     <use xlink:href="#m40746d98b7" x="268.832227" y="220.251732" style="fill: #1f77b4; stroke: #1f77b4"/>
     <use xlink:href="#m40746d98b7" x="272.730444" y="234.97889" style="fill: #1f77b4; stroke: #1f77b4"/>
     <use xlink:href="#m40746d98b7" x="276.62866" y="240.053523" style="fill: #1f77b4; stroke: #1f77b4"/>
     <use xlink:href="#m40746d98b7" x="280.526877" y="234.97889" style="fill: #1f77b4; stroke: #1f77b4"/>
     <use xlink:href="#m40746d98b7" x="284.425094" y="220.251732" style="fill: #1f77b4; stroke: #1f77b4"/>
     <use xlink:href="#m40746d98b7" x="288.32331" y="197.313646" style="fill: #1f77b4; stroke: #1f77b4"/>
     <use xlink:href="#m40746d98b7" x="292.221527" y="168.409971" style="fill: #1f77b4; stroke: #1f77b4"/>
     <use xlink:href="#m40746d98b7" x="296.119744" y="136.37" style="fill: #1f77b4; stroke: #1f77b4"/>
     <use xlink:href="#m40746d98b7" x="300.01796" y="104.330029" style="fill: #1f77b4; stroke: #1f77b4"/>
     <use xlink:href="#m40746d98b7" x="303.916177" y="75.426354" style="fill: #1f77b4; stroke: #1f77b4"/>
     <use xlink:href="#m40746d98b7" x="307.814394" y="52.488268" style="fill: #1f77b4; stroke: #1f77b4"/>
     <use xlink:href="#m40746d98b7" x="311.71261" y="37.76111" style="fill: #1f77b4; stroke: #1f77b4"/>
     <use xlink:href="#m40746d98b7" x="315.610827" y="32.686477" style="fill: #1f77b4; stroke: #1f77b4"/>
     <use xlink:href="#m40746d98b7" x="319.509044" y="32.686477" style="fill: #1f77b4; stroke: #1f77b4"/>
     <use xlink:href="#m40746d98b7" x="323.40726" y="32.686477" style="fill: #1f77b4; stroke: #1f77b4"/>
     <use xlink:href="#m40746d98b7" x="327.305477" y="32.686477" style="fill: #1f77b4; stroke: #1f77b4"/>
     <use xlink:href="#m40746d98b7" x="331.203694" y="32.686477" style="fill: #1f77b4; stroke: #1f77b4"/>
     <use xlink:href="#m40746d98b7" x="335.10191" y="32.686477" style="fill: #1f77b4; stroke: #1f77b4"/>
     <use xlink:href="#m40746d98b7" x="339.000127" y="32.686477" style="fill: #1f77b4; stroke: #1f77b4"/>
     <use xlink:href="#m40746d98b7" x="342.898344" y="32.686477" style="fill: #1f77b4; stroke: #1f77b4"/>
     <use xlink:href="#m40746d98b7" x="346.79656" y="32.686477" style="fill: #1f77b4; stroke: #1f77b4"/>
     <use xlink:href="#m40746d98b7" x="350.694777" y="32.686477" style="fill: #1f77b4; stroke: #1f77b4"/>
     <use xlink:href="#m40746d98b7" x="354.592994" y="32.686477" style="fill: #1f77b4; stroke: #1f77b4"/>
     <use xlink:href="#m40746d98b7" x="358.49121" y="32.686477" style="fill: #1f77b4; stroke: #1f77b4"/>
     <use xlink:href="#m40746d98b7" x="362.389427" y="32.686477" style="fill: #1f77b4; stroke: #1f77b4"/>
     <use xlink:href="#m40746d98b7" x="366.287644" y="32.686477" style="fill: #1f77b4; stroke: #1f77b4"/>
     <use xlink:href="#m40746d98b7" x="370.185861" y="32.686477" style="fill: #1f77b4; stroke: #1f77b4"/>
     <use xlink:href="#m40746d98b7" x="374.084077" y="32.686477" style="fill: #1f77b4; stroke: #1f77b4"/>
     <use xlink:href="#m40746d98b7" x="377.982294" y="32.686477" style="fill: #1f77b4; stroke: #1f77b4"/>
     <use xlink:href="#m40746d98b7" x="381.880511" y="32.686477" style="fill: #1f77b4; stroke: #1f77b4"/>
     <use xlink:href="#m40746d98b7" x="385.778727" y="32.686477" style="fill: #1f77b4; stroke: #1f77b4"/>
     <use xlink:href="#m40746d98b7" x="389.676944" y="32.686477" style="fill: #1f77b4; stroke: #1f77b4"/>
     <use xlink:href="#m40746d98b7" x="393.575161" y="32.686477" style="fill: #1f77b4; stroke: #1f77b4"/>
     <use xlink:href="#m40746d98b7" x="397.473377" y="34.952211" style="fill: #1f77b4; stroke: #1f77b4"/>
     <use xlink:href="#m40746d98b7" x="401.371594" y="41.650389" style="fill: #1f77b4; stroke: #1f77b4"/>
     <use xlink:href="#m40746d98b7" x="405.269811" y="52.488268" style="fill: #1f77b4; stroke: #1f77b4"/>
     <use xlink:href="#m40746d98b7" x="409.168027" y="66.992182" style="fill: #1f77b4; stroke: #1f77b4"/>
     <use xlink:href="#m40746d98b7" x="413.066244" y="84.528239" style="fill: #1f77b4; stroke: #1f77b4"/>
     <use xlink:href="#m40746d98b7" x="416.964461" y="104.330029" style="fill: #1f77b4; stroke: #1f77b4"/>
     <use xlink:href="#m40746d98b7" x="420.862677" y="125.532121" style="fill: #1f77b4; stroke: #1f77b4"/>
     <use xlink:href="#m40746d98b7" x="424.760894" y="147.207879" style="fill: #1f77b4; stroke: #1f77b4"/>
     <use xlink:href="#m40746d98b7" x="428.659111" y="168.409971" style="fill: #1f77b4; stroke: #1f77b4"/>
     <use xlink:href="#m40746d98b7" x="432.557327" y="188.211761" style="fill: #1f77b4; stroke: #1f77b4"/>
     <use xlink:href="#m40746d98b7" x="436.455544" y="205.747818" style="fill: #1f77b4; stroke: #1f77b4"/>
     <use xlink:href="#m40746d98b7" x="440.353761" y="220.251732" style="fill: #1f77b4; stroke: #1f77b4"/>
     <use xlink:href="#m40746d98b7" x="444.251977" y="231.089611" style="fill: #1f77b4; stroke: #1f77b4"/>
     <use xlink:href="#m40746d98b7" x="448.150194" y="237.787789" style="fill: #1f77b4; stroke: #1f77b4"/>
     <use xlink:href="#m40746d98b7" x="452.048411" y="240.053523" style="fill: #1f77b4; stroke: #1f77b4"/>
     <use xlink:href="#m40746d98b7" x="455.946627" y="237.787789" style="fill: #1f77b4; stroke: #1f77b4"/>
     <use xlink:href="#m40746d98b7" x="459.844844" y="231.089611" style="fill: #1f77b4; stroke: #1f77b4"/>
     <use xlink:href="#m40746d98b7" x="463.743061" y="220.251732" style="fill: #1f77b4; stroke: #1f77b4"/>
     <use xlink:href="#m40746d98b7" x="467.641277" y="205.747818" style="fill: #1f77b4; stroke: #1f77b4"/>
     <use xlink:href="#m40746d98b7" x="471.539494" y="188.211761" style="fill: #1f77b4; stroke: #1f77b4"/>
     <use xlink:href="#m40746d98b7" x="475.437711" y="197.313646" style="fill: #1f77b4; stroke: #1f77b4"/>
     <use xlink:href="#m40746d98b7" x="479.335927" y="205.747818" style="fill: #1f77b4; stroke: #1f77b4"/>
     <use xlink:href="#m40746d98b7" x="483.234144" y="213.421873" style="fill: #1f77b4; stroke: #1f77b4"/>
     <use xlink:href="#m40746d98b7" x="487.132361" y="220.251732" style="fill: #1f77b4; stroke: #1f77b4"/>
     <use xlink:href="#m40746d98b7" x="491.030577" y="226.162565" style="fill: #1f77b4; stroke: #1f77b4"/>
     <use xlink:href="#m40746d98b7" x="494.928794" y="231.089611" style="fill: #1f77b4; stroke: #1f77b4"/>
     <use xlink:href="#m40746d98b7" x="498.827011" y="234.97889" style="fill: #1f77b4; stroke: #1f77b4"/>
     <use xlink:href="#m40746d98b7" x="502.725227" y="237.787789" style="fill: #1f77b4; stroke: #1f77b4"/>
     <use xlink:href="#m40746d98b7" x="506.623444" y="239.485534" style="fill: #1f77b4; stroke: #1f77b4"/>
     <use xlink:href="#m40746d98b7" x="510.521661" y="240.053523" style="fill: #1f77b4; stroke: #1f77b4"/>
     <use xlink:href="#m40746d98b7" x="514.419877" y="239.485534" style="fill: #1f77b4; stroke: #1f77b4"/>
     <use xlink:href="#m40746d98b7" x="518.318094" y="237.787789" style="fill: #1f77b4; stroke: #1f77b4"/>
     <use xlink:href="#m40746d98b7" x="522.216311" y="234.97889" style="fill: #1f77b4; stroke: #1f77b4"/>
     <use xlink:href="#m40746d98b7" x="526.114527" y="231.089611" style="fill: #1f77b4; stroke: #1f77b4"/>
     <use xlink:href="#m40746d98b7" x="530.012744" y="226.162565" style="fill: #1f77b4; stroke: #1f77b4"/>
     <use xlink:href="#m40746d98b7" x="533.910961" y="220.251732" style="fill: #1f77b4; stroke: #1f77b4"/>
     <use xlink:href="#m40746d98b7" x="537.809177" y="213.421873" style="fill: #1f77b4; stroke: #1f77b4"/>
     <use xlink:href="#m40746d98b7" x="541.707394" y="205.747818" style="fill: #1f77b4; stroke: #1f77b4"/>
     <use xlink:href="#m40746d98b7" x="545.605611" y="197.313646" style="fill: #1f77b4; stroke: #1f77b4"/>
    </g>
   </g>
   <g id="line2d_38">
    <path d="M 81.717827 136.37 
L 85.616043 125.532121 
L 89.51426 114.812983 
L 93.412477 104.330029 
L 97.310693 94.198112 
L 101.20891 84.528239 
L 105.107127 75.426354 
L 109.005343 66.992182 
L 112.90356 59.318127 
L 116.801777 52.488268 
L 120.699993 46.577435 
L 124.59821 41.650389 
L 128.496427 37.76111 
L 132.394643 34.952211 
L 136.29286 33.254466 
L 140.191077 32.686477 
L 144.089293 33.254466 
L 147.98751 34.952211 
L 151.885727 37.76111 
L 155.783943 41.650389 
L 159.68216 46.577435 
L 163.580377 59.318127 
L 167.478594 75.426354 
L 171.37681 94.198112 
L 175.275027 114.812983 
L 179.173244 136.37 
L 183.07146 157.927017 
L 186.969677 178.541888 
L 190.867894 197.313646 
L 194.76611 213.421873 
L 198.664327 226.162565 
L 202.562544 234.97889 
L 206.46076 239.485534 
L 210.358977 239.485534 
L 214.257194 234.97889 
L 218.15541 226.162565 
L 222.053627 213.421873 
L 225.951844 197.313646 
L 229.85006 178.541888 
L 233.748277 157.927017 
L 237.646494 136.37 
L 241.54471 168.409971 
L 245.442927 197.313646 
L 249.341144 220.251732 
L 253.23936 234.97889 
L 257.137577 240.053523 
L 261.035794 234.97889 
L 264.93401 220.251732 
L 268.832227 197.313646 
L 272.730444 168.409971 
L 276.62866 136.37 
L 280.526877 104.330029 
L 284.425094 75.426354 
L 288.32331 52.488268 
L 292.221527 37.76111 
L 296.119744 32.686477 
L 300.01796 37.76111 
L 303.916177 52.488268 
L 307.814394 75.426354 
L 311.71261 104.330029 
L 315.610827 136.37 
L 319.509044 136.37 
L 323.40726 136.37 
L 327.305477 136.37 
L 331.203694 136.37 
L 335.10191 136.37 
L 339.000127 136.37 
L 342.898344 136.37 
L 346.79656 136.37 
L 350.694777 136.37 
L 354.592994 136.37 
L 358.49121 136.37 
L 362.389427 136.37 
L 366.287644 136.37 
L 370.185861 136.37 
L 374.084077 136.37 
L 377.982294 136.37 
L 381.880511 136.37 
L 385.778727 136.37 
L 389.676944 136.37 
L 393.575161 136.37 
L 397.473377 114.812983 
L 401.371594 94.198112 
L 405.269811 75.426354 
L 409.168027 59.318127 
L 413.066244 46.577435 
L 416.964461 37.76111 
L 420.862677 33.254466 
L 424.760894 33.254466 
L 428.659111 37.76111 
L 432.557327 46.577435 
L 436.455544 59.318127 
L 440.353761 75.426354 
L 444.251977 94.198112 
L 448.150194 114.812983 
L 452.048411 136.37 
L 455.946627 157.927017 
L 459.844844 178.541888 
L 463.743061 197.313646 
L 467.641277 213.421873 
L 471.539494 226.162565 
L 475.437711 220.251732 
L 479.335927 213.421873 
L 483.234144 205.747818 
L 487.132361 197.313646 
L 491.030577 188.211761 
L 494.928794 178.541888 
L 498.827011 168.409971 
L 502.725227 157.927017 
L 506.623444 147.207879 
L 510.521661 136.37 
L 514.419877 125.532121 
L 518.318094 114.812983 
L 522.216311 104.330029 
L 526.114527 94.198112 
L 530.012744 84.528239 
L 533.910961 75.426354 
L 537.809177 66.992182 
L 541.707394 59.318127 
L 545.605611 52.488268 
" clip-path="url(#p171502f126)" style="fill: none; stroke: #ff7f0e; stroke-linecap: square"/>
    <defs>
     <path id="m710d588ad5" d="M 0 1.5 
C 0.397805 1.5 0.77937 1.341951 1.06066 1.06066 
C 1.341951 0.77937 1.5 0.397805 1.5 0 
C 1.5 -0.397805 1.341951 -0.77937 1.06066 -1.06066 
C 0.77937 -1.341951 0.397805 -1.5 0 -1.5 
C -0.397805 -1.5 -0.77937 -1.341951 -1.06066 -1.06066 
C -1.341951 -0.77937 -1.5 -0.397805 -1.5 0 
C -1.5 0.397805 -1.341951 0.77937 -1.06066 1.06066 
C -0.77937 1.341951 -0.397805 1.5 0 1.5 
z
" style="stroke: #ff7f0e"/>
    </defs>
    <g clip-path="url(#p171502f126)">
     <use xlink:href="#m710d588ad5" x="81.717827" y="136.37" style="fill: #ff7f0e; stroke: #ff7f0e"/>
     <use xlink:href="#m710d588ad5" x="85.616043" y="125.532121" style="fill: #ff7f0e; stroke: #ff7f0e"/>
     <use xlink:href="#m710d588ad5" x="89.51426" y="114.812983" style="fill: #ff7f0e; stroke: #ff7f0e"/>
     <use xlink:href="#m710d588ad5" x="93.412477" y="104.330029" style="fill: #ff7f0e; stroke: #ff7f0e"/>
     <use xlink:href="#m710d588ad5" x="97.310693" y="94.198112" style="fill: #ff7f0e; stroke: #ff7f0e"/>
     <use xlink:href="#m710d588ad5" x="101.20891" y="84.528239" style="fill: #ff7f0e; stroke: #ff7f0e"/>
     <use xlink:href="#m710d588ad5" x="105.107127" y="75.426354" style="fill: #ff7f0e; stroke: #ff7f0e"/>
     <use xlink:href="#m710d588ad5" x="109.005343" y="66.992182" style="fill: #ff7f0e; stroke: #ff7f0e"/>
     <use xlink:href="#m710d588ad5" x="112.90356" y="59.318127" style="fill: #ff7f0e; stroke: #ff7f0e"/>
     <use xlink:href="#m710d588ad5" x="116.801777" y="52.488268" style="fill: #ff7f0e; stroke: #ff7f0e"/>
     <use xlink:href="#m710d588ad5" x="120.699993" y="46.577435" style="fill: #ff7f0e; stroke: #ff7f0e"/>
     <use xlink:href="#m710d588ad5" x="124.59821" y="41.650389" style="fill: #ff7f0e; stroke: #ff7f0e"/>
     <use xlink:href="#m710d588ad5" x="128.496427" y="37.76111" style="fill: #ff7f0e; stroke: #ff7f0e"/>
     <use xlink:href="#m710d588ad5" x="132.394643" y="34.952211" style="fill: #ff7f0e; stroke: #ff7f0e"/>
     <use xlink:href="#m710d588ad5" x="136.29286" y="33.254466" style="fill: #ff7f0e; stroke: #ff7f0e"/>
     <use xlink:href="#m710d588ad5" x="140.191077" y="32.686477" style="fill: #ff7f0e; stroke: #ff7f0e"/>
     <use xlink:href="#m710d588ad5" x="144.089293" y="33.254466" style="fill: #ff7f0e; stroke: #ff7f0e"/>
     <use xlink:href="#m710d588ad5" x="147.98751" y="34.952211" style="fill: #ff7f0e; stroke: #ff7f0e"/>
     <use xlink:href="#m710d588ad5" x="151.885727" y="37.76111" style="fill: #ff7f0e; stroke: #ff7f0e"/>
     <use xlink:href="#m710d588ad5" x="155.783943" y="41.650389" style="fill: #ff7f0e; stroke: #ff7f0e"/>
     <use xlink:href="#m710d588ad5" x="159.68216" y="46.577435" style="fill: #ff7f0e; stroke: #ff7f0e"/>
     <use xlink:href="#m710d588ad5" x="163.580377" y="59.318127" style="fill: #ff7f0e; stroke: #ff7f0e"/>
     <use xlink:href="#m710d588ad5" x="167.478594" y="75.426354" style="fill: #ff7f0e; stroke: #ff7f0e"/>
     <use xlink:href="#m710d588ad5" x="171.37681" y="94.198112" style="fill: #ff7f0e; stroke: #ff7f0e"/>
     <use xlink:href="#m710d588ad5" x="175.275027" y="114.812983" style="fill: #ff7f0e; stroke: #ff7f0e"/>
     <use xlink:href="#m710d588ad5" x="179.173244" y="136.37" style="fill: #ff7f0e; stroke: #ff7f0e"/>
     <use xlink:href="#m710d588ad5" x="183.07146" y="157.927017" style="fill: #ff7f0e; stroke: #ff7f0e"/>
     <use xlink:href="#m710d588ad5" x="186.969677" y="178.541888" style="fill: #ff7f0e; stroke: #ff7f0e"/>
     <use xlink:href="#m710d588ad5" x="190.867894" y="197.313646" style="fill: #ff7f0e; stroke: #ff7f0e"/>
     <use xlink:href="#m710d588ad5" x="194.76611" y="213.421873" style="fill: #ff7f0e; stroke: #ff7f0e"/>
     <use xlink:href="#m710d588ad5" x="198.664327" y="226.162565" style="fill: #ff7f0e; stroke: #ff7f0e"/>
     <use xlink:href="#m710d588ad5" x="202.562544" y="234.97889" style="fill: #ff7f0e; stroke: #ff7f0e"/>
     <use xlink:href="#m710d588ad5" x="206.46076" y="239.485534" style="fill: #ff7f0e; stroke: #ff7f0e"/>
     <use xlink:href="#m710d588ad5" x="210.358977" y="239.485534" style="fill: #ff7f0e; stroke: #ff7f0e"/>
     <use xlink:href="#m710d588ad5" x="214.257194" y="234.97889" style="fill: #ff7f0e; stroke: #ff7f0e"/>
     <use xlink:href="#m710d588ad5" x="218.15541" y="226.162565" style="fill: #ff7f0e; stroke: #ff7f0e"/>
     <use xlink:href="#m710d588ad5" x="222.053627" y="213.421873" style="fill: #ff7f0e; stroke: #ff7f0e"/>
     <use xlink:href="#m710d588ad5" x="225.951844" y="197.313646" style="fill: #ff7f0e; stroke: #ff7f0e"/>
     <use xlink:href="#m710d588ad5" x="229.85006" y="178.541888" style="fill: #ff7f0e; stroke: #ff7f0e"/>
     <use xlink:href="#m710d588ad5" x="233.748277" y="157.927017" style="fill: #ff7f0e; stroke: #ff7f0e"/>
     <use xlink:href="#m710d588ad5" x="237.646494" y="136.37" style="fill: #ff7f0e; stroke: #ff7f0e"/>
     <use xlink:href="#m710d588ad5" x="241.54471" y="168.409971" style="fill: #ff7f0e; stroke: #ff7f0e"/>
     <use xlink:href="#m710d588ad5" x="245.442927" y="197.313646" style="fill: #ff7f0e; stroke: #ff7f0e"/>
     <use xlink:href="#m710d588ad5" x="249.341144" y="220.251732" style="fill: #ff7f0e; stroke: #ff7f0e"/>
     <use xlink:href="#m710d588ad5" x="253.23936" y="234.97889" style="fill: #ff7f0e; stroke: #ff7f0e"/>
     <use xlink:href="#m710d588ad5" x="257.137577" y="240.053523" style="fill: #ff7f0e; stroke: #ff7f0e"/>
     <use xlink:href="#m710d588ad5" x="261.035794" y="234.97889" style="fill: #ff7f0e; stroke: #ff7f0e"/>
     <use xlink:href="#m710d588ad5" x="264.93401" y="220.251732" style="fill: #ff7f0e; stroke: #ff7f0e"/>
     <use xlink:href="#m710d588ad5" x="268.832227" y="197.313646" style="fill: #ff7f0e; stroke: #ff7f0e"/>
     <use xlink:href="#m710d588ad5" x="272.730444" y="168.409971" style="fill: #ff7f0e; stroke: #ff7f0e"/>
     <use xlink:href="#m710d588ad5" x="276.62866" y="136.37" style="fill: #ff7f0e; stroke: #ff7f0e"/>
     <use xlink:href="#m710d588ad5" x="280.526877" y="104.330029" style="fill: #ff7f0e; stroke: #ff7f0e"/>
     <use xlink:href="#m710d588ad5" x="284.425094" y="75.426354" style="fill: #ff7f0e; stroke: #ff7f0e"/>
     <use xlink:href="#m710d588ad5" x="288.32331" y="52.488268" style="fill: #ff7f0e; stroke: #ff7f0e"/>
     <use xlink:href="#m710d588ad5" x="292.221527" y="37.76111" style="fill: #ff7f0e; stroke: #ff7f0e"/>
     <use xlink:href="#m710d588ad5" x="296.119744" y="32.686477" style="fill: #ff7f0e; stroke: #ff7f0e"/>
     <use xlink:href="#m710d588ad5" x="300.01796" y="37.76111" style="fill: #ff7f0e; stroke: #ff7f0e"/>
     <use xlink:href="#m710d588ad5" x="303.916177" y="52.488268" style="fill: #ff7f0e; stroke: #ff7f0e"/>
     <use xlink:href="#m710d588ad5" x="307.814394" y="75.426354" style="fill: #ff7f0e; stroke: #ff7f0e"/>
     <use xlink:href="#m710d588ad5" x="311.71261" y="104.330029" style="fill: #ff7f0e; stroke: #ff7f0e"/>
     <use xlink:href="#m710d588ad5" x="315.610827" y="136.37" style="fill: #ff7f0e; stroke: #ff7f0e"/>
     <use xlink:href="#m710d588ad5" x="319.509044" y="136.37" style="fill: #ff7f0e; stroke: #ff7f0e"/>
     <use xlink:href="#m710d588ad5" x="323.40726" y="136.37" style="fill: #ff7f0e; stroke: #ff7f0e"/>
     <use xlink:href="#m710d588ad5" x="327.305477" y="136.37" style="fill: #ff7f0e; stroke: #ff7f0e"/>
     <use xlink:href="#m710d588ad5" x="331.203694" y="136.37" style="fill: #ff7f0e; stroke: #ff7f0e"/>
     <use xlink:href="#m710d588ad5" x="335.10191" y="136.37" style="fill: #ff7f0e; stroke: #ff7f0e"/>
     <use xlink:href="#m710d588ad5" x="339.000127" y="136.37" style="fill: #ff7f0e; stroke: #ff7f0e"/>
     <use xlink:href="#m710d588ad5" x="342.898344" y="136.37" style="fill: #ff7f0e; stroke: #ff7f0e"/>
     <use xlink:href="#m710d588ad5" x="346.79656" y="136.37" style="fill: #ff7f0e; stroke: #ff7f0e"/>
     <use xlink:href="#m710d588ad5" x="350.694777" y="136.37" style="fill: #ff7f0e; stroke: #ff7f0e"/>
     <use xlink:href="#m710d588ad5" x="354.592994" y="136.37" style="fill: #ff7f0e; stroke: #ff7f0e"/>
     <use xlink:href="#m710d588ad5" x="358.49121" y="136.37" style="fill: #ff7f0e; stroke: #ff7f0e"/>
     <use xlink:href="#m710d588ad5" x="362.389427" y="136.37" style="fill: #ff7f0e; stroke: #ff7f0e"/>
     <use xlink:href="#m710d588ad5" x="366.287644" y="136.37" style="fill: #ff7f0e; stroke: #ff7f0e"/>
     <use xlink:href="#m710d588ad5" x="370.185861" y="136.37" style="fill: #ff7f0e; stroke: #ff7f0e"/>
     <use xlink:href="#m710d588ad5" x="374.084077" y="136.37" style="fill: #ff7f0e; stroke: #ff7f0e"/>
     <use xlink:href="#m710d588ad5" x="377.982294" y="136.37" style="fill: #ff7f0e; stroke: #ff7f0e"/>
     <use xlink:href="#m710d588ad5" x="381.880511" y="136.37" style="fill: #ff7f0e; stroke: #ff7f0e"/>
     <use xlink:href="#m710d588ad5" x="385.778727" y="136.37" style="fill: #ff7f0e; stroke: #ff7f0e"/>
     <use xlink:href="#m710d588ad5" x="389.676944" y="136.37" style="fill: #ff7f0e; stroke: #ff7f0e"/>
     <use xlink:href="#m710d588ad5" x="393.575161" y="136.37" style="fill: #ff7f0e; stroke: #ff7f0e"/>
     <use xlink:href="#m710d588ad5" x="397.473377" y="114.812983" style="fill: #ff7f0e; stroke: #ff7f0e"/>
     <use xlink:href="#m710d588ad5" x="401.371594" y="94.198112" style="fill: #ff7f0e; stroke: #ff7f0e"/>
     <use xlink:href="#m710d588ad5" x="405.269811" y="75.426354" style="fill: #ff7f0e; stroke: #ff7f0e"/>
     <use xlink:href="#m710d588ad5" x="409.168027" y="59.318127" style="fill: #ff7f0e; stroke: #ff7f0e"/>
     <use xlink:href="#m710d588ad5" x="413.066244" y="46.577435" style="fill: #ff7f0e; stroke: #ff7f0e"/>
     <use xlink:href="#m710d588ad5" x="416.964461" y="37.76111" style="fill: #ff7f0e; stroke: #ff7f0e"/>
     <use xlink:href="#m710d588ad5" x="420.862677" y="33.254466" style="fill: #ff7f0e; stroke: #ff7f0e"/>
     <use xlink:href="#m710d588ad5" x="424.760894" y="33.254466" style="fill: #ff7f0e; stroke: #ff7f0e"/>
     <use xlink:href="#m710d588ad5" x="428.659111" y="37.76111" style="fill: #ff7f0e; stroke: #ff7f0e"/>
     <use xlink:href="#m710d588ad5" x="432.557327" y="46.577435" style="fill: #ff7f0e; stroke: #ff7f0e"/>
     <use xlink:href="#m710d588ad5" x="436.455544" y="59.318127" style="fill: #ff7f0e; stroke: #ff7f0e"/>
     <use xlink:href="#m710d588ad5" x="440.353761" y="75.426354" style="fill: #ff7f0e; stroke: #ff7f0e"/>
     <use xlink:href="#m710d588ad5" x="444.251977" y="94.198112" style="fill: #ff7f0e; stroke: #ff7f0e"/>
     <use xlink:href="#m710d588ad5" x="448.150194" y="114.812983" style="fill: #ff7f0e; stroke: #ff7f0e"/>
     <use xlink:href="#m710d588ad5" x="452.048411" y="136.37" style="fill: #ff7f0e; stroke: #ff7f0e"/>
     <use xlink:href="#m710d588ad5" x="455.946627" y="157.927017" style="fill: #ff7f0e; stroke: #ff7f0e"/>
     <use xlink:href="#m710d588ad5" x="459.844844" y="178.541888" style="fill: #ff7f0e; stroke: #ff7f0e"/>
     <use xlink:href="#m710d588ad5" x="463.743061" y="197.313646" style="fill: #ff7f0e; stroke: #ff7f0e"/>
     <use xlink:href="#m710d588ad5" x="467.641277" y="213.421873" style="fill: #ff7f0e; stroke: #ff7f0e"/>
     <use xlink:href="#m710d588ad5" x="471.539494" y="226.162565" style="fill: #ff7f0e; stroke: #ff7f0e"/>
     <use xlink:href="#m710d588ad5" x="475.437711" y="220.251732" style="fill: #ff7f0e; stroke: #ff7f0e"/>
     <use xlink:href="#m710d588ad5" x="479.335927" y="213.421873" style="fill: #ff7f0e; stroke: #ff7f0e"/>
     <use xlink:href="#m710d588ad5" x="483.234144" y="205.747818" style="fill: #ff7f0e; stroke: #ff7f0e"/>
     <use xlink:href="#m710d588ad5" x="487.132361" y="197.313646" style="fill: #ff7f0e; stroke: #ff7f0e"/>
     <use xlink:href="#m710d588ad5" x="491.030577" y="188.211761" style="fill: #ff7f0e; stroke: #ff7f0e"/>
     <use xlink:href="#m710d588ad5" x="494.928794" y="178.541888" style="fill: #ff7f0e; stroke: #ff7f0e"/>
     <use xlink:href="#m710d588ad5" x="498.827011" y="168.409971" style="fill: #ff7f0e; stroke: #ff7f0e"/>
     <use xlink:href="#m710d588ad5" x="502.725227" y="157.927017" style="fill: #ff7f0e; stroke: #ff7f0e"/>
     <use xlink:href="#m710d588ad5" x="506.623444" y="147.207879" style="fill: #ff7f0e; stroke: #ff7f0e"/>
     <use xlink:href="#m710d588ad5" x="510.521661" y="136.37" style="fill: #ff7f0e; stroke: #ff7f0e"/>
     <use xlink:href="#m710d588ad5" x="514.419877" y="125.532121" style="fill: #ff7f0e; stroke: #ff7f0e"/>
     <use xlink:href="#m710d588ad5" x="518.318094" y="114.812983" style="fill: #ff7f0e; stroke: #ff7f0e"/>
     <use xlink:href="#m710d588ad5" x="522.216311" y="104.330029" style="fill: #ff7f0e; stroke: #ff7f0e"/>
     <use xlink:href="#m710d588ad5" x="526.114527" y="94.198112" style="fill: #ff7f0e; stroke: #ff7f0e"/>
     <use xlink:href="#m710d588ad5" x="530.012744" y="84.528239" style="fill: #ff7f0e; stroke: #ff7f0e"/>
     <use xlink:href="#m710d588ad5" x="533.910961" y="75.426354" style="fill: #ff7f0e; stroke: #ff7f0e"/>
     <use xlink:href="#m710d588ad5" x="537.809177" y="66.992182" style="fill: #ff7f0e; stroke: #ff7f0e"/>
     <use xlink:href="#m710d588ad5" x="541.707394" y="59.318127" style="fill: #ff7f0e; stroke: #ff7f0e"/>
     <use xlink:href="#m710d588ad5" x="545.605611" y="52.488268" style="fill: #ff7f0e; stroke: #ff7f0e"/>
    </g>
   </g>
   <g id="patch_3">
    <path d="M 58.523438 250.421875 
L 58.523438 22.318125 
" style="fill: none; stroke: #000000; stroke-width: 0.8; stroke-linejoin: miter; stroke-linecap: square"/>
   </g>
   <g id="patch_4">
    <path d="M 568.8 250.421875 
L 568.8 22.318125 
" style="fill: none; stroke: #000000; stroke-width: 0.8; stroke-linejoin: miter; stroke-linecap: square"/>
   </g>
   <g id="patch_5">
    <path d="M 58.523438 250.421875 
L 568.8 250.421875 
" style="fill: none; stroke: #000000; stroke-width: 0.8; stroke-linejoin: miter; stroke-linecap: square"/>
   </g>
   <g id="patch_6">
    <path d="M 58.523438 22.318125 
L 568.8 22.318125 
" style="fill: none; stroke: #000000; stroke-width: 0.8; stroke-linejoin: miter; stroke-linecap: square"/>
   </g>
   <g id="text_21">
    <!-- NCO implementing CP-FSK modulation -->
    <g transform="translate(198.000469 16.318125) scale(0.12 -0.12)">
     <defs>
      <path id="DejaVuSans-4e" d="M 628 4666 
L 1478 4666 
L 3547 763 
L 3547 4666 
L 4159 4666 
L 4159 0 
L 3309 0 
L 1241 3903 
L 1241 0 
L 628 0 
L 628 4666 
z
" transform="scale(0.015625)"/>
      <path id="DejaVuSans-43" d="M 4122 4306 
L 4122 3641 
Q 3803 3938 3442 4084 
Q 3081 4231 2675 4231 
Q 1875 4231 1450 3742 
Q 1025 3253 1025 2328 
Q 1025 1406 1450 917 
Q 1875 428 2675 428 
Q 3081 428 3442 575 
Q 3803 722 4122 1019 
L 4122 359 
Q 3791 134 3420 21 
Q 3050 -91 2638 -91 
Q 1578 -91 968 557 
Q 359 1206 359 2328 
Q 359 3453 968 4101 
Q 1578 4750 2638 4750 
Q 3056 4750 3426 4639 
Q 3797 4528 4122 4306 
z
" transform="scale(0.015625)"/>
      <path id="DejaVuSans-4f" d="M 2522 4238 
Q 1834 4238 1429 3725 
Q 1025 3213 1025 2328 
Q 1025 1447 1429 934 
Q 1834 422 2522 422 
Q 3209 422 3611 934 
Q 4013 1447 4013 2328 
Q 4013 3213 3611 3725 
Q 3209 4238 2522 4238 
z
M 2522 4750 
Q 3503 4750 4090 4092 
Q 4678 3434 4678 2328 
Q 4678 1225 4090 567 
Q 3503 -91 2522 -91 
Q 1538 -91 948 565 
Q 359 1222 359 2328 
Q 359 3434 948 4092 
Q 1538 4750 2522 4750 
z
" transform="scale(0.015625)"/>
      <path id="DejaVuSans-6e" d="M 3513 2113 
L 3513 0 
L 2938 0 
L 2938 2094 
Q 2938 2591 2744 2837 
Q 2550 3084 2163 3084 
Q 1697 3084 1428 2787 
Q 1159 2491 1159 1978 
L 1159 0 
L 581 0 
L 581 3500 
L 1159 3500 
L 1159 2956 
Q 1366 3272 1645 3428 
Q 1925 3584 2291 3584 
Q 2894 3584 3203 3211 
Q 3513 2838 3513 2113 
z
" transform="scale(0.015625)"/>
      <path id="DejaVuSans-67" d="M 2906 1791 
Q 2906 2416 2648 2759 
Q 2391 3103 1925 3103 
Q 1463 3103 1205 2759 
Q 947 2416 947 1791 
Q 947 1169 1205 825 
Q 1463 481 1925 481 
Q 2391 481 2648 825 
Q 2906 1169 2906 1791 
z
M 3481 434 
Q 3481 -459 3084 -895 
Q 2688 -1331 1869 -1331 
Q 1566 -1331 1297 -1286 
Q 1028 -1241 775 -1147 
L 775 -588 
Q 1028 -725 1275 -790 
Q 1522 -856 1778 -856 
Q 2344 -856 2625 -561 
Q 2906 -266 2906 331 
L 2906 616 
Q 2728 306 2450 153 
Q 2172 0 1784 0 
Q 1141 0 747 490 
Q 353 981 353 1791 
Q 353 2603 747 3093 
Q 1141 3584 1784 3584 
Q 2172 3584 2450 3431 
Q 2728 3278 2906 2969 
L 2906 3500 
L 3481 3500 
L 3481 434 
z
" transform="scale(0.015625)"/>
      <path id="DejaVuSans-50" d="M 1259 4147 
L 1259 2394 
L 2053 2394 
Q 2494 2394 2734 2622 
Q 2975 2850 2975 3272 
Q 2975 3691 2734 3919 
Q 2494 4147 2053 4147 
L 1259 4147 
z
M 628 4666 
L 2053 4666 
Q 2838 4666 3239 4311 
Q 3641 3956 3641 3272 
Q 3641 2581 3239 2228 
Q 2838 1875 2053 1875 
L 1259 1875 
L 1259 0 
L 628 0 
L 628 4666 
z
" transform="scale(0.015625)"/>
      <path id="DejaVuSans-2d" d="M 313 2009 
L 1997 2009 
L 1997 1497 
L 313 1497 
L 313 2009 
z
" transform="scale(0.015625)"/>
      <path id="DejaVuSans-46" d="M 628 4666 
L 3309 4666 
L 3309 4134 
L 1259 4134 
L 1259 2759 
L 3109 2759 
L 3109 2228 
L 1259 2228 
L 1259 0 
L 628 0 
L 628 4666 
z
" transform="scale(0.015625)"/>
      <path id="DejaVuSans-4b" d="M 628 4666 
L 1259 4666 
L 1259 2694 
L 3353 4666 
L 4166 4666 
L 1850 2491 
L 4331 0 
L 3500 0 
L 1259 2247 
L 1259 0 
L 628 0 
L 628 4666 
z
" transform="scale(0.015625)"/>
      <path id="DejaVuSans-6f" d="M 1959 3097 
Q 1497 3097 1228 2736 
Q 959 2375 959 1747 
Q 959 1119 1226 758 
Q 1494 397 1959 397 
Q 2419 397 2687 759 
Q 2956 1122 2956 1747 
Q 2956 2369 2687 2733 
Q 2419 3097 1959 3097 
z
M 1959 3584 
Q 2709 3584 3137 3096 
Q 3566 2609 3566 1747 
Q 3566 888 3137 398 
Q 2709 -91 1959 -91 
Q 1206 -91 779 398 
Q 353 888 353 1747 
Q 353 2609 779 3096 
Q 1206 3584 1959 3584 
z
" transform="scale(0.015625)"/>
     </defs>
     <use xlink:href="#DejaVuSans-4e"/>
     <use xlink:href="#DejaVuSans-43" transform="translate(74.804688 0)"/>
     <use xlink:href="#DejaVuSans-4f" transform="translate(144.628906 0)"/>
     <use xlink:href="#DejaVuSans-20" transform="translate(223.339844 0)"/>
     <use xlink:href="#DejaVuSans-69" transform="translate(255.126953 0)"/>
     <use xlink:href="#DejaVuSans-6d" transform="translate(282.910156 0)"/>
     <use xlink:href="#DejaVuSans-70" transform="translate(380.322266 0)"/>
     <use xlink:href="#DejaVuSans-6c" transform="translate(443.798828 0)"/>
     <use xlink:href="#DejaVuSans-65" transform="translate(471.582031 0)"/>
     <use xlink:href="#DejaVuSans-6d" transform="translate(533.105469 0)"/>
     <use xlink:href="#DejaVuSans-65" transform="translate(630.517578 0)"/>
     <use xlink:href="#DejaVuSans-6e" transform="translate(692.041016 0)"/>
     <use xlink:href="#DejaVuSans-74" transform="translate(755.419922 0)"/>
     <use xlink:href="#DejaVuSans-69" transform="translate(794.628906 0)"/>
     <use xlink:href="#DejaVuSans-6e" transform="translate(822.412109 0)"/>
     <use xlink:href="#DejaVuSans-67" transform="translate(885.791016 0)"/>
     <use xlink:href="#DejaVuSans-20" transform="translate(949.267578 0)"/>
     <use xlink:href="#DejaVuSans-43" transform="translate(981.054688 0)"/>
     <use xlink:href="#DejaVuSans-50" transform="translate(1050.878906 0)"/>
     <use xlink:href="#DejaVuSans-2d" transform="translate(1108.931641 0)"/>
     <use xlink:href="#DejaVuSans-46" transform="translate(1145.015625 0)"/>
     <use xlink:href="#DejaVuSans-53" transform="translate(1200.785156 0)"/>
     <use xlink:href="#DejaVuSans-4b" transform="translate(1264.261719 0)"/>
     <use xlink:href="#DejaVuSans-20" transform="translate(1329.837891 0)"/>
     <use xlink:href="#DejaVuSans-6d" transform="translate(1361.625 0)"/>
     <use xlink:href="#DejaVuSans-6f" transform="translate(1459.037109 0)"/>
     <use xlink:href="#DejaVuSans-64" transform="translate(1520.21875 0)"/>
     <use xlink:href="#DejaVuSans-75" transform="translate(1583.695312 0)"/>
     <use xlink:href="#DejaVuSans-6c" transform="translate(1647.074219 0)"/>
     <use xlink:href="#DejaVuSans-61" transform="translate(1674.857422 0)"/>
     <use xlink:href="#DejaVuSans-74" transform="translate(1736.136719 0)"/>
     <use xlink:href="#DejaVuSans-69" transform="translate(1775.345703 0)"/>
     <use xlink:href="#DejaVuSans-6f" transform="translate(1803.128906 0)"/>
     <use xlink:href="#DejaVuSans-6e" transform="translate(1864.310547 0)"/>
    </g>
   </g>
   <g id="legend_1">
    <g id="patch_7">
     <path d="M 65.523438 245.421875 
L 122.51875 245.421875 
Q 124.51875 245.421875 124.51875 243.421875 
L 124.51875 215.065625 
Q 124.51875 213.065625 122.51875 213.065625 
L 65.523438 213.065625 
Q 63.523438 213.065625 63.523438 215.065625 
L 63.523438 243.421875 
Q 63.523438 245.421875 65.523438 245.421875 
z
" style="fill: #ffffff; opacity: 0.8; stroke: #cccccc; stroke-linejoin: miter"/>
    </g>
    <g id="line2d_39">
     <path d="M 67.523438 221.164062 
L 77.523438 221.164062 
L 87.523438 221.164062 
" style="fill: none; stroke: #1f77b4; stroke-linecap: square"/>
     <g>
      <use xlink:href="#m40746d98b7" x="77.523438" y="221.164062" style="fill: #1f77b4; stroke: #1f77b4"/>
     </g>
    </g>
    <g id="text_22">
     <!-- real -->
     <g transform="translate(95.523438 224.664062) scale(0.1 -0.1)">
      <defs>
       <path id="DejaVuSans-72" d="M 2631 2963 
Q 2534 3019 2420 3045 
Q 2306 3072 2169 3072 
Q 1681 3072 1420 2755 
Q 1159 2438 1159 1844 
L 1159 0 
L 581 0 
L 581 3500 
L 1159 3500 
L 1159 2956 
Q 1341 3275 1631 3429 
Q 1922 3584 2338 3584 
Q 2397 3584 2469 3576 
Q 2541 3569 2628 3553 
L 2631 2963 
z
" transform="scale(0.015625)"/>
      </defs>
      <use xlink:href="#DejaVuSans-72"/>
      <use xlink:href="#DejaVuSans-65" transform="translate(38.863281 0)"/>
      <use xlink:href="#DejaVuSans-61" transform="translate(100.386719 0)"/>
      <use xlink:href="#DejaVuSans-6c" transform="translate(161.666016 0)"/>
     </g>
    </g>
    <g id="line2d_40">
     <path d="M 67.523438 235.842187 
L 77.523438 235.842187 
L 87.523438 235.842187 
" style="fill: none; stroke: #ff7f0e; stroke-linecap: square"/>
     <g>
      <use xlink:href="#m710d588ad5" x="77.523438" y="235.842187" style="fill: #ff7f0e; stroke: #ff7f0e"/>
     </g>
    </g>
    <g id="text_23">
     <!-- imag -->
     <g transform="translate(95.523438 239.342187) scale(0.1 -0.1)">
      <use xlink:href="#DejaVuSans-69"/>
      <use xlink:href="#DejaVuSans-6d" transform="translate(27.783203 0)"/>
      <use xlink:href="#DejaVuSans-61" transform="translate(125.195312 0)"/>
      <use xlink:href="#DejaVuSans-67" transform="translate(186.474609 0)"/>
     </g>
    </g>
   </g>
  </g>
 </g>
 <defs>
  <clipPath id="p171502f126">
   <rect x="58.523438" y="22.318125" width="510.276563" height="228.10375"/>
  </clipPath>
 </defs>
</svg>
