<?xml version="1.0" encoding="utf-8" standalone="no"?>
<!DOCTYPE svg PUBLIC "-//W3C//DTD SVG 1.1//EN"
  "http://www.w3.org/Graphics/SVG/1.1/DTD/svg11.dtd">
<svg xmlns:xlink="http://www.w3.org/1999/xlink" width="576pt" height="288pt" viewBox="0 0 576 288" xmlns="http://www.w3.org/2000/svg" version="1.1">
 <metadata>
  <rdf:RDF xmlns:dc="http://purl.org/dc/elements/1.1/" xmlns:cc="http://creativecommons.org/ns#" xmlns:rdf="http://www.w3.org/1999/02/22-rdf-syntax-ns#">
   <cc:Work>
    <dc:type rdf:resource="http://purl.org/dc/dcmitype/StillImage"/>
    <dc:date>2025-05-10T16:31:35.994882</dc:date>
    <dc:format>image/svg+xml</dc:format>
    <dc:creator>
     <cc:Agent>
      <dc:title>Matplotlib v3.10.3, https://matplotlib.org/</dc:title>
     </cc:Agent>
    </dc:creator>
   </cc:Work>
  </rdf:RDF>
 </metadata>
 <defs>
  <style type="text/css">*{stroke-linejoin: round; stroke-linecap: butt}</style>
 </defs>
 <g id="figure_1">
  <g id="patch_1">
   <path d="M 0 288 
L 576 288 
L 576 0 
L 0 0 
z
" style="fill: #ffffff"/>
  </g>
  <g id="axes_1">
   <g id="patch_2">
    <path d="M 52.160938 250.44375 
L 568.8 250.44375 
L 568.8 22.318125 
L 52.160938 22.318125 
z
" style="fill: #ffffff"/>
   </g>
   <g id="matplotlib.axis_1">
    <g id="xtick_1">
     <g id="line2d_1">
      <path d="M 75.644531 250.44375 
L 75.644531 22.318125 
" clip-path="url(#p8c3b842131)" style="fill: none; stroke-dasharray: 2.96,1.28; stroke-dashoffset: 0; stroke: #b0b0b0; stroke-opacity: 0.8; stroke-width: 0.8"/>
     </g>
     <g id="line2d_2">
      <defs>
       <path id="m3c3473c5e3" d="M 0 0 
L 0 3.5 
" style="stroke: #000000; stroke-width: 0.8"/>
      </defs>
      <g>
       <use xlink:href="#m3c3473c5e3" x="75.644531" y="250.44375" style="stroke: #000000; stroke-width: 0.8"/>
      </g>
     </g>
     <g id="text_1">
      <!-- 0 -->
      <g transform="translate(72.463281 265.042188) scale(0.1 -0.1)">
       <defs>
        <path id="DejaVuSans-30" d="M 2034 4250 
Q 1547 4250 1301 3770 
Q 1056 3291 1056 2328 
Q 1056 1369 1301 889 
Q 1547 409 2034 409 
Q 2525 409 2770 889 
Q 3016 1369 3016 2328 
Q 3016 3291 2770 3770 
Q 2525 4250 2034 4250 
z
M 2034 4750 
Q 2819 4750 3233 4129 
Q 3647 3509 3647 2328 
Q 3647 1150 3233 529 
Q 2819 -91 2034 -91 
Q 1250 -91 836 529 
Q 422 1150 422 2328 
Q 422 3509 836 4129 
Q 1250 4750 2034 4750 
z
" transform="scale(0.015625)"/>
       </defs>
       <use xlink:href="#DejaVuSans-30"/>
      </g>
     </g>
    </g>
    <g id="xtick_2">
     <g id="line2d_3">
      <path d="M 134.563942 250.44375 
L 134.563942 22.318125 
" clip-path="url(#p8c3b842131)" style="fill: none; stroke-dasharray: 2.96,1.28; stroke-dashoffset: 0; stroke: #b0b0b0; stroke-opacity: 0.8; stroke-width: 0.8"/>
     </g>
     <g id="line2d_4">
      <g>
       <use xlink:href="#m3c3473c5e3" x="134.563942" y="250.44375" style="stroke: #000000; stroke-width: 0.8"/>
      </g>
     </g>
     <g id="text_2">
      <!-- 5 -->
      <g transform="translate(131.382692 265.042188) scale(0.1 -0.1)">
       <defs>
        <path id="DejaVuSans-35" d="M 691 4666 
L 3169 4666 
L 3169 4134 
L 1269 4134 
L 1269 2991 
Q 1406 3038 1543 3061 
Q 1681 3084 1819 3084 
Q 2600 3084 3056 2656 
Q 3513 2228 3513 1497 
Q 3513 744 3044 326 
Q 2575 -91 1722 -91 
Q 1428 -91 1123 -41 
Q 819 9 494 109 
L 494 744 
Q 775 591 1075 516 
Q 1375 441 1709 441 
Q 2250 441 2565 725 
Q 2881 1009 2881 1497 
Q 2881 1984 2565 2268 
Q 2250 2553 1709 2553 
Q 1456 2553 1204 2497 
Q 953 2441 691 2322 
L 691 4666 
z
" transform="scale(0.015625)"/>
       </defs>
       <use xlink:href="#DejaVuSans-35"/>
      </g>
     </g>
    </g>
    <g id="xtick_3">
     <g id="line2d_5">
      <path d="M 193.483353 250.44375 
L 193.483353 22.318125 
" clip-path="url(#p8c3b842131)" style="fill: none; stroke-dasharray: 2.96,1.28; stroke-dashoffset: 0; stroke: #b0b0b0; stroke-opacity: 0.8; stroke-width: 0.8"/>
     </g>
     <g id="line2d_6">
      <g>
       <use xlink:href="#m3c3473c5e3" x="193.483353" y="250.44375" style="stroke: #000000; stroke-width: 0.8"/>
      </g>
     </g>
     <g id="text_3">
      <!-- 10 -->
      <g transform="translate(187.120853 265.042188) scale(0.1 -0.1)">
       <defs>
        <path id="DejaVuSans-31" d="M 794 531 
L 1825 531 
L 1825 4091 
L 703 3866 
L 703 4441 
L 1819 4666 
L 2450 4666 
L 2450 531 
L 3481 531 
L 3481 0 
L 794 0 
L 794 531 
z
" transform="scale(0.015625)"/>
       </defs>
       <use xlink:href="#DejaVuSans-31"/>
       <use xlink:href="#DejaVuSans-30" transform="translate(63.623047 0)"/>
      </g>
     </g>
    </g>
    <g id="xtick_4">
     <g id="line2d_7">
      <path d="M 252.402764 250.44375 
L 252.402764 22.318125 
" clip-path="url(#p8c3b842131)" style="fill: none; stroke-dasharray: 2.96,1.28; stroke-dashoffset: 0; stroke: #b0b0b0; stroke-opacity: 0.8; stroke-width: 0.8"/>
     </g>
     <g id="line2d_8">
      <g>
       <use xlink:href="#m3c3473c5e3" x="252.402764" y="250.44375" style="stroke: #000000; stroke-width: 0.8"/>
      </g>
     </g>
     <g id="text_4">
      <!-- 15 -->
      <g transform="translate(246.040264 265.042188) scale(0.1 -0.1)">
       <use xlink:href="#DejaVuSans-31"/>
       <use xlink:href="#DejaVuSans-35" transform="translate(63.623047 0)"/>
      </g>
     </g>
    </g>
    <g id="xtick_5">
     <g id="line2d_9">
      <path d="M 311.322175 250.44375 
L 311.322175 22.318125 
" clip-path="url(#p8c3b842131)" style="fill: none; stroke-dasharray: 2.96,1.28; stroke-dashoffset: 0; stroke: #b0b0b0; stroke-opacity: 0.8; stroke-width: 0.8"/>
     </g>
     <g id="line2d_10">
      <g>
       <use xlink:href="#m3c3473c5e3" x="311.322175" y="250.44375" style="stroke: #000000; stroke-width: 0.8"/>
      </g>
     </g>
     <g id="text_5">
      <!-- 20 -->
      <g transform="translate(304.959675 265.042188) scale(0.1 -0.1)">
       <defs>
        <path id="DejaVuSans-32" d="M 1228 531 
L 3431 531 
L 3431 0 
L 469 0 
L 469 531 
Q 828 903 1448 1529 
Q 2069 2156 2228 2338 
Q 2531 2678 2651 2914 
Q 2772 3150 2772 3378 
Q 2772 3750 2511 3984 
Q 2250 4219 1831 4219 
Q 1534 4219 1204 4116 
Q 875 4013 500 3803 
L 500 4441 
Q 881 4594 1212 4672 
Q 1544 4750 1819 4750 
Q 2544 4750 2975 4387 
Q 3406 4025 3406 3419 
Q 3406 3131 3298 2873 
Q 3191 2616 2906 2266 
Q 2828 2175 2409 1742 
Q 1991 1309 1228 531 
z
" transform="scale(0.015625)"/>
       </defs>
       <use xlink:href="#DejaVuSans-32"/>
       <use xlink:href="#DejaVuSans-30" transform="translate(63.623047 0)"/>
      </g>
     </g>
    </g>
    <g id="xtick_6">
     <g id="line2d_11">
      <path d="M 370.241585 250.44375 
L 370.241585 22.318125 
" clip-path="url(#p8c3b842131)" style="fill: none; stroke-dasharray: 2.96,1.28; stroke-dashoffset: 0; stroke: #b0b0b0; stroke-opacity: 0.8; stroke-width: 0.8"/>
     </g>
     <g id="line2d_12">
      <g>
       <use xlink:href="#m3c3473c5e3" x="370.241585" y="250.44375" style="stroke: #000000; stroke-width: 0.8"/>
      </g>
     </g>
     <g id="text_6">
      <!-- 25 -->
      <g transform="translate(363.879085 265.042188) scale(0.1 -0.1)">
       <use xlink:href="#DejaVuSans-32"/>
       <use xlink:href="#DejaVuSans-35" transform="translate(63.623047 0)"/>
      </g>
     </g>
    </g>
    <g id="xtick_7">
     <g id="line2d_13">
      <path d="M 429.160996 250.44375 
L 429.160996 22.318125 
" clip-path="url(#p8c3b842131)" style="fill: none; stroke-dasharray: 2.96,1.28; stroke-dashoffset: 0; stroke: #b0b0b0; stroke-opacity: 0.8; stroke-width: 0.8"/>
     </g>
     <g id="line2d_14">
      <g>
       <use xlink:href="#m3c3473c5e3" x="429.160996" y="250.44375" style="stroke: #000000; stroke-width: 0.8"/>
      </g>
     </g>
     <g id="text_7">
      <!-- 30 -->
      <g transform="translate(422.798496 265.042188) scale(0.1 -0.1)">
       <defs>
        <path id="DejaVuSans-33" d="M 2597 2516 
Q 3050 2419 3304 2112 
Q 3559 1806 3559 1356 
Q 3559 666 3084 287 
Q 2609 -91 1734 -91 
Q 1441 -91 1130 -33 
Q 819 25 488 141 
L 488 750 
Q 750 597 1062 519 
Q 1375 441 1716 441 
Q 2309 441 2620 675 
Q 2931 909 2931 1356 
Q 2931 1769 2642 2001 
Q 2353 2234 1838 2234 
L 1294 2234 
L 1294 2753 
L 1863 2753 
Q 2328 2753 2575 2939 
Q 2822 3125 2822 3475 
Q 2822 3834 2567 4026 
Q 2313 4219 1838 4219 
Q 1578 4219 1281 4162 
Q 984 4106 628 3988 
L 628 4550 
Q 988 4650 1302 4700 
Q 1616 4750 1894 4750 
Q 2613 4750 3031 4423 
Q 3450 4097 3450 3541 
Q 3450 3153 3228 2886 
Q 3006 2619 2597 2516 
z
" transform="scale(0.015625)"/>
       </defs>
       <use xlink:href="#DejaVuSans-33"/>
       <use xlink:href="#DejaVuSans-30" transform="translate(63.623047 0)"/>
      </g>
     </g>
    </g>
    <g id="xtick_8">
     <g id="line2d_15">
      <path d="M 488.080407 250.44375 
L 488.080407 22.318125 
" clip-path="url(#p8c3b842131)" style="fill: none; stroke-dasharray: 2.96,1.28; stroke-dashoffset: 0; stroke: #b0b0b0; stroke-opacity: 0.8; stroke-width: 0.8"/>
     </g>
     <g id="line2d_16">
      <g>
       <use xlink:href="#m3c3473c5e3" x="488.080407" y="250.44375" style="stroke: #000000; stroke-width: 0.8"/>
      </g>
     </g>
     <g id="text_8">
      <!-- 35 -->
      <g transform="translate(481.717907 265.042188) scale(0.1 -0.1)">
       <use xlink:href="#DejaVuSans-33"/>
       <use xlink:href="#DejaVuSans-35" transform="translate(63.623047 0)"/>
      </g>
     </g>
    </g>
    <g id="xtick_9">
     <g id="line2d_17">
      <path d="M 546.999818 250.44375 
L 546.999818 22.318125 
" clip-path="url(#p8c3b842131)" style="fill: none; stroke-dasharray: 2.96,1.28; stroke-dashoffset: 0; stroke: #b0b0b0; stroke-opacity: 0.8; stroke-width: 0.8"/>
     </g>
     <g id="line2d_18">
      <g>
       <use xlink:href="#m3c3473c5e3" x="546.999818" y="250.44375" style="stroke: #000000; stroke-width: 0.8"/>
      </g>
     </g>
     <g id="text_9">
      <!-- 40 -->
      <g transform="translate(540.637318 265.042188) scale(0.1 -0.1)">
       <defs>
        <path id="DejaVuSans-34" d="M 2419 4116 
L 825 1625 
L 2419 1625 
L 2419 4116 
z
M 2253 4666 
L 3047 4666 
L 3047 1625 
L 3713 1625 
L 3713 1100 
L 3047 1100 
L 3047 0 
L 2419 0 
L 2419 1100 
L 313 1100 
L 313 1709 
L 2253 4666 
z
" transform="scale(0.015625)"/>
       </defs>
       <use xlink:href="#DejaVuSans-34"/>
       <use xlink:href="#DejaVuSans-30" transform="translate(63.623047 0)"/>
      </g>
     </g>
    </g>
    <g id="text_10">
     <!-- Time (s), $t$ -->
     <g transform="translate(284.830469 278.720312) scale(0.1 -0.1)">
      <defs>
       <path id="DejaVuSans-54" d="M -19 4666 
L 3928 4666 
L 3928 4134 
L 2272 4134 
L 2272 0 
L 1638 0 
L 1638 4134 
L -19 4134 
L -19 4666 
z
" transform="scale(0.015625)"/>
       <path id="DejaVuSans-69" d="M 603 3500 
L 1178 3500 
L 1178 0 
L 603 0 
L 603 3500 
z
M 603 4863 
L 1178 4863 
L 1178 4134 
L 603 4134 
L 603 4863 
z
" transform="scale(0.015625)"/>
       <path id="DejaVuSans-6d" d="M 3328 2828 
Q 3544 3216 3844 3400 
Q 4144 3584 4550 3584 
Q 5097 3584 5394 3201 
Q 5691 2819 5691 2113 
L 5691 0 
L 5113 0 
L 5113 2094 
Q 5113 2597 4934 2840 
Q 4756 3084 4391 3084 
Q 3944 3084 3684 2787 
Q 3425 2491 3425 1978 
L 3425 0 
L 2847 0 
L 2847 2094 
Q 2847 2600 2669 2842 
Q 2491 3084 2119 3084 
Q 1678 3084 1418 2786 
Q 1159 2488 1159 1978 
L 1159 0 
L 581 0 
L 581 3500 
L 1159 3500 
L 1159 2956 
Q 1356 3278 1631 3431 
Q 1906 3584 2284 3584 
Q 2666 3584 2933 3390 
Q 3200 3197 3328 2828 
z
" transform="scale(0.015625)"/>
       <path id="DejaVuSans-65" d="M 3597 1894 
L 3597 1613 
L 953 1613 
Q 991 1019 1311 708 
Q 1631 397 2203 397 
Q 2534 397 2845 478 
Q 3156 559 3463 722 
L 3463 178 
Q 3153 47 2828 -22 
Q 2503 -91 2169 -91 
Q 1331 -91 842 396 
Q 353 884 353 1716 
Q 353 2575 817 3079 
Q 1281 3584 2069 3584 
Q 2775 3584 3186 3129 
Q 3597 2675 3597 1894 
z
M 3022 2063 
Q 3016 2534 2758 2815 
Q 2500 3097 2075 3097 
Q 1594 3097 1305 2825 
Q 1016 2553 972 2059 
L 3022 2063 
z
" transform="scale(0.015625)"/>
       <path id="DejaVuSans-20" transform="scale(0.015625)"/>
       <path id="DejaVuSans-28" d="M 1984 4856 
Q 1566 4138 1362 3434 
Q 1159 2731 1159 2009 
Q 1159 1288 1364 580 
Q 1569 -128 1984 -844 
L 1484 -844 
Q 1016 -109 783 600 
Q 550 1309 550 2009 
Q 550 2706 781 3412 
Q 1013 4119 1484 4856 
L 1984 4856 
z
" transform="scale(0.015625)"/>
       <path id="DejaVuSans-73" d="M 2834 3397 
L 2834 2853 
Q 2591 2978 2328 3040 
Q 2066 3103 1784 3103 
Q 1356 3103 1142 2972 
Q 928 2841 928 2578 
Q 928 2378 1081 2264 
Q 1234 2150 1697 2047 
L 1894 2003 
Q 2506 1872 2764 1633 
Q 3022 1394 3022 966 
Q 3022 478 2636 193 
Q 2250 -91 1575 -91 
Q 1294 -91 989 -36 
Q 684 19 347 128 
L 347 722 
Q 666 556 975 473 
Q 1284 391 1588 391 
Q 1994 391 2212 530 
Q 2431 669 2431 922 
Q 2431 1156 2273 1281 
Q 2116 1406 1581 1522 
L 1381 1569 
Q 847 1681 609 1914 
Q 372 2147 372 2553 
Q 372 3047 722 3315 
Q 1072 3584 1716 3584 
Q 2034 3584 2315 3537 
Q 2597 3491 2834 3397 
z
" transform="scale(0.015625)"/>
       <path id="DejaVuSans-29" d="M 513 4856 
L 1013 4856 
Q 1481 4119 1714 3412 
Q 1947 2706 1947 2009 
Q 1947 1309 1714 600 
Q 1481 -109 1013 -844 
L 513 -844 
Q 928 -128 1133 580 
Q 1338 1288 1338 2009 
Q 1338 2731 1133 3434 
Q 928 4138 513 4856 
z
" transform="scale(0.015625)"/>
       <path id="DejaVuSans-2c" d="M 750 794 
L 1409 794 
L 1409 256 
L 897 -744 
L 494 -744 
L 750 256 
L 750 794 
z
" transform="scale(0.015625)"/>
       <path id="DejaVuSans-Oblique-74" d="M 2706 3500 
L 2619 3053 
L 1472 3053 
L 1100 1153 
Q 1081 1047 1072 975 
Q 1063 903 1063 863 
Q 1063 663 1183 572 
Q 1303 481 1569 481 
L 2150 481 
L 2053 0 
L 1503 0 
Q 991 0 739 200 
Q 488 400 488 806 
Q 488 878 497 964 
Q 506 1050 525 1153 
L 897 3053 
L 409 3053 
L 500 3500 
L 978 3500 
L 1172 4494 
L 1747 4494 
L 1556 3500 
L 2706 3500 
z
" transform="scale(0.015625)"/>
      </defs>
      <use xlink:href="#DejaVuSans-54" transform="translate(0 0.015625)"/>
      <use xlink:href="#DejaVuSans-69" transform="translate(61.083984 0.015625)"/>
      <use xlink:href="#DejaVuSans-6d" transform="translate(88.867188 0.015625)"/>
      <use xlink:href="#DejaVuSans-65" transform="translate(186.279297 0.015625)"/>
      <use xlink:href="#DejaVuSans-20" transform="translate(247.802734 0.015625)"/>
      <use xlink:href="#DejaVuSans-28" transform="translate(279.589844 0.015625)"/>
      <use xlink:href="#DejaVuSans-73" transform="translate(318.603516 0.015625)"/>
      <use xlink:href="#DejaVuSans-29" transform="translate(370.703125 0.015625)"/>
      <use xlink:href="#DejaVuSans-2c" transform="translate(409.716797 0.015625)"/>
      <use xlink:href="#DejaVuSans-20" transform="translate(441.503906 0.015625)"/>
      <use xlink:href="#DejaVuSans-Oblique-74" transform="translate(473.291016 0.015625)"/>
     </g>
    </g>
   </g>
   <g id="matplotlib.axis_2">
    <g id="ytick_1">
     <g id="line2d_19">
      <path d="M 52.160938 239.806241 
L 568.8 239.806241 
" clip-path="url(#p8c3b842131)" style="fill: none; stroke-dasharray: 2.96,1.28; stroke-dashoffset: 0; stroke: #b0b0b0; stroke-opacity: 0.8; stroke-width: 0.8"/>
     </g>
     <g id="line2d_20">
      <defs>
       <path id="md2c2e75b62" d="M 0 0 
L -3.5 0 
" style="stroke: #000000; stroke-width: 0.8"/>
      </defs>
      <g>
       <use xlink:href="#md2c2e75b62" x="52.160938" y="239.806241" style="stroke: #000000; stroke-width: 0.8"/>
      </g>
     </g>
     <g id="text_11">
      <!-- −1.0 -->
      <g transform="translate(20.878125 243.60546) scale(0.1 -0.1)">
       <defs>
        <path id="DejaVuSans-2212" d="M 678 2272 
L 4684 2272 
L 4684 1741 
L 678 1741 
L 678 2272 
z
" transform="scale(0.015625)"/>
        <path id="DejaVuSans-2e" d="M 684 794 
L 1344 794 
L 1344 0 
L 684 0 
L 684 794 
z
" transform="scale(0.015625)"/>
       </defs>
       <use xlink:href="#DejaVuSans-2212"/>
       <use xlink:href="#DejaVuSans-31" transform="translate(83.789062 0)"/>
       <use xlink:href="#DejaVuSans-2e" transform="translate(147.412109 0)"/>
       <use xlink:href="#DejaVuSans-30" transform="translate(179.199219 0)"/>
      </g>
     </g>
    </g>
    <g id="ytick_2">
     <g id="line2d_21">
      <path d="M 52.160938 189.753253 
L 568.8 189.753253 
" clip-path="url(#p8c3b842131)" style="fill: none; stroke-dasharray: 2.96,1.28; stroke-dashoffset: 0; stroke: #b0b0b0; stroke-opacity: 0.8; stroke-width: 0.8"/>
     </g>
     <g id="line2d_22">
      <g>
       <use xlink:href="#md2c2e75b62" x="52.160938" y="189.753253" style="stroke: #000000; stroke-width: 0.8"/>
      </g>
     </g>
     <g id="text_12">
      <!-- −0.5 -->
      <g transform="translate(20.878125 193.552471) scale(0.1 -0.1)">
       <use xlink:href="#DejaVuSans-2212"/>
       <use xlink:href="#DejaVuSans-30" transform="translate(83.789062 0)"/>
       <use xlink:href="#DejaVuSans-2e" transform="translate(147.412109 0)"/>
       <use xlink:href="#DejaVuSans-35" transform="translate(179.199219 0)"/>
      </g>
     </g>
    </g>
    <g id="ytick_3">
     <g id="line2d_23">
      <path d="M 52.160938 139.700264 
L 568.8 139.700264 
" clip-path="url(#p8c3b842131)" style="fill: none; stroke-dasharray: 2.96,1.28; stroke-dashoffset: 0; stroke: #b0b0b0; stroke-opacity: 0.8; stroke-width: 0.8"/>
     </g>
     <g id="line2d_24">
      <g>
       <use xlink:href="#md2c2e75b62" x="52.160938" y="139.700264" style="stroke: #000000; stroke-width: 0.8"/>
      </g>
     </g>
     <g id="text_13">
      <!-- 0.0 -->
      <g transform="translate(29.257812 143.499483) scale(0.1 -0.1)">
       <use xlink:href="#DejaVuSans-30"/>
       <use xlink:href="#DejaVuSans-2e" transform="translate(63.623047 0)"/>
       <use xlink:href="#DejaVuSans-30" transform="translate(95.410156 0)"/>
      </g>
     </g>
    </g>
    <g id="ytick_4">
     <g id="line2d_25">
      <path d="M 52.160938 89.647276 
L 568.8 89.647276 
" clip-path="url(#p8c3b842131)" style="fill: none; stroke-dasharray: 2.96,1.28; stroke-dashoffset: 0; stroke: #b0b0b0; stroke-opacity: 0.8; stroke-width: 0.8"/>
     </g>
     <g id="line2d_26">
      <g>
       <use xlink:href="#md2c2e75b62" x="52.160938" y="89.647276" style="stroke: #000000; stroke-width: 0.8"/>
      </g>
     </g>
     <g id="text_14">
      <!-- 0.5 -->
      <g transform="translate(29.257812 93.446495) scale(0.1 -0.1)">
       <use xlink:href="#DejaVuSans-30"/>
       <use xlink:href="#DejaVuSans-2e" transform="translate(63.623047 0)"/>
       <use xlink:href="#DejaVuSans-35" transform="translate(95.410156 0)"/>
      </g>
     </g>
    </g>
    <g id="ytick_5">
     <g id="line2d_27">
      <path d="M 52.160938 39.594288 
L 568.8 39.594288 
" clip-path="url(#p8c3b842131)" style="fill: none; stroke-dasharray: 2.96,1.28; stroke-dashoffset: 0; stroke: #b0b0b0; stroke-opacity: 0.8; stroke-width: 0.8"/>
     </g>
     <g id="line2d_28">
      <g>
       <use xlink:href="#md2c2e75b62" x="52.160938" y="39.594288" style="stroke: #000000; stroke-width: 0.8"/>
      </g>
     </g>
     <g id="text_15">
      <!-- 1.0 -->
      <g transform="translate(29.257812 43.393507) scale(0.1 -0.1)">
       <use xlink:href="#DejaVuSans-31"/>
       <use xlink:href="#DejaVuSans-2e" transform="translate(63.623047 0)"/>
       <use xlink:href="#DejaVuSans-30" transform="translate(95.410156 0)"/>
      </g>
     </g>
    </g>
    <g id="text_16">
     <!-- Amplitude -->
     <g transform="translate(14.798437 162.003594) rotate(-90) scale(0.1 -0.1)">
      <defs>
       <path id="DejaVuSans-41" d="M 2188 4044 
L 1331 1722 
L 3047 1722 
L 2188 4044 
z
M 1831 4666 
L 2547 4666 
L 4325 0 
L 3669 0 
L 3244 1197 
L 1141 1197 
L 716 0 
L 50 0 
L 1831 4666 
z
" transform="scale(0.015625)"/>
       <path id="DejaVuSans-70" d="M 1159 525 
L 1159 -1331 
L 581 -1331 
L 581 3500 
L 1159 3500 
L 1159 2969 
Q 1341 3281 1617 3432 
Q 1894 3584 2278 3584 
Q 2916 3584 3314 3078 
Q 3713 2572 3713 1747 
Q 3713 922 3314 415 
Q 2916 -91 2278 -91 
Q 1894 -91 1617 61 
Q 1341 213 1159 525 
z
M 3116 1747 
Q 3116 2381 2855 2742 
Q 2594 3103 2138 3103 
Q 1681 3103 1420 2742 
Q 1159 2381 1159 1747 
Q 1159 1113 1420 752 
Q 1681 391 2138 391 
Q 2594 391 2855 752 
Q 3116 1113 3116 1747 
z
" transform="scale(0.015625)"/>
       <path id="DejaVuSans-6c" d="M 603 4863 
L 1178 4863 
L 1178 0 
L 603 0 
L 603 4863 
z
" transform="scale(0.015625)"/>
       <path id="DejaVuSans-74" d="M 1172 4494 
L 1172 3500 
L 2356 3500 
L 2356 3053 
L 1172 3053 
L 1172 1153 
Q 1172 725 1289 603 
Q 1406 481 1766 481 
L 2356 481 
L 2356 0 
L 1766 0 
Q 1100 0 847 248 
Q 594 497 594 1153 
L 594 3053 
L 172 3053 
L 172 3500 
L 594 3500 
L 594 4494 
L 1172 4494 
z
" transform="scale(0.015625)"/>
       <path id="DejaVuSans-75" d="M 544 1381 
L 544 3500 
L 1119 3500 
L 1119 1403 
Q 1119 906 1312 657 
Q 1506 409 1894 409 
Q 2359 409 2629 706 
Q 2900 1003 2900 1516 
L 2900 3500 
L 3475 3500 
L 3475 0 
L 2900 0 
L 2900 538 
Q 2691 219 2414 64 
Q 2138 -91 1772 -91 
Q 1169 -91 856 284 
Q 544 659 544 1381 
z
M 1991 3584 
L 1991 3584 
z
" transform="scale(0.015625)"/>
       <path id="DejaVuSans-64" d="M 2906 2969 
L 2906 4863 
L 3481 4863 
L 3481 0 
L 2906 0 
L 2906 525 
Q 2725 213 2448 61 
Q 2172 -91 1784 -91 
Q 1150 -91 751 415 
Q 353 922 353 1747 
Q 353 2572 751 3078 
Q 1150 3584 1784 3584 
Q 2172 3584 2448 3432 
Q 2725 3281 2906 2969 
z
M 947 1747 
Q 947 1113 1208 752 
Q 1469 391 1925 391 
Q 2381 391 2643 752 
Q 2906 1113 2906 1747 
Q 2906 2381 2643 2742 
Q 2381 3103 1925 3103 
Q 1469 3103 1208 2742 
Q 947 2381 947 1747 
z
" transform="scale(0.015625)"/>
      </defs>
      <use xlink:href="#DejaVuSans-41"/>
      <use xlink:href="#DejaVuSans-6d" transform="translate(68.408203 0)"/>
      <use xlink:href="#DejaVuSans-70" transform="translate(165.820312 0)"/>
      <use xlink:href="#DejaVuSans-6c" transform="translate(229.296875 0)"/>
      <use xlink:href="#DejaVuSans-69" transform="translate(257.080078 0)"/>
      <use xlink:href="#DejaVuSans-74" transform="translate(284.863281 0)"/>
      <use xlink:href="#DejaVuSans-75" transform="translate(324.072266 0)"/>
      <use xlink:href="#DejaVuSans-64" transform="translate(387.451172 0)"/>
      <use xlink:href="#DejaVuSans-65" transform="translate(450.927734 0)"/>
     </g>
    </g>
   </g>
   <g id="line2d_29">
    <path d="M 75.644531 39.594288 
L 87.428413 68.91465 
L 99.212296 139.700264 
L 110.996178 210.485879 
L 122.78006 239.806241 
L 134.563942 210.485879 
L 146.347824 139.700264 
L 158.131706 68.91465 
L 169.915589 39.594288 
L 181.699471 68.91465 
L 193.483353 139.700264 
L 205.267235 210.485879 
L 217.051117 239.806241 
L 228.834999 210.485879 
L 240.618882 139.700264 
L 252.402764 68.91465 
L 264.186646 39.594288 
L 275.970528 68.91465 
L 287.75441 139.700264 
L 299.538292 210.485879 
L 311.322175 239.806241 
L 323.106057 210.485879 
L 334.889939 139.700264 
L 346.673821 68.91465 
L 358.457703 39.594288 
L 370.241585 68.91465 
L 382.025468 139.700264 
L 393.80935 210.485879 
L 405.593232 239.806241 
L 417.377114 210.485879 
L 429.160996 139.700264 
L 440.944878 68.91465 
L 452.728761 39.594288 
L 464.512643 68.91465 
L 476.296525 139.700264 
L 488.080407 210.485879 
L 499.864289 239.806241 
L 511.648171 210.485879 
L 523.432054 139.700264 
L 535.215936 68.91465 
" clip-path="url(#p8c3b842131)" style="fill: none; stroke: #1f77b4; stroke-linecap: square"/>
    <defs>
     <path id="mb5c4d61e11" d="M 0 3 
C 0.795609 3 1.55874 2.683901 2.12132 2.12132 
C 2.683901 1.55874 3 0.795609 3 0 
C 3 -0.795609 2.683901 -1.55874 2.12132 -2.12132 
C 1.55874 -2.683901 0.795609 -3 0 -3 
C -0.795609 -3 -1.55874 -2.683901 -2.12132 -2.12132 
C -2.683901 -1.55874 -3 -0.795609 -3 0 
C -3 0.795609 -2.683901 1.55874 -2.12132 2.12132 
C -1.55874 2.683901 -0.795609 3 0 3 
z
" style="stroke: #1f77b4"/>
    </defs>
    <g clip-path="url(#p8c3b842131)">
     <use xlink:href="#mb5c4d61e11" x="75.644531" y="39.594288" style="fill: #1f77b4; stroke: #1f77b4"/>
     <use xlink:href="#mb5c4d61e11" x="87.428413" y="68.91465" style="fill: #1f77b4; stroke: #1f77b4"/>
     <use xlink:href="#mb5c4d61e11" x="99.212296" y="139.700264" style="fill: #1f77b4; stroke: #1f77b4"/>
     <use xlink:href="#mb5c4d61e11" x="110.996178" y="210.485879" style="fill: #1f77b4; stroke: #1f77b4"/>
     <use xlink:href="#mb5c4d61e11" x="122.78006" y="239.806241" style="fill: #1f77b4; stroke: #1f77b4"/>
     <use xlink:href="#mb5c4d61e11" x="134.563942" y="210.485879" style="fill: #1f77b4; stroke: #1f77b4"/>
     <use xlink:href="#mb5c4d61e11" x="146.347824" y="139.700264" style="fill: #1f77b4; stroke: #1f77b4"/>
     <use xlink:href="#mb5c4d61e11" x="158.131706" y="68.91465" style="fill: #1f77b4; stroke: #1f77b4"/>
     <use xlink:href="#mb5c4d61e11" x="169.915589" y="39.594288" style="fill: #1f77b4; stroke: #1f77b4"/>
     <use xlink:href="#mb5c4d61e11" x="181.699471" y="68.91465" style="fill: #1f77b4; stroke: #1f77b4"/>
     <use xlink:href="#mb5c4d61e11" x="193.483353" y="139.700264" style="fill: #1f77b4; stroke: #1f77b4"/>
     <use xlink:href="#mb5c4d61e11" x="205.267235" y="210.485879" style="fill: #1f77b4; stroke: #1f77b4"/>
     <use xlink:href="#mb5c4d61e11" x="217.051117" y="239.806241" style="fill: #1f77b4; stroke: #1f77b4"/>
     <use xlink:href="#mb5c4d61e11" x="228.834999" y="210.485879" style="fill: #1f77b4; stroke: #1f77b4"/>
     <use xlink:href="#mb5c4d61e11" x="240.618882" y="139.700264" style="fill: #1f77b4; stroke: #1f77b4"/>
     <use xlink:href="#mb5c4d61e11" x="252.402764" y="68.91465" style="fill: #1f77b4; stroke: #1f77b4"/>
     <use xlink:href="#mb5c4d61e11" x="264.186646" y="39.594288" style="fill: #1f77b4; stroke: #1f77b4"/>
     <use xlink:href="#mb5c4d61e11" x="275.970528" y="68.91465" style="fill: #1f77b4; stroke: #1f77b4"/>
     <use xlink:href="#mb5c4d61e11" x="287.75441" y="139.700264" style="fill: #1f77b4; stroke: #1f77b4"/>
     <use xlink:href="#mb5c4d61e11" x="299.538292" y="210.485879" style="fill: #1f77b4; stroke: #1f77b4"/>
     <use xlink:href="#mb5c4d61e11" x="311.322175" y="239.806241" style="fill: #1f77b4; stroke: #1f77b4"/>
     <use xlink:href="#mb5c4d61e11" x="323.106057" y="210.485879" style="fill: #1f77b4; stroke: #1f77b4"/>
     <use xlink:href="#mb5c4d61e11" x="334.889939" y="139.700264" style="fill: #1f77b4; stroke: #1f77b4"/>
     <use xlink:href="#mb5c4d61e11" x="346.673821" y="68.91465" style="fill: #1f77b4; stroke: #1f77b4"/>
     <use xlink:href="#mb5c4d61e11" x="358.457703" y="39.594288" style="fill: #1f77b4; stroke: #1f77b4"/>
     <use xlink:href="#mb5c4d61e11" x="370.241585" y="68.91465" style="fill: #1f77b4; stroke: #1f77b4"/>
     <use xlink:href="#mb5c4d61e11" x="382.025468" y="139.700264" style="fill: #1f77b4; stroke: #1f77b4"/>
     <use xlink:href="#mb5c4d61e11" x="393.80935" y="210.485879" style="fill: #1f77b4; stroke: #1f77b4"/>
     <use xlink:href="#mb5c4d61e11" x="405.593232" y="239.806241" style="fill: #1f77b4; stroke: #1f77b4"/>
     <use xlink:href="#mb5c4d61e11" x="417.377114" y="210.485879" style="fill: #1f77b4; stroke: #1f77b4"/>
     <use xlink:href="#mb5c4d61e11" x="429.160996" y="139.700264" style="fill: #1f77b4; stroke: #1f77b4"/>
     <use xlink:href="#mb5c4d61e11" x="440.944878" y="68.91465" style="fill: #1f77b4; stroke: #1f77b4"/>
     <use xlink:href="#mb5c4d61e11" x="452.728761" y="39.594288" style="fill: #1f77b4; stroke: #1f77b4"/>
     <use xlink:href="#mb5c4d61e11" x="464.512643" y="68.91465" style="fill: #1f77b4; stroke: #1f77b4"/>
     <use xlink:href="#mb5c4d61e11" x="476.296525" y="139.700264" style="fill: #1f77b4; stroke: #1f77b4"/>
     <use xlink:href="#mb5c4d61e11" x="488.080407" y="210.485879" style="fill: #1f77b4; stroke: #1f77b4"/>
     <use xlink:href="#mb5c4d61e11" x="499.864289" y="239.806241" style="fill: #1f77b4; stroke: #1f77b4"/>
     <use xlink:href="#mb5c4d61e11" x="511.648171" y="210.485879" style="fill: #1f77b4; stroke: #1f77b4"/>
     <use xlink:href="#mb5c4d61e11" x="523.432054" y="139.700264" style="fill: #1f77b4; stroke: #1f77b4"/>
     <use xlink:href="#mb5c4d61e11" x="535.215936" y="68.91465" style="fill: #1f77b4; stroke: #1f77b4"/>
    </g>
   </g>
   <g id="line2d_30">
    <path d="M 75.644531 39.594288 
L 80.694766 32.687472 
L 85.745002 57.364195 
L 90.795237 92.071508 
L 95.845472 121.880837 
L 100.895707 148.915906 
L 105.945943 179.489404 
L 110.996178 210.485879 
L 116.046413 232.346488 
L 121.096648 240.074403 
L 126.146883 235.978039 
L 131.197119 223.392554 
L 136.247354 202.595404 
L 141.297589 173.627071 
L 146.347824 139.700264 
L 151.398059 106.098925 
L 156.448295 77.098723 
L 161.49853 55.190349 
L 166.548765 42.289228 
L 171.599 40.147778 
L 176.649236 49.384615 
L 181.699471 68.91465 
L 186.749706 96.322048 
L 191.799941 128.507468 
L 196.850176 161.960687 
L 201.900412 192.954321 
L 206.950647 217.967992 
L 212.000882 234.19191 
L 217.051117 239.806241 
L 222.101352 234.19191 
L 227.151588 217.967992 
L 232.201823 192.96184 
L 237.252058 161.976357 
L 242.302293 128.491842 
L 247.352529 96.26428 
L 252.402764 68.91465 
L 257.452999 49.504882 
L 262.503234 40.221406 
L 267.553469 42.10093 
L 272.603705 54.935538 
L 277.65394 77.28364 
L 282.704175 106.636377 
L 287.75441 139.700264 
L 292.804645 172.764152 
L 297.854881 202.116889 
L 302.905116 224.464991 
L 307.955351 237.299599 
L 313.005586 239.179123 
L 318.055822 229.895647 
L 323.106057 210.485879 
L 328.156292 183.136249 
L 333.206527 150.908687 
L 338.256762 117.424172 
L 343.306998 86.438689 
L 348.357233 61.432537 
L 353.407468 45.208619 
L 358.457703 39.594288 
L 363.507939 45.208619 
L 368.558174 61.432537 
L 373.608409 86.438689 
L 378.658644 117.424172 
L 383.708879 150.908687 
L 388.759115 183.136249 
L 393.80935 210.485879 
L 398.859585 229.895647 
L 403.90982 239.179123 
L 408.960055 237.288965 
L 414.010291 224.442831 
L 419.060526 202.135899 
L 424.110761 172.830222 
L 429.160996 139.700264 
L 434.211232 106.498274 
L 439.261467 77.198987 
L 444.311702 55.148063 
L 449.361937 42.386509 
L 454.412172 40.016358 
L 459.462408 48.914229 
L 464.512643 68.91465 
L 469.562878 97.208514 
L 474.613113 129.015035 
L 479.663348 160.811524 
L 484.713584 191.531207 
L 489.763819 218.935913 
L 494.814054 236.838791 
L 499.864289 239.806241 
L 504.914525 230.245808 
L 509.96476 215.804927 
L 515.014995 197.816983 
L 520.06523 168.156121 
L 525.115465 123.974698 
L 530.165701 82.103018 
L 535.215936 68.91465 
L 540.266171 92.229981 
L 545.316406 129.742856 
" clip-path="url(#p8c3b842131)" style="fill: none; stroke: #ff7f0e; stroke-linecap: square"/>
    <defs>
     <path id="me29516212e" d="M 0 1.5 
C 0.397805 1.5 0.77937 1.341951 1.06066 1.06066 
C 1.341951 0.77937 1.5 0.397805 1.5 0 
C 1.5 -0.397805 1.341951 -0.77937 1.06066 -1.06066 
C 0.77937 -1.341951 0.397805 -1.5 0 -1.5 
C -0.397805 -1.5 -0.77937 -1.341951 -1.06066 -1.06066 
C -1.341951 -0.77937 -1.5 -0.397805 -1.5 0 
C -1.5 0.397805 -1.341951 0.77937 -1.06066 1.06066 
C -0.77937 1.341951 -0.397805 1.5 0 1.5 
z
" style="stroke: #ff7f0e"/>
    </defs>
    <g clip-path="url(#p8c3b842131)">
     <use xlink:href="#me29516212e" x="75.644531" y="39.594288" style="fill: #ff7f0e; stroke: #ff7f0e"/>
     <use xlink:href="#me29516212e" x="80.694766" y="32.687472" style="fill: #ff7f0e; stroke: #ff7f0e"/>
     <use xlink:href="#me29516212e" x="85.745002" y="57.364195" style="fill: #ff7f0e; stroke: #ff7f0e"/>
     <use xlink:href="#me29516212e" x="90.795237" y="92.071508" style="fill: #ff7f0e; stroke: #ff7f0e"/>
     <use xlink:href="#me29516212e" x="95.845472" y="121.880837" style="fill: #ff7f0e; stroke: #ff7f0e"/>
     <use xlink:href="#me29516212e" x="100.895707" y="148.915906" style="fill: #ff7f0e; stroke: #ff7f0e"/>
     <use xlink:href="#me29516212e" x="105.945943" y="179.489404" style="fill: #ff7f0e; stroke: #ff7f0e"/>
     <use xlink:href="#me29516212e" x="110.996178" y="210.485879" style="fill: #ff7f0e; stroke: #ff7f0e"/>
     <use xlink:href="#me29516212e" x="116.046413" y="232.346488" style="fill: #ff7f0e; stroke: #ff7f0e"/>
     <use xlink:href="#me29516212e" x="121.096648" y="240.074403" style="fill: #ff7f0e; stroke: #ff7f0e"/>
     <use xlink:href="#me29516212e" x="126.146883" y="235.978039" style="fill: #ff7f0e; stroke: #ff7f0e"/>
     <use xlink:href="#me29516212e" x="131.197119" y="223.392554" style="fill: #ff7f0e; stroke: #ff7f0e"/>
     <use xlink:href="#me29516212e" x="136.247354" y="202.595404" style="fill: #ff7f0e; stroke: #ff7f0e"/>
     <use xlink:href="#me29516212e" x="141.297589" y="173.627071" style="fill: #ff7f0e; stroke: #ff7f0e"/>
     <use xlink:href="#me29516212e" x="146.347824" y="139.700264" style="fill: #ff7f0e; stroke: #ff7f0e"/>
     <use xlink:href="#me29516212e" x="151.398059" y="106.098925" style="fill: #ff7f0e; stroke: #ff7f0e"/>
     <use xlink:href="#me29516212e" x="156.448295" y="77.098723" style="fill: #ff7f0e; stroke: #ff7f0e"/>
     <use xlink:href="#me29516212e" x="161.49853" y="55.190349" style="fill: #ff7f0e; stroke: #ff7f0e"/>
     <use xlink:href="#me29516212e" x="166.548765" y="42.289228" style="fill: #ff7f0e; stroke: #ff7f0e"/>
     <use xlink:href="#me29516212e" x="171.599" y="40.147778" style="fill: #ff7f0e; stroke: #ff7f0e"/>
     <use xlink:href="#me29516212e" x="176.649236" y="49.384615" style="fill: #ff7f0e; stroke: #ff7f0e"/>
     <use xlink:href="#me29516212e" x="181.699471" y="68.91465" style="fill: #ff7f0e; stroke: #ff7f0e"/>
     <use xlink:href="#me29516212e" x="186.749706" y="96.322048" style="fill: #ff7f0e; stroke: #ff7f0e"/>
     <use xlink:href="#me29516212e" x="191.799941" y="128.507468" style="fill: #ff7f0e; stroke: #ff7f0e"/>
     <use xlink:href="#me29516212e" x="196.850176" y="161.960687" style="fill: #ff7f0e; stroke: #ff7f0e"/>
     <use xlink:href="#me29516212e" x="201.900412" y="192.954321" style="fill: #ff7f0e; stroke: #ff7f0e"/>
     <use xlink:href="#me29516212e" x="206.950647" y="217.967992" style="fill: #ff7f0e; stroke: #ff7f0e"/>
     <use xlink:href="#me29516212e" x="212.000882" y="234.19191" style="fill: #ff7f0e; stroke: #ff7f0e"/>
     <use xlink:href="#me29516212e" x="217.051117" y="239.806241" style="fill: #ff7f0e; stroke: #ff7f0e"/>
     <use xlink:href="#me29516212e" x="222.101352" y="234.19191" style="fill: #ff7f0e; stroke: #ff7f0e"/>
     <use xlink:href="#me29516212e" x="227.151588" y="217.967992" style="fill: #ff7f0e; stroke: #ff7f0e"/>
     <use xlink:href="#me29516212e" x="232.201823" y="192.96184" style="fill: #ff7f0e; stroke: #ff7f0e"/>
     <use xlink:href="#me29516212e" x="237.252058" y="161.976357" style="fill: #ff7f0e; stroke: #ff7f0e"/>
     <use xlink:href="#me29516212e" x="242.302293" y="128.491842" style="fill: #ff7f0e; stroke: #ff7f0e"/>
     <use xlink:href="#me29516212e" x="247.352529" y="96.26428" style="fill: #ff7f0e; stroke: #ff7f0e"/>
     <use xlink:href="#me29516212e" x="252.402764" y="68.91465" style="fill: #ff7f0e; stroke: #ff7f0e"/>
     <use xlink:href="#me29516212e" x="257.452999" y="49.504882" style="fill: #ff7f0e; stroke: #ff7f0e"/>
     <use xlink:href="#me29516212e" x="262.503234" y="40.221406" style="fill: #ff7f0e; stroke: #ff7f0e"/>
     <use xlink:href="#me29516212e" x="267.553469" y="42.10093" style="fill: #ff7f0e; stroke: #ff7f0e"/>
     <use xlink:href="#me29516212e" x="272.603705" y="54.935538" style="fill: #ff7f0e; stroke: #ff7f0e"/>
     <use xlink:href="#me29516212e" x="277.65394" y="77.28364" style="fill: #ff7f0e; stroke: #ff7f0e"/>
     <use xlink:href="#me29516212e" x="282.704175" y="106.636377" style="fill: #ff7f0e; stroke: #ff7f0e"/>
     <use xlink:href="#me29516212e" x="287.75441" y="139.700264" style="fill: #ff7f0e; stroke: #ff7f0e"/>
     <use xlink:href="#me29516212e" x="292.804645" y="172.764152" style="fill: #ff7f0e; stroke: #ff7f0e"/>
     <use xlink:href="#me29516212e" x="297.854881" y="202.116889" style="fill: #ff7f0e; stroke: #ff7f0e"/>
     <use xlink:href="#me29516212e" x="302.905116" y="224.464991" style="fill: #ff7f0e; stroke: #ff7f0e"/>
     <use xlink:href="#me29516212e" x="307.955351" y="237.299599" style="fill: #ff7f0e; stroke: #ff7f0e"/>
     <use xlink:href="#me29516212e" x="313.005586" y="239.179123" style="fill: #ff7f0e; stroke: #ff7f0e"/>
     <use xlink:href="#me29516212e" x="318.055822" y="229.895647" style="fill: #ff7f0e; stroke: #ff7f0e"/>
     <use xlink:href="#me29516212e" x="323.106057" y="210.485879" style="fill: #ff7f0e; stroke: #ff7f0e"/>
     <use xlink:href="#me29516212e" x="328.156292" y="183.136249" style="fill: #ff7f0e; stroke: #ff7f0e"/>
     <use xlink:href="#me29516212e" x="333.206527" y="150.908687" style="fill: #ff7f0e; stroke: #ff7f0e"/>
     <use xlink:href="#me29516212e" x="338.256762" y="117.424172" style="fill: #ff7f0e; stroke: #ff7f0e"/>
     <use xlink:href="#me29516212e" x="343.306998" y="86.438689" style="fill: #ff7f0e; stroke: #ff7f0e"/>
     <use xlink:href="#me29516212e" x="348.357233" y="61.432537" style="fill: #ff7f0e; stroke: #ff7f0e"/>
     <use xlink:href="#me29516212e" x="353.407468" y="45.208619" style="fill: #ff7f0e; stroke: #ff7f0e"/>
     <use xlink:href="#me29516212e" x="358.457703" y="39.594288" style="fill: #ff7f0e; stroke: #ff7f0e"/>
     <use xlink:href="#me29516212e" x="363.507939" y="45.208619" style="fill: #ff7f0e; stroke: #ff7f0e"/>
     <use xlink:href="#me29516212e" x="368.558174" y="61.432537" style="fill: #ff7f0e; stroke: #ff7f0e"/>
     <use xlink:href="#me29516212e" x="373.608409" y="86.438689" style="fill: #ff7f0e; stroke: #ff7f0e"/>
     <use xlink:href="#me29516212e" x="378.658644" y="117.424172" style="fill: #ff7f0e; stroke: #ff7f0e"/>
     <use xlink:href="#me29516212e" x="383.708879" y="150.908687" style="fill: #ff7f0e; stroke: #ff7f0e"/>
     <use xlink:href="#me29516212e" x="388.759115" y="183.136249" style="fill: #ff7f0e; stroke: #ff7f0e"/>
     <use xlink:href="#me29516212e" x="393.80935" y="210.485879" style="fill: #ff7f0e; stroke: #ff7f0e"/>
     <use xlink:href="#me29516212e" x="398.859585" y="229.895647" style="fill: #ff7f0e; stroke: #ff7f0e"/>
     <use xlink:href="#me29516212e" x="403.90982" y="239.179123" style="fill: #ff7f0e; stroke: #ff7f0e"/>
     <use xlink:href="#me29516212e" x="408.960055" y="237.288965" style="fill: #ff7f0e; stroke: #ff7f0e"/>
     <use xlink:href="#me29516212e" x="414.010291" y="224.442831" style="fill: #ff7f0e; stroke: #ff7f0e"/>
     <use xlink:href="#me29516212e" x="419.060526" y="202.135899" style="fill: #ff7f0e; stroke: #ff7f0e"/>
     <use xlink:href="#me29516212e" x="424.110761" y="172.830222" style="fill: #ff7f0e; stroke: #ff7f0e"/>
     <use xlink:href="#me29516212e" x="429.160996" y="139.700264" style="fill: #ff7f0e; stroke: #ff7f0e"/>
     <use xlink:href="#me29516212e" x="434.211232" y="106.498274" style="fill: #ff7f0e; stroke: #ff7f0e"/>
     <use xlink:href="#me29516212e" x="439.261467" y="77.198987" style="fill: #ff7f0e; stroke: #ff7f0e"/>
     <use xlink:href="#me29516212e" x="444.311702" y="55.148063" style="fill: #ff7f0e; stroke: #ff7f0e"/>
     <use xlink:href="#me29516212e" x="449.361937" y="42.386509" style="fill: #ff7f0e; stroke: #ff7f0e"/>
     <use xlink:href="#me29516212e" x="454.412172" y="40.016358" style="fill: #ff7f0e; stroke: #ff7f0e"/>
     <use xlink:href="#me29516212e" x="459.462408" y="48.914229" style="fill: #ff7f0e; stroke: #ff7f0e"/>
     <use xlink:href="#me29516212e" x="464.512643" y="68.91465" style="fill: #ff7f0e; stroke: #ff7f0e"/>
     <use xlink:href="#me29516212e" x="469.562878" y="97.208514" style="fill: #ff7f0e; stroke: #ff7f0e"/>
     <use xlink:href="#me29516212e" x="474.613113" y="129.015035" style="fill: #ff7f0e; stroke: #ff7f0e"/>
     <use xlink:href="#me29516212e" x="479.663348" y="160.811524" style="fill: #ff7f0e; stroke: #ff7f0e"/>
     <use xlink:href="#me29516212e" x="484.713584" y="191.531207" style="fill: #ff7f0e; stroke: #ff7f0e"/>
     <use xlink:href="#me29516212e" x="489.763819" y="218.935913" style="fill: #ff7f0e; stroke: #ff7f0e"/>
     <use xlink:href="#me29516212e" x="494.814054" y="236.838791" style="fill: #ff7f0e; stroke: #ff7f0e"/>
     <use xlink:href="#me29516212e" x="499.864289" y="239.806241" style="fill: #ff7f0e; stroke: #ff7f0e"/>
     <use xlink:href="#me29516212e" x="504.914525" y="230.245808" style="fill: #ff7f0e; stroke: #ff7f0e"/>
     <use xlink:href="#me29516212e" x="509.96476" y="215.804927" style="fill: #ff7f0e; stroke: #ff7f0e"/>
     <use xlink:href="#me29516212e" x="515.014995" y="197.816983" style="fill: #ff7f0e; stroke: #ff7f0e"/>
     <use xlink:href="#me29516212e" x="520.06523" y="168.156121" style="fill: #ff7f0e; stroke: #ff7f0e"/>
     <use xlink:href="#me29516212e" x="525.115465" y="123.974698" style="fill: #ff7f0e; stroke: #ff7f0e"/>
     <use xlink:href="#me29516212e" x="530.165701" y="82.103018" style="fill: #ff7f0e; stroke: #ff7f0e"/>
     <use xlink:href="#me29516212e" x="535.215936" y="68.91465" style="fill: #ff7f0e; stroke: #ff7f0e"/>
     <use xlink:href="#me29516212e" x="540.266171" y="92.229981" style="fill: #ff7f0e; stroke: #ff7f0e"/>
     <use xlink:href="#me29516212e" x="545.316406" y="129.742856" style="fill: #ff7f0e; stroke: #ff7f0e"/>
    </g>
   </g>
   <g id="patch_3">
    <path d="M 52.160938 250.44375 
L 52.160938 22.318125 
" style="fill: none; stroke: #000000; stroke-width: 0.8; stroke-linejoin: miter; stroke-linecap: square"/>
   </g>
   <g id="patch_4">
    <path d="M 568.8 250.44375 
L 568.8 22.318125 
" style="fill: none; stroke: #000000; stroke-width: 0.8; stroke-linejoin: miter; stroke-linecap: square"/>
   </g>
   <g id="patch_5">
    <path d="M 52.160937 250.44375 
L 568.8 250.44375 
" style="fill: none; stroke: #000000; stroke-width: 0.8; stroke-linejoin: miter; stroke-linecap: square"/>
   </g>
   <g id="patch_6">
    <path d="M 52.160937 22.318125 
L 568.8 22.318125 
" style="fill: none; stroke: #000000; stroke-width: 0.8; stroke-linejoin: miter; stroke-linecap: square"/>
   </g>
   <g id="text_17">
    <!-- Resampling by 7/3 with the Kaiser window method -->
    <g transform="translate(158.156406 16.318125) scale(0.12 -0.12)">
     <defs>
      <path id="DejaVuSans-52" d="M 2841 2188 
Q 3044 2119 3236 1894 
Q 3428 1669 3622 1275 
L 4263 0 
L 3584 0 
L 2988 1197 
Q 2756 1666 2539 1819 
Q 2322 1972 1947 1972 
L 1259 1972 
L 1259 0 
L 628 0 
L 628 4666 
L 2053 4666 
Q 2853 4666 3247 4331 
Q 3641 3997 3641 3322 
Q 3641 2881 3436 2590 
Q 3231 2300 2841 2188 
z
M 1259 4147 
L 1259 2491 
L 2053 2491 
Q 2509 2491 2742 2702 
Q 2975 2913 2975 3322 
Q 2975 3731 2742 3939 
Q 2509 4147 2053 4147 
L 1259 4147 
z
" transform="scale(0.015625)"/>
      <path id="DejaVuSans-61" d="M 2194 1759 
Q 1497 1759 1228 1600 
Q 959 1441 959 1056 
Q 959 750 1161 570 
Q 1363 391 1709 391 
Q 2188 391 2477 730 
Q 2766 1069 2766 1631 
L 2766 1759 
L 2194 1759 
z
M 3341 1997 
L 3341 0 
L 2766 0 
L 2766 531 
Q 2569 213 2275 61 
Q 1981 -91 1556 -91 
Q 1019 -91 701 211 
Q 384 513 384 1019 
Q 384 1609 779 1909 
Q 1175 2209 1959 2209 
L 2766 2209 
L 2766 2266 
Q 2766 2663 2505 2880 
Q 2244 3097 1772 3097 
Q 1472 3097 1187 3025 
Q 903 2953 641 2809 
L 641 3341 
Q 956 3463 1253 3523 
Q 1550 3584 1831 3584 
Q 2591 3584 2966 3190 
Q 3341 2797 3341 1997 
z
" transform="scale(0.015625)"/>
      <path id="DejaVuSans-6e" d="M 3513 2113 
L 3513 0 
L 2938 0 
L 2938 2094 
Q 2938 2591 2744 2837 
Q 2550 3084 2163 3084 
Q 1697 3084 1428 2787 
Q 1159 2491 1159 1978 
L 1159 0 
L 581 0 
L 581 3500 
L 1159 3500 
L 1159 2956 
Q 1366 3272 1645 3428 
Q 1925 3584 2291 3584 
Q 2894 3584 3203 3211 
Q 3513 2838 3513 2113 
z
" transform="scale(0.015625)"/>
      <path id="DejaVuSans-67" d="M 2906 1791 
Q 2906 2416 2648 2759 
Q 2391 3103 1925 3103 
Q 1463 3103 1205 2759 
Q 947 2416 947 1791 
Q 947 1169 1205 825 
Q 1463 481 1925 481 
Q 2391 481 2648 825 
Q 2906 1169 2906 1791 
z
M 3481 434 
Q 3481 -459 3084 -895 
Q 2688 -1331 1869 -1331 
Q 1566 -1331 1297 -1286 
Q 1028 -1241 775 -1147 
L 775 -588 
Q 1028 -725 1275 -790 
Q 1522 -856 1778 -856 
Q 2344 -856 2625 -561 
Q 2906 -266 2906 331 
L 2906 616 
Q 2728 306 2450 153 
Q 2172 0 1784 0 
Q 1141 0 747 490 
Q 353 981 353 1791 
Q 353 2603 747 3093 
Q 1141 3584 1784 3584 
Q 2172 3584 2450 3431 
Q 2728 3278 2906 2969 
L 2906 3500 
L 3481 3500 
L 3481 434 
z
" transform="scale(0.015625)"/>
      <path id="DejaVuSans-62" d="M 3116 1747 
Q 3116 2381 2855 2742 
Q 2594 3103 2138 3103 
Q 1681 3103 1420 2742 
Q 1159 2381 1159 1747 
Q 1159 1113 1420 752 
Q 1681 391 2138 391 
Q 2594 391 2855 752 
Q 3116 1113 3116 1747 
z
M 1159 2969 
Q 1341 3281 1617 3432 
Q 1894 3584 2278 3584 
Q 2916 3584 3314 3078 
Q 3713 2572 3713 1747 
Q 3713 922 3314 415 
Q 2916 -91 2278 -91 
Q 1894 -91 1617 61 
Q 1341 213 1159 525 
L 1159 0 
L 581 0 
L 581 4863 
L 1159 4863 
L 1159 2969 
z
" transform="scale(0.015625)"/>
      <path id="DejaVuSans-79" d="M 2059 -325 
Q 1816 -950 1584 -1140 
Q 1353 -1331 966 -1331 
L 506 -1331 
L 506 -850 
L 844 -850 
Q 1081 -850 1212 -737 
Q 1344 -625 1503 -206 
L 1606 56 
L 191 3500 
L 800 3500 
L 1894 763 
L 2988 3500 
L 3597 3500 
L 2059 -325 
z
" transform="scale(0.015625)"/>
      <path id="DejaVuSans-37" d="M 525 4666 
L 3525 4666 
L 3525 4397 
L 1831 0 
L 1172 0 
L 2766 4134 
L 525 4134 
L 525 4666 
z
" transform="scale(0.015625)"/>
      <path id="DejaVuSans-2f" d="M 1625 4666 
L 2156 4666 
L 531 -594 
L 0 -594 
L 1625 4666 
z
" transform="scale(0.015625)"/>
      <path id="DejaVuSans-77" d="M 269 3500 
L 844 3500 
L 1563 769 
L 2278 3500 
L 2956 3500 
L 3675 769 
L 4391 3500 
L 4966 3500 
L 4050 0 
L 3372 0 
L 2619 2869 
L 1863 0 
L 1184 0 
L 269 3500 
z
" transform="scale(0.015625)"/>
      <path id="DejaVuSans-68" d="M 3513 2113 
L 3513 0 
L 2938 0 
L 2938 2094 
Q 2938 2591 2744 2837 
Q 2550 3084 2163 3084 
Q 1697 3084 1428 2787 
Q 1159 2491 1159 1978 
L 1159 0 
L 581 0 
L 581 4863 
L 1159 4863 
L 1159 2956 
Q 1366 3272 1645 3428 
Q 1925 3584 2291 3584 
Q 2894 3584 3203 3211 
Q 3513 2838 3513 2113 
z
" transform="scale(0.015625)"/>
      <path id="DejaVuSans-4b" d="M 628 4666 
L 1259 4666 
L 1259 2694 
L 3353 4666 
L 4166 4666 
L 1850 2491 
L 4331 0 
L 3500 0 
L 1259 2247 
L 1259 0 
L 628 0 
L 628 4666 
z
" transform="scale(0.015625)"/>
      <path id="DejaVuSans-72" d="M 2631 2963 
Q 2534 3019 2420 3045 
Q 2306 3072 2169 3072 
Q 1681 3072 1420 2755 
Q 1159 2438 1159 1844 
L 1159 0 
L 581 0 
L 581 3500 
L 1159 3500 
L 1159 2956 
Q 1341 3275 1631 3429 
Q 1922 3584 2338 3584 
Q 2397 3584 2469 3576 
Q 2541 3569 2628 3553 
L 2631 2963 
z
" transform="scale(0.015625)"/>
      <path id="DejaVuSans-6f" d="M 1959 3097 
Q 1497 3097 1228 2736 
Q 959 2375 959 1747 
Q 959 1119 1226 758 
Q 1494 397 1959 397 
Q 2419 397 2687 759 
Q 2956 1122 2956 1747 
Q 2956 2369 2687 2733 
Q 2419 3097 1959 3097 
z
M 1959 3584 
Q 2709 3584 3137 3096 
Q 3566 2609 3566 1747 
Q 3566 888 3137 398 
Q 2709 -91 1959 -91 
Q 1206 -91 779 398 
Q 353 888 353 1747 
Q 353 2609 779 3096 
Q 1206 3584 1959 3584 
z
" transform="scale(0.015625)"/>
     </defs>
     <use xlink:href="#DejaVuSans-52"/>
     <use xlink:href="#DejaVuSans-65" transform="translate(64.982422 0)"/>
     <use xlink:href="#DejaVuSans-73" transform="translate(126.505859 0)"/>
     <use xlink:href="#DejaVuSans-61" transform="translate(178.605469 0)"/>
     <use xlink:href="#DejaVuSans-6d" transform="translate(239.884766 0)"/>
     <use xlink:href="#DejaVuSans-70" transform="translate(337.296875 0)"/>
     <use xlink:href="#DejaVuSans-6c" transform="translate(400.773438 0)"/>
     <use xlink:href="#DejaVuSans-69" transform="translate(428.556641 0)"/>
     <use xlink:href="#DejaVuSans-6e" transform="translate(456.339844 0)"/>
     <use xlink:href="#DejaVuSans-67" transform="translate(519.71875 0)"/>
     <use xlink:href="#DejaVuSans-20" transform="translate(583.195312 0)"/>
     <use xlink:href="#DejaVuSans-62" transform="translate(614.982422 0)"/>
     <use xlink:href="#DejaVuSans-79" transform="translate(678.458984 0)"/>
     <use xlink:href="#DejaVuSans-20" transform="translate(737.638672 0)"/>
     <use xlink:href="#DejaVuSans-37" transform="translate(769.425781 0)"/>
     <use xlink:href="#DejaVuSans-2f" transform="translate(833.048828 0)"/>
     <use xlink:href="#DejaVuSans-33" transform="translate(866.740234 0)"/>
     <use xlink:href="#DejaVuSans-20" transform="translate(930.363281 0)"/>
     <use xlink:href="#DejaVuSans-77" transform="translate(962.150391 0)"/>
     <use xlink:href="#DejaVuSans-69" transform="translate(1043.9375 0)"/>
     <use xlink:href="#DejaVuSans-74" transform="translate(1071.720703 0)"/>
     <use xlink:href="#DejaVuSans-68" transform="translate(1110.929688 0)"/>
     <use xlink:href="#DejaVuSans-20" transform="translate(1174.308594 0)"/>
     <use xlink:href="#DejaVuSans-74" transform="translate(1206.095703 0)"/>
     <use xlink:href="#DejaVuSans-68" transform="translate(1245.304688 0)"/>
     <use xlink:href="#DejaVuSans-65" transform="translate(1308.683594 0)"/>
     <use xlink:href="#DejaVuSans-20" transform="translate(1370.207031 0)"/>
     <use xlink:href="#DejaVuSans-4b" transform="translate(1401.994141 0)"/>
     <use xlink:href="#DejaVuSans-61" transform="translate(1465.820312 0)"/>
     <use xlink:href="#DejaVuSans-69" transform="translate(1527.099609 0)"/>
     <use xlink:href="#DejaVuSans-73" transform="translate(1554.882812 0)"/>
     <use xlink:href="#DejaVuSans-65" transform="translate(1606.982422 0)"/>
     <use xlink:href="#DejaVuSans-72" transform="translate(1668.505859 0)"/>
     <use xlink:href="#DejaVuSans-20" transform="translate(1709.619141 0)"/>
     <use xlink:href="#DejaVuSans-77" transform="translate(1741.40625 0)"/>
     <use xlink:href="#DejaVuSans-69" transform="translate(1823.193359 0)"/>
     <use xlink:href="#DejaVuSans-6e" transform="translate(1850.976562 0)"/>
     <use xlink:href="#DejaVuSans-64" transform="translate(1914.355469 0)"/>
     <use xlink:href="#DejaVuSans-6f" transform="translate(1977.832031 0)"/>
     <use xlink:href="#DejaVuSans-77" transform="translate(2039.013672 0)"/>
     <use xlink:href="#DejaVuSans-20" transform="translate(2120.800781 0)"/>
     <use xlink:href="#DejaVuSans-6d" transform="translate(2152.587891 0)"/>
     <use xlink:href="#DejaVuSans-65" transform="translate(2250 0)"/>
     <use xlink:href="#DejaVuSans-74" transform="translate(2311.523438 0)"/>
     <use xlink:href="#DejaVuSans-68" transform="translate(2350.732422 0)"/>
     <use xlink:href="#DejaVuSans-6f" transform="translate(2414.111328 0)"/>
     <use xlink:href="#DejaVuSans-64" transform="translate(2475.292969 0)"/>
    </g>
   </g>
   <g id="legend_1">
    <g id="patch_7">
     <path d="M 474.442188 59.674375 
L 561.8 59.674375 
Q 563.8 59.674375 563.8 57.674375 
L 563.8 29.318125 
Q 563.8 27.318125 561.8 27.318125 
L 474.442188 27.318125 
Q 472.442188 27.318125 472.442188 29.318125 
L 472.442188 57.674375 
Q 472.442188 59.674375 474.442188 59.674375 
z
" style="fill: #ffffff; opacity: 0.8; stroke: #cccccc; stroke-linejoin: miter"/>
    </g>
    <g id="line2d_31">
     <path d="M 476.442188 35.416563 
L 486.442188 35.416563 
L 496.442188 35.416563 
" style="fill: none; stroke: #1f77b4; stroke-linecap: square"/>
     <g>
      <use xlink:href="#mb5c4d61e11" x="486.442188" y="35.416563" style="fill: #1f77b4; stroke: #1f77b4"/>
     </g>
    </g>
    <g id="text_18">
     <!-- Input -->
     <g transform="translate(504.442188 38.916563) scale(0.1 -0.1)">
      <defs>
       <path id="DejaVuSans-49" d="M 628 4666 
L 1259 4666 
L 1259 0 
L 628 0 
L 628 4666 
z
" transform="scale(0.015625)"/>
      </defs>
      <use xlink:href="#DejaVuSans-49"/>
      <use xlink:href="#DejaVuSans-6e" transform="translate(29.492188 0)"/>
      <use xlink:href="#DejaVuSans-70" transform="translate(92.871094 0)"/>
      <use xlink:href="#DejaVuSans-75" transform="translate(156.347656 0)"/>
      <use xlink:href="#DejaVuSans-74" transform="translate(219.726562 0)"/>
     </g>
    </g>
    <g id="line2d_32">
     <path d="M 476.442188 50.094688 
L 486.442188 50.094688 
L 496.442188 50.094688 
" style="fill: none; stroke: #ff7f0e; stroke-linecap: square"/>
     <g>
      <use xlink:href="#me29516212e" x="486.442188" y="50.094688" style="fill: #ff7f0e; stroke: #ff7f0e"/>
     </g>
    </g>
    <g id="text_19">
     <!-- Resampled -->
     <g transform="translate(504.442188 53.594688) scale(0.1 -0.1)">
      <use xlink:href="#DejaVuSans-52"/>
      <use xlink:href="#DejaVuSans-65" transform="translate(64.982422 0)"/>
      <use xlink:href="#DejaVuSans-73" transform="translate(126.505859 0)"/>
      <use xlink:href="#DejaVuSans-61" transform="translate(178.605469 0)"/>
      <use xlink:href="#DejaVuSans-6d" transform="translate(239.884766 0)"/>
      <use xlink:href="#DejaVuSans-70" transform="translate(337.296875 0)"/>
      <use xlink:href="#DejaVuSans-6c" transform="translate(400.773438 0)"/>
      <use xlink:href="#DejaVuSans-65" transform="translate(428.556641 0)"/>
      <use xlink:href="#DejaVuSans-64" transform="translate(490.080078 0)"/>
     </g>
    </g>
   </g>
  </g>
 </g>
 <defs>
  <clipPath id="p8c3b842131">
   <rect x="52.160938" y="22.318125" width="516.639063" height="228.125625"/>
  </clipPath>
 </defs>
</svg>
