<?xml version="1.0" encoding="utf-8" standalone="no"?>
<!DOCTYPE svg PUBLIC "-//W3C//DTD SVG 1.1//EN"
  "http://www.w3.org/Graphics/SVG/1.1/DTD/svg11.dtd">
<svg xmlns:xlink="http://www.w3.org/1999/xlink" width="576pt" height="288pt" viewBox="0 0 576 288" xmlns="http://www.w3.org/2000/svg" version="1.1">
 <metadata>
  <rdf:RDF xmlns:dc="http://purl.org/dc/elements/1.1/" xmlns:cc="http://creativecommons.org/ns#" xmlns:rdf="http://www.w3.org/1999/02/22-rdf-syntax-ns#">
   <cc:Work>
    <dc:type rdf:resource="http://purl.org/dc/dcmitype/StillImage"/>
    <dc:date>2026-05-03T16:47:40.166660</dc:date>
    <dc:format>image/svg+xml</dc:format>
    <dc:creator>
     <cc:Agent>
      <dc:title>Matplotlib v3.10.9, https://matplotlib.org/</dc:title>
     </cc:Agent>
    </dc:creator>
   </cc:Work>
  </rdf:RDF>
 </metadata>
 <defs>
  <style type="text/css">*{stroke-linejoin: round; stroke-linecap: butt}</style>
 </defs>
 <g id="figure_1">
  <g id="patch_1">
   <path d="M 0 288 
L 576 288 
L 576 0 
L 0 0 
z
" style="fill: #ffffff"/>
  </g>
  <g id="axes_1">
   <g id="patch_2">
    <path d="M 52.160938 250.421875 
L 568.8 250.421875 
L 568.8 7.2 
L 52.160938 7.2 
z
" style="fill: #ffffff"/>
   </g>
   <g id="matplotlib.axis_1">
    <g id="xtick_1">
     <g id="line2d_1">
      <path d="M 75.644531 250.421875 
L 75.644531 7.2 
" clip-path="url(#pa0fadeb996)" style="fill: none; stroke-dasharray: 2.96,1.28; stroke-dashoffset: 0; stroke: #b0b0b0; stroke-opacity: 0.8; stroke-width: 0.8"/>
     </g>
     <g id="line2d_2">
      <defs>
       <path id="mf87911ca6d" d="M 0 0 
L 0 3.5 
" style="stroke: #000000; stroke-width: 0.8"/>
      </defs>
      <g>
       <use xlink:href="#mf87911ca6d" x="75.644531" y="250.421875" style="stroke: #000000; stroke-width: 0.8"/>
      </g>
     </g>
     <g id="text_1">
      <!-- 0 -->
      <g transform="translate(72.463281 265.020312) scale(0.1 -0.1)">
       <defs>
        <path id="DejaVuSans-30" d="M 2034 4250 
Q 1547 4250 1301 3770 
Q 1056 3291 1056 2328 
Q 1056 1369 1301 889 
Q 1547 409 2034 409 
Q 2525 409 2770 889 
Q 3016 1369 3016 2328 
Q 3016 3291 2770 3770 
Q 2525 4250 2034 4250 
z
M 2034 4750 
Q 2819 4750 3233 4129 
Q 3647 3509 3647 2328 
Q 3647 1150 3233 529 
Q 2819 -91 2034 -91 
Q 1250 -91 836 529 
Q 422 1150 422 2328 
Q 422 3509 836 4129 
Q 1250 4750 2034 4750 
z
" transform="scale(0.015625)"/>
       </defs>
       <use xlink:href="#DejaVuSans-30"/>
      </g>
     </g>
    </g>
    <g id="xtick_2">
     <g id="line2d_3">
      <path d="M 134.500656 250.421875 
L 134.500656 7.2 
" clip-path="url(#pa0fadeb996)" style="fill: none; stroke-dasharray: 2.96,1.28; stroke-dashoffset: 0; stroke: #b0b0b0; stroke-opacity: 0.8; stroke-width: 0.8"/>
     </g>
     <g id="line2d_4">
      <g>
       <use xlink:href="#mf87911ca6d" x="134.500656" y="250.421875" style="stroke: #000000; stroke-width: 0.8"/>
      </g>
     </g>
     <g id="text_2">
      <!-- 50 -->
      <g transform="translate(128.138156 265.020312) scale(0.1 -0.1)">
       <defs>
        <path id="DejaVuSans-35" d="M 691 4666 
L 3169 4666 
L 3169 4134 
L 1269 4134 
L 1269 2991 
Q 1406 3038 1543 3061 
Q 1681 3084 1819 3084 
Q 2600 3084 3056 2656 
Q 3513 2228 3513 1497 
Q 3513 744 3044 326 
Q 2575 -91 1722 -91 
Q 1428 -91 1123 -41 
Q 819 9 494 109 
L 494 744 
Q 775 591 1075 516 
Q 1375 441 1709 441 
Q 2250 441 2565 725 
Q 2881 1009 2881 1497 
Q 2881 1984 2565 2268 
Q 2250 2553 1709 2553 
Q 1456 2553 1204 2497 
Q 953 2441 691 2322 
L 691 4666 
z
" transform="scale(0.015625)"/>
       </defs>
       <use xlink:href="#DejaVuSans-35"/>
       <use xlink:href="#DejaVuSans-30" transform="translate(63.623047 0)"/>
      </g>
     </g>
    </g>
    <g id="xtick_3">
     <g id="line2d_5">
      <path d="M 193.356781 250.421875 
L 193.356781 7.2 
" clip-path="url(#pa0fadeb996)" style="fill: none; stroke-dasharray: 2.96,1.28; stroke-dashoffset: 0; stroke: #b0b0b0; stroke-opacity: 0.8; stroke-width: 0.8"/>
     </g>
     <g id="line2d_6">
      <g>
       <use xlink:href="#mf87911ca6d" x="193.356781" y="250.421875" style="stroke: #000000; stroke-width: 0.8"/>
      </g>
     </g>
     <g id="text_3">
      <!-- 100 -->
      <g transform="translate(183.813031 265.020312) scale(0.1 -0.1)">
       <defs>
        <path id="DejaVuSans-31" d="M 794 531 
L 1825 531 
L 1825 4091 
L 703 3866 
L 703 4441 
L 1819 4666 
L 2450 4666 
L 2450 531 
L 3481 531 
L 3481 0 
L 794 0 
L 794 531 
z
" transform="scale(0.015625)"/>
       </defs>
       <use xlink:href="#DejaVuSans-31"/>
       <use xlink:href="#DejaVuSans-30" transform="translate(63.623047 0)"/>
       <use xlink:href="#DejaVuSans-30" transform="translate(127.246094 0)"/>
      </g>
     </g>
    </g>
    <g id="xtick_4">
     <g id="line2d_7">
      <path d="M 252.212905 250.421875 
L 252.212905 7.2 
" clip-path="url(#pa0fadeb996)" style="fill: none; stroke-dasharray: 2.96,1.28; stroke-dashoffset: 0; stroke: #b0b0b0; stroke-opacity: 0.8; stroke-width: 0.8"/>
     </g>
     <g id="line2d_8">
      <g>
       <use xlink:href="#mf87911ca6d" x="252.212905" y="250.421875" style="stroke: #000000; stroke-width: 0.8"/>
      </g>
     </g>
     <g id="text_4">
      <!-- 150 -->
      <g transform="translate(242.669155 265.020312) scale(0.1 -0.1)">
       <use xlink:href="#DejaVuSans-31"/>
       <use xlink:href="#DejaVuSans-35" transform="translate(63.623047 0)"/>
       <use xlink:href="#DejaVuSans-30" transform="translate(127.246094 0)"/>
      </g>
     </g>
    </g>
    <g id="xtick_5">
     <g id="line2d_9">
      <path d="M 311.06903 250.421875 
L 311.06903 7.2 
" clip-path="url(#pa0fadeb996)" style="fill: none; stroke-dasharray: 2.96,1.28; stroke-dashoffset: 0; stroke: #b0b0b0; stroke-opacity: 0.8; stroke-width: 0.8"/>
     </g>
     <g id="line2d_10">
      <g>
       <use xlink:href="#mf87911ca6d" x="311.06903" y="250.421875" style="stroke: #000000; stroke-width: 0.8"/>
      </g>
     </g>
     <g id="text_5">
      <!-- 200 -->
      <g transform="translate(301.52528 265.020312) scale(0.1 -0.1)">
       <defs>
        <path id="DejaVuSans-32" d="M 1228 531 
L 3431 531 
L 3431 0 
L 469 0 
L 469 531 
Q 828 903 1448 1529 
Q 2069 2156 2228 2338 
Q 2531 2678 2651 2914 
Q 2772 3150 2772 3378 
Q 2772 3750 2511 3984 
Q 2250 4219 1831 4219 
Q 1534 4219 1204 4116 
Q 875 4013 500 3803 
L 500 4441 
Q 881 4594 1212 4672 
Q 1544 4750 1819 4750 
Q 2544 4750 2975 4387 
Q 3406 4025 3406 3419 
Q 3406 3131 3298 2873 
Q 3191 2616 2906 2266 
Q 2828 2175 2409 1742 
Q 1991 1309 1228 531 
z
" transform="scale(0.015625)"/>
       </defs>
       <use xlink:href="#DejaVuSans-32"/>
       <use xlink:href="#DejaVuSans-30" transform="translate(63.623047 0)"/>
       <use xlink:href="#DejaVuSans-30" transform="translate(127.246094 0)"/>
      </g>
     </g>
    </g>
    <g id="xtick_6">
     <g id="line2d_11">
      <path d="M 369.925155 250.421875 
L 369.925155 7.2 
" clip-path="url(#pa0fadeb996)" style="fill: none; stroke-dasharray: 2.96,1.28; stroke-dashoffset: 0; stroke: #b0b0b0; stroke-opacity: 0.8; stroke-width: 0.8"/>
     </g>
     <g id="line2d_12">
      <g>
       <use xlink:href="#mf87911ca6d" x="369.925155" y="250.421875" style="stroke: #000000; stroke-width: 0.8"/>
      </g>
     </g>
     <g id="text_6">
      <!-- 250 -->
      <g transform="translate(360.381405 265.020312) scale(0.1 -0.1)">
       <use xlink:href="#DejaVuSans-32"/>
       <use xlink:href="#DejaVuSans-35" transform="translate(63.623047 0)"/>
       <use xlink:href="#DejaVuSans-30" transform="translate(127.246094 0)"/>
      </g>
     </g>
    </g>
    <g id="xtick_7">
     <g id="line2d_13">
      <path d="M 428.781279 250.421875 
L 428.781279 7.2 
" clip-path="url(#pa0fadeb996)" style="fill: none; stroke-dasharray: 2.96,1.28; stroke-dashoffset: 0; stroke: #b0b0b0; stroke-opacity: 0.8; stroke-width: 0.8"/>
     </g>
     <g id="line2d_14">
      <g>
       <use xlink:href="#mf87911ca6d" x="428.781279" y="250.421875" style="stroke: #000000; stroke-width: 0.8"/>
      </g>
     </g>
     <g id="text_7">
      <!-- 300 -->
      <g transform="translate(419.237529 265.020312) scale(0.1 -0.1)">
       <defs>
        <path id="DejaVuSans-33" d="M 2597 2516 
Q 3050 2419 3304 2112 
Q 3559 1806 3559 1356 
Q 3559 666 3084 287 
Q 2609 -91 1734 -91 
Q 1441 -91 1130 -33 
Q 819 25 488 141 
L 488 750 
Q 750 597 1062 519 
Q 1375 441 1716 441 
Q 2309 441 2620 675 
Q 2931 909 2931 1356 
Q 2931 1769 2642 2001 
Q 2353 2234 1838 2234 
L 1294 2234 
L 1294 2753 
L 1863 2753 
Q 2328 2753 2575 2939 
Q 2822 3125 2822 3475 
Q 2822 3834 2567 4026 
Q 2313 4219 1838 4219 
Q 1578 4219 1281 4162 
Q 984 4106 628 3988 
L 628 4550 
Q 988 4650 1302 4700 
Q 1616 4750 1894 4750 
Q 2613 4750 3031 4423 
Q 3450 4097 3450 3541 
Q 3450 3153 3228 2886 
Q 3006 2619 2597 2516 
z
" transform="scale(0.015625)"/>
       </defs>
       <use xlink:href="#DejaVuSans-33"/>
       <use xlink:href="#DejaVuSans-30" transform="translate(63.623047 0)"/>
       <use xlink:href="#DejaVuSans-30" transform="translate(127.246094 0)"/>
      </g>
     </g>
    </g>
    <g id="xtick_8">
     <g id="line2d_15">
      <path d="M 487.637404 250.421875 
L 487.637404 7.2 
" clip-path="url(#pa0fadeb996)" style="fill: none; stroke-dasharray: 2.96,1.28; stroke-dashoffset: 0; stroke: #b0b0b0; stroke-opacity: 0.8; stroke-width: 0.8"/>
     </g>
     <g id="line2d_16">
      <g>
       <use xlink:href="#mf87911ca6d" x="487.637404" y="250.421875" style="stroke: #000000; stroke-width: 0.8"/>
      </g>
     </g>
     <g id="text_8">
      <!-- 350 -->
      <g transform="translate(478.093654 265.020312) scale(0.1 -0.1)">
       <use xlink:href="#DejaVuSans-33"/>
       <use xlink:href="#DejaVuSans-35" transform="translate(63.623047 0)"/>
       <use xlink:href="#DejaVuSans-30" transform="translate(127.246094 0)"/>
      </g>
     </g>
    </g>
    <g id="xtick_9">
     <g id="line2d_17">
      <path d="M 546.493529 250.421875 
L 546.493529 7.2 
" clip-path="url(#pa0fadeb996)" style="fill: none; stroke-dasharray: 2.96,1.28; stroke-dashoffset: 0; stroke: #b0b0b0; stroke-opacity: 0.8; stroke-width: 0.8"/>
     </g>
     <g id="line2d_18">
      <g>
       <use xlink:href="#mf87911ca6d" x="546.493529" y="250.421875" style="stroke: #000000; stroke-width: 0.8"/>
      </g>
     </g>
     <g id="text_9">
      <!-- 400 -->
      <g transform="translate(536.949779 265.020312) scale(0.1 -0.1)">
       <defs>
        <path id="DejaVuSans-34" d="M 2419 4116 
L 825 1625 
L 2419 1625 
L 2419 4116 
z
M 2253 4666 
L 3047 4666 
L 3047 1625 
L 3713 1625 
L 3713 1100 
L 3047 1100 
L 3047 0 
L 2419 0 
L 2419 1100 
L 313 1100 
L 313 1709 
L 2253 4666 
z
" transform="scale(0.015625)"/>
       </defs>
       <use xlink:href="#DejaVuSans-34"/>
       <use xlink:href="#DejaVuSans-30" transform="translate(63.623047 0)"/>
       <use xlink:href="#DejaVuSans-30" transform="translate(127.246094 0)"/>
      </g>
     </g>
    </g>
    <g id="text_10">
     <!-- Sample, $n$ -->
     <g transform="translate(285.380469 278.7) scale(0.1 -0.1)">
      <defs>
       <path id="DejaVuSans-53" d="M 3425 4513 
L 3425 3897 
Q 3066 4069 2747 4153 
Q 2428 4238 2131 4238 
Q 1616 4238 1336 4038 
Q 1056 3838 1056 3469 
Q 1056 3159 1242 3001 
Q 1428 2844 1947 2747 
L 2328 2669 
Q 3034 2534 3370 2195 
Q 3706 1856 3706 1288 
Q 3706 609 3251 259 
Q 2797 -91 1919 -91 
Q 1588 -91 1214 -16 
Q 841 59 441 206 
L 441 856 
Q 825 641 1194 531 
Q 1563 422 1919 422 
Q 2459 422 2753 634 
Q 3047 847 3047 1241 
Q 3047 1584 2836 1778 
Q 2625 1972 2144 2069 
L 1759 2144 
Q 1053 2284 737 2584 
Q 422 2884 422 3419 
Q 422 4038 858 4394 
Q 1294 4750 2059 4750 
Q 2388 4750 2728 4690 
Q 3069 4631 3425 4513 
z
" transform="scale(0.015625)"/>
       <path id="DejaVuSans-61" d="M 2194 1759 
Q 1497 1759 1228 1600 
Q 959 1441 959 1056 
Q 959 750 1161 570 
Q 1363 391 1709 391 
Q 2188 391 2477 730 
Q 2766 1069 2766 1631 
L 2766 1759 
L 2194 1759 
z
M 3341 1997 
L 3341 0 
L 2766 0 
L 2766 531 
Q 2569 213 2275 61 
Q 1981 -91 1556 -91 
Q 1019 -91 701 211 
Q 384 513 384 1019 
Q 384 1609 779 1909 
Q 1175 2209 1959 2209 
L 2766 2209 
L 2766 2266 
Q 2766 2663 2505 2880 
Q 2244 3097 1772 3097 
Q 1472 3097 1187 3025 
Q 903 2953 641 2809 
L 641 3341 
Q 956 3463 1253 3523 
Q 1550 3584 1831 3584 
Q 2591 3584 2966 3190 
Q 3341 2797 3341 1997 
z
" transform="scale(0.015625)"/>
       <path id="DejaVuSans-6d" d="M 3328 2828 
Q 3544 3216 3844 3400 
Q 4144 3584 4550 3584 
Q 5097 3584 5394 3201 
Q 5691 2819 5691 2113 
L 5691 0 
L 5113 0 
L 5113 2094 
Q 5113 2597 4934 2840 
Q 4756 3084 4391 3084 
Q 3944 3084 3684 2787 
Q 3425 2491 3425 1978 
L 3425 0 
L 2847 0 
L 2847 2094 
Q 2847 2600 2669 2842 
Q 2491 3084 2119 3084 
Q 1678 3084 1418 2786 
Q 1159 2488 1159 1978 
L 1159 0 
L 581 0 
L 581 3500 
L 1159 3500 
L 1159 2956 
Q 1356 3278 1631 3431 
Q 1906 3584 2284 3584 
Q 2666 3584 2933 3390 
Q 3200 3197 3328 2828 
z
" transform="scale(0.015625)"/>
       <path id="DejaVuSans-70" d="M 1159 525 
L 1159 -1331 
L 581 -1331 
L 581 3500 
L 1159 3500 
L 1159 2969 
Q 1341 3281 1617 3432 
Q 1894 3584 2278 3584 
Q 2916 3584 3314 3078 
Q 3713 2572 3713 1747 
Q 3713 922 3314 415 
Q 2916 -91 2278 -91 
Q 1894 -91 1617 61 
Q 1341 213 1159 525 
z
M 3116 1747 
Q 3116 2381 2855 2742 
Q 2594 3103 2138 3103 
Q 1681 3103 1420 2742 
Q 1159 2381 1159 1747 
Q 1159 1113 1420 752 
Q 1681 391 2138 391 
Q 2594 391 2855 752 
Q 3116 1113 3116 1747 
z
" transform="scale(0.015625)"/>
       <path id="DejaVuSans-6c" d="M 603 4863 
L 1178 4863 
L 1178 0 
L 603 0 
L 603 4863 
z
" transform="scale(0.015625)"/>
       <path id="DejaVuSans-65" d="M 3597 1894 
L 3597 1613 
L 953 1613 
Q 991 1019 1311 708 
Q 1631 397 2203 397 
Q 2534 397 2845 478 
Q 3156 559 3463 722 
L 3463 178 
Q 3153 47 2828 -22 
Q 2503 -91 2169 -91 
Q 1331 -91 842 396 
Q 353 884 353 1716 
Q 353 2575 817 3079 
Q 1281 3584 2069 3584 
Q 2775 3584 3186 3129 
Q 3597 2675 3597 1894 
z
M 3022 2063 
Q 3016 2534 2758 2815 
Q 2500 3097 2075 3097 
Q 1594 3097 1305 2825 
Q 1016 2553 972 2059 
L 3022 2063 
z
" transform="scale(0.015625)"/>
       <path id="DejaVuSans-2c" d="M 750 794 
L 1409 794 
L 1409 256 
L 897 -744 
L 494 -744 
L 750 256 
L 750 794 
z
" transform="scale(0.015625)"/>
       <path id="DejaVuSans-20" transform="scale(0.015625)"/>
       <path id="DejaVuSans-Oblique-6e" d="M 3566 2113 
L 3156 0 
L 2578 0 
L 2988 2091 
Q 3016 2238 3031 2350 
Q 3047 2463 3047 2528 
Q 3047 2791 2881 2937 
Q 2716 3084 2419 3084 
Q 1956 3084 1622 2776 
Q 1288 2469 1184 1941 
L 800 0 
L 225 0 
L 903 3500 
L 1478 3500 
L 1363 2950 
Q 1603 3253 1940 3418 
Q 2278 3584 2650 3584 
Q 3113 3584 3367 3334 
Q 3622 3084 3622 2631 
Q 3622 2519 3608 2391 
Q 3594 2263 3566 2113 
z
" transform="scale(0.015625)"/>
      </defs>
      <use xlink:href="#DejaVuSans-53" transform="translate(0 0.015625)"/>
      <use xlink:href="#DejaVuSans-61" transform="translate(63.476562 0.015625)"/>
      <use xlink:href="#DejaVuSans-6d" transform="translate(124.755859 0.015625)"/>
      <use xlink:href="#DejaVuSans-70" transform="translate(222.167969 0.015625)"/>
      <use xlink:href="#DejaVuSans-6c" transform="translate(285.644531 0.015625)"/>
      <use xlink:href="#DejaVuSans-65" transform="translate(313.427734 0.015625)"/>
      <use xlink:href="#DejaVuSans-2c" transform="translate(374.951172 0.015625)"/>
      <use xlink:href="#DejaVuSans-20" transform="translate(406.738281 0.015625)"/>
      <use xlink:href="#DejaVuSans-Oblique-6e" transform="translate(438.525391 0.015625)"/>
     </g>
    </g>
   </g>
   <g id="matplotlib.axis_2">
    <g id="ytick_1">
     <g id="line2d_19">
      <path d="M 52.160938 237.74089 
L 568.8 237.74089 
" clip-path="url(#pa0fadeb996)" style="fill: none; stroke-dasharray: 2.96,1.28; stroke-dashoffset: 0; stroke: #b0b0b0; stroke-opacity: 0.8; stroke-width: 0.8"/>
     </g>
     <g id="line2d_20">
      <defs>
       <path id="mdc103d1f3f" d="M 0 0 
L -3.5 0 
" style="stroke: #000000; stroke-width: 0.8"/>
      </defs>
      <g>
       <use xlink:href="#mdc103d1f3f" x="52.160938" y="237.74089" style="stroke: #000000; stroke-width: 0.8"/>
      </g>
     </g>
     <g id="text_11">
      <!-- −0.4 -->
      <g transform="translate(20.878125 241.540108) scale(0.1 -0.1)">
       <defs>
        <path id="DejaVuSans-2212" d="M 678 2272 
L 4684 2272 
L 4684 1741 
L 678 1741 
L 678 2272 
z
" transform="scale(0.015625)"/>
        <path id="DejaVuSans-2e" d="M 684 794 
L 1344 794 
L 1344 0 
L 684 0 
L 684 794 
z
" transform="scale(0.015625)"/>
       </defs>
       <use xlink:href="#DejaVuSans-2212"/>
       <use xlink:href="#DejaVuSans-30" transform="translate(83.789062 0)"/>
       <use xlink:href="#DejaVuSans-2e" transform="translate(147.412109 0)"/>
       <use xlink:href="#DejaVuSans-34" transform="translate(179.199219 0)"/>
      </g>
     </g>
    </g>
    <g id="ytick_2">
     <g id="line2d_21">
      <path d="M 52.160938 185.419286 
L 568.8 185.419286 
" clip-path="url(#pa0fadeb996)" style="fill: none; stroke-dasharray: 2.96,1.28; stroke-dashoffset: 0; stroke: #b0b0b0; stroke-opacity: 0.8; stroke-width: 0.8"/>
     </g>
     <g id="line2d_22">
      <g>
       <use xlink:href="#mdc103d1f3f" x="52.160938" y="185.419286" style="stroke: #000000; stroke-width: 0.8"/>
      </g>
     </g>
     <g id="text_12">
      <!-- −0.2 -->
      <g transform="translate(20.878125 189.218505) scale(0.1 -0.1)">
       <use xlink:href="#DejaVuSans-2212"/>
       <use xlink:href="#DejaVuSans-30" transform="translate(83.789062 0)"/>
       <use xlink:href="#DejaVuSans-2e" transform="translate(147.412109 0)"/>
       <use xlink:href="#DejaVuSans-32" transform="translate(179.199219 0)"/>
      </g>
     </g>
    </g>
    <g id="ytick_3">
     <g id="line2d_23">
      <path d="M 52.160938 133.097683 
L 568.8 133.097683 
" clip-path="url(#pa0fadeb996)" style="fill: none; stroke-dasharray: 2.96,1.28; stroke-dashoffset: 0; stroke: #b0b0b0; stroke-opacity: 0.8; stroke-width: 0.8"/>
     </g>
     <g id="line2d_24">
      <g>
       <use xlink:href="#mdc103d1f3f" x="52.160938" y="133.097683" style="stroke: #000000; stroke-width: 0.8"/>
      </g>
     </g>
     <g id="text_13">
      <!-- 0.0 -->
      <g transform="translate(29.257812 136.896901) scale(0.1 -0.1)">
       <use xlink:href="#DejaVuSans-30"/>
       <use xlink:href="#DejaVuSans-2e" transform="translate(63.623047 0)"/>
       <use xlink:href="#DejaVuSans-30" transform="translate(95.410156 0)"/>
      </g>
     </g>
    </g>
    <g id="ytick_4">
     <g id="line2d_25">
      <path d="M 52.160938 80.776079 
L 568.8 80.776079 
" clip-path="url(#pa0fadeb996)" style="fill: none; stroke-dasharray: 2.96,1.28; stroke-dashoffset: 0; stroke: #b0b0b0; stroke-opacity: 0.8; stroke-width: 0.8"/>
     </g>
     <g id="line2d_26">
      <g>
       <use xlink:href="#mdc103d1f3f" x="52.160938" y="80.776079" style="stroke: #000000; stroke-width: 0.8"/>
      </g>
     </g>
     <g id="text_14">
      <!-- 0.2 -->
      <g transform="translate(29.257812 84.575298) scale(0.1 -0.1)">
       <use xlink:href="#DejaVuSans-30"/>
       <use xlink:href="#DejaVuSans-2e" transform="translate(63.623047 0)"/>
       <use xlink:href="#DejaVuSans-32" transform="translate(95.410156 0)"/>
      </g>
     </g>
    </g>
    <g id="ytick_5">
     <g id="line2d_27">
      <path d="M 52.160938 28.454476 
L 568.8 28.454476 
" clip-path="url(#pa0fadeb996)" style="fill: none; stroke-dasharray: 2.96,1.28; stroke-dashoffset: 0; stroke: #b0b0b0; stroke-opacity: 0.8; stroke-width: 0.8"/>
     </g>
     <g id="line2d_28">
      <g>
       <use xlink:href="#mdc103d1f3f" x="52.160938" y="28.454476" style="stroke: #000000; stroke-width: 0.8"/>
      </g>
     </g>
     <g id="text_15">
      <!-- 0.4 -->
      <g transform="translate(29.257812 32.253694) scale(0.1 -0.1)">
       <use xlink:href="#DejaVuSans-30"/>
       <use xlink:href="#DejaVuSans-2e" transform="translate(63.623047 0)"/>
       <use xlink:href="#DejaVuSans-34" transform="translate(95.410156 0)"/>
      </g>
     </g>
    </g>
    <g id="text_16">
     <!-- Amplitude -->
     <g transform="translate(14.798437 154.433594) rotate(-90) scale(0.1 -0.1)">
      <defs>
       <path id="DejaVuSans-41" d="M 2188 4044 
L 1331 1722 
L 3047 1722 
L 2188 4044 
z
M 1831 4666 
L 2547 4666 
L 4325 0 
L 3669 0 
L 3244 1197 
L 1141 1197 
L 716 0 
L 50 0 
L 1831 4666 
z
" transform="scale(0.015625)"/>
       <path id="DejaVuSans-69" d="M 603 3500 
L 1178 3500 
L 1178 0 
L 603 0 
L 603 3500 
z
M 603 4863 
L 1178 4863 
L 1178 4134 
L 603 4134 
L 603 4863 
z
" transform="scale(0.015625)"/>
       <path id="DejaVuSans-74" d="M 1172 4494 
L 1172 3500 
L 2356 3500 
L 2356 3053 
L 1172 3053 
L 1172 1153 
Q 1172 725 1289 603 
Q 1406 481 1766 481 
L 2356 481 
L 2356 0 
L 1766 0 
Q 1100 0 847 248 
Q 594 497 594 1153 
L 594 3053 
L 172 3053 
L 172 3500 
L 594 3500 
L 594 4494 
L 1172 4494 
z
" transform="scale(0.015625)"/>
       <path id="DejaVuSans-75" d="M 544 1381 
L 544 3500 
L 1119 3500 
L 1119 1403 
Q 1119 906 1312 657 
Q 1506 409 1894 409 
Q 2359 409 2629 706 
Q 2900 1003 2900 1516 
L 2900 3500 
L 3475 3500 
L 3475 0 
L 2900 0 
L 2900 538 
Q 2691 219 2414 64 
Q 2138 -91 1772 -91 
Q 1169 -91 856 284 
Q 544 659 544 1381 
z
M 1991 3584 
L 1991 3584 
z
" transform="scale(0.015625)"/>
       <path id="DejaVuSans-64" d="M 2906 2969 
L 2906 4863 
L 3481 4863 
L 3481 0 
L 2906 0 
L 2906 525 
Q 2725 213 2448 61 
Q 2172 -91 1784 -91 
Q 1150 -91 751 415 
Q 353 922 353 1747 
Q 353 2572 751 3078 
Q 1150 3584 1784 3584 
Q 2172 3584 2448 3432 
Q 2725 3281 2906 2969 
z
M 947 1747 
Q 947 1113 1208 752 
Q 1469 391 1925 391 
Q 2381 391 2643 752 
Q 2906 1113 2906 1747 
Q 2906 2381 2643 2742 
Q 2381 3103 1925 3103 
Q 1469 3103 1208 2742 
Q 947 2381 947 1747 
z
" transform="scale(0.015625)"/>
      </defs>
      <use xlink:href="#DejaVuSans-41"/>
      <use xlink:href="#DejaVuSans-6d" transform="translate(68.408203 0)"/>
      <use xlink:href="#DejaVuSans-70" transform="translate(165.820312 0)"/>
      <use xlink:href="#DejaVuSans-6c" transform="translate(229.296875 0)"/>
      <use xlink:href="#DejaVuSans-69" transform="translate(257.080078 0)"/>
      <use xlink:href="#DejaVuSans-74" transform="translate(284.863281 0)"/>
      <use xlink:href="#DejaVuSans-75" transform="translate(324.072266 0)"/>
      <use xlink:href="#DejaVuSans-64" transform="translate(387.451172 0)"/>
      <use xlink:href="#DejaVuSans-65" transform="translate(450.927734 0)"/>
     </g>
    </g>
   </g>
   <g id="line2d_29">
    <path d="M 75.644531 140.368102 
L 76.821654 127.54617 
L 77.998776 135.144962 
L 79.175899 140.238328 
L 80.353021 136.003526 
L 81.530144 128.704946 
L 82.707266 134.238836 
L 83.884389 132.399283 
L 85.061511 133.649997 
L 86.238634 139.273527 
L 87.415756 132.224623 
L 88.592879 132.631893 
L 89.770001 132.568472 
L 90.947124 129.452619 
L 92.124246 128.552769 
L 93.301369 133.95683 
L 94.478491 133.921766 
L 95.655614 128.664933 
L 96.832736 132.319078 
L 98.009859 141.545719 
L 99.186981 140.773085 
L 100.364104 147.44142 
L 101.541226 143.087381 
L 102.718349 145.944096 
L 103.895471 129.676462 
L 105.072594 134.281064 
L 107.426839 119.6511 
L 108.603961 114.650542 
L 109.781084 112.361871 
L 110.958206 118.253517 
L 112.135329 121.583514 
L 113.312451 120.693568 
L 114.489574 136.69639 
L 116.843819 173.992552 
L 119.198064 201.07271 
L 120.375186 205.472058 
L 121.552309 214.821353 
L 122.729431 204.36269 
L 123.906553 197.667401 
L 125.083676 182.011521 
L 126.260798 152.283082 
L 127.437921 126.68968 
L 128.615043 94.679921 
L 129.792166 73.072158 
L 130.969288 58.140774 
L 132.146411 57.079463 
L 133.323533 58.593089 
L 134.500656 70.922099 
L 135.677778 96.840035 
L 136.854901 118.859266 
L 138.032023 147.806377 
L 140.386268 198.238181 
L 141.563391 217.694492 
L 142.740513 224.201689 
L 143.917636 217.712525 
L 145.094758 223.079961 
L 146.271881 209.652442 
L 148.626126 189.213126 
L 149.803248 182.618407 
L 152.157493 185.607181 
L 153.334616 194.296198 
L 154.511738 211.786786 
L 155.688861 216.325173 
L 156.865983 224.593342 
L 158.043106 220.534281 
L 159.220228 224.262428 
L 160.397351 210.87972 
L 161.574473 190.35439 
L 162.751596 165.191419 
L 163.928718 142.704961 
L 165.105841 124.719507 
L 167.460086 68.482422 
L 168.637208 59.216117 
L 169.814331 52.870119 
L 170.991453 63.847355 
L 173.345698 106.814182 
L 174.522821 123.273352 
L 175.699943 151.614405 
L 176.877066 176.452399 
L 178.054188 195.323954 
L 179.231311 210.493416 
L 180.408433 210.500929 
L 181.585556 200.708594 
L 182.762678 181.294633 
L 183.939801 167.518271 
L 185.116923 135.811164 
L 186.294046 112.708828 
L 188.648291 61.299834 
L 191.002536 31.018281 
L 192.179658 26.881352 
L 193.356781 23.552352 
L 194.533903 39.2711 
L 195.711026 46.990406 
L 196.888148 56.597855 
L 198.065271 85.001805 
L 199.242393 86.285765 
L 200.419516 102.866137 
L 201.596638 124.552012 
L 202.773761 131.938137 
L 203.950883 152.984564 
L 205.128006 167.673362 
L 207.482251 188.332735 
L 208.659373 208.323098 
L 209.836496 218.024896 
L 211.013618 235.030664 
L 212.190741 233.176172 
L 213.367863 235.845906 
L 214.544986 229.15239 
L 215.722108 216.433585 
L 218.076353 188.122121 
L 219.253475 160.658062 
L 220.430598 138.427711 
L 221.60772 110.636544 
L 222.784843 85.687211 
L 223.961965 74.631812 
L 225.139088 70.982168 
L 226.31621 68.169558 
L 227.493333 59.907871 
L 228.670455 76.443172 
L 229.847578 86.897201 
L 232.201823 134.593722 
L 233.378945 153.905465 
L 235.73319 203.933115 
L 236.910313 213.3674 
L 238.087435 224.614463 
L 239.264558 232.393508 
L 240.44168 239.366335 
L 241.618803 239.243121 
L 242.795925 237.300184 
L 245.15017 196.830397 
L 246.327293 177.44019 
L 248.681538 144.301756 
L 249.85866 111.545005 
L 251.035783 97.801641 
L 252.212905 77.483155 
L 253.390028 75.142345 
L 254.56715 66.987805 
L 255.744273 66.287996 
L 256.921395 64.021098 
L 258.098518 63.384223 
L 259.27564 65.655662 
L 260.452763 64.907466 
L 261.629885 64.696642 
L 262.807008 67.371183 
L 263.98413 65.202347 
L 265.161253 58.564805 
L 266.338375 56.879904 
L 267.515498 71.483392 
L 268.69262 60.081279 
L 269.869743 65.224979 
L 271.046865 66.802396 
L 272.223988 61.277398 
L 273.40111 66.108828 
L 274.578233 72.072219 
L 275.755355 87.784375 
L 276.932478 100.771841 
L 279.286723 136.742616 
L 280.463845 163.303004 
L 281.640968 173.745455 
L 283.995213 214.085944 
L 285.172335 222.816885 
L 286.349458 237.945293 
L 287.52658 234.813327 
L 288.703703 236.532332 
L 289.880825 229.384688 
L 291.057948 225.416683 
L 292.23507 205.852757 
L 294.589315 152.67716 
L 295.766438 134.838288 
L 296.94356 105.993046 
L 298.120683 91.722542 
L 299.297805 74.072105 
L 300.474928 60.905534 
L 301.65205 69.446196 
L 302.829173 72.750588 
L 304.006295 81.110078 
L 305.183418 97.687176 
L 306.36054 124.848454 
L 307.537663 140.952274 
L 308.714785 168.42844 
L 311.06903 198.211006 
L 312.246152 220.626228 
L 313.423275 216.623521 
L 314.600397 232.764733 
L 315.77752 224.557171 
L 316.954642 222.357462 
L 318.131765 207.361438 
L 319.308887 206.564273 
L 320.48601 192.765163 
L 321.663132 181.761658 
L 322.840255 192.029056 
L 324.017377 184.379637 
L 325.1945 188.927477 
L 326.371622 196.318261 
L 327.548745 193.297989 
L 328.725867 202.360293 
L 329.90299 203.928684 
L 331.080112 212.173538 
L 332.257235 197.750182 
L 333.434357 207.131705 
L 334.61148 197.606425 
L 335.788602 193.078044 
L 336.965725 203.860295 
L 338.142847 191.733112 
L 340.497092 196.696378 
L 341.674215 194.489974 
L 342.851337 197.870933 
L 344.02846 195.679217 
L 345.205582 206.681593 
L 346.382705 206.212289 
L 347.559827 205.315419 
L 348.73695 195.561107 
L 349.914072 200.805286 
L 351.091195 196.229679 
L 352.268317 193.628175 
L 353.44544 184.865202 
L 354.622562 187.374105 
L 355.799685 195.263166 
L 356.976807 194.994876 
L 358.15393 196.140458 
L 360.508175 204.71234 
L 361.685297 209.339746 
L 362.86242 214.94333 
L 364.039542 211.148446 
L 365.216665 210.557885 
L 366.393787 202.356721 
L 368.748032 190.330562 
L 369.925155 181.152626 
L 372.2794 149.715735 
L 373.456522 120.310676 
L 374.633645 103.652076 
L 375.810767 91.461686 
L 376.98789 76.98498 
L 378.165012 53.314542 
L 379.342135 39.432725 
L 380.519257 23.774658 
L 381.69638 29.08182 
L 382.873502 24.225732 
L 384.050625 32.451783 
L 385.227747 46.387007 
L 386.40487 62.812702 
L 387.581992 80.807381 
L 388.759115 101.684081 
L 389.936237 136.082281 
L 391.11336 161.76221 
L 392.290482 179.782782 
L 393.467605 187.430025 
L 394.644727 204.374108 
L 395.82185 200.325734 
L 396.998972 200.653807 
L 398.176095 189.417361 
L 399.353217 171.478215 
L 400.53034 143.698378 
L 401.707462 129.119813 
L 402.884585 99.275135 
L 405.238829 65.343615 
L 407.593074 41.57155 
L 408.770197 41.737901 
L 409.947319 46.419981 
L 411.124442 54.993335 
L 412.301564 56.896472 
L 413.478687 66.500015 
L 414.655809 71.619494 
L 415.832932 79.281392 
L 417.010054 80.502386 
L 418.187177 88.755299 
L 419.364299 73.1236 
L 420.541422 67.927998 
L 421.718544 58.40717 
L 422.895667 64.705789 
L 424.072789 50.93929 
L 425.249912 50.988058 
L 426.427034 66.390835 
L 427.604157 73.783904 
L 428.781279 74.414567 
L 429.958402 80.84074 
L 431.135524 92.993421 
L 432.312647 82.756929 
L 433.489769 83.293878 
L 434.666892 73.766405 
L 435.844014 61.845671 
L 437.021137 58.569475 
L 438.198259 40.699345 
L 439.375382 35.264621 
L 440.552504 23.491445 
L 441.729627 34.232823 
L 442.906749 54.164293 
L 445.260994 98.850351 
L 446.438117 132.221259 
L 447.615239 172.329503 
L 448.792362 187.646922 
L 449.969484 206.71848 
L 451.146607 206.220525 
L 452.323729 211.085058 
L 453.500852 195.954707 
L 454.677974 185.369842 
L 455.855097 151.19664 
L 457.032219 133.489885 
L 458.209342 96.566856 
L 459.386464 68.796037 
L 460.563587 63.376439 
L 461.740709 51.638191 
L 462.917832 58.971456 
L 464.094954 71.500317 
L 465.272077 95.624754 
L 466.449199 129.27078 
L 467.626322 144.743475 
L 468.803444 176.784049 
L 469.980567 193.521967 
L 471.157689 212.098653 
L 472.334812 213.651939 
L 473.511934 200.940073 
L 474.689057 186.768821 
L 475.866179 168.124952 
L 477.043302 143.927712 
L 479.397547 82.553008 
L 481.751792 41.76265 
L 482.928914 27.941216 
L 484.106037 18.25554 
L 485.283159 21.527995 
L 487.637404 40.065384 
L 488.814527 53.344964 
L 489.991649 70.338268 
L 491.168772 92.449354 
L 492.345894 117.587429 
L 493.523017 127.351594 
L 494.700139 150.873801 
L 495.877262 155.511512 
L 497.054384 170.186774 
L 499.408629 189.712484 
L 500.585751 205.035831 
L 502.939996 210.774907 
L 504.117119 213.244711 
L 505.294241 220.392295 
L 506.471364 209.470007 
L 507.648486 212.189099 
L 508.825609 203.066924 
L 510.002731 202.72742 
L 511.179854 190.582922 
L 512.356976 186.881732 
L 513.534099 173.621845 
L 514.711221 177.552877 
L 515.888344 173.362095 
L 517.065466 185.159679 
L 518.242589 195.051718 
L 519.419711 198.172324 
L 520.596834 202.243176 
L 521.773956 220.131586 
L 522.951079 216.861703 
L 524.128201 237.046933 
L 525.305324 224.001158 
L 526.482446 218.975634 
L 527.659569 211.764766 
L 528.836691 189.426852 
L 530.013814 157.659413 
L 531.190936 136.294708 
L 532.368059 105.636649 
L 533.545181 86.23219 
L 535.899426 59.72897 
L 537.076549 57.339251 
L 538.253671 68.056774 
L 539.430794 82.109928 
L 540.607916 99.831737 
L 541.785039 127.635766 
L 544.139284 172.056969 
L 545.316406 185.441842 
L 545.316406 185.441842 
" clip-path="url(#pa0fadeb996)" style="fill: none; stroke: #1f77b4; stroke-linecap: square"/>
   </g>
   <g id="line2d_30">
    <path d="M 75.644531 134.477101 
L 76.821654 136.281469 
L 77.998776 128.372237 
L 79.175899 126.660744 
L 80.353021 132.363374 
L 81.530144 132.629621 
L 82.707266 134.778731 
L 83.884389 139.078994 
L 85.061511 133.910513 
L 86.238634 133.590884 
L 87.415756 128.576596 
L 88.592879 132.162895 
L 89.770001 131.056047 
L 90.947124 127.092096 
L 92.124246 128.2853 
L 93.301369 134.739492 
L 94.478491 133.583244 
L 95.655614 138.713837 
L 99.186981 143.857651 
L 100.364104 134.601588 
L 101.541226 128.432761 
L 102.718349 129.363382 
L 103.895471 123.555607 
L 105.072594 123.736344 
L 106.249716 121.479581 
L 107.426839 126.104726 
L 108.603961 129.716215 
L 109.781084 139.585619 
L 110.958206 144.790925 
L 112.135329 144.958686 
L 113.312451 148.544108 
L 114.489574 154.262251 
L 115.666696 144.878659 
L 116.843819 146.725414 
L 118.020941 142.190388 
L 119.198064 127.988214 
L 120.375186 104.602222 
L 121.552309 94.177594 
L 123.906553 81.113466 
L 125.083676 62.716518 
L 126.260798 63.00992 
L 127.437921 67.11264 
L 128.615043 67.878411 
L 129.792166 86.395066 
L 130.969288 108.146567 
L 132.146411 118.657464 
L 133.323533 147.122205 
L 135.677778 189.834839 
L 136.854901 205.183607 
L 138.032023 214.446083 
L 139.209146 218.914489 
L 140.386268 222.420969 
L 141.563391 220.468665 
L 142.740513 202.258392 
L 143.917636 202.060626 
L 145.094758 197.05074 
L 146.271881 195.71157 
L 147.449003 192.964274 
L 148.626126 197.91163 
L 149.803248 192.418941 
L 150.980371 190.512929 
L 152.157493 198.548471 
L 153.334616 202.744066 
L 154.511738 205.888593 
L 155.688861 206.974956 
L 156.865983 201.163728 
L 158.043106 208.637519 
L 159.220228 198.144308 
L 160.397351 198.74823 
L 161.574473 184.566003 
L 162.751596 183.619166 
L 163.928718 195.028982 
L 165.105841 192.837748 
L 166.282963 200.597115 
L 167.460086 202.430106 
L 168.637208 208.203846 
L 169.814331 209.211181 
L 170.991453 213.433611 
L 172.168576 222.779661 
L 173.345698 216.229513 
L 174.522821 207.652771 
L 175.699943 194.017731 
L 176.877066 169.632391 
L 178.054188 153.914877 
L 179.231311 123.414437 
L 180.408433 110.981732 
L 181.585556 91.168863 
L 183.939801 61.673412 
L 185.116923 50.461335 
L 186.294046 50.607271 
L 187.471168 49.591422 
L 188.648291 48.324483 
L 189.825413 49.091035 
L 191.002536 67.866379 
L 192.179658 64.090033 
L 193.356781 73.872831 
L 194.533903 78.563768 
L 195.711026 81.00914 
L 196.888148 82.54349 
L 198.065271 73.116014 
L 199.242393 64.724015 
L 200.419516 57.868755 
L 201.596638 59.528307 
L 202.773761 60.159131 
L 203.950883 57.836736 
L 205.128006 59.49562 
L 206.305128 70.858189 
L 207.482251 70.465067 
L 208.659373 88.706478 
L 209.836496 83.534657 
L 211.013618 82.914164 
L 212.190741 69.990693 
L 213.367863 71.326546 
L 214.544986 71.333733 
L 215.722108 43.398819 
L 216.89923 37.800114 
L 218.076353 40.001931 
L 219.253475 35.541169 
L 220.430598 36.484031 
L 221.60772 52.217842 
L 222.784843 87.761571 
L 223.961965 102.01123 
L 225.139088 134.025649 
L 227.493333 176.683003 
L 228.670455 192.554981 
L 229.847578 221.471864 
L 232.201823 199.700704 
L 233.378945 174.681003 
L 234.556068 155.018078 
L 235.73319 129.413339 
L 236.910313 113.537076 
L 238.087435 92.517075 
L 239.264558 68.557701 
L 240.44168 59.746407 
L 241.618803 57.338657 
L 242.795925 62.828719 
L 243.973048 95.030031 
L 245.15017 107.244221 
L 246.327293 135.945263 
L 248.681538 188.496942 
L 249.85866 205.499429 
L 251.035783 229.927543 
L 252.212905 232.678626 
L 253.390028 236.123699 
L 254.56715 220.13949 
L 255.744273 217.677047 
L 256.921395 209.495794 
L 258.098518 203.103623 
L 259.27564 185.571068 
L 260.452763 183.42571 
L 261.629885 181.890194 
L 262.807008 188.83034 
L 263.98413 186.343857 
L 265.161253 199.060178 
L 266.338375 199.597108 
L 267.515498 202.94582 
L 268.69262 215.425104 
L 269.869743 215.670174 
L 271.046865 198.56945 
L 272.223988 207.132091 
L 273.40111 194.449767 
L 274.578233 186.252272 
L 275.755355 182.051753 
L 276.932478 179.294254 
L 278.1096 187.452455 
L 279.286723 193.206227 
L 280.463845 207.03364 
L 281.640968 218.370815 
L 282.81809 223.163083 
L 283.995213 234.898274 
L 285.172335 226.407027 
L 286.349458 229.998145 
L 287.52658 201.588697 
L 288.703703 184.947576 
L 291.057948 139.012507 
L 292.23507 108.035942 
L 294.589315 73.511202 
L 296.94356 52.205704 
L 298.120683 66.090819 
L 301.65205 118.772513 
L 302.829173 160.58128 
L 304.006295 186.70248 
L 305.183418 199.997141 
L 306.36054 210.871213 
L 307.537663 214.206057 
L 308.714785 205.265854 
L 309.891908 189.147711 
L 311.06903 167.71606 
L 312.246152 132.669905 
L 315.77752 60.767016 
L 316.954642 41.905248 
L 318.131765 32.173957 
L 319.308887 24.976221 
L 320.48601 21.070376 
L 321.663132 31.241535 
L 322.840255 32.640246 
L 324.017377 58.035397 
L 325.1945 78.958395 
L 326.371622 91.546258 
L 327.548745 111.116648 
L 328.725867 126.451857 
L 329.90299 136.159199 
L 331.080112 149.031846 
L 332.257235 169.096786 
L 334.61148 196.92806 
L 335.788602 201.01996 
L 336.965725 221.715879 
L 339.31997 224.442145 
L 340.497092 219.286767 
L 342.851337 215.283697 
L 345.205582 190.175577 
L 346.382705 172.094465 
L 347.559827 160.389929 
L 348.73695 139.402857 
L 349.914072 115.844644 
L 351.091195 100.603758 
L 352.268317 83.559781 
L 354.622562 61.228044 
L 355.799685 45.633555 
L 356.976807 50.417064 
L 358.15393 40.827542 
L 359.331052 39.728466 
L 360.508175 44.326435 
L 361.685297 44.472505 
L 362.86242 52.54698 
L 364.039542 80.421101 
L 365.216665 96.451239 
L 366.393787 118.00241 
L 367.57091 147.63469 
L 368.748032 166.422018 
L 369.925155 179.457281 
L 371.102277 200.730326 
L 372.2794 204.240903 
L 373.456522 210.707404 
L 374.633645 206.513652 
L 375.810767 204.564886 
L 376.98789 199.481546 
L 378.165012 189.269431 
L 379.342135 195.018247 
L 380.519257 185.941638 
L 381.69638 188.523351 
L 382.873502 196.857055 
L 384.050625 201.071482 
L 385.227747 215.187722 
L 386.40487 214.188732 
L 387.581992 230.627262 
L 388.759115 218.087182 
L 389.936237 223.515641 
L 391.11336 211.155318 
L 392.290482 195.507484 
L 393.467605 170.454736 
L 394.644727 151.277365 
L 395.82185 111.882633 
L 396.998972 87.703738 
L 398.176095 78.925125 
L 399.353217 54.201483 
L 400.53034 56.248343 
L 401.707462 55.456964 
L 402.884585 65.608568 
L 405.238829 117.768364 
L 406.415952 148.287721 
L 409.947319 211.103279 
L 411.124442 224.013426 
L 412.301564 220.17015 
L 413.478687 225.320683 
L 414.655809 221.639026 
L 417.010054 207.893045 
L 418.187177 198.153943 
L 419.364299 197.710251 
L 420.541422 191.881556 
L 421.718544 194.171001 
L 422.895667 199.12327 
L 424.072789 198.311676 
L 425.249912 197.153437 
L 426.427034 200.978957 
L 427.604157 203.516091 
L 428.781279 199.834333 
L 429.958402 194.633656 
L 431.135524 176.47443 
L 432.312647 167.07069 
L 433.489769 150.051476 
L 434.666892 131.270935 
L 435.844014 108.974719 
L 437.021137 83.540031 
L 438.198259 62.372596 
L 439.375382 45.648299 
L 440.552504 39.904754 
L 441.729627 25.757787 
L 442.906749 23.131839 
L 444.083872 28.92899 
L 445.260994 36.281058 
L 446.438117 47.643048 
L 448.792362 82.534231 
L 449.969484 112.982731 
L 451.146607 128.854842 
L 452.323729 160.894834 
L 453.500852 170.869564 
L 454.677974 192.027755 
L 455.855097 197.359939 
L 457.032219 203.930947 
L 458.209342 201.062684 
L 459.386464 191.361159 
L 460.563587 167.864556 
L 461.740709 162.456447 
L 462.917832 131.799339 
L 464.094954 108.148344 
L 465.272077 77.749613 
L 466.449199 68.554497 
L 467.626322 42.707824 
L 468.803444 42.90997 
L 469.980567 36.5404 
L 471.157689 31.075269 
L 472.334812 32.197081 
L 473.511934 48.273584 
L 474.689057 49.994465 
L 475.866179 77.266018 
L 477.043302 85.361881 
L 479.397547 123.187078 
L 480.574669 134.812988 
L 481.751792 155.945609 
L 482.928914 173.784977 
L 484.106037 179.469361 
L 485.283159 199.303251 
L 486.460282 203.988 
L 487.637404 214.48826 
L 488.814527 214.900691 
L 489.991649 228.25998 
L 491.168772 222.910871 
L 493.523017 206.472735 
L 494.700139 200.550554 
L 495.877262 183.305013 
L 498.231507 158.945988 
L 499.408629 128.053655 
L 500.585751 116.079488 
L 501.762874 101.224911 
L 502.939996 75.954715 
L 504.117119 68.316989 
L 505.294241 52.035355 
L 506.471364 44.428042 
L 507.648486 47.33989 
L 508.825609 36.239387 
L 510.002731 36.82532 
L 511.179854 39.446407 
L 512.356976 53.424956 
L 513.534099 72.72857 
L 514.711221 81.158468 
L 515.888344 101.465156 
L 518.242589 137.016615 
L 520.596834 174.456017 
L 521.773956 185.773675 
L 522.951079 190.35215 
L 524.128201 210.135233 
L 525.305324 215.942495 
L 526.482446 212.914215 
L 527.659569 218.550946 
L 528.836691 212.224143 
L 530.013814 214.724337 
L 531.190936 205.30974 
L 532.368059 201.900677 
L 533.545181 196.410725 
L 534.722304 187.422404 
L 535.899426 186.7525 
L 537.076549 184.280149 
L 538.253671 172.691143 
L 539.430794 177.147523 
L 540.607916 190.699507 
L 541.785039 186.011297 
L 542.962161 202.132879 
L 544.139284 208.969932 
L 545.316406 222.768929 
L 545.316406 222.768929 
" clip-path="url(#pa0fadeb996)" style="fill: none; stroke: #ff7f0e; stroke-linecap: square"/>
   </g>
   <g id="patch_3">
    <path d="M 52.160938 250.421875 
L 52.160938 7.2 
" style="fill: none; stroke: #000000; stroke-width: 0.8; stroke-linejoin: miter; stroke-linecap: square"/>
   </g>
   <g id="patch_4">
    <path d="M 568.8 250.421875 
L 568.8 7.2 
" style="fill: none; stroke: #000000; stroke-width: 0.8; stroke-linejoin: miter; stroke-linecap: square"/>
   </g>
   <g id="patch_5">
    <path d="M 52.160937 250.421875 
L 568.8 250.421875 
" style="fill: none; stroke: #000000; stroke-width: 0.8; stroke-linejoin: miter; stroke-linecap: square"/>
   </g>
   <g id="patch_6">
    <path d="M 52.160937 7.2 
L 568.8 7.2 
" style="fill: none; stroke: #000000; stroke-width: 0.8; stroke-linejoin: miter; stroke-linecap: square"/>
   </g>
   <g id="legend_1">
    <g id="patch_7">
     <path d="M 59.160938 44.55625 
L 116.15625 44.55625 
Q 118.15625 44.55625 118.15625 42.55625 
L 118.15625 14.2 
Q 118.15625 12.2 116.15625 12.2 
L 59.160938 12.2 
Q 57.160938 12.2 57.160938 14.2 
L 57.160938 42.55625 
Q 57.160938 44.55625 59.160938 44.55625 
z
" style="fill: #ffffff; opacity: 0.8; stroke: #cccccc; stroke-linejoin: miter"/>
    </g>
    <g id="line2d_31">
     <path d="M 61.160938 20.298437 
L 71.160938 20.298437 
L 81.160938 20.298437 
" style="fill: none; stroke: #1f77b4; stroke-linecap: square"/>
    </g>
    <g id="text_17">
     <!-- real -->
     <g transform="translate(89.160938 23.798437) scale(0.1 -0.1)">
      <defs>
       <path id="DejaVuSans-72" d="M 2631 2963 
Q 2534 3019 2420 3045 
Q 2306 3072 2169 3072 
Q 1681 3072 1420 2755 
Q 1159 2438 1159 1844 
L 1159 0 
L 581 0 
L 581 3500 
L 1159 3500 
L 1159 2956 
Q 1341 3275 1631 3429 
Q 1922 3584 2338 3584 
Q 2397 3584 2469 3576 
Q 2541 3569 2628 3553 
L 2631 2963 
z
" transform="scale(0.015625)"/>
      </defs>
      <use xlink:href="#DejaVuSans-72"/>
      <use xlink:href="#DejaVuSans-65" transform="translate(38.863281 0)"/>
      <use xlink:href="#DejaVuSans-61" transform="translate(100.386719 0)"/>
      <use xlink:href="#DejaVuSans-6c" transform="translate(161.666016 0)"/>
     </g>
    </g>
    <g id="line2d_32">
     <path d="M 61.160938 34.976562 
L 71.160938 34.976562 
L 81.160938 34.976562 
" style="fill: none; stroke: #ff7f0e; stroke-linecap: square"/>
    </g>
    <g id="text_18">
     <!-- imag -->
     <g transform="translate(89.160938 38.476562) scale(0.1 -0.1)">
      <defs>
       <path id="DejaVuSans-67" d="M 2906 1791 
Q 2906 2416 2648 2759 
Q 2391 3103 1925 3103 
Q 1463 3103 1205 2759 
Q 947 2416 947 1791 
Q 947 1169 1205 825 
Q 1463 481 1925 481 
Q 2391 481 2648 825 
Q 2906 1169 2906 1791 
z
M 3481 434 
Q 3481 -459 3084 -895 
Q 2688 -1331 1869 -1331 
Q 1566 -1331 1297 -1286 
Q 1028 -1241 775 -1147 
L 775 -588 
Q 1028 -725 1275 -790 
Q 1522 -856 1778 -856 
Q 2344 -856 2625 -561 
Q 2906 -266 2906 331 
L 2906 616 
Q 2728 306 2450 153 
Q 2172 0 1784 0 
Q 1141 0 747 490 
Q 353 981 353 1791 
Q 353 2603 747 3093 
Q 1141 3584 1784 3584 
Q 2172 3584 2450 3431 
Q 2728 3278 2906 2969 
L 2906 3500 
L 3481 3500 
L 3481 434 
z
" transform="scale(0.015625)"/>
      </defs>
      <use xlink:href="#DejaVuSans-69"/>
      <use xlink:href="#DejaVuSans-6d" transform="translate(27.783203 0)"/>
      <use xlink:href="#DejaVuSans-61" transform="translate(125.195312 0)"/>
      <use xlink:href="#DejaVuSans-67" transform="translate(186.474609 0)"/>
     </g>
    </g>
   </g>
  </g>
 </g>
 <defs>
  <clipPath id="pa0fadeb996">
   <rect x="52.160938" y="7.2" width="516.639063" height="243.221875"/>
  </clipPath>
 </defs>
</svg>
