<?xml version="1.0" encoding="utf-8" standalone="no"?>
<!DOCTYPE svg PUBLIC "-//W3C//DTD SVG 1.1//EN"
  "http://www.w3.org/Graphics/SVG/1.1/DTD/svg11.dtd">
<svg xmlns:xlink="http://www.w3.org/1999/xlink" width="576pt" height="288pt" viewBox="0 0 576 288" xmlns="http://www.w3.org/2000/svg" version="1.1">
 <metadata>
  <rdf:RDF xmlns:dc="http://purl.org/dc/elements/1.1/" xmlns:cc="http://creativecommons.org/ns#" xmlns:rdf="http://www.w3.org/1999/02/22-rdf-syntax-ns#">
   <cc:Work>
    <dc:type rdf:resource="http://purl.org/dc/dcmitype/StillImage"/>
    <dc:date>2026-05-03T17:00:59.774606</dc:date>
    <dc:format>image/svg+xml</dc:format>
    <dc:creator>
     <cc:Agent>
      <dc:title>Matplotlib v3.10.9, https://matplotlib.org/</dc:title>
     </cc:Agent>
    </dc:creator>
   </cc:Work>
  </rdf:RDF>
 </metadata>
 <defs>
  <style type="text/css">*{stroke-linejoin: round; stroke-linecap: butt}</style>
 </defs>
 <g id="figure_1">
  <g id="patch_1">
   <path d="M 0 288 
L 576 288 
L 576 0 
L 0 0 
z
" style="fill: #ffffff"/>
  </g>
  <g id="axes_1">
   <g id="patch_2">
    <path d="M 50.165625 250.421875 
L 565.490377 250.421875 
L 565.490377 22.318125 
L 50.165625 22.318125 
z
" style="fill: #ffffff"/>
   </g>
   <g id="matplotlib.axis_1">
    <g id="xtick_1">
     <g id="line2d_1">
      <path d="M 73.589477 250.421875 
L 73.589477 22.318125 
" clip-path="url(#pfb6c7affaa)" style="fill: none; stroke-dasharray: 2.96,1.28; stroke-dashoffset: 0; stroke: #b0b0b0; stroke-opacity: 0.8; stroke-width: 0.8"/>
     </g>
     <g id="line2d_2">
      <defs>
       <path id="m05529d83a9" d="M 0 0 
L 0 3.5 
" style="stroke: #000000; stroke-width: 0.8"/>
      </defs>
      <g>
       <use xlink:href="#m05529d83a9" x="73.589477" y="250.421875" style="stroke: #000000; stroke-width: 0.8"/>
      </g>
     </g>
     <g id="text_1">
      <!-- 0 -->
      <g transform="translate(70.408227 265.020312) scale(0.1 -0.1)">
       <defs>
        <path id="DejaVuSans-30" d="M 2034 4250 
Q 1547 4250 1301 3770 
Q 1056 3291 1056 2328 
Q 1056 1369 1301 889 
Q 1547 409 2034 409 
Q 2525 409 2770 889 
Q 3016 1369 3016 2328 
Q 3016 3291 2770 3770 
Q 2525 4250 2034 4250 
z
M 2034 4750 
Q 2819 4750 3233 4129 
Q 3647 3509 3647 2328 
Q 3647 1150 3233 529 
Q 2819 -91 2034 -91 
Q 1250 -91 836 529 
Q 422 1150 422 2328 
Q 422 3509 836 4129 
Q 1250 4750 2034 4750 
z
" transform="scale(0.015625)"/>
       </defs>
       <use xlink:href="#DejaVuSans-30"/>
      </g>
     </g>
    </g>
    <g id="xtick_2">
     <g id="line2d_3">
      <path d="M 134.695179 250.421875 
L 134.695179 22.318125 
" clip-path="url(#pfb6c7affaa)" style="fill: none; stroke-dasharray: 2.96,1.28; stroke-dashoffset: 0; stroke: #b0b0b0; stroke-opacity: 0.8; stroke-width: 0.8"/>
     </g>
     <g id="line2d_4">
      <g>
       <use xlink:href="#m05529d83a9" x="134.695179" y="250.421875" style="stroke: #000000; stroke-width: 0.8"/>
      </g>
     </g>
     <g id="text_2">
      <!-- 3 -->
      <g transform="translate(131.513929 265.020312) scale(0.1 -0.1)">
       <defs>
        <path id="DejaVuSans-33" d="M 2597 2516 
Q 3050 2419 3304 2112 
Q 3559 1806 3559 1356 
Q 3559 666 3084 287 
Q 2609 -91 1734 -91 
Q 1441 -91 1130 -33 
Q 819 25 488 141 
L 488 750 
Q 750 597 1062 519 
Q 1375 441 1716 441 
Q 2309 441 2620 675 
Q 2931 909 2931 1356 
Q 2931 1769 2642 2001 
Q 2353 2234 1838 2234 
L 1294 2234 
L 1294 2753 
L 1863 2753 
Q 2328 2753 2575 2939 
Q 2822 3125 2822 3475 
Q 2822 3834 2567 4026 
Q 2313 4219 1838 4219 
Q 1578 4219 1281 4162 
Q 984 4106 628 3988 
L 628 4550 
Q 988 4650 1302 4700 
Q 1616 4750 1894 4750 
Q 2613 4750 3031 4423 
Q 3450 4097 3450 3541 
Q 3450 3153 3228 2886 
Q 3006 2619 2597 2516 
z
" transform="scale(0.015625)"/>
       </defs>
       <use xlink:href="#DejaVuSans-33"/>
      </g>
     </g>
    </g>
    <g id="xtick_3">
     <g id="line2d_5">
      <path d="M 195.800881 250.421875 
L 195.800881 22.318125 
" clip-path="url(#pfb6c7affaa)" style="fill: none; stroke-dasharray: 2.96,1.28; stroke-dashoffset: 0; stroke: #b0b0b0; stroke-opacity: 0.8; stroke-width: 0.8"/>
     </g>
     <g id="line2d_6">
      <g>
       <use xlink:href="#m05529d83a9" x="195.800881" y="250.421875" style="stroke: #000000; stroke-width: 0.8"/>
      </g>
     </g>
     <g id="text_3">
      <!-- 6 -->
      <g transform="translate(192.619631 265.020312) scale(0.1 -0.1)">
       <defs>
        <path id="DejaVuSans-36" d="M 2113 2584 
Q 1688 2584 1439 2293 
Q 1191 2003 1191 1497 
Q 1191 994 1439 701 
Q 1688 409 2113 409 
Q 2538 409 2786 701 
Q 3034 994 3034 1497 
Q 3034 2003 2786 2293 
Q 2538 2584 2113 2584 
z
M 3366 4563 
L 3366 3988 
Q 3128 4100 2886 4159 
Q 2644 4219 2406 4219 
Q 1781 4219 1451 3797 
Q 1122 3375 1075 2522 
Q 1259 2794 1537 2939 
Q 1816 3084 2150 3084 
Q 2853 3084 3261 2657 
Q 3669 2231 3669 1497 
Q 3669 778 3244 343 
Q 2819 -91 2113 -91 
Q 1303 -91 875 529 
Q 447 1150 447 2328 
Q 447 3434 972 4092 
Q 1497 4750 2381 4750 
Q 2619 4750 2861 4703 
Q 3103 4656 3366 4563 
z
" transform="scale(0.015625)"/>
       </defs>
       <use xlink:href="#DejaVuSans-36"/>
      </g>
     </g>
    </g>
    <g id="xtick_4">
     <g id="line2d_7">
      <path d="M 256.906583 250.421875 
L 256.906583 22.318125 
" clip-path="url(#pfb6c7affaa)" style="fill: none; stroke-dasharray: 2.96,1.28; stroke-dashoffset: 0; stroke: #b0b0b0; stroke-opacity: 0.8; stroke-width: 0.8"/>
     </g>
     <g id="line2d_8">
      <g>
       <use xlink:href="#m05529d83a9" x="256.906583" y="250.421875" style="stroke: #000000; stroke-width: 0.8"/>
      </g>
     </g>
     <g id="text_4">
      <!-- 9 -->
      <g transform="translate(253.725333 265.020312) scale(0.1 -0.1)">
       <defs>
        <path id="DejaVuSans-39" d="M 703 97 
L 703 672 
Q 941 559 1184 500 
Q 1428 441 1663 441 
Q 2288 441 2617 861 
Q 2947 1281 2994 2138 
Q 2813 1869 2534 1725 
Q 2256 1581 1919 1581 
Q 1219 1581 811 2004 
Q 403 2428 403 3163 
Q 403 3881 828 4315 
Q 1253 4750 1959 4750 
Q 2769 4750 3195 4129 
Q 3622 3509 3622 2328 
Q 3622 1225 3098 567 
Q 2575 -91 1691 -91 
Q 1453 -91 1209 -44 
Q 966 3 703 97 
z
M 1959 2075 
Q 2384 2075 2632 2365 
Q 2881 2656 2881 3163 
Q 2881 3666 2632 3958 
Q 2384 4250 1959 4250 
Q 1534 4250 1286 3958 
Q 1038 3666 1038 3163 
Q 1038 2656 1286 2365 
Q 1534 2075 1959 2075 
z
" transform="scale(0.015625)"/>
       </defs>
       <use xlink:href="#DejaVuSans-39"/>
      </g>
     </g>
    </g>
    <g id="xtick_5">
     <g id="line2d_9">
      <path d="M 318.012284 250.421875 
L 318.012284 22.318125 
" clip-path="url(#pfb6c7affaa)" style="fill: none; stroke-dasharray: 2.96,1.28; stroke-dashoffset: 0; stroke: #b0b0b0; stroke-opacity: 0.8; stroke-width: 0.8"/>
     </g>
     <g id="line2d_10">
      <g>
       <use xlink:href="#m05529d83a9" x="318.012284" y="250.421875" style="stroke: #000000; stroke-width: 0.8"/>
      </g>
     </g>
     <g id="text_5">
      <!-- 12 -->
      <g transform="translate(311.649784 265.020312) scale(0.1 -0.1)">
       <defs>
        <path id="DejaVuSans-31" d="M 794 531 
L 1825 531 
L 1825 4091 
L 703 3866 
L 703 4441 
L 1819 4666 
L 2450 4666 
L 2450 531 
L 3481 531 
L 3481 0 
L 794 0 
L 794 531 
z
" transform="scale(0.015625)"/>
        <path id="DejaVuSans-32" d="M 1228 531 
L 3431 531 
L 3431 0 
L 469 0 
L 469 531 
Q 828 903 1448 1529 
Q 2069 2156 2228 2338 
Q 2531 2678 2651 2914 
Q 2772 3150 2772 3378 
Q 2772 3750 2511 3984 
Q 2250 4219 1831 4219 
Q 1534 4219 1204 4116 
Q 875 4013 500 3803 
L 500 4441 
Q 881 4594 1212 4672 
Q 1544 4750 1819 4750 
Q 2544 4750 2975 4387 
Q 3406 4025 3406 3419 
Q 3406 3131 3298 2873 
Q 3191 2616 2906 2266 
Q 2828 2175 2409 1742 
Q 1991 1309 1228 531 
z
" transform="scale(0.015625)"/>
       </defs>
       <use xlink:href="#DejaVuSans-31"/>
       <use xlink:href="#DejaVuSans-32" transform="translate(63.623047 0)"/>
      </g>
     </g>
    </g>
    <g id="xtick_6">
     <g id="line2d_11">
      <path d="M 379.117986 250.421875 
L 379.117986 22.318125 
" clip-path="url(#pfb6c7affaa)" style="fill: none; stroke-dasharray: 2.96,1.28; stroke-dashoffset: 0; stroke: #b0b0b0; stroke-opacity: 0.8; stroke-width: 0.8"/>
     </g>
     <g id="line2d_12">
      <g>
       <use xlink:href="#m05529d83a9" x="379.117986" y="250.421875" style="stroke: #000000; stroke-width: 0.8"/>
      </g>
     </g>
     <g id="text_6">
      <!-- 15 -->
      <g transform="translate(372.755486 265.020312) scale(0.1 -0.1)">
       <defs>
        <path id="DejaVuSans-35" d="M 691 4666 
L 3169 4666 
L 3169 4134 
L 1269 4134 
L 1269 2991 
Q 1406 3038 1543 3061 
Q 1681 3084 1819 3084 
Q 2600 3084 3056 2656 
Q 3513 2228 3513 1497 
Q 3513 744 3044 326 
Q 2575 -91 1722 -91 
Q 1428 -91 1123 -41 
Q 819 9 494 109 
L 494 744 
Q 775 591 1075 516 
Q 1375 441 1709 441 
Q 2250 441 2565 725 
Q 2881 1009 2881 1497 
Q 2881 1984 2565 2268 
Q 2250 2553 1709 2553 
Q 1456 2553 1204 2497 
Q 953 2441 691 2322 
L 691 4666 
z
" transform="scale(0.015625)"/>
       </defs>
       <use xlink:href="#DejaVuSans-31"/>
       <use xlink:href="#DejaVuSans-35" transform="translate(63.623047 0)"/>
      </g>
     </g>
    </g>
    <g id="xtick_7">
     <g id="line2d_13">
      <path d="M 440.223688 250.421875 
L 440.223688 22.318125 
" clip-path="url(#pfb6c7affaa)" style="fill: none; stroke-dasharray: 2.96,1.28; stroke-dashoffset: 0; stroke: #b0b0b0; stroke-opacity: 0.8; stroke-width: 0.8"/>
     </g>
     <g id="line2d_14">
      <g>
       <use xlink:href="#m05529d83a9" x="440.223688" y="250.421875" style="stroke: #000000; stroke-width: 0.8"/>
      </g>
     </g>
     <g id="text_7">
      <!-- 18 -->
      <g transform="translate(433.861188 265.020312) scale(0.1 -0.1)">
       <defs>
        <path id="DejaVuSans-38" d="M 2034 2216 
Q 1584 2216 1326 1975 
Q 1069 1734 1069 1313 
Q 1069 891 1326 650 
Q 1584 409 2034 409 
Q 2484 409 2743 651 
Q 3003 894 3003 1313 
Q 3003 1734 2745 1975 
Q 2488 2216 2034 2216 
z
M 1403 2484 
Q 997 2584 770 2862 
Q 544 3141 544 3541 
Q 544 4100 942 4425 
Q 1341 4750 2034 4750 
Q 2731 4750 3128 4425 
Q 3525 4100 3525 3541 
Q 3525 3141 3298 2862 
Q 3072 2584 2669 2484 
Q 3125 2378 3379 2068 
Q 3634 1759 3634 1313 
Q 3634 634 3220 271 
Q 2806 -91 2034 -91 
Q 1263 -91 848 271 
Q 434 634 434 1313 
Q 434 1759 690 2068 
Q 947 2378 1403 2484 
z
M 1172 3481 
Q 1172 3119 1398 2916 
Q 1625 2713 2034 2713 
Q 2441 2713 2670 2916 
Q 2900 3119 2900 3481 
Q 2900 3844 2670 4047 
Q 2441 4250 2034 4250 
Q 1625 4250 1398 4047 
Q 1172 3844 1172 3481 
z
" transform="scale(0.015625)"/>
       </defs>
       <use xlink:href="#DejaVuSans-31"/>
       <use xlink:href="#DejaVuSans-38" transform="translate(63.623047 0)"/>
      </g>
     </g>
    </g>
    <g id="xtick_8">
     <g id="line2d_15">
      <path d="M 501.32939 250.421875 
L 501.32939 22.318125 
" clip-path="url(#pfb6c7affaa)" style="fill: none; stroke-dasharray: 2.96,1.28; stroke-dashoffset: 0; stroke: #b0b0b0; stroke-opacity: 0.8; stroke-width: 0.8"/>
     </g>
     <g id="line2d_16">
      <g>
       <use xlink:href="#m05529d83a9" x="501.32939" y="250.421875" style="stroke: #000000; stroke-width: 0.8"/>
      </g>
     </g>
     <g id="text_8">
      <!-- 21 -->
      <g transform="translate(494.96689 265.020312) scale(0.1 -0.1)">
       <use xlink:href="#DejaVuSans-32"/>
       <use xlink:href="#DejaVuSans-31" transform="translate(63.623047 0)"/>
      </g>
     </g>
    </g>
    <g id="xtick_9">
     <g id="line2d_17">
      <path d="M 562.435091 250.421875 
L 562.435091 22.318125 
" clip-path="url(#pfb6c7affaa)" style="fill: none; stroke-dasharray: 2.96,1.28; stroke-dashoffset: 0; stroke: #b0b0b0; stroke-opacity: 0.8; stroke-width: 0.8"/>
     </g>
     <g id="line2d_18">
      <g>
       <use xlink:href="#m05529d83a9" x="562.435091" y="250.421875" style="stroke: #000000; stroke-width: 0.8"/>
      </g>
     </g>
     <g id="text_9">
      <!-- 24 -->
      <g transform="translate(556.072591 265.020312) scale(0.1 -0.1)">
       <defs>
        <path id="DejaVuSans-34" d="M 2419 4116 
L 825 1625 
L 2419 1625 
L 2419 4116 
z
M 2253 4666 
L 3047 4666 
L 3047 1625 
L 3713 1625 
L 3713 1100 
L 3047 1100 
L 3047 0 
L 2419 0 
L 2419 1100 
L 313 1100 
L 313 1709 
L 2253 4666 
z
" transform="scale(0.015625)"/>
       </defs>
       <use xlink:href="#DejaVuSans-32"/>
       <use xlink:href="#DejaVuSans-34" transform="translate(63.623047 0)"/>
      </g>
     </g>
    </g>
    <g id="text_10">
     <!-- Output sample, $n$ -->
     <g transform="translate(264.328001 278.7) scale(0.1 -0.1)">
      <defs>
       <path id="DejaVuSans-4f" d="M 2522 4238 
Q 1834 4238 1429 3725 
Q 1025 3213 1025 2328 
Q 1025 1447 1429 934 
Q 1834 422 2522 422 
Q 3209 422 3611 934 
Q 4013 1447 4013 2328 
Q 4013 3213 3611 3725 
Q 3209 4238 2522 4238 
z
M 2522 4750 
Q 3503 4750 4090 4092 
Q 4678 3434 4678 2328 
Q 4678 1225 4090 567 
Q 3503 -91 2522 -91 
Q 1538 -91 948 565 
Q 359 1222 359 2328 
Q 359 3434 948 4092 
Q 1538 4750 2522 4750 
z
" transform="scale(0.015625)"/>
       <path id="DejaVuSans-75" d="M 544 1381 
L 544 3500 
L 1119 3500 
L 1119 1403 
Q 1119 906 1312 657 
Q 1506 409 1894 409 
Q 2359 409 2629 706 
Q 2900 1003 2900 1516 
L 2900 3500 
L 3475 3500 
L 3475 0 
L 2900 0 
L 2900 538 
Q 2691 219 2414 64 
Q 2138 -91 1772 -91 
Q 1169 -91 856 284 
Q 544 659 544 1381 
z
M 1991 3584 
L 1991 3584 
z
" transform="scale(0.015625)"/>
       <path id="DejaVuSans-74" d="M 1172 4494 
L 1172 3500 
L 2356 3500 
L 2356 3053 
L 1172 3053 
L 1172 1153 
Q 1172 725 1289 603 
Q 1406 481 1766 481 
L 2356 481 
L 2356 0 
L 1766 0 
Q 1100 0 847 248 
Q 594 497 594 1153 
L 594 3053 
L 172 3053 
L 172 3500 
L 594 3500 
L 594 4494 
L 1172 4494 
z
" transform="scale(0.015625)"/>
       <path id="DejaVuSans-70" d="M 1159 525 
L 1159 -1331 
L 581 -1331 
L 581 3500 
L 1159 3500 
L 1159 2969 
Q 1341 3281 1617 3432 
Q 1894 3584 2278 3584 
Q 2916 3584 3314 3078 
Q 3713 2572 3713 1747 
Q 3713 922 3314 415 
Q 2916 -91 2278 -91 
Q 1894 -91 1617 61 
Q 1341 213 1159 525 
z
M 3116 1747 
Q 3116 2381 2855 2742 
Q 2594 3103 2138 3103 
Q 1681 3103 1420 2742 
Q 1159 2381 1159 1747 
Q 1159 1113 1420 752 
Q 1681 391 2138 391 
Q 2594 391 2855 752 
Q 3116 1113 3116 1747 
z
" transform="scale(0.015625)"/>
       <path id="DejaVuSans-20" transform="scale(0.015625)"/>
       <path id="DejaVuSans-73" d="M 2834 3397 
L 2834 2853 
Q 2591 2978 2328 3040 
Q 2066 3103 1784 3103 
Q 1356 3103 1142 2972 
Q 928 2841 928 2578 
Q 928 2378 1081 2264 
Q 1234 2150 1697 2047 
L 1894 2003 
Q 2506 1872 2764 1633 
Q 3022 1394 3022 966 
Q 3022 478 2636 193 
Q 2250 -91 1575 -91 
Q 1294 -91 989 -36 
Q 684 19 347 128 
L 347 722 
Q 666 556 975 473 
Q 1284 391 1588 391 
Q 1994 391 2212 530 
Q 2431 669 2431 922 
Q 2431 1156 2273 1281 
Q 2116 1406 1581 1522 
L 1381 1569 
Q 847 1681 609 1914 
Q 372 2147 372 2553 
Q 372 3047 722 3315 
Q 1072 3584 1716 3584 
Q 2034 3584 2315 3537 
Q 2597 3491 2834 3397 
z
" transform="scale(0.015625)"/>
       <path id="DejaVuSans-61" d="M 2194 1759 
Q 1497 1759 1228 1600 
Q 959 1441 959 1056 
Q 959 750 1161 570 
Q 1363 391 1709 391 
Q 2188 391 2477 730 
Q 2766 1069 2766 1631 
L 2766 1759 
L 2194 1759 
z
M 3341 1997 
L 3341 0 
L 2766 0 
L 2766 531 
Q 2569 213 2275 61 
Q 1981 -91 1556 -91 
Q 1019 -91 701 211 
Q 384 513 384 1019 
Q 384 1609 779 1909 
Q 1175 2209 1959 2209 
L 2766 2209 
L 2766 2266 
Q 2766 2663 2505 2880 
Q 2244 3097 1772 3097 
Q 1472 3097 1187 3025 
Q 903 2953 641 2809 
L 641 3341 
Q 956 3463 1253 3523 
Q 1550 3584 1831 3584 
Q 2591 3584 2966 3190 
Q 3341 2797 3341 1997 
z
" transform="scale(0.015625)"/>
       <path id="DejaVuSans-6d" d="M 3328 2828 
Q 3544 3216 3844 3400 
Q 4144 3584 4550 3584 
Q 5097 3584 5394 3201 
Q 5691 2819 5691 2113 
L 5691 0 
L 5113 0 
L 5113 2094 
Q 5113 2597 4934 2840 
Q 4756 3084 4391 3084 
Q 3944 3084 3684 2787 
Q 3425 2491 3425 1978 
L 3425 0 
L 2847 0 
L 2847 2094 
Q 2847 2600 2669 2842 
Q 2491 3084 2119 3084 
Q 1678 3084 1418 2786 
Q 1159 2488 1159 1978 
L 1159 0 
L 581 0 
L 581 3500 
L 1159 3500 
L 1159 2956 
Q 1356 3278 1631 3431 
Q 1906 3584 2284 3584 
Q 2666 3584 2933 3390 
Q 3200 3197 3328 2828 
z
" transform="scale(0.015625)"/>
       <path id="DejaVuSans-6c" d="M 603 4863 
L 1178 4863 
L 1178 0 
L 603 0 
L 603 4863 
z
" transform="scale(0.015625)"/>
       <path id="DejaVuSans-65" d="M 3597 1894 
L 3597 1613 
L 953 1613 
Q 991 1019 1311 708 
Q 1631 397 2203 397 
Q 2534 397 2845 478 
Q 3156 559 3463 722 
L 3463 178 
Q 3153 47 2828 -22 
Q 2503 -91 2169 -91 
Q 1331 -91 842 396 
Q 353 884 353 1716 
Q 353 2575 817 3079 
Q 1281 3584 2069 3584 
Q 2775 3584 3186 3129 
Q 3597 2675 3597 1894 
z
M 3022 2063 
Q 3016 2534 2758 2815 
Q 2500 3097 2075 3097 
Q 1594 3097 1305 2825 
Q 1016 2553 972 2059 
L 3022 2063 
z
" transform="scale(0.015625)"/>
       <path id="DejaVuSans-2c" d="M 750 794 
L 1409 794 
L 1409 256 
L 897 -744 
L 494 -744 
L 750 256 
L 750 794 
z
" transform="scale(0.015625)"/>
       <path id="DejaVuSans-Oblique-6e" d="M 3566 2113 
L 3156 0 
L 2578 0 
L 2988 2091 
Q 3016 2238 3031 2350 
Q 3047 2463 3047 2528 
Q 3047 2791 2881 2937 
Q 2716 3084 2419 3084 
Q 1956 3084 1622 2776 
Q 1288 2469 1184 1941 
L 800 0 
L 225 0 
L 903 3500 
L 1478 3500 
L 1363 2950 
Q 1603 3253 1940 3418 
Q 2278 3584 2650 3584 
Q 3113 3584 3367 3334 
Q 3622 3084 3622 2631 
Q 3622 2519 3608 2391 
Q 3594 2263 3566 2113 
z
" transform="scale(0.015625)"/>
      </defs>
      <use xlink:href="#DejaVuSans-4f" transform="translate(0 0.015625)"/>
      <use xlink:href="#DejaVuSans-75" transform="translate(78.710938 0.015625)"/>
      <use xlink:href="#DejaVuSans-74" transform="translate(142.089844 0.015625)"/>
      <use xlink:href="#DejaVuSans-70" transform="translate(181.298828 0.015625)"/>
      <use xlink:href="#DejaVuSans-75" transform="translate(244.775391 0.015625)"/>
      <use xlink:href="#DejaVuSans-74" transform="translate(308.154297 0.015625)"/>
      <use xlink:href="#DejaVuSans-20" transform="translate(347.363281 0.015625)"/>
      <use xlink:href="#DejaVuSans-73" transform="translate(379.150391 0.015625)"/>
      <use xlink:href="#DejaVuSans-61" transform="translate(431.25 0.015625)"/>
      <use xlink:href="#DejaVuSans-6d" transform="translate(492.529297 0.015625)"/>
      <use xlink:href="#DejaVuSans-70" transform="translate(589.941406 0.015625)"/>
      <use xlink:href="#DejaVuSans-6c" transform="translate(653.417969 0.015625)"/>
      <use xlink:href="#DejaVuSans-65" transform="translate(681.201172 0.015625)"/>
      <use xlink:href="#DejaVuSans-2c" transform="translate(742.724609 0.015625)"/>
      <use xlink:href="#DejaVuSans-20" transform="translate(774.511719 0.015625)"/>
      <use xlink:href="#DejaVuSans-Oblique-6e" transform="translate(806.298828 0.015625)"/>
     </g>
    </g>
   </g>
   <g id="matplotlib.axis_2">
    <g id="ytick_1">
     <g id="line2d_19">
      <path d="M 50.165625 240.053523 
L 565.490377 240.053523 
" clip-path="url(#pfb6c7affaa)" style="fill: none; stroke-dasharray: 2.96,1.28; stroke-dashoffset: 0; stroke: #b0b0b0; stroke-opacity: 0.8; stroke-width: 0.8"/>
     </g>
     <g id="line2d_20">
      <defs>
       <path id="m433f486fb1" d="M 0 0 
L -3.5 0 
" style="stroke: #000000; stroke-width: 0.8"/>
      </defs>
      <g>
       <use xlink:href="#m433f486fb1" x="50.165625" y="240.053523" style="stroke: #000000; stroke-width: 0.8"/>
      </g>
     </g>
     <g id="text_11">
      <!-- 0.0 -->
      <g transform="translate(27.2625 243.852741) scale(0.1 -0.1)">
       <defs>
        <path id="DejaVuSans-2e" d="M 684 794 
L 1344 794 
L 1344 0 
L 684 0 
L 684 794 
z
" transform="scale(0.015625)"/>
       </defs>
       <use xlink:href="#DejaVuSans-30"/>
       <use xlink:href="#DejaVuSans-2e" transform="translate(63.623047 0)"/>
       <use xlink:href="#DejaVuSans-30" transform="translate(95.410156 0)"/>
      </g>
     </g>
    </g>
    <g id="ytick_2">
     <g id="line2d_21">
      <path d="M 50.165625 213.742684 
L 565.490377 213.742684 
" clip-path="url(#pfb6c7affaa)" style="fill: none; stroke-dasharray: 2.96,1.28; stroke-dashoffset: 0; stroke: #b0b0b0; stroke-opacity: 0.8; stroke-width: 0.8"/>
     </g>
     <g id="line2d_22">
      <g>
       <use xlink:href="#m433f486fb1" x="50.165625" y="213.742684" style="stroke: #000000; stroke-width: 0.8"/>
      </g>
     </g>
     <g id="text_12">
      <!-- 2.5 -->
      <g transform="translate(27.2625 217.541903) scale(0.1 -0.1)">
       <use xlink:href="#DejaVuSans-32"/>
       <use xlink:href="#DejaVuSans-2e" transform="translate(63.623047 0)"/>
       <use xlink:href="#DejaVuSans-35" transform="translate(95.410156 0)"/>
      </g>
     </g>
    </g>
    <g id="ytick_3">
     <g id="line2d_23">
      <path d="M 50.165625 187.431846 
L 565.490377 187.431846 
" clip-path="url(#pfb6c7affaa)" style="fill: none; stroke-dasharray: 2.96,1.28; stroke-dashoffset: 0; stroke: #b0b0b0; stroke-opacity: 0.8; stroke-width: 0.8"/>
     </g>
     <g id="line2d_24">
      <g>
       <use xlink:href="#m433f486fb1" x="50.165625" y="187.431846" style="stroke: #000000; stroke-width: 0.8"/>
      </g>
     </g>
     <g id="text_13">
      <!-- 5.0 -->
      <g transform="translate(27.2625 191.231065) scale(0.1 -0.1)">
       <use xlink:href="#DejaVuSans-35"/>
       <use xlink:href="#DejaVuSans-2e" transform="translate(63.623047 0)"/>
       <use xlink:href="#DejaVuSans-30" transform="translate(95.410156 0)"/>
      </g>
     </g>
    </g>
    <g id="ytick_4">
     <g id="line2d_25">
      <path d="M 50.165625 161.121008 
L 565.490377 161.121008 
" clip-path="url(#pfb6c7affaa)" style="fill: none; stroke-dasharray: 2.96,1.28; stroke-dashoffset: 0; stroke: #b0b0b0; stroke-opacity: 0.8; stroke-width: 0.8"/>
     </g>
     <g id="line2d_26">
      <g>
       <use xlink:href="#m433f486fb1" x="50.165625" y="161.121008" style="stroke: #000000; stroke-width: 0.8"/>
      </g>
     </g>
     <g id="text_14">
      <!-- 7.5 -->
      <g transform="translate(27.2625 164.920227) scale(0.1 -0.1)">
       <defs>
        <path id="DejaVuSans-37" d="M 525 4666 
L 3525 4666 
L 3525 4397 
L 1831 0 
L 1172 0 
L 2766 4134 
L 525 4134 
L 525 4666 
z
" transform="scale(0.015625)"/>
       </defs>
       <use xlink:href="#DejaVuSans-37"/>
       <use xlink:href="#DejaVuSans-2e" transform="translate(63.623047 0)"/>
       <use xlink:href="#DejaVuSans-35" transform="translate(95.410156 0)"/>
      </g>
     </g>
    </g>
    <g id="ytick_5">
     <g id="line2d_27">
      <path d="M 50.165625 134.81017 
L 565.490377 134.81017 
" clip-path="url(#pfb6c7affaa)" style="fill: none; stroke-dasharray: 2.96,1.28; stroke-dashoffset: 0; stroke: #b0b0b0; stroke-opacity: 0.8; stroke-width: 0.8"/>
     </g>
     <g id="line2d_28">
      <g>
       <use xlink:href="#m433f486fb1" x="50.165625" y="134.81017" style="stroke: #000000; stroke-width: 0.8"/>
      </g>
     </g>
     <g id="text_15">
      <!-- 10.0 -->
      <g transform="translate(20.9 138.609388) scale(0.1 -0.1)">
       <use xlink:href="#DejaVuSans-31"/>
       <use xlink:href="#DejaVuSans-30" transform="translate(63.623047 0)"/>
       <use xlink:href="#DejaVuSans-2e" transform="translate(127.246094 0)"/>
       <use xlink:href="#DejaVuSans-30" transform="translate(159.033203 0)"/>
      </g>
     </g>
    </g>
    <g id="ytick_6">
     <g id="line2d_29">
      <path d="M 50.165625 108.499331 
L 565.490377 108.499331 
" clip-path="url(#pfb6c7affaa)" style="fill: none; stroke-dasharray: 2.96,1.28; stroke-dashoffset: 0; stroke: #b0b0b0; stroke-opacity: 0.8; stroke-width: 0.8"/>
     </g>
     <g id="line2d_30">
      <g>
       <use xlink:href="#m433f486fb1" x="50.165625" y="108.499331" style="stroke: #000000; stroke-width: 0.8"/>
      </g>
     </g>
     <g id="text_16">
      <!-- 12.5 -->
      <g transform="translate(20.9 112.29855) scale(0.1 -0.1)">
       <use xlink:href="#DejaVuSans-31"/>
       <use xlink:href="#DejaVuSans-32" transform="translate(63.623047 0)"/>
       <use xlink:href="#DejaVuSans-2e" transform="translate(127.246094 0)"/>
       <use xlink:href="#DejaVuSans-35" transform="translate(159.033203 0)"/>
      </g>
     </g>
    </g>
    <g id="ytick_7">
     <g id="line2d_31">
      <path d="M 50.165625 82.188493 
L 565.490377 82.188493 
" clip-path="url(#pfb6c7affaa)" style="fill: none; stroke-dasharray: 2.96,1.28; stroke-dashoffset: 0; stroke: #b0b0b0; stroke-opacity: 0.8; stroke-width: 0.8"/>
     </g>
     <g id="line2d_32">
      <g>
       <use xlink:href="#m433f486fb1" x="50.165625" y="82.188493" style="stroke: #000000; stroke-width: 0.8"/>
      </g>
     </g>
     <g id="text_17">
      <!-- 15.0 -->
      <g transform="translate(20.9 85.987712) scale(0.1 -0.1)">
       <use xlink:href="#DejaVuSans-31"/>
       <use xlink:href="#DejaVuSans-35" transform="translate(63.623047 0)"/>
       <use xlink:href="#DejaVuSans-2e" transform="translate(127.246094 0)"/>
       <use xlink:href="#DejaVuSans-30" transform="translate(159.033203 0)"/>
      </g>
     </g>
    </g>
    <g id="ytick_8">
     <g id="line2d_33">
      <path d="M 50.165625 55.877655 
L 565.490377 55.877655 
" clip-path="url(#pfb6c7affaa)" style="fill: none; stroke-dasharray: 2.96,1.28; stroke-dashoffset: 0; stroke: #b0b0b0; stroke-opacity: 0.8; stroke-width: 0.8"/>
     </g>
     <g id="line2d_34">
      <g>
       <use xlink:href="#m433f486fb1" x="50.165625" y="55.877655" style="stroke: #000000; stroke-width: 0.8"/>
      </g>
     </g>
     <g id="text_18">
      <!-- 17.5 -->
      <g transform="translate(20.9 59.676873) scale(0.1 -0.1)">
       <use xlink:href="#DejaVuSans-31"/>
       <use xlink:href="#DejaVuSans-37" transform="translate(63.623047 0)"/>
       <use xlink:href="#DejaVuSans-2e" transform="translate(127.246094 0)"/>
       <use xlink:href="#DejaVuSans-35" transform="translate(159.033203 0)"/>
      </g>
     </g>
    </g>
    <g id="ytick_9">
     <g id="line2d_35">
      <path d="M 50.165625 29.566816 
L 565.490377 29.566816 
" clip-path="url(#pfb6c7affaa)" style="fill: none; stroke-dasharray: 2.96,1.28; stroke-dashoffset: 0; stroke: #b0b0b0; stroke-opacity: 0.8; stroke-width: 0.8"/>
     </g>
     <g id="line2d_36">
      <g>
       <use xlink:href="#m433f486fb1" x="50.165625" y="29.566816" style="stroke: #000000; stroke-width: 0.8"/>
      </g>
     </g>
     <g id="text_19">
      <!-- 20.0 -->
      <g transform="translate(20.9 33.366035) scale(0.1 -0.1)">
       <use xlink:href="#DejaVuSans-32"/>
       <use xlink:href="#DejaVuSans-30" transform="translate(63.623047 0)"/>
       <use xlink:href="#DejaVuSans-2e" transform="translate(127.246094 0)"/>
       <use xlink:href="#DejaVuSans-30" transform="translate(159.033203 0)"/>
      </g>
     </g>
    </g>
    <g id="text_20">
     <!-- Input sample, $n$ -->
     <g transform="translate(14.8 175.47) rotate(-90) scale(0.1 -0.1)">
      <defs>
       <path id="DejaVuSans-49" d="M 628 4666 
L 1259 4666 
L 1259 0 
L 628 0 
L 628 4666 
z
" transform="scale(0.015625)"/>
       <path id="DejaVuSans-6e" d="M 3513 2113 
L 3513 0 
L 2938 0 
L 2938 2094 
Q 2938 2591 2744 2837 
Q 2550 3084 2163 3084 
Q 1697 3084 1428 2787 
Q 1159 2491 1159 1978 
L 1159 0 
L 581 0 
L 581 3500 
L 1159 3500 
L 1159 2956 
Q 1366 3272 1645 3428 
Q 1925 3584 2291 3584 
Q 2894 3584 3203 3211 
Q 3513 2838 3513 2113 
z
" transform="scale(0.015625)"/>
      </defs>
      <use xlink:href="#DejaVuSans-49" transform="translate(0 0.015625)"/>
      <use xlink:href="#DejaVuSans-6e" transform="translate(29.492188 0.015625)"/>
      <use xlink:href="#DejaVuSans-70" transform="translate(92.871094 0.015625)"/>
      <use xlink:href="#DejaVuSans-75" transform="translate(156.347656 0.015625)"/>
      <use xlink:href="#DejaVuSans-74" transform="translate(219.726562 0.015625)"/>
      <use xlink:href="#DejaVuSans-20" transform="translate(258.935547 0.015625)"/>
      <use xlink:href="#DejaVuSans-73" transform="translate(290.722656 0.015625)"/>
      <use xlink:href="#DejaVuSans-61" transform="translate(342.822266 0.015625)"/>
      <use xlink:href="#DejaVuSans-6d" transform="translate(404.101562 0.015625)"/>
      <use xlink:href="#DejaVuSans-70" transform="translate(501.513672 0.015625)"/>
      <use xlink:href="#DejaVuSans-6c" transform="translate(564.990234 0.015625)"/>
      <use xlink:href="#DejaVuSans-65" transform="translate(592.773438 0.015625)"/>
      <use xlink:href="#DejaVuSans-2c" transform="translate(654.296875 0.015625)"/>
      <use xlink:href="#DejaVuSans-20" transform="translate(686.083984 0.015625)"/>
      <use xlink:href="#DejaVuSans-Oblique-6e" transform="translate(717.871094 0.015625)"/>
     </g>
    </g>
   </g>
   <g id="line2d_37">
    <path d="M 73.589477 240.053523 
L 93.958045 229.529187 
L 114.326612 219.004852 
L 134.695179 208.480517 
L 155.063746 197.956181 
L 175.432314 187.431846 
L 195.800881 176.907511 
L 216.169448 166.383176 
L 236.538015 155.85884 
L 256.906583 145.334505 
L 277.27515 134.81017 
L 297.643717 124.285834 
L 318.012284 113.761499 
L 338.380852 103.237164 
L 358.749419 92.712828 
L 379.117986 82.188493 
L 399.486553 71.664158 
L 419.855121 61.139822 
L 440.223688 50.615487 
L 460.592255 40.091152 
" clip-path="url(#pfb6c7affaa)" style="fill: none; stroke: #1f77b4; stroke-linecap: square"/>
    <defs>
     <path id="m767359a414" d="M 0 1.5 
C 0.397805 1.5 0.77937 1.341951 1.06066 1.06066 
C 1.341951 0.77937 1.5 0.397805 1.5 0 
C 1.5 -0.397805 1.341951 -0.77937 1.06066 -1.06066 
C 0.77937 -1.341951 0.397805 -1.5 0 -1.5 
C -0.397805 -1.5 -0.77937 -1.341951 -1.06066 -1.06066 
C -1.341951 -0.77937 -1.5 -0.397805 -1.5 0 
C -1.5 0.397805 -1.341951 0.77937 -1.06066 1.06066 
C -0.77937 1.341951 -0.397805 1.5 0 1.5 
z
" style="stroke: #1f77b4"/>
    </defs>
    <g clip-path="url(#pfb6c7affaa)">
     <use xlink:href="#m767359a414" x="73.589477" y="240.053523" style="fill: #1f77b4; stroke: #1f77b4"/>
     <use xlink:href="#m767359a414" x="93.958045" y="229.529187" style="fill: #1f77b4; stroke: #1f77b4"/>
     <use xlink:href="#m767359a414" x="114.326612" y="219.004852" style="fill: #1f77b4; stroke: #1f77b4"/>
     <use xlink:href="#m767359a414" x="134.695179" y="208.480517" style="fill: #1f77b4; stroke: #1f77b4"/>
     <use xlink:href="#m767359a414" x="155.063746" y="197.956181" style="fill: #1f77b4; stroke: #1f77b4"/>
     <use xlink:href="#m767359a414" x="175.432314" y="187.431846" style="fill: #1f77b4; stroke: #1f77b4"/>
     <use xlink:href="#m767359a414" x="195.800881" y="176.907511" style="fill: #1f77b4; stroke: #1f77b4"/>
     <use xlink:href="#m767359a414" x="216.169448" y="166.383176" style="fill: #1f77b4; stroke: #1f77b4"/>
     <use xlink:href="#m767359a414" x="236.538015" y="155.85884" style="fill: #1f77b4; stroke: #1f77b4"/>
     <use xlink:href="#m767359a414" x="256.906583" y="145.334505" style="fill: #1f77b4; stroke: #1f77b4"/>
     <use xlink:href="#m767359a414" x="277.27515" y="134.81017" style="fill: #1f77b4; stroke: #1f77b4"/>
     <use xlink:href="#m767359a414" x="297.643717" y="124.285834" style="fill: #1f77b4; stroke: #1f77b4"/>
     <use xlink:href="#m767359a414" x="318.012284" y="113.761499" style="fill: #1f77b4; stroke: #1f77b4"/>
     <use xlink:href="#m767359a414" x="338.380852" y="103.237164" style="fill: #1f77b4; stroke: #1f77b4"/>
     <use xlink:href="#m767359a414" x="358.749419" y="92.712828" style="fill: #1f77b4; stroke: #1f77b4"/>
     <use xlink:href="#m767359a414" x="379.117986" y="82.188493" style="fill: #1f77b4; stroke: #1f77b4"/>
     <use xlink:href="#m767359a414" x="399.486553" y="71.664158" style="fill: #1f77b4; stroke: #1f77b4"/>
     <use xlink:href="#m767359a414" x="419.855121" y="61.139822" style="fill: #1f77b4; stroke: #1f77b4"/>
     <use xlink:href="#m767359a414" x="440.223688" y="50.615487" style="fill: #1f77b4; stroke: #1f77b4"/>
     <use xlink:href="#m767359a414" x="460.592255" y="40.091152" style="fill: #1f77b4; stroke: #1f77b4"/>
    </g>
   </g>
   <g id="line2d_38">
    <path d="M 73.589477 240.053523 
L 93.958045 231.567465 
L 114.326612 222.512964 
L 134.695179 213.742684 
L 155.063746 204.972405 
L 175.432314 196.202126 
L 195.800881 187.431846 
L 216.169448 178.661567 
L 236.538015 169.891287 
L 256.906583 161.121008 
L 277.27515 152.350728 
L 297.643717 143.580449 
L 318.012284 134.81017 
L 338.380852 126.03989 
L 358.749419 117.269611 
L 379.117986 108.499331 
L 399.486553 99.729052 
L 419.855121 90.958772 
L 440.223688 82.188493 
L 460.592255 73.418214 
L 480.960822 64.647934 
L 501.32939 55.877655 
L 521.697957 36.71297 
L 542.066524 69.88574 
" clip-path="url(#pfb6c7affaa)" style="fill: none; stroke: #ff7f0e; stroke-linecap: square"/>
    <defs>
     <path id="mb4aaa67e91" d="M 0 1.5 
C 0.397805 1.5 0.77937 1.341951 1.06066 1.06066 
C 1.341951 0.77937 1.5 0.397805 1.5 0 
C 1.5 -0.397805 1.341951 -0.77937 1.06066 -1.06066 
C 0.77937 -1.341951 0.397805 -1.5 0 -1.5 
C -0.397805 -1.5 -0.77937 -1.341951 -1.06066 -1.06066 
C -1.341951 -0.77937 -1.5 -0.397805 -1.5 0 
C -1.5 0.397805 -1.341951 0.77937 -1.06066 1.06066 
C -0.77937 1.341951 -0.397805 1.5 0 1.5 
z
" style="stroke: #ff7f0e"/>
    </defs>
    <g clip-path="url(#pfb6c7affaa)">
     <use xlink:href="#mb4aaa67e91" x="73.589477" y="240.053523" style="fill: #ff7f0e; stroke: #ff7f0e"/>
     <use xlink:href="#mb4aaa67e91" x="93.958045" y="231.567465" style="fill: #ff7f0e; stroke: #ff7f0e"/>
     <use xlink:href="#mb4aaa67e91" x="114.326612" y="222.512964" style="fill: #ff7f0e; stroke: #ff7f0e"/>
     <use xlink:href="#mb4aaa67e91" x="134.695179" y="213.742684" style="fill: #ff7f0e; stroke: #ff7f0e"/>
     <use xlink:href="#mb4aaa67e91" x="155.063746" y="204.972405" style="fill: #ff7f0e; stroke: #ff7f0e"/>
     <use xlink:href="#mb4aaa67e91" x="175.432314" y="196.202126" style="fill: #ff7f0e; stroke: #ff7f0e"/>
     <use xlink:href="#mb4aaa67e91" x="195.800881" y="187.431846" style="fill: #ff7f0e; stroke: #ff7f0e"/>
     <use xlink:href="#mb4aaa67e91" x="216.169448" y="178.661567" style="fill: #ff7f0e; stroke: #ff7f0e"/>
     <use xlink:href="#mb4aaa67e91" x="236.538015" y="169.891287" style="fill: #ff7f0e; stroke: #ff7f0e"/>
     <use xlink:href="#mb4aaa67e91" x="256.906583" y="161.121008" style="fill: #ff7f0e; stroke: #ff7f0e"/>
     <use xlink:href="#mb4aaa67e91" x="277.27515" y="152.350728" style="fill: #ff7f0e; stroke: #ff7f0e"/>
     <use xlink:href="#mb4aaa67e91" x="297.643717" y="143.580449" style="fill: #ff7f0e; stroke: #ff7f0e"/>
     <use xlink:href="#mb4aaa67e91" x="318.012284" y="134.81017" style="fill: #ff7f0e; stroke: #ff7f0e"/>
     <use xlink:href="#mb4aaa67e91" x="338.380852" y="126.03989" style="fill: #ff7f0e; stroke: #ff7f0e"/>
     <use xlink:href="#mb4aaa67e91" x="358.749419" y="117.269611" style="fill: #ff7f0e; stroke: #ff7f0e"/>
     <use xlink:href="#mb4aaa67e91" x="379.117986" y="108.499331" style="fill: #ff7f0e; stroke: #ff7f0e"/>
     <use xlink:href="#mb4aaa67e91" x="399.486553" y="99.729052" style="fill: #ff7f0e; stroke: #ff7f0e"/>
     <use xlink:href="#mb4aaa67e91" x="419.855121" y="90.958772" style="fill: #ff7f0e; stroke: #ff7f0e"/>
     <use xlink:href="#mb4aaa67e91" x="440.223688" y="82.188493" style="fill: #ff7f0e; stroke: #ff7f0e"/>
     <use xlink:href="#mb4aaa67e91" x="460.592255" y="73.418214" style="fill: #ff7f0e; stroke: #ff7f0e"/>
     <use xlink:href="#mb4aaa67e91" x="480.960822" y="64.647934" style="fill: #ff7f0e; stroke: #ff7f0e"/>
     <use xlink:href="#mb4aaa67e91" x="501.32939" y="55.877655" style="fill: #ff7f0e; stroke: #ff7f0e"/>
     <use xlink:href="#mb4aaa67e91" x="521.697957" y="36.71297" style="fill: #ff7f0e; stroke: #ff7f0e"/>
     <use xlink:href="#mb4aaa67e91" x="542.066524" y="69.88574" style="fill: #ff7f0e; stroke: #ff7f0e"/>
    </g>
   </g>
   <g id="line2d_39">
    <path d="M 73.589477 240.053523 
L 93.958045 231.567465 
L 114.326612 222.512964 
L 134.695179 213.668985 
L 155.063746 204.750056 
L 175.432314 195.754898 
L 195.800881 186.682195 
L 216.169448 177.530599 
L 236.538015 168.379003 
L 256.906583 159.14713 
L 277.27515 149.833559 
L 297.643717 140.436831 
L 318.012284 130.955448 
L 338.380852 121.38787 
L 358.749419 111.732517 
L 379.117986 101.987762 
L 399.486553 92.151935 
L 419.855121 82.223316 
L 440.223688 72.294698 
L 460.592255 62.271522 
L 480.960822 52.151968 
L 501.32939 32.686477 
L 521.697957 203.977478 
" clip-path="url(#pfb6c7affaa)" style="fill: none; stroke: #2ca02c; stroke-linecap: square"/>
    <defs>
     <path id="md9eae7b041" d="M 0 1.5 
C 0.397805 1.5 0.77937 1.341951 1.06066 1.06066 
C 1.341951 0.77937 1.5 0.397805 1.5 0 
C 1.5 -0.397805 1.341951 -0.77937 1.06066 -1.06066 
C 0.77937 -1.341951 0.397805 -1.5 0 -1.5 
C -0.397805 -1.5 -0.77937 -1.341951 -1.06066 -1.06066 
C -1.341951 -0.77937 -1.5 -0.397805 -1.5 0 
C -1.5 0.397805 -1.341951 0.77937 -1.06066 1.06066 
C -0.77937 1.341951 -0.397805 1.5 0 1.5 
z
" style="stroke: #2ca02c"/>
    </defs>
    <g clip-path="url(#pfb6c7affaa)">
     <use xlink:href="#md9eae7b041" x="73.589477" y="240.053523" style="fill: #2ca02c; stroke: #2ca02c"/>
     <use xlink:href="#md9eae7b041" x="93.958045" y="231.567465" style="fill: #2ca02c; stroke: #2ca02c"/>
     <use xlink:href="#md9eae7b041" x="114.326612" y="222.512964" style="fill: #2ca02c; stroke: #2ca02c"/>
     <use xlink:href="#md9eae7b041" x="134.695179" y="213.668985" style="fill: #2ca02c; stroke: #2ca02c"/>
     <use xlink:href="#md9eae7b041" x="155.063746" y="204.750056" style="fill: #2ca02c; stroke: #2ca02c"/>
     <use xlink:href="#md9eae7b041" x="175.432314" y="195.754898" style="fill: #2ca02c; stroke: #2ca02c"/>
     <use xlink:href="#md9eae7b041" x="195.800881" y="186.682195" style="fill: #2ca02c; stroke: #2ca02c"/>
     <use xlink:href="#md9eae7b041" x="216.169448" y="177.530599" style="fill: #2ca02c; stroke: #2ca02c"/>
     <use xlink:href="#md9eae7b041" x="236.538015" y="168.379003" style="fill: #2ca02c; stroke: #2ca02c"/>
     <use xlink:href="#md9eae7b041" x="256.906583" y="159.14713" style="fill: #2ca02c; stroke: #2ca02c"/>
     <use xlink:href="#md9eae7b041" x="277.27515" y="149.833559" style="fill: #2ca02c; stroke: #2ca02c"/>
     <use xlink:href="#md9eae7b041" x="297.643717" y="140.436831" style="fill: #2ca02c; stroke: #2ca02c"/>
     <use xlink:href="#md9eae7b041" x="318.012284" y="130.955448" style="fill: #2ca02c; stroke: #2ca02c"/>
     <use xlink:href="#md9eae7b041" x="338.380852" y="121.38787" style="fill: #2ca02c; stroke: #2ca02c"/>
     <use xlink:href="#md9eae7b041" x="358.749419" y="111.732517" style="fill: #2ca02c; stroke: #2ca02c"/>
     <use xlink:href="#md9eae7b041" x="379.117986" y="101.987762" style="fill: #2ca02c; stroke: #2ca02c"/>
     <use xlink:href="#md9eae7b041" x="399.486553" y="92.151935" style="fill: #2ca02c; stroke: #2ca02c"/>
     <use xlink:href="#md9eae7b041" x="419.855121" y="82.223316" style="fill: #2ca02c; stroke: #2ca02c"/>
     <use xlink:href="#md9eae7b041" x="440.223688" y="72.294698" style="fill: #2ca02c; stroke: #2ca02c"/>
     <use xlink:href="#md9eae7b041" x="460.592255" y="62.271522" style="fill: #2ca02c; stroke: #2ca02c"/>
     <use xlink:href="#md9eae7b041" x="480.960822" y="52.151968" style="fill: #2ca02c; stroke: #2ca02c"/>
     <use xlink:href="#md9eae7b041" x="501.32939" y="32.686477" style="fill: #2ca02c; stroke: #2ca02c"/>
     <use xlink:href="#md9eae7b041" x="521.697957" y="203.977478" style="fill: #2ca02c; stroke: #2ca02c"/>
    </g>
   </g>
   <g id="line2d_40">
    <path d="M 73.589477 240.053523 
L 93.958045 231.567465 
L 114.326612 222.512964 
L 134.695179 213.594036 
L 155.063746 204.521333 
L 175.432314 195.28946 
L 195.800881 185.892732 
L 216.169448 176.325154 
L 236.538015 166.580399 
L 256.906583 156.835644 
L 277.27515 146.907026 
L 297.643717 136.787473 
L 318.012284 126.469497 
L 338.380852 115.945162 
L 358.749419 105.206044 
L 379.117986 94.243195 
L 399.486553 83.047093 
L 419.855121 71.607599 
L 440.223688 59.648127 
L 460.592255 37.718063 
L 480.960822 138.330329 
" clip-path="url(#pfb6c7affaa)" style="fill: none; stroke: #d62728; stroke-linecap: square"/>
    <defs>
     <path id="m015b8a42ef" d="M 0 1.5 
C 0.397805 1.5 0.77937 1.341951 1.06066 1.06066 
C 1.341951 0.77937 1.5 0.397805 1.5 0 
C 1.5 -0.397805 1.341951 -0.77937 1.06066 -1.06066 
C 0.77937 -1.341951 0.397805 -1.5 0 -1.5 
C -0.397805 -1.5 -0.77937 -1.341951 -1.06066 -1.06066 
C -1.341951 -0.77937 -1.5 -0.397805 -1.5 0 
C -1.5 0.397805 -1.341951 0.77937 -1.06066 1.06066 
C -0.77937 1.341951 -0.397805 1.5 0 1.5 
z
" style="stroke: #d62728"/>
    </defs>
    <g clip-path="url(#pfb6c7affaa)">
     <use xlink:href="#m015b8a42ef" x="73.589477" y="240.053523" style="fill: #d62728; stroke: #d62728"/>
     <use xlink:href="#m015b8a42ef" x="93.958045" y="231.567465" style="fill: #d62728; stroke: #d62728"/>
     <use xlink:href="#m015b8a42ef" x="114.326612" y="222.512964" style="fill: #d62728; stroke: #d62728"/>
     <use xlink:href="#m015b8a42ef" x="134.695179" y="213.594036" style="fill: #d62728; stroke: #d62728"/>
     <use xlink:href="#m015b8a42ef" x="155.063746" y="204.521333" style="fill: #d62728; stroke: #d62728"/>
     <use xlink:href="#m015b8a42ef" x="175.432314" y="195.28946" style="fill: #d62728; stroke: #d62728"/>
     <use xlink:href="#m015b8a42ef" x="195.800881" y="185.892732" style="fill: #d62728; stroke: #d62728"/>
     <use xlink:href="#m015b8a42ef" x="216.169448" y="176.325154" style="fill: #d62728; stroke: #d62728"/>
     <use xlink:href="#m015b8a42ef" x="236.538015" y="166.580399" style="fill: #d62728; stroke: #d62728"/>
     <use xlink:href="#m015b8a42ef" x="256.906583" y="156.835644" style="fill: #d62728; stroke: #d62728"/>
     <use xlink:href="#m015b8a42ef" x="277.27515" y="146.907026" style="fill: #d62728; stroke: #d62728"/>
     <use xlink:href="#m015b8a42ef" x="297.643717" y="136.787473" style="fill: #d62728; stroke: #d62728"/>
     <use xlink:href="#m015b8a42ef" x="318.012284" y="126.469497" style="fill: #d62728; stroke: #d62728"/>
     <use xlink:href="#m015b8a42ef" x="338.380852" y="115.945162" style="fill: #d62728; stroke: #d62728"/>
     <use xlink:href="#m015b8a42ef" x="358.749419" y="105.206044" style="fill: #d62728; stroke: #d62728"/>
     <use xlink:href="#m015b8a42ef" x="379.117986" y="94.243195" style="fill: #d62728; stroke: #d62728"/>
     <use xlink:href="#m015b8a42ef" x="399.486553" y="83.047093" style="fill: #d62728; stroke: #d62728"/>
     <use xlink:href="#m015b8a42ef" x="419.855121" y="71.607599" style="fill: #d62728; stroke: #d62728"/>
     <use xlink:href="#m015b8a42ef" x="440.223688" y="59.648127" style="fill: #d62728; stroke: #d62728"/>
     <use xlink:href="#m015b8a42ef" x="460.592255" y="37.718063" style="fill: #d62728; stroke: #d62728"/>
     <use xlink:href="#m015b8a42ef" x="480.960822" y="138.330329" style="fill: #d62728; stroke: #d62728"/>
    </g>
   </g>
   <g id="line2d_41">
    <path d="M 73.589477 240.053523 
L 93.958045 231.567465 
L 114.326612 222.512964 
L 134.695179 213.440261 
L 155.063746 204.043533 
L 175.432314 194.298778 
L 195.800881 184.179225 
L 216.169448 173.65489 
L 236.538015 162.69204 
L 256.906583 151.252545 
L 277.27515 139.293073 
L 297.643717 126.764103 
L 318.012284 113.608684 
L 338.380852 98.991551 
L 358.749419 83.514588 
L 379.117986 67.070314 
L 399.486553 40.86635 
" clip-path="url(#pfb6c7affaa)" style="fill: none; stroke: #9467bd; stroke-linecap: square"/>
    <defs>
     <path id="m2c96df572b" d="M 0 1.5 
C 0.397805 1.5 0.77937 1.341951 1.06066 1.06066 
C 1.341951 0.77937 1.5 0.397805 1.5 0 
C 1.5 -0.397805 1.341951 -0.77937 1.06066 -1.06066 
C 0.77937 -1.341951 0.397805 -1.5 0 -1.5 
C -0.397805 -1.5 -0.77937 -1.341951 -1.06066 -1.06066 
C -1.341951 -0.77937 -1.5 -0.397805 -1.5 0 
C -1.5 0.397805 -1.341951 0.77937 -1.06066 1.06066 
C -0.77937 1.341951 -0.397805 1.5 0 1.5 
z
" style="stroke: #9467bd"/>
    </defs>
    <g clip-path="url(#pfb6c7affaa)">
     <use xlink:href="#m2c96df572b" x="73.589477" y="240.053523" style="fill: #9467bd; stroke: #9467bd"/>
     <use xlink:href="#m2c96df572b" x="93.958045" y="231.567465" style="fill: #9467bd; stroke: #9467bd"/>
     <use xlink:href="#m2c96df572b" x="114.326612" y="222.512964" style="fill: #9467bd; stroke: #9467bd"/>
     <use xlink:href="#m2c96df572b" x="134.695179" y="213.440261" style="fill: #9467bd; stroke: #9467bd"/>
     <use xlink:href="#m2c96df572b" x="155.063746" y="204.043533" style="fill: #9467bd; stroke: #9467bd"/>
     <use xlink:href="#m2c96df572b" x="175.432314" y="194.298778" style="fill: #9467bd; stroke: #9467bd"/>
     <use xlink:href="#m2c96df572b" x="195.800881" y="184.179225" style="fill: #9467bd; stroke: #9467bd"/>
     <use xlink:href="#m2c96df572b" x="216.169448" y="173.65489" style="fill: #9467bd; stroke: #9467bd"/>
     <use xlink:href="#m2c96df572b" x="236.538015" y="162.69204" style="fill: #9467bd; stroke: #9467bd"/>
     <use xlink:href="#m2c96df572b" x="256.906583" y="151.252545" style="fill: #9467bd; stroke: #9467bd"/>
     <use xlink:href="#m2c96df572b" x="277.27515" y="139.293073" style="fill: #9467bd; stroke: #9467bd"/>
     <use xlink:href="#m2c96df572b" x="297.643717" y="126.764103" style="fill: #9467bd; stroke: #9467bd"/>
     <use xlink:href="#m2c96df572b" x="318.012284" y="113.608684" style="fill: #9467bd; stroke: #9467bd"/>
     <use xlink:href="#m2c96df572b" x="338.380852" y="98.991551" style="fill: #9467bd; stroke: #9467bd"/>
     <use xlink:href="#m2c96df572b" x="358.749419" y="83.514588" style="fill: #9467bd; stroke: #9467bd"/>
     <use xlink:href="#m2c96df572b" x="379.117986" y="67.070314" style="fill: #9467bd; stroke: #9467bd"/>
     <use xlink:href="#m2c96df572b" x="399.486553" y="40.86635" style="fill: #9467bd; stroke: #9467bd"/>
    </g>
   </g>
   <g id="patch_3">
    <path d="M 50.165625 250.421875 
L 50.165625 22.318125 
" style="fill: none; stroke: #000000; stroke-width: 0.8; stroke-linejoin: miter; stroke-linecap: square"/>
   </g>
   <g id="patch_4">
    <path d="M 565.490377 250.421875 
L 565.490377 22.318125 
" style="fill: none; stroke: #000000; stroke-width: 0.8; stroke-linejoin: miter; stroke-linecap: square"/>
   </g>
   <g id="patch_5">
    <path d="M 50.165625 250.421875 
L 565.490377 250.421875 
" style="fill: none; stroke: #000000; stroke-width: 0.8; stroke-linejoin: miter; stroke-linecap: square"/>
   </g>
   <g id="patch_6">
    <path d="M 50.165625 22.318125 
L 565.490377 22.318125 
" style="fill: none; stroke: #000000; stroke-width: 0.8; stroke-linejoin: miter; stroke-linecap: square"/>
   </g>
   <g id="text_21">
    <!-- Constant sample rate offset rate -->
    <g transform="translate(209.972688 16.318125) scale(0.12 -0.12)">
     <defs>
      <path id="DejaVuSans-43" d="M 4122 4306 
L 4122 3641 
Q 3803 3938 3442 4084 
Q 3081 4231 2675 4231 
Q 1875 4231 1450 3742 
Q 1025 3253 1025 2328 
Q 1025 1406 1450 917 
Q 1875 428 2675 428 
Q 3081 428 3442 575 
Q 3803 722 4122 1019 
L 4122 359 
Q 3791 134 3420 21 
Q 3050 -91 2638 -91 
Q 1578 -91 968 557 
Q 359 1206 359 2328 
Q 359 3453 968 4101 
Q 1578 4750 2638 4750 
Q 3056 4750 3426 4639 
Q 3797 4528 4122 4306 
z
" transform="scale(0.015625)"/>
      <path id="DejaVuSans-6f" d="M 1959 3097 
Q 1497 3097 1228 2736 
Q 959 2375 959 1747 
Q 959 1119 1226 758 
Q 1494 397 1959 397 
Q 2419 397 2687 759 
Q 2956 1122 2956 1747 
Q 2956 2369 2687 2733 
Q 2419 3097 1959 3097 
z
M 1959 3584 
Q 2709 3584 3137 3096 
Q 3566 2609 3566 1747 
Q 3566 888 3137 398 
Q 2709 -91 1959 -91 
Q 1206 -91 779 398 
Q 353 888 353 1747 
Q 353 2609 779 3096 
Q 1206 3584 1959 3584 
z
" transform="scale(0.015625)"/>
      <path id="DejaVuSans-72" d="M 2631 2963 
Q 2534 3019 2420 3045 
Q 2306 3072 2169 3072 
Q 1681 3072 1420 2755 
Q 1159 2438 1159 1844 
L 1159 0 
L 581 0 
L 581 3500 
L 1159 3500 
L 1159 2956 
Q 1341 3275 1631 3429 
Q 1922 3584 2338 3584 
Q 2397 3584 2469 3576 
Q 2541 3569 2628 3553 
L 2631 2963 
z
" transform="scale(0.015625)"/>
      <path id="DejaVuSans-66" d="M 2375 4863 
L 2375 4384 
L 1825 4384 
Q 1516 4384 1395 4259 
Q 1275 4134 1275 3809 
L 1275 3500 
L 2222 3500 
L 2222 3053 
L 1275 3053 
L 1275 0 
L 697 0 
L 697 3053 
L 147 3053 
L 147 3500 
L 697 3500 
L 697 3744 
Q 697 4328 969 4595 
Q 1241 4863 1831 4863 
L 2375 4863 
z
" transform="scale(0.015625)"/>
     </defs>
     <use xlink:href="#DejaVuSans-43"/>
     <use xlink:href="#DejaVuSans-6f" transform="translate(69.824219 0)"/>
     <use xlink:href="#DejaVuSans-6e" transform="translate(131.005859 0)"/>
     <use xlink:href="#DejaVuSans-73" transform="translate(194.384766 0)"/>
     <use xlink:href="#DejaVuSans-74" transform="translate(246.484375 0)"/>
     <use xlink:href="#DejaVuSans-61" transform="translate(285.693359 0)"/>
     <use xlink:href="#DejaVuSans-6e" transform="translate(346.972656 0)"/>
     <use xlink:href="#DejaVuSans-74" transform="translate(410.351562 0)"/>
     <use xlink:href="#DejaVuSans-20" transform="translate(449.560547 0)"/>
     <use xlink:href="#DejaVuSans-73" transform="translate(481.347656 0)"/>
     <use xlink:href="#DejaVuSans-61" transform="translate(533.447266 0)"/>
     <use xlink:href="#DejaVuSans-6d" transform="translate(594.726562 0)"/>
     <use xlink:href="#DejaVuSans-70" transform="translate(692.138672 0)"/>
     <use xlink:href="#DejaVuSans-6c" transform="translate(755.615234 0)"/>
     <use xlink:href="#DejaVuSans-65" transform="translate(783.398438 0)"/>
     <use xlink:href="#DejaVuSans-20" transform="translate(844.921875 0)"/>
     <use xlink:href="#DejaVuSans-72" transform="translate(876.708984 0)"/>
     <use xlink:href="#DejaVuSans-61" transform="translate(917.822266 0)"/>
     <use xlink:href="#DejaVuSans-74" transform="translate(979.101562 0)"/>
     <use xlink:href="#DejaVuSans-65" transform="translate(1018.310547 0)"/>
     <use xlink:href="#DejaVuSans-20" transform="translate(1079.833984 0)"/>
     <use xlink:href="#DejaVuSans-6f" transform="translate(1111.621094 0)"/>
     <use xlink:href="#DejaVuSans-66" transform="translate(1172.802734 0)"/>
     <use xlink:href="#DejaVuSans-66" transform="translate(1208.007812 0)"/>
     <use xlink:href="#DejaVuSans-73" transform="translate(1243.212891 0)"/>
     <use xlink:href="#DejaVuSans-65" transform="translate(1295.3125 0)"/>
     <use xlink:href="#DejaVuSans-74" transform="translate(1356.835938 0)"/>
     <use xlink:href="#DejaVuSans-20" transform="translate(1396.044922 0)"/>
     <use xlink:href="#DejaVuSans-72" transform="translate(1427.832031 0)"/>
     <use xlink:href="#DejaVuSans-61" transform="translate(1468.945312 0)"/>
     <use xlink:href="#DejaVuSans-74" transform="translate(1530.224609 0)"/>
     <use xlink:href="#DejaVuSans-65" transform="translate(1569.433594 0)"/>
    </g>
   </g>
   <g id="legend_1">
    <g id="patch_7">
     <path d="M 57.165625 118.386875 
L 149.021875 118.386875 
Q 151.021875 118.386875 151.021875 116.386875 
L 151.021875 29.318125 
Q 151.021875 27.318125 149.021875 27.318125 
L 57.165625 27.318125 
Q 55.165625 27.318125 55.165625 29.318125 
L 55.165625 116.386875 
Q 55.165625 118.386875 57.165625 118.386875 
z
" style="fill: #ffffff; opacity: 0.8; stroke: #cccccc; stroke-linejoin: miter"/>
    </g>
    <g id="text_22">
     <!-- Offset -->
     <g transform="translate(87.996094 38.916562) scale(0.1 -0.1)">
      <use xlink:href="#DejaVuSans-4f"/>
      <use xlink:href="#DejaVuSans-66" transform="translate(78.710938 0)"/>
      <use xlink:href="#DejaVuSans-66" transform="translate(113.916016 0)"/>
      <use xlink:href="#DejaVuSans-73" transform="translate(149.121094 0)"/>
      <use xlink:href="#DejaVuSans-65" transform="translate(201.220703 0)"/>
      <use xlink:href="#DejaVuSans-74" transform="translate(262.744141 0)"/>
     </g>
    </g>
    <g id="line2d_42">
     <path d="M 59.165625 50.094687 
L 69.165625 50.094687 
L 79.165625 50.094687 
" style="fill: none; stroke: #1f77b4; stroke-linecap: square"/>
     <g>
      <use xlink:href="#m767359a414" x="69.165625" y="50.094687" style="fill: #1f77b4; stroke: #1f77b4"/>
     </g>
    </g>
    <g id="text_23">
     <!-- 0 -->
     <g transform="translate(87.165625 53.594687) scale(0.1 -0.1)">
      <use xlink:href="#DejaVuSans-30"/>
     </g>
    </g>
    <g id="line2d_43">
     <path d="M 59.165625 64.772812 
L 69.165625 64.772812 
L 79.165625 64.772812 
" style="fill: none; stroke: #ff7f0e; stroke-linecap: square"/>
     <g>
      <use xlink:href="#mb4aaa67e91" x="69.165625" y="64.772812" style="fill: #ff7f0e; stroke: #ff7f0e"/>
     </g>
    </g>
    <g id="text_24">
     <!-- 0.2 + 0/n -->
     <g transform="translate(87.165625 68.272812) scale(0.1 -0.1)">
      <defs>
       <path id="DejaVuSans-2b" d="M 2944 4013 
L 2944 2272 
L 4684 2272 
L 4684 1741 
L 2944 1741 
L 2944 0 
L 2419 0 
L 2419 1741 
L 678 1741 
L 678 2272 
L 2419 2272 
L 2419 4013 
L 2944 4013 
z
" transform="scale(0.015625)"/>
       <path id="DejaVuSans-2f" d="M 1625 4666 
L 2156 4666 
L 531 -594 
L 0 -594 
L 1625 4666 
z
" transform="scale(0.015625)"/>
      </defs>
      <use xlink:href="#DejaVuSans-30"/>
      <use xlink:href="#DejaVuSans-2e" transform="translate(63.623047 0)"/>
      <use xlink:href="#DejaVuSans-32" transform="translate(95.410156 0)"/>
      <use xlink:href="#DejaVuSans-20" transform="translate(159.033203 0)"/>
      <use xlink:href="#DejaVuSans-2b" transform="translate(190.820312 0)"/>
      <use xlink:href="#DejaVuSans-20" transform="translate(274.609375 0)"/>
      <use xlink:href="#DejaVuSans-30" transform="translate(306.396484 0)"/>
      <use xlink:href="#DejaVuSans-2f" transform="translate(370.019531 0)"/>
      <use xlink:href="#DejaVuSans-6e" transform="translate(403.710938 0)"/>
     </g>
    </g>
    <g id="line2d_44">
     <path d="M 59.165625 79.450938 
L 69.165625 79.450938 
L 79.165625 79.450938 
" style="fill: none; stroke: #2ca02c; stroke-linecap: square"/>
     <g>
      <use xlink:href="#md9eae7b041" x="69.165625" y="79.450938" style="fill: #2ca02c; stroke: #2ca02c"/>
     </g>
    </g>
    <g id="text_25">
     <!-- 0.2 + -0.2/n -->
     <g transform="translate(87.165625 82.950938) scale(0.1 -0.1)">
      <defs>
       <path id="DejaVuSans-2d" d="M 313 2009 
L 1997 2009 
L 1997 1497 
L 313 1497 
L 313 2009 
z
" transform="scale(0.015625)"/>
      </defs>
      <use xlink:href="#DejaVuSans-30"/>
      <use xlink:href="#DejaVuSans-2e" transform="translate(63.623047 0)"/>
      <use xlink:href="#DejaVuSans-32" transform="translate(95.410156 0)"/>
      <use xlink:href="#DejaVuSans-20" transform="translate(159.033203 0)"/>
      <use xlink:href="#DejaVuSans-2b" transform="translate(190.820312 0)"/>
      <use xlink:href="#DejaVuSans-20" transform="translate(274.609375 0)"/>
      <use xlink:href="#DejaVuSans-2d" transform="translate(306.396484 0)"/>
      <use xlink:href="#DejaVuSans-30" transform="translate(342.480469 0)"/>
      <use xlink:href="#DejaVuSans-2e" transform="translate(406.103516 0)"/>
      <use xlink:href="#DejaVuSans-32" transform="translate(437.890625 0)"/>
      <use xlink:href="#DejaVuSans-2f" transform="translate(501.513672 0)"/>
      <use xlink:href="#DejaVuSans-6e" transform="translate(535.205078 0)"/>
     </g>
    </g>
    <g id="line2d_45">
     <path d="M 59.165625 94.129063 
L 69.165625 94.129063 
L 79.165625 94.129063 
" style="fill: none; stroke: #d62728; stroke-linecap: square"/>
     <g>
      <use xlink:href="#m015b8a42ef" x="69.165625" y="94.129063" style="fill: #d62728; stroke: #d62728"/>
     </g>
    </g>
    <g id="text_26">
     <!-- 0.2 + -0.4/n -->
     <g transform="translate(87.165625 97.629063) scale(0.1 -0.1)">
      <use xlink:href="#DejaVuSans-30"/>
      <use xlink:href="#DejaVuSans-2e" transform="translate(63.623047 0)"/>
      <use xlink:href="#DejaVuSans-32" transform="translate(95.410156 0)"/>
      <use xlink:href="#DejaVuSans-20" transform="translate(159.033203 0)"/>
      <use xlink:href="#DejaVuSans-2b" transform="translate(190.820312 0)"/>
      <use xlink:href="#DejaVuSans-20" transform="translate(274.609375 0)"/>
      <use xlink:href="#DejaVuSans-2d" transform="translate(306.396484 0)"/>
      <use xlink:href="#DejaVuSans-30" transform="translate(342.480469 0)"/>
      <use xlink:href="#DejaVuSans-2e" transform="translate(406.103516 0)"/>
      <use xlink:href="#DejaVuSans-34" transform="translate(437.890625 0)"/>
      <use xlink:href="#DejaVuSans-2f" transform="translate(501.513672 0)"/>
      <use xlink:href="#DejaVuSans-6e" transform="translate(535.205078 0)"/>
     </g>
    </g>
    <g id="line2d_46">
     <path d="M 59.165625 108.807187 
L 69.165625 108.807187 
L 79.165625 108.807187 
" style="fill: none; stroke: #9467bd; stroke-linecap: square"/>
     <g>
      <use xlink:href="#m2c96df572b" x="69.165625" y="108.807187" style="fill: #9467bd; stroke: #9467bd"/>
     </g>
    </g>
    <g id="text_27">
     <!-- 0.2 + -0.8/n -->
     <g transform="translate(87.165625 112.307187) scale(0.1 -0.1)">
      <use xlink:href="#DejaVuSans-30"/>
      <use xlink:href="#DejaVuSans-2e" transform="translate(63.623047 0)"/>
      <use xlink:href="#DejaVuSans-32" transform="translate(95.410156 0)"/>
      <use xlink:href="#DejaVuSans-20" transform="translate(159.033203 0)"/>
      <use xlink:href="#DejaVuSans-2b" transform="translate(190.820312 0)"/>
      <use xlink:href="#DejaVuSans-20" transform="translate(274.609375 0)"/>
      <use xlink:href="#DejaVuSans-2d" transform="translate(306.396484 0)"/>
      <use xlink:href="#DejaVuSans-30" transform="translate(342.480469 0)"/>
      <use xlink:href="#DejaVuSans-2e" transform="translate(406.103516 0)"/>
      <use xlink:href="#DejaVuSans-38" transform="translate(437.890625 0)"/>
      <use xlink:href="#DejaVuSans-2f" transform="translate(501.513672 0)"/>
      <use xlink:href="#DejaVuSans-6e" transform="translate(535.205078 0)"/>
     </g>
    </g>
   </g>
  </g>
 </g>
 <defs>
  <clipPath id="pfb6c7affaa">
   <rect x="50.165625" y="22.318125" width="515.324752" height="228.10375"/>
  </clipPath>
 </defs>
</svg>
