<?xml version="1.0" encoding="utf-8" standalone="no"?>
<!DOCTYPE svg PUBLIC "-//W3C//DTD SVG 1.1//EN"
  "http://www.w3.org/Graphics/SVG/1.1/DTD/svg11.dtd">
<svg xmlns:xlink="http://www.w3.org/1999/xlink" width="576pt" height="288pt" viewBox="0 0 576 288" xmlns="http://www.w3.org/2000/svg" version="1.1">
 <metadata>
  <rdf:RDF xmlns:dc="http://purl.org/dc/elements/1.1/" xmlns:cc="http://creativecommons.org/ns#" xmlns:rdf="http://www.w3.org/1999/02/22-rdf-syntax-ns#">
   <cc:Work>
    <dc:type rdf:resource="http://purl.org/dc/dcmitype/StillImage"/>
    <dc:date>2026-05-03T15:51:03.490470</dc:date>
    <dc:format>image/svg+xml</dc:format>
    <dc:creator>
     <cc:Agent>
      <dc:title>Matplotlib v3.10.9, https://matplotlib.org/</dc:title>
     </cc:Agent>
    </dc:creator>
   </cc:Work>
  </rdf:RDF>
 </metadata>
 <defs>
  <style type="text/css">*{stroke-linejoin: round; stroke-linecap: butt}</style>
 </defs>
 <g id="figure_1">
  <g id="patch_1">
   <path d="M 0 288 
L 576 288 
L 576 0 
L 0 0 
z
" style="fill: #ffffff"/>
  </g>
  <g id="axes_1">
   <g id="patch_2">
    <path d="M 52.160938 250.421875 
L 568.8 250.421875 
L 568.8 7.2 
L 52.160938 7.2 
z
" style="fill: #ffffff"/>
   </g>
   <g id="matplotlib.axis_1">
    <g id="xtick_1">
     <g id="line2d_1">
      <path d="M 75.644531 250.421875 
L 75.644531 7.2 
" clip-path="url(#pc644380515)" style="fill: none; stroke-dasharray: 2.96,1.28; stroke-dashoffset: 0; stroke: #b0b0b0; stroke-opacity: 0.8; stroke-width: 0.8"/>
     </g>
     <g id="line2d_2">
      <defs>
       <path id="m8b195e7420" d="M 0 0 
L 0 3.5 
" style="stroke: #000000; stroke-width: 0.8"/>
      </defs>
      <g>
       <use xlink:href="#m8b195e7420" x="75.644531" y="250.421875" style="stroke: #000000; stroke-width: 0.8"/>
      </g>
     </g>
     <g id="text_1">
      <!-- 0 -->
      <g transform="translate(72.463281 265.020312) scale(0.1 -0.1)">
       <defs>
        <path id="DejaVuSans-30" d="M 2034 4250 
Q 1547 4250 1301 3770 
Q 1056 3291 1056 2328 
Q 1056 1369 1301 889 
Q 1547 409 2034 409 
Q 2525 409 2770 889 
Q 3016 1369 3016 2328 
Q 3016 3291 2770 3770 
Q 2525 4250 2034 4250 
z
M 2034 4750 
Q 2819 4750 3233 4129 
Q 3647 3509 3647 2328 
Q 3647 1150 3233 529 
Q 2819 -91 2034 -91 
Q 1250 -91 836 529 
Q 422 1150 422 2328 
Q 422 3509 836 4129 
Q 1250 4750 2034 4750 
z
" transform="scale(0.015625)"/>
       </defs>
       <use xlink:href="#DejaVuSans-30"/>
      </g>
     </g>
    </g>
    <g id="xtick_2">
     <g id="line2d_3">
      <path d="M 134.500656 250.421875 
L 134.500656 7.2 
" clip-path="url(#pc644380515)" style="fill: none; stroke-dasharray: 2.96,1.28; stroke-dashoffset: 0; stroke: #b0b0b0; stroke-opacity: 0.8; stroke-width: 0.8"/>
     </g>
     <g id="line2d_4">
      <g>
       <use xlink:href="#m8b195e7420" x="134.500656" y="250.421875" style="stroke: #000000; stroke-width: 0.8"/>
      </g>
     </g>
     <g id="text_2">
      <!-- 50 -->
      <g transform="translate(128.138156 265.020312) scale(0.1 -0.1)">
       <defs>
        <path id="DejaVuSans-35" d="M 691 4666 
L 3169 4666 
L 3169 4134 
L 1269 4134 
L 1269 2991 
Q 1406 3038 1543 3061 
Q 1681 3084 1819 3084 
Q 2600 3084 3056 2656 
Q 3513 2228 3513 1497 
Q 3513 744 3044 326 
Q 2575 -91 1722 -91 
Q 1428 -91 1123 -41 
Q 819 9 494 109 
L 494 744 
Q 775 591 1075 516 
Q 1375 441 1709 441 
Q 2250 441 2565 725 
Q 2881 1009 2881 1497 
Q 2881 1984 2565 2268 
Q 2250 2553 1709 2553 
Q 1456 2553 1204 2497 
Q 953 2441 691 2322 
L 691 4666 
z
" transform="scale(0.015625)"/>
       </defs>
       <use xlink:href="#DejaVuSans-35"/>
       <use xlink:href="#DejaVuSans-30" transform="translate(63.623047 0)"/>
      </g>
     </g>
    </g>
    <g id="xtick_3">
     <g id="line2d_5">
      <path d="M 193.356781 250.421875 
L 193.356781 7.2 
" clip-path="url(#pc644380515)" style="fill: none; stroke-dasharray: 2.96,1.28; stroke-dashoffset: 0; stroke: #b0b0b0; stroke-opacity: 0.8; stroke-width: 0.8"/>
     </g>
     <g id="line2d_6">
      <g>
       <use xlink:href="#m8b195e7420" x="193.356781" y="250.421875" style="stroke: #000000; stroke-width: 0.8"/>
      </g>
     </g>
     <g id="text_3">
      <!-- 100 -->
      <g transform="translate(183.813031 265.020312) scale(0.1 -0.1)">
       <defs>
        <path id="DejaVuSans-31" d="M 794 531 
L 1825 531 
L 1825 4091 
L 703 3866 
L 703 4441 
L 1819 4666 
L 2450 4666 
L 2450 531 
L 3481 531 
L 3481 0 
L 794 0 
L 794 531 
z
" transform="scale(0.015625)"/>
       </defs>
       <use xlink:href="#DejaVuSans-31"/>
       <use xlink:href="#DejaVuSans-30" transform="translate(63.623047 0)"/>
       <use xlink:href="#DejaVuSans-30" transform="translate(127.246094 0)"/>
      </g>
     </g>
    </g>
    <g id="xtick_4">
     <g id="line2d_7">
      <path d="M 252.212905 250.421875 
L 252.212905 7.2 
" clip-path="url(#pc644380515)" style="fill: none; stroke-dasharray: 2.96,1.28; stroke-dashoffset: 0; stroke: #b0b0b0; stroke-opacity: 0.8; stroke-width: 0.8"/>
     </g>
     <g id="line2d_8">
      <g>
       <use xlink:href="#m8b195e7420" x="252.212905" y="250.421875" style="stroke: #000000; stroke-width: 0.8"/>
      </g>
     </g>
     <g id="text_4">
      <!-- 150 -->
      <g transform="translate(242.669155 265.020312) scale(0.1 -0.1)">
       <use xlink:href="#DejaVuSans-31"/>
       <use xlink:href="#DejaVuSans-35" transform="translate(63.623047 0)"/>
       <use xlink:href="#DejaVuSans-30" transform="translate(127.246094 0)"/>
      </g>
     </g>
    </g>
    <g id="xtick_5">
     <g id="line2d_9">
      <path d="M 311.06903 250.421875 
L 311.06903 7.2 
" clip-path="url(#pc644380515)" style="fill: none; stroke-dasharray: 2.96,1.28; stroke-dashoffset: 0; stroke: #b0b0b0; stroke-opacity: 0.8; stroke-width: 0.8"/>
     </g>
     <g id="line2d_10">
      <g>
       <use xlink:href="#m8b195e7420" x="311.06903" y="250.421875" style="stroke: #000000; stroke-width: 0.8"/>
      </g>
     </g>
     <g id="text_5">
      <!-- 200 -->
      <g transform="translate(301.52528 265.020312) scale(0.1 -0.1)">
       <defs>
        <path id="DejaVuSans-32" d="M 1228 531 
L 3431 531 
L 3431 0 
L 469 0 
L 469 531 
Q 828 903 1448 1529 
Q 2069 2156 2228 2338 
Q 2531 2678 2651 2914 
Q 2772 3150 2772 3378 
Q 2772 3750 2511 3984 
Q 2250 4219 1831 4219 
Q 1534 4219 1204 4116 
Q 875 4013 500 3803 
L 500 4441 
Q 881 4594 1212 4672 
Q 1544 4750 1819 4750 
Q 2544 4750 2975 4387 
Q 3406 4025 3406 3419 
Q 3406 3131 3298 2873 
Q 3191 2616 2906 2266 
Q 2828 2175 2409 1742 
Q 1991 1309 1228 531 
z
" transform="scale(0.015625)"/>
       </defs>
       <use xlink:href="#DejaVuSans-32"/>
       <use xlink:href="#DejaVuSans-30" transform="translate(63.623047 0)"/>
       <use xlink:href="#DejaVuSans-30" transform="translate(127.246094 0)"/>
      </g>
     </g>
    </g>
    <g id="xtick_6">
     <g id="line2d_11">
      <path d="M 369.925155 250.421875 
L 369.925155 7.2 
" clip-path="url(#pc644380515)" style="fill: none; stroke-dasharray: 2.96,1.28; stroke-dashoffset: 0; stroke: #b0b0b0; stroke-opacity: 0.8; stroke-width: 0.8"/>
     </g>
     <g id="line2d_12">
      <g>
       <use xlink:href="#m8b195e7420" x="369.925155" y="250.421875" style="stroke: #000000; stroke-width: 0.8"/>
      </g>
     </g>
     <g id="text_6">
      <!-- 250 -->
      <g transform="translate(360.381405 265.020312) scale(0.1 -0.1)">
       <use xlink:href="#DejaVuSans-32"/>
       <use xlink:href="#DejaVuSans-35" transform="translate(63.623047 0)"/>
       <use xlink:href="#DejaVuSans-30" transform="translate(127.246094 0)"/>
      </g>
     </g>
    </g>
    <g id="xtick_7">
     <g id="line2d_13">
      <path d="M 428.781279 250.421875 
L 428.781279 7.2 
" clip-path="url(#pc644380515)" style="fill: none; stroke-dasharray: 2.96,1.28; stroke-dashoffset: 0; stroke: #b0b0b0; stroke-opacity: 0.8; stroke-width: 0.8"/>
     </g>
     <g id="line2d_14">
      <g>
       <use xlink:href="#m8b195e7420" x="428.781279" y="250.421875" style="stroke: #000000; stroke-width: 0.8"/>
      </g>
     </g>
     <g id="text_7">
      <!-- 300 -->
      <g transform="translate(419.237529 265.020312) scale(0.1 -0.1)">
       <defs>
        <path id="DejaVuSans-33" d="M 2597 2516 
Q 3050 2419 3304 2112 
Q 3559 1806 3559 1356 
Q 3559 666 3084 287 
Q 2609 -91 1734 -91 
Q 1441 -91 1130 -33 
Q 819 25 488 141 
L 488 750 
Q 750 597 1062 519 
Q 1375 441 1716 441 
Q 2309 441 2620 675 
Q 2931 909 2931 1356 
Q 2931 1769 2642 2001 
Q 2353 2234 1838 2234 
L 1294 2234 
L 1294 2753 
L 1863 2753 
Q 2328 2753 2575 2939 
Q 2822 3125 2822 3475 
Q 2822 3834 2567 4026 
Q 2313 4219 1838 4219 
Q 1578 4219 1281 4162 
Q 984 4106 628 3988 
L 628 4550 
Q 988 4650 1302 4700 
Q 1616 4750 1894 4750 
Q 2613 4750 3031 4423 
Q 3450 4097 3450 3541 
Q 3450 3153 3228 2886 
Q 3006 2619 2597 2516 
z
" transform="scale(0.015625)"/>
       </defs>
       <use xlink:href="#DejaVuSans-33"/>
       <use xlink:href="#DejaVuSans-30" transform="translate(63.623047 0)"/>
       <use xlink:href="#DejaVuSans-30" transform="translate(127.246094 0)"/>
      </g>
     </g>
    </g>
    <g id="xtick_8">
     <g id="line2d_15">
      <path d="M 487.637404 250.421875 
L 487.637404 7.2 
" clip-path="url(#pc644380515)" style="fill: none; stroke-dasharray: 2.96,1.28; stroke-dashoffset: 0; stroke: #b0b0b0; stroke-opacity: 0.8; stroke-width: 0.8"/>
     </g>
     <g id="line2d_16">
      <g>
       <use xlink:href="#m8b195e7420" x="487.637404" y="250.421875" style="stroke: #000000; stroke-width: 0.8"/>
      </g>
     </g>
     <g id="text_8">
      <!-- 350 -->
      <g transform="translate(478.093654 265.020312) scale(0.1 -0.1)">
       <use xlink:href="#DejaVuSans-33"/>
       <use xlink:href="#DejaVuSans-35" transform="translate(63.623047 0)"/>
       <use xlink:href="#DejaVuSans-30" transform="translate(127.246094 0)"/>
      </g>
     </g>
    </g>
    <g id="xtick_9">
     <g id="line2d_17">
      <path d="M 546.493529 250.421875 
L 546.493529 7.2 
" clip-path="url(#pc644380515)" style="fill: none; stroke-dasharray: 2.96,1.28; stroke-dashoffset: 0; stroke: #b0b0b0; stroke-opacity: 0.8; stroke-width: 0.8"/>
     </g>
     <g id="line2d_18">
      <g>
       <use xlink:href="#m8b195e7420" x="546.493529" y="250.421875" style="stroke: #000000; stroke-width: 0.8"/>
      </g>
     </g>
     <g id="text_9">
      <!-- 400 -->
      <g transform="translate(536.949779 265.020312) scale(0.1 -0.1)">
       <defs>
        <path id="DejaVuSans-34" d="M 2419 4116 
L 825 1625 
L 2419 1625 
L 2419 4116 
z
M 2253 4666 
L 3047 4666 
L 3047 1625 
L 3713 1625 
L 3713 1100 
L 3047 1100 
L 3047 0 
L 2419 0 
L 2419 1100 
L 313 1100 
L 313 1709 
L 2253 4666 
z
" transform="scale(0.015625)"/>
       </defs>
       <use xlink:href="#DejaVuSans-34"/>
       <use xlink:href="#DejaVuSans-30" transform="translate(63.623047 0)"/>
       <use xlink:href="#DejaVuSans-30" transform="translate(127.246094 0)"/>
      </g>
     </g>
    </g>
    <g id="text_10">
     <!-- Sample, $n$ -->
     <g transform="translate(285.380469 278.7) scale(0.1 -0.1)">
      <defs>
       <path id="DejaVuSans-53" d="M 3425 4513 
L 3425 3897 
Q 3066 4069 2747 4153 
Q 2428 4238 2131 4238 
Q 1616 4238 1336 4038 
Q 1056 3838 1056 3469 
Q 1056 3159 1242 3001 
Q 1428 2844 1947 2747 
L 2328 2669 
Q 3034 2534 3370 2195 
Q 3706 1856 3706 1288 
Q 3706 609 3251 259 
Q 2797 -91 1919 -91 
Q 1588 -91 1214 -16 
Q 841 59 441 206 
L 441 856 
Q 825 641 1194 531 
Q 1563 422 1919 422 
Q 2459 422 2753 634 
Q 3047 847 3047 1241 
Q 3047 1584 2836 1778 
Q 2625 1972 2144 2069 
L 1759 2144 
Q 1053 2284 737 2584 
Q 422 2884 422 3419 
Q 422 4038 858 4394 
Q 1294 4750 2059 4750 
Q 2388 4750 2728 4690 
Q 3069 4631 3425 4513 
z
" transform="scale(0.015625)"/>
       <path id="DejaVuSans-61" d="M 2194 1759 
Q 1497 1759 1228 1600 
Q 959 1441 959 1056 
Q 959 750 1161 570 
Q 1363 391 1709 391 
Q 2188 391 2477 730 
Q 2766 1069 2766 1631 
L 2766 1759 
L 2194 1759 
z
M 3341 1997 
L 3341 0 
L 2766 0 
L 2766 531 
Q 2569 213 2275 61 
Q 1981 -91 1556 -91 
Q 1019 -91 701 211 
Q 384 513 384 1019 
Q 384 1609 779 1909 
Q 1175 2209 1959 2209 
L 2766 2209 
L 2766 2266 
Q 2766 2663 2505 2880 
Q 2244 3097 1772 3097 
Q 1472 3097 1187 3025 
Q 903 2953 641 2809 
L 641 3341 
Q 956 3463 1253 3523 
Q 1550 3584 1831 3584 
Q 2591 3584 2966 3190 
Q 3341 2797 3341 1997 
z
" transform="scale(0.015625)"/>
       <path id="DejaVuSans-6d" d="M 3328 2828 
Q 3544 3216 3844 3400 
Q 4144 3584 4550 3584 
Q 5097 3584 5394 3201 
Q 5691 2819 5691 2113 
L 5691 0 
L 5113 0 
L 5113 2094 
Q 5113 2597 4934 2840 
Q 4756 3084 4391 3084 
Q 3944 3084 3684 2787 
Q 3425 2491 3425 1978 
L 3425 0 
L 2847 0 
L 2847 2094 
Q 2847 2600 2669 2842 
Q 2491 3084 2119 3084 
Q 1678 3084 1418 2786 
Q 1159 2488 1159 1978 
L 1159 0 
L 581 0 
L 581 3500 
L 1159 3500 
L 1159 2956 
Q 1356 3278 1631 3431 
Q 1906 3584 2284 3584 
Q 2666 3584 2933 3390 
Q 3200 3197 3328 2828 
z
" transform="scale(0.015625)"/>
       <path id="DejaVuSans-70" d="M 1159 525 
L 1159 -1331 
L 581 -1331 
L 581 3500 
L 1159 3500 
L 1159 2969 
Q 1341 3281 1617 3432 
Q 1894 3584 2278 3584 
Q 2916 3584 3314 3078 
Q 3713 2572 3713 1747 
Q 3713 922 3314 415 
Q 2916 -91 2278 -91 
Q 1894 -91 1617 61 
Q 1341 213 1159 525 
z
M 3116 1747 
Q 3116 2381 2855 2742 
Q 2594 3103 2138 3103 
Q 1681 3103 1420 2742 
Q 1159 2381 1159 1747 
Q 1159 1113 1420 752 
Q 1681 391 2138 391 
Q 2594 391 2855 752 
Q 3116 1113 3116 1747 
z
" transform="scale(0.015625)"/>
       <path id="DejaVuSans-6c" d="M 603 4863 
L 1178 4863 
L 1178 0 
L 603 0 
L 603 4863 
z
" transform="scale(0.015625)"/>
       <path id="DejaVuSans-65" d="M 3597 1894 
L 3597 1613 
L 953 1613 
Q 991 1019 1311 708 
Q 1631 397 2203 397 
Q 2534 397 2845 478 
Q 3156 559 3463 722 
L 3463 178 
Q 3153 47 2828 -22 
Q 2503 -91 2169 -91 
Q 1331 -91 842 396 
Q 353 884 353 1716 
Q 353 2575 817 3079 
Q 1281 3584 2069 3584 
Q 2775 3584 3186 3129 
Q 3597 2675 3597 1894 
z
M 3022 2063 
Q 3016 2534 2758 2815 
Q 2500 3097 2075 3097 
Q 1594 3097 1305 2825 
Q 1016 2553 972 2059 
L 3022 2063 
z
" transform="scale(0.015625)"/>
       <path id="DejaVuSans-2c" d="M 750 794 
L 1409 794 
L 1409 256 
L 897 -744 
L 494 -744 
L 750 256 
L 750 794 
z
" transform="scale(0.015625)"/>
       <path id="DejaVuSans-20" transform="scale(0.015625)"/>
       <path id="DejaVuSans-Oblique-6e" d="M 3566 2113 
L 3156 0 
L 2578 0 
L 2988 2091 
Q 3016 2238 3031 2350 
Q 3047 2463 3047 2528 
Q 3047 2791 2881 2937 
Q 2716 3084 2419 3084 
Q 1956 3084 1622 2776 
Q 1288 2469 1184 1941 
L 800 0 
L 225 0 
L 903 3500 
L 1478 3500 
L 1363 2950 
Q 1603 3253 1940 3418 
Q 2278 3584 2650 3584 
Q 3113 3584 3367 3334 
Q 3622 3084 3622 2631 
Q 3622 2519 3608 2391 
Q 3594 2263 3566 2113 
z
" transform="scale(0.015625)"/>
      </defs>
      <use xlink:href="#DejaVuSans-53" transform="translate(0 0.015625)"/>
      <use xlink:href="#DejaVuSans-61" transform="translate(63.476562 0.015625)"/>
      <use xlink:href="#DejaVuSans-6d" transform="translate(124.755859 0.015625)"/>
      <use xlink:href="#DejaVuSans-70" transform="translate(222.167969 0.015625)"/>
      <use xlink:href="#DejaVuSans-6c" transform="translate(285.644531 0.015625)"/>
      <use xlink:href="#DejaVuSans-65" transform="translate(313.427734 0.015625)"/>
      <use xlink:href="#DejaVuSans-2c" transform="translate(374.951172 0.015625)"/>
      <use xlink:href="#DejaVuSans-20" transform="translate(406.738281 0.015625)"/>
      <use xlink:href="#DejaVuSans-Oblique-6e" transform="translate(438.525391 0.015625)"/>
     </g>
    </g>
   </g>
   <g id="matplotlib.axis_2">
    <g id="ytick_1">
     <g id="line2d_19">
      <path d="M 52.160938 218.240998 
L 568.8 218.240998 
" clip-path="url(#pc644380515)" style="fill: none; stroke-dasharray: 2.96,1.28; stroke-dashoffset: 0; stroke: #b0b0b0; stroke-opacity: 0.8; stroke-width: 0.8"/>
     </g>
     <g id="line2d_20">
      <defs>
       <path id="mb60aed276a" d="M 0 0 
L -3.5 0 
" style="stroke: #000000; stroke-width: 0.8"/>
      </defs>
      <g>
       <use xlink:href="#mb60aed276a" x="52.160938" y="218.240998" style="stroke: #000000; stroke-width: 0.8"/>
      </g>
     </g>
     <g id="text_11">
      <!-- −0.4 -->
      <g transform="translate(20.878125 222.040217) scale(0.1 -0.1)">
       <defs>
        <path id="DejaVuSans-2212" d="M 678 2272 
L 4684 2272 
L 4684 1741 
L 678 1741 
L 678 2272 
z
" transform="scale(0.015625)"/>
        <path id="DejaVuSans-2e" d="M 684 794 
L 1344 794 
L 1344 0 
L 684 0 
L 684 794 
z
" transform="scale(0.015625)"/>
       </defs>
       <use xlink:href="#DejaVuSans-2212"/>
       <use xlink:href="#DejaVuSans-30" transform="translate(83.789062 0)"/>
       <use xlink:href="#DejaVuSans-2e" transform="translate(147.412109 0)"/>
       <use xlink:href="#DejaVuSans-34" transform="translate(179.199219 0)"/>
      </g>
     </g>
    </g>
    <g id="ytick_2">
     <g id="line2d_21">
      <path d="M 52.160938 174.739389 
L 568.8 174.739389 
" clip-path="url(#pc644380515)" style="fill: none; stroke-dasharray: 2.96,1.28; stroke-dashoffset: 0; stroke: #b0b0b0; stroke-opacity: 0.8; stroke-width: 0.8"/>
     </g>
     <g id="line2d_22">
      <g>
       <use xlink:href="#mb60aed276a" x="52.160938" y="174.739389" style="stroke: #000000; stroke-width: 0.8"/>
      </g>
     </g>
     <g id="text_12">
      <!-- −0.2 -->
      <g transform="translate(20.878125 178.538607) scale(0.1 -0.1)">
       <use xlink:href="#DejaVuSans-2212"/>
       <use xlink:href="#DejaVuSans-30" transform="translate(83.789062 0)"/>
       <use xlink:href="#DejaVuSans-2e" transform="translate(147.412109 0)"/>
       <use xlink:href="#DejaVuSans-32" transform="translate(179.199219 0)"/>
      </g>
     </g>
    </g>
    <g id="ytick_3">
     <g id="line2d_23">
      <path d="M 52.160938 131.23778 
L 568.8 131.23778 
" clip-path="url(#pc644380515)" style="fill: none; stroke-dasharray: 2.96,1.28; stroke-dashoffset: 0; stroke: #b0b0b0; stroke-opacity: 0.8; stroke-width: 0.8"/>
     </g>
     <g id="line2d_24">
      <g>
       <use xlink:href="#mb60aed276a" x="52.160938" y="131.23778" style="stroke: #000000; stroke-width: 0.8"/>
      </g>
     </g>
     <g id="text_13">
      <!-- 0.0 -->
      <g transform="translate(29.257812 135.036998) scale(0.1 -0.1)">
       <use xlink:href="#DejaVuSans-30"/>
       <use xlink:href="#DejaVuSans-2e" transform="translate(63.623047 0)"/>
       <use xlink:href="#DejaVuSans-30" transform="translate(95.410156 0)"/>
      </g>
     </g>
    </g>
    <g id="ytick_4">
     <g id="line2d_25">
      <path d="M 52.160938 87.73617 
L 568.8 87.73617 
" clip-path="url(#pc644380515)" style="fill: none; stroke-dasharray: 2.96,1.28; stroke-dashoffset: 0; stroke: #b0b0b0; stroke-opacity: 0.8; stroke-width: 0.8"/>
     </g>
     <g id="line2d_26">
      <g>
       <use xlink:href="#mb60aed276a" x="52.160938" y="87.73617" style="stroke: #000000; stroke-width: 0.8"/>
      </g>
     </g>
     <g id="text_14">
      <!-- 0.2 -->
      <g transform="translate(29.257812 91.535389) scale(0.1 -0.1)">
       <use xlink:href="#DejaVuSans-30"/>
       <use xlink:href="#DejaVuSans-2e" transform="translate(63.623047 0)"/>
       <use xlink:href="#DejaVuSans-32" transform="translate(95.410156 0)"/>
      </g>
     </g>
    </g>
    <g id="ytick_5">
     <g id="line2d_27">
      <path d="M 52.160938 44.234561 
L 568.8 44.234561 
" clip-path="url(#pc644380515)" style="fill: none; stroke-dasharray: 2.96,1.28; stroke-dashoffset: 0; stroke: #b0b0b0; stroke-opacity: 0.8; stroke-width: 0.8"/>
     </g>
     <g id="line2d_28">
      <g>
       <use xlink:href="#mb60aed276a" x="52.160938" y="44.234561" style="stroke: #000000; stroke-width: 0.8"/>
      </g>
     </g>
     <g id="text_15">
      <!-- 0.4 -->
      <g transform="translate(29.257812 48.03378) scale(0.1 -0.1)">
       <use xlink:href="#DejaVuSans-30"/>
       <use xlink:href="#DejaVuSans-2e" transform="translate(63.623047 0)"/>
       <use xlink:href="#DejaVuSans-34" transform="translate(95.410156 0)"/>
      </g>
     </g>
    </g>
    <g id="text_16">
     <!-- Amplitude -->
     <g transform="translate(14.798437 154.433594) rotate(-90) scale(0.1 -0.1)">
      <defs>
       <path id="DejaVuSans-41" d="M 2188 4044 
L 1331 1722 
L 3047 1722 
L 2188 4044 
z
M 1831 4666 
L 2547 4666 
L 4325 0 
L 3669 0 
L 3244 1197 
L 1141 1197 
L 716 0 
L 50 0 
L 1831 4666 
z
" transform="scale(0.015625)"/>
       <path id="DejaVuSans-69" d="M 603 3500 
L 1178 3500 
L 1178 0 
L 603 0 
L 603 3500 
z
M 603 4863 
L 1178 4863 
L 1178 4134 
L 603 4134 
L 603 4863 
z
" transform="scale(0.015625)"/>
       <path id="DejaVuSans-74" d="M 1172 4494 
L 1172 3500 
L 2356 3500 
L 2356 3053 
L 1172 3053 
L 1172 1153 
Q 1172 725 1289 603 
Q 1406 481 1766 481 
L 2356 481 
L 2356 0 
L 1766 0 
Q 1100 0 847 248 
Q 594 497 594 1153 
L 594 3053 
L 172 3053 
L 172 3500 
L 594 3500 
L 594 4494 
L 1172 4494 
z
" transform="scale(0.015625)"/>
       <path id="DejaVuSans-75" d="M 544 1381 
L 544 3500 
L 1119 3500 
L 1119 1403 
Q 1119 906 1312 657 
Q 1506 409 1894 409 
Q 2359 409 2629 706 
Q 2900 1003 2900 1516 
L 2900 3500 
L 3475 3500 
L 3475 0 
L 2900 0 
L 2900 538 
Q 2691 219 2414 64 
Q 2138 -91 1772 -91 
Q 1169 -91 856 284 
Q 544 659 544 1381 
z
M 1991 3584 
L 1991 3584 
z
" transform="scale(0.015625)"/>
       <path id="DejaVuSans-64" d="M 2906 2969 
L 2906 4863 
L 3481 4863 
L 3481 0 
L 2906 0 
L 2906 525 
Q 2725 213 2448 61 
Q 2172 -91 1784 -91 
Q 1150 -91 751 415 
Q 353 922 353 1747 
Q 353 2572 751 3078 
Q 1150 3584 1784 3584 
Q 2172 3584 2448 3432 
Q 2725 3281 2906 2969 
z
M 947 1747 
Q 947 1113 1208 752 
Q 1469 391 1925 391 
Q 2381 391 2643 752 
Q 2906 1113 2906 1747 
Q 2906 2381 2643 2742 
Q 2381 3103 1925 3103 
Q 1469 3103 1208 2742 
Q 947 2381 947 1747 
z
" transform="scale(0.015625)"/>
      </defs>
      <use xlink:href="#DejaVuSans-41"/>
      <use xlink:href="#DejaVuSans-6d" transform="translate(68.408203 0)"/>
      <use xlink:href="#DejaVuSans-70" transform="translate(165.820312 0)"/>
      <use xlink:href="#DejaVuSans-6c" transform="translate(229.296875 0)"/>
      <use xlink:href="#DejaVuSans-69" transform="translate(257.080078 0)"/>
      <use xlink:href="#DejaVuSans-74" transform="translate(284.863281 0)"/>
      <use xlink:href="#DejaVuSans-75" transform="translate(324.072266 0)"/>
      <use xlink:href="#DejaVuSans-64" transform="translate(387.451172 0)"/>
      <use xlink:href="#DejaVuSans-65" transform="translate(450.927734 0)"/>
     </g>
    </g>
   </g>
   <g id="line2d_29">
    <path d="M 75.644531 124.151322 
L 76.821654 127.726868 
L 77.998776 133.069101 
L 79.175899 128.881575 
L 80.353021 129.076262 
L 81.530144 129.008365 
L 82.707266 128.776502 
L 83.884389 125.681538 
L 85.061511 133.8887 
L 86.238634 130.625537 
L 87.415756 134.226617 
L 88.592879 138.842475 
L 89.770001 127.9391 
L 90.947124 131.9712 
L 92.124246 128.558963 
L 93.301369 135.118106 
L 94.478491 130.990559 
L 95.655614 131.018126 
L 96.832736 132.709613 
L 98.009859 133.884693 
L 99.186981 141.982579 
L 100.364104 138.222588 
L 101.541226 141.585887 
L 102.718349 134.613415 
L 103.895471 131.103049 
L 105.072594 132.159899 
L 106.249716 129.114832 
L 107.426839 131.276656 
L 108.603961 120.169337 
L 109.781084 125.842981 
L 110.958206 127.792905 
L 112.135329 122.627682 
L 113.312451 126.431123 
L 114.489574 126.665881 
L 116.843819 143.69152 
L 118.020941 142.664559 
L 119.198064 148.973586 
L 120.375186 150.785835 
L 121.552309 144.339815 
L 122.729431 136.488208 
L 125.083676 116.281202 
L 126.260798 102.947324 
L 127.437921 80.204553 
L 128.615043 69.230469 
L 129.792166 63.661486 
L 130.969288 62.738633 
L 132.146411 63.372252 
L 133.323533 85.318186 
L 134.500656 101.387737 
L 135.677778 119.985928 
L 136.854901 146.624121 
L 138.032023 159.51693 
L 139.209146 191.215295 
L 140.386268 204.402781 
L 141.563391 228.749131 
L 142.740513 220.763866 
L 143.917636 223.104957 
L 145.094758 210.127611 
L 146.271881 201.167395 
L 147.449003 198.3643 
L 148.626126 178.567945 
L 149.803248 177.054109 
L 150.980371 171.547131 
L 152.157493 179.764493 
L 153.334616 184.571264 
L 154.511738 202.574647 
L 156.865983 213.157306 
L 158.043106 228.70756 
L 159.220228 228.11551 
L 162.751596 195.456779 
L 163.928718 169.000182 
L 165.105841 146.34179 
L 166.282963 125.829611 
L 167.460086 95.051035 
L 168.637208 78.464898 
L 169.814331 72.370831 
L 170.991453 70.084702 
L 172.168576 65.899195 
L 173.345698 72.101877 
L 174.522821 88.1295 
L 175.699943 100.091292 
L 176.877066 110.691123 
L 178.054188 125.194437 
L 179.231311 137.393102 
L 180.408433 146.452072 
L 181.585556 139.15371 
L 182.762678 139.927328 
L 183.939801 133.235742 
L 185.116923 124.652944 
L 186.294046 103.096287 
L 187.471168 93.561769 
L 188.648291 78.633544 
L 189.825413 59.528734 
L 191.002536 46.64097 
L 192.179658 41.484596 
L 193.356781 31.422165 
L 194.533903 37.952502 
L 195.711026 38.915427 
L 196.888148 43.066802 
L 198.065271 55.170057 
L 199.242393 71.840836 
L 200.419516 83.334606 
L 201.596638 107.552483 
L 202.773761 122.147779 
L 203.950883 144.926474 
L 205.128006 159.909494 
L 206.305128 177.549132 
L 208.659373 195.336266 
L 209.836496 197.069493 
L 211.013618 193.275794 
L 212.190741 180.130263 
L 213.367863 170.12674 
L 215.722108 139.160204 
L 216.89923 123.71932 
L 218.076353 110.894821 
L 219.253475 103.463602 
L 220.430598 98.626624 
L 221.60772 95.956623 
L 222.784843 81.851411 
L 223.961965 81.352739 
L 225.139088 77.370629 
L 226.31621 81.031812 
L 227.493333 88.80925 
L 228.670455 88.752311 
L 229.847578 93.168999 
L 231.0247 102.460189 
L 232.201823 100.759832 
L 233.378945 111.971865 
L 234.556068 116.093891 
L 235.73319 127.038943 
L 236.910313 133.612659 
L 238.087435 141.535402 
L 239.264558 155.069403 
L 240.44168 166.502337 
L 241.618803 172.265295 
L 242.795925 181.482821 
L 243.973048 182.966457 
L 245.15017 187.104118 
L 246.327293 187.61364 
L 249.85866 169.082938 
L 251.035783 161.276286 
L 252.212905 147.232714 
L 253.390028 141.723277 
L 255.744273 118.884531 
L 256.921395 111.127322 
L 258.098518 98.185154 
L 259.27564 93.662386 
L 260.452763 90.121054 
L 261.629885 78.03003 
L 262.807008 84.25576 
L 263.98413 85.587368 
L 265.161253 77.304447 
L 266.338375 76.091189 
L 267.515498 87.851496 
L 268.69262 92.614693 
L 269.869743 104.315133 
L 271.046865 114.82932 
L 272.223988 119.022573 
L 273.40111 129.004158 
L 274.578233 141.880873 
L 276.932478 158.666474 
L 278.1096 172.173997 
L 279.286723 170.725328 
L 280.463845 187.539902 
L 281.640968 175.94124 
L 282.81809 187.04252 
L 283.995213 183.572378 
L 285.172335 184.393859 
L 286.349458 170.911021 
L 287.52658 172.718173 
L 288.703703 164.613592 
L 289.880825 152.92607 
L 291.057948 147.95863 
L 292.23507 131.137181 
L 294.589315 106.978828 
L 295.766438 99.753346 
L 296.94356 94.962702 
L 298.120683 83.067606 
L 299.297805 72.621857 
L 300.474928 77.966989 
L 301.65205 71.511962 
L 302.829173 87.488113 
L 304.006295 81.630739 
L 306.36054 100.14349 
L 308.714785 114.858618 
L 309.891908 123.386914 
L 311.06903 127.912113 
L 312.246152 139.964433 
L 313.423275 147.130074 
L 314.600397 160.729082 
L 315.77752 163.608971 
L 316.954642 179.438963 
L 318.131765 179.647821 
L 319.308887 180.966088 
L 320.48601 184.008498 
L 321.663132 188.531304 
L 322.840255 191.313943 
L 324.017377 199.90711 
L 325.1945 203.446174 
L 326.371622 196.638833 
L 327.548745 204.988471 
L 328.725867 205.167881 
L 329.90299 207.381736 
L 331.080112 217.18599 
L 332.257235 209.838309 
L 333.434357 208.134591 
L 334.61148 208.028122 
L 335.788602 201.903738 
L 336.965725 194.141919 
L 338.142847 187.237014 
L 339.31997 188.444828 
L 340.497092 179.86636 
L 341.674215 172.51267 
L 342.851337 167.607197 
L 344.02846 152.64736 
L 345.205582 154.654324 
L 346.382705 145.696992 
L 347.559827 132.338867 
L 348.73695 130.341427 
L 349.914072 127.866892 
L 351.091195 133.323928 
L 352.268317 134.627882 
L 353.44544 137.210593 
L 355.799685 164.82658 
L 356.976807 168.612517 
L 359.331052 199.139153 
L 360.508175 205.977975 
L 362.86242 232.945206 
L 364.039542 227.928081 
L 365.216665 221.641778 
L 366.393787 224.993648 
L 367.57091 211.956336 
L 368.748032 197.459566 
L 369.925155 180.60413 
L 371.102277 161.476512 
L 372.2794 132.19979 
L 374.633645 102.398916 
L 375.810767 81.417464 
L 376.98789 75.633206 
L 378.165012 69.062149 
L 379.342135 68.791587 
L 380.519257 66.55087 
L 381.69638 88.168939 
L 384.050625 99.789237 
L 385.227747 121.628108 
L 386.40487 140.168706 
L 387.581992 143.96164 
L 388.759115 159.409125 
L 389.936237 170.937777 
L 391.11336 172.241536 
L 392.290482 178.643867 
L 393.467605 176.545281 
L 394.644727 178.304048 
L 395.82185 182.6818 
L 396.998972 177.667566 
L 398.176095 176.826525 
L 399.353217 172.846301 
L 400.53034 172.42825 
L 401.707462 165.369247 
L 402.884585 153.368556 
L 404.061707 146.423858 
L 406.415952 121.138058 
L 407.593074 105.413834 
L 408.770197 98.086605 
L 409.947319 86.143633 
L 411.124442 77.382493 
L 412.301564 79.545797 
L 413.478687 68.019106 
L 414.655809 77.624062 
L 415.832932 81.675324 
L 417.010054 87.806556 
L 418.187177 100.354023 
L 419.364299 99.401705 
L 420.541422 112.944819 
L 421.718544 117.247106 
L 422.895667 124.301887 
L 424.072789 124.3433 
L 426.427034 128.466116 
L 427.604157 140.021691 
L 428.781279 127.832983 
L 429.958402 121.317273 
L 433.489769 86.530091 
L 434.666892 70.056573 
L 435.844014 48.254462 
L 437.021137 38.915863 
L 438.198259 25.957138 
L 439.375382 18.25554 
L 440.552504 21.060597 
L 441.729627 28.932073 
L 444.083872 61.697531 
L 447.615239 149.306472 
L 448.792362 170.895616 
L 449.969484 186.091881 
L 451.146607 194.836161 
L 452.323729 191.287697 
L 453.500852 184.083188 
L 454.677974 170.837041 
L 455.855097 142.959752 
L 457.032219 118.470826 
L 458.209342 91.484416 
L 460.563587 52.201008 
L 461.740709 52.803075 
L 462.917832 42.784052 
L 464.094954 51.152773 
L 465.272077 72.33589 
L 467.626322 128.15243 
L 469.980567 175.696654 
L 471.157689 193.71337 
L 472.334812 201.864544 
L 473.511934 207.649351 
L 474.689057 211.955389 
L 477.043302 181.177676 
L 478.220424 162.500395 
L 479.397547 149.122381 
L 480.574669 118.3136 
L 482.928914 93.049478 
L 484.106037 84.736241 
L 485.283159 77.770985 
L 486.460282 80.634228 
L 487.637404 76.34823 
L 488.814527 79.924358 
L 489.991649 85.735503 
L 491.168772 89.004216 
L 492.345894 90.424884 
L 493.523017 87.25581 
L 494.700139 96.333767 
L 495.877262 101.500089 
L 497.054384 114.626702 
L 499.408629 130.206919 
L 500.585751 135.004248 
L 501.762874 147.753482 
L 502.939996 157.88988 
L 504.117119 155.221734 
L 505.294241 172.780752 
L 506.471364 176.24255 
L 508.825609 188.533918 
L 510.002731 189.6812 
L 511.179854 196.4557 
L 512.356976 195.551212 
L 513.534099 192.446584 
L 514.711221 196.47059 
L 515.888344 199.201102 
L 517.065466 206.898876 
L 518.242589 204.838619 
L 519.419711 211.997017 
L 520.596834 210.24704 
L 521.773956 215.285646 
L 522.951079 210.958085 
L 524.128201 210.701682 
L 525.305324 209.624075 
L 526.482446 199.835731 
L 527.659569 185.564263 
L 528.836691 177.70214 
L 530.013814 163.631321 
L 531.190936 145.501642 
L 532.368059 137.735528 
L 533.545181 124.805323 
L 534.722304 129.333974 
L 535.899426 130.68384 
L 537.076549 128.795415 
L 538.253671 135.044901 
L 539.430794 140.026309 
L 540.607916 150.670535 
L 542.962161 184.388823 
L 544.139284 193.774183 
L 545.316406 193.595954 
L 545.316406 193.595954 
" clip-path="url(#pc644380515)" style="fill: none; stroke: #1f77b4; stroke-linecap: square"/>
   </g>
   <g id="line2d_30">
    <path d="M 75.644531 131.018914 
L 76.821654 129.629797 
L 77.998776 129.141618 
L 79.175899 127.482177 
L 80.353021 131.624162 
L 81.530144 129.616791 
L 82.707266 129.373916 
L 83.884389 122.880236 
L 85.061511 133.544968 
L 86.238634 131.598106 
L 87.415756 125.488867 
L 88.592879 129.177323 
L 89.770001 134.857756 
L 90.947124 138.460361 
L 92.124246 131.479856 
L 93.301369 132.387947 
L 94.478491 133.972235 
L 95.655614 135.978581 
L 96.832736 126.589675 
L 98.009859 121.775963 
L 99.186981 120.188273 
L 100.364104 114.723467 
L 101.541226 124.096366 
L 102.718349 123.672213 
L 103.895471 129.089718 
L 105.072594 132.277816 
L 107.426839 143.782173 
L 108.603961 152.600865 
L 109.781084 148.928249 
L 110.958206 154.716876 
L 112.135329 142.134144 
L 113.312451 141.926289 
L 114.489574 122.012249 
L 115.666696 114.599092 
L 116.843819 86.759063 
L 118.020941 69.653014 
L 119.198064 55.399239 
L 120.375186 46.918107 
L 121.552309 43.390445 
L 122.729431 46.438179 
L 123.906553 54.104391 
L 125.083676 72.640293 
L 126.260798 94.605497 
L 127.437921 124.204461 
L 128.615043 146.186166 
L 129.792166 174.311199 
L 130.969288 194.884219 
L 132.146411 201.584429 
L 133.323533 202.167578 
L 134.500656 196.011295 
L 135.677778 178.462952 
L 136.854901 170.226568 
L 138.032023 144.807183 
L 139.209146 131.248506 
L 140.386268 121.092069 
L 141.563391 120.521185 
L 142.740513 119.156597 
L 146.271881 158.081406 
L 147.449003 175.22286 
L 148.626126 184.148166 
L 149.803248 191.948139 
L 150.980371 196.138525 
L 152.157493 197.125787 
L 153.334616 187.35083 
L 155.688861 155.864603 
L 156.865983 147.645996 
L 158.043106 133.594763 
L 159.220228 122.064538 
L 160.397351 117.852793 
L 161.574473 122.088237 
L 162.751596 132.018873 
L 163.928718 145.192708 
L 165.105841 160.152624 
L 166.282963 177.207219 
L 167.460086 190.997596 
L 168.637208 198.246408 
L 169.814331 194.061057 
L 170.991453 189.24791 
L 172.168576 177.303882 
L 173.345698 148.72633 
L 174.522821 131.65202 
L 176.877066 79.153044 
L 178.054188 65.715253 
L 179.231311 47.170717 
L 180.408433 37.207923 
L 181.585556 29.974614 
L 182.762678 35.745351 
L 183.939801 35.694912 
L 185.116923 43.275923 
L 186.294046 53.52824 
L 187.471168 69.443565 
L 188.648291 93.265706 
L 189.825413 99.232957 
L 191.002536 104.356766 
L 192.179658 118.702202 
L 193.356781 118.016889 
L 194.533903 121.003661 
L 195.711026 124.9903 
L 196.888148 119.856139 
L 198.065271 109.91246 
L 199.242393 118.136739 
L 200.419516 120.888876 
L 201.596638 121.618224 
L 202.773761 118.595982 
L 203.950883 116.077821 
L 205.128006 108.142144 
L 206.305128 100.985545 
L 207.482251 82.601366 
L 209.836496 58.102164 
L 212.190741 29.807846 
L 213.367863 19.612976 
L 214.544986 23.737234 
L 215.722108 31.722368 
L 216.89923 45.618315 
L 218.076353 68.209521 
L 222.784843 166.225915 
L 223.961965 185.849336 
L 225.139088 195.018687 
L 226.31621 194.205579 
L 227.493333 187.441625 
L 228.670455 172.224889 
L 229.847578 141.847054 
L 231.0247 122.153992 
L 232.201823 94.554451 
L 233.378945 75.727383 
L 234.556068 49.300085 
L 235.73319 48.963917 
L 236.910313 43.693879 
L 238.087435 53.045061 
L 240.44168 87.902019 
L 241.618803 120.223587 
L 242.795925 141.636258 
L 243.973048 176.62194 
L 245.15017 190.309713 
L 246.327293 212.883028 
L 247.504415 219.612362 
L 248.681538 232.810336 
L 249.85866 222.83075 
L 251.035783 222.819713 
L 252.212905 215.574218 
L 253.390028 211.622143 
L 254.56715 196.570595 
L 255.744273 189.705248 
L 256.921395 185.419887 
L 258.098518 192.515011 
L 259.27564 181.989985 
L 260.452763 190.34603 
L 261.629885 194.614377 
L 262.807008 194.041393 
L 263.98413 199.637641 
L 265.161253 194.283729 
L 266.338375 191.483798 
L 267.515498 192.420394 
L 268.69262 186.86401 
L 269.869743 188.20013 
L 271.046865 188.229588 
L 272.223988 198.972655 
L 273.40111 200.363921 
L 274.578233 204.803616 
L 275.755355 211.759971 
L 276.932478 221.496884 
L 278.1096 227.435474 
L 279.286723 226.446045 
L 280.463845 220.683548 
L 281.640968 214.341633 
L 282.81809 196.562631 
L 285.172335 145.438577 
L 286.349458 121.683859 
L 288.703703 68.238506 
L 289.880825 49.627101 
L 292.23507 40.322932 
L 293.412193 50.324489 
L 294.589315 70.146595 
L 298.120683 147.110882 
L 300.474928 191.858395 
L 301.65205 191.956513 
L 302.829173 196.209536 
L 304.006295 188.090997 
L 306.36054 138.970991 
L 308.714785 81.266145 
L 309.891908 59.167899 
L 311.06903 40.993912 
L 312.246152 34.356798 
L 313.423275 26.18508 
L 314.600397 29.763689 
L 315.77752 39.955101 
L 316.954642 54.016389 
L 318.131765 56.713508 
L 319.308887 76.919109 
L 321.663132 98.051407 
L 322.840255 103.789952 
L 324.017377 101.167222 
L 325.1945 106.115187 
L 326.371622 102.678124 
L 327.548745 100.542427 
L 328.725867 115.334848 
L 329.90299 118.091017 
L 331.080112 128.15208 
L 332.257235 146.297999 
L 333.434357 157.762063 
L 334.61148 176.090627 
L 335.788602 183.82876 
L 336.965725 197.220071 
L 338.142847 197.818222 
L 339.31997 194.535228 
L 340.497092 181.452371 
L 341.674215 171.947712 
L 342.851337 140.796056 
L 344.02846 130.766104 
L 345.205582 102.079902 
L 346.382705 86.05617 
L 347.559827 64.734575 
L 348.73695 51.861221 
L 349.914072 45.388949 
L 351.091195 36.172575 
L 352.268317 34.753973 
L 353.44544 42.075975 
L 354.622562 50.771574 
L 355.799685 60.930534 
L 356.976807 66.135617 
L 359.331052 87.193847 
L 360.508175 106.558989 
L 361.685297 106.145016 
L 362.86242 113.877785 
L 364.039542 126.936885 
L 365.216665 125.685942 
L 366.393787 123.861021 
L 367.57091 132.673343 
L 368.748032 133.853328 
L 369.925155 132.952521 
L 371.102277 144.410232 
L 372.2794 152.345326 
L 373.456522 150.353424 
L 375.810767 172.742771 
L 376.98789 175.368257 
L 378.165012 196.953138 
L 379.342135 210.9326 
L 380.519257 216.964232 
L 381.69638 229.678276 
L 382.873502 239.366335 
L 384.050625 233.167104 
L 385.227747 224.441582 
L 386.40487 218.295778 
L 387.581992 195.697516 
L 388.759115 179.386424 
L 389.936237 151.425329 
L 391.11336 126.16031 
L 392.290482 97.966339 
L 394.644727 66.300563 
L 395.82185 71.525376 
L 396.998972 67.900953 
L 398.176095 85.788513 
L 399.353217 108.724578 
L 400.53034 137.983092 
L 401.707462 154.459212 
L 402.884585 184.159225 
L 404.061707 200.916108 
L 405.238829 225.491162 
L 406.415952 224.327706 
L 407.593074 227.117768 
L 408.770197 217.927328 
L 409.947319 203.304002 
L 412.301564 192.000731 
L 413.478687 176.609713 
L 414.655809 174.990943 
L 415.832932 176.15303 
L 417.010054 182.365487 
L 418.187177 191.776761 
L 419.364299 196.974125 
L 420.541422 202.951216 
L 421.718544 216.079767 
L 422.895667 227.388351 
L 424.072789 212.145191 
L 425.249912 211.923451 
L 426.427034 199.398686 
L 427.604157 173.478595 
L 428.781279 143.281215 
L 429.958402 117.828128 
L 431.135524 105.005129 
L 432.312647 83.382079 
L 433.489769 66.104325 
L 434.666892 62.551028 
L 437.021137 66.442728 
L 438.198259 77.686191 
L 439.375382 94.081747 
L 440.552504 100.042408 
L 441.729627 135.275059 
L 442.906749 129.217001 
L 445.260994 164.38865 
L 446.438117 168.340923 
L 447.615239 169.040672 
L 448.792362 178.013196 
L 449.969484 173.753533 
L 451.146607 173.88988 
L 452.323729 173.201002 
L 453.500852 178.284571 
L 454.677974 180.333342 
L 455.855097 174.152711 
L 457.032219 174.888992 
L 458.209342 165.577344 
L 460.563587 138.676467 
L 461.740709 135.955024 
L 462.917832 123.087356 
L 464.094954 112.757662 
L 466.449199 78.934171 
L 467.626322 77.44336 
L 468.803444 67.689537 
L 469.980567 71.294478 
L 471.157689 82.808049 
L 472.334812 88.211652 
L 473.511934 103.623093 
L 474.689057 121.963369 
L 475.866179 132.732186 
L 477.043302 161.224794 
L 480.574669 206.999875 
L 481.751792 217.999632 
L 482.928914 230.395057 
L 484.106037 238.997146 
L 485.283159 236.935323 
L 486.460282 225.905973 
L 487.637404 217.927562 
L 488.814527 201.297935 
L 489.991649 190.549606 
L 492.345894 145.899322 
L 493.523017 119.111306 
L 494.700139 108.403678 
L 497.054384 76.453635 
L 499.408629 51.859243 
L 500.585751 49.164889 
L 501.762874 51.372203 
L 502.939996 45.783913 
L 504.117119 47.456053 
L 505.294241 50.099716 
L 507.648486 71.513394 
L 508.825609 82.800392 
L 510.002731 81.097015 
L 512.356976 104.738962 
L 513.534099 108.689097 
L 514.711221 110.931509 
L 515.888344 122.449869 
L 517.065466 119.622644 
L 518.242589 125.299201 
L 519.419711 132.58453 
L 520.596834 149.409118 
L 521.773956 154.374111 
L 522.951079 163.803767 
L 524.128201 171.036018 
L 525.305324 172.414825 
L 526.482446 184.151489 
L 527.659569 189.058534 
L 528.836691 199.422991 
L 530.013814 199.433744 
L 531.190936 199.868007 
L 532.368059 200.472476 
L 533.545181 194.60285 
L 534.722304 195.69417 
L 535.899426 199.827449 
L 537.076549 204.85534 
L 538.253671 205.126097 
L 539.430794 202.530978 
L 540.607916 206.540744 
L 541.785039 210.985415 
L 542.962161 213.407121 
L 544.139284 207.663381 
L 545.316406 209.631234 
L 545.316406 209.631234 
" clip-path="url(#pc644380515)" style="fill: none; stroke: #ff7f0e; stroke-linecap: square"/>
   </g>
   <g id="patch_3">
    <path d="M 52.160938 250.421875 
L 52.160938 7.2 
" style="fill: none; stroke: #000000; stroke-width: 0.8; stroke-linejoin: miter; stroke-linecap: square"/>
   </g>
   <g id="patch_4">
    <path d="M 568.8 250.421875 
L 568.8 7.2 
" style="fill: none; stroke: #000000; stroke-width: 0.8; stroke-linejoin: miter; stroke-linecap: square"/>
   </g>
   <g id="patch_5">
    <path d="M 52.160937 250.421875 
L 568.8 250.421875 
" style="fill: none; stroke: #000000; stroke-width: 0.8; stroke-linejoin: miter; stroke-linecap: square"/>
   </g>
   <g id="patch_6">
    <path d="M 52.160937 7.2 
L 568.8 7.2 
" style="fill: none; stroke: #000000; stroke-width: 0.8; stroke-linejoin: miter; stroke-linecap: square"/>
   </g>
   <g id="legend_1">
    <g id="patch_7">
     <path d="M 504.804688 44.55625 
L 561.8 44.55625 
Q 563.8 44.55625 563.8 42.55625 
L 563.8 14.2 
Q 563.8 12.2 561.8 12.2 
L 504.804688 12.2 
Q 502.804688 12.2 502.804688 14.2 
L 502.804688 42.55625 
Q 502.804688 44.55625 504.804688 44.55625 
z
" style="fill: #ffffff; opacity: 0.8; stroke: #cccccc; stroke-linejoin: miter"/>
    </g>
    <g id="line2d_31">
     <path d="M 506.804688 20.298437 
L 516.804688 20.298437 
L 526.804688 20.298437 
" style="fill: none; stroke: #1f77b4; stroke-linecap: square"/>
    </g>
    <g id="text_17">
     <!-- real -->
     <g transform="translate(534.804688 23.798437) scale(0.1 -0.1)">
      <defs>
       <path id="DejaVuSans-72" d="M 2631 2963 
Q 2534 3019 2420 3045 
Q 2306 3072 2169 3072 
Q 1681 3072 1420 2755 
Q 1159 2438 1159 1844 
L 1159 0 
L 581 0 
L 581 3500 
L 1159 3500 
L 1159 2956 
Q 1341 3275 1631 3429 
Q 1922 3584 2338 3584 
Q 2397 3584 2469 3576 
Q 2541 3569 2628 3553 
L 2631 2963 
z
" transform="scale(0.015625)"/>
      </defs>
      <use xlink:href="#DejaVuSans-72"/>
      <use xlink:href="#DejaVuSans-65" transform="translate(38.863281 0)"/>
      <use xlink:href="#DejaVuSans-61" transform="translate(100.386719 0)"/>
      <use xlink:href="#DejaVuSans-6c" transform="translate(161.666016 0)"/>
     </g>
    </g>
    <g id="line2d_32">
     <path d="M 506.804688 34.976562 
L 516.804688 34.976562 
L 526.804688 34.976562 
" style="fill: none; stroke: #ff7f0e; stroke-linecap: square"/>
    </g>
    <g id="text_18">
     <!-- imag -->
     <g transform="translate(534.804688 38.476562) scale(0.1 -0.1)">
      <defs>
       <path id="DejaVuSans-67" d="M 2906 1791 
Q 2906 2416 2648 2759 
Q 2391 3103 1925 3103 
Q 1463 3103 1205 2759 
Q 947 2416 947 1791 
Q 947 1169 1205 825 
Q 1463 481 1925 481 
Q 2391 481 2648 825 
Q 2906 1169 2906 1791 
z
M 3481 434 
Q 3481 -459 3084 -895 
Q 2688 -1331 1869 -1331 
Q 1566 -1331 1297 -1286 
Q 1028 -1241 775 -1147 
L 775 -588 
Q 1028 -725 1275 -790 
Q 1522 -856 1778 -856 
Q 2344 -856 2625 -561 
Q 2906 -266 2906 331 
L 2906 616 
Q 2728 306 2450 153 
Q 2172 0 1784 0 
Q 1141 0 747 490 
Q 353 981 353 1791 
Q 353 2603 747 3093 
Q 1141 3584 1784 3584 
Q 2172 3584 2450 3431 
Q 2728 3278 2906 2969 
L 2906 3500 
L 3481 3500 
L 3481 434 
z
" transform="scale(0.015625)"/>
      </defs>
      <use xlink:href="#DejaVuSans-69"/>
      <use xlink:href="#DejaVuSans-6d" transform="translate(27.783203 0)"/>
      <use xlink:href="#DejaVuSans-61" transform="translate(125.195312 0)"/>
      <use xlink:href="#DejaVuSans-67" transform="translate(186.474609 0)"/>
     </g>
    </g>
   </g>
  </g>
 </g>
 <defs>
  <clipPath id="pc644380515">
   <rect x="52.160938" y="7.2" width="516.639063" height="243.221875"/>
  </clipPath>
 </defs>
</svg>
