<?xml version="1.0" encoding="utf-8" standalone="no"?>
<!DOCTYPE svg PUBLIC "-//W3C//DTD SVG 1.1//EN"
  "http://www.w3.org/Graphics/SVG/1.1/DTD/svg11.dtd">
<svg xmlns:xlink="http://www.w3.org/1999/xlink" width="576pt" height="288pt" viewBox="0 0 576 288" xmlns="http://www.w3.org/2000/svg" version="1.1">
 <metadata>
  <rdf:RDF xmlns:dc="http://purl.org/dc/elements/1.1/" xmlns:cc="http://creativecommons.org/ns#" xmlns:rdf="http://www.w3.org/1999/02/22-rdf-syntax-ns#">
   <cc:Work>
    <dc:type rdf:resource="http://purl.org/dc/dcmitype/StillImage"/>
    <dc:date>2025-11-10T13:31:13.633538</dc:date>
    <dc:format>image/svg+xml</dc:format>
    <dc:creator>
     <cc:Agent>
      <dc:title>Matplotlib v3.10.7, https://matplotlib.org/</dc:title>
     </cc:Agent>
    </dc:creator>
   </cc:Work>
  </rdf:RDF>
 </metadata>
 <defs>
  <style type="text/css">*{stroke-linejoin: round; stroke-linecap: butt}</style>
 </defs>
 <g id="figure_1">
  <g id="patch_1">
   <path d="M 0 288 
L 576 288 
L 576 0 
L 0 0 
z
" style="fill: #ffffff"/>
  </g>
  <g id="axes_1">
   <g id="patch_2">
    <path d="M 48.982813 250.421875 
L 568.8 250.421875 
L 568.8 22.32 
L 48.982813 22.32 
z
" style="fill: #ffffff"/>
   </g>
   <g id="matplotlib.axis_1">
    <g id="xtick_1">
     <g id="line2d_1">
      <path d="M 119.89006 250.421875 
L 119.89006 22.32 
" clip-path="url(#pb9aff404f1)" style="fill: none; stroke-dasharray: 2.96,1.28; stroke-dashoffset: 0; stroke: #b0b0b0; stroke-opacity: 0.8; stroke-width: 0.8"/>
     </g>
     <g id="line2d_2">
      <defs>
       <path id="m5241067a75" d="M 0 0 
L 0 3.5 
" style="stroke: #000000; stroke-width: 0.8"/>
      </defs>
      <g>
       <use xlink:href="#m5241067a75" x="119.89006" y="250.421875" style="stroke: #000000; stroke-width: 0.8"/>
      </g>
     </g>
     <g id="text_1">
      <!-- -200 -->
      <g transform="translate(108.542404 265.020312) scale(0.1 -0.1)">
       <defs>
        <path id="DejaVuSans-2d" d="M 313 2009 
L 1997 2009 
L 1997 1497 
L 313 1497 
L 313 2009 
z
" transform="scale(0.015625)"/>
        <path id="DejaVuSans-32" d="M 1228 531 
L 3431 531 
L 3431 0 
L 469 0 
L 469 531 
Q 828 903 1448 1529 
Q 2069 2156 2228 2338 
Q 2531 2678 2651 2914 
Q 2772 3150 2772 3378 
Q 2772 3750 2511 3984 
Q 2250 4219 1831 4219 
Q 1534 4219 1204 4116 
Q 875 4013 500 3803 
L 500 4441 
Q 881 4594 1212 4672 
Q 1544 4750 1819 4750 
Q 2544 4750 2975 4387 
Q 3406 4025 3406 3419 
Q 3406 3131 3298 2873 
Q 3191 2616 2906 2266 
Q 2828 2175 2409 1742 
Q 1991 1309 1228 531 
z
" transform="scale(0.015625)"/>
        <path id="DejaVuSans-30" d="M 2034 4250 
Q 1547 4250 1301 3770 
Q 1056 3291 1056 2328 
Q 1056 1369 1301 889 
Q 1547 409 2034 409 
Q 2525 409 2770 889 
Q 3016 1369 3016 2328 
Q 3016 3291 2770 3770 
Q 2525 4250 2034 4250 
z
M 2034 4750 
Q 2819 4750 3233 4129 
Q 3647 3509 3647 2328 
Q 3647 1150 3233 529 
Q 2819 -91 2034 -91 
Q 1250 -91 836 529 
Q 422 1150 422 2328 
Q 422 3509 836 4129 
Q 1250 4750 2034 4750 
z
" transform="scale(0.015625)"/>
       </defs>
       <use xlink:href="#DejaVuSans-2d"/>
       <use xlink:href="#DejaVuSans-32" transform="translate(36.083984 0)"/>
       <use xlink:href="#DejaVuSans-30" transform="translate(99.707031 0)"/>
       <use xlink:href="#DejaVuSans-30" transform="translate(163.330078 0)"/>
      </g>
     </g>
    </g>
    <g id="xtick_2">
     <g id="line2d_3">
      <path d="M 214.448447 250.421875 
L 214.448447 22.32 
" clip-path="url(#pb9aff404f1)" style="fill: none; stroke-dasharray: 2.96,1.28; stroke-dashoffset: 0; stroke: #b0b0b0; stroke-opacity: 0.8; stroke-width: 0.8"/>
     </g>
     <g id="line2d_4">
      <g>
       <use xlink:href="#m5241067a75" x="214.448447" y="250.421875" style="stroke: #000000; stroke-width: 0.8"/>
      </g>
     </g>
     <g id="text_2">
      <!-- -100 -->
      <g transform="translate(203.100791 265.020312) scale(0.1 -0.1)">
       <defs>
        <path id="DejaVuSans-31" d="M 794 531 
L 1825 531 
L 1825 4091 
L 703 3866 
L 703 4441 
L 1819 4666 
L 2450 4666 
L 2450 531 
L 3481 531 
L 3481 0 
L 794 0 
L 794 531 
z
" transform="scale(0.015625)"/>
       </defs>
       <use xlink:href="#DejaVuSans-2d"/>
       <use xlink:href="#DejaVuSans-31" transform="translate(36.083984 0)"/>
       <use xlink:href="#DejaVuSans-30" transform="translate(99.707031 0)"/>
       <use xlink:href="#DejaVuSans-30" transform="translate(163.330078 0)"/>
      </g>
     </g>
    </g>
    <g id="xtick_3">
     <g id="line2d_5">
      <path d="M 309.006834 250.421875 
L 309.006834 22.32 
" clip-path="url(#pb9aff404f1)" style="fill: none; stroke-dasharray: 2.96,1.28; stroke-dashoffset: 0; stroke: #b0b0b0; stroke-opacity: 0.8; stroke-width: 0.8"/>
     </g>
     <g id="line2d_6">
      <g>
       <use xlink:href="#m5241067a75" x="309.006834" y="250.421875" style="stroke: #000000; stroke-width: 0.8"/>
      </g>
     </g>
     <g id="text_3">
      <!-- 0 -->
      <g transform="translate(305.825584 265.020312) scale(0.1 -0.1)">
       <use xlink:href="#DejaVuSans-30"/>
      </g>
     </g>
    </g>
    <g id="xtick_4">
     <g id="line2d_7">
      <path d="M 403.565221 250.421875 
L 403.565221 22.32 
" clip-path="url(#pb9aff404f1)" style="fill: none; stroke-dasharray: 2.96,1.28; stroke-dashoffset: 0; stroke: #b0b0b0; stroke-opacity: 0.8; stroke-width: 0.8"/>
     </g>
     <g id="line2d_8">
      <g>
       <use xlink:href="#m5241067a75" x="403.565221" y="250.421875" style="stroke: #000000; stroke-width: 0.8"/>
      </g>
     </g>
     <g id="text_4">
      <!-- 100 -->
      <g transform="translate(394.021471 265.020312) scale(0.1 -0.1)">
       <use xlink:href="#DejaVuSans-31"/>
       <use xlink:href="#DejaVuSans-30" transform="translate(63.623047 0)"/>
       <use xlink:href="#DejaVuSans-30" transform="translate(127.246094 0)"/>
      </g>
     </g>
    </g>
    <g id="xtick_5">
     <g id="line2d_9">
      <path d="M 498.123608 250.421875 
L 498.123608 22.32 
" clip-path="url(#pb9aff404f1)" style="fill: none; stroke-dasharray: 2.96,1.28; stroke-dashoffset: 0; stroke: #b0b0b0; stroke-opacity: 0.8; stroke-width: 0.8"/>
     </g>
     <g id="line2d_10">
      <g>
       <use xlink:href="#m5241067a75" x="498.123608" y="250.421875" style="stroke: #000000; stroke-width: 0.8"/>
      </g>
     </g>
     <g id="text_5">
      <!-- 200 -->
      <g transform="translate(488.579858 265.020312) scale(0.1 -0.1)">
       <use xlink:href="#DejaVuSans-32"/>
       <use xlink:href="#DejaVuSans-30" transform="translate(63.623047 0)"/>
       <use xlink:href="#DejaVuSans-30" transform="translate(127.246094 0)"/>
      </g>
     </g>
    </g>
    <g id="text_6">
     <!-- Frequency (Hz), $f$ -->
     <g transform="translate(265.741406 278.7) scale(0.1 -0.1)">
      <defs>
       <path id="DejaVuSans-46" d="M 628 4666 
L 3309 4666 
L 3309 4134 
L 1259 4134 
L 1259 2759 
L 3109 2759 
L 3109 2228 
L 1259 2228 
L 1259 0 
L 628 0 
L 628 4666 
z
" transform="scale(0.015625)"/>
       <path id="DejaVuSans-72" d="M 2631 2963 
Q 2534 3019 2420 3045 
Q 2306 3072 2169 3072 
Q 1681 3072 1420 2755 
Q 1159 2438 1159 1844 
L 1159 0 
L 581 0 
L 581 3500 
L 1159 3500 
L 1159 2956 
Q 1341 3275 1631 3429 
Q 1922 3584 2338 3584 
Q 2397 3584 2469 3576 
Q 2541 3569 2628 3553 
L 2631 2963 
z
" transform="scale(0.015625)"/>
       <path id="DejaVuSans-65" d="M 3597 1894 
L 3597 1613 
L 953 1613 
Q 991 1019 1311 708 
Q 1631 397 2203 397 
Q 2534 397 2845 478 
Q 3156 559 3463 722 
L 3463 178 
Q 3153 47 2828 -22 
Q 2503 -91 2169 -91 
Q 1331 -91 842 396 
Q 353 884 353 1716 
Q 353 2575 817 3079 
Q 1281 3584 2069 3584 
Q 2775 3584 3186 3129 
Q 3597 2675 3597 1894 
z
M 3022 2063 
Q 3016 2534 2758 2815 
Q 2500 3097 2075 3097 
Q 1594 3097 1305 2825 
Q 1016 2553 972 2059 
L 3022 2063 
z
" transform="scale(0.015625)"/>
       <path id="DejaVuSans-71" d="M 947 1747 
Q 947 1113 1208 752 
Q 1469 391 1925 391 
Q 2381 391 2643 752 
Q 2906 1113 2906 1747 
Q 2906 2381 2643 2742 
Q 2381 3103 1925 3103 
Q 1469 3103 1208 2742 
Q 947 2381 947 1747 
z
M 2906 525 
Q 2725 213 2448 61 
Q 2172 -91 1784 -91 
Q 1150 -91 751 415 
Q 353 922 353 1747 
Q 353 2572 751 3078 
Q 1150 3584 1784 3584 
Q 2172 3584 2448 3432 
Q 2725 3281 2906 2969 
L 2906 3500 
L 3481 3500 
L 3481 -1331 
L 2906 -1331 
L 2906 525 
z
" transform="scale(0.015625)"/>
       <path id="DejaVuSans-75" d="M 544 1381 
L 544 3500 
L 1119 3500 
L 1119 1403 
Q 1119 906 1312 657 
Q 1506 409 1894 409 
Q 2359 409 2629 706 
Q 2900 1003 2900 1516 
L 2900 3500 
L 3475 3500 
L 3475 0 
L 2900 0 
L 2900 538 
Q 2691 219 2414 64 
Q 2138 -91 1772 -91 
Q 1169 -91 856 284 
Q 544 659 544 1381 
z
M 1991 3584 
L 1991 3584 
z
" transform="scale(0.015625)"/>
       <path id="DejaVuSans-6e" d="M 3513 2113 
L 3513 0 
L 2938 0 
L 2938 2094 
Q 2938 2591 2744 2837 
Q 2550 3084 2163 3084 
Q 1697 3084 1428 2787 
Q 1159 2491 1159 1978 
L 1159 0 
L 581 0 
L 581 3500 
L 1159 3500 
L 1159 2956 
Q 1366 3272 1645 3428 
Q 1925 3584 2291 3584 
Q 2894 3584 3203 3211 
Q 3513 2838 3513 2113 
z
" transform="scale(0.015625)"/>
       <path id="DejaVuSans-63" d="M 3122 3366 
L 3122 2828 
Q 2878 2963 2633 3030 
Q 2388 3097 2138 3097 
Q 1578 3097 1268 2742 
Q 959 2388 959 1747 
Q 959 1106 1268 751 
Q 1578 397 2138 397 
Q 2388 397 2633 464 
Q 2878 531 3122 666 
L 3122 134 
Q 2881 22 2623 -34 
Q 2366 -91 2075 -91 
Q 1284 -91 818 406 
Q 353 903 353 1747 
Q 353 2603 823 3093 
Q 1294 3584 2113 3584 
Q 2378 3584 2631 3529 
Q 2884 3475 3122 3366 
z
" transform="scale(0.015625)"/>
       <path id="DejaVuSans-79" d="M 2059 -325 
Q 1816 -950 1584 -1140 
Q 1353 -1331 966 -1331 
L 506 -1331 
L 506 -850 
L 844 -850 
Q 1081 -850 1212 -737 
Q 1344 -625 1503 -206 
L 1606 56 
L 191 3500 
L 800 3500 
L 1894 763 
L 2988 3500 
L 3597 3500 
L 2059 -325 
z
" transform="scale(0.015625)"/>
       <path id="DejaVuSans-20" transform="scale(0.015625)"/>
       <path id="DejaVuSans-28" d="M 1984 4856 
Q 1566 4138 1362 3434 
Q 1159 2731 1159 2009 
Q 1159 1288 1364 580 
Q 1569 -128 1984 -844 
L 1484 -844 
Q 1016 -109 783 600 
Q 550 1309 550 2009 
Q 550 2706 781 3412 
Q 1013 4119 1484 4856 
L 1984 4856 
z
" transform="scale(0.015625)"/>
       <path id="DejaVuSans-48" d="M 628 4666 
L 1259 4666 
L 1259 2753 
L 3553 2753 
L 3553 4666 
L 4184 4666 
L 4184 0 
L 3553 0 
L 3553 2222 
L 1259 2222 
L 1259 0 
L 628 0 
L 628 4666 
z
" transform="scale(0.015625)"/>
       <path id="DejaVuSans-7a" d="M 353 3500 
L 3084 3500 
L 3084 2975 
L 922 459 
L 3084 459 
L 3084 0 
L 275 0 
L 275 525 
L 2438 3041 
L 353 3041 
L 353 3500 
z
" transform="scale(0.015625)"/>
       <path id="DejaVuSans-29" d="M 513 4856 
L 1013 4856 
Q 1481 4119 1714 3412 
Q 1947 2706 1947 2009 
Q 1947 1309 1714 600 
Q 1481 -109 1013 -844 
L 513 -844 
Q 928 -128 1133 580 
Q 1338 1288 1338 2009 
Q 1338 2731 1133 3434 
Q 928 4138 513 4856 
z
" transform="scale(0.015625)"/>
       <path id="DejaVuSans-2c" d="M 750 794 
L 1409 794 
L 1409 256 
L 897 -744 
L 494 -744 
L 750 256 
L 750 794 
z
" transform="scale(0.015625)"/>
       <path id="DejaVuSans-Oblique-66" d="M 3059 4863 
L 2969 4384 
L 2419 4384 
Q 2106 4384 1964 4261 
Q 1822 4138 1753 3809 
L 1691 3500 
L 2638 3500 
L 2553 3053 
L 1606 3053 
L 1013 0 
L 434 0 
L 1031 3053 
L 481 3053 
L 563 3500 
L 1113 3500 
L 1159 3744 
Q 1278 4363 1576 4613 
Q 1875 4863 2516 4863 
L 3059 4863 
z
" transform="scale(0.015625)"/>
      </defs>
      <use xlink:href="#DejaVuSans-46" transform="translate(0 0.015625)"/>
      <use xlink:href="#DejaVuSans-72" transform="translate(57.519531 0.015625)"/>
      <use xlink:href="#DejaVuSans-65" transform="translate(98.632812 0.015625)"/>
      <use xlink:href="#DejaVuSans-71" transform="translate(160.15625 0.015625)"/>
      <use xlink:href="#DejaVuSans-75" transform="translate(223.632812 0.015625)"/>
      <use xlink:href="#DejaVuSans-65" transform="translate(287.011719 0.015625)"/>
      <use xlink:href="#DejaVuSans-6e" transform="translate(348.535156 0.015625)"/>
      <use xlink:href="#DejaVuSans-63" transform="translate(411.914062 0.015625)"/>
      <use xlink:href="#DejaVuSans-79" transform="translate(466.894531 0.015625)"/>
      <use xlink:href="#DejaVuSans-20" transform="translate(526.074219 0.015625)"/>
      <use xlink:href="#DejaVuSans-28" transform="translate(557.861328 0.015625)"/>
      <use xlink:href="#DejaVuSans-48" transform="translate(596.875 0.015625)"/>
      <use xlink:href="#DejaVuSans-7a" transform="translate(672.070312 0.015625)"/>
      <use xlink:href="#DejaVuSans-29" transform="translate(724.560547 0.015625)"/>
      <use xlink:href="#DejaVuSans-2c" transform="translate(763.574219 0.015625)"/>
      <use xlink:href="#DejaVuSans-20" transform="translate(795.361328 0.015625)"/>
      <use xlink:href="#DejaVuSans-Oblique-66" transform="translate(827.148438 0.015625)"/>
     </g>
    </g>
   </g>
   <g id="matplotlib.axis_2">
    <g id="ytick_1">
     <g id="line2d_11">
      <path d="M 48.982813 229.60036 
L 568.8 229.60036 
" clip-path="url(#pb9aff404f1)" style="fill: none; stroke-dasharray: 2.96,1.28; stroke-dashoffset: 0; stroke: #b0b0b0; stroke-opacity: 0.8; stroke-width: 0.8"/>
     </g>
     <g id="line2d_12">
      <defs>
       <path id="m27a5da8977" d="M 0 0 
L -3.5 0 
" style="stroke: #000000; stroke-width: 0.8"/>
      </defs>
      <g>
       <use xlink:href="#m27a5da8977" x="48.982813" y="229.60036" style="stroke: #000000; stroke-width: 0.8"/>
      </g>
     </g>
     <g id="text_7">
      <!-- −70 -->
      <g transform="translate(20.878125 233.399579) scale(0.1 -0.1)">
       <defs>
        <path id="DejaVuSans-2212" d="M 678 2272 
L 4684 2272 
L 4684 1741 
L 678 1741 
L 678 2272 
z
" transform="scale(0.015625)"/>
        <path id="DejaVuSans-37" d="M 525 4666 
L 3525 4666 
L 3525 4397 
L 1831 0 
L 1172 0 
L 2766 4134 
L 525 4134 
L 525 4666 
z
" transform="scale(0.015625)"/>
       </defs>
       <use xlink:href="#DejaVuSans-2212"/>
       <use xlink:href="#DejaVuSans-37" transform="translate(83.789062 0)"/>
       <use xlink:href="#DejaVuSans-30" transform="translate(147.412109 0)"/>
      </g>
     </g>
    </g>
    <g id="ytick_2">
     <g id="line2d_13">
      <path d="M 48.982813 199.452348 
L 568.8 199.452348 
" clip-path="url(#pb9aff404f1)" style="fill: none; stroke-dasharray: 2.96,1.28; stroke-dashoffset: 0; stroke: #b0b0b0; stroke-opacity: 0.8; stroke-width: 0.8"/>
     </g>
     <g id="line2d_14">
      <g>
       <use xlink:href="#m27a5da8977" x="48.982813" y="199.452348" style="stroke: #000000; stroke-width: 0.8"/>
      </g>
     </g>
     <g id="text_8">
      <!-- −60 -->
      <g transform="translate(20.878125 203.251567) scale(0.1 -0.1)">
       <defs>
        <path id="DejaVuSans-36" d="M 2113 2584 
Q 1688 2584 1439 2293 
Q 1191 2003 1191 1497 
Q 1191 994 1439 701 
Q 1688 409 2113 409 
Q 2538 409 2786 701 
Q 3034 994 3034 1497 
Q 3034 2003 2786 2293 
Q 2538 2584 2113 2584 
z
M 3366 4563 
L 3366 3988 
Q 3128 4100 2886 4159 
Q 2644 4219 2406 4219 
Q 1781 4219 1451 3797 
Q 1122 3375 1075 2522 
Q 1259 2794 1537 2939 
Q 1816 3084 2150 3084 
Q 2853 3084 3261 2657 
Q 3669 2231 3669 1497 
Q 3669 778 3244 343 
Q 2819 -91 2113 -91 
Q 1303 -91 875 529 
Q 447 1150 447 2328 
Q 447 3434 972 4092 
Q 1497 4750 2381 4750 
Q 2619 4750 2861 4703 
Q 3103 4656 3366 4563 
z
" transform="scale(0.015625)"/>
       </defs>
       <use xlink:href="#DejaVuSans-2212"/>
       <use xlink:href="#DejaVuSans-36" transform="translate(83.789062 0)"/>
       <use xlink:href="#DejaVuSans-30" transform="translate(147.412109 0)"/>
      </g>
     </g>
    </g>
    <g id="ytick_3">
     <g id="line2d_15">
      <path d="M 48.982813 169.304337 
L 568.8 169.304337 
" clip-path="url(#pb9aff404f1)" style="fill: none; stroke-dasharray: 2.96,1.28; stroke-dashoffset: 0; stroke: #b0b0b0; stroke-opacity: 0.8; stroke-width: 0.8"/>
     </g>
     <g id="line2d_16">
      <g>
       <use xlink:href="#m27a5da8977" x="48.982813" y="169.304337" style="stroke: #000000; stroke-width: 0.8"/>
      </g>
     </g>
     <g id="text_9">
      <!-- −50 -->
      <g transform="translate(20.878125 173.103555) scale(0.1 -0.1)">
       <defs>
        <path id="DejaVuSans-35" d="M 691 4666 
L 3169 4666 
L 3169 4134 
L 1269 4134 
L 1269 2991 
Q 1406 3038 1543 3061 
Q 1681 3084 1819 3084 
Q 2600 3084 3056 2656 
Q 3513 2228 3513 1497 
Q 3513 744 3044 326 
Q 2575 -91 1722 -91 
Q 1428 -91 1123 -41 
Q 819 9 494 109 
L 494 744 
Q 775 591 1075 516 
Q 1375 441 1709 441 
Q 2250 441 2565 725 
Q 2881 1009 2881 1497 
Q 2881 1984 2565 2268 
Q 2250 2553 1709 2553 
Q 1456 2553 1204 2497 
Q 953 2441 691 2322 
L 691 4666 
z
" transform="scale(0.015625)"/>
       </defs>
       <use xlink:href="#DejaVuSans-2212"/>
       <use xlink:href="#DejaVuSans-35" transform="translate(83.789062 0)"/>
       <use xlink:href="#DejaVuSans-30" transform="translate(147.412109 0)"/>
      </g>
     </g>
    </g>
    <g id="ytick_4">
     <g id="line2d_17">
      <path d="M 48.982813 139.156325 
L 568.8 139.156325 
" clip-path="url(#pb9aff404f1)" style="fill: none; stroke-dasharray: 2.96,1.28; stroke-dashoffset: 0; stroke: #b0b0b0; stroke-opacity: 0.8; stroke-width: 0.8"/>
     </g>
     <g id="line2d_18">
      <g>
       <use xlink:href="#m27a5da8977" x="48.982813" y="139.156325" style="stroke: #000000; stroke-width: 0.8"/>
      </g>
     </g>
     <g id="text_10">
      <!-- −40 -->
      <g transform="translate(20.878125 142.955544) scale(0.1 -0.1)">
       <defs>
        <path id="DejaVuSans-34" d="M 2419 4116 
L 825 1625 
L 2419 1625 
L 2419 4116 
z
M 2253 4666 
L 3047 4666 
L 3047 1625 
L 3713 1625 
L 3713 1100 
L 3047 1100 
L 3047 0 
L 2419 0 
L 2419 1100 
L 313 1100 
L 313 1709 
L 2253 4666 
z
" transform="scale(0.015625)"/>
       </defs>
       <use xlink:href="#DejaVuSans-2212"/>
       <use xlink:href="#DejaVuSans-34" transform="translate(83.789062 0)"/>
       <use xlink:href="#DejaVuSans-30" transform="translate(147.412109 0)"/>
      </g>
     </g>
    </g>
    <g id="ytick_5">
     <g id="line2d_19">
      <path d="M 48.982813 109.008313 
L 568.8 109.008313 
" clip-path="url(#pb9aff404f1)" style="fill: none; stroke-dasharray: 2.96,1.28; stroke-dashoffset: 0; stroke: #b0b0b0; stroke-opacity: 0.8; stroke-width: 0.8"/>
     </g>
     <g id="line2d_20">
      <g>
       <use xlink:href="#m27a5da8977" x="48.982813" y="109.008313" style="stroke: #000000; stroke-width: 0.8"/>
      </g>
     </g>
     <g id="text_11">
      <!-- −30 -->
      <g transform="translate(20.878125 112.807532) scale(0.1 -0.1)">
       <defs>
        <path id="DejaVuSans-33" d="M 2597 2516 
Q 3050 2419 3304 2112 
Q 3559 1806 3559 1356 
Q 3559 666 3084 287 
Q 2609 -91 1734 -91 
Q 1441 -91 1130 -33 
Q 819 25 488 141 
L 488 750 
Q 750 597 1062 519 
Q 1375 441 1716 441 
Q 2309 441 2620 675 
Q 2931 909 2931 1356 
Q 2931 1769 2642 2001 
Q 2353 2234 1838 2234 
L 1294 2234 
L 1294 2753 
L 1863 2753 
Q 2328 2753 2575 2939 
Q 2822 3125 2822 3475 
Q 2822 3834 2567 4026 
Q 2313 4219 1838 4219 
Q 1578 4219 1281 4162 
Q 984 4106 628 3988 
L 628 4550 
Q 988 4650 1302 4700 
Q 1616 4750 1894 4750 
Q 2613 4750 3031 4423 
Q 3450 4097 3450 3541 
Q 3450 3153 3228 2886 
Q 3006 2619 2597 2516 
z
" transform="scale(0.015625)"/>
       </defs>
       <use xlink:href="#DejaVuSans-2212"/>
       <use xlink:href="#DejaVuSans-33" transform="translate(83.789062 0)"/>
       <use xlink:href="#DejaVuSans-30" transform="translate(147.412109 0)"/>
      </g>
     </g>
    </g>
    <g id="ytick_6">
     <g id="line2d_21">
      <path d="M 48.982813 78.860302 
L 568.8 78.860302 
" clip-path="url(#pb9aff404f1)" style="fill: none; stroke-dasharray: 2.96,1.28; stroke-dashoffset: 0; stroke: #b0b0b0; stroke-opacity: 0.8; stroke-width: 0.8"/>
     </g>
     <g id="line2d_22">
      <g>
       <use xlink:href="#m27a5da8977" x="48.982813" y="78.860302" style="stroke: #000000; stroke-width: 0.8"/>
      </g>
     </g>
     <g id="text_12">
      <!-- −20 -->
      <g transform="translate(20.878125 82.65952) scale(0.1 -0.1)">
       <use xlink:href="#DejaVuSans-2212"/>
       <use xlink:href="#DejaVuSans-32" transform="translate(83.789062 0)"/>
       <use xlink:href="#DejaVuSans-30" transform="translate(147.412109 0)"/>
      </g>
     </g>
    </g>
    <g id="ytick_7">
     <g id="line2d_23">
      <path d="M 48.982813 48.71229 
L 568.8 48.71229 
" clip-path="url(#pb9aff404f1)" style="fill: none; stroke-dasharray: 2.96,1.28; stroke-dashoffset: 0; stroke: #b0b0b0; stroke-opacity: 0.8; stroke-width: 0.8"/>
     </g>
     <g id="line2d_24">
      <g>
       <use xlink:href="#m27a5da8977" x="48.982813" y="48.71229" style="stroke: #000000; stroke-width: 0.8"/>
      </g>
     </g>
     <g id="text_13">
      <!-- −10 -->
      <g transform="translate(20.878125 52.511509) scale(0.1 -0.1)">
       <use xlink:href="#DejaVuSans-2212"/>
       <use xlink:href="#DejaVuSans-31" transform="translate(83.789062 0)"/>
       <use xlink:href="#DejaVuSans-30" transform="translate(147.412109 0)"/>
      </g>
     </g>
    </g>
    <g id="text_14">
     <!-- Power density (dB/Hz) -->
     <g transform="translate(14.798437 191.570938) rotate(-90) scale(0.1 -0.1)">
      <defs>
       <path id="DejaVuSans-50" d="M 1259 4147 
L 1259 2394 
L 2053 2394 
Q 2494 2394 2734 2622 
Q 2975 2850 2975 3272 
Q 2975 3691 2734 3919 
Q 2494 4147 2053 4147 
L 1259 4147 
z
M 628 4666 
L 2053 4666 
Q 2838 4666 3239 4311 
Q 3641 3956 3641 3272 
Q 3641 2581 3239 2228 
Q 2838 1875 2053 1875 
L 1259 1875 
L 1259 0 
L 628 0 
L 628 4666 
z
" transform="scale(0.015625)"/>
       <path id="DejaVuSans-6f" d="M 1959 3097 
Q 1497 3097 1228 2736 
Q 959 2375 959 1747 
Q 959 1119 1226 758 
Q 1494 397 1959 397 
Q 2419 397 2687 759 
Q 2956 1122 2956 1747 
Q 2956 2369 2687 2733 
Q 2419 3097 1959 3097 
z
M 1959 3584 
Q 2709 3584 3137 3096 
Q 3566 2609 3566 1747 
Q 3566 888 3137 398 
Q 2709 -91 1959 -91 
Q 1206 -91 779 398 
Q 353 888 353 1747 
Q 353 2609 779 3096 
Q 1206 3584 1959 3584 
z
" transform="scale(0.015625)"/>
       <path id="DejaVuSans-77" d="M 269 3500 
L 844 3500 
L 1563 769 
L 2278 3500 
L 2956 3500 
L 3675 769 
L 4391 3500 
L 4966 3500 
L 4050 0 
L 3372 0 
L 2619 2869 
L 1863 0 
L 1184 0 
L 269 3500 
z
" transform="scale(0.015625)"/>
       <path id="DejaVuSans-64" d="M 2906 2969 
L 2906 4863 
L 3481 4863 
L 3481 0 
L 2906 0 
L 2906 525 
Q 2725 213 2448 61 
Q 2172 -91 1784 -91 
Q 1150 -91 751 415 
Q 353 922 353 1747 
Q 353 2572 751 3078 
Q 1150 3584 1784 3584 
Q 2172 3584 2448 3432 
Q 2725 3281 2906 2969 
z
M 947 1747 
Q 947 1113 1208 752 
Q 1469 391 1925 391 
Q 2381 391 2643 752 
Q 2906 1113 2906 1747 
Q 2906 2381 2643 2742 
Q 2381 3103 1925 3103 
Q 1469 3103 1208 2742 
Q 947 2381 947 1747 
z
" transform="scale(0.015625)"/>
       <path id="DejaVuSans-73" d="M 2834 3397 
L 2834 2853 
Q 2591 2978 2328 3040 
Q 2066 3103 1784 3103 
Q 1356 3103 1142 2972 
Q 928 2841 928 2578 
Q 928 2378 1081 2264 
Q 1234 2150 1697 2047 
L 1894 2003 
Q 2506 1872 2764 1633 
Q 3022 1394 3022 966 
Q 3022 478 2636 193 
Q 2250 -91 1575 -91 
Q 1294 -91 989 -36 
Q 684 19 347 128 
L 347 722 
Q 666 556 975 473 
Q 1284 391 1588 391 
Q 1994 391 2212 530 
Q 2431 669 2431 922 
Q 2431 1156 2273 1281 
Q 2116 1406 1581 1522 
L 1381 1569 
Q 847 1681 609 1914 
Q 372 2147 372 2553 
Q 372 3047 722 3315 
Q 1072 3584 1716 3584 
Q 2034 3584 2315 3537 
Q 2597 3491 2834 3397 
z
" transform="scale(0.015625)"/>
       <path id="DejaVuSans-69" d="M 603 3500 
L 1178 3500 
L 1178 0 
L 603 0 
L 603 3500 
z
M 603 4863 
L 1178 4863 
L 1178 4134 
L 603 4134 
L 603 4863 
z
" transform="scale(0.015625)"/>
       <path id="DejaVuSans-74" d="M 1172 4494 
L 1172 3500 
L 2356 3500 
L 2356 3053 
L 1172 3053 
L 1172 1153 
Q 1172 725 1289 603 
Q 1406 481 1766 481 
L 2356 481 
L 2356 0 
L 1766 0 
Q 1100 0 847 248 
Q 594 497 594 1153 
L 594 3053 
L 172 3053 
L 172 3500 
L 594 3500 
L 594 4494 
L 1172 4494 
z
" transform="scale(0.015625)"/>
       <path id="DejaVuSans-42" d="M 1259 2228 
L 1259 519 
L 2272 519 
Q 2781 519 3026 730 
Q 3272 941 3272 1375 
Q 3272 1813 3026 2020 
Q 2781 2228 2272 2228 
L 1259 2228 
z
M 1259 4147 
L 1259 2741 
L 2194 2741 
Q 2656 2741 2882 2914 
Q 3109 3088 3109 3444 
Q 3109 3797 2882 3972 
Q 2656 4147 2194 4147 
L 1259 4147 
z
M 628 4666 
L 2241 4666 
Q 2963 4666 3353 4366 
Q 3744 4066 3744 3513 
Q 3744 3084 3544 2831 
Q 3344 2578 2956 2516 
Q 3422 2416 3680 2098 
Q 3938 1781 3938 1306 
Q 3938 681 3513 340 
Q 3088 0 2303 0 
L 628 0 
L 628 4666 
z
" transform="scale(0.015625)"/>
       <path id="DejaVuSans-2f" d="M 1625 4666 
L 2156 4666 
L 531 -594 
L 0 -594 
L 1625 4666 
z
" transform="scale(0.015625)"/>
      </defs>
      <use xlink:href="#DejaVuSans-50"/>
      <use xlink:href="#DejaVuSans-6f" transform="translate(56.677734 0)"/>
      <use xlink:href="#DejaVuSans-77" transform="translate(117.859375 0)"/>
      <use xlink:href="#DejaVuSans-65" transform="translate(199.646484 0)"/>
      <use xlink:href="#DejaVuSans-72" transform="translate(261.169922 0)"/>
      <use xlink:href="#DejaVuSans-20" transform="translate(302.283203 0)"/>
      <use xlink:href="#DejaVuSans-64" transform="translate(334.070312 0)"/>
      <use xlink:href="#DejaVuSans-65" transform="translate(397.546875 0)"/>
      <use xlink:href="#DejaVuSans-6e" transform="translate(459.070312 0)"/>
      <use xlink:href="#DejaVuSans-73" transform="translate(522.449219 0)"/>
      <use xlink:href="#DejaVuSans-69" transform="translate(574.548828 0)"/>
      <use xlink:href="#DejaVuSans-74" transform="translate(602.332031 0)"/>
      <use xlink:href="#DejaVuSans-79" transform="translate(641.541016 0)"/>
      <use xlink:href="#DejaVuSans-20" transform="translate(700.720703 0)"/>
      <use xlink:href="#DejaVuSans-28" transform="translate(732.507812 0)"/>
      <use xlink:href="#DejaVuSans-64" transform="translate(771.521484 0)"/>
      <use xlink:href="#DejaVuSans-42" transform="translate(834.998047 0)"/>
      <use xlink:href="#DejaVuSans-2f" transform="translate(903.601562 0)"/>
      <use xlink:href="#DejaVuSans-48" transform="translate(937.292969 0)"/>
      <use xlink:href="#DejaVuSans-7a" transform="translate(1012.488281 0)"/>
      <use xlink:href="#DejaVuSans-29" transform="translate(1064.978516 0)"/>
     </g>
    </g>
   </g>
   <g id="line2d_25">
    <path d="M 72.610866 172.905028 
L 72.841722 172.99059 
L 73.072577 173.207884 
L 73.534288 174.165848 
L 73.995999 175.999816 
L 74.45771 178.837324 
L 75.381132 186.861173 
L 75.842843 190.283961 
L 76.073698 191.137295 
L 76.304553 191.244351 
L 76.535409 190.660682 
L 76.99712 188.122658 
L 79.305674 172.700783 
L 79.767385 171.536883 
L 79.99824 171.397706 
L 80.229096 171.553926 
L 80.459951 171.991623 
L 80.921662 173.601838 
L 81.845084 178.509443 
L 82.768506 183.056389 
L 83.461072 185.254976 
L 85.07706 189.39914 
L 85.769626 191.219944 
L 86.231337 191.916877 
L 86.923904 192.749212 
L 87.385614 193.919928 
L 87.847325 196.069218 
L 88.309036 199.463472 
L 88.770747 204.327519 
L 89.463313 214.77586 
L 90.15588 226.817094 
L 90.386735 228.3459 
L 90.617591 226.822039 
L 91.079301 217.407708 
L 92.002723 197.738944 
L 92.695289 188.349559 
L 93.157 184.685402 
L 93.618711 182.971248 
L 93.849567 182.812468 
L 94.080422 183.097425 
L 94.311278 183.799892 
L 94.772988 186.24757 
L 95.465555 190.49652 
L 95.69641 191.124016 
L 95.927266 191.007994 
L 96.158121 190.184492 
L 97.543254 182.478531 
L 97.774109 181.947728 
L 98.004965 181.700827 
L 98.23582 181.710428 
L 98.466675 181.938055 
L 98.928386 182.849624 
L 99.851808 184.987591 
L 101.006085 187.011813 
L 101.467796 188.579514 
L 101.929507 191.054051 
L 102.622073 196.389917 
L 103.31464 201.912213 
L 103.545495 203.076554 
L 103.77635 203.625693 
L 104.007206 203.508303 
L 104.238061 202.7931 
L 104.699772 200.213097 
L 105.623194 194.52323 
L 106.084905 192.575614 
L 106.546616 191.443449 
L 106.777471 191.19583 
L 107.008327 191.170342 
L 107.239182 191.380379 
L 107.470037 191.845568 
L 107.931748 193.652694 
L 108.393459 196.87896 
L 108.85517 201.92505 
L 109.316881 209.368742 
L 109.778592 220.09734 
L 110.471158 240.053608 
L 110.702014 239.817572 
L 111.856291 216.883627 
L 112.318002 213.001466 
L 112.548857 212.095189 
L 112.779713 211.812617 
L 113.010568 212.077466 
L 113.703134 213.912611 
L 113.93399 213.398281 
L 114.164845 211.657865 
L 115.780833 193.386931 
L 116.011689 192.462425 
L 116.242544 192.03004 
L 116.4734 192.041496 
L 116.704255 192.427819 
L 117.858532 195.58353 
L 118.089388 195.490064 
L 118.551098 194.465515 
L 119.012809 193.252636 
L 119.243665 192.87138 
L 119.47452 192.718479 
L 119.705376 192.802703 
L 120.167086 193.552415 
L 120.859653 195.019159 
L 121.090508 195.26321 
L 121.321364 195.310239 
L 121.783075 194.93668 
L 122.475641 194.206067 
L 123.399063 193.707973 
L 123.629918 193.149778 
L 124.091629 190.743857 
L 125.707617 178.500754 
L 125.938472 177.779116 
L 126.169328 177.456754 
L 126.400183 177.533586 
L 126.631039 177.995067 
L 127.09275 179.916985 
L 128.016171 184.963213 
L 128.247027 185.617854 
L 128.477882 185.847872 
L 128.708738 185.723535 
L 129.401304 184.703843 
L 129.632159 184.598299 
L 129.863015 184.754858 
L 130.09387 185.220842 
L 130.555581 187.221684 
L 131.017292 190.913554 
L 131.479003 196.841706 
L 131.940714 206.058837 
L 132.63328 225.434457 
L 132.864136 224.7355 
L 133.787557 200.887989 
L 134.249268 193.858852 
L 134.941834 187.028645 
L 135.634401 182.681042 
L 136.096112 180.949049 
L 136.326967 180.487303 
L 136.557823 180.331129 
L 136.788678 180.507175 
L 137.019533 181.039808 
L 137.481244 183.257375 
L 137.942955 187.116862 
L 138.404666 192.692289 
L 139.789799 212.741279 
L 140.020654 211.73591 
L 140.482365 204.612731 
L 141.174931 193.176307 
L 141.636642 187.979771 
L 142.098353 184.913935 
L 142.329208 184.161198 
L 142.560064 183.922759 
L 142.790919 184.200525 
L 143.021775 185.003199 
L 143.483486 188.263019 
L 143.945197 193.977575 
L 144.406907 202.507247 
L 144.868618 212.386427 
L 145.099474 214.780798 
L 145.330329 213.30075 
L 146.484606 194.481458 
L 146.946317 191.313399 
L 147.177173 190.641248 
L 147.408028 190.507984 
L 147.638884 190.868924 
L 147.869739 191.684548 
L 148.33145 194.567097 
L 148.793161 199.134286 
L 149.254872 205.859592 
L 149.716582 214.410379 
L 149.947438 216.560433 
L 150.178293 214.052013 
L 151.33257 185.880323 
L 151.794281 179.842137 
L 152.255992 176.456814 
L 152.486848 175.610533 
L 152.717703 175.265328 
L 152.948559 175.376889 
L 153.179414 175.898629 
L 153.641125 177.950999 
L 155.257113 187.362438 
L 155.718824 188.608992 
L 155.949679 188.90761 
L 156.180535 188.979386 
L 156.41139 188.824366 
L 156.873101 187.957659 
L 157.796523 185.755057 
L 158.9508 183.659076 
L 159.874222 181.452542 
L 160.105077 181.289415 
L 160.335933 181.579289 
L 160.566788 182.535893 
L 160.797643 184.406928 
L 161.259354 191.640223 
L 161.49021 195.877383 
L 161.721065 196.340966 
L 162.644487 174.349874 
L 162.875342 173.020609 
L 163.106198 174.750661 
L 163.337053 180.981879 
L 163.567909 192.188209 
L 163.798764 182.282886 
L 164.260475 147.457731 
L 164.722186 127.469772 
L 165.414752 109.004312 
L 165.876463 101.222978 
L 166.338174 96.124859 
L 166.799885 93.355283 
L 167.03074 92.785655 
L 167.261596 92.744947 
L 167.492451 93.230634 
L 167.723307 94.246409 
L 168.185017 97.914749 
L 168.646728 103.914828 
L 169.108439 112.552386 
L 169.57015 124.319845 
L 170.262716 148.85963 
L 170.724427 165.590326 
L 170.955283 169.986589 
L 171.416994 173.347353 
L 171.878704 176.355763 
L 172.10956 177.052666 
L 172.340415 176.652117 
L 173.032982 173.670263 
L 173.263837 173.738572 
L 173.494692 174.659184 
L 173.956403 179.029548 
L 175.110681 195.139125 
L 175.341536 195.323688 
L 175.572391 194.086814 
L 176.726669 184.686478 
L 177.188379 183.040982 
L 177.419235 182.794273 
L 177.65009 182.90841 
L 177.880946 183.3585 
L 178.342657 185.161336 
L 178.804367 188.032936 
L 179.496934 194.375421 
L 179.958645 200.40982 
L 180.882066 216.209351 
L 181.112922 217.219694 
L 181.343777 214.989672 
L 182.498054 195.131632 
L 183.190621 188.282901 
L 184.114043 182.173141 
L 185.037464 177.511463 
L 185.499175 175.92056 
L 185.960886 175.033587 
L 186.191741 174.882428 
L 186.422597 174.932137 
L 186.653452 175.182648 
L 187.115163 176.273943 
L 187.576874 178.118688 
L 188.26944 182.149462 
L 189.423718 189.430412 
L 189.654573 190.013105 
L 189.885428 190.077897 
L 190.116284 189.696254 
L 191.039706 187.296629 
L 191.270561 187.304504 
L 191.501417 187.770709 
L 191.732272 188.757282 
L 192.193983 192.454777 
L 193.34826 205.982729 
L 193.579115 205.348689 
L 194.040826 200.126292 
L 194.733393 192.260071 
L 195.195104 188.999638 
L 195.656814 187.025184 
L 196.118525 185.89044 
L 196.811092 184.959442 
L 197.272802 184.625716 
L 197.503658 184.58252 
L 197.734513 184.659246 
L 198.196224 185.19913 
L 198.657935 185.838624 
L 198.888791 185.789992 
L 199.119646 185.200471 
L 199.350501 183.940324 
L 199.812212 179.755332 
L 200.735634 170.880865 
L 201.197345 168.280486 
L 201.659056 167.172762 
L 201.889911 167.140043 
L 202.120767 167.421556 
L 202.582478 168.813928 
L 203.044188 171.138718 
L 203.736755 176.161229 
L 204.429321 183.477241 
L 205.121887 194.560657 
L 206.045309 212.089438 
L 206.276165 211.553601 
L 206.737875 204.245923 
L 207.430442 193.786307 
L 208.123008 187.517359 
L 208.584719 184.951348 
L 209.277285 182.437012 
L 210.431562 178.705493 
L 211.354984 175.557623 
L 211.816695 174.465262 
L 212.278406 173.879739 
L 212.509261 173.7922 
L 212.740117 173.845172 
L 213.201828 174.382354 
L 213.663538 175.512831 
L 214.125249 177.249306 
L 214.817816 180.936407 
L 215.510382 185.768706 
L 216.202948 191.907586 
L 216.895515 200.462201 
L 217.588081 213.046999 
L 218.049792 221.102544 
L 218.280647 221.716514 
L 218.511503 219.2163 
L 219.896635 196.128109 
L 220.589202 189.071829 
L 221.050912 185.909483 
L 221.512623 184.021821 
L 221.743479 183.570595 
L 221.974334 183.447376 
L 222.20519 183.64216 
L 222.666901 184.882572 
L 224.282889 191.075462 
L 224.744599 192.071971 
L 225.20631 193.810597 
L 225.668021 196.978349 
L 226.591443 204.965347 
L 226.822298 205.22762 
L 227.053154 204.193761 
L 227.514865 199.734083 
L 228.438286 190.380979 
L 229.130853 185.235733 
L 229.592564 182.865198 
L 230.054275 181.639524 
L 230.28513 181.527211 
L 230.515985 181.762365 
L 230.977696 183.1792 
L 231.670263 186.227768 
L 231.901118 186.781091 
L 232.131973 186.810831 
L 232.362829 186.300646 
L 233.055395 183.114508 
L 233.517106 181.413249 
L 233.747962 181.003126 
L 233.978817 180.927779 
L 234.209672 181.185863 
L 234.671383 182.612545 
L 235.36395 186.398123 
L 236.518227 194.657497 
L 237.210793 199.864481 
L 237.441648 200.608391 
L 237.672504 200.209607 
L 237.903359 198.608738 
L 239.288492 184.473985 
L 239.750203 182.515439 
L 239.981058 182.066689 
L 240.211914 181.875902 
L 240.673625 181.910832 
L 241.135335 181.946261 
L 241.597046 181.685455 
L 242.058757 181.392356 
L 242.289613 181.393482 
L 242.520468 181.568035 
L 242.751324 181.951716 
L 243.213034 183.397585 
L 243.905601 187.0458 
L 245.521589 196.908491 
L 246.214155 199.378784 
L 246.675866 200.29796 
L 246.906721 200.533866 
L 247.137577 200.564916 
L 247.368432 200.321055 
L 247.599288 199.737231 
L 248.060999 197.508766 
L 249.676987 187.507667 
L 250.138698 185.892077 
L 250.600408 184.851246 
L 251.062119 184.421925 
L 251.292975 184.498156 
L 251.52383 184.815771 
L 251.985541 186.305166 
L 252.447252 188.983443 
L 253.139818 193.702849 
L 253.370674 194.510542 
L 253.601529 194.513746 
L 253.832385 193.73895 
L 254.755806 188.649874 
L 254.986662 188.105455 
L 255.217517 188.091245 
L 255.448373 188.645445 
L 255.910083 191.446209 
L 256.60265 197.415445 
L 256.833505 197.855616 
L 257.064361 196.559218 
L 257.526072 190.357969 
L 258.218638 180.641795 
L 258.680349 176.165306 
L 259.14206 173.363104 
L 259.60377 172.143629 
L 259.834626 172.12437 
L 260.065481 172.511757 
L 260.296337 173.325137 
L 260.758048 176.351191 
L 261.219759 181.558348 
L 261.681469 189.52794 
L 262.604891 210.466012 
L 262.835747 209.83121 
L 263.990024 192.609902 
L 264.451735 189.87112 
L 265.836867 184.632516 
L 266.760289 180.177438 
L 267.222 178.979503 
L 267.452855 178.697089 
L 267.683711 178.590908 
L 268.145422 178.74664 
L 268.837988 179.41976 
L 269.299699 180.10592 
L 269.76141 181.151869 
L 270.453976 183.496888 
L 271.608253 187.678173 
L 272.300819 189.292861 
L 272.76253 189.797734 
L 272.993386 189.825675 
L 273.455097 189.464431 
L 274.378518 188.409945 
L 274.840229 188.318229 
L 275.30194 188.208826 
L 275.532796 187.927362 
L 275.994506 186.610833 
L 277.148784 182.033443 
L 277.379639 181.754362 
L 277.610495 181.860815 
L 277.84135 182.382867 
L 278.303061 184.682908 
L 279.688193 194.866639 
L 280.149904 195.779409 
L 280.38076 196.117505 
L 280.611615 196.706849 
L 280.842471 197.733245 
L 281.304182 201.612423 
L 281.765892 208.667106 
L 282.227603 220.042959 
L 282.689314 231.912937 
L 282.92017 229.137546 
L 283.843591 202.099097 
L 284.536158 190.9767 
L 284.997869 186.448123 
L 285.459579 183.826158 
L 285.690435 183.251888 
L 285.92129 183.212825 
L 286.152146 183.754125 
L 286.383001 184.92512 
L 286.844712 189.32094 
L 287.768134 202.084503 
L 287.998989 202.125846 
L 288.4607 196.901684 
L 289.153266 188.691141 
L 289.614977 185.645518 
L 290.076688 184.232686 
L 290.307544 184.05341 
L 290.538399 184.230583 
L 290.769254 184.80746 
L 291.00011 185.85734 
L 291.461821 189.755082 
L 292.385243 202.138637 
L 292.616098 201.839683 
L 293.53952 192.205947 
L 293.770375 191.789988 
L 294.001231 192.50727 
L 294.232086 194.290166 
L 294.693797 200.373289 
L 295.386363 210.241794 
L 295.848074 213.488488 
L 296.078929 213.841857 
L 296.54064 213.252308 
L 296.771496 213.978888 
L 297.002351 216.540483 
L 297.233207 220.360572 
L 297.464062 219.397048 
L 298.387484 183.552251 
L 298.618339 179.476485 
L 298.849195 177.464173 
L 299.08005 177.553911 
L 299.310906 179.993458 
L 299.541761 185.330691 
L 300.003472 205.875358 
L 300.234327 204.154497 
L 300.696038 187.802826 
L 300.926894 186.639866 
L 301.157749 190.969648 
L 301.388605 202.583916 
L 301.61946 203.477304 
L 302.081171 170.340541 
L 302.312026 162.3699 
L 302.542882 158.337175 
L 302.773737 158.095677 
L 303.004593 162.785991 
L 303.235448 177.415738 
L 303.466303 206.811639 
L 303.697159 162.761978 
L 304.15887 134.457445 
L 304.389725 128.331816 
L 304.620581 125.843651 
L 304.851436 127.671097 
L 305.082292 137.285154 
L 305.313147 182.531636 
L 305.544002 130.393863 
L 306.005713 90.872798 
L 306.467424 70.235229 
L 307.15999 50.909607 
L 307.852557 39.487841 
L 308.314268 35.098978 
L 308.775979 32.95655 
L 309.006834 32.688267 
L 309.237689 32.94849 
L 309.468545 33.740199 
L 309.930256 36.963653 
L 310.391967 42.530618 
L 310.853677 50.791934 
L 311.315388 62.434115 
L 311.777099 78.963023 
L 312.23881 104.917761 
L 312.469666 127.415008 
L 312.700521 196.40671 
L 312.931376 141.677418 
L 313.162232 130.391027 
L 313.393087 128.110517 
L 313.623943 130.491116 
L 313.854798 136.682805 
L 314.085654 147.208239 
L 314.547364 180.030361 
L 315.009075 159.029984 
L 315.239931 156.082024 
L 315.470786 157.134641 
L 315.701642 161.580077 
L 316.163353 180.544775 
L 316.394208 189.082526 
L 316.625063 185.658794 
L 316.855919 180.141768 
L 317.086774 177.998734 
L 317.31763 179.482181 
L 317.548485 184.705538 
L 318.010196 207.681628 
L 318.241051 207.311746 
L 318.702762 189.182586 
L 318.933618 186.116192 
L 319.164473 186.123011 
L 319.395329 188.773359 
L 319.85704 200.882172 
L 320.087895 207.596475 
L 320.31875 209.689024 
L 320.780461 206.428577 
L 321.011317 207.634797 
L 321.242172 212.155198 
L 321.703883 226.85953 
L 321.934738 220.747193 
L 322.396449 203.98637 
L 322.627305 199.864468 
L 322.85816 197.960654 
L 323.089016 197.825285 
L 323.319871 199.07078 
L 323.781582 203.300473 
L 324.012437 204.163643 
L 324.243293 202.912842 
L 324.705004 196.213073 
L 325.39757 186.083184 
L 326.090136 179.341006 
L 326.551847 176.509498 
L 327.013558 174.777995 
L 327.475269 174.033209 
L 327.706124 174.012097 
L 327.93698 174.208517 
L 328.398691 175.142762 
L 329.091257 177.36509 
L 329.552968 179.327487 
L 330.014679 182.187623 
L 330.47639 186.604591 
L 330.9381 193.047828 
L 331.861522 207.529127 
L 332.092378 207.412616 
L 332.554089 201.345465 
L 333.246655 191.620677 
L 333.708366 187.917455 
L 334.170077 186.133904 
L 334.631787 185.52023 
L 335.324354 185.250146 
L 335.786065 185.200066 
L 336.01692 185.324144 
L 336.247776 185.623821 
L 336.709486 186.905237 
L 337.863764 191.965895 
L 338.094619 192.147534 
L 338.325474 191.82578 
L 339.479752 188.760675 
L 339.710607 188.772304 
L 339.941463 189.063652 
L 340.403173 190.399082 
L 341.326595 194.389962 
L 341.557451 194.647502 
L 341.788306 194.169015 
L 342.250017 191.533078 
L 342.711728 188.82277 
L 342.942583 188.046881 
L 343.173439 187.765103 
L 343.404294 187.957908 
L 343.63515 188.557332 
L 344.09686 190.598292 
L 344.789427 194.15618 
L 345.020282 194.810887 
L 345.251138 194.839957 
L 345.481993 194.241936 
L 345.943704 192.470163 
L 346.174559 192.118022 
L 346.405415 192.417867 
L 346.867126 193.82873 
L 347.097981 193.367399 
L 347.559692 188.796772 
L 347.790547 186.612851 
L 348.021403 185.799217 
L 348.252258 187.015442 
L 348.483114 190.879571 
L 348.944825 203.14717 
L 349.17568 196.740581 
L 349.637391 179.03447 
L 349.868246 175.168056 
L 350.099102 174.790765 
L 350.329957 178.375324 
L 350.560813 185.815821 
L 350.791668 185.39953 
L 351.253379 158.183809 
L 351.71509 144.603307 
L 351.945945 142.938182 
L 352.176801 145.710323 
L 352.407656 157.236408 
L 352.638512 196.59282 
L 352.869367 143.319493 
L 353.331078 106.760043 
L 353.792789 86.874529 
L 354.485355 68.133688 
L 354.947066 60.095284 
L 355.408777 54.732699 
L 355.870488 51.703307 
L 356.101343 51.006882 
L 356.332199 50.841843 
L 356.563054 51.206034 
L 356.793909 52.103764 
L 357.25562 55.551671 
L 357.717331 61.373995 
L 358.179042 69.950837 
L 358.640753 82.033356 
L 359.102464 99.31705 
L 359.564175 127.286673 
L 360.025886 184.872958 
L 360.256741 153.778424 
L 360.487596 145.90511 
L 360.718452 144.904892 
L 360.949307 148.038324 
L 361.180163 154.848311 
L 361.411018 166.206986 
L 361.641874 185.805919 
L 361.872729 217.147884 
L 362.103584 191.335891 
L 362.33444 180.291664 
L 362.565295 176.867352 
L 362.796151 177.541968 
L 363.257862 184.023138 
L 363.488717 184.305631 
L 364.412139 172.223734 
L 364.642994 171.691626 
L 364.87385 172.065335 
L 365.335561 174.251186 
L 366.028127 178.553603 
L 366.489838 183.165913 
L 367.41326 196.319278 
L 367.644115 197.57471 
L 367.87497 197.627584 
L 368.336681 197.049253 
L 368.567537 197.353174 
L 368.798392 198.201686 
L 369.260103 201.183417 
L 370.183525 208.212497 
L 370.41438 208.343925 
L 370.645236 206.953115 
L 372.030368 191.086178 
L 372.492079 188.894621 
L 372.95379 187.997592 
L 373.877212 187.312109 
L 374.338923 186.207542 
L 375.031489 183.267022 
L 375.724055 180.256852 
L 376.185766 178.869627 
L 376.647477 178.200524 
L 376.878332 178.174969 
L 377.109188 178.371507 
L 377.570899 179.443818 
L 378.03261 181.326427 
L 378.956031 185.641018 
L 379.186887 186.244484 
L 379.417742 186.493102 
L 379.648598 186.401879 
L 380.110309 185.574102 
L 380.572019 184.730186 
L 380.802875 184.571364 
L 381.03373 184.680214 
L 381.264586 185.096662 
L 381.726297 186.930546 
L 382.188007 190.127066 
L 382.880574 197.383545 
L 383.57314 207.463725 
L 384.265706 220.612557 
L 384.958273 233.98074 
L 385.189128 233.858392 
L 385.650839 224.901639 
L 386.343405 211.327868 
L 386.805116 205.979673 
L 387.266827 203.325322 
L 387.497683 202.88891 
L 387.728538 202.96437 
L 388.190249 204.198884 
L 388.65196 205.468769 
L 388.882815 205.416325 
L 389.113671 204.683097 
L 389.575381 201.721248 
L 390.267948 197.226004 
L 390.729659 195.61277 
L 391.19137 194.887955 
L 392.345647 193.714237 
L 392.576502 193.77484 
L 392.807358 194.165789 
L 393.038213 194.980796 
L 393.499924 198.01082 
L 393.961635 201.87678 
L 394.19249 202.865654 
L 394.423346 202.334961 
L 394.885057 197.340593 
L 395.577623 189.371562 
L 396.039334 186.997988 
L 396.270189 186.796246 
L 396.501045 187.207704 
L 396.962755 189.530558 
L 397.655322 193.537261 
L 397.886177 193.768666 
L 398.117033 193.272932 
L 398.809599 190.60563 
L 399.040454 190.338295 
L 399.27131 190.657734 
L 399.502165 191.611158 
L 399.963876 195.25082 
L 400.425587 199.686585 
L 400.656442 201.037793 
L 400.887298 201.271435 
L 401.118153 200.554698 
L 401.579864 198.493315 
L 401.81072 198.107893 
L 402.041575 198.528834 
L 402.272431 199.925462 
L 402.503286 202.450525 
L 402.964997 211.48062 
L 403.426708 222.541762 
L 403.657563 221.31703 
L 404.580985 198.365265 
L 405.042696 191.962958 
L 405.735262 186.060769 
L 406.427828 182.191092 
L 407.120395 179.600134 
L 407.582106 178.670292 
L 407.812961 178.464394 
L 408.043816 178.427392 
L 408.274672 178.549114 
L 408.736383 179.208378 
L 409.198094 180.315993 
L 409.89066 182.661818 
L 410.814082 186.881969 
L 411.506648 189.558539 
L 411.737503 189.923818 
L 411.968359 189.925367 
L 412.199214 189.571684 
L 412.660925 188.037276 
L 414.046058 182.216393 
L 414.507769 181.391627 
L 414.738624 181.354665 
L 414.96948 181.5794 
L 415.43119 182.718848 
L 416.123757 185.002644 
L 416.354612 185.440153 
L 416.585468 185.54837 
L 416.816323 185.322039 
L 417.278034 184.193355 
L 417.9706 182.4416 
L 418.432311 181.898407 
L 419.817444 181.219357 
L 420.51001 180.584182 
L 420.740865 180.556089 
L 420.971721 180.712894 
L 421.202576 181.102499 
L 421.664287 182.73646 
L 422.125998 185.710413 
L 422.587709 190.188599 
L 423.280275 199.603075 
L 423.972842 208.438217 
L 424.203697 209.183889 
L 424.434552 208.349519 
L 424.896263 203.807612 
L 425.58883 196.422916 
L 426.050541 193.009896 
L 426.512251 191.065462 
L 426.743107 190.645189 
L 426.973962 190.585941 
L 427.204818 190.879364 
L 427.435673 191.515128 
L 427.897384 193.770142 
L 428.359095 197.305235 
L 428.820806 202.290151 
L 429.282517 209.423628 
L 430.205938 227.428472 
L 430.436794 222.625763 
L 431.12936 201.407609 
L 431.591071 192.072569 
L 432.052782 185.845076 
L 432.514493 181.940294 
L 432.976204 179.890015 
L 433.207059 179.456777 
L 433.437915 179.370562 
L 433.66877 179.595445 
L 434.130481 180.816296 
L 434.823047 183.804892 
L 435.746469 187.67343 
L 436.669891 191.238438 
L 437.131602 194.029511 
L 437.593312 198.082666 
L 438.978445 212.895869 
L 439.2093 212.705575 
L 439.671011 209.329735 
L 440.594433 201.470492 
L 441.056144 199.019381 
L 441.517855 197.445717 
L 441.979566 196.531665 
L 442.441277 196.167323 
L 442.672132 196.200401 
L 442.902987 196.403315 
L 443.133843 196.808448 
L 443.595554 198.396552 
L 444.057265 201.354303 
L 444.518975 205.972641 
L 445.211542 213.457792 
L 445.442397 213.740983 
L 445.673253 212.063474 
L 447.058385 195.312251 
L 447.520096 193.231177 
L 447.750952 192.845793 
L 447.981807 192.820589 
L 448.212662 193.083034 
L 449.136084 194.870128 
L 449.36694 194.836055 
L 449.597795 194.397617 
L 450.059506 192.394294 
L 451.213783 186.245834 
L 451.444639 185.669089 
L 451.675494 185.455782 
L 451.906349 185.638907 
L 452.137205 186.240358 
L 452.598916 188.705684 
L 453.753193 196.976626 
L 453.984048 196.809095 
L 454.214904 195.738872 
L 455.369181 188.453022 
L 455.600036 187.895985 
L 455.830892 187.736654 
L 456.061747 187.960199 
L 456.292603 188.545516 
L 456.754314 190.701932 
L 457.44688 195.876208 
L 458.139446 201.37958 
L 458.370302 202.512961 
L 458.601157 203.023441 
L 458.832013 202.916012 
L 459.293723 201.506698 
L 459.98629 199.165601 
L 461.140567 196.456663 
L 461.833133 193.081874 
L 462.5257 189.958929 
L 462.756555 189.405323 
L 462.98741 189.182193 
L 463.218266 189.312409 
L 463.449121 189.805518 
L 463.910832 191.876249 
L 464.372543 195.366929 
L 464.834254 200.391378 
L 465.295965 207.598121 
L 465.757676 218.484013 
L 466.219387 228.550429 
L 466.450242 224.264868 
L 467.142808 202.126044 
L 467.604519 193.146612 
L 468.06623 187.910953 
L 468.527941 185.65838 
L 468.758796 185.540226 
L 468.989652 186.072326 
L 469.220507 187.256295 
L 469.682218 191.65412 
L 470.143929 199.029934 
L 470.60564 209.881231 
L 471.298206 228.654671 
L 471.529062 229.123078 
L 471.990772 220.807398 
L 472.683339 208.057399 
L 473.375905 198.60059 
L 474.068471 192.114143 
L 474.530182 189.448567 
L 474.991893 188.081622 
L 475.222749 187.876449 
L 475.453604 187.985649 
L 475.684459 188.404012 
L 476.14617 190.122068 
L 476.838737 194.404669 
L 477.531303 198.770127 
L 477.993014 200.320746 
L 478.454725 200.757382 
L 478.916436 200.922399 
L 479.147291 201.142662 
L 479.609002 202.056653 
L 480.301568 204.335281 
L 480.994135 206.35697 
L 481.22499 206.686652 
L 481.455845 206.789606 
L 481.686701 206.671031 
L 482.148412 205.898121 
L 482.840978 203.969747 
L 483.302689 202.173274 
L 483.7644 199.469707 
L 484.456966 193.512324 
L 485.380388 185.90939 
L 485.842099 183.80277 
L 486.072954 183.296594 
L 486.30381 183.162323 
L 486.534665 183.393388 
L 486.76552 183.975054 
L 487.227231 186.091184 
L 487.919798 191.067161 
L 489.535786 205.594084 
L 490.459207 216.283387 
L 490.920918 221.60275 
L 491.151774 223.106187 
L 491.382629 223.183274 
L 491.613485 221.794953 
L 493.229473 205.36526 
L 493.691184 203.702364 
L 493.922039 203.514177 
L 494.152894 203.736642 
L 494.614605 205.190985 
L 495.076316 206.956035 
L 495.307172 207.23203 
L 495.538027 206.688015 
L 495.999738 203.130257 
L 496.92316 193.911582 
L 497.384871 191.142243 
L 497.615726 190.386468 
L 497.846581 190.058345 
L 498.077437 190.162064 
L 498.308292 190.70495 
L 498.770003 193.164507 
L 499.231714 197.598641 
L 500.385991 212.504228 
L 500.616847 211.622028 
L 501.078558 204.703887 
L 501.771124 194.157048 
L 502.232835 189.642493 
L 502.694546 186.960421 
L 503.156256 185.683235 
L 503.617967 185.274236 
L 505.0031 184.905331 
L 505.233955 185.080195 
L 505.464811 185.498442 
L 505.926522 187.279081 
L 506.849943 192.859823 
L 507.080799 193.042415 
L 507.311654 192.051429 
L 507.773365 187.448879 
L 508.465932 179.895961 
L 508.927642 176.483666 
L 509.389353 174.442172 
L 509.851064 173.471057 
L 510.08192 173.290107 
L 510.312775 173.272687 
L 510.54363 173.400082 
L 511.005341 174.052794 
L 511.467052 175.206393 
L 512.159619 177.673352 
L 513.544751 182.765371 
L 514.006462 183.839205 
L 514.237317 184.082724 
L 514.468173 184.050167 
L 514.699028 183.710695 
L 515.160739 182.232959 
L 516.084161 178.607142 
L 516.545872 177.623788 
L 517.007583 177.340675 
L 517.469294 177.503574 
L 518.16186 177.846452 
L 518.623571 177.855903 
L 519.546993 177.728336 
L 520.008703 178.036953 
L 520.470414 178.886763 
L 520.932125 180.457555 
L 521.393836 182.879693 
L 522.086402 188.167555 
L 523.471535 200.624152 
L 523.933246 202.420902 
L 524.164101 202.518492 
L 524.394957 202.154362 
L 524.856668 200.53101 
L 525.780089 197.030191 
L 526.2418 196.288787 
L 526.472656 196.241666 
L 526.703511 196.386483 
L 527.165222 197.081435 
L 527.857788 198.158824 
L 528.088644 198.227885 
L 528.319499 198.046905 
L 528.550355 197.585427 
L 529.012065 195.858464 
L 531.782331 181.252588 
L 532.705752 175.511566 
L 533.167463 173.785802 
L 533.398319 173.44396 
L 533.629174 173.505894 
L 533.86003 174.003866 
L 534.090885 174.966483 
L 534.552596 178.403717 
L 535.014307 184.121016 
L 535.476018 192.673087 
L 535.937729 205.090065 
L 536.399439 219.817333 
L 536.630295 221.062507 
L 538.015427 191.135849 
L 538.707994 184.26401 
L 539.40056 180.088173 
L 540.093126 177.529689 
L 540.554837 176.5196 
L 541.016548 175.958916 
L 541.709114 175.580272 
L 542.401681 175.152431 
L 544.710235 173.122359 
L 545.171946 172.918105 
L 545.171946 172.918105 
" clip-path="url(#pb9aff404f1)" style="fill: none; stroke: #1f77b4; stroke-linecap: square"/>
   </g>
   <g id="patch_3">
    <path d="M 48.982813 250.421875 
L 48.982813 22.32 
" style="fill: none; stroke: #000000; stroke-width: 0.8; stroke-linejoin: miter; stroke-linecap: square"/>
   </g>
   <g id="patch_4">
    <path d="M 568.8 250.421875 
L 568.8 22.32 
" style="fill: none; stroke: #000000; stroke-width: 0.8; stroke-linejoin: miter; stroke-linecap: square"/>
   </g>
   <g id="patch_5">
    <path d="M 48.982813 250.421875 
L 568.8 250.421875 
" style="fill: none; stroke: #000000; stroke-width: 0.8; stroke-linejoin: miter; stroke-linecap: square"/>
   </g>
   <g id="patch_6">
    <path d="M 48.982813 22.32 
L 568.8 22.32 
" style="fill: none; stroke: #000000; stroke-width: 0.8; stroke-linejoin: miter; stroke-linecap: square"/>
   </g>
   <g id="text_15">
    <!-- Periodogram of $x_c[n]$ -->
    <g transform="translate(246.371406 16.32) scale(0.12 -0.12)">
     <defs>
      <path id="DejaVuSans-67" d="M 2906 1791 
Q 2906 2416 2648 2759 
Q 2391 3103 1925 3103 
Q 1463 3103 1205 2759 
Q 947 2416 947 1791 
Q 947 1169 1205 825 
Q 1463 481 1925 481 
Q 2391 481 2648 825 
Q 2906 1169 2906 1791 
z
M 3481 434 
Q 3481 -459 3084 -895 
Q 2688 -1331 1869 -1331 
Q 1566 -1331 1297 -1286 
Q 1028 -1241 775 -1147 
L 775 -588 
Q 1028 -725 1275 -790 
Q 1522 -856 1778 -856 
Q 2344 -856 2625 -561 
Q 2906 -266 2906 331 
L 2906 616 
Q 2728 306 2450 153 
Q 2172 0 1784 0 
Q 1141 0 747 490 
Q 353 981 353 1791 
Q 353 2603 747 3093 
Q 1141 3584 1784 3584 
Q 2172 3584 2450 3431 
Q 2728 3278 2906 2969 
L 2906 3500 
L 3481 3500 
L 3481 434 
z
" transform="scale(0.015625)"/>
      <path id="DejaVuSans-61" d="M 2194 1759 
Q 1497 1759 1228 1600 
Q 959 1441 959 1056 
Q 959 750 1161 570 
Q 1363 391 1709 391 
Q 2188 391 2477 730 
Q 2766 1069 2766 1631 
L 2766 1759 
L 2194 1759 
z
M 3341 1997 
L 3341 0 
L 2766 0 
L 2766 531 
Q 2569 213 2275 61 
Q 1981 -91 1556 -91 
Q 1019 -91 701 211 
Q 384 513 384 1019 
Q 384 1609 779 1909 
Q 1175 2209 1959 2209 
L 2766 2209 
L 2766 2266 
Q 2766 2663 2505 2880 
Q 2244 3097 1772 3097 
Q 1472 3097 1187 3025 
Q 903 2953 641 2809 
L 641 3341 
Q 956 3463 1253 3523 
Q 1550 3584 1831 3584 
Q 2591 3584 2966 3190 
Q 3341 2797 3341 1997 
z
" transform="scale(0.015625)"/>
      <path id="DejaVuSans-6d" d="M 3328 2828 
Q 3544 3216 3844 3400 
Q 4144 3584 4550 3584 
Q 5097 3584 5394 3201 
Q 5691 2819 5691 2113 
L 5691 0 
L 5113 0 
L 5113 2094 
Q 5113 2597 4934 2840 
Q 4756 3084 4391 3084 
Q 3944 3084 3684 2787 
Q 3425 2491 3425 1978 
L 3425 0 
L 2847 0 
L 2847 2094 
Q 2847 2600 2669 2842 
Q 2491 3084 2119 3084 
Q 1678 3084 1418 2786 
Q 1159 2488 1159 1978 
L 1159 0 
L 581 0 
L 581 3500 
L 1159 3500 
L 1159 2956 
Q 1356 3278 1631 3431 
Q 1906 3584 2284 3584 
Q 2666 3584 2933 3390 
Q 3200 3197 3328 2828 
z
" transform="scale(0.015625)"/>
      <path id="DejaVuSans-66" d="M 2375 4863 
L 2375 4384 
L 1825 4384 
Q 1516 4384 1395 4259 
Q 1275 4134 1275 3809 
L 1275 3500 
L 2222 3500 
L 2222 3053 
L 1275 3053 
L 1275 0 
L 697 0 
L 697 3053 
L 147 3053 
L 147 3500 
L 697 3500 
L 697 3744 
Q 697 4328 969 4595 
Q 1241 4863 1831 4863 
L 2375 4863 
z
" transform="scale(0.015625)"/>
      <path id="DejaVuSans-Oblique-78" d="M 3841 3500 
L 2234 1784 
L 3219 0 
L 2559 0 
L 1819 1388 
L 531 0 
L -166 0 
L 1556 1844 
L 641 3500 
L 1300 3500 
L 1972 2234 
L 3144 3500 
L 3841 3500 
z
" transform="scale(0.015625)"/>
      <path id="DejaVuSans-Oblique-63" d="M 3431 3366 
L 3316 2797 
Q 3109 2947 2876 3022 
Q 2644 3097 2394 3097 
Q 2119 3097 1870 3000 
Q 1622 2903 1453 2725 
Q 1184 2453 1037 2087 
Q 891 1722 891 1331 
Q 891 859 1127 628 
Q 1363 397 1844 397 
Q 2081 397 2348 469 
Q 2616 541 2906 684 
L 2797 116 
Q 2547 13 2283 -39 
Q 2019 -91 1741 -91 
Q 1044 -91 669 257 
Q 294 606 294 1253 
Q 294 1797 489 2255 
Q 684 2713 1069 3078 
Q 1331 3328 1684 3456 
Q 2038 3584 2456 3584 
Q 2700 3584 2940 3529 
Q 3181 3475 3431 3366 
z
" transform="scale(0.015625)"/>
      <path id="DejaVuSans-5b" d="M 550 4863 
L 1875 4863 
L 1875 4416 
L 1125 4416 
L 1125 -397 
L 1875 -397 
L 1875 -844 
L 550 -844 
L 550 4863 
z
" transform="scale(0.015625)"/>
      <path id="DejaVuSans-Oblique-6e" d="M 3566 2113 
L 3156 0 
L 2578 0 
L 2988 2091 
Q 3016 2238 3031 2350 
Q 3047 2463 3047 2528 
Q 3047 2791 2881 2937 
Q 2716 3084 2419 3084 
Q 1956 3084 1622 2776 
Q 1288 2469 1184 1941 
L 800 0 
L 225 0 
L 903 3500 
L 1478 3500 
L 1363 2950 
Q 1603 3253 1940 3418 
Q 2278 3584 2650 3584 
Q 3113 3584 3367 3334 
Q 3622 3084 3622 2631 
Q 3622 2519 3608 2391 
Q 3594 2263 3566 2113 
z
" transform="scale(0.015625)"/>
      <path id="DejaVuSans-5d" d="M 1947 4863 
L 1947 -844 
L 622 -844 
L 622 -397 
L 1369 -397 
L 1369 4416 
L 622 4416 
L 622 4863 
L 1947 4863 
z
" transform="scale(0.015625)"/>
     </defs>
     <use xlink:href="#DejaVuSans-50" transform="translate(0 0.015625)"/>
     <use xlink:href="#DejaVuSans-65" transform="translate(60.302734 0.015625)"/>
     <use xlink:href="#DejaVuSans-72" transform="translate(121.826172 0.015625)"/>
     <use xlink:href="#DejaVuSans-69" transform="translate(162.939453 0.015625)"/>
     <use xlink:href="#DejaVuSans-6f" transform="translate(190.722656 0.015625)"/>
     <use xlink:href="#DejaVuSans-64" transform="translate(251.904297 0.015625)"/>
     <use xlink:href="#DejaVuSans-6f" transform="translate(315.380859 0.015625)"/>
     <use xlink:href="#DejaVuSans-67" transform="translate(376.5625 0.015625)"/>
     <use xlink:href="#DejaVuSans-72" transform="translate(440.039062 0.015625)"/>
     <use xlink:href="#DejaVuSans-61" transform="translate(481.152344 0.015625)"/>
     <use xlink:href="#DejaVuSans-6d" transform="translate(542.431641 0.015625)"/>
     <use xlink:href="#DejaVuSans-20" transform="translate(639.84375 0.015625)"/>
     <use xlink:href="#DejaVuSans-6f" transform="translate(671.630859 0.015625)"/>
     <use xlink:href="#DejaVuSans-66" transform="translate(732.8125 0.015625)"/>
     <use xlink:href="#DejaVuSans-20" transform="translate(768.017578 0.015625)"/>
     <use xlink:href="#DejaVuSans-Oblique-78" transform="translate(799.804688 0.015625)"/>
     <use xlink:href="#DejaVuSans-Oblique-63" transform="translate(858.984375 -16.390625) scale(0.7)"/>
     <use xlink:href="#DejaVuSans-5b" transform="translate(900.205078 0.015625)"/>
     <use xlink:href="#DejaVuSans-Oblique-6e" transform="translate(939.21875 0.015625)"/>
     <use xlink:href="#DejaVuSans-5d" transform="translate(1002.597656 0.015625)"/>
    </g>
   </g>
  </g>
 </g>
 <defs>
  <clipPath id="pb9aff404f1">
   <rect x="48.982813" y="22.32" width="519.817188" height="228.101875"/>
  </clipPath>
 </defs>
</svg>
