<?xml version="1.0" encoding="utf-8" standalone="no"?>
<!DOCTYPE svg PUBLIC "-//W3C//DTD SVG 1.1//EN"
  "http://www.w3.org/Graphics/SVG/1.1/DTD/svg11.dtd">
<svg xmlns:xlink="http://www.w3.org/1999/xlink" width="576pt" height="288pt" viewBox="0 0 576 288" xmlns="http://www.w3.org/2000/svg" version="1.1">
 <metadata>
  <rdf:RDF xmlns:dc="http://purl.org/dc/elements/1.1/" xmlns:cc="http://creativecommons.org/ns#" xmlns:rdf="http://www.w3.org/1999/02/22-rdf-syntax-ns#">
   <cc:Work>
    <dc:type rdf:resource="http://purl.org/dc/dcmitype/StillImage"/>
    <dc:date>2025-05-10T16:17:45.363379</dc:date>
    <dc:format>image/svg+xml</dc:format>
    <dc:creator>
     <cc:Agent>
      <dc:title>Matplotlib v3.10.3, https://matplotlib.org/</dc:title>
     </cc:Agent>
    </dc:creator>
   </cc:Work>
  </rdf:RDF>
 </metadata>
 <defs>
  <style type="text/css">*{stroke-linejoin: round; stroke-linecap: butt}</style>
 </defs>
 <g id="figure_1">
  <g id="patch_1">
   <path d="M 0 288 
L 576 288 
L 576 0 
L 0 0 
z
" style="fill: #ffffff"/>
  </g>
  <g id="axes_1">
   <g id="patch_2">
    <path d="M 43.78125 250.44375 
L 568.8 250.44375 
L 568.8 22.318125 
L 43.78125 22.318125 
z
" style="fill: #ffffff"/>
   </g>
   <g id="matplotlib.axis_1">
    <g id="xtick_1">
     <g id="line2d_1">
      <path d="M 67.645739 250.44375 
L 67.645739 22.318125 
" clip-path="url(#p3d51b0f073)" style="fill: none; stroke-dasharray: 2.96,1.28; stroke-dashoffset: 0; stroke: #b0b0b0; stroke-opacity: 0.8; stroke-width: 0.8"/>
     </g>
     <g id="line2d_2">
      <defs>
       <path id="m36d085ae3e" d="M 0 0 
L 0 3.5 
" style="stroke: #000000; stroke-width: 0.8"/>
      </defs>
      <g>
       <use xlink:href="#m36d085ae3e" x="67.645739" y="250.44375" style="stroke: #000000; stroke-width: 0.8"/>
      </g>
     </g>
     <g id="text_1">
      <!-- −10.0 -->
      <g transform="translate(52.323082 265.042188) scale(0.1 -0.1)">
       <defs>
        <path id="DejaVuSans-2212" d="M 678 2272 
L 4684 2272 
L 4684 1741 
L 678 1741 
L 678 2272 
z
" transform="scale(0.015625)"/>
        <path id="DejaVuSans-31" d="M 794 531 
L 1825 531 
L 1825 4091 
L 703 3866 
L 703 4441 
L 1819 4666 
L 2450 4666 
L 2450 531 
L 3481 531 
L 3481 0 
L 794 0 
L 794 531 
z
" transform="scale(0.015625)"/>
        <path id="DejaVuSans-30" d="M 2034 4250 
Q 1547 4250 1301 3770 
Q 1056 3291 1056 2328 
Q 1056 1369 1301 889 
Q 1547 409 2034 409 
Q 2525 409 2770 889 
Q 3016 1369 3016 2328 
Q 3016 3291 2770 3770 
Q 2525 4250 2034 4250 
z
M 2034 4750 
Q 2819 4750 3233 4129 
Q 3647 3509 3647 2328 
Q 3647 1150 3233 529 
Q 2819 -91 2034 -91 
Q 1250 -91 836 529 
Q 422 1150 422 2328 
Q 422 3509 836 4129 
Q 1250 4750 2034 4750 
z
" transform="scale(0.015625)"/>
        <path id="DejaVuSans-2e" d="M 684 794 
L 1344 794 
L 1344 0 
L 684 0 
L 684 794 
z
" transform="scale(0.015625)"/>
       </defs>
       <use xlink:href="#DejaVuSans-2212"/>
       <use xlink:href="#DejaVuSans-31" transform="translate(83.789062 0)"/>
       <use xlink:href="#DejaVuSans-30" transform="translate(147.412109 0)"/>
       <use xlink:href="#DejaVuSans-2e" transform="translate(211.035156 0)"/>
       <use xlink:href="#DejaVuSans-30" transform="translate(242.822266 0)"/>
      </g>
     </g>
    </g>
    <g id="xtick_2">
     <g id="line2d_3">
      <path d="M 127.30696 250.44375 
L 127.30696 22.318125 
" clip-path="url(#p3d51b0f073)" style="fill: none; stroke-dasharray: 2.96,1.28; stroke-dashoffset: 0; stroke: #b0b0b0; stroke-opacity: 0.8; stroke-width: 0.8"/>
     </g>
     <g id="line2d_4">
      <g>
       <use xlink:href="#m36d085ae3e" x="127.30696" y="250.44375" style="stroke: #000000; stroke-width: 0.8"/>
      </g>
     </g>
     <g id="text_2">
      <!-- −7.5 -->
      <g transform="translate(115.165554 265.042188) scale(0.1 -0.1)">
       <defs>
        <path id="DejaVuSans-37" d="M 525 4666 
L 3525 4666 
L 3525 4397 
L 1831 0 
L 1172 0 
L 2766 4134 
L 525 4134 
L 525 4666 
z
" transform="scale(0.015625)"/>
        <path id="DejaVuSans-35" d="M 691 4666 
L 3169 4666 
L 3169 4134 
L 1269 4134 
L 1269 2991 
Q 1406 3038 1543 3061 
Q 1681 3084 1819 3084 
Q 2600 3084 3056 2656 
Q 3513 2228 3513 1497 
Q 3513 744 3044 326 
Q 2575 -91 1722 -91 
Q 1428 -91 1123 -41 
Q 819 9 494 109 
L 494 744 
Q 775 591 1075 516 
Q 1375 441 1709 441 
Q 2250 441 2565 725 
Q 2881 1009 2881 1497 
Q 2881 1984 2565 2268 
Q 2250 2553 1709 2553 
Q 1456 2553 1204 2497 
Q 953 2441 691 2322 
L 691 4666 
z
" transform="scale(0.015625)"/>
       </defs>
       <use xlink:href="#DejaVuSans-2212"/>
       <use xlink:href="#DejaVuSans-37" transform="translate(83.789062 0)"/>
       <use xlink:href="#DejaVuSans-2e" transform="translate(147.412109 0)"/>
       <use xlink:href="#DejaVuSans-35" transform="translate(179.199219 0)"/>
      </g>
     </g>
    </g>
    <g id="xtick_3">
     <g id="line2d_5">
      <path d="M 186.968182 250.44375 
L 186.968182 22.318125 
" clip-path="url(#p3d51b0f073)" style="fill: none; stroke-dasharray: 2.96,1.28; stroke-dashoffset: 0; stroke: #b0b0b0; stroke-opacity: 0.8; stroke-width: 0.8"/>
     </g>
     <g id="line2d_6">
      <g>
       <use xlink:href="#m36d085ae3e" x="186.968182" y="250.44375" style="stroke: #000000; stroke-width: 0.8"/>
      </g>
     </g>
     <g id="text_3">
      <!-- −5.0 -->
      <g transform="translate(174.826776 265.042188) scale(0.1 -0.1)">
       <use xlink:href="#DejaVuSans-2212"/>
       <use xlink:href="#DejaVuSans-35" transform="translate(83.789062 0)"/>
       <use xlink:href="#DejaVuSans-2e" transform="translate(147.412109 0)"/>
       <use xlink:href="#DejaVuSans-30" transform="translate(179.199219 0)"/>
      </g>
     </g>
    </g>
    <g id="xtick_4">
     <g id="line2d_7">
      <path d="M 246.629403 250.44375 
L 246.629403 22.318125 
" clip-path="url(#p3d51b0f073)" style="fill: none; stroke-dasharray: 2.96,1.28; stroke-dashoffset: 0; stroke: #b0b0b0; stroke-opacity: 0.8; stroke-width: 0.8"/>
     </g>
     <g id="line2d_8">
      <g>
       <use xlink:href="#m36d085ae3e" x="246.629403" y="250.44375" style="stroke: #000000; stroke-width: 0.8"/>
      </g>
     </g>
     <g id="text_4">
      <!-- −2.5 -->
      <g transform="translate(234.487997 265.042188) scale(0.1 -0.1)">
       <defs>
        <path id="DejaVuSans-32" d="M 1228 531 
L 3431 531 
L 3431 0 
L 469 0 
L 469 531 
Q 828 903 1448 1529 
Q 2069 2156 2228 2338 
Q 2531 2678 2651 2914 
Q 2772 3150 2772 3378 
Q 2772 3750 2511 3984 
Q 2250 4219 1831 4219 
Q 1534 4219 1204 4116 
Q 875 4013 500 3803 
L 500 4441 
Q 881 4594 1212 4672 
Q 1544 4750 1819 4750 
Q 2544 4750 2975 4387 
Q 3406 4025 3406 3419 
Q 3406 3131 3298 2873 
Q 3191 2616 2906 2266 
Q 2828 2175 2409 1742 
Q 1991 1309 1228 531 
z
" transform="scale(0.015625)"/>
       </defs>
       <use xlink:href="#DejaVuSans-2212"/>
       <use xlink:href="#DejaVuSans-32" transform="translate(83.789062 0)"/>
       <use xlink:href="#DejaVuSans-2e" transform="translate(147.412109 0)"/>
       <use xlink:href="#DejaVuSans-35" transform="translate(179.199219 0)"/>
      </g>
     </g>
    </g>
    <g id="xtick_5">
     <g id="line2d_9">
      <path d="M 306.290625 250.44375 
L 306.290625 22.318125 
" clip-path="url(#p3d51b0f073)" style="fill: none; stroke-dasharray: 2.96,1.28; stroke-dashoffset: 0; stroke: #b0b0b0; stroke-opacity: 0.8; stroke-width: 0.8"/>
     </g>
     <g id="line2d_10">
      <g>
       <use xlink:href="#m36d085ae3e" x="306.290625" y="250.44375" style="stroke: #000000; stroke-width: 0.8"/>
      </g>
     </g>
     <g id="text_5">
      <!-- 0.0 -->
      <g transform="translate(298.339063 265.042188) scale(0.1 -0.1)">
       <use xlink:href="#DejaVuSans-30"/>
       <use xlink:href="#DejaVuSans-2e" transform="translate(63.623047 0)"/>
       <use xlink:href="#DejaVuSans-30" transform="translate(95.410156 0)"/>
      </g>
     </g>
    </g>
    <g id="xtick_6">
     <g id="line2d_11">
      <path d="M 365.951847 250.44375 
L 365.951847 22.318125 
" clip-path="url(#p3d51b0f073)" style="fill: none; stroke-dasharray: 2.96,1.28; stroke-dashoffset: 0; stroke: #b0b0b0; stroke-opacity: 0.8; stroke-width: 0.8"/>
     </g>
     <g id="line2d_12">
      <g>
       <use xlink:href="#m36d085ae3e" x="365.951847" y="250.44375" style="stroke: #000000; stroke-width: 0.8"/>
      </g>
     </g>
     <g id="text_6">
      <!-- 2.5 -->
      <g transform="translate(358.000284 265.042188) scale(0.1 -0.1)">
       <use xlink:href="#DejaVuSans-32"/>
       <use xlink:href="#DejaVuSans-2e" transform="translate(63.623047 0)"/>
       <use xlink:href="#DejaVuSans-35" transform="translate(95.410156 0)"/>
      </g>
     </g>
    </g>
    <g id="xtick_7">
     <g id="line2d_13">
      <path d="M 425.613068 250.44375 
L 425.613068 22.318125 
" clip-path="url(#p3d51b0f073)" style="fill: none; stroke-dasharray: 2.96,1.28; stroke-dashoffset: 0; stroke: #b0b0b0; stroke-opacity: 0.8; stroke-width: 0.8"/>
     </g>
     <g id="line2d_14">
      <g>
       <use xlink:href="#m36d085ae3e" x="425.613068" y="250.44375" style="stroke: #000000; stroke-width: 0.8"/>
      </g>
     </g>
     <g id="text_7">
      <!-- 5.0 -->
      <g transform="translate(417.661506 265.042188) scale(0.1 -0.1)">
       <use xlink:href="#DejaVuSans-35"/>
       <use xlink:href="#DejaVuSans-2e" transform="translate(63.623047 0)"/>
       <use xlink:href="#DejaVuSans-30" transform="translate(95.410156 0)"/>
      </g>
     </g>
    </g>
    <g id="xtick_8">
     <g id="line2d_15">
      <path d="M 485.27429 250.44375 
L 485.27429 22.318125 
" clip-path="url(#p3d51b0f073)" style="fill: none; stroke-dasharray: 2.96,1.28; stroke-dashoffset: 0; stroke: #b0b0b0; stroke-opacity: 0.8; stroke-width: 0.8"/>
     </g>
     <g id="line2d_16">
      <g>
       <use xlink:href="#m36d085ae3e" x="485.27429" y="250.44375" style="stroke: #000000; stroke-width: 0.8"/>
      </g>
     </g>
     <g id="text_8">
      <!-- 7.5 -->
      <g transform="translate(477.322727 265.042188) scale(0.1 -0.1)">
       <use xlink:href="#DejaVuSans-37"/>
       <use xlink:href="#DejaVuSans-2e" transform="translate(63.623047 0)"/>
       <use xlink:href="#DejaVuSans-35" transform="translate(95.410156 0)"/>
      </g>
     </g>
    </g>
    <g id="xtick_9">
     <g id="line2d_17">
      <path d="M 544.935511 250.44375 
L 544.935511 22.318125 
" clip-path="url(#p3d51b0f073)" style="fill: none; stroke-dasharray: 2.96,1.28; stroke-dashoffset: 0; stroke: #b0b0b0; stroke-opacity: 0.8; stroke-width: 0.8"/>
     </g>
     <g id="line2d_18">
      <g>
       <use xlink:href="#m36d085ae3e" x="544.935511" y="250.44375" style="stroke: #000000; stroke-width: 0.8"/>
      </g>
     </g>
     <g id="text_9">
      <!-- 10.0 -->
      <g transform="translate(533.802699 265.042188) scale(0.1 -0.1)">
       <use xlink:href="#DejaVuSans-31"/>
       <use xlink:href="#DejaVuSans-30" transform="translate(63.623047 0)"/>
       <use xlink:href="#DejaVuSans-2e" transform="translate(127.246094 0)"/>
       <use xlink:href="#DejaVuSans-30" transform="translate(159.033203 0)"/>
      </g>
     </g>
    </g>
    <g id="text_10">
     <!-- Random variable -->
     <g transform="translate(263.83125 278.720312) scale(0.1 -0.1)">
      <defs>
       <path id="DejaVuSans-52" d="M 2841 2188 
Q 3044 2119 3236 1894 
Q 3428 1669 3622 1275 
L 4263 0 
L 3584 0 
L 2988 1197 
Q 2756 1666 2539 1819 
Q 2322 1972 1947 1972 
L 1259 1972 
L 1259 0 
L 628 0 
L 628 4666 
L 2053 4666 
Q 2853 4666 3247 4331 
Q 3641 3997 3641 3322 
Q 3641 2881 3436 2590 
Q 3231 2300 2841 2188 
z
M 1259 4147 
L 1259 2491 
L 2053 2491 
Q 2509 2491 2742 2702 
Q 2975 2913 2975 3322 
Q 2975 3731 2742 3939 
Q 2509 4147 2053 4147 
L 1259 4147 
z
" transform="scale(0.015625)"/>
       <path id="DejaVuSans-61" d="M 2194 1759 
Q 1497 1759 1228 1600 
Q 959 1441 959 1056 
Q 959 750 1161 570 
Q 1363 391 1709 391 
Q 2188 391 2477 730 
Q 2766 1069 2766 1631 
L 2766 1759 
L 2194 1759 
z
M 3341 1997 
L 3341 0 
L 2766 0 
L 2766 531 
Q 2569 213 2275 61 
Q 1981 -91 1556 -91 
Q 1019 -91 701 211 
Q 384 513 384 1019 
Q 384 1609 779 1909 
Q 1175 2209 1959 2209 
L 2766 2209 
L 2766 2266 
Q 2766 2663 2505 2880 
Q 2244 3097 1772 3097 
Q 1472 3097 1187 3025 
Q 903 2953 641 2809 
L 641 3341 
Q 956 3463 1253 3523 
Q 1550 3584 1831 3584 
Q 2591 3584 2966 3190 
Q 3341 2797 3341 1997 
z
" transform="scale(0.015625)"/>
       <path id="DejaVuSans-6e" d="M 3513 2113 
L 3513 0 
L 2938 0 
L 2938 2094 
Q 2938 2591 2744 2837 
Q 2550 3084 2163 3084 
Q 1697 3084 1428 2787 
Q 1159 2491 1159 1978 
L 1159 0 
L 581 0 
L 581 3500 
L 1159 3500 
L 1159 2956 
Q 1366 3272 1645 3428 
Q 1925 3584 2291 3584 
Q 2894 3584 3203 3211 
Q 3513 2838 3513 2113 
z
" transform="scale(0.015625)"/>
       <path id="DejaVuSans-64" d="M 2906 2969 
L 2906 4863 
L 3481 4863 
L 3481 0 
L 2906 0 
L 2906 525 
Q 2725 213 2448 61 
Q 2172 -91 1784 -91 
Q 1150 -91 751 415 
Q 353 922 353 1747 
Q 353 2572 751 3078 
Q 1150 3584 1784 3584 
Q 2172 3584 2448 3432 
Q 2725 3281 2906 2969 
z
M 947 1747 
Q 947 1113 1208 752 
Q 1469 391 1925 391 
Q 2381 391 2643 752 
Q 2906 1113 2906 1747 
Q 2906 2381 2643 2742 
Q 2381 3103 1925 3103 
Q 1469 3103 1208 2742 
Q 947 2381 947 1747 
z
" transform="scale(0.015625)"/>
       <path id="DejaVuSans-6f" d="M 1959 3097 
Q 1497 3097 1228 2736 
Q 959 2375 959 1747 
Q 959 1119 1226 758 
Q 1494 397 1959 397 
Q 2419 397 2687 759 
Q 2956 1122 2956 1747 
Q 2956 2369 2687 2733 
Q 2419 3097 1959 3097 
z
M 1959 3584 
Q 2709 3584 3137 3096 
Q 3566 2609 3566 1747 
Q 3566 888 3137 398 
Q 2709 -91 1959 -91 
Q 1206 -91 779 398 
Q 353 888 353 1747 
Q 353 2609 779 3096 
Q 1206 3584 1959 3584 
z
" transform="scale(0.015625)"/>
       <path id="DejaVuSans-6d" d="M 3328 2828 
Q 3544 3216 3844 3400 
Q 4144 3584 4550 3584 
Q 5097 3584 5394 3201 
Q 5691 2819 5691 2113 
L 5691 0 
L 5113 0 
L 5113 2094 
Q 5113 2597 4934 2840 
Q 4756 3084 4391 3084 
Q 3944 3084 3684 2787 
Q 3425 2491 3425 1978 
L 3425 0 
L 2847 0 
L 2847 2094 
Q 2847 2600 2669 2842 
Q 2491 3084 2119 3084 
Q 1678 3084 1418 2786 
Q 1159 2488 1159 1978 
L 1159 0 
L 581 0 
L 581 3500 
L 1159 3500 
L 1159 2956 
Q 1356 3278 1631 3431 
Q 1906 3584 2284 3584 
Q 2666 3584 2933 3390 
Q 3200 3197 3328 2828 
z
" transform="scale(0.015625)"/>
       <path id="DejaVuSans-20" transform="scale(0.015625)"/>
       <path id="DejaVuSans-76" d="M 191 3500 
L 800 3500 
L 1894 563 
L 2988 3500 
L 3597 3500 
L 2284 0 
L 1503 0 
L 191 3500 
z
" transform="scale(0.015625)"/>
       <path id="DejaVuSans-72" d="M 2631 2963 
Q 2534 3019 2420 3045 
Q 2306 3072 2169 3072 
Q 1681 3072 1420 2755 
Q 1159 2438 1159 1844 
L 1159 0 
L 581 0 
L 581 3500 
L 1159 3500 
L 1159 2956 
Q 1341 3275 1631 3429 
Q 1922 3584 2338 3584 
Q 2397 3584 2469 3576 
Q 2541 3569 2628 3553 
L 2631 2963 
z
" transform="scale(0.015625)"/>
       <path id="DejaVuSans-69" d="M 603 3500 
L 1178 3500 
L 1178 0 
L 603 0 
L 603 3500 
z
M 603 4863 
L 1178 4863 
L 1178 4134 
L 603 4134 
L 603 4863 
z
" transform="scale(0.015625)"/>
       <path id="DejaVuSans-62" d="M 3116 1747 
Q 3116 2381 2855 2742 
Q 2594 3103 2138 3103 
Q 1681 3103 1420 2742 
Q 1159 2381 1159 1747 
Q 1159 1113 1420 752 
Q 1681 391 2138 391 
Q 2594 391 2855 752 
Q 3116 1113 3116 1747 
z
M 1159 2969 
Q 1341 3281 1617 3432 
Q 1894 3584 2278 3584 
Q 2916 3584 3314 3078 
Q 3713 2572 3713 1747 
Q 3713 922 3314 415 
Q 2916 -91 2278 -91 
Q 1894 -91 1617 61 
Q 1341 213 1159 525 
L 1159 0 
L 581 0 
L 581 4863 
L 1159 4863 
L 1159 2969 
z
" transform="scale(0.015625)"/>
       <path id="DejaVuSans-6c" d="M 603 4863 
L 1178 4863 
L 1178 0 
L 603 0 
L 603 4863 
z
" transform="scale(0.015625)"/>
       <path id="DejaVuSans-65" d="M 3597 1894 
L 3597 1613 
L 953 1613 
Q 991 1019 1311 708 
Q 1631 397 2203 397 
Q 2534 397 2845 478 
Q 3156 559 3463 722 
L 3463 178 
Q 3153 47 2828 -22 
Q 2503 -91 2169 -91 
Q 1331 -91 842 396 
Q 353 884 353 1716 
Q 353 2575 817 3079 
Q 1281 3584 2069 3584 
Q 2775 3584 3186 3129 
Q 3597 2675 3597 1894 
z
M 3022 2063 
Q 3016 2534 2758 2815 
Q 2500 3097 2075 3097 
Q 1594 3097 1305 2825 
Q 1016 2553 972 2059 
L 3022 2063 
z
" transform="scale(0.015625)"/>
      </defs>
      <use xlink:href="#DejaVuSans-52"/>
      <use xlink:href="#DejaVuSans-61" transform="translate(67.232422 0)"/>
      <use xlink:href="#DejaVuSans-6e" transform="translate(128.511719 0)"/>
      <use xlink:href="#DejaVuSans-64" transform="translate(191.890625 0)"/>
      <use xlink:href="#DejaVuSans-6f" transform="translate(255.367188 0)"/>
      <use xlink:href="#DejaVuSans-6d" transform="translate(316.548828 0)"/>
      <use xlink:href="#DejaVuSans-20" transform="translate(413.960938 0)"/>
      <use xlink:href="#DejaVuSans-76" transform="translate(445.748047 0)"/>
      <use xlink:href="#DejaVuSans-61" transform="translate(504.927734 0)"/>
      <use xlink:href="#DejaVuSans-72" transform="translate(566.207031 0)"/>
      <use xlink:href="#DejaVuSans-69" transform="translate(607.320312 0)"/>
      <use xlink:href="#DejaVuSans-61" transform="translate(635.103516 0)"/>
      <use xlink:href="#DejaVuSans-62" transform="translate(696.382812 0)"/>
      <use xlink:href="#DejaVuSans-6c" transform="translate(759.859375 0)"/>
      <use xlink:href="#DejaVuSans-65" transform="translate(787.642578 0)"/>
     </g>
    </g>
   </g>
   <g id="matplotlib.axis_2">
    <g id="ytick_1">
     <g id="line2d_19">
      <path d="M 43.78125 250.44375 
L 568.8 250.44375 
" clip-path="url(#p3d51b0f073)" style="fill: none; stroke-dasharray: 2.96,1.28; stroke-dashoffset: 0; stroke: #b0b0b0; stroke-opacity: 0.8; stroke-width: 0.8"/>
     </g>
     <g id="line2d_20">
      <defs>
       <path id="m84f4825911" d="M 0 0 
L -3.5 0 
" style="stroke: #000000; stroke-width: 0.8"/>
      </defs>
      <g>
       <use xlink:href="#m84f4825911" x="43.78125" y="250.44375" style="stroke: #000000; stroke-width: 0.8"/>
      </g>
     </g>
     <g id="text_11">
      <!-- 0.0 -->
      <g transform="translate(20.878125 254.242969) scale(0.1 -0.1)">
       <use xlink:href="#DejaVuSans-30"/>
       <use xlink:href="#DejaVuSans-2e" transform="translate(63.623047 0)"/>
       <use xlink:href="#DejaVuSans-30" transform="translate(95.410156 0)"/>
      </g>
     </g>
    </g>
    <g id="ytick_2">
     <g id="line2d_21">
      <path d="M 43.78125 214.623219 
L 568.8 214.623219 
" clip-path="url(#p3d51b0f073)" style="fill: none; stroke-dasharray: 2.96,1.28; stroke-dashoffset: 0; stroke: #b0b0b0; stroke-opacity: 0.8; stroke-width: 0.8"/>
     </g>
     <g id="line2d_22">
      <g>
       <use xlink:href="#m84f4825911" x="43.78125" y="214.623219" style="stroke: #000000; stroke-width: 0.8"/>
      </g>
     </g>
     <g id="text_12">
      <!-- 0.1 -->
      <g transform="translate(20.878125 218.422438) scale(0.1 -0.1)">
       <use xlink:href="#DejaVuSans-30"/>
       <use xlink:href="#DejaVuSans-2e" transform="translate(63.623047 0)"/>
       <use xlink:href="#DejaVuSans-31" transform="translate(95.410156 0)"/>
      </g>
     </g>
    </g>
    <g id="ytick_3">
     <g id="line2d_23">
      <path d="M 43.78125 178.802689 
L 568.8 178.802689 
" clip-path="url(#p3d51b0f073)" style="fill: none; stroke-dasharray: 2.96,1.28; stroke-dashoffset: 0; stroke: #b0b0b0; stroke-opacity: 0.8; stroke-width: 0.8"/>
     </g>
     <g id="line2d_24">
      <g>
       <use xlink:href="#m84f4825911" x="43.78125" y="178.802689" style="stroke: #000000; stroke-width: 0.8"/>
      </g>
     </g>
     <g id="text_13">
      <!-- 0.2 -->
      <g transform="translate(20.878125 182.601908) scale(0.1 -0.1)">
       <use xlink:href="#DejaVuSans-30"/>
       <use xlink:href="#DejaVuSans-2e" transform="translate(63.623047 0)"/>
       <use xlink:href="#DejaVuSans-32" transform="translate(95.410156 0)"/>
      </g>
     </g>
    </g>
    <g id="ytick_4">
     <g id="line2d_25">
      <path d="M 43.78125 142.982158 
L 568.8 142.982158 
" clip-path="url(#p3d51b0f073)" style="fill: none; stroke-dasharray: 2.96,1.28; stroke-dashoffset: 0; stroke: #b0b0b0; stroke-opacity: 0.8; stroke-width: 0.8"/>
     </g>
     <g id="line2d_26">
      <g>
       <use xlink:href="#m84f4825911" x="43.78125" y="142.982158" style="stroke: #000000; stroke-width: 0.8"/>
      </g>
     </g>
     <g id="text_14">
      <!-- 0.3 -->
      <g transform="translate(20.878125 146.781377) scale(0.1 -0.1)">
       <defs>
        <path id="DejaVuSans-33" d="M 2597 2516 
Q 3050 2419 3304 2112 
Q 3559 1806 3559 1356 
Q 3559 666 3084 287 
Q 2609 -91 1734 -91 
Q 1441 -91 1130 -33 
Q 819 25 488 141 
L 488 750 
Q 750 597 1062 519 
Q 1375 441 1716 441 
Q 2309 441 2620 675 
Q 2931 909 2931 1356 
Q 2931 1769 2642 2001 
Q 2353 2234 1838 2234 
L 1294 2234 
L 1294 2753 
L 1863 2753 
Q 2328 2753 2575 2939 
Q 2822 3125 2822 3475 
Q 2822 3834 2567 4026 
Q 2313 4219 1838 4219 
Q 1578 4219 1281 4162 
Q 984 4106 628 3988 
L 628 4550 
Q 988 4650 1302 4700 
Q 1616 4750 1894 4750 
Q 2613 4750 3031 4423 
Q 3450 4097 3450 3541 
Q 3450 3153 3228 2886 
Q 3006 2619 2597 2516 
z
" transform="scale(0.015625)"/>
       </defs>
       <use xlink:href="#DejaVuSans-30"/>
       <use xlink:href="#DejaVuSans-2e" transform="translate(63.623047 0)"/>
       <use xlink:href="#DejaVuSans-33" transform="translate(95.410156 0)"/>
      </g>
     </g>
    </g>
    <g id="ytick_5">
     <g id="line2d_27">
      <path d="M 43.78125 107.161628 
L 568.8 107.161628 
" clip-path="url(#p3d51b0f073)" style="fill: none; stroke-dasharray: 2.96,1.28; stroke-dashoffset: 0; stroke: #b0b0b0; stroke-opacity: 0.8; stroke-width: 0.8"/>
     </g>
     <g id="line2d_28">
      <g>
       <use xlink:href="#m84f4825911" x="43.78125" y="107.161628" style="stroke: #000000; stroke-width: 0.8"/>
      </g>
     </g>
     <g id="text_15">
      <!-- 0.4 -->
      <g transform="translate(20.878125 110.960847) scale(0.1 -0.1)">
       <defs>
        <path id="DejaVuSans-34" d="M 2419 4116 
L 825 1625 
L 2419 1625 
L 2419 4116 
z
M 2253 4666 
L 3047 4666 
L 3047 1625 
L 3713 1625 
L 3713 1100 
L 3047 1100 
L 3047 0 
L 2419 0 
L 2419 1100 
L 313 1100 
L 313 1709 
L 2253 4666 
z
" transform="scale(0.015625)"/>
       </defs>
       <use xlink:href="#DejaVuSans-30"/>
       <use xlink:href="#DejaVuSans-2e" transform="translate(63.623047 0)"/>
       <use xlink:href="#DejaVuSans-34" transform="translate(95.410156 0)"/>
      </g>
     </g>
    </g>
    <g id="ytick_6">
     <g id="line2d_29">
      <path d="M 43.78125 71.341097 
L 568.8 71.341097 
" clip-path="url(#p3d51b0f073)" style="fill: none; stroke-dasharray: 2.96,1.28; stroke-dashoffset: 0; stroke: #b0b0b0; stroke-opacity: 0.8; stroke-width: 0.8"/>
     </g>
     <g id="line2d_30">
      <g>
       <use xlink:href="#m84f4825911" x="43.78125" y="71.341097" style="stroke: #000000; stroke-width: 0.8"/>
      </g>
     </g>
     <g id="text_16">
      <!-- 0.5 -->
      <g transform="translate(20.878125 75.140316) scale(0.1 -0.1)">
       <use xlink:href="#DejaVuSans-30"/>
       <use xlink:href="#DejaVuSans-2e" transform="translate(63.623047 0)"/>
       <use xlink:href="#DejaVuSans-35" transform="translate(95.410156 0)"/>
      </g>
     </g>
    </g>
    <g id="ytick_7">
     <g id="line2d_31">
      <path d="M 43.78125 35.520567 
L 568.8 35.520567 
" clip-path="url(#p3d51b0f073)" style="fill: none; stroke-dasharray: 2.96,1.28; stroke-dashoffset: 0; stroke: #b0b0b0; stroke-opacity: 0.8; stroke-width: 0.8"/>
     </g>
     <g id="line2d_32">
      <g>
       <use xlink:href="#m84f4825911" x="43.78125" y="35.520567" style="stroke: #000000; stroke-width: 0.8"/>
      </g>
     </g>
     <g id="text_17">
      <!-- 0.6 -->
      <g transform="translate(20.878125 39.319786) scale(0.1 -0.1)">
       <defs>
        <path id="DejaVuSans-36" d="M 2113 2584 
Q 1688 2584 1439 2293 
Q 1191 2003 1191 1497 
Q 1191 994 1439 701 
Q 1688 409 2113 409 
Q 2538 409 2786 701 
Q 3034 994 3034 1497 
Q 3034 2003 2786 2293 
Q 2538 2584 2113 2584 
z
M 3366 4563 
L 3366 3988 
Q 3128 4100 2886 4159 
Q 2644 4219 2406 4219 
Q 1781 4219 1451 3797 
Q 1122 3375 1075 2522 
Q 1259 2794 1537 2939 
Q 1816 3084 2150 3084 
Q 2853 3084 3261 2657 
Q 3669 2231 3669 1497 
Q 3669 778 3244 343 
Q 2819 -91 2113 -91 
Q 1303 -91 875 529 
Q 447 1150 447 2328 
Q 447 3434 972 4092 
Q 1497 4750 2381 4750 
Q 2619 4750 2861 4703 
Q 3103 4656 3366 4563 
z
" transform="scale(0.015625)"/>
       </defs>
       <use xlink:href="#DejaVuSans-30"/>
       <use xlink:href="#DejaVuSans-2e" transform="translate(63.623047 0)"/>
       <use xlink:href="#DejaVuSans-36" transform="translate(95.410156 0)"/>
      </g>
     </g>
    </g>
    <g id="text_18">
     <!-- Probability density -->
     <g transform="translate(14.798438 182.731719) rotate(-90) scale(0.1 -0.1)">
      <defs>
       <path id="DejaVuSans-50" d="M 1259 4147 
L 1259 2394 
L 2053 2394 
Q 2494 2394 2734 2622 
Q 2975 2850 2975 3272 
Q 2975 3691 2734 3919 
Q 2494 4147 2053 4147 
L 1259 4147 
z
M 628 4666 
L 2053 4666 
Q 2838 4666 3239 4311 
Q 3641 3956 3641 3272 
Q 3641 2581 3239 2228 
Q 2838 1875 2053 1875 
L 1259 1875 
L 1259 0 
L 628 0 
L 628 4666 
z
" transform="scale(0.015625)"/>
       <path id="DejaVuSans-74" d="M 1172 4494 
L 1172 3500 
L 2356 3500 
L 2356 3053 
L 1172 3053 
L 1172 1153 
Q 1172 725 1289 603 
Q 1406 481 1766 481 
L 2356 481 
L 2356 0 
L 1766 0 
Q 1100 0 847 248 
Q 594 497 594 1153 
L 594 3053 
L 172 3053 
L 172 3500 
L 594 3500 
L 594 4494 
L 1172 4494 
z
" transform="scale(0.015625)"/>
       <path id="DejaVuSans-79" d="M 2059 -325 
Q 1816 -950 1584 -1140 
Q 1353 -1331 966 -1331 
L 506 -1331 
L 506 -850 
L 844 -850 
Q 1081 -850 1212 -737 
Q 1344 -625 1503 -206 
L 1606 56 
L 191 3500 
L 800 3500 
L 1894 763 
L 2988 3500 
L 3597 3500 
L 2059 -325 
z
" transform="scale(0.015625)"/>
       <path id="DejaVuSans-73" d="M 2834 3397 
L 2834 2853 
Q 2591 2978 2328 3040 
Q 2066 3103 1784 3103 
Q 1356 3103 1142 2972 
Q 928 2841 928 2578 
Q 928 2378 1081 2264 
Q 1234 2150 1697 2047 
L 1894 2003 
Q 2506 1872 2764 1633 
Q 3022 1394 3022 966 
Q 3022 478 2636 193 
Q 2250 -91 1575 -91 
Q 1294 -91 989 -36 
Q 684 19 347 128 
L 347 722 
Q 666 556 975 473 
Q 1284 391 1588 391 
Q 1994 391 2212 530 
Q 2431 669 2431 922 
Q 2431 1156 2273 1281 
Q 2116 1406 1581 1522 
L 1381 1569 
Q 847 1681 609 1914 
Q 372 2147 372 2553 
Q 372 3047 722 3315 
Q 1072 3584 1716 3584 
Q 2034 3584 2315 3537 
Q 2597 3491 2834 3397 
z
" transform="scale(0.015625)"/>
      </defs>
      <use xlink:href="#DejaVuSans-50"/>
      <use xlink:href="#DejaVuSans-72" transform="translate(58.552734 0)"/>
      <use xlink:href="#DejaVuSans-6f" transform="translate(97.416016 0)"/>
      <use xlink:href="#DejaVuSans-62" transform="translate(158.597656 0)"/>
      <use xlink:href="#DejaVuSans-61" transform="translate(222.074219 0)"/>
      <use xlink:href="#DejaVuSans-62" transform="translate(283.353516 0)"/>
      <use xlink:href="#DejaVuSans-69" transform="translate(346.830078 0)"/>
      <use xlink:href="#DejaVuSans-6c" transform="translate(374.613281 0)"/>
      <use xlink:href="#DejaVuSans-69" transform="translate(402.396484 0)"/>
      <use xlink:href="#DejaVuSans-74" transform="translate(430.179688 0)"/>
      <use xlink:href="#DejaVuSans-79" transform="translate(469.388672 0)"/>
      <use xlink:href="#DejaVuSans-20" transform="translate(528.568359 0)"/>
      <use xlink:href="#DejaVuSans-64" transform="translate(560.355469 0)"/>
      <use xlink:href="#DejaVuSans-65" transform="translate(623.832031 0)"/>
      <use xlink:href="#DejaVuSans-6e" transform="translate(685.355469 0)"/>
      <use xlink:href="#DejaVuSans-73" transform="translate(748.734375 0)"/>
      <use xlink:href="#DejaVuSans-69" transform="translate(800.833984 0)"/>
      <use xlink:href="#DejaVuSans-74" transform="translate(828.617188 0)"/>
      <use xlink:href="#DejaVuSans-79" transform="translate(867.826172 0)"/>
     </g>
    </g>
   </g>
   <g id="line2d_33">
    <path d="M 67.645739 250.44375 
L 306.290625 250.44375 
L 311.063523 180.221277 
L 313.927261 141.539178 
L 316.31371 112.698532 
L 318.222869 92.386214 
L 320.132028 74.84894 
L 321.563898 63.647361 
L 322.995767 54.185507 
L 324.427636 46.494854 
L 325.382216 42.3554 
L 326.336795 39.001288 
L 327.291375 36.42301 
L 328.245955 34.606491 
L 329.200534 33.533363 
L 329.677824 33.268726 
L 330.155114 33.18125 
L 330.632403 33.267567 
L 331.109693 33.524099 
L 331.586983 33.947071 
L 332.541563 35.276318 
L 333.496142 37.221604 
L 334.450722 39.746822 
L 335.405301 42.813852 
L 336.83717 48.342991 
L 338.26904 54.862496 
L 340.178199 64.849438 
L 342.564648 78.938027 
L 345.428386 97.357339 
L 353.542313 150.560386 
L 356.406051 167.509872 
L 358.7925 180.368921 
L 361.178949 191.944413 
L 363.088108 200.244164 
L 364.997267 207.689541 
L 366.906426 214.301217 
L 368.815585 220.11547 
L 370.724744 225.180316 
L 372.633903 229.55194 
L 374.543063 233.291525 
L 376.452222 236.462518 
L 378.361381 239.128367 
L 380.27054 241.350718 
L 382.179699 243.188049 
L 384.088858 244.694706 
L 385.998017 245.92029 
L 387.907176 246.909338 
L 390.293625 247.872564 
L 392.680074 248.59339 
L 395.543813 249.214515 
L 398.884841 249.69568 
L 403.180449 250.06067 
L 408.907926 250.294969 
L 417.976432 250.414351 
L 444.227369 250.443635 
L 544.935511 250.44375 
L 544.935511 250.44375 
" clip-path="url(#p3d51b0f073)" style="fill: none; stroke: #1f77b4; stroke-linecap: square"/>
   </g>
   <g id="line2d_34">
    <path d="M 67.645739 250.44375 
L 306.767915 250.364108 
L 312.018102 249.391619 
L 315.359131 248.541379 
L 318.222869 247.552334 
L 320.609318 246.476021 
L 322.995767 245.110285 
L 324.904926 243.768954 
L 326.814085 242.171864 
L 328.723244 240.286436 
L 330.632403 238.080272 
L 332.541563 235.522026 
L 334.450722 232.582448 
L 336.359881 229.235563 
L 338.26904 225.45997 
L 340.178199 221.240204 
L 342.564648 215.32928 
L 344.951097 208.715736 
L 347.337545 201.427904 
L 350.201284 191.873583 
L 353.542313 179.812344 
L 358.31521 161.569787 
L 363.565398 141.65658 
L 366.429136 131.623164 
L 368.815585 124.058404 
L 370.724744 118.677745 
L 372.633903 113.999677 
L 374.065773 111.004701 
L 375.497642 108.485444 
L 376.929511 106.468657 
L 377.884091 105.414097 
L 378.83867 104.597458 
L 379.79325 104.02253 
L 380.74783 103.691908 
L 381.702409 103.606972 
L 382.656989 103.767878 
L 383.611568 104.173556 
L 384.566148 104.821723 
L 385.520727 105.708904 
L 386.475307 106.830459 
L 387.907176 108.939348 
L 389.339045 111.538445 
L 390.770915 114.598847 
L 392.680074 119.33873 
L 394.589233 124.749483 
L 396.975682 132.305048 
L 399.83942 142.259566 
L 403.657739 156.435672 
L 410.817085 183.148229 
L 414.158114 194.658723 
L 417.021852 203.69682 
L 419.408301 210.550574 
L 421.79475 216.745423 
L 424.181199 222.267318 
L 426.090358 226.204489 
L 427.999517 229.72707 
L 429.908676 232.852773 
L 431.817835 235.603872 
L 433.726994 238.005973 
L 435.636153 240.086877 
L 437.545313 241.875555 
L 439.454472 243.401262 
L 441.363631 244.692791 
L 443.75008 246.020002 
L 446.136528 247.075268 
L 448.522977 247.904685 
L 451.386716 248.65911 
L 454.727744 249.282571 
L 458.546063 249.750277 
L 463.31896 250.092697 
L 470.001017 250.317293 
L 480.978682 250.423853 
L 519.161864 250.443744 
L 544.935511 250.44375 
L 544.935511 250.44375 
" clip-path="url(#p3d51b0f073)" style="fill: none; stroke: #ff7f0e; stroke-linecap: square"/>
   </g>
   <g id="line2d_35">
    <path d="M 67.645739 250.44375 
L 159.762665 250.338652 
L 167.399301 250.136525 
L 175.035938 249.625104 
L 181.717994 248.627825 
L 183.627153 248.215311 
L 186.013602 247.540284 
L 187.922761 246.924931 
L 188.877341 246.537366 
L 190.30921 245.934467 
L 191.26379 245.45746 
L 192.218369 245.046127 
L 193.172949 244.492663 
L 193.650239 244.258522 
L 194.604818 243.639823 
L 195.082108 243.378564 
L 196.036688 242.68949 
L 196.513977 242.399048 
L 197.468557 241.634435 
L 197.945847 241.312747 
L 198.900426 240.467466 
L 199.377716 240.112499 
L 199.855006 239.561482 
L 200.809585 238.791304 
L 201.286875 238.186372 
L 202.241455 237.342431 
L 202.718744 236.680813 
L 203.673324 235.759539 
L 204.150614 235.038663 
L 205.105193 234.036794 
L 205.582483 233.25435 
L 206.537063 232.169003 
L 207.014352 231.322994 
L 207.968932 230.151747 
L 208.446222 229.240548 
L 209.400801 227.981514 
L 209.878091 227.003933 
L 210.83267 225.655838 
L 211.30996 224.61117 
L 212.26454 223.173426 
L 212.74183 222.061508 
L 213.696409 220.534288 
L 214.173699 219.355554 
L 215.605568 216.913297 
L 216.082858 215.650329 
L 217.037438 213.923769 
L 217.514727 212.597449 
L 218.469307 210.788095 
L 218.946597 209.401111 
L 219.901176 207.51304 
L 220.378466 206.068828 
L 221.333045 204.107133 
L 221.810335 202.609894 
L 222.764915 200.580687 
L 223.242205 199.035391 
L 224.196784 196.945809 
L 224.674074 195.358187 
L 225.628653 193.216371 
L 226.105943 191.592897 
L 227.060523 189.407958 
L 227.537813 187.755816 
L 228.492392 185.537787 
L 228.969682 183.864831 
L 229.924261 181.624602 
L 230.401551 179.939298 
L 231.356131 177.688531 
L 231.83342 175.999892 
L 232.788 173.750931 
L 233.26529 172.068436 
L 234.219869 169.834189 
L 234.697159 168.1677 
L 235.651739 165.96152 
L 236.129028 164.321181 
L 237.083608 162.15673 
L 237.560898 160.552863 
L 238.515477 158.443966 
L 238.992767 156.886961 
L 239.947347 154.84746 
L 240.424636 153.347661 
L 241.379216 151.391254 
L 241.856506 149.958837 
L 242.811085 148.098925 
L 243.288375 146.743786 
L 244.242955 144.993313 
L 244.720244 143.724945 
L 245.674824 142.096244 
L 246.152114 140.923629 
L 247.106693 139.428277 
L 247.583983 138.359773 
L 248.538563 137.008449 
L 249.015852 136.051692 
L 249.970432 134.854048 
L 250.447722 134.015859 
L 253.78875 130.458464 
L 256.175199 128.849778 
L 257.607068 128.345623 
L 259.038938 128.164867 
L 259.993517 128.206779 
L 261.425386 128.532684 
L 263.811835 129.82657 
L 264.766415 130.459018 
L 265.720994 131.386605 
L 266.198284 131.799418 
L 266.675574 132.462494 
L 267.630153 133.426816 
L 268.107443 134.208771 
L 269.062023 135.3274 
L 269.539313 136.221757 
L 270.493892 137.485572 
L 270.971182 138.48515 
L 271.925761 139.884153 
L 272.403051 140.981159 
L 273.357631 142.504604 
L 273.83492 143.690736 
L 274.7895 145.327263 
L 275.26679 146.593806 
L 276.221369 148.331576 
L 276.698659 149.66951 
L 277.653239 151.496341 
L 278.130528 152.896439 
L 279.085108 154.799945 
L 279.562398 156.252878 
L 280.516977 158.220597 
L 280.994267 159.717026 
L 281.948847 161.736551 
L 282.426136 163.267224 
L 283.380716 165.326321 
L 283.858006 166.882158 
L 284.812585 168.968877 
L 285.289875 170.541053 
L 286.244455 172.643833 
L 286.721744 174.223848 
L 287.676324 176.331608 
L 288.153614 177.911354 
L 289.108193 180.013576 
L 289.585483 181.585395 
L 290.540063 183.67219 
L 291.017352 185.22892 
L 291.971932 187.291092 
L 292.449222 188.826108 
L 293.403801 190.855196 
L 293.881091 192.362439 
L 294.83567 194.350756 
L 295.31296 195.824757 
L 296.26754 197.765411 
L 296.74483 199.201305 
L 297.699409 201.088214 
L 298.176699 202.481745 
L 299.131278 204.309642 
L 299.608568 205.657163 
L 300.563148 207.42159 
L 301.040437 208.720056 
L 301.995017 210.41735 
L 302.472307 211.664308 
L 303.426886 213.29158 
L 303.904176 214.485149 
L 304.858756 216.04026 
L 305.336045 217.179107 
L 306.290625 218.660637 
L 306.767915 219.743945 
L 307.722494 221.151032 
L 308.199784 222.178247 
L 309.631653 224.160272 
L 310.108943 225.115104 
L 311.063523 226.350809 
L 311.540813 227.249656 
L 312.495392 228.411112 
L 312.972682 229.254653 
L 313.927261 230.342989 
L 314.404551 231.132228 
L 315.359131 232.148979 
L 315.83642 232.885205 
L 316.791 233.832259 
L 317.26829 234.517005 
L 318.222869 235.39655 
L 318.700159 236.031557 
L 319.654739 236.846033 
L 320.132028 237.433211 
L 321.086608 238.185259 
L 321.563898 238.726655 
L 322.518477 239.419078 
L 322.995767 239.916839 
L 325.382216 241.590915 
L 325.859506 242.008122 
L 331.586983 245.182988 
L 337.31446 247.290402 
L 343.041938 248.628636 
L 349.246705 249.484593 
L 356.406051 250.015407 
L 365.951847 250.31007 
L 375.497642 250.407954 
L 409.385216 250.443632 
L 544.935511 250.44375 
L 544.935511 250.44375 
" clip-path="url(#p3d51b0f073)" style="fill: none; stroke: #2ca02c; stroke-linecap: square"/>
   </g>
   <g id="patch_3">
    <path d="M 142.84988 250.44375 
L 142.84988 250.408801 
L 159.971635 250.338903 
L 159.971635 250.164159 
L 167.30953 250.094261 
L 167.30953 249.954465 
L 174.647426 249.954465 
L 174.647426 249.535078 
L 177.093391 249.535078 
L 177.093391 249.395282 
L 179.539356 249.395282 
L 179.539356 248.975895 
L 181.985321 248.975895 
L 181.985321 248.731252 
L 184.431286 248.731252 
L 184.431286 247.438142 
L 186.877251 247.438142 
L 186.877251 246.983806 
L 189.323216 246.983806 
L 189.323216 245.585849 
L 191.769181 245.585849 
L 191.769181 244.083045 
L 194.215146 244.083045 
L 194.215146 242.859832 
L 196.661111 242.859832 
L 196.661111 241.217232 
L 199.107076 241.217232 
L 199.107076 239.679479 
L 201.553041 239.679479 
L 201.553041 236.464177 
L 203.999006 236.464177 
L 203.999006 233.633314 
L 206.444971 233.633314 
L 206.444971 231.396582 
L 208.890936 231.396582 
L 208.890936 226.678477 
L 211.336901 226.678477 
L 211.336901 222.589452 
L 213.782866 222.589452 
L 213.782866 216.228746 
L 216.228831 216.228746 
L 216.228831 211.755283 
L 218.674796 211.755283 
L 218.674796 207.211922 
L 221.120761 207.211922 
L 221.120761 202.388969 
L 223.566726 202.388969 
L 223.566726 195.783621 
L 226.012692 195.783621 
L 226.012692 187.64052 
L 228.458657 187.64052 
L 228.458657 178.938237 
L 230.904622 178.938237 
L 230.904622 174.56962 
L 233.350587 174.56962 
L 233.350587 167.649732 
L 235.796552 167.649732 
L 235.796552 164.888766 
L 238.242517 164.888766 
L 238.242517 155.59235 
L 240.688482 155.59235 
L 240.688482 151.887764 
L 243.134447 151.887764 
L 243.134447 143.639816 
L 245.580412 143.639816 
L 245.580412 138.92171 
L 248.026377 138.92171 
L 248.026377 136.370438 
L 250.472342 136.370438 
L 250.472342 131.267894 
L 252.918307 131.267894 
L 252.918307 132.176567 
L 255.364272 132.176567 
L 255.364272 127.213818 
L 257.810237 127.213818 
L 257.810237 126.934227 
L 262.702167 126.82938 
L 262.702167 129.939835 
L 265.148132 129.939835 
L 265.148132 131.792128 
L 267.594097 131.792128 
L 267.594097 132.910494 
L 270.040062 132.910494 
L 270.040062 140.354616 
L 272.486027 140.354616 
L 272.486027 149.196696 
L 277.377958 149.231645 
L 277.377958 151.01404 
L 279.823923 151.01404 
L 279.823923 158.353316 
L 282.269888 158.353316 
L 282.269888 169.047689 
L 284.715853 169.047689 
L 284.715853 172.193093 
L 287.161818 172.193093 
L 287.161818 178.099462 
L 289.607783 178.099462 
L 289.607783 186.906593 
L 292.053748 186.906593 
L 292.053748 190.017048 
L 294.499713 190.017048 
L 294.499713 196.79714 
L 296.945678 196.79714 
L 296.945678 201.095859 
L 299.391643 201.095859 
L 299.391643 207.736156 
L 301.837608 207.736156 
L 301.837608 212.559108 
L 304.283573 212.559108 
L 304.283573 218.919814 
L 306.729538 218.919814 
L 306.729538 222.449656 
L 309.175503 222.449656 
L 309.175503 224.546592 
L 311.621468 224.546592 
L 311.621468 228.425923 
L 314.067433 228.425923 
L 314.067433 233.388672 
L 316.513398 233.388672 
L 316.513398 235.485607 
L 318.959363 235.485607 
L 318.959363 237.897084 
L 321.405328 237.897084 
L 321.405328 239.120296 
L 323.851293 239.120296 
L 323.851293 240.762896 
L 326.297258 240.762896 
L 326.297258 243.209321 
L 328.743223 243.209321 
L 328.743223 245.096564 
L 331.189189 245.096564 
L 331.189189 245.515951 
L 333.635154 245.515951 
L 333.635154 246.809061 
L 336.081119 246.809061 
L 336.081119 247.333295 
L 338.527084 247.333295 
L 338.527084 247.542989 
L 340.973049 247.542989 
L 340.973049 247.787631 
L 343.419014 247.787631 
L 343.419014 248.731252 
L 345.864979 248.731252 
L 345.864979 249.535078 
L 348.310944 249.535078 
L 348.310944 249.814669 
L 350.756909 249.814669 
L 350.756909 249.674874 
L 353.202874 249.674874 
L 353.202874 249.849618 
L 358.094804 249.919516 
L 358.094804 250.303954 
L 360.540769 250.303954 
L 360.540769 250.164159 
L 365.432699 250.199107 
L 365.432699 250.338903 
L 389.89235 250.408801 
L 389.89235 250.44375 
" clip-path="url(#p3d51b0f073)" style="fill: none; stroke: #d62728; stroke-linejoin: miter"/>
   </g>
   <g id="patch_4">
    <path d="M 43.78125 250.44375 
L 43.78125 22.318125 
" style="fill: none; stroke: #000000; stroke-width: 0.8; stroke-linejoin: miter; stroke-linecap: square"/>
   </g>
   <g id="patch_5">
    <path d="M 568.8 250.44375 
L 568.8 22.318125 
" style="fill: none; stroke: #000000; stroke-width: 0.8; stroke-linejoin: miter; stroke-linecap: square"/>
   </g>
   <g id="patch_6">
    <path d="M 43.78125 250.44375 
L 568.8 250.44375 
" style="fill: none; stroke: #000000; stroke-width: 0.8; stroke-linejoin: miter; stroke-linecap: square"/>
   </g>
   <g id="patch_7">
    <path d="M 43.78125 22.318125 
L 568.8 22.318125 
" style="fill: none; stroke: #000000; stroke-width: 0.8; stroke-linejoin: miter; stroke-linecap: square"/>
   </g>
   <g id="text_19">
    <!-- Difference of Rayleigh and Rician random variables -->
    <g transform="translate(151.974375 16.318125) scale(0.12 -0.12)">
     <defs>
      <path id="DejaVuSans-44" d="M 1259 4147 
L 1259 519 
L 2022 519 
Q 2988 519 3436 956 
Q 3884 1394 3884 2338 
Q 3884 3275 3436 3711 
Q 2988 4147 2022 4147 
L 1259 4147 
z
M 628 4666 
L 1925 4666 
Q 3281 4666 3915 4102 
Q 4550 3538 4550 2338 
Q 4550 1131 3912 565 
Q 3275 0 1925 0 
L 628 0 
L 628 4666 
z
" transform="scale(0.015625)"/>
      <path id="DejaVuSans-66" d="M 2375 4863 
L 2375 4384 
L 1825 4384 
Q 1516 4384 1395 4259 
Q 1275 4134 1275 3809 
L 1275 3500 
L 2222 3500 
L 2222 3053 
L 1275 3053 
L 1275 0 
L 697 0 
L 697 3053 
L 147 3053 
L 147 3500 
L 697 3500 
L 697 3744 
Q 697 4328 969 4595 
Q 1241 4863 1831 4863 
L 2375 4863 
z
" transform="scale(0.015625)"/>
      <path id="DejaVuSans-63" d="M 3122 3366 
L 3122 2828 
Q 2878 2963 2633 3030 
Q 2388 3097 2138 3097 
Q 1578 3097 1268 2742 
Q 959 2388 959 1747 
Q 959 1106 1268 751 
Q 1578 397 2138 397 
Q 2388 397 2633 464 
Q 2878 531 3122 666 
L 3122 134 
Q 2881 22 2623 -34 
Q 2366 -91 2075 -91 
Q 1284 -91 818 406 
Q 353 903 353 1747 
Q 353 2603 823 3093 
Q 1294 3584 2113 3584 
Q 2378 3584 2631 3529 
Q 2884 3475 3122 3366 
z
" transform="scale(0.015625)"/>
      <path id="DejaVuSans-67" d="M 2906 1791 
Q 2906 2416 2648 2759 
Q 2391 3103 1925 3103 
Q 1463 3103 1205 2759 
Q 947 2416 947 1791 
Q 947 1169 1205 825 
Q 1463 481 1925 481 
Q 2391 481 2648 825 
Q 2906 1169 2906 1791 
z
M 3481 434 
Q 3481 -459 3084 -895 
Q 2688 -1331 1869 -1331 
Q 1566 -1331 1297 -1286 
Q 1028 -1241 775 -1147 
L 775 -588 
Q 1028 -725 1275 -790 
Q 1522 -856 1778 -856 
Q 2344 -856 2625 -561 
Q 2906 -266 2906 331 
L 2906 616 
Q 2728 306 2450 153 
Q 2172 0 1784 0 
Q 1141 0 747 490 
Q 353 981 353 1791 
Q 353 2603 747 3093 
Q 1141 3584 1784 3584 
Q 2172 3584 2450 3431 
Q 2728 3278 2906 2969 
L 2906 3500 
L 3481 3500 
L 3481 434 
z
" transform="scale(0.015625)"/>
      <path id="DejaVuSans-68" d="M 3513 2113 
L 3513 0 
L 2938 0 
L 2938 2094 
Q 2938 2591 2744 2837 
Q 2550 3084 2163 3084 
Q 1697 3084 1428 2787 
Q 1159 2491 1159 1978 
L 1159 0 
L 581 0 
L 581 4863 
L 1159 4863 
L 1159 2956 
Q 1366 3272 1645 3428 
Q 1925 3584 2291 3584 
Q 2894 3584 3203 3211 
Q 3513 2838 3513 2113 
z
" transform="scale(0.015625)"/>
     </defs>
     <use xlink:href="#DejaVuSans-44"/>
     <use xlink:href="#DejaVuSans-69" transform="translate(77.001953 0)"/>
     <use xlink:href="#DejaVuSans-66" transform="translate(104.785156 0)"/>
     <use xlink:href="#DejaVuSans-66" transform="translate(139.990234 0)"/>
     <use xlink:href="#DejaVuSans-65" transform="translate(175.195312 0)"/>
     <use xlink:href="#DejaVuSans-72" transform="translate(236.71875 0)"/>
     <use xlink:href="#DejaVuSans-65" transform="translate(275.582031 0)"/>
     <use xlink:href="#DejaVuSans-6e" transform="translate(337.105469 0)"/>
     <use xlink:href="#DejaVuSans-63" transform="translate(400.484375 0)"/>
     <use xlink:href="#DejaVuSans-65" transform="translate(455.464844 0)"/>
     <use xlink:href="#DejaVuSans-20" transform="translate(516.988281 0)"/>
     <use xlink:href="#DejaVuSans-6f" transform="translate(548.775391 0)"/>
     <use xlink:href="#DejaVuSans-66" transform="translate(609.957031 0)"/>
     <use xlink:href="#DejaVuSans-20" transform="translate(645.162109 0)"/>
     <use xlink:href="#DejaVuSans-52" transform="translate(676.949219 0)"/>
     <use xlink:href="#DejaVuSans-61" transform="translate(744.181641 0)"/>
     <use xlink:href="#DejaVuSans-79" transform="translate(805.460938 0)"/>
     <use xlink:href="#DejaVuSans-6c" transform="translate(864.640625 0)"/>
     <use xlink:href="#DejaVuSans-65" transform="translate(892.423828 0)"/>
     <use xlink:href="#DejaVuSans-69" transform="translate(953.947266 0)"/>
     <use xlink:href="#DejaVuSans-67" transform="translate(981.730469 0)"/>
     <use xlink:href="#DejaVuSans-68" transform="translate(1045.207031 0)"/>
     <use xlink:href="#DejaVuSans-20" transform="translate(1108.585938 0)"/>
     <use xlink:href="#DejaVuSans-61" transform="translate(1140.373047 0)"/>
     <use xlink:href="#DejaVuSans-6e" transform="translate(1201.652344 0)"/>
     <use xlink:href="#DejaVuSans-64" transform="translate(1265.03125 0)"/>
     <use xlink:href="#DejaVuSans-20" transform="translate(1328.507812 0)"/>
     <use xlink:href="#DejaVuSans-52" transform="translate(1360.294922 0)"/>
     <use xlink:href="#DejaVuSans-69" transform="translate(1429.777344 0)"/>
     <use xlink:href="#DejaVuSans-63" transform="translate(1457.560547 0)"/>
     <use xlink:href="#DejaVuSans-69" transform="translate(1512.541016 0)"/>
     <use xlink:href="#DejaVuSans-61" transform="translate(1540.324219 0)"/>
     <use xlink:href="#DejaVuSans-6e" transform="translate(1601.603516 0)"/>
     <use xlink:href="#DejaVuSans-20" transform="translate(1664.982422 0)"/>
     <use xlink:href="#DejaVuSans-72" transform="translate(1696.769531 0)"/>
     <use xlink:href="#DejaVuSans-61" transform="translate(1737.882812 0)"/>
     <use xlink:href="#DejaVuSans-6e" transform="translate(1799.162109 0)"/>
     <use xlink:href="#DejaVuSans-64" transform="translate(1862.541016 0)"/>
     <use xlink:href="#DejaVuSans-6f" transform="translate(1926.017578 0)"/>
     <use xlink:href="#DejaVuSans-6d" transform="translate(1987.199219 0)"/>
     <use xlink:href="#DejaVuSans-20" transform="translate(2084.611328 0)"/>
     <use xlink:href="#DejaVuSans-76" transform="translate(2116.398438 0)"/>
     <use xlink:href="#DejaVuSans-61" transform="translate(2175.578125 0)"/>
     <use xlink:href="#DejaVuSans-72" transform="translate(2236.857422 0)"/>
     <use xlink:href="#DejaVuSans-69" transform="translate(2277.970703 0)"/>
     <use xlink:href="#DejaVuSans-61" transform="translate(2305.753906 0)"/>
     <use xlink:href="#DejaVuSans-62" transform="translate(2367.033203 0)"/>
     <use xlink:href="#DejaVuSans-6c" transform="translate(2430.509766 0)"/>
     <use xlink:href="#DejaVuSans-65" transform="translate(2458.292969 0)"/>
     <use xlink:href="#DejaVuSans-73" transform="translate(2519.816406 0)"/>
    </g>
   </g>
   <g id="legend_1">
    <g id="patch_8">
     <path d="M 455 89.0525 
L 561.8 89.0525 
Q 563.8 89.0525 563.8 87.0525 
L 563.8 29.318125 
Q 563.8 27.318125 561.8 27.318125 
L 455 27.318125 
Q 453 27.318125 453 29.318125 
L 453 87.0525 
Q 453 89.0525 455 89.0525 
z
" style="fill: #ffffff; opacity: 0.8; stroke: #cccccc; stroke-linejoin: miter"/>
    </g>
    <g id="line2d_36">
     <path d="M 457 35.416562 
L 467 35.416562 
L 477 35.416562 
" style="fill: none; stroke: #1f77b4; stroke-linecap: square"/>
    </g>
    <g id="text_20">
     <!-- $X$ -->
     <g transform="translate(485 38.916562) scale(0.1 -0.1)">
      <defs>
       <path id="DejaVuSans-Oblique-58" d="M 878 4666 
L 1516 4666 
L 2316 2981 
L 3763 4666 
L 4500 4666 
L 2578 2438 
L 3738 0 
L 3103 0 
L 2163 1966 
L 459 0 
L -275 0 
L 1906 2509 
L 878 4666 
z
" transform="scale(0.015625)"/>
      </defs>
      <use xlink:href="#DejaVuSans-Oblique-58" transform="translate(0 0.09375)"/>
     </g>
    </g>
    <g id="line2d_37">
     <path d="M 457 50.094687 
L 467 50.094687 
L 477 50.094687 
" style="fill: none; stroke: #ff7f0e; stroke-linecap: square"/>
    </g>
    <g id="text_21">
     <!-- $Y$ -->
     <g transform="translate(485 53.594687) scale(0.1 -0.1)">
      <defs>
       <path id="DejaVuSans-Oblique-59" d="M 403 4666 
L 1081 4666 
L 1953 2747 
L 3616 4666 
L 4325 4666 
L 2209 2222 
L 1778 0 
L 1147 0 
L 1575 2222 
L 403 4666 
z
" transform="scale(0.015625)"/>
      </defs>
      <use xlink:href="#DejaVuSans-Oblique-59" transform="translate(0 0.09375)"/>
     </g>
    </g>
    <g id="line2d_38">
     <path d="M 457 64.772812 
L 467 64.772812 
L 477 64.772812 
" style="fill: none; stroke: #2ca02c; stroke-linecap: square"/>
    </g>
    <g id="text_22">
     <!-- $X - Y$ -->
     <g transform="translate(485 68.272812) scale(0.1 -0.1)">
      <use xlink:href="#DejaVuSans-Oblique-58" transform="translate(0 0.09375)"/>
      <use xlink:href="#DejaVuSans-2212" transform="translate(87.988281 0.09375)"/>
      <use xlink:href="#DejaVuSans-Oblique-59" transform="translate(191.259766 0.09375)"/>
     </g>
    </g>
    <g id="patch_9">
     <path d="M 457 82.9525 
L 477 82.9525 
L 477 75.9525 
L 457 75.9525 
L 457 82.9525 
z
" style="fill: none; stroke: #d62728; stroke-linejoin: miter"/>
    </g>
    <g id="text_23">
     <!-- $X - Y$ empirical -->
     <g transform="translate(485 82.9525) scale(0.1 -0.1)">
      <defs>
       <path id="DejaVuSans-70" d="M 1159 525 
L 1159 -1331 
L 581 -1331 
L 581 3500 
L 1159 3500 
L 1159 2969 
Q 1341 3281 1617 3432 
Q 1894 3584 2278 3584 
Q 2916 3584 3314 3078 
Q 3713 2572 3713 1747 
Q 3713 922 3314 415 
Q 2916 -91 2278 -91 
Q 1894 -91 1617 61 
Q 1341 213 1159 525 
z
M 3116 1747 
Q 3116 2381 2855 2742 
Q 2594 3103 2138 3103 
Q 1681 3103 1420 2742 
Q 1159 2381 1159 1747 
Q 1159 1113 1420 752 
Q 1681 391 2138 391 
Q 2594 391 2855 752 
Q 3116 1113 3116 1747 
z
" transform="scale(0.015625)"/>
      </defs>
      <use xlink:href="#DejaVuSans-Oblique-58" transform="translate(0 0.015625)"/>
      <use xlink:href="#DejaVuSans-2212" transform="translate(87.988281 0.015625)"/>
      <use xlink:href="#DejaVuSans-Oblique-59" transform="translate(191.259766 0.015625)"/>
      <use xlink:href="#DejaVuSans-20" transform="translate(252.34375 0.015625)"/>
      <use xlink:href="#DejaVuSans-65" transform="translate(284.130859 0.015625)"/>
      <use xlink:href="#DejaVuSans-6d" transform="translate(345.654297 0.015625)"/>
      <use xlink:href="#DejaVuSans-70" transform="translate(443.066406 0.015625)"/>
      <use xlink:href="#DejaVuSans-69" transform="translate(506.542969 0.015625)"/>
      <use xlink:href="#DejaVuSans-72" transform="translate(534.326172 0.015625)"/>
      <use xlink:href="#DejaVuSans-69" transform="translate(575.439453 0.015625)"/>
      <use xlink:href="#DejaVuSans-63" transform="translate(603.222656 0.015625)"/>
      <use xlink:href="#DejaVuSans-61" transform="translate(658.203125 0.015625)"/>
      <use xlink:href="#DejaVuSans-6c" transform="translate(719.482422 0.015625)"/>
     </g>
    </g>
   </g>
  </g>
 </g>
 <defs>
  <clipPath id="p3d51b0f073">
   <rect x="43.78125" y="22.318125" width="525.01875" height="228.125625"/>
  </clipPath>
 </defs>
</svg>
