<?xml version="1.0" encoding="utf-8" standalone="no"?>
<!DOCTYPE svg PUBLIC "-//W3C//DTD SVG 1.1//EN"
  "http://www.w3.org/Graphics/SVG/1.1/DTD/svg11.dtd">
<svg xmlns:xlink="http://www.w3.org/1999/xlink" width="576pt" height="288pt" viewBox="0 0 576 288" xmlns="http://www.w3.org/2000/svg" version="1.1">
 <metadata>
  <rdf:RDF xmlns:dc="http://purl.org/dc/elements/1.1/" xmlns:cc="http://creativecommons.org/ns#" xmlns:rdf="http://www.w3.org/1999/02/22-rdf-syntax-ns#">
   <cc:Work>
    <dc:type rdf:resource="http://purl.org/dc/dcmitype/StillImage"/>
    <dc:date>2025-11-10T13:31:13.971584</dc:date>
    <dc:format>image/svg+xml</dc:format>
    <dc:creator>
     <cc:Agent>
      <dc:title>Matplotlib v3.10.7, https://matplotlib.org/</dc:title>
     </cc:Agent>
    </dc:creator>
   </cc:Work>
  </rdf:RDF>
 </metadata>
 <defs>
  <style type="text/css">*{stroke-linejoin: round; stroke-linecap: butt}</style>
 </defs>
 <g id="figure_1">
  <g id="patch_1">
   <path d="M 0 288 
L 576 288 
L 576 0 
L 0 0 
z
" style="fill: #ffffff"/>
  </g>
  <g id="axes_1">
   <g id="patch_2">
    <path d="M 48.982813 250.421875 
L 568.8 250.421875 
L 568.8 22.32 
L 48.982813 22.32 
z
" style="fill: #ffffff"/>
   </g>
   <g id="matplotlib.axis_1">
    <g id="xtick_1">
     <g id="line2d_1">
      <path d="M 119.89006 250.421875 
L 119.89006 22.32 
" clip-path="url(#pdeb9ed41fc)" style="fill: none; stroke-dasharray: 2.96,1.28; stroke-dashoffset: 0; stroke: #b0b0b0; stroke-opacity: 0.8; stroke-width: 0.8"/>
     </g>
     <g id="line2d_2">
      <defs>
       <path id="m9d5401ffc0" d="M 0 0 
L 0 3.5 
" style="stroke: #000000; stroke-width: 0.8"/>
      </defs>
      <g>
       <use xlink:href="#m9d5401ffc0" x="119.89006" y="250.421875" style="stroke: #000000; stroke-width: 0.8"/>
      </g>
     </g>
     <g id="text_1">
      <!-- -200 -->
      <g transform="translate(108.542404 265.020312) scale(0.1 -0.1)">
       <defs>
        <path id="DejaVuSans-2d" d="M 313 2009 
L 1997 2009 
L 1997 1497 
L 313 1497 
L 313 2009 
z
" transform="scale(0.015625)"/>
        <path id="DejaVuSans-32" d="M 1228 531 
L 3431 531 
L 3431 0 
L 469 0 
L 469 531 
Q 828 903 1448 1529 
Q 2069 2156 2228 2338 
Q 2531 2678 2651 2914 
Q 2772 3150 2772 3378 
Q 2772 3750 2511 3984 
Q 2250 4219 1831 4219 
Q 1534 4219 1204 4116 
Q 875 4013 500 3803 
L 500 4441 
Q 881 4594 1212 4672 
Q 1544 4750 1819 4750 
Q 2544 4750 2975 4387 
Q 3406 4025 3406 3419 
Q 3406 3131 3298 2873 
Q 3191 2616 2906 2266 
Q 2828 2175 2409 1742 
Q 1991 1309 1228 531 
z
" transform="scale(0.015625)"/>
        <path id="DejaVuSans-30" d="M 2034 4250 
Q 1547 4250 1301 3770 
Q 1056 3291 1056 2328 
Q 1056 1369 1301 889 
Q 1547 409 2034 409 
Q 2525 409 2770 889 
Q 3016 1369 3016 2328 
Q 3016 3291 2770 3770 
Q 2525 4250 2034 4250 
z
M 2034 4750 
Q 2819 4750 3233 4129 
Q 3647 3509 3647 2328 
Q 3647 1150 3233 529 
Q 2819 -91 2034 -91 
Q 1250 -91 836 529 
Q 422 1150 422 2328 
Q 422 3509 836 4129 
Q 1250 4750 2034 4750 
z
" transform="scale(0.015625)"/>
       </defs>
       <use xlink:href="#DejaVuSans-2d"/>
       <use xlink:href="#DejaVuSans-32" transform="translate(36.083984 0)"/>
       <use xlink:href="#DejaVuSans-30" transform="translate(99.707031 0)"/>
       <use xlink:href="#DejaVuSans-30" transform="translate(163.330078 0)"/>
      </g>
     </g>
    </g>
    <g id="xtick_2">
     <g id="line2d_3">
      <path d="M 214.448447 250.421875 
L 214.448447 22.32 
" clip-path="url(#pdeb9ed41fc)" style="fill: none; stroke-dasharray: 2.96,1.28; stroke-dashoffset: 0; stroke: #b0b0b0; stroke-opacity: 0.8; stroke-width: 0.8"/>
     </g>
     <g id="line2d_4">
      <g>
       <use xlink:href="#m9d5401ffc0" x="214.448447" y="250.421875" style="stroke: #000000; stroke-width: 0.8"/>
      </g>
     </g>
     <g id="text_2">
      <!-- -100 -->
      <g transform="translate(203.100791 265.020312) scale(0.1 -0.1)">
       <defs>
        <path id="DejaVuSans-31" d="M 794 531 
L 1825 531 
L 1825 4091 
L 703 3866 
L 703 4441 
L 1819 4666 
L 2450 4666 
L 2450 531 
L 3481 531 
L 3481 0 
L 794 0 
L 794 531 
z
" transform="scale(0.015625)"/>
       </defs>
       <use xlink:href="#DejaVuSans-2d"/>
       <use xlink:href="#DejaVuSans-31" transform="translate(36.083984 0)"/>
       <use xlink:href="#DejaVuSans-30" transform="translate(99.707031 0)"/>
       <use xlink:href="#DejaVuSans-30" transform="translate(163.330078 0)"/>
      </g>
     </g>
    </g>
    <g id="xtick_3">
     <g id="line2d_5">
      <path d="M 309.006834 250.421875 
L 309.006834 22.32 
" clip-path="url(#pdeb9ed41fc)" style="fill: none; stroke-dasharray: 2.96,1.28; stroke-dashoffset: 0; stroke: #b0b0b0; stroke-opacity: 0.8; stroke-width: 0.8"/>
     </g>
     <g id="line2d_6">
      <g>
       <use xlink:href="#m9d5401ffc0" x="309.006834" y="250.421875" style="stroke: #000000; stroke-width: 0.8"/>
      </g>
     </g>
     <g id="text_3">
      <!-- 0 -->
      <g transform="translate(305.825584 265.020312) scale(0.1 -0.1)">
       <use xlink:href="#DejaVuSans-30"/>
      </g>
     </g>
    </g>
    <g id="xtick_4">
     <g id="line2d_7">
      <path d="M 403.565221 250.421875 
L 403.565221 22.32 
" clip-path="url(#pdeb9ed41fc)" style="fill: none; stroke-dasharray: 2.96,1.28; stroke-dashoffset: 0; stroke: #b0b0b0; stroke-opacity: 0.8; stroke-width: 0.8"/>
     </g>
     <g id="line2d_8">
      <g>
       <use xlink:href="#m9d5401ffc0" x="403.565221" y="250.421875" style="stroke: #000000; stroke-width: 0.8"/>
      </g>
     </g>
     <g id="text_4">
      <!-- 100 -->
      <g transform="translate(394.021471 265.020312) scale(0.1 -0.1)">
       <use xlink:href="#DejaVuSans-31"/>
       <use xlink:href="#DejaVuSans-30" transform="translate(63.623047 0)"/>
       <use xlink:href="#DejaVuSans-30" transform="translate(127.246094 0)"/>
      </g>
     </g>
    </g>
    <g id="xtick_5">
     <g id="line2d_9">
      <path d="M 498.123608 250.421875 
L 498.123608 22.32 
" clip-path="url(#pdeb9ed41fc)" style="fill: none; stroke-dasharray: 2.96,1.28; stroke-dashoffset: 0; stroke: #b0b0b0; stroke-opacity: 0.8; stroke-width: 0.8"/>
     </g>
     <g id="line2d_10">
      <g>
       <use xlink:href="#m9d5401ffc0" x="498.123608" y="250.421875" style="stroke: #000000; stroke-width: 0.8"/>
      </g>
     </g>
     <g id="text_5">
      <!-- 200 -->
      <g transform="translate(488.579858 265.020312) scale(0.1 -0.1)">
       <use xlink:href="#DejaVuSans-32"/>
       <use xlink:href="#DejaVuSans-30" transform="translate(63.623047 0)"/>
       <use xlink:href="#DejaVuSans-30" transform="translate(127.246094 0)"/>
      </g>
     </g>
    </g>
    <g id="text_6">
     <!-- Frequency (Hz), $f$ -->
     <g transform="translate(265.741406 278.7) scale(0.1 -0.1)">
      <defs>
       <path id="DejaVuSans-46" d="M 628 4666 
L 3309 4666 
L 3309 4134 
L 1259 4134 
L 1259 2759 
L 3109 2759 
L 3109 2228 
L 1259 2228 
L 1259 0 
L 628 0 
L 628 4666 
z
" transform="scale(0.015625)"/>
       <path id="DejaVuSans-72" d="M 2631 2963 
Q 2534 3019 2420 3045 
Q 2306 3072 2169 3072 
Q 1681 3072 1420 2755 
Q 1159 2438 1159 1844 
L 1159 0 
L 581 0 
L 581 3500 
L 1159 3500 
L 1159 2956 
Q 1341 3275 1631 3429 
Q 1922 3584 2338 3584 
Q 2397 3584 2469 3576 
Q 2541 3569 2628 3553 
L 2631 2963 
z
" transform="scale(0.015625)"/>
       <path id="DejaVuSans-65" d="M 3597 1894 
L 3597 1613 
L 953 1613 
Q 991 1019 1311 708 
Q 1631 397 2203 397 
Q 2534 397 2845 478 
Q 3156 559 3463 722 
L 3463 178 
Q 3153 47 2828 -22 
Q 2503 -91 2169 -91 
Q 1331 -91 842 396 
Q 353 884 353 1716 
Q 353 2575 817 3079 
Q 1281 3584 2069 3584 
Q 2775 3584 3186 3129 
Q 3597 2675 3597 1894 
z
M 3022 2063 
Q 3016 2534 2758 2815 
Q 2500 3097 2075 3097 
Q 1594 3097 1305 2825 
Q 1016 2553 972 2059 
L 3022 2063 
z
" transform="scale(0.015625)"/>
       <path id="DejaVuSans-71" d="M 947 1747 
Q 947 1113 1208 752 
Q 1469 391 1925 391 
Q 2381 391 2643 752 
Q 2906 1113 2906 1747 
Q 2906 2381 2643 2742 
Q 2381 3103 1925 3103 
Q 1469 3103 1208 2742 
Q 947 2381 947 1747 
z
M 2906 525 
Q 2725 213 2448 61 
Q 2172 -91 1784 -91 
Q 1150 -91 751 415 
Q 353 922 353 1747 
Q 353 2572 751 3078 
Q 1150 3584 1784 3584 
Q 2172 3584 2448 3432 
Q 2725 3281 2906 2969 
L 2906 3500 
L 3481 3500 
L 3481 -1331 
L 2906 -1331 
L 2906 525 
z
" transform="scale(0.015625)"/>
       <path id="DejaVuSans-75" d="M 544 1381 
L 544 3500 
L 1119 3500 
L 1119 1403 
Q 1119 906 1312 657 
Q 1506 409 1894 409 
Q 2359 409 2629 706 
Q 2900 1003 2900 1516 
L 2900 3500 
L 3475 3500 
L 3475 0 
L 2900 0 
L 2900 538 
Q 2691 219 2414 64 
Q 2138 -91 1772 -91 
Q 1169 -91 856 284 
Q 544 659 544 1381 
z
M 1991 3584 
L 1991 3584 
z
" transform="scale(0.015625)"/>
       <path id="DejaVuSans-6e" d="M 3513 2113 
L 3513 0 
L 2938 0 
L 2938 2094 
Q 2938 2591 2744 2837 
Q 2550 3084 2163 3084 
Q 1697 3084 1428 2787 
Q 1159 2491 1159 1978 
L 1159 0 
L 581 0 
L 581 3500 
L 1159 3500 
L 1159 2956 
Q 1366 3272 1645 3428 
Q 1925 3584 2291 3584 
Q 2894 3584 3203 3211 
Q 3513 2838 3513 2113 
z
" transform="scale(0.015625)"/>
       <path id="DejaVuSans-63" d="M 3122 3366 
L 3122 2828 
Q 2878 2963 2633 3030 
Q 2388 3097 2138 3097 
Q 1578 3097 1268 2742 
Q 959 2388 959 1747 
Q 959 1106 1268 751 
Q 1578 397 2138 397 
Q 2388 397 2633 464 
Q 2878 531 3122 666 
L 3122 134 
Q 2881 22 2623 -34 
Q 2366 -91 2075 -91 
Q 1284 -91 818 406 
Q 353 903 353 1747 
Q 353 2603 823 3093 
Q 1294 3584 2113 3584 
Q 2378 3584 2631 3529 
Q 2884 3475 3122 3366 
z
" transform="scale(0.015625)"/>
       <path id="DejaVuSans-79" d="M 2059 -325 
Q 1816 -950 1584 -1140 
Q 1353 -1331 966 -1331 
L 506 -1331 
L 506 -850 
L 844 -850 
Q 1081 -850 1212 -737 
Q 1344 -625 1503 -206 
L 1606 56 
L 191 3500 
L 800 3500 
L 1894 763 
L 2988 3500 
L 3597 3500 
L 2059 -325 
z
" transform="scale(0.015625)"/>
       <path id="DejaVuSans-20" transform="scale(0.015625)"/>
       <path id="DejaVuSans-28" d="M 1984 4856 
Q 1566 4138 1362 3434 
Q 1159 2731 1159 2009 
Q 1159 1288 1364 580 
Q 1569 -128 1984 -844 
L 1484 -844 
Q 1016 -109 783 600 
Q 550 1309 550 2009 
Q 550 2706 781 3412 
Q 1013 4119 1484 4856 
L 1984 4856 
z
" transform="scale(0.015625)"/>
       <path id="DejaVuSans-48" d="M 628 4666 
L 1259 4666 
L 1259 2753 
L 3553 2753 
L 3553 4666 
L 4184 4666 
L 4184 0 
L 3553 0 
L 3553 2222 
L 1259 2222 
L 1259 0 
L 628 0 
L 628 4666 
z
" transform="scale(0.015625)"/>
       <path id="DejaVuSans-7a" d="M 353 3500 
L 3084 3500 
L 3084 2975 
L 922 459 
L 3084 459 
L 3084 0 
L 275 0 
L 275 525 
L 2438 3041 
L 353 3041 
L 353 3500 
z
" transform="scale(0.015625)"/>
       <path id="DejaVuSans-29" d="M 513 4856 
L 1013 4856 
Q 1481 4119 1714 3412 
Q 1947 2706 1947 2009 
Q 1947 1309 1714 600 
Q 1481 -109 1013 -844 
L 513 -844 
Q 928 -128 1133 580 
Q 1338 1288 1338 2009 
Q 1338 2731 1133 3434 
Q 928 4138 513 4856 
z
" transform="scale(0.015625)"/>
       <path id="DejaVuSans-2c" d="M 750 794 
L 1409 794 
L 1409 256 
L 897 -744 
L 494 -744 
L 750 256 
L 750 794 
z
" transform="scale(0.015625)"/>
       <path id="DejaVuSans-Oblique-66" d="M 3059 4863 
L 2969 4384 
L 2419 4384 
Q 2106 4384 1964 4261 
Q 1822 4138 1753 3809 
L 1691 3500 
L 2638 3500 
L 2553 3053 
L 1606 3053 
L 1013 0 
L 434 0 
L 1031 3053 
L 481 3053 
L 563 3500 
L 1113 3500 
L 1159 3744 
Q 1278 4363 1576 4613 
Q 1875 4863 2516 4863 
L 3059 4863 
z
" transform="scale(0.015625)"/>
      </defs>
      <use xlink:href="#DejaVuSans-46" transform="translate(0 0.015625)"/>
      <use xlink:href="#DejaVuSans-72" transform="translate(57.519531 0.015625)"/>
      <use xlink:href="#DejaVuSans-65" transform="translate(98.632812 0.015625)"/>
      <use xlink:href="#DejaVuSans-71" transform="translate(160.15625 0.015625)"/>
      <use xlink:href="#DejaVuSans-75" transform="translate(223.632812 0.015625)"/>
      <use xlink:href="#DejaVuSans-65" transform="translate(287.011719 0.015625)"/>
      <use xlink:href="#DejaVuSans-6e" transform="translate(348.535156 0.015625)"/>
      <use xlink:href="#DejaVuSans-63" transform="translate(411.914062 0.015625)"/>
      <use xlink:href="#DejaVuSans-79" transform="translate(466.894531 0.015625)"/>
      <use xlink:href="#DejaVuSans-20" transform="translate(526.074219 0.015625)"/>
      <use xlink:href="#DejaVuSans-28" transform="translate(557.861328 0.015625)"/>
      <use xlink:href="#DejaVuSans-48" transform="translate(596.875 0.015625)"/>
      <use xlink:href="#DejaVuSans-7a" transform="translate(672.070312 0.015625)"/>
      <use xlink:href="#DejaVuSans-29" transform="translate(724.560547 0.015625)"/>
      <use xlink:href="#DejaVuSans-2c" transform="translate(763.574219 0.015625)"/>
      <use xlink:href="#DejaVuSans-20" transform="translate(795.361328 0.015625)"/>
      <use xlink:href="#DejaVuSans-Oblique-66" transform="translate(827.148438 0.015625)"/>
     </g>
    </g>
   </g>
   <g id="matplotlib.axis_2">
    <g id="ytick_1">
     <g id="line2d_11">
      <path d="M 48.982813 228.473302 
L 568.8 228.473302 
" clip-path="url(#pdeb9ed41fc)" style="fill: none; stroke-dasharray: 2.96,1.28; stroke-dashoffset: 0; stroke: #b0b0b0; stroke-opacity: 0.8; stroke-width: 0.8"/>
     </g>
     <g id="line2d_12">
      <defs>
       <path id="m5b247f579d" d="M 0 0 
L -3.5 0 
" style="stroke: #000000; stroke-width: 0.8"/>
      </defs>
      <g>
       <use xlink:href="#m5b247f579d" x="48.982813" y="228.473302" style="stroke: #000000; stroke-width: 0.8"/>
      </g>
     </g>
     <g id="text_7">
      <!-- −60 -->
      <g transform="translate(20.878125 232.272521) scale(0.1 -0.1)">
       <defs>
        <path id="DejaVuSans-2212" d="M 678 2272 
L 4684 2272 
L 4684 1741 
L 678 1741 
L 678 2272 
z
" transform="scale(0.015625)"/>
        <path id="DejaVuSans-36" d="M 2113 2584 
Q 1688 2584 1439 2293 
Q 1191 2003 1191 1497 
Q 1191 994 1439 701 
Q 1688 409 2113 409 
Q 2538 409 2786 701 
Q 3034 994 3034 1497 
Q 3034 2003 2786 2293 
Q 2538 2584 2113 2584 
z
M 3366 4563 
L 3366 3988 
Q 3128 4100 2886 4159 
Q 2644 4219 2406 4219 
Q 1781 4219 1451 3797 
Q 1122 3375 1075 2522 
Q 1259 2794 1537 2939 
Q 1816 3084 2150 3084 
Q 2853 3084 3261 2657 
Q 3669 2231 3669 1497 
Q 3669 778 3244 343 
Q 2819 -91 2113 -91 
Q 1303 -91 875 529 
Q 447 1150 447 2328 
Q 447 3434 972 4092 
Q 1497 4750 2381 4750 
Q 2619 4750 2861 4703 
Q 3103 4656 3366 4563 
z
" transform="scale(0.015625)"/>
       </defs>
       <use xlink:href="#DejaVuSans-2212"/>
       <use xlink:href="#DejaVuSans-36" transform="translate(83.789062 0)"/>
       <use xlink:href="#DejaVuSans-30" transform="translate(147.412109 0)"/>
      </g>
     </g>
    </g>
    <g id="ytick_2">
     <g id="line2d_13">
      <path d="M 48.982813 193.085684 
L 568.8 193.085684 
" clip-path="url(#pdeb9ed41fc)" style="fill: none; stroke-dasharray: 2.96,1.28; stroke-dashoffset: 0; stroke: #b0b0b0; stroke-opacity: 0.8; stroke-width: 0.8"/>
     </g>
     <g id="line2d_14">
      <g>
       <use xlink:href="#m5b247f579d" x="48.982813" y="193.085684" style="stroke: #000000; stroke-width: 0.8"/>
      </g>
     </g>
     <g id="text_8">
      <!-- −50 -->
      <g transform="translate(20.878125 196.884903) scale(0.1 -0.1)">
       <defs>
        <path id="DejaVuSans-35" d="M 691 4666 
L 3169 4666 
L 3169 4134 
L 1269 4134 
L 1269 2991 
Q 1406 3038 1543 3061 
Q 1681 3084 1819 3084 
Q 2600 3084 3056 2656 
Q 3513 2228 3513 1497 
Q 3513 744 3044 326 
Q 2575 -91 1722 -91 
Q 1428 -91 1123 -41 
Q 819 9 494 109 
L 494 744 
Q 775 591 1075 516 
Q 1375 441 1709 441 
Q 2250 441 2565 725 
Q 2881 1009 2881 1497 
Q 2881 1984 2565 2268 
Q 2250 2553 1709 2553 
Q 1456 2553 1204 2497 
Q 953 2441 691 2322 
L 691 4666 
z
" transform="scale(0.015625)"/>
       </defs>
       <use xlink:href="#DejaVuSans-2212"/>
       <use xlink:href="#DejaVuSans-35" transform="translate(83.789062 0)"/>
       <use xlink:href="#DejaVuSans-30" transform="translate(147.412109 0)"/>
      </g>
     </g>
    </g>
    <g id="ytick_3">
     <g id="line2d_15">
      <path d="M 48.982813 157.698067 
L 568.8 157.698067 
" clip-path="url(#pdeb9ed41fc)" style="fill: none; stroke-dasharray: 2.96,1.28; stroke-dashoffset: 0; stroke: #b0b0b0; stroke-opacity: 0.8; stroke-width: 0.8"/>
     </g>
     <g id="line2d_16">
      <g>
       <use xlink:href="#m5b247f579d" x="48.982813" y="157.698067" style="stroke: #000000; stroke-width: 0.8"/>
      </g>
     </g>
     <g id="text_9">
      <!-- −40 -->
      <g transform="translate(20.878125 161.497285) scale(0.1 -0.1)">
       <defs>
        <path id="DejaVuSans-34" d="M 2419 4116 
L 825 1625 
L 2419 1625 
L 2419 4116 
z
M 2253 4666 
L 3047 4666 
L 3047 1625 
L 3713 1625 
L 3713 1100 
L 3047 1100 
L 3047 0 
L 2419 0 
L 2419 1100 
L 313 1100 
L 313 1709 
L 2253 4666 
z
" transform="scale(0.015625)"/>
       </defs>
       <use xlink:href="#DejaVuSans-2212"/>
       <use xlink:href="#DejaVuSans-34" transform="translate(83.789062 0)"/>
       <use xlink:href="#DejaVuSans-30" transform="translate(147.412109 0)"/>
      </g>
     </g>
    </g>
    <g id="ytick_4">
     <g id="line2d_17">
      <path d="M 48.982813 122.310449 
L 568.8 122.310449 
" clip-path="url(#pdeb9ed41fc)" style="fill: none; stroke-dasharray: 2.96,1.28; stroke-dashoffset: 0; stroke: #b0b0b0; stroke-opacity: 0.8; stroke-width: 0.8"/>
     </g>
     <g id="line2d_18">
      <g>
       <use xlink:href="#m5b247f579d" x="48.982813" y="122.310449" style="stroke: #000000; stroke-width: 0.8"/>
      </g>
     </g>
     <g id="text_10">
      <!-- −30 -->
      <g transform="translate(20.878125 126.109668) scale(0.1 -0.1)">
       <defs>
        <path id="DejaVuSans-33" d="M 2597 2516 
Q 3050 2419 3304 2112 
Q 3559 1806 3559 1356 
Q 3559 666 3084 287 
Q 2609 -91 1734 -91 
Q 1441 -91 1130 -33 
Q 819 25 488 141 
L 488 750 
Q 750 597 1062 519 
Q 1375 441 1716 441 
Q 2309 441 2620 675 
Q 2931 909 2931 1356 
Q 2931 1769 2642 2001 
Q 2353 2234 1838 2234 
L 1294 2234 
L 1294 2753 
L 1863 2753 
Q 2328 2753 2575 2939 
Q 2822 3125 2822 3475 
Q 2822 3834 2567 4026 
Q 2313 4219 1838 4219 
Q 1578 4219 1281 4162 
Q 984 4106 628 3988 
L 628 4550 
Q 988 4650 1302 4700 
Q 1616 4750 1894 4750 
Q 2613 4750 3031 4423 
Q 3450 4097 3450 3541 
Q 3450 3153 3228 2886 
Q 3006 2619 2597 2516 
z
" transform="scale(0.015625)"/>
       </defs>
       <use xlink:href="#DejaVuSans-2212"/>
       <use xlink:href="#DejaVuSans-33" transform="translate(83.789062 0)"/>
       <use xlink:href="#DejaVuSans-30" transform="translate(147.412109 0)"/>
      </g>
     </g>
    </g>
    <g id="ytick_5">
     <g id="line2d_19">
      <path d="M 48.982813 86.922831 
L 568.8 86.922831 
" clip-path="url(#pdeb9ed41fc)" style="fill: none; stroke-dasharray: 2.96,1.28; stroke-dashoffset: 0; stroke: #b0b0b0; stroke-opacity: 0.8; stroke-width: 0.8"/>
     </g>
     <g id="line2d_20">
      <g>
       <use xlink:href="#m5b247f579d" x="48.982813" y="86.922831" style="stroke: #000000; stroke-width: 0.8"/>
      </g>
     </g>
     <g id="text_11">
      <!-- −20 -->
      <g transform="translate(20.878125 90.72205) scale(0.1 -0.1)">
       <use xlink:href="#DejaVuSans-2212"/>
       <use xlink:href="#DejaVuSans-32" transform="translate(83.789062 0)"/>
       <use xlink:href="#DejaVuSans-30" transform="translate(147.412109 0)"/>
      </g>
     </g>
    </g>
    <g id="ytick_6">
     <g id="line2d_21">
      <path d="M 48.982813 51.535214 
L 568.8 51.535214 
" clip-path="url(#pdeb9ed41fc)" style="fill: none; stroke-dasharray: 2.96,1.28; stroke-dashoffset: 0; stroke: #b0b0b0; stroke-opacity: 0.8; stroke-width: 0.8"/>
     </g>
     <g id="line2d_22">
      <g>
       <use xlink:href="#m5b247f579d" x="48.982813" y="51.535214" style="stroke: #000000; stroke-width: 0.8"/>
      </g>
     </g>
     <g id="text_12">
      <!-- −10 -->
      <g transform="translate(20.878125 55.334432) scale(0.1 -0.1)">
       <use xlink:href="#DejaVuSans-2212"/>
       <use xlink:href="#DejaVuSans-31" transform="translate(83.789062 0)"/>
       <use xlink:href="#DejaVuSans-30" transform="translate(147.412109 0)"/>
      </g>
     </g>
    </g>
    <g id="text_13">
     <!-- Power density (dB/Hz) -->
     <g transform="translate(14.798437 191.570938) rotate(-90) scale(0.1 -0.1)">
      <defs>
       <path id="DejaVuSans-50" d="M 1259 4147 
L 1259 2394 
L 2053 2394 
Q 2494 2394 2734 2622 
Q 2975 2850 2975 3272 
Q 2975 3691 2734 3919 
Q 2494 4147 2053 4147 
L 1259 4147 
z
M 628 4666 
L 2053 4666 
Q 2838 4666 3239 4311 
Q 3641 3956 3641 3272 
Q 3641 2581 3239 2228 
Q 2838 1875 2053 1875 
L 1259 1875 
L 1259 0 
L 628 0 
L 628 4666 
z
" transform="scale(0.015625)"/>
       <path id="DejaVuSans-6f" d="M 1959 3097 
Q 1497 3097 1228 2736 
Q 959 2375 959 1747 
Q 959 1119 1226 758 
Q 1494 397 1959 397 
Q 2419 397 2687 759 
Q 2956 1122 2956 1747 
Q 2956 2369 2687 2733 
Q 2419 3097 1959 3097 
z
M 1959 3584 
Q 2709 3584 3137 3096 
Q 3566 2609 3566 1747 
Q 3566 888 3137 398 
Q 2709 -91 1959 -91 
Q 1206 -91 779 398 
Q 353 888 353 1747 
Q 353 2609 779 3096 
Q 1206 3584 1959 3584 
z
" transform="scale(0.015625)"/>
       <path id="DejaVuSans-77" d="M 269 3500 
L 844 3500 
L 1563 769 
L 2278 3500 
L 2956 3500 
L 3675 769 
L 4391 3500 
L 4966 3500 
L 4050 0 
L 3372 0 
L 2619 2869 
L 1863 0 
L 1184 0 
L 269 3500 
z
" transform="scale(0.015625)"/>
       <path id="DejaVuSans-64" d="M 2906 2969 
L 2906 4863 
L 3481 4863 
L 3481 0 
L 2906 0 
L 2906 525 
Q 2725 213 2448 61 
Q 2172 -91 1784 -91 
Q 1150 -91 751 415 
Q 353 922 353 1747 
Q 353 2572 751 3078 
Q 1150 3584 1784 3584 
Q 2172 3584 2448 3432 
Q 2725 3281 2906 2969 
z
M 947 1747 
Q 947 1113 1208 752 
Q 1469 391 1925 391 
Q 2381 391 2643 752 
Q 2906 1113 2906 1747 
Q 2906 2381 2643 2742 
Q 2381 3103 1925 3103 
Q 1469 3103 1208 2742 
Q 947 2381 947 1747 
z
" transform="scale(0.015625)"/>
       <path id="DejaVuSans-73" d="M 2834 3397 
L 2834 2853 
Q 2591 2978 2328 3040 
Q 2066 3103 1784 3103 
Q 1356 3103 1142 2972 
Q 928 2841 928 2578 
Q 928 2378 1081 2264 
Q 1234 2150 1697 2047 
L 1894 2003 
Q 2506 1872 2764 1633 
Q 3022 1394 3022 966 
Q 3022 478 2636 193 
Q 2250 -91 1575 -91 
Q 1294 -91 989 -36 
Q 684 19 347 128 
L 347 722 
Q 666 556 975 473 
Q 1284 391 1588 391 
Q 1994 391 2212 530 
Q 2431 669 2431 922 
Q 2431 1156 2273 1281 
Q 2116 1406 1581 1522 
L 1381 1569 
Q 847 1681 609 1914 
Q 372 2147 372 2553 
Q 372 3047 722 3315 
Q 1072 3584 1716 3584 
Q 2034 3584 2315 3537 
Q 2597 3491 2834 3397 
z
" transform="scale(0.015625)"/>
       <path id="DejaVuSans-69" d="M 603 3500 
L 1178 3500 
L 1178 0 
L 603 0 
L 603 3500 
z
M 603 4863 
L 1178 4863 
L 1178 4134 
L 603 4134 
L 603 4863 
z
" transform="scale(0.015625)"/>
       <path id="DejaVuSans-74" d="M 1172 4494 
L 1172 3500 
L 2356 3500 
L 2356 3053 
L 1172 3053 
L 1172 1153 
Q 1172 725 1289 603 
Q 1406 481 1766 481 
L 2356 481 
L 2356 0 
L 1766 0 
Q 1100 0 847 248 
Q 594 497 594 1153 
L 594 3053 
L 172 3053 
L 172 3500 
L 594 3500 
L 594 4494 
L 1172 4494 
z
" transform="scale(0.015625)"/>
       <path id="DejaVuSans-42" d="M 1259 2228 
L 1259 519 
L 2272 519 
Q 2781 519 3026 730 
Q 3272 941 3272 1375 
Q 3272 1813 3026 2020 
Q 2781 2228 2272 2228 
L 1259 2228 
z
M 1259 4147 
L 1259 2741 
L 2194 2741 
Q 2656 2741 2882 2914 
Q 3109 3088 3109 3444 
Q 3109 3797 2882 3972 
Q 2656 4147 2194 4147 
L 1259 4147 
z
M 628 4666 
L 2241 4666 
Q 2963 4666 3353 4366 
Q 3744 4066 3744 3513 
Q 3744 3084 3544 2831 
Q 3344 2578 2956 2516 
Q 3422 2416 3680 2098 
Q 3938 1781 3938 1306 
Q 3938 681 3513 340 
Q 3088 0 2303 0 
L 628 0 
L 628 4666 
z
" transform="scale(0.015625)"/>
       <path id="DejaVuSans-2f" d="M 1625 4666 
L 2156 4666 
L 531 -594 
L 0 -594 
L 1625 4666 
z
" transform="scale(0.015625)"/>
      </defs>
      <use xlink:href="#DejaVuSans-50"/>
      <use xlink:href="#DejaVuSans-6f" transform="translate(56.677734 0)"/>
      <use xlink:href="#DejaVuSans-77" transform="translate(117.859375 0)"/>
      <use xlink:href="#DejaVuSans-65" transform="translate(199.646484 0)"/>
      <use xlink:href="#DejaVuSans-72" transform="translate(261.169922 0)"/>
      <use xlink:href="#DejaVuSans-20" transform="translate(302.283203 0)"/>
      <use xlink:href="#DejaVuSans-64" transform="translate(334.070312 0)"/>
      <use xlink:href="#DejaVuSans-65" transform="translate(397.546875 0)"/>
      <use xlink:href="#DejaVuSans-6e" transform="translate(459.070312 0)"/>
      <use xlink:href="#DejaVuSans-73" transform="translate(522.449219 0)"/>
      <use xlink:href="#DejaVuSans-69" transform="translate(574.548828 0)"/>
      <use xlink:href="#DejaVuSans-74" transform="translate(602.332031 0)"/>
      <use xlink:href="#DejaVuSans-79" transform="translate(641.541016 0)"/>
      <use xlink:href="#DejaVuSans-20" transform="translate(700.720703 0)"/>
      <use xlink:href="#DejaVuSans-28" transform="translate(732.507812 0)"/>
      <use xlink:href="#DejaVuSans-64" transform="translate(771.521484 0)"/>
      <use xlink:href="#DejaVuSans-42" transform="translate(834.998047 0)"/>
      <use xlink:href="#DejaVuSans-2f" transform="translate(903.601562 0)"/>
      <use xlink:href="#DejaVuSans-48" transform="translate(937.292969 0)"/>
      <use xlink:href="#DejaVuSans-7a" transform="translate(1012.488281 0)"/>
      <use xlink:href="#DejaVuSans-29" transform="translate(1064.978516 0)"/>
     </g>
    </g>
   </g>
   <g id="line2d_23">
    <path d="M 72.610866 224.530841 
L 73.072577 224.970284 
L 73.534288 225.147307 
L 74.226855 225.151638 
L 76.073698 224.86352 
L 77.689686 224.927387 
L 78.613108 225.308044 
L 78.843963 225.114202 
L 79.074819 224.64517 
L 79.53653 222.82399 
L 80.690807 217.291044 
L 80.921662 216.80766 
L 81.152518 216.626668 
L 81.383373 216.718733 
L 82.306795 217.995392 
L 82.53765 217.924642 
L 82.768506 217.536646 
L 83.230217 216.038507 
L 83.922783 213.831415 
L 84.153638 213.529628 
L 84.384494 213.532057 
L 84.615349 213.845439 
L 85.07706 215.307857 
L 86.693048 222.244857 
L 86.923904 222.615879 
L 87.154759 222.748588 
L 87.385614 222.634913 
L 87.61647 222.267889 
L 88.078181 220.795439 
L 88.770747 217.299042 
L 89.694169 212.543546 
L 90.386735 209.922276 
L 90.848446 208.750657 
L 91.310157 208.217339 
L 91.541012 208.267569 
L 91.771868 208.571721 
L 92.233579 210.031412 
L 92.695289 212.63076 
L 93.849567 220.56537 
L 94.080422 221.351657 
L 94.311278 221.671275 
L 94.542133 221.591089 
L 95.003844 220.733213 
L 95.69641 219.299694 
L 96.158121 218.837448 
L 96.388976 218.817151 
L 96.619832 218.97196 
L 96.850687 219.342446 
L 97.081543 219.981246 
L 97.543254 222.312792 
L 98.004965 226.416835 
L 98.928386 236.014205 
L 99.159242 235.316765 
L 99.620953 228.655891 
L 100.313519 217.216098 
L 100.77523 212.314489 
L 101.236941 209.677273 
L 101.467796 209.07614 
L 101.698652 208.861032 
L 101.929507 208.947491 
L 103.083784 210.335842 
L 103.31464 210.240081 
L 104.238061 209.241322 
L 104.468917 209.260044 
L 104.699772 209.519629 
L 105.161483 210.854787 
L 105.623194 213.185503 
L 106.777471 219.682041 
L 107.239182 221.065922 
L 108.162604 222.718653 
L 108.624315 223.367744 
L 108.85517 223.519994 
L 109.086026 223.490646 
L 109.316881 223.264206 
L 109.778592 222.353648 
L 110.471158 220.923331 
L 110.702014 220.701677 
L 110.932869 220.668026 
L 111.163724 220.821654 
L 111.625435 221.554122 
L 112.087146 222.379957 
L 112.318002 222.604358 
L 112.548857 222.613124 
L 112.779713 222.397448 
L 113.703134 220.821421 
L 113.93399 220.775375 
L 114.164845 221.021429 
L 114.626556 222.385853 
L 115.319122 225.007263 
L 115.549978 225.187353 
L 115.780833 224.687075 
L 116.242544 221.804656 
L 117.396821 212.564494 
L 117.858532 210.267615 
L 118.320243 208.799889 
L 118.781954 207.902165 
L 119.47452 207.074148 
L 120.628797 206.004691 
L 121.090508 205.835058 
L 121.321364 205.912455 
L 121.552219 206.148331 
L 121.783075 206.582559 
L 122.244785 208.202139 
L 122.706496 211.045938 
L 123.399063 217.765319 
L 124.091629 225.359087 
L 124.322484 227.003072 
L 124.55334 227.821564 
L 124.784195 227.855735 
L 125.245906 226.578969 
L 125.938472 224.556356 
L 126.400183 223.44315 
L 126.861894 221.622419 
L 128.247027 214.208998 
L 128.708738 213.214945 
L 129.632159 212.201633 
L 130.09387 211.113147 
L 130.786437 209.357037 
L 131.017292 209.051579 
L 131.248147 208.975679 
L 131.479003 209.147575 
L 131.940714 210.204548 
L 132.63328 213.110891 
L 133.787557 218.684694 
L 134.249268 220.027687 
L 134.480124 220.284679 
L 134.710979 220.227796 
L 134.941834 219.869795 
L 135.403545 218.44337 
L 137.019533 212.14661 
L 137.481244 211.388918 
L 137.7121 211.312155 
L 137.942955 211.430827 
L 138.404666 212.102068 
L 138.866377 212.836067 
L 139.097232 212.968 
L 139.328088 212.823453 
L 139.558943 212.369621 
L 140.020654 210.705813 
L 140.944076 207.055962 
L 141.405787 206.201747 
L 141.636642 206.077024 
L 141.867498 206.124713 
L 142.329208 206.593688 
L 143.021775 207.770909 
L 143.483486 208.84425 
L 143.945197 210.47838 
L 144.406907 213.07534 
L 144.868618 216.911259 
L 146.253751 231.166236 
L 146.484606 231.788132 
L 146.715462 231.375989 
L 147.177173 228.141512 
L 148.33145 217.24541 
L 148.793161 214.48017 
L 149.254872 212.933481 
L 150.409149 210.52444 
L 151.101715 207.233876 
L 151.563426 205.205312 
L 151.794281 204.579047 
L 152.025137 204.303496 
L 152.255992 204.408012 
L 152.486848 204.891505 
L 152.948559 206.836377 
L 153.87198 211.823263 
L 154.333691 213.036953 
L 154.795402 213.335996 
L 155.257113 213.549027 
L 155.718824 214.248357 
L 157.103956 217.30463 
L 157.334812 217.362542 
L 157.565667 217.211528 
L 158.027378 216.366651 
L 158.719944 214.838448 
L 158.9508 214.69218 
L 159.181655 214.868706 
L 159.643366 216.073511 
L 160.105077 217.296965 
L 160.335933 217.409032 
L 161.028499 216.714898 
L 161.49021 216.942437 
L 161.721065 216.369993 
L 161.951921 214.474388 
L 162.644487 205.941357 
L 162.875342 205.84127 
L 163.106198 208.932561 
L 163.337053 215.428985 
L 163.567909 214.896041 
L 164.260475 164.834736 
L 164.953041 135.490949 
L 165.645608 117.969783 
L 166.107318 110.6133 
L 166.569029 106.092548 
L 166.799885 104.812845 
L 167.03074 104.163699 
L 167.261596 104.138197 
L 167.492451 104.737182 
L 167.723307 105.96936 
L 168.185017 110.412063 
L 168.646728 117.73735 
L 169.108439 128.486743 
L 169.57015 143.760443 
L 170.031861 166.135782 
L 170.724427 214.917201 
L 171.186138 200.175182 
L 171.416994 197.523093 
L 171.647849 197.942183 
L 171.878704 200.517488 
L 172.802126 216.329518 
L 173.263837 219.142561 
L 173.725548 221.676224 
L 174.418114 225.883843 
L 174.64897 226.46035 
L 175.110681 226.762544 
L 175.572391 227.209998 
L 176.264958 228.071629 
L 176.726669 228.097116 
L 177.65009 227.791782 
L 177.880946 227.541368 
L 178.342657 226.526962 
L 179.035223 224.013454 
L 179.958645 219.644853 
L 180.651211 216.384841 
L 181.112922 215.069199 
L 181.343777 214.802451 
L 181.574633 214.810841 
L 181.805488 215.078891 
L 182.267199 216.233868 
L 183.190621 219.139987 
L 183.652332 219.861851 
L 183.883187 219.957517 
L 184.344898 219.743799 
L 185.037464 218.928657 
L 186.884308 216.606828 
L 187.346019 216.411004 
L 187.576874 216.499596 
L 188.038585 217.110691 
L 189.192862 219.484225 
L 189.423718 219.597744 
L 189.654573 219.504008 
L 190.116284 218.818831 
L 191.039706 216.596607 
L 191.963127 213.772463 
L 192.655694 211.71124 
L 193.117405 210.911465 
L 193.34826 210.760415 
L 193.579115 210.775822 
L 194.040826 211.210798 
L 194.964248 212.451575 
L 195.425959 212.692981 
L 195.88767 212.847549 
L 196.118525 213.055012 
L 196.349381 213.454139 
L 196.580236 214.123116 
L 197.041947 216.556109 
L 197.503658 220.8182 
L 198.657935 234.109019 
L 198.888791 233.415267 
L 199.350501 227.805956 
L 200.043068 218.657003 
L 200.504779 214.747827 
L 200.966489 212.515965 
L 201.4282 211.599097 
L 201.659056 211.536201 
L 201.889911 211.69334 
L 202.351622 212.518697 
L 203.044188 214.050968 
L 203.275044 214.24127 
L 203.505899 214.110712 
L 203.736755 213.636725 
L 204.891032 209.676684 
L 205.121887 209.49779 
L 205.352743 209.738642 
L 205.583598 210.431359 
L 206.045309 213.132947 
L 206.968731 220.408762 
L 207.199586 221.157787 
L 207.430442 221.05885 
L 207.661297 220.214798 
L 209.508141 209.830396 
L 209.969851 208.699075 
L 210.200707 208.483977 
L 210.431562 208.551955 
L 210.662418 208.938233 
L 211.124129 210.759929 
L 211.58584 213.951093 
L 212.509261 221.528482 
L 212.740117 222.545067 
L 212.970972 222.891496 
L 213.201828 222.629992 
L 213.663538 221.056473 
L 214.356105 218.746513 
L 214.817816 218.171967 
L 215.048671 218.207207 
L 215.279527 218.442283 
L 215.741237 219.457592 
L 216.202948 221.101715 
L 217.588081 226.693612 
L 217.818936 227.027366 
L 218.049792 227.098576 
L 218.511503 226.7394 
L 218.973214 226.378064 
L 219.204069 226.381609 
L 219.896635 226.658801 
L 220.127491 226.239311 
L 220.358346 225.159702 
L 220.820057 220.786915 
L 221.974334 207.145547 
L 222.436045 204.305744 
L 222.666901 203.668235 
L 222.897756 203.549586 
L 223.128611 203.928937 
L 223.590322 205.992896 
L 224.513744 211.832042 
L 224.744599 212.452712 
L 224.975455 212.419853 
L 225.20631 211.791657 
L 225.668021 209.455024 
L 226.591443 204.527328 
L 227.284009 201.997756 
L 227.976576 200.40274 
L 228.438286 199.865004 
L 228.669142 199.769093 
L 228.899997 199.796763 
L 229.130853 199.955051 
L 229.592564 200.696793 
L 230.054275 202.067648 
L 230.515985 204.127463 
L 231.208552 208.454996 
L 233.055395 221.298021 
L 233.517106 223.227866 
L 233.978817 224.146756 
L 234.209672 224.143012 
L 234.440528 223.834197 
L 234.902239 222.563461 
L 235.594805 220.626679 
L 235.82566 220.367692 
L 236.056516 220.397978 
L 236.287371 220.725462 
L 236.749082 222.083942 
L 237.210793 223.49293 
L 237.441648 223.681325 
L 237.672504 223.244882 
L 237.903359 222.111131 
L 238.36507 218.220973 
L 239.288492 209.491613 
L 239.750203 206.510611 
L 240.211914 204.800345 
L 240.442769 204.428416 
L 240.673625 204.374105 
L 240.90448 204.631052 
L 241.366191 206.039813 
L 241.827902 208.529733 
L 243.213034 217.978198 
L 243.44389 218.586375 
L 243.674745 218.608651 
L 243.905601 218.084825 
L 244.367312 215.945745 
L 245.290733 211.200048 
L 245.752444 209.626019 
L 246.214155 208.591698 
L 246.675866 207.948501 
L 247.137577 207.593081 
L 247.599288 207.471459 
L 248.291854 207.579266 
L 249.446131 207.977785 
L 249.907842 208.377455 
L 250.369553 209.139919 
L 250.831264 210.346037 
L 251.52383 212.939317 
L 253.139818 220.037032 
L 253.601529 220.820307 
L 253.832385 220.861028 
L 254.294095 220.548427 
L 254.755806 220.272777 
L 254.986662 220.293536 
L 255.910083 220.88354 
L 256.140939 220.721154 
L 256.371794 220.253982 
L 256.833505 218.376633 
L 258.911204 207.148847 
L 259.372915 205.813822 
L 259.834626 205.200669 
L 260.065481 205.208769 
L 260.296337 205.441758 
L 260.758048 206.574629 
L 261.450614 209.537064 
L 262.14318 212.489212 
L 262.604891 213.52119 
L 263.066602 213.8017 
L 263.528313 213.867874 
L 263.990024 214.196566 
L 264.68259 215.286266 
L 265.144301 215.946219 
L 265.375156 216.102293 
L 265.606012 216.09457 
L 265.836867 215.905419 
L 266.298578 214.969586 
L 266.760289 213.355824 
L 267.914566 208.495952 
L 268.145422 207.945283 
L 268.376277 207.709729 
L 268.607132 207.847355 
L 268.837988 208.401101 
L 269.299699 210.817491 
L 270.453976 219.392715 
L 270.684831 219.373986 
L 270.915687 218.419797 
L 272.069964 210.827843 
L 272.300819 210.187604 
L 272.531675 209.96494 
L 272.76253 210.13441 
L 272.993386 210.651615 
L 273.455097 212.457733 
L 274.147663 215.53928 
L 274.378518 216.170652 
L 274.609374 216.450722 
L 274.840229 216.371221 
L 275.30194 215.394531 
L 276.225362 212.884289 
L 276.687073 212.365424 
L 276.917928 212.359001 
L 277.148784 212.509403 
L 277.610495 213.178309 
L 278.533916 214.735678 
L 278.764772 214.861182 
L 278.995627 214.800746 
L 279.226483 214.544861 
L 279.688193 213.502794 
L 280.38076 211.073515 
L 281.535037 206.904673 
L 281.996748 205.992383 
L 282.227603 205.822716 
L 282.458459 205.865005 
L 282.689314 206.121922 
L 283.151025 207.241513 
L 283.843591 210.060489 
L 284.536158 212.801556 
L 284.767013 213.128399 
L 284.997869 212.918096 
L 285.228724 212.115189 
L 285.690435 209.062482 
L 286.613857 201.840644 
L 287.075567 199.554639 
L 287.306423 198.938309 
L 287.537278 198.71365 
L 287.768134 198.903578 
L 287.998989 199.523745 
L 288.4607 202.06463 
L 288.922411 206.215419 
L 289.845833 217.749299 
L 290.538399 225.470213 
L 290.769254 226.289872 
L 291.00011 225.79675 
L 291.461821 222.135643 
L 292.154387 216.255417 
L 292.616098 214.05585 
L 292.846953 213.500079 
L 293.077809 213.265991 
L 293.308664 213.293806 
L 293.770375 213.639816 
L 294.001231 213.586882 
L 294.232086 213.168129 
L 295.155508 210.137228 
L 295.386363 210.219834 
L 295.617219 210.860168 
L 296.309785 213.755596 
L 296.54064 213.956629 
L 297.002351 213.262896 
L 297.464062 212.347539 
L 297.694918 211.270691 
L 298.156628 206.440762 
L 298.618339 201.39337 
L 298.849195 200.605457 
L 299.08005 201.714998 
L 299.310906 205.259391 
L 299.541761 211.878582 
L 300.003472 229.013245 
L 300.234327 222.754406 
L 300.696038 207.217928 
L 300.926894 205.776268 
L 301.157749 209.018278 
L 301.388605 216.79593 
L 301.61946 219.650964 
L 302.312026 182.799154 
L 302.542882 177.642271 
L 302.773737 176.491151 
L 303.004593 180.155475 
L 303.235448 191.636147 
L 303.466303 217.927929 
L 303.928014 169.365966 
L 304.389725 148.268105 
L 304.620581 145.269475 
L 304.851436 147.850746 
L 305.082292 161.088829 
L 305.313147 216.018947 
L 305.544002 143.698895 
L 306.005713 100.176483 
L 306.467424 76.436087 
L 307.15999 53.966443 
L 307.852557 40.630279 
L 308.314268 35.500522 
L 308.775979 32.998694 
L 309.006834 32.688267 
L 309.237689 32.99731 
L 309.468545 33.929553 
L 309.930256 37.71785 
L 310.391967 44.256252 
L 310.853677 53.957767 
L 311.315388 67.629821 
L 311.777099 87.042265 
L 312.23881 117.516702 
L 312.469666 143.844776 
L 312.700521 208.883544 
L 312.931376 160.258471 
L 313.162232 147.347216 
L 313.393087 144.813606 
L 313.623943 147.7746 
L 313.854798 155.334385 
L 314.085654 168.353567 
L 314.547364 209.012167 
L 315.009075 178.951887 
L 315.239931 175.362128 
L 315.470786 176.351058 
L 315.701642 181.137998 
L 316.163353 202.120145 
L 316.394208 214.266362 
L 316.625063 213.60919 
L 317.086774 203.289282 
L 317.31763 203.590395 
L 317.548485 207.48039 
L 318.241051 226.866161 
L 318.933618 215.038131 
L 319.164473 214.651447 
L 319.85704 219.40281 
L 320.087895 218.47669 
L 320.780461 212.631413 
L 321.011317 212.43999 
L 321.242172 213.192604 
L 321.703883 215.495502 
L 321.934738 215.92411 
L 322.165594 215.662425 
L 322.627305 214.666565 
L 322.85816 214.657636 
L 323.089016 215.084092 
L 323.781582 216.902967 
L 324.705004 217.849269 
L 325.628425 220.639671 
L 325.859281 220.764437 
L 326.551847 220.349835 
L 326.782703 220.430313 
L 327.475269 221.031852 
L 327.706124 220.919397 
L 327.93698 220.516173 
L 328.398691 219.021737 
L 329.091257 216.542625 
L 329.552968 215.767376 
L 329.783823 215.814424 
L 330.014679 216.170865 
L 330.47639 217.655852 
L 331.399811 221.137376 
L 332.554089 224.255163 
L 333.47751 227.368751 
L 333.708366 227.703996 
L 333.939221 227.746078 
L 334.170077 227.527195 
L 335.093498 226.08791 
L 335.324354 226.130226 
L 335.555209 226.459259 
L 336.01692 227.863007 
L 336.478631 229.485116 
L 336.709486 229.893985 
L 336.940342 229.760614 
L 337.171197 228.972961 
L 337.632908 225.625926 
L 338.787185 214.879627 
L 339.248896 212.163382 
L 339.710607 210.774895 
L 339.941463 210.583839 
L 340.172318 210.734772 
L 340.403173 211.235838 
L 340.864884 213.285674 
L 341.557451 218.296788 
L 342.250017 223.143885 
L 342.942583 226.601546 
L 343.173439 227.291258 
L 343.404294 227.499444 
L 343.63515 227.182572 
L 344.09686 225.900414 
L 344.327716 225.627334 
L 344.558571 225.865555 
L 345.020282 226.880416 
L 345.251138 226.377433 
L 345.712848 221.896624 
L 346.174559 217.21979 
L 346.405415 216.283001 
L 346.63627 216.414528 
L 347.097981 218.061382 
L 347.328837 217.884008 
L 348.252258 212.798375 
L 348.713969 214.714673 
L 348.944825 213.289912 
L 349.868246 194.877801 
L 350.099102 195.459653 
L 350.329957 200.247519 
L 350.560813 210.423757 
L 350.791668 215.45271 
L 351.484234 171.561036 
L 351.71509 165.400766 
L 351.945945 163.451041 
L 352.176801 166.970263 
L 352.407656 181.543882 
L 352.638512 217.525632 
L 352.869367 160.706598 
L 353.331078 119.123168 
L 353.792789 96.040269 
L 354.485355 74.176589 
L 354.947066 64.783447 
L 355.408777 58.517058 
L 355.870488 54.982125 
L 356.101343 54.173512 
L 356.332199 53.987888 
L 356.563054 54.422878 
L 356.793909 55.483643 
L 357.25562 59.54351 
L 357.717331 66.388485 
L 358.179042 76.463315 
L 358.640753 90.645336 
L 359.102464 110.910181 
L 359.564175 143.61947 
L 360.025886 213.447101 
L 360.256741 175.464566 
L 360.487596 166.006513 
L 360.718452 164.715312 
L 360.949307 168.246167 
L 361.180163 175.927954 
L 361.411018 188.337162 
L 361.872729 224.403406 
L 362.33444 205.771509 
L 362.565295 203.445738 
L 362.796151 205.997703 
L 363.488717 226.245102 
L 364.181283 208.164613 
L 364.412139 206.3404 
L 364.642994 206.873811 
L 364.87385 209.308345 
L 365.566416 220.407444 
L 365.797271 221.812431 
L 366.028127 221.770823 
L 366.489838 220.880573 
L 366.720693 220.585914 
L 366.951549 220.012476 
L 367.41326 217.13064 
L 368.105826 212.046049 
L 368.567537 210.644817 
L 368.798392 210.464374 
L 369.029248 210.483248 
L 369.490958 210.889809 
L 369.952669 211.899481 
L 370.41438 213.756698 
L 371.337802 217.91953 
L 371.568657 218.284084 
L 371.799513 218.201434 
L 372.030368 217.697346 
L 372.492079 215.824086 
L 373.184645 212.855928 
L 373.646356 211.928153 
L 373.877212 211.878294 
L 374.108067 212.072393 
L 374.569778 212.948862 
L 375.031489 213.902001 
L 375.262344 214.159683 
L 375.4932 214.152369 
L 375.724055 213.831093 
L 376.185766 212.330221 
L 377.109188 208.653953 
L 377.570899 207.84771 
L 377.801754 207.745855 
L 378.725176 207.867143 
L 379.186887 207.49813 
L 379.879453 206.724876 
L 380.110309 206.620891 
L 380.341164 206.658707 
L 380.572019 206.852586 
L 381.03373 207.677631 
L 382.418863 210.865223 
L 383.57314 212.343504 
L 384.034851 213.629938 
L 385.650839 219.334758 
L 386.11255 219.76908 
L 386.574261 219.647485 
L 387.266827 219.233167 
L 387.497683 219.250989 
L 387.728538 219.440217 
L 387.959393 219.849988 
L 388.421104 221.452609 
L 389.575381 227.421474 
L 389.806237 227.576117 
L 390.037092 227.021963 
L 390.498803 224.395132 
L 391.19137 220.288516 
L 391.422225 219.526693 
L 391.65308 219.16729 
L 391.883936 219.207055 
L 392.114791 219.6106 
L 392.576502 221.201102 
L 393.038213 222.968569 
L 393.269068 223.508114 
L 393.499924 223.638136 
L 393.730779 223.321107 
L 394.19249 221.65675 
L 394.885057 218.677173 
L 395.346767 217.571689 
L 395.577623 217.404042 
L 395.808478 217.489228 
L 396.039334 217.802341 
L 396.501045 218.944271 
L 397.424466 221.629555 
L 397.655322 222.012295 
L 397.886177 222.172973 
L 398.117033 222.082832 
L 398.347888 221.736468 
L 398.809599 220.390618 
L 399.963876 216.310569 
L 400.425587 215.550909 
L 400.887298 215.335273 
L 401.579864 215.261118 
L 402.734141 214.836199 
L 402.964997 215.059594 
L 403.195852 215.510174 
L 403.657563 217.175909 
L 404.81184 223.037938 
L 405.042696 223.250603 
L 405.273551 222.779506 
L 405.735262 220.087243 
L 407.120395 209.36896 
L 407.812961 205.952532 
L 408.274672 204.716516 
L 408.505527 204.467789 
L 408.736383 204.488674 
L 408.967238 204.786978 
L 409.428949 206.164161 
L 410.352371 209.96949 
L 410.583226 210.325747 
L 410.814082 210.183504 
L 411.044937 209.551003 
L 411.737503 206.029609 
L 412.43007 203.013598 
L 412.891781 202.120877 
L 413.122636 201.994151 
L 413.353491 202.0368 
L 413.815202 202.478346 
L 414.507769 203.663995 
L 414.96948 204.814323 
L 415.662046 207.349907 
L 416.585468 210.894884 
L 416.816323 211.248122 
L 417.047178 211.252532 
L 417.278034 210.928406 
L 417.739745 209.612414 
L 418.663167 206.645469 
L 420.048299 202.793637 
L 420.971721 200.162887 
L 421.433432 199.670084 
L 421.664287 199.73158 
L 421.895143 199.999167 
L 422.356854 201.059775 
L 423.972842 205.794186 
L 424.434552 207.062807 
L 424.896263 209.035119 
L 425.357974 212.259719 
L 425.819685 217.032346 
L 426.743107 227.535049 
L 426.973962 228.235084 
L 427.204818 227.644235 
L 428.58995 219.304386 
L 428.820806 219.215488 
L 429.051661 219.557793 
L 429.513372 221.238954 
L 430.667649 226.425344 
L 431.12936 227.277506 
L 431.360216 227.430349 
L 431.821926 227.357139 
L 432.283637 226.849107 
L 432.745348 225.859635 
L 434.361336 221.179358 
L 434.592192 220.919646 
L 434.823047 220.831419 
L 435.053903 220.899184 
L 435.515613 221.359156 
L 436.20818 222.072237 
L 436.669891 222.078239 
L 437.362457 221.519608 
L 438.285879 220.651197 
L 438.74759 219.730364 
L 439.2093 218.057164 
L 440.363578 213.050948 
L 440.825288 212.221928 
L 441.056144 212.174797 
L 441.286999 212.332164 
L 441.979566 213.224895 
L 442.210421 213.289547 
L 442.441277 213.059464 
L 442.672132 212.488199 
L 443.133843 210.461316 
L 444.057265 205.729569 
L 444.518975 204.469177 
L 444.749831 204.288532 
L 444.980686 204.435967 
L 445.211542 204.922367 
L 445.673253 206.924341 
L 446.134964 210.256046 
L 446.82753 217.319706 
L 447.981807 230.039221 
L 448.443518 233.059555 
L 448.674373 233.762954 
L 448.905229 233.869088 
L 449.136084 233.385899 
L 449.597795 230.962224 
L 452.137205 213.097902 
L 452.829771 209.80484 
L 453.291482 208.67101 
L 453.522338 208.470164 
L 453.753193 208.495355 
L 454.214904 209.069781 
L 455.830892 212.292658 
L 456.292603 213.827755 
L 456.754314 216.327688 
L 457.44688 221.993163 
L 458.139446 227.715303 
L 458.370302 228.664034 
L 458.601157 228.806914 
L 458.832013 228.14839 
L 459.293723 225.149139 
L 460.217145 218.161432 
L 460.678856 215.974119 
L 460.909712 215.364045 
L 461.140567 215.09937 
L 461.371422 215.185822 
L 461.602278 215.617794 
L 462.063989 217.410836 
L 462.98741 222.252225 
L 463.218266 222.803872 
L 463.449121 222.778387 
L 463.679977 222.159344 
L 464.141688 219.59815 
L 465.065109 213.705071 
L 465.52682 212.102458 
L 465.757676 211.829961 
L 465.988531 211.946531 
L 466.219387 212.462838 
L 466.681097 214.618741 
L 467.604519 219.874156 
L 467.835375 219.914979 
L 468.06623 219.09355 
L 468.527941 215.700797 
L 469.220507 210.485029 
L 469.682218 208.655104 
L 469.913074 208.316392 
L 470.143929 208.320237 
L 470.374784 208.606146 
L 471.529062 210.793613 
L 471.759917 210.66877 
L 472.221628 209.653802 
L 473.14505 206.908614 
L 473.606761 206.188422 
L 474.068471 205.982816 
L 474.530182 206.111818 
L 474.991893 206.509629 
L 475.453604 207.376373 
L 475.915315 209.092612 
L 476.377026 211.975687 
L 477.762158 223.317868 
L 477.993014 223.880203 
L 478.223869 223.842921 
L 478.68558 222.775421 
L 479.147291 221.69448 
L 479.378146 221.420082 
L 479.609002 221.354631 
L 479.839857 221.478516 
L 480.301568 222.145468 
L 481.22499 224.253652 
L 482.148412 226.500284 
L 482.610123 227.140311 
L 482.840978 227.217368 
L 483.071833 227.127814 
L 483.533544 226.593062 
L 484.226111 225.770505 
L 484.456966 225.696778 
L 484.687822 225.770648 
L 485.149532 226.366651 
L 486.30381 228.777275 
L 486.534665 228.753263 
L 486.76552 228.291218 
L 486.996376 227.324851 
L 487.458087 224.005928 
L 488.843219 211.893643 
L 489.30493 209.43401 
L 489.766641 207.999791 
L 490.228352 207.429819 
L 490.459207 207.397391 
L 490.920918 207.692916 
L 491.382629 208.338239 
L 491.84434 209.312806 
L 492.306051 210.751304 
L 492.767762 212.849014 
L 493.460328 217.387098 
L 494.614605 225.615271 
L 495.076316 227.372669 
L 495.538027 228.036431 
L 495.768883 228.016266 
L 495.999738 227.761884 
L 496.461449 226.499575 
L 497.154015 223.123756 
L 497.846581 219.996676 
L 498.077437 219.414868 
L 498.308292 219.143289 
L 498.539148 219.192919 
L 498.770003 219.548729 
L 499.231714 220.97365 
L 499.92428 223.364007 
L 500.155136 223.747294 
L 500.385991 223.816778 
L 500.616847 223.611973 
L 501.771124 221.794459 
L 502.232835 221.389641 
L 502.46369 221.046007 
L 502.925401 219.70955 
L 504.310534 214.219234 
L 504.541389 214.054368 
L 504.772245 214.235578 
L 505.0031 214.753344 
L 505.464811 216.631848 
L 506.388233 221.200541 
L 506.619088 221.84467 
L 506.849943 222.139125 
L 507.080799 222.092018 
L 507.311654 221.750935 
L 507.773365 220.442515 
L 508.465932 217.626704 
L 509.620209 211.76717 
L 510.54363 207.003825 
L 511.005341 205.354358 
L 511.236197 204.870764 
L 511.467052 204.666471 
L 511.697908 204.771687 
L 511.928763 205.207297 
L 512.390474 207.085874 
L 513.08304 211.810498 
L 513.544751 214.67716 
L 513.775607 215.35682 
L 514.006462 215.322981 
L 514.237317 214.613651 
L 514.929884 210.532722 
L 515.391595 208.179081 
L 515.853306 206.959827 
L 516.084161 206.782314 
L 516.315016 206.844425 
L 516.776727 207.438431 
L 517.469294 208.408934 
L 517.700149 208.525886 
L 518.16186 208.39417 
L 519.316137 207.338575 
L 520.008703 206.545576 
L 521.393836 204.26244 
L 521.624691 204.187457 
L 521.855547 204.310225 
L 522.086402 204.653491 
L 522.548113 206.038919 
L 523.009824 208.328691 
L 523.70239 213.180708 
L 524.856668 223.628544 
L 526.010945 234.212284 
L 526.703511 238.637593 
L 527.165222 240.023643 
L 527.396077 240.053608 
L 527.626933 239.564525 
L 528.088644 237.086194 
L 529.935487 223.560994 
L 530.858909 219.966561 
L 531.782331 216.87801 
L 532.244042 215.977827 
L 532.474897 215.833787 
L 532.705752 215.922777 
L 532.936608 216.244901 
L 533.398319 217.48748 
L 534.32174 220.536624 
L 534.552596 220.936932 
L 534.783451 221.099994 
L 535.014307 221.055815 
L 535.937729 220.383601 
L 536.168584 220.47647 
L 536.399439 220.760227 
L 536.86115 221.878169 
L 538.246283 226.207015 
L 538.477138 226.429506 
L 538.707994 226.366786 
L 538.938849 225.975777 
L 539.40056 224.117033 
L 540.093126 219.182546 
L 541.016548 212.598218 
L 541.478259 210.736288 
L 541.709114 210.283584 
L 541.93997 210.157137 
L 542.170825 210.349727 
L 542.401681 210.845156 
L 542.863392 212.63535 
L 543.555958 216.662283 
L 544.47938 221.946031 
L 544.941091 223.60186 
L 545.171946 224.144458 
L 545.171946 224.144458 
" clip-path="url(#pdeb9ed41fc)" style="fill: none; stroke: #1f77b4; stroke-linecap: square"/>
   </g>
   <g id="patch_3">
    <path d="M 48.982813 250.421875 
L 48.982813 22.32 
" style="fill: none; stroke: #000000; stroke-width: 0.8; stroke-linejoin: miter; stroke-linecap: square"/>
   </g>
   <g id="patch_4">
    <path d="M 568.8 250.421875 
L 568.8 22.32 
" style="fill: none; stroke: #000000; stroke-width: 0.8; stroke-linejoin: miter; stroke-linecap: square"/>
   </g>
   <g id="patch_5">
    <path d="M 48.982813 250.421875 
L 568.8 250.421875 
" style="fill: none; stroke: #000000; stroke-width: 0.8; stroke-linejoin: miter; stroke-linecap: square"/>
   </g>
   <g id="patch_6">
    <path d="M 48.982813 22.32 
L 568.8 22.32 
" style="fill: none; stroke: #000000; stroke-width: 0.8; stroke-linejoin: miter; stroke-linecap: square"/>
   </g>
   <g id="text_14">
    <!-- Periodogram of $x_c[n]$ -->
    <g transform="translate(246.371406 16.32) scale(0.12 -0.12)">
     <defs>
      <path id="DejaVuSans-67" d="M 2906 1791 
Q 2906 2416 2648 2759 
Q 2391 3103 1925 3103 
Q 1463 3103 1205 2759 
Q 947 2416 947 1791 
Q 947 1169 1205 825 
Q 1463 481 1925 481 
Q 2391 481 2648 825 
Q 2906 1169 2906 1791 
z
M 3481 434 
Q 3481 -459 3084 -895 
Q 2688 -1331 1869 -1331 
Q 1566 -1331 1297 -1286 
Q 1028 -1241 775 -1147 
L 775 -588 
Q 1028 -725 1275 -790 
Q 1522 -856 1778 -856 
Q 2344 -856 2625 -561 
Q 2906 -266 2906 331 
L 2906 616 
Q 2728 306 2450 153 
Q 2172 0 1784 0 
Q 1141 0 747 490 
Q 353 981 353 1791 
Q 353 2603 747 3093 
Q 1141 3584 1784 3584 
Q 2172 3584 2450 3431 
Q 2728 3278 2906 2969 
L 2906 3500 
L 3481 3500 
L 3481 434 
z
" transform="scale(0.015625)"/>
      <path id="DejaVuSans-61" d="M 2194 1759 
Q 1497 1759 1228 1600 
Q 959 1441 959 1056 
Q 959 750 1161 570 
Q 1363 391 1709 391 
Q 2188 391 2477 730 
Q 2766 1069 2766 1631 
L 2766 1759 
L 2194 1759 
z
M 3341 1997 
L 3341 0 
L 2766 0 
L 2766 531 
Q 2569 213 2275 61 
Q 1981 -91 1556 -91 
Q 1019 -91 701 211 
Q 384 513 384 1019 
Q 384 1609 779 1909 
Q 1175 2209 1959 2209 
L 2766 2209 
L 2766 2266 
Q 2766 2663 2505 2880 
Q 2244 3097 1772 3097 
Q 1472 3097 1187 3025 
Q 903 2953 641 2809 
L 641 3341 
Q 956 3463 1253 3523 
Q 1550 3584 1831 3584 
Q 2591 3584 2966 3190 
Q 3341 2797 3341 1997 
z
" transform="scale(0.015625)"/>
      <path id="DejaVuSans-6d" d="M 3328 2828 
Q 3544 3216 3844 3400 
Q 4144 3584 4550 3584 
Q 5097 3584 5394 3201 
Q 5691 2819 5691 2113 
L 5691 0 
L 5113 0 
L 5113 2094 
Q 5113 2597 4934 2840 
Q 4756 3084 4391 3084 
Q 3944 3084 3684 2787 
Q 3425 2491 3425 1978 
L 3425 0 
L 2847 0 
L 2847 2094 
Q 2847 2600 2669 2842 
Q 2491 3084 2119 3084 
Q 1678 3084 1418 2786 
Q 1159 2488 1159 1978 
L 1159 0 
L 581 0 
L 581 3500 
L 1159 3500 
L 1159 2956 
Q 1356 3278 1631 3431 
Q 1906 3584 2284 3584 
Q 2666 3584 2933 3390 
Q 3200 3197 3328 2828 
z
" transform="scale(0.015625)"/>
      <path id="DejaVuSans-66" d="M 2375 4863 
L 2375 4384 
L 1825 4384 
Q 1516 4384 1395 4259 
Q 1275 4134 1275 3809 
L 1275 3500 
L 2222 3500 
L 2222 3053 
L 1275 3053 
L 1275 0 
L 697 0 
L 697 3053 
L 147 3053 
L 147 3500 
L 697 3500 
L 697 3744 
Q 697 4328 969 4595 
Q 1241 4863 1831 4863 
L 2375 4863 
z
" transform="scale(0.015625)"/>
      <path id="DejaVuSans-Oblique-78" d="M 3841 3500 
L 2234 1784 
L 3219 0 
L 2559 0 
L 1819 1388 
L 531 0 
L -166 0 
L 1556 1844 
L 641 3500 
L 1300 3500 
L 1972 2234 
L 3144 3500 
L 3841 3500 
z
" transform="scale(0.015625)"/>
      <path id="DejaVuSans-Oblique-63" d="M 3431 3366 
L 3316 2797 
Q 3109 2947 2876 3022 
Q 2644 3097 2394 3097 
Q 2119 3097 1870 3000 
Q 1622 2903 1453 2725 
Q 1184 2453 1037 2087 
Q 891 1722 891 1331 
Q 891 859 1127 628 
Q 1363 397 1844 397 
Q 2081 397 2348 469 
Q 2616 541 2906 684 
L 2797 116 
Q 2547 13 2283 -39 
Q 2019 -91 1741 -91 
Q 1044 -91 669 257 
Q 294 606 294 1253 
Q 294 1797 489 2255 
Q 684 2713 1069 3078 
Q 1331 3328 1684 3456 
Q 2038 3584 2456 3584 
Q 2700 3584 2940 3529 
Q 3181 3475 3431 3366 
z
" transform="scale(0.015625)"/>
      <path id="DejaVuSans-5b" d="M 550 4863 
L 1875 4863 
L 1875 4416 
L 1125 4416 
L 1125 -397 
L 1875 -397 
L 1875 -844 
L 550 -844 
L 550 4863 
z
" transform="scale(0.015625)"/>
      <path id="DejaVuSans-Oblique-6e" d="M 3566 2113 
L 3156 0 
L 2578 0 
L 2988 2091 
Q 3016 2238 3031 2350 
Q 3047 2463 3047 2528 
Q 3047 2791 2881 2937 
Q 2716 3084 2419 3084 
Q 1956 3084 1622 2776 
Q 1288 2469 1184 1941 
L 800 0 
L 225 0 
L 903 3500 
L 1478 3500 
L 1363 2950 
Q 1603 3253 1940 3418 
Q 2278 3584 2650 3584 
Q 3113 3584 3367 3334 
Q 3622 3084 3622 2631 
Q 3622 2519 3608 2391 
Q 3594 2263 3566 2113 
z
" transform="scale(0.015625)"/>
      <path id="DejaVuSans-5d" d="M 1947 4863 
L 1947 -844 
L 622 -844 
L 622 -397 
L 1369 -397 
L 1369 4416 
L 622 4416 
L 622 4863 
L 1947 4863 
z
" transform="scale(0.015625)"/>
     </defs>
     <use xlink:href="#DejaVuSans-50" transform="translate(0 0.015625)"/>
     <use xlink:href="#DejaVuSans-65" transform="translate(60.302734 0.015625)"/>
     <use xlink:href="#DejaVuSans-72" transform="translate(121.826172 0.015625)"/>
     <use xlink:href="#DejaVuSans-69" transform="translate(162.939453 0.015625)"/>
     <use xlink:href="#DejaVuSans-6f" transform="translate(190.722656 0.015625)"/>
     <use xlink:href="#DejaVuSans-64" transform="translate(251.904297 0.015625)"/>
     <use xlink:href="#DejaVuSans-6f" transform="translate(315.380859 0.015625)"/>
     <use xlink:href="#DejaVuSans-67" transform="translate(376.5625 0.015625)"/>
     <use xlink:href="#DejaVuSans-72" transform="translate(440.039062 0.015625)"/>
     <use xlink:href="#DejaVuSans-61" transform="translate(481.152344 0.015625)"/>
     <use xlink:href="#DejaVuSans-6d" transform="translate(542.431641 0.015625)"/>
     <use xlink:href="#DejaVuSans-20" transform="translate(639.84375 0.015625)"/>
     <use xlink:href="#DejaVuSans-6f" transform="translate(671.630859 0.015625)"/>
     <use xlink:href="#DejaVuSans-66" transform="translate(732.8125 0.015625)"/>
     <use xlink:href="#DejaVuSans-20" transform="translate(768.017578 0.015625)"/>
     <use xlink:href="#DejaVuSans-Oblique-78" transform="translate(799.804688 0.015625)"/>
     <use xlink:href="#DejaVuSans-Oblique-63" transform="translate(858.984375 -16.390625) scale(0.7)"/>
     <use xlink:href="#DejaVuSans-5b" transform="translate(900.205078 0.015625)"/>
     <use xlink:href="#DejaVuSans-Oblique-6e" transform="translate(939.21875 0.015625)"/>
     <use xlink:href="#DejaVuSans-5d" transform="translate(1002.597656 0.015625)"/>
    </g>
   </g>
  </g>
 </g>
 <defs>
  <clipPath id="pdeb9ed41fc">
   <rect x="48.982813" y="22.32" width="519.817188" height="228.101875"/>
  </clipPath>
 </defs>
</svg>
