<?xml version="1.0" encoding="utf-8" standalone="no"?>
<!DOCTYPE svg PUBLIC "-//W3C//DTD SVG 1.1//EN"
  "http://www.w3.org/Graphics/SVG/1.1/DTD/svg11.dtd">
<svg xmlns:xlink="http://www.w3.org/1999/xlink" width="576pt" height="288pt" viewBox="0 0 576 288" xmlns="http://www.w3.org/2000/svg" version="1.1">
 <metadata>
  <rdf:RDF xmlns:dc="http://purl.org/dc/elements/1.1/" xmlns:cc="http://creativecommons.org/ns#" xmlns:rdf="http://www.w3.org/1999/02/22-rdf-syntax-ns#">
   <cc:Work>
    <dc:type rdf:resource="http://purl.org/dc/dcmitype/StillImage"/>
    <dc:date>2025-05-10T16:14:02.753320</dc:date>
    <dc:format>image/svg+xml</dc:format>
    <dc:creator>
     <cc:Agent>
      <dc:title>Matplotlib v3.10.3, https://matplotlib.org/</dc:title>
     </cc:Agent>
    </dc:creator>
   </cc:Work>
  </rdf:RDF>
 </metadata>
 <defs>
  <style type="text/css">*{stroke-linejoin: round; stroke-linecap: butt}</style>
 </defs>
 <g id="figure_1">
  <g id="patch_1">
   <path d="M 0 288 
L 576 288 
L 576 0 
L 0 0 
z
" style="fill: #ffffff"/>
  </g>
  <g id="axes_1">
   <g id="patch_2">
    <path d="M 58.523438 250.44375 
L 568.8 250.44375 
L 568.8 22.318125 
L 58.523438 22.318125 
z
" style="fill: #ffffff"/>
   </g>
   <g id="matplotlib.axis_1">
    <g id="xtick_1">
     <g id="line2d_1">
      <path d="M 81.717827 250.44375 
L 81.717827 22.318125 
" clip-path="url(#p0beb75b386)" style="fill: none; stroke-dasharray: 2.96,1.28; stroke-dashoffset: 0; stroke: #b0b0b0; stroke-opacity: 0.8; stroke-width: 0.8"/>
     </g>
     <g id="line2d_2">
      <defs>
       <path id="mff2c45efd8" d="M 0 0 
L 0 3.5 
" style="stroke: #000000; stroke-width: 0.8"/>
      </defs>
      <g>
       <use xlink:href="#mff2c45efd8" x="81.717827" y="250.44375" style="stroke: #000000; stroke-width: 0.8"/>
      </g>
     </g>
     <g id="text_1">
      <!-- 0 -->
      <g transform="translate(78.536577 265.042188) scale(0.1 -0.1)">
       <defs>
        <path id="DejaVuSans-30" d="M 2034 4250 
Q 1547 4250 1301 3770 
Q 1056 3291 1056 2328 
Q 1056 1369 1301 889 
Q 1547 409 2034 409 
Q 2525 409 2770 889 
Q 3016 1369 3016 2328 
Q 3016 3291 2770 3770 
Q 2525 4250 2034 4250 
z
M 2034 4750 
Q 2819 4750 3233 4129 
Q 3647 3509 3647 2328 
Q 3647 1150 3233 529 
Q 2819 -91 2034 -91 
Q 1250 -91 836 529 
Q 422 1150 422 2328 
Q 422 3509 836 4129 
Q 1250 4750 2034 4750 
z
" transform="scale(0.015625)"/>
       </defs>
       <use xlink:href="#DejaVuSans-30"/>
      </g>
     </g>
    </g>
    <g id="xtick_2">
     <g id="line2d_3">
      <path d="M 174.495384 250.44375 
L 174.495384 22.318125 
" clip-path="url(#p0beb75b386)" style="fill: none; stroke-dasharray: 2.96,1.28; stroke-dashoffset: 0; stroke: #b0b0b0; stroke-opacity: 0.8; stroke-width: 0.8"/>
     </g>
     <g id="line2d_4">
      <g>
       <use xlink:href="#mff2c45efd8" x="174.495384" y="250.44375" style="stroke: #000000; stroke-width: 0.8"/>
      </g>
     </g>
     <g id="text_2">
      <!-- 2 -->
      <g transform="translate(171.314134 265.042188) scale(0.1 -0.1)">
       <defs>
        <path id="DejaVuSans-32" d="M 1228 531 
L 3431 531 
L 3431 0 
L 469 0 
L 469 531 
Q 828 903 1448 1529 
Q 2069 2156 2228 2338 
Q 2531 2678 2651 2914 
Q 2772 3150 2772 3378 
Q 2772 3750 2511 3984 
Q 2250 4219 1831 4219 
Q 1534 4219 1204 4116 
Q 875 4013 500 3803 
L 500 4441 
Q 881 4594 1212 4672 
Q 1544 4750 1819 4750 
Q 2544 4750 2975 4387 
Q 3406 4025 3406 3419 
Q 3406 3131 3298 2873 
Q 3191 2616 2906 2266 
Q 2828 2175 2409 1742 
Q 1991 1309 1228 531 
z
" transform="scale(0.015625)"/>
       </defs>
       <use xlink:href="#DejaVuSans-32"/>
      </g>
     </g>
    </g>
    <g id="xtick_3">
     <g id="line2d_5">
      <path d="M 267.27294 250.44375 
L 267.27294 22.318125 
" clip-path="url(#p0beb75b386)" style="fill: none; stroke-dasharray: 2.96,1.28; stroke-dashoffset: 0; stroke: #b0b0b0; stroke-opacity: 0.8; stroke-width: 0.8"/>
     </g>
     <g id="line2d_6">
      <g>
       <use xlink:href="#mff2c45efd8" x="267.27294" y="250.44375" style="stroke: #000000; stroke-width: 0.8"/>
      </g>
     </g>
     <g id="text_3">
      <!-- 4 -->
      <g transform="translate(264.09169 265.042188) scale(0.1 -0.1)">
       <defs>
        <path id="DejaVuSans-34" d="M 2419 4116 
L 825 1625 
L 2419 1625 
L 2419 4116 
z
M 2253 4666 
L 3047 4666 
L 3047 1625 
L 3713 1625 
L 3713 1100 
L 3047 1100 
L 3047 0 
L 2419 0 
L 2419 1100 
L 313 1100 
L 313 1709 
L 2253 4666 
z
" transform="scale(0.015625)"/>
       </defs>
       <use xlink:href="#DejaVuSans-34"/>
      </g>
     </g>
    </g>
    <g id="xtick_4">
     <g id="line2d_7">
      <path d="M 360.050497 250.44375 
L 360.050497 22.318125 
" clip-path="url(#p0beb75b386)" style="fill: none; stroke-dasharray: 2.96,1.28; stroke-dashoffset: 0; stroke: #b0b0b0; stroke-opacity: 0.8; stroke-width: 0.8"/>
     </g>
     <g id="line2d_8">
      <g>
       <use xlink:href="#mff2c45efd8" x="360.050497" y="250.44375" style="stroke: #000000; stroke-width: 0.8"/>
      </g>
     </g>
     <g id="text_4">
      <!-- 6 -->
      <g transform="translate(356.869247 265.042188) scale(0.1 -0.1)">
       <defs>
        <path id="DejaVuSans-36" d="M 2113 2584 
Q 1688 2584 1439 2293 
Q 1191 2003 1191 1497 
Q 1191 994 1439 701 
Q 1688 409 2113 409 
Q 2538 409 2786 701 
Q 3034 994 3034 1497 
Q 3034 2003 2786 2293 
Q 2538 2584 2113 2584 
z
M 3366 4563 
L 3366 3988 
Q 3128 4100 2886 4159 
Q 2644 4219 2406 4219 
Q 1781 4219 1451 3797 
Q 1122 3375 1075 2522 
Q 1259 2794 1537 2939 
Q 1816 3084 2150 3084 
Q 2853 3084 3261 2657 
Q 3669 2231 3669 1497 
Q 3669 778 3244 343 
Q 2819 -91 2113 -91 
Q 1303 -91 875 529 
Q 447 1150 447 2328 
Q 447 3434 972 4092 
Q 1497 4750 2381 4750 
Q 2619 4750 2861 4703 
Q 3103 4656 3366 4563 
z
" transform="scale(0.015625)"/>
       </defs>
       <use xlink:href="#DejaVuSans-36"/>
      </g>
     </g>
    </g>
    <g id="xtick_5">
     <g id="line2d_9">
      <path d="M 452.828054 250.44375 
L 452.828054 22.318125 
" clip-path="url(#p0beb75b386)" style="fill: none; stroke-dasharray: 2.96,1.28; stroke-dashoffset: 0; stroke: #b0b0b0; stroke-opacity: 0.8; stroke-width: 0.8"/>
     </g>
     <g id="line2d_10">
      <g>
       <use xlink:href="#mff2c45efd8" x="452.828054" y="250.44375" style="stroke: #000000; stroke-width: 0.8"/>
      </g>
     </g>
     <g id="text_5">
      <!-- 8 -->
      <g transform="translate(449.646804 265.042188) scale(0.1 -0.1)">
       <defs>
        <path id="DejaVuSans-38" d="M 2034 2216 
Q 1584 2216 1326 1975 
Q 1069 1734 1069 1313 
Q 1069 891 1326 650 
Q 1584 409 2034 409 
Q 2484 409 2743 651 
Q 3003 894 3003 1313 
Q 3003 1734 2745 1975 
Q 2488 2216 2034 2216 
z
M 1403 2484 
Q 997 2584 770 2862 
Q 544 3141 544 3541 
Q 544 4100 942 4425 
Q 1341 4750 2034 4750 
Q 2731 4750 3128 4425 
Q 3525 4100 3525 3541 
Q 3525 3141 3298 2862 
Q 3072 2584 2669 2484 
Q 3125 2378 3379 2068 
Q 3634 1759 3634 1313 
Q 3634 634 3220 271 
Q 2806 -91 2034 -91 
Q 1263 -91 848 271 
Q 434 634 434 1313 
Q 434 1759 690 2068 
Q 947 2378 1403 2484 
z
M 1172 3481 
Q 1172 3119 1398 2916 
Q 1625 2713 2034 2713 
Q 2441 2713 2670 2916 
Q 2900 3119 2900 3481 
Q 2900 3844 2670 4047 
Q 2441 4250 2034 4250 
Q 1625 4250 1398 4047 
Q 1172 3844 1172 3481 
z
" transform="scale(0.015625)"/>
       </defs>
       <use xlink:href="#DejaVuSans-38"/>
      </g>
     </g>
    </g>
    <g id="xtick_6">
     <g id="line2d_11">
      <path d="M 545.605611 250.44375 
L 545.605611 22.318125 
" clip-path="url(#p0beb75b386)" style="fill: none; stroke-dasharray: 2.96,1.28; stroke-dashoffset: 0; stroke: #b0b0b0; stroke-opacity: 0.8; stroke-width: 0.8"/>
     </g>
     <g id="line2d_12">
      <g>
       <use xlink:href="#mff2c45efd8" x="545.605611" y="250.44375" style="stroke: #000000; stroke-width: 0.8"/>
      </g>
     </g>
     <g id="text_6">
      <!-- 10 -->
      <g transform="translate(539.243111 265.042188) scale(0.1 -0.1)">
       <defs>
        <path id="DejaVuSans-31" d="M 794 531 
L 1825 531 
L 1825 4091 
L 703 3866 
L 703 4441 
L 1819 4666 
L 2450 4666 
L 2450 531 
L 3481 531 
L 3481 0 
L 794 0 
L 794 531 
z
" transform="scale(0.015625)"/>
       </defs>
       <use xlink:href="#DejaVuSans-31"/>
       <use xlink:href="#DejaVuSans-30" transform="translate(63.623047 0)"/>
      </g>
     </g>
    </g>
    <g id="text_7">
     <!-- Time (s), $t$ -->
     <g transform="translate(288.011719 278.720312) scale(0.1 -0.1)">
      <defs>
       <path id="DejaVuSans-54" d="M -19 4666 
L 3928 4666 
L 3928 4134 
L 2272 4134 
L 2272 0 
L 1638 0 
L 1638 4134 
L -19 4134 
L -19 4666 
z
" transform="scale(0.015625)"/>
       <path id="DejaVuSans-69" d="M 603 3500 
L 1178 3500 
L 1178 0 
L 603 0 
L 603 3500 
z
M 603 4863 
L 1178 4863 
L 1178 4134 
L 603 4134 
L 603 4863 
z
" transform="scale(0.015625)"/>
       <path id="DejaVuSans-6d" d="M 3328 2828 
Q 3544 3216 3844 3400 
Q 4144 3584 4550 3584 
Q 5097 3584 5394 3201 
Q 5691 2819 5691 2113 
L 5691 0 
L 5113 0 
L 5113 2094 
Q 5113 2597 4934 2840 
Q 4756 3084 4391 3084 
Q 3944 3084 3684 2787 
Q 3425 2491 3425 1978 
L 3425 0 
L 2847 0 
L 2847 2094 
Q 2847 2600 2669 2842 
Q 2491 3084 2119 3084 
Q 1678 3084 1418 2786 
Q 1159 2488 1159 1978 
L 1159 0 
L 581 0 
L 581 3500 
L 1159 3500 
L 1159 2956 
Q 1356 3278 1631 3431 
Q 1906 3584 2284 3584 
Q 2666 3584 2933 3390 
Q 3200 3197 3328 2828 
z
" transform="scale(0.015625)"/>
       <path id="DejaVuSans-65" d="M 3597 1894 
L 3597 1613 
L 953 1613 
Q 991 1019 1311 708 
Q 1631 397 2203 397 
Q 2534 397 2845 478 
Q 3156 559 3463 722 
L 3463 178 
Q 3153 47 2828 -22 
Q 2503 -91 2169 -91 
Q 1331 -91 842 396 
Q 353 884 353 1716 
Q 353 2575 817 3079 
Q 1281 3584 2069 3584 
Q 2775 3584 3186 3129 
Q 3597 2675 3597 1894 
z
M 3022 2063 
Q 3016 2534 2758 2815 
Q 2500 3097 2075 3097 
Q 1594 3097 1305 2825 
Q 1016 2553 972 2059 
L 3022 2063 
z
" transform="scale(0.015625)"/>
       <path id="DejaVuSans-20" transform="scale(0.015625)"/>
       <path id="DejaVuSans-28" d="M 1984 4856 
Q 1566 4138 1362 3434 
Q 1159 2731 1159 2009 
Q 1159 1288 1364 580 
Q 1569 -128 1984 -844 
L 1484 -844 
Q 1016 -109 783 600 
Q 550 1309 550 2009 
Q 550 2706 781 3412 
Q 1013 4119 1484 4856 
L 1984 4856 
z
" transform="scale(0.015625)"/>
       <path id="DejaVuSans-73" d="M 2834 3397 
L 2834 2853 
Q 2591 2978 2328 3040 
Q 2066 3103 1784 3103 
Q 1356 3103 1142 2972 
Q 928 2841 928 2578 
Q 928 2378 1081 2264 
Q 1234 2150 1697 2047 
L 1894 2003 
Q 2506 1872 2764 1633 
Q 3022 1394 3022 966 
Q 3022 478 2636 193 
Q 2250 -91 1575 -91 
Q 1294 -91 989 -36 
Q 684 19 347 128 
L 347 722 
Q 666 556 975 473 
Q 1284 391 1588 391 
Q 1994 391 2212 530 
Q 2431 669 2431 922 
Q 2431 1156 2273 1281 
Q 2116 1406 1581 1522 
L 1381 1569 
Q 847 1681 609 1914 
Q 372 2147 372 2553 
Q 372 3047 722 3315 
Q 1072 3584 1716 3584 
Q 2034 3584 2315 3537 
Q 2597 3491 2834 3397 
z
" transform="scale(0.015625)"/>
       <path id="DejaVuSans-29" d="M 513 4856 
L 1013 4856 
Q 1481 4119 1714 3412 
Q 1947 2706 1947 2009 
Q 1947 1309 1714 600 
Q 1481 -109 1013 -844 
L 513 -844 
Q 928 -128 1133 580 
Q 1338 1288 1338 2009 
Q 1338 2731 1133 3434 
Q 928 4138 513 4856 
z
" transform="scale(0.015625)"/>
       <path id="DejaVuSans-2c" d="M 750 794 
L 1409 794 
L 1409 256 
L 897 -744 
L 494 -744 
L 750 256 
L 750 794 
z
" transform="scale(0.015625)"/>
       <path id="DejaVuSans-Oblique-74" d="M 2706 3500 
L 2619 3053 
L 1472 3053 
L 1100 1153 
Q 1081 1047 1072 975 
Q 1063 903 1063 863 
Q 1063 663 1183 572 
Q 1303 481 1569 481 
L 2150 481 
L 2053 0 
L 1503 0 
Q 991 0 739 200 
Q 488 400 488 806 
Q 488 878 497 964 
Q 506 1050 525 1153 
L 897 3053 
L 409 3053 
L 500 3500 
L 978 3500 
L 1172 4494 
L 1747 4494 
L 1556 3500 
L 2706 3500 
z
" transform="scale(0.015625)"/>
      </defs>
      <use xlink:href="#DejaVuSans-54" transform="translate(0 0.015625)"/>
      <use xlink:href="#DejaVuSans-69" transform="translate(61.083984 0.015625)"/>
      <use xlink:href="#DejaVuSans-6d" transform="translate(88.867188 0.015625)"/>
      <use xlink:href="#DejaVuSans-65" transform="translate(186.279297 0.015625)"/>
      <use xlink:href="#DejaVuSans-20" transform="translate(247.802734 0.015625)"/>
      <use xlink:href="#DejaVuSans-28" transform="translate(279.589844 0.015625)"/>
      <use xlink:href="#DejaVuSans-73" transform="translate(318.603516 0.015625)"/>
      <use xlink:href="#DejaVuSans-29" transform="translate(370.703125 0.015625)"/>
      <use xlink:href="#DejaVuSans-2c" transform="translate(409.716797 0.015625)"/>
      <use xlink:href="#DejaVuSans-20" transform="translate(441.503906 0.015625)"/>
      <use xlink:href="#DejaVuSans-Oblique-74" transform="translate(473.291016 0.015625)"/>
     </g>
    </g>
   </g>
   <g id="matplotlib.axis_2">
    <g id="ytick_1">
     <g id="line2d_13">
      <path d="M 58.523438 241.488245 
L 568.8 241.488245 
" clip-path="url(#p0beb75b386)" style="fill: none; stroke-dasharray: 2.96,1.28; stroke-dashoffset: 0; stroke: #b0b0b0; stroke-opacity: 0.8; stroke-width: 0.8"/>
     </g>
     <g id="line2d_14">
      <defs>
       <path id="m7113c87502" d="M 0 0 
L -3.5 0 
" style="stroke: #000000; stroke-width: 0.8"/>
      </defs>
      <g>
       <use xlink:href="#m7113c87502" x="58.523438" y="241.488245" style="stroke: #000000; stroke-width: 0.8"/>
      </g>
     </g>
     <g id="text_8">
      <!-- −1.00 -->
      <g transform="translate(20.878125 245.287464) scale(0.1 -0.1)">
       <defs>
        <path id="DejaVuSans-2212" d="M 678 2272 
L 4684 2272 
L 4684 1741 
L 678 1741 
L 678 2272 
z
" transform="scale(0.015625)"/>
        <path id="DejaVuSans-2e" d="M 684 794 
L 1344 794 
L 1344 0 
L 684 0 
L 684 794 
z
" transform="scale(0.015625)"/>
       </defs>
       <use xlink:href="#DejaVuSans-2212"/>
       <use xlink:href="#DejaVuSans-31" transform="translate(83.789062 0)"/>
       <use xlink:href="#DejaVuSans-2e" transform="translate(147.412109 0)"/>
       <use xlink:href="#DejaVuSans-30" transform="translate(179.199219 0)"/>
       <use xlink:href="#DejaVuSans-30" transform="translate(242.822266 0)"/>
      </g>
     </g>
    </g>
    <g id="ytick_2">
     <g id="line2d_15">
      <path d="M 58.523438 215.388149 
L 568.8 215.388149 
" clip-path="url(#p0beb75b386)" style="fill: none; stroke-dasharray: 2.96,1.28; stroke-dashoffset: 0; stroke: #b0b0b0; stroke-opacity: 0.8; stroke-width: 0.8"/>
     </g>
     <g id="line2d_16">
      <g>
       <use xlink:href="#m7113c87502" x="58.523438" y="215.388149" style="stroke: #000000; stroke-width: 0.8"/>
      </g>
     </g>
     <g id="text_9">
      <!-- −0.75 -->
      <g transform="translate(20.878125 219.187367) scale(0.1 -0.1)">
       <defs>
        <path id="DejaVuSans-37" d="M 525 4666 
L 3525 4666 
L 3525 4397 
L 1831 0 
L 1172 0 
L 2766 4134 
L 525 4134 
L 525 4666 
z
" transform="scale(0.015625)"/>
        <path id="DejaVuSans-35" d="M 691 4666 
L 3169 4666 
L 3169 4134 
L 1269 4134 
L 1269 2991 
Q 1406 3038 1543 3061 
Q 1681 3084 1819 3084 
Q 2600 3084 3056 2656 
Q 3513 2228 3513 1497 
Q 3513 744 3044 326 
Q 2575 -91 1722 -91 
Q 1428 -91 1123 -41 
Q 819 9 494 109 
L 494 744 
Q 775 591 1075 516 
Q 1375 441 1709 441 
Q 2250 441 2565 725 
Q 2881 1009 2881 1497 
Q 2881 1984 2565 2268 
Q 2250 2553 1709 2553 
Q 1456 2553 1204 2497 
Q 953 2441 691 2322 
L 691 4666 
z
" transform="scale(0.015625)"/>
       </defs>
       <use xlink:href="#DejaVuSans-2212"/>
       <use xlink:href="#DejaVuSans-30" transform="translate(83.789062 0)"/>
       <use xlink:href="#DejaVuSans-2e" transform="translate(147.412109 0)"/>
       <use xlink:href="#DejaVuSans-37" transform="translate(179.199219 0)"/>
       <use xlink:href="#DejaVuSans-35" transform="translate(242.822266 0)"/>
      </g>
     </g>
    </g>
    <g id="ytick_3">
     <g id="line2d_17">
      <path d="M 58.523438 189.288052 
L 568.8 189.288052 
" clip-path="url(#p0beb75b386)" style="fill: none; stroke-dasharray: 2.96,1.28; stroke-dashoffset: 0; stroke: #b0b0b0; stroke-opacity: 0.8; stroke-width: 0.8"/>
     </g>
     <g id="line2d_18">
      <g>
       <use xlink:href="#m7113c87502" x="58.523438" y="189.288052" style="stroke: #000000; stroke-width: 0.8"/>
      </g>
     </g>
     <g id="text_10">
      <!-- −0.50 -->
      <g transform="translate(20.878125 193.087271) scale(0.1 -0.1)">
       <use xlink:href="#DejaVuSans-2212"/>
       <use xlink:href="#DejaVuSans-30" transform="translate(83.789062 0)"/>
       <use xlink:href="#DejaVuSans-2e" transform="translate(147.412109 0)"/>
       <use xlink:href="#DejaVuSans-35" transform="translate(179.199219 0)"/>
       <use xlink:href="#DejaVuSans-30" transform="translate(242.822266 0)"/>
      </g>
     </g>
    </g>
    <g id="ytick_4">
     <g id="line2d_19">
      <path d="M 58.523438 163.187955 
L 568.8 163.187955 
" clip-path="url(#p0beb75b386)" style="fill: none; stroke-dasharray: 2.96,1.28; stroke-dashoffset: 0; stroke: #b0b0b0; stroke-opacity: 0.8; stroke-width: 0.8"/>
     </g>
     <g id="line2d_20">
      <g>
       <use xlink:href="#m7113c87502" x="58.523438" y="163.187955" style="stroke: #000000; stroke-width: 0.8"/>
      </g>
     </g>
     <g id="text_11">
      <!-- −0.25 -->
      <g transform="translate(20.878125 166.987174) scale(0.1 -0.1)">
       <use xlink:href="#DejaVuSans-2212"/>
       <use xlink:href="#DejaVuSans-30" transform="translate(83.789062 0)"/>
       <use xlink:href="#DejaVuSans-2e" transform="translate(147.412109 0)"/>
       <use xlink:href="#DejaVuSans-32" transform="translate(179.199219 0)"/>
       <use xlink:href="#DejaVuSans-35" transform="translate(242.822266 0)"/>
      </g>
     </g>
    </g>
    <g id="ytick_5">
     <g id="line2d_21">
      <path d="M 58.523438 137.087858 
L 568.8 137.087858 
" clip-path="url(#p0beb75b386)" style="fill: none; stroke-dasharray: 2.96,1.28; stroke-dashoffset: 0; stroke: #b0b0b0; stroke-opacity: 0.8; stroke-width: 0.8"/>
     </g>
     <g id="line2d_22">
      <g>
       <use xlink:href="#m7113c87502" x="58.523438" y="137.087858" style="stroke: #000000; stroke-width: 0.8"/>
      </g>
     </g>
     <g id="text_12">
      <!-- 0.00 -->
      <g transform="translate(29.257813 140.887077) scale(0.1 -0.1)">
       <use xlink:href="#DejaVuSans-30"/>
       <use xlink:href="#DejaVuSans-2e" transform="translate(63.623047 0)"/>
       <use xlink:href="#DejaVuSans-30" transform="translate(95.410156 0)"/>
       <use xlink:href="#DejaVuSans-30" transform="translate(159.033203 0)"/>
      </g>
     </g>
    </g>
    <g id="ytick_6">
     <g id="line2d_23">
      <path d="M 58.523438 110.987762 
L 568.8 110.987762 
" clip-path="url(#p0beb75b386)" style="fill: none; stroke-dasharray: 2.96,1.28; stroke-dashoffset: 0; stroke: #b0b0b0; stroke-opacity: 0.8; stroke-width: 0.8"/>
     </g>
     <g id="line2d_24">
      <g>
       <use xlink:href="#m7113c87502" x="58.523438" y="110.987762" style="stroke: #000000; stroke-width: 0.8"/>
      </g>
     </g>
     <g id="text_13">
      <!-- 0.25 -->
      <g transform="translate(29.257813 114.78698) scale(0.1 -0.1)">
       <use xlink:href="#DejaVuSans-30"/>
       <use xlink:href="#DejaVuSans-2e" transform="translate(63.623047 0)"/>
       <use xlink:href="#DejaVuSans-32" transform="translate(95.410156 0)"/>
       <use xlink:href="#DejaVuSans-35" transform="translate(159.033203 0)"/>
      </g>
     </g>
    </g>
    <g id="ytick_7">
     <g id="line2d_25">
      <path d="M 58.523438 84.887665 
L 568.8 84.887665 
" clip-path="url(#p0beb75b386)" style="fill: none; stroke-dasharray: 2.96,1.28; stroke-dashoffset: 0; stroke: #b0b0b0; stroke-opacity: 0.8; stroke-width: 0.8"/>
     </g>
     <g id="line2d_26">
      <g>
       <use xlink:href="#m7113c87502" x="58.523438" y="84.887665" style="stroke: #000000; stroke-width: 0.8"/>
      </g>
     </g>
     <g id="text_14">
      <!-- 0.50 -->
      <g transform="translate(29.257813 88.686884) scale(0.1 -0.1)">
       <use xlink:href="#DejaVuSans-30"/>
       <use xlink:href="#DejaVuSans-2e" transform="translate(63.623047 0)"/>
       <use xlink:href="#DejaVuSans-35" transform="translate(95.410156 0)"/>
       <use xlink:href="#DejaVuSans-30" transform="translate(159.033203 0)"/>
      </g>
     </g>
    </g>
    <g id="ytick_8">
     <g id="line2d_27">
      <path d="M 58.523438 58.787568 
L 568.8 58.787568 
" clip-path="url(#p0beb75b386)" style="fill: none; stroke-dasharray: 2.96,1.28; stroke-dashoffset: 0; stroke: #b0b0b0; stroke-opacity: 0.8; stroke-width: 0.8"/>
     </g>
     <g id="line2d_28">
      <g>
       <use xlink:href="#m7113c87502" x="58.523438" y="58.787568" style="stroke: #000000; stroke-width: 0.8"/>
      </g>
     </g>
     <g id="text_15">
      <!-- 0.75 -->
      <g transform="translate(29.257813 62.586787) scale(0.1 -0.1)">
       <use xlink:href="#DejaVuSans-30"/>
       <use xlink:href="#DejaVuSans-2e" transform="translate(63.623047 0)"/>
       <use xlink:href="#DejaVuSans-37" transform="translate(95.410156 0)"/>
       <use xlink:href="#DejaVuSans-35" transform="translate(159.033203 0)"/>
      </g>
     </g>
    </g>
    <g id="ytick_9">
     <g id="line2d_29">
      <path d="M 58.523438 32.687472 
L 568.8 32.687472 
" clip-path="url(#p0beb75b386)" style="fill: none; stroke-dasharray: 2.96,1.28; stroke-dashoffset: 0; stroke: #b0b0b0; stroke-opacity: 0.8; stroke-width: 0.8"/>
     </g>
     <g id="line2d_30">
      <g>
       <use xlink:href="#m7113c87502" x="58.523438" y="32.687472" style="stroke: #000000; stroke-width: 0.8"/>
      </g>
     </g>
     <g id="text_16">
      <!-- 1.00 -->
      <g transform="translate(29.257813 36.48669) scale(0.1 -0.1)">
       <use xlink:href="#DejaVuSans-31"/>
       <use xlink:href="#DejaVuSans-2e" transform="translate(63.623047 0)"/>
       <use xlink:href="#DejaVuSans-30" transform="translate(95.410156 0)"/>
       <use xlink:href="#DejaVuSans-30" transform="translate(159.033203 0)"/>
      </g>
     </g>
    </g>
    <g id="text_17">
     <!-- Amplitude -->
     <g transform="translate(14.798438 162.003594) rotate(-90) scale(0.1 -0.1)">
      <defs>
       <path id="DejaVuSans-41" d="M 2188 4044 
L 1331 1722 
L 3047 1722 
L 2188 4044 
z
M 1831 4666 
L 2547 4666 
L 4325 0 
L 3669 0 
L 3244 1197 
L 1141 1197 
L 716 0 
L 50 0 
L 1831 4666 
z
" transform="scale(0.015625)"/>
       <path id="DejaVuSans-70" d="M 1159 525 
L 1159 -1331 
L 581 -1331 
L 581 3500 
L 1159 3500 
L 1159 2969 
Q 1341 3281 1617 3432 
Q 1894 3584 2278 3584 
Q 2916 3584 3314 3078 
Q 3713 2572 3713 1747 
Q 3713 922 3314 415 
Q 2916 -91 2278 -91 
Q 1894 -91 1617 61 
Q 1341 213 1159 525 
z
M 3116 1747 
Q 3116 2381 2855 2742 
Q 2594 3103 2138 3103 
Q 1681 3103 1420 2742 
Q 1159 2381 1159 1747 
Q 1159 1113 1420 752 
Q 1681 391 2138 391 
Q 2594 391 2855 752 
Q 3116 1113 3116 1747 
z
" transform="scale(0.015625)"/>
       <path id="DejaVuSans-6c" d="M 603 4863 
L 1178 4863 
L 1178 0 
L 603 0 
L 603 4863 
z
" transform="scale(0.015625)"/>
       <path id="DejaVuSans-74" d="M 1172 4494 
L 1172 3500 
L 2356 3500 
L 2356 3053 
L 1172 3053 
L 1172 1153 
Q 1172 725 1289 603 
Q 1406 481 1766 481 
L 2356 481 
L 2356 0 
L 1766 0 
Q 1100 0 847 248 
Q 594 497 594 1153 
L 594 3053 
L 172 3053 
L 172 3500 
L 594 3500 
L 594 4494 
L 1172 4494 
z
" transform="scale(0.015625)"/>
       <path id="DejaVuSans-75" d="M 544 1381 
L 544 3500 
L 1119 3500 
L 1119 1403 
Q 1119 906 1312 657 
Q 1506 409 1894 409 
Q 2359 409 2629 706 
Q 2900 1003 2900 1516 
L 2900 3500 
L 3475 3500 
L 3475 0 
L 2900 0 
L 2900 538 
Q 2691 219 2414 64 
Q 2138 -91 1772 -91 
Q 1169 -91 856 284 
Q 544 659 544 1381 
z
M 1991 3584 
L 1991 3584 
z
" transform="scale(0.015625)"/>
       <path id="DejaVuSans-64" d="M 2906 2969 
L 2906 4863 
L 3481 4863 
L 3481 0 
L 2906 0 
L 2906 525 
Q 2725 213 2448 61 
Q 2172 -91 1784 -91 
Q 1150 -91 751 415 
Q 353 922 353 1747 
Q 353 2572 751 3078 
Q 1150 3584 1784 3584 
Q 2172 3584 2448 3432 
Q 2725 3281 2906 2969 
z
M 947 1747 
Q 947 1113 1208 752 
Q 1469 391 1925 391 
Q 2381 391 2643 752 
Q 2906 1113 2906 1747 
Q 2906 2381 2643 2742 
Q 2381 3103 1925 3103 
Q 1469 3103 1208 2742 
Q 947 2381 947 1747 
z
" transform="scale(0.015625)"/>
      </defs>
      <use xlink:href="#DejaVuSans-41"/>
      <use xlink:href="#DejaVuSans-6d" transform="translate(68.408203 0)"/>
      <use xlink:href="#DejaVuSans-70" transform="translate(165.820312 0)"/>
      <use xlink:href="#DejaVuSans-6c" transform="translate(229.296875 0)"/>
      <use xlink:href="#DejaVuSans-69" transform="translate(257.080078 0)"/>
      <use xlink:href="#DejaVuSans-74" transform="translate(284.863281 0)"/>
      <use xlink:href="#DejaVuSans-75" transform="translate(324.072266 0)"/>
      <use xlink:href="#DejaVuSans-64" transform="translate(387.451172 0)"/>
      <use xlink:href="#DejaVuSans-65" transform="translate(450.927734 0)"/>
     </g>
    </g>
   </g>
   <g id="line2d_31">
    <path d="M 81.717827 32.687472 
L 128.106605 100.545681 
L 174.495384 215.907292 
L 220.884162 228.806722 
L 267.27294 122.475217 
L 313.661719 35.139574 
L 360.050497 80.332714 
L 406.439276 199.305321 
L 452.828054 237.397661 
L 499.216832 145.091181 
L 545.605611 42.380695 
" clip-path="url(#p0beb75b386)" style="fill: none; stroke: #1f77b4; stroke-linecap: square"/>
    <defs>
     <path id="m946fe19dd5" d="M 0 3 
C 0.795609 3 1.55874 2.683901 2.12132 2.12132 
C 2.683901 1.55874 3 0.795609 3 0 
C 3 -0.795609 2.683901 -1.55874 2.12132 -2.12132 
C 1.55874 -2.683901 0.795609 -3 0 -3 
C -0.795609 -3 -1.55874 -2.683901 -2.12132 -2.12132 
C -2.683901 -1.55874 -3 -0.795609 -3 0 
C -3 0.795609 -2.683901 1.55874 -2.12132 2.12132 
C -1.55874 2.683901 -0.795609 3 0 3 
z
" style="stroke: #1f77b4"/>
    </defs>
    <g clip-path="url(#p0beb75b386)">
     <use xlink:href="#m946fe19dd5" x="81.717827" y="32.687472" style="fill: #1f77b4; stroke: #1f77b4"/>
     <use xlink:href="#m946fe19dd5" x="128.106605" y="100.545681" style="fill: #1f77b4; stroke: #1f77b4"/>
     <use xlink:href="#m946fe19dd5" x="174.495384" y="215.907292" style="fill: #1f77b4; stroke: #1f77b4"/>
     <use xlink:href="#m946fe19dd5" x="220.884162" y="228.806722" style="fill: #1f77b4; stroke: #1f77b4"/>
     <use xlink:href="#m946fe19dd5" x="267.27294" y="122.475217" style="fill: #1f77b4; stroke: #1f77b4"/>
     <use xlink:href="#m946fe19dd5" x="313.661719" y="35.139574" style="fill: #1f77b4; stroke: #1f77b4"/>
     <use xlink:href="#m946fe19dd5" x="360.050497" y="80.332714" style="fill: #1f77b4; stroke: #1f77b4"/>
     <use xlink:href="#m946fe19dd5" x="406.439276" y="199.305321" style="fill: #1f77b4; stroke: #1f77b4"/>
     <use xlink:href="#m946fe19dd5" x="452.828054" y="237.397661" style="fill: #1f77b4; stroke: #1f77b4"/>
     <use xlink:href="#m946fe19dd5" x="499.216832" y="145.091181" style="fill: #1f77b4; stroke: #1f77b4"/>
     <use xlink:href="#m946fe19dd5" x="545.605611" y="42.380695" style="fill: #1f77b4; stroke: #1f77b4"/>
    </g>
   </g>
   <g id="line2d_32">
    <path d="M 81.717827 32.687472 
L 96.483833 54.287411 
L 111.24984 75.88735 
L 126.015847 97.487289 
L 140.781854 132.067035 
L 155.547861 168.787776 
L 170.313867 205.508518 
L 185.079874 218.850545 
L 199.845881 222.956561 
L 214.611888 227.062577 
L 229.377894 209.337544 
L 244.143901 175.491175 
L 258.909908 141.644806 
L 273.675915 110.420407 
L 288.441922 82.620609 
L 303.207928 54.82081 
L 317.973935 39.340646 
L 332.739942 53.726069 
L 347.505949 68.111492 
L 362.271955 86.030054 
L 377.037962 123.900212 
L 391.803969 161.770369 
L 406.569976 199.412646 
L 421.335983 211.537815 
L 436.101989 223.662983 
L 450.867996 235.788151 
L 465.634003 211.915807 
L 480.40001 182.533742 
L 495.166016 153.151677 
L 509.932023 121.366424 
L 524.69803 88.672661 
L 539.464037 55.978898 
" clip-path="url(#p0beb75b386)" style="fill: none; stroke: #ff7f0e; stroke-linecap: square"/>
    <defs>
     <path id="mcc5c18cf31" d="M 0 1.5 
C 0.397805 1.5 0.77937 1.341951 1.06066 1.06066 
C 1.341951 0.77937 1.5 0.397805 1.5 0 
C 1.5 -0.397805 1.341951 -0.77937 1.06066 -1.06066 
C 0.77937 -1.341951 0.397805 -1.5 0 -1.5 
C -0.397805 -1.5 -0.77937 -1.341951 -1.06066 -1.06066 
C -1.341951 -0.77937 -1.5 -0.397805 -1.5 0 
C -1.5 0.397805 -1.341951 0.77937 -1.06066 1.06066 
C -0.77937 1.341951 -0.397805 1.5 0 1.5 
z
" style="stroke: #ff7f0e"/>
    </defs>
    <g clip-path="url(#p0beb75b386)">
     <use xlink:href="#mcc5c18cf31" x="81.717827" y="32.687472" style="fill: #ff7f0e; stroke: #ff7f0e"/>
     <use xlink:href="#mcc5c18cf31" x="96.483833" y="54.287411" style="fill: #ff7f0e; stroke: #ff7f0e"/>
     <use xlink:href="#mcc5c18cf31" x="111.24984" y="75.88735" style="fill: #ff7f0e; stroke: #ff7f0e"/>
     <use xlink:href="#mcc5c18cf31" x="126.015847" y="97.487289" style="fill: #ff7f0e; stroke: #ff7f0e"/>
     <use xlink:href="#mcc5c18cf31" x="140.781854" y="132.067035" style="fill: #ff7f0e; stroke: #ff7f0e"/>
     <use xlink:href="#mcc5c18cf31" x="155.547861" y="168.787776" style="fill: #ff7f0e; stroke: #ff7f0e"/>
     <use xlink:href="#mcc5c18cf31" x="170.313867" y="205.508518" style="fill: #ff7f0e; stroke: #ff7f0e"/>
     <use xlink:href="#mcc5c18cf31" x="185.079874" y="218.850545" style="fill: #ff7f0e; stroke: #ff7f0e"/>
     <use xlink:href="#mcc5c18cf31" x="199.845881" y="222.956561" style="fill: #ff7f0e; stroke: #ff7f0e"/>
     <use xlink:href="#mcc5c18cf31" x="214.611888" y="227.062577" style="fill: #ff7f0e; stroke: #ff7f0e"/>
     <use xlink:href="#mcc5c18cf31" x="229.377894" y="209.337544" style="fill: #ff7f0e; stroke: #ff7f0e"/>
     <use xlink:href="#mcc5c18cf31" x="244.143901" y="175.491175" style="fill: #ff7f0e; stroke: #ff7f0e"/>
     <use xlink:href="#mcc5c18cf31" x="258.909908" y="141.644806" style="fill: #ff7f0e; stroke: #ff7f0e"/>
     <use xlink:href="#mcc5c18cf31" x="273.675915" y="110.420407" style="fill: #ff7f0e; stroke: #ff7f0e"/>
     <use xlink:href="#mcc5c18cf31" x="288.441922" y="82.620609" style="fill: #ff7f0e; stroke: #ff7f0e"/>
     <use xlink:href="#mcc5c18cf31" x="303.207928" y="54.82081" style="fill: #ff7f0e; stroke: #ff7f0e"/>
     <use xlink:href="#mcc5c18cf31" x="317.973935" y="39.340646" style="fill: #ff7f0e; stroke: #ff7f0e"/>
     <use xlink:href="#mcc5c18cf31" x="332.739942" y="53.726069" style="fill: #ff7f0e; stroke: #ff7f0e"/>
     <use xlink:href="#mcc5c18cf31" x="347.505949" y="68.111492" style="fill: #ff7f0e; stroke: #ff7f0e"/>
     <use xlink:href="#mcc5c18cf31" x="362.271955" y="86.030054" style="fill: #ff7f0e; stroke: #ff7f0e"/>
     <use xlink:href="#mcc5c18cf31" x="377.037962" y="123.900212" style="fill: #ff7f0e; stroke: #ff7f0e"/>
     <use xlink:href="#mcc5c18cf31" x="391.803969" y="161.770369" style="fill: #ff7f0e; stroke: #ff7f0e"/>
     <use xlink:href="#mcc5c18cf31" x="406.569976" y="199.412646" style="fill: #ff7f0e; stroke: #ff7f0e"/>
     <use xlink:href="#mcc5c18cf31" x="421.335983" y="211.537815" style="fill: #ff7f0e; stroke: #ff7f0e"/>
     <use xlink:href="#mcc5c18cf31" x="436.101989" y="223.662983" style="fill: #ff7f0e; stroke: #ff7f0e"/>
     <use xlink:href="#mcc5c18cf31" x="450.867996" y="235.788151" style="fill: #ff7f0e; stroke: #ff7f0e"/>
     <use xlink:href="#mcc5c18cf31" x="465.634003" y="211.915807" style="fill: #ff7f0e; stroke: #ff7f0e"/>
     <use xlink:href="#mcc5c18cf31" x="480.40001" y="182.533742" style="fill: #ff7f0e; stroke: #ff7f0e"/>
     <use xlink:href="#mcc5c18cf31" x="495.166016" y="153.151677" style="fill: #ff7f0e; stroke: #ff7f0e"/>
     <use xlink:href="#mcc5c18cf31" x="509.932023" y="121.366424" style="fill: #ff7f0e; stroke: #ff7f0e"/>
     <use xlink:href="#mcc5c18cf31" x="524.69803" y="88.672661" style="fill: #ff7f0e; stroke: #ff7f0e"/>
     <use xlink:href="#mcc5c18cf31" x="539.464037" y="55.978898" style="fill: #ff7f0e; stroke: #ff7f0e"/>
    </g>
   </g>
   <g id="line2d_33">
    <path d="M 81.717827 32.687472 
L 96.483833 41.546204 
L 111.24984 63.834834 
L 126.015847 95.529816 
L 140.781854 133.669967 
L 155.547861 172.660418 
L 170.313867 207.475559 
L 185.079874 228.477237 
L 199.845881 236.724843 
L 214.611888 233.662376 
L 229.377894 214.177669 
L 244.143901 181.747704 
L 258.909908 144.2595 
L 273.675915 106.728338 
L 288.441922 73.427501 
L 303.207928 47.300739 
L 317.973935 34.655774 
L 332.739942 41.027523 
L 347.505949 58.379151 
L 362.271955 85.579638 
L 377.037962 123.511735 
L 391.803969 163.180823 
L 406.569976 199.549518 
L 421.335983 222.730937 
L 436.101989 236.106287 
L 450.867996 238.078517 
L 465.634003 219.845712 
L 480.40001 190.565444 
L 495.166016 155.299337 
" clip-path="url(#p0beb75b386)" style="fill: none; stroke: #2ca02c; stroke-linecap: square"/>
    <defs>
     <path id="m52fb8c4cf9" d="M 0 1.5 
C 0.397805 1.5 0.77937 1.341951 1.06066 1.06066 
C 1.341951 0.77937 1.5 0.397805 1.5 0 
C 1.5 -0.397805 1.341951 -0.77937 1.06066 -1.06066 
C 0.77937 -1.341951 0.397805 -1.5 0 -1.5 
C -0.397805 -1.5 -0.77937 -1.341951 -1.06066 -1.06066 
C -1.341951 -0.77937 -1.5 -0.397805 -1.5 0 
C -1.5 0.397805 -1.341951 0.77937 -1.06066 1.06066 
C -0.77937 1.341951 -0.397805 1.5 0 1.5 
z
" style="stroke: #2ca02c"/>
    </defs>
    <g clip-path="url(#p0beb75b386)">
     <use xlink:href="#m52fb8c4cf9" x="81.717827" y="32.687472" style="fill: #2ca02c; stroke: #2ca02c"/>
     <use xlink:href="#m52fb8c4cf9" x="96.483833" y="41.546204" style="fill: #2ca02c; stroke: #2ca02c"/>
     <use xlink:href="#m52fb8c4cf9" x="111.24984" y="63.834834" style="fill: #2ca02c; stroke: #2ca02c"/>
     <use xlink:href="#m52fb8c4cf9" x="126.015847" y="95.529816" style="fill: #2ca02c; stroke: #2ca02c"/>
     <use xlink:href="#m52fb8c4cf9" x="140.781854" y="133.669967" style="fill: #2ca02c; stroke: #2ca02c"/>
     <use xlink:href="#m52fb8c4cf9" x="155.547861" y="172.660418" style="fill: #2ca02c; stroke: #2ca02c"/>
     <use xlink:href="#m52fb8c4cf9" x="170.313867" y="207.475559" style="fill: #2ca02c; stroke: #2ca02c"/>
     <use xlink:href="#m52fb8c4cf9" x="185.079874" y="228.477237" style="fill: #2ca02c; stroke: #2ca02c"/>
     <use xlink:href="#m52fb8c4cf9" x="199.845881" y="236.724843" style="fill: #2ca02c; stroke: #2ca02c"/>
     <use xlink:href="#m52fb8c4cf9" x="214.611888" y="233.662376" style="fill: #2ca02c; stroke: #2ca02c"/>
     <use xlink:href="#m52fb8c4cf9" x="229.377894" y="214.177669" style="fill: #2ca02c; stroke: #2ca02c"/>
     <use xlink:href="#m52fb8c4cf9" x="244.143901" y="181.747704" style="fill: #2ca02c; stroke: #2ca02c"/>
     <use xlink:href="#m52fb8c4cf9" x="258.909908" y="144.2595" style="fill: #2ca02c; stroke: #2ca02c"/>
     <use xlink:href="#m52fb8c4cf9" x="273.675915" y="106.728338" style="fill: #2ca02c; stroke: #2ca02c"/>
     <use xlink:href="#m52fb8c4cf9" x="288.441922" y="73.427501" style="fill: #2ca02c; stroke: #2ca02c"/>
     <use xlink:href="#m52fb8c4cf9" x="303.207928" y="47.300739" style="fill: #2ca02c; stroke: #2ca02c"/>
     <use xlink:href="#m52fb8c4cf9" x="317.973935" y="34.655774" style="fill: #2ca02c; stroke: #2ca02c"/>
     <use xlink:href="#m52fb8c4cf9" x="332.739942" y="41.027523" style="fill: #2ca02c; stroke: #2ca02c"/>
     <use xlink:href="#m52fb8c4cf9" x="347.505949" y="58.379151" style="fill: #2ca02c; stroke: #2ca02c"/>
     <use xlink:href="#m52fb8c4cf9" x="362.271955" y="85.579638" style="fill: #2ca02c; stroke: #2ca02c"/>
     <use xlink:href="#m52fb8c4cf9" x="377.037962" y="123.511735" style="fill: #2ca02c; stroke: #2ca02c"/>
     <use xlink:href="#m52fb8c4cf9" x="391.803969" y="163.180823" style="fill: #2ca02c; stroke: #2ca02c"/>
     <use xlink:href="#m52fb8c4cf9" x="406.569976" y="199.549518" style="fill: #2ca02c; stroke: #2ca02c"/>
     <use xlink:href="#m52fb8c4cf9" x="421.335983" y="222.730937" style="fill: #2ca02c; stroke: #2ca02c"/>
     <use xlink:href="#m52fb8c4cf9" x="436.101989" y="236.106287" style="fill: #2ca02c; stroke: #2ca02c"/>
     <use xlink:href="#m52fb8c4cf9" x="450.867996" y="238.078517" style="fill: #2ca02c; stroke: #2ca02c"/>
     <use xlink:href="#m52fb8c4cf9" x="465.634003" y="219.845712" style="fill: #2ca02c; stroke: #2ca02c"/>
     <use xlink:href="#m52fb8c4cf9" x="480.40001" y="190.565444" style="fill: #2ca02c; stroke: #2ca02c"/>
     <use xlink:href="#m52fb8c4cf9" x="495.166016" y="155.299337" style="fill: #2ca02c; stroke: #2ca02c"/>
    </g>
   </g>
   <g id="line2d_34">
    <path d="M 81.717827 32.687472 
L 96.483833 36.996509 
L 111.24984 59.468053 
L 126.015847 94.873698 
L 140.781854 134.52149 
L 155.547861 173.944358 
L 170.313867 207.952101 
L 185.079874 230.75923 
L 199.845881 240.074403 
L 214.611888 235.164953 
L 229.377894 215.203044 
L 244.143901 183.273476 
L 258.909908 144.969162 
L 273.675915 105.806003 
L 288.441922 71.16868 
L 303.207928 45.614714 
L 317.973935 33.628308 
L 332.739942 37.963614 
L 347.505949 56.020305 
L 362.271955 85.526925 
L 377.037962 123.495225 
L 391.803969 163.420787 
L 406.569976 199.580215 
L 421.335983 225.451314 
L 436.101989 239.087398 
L 450.867996 238.571271 
" clip-path="url(#p0beb75b386)" style="fill: none; stroke: #d62728; stroke-linecap: square"/>
    <defs>
     <path id="m0e7bf24532" d="M 0 1.5 
C 0.397805 1.5 0.77937 1.341951 1.06066 1.06066 
C 1.341951 0.77937 1.5 0.397805 1.5 0 
C 1.5 -0.397805 1.341951 -0.77937 1.06066 -1.06066 
C 0.77937 -1.341951 0.397805 -1.5 0 -1.5 
C -0.397805 -1.5 -0.77937 -1.341951 -1.06066 -1.06066 
C -1.341951 -0.77937 -1.5 -0.397805 -1.5 0 
C -1.5 0.397805 -1.341951 0.77937 -1.06066 1.06066 
C -0.77937 1.341951 -0.397805 1.5 0 1.5 
z
" style="stroke: #d62728"/>
    </defs>
    <g clip-path="url(#p0beb75b386)">
     <use xlink:href="#m0e7bf24532" x="81.717827" y="32.687472" style="fill: #d62728; stroke: #d62728"/>
     <use xlink:href="#m0e7bf24532" x="96.483833" y="36.996509" style="fill: #d62728; stroke: #d62728"/>
     <use xlink:href="#m0e7bf24532" x="111.24984" y="59.468053" style="fill: #d62728; stroke: #d62728"/>
     <use xlink:href="#m0e7bf24532" x="126.015847" y="94.873698" style="fill: #d62728; stroke: #d62728"/>
     <use xlink:href="#m0e7bf24532" x="140.781854" y="134.52149" style="fill: #d62728; stroke: #d62728"/>
     <use xlink:href="#m0e7bf24532" x="155.547861" y="173.944358" style="fill: #d62728; stroke: #d62728"/>
     <use xlink:href="#m0e7bf24532" x="170.313867" y="207.952101" style="fill: #d62728; stroke: #d62728"/>
     <use xlink:href="#m0e7bf24532" x="185.079874" y="230.75923" style="fill: #d62728; stroke: #d62728"/>
     <use xlink:href="#m0e7bf24532" x="199.845881" y="240.074403" style="fill: #d62728; stroke: #d62728"/>
     <use xlink:href="#m0e7bf24532" x="214.611888" y="235.164953" style="fill: #d62728; stroke: #d62728"/>
     <use xlink:href="#m0e7bf24532" x="229.377894" y="215.203044" style="fill: #d62728; stroke: #d62728"/>
     <use xlink:href="#m0e7bf24532" x="244.143901" y="183.273476" style="fill: #d62728; stroke: #d62728"/>
     <use xlink:href="#m0e7bf24532" x="258.909908" y="144.969162" style="fill: #d62728; stroke: #d62728"/>
     <use xlink:href="#m0e7bf24532" x="273.675915" y="105.806003" style="fill: #d62728; stroke: #d62728"/>
     <use xlink:href="#m0e7bf24532" x="288.441922" y="71.16868" style="fill: #d62728; stroke: #d62728"/>
     <use xlink:href="#m0e7bf24532" x="303.207928" y="45.614714" style="fill: #d62728; stroke: #d62728"/>
     <use xlink:href="#m0e7bf24532" x="317.973935" y="33.628308" style="fill: #d62728; stroke: #d62728"/>
     <use xlink:href="#m0e7bf24532" x="332.739942" y="37.963614" style="fill: #d62728; stroke: #d62728"/>
     <use xlink:href="#m0e7bf24532" x="347.505949" y="56.020305" style="fill: #d62728; stroke: #d62728"/>
     <use xlink:href="#m0e7bf24532" x="362.271955" y="85.526925" style="fill: #d62728; stroke: #d62728"/>
     <use xlink:href="#m0e7bf24532" x="377.037962" y="123.495225" style="fill: #d62728; stroke: #d62728"/>
     <use xlink:href="#m0e7bf24532" x="391.803969" y="163.420787" style="fill: #d62728; stroke: #d62728"/>
     <use xlink:href="#m0e7bf24532" x="406.569976" y="199.580215" style="fill: #d62728; stroke: #d62728"/>
     <use xlink:href="#m0e7bf24532" x="421.335983" y="225.451314" style="fill: #d62728; stroke: #d62728"/>
     <use xlink:href="#m0e7bf24532" x="436.101989" y="239.087398" style="fill: #d62728; stroke: #d62728"/>
     <use xlink:href="#m0e7bf24532" x="450.867996" y="238.571271" style="fill: #d62728; stroke: #d62728"/>
    </g>
   </g>
   <g id="patch_3">
    <path d="M 58.523438 250.44375 
L 58.523438 22.318125 
" style="fill: none; stroke: #000000; stroke-width: 0.8; stroke-linejoin: miter; stroke-linecap: square"/>
   </g>
   <g id="patch_4">
    <path d="M 568.8 250.44375 
L 568.8 22.318125 
" style="fill: none; stroke: #000000; stroke-width: 0.8; stroke-linejoin: miter; stroke-linecap: square"/>
   </g>
   <g id="patch_5">
    <path d="M 58.523438 250.44375 
L 568.8 250.44375 
" style="fill: none; stroke: #000000; stroke-width: 0.8; stroke-linejoin: miter; stroke-linecap: square"/>
   </g>
   <g id="patch_6">
    <path d="M 58.523438 22.318125 
L 568.8 22.318125 
" style="fill: none; stroke: #000000; stroke-width: 0.8; stroke-linejoin: miter; stroke-linecap: square"/>
   </g>
   <g id="text_18">
    <!-- Farrow Resampler Outputs -->
    <g transform="translate(234.157031 16.318125) scale(0.12 -0.12)">
     <defs>
      <path id="DejaVuSans-46" d="M 628 4666 
L 3309 4666 
L 3309 4134 
L 1259 4134 
L 1259 2759 
L 3109 2759 
L 3109 2228 
L 1259 2228 
L 1259 0 
L 628 0 
L 628 4666 
z
" transform="scale(0.015625)"/>
      <path id="DejaVuSans-61" d="M 2194 1759 
Q 1497 1759 1228 1600 
Q 959 1441 959 1056 
Q 959 750 1161 570 
Q 1363 391 1709 391 
Q 2188 391 2477 730 
Q 2766 1069 2766 1631 
L 2766 1759 
L 2194 1759 
z
M 3341 1997 
L 3341 0 
L 2766 0 
L 2766 531 
Q 2569 213 2275 61 
Q 1981 -91 1556 -91 
Q 1019 -91 701 211 
Q 384 513 384 1019 
Q 384 1609 779 1909 
Q 1175 2209 1959 2209 
L 2766 2209 
L 2766 2266 
Q 2766 2663 2505 2880 
Q 2244 3097 1772 3097 
Q 1472 3097 1187 3025 
Q 903 2953 641 2809 
L 641 3341 
Q 956 3463 1253 3523 
Q 1550 3584 1831 3584 
Q 2591 3584 2966 3190 
Q 3341 2797 3341 1997 
z
" transform="scale(0.015625)"/>
      <path id="DejaVuSans-72" d="M 2631 2963 
Q 2534 3019 2420 3045 
Q 2306 3072 2169 3072 
Q 1681 3072 1420 2755 
Q 1159 2438 1159 1844 
L 1159 0 
L 581 0 
L 581 3500 
L 1159 3500 
L 1159 2956 
Q 1341 3275 1631 3429 
Q 1922 3584 2338 3584 
Q 2397 3584 2469 3576 
Q 2541 3569 2628 3553 
L 2631 2963 
z
" transform="scale(0.015625)"/>
      <path id="DejaVuSans-6f" d="M 1959 3097 
Q 1497 3097 1228 2736 
Q 959 2375 959 1747 
Q 959 1119 1226 758 
Q 1494 397 1959 397 
Q 2419 397 2687 759 
Q 2956 1122 2956 1747 
Q 2956 2369 2687 2733 
Q 2419 3097 1959 3097 
z
M 1959 3584 
Q 2709 3584 3137 3096 
Q 3566 2609 3566 1747 
Q 3566 888 3137 398 
Q 2709 -91 1959 -91 
Q 1206 -91 779 398 
Q 353 888 353 1747 
Q 353 2609 779 3096 
Q 1206 3584 1959 3584 
z
" transform="scale(0.015625)"/>
      <path id="DejaVuSans-77" d="M 269 3500 
L 844 3500 
L 1563 769 
L 2278 3500 
L 2956 3500 
L 3675 769 
L 4391 3500 
L 4966 3500 
L 4050 0 
L 3372 0 
L 2619 2869 
L 1863 0 
L 1184 0 
L 269 3500 
z
" transform="scale(0.015625)"/>
      <path id="DejaVuSans-52" d="M 2841 2188 
Q 3044 2119 3236 1894 
Q 3428 1669 3622 1275 
L 4263 0 
L 3584 0 
L 2988 1197 
Q 2756 1666 2539 1819 
Q 2322 1972 1947 1972 
L 1259 1972 
L 1259 0 
L 628 0 
L 628 4666 
L 2053 4666 
Q 2853 4666 3247 4331 
Q 3641 3997 3641 3322 
Q 3641 2881 3436 2590 
Q 3231 2300 2841 2188 
z
M 1259 4147 
L 1259 2491 
L 2053 2491 
Q 2509 2491 2742 2702 
Q 2975 2913 2975 3322 
Q 2975 3731 2742 3939 
Q 2509 4147 2053 4147 
L 1259 4147 
z
" transform="scale(0.015625)"/>
      <path id="DejaVuSans-4f" d="M 2522 4238 
Q 1834 4238 1429 3725 
Q 1025 3213 1025 2328 
Q 1025 1447 1429 934 
Q 1834 422 2522 422 
Q 3209 422 3611 934 
Q 4013 1447 4013 2328 
Q 4013 3213 3611 3725 
Q 3209 4238 2522 4238 
z
M 2522 4750 
Q 3503 4750 4090 4092 
Q 4678 3434 4678 2328 
Q 4678 1225 4090 567 
Q 3503 -91 2522 -91 
Q 1538 -91 948 565 
Q 359 1222 359 2328 
Q 359 3434 948 4092 
Q 1538 4750 2522 4750 
z
" transform="scale(0.015625)"/>
     </defs>
     <use xlink:href="#DejaVuSans-46"/>
     <use xlink:href="#DejaVuSans-61" transform="translate(48.394531 0)"/>
     <use xlink:href="#DejaVuSans-72" transform="translate(109.673828 0)"/>
     <use xlink:href="#DejaVuSans-72" transform="translate(149.037109 0)"/>
     <use xlink:href="#DejaVuSans-6f" transform="translate(187.900391 0)"/>
     <use xlink:href="#DejaVuSans-77" transform="translate(249.082031 0)"/>
     <use xlink:href="#DejaVuSans-20" transform="translate(330.869141 0)"/>
     <use xlink:href="#DejaVuSans-52" transform="translate(362.65625 0)"/>
     <use xlink:href="#DejaVuSans-65" transform="translate(427.638672 0)"/>
     <use xlink:href="#DejaVuSans-73" transform="translate(489.162109 0)"/>
     <use xlink:href="#DejaVuSans-61" transform="translate(541.261719 0)"/>
     <use xlink:href="#DejaVuSans-6d" transform="translate(602.541016 0)"/>
     <use xlink:href="#DejaVuSans-70" transform="translate(699.953125 0)"/>
     <use xlink:href="#DejaVuSans-6c" transform="translate(763.429688 0)"/>
     <use xlink:href="#DejaVuSans-65" transform="translate(791.212891 0)"/>
     <use xlink:href="#DejaVuSans-72" transform="translate(852.736328 0)"/>
     <use xlink:href="#DejaVuSans-20" transform="translate(893.849609 0)"/>
     <use xlink:href="#DejaVuSans-4f" transform="translate(925.636719 0)"/>
     <use xlink:href="#DejaVuSans-75" transform="translate(1004.347656 0)"/>
     <use xlink:href="#DejaVuSans-74" transform="translate(1067.726562 0)"/>
     <use xlink:href="#DejaVuSans-70" transform="translate(1106.935547 0)"/>
     <use xlink:href="#DejaVuSans-75" transform="translate(1170.412109 0)"/>
     <use xlink:href="#DejaVuSans-74" transform="translate(1233.791016 0)"/>
     <use xlink:href="#DejaVuSans-73" transform="translate(1273 0)"/>
    </g>
   </g>
   <g id="legend_1">
    <g id="patch_7">
     <path d="M 65.523438 245.44375 
L 141.8 245.44375 
Q 143.8 245.44375 143.8 243.44375 
L 143.8 185.73125 
Q 143.8 183.73125 141.8 183.73125 
L 65.523438 183.73125 
Q 63.523438 183.73125 63.523438 185.73125 
L 63.523438 243.44375 
Q 63.523438 245.44375 65.523438 245.44375 
z
" style="fill: #ffffff; opacity: 0.8; stroke: #cccccc; stroke-linejoin: miter"/>
    </g>
    <g id="line2d_35">
     <path d="M 67.523438 191.829687 
L 77.523438 191.829687 
L 87.523438 191.829687 
" style="fill: none; stroke: #1f77b4; stroke-linecap: square"/>
     <g>
      <use xlink:href="#m946fe19dd5" x="77.523438" y="191.829687" style="fill: #1f77b4; stroke: #1f77b4"/>
     </g>
    </g>
    <g id="text_19">
     <!-- Input -->
     <g transform="translate(95.523438 195.329687) scale(0.1 -0.1)">
      <defs>
       <path id="DejaVuSans-49" d="M 628 4666 
L 1259 4666 
L 1259 0 
L 628 0 
L 628 4666 
z
" transform="scale(0.015625)"/>
       <path id="DejaVuSans-6e" d="M 3513 2113 
L 3513 0 
L 2938 0 
L 2938 2094 
Q 2938 2591 2744 2837 
Q 2550 3084 2163 3084 
Q 1697 3084 1428 2787 
Q 1159 2491 1159 1978 
L 1159 0 
L 581 0 
L 581 3500 
L 1159 3500 
L 1159 2956 
Q 1366 3272 1645 3428 
Q 1925 3584 2291 3584 
Q 2894 3584 3203 3211 
Q 3513 2838 3513 2113 
z
" transform="scale(0.015625)"/>
      </defs>
      <use xlink:href="#DejaVuSans-49"/>
      <use xlink:href="#DejaVuSans-6e" transform="translate(29.492188 0)"/>
      <use xlink:href="#DejaVuSans-70" transform="translate(92.871094 0)"/>
      <use xlink:href="#DejaVuSans-75" transform="translate(156.347656 0)"/>
      <use xlink:href="#DejaVuSans-74" transform="translate(219.726562 0)"/>
     </g>
    </g>
    <g id="line2d_36">
     <path d="M 67.523438 206.507812 
L 77.523438 206.507812 
L 87.523438 206.507812 
" style="fill: none; stroke: #ff7f0e; stroke-linecap: square"/>
     <g>
      <use xlink:href="#mcc5c18cf31" x="77.523438" y="206.507812" style="fill: #ff7f0e; stroke: #ff7f0e"/>
     </g>
    </g>
    <g id="text_20">
     <!-- Output 1 -->
     <g transform="translate(95.523438 210.007812) scale(0.1 -0.1)">
      <use xlink:href="#DejaVuSans-4f"/>
      <use xlink:href="#DejaVuSans-75" transform="translate(78.710938 0)"/>
      <use xlink:href="#DejaVuSans-74" transform="translate(142.089844 0)"/>
      <use xlink:href="#DejaVuSans-70" transform="translate(181.298828 0)"/>
      <use xlink:href="#DejaVuSans-75" transform="translate(244.775391 0)"/>
      <use xlink:href="#DejaVuSans-74" transform="translate(308.154297 0)"/>
      <use xlink:href="#DejaVuSans-20" transform="translate(347.363281 0)"/>
      <use xlink:href="#DejaVuSans-31" transform="translate(379.150391 0)"/>
     </g>
    </g>
    <g id="line2d_37">
     <path d="M 67.523438 221.185937 
L 77.523438 221.185937 
L 87.523438 221.185937 
" style="fill: none; stroke: #2ca02c; stroke-linecap: square"/>
     <g>
      <use xlink:href="#m52fb8c4cf9" x="77.523438" y="221.185937" style="fill: #2ca02c; stroke: #2ca02c"/>
     </g>
    </g>
    <g id="text_21">
     <!-- Output 3 -->
     <g transform="translate(95.523438 224.685937) scale(0.1 -0.1)">
      <defs>
       <path id="DejaVuSans-33" d="M 2597 2516 
Q 3050 2419 3304 2112 
Q 3559 1806 3559 1356 
Q 3559 666 3084 287 
Q 2609 -91 1734 -91 
Q 1441 -91 1130 -33 
Q 819 25 488 141 
L 488 750 
Q 750 597 1062 519 
Q 1375 441 1716 441 
Q 2309 441 2620 675 
Q 2931 909 2931 1356 
Q 2931 1769 2642 2001 
Q 2353 2234 1838 2234 
L 1294 2234 
L 1294 2753 
L 1863 2753 
Q 2328 2753 2575 2939 
Q 2822 3125 2822 3475 
Q 2822 3834 2567 4026 
Q 2313 4219 1838 4219 
Q 1578 4219 1281 4162 
Q 984 4106 628 3988 
L 628 4550 
Q 988 4650 1302 4700 
Q 1616 4750 1894 4750 
Q 2613 4750 3031 4423 
Q 3450 4097 3450 3541 
Q 3450 3153 3228 2886 
Q 3006 2619 2597 2516 
z
" transform="scale(0.015625)"/>
      </defs>
      <use xlink:href="#DejaVuSans-4f"/>
      <use xlink:href="#DejaVuSans-75" transform="translate(78.710938 0)"/>
      <use xlink:href="#DejaVuSans-74" transform="translate(142.089844 0)"/>
      <use xlink:href="#DejaVuSans-70" transform="translate(181.298828 0)"/>
      <use xlink:href="#DejaVuSans-75" transform="translate(244.775391 0)"/>
      <use xlink:href="#DejaVuSans-74" transform="translate(308.154297 0)"/>
      <use xlink:href="#DejaVuSans-20" transform="translate(347.363281 0)"/>
      <use xlink:href="#DejaVuSans-33" transform="translate(379.150391 0)"/>
     </g>
    </g>
    <g id="line2d_38">
     <path d="M 67.523438 235.864062 
L 77.523438 235.864062 
L 87.523438 235.864062 
" style="fill: none; stroke: #d62728; stroke-linecap: square"/>
     <g>
      <use xlink:href="#m0e7bf24532" x="77.523438" y="235.864062" style="fill: #d62728; stroke: #d62728"/>
     </g>
    </g>
    <g id="text_22">
     <!-- Output 5 -->
     <g transform="translate(95.523438 239.364062) scale(0.1 -0.1)">
      <use xlink:href="#DejaVuSans-4f"/>
      <use xlink:href="#DejaVuSans-75" transform="translate(78.710938 0)"/>
      <use xlink:href="#DejaVuSans-74" transform="translate(142.089844 0)"/>
      <use xlink:href="#DejaVuSans-70" transform="translate(181.298828 0)"/>
      <use xlink:href="#DejaVuSans-75" transform="translate(244.775391 0)"/>
      <use xlink:href="#DejaVuSans-74" transform="translate(308.154297 0)"/>
      <use xlink:href="#DejaVuSans-20" transform="translate(347.363281 0)"/>
      <use xlink:href="#DejaVuSans-35" transform="translate(379.150391 0)"/>
     </g>
    </g>
   </g>
  </g>
 </g>
 <defs>
  <clipPath id="p0beb75b386">
   <rect x="58.523438" y="22.318125" width="510.276563" height="228.125625"/>
  </clipPath>
 </defs>
</svg>
