<?xml version="1.0" encoding="utf-8" standalone="no"?>
<!DOCTYPE svg PUBLIC "-//W3C//DTD SVG 1.1//EN"
  "http://www.w3.org/Graphics/SVG/1.1/DTD/svg11.dtd">
<svg xmlns:xlink="http://www.w3.org/1999/xlink" width="576pt" height="288pt" viewBox="0 0 576 288" xmlns="http://www.w3.org/2000/svg" version="1.1">
 <metadata>
  <rdf:RDF xmlns:dc="http://purl.org/dc/elements/1.1/" xmlns:cc="http://creativecommons.org/ns#" xmlns:rdf="http://www.w3.org/1999/02/22-rdf-syntax-ns#">
   <cc:Work>
    <dc:type rdf:resource="http://purl.org/dc/dcmitype/StillImage"/>
    <dc:date>2026-05-03T16:47:35.913363</dc:date>
    <dc:format>image/svg+xml</dc:format>
    <dc:creator>
     <cc:Agent>
      <dc:title>Matplotlib v3.10.9, https://matplotlib.org/</dc:title>
     </cc:Agent>
    </dc:creator>
   </cc:Work>
  </rdf:RDF>
 </metadata>
 <defs>
  <style type="text/css">*{stroke-linejoin: round; stroke-linecap: butt}</style>
 </defs>
 <g id="figure_1">
  <g id="patch_1">
   <path d="M 0 288 
L 576 288 
L 576 0 
L 0 0 
z
" style="fill: #ffffff"/>
  </g>
  <g id="axes_1">
   <g id="patch_2">
    <path d="M 52.160938 250.421875 
L 568.8 250.421875 
L 568.8 7.2 
L 52.160938 7.2 
z
" style="fill: #ffffff"/>
   </g>
   <g id="matplotlib.axis_1">
    <g id="xtick_1">
     <g id="line2d_1">
      <path d="M 75.644531 250.421875 
L 75.644531 7.2 
" clip-path="url(#pb396166f5d)" style="fill: none; stroke-dasharray: 2.96,1.28; stroke-dashoffset: 0; stroke: #b0b0b0; stroke-opacity: 0.8; stroke-width: 0.8"/>
     </g>
     <g id="line2d_2">
      <defs>
       <path id="m1ca6c73d12" d="M 0 0 
L 0 3.5 
" style="stroke: #000000; stroke-width: 0.8"/>
      </defs>
      <g>
       <use xlink:href="#m1ca6c73d12" x="75.644531" y="250.421875" style="stroke: #000000; stroke-width: 0.8"/>
      </g>
     </g>
     <g id="text_1">
      <!-- 0 -->
      <g transform="translate(72.463281 265.020312) scale(0.1 -0.1)">
       <defs>
        <path id="DejaVuSans-30" d="M 2034 4250 
Q 1547 4250 1301 3770 
Q 1056 3291 1056 2328 
Q 1056 1369 1301 889 
Q 1547 409 2034 409 
Q 2525 409 2770 889 
Q 3016 1369 3016 2328 
Q 3016 3291 2770 3770 
Q 2525 4250 2034 4250 
z
M 2034 4750 
Q 2819 4750 3233 4129 
Q 3647 3509 3647 2328 
Q 3647 1150 3233 529 
Q 2819 -91 2034 -91 
Q 1250 -91 836 529 
Q 422 1150 422 2328 
Q 422 3509 836 4129 
Q 1250 4750 2034 4750 
z
" transform="scale(0.015625)"/>
       </defs>
       <use xlink:href="#DejaVuSans-30"/>
      </g>
     </g>
    </g>
    <g id="xtick_2">
     <g id="line2d_3">
      <path d="M 134.500656 250.421875 
L 134.500656 7.2 
" clip-path="url(#pb396166f5d)" style="fill: none; stroke-dasharray: 2.96,1.28; stroke-dashoffset: 0; stroke: #b0b0b0; stroke-opacity: 0.8; stroke-width: 0.8"/>
     </g>
     <g id="line2d_4">
      <g>
       <use xlink:href="#m1ca6c73d12" x="134.500656" y="250.421875" style="stroke: #000000; stroke-width: 0.8"/>
      </g>
     </g>
     <g id="text_2">
      <!-- 50 -->
      <g transform="translate(128.138156 265.020312) scale(0.1 -0.1)">
       <defs>
        <path id="DejaVuSans-35" d="M 691 4666 
L 3169 4666 
L 3169 4134 
L 1269 4134 
L 1269 2991 
Q 1406 3038 1543 3061 
Q 1681 3084 1819 3084 
Q 2600 3084 3056 2656 
Q 3513 2228 3513 1497 
Q 3513 744 3044 326 
Q 2575 -91 1722 -91 
Q 1428 -91 1123 -41 
Q 819 9 494 109 
L 494 744 
Q 775 591 1075 516 
Q 1375 441 1709 441 
Q 2250 441 2565 725 
Q 2881 1009 2881 1497 
Q 2881 1984 2565 2268 
Q 2250 2553 1709 2553 
Q 1456 2553 1204 2497 
Q 953 2441 691 2322 
L 691 4666 
z
" transform="scale(0.015625)"/>
       </defs>
       <use xlink:href="#DejaVuSans-35"/>
       <use xlink:href="#DejaVuSans-30" transform="translate(63.623047 0)"/>
      </g>
     </g>
    </g>
    <g id="xtick_3">
     <g id="line2d_5">
      <path d="M 193.356781 250.421875 
L 193.356781 7.2 
" clip-path="url(#pb396166f5d)" style="fill: none; stroke-dasharray: 2.96,1.28; stroke-dashoffset: 0; stroke: #b0b0b0; stroke-opacity: 0.8; stroke-width: 0.8"/>
     </g>
     <g id="line2d_6">
      <g>
       <use xlink:href="#m1ca6c73d12" x="193.356781" y="250.421875" style="stroke: #000000; stroke-width: 0.8"/>
      </g>
     </g>
     <g id="text_3">
      <!-- 100 -->
      <g transform="translate(183.813031 265.020312) scale(0.1 -0.1)">
       <defs>
        <path id="DejaVuSans-31" d="M 794 531 
L 1825 531 
L 1825 4091 
L 703 3866 
L 703 4441 
L 1819 4666 
L 2450 4666 
L 2450 531 
L 3481 531 
L 3481 0 
L 794 0 
L 794 531 
z
" transform="scale(0.015625)"/>
       </defs>
       <use xlink:href="#DejaVuSans-31"/>
       <use xlink:href="#DejaVuSans-30" transform="translate(63.623047 0)"/>
       <use xlink:href="#DejaVuSans-30" transform="translate(127.246094 0)"/>
      </g>
     </g>
    </g>
    <g id="xtick_4">
     <g id="line2d_7">
      <path d="M 252.212905 250.421875 
L 252.212905 7.2 
" clip-path="url(#pb396166f5d)" style="fill: none; stroke-dasharray: 2.96,1.28; stroke-dashoffset: 0; stroke: #b0b0b0; stroke-opacity: 0.8; stroke-width: 0.8"/>
     </g>
     <g id="line2d_8">
      <g>
       <use xlink:href="#m1ca6c73d12" x="252.212905" y="250.421875" style="stroke: #000000; stroke-width: 0.8"/>
      </g>
     </g>
     <g id="text_4">
      <!-- 150 -->
      <g transform="translate(242.669155 265.020312) scale(0.1 -0.1)">
       <use xlink:href="#DejaVuSans-31"/>
       <use xlink:href="#DejaVuSans-35" transform="translate(63.623047 0)"/>
       <use xlink:href="#DejaVuSans-30" transform="translate(127.246094 0)"/>
      </g>
     </g>
    </g>
    <g id="xtick_5">
     <g id="line2d_9">
      <path d="M 311.06903 250.421875 
L 311.06903 7.2 
" clip-path="url(#pb396166f5d)" style="fill: none; stroke-dasharray: 2.96,1.28; stroke-dashoffset: 0; stroke: #b0b0b0; stroke-opacity: 0.8; stroke-width: 0.8"/>
     </g>
     <g id="line2d_10">
      <g>
       <use xlink:href="#m1ca6c73d12" x="311.06903" y="250.421875" style="stroke: #000000; stroke-width: 0.8"/>
      </g>
     </g>
     <g id="text_5">
      <!-- 200 -->
      <g transform="translate(301.52528 265.020312) scale(0.1 -0.1)">
       <defs>
        <path id="DejaVuSans-32" d="M 1228 531 
L 3431 531 
L 3431 0 
L 469 0 
L 469 531 
Q 828 903 1448 1529 
Q 2069 2156 2228 2338 
Q 2531 2678 2651 2914 
Q 2772 3150 2772 3378 
Q 2772 3750 2511 3984 
Q 2250 4219 1831 4219 
Q 1534 4219 1204 4116 
Q 875 4013 500 3803 
L 500 4441 
Q 881 4594 1212 4672 
Q 1544 4750 1819 4750 
Q 2544 4750 2975 4387 
Q 3406 4025 3406 3419 
Q 3406 3131 3298 2873 
Q 3191 2616 2906 2266 
Q 2828 2175 2409 1742 
Q 1991 1309 1228 531 
z
" transform="scale(0.015625)"/>
       </defs>
       <use xlink:href="#DejaVuSans-32"/>
       <use xlink:href="#DejaVuSans-30" transform="translate(63.623047 0)"/>
       <use xlink:href="#DejaVuSans-30" transform="translate(127.246094 0)"/>
      </g>
     </g>
    </g>
    <g id="xtick_6">
     <g id="line2d_11">
      <path d="M 369.925155 250.421875 
L 369.925155 7.2 
" clip-path="url(#pb396166f5d)" style="fill: none; stroke-dasharray: 2.96,1.28; stroke-dashoffset: 0; stroke: #b0b0b0; stroke-opacity: 0.8; stroke-width: 0.8"/>
     </g>
     <g id="line2d_12">
      <g>
       <use xlink:href="#m1ca6c73d12" x="369.925155" y="250.421875" style="stroke: #000000; stroke-width: 0.8"/>
      </g>
     </g>
     <g id="text_6">
      <!-- 250 -->
      <g transform="translate(360.381405 265.020312) scale(0.1 -0.1)">
       <use xlink:href="#DejaVuSans-32"/>
       <use xlink:href="#DejaVuSans-35" transform="translate(63.623047 0)"/>
       <use xlink:href="#DejaVuSans-30" transform="translate(127.246094 0)"/>
      </g>
     </g>
    </g>
    <g id="xtick_7">
     <g id="line2d_13">
      <path d="M 428.781279 250.421875 
L 428.781279 7.2 
" clip-path="url(#pb396166f5d)" style="fill: none; stroke-dasharray: 2.96,1.28; stroke-dashoffset: 0; stroke: #b0b0b0; stroke-opacity: 0.8; stroke-width: 0.8"/>
     </g>
     <g id="line2d_14">
      <g>
       <use xlink:href="#m1ca6c73d12" x="428.781279" y="250.421875" style="stroke: #000000; stroke-width: 0.8"/>
      </g>
     </g>
     <g id="text_7">
      <!-- 300 -->
      <g transform="translate(419.237529 265.020312) scale(0.1 -0.1)">
       <defs>
        <path id="DejaVuSans-33" d="M 2597 2516 
Q 3050 2419 3304 2112 
Q 3559 1806 3559 1356 
Q 3559 666 3084 287 
Q 2609 -91 1734 -91 
Q 1441 -91 1130 -33 
Q 819 25 488 141 
L 488 750 
Q 750 597 1062 519 
Q 1375 441 1716 441 
Q 2309 441 2620 675 
Q 2931 909 2931 1356 
Q 2931 1769 2642 2001 
Q 2353 2234 1838 2234 
L 1294 2234 
L 1294 2753 
L 1863 2753 
Q 2328 2753 2575 2939 
Q 2822 3125 2822 3475 
Q 2822 3834 2567 4026 
Q 2313 4219 1838 4219 
Q 1578 4219 1281 4162 
Q 984 4106 628 3988 
L 628 4550 
Q 988 4650 1302 4700 
Q 1616 4750 1894 4750 
Q 2613 4750 3031 4423 
Q 3450 4097 3450 3541 
Q 3450 3153 3228 2886 
Q 3006 2619 2597 2516 
z
" transform="scale(0.015625)"/>
       </defs>
       <use xlink:href="#DejaVuSans-33"/>
       <use xlink:href="#DejaVuSans-30" transform="translate(63.623047 0)"/>
       <use xlink:href="#DejaVuSans-30" transform="translate(127.246094 0)"/>
      </g>
     </g>
    </g>
    <g id="xtick_8">
     <g id="line2d_15">
      <path d="M 487.637404 250.421875 
L 487.637404 7.2 
" clip-path="url(#pb396166f5d)" style="fill: none; stroke-dasharray: 2.96,1.28; stroke-dashoffset: 0; stroke: #b0b0b0; stroke-opacity: 0.8; stroke-width: 0.8"/>
     </g>
     <g id="line2d_16">
      <g>
       <use xlink:href="#m1ca6c73d12" x="487.637404" y="250.421875" style="stroke: #000000; stroke-width: 0.8"/>
      </g>
     </g>
     <g id="text_8">
      <!-- 350 -->
      <g transform="translate(478.093654 265.020312) scale(0.1 -0.1)">
       <use xlink:href="#DejaVuSans-33"/>
       <use xlink:href="#DejaVuSans-35" transform="translate(63.623047 0)"/>
       <use xlink:href="#DejaVuSans-30" transform="translate(127.246094 0)"/>
      </g>
     </g>
    </g>
    <g id="xtick_9">
     <g id="line2d_17">
      <path d="M 546.493529 250.421875 
L 546.493529 7.2 
" clip-path="url(#pb396166f5d)" style="fill: none; stroke-dasharray: 2.96,1.28; stroke-dashoffset: 0; stroke: #b0b0b0; stroke-opacity: 0.8; stroke-width: 0.8"/>
     </g>
     <g id="line2d_18">
      <g>
       <use xlink:href="#m1ca6c73d12" x="546.493529" y="250.421875" style="stroke: #000000; stroke-width: 0.8"/>
      </g>
     </g>
     <g id="text_9">
      <!-- 400 -->
      <g transform="translate(536.949779 265.020312) scale(0.1 -0.1)">
       <defs>
        <path id="DejaVuSans-34" d="M 2419 4116 
L 825 1625 
L 2419 1625 
L 2419 4116 
z
M 2253 4666 
L 3047 4666 
L 3047 1625 
L 3713 1625 
L 3713 1100 
L 3047 1100 
L 3047 0 
L 2419 0 
L 2419 1100 
L 313 1100 
L 313 1709 
L 2253 4666 
z
" transform="scale(0.015625)"/>
       </defs>
       <use xlink:href="#DejaVuSans-34"/>
       <use xlink:href="#DejaVuSans-30" transform="translate(63.623047 0)"/>
       <use xlink:href="#DejaVuSans-30" transform="translate(127.246094 0)"/>
      </g>
     </g>
    </g>
    <g id="text_10">
     <!-- Sample, $n$ -->
     <g transform="translate(285.380469 278.7) scale(0.1 -0.1)">
      <defs>
       <path id="DejaVuSans-53" d="M 3425 4513 
L 3425 3897 
Q 3066 4069 2747 4153 
Q 2428 4238 2131 4238 
Q 1616 4238 1336 4038 
Q 1056 3838 1056 3469 
Q 1056 3159 1242 3001 
Q 1428 2844 1947 2747 
L 2328 2669 
Q 3034 2534 3370 2195 
Q 3706 1856 3706 1288 
Q 3706 609 3251 259 
Q 2797 -91 1919 -91 
Q 1588 -91 1214 -16 
Q 841 59 441 206 
L 441 856 
Q 825 641 1194 531 
Q 1563 422 1919 422 
Q 2459 422 2753 634 
Q 3047 847 3047 1241 
Q 3047 1584 2836 1778 
Q 2625 1972 2144 2069 
L 1759 2144 
Q 1053 2284 737 2584 
Q 422 2884 422 3419 
Q 422 4038 858 4394 
Q 1294 4750 2059 4750 
Q 2388 4750 2728 4690 
Q 3069 4631 3425 4513 
z
" transform="scale(0.015625)"/>
       <path id="DejaVuSans-61" d="M 2194 1759 
Q 1497 1759 1228 1600 
Q 959 1441 959 1056 
Q 959 750 1161 570 
Q 1363 391 1709 391 
Q 2188 391 2477 730 
Q 2766 1069 2766 1631 
L 2766 1759 
L 2194 1759 
z
M 3341 1997 
L 3341 0 
L 2766 0 
L 2766 531 
Q 2569 213 2275 61 
Q 1981 -91 1556 -91 
Q 1019 -91 701 211 
Q 384 513 384 1019 
Q 384 1609 779 1909 
Q 1175 2209 1959 2209 
L 2766 2209 
L 2766 2266 
Q 2766 2663 2505 2880 
Q 2244 3097 1772 3097 
Q 1472 3097 1187 3025 
Q 903 2953 641 2809 
L 641 3341 
Q 956 3463 1253 3523 
Q 1550 3584 1831 3584 
Q 2591 3584 2966 3190 
Q 3341 2797 3341 1997 
z
" transform="scale(0.015625)"/>
       <path id="DejaVuSans-6d" d="M 3328 2828 
Q 3544 3216 3844 3400 
Q 4144 3584 4550 3584 
Q 5097 3584 5394 3201 
Q 5691 2819 5691 2113 
L 5691 0 
L 5113 0 
L 5113 2094 
Q 5113 2597 4934 2840 
Q 4756 3084 4391 3084 
Q 3944 3084 3684 2787 
Q 3425 2491 3425 1978 
L 3425 0 
L 2847 0 
L 2847 2094 
Q 2847 2600 2669 2842 
Q 2491 3084 2119 3084 
Q 1678 3084 1418 2786 
Q 1159 2488 1159 1978 
L 1159 0 
L 581 0 
L 581 3500 
L 1159 3500 
L 1159 2956 
Q 1356 3278 1631 3431 
Q 1906 3584 2284 3584 
Q 2666 3584 2933 3390 
Q 3200 3197 3328 2828 
z
" transform="scale(0.015625)"/>
       <path id="DejaVuSans-70" d="M 1159 525 
L 1159 -1331 
L 581 -1331 
L 581 3500 
L 1159 3500 
L 1159 2969 
Q 1341 3281 1617 3432 
Q 1894 3584 2278 3584 
Q 2916 3584 3314 3078 
Q 3713 2572 3713 1747 
Q 3713 922 3314 415 
Q 2916 -91 2278 -91 
Q 1894 -91 1617 61 
Q 1341 213 1159 525 
z
M 3116 1747 
Q 3116 2381 2855 2742 
Q 2594 3103 2138 3103 
Q 1681 3103 1420 2742 
Q 1159 2381 1159 1747 
Q 1159 1113 1420 752 
Q 1681 391 2138 391 
Q 2594 391 2855 752 
Q 3116 1113 3116 1747 
z
" transform="scale(0.015625)"/>
       <path id="DejaVuSans-6c" d="M 603 4863 
L 1178 4863 
L 1178 0 
L 603 0 
L 603 4863 
z
" transform="scale(0.015625)"/>
       <path id="DejaVuSans-65" d="M 3597 1894 
L 3597 1613 
L 953 1613 
Q 991 1019 1311 708 
Q 1631 397 2203 397 
Q 2534 397 2845 478 
Q 3156 559 3463 722 
L 3463 178 
Q 3153 47 2828 -22 
Q 2503 -91 2169 -91 
Q 1331 -91 842 396 
Q 353 884 353 1716 
Q 353 2575 817 3079 
Q 1281 3584 2069 3584 
Q 2775 3584 3186 3129 
Q 3597 2675 3597 1894 
z
M 3022 2063 
Q 3016 2534 2758 2815 
Q 2500 3097 2075 3097 
Q 1594 3097 1305 2825 
Q 1016 2553 972 2059 
L 3022 2063 
z
" transform="scale(0.015625)"/>
       <path id="DejaVuSans-2c" d="M 750 794 
L 1409 794 
L 1409 256 
L 897 -744 
L 494 -744 
L 750 256 
L 750 794 
z
" transform="scale(0.015625)"/>
       <path id="DejaVuSans-20" transform="scale(0.015625)"/>
       <path id="DejaVuSans-Oblique-6e" d="M 3566 2113 
L 3156 0 
L 2578 0 
L 2988 2091 
Q 3016 2238 3031 2350 
Q 3047 2463 3047 2528 
Q 3047 2791 2881 2937 
Q 2716 3084 2419 3084 
Q 1956 3084 1622 2776 
Q 1288 2469 1184 1941 
L 800 0 
L 225 0 
L 903 3500 
L 1478 3500 
L 1363 2950 
Q 1603 3253 1940 3418 
Q 2278 3584 2650 3584 
Q 3113 3584 3367 3334 
Q 3622 3084 3622 2631 
Q 3622 2519 3608 2391 
Q 3594 2263 3566 2113 
z
" transform="scale(0.015625)"/>
      </defs>
      <use xlink:href="#DejaVuSans-53" transform="translate(0 0.015625)"/>
      <use xlink:href="#DejaVuSans-61" transform="translate(63.476562 0.015625)"/>
      <use xlink:href="#DejaVuSans-6d" transform="translate(124.755859 0.015625)"/>
      <use xlink:href="#DejaVuSans-70" transform="translate(222.167969 0.015625)"/>
      <use xlink:href="#DejaVuSans-6c" transform="translate(285.644531 0.015625)"/>
      <use xlink:href="#DejaVuSans-65" transform="translate(313.427734 0.015625)"/>
      <use xlink:href="#DejaVuSans-2c" transform="translate(374.951172 0.015625)"/>
      <use xlink:href="#DejaVuSans-20" transform="translate(406.738281 0.015625)"/>
      <use xlink:href="#DejaVuSans-Oblique-6e" transform="translate(438.525391 0.015625)"/>
     </g>
    </g>
   </g>
   <g id="matplotlib.axis_2">
    <g id="ytick_1">
     <g id="line2d_19">
      <path d="M 52.160938 238.573146 
L 568.8 238.573146 
" clip-path="url(#pb396166f5d)" style="fill: none; stroke-dasharray: 2.96,1.28; stroke-dashoffset: 0; stroke: #b0b0b0; stroke-opacity: 0.8; stroke-width: 0.8"/>
     </g>
     <g id="line2d_20">
      <defs>
       <path id="ma2916d5363" d="M 0 0 
L -3.5 0 
" style="stroke: #000000; stroke-width: 0.8"/>
      </defs>
      <g>
       <use xlink:href="#ma2916d5363" x="52.160938" y="238.573146" style="stroke: #000000; stroke-width: 0.8"/>
      </g>
     </g>
     <g id="text_11">
      <!-- −0.4 -->
      <g transform="translate(20.878125 242.372365) scale(0.1 -0.1)">
       <defs>
        <path id="DejaVuSans-2212" d="M 678 2272 
L 4684 2272 
L 4684 1741 
L 678 1741 
L 678 2272 
z
" transform="scale(0.015625)"/>
        <path id="DejaVuSans-2e" d="M 684 794 
L 1344 794 
L 1344 0 
L 684 0 
L 684 794 
z
" transform="scale(0.015625)"/>
       </defs>
       <use xlink:href="#DejaVuSans-2212"/>
       <use xlink:href="#DejaVuSans-30" transform="translate(83.789062 0)"/>
       <use xlink:href="#DejaVuSans-2e" transform="translate(147.412109 0)"/>
       <use xlink:href="#DejaVuSans-34" transform="translate(179.199219 0)"/>
      </g>
     </g>
    </g>
    <g id="ytick_2">
     <g id="line2d_21">
      <path d="M 52.160938 210.458988 
L 568.8 210.458988 
" clip-path="url(#pb396166f5d)" style="fill: none; stroke-dasharray: 2.96,1.28; stroke-dashoffset: 0; stroke: #b0b0b0; stroke-opacity: 0.8; stroke-width: 0.8"/>
     </g>
     <g id="line2d_22">
      <g>
       <use xlink:href="#ma2916d5363" x="52.160938" y="210.458988" style="stroke: #000000; stroke-width: 0.8"/>
      </g>
     </g>
     <g id="text_12">
      <!-- −0.3 -->
      <g transform="translate(20.878125 214.258206) scale(0.1 -0.1)">
       <use xlink:href="#DejaVuSans-2212"/>
       <use xlink:href="#DejaVuSans-30" transform="translate(83.789062 0)"/>
       <use xlink:href="#DejaVuSans-2e" transform="translate(147.412109 0)"/>
       <use xlink:href="#DejaVuSans-33" transform="translate(179.199219 0)"/>
      </g>
     </g>
    </g>
    <g id="ytick_3">
     <g id="line2d_23">
      <path d="M 52.160938 182.344829 
L 568.8 182.344829 
" clip-path="url(#pb396166f5d)" style="fill: none; stroke-dasharray: 2.96,1.28; stroke-dashoffset: 0; stroke: #b0b0b0; stroke-opacity: 0.8; stroke-width: 0.8"/>
     </g>
     <g id="line2d_24">
      <g>
       <use xlink:href="#ma2916d5363" x="52.160938" y="182.344829" style="stroke: #000000; stroke-width: 0.8"/>
      </g>
     </g>
     <g id="text_13">
      <!-- −0.2 -->
      <g transform="translate(20.878125 186.144048) scale(0.1 -0.1)">
       <use xlink:href="#DejaVuSans-2212"/>
       <use xlink:href="#DejaVuSans-30" transform="translate(83.789062 0)"/>
       <use xlink:href="#DejaVuSans-2e" transform="translate(147.412109 0)"/>
       <use xlink:href="#DejaVuSans-32" transform="translate(179.199219 0)"/>
      </g>
     </g>
    </g>
    <g id="ytick_4">
     <g id="line2d_25">
      <path d="M 52.160938 154.23067 
L 568.8 154.23067 
" clip-path="url(#pb396166f5d)" style="fill: none; stroke-dasharray: 2.96,1.28; stroke-dashoffset: 0; stroke: #b0b0b0; stroke-opacity: 0.8; stroke-width: 0.8"/>
     </g>
     <g id="line2d_26">
      <g>
       <use xlink:href="#ma2916d5363" x="52.160938" y="154.23067" style="stroke: #000000; stroke-width: 0.8"/>
      </g>
     </g>
     <g id="text_14">
      <!-- −0.1 -->
      <g transform="translate(20.878125 158.029889) scale(0.1 -0.1)">
       <use xlink:href="#DejaVuSans-2212"/>
       <use xlink:href="#DejaVuSans-30" transform="translate(83.789062 0)"/>
       <use xlink:href="#DejaVuSans-2e" transform="translate(147.412109 0)"/>
       <use xlink:href="#DejaVuSans-31" transform="translate(179.199219 0)"/>
      </g>
     </g>
    </g>
    <g id="ytick_5">
     <g id="line2d_27">
      <path d="M 52.160938 126.116511 
L 568.8 126.116511 
" clip-path="url(#pb396166f5d)" style="fill: none; stroke-dasharray: 2.96,1.28; stroke-dashoffset: 0; stroke: #b0b0b0; stroke-opacity: 0.8; stroke-width: 0.8"/>
     </g>
     <g id="line2d_28">
      <g>
       <use xlink:href="#ma2916d5363" x="52.160938" y="126.116511" style="stroke: #000000; stroke-width: 0.8"/>
      </g>
     </g>
     <g id="text_15">
      <!-- 0.0 -->
      <g transform="translate(29.257812 129.91573) scale(0.1 -0.1)">
       <use xlink:href="#DejaVuSans-30"/>
       <use xlink:href="#DejaVuSans-2e" transform="translate(63.623047 0)"/>
       <use xlink:href="#DejaVuSans-30" transform="translate(95.410156 0)"/>
      </g>
     </g>
    </g>
    <g id="ytick_6">
     <g id="line2d_29">
      <path d="M 52.160938 98.002353 
L 568.8 98.002353 
" clip-path="url(#pb396166f5d)" style="fill: none; stroke-dasharray: 2.96,1.28; stroke-dashoffset: 0; stroke: #b0b0b0; stroke-opacity: 0.8; stroke-width: 0.8"/>
     </g>
     <g id="line2d_30">
      <g>
       <use xlink:href="#ma2916d5363" x="52.160938" y="98.002353" style="stroke: #000000; stroke-width: 0.8"/>
      </g>
     </g>
     <g id="text_16">
      <!-- 0.1 -->
      <g transform="translate(29.257812 101.801572) scale(0.1 -0.1)">
       <use xlink:href="#DejaVuSans-30"/>
       <use xlink:href="#DejaVuSans-2e" transform="translate(63.623047 0)"/>
       <use xlink:href="#DejaVuSans-31" transform="translate(95.410156 0)"/>
      </g>
     </g>
    </g>
    <g id="ytick_7">
     <g id="line2d_31">
      <path d="M 52.160938 69.888194 
L 568.8 69.888194 
" clip-path="url(#pb396166f5d)" style="fill: none; stroke-dasharray: 2.96,1.28; stroke-dashoffset: 0; stroke: #b0b0b0; stroke-opacity: 0.8; stroke-width: 0.8"/>
     </g>
     <g id="line2d_32">
      <g>
       <use xlink:href="#ma2916d5363" x="52.160938" y="69.888194" style="stroke: #000000; stroke-width: 0.8"/>
      </g>
     </g>
     <g id="text_17">
      <!-- 0.2 -->
      <g transform="translate(29.257812 73.687413) scale(0.1 -0.1)">
       <use xlink:href="#DejaVuSans-30"/>
       <use xlink:href="#DejaVuSans-2e" transform="translate(63.623047 0)"/>
       <use xlink:href="#DejaVuSans-32" transform="translate(95.410156 0)"/>
      </g>
     </g>
    </g>
    <g id="ytick_8">
     <g id="line2d_33">
      <path d="M 52.160938 41.774035 
L 568.8 41.774035 
" clip-path="url(#pb396166f5d)" style="fill: none; stroke-dasharray: 2.96,1.28; stroke-dashoffset: 0; stroke: #b0b0b0; stroke-opacity: 0.8; stroke-width: 0.8"/>
     </g>
     <g id="line2d_34">
      <g>
       <use xlink:href="#ma2916d5363" x="52.160938" y="41.774035" style="stroke: #000000; stroke-width: 0.8"/>
      </g>
     </g>
     <g id="text_18">
      <!-- 0.3 -->
      <g transform="translate(29.257812 45.573254) scale(0.1 -0.1)">
       <use xlink:href="#DejaVuSans-30"/>
       <use xlink:href="#DejaVuSans-2e" transform="translate(63.623047 0)"/>
       <use xlink:href="#DejaVuSans-33" transform="translate(95.410156 0)"/>
      </g>
     </g>
    </g>
    <g id="ytick_9">
     <g id="line2d_35">
      <path d="M 52.160938 13.659877 
L 568.8 13.659877 
" clip-path="url(#pb396166f5d)" style="fill: none; stroke-dasharray: 2.96,1.28; stroke-dashoffset: 0; stroke: #b0b0b0; stroke-opacity: 0.8; stroke-width: 0.8"/>
     </g>
     <g id="line2d_36">
      <g>
       <use xlink:href="#ma2916d5363" x="52.160938" y="13.659877" style="stroke: #000000; stroke-width: 0.8"/>
      </g>
     </g>
     <g id="text_19">
      <!-- 0.4 -->
      <g transform="translate(29.257812 17.459095) scale(0.1 -0.1)">
       <use xlink:href="#DejaVuSans-30"/>
       <use xlink:href="#DejaVuSans-2e" transform="translate(63.623047 0)"/>
       <use xlink:href="#DejaVuSans-34" transform="translate(95.410156 0)"/>
      </g>
     </g>
    </g>
    <g id="text_20">
     <!-- Amplitude -->
     <g transform="translate(14.798437 154.433594) rotate(-90) scale(0.1 -0.1)">
      <defs>
       <path id="DejaVuSans-41" d="M 2188 4044 
L 1331 1722 
L 3047 1722 
L 2188 4044 
z
M 1831 4666 
L 2547 4666 
L 4325 0 
L 3669 0 
L 3244 1197 
L 1141 1197 
L 716 0 
L 50 0 
L 1831 4666 
z
" transform="scale(0.015625)"/>
       <path id="DejaVuSans-69" d="M 603 3500 
L 1178 3500 
L 1178 0 
L 603 0 
L 603 3500 
z
M 603 4863 
L 1178 4863 
L 1178 4134 
L 603 4134 
L 603 4863 
z
" transform="scale(0.015625)"/>
       <path id="DejaVuSans-74" d="M 1172 4494 
L 1172 3500 
L 2356 3500 
L 2356 3053 
L 1172 3053 
L 1172 1153 
Q 1172 725 1289 603 
Q 1406 481 1766 481 
L 2356 481 
L 2356 0 
L 1766 0 
Q 1100 0 847 248 
Q 594 497 594 1153 
L 594 3053 
L 172 3053 
L 172 3500 
L 594 3500 
L 594 4494 
L 1172 4494 
z
" transform="scale(0.015625)"/>
       <path id="DejaVuSans-75" d="M 544 1381 
L 544 3500 
L 1119 3500 
L 1119 1403 
Q 1119 906 1312 657 
Q 1506 409 1894 409 
Q 2359 409 2629 706 
Q 2900 1003 2900 1516 
L 2900 3500 
L 3475 3500 
L 3475 0 
L 2900 0 
L 2900 538 
Q 2691 219 2414 64 
Q 2138 -91 1772 -91 
Q 1169 -91 856 284 
Q 544 659 544 1381 
z
M 1991 3584 
L 1991 3584 
z
" transform="scale(0.015625)"/>
       <path id="DejaVuSans-64" d="M 2906 2969 
L 2906 4863 
L 3481 4863 
L 3481 0 
L 2906 0 
L 2906 525 
Q 2725 213 2448 61 
Q 2172 -91 1784 -91 
Q 1150 -91 751 415 
Q 353 922 353 1747 
Q 353 2572 751 3078 
Q 1150 3584 1784 3584 
Q 2172 3584 2448 3432 
Q 2725 3281 2906 2969 
z
M 947 1747 
Q 947 1113 1208 752 
Q 1469 391 1925 391 
Q 2381 391 2643 752 
Q 2906 1113 2906 1747 
Q 2906 2381 2643 2742 
Q 2381 3103 1925 3103 
Q 1469 3103 1208 2742 
Q 947 2381 947 1747 
z
" transform="scale(0.015625)"/>
      </defs>
      <use xlink:href="#DejaVuSans-41"/>
      <use xlink:href="#DejaVuSans-6d" transform="translate(68.408203 0)"/>
      <use xlink:href="#DejaVuSans-70" transform="translate(165.820312 0)"/>
      <use xlink:href="#DejaVuSans-6c" transform="translate(229.296875 0)"/>
      <use xlink:href="#DejaVuSans-69" transform="translate(257.080078 0)"/>
      <use xlink:href="#DejaVuSans-74" transform="translate(284.863281 0)"/>
      <use xlink:href="#DejaVuSans-75" transform="translate(324.072266 0)"/>
      <use xlink:href="#DejaVuSans-64" transform="translate(387.451172 0)"/>
      <use xlink:href="#DejaVuSans-65" transform="translate(450.927734 0)"/>
     </g>
    </g>
   </g>
   <g id="line2d_37">
    <path d="M 75.644531 124.319909 
L 76.821654 168.01964 
L 77.998776 197.665627 
L 79.175899 219.577112 
L 80.353021 223.919882 
L 81.530144 221.633781 
L 82.707266 197.902724 
L 83.884389 164.38142 
L 86.238634 87.51108 
L 88.592879 34.257769 
L 89.770001 25.821742 
L 90.947124 36.955537 
L 92.124246 53.707353 
L 93.301369 76.805638 
L 94.478491 124.527515 
L 96.832736 192.208596 
L 98.009859 215.274088 
L 99.186981 226.668595 
L 100.364104 225.261004 
L 101.541226 198.74231 
L 102.718349 164.54849 
L 103.895471 123.104443 
L 105.072594 164.580245 
L 106.249716 195.9846 
L 107.426839 217.598772 
L 108.603961 230.730923 
L 109.781084 221.289974 
L 110.958206 191.713434 
L 112.135329 171.50098 
L 113.312451 124.827825 
L 114.489574 165.685189 
L 115.666696 198.694576 
L 116.843819 221.390647 
L 118.020941 228.764975 
L 119.198064 220.448773 
L 121.552309 169.477069 
L 122.729431 123.637091 
L 123.906553 91.401318 
L 125.083676 53.759239 
L 126.260798 33.577724 
L 127.437921 22.423059 
L 128.615043 28.417618 
L 129.792166 49.920047 
L 134.500656 202.6944 
L 135.677778 212.304672 
L 136.854901 224.925533 
L 138.032023 213.136435 
L 139.209146 199.234923 
L 143.917636 53.021689 
L 145.094758 30.215575 
L 146.271881 28.33942 
L 147.449003 36.77424 
L 148.626126 53.282531 
L 149.803248 94.715705 
L 150.980371 125.884938 
L 152.157493 84.994947 
L 153.334616 53.198613 
L 154.511738 35.338621 
L 155.688861 20.180994 
L 156.865983 32.444836 
L 159.220228 78.511399 
L 160.397351 131.872455 
L 162.751596 200.537253 
L 163.928718 222.793855 
L 165.105841 230.209396 
L 166.282963 221.832067 
L 167.460086 195.037758 
L 168.637208 172.654694 
L 169.814331 122.026549 
L 170.991453 166.852091 
L 172.168576 195.989008 
L 173.345698 211.522784 
L 174.522821 222.048951 
L 175.699943 221.492802 
L 176.877066 179.554364 
L 178.054188 166.01801 
L 179.231311 126.602129 
L 180.408433 82.508702 
L 181.585556 52.304893 
L 182.762678 33.156134 
L 183.939801 28.400502 
L 185.116923 38.386628 
L 186.294046 52.657518 
L 187.471168 84.394751 
L 188.648291 127.695239 
L 189.825413 164.676852 
L 192.179658 224.190256 
L 193.356781 225.150613 
L 194.533903 218.09528 
L 195.711026 194.654897 
L 198.065271 124.389015 
L 199.242393 167.853091 
L 201.596638 229.606899 
L 202.773761 226.170864 
L 203.950883 219.743932 
L 205.128006 195.709515 
L 206.305128 160.91794 
L 207.482251 131.107287 
L 208.659373 88.090199 
L 211.013618 33.241204 
L 212.190741 22.430109 
L 213.367863 38.094714 
L 214.544986 61.897605 
L 216.89923 125.496781 
L 218.076353 90.066953 
L 219.253475 60.925638 
L 220.430598 40.716628 
L 221.60772 24.478759 
L 222.784843 29.688004 
L 223.961965 49.689656 
L 225.139088 78.310158 
L 226.31621 125.55885 
L 228.670455 60.116276 
L 229.847578 35.596458 
L 231.0247 30.603793 
L 232.201823 35.327699 
L 233.378945 56.576297 
L 234.556068 87.588075 
L 236.910313 172.230449 
L 239.264558 222.028481 
L 240.44168 233.789433 
L 241.618803 223.736845 
L 242.795925 204.43518 
L 243.973048 165.646083 
L 245.15017 130.757861 
L 247.504415 194.444981 
L 249.85866 225.479357 
L 251.035783 221.082828 
L 252.212905 201.213408 
L 253.390028 163.324553 
L 254.56715 120.023251 
L 255.744273 93.067828 
L 256.921395 53.75552 
L 258.098518 26.848507 
L 259.27564 26.503993 
L 260.452763 46.765925 
L 261.629885 53.183368 
L 265.161253 169.188671 
L 267.515498 219.988909 
L 268.69262 220.759568 
L 269.869743 222.192996 
L 271.046865 204.287488 
L 272.223988 154.855899 
L 273.40111 130.511178 
L 274.578233 168.224687 
L 275.755355 187.002124 
L 276.932478 212.454638 
L 278.1096 227.139484 
L 279.286723 219.36705 
L 280.463845 194.256138 
L 282.81809 131.987853 
L 283.995213 164.587917 
L 285.172335 203.315122 
L 286.349458 210.755113 
L 287.52658 228.487885 
L 288.703703 218.770807 
L 289.880825 199.638622 
L 291.057948 166.648918 
L 292.23507 123.842998 
L 294.589315 200.781765 
L 295.766438 212.774561 
L 296.94356 230.230983 
L 298.120683 212.261562 
L 299.297805 199.408735 
L 301.65205 120.999655 
L 304.006295 199.790842 
L 305.183418 215.231804 
L 306.36054 228.320434 
L 307.537663 221.968395 
L 309.891908 162.512198 
L 311.06903 125.096482 
L 312.246152 170.162058 
L 313.423275 198.007777 
L 314.600397 220.562295 
L 315.77752 228.424978 
L 316.954642 216.953924 
L 318.131765 195.979041 
L 319.308887 164.454865 
L 320.48601 119.920474 
L 321.663132 163.338785 
L 322.840255 198.412375 
L 324.017377 218.435424 
L 325.1945 229.059334 
L 326.371622 215.905861 
L 327.548745 204.717496 
L 328.725867 161.606386 
L 331.080112 88.996757 
L 333.434357 33.084068 
L 334.61148 24.775124 
L 335.788602 47.0897 
L 336.965725 57.188558 
L 339.31997 126.579474 
L 340.497092 88.132541 
L 341.674215 59.936601 
L 342.851337 35.023667 
L 344.02846 30.313051 
L 345.205582 30.605253 
L 346.382705 51.650212 
L 347.559827 85.061977 
L 348.73695 129.969957 
L 349.914072 167.044964 
L 351.091195 190.878428 
L 352.268317 219.233665 
L 353.44544 230.400065 
L 354.622562 217.614239 
L 355.799685 202.176065 
L 356.976807 154.734907 
L 358.15393 129.095607 
L 359.331052 93.275608 
L 360.508175 53.895935 
L 361.685297 42.989136 
L 362.86242 27.589954 
L 364.039542 35.915043 
L 365.216665 55.192276 
L 366.393787 86.164484 
L 367.57091 125.630788 
L 369.925155 55.954515 
L 371.102277 30.38026 
L 372.2794 31.290569 
L 373.456522 38.461639 
L 374.633645 60.199018 
L 375.810767 87.61685 
L 376.98789 124.214913 
L 379.342135 59.969129 
L 380.519257 29.913465 
L 381.69638 26.214387 
L 382.873502 37.059603 
L 384.050625 54.839197 
L 386.40487 127.119194 
L 387.581992 79.788711 
L 388.759115 59.015652 
L 389.936237 35.129806 
L 391.11336 21.424415 
L 392.290482 33.333032 
L 393.467605 50.670384 
L 394.644727 85.152412 
L 395.82185 125.182572 
L 398.176095 50.287924 
L 400.53034 24.753377 
L 401.707462 40.907648 
L 402.884585 51.586311 
L 404.061707 78.316474 
L 405.238829 118.569047 
L 406.415952 169.213126 
L 407.593074 187.61914 
L 408.770197 215.365899 
L 409.947319 229.748987 
L 411.124442 219.480214 
L 412.301564 201.542895 
L 413.478687 164.037902 
L 414.655809 130.710474 
L 417.010054 58.299023 
L 418.187177 31.17538 
L 419.364299 29.508863 
L 420.541422 28.774429 
L 421.718544 53.854406 
L 422.895667 85.215849 
L 424.072789 125.713489 
L 425.249912 155.385729 
L 426.427034 194.334804 
L 427.604157 216.990561 
L 428.781279 220.199498 
L 429.958402 219.12447 
L 431.135524 204.618483 
L 432.312647 163.485414 
L 433.489769 131.618559 
L 434.666892 84.251332 
L 435.844014 53.952807 
L 437.021137 44.045204 
L 438.198259 28.343666 
L 439.375382 25.139875 
L 440.552504 56.01812 
L 441.729627 82.628909 
L 442.906749 130.514905 
L 444.083872 90.182007 
L 445.260994 56.537266 
L 446.438117 38.854593 
L 447.615239 32.093684 
L 448.792362 34.230511 
L 449.969484 51.9498 
L 451.146607 81.156614 
L 452.323729 126.631634 
L 453.500852 165.050863 
L 454.677974 198.092317 
L 455.855097 222.239644 
L 458.209342 220.1306 
L 459.386464 198.640948 
L 460.563587 162.126873 
L 461.740709 130.299732 
L 464.094954 196.767366 
L 465.272077 223.124103 
L 466.449199 220.18535 
L 467.626322 215.63514 
L 468.803444 197.048382 
L 471.157689 124.895589 
L 473.511934 195.582442 
L 474.689057 211.968348 
L 475.866179 222.53794 
L 477.043302 218.731067 
L 478.220424 201.175481 
L 479.397547 165.640903 
L 480.574669 116.051138 
L 481.751792 165.760311 
L 482.928914 201.780205 
L 484.106037 214.498553 
L 485.283159 231.132221 
L 486.460282 222.102172 
L 487.637404 199.089263 
L 488.814527 168.148398 
L 491.168772 86.09802 
L 492.345894 65.596014 
L 493.523017 38.371378 
L 494.700139 24.842739 
L 495.877262 35.642752 
L 498.231507 90.073782 
L 499.408629 135.072725 
L 501.762874 198.314642 
L 504.117119 229.332666 
L 505.294241 215.474457 
L 506.471364 190.998707 
L 507.648486 174.788119 
L 510.002731 82.941848 
L 511.179854 49.152515 
L 512.356976 34.581359 
L 513.534099 27.661313 
L 514.711221 47.796075 
L 515.888344 64.602176 
L 517.065466 87.304794 
L 518.242589 121.506007 
L 519.419711 87.299665 
L 521.773956 31.533642 
L 522.951079 29.084195 
L 524.128201 36.187311 
L 525.305324 52.888615 
L 526.482446 89.056528 
L 527.659569 130.703116 
L 528.836691 166.72354 
L 530.013814 188.355305 
L 531.190936 228.63858 
L 532.368059 227.554495 
L 533.545181 218.487811 
L 534.722304 199.66732 
L 535.899426 156.617063 
L 537.076549 121.694593 
L 538.253671 91.538636 
L 539.430794 52.874343 
L 540.607916 32.440943 
L 541.785039 27.26489 
L 542.962161 18.25554 
L 545.316406 91.05399 
L 545.316406 91.05399 
" clip-path="url(#pb396166f5d)" style="fill: none; stroke: #1f77b4; stroke-linecap: square"/>
   </g>
   <g id="line2d_38">
    <path d="M 75.644531 133.184968 
L 76.821654 129.607215 
L 77.998776 124.582669 
L 79.175899 120.990751 
L 80.353021 130.019882 
L 81.530144 91.534784 
L 82.707266 58.023149 
L 83.884389 28.572478 
L 85.061511 23.287256 
L 86.238634 32.540119 
L 87.415756 53.845542 
L 88.592879 82.176169 
L 90.947124 168.261378 
L 93.301369 220.232823 
L 94.478491 222.369713 
L 95.655614 223.152557 
L 96.832736 194.985958 
L 99.186981 120.937066 
L 100.364104 165.280716 
L 101.541226 198.005555 
L 102.718349 218.82403 
L 103.895471 227.753167 
L 105.072594 221.351513 
L 106.249716 193.883657 
L 107.426839 162.672419 
L 108.603961 126.075856 
L 110.958206 195.741592 
L 112.135329 214.484245 
L 113.312451 225.71931 
L 114.489574 222.374165 
L 116.843819 158.644252 
L 118.020941 133.306295 
L 119.198064 171.873507 
L 120.375186 199.52104 
L 121.552309 222.560067 
L 122.729431 236.742079 
L 123.906553 210.124826 
L 125.083676 199.192254 
L 126.260798 166.986791 
L 127.437921 127.78326 
L 129.792166 198.186468 
L 130.969288 213.75921 
L 132.146411 223.693905 
L 133.323533 216.189743 
L 134.500656 189.546961 
L 135.677778 167.101512 
L 136.854901 122.056658 
L 138.032023 82.104386 
L 140.386268 24.550851 
L 141.563391 30.783227 
L 142.740513 31.532156 
L 146.271881 123.30545 
L 147.449003 86.282491 
L 149.803248 31.442071 
L 150.980371 35.239734 
L 152.157493 33.646331 
L 154.511738 92.875296 
L 155.688861 129.23736 
L 158.043106 56.58167 
L 159.220228 40.697285 
L 161.574473 25.27422 
L 162.751596 49.225367 
L 163.928718 89.601706 
L 165.105841 121.882456 
L 166.282963 94.568835 
L 167.460086 55.096514 
L 168.637208 27.852644 
L 169.814331 18.496085 
L 170.991453 36.386836 
L 172.168576 59.167264 
L 173.345698 85.34028 
L 174.522821 127.562199 
L 176.877066 57.978712 
L 178.054188 37.317986 
L 179.231311 21.373999 
L 181.585556 53.701066 
L 185.116923 165.931718 
L 187.471168 224.134023 
L 188.648291 229.932307 
L 189.825413 228.064822 
L 192.179658 168.767532 
L 194.533903 84.299745 
L 195.711026 57.288206 
L 196.888148 35.775758 
L 198.065271 19.594704 
L 199.242393 27.520366 
L 200.419516 53.804225 
L 201.596638 92.115292 
L 202.773761 125.530524 
L 205.128006 201.353824 
L 206.305128 217.199496 
L 207.482251 223.38499 
L 208.659373 216.691066 
L 209.836496 196.743033 
L 211.013618 162.493352 
L 212.190741 134.965714 
L 214.544986 189.560997 
L 215.722108 211.031167 
L 216.89923 225.253476 
L 218.076353 218.366882 
L 219.253475 189.41092 
L 221.60772 128.017092 
L 222.784843 160.081578 
L 223.961965 196.730508 
L 225.139088 216.363081 
L 226.31621 239.366335 
L 227.493333 219.710038 
L 228.670455 188.533187 
L 229.847578 170.437332 
L 231.0247 124.524444 
L 232.201823 163.929019 
L 233.378945 199.318519 
L 234.556068 221.357118 
L 235.73319 227.587233 
L 236.910313 217.914878 
L 238.087435 195.932928 
L 239.264558 168.736133 
L 240.44168 129.843135 
L 241.618803 160.862105 
L 242.795925 196.060375 
L 243.973048 214.503029 
L 245.15017 228.300958 
L 246.327293 216.021061 
L 247.504415 195.364971 
L 248.681538 163.389991 
L 249.85866 120.747633 
L 251.035783 83.173204 
L 252.212905 57.506776 
L 253.390028 43.775262 
L 254.56715 20.574256 
L 255.744273 32.228093 
L 258.098518 92.210607 
L 260.452763 160.278192 
L 261.629885 196.181028 
L 262.807008 219.968229 
L 263.98413 224.855658 
L 265.161253 228.165834 
L 266.338375 189.662451 
L 267.515498 164.079624 
L 269.869743 88.291875 
L 271.046865 57.784459 
L 272.223988 41.799434 
L 273.40111 30.109697 
L 274.578233 34.852462 
L 275.755355 55.535234 
L 276.932478 89.550803 
L 278.1096 119.779596 
L 279.286723 91.413991 
L 280.463845 56.183354 
L 281.640968 36.152252 
L 282.81809 29.13485 
L 283.995213 35.272375 
L 285.172335 57.316175 
L 286.349458 84.617424 
L 287.52658 123.345161 
L 288.703703 166.166192 
L 289.880825 195.638357 
L 291.057948 207.652968 
L 292.23507 223.324177 
L 293.412193 217.301119 
L 294.589315 187.903226 
L 295.766438 164.178359 
L 296.94356 119.437849 
L 298.120683 168.661863 
L 299.297805 191.352864 
L 300.474928 219.048147 
L 301.65205 228.172653 
L 302.829173 222.467521 
L 306.36054 135.026137 
L 308.714785 52.794089 
L 311.06903 23.361365 
L 312.246152 31.244155 
L 313.423275 54.902875 
L 314.600397 82.937186 
L 315.77752 120.691709 
L 316.954642 80.891093 
L 318.131765 55.178133 
L 319.308887 34.275549 
L 320.48601 21.542859 
L 321.663132 30.840067 
L 322.840255 55.894712 
L 324.017377 83.377764 
L 325.1945 132.575006 
L 327.548745 195.803839 
L 328.725867 219.537237 
L 329.90299 218.408245 
L 331.080112 214.378936 
L 332.257235 189.295244 
L 333.434357 171.767852 
L 334.61148 124.608237 
L 336.965725 200.50502 
L 338.142847 216.605103 
L 339.31997 226.858447 
L 340.497092 216.269987 
L 341.674215 196.639464 
L 344.02846 117.597466 
L 345.205582 165.714914 
L 347.559827 221.196039 
L 348.73695 224.20692 
L 349.914072 224.163033 
L 353.44544 133.195985 
L 354.622562 95.637261 
L 355.799685 51.475419 
L 356.976807 39.018865 
L 358.15393 30.872517 
L 359.331052 40.156967 
L 360.508175 57.261107 
L 362.86242 120.59838 
L 364.039542 167.937138 
L 365.216665 197.693636 
L 366.393787 219.271372 
L 367.57091 222.312363 
L 368.748032 215.567625 
L 369.925155 194.468818 
L 371.102277 164.514371 
L 372.2794 126.503253 
L 373.456522 164.40923 
L 374.633645 183.919496 
L 375.810767 221.584716 
L 376.98789 224.172988 
L 378.165012 215.954795 
L 379.342135 197.471173 
L 380.519257 170.501535 
L 381.69638 125.888954 
L 384.050625 199.090442 
L 385.227747 218.202775 
L 386.40487 226.046601 
L 387.581992 218.186226 
L 388.759115 204.677424 
L 389.936237 162.117775 
L 391.11336 127.016536 
L 392.290482 88.537088 
L 393.467605 59.503071 
L 394.644727 34.419062 
L 395.82185 22.723047 
L 396.998972 36.682989 
L 399.353217 90.099009 
L 400.53034 123.132008 
L 401.707462 80.813118 
L 402.884585 67.671697 
L 404.061707 32.762009 
L 405.238829 32.34749 
L 406.415952 41.406408 
L 407.593074 61.229733 
L 409.947319 124.294321 
L 411.124442 170.955468 
L 412.301564 204.091422 
L 413.478687 217.264709 
L 414.655809 226.057113 
L 415.832932 220.57501 
L 417.010054 195.94677 
L 418.187177 155.023701 
L 421.718544 59.864516 
L 422.895667 38.647363 
L 424.072789 29.702125 
L 425.249912 36.055006 
L 426.427034 50.519718 
L 427.604157 90.24953 
L 428.781279 122.363544 
L 429.958402 82.842634 
L 432.312647 36.543631 
L 433.489769 27.399357 
L 434.666892 40.363655 
L 435.844014 58.868672 
L 437.021137 89.139277 
L 440.552504 193.524065 
L 441.729627 213.492075 
L 442.906749 225.29572 
L 444.083872 217.650305 
L 445.260994 197.311882 
L 447.615239 120.897829 
L 448.792362 168.189982 
L 449.969484 197.941982 
L 451.146607 214.212902 
L 452.323729 217.301855 
L 453.500852 213.626386 
L 454.677974 194.402021 
L 455.855097 167.20205 
L 458.209342 93.596776 
L 459.386464 53.169314 
L 460.563587 46.519341 
L 461.740709 25.013731 
L 462.917832 30.395716 
L 464.094954 47.964059 
L 465.272077 79.664419 
L 466.449199 119.396279 
L 468.803444 69.297978 
L 469.980567 38.462616 
L 471.157689 29.467299 
L 472.334812 42.210854 
L 473.511934 56.205837 
L 474.689057 86.50905 
L 475.866179 122.248425 
L 478.220424 200.597113 
L 479.397547 219.759857 
L 480.574669 228.808191 
L 481.751792 227.496175 
L 482.928914 192.160072 
L 484.106037 173.36422 
L 485.283159 124.957351 
L 486.460282 162.405986 
L 488.814527 218.751547 
L 489.991649 228.997985 
L 491.168772 219.663852 
L 492.345894 193.50107 
L 494.700139 126.95275 
L 495.877262 164.584232 
L 497.054384 196.74482 
L 498.231507 212.742755 
L 499.408629 230.317473 
L 500.585751 224.713965 
L 504.117119 131.943477 
L 506.471364 198.010154 
L 507.648486 218.920894 
L 508.825609 230.948956 
L 510.002731 225.243914 
L 511.179854 206.073422 
L 512.356976 156.862183 
L 513.534099 122.979301 
L 515.888344 65.165356 
L 517.065466 37.951823 
L 518.242589 22.438321 
L 519.419711 31.637157 
L 520.596834 58.534329 
L 522.951079 123.817644 
L 524.128201 165.642492 
L 525.305324 196.701158 
L 526.482446 218.975271 
L 527.659569 226.044215 
L 530.013814 194.011868 
L 531.190936 167.087921 
L 533.545181 78.147883 
L 534.722304 55.584168 
L 535.899426 36.384256 
L 537.076549 29.724117 
L 538.253671 30.211296 
L 539.430794 54.751277 
L 540.607916 88.678467 
L 541.785039 128.35086 
L 542.962161 162.035441 
L 544.139284 192.530763 
L 545.316406 217.523796 
L 545.316406 217.523796 
" clip-path="url(#pb396166f5d)" style="fill: none; stroke: #ff7f0e; stroke-linecap: square"/>
   </g>
   <g id="patch_3">
    <path d="M 52.160938 250.421875 
L 52.160938 7.2 
" style="fill: none; stroke: #000000; stroke-width: 0.8; stroke-linejoin: miter; stroke-linecap: square"/>
   </g>
   <g id="patch_4">
    <path d="M 568.8 250.421875 
L 568.8 7.2 
" style="fill: none; stroke: #000000; stroke-width: 0.8; stroke-linejoin: miter; stroke-linecap: square"/>
   </g>
   <g id="patch_5">
    <path d="M 52.160937 250.421875 
L 568.8 250.421875 
" style="fill: none; stroke: #000000; stroke-width: 0.8; stroke-linejoin: miter; stroke-linecap: square"/>
   </g>
   <g id="patch_6">
    <path d="M 52.160937 7.2 
L 568.8 7.2 
" style="fill: none; stroke: #000000; stroke-width: 0.8; stroke-linejoin: miter; stroke-linecap: square"/>
   </g>
   <g id="legend_1">
    <g id="patch_7">
     <path d="M 59.160938 44.55625 
L 116.15625 44.55625 
Q 118.15625 44.55625 118.15625 42.55625 
L 118.15625 14.2 
Q 118.15625 12.2 116.15625 12.2 
L 59.160938 12.2 
Q 57.160938 12.2 57.160938 14.2 
L 57.160938 42.55625 
Q 57.160938 44.55625 59.160938 44.55625 
z
" style="fill: #ffffff; opacity: 0.8; stroke: #cccccc; stroke-linejoin: miter"/>
    </g>
    <g id="line2d_39">
     <path d="M 61.160938 20.298437 
L 71.160938 20.298437 
L 81.160938 20.298437 
" style="fill: none; stroke: #1f77b4; stroke-linecap: square"/>
    </g>
    <g id="text_21">
     <!-- real -->
     <g transform="translate(89.160938 23.798437) scale(0.1 -0.1)">
      <defs>
       <path id="DejaVuSans-72" d="M 2631 2963 
Q 2534 3019 2420 3045 
Q 2306 3072 2169 3072 
Q 1681 3072 1420 2755 
Q 1159 2438 1159 1844 
L 1159 0 
L 581 0 
L 581 3500 
L 1159 3500 
L 1159 2956 
Q 1341 3275 1631 3429 
Q 1922 3584 2338 3584 
Q 2397 3584 2469 3576 
Q 2541 3569 2628 3553 
L 2631 2963 
z
" transform="scale(0.015625)"/>
      </defs>
      <use xlink:href="#DejaVuSans-72"/>
      <use xlink:href="#DejaVuSans-65" transform="translate(38.863281 0)"/>
      <use xlink:href="#DejaVuSans-61" transform="translate(100.386719 0)"/>
      <use xlink:href="#DejaVuSans-6c" transform="translate(161.666016 0)"/>
     </g>
    </g>
    <g id="line2d_40">
     <path d="M 61.160938 34.976562 
L 71.160938 34.976562 
L 81.160938 34.976562 
" style="fill: none; stroke: #ff7f0e; stroke-linecap: square"/>
    </g>
    <g id="text_22">
     <!-- imag -->
     <g transform="translate(89.160938 38.476562) scale(0.1 -0.1)">
      <defs>
       <path id="DejaVuSans-67" d="M 2906 1791 
Q 2906 2416 2648 2759 
Q 2391 3103 1925 3103 
Q 1463 3103 1205 2759 
Q 947 2416 947 1791 
Q 947 1169 1205 825 
Q 1463 481 1925 481 
Q 2391 481 2648 825 
Q 2906 1169 2906 1791 
z
M 3481 434 
Q 3481 -459 3084 -895 
Q 2688 -1331 1869 -1331 
Q 1566 -1331 1297 -1286 
Q 1028 -1241 775 -1147 
L 775 -588 
Q 1028 -725 1275 -790 
Q 1522 -856 1778 -856 
Q 2344 -856 2625 -561 
Q 2906 -266 2906 331 
L 2906 616 
Q 2728 306 2450 153 
Q 2172 0 1784 0 
Q 1141 0 747 490 
Q 353 981 353 1791 
Q 353 2603 747 3093 
Q 1141 3584 1784 3584 
Q 2172 3584 2450 3431 
Q 2728 3278 2906 2969 
L 2906 3500 
L 3481 3500 
L 3481 434 
z
" transform="scale(0.015625)"/>
      </defs>
      <use xlink:href="#DejaVuSans-69"/>
      <use xlink:href="#DejaVuSans-6d" transform="translate(27.783203 0)"/>
      <use xlink:href="#DejaVuSans-61" transform="translate(125.195312 0)"/>
      <use xlink:href="#DejaVuSans-67" transform="translate(186.474609 0)"/>
     </g>
    </g>
   </g>
  </g>
 </g>
 <defs>
  <clipPath id="pb396166f5d">
   <rect x="52.160938" y="7.2" width="516.639063" height="243.221875"/>
  </clipPath>
 </defs>
</svg>
