<?xml version="1.0" encoding="utf-8" standalone="no"?>
<!DOCTYPE svg PUBLIC "-//W3C//DTD SVG 1.1//EN"
  "http://www.w3.org/Graphics/SVG/1.1/DTD/svg11.dtd">
<svg xmlns:xlink="http://www.w3.org/1999/xlink" width="576pt" height="288pt" viewBox="0 0 576 288" xmlns="http://www.w3.org/2000/svg" version="1.1">
 <metadata>
  <rdf:RDF xmlns:dc="http://purl.org/dc/elements/1.1/" xmlns:cc="http://creativecommons.org/ns#" xmlns:rdf="http://www.w3.org/1999/02/22-rdf-syntax-ns#">
   <cc:Work>
    <dc:type rdf:resource="http://purl.org/dc/dcmitype/StillImage"/>
    <dc:date>2025-05-10T16:14:28.618349</dc:date>
    <dc:format>image/svg+xml</dc:format>
    <dc:creator>
     <cc:Agent>
      <dc:title>Matplotlib v3.10.3, https://matplotlib.org/</dc:title>
     </cc:Agent>
    </dc:creator>
   </cc:Work>
  </rdf:RDF>
 </metadata>
 <defs>
  <style type="text/css">*{stroke-linejoin: round; stroke-linecap: butt}</style>
 </defs>
 <g id="figure_1">
  <g id="patch_1">
   <path d="M 0 288 
L 576 288 
L 576 0 
L 0 0 
z
" style="fill: #ffffff"/>
  </g>
  <g id="axes_1">
   <g id="patch_2">
    <path d="M 52.160938 250.421875 
L 568.8 250.421875 
L 568.8 7.2 
L 52.160938 7.2 
z
" style="fill: #ffffff"/>
   </g>
   <g id="matplotlib.axis_1">
    <g id="xtick_1">
     <g id="line2d_1">
      <path d="M 75.644531 250.421875 
L 75.644531 7.2 
" clip-path="url(#p26aa70254f)" style="fill: none; stroke-dasharray: 2.96,1.28; stroke-dashoffset: 0; stroke: #b0b0b0; stroke-opacity: 0.8; stroke-width: 0.8"/>
     </g>
     <g id="line2d_2">
      <defs>
       <path id="mbff87b10e1" d="M 0 0 
L 0 3.5 
" style="stroke: #000000; stroke-width: 0.8"/>
      </defs>
      <g>
       <use xlink:href="#mbff87b10e1" x="75.644531" y="250.421875" style="stroke: #000000; stroke-width: 0.8"/>
      </g>
     </g>
     <g id="text_1">
      <!-- 0 -->
      <g transform="translate(72.463281 265.020312) scale(0.1 -0.1)">
       <defs>
        <path id="DejaVuSans-30" d="M 2034 4250 
Q 1547 4250 1301 3770 
Q 1056 3291 1056 2328 
Q 1056 1369 1301 889 
Q 1547 409 2034 409 
Q 2525 409 2770 889 
Q 3016 1369 3016 2328 
Q 3016 3291 2770 3770 
Q 2525 4250 2034 4250 
z
M 2034 4750 
Q 2819 4750 3233 4129 
Q 3647 3509 3647 2328 
Q 3647 1150 3233 529 
Q 2819 -91 2034 -91 
Q 1250 -91 836 529 
Q 422 1150 422 2328 
Q 422 3509 836 4129 
Q 1250 4750 2034 4750 
z
" transform="scale(0.015625)"/>
       </defs>
       <use xlink:href="#DejaVuSans-30"/>
      </g>
     </g>
    </g>
    <g id="xtick_2">
     <g id="line2d_3">
      <path d="M 134.500656 250.421875 
L 134.500656 7.2 
" clip-path="url(#p26aa70254f)" style="fill: none; stroke-dasharray: 2.96,1.28; stroke-dashoffset: 0; stroke: #b0b0b0; stroke-opacity: 0.8; stroke-width: 0.8"/>
     </g>
     <g id="line2d_4">
      <g>
       <use xlink:href="#mbff87b10e1" x="134.500656" y="250.421875" style="stroke: #000000; stroke-width: 0.8"/>
      </g>
     </g>
     <g id="text_2">
      <!-- 50 -->
      <g transform="translate(128.138156 265.020312) scale(0.1 -0.1)">
       <defs>
        <path id="DejaVuSans-35" d="M 691 4666 
L 3169 4666 
L 3169 4134 
L 1269 4134 
L 1269 2991 
Q 1406 3038 1543 3061 
Q 1681 3084 1819 3084 
Q 2600 3084 3056 2656 
Q 3513 2228 3513 1497 
Q 3513 744 3044 326 
Q 2575 -91 1722 -91 
Q 1428 -91 1123 -41 
Q 819 9 494 109 
L 494 744 
Q 775 591 1075 516 
Q 1375 441 1709 441 
Q 2250 441 2565 725 
Q 2881 1009 2881 1497 
Q 2881 1984 2565 2268 
Q 2250 2553 1709 2553 
Q 1456 2553 1204 2497 
Q 953 2441 691 2322 
L 691 4666 
z
" transform="scale(0.015625)"/>
       </defs>
       <use xlink:href="#DejaVuSans-35"/>
       <use xlink:href="#DejaVuSans-30" transform="translate(63.623047 0)"/>
      </g>
     </g>
    </g>
    <g id="xtick_3">
     <g id="line2d_5">
      <path d="M 193.356781 250.421875 
L 193.356781 7.2 
" clip-path="url(#p26aa70254f)" style="fill: none; stroke-dasharray: 2.96,1.28; stroke-dashoffset: 0; stroke: #b0b0b0; stroke-opacity: 0.8; stroke-width: 0.8"/>
     </g>
     <g id="line2d_6">
      <g>
       <use xlink:href="#mbff87b10e1" x="193.356781" y="250.421875" style="stroke: #000000; stroke-width: 0.8"/>
      </g>
     </g>
     <g id="text_3">
      <!-- 100 -->
      <g transform="translate(183.813031 265.020312) scale(0.1 -0.1)">
       <defs>
        <path id="DejaVuSans-31" d="M 794 531 
L 1825 531 
L 1825 4091 
L 703 3866 
L 703 4441 
L 1819 4666 
L 2450 4666 
L 2450 531 
L 3481 531 
L 3481 0 
L 794 0 
L 794 531 
z
" transform="scale(0.015625)"/>
       </defs>
       <use xlink:href="#DejaVuSans-31"/>
       <use xlink:href="#DejaVuSans-30" transform="translate(63.623047 0)"/>
       <use xlink:href="#DejaVuSans-30" transform="translate(127.246094 0)"/>
      </g>
     </g>
    </g>
    <g id="xtick_4">
     <g id="line2d_7">
      <path d="M 252.212905 250.421875 
L 252.212905 7.2 
" clip-path="url(#p26aa70254f)" style="fill: none; stroke-dasharray: 2.96,1.28; stroke-dashoffset: 0; stroke: #b0b0b0; stroke-opacity: 0.8; stroke-width: 0.8"/>
     </g>
     <g id="line2d_8">
      <g>
       <use xlink:href="#mbff87b10e1" x="252.212905" y="250.421875" style="stroke: #000000; stroke-width: 0.8"/>
      </g>
     </g>
     <g id="text_4">
      <!-- 150 -->
      <g transform="translate(242.669155 265.020312) scale(0.1 -0.1)">
       <use xlink:href="#DejaVuSans-31"/>
       <use xlink:href="#DejaVuSans-35" transform="translate(63.623047 0)"/>
       <use xlink:href="#DejaVuSans-30" transform="translate(127.246094 0)"/>
      </g>
     </g>
    </g>
    <g id="xtick_5">
     <g id="line2d_9">
      <path d="M 311.06903 250.421875 
L 311.06903 7.2 
" clip-path="url(#p26aa70254f)" style="fill: none; stroke-dasharray: 2.96,1.28; stroke-dashoffset: 0; stroke: #b0b0b0; stroke-opacity: 0.8; stroke-width: 0.8"/>
     </g>
     <g id="line2d_10">
      <g>
       <use xlink:href="#mbff87b10e1" x="311.06903" y="250.421875" style="stroke: #000000; stroke-width: 0.8"/>
      </g>
     </g>
     <g id="text_5">
      <!-- 200 -->
      <g transform="translate(301.52528 265.020312) scale(0.1 -0.1)">
       <defs>
        <path id="DejaVuSans-32" d="M 1228 531 
L 3431 531 
L 3431 0 
L 469 0 
L 469 531 
Q 828 903 1448 1529 
Q 2069 2156 2228 2338 
Q 2531 2678 2651 2914 
Q 2772 3150 2772 3378 
Q 2772 3750 2511 3984 
Q 2250 4219 1831 4219 
Q 1534 4219 1204 4116 
Q 875 4013 500 3803 
L 500 4441 
Q 881 4594 1212 4672 
Q 1544 4750 1819 4750 
Q 2544 4750 2975 4387 
Q 3406 4025 3406 3419 
Q 3406 3131 3298 2873 
Q 3191 2616 2906 2266 
Q 2828 2175 2409 1742 
Q 1991 1309 1228 531 
z
" transform="scale(0.015625)"/>
       </defs>
       <use xlink:href="#DejaVuSans-32"/>
       <use xlink:href="#DejaVuSans-30" transform="translate(63.623047 0)"/>
       <use xlink:href="#DejaVuSans-30" transform="translate(127.246094 0)"/>
      </g>
     </g>
    </g>
    <g id="xtick_6">
     <g id="line2d_11">
      <path d="M 369.925155 250.421875 
L 369.925155 7.2 
" clip-path="url(#p26aa70254f)" style="fill: none; stroke-dasharray: 2.96,1.28; stroke-dashoffset: 0; stroke: #b0b0b0; stroke-opacity: 0.8; stroke-width: 0.8"/>
     </g>
     <g id="line2d_12">
      <g>
       <use xlink:href="#mbff87b10e1" x="369.925155" y="250.421875" style="stroke: #000000; stroke-width: 0.8"/>
      </g>
     </g>
     <g id="text_6">
      <!-- 250 -->
      <g transform="translate(360.381405 265.020312) scale(0.1 -0.1)">
       <use xlink:href="#DejaVuSans-32"/>
       <use xlink:href="#DejaVuSans-35" transform="translate(63.623047 0)"/>
       <use xlink:href="#DejaVuSans-30" transform="translate(127.246094 0)"/>
      </g>
     </g>
    </g>
    <g id="xtick_7">
     <g id="line2d_13">
      <path d="M 428.781279 250.421875 
L 428.781279 7.2 
" clip-path="url(#p26aa70254f)" style="fill: none; stroke-dasharray: 2.96,1.28; stroke-dashoffset: 0; stroke: #b0b0b0; stroke-opacity: 0.8; stroke-width: 0.8"/>
     </g>
     <g id="line2d_14">
      <g>
       <use xlink:href="#mbff87b10e1" x="428.781279" y="250.421875" style="stroke: #000000; stroke-width: 0.8"/>
      </g>
     </g>
     <g id="text_7">
      <!-- 300 -->
      <g transform="translate(419.237529 265.020312) scale(0.1 -0.1)">
       <defs>
        <path id="DejaVuSans-33" d="M 2597 2516 
Q 3050 2419 3304 2112 
Q 3559 1806 3559 1356 
Q 3559 666 3084 287 
Q 2609 -91 1734 -91 
Q 1441 -91 1130 -33 
Q 819 25 488 141 
L 488 750 
Q 750 597 1062 519 
Q 1375 441 1716 441 
Q 2309 441 2620 675 
Q 2931 909 2931 1356 
Q 2931 1769 2642 2001 
Q 2353 2234 1838 2234 
L 1294 2234 
L 1294 2753 
L 1863 2753 
Q 2328 2753 2575 2939 
Q 2822 3125 2822 3475 
Q 2822 3834 2567 4026 
Q 2313 4219 1838 4219 
Q 1578 4219 1281 4162 
Q 984 4106 628 3988 
L 628 4550 
Q 988 4650 1302 4700 
Q 1616 4750 1894 4750 
Q 2613 4750 3031 4423 
Q 3450 4097 3450 3541 
Q 3450 3153 3228 2886 
Q 3006 2619 2597 2516 
z
" transform="scale(0.015625)"/>
       </defs>
       <use xlink:href="#DejaVuSans-33"/>
       <use xlink:href="#DejaVuSans-30" transform="translate(63.623047 0)"/>
       <use xlink:href="#DejaVuSans-30" transform="translate(127.246094 0)"/>
      </g>
     </g>
    </g>
    <g id="xtick_8">
     <g id="line2d_15">
      <path d="M 487.637404 250.421875 
L 487.637404 7.2 
" clip-path="url(#p26aa70254f)" style="fill: none; stroke-dasharray: 2.96,1.28; stroke-dashoffset: 0; stroke: #b0b0b0; stroke-opacity: 0.8; stroke-width: 0.8"/>
     </g>
     <g id="line2d_16">
      <g>
       <use xlink:href="#mbff87b10e1" x="487.637404" y="250.421875" style="stroke: #000000; stroke-width: 0.8"/>
      </g>
     </g>
     <g id="text_8">
      <!-- 350 -->
      <g transform="translate(478.093654 265.020312) scale(0.1 -0.1)">
       <use xlink:href="#DejaVuSans-33"/>
       <use xlink:href="#DejaVuSans-35" transform="translate(63.623047 0)"/>
       <use xlink:href="#DejaVuSans-30" transform="translate(127.246094 0)"/>
      </g>
     </g>
    </g>
    <g id="xtick_9">
     <g id="line2d_17">
      <path d="M 546.493529 250.421875 
L 546.493529 7.2 
" clip-path="url(#p26aa70254f)" style="fill: none; stroke-dasharray: 2.96,1.28; stroke-dashoffset: 0; stroke: #b0b0b0; stroke-opacity: 0.8; stroke-width: 0.8"/>
     </g>
     <g id="line2d_18">
      <g>
       <use xlink:href="#mbff87b10e1" x="546.493529" y="250.421875" style="stroke: #000000; stroke-width: 0.8"/>
      </g>
     </g>
     <g id="text_9">
      <!-- 400 -->
      <g transform="translate(536.949779 265.020312) scale(0.1 -0.1)">
       <defs>
        <path id="DejaVuSans-34" d="M 2419 4116 
L 825 1625 
L 2419 1625 
L 2419 4116 
z
M 2253 4666 
L 3047 4666 
L 3047 1625 
L 3713 1625 
L 3713 1100 
L 3047 1100 
L 3047 0 
L 2419 0 
L 2419 1100 
L 313 1100 
L 313 1709 
L 2253 4666 
z
" transform="scale(0.015625)"/>
       </defs>
       <use xlink:href="#DejaVuSans-34"/>
       <use xlink:href="#DejaVuSans-30" transform="translate(63.623047 0)"/>
       <use xlink:href="#DejaVuSans-30" transform="translate(127.246094 0)"/>
      </g>
     </g>
    </g>
    <g id="text_10">
     <!-- Sample, $n$ -->
     <g transform="translate(285.380469 278.7) scale(0.1 -0.1)">
      <defs>
       <path id="DejaVuSans-53" d="M 3425 4513 
L 3425 3897 
Q 3066 4069 2747 4153 
Q 2428 4238 2131 4238 
Q 1616 4238 1336 4038 
Q 1056 3838 1056 3469 
Q 1056 3159 1242 3001 
Q 1428 2844 1947 2747 
L 2328 2669 
Q 3034 2534 3370 2195 
Q 3706 1856 3706 1288 
Q 3706 609 3251 259 
Q 2797 -91 1919 -91 
Q 1588 -91 1214 -16 
Q 841 59 441 206 
L 441 856 
Q 825 641 1194 531 
Q 1563 422 1919 422 
Q 2459 422 2753 634 
Q 3047 847 3047 1241 
Q 3047 1584 2836 1778 
Q 2625 1972 2144 2069 
L 1759 2144 
Q 1053 2284 737 2584 
Q 422 2884 422 3419 
Q 422 4038 858 4394 
Q 1294 4750 2059 4750 
Q 2388 4750 2728 4690 
Q 3069 4631 3425 4513 
z
" transform="scale(0.015625)"/>
       <path id="DejaVuSans-61" d="M 2194 1759 
Q 1497 1759 1228 1600 
Q 959 1441 959 1056 
Q 959 750 1161 570 
Q 1363 391 1709 391 
Q 2188 391 2477 730 
Q 2766 1069 2766 1631 
L 2766 1759 
L 2194 1759 
z
M 3341 1997 
L 3341 0 
L 2766 0 
L 2766 531 
Q 2569 213 2275 61 
Q 1981 -91 1556 -91 
Q 1019 -91 701 211 
Q 384 513 384 1019 
Q 384 1609 779 1909 
Q 1175 2209 1959 2209 
L 2766 2209 
L 2766 2266 
Q 2766 2663 2505 2880 
Q 2244 3097 1772 3097 
Q 1472 3097 1187 3025 
Q 903 2953 641 2809 
L 641 3341 
Q 956 3463 1253 3523 
Q 1550 3584 1831 3584 
Q 2591 3584 2966 3190 
Q 3341 2797 3341 1997 
z
" transform="scale(0.015625)"/>
       <path id="DejaVuSans-6d" d="M 3328 2828 
Q 3544 3216 3844 3400 
Q 4144 3584 4550 3584 
Q 5097 3584 5394 3201 
Q 5691 2819 5691 2113 
L 5691 0 
L 5113 0 
L 5113 2094 
Q 5113 2597 4934 2840 
Q 4756 3084 4391 3084 
Q 3944 3084 3684 2787 
Q 3425 2491 3425 1978 
L 3425 0 
L 2847 0 
L 2847 2094 
Q 2847 2600 2669 2842 
Q 2491 3084 2119 3084 
Q 1678 3084 1418 2786 
Q 1159 2488 1159 1978 
L 1159 0 
L 581 0 
L 581 3500 
L 1159 3500 
L 1159 2956 
Q 1356 3278 1631 3431 
Q 1906 3584 2284 3584 
Q 2666 3584 2933 3390 
Q 3200 3197 3328 2828 
z
" transform="scale(0.015625)"/>
       <path id="DejaVuSans-70" d="M 1159 525 
L 1159 -1331 
L 581 -1331 
L 581 3500 
L 1159 3500 
L 1159 2969 
Q 1341 3281 1617 3432 
Q 1894 3584 2278 3584 
Q 2916 3584 3314 3078 
Q 3713 2572 3713 1747 
Q 3713 922 3314 415 
Q 2916 -91 2278 -91 
Q 1894 -91 1617 61 
Q 1341 213 1159 525 
z
M 3116 1747 
Q 3116 2381 2855 2742 
Q 2594 3103 2138 3103 
Q 1681 3103 1420 2742 
Q 1159 2381 1159 1747 
Q 1159 1113 1420 752 
Q 1681 391 2138 391 
Q 2594 391 2855 752 
Q 3116 1113 3116 1747 
z
" transform="scale(0.015625)"/>
       <path id="DejaVuSans-6c" d="M 603 4863 
L 1178 4863 
L 1178 0 
L 603 0 
L 603 4863 
z
" transform="scale(0.015625)"/>
       <path id="DejaVuSans-65" d="M 3597 1894 
L 3597 1613 
L 953 1613 
Q 991 1019 1311 708 
Q 1631 397 2203 397 
Q 2534 397 2845 478 
Q 3156 559 3463 722 
L 3463 178 
Q 3153 47 2828 -22 
Q 2503 -91 2169 -91 
Q 1331 -91 842 396 
Q 353 884 353 1716 
Q 353 2575 817 3079 
Q 1281 3584 2069 3584 
Q 2775 3584 3186 3129 
Q 3597 2675 3597 1894 
z
M 3022 2063 
Q 3016 2534 2758 2815 
Q 2500 3097 2075 3097 
Q 1594 3097 1305 2825 
Q 1016 2553 972 2059 
L 3022 2063 
z
" transform="scale(0.015625)"/>
       <path id="DejaVuSans-2c" d="M 750 794 
L 1409 794 
L 1409 256 
L 897 -744 
L 494 -744 
L 750 256 
L 750 794 
z
" transform="scale(0.015625)"/>
       <path id="DejaVuSans-20" transform="scale(0.015625)"/>
       <path id="DejaVuSans-Oblique-6e" d="M 3566 2113 
L 3156 0 
L 2578 0 
L 2988 2091 
Q 3016 2238 3031 2350 
Q 3047 2463 3047 2528 
Q 3047 2791 2881 2937 
Q 2716 3084 2419 3084 
Q 1956 3084 1622 2776 
Q 1288 2469 1184 1941 
L 800 0 
L 225 0 
L 903 3500 
L 1478 3500 
L 1363 2950 
Q 1603 3253 1940 3418 
Q 2278 3584 2650 3584 
Q 3113 3584 3367 3334 
Q 3622 3084 3622 2631 
Q 3622 2519 3608 2391 
Q 3594 2263 3566 2113 
z
" transform="scale(0.015625)"/>
      </defs>
      <use xlink:href="#DejaVuSans-53" transform="translate(0 0.015625)"/>
      <use xlink:href="#DejaVuSans-61" transform="translate(63.476562 0.015625)"/>
      <use xlink:href="#DejaVuSans-6d" transform="translate(124.755859 0.015625)"/>
      <use xlink:href="#DejaVuSans-70" transform="translate(222.167969 0.015625)"/>
      <use xlink:href="#DejaVuSans-6c" transform="translate(285.644531 0.015625)"/>
      <use xlink:href="#DejaVuSans-65" transform="translate(313.427734 0.015625)"/>
      <use xlink:href="#DejaVuSans-2c" transform="translate(374.951172 0.015625)"/>
      <use xlink:href="#DejaVuSans-20" transform="translate(406.738281 0.015625)"/>
      <use xlink:href="#DejaVuSans-Oblique-6e" transform="translate(438.525391 0.015625)"/>
     </g>
    </g>
   </g>
   <g id="matplotlib.axis_2">
    <g id="ytick_1">
     <g id="line2d_19">
      <path d="M 52.160938 224.225446 
L 568.8 224.225446 
" clip-path="url(#p26aa70254f)" style="fill: none; stroke-dasharray: 2.96,1.28; stroke-dashoffset: 0; stroke: #b0b0b0; stroke-opacity: 0.8; stroke-width: 0.8"/>
     </g>
     <g id="line2d_20">
      <defs>
       <path id="m3879e1440f" d="M 0 0 
L -3.5 0 
" style="stroke: #000000; stroke-width: 0.8"/>
      </defs>
      <g>
       <use xlink:href="#m3879e1440f" x="52.160938" y="224.225446" style="stroke: #000000; stroke-width: 0.8"/>
      </g>
     </g>
     <g id="text_11">
      <!-- −0.4 -->
      <g transform="translate(20.878125 228.024665) scale(0.1 -0.1)">
       <defs>
        <path id="DejaVuSans-2212" d="M 678 2272 
L 4684 2272 
L 4684 1741 
L 678 1741 
L 678 2272 
z
" transform="scale(0.015625)"/>
        <path id="DejaVuSans-2e" d="M 684 794 
L 1344 794 
L 1344 0 
L 684 0 
L 684 794 
z
" transform="scale(0.015625)"/>
       </defs>
       <use xlink:href="#DejaVuSans-2212"/>
       <use xlink:href="#DejaVuSans-30" transform="translate(83.789062 0)"/>
       <use xlink:href="#DejaVuSans-2e" transform="translate(147.412109 0)"/>
       <use xlink:href="#DejaVuSans-34" transform="translate(179.199219 0)"/>
      </g>
     </g>
    </g>
    <g id="ytick_2">
     <g id="line2d_21">
      <path d="M 52.160938 179.635141 
L 568.8 179.635141 
" clip-path="url(#p26aa70254f)" style="fill: none; stroke-dasharray: 2.96,1.28; stroke-dashoffset: 0; stroke: #b0b0b0; stroke-opacity: 0.8; stroke-width: 0.8"/>
     </g>
     <g id="line2d_22">
      <g>
       <use xlink:href="#m3879e1440f" x="52.160938" y="179.635141" style="stroke: #000000; stroke-width: 0.8"/>
      </g>
     </g>
     <g id="text_12">
      <!-- −0.2 -->
      <g transform="translate(20.878125 183.434359) scale(0.1 -0.1)">
       <use xlink:href="#DejaVuSans-2212"/>
       <use xlink:href="#DejaVuSans-30" transform="translate(83.789062 0)"/>
       <use xlink:href="#DejaVuSans-2e" transform="translate(147.412109 0)"/>
       <use xlink:href="#DejaVuSans-32" transform="translate(179.199219 0)"/>
      </g>
     </g>
    </g>
    <g id="ytick_3">
     <g id="line2d_23">
      <path d="M 52.160938 135.044835 
L 568.8 135.044835 
" clip-path="url(#p26aa70254f)" style="fill: none; stroke-dasharray: 2.96,1.28; stroke-dashoffset: 0; stroke: #b0b0b0; stroke-opacity: 0.8; stroke-width: 0.8"/>
     </g>
     <g id="line2d_24">
      <g>
       <use xlink:href="#m3879e1440f" x="52.160938" y="135.044835" style="stroke: #000000; stroke-width: 0.8"/>
      </g>
     </g>
     <g id="text_13">
      <!-- 0.0 -->
      <g transform="translate(29.257812 138.844054) scale(0.1 -0.1)">
       <use xlink:href="#DejaVuSans-30"/>
       <use xlink:href="#DejaVuSans-2e" transform="translate(63.623047 0)"/>
       <use xlink:href="#DejaVuSans-30" transform="translate(95.410156 0)"/>
      </g>
     </g>
    </g>
    <g id="ytick_4">
     <g id="line2d_25">
      <path d="M 52.160938 90.45453 
L 568.8 90.45453 
" clip-path="url(#p26aa70254f)" style="fill: none; stroke-dasharray: 2.96,1.28; stroke-dashoffset: 0; stroke: #b0b0b0; stroke-opacity: 0.8; stroke-width: 0.8"/>
     </g>
     <g id="line2d_26">
      <g>
       <use xlink:href="#m3879e1440f" x="52.160938" y="90.45453" style="stroke: #000000; stroke-width: 0.8"/>
      </g>
     </g>
     <g id="text_14">
      <!-- 0.2 -->
      <g transform="translate(29.257812 94.253749) scale(0.1 -0.1)">
       <use xlink:href="#DejaVuSans-30"/>
       <use xlink:href="#DejaVuSans-2e" transform="translate(63.623047 0)"/>
       <use xlink:href="#DejaVuSans-32" transform="translate(95.410156 0)"/>
      </g>
     </g>
    </g>
    <g id="ytick_5">
     <g id="line2d_27">
      <path d="M 52.160938 45.864225 
L 568.8 45.864225 
" clip-path="url(#p26aa70254f)" style="fill: none; stroke-dasharray: 2.96,1.28; stroke-dashoffset: 0; stroke: #b0b0b0; stroke-opacity: 0.8; stroke-width: 0.8"/>
     </g>
     <g id="line2d_28">
      <g>
       <use xlink:href="#m3879e1440f" x="52.160938" y="45.864225" style="stroke: #000000; stroke-width: 0.8"/>
      </g>
     </g>
     <g id="text_15">
      <!-- 0.4 -->
      <g transform="translate(29.257812 49.663444) scale(0.1 -0.1)">
       <use xlink:href="#DejaVuSans-30"/>
       <use xlink:href="#DejaVuSans-2e" transform="translate(63.623047 0)"/>
       <use xlink:href="#DejaVuSans-34" transform="translate(95.410156 0)"/>
      </g>
     </g>
    </g>
    <g id="text_16">
     <!-- Amplitude -->
     <g transform="translate(14.798437 154.433594) rotate(-90) scale(0.1 -0.1)">
      <defs>
       <path id="DejaVuSans-41" d="M 2188 4044 
L 1331 1722 
L 3047 1722 
L 2188 4044 
z
M 1831 4666 
L 2547 4666 
L 4325 0 
L 3669 0 
L 3244 1197 
L 1141 1197 
L 716 0 
L 50 0 
L 1831 4666 
z
" transform="scale(0.015625)"/>
       <path id="DejaVuSans-69" d="M 603 3500 
L 1178 3500 
L 1178 0 
L 603 0 
L 603 3500 
z
M 603 4863 
L 1178 4863 
L 1178 4134 
L 603 4134 
L 603 4863 
z
" transform="scale(0.015625)"/>
       <path id="DejaVuSans-74" d="M 1172 4494 
L 1172 3500 
L 2356 3500 
L 2356 3053 
L 1172 3053 
L 1172 1153 
Q 1172 725 1289 603 
Q 1406 481 1766 481 
L 2356 481 
L 2356 0 
L 1766 0 
Q 1100 0 847 248 
Q 594 497 594 1153 
L 594 3053 
L 172 3053 
L 172 3500 
L 594 3500 
L 594 4494 
L 1172 4494 
z
" transform="scale(0.015625)"/>
       <path id="DejaVuSans-75" d="M 544 1381 
L 544 3500 
L 1119 3500 
L 1119 1403 
Q 1119 906 1312 657 
Q 1506 409 1894 409 
Q 2359 409 2629 706 
Q 2900 1003 2900 1516 
L 2900 3500 
L 3475 3500 
L 3475 0 
L 2900 0 
L 2900 538 
Q 2691 219 2414 64 
Q 2138 -91 1772 -91 
Q 1169 -91 856 284 
Q 544 659 544 1381 
z
M 1991 3584 
L 1991 3584 
z
" transform="scale(0.015625)"/>
       <path id="DejaVuSans-64" d="M 2906 2969 
L 2906 4863 
L 3481 4863 
L 3481 0 
L 2906 0 
L 2906 525 
Q 2725 213 2448 61 
Q 2172 -91 1784 -91 
Q 1150 -91 751 415 
Q 353 922 353 1747 
Q 353 2572 751 3078 
Q 1150 3584 1784 3584 
Q 2172 3584 2448 3432 
Q 2725 3281 2906 2969 
z
M 947 1747 
Q 947 1113 1208 752 
Q 1469 391 1925 391 
Q 2381 391 2643 752 
Q 2906 1113 2906 1747 
Q 2906 2381 2643 2742 
Q 2381 3103 1925 3103 
Q 1469 3103 1208 2742 
Q 947 2381 947 1747 
z
" transform="scale(0.015625)"/>
      </defs>
      <use xlink:href="#DejaVuSans-41"/>
      <use xlink:href="#DejaVuSans-6d" transform="translate(68.408203 0)"/>
      <use xlink:href="#DejaVuSans-70" transform="translate(165.820312 0)"/>
      <use xlink:href="#DejaVuSans-6c" transform="translate(229.296875 0)"/>
      <use xlink:href="#DejaVuSans-69" transform="translate(257.080078 0)"/>
      <use xlink:href="#DejaVuSans-74" transform="translate(284.863281 0)"/>
      <use xlink:href="#DejaVuSans-75" transform="translate(324.072266 0)"/>
      <use xlink:href="#DejaVuSans-64" transform="translate(387.451172 0)"/>
      <use xlink:href="#DejaVuSans-65" transform="translate(450.927734 0)"/>
     </g>
    </g>
   </g>
   <g id="line2d_29">
    <path d="M 75.644531 132.008603 
L 76.821654 137.457533 
L 77.998776 132.684084 
L 80.353021 132.711759 
L 81.530144 136.885983 
L 82.707266 132.196311 
L 83.884389 141.129024 
L 85.061511 136.139495 
L 86.238634 134.199917 
L 87.415756 131.80266 
L 88.592879 138.610749 
L 89.770001 138.171423 
L 90.947124 137.533658 
L 92.124246 130.764781 
L 93.301369 134.104593 
L 94.478491 138.221647 
L 95.655614 128.787842 
L 96.832736 135.659404 
L 98.009859 132.426231 
L 99.186981 137.858702 
L 100.364104 139.302842 
L 101.541226 139.084181 
L 102.718349 143.14849 
L 103.895471 129.430718 
L 105.072594 135.972354 
L 106.249716 129.338241 
L 107.426839 127.326892 
L 108.603961 128.184586 
L 109.781084 123.745218 
L 110.958206 129.826621 
L 112.135329 129.041955 
L 113.312451 129.16856 
L 116.843819 152.203519 
L 118.020941 147.977321 
L 119.198064 150.931386 
L 120.375186 152.406658 
L 121.552309 148.678523 
L 122.729431 139.757836 
L 123.906553 132.575452 
L 125.083676 117.951734 
L 126.260798 105.737791 
L 127.437921 86.62118 
L 129.792166 63.831505 
L 130.969288 63.536848 
L 132.146411 69.859218 
L 133.323533 86.335978 
L 134.500656 98.838892 
L 136.854901 147.978122 
L 138.032023 179.451023 
L 139.209146 197.548196 
L 140.386268 207.152497 
L 141.563391 221.747345 
L 142.740513 233.784285 
L 143.917636 233.704448 
L 145.094758 223.827769 
L 146.271881 209.38381 
L 147.449003 200.849889 
L 149.803248 187.166223 
L 150.980371 173.416588 
L 152.157493 180.413811 
L 153.334616 193.150463 
L 154.511738 198.838367 
L 155.688861 205.228097 
L 156.865983 220.59695 
L 158.043106 226.531226 
L 159.220228 223.144816 
L 160.397351 221.91789 
L 161.574473 212.781234 
L 163.928718 172.227295 
L 166.282963 117.676995 
L 167.460086 102.437244 
L 168.637208 82.222902 
L 169.814331 70.416516 
L 170.991453 66.364073 
L 172.168576 64.953041 
L 173.345698 80.768562 
L 174.522821 89.076661 
L 175.699943 96.396531 
L 176.877066 113.777513 
L 178.054188 134.087592 
L 179.231311 144.432702 
L 180.408433 143.615932 
L 181.585556 146.820696 
L 182.762678 146.799288 
L 183.939801 130.317737 
L 185.116923 117.224576 
L 186.294046 112.687481 
L 187.471168 89.35151 
L 188.648291 77.735242 
L 189.825413 59.290781 
L 191.002536 51.040425 
L 192.179658 43.576758 
L 193.356781 31.81267 
L 194.533903 30.370026 
L 195.711026 46.306942 
L 196.888148 54.521884 
L 198.065271 63.951577 
L 199.242393 71.717013 
L 200.419516 87.318482 
L 202.773761 130.685908 
L 203.950883 154.775797 
L 205.128006 169.062893 
L 206.305128 185.901468 
L 207.482251 191.392832 
L 208.659373 204.922823 
L 209.836496 198.606374 
L 211.013618 195.592524 
L 212.190741 190.104176 
L 213.367863 167.936189 
L 214.544986 160.108687 
L 215.722108 140.851137 
L 216.89923 135.189212 
L 218.076353 119.451331 
L 219.253475 101.408589 
L 220.430598 93.03282 
L 221.60772 85.513629 
L 222.784843 81.454632 
L 223.961965 81.480889 
L 225.139088 78.58183 
L 226.31621 82.135567 
L 227.493333 82.681144 
L 228.670455 88.825458 
L 229.847578 97.975532 
L 231.0247 98.185992 
L 232.201823 102.948826 
L 233.378945 116.767099 
L 234.556068 120.977392 
L 236.910313 148.920568 
L 238.087435 148.225181 
L 239.264558 156.137043 
L 240.44168 172.689477 
L 241.618803 185.283194 
L 242.795925 185.264384 
L 243.973048 194.70573 
L 245.15017 197.540111 
L 246.327293 192.658971 
L 247.504415 186.781599 
L 248.681538 184.284725 
L 249.85866 180.393328 
L 251.035783 163.196248 
L 252.212905 158.888978 
L 253.390028 151.498755 
L 254.56715 134.817734 
L 255.744273 121.522773 
L 256.921395 117.102638 
L 258.098518 109.990884 
L 259.27564 90.062232 
L 260.452763 96.223347 
L 261.629885 83.426735 
L 262.807008 79.613632 
L 263.98413 78.089083 
L 265.161253 81.453757 
L 266.338375 82.230099 
L 267.515498 86.109094 
L 268.69262 98.22444 
L 269.869743 107.781109 
L 271.046865 112.541775 
L 272.223988 124.204093 
L 275.755355 156.392433 
L 276.932478 162.073189 
L 278.1096 176.357806 
L 279.286723 178.607947 
L 281.640968 191.627645 
L 282.81809 192.367155 
L 283.995213 188.583595 
L 285.172335 189.271053 
L 286.349458 185.587 
L 287.52658 178.149594 
L 289.880825 160.153729 
L 293.412193 120.988597 
L 294.589315 110.552332 
L 295.766438 105.69569 
L 296.94356 93.61426 
L 298.120683 88.773551 
L 299.297805 81.966315 
L 300.474928 74.407424 
L 301.65205 76.646608 
L 302.829173 82.939675 
L 304.006295 82.777036 
L 306.36054 97.075971 
L 307.537663 101.642016 
L 308.714785 114.742414 
L 309.891908 125.633426 
L 311.06903 132.691793 
L 312.246152 146.937362 
L 313.423275 145.507337 
L 314.600397 161.081048 
L 315.77752 166.40167 
L 316.954642 176.868803 
L 318.131765 181.82024 
L 319.308887 182.894085 
L 320.48601 189.59897 
L 321.663132 191.773616 
L 322.840255 197.416112 
L 325.1945 207.228325 
L 326.371622 204.740141 
L 327.548745 203.230255 
L 329.90299 214.953164 
L 331.080112 220.704546 
L 332.257235 219.886923 
L 333.434357 215.818937 
L 334.61148 213.829242 
L 335.788602 201.585267 
L 336.965725 205.184148 
L 338.142847 198.348483 
L 339.31997 184.2327 
L 340.497092 185.787984 
L 341.674215 171.862125 
L 342.851337 163.699389 
L 344.02846 154.341442 
L 345.205582 151.779203 
L 346.382705 137.426626 
L 347.559827 137.512246 
L 348.73695 132.700196 
L 349.914072 130.307532 
L 351.091195 130.49617 
L 352.268317 138.190169 
L 353.44544 154.250278 
L 354.622562 161.671537 
L 355.799685 165.020237 
L 356.976807 180.994896 
L 359.331052 207.789401 
L 360.508175 206.953535 
L 361.685297 226.297651 
L 362.86242 236.07581 
L 364.039542 234.618919 
L 365.216665 233.445212 
L 366.393787 215.359772 
L 367.57091 217.541693 
L 368.748032 200.045717 
L 369.925155 177.90089 
L 371.102277 161.422603 
L 372.2794 148.02394 
L 373.456522 121.198687 
L 374.633645 102.798255 
L 375.810767 90.107455 
L 376.98789 75.87003 
L 378.165012 69.2616 
L 379.342135 70.33675 
L 380.519257 74.058216 
L 381.69638 83.47247 
L 382.873502 91.695759 
L 385.227747 124.956403 
L 386.40487 144.564999 
L 387.581992 154.926649 
L 388.759115 161.395279 
L 389.936237 173.960708 
L 391.11336 173.965407 
L 392.290482 184.131275 
L 394.644727 187.490422 
L 395.82185 189.555433 
L 396.998972 183.260145 
L 398.176095 186.458644 
L 399.353217 180.118595 
L 400.53034 177.598121 
L 401.707462 171.84365 
L 402.884585 163.983288 
L 404.061707 152.588142 
L 405.238829 131.755392 
L 406.415952 125.985524 
L 407.593074 120.810324 
L 408.770197 102.298613 
L 409.947319 87.734884 
L 411.124442 84.44426 
L 412.301564 78.700016 
L 413.478687 73.844049 
L 414.655809 80.220594 
L 415.832932 90.314199 
L 417.010054 87.055677 
L 418.187177 96.981171 
L 419.364299 105.259576 
L 421.718544 116.901824 
L 422.895667 129.212855 
L 424.072789 127.852824 
L 425.249912 128.990322 
L 426.427034 132.960221 
L 427.604157 136.389691 
L 428.781279 127.572354 
L 429.958402 130.521554 
L 431.135524 117.575506 
L 432.312647 103.116156 
L 433.489769 87.221954 
L 434.666892 73.222718 
L 435.844014 51.608738 
L 437.021137 40.183311 
L 438.198259 24.629961 
L 439.375382 18.25554 
L 440.552504 20.839976 
L 441.729627 28.56284 
L 442.906749 49.955508 
L 444.083872 66.218893 
L 448.792362 178.424917 
L 449.969484 194.879812 
L 451.146607 200.948739 
L 452.323729 197.564095 
L 453.500852 187.992061 
L 454.677974 177.161983 
L 455.855097 144.29486 
L 457.032219 127.524621 
L 458.209342 100.660247 
L 460.563587 52.897927 
L 461.740709 42.962716 
L 462.917832 42.349221 
L 464.094954 49.89773 
L 465.272077 77.319559 
L 466.449199 100.194576 
L 469.980567 182.150867 
L 472.334812 213.801813 
L 473.511934 211.143979 
L 474.689057 215.992231 
L 475.866179 199.673839 
L 477.043302 189.107775 
L 478.220424 172.40895 
L 479.397547 150.848386 
L 480.574669 124.06057 
L 481.751792 118.611125 
L 482.928914 97.751983 
L 484.106037 90.012481 
L 485.283159 87.828011 
L 486.460282 80.599832 
L 487.637404 82.946247 
L 488.814527 83.161775 
L 489.991649 86.029472 
L 491.168772 93.199882 
L 492.345894 89.733904 
L 493.523017 99.493585 
L 494.700139 106.357571 
L 495.877262 111.01733 
L 497.054384 113.180038 
L 498.231507 124.121812 
L 499.408629 129.639997 
L 500.585751 143.990677 
L 501.762874 143.674203 
L 502.939996 158.600695 
L 504.117119 168.826451 
L 505.294241 176.93113 
L 506.471364 180.147809 
L 507.648486 190.743333 
L 510.002731 200.640385 
L 511.179854 204.546488 
L 512.356976 200.595482 
L 513.534099 201.288932 
L 514.711221 212.59634 
L 515.888344 209.762861 
L 517.065466 205.54916 
L 518.242589 215.478409 
L 519.419711 215.04335 
L 521.773956 225.095184 
L 522.951079 220.981036 
L 524.128201 213.894403 
L 525.305324 213.548152 
L 526.482446 209.243806 
L 527.659569 189.192911 
L 528.836691 184.963256 
L 530.013814 165.831831 
L 531.190936 158.876904 
L 533.545181 139.158532 
L 534.722304 121.343426 
L 535.899426 126.442295 
L 537.076549 126.306238 
L 538.253671 137.420669 
L 539.430794 155.353205 
L 540.607916 157.972321 
L 541.785039 173.372587 
L 542.962161 185.885949 
L 545.316406 194.829784 
L 545.316406 194.829784 
" clip-path="url(#p26aa70254f)" style="fill: none; stroke: #1f77b4; stroke-linecap: square"/>
   </g>
   <g id="line2d_30">
    <path d="M 75.644531 134.550219 
L 76.821654 133.972301 
L 77.998776 131.452996 
L 79.175899 134.923037 
L 80.353021 136.421002 
L 81.530144 134.398294 
L 82.707266 131.700893 
L 83.884389 134.721826 
L 85.061511 128.06713 
L 86.238634 131.939881 
L 87.415756 134.152051 
L 88.592879 139.553325 
L 89.770001 142.076337 
L 90.947124 142.452219 
L 92.124246 146.35423 
L 93.301369 145.87605 
L 94.478491 139.766379 
L 95.655614 135.405845 
L 96.832736 136.843594 
L 98.009859 131.575447 
L 99.186981 117.416977 
L 100.364104 126.495886 
L 101.541226 127.903774 
L 102.718349 121.917909 
L 103.895471 126.271565 
L 105.072594 138.789731 
L 106.249716 143.006704 
L 107.426839 150.781665 
L 108.603961 148.229826 
L 109.781084 156.116517 
L 110.958206 161.060496 
L 112.135329 149.457316 
L 113.312451 140.554019 
L 116.843819 95.725366 
L 119.198064 56.699668 
L 120.375186 49.293644 
L 121.552309 46.643916 
L 122.729431 42.693873 
L 123.906553 58.978296 
L 126.260798 95.908658 
L 127.437921 119.412513 
L 128.615043 150.738996 
L 129.792166 170.293046 
L 130.969288 197.043806 
L 132.146411 194.133533 
L 133.323533 208.744451 
L 134.500656 195.175727 
L 135.677778 184.160934 
L 136.854901 171.400319 
L 138.032023 163.344265 
L 139.209146 140.073564 
L 140.386268 130.687553 
L 141.563391 119.973682 
L 142.740513 124.287195 
L 145.094758 145.2193 
L 147.449003 178.809354 
L 148.626126 189.97601 
L 149.803248 197.743151 
L 150.980371 197.208719 
L 152.157493 200.554113 
L 153.334616 197.857787 
L 154.511738 181.936059 
L 155.688861 159.473617 
L 156.865983 147.807196 
L 158.043106 134.737814 
L 159.220228 126.799898 
L 160.397351 129.546485 
L 161.574473 124.374714 
L 162.751596 136.214832 
L 163.928718 146.825829 
L 165.105841 167.063422 
L 166.282963 185.093139 
L 167.460086 195.184378 
L 168.637208 196.521134 
L 169.814331 196.303248 
L 170.991453 190.222692 
L 172.168576 177.365042 
L 173.345698 159.811797 
L 174.522821 133.86954 
L 175.699943 115.882294 
L 176.877066 86.591005 
L 178.054188 68.226723 
L 179.231311 55.66597 
L 180.408433 39.372687 
L 181.585556 34.721248 
L 182.762678 31.257791 
L 183.939801 40.143517 
L 185.116923 51.7482 
L 186.294046 55.424844 
L 187.471168 67.577297 
L 188.648291 92.808022 
L 189.825413 102.887286 
L 191.002536 101.26581 
L 192.179658 114.930684 
L 193.356781 117.48489 
L 194.533903 117.741495 
L 195.711026 126.997955 
L 196.888148 125.965954 
L 198.065271 123.147941 
L 199.242393 126.954717 
L 200.419516 121.377995 
L 201.596638 122.654348 
L 202.773761 123.686382 
L 203.950883 122.743913 
L 205.128006 112.914458 
L 206.305128 99.026554 
L 207.482251 89.420681 
L 208.659373 74.601263 
L 209.836496 52.065485 
L 211.013618 37.918628 
L 212.190741 36.660107 
L 213.367863 24.743127 
L 214.544986 26.727411 
L 215.722108 32.13523 
L 216.89923 45.740217 
L 218.076353 72.68176 
L 219.253475 91.991064 
L 220.430598 124.732429 
L 221.60772 148.494945 
L 222.784843 178.614062 
L 223.961965 191.098834 
L 225.139088 201.902825 
L 226.31621 201.821042 
L 227.493333 189.666141 
L 229.847578 153.024917 
L 231.0247 118.474894 
L 232.201823 104.892894 
L 233.378945 69.983375 
L 234.556068 59.073498 
L 235.73319 53.409769 
L 236.910313 44.412863 
L 238.087435 53.775691 
L 239.264558 73.768058 
L 240.44168 95.702879 
L 241.618803 124.854866 
L 242.795925 148.898457 
L 243.973048 179.3033 
L 245.15017 203.373832 
L 246.327293 212.916134 
L 248.681538 237.28094 
L 249.85866 228.550664 
L 251.035783 230.258336 
L 252.212905 223.954892 
L 253.390028 209.072717 
L 254.56715 206.881523 
L 255.744273 196.467184 
L 256.921395 198.531277 
L 258.098518 187.298132 
L 259.27564 197.252301 
L 260.452763 195.731695 
L 261.629885 203.820165 
L 262.807008 206.5627 
L 263.98413 200.95264 
L 265.161253 196.830988 
L 266.338375 199.680183 
L 267.515498 189.674645 
L 268.69262 191.549392 
L 269.869743 194.108073 
L 271.046865 198.131034 
L 272.223988 196.214392 
L 273.40111 205.337598 
L 274.578233 215.644836 
L 275.755355 222.621285 
L 278.1096 233.936591 
L 279.286723 233.806093 
L 280.463845 226.685508 
L 281.640968 222.74068 
L 282.81809 192.541607 
L 283.995213 178.06949 
L 285.172335 152.306127 
L 286.349458 123.43923 
L 287.52658 90.922261 
L 288.703703 69.636194 
L 289.880825 55.205607 
L 291.057948 50.412842 
L 292.23507 53.132009 
L 293.412193 56.204379 
L 294.589315 84.537785 
L 295.766438 102.603722 
L 296.94356 123.405447 
L 298.120683 158.469461 
L 300.474928 190.031383 
L 301.65205 208.072831 
L 302.829173 203.067846 
L 305.183418 173.866572 
L 306.36054 141.712491 
L 307.537663 113.850359 
L 308.714785 93.394973 
L 309.891908 57.351893 
L 311.06903 38.704416 
L 312.246152 36.103037 
L 313.423275 27.179661 
L 314.600397 30.009553 
L 315.77752 36.555998 
L 316.954642 49.526686 
L 318.131765 65.518785 
L 320.48601 90.952204 
L 321.663132 102.306554 
L 322.840255 100.026811 
L 324.017377 103.633134 
L 325.1945 104.584067 
L 326.371622 106.853888 
L 327.548745 106.997223 
L 328.725867 115.55997 
L 329.90299 131.912475 
L 331.080112 133.736352 
L 332.257235 149.852425 
L 333.434357 162.750039 
L 334.61148 181.006381 
L 335.788602 192.906572 
L 336.965725 199.678694 
L 338.142847 202.09859 
L 339.31997 196.929357 
L 340.497092 189.801169 
L 341.674215 170.777993 
L 342.851337 146.429478 
L 344.02846 129.825716 
L 346.382705 83.559866 
L 347.559827 67.657799 
L 348.73695 56.376394 
L 349.914072 40.69233 
L 351.091195 32.642539 
L 352.268317 36.981679 
L 353.44544 46.685569 
L 354.622562 54.51539 
L 355.799685 58.826232 
L 356.976807 72.740346 
L 358.15393 82.553356 
L 359.331052 86.333194 
L 360.508175 97.34398 
L 361.685297 103.160917 
L 362.86242 118.314982 
L 364.039542 126.840872 
L 365.216665 127.414523 
L 366.393787 131.186971 
L 367.57091 130.956608 
L 368.748032 143.82997 
L 369.925155 140.083763 
L 371.102277 139.157641 
L 372.2794 150.054157 
L 373.456522 158.846469 
L 374.633645 165.910908 
L 375.810767 178.993403 
L 376.98789 195.109651 
L 378.165012 195.725364 
L 379.342135 213.280453 
L 381.69638 237.267508 
L 382.873502 239.366335 
L 384.050625 236.405343 
L 385.227747 233.926708 
L 386.40487 223.52302 
L 387.581992 205.494467 
L 389.936237 155.598161 
L 391.11336 122.166198 
L 392.290482 103.479999 
L 393.467605 78.925301 
L 394.644727 66.856992 
L 395.82185 70.269975 
L 396.998972 69.146874 
L 398.176095 87.918442 
L 399.353217 119.957932 
L 400.53034 133.696524 
L 401.707462 167.602034 
L 402.884585 195.889204 
L 404.061707 207.710823 
L 406.415952 236.842418 
L 407.593074 228.991548 
L 408.770197 217.8707 
L 409.947319 223.678424 
L 411.124442 202.378477 
L 412.301564 194.664603 
L 413.478687 183.94418 
L 414.655809 177.167909 
L 415.832932 185.552836 
L 417.010054 186.303955 
L 418.187177 196.013162 
L 419.364299 207.5175 
L 420.541422 212.805768 
L 421.718544 222.044833 
L 422.895667 227.044805 
L 424.072789 223.350542 
L 425.249912 216.150015 
L 426.427034 200.863905 
L 431.135524 104.500968 
L 432.312647 83.119441 
L 433.489769 68.401153 
L 434.666892 68.846866 
L 435.844014 61.909393 
L 437.021137 67.544903 
L 438.198259 81.95966 
L 439.375382 89.256116 
L 440.552504 108.672798 
L 441.729627 132.593004 
L 442.906749 149.36028 
L 444.083872 155.158062 
L 445.260994 175.900125 
L 446.438117 172.895224 
L 447.615239 179.722918 
L 448.792362 181.453826 
L 449.969484 185.088392 
L 451.146607 186.1474 
L 452.323729 187.374623 
L 453.500852 187.017626 
L 454.677974 188.567053 
L 455.855097 175.282363 
L 457.032219 171.375045 
L 458.209342 173.653998 
L 459.386464 158.815848 
L 460.563587 151.618459 
L 461.740709 134.992759 
L 462.917832 126.941055 
L 464.094954 113.837614 
L 465.272077 96.399819 
L 466.449199 81.708427 
L 467.626322 80.753472 
L 468.803444 67.958329 
L 469.980567 64.281992 
L 471.157689 76.06903 
L 473.511934 95.565009 
L 474.689057 118.943951 
L 475.866179 147.562745 
L 477.043302 161.817459 
L 478.220424 177.682053 
L 479.397547 197.914115 
L 480.574669 211.114233 
L 481.751792 222.550757 
L 482.928914 237.355626 
L 484.106037 235.877645 
L 485.283159 236.603751 
L 486.460282 232.239532 
L 487.637404 226.497872 
L 489.991649 187.002678 
L 491.168772 174.292058 
L 492.345894 151.260044 
L 493.523017 130.530999 
L 495.877262 94.627427 
L 497.054384 76.625268 
L 498.231507 66.927942 
L 499.408629 58.896494 
L 500.585751 54.83418 
L 501.762874 50.289922 
L 502.939996 49.68476 
L 504.117119 54.192728 
L 505.294241 54.806047 
L 506.471364 70.95285 
L 507.648486 68.044057 
L 508.825609 76.380541 
L 510.002731 91.773966 
L 511.179854 94.234962 
L 512.356976 102.499704 
L 513.534099 106.6781 
L 514.711221 114.8471 
L 515.888344 119.426887 
L 517.065466 135.303054 
L 519.419711 137.853516 
L 520.596834 139.686369 
L 521.773956 156.315969 
L 522.951079 161.651051 
L 524.128201 173.803418 
L 525.305324 178.103624 
L 526.482446 189.288351 
L 527.659569 198.523554 
L 528.836691 202.380865 
L 530.013814 203.646968 
L 531.190936 205.446102 
L 532.368059 203.076574 
L 533.545181 215.617237 
L 534.722304 207.294956 
L 535.899426 206.498307 
L 537.076549 204.216022 
L 538.253671 214.430932 
L 539.430794 210.859263 
L 540.607916 221.198866 
L 541.785039 220.083167 
L 542.962161 213.547755 
L 544.139284 219.044804 
L 545.316406 209.069648 
L 545.316406 209.069648 
" clip-path="url(#p26aa70254f)" style="fill: none; stroke: #ff7f0e; stroke-linecap: square"/>
   </g>
   <g id="patch_3">
    <path d="M 52.160938 250.421875 
L 52.160938 7.2 
" style="fill: none; stroke: #000000; stroke-width: 0.8; stroke-linejoin: miter; stroke-linecap: square"/>
   </g>
   <g id="patch_4">
    <path d="M 568.8 250.421875 
L 568.8 7.2 
" style="fill: none; stroke: #000000; stroke-width: 0.8; stroke-linejoin: miter; stroke-linecap: square"/>
   </g>
   <g id="patch_5">
    <path d="M 52.160937 250.421875 
L 568.8 250.421875 
" style="fill: none; stroke: #000000; stroke-width: 0.8; stroke-linejoin: miter; stroke-linecap: square"/>
   </g>
   <g id="patch_6">
    <path d="M 52.160937 7.2 
L 568.8 7.2 
" style="fill: none; stroke: #000000; stroke-width: 0.8; stroke-linejoin: miter; stroke-linecap: square"/>
   </g>
   <g id="legend_1">
    <g id="patch_7">
     <path d="M 504.804688 44.55625 
L 561.8 44.55625 
Q 563.8 44.55625 563.8 42.55625 
L 563.8 14.2 
Q 563.8 12.2 561.8 12.2 
L 504.804688 12.2 
Q 502.804688 12.2 502.804688 14.2 
L 502.804688 42.55625 
Q 502.804688 44.55625 504.804688 44.55625 
z
" style="fill: #ffffff; opacity: 0.8; stroke: #cccccc; stroke-linejoin: miter"/>
    </g>
    <g id="line2d_31">
     <path d="M 506.804688 20.298437 
L 516.804688 20.298437 
L 526.804688 20.298437 
" style="fill: none; stroke: #1f77b4; stroke-linecap: square"/>
    </g>
    <g id="text_17">
     <!-- real -->
     <g transform="translate(534.804688 23.798437) scale(0.1 -0.1)">
      <defs>
       <path id="DejaVuSans-72" d="M 2631 2963 
Q 2534 3019 2420 3045 
Q 2306 3072 2169 3072 
Q 1681 3072 1420 2755 
Q 1159 2438 1159 1844 
L 1159 0 
L 581 0 
L 581 3500 
L 1159 3500 
L 1159 2956 
Q 1341 3275 1631 3429 
Q 1922 3584 2338 3584 
Q 2397 3584 2469 3576 
Q 2541 3569 2628 3553 
L 2631 2963 
z
" transform="scale(0.015625)"/>
      </defs>
      <use xlink:href="#DejaVuSans-72"/>
      <use xlink:href="#DejaVuSans-65" transform="translate(38.863281 0)"/>
      <use xlink:href="#DejaVuSans-61" transform="translate(100.386719 0)"/>
      <use xlink:href="#DejaVuSans-6c" transform="translate(161.666016 0)"/>
     </g>
    </g>
    <g id="line2d_32">
     <path d="M 506.804688 34.976562 
L 516.804688 34.976562 
L 526.804688 34.976562 
" style="fill: none; stroke: #ff7f0e; stroke-linecap: square"/>
    </g>
    <g id="text_18">
     <!-- imag -->
     <g transform="translate(534.804688 38.476562) scale(0.1 -0.1)">
      <defs>
       <path id="DejaVuSans-67" d="M 2906 1791 
Q 2906 2416 2648 2759 
Q 2391 3103 1925 3103 
Q 1463 3103 1205 2759 
Q 947 2416 947 1791 
Q 947 1169 1205 825 
Q 1463 481 1925 481 
Q 2391 481 2648 825 
Q 2906 1169 2906 1791 
z
M 3481 434 
Q 3481 -459 3084 -895 
Q 2688 -1331 1869 -1331 
Q 1566 -1331 1297 -1286 
Q 1028 -1241 775 -1147 
L 775 -588 
Q 1028 -725 1275 -790 
Q 1522 -856 1778 -856 
Q 2344 -856 2625 -561 
Q 2906 -266 2906 331 
L 2906 616 
Q 2728 306 2450 153 
Q 2172 0 1784 0 
Q 1141 0 747 490 
Q 353 981 353 1791 
Q 353 2603 747 3093 
Q 1141 3584 1784 3584 
Q 2172 3584 2450 3431 
Q 2728 3278 2906 2969 
L 2906 3500 
L 3481 3500 
L 3481 434 
z
" transform="scale(0.015625)"/>
      </defs>
      <use xlink:href="#DejaVuSans-69"/>
      <use xlink:href="#DejaVuSans-6d" transform="translate(27.783203 0)"/>
      <use xlink:href="#DejaVuSans-61" transform="translate(125.195312 0)"/>
      <use xlink:href="#DejaVuSans-67" transform="translate(186.474609 0)"/>
     </g>
    </g>
   </g>
  </g>
 </g>
 <defs>
  <clipPath id="p26aa70254f">
   <rect x="52.160938" y="7.2" width="516.639063" height="243.221875"/>
  </clipPath>
 </defs>
</svg>
