<?xml version="1.0" encoding="utf-8" standalone="no"?>
<!DOCTYPE svg PUBLIC "-//W3C//DTD SVG 1.1//EN"
  "http://www.w3.org/Graphics/SVG/1.1/DTD/svg11.dtd">
<svg xmlns:xlink="http://www.w3.org/1999/xlink" width="576pt" height="288pt" viewBox="0 0 576 288" xmlns="http://www.w3.org/2000/svg" version="1.1">
 <metadata>
  <rdf:RDF xmlns:dc="http://purl.org/dc/elements/1.1/" xmlns:cc="http://creativecommons.org/ns#" xmlns:rdf="http://www.w3.org/1999/02/22-rdf-syntax-ns#">
   <cc:Work>
    <dc:type rdf:resource="http://purl.org/dc/dcmitype/StillImage"/>
    <dc:date>2025-05-10T16:17:49.168771</dc:date>
    <dc:format>image/svg+xml</dc:format>
    <dc:creator>
     <cc:Agent>
      <dc:title>Matplotlib v3.10.3, https://matplotlib.org/</dc:title>
     </cc:Agent>
    </dc:creator>
   </cc:Work>
  </rdf:RDF>
 </metadata>
 <defs>
  <style type="text/css">*{stroke-linejoin: round; stroke-linecap: butt}</style>
 </defs>
 <g id="figure_1">
  <g id="patch_1">
   <path d="M 0 288 
L 576 288 
L 576 0 
L 0 0 
z
" style="fill: #ffffff"/>
  </g>
  <g id="axes_1">
   <g id="patch_2">
    <path d="M 48.982813 250.421875 
L 568.8 250.421875 
L 568.8 22.32 
L 48.982813 22.32 
z
" style="fill: #ffffff"/>
   </g>
   <g id="matplotlib.axis_1">
    <g id="xtick_1">
     <g id="line2d_1">
      <path d="M 72.610866 250.421875 
L 72.610866 22.32 
" clip-path="url(#p67275a5846)" style="fill: none; stroke-dasharray: 2.96,1.28; stroke-dashoffset: 0; stroke: #b0b0b0; stroke-opacity: 0.8; stroke-width: 0.8"/>
     </g>
     <g id="line2d_2">
      <defs>
       <path id="mfe6c174680" d="M 0 0 
L 0 3.5 
" style="stroke: #000000; stroke-width: 0.8"/>
      </defs>
      <g>
       <use xlink:href="#mfe6c174680" x="72.610866" y="250.421875" style="stroke: #000000; stroke-width: 0.8"/>
      </g>
     </g>
     <g id="text_1">
      <!-- 0 -->
      <g transform="translate(69.429616 265.020312) scale(0.1 -0.1)">
       <defs>
        <path id="DejaVuSans-30" d="M 2034 4250 
Q 1547 4250 1301 3770 
Q 1056 3291 1056 2328 
Q 1056 1369 1301 889 
Q 1547 409 2034 409 
Q 2525 409 2770 889 
Q 3016 1369 3016 2328 
Q 3016 3291 2770 3770 
Q 2525 4250 2034 4250 
z
M 2034 4750 
Q 2819 4750 3233 4129 
Q 3647 3509 3647 2328 
Q 3647 1150 3233 529 
Q 2819 -91 2034 -91 
Q 1250 -91 836 529 
Q 422 1150 422 2328 
Q 422 3509 836 4129 
Q 1250 4750 2034 4750 
z
" transform="scale(0.015625)"/>
       </defs>
       <use xlink:href="#DejaVuSans-30"/>
      </g>
     </g>
    </g>
    <g id="xtick_2">
     <g id="line2d_3">
      <path d="M 167.123082 250.421875 
L 167.123082 22.32 
" clip-path="url(#p67275a5846)" style="fill: none; stroke-dasharray: 2.96,1.28; stroke-dashoffset: 0; stroke: #b0b0b0; stroke-opacity: 0.8; stroke-width: 0.8"/>
     </g>
     <g id="line2d_4">
      <g>
       <use xlink:href="#mfe6c174680" x="167.123082" y="250.421875" style="stroke: #000000; stroke-width: 0.8"/>
      </g>
     </g>
     <g id="text_2">
      <!-- 100 -->
      <g transform="translate(157.579332 265.020312) scale(0.1 -0.1)">
       <defs>
        <path id="DejaVuSans-31" d="M 794 531 
L 1825 531 
L 1825 4091 
L 703 3866 
L 703 4441 
L 1819 4666 
L 2450 4666 
L 2450 531 
L 3481 531 
L 3481 0 
L 794 0 
L 794 531 
z
" transform="scale(0.015625)"/>
       </defs>
       <use xlink:href="#DejaVuSans-31"/>
       <use xlink:href="#DejaVuSans-30" transform="translate(63.623047 0)"/>
       <use xlink:href="#DejaVuSans-30" transform="translate(127.246094 0)"/>
      </g>
     </g>
    </g>
    <g id="xtick_3">
     <g id="line2d_5">
      <path d="M 261.635298 250.421875 
L 261.635298 22.32 
" clip-path="url(#p67275a5846)" style="fill: none; stroke-dasharray: 2.96,1.28; stroke-dashoffset: 0; stroke: #b0b0b0; stroke-opacity: 0.8; stroke-width: 0.8"/>
     </g>
     <g id="line2d_6">
      <g>
       <use xlink:href="#mfe6c174680" x="261.635298" y="250.421875" style="stroke: #000000; stroke-width: 0.8"/>
      </g>
     </g>
     <g id="text_3">
      <!-- 200 -->
      <g transform="translate(252.091548 265.020312) scale(0.1 -0.1)">
       <defs>
        <path id="DejaVuSans-32" d="M 1228 531 
L 3431 531 
L 3431 0 
L 469 0 
L 469 531 
Q 828 903 1448 1529 
Q 2069 2156 2228 2338 
Q 2531 2678 2651 2914 
Q 2772 3150 2772 3378 
Q 2772 3750 2511 3984 
Q 2250 4219 1831 4219 
Q 1534 4219 1204 4116 
Q 875 4013 500 3803 
L 500 4441 
Q 881 4594 1212 4672 
Q 1544 4750 1819 4750 
Q 2544 4750 2975 4387 
Q 3406 4025 3406 3419 
Q 3406 3131 3298 2873 
Q 3191 2616 2906 2266 
Q 2828 2175 2409 1742 
Q 1991 1309 1228 531 
z
" transform="scale(0.015625)"/>
       </defs>
       <use xlink:href="#DejaVuSans-32"/>
       <use xlink:href="#DejaVuSans-30" transform="translate(63.623047 0)"/>
       <use xlink:href="#DejaVuSans-30" transform="translate(127.246094 0)"/>
      </g>
     </g>
    </g>
    <g id="xtick_4">
     <g id="line2d_7">
      <path d="M 356.147514 250.421875 
L 356.147514 22.32 
" clip-path="url(#p67275a5846)" style="fill: none; stroke-dasharray: 2.96,1.28; stroke-dashoffset: 0; stroke: #b0b0b0; stroke-opacity: 0.8; stroke-width: 0.8"/>
     </g>
     <g id="line2d_8">
      <g>
       <use xlink:href="#mfe6c174680" x="356.147514" y="250.421875" style="stroke: #000000; stroke-width: 0.8"/>
      </g>
     </g>
     <g id="text_4">
      <!-- 300 -->
      <g transform="translate(346.603764 265.020312) scale(0.1 -0.1)">
       <defs>
        <path id="DejaVuSans-33" d="M 2597 2516 
Q 3050 2419 3304 2112 
Q 3559 1806 3559 1356 
Q 3559 666 3084 287 
Q 2609 -91 1734 -91 
Q 1441 -91 1130 -33 
Q 819 25 488 141 
L 488 750 
Q 750 597 1062 519 
Q 1375 441 1716 441 
Q 2309 441 2620 675 
Q 2931 909 2931 1356 
Q 2931 1769 2642 2001 
Q 2353 2234 1838 2234 
L 1294 2234 
L 1294 2753 
L 1863 2753 
Q 2328 2753 2575 2939 
Q 2822 3125 2822 3475 
Q 2822 3834 2567 4026 
Q 2313 4219 1838 4219 
Q 1578 4219 1281 4162 
Q 984 4106 628 3988 
L 628 4550 
Q 988 4650 1302 4700 
Q 1616 4750 1894 4750 
Q 2613 4750 3031 4423 
Q 3450 4097 3450 3541 
Q 3450 3153 3228 2886 
Q 3006 2619 2597 2516 
z
" transform="scale(0.015625)"/>
       </defs>
       <use xlink:href="#DejaVuSans-33"/>
       <use xlink:href="#DejaVuSans-30" transform="translate(63.623047 0)"/>
       <use xlink:href="#DejaVuSans-30" transform="translate(127.246094 0)"/>
      </g>
     </g>
    </g>
    <g id="xtick_5">
     <g id="line2d_9">
      <path d="M 450.65973 250.421875 
L 450.65973 22.32 
" clip-path="url(#p67275a5846)" style="fill: none; stroke-dasharray: 2.96,1.28; stroke-dashoffset: 0; stroke: #b0b0b0; stroke-opacity: 0.8; stroke-width: 0.8"/>
     </g>
     <g id="line2d_10">
      <g>
       <use xlink:href="#mfe6c174680" x="450.65973" y="250.421875" style="stroke: #000000; stroke-width: 0.8"/>
      </g>
     </g>
     <g id="text_5">
      <!-- 400 -->
      <g transform="translate(441.11598 265.020312) scale(0.1 -0.1)">
       <defs>
        <path id="DejaVuSans-34" d="M 2419 4116 
L 825 1625 
L 2419 1625 
L 2419 4116 
z
M 2253 4666 
L 3047 4666 
L 3047 1625 
L 3713 1625 
L 3713 1100 
L 3047 1100 
L 3047 0 
L 2419 0 
L 2419 1100 
L 313 1100 
L 313 1709 
L 2253 4666 
z
" transform="scale(0.015625)"/>
       </defs>
       <use xlink:href="#DejaVuSans-34"/>
       <use xlink:href="#DejaVuSans-30" transform="translate(63.623047 0)"/>
       <use xlink:href="#DejaVuSans-30" transform="translate(127.246094 0)"/>
      </g>
     </g>
    </g>
    <g id="xtick_6">
     <g id="line2d_11">
      <path d="M 545.171946 250.421875 
L 545.171946 22.32 
" clip-path="url(#p67275a5846)" style="fill: none; stroke-dasharray: 2.96,1.28; stroke-dashoffset: 0; stroke: #b0b0b0; stroke-opacity: 0.8; stroke-width: 0.8"/>
     </g>
     <g id="line2d_12">
      <g>
       <use xlink:href="#mfe6c174680" x="545.171946" y="250.421875" style="stroke: #000000; stroke-width: 0.8"/>
      </g>
     </g>
     <g id="text_6">
      <!-- 500 -->
      <g transform="translate(535.628196 265.020312) scale(0.1 -0.1)">
       <defs>
        <path id="DejaVuSans-35" d="M 691 4666 
L 3169 4666 
L 3169 4134 
L 1269 4134 
L 1269 2991 
Q 1406 3038 1543 3061 
Q 1681 3084 1819 3084 
Q 2600 3084 3056 2656 
Q 3513 2228 3513 1497 
Q 3513 744 3044 326 
Q 2575 -91 1722 -91 
Q 1428 -91 1123 -41 
Q 819 9 494 109 
L 494 744 
Q 775 591 1075 516 
Q 1375 441 1709 441 
Q 2250 441 2565 725 
Q 2881 1009 2881 1497 
Q 2881 1984 2565 2268 
Q 2250 2553 1709 2553 
Q 1456 2553 1204 2497 
Q 953 2441 691 2322 
L 691 4666 
z
" transform="scale(0.015625)"/>
       </defs>
       <use xlink:href="#DejaVuSans-35"/>
       <use xlink:href="#DejaVuSans-30" transform="translate(63.623047 0)"/>
       <use xlink:href="#DejaVuSans-30" transform="translate(127.246094 0)"/>
      </g>
     </g>
    </g>
    <g id="text_7">
     <!-- Frequency (Hz), $f$ -->
     <g transform="translate(265.741406 278.7) scale(0.1 -0.1)">
      <defs>
       <path id="DejaVuSans-46" d="M 628 4666 
L 3309 4666 
L 3309 4134 
L 1259 4134 
L 1259 2759 
L 3109 2759 
L 3109 2228 
L 1259 2228 
L 1259 0 
L 628 0 
L 628 4666 
z
" transform="scale(0.015625)"/>
       <path id="DejaVuSans-72" d="M 2631 2963 
Q 2534 3019 2420 3045 
Q 2306 3072 2169 3072 
Q 1681 3072 1420 2755 
Q 1159 2438 1159 1844 
L 1159 0 
L 581 0 
L 581 3500 
L 1159 3500 
L 1159 2956 
Q 1341 3275 1631 3429 
Q 1922 3584 2338 3584 
Q 2397 3584 2469 3576 
Q 2541 3569 2628 3553 
L 2631 2963 
z
" transform="scale(0.015625)"/>
       <path id="DejaVuSans-65" d="M 3597 1894 
L 3597 1613 
L 953 1613 
Q 991 1019 1311 708 
Q 1631 397 2203 397 
Q 2534 397 2845 478 
Q 3156 559 3463 722 
L 3463 178 
Q 3153 47 2828 -22 
Q 2503 -91 2169 -91 
Q 1331 -91 842 396 
Q 353 884 353 1716 
Q 353 2575 817 3079 
Q 1281 3584 2069 3584 
Q 2775 3584 3186 3129 
Q 3597 2675 3597 1894 
z
M 3022 2063 
Q 3016 2534 2758 2815 
Q 2500 3097 2075 3097 
Q 1594 3097 1305 2825 
Q 1016 2553 972 2059 
L 3022 2063 
z
" transform="scale(0.015625)"/>
       <path id="DejaVuSans-71" d="M 947 1747 
Q 947 1113 1208 752 
Q 1469 391 1925 391 
Q 2381 391 2643 752 
Q 2906 1113 2906 1747 
Q 2906 2381 2643 2742 
Q 2381 3103 1925 3103 
Q 1469 3103 1208 2742 
Q 947 2381 947 1747 
z
M 2906 525 
Q 2725 213 2448 61 
Q 2172 -91 1784 -91 
Q 1150 -91 751 415 
Q 353 922 353 1747 
Q 353 2572 751 3078 
Q 1150 3584 1784 3584 
Q 2172 3584 2448 3432 
Q 2725 3281 2906 2969 
L 2906 3500 
L 3481 3500 
L 3481 -1331 
L 2906 -1331 
L 2906 525 
z
" transform="scale(0.015625)"/>
       <path id="DejaVuSans-75" d="M 544 1381 
L 544 3500 
L 1119 3500 
L 1119 1403 
Q 1119 906 1312 657 
Q 1506 409 1894 409 
Q 2359 409 2629 706 
Q 2900 1003 2900 1516 
L 2900 3500 
L 3475 3500 
L 3475 0 
L 2900 0 
L 2900 538 
Q 2691 219 2414 64 
Q 2138 -91 1772 -91 
Q 1169 -91 856 284 
Q 544 659 544 1381 
z
M 1991 3584 
L 1991 3584 
z
" transform="scale(0.015625)"/>
       <path id="DejaVuSans-6e" d="M 3513 2113 
L 3513 0 
L 2938 0 
L 2938 2094 
Q 2938 2591 2744 2837 
Q 2550 3084 2163 3084 
Q 1697 3084 1428 2787 
Q 1159 2491 1159 1978 
L 1159 0 
L 581 0 
L 581 3500 
L 1159 3500 
L 1159 2956 
Q 1366 3272 1645 3428 
Q 1925 3584 2291 3584 
Q 2894 3584 3203 3211 
Q 3513 2838 3513 2113 
z
" transform="scale(0.015625)"/>
       <path id="DejaVuSans-63" d="M 3122 3366 
L 3122 2828 
Q 2878 2963 2633 3030 
Q 2388 3097 2138 3097 
Q 1578 3097 1268 2742 
Q 959 2388 959 1747 
Q 959 1106 1268 751 
Q 1578 397 2138 397 
Q 2388 397 2633 464 
Q 2878 531 3122 666 
L 3122 134 
Q 2881 22 2623 -34 
Q 2366 -91 2075 -91 
Q 1284 -91 818 406 
Q 353 903 353 1747 
Q 353 2603 823 3093 
Q 1294 3584 2113 3584 
Q 2378 3584 2631 3529 
Q 2884 3475 3122 3366 
z
" transform="scale(0.015625)"/>
       <path id="DejaVuSans-79" d="M 2059 -325 
Q 1816 -950 1584 -1140 
Q 1353 -1331 966 -1331 
L 506 -1331 
L 506 -850 
L 844 -850 
Q 1081 -850 1212 -737 
Q 1344 -625 1503 -206 
L 1606 56 
L 191 3500 
L 800 3500 
L 1894 763 
L 2988 3500 
L 3597 3500 
L 2059 -325 
z
" transform="scale(0.015625)"/>
       <path id="DejaVuSans-20" transform="scale(0.015625)"/>
       <path id="DejaVuSans-28" d="M 1984 4856 
Q 1566 4138 1362 3434 
Q 1159 2731 1159 2009 
Q 1159 1288 1364 580 
Q 1569 -128 1984 -844 
L 1484 -844 
Q 1016 -109 783 600 
Q 550 1309 550 2009 
Q 550 2706 781 3412 
Q 1013 4119 1484 4856 
L 1984 4856 
z
" transform="scale(0.015625)"/>
       <path id="DejaVuSans-48" d="M 628 4666 
L 1259 4666 
L 1259 2753 
L 3553 2753 
L 3553 4666 
L 4184 4666 
L 4184 0 
L 3553 0 
L 3553 2222 
L 1259 2222 
L 1259 0 
L 628 0 
L 628 4666 
z
" transform="scale(0.015625)"/>
       <path id="DejaVuSans-7a" d="M 353 3500 
L 3084 3500 
L 3084 2975 
L 922 459 
L 3084 459 
L 3084 0 
L 275 0 
L 275 525 
L 2438 3041 
L 353 3041 
L 353 3500 
z
" transform="scale(0.015625)"/>
       <path id="DejaVuSans-29" d="M 513 4856 
L 1013 4856 
Q 1481 4119 1714 3412 
Q 1947 2706 1947 2009 
Q 1947 1309 1714 600 
Q 1481 -109 1013 -844 
L 513 -844 
Q 928 -128 1133 580 
Q 1338 1288 1338 2009 
Q 1338 2731 1133 3434 
Q 928 4138 513 4856 
z
" transform="scale(0.015625)"/>
       <path id="DejaVuSans-2c" d="M 750 794 
L 1409 794 
L 1409 256 
L 897 -744 
L 494 -744 
L 750 256 
L 750 794 
z
" transform="scale(0.015625)"/>
       <path id="DejaVuSans-Oblique-66" d="M 3059 4863 
L 2969 4384 
L 2419 4384 
Q 2106 4384 1964 4261 
Q 1822 4138 1753 3809 
L 1691 3500 
L 2638 3500 
L 2553 3053 
L 1606 3053 
L 1013 0 
L 434 0 
L 1031 3053 
L 481 3053 
L 563 3500 
L 1113 3500 
L 1159 3744 
Q 1278 4363 1576 4613 
Q 1875 4863 2516 4863 
L 3059 4863 
z
" transform="scale(0.015625)"/>
      </defs>
      <use xlink:href="#DejaVuSans-46" transform="translate(0 0.015625)"/>
      <use xlink:href="#DejaVuSans-72" transform="translate(57.519531 0.015625)"/>
      <use xlink:href="#DejaVuSans-65" transform="translate(98.632812 0.015625)"/>
      <use xlink:href="#DejaVuSans-71" transform="translate(160.15625 0.015625)"/>
      <use xlink:href="#DejaVuSans-75" transform="translate(223.632812 0.015625)"/>
      <use xlink:href="#DejaVuSans-65" transform="translate(287.011719 0.015625)"/>
      <use xlink:href="#DejaVuSans-6e" transform="translate(348.535156 0.015625)"/>
      <use xlink:href="#DejaVuSans-63" transform="translate(411.914062 0.015625)"/>
      <use xlink:href="#DejaVuSans-79" transform="translate(466.894531 0.015625)"/>
      <use xlink:href="#DejaVuSans-20" transform="translate(526.074219 0.015625)"/>
      <use xlink:href="#DejaVuSans-28" transform="translate(557.861328 0.015625)"/>
      <use xlink:href="#DejaVuSans-48" transform="translate(596.875 0.015625)"/>
      <use xlink:href="#DejaVuSans-7a" transform="translate(672.070312 0.015625)"/>
      <use xlink:href="#DejaVuSans-29" transform="translate(724.560547 0.015625)"/>
      <use xlink:href="#DejaVuSans-2c" transform="translate(763.574219 0.015625)"/>
      <use xlink:href="#DejaVuSans-20" transform="translate(795.361328 0.015625)"/>
      <use xlink:href="#DejaVuSans-Oblique-66" transform="translate(827.148438 0.015625)"/>
     </g>
    </g>
   </g>
   <g id="matplotlib.axis_2">
    <g id="ytick_1">
     <g id="line2d_13">
      <path d="M 48.982813 218.369025 
L 568.8 218.369025 
" clip-path="url(#p67275a5846)" style="fill: none; stroke-dasharray: 2.96,1.28; stroke-dashoffset: 0; stroke: #b0b0b0; stroke-opacity: 0.8; stroke-width: 0.8"/>
     </g>
     <g id="line2d_14">
      <defs>
       <path id="med1b2a4d7b" d="M 0 0 
L -3.5 0 
" style="stroke: #000000; stroke-width: 0.8"/>
      </defs>
      <g>
       <use xlink:href="#med1b2a4d7b" x="48.982813" y="218.369025" style="stroke: #000000; stroke-width: 0.8"/>
      </g>
     </g>
     <g id="text_8">
      <!-- −60 -->
      <g transform="translate(20.878125 222.168244) scale(0.1 -0.1)">
       <defs>
        <path id="DejaVuSans-2212" d="M 678 2272 
L 4684 2272 
L 4684 1741 
L 678 1741 
L 678 2272 
z
" transform="scale(0.015625)"/>
        <path id="DejaVuSans-36" d="M 2113 2584 
Q 1688 2584 1439 2293 
Q 1191 2003 1191 1497 
Q 1191 994 1439 701 
Q 1688 409 2113 409 
Q 2538 409 2786 701 
Q 3034 994 3034 1497 
Q 3034 2003 2786 2293 
Q 2538 2584 2113 2584 
z
M 3366 4563 
L 3366 3988 
Q 3128 4100 2886 4159 
Q 2644 4219 2406 4219 
Q 1781 4219 1451 3797 
Q 1122 3375 1075 2522 
Q 1259 2794 1537 2939 
Q 1816 3084 2150 3084 
Q 2853 3084 3261 2657 
Q 3669 2231 3669 1497 
Q 3669 778 3244 343 
Q 2819 -91 2113 -91 
Q 1303 -91 875 529 
Q 447 1150 447 2328 
Q 447 3434 972 4092 
Q 1497 4750 2381 4750 
Q 2619 4750 2861 4703 
Q 3103 4656 3366 4563 
z
" transform="scale(0.015625)"/>
       </defs>
       <use xlink:href="#DejaVuSans-2212"/>
       <use xlink:href="#DejaVuSans-36" transform="translate(83.789062 0)"/>
       <use xlink:href="#DejaVuSans-30" transform="translate(147.412109 0)"/>
      </g>
     </g>
    </g>
    <g id="ytick_2">
     <g id="line2d_15">
      <path d="M 48.982813 180.708234 
L 568.8 180.708234 
" clip-path="url(#p67275a5846)" style="fill: none; stroke-dasharray: 2.96,1.28; stroke-dashoffset: 0; stroke: #b0b0b0; stroke-opacity: 0.8; stroke-width: 0.8"/>
     </g>
     <g id="line2d_16">
      <g>
       <use xlink:href="#med1b2a4d7b" x="48.982813" y="180.708234" style="stroke: #000000; stroke-width: 0.8"/>
      </g>
     </g>
     <g id="text_9">
      <!-- −50 -->
      <g transform="translate(20.878125 184.507453) scale(0.1 -0.1)">
       <use xlink:href="#DejaVuSans-2212"/>
       <use xlink:href="#DejaVuSans-35" transform="translate(83.789062 0)"/>
       <use xlink:href="#DejaVuSans-30" transform="translate(147.412109 0)"/>
      </g>
     </g>
    </g>
    <g id="ytick_3">
     <g id="line2d_17">
      <path d="M 48.982813 143.047444 
L 568.8 143.047444 
" clip-path="url(#p67275a5846)" style="fill: none; stroke-dasharray: 2.96,1.28; stroke-dashoffset: 0; stroke: #b0b0b0; stroke-opacity: 0.8; stroke-width: 0.8"/>
     </g>
     <g id="line2d_18">
      <g>
       <use xlink:href="#med1b2a4d7b" x="48.982813" y="143.047444" style="stroke: #000000; stroke-width: 0.8"/>
      </g>
     </g>
     <g id="text_10">
      <!-- −40 -->
      <g transform="translate(20.878125 146.846662) scale(0.1 -0.1)">
       <use xlink:href="#DejaVuSans-2212"/>
       <use xlink:href="#DejaVuSans-34" transform="translate(83.789062 0)"/>
       <use xlink:href="#DejaVuSans-30" transform="translate(147.412109 0)"/>
      </g>
     </g>
    </g>
    <g id="ytick_4">
     <g id="line2d_19">
      <path d="M 48.982813 105.386653 
L 568.8 105.386653 
" clip-path="url(#p67275a5846)" style="fill: none; stroke-dasharray: 2.96,1.28; stroke-dashoffset: 0; stroke: #b0b0b0; stroke-opacity: 0.8; stroke-width: 0.8"/>
     </g>
     <g id="line2d_20">
      <g>
       <use xlink:href="#med1b2a4d7b" x="48.982813" y="105.386653" style="stroke: #000000; stroke-width: 0.8"/>
      </g>
     </g>
     <g id="text_11">
      <!-- −30 -->
      <g transform="translate(20.878125 109.185872) scale(0.1 -0.1)">
       <use xlink:href="#DejaVuSans-2212"/>
       <use xlink:href="#DejaVuSans-33" transform="translate(83.789062 0)"/>
       <use xlink:href="#DejaVuSans-30" transform="translate(147.412109 0)"/>
      </g>
     </g>
    </g>
    <g id="ytick_5">
     <g id="line2d_21">
      <path d="M 48.982813 67.725862 
L 568.8 67.725862 
" clip-path="url(#p67275a5846)" style="fill: none; stroke-dasharray: 2.96,1.28; stroke-dashoffset: 0; stroke: #b0b0b0; stroke-opacity: 0.8; stroke-width: 0.8"/>
     </g>
     <g id="line2d_22">
      <g>
       <use xlink:href="#med1b2a4d7b" x="48.982813" y="67.725862" style="stroke: #000000; stroke-width: 0.8"/>
      </g>
     </g>
     <g id="text_12">
      <!-- −20 -->
      <g transform="translate(20.878125 71.525081) scale(0.1 -0.1)">
       <use xlink:href="#DejaVuSans-2212"/>
       <use xlink:href="#DejaVuSans-32" transform="translate(83.789062 0)"/>
       <use xlink:href="#DejaVuSans-30" transform="translate(147.412109 0)"/>
      </g>
     </g>
    </g>
    <g id="ytick_6">
     <g id="line2d_23">
      <path d="M 48.982813 30.065072 
L 568.8 30.065072 
" clip-path="url(#p67275a5846)" style="fill: none; stroke-dasharray: 2.96,1.28; stroke-dashoffset: 0; stroke: #b0b0b0; stroke-opacity: 0.8; stroke-width: 0.8"/>
     </g>
     <g id="line2d_24">
      <g>
       <use xlink:href="#med1b2a4d7b" x="48.982813" y="30.065072" style="stroke: #000000; stroke-width: 0.8"/>
      </g>
     </g>
     <g id="text_13">
      <!-- −10 -->
      <g transform="translate(20.878125 33.86429) scale(0.1 -0.1)">
       <use xlink:href="#DejaVuSans-2212"/>
       <use xlink:href="#DejaVuSans-31" transform="translate(83.789062 0)"/>
       <use xlink:href="#DejaVuSans-30" transform="translate(147.412109 0)"/>
      </g>
     </g>
    </g>
    <g id="text_14">
     <!-- Power density (dB/Hz) -->
     <g transform="translate(14.798437 191.570938) rotate(-90) scale(0.1 -0.1)">
      <defs>
       <path id="DejaVuSans-50" d="M 1259 4147 
L 1259 2394 
L 2053 2394 
Q 2494 2394 2734 2622 
Q 2975 2850 2975 3272 
Q 2975 3691 2734 3919 
Q 2494 4147 2053 4147 
L 1259 4147 
z
M 628 4666 
L 2053 4666 
Q 2838 4666 3239 4311 
Q 3641 3956 3641 3272 
Q 3641 2581 3239 2228 
Q 2838 1875 2053 1875 
L 1259 1875 
L 1259 0 
L 628 0 
L 628 4666 
z
" transform="scale(0.015625)"/>
       <path id="DejaVuSans-6f" d="M 1959 3097 
Q 1497 3097 1228 2736 
Q 959 2375 959 1747 
Q 959 1119 1226 758 
Q 1494 397 1959 397 
Q 2419 397 2687 759 
Q 2956 1122 2956 1747 
Q 2956 2369 2687 2733 
Q 2419 3097 1959 3097 
z
M 1959 3584 
Q 2709 3584 3137 3096 
Q 3566 2609 3566 1747 
Q 3566 888 3137 398 
Q 2709 -91 1959 -91 
Q 1206 -91 779 398 
Q 353 888 353 1747 
Q 353 2609 779 3096 
Q 1206 3584 1959 3584 
z
" transform="scale(0.015625)"/>
       <path id="DejaVuSans-77" d="M 269 3500 
L 844 3500 
L 1563 769 
L 2278 3500 
L 2956 3500 
L 3675 769 
L 4391 3500 
L 4966 3500 
L 4050 0 
L 3372 0 
L 2619 2869 
L 1863 0 
L 1184 0 
L 269 3500 
z
" transform="scale(0.015625)"/>
       <path id="DejaVuSans-64" d="M 2906 2969 
L 2906 4863 
L 3481 4863 
L 3481 0 
L 2906 0 
L 2906 525 
Q 2725 213 2448 61 
Q 2172 -91 1784 -91 
Q 1150 -91 751 415 
Q 353 922 353 1747 
Q 353 2572 751 3078 
Q 1150 3584 1784 3584 
Q 2172 3584 2448 3432 
Q 2725 3281 2906 2969 
z
M 947 1747 
Q 947 1113 1208 752 
Q 1469 391 1925 391 
Q 2381 391 2643 752 
Q 2906 1113 2906 1747 
Q 2906 2381 2643 2742 
Q 2381 3103 1925 3103 
Q 1469 3103 1208 2742 
Q 947 2381 947 1747 
z
" transform="scale(0.015625)"/>
       <path id="DejaVuSans-73" d="M 2834 3397 
L 2834 2853 
Q 2591 2978 2328 3040 
Q 2066 3103 1784 3103 
Q 1356 3103 1142 2972 
Q 928 2841 928 2578 
Q 928 2378 1081 2264 
Q 1234 2150 1697 2047 
L 1894 2003 
Q 2506 1872 2764 1633 
Q 3022 1394 3022 966 
Q 3022 478 2636 193 
Q 2250 -91 1575 -91 
Q 1294 -91 989 -36 
Q 684 19 347 128 
L 347 722 
Q 666 556 975 473 
Q 1284 391 1588 391 
Q 1994 391 2212 530 
Q 2431 669 2431 922 
Q 2431 1156 2273 1281 
Q 2116 1406 1581 1522 
L 1381 1569 
Q 847 1681 609 1914 
Q 372 2147 372 2553 
Q 372 3047 722 3315 
Q 1072 3584 1716 3584 
Q 2034 3584 2315 3537 
Q 2597 3491 2834 3397 
z
" transform="scale(0.015625)"/>
       <path id="DejaVuSans-69" d="M 603 3500 
L 1178 3500 
L 1178 0 
L 603 0 
L 603 3500 
z
M 603 4863 
L 1178 4863 
L 1178 4134 
L 603 4134 
L 603 4863 
z
" transform="scale(0.015625)"/>
       <path id="DejaVuSans-74" d="M 1172 4494 
L 1172 3500 
L 2356 3500 
L 2356 3053 
L 1172 3053 
L 1172 1153 
Q 1172 725 1289 603 
Q 1406 481 1766 481 
L 2356 481 
L 2356 0 
L 1766 0 
Q 1100 0 847 248 
Q 594 497 594 1153 
L 594 3053 
L 172 3053 
L 172 3500 
L 594 3500 
L 594 4494 
L 1172 4494 
z
" transform="scale(0.015625)"/>
       <path id="DejaVuSans-42" d="M 1259 2228 
L 1259 519 
L 2272 519 
Q 2781 519 3026 730 
Q 3272 941 3272 1375 
Q 3272 1813 3026 2020 
Q 2781 2228 2272 2228 
L 1259 2228 
z
M 1259 4147 
L 1259 2741 
L 2194 2741 
Q 2656 2741 2882 2914 
Q 3109 3088 3109 3444 
Q 3109 3797 2882 3972 
Q 2656 4147 2194 4147 
L 1259 4147 
z
M 628 4666 
L 2241 4666 
Q 2963 4666 3353 4366 
Q 3744 4066 3744 3513 
Q 3744 3084 3544 2831 
Q 3344 2578 2956 2516 
Q 3422 2416 3680 2098 
Q 3938 1781 3938 1306 
Q 3938 681 3513 340 
Q 3088 0 2303 0 
L 628 0 
L 628 4666 
z
" transform="scale(0.015625)"/>
       <path id="DejaVuSans-2f" d="M 1625 4666 
L 2156 4666 
L 531 -594 
L 0 -594 
L 1625 4666 
z
" transform="scale(0.015625)"/>
      </defs>
      <use xlink:href="#DejaVuSans-50"/>
      <use xlink:href="#DejaVuSans-6f" transform="translate(56.677734 0)"/>
      <use xlink:href="#DejaVuSans-77" transform="translate(117.859375 0)"/>
      <use xlink:href="#DejaVuSans-65" transform="translate(199.646484 0)"/>
      <use xlink:href="#DejaVuSans-72" transform="translate(261.169922 0)"/>
      <use xlink:href="#DejaVuSans-20" transform="translate(302.283203 0)"/>
      <use xlink:href="#DejaVuSans-64" transform="translate(334.070312 0)"/>
      <use xlink:href="#DejaVuSans-65" transform="translate(397.546875 0)"/>
      <use xlink:href="#DejaVuSans-6e" transform="translate(459.070312 0)"/>
      <use xlink:href="#DejaVuSans-73" transform="translate(522.449219 0)"/>
      <use xlink:href="#DejaVuSans-69" transform="translate(574.548828 0)"/>
      <use xlink:href="#DejaVuSans-74" transform="translate(602.332031 0)"/>
      <use xlink:href="#DejaVuSans-79" transform="translate(641.541016 0)"/>
      <use xlink:href="#DejaVuSans-20" transform="translate(700.720703 0)"/>
      <use xlink:href="#DejaVuSans-28" transform="translate(732.507812 0)"/>
      <use xlink:href="#DejaVuSans-64" transform="translate(771.521484 0)"/>
      <use xlink:href="#DejaVuSans-42" transform="translate(834.998047 0)"/>
      <use xlink:href="#DejaVuSans-2f" transform="translate(903.601562 0)"/>
      <use xlink:href="#DejaVuSans-48" transform="translate(937.292969 0)"/>
      <use xlink:href="#DejaVuSans-7a" transform="translate(1012.488281 0)"/>
      <use xlink:href="#DejaVuSans-29" transform="translate(1064.978516 0)"/>
     </g>
    </g>
   </g>
   <g id="line2d_25">
    <path d="M 72.610866 236.50167 
L 73.072352 225.231117 
L 73.995323 225.669834 
L 74.456808 225.908869 
L 74.918294 226.007277 
L 75.379779 225.81153 
L 75.841264 225.174077 
L 76.30275 224.005933 
L 77.225721 220.236137 
L 79.071662 211.542572 
L 79.533148 210.007855 
L 79.994633 208.897884 
L 80.456119 208.252389 
L 80.917604 208.09749 
L 81.37909 208.450045 
L 81.840575 209.319157 
L 82.30206 210.704202 
L 83.225031 214.919098 
L 84.609488 222.86502 
L 85.070973 224.551815 
L 85.532458 224.909843 
L 85.993944 223.76852 
L 86.455429 221.426169 
L 88.762857 206.92656 
L 89.685827 203.22364 
L 90.147313 201.943315 
L 90.608798 201.025641 
L 91.070284 200.451977 
L 91.531769 200.199864 
L 91.993255 200.241786 
L 92.45474 200.54344 
L 93.377711 201.746054 
L 95.685138 205.568543 
L 96.608109 206.579415 
L 97.992565 207.716643 
L 98.915536 208.285672 
L 99.377021 208.419577 
L 99.838507 208.396042 
L 100.299992 208.19929 
L 101.222963 207.424339 
L 102.145934 206.704304 
L 102.607419 206.616693 
L 103.068905 206.822729 
L 103.53039 207.376218 
L 103.991876 208.301276 
L 104.914847 211.185958 
L 106.760788 218.04882 
L 107.222274 219.012017 
L 107.683759 219.480793 
L 108.145245 219.545627 
L 109.529701 219.044973 
L 109.991186 219.152108 
L 110.452672 219.542723 
L 110.914157 220.240914 
L 111.837128 222.460338 
L 112.760099 225.127277 
L 113.221584 226.166538 
L 113.68307 226.691051 
L 114.144555 226.529927 
L 114.606041 225.66914 
L 115.529011 222.57435 
L 116.451982 219.328651 
L 116.913468 218.131495 
L 117.374953 217.357716 
L 117.836439 217.055953 
L 118.297924 217.242175 
L 118.759409 217.901856 
L 119.220895 218.983464 
L 120.605351 223.306895 
L 121.066837 224.197038 
L 121.528322 224.249657 
L 121.989807 223.306646 
L 122.451293 221.48057 
L 124.75872 209.445364 
L 125.681691 206.418827 
L 126.143176 205.442985 
L 126.604662 204.799611 
L 127.066147 204.459423 
L 127.527633 204.389065 
L 127.989118 204.553242 
L 128.450603 204.916585 
L 129.373574 206.109538 
L 130.296545 207.747678 
L 131.681001 210.781463 
L 133.065458 214.515033 
L 133.988429 217.551905 
L 135.372885 223.034862 
L 136.295856 226.616095 
L 136.757341 227.880096 
L 137.218827 228.497504 
L 137.680312 228.356795 
L 138.141797 227.528038 
L 139.987739 222.296212 
L 140.449225 221.567749 
L 140.91071 221.264716 
L 141.372195 221.38486 
L 141.833681 221.88437 
L 142.756652 223.65849 
L 143.679623 225.544248 
L 144.141108 226.132357 
L 144.602593 226.316822 
L 145.064079 226.051224 
L 145.525564 225.366587 
L 146.448535 223.150864 
L 147.832991 219.61072 
L 148.294477 218.761358 
L 148.755962 218.151215 
L 149.217448 217.772304 
L 150.140419 217.479302 
L 150.601904 217.346651 
L 151.063389 217.023677 
L 151.524875 216.365423 
L 151.98636 215.295656 
L 152.909331 212.208444 
L 153.832302 209.276708 
L 154.293787 208.482478 
L 154.755273 208.389309 
L 155.216758 209.093863 
L 155.678244 210.564183 
L 156.601215 214.447391 
L 157.0627 215.472013 
L 157.524185 215.206941 
L 157.985671 214.208919 
L 158.447156 213.652266 
L 158.908642 214.484761 
L 159.370127 216.212549 
L 159.831613 213.98726 
L 160.293098 202.579894 
L 161.216069 173.437247 
L 162.13904 151.278007 
L 163.062011 135.225242 
L 163.984981 123.609544 
L 164.907952 115.513786 
L 165.369438 112.619689 
L 165.830923 110.43988 
L 166.292409 108.948078 
L 166.753894 108.127575 
L 167.215379 107.97019 
L 167.676865 108.475791 
L 168.13835 109.652345 
L 168.599836 111.516487 
L 169.061321 114.094709 
L 169.984292 121.561736 
L 170.907263 132.570826 
L 171.830234 148.100879 
L 172.753205 169.970001 
L 173.676175 198.168613 
L 174.137661 206.310984 
L 174.599146 205.32886 
L 175.060632 202.532115 
L 175.522117 201.591413 
L 175.983603 202.841751 
L 176.445088 205.923696 
L 177.829544 219.275028 
L 178.29103 221.827073 
L 178.752515 222.730584 
L 179.214001 222.75063 
L 179.675486 222.629688 
L 180.136971 222.681513 
L 181.059942 222.972861 
L 181.521428 222.825975 
L 181.982913 222.373238 
L 183.828855 219.756624 
L 185.213311 218.639484 
L 186.136282 217.72025 
L 188.443709 214.686945 
L 188.905195 214.530817 
L 189.36668 214.728311 
L 189.828166 215.339409 
L 190.289651 216.395535 
L 191.212622 219.75887 
L 192.597078 225.874091 
L 193.058564 227.195385 
L 193.520049 227.816326 
L 193.981534 227.795168 
L 194.904505 226.793929 
L 195.365991 226.315574 
L 195.827476 226.051272 
L 196.288962 226.024842 
L 197.673418 226.351018 
L 198.134903 225.987338 
L 198.596389 225.101604 
L 199.057874 223.650263 
L 199.980845 219.422222 
L 201.826787 209.895767 
L 202.749758 206.189694 
L 203.672728 203.608878 
L 204.134214 202.762766 
L 204.595699 202.204329 
L 205.057185 201.913292 
L 205.51867 201.857338 
L 205.980156 201.992377 
L 206.903126 202.616551 
L 208.287583 203.676588 
L 209.672039 204.587541 
L 210.59501 205.543823 
L 211.517981 207.089865 
L 212.440952 209.20301 
L 214.286893 213.734467 
L 215.209864 215.345537 
L 215.67135 215.896484 
L 216.132835 216.271806 
L 216.59432 216.466493 
L 217.055806 216.469524 
L 217.517291 216.265196 
L 217.978777 215.839443 
L 218.440262 215.188579 
L 219.363233 213.288664 
L 221.67066 207.552768 
L 222.593631 206.123117 
L 223.055116 205.769346 
L 223.516602 205.689946 
L 223.978087 205.901861 
L 224.439573 206.416535 
L 224.901058 207.240564 
L 225.362544 208.375988 
L 226.285514 211.564405 
L 227.208485 215.876285 
L 229.515912 228.017045 
L 229.977398 229.267061 
L 230.438883 229.574183 
L 230.900369 228.901941 
L 231.361854 227.414112 
L 232.74631 220.857103 
L 233.669281 216.848495 
L 234.592252 214.012653 
L 235.053738 213.09938 
L 235.515223 212.528243 
L 235.976708 212.294017 
L 236.438194 212.385841 
L 236.899679 212.786952 
L 237.361165 213.473038 
L 238.284136 215.545716 
L 240.130077 220.304527 
L 240.591563 220.904575 
L 241.053048 221.013958 
L 241.514534 220.589872 
L 241.976019 219.674932 
L 242.89899 216.861586 
L 244.283446 212.28058 
L 245.206417 210.074436 
L 245.667902 209.342494 
L 246.129388 208.862525 
L 246.590873 208.619631 
L 247.052359 208.587005 
L 247.513844 208.728166 
L 248.436815 209.357836 
L 250.744242 211.517055 
L 251.667213 212.734286 
L 252.590184 214.51831 
L 253.97464 218.146313 
L 254.897611 220.371289 
L 255.359096 221.090473 
L 255.820582 221.438408 
L 256.282067 221.413206 
L 256.743553 221.087234 
L 258.128009 219.619551 
L 258.589494 219.385154 
L 259.05098 219.406948 
L 259.512465 219.696186 
L 260.435436 220.88134 
L 261.358407 222.121213 
L 261.819892 222.407588 
L 262.281378 222.334515 
L 262.742863 221.88409 
L 263.204349 221.107527 
L 264.12732 218.961942 
L 265.511776 215.688487 
L 266.434747 214.266806 
L 266.896232 213.901993 
L 267.357718 213.780522 
L 267.819203 213.887871 
L 268.280688 214.192264 
L 269.203659 215.209835 
L 271.049601 217.558333 
L 271.972572 218.273277 
L 272.434057 218.435178 
L 273.357028 218.397521 
L 273.818514 218.215478 
L 274.279999 217.903008 
L 274.741484 217.412979 
L 275.20297 216.699137 
L 276.125941 214.65038 
L 277.048912 212.501317 
L 277.510397 211.756994 
L 277.971882 211.36241 
L 278.433368 211.32441 
L 278.894853 211.570568 
L 280.27931 212.650151 
L 281.663766 213.279646 
L 282.125251 213.779535 
L 283.048222 215.374524 
L 284.432679 218.141054 
L 284.894164 219.44626 
L 285.355649 221.335679 
L 286.740106 228.334287 
L 287.201591 227.623284 
L 289.047533 216.203085 
L 289.509018 215.8394 
L 289.970504 216.148636 
L 290.431989 215.932179 
L 290.893475 214.125633 
L 291.816445 207.888421 
L 292.277931 206.119738 
L 292.739416 206.453157 
L 293.200902 209.051071 
L 293.662387 212.465952 
L 294.123873 211.685606 
L 295.508329 187.271019 
L 295.969814 183.092377 
L 296.4313 182.513726 
L 296.892785 186.496417 
L 297.354271 197.387169 
L 297.815756 214.918253 
L 298.277241 197.530767 
L 298.738727 175.60052 
L 299.200212 162.029633 
L 299.661698 154.047709 
L 300.123183 150.832637 
L 300.584669 153.275724 
L 301.046154 166.126159 
L 301.507639 220.707867 
L 301.969125 152.558081 
L 302.43061 123.632726 
L 302.892096 104.907562 
L 303.815067 79.396948 
L 304.738037 62.063714 
L 305.661008 49.737805 
L 306.583979 41.151469 
L 307.50695 35.684429 
L 307.968435 34.013577 
L 308.429921 33.018974 
L 308.891406 32.688267 
L 309.352892 33.017354 
L 309.814377 34.0101 
L 310.275863 35.678589 
L 310.737348 38.043961 
L 311.198833 41.137961 
L 312.121804 49.708737 
L 313.044775 62.001231 
L 313.967746 79.255825 
L 314.890717 104.53879 
L 315.352202 122.948813 
L 315.813688 150.915411 
L 316.275173 222.815238 
L 316.736659 168.884694 
L 317.198144 154.981297 
L 317.659629 152.242954 
L 318.121115 155.363869 
L 318.5826 163.334818 
L 319.044086 176.88279 
L 319.505571 198.181128 
L 319.967057 212.59064 
L 320.428542 197.136502 
L 320.890027 187.300192 
L 321.351513 183.989101 
L 321.812998 185.29617 
L 322.274484 190.53825 
L 322.735969 199.668523 
L 323.65894 222.390548 
L 324.120425 219.559604 
L 324.581911 212.479878 
L 325.043396 208.17052 
L 325.504882 206.867435 
L 325.966367 207.600889 
L 326.427853 209.035054 
L 326.889338 209.689615 
L 327.350823 208.841516 
L 328.273794 205.590976 
L 328.73528 205.065051 
L 329.196765 205.833275 
L 329.658251 207.906082 
L 330.581221 214.926916 
L 331.504192 222.055175 
L 331.965678 224.322973 
L 332.427163 225.72968 
L 332.888649 226.496343 
L 333.350134 226.574491 
L 333.811619 225.71818 
L 334.273105 223.918435 
L 335.196076 219.620242 
L 335.657561 218.463381 
L 336.119047 218.609843 
L 336.580532 220.328731 
L 337.042017 223.71628 
L 337.964988 233.163647 
L 338.426474 234.958526 
L 338.887959 232.581053 
L 339.81093 225.433465 
L 340.272415 224.039058 
L 340.733901 223.951502 
L 341.195386 223.506309 
L 341.656872 220.487304 
L 343.041328 203.985451 
L 343.502813 201.714999 
L 343.964299 202.483117 
L 344.425784 206.869248 
L 344.88727 214.162966 
L 345.348755 214.996409 
L 346.271726 189.082552 
L 346.733211 179.984482 
L 347.194697 175.234467 
L 347.656182 175.459251 
L 348.117668 183.509161 
L 348.579153 213.66737 
L 349.040639 190.256996 
L 349.502124 154.774661 
L 349.963609 133.718916 
L 350.88658 106.06981 
L 351.809551 87.570323 
L 352.732522 74.417521 
L 353.655493 65.164151 
L 354.578464 59.114432 
L 355.039949 57.170409 
L 355.501435 55.909649 
L 355.96292 55.316622 
L 356.424405 55.384289 
L 356.885891 56.113633 
L 357.347376 57.513744 
L 357.808862 59.602456 
L 358.270347 62.407655 
L 359.193318 70.343892 
L 360.116289 81.871062 
L 361.03926 98.089849 
L 361.962231 121.600168 
L 362.423716 138.225356 
L 362.885201 161.663598 
L 363.346687 199.97609 
L 363.808172 191.697149 
L 364.269658 175.58527 
L 364.731143 170.91971 
L 365.192629 172.188463 
L 365.654114 177.847754 
L 366.115599 187.746663 
L 367.03857 217.457335 
L 367.500056 216.458041 
L 367.961541 207.519618 
L 368.423027 202.184557 
L 368.884512 200.635731 
L 369.345997 201.899365 
L 370.730454 211.833163 
L 371.191939 213.255759 
L 371.653425 213.636858 
L 372.11491 214.221409 
L 372.576395 215.956731 
L 373.037881 219.313869 
L 373.499366 224.393039 
L 374.422337 236.913118 
L 374.883823 239.781017 
L 375.345308 238.030516 
L 377.19125 222.590778 
L 378.114221 217.101754 
L 379.037191 213.213457 
L 379.498677 212.030035 
L 379.960162 211.364986 
L 380.421648 211.156298 
L 380.883133 211.298533 
L 381.806104 212.14526 
L 383.652046 214.340188 
L 384.575017 215.82449 
L 386.420958 219.470437 
L 387.805415 222.645056 
L 388.728386 224.748331 
L 389.189871 225.391987 
L 389.651356 225.465395 
L 390.112842 224.819863 
L 390.574327 223.481753 
L 392.420269 216.113244 
L 392.881754 214.95988 
L 393.34324 214.335437 
L 393.804725 214.256922 
L 394.266211 214.686109 
L 394.727696 215.523672 
L 396.112152 218.499892 
L 396.573638 218.84072 
L 397.035123 218.629363 
L 397.496609 217.960721 
L 398.881065 215.240578 
L 399.34255 214.616929 
L 399.804036 214.228422 
L 400.265521 214.047345 
L 401.188492 214.05166 
L 402.111463 214.049752 
L 402.572948 213.904443 
L 403.495919 213.24697 
L 405.803346 211.005293 
L 406.264832 210.834734 
L 406.726317 210.836868 
L 407.187803 211.011228 
L 408.110774 211.737878 
L 409.033744 212.463211 
L 409.49523 212.586792 
L 409.956715 212.461655 
L 410.418201 212.089648 
L 412.264142 210.005126 
L 412.725628 209.94638 
L 413.187113 210.270463 
L 413.648599 211.033987 
L 414.110084 212.268141 
L 414.57157 213.974863 
L 415.49454 218.586748 
L 416.417511 223.580791 
L 416.878997 225.31761 
L 417.340482 225.97251 
L 417.801968 225.37871 
L 418.263453 223.734582 
L 420.57088 212.279087 
L 421.493851 209.303581 
L 421.955336 208.291429 
L 422.416822 207.59164 
L 422.878307 207.203165 
L 423.339793 207.128576 
L 423.801278 207.373632 
L 424.262764 207.946029 
L 424.724249 208.853596 
L 425.185734 210.10189 
L 426.108705 213.609318 
L 427.031676 218.283031 
L 428.416132 225.602713 
L 428.877618 227.19722 
L 429.339103 227.917534 
L 429.800589 227.671695 
L 430.262074 226.578085 
L 431.185045 222.893605 
L 432.569501 216.823745 
L 433.492472 213.495901 
L 434.415443 210.927668 
L 435.338414 209.131415 
L 435.799899 208.519718 
L 436.261385 208.092968 
L 436.72287 207.842186 
L 437.184356 207.754187 
L 437.645841 207.811883 
L 438.568812 208.283678 
L 439.491783 209.097993 
L 440.876239 210.728241 
L 442.260695 212.745787 
L 444.106637 215.639798 
L 445.029608 216.644632 
L 445.491093 216.871878 
L 445.952579 216.858311 
L 446.414064 216.582826 
L 446.87555 216.051741 
L 447.79852 214.391588 
L 449.644462 210.644295 
L 450.567433 209.463583 
L 451.490404 208.858548 
L 453.336346 208.133828 
L 455.182287 207.070147 
L 455.643773 207.043513 
L 456.105258 207.239639 
L 456.566744 207.705232 
L 457.028229 208.469905 
L 457.489714 209.545043 
L 458.412685 212.581652 
L 459.335656 216.560288 
L 462.104569 229.327946 
L 463.02754 232.002257 
L 463.489025 232.72647 
L 463.95051 233.037434 
L 464.411996 233.009554 
L 465.334967 232.388249 
L 466.257938 231.496878 
L 466.719423 230.887082 
L 467.180908 230.007694 
L 467.642394 228.726546 
L 468.565365 224.812784 
L 470.411306 215.182836 
L 471.334277 211.736216 
L 471.795763 210.565088 
L 472.257248 209.755768 
L 472.718734 209.279301 
L 473.180219 209.093266 
L 473.641704 209.145973 
L 474.10319 209.381124 
L 475.026161 210.185088 
L 476.872102 212.289509 
L 478.256559 214.268359 
L 479.17953 215.619962 
L 479.641015 216.130186 
L 480.1025 216.418505 
L 480.563986 216.417955 
L 481.025471 216.102314 
L 481.486957 215.497759 
L 482.409928 213.738679 
L 483.332899 211.911367 
L 484.255869 210.654508 
L 484.717355 210.356101 
L 485.17884 210.308925 
L 485.640326 210.524925 
L 486.101811 211.011303 
L 486.563297 211.772766 
L 487.024782 212.812192 
L 487.947753 215.717931 
L 488.870724 219.612292 
L 490.716665 227.933008 
L 491.178151 229.270731 
L 491.639636 230.058448 
L 492.101122 230.311989 
L 492.562607 230.134252 
L 493.024093 229.661444 
L 493.947063 228.248087 
L 494.870034 226.459582 
L 497.638947 220.186629 
L 498.561918 219.039101 
L 499.946374 217.795077 
L 500.407859 217.034964 
L 500.869345 215.937746 
L 501.792316 212.842089 
L 503.176772 207.777008 
L 504.099743 205.418838 
L 504.561228 204.679138 
L 505.022714 204.216484 
L 505.484199 203.989774 
L 506.40717 204.004662 
L 507.791626 204.215191 
L 508.714597 203.962754 
L 509.637568 203.34974 
L 512.867966 200.693838 
L 516.559849 198.338411 
L 517.021335 198.305377 
L 517.48282 198.477338 
L 517.944306 198.901445 
L 518.405791 199.613557 
L 518.867277 200.634628 
L 519.790247 203.592975 
L 521.174704 209.647062 
L 522.097675 213.682216 
L 523.020645 216.856273 
L 525.789558 224.534747 
L 527.6355 231.523694 
L 528.096985 232.47255 
L 528.558471 232.593359 
L 529.019956 231.786881 
L 529.481441 230.160394 
L 530.404412 225.514308 
L 531.788869 218.665289 
L 532.711839 215.572254 
L 533.173325 214.565202 
L 533.63481 213.907571 
L 534.096296 213.57457 
L 534.557781 213.531288 
L 535.019267 213.735644 
L 535.480752 214.142303 
L 536.403723 215.397017 
L 537.326694 217.074207 
L 538.249665 219.183761 
L 539.172635 221.864344 
L 541.480063 229.477111 
L 541.941548 230.297056 
L 542.403033 230.645518 
L 542.864519 230.565422 
L 543.78749 229.670586 
L 544.710461 228.838898 
L 545.171946 240.053608 
L 545.171946 240.053608 
" clip-path="url(#p67275a5846)" style="fill: none; stroke: #1f77b4; stroke-linecap: square"/>
   </g>
   <g id="patch_3">
    <path d="M 48.982813 250.421875 
L 48.982813 22.32 
" style="fill: none; stroke: #000000; stroke-width: 0.8; stroke-linejoin: miter; stroke-linecap: square"/>
   </g>
   <g id="patch_4">
    <path d="M 568.8 250.421875 
L 568.8 22.32 
" style="fill: none; stroke: #000000; stroke-width: 0.8; stroke-linejoin: miter; stroke-linecap: square"/>
   </g>
   <g id="patch_5">
    <path d="M 48.982813 250.421875 
L 568.8 250.421875 
" style="fill: none; stroke: #000000; stroke-width: 0.8; stroke-linejoin: miter; stroke-linecap: square"/>
   </g>
   <g id="patch_6">
    <path d="M 48.982813 22.32 
L 568.8 22.32 
" style="fill: none; stroke: #000000; stroke-width: 0.8; stroke-linejoin: miter; stroke-linecap: square"/>
   </g>
   <g id="text_15">
    <!-- Periodogram of $x_r[n]$ -->
    <g transform="translate(246.971406 16.32) scale(0.12 -0.12)">
     <defs>
      <path id="DejaVuSans-67" d="M 2906 1791 
Q 2906 2416 2648 2759 
Q 2391 3103 1925 3103 
Q 1463 3103 1205 2759 
Q 947 2416 947 1791 
Q 947 1169 1205 825 
Q 1463 481 1925 481 
Q 2391 481 2648 825 
Q 2906 1169 2906 1791 
z
M 3481 434 
Q 3481 -459 3084 -895 
Q 2688 -1331 1869 -1331 
Q 1566 -1331 1297 -1286 
Q 1028 -1241 775 -1147 
L 775 -588 
Q 1028 -725 1275 -790 
Q 1522 -856 1778 -856 
Q 2344 -856 2625 -561 
Q 2906 -266 2906 331 
L 2906 616 
Q 2728 306 2450 153 
Q 2172 0 1784 0 
Q 1141 0 747 490 
Q 353 981 353 1791 
Q 353 2603 747 3093 
Q 1141 3584 1784 3584 
Q 2172 3584 2450 3431 
Q 2728 3278 2906 2969 
L 2906 3500 
L 3481 3500 
L 3481 434 
z
" transform="scale(0.015625)"/>
      <path id="DejaVuSans-61" d="M 2194 1759 
Q 1497 1759 1228 1600 
Q 959 1441 959 1056 
Q 959 750 1161 570 
Q 1363 391 1709 391 
Q 2188 391 2477 730 
Q 2766 1069 2766 1631 
L 2766 1759 
L 2194 1759 
z
M 3341 1997 
L 3341 0 
L 2766 0 
L 2766 531 
Q 2569 213 2275 61 
Q 1981 -91 1556 -91 
Q 1019 -91 701 211 
Q 384 513 384 1019 
Q 384 1609 779 1909 
Q 1175 2209 1959 2209 
L 2766 2209 
L 2766 2266 
Q 2766 2663 2505 2880 
Q 2244 3097 1772 3097 
Q 1472 3097 1187 3025 
Q 903 2953 641 2809 
L 641 3341 
Q 956 3463 1253 3523 
Q 1550 3584 1831 3584 
Q 2591 3584 2966 3190 
Q 3341 2797 3341 1997 
z
" transform="scale(0.015625)"/>
      <path id="DejaVuSans-6d" d="M 3328 2828 
Q 3544 3216 3844 3400 
Q 4144 3584 4550 3584 
Q 5097 3584 5394 3201 
Q 5691 2819 5691 2113 
L 5691 0 
L 5113 0 
L 5113 2094 
Q 5113 2597 4934 2840 
Q 4756 3084 4391 3084 
Q 3944 3084 3684 2787 
Q 3425 2491 3425 1978 
L 3425 0 
L 2847 0 
L 2847 2094 
Q 2847 2600 2669 2842 
Q 2491 3084 2119 3084 
Q 1678 3084 1418 2786 
Q 1159 2488 1159 1978 
L 1159 0 
L 581 0 
L 581 3500 
L 1159 3500 
L 1159 2956 
Q 1356 3278 1631 3431 
Q 1906 3584 2284 3584 
Q 2666 3584 2933 3390 
Q 3200 3197 3328 2828 
z
" transform="scale(0.015625)"/>
      <path id="DejaVuSans-66" d="M 2375 4863 
L 2375 4384 
L 1825 4384 
Q 1516 4384 1395 4259 
Q 1275 4134 1275 3809 
L 1275 3500 
L 2222 3500 
L 2222 3053 
L 1275 3053 
L 1275 0 
L 697 0 
L 697 3053 
L 147 3053 
L 147 3500 
L 697 3500 
L 697 3744 
Q 697 4328 969 4595 
Q 1241 4863 1831 4863 
L 2375 4863 
z
" transform="scale(0.015625)"/>
      <path id="DejaVuSans-Oblique-78" d="M 3841 3500 
L 2234 1784 
L 3219 0 
L 2559 0 
L 1819 1388 
L 531 0 
L -166 0 
L 1556 1844 
L 641 3500 
L 1300 3500 
L 1972 2234 
L 3144 3500 
L 3841 3500 
z
" transform="scale(0.015625)"/>
      <path id="DejaVuSans-Oblique-72" d="M 2853 2969 
Q 2766 3016 2653 3041 
Q 2541 3066 2413 3066 
Q 1953 3066 1609 2717 
Q 1266 2369 1153 1784 
L 800 0 
L 225 0 
L 909 3500 
L 1484 3500 
L 1375 2956 
Q 1603 3259 1920 3421 
Q 2238 3584 2597 3584 
Q 2691 3584 2781 3573 
Q 2872 3563 2963 3538 
L 2853 2969 
z
" transform="scale(0.015625)"/>
      <path id="DejaVuSans-5b" d="M 550 4863 
L 1875 4863 
L 1875 4416 
L 1125 4416 
L 1125 -397 
L 1875 -397 
L 1875 -844 
L 550 -844 
L 550 4863 
z
" transform="scale(0.015625)"/>
      <path id="DejaVuSans-Oblique-6e" d="M 3566 2113 
L 3156 0 
L 2578 0 
L 2988 2091 
Q 3016 2238 3031 2350 
Q 3047 2463 3047 2528 
Q 3047 2791 2881 2937 
Q 2716 3084 2419 3084 
Q 1956 3084 1622 2776 
Q 1288 2469 1184 1941 
L 800 0 
L 225 0 
L 903 3500 
L 1478 3500 
L 1363 2950 
Q 1603 3253 1940 3418 
Q 2278 3584 2650 3584 
Q 3113 3584 3367 3334 
Q 3622 3084 3622 2631 
Q 3622 2519 3608 2391 
Q 3594 2263 3566 2113 
z
" transform="scale(0.015625)"/>
      <path id="DejaVuSans-5d" d="M 1947 4863 
L 1947 -844 
L 622 -844 
L 622 -397 
L 1369 -397 
L 1369 4416 
L 622 4416 
L 622 4863 
L 1947 4863 
z
" transform="scale(0.015625)"/>
     </defs>
     <use xlink:href="#DejaVuSans-50" transform="translate(0 0.015625)"/>
     <use xlink:href="#DejaVuSans-65" transform="translate(60.302734 0.015625)"/>
     <use xlink:href="#DejaVuSans-72" transform="translate(121.826172 0.015625)"/>
     <use xlink:href="#DejaVuSans-69" transform="translate(162.939453 0.015625)"/>
     <use xlink:href="#DejaVuSans-6f" transform="translate(190.722656 0.015625)"/>
     <use xlink:href="#DejaVuSans-64" transform="translate(251.904297 0.015625)"/>
     <use xlink:href="#DejaVuSans-6f" transform="translate(315.380859 0.015625)"/>
     <use xlink:href="#DejaVuSans-67" transform="translate(376.5625 0.015625)"/>
     <use xlink:href="#DejaVuSans-72" transform="translate(440.039062 0.015625)"/>
     <use xlink:href="#DejaVuSans-61" transform="translate(481.152344 0.015625)"/>
     <use xlink:href="#DejaVuSans-6d" transform="translate(542.431641 0.015625)"/>
     <use xlink:href="#DejaVuSans-20" transform="translate(639.84375 0.015625)"/>
     <use xlink:href="#DejaVuSans-6f" transform="translate(671.630859 0.015625)"/>
     <use xlink:href="#DejaVuSans-66" transform="translate(732.8125 0.015625)"/>
     <use xlink:href="#DejaVuSans-20" transform="translate(768.017578 0.015625)"/>
     <use xlink:href="#DejaVuSans-Oblique-78" transform="translate(799.804688 0.015625)"/>
     <use xlink:href="#DejaVuSans-Oblique-72" transform="translate(858.984375 -16.390625) scale(0.7)"/>
     <use xlink:href="#DejaVuSans-5b" transform="translate(890.498047 0.015625)"/>
     <use xlink:href="#DejaVuSans-Oblique-6e" transform="translate(929.511719 0.015625)"/>
     <use xlink:href="#DejaVuSans-5d" transform="translate(992.890625 0.015625)"/>
    </g>
   </g>
  </g>
 </g>
 <defs>
  <clipPath id="p67275a5846">
   <rect x="48.982813" y="22.32" width="519.817188" height="228.101875"/>
  </clipPath>
 </defs>
</svg>
