<?xml version="1.0" encoding="utf-8" standalone="no"?>
<!DOCTYPE svg PUBLIC "-//W3C//DTD SVG 1.1//EN"
  "http://www.w3.org/Graphics/SVG/1.1/DTD/svg11.dtd">
<svg xmlns:xlink="http://www.w3.org/1999/xlink" width="576pt" height="288pt" viewBox="0 0 576 288" xmlns="http://www.w3.org/2000/svg" version="1.1">
 <metadata>
  <rdf:RDF xmlns:dc="http://purl.org/dc/elements/1.1/" xmlns:cc="http://creativecommons.org/ns#" xmlns:rdf="http://www.w3.org/1999/02/22-rdf-syntax-ns#">
   <cc:Work>
    <dc:type rdf:resource="http://purl.org/dc/dcmitype/StillImage"/>
    <dc:date>2025-05-10T16:31:33.337027</dc:date>
    <dc:format>image/svg+xml</dc:format>
    <dc:creator>
     <cc:Agent>
      <dc:title>Matplotlib v3.10.3, https://matplotlib.org/</dc:title>
     </cc:Agent>
    </dc:creator>
   </cc:Work>
  </rdf:RDF>
 </metadata>
 <defs>
  <style type="text/css">*{stroke-linejoin: round; stroke-linecap: butt}</style>
 </defs>
 <g id="figure_1">
  <g id="patch_1">
   <path d="M 0 288 
L 576 288 
L 576 0 
L 0 0 
z
" style="fill: #ffffff"/>
  </g>
  <g id="axes_1">
   <g id="patch_2">
    <path d="M 52.160938 250.421875 
L 568.8 250.421875 
L 568.8 7.2 
L 52.160938 7.2 
z
" style="fill: #ffffff"/>
   </g>
   <g id="matplotlib.axis_1">
    <g id="xtick_1">
     <g id="line2d_1">
      <path d="M 75.644531 250.421875 
L 75.644531 7.2 
" clip-path="url(#p48034b75fd)" style="fill: none; stroke-dasharray: 2.96,1.28; stroke-dashoffset: 0; stroke: #b0b0b0; stroke-opacity: 0.8; stroke-width: 0.8"/>
     </g>
     <g id="line2d_2">
      <defs>
       <path id="m259d153165" d="M 0 0 
L 0 3.5 
" style="stroke: #000000; stroke-width: 0.8"/>
      </defs>
      <g>
       <use xlink:href="#m259d153165" x="75.644531" y="250.421875" style="stroke: #000000; stroke-width: 0.8"/>
      </g>
     </g>
     <g id="text_1">
      <!-- 0 -->
      <g transform="translate(72.463281 265.020312) scale(0.1 -0.1)">
       <defs>
        <path id="DejaVuSans-30" d="M 2034 4250 
Q 1547 4250 1301 3770 
Q 1056 3291 1056 2328 
Q 1056 1369 1301 889 
Q 1547 409 2034 409 
Q 2525 409 2770 889 
Q 3016 1369 3016 2328 
Q 3016 3291 2770 3770 
Q 2525 4250 2034 4250 
z
M 2034 4750 
Q 2819 4750 3233 4129 
Q 3647 3509 3647 2328 
Q 3647 1150 3233 529 
Q 2819 -91 2034 -91 
Q 1250 -91 836 529 
Q 422 1150 422 2328 
Q 422 3509 836 4129 
Q 1250 4750 2034 4750 
z
" transform="scale(0.015625)"/>
       </defs>
       <use xlink:href="#DejaVuSans-30"/>
      </g>
     </g>
    </g>
    <g id="xtick_2">
     <g id="line2d_3">
      <path d="M 134.500656 250.421875 
L 134.500656 7.2 
" clip-path="url(#p48034b75fd)" style="fill: none; stroke-dasharray: 2.96,1.28; stroke-dashoffset: 0; stroke: #b0b0b0; stroke-opacity: 0.8; stroke-width: 0.8"/>
     </g>
     <g id="line2d_4">
      <g>
       <use xlink:href="#m259d153165" x="134.500656" y="250.421875" style="stroke: #000000; stroke-width: 0.8"/>
      </g>
     </g>
     <g id="text_2">
      <!-- 50 -->
      <g transform="translate(128.138156 265.020312) scale(0.1 -0.1)">
       <defs>
        <path id="DejaVuSans-35" d="M 691 4666 
L 3169 4666 
L 3169 4134 
L 1269 4134 
L 1269 2991 
Q 1406 3038 1543 3061 
Q 1681 3084 1819 3084 
Q 2600 3084 3056 2656 
Q 3513 2228 3513 1497 
Q 3513 744 3044 326 
Q 2575 -91 1722 -91 
Q 1428 -91 1123 -41 
Q 819 9 494 109 
L 494 744 
Q 775 591 1075 516 
Q 1375 441 1709 441 
Q 2250 441 2565 725 
Q 2881 1009 2881 1497 
Q 2881 1984 2565 2268 
Q 2250 2553 1709 2553 
Q 1456 2553 1204 2497 
Q 953 2441 691 2322 
L 691 4666 
z
" transform="scale(0.015625)"/>
       </defs>
       <use xlink:href="#DejaVuSans-35"/>
       <use xlink:href="#DejaVuSans-30" transform="translate(63.623047 0)"/>
      </g>
     </g>
    </g>
    <g id="xtick_3">
     <g id="line2d_5">
      <path d="M 193.356781 250.421875 
L 193.356781 7.2 
" clip-path="url(#p48034b75fd)" style="fill: none; stroke-dasharray: 2.96,1.28; stroke-dashoffset: 0; stroke: #b0b0b0; stroke-opacity: 0.8; stroke-width: 0.8"/>
     </g>
     <g id="line2d_6">
      <g>
       <use xlink:href="#m259d153165" x="193.356781" y="250.421875" style="stroke: #000000; stroke-width: 0.8"/>
      </g>
     </g>
     <g id="text_3">
      <!-- 100 -->
      <g transform="translate(183.813031 265.020312) scale(0.1 -0.1)">
       <defs>
        <path id="DejaVuSans-31" d="M 794 531 
L 1825 531 
L 1825 4091 
L 703 3866 
L 703 4441 
L 1819 4666 
L 2450 4666 
L 2450 531 
L 3481 531 
L 3481 0 
L 794 0 
L 794 531 
z
" transform="scale(0.015625)"/>
       </defs>
       <use xlink:href="#DejaVuSans-31"/>
       <use xlink:href="#DejaVuSans-30" transform="translate(63.623047 0)"/>
       <use xlink:href="#DejaVuSans-30" transform="translate(127.246094 0)"/>
      </g>
     </g>
    </g>
    <g id="xtick_4">
     <g id="line2d_7">
      <path d="M 252.212905 250.421875 
L 252.212905 7.2 
" clip-path="url(#p48034b75fd)" style="fill: none; stroke-dasharray: 2.96,1.28; stroke-dashoffset: 0; stroke: #b0b0b0; stroke-opacity: 0.8; stroke-width: 0.8"/>
     </g>
     <g id="line2d_8">
      <g>
       <use xlink:href="#m259d153165" x="252.212905" y="250.421875" style="stroke: #000000; stroke-width: 0.8"/>
      </g>
     </g>
     <g id="text_4">
      <!-- 150 -->
      <g transform="translate(242.669155 265.020312) scale(0.1 -0.1)">
       <use xlink:href="#DejaVuSans-31"/>
       <use xlink:href="#DejaVuSans-35" transform="translate(63.623047 0)"/>
       <use xlink:href="#DejaVuSans-30" transform="translate(127.246094 0)"/>
      </g>
     </g>
    </g>
    <g id="xtick_5">
     <g id="line2d_9">
      <path d="M 311.06903 250.421875 
L 311.06903 7.2 
" clip-path="url(#p48034b75fd)" style="fill: none; stroke-dasharray: 2.96,1.28; stroke-dashoffset: 0; stroke: #b0b0b0; stroke-opacity: 0.8; stroke-width: 0.8"/>
     </g>
     <g id="line2d_10">
      <g>
       <use xlink:href="#m259d153165" x="311.06903" y="250.421875" style="stroke: #000000; stroke-width: 0.8"/>
      </g>
     </g>
     <g id="text_5">
      <!-- 200 -->
      <g transform="translate(301.52528 265.020312) scale(0.1 -0.1)">
       <defs>
        <path id="DejaVuSans-32" d="M 1228 531 
L 3431 531 
L 3431 0 
L 469 0 
L 469 531 
Q 828 903 1448 1529 
Q 2069 2156 2228 2338 
Q 2531 2678 2651 2914 
Q 2772 3150 2772 3378 
Q 2772 3750 2511 3984 
Q 2250 4219 1831 4219 
Q 1534 4219 1204 4116 
Q 875 4013 500 3803 
L 500 4441 
Q 881 4594 1212 4672 
Q 1544 4750 1819 4750 
Q 2544 4750 2975 4387 
Q 3406 4025 3406 3419 
Q 3406 3131 3298 2873 
Q 3191 2616 2906 2266 
Q 2828 2175 2409 1742 
Q 1991 1309 1228 531 
z
" transform="scale(0.015625)"/>
       </defs>
       <use xlink:href="#DejaVuSans-32"/>
       <use xlink:href="#DejaVuSans-30" transform="translate(63.623047 0)"/>
       <use xlink:href="#DejaVuSans-30" transform="translate(127.246094 0)"/>
      </g>
     </g>
    </g>
    <g id="xtick_6">
     <g id="line2d_11">
      <path d="M 369.925155 250.421875 
L 369.925155 7.2 
" clip-path="url(#p48034b75fd)" style="fill: none; stroke-dasharray: 2.96,1.28; stroke-dashoffset: 0; stroke: #b0b0b0; stroke-opacity: 0.8; stroke-width: 0.8"/>
     </g>
     <g id="line2d_12">
      <g>
       <use xlink:href="#m259d153165" x="369.925155" y="250.421875" style="stroke: #000000; stroke-width: 0.8"/>
      </g>
     </g>
     <g id="text_6">
      <!-- 250 -->
      <g transform="translate(360.381405 265.020312) scale(0.1 -0.1)">
       <use xlink:href="#DejaVuSans-32"/>
       <use xlink:href="#DejaVuSans-35" transform="translate(63.623047 0)"/>
       <use xlink:href="#DejaVuSans-30" transform="translate(127.246094 0)"/>
      </g>
     </g>
    </g>
    <g id="xtick_7">
     <g id="line2d_13">
      <path d="M 428.781279 250.421875 
L 428.781279 7.2 
" clip-path="url(#p48034b75fd)" style="fill: none; stroke-dasharray: 2.96,1.28; stroke-dashoffset: 0; stroke: #b0b0b0; stroke-opacity: 0.8; stroke-width: 0.8"/>
     </g>
     <g id="line2d_14">
      <g>
       <use xlink:href="#m259d153165" x="428.781279" y="250.421875" style="stroke: #000000; stroke-width: 0.8"/>
      </g>
     </g>
     <g id="text_7">
      <!-- 300 -->
      <g transform="translate(419.237529 265.020312) scale(0.1 -0.1)">
       <defs>
        <path id="DejaVuSans-33" d="M 2597 2516 
Q 3050 2419 3304 2112 
Q 3559 1806 3559 1356 
Q 3559 666 3084 287 
Q 2609 -91 1734 -91 
Q 1441 -91 1130 -33 
Q 819 25 488 141 
L 488 750 
Q 750 597 1062 519 
Q 1375 441 1716 441 
Q 2309 441 2620 675 
Q 2931 909 2931 1356 
Q 2931 1769 2642 2001 
Q 2353 2234 1838 2234 
L 1294 2234 
L 1294 2753 
L 1863 2753 
Q 2328 2753 2575 2939 
Q 2822 3125 2822 3475 
Q 2822 3834 2567 4026 
Q 2313 4219 1838 4219 
Q 1578 4219 1281 4162 
Q 984 4106 628 3988 
L 628 4550 
Q 988 4650 1302 4700 
Q 1616 4750 1894 4750 
Q 2613 4750 3031 4423 
Q 3450 4097 3450 3541 
Q 3450 3153 3228 2886 
Q 3006 2619 2597 2516 
z
" transform="scale(0.015625)"/>
       </defs>
       <use xlink:href="#DejaVuSans-33"/>
       <use xlink:href="#DejaVuSans-30" transform="translate(63.623047 0)"/>
       <use xlink:href="#DejaVuSans-30" transform="translate(127.246094 0)"/>
      </g>
     </g>
    </g>
    <g id="xtick_8">
     <g id="line2d_15">
      <path d="M 487.637404 250.421875 
L 487.637404 7.2 
" clip-path="url(#p48034b75fd)" style="fill: none; stroke-dasharray: 2.96,1.28; stroke-dashoffset: 0; stroke: #b0b0b0; stroke-opacity: 0.8; stroke-width: 0.8"/>
     </g>
     <g id="line2d_16">
      <g>
       <use xlink:href="#m259d153165" x="487.637404" y="250.421875" style="stroke: #000000; stroke-width: 0.8"/>
      </g>
     </g>
     <g id="text_8">
      <!-- 350 -->
      <g transform="translate(478.093654 265.020312) scale(0.1 -0.1)">
       <use xlink:href="#DejaVuSans-33"/>
       <use xlink:href="#DejaVuSans-35" transform="translate(63.623047 0)"/>
       <use xlink:href="#DejaVuSans-30" transform="translate(127.246094 0)"/>
      </g>
     </g>
    </g>
    <g id="xtick_9">
     <g id="line2d_17">
      <path d="M 546.493529 250.421875 
L 546.493529 7.2 
" clip-path="url(#p48034b75fd)" style="fill: none; stroke-dasharray: 2.96,1.28; stroke-dashoffset: 0; stroke: #b0b0b0; stroke-opacity: 0.8; stroke-width: 0.8"/>
     </g>
     <g id="line2d_18">
      <g>
       <use xlink:href="#m259d153165" x="546.493529" y="250.421875" style="stroke: #000000; stroke-width: 0.8"/>
      </g>
     </g>
     <g id="text_9">
      <!-- 400 -->
      <g transform="translate(536.949779 265.020312) scale(0.1 -0.1)">
       <defs>
        <path id="DejaVuSans-34" d="M 2419 4116 
L 825 1625 
L 2419 1625 
L 2419 4116 
z
M 2253 4666 
L 3047 4666 
L 3047 1625 
L 3713 1625 
L 3713 1100 
L 3047 1100 
L 3047 0 
L 2419 0 
L 2419 1100 
L 313 1100 
L 313 1709 
L 2253 4666 
z
" transform="scale(0.015625)"/>
       </defs>
       <use xlink:href="#DejaVuSans-34"/>
       <use xlink:href="#DejaVuSans-30" transform="translate(63.623047 0)"/>
       <use xlink:href="#DejaVuSans-30" transform="translate(127.246094 0)"/>
      </g>
     </g>
    </g>
    <g id="text_10">
     <!-- Sample, $n$ -->
     <g transform="translate(285.380469 278.7) scale(0.1 -0.1)">
      <defs>
       <path id="DejaVuSans-53" d="M 3425 4513 
L 3425 3897 
Q 3066 4069 2747 4153 
Q 2428 4238 2131 4238 
Q 1616 4238 1336 4038 
Q 1056 3838 1056 3469 
Q 1056 3159 1242 3001 
Q 1428 2844 1947 2747 
L 2328 2669 
Q 3034 2534 3370 2195 
Q 3706 1856 3706 1288 
Q 3706 609 3251 259 
Q 2797 -91 1919 -91 
Q 1588 -91 1214 -16 
Q 841 59 441 206 
L 441 856 
Q 825 641 1194 531 
Q 1563 422 1919 422 
Q 2459 422 2753 634 
Q 3047 847 3047 1241 
Q 3047 1584 2836 1778 
Q 2625 1972 2144 2069 
L 1759 2144 
Q 1053 2284 737 2584 
Q 422 2884 422 3419 
Q 422 4038 858 4394 
Q 1294 4750 2059 4750 
Q 2388 4750 2728 4690 
Q 3069 4631 3425 4513 
z
" transform="scale(0.015625)"/>
       <path id="DejaVuSans-61" d="M 2194 1759 
Q 1497 1759 1228 1600 
Q 959 1441 959 1056 
Q 959 750 1161 570 
Q 1363 391 1709 391 
Q 2188 391 2477 730 
Q 2766 1069 2766 1631 
L 2766 1759 
L 2194 1759 
z
M 3341 1997 
L 3341 0 
L 2766 0 
L 2766 531 
Q 2569 213 2275 61 
Q 1981 -91 1556 -91 
Q 1019 -91 701 211 
Q 384 513 384 1019 
Q 384 1609 779 1909 
Q 1175 2209 1959 2209 
L 2766 2209 
L 2766 2266 
Q 2766 2663 2505 2880 
Q 2244 3097 1772 3097 
Q 1472 3097 1187 3025 
Q 903 2953 641 2809 
L 641 3341 
Q 956 3463 1253 3523 
Q 1550 3584 1831 3584 
Q 2591 3584 2966 3190 
Q 3341 2797 3341 1997 
z
" transform="scale(0.015625)"/>
       <path id="DejaVuSans-6d" d="M 3328 2828 
Q 3544 3216 3844 3400 
Q 4144 3584 4550 3584 
Q 5097 3584 5394 3201 
Q 5691 2819 5691 2113 
L 5691 0 
L 5113 0 
L 5113 2094 
Q 5113 2597 4934 2840 
Q 4756 3084 4391 3084 
Q 3944 3084 3684 2787 
Q 3425 2491 3425 1978 
L 3425 0 
L 2847 0 
L 2847 2094 
Q 2847 2600 2669 2842 
Q 2491 3084 2119 3084 
Q 1678 3084 1418 2786 
Q 1159 2488 1159 1978 
L 1159 0 
L 581 0 
L 581 3500 
L 1159 3500 
L 1159 2956 
Q 1356 3278 1631 3431 
Q 1906 3584 2284 3584 
Q 2666 3584 2933 3390 
Q 3200 3197 3328 2828 
z
" transform="scale(0.015625)"/>
       <path id="DejaVuSans-70" d="M 1159 525 
L 1159 -1331 
L 581 -1331 
L 581 3500 
L 1159 3500 
L 1159 2969 
Q 1341 3281 1617 3432 
Q 1894 3584 2278 3584 
Q 2916 3584 3314 3078 
Q 3713 2572 3713 1747 
Q 3713 922 3314 415 
Q 2916 -91 2278 -91 
Q 1894 -91 1617 61 
Q 1341 213 1159 525 
z
M 3116 1747 
Q 3116 2381 2855 2742 
Q 2594 3103 2138 3103 
Q 1681 3103 1420 2742 
Q 1159 2381 1159 1747 
Q 1159 1113 1420 752 
Q 1681 391 2138 391 
Q 2594 391 2855 752 
Q 3116 1113 3116 1747 
z
" transform="scale(0.015625)"/>
       <path id="DejaVuSans-6c" d="M 603 4863 
L 1178 4863 
L 1178 0 
L 603 0 
L 603 4863 
z
" transform="scale(0.015625)"/>
       <path id="DejaVuSans-65" d="M 3597 1894 
L 3597 1613 
L 953 1613 
Q 991 1019 1311 708 
Q 1631 397 2203 397 
Q 2534 397 2845 478 
Q 3156 559 3463 722 
L 3463 178 
Q 3153 47 2828 -22 
Q 2503 -91 2169 -91 
Q 1331 -91 842 396 
Q 353 884 353 1716 
Q 353 2575 817 3079 
Q 1281 3584 2069 3584 
Q 2775 3584 3186 3129 
Q 3597 2675 3597 1894 
z
M 3022 2063 
Q 3016 2534 2758 2815 
Q 2500 3097 2075 3097 
Q 1594 3097 1305 2825 
Q 1016 2553 972 2059 
L 3022 2063 
z
" transform="scale(0.015625)"/>
       <path id="DejaVuSans-2c" d="M 750 794 
L 1409 794 
L 1409 256 
L 897 -744 
L 494 -744 
L 750 256 
L 750 794 
z
" transform="scale(0.015625)"/>
       <path id="DejaVuSans-20" transform="scale(0.015625)"/>
       <path id="DejaVuSans-Oblique-6e" d="M 3566 2113 
L 3156 0 
L 2578 0 
L 2988 2091 
Q 3016 2238 3031 2350 
Q 3047 2463 3047 2528 
Q 3047 2791 2881 2937 
Q 2716 3084 2419 3084 
Q 1956 3084 1622 2776 
Q 1288 2469 1184 1941 
L 800 0 
L 225 0 
L 903 3500 
L 1478 3500 
L 1363 2950 
Q 1603 3253 1940 3418 
Q 2278 3584 2650 3584 
Q 3113 3584 3367 3334 
Q 3622 3084 3622 2631 
Q 3622 2519 3608 2391 
Q 3594 2263 3566 2113 
z
" transform="scale(0.015625)"/>
      </defs>
      <use xlink:href="#DejaVuSans-53" transform="translate(0 0.015625)"/>
      <use xlink:href="#DejaVuSans-61" transform="translate(63.476562 0.015625)"/>
      <use xlink:href="#DejaVuSans-6d" transform="translate(124.755859 0.015625)"/>
      <use xlink:href="#DejaVuSans-70" transform="translate(222.167969 0.015625)"/>
      <use xlink:href="#DejaVuSans-6c" transform="translate(285.644531 0.015625)"/>
      <use xlink:href="#DejaVuSans-65" transform="translate(313.427734 0.015625)"/>
      <use xlink:href="#DejaVuSans-2c" transform="translate(374.951172 0.015625)"/>
      <use xlink:href="#DejaVuSans-20" transform="translate(406.738281 0.015625)"/>
      <use xlink:href="#DejaVuSans-Oblique-6e" transform="translate(438.525391 0.015625)"/>
     </g>
    </g>
   </g>
   <g id="matplotlib.axis_2">
    <g id="ytick_1">
     <g id="line2d_19">
      <path d="M 52.160938 220.231289 
L 568.8 220.231289 
" clip-path="url(#p48034b75fd)" style="fill: none; stroke-dasharray: 2.96,1.28; stroke-dashoffset: 0; stroke: #b0b0b0; stroke-opacity: 0.8; stroke-width: 0.8"/>
     </g>
     <g id="line2d_20">
      <defs>
       <path id="m90f2eb9af7" d="M 0 0 
L -3.5 0 
" style="stroke: #000000; stroke-width: 0.8"/>
      </defs>
      <g>
       <use xlink:href="#m90f2eb9af7" x="52.160938" y="220.231289" style="stroke: #000000; stroke-width: 0.8"/>
      </g>
     </g>
     <g id="text_11">
      <!-- −0.4 -->
      <g transform="translate(20.878125 224.030508) scale(0.1 -0.1)">
       <defs>
        <path id="DejaVuSans-2212" d="M 678 2272 
L 4684 2272 
L 4684 1741 
L 678 1741 
L 678 2272 
z
" transform="scale(0.015625)"/>
        <path id="DejaVuSans-2e" d="M 684 794 
L 1344 794 
L 1344 0 
L 684 0 
L 684 794 
z
" transform="scale(0.015625)"/>
       </defs>
       <use xlink:href="#DejaVuSans-2212"/>
       <use xlink:href="#DejaVuSans-30" transform="translate(83.789062 0)"/>
       <use xlink:href="#DejaVuSans-2e" transform="translate(147.412109 0)"/>
       <use xlink:href="#DejaVuSans-34" transform="translate(179.199219 0)"/>
      </g>
     </g>
    </g>
    <g id="ytick_2">
     <g id="line2d_21">
      <path d="M 52.160938 175.917548 
L 568.8 175.917548 
" clip-path="url(#p48034b75fd)" style="fill: none; stroke-dasharray: 2.96,1.28; stroke-dashoffset: 0; stroke: #b0b0b0; stroke-opacity: 0.8; stroke-width: 0.8"/>
     </g>
     <g id="line2d_22">
      <g>
       <use xlink:href="#m90f2eb9af7" x="52.160938" y="175.917548" style="stroke: #000000; stroke-width: 0.8"/>
      </g>
     </g>
     <g id="text_12">
      <!-- −0.2 -->
      <g transform="translate(20.878125 179.716767) scale(0.1 -0.1)">
       <use xlink:href="#DejaVuSans-2212"/>
       <use xlink:href="#DejaVuSans-30" transform="translate(83.789062 0)"/>
       <use xlink:href="#DejaVuSans-2e" transform="translate(147.412109 0)"/>
       <use xlink:href="#DejaVuSans-32" transform="translate(179.199219 0)"/>
      </g>
     </g>
    </g>
    <g id="ytick_3">
     <g id="line2d_23">
      <path d="M 52.160938 131.603806 
L 568.8 131.603806 
" clip-path="url(#p48034b75fd)" style="fill: none; stroke-dasharray: 2.96,1.28; stroke-dashoffset: 0; stroke: #b0b0b0; stroke-opacity: 0.8; stroke-width: 0.8"/>
     </g>
     <g id="line2d_24">
      <g>
       <use xlink:href="#m90f2eb9af7" x="52.160938" y="131.603806" style="stroke: #000000; stroke-width: 0.8"/>
      </g>
     </g>
     <g id="text_13">
      <!-- 0.0 -->
      <g transform="translate(29.257812 135.403025) scale(0.1 -0.1)">
       <use xlink:href="#DejaVuSans-30"/>
       <use xlink:href="#DejaVuSans-2e" transform="translate(63.623047 0)"/>
       <use xlink:href="#DejaVuSans-30" transform="translate(95.410156 0)"/>
      </g>
     </g>
    </g>
    <g id="ytick_4">
     <g id="line2d_25">
      <path d="M 52.160938 87.290065 
L 568.8 87.290065 
" clip-path="url(#p48034b75fd)" style="fill: none; stroke-dasharray: 2.96,1.28; stroke-dashoffset: 0; stroke: #b0b0b0; stroke-opacity: 0.8; stroke-width: 0.8"/>
     </g>
     <g id="line2d_26">
      <g>
       <use xlink:href="#m90f2eb9af7" x="52.160938" y="87.290065" style="stroke: #000000; stroke-width: 0.8"/>
      </g>
     </g>
     <g id="text_14">
      <!-- 0.2 -->
      <g transform="translate(29.257812 91.089284) scale(0.1 -0.1)">
       <use xlink:href="#DejaVuSans-30"/>
       <use xlink:href="#DejaVuSans-2e" transform="translate(63.623047 0)"/>
       <use xlink:href="#DejaVuSans-32" transform="translate(95.410156 0)"/>
      </g>
     </g>
    </g>
    <g id="ytick_5">
     <g id="line2d_27">
      <path d="M 52.160938 42.976324 
L 568.8 42.976324 
" clip-path="url(#p48034b75fd)" style="fill: none; stroke-dasharray: 2.96,1.28; stroke-dashoffset: 0; stroke: #b0b0b0; stroke-opacity: 0.8; stroke-width: 0.8"/>
     </g>
     <g id="line2d_28">
      <g>
       <use xlink:href="#m90f2eb9af7" x="52.160938" y="42.976324" style="stroke: #000000; stroke-width: 0.8"/>
      </g>
     </g>
     <g id="text_15">
      <!-- 0.4 -->
      <g transform="translate(29.257812 46.775542) scale(0.1 -0.1)">
       <use xlink:href="#DejaVuSans-30"/>
       <use xlink:href="#DejaVuSans-2e" transform="translate(63.623047 0)"/>
       <use xlink:href="#DejaVuSans-34" transform="translate(95.410156 0)"/>
      </g>
     </g>
    </g>
    <g id="text_16">
     <!-- Amplitude -->
     <g transform="translate(14.798437 154.433594) rotate(-90) scale(0.1 -0.1)">
      <defs>
       <path id="DejaVuSans-41" d="M 2188 4044 
L 1331 1722 
L 3047 1722 
L 2188 4044 
z
M 1831 4666 
L 2547 4666 
L 4325 0 
L 3669 0 
L 3244 1197 
L 1141 1197 
L 716 0 
L 50 0 
L 1831 4666 
z
" transform="scale(0.015625)"/>
       <path id="DejaVuSans-69" d="M 603 3500 
L 1178 3500 
L 1178 0 
L 603 0 
L 603 3500 
z
M 603 4863 
L 1178 4863 
L 1178 4134 
L 603 4134 
L 603 4863 
z
" transform="scale(0.015625)"/>
       <path id="DejaVuSans-74" d="M 1172 4494 
L 1172 3500 
L 2356 3500 
L 2356 3053 
L 1172 3053 
L 1172 1153 
Q 1172 725 1289 603 
Q 1406 481 1766 481 
L 2356 481 
L 2356 0 
L 1766 0 
Q 1100 0 847 248 
Q 594 497 594 1153 
L 594 3053 
L 172 3053 
L 172 3500 
L 594 3500 
L 594 4494 
L 1172 4494 
z
" transform="scale(0.015625)"/>
       <path id="DejaVuSans-75" d="M 544 1381 
L 544 3500 
L 1119 3500 
L 1119 1403 
Q 1119 906 1312 657 
Q 1506 409 1894 409 
Q 2359 409 2629 706 
Q 2900 1003 2900 1516 
L 2900 3500 
L 3475 3500 
L 3475 0 
L 2900 0 
L 2900 538 
Q 2691 219 2414 64 
Q 2138 -91 1772 -91 
Q 1169 -91 856 284 
Q 544 659 544 1381 
z
M 1991 3584 
L 1991 3584 
z
" transform="scale(0.015625)"/>
       <path id="DejaVuSans-64" d="M 2906 2969 
L 2906 4863 
L 3481 4863 
L 3481 0 
L 2906 0 
L 2906 525 
Q 2725 213 2448 61 
Q 2172 -91 1784 -91 
Q 1150 -91 751 415 
Q 353 922 353 1747 
Q 353 2572 751 3078 
Q 1150 3584 1784 3584 
Q 2172 3584 2448 3432 
Q 2725 3281 2906 2969 
z
M 947 1747 
Q 947 1113 1208 752 
Q 1469 391 1925 391 
Q 2381 391 2643 752 
Q 2906 1113 2906 1747 
Q 2906 2381 2643 2742 
Q 2381 3103 1925 3103 
Q 1469 3103 1208 2742 
Q 947 2381 947 1747 
z
" transform="scale(0.015625)"/>
      </defs>
      <use xlink:href="#DejaVuSans-41"/>
      <use xlink:href="#DejaVuSans-6d" transform="translate(68.408203 0)"/>
      <use xlink:href="#DejaVuSans-70" transform="translate(165.820312 0)"/>
      <use xlink:href="#DejaVuSans-6c" transform="translate(229.296875 0)"/>
      <use xlink:href="#DejaVuSans-69" transform="translate(257.080078 0)"/>
      <use xlink:href="#DejaVuSans-74" transform="translate(284.863281 0)"/>
      <use xlink:href="#DejaVuSans-75" transform="translate(324.072266 0)"/>
      <use xlink:href="#DejaVuSans-64" transform="translate(387.451172 0)"/>
      <use xlink:href="#DejaVuSans-65" transform="translate(450.927734 0)"/>
     </g>
    </g>
   </g>
   <g id="line2d_29">
    <path d="M 75.644531 128.335107 
L 76.821654 131.520589 
L 77.998776 131.998481 
L 79.175899 134.965969 
L 80.353021 132.094087 
L 81.530144 131.304045 
L 82.707266 129.191057 
L 83.884389 132.700798 
L 85.061511 136.859414 
L 86.238634 131.541165 
L 87.415756 129.226971 
L 88.592879 136.763966 
L 89.770001 132.462937 
L 90.947124 125.454559 
L 92.124246 127.174032 
L 93.301369 132.137017 
L 94.478491 120.987549 
L 95.655614 127.399127 
L 96.832736 128.36261 
L 98.009859 131.326715 
L 99.186981 135.099993 
L 101.541226 138.592509 
L 102.718349 139.325806 
L 103.895471 141.487871 
L 105.072594 137.432975 
L 106.249716 127.890577 
L 107.426839 126.502006 
L 108.603961 123.995722 
L 109.781084 128.557465 
L 110.958206 124.542347 
L 112.135329 134.881831 
L 113.312451 123.396397 
L 114.489574 129.181833 
L 115.666696 133.08037 
L 118.020941 145.908936 
L 119.198064 151.086293 
L 120.375186 147.064711 
L 121.552309 142.504886 
L 122.729431 141.593023 
L 123.906553 135.467499 
L 127.437921 78.765524 
L 128.615043 70.899162 
L 129.792166 59.087893 
L 132.146411 61.543736 
L 133.323533 79.176443 
L 134.500656 94.09401 
L 135.677778 123.755504 
L 136.854901 147.840525 
L 138.032023 161.383614 
L 139.209146 190.015802 
L 140.386268 212.148586 
L 141.563391 222.066557 
L 142.740513 226.279148 
L 143.917636 224.437845 
L 145.094758 212.9715 
L 146.271881 208.537722 
L 147.449003 197.830263 
L 148.626126 185.653182 
L 149.803248 178.923155 
L 150.980371 168.589315 
L 152.157493 179.936412 
L 153.334616 188.299255 
L 154.511738 194.431542 
L 155.688861 203.280042 
L 156.865983 219.625033 
L 158.043106 231.625246 
L 159.220228 222.543847 
L 161.574473 210.608154 
L 162.751596 186.78435 
L 165.105841 149.416089 
L 166.282963 120.846767 
L 167.460086 99.769927 
L 169.814331 64.138525 
L 170.991453 64.886864 
L 172.168576 60.008005 
L 174.522821 86.099932 
L 175.699943 96.063348 
L 178.054188 137.111818 
L 179.231311 141.047542 
L 180.408433 143.413866 
L 181.585556 141.645617 
L 182.762678 138.618897 
L 183.939801 134.468274 
L 185.116923 115.637658 
L 186.294046 109.132254 
L 187.471168 92.820042 
L 188.648291 71.791727 
L 189.825413 57.561051 
L 191.002536 44.87689 
L 192.179658 33.649538 
L 193.356781 30.293767 
L 194.533903 32.106547 
L 195.711026 39.775239 
L 196.888148 37.631597 
L 198.065271 51.981288 
L 200.419516 85.001952 
L 201.596638 107.048807 
L 203.950883 145.690713 
L 205.128006 156.36584 
L 206.305128 172.369092 
L 207.482251 190.252914 
L 208.659373 195.060617 
L 209.836496 200.623674 
L 211.013618 195.067744 
L 212.190741 181.849836 
L 213.367863 165.199865 
L 214.544986 156.831929 
L 215.722108 141.436049 
L 216.89923 124.302396 
L 218.076353 118.658382 
L 219.253475 101.782105 
L 220.430598 95.258983 
L 221.60772 84.728158 
L 222.784843 83.774365 
L 223.961965 79.828549 
L 225.139088 71.976487 
L 226.31621 83.317073 
L 227.493333 78.4024 
L 228.670455 84.526696 
L 229.847578 92.759935 
L 231.0247 91.026545 
L 232.201823 104.44077 
L 233.378945 110.742662 
L 234.556068 120.281422 
L 235.73319 126.344364 
L 236.910313 136.256402 
L 238.087435 148.806433 
L 239.264558 163.177006 
L 240.44168 168.845464 
L 241.618803 173.205581 
L 242.795925 178.689079 
L 243.973048 184.914075 
L 245.15017 192.461557 
L 246.327293 188.990896 
L 247.504415 182.403582 
L 248.681538 180.388478 
L 249.85866 168.758817 
L 251.035783 164.84905 
L 252.212905 148.060683 
L 253.390028 142.784264 
L 254.56715 129.680396 
L 255.744273 127.67483 
L 256.921395 113.758942 
L 258.098518 95.668332 
L 259.27564 91.906938 
L 260.452763 86.39126 
L 261.629885 73.132891 
L 262.807008 83.335755 
L 263.98413 74.488962 
L 265.161253 75.744051 
L 266.338375 81.703426 
L 267.515498 83.945257 
L 268.69262 96.739322 
L 271.046865 113.448425 
L 272.223988 127.112686 
L 274.578233 135.119674 
L 275.755355 148.757606 
L 276.932478 157.536047 
L 278.1096 173.168034 
L 279.286723 178.710793 
L 280.463845 189.139691 
L 281.640968 187.608217 
L 282.81809 188.162374 
L 283.995213 189.120252 
L 285.172335 180.612253 
L 286.349458 174.202751 
L 287.52658 176.398818 
L 288.703703 167.257445 
L 289.880825 153.001111 
L 291.057948 147.687943 
L 292.23507 131.522138 
L 293.412193 118.978667 
L 294.589315 102.985168 
L 295.766438 98.022188 
L 296.94356 90.071964 
L 298.120683 88.299777 
L 299.297805 79.784358 
L 300.474928 68.412975 
L 301.65205 74.096673 
L 302.829173 76.245983 
L 304.006295 85.543396 
L 305.183418 84.161049 
L 306.36054 99.783858 
L 307.537663 109.746593 
L 308.714785 115.07847 
L 309.891908 125.321858 
L 311.06903 134.002524 
L 312.246152 144.355885 
L 313.423275 150.131557 
L 314.600397 157.289247 
L 315.77752 166.809037 
L 316.954642 174.478028 
L 319.308887 184.654641 
L 320.48601 189.944463 
L 321.663132 187.485649 
L 322.840255 194.465184 
L 324.017377 198.29056 
L 326.371622 203.300352 
L 327.548745 205.284804 
L 328.725867 212.860436 
L 329.90299 209.177685 
L 331.080112 213.323728 
L 332.257235 216.720179 
L 333.434357 215.434695 
L 334.61148 213.57812 
L 335.788602 204.081746 
L 336.965725 196.243851 
L 338.142847 193.051075 
L 339.31997 180.891104 
L 340.497092 174.93307 
L 341.674215 160.913623 
L 342.851337 160.048414 
L 344.02846 152.576733 
L 345.205582 154.67528 
L 346.382705 143.145679 
L 347.559827 134.961871 
L 348.73695 134.160106 
L 349.914072 127.331095 
L 351.091195 135.822342 
L 352.268317 136.318322 
L 353.44544 140.789154 
L 354.622562 150.079853 
L 355.799685 164.517717 
L 356.976807 171.159296 
L 358.15393 180.603945 
L 359.331052 197.855204 
L 360.508175 205.486128 
L 361.685297 222.412072 
L 362.86242 219.97698 
L 365.216665 230.590531 
L 367.57091 213.684441 
L 368.748032 199.838524 
L 369.925155 176.318822 
L 371.102277 165.194934 
L 372.2794 133.354035 
L 373.456522 113.786102 
L 374.633645 103.878429 
L 375.810767 88.394709 
L 376.98789 76.602595 
L 378.165012 70.709957 
L 379.342135 67.840473 
L 380.519257 75.082449 
L 381.69638 79.115039 
L 382.873502 91.016192 
L 384.050625 107.680067 
L 385.227747 120.742747 
L 386.40487 142.378419 
L 387.581992 149.615947 
L 388.759115 162.007858 
L 389.936237 170.808165 
L 391.11336 174.623128 
L 392.290482 179.908868 
L 393.467605 181.166337 
L 394.644727 187.423398 
L 395.82185 183.936152 
L 396.998972 182.998196 
L 398.176095 180.184093 
L 399.353217 181.070405 
L 400.53034 177.649126 
L 401.707462 172.655158 
L 402.884585 151.257444 
L 404.061707 148.399105 
L 405.238829 132.616971 
L 406.415952 126.995373 
L 407.593074 110.879734 
L 408.770197 99.205449 
L 409.947319 85.519242 
L 411.124442 82.585138 
L 412.301564 73.786177 
L 413.478687 69.193364 
L 414.655809 74.043457 
L 415.832932 88.944796 
L 417.010054 89.605674 
L 418.187177 97.997357 
L 419.364299 102.971286 
L 420.541422 109.41159 
L 421.718544 115.08301 
L 422.895667 122.545727 
L 424.072789 128.446933 
L 425.249912 132.784795 
L 426.427034 124.132449 
L 427.604157 129.585645 
L 428.781279 128.864389 
L 429.958402 120.724911 
L 431.135524 102.827925 
L 432.312647 100.970752 
L 434.666892 64.397534 
L 435.844014 48.311134 
L 437.021137 40.236899 
L 438.198259 21.627051 
L 439.375382 25.14855 
L 440.552504 22.435152 
L 441.729627 26.958479 
L 444.083872 66.222 
L 445.260994 88.251098 
L 446.438117 124.876052 
L 447.615239 155.488924 
L 448.792362 169.022067 
L 449.969484 189.673214 
L 451.146607 196.516758 
L 452.323729 193.484372 
L 453.500852 185.477463 
L 454.677974 168.050928 
L 455.855097 140.246907 
L 457.032219 123.41885 
L 459.386464 67.325208 
L 460.563587 46.089889 
L 461.740709 44.292394 
L 462.917832 41.472887 
L 465.272077 77.059257 
L 468.803444 155.051979 
L 471.157689 200.906954 
L 472.334812 207.998836 
L 473.511934 207.6508 
L 474.689057 204.642279 
L 475.866179 198.026934 
L 477.043302 185.370899 
L 478.220424 168.655678 
L 480.574669 118.461946 
L 481.751792 113.667344 
L 482.928914 94.263464 
L 484.106037 91.915072 
L 485.283159 80.056136 
L 486.460282 81.069749 
L 487.637404 79.897346 
L 488.814527 80.391397 
L 489.991649 85.023206 
L 491.168772 84.025833 
L 492.345894 91.154765 
L 493.523017 94.824261 
L 494.700139 94.858197 
L 495.877262 107.628089 
L 497.054384 108.519416 
L 498.231507 119.358558 
L 499.408629 127.19114 
L 500.585751 138.585755 
L 501.762874 142.167318 
L 502.939996 158.123585 
L 504.117119 162.2716 
L 506.471364 181.485189 
L 507.648486 183.981811 
L 508.825609 191.194405 
L 510.002731 197.391212 
L 511.179854 191.137086 
L 512.356976 202.125893 
L 513.534099 199.791128 
L 515.888344 199.866216 
L 517.065466 212.272119 
L 518.242589 203.203664 
L 519.419711 210.071314 
L 520.596834 207.839818 
L 521.773956 220.069816 
L 522.951079 209.983123 
L 524.128201 213.910094 
L 525.305324 204.934945 
L 526.482446 205.651783 
L 527.659569 190.885176 
L 528.836691 183.614503 
L 530.013814 164.110319 
L 531.190936 149.330839 
L 532.368059 138.883073 
L 533.545181 133.917113 
L 534.722304 125.717086 
L 535.899426 124.186268 
L 537.076549 131.256153 
L 538.253671 131.908175 
L 539.430794 141.968775 
L 540.607916 158.56714 
L 541.785039 172.883104 
L 542.962161 179.222283 
L 544.139284 188.302417 
L 545.316406 191.316525 
L 545.316406 191.316525 
" clip-path="url(#p48034b75fd)" style="fill: none; stroke: #1f77b4; stroke-linecap: square"/>
   </g>
   <g id="line2d_30">
    <path d="M 75.644531 132.38168 
L 76.821654 133.485908 
L 77.998776 129.923155 
L 79.175899 132.145875 
L 80.353021 128.238509 
L 82.707266 124.083396 
L 83.884389 121.382501 
L 85.061511 132.834349 
L 86.238634 127.218579 
L 87.415756 133.402574 
L 88.592879 127.069317 
L 89.770001 137.547839 
L 90.947124 134.419851 
L 92.124246 136.264149 
L 93.301369 133.662557 
L 94.478491 133.103283 
L 95.655614 138.144792 
L 96.832736 132.340746 
L 98.009859 123.918901 
L 99.186981 122.985366 
L 100.364104 124.162638 
L 101.541226 117.471813 
L 102.718349 122.043028 
L 103.895471 119.692371 
L 105.072594 127.239034 
L 106.249716 138.333031 
L 107.426839 140.494703 
L 108.603961 155.986269 
L 109.781084 157.279207 
L 110.958206 156.449231 
L 112.135329 150.473206 
L 113.312451 138.629533 
L 114.489574 120.523842 
L 115.666696 112.943122 
L 116.843819 94.876403 
L 119.198064 47.269995 
L 120.375186 46.645376 
L 121.552309 45.389884 
L 122.729431 46.247752 
L 123.906553 55.795091 
L 126.260798 96.375544 
L 127.437921 125.015227 
L 128.615043 147.31256 
L 129.792166 171.841475 
L 130.969288 189.316916 
L 132.146411 201.295017 
L 133.323533 203.980048 
L 134.500656 196.188997 
L 135.677778 186.310806 
L 136.854901 166.039515 
L 138.032023 149.622022 
L 139.209146 136.792816 
L 140.386268 129.063982 
L 141.563391 119.778971 
L 142.740513 118.016642 
L 143.917636 129.405513 
L 145.094758 138.790698 
L 146.271881 155.844631 
L 147.449003 166.241808 
L 148.626126 186.364099 
L 149.803248 196.5209 
L 150.980371 201.358497 
L 152.157493 192.827755 
L 153.334616 186.141118 
L 154.511738 175.892248 
L 155.688861 158.524838 
L 158.043106 129.902277 
L 159.220228 121.705826 
L 160.397351 118.519615 
L 161.574473 125.274235 
L 163.928718 149.559544 
L 165.105841 164.954402 
L 166.282963 175.595504 
L 167.460086 187.780596 
L 168.637208 197.026123 
L 169.814331 201.448023 
L 170.991453 187.590964 
L 172.168576 175.719215 
L 173.345698 154.295708 
L 174.522821 129.618262 
L 175.699943 109.586676 
L 176.877066 82.260572 
L 179.231311 43.638823 
L 181.585556 20.51365 
L 182.762678 31.955322 
L 183.939801 38.974464 
L 185.116923 50.076683 
L 186.294046 49.122417 
L 187.471168 60.884043 
L 188.648291 82.772828 
L 189.825413 89.785847 
L 191.002536 107.915728 
L 192.179658 109.805968 
L 193.356781 112.959845 
L 194.533903 122.3961 
L 195.711026 121.297664 
L 196.888148 121.944196 
L 198.065271 120.394969 
L 199.242393 127.531135 
L 200.419516 121.644038 
L 201.596638 122.690232 
L 202.773761 126.314569 
L 203.950883 121.761803 
L 206.305128 102.780476 
L 207.482251 89.687648 
L 208.659373 69.268479 
L 209.836496 51.081747 
L 212.190741 25.891591 
L 213.367863 22.411121 
L 214.544986 18.25554 
L 215.722108 32.815952 
L 216.89923 38.23377 
L 219.253475 95.002522 
L 220.430598 116.15903 
L 221.60772 146.635567 
L 222.784843 168.369706 
L 223.961965 185.056968 
L 226.31621 195.613511 
L 227.493333 184.302584 
L 228.670455 168.448365 
L 229.847578 143.025804 
L 231.0247 128.247143 
L 232.201823 95.429785 
L 233.378945 77.352435 
L 234.556068 50.95184 
L 236.910313 40.066915 
L 238.087435 50.405046 
L 239.264558 68.28152 
L 240.44168 92.954383 
L 241.618803 114.076584 
L 242.795925 146.436044 
L 243.973048 168.301556 
L 245.15017 195.912785 
L 246.327293 207.640861 
L 247.504415 225.993003 
L 248.681538 232.927853 
L 249.85866 235.479745 
L 251.035783 230.37506 
L 252.212905 220.357088 
L 253.390028 208.53834 
L 254.56715 200.666084 
L 255.744273 199.272893 
L 256.921395 194.644855 
L 258.098518 187.506053 
L 259.27564 193.804563 
L 260.452763 190.630006 
L 261.629885 196.394326 
L 262.807008 194.630987 
L 263.98413 198.084995 
L 265.161253 197.5429 
L 266.338375 202.333559 
L 267.515498 193.749001 
L 268.69262 193.22293 
L 269.869743 191.607897 
L 272.223988 190.034797 
L 273.40111 195.159626 
L 275.755355 217.723159 
L 276.932478 217.548453 
L 278.1096 227.0015 
L 279.286723 228.500186 
L 280.463845 233.229241 
L 281.640968 212.691833 
L 282.81809 198.511536 
L 285.172335 149.876672 
L 286.349458 120.829707 
L 287.52658 88.669434 
L 288.703703 65.045012 
L 289.880825 49.477976 
L 291.057948 45.798104 
L 292.23507 43.455311 
L 293.412193 52.105609 
L 294.589315 69.75383 
L 295.766438 95.253956 
L 296.94356 116.89047 
L 299.297805 172.77019 
L 300.474928 181.576747 
L 301.65205 200.648242 
L 302.829173 198.385957 
L 304.006295 186.823927 
L 305.183418 168.019634 
L 306.36054 143.706128 
L 307.537663 116.343161 
L 309.891908 57.410733 
L 311.06903 41.697798 
L 312.246152 31.460357 
L 313.423275 18.741095 
L 315.77752 33.939769 
L 316.954642 44.73119 
L 318.131765 62.737571 
L 319.308887 74.180048 
L 320.48601 90.093094 
L 322.840255 105.584843 
L 324.017377 96.767153 
L 325.1945 107.445384 
L 326.371622 104.595812 
L 327.548745 112.2589 
L 328.725867 109.295241 
L 331.080112 132.201324 
L 332.257235 148.543447 
L 333.434357 167.387108 
L 334.61148 179.285988 
L 335.788602 188.263701 
L 336.965725 199.757031 
L 338.142847 196.487574 
L 340.497092 183.94857 
L 341.674215 166.793103 
L 342.851337 141.662422 
L 344.02846 123.164561 
L 345.205582 95.878004 
L 346.382705 84.486571 
L 347.559827 68.928106 
L 348.73695 43.957196 
L 349.914072 41.782851 
L 351.091195 33.958363 
L 352.268317 34.117377 
L 353.44544 31.732979 
L 354.622562 43.263246 
L 356.976807 71.212547 
L 358.15393 78.330253 
L 359.331052 88.898423 
L 360.508175 94.459243 
L 361.685297 102.176164 
L 362.86242 112.218982 
L 364.039542 118.875042 
L 365.216665 129.041603 
L 366.393787 133.998106 
L 367.57091 126.785493 
L 368.748032 138.6526 
L 369.925155 140.151966 
L 371.102277 144.576604 
L 372.2794 143.541678 
L 373.456522 156.183617 
L 374.633645 156.668403 
L 375.810767 163.449196 
L 376.98789 180.545491 
L 378.165012 191.529395 
L 379.342135 208.965269 
L 380.519257 222.844647 
L 381.69638 227.063202 
L 382.873502 232.927347 
L 384.050625 234.048268 
L 385.227747 229.89839 
L 386.40487 219.907826 
L 387.581992 201.171092 
L 388.759115 168.92983 
L 389.936237 143.639933 
L 391.11336 126.092177 
L 393.467605 77.624802 
L 394.644727 65.037988 
L 395.82185 67.178784 
L 396.998972 71.639637 
L 399.353217 104.700909 
L 400.53034 129.049042 
L 401.707462 162.757111 
L 402.884585 186.926767 
L 404.061707 206.468374 
L 405.238829 223.169137 
L 406.415952 225.69889 
L 407.593074 227.878616 
L 408.770197 222.443863 
L 409.947319 217.536584 
L 411.124442 208.149484 
L 412.301564 185.618626 
L 413.478687 176.767702 
L 414.655809 178.908341 
L 415.832932 178.924741 
L 417.010054 176.522133 
L 420.541422 213.235936 
L 421.718544 218.27806 
L 422.895667 217.82112 
L 424.072789 213.795829 
L 425.249912 213.656441 
L 426.427034 199.819558 
L 428.781279 147.066785 
L 429.958402 128.290958 
L 432.312647 77.593988 
L 433.489769 70.202256 
L 434.666892 67.027565 
L 435.844014 61.044658 
L 437.021137 63.027138 
L 438.198259 75.609247 
L 440.552504 108.510289 
L 441.729627 120.041668 
L 442.906749 140.752079 
L 445.260994 167.961059 
L 447.615239 177.252146 
L 448.792362 178.052441 
L 449.969484 177.465208 
L 451.146607 185.687715 
L 452.323729 185.069594 
L 453.500852 184.072827 
L 454.677974 175.39704 
L 455.855097 174.96612 
L 457.032219 167.992355 
L 459.386464 161.585179 
L 460.563587 143.564869 
L 461.740709 135.138925 
L 464.094954 102.628847 
L 465.272077 93.65345 
L 466.449199 75.53957 
L 467.626322 72.987687 
L 468.803444 63.958227 
L 469.980567 60.938601 
L 471.157689 68.587316 
L 473.511934 96.087868 
L 474.689057 118.588551 
L 475.866179 136.064938 
L 477.043302 161.426857 
L 478.220424 169.46812 
L 479.397547 199.113029 
L 481.751792 221.219108 
L 482.928914 235.815239 
L 484.106037 239.366335 
L 485.283159 231.952005 
L 486.460282 227.448854 
L 487.637404 218.141135 
L 489.991649 190.888047 
L 491.168772 169.46533 
L 492.345894 142.450535 
L 493.523017 130.341216 
L 494.700139 108.145985 
L 495.877262 88.76444 
L 497.054384 73.919002 
L 498.231507 67.074088 
L 499.408629 56.747749 
L 500.585751 49.665567 
L 501.762874 48.0833 
L 502.939996 52.25486 
L 504.117119 50.350978 
L 506.471364 62.942314 
L 507.648486 62.783018 
L 508.825609 76.140377 
L 510.002731 85.876094 
L 511.179854 91.46123 
L 512.356976 101.020223 
L 513.534099 108.605055 
L 514.711221 115.421142 
L 515.888344 114.8026 
L 517.065466 123.801392 
L 518.242589 131.890369 
L 519.419711 134.823668 
L 520.596834 147.75376 
L 521.773956 149.9104 
L 522.951079 159.161398 
L 524.128201 174.194574 
L 525.305324 174.316386 
L 526.482446 191.034575 
L 527.659569 192.314784 
L 528.836691 196.671097 
L 530.013814 201.627726 
L 531.190936 198.518645 
L 532.368059 201.722915 
L 533.545181 198.292044 
L 534.722304 200.821521 
L 535.899426 210.177595 
L 537.076549 198.403502 
L 538.253671 205.764281 
L 539.430794 209.402586 
L 540.607916 211.003855 
L 541.785039 215.433975 
L 542.962161 212.836081 
L 544.139284 212.142881 
L 545.316406 199.15803 
L 545.316406 199.15803 
" clip-path="url(#p48034b75fd)" style="fill: none; stroke: #ff7f0e; stroke-linecap: square"/>
   </g>
   <g id="patch_3">
    <path d="M 52.160938 250.421875 
L 52.160938 7.2 
" style="fill: none; stroke: #000000; stroke-width: 0.8; stroke-linejoin: miter; stroke-linecap: square"/>
   </g>
   <g id="patch_4">
    <path d="M 568.8 250.421875 
L 568.8 7.2 
" style="fill: none; stroke: #000000; stroke-width: 0.8; stroke-linejoin: miter; stroke-linecap: square"/>
   </g>
   <g id="patch_5">
    <path d="M 52.160937 250.421875 
L 568.8 250.421875 
" style="fill: none; stroke: #000000; stroke-width: 0.8; stroke-linejoin: miter; stroke-linecap: square"/>
   </g>
   <g id="patch_6">
    <path d="M 52.160937 7.2 
L 568.8 7.2 
" style="fill: none; stroke: #000000; stroke-width: 0.8; stroke-linejoin: miter; stroke-linecap: square"/>
   </g>
   <g id="legend_1">
    <g id="patch_7">
     <path d="M 504.804688 44.55625 
L 561.8 44.55625 
Q 563.8 44.55625 563.8 42.55625 
L 563.8 14.2 
Q 563.8 12.2 561.8 12.2 
L 504.804688 12.2 
Q 502.804688 12.2 502.804688 14.2 
L 502.804688 42.55625 
Q 502.804688 44.55625 504.804688 44.55625 
z
" style="fill: #ffffff; opacity: 0.8; stroke: #cccccc; stroke-linejoin: miter"/>
    </g>
    <g id="line2d_31">
     <path d="M 506.804688 20.298437 
L 516.804688 20.298437 
L 526.804688 20.298437 
" style="fill: none; stroke: #1f77b4; stroke-linecap: square"/>
    </g>
    <g id="text_17">
     <!-- real -->
     <g transform="translate(534.804688 23.798437) scale(0.1 -0.1)">
      <defs>
       <path id="DejaVuSans-72" d="M 2631 2963 
Q 2534 3019 2420 3045 
Q 2306 3072 2169 3072 
Q 1681 3072 1420 2755 
Q 1159 2438 1159 1844 
L 1159 0 
L 581 0 
L 581 3500 
L 1159 3500 
L 1159 2956 
Q 1341 3275 1631 3429 
Q 1922 3584 2338 3584 
Q 2397 3584 2469 3576 
Q 2541 3569 2628 3553 
L 2631 2963 
z
" transform="scale(0.015625)"/>
      </defs>
      <use xlink:href="#DejaVuSans-72"/>
      <use xlink:href="#DejaVuSans-65" transform="translate(38.863281 0)"/>
      <use xlink:href="#DejaVuSans-61" transform="translate(100.386719 0)"/>
      <use xlink:href="#DejaVuSans-6c" transform="translate(161.666016 0)"/>
     </g>
    </g>
    <g id="line2d_32">
     <path d="M 506.804688 34.976562 
L 516.804688 34.976562 
L 526.804688 34.976562 
" style="fill: none; stroke: #ff7f0e; stroke-linecap: square"/>
    </g>
    <g id="text_18">
     <!-- imag -->
     <g transform="translate(534.804688 38.476562) scale(0.1 -0.1)">
      <defs>
       <path id="DejaVuSans-67" d="M 2906 1791 
Q 2906 2416 2648 2759 
Q 2391 3103 1925 3103 
Q 1463 3103 1205 2759 
Q 947 2416 947 1791 
Q 947 1169 1205 825 
Q 1463 481 1925 481 
Q 2391 481 2648 825 
Q 2906 1169 2906 1791 
z
M 3481 434 
Q 3481 -459 3084 -895 
Q 2688 -1331 1869 -1331 
Q 1566 -1331 1297 -1286 
Q 1028 -1241 775 -1147 
L 775 -588 
Q 1028 -725 1275 -790 
Q 1522 -856 1778 -856 
Q 2344 -856 2625 -561 
Q 2906 -266 2906 331 
L 2906 616 
Q 2728 306 2450 153 
Q 2172 0 1784 0 
Q 1141 0 747 490 
Q 353 981 353 1791 
Q 353 2603 747 3093 
Q 1141 3584 1784 3584 
Q 2172 3584 2450 3431 
Q 2728 3278 2906 2969 
L 2906 3500 
L 3481 3500 
L 3481 434 
z
" transform="scale(0.015625)"/>
      </defs>
      <use xlink:href="#DejaVuSans-69"/>
      <use xlink:href="#DejaVuSans-6d" transform="translate(27.783203 0)"/>
      <use xlink:href="#DejaVuSans-61" transform="translate(125.195312 0)"/>
      <use xlink:href="#DejaVuSans-67" transform="translate(186.474609 0)"/>
     </g>
    </g>
   </g>
  </g>
 </g>
 <defs>
  <clipPath id="p48034b75fd">
   <rect x="52.160938" y="7.2" width="516.639063" height="243.221875"/>
  </clipPath>
 </defs>
</svg>
