<?xml version="1.0" encoding="utf-8" standalone="no"?>
<!DOCTYPE svg PUBLIC "-//W3C//DTD SVG 1.1//EN"
  "http://www.w3.org/Graphics/SVG/1.1/DTD/svg11.dtd">
<svg xmlns:xlink="http://www.w3.org/1999/xlink" width="576pt" height="288pt" viewBox="0 0 576 288" xmlns="http://www.w3.org/2000/svg" version="1.1">
 <metadata>
  <rdf:RDF xmlns:dc="http://purl.org/dc/elements/1.1/" xmlns:cc="http://creativecommons.org/ns#" xmlns:rdf="http://www.w3.org/1999/02/22-rdf-syntax-ns#">
   <cc:Work>
    <dc:type rdf:resource="http://purl.org/dc/dcmitype/StillImage"/>
    <dc:date>2025-11-27T16:48:24.015572</dc:date>
    <dc:format>image/svg+xml</dc:format>
    <dc:creator>
     <cc:Agent>
      <dc:title>Matplotlib v3.10.7, https://matplotlib.org/</dc:title>
     </cc:Agent>
    </dc:creator>
   </cc:Work>
  </rdf:RDF>
 </metadata>
 <defs>
  <style type="text/css">*{stroke-linejoin: round; stroke-linecap: butt}</style>
 </defs>
 <g id="figure_1">
  <g id="patch_1">
   <path d="M 0 288 
L 576 288 
L 576 0 
L 0 0 
z
" style="fill: #ffffff"/>
  </g>
  <g id="axes_1">
   <g id="patch_2">
    <path d="M 52.160938 250.421875 
L 568.8 250.421875 
L 568.8 7.2 
L 52.160938 7.2 
z
" style="fill: #ffffff"/>
   </g>
   <g id="matplotlib.axis_1">
    <g id="xtick_1">
     <g id="line2d_1">
      <path d="M 75.644531 250.421875 
L 75.644531 7.2 
" clip-path="url(#pc32a9f823f)" style="fill: none; stroke-dasharray: 2.96,1.28; stroke-dashoffset: 0; stroke: #b0b0b0; stroke-opacity: 0.8; stroke-width: 0.8"/>
     </g>
     <g id="line2d_2">
      <defs>
       <path id="m879dc86eef" d="M 0 0 
L 0 3.5 
" style="stroke: #000000; stroke-width: 0.8"/>
      </defs>
      <g>
       <use xlink:href="#m879dc86eef" x="75.644531" y="250.421875" style="stroke: #000000; stroke-width: 0.8"/>
      </g>
     </g>
     <g id="text_1">
      <!-- 0 -->
      <g transform="translate(72.463281 265.020312) scale(0.1 -0.1)">
       <defs>
        <path id="DejaVuSans-30" d="M 2034 4250 
Q 1547 4250 1301 3770 
Q 1056 3291 1056 2328 
Q 1056 1369 1301 889 
Q 1547 409 2034 409 
Q 2525 409 2770 889 
Q 3016 1369 3016 2328 
Q 3016 3291 2770 3770 
Q 2525 4250 2034 4250 
z
M 2034 4750 
Q 2819 4750 3233 4129 
Q 3647 3509 3647 2328 
Q 3647 1150 3233 529 
Q 2819 -91 2034 -91 
Q 1250 -91 836 529 
Q 422 1150 422 2328 
Q 422 3509 836 4129 
Q 1250 4750 2034 4750 
z
" transform="scale(0.015625)"/>
       </defs>
       <use xlink:href="#DejaVuSans-30"/>
      </g>
     </g>
    </g>
    <g id="xtick_2">
     <g id="line2d_3">
      <path d="M 134.500656 250.421875 
L 134.500656 7.2 
" clip-path="url(#pc32a9f823f)" style="fill: none; stroke-dasharray: 2.96,1.28; stroke-dashoffset: 0; stroke: #b0b0b0; stroke-opacity: 0.8; stroke-width: 0.8"/>
     </g>
     <g id="line2d_4">
      <g>
       <use xlink:href="#m879dc86eef" x="134.500656" y="250.421875" style="stroke: #000000; stroke-width: 0.8"/>
      </g>
     </g>
     <g id="text_2">
      <!-- 50 -->
      <g transform="translate(128.138156 265.020312) scale(0.1 -0.1)">
       <defs>
        <path id="DejaVuSans-35" d="M 691 4666 
L 3169 4666 
L 3169 4134 
L 1269 4134 
L 1269 2991 
Q 1406 3038 1543 3061 
Q 1681 3084 1819 3084 
Q 2600 3084 3056 2656 
Q 3513 2228 3513 1497 
Q 3513 744 3044 326 
Q 2575 -91 1722 -91 
Q 1428 -91 1123 -41 
Q 819 9 494 109 
L 494 744 
Q 775 591 1075 516 
Q 1375 441 1709 441 
Q 2250 441 2565 725 
Q 2881 1009 2881 1497 
Q 2881 1984 2565 2268 
Q 2250 2553 1709 2553 
Q 1456 2553 1204 2497 
Q 953 2441 691 2322 
L 691 4666 
z
" transform="scale(0.015625)"/>
       </defs>
       <use xlink:href="#DejaVuSans-35"/>
       <use xlink:href="#DejaVuSans-30" transform="translate(63.623047 0)"/>
      </g>
     </g>
    </g>
    <g id="xtick_3">
     <g id="line2d_5">
      <path d="M 193.356781 250.421875 
L 193.356781 7.2 
" clip-path="url(#pc32a9f823f)" style="fill: none; stroke-dasharray: 2.96,1.28; stroke-dashoffset: 0; stroke: #b0b0b0; stroke-opacity: 0.8; stroke-width: 0.8"/>
     </g>
     <g id="line2d_6">
      <g>
       <use xlink:href="#m879dc86eef" x="193.356781" y="250.421875" style="stroke: #000000; stroke-width: 0.8"/>
      </g>
     </g>
     <g id="text_3">
      <!-- 100 -->
      <g transform="translate(183.813031 265.020312) scale(0.1 -0.1)">
       <defs>
        <path id="DejaVuSans-31" d="M 794 531 
L 1825 531 
L 1825 4091 
L 703 3866 
L 703 4441 
L 1819 4666 
L 2450 4666 
L 2450 531 
L 3481 531 
L 3481 0 
L 794 0 
L 794 531 
z
" transform="scale(0.015625)"/>
       </defs>
       <use xlink:href="#DejaVuSans-31"/>
       <use xlink:href="#DejaVuSans-30" transform="translate(63.623047 0)"/>
       <use xlink:href="#DejaVuSans-30" transform="translate(127.246094 0)"/>
      </g>
     </g>
    </g>
    <g id="xtick_4">
     <g id="line2d_7">
      <path d="M 252.212905 250.421875 
L 252.212905 7.2 
" clip-path="url(#pc32a9f823f)" style="fill: none; stroke-dasharray: 2.96,1.28; stroke-dashoffset: 0; stroke: #b0b0b0; stroke-opacity: 0.8; stroke-width: 0.8"/>
     </g>
     <g id="line2d_8">
      <g>
       <use xlink:href="#m879dc86eef" x="252.212905" y="250.421875" style="stroke: #000000; stroke-width: 0.8"/>
      </g>
     </g>
     <g id="text_4">
      <!-- 150 -->
      <g transform="translate(242.669155 265.020312) scale(0.1 -0.1)">
       <use xlink:href="#DejaVuSans-31"/>
       <use xlink:href="#DejaVuSans-35" transform="translate(63.623047 0)"/>
       <use xlink:href="#DejaVuSans-30" transform="translate(127.246094 0)"/>
      </g>
     </g>
    </g>
    <g id="xtick_5">
     <g id="line2d_9">
      <path d="M 311.06903 250.421875 
L 311.06903 7.2 
" clip-path="url(#pc32a9f823f)" style="fill: none; stroke-dasharray: 2.96,1.28; stroke-dashoffset: 0; stroke: #b0b0b0; stroke-opacity: 0.8; stroke-width: 0.8"/>
     </g>
     <g id="line2d_10">
      <g>
       <use xlink:href="#m879dc86eef" x="311.06903" y="250.421875" style="stroke: #000000; stroke-width: 0.8"/>
      </g>
     </g>
     <g id="text_5">
      <!-- 200 -->
      <g transform="translate(301.52528 265.020312) scale(0.1 -0.1)">
       <defs>
        <path id="DejaVuSans-32" d="M 1228 531 
L 3431 531 
L 3431 0 
L 469 0 
L 469 531 
Q 828 903 1448 1529 
Q 2069 2156 2228 2338 
Q 2531 2678 2651 2914 
Q 2772 3150 2772 3378 
Q 2772 3750 2511 3984 
Q 2250 4219 1831 4219 
Q 1534 4219 1204 4116 
Q 875 4013 500 3803 
L 500 4441 
Q 881 4594 1212 4672 
Q 1544 4750 1819 4750 
Q 2544 4750 2975 4387 
Q 3406 4025 3406 3419 
Q 3406 3131 3298 2873 
Q 3191 2616 2906 2266 
Q 2828 2175 2409 1742 
Q 1991 1309 1228 531 
z
" transform="scale(0.015625)"/>
       </defs>
       <use xlink:href="#DejaVuSans-32"/>
       <use xlink:href="#DejaVuSans-30" transform="translate(63.623047 0)"/>
       <use xlink:href="#DejaVuSans-30" transform="translate(127.246094 0)"/>
      </g>
     </g>
    </g>
    <g id="xtick_6">
     <g id="line2d_11">
      <path d="M 369.925155 250.421875 
L 369.925155 7.2 
" clip-path="url(#pc32a9f823f)" style="fill: none; stroke-dasharray: 2.96,1.28; stroke-dashoffset: 0; stroke: #b0b0b0; stroke-opacity: 0.8; stroke-width: 0.8"/>
     </g>
     <g id="line2d_12">
      <g>
       <use xlink:href="#m879dc86eef" x="369.925155" y="250.421875" style="stroke: #000000; stroke-width: 0.8"/>
      </g>
     </g>
     <g id="text_6">
      <!-- 250 -->
      <g transform="translate(360.381405 265.020312) scale(0.1 -0.1)">
       <use xlink:href="#DejaVuSans-32"/>
       <use xlink:href="#DejaVuSans-35" transform="translate(63.623047 0)"/>
       <use xlink:href="#DejaVuSans-30" transform="translate(127.246094 0)"/>
      </g>
     </g>
    </g>
    <g id="xtick_7">
     <g id="line2d_13">
      <path d="M 428.781279 250.421875 
L 428.781279 7.2 
" clip-path="url(#pc32a9f823f)" style="fill: none; stroke-dasharray: 2.96,1.28; stroke-dashoffset: 0; stroke: #b0b0b0; stroke-opacity: 0.8; stroke-width: 0.8"/>
     </g>
     <g id="line2d_14">
      <g>
       <use xlink:href="#m879dc86eef" x="428.781279" y="250.421875" style="stroke: #000000; stroke-width: 0.8"/>
      </g>
     </g>
     <g id="text_7">
      <!-- 300 -->
      <g transform="translate(419.237529 265.020312) scale(0.1 -0.1)">
       <defs>
        <path id="DejaVuSans-33" d="M 2597 2516 
Q 3050 2419 3304 2112 
Q 3559 1806 3559 1356 
Q 3559 666 3084 287 
Q 2609 -91 1734 -91 
Q 1441 -91 1130 -33 
Q 819 25 488 141 
L 488 750 
Q 750 597 1062 519 
Q 1375 441 1716 441 
Q 2309 441 2620 675 
Q 2931 909 2931 1356 
Q 2931 1769 2642 2001 
Q 2353 2234 1838 2234 
L 1294 2234 
L 1294 2753 
L 1863 2753 
Q 2328 2753 2575 2939 
Q 2822 3125 2822 3475 
Q 2822 3834 2567 4026 
Q 2313 4219 1838 4219 
Q 1578 4219 1281 4162 
Q 984 4106 628 3988 
L 628 4550 
Q 988 4650 1302 4700 
Q 1616 4750 1894 4750 
Q 2613 4750 3031 4423 
Q 3450 4097 3450 3541 
Q 3450 3153 3228 2886 
Q 3006 2619 2597 2516 
z
" transform="scale(0.015625)"/>
       </defs>
       <use xlink:href="#DejaVuSans-33"/>
       <use xlink:href="#DejaVuSans-30" transform="translate(63.623047 0)"/>
       <use xlink:href="#DejaVuSans-30" transform="translate(127.246094 0)"/>
      </g>
     </g>
    </g>
    <g id="xtick_8">
     <g id="line2d_15">
      <path d="M 487.637404 250.421875 
L 487.637404 7.2 
" clip-path="url(#pc32a9f823f)" style="fill: none; stroke-dasharray: 2.96,1.28; stroke-dashoffset: 0; stroke: #b0b0b0; stroke-opacity: 0.8; stroke-width: 0.8"/>
     </g>
     <g id="line2d_16">
      <g>
       <use xlink:href="#m879dc86eef" x="487.637404" y="250.421875" style="stroke: #000000; stroke-width: 0.8"/>
      </g>
     </g>
     <g id="text_8">
      <!-- 350 -->
      <g transform="translate(478.093654 265.020312) scale(0.1 -0.1)">
       <use xlink:href="#DejaVuSans-33"/>
       <use xlink:href="#DejaVuSans-35" transform="translate(63.623047 0)"/>
       <use xlink:href="#DejaVuSans-30" transform="translate(127.246094 0)"/>
      </g>
     </g>
    </g>
    <g id="xtick_9">
     <g id="line2d_17">
      <path d="M 546.493529 250.421875 
L 546.493529 7.2 
" clip-path="url(#pc32a9f823f)" style="fill: none; stroke-dasharray: 2.96,1.28; stroke-dashoffset: 0; stroke: #b0b0b0; stroke-opacity: 0.8; stroke-width: 0.8"/>
     </g>
     <g id="line2d_18">
      <g>
       <use xlink:href="#m879dc86eef" x="546.493529" y="250.421875" style="stroke: #000000; stroke-width: 0.8"/>
      </g>
     </g>
     <g id="text_9">
      <!-- 400 -->
      <g transform="translate(536.949779 265.020312) scale(0.1 -0.1)">
       <defs>
        <path id="DejaVuSans-34" d="M 2419 4116 
L 825 1625 
L 2419 1625 
L 2419 4116 
z
M 2253 4666 
L 3047 4666 
L 3047 1625 
L 3713 1625 
L 3713 1100 
L 3047 1100 
L 3047 0 
L 2419 0 
L 2419 1100 
L 313 1100 
L 313 1709 
L 2253 4666 
z
" transform="scale(0.015625)"/>
       </defs>
       <use xlink:href="#DejaVuSans-34"/>
       <use xlink:href="#DejaVuSans-30" transform="translate(63.623047 0)"/>
       <use xlink:href="#DejaVuSans-30" transform="translate(127.246094 0)"/>
      </g>
     </g>
    </g>
    <g id="text_10">
     <!-- Sample, $n$ -->
     <g transform="translate(285.380469 278.7) scale(0.1 -0.1)">
      <defs>
       <path id="DejaVuSans-53" d="M 3425 4513 
L 3425 3897 
Q 3066 4069 2747 4153 
Q 2428 4238 2131 4238 
Q 1616 4238 1336 4038 
Q 1056 3838 1056 3469 
Q 1056 3159 1242 3001 
Q 1428 2844 1947 2747 
L 2328 2669 
Q 3034 2534 3370 2195 
Q 3706 1856 3706 1288 
Q 3706 609 3251 259 
Q 2797 -91 1919 -91 
Q 1588 -91 1214 -16 
Q 841 59 441 206 
L 441 856 
Q 825 641 1194 531 
Q 1563 422 1919 422 
Q 2459 422 2753 634 
Q 3047 847 3047 1241 
Q 3047 1584 2836 1778 
Q 2625 1972 2144 2069 
L 1759 2144 
Q 1053 2284 737 2584 
Q 422 2884 422 3419 
Q 422 4038 858 4394 
Q 1294 4750 2059 4750 
Q 2388 4750 2728 4690 
Q 3069 4631 3425 4513 
z
" transform="scale(0.015625)"/>
       <path id="DejaVuSans-61" d="M 2194 1759 
Q 1497 1759 1228 1600 
Q 959 1441 959 1056 
Q 959 750 1161 570 
Q 1363 391 1709 391 
Q 2188 391 2477 730 
Q 2766 1069 2766 1631 
L 2766 1759 
L 2194 1759 
z
M 3341 1997 
L 3341 0 
L 2766 0 
L 2766 531 
Q 2569 213 2275 61 
Q 1981 -91 1556 -91 
Q 1019 -91 701 211 
Q 384 513 384 1019 
Q 384 1609 779 1909 
Q 1175 2209 1959 2209 
L 2766 2209 
L 2766 2266 
Q 2766 2663 2505 2880 
Q 2244 3097 1772 3097 
Q 1472 3097 1187 3025 
Q 903 2953 641 2809 
L 641 3341 
Q 956 3463 1253 3523 
Q 1550 3584 1831 3584 
Q 2591 3584 2966 3190 
Q 3341 2797 3341 1997 
z
" transform="scale(0.015625)"/>
       <path id="DejaVuSans-6d" d="M 3328 2828 
Q 3544 3216 3844 3400 
Q 4144 3584 4550 3584 
Q 5097 3584 5394 3201 
Q 5691 2819 5691 2113 
L 5691 0 
L 5113 0 
L 5113 2094 
Q 5113 2597 4934 2840 
Q 4756 3084 4391 3084 
Q 3944 3084 3684 2787 
Q 3425 2491 3425 1978 
L 3425 0 
L 2847 0 
L 2847 2094 
Q 2847 2600 2669 2842 
Q 2491 3084 2119 3084 
Q 1678 3084 1418 2786 
Q 1159 2488 1159 1978 
L 1159 0 
L 581 0 
L 581 3500 
L 1159 3500 
L 1159 2956 
Q 1356 3278 1631 3431 
Q 1906 3584 2284 3584 
Q 2666 3584 2933 3390 
Q 3200 3197 3328 2828 
z
" transform="scale(0.015625)"/>
       <path id="DejaVuSans-70" d="M 1159 525 
L 1159 -1331 
L 581 -1331 
L 581 3500 
L 1159 3500 
L 1159 2969 
Q 1341 3281 1617 3432 
Q 1894 3584 2278 3584 
Q 2916 3584 3314 3078 
Q 3713 2572 3713 1747 
Q 3713 922 3314 415 
Q 2916 -91 2278 -91 
Q 1894 -91 1617 61 
Q 1341 213 1159 525 
z
M 3116 1747 
Q 3116 2381 2855 2742 
Q 2594 3103 2138 3103 
Q 1681 3103 1420 2742 
Q 1159 2381 1159 1747 
Q 1159 1113 1420 752 
Q 1681 391 2138 391 
Q 2594 391 2855 752 
Q 3116 1113 3116 1747 
z
" transform="scale(0.015625)"/>
       <path id="DejaVuSans-6c" d="M 603 4863 
L 1178 4863 
L 1178 0 
L 603 0 
L 603 4863 
z
" transform="scale(0.015625)"/>
       <path id="DejaVuSans-65" d="M 3597 1894 
L 3597 1613 
L 953 1613 
Q 991 1019 1311 708 
Q 1631 397 2203 397 
Q 2534 397 2845 478 
Q 3156 559 3463 722 
L 3463 178 
Q 3153 47 2828 -22 
Q 2503 -91 2169 -91 
Q 1331 -91 842 396 
Q 353 884 353 1716 
Q 353 2575 817 3079 
Q 1281 3584 2069 3584 
Q 2775 3584 3186 3129 
Q 3597 2675 3597 1894 
z
M 3022 2063 
Q 3016 2534 2758 2815 
Q 2500 3097 2075 3097 
Q 1594 3097 1305 2825 
Q 1016 2553 972 2059 
L 3022 2063 
z
" transform="scale(0.015625)"/>
       <path id="DejaVuSans-2c" d="M 750 794 
L 1409 794 
L 1409 256 
L 897 -744 
L 494 -744 
L 750 256 
L 750 794 
z
" transform="scale(0.015625)"/>
       <path id="DejaVuSans-20" transform="scale(0.015625)"/>
       <path id="DejaVuSans-Oblique-6e" d="M 3566 2113 
L 3156 0 
L 2578 0 
L 2988 2091 
Q 3016 2238 3031 2350 
Q 3047 2463 3047 2528 
Q 3047 2791 2881 2937 
Q 2716 3084 2419 3084 
Q 1956 3084 1622 2776 
Q 1288 2469 1184 1941 
L 800 0 
L 225 0 
L 903 3500 
L 1478 3500 
L 1363 2950 
Q 1603 3253 1940 3418 
Q 2278 3584 2650 3584 
Q 3113 3584 3367 3334 
Q 3622 3084 3622 2631 
Q 3622 2519 3608 2391 
Q 3594 2263 3566 2113 
z
" transform="scale(0.015625)"/>
      </defs>
      <use xlink:href="#DejaVuSans-53" transform="translate(0 0.015625)"/>
      <use xlink:href="#DejaVuSans-61" transform="translate(63.476562 0.015625)"/>
      <use xlink:href="#DejaVuSans-6d" transform="translate(124.755859 0.015625)"/>
      <use xlink:href="#DejaVuSans-70" transform="translate(222.167969 0.015625)"/>
      <use xlink:href="#DejaVuSans-6c" transform="translate(285.644531 0.015625)"/>
      <use xlink:href="#DejaVuSans-65" transform="translate(313.427734 0.015625)"/>
      <use xlink:href="#DejaVuSans-2c" transform="translate(374.951172 0.015625)"/>
      <use xlink:href="#DejaVuSans-20" transform="translate(406.738281 0.015625)"/>
      <use xlink:href="#DejaVuSans-Oblique-6e" transform="translate(438.525391 0.015625)"/>
     </g>
    </g>
   </g>
   <g id="matplotlib.axis_2">
    <g id="ytick_1">
     <g id="line2d_19">
      <path d="M 52.160938 216.839105 
L 568.8 216.839105 
" clip-path="url(#pc32a9f823f)" style="fill: none; stroke-dasharray: 2.96,1.28; stroke-dashoffset: 0; stroke: #b0b0b0; stroke-opacity: 0.8; stroke-width: 0.8"/>
     </g>
     <g id="line2d_20">
      <defs>
       <path id="mbe8ac054b7" d="M 0 0 
L -3.5 0 
" style="stroke: #000000; stroke-width: 0.8"/>
      </defs>
      <g>
       <use xlink:href="#mbe8ac054b7" x="52.160938" y="216.839105" style="stroke: #000000; stroke-width: 0.8"/>
      </g>
     </g>
     <g id="text_11">
      <!-- −0.4 -->
      <g transform="translate(20.878125 220.638323) scale(0.1 -0.1)">
       <defs>
        <path id="DejaVuSans-2212" d="M 678 2272 
L 4684 2272 
L 4684 1741 
L 678 1741 
L 678 2272 
z
" transform="scale(0.015625)"/>
        <path id="DejaVuSans-2e" d="M 684 794 
L 1344 794 
L 1344 0 
L 684 0 
L 684 794 
z
" transform="scale(0.015625)"/>
       </defs>
       <use xlink:href="#DejaVuSans-2212"/>
       <use xlink:href="#DejaVuSans-30" transform="translate(83.789062 0)"/>
       <use xlink:href="#DejaVuSans-2e" transform="translate(147.412109 0)"/>
       <use xlink:href="#DejaVuSans-34" transform="translate(179.199219 0)"/>
      </g>
     </g>
    </g>
    <g id="ytick_2">
     <g id="line2d_21">
      <path d="M 52.160938 173.196186 
L 568.8 173.196186 
" clip-path="url(#pc32a9f823f)" style="fill: none; stroke-dasharray: 2.96,1.28; stroke-dashoffset: 0; stroke: #b0b0b0; stroke-opacity: 0.8; stroke-width: 0.8"/>
     </g>
     <g id="line2d_22">
      <g>
       <use xlink:href="#mbe8ac054b7" x="52.160938" y="173.196186" style="stroke: #000000; stroke-width: 0.8"/>
      </g>
     </g>
     <g id="text_12">
      <!-- −0.2 -->
      <g transform="translate(20.878125 176.995405) scale(0.1 -0.1)">
       <use xlink:href="#DejaVuSans-2212"/>
       <use xlink:href="#DejaVuSans-30" transform="translate(83.789062 0)"/>
       <use xlink:href="#DejaVuSans-2e" transform="translate(147.412109 0)"/>
       <use xlink:href="#DejaVuSans-32" transform="translate(179.199219 0)"/>
      </g>
     </g>
    </g>
    <g id="ytick_3">
     <g id="line2d_23">
      <path d="M 52.160938 129.553268 
L 568.8 129.553268 
" clip-path="url(#pc32a9f823f)" style="fill: none; stroke-dasharray: 2.96,1.28; stroke-dashoffset: 0; stroke: #b0b0b0; stroke-opacity: 0.8; stroke-width: 0.8"/>
     </g>
     <g id="line2d_24">
      <g>
       <use xlink:href="#mbe8ac054b7" x="52.160938" y="129.553268" style="stroke: #000000; stroke-width: 0.8"/>
      </g>
     </g>
     <g id="text_13">
      <!-- 0.0 -->
      <g transform="translate(29.257812 133.352487) scale(0.1 -0.1)">
       <use xlink:href="#DejaVuSans-30"/>
       <use xlink:href="#DejaVuSans-2e" transform="translate(63.623047 0)"/>
       <use xlink:href="#DejaVuSans-30" transform="translate(95.410156 0)"/>
      </g>
     </g>
    </g>
    <g id="ytick_4">
     <g id="line2d_25">
      <path d="M 52.160938 85.910349 
L 568.8 85.910349 
" clip-path="url(#pc32a9f823f)" style="fill: none; stroke-dasharray: 2.96,1.28; stroke-dashoffset: 0; stroke: #b0b0b0; stroke-opacity: 0.8; stroke-width: 0.8"/>
     </g>
     <g id="line2d_26">
      <g>
       <use xlink:href="#mbe8ac054b7" x="52.160938" y="85.910349" style="stroke: #000000; stroke-width: 0.8"/>
      </g>
     </g>
     <g id="text_14">
      <!-- 0.2 -->
      <g transform="translate(29.257812 89.709568) scale(0.1 -0.1)">
       <use xlink:href="#DejaVuSans-30"/>
       <use xlink:href="#DejaVuSans-2e" transform="translate(63.623047 0)"/>
       <use xlink:href="#DejaVuSans-32" transform="translate(95.410156 0)"/>
      </g>
     </g>
    </g>
    <g id="ytick_5">
     <g id="line2d_27">
      <path d="M 52.160938 42.267431 
L 568.8 42.267431 
" clip-path="url(#pc32a9f823f)" style="fill: none; stroke-dasharray: 2.96,1.28; stroke-dashoffset: 0; stroke: #b0b0b0; stroke-opacity: 0.8; stroke-width: 0.8"/>
     </g>
     <g id="line2d_28">
      <g>
       <use xlink:href="#mbe8ac054b7" x="52.160938" y="42.267431" style="stroke: #000000; stroke-width: 0.8"/>
      </g>
     </g>
     <g id="text_15">
      <!-- 0.4 -->
      <g transform="translate(29.257812 46.06665) scale(0.1 -0.1)">
       <use xlink:href="#DejaVuSans-30"/>
       <use xlink:href="#DejaVuSans-2e" transform="translate(63.623047 0)"/>
       <use xlink:href="#DejaVuSans-34" transform="translate(95.410156 0)"/>
      </g>
     </g>
    </g>
    <g id="text_16">
     <!-- Amplitude -->
     <g transform="translate(14.798437 154.433594) rotate(-90) scale(0.1 -0.1)">
      <defs>
       <path id="DejaVuSans-41" d="M 2188 4044 
L 1331 1722 
L 3047 1722 
L 2188 4044 
z
M 1831 4666 
L 2547 4666 
L 4325 0 
L 3669 0 
L 3244 1197 
L 1141 1197 
L 716 0 
L 50 0 
L 1831 4666 
z
" transform="scale(0.015625)"/>
       <path id="DejaVuSans-69" d="M 603 3500 
L 1178 3500 
L 1178 0 
L 603 0 
L 603 3500 
z
M 603 4863 
L 1178 4863 
L 1178 4134 
L 603 4134 
L 603 4863 
z
" transform="scale(0.015625)"/>
       <path id="DejaVuSans-74" d="M 1172 4494 
L 1172 3500 
L 2356 3500 
L 2356 3053 
L 1172 3053 
L 1172 1153 
Q 1172 725 1289 603 
Q 1406 481 1766 481 
L 2356 481 
L 2356 0 
L 1766 0 
Q 1100 0 847 248 
Q 594 497 594 1153 
L 594 3053 
L 172 3053 
L 172 3500 
L 594 3500 
L 594 4494 
L 1172 4494 
z
" transform="scale(0.015625)"/>
       <path id="DejaVuSans-75" d="M 544 1381 
L 544 3500 
L 1119 3500 
L 1119 1403 
Q 1119 906 1312 657 
Q 1506 409 1894 409 
Q 2359 409 2629 706 
Q 2900 1003 2900 1516 
L 2900 3500 
L 3475 3500 
L 3475 0 
L 2900 0 
L 2900 538 
Q 2691 219 2414 64 
Q 2138 -91 1772 -91 
Q 1169 -91 856 284 
Q 544 659 544 1381 
z
M 1991 3584 
L 1991 3584 
z
" transform="scale(0.015625)"/>
       <path id="DejaVuSans-64" d="M 2906 2969 
L 2906 4863 
L 3481 4863 
L 3481 0 
L 2906 0 
L 2906 525 
Q 2725 213 2448 61 
Q 2172 -91 1784 -91 
Q 1150 -91 751 415 
Q 353 922 353 1747 
Q 353 2572 751 3078 
Q 1150 3584 1784 3584 
Q 2172 3584 2448 3432 
Q 2725 3281 2906 2969 
z
M 947 1747 
Q 947 1113 1208 752 
Q 1469 391 1925 391 
Q 2381 391 2643 752 
Q 2906 1113 2906 1747 
Q 2906 2381 2643 2742 
Q 2381 3103 1925 3103 
Q 1469 3103 1208 2742 
Q 947 2381 947 1747 
z
" transform="scale(0.015625)"/>
      </defs>
      <use xlink:href="#DejaVuSans-41"/>
      <use xlink:href="#DejaVuSans-6d" transform="translate(68.408203 0)"/>
      <use xlink:href="#DejaVuSans-70" transform="translate(165.820312 0)"/>
      <use xlink:href="#DejaVuSans-6c" transform="translate(229.296875 0)"/>
      <use xlink:href="#DejaVuSans-69" transform="translate(257.080078 0)"/>
      <use xlink:href="#DejaVuSans-74" transform="translate(284.863281 0)"/>
      <use xlink:href="#DejaVuSans-75" transform="translate(324.072266 0)"/>
      <use xlink:href="#DejaVuSans-64" transform="translate(387.451172 0)"/>
      <use xlink:href="#DejaVuSans-65" transform="translate(450.927734 0)"/>
     </g>
    </g>
   </g>
   <g id="line2d_29">
    <path d="M 75.644531 126.200483 
L 76.821654 123.557289 
L 77.998776 129.078937 
L 79.175899 127.551739 
L 80.353021 131.009659 
L 81.530144 127.541502 
L 82.707266 131.837448 
L 83.884389 133.446196 
L 85.061511 126.058847 
L 87.415756 133.847374 
L 88.592879 131.986855 
L 89.770001 133.811633 
L 90.947124 132.62545 
L 92.124246 134.851854 
L 93.301369 134.079218 
L 94.478491 125.041999 
L 95.655614 125.55343 
L 98.009859 136.730169 
L 99.186981 134.079425 
L 100.364104 134.058589 
L 101.541226 134.943027 
L 102.718349 137.856995 
L 103.895471 128.413529 
L 105.072594 129.77489 
L 106.249716 132.174612 
L 107.426839 124.340024 
L 108.603961 126.771726 
L 109.781084 125.507309 
L 110.958206 118.061304 
L 112.135329 127.848641 
L 113.312451 122.229528 
L 114.489574 131.369594 
L 115.666696 137.933538 
L 116.843819 136.688095 
L 118.020941 148.182177 
L 119.198064 152.126837 
L 120.375186 147.897378 
L 121.552309 144.602723 
L 122.729431 133.553337 
L 123.906553 123.653817 
L 126.260798 92.549569 
L 127.437921 82.30977 
L 128.615043 70.849716 
L 129.792166 63.260082 
L 130.969288 65.254332 
L 132.146411 69.516997 
L 133.323533 77.235038 
L 134.500656 97.795634 
L 135.677778 120.800514 
L 136.854901 140.100241 
L 138.032023 169.933739 
L 139.209146 189.80895 
L 141.563391 216.97193 
L 142.740513 224.393269 
L 143.917636 223.716538 
L 145.094758 218.274913 
L 146.271881 202.185093 
L 147.449003 195.68953 
L 148.626126 171.644229 
L 149.803248 175.081275 
L 150.980371 170.483157 
L 152.157493 179.009091 
L 153.334616 191.639804 
L 154.511738 195.309088 
L 155.688861 207.646972 
L 156.865983 210.618245 
L 158.043106 223.290936 
L 159.220228 224.758193 
L 160.397351 210.734607 
L 161.574473 202.151892 
L 162.751596 188.254937 
L 163.928718 172.561811 
L 166.282963 119.078132 
L 167.460086 100.373631 
L 168.637208 83.903986 
L 169.814331 65.816224 
L 170.991453 68.993897 
L 172.168576 68.619454 
L 173.345698 75.051968 
L 174.522821 87.141869 
L 176.877066 108.231626 
L 178.054188 124.802537 
L 179.231311 133.838221 
L 180.408433 136.639178 
L 181.585556 142.179137 
L 182.762678 136.493652 
L 183.939801 129.673791 
L 185.116923 119.281764 
L 186.294046 98.698019 
L 189.825413 58.880071 
L 191.002536 40.202075 
L 192.179658 31.464078 
L 193.356781 35.705904 
L 194.533903 25.273215 
L 195.711026 32.832693 
L 196.888148 42.923186 
L 198.065271 61.976659 
L 199.242393 66.868899 
L 201.596638 102.943598 
L 202.773761 125.549939 
L 203.950883 144.662537 
L 205.128006 160.710639 
L 206.305128 165.592527 
L 207.482251 186.623156 
L 208.659373 191.93492 
L 209.836496 198.296196 
L 211.013618 195.521309 
L 212.190741 174.985362 
L 213.367863 169.384012 
L 214.544986 156.990534 
L 215.722108 141.303959 
L 216.89923 117.626953 
L 218.076353 113.132557 
L 219.253475 100.200265 
L 220.430598 92.522562 
L 221.60772 86.746176 
L 222.784843 78.432583 
L 223.961965 74.523407 
L 225.139088 75.535019 
L 226.31621 78.027295 
L 227.493333 80.140202 
L 228.670455 88.312237 
L 229.847578 86.243243 
L 231.0247 94.205243 
L 232.201823 104.520647 
L 233.378945 108.176393 
L 234.556068 117.23035 
L 235.73319 122.727901 
L 238.087435 145.899278 
L 239.264558 159.044218 
L 240.44168 164.132975 
L 241.618803 173.792152 
L 242.795925 187.81113 
L 243.973048 183.558665 
L 245.15017 188.265695 
L 246.327293 181.426824 
L 247.504415 182.643247 
L 248.681538 171.108474 
L 249.85866 170.864844 
L 251.035783 158.917945 
L 252.212905 145.649292 
L 253.390028 137.775485 
L 254.56715 128.157126 
L 255.744273 121.066651 
L 256.921395 119.796172 
L 258.098518 95.838527 
L 259.27564 96.05291 
L 261.629885 78.767309 
L 262.807008 70.997403 
L 263.98413 76.952329 
L 265.161253 74.302154 
L 266.338375 78.186418 
L 267.515498 83.898361 
L 268.69262 95.837379 
L 269.869743 103.216045 
L 271.046865 115.042828 
L 272.223988 122.547175 
L 274.578233 141.784132 
L 276.932478 158.10051 
L 278.1096 167.58738 
L 280.463845 181.835011 
L 281.640968 185.338492 
L 282.81809 186.739295 
L 283.995213 179.499936 
L 285.172335 178.849575 
L 286.349458 176.730789 
L 287.52658 171.346152 
L 289.880825 152.779839 
L 291.057948 140.165542 
L 292.23507 130.116516 
L 293.412193 125.030819 
L 294.589315 110.500515 
L 295.766438 97.501032 
L 296.94356 91.9873 
L 298.120683 82.428479 
L 300.474928 74.080449 
L 301.65205 75.613634 
L 302.829173 76.598611 
L 304.006295 85.127329 
L 305.183418 77.564111 
L 306.36054 93.741003 
L 307.537663 107.806007 
L 308.714785 108.267801 
L 309.891908 126.172802 
L 311.06903 133.795327 
L 312.246152 138.103527 
L 314.600397 156.010597 
L 315.77752 155.355262 
L 316.954642 171.328459 
L 318.131765 172.935804 
L 319.308887 178.950121 
L 320.48601 185.874781 
L 321.663132 191.744592 
L 322.840255 188.742275 
L 324.017377 192.211945 
L 325.1945 195.215514 
L 326.371622 198.65034 
L 327.548745 199.40971 
L 328.725867 205.599777 
L 329.90299 208.588926 
L 331.080112 200.512636 
L 332.257235 213.319853 
L 334.61148 201.120861 
L 335.788602 204.740893 
L 336.965725 194.514082 
L 338.142847 190.914082 
L 339.31997 188.765753 
L 340.497092 177.164218 
L 341.674215 166.687854 
L 342.851337 158.462822 
L 346.382705 136.195254 
L 347.559827 137.920788 
L 348.73695 128.175518 
L 349.914072 126.465287 
L 351.091195 125.696943 
L 352.268317 133.081308 
L 355.799685 159.681746 
L 356.976807 171.833059 
L 358.15393 177.559137 
L 359.331052 195.174471 
L 360.508175 206.02228 
L 361.685297 214.82082 
L 362.86242 221.879401 
L 364.039542 223.621936 
L 365.216665 218.271091 
L 366.393787 219.336039 
L 367.57091 209.943372 
L 368.748032 196.01013 
L 369.925155 178.769609 
L 371.102277 159.169331 
L 372.2794 143.345103 
L 373.456522 114.542611 
L 374.633645 96.966041 
L 375.810767 84.352455 
L 376.98789 67.502903 
L 378.165012 66.972745 
L 379.342135 68.613687 
L 380.519257 67.710805 
L 382.873502 89.342902 
L 384.050625 108.810283 
L 385.227747 120.363704 
L 386.40487 135.756091 
L 387.581992 143.504112 
L 388.759115 161.248498 
L 389.936237 165.666427 
L 391.11336 169.245451 
L 392.290482 178.346751 
L 393.467605 178.0791 
L 394.644727 171.705534 
L 395.82185 177.598939 
L 396.998972 175.388802 
L 398.176095 180.767335 
L 399.353217 174.649932 
L 400.53034 164.457564 
L 401.707462 167.034635 
L 402.884585 155.101569 
L 404.061707 141.474442 
L 405.238829 133.880121 
L 406.415952 117.472256 
L 407.593074 105.03069 
L 408.770197 98.649733 
L 409.947319 86.815 
L 411.124442 82.035355 
L 412.301564 74.108441 
L 413.478687 72.324011 
L 414.655809 72.521211 
L 415.832932 85.497763 
L 418.187177 93.923695 
L 420.541422 110.090596 
L 421.718544 115.79854 
L 422.895667 119.764373 
L 424.072789 127.298077 
L 425.249912 132.493665 
L 426.427034 127.939943 
L 427.604157 128.845445 
L 428.781279 127.47453 
L 429.958402 114.790652 
L 431.135524 106.788256 
L 432.312647 92.599623 
L 433.489769 80.919598 
L 434.666892 57.507881 
L 437.021137 39.031523 
L 438.198259 28.757915 
L 439.375382 24.834754 
L 440.552504 18.25554 
L 441.729627 25.659073 
L 442.906749 35.527361 
L 444.083872 69.329713 
L 445.260994 98.504484 
L 446.438117 124.685685 
L 447.615239 146.715764 
L 448.792362 173.073088 
L 449.969484 185.26081 
L 451.146607 188.478288 
L 452.323729 196.886491 
L 453.500852 182.430054 
L 457.032219 118.353129 
L 458.209342 93.159287 
L 459.386464 71.896216 
L 460.563587 48.372945 
L 461.740709 48.867825 
L 462.917832 42.945742 
L 464.094954 59.225352 
L 465.272077 71.40405 
L 466.449199 97.38559 
L 468.803444 158.257724 
L 469.980567 175.429235 
L 471.157689 198.132555 
L 472.334812 197.721548 
L 473.511934 204.743723 
L 474.689057 197.391804 
L 475.866179 191.557703 
L 477.043302 174.897272 
L 478.220424 161.457859 
L 479.397547 145.189637 
L 480.574669 117.284301 
L 481.751792 105.262775 
L 482.928914 86.675919 
L 484.106037 86.542897 
L 485.283159 77.131299 
L 486.460282 74.887781 
L 487.637404 74.571524 
L 488.814527 76.249493 
L 489.991649 80.622743 
L 491.168772 82.962024 
L 492.345894 87.976857 
L 493.523017 90.56013 
L 494.700139 97.786183 
L 495.877262 110.251776 
L 497.054384 109.971558 
L 498.231507 121.300081 
L 500.585751 131.079178 
L 501.762874 138.635444 
L 502.939996 150.937982 
L 504.117119 166.374798 
L 505.294241 168.798667 
L 506.471364 179.895894 
L 507.648486 174.618492 
L 508.825609 189.710568 
L 510.002731 182.52037 
L 511.179854 196.716083 
L 512.356976 194.974805 
L 513.534099 194.716971 
L 514.711221 203.236724 
L 515.888344 199.63548 
L 517.065466 202.580805 
L 518.242589 202.02889 
L 519.419711 201.845757 
L 520.596834 210.933108 
L 521.773956 205.176123 
L 522.951079 211.888938 
L 524.128201 210.742019 
L 525.305324 203.751769 
L 526.482446 191.194162 
L 527.659569 184.215345 
L 530.013814 163.734264 
L 531.190936 150.204697 
L 532.368059 142.730433 
L 533.545181 132.041873 
L 534.722304 122.781316 
L 535.899426 119.081799 
L 537.076549 129.566279 
L 538.253671 135.718094 
L 539.430794 135.652121 
L 540.607916 153.881852 
L 541.785039 157.471844 
L 542.962161 173.346746 
L 544.139284 185.32204 
L 545.316406 185.197375 
L 545.316406 185.197375 
" clip-path="url(#pc32a9f823f)" style="fill: none; stroke: #1f77b4; stroke-linecap: square"/>
   </g>
   <g id="line2d_30">
    <path d="M 75.644531 135.05151 
L 76.821654 131.618249 
L 77.998776 130.020141 
L 79.175899 122.995187 
L 80.353021 128.59711 
L 81.530144 127.311068 
L 82.707266 128.230473 
L 83.884389 130.214943 
L 85.061511 122.508314 
L 86.238634 124.548882 
L 87.415756 124.620645 
L 88.592879 131.369699 
L 89.770001 130.463697 
L 90.947124 127.214917 
L 92.124246 145.244485 
L 93.301369 133.368734 
L 94.478491 129.881701 
L 95.655614 130.245343 
L 96.832736 132.380664 
L 98.009859 117.411475 
L 99.186981 118.143401 
L 100.364104 120.185658 
L 101.541226 121.266198 
L 102.718349 122.608119 
L 103.895471 128.033722 
L 105.072594 128.114183 
L 106.249716 141.792654 
L 107.426839 140.026594 
L 108.603961 152.308476 
L 109.781084 148.272813 
L 110.958206 157.761625 
L 112.135329 151.379788 
L 113.312451 137.615031 
L 114.489574 116.036313 
L 115.666696 105.776171 
L 116.843819 83.924419 
L 118.020941 71.375405 
L 119.198064 50.388773 
L 120.375186 38.665397 
L 121.552309 39.587291 
L 122.729431 44.083891 
L 123.906553 56.315099 
L 125.083676 81.424978 
L 126.260798 97.064348 
L 127.437921 124.125492 
L 130.969288 185.935351 
L 132.146411 193.886148 
L 133.323533 196.596882 
L 134.500656 192.154985 
L 135.677778 183.385711 
L 136.854901 160.799623 
L 139.209146 132.10197 
L 140.386268 120.208999 
L 141.563391 123.685673 
L 142.740513 115.438761 
L 143.917636 126.845724 
L 145.094758 135.769134 
L 146.271881 150.893717 
L 147.449003 168.573478 
L 148.626126 188.771973 
L 149.803248 192.505997 
L 150.980371 206.807881 
L 152.157493 196.288054 
L 153.334616 191.172804 
L 154.511738 170.591299 
L 155.688861 165.270771 
L 156.865983 138.525501 
L 158.043106 135.868798 
L 159.220228 121.380607 
L 160.397351 119.686173 
L 161.574473 121.207104 
L 162.751596 134.058658 
L 163.928718 144.676691 
L 165.105841 164.095619 
L 167.460086 184.859647 
L 169.814331 195.901901 
L 172.168576 174.006305 
L 175.699943 101.97959 
L 176.877066 91.074052 
L 178.054188 59.808769 
L 179.231311 40.429218 
L 180.408433 34.011354 
L 181.585556 25.849021 
L 182.762678 22.706023 
L 183.939801 33.92437 
L 185.116923 46.352624 
L 186.294046 49.487621 
L 187.471168 67.974251 
L 188.648291 83.558577 
L 189.825413 95.152738 
L 191.002536 109.186516 
L 192.179658 105.739423 
L 193.356781 117.119056 
L 195.711026 116.47772 
L 196.888148 125.42861 
L 198.065271 120.257756 
L 199.242393 123.697012 
L 200.419516 117.709404 
L 201.596638 121.81107 
L 202.773761 115.079342 
L 203.950883 115.227191 
L 205.128006 104.03278 
L 206.305128 97.617935 
L 207.482251 73.043576 
L 208.659373 71.151551 
L 209.836496 49.224036 
L 211.013618 41.201334 
L 212.190741 29.774342 
L 213.367863 21.802359 
L 214.544986 21.397938 
L 216.89923 46.389164 
L 218.076353 62.167804 
L 219.253475 94.164638 
L 220.430598 114.936416 
L 221.60772 141.257777 
L 222.784843 163.316752 
L 223.961965 182.94068 
L 225.139088 192.850024 
L 226.31621 197.202205 
L 227.493333 189.274982 
L 228.670455 165.52019 
L 229.847578 145.563719 
L 231.0247 117.302278 
L 234.556068 53.537071 
L 235.73319 43.923728 
L 236.910313 45.019591 
L 238.087435 53.413389 
L 239.264558 64.114624 
L 241.618803 110.719797 
L 242.795925 142.579033 
L 243.973048 169.690698 
L 246.327293 211.718001 
L 247.504415 222.857799 
L 248.681538 225.692345 
L 249.85866 227.83415 
L 251.035783 225.974835 
L 252.212905 207.446954 
L 253.390028 205.084194 
L 254.56715 188.172238 
L 255.744273 189.023511 
L 256.921395 195.799207 
L 258.098518 185.10094 
L 260.452763 190.709403 
L 261.629885 198.18323 
L 262.807008 196.197262 
L 263.98413 192.96296 
L 265.161253 191.83687 
L 266.338375 200.449542 
L 268.69262 185.823903 
L 269.869743 188.217769 
L 271.046865 190.062364 
L 272.223988 190.501417 
L 273.40111 199.203984 
L 274.578233 206.319782 
L 275.755355 212.626919 
L 276.932478 222.785808 
L 278.1096 226.935474 
L 279.286723 225.313682 
L 280.463845 227.468593 
L 281.640968 214.168399 
L 283.995213 161.832584 
L 285.172335 143.589911 
L 286.349458 113.545323 
L 289.880825 47.986138 
L 291.057948 44.158743 
L 292.23507 43.265168 
L 293.412193 57.241467 
L 294.589315 69.365471 
L 295.766438 90.779219 
L 296.94356 116.127786 
L 298.120683 136.821474 
L 299.297805 171.667952 
L 300.474928 183.463264 
L 301.65205 193.72991 
L 302.829173 199.961024 
L 304.006295 183.408134 
L 306.36054 142.039721 
L 308.714785 82.253268 
L 309.891908 60.481951 
L 311.06903 41.269803 
L 312.246152 29.748561 
L 313.423275 25.330594 
L 314.600397 28.683155 
L 315.77752 37.48701 
L 316.954642 52.792824 
L 318.131765 63.549711 
L 319.308887 72.709743 
L 320.48601 85.337987 
L 321.663132 95.304454 
L 322.840255 96.737413 
L 324.017377 104.015973 
L 325.1945 107.807939 
L 326.371622 100.393116 
L 328.725867 117.970013 
L 329.90299 118.867626 
L 331.080112 131.1573 
L 332.257235 139.203547 
L 333.434357 158.0403 
L 334.61148 171.313061 
L 335.788602 185.854495 
L 336.965725 197.167245 
L 338.142847 198.391632 
L 339.31997 190.386702 
L 340.497092 183.632371 
L 341.674215 168.637025 
L 344.02846 120.384545 
L 346.382705 77.025666 
L 347.559827 60.08061 
L 349.914072 40.420673 
L 351.091195 33.991155 
L 352.268317 32.317984 
L 353.44544 39.981746 
L 354.622562 44.83517 
L 356.976807 62.411336 
L 359.331052 87.435637 
L 361.685297 101.290129 
L 362.86242 110.003113 
L 364.039542 117.459463 
L 365.216665 124.008927 
L 366.393787 128.783042 
L 367.57091 135.289603 
L 368.748032 132.980218 
L 369.925155 136.743566 
L 371.102277 138.162611 
L 372.2794 151.219893 
L 373.456522 155.398701 
L 374.633645 162.572602 
L 375.810767 175.640025 
L 376.98789 178.82177 
L 378.165012 191.975075 
L 379.342135 199.881264 
L 380.519257 216.018004 
L 381.69638 226.536815 
L 382.873502 227.310051 
L 384.050625 235.082467 
L 385.227747 227.049812 
L 386.40487 216.43538 
L 387.581992 197.57586 
L 388.759115 171.669183 
L 389.936237 150.926249 
L 391.11336 117.892556 
L 392.290482 97.132078 
L 394.644727 63.334763 
L 395.82185 66.974107 
L 396.998972 71.979974 
L 398.176095 83.877592 
L 399.353217 98.547111 
L 400.53034 132.137408 
L 402.884585 187.000908 
L 404.061707 201.564992 
L 405.238829 218.031807 
L 406.415952 221.854283 
L 407.593074 218.788455 
L 408.770197 222.779433 
L 409.947319 205.581817 
L 411.124442 195.165724 
L 412.301564 187.6645 
L 413.478687 186.074168 
L 414.655809 172.993361 
L 415.832932 180.359122 
L 417.010054 181.568781 
L 419.364299 202.462949 
L 420.541422 214.127167 
L 421.718544 211.007866 
L 422.895667 216.913618 
L 424.072789 210.129154 
L 425.249912 208.831141 
L 426.427034 201.530187 
L 427.604157 170.111599 
L 428.781279 145.711231 
L 429.958402 117.29908 
L 432.312647 85.365783 
L 433.489769 61.743906 
L 434.666892 67.204385 
L 435.844014 56.042586 
L 437.021137 61.963954 
L 439.375382 90.610775 
L 441.729627 128.468628 
L 442.906749 135.760674 
L 444.083872 151.180743 
L 445.260994 161.21417 
L 446.438117 168.871314 
L 448.792362 175.040767 
L 449.969484 175.604151 
L 451.146607 174.742751 
L 452.323729 176.274512 
L 453.500852 182.037389 
L 454.677974 180.022749 
L 455.855097 176.338013 
L 457.032219 178.637867 
L 458.209342 156.513901 
L 459.386464 152.709923 
L 460.563587 142.742198 
L 461.740709 130.256345 
L 462.917832 121.304963 
L 464.094954 103.412939 
L 465.272077 94.992257 
L 466.449199 78.168258 
L 467.626322 73.536883 
L 468.803444 70.720679 
L 469.980567 62.153264 
L 471.157689 70.512203 
L 472.334812 83.92567 
L 473.511934 91.35246 
L 474.689057 113.736546 
L 475.866179 132.213239 
L 477.043302 155.464316 
L 478.220424 171.851575 
L 480.574669 211.387415 
L 481.751792 213.200122 
L 482.928914 230.354555 
L 484.106037 226.016297 
L 485.283159 239.366335 
L 486.460282 225.671211 
L 487.637404 214.684546 
L 489.991649 183.881711 
L 491.168772 161.980376 
L 492.345894 146.716671 
L 494.700139 99.687625 
L 495.877262 93.016781 
L 497.054384 68.762292 
L 498.231507 60.816561 
L 499.408629 55.977311 
L 500.585751 52.393736 
L 501.762874 51.564308 
L 502.939996 45.292067 
L 504.117119 45.446347 
L 505.294241 52.289541 
L 507.648486 70.946736 
L 508.825609 78.201665 
L 510.002731 88.061223 
L 511.179854 92.213146 
L 512.356976 102.223986 
L 513.534099 104.670388 
L 514.711221 110.10018 
L 515.888344 117.236906 
L 517.065466 114.262048 
L 518.242589 131.240251 
L 519.419711 134.234764 
L 520.596834 140.885041 
L 521.773956 144.047428 
L 522.951079 155.359792 
L 524.128201 164.188942 
L 525.305324 176.850304 
L 526.482446 184.967637 
L 527.659569 188.830946 
L 528.836691 202.180106 
L 530.013814 192.802506 
L 531.190936 196.423937 
L 532.368059 197.896842 
L 533.545181 196.007836 
L 534.722304 197.702237 
L 535.899426 194.307113 
L 537.076549 205.719469 
L 538.253671 202.700683 
L 539.430794 209.424231 
L 540.607916 211.824765 
L 541.785039 214.997145 
L 542.962161 214.095109 
L 544.139284 203.990088 
L 545.316406 205.085389 
L 545.316406 205.085389 
" clip-path="url(#pc32a9f823f)" style="fill: none; stroke: #ff7f0e; stroke-linecap: square"/>
   </g>
   <g id="patch_3">
    <path d="M 52.160938 250.421875 
L 52.160938 7.2 
" style="fill: none; stroke: #000000; stroke-width: 0.8; stroke-linejoin: miter; stroke-linecap: square"/>
   </g>
   <g id="patch_4">
    <path d="M 568.8 250.421875 
L 568.8 7.2 
" style="fill: none; stroke: #000000; stroke-width: 0.8; stroke-linejoin: miter; stroke-linecap: square"/>
   </g>
   <g id="patch_5">
    <path d="M 52.160937 250.421875 
L 568.8 250.421875 
" style="fill: none; stroke: #000000; stroke-width: 0.8; stroke-linejoin: miter; stroke-linecap: square"/>
   </g>
   <g id="patch_6">
    <path d="M 52.160937 7.2 
L 568.8 7.2 
" style="fill: none; stroke: #000000; stroke-width: 0.8; stroke-linejoin: miter; stroke-linecap: square"/>
   </g>
   <g id="legend_1">
    <g id="patch_7">
     <path d="M 504.804688 44.55625 
L 561.8 44.55625 
Q 563.8 44.55625 563.8 42.55625 
L 563.8 14.2 
Q 563.8 12.2 561.8 12.2 
L 504.804688 12.2 
Q 502.804688 12.2 502.804688 14.2 
L 502.804688 42.55625 
Q 502.804688 44.55625 504.804688 44.55625 
z
" style="fill: #ffffff; opacity: 0.8; stroke: #cccccc; stroke-linejoin: miter"/>
    </g>
    <g id="line2d_31">
     <path d="M 506.804688 20.298437 
L 516.804688 20.298437 
L 526.804688 20.298437 
" style="fill: none; stroke: #1f77b4; stroke-linecap: square"/>
    </g>
    <g id="text_17">
     <!-- real -->
     <g transform="translate(534.804688 23.798437) scale(0.1 -0.1)">
      <defs>
       <path id="DejaVuSans-72" d="M 2631 2963 
Q 2534 3019 2420 3045 
Q 2306 3072 2169 3072 
Q 1681 3072 1420 2755 
Q 1159 2438 1159 1844 
L 1159 0 
L 581 0 
L 581 3500 
L 1159 3500 
L 1159 2956 
Q 1341 3275 1631 3429 
Q 1922 3584 2338 3584 
Q 2397 3584 2469 3576 
Q 2541 3569 2628 3553 
L 2631 2963 
z
" transform="scale(0.015625)"/>
      </defs>
      <use xlink:href="#DejaVuSans-72"/>
      <use xlink:href="#DejaVuSans-65" transform="translate(38.863281 0)"/>
      <use xlink:href="#DejaVuSans-61" transform="translate(100.386719 0)"/>
      <use xlink:href="#DejaVuSans-6c" transform="translate(161.666016 0)"/>
     </g>
    </g>
    <g id="line2d_32">
     <path d="M 506.804688 34.976562 
L 516.804688 34.976562 
L 526.804688 34.976562 
" style="fill: none; stroke: #ff7f0e; stroke-linecap: square"/>
    </g>
    <g id="text_18">
     <!-- imag -->
     <g transform="translate(534.804688 38.476562) scale(0.1 -0.1)">
      <defs>
       <path id="DejaVuSans-67" d="M 2906 1791 
Q 2906 2416 2648 2759 
Q 2391 3103 1925 3103 
Q 1463 3103 1205 2759 
Q 947 2416 947 1791 
Q 947 1169 1205 825 
Q 1463 481 1925 481 
Q 2391 481 2648 825 
Q 2906 1169 2906 1791 
z
M 3481 434 
Q 3481 -459 3084 -895 
Q 2688 -1331 1869 -1331 
Q 1566 -1331 1297 -1286 
Q 1028 -1241 775 -1147 
L 775 -588 
Q 1028 -725 1275 -790 
Q 1522 -856 1778 -856 
Q 2344 -856 2625 -561 
Q 2906 -266 2906 331 
L 2906 616 
Q 2728 306 2450 153 
Q 2172 0 1784 0 
Q 1141 0 747 490 
Q 353 981 353 1791 
Q 353 2603 747 3093 
Q 1141 3584 1784 3584 
Q 2172 3584 2450 3431 
Q 2728 3278 2906 2969 
L 2906 3500 
L 3481 3500 
L 3481 434 
z
" transform="scale(0.015625)"/>
      </defs>
      <use xlink:href="#DejaVuSans-69"/>
      <use xlink:href="#DejaVuSans-6d" transform="translate(27.783203 0)"/>
      <use xlink:href="#DejaVuSans-61" transform="translate(125.195312 0)"/>
      <use xlink:href="#DejaVuSans-67" transform="translate(186.474609 0)"/>
     </g>
    </g>
   </g>
  </g>
 </g>
 <defs>
  <clipPath id="pc32a9f823f">
   <rect x="52.160938" y="7.2" width="516.639063" height="243.221875"/>
  </clipPath>
 </defs>
</svg>
