<?xml version="1.0" encoding="utf-8" standalone="no"?>
<!DOCTYPE svg PUBLIC "-//W3C//DTD SVG 1.1//EN"
  "http://www.w3.org/Graphics/SVG/1.1/DTD/svg11.dtd">
<svg xmlns:xlink="http://www.w3.org/1999/xlink" width="576pt" height="288pt" viewBox="0 0 576 288" xmlns="http://www.w3.org/2000/svg" version="1.1">
 <metadata>
  <rdf:RDF xmlns:dc="http://purl.org/dc/elements/1.1/" xmlns:cc="http://creativecommons.org/ns#" xmlns:rdf="http://www.w3.org/1999/02/22-rdf-syntax-ns#">
   <cc:Work>
    <dc:type rdf:resource="http://purl.org/dc/dcmitype/StillImage"/>
    <dc:date>2025-11-27T16:51:33.842333</dc:date>
    <dc:format>image/svg+xml</dc:format>
    <dc:creator>
     <cc:Agent>
      <dc:title>Matplotlib v3.10.7, https://matplotlib.org/</dc:title>
     </cc:Agent>
    </dc:creator>
   </cc:Work>
  </rdf:RDF>
 </metadata>
 <defs>
  <style type="text/css">*{stroke-linejoin: round; stroke-linecap: butt}</style>
 </defs>
 <g id="figure_1">
  <g id="patch_1">
   <path d="M 0 288 
L 576 288 
L 576 0 
L 0 0 
z
" style="fill: #ffffff"/>
  </g>
  <g id="axes_1">
   <g id="patch_2">
    <path d="M 48.982813 250.421875 
L 568.8 250.421875 
L 568.8 22.32 
L 48.982813 22.32 
z
" style="fill: #ffffff"/>
   </g>
   <g id="matplotlib.axis_1">
    <g id="xtick_1">
     <g id="line2d_1">
      <path d="M 72.610866 250.421875 
L 72.610866 22.32 
" clip-path="url(#pfd793c9081)" style="fill: none; stroke-dasharray: 2.96,1.28; stroke-dashoffset: 0; stroke: #b0b0b0; stroke-opacity: 0.8; stroke-width: 0.8"/>
     </g>
     <g id="line2d_2">
      <defs>
       <path id="m1cad4e7085" d="M 0 0 
L 0 3.5 
" style="stroke: #000000; stroke-width: 0.8"/>
      </defs>
      <g>
       <use xlink:href="#m1cad4e7085" x="72.610866" y="250.421875" style="stroke: #000000; stroke-width: 0.8"/>
      </g>
     </g>
     <g id="text_1">
      <!-- 0 -->
      <g transform="translate(69.429616 265.020312) scale(0.1 -0.1)">
       <defs>
        <path id="DejaVuSans-30" d="M 2034 4250 
Q 1547 4250 1301 3770 
Q 1056 3291 1056 2328 
Q 1056 1369 1301 889 
Q 1547 409 2034 409 
Q 2525 409 2770 889 
Q 3016 1369 3016 2328 
Q 3016 3291 2770 3770 
Q 2525 4250 2034 4250 
z
M 2034 4750 
Q 2819 4750 3233 4129 
Q 3647 3509 3647 2328 
Q 3647 1150 3233 529 
Q 2819 -91 2034 -91 
Q 1250 -91 836 529 
Q 422 1150 422 2328 
Q 422 3509 836 4129 
Q 1250 4750 2034 4750 
z
" transform="scale(0.015625)"/>
       </defs>
       <use xlink:href="#DejaVuSans-30"/>
      </g>
     </g>
    </g>
    <g id="xtick_2">
     <g id="line2d_3">
      <path d="M 167.123082 250.421875 
L 167.123082 22.32 
" clip-path="url(#pfd793c9081)" style="fill: none; stroke-dasharray: 2.96,1.28; stroke-dashoffset: 0; stroke: #b0b0b0; stroke-opacity: 0.8; stroke-width: 0.8"/>
     </g>
     <g id="line2d_4">
      <g>
       <use xlink:href="#m1cad4e7085" x="167.123082" y="250.421875" style="stroke: #000000; stroke-width: 0.8"/>
      </g>
     </g>
     <g id="text_2">
      <!-- 100 -->
      <g transform="translate(157.579332 265.020312) scale(0.1 -0.1)">
       <defs>
        <path id="DejaVuSans-31" d="M 794 531 
L 1825 531 
L 1825 4091 
L 703 3866 
L 703 4441 
L 1819 4666 
L 2450 4666 
L 2450 531 
L 3481 531 
L 3481 0 
L 794 0 
L 794 531 
z
" transform="scale(0.015625)"/>
       </defs>
       <use xlink:href="#DejaVuSans-31"/>
       <use xlink:href="#DejaVuSans-30" transform="translate(63.623047 0)"/>
       <use xlink:href="#DejaVuSans-30" transform="translate(127.246094 0)"/>
      </g>
     </g>
    </g>
    <g id="xtick_3">
     <g id="line2d_5">
      <path d="M 261.635298 250.421875 
L 261.635298 22.32 
" clip-path="url(#pfd793c9081)" style="fill: none; stroke-dasharray: 2.96,1.28; stroke-dashoffset: 0; stroke: #b0b0b0; stroke-opacity: 0.8; stroke-width: 0.8"/>
     </g>
     <g id="line2d_6">
      <g>
       <use xlink:href="#m1cad4e7085" x="261.635298" y="250.421875" style="stroke: #000000; stroke-width: 0.8"/>
      </g>
     </g>
     <g id="text_3">
      <!-- 200 -->
      <g transform="translate(252.091548 265.020312) scale(0.1 -0.1)">
       <defs>
        <path id="DejaVuSans-32" d="M 1228 531 
L 3431 531 
L 3431 0 
L 469 0 
L 469 531 
Q 828 903 1448 1529 
Q 2069 2156 2228 2338 
Q 2531 2678 2651 2914 
Q 2772 3150 2772 3378 
Q 2772 3750 2511 3984 
Q 2250 4219 1831 4219 
Q 1534 4219 1204 4116 
Q 875 4013 500 3803 
L 500 4441 
Q 881 4594 1212 4672 
Q 1544 4750 1819 4750 
Q 2544 4750 2975 4387 
Q 3406 4025 3406 3419 
Q 3406 3131 3298 2873 
Q 3191 2616 2906 2266 
Q 2828 2175 2409 1742 
Q 1991 1309 1228 531 
z
" transform="scale(0.015625)"/>
       </defs>
       <use xlink:href="#DejaVuSans-32"/>
       <use xlink:href="#DejaVuSans-30" transform="translate(63.623047 0)"/>
       <use xlink:href="#DejaVuSans-30" transform="translate(127.246094 0)"/>
      </g>
     </g>
    </g>
    <g id="xtick_4">
     <g id="line2d_7">
      <path d="M 356.147514 250.421875 
L 356.147514 22.32 
" clip-path="url(#pfd793c9081)" style="fill: none; stroke-dasharray: 2.96,1.28; stroke-dashoffset: 0; stroke: #b0b0b0; stroke-opacity: 0.8; stroke-width: 0.8"/>
     </g>
     <g id="line2d_8">
      <g>
       <use xlink:href="#m1cad4e7085" x="356.147514" y="250.421875" style="stroke: #000000; stroke-width: 0.8"/>
      </g>
     </g>
     <g id="text_4">
      <!-- 300 -->
      <g transform="translate(346.603764 265.020312) scale(0.1 -0.1)">
       <defs>
        <path id="DejaVuSans-33" d="M 2597 2516 
Q 3050 2419 3304 2112 
Q 3559 1806 3559 1356 
Q 3559 666 3084 287 
Q 2609 -91 1734 -91 
Q 1441 -91 1130 -33 
Q 819 25 488 141 
L 488 750 
Q 750 597 1062 519 
Q 1375 441 1716 441 
Q 2309 441 2620 675 
Q 2931 909 2931 1356 
Q 2931 1769 2642 2001 
Q 2353 2234 1838 2234 
L 1294 2234 
L 1294 2753 
L 1863 2753 
Q 2328 2753 2575 2939 
Q 2822 3125 2822 3475 
Q 2822 3834 2567 4026 
Q 2313 4219 1838 4219 
Q 1578 4219 1281 4162 
Q 984 4106 628 3988 
L 628 4550 
Q 988 4650 1302 4700 
Q 1616 4750 1894 4750 
Q 2613 4750 3031 4423 
Q 3450 4097 3450 3541 
Q 3450 3153 3228 2886 
Q 3006 2619 2597 2516 
z
" transform="scale(0.015625)"/>
       </defs>
       <use xlink:href="#DejaVuSans-33"/>
       <use xlink:href="#DejaVuSans-30" transform="translate(63.623047 0)"/>
       <use xlink:href="#DejaVuSans-30" transform="translate(127.246094 0)"/>
      </g>
     </g>
    </g>
    <g id="xtick_5">
     <g id="line2d_9">
      <path d="M 450.65973 250.421875 
L 450.65973 22.32 
" clip-path="url(#pfd793c9081)" style="fill: none; stroke-dasharray: 2.96,1.28; stroke-dashoffset: 0; stroke: #b0b0b0; stroke-opacity: 0.8; stroke-width: 0.8"/>
     </g>
     <g id="line2d_10">
      <g>
       <use xlink:href="#m1cad4e7085" x="450.65973" y="250.421875" style="stroke: #000000; stroke-width: 0.8"/>
      </g>
     </g>
     <g id="text_5">
      <!-- 400 -->
      <g transform="translate(441.11598 265.020312) scale(0.1 -0.1)">
       <defs>
        <path id="DejaVuSans-34" d="M 2419 4116 
L 825 1625 
L 2419 1625 
L 2419 4116 
z
M 2253 4666 
L 3047 4666 
L 3047 1625 
L 3713 1625 
L 3713 1100 
L 3047 1100 
L 3047 0 
L 2419 0 
L 2419 1100 
L 313 1100 
L 313 1709 
L 2253 4666 
z
" transform="scale(0.015625)"/>
       </defs>
       <use xlink:href="#DejaVuSans-34"/>
       <use xlink:href="#DejaVuSans-30" transform="translate(63.623047 0)"/>
       <use xlink:href="#DejaVuSans-30" transform="translate(127.246094 0)"/>
      </g>
     </g>
    </g>
    <g id="xtick_6">
     <g id="line2d_11">
      <path d="M 545.171946 250.421875 
L 545.171946 22.32 
" clip-path="url(#pfd793c9081)" style="fill: none; stroke-dasharray: 2.96,1.28; stroke-dashoffset: 0; stroke: #b0b0b0; stroke-opacity: 0.8; stroke-width: 0.8"/>
     </g>
     <g id="line2d_12">
      <g>
       <use xlink:href="#m1cad4e7085" x="545.171946" y="250.421875" style="stroke: #000000; stroke-width: 0.8"/>
      </g>
     </g>
     <g id="text_6">
      <!-- 500 -->
      <g transform="translate(535.628196 265.020312) scale(0.1 -0.1)">
       <defs>
        <path id="DejaVuSans-35" d="M 691 4666 
L 3169 4666 
L 3169 4134 
L 1269 4134 
L 1269 2991 
Q 1406 3038 1543 3061 
Q 1681 3084 1819 3084 
Q 2600 3084 3056 2656 
Q 3513 2228 3513 1497 
Q 3513 744 3044 326 
Q 2575 -91 1722 -91 
Q 1428 -91 1123 -41 
Q 819 9 494 109 
L 494 744 
Q 775 591 1075 516 
Q 1375 441 1709 441 
Q 2250 441 2565 725 
Q 2881 1009 2881 1497 
Q 2881 1984 2565 2268 
Q 2250 2553 1709 2553 
Q 1456 2553 1204 2497 
Q 953 2441 691 2322 
L 691 4666 
z
" transform="scale(0.015625)"/>
       </defs>
       <use xlink:href="#DejaVuSans-35"/>
       <use xlink:href="#DejaVuSans-30" transform="translate(63.623047 0)"/>
       <use xlink:href="#DejaVuSans-30" transform="translate(127.246094 0)"/>
      </g>
     </g>
    </g>
    <g id="text_7">
     <!-- Frequency (Hz), $f$ -->
     <g transform="translate(265.741406 278.7) scale(0.1 -0.1)">
      <defs>
       <path id="DejaVuSans-46" d="M 628 4666 
L 3309 4666 
L 3309 4134 
L 1259 4134 
L 1259 2759 
L 3109 2759 
L 3109 2228 
L 1259 2228 
L 1259 0 
L 628 0 
L 628 4666 
z
" transform="scale(0.015625)"/>
       <path id="DejaVuSans-72" d="M 2631 2963 
Q 2534 3019 2420 3045 
Q 2306 3072 2169 3072 
Q 1681 3072 1420 2755 
Q 1159 2438 1159 1844 
L 1159 0 
L 581 0 
L 581 3500 
L 1159 3500 
L 1159 2956 
Q 1341 3275 1631 3429 
Q 1922 3584 2338 3584 
Q 2397 3584 2469 3576 
Q 2541 3569 2628 3553 
L 2631 2963 
z
" transform="scale(0.015625)"/>
       <path id="DejaVuSans-65" d="M 3597 1894 
L 3597 1613 
L 953 1613 
Q 991 1019 1311 708 
Q 1631 397 2203 397 
Q 2534 397 2845 478 
Q 3156 559 3463 722 
L 3463 178 
Q 3153 47 2828 -22 
Q 2503 -91 2169 -91 
Q 1331 -91 842 396 
Q 353 884 353 1716 
Q 353 2575 817 3079 
Q 1281 3584 2069 3584 
Q 2775 3584 3186 3129 
Q 3597 2675 3597 1894 
z
M 3022 2063 
Q 3016 2534 2758 2815 
Q 2500 3097 2075 3097 
Q 1594 3097 1305 2825 
Q 1016 2553 972 2059 
L 3022 2063 
z
" transform="scale(0.015625)"/>
       <path id="DejaVuSans-71" d="M 947 1747 
Q 947 1113 1208 752 
Q 1469 391 1925 391 
Q 2381 391 2643 752 
Q 2906 1113 2906 1747 
Q 2906 2381 2643 2742 
Q 2381 3103 1925 3103 
Q 1469 3103 1208 2742 
Q 947 2381 947 1747 
z
M 2906 525 
Q 2725 213 2448 61 
Q 2172 -91 1784 -91 
Q 1150 -91 751 415 
Q 353 922 353 1747 
Q 353 2572 751 3078 
Q 1150 3584 1784 3584 
Q 2172 3584 2448 3432 
Q 2725 3281 2906 2969 
L 2906 3500 
L 3481 3500 
L 3481 -1331 
L 2906 -1331 
L 2906 525 
z
" transform="scale(0.015625)"/>
       <path id="DejaVuSans-75" d="M 544 1381 
L 544 3500 
L 1119 3500 
L 1119 1403 
Q 1119 906 1312 657 
Q 1506 409 1894 409 
Q 2359 409 2629 706 
Q 2900 1003 2900 1516 
L 2900 3500 
L 3475 3500 
L 3475 0 
L 2900 0 
L 2900 538 
Q 2691 219 2414 64 
Q 2138 -91 1772 -91 
Q 1169 -91 856 284 
Q 544 659 544 1381 
z
M 1991 3584 
L 1991 3584 
z
" transform="scale(0.015625)"/>
       <path id="DejaVuSans-6e" d="M 3513 2113 
L 3513 0 
L 2938 0 
L 2938 2094 
Q 2938 2591 2744 2837 
Q 2550 3084 2163 3084 
Q 1697 3084 1428 2787 
Q 1159 2491 1159 1978 
L 1159 0 
L 581 0 
L 581 3500 
L 1159 3500 
L 1159 2956 
Q 1366 3272 1645 3428 
Q 1925 3584 2291 3584 
Q 2894 3584 3203 3211 
Q 3513 2838 3513 2113 
z
" transform="scale(0.015625)"/>
       <path id="DejaVuSans-63" d="M 3122 3366 
L 3122 2828 
Q 2878 2963 2633 3030 
Q 2388 3097 2138 3097 
Q 1578 3097 1268 2742 
Q 959 2388 959 1747 
Q 959 1106 1268 751 
Q 1578 397 2138 397 
Q 2388 397 2633 464 
Q 2878 531 3122 666 
L 3122 134 
Q 2881 22 2623 -34 
Q 2366 -91 2075 -91 
Q 1284 -91 818 406 
Q 353 903 353 1747 
Q 353 2603 823 3093 
Q 1294 3584 2113 3584 
Q 2378 3584 2631 3529 
Q 2884 3475 3122 3366 
z
" transform="scale(0.015625)"/>
       <path id="DejaVuSans-79" d="M 2059 -325 
Q 1816 -950 1584 -1140 
Q 1353 -1331 966 -1331 
L 506 -1331 
L 506 -850 
L 844 -850 
Q 1081 -850 1212 -737 
Q 1344 -625 1503 -206 
L 1606 56 
L 191 3500 
L 800 3500 
L 1894 763 
L 2988 3500 
L 3597 3500 
L 2059 -325 
z
" transform="scale(0.015625)"/>
       <path id="DejaVuSans-20" transform="scale(0.015625)"/>
       <path id="DejaVuSans-28" d="M 1984 4856 
Q 1566 4138 1362 3434 
Q 1159 2731 1159 2009 
Q 1159 1288 1364 580 
Q 1569 -128 1984 -844 
L 1484 -844 
Q 1016 -109 783 600 
Q 550 1309 550 2009 
Q 550 2706 781 3412 
Q 1013 4119 1484 4856 
L 1984 4856 
z
" transform="scale(0.015625)"/>
       <path id="DejaVuSans-48" d="M 628 4666 
L 1259 4666 
L 1259 2753 
L 3553 2753 
L 3553 4666 
L 4184 4666 
L 4184 0 
L 3553 0 
L 3553 2222 
L 1259 2222 
L 1259 0 
L 628 0 
L 628 4666 
z
" transform="scale(0.015625)"/>
       <path id="DejaVuSans-7a" d="M 353 3500 
L 3084 3500 
L 3084 2975 
L 922 459 
L 3084 459 
L 3084 0 
L 275 0 
L 275 525 
L 2438 3041 
L 353 3041 
L 353 3500 
z
" transform="scale(0.015625)"/>
       <path id="DejaVuSans-29" d="M 513 4856 
L 1013 4856 
Q 1481 4119 1714 3412 
Q 1947 2706 1947 2009 
Q 1947 1309 1714 600 
Q 1481 -109 1013 -844 
L 513 -844 
Q 928 -128 1133 580 
Q 1338 1288 1338 2009 
Q 1338 2731 1133 3434 
Q 928 4138 513 4856 
z
" transform="scale(0.015625)"/>
       <path id="DejaVuSans-2c" d="M 750 794 
L 1409 794 
L 1409 256 
L 897 -744 
L 494 -744 
L 750 256 
L 750 794 
z
" transform="scale(0.015625)"/>
       <path id="DejaVuSans-Oblique-66" d="M 3059 4863 
L 2969 4384 
L 2419 4384 
Q 2106 4384 1964 4261 
Q 1822 4138 1753 3809 
L 1691 3500 
L 2638 3500 
L 2553 3053 
L 1606 3053 
L 1013 0 
L 434 0 
L 1031 3053 
L 481 3053 
L 563 3500 
L 1113 3500 
L 1159 3744 
Q 1278 4363 1576 4613 
Q 1875 4863 2516 4863 
L 3059 4863 
z
" transform="scale(0.015625)"/>
      </defs>
      <use xlink:href="#DejaVuSans-46" transform="translate(0 0.015625)"/>
      <use xlink:href="#DejaVuSans-72" transform="translate(57.519531 0.015625)"/>
      <use xlink:href="#DejaVuSans-65" transform="translate(98.632812 0.015625)"/>
      <use xlink:href="#DejaVuSans-71" transform="translate(160.15625 0.015625)"/>
      <use xlink:href="#DejaVuSans-75" transform="translate(223.632812 0.015625)"/>
      <use xlink:href="#DejaVuSans-65" transform="translate(287.011719 0.015625)"/>
      <use xlink:href="#DejaVuSans-6e" transform="translate(348.535156 0.015625)"/>
      <use xlink:href="#DejaVuSans-63" transform="translate(411.914062 0.015625)"/>
      <use xlink:href="#DejaVuSans-79" transform="translate(466.894531 0.015625)"/>
      <use xlink:href="#DejaVuSans-20" transform="translate(526.074219 0.015625)"/>
      <use xlink:href="#DejaVuSans-28" transform="translate(557.861328 0.015625)"/>
      <use xlink:href="#DejaVuSans-48" transform="translate(596.875 0.015625)"/>
      <use xlink:href="#DejaVuSans-7a" transform="translate(672.070312 0.015625)"/>
      <use xlink:href="#DejaVuSans-29" transform="translate(724.560547 0.015625)"/>
      <use xlink:href="#DejaVuSans-2c" transform="translate(763.574219 0.015625)"/>
      <use xlink:href="#DejaVuSans-20" transform="translate(795.361328 0.015625)"/>
      <use xlink:href="#DejaVuSans-Oblique-66" transform="translate(827.148438 0.015625)"/>
     </g>
    </g>
   </g>
   <g id="matplotlib.axis_2">
    <g id="ytick_1">
     <g id="line2d_13">
      <path d="M 48.982813 244.149746 
L 568.8 244.149746 
" clip-path="url(#pfd793c9081)" style="fill: none; stroke-dasharray: 2.96,1.28; stroke-dashoffset: 0; stroke: #b0b0b0; stroke-opacity: 0.8; stroke-width: 0.8"/>
     </g>
     <g id="line2d_14">
      <defs>
       <path id="m5dcd2b42e7" d="M 0 0 
L -3.5 0 
" style="stroke: #000000; stroke-width: 0.8"/>
      </defs>
      <g>
       <use xlink:href="#m5dcd2b42e7" x="48.982813" y="244.149746" style="stroke: #000000; stroke-width: 0.8"/>
      </g>
     </g>
     <g id="text_8">
      <!-- −70 -->
      <g transform="translate(20.878125 247.948965) scale(0.1 -0.1)">
       <defs>
        <path id="DejaVuSans-2212" d="M 678 2272 
L 4684 2272 
L 4684 1741 
L 678 1741 
L 678 2272 
z
" transform="scale(0.015625)"/>
        <path id="DejaVuSans-37" d="M 525 4666 
L 3525 4666 
L 3525 4397 
L 1831 0 
L 1172 0 
L 2766 4134 
L 525 4134 
L 525 4666 
z
" transform="scale(0.015625)"/>
       </defs>
       <use xlink:href="#DejaVuSans-2212"/>
       <use xlink:href="#DejaVuSans-37" transform="translate(83.789062 0)"/>
       <use xlink:href="#DejaVuSans-30" transform="translate(147.412109 0)"/>
      </g>
     </g>
    </g>
    <g id="ytick_2">
     <g id="line2d_15">
      <path d="M 48.982813 208.498085 
L 568.8 208.498085 
" clip-path="url(#pfd793c9081)" style="fill: none; stroke-dasharray: 2.96,1.28; stroke-dashoffset: 0; stroke: #b0b0b0; stroke-opacity: 0.8; stroke-width: 0.8"/>
     </g>
     <g id="line2d_16">
      <g>
       <use xlink:href="#m5dcd2b42e7" x="48.982813" y="208.498085" style="stroke: #000000; stroke-width: 0.8"/>
      </g>
     </g>
     <g id="text_9">
      <!-- −60 -->
      <g transform="translate(20.878125 212.297304) scale(0.1 -0.1)">
       <defs>
        <path id="DejaVuSans-36" d="M 2113 2584 
Q 1688 2584 1439 2293 
Q 1191 2003 1191 1497 
Q 1191 994 1439 701 
Q 1688 409 2113 409 
Q 2538 409 2786 701 
Q 3034 994 3034 1497 
Q 3034 2003 2786 2293 
Q 2538 2584 2113 2584 
z
M 3366 4563 
L 3366 3988 
Q 3128 4100 2886 4159 
Q 2644 4219 2406 4219 
Q 1781 4219 1451 3797 
Q 1122 3375 1075 2522 
Q 1259 2794 1537 2939 
Q 1816 3084 2150 3084 
Q 2853 3084 3261 2657 
Q 3669 2231 3669 1497 
Q 3669 778 3244 343 
Q 2819 -91 2113 -91 
Q 1303 -91 875 529 
Q 447 1150 447 2328 
Q 447 3434 972 4092 
Q 1497 4750 2381 4750 
Q 2619 4750 2861 4703 
Q 3103 4656 3366 4563 
z
" transform="scale(0.015625)"/>
       </defs>
       <use xlink:href="#DejaVuSans-2212"/>
       <use xlink:href="#DejaVuSans-36" transform="translate(83.789062 0)"/>
       <use xlink:href="#DejaVuSans-30" transform="translate(147.412109 0)"/>
      </g>
     </g>
    </g>
    <g id="ytick_3">
     <g id="line2d_17">
      <path d="M 48.982813 172.846425 
L 568.8 172.846425 
" clip-path="url(#pfd793c9081)" style="fill: none; stroke-dasharray: 2.96,1.28; stroke-dashoffset: 0; stroke: #b0b0b0; stroke-opacity: 0.8; stroke-width: 0.8"/>
     </g>
     <g id="line2d_18">
      <g>
       <use xlink:href="#m5dcd2b42e7" x="48.982813" y="172.846425" style="stroke: #000000; stroke-width: 0.8"/>
      </g>
     </g>
     <g id="text_10">
      <!-- −50 -->
      <g transform="translate(20.878125 176.645643) scale(0.1 -0.1)">
       <use xlink:href="#DejaVuSans-2212"/>
       <use xlink:href="#DejaVuSans-35" transform="translate(83.789062 0)"/>
       <use xlink:href="#DejaVuSans-30" transform="translate(147.412109 0)"/>
      </g>
     </g>
    </g>
    <g id="ytick_4">
     <g id="line2d_19">
      <path d="M 48.982813 137.194764 
L 568.8 137.194764 
" clip-path="url(#pfd793c9081)" style="fill: none; stroke-dasharray: 2.96,1.28; stroke-dashoffset: 0; stroke: #b0b0b0; stroke-opacity: 0.8; stroke-width: 0.8"/>
     </g>
     <g id="line2d_20">
      <g>
       <use xlink:href="#m5dcd2b42e7" x="48.982813" y="137.194764" style="stroke: #000000; stroke-width: 0.8"/>
      </g>
     </g>
     <g id="text_11">
      <!-- −40 -->
      <g transform="translate(20.878125 140.993983) scale(0.1 -0.1)">
       <use xlink:href="#DejaVuSans-2212"/>
       <use xlink:href="#DejaVuSans-34" transform="translate(83.789062 0)"/>
       <use xlink:href="#DejaVuSans-30" transform="translate(147.412109 0)"/>
      </g>
     </g>
    </g>
    <g id="ytick_5">
     <g id="line2d_21">
      <path d="M 48.982813 101.543103 
L 568.8 101.543103 
" clip-path="url(#pfd793c9081)" style="fill: none; stroke-dasharray: 2.96,1.28; stroke-dashoffset: 0; stroke: #b0b0b0; stroke-opacity: 0.8; stroke-width: 0.8"/>
     </g>
     <g id="line2d_22">
      <g>
       <use xlink:href="#m5dcd2b42e7" x="48.982813" y="101.543103" style="stroke: #000000; stroke-width: 0.8"/>
      </g>
     </g>
     <g id="text_12">
      <!-- −30 -->
      <g transform="translate(20.878125 105.342322) scale(0.1 -0.1)">
       <use xlink:href="#DejaVuSans-2212"/>
       <use xlink:href="#DejaVuSans-33" transform="translate(83.789062 0)"/>
       <use xlink:href="#DejaVuSans-30" transform="translate(147.412109 0)"/>
      </g>
     </g>
    </g>
    <g id="ytick_6">
     <g id="line2d_23">
      <path d="M 48.982813 65.891443 
L 568.8 65.891443 
" clip-path="url(#pfd793c9081)" style="fill: none; stroke-dasharray: 2.96,1.28; stroke-dashoffset: 0; stroke: #b0b0b0; stroke-opacity: 0.8; stroke-width: 0.8"/>
     </g>
     <g id="line2d_24">
      <g>
       <use xlink:href="#m5dcd2b42e7" x="48.982813" y="65.891443" style="stroke: #000000; stroke-width: 0.8"/>
      </g>
     </g>
     <g id="text_13">
      <!-- −20 -->
      <g transform="translate(20.878125 69.690662) scale(0.1 -0.1)">
       <use xlink:href="#DejaVuSans-2212"/>
       <use xlink:href="#DejaVuSans-32" transform="translate(83.789062 0)"/>
       <use xlink:href="#DejaVuSans-30" transform="translate(147.412109 0)"/>
      </g>
     </g>
    </g>
    <g id="ytick_7">
     <g id="line2d_25">
      <path d="M 48.982813 30.239782 
L 568.8 30.239782 
" clip-path="url(#pfd793c9081)" style="fill: none; stroke-dasharray: 2.96,1.28; stroke-dashoffset: 0; stroke: #b0b0b0; stroke-opacity: 0.8; stroke-width: 0.8"/>
     </g>
     <g id="line2d_26">
      <g>
       <use xlink:href="#m5dcd2b42e7" x="48.982813" y="30.239782" style="stroke: #000000; stroke-width: 0.8"/>
      </g>
     </g>
     <g id="text_14">
      <!-- −10 -->
      <g transform="translate(20.878125 34.039001) scale(0.1 -0.1)">
       <use xlink:href="#DejaVuSans-2212"/>
       <use xlink:href="#DejaVuSans-31" transform="translate(83.789062 0)"/>
       <use xlink:href="#DejaVuSans-30" transform="translate(147.412109 0)"/>
      </g>
     </g>
    </g>
    <g id="text_15">
     <!-- Power density (dB/Hz) -->
     <g transform="translate(14.798437 191.570938) rotate(-90) scale(0.1 -0.1)">
      <defs>
       <path id="DejaVuSans-50" d="M 1259 4147 
L 1259 2394 
L 2053 2394 
Q 2494 2394 2734 2622 
Q 2975 2850 2975 3272 
Q 2975 3691 2734 3919 
Q 2494 4147 2053 4147 
L 1259 4147 
z
M 628 4666 
L 2053 4666 
Q 2838 4666 3239 4311 
Q 3641 3956 3641 3272 
Q 3641 2581 3239 2228 
Q 2838 1875 2053 1875 
L 1259 1875 
L 1259 0 
L 628 0 
L 628 4666 
z
" transform="scale(0.015625)"/>
       <path id="DejaVuSans-6f" d="M 1959 3097 
Q 1497 3097 1228 2736 
Q 959 2375 959 1747 
Q 959 1119 1226 758 
Q 1494 397 1959 397 
Q 2419 397 2687 759 
Q 2956 1122 2956 1747 
Q 2956 2369 2687 2733 
Q 2419 3097 1959 3097 
z
M 1959 3584 
Q 2709 3584 3137 3096 
Q 3566 2609 3566 1747 
Q 3566 888 3137 398 
Q 2709 -91 1959 -91 
Q 1206 -91 779 398 
Q 353 888 353 1747 
Q 353 2609 779 3096 
Q 1206 3584 1959 3584 
z
" transform="scale(0.015625)"/>
       <path id="DejaVuSans-77" d="M 269 3500 
L 844 3500 
L 1563 769 
L 2278 3500 
L 2956 3500 
L 3675 769 
L 4391 3500 
L 4966 3500 
L 4050 0 
L 3372 0 
L 2619 2869 
L 1863 0 
L 1184 0 
L 269 3500 
z
" transform="scale(0.015625)"/>
       <path id="DejaVuSans-64" d="M 2906 2969 
L 2906 4863 
L 3481 4863 
L 3481 0 
L 2906 0 
L 2906 525 
Q 2725 213 2448 61 
Q 2172 -91 1784 -91 
Q 1150 -91 751 415 
Q 353 922 353 1747 
Q 353 2572 751 3078 
Q 1150 3584 1784 3584 
Q 2172 3584 2448 3432 
Q 2725 3281 2906 2969 
z
M 947 1747 
Q 947 1113 1208 752 
Q 1469 391 1925 391 
Q 2381 391 2643 752 
Q 2906 1113 2906 1747 
Q 2906 2381 2643 2742 
Q 2381 3103 1925 3103 
Q 1469 3103 1208 2742 
Q 947 2381 947 1747 
z
" transform="scale(0.015625)"/>
       <path id="DejaVuSans-73" d="M 2834 3397 
L 2834 2853 
Q 2591 2978 2328 3040 
Q 2066 3103 1784 3103 
Q 1356 3103 1142 2972 
Q 928 2841 928 2578 
Q 928 2378 1081 2264 
Q 1234 2150 1697 2047 
L 1894 2003 
Q 2506 1872 2764 1633 
Q 3022 1394 3022 966 
Q 3022 478 2636 193 
Q 2250 -91 1575 -91 
Q 1294 -91 989 -36 
Q 684 19 347 128 
L 347 722 
Q 666 556 975 473 
Q 1284 391 1588 391 
Q 1994 391 2212 530 
Q 2431 669 2431 922 
Q 2431 1156 2273 1281 
Q 2116 1406 1581 1522 
L 1381 1569 
Q 847 1681 609 1914 
Q 372 2147 372 2553 
Q 372 3047 722 3315 
Q 1072 3584 1716 3584 
Q 2034 3584 2315 3537 
Q 2597 3491 2834 3397 
z
" transform="scale(0.015625)"/>
       <path id="DejaVuSans-69" d="M 603 3500 
L 1178 3500 
L 1178 0 
L 603 0 
L 603 3500 
z
M 603 4863 
L 1178 4863 
L 1178 4134 
L 603 4134 
L 603 4863 
z
" transform="scale(0.015625)"/>
       <path id="DejaVuSans-74" d="M 1172 4494 
L 1172 3500 
L 2356 3500 
L 2356 3053 
L 1172 3053 
L 1172 1153 
Q 1172 725 1289 603 
Q 1406 481 1766 481 
L 2356 481 
L 2356 0 
L 1766 0 
Q 1100 0 847 248 
Q 594 497 594 1153 
L 594 3053 
L 172 3053 
L 172 3500 
L 594 3500 
L 594 4494 
L 1172 4494 
z
" transform="scale(0.015625)"/>
       <path id="DejaVuSans-42" d="M 1259 2228 
L 1259 519 
L 2272 519 
Q 2781 519 3026 730 
Q 3272 941 3272 1375 
Q 3272 1813 3026 2020 
Q 2781 2228 2272 2228 
L 1259 2228 
z
M 1259 4147 
L 1259 2741 
L 2194 2741 
Q 2656 2741 2882 2914 
Q 3109 3088 3109 3444 
Q 3109 3797 2882 3972 
Q 2656 4147 2194 4147 
L 1259 4147 
z
M 628 4666 
L 2241 4666 
Q 2963 4666 3353 4366 
Q 3744 4066 3744 3513 
Q 3744 3084 3544 2831 
Q 3344 2578 2956 2516 
Q 3422 2416 3680 2098 
Q 3938 1781 3938 1306 
Q 3938 681 3513 340 
Q 3088 0 2303 0 
L 628 0 
L 628 4666 
z
" transform="scale(0.015625)"/>
       <path id="DejaVuSans-2f" d="M 1625 4666 
L 2156 4666 
L 531 -594 
L 0 -594 
L 1625 4666 
z
" transform="scale(0.015625)"/>
      </defs>
      <use xlink:href="#DejaVuSans-50"/>
      <use xlink:href="#DejaVuSans-6f" transform="translate(56.677734 0)"/>
      <use xlink:href="#DejaVuSans-77" transform="translate(117.859375 0)"/>
      <use xlink:href="#DejaVuSans-65" transform="translate(199.646484 0)"/>
      <use xlink:href="#DejaVuSans-72" transform="translate(261.169922 0)"/>
      <use xlink:href="#DejaVuSans-20" transform="translate(302.283203 0)"/>
      <use xlink:href="#DejaVuSans-64" transform="translate(334.070312 0)"/>
      <use xlink:href="#DejaVuSans-65" transform="translate(397.546875 0)"/>
      <use xlink:href="#DejaVuSans-6e" transform="translate(459.070312 0)"/>
      <use xlink:href="#DejaVuSans-73" transform="translate(522.449219 0)"/>
      <use xlink:href="#DejaVuSans-69" transform="translate(574.548828 0)"/>
      <use xlink:href="#DejaVuSans-74" transform="translate(602.332031 0)"/>
      <use xlink:href="#DejaVuSans-79" transform="translate(641.541016 0)"/>
      <use xlink:href="#DejaVuSans-20" transform="translate(700.720703 0)"/>
      <use xlink:href="#DejaVuSans-28" transform="translate(732.507812 0)"/>
      <use xlink:href="#DejaVuSans-64" transform="translate(771.521484 0)"/>
      <use xlink:href="#DejaVuSans-42" transform="translate(834.998047 0)"/>
      <use xlink:href="#DejaVuSans-2f" transform="translate(903.601562 0)"/>
      <use xlink:href="#DejaVuSans-48" transform="translate(937.292969 0)"/>
      <use xlink:href="#DejaVuSans-7a" transform="translate(1012.488281 0)"/>
      <use xlink:href="#DejaVuSans-29" transform="translate(1064.978516 0)"/>
     </g>
    </g>
   </g>
   <g id="line2d_27">
    <path d="M 72.610866 240.053608 
L 73.072352 229.007541 
L 73.533837 228.140443 
L 75.841264 222.039066 
L 76.30275 221.33273 
L 77.225721 220.517138 
L 78.148692 219.964703 
L 78.610177 219.539257 
L 79.071662 218.910701 
L 79.994633 217.002886 
L 82.30206 211.382144 
L 83.225031 209.897897 
L 84.609488 208.2778 
L 86.455429 206.304883 
L 86.916915 205.961035 
L 87.3784 205.766709 
L 87.839886 205.761332 
L 88.301371 205.970266 
L 88.762857 206.401129 
L 89.685827 207.860148 
L 91.993255 212.538356 
L 92.916225 213.699099 
L 93.839196 214.308851 
L 94.300682 214.42583 
L 94.762167 214.4027 
L 95.223653 214.21125 
L 95.685138 213.820816 
L 96.146623 213.212602 
L 97.069594 211.392856 
L 99.377021 206.046468 
L 99.838507 205.362582 
L 100.299992 204.912883 
L 100.761478 204.719564 
L 101.222963 204.79432 
L 101.684449 205.138361 
L 102.145934 205.741607 
L 103.068905 207.61895 
L 105.376332 213.289486 
L 105.837817 213.867498 
L 106.299303 214.067317 
L 106.760788 213.859765 
L 107.222274 213.255835 
L 107.683759 212.304182 
L 108.60673 209.691017 
L 109.991186 205.510945 
L 110.914157 203.57584 
L 111.375643 203.032552 
L 111.837128 202.802232 
L 112.298613 202.881152 
L 112.760099 203.241702 
L 113.68307 204.558227 
L 114.606041 205.970903 
L 115.067526 206.396378 
L 115.529011 206.502513 
L 115.990497 206.262627 
L 116.451982 205.718596 
L 117.374953 204.099691 
L 118.297924 202.43747 
L 119.220895 201.23791 
L 119.68238 200.872846 
L 120.143866 200.66897 
L 120.605351 200.621711 
L 121.066837 200.724423 
L 121.528322 200.970414 
L 122.451293 201.868766 
L 123.374264 203.267198 
L 124.75872 206.084355 
L 126.143176 209.070893 
L 127.066147 210.585222 
L 127.527633 211.098689 
L 127.989118 211.444252 
L 128.912089 211.726229 
L 129.83506 211.688375 
L 131.219516 211.370491 
L 132.142487 210.917462 
L 133.065458 210.185606 
L 135.372885 208.104267 
L 136.295856 207.68842 
L 137.218827 207.574133 
L 138.603283 207.759195 
L 139.987739 207.998519 
L 140.91071 207.837769 
L 141.833681 207.182157 
L 143.679623 205.298346 
L 144.141108 205.06486 
L 144.602593 205.012808 
L 145.064079 205.143534 
L 145.98705 205.847357 
L 147.832991 207.956829 
L 150.140419 210.620736 
L 150.601904 210.916146 
L 151.063389 210.969259 
L 151.524875 210.69116 
L 151.98636 210.021339 
L 152.447846 208.966996 
L 153.832302 204.941334 
L 154.293787 204.078314 
L 154.755273 203.826325 
L 155.216758 204.318703 
L 155.678244 205.562531 
L 156.601215 209.113886 
L 157.0627 210.089882 
L 157.524185 209.860153 
L 157.985671 209.002325 
L 158.447156 208.74634 
L 158.908642 210.082527 
L 159.370127 212.125816 
L 159.831613 208.22876 
L 161.677554 154.307595 
L 162.600525 136.485117 
L 163.523496 123.532389 
L 164.446467 114.258192 
L 165.369438 108.02879 
L 165.830923 105.940717 
L 166.292409 104.499898 
L 166.753894 103.689795 
L 167.215379 103.501568 
L 167.676865 103.933558 
L 168.13835 104.991205 
L 168.599836 106.68741 
L 169.061321 109.043381 
L 169.984292 115.870568 
L 170.907263 125.888421 
L 171.830234 139.873476 
L 172.753205 159.329633 
L 173.676175 186.592122 
L 174.137661 201.039932 
L 174.599146 207.049021 
L 175.522117 202.580289 
L 175.983603 202.440051 
L 176.445088 204.126235 
L 177.829544 211.851681 
L 178.29103 212.909426 
L 178.752515 213.234037 
L 179.675486 213.560874 
L 180.136971 213.846996 
L 180.598457 214.001322 
L 181.059942 213.807352 
L 181.521428 213.205665 
L 182.905884 210.721579 
L 183.367369 210.350685 
L 183.828855 210.380433 
L 184.29034 210.807797 
L 184.751826 211.582794 
L 186.597768 215.804274 
L 187.059253 216.212982 
L 187.520738 215.979952 
L 187.982224 215.076756 
L 188.905195 211.887015 
L 189.828166 208.396307 
L 190.751136 205.885398 
L 191.212622 205.149296 
L 191.674107 204.76291 
L 192.135593 204.699756 
L 192.597078 204.917683 
L 193.058564 205.362198 
L 193.981534 206.66499 
L 194.904505 208.028506 
L 195.827476 208.948692 
L 196.288962 209.172241 
L 197.211932 209.245537 
L 198.596389 209.162549 
L 199.51936 209.435663 
L 200.903816 210.142113 
L 201.365301 210.188354 
L 201.826787 209.98507 
L 202.288272 209.465384 
L 202.749758 208.61642 
L 203.672728 206.18513 
L 205.057185 202.429293 
L 205.51867 201.556169 
L 205.980156 200.967939 
L 206.441641 200.680557 
L 206.903126 200.685041 
L 207.364612 200.948686 
L 208.287583 202.011198 
L 209.210554 203.222453 
L 209.672039 203.668751 
L 210.133524 203.938317 
L 210.59501 204.02966 
L 211.517981 203.861816 
L 212.440952 203.691988 
L 212.902437 203.757278 
L 213.363922 203.965247 
L 214.286893 204.803533 
L 216.59432 207.614786 
L 217.517291 208.123518 
L 218.440262 208.236114 
L 219.824718 208.321335 
L 220.747689 208.619626 
L 222.132146 209.22465 
L 223.055116 209.326844 
L 223.978087 208.976968 
L 225.362544 207.898424 
L 228.131456 205.555388 
L 230.900369 202.535488 
L 231.361854 202.363999 
L 231.82334 202.383729 
L 232.284825 202.602152 
L 232.74631 203.008975 
L 233.669281 204.253492 
L 235.053738 206.245578 
L 235.515223 206.629433 
L 235.976708 206.771814 
L 236.438194 206.661231 
L 236.899679 206.328228 
L 239.207106 203.913918 
L 239.668592 203.750292 
L 240.130077 203.762431 
L 240.591563 203.933254 
L 241.514534 204.583158 
L 242.437504 205.276627 
L 243.360475 205.731592 
L 244.283446 206.111038 
L 244.744932 206.419798 
L 245.206417 206.886219 
L 246.129388 208.389743 
L 247.97533 212.160695 
L 248.436815 212.558968 
L 248.8983 212.545156 
L 249.359786 212.157785 
L 251.205728 209.594706 
L 251.667213 209.324571 
L 252.128698 209.318737 
L 252.590184 209.562118 
L 253.513155 210.559894 
L 254.436126 211.577853 
L 254.897611 211.808827 
L 255.359096 211.733419 
L 255.820582 211.312233 
L 256.282067 210.555551 
L 257.205038 208.277898 
L 259.05098 203.249663 
L 259.512465 202.407816 
L 259.973951 201.864671 
L 260.435436 201.663157 
L 260.896922 201.832634 
L 261.358407 202.387618 
L 261.819892 203.32414 
L 262.742863 206.186419 
L 264.12732 211.158007 
L 264.588805 212.195851 
L 265.05029 212.635328 
L 265.511776 212.486971 
L 265.973261 211.899174 
L 267.357718 209.467116 
L 267.819203 208.89075 
L 268.280688 208.540895 
L 268.742174 208.44424 
L 269.203659 208.620795 
L 269.665145 209.08584 
L 270.12663 209.841936 
L 271.049601 212.076426 
L 271.972572 214.485633 
L 272.434057 215.286528 
L 272.895543 215.597865 
L 273.357028 215.375987 
L 273.818514 214.680102 
L 274.741484 212.277575 
L 277.048912 204.965266 
L 277.510397 204.328135 
L 277.971882 204.251687 
L 278.433368 204.761145 
L 278.894853 205.795655 
L 280.27931 209.829421 
L 280.740795 210.412192 
L 281.20228 210.269435 
L 281.663766 209.479118 
L 282.586737 206.656508 
L 283.971193 201.569339 
L 284.432679 200.315026 
L 284.894164 199.578478 
L 285.355649 199.453404 
L 285.817135 199.911745 
L 287.201591 202.27035 
L 287.663077 202.418821 
L 288.124562 202.379441 
L 288.586047 202.66813 
L 289.047533 203.74277 
L 289.970504 207.691745 
L 290.431989 207.911927 
L 290.893475 204.93942 
L 291.816445 195.54626 
L 292.277931 192.713247 
L 292.739416 192.172997 
L 293.200902 194.256985 
L 294.123873 203.828737 
L 294.585358 202.33448 
L 295.508329 186.09576 
L 295.969814 181.254247 
L 296.4313 180.292886 
L 296.892785 184.162082 
L 297.815756 203.104179 
L 298.738727 164.943859 
L 299.200212 153.305021 
L 299.661698 146.302342 
L 300.123183 143.511317 
L 300.584669 145.866699 
L 301.046154 157.688042 
L 301.507639 205.633072 
L 301.969125 146.7242 
L 302.43061 119.007896 
L 302.892096 101.174761 
L 303.815067 76.95247 
L 304.738037 60.519483 
L 305.661008 48.839877 
L 306.583979 40.705484 
L 307.50695 35.526616 
L 307.968435 33.943844 
L 308.429921 33.00163 
L 308.891406 32.688267 
L 309.352892 32.999877 
L 309.814377 33.940148 
L 310.275863 35.520576 
L 310.737348 37.761264 
L 311.198833 40.692406 
L 312.121804 48.813425 
L 313.044775 60.465142 
L 313.967746 76.832688 
L 314.429231 87.551875 
L 314.890717 100.862255 
L 315.352202 118.423721 
L 315.813688 145.308945 
L 316.275173 212.113115 
L 316.736659 160.262855 
L 317.198144 147.555652 
L 317.659629 145.02787 
L 318.121115 147.902227 
L 318.5826 155.238103 
L 319.044086 167.716348 
L 319.967057 213.114263 
L 320.428542 196.176273 
L 320.890027 184.408427 
L 321.351513 180.615725 
L 321.812998 181.941169 
L 322.274484 187.469116 
L 323.197455 207.031275 
L 323.65894 208.072119 
L 324.581911 195.25597 
L 325.043396 192.64103 
L 325.504882 192.83689 
L 325.966367 195.256024 
L 326.889338 202.51555 
L 327.350823 203.840368 
L 327.812309 202.678967 
L 328.73528 199.039052 
L 329.196765 198.504821 
L 329.658251 198.913828 
L 330.581221 200.621771 
L 331.042707 200.79282 
L 331.504192 200.251673 
L 332.427163 198.481784 
L 332.888649 197.983675 
L 333.350134 197.906922 
L 334.73459 198.667803 
L 335.196076 198.63492 
L 336.119047 198.065876 
L 337.964988 196.820115 
L 338.887959 195.936566 
L 339.349445 195.839839 
L 339.81093 196.322191 
L 340.272415 197.502934 
L 341.195386 200.417682 
L 341.656872 200.026502 
L 342.118357 197.494563 
L 343.041328 190.961994 
L 343.502813 189.694506 
L 343.964299 190.900876 
L 344.425784 195.113407 
L 344.88727 201.326747 
L 345.348755 201.297324 
L 346.733211 170.107274 
L 347.194697 165.647462 
L 347.656182 165.585249 
L 348.117668 172.136651 
L 348.579153 193.681612 
L 349.040639 182.734636 
L 349.502124 149.210854 
L 349.963609 128.927656 
L 350.88658 102.45893 
L 351.809551 84.83681 
L 352.732522 72.334868 
L 353.655493 63.547557 
L 354.578464 57.803018 
L 355.039949 55.955636 
L 355.501435 54.755496 
L 355.96292 54.187455 
L 356.424405 54.244417 
L 356.885891 54.926842 
L 357.347376 56.24277 
L 357.808862 58.208364 
L 358.270347 60.849049 
L 359.193318 68.316536 
L 360.116289 79.143164 
L 361.03926 94.314753 
L 361.962231 116.099696 
L 362.423716 131.268273 
L 362.885201 152.150393 
L 363.346687 186.486235 
L 363.808172 192.414591 
L 364.269658 173.434844 
L 364.731143 167.971493 
L 365.192629 168.960131 
L 365.654114 174.505308 
L 366.115599 184.171354 
L 366.577085 196.726522 
L 367.03857 203.240979 
L 367.961541 190.846645 
L 368.423027 187.475723 
L 368.884512 187.084268 
L 369.345997 189.123559 
L 369.807483 193.064518 
L 370.730454 203.11649 
L 371.191939 206.322466 
L 371.653425 207.231669 
L 372.576395 206.449284 
L 373.037881 206.376299 
L 373.499366 206.512495 
L 373.960852 206.496311 
L 374.422337 206.095625 
L 375.806793 204.052833 
L 376.268279 203.822806 
L 376.729764 203.884151 
L 378.114221 204.436886 
L 379.037191 204.56125 
L 379.498677 204.762374 
L 379.960162 205.144569 
L 381.806104 207.191047 
L 382.267589 207.379768 
L 384.113531 207.595011 
L 385.036502 208.127714 
L 385.959473 208.954828 
L 387.343929 210.350403 
L 387.805415 210.577381 
L 388.2669 210.47576 
L 388.728386 209.946425 
L 389.189871 208.98149 
L 390.112842 206.1867 
L 391.497298 202.024789 
L 392.420269 200.130722 
L 393.34324 198.898788 
L 394.266211 198.152694 
L 394.727696 197.947037 
L 395.189182 197.864837 
L 395.650667 197.918389 
L 396.112152 198.114329 
L 397.035123 198.896166 
L 398.881065 200.905401 
L 399.804036 201.380546 
L 402.111463 201.763121 
L 404.41889 202.844952 
L 405.341861 202.914116 
L 406.264832 202.935297 
L 406.726317 203.047937 
L 407.187803 203.279247 
L 408.110774 204.14476 
L 409.49523 206.154727 
L 410.879686 208.116555 
L 412.264142 209.553585 
L 413.648599 210.65176 
L 414.57157 211.120865 
L 415.49454 211.242373 
L 416.417511 211.001687 
L 417.340482 210.427487 
L 418.263453 209.46721 
L 419.186424 208.059472 
L 421.032366 204.820823 
L 421.493851 204.279671 
L 421.955336 203.974987 
L 422.416822 203.955802 
L 422.878307 204.257607 
L 423.339793 204.900242 
L 423.801278 205.88436 
L 424.724249 208.742723 
L 426.108705 213.599689 
L 426.570191 214.600439 
L 427.031676 214.979309 
L 427.493162 214.708413 
L 427.954647 213.904688 
L 430.72356 207.309737 
L 434.876928 200.842468 
L 435.799899 199.862066 
L 436.261385 199.641089 
L 436.72287 199.623281 
L 437.184356 199.809233 
L 437.645841 200.186204 
L 438.568812 201.402558 
L 440.876239 205.055984 
L 441.337724 205.494354 
L 441.79921 205.732066 
L 442.260695 205.739574 
L 442.722181 205.503282 
L 443.183666 205.032 
L 444.106637 203.547986 
L 445.491093 201.03832 
L 445.952579 200.428708 
L 446.414064 200.029184 
L 446.87555 199.873248 
L 447.337035 199.976744 
L 447.79852 200.337565 
L 448.260006 200.935031 
L 449.182977 202.659378 
L 450.567433 205.430464 
L 451.028918 206.053482 
L 451.490404 206.424752 
L 451.951889 206.539743 
L 452.413375 206.434701 
L 453.336346 205.8357 
L 454.259316 205.208048 
L 454.720802 205.029833 
L 455.182287 204.990761 
L 455.643773 205.109709 
L 456.105258 205.392995 
L 457.028229 206.419486 
L 458.412685 208.680865 
L 459.335656 210.083288 
L 459.797142 210.564606 
L 460.258627 210.826827 
L 460.720112 210.839032 
L 461.181598 210.596803 
L 461.643083 210.12275 
L 462.566054 208.670639 
L 464.411996 205.36592 
L 465.334967 204.201279 
L 466.257938 203.556856 
L 466.719423 203.432656 
L 467.180908 203.434294 
L 468.103879 203.787446 
L 469.02685 204.553323 
L 469.949821 205.643654 
L 472.257248 208.667113 
L 473.180219 209.356469 
L 473.641704 209.473652 
L 474.10319 209.419119 
L 474.564675 209.193421 
L 475.487646 208.308777 
L 477.333588 206.030529 
L 478.256559 205.343346 
L 479.17953 205.096261 
L 480.563986 204.998897 
L 481.486957 204.674816 
L 482.871413 203.752889 
L 484.255869 202.857793 
L 487.024782 201.458493 
L 487.947753 201.22697 
L 489.793695 200.974155 
L 490.716665 200.384168 
L 492.562607 198.66823 
L 493.024093 198.497795 
L 493.485578 198.530483 
L 493.947063 198.769752 
L 494.870034 199.705587 
L 495.793005 200.666479 
L 496.254491 200.892312 
L 496.715976 200.856392 
L 497.177461 200.563822 
L 499.023403 198.577188 
L 499.484889 198.382154 
L 499.946374 198.442329 
L 500.407859 198.7785 
L 500.869345 199.387482 
L 501.792316 201.301299 
L 503.638257 205.959932 
L 504.099743 206.769677 
L 504.561228 207.300081 
L 505.022714 207.544656 
L 505.484199 207.536105 
L 505.945685 207.332598 
L 506.868655 206.601761 
L 508.253112 205.438464 
L 509.176083 204.960054 
L 509.637568 204.866818 
L 510.099053 204.890492 
L 510.560539 205.039461 
L 511.48351 205.69159 
L 512.867966 207.017719 
L 513.329451 207.293824 
L 513.790937 207.37504 
L 514.252422 207.234288 
L 514.713908 206.890991 
L 516.559849 205.027788 
L 517.021335 204.857177 
L 517.48282 204.906911 
L 517.944306 205.178273 
L 518.867277 206.235951 
L 519.790247 207.452073 
L 520.251733 207.864653 
L 520.713218 208.032316 
L 521.174704 207.920697 
L 521.636189 207.548356 
L 522.55916 206.286472 
L 523.943616 204.240714 
L 524.866587 203.328587 
L 525.328073 203.06137 
L 525.789558 202.926695 
L 526.251043 202.927611 
L 526.712529 203.067011 
L 527.174014 203.34685 
L 528.096985 204.318317 
L 529.019956 205.751434 
L 530.865898 208.89375 
L 531.788869 209.905394 
L 532.711839 210.395008 
L 534.096296 210.808592 
L 534.557781 211.063455 
L 535.019267 211.445417 
L 535.942237 212.672712 
L 536.865208 214.507196 
L 539.172635 219.705375 
L 540.095606 221.024785 
L 541.480063 222.550902 
L 542.403033 224.000357 
L 544.710461 228.55421 
L 545.171946 239.511512 
L 545.171946 239.511512 
" clip-path="url(#pfd793c9081)" style="fill: none; stroke: #1f77b4; stroke-linecap: square"/>
   </g>
   <g id="patch_3">
    <path d="M 48.982813 250.421875 
L 48.982813 22.32 
" style="fill: none; stroke: #000000; stroke-width: 0.8; stroke-linejoin: miter; stroke-linecap: square"/>
   </g>
   <g id="patch_4">
    <path d="M 568.8 250.421875 
L 568.8 22.32 
" style="fill: none; stroke: #000000; stroke-width: 0.8; stroke-linejoin: miter; stroke-linecap: square"/>
   </g>
   <g id="patch_5">
    <path d="M 48.982813 250.421875 
L 568.8 250.421875 
" style="fill: none; stroke: #000000; stroke-width: 0.8; stroke-linejoin: miter; stroke-linecap: square"/>
   </g>
   <g id="patch_6">
    <path d="M 48.982813 22.32 
L 568.8 22.32 
" style="fill: none; stroke: #000000; stroke-width: 0.8; stroke-linejoin: miter; stroke-linecap: square"/>
   </g>
   <g id="text_16">
    <!-- Periodogram of $x_r[n]$ -->
    <g transform="translate(246.971406 16.32) scale(0.12 -0.12)">
     <defs>
      <path id="DejaVuSans-67" d="M 2906 1791 
Q 2906 2416 2648 2759 
Q 2391 3103 1925 3103 
Q 1463 3103 1205 2759 
Q 947 2416 947 1791 
Q 947 1169 1205 825 
Q 1463 481 1925 481 
Q 2391 481 2648 825 
Q 2906 1169 2906 1791 
z
M 3481 434 
Q 3481 -459 3084 -895 
Q 2688 -1331 1869 -1331 
Q 1566 -1331 1297 -1286 
Q 1028 -1241 775 -1147 
L 775 -588 
Q 1028 -725 1275 -790 
Q 1522 -856 1778 -856 
Q 2344 -856 2625 -561 
Q 2906 -266 2906 331 
L 2906 616 
Q 2728 306 2450 153 
Q 2172 0 1784 0 
Q 1141 0 747 490 
Q 353 981 353 1791 
Q 353 2603 747 3093 
Q 1141 3584 1784 3584 
Q 2172 3584 2450 3431 
Q 2728 3278 2906 2969 
L 2906 3500 
L 3481 3500 
L 3481 434 
z
" transform="scale(0.015625)"/>
      <path id="DejaVuSans-61" d="M 2194 1759 
Q 1497 1759 1228 1600 
Q 959 1441 959 1056 
Q 959 750 1161 570 
Q 1363 391 1709 391 
Q 2188 391 2477 730 
Q 2766 1069 2766 1631 
L 2766 1759 
L 2194 1759 
z
M 3341 1997 
L 3341 0 
L 2766 0 
L 2766 531 
Q 2569 213 2275 61 
Q 1981 -91 1556 -91 
Q 1019 -91 701 211 
Q 384 513 384 1019 
Q 384 1609 779 1909 
Q 1175 2209 1959 2209 
L 2766 2209 
L 2766 2266 
Q 2766 2663 2505 2880 
Q 2244 3097 1772 3097 
Q 1472 3097 1187 3025 
Q 903 2953 641 2809 
L 641 3341 
Q 956 3463 1253 3523 
Q 1550 3584 1831 3584 
Q 2591 3584 2966 3190 
Q 3341 2797 3341 1997 
z
" transform="scale(0.015625)"/>
      <path id="DejaVuSans-6d" d="M 3328 2828 
Q 3544 3216 3844 3400 
Q 4144 3584 4550 3584 
Q 5097 3584 5394 3201 
Q 5691 2819 5691 2113 
L 5691 0 
L 5113 0 
L 5113 2094 
Q 5113 2597 4934 2840 
Q 4756 3084 4391 3084 
Q 3944 3084 3684 2787 
Q 3425 2491 3425 1978 
L 3425 0 
L 2847 0 
L 2847 2094 
Q 2847 2600 2669 2842 
Q 2491 3084 2119 3084 
Q 1678 3084 1418 2786 
Q 1159 2488 1159 1978 
L 1159 0 
L 581 0 
L 581 3500 
L 1159 3500 
L 1159 2956 
Q 1356 3278 1631 3431 
Q 1906 3584 2284 3584 
Q 2666 3584 2933 3390 
Q 3200 3197 3328 2828 
z
" transform="scale(0.015625)"/>
      <path id="DejaVuSans-66" d="M 2375 4863 
L 2375 4384 
L 1825 4384 
Q 1516 4384 1395 4259 
Q 1275 4134 1275 3809 
L 1275 3500 
L 2222 3500 
L 2222 3053 
L 1275 3053 
L 1275 0 
L 697 0 
L 697 3053 
L 147 3053 
L 147 3500 
L 697 3500 
L 697 3744 
Q 697 4328 969 4595 
Q 1241 4863 1831 4863 
L 2375 4863 
z
" transform="scale(0.015625)"/>
      <path id="DejaVuSans-Oblique-78" d="M 3841 3500 
L 2234 1784 
L 3219 0 
L 2559 0 
L 1819 1388 
L 531 0 
L -166 0 
L 1556 1844 
L 641 3500 
L 1300 3500 
L 1972 2234 
L 3144 3500 
L 3841 3500 
z
" transform="scale(0.015625)"/>
      <path id="DejaVuSans-Oblique-72" d="M 2853 2969 
Q 2766 3016 2653 3041 
Q 2541 3066 2413 3066 
Q 1953 3066 1609 2717 
Q 1266 2369 1153 1784 
L 800 0 
L 225 0 
L 909 3500 
L 1484 3500 
L 1375 2956 
Q 1603 3259 1920 3421 
Q 2238 3584 2597 3584 
Q 2691 3584 2781 3573 
Q 2872 3563 2963 3538 
L 2853 2969 
z
" transform="scale(0.015625)"/>
      <path id="DejaVuSans-5b" d="M 550 4863 
L 1875 4863 
L 1875 4416 
L 1125 4416 
L 1125 -397 
L 1875 -397 
L 1875 -844 
L 550 -844 
L 550 4863 
z
" transform="scale(0.015625)"/>
      <path id="DejaVuSans-Oblique-6e" d="M 3566 2113 
L 3156 0 
L 2578 0 
L 2988 2091 
Q 3016 2238 3031 2350 
Q 3047 2463 3047 2528 
Q 3047 2791 2881 2937 
Q 2716 3084 2419 3084 
Q 1956 3084 1622 2776 
Q 1288 2469 1184 1941 
L 800 0 
L 225 0 
L 903 3500 
L 1478 3500 
L 1363 2950 
Q 1603 3253 1940 3418 
Q 2278 3584 2650 3584 
Q 3113 3584 3367 3334 
Q 3622 3084 3622 2631 
Q 3622 2519 3608 2391 
Q 3594 2263 3566 2113 
z
" transform="scale(0.015625)"/>
      <path id="DejaVuSans-5d" d="M 1947 4863 
L 1947 -844 
L 622 -844 
L 622 -397 
L 1369 -397 
L 1369 4416 
L 622 4416 
L 622 4863 
L 1947 4863 
z
" transform="scale(0.015625)"/>
     </defs>
     <use xlink:href="#DejaVuSans-50" transform="translate(0 0.015625)"/>
     <use xlink:href="#DejaVuSans-65" transform="translate(60.302734 0.015625)"/>
     <use xlink:href="#DejaVuSans-72" transform="translate(121.826172 0.015625)"/>
     <use xlink:href="#DejaVuSans-69" transform="translate(162.939453 0.015625)"/>
     <use xlink:href="#DejaVuSans-6f" transform="translate(190.722656 0.015625)"/>
     <use xlink:href="#DejaVuSans-64" transform="translate(251.904297 0.015625)"/>
     <use xlink:href="#DejaVuSans-6f" transform="translate(315.380859 0.015625)"/>
     <use xlink:href="#DejaVuSans-67" transform="translate(376.5625 0.015625)"/>
     <use xlink:href="#DejaVuSans-72" transform="translate(440.039062 0.015625)"/>
     <use xlink:href="#DejaVuSans-61" transform="translate(481.152344 0.015625)"/>
     <use xlink:href="#DejaVuSans-6d" transform="translate(542.431641 0.015625)"/>
     <use xlink:href="#DejaVuSans-20" transform="translate(639.84375 0.015625)"/>
     <use xlink:href="#DejaVuSans-6f" transform="translate(671.630859 0.015625)"/>
     <use xlink:href="#DejaVuSans-66" transform="translate(732.8125 0.015625)"/>
     <use xlink:href="#DejaVuSans-20" transform="translate(768.017578 0.015625)"/>
     <use xlink:href="#DejaVuSans-Oblique-78" transform="translate(799.804688 0.015625)"/>
     <use xlink:href="#DejaVuSans-Oblique-72" transform="translate(858.984375 -16.390625) scale(0.7)"/>
     <use xlink:href="#DejaVuSans-5b" transform="translate(890.498047 0.015625)"/>
     <use xlink:href="#DejaVuSans-Oblique-6e" transform="translate(929.511719 0.015625)"/>
     <use xlink:href="#DejaVuSans-5d" transform="translate(992.890625 0.015625)"/>
    </g>
   </g>
  </g>
 </g>
 <defs>
  <clipPath id="pfd793c9081">
   <rect x="48.982813" y="22.32" width="519.817188" height="228.101875"/>
  </clipPath>
 </defs>
</svg>
