<?xml version="1.0" encoding="utf-8" standalone="no"?>
<!DOCTYPE svg PUBLIC "-//W3C//DTD SVG 1.1//EN"
  "http://www.w3.org/Graphics/SVG/1.1/DTD/svg11.dtd">
<svg xmlns:xlink="http://www.w3.org/1999/xlink" width="576pt" height="288pt" viewBox="0 0 576 288" xmlns="http://www.w3.org/2000/svg" version="1.1">
 <metadata>
  <rdf:RDF xmlns:dc="http://purl.org/dc/elements/1.1/" xmlns:cc="http://creativecommons.org/ns#" xmlns:rdf="http://www.w3.org/1999/02/22-rdf-syntax-ns#">
   <cc:Work>
    <dc:type rdf:resource="http://purl.org/dc/dcmitype/StillImage"/>
    <dc:date>2025-05-04T14:38:42.315421</dc:date>
    <dc:format>image/svg+xml</dc:format>
    <dc:creator>
     <cc:Agent>
      <dc:title>Matplotlib v3.10.1, https://matplotlib.org/</dc:title>
     </cc:Agent>
    </dc:creator>
   </cc:Work>
  </rdf:RDF>
 </metadata>
 <defs>
  <style type="text/css">*{stroke-linejoin: round; stroke-linecap: butt}</style>
 </defs>
 <g id="figure_1">
  <g id="patch_1">
   <path d="M 0 288 
L 576 288 
L 576 0 
L 0 0 
z
" style="fill: #ffffff"/>
  </g>
  <g id="axes_1">
   <g id="patch_2">
    <path d="M 50.14375 250.44375 
L 568.8 250.44375 
L 568.8 22.318125 
L 50.14375 22.318125 
z
" style="fill: #ffffff"/>
   </g>
   <g id="FillBetweenPolyCollection_1">
    <defs>
     <path id="ma12d578940" d="M 326.665987 -37.55625 
L 326.665987 -37.55625 
L 327.068769 -37.55625 
L 327.471551 -37.55625 
L 327.874333 -37.55625 
L 328.277114 -37.55625 
L 328.679896 -37.55625 
L 329.082678 -37.55625 
L 329.48546 -37.55625 
L 329.888241 -37.55625 
L 330.291023 -37.55625 
L 330.693805 -37.55625 
L 331.096587 -37.55625 
L 331.499368 -37.55625 
L 331.90215 -37.55625 
L 332.304932 -37.55625 
L 332.707714 -37.55625 
L 333.110496 -37.55625 
L 333.513277 -37.55625 
L 333.916059 -37.55625 
L 334.318841 -37.55625 
L 334.721623 -37.55625 
L 335.124404 -37.55625 
L 335.527186 -37.55625 
L 335.929968 -37.55625 
L 336.33275 -37.55625 
L 336.735531 -37.55625 
L 337.138313 -37.55625 
L 337.541095 -37.55625 
L 337.943877 -37.55625 
L 338.346659 -37.55625 
L 338.74944 -37.55625 
L 339.152222 -37.55625 
L 339.555004 -37.55625 
L 339.957786 -37.55625 
L 340.360567 -37.55625 
L 340.763349 -37.55625 
L 341.166131 -37.55625 
L 341.568913 -37.55625 
L 341.971695 -37.55625 
L 342.374476 -37.55625 
L 342.777258 -37.55625 
L 343.18004 -37.55625 
L 343.582822 -37.55625 
L 343.985603 -37.55625 
L 344.388385 -37.55625 
L 344.791167 -37.55625 
L 345.193949 -37.55625 
L 345.59673 -37.55625 
L 345.999512 -37.55625 
L 346.402294 -37.55625 
L 346.805076 -37.55625 
L 347.207858 -37.55625 
L 347.610639 -37.55625 
L 348.013421 -37.55625 
L 348.416203 -37.55625 
L 348.818985 -37.55625 
L 349.221766 -37.55625 
L 349.624548 -37.55625 
L 350.02733 -37.55625 
L 350.430112 -37.55625 
L 350.832894 -37.55625 
L 351.235675 -37.55625 
L 351.638457 -37.55625 
L 352.041239 -37.55625 
L 352.444021 -37.55625 
L 352.846802 -37.55625 
L 353.249584 -37.55625 
L 353.652366 -37.55625 
L 354.055148 -37.55625 
L 354.457929 -37.55625 
L 354.860711 -37.55625 
L 355.263493 -37.55625 
L 355.666275 -37.55625 
L 356.069057 -37.55625 
L 356.471838 -37.55625 
L 356.87462 -37.55625 
L 357.277402 -37.55625 
L 357.680184 -37.55625 
L 358.082965 -37.55625 
L 358.485747 -37.55625 
L 358.888529 -37.55625 
L 359.291311 -37.55625 
L 359.694093 -37.55625 
L 360.096874 -37.55625 
L 360.499656 -37.55625 
L 360.902438 -37.55625 
L 361.30522 -37.55625 
L 361.708001 -37.55625 
L 362.110783 -37.55625 
L 362.513565 -37.55625 
L 362.916347 -37.55625 
L 363.319128 -37.55625 
L 363.72191 -37.55625 
L 364.124692 -37.55625 
L 364.527474 -37.55625 
L 364.930256 -37.55625 
L 365.333037 -37.55625 
L 365.735819 -37.55625 
L 366.138601 -37.55625 
L 366.541383 -37.55625 
L 366.944164 -37.55625 
L 367.346946 -37.55625 
L 367.749728 -37.55625 
L 368.15251 -37.55625 
L 368.555292 -37.55625 
L 368.958073 -37.55625 
L 369.360855 -37.55625 
L 369.763637 -37.55625 
L 370.166419 -37.55625 
L 370.5692 -37.55625 
L 370.971982 -37.55625 
L 371.374764 -37.55625 
L 371.777546 -37.55625 
L 372.180327 -37.55625 
L 372.583109 -37.55625 
L 372.985891 -37.55625 
L 373.388673 -37.55625 
L 373.791455 -37.55625 
L 374.194236 -37.55625 
L 374.597018 -37.55625 
L 374.9998 -37.55625 
L 375.402582 -37.55625 
L 375.805363 -37.55625 
L 376.208145 -37.55625 
L 376.610927 -37.55625 
L 377.013709 -37.55625 
L 377.416491 -37.55625 
L 377.819272 -37.55625 
L 378.222054 -37.55625 
L 378.624836 -37.55625 
L 379.027618 -37.55625 
L 379.430399 -37.55625 
L 379.833181 -37.55625 
L 380.235963 -37.55625 
L 380.638745 -37.55625 
L 381.041526 -37.55625 
L 381.444308 -37.55625 
L 381.84709 -37.55625 
L 382.249872 -37.55625 
L 382.652654 -37.55625 
L 383.055435 -37.55625 
L 383.458217 -37.55625 
L 383.860999 -37.55625 
L 384.263781 -37.55625 
L 384.666562 -37.55625 
L 385.069344 -37.55625 
L 385.472126 -37.55625 
L 385.874908 -37.55625 
L 386.27769 -37.55625 
L 386.680471 -37.55625 
L 387.083253 -37.55625 
L 387.486035 -37.55625 
L 387.888817 -37.55625 
L 388.291598 -37.55625 
L 388.69438 -37.55625 
L 389.097162 -37.55625 
L 389.499944 -37.55625 
L 389.902725 -37.55625 
L 390.305507 -37.55625 
L 390.708289 -37.55625 
L 391.111071 -37.55625 
L 391.513853 -37.55625 
L 391.916634 -37.55625 
L 392.319416 -37.55625 
L 392.722198 -37.55625 
L 393.12498 -37.55625 
L 393.527761 -37.55625 
L 393.930543 -37.55625 
L 394.333325 -37.55625 
L 394.736107 -37.55625 
L 395.138888 -37.55625 
L 395.54167 -37.55625 
L 395.944452 -37.55625 
L 396.347234 -37.55625 
L 396.750016 -37.55625 
L 397.152797 -37.55625 
L 397.555579 -37.55625 
L 397.958361 -37.55625 
L 398.361143 -37.55625 
L 398.763924 -37.55625 
L 399.166706 -37.55625 
L 399.569488 -37.55625 
L 399.97227 -37.55625 
L 400.375052 -37.55625 
L 400.777833 -37.55625 
L 401.180615 -37.55625 
L 401.583397 -37.55625 
L 401.986179 -37.55625 
L 402.38896 -37.55625 
L 402.791742 -37.55625 
L 403.194524 -37.55625 
L 403.597306 -37.55625 
L 404.000087 -37.55625 
L 404.402869 -37.55625 
L 404.805651 -37.55625 
L 405.208433 -37.55625 
L 405.611215 -37.55625 
L 406.013996 -37.55625 
L 406.416778 -37.55625 
L 406.81956 -37.55625 
L 407.222342 -37.55625 
L 407.625123 -37.55625 
L 408.027905 -37.55625 
L 408.430687 -37.55625 
L 408.833469 -37.55625 
L 409.236251 -37.55625 
L 409.639032 -37.55625 
L 410.041814 -37.55625 
L 410.444596 -37.55625 
L 410.847378 -37.55625 
L 411.250159 -37.55625 
L 411.652941 -37.55625 
L 412.055723 -37.55625 
L 412.458505 -37.55625 
L 412.861286 -37.55625 
L 413.264068 -37.55625 
L 413.66685 -37.55625 
L 414.069632 -37.55625 
L 414.472414 -37.55625 
L 414.875195 -37.55625 
L 415.277977 -37.55625 
L 415.680759 -37.55625 
L 416.083541 -37.55625 
L 416.486322 -37.55625 
L 416.889104 -37.55625 
L 417.291886 -37.55625 
L 417.694668 -37.55625 
L 418.09745 -37.55625 
L 418.500231 -37.55625 
L 418.903013 -37.55625 
L 419.305795 -37.55625 
L 419.708577 -37.55625 
L 420.111358 -37.55625 
L 420.51414 -37.55625 
L 420.916922 -37.55625 
L 421.319704 -37.55625 
L 421.722485 -37.55625 
L 422.125267 -37.55625 
L 422.528049 -37.55625 
L 422.930831 -37.55625 
L 423.333613 -37.55625 
L 423.736394 -37.55625 
L 424.139176 -37.55625 
L 424.541958 -37.55625 
L 424.94474 -37.55625 
L 425.347521 -37.55625 
L 425.750303 -37.55625 
L 426.153085 -37.55625 
L 426.555867 -37.55625 
L 426.958649 -37.55625 
L 427.36143 -37.55625 
L 427.764212 -37.55625 
L 428.166994 -37.55625 
L 428.569776 -37.55625 
L 428.972557 -37.55625 
L 429.375339 -37.55625 
L 429.778121 -37.55625 
L 430.180903 -37.55625 
L 430.583684 -37.55625 
L 430.986466 -37.55625 
L 431.389248 -37.55625 
L 431.79203 -37.55625 
L 432.194812 -37.55625 
L 432.597593 -37.55625 
L 433.000375 -37.55625 
L 433.403157 -37.55625 
L 433.805939 -37.55625 
L 434.20872 -37.55625 
L 434.611502 -37.55625 
L 435.014284 -37.55625 
L 435.417066 -37.55625 
L 435.819848 -37.55625 
L 436.222629 -37.55625 
L 436.625411 -37.55625 
L 437.028193 -37.55625 
L 437.430975 -37.55625 
L 437.833756 -37.55625 
L 438.236538 -37.55625 
L 438.63932 -37.55625 
L 439.042102 -37.55625 
L 439.444883 -37.55625 
L 439.847665 -37.55625 
L 440.250447 -37.55625 
L 440.653229 -37.55625 
L 441.056011 -37.55625 
L 441.458792 -37.55625 
L 441.861574 -37.55625 
L 442.264356 -37.55625 
L 442.667138 -37.55625 
L 443.069919 -37.55625 
L 443.472701 -37.55625 
L 443.875483 -37.55625 
L 444.278265 -37.55625 
L 444.681047 -37.55625 
L 445.083828 -37.55625 
L 445.48661 -37.55625 
L 445.889392 -37.55625 
L 446.292174 -37.55625 
L 446.694955 -37.55625 
L 447.097737 -37.55625 
L 447.500519 -37.55625 
L 447.903301 -37.55625 
L 448.306082 -37.55625 
L 448.708864 -37.55625 
L 449.111646 -37.55625 
L 449.514428 -37.55625 
L 449.91721 -37.55625 
L 450.319991 -37.55625 
L 450.722773 -37.55625 
L 451.125555 -37.55625 
L 451.528337 -37.55625 
L 451.931118 -37.55625 
L 452.3339 -37.55625 
L 452.736682 -37.55625 
L 453.139464 -37.55625 
L 453.542246 -37.55625 
L 453.945027 -37.55625 
L 454.347809 -37.55625 
L 454.750591 -37.55625 
L 455.153373 -37.55625 
L 455.556154 -37.55625 
L 455.958936 -37.55625 
L 456.361718 -37.55625 
L 456.7645 -37.55625 
L 457.167281 -37.55625 
L 457.570063 -37.55625 
L 457.972845 -37.55625 
L 458.375627 -37.55625 
L 458.778409 -37.55625 
L 459.18119 -37.55625 
L 459.583972 -37.55625 
L 459.986754 -37.55625 
L 460.389536 -37.55625 
L 460.792317 -37.55625 
L 461.195099 -37.55625 
L 461.597881 -37.55625 
L 462.000663 -37.55625 
L 462.403444 -37.55625 
L 462.806226 -37.55625 
L 463.209008 -37.55625 
L 463.61179 -37.55625 
L 464.014572 -37.55625 
L 464.417353 -37.55625 
L 464.820135 -37.55625 
L 465.222917 -37.55625 
L 465.625699 -37.55625 
L 466.02848 -37.55625 
L 466.431262 -37.55625 
L 466.834044 -37.55625 
L 467.236826 -37.55625 
L 467.639608 -37.55625 
L 468.042389 -37.55625 
L 468.445171 -37.55625 
L 468.847953 -37.55625 
L 469.250735 -37.55625 
L 469.653516 -37.55625 
L 470.056298 -37.55625 
L 470.45908 -37.55625 
L 470.861862 -37.55625 
L 471.264643 -37.55625 
L 471.667425 -37.55625 
L 472.070207 -37.55625 
L 472.472989 -37.55625 
L 472.875771 -37.55625 
L 473.278552 -37.55625 
L 473.681334 -37.55625 
L 474.084116 -37.55625 
L 474.486898 -37.55625 
L 474.889679 -37.55625 
L 475.292461 -37.55625 
L 475.695243 -37.55625 
L 476.098025 -37.55625 
L 476.500807 -37.55625 
L 476.500807 -37.55625 
L 476.500807 -37.557774 
L 476.098025 -37.557847 
L 475.695243 -37.557923 
L 475.292461 -37.558003 
L 474.889679 -37.558087 
L 474.486898 -37.558174 
L 474.084116 -37.558265 
L 473.681334 -37.558361 
L 473.278552 -37.55846 
L 472.875771 -37.558565 
L 472.472989 -37.558673 
L 472.070207 -37.558787 
L 471.667425 -37.558906 
L 471.264643 -37.55903 
L 470.861862 -37.55916 
L 470.45908 -37.559295 
L 470.056298 -37.559437 
L 469.653516 -37.559585 
L 469.250735 -37.559739 
L 468.847953 -37.5599 
L 468.445171 -37.560068 
L 468.042389 -37.560244 
L 467.639608 -37.560427 
L 467.236826 -37.560618 
L 466.834044 -37.560818 
L 466.431262 -37.561026 
L 466.02848 -37.561243 
L 465.625699 -37.56147 
L 465.222917 -37.561706 
L 464.820135 -37.561953 
L 464.417353 -37.56221 
L 464.014572 -37.562478 
L 463.61179 -37.562758 
L 463.209008 -37.563049 
L 462.806226 -37.563354 
L 462.403444 -37.56367 
L 462.000663 -37.564001 
L 461.597881 -37.564345 
L 461.195099 -37.564704 
L 460.792317 -37.565078 
L 460.389536 -37.565468 
L 459.986754 -37.565873 
L 459.583972 -37.566296 
L 459.18119 -37.566737 
L 458.778409 -37.567196 
L 458.375627 -37.567673 
L 457.972845 -37.568171 
L 457.570063 -37.568689 
L 457.167281 -37.569228 
L 456.7645 -37.56979 
L 456.361718 -37.570374 
L 455.958936 -37.570983 
L 455.556154 -37.571616 
L 455.153373 -37.572274 
L 454.750591 -37.57296 
L 454.347809 -37.573673 
L 453.945027 -37.574415 
L 453.542246 -37.575187 
L 453.139464 -37.57599 
L 452.736682 -37.576825 
L 452.3339 -37.577693 
L 451.931118 -37.578596 
L 451.528337 -37.579535 
L 451.125555 -37.580511 
L 450.722773 -37.581525 
L 450.319991 -37.58258 
L 449.91721 -37.583676 
L 449.514428 -37.584815 
L 449.111646 -37.585998 
L 448.708864 -37.587228 
L 448.306082 -37.588505 
L 447.903301 -37.589832 
L 447.500519 -37.591211 
L 447.097737 -37.592642 
L 446.694955 -37.594129 
L 446.292174 -37.595673 
L 445.889392 -37.597276 
L 445.48661 -37.59894 
L 445.083828 -37.600667 
L 444.681047 -37.60246 
L 444.278265 -37.604321 
L 443.875483 -37.606253 
L 443.472701 -37.608257 
L 443.069919 -37.610337 
L 442.667138 -37.612494 
L 442.264356 -37.614732 
L 441.861574 -37.617054 
L 441.458792 -37.619462 
L 441.056011 -37.621959 
L 440.653229 -37.624548 
L 440.250447 -37.627233 
L 439.847665 -37.630017 
L 439.444883 -37.632902 
L 439.042102 -37.635893 
L 438.63932 -37.638994 
L 438.236538 -37.642207 
L 437.833756 -37.645536 
L 437.430975 -37.648986 
L 437.028193 -37.65256 
L 436.625411 -37.656263 
L 436.222629 -37.660098 
L 435.819848 -37.664071 
L 435.417066 -37.668185 
L 435.014284 -37.672446 
L 434.611502 -37.676857 
L 434.20872 -37.681424 
L 433.805939 -37.686152 
L 433.403157 -37.691047 
L 433.000375 -37.696113 
L 432.597593 -37.701355 
L 432.194812 -37.706781 
L 431.79203 -37.712394 
L 431.389248 -37.718202 
L 430.986466 -37.724211 
L 430.583684 -37.730426 
L 430.180903 -37.736855 
L 429.778121 -37.743504 
L 429.375339 -37.750379 
L 428.972557 -37.757488 
L 428.569776 -37.764838 
L 428.166994 -37.772437 
L 427.764212 -37.780292 
L 427.36143 -37.78841 
L 426.958649 -37.796801 
L 426.555867 -37.805471 
L 426.153085 -37.814431 
L 425.750303 -37.823687 
L 425.347521 -37.83325 
L 424.94474 -37.843128 
L 424.541958 -37.853331 
L 424.139176 -37.863869 
L 423.736394 -37.87475 
L 423.333613 -37.885986 
L 422.930831 -37.897587 
L 422.528049 -37.909564 
L 422.125267 -37.921926 
L 421.722485 -37.934686 
L 421.319704 -37.947856 
L 420.916922 -37.961445 
L 420.51414 -37.975468 
L 420.111358 -37.989936 
L 419.708577 -38.004862 
L 419.305795 -38.020258 
L 418.903013 -38.036138 
L 418.500231 -38.052516 
L 418.09745 -38.069406 
L 417.694668 -38.086821 
L 417.291886 -38.104776 
L 416.889104 -38.123286 
L 416.486322 -38.142367 
L 416.083541 -38.162033 
L 415.680759 -38.182302 
L 415.277977 -38.203189 
L 414.875195 -38.224711 
L 414.472414 -38.246885 
L 414.069632 -38.269728 
L 413.66685 -38.293259 
L 413.264068 -38.317495 
L 412.861286 -38.342455 
L 412.458505 -38.368159 
L 412.055723 -38.394625 
L 411.652941 -38.421875 
L 411.250159 -38.449926 
L 410.847378 -38.478802 
L 410.444596 -38.508522 
L 410.041814 -38.539109 
L 409.639032 -38.570585 
L 409.236251 -38.602971 
L 408.833469 -38.636292 
L 408.430687 -38.67057 
L 408.027905 -38.705829 
L 407.625123 -38.742095 
L 407.222342 -38.779391 
L 406.81956 -38.817744 
L 406.416778 -38.857178 
L 406.013996 -38.897721 
L 405.611215 -38.9394 
L 405.208433 -38.982241 
L 404.805651 -39.026274 
L 404.402869 -39.071525 
L 404.000087 -39.118026 
L 403.597306 -39.165804 
L 403.194524 -39.21489 
L 402.791742 -39.265315 
L 402.38896 -39.317109 
L 401.986179 -39.370306 
L 401.583397 -39.424936 
L 401.180615 -39.481034 
L 400.777833 -39.538632 
L 400.375052 -39.597765 
L 399.97227 -39.658467 
L 399.569488 -39.720773 
L 399.166706 -39.78472 
L 398.763924 -39.850343 
L 398.361143 -39.917681 
L 397.958361 -39.98677 
L 397.555579 -40.057648 
L 397.152797 -40.130355 
L 396.750016 -40.204931 
L 396.347234 -40.281414 
L 395.944452 -40.359847 
L 395.54167 -40.44027 
L 395.138888 -40.522725 
L 394.736107 -40.607255 
L 394.333325 -40.693904 
L 393.930543 -40.782714 
L 393.527761 -40.873731 
L 393.12498 -40.967 
L 392.722198 -41.062566 
L 392.319416 -41.160477 
L 391.916634 -41.260778 
L 391.513853 -41.363518 
L 391.111071 -41.468746 
L 390.708289 -41.576509 
L 390.305507 -41.686858 
L 389.902725 -41.799844 
L 389.499944 -41.915516 
L 389.097162 -42.033926 
L 388.69438 -42.155127 
L 388.291598 -42.279172 
L 387.888817 -42.406113 
L 387.486035 -42.536005 
L 387.083253 -42.668903 
L 386.680471 -42.804861 
L 386.27769 -42.943936 
L 385.874908 -43.086184 
L 385.472126 -43.231663 
L 385.069344 -43.380429 
L 384.666562 -43.532541 
L 384.263781 -43.688059 
L 383.860999 -43.847041 
L 383.458217 -44.009548 
L 383.055435 -44.175639 
L 382.652654 -44.345377 
L 382.249872 -44.518823 
L 381.84709 -44.696039 
L 381.444308 -44.877087 
L 381.041526 -45.062032 
L 380.638745 -45.250937 
L 380.235963 -45.443865 
L 379.833181 -45.640882 
L 379.430399 -45.842054 
L 379.027618 -46.047444 
L 378.624836 -46.257121 
L 378.222054 -46.47115 
L 377.819272 -46.689598 
L 377.416491 -46.912532 
L 377.013709 -47.140021 
L 376.610927 -47.372132 
L 376.208145 -47.608934 
L 375.805363 -47.850496 
L 375.402582 -48.096886 
L 374.9998 -48.348174 
L 374.597018 -48.60443 
L 374.194236 -48.865724 
L 373.791455 -49.132126 
L 373.388673 -49.403706 
L 372.985891 -49.680535 
L 372.583109 -49.962684 
L 372.180327 -50.250223 
L 371.777546 -50.543225 
L 371.374764 -50.841759 
L 370.971982 -51.145898 
L 370.5692 -51.455712 
L 370.166419 -51.771273 
L 369.763637 -52.092653 
L 369.360855 -52.419922 
L 368.958073 -52.753152 
L 368.555292 -53.092415 
L 368.15251 -53.437781 
L 367.749728 -53.789322 
L 367.346946 -54.147108 
L 366.944164 -54.511209 
L 366.541383 -54.881698 
L 366.138601 -55.258643 
L 365.735819 -55.642114 
L 365.333037 -56.032182 
L 364.930256 -56.428916 
L 364.527474 -56.832383 
L 364.124692 -57.242654 
L 363.72191 -57.659795 
L 363.319128 -58.083875 
L 362.916347 -58.51496 
L 362.513565 -58.953116 
L 362.110783 -59.398411 
L 361.708001 -59.850908 
L 361.30522 -60.310673 
L 360.902438 -60.77777 
L 360.499656 -61.252261 
L 360.096874 -61.734209 
L 359.694093 -62.223675 
L 359.291311 -62.72072 
L 358.888529 -63.225404 
L 358.485747 -63.737785 
L 358.082965 -64.257922 
L 357.680184 -64.785872 
L 357.277402 -65.321689 
L 356.87462 -65.865429 
L 356.471838 -66.417145 
L 356.069057 -66.976889 
L 355.666275 -67.544713 
L 355.263493 -68.120666 
L 354.860711 -68.704797 
L 354.457929 -69.297153 
L 354.055148 -69.897779 
L 353.652366 -70.50672 
L 353.249584 -71.124019 
L 352.846802 -71.749716 
L 352.444021 -72.383852 
L 352.041239 -73.026464 
L 351.638457 -73.677588 
L 351.235675 -74.33726 
L 350.832894 -75.005512 
L 350.430112 -75.682375 
L 350.02733 -76.367879 
L 349.624548 -77.06205 
L 349.221766 -77.764914 
L 348.818985 -78.476494 
L 348.416203 -79.196812 
L 348.013421 -79.925887 
L 347.610639 -80.663735 
L 347.207858 -81.410373 
L 346.805076 -82.165813 
L 346.402294 -82.930065 
L 345.999512 -83.703138 
L 345.59673 -84.485037 
L 345.193949 -85.275766 
L 344.791167 -86.075327 
L 344.388385 -86.883718 
L 343.985603 -87.700934 
L 343.582822 -88.526971 
L 343.18004 -89.361818 
L 342.777258 -90.205465 
L 342.374476 -91.057897 
L 341.971695 -91.919097 
L 341.568913 -92.789046 
L 341.166131 -93.667722 
L 340.763349 -94.555098 
L 340.360567 -95.451148 
L 339.957786 -96.35584 
L 339.555004 -97.26914 
L 339.152222 -98.191013 
L 338.74944 -99.121417 
L 338.346659 -100.060311 
L 337.943877 -101.007649 
L 337.541095 -101.963382 
L 337.138313 -102.927458 
L 336.735531 -103.899823 
L 336.33275 -104.880417 
L 335.929968 -105.869181 
L 335.527186 -106.866049 
L 335.124404 -107.870954 
L 334.721623 -108.883824 
L 334.318841 -109.904587 
L 333.916059 -110.933164 
L 333.513277 -111.969474 
L 333.110496 -113.013435 
L 332.707714 -114.064957 
L 332.304932 -115.123951 
L 331.90215 -116.190323 
L 331.499368 -117.263975 
L 331.096587 -118.344807 
L 330.693805 -119.432714 
L 330.291023 -120.527589 
L 329.888241 -121.629321 
L 329.48546 -122.737795 
L 329.082678 -123.852895 
L 328.679896 -124.974498 
L 328.277114 -126.102481 
L 327.874333 -127.236716 
L 327.471551 -128.37707 
L 327.068769 -129.523411 
L 326.665987 -130.675599 
z
" style="stroke: #1f77b4; stroke-opacity: 0.1"/>
    </defs>
    <g clip-path="url(#p46e438d2b8)">
     <use xlink:href="#ma12d578940" x="0" y="288" style="fill: #1f77b4; fill-opacity: 0.1; stroke: #1f77b4; stroke-opacity: 0.1"/>
    </g>
   </g>
   <g id="FillBetweenPolyCollection_2">
    <defs>
     <path id="mef59748a0a" d="M 326.263205 -37.55625 
L 326.665987 -37.55625 
L 327.068769 -37.55625 
L 327.471551 -37.55625 
L 327.874333 -37.55625 
L 328.277114 -37.55625 
L 328.679896 -37.55625 
L 329.082678 -37.55625 
L 329.48546 -37.55625 
L 329.888241 -37.55625 
L 330.291023 -37.55625 
L 330.693805 -37.55625 
L 331.096587 -37.55625 
L 331.499368 -37.55625 
L 331.90215 -37.55625 
L 332.304932 -37.55625 
L 332.707714 -37.55625 
L 333.110496 -37.55625 
L 333.513277 -37.55625 
L 333.916059 -37.55625 
L 334.318841 -37.55625 
L 334.721623 -37.55625 
L 335.124404 -37.55625 
L 335.527186 -37.55625 
L 335.929968 -37.55625 
L 336.33275 -37.55625 
L 336.735531 -37.55625 
L 337.138313 -37.55625 
L 337.541095 -37.55625 
L 337.943877 -37.55625 
L 338.346659 -37.55625 
L 338.74944 -37.55625 
L 339.152222 -37.55625 
L 339.555004 -37.55625 
L 339.957786 -37.55625 
L 340.360567 -37.55625 
L 340.763349 -37.55625 
L 341.166131 -37.55625 
L 341.568913 -37.55625 
L 341.971695 -37.55625 
L 342.374476 -37.55625 
L 342.777258 -37.55625 
L 343.18004 -37.55625 
L 343.582822 -37.55625 
L 343.985603 -37.55625 
L 344.388385 -37.55625 
L 344.791167 -37.55625 
L 345.193949 -37.55625 
L 345.59673 -37.55625 
L 345.999512 -37.55625 
L 346.402294 -37.55625 
L 346.805076 -37.55625 
L 347.207858 -37.55625 
L 347.610639 -37.55625 
L 348.013421 -37.55625 
L 348.416203 -37.55625 
L 348.818985 -37.55625 
L 349.221766 -37.55625 
L 349.624548 -37.55625 
L 350.02733 -37.55625 
L 350.430112 -37.55625 
L 350.832894 -37.55625 
L 351.235675 -37.55625 
L 351.638457 -37.55625 
L 352.041239 -37.55625 
L 352.444021 -37.55625 
L 352.846802 -37.55625 
L 353.249584 -37.55625 
L 353.652366 -37.55625 
L 354.055148 -37.55625 
L 354.457929 -37.55625 
L 354.860711 -37.55625 
L 355.263493 -37.55625 
L 355.666275 -37.55625 
L 356.069057 -37.55625 
L 356.471838 -37.55625 
L 356.87462 -37.55625 
L 357.277402 -37.55625 
L 357.680184 -37.55625 
L 358.082965 -37.55625 
L 358.485747 -37.55625 
L 358.888529 -37.55625 
L 359.291311 -37.55625 
L 359.694093 -37.55625 
L 360.096874 -37.55625 
L 360.499656 -37.55625 
L 360.902438 -37.55625 
L 361.30522 -37.55625 
L 361.708001 -37.55625 
L 362.110783 -37.55625 
L 362.513565 -37.55625 
L 362.916347 -37.55625 
L 363.319128 -37.55625 
L 363.72191 -37.55625 
L 364.124692 -37.55625 
L 364.527474 -37.55625 
L 364.930256 -37.55625 
L 365.333037 -37.55625 
L 365.735819 -37.55625 
L 366.138601 -37.55625 
L 366.541383 -37.55625 
L 366.944164 -37.55625 
L 367.346946 -37.55625 
L 367.749728 -37.55625 
L 368.15251 -37.55625 
L 368.555292 -37.55625 
L 368.958073 -37.55625 
L 369.360855 -37.55625 
L 369.763637 -37.55625 
L 370.166419 -37.55625 
L 370.5692 -37.55625 
L 370.971982 -37.55625 
L 371.374764 -37.55625 
L 371.777546 -37.55625 
L 372.180327 -37.55625 
L 372.583109 -37.55625 
L 372.985891 -37.55625 
L 373.388673 -37.55625 
L 373.791455 -37.55625 
L 374.194236 -37.55625 
L 374.597018 -37.55625 
L 374.9998 -37.55625 
L 375.402582 -37.55625 
L 375.805363 -37.55625 
L 376.208145 -37.55625 
L 376.610927 -37.55625 
L 377.013709 -37.55625 
L 377.416491 -37.55625 
L 377.819272 -37.55625 
L 378.222054 -37.55625 
L 378.624836 -37.55625 
L 379.027618 -37.55625 
L 379.430399 -37.55625 
L 379.833181 -37.55625 
L 380.235963 -37.55625 
L 380.638745 -37.55625 
L 381.041526 -37.55625 
L 381.444308 -37.55625 
L 381.84709 -37.55625 
L 382.249872 -37.55625 
L 382.652654 -37.55625 
L 383.055435 -37.55625 
L 383.458217 -37.55625 
L 383.860999 -37.55625 
L 384.263781 -37.55625 
L 384.666562 -37.55625 
L 385.069344 -37.55625 
L 385.472126 -37.55625 
L 385.874908 -37.55625 
L 386.27769 -37.55625 
L 386.680471 -37.55625 
L 387.083253 -37.55625 
L 387.486035 -37.55625 
L 387.888817 -37.55625 
L 388.291598 -37.55625 
L 388.69438 -37.55625 
L 389.097162 -37.55625 
L 389.499944 -37.55625 
L 389.902725 -37.55625 
L 390.305507 -37.55625 
L 390.708289 -37.55625 
L 391.111071 -37.55625 
L 391.513853 -37.55625 
L 391.916634 -37.55625 
L 392.319416 -37.55625 
L 392.722198 -37.55625 
L 393.12498 -37.55625 
L 393.527761 -37.55625 
L 393.930543 -37.55625 
L 394.333325 -37.55625 
L 394.736107 -37.55625 
L 395.138888 -37.55625 
L 395.54167 -37.55625 
L 395.944452 -37.55625 
L 396.347234 -37.55625 
L 396.750016 -37.55625 
L 397.152797 -37.55625 
L 397.555579 -37.55625 
L 397.958361 -37.55625 
L 398.361143 -37.55625 
L 398.763924 -37.55625 
L 399.166706 -37.55625 
L 399.569488 -37.55625 
L 399.97227 -37.55625 
L 400.375052 -37.55625 
L 400.777833 -37.55625 
L 401.180615 -37.55625 
L 401.583397 -37.55625 
L 401.986179 -37.55625 
L 402.38896 -37.55625 
L 402.791742 -37.55625 
L 403.194524 -37.55625 
L 403.597306 -37.55625 
L 404.000087 -37.55625 
L 404.402869 -37.55625 
L 404.805651 -37.55625 
L 405.208433 -37.55625 
L 405.611215 -37.55625 
L 406.013996 -37.55625 
L 406.416778 -37.55625 
L 406.81956 -37.55625 
L 407.222342 -37.55625 
L 407.625123 -37.55625 
L 408.027905 -37.55625 
L 408.430687 -37.55625 
L 408.833469 -37.55625 
L 409.236251 -37.55625 
L 409.639032 -37.55625 
L 410.041814 -37.55625 
L 410.444596 -37.55625 
L 410.847378 -37.55625 
L 411.250159 -37.55625 
L 411.652941 -37.55625 
L 412.055723 -37.55625 
L 412.458505 -37.55625 
L 412.861286 -37.55625 
L 413.264068 -37.55625 
L 413.66685 -37.55625 
L 414.069632 -37.55625 
L 414.472414 -37.55625 
L 414.875195 -37.55625 
L 415.277977 -37.55625 
L 415.680759 -37.55625 
L 416.083541 -37.55625 
L 416.486322 -37.55625 
L 416.889104 -37.55625 
L 417.291886 -37.55625 
L 417.694668 -37.55625 
L 418.09745 -37.55625 
L 418.500231 -37.55625 
L 418.903013 -37.55625 
L 419.305795 -37.55625 
L 419.708577 -37.55625 
L 420.111358 -37.55625 
L 420.51414 -37.55625 
L 420.916922 -37.55625 
L 421.319704 -37.55625 
L 421.722485 -37.55625 
L 422.125267 -37.55625 
L 422.528049 -37.55625 
L 422.930831 -37.55625 
L 423.333613 -37.55625 
L 423.736394 -37.55625 
L 424.139176 -37.55625 
L 424.541958 -37.55625 
L 424.94474 -37.55625 
L 425.347521 -37.55625 
L 425.750303 -37.55625 
L 426.153085 -37.55625 
L 426.555867 -37.55625 
L 426.958649 -37.55625 
L 427.36143 -37.55625 
L 427.764212 -37.55625 
L 428.166994 -37.55625 
L 428.569776 -37.55625 
L 428.972557 -37.55625 
L 429.375339 -37.55625 
L 429.778121 -37.55625 
L 430.180903 -37.55625 
L 430.583684 -37.55625 
L 430.986466 -37.55625 
L 431.389248 -37.55625 
L 431.79203 -37.55625 
L 432.194812 -37.55625 
L 432.597593 -37.55625 
L 433.000375 -37.55625 
L 433.403157 -37.55625 
L 433.805939 -37.55625 
L 434.20872 -37.55625 
L 434.611502 -37.55625 
L 435.014284 -37.55625 
L 435.417066 -37.55625 
L 435.819848 -37.55625 
L 436.222629 -37.55625 
L 436.625411 -37.55625 
L 437.028193 -37.55625 
L 437.430975 -37.55625 
L 437.833756 -37.55625 
L 438.236538 -37.55625 
L 438.63932 -37.55625 
L 439.042102 -37.55625 
L 439.444883 -37.55625 
L 439.847665 -37.55625 
L 440.250447 -37.55625 
L 440.653229 -37.55625 
L 441.056011 -37.55625 
L 441.458792 -37.55625 
L 441.861574 -37.55625 
L 442.264356 -37.55625 
L 442.667138 -37.55625 
L 443.069919 -37.55625 
L 443.472701 -37.55625 
L 443.875483 -37.55625 
L 444.278265 -37.55625 
L 444.681047 -37.55625 
L 445.083828 -37.55625 
L 445.48661 -37.55625 
L 445.889392 -37.55625 
L 446.292174 -37.55625 
L 446.694955 -37.55625 
L 447.097737 -37.55625 
L 447.500519 -37.55625 
L 447.903301 -37.55625 
L 448.306082 -37.55625 
L 448.708864 -37.55625 
L 449.111646 -37.55625 
L 449.514428 -37.55625 
L 449.91721 -37.55625 
L 450.319991 -37.55625 
L 450.722773 -37.55625 
L 451.125555 -37.55625 
L 451.528337 -37.55625 
L 451.931118 -37.55625 
L 452.3339 -37.55625 
L 452.736682 -37.55625 
L 453.139464 -37.55625 
L 453.542246 -37.55625 
L 453.945027 -37.55625 
L 454.347809 -37.55625 
L 454.750591 -37.55625 
L 455.153373 -37.55625 
L 455.556154 -37.55625 
L 455.958936 -37.55625 
L 456.361718 -37.55625 
L 456.7645 -37.55625 
L 457.167281 -37.55625 
L 457.570063 -37.55625 
L 457.972845 -37.55625 
L 458.375627 -37.55625 
L 458.778409 -37.55625 
L 459.18119 -37.55625 
L 459.583972 -37.55625 
L 459.986754 -37.55625 
L 460.389536 -37.55625 
L 460.792317 -37.55625 
L 461.195099 -37.55625 
L 461.597881 -37.55625 
L 462.000663 -37.55625 
L 462.403444 -37.55625 
L 462.806226 -37.55625 
L 463.209008 -37.55625 
L 463.61179 -37.55625 
L 464.014572 -37.55625 
L 464.417353 -37.55625 
L 464.820135 -37.55625 
L 465.222917 -37.55625 
L 465.625699 -37.55625 
L 466.02848 -37.55625 
L 466.431262 -37.55625 
L 466.834044 -37.55625 
L 467.236826 -37.55625 
L 467.639608 -37.55625 
L 468.042389 -37.55625 
L 468.445171 -37.55625 
L 468.847953 -37.55625 
L 469.250735 -37.55625 
L 469.653516 -37.55625 
L 470.056298 -37.55625 
L 470.45908 -37.55625 
L 470.861862 -37.55625 
L 471.264643 -37.55625 
L 471.667425 -37.55625 
L 472.070207 -37.55625 
L 472.472989 -37.55625 
L 472.875771 -37.55625 
L 473.278552 -37.55625 
L 473.681334 -37.55625 
L 474.084116 -37.55625 
L 474.486898 -37.55625 
L 474.889679 -37.55625 
L 475.292461 -37.55625 
L 475.695243 -37.55625 
L 476.098025 -37.55625 
L 476.500807 -37.55625 
L 476.500807 -37.55625 
L 476.500807 -39.360365 
L 476.098025 -39.414728 
L 475.695243 -39.470552 
L 475.292461 -39.52787 
L 474.889679 -39.586716 
L 474.486898 -39.647125 
L 474.084116 -39.709132 
L 473.681334 -39.772773 
L 473.278552 -39.838084 
L 472.875771 -39.905102 
L 472.472989 -39.973864 
L 472.070207 -40.044409 
L 471.667425 -40.116775 
L 471.264643 -40.191002 
L 470.861862 -40.26713 
L 470.45908 -40.345199 
L 470.056298 -40.425251 
L 469.653516 -40.507327 
L 469.250735 -40.59147 
L 468.847953 -40.677724 
L 468.445171 -40.766131 
L 468.042389 -40.856737 
L 467.639608 -40.949586 
L 467.236826 -41.044724 
L 466.834044 -41.142198 
L 466.431262 -41.242054 
L 466.02848 -41.34434 
L 465.625699 -41.449103 
L 465.222917 -41.556394 
L 464.820135 -41.666262 
L 464.417353 -41.778756 
L 464.014572 -41.893927 
L 463.61179 -42.011828 
L 463.209008 -42.132509 
L 462.806226 -42.256024 
L 462.403444 -42.382425 
L 462.000663 -42.511768 
L 461.597881 -42.644106 
L 461.195099 -42.779494 
L 460.792317 -42.917989 
L 460.389536 -43.059646 
L 459.986754 -43.204523 
L 459.583972 -43.352677 
L 459.18119 -43.504166 
L 458.778409 -43.65905 
L 458.375627 -43.817387 
L 457.972845 -43.979238 
L 457.570063 -44.144662 
L 457.167281 -44.313721 
L 456.7645 -44.486477 
L 456.361718 -44.662991 
L 455.958936 -44.843326 
L 455.556154 -45.027546 
L 455.153373 -45.215714 
L 454.750591 -45.407893 
L 454.347809 -45.60415 
L 453.945027 -45.804548 
L 453.542246 -46.009154 
L 453.139464 -46.218033 
L 452.736682 -46.431253 
L 452.3339 -46.648878 
L 451.931118 -46.870978 
L 451.528337 -47.09762 
L 451.125555 -47.328872 
L 450.722773 -47.564801 
L 450.319991 -47.805478 
L 449.91721 -48.05097 
L 449.514428 -48.301348 
L 449.111646 -48.55668 
L 448.708864 -48.817037 
L 448.306082 -49.082489 
L 447.903301 -49.353107 
L 447.500519 -49.62896 
L 447.097737 -49.910121 
L 446.694955 -50.196658 
L 446.292174 -50.488645 
L 445.889392 -50.786151 
L 445.48661 -51.089248 
L 445.083828 -51.398008 
L 444.681047 -51.712501 
L 444.278265 -52.0328 
L 443.875483 -52.358975 
L 443.472701 -52.691098 
L 443.069919 -53.02924 
L 442.667138 -53.373472 
L 442.264356 -53.723866 
L 441.861574 -54.080492 
L 441.458792 -54.443421 
L 441.056011 -54.812723 
L 440.653229 -55.188469 
L 440.250447 -55.570729 
L 439.847665 -55.959572 
L 439.444883 -56.355068 
L 439.042102 -56.757286 
L 438.63932 -57.166294 
L 438.236538 -57.582159 
L 437.833756 -58.004951 
L 437.430975 -58.434736 
L 437.028193 -58.871581 
L 436.625411 -59.315551 
L 436.222629 -59.766712 
L 435.819848 -60.225129 
L 435.417066 -60.690865 
L 435.014284 -61.163984 
L 434.611502 -61.644549 
L 434.20872 -62.13262 
L 433.805939 -62.62826 
L 433.403157 -63.131527 
L 433.000375 -63.642482 
L 432.597593 -64.16118 
L 432.194812 -64.687681 
L 431.79203 -65.22204 
L 431.389248 -65.764311 
L 430.986466 -66.314549 
L 430.583684 -66.872805 
L 430.180903 -67.439131 
L 429.778121 -68.013578 
L 429.375339 -68.596194 
L 428.972557 -69.187025 
L 428.569776 -69.786119 
L 428.166994 -70.39352 
L 427.764212 -71.009271 
L 427.36143 -71.633412 
L 426.958649 -72.265985 
L 426.555867 -72.907027 
L 426.153085 -73.556576 
L 425.750303 -74.214665 
L 425.347521 -74.881328 
L 424.94474 -75.556597 
L 424.541958 -76.240501 
L 424.139176 -76.933068 
L 423.736394 -77.634323 
L 423.333613 -78.34429 
L 422.930831 -79.062991 
L 422.528049 -79.790446 
L 422.125267 -80.526672 
L 421.722485 -81.271684 
L 421.319704 -82.025495 
L 420.916922 -82.788118 
L 420.51414 -83.559559 
L 420.111358 -84.339826 
L 419.708577 -85.128923 
L 419.305795 -85.926851 
L 418.903013 -86.73361 
L 418.500231 -87.549195 
L 418.09745 -88.373602 
L 417.694668 -89.206821 
L 417.291886 -90.048842 
L 416.889104 -90.899651 
L 416.486322 -91.759232 
L 416.083541 -92.627565 
L 415.680759 -93.504629 
L 415.277977 -94.390399 
L 414.875195 -95.284848 
L 414.472414 -96.187945 
L 414.069632 -97.099656 
L 413.66685 -98.019947 
L 413.264068 -98.948778 
L 412.861286 -99.886106 
L 412.458505 -100.831886 
L 412.055723 -101.786071 
L 411.652941 -102.748609 
L 411.250159 -103.719445 
L 410.847378 -104.698523 
L 410.444596 -105.685781 
L 410.041814 -106.681156 
L 409.639032 -107.68458 
L 409.236251 -108.695984 
L 408.833469 -109.715293 
L 408.430687 -110.742431 
L 408.027905 -111.777318 
L 407.625123 -112.819871 
L 407.222342 -113.870002 
L 406.81956 -114.927622 
L 406.416778 -115.992637 
L 406.013996 -117.064951 
L 405.611215 -118.144463 
L 405.208433 -119.23107 
L 404.805651 -120.324665 
L 404.402869 -121.425138 
L 404.000087 -122.532375 
L 403.597306 -123.646259 
L 403.194524 -124.766669 
L 402.791742 -125.893482 
L 402.38896 -127.026571 
L 401.986179 -128.165804 
L 401.583397 -129.311048 
L 401.180615 -130.462166 
L 400.777833 -131.619016 
L 400.375052 -132.781454 
L 399.97227 -133.949334 
L 399.569488 -135.122503 
L 399.166706 -136.300808 
L 398.763924 -137.484092 
L 398.361143 -138.672193 
L 397.958361 -139.864948 
L 397.555579 -141.06219 
L 397.152797 -142.263748 
L 396.750016 -143.469447 
L 396.347234 -144.679113 
L 395.944452 -145.892564 
L 395.54167 -147.109617 
L 395.138888 -148.330087 
L 394.736107 -149.553783 
L 394.333325 -150.780515 
L 393.930543 -152.010087 
L 393.527761 -153.2423 
L 393.12498 -154.476954 
L 392.722198 -155.713845 
L 392.319416 -156.952767 
L 391.916634 -158.19351 
L 391.513853 -159.435862 
L 391.111071 -160.679609 
L 390.708289 -161.924533 
L 390.305507 -163.170414 
L 389.902725 -164.417031 
L 389.499944 -165.664159 
L 389.097162 -166.91157 
L 388.69438 -168.159035 
L 388.291598 -169.406323 
L 387.888817 -170.6532 
L 387.486035 -171.899431 
L 387.083253 -173.144776 
L 386.680471 -174.388997 
L 386.27769 -175.631852 
L 385.874908 -176.873097 
L 385.472126 -178.112486 
L 385.069344 -179.349774 
L 384.666562 -180.58471 
L 384.263781 -181.817045 
L 383.860999 -183.046528 
L 383.458217 -184.272906 
L 383.055435 -185.495924 
L 382.652654 -186.715327 
L 382.249872 -187.930858 
L 381.84709 -189.14226 
L 381.444308 -190.349274 
L 381.041526 -191.551642 
L 380.638745 -192.749103 
L 380.235963 -193.941396 
L 379.833181 -195.12826 
L 379.430399 -196.309433 
L 379.027618 -197.484654 
L 378.624836 -198.653659 
L 378.222054 -199.816186 
L 377.819272 -200.971972 
L 377.416491 -202.120754 
L 377.013709 -203.26227 
L 376.610927 -204.396258 
L 376.208145 -205.522454 
L 375.805363 -206.640597 
L 375.402582 -207.750427 
L 374.9998 -208.851681 
L 374.597018 -209.9441 
L 374.194236 -211.027426 
L 373.791455 -212.101398 
L 373.388673 -213.165761 
L 372.985891 -214.220258 
L 372.583109 -215.264633 
L 372.180327 -216.298633 
L 371.777546 -217.322006 
L 371.374764 -218.3345 
L 370.971982 -219.335867 
L 370.5692 -220.325859 
L 370.166419 -221.30423 
L 369.763637 -222.270736 
L 369.360855 -223.225136 
L 368.958073 -224.167189 
L 368.555292 -225.096659 
L 368.15251 -226.01331 
L 367.749728 -226.916909 
L 367.346946 -227.807225 
L 366.944164 -228.684032 
L 366.541383 -229.547105 
L 366.138601 -230.39622 
L 365.735819 -231.231159 
L 365.333037 -232.051706 
L 364.930256 -232.857647 
L 364.527474 -233.648772 
L 364.124692 -234.424875 
L 363.72191 -235.185751 
L 363.319128 -235.931202 
L 362.916347 -236.66103 
L 362.513565 -237.375043 
L 362.110783 -238.073051 
L 361.708001 -238.754869 
L 361.30522 -239.420316 
L 360.902438 -240.069214 
L 360.499656 -240.70139 
L 360.096874 -241.316673 
L 359.694093 -241.9149 
L 359.291311 -242.495908 
L 358.888529 -243.059542 
L 358.485747 -243.605648 
L 358.082965 -244.134079 
L 357.680184 -244.644692 
L 357.277402 -245.137348 
L 356.87462 -245.611913 
L 356.471838 -246.068258 
L 356.069057 -246.506258 
L 355.666275 -246.925793 
L 355.263493 -247.326748 
L 354.860711 -247.709015 
L 354.457929 -248.072487 
L 354.055148 -248.417065 
L 353.652366 -248.742654 
L 353.249584 -249.049165 
L 352.846802 -249.336512 
L 352.444021 -249.604618 
L 352.041239 -249.853407 
L 351.638457 -250.082811 
L 351.235675 -250.292766 
L 350.832894 -250.483215 
L 350.430112 -250.654104 
L 350.02733 -250.805387 
L 349.624548 -250.937021 
L 349.221766 -251.04897 
L 348.818985 -251.141202 
L 348.416203 -251.213693 
L 348.013421 -251.266422 
L 347.610639 -251.299374 
L 347.207858 -251.312541 
L 346.805076 -251.305918 
L 346.402294 -251.279508 
L 345.999512 -251.233317 
L 345.59673 -251.167359 
L 345.193949 -251.081652 
L 344.791167 -250.976219 
L 344.388385 -250.851091 
L 343.985603 -250.706301 
L 343.582822 -250.54189 
L 343.18004 -250.357903 
L 342.777258 -250.154392 
L 342.374476 -249.931412 
L 341.971695 -249.689026 
L 341.568913 -249.4273 
L 341.166131 -249.146307 
L 340.763349 -248.846123 
L 340.360567 -248.526833 
L 339.957786 -248.188524 
L 339.555004 -247.831289 
L 339.152222 -247.455226 
L 338.74944 -247.060438 
L 338.346659 -246.647034 
L 337.943877 -246.215127 
L 337.541095 -245.764835 
L 337.138313 -245.296281 
L 336.735531 -244.809592 
L 336.33275 -244.304902 
L 335.929968 -243.782347 
L 335.527186 -243.242069 
L 335.124404 -242.684215 
L 334.721623 -242.108935 
L 334.318841 -241.516385 
L 333.916059 -240.906723 
L 333.513277 -240.280115 
L 333.110496 -239.636727 
L 332.707714 -238.976733 
L 332.304932 -238.300308 
L 331.90215 -237.607633 
L 331.499368 -236.898892 
L 331.096587 -236.174273 
L 330.693805 -235.433966 
L 330.291023 -234.678169 
L 329.888241 -233.907079 
L 329.48546 -233.120898 
L 329.082678 -232.319833 
L 328.679896 -231.504093 
L 328.277114 -230.673889 
L 327.874333 -229.829437 
L 327.471551 -228.970955 
L 327.068769 -228.098665 
L 326.665987 -227.212791 
z
" style="stroke: #ff7f0e; stroke-opacity: 0.1"/>
    </defs>
    <g clip-path="url(#p46e438d2b8)">
     <use xlink:href="#mef59748a0a" x="0" y="288" style="fill: #ff7f0e; fill-opacity: 0.1; stroke: #ff7f0e; stroke-opacity: 0.1"/>
    </g>
   </g>
   <g id="matplotlib.axis_1">
    <g id="xtick_1">
     <g id="line2d_1">
      <path d="M 105.257965 250.44375 
L 105.257965 22.318125 
" clip-path="url(#p46e438d2b8)" style="fill: none; stroke-dasharray: 2.96,1.28; stroke-dashoffset: 0; stroke: #b0b0b0; stroke-opacity: 0.8; stroke-width: 0.8"/>
     </g>
     <g id="line2d_2">
      <defs>
       <path id="me18dbfa3e7" d="M 0 0 
L 0 3.5 
" style="stroke: #000000; stroke-width: 0.8"/>
      </defs>
      <g>
       <use xlink:href="#me18dbfa3e7" x="105.257965" y="250.44375" style="stroke: #000000; stroke-width: 0.8"/>
      </g>
     </g>
     <g id="text_1">
      <!-- −4 -->
      <g transform="translate(97.886872 265.042188) scale(0.1 -0.1)">
       <defs>
        <path id="DejaVuSans-2212" d="M 678 2272 
L 4684 2272 
L 4684 1741 
L 678 1741 
L 678 2272 
z
" transform="scale(0.015625)"/>
        <path id="DejaVuSans-34" d="M 2419 4116 
L 825 1625 
L 2419 1625 
L 2419 4116 
z
M 2253 4666 
L 3047 4666 
L 3047 1625 
L 3713 1625 
L 3713 1100 
L 3047 1100 
L 3047 0 
L 2419 0 
L 2419 1100 
L 313 1100 
L 313 1709 
L 2253 4666 
z
" transform="scale(0.015625)"/>
       </defs>
       <use xlink:href="#DejaVuSans-2212"/>
       <use xlink:href="#DejaVuSans-34" transform="translate(83.789062 0)"/>
      </g>
     </g>
    </g>
    <g id="xtick_2">
     <g id="line2d_3">
      <path d="M 188.979531 250.44375 
L 188.979531 22.318125 
" clip-path="url(#p46e438d2b8)" style="fill: none; stroke-dasharray: 2.96,1.28; stroke-dashoffset: 0; stroke: #b0b0b0; stroke-opacity: 0.8; stroke-width: 0.8"/>
     </g>
     <g id="line2d_4">
      <g>
       <use xlink:href="#me18dbfa3e7" x="188.979531" y="250.44375" style="stroke: #000000; stroke-width: 0.8"/>
      </g>
     </g>
     <g id="text_2">
      <!-- −2 -->
      <g transform="translate(181.608437 265.042188) scale(0.1 -0.1)">
       <defs>
        <path id="DejaVuSans-32" d="M 1228 531 
L 3431 531 
L 3431 0 
L 469 0 
L 469 531 
Q 828 903 1448 1529 
Q 2069 2156 2228 2338 
Q 2531 2678 2651 2914 
Q 2772 3150 2772 3378 
Q 2772 3750 2511 3984 
Q 2250 4219 1831 4219 
Q 1534 4219 1204 4116 
Q 875 4013 500 3803 
L 500 4441 
Q 881 4594 1212 4672 
Q 1544 4750 1819 4750 
Q 2544 4750 2975 4387 
Q 3406 4025 3406 3419 
Q 3406 3131 3298 2873 
Q 3191 2616 2906 2266 
Q 2828 2175 2409 1742 
Q 1991 1309 1228 531 
z
" transform="scale(0.015625)"/>
       </defs>
       <use xlink:href="#DejaVuSans-2212"/>
       <use xlink:href="#DejaVuSans-32" transform="translate(83.789062 0)"/>
      </g>
     </g>
    </g>
    <g id="xtick_3">
     <g id="line2d_5">
      <path d="M 272.701096 250.44375 
L 272.701096 22.318125 
" clip-path="url(#p46e438d2b8)" style="fill: none; stroke-dasharray: 2.96,1.28; stroke-dashoffset: 0; stroke: #b0b0b0; stroke-opacity: 0.8; stroke-width: 0.8"/>
     </g>
     <g id="line2d_6">
      <g>
       <use xlink:href="#me18dbfa3e7" x="272.701096" y="250.44375" style="stroke: #000000; stroke-width: 0.8"/>
      </g>
     </g>
     <g id="text_3">
      <!-- 0 -->
      <g transform="translate(269.519846 265.042188) scale(0.1 -0.1)">
       <defs>
        <path id="DejaVuSans-30" d="M 2034 4250 
Q 1547 4250 1301 3770 
Q 1056 3291 1056 2328 
Q 1056 1369 1301 889 
Q 1547 409 2034 409 
Q 2525 409 2770 889 
Q 3016 1369 3016 2328 
Q 3016 3291 2770 3770 
Q 2525 4250 2034 4250 
z
M 2034 4750 
Q 2819 4750 3233 4129 
Q 3647 3509 3647 2328 
Q 3647 1150 3233 529 
Q 2819 -91 2034 -91 
Q 1250 -91 836 529 
Q 422 1150 422 2328 
Q 422 3509 836 4129 
Q 1250 4750 2034 4750 
z
" transform="scale(0.015625)"/>
       </defs>
       <use xlink:href="#DejaVuSans-30"/>
      </g>
     </g>
    </g>
    <g id="xtick_4">
     <g id="line2d_7">
      <path d="M 356.422661 250.44375 
L 356.422661 22.318125 
" clip-path="url(#p46e438d2b8)" style="fill: none; stroke-dasharray: 2.96,1.28; stroke-dashoffset: 0; stroke: #b0b0b0; stroke-opacity: 0.8; stroke-width: 0.8"/>
     </g>
     <g id="line2d_8">
      <g>
       <use xlink:href="#me18dbfa3e7" x="356.422661" y="250.44375" style="stroke: #000000; stroke-width: 0.8"/>
      </g>
     </g>
     <g id="text_4">
      <!-- 2 -->
      <g transform="translate(353.241411 265.042188) scale(0.1 -0.1)">
       <use xlink:href="#DejaVuSans-32"/>
      </g>
     </g>
    </g>
    <g id="xtick_5">
     <g id="line2d_9">
      <path d="M 440.144226 250.44375 
L 440.144226 22.318125 
" clip-path="url(#p46e438d2b8)" style="fill: none; stroke-dasharray: 2.96,1.28; stroke-dashoffset: 0; stroke: #b0b0b0; stroke-opacity: 0.8; stroke-width: 0.8"/>
     </g>
     <g id="line2d_10">
      <g>
       <use xlink:href="#me18dbfa3e7" x="440.144226" y="250.44375" style="stroke: #000000; stroke-width: 0.8"/>
      </g>
     </g>
     <g id="text_5">
      <!-- 4 -->
      <g transform="translate(436.962976 265.042188) scale(0.1 -0.1)">
       <use xlink:href="#DejaVuSans-34"/>
      </g>
     </g>
    </g>
    <g id="xtick_6">
     <g id="line2d_11">
      <path d="M 523.865792 250.44375 
L 523.865792 22.318125 
" clip-path="url(#p46e438d2b8)" style="fill: none; stroke-dasharray: 2.96,1.28; stroke-dashoffset: 0; stroke: #b0b0b0; stroke-opacity: 0.8; stroke-width: 0.8"/>
     </g>
     <g id="line2d_12">
      <g>
       <use xlink:href="#me18dbfa3e7" x="523.865792" y="250.44375" style="stroke: #000000; stroke-width: 0.8"/>
      </g>
     </g>
     <g id="text_6">
      <!-- 6 -->
      <g transform="translate(520.684542 265.042188) scale(0.1 -0.1)">
       <defs>
        <path id="DejaVuSans-36" d="M 2113 2584 
Q 1688 2584 1439 2293 
Q 1191 2003 1191 1497 
Q 1191 994 1439 701 
Q 1688 409 2113 409 
Q 2538 409 2786 701 
Q 3034 994 3034 1497 
Q 3034 2003 2786 2293 
Q 2538 2584 2113 2584 
z
M 3366 4563 
L 3366 3988 
Q 3128 4100 2886 4159 
Q 2644 4219 2406 4219 
Q 1781 4219 1451 3797 
Q 1122 3375 1075 2522 
Q 1259 2794 1537 2939 
Q 1816 3084 2150 3084 
Q 2853 3084 3261 2657 
Q 3669 2231 3669 1497 
Q 3669 778 3244 343 
Q 2819 -91 2113 -91 
Q 1303 -91 875 529 
Q 447 1150 447 2328 
Q 447 3434 972 4092 
Q 1497 4750 2381 4750 
Q 2619 4750 2861 4703 
Q 3103 4656 3366 4563 
z
" transform="scale(0.015625)"/>
       </defs>
       <use xlink:href="#DejaVuSans-36"/>
      </g>
     </g>
    </g>
    <g id="text_7">
     <!-- Test statistic, $T(x)$ -->
     <g transform="translate(264.371875 278.720312) scale(0.1 -0.1)">
      <defs>
       <path id="DejaVuSans-54" d="M -19 4666 
L 3928 4666 
L 3928 4134 
L 2272 4134 
L 2272 0 
L 1638 0 
L 1638 4134 
L -19 4134 
L -19 4666 
z
" transform="scale(0.015625)"/>
       <path id="DejaVuSans-65" d="M 3597 1894 
L 3597 1613 
L 953 1613 
Q 991 1019 1311 708 
Q 1631 397 2203 397 
Q 2534 397 2845 478 
Q 3156 559 3463 722 
L 3463 178 
Q 3153 47 2828 -22 
Q 2503 -91 2169 -91 
Q 1331 -91 842 396 
Q 353 884 353 1716 
Q 353 2575 817 3079 
Q 1281 3584 2069 3584 
Q 2775 3584 3186 3129 
Q 3597 2675 3597 1894 
z
M 3022 2063 
Q 3016 2534 2758 2815 
Q 2500 3097 2075 3097 
Q 1594 3097 1305 2825 
Q 1016 2553 972 2059 
L 3022 2063 
z
" transform="scale(0.015625)"/>
       <path id="DejaVuSans-73" d="M 2834 3397 
L 2834 2853 
Q 2591 2978 2328 3040 
Q 2066 3103 1784 3103 
Q 1356 3103 1142 2972 
Q 928 2841 928 2578 
Q 928 2378 1081 2264 
Q 1234 2150 1697 2047 
L 1894 2003 
Q 2506 1872 2764 1633 
Q 3022 1394 3022 966 
Q 3022 478 2636 193 
Q 2250 -91 1575 -91 
Q 1294 -91 989 -36 
Q 684 19 347 128 
L 347 722 
Q 666 556 975 473 
Q 1284 391 1588 391 
Q 1994 391 2212 530 
Q 2431 669 2431 922 
Q 2431 1156 2273 1281 
Q 2116 1406 1581 1522 
L 1381 1569 
Q 847 1681 609 1914 
Q 372 2147 372 2553 
Q 372 3047 722 3315 
Q 1072 3584 1716 3584 
Q 2034 3584 2315 3537 
Q 2597 3491 2834 3397 
z
" transform="scale(0.015625)"/>
       <path id="DejaVuSans-74" d="M 1172 4494 
L 1172 3500 
L 2356 3500 
L 2356 3053 
L 1172 3053 
L 1172 1153 
Q 1172 725 1289 603 
Q 1406 481 1766 481 
L 2356 481 
L 2356 0 
L 1766 0 
Q 1100 0 847 248 
Q 594 497 594 1153 
L 594 3053 
L 172 3053 
L 172 3500 
L 594 3500 
L 594 4494 
L 1172 4494 
z
" transform="scale(0.015625)"/>
       <path id="DejaVuSans-20" transform="scale(0.015625)"/>
       <path id="DejaVuSans-61" d="M 2194 1759 
Q 1497 1759 1228 1600 
Q 959 1441 959 1056 
Q 959 750 1161 570 
Q 1363 391 1709 391 
Q 2188 391 2477 730 
Q 2766 1069 2766 1631 
L 2766 1759 
L 2194 1759 
z
M 3341 1997 
L 3341 0 
L 2766 0 
L 2766 531 
Q 2569 213 2275 61 
Q 1981 -91 1556 -91 
Q 1019 -91 701 211 
Q 384 513 384 1019 
Q 384 1609 779 1909 
Q 1175 2209 1959 2209 
L 2766 2209 
L 2766 2266 
Q 2766 2663 2505 2880 
Q 2244 3097 1772 3097 
Q 1472 3097 1187 3025 
Q 903 2953 641 2809 
L 641 3341 
Q 956 3463 1253 3523 
Q 1550 3584 1831 3584 
Q 2591 3584 2966 3190 
Q 3341 2797 3341 1997 
z
" transform="scale(0.015625)"/>
       <path id="DejaVuSans-69" d="M 603 3500 
L 1178 3500 
L 1178 0 
L 603 0 
L 603 3500 
z
M 603 4863 
L 1178 4863 
L 1178 4134 
L 603 4134 
L 603 4863 
z
" transform="scale(0.015625)"/>
       <path id="DejaVuSans-63" d="M 3122 3366 
L 3122 2828 
Q 2878 2963 2633 3030 
Q 2388 3097 2138 3097 
Q 1578 3097 1268 2742 
Q 959 2388 959 1747 
Q 959 1106 1268 751 
Q 1578 397 2138 397 
Q 2388 397 2633 464 
Q 2878 531 3122 666 
L 3122 134 
Q 2881 22 2623 -34 
Q 2366 -91 2075 -91 
Q 1284 -91 818 406 
Q 353 903 353 1747 
Q 353 2603 823 3093 
Q 1294 3584 2113 3584 
Q 2378 3584 2631 3529 
Q 2884 3475 3122 3366 
z
" transform="scale(0.015625)"/>
       <path id="DejaVuSans-2c" d="M 750 794 
L 1409 794 
L 1409 256 
L 897 -744 
L 494 -744 
L 750 256 
L 750 794 
z
" transform="scale(0.015625)"/>
       <path id="DejaVuSans-Oblique-54" d="M 378 4666 
L 4325 4666 
L 4225 4134 
L 2559 4134 
L 1759 0 
L 1125 0 
L 1925 4134 
L 275 4134 
L 378 4666 
z
" transform="scale(0.015625)"/>
       <path id="DejaVuSans-28" d="M 1984 4856 
Q 1566 4138 1362 3434 
Q 1159 2731 1159 2009 
Q 1159 1288 1364 580 
Q 1569 -128 1984 -844 
L 1484 -844 
Q 1016 -109 783 600 
Q 550 1309 550 2009 
Q 550 2706 781 3412 
Q 1013 4119 1484 4856 
L 1984 4856 
z
" transform="scale(0.015625)"/>
       <path id="DejaVuSans-Oblique-78" d="M 3841 3500 
L 2234 1784 
L 3219 0 
L 2559 0 
L 1819 1388 
L 531 0 
L -166 0 
L 1556 1844 
L 641 3500 
L 1300 3500 
L 1972 2234 
L 3144 3500 
L 3841 3500 
z
" transform="scale(0.015625)"/>
       <path id="DejaVuSans-29" d="M 513 4856 
L 1013 4856 
Q 1481 4119 1714 3412 
Q 1947 2706 1947 2009 
Q 1947 1309 1714 600 
Q 1481 -109 1013 -844 
L 513 -844 
Q 928 -128 1133 580 
Q 1338 1288 1338 2009 
Q 1338 2731 1133 3434 
Q 928 4138 513 4856 
z
" transform="scale(0.015625)"/>
      </defs>
      <use xlink:href="#DejaVuSans-54" transform="translate(0 0.015625)"/>
      <use xlink:href="#DejaVuSans-65" transform="translate(61.083984 0.015625)"/>
      <use xlink:href="#DejaVuSans-73" transform="translate(122.607422 0.015625)"/>
      <use xlink:href="#DejaVuSans-74" transform="translate(174.707031 0.015625)"/>
      <use xlink:href="#DejaVuSans-20" transform="translate(213.916016 0.015625)"/>
      <use xlink:href="#DejaVuSans-73" transform="translate(245.703125 0.015625)"/>
      <use xlink:href="#DejaVuSans-74" transform="translate(297.802734 0.015625)"/>
      <use xlink:href="#DejaVuSans-61" transform="translate(337.011719 0.015625)"/>
      <use xlink:href="#DejaVuSans-74" transform="translate(398.291016 0.015625)"/>
      <use xlink:href="#DejaVuSans-69" transform="translate(437.5 0.015625)"/>
      <use xlink:href="#DejaVuSans-73" transform="translate(465.283203 0.015625)"/>
      <use xlink:href="#DejaVuSans-74" transform="translate(517.382812 0.015625)"/>
      <use xlink:href="#DejaVuSans-69" transform="translate(556.591797 0.015625)"/>
      <use xlink:href="#DejaVuSans-63" transform="translate(584.375 0.015625)"/>
      <use xlink:href="#DejaVuSans-2c" transform="translate(639.355469 0.015625)"/>
      <use xlink:href="#DejaVuSans-20" transform="translate(671.142578 0.015625)"/>
      <use xlink:href="#DejaVuSans-Oblique-54" transform="translate(702.929688 0.015625)"/>
      <use xlink:href="#DejaVuSans-28" transform="translate(764.013672 0.015625)"/>
      <use xlink:href="#DejaVuSans-Oblique-78" transform="translate(803.027344 0.015625)"/>
      <use xlink:href="#DejaVuSans-29" transform="translate(862.207031 0.015625)"/>
     </g>
    </g>
   </g>
   <g id="matplotlib.axis_2">
    <g id="ytick_1">
     <g id="line2d_13">
      <path d="M 50.14375 250.44375 
L 568.8 250.44375 
" clip-path="url(#p46e438d2b8)" style="fill: none; stroke-dasharray: 2.96,1.28; stroke-dashoffset: 0; stroke: #b0b0b0; stroke-opacity: 0.8; stroke-width: 0.8"/>
     </g>
     <g id="line2d_14">
      <defs>
       <path id="mf313ad0e6c" d="M 0 0 
L -3.5 0 
" style="stroke: #000000; stroke-width: 0.8"/>
      </defs>
      <g>
       <use xlink:href="#mf313ad0e6c" x="50.14375" y="250.44375" style="stroke: #000000; stroke-width: 0.8"/>
      </g>
     </g>
     <g id="text_8">
      <!-- 0.00 -->
      <g transform="translate(20.878125 254.242969) scale(0.1 -0.1)">
       <defs>
        <path id="DejaVuSans-2e" d="M 684 794 
L 1344 794 
L 1344 0 
L 684 0 
L 684 794 
z
" transform="scale(0.015625)"/>
       </defs>
       <use xlink:href="#DejaVuSans-30"/>
       <use xlink:href="#DejaVuSans-2e" transform="translate(63.623047 0)"/>
       <use xlink:href="#DejaVuSans-30" transform="translate(95.410156 0)"/>
       <use xlink:href="#DejaVuSans-30" transform="translate(159.033203 0)"/>
      </g>
     </g>
    </g>
    <g id="ytick_2">
     <g id="line2d_15">
      <path d="M 50.14375 223.653338 
L 568.8 223.653338 
" clip-path="url(#p46e438d2b8)" style="fill: none; stroke-dasharray: 2.96,1.28; stroke-dashoffset: 0; stroke: #b0b0b0; stroke-opacity: 0.8; stroke-width: 0.8"/>
     </g>
     <g id="line2d_16">
      <g>
       <use xlink:href="#mf313ad0e6c" x="50.14375" y="223.653338" style="stroke: #000000; stroke-width: 0.8"/>
      </g>
     </g>
     <g id="text_9">
      <!-- 0.05 -->
      <g transform="translate(20.878125 227.452557) scale(0.1 -0.1)">
       <defs>
        <path id="DejaVuSans-35" d="M 691 4666 
L 3169 4666 
L 3169 4134 
L 1269 4134 
L 1269 2991 
Q 1406 3038 1543 3061 
Q 1681 3084 1819 3084 
Q 2600 3084 3056 2656 
Q 3513 2228 3513 1497 
Q 3513 744 3044 326 
Q 2575 -91 1722 -91 
Q 1428 -91 1123 -41 
Q 819 9 494 109 
L 494 744 
Q 775 591 1075 516 
Q 1375 441 1709 441 
Q 2250 441 2565 725 
Q 2881 1009 2881 1497 
Q 2881 1984 2565 2268 
Q 2250 2553 1709 2553 
Q 1456 2553 1204 2497 
Q 953 2441 691 2322 
L 691 4666 
z
" transform="scale(0.015625)"/>
       </defs>
       <use xlink:href="#DejaVuSans-30"/>
       <use xlink:href="#DejaVuSans-2e" transform="translate(63.623047 0)"/>
       <use xlink:href="#DejaVuSans-30" transform="translate(95.410156 0)"/>
       <use xlink:href="#DejaVuSans-35" transform="translate(159.033203 0)"/>
      </g>
     </g>
    </g>
    <g id="ytick_3">
     <g id="line2d_17">
      <path d="M 50.14375 196.862926 
L 568.8 196.862926 
" clip-path="url(#p46e438d2b8)" style="fill: none; stroke-dasharray: 2.96,1.28; stroke-dashoffset: 0; stroke: #b0b0b0; stroke-opacity: 0.8; stroke-width: 0.8"/>
     </g>
     <g id="line2d_18">
      <g>
       <use xlink:href="#mf313ad0e6c" x="50.14375" y="196.862926" style="stroke: #000000; stroke-width: 0.8"/>
      </g>
     </g>
     <g id="text_10">
      <!-- 0.10 -->
      <g transform="translate(20.878125 200.662145) scale(0.1 -0.1)">
       <defs>
        <path id="DejaVuSans-31" d="M 794 531 
L 1825 531 
L 1825 4091 
L 703 3866 
L 703 4441 
L 1819 4666 
L 2450 4666 
L 2450 531 
L 3481 531 
L 3481 0 
L 794 0 
L 794 531 
z
" transform="scale(0.015625)"/>
       </defs>
       <use xlink:href="#DejaVuSans-30"/>
       <use xlink:href="#DejaVuSans-2e" transform="translate(63.623047 0)"/>
       <use xlink:href="#DejaVuSans-31" transform="translate(95.410156 0)"/>
       <use xlink:href="#DejaVuSans-30" transform="translate(159.033203 0)"/>
      </g>
     </g>
    </g>
    <g id="ytick_4">
     <g id="line2d_19">
      <path d="M 50.14375 170.072514 
L 568.8 170.072514 
" clip-path="url(#p46e438d2b8)" style="fill: none; stroke-dasharray: 2.96,1.28; stroke-dashoffset: 0; stroke: #b0b0b0; stroke-opacity: 0.8; stroke-width: 0.8"/>
     </g>
     <g id="line2d_20">
      <g>
       <use xlink:href="#mf313ad0e6c" x="50.14375" y="170.072514" style="stroke: #000000; stroke-width: 0.8"/>
      </g>
     </g>
     <g id="text_11">
      <!-- 0.15 -->
      <g transform="translate(20.878125 173.871733) scale(0.1 -0.1)">
       <use xlink:href="#DejaVuSans-30"/>
       <use xlink:href="#DejaVuSans-2e" transform="translate(63.623047 0)"/>
       <use xlink:href="#DejaVuSans-31" transform="translate(95.410156 0)"/>
       <use xlink:href="#DejaVuSans-35" transform="translate(159.033203 0)"/>
      </g>
     </g>
    </g>
    <g id="ytick_5">
     <g id="line2d_21">
      <path d="M 50.14375 143.282102 
L 568.8 143.282102 
" clip-path="url(#p46e438d2b8)" style="fill: none; stroke-dasharray: 2.96,1.28; stroke-dashoffset: 0; stroke: #b0b0b0; stroke-opacity: 0.8; stroke-width: 0.8"/>
     </g>
     <g id="line2d_22">
      <g>
       <use xlink:href="#mf313ad0e6c" x="50.14375" y="143.282102" style="stroke: #000000; stroke-width: 0.8"/>
      </g>
     </g>
     <g id="text_12">
      <!-- 0.20 -->
      <g transform="translate(20.878125 147.081321) scale(0.1 -0.1)">
       <use xlink:href="#DejaVuSans-30"/>
       <use xlink:href="#DejaVuSans-2e" transform="translate(63.623047 0)"/>
       <use xlink:href="#DejaVuSans-32" transform="translate(95.410156 0)"/>
       <use xlink:href="#DejaVuSans-30" transform="translate(159.033203 0)"/>
      </g>
     </g>
    </g>
    <g id="ytick_6">
     <g id="line2d_23">
      <path d="M 50.14375 116.49169 
L 568.8 116.49169 
" clip-path="url(#p46e438d2b8)" style="fill: none; stroke-dasharray: 2.96,1.28; stroke-dashoffset: 0; stroke: #b0b0b0; stroke-opacity: 0.8; stroke-width: 0.8"/>
     </g>
     <g id="line2d_24">
      <g>
       <use xlink:href="#mf313ad0e6c" x="50.14375" y="116.49169" style="stroke: #000000; stroke-width: 0.8"/>
      </g>
     </g>
     <g id="text_13">
      <!-- 0.25 -->
      <g transform="translate(20.878125 120.290909) scale(0.1 -0.1)">
       <use xlink:href="#DejaVuSans-30"/>
       <use xlink:href="#DejaVuSans-2e" transform="translate(63.623047 0)"/>
       <use xlink:href="#DejaVuSans-32" transform="translate(95.410156 0)"/>
       <use xlink:href="#DejaVuSans-35" transform="translate(159.033203 0)"/>
      </g>
     </g>
    </g>
    <g id="ytick_7">
     <g id="line2d_25">
      <path d="M 50.14375 89.701278 
L 568.8 89.701278 
" clip-path="url(#p46e438d2b8)" style="fill: none; stroke-dasharray: 2.96,1.28; stroke-dashoffset: 0; stroke: #b0b0b0; stroke-opacity: 0.8; stroke-width: 0.8"/>
     </g>
     <g id="line2d_26">
      <g>
       <use xlink:href="#mf313ad0e6c" x="50.14375" y="89.701278" style="stroke: #000000; stroke-width: 0.8"/>
      </g>
     </g>
     <g id="text_14">
      <!-- 0.30 -->
      <g transform="translate(20.878125 93.500497) scale(0.1 -0.1)">
       <defs>
        <path id="DejaVuSans-33" d="M 2597 2516 
Q 3050 2419 3304 2112 
Q 3559 1806 3559 1356 
Q 3559 666 3084 287 
Q 2609 -91 1734 -91 
Q 1441 -91 1130 -33 
Q 819 25 488 141 
L 488 750 
Q 750 597 1062 519 
Q 1375 441 1716 441 
Q 2309 441 2620 675 
Q 2931 909 2931 1356 
Q 2931 1769 2642 2001 
Q 2353 2234 1838 2234 
L 1294 2234 
L 1294 2753 
L 1863 2753 
Q 2328 2753 2575 2939 
Q 2822 3125 2822 3475 
Q 2822 3834 2567 4026 
Q 2313 4219 1838 4219 
Q 1578 4219 1281 4162 
Q 984 4106 628 3988 
L 628 4550 
Q 988 4650 1302 4700 
Q 1616 4750 1894 4750 
Q 2613 4750 3031 4423 
Q 3450 4097 3450 3541 
Q 3450 3153 3228 2886 
Q 3006 2619 2597 2516 
z
" transform="scale(0.015625)"/>
       </defs>
       <use xlink:href="#DejaVuSans-30"/>
       <use xlink:href="#DejaVuSans-2e" transform="translate(63.623047 0)"/>
       <use xlink:href="#DejaVuSans-33" transform="translate(95.410156 0)"/>
       <use xlink:href="#DejaVuSans-30" transform="translate(159.033203 0)"/>
      </g>
     </g>
    </g>
    <g id="ytick_8">
     <g id="line2d_27">
      <path d="M 50.14375 62.910866 
L 568.8 62.910866 
" clip-path="url(#p46e438d2b8)" style="fill: none; stroke-dasharray: 2.96,1.28; stroke-dashoffset: 0; stroke: #b0b0b0; stroke-opacity: 0.8; stroke-width: 0.8"/>
     </g>
     <g id="line2d_28">
      <g>
       <use xlink:href="#mf313ad0e6c" x="50.14375" y="62.910866" style="stroke: #000000; stroke-width: 0.8"/>
      </g>
     </g>
     <g id="text_15">
      <!-- 0.35 -->
      <g transform="translate(20.878125 66.710085) scale(0.1 -0.1)">
       <use xlink:href="#DejaVuSans-30"/>
       <use xlink:href="#DejaVuSans-2e" transform="translate(63.623047 0)"/>
       <use xlink:href="#DejaVuSans-33" transform="translate(95.410156 0)"/>
       <use xlink:href="#DejaVuSans-35" transform="translate(159.033203 0)"/>
      </g>
     </g>
    </g>
    <g id="ytick_9">
     <g id="line2d_29">
      <path d="M 50.14375 36.120454 
L 568.8 36.120454 
" clip-path="url(#p46e438d2b8)" style="fill: none; stroke-dasharray: 2.96,1.28; stroke-dashoffset: 0; stroke: #b0b0b0; stroke-opacity: 0.8; stroke-width: 0.8"/>
     </g>
     <g id="line2d_30">
      <g>
       <use xlink:href="#mf313ad0e6c" x="50.14375" y="36.120454" style="stroke: #000000; stroke-width: 0.8"/>
      </g>
     </g>
     <g id="text_16">
      <!-- 0.40 -->
      <g transform="translate(20.878125 39.919672) scale(0.1 -0.1)">
       <use xlink:href="#DejaVuSans-30"/>
       <use xlink:href="#DejaVuSans-2e" transform="translate(63.623047 0)"/>
       <use xlink:href="#DejaVuSans-34" transform="translate(95.410156 0)"/>
       <use xlink:href="#DejaVuSans-30" transform="translate(159.033203 0)"/>
      </g>
     </g>
    </g>
    <g id="text_17">
     <!-- Probability density -->
     <g transform="translate(14.798437 182.731719) rotate(-90) scale(0.1 -0.1)">
      <defs>
       <path id="DejaVuSans-50" d="M 1259 4147 
L 1259 2394 
L 2053 2394 
Q 2494 2394 2734 2622 
Q 2975 2850 2975 3272 
Q 2975 3691 2734 3919 
Q 2494 4147 2053 4147 
L 1259 4147 
z
M 628 4666 
L 2053 4666 
Q 2838 4666 3239 4311 
Q 3641 3956 3641 3272 
Q 3641 2581 3239 2228 
Q 2838 1875 2053 1875 
L 1259 1875 
L 1259 0 
L 628 0 
L 628 4666 
z
" transform="scale(0.015625)"/>
       <path id="DejaVuSans-72" d="M 2631 2963 
Q 2534 3019 2420 3045 
Q 2306 3072 2169 3072 
Q 1681 3072 1420 2755 
Q 1159 2438 1159 1844 
L 1159 0 
L 581 0 
L 581 3500 
L 1159 3500 
L 1159 2956 
Q 1341 3275 1631 3429 
Q 1922 3584 2338 3584 
Q 2397 3584 2469 3576 
Q 2541 3569 2628 3553 
L 2631 2963 
z
" transform="scale(0.015625)"/>
       <path id="DejaVuSans-6f" d="M 1959 3097 
Q 1497 3097 1228 2736 
Q 959 2375 959 1747 
Q 959 1119 1226 758 
Q 1494 397 1959 397 
Q 2419 397 2687 759 
Q 2956 1122 2956 1747 
Q 2956 2369 2687 2733 
Q 2419 3097 1959 3097 
z
M 1959 3584 
Q 2709 3584 3137 3096 
Q 3566 2609 3566 1747 
Q 3566 888 3137 398 
Q 2709 -91 1959 -91 
Q 1206 -91 779 398 
Q 353 888 353 1747 
Q 353 2609 779 3096 
Q 1206 3584 1959 3584 
z
" transform="scale(0.015625)"/>
       <path id="DejaVuSans-62" d="M 3116 1747 
Q 3116 2381 2855 2742 
Q 2594 3103 2138 3103 
Q 1681 3103 1420 2742 
Q 1159 2381 1159 1747 
Q 1159 1113 1420 752 
Q 1681 391 2138 391 
Q 2594 391 2855 752 
Q 3116 1113 3116 1747 
z
M 1159 2969 
Q 1341 3281 1617 3432 
Q 1894 3584 2278 3584 
Q 2916 3584 3314 3078 
Q 3713 2572 3713 1747 
Q 3713 922 3314 415 
Q 2916 -91 2278 -91 
Q 1894 -91 1617 61 
Q 1341 213 1159 525 
L 1159 0 
L 581 0 
L 581 4863 
L 1159 4863 
L 1159 2969 
z
" transform="scale(0.015625)"/>
       <path id="DejaVuSans-6c" d="M 603 4863 
L 1178 4863 
L 1178 0 
L 603 0 
L 603 4863 
z
" transform="scale(0.015625)"/>
       <path id="DejaVuSans-79" d="M 2059 -325 
Q 1816 -950 1584 -1140 
Q 1353 -1331 966 -1331 
L 506 -1331 
L 506 -850 
L 844 -850 
Q 1081 -850 1212 -737 
Q 1344 -625 1503 -206 
L 1606 56 
L 191 3500 
L 800 3500 
L 1894 763 
L 2988 3500 
L 3597 3500 
L 2059 -325 
z
" transform="scale(0.015625)"/>
       <path id="DejaVuSans-64" d="M 2906 2969 
L 2906 4863 
L 3481 4863 
L 3481 0 
L 2906 0 
L 2906 525 
Q 2725 213 2448 61 
Q 2172 -91 1784 -91 
Q 1150 -91 751 415 
Q 353 922 353 1747 
Q 353 2572 751 3078 
Q 1150 3584 1784 3584 
Q 2172 3584 2448 3432 
Q 2725 3281 2906 2969 
z
M 947 1747 
Q 947 1113 1208 752 
Q 1469 391 1925 391 
Q 2381 391 2643 752 
Q 2906 1113 2906 1747 
Q 2906 2381 2643 2742 
Q 2381 3103 1925 3103 
Q 1469 3103 1208 2742 
Q 947 2381 947 1747 
z
" transform="scale(0.015625)"/>
       <path id="DejaVuSans-6e" d="M 3513 2113 
L 3513 0 
L 2938 0 
L 2938 2094 
Q 2938 2591 2744 2837 
Q 2550 3084 2163 3084 
Q 1697 3084 1428 2787 
Q 1159 2491 1159 1978 
L 1159 0 
L 581 0 
L 581 3500 
L 1159 3500 
L 1159 2956 
Q 1366 3272 1645 3428 
Q 1925 3584 2291 3584 
Q 2894 3584 3203 3211 
Q 3513 2838 3513 2113 
z
" transform="scale(0.015625)"/>
      </defs>
      <use xlink:href="#DejaVuSans-50"/>
      <use xlink:href="#DejaVuSans-72" transform="translate(58.552734 0)"/>
      <use xlink:href="#DejaVuSans-6f" transform="translate(97.416016 0)"/>
      <use xlink:href="#DejaVuSans-62" transform="translate(158.597656 0)"/>
      <use xlink:href="#DejaVuSans-61" transform="translate(222.074219 0)"/>
      <use xlink:href="#DejaVuSans-62" transform="translate(283.353516 0)"/>
      <use xlink:href="#DejaVuSans-69" transform="translate(346.830078 0)"/>
      <use xlink:href="#DejaVuSans-6c" transform="translate(374.613281 0)"/>
      <use xlink:href="#DejaVuSans-69" transform="translate(402.396484 0)"/>
      <use xlink:href="#DejaVuSans-74" transform="translate(430.179688 0)"/>
      <use xlink:href="#DejaVuSans-79" transform="translate(469.388672 0)"/>
      <use xlink:href="#DejaVuSans-20" transform="translate(528.568359 0)"/>
      <use xlink:href="#DejaVuSans-64" transform="translate(560.355469 0)"/>
      <use xlink:href="#DejaVuSans-65" transform="translate(623.832031 0)"/>
      <use xlink:href="#DejaVuSans-6e" transform="translate(685.355469 0)"/>
      <use xlink:href="#DejaVuSans-73" transform="translate(748.734375 0)"/>
      <use xlink:href="#DejaVuSans-69" transform="translate(800.833984 0)"/>
      <use xlink:href="#DejaVuSans-74" transform="translate(828.617188 0)"/>
      <use xlink:href="#DejaVuSans-79" transform="translate(867.826172 0)"/>
     </g>
    </g>
   </g>
   <g id="line2d_31">
    <path d="M 73.719034 250.441099 
L 111.177739 250.318757 
L 123.663974 250.06582 
L 132.122391 249.683465 
L 138.566899 249.183775 
L 144.205844 248.521185 
L 149.039226 247.721609 
L 153.067043 246.843392 
L 156.692079 245.84966 
L 160.317115 244.625444 
L 163.539369 243.310955 
L 166.761624 241.75115 
L 169.581096 240.15903 
L 172.400568 238.330377 
L 175.220041 236.241161 
L 178.039513 233.866985 
L 180.858986 231.183503 
L 183.678458 228.166902 
L 186.49793 224.794453 
L 189.317403 221.045125 
L 192.136875 216.90025 
L 194.956348 212.344224 
L 197.77582 207.365249 
L 200.595292 201.956069 
L 203.817547 195.245097 
L 207.039801 187.97652 
L 210.262055 180.168447 
L 213.887091 170.778096 
L 217.914909 159.667584 
L 222.345508 146.762881 
L 228.387235 128.382875 
L 239.665124 93.885209 
L 243.692942 82.314007 
L 247.317978 72.583952 
L 250.13745 65.589347 
L 252.956923 59.189266 
L 255.373613 54.237127 
L 257.790304 49.826524 
L 259.804213 46.595036 
L 261.818122 43.790358 
L 263.429249 41.866734 
L 265.040376 40.236816 
L 266.651503 38.907743 
L 268.26263 37.885364 
L 269.873757 37.174196 
L 271.082103 36.846998 
L 272.290448 36.697474 
L 273.498793 36.725996 
L 274.707139 36.932493 
L 275.915484 37.31645 
L 277.526611 38.102722 
L 279.137738 39.199243 
L 280.748865 40.601173 
L 282.359992 42.302348 
L 283.971119 44.295328 
L 285.985028 47.183588 
L 287.998937 50.494709 
L 290.012846 54.206616 
L 292.429537 59.155375 
L 294.846227 64.599774 
L 297.6657 71.511373 
L 300.887954 80.045337 
L 304.51299 90.298762 
L 309.346371 104.726516 
L 327.068769 158.476589 
L 331.096587 169.655193 
L 334.721623 179.116176 
L 338.346659 187.939689 
L 341.568913 195.210954 
L 344.791167 201.924673 
L 347.610639 207.336265 
L 350.430112 212.317625 
L 353.249584 216.875981 
L 356.069057 221.023111 
L 358.888529 224.774596 
L 361.708001 228.149092 
L 364.527474 231.167617 
L 367.346946 233.852892 
L 370.166419 236.228727 
L 372.985891 238.319465 
L 375.805363 240.149504 
L 379.027618 241.952556 
L 382.249872 243.481177 
L 385.472126 244.768337 
L 389.097162 245.966074 
L 392.722198 246.937434 
L 396.750016 247.795069 
L 401.180615 248.518966 
L 406.416778 249.142822 
L 412.458505 249.631841 
L 420.111358 250.010064 
L 430.180903 250.263145 
L 445.48661 250.40106 
L 476.500807 250.442226 
L 476.500807 250.442226 
" clip-path="url(#p46e438d2b8)" style="fill: none; stroke: #1f77b4; stroke-linecap: square"/>
   </g>
   <g id="line2d_32">
    <path d="M 73.719034 250.44375 
L 184.08124 250.335338 
L 197.373038 250.088658 
L 205.831455 249.726884 
L 212.678746 249.215083 
L 218.31769 248.566976 
L 223.151072 247.784037 
L 227.178889 246.923305 
L 231.206707 245.826965 
L 234.831743 244.597602 
L 238.053997 243.277804 
L 241.276251 241.711945 
L 244.095724 240.113882 
L 246.915196 238.278659 
L 249.734669 236.182232 
L 252.554141 233.800199 
L 255.373613 231.108222 
L 258.193086 228.082509 
L 261.012558 224.700369 
L 263.832031 220.940824 
L 266.651503 216.785275 
L 269.470975 212.218213 
L 272.290448 207.227948 
L 275.10992 201.807355 
L 278.332174 195.083381 
L 281.554429 187.802086 
L 284.776683 179.981859 
L 288.401719 170.578878 
L 292.429537 159.456156 
L 296.860136 146.54096 
L 302.901863 128.153012 
L 314.179752 93.66553 
L 318.20757 82.106906 
L 321.832606 72.392294 
L 324.652078 65.412321 
L 327.471551 59.029045 
L 329.888241 54.092921 
L 332.304932 49.699692 
L 334.318841 46.483615 
L 336.33275 43.695098 
L 337.943877 41.784873 
L 339.555004 40.168711 
L 341.166131 38.853693 
L 342.777258 37.845608 
L 344.388385 37.148909 
L 345.59673 36.832641 
L 346.805076 36.694082 
L 348.013421 36.733578 
L 349.221766 36.95103 
L 350.430112 37.345896 
L 352.041239 38.146593 
L 353.652366 39.257346 
L 355.263493 40.673252 
L 356.87462 42.388087 
L 358.485747 44.394352 
L 360.499656 47.29861 
L 362.513565 50.624957 
L 364.527474 54.351228 
L 366.944164 59.315968 
L 369.360855 64.774864 
L 372.180327 71.701367 
L 375.402582 80.249573 
L 379.027618 90.515346 
L 383.860999 104.953472 
L 401.180615 157.537834 
L 405.208433 168.76893 
L 408.833469 178.284707 
L 412.458505 187.168114 
L 415.680759 194.495371 
L 418.903013 201.26639 
L 422.125267 207.473328 
L 424.94474 212.443403 
L 427.764212 216.990729 
L 430.583684 221.127195 
L 433.403157 224.868473 
L 436.222629 228.233288 
L 439.042102 231.242714 
L 441.861574 233.919508 
L 444.681047 236.287499 
L 447.500519 238.37104 
L 450.319991 240.194522 
L 453.542246 241.990846 
L 456.7645 243.513523 
L 459.986754 244.795477 
L 463.61179 245.988172 
L 467.236826 246.955276 
L 471.264643 247.808998 
L 475.695243 248.529448 
L 476.500807 248.639635 
L 476.500807 248.639635 
" clip-path="url(#p46e438d2b8)" style="fill: none; stroke: #ff7f0e; stroke-linecap: square"/>
   </g>
   <g id="line2d_33">
    <path d="M 326.347847 250.44375 
L 326.347847 22.318125 
" clip-path="url(#p46e438d2b8)" style="fill: none; stroke-dasharray: 3.7,1.6; stroke-dashoffset: 0; stroke: #000000"/>
   </g>
   <g id="patch_3">
    <path d="M 84.573839 250.44375 
L 84.573839 250.385094 
L 103.693181 250.44375 
L 103.693181 250.267781 
L 122.812523 250.267781 
L 122.812523 250.033157 
L 130.46026 250.033157 
L 130.46026 249.622563 
L 134.284129 249.622563 
L 134.284129 249.329283 
L 138.107997 249.329283 
L 138.107997 248.742721 
L 141.931865 248.742721 
L 141.931865 248.038847 
L 145.755734 248.038847 
L 145.755734 247.569597 
L 149.579602 247.569597 
L 149.579602 246.748411 
L 153.403471 246.748411 
L 153.403471 246.337817 
L 157.227339 246.337817 
L 157.227339 246.103192 
L 161.051207 246.103192 
L 161.051207 243.111727 
L 164.875076 243.111727 
L 164.875076 240.472199 
L 168.698944 240.472199 
L 168.698944 239.826981 
L 172.522813 239.826981 
L 172.522813 235.662392 
L 176.346681 235.662392 
L 176.346681 233.961363 
L 180.170549 233.961363 
L 180.170549 230.559304 
L 183.994418 230.559304 
L 183.994418 226.922621 
L 187.818286 226.922621 
L 187.818286 218.94538 
L 191.642155 218.94538 
L 191.642155 214.135573 
L 195.466023 214.135573 
L 195.466023 207.859362 
L 199.289891 207.859362 
L 199.289891 202.990898 
L 203.11376 202.990898 
L 203.11376 193.605909 
L 206.937628 193.605909 
L 206.937628 184.631513 
L 210.761497 184.631513 
L 210.761497 173.193558 
L 214.585365 173.193558 
L 214.585365 164.160506 
L 218.409233 164.160506 
L 218.409233 154.306267 
L 222.233102 154.306267 
L 222.233102 140.698033 
L 226.05697 140.698033 
L 226.05697 127.617704 
L 229.880839 127.617704 
L 229.880839 119.22987 
L 233.704707 119.22987 
L 233.704707 103.86195 
L 237.528575 103.86195 
L 237.528575 97.585738 
L 241.352444 97.585738 
L 241.352444 83.566911 
L 245.176312 83.566911 
L 245.176312 70.36927 
L 249.000181 70.36927 
L 249.000181 63.565153 
L 252.824049 63.565153 
L 252.824049 55.470599 
L 256.647917 55.470599 
L 256.647917 49.135732 
L 260.471786 49.135732 
L 260.471786 38.812244 
L 264.295654 38.812244 
L 264.295654 37.697776 
L 268.119523 37.697776 
L 268.119523 33.18125 
L 271.943391 33.18125 
L 271.943391 42.742208 
L 275.767259 42.742208 
L 275.767259 43.915331 
L 279.591128 43.915331 
L 279.591128 46.672172 
L 283.414996 46.672172 
L 283.414996 49.370356 
L 287.238865 49.370356 
L 287.238865 50.426168 
L 291.062733 50.426168 
L 291.062733 59.635188 
L 294.886601 59.635188 
L 294.886601 65.324838 
L 298.71047 65.324838 
L 298.71047 76.997418 
L 302.534338 76.997418 
L 302.534338 84.388097 
L 306.358207 84.388097 
L 306.358207 100.459891 
L 310.182075 100.459891 
L 310.182075 113.070971 
L 314.005944 113.070971 
L 314.005944 123.042522 
L 317.829812 123.042522 
L 317.829812 139.290284 
L 321.65368 139.290284 
L 321.65368 149.320491 
L 325.477549 149.320491 
L 325.477549 158.294887 
L 329.301417 158.294887 
L 329.301417 172.020434 
L 333.125286 172.020434 
L 333.125286 177.886052 
L 336.949154 177.886052 
L 336.949154 190.027882 
L 340.773022 190.027882 
L 340.773022 200.058089 
L 344.596891 200.058089 
L 344.596891 206.979519 
L 348.420759 206.979519 
L 348.420759 212.141263 
L 352.244628 212.141263 
L 352.244628 217.596288 
L 356.068496 217.596288 
L 356.068496 224.576374 
L 359.892364 224.576374 
L 359.892364 229.034243 
L 363.716233 229.034243 
L 363.716233 232.670927 
L 367.540101 232.670927 
L 367.540101 235.134486 
L 371.36397 235.134486 
L 371.36397 238.77117 
L 375.187838 238.77117 
L 375.187838 240.413543 
L 379.011706 240.413543 
L 379.011706 243.111727 
L 382.835575 243.111727 
L 382.835575 244.812756 
L 386.659443 244.812756 
L 386.659443 245.282006 
L 390.483312 245.282006 
L 390.483312 247.041691 
L 394.30718 247.041691 
L 394.30718 247.510941 
L 398.131048 247.510941 
L 398.131048 248.332127 
L 405.778785 248.332127 
L 405.778785 249.387939 
L 409.602654 249.387939 
L 409.602654 249.857188 
L 413.426522 249.857188 
L 413.426522 250.150469 
L 421.074259 250.091813 
L 421.074259 249.915844 
L 428.721996 249.857188 
L 428.721996 250.326438 
L 432.545864 250.326438 
L 432.545864 250.150469 
L 436.369732 250.150469 
L 436.369732 250.326438 
L 447.841338 250.385094 
L 447.841338 250.44375 
L 470.784548 250.385094 
L 470.784548 250.44375 
" clip-path="url(#p46e438d2b8)" style="fill: none; stroke: #1f77b4; stroke-linejoin: miter"/>
   </g>
   <g id="patch_4">
    <path d="M 159.014007 250.44375 
L 159.014007 250.385094 
L 178.133349 250.44375 
L 178.133349 250.267781 
L 197.252691 250.267781 
L 197.252691 250.033157 
L 204.900428 250.033157 
L 204.900428 249.622563 
L 208.724296 249.622563 
L 208.724296 249.329283 
L 212.548165 249.329283 
L 212.548165 248.742721 
L 216.372033 248.742721 
L 216.372033 248.038847 
L 220.195902 248.038847 
L 220.195902 247.569597 
L 224.01977 247.569597 
L 224.01977 246.748411 
L 227.843638 246.748411 
L 227.843638 246.337817 
L 231.667507 246.337817 
L 231.667507 246.103192 
L 235.491375 246.103192 
L 235.491375 243.111727 
L 239.315244 243.111727 
L 239.315244 240.472199 
L 243.139112 240.472199 
L 243.139112 239.826981 
L 246.96298 239.826981 
L 246.96298 235.662392 
L 250.786849 235.662392 
L 250.786849 233.961363 
L 254.610717 233.961363 
L 254.610717 230.559304 
L 258.434586 230.559304 
L 258.434586 226.922621 
L 262.258454 226.922621 
L 262.258454 218.94538 
L 266.082322 218.94538 
L 266.082322 214.135573 
L 269.906191 214.135573 
L 269.906191 207.859362 
L 273.730059 207.859362 
L 273.730059 202.990898 
L 277.553928 202.990898 
L 277.553928 193.605909 
L 281.377796 193.605909 
L 281.377796 184.631513 
L 285.201664 184.631513 
L 285.201664 173.193558 
L 289.025533 173.193558 
L 289.025533 164.160506 
L 292.849401 164.160506 
L 292.849401 154.306267 
L 296.67327 154.306267 
L 296.67327 140.698033 
L 300.497138 140.698033 
L 300.497138 127.617704 
L 304.321006 127.617704 
L 304.321006 119.22987 
L 308.144875 119.22987 
L 308.144875 103.86195 
L 311.968743 103.86195 
L 311.968743 97.585738 
L 315.792612 97.585738 
L 315.792612 83.566911 
L 319.61648 83.566911 
L 319.61648 70.36927 
L 323.440348 70.36927 
L 323.440348 63.565153 
L 327.264217 63.565153 
L 327.264217 55.470599 
L 331.088085 55.470599 
L 331.088085 49.135732 
L 334.911954 49.135732 
L 334.911954 38.812244 
L 338.735822 38.812244 
L 338.735822 37.697776 
L 342.559691 37.697776 
L 342.559691 33.18125 
L 346.383559 33.18125 
L 346.383559 42.742208 
L 350.207427 42.742208 
L 350.207427 43.915331 
L 354.031296 43.915331 
L 354.031296 46.672172 
L 357.855164 46.672172 
L 357.855164 49.370356 
L 361.679033 49.370356 
L 361.679033 50.426168 
L 365.502901 50.426168 
L 365.502901 59.635188 
L 369.326769 59.635188 
L 369.326769 65.324838 
L 373.150638 65.324838 
L 373.150638 76.997418 
L 376.974506 76.997418 
L 376.974506 84.388097 
L 380.798375 84.388097 
L 380.798375 100.459891 
L 384.622243 100.459891 
L 384.622243 113.070971 
L 388.446111 113.070971 
L 388.446111 123.042522 
L 392.26998 123.042522 
L 392.26998 139.290284 
L 396.093848 139.290284 
L 396.093848 149.320491 
L 399.917717 149.320491 
L 399.917717 158.294887 
L 403.741585 158.294887 
L 403.741585 172.020434 
L 407.565453 172.020434 
L 407.565453 177.886052 
L 411.389322 177.886052 
L 411.389322 190.027882 
L 415.21319 190.027882 
L 415.21319 200.058089 
L 419.037059 200.058089 
L 419.037059 206.979519 
L 422.860927 206.979519 
L 422.860927 212.141263 
L 426.684795 212.141263 
L 426.684795 217.596288 
L 430.508664 217.596288 
L 430.508664 224.576374 
L 434.332532 224.576374 
L 434.332532 229.034243 
L 438.156401 229.034243 
L 438.156401 232.670927 
L 441.980269 232.670927 
L 441.980269 235.134486 
L 445.804137 235.134486 
L 445.804137 238.77117 
L 449.628006 238.77117 
L 449.628006 240.413543 
L 453.451874 240.413543 
L 453.451874 243.111727 
L 457.275743 243.111727 
L 457.275743 244.812756 
L 461.099611 244.812756 
L 461.099611 245.282006 
L 464.923479 245.282006 
L 464.923479 247.041691 
L 468.747348 247.041691 
L 468.747348 247.510941 
L 472.571216 247.510941 
L 472.571216 248.332127 
L 480.218953 248.332127 
L 480.218953 249.387939 
L 484.042821 249.387939 
L 484.042821 249.857188 
L 487.86669 249.857188 
L 487.86669 250.150469 
L 495.514427 250.091813 
L 495.514427 249.915844 
L 503.162163 249.857188 
L 503.162163 250.326438 
L 506.986032 250.326438 
L 506.986032 250.150469 
L 510.8099 250.150469 
L 510.8099 250.326438 
L 522.281505 250.385094 
L 522.281505 250.44375 
L 545.224716 250.385094 
L 545.224716 250.44375 
" clip-path="url(#p46e438d2b8)" style="fill: none; stroke: #ff7f0e; stroke-linejoin: miter"/>
   </g>
   <g id="patch_5">
    <path d="M 50.14375 250.44375 
L 50.14375 22.318125 
" style="fill: none; stroke: #000000; stroke-width: 0.8; stroke-linejoin: miter; stroke-linecap: square"/>
   </g>
   <g id="patch_6">
    <path d="M 568.8 250.44375 
L 568.8 22.318125 
" style="fill: none; stroke: #000000; stroke-width: 0.8; stroke-linejoin: miter; stroke-linecap: square"/>
   </g>
   <g id="patch_7">
    <path d="M 50.14375 250.44375 
L 568.8 250.44375 
" style="fill: none; stroke: #000000; stroke-width: 0.8; stroke-linejoin: miter; stroke-linecap: square"/>
   </g>
   <g id="patch_8">
    <path d="M 50.14375 22.318125 
L 568.8 22.318125 
" style="fill: none; stroke: #000000; stroke-width: 0.8; stroke-linejoin: miter; stroke-linecap: square"/>
   </g>
   <g id="text_18">
    <!-- $P_{fa} = $ 1.00e-01 -->
    <g style="fill: #1f77b4" transform="translate(304.905956 225.572662) scale(0.1 -0.1)">
     <defs>
      <path id="DejaVuSans-Oblique-50" d="M 1081 4666 
L 2541 4666 
Q 3178 4666 3512 4369 
Q 3847 4072 3847 3500 
Q 3847 2731 3353 2303 
Q 2859 1875 1966 1875 
L 1172 1875 
L 806 0 
L 172 0 
L 1081 4666 
z
M 1613 4147 
L 1275 2394 
L 2069 2394 
Q 2606 2394 2893 2669 
Q 3181 2944 3181 3456 
Q 3181 3784 2986 3965 
Q 2791 4147 2438 4147 
L 1613 4147 
z
" transform="scale(0.015625)"/>
      <path id="DejaVuSans-Oblique-66" d="M 3059 4863 
L 2969 4384 
L 2419 4384 
Q 2106 4384 1964 4261 
Q 1822 4138 1753 3809 
L 1691 3500 
L 2638 3500 
L 2553 3053 
L 1606 3053 
L 1013 0 
L 434 0 
L 1031 3053 
L 481 3053 
L 563 3500 
L 1113 3500 
L 1159 3744 
Q 1278 4363 1576 4613 
Q 1875 4863 2516 4863 
L 3059 4863 
z
" transform="scale(0.015625)"/>
      <path id="DejaVuSans-Oblique-61" d="M 3438 1997 
L 3047 0 
L 2472 0 
L 2578 531 
Q 2325 219 2001 64 
Q 1678 -91 1281 -91 
Q 834 -91 548 182 
Q 263 456 263 884 
Q 263 1497 752 1853 
Q 1241 2209 2100 2209 
L 2900 2209 
L 2931 2363 
Q 2938 2388 2941 2417 
Q 2944 2447 2944 2509 
Q 2944 2788 2717 2942 
Q 2491 3097 2081 3097 
Q 1800 3097 1504 3025 
Q 1209 2953 897 2809 
L 997 3341 
Q 1322 3463 1633 3523 
Q 1944 3584 2234 3584 
Q 2853 3584 3176 3315 
Q 3500 3047 3500 2534 
Q 3500 2431 3484 2292 
Q 3469 2153 3438 1997 
z
M 2816 1759 
L 2241 1759 
Q 1534 1759 1195 1570 
Q 856 1381 856 984 
Q 856 709 1029 553 
Q 1203 397 1509 397 
Q 1978 397 2328 733 
Q 2678 1069 2791 1631 
L 2816 1759 
z
" transform="scale(0.015625)"/>
      <path id="DejaVuSans-3d" d="M 678 2906 
L 4684 2906 
L 4684 2381 
L 678 2381 
L 678 2906 
z
M 678 1631 
L 4684 1631 
L 4684 1100 
L 678 1100 
L 678 1631 
z
" transform="scale(0.015625)"/>
      <path id="DejaVuSans-2d" d="M 313 2009 
L 1997 2009 
L 1997 1497 
L 313 1497 
L 313 2009 
z
" transform="scale(0.015625)"/>
     </defs>
     <use xlink:href="#DejaVuSans-Oblique-50" transform="translate(0 0.78125)"/>
     <use xlink:href="#DejaVuSans-Oblique-66" transform="translate(60.302734 -15.625) scale(0.7)"/>
     <use xlink:href="#DejaVuSans-Oblique-61" transform="translate(84.946289 -15.625) scale(0.7)"/>
     <use xlink:href="#DejaVuSans-3d" transform="translate(150.058594 0.78125)"/>
     <use xlink:href="#DejaVuSans-20" transform="translate(253.330078 0.78125)"/>
     <use xlink:href="#DejaVuSans-31" transform="translate(285.117188 0.78125)"/>
     <use xlink:href="#DejaVuSans-2e" transform="translate(348.740234 0.78125)"/>
     <use xlink:href="#DejaVuSans-30" transform="translate(380.527344 0.78125)"/>
     <use xlink:href="#DejaVuSans-30" transform="translate(444.150391 0.78125)"/>
     <use xlink:href="#DejaVuSans-65" transform="translate(507.773438 0.78125)"/>
     <use xlink:href="#DejaVuSans-2d" transform="translate(569.296875 0.78125)"/>
     <use xlink:href="#DejaVuSans-30" transform="translate(605.380859 0.78125)"/>
     <use xlink:href="#DejaVuSans-31" transform="translate(669.003906 0.78125)"/>
    </g>
   </g>
   <g id="text_19">
    <!-- $P_{d} = $ 6.90e-01 -->
    <g style="fill: #ff7f0e" transform="translate(328.320068 154.48038) scale(0.1 -0.1)">
     <defs>
      <path id="DejaVuSans-Oblique-64" d="M 2675 525 
Q 2444 222 2128 65 
Q 1813 -91 1428 -91 
Q 903 -91 598 267 
Q 294 625 294 1247 
Q 294 1766 478 2236 
Q 663 2706 1013 3078 
Q 1244 3325 1534 3454 
Q 1825 3584 2144 3584 
Q 2481 3584 2739 3421 
Q 2997 3259 3138 2956 
L 3513 4863 
L 4091 4863 
L 3144 0 
L 2566 0 
L 2675 525 
z
M 891 1350 
Q 891 897 1095 644 
Q 1300 391 1663 391 
Q 1931 391 2161 520 
Q 2391 650 2566 903 
Q 2750 1166 2856 1509 
Q 2963 1853 2963 2188 
Q 2963 2622 2758 2865 
Q 2553 3109 2194 3109 
Q 1922 3109 1687 2981 
Q 1453 2853 1288 2613 
Q 1106 2353 998 2009 
Q 891 1666 891 1350 
z
" transform="scale(0.015625)"/>
      <path id="DejaVuSans-39" d="M 703 97 
L 703 672 
Q 941 559 1184 500 
Q 1428 441 1663 441 
Q 2288 441 2617 861 
Q 2947 1281 2994 2138 
Q 2813 1869 2534 1725 
Q 2256 1581 1919 1581 
Q 1219 1581 811 2004 
Q 403 2428 403 3163 
Q 403 3881 828 4315 
Q 1253 4750 1959 4750 
Q 2769 4750 3195 4129 
Q 3622 3509 3622 2328 
Q 3622 1225 3098 567 
Q 2575 -91 1691 -91 
Q 1453 -91 1209 -44 
Q 966 3 703 97 
z
M 1959 2075 
Q 2384 2075 2632 2365 
Q 2881 2656 2881 3163 
Q 2881 3666 2632 3958 
Q 2384 4250 1959 4250 
Q 1534 4250 1286 3958 
Q 1038 3666 1038 3163 
Q 1038 2656 1286 2365 
Q 1534 2075 1959 2075 
z
" transform="scale(0.015625)"/>
     </defs>
     <use xlink:href="#DejaVuSans-Oblique-50" transform="translate(0 0.78125)"/>
     <use xlink:href="#DejaVuSans-Oblique-64" transform="translate(60.302734 -15.625) scale(0.7)"/>
     <use xlink:href="#DejaVuSans-3d" transform="translate(126.953125 0.78125)"/>
     <use xlink:href="#DejaVuSans-20" transform="translate(230.224609 0.78125)"/>
     <use xlink:href="#DejaVuSans-36" transform="translate(262.011719 0.78125)"/>
     <use xlink:href="#DejaVuSans-2e" transform="translate(325.634766 0.78125)"/>
     <use xlink:href="#DejaVuSans-39" transform="translate(357.421875 0.78125)"/>
     <use xlink:href="#DejaVuSans-30" transform="translate(421.044922 0.78125)"/>
     <use xlink:href="#DejaVuSans-65" transform="translate(484.667969 0.78125)"/>
     <use xlink:href="#DejaVuSans-2d" transform="translate(546.191406 0.78125)"/>
     <use xlink:href="#DejaVuSans-30" transform="translate(582.275391 0.78125)"/>
     <use xlink:href="#DejaVuSans-31" transform="translate(645.898438 0.78125)"/>
    </g>
   </g>
   <g id="text_20">
    <!-- Coherent Detector: Probability density functions -->
    <g transform="translate(164.900938 16.318125) scale(0.12 -0.12)">
     <defs>
      <path id="DejaVuSans-43" d="M 4122 4306 
L 4122 3641 
Q 3803 3938 3442 4084 
Q 3081 4231 2675 4231 
Q 1875 4231 1450 3742 
Q 1025 3253 1025 2328 
Q 1025 1406 1450 917 
Q 1875 428 2675 428 
Q 3081 428 3442 575 
Q 3803 722 4122 1019 
L 4122 359 
Q 3791 134 3420 21 
Q 3050 -91 2638 -91 
Q 1578 -91 968 557 
Q 359 1206 359 2328 
Q 359 3453 968 4101 
Q 1578 4750 2638 4750 
Q 3056 4750 3426 4639 
Q 3797 4528 4122 4306 
z
" transform="scale(0.015625)"/>
      <path id="DejaVuSans-68" d="M 3513 2113 
L 3513 0 
L 2938 0 
L 2938 2094 
Q 2938 2591 2744 2837 
Q 2550 3084 2163 3084 
Q 1697 3084 1428 2787 
Q 1159 2491 1159 1978 
L 1159 0 
L 581 0 
L 581 4863 
L 1159 4863 
L 1159 2956 
Q 1366 3272 1645 3428 
Q 1925 3584 2291 3584 
Q 2894 3584 3203 3211 
Q 3513 2838 3513 2113 
z
" transform="scale(0.015625)"/>
      <path id="DejaVuSans-44" d="M 1259 4147 
L 1259 519 
L 2022 519 
Q 2988 519 3436 956 
Q 3884 1394 3884 2338 
Q 3884 3275 3436 3711 
Q 2988 4147 2022 4147 
L 1259 4147 
z
M 628 4666 
L 1925 4666 
Q 3281 4666 3915 4102 
Q 4550 3538 4550 2338 
Q 4550 1131 3912 565 
Q 3275 0 1925 0 
L 628 0 
L 628 4666 
z
" transform="scale(0.015625)"/>
      <path id="DejaVuSans-3a" d="M 750 794 
L 1409 794 
L 1409 0 
L 750 0 
L 750 794 
z
M 750 3309 
L 1409 3309 
L 1409 2516 
L 750 2516 
L 750 3309 
z
" transform="scale(0.015625)"/>
      <path id="DejaVuSans-66" d="M 2375 4863 
L 2375 4384 
L 1825 4384 
Q 1516 4384 1395 4259 
Q 1275 4134 1275 3809 
L 1275 3500 
L 2222 3500 
L 2222 3053 
L 1275 3053 
L 1275 0 
L 697 0 
L 697 3053 
L 147 3053 
L 147 3500 
L 697 3500 
L 697 3744 
Q 697 4328 969 4595 
Q 1241 4863 1831 4863 
L 2375 4863 
z
" transform="scale(0.015625)"/>
      <path id="DejaVuSans-75" d="M 544 1381 
L 544 3500 
L 1119 3500 
L 1119 1403 
Q 1119 906 1312 657 
Q 1506 409 1894 409 
Q 2359 409 2629 706 
Q 2900 1003 2900 1516 
L 2900 3500 
L 3475 3500 
L 3475 0 
L 2900 0 
L 2900 538 
Q 2691 219 2414 64 
Q 2138 -91 1772 -91 
Q 1169 -91 856 284 
Q 544 659 544 1381 
z
M 1991 3584 
L 1991 3584 
z
" transform="scale(0.015625)"/>
     </defs>
     <use xlink:href="#DejaVuSans-43"/>
     <use xlink:href="#DejaVuSans-6f" transform="translate(69.824219 0)"/>
     <use xlink:href="#DejaVuSans-68" transform="translate(131.005859 0)"/>
     <use xlink:href="#DejaVuSans-65" transform="translate(194.384766 0)"/>
     <use xlink:href="#DejaVuSans-72" transform="translate(255.908203 0)"/>
     <use xlink:href="#DejaVuSans-65" transform="translate(294.771484 0)"/>
     <use xlink:href="#DejaVuSans-6e" transform="translate(356.294922 0)"/>
     <use xlink:href="#DejaVuSans-74" transform="translate(419.673828 0)"/>
     <use xlink:href="#DejaVuSans-20" transform="translate(458.882812 0)"/>
     <use xlink:href="#DejaVuSans-44" transform="translate(490.669922 0)"/>
     <use xlink:href="#DejaVuSans-65" transform="translate(567.671875 0)"/>
     <use xlink:href="#DejaVuSans-74" transform="translate(629.195312 0)"/>
     <use xlink:href="#DejaVuSans-65" transform="translate(668.404297 0)"/>
     <use xlink:href="#DejaVuSans-63" transform="translate(729.927734 0)"/>
     <use xlink:href="#DejaVuSans-74" transform="translate(784.908203 0)"/>
     <use xlink:href="#DejaVuSans-6f" transform="translate(824.117188 0)"/>
     <use xlink:href="#DejaVuSans-72" transform="translate(885.298828 0)"/>
     <use xlink:href="#DejaVuSans-3a" transform="translate(924.662109 0)"/>
     <use xlink:href="#DejaVuSans-20" transform="translate(958.353516 0)"/>
     <use xlink:href="#DejaVuSans-50" transform="translate(990.140625 0)"/>
     <use xlink:href="#DejaVuSans-72" transform="translate(1048.693359 0)"/>
     <use xlink:href="#DejaVuSans-6f" transform="translate(1087.556641 0)"/>
     <use xlink:href="#DejaVuSans-62" transform="translate(1148.738281 0)"/>
     <use xlink:href="#DejaVuSans-61" transform="translate(1212.214844 0)"/>
     <use xlink:href="#DejaVuSans-62" transform="translate(1273.494141 0)"/>
     <use xlink:href="#DejaVuSans-69" transform="translate(1336.970703 0)"/>
     <use xlink:href="#DejaVuSans-6c" transform="translate(1364.753906 0)"/>
     <use xlink:href="#DejaVuSans-69" transform="translate(1392.537109 0)"/>
     <use xlink:href="#DejaVuSans-74" transform="translate(1420.320312 0)"/>
     <use xlink:href="#DejaVuSans-79" transform="translate(1459.529297 0)"/>
     <use xlink:href="#DejaVuSans-20" transform="translate(1518.708984 0)"/>
     <use xlink:href="#DejaVuSans-64" transform="translate(1550.496094 0)"/>
     <use xlink:href="#DejaVuSans-65" transform="translate(1613.972656 0)"/>
     <use xlink:href="#DejaVuSans-6e" transform="translate(1675.496094 0)"/>
     <use xlink:href="#DejaVuSans-73" transform="translate(1738.875 0)"/>
     <use xlink:href="#DejaVuSans-69" transform="translate(1790.974609 0)"/>
     <use xlink:href="#DejaVuSans-74" transform="translate(1818.757812 0)"/>
     <use xlink:href="#DejaVuSans-79" transform="translate(1857.966797 0)"/>
     <use xlink:href="#DejaVuSans-20" transform="translate(1917.146484 0)"/>
     <use xlink:href="#DejaVuSans-66" transform="translate(1948.933594 0)"/>
     <use xlink:href="#DejaVuSans-75" transform="translate(1984.138672 0)"/>
     <use xlink:href="#DejaVuSans-6e" transform="translate(2047.517578 0)"/>
     <use xlink:href="#DejaVuSans-63" transform="translate(2110.896484 0)"/>
     <use xlink:href="#DejaVuSans-74" transform="translate(2165.876953 0)"/>
     <use xlink:href="#DejaVuSans-69" transform="translate(2205.085938 0)"/>
     <use xlink:href="#DejaVuSans-6f" transform="translate(2232.869141 0)"/>
     <use xlink:href="#DejaVuSans-6e" transform="translate(2294.050781 0)"/>
     <use xlink:href="#DejaVuSans-73" transform="translate(2357.429688 0)"/>
    </g>
   </g>
   <g id="legend_1">
    <g id="patch_9">
     <path d="M 436.9 74.374375 
L 561.8 74.374375 
Q 563.8 74.374375 563.8 72.374375 
L 563.8 29.318125 
Q 563.8 27.318125 561.8 27.318125 
L 436.9 27.318125 
Q 434.9 27.318125 434.9 29.318125 
L 434.9 72.374375 
Q 434.9 74.374375 436.9 74.374375 
z
" style="fill: #ffffff; opacity: 0.8; stroke: #cccccc; stroke-linejoin: miter"/>
    </g>
    <g id="line2d_34">
     <path d="M 438.9 35.416562 
L 448.9 35.416562 
L 458.9 35.416562 
" style="fill: none; stroke: #1f77b4; stroke-linecap: square"/>
    </g>
    <g id="text_21">
     <!-- $\mathcal{H}_0$: Noise -->
     <g transform="translate(466.9 38.916562) scale(0.1 -0.1)">
      <defs>
       <path id="STIXNonUnicode-Italic-e234" d="M 5408 4237 
L 5344 4083 
Q 5152 4083 5075 3964 
Q 4998 3846 4902 3494 
L 4134 762 
Q 4090 614 4090 429 
Q 4090 166 4435 166 
Q 4659 166 4838 339 
L 4934 218 
Q 4787 51 4531 -41 
Q 4275 -134 4051 -134 
Q 3802 -134 3587 -3 
Q 3373 128 3373 403 
Q 3373 525 3405 627 
L 3859 2240 
Q 3674 2157 3667 2157 
L 2016 2157 
L 1581 595 
Q 1472 218 1209 109 
Q 947 0 371 0 
L 435 154 
Q 634 173 739 294 
Q 845 416 934 717 
L 1542 2899 
Q 1562 2957 1638 3280 
Q 1715 3603 1715 3674 
Q 1715 3789 1664 3840 
Q 1613 3891 1466 3891 
Q 922 3891 365 3411 
L 262 3526 
Q 518 3821 966 4035 
Q 1414 4250 1978 4250 
Q 2221 4250 2329 4131 
Q 2438 4013 2438 3770 
Q 2438 3584 2304 3117 
L 2074 2330 
Q 2106 2336 2170 2374 
Q 2234 2413 2266 2413 
L 3910 2413 
L 4269 3654 
Q 4384 4051 4605 4144 
Q 4826 4237 5408 4237 
z
" transform="scale(0.015625)"/>
       <path id="DejaVuSans-4e" d="M 628 4666 
L 1478 4666 
L 3547 763 
L 3547 4666 
L 4159 4666 
L 4159 0 
L 3309 0 
L 1241 3903 
L 1241 0 
L 628 0 
L 628 4666 
z
" transform="scale(0.015625)"/>
      </defs>
      <use xlink:href="#STIXNonUnicode-Italic-e234" transform="translate(0 0.015625)"/>
      <use xlink:href="#DejaVuSans-30" transform="translate(84.057022 -16.390625) scale(0.7)"/>
      <use xlink:href="#DejaVuSans-3a" transform="translate(131.32753 0.015625)"/>
      <use xlink:href="#DejaVuSans-20" transform="translate(165.018936 0.015625)"/>
      <use xlink:href="#DejaVuSans-4e" transform="translate(196.806046 0.015625)"/>
      <use xlink:href="#DejaVuSans-6f" transform="translate(271.610733 0.015625)"/>
      <use xlink:href="#DejaVuSans-69" transform="translate(332.792374 0.015625)"/>
      <use xlink:href="#DejaVuSans-73" transform="translate(360.575577 0.015625)"/>
      <use xlink:href="#DejaVuSans-65" transform="translate(412.675186 0.015625)"/>
     </g>
    </g>
    <g id="line2d_35">
     <path d="M 438.9 50.09625 
L 448.9 50.09625 
L 458.9 50.09625 
" style="fill: none; stroke: #ff7f0e; stroke-linecap: square"/>
    </g>
    <g id="text_22">
     <!-- $\mathcal{H}_1$: Signal + Noise -->
     <g transform="translate(466.9 53.59625) scale(0.1 -0.1)">
      <defs>
       <path id="DejaVuSans-53" d="M 3425 4513 
L 3425 3897 
Q 3066 4069 2747 4153 
Q 2428 4238 2131 4238 
Q 1616 4238 1336 4038 
Q 1056 3838 1056 3469 
Q 1056 3159 1242 3001 
Q 1428 2844 1947 2747 
L 2328 2669 
Q 3034 2534 3370 2195 
Q 3706 1856 3706 1288 
Q 3706 609 3251 259 
Q 2797 -91 1919 -91 
Q 1588 -91 1214 -16 
Q 841 59 441 206 
L 441 856 
Q 825 641 1194 531 
Q 1563 422 1919 422 
Q 2459 422 2753 634 
Q 3047 847 3047 1241 
Q 3047 1584 2836 1778 
Q 2625 1972 2144 2069 
L 1759 2144 
Q 1053 2284 737 2584 
Q 422 2884 422 3419 
Q 422 4038 858 4394 
Q 1294 4750 2059 4750 
Q 2388 4750 2728 4690 
Q 3069 4631 3425 4513 
z
" transform="scale(0.015625)"/>
       <path id="DejaVuSans-67" d="M 2906 1791 
Q 2906 2416 2648 2759 
Q 2391 3103 1925 3103 
Q 1463 3103 1205 2759 
Q 947 2416 947 1791 
Q 947 1169 1205 825 
Q 1463 481 1925 481 
Q 2391 481 2648 825 
Q 2906 1169 2906 1791 
z
M 3481 434 
Q 3481 -459 3084 -895 
Q 2688 -1331 1869 -1331 
Q 1566 -1331 1297 -1286 
Q 1028 -1241 775 -1147 
L 775 -588 
Q 1028 -725 1275 -790 
Q 1522 -856 1778 -856 
Q 2344 -856 2625 -561 
Q 2906 -266 2906 331 
L 2906 616 
Q 2728 306 2450 153 
Q 2172 0 1784 0 
Q 1141 0 747 490 
Q 353 981 353 1791 
Q 353 2603 747 3093 
Q 1141 3584 1784 3584 
Q 2172 3584 2450 3431 
Q 2728 3278 2906 2969 
L 2906 3500 
L 3481 3500 
L 3481 434 
z
" transform="scale(0.015625)"/>
       <path id="DejaVuSans-2b" d="M 2944 4013 
L 2944 2272 
L 4684 2272 
L 4684 1741 
L 2944 1741 
L 2944 0 
L 2419 0 
L 2419 1741 
L 678 1741 
L 678 2272 
L 2419 2272 
L 2419 4013 
L 2944 4013 
z
" transform="scale(0.015625)"/>
      </defs>
      <use xlink:href="#STIXNonUnicode-Italic-e234" transform="translate(0 0.015625)"/>
      <use xlink:href="#DejaVuSans-31" transform="translate(84.057022 -16.390625) scale(0.7)"/>
      <use xlink:href="#DejaVuSans-3a" transform="translate(131.32753 0.015625)"/>
      <use xlink:href="#DejaVuSans-20" transform="translate(165.018936 0.015625)"/>
      <use xlink:href="#DejaVuSans-53" transform="translate(196.806046 0.015625)"/>
      <use xlink:href="#DejaVuSans-69" transform="translate(260.282608 0.015625)"/>
      <use xlink:href="#DejaVuSans-67" transform="translate(288.065811 0.015625)"/>
      <use xlink:href="#DejaVuSans-6e" transform="translate(351.542374 0.015625)"/>
      <use xlink:href="#DejaVuSans-61" transform="translate(414.92128 0.015625)"/>
      <use xlink:href="#DejaVuSans-6c" transform="translate(476.200577 0.015625)"/>
      <use xlink:href="#DejaVuSans-20" transform="translate(503.98378 0.015625)"/>
      <use xlink:href="#DejaVuSans-2b" transform="translate(535.770889 0.015625)"/>
      <use xlink:href="#DejaVuSans-20" transform="translate(619.559952 0.015625)"/>
      <use xlink:href="#DejaVuSans-4e" transform="translate(651.347061 0.015625)"/>
      <use xlink:href="#DejaVuSans-6f" transform="translate(726.151749 0.015625)"/>
      <use xlink:href="#DejaVuSans-69" transform="translate(787.333389 0.015625)"/>
      <use xlink:href="#DejaVuSans-73" transform="translate(815.116592 0.015625)"/>
      <use xlink:href="#DejaVuSans-65" transform="translate(867.216202 0.015625)"/>
     </g>
    </g>
    <g id="line2d_36">
     <path d="M 438.9 64.794688 
L 448.9 64.794688 
L 458.9 64.794688 
" style="fill: none; stroke-dasharray: 3.7,1.6; stroke-dashoffset: 0; stroke: #000000"/>
    </g>
    <g id="text_23">
     <!-- Threshold -->
     <g transform="translate(466.9 68.294688) scale(0.1 -0.1)">
      <use xlink:href="#DejaVuSans-54"/>
      <use xlink:href="#DejaVuSans-68" transform="translate(61.083984 0)"/>
      <use xlink:href="#DejaVuSans-72" transform="translate(124.462891 0)"/>
      <use xlink:href="#DejaVuSans-65" transform="translate(163.326172 0)"/>
      <use xlink:href="#DejaVuSans-73" transform="translate(224.849609 0)"/>
      <use xlink:href="#DejaVuSans-68" transform="translate(276.949219 0)"/>
      <use xlink:href="#DejaVuSans-6f" transform="translate(340.328125 0)"/>
      <use xlink:href="#DejaVuSans-6c" transform="translate(401.509766 0)"/>
      <use xlink:href="#DejaVuSans-64" transform="translate(429.292969 0)"/>
     </g>
    </g>
   </g>
  </g>
 </g>
 <defs>
  <clipPath id="p46e438d2b8">
   <rect x="50.14375" y="22.318125" width="518.65625" height="228.125625"/>
  </clipPath>
 </defs>
</svg>
