<?xml version="1.0" encoding="utf-8" standalone="no"?>
<!DOCTYPE svg PUBLIC "-//W3C//DTD SVG 1.1//EN"
  "http://www.w3.org/Graphics/SVG/1.1/DTD/svg11.dtd">
<svg xmlns:xlink="http://www.w3.org/1999/xlink" width="576pt" height="288pt" viewBox="0 0 576 288" xmlns="http://www.w3.org/2000/svg" version="1.1">
 <metadata>
  <rdf:RDF xmlns:dc="http://purl.org/dc/elements/1.1/" xmlns:cc="http://creativecommons.org/ns#" xmlns:rdf="http://www.w3.org/1999/02/22-rdf-syntax-ns#">
   <cc:Work>
    <dc:type rdf:resource="http://purl.org/dc/dcmitype/StillImage"/>
    <dc:date>2025-05-12T21:34:28.925543</dc:date>
    <dc:format>image/svg+xml</dc:format>
    <dc:creator>
     <cc:Agent>
      <dc:title>Matplotlib v3.10.3, https://matplotlib.org/</dc:title>
     </cc:Agent>
    </dc:creator>
   </cc:Work>
  </rdf:RDF>
 </metadata>
 <defs>
  <style type="text/css">*{stroke-linejoin: round; stroke-linecap: butt}</style>
 </defs>
 <g id="figure_1">
  <g id="patch_1">
   <path d="M 0 288 
L 576 288 
L 576 0 
L 0 0 
z
" style="fill: #ffffff"/>
  </g>
  <g id="axes_1">
   <g id="patch_2">
    <path d="M 52.160938 250.421875 
L 568.8 250.421875 
L 568.8 7.2 
L 52.160938 7.2 
z
" style="fill: #ffffff"/>
   </g>
   <g id="matplotlib.axis_1">
    <g id="xtick_1">
     <g id="line2d_1">
      <path d="M 75.644531 250.421875 
L 75.644531 7.2 
" clip-path="url(#p893859017e)" style="fill: none; stroke-dasharray: 2.96,1.28; stroke-dashoffset: 0; stroke: #b0b0b0; stroke-opacity: 0.8; stroke-width: 0.8"/>
     </g>
     <g id="line2d_2">
      <defs>
       <path id="mdc781497c4" d="M 0 0 
L 0 3.5 
" style="stroke: #000000; stroke-width: 0.8"/>
      </defs>
      <g>
       <use xlink:href="#mdc781497c4" x="75.644531" y="250.421875" style="stroke: #000000; stroke-width: 0.8"/>
      </g>
     </g>
     <g id="text_1">
      <!-- 0 -->
      <g transform="translate(72.463281 265.020312) scale(0.1 -0.1)">
       <defs>
        <path id="DejaVuSans-30" d="M 2034 4250 
Q 1547 4250 1301 3770 
Q 1056 3291 1056 2328 
Q 1056 1369 1301 889 
Q 1547 409 2034 409 
Q 2525 409 2770 889 
Q 3016 1369 3016 2328 
Q 3016 3291 2770 3770 
Q 2525 4250 2034 4250 
z
M 2034 4750 
Q 2819 4750 3233 4129 
Q 3647 3509 3647 2328 
Q 3647 1150 3233 529 
Q 2819 -91 2034 -91 
Q 1250 -91 836 529 
Q 422 1150 422 2328 
Q 422 3509 836 4129 
Q 1250 4750 2034 4750 
z
" transform="scale(0.015625)"/>
       </defs>
       <use xlink:href="#DejaVuSans-30"/>
      </g>
     </g>
    </g>
    <g id="xtick_2">
     <g id="line2d_3">
      <path d="M 134.500656 250.421875 
L 134.500656 7.2 
" clip-path="url(#p893859017e)" style="fill: none; stroke-dasharray: 2.96,1.28; stroke-dashoffset: 0; stroke: #b0b0b0; stroke-opacity: 0.8; stroke-width: 0.8"/>
     </g>
     <g id="line2d_4">
      <g>
       <use xlink:href="#mdc781497c4" x="134.500656" y="250.421875" style="stroke: #000000; stroke-width: 0.8"/>
      </g>
     </g>
     <g id="text_2">
      <!-- 50 -->
      <g transform="translate(128.138156 265.020312) scale(0.1 -0.1)">
       <defs>
        <path id="DejaVuSans-35" d="M 691 4666 
L 3169 4666 
L 3169 4134 
L 1269 4134 
L 1269 2991 
Q 1406 3038 1543 3061 
Q 1681 3084 1819 3084 
Q 2600 3084 3056 2656 
Q 3513 2228 3513 1497 
Q 3513 744 3044 326 
Q 2575 -91 1722 -91 
Q 1428 -91 1123 -41 
Q 819 9 494 109 
L 494 744 
Q 775 591 1075 516 
Q 1375 441 1709 441 
Q 2250 441 2565 725 
Q 2881 1009 2881 1497 
Q 2881 1984 2565 2268 
Q 2250 2553 1709 2553 
Q 1456 2553 1204 2497 
Q 953 2441 691 2322 
L 691 4666 
z
" transform="scale(0.015625)"/>
       </defs>
       <use xlink:href="#DejaVuSans-35"/>
       <use xlink:href="#DejaVuSans-30" transform="translate(63.623047 0)"/>
      </g>
     </g>
    </g>
    <g id="xtick_3">
     <g id="line2d_5">
      <path d="M 193.356781 250.421875 
L 193.356781 7.2 
" clip-path="url(#p893859017e)" style="fill: none; stroke-dasharray: 2.96,1.28; stroke-dashoffset: 0; stroke: #b0b0b0; stroke-opacity: 0.8; stroke-width: 0.8"/>
     </g>
     <g id="line2d_6">
      <g>
       <use xlink:href="#mdc781497c4" x="193.356781" y="250.421875" style="stroke: #000000; stroke-width: 0.8"/>
      </g>
     </g>
     <g id="text_3">
      <!-- 100 -->
      <g transform="translate(183.813031 265.020312) scale(0.1 -0.1)">
       <defs>
        <path id="DejaVuSans-31" d="M 794 531 
L 1825 531 
L 1825 4091 
L 703 3866 
L 703 4441 
L 1819 4666 
L 2450 4666 
L 2450 531 
L 3481 531 
L 3481 0 
L 794 0 
L 794 531 
z
" transform="scale(0.015625)"/>
       </defs>
       <use xlink:href="#DejaVuSans-31"/>
       <use xlink:href="#DejaVuSans-30" transform="translate(63.623047 0)"/>
       <use xlink:href="#DejaVuSans-30" transform="translate(127.246094 0)"/>
      </g>
     </g>
    </g>
    <g id="xtick_4">
     <g id="line2d_7">
      <path d="M 252.212905 250.421875 
L 252.212905 7.2 
" clip-path="url(#p893859017e)" style="fill: none; stroke-dasharray: 2.96,1.28; stroke-dashoffset: 0; stroke: #b0b0b0; stroke-opacity: 0.8; stroke-width: 0.8"/>
     </g>
     <g id="line2d_8">
      <g>
       <use xlink:href="#mdc781497c4" x="252.212905" y="250.421875" style="stroke: #000000; stroke-width: 0.8"/>
      </g>
     </g>
     <g id="text_4">
      <!-- 150 -->
      <g transform="translate(242.669155 265.020312) scale(0.1 -0.1)">
       <use xlink:href="#DejaVuSans-31"/>
       <use xlink:href="#DejaVuSans-35" transform="translate(63.623047 0)"/>
       <use xlink:href="#DejaVuSans-30" transform="translate(127.246094 0)"/>
      </g>
     </g>
    </g>
    <g id="xtick_5">
     <g id="line2d_9">
      <path d="M 311.06903 250.421875 
L 311.06903 7.2 
" clip-path="url(#p893859017e)" style="fill: none; stroke-dasharray: 2.96,1.28; stroke-dashoffset: 0; stroke: #b0b0b0; stroke-opacity: 0.8; stroke-width: 0.8"/>
     </g>
     <g id="line2d_10">
      <g>
       <use xlink:href="#mdc781497c4" x="311.06903" y="250.421875" style="stroke: #000000; stroke-width: 0.8"/>
      </g>
     </g>
     <g id="text_5">
      <!-- 200 -->
      <g transform="translate(301.52528 265.020312) scale(0.1 -0.1)">
       <defs>
        <path id="DejaVuSans-32" d="M 1228 531 
L 3431 531 
L 3431 0 
L 469 0 
L 469 531 
Q 828 903 1448 1529 
Q 2069 2156 2228 2338 
Q 2531 2678 2651 2914 
Q 2772 3150 2772 3378 
Q 2772 3750 2511 3984 
Q 2250 4219 1831 4219 
Q 1534 4219 1204 4116 
Q 875 4013 500 3803 
L 500 4441 
Q 881 4594 1212 4672 
Q 1544 4750 1819 4750 
Q 2544 4750 2975 4387 
Q 3406 4025 3406 3419 
Q 3406 3131 3298 2873 
Q 3191 2616 2906 2266 
Q 2828 2175 2409 1742 
Q 1991 1309 1228 531 
z
" transform="scale(0.015625)"/>
       </defs>
       <use xlink:href="#DejaVuSans-32"/>
       <use xlink:href="#DejaVuSans-30" transform="translate(63.623047 0)"/>
       <use xlink:href="#DejaVuSans-30" transform="translate(127.246094 0)"/>
      </g>
     </g>
    </g>
    <g id="xtick_6">
     <g id="line2d_11">
      <path d="M 369.925155 250.421875 
L 369.925155 7.2 
" clip-path="url(#p893859017e)" style="fill: none; stroke-dasharray: 2.96,1.28; stroke-dashoffset: 0; stroke: #b0b0b0; stroke-opacity: 0.8; stroke-width: 0.8"/>
     </g>
     <g id="line2d_12">
      <g>
       <use xlink:href="#mdc781497c4" x="369.925155" y="250.421875" style="stroke: #000000; stroke-width: 0.8"/>
      </g>
     </g>
     <g id="text_6">
      <!-- 250 -->
      <g transform="translate(360.381405 265.020312) scale(0.1 -0.1)">
       <use xlink:href="#DejaVuSans-32"/>
       <use xlink:href="#DejaVuSans-35" transform="translate(63.623047 0)"/>
       <use xlink:href="#DejaVuSans-30" transform="translate(127.246094 0)"/>
      </g>
     </g>
    </g>
    <g id="xtick_7">
     <g id="line2d_13">
      <path d="M 428.781279 250.421875 
L 428.781279 7.2 
" clip-path="url(#p893859017e)" style="fill: none; stroke-dasharray: 2.96,1.28; stroke-dashoffset: 0; stroke: #b0b0b0; stroke-opacity: 0.8; stroke-width: 0.8"/>
     </g>
     <g id="line2d_14">
      <g>
       <use xlink:href="#mdc781497c4" x="428.781279" y="250.421875" style="stroke: #000000; stroke-width: 0.8"/>
      </g>
     </g>
     <g id="text_7">
      <!-- 300 -->
      <g transform="translate(419.237529 265.020312) scale(0.1 -0.1)">
       <defs>
        <path id="DejaVuSans-33" d="M 2597 2516 
Q 3050 2419 3304 2112 
Q 3559 1806 3559 1356 
Q 3559 666 3084 287 
Q 2609 -91 1734 -91 
Q 1441 -91 1130 -33 
Q 819 25 488 141 
L 488 750 
Q 750 597 1062 519 
Q 1375 441 1716 441 
Q 2309 441 2620 675 
Q 2931 909 2931 1356 
Q 2931 1769 2642 2001 
Q 2353 2234 1838 2234 
L 1294 2234 
L 1294 2753 
L 1863 2753 
Q 2328 2753 2575 2939 
Q 2822 3125 2822 3475 
Q 2822 3834 2567 4026 
Q 2313 4219 1838 4219 
Q 1578 4219 1281 4162 
Q 984 4106 628 3988 
L 628 4550 
Q 988 4650 1302 4700 
Q 1616 4750 1894 4750 
Q 2613 4750 3031 4423 
Q 3450 4097 3450 3541 
Q 3450 3153 3228 2886 
Q 3006 2619 2597 2516 
z
" transform="scale(0.015625)"/>
       </defs>
       <use xlink:href="#DejaVuSans-33"/>
       <use xlink:href="#DejaVuSans-30" transform="translate(63.623047 0)"/>
       <use xlink:href="#DejaVuSans-30" transform="translate(127.246094 0)"/>
      </g>
     </g>
    </g>
    <g id="xtick_8">
     <g id="line2d_15">
      <path d="M 487.637404 250.421875 
L 487.637404 7.2 
" clip-path="url(#p893859017e)" style="fill: none; stroke-dasharray: 2.96,1.28; stroke-dashoffset: 0; stroke: #b0b0b0; stroke-opacity: 0.8; stroke-width: 0.8"/>
     </g>
     <g id="line2d_16">
      <g>
       <use xlink:href="#mdc781497c4" x="487.637404" y="250.421875" style="stroke: #000000; stroke-width: 0.8"/>
      </g>
     </g>
     <g id="text_8">
      <!-- 350 -->
      <g transform="translate(478.093654 265.020312) scale(0.1 -0.1)">
       <use xlink:href="#DejaVuSans-33"/>
       <use xlink:href="#DejaVuSans-35" transform="translate(63.623047 0)"/>
       <use xlink:href="#DejaVuSans-30" transform="translate(127.246094 0)"/>
      </g>
     </g>
    </g>
    <g id="xtick_9">
     <g id="line2d_17">
      <path d="M 546.493529 250.421875 
L 546.493529 7.2 
" clip-path="url(#p893859017e)" style="fill: none; stroke-dasharray: 2.96,1.28; stroke-dashoffset: 0; stroke: #b0b0b0; stroke-opacity: 0.8; stroke-width: 0.8"/>
     </g>
     <g id="line2d_18">
      <g>
       <use xlink:href="#mdc781497c4" x="546.493529" y="250.421875" style="stroke: #000000; stroke-width: 0.8"/>
      </g>
     </g>
     <g id="text_9">
      <!-- 400 -->
      <g transform="translate(536.949779 265.020312) scale(0.1 -0.1)">
       <defs>
        <path id="DejaVuSans-34" d="M 2419 4116 
L 825 1625 
L 2419 1625 
L 2419 4116 
z
M 2253 4666 
L 3047 4666 
L 3047 1625 
L 3713 1625 
L 3713 1100 
L 3047 1100 
L 3047 0 
L 2419 0 
L 2419 1100 
L 313 1100 
L 313 1709 
L 2253 4666 
z
" transform="scale(0.015625)"/>
       </defs>
       <use xlink:href="#DejaVuSans-34"/>
       <use xlink:href="#DejaVuSans-30" transform="translate(63.623047 0)"/>
       <use xlink:href="#DejaVuSans-30" transform="translate(127.246094 0)"/>
      </g>
     </g>
    </g>
    <g id="text_10">
     <!-- Sample, $n$ -->
     <g transform="translate(285.380469 278.7) scale(0.1 -0.1)">
      <defs>
       <path id="DejaVuSans-53" d="M 3425 4513 
L 3425 3897 
Q 3066 4069 2747 4153 
Q 2428 4238 2131 4238 
Q 1616 4238 1336 4038 
Q 1056 3838 1056 3469 
Q 1056 3159 1242 3001 
Q 1428 2844 1947 2747 
L 2328 2669 
Q 3034 2534 3370 2195 
Q 3706 1856 3706 1288 
Q 3706 609 3251 259 
Q 2797 -91 1919 -91 
Q 1588 -91 1214 -16 
Q 841 59 441 206 
L 441 856 
Q 825 641 1194 531 
Q 1563 422 1919 422 
Q 2459 422 2753 634 
Q 3047 847 3047 1241 
Q 3047 1584 2836 1778 
Q 2625 1972 2144 2069 
L 1759 2144 
Q 1053 2284 737 2584 
Q 422 2884 422 3419 
Q 422 4038 858 4394 
Q 1294 4750 2059 4750 
Q 2388 4750 2728 4690 
Q 3069 4631 3425 4513 
z
" transform="scale(0.015625)"/>
       <path id="DejaVuSans-61" d="M 2194 1759 
Q 1497 1759 1228 1600 
Q 959 1441 959 1056 
Q 959 750 1161 570 
Q 1363 391 1709 391 
Q 2188 391 2477 730 
Q 2766 1069 2766 1631 
L 2766 1759 
L 2194 1759 
z
M 3341 1997 
L 3341 0 
L 2766 0 
L 2766 531 
Q 2569 213 2275 61 
Q 1981 -91 1556 -91 
Q 1019 -91 701 211 
Q 384 513 384 1019 
Q 384 1609 779 1909 
Q 1175 2209 1959 2209 
L 2766 2209 
L 2766 2266 
Q 2766 2663 2505 2880 
Q 2244 3097 1772 3097 
Q 1472 3097 1187 3025 
Q 903 2953 641 2809 
L 641 3341 
Q 956 3463 1253 3523 
Q 1550 3584 1831 3584 
Q 2591 3584 2966 3190 
Q 3341 2797 3341 1997 
z
" transform="scale(0.015625)"/>
       <path id="DejaVuSans-6d" d="M 3328 2828 
Q 3544 3216 3844 3400 
Q 4144 3584 4550 3584 
Q 5097 3584 5394 3201 
Q 5691 2819 5691 2113 
L 5691 0 
L 5113 0 
L 5113 2094 
Q 5113 2597 4934 2840 
Q 4756 3084 4391 3084 
Q 3944 3084 3684 2787 
Q 3425 2491 3425 1978 
L 3425 0 
L 2847 0 
L 2847 2094 
Q 2847 2600 2669 2842 
Q 2491 3084 2119 3084 
Q 1678 3084 1418 2786 
Q 1159 2488 1159 1978 
L 1159 0 
L 581 0 
L 581 3500 
L 1159 3500 
L 1159 2956 
Q 1356 3278 1631 3431 
Q 1906 3584 2284 3584 
Q 2666 3584 2933 3390 
Q 3200 3197 3328 2828 
z
" transform="scale(0.015625)"/>
       <path id="DejaVuSans-70" d="M 1159 525 
L 1159 -1331 
L 581 -1331 
L 581 3500 
L 1159 3500 
L 1159 2969 
Q 1341 3281 1617 3432 
Q 1894 3584 2278 3584 
Q 2916 3584 3314 3078 
Q 3713 2572 3713 1747 
Q 3713 922 3314 415 
Q 2916 -91 2278 -91 
Q 1894 -91 1617 61 
Q 1341 213 1159 525 
z
M 3116 1747 
Q 3116 2381 2855 2742 
Q 2594 3103 2138 3103 
Q 1681 3103 1420 2742 
Q 1159 2381 1159 1747 
Q 1159 1113 1420 752 
Q 1681 391 2138 391 
Q 2594 391 2855 752 
Q 3116 1113 3116 1747 
z
" transform="scale(0.015625)"/>
       <path id="DejaVuSans-6c" d="M 603 4863 
L 1178 4863 
L 1178 0 
L 603 0 
L 603 4863 
z
" transform="scale(0.015625)"/>
       <path id="DejaVuSans-65" d="M 3597 1894 
L 3597 1613 
L 953 1613 
Q 991 1019 1311 708 
Q 1631 397 2203 397 
Q 2534 397 2845 478 
Q 3156 559 3463 722 
L 3463 178 
Q 3153 47 2828 -22 
Q 2503 -91 2169 -91 
Q 1331 -91 842 396 
Q 353 884 353 1716 
Q 353 2575 817 3079 
Q 1281 3584 2069 3584 
Q 2775 3584 3186 3129 
Q 3597 2675 3597 1894 
z
M 3022 2063 
Q 3016 2534 2758 2815 
Q 2500 3097 2075 3097 
Q 1594 3097 1305 2825 
Q 1016 2553 972 2059 
L 3022 2063 
z
" transform="scale(0.015625)"/>
       <path id="DejaVuSans-2c" d="M 750 794 
L 1409 794 
L 1409 256 
L 897 -744 
L 494 -744 
L 750 256 
L 750 794 
z
" transform="scale(0.015625)"/>
       <path id="DejaVuSans-20" transform="scale(0.015625)"/>
       <path id="DejaVuSans-Oblique-6e" d="M 3566 2113 
L 3156 0 
L 2578 0 
L 2988 2091 
Q 3016 2238 3031 2350 
Q 3047 2463 3047 2528 
Q 3047 2791 2881 2937 
Q 2716 3084 2419 3084 
Q 1956 3084 1622 2776 
Q 1288 2469 1184 1941 
L 800 0 
L 225 0 
L 903 3500 
L 1478 3500 
L 1363 2950 
Q 1603 3253 1940 3418 
Q 2278 3584 2650 3584 
Q 3113 3584 3367 3334 
Q 3622 3084 3622 2631 
Q 3622 2519 3608 2391 
Q 3594 2263 3566 2113 
z
" transform="scale(0.015625)"/>
      </defs>
      <use xlink:href="#DejaVuSans-53" transform="translate(0 0.015625)"/>
      <use xlink:href="#DejaVuSans-61" transform="translate(63.476562 0.015625)"/>
      <use xlink:href="#DejaVuSans-6d" transform="translate(124.755859 0.015625)"/>
      <use xlink:href="#DejaVuSans-70" transform="translate(222.167969 0.015625)"/>
      <use xlink:href="#DejaVuSans-6c" transform="translate(285.644531 0.015625)"/>
      <use xlink:href="#DejaVuSans-65" transform="translate(313.427734 0.015625)"/>
      <use xlink:href="#DejaVuSans-2c" transform="translate(374.951172 0.015625)"/>
      <use xlink:href="#DejaVuSans-20" transform="translate(406.738281 0.015625)"/>
      <use xlink:href="#DejaVuSans-Oblique-6e" transform="translate(438.525391 0.015625)"/>
     </g>
    </g>
   </g>
   <g id="matplotlib.axis_2">
    <g id="ytick_1">
     <g id="line2d_19">
      <path d="M 52.160938 234.404483 
L 568.8 234.404483 
" clip-path="url(#p893859017e)" style="fill: none; stroke-dasharray: 2.96,1.28; stroke-dashoffset: 0; stroke: #b0b0b0; stroke-opacity: 0.8; stroke-width: 0.8"/>
     </g>
     <g id="line2d_20">
      <defs>
       <path id="m9981e11961" d="M 0 0 
L -3.5 0 
" style="stroke: #000000; stroke-width: 0.8"/>
      </defs>
      <g>
       <use xlink:href="#m9981e11961" x="52.160938" y="234.404483" style="stroke: #000000; stroke-width: 0.8"/>
      </g>
     </g>
     <g id="text_11">
      <!-- −0.4 -->
      <g transform="translate(20.878125 238.203701) scale(0.1 -0.1)">
       <defs>
        <path id="DejaVuSans-2212" d="M 678 2272 
L 4684 2272 
L 4684 1741 
L 678 1741 
L 678 2272 
z
" transform="scale(0.015625)"/>
        <path id="DejaVuSans-2e" d="M 684 794 
L 1344 794 
L 1344 0 
L 684 0 
L 684 794 
z
" transform="scale(0.015625)"/>
       </defs>
       <use xlink:href="#DejaVuSans-2212"/>
       <use xlink:href="#DejaVuSans-30" transform="translate(83.789062 0)"/>
       <use xlink:href="#DejaVuSans-2e" transform="translate(147.412109 0)"/>
       <use xlink:href="#DejaVuSans-34" transform="translate(179.199219 0)"/>
      </g>
     </g>
    </g>
    <g id="ytick_2">
     <g id="line2d_21">
      <path d="M 52.160938 183.486445 
L 568.8 183.486445 
" clip-path="url(#p893859017e)" style="fill: none; stroke-dasharray: 2.96,1.28; stroke-dashoffset: 0; stroke: #b0b0b0; stroke-opacity: 0.8; stroke-width: 0.8"/>
     </g>
     <g id="line2d_22">
      <g>
       <use xlink:href="#m9981e11961" x="52.160938" y="183.486445" style="stroke: #000000; stroke-width: 0.8"/>
      </g>
     </g>
     <g id="text_12">
      <!-- −0.2 -->
      <g transform="translate(20.878125 187.285664) scale(0.1 -0.1)">
       <use xlink:href="#DejaVuSans-2212"/>
       <use xlink:href="#DejaVuSans-30" transform="translate(83.789062 0)"/>
       <use xlink:href="#DejaVuSans-2e" transform="translate(147.412109 0)"/>
       <use xlink:href="#DejaVuSans-32" transform="translate(179.199219 0)"/>
      </g>
     </g>
    </g>
    <g id="ytick_3">
     <g id="line2d_23">
      <path d="M 52.160938 132.568408 
L 568.8 132.568408 
" clip-path="url(#p893859017e)" style="fill: none; stroke-dasharray: 2.96,1.28; stroke-dashoffset: 0; stroke: #b0b0b0; stroke-opacity: 0.8; stroke-width: 0.8"/>
     </g>
     <g id="line2d_24">
      <g>
       <use xlink:href="#m9981e11961" x="52.160938" y="132.568408" style="stroke: #000000; stroke-width: 0.8"/>
      </g>
     </g>
     <g id="text_13">
      <!-- 0.0 -->
      <g transform="translate(29.257812 136.367627) scale(0.1 -0.1)">
       <use xlink:href="#DejaVuSans-30"/>
       <use xlink:href="#DejaVuSans-2e" transform="translate(63.623047 0)"/>
       <use xlink:href="#DejaVuSans-30" transform="translate(95.410156 0)"/>
      </g>
     </g>
    </g>
    <g id="ytick_4">
     <g id="line2d_25">
      <path d="M 52.160938 81.650371 
L 568.8 81.650371 
" clip-path="url(#p893859017e)" style="fill: none; stroke-dasharray: 2.96,1.28; stroke-dashoffset: 0; stroke: #b0b0b0; stroke-opacity: 0.8; stroke-width: 0.8"/>
     </g>
     <g id="line2d_26">
      <g>
       <use xlink:href="#m9981e11961" x="52.160938" y="81.650371" style="stroke: #000000; stroke-width: 0.8"/>
      </g>
     </g>
     <g id="text_14">
      <!-- 0.2 -->
      <g transform="translate(29.257812 85.44959) scale(0.1 -0.1)">
       <use xlink:href="#DejaVuSans-30"/>
       <use xlink:href="#DejaVuSans-2e" transform="translate(63.623047 0)"/>
       <use xlink:href="#DejaVuSans-32" transform="translate(95.410156 0)"/>
      </g>
     </g>
    </g>
    <g id="ytick_5">
     <g id="line2d_27">
      <path d="M 52.160938 30.732334 
L 568.8 30.732334 
" clip-path="url(#p893859017e)" style="fill: none; stroke-dasharray: 2.96,1.28; stroke-dashoffset: 0; stroke: #b0b0b0; stroke-opacity: 0.8; stroke-width: 0.8"/>
     </g>
     <g id="line2d_28">
      <g>
       <use xlink:href="#m9981e11961" x="52.160938" y="30.732334" style="stroke: #000000; stroke-width: 0.8"/>
      </g>
     </g>
     <g id="text_15">
      <!-- 0.4 -->
      <g transform="translate(29.257812 34.531553) scale(0.1 -0.1)">
       <use xlink:href="#DejaVuSans-30"/>
       <use xlink:href="#DejaVuSans-2e" transform="translate(63.623047 0)"/>
       <use xlink:href="#DejaVuSans-34" transform="translate(95.410156 0)"/>
      </g>
     </g>
    </g>
    <g id="text_16">
     <!-- Amplitude -->
     <g transform="translate(14.798437 154.433594) rotate(-90) scale(0.1 -0.1)">
      <defs>
       <path id="DejaVuSans-41" d="M 2188 4044 
L 1331 1722 
L 3047 1722 
L 2188 4044 
z
M 1831 4666 
L 2547 4666 
L 4325 0 
L 3669 0 
L 3244 1197 
L 1141 1197 
L 716 0 
L 50 0 
L 1831 4666 
z
" transform="scale(0.015625)"/>
       <path id="DejaVuSans-69" d="M 603 3500 
L 1178 3500 
L 1178 0 
L 603 0 
L 603 3500 
z
M 603 4863 
L 1178 4863 
L 1178 4134 
L 603 4134 
L 603 4863 
z
" transform="scale(0.015625)"/>
       <path id="DejaVuSans-74" d="M 1172 4494 
L 1172 3500 
L 2356 3500 
L 2356 3053 
L 1172 3053 
L 1172 1153 
Q 1172 725 1289 603 
Q 1406 481 1766 481 
L 2356 481 
L 2356 0 
L 1766 0 
Q 1100 0 847 248 
Q 594 497 594 1153 
L 594 3053 
L 172 3053 
L 172 3500 
L 594 3500 
L 594 4494 
L 1172 4494 
z
" transform="scale(0.015625)"/>
       <path id="DejaVuSans-75" d="M 544 1381 
L 544 3500 
L 1119 3500 
L 1119 1403 
Q 1119 906 1312 657 
Q 1506 409 1894 409 
Q 2359 409 2629 706 
Q 2900 1003 2900 1516 
L 2900 3500 
L 3475 3500 
L 3475 0 
L 2900 0 
L 2900 538 
Q 2691 219 2414 64 
Q 2138 -91 1772 -91 
Q 1169 -91 856 284 
Q 544 659 544 1381 
z
M 1991 3584 
L 1991 3584 
z
" transform="scale(0.015625)"/>
       <path id="DejaVuSans-64" d="M 2906 2969 
L 2906 4863 
L 3481 4863 
L 3481 0 
L 2906 0 
L 2906 525 
Q 2725 213 2448 61 
Q 2172 -91 1784 -91 
Q 1150 -91 751 415 
Q 353 922 353 1747 
Q 353 2572 751 3078 
Q 1150 3584 1784 3584 
Q 2172 3584 2448 3432 
Q 2725 3281 2906 2969 
z
M 947 1747 
Q 947 1113 1208 752 
Q 1469 391 1925 391 
Q 2381 391 2643 752 
Q 2906 1113 2906 1747 
Q 2906 2381 2643 2742 
Q 2381 3103 1925 3103 
Q 1469 3103 1208 2742 
Q 947 2381 947 1747 
z
" transform="scale(0.015625)"/>
      </defs>
      <use xlink:href="#DejaVuSans-41"/>
      <use xlink:href="#DejaVuSans-6d" transform="translate(68.408203 0)"/>
      <use xlink:href="#DejaVuSans-70" transform="translate(165.820312 0)"/>
      <use xlink:href="#DejaVuSans-6c" transform="translate(229.296875 0)"/>
      <use xlink:href="#DejaVuSans-69" transform="translate(257.080078 0)"/>
      <use xlink:href="#DejaVuSans-74" transform="translate(284.863281 0)"/>
      <use xlink:href="#DejaVuSans-75" transform="translate(324.072266 0)"/>
      <use xlink:href="#DejaVuSans-64" transform="translate(387.451172 0)"/>
      <use xlink:href="#DejaVuSans-65" transform="translate(450.927734 0)"/>
     </g>
    </g>
   </g>
   <g id="line2d_29">
    <path d="M 75.644531 134.036757 
L 76.821654 127.850304 
L 77.998776 132.145161 
L 79.175899 133.654632 
L 80.353021 135.630543 
L 81.530144 140.472006 
L 82.707266 140.224874 
L 83.884389 138.476517 
L 85.061511 131.990667 
L 86.238634 133.936814 
L 87.415756 136.576735 
L 88.592879 136.039205 
L 89.770001 130.050239 
L 90.947124 132.111387 
L 92.124246 125.566246 
L 93.301369 122.222841 
L 94.478491 125.155278 
L 95.655614 125.63651 
L 96.832736 137.242476 
L 98.009859 133.004488 
L 99.186981 143.552994 
L 100.364104 141.003412 
L 101.541226 141.569295 
L 102.718349 144.632655 
L 103.895471 136.762241 
L 105.072594 130.873776 
L 106.249716 128.040881 
L 107.426839 122.143922 
L 108.603961 112.13826 
L 109.781084 108.702454 
L 110.958206 116.165302 
L 112.135329 118.92845 
L 113.312451 126.344843 
L 114.489574 135.811144 
L 115.666696 153.689803 
L 116.843819 175.663504 
L 118.020941 184.159623 
L 119.198064 204.77699 
L 120.375186 206.454978 
L 121.552309 216.067599 
L 122.729431 196.541824 
L 125.083676 179.007742 
L 126.260798 158.610608 
L 128.615043 95.441159 
L 132.146411 50.708209 
L 133.323533 67.411263 
L 134.500656 76.12854 
L 135.677778 93.827517 
L 136.854901 113.41134 
L 138.032023 145.428778 
L 139.209146 170.83836 
L 140.386268 186.072042 
L 141.563391 212.851526 
L 142.740513 214.666417 
L 143.917636 216.992591 
L 145.094758 213.294698 
L 146.271881 211.0088 
L 147.449003 195.343558 
L 148.626126 187.183108 
L 149.803248 180.568577 
L 150.980371 184.991152 
L 152.157493 178.460237 
L 153.334616 189.805519 
L 155.688861 215.562511 
L 156.865983 218.318448 
L 158.043106 218.281816 
L 159.220228 218.517381 
L 160.397351 209.882072 
L 161.574473 191.640738 
L 162.751596 171.521172 
L 165.105841 114.039428 
L 166.282963 84.55776 
L 167.460086 68.486216 
L 168.637208 56.890508 
L 169.814331 57.637585 
L 170.991453 66.180016 
L 172.168576 87.386006 
L 173.345698 96.83075 
L 174.522821 122.656167 
L 175.699943 159.016628 
L 176.877066 174.897105 
L 178.054188 194.803104 
L 179.231311 203.56884 
L 180.408433 215.689324 
L 181.585556 195.503064 
L 182.762678 185.666706 
L 183.939801 161.934191 
L 185.116923 130.668729 
L 186.294046 110.884403 
L 187.471168 81.593074 
L 188.648291 57.57751 
L 189.825413 29.700238 
L 191.002536 32.036287 
L 192.179658 22.538051 
L 193.356781 32.361586 
L 194.533903 35.84221 
L 195.711026 54.694159 
L 196.888148 68.169957 
L 199.242393 101.160458 
L 200.419516 111.940655 
L 201.596638 121.557278 
L 202.773761 127.14967 
L 203.950883 145.190089 
L 205.128006 169.242659 
L 207.482251 191.712629 
L 208.659373 204.952352 
L 209.836496 211.895054 
L 211.013618 223.922234 
L 212.190741 226.869899 
L 213.367863 230.799052 
L 214.544986 224.017225 
L 215.722108 223.558246 
L 216.89923 199.442349 
L 218.076353 182.480607 
L 219.253475 167.369162 
L 220.430598 138.292684 
L 221.60772 113.868088 
L 222.784843 91.83373 
L 223.961965 79.758435 
L 225.139088 75.933549 
L 226.31621 67.240897 
L 227.493333 70.743786 
L 228.670455 79.536726 
L 229.847578 89.307185 
L 232.201823 128.216691 
L 234.556068 178.675997 
L 235.73319 199.03723 
L 236.910313 209.692927 
L 238.087435 218.946708 
L 239.264558 232.46265 
L 240.44168 237.826583 
L 241.618803 236.923747 
L 242.795925 223.912722 
L 243.973048 213.57545 
L 245.15017 205.507749 
L 246.327293 179.412262 
L 247.504415 159.076554 
L 248.681538 132.771349 
L 249.85866 116.447101 
L 251.035783 94.537365 
L 252.212905 84.74508 
L 253.390028 81.226759 
L 254.56715 63.777533 
L 255.744273 70.506662 
L 256.921395 54.86251 
L 258.098518 69.38938 
L 259.27564 57.075005 
L 260.452763 66.772498 
L 261.629885 72.986513 
L 262.807008 65.343231 
L 265.161253 74.195959 
L 266.338375 72.519747 
L 267.515498 67.21911 
L 268.69262 59.127555 
L 269.869743 64.943957 
L 271.046865 66.645499 
L 272.223988 70.063989 
L 273.40111 74.971063 
L 274.578233 76.919937 
L 275.755355 85.406539 
L 276.932478 107.180742 
L 278.1096 117.398703 
L 279.286723 135.632498 
L 280.463845 152.109622 
L 282.81809 193.363203 
L 283.995213 213.113893 
L 285.172335 225.169345 
L 286.349458 231.032625 
L 287.52658 239.366335 
L 288.703703 232.651763 
L 292.23507 192.346057 
L 293.412193 178.749796 
L 294.589315 146.996312 
L 295.766438 128.283354 
L 296.94356 103.62887 
L 298.120683 87.536192 
L 299.297805 76.323044 
L 300.474928 71.820605 
L 301.65205 65.004163 
L 302.829173 66.83443 
L 304.006295 82.359662 
L 305.183418 94.731636 
L 307.537663 146.248847 
L 308.714785 166.311267 
L 309.891908 184.26239 
L 311.06903 192.66551 
L 312.246152 213.509351 
L 313.423275 222.15291 
L 314.600397 222.308448 
L 316.954642 211.637135 
L 318.131765 212.233577 
L 319.308887 198.472113 
L 320.48601 196.616042 
L 321.663132 189.211442 
L 322.840255 183.769217 
L 324.017377 190.084654 
L 325.1945 185.663955 
L 326.371622 196.056145 
L 327.548745 198.649265 
L 328.725867 197.810701 
L 329.90299 208.724216 
L 331.080112 201.050056 
L 332.257235 210.306515 
L 333.434357 202.515339 
L 334.61148 198.060854 
L 335.788602 198.019092 
L 338.142847 187.489165 
L 339.31997 189.401366 
L 340.497092 191.762455 
L 341.674215 196.11271 
L 342.851337 197.171009 
L 344.02846 195.523486 
L 346.382705 205.378326 
L 347.559827 202.81282 
L 348.73695 191.616059 
L 349.914072 194.270378 
L 351.091195 195.1233 
L 352.268317 192.059364 
L 353.44544 191.064358 
L 354.622562 189.728893 
L 355.799685 192.594727 
L 356.976807 190.459532 
L 358.15393 191.975361 
L 359.331052 198.429635 
L 360.508175 202.612212 
L 361.685297 208.007443 
L 362.86242 206.778474 
L 364.039542 207.772803 
L 365.216665 207.39728 
L 366.393787 195.068065 
L 367.57091 197.879374 
L 368.748032 186.010066 
L 371.102277 167.973886 
L 372.2794 147.836986 
L 373.456522 125.537792 
L 374.633645 111.120763 
L 375.810767 89.379628 
L 376.98789 69.80387 
L 378.165012 59.523745 
L 379.342135 40.059635 
L 380.519257 38.89142 
L 381.69638 33.179788 
L 382.873502 22.007429 
L 384.050625 33.802521 
L 385.227747 46.782448 
L 386.40487 67.496336 
L 387.581992 84.51685 
L 388.759115 109.583396 
L 389.936237 125.9916 
L 391.11336 143.970639 
L 392.290482 170.845784 
L 393.467605 188.401379 
L 394.644727 203.422073 
L 395.82185 201.163689 
L 396.998972 199.480699 
L 398.176095 190.378747 
L 399.353217 159.463269 
L 400.53034 147.20076 
L 401.707462 120.504298 
L 402.884585 97.144093 
L 404.061707 79.984083 
L 405.238829 67.02304 
L 406.415952 52.605274 
L 407.593074 40.471206 
L 408.770197 39.386516 
L 412.301564 64.858888 
L 413.478687 66.29905 
L 414.655809 75.146569 
L 415.832932 80.914921 
L 417.010054 78.812533 
L 418.187177 78.596462 
L 419.364299 76.975423 
L 420.541422 65.32095 
L 421.718544 56.554448 
L 422.895667 61.893526 
L 424.072789 57.196501 
L 425.249912 54.60416 
L 426.427034 63.886831 
L 427.604157 68.395306 
L 428.781279 80.347917 
L 429.958402 79.829767 
L 431.135524 91.772341 
L 432.312647 90.148921 
L 433.489769 85.148072 
L 434.666892 66.687843 
L 435.844014 62.245736 
L 438.198259 40.659601 
L 439.375382 41.543299 
L 440.552504 34.227203 
L 441.729627 32.100821 
L 442.906749 54.635711 
L 444.083872 74.05912 
L 445.260994 107.274736 
L 446.438117 128.452402 
L 447.615239 163.744738 
L 449.969484 205.403858 
L 451.146607 204.338905 
L 452.323729 211.301077 
L 453.500852 187.026188 
L 454.677974 172.283356 
L 455.855097 152.991297 
L 457.032219 121.928804 
L 460.563587 67.442672 
L 461.740709 52.63236 
L 462.917832 57.039621 
L 464.094954 77.958591 
L 465.272077 101.71526 
L 466.449199 121.097599 
L 467.626322 154.232461 
L 468.803444 180.19997 
L 469.980567 195.158216 
L 471.157689 208.421741 
L 472.334812 212.195243 
L 473.511934 202.897203 
L 474.689057 178.414864 
L 475.866179 168.12841 
L 477.043302 144.78446 
L 479.397547 80.56463 
L 480.574669 57.271267 
L 481.751792 41.218622 
L 482.928914 19.91981 
L 484.106037 24.217315 
L 485.283159 18.25554 
L 486.460282 31.26348 
L 487.637404 48.197853 
L 488.814527 51.135518 
L 489.991649 78.417536 
L 491.168772 91.926131 
L 492.345894 109.794238 
L 495.877262 159.40894 
L 497.054384 163.365598 
L 498.231507 183.567113 
L 499.408629 189.180856 
L 500.585751 198.814693 
L 501.762874 209.935111 
L 502.939996 216.590832 
L 504.117119 206.05307 
L 505.294241 205.136703 
L 506.471364 210.346201 
L 507.648486 212.412486 
L 508.825609 209.061829 
L 510.002731 190.476056 
L 511.179854 190.618678 
L 512.356976 182.130466 
L 513.534099 179.958243 
L 514.711221 177.063753 
L 515.888344 182.757336 
L 517.065466 181.157463 
L 518.242589 182.567592 
L 519.419711 199.918893 
L 520.596834 200.900686 
L 521.773956 220.09859 
L 522.951079 227.945738 
L 524.128201 231.396831 
L 525.305324 231.017982 
L 526.482446 223.601012 
L 530.013814 154.418387 
L 531.190936 138.586602 
L 532.368059 105.240369 
L 533.545181 91.326606 
L 534.722304 71.845536 
L 535.899426 66.953179 
L 537.076549 61.023828 
L 538.253671 64.532221 
L 539.430794 86.551506 
L 540.607916 113.406894 
L 541.785039 127.5369 
L 542.962161 150.601531 
L 544.139284 178.350545 
L 545.316406 193.10573 
L 545.316406 193.10573 
" clip-path="url(#p893859017e)" style="fill: none; stroke: #1f77b4; stroke-linecap: square"/>
   </g>
   <g id="line2d_30">
    <path d="M 75.644531 131.021362 
L 76.821654 134.873644 
L 77.998776 137.918518 
L 79.175899 137.21528 
L 80.353021 130.394959 
L 82.707266 130.637005 
L 83.884389 132.490345 
L 85.061511 124.807674 
L 86.238634 131.092473 
L 87.415756 133.565631 
L 88.592879 138.818134 
L 89.770001 134.324275 
L 90.947124 132.756795 
L 92.124246 140.653896 
L 93.301369 136.116903 
L 94.478491 136.4549 
L 95.655614 123.988848 
L 96.832736 138.426964 
L 98.009859 129.894475 
L 99.186981 125.068004 
L 100.364104 123.912485 
L 101.541226 128.272815 
L 102.718349 124.963209 
L 103.895471 126.987157 
L 105.072594 132.561672 
L 106.249716 134.940199 
L 107.426839 141.161746 
L 108.603961 155.80086 
L 109.781084 147.88591 
L 110.958206 146.340243 
L 112.135329 143.11976 
L 113.312451 137.556255 
L 114.489574 120.783689 
L 116.843819 98.714294 
L 118.020941 80.646051 
L 119.198064 78.468668 
L 120.375186 62.677234 
L 121.552309 67.477132 
L 122.729431 62.176965 
L 123.906553 77.971097 
L 125.083676 85.716024 
L 129.792166 165.372261 
L 130.969288 188.671892 
L 132.146411 201.142805 
L 133.323533 218.694041 
L 134.500656 221.321256 
L 136.854901 212.015159 
L 138.032023 203.434556 
L 139.209146 202.277279 
L 140.386268 195.437379 
L 141.563391 184.739557 
L 142.740513 186.960403 
L 143.917636 183.366286 
L 145.094758 183.920899 
L 146.271881 192.021858 
L 147.449003 191.616338 
L 148.626126 199.692448 
L 149.803248 192.988205 
L 150.980371 203.16702 
L 152.157493 205.390835 
L 153.334616 199.879343 
L 154.511738 197.508997 
L 155.688861 202.475542 
L 156.865983 189.718556 
L 158.043106 181.506268 
L 159.220228 189.301922 
L 160.397351 188.818522 
L 161.574473 188.087936 
L 162.751596 196.281564 
L 163.928718 201.390003 
L 165.105841 216.980097 
L 167.460086 205.129668 
L 168.637208 204.234214 
L 170.991453 184.885077 
L 172.168576 168.379303 
L 173.345698 147.956496 
L 174.522821 130.324169 
L 175.699943 114.593595 
L 176.877066 89.878122 
L 178.054188 78.542166 
L 179.231311 59.782064 
L 180.408433 54.147167 
L 181.585556 53.821158 
L 182.762678 46.203276 
L 183.939801 54.971462 
L 185.116923 60.384731 
L 186.294046 66.365046 
L 188.648291 80.20635 
L 189.825413 80.699872 
L 191.002536 77.672613 
L 192.179658 77.146133 
L 193.356781 74.692872 
L 194.533903 66.652123 
L 195.711026 67.255898 
L 196.888148 57.644307 
L 198.065271 60.477895 
L 199.242393 54.992538 
L 200.419516 66.183115 
L 201.596638 71.926569 
L 202.773761 82.527577 
L 203.950883 80.055326 
L 205.128006 87.08099 
L 206.305128 85.113964 
L 207.482251 78.310503 
L 208.659373 68.788162 
L 209.836496 62.219381 
L 211.013618 53.169897 
L 212.190741 47.360827 
L 213.367863 45.622519 
L 214.544986 42.187644 
L 215.722108 46.738202 
L 216.89923 61.74455 
L 218.076353 74.580009 
L 219.253475 95.016416 
L 220.430598 127.070824 
L 221.60772 154.593647 
L 222.784843 186.765055 
L 223.961965 197.689666 
L 225.139088 207.074399 
L 226.31621 210.744465 
L 228.670455 181.143458 
L 229.847578 158.729802 
L 232.201823 103.795756 
L 233.378945 82.491544 
L 234.556068 63.203106 
L 235.73319 60.915783 
L 236.910313 61.824989 
L 238.087435 66.353025 
L 239.264558 89.559958 
L 240.44168 106.747866 
L 241.618803 139.305187 
L 242.795925 165.455866 
L 243.973048 179.438073 
L 245.15017 208.299614 
L 246.327293 220.607645 
L 247.504415 228.967529 
L 248.681538 227.060606 
L 249.85866 218.827027 
L 251.035783 213.117204 
L 252.212905 202.377339 
L 253.390028 188.444652 
L 254.56715 185.343476 
L 255.744273 178.887859 
L 258.098518 185.026084 
L 259.27564 181.990046 
L 260.452763 200.708333 
L 261.629885 205.43483 
L 262.807008 208.037841 
L 263.98413 209.80614 
L 265.161253 208.702015 
L 267.515498 193.412115 
L 268.69262 189.674977 
L 269.869743 183.722645 
L 271.046865 178.399594 
L 272.223988 178.604231 
L 273.40111 179.156139 
L 274.578233 195.578637 
L 275.755355 198.411631 
L 276.932478 214.160236 
L 278.1096 223.880353 
L 279.286723 231.707932 
L 280.463845 233.122478 
L 281.640968 226.584701 
L 282.81809 207.709812 
L 283.995213 185.159322 
L 285.172335 164.853577 
L 286.349458 133.772307 
L 287.52658 106.995829 
L 288.703703 89.565533 
L 289.880825 77.711838 
L 291.057948 62.399979 
L 292.23507 63.81619 
L 293.412193 72.236767 
L 294.589315 88.385366 
L 295.766438 107.17188 
L 298.120683 150.15462 
L 299.297805 177.161499 
L 300.474928 191.070382 
L 301.65205 203.281292 
L 302.829173 206.382155 
L 304.006295 197.876599 
L 305.183418 181.369039 
L 306.36054 159.986475 
L 307.537663 135.860965 
L 308.714785 101.698446 
L 309.891908 87.565001 
L 311.06903 55.796969 
L 312.246152 39.264883 
L 313.423275 30.559272 
L 314.600397 27.184315 
L 315.77752 35.504389 
L 316.954642 42.117537 
L 318.131765 47.275691 
L 320.48601 75.541293 
L 321.663132 94.904335 
L 322.840255 107.770074 
L 324.017377 123.06855 
L 325.1945 140.030277 
L 326.371622 154.015453 
L 327.548745 169.512393 
L 329.90299 187.010782 
L 331.080112 203.501118 
L 333.434357 222.518658 
L 334.61148 217.015442 
L 335.788602 218.454111 
L 336.965725 217.035449 
L 338.142847 214.218562 
L 339.31997 193.646971 
L 340.497092 181.562856 
L 341.674215 172.800623 
L 342.851337 151.031808 
L 344.02846 134.002022 
L 345.205582 120.602377 
L 347.559827 83.201632 
L 348.73695 66.043642 
L 349.914072 63.272452 
L 351.091195 52.873609 
L 352.268317 48.25329 
L 353.44544 38.638923 
L 354.622562 38.129447 
L 355.799685 41.188827 
L 356.976807 53.335453 
L 358.15393 63.995913 
L 359.331052 82.447436 
L 360.508175 93.736834 
L 364.039542 164.581574 
L 366.393787 196.619434 
L 367.57091 204.369317 
L 368.748032 201.688403 
L 369.925155 202.473365 
L 371.102277 208.005752 
L 372.2794 193.058746 
L 373.456522 191.793557 
L 374.633645 191.759505 
L 375.810767 184.219085 
L 378.165012 193.77945 
L 379.342135 195.174604 
L 380.519257 213.238939 
L 381.69638 209.431322 
L 382.873502 220.799798 
L 384.050625 217.827522 
L 385.227747 218.268019 
L 386.40487 206.60243 
L 387.581992 196.340106 
L 388.759115 170.216249 
L 389.936237 139.068301 
L 391.11336 111.568318 
L 392.290482 95.218595 
L 393.467605 76.061968 
L 394.644727 62.001792 
L 395.82185 59.487758 
L 396.998972 61.24685 
L 399.353217 95.809522 
L 400.53034 119.552781 
L 402.884585 170.726011 
L 404.061707 192.243996 
L 405.238829 202.503538 
L 406.415952 217.229833 
L 407.593074 218.460373 
L 408.770197 218.618309 
L 409.947319 215.864746 
L 411.124442 209.841159 
L 412.301564 203.070171 
L 413.478687 193.091253 
L 414.655809 184.60074 
L 415.832932 196.212266 
L 417.010054 191.151654 
L 418.187177 193.208888 
L 419.364299 195.502884 
L 420.541422 196.494319 
L 421.718544 209.92596 
L 422.895667 202.107808 
L 424.072789 202.972686 
L 425.249912 199.633611 
L 426.427034 178.357116 
L 427.604157 167.075266 
L 428.781279 151.917053 
L 431.135524 106.499555 
L 432.312647 88.566042 
L 433.489769 59.128664 
L 434.666892 51.322563 
L 435.844014 37.903695 
L 437.021137 39.448144 
L 438.198259 28.690618 
L 439.375382 28.290184 
L 441.729627 53.563632 
L 442.906749 73.901774 
L 444.083872 90.361462 
L 445.260994 108.427036 
L 446.438117 136.154781 
L 447.615239 142.72198 
L 448.792362 173.095242 
L 449.969484 187.846371 
L 451.146607 193.784052 
L 452.323729 195.582799 
L 453.500852 195.814654 
L 454.677974 186.956357 
L 455.855097 170.579026 
L 457.032219 139.099139 
L 458.209342 127.161875 
L 459.386464 102.744831 
L 460.563587 80.862933 
L 461.740709 65.543207 
L 462.917832 54.562278 
L 464.094954 38.504417 
L 465.272077 31.884417 
L 466.449199 40.222016 
L 467.626322 37.200384 
L 468.803444 40.236251 
L 469.980567 59.478946 
L 471.157689 75.463699 
L 472.334812 83.894704 
L 473.511934 109.659827 
L 474.689057 118.250384 
L 475.866179 136.488067 
L 477.043302 148.151902 
L 478.220424 169.94406 
L 479.397547 182.314105 
L 480.574669 186.918018 
L 481.751792 203.694937 
L 484.106037 221.549016 
L 485.283159 221.50107 
L 486.460282 222.84855 
L 487.637404 219.681521 
L 488.814527 217.242049 
L 489.991649 198.873622 
L 491.168772 188.004691 
L 492.345894 171.429875 
L 493.523017 147.378357 
L 494.700139 127.892859 
L 495.877262 119.001983 
L 497.054384 98.801183 
L 498.231507 87.254705 
L 499.408629 58.099392 
L 500.585751 64.373736 
L 501.762874 41.570939 
L 502.939996 42.393837 
L 504.117119 37.904488 
L 505.294241 38.35225 
L 506.471364 47.974303 
L 507.648486 55.801631 
L 508.825609 70.955841 
L 510.002731 88.971547 
L 511.179854 99.597034 
L 512.356976 123.963254 
L 513.534099 133.411926 
L 514.711221 161.820205 
L 515.888344 170.62695 
L 517.065466 183.162142 
L 518.242589 192.52103 
L 519.419711 203.531495 
L 520.596834 210.974688 
L 521.773956 216.253682 
L 522.951079 214.085711 
L 524.128201 214.695706 
L 525.305324 208.86395 
L 526.482446 214.222148 
L 527.659569 196.721912 
L 528.836691 199.444958 
L 530.013814 188.825734 
L 531.190936 185.734531 
L 532.368059 178.935069 
L 533.545181 181.14728 
L 534.722304 168.314841 
L 535.899426 179.042193 
L 537.076549 192.223918 
L 538.253671 192.623178 
L 540.607916 221.052668 
L 541.785039 226.11688 
L 542.962161 227.972874 
L 544.139284 223.808899 
L 545.316406 225.680033 
L 545.316406 225.680033 
" clip-path="url(#p893859017e)" style="fill: none; stroke: #ff7f0e; stroke-linecap: square"/>
   </g>
   <g id="patch_3">
    <path d="M 52.160938 250.421875 
L 52.160938 7.2 
" style="fill: none; stroke: #000000; stroke-width: 0.8; stroke-linejoin: miter; stroke-linecap: square"/>
   </g>
   <g id="patch_4">
    <path d="M 568.8 250.421875 
L 568.8 7.2 
" style="fill: none; stroke: #000000; stroke-width: 0.8; stroke-linejoin: miter; stroke-linecap: square"/>
   </g>
   <g id="patch_5">
    <path d="M 52.160937 250.421875 
L 568.8 250.421875 
" style="fill: none; stroke: #000000; stroke-width: 0.8; stroke-linejoin: miter; stroke-linecap: square"/>
   </g>
   <g id="patch_6">
    <path d="M 52.160937 7.2 
L 568.8 7.2 
" style="fill: none; stroke: #000000; stroke-width: 0.8; stroke-linejoin: miter; stroke-linecap: square"/>
   </g>
   <g id="legend_1">
    <g id="patch_7">
     <path d="M 59.160938 44.55625 
L 116.15625 44.55625 
Q 118.15625 44.55625 118.15625 42.55625 
L 118.15625 14.2 
Q 118.15625 12.2 116.15625 12.2 
L 59.160938 12.2 
Q 57.160938 12.2 57.160938 14.2 
L 57.160938 42.55625 
Q 57.160938 44.55625 59.160938 44.55625 
z
" style="fill: #ffffff; opacity: 0.8; stroke: #cccccc; stroke-linejoin: miter"/>
    </g>
    <g id="line2d_31">
     <path d="M 61.160938 20.298437 
L 71.160938 20.298437 
L 81.160938 20.298437 
" style="fill: none; stroke: #1f77b4; stroke-linecap: square"/>
    </g>
    <g id="text_17">
     <!-- real -->
     <g transform="translate(89.160938 23.798437) scale(0.1 -0.1)">
      <defs>
       <path id="DejaVuSans-72" d="M 2631 2963 
Q 2534 3019 2420 3045 
Q 2306 3072 2169 3072 
Q 1681 3072 1420 2755 
Q 1159 2438 1159 1844 
L 1159 0 
L 581 0 
L 581 3500 
L 1159 3500 
L 1159 2956 
Q 1341 3275 1631 3429 
Q 1922 3584 2338 3584 
Q 2397 3584 2469 3576 
Q 2541 3569 2628 3553 
L 2631 2963 
z
" transform="scale(0.015625)"/>
      </defs>
      <use xlink:href="#DejaVuSans-72"/>
      <use xlink:href="#DejaVuSans-65" transform="translate(38.863281 0)"/>
      <use xlink:href="#DejaVuSans-61" transform="translate(100.386719 0)"/>
      <use xlink:href="#DejaVuSans-6c" transform="translate(161.666016 0)"/>
     </g>
    </g>
    <g id="line2d_32">
     <path d="M 61.160938 34.976562 
L 71.160938 34.976562 
L 81.160938 34.976562 
" style="fill: none; stroke: #ff7f0e; stroke-linecap: square"/>
    </g>
    <g id="text_18">
     <!-- imag -->
     <g transform="translate(89.160938 38.476562) scale(0.1 -0.1)">
      <defs>
       <path id="DejaVuSans-67" d="M 2906 1791 
Q 2906 2416 2648 2759 
Q 2391 3103 1925 3103 
Q 1463 3103 1205 2759 
Q 947 2416 947 1791 
Q 947 1169 1205 825 
Q 1463 481 1925 481 
Q 2391 481 2648 825 
Q 2906 1169 2906 1791 
z
M 3481 434 
Q 3481 -459 3084 -895 
Q 2688 -1331 1869 -1331 
Q 1566 -1331 1297 -1286 
Q 1028 -1241 775 -1147 
L 775 -588 
Q 1028 -725 1275 -790 
Q 1522 -856 1778 -856 
Q 2344 -856 2625 -561 
Q 2906 -266 2906 331 
L 2906 616 
Q 2728 306 2450 153 
Q 2172 0 1784 0 
Q 1141 0 747 490 
Q 353 981 353 1791 
Q 353 2603 747 3093 
Q 1141 3584 1784 3584 
Q 2172 3584 2450 3431 
Q 2728 3278 2906 2969 
L 2906 3500 
L 3481 3500 
L 3481 434 
z
" transform="scale(0.015625)"/>
      </defs>
      <use xlink:href="#DejaVuSans-69"/>
      <use xlink:href="#DejaVuSans-6d" transform="translate(27.783203 0)"/>
      <use xlink:href="#DejaVuSans-61" transform="translate(125.195312 0)"/>
      <use xlink:href="#DejaVuSans-67" transform="translate(186.474609 0)"/>
     </g>
    </g>
   </g>
  </g>
 </g>
 <defs>
  <clipPath id="p893859017e">
   <rect x="52.160938" y="7.2" width="516.639063" height="243.221875"/>
  </clipPath>
 </defs>
</svg>
