<?xml version="1.0" encoding="utf-8" standalone="no"?>
<!DOCTYPE svg PUBLIC "-//W3C//DTD SVG 1.1//EN"
  "http://www.w3.org/Graphics/SVG/1.1/DTD/svg11.dtd">
<svg xmlns:xlink="http://www.w3.org/1999/xlink" width="576pt" height="288pt" viewBox="0 0 576 288" xmlns="http://www.w3.org/2000/svg" version="1.1">
 <metadata>
  <rdf:RDF xmlns:dc="http://purl.org/dc/elements/1.1/" xmlns:cc="http://creativecommons.org/ns#" xmlns:rdf="http://www.w3.org/1999/02/22-rdf-syntax-ns#">
   <cc:Work>
    <dc:type rdf:resource="http://purl.org/dc/dcmitype/StillImage"/>
    <dc:date>2025-11-10T13:31:14.314744</dc:date>
    <dc:format>image/svg+xml</dc:format>
    <dc:creator>
     <cc:Agent>
      <dc:title>Matplotlib v3.10.7, https://matplotlib.org/</dc:title>
     </cc:Agent>
    </dc:creator>
   </cc:Work>
  </rdf:RDF>
 </metadata>
 <defs>
  <style type="text/css">*{stroke-linejoin: round; stroke-linecap: butt}</style>
 </defs>
 <g id="figure_1">
  <g id="patch_1">
   <path d="M 0 288 
L 576 288 
L 576 0 
L 0 0 
z
" style="fill: #ffffff"/>
  </g>
  <g id="axes_1">
   <g id="patch_2">
    <path d="M 48.982813 250.421875 
L 568.8 250.421875 
L 568.8 22.32 
L 48.982813 22.32 
z
" style="fill: #ffffff"/>
   </g>
   <g id="matplotlib.axis_1">
    <g id="xtick_1">
     <g id="line2d_1">
      <path d="M 72.610866 250.421875 
L 72.610866 22.32 
" clip-path="url(#pe9a41b86a6)" style="fill: none; stroke-dasharray: 2.96,1.28; stroke-dashoffset: 0; stroke: #b0b0b0; stroke-opacity: 0.8; stroke-width: 0.8"/>
     </g>
     <g id="line2d_2">
      <defs>
       <path id="m78ef0ac718" d="M 0 0 
L 0 3.5 
" style="stroke: #000000; stroke-width: 0.8"/>
      </defs>
      <g>
       <use xlink:href="#m78ef0ac718" x="72.610866" y="250.421875" style="stroke: #000000; stroke-width: 0.8"/>
      </g>
     </g>
     <g id="text_1">
      <!-- 0 -->
      <g transform="translate(69.429616 265.020312) scale(0.1 -0.1)">
       <defs>
        <path id="DejaVuSans-30" d="M 2034 4250 
Q 1547 4250 1301 3770 
Q 1056 3291 1056 2328 
Q 1056 1369 1301 889 
Q 1547 409 2034 409 
Q 2525 409 2770 889 
Q 3016 1369 3016 2328 
Q 3016 3291 2770 3770 
Q 2525 4250 2034 4250 
z
M 2034 4750 
Q 2819 4750 3233 4129 
Q 3647 3509 3647 2328 
Q 3647 1150 3233 529 
Q 2819 -91 2034 -91 
Q 1250 -91 836 529 
Q 422 1150 422 2328 
Q 422 3509 836 4129 
Q 1250 4750 2034 4750 
z
" transform="scale(0.015625)"/>
       </defs>
       <use xlink:href="#DejaVuSans-30"/>
      </g>
     </g>
    </g>
    <g id="xtick_2">
     <g id="line2d_3">
      <path d="M 167.123082 250.421875 
L 167.123082 22.32 
" clip-path="url(#pe9a41b86a6)" style="fill: none; stroke-dasharray: 2.96,1.28; stroke-dashoffset: 0; stroke: #b0b0b0; stroke-opacity: 0.8; stroke-width: 0.8"/>
     </g>
     <g id="line2d_4">
      <g>
       <use xlink:href="#m78ef0ac718" x="167.123082" y="250.421875" style="stroke: #000000; stroke-width: 0.8"/>
      </g>
     </g>
     <g id="text_2">
      <!-- 100 -->
      <g transform="translate(157.579332 265.020312) scale(0.1 -0.1)">
       <defs>
        <path id="DejaVuSans-31" d="M 794 531 
L 1825 531 
L 1825 4091 
L 703 3866 
L 703 4441 
L 1819 4666 
L 2450 4666 
L 2450 531 
L 3481 531 
L 3481 0 
L 794 0 
L 794 531 
z
" transform="scale(0.015625)"/>
       </defs>
       <use xlink:href="#DejaVuSans-31"/>
       <use xlink:href="#DejaVuSans-30" transform="translate(63.623047 0)"/>
       <use xlink:href="#DejaVuSans-30" transform="translate(127.246094 0)"/>
      </g>
     </g>
    </g>
    <g id="xtick_3">
     <g id="line2d_5">
      <path d="M 261.635298 250.421875 
L 261.635298 22.32 
" clip-path="url(#pe9a41b86a6)" style="fill: none; stroke-dasharray: 2.96,1.28; stroke-dashoffset: 0; stroke: #b0b0b0; stroke-opacity: 0.8; stroke-width: 0.8"/>
     </g>
     <g id="line2d_6">
      <g>
       <use xlink:href="#m78ef0ac718" x="261.635298" y="250.421875" style="stroke: #000000; stroke-width: 0.8"/>
      </g>
     </g>
     <g id="text_3">
      <!-- 200 -->
      <g transform="translate(252.091548 265.020312) scale(0.1 -0.1)">
       <defs>
        <path id="DejaVuSans-32" d="M 1228 531 
L 3431 531 
L 3431 0 
L 469 0 
L 469 531 
Q 828 903 1448 1529 
Q 2069 2156 2228 2338 
Q 2531 2678 2651 2914 
Q 2772 3150 2772 3378 
Q 2772 3750 2511 3984 
Q 2250 4219 1831 4219 
Q 1534 4219 1204 4116 
Q 875 4013 500 3803 
L 500 4441 
Q 881 4594 1212 4672 
Q 1544 4750 1819 4750 
Q 2544 4750 2975 4387 
Q 3406 4025 3406 3419 
Q 3406 3131 3298 2873 
Q 3191 2616 2906 2266 
Q 2828 2175 2409 1742 
Q 1991 1309 1228 531 
z
" transform="scale(0.015625)"/>
       </defs>
       <use xlink:href="#DejaVuSans-32"/>
       <use xlink:href="#DejaVuSans-30" transform="translate(63.623047 0)"/>
       <use xlink:href="#DejaVuSans-30" transform="translate(127.246094 0)"/>
      </g>
     </g>
    </g>
    <g id="xtick_4">
     <g id="line2d_7">
      <path d="M 356.147514 250.421875 
L 356.147514 22.32 
" clip-path="url(#pe9a41b86a6)" style="fill: none; stroke-dasharray: 2.96,1.28; stroke-dashoffset: 0; stroke: #b0b0b0; stroke-opacity: 0.8; stroke-width: 0.8"/>
     </g>
     <g id="line2d_8">
      <g>
       <use xlink:href="#m78ef0ac718" x="356.147514" y="250.421875" style="stroke: #000000; stroke-width: 0.8"/>
      </g>
     </g>
     <g id="text_4">
      <!-- 300 -->
      <g transform="translate(346.603764 265.020312) scale(0.1 -0.1)">
       <defs>
        <path id="DejaVuSans-33" d="M 2597 2516 
Q 3050 2419 3304 2112 
Q 3559 1806 3559 1356 
Q 3559 666 3084 287 
Q 2609 -91 1734 -91 
Q 1441 -91 1130 -33 
Q 819 25 488 141 
L 488 750 
Q 750 597 1062 519 
Q 1375 441 1716 441 
Q 2309 441 2620 675 
Q 2931 909 2931 1356 
Q 2931 1769 2642 2001 
Q 2353 2234 1838 2234 
L 1294 2234 
L 1294 2753 
L 1863 2753 
Q 2328 2753 2575 2939 
Q 2822 3125 2822 3475 
Q 2822 3834 2567 4026 
Q 2313 4219 1838 4219 
Q 1578 4219 1281 4162 
Q 984 4106 628 3988 
L 628 4550 
Q 988 4650 1302 4700 
Q 1616 4750 1894 4750 
Q 2613 4750 3031 4423 
Q 3450 4097 3450 3541 
Q 3450 3153 3228 2886 
Q 3006 2619 2597 2516 
z
" transform="scale(0.015625)"/>
       </defs>
       <use xlink:href="#DejaVuSans-33"/>
       <use xlink:href="#DejaVuSans-30" transform="translate(63.623047 0)"/>
       <use xlink:href="#DejaVuSans-30" transform="translate(127.246094 0)"/>
      </g>
     </g>
    </g>
    <g id="xtick_5">
     <g id="line2d_9">
      <path d="M 450.65973 250.421875 
L 450.65973 22.32 
" clip-path="url(#pe9a41b86a6)" style="fill: none; stroke-dasharray: 2.96,1.28; stroke-dashoffset: 0; stroke: #b0b0b0; stroke-opacity: 0.8; stroke-width: 0.8"/>
     </g>
     <g id="line2d_10">
      <g>
       <use xlink:href="#m78ef0ac718" x="450.65973" y="250.421875" style="stroke: #000000; stroke-width: 0.8"/>
      </g>
     </g>
     <g id="text_5">
      <!-- 400 -->
      <g transform="translate(441.11598 265.020312) scale(0.1 -0.1)">
       <defs>
        <path id="DejaVuSans-34" d="M 2419 4116 
L 825 1625 
L 2419 1625 
L 2419 4116 
z
M 2253 4666 
L 3047 4666 
L 3047 1625 
L 3713 1625 
L 3713 1100 
L 3047 1100 
L 3047 0 
L 2419 0 
L 2419 1100 
L 313 1100 
L 313 1709 
L 2253 4666 
z
" transform="scale(0.015625)"/>
       </defs>
       <use xlink:href="#DejaVuSans-34"/>
       <use xlink:href="#DejaVuSans-30" transform="translate(63.623047 0)"/>
       <use xlink:href="#DejaVuSans-30" transform="translate(127.246094 0)"/>
      </g>
     </g>
    </g>
    <g id="xtick_6">
     <g id="line2d_11">
      <path d="M 545.171946 250.421875 
L 545.171946 22.32 
" clip-path="url(#pe9a41b86a6)" style="fill: none; stroke-dasharray: 2.96,1.28; stroke-dashoffset: 0; stroke: #b0b0b0; stroke-opacity: 0.8; stroke-width: 0.8"/>
     </g>
     <g id="line2d_12">
      <g>
       <use xlink:href="#m78ef0ac718" x="545.171946" y="250.421875" style="stroke: #000000; stroke-width: 0.8"/>
      </g>
     </g>
     <g id="text_6">
      <!-- 500 -->
      <g transform="translate(535.628196 265.020312) scale(0.1 -0.1)">
       <defs>
        <path id="DejaVuSans-35" d="M 691 4666 
L 3169 4666 
L 3169 4134 
L 1269 4134 
L 1269 2991 
Q 1406 3038 1543 3061 
Q 1681 3084 1819 3084 
Q 2600 3084 3056 2656 
Q 3513 2228 3513 1497 
Q 3513 744 3044 326 
Q 2575 -91 1722 -91 
Q 1428 -91 1123 -41 
Q 819 9 494 109 
L 494 744 
Q 775 591 1075 516 
Q 1375 441 1709 441 
Q 2250 441 2565 725 
Q 2881 1009 2881 1497 
Q 2881 1984 2565 2268 
Q 2250 2553 1709 2553 
Q 1456 2553 1204 2497 
Q 953 2441 691 2322 
L 691 4666 
z
" transform="scale(0.015625)"/>
       </defs>
       <use xlink:href="#DejaVuSans-35"/>
       <use xlink:href="#DejaVuSans-30" transform="translate(63.623047 0)"/>
       <use xlink:href="#DejaVuSans-30" transform="translate(127.246094 0)"/>
      </g>
     </g>
    </g>
    <g id="text_7">
     <!-- Frequency (Hz), $f$ -->
     <g transform="translate(265.741406 278.7) scale(0.1 -0.1)">
      <defs>
       <path id="DejaVuSans-46" d="M 628 4666 
L 3309 4666 
L 3309 4134 
L 1259 4134 
L 1259 2759 
L 3109 2759 
L 3109 2228 
L 1259 2228 
L 1259 0 
L 628 0 
L 628 4666 
z
" transform="scale(0.015625)"/>
       <path id="DejaVuSans-72" d="M 2631 2963 
Q 2534 3019 2420 3045 
Q 2306 3072 2169 3072 
Q 1681 3072 1420 2755 
Q 1159 2438 1159 1844 
L 1159 0 
L 581 0 
L 581 3500 
L 1159 3500 
L 1159 2956 
Q 1341 3275 1631 3429 
Q 1922 3584 2338 3584 
Q 2397 3584 2469 3576 
Q 2541 3569 2628 3553 
L 2631 2963 
z
" transform="scale(0.015625)"/>
       <path id="DejaVuSans-65" d="M 3597 1894 
L 3597 1613 
L 953 1613 
Q 991 1019 1311 708 
Q 1631 397 2203 397 
Q 2534 397 2845 478 
Q 3156 559 3463 722 
L 3463 178 
Q 3153 47 2828 -22 
Q 2503 -91 2169 -91 
Q 1331 -91 842 396 
Q 353 884 353 1716 
Q 353 2575 817 3079 
Q 1281 3584 2069 3584 
Q 2775 3584 3186 3129 
Q 3597 2675 3597 1894 
z
M 3022 2063 
Q 3016 2534 2758 2815 
Q 2500 3097 2075 3097 
Q 1594 3097 1305 2825 
Q 1016 2553 972 2059 
L 3022 2063 
z
" transform="scale(0.015625)"/>
       <path id="DejaVuSans-71" d="M 947 1747 
Q 947 1113 1208 752 
Q 1469 391 1925 391 
Q 2381 391 2643 752 
Q 2906 1113 2906 1747 
Q 2906 2381 2643 2742 
Q 2381 3103 1925 3103 
Q 1469 3103 1208 2742 
Q 947 2381 947 1747 
z
M 2906 525 
Q 2725 213 2448 61 
Q 2172 -91 1784 -91 
Q 1150 -91 751 415 
Q 353 922 353 1747 
Q 353 2572 751 3078 
Q 1150 3584 1784 3584 
Q 2172 3584 2448 3432 
Q 2725 3281 2906 2969 
L 2906 3500 
L 3481 3500 
L 3481 -1331 
L 2906 -1331 
L 2906 525 
z
" transform="scale(0.015625)"/>
       <path id="DejaVuSans-75" d="M 544 1381 
L 544 3500 
L 1119 3500 
L 1119 1403 
Q 1119 906 1312 657 
Q 1506 409 1894 409 
Q 2359 409 2629 706 
Q 2900 1003 2900 1516 
L 2900 3500 
L 3475 3500 
L 3475 0 
L 2900 0 
L 2900 538 
Q 2691 219 2414 64 
Q 2138 -91 1772 -91 
Q 1169 -91 856 284 
Q 544 659 544 1381 
z
M 1991 3584 
L 1991 3584 
z
" transform="scale(0.015625)"/>
       <path id="DejaVuSans-6e" d="M 3513 2113 
L 3513 0 
L 2938 0 
L 2938 2094 
Q 2938 2591 2744 2837 
Q 2550 3084 2163 3084 
Q 1697 3084 1428 2787 
Q 1159 2491 1159 1978 
L 1159 0 
L 581 0 
L 581 3500 
L 1159 3500 
L 1159 2956 
Q 1366 3272 1645 3428 
Q 1925 3584 2291 3584 
Q 2894 3584 3203 3211 
Q 3513 2838 3513 2113 
z
" transform="scale(0.015625)"/>
       <path id="DejaVuSans-63" d="M 3122 3366 
L 3122 2828 
Q 2878 2963 2633 3030 
Q 2388 3097 2138 3097 
Q 1578 3097 1268 2742 
Q 959 2388 959 1747 
Q 959 1106 1268 751 
Q 1578 397 2138 397 
Q 2388 397 2633 464 
Q 2878 531 3122 666 
L 3122 134 
Q 2881 22 2623 -34 
Q 2366 -91 2075 -91 
Q 1284 -91 818 406 
Q 353 903 353 1747 
Q 353 2603 823 3093 
Q 1294 3584 2113 3584 
Q 2378 3584 2631 3529 
Q 2884 3475 3122 3366 
z
" transform="scale(0.015625)"/>
       <path id="DejaVuSans-79" d="M 2059 -325 
Q 1816 -950 1584 -1140 
Q 1353 -1331 966 -1331 
L 506 -1331 
L 506 -850 
L 844 -850 
Q 1081 -850 1212 -737 
Q 1344 -625 1503 -206 
L 1606 56 
L 191 3500 
L 800 3500 
L 1894 763 
L 2988 3500 
L 3597 3500 
L 2059 -325 
z
" transform="scale(0.015625)"/>
       <path id="DejaVuSans-20" transform="scale(0.015625)"/>
       <path id="DejaVuSans-28" d="M 1984 4856 
Q 1566 4138 1362 3434 
Q 1159 2731 1159 2009 
Q 1159 1288 1364 580 
Q 1569 -128 1984 -844 
L 1484 -844 
Q 1016 -109 783 600 
Q 550 1309 550 2009 
Q 550 2706 781 3412 
Q 1013 4119 1484 4856 
L 1984 4856 
z
" transform="scale(0.015625)"/>
       <path id="DejaVuSans-48" d="M 628 4666 
L 1259 4666 
L 1259 2753 
L 3553 2753 
L 3553 4666 
L 4184 4666 
L 4184 0 
L 3553 0 
L 3553 2222 
L 1259 2222 
L 1259 0 
L 628 0 
L 628 4666 
z
" transform="scale(0.015625)"/>
       <path id="DejaVuSans-7a" d="M 353 3500 
L 3084 3500 
L 3084 2975 
L 922 459 
L 3084 459 
L 3084 0 
L 275 0 
L 275 525 
L 2438 3041 
L 353 3041 
L 353 3500 
z
" transform="scale(0.015625)"/>
       <path id="DejaVuSans-29" d="M 513 4856 
L 1013 4856 
Q 1481 4119 1714 3412 
Q 1947 2706 1947 2009 
Q 1947 1309 1714 600 
Q 1481 -109 1013 -844 
L 513 -844 
Q 928 -128 1133 580 
Q 1338 1288 1338 2009 
Q 1338 2731 1133 3434 
Q 928 4138 513 4856 
z
" transform="scale(0.015625)"/>
       <path id="DejaVuSans-2c" d="M 750 794 
L 1409 794 
L 1409 256 
L 897 -744 
L 494 -744 
L 750 256 
L 750 794 
z
" transform="scale(0.015625)"/>
       <path id="DejaVuSans-Oblique-66" d="M 3059 4863 
L 2969 4384 
L 2419 4384 
Q 2106 4384 1964 4261 
Q 1822 4138 1753 3809 
L 1691 3500 
L 2638 3500 
L 2553 3053 
L 1606 3053 
L 1013 0 
L 434 0 
L 1031 3053 
L 481 3053 
L 563 3500 
L 1113 3500 
L 1159 3744 
Q 1278 4363 1576 4613 
Q 1875 4863 2516 4863 
L 3059 4863 
z
" transform="scale(0.015625)"/>
      </defs>
      <use xlink:href="#DejaVuSans-46" transform="translate(0 0.015625)"/>
      <use xlink:href="#DejaVuSans-72" transform="translate(57.519531 0.015625)"/>
      <use xlink:href="#DejaVuSans-65" transform="translate(98.632812 0.015625)"/>
      <use xlink:href="#DejaVuSans-71" transform="translate(160.15625 0.015625)"/>
      <use xlink:href="#DejaVuSans-75" transform="translate(223.632812 0.015625)"/>
      <use xlink:href="#DejaVuSans-65" transform="translate(287.011719 0.015625)"/>
      <use xlink:href="#DejaVuSans-6e" transform="translate(348.535156 0.015625)"/>
      <use xlink:href="#DejaVuSans-63" transform="translate(411.914062 0.015625)"/>
      <use xlink:href="#DejaVuSans-79" transform="translate(466.894531 0.015625)"/>
      <use xlink:href="#DejaVuSans-20" transform="translate(526.074219 0.015625)"/>
      <use xlink:href="#DejaVuSans-28" transform="translate(557.861328 0.015625)"/>
      <use xlink:href="#DejaVuSans-48" transform="translate(596.875 0.015625)"/>
      <use xlink:href="#DejaVuSans-7a" transform="translate(672.070312 0.015625)"/>
      <use xlink:href="#DejaVuSans-29" transform="translate(724.560547 0.015625)"/>
      <use xlink:href="#DejaVuSans-2c" transform="translate(763.574219 0.015625)"/>
      <use xlink:href="#DejaVuSans-20" transform="translate(795.361328 0.015625)"/>
      <use xlink:href="#DejaVuSans-Oblique-66" transform="translate(827.148438 0.015625)"/>
     </g>
    </g>
   </g>
   <g id="matplotlib.axis_2">
    <g id="ytick_1">
     <g id="line2d_13">
      <path d="M 48.982813 240.764678 
L 568.8 240.764678 
" clip-path="url(#pe9a41b86a6)" style="fill: none; stroke-dasharray: 2.96,1.28; stroke-dashoffset: 0; stroke: #b0b0b0; stroke-opacity: 0.8; stroke-width: 0.8"/>
     </g>
     <g id="line2d_14">
      <defs>
       <path id="m37adccb6a5" d="M 0 0 
L -3.5 0 
" style="stroke: #000000; stroke-width: 0.8"/>
      </defs>
      <g>
       <use xlink:href="#m37adccb6a5" x="48.982813" y="240.764678" style="stroke: #000000; stroke-width: 0.8"/>
      </g>
     </g>
     <g id="text_8">
      <!-- −70 -->
      <g transform="translate(20.878125 244.563897) scale(0.1 -0.1)">
       <defs>
        <path id="DejaVuSans-2212" d="M 678 2272 
L 4684 2272 
L 4684 1741 
L 678 1741 
L 678 2272 
z
" transform="scale(0.015625)"/>
        <path id="DejaVuSans-37" d="M 525 4666 
L 3525 4666 
L 3525 4397 
L 1831 0 
L 1172 0 
L 2766 4134 
L 525 4134 
L 525 4666 
z
" transform="scale(0.015625)"/>
       </defs>
       <use xlink:href="#DejaVuSans-2212"/>
       <use xlink:href="#DejaVuSans-37" transform="translate(83.789062 0)"/>
       <use xlink:href="#DejaVuSans-30" transform="translate(147.412109 0)"/>
      </g>
     </g>
    </g>
    <g id="ytick_2">
     <g id="line2d_15">
      <path d="M 48.982813 205.680726 
L 568.8 205.680726 
" clip-path="url(#pe9a41b86a6)" style="fill: none; stroke-dasharray: 2.96,1.28; stroke-dashoffset: 0; stroke: #b0b0b0; stroke-opacity: 0.8; stroke-width: 0.8"/>
     </g>
     <g id="line2d_16">
      <g>
       <use xlink:href="#m37adccb6a5" x="48.982813" y="205.680726" style="stroke: #000000; stroke-width: 0.8"/>
      </g>
     </g>
     <g id="text_9">
      <!-- −60 -->
      <g transform="translate(20.878125 209.479945) scale(0.1 -0.1)">
       <defs>
        <path id="DejaVuSans-36" d="M 2113 2584 
Q 1688 2584 1439 2293 
Q 1191 2003 1191 1497 
Q 1191 994 1439 701 
Q 1688 409 2113 409 
Q 2538 409 2786 701 
Q 3034 994 3034 1497 
Q 3034 2003 2786 2293 
Q 2538 2584 2113 2584 
z
M 3366 4563 
L 3366 3988 
Q 3128 4100 2886 4159 
Q 2644 4219 2406 4219 
Q 1781 4219 1451 3797 
Q 1122 3375 1075 2522 
Q 1259 2794 1537 2939 
Q 1816 3084 2150 3084 
Q 2853 3084 3261 2657 
Q 3669 2231 3669 1497 
Q 3669 778 3244 343 
Q 2819 -91 2113 -91 
Q 1303 -91 875 529 
Q 447 1150 447 2328 
Q 447 3434 972 4092 
Q 1497 4750 2381 4750 
Q 2619 4750 2861 4703 
Q 3103 4656 3366 4563 
z
" transform="scale(0.015625)"/>
       </defs>
       <use xlink:href="#DejaVuSans-2212"/>
       <use xlink:href="#DejaVuSans-36" transform="translate(83.789062 0)"/>
       <use xlink:href="#DejaVuSans-30" transform="translate(147.412109 0)"/>
      </g>
     </g>
    </g>
    <g id="ytick_3">
     <g id="line2d_17">
      <path d="M 48.982813 170.596774 
L 568.8 170.596774 
" clip-path="url(#pe9a41b86a6)" style="fill: none; stroke-dasharray: 2.96,1.28; stroke-dashoffset: 0; stroke: #b0b0b0; stroke-opacity: 0.8; stroke-width: 0.8"/>
     </g>
     <g id="line2d_18">
      <g>
       <use xlink:href="#m37adccb6a5" x="48.982813" y="170.596774" style="stroke: #000000; stroke-width: 0.8"/>
      </g>
     </g>
     <g id="text_10">
      <!-- −50 -->
      <g transform="translate(20.878125 174.395993) scale(0.1 -0.1)">
       <use xlink:href="#DejaVuSans-2212"/>
       <use xlink:href="#DejaVuSans-35" transform="translate(83.789062 0)"/>
       <use xlink:href="#DejaVuSans-30" transform="translate(147.412109 0)"/>
      </g>
     </g>
    </g>
    <g id="ytick_4">
     <g id="line2d_19">
      <path d="M 48.982813 135.512822 
L 568.8 135.512822 
" clip-path="url(#pe9a41b86a6)" style="fill: none; stroke-dasharray: 2.96,1.28; stroke-dashoffset: 0; stroke: #b0b0b0; stroke-opacity: 0.8; stroke-width: 0.8"/>
     </g>
     <g id="line2d_20">
      <g>
       <use xlink:href="#m37adccb6a5" x="48.982813" y="135.512822" style="stroke: #000000; stroke-width: 0.8"/>
      </g>
     </g>
     <g id="text_11">
      <!-- −40 -->
      <g transform="translate(20.878125 139.312041) scale(0.1 -0.1)">
       <use xlink:href="#DejaVuSans-2212"/>
       <use xlink:href="#DejaVuSans-34" transform="translate(83.789062 0)"/>
       <use xlink:href="#DejaVuSans-30" transform="translate(147.412109 0)"/>
      </g>
     </g>
    </g>
    <g id="ytick_5">
     <g id="line2d_21">
      <path d="M 48.982813 100.42887 
L 568.8 100.42887 
" clip-path="url(#pe9a41b86a6)" style="fill: none; stroke-dasharray: 2.96,1.28; stroke-dashoffset: 0; stroke: #b0b0b0; stroke-opacity: 0.8; stroke-width: 0.8"/>
     </g>
     <g id="line2d_22">
      <g>
       <use xlink:href="#m37adccb6a5" x="48.982813" y="100.42887" style="stroke: #000000; stroke-width: 0.8"/>
      </g>
     </g>
     <g id="text_12">
      <!-- −30 -->
      <g transform="translate(20.878125 104.228089) scale(0.1 -0.1)">
       <use xlink:href="#DejaVuSans-2212"/>
       <use xlink:href="#DejaVuSans-33" transform="translate(83.789062 0)"/>
       <use xlink:href="#DejaVuSans-30" transform="translate(147.412109 0)"/>
      </g>
     </g>
    </g>
    <g id="ytick_6">
     <g id="line2d_23">
      <path d="M 48.982813 65.344918 
L 568.8 65.344918 
" clip-path="url(#pe9a41b86a6)" style="fill: none; stroke-dasharray: 2.96,1.28; stroke-dashoffset: 0; stroke: #b0b0b0; stroke-opacity: 0.8; stroke-width: 0.8"/>
     </g>
     <g id="line2d_24">
      <g>
       <use xlink:href="#m37adccb6a5" x="48.982813" y="65.344918" style="stroke: #000000; stroke-width: 0.8"/>
      </g>
     </g>
     <g id="text_13">
      <!-- −20 -->
      <g transform="translate(20.878125 69.144136) scale(0.1 -0.1)">
       <use xlink:href="#DejaVuSans-2212"/>
       <use xlink:href="#DejaVuSans-32" transform="translate(83.789062 0)"/>
       <use xlink:href="#DejaVuSans-30" transform="translate(147.412109 0)"/>
      </g>
     </g>
    </g>
    <g id="ytick_7">
     <g id="line2d_25">
      <path d="M 48.982813 30.260965 
L 568.8 30.260965 
" clip-path="url(#pe9a41b86a6)" style="fill: none; stroke-dasharray: 2.96,1.28; stroke-dashoffset: 0; stroke: #b0b0b0; stroke-opacity: 0.8; stroke-width: 0.8"/>
     </g>
     <g id="line2d_26">
      <g>
       <use xlink:href="#m37adccb6a5" x="48.982813" y="30.260965" style="stroke: #000000; stroke-width: 0.8"/>
      </g>
     </g>
     <g id="text_14">
      <!-- −10 -->
      <g transform="translate(20.878125 34.060184) scale(0.1 -0.1)">
       <use xlink:href="#DejaVuSans-2212"/>
       <use xlink:href="#DejaVuSans-31" transform="translate(83.789062 0)"/>
       <use xlink:href="#DejaVuSans-30" transform="translate(147.412109 0)"/>
      </g>
     </g>
    </g>
    <g id="text_15">
     <!-- Power density (dB/Hz) -->
     <g transform="translate(14.798437 191.570938) rotate(-90) scale(0.1 -0.1)">
      <defs>
       <path id="DejaVuSans-50" d="M 1259 4147 
L 1259 2394 
L 2053 2394 
Q 2494 2394 2734 2622 
Q 2975 2850 2975 3272 
Q 2975 3691 2734 3919 
Q 2494 4147 2053 4147 
L 1259 4147 
z
M 628 4666 
L 2053 4666 
Q 2838 4666 3239 4311 
Q 3641 3956 3641 3272 
Q 3641 2581 3239 2228 
Q 2838 1875 2053 1875 
L 1259 1875 
L 1259 0 
L 628 0 
L 628 4666 
z
" transform="scale(0.015625)"/>
       <path id="DejaVuSans-6f" d="M 1959 3097 
Q 1497 3097 1228 2736 
Q 959 2375 959 1747 
Q 959 1119 1226 758 
Q 1494 397 1959 397 
Q 2419 397 2687 759 
Q 2956 1122 2956 1747 
Q 2956 2369 2687 2733 
Q 2419 3097 1959 3097 
z
M 1959 3584 
Q 2709 3584 3137 3096 
Q 3566 2609 3566 1747 
Q 3566 888 3137 398 
Q 2709 -91 1959 -91 
Q 1206 -91 779 398 
Q 353 888 353 1747 
Q 353 2609 779 3096 
Q 1206 3584 1959 3584 
z
" transform="scale(0.015625)"/>
       <path id="DejaVuSans-77" d="M 269 3500 
L 844 3500 
L 1563 769 
L 2278 3500 
L 2956 3500 
L 3675 769 
L 4391 3500 
L 4966 3500 
L 4050 0 
L 3372 0 
L 2619 2869 
L 1863 0 
L 1184 0 
L 269 3500 
z
" transform="scale(0.015625)"/>
       <path id="DejaVuSans-64" d="M 2906 2969 
L 2906 4863 
L 3481 4863 
L 3481 0 
L 2906 0 
L 2906 525 
Q 2725 213 2448 61 
Q 2172 -91 1784 -91 
Q 1150 -91 751 415 
Q 353 922 353 1747 
Q 353 2572 751 3078 
Q 1150 3584 1784 3584 
Q 2172 3584 2448 3432 
Q 2725 3281 2906 2969 
z
M 947 1747 
Q 947 1113 1208 752 
Q 1469 391 1925 391 
Q 2381 391 2643 752 
Q 2906 1113 2906 1747 
Q 2906 2381 2643 2742 
Q 2381 3103 1925 3103 
Q 1469 3103 1208 2742 
Q 947 2381 947 1747 
z
" transform="scale(0.015625)"/>
       <path id="DejaVuSans-73" d="M 2834 3397 
L 2834 2853 
Q 2591 2978 2328 3040 
Q 2066 3103 1784 3103 
Q 1356 3103 1142 2972 
Q 928 2841 928 2578 
Q 928 2378 1081 2264 
Q 1234 2150 1697 2047 
L 1894 2003 
Q 2506 1872 2764 1633 
Q 3022 1394 3022 966 
Q 3022 478 2636 193 
Q 2250 -91 1575 -91 
Q 1294 -91 989 -36 
Q 684 19 347 128 
L 347 722 
Q 666 556 975 473 
Q 1284 391 1588 391 
Q 1994 391 2212 530 
Q 2431 669 2431 922 
Q 2431 1156 2273 1281 
Q 2116 1406 1581 1522 
L 1381 1569 
Q 847 1681 609 1914 
Q 372 2147 372 2553 
Q 372 3047 722 3315 
Q 1072 3584 1716 3584 
Q 2034 3584 2315 3537 
Q 2597 3491 2834 3397 
z
" transform="scale(0.015625)"/>
       <path id="DejaVuSans-69" d="M 603 3500 
L 1178 3500 
L 1178 0 
L 603 0 
L 603 3500 
z
M 603 4863 
L 1178 4863 
L 1178 4134 
L 603 4134 
L 603 4863 
z
" transform="scale(0.015625)"/>
       <path id="DejaVuSans-74" d="M 1172 4494 
L 1172 3500 
L 2356 3500 
L 2356 3053 
L 1172 3053 
L 1172 1153 
Q 1172 725 1289 603 
Q 1406 481 1766 481 
L 2356 481 
L 2356 0 
L 1766 0 
Q 1100 0 847 248 
Q 594 497 594 1153 
L 594 3053 
L 172 3053 
L 172 3500 
L 594 3500 
L 594 4494 
L 1172 4494 
z
" transform="scale(0.015625)"/>
       <path id="DejaVuSans-42" d="M 1259 2228 
L 1259 519 
L 2272 519 
Q 2781 519 3026 730 
Q 3272 941 3272 1375 
Q 3272 1813 3026 2020 
Q 2781 2228 2272 2228 
L 1259 2228 
z
M 1259 4147 
L 1259 2741 
L 2194 2741 
Q 2656 2741 2882 2914 
Q 3109 3088 3109 3444 
Q 3109 3797 2882 3972 
Q 2656 4147 2194 4147 
L 1259 4147 
z
M 628 4666 
L 2241 4666 
Q 2963 4666 3353 4366 
Q 3744 4066 3744 3513 
Q 3744 3084 3544 2831 
Q 3344 2578 2956 2516 
Q 3422 2416 3680 2098 
Q 3938 1781 3938 1306 
Q 3938 681 3513 340 
Q 3088 0 2303 0 
L 628 0 
L 628 4666 
z
" transform="scale(0.015625)"/>
       <path id="DejaVuSans-2f" d="M 1625 4666 
L 2156 4666 
L 531 -594 
L 0 -594 
L 1625 4666 
z
" transform="scale(0.015625)"/>
      </defs>
      <use xlink:href="#DejaVuSans-50"/>
      <use xlink:href="#DejaVuSans-6f" transform="translate(56.677734 0)"/>
      <use xlink:href="#DejaVuSans-77" transform="translate(117.859375 0)"/>
      <use xlink:href="#DejaVuSans-65" transform="translate(199.646484 0)"/>
      <use xlink:href="#DejaVuSans-72" transform="translate(261.169922 0)"/>
      <use xlink:href="#DejaVuSans-20" transform="translate(302.283203 0)"/>
      <use xlink:href="#DejaVuSans-64" transform="translate(334.070312 0)"/>
      <use xlink:href="#DejaVuSans-65" transform="translate(397.546875 0)"/>
      <use xlink:href="#DejaVuSans-6e" transform="translate(459.070312 0)"/>
      <use xlink:href="#DejaVuSans-73" transform="translate(522.449219 0)"/>
      <use xlink:href="#DejaVuSans-69" transform="translate(574.548828 0)"/>
      <use xlink:href="#DejaVuSans-74" transform="translate(602.332031 0)"/>
      <use xlink:href="#DejaVuSans-79" transform="translate(641.541016 0)"/>
      <use xlink:href="#DejaVuSans-20" transform="translate(700.720703 0)"/>
      <use xlink:href="#DejaVuSans-28" transform="translate(732.507812 0)"/>
      <use xlink:href="#DejaVuSans-64" transform="translate(771.521484 0)"/>
      <use xlink:href="#DejaVuSans-42" transform="translate(834.998047 0)"/>
      <use xlink:href="#DejaVuSans-2f" transform="translate(903.601562 0)"/>
      <use xlink:href="#DejaVuSans-48" transform="translate(937.292969 0)"/>
      <use xlink:href="#DejaVuSans-7a" transform="translate(1012.488281 0)"/>
      <use xlink:href="#DejaVuSans-29" transform="translate(1064.978516 0)"/>
     </g>
    </g>
   </g>
   <g id="line2d_27">
    <path d="M 72.610866 240.053608 
L 73.072352 229.200272 
L 73.533837 228.379991 
L 74.456808 225.742999 
L 76.30275 220.027887 
L 77.687206 216.614734 
L 79.071662 213.922272 
L 79.994633 212.607619 
L 80.917604 211.741353 
L 81.840575 211.304208 
L 82.763546 211.219276 
L 83.686517 211.385744 
L 85.532458 211.881169 
L 85.993944 211.859549 
L 86.455429 211.700753 
L 86.916915 211.374383 
L 87.839886 210.199434 
L 90.147313 206.22504 
L 90.608798 205.743253 
L 91.070284 205.481411 
L 91.531769 205.467376 
L 91.993255 205.718646 
L 92.45474 206.243007 
L 92.916225 207.038346 
L 93.839196 209.372636 
L 96.146623 216.310082 
L 96.608109 216.768702 
L 97.069594 216.570734 
L 97.53108 215.718423 
L 97.992565 214.325981 
L 99.377021 208.66503 
L 100.299992 205.025594 
L 101.222963 202.127378 
L 102.145934 200.147115 
L 102.607419 199.523039 
L 103.068905 199.147584 
L 103.53039 199.020328 
L 103.991876 199.136679 
L 104.453361 199.486376 
L 104.914847 200.051751 
L 105.837817 201.712321 
L 108.145245 206.638825 
L 109.068215 207.802569 
L 109.529701 208.103505 
L 109.991186 208.232128 
L 110.452672 208.215123 
L 111.375643 207.879769 
L 115.067526 205.882954 
L 115.990497 204.90222 
L 116.913468 203.452891 
L 118.297924 201.095749 
L 119.220895 200.075562 
L 119.68238 199.85959 
L 120.143866 199.863504 
L 120.605351 200.085439 
L 121.066837 200.507591 
L 121.989807 201.801393 
L 123.374264 203.937734 
L 123.835749 204.412966 
L 124.297235 204.674527 
L 124.75872 204.702265 
L 125.220205 204.506266 
L 126.143176 203.598142 
L 128.450603 200.624633 
L 129.373574 199.896584 
L 129.83506 199.710109 
L 130.296545 199.658294 
L 130.758031 199.751259 
L 131.219516 199.996662 
L 131.681001 200.397894 
L 132.603972 201.642734 
L 134.911399 205.496858 
L 135.372885 205.792485 
L 135.83437 205.750756 
L 136.295856 205.358753 
L 136.757341 204.654461 
L 137.680312 202.638963 
L 139.064768 199.485274 
L 139.987739 198.055463 
L 140.449225 197.631925 
L 140.91071 197.408442 
L 141.372195 197.375951 
L 141.833681 197.51725 
L 142.756652 198.222733 
L 144.141108 199.865566 
L 145.064079 200.917554 
L 145.98705 201.558321 
L 146.448535 201.628985 
L 146.910021 201.48975 
L 147.371506 201.117116 
L 147.832991 200.5021 
L 148.755962 198.637859 
L 150.140419 195.422325 
L 150.601904 194.67293 
L 151.063389 194.245393 
L 151.524875 194.192644 
L 151.98636 194.525991 
L 152.447846 195.20969 
L 153.370817 197.25891 
L 154.293787 199.401852 
L 155.216758 200.954425 
L 155.678244 201.332486 
L 156.139729 201.225993 
L 156.601215 200.447028 
L 157.985671 196.008724 
L 158.447156 195.851079 
L 158.908642 197.608697 
L 159.831613 204.954008 
L 160.293098 197.048369 
L 161.216069 166.930745 
L 162.13904 144.907269 
L 163.062011 129.412708 
L 163.984981 118.331291 
L 164.907952 110.640807 
L 165.369438 107.891502 
L 165.830923 105.815896 
L 166.292409 104.386681 
L 166.753894 103.586103 
L 167.215379 103.404713 
L 167.676865 103.840742 
L 168.13835 104.900005 
L 168.599836 106.596325 
L 169.061321 108.952539 
L 169.984292 115.792757 
L 170.907263 125.883105 
L 171.830234 140.133237 
L 172.753205 160.524367 
L 173.21469 174.345693 
L 174.137661 209.275798 
L 174.599146 210.389988 
L 175.060632 203.583815 
L 175.522117 200.015272 
L 175.983603 199.655534 
L 176.445088 201.456691 
L 177.368059 207.065434 
L 177.829544 208.431627 
L 178.29103 208.166628 
L 179.675486 204.832922 
L 180.136971 204.427455 
L 180.598457 204.412954 
L 181.521428 204.949986 
L 182.905884 205.81227 
L 183.828855 206.223541 
L 184.29034 206.325034 
L 184.751826 206.311493 
L 185.674797 205.926855 
L 187.059253 205.076871 
L 187.982224 204.797211 
L 189.828166 204.514699 
L 190.751136 204.009109 
L 192.597078 202.566301 
L 193.058564 202.39128 
L 193.520049 202.394521 
L 193.981534 202.61211 
L 194.44302 203.062744 
L 194.904505 203.743322 
L 195.827476 205.647966 
L 196.750447 207.737263 
L 197.211932 208.56406 
L 197.673418 209.095782 
L 198.134903 209.268314 
L 198.596389 209.077654 
L 199.057874 208.573882 
L 199.980845 206.955097 
L 202.288272 202.311452 
L 203.211243 200.895835 
L 204.134214 199.926555 
L 205.057185 199.440356 
L 205.980156 199.388384 
L 206.903126 199.665876 
L 208.287583 200.460933 
L 212.902437 203.698535 
L 213.825408 204.890239 
L 214.748379 206.700292 
L 217.055806 212.315938 
L 217.517291 212.644602 
L 217.978777 212.333367 
L 218.440262 211.365168 
L 219.363233 207.998771 
L 220.747689 202.187993 
L 221.67066 199.108759 
L 222.593631 196.822086 
L 223.978087 194.292566 
L 225.362544 192.147642 
L 226.285514 191.014328 
L 226.747 190.638389 
L 227.208485 190.440463 
L 227.669971 190.452894 
L 228.131456 190.700797 
L 228.592942 191.201216 
L 229.054427 191.962619 
L 229.977398 194.253783 
L 230.900369 197.416436 
L 232.74631 204.159027 
L 233.207796 205.266157 
L 233.669281 205.940644 
L 234.130767 206.173415 
L 234.592252 206.021037 
L 235.053738 205.57921 
L 235.976708 204.209109 
L 237.82265 200.827766 
L 239.668592 197.370937 
L 240.591563 196.244482 
L 241.053048 195.980243 
L 241.514534 195.950841 
L 241.976019 196.164953 
L 242.437504 196.61437 
L 243.360475 198.0912 
L 244.744932 200.772086 
L 245.206417 201.455322 
L 245.667902 201.925048 
L 246.129388 202.170881 
L 246.590873 202.226199 
L 248.8983 201.924124 
L 251.205728 202.480455 
L 252.128698 202.275656 
L 255.820582 200.58465 
L 256.743553 199.813768 
L 257.666524 198.593663 
L 259.05098 196.544802 
L 259.973951 195.677768 
L 260.435436 195.507695 
L 260.896922 195.526284 
L 261.358407 195.723484 
L 262.281378 196.548818 
L 265.05029 199.741056 
L 265.973261 200.459791 
L 266.896232 200.916717 
L 267.357718 200.958876 
L 267.819203 200.816583 
L 268.280688 200.474816 
L 270.12663 198.410839 
L 270.588116 198.229829 
L 271.049601 198.325127 
L 271.511086 198.693512 
L 272.434057 200.003534 
L 273.357028 201.363428 
L 273.818514 201.794309 
L 274.279999 201.980869 
L 274.741484 201.920476 
L 275.20297 201.64432 
L 276.125941 200.664482 
L 277.048912 199.568733 
L 277.971882 198.835211 
L 278.894853 198.565649 
L 279.817824 198.527775 
L 280.27931 198.58359 
L 280.740795 198.756321 
L 281.20228 199.108444 
L 282.586737 200.824788 
L 283.048222 200.949998 
L 283.509708 200.476807 
L 284.432679 198.191848 
L 284.894164 197.030475 
L 285.355649 196.225553 
L 285.817135 195.839774 
L 286.740106 195.651121 
L 287.201591 195.306723 
L 288.586047 193.51433 
L 289.047533 193.836382 
L 289.509018 195.077759 
L 290.431989 199.217291 
L 290.893475 200.266223 
L 291.35496 199.551018 
L 291.816445 197.856235 
L 292.277931 196.713554 
L 292.739416 197.306133 
L 293.200902 200.100704 
L 293.662387 203.783182 
L 294.123873 202.826554 
L 295.508329 177.806594 
L 295.969814 173.713114 
L 296.4313 173.051927 
L 296.892785 176.647687 
L 297.354271 186.455789 
L 297.815756 200.586131 
L 298.277241 184.927499 
L 298.738727 165.46322 
L 299.200212 153.122113 
L 299.661698 145.82274 
L 300.123183 142.919325 
L 300.584669 145.297792 
L 301.046154 157.491828 
L 301.507639 206.922738 
L 301.969125 143.901154 
L 302.43061 117.21954 
L 302.892096 99.860962 
L 303.815067 76.159853 
L 304.738037 60.036204 
L 305.661008 48.564109 
L 306.583979 40.57005 
L 307.50695 35.479054 
L 307.968435 33.922901 
L 308.429921 32.996452 
L 308.891406 32.688267 
L 309.352892 32.994573 
L 309.814377 33.919008 
L 310.275863 35.472857 
L 310.737348 37.675836 
L 311.198833 40.557539 
L 312.121804 48.540617 
L 313.044775 59.990902 
L 313.967746 76.064585 
L 314.890717 99.620376 
L 315.352202 116.774363 
L 315.813688 142.814926 
L 316.275173 205.235013 
L 316.736659 159.187136 
L 317.198144 146.391745 
L 317.659629 143.857419 
L 318.121115 146.748055 
L 318.5826 154.14995 
L 319.044086 166.843314 
L 319.967057 208.665578 
L 320.428542 190.19433 
L 320.890027 179.414619 
L 321.351513 175.864647 
L 321.812998 176.99062 
L 322.274484 181.919791 
L 323.197455 200.326216 
L 323.65894 204.845464 
L 324.581911 195.426898 
L 325.043396 193.019897 
L 325.504882 193.488815 
L 325.966367 196.464613 
L 326.889338 206.224223 
L 327.350823 208.620393 
L 327.812309 207.448006 
L 328.273794 204.935506 
L 328.73528 203.159896 
L 329.196765 202.815702 
L 329.658251 203.826008 
L 330.581221 207.67569 
L 331.042707 208.951261 
L 331.504192 209.271062 
L 331.965678 209.070868 
L 332.427163 209.000998 
L 332.888649 209.441263 
L 333.811619 211.265304 
L 334.273105 211.551244 
L 334.73459 210.813675 
L 336.119047 206.155941 
L 336.580532 205.301094 
L 337.964988 203.985618 
L 339.349445 200.909012 
L 339.81093 200.878512 
L 340.272415 201.976445 
L 341.195386 205.973986 
L 341.656872 205.644597 
L 342.118357 202.115062 
L 343.041328 193.443163 
L 343.502813 191.869619 
L 343.964299 193.455833 
L 344.425784 199.281438 
L 344.88727 209.412801 
L 345.348755 208.643907 
L 346.271726 177.893041 
L 346.733211 169.030873 
L 347.194697 164.419344 
L 347.656182 164.364473 
L 348.117668 171.099838 
L 348.579153 193.658862 
L 349.040639 179.32781 
L 349.502124 146.822098 
L 349.963609 127.083106 
L 350.88658 101.198002 
L 351.809551 83.917256 
L 352.732522 71.645004 
L 353.655493 63.016314 
L 354.578464 57.37693 
L 355.039949 55.565102 
L 355.501435 54.390201 
L 355.96292 53.837651 
L 356.424405 53.900808 
L 356.885891 54.580513 
L 357.347376 55.885157 
L 357.808862 57.831259 
L 358.270347 60.444671 
L 359.193318 67.836901 
L 360.116289 78.569932 
L 361.03926 93.661645 
L 361.962231 115.514262 
L 362.423716 130.956616 
L 362.885201 152.800588 
L 363.346687 191.325349 
L 363.808172 184.281956 
L 364.269658 167.329987 
L 364.731143 162.546726 
L 365.192629 163.524498 
L 365.654114 168.572711 
L 366.115599 177.25989 
L 367.03857 198.971854 
L 367.500056 198.067604 
L 367.961541 192.585523 
L 368.423027 189.297545 
L 368.884512 188.933149 
L 369.345997 191.017144 
L 370.730454 201.916904 
L 371.191939 202.264409 
L 372.11491 199.71129 
L 372.576395 199.110518 
L 373.037881 199.260792 
L 373.960852 200.224534 
L 374.422337 200.172726 
L 374.883823 199.6396 
L 375.806793 198.319431 
L 376.268279 198.055271 
L 376.729764 198.135425 
L 378.114221 198.952425 
L 378.575706 198.91653 
L 379.498677 198.391225 
L 380.421648 197.943046 
L 380.883133 197.899381 
L 381.344619 197.988703 
L 381.806104 198.20973 
L 382.267589 198.570163 
L 383.19056 199.764855 
L 385.497988 203.769707 
L 385.959473 204.026959 
L 386.420958 204.01789 
L 387.805415 203.466255 
L 388.2669 203.489056 
L 388.728386 203.742754 
L 389.189871 204.25731 
L 389.651356 205.034527 
L 390.574327 207.230589 
L 391.497298 209.6455 
L 391.958784 210.553006 
L 392.420269 211.051397 
L 392.881754 211.072393 
L 393.34324 210.664591 
L 395.189182 207.891851 
L 395.650667 207.575855 
L 396.112152 207.507403 
L 396.573638 207.648678 
L 397.958094 208.388917 
L 398.41958 208.34743 
L 398.881065 208.026115 
L 399.804036 206.684004 
L 400.727007 205.163877 
L 401.188492 204.6424 
L 401.649978 204.385257 
L 402.111463 204.417115 
L 402.572948 204.715296 
L 403.957405 206.247695 
L 404.41889 206.463659 
L 404.880376 206.286243 
L 405.341861 205.666776 
L 406.264832 203.379391 
L 408.110774 198.12875 
L 409.033744 196.304013 
L 409.956715 195.06979 
L 410.879686 194.317725 
L 411.802657 194.019966 
L 412.264142 194.053307 
L 412.725628 194.211906 
L 413.648599 194.863179 
L 415.49454 196.486319 
L 415.956026 196.656556 
L 416.417511 196.649793 
L 416.878997 196.457758 
L 417.801968 195.589378 
L 421.032366 191.490163 
L 421.493851 191.240394 
L 421.955336 191.147816 
L 422.416822 191.223815 
L 422.878307 191.473144 
L 423.339793 191.893257 
L 424.262764 193.196539 
L 425.64722 195.935632 
L 429.339103 203.977484 
L 432.108016 211.139441 
L 432.569501 211.796979 
L 433.030987 212.151478 
L 433.492472 212.220441 
L 433.953958 212.054694 
L 434.876928 211.273557 
L 436.261385 209.652343 
L 438.107326 207.149321 
L 439.030297 205.595568 
L 439.953268 203.673377 
L 442.722181 197.151369 
L 443.183666 196.464545 
L 443.645152 196.020995 
L 444.106637 195.851129 
L 444.568122 195.976248 
L 445.029608 196.409096 
L 445.491093 197.153808 
L 445.952579 198.204596 
L 446.87555 201.129361 
L 448.721491 207.9973 
L 449.182977 208.992589 
L 449.644462 209.337746 
L 450.105948 208.994735 
L 450.567433 208.063321 
L 451.490404 205.210173 
L 452.413375 202.23094 
L 453.336346 199.949595 
L 453.797831 199.173797 
L 454.259316 198.658082 
L 454.720802 198.402693 
L 455.182287 198.401352 
L 455.643773 198.641695 
L 456.105258 199.104307 
L 457.028229 200.572654 
L 459.335656 204.953509 
L 460.258627 205.922049 
L 461.181598 206.408996 
L 462.566054 206.817606 
L 463.489025 206.900685 
L 463.95051 206.785262 
L 464.411996 206.509928 
L 464.873481 206.051903 
L 465.796452 204.626448 
L 468.103879 200.288216 
L 469.02685 199.143107 
L 469.949821 198.452556 
L 471.334277 197.904023 
L 472.718734 197.531099 
L 473.641704 197.499175 
L 474.10319 197.636997 
L 474.564675 197.91768 
L 475.026161 198.362572 
L 475.949132 199.777154 
L 476.872102 201.834865 
L 478.256559 205.696531 
L 479.641015 209.670789 
L 480.563986 211.733514 
L 481.025471 212.375213 
L 481.486957 212.675539 
L 481.948442 212.624724 
L 482.409928 212.272467 
L 484.255869 210.019633 
L 484.717355 209.709537 
L 485.640326 209.486279 
L 486.101811 209.40756 
L 486.563297 209.186919 
L 487.024782 208.706941 
L 487.486267 207.904443 
L 488.409238 205.483934 
L 489.793695 201.677318 
L 490.25518 200.849871 
L 490.716665 200.368209 
L 491.178151 200.265932 
L 491.639636 200.554988 
L 492.101122 201.227772 
L 492.562607 202.256199 
L 493.485578 205.138635 
L 494.870034 209.731672 
L 495.33152 210.682171 
L 495.793005 211.133591 
L 496.254491 211.089728 
L 496.715976 210.647773 
L 498.100432 208.369393 
L 499.023403 207.091445 
L 499.946374 206.316072 
L 501.33083 205.717176 
L 502.715287 205.048719 
L 506.868655 202.232027 
L 507.791626 201.044428 
L 508.714597 199.366293 
L 510.099053 196.732182 
L 511.022024 195.583995 
L 511.48351 195.306013 
L 511.944995 195.238226 
L 512.406481 195.370709 
L 512.867966 195.680253 
L 513.790937 196.689201 
L 516.098364 199.665065 
L 517.021335 200.464793 
L 517.944306 200.860512 
L 518.867277 200.816633 
L 520.713218 200.297889 
L 521.174704 200.399208 
L 521.636189 200.710121 
L 522.097675 201.27614 
L 522.55916 202.130996 
L 523.020645 203.295203 
L 523.943616 206.552561 
L 526.251043 216.919076 
L 526.712529 218.045084 
L 527.174014 218.437353 
L 527.6355 218.133852 
L 528.096985 217.315802 
L 529.942927 213.159168 
L 530.404412 212.526784 
L 530.865898 212.121658 
L 531.327383 211.913188 
L 532.250354 211.878125 
L 533.63481 211.992044 
L 535.019267 211.955963 
L 535.942237 212.213476 
L 536.865208 212.922346 
L 537.788179 214.014201 
L 541.018577 218.374126 
L 541.941548 220.300887 
L 542.864519 223.011745 
L 544.248975 227.560732 
L 544.710461 228.532915 
L 545.171946 239.445549 
L 545.171946 239.445549 
" clip-path="url(#pe9a41b86a6)" style="fill: none; stroke: #1f77b4; stroke-linecap: square"/>
   </g>
   <g id="patch_3">
    <path d="M 48.982813 250.421875 
L 48.982813 22.32 
" style="fill: none; stroke: #000000; stroke-width: 0.8; stroke-linejoin: miter; stroke-linecap: square"/>
   </g>
   <g id="patch_4">
    <path d="M 568.8 250.421875 
L 568.8 22.32 
" style="fill: none; stroke: #000000; stroke-width: 0.8; stroke-linejoin: miter; stroke-linecap: square"/>
   </g>
   <g id="patch_5">
    <path d="M 48.982813 250.421875 
L 568.8 250.421875 
" style="fill: none; stroke: #000000; stroke-width: 0.8; stroke-linejoin: miter; stroke-linecap: square"/>
   </g>
   <g id="patch_6">
    <path d="M 48.982813 22.32 
L 568.8 22.32 
" style="fill: none; stroke: #000000; stroke-width: 0.8; stroke-linejoin: miter; stroke-linecap: square"/>
   </g>
   <g id="text_16">
    <!-- Periodogram of $x_r[n]$ -->
    <g transform="translate(246.971406 16.32) scale(0.12 -0.12)">
     <defs>
      <path id="DejaVuSans-67" d="M 2906 1791 
Q 2906 2416 2648 2759 
Q 2391 3103 1925 3103 
Q 1463 3103 1205 2759 
Q 947 2416 947 1791 
Q 947 1169 1205 825 
Q 1463 481 1925 481 
Q 2391 481 2648 825 
Q 2906 1169 2906 1791 
z
M 3481 434 
Q 3481 -459 3084 -895 
Q 2688 -1331 1869 -1331 
Q 1566 -1331 1297 -1286 
Q 1028 -1241 775 -1147 
L 775 -588 
Q 1028 -725 1275 -790 
Q 1522 -856 1778 -856 
Q 2344 -856 2625 -561 
Q 2906 -266 2906 331 
L 2906 616 
Q 2728 306 2450 153 
Q 2172 0 1784 0 
Q 1141 0 747 490 
Q 353 981 353 1791 
Q 353 2603 747 3093 
Q 1141 3584 1784 3584 
Q 2172 3584 2450 3431 
Q 2728 3278 2906 2969 
L 2906 3500 
L 3481 3500 
L 3481 434 
z
" transform="scale(0.015625)"/>
      <path id="DejaVuSans-61" d="M 2194 1759 
Q 1497 1759 1228 1600 
Q 959 1441 959 1056 
Q 959 750 1161 570 
Q 1363 391 1709 391 
Q 2188 391 2477 730 
Q 2766 1069 2766 1631 
L 2766 1759 
L 2194 1759 
z
M 3341 1997 
L 3341 0 
L 2766 0 
L 2766 531 
Q 2569 213 2275 61 
Q 1981 -91 1556 -91 
Q 1019 -91 701 211 
Q 384 513 384 1019 
Q 384 1609 779 1909 
Q 1175 2209 1959 2209 
L 2766 2209 
L 2766 2266 
Q 2766 2663 2505 2880 
Q 2244 3097 1772 3097 
Q 1472 3097 1187 3025 
Q 903 2953 641 2809 
L 641 3341 
Q 956 3463 1253 3523 
Q 1550 3584 1831 3584 
Q 2591 3584 2966 3190 
Q 3341 2797 3341 1997 
z
" transform="scale(0.015625)"/>
      <path id="DejaVuSans-6d" d="M 3328 2828 
Q 3544 3216 3844 3400 
Q 4144 3584 4550 3584 
Q 5097 3584 5394 3201 
Q 5691 2819 5691 2113 
L 5691 0 
L 5113 0 
L 5113 2094 
Q 5113 2597 4934 2840 
Q 4756 3084 4391 3084 
Q 3944 3084 3684 2787 
Q 3425 2491 3425 1978 
L 3425 0 
L 2847 0 
L 2847 2094 
Q 2847 2600 2669 2842 
Q 2491 3084 2119 3084 
Q 1678 3084 1418 2786 
Q 1159 2488 1159 1978 
L 1159 0 
L 581 0 
L 581 3500 
L 1159 3500 
L 1159 2956 
Q 1356 3278 1631 3431 
Q 1906 3584 2284 3584 
Q 2666 3584 2933 3390 
Q 3200 3197 3328 2828 
z
" transform="scale(0.015625)"/>
      <path id="DejaVuSans-66" d="M 2375 4863 
L 2375 4384 
L 1825 4384 
Q 1516 4384 1395 4259 
Q 1275 4134 1275 3809 
L 1275 3500 
L 2222 3500 
L 2222 3053 
L 1275 3053 
L 1275 0 
L 697 0 
L 697 3053 
L 147 3053 
L 147 3500 
L 697 3500 
L 697 3744 
Q 697 4328 969 4595 
Q 1241 4863 1831 4863 
L 2375 4863 
z
" transform="scale(0.015625)"/>
      <path id="DejaVuSans-Oblique-78" d="M 3841 3500 
L 2234 1784 
L 3219 0 
L 2559 0 
L 1819 1388 
L 531 0 
L -166 0 
L 1556 1844 
L 641 3500 
L 1300 3500 
L 1972 2234 
L 3144 3500 
L 3841 3500 
z
" transform="scale(0.015625)"/>
      <path id="DejaVuSans-Oblique-72" d="M 2853 2969 
Q 2766 3016 2653 3041 
Q 2541 3066 2413 3066 
Q 1953 3066 1609 2717 
Q 1266 2369 1153 1784 
L 800 0 
L 225 0 
L 909 3500 
L 1484 3500 
L 1375 2956 
Q 1603 3259 1920 3421 
Q 2238 3584 2597 3584 
Q 2691 3584 2781 3573 
Q 2872 3563 2963 3538 
L 2853 2969 
z
" transform="scale(0.015625)"/>
      <path id="DejaVuSans-5b" d="M 550 4863 
L 1875 4863 
L 1875 4416 
L 1125 4416 
L 1125 -397 
L 1875 -397 
L 1875 -844 
L 550 -844 
L 550 4863 
z
" transform="scale(0.015625)"/>
      <path id="DejaVuSans-Oblique-6e" d="M 3566 2113 
L 3156 0 
L 2578 0 
L 2988 2091 
Q 3016 2238 3031 2350 
Q 3047 2463 3047 2528 
Q 3047 2791 2881 2937 
Q 2716 3084 2419 3084 
Q 1956 3084 1622 2776 
Q 1288 2469 1184 1941 
L 800 0 
L 225 0 
L 903 3500 
L 1478 3500 
L 1363 2950 
Q 1603 3253 1940 3418 
Q 2278 3584 2650 3584 
Q 3113 3584 3367 3334 
Q 3622 3084 3622 2631 
Q 3622 2519 3608 2391 
Q 3594 2263 3566 2113 
z
" transform="scale(0.015625)"/>
      <path id="DejaVuSans-5d" d="M 1947 4863 
L 1947 -844 
L 622 -844 
L 622 -397 
L 1369 -397 
L 1369 4416 
L 622 4416 
L 622 4863 
L 1947 4863 
z
" transform="scale(0.015625)"/>
     </defs>
     <use xlink:href="#DejaVuSans-50" transform="translate(0 0.015625)"/>
     <use xlink:href="#DejaVuSans-65" transform="translate(60.302734 0.015625)"/>
     <use xlink:href="#DejaVuSans-72" transform="translate(121.826172 0.015625)"/>
     <use xlink:href="#DejaVuSans-69" transform="translate(162.939453 0.015625)"/>
     <use xlink:href="#DejaVuSans-6f" transform="translate(190.722656 0.015625)"/>
     <use xlink:href="#DejaVuSans-64" transform="translate(251.904297 0.015625)"/>
     <use xlink:href="#DejaVuSans-6f" transform="translate(315.380859 0.015625)"/>
     <use xlink:href="#DejaVuSans-67" transform="translate(376.5625 0.015625)"/>
     <use xlink:href="#DejaVuSans-72" transform="translate(440.039062 0.015625)"/>
     <use xlink:href="#DejaVuSans-61" transform="translate(481.152344 0.015625)"/>
     <use xlink:href="#DejaVuSans-6d" transform="translate(542.431641 0.015625)"/>
     <use xlink:href="#DejaVuSans-20" transform="translate(639.84375 0.015625)"/>
     <use xlink:href="#DejaVuSans-6f" transform="translate(671.630859 0.015625)"/>
     <use xlink:href="#DejaVuSans-66" transform="translate(732.8125 0.015625)"/>
     <use xlink:href="#DejaVuSans-20" transform="translate(768.017578 0.015625)"/>
     <use xlink:href="#DejaVuSans-Oblique-78" transform="translate(799.804688 0.015625)"/>
     <use xlink:href="#DejaVuSans-Oblique-72" transform="translate(858.984375 -16.390625) scale(0.7)"/>
     <use xlink:href="#DejaVuSans-5b" transform="translate(890.498047 0.015625)"/>
     <use xlink:href="#DejaVuSans-Oblique-6e" transform="translate(929.511719 0.015625)"/>
     <use xlink:href="#DejaVuSans-5d" transform="translate(992.890625 0.015625)"/>
    </g>
   </g>
  </g>
 </g>
 <defs>
  <clipPath id="pe9a41b86a6">
   <rect x="48.982813" y="22.32" width="519.817188" height="228.101875"/>
  </clipPath>
 </defs>
</svg>
