<?xml version="1.0" encoding="utf-8" standalone="no"?>
<!DOCTYPE svg PUBLIC "-//W3C//DTD SVG 1.1//EN"
  "http://www.w3.org/Graphics/SVG/1.1/DTD/svg11.dtd">
<svg xmlns:xlink="http://www.w3.org/1999/xlink" width="576pt" height="288pt" viewBox="0 0 576 288" xmlns="http://www.w3.org/2000/svg" version="1.1">
 <metadata>
  <rdf:RDF xmlns:dc="http://purl.org/dc/elements/1.1/" xmlns:cc="http://creativecommons.org/ns#" xmlns:rdf="http://www.w3.org/1999/02/22-rdf-syntax-ns#">
   <cc:Work>
    <dc:type rdf:resource="http://purl.org/dc/dcmitype/StillImage"/>
    <dc:date>2025-05-04T14:40:26.187706</dc:date>
    <dc:format>image/svg+xml</dc:format>
    <dc:creator>
     <cc:Agent>
      <dc:title>Matplotlib v3.10.1, https://matplotlib.org/</dc:title>
     </cc:Agent>
    </dc:creator>
   </cc:Work>
  </rdf:RDF>
 </metadata>
 <defs>
  <style type="text/css">*{stroke-linejoin: round; stroke-linecap: butt}</style>
 </defs>
 <g id="figure_1">
  <g id="patch_1">
   <path d="M 0 288 
L 576 288 
L 576 0 
L 0 0 
z
" style="fill: #ffffff"/>
  </g>
  <g id="axes_1">
   <g id="patch_2">
    <path d="M 43.78125 250.421875 
L 559.25625 250.421875 
L 559.25625 22.32 
L 43.78125 22.32 
z
" style="fill: #ffffff"/>
   </g>
   <g id="matplotlib.axis_1">
    <g id="xtick_1">
     <g id="line2d_1">
      <path d="M 67.211932 250.421875 
L 67.211932 22.32 
" clip-path="url(#p28a81622cc)" style="fill: none; stroke-dasharray: 2.96,1.28; stroke-dashoffset: 0; stroke: #b0b0b0; stroke-opacity: 0.8; stroke-width: 0.8"/>
     </g>
     <g id="line2d_2">
      <defs>
       <path id="mbdd75b6ee6" d="M 0 0 
L 0 3.5 
" style="stroke: #000000; stroke-width: 0.8"/>
      </defs>
      <g>
       <use xlink:href="#mbdd75b6ee6" x="67.211932" y="250.421875" style="stroke: #000000; stroke-width: 0.8"/>
      </g>
     </g>
     <g id="text_1">
      <!-- 0 -->
      <g transform="translate(64.030682 265.020312) scale(0.1 -0.1)">
       <defs>
        <path id="DejaVuSans-30" d="M 2034 4250 
Q 1547 4250 1301 3770 
Q 1056 3291 1056 2328 
Q 1056 1369 1301 889 
Q 1547 409 2034 409 
Q 2525 409 2770 889 
Q 3016 1369 3016 2328 
Q 3016 3291 2770 3770 
Q 2525 4250 2034 4250 
z
M 2034 4750 
Q 2819 4750 3233 4129 
Q 3647 3509 3647 2328 
Q 3647 1150 3233 529 
Q 2819 -91 2034 -91 
Q 1250 -91 836 529 
Q 422 1150 422 2328 
Q 422 3509 836 4129 
Q 1250 4750 2034 4750 
z
" transform="scale(0.015625)"/>
       </defs>
       <use xlink:href="#DejaVuSans-30"/>
      </g>
     </g>
    </g>
    <g id="xtick_2">
     <g id="line2d_3">
      <path d="M 137.503977 250.421875 
L 137.503977 22.32 
" clip-path="url(#p28a81622cc)" style="fill: none; stroke-dasharray: 2.96,1.28; stroke-dashoffset: 0; stroke: #b0b0b0; stroke-opacity: 0.8; stroke-width: 0.8"/>
     </g>
     <g id="line2d_4">
      <g>
       <use xlink:href="#mbdd75b6ee6" x="137.503977" y="250.421875" style="stroke: #000000; stroke-width: 0.8"/>
      </g>
     </g>
     <g id="text_2">
      <!-- 15 -->
      <g transform="translate(131.141477 265.020312) scale(0.1 -0.1)">
       <defs>
        <path id="DejaVuSans-31" d="M 794 531 
L 1825 531 
L 1825 4091 
L 703 3866 
L 703 4441 
L 1819 4666 
L 2450 4666 
L 2450 531 
L 3481 531 
L 3481 0 
L 794 0 
L 794 531 
z
" transform="scale(0.015625)"/>
        <path id="DejaVuSans-35" d="M 691 4666 
L 3169 4666 
L 3169 4134 
L 1269 4134 
L 1269 2991 
Q 1406 3038 1543 3061 
Q 1681 3084 1819 3084 
Q 2600 3084 3056 2656 
Q 3513 2228 3513 1497 
Q 3513 744 3044 326 
Q 2575 -91 1722 -91 
Q 1428 -91 1123 -41 
Q 819 9 494 109 
L 494 744 
Q 775 591 1075 516 
Q 1375 441 1709 441 
Q 2250 441 2565 725 
Q 2881 1009 2881 1497 
Q 2881 1984 2565 2268 
Q 2250 2553 1709 2553 
Q 1456 2553 1204 2497 
Q 953 2441 691 2322 
L 691 4666 
z
" transform="scale(0.015625)"/>
       </defs>
       <use xlink:href="#DejaVuSans-31"/>
       <use xlink:href="#DejaVuSans-35" transform="translate(63.623047 0)"/>
      </g>
     </g>
    </g>
    <g id="xtick_3">
     <g id="line2d_5">
      <path d="M 207.796023 250.421875 
L 207.796023 22.32 
" clip-path="url(#p28a81622cc)" style="fill: none; stroke-dasharray: 2.96,1.28; stroke-dashoffset: 0; stroke: #b0b0b0; stroke-opacity: 0.8; stroke-width: 0.8"/>
     </g>
     <g id="line2d_6">
      <g>
       <use xlink:href="#mbdd75b6ee6" x="207.796023" y="250.421875" style="stroke: #000000; stroke-width: 0.8"/>
      </g>
     </g>
     <g id="text_3">
      <!-- 30 -->
      <g transform="translate(201.433523 265.020312) scale(0.1 -0.1)">
       <defs>
        <path id="DejaVuSans-33" d="M 2597 2516 
Q 3050 2419 3304 2112 
Q 3559 1806 3559 1356 
Q 3559 666 3084 287 
Q 2609 -91 1734 -91 
Q 1441 -91 1130 -33 
Q 819 25 488 141 
L 488 750 
Q 750 597 1062 519 
Q 1375 441 1716 441 
Q 2309 441 2620 675 
Q 2931 909 2931 1356 
Q 2931 1769 2642 2001 
Q 2353 2234 1838 2234 
L 1294 2234 
L 1294 2753 
L 1863 2753 
Q 2328 2753 2575 2939 
Q 2822 3125 2822 3475 
Q 2822 3834 2567 4026 
Q 2313 4219 1838 4219 
Q 1578 4219 1281 4162 
Q 984 4106 628 3988 
L 628 4550 
Q 988 4650 1302 4700 
Q 1616 4750 1894 4750 
Q 2613 4750 3031 4423 
Q 3450 4097 3450 3541 
Q 3450 3153 3228 2886 
Q 3006 2619 2597 2516 
z
" transform="scale(0.015625)"/>
       </defs>
       <use xlink:href="#DejaVuSans-33"/>
       <use xlink:href="#DejaVuSans-30" transform="translate(63.623047 0)"/>
      </g>
     </g>
    </g>
    <g id="xtick_4">
     <g id="line2d_7">
      <path d="M 278.088068 250.421875 
L 278.088068 22.32 
" clip-path="url(#p28a81622cc)" style="fill: none; stroke-dasharray: 2.96,1.28; stroke-dashoffset: 0; stroke: #b0b0b0; stroke-opacity: 0.8; stroke-width: 0.8"/>
     </g>
     <g id="line2d_8">
      <g>
       <use xlink:href="#mbdd75b6ee6" x="278.088068" y="250.421875" style="stroke: #000000; stroke-width: 0.8"/>
      </g>
     </g>
     <g id="text_4">
      <!-- 45 -->
      <g transform="translate(271.725568 265.020312) scale(0.1 -0.1)">
       <defs>
        <path id="DejaVuSans-34" d="M 2419 4116 
L 825 1625 
L 2419 1625 
L 2419 4116 
z
M 2253 4666 
L 3047 4666 
L 3047 1625 
L 3713 1625 
L 3713 1100 
L 3047 1100 
L 3047 0 
L 2419 0 
L 2419 1100 
L 313 1100 
L 313 1709 
L 2253 4666 
z
" transform="scale(0.015625)"/>
       </defs>
       <use xlink:href="#DejaVuSans-34"/>
       <use xlink:href="#DejaVuSans-35" transform="translate(63.623047 0)"/>
      </g>
     </g>
    </g>
    <g id="xtick_5">
     <g id="line2d_9">
      <path d="M 348.380114 250.421875 
L 348.380114 22.32 
" clip-path="url(#p28a81622cc)" style="fill: none; stroke-dasharray: 2.96,1.28; stroke-dashoffset: 0; stroke: #b0b0b0; stroke-opacity: 0.8; stroke-width: 0.8"/>
     </g>
     <g id="line2d_10">
      <g>
       <use xlink:href="#mbdd75b6ee6" x="348.380114" y="250.421875" style="stroke: #000000; stroke-width: 0.8"/>
      </g>
     </g>
     <g id="text_5">
      <!-- 60 -->
      <g transform="translate(342.017614 265.020312) scale(0.1 -0.1)">
       <defs>
        <path id="DejaVuSans-36" d="M 2113 2584 
Q 1688 2584 1439 2293 
Q 1191 2003 1191 1497 
Q 1191 994 1439 701 
Q 1688 409 2113 409 
Q 2538 409 2786 701 
Q 3034 994 3034 1497 
Q 3034 2003 2786 2293 
Q 2538 2584 2113 2584 
z
M 3366 4563 
L 3366 3988 
Q 3128 4100 2886 4159 
Q 2644 4219 2406 4219 
Q 1781 4219 1451 3797 
Q 1122 3375 1075 2522 
Q 1259 2794 1537 2939 
Q 1816 3084 2150 3084 
Q 2853 3084 3261 2657 
Q 3669 2231 3669 1497 
Q 3669 778 3244 343 
Q 2819 -91 2113 -91 
Q 1303 -91 875 529 
Q 447 1150 447 2328 
Q 447 3434 972 4092 
Q 1497 4750 2381 4750 
Q 2619 4750 2861 4703 
Q 3103 4656 3366 4563 
z
" transform="scale(0.015625)"/>
       </defs>
       <use xlink:href="#DejaVuSans-36"/>
       <use xlink:href="#DejaVuSans-30" transform="translate(63.623047 0)"/>
      </g>
     </g>
    </g>
    <g id="xtick_6">
     <g id="line2d_11">
      <path d="M 418.672159 250.421875 
L 418.672159 22.32 
" clip-path="url(#p28a81622cc)" style="fill: none; stroke-dasharray: 2.96,1.28; stroke-dashoffset: 0; stroke: #b0b0b0; stroke-opacity: 0.8; stroke-width: 0.8"/>
     </g>
     <g id="line2d_12">
      <g>
       <use xlink:href="#mbdd75b6ee6" x="418.672159" y="250.421875" style="stroke: #000000; stroke-width: 0.8"/>
      </g>
     </g>
     <g id="text_6">
      <!-- 75 -->
      <g transform="translate(412.309659 265.020312) scale(0.1 -0.1)">
       <defs>
        <path id="DejaVuSans-37" d="M 525 4666 
L 3525 4666 
L 3525 4397 
L 1831 0 
L 1172 0 
L 2766 4134 
L 525 4134 
L 525 4666 
z
" transform="scale(0.015625)"/>
       </defs>
       <use xlink:href="#DejaVuSans-37"/>
       <use xlink:href="#DejaVuSans-35" transform="translate(63.623047 0)"/>
      </g>
     </g>
    </g>
    <g id="xtick_7">
     <g id="line2d_13">
      <path d="M 488.964205 250.421875 
L 488.964205 22.32 
" clip-path="url(#p28a81622cc)" style="fill: none; stroke-dasharray: 2.96,1.28; stroke-dashoffset: 0; stroke: #b0b0b0; stroke-opacity: 0.8; stroke-width: 0.8"/>
     </g>
     <g id="line2d_14">
      <g>
       <use xlink:href="#mbdd75b6ee6" x="488.964205" y="250.421875" style="stroke: #000000; stroke-width: 0.8"/>
      </g>
     </g>
     <g id="text_7">
      <!-- 90 -->
      <g transform="translate(482.601705 265.020312) scale(0.1 -0.1)">
       <defs>
        <path id="DejaVuSans-39" d="M 703 97 
L 703 672 
Q 941 559 1184 500 
Q 1428 441 1663 441 
Q 2288 441 2617 861 
Q 2947 1281 2994 2138 
Q 2813 1869 2534 1725 
Q 2256 1581 1919 1581 
Q 1219 1581 811 2004 
Q 403 2428 403 3163 
Q 403 3881 828 4315 
Q 1253 4750 1959 4750 
Q 2769 4750 3195 4129 
Q 3622 3509 3622 2328 
Q 3622 1225 3098 567 
Q 2575 -91 1691 -91 
Q 1453 -91 1209 -44 
Q 966 3 703 97 
z
M 1959 2075 
Q 2384 2075 2632 2365 
Q 2881 2656 2881 3163 
Q 2881 3666 2632 3958 
Q 2384 4250 1959 4250 
Q 1534 4250 1286 3958 
Q 1038 3666 1038 3163 
Q 1038 2656 1286 2365 
Q 1534 2075 1959 2075 
z
" transform="scale(0.015625)"/>
       </defs>
       <use xlink:href="#DejaVuSans-39"/>
       <use xlink:href="#DejaVuSans-30" transform="translate(63.623047 0)"/>
      </g>
     </g>
    </g>
    <g id="xtick_8">
     <g id="line2d_15">
      <path d="M 559.25625 250.421875 
L 559.25625 22.32 
" clip-path="url(#p28a81622cc)" style="fill: none; stroke-dasharray: 2.96,1.28; stroke-dashoffset: 0; stroke: #b0b0b0; stroke-opacity: 0.8; stroke-width: 0.8"/>
     </g>
     <g id="line2d_16">
      <g>
       <use xlink:href="#mbdd75b6ee6" x="559.25625" y="250.421875" style="stroke: #000000; stroke-width: 0.8"/>
      </g>
     </g>
     <g id="text_8">
      <!-- 105 -->
      <g transform="translate(549.7125 265.020312) scale(0.1 -0.1)">
       <use xlink:href="#DejaVuSans-31"/>
       <use xlink:href="#DejaVuSans-30" transform="translate(63.623047 0)"/>
       <use xlink:href="#DejaVuSans-35" transform="translate(127.246094 0)"/>
      </g>
     </g>
    </g>
    <g id="text_9">
     <!-- Sample, $n$ -->
     <g transform="translate(276.41875 278.7) scale(0.1 -0.1)">
      <defs>
       <path id="DejaVuSans-53" d="M 3425 4513 
L 3425 3897 
Q 3066 4069 2747 4153 
Q 2428 4238 2131 4238 
Q 1616 4238 1336 4038 
Q 1056 3838 1056 3469 
Q 1056 3159 1242 3001 
Q 1428 2844 1947 2747 
L 2328 2669 
Q 3034 2534 3370 2195 
Q 3706 1856 3706 1288 
Q 3706 609 3251 259 
Q 2797 -91 1919 -91 
Q 1588 -91 1214 -16 
Q 841 59 441 206 
L 441 856 
Q 825 641 1194 531 
Q 1563 422 1919 422 
Q 2459 422 2753 634 
Q 3047 847 3047 1241 
Q 3047 1584 2836 1778 
Q 2625 1972 2144 2069 
L 1759 2144 
Q 1053 2284 737 2584 
Q 422 2884 422 3419 
Q 422 4038 858 4394 
Q 1294 4750 2059 4750 
Q 2388 4750 2728 4690 
Q 3069 4631 3425 4513 
z
" transform="scale(0.015625)"/>
       <path id="DejaVuSans-61" d="M 2194 1759 
Q 1497 1759 1228 1600 
Q 959 1441 959 1056 
Q 959 750 1161 570 
Q 1363 391 1709 391 
Q 2188 391 2477 730 
Q 2766 1069 2766 1631 
L 2766 1759 
L 2194 1759 
z
M 3341 1997 
L 3341 0 
L 2766 0 
L 2766 531 
Q 2569 213 2275 61 
Q 1981 -91 1556 -91 
Q 1019 -91 701 211 
Q 384 513 384 1019 
Q 384 1609 779 1909 
Q 1175 2209 1959 2209 
L 2766 2209 
L 2766 2266 
Q 2766 2663 2505 2880 
Q 2244 3097 1772 3097 
Q 1472 3097 1187 3025 
Q 903 2953 641 2809 
L 641 3341 
Q 956 3463 1253 3523 
Q 1550 3584 1831 3584 
Q 2591 3584 2966 3190 
Q 3341 2797 3341 1997 
z
" transform="scale(0.015625)"/>
       <path id="DejaVuSans-6d" d="M 3328 2828 
Q 3544 3216 3844 3400 
Q 4144 3584 4550 3584 
Q 5097 3584 5394 3201 
Q 5691 2819 5691 2113 
L 5691 0 
L 5113 0 
L 5113 2094 
Q 5113 2597 4934 2840 
Q 4756 3084 4391 3084 
Q 3944 3084 3684 2787 
Q 3425 2491 3425 1978 
L 3425 0 
L 2847 0 
L 2847 2094 
Q 2847 2600 2669 2842 
Q 2491 3084 2119 3084 
Q 1678 3084 1418 2786 
Q 1159 2488 1159 1978 
L 1159 0 
L 581 0 
L 581 3500 
L 1159 3500 
L 1159 2956 
Q 1356 3278 1631 3431 
Q 1906 3584 2284 3584 
Q 2666 3584 2933 3390 
Q 3200 3197 3328 2828 
z
" transform="scale(0.015625)"/>
       <path id="DejaVuSans-70" d="M 1159 525 
L 1159 -1331 
L 581 -1331 
L 581 3500 
L 1159 3500 
L 1159 2969 
Q 1341 3281 1617 3432 
Q 1894 3584 2278 3584 
Q 2916 3584 3314 3078 
Q 3713 2572 3713 1747 
Q 3713 922 3314 415 
Q 2916 -91 2278 -91 
Q 1894 -91 1617 61 
Q 1341 213 1159 525 
z
M 3116 1747 
Q 3116 2381 2855 2742 
Q 2594 3103 2138 3103 
Q 1681 3103 1420 2742 
Q 1159 2381 1159 1747 
Q 1159 1113 1420 752 
Q 1681 391 2138 391 
Q 2594 391 2855 752 
Q 3116 1113 3116 1747 
z
" transform="scale(0.015625)"/>
       <path id="DejaVuSans-6c" d="M 603 4863 
L 1178 4863 
L 1178 0 
L 603 0 
L 603 4863 
z
" transform="scale(0.015625)"/>
       <path id="DejaVuSans-65" d="M 3597 1894 
L 3597 1613 
L 953 1613 
Q 991 1019 1311 708 
Q 1631 397 2203 397 
Q 2534 397 2845 478 
Q 3156 559 3463 722 
L 3463 178 
Q 3153 47 2828 -22 
Q 2503 -91 2169 -91 
Q 1331 -91 842 396 
Q 353 884 353 1716 
Q 353 2575 817 3079 
Q 1281 3584 2069 3584 
Q 2775 3584 3186 3129 
Q 3597 2675 3597 1894 
z
M 3022 2063 
Q 3016 2534 2758 2815 
Q 2500 3097 2075 3097 
Q 1594 3097 1305 2825 
Q 1016 2553 972 2059 
L 3022 2063 
z
" transform="scale(0.015625)"/>
       <path id="DejaVuSans-2c" d="M 750 794 
L 1409 794 
L 1409 256 
L 897 -744 
L 494 -744 
L 750 256 
L 750 794 
z
" transform="scale(0.015625)"/>
       <path id="DejaVuSans-20" transform="scale(0.015625)"/>
       <path id="DejaVuSans-Oblique-6e" d="M 3566 2113 
L 3156 0 
L 2578 0 
L 2988 2091 
Q 3016 2238 3031 2350 
Q 3047 2463 3047 2528 
Q 3047 2791 2881 2937 
Q 2716 3084 2419 3084 
Q 1956 3084 1622 2776 
Q 1288 2469 1184 1941 
L 800 0 
L 225 0 
L 903 3500 
L 1478 3500 
L 1363 2950 
Q 1603 3253 1940 3418 
Q 2278 3584 2650 3584 
Q 3113 3584 3367 3334 
Q 3622 3084 3622 2631 
Q 3622 2519 3608 2391 
Q 3594 2263 3566 2113 
z
" transform="scale(0.015625)"/>
      </defs>
      <use xlink:href="#DejaVuSans-53" transform="translate(0 0.015625)"/>
      <use xlink:href="#DejaVuSans-61" transform="translate(63.476562 0.015625)"/>
      <use xlink:href="#DejaVuSans-6d" transform="translate(124.755859 0.015625)"/>
      <use xlink:href="#DejaVuSans-70" transform="translate(222.167969 0.015625)"/>
      <use xlink:href="#DejaVuSans-6c" transform="translate(285.644531 0.015625)"/>
      <use xlink:href="#DejaVuSans-65" transform="translate(313.427734 0.015625)"/>
      <use xlink:href="#DejaVuSans-2c" transform="translate(374.951172 0.015625)"/>
      <use xlink:href="#DejaVuSans-20" transform="translate(406.738281 0.015625)"/>
      <use xlink:href="#DejaVuSans-Oblique-6e" transform="translate(438.525391 0.015625)"/>
     </g>
    </g>
   </g>
   <g id="matplotlib.axis_2">
    <g id="ytick_1">
     <g id="line2d_17">
      <path d="M 43.78125 214.297116 
L 559.25625 214.297116 
" clip-path="url(#p28a81622cc)" style="fill: none; stroke-dasharray: 2.96,1.28; stroke-dashoffset: 0; stroke: #b0b0b0; stroke-opacity: 0.8; stroke-width: 0.8"/>
     </g>
     <g id="line2d_18">
      <defs>
       <path id="mf94882983e" d="M 0 0 
L -3.5 0 
" style="stroke: #000000; stroke-width: 0.8"/>
      </defs>
      <g>
       <use xlink:href="#mf94882983e" x="43.78125" y="214.297116" style="stroke: #000000; stroke-width: 0.8"/>
      </g>
     </g>
     <g id="text_10">
      <!-- 0.0 -->
      <g transform="translate(20.878125 218.096334) scale(0.1 -0.1)">
       <defs>
        <path id="DejaVuSans-2e" d="M 684 794 
L 1344 794 
L 1344 0 
L 684 0 
L 684 794 
z
" transform="scale(0.015625)"/>
       </defs>
       <use xlink:href="#DejaVuSans-30"/>
       <use xlink:href="#DejaVuSans-2e" transform="translate(63.623047 0)"/>
       <use xlink:href="#DejaVuSans-30" transform="translate(95.410156 0)"/>
      </g>
     </g>
    </g>
    <g id="ytick_2">
     <g id="line2d_19">
      <path d="M 43.78125 163.772134 
L 559.25625 163.772134 
" clip-path="url(#p28a81622cc)" style="fill: none; stroke-dasharray: 2.96,1.28; stroke-dashoffset: 0; stroke: #b0b0b0; stroke-opacity: 0.8; stroke-width: 0.8"/>
     </g>
     <g id="line2d_20">
      <g>
       <use xlink:href="#mf94882983e" x="43.78125" y="163.772134" style="stroke: #000000; stroke-width: 0.8"/>
      </g>
     </g>
     <g id="text_11">
      <!-- 0.1 -->
      <g transform="translate(20.878125 167.571353) scale(0.1 -0.1)">
       <use xlink:href="#DejaVuSans-30"/>
       <use xlink:href="#DejaVuSans-2e" transform="translate(63.623047 0)"/>
       <use xlink:href="#DejaVuSans-31" transform="translate(95.410156 0)"/>
      </g>
     </g>
    </g>
    <g id="ytick_3">
     <g id="line2d_21">
      <path d="M 43.78125 113.247152 
L 559.25625 113.247152 
" clip-path="url(#p28a81622cc)" style="fill: none; stroke-dasharray: 2.96,1.28; stroke-dashoffset: 0; stroke: #b0b0b0; stroke-opacity: 0.8; stroke-width: 0.8"/>
     </g>
     <g id="line2d_22">
      <g>
       <use xlink:href="#mf94882983e" x="43.78125" y="113.247152" style="stroke: #000000; stroke-width: 0.8"/>
      </g>
     </g>
     <g id="text_12">
      <!-- 0.2 -->
      <g transform="translate(20.878125 117.046371) scale(0.1 -0.1)">
       <defs>
        <path id="DejaVuSans-32" d="M 1228 531 
L 3431 531 
L 3431 0 
L 469 0 
L 469 531 
Q 828 903 1448 1529 
Q 2069 2156 2228 2338 
Q 2531 2678 2651 2914 
Q 2772 3150 2772 3378 
Q 2772 3750 2511 3984 
Q 2250 4219 1831 4219 
Q 1534 4219 1204 4116 
Q 875 4013 500 3803 
L 500 4441 
Q 881 4594 1212 4672 
Q 1544 4750 1819 4750 
Q 2544 4750 2975 4387 
Q 3406 4025 3406 3419 
Q 3406 3131 3298 2873 
Q 3191 2616 2906 2266 
Q 2828 2175 2409 1742 
Q 1991 1309 1228 531 
z
" transform="scale(0.015625)"/>
       </defs>
       <use xlink:href="#DejaVuSans-30"/>
       <use xlink:href="#DejaVuSans-2e" transform="translate(63.623047 0)"/>
       <use xlink:href="#DejaVuSans-32" transform="translate(95.410156 0)"/>
      </g>
     </g>
    </g>
    <g id="ytick_4">
     <g id="line2d_23">
      <path d="M 43.78125 62.72217 
L 559.25625 62.72217 
" clip-path="url(#p28a81622cc)" style="fill: none; stroke-dasharray: 2.96,1.28; stroke-dashoffset: 0; stroke: #b0b0b0; stroke-opacity: 0.8; stroke-width: 0.8"/>
     </g>
     <g id="line2d_24">
      <g>
       <use xlink:href="#mf94882983e" x="43.78125" y="62.72217" style="stroke: #000000; stroke-width: 0.8"/>
      </g>
     </g>
     <g id="text_13">
      <!-- 0.3 -->
      <g transform="translate(20.878125 66.521389) scale(0.1 -0.1)">
       <use xlink:href="#DejaVuSans-30"/>
       <use xlink:href="#DejaVuSans-2e" transform="translate(63.623047 0)"/>
       <use xlink:href="#DejaVuSans-33" transform="translate(95.410156 0)"/>
      </g>
     </g>
    </g>
    <g id="text_14">
     <!-- Amplitude -->
     <g transform="translate(14.798438 161.993594) rotate(-90) scale(0.1 -0.1)">
      <defs>
       <path id="DejaVuSans-41" d="M 2188 4044 
L 1331 1722 
L 3047 1722 
L 2188 4044 
z
M 1831 4666 
L 2547 4666 
L 4325 0 
L 3669 0 
L 3244 1197 
L 1141 1197 
L 716 0 
L 50 0 
L 1831 4666 
z
" transform="scale(0.015625)"/>
       <path id="DejaVuSans-69" d="M 603 3500 
L 1178 3500 
L 1178 0 
L 603 0 
L 603 3500 
z
M 603 4863 
L 1178 4863 
L 1178 4134 
L 603 4134 
L 603 4863 
z
" transform="scale(0.015625)"/>
       <path id="DejaVuSans-74" d="M 1172 4494 
L 1172 3500 
L 2356 3500 
L 2356 3053 
L 1172 3053 
L 1172 1153 
Q 1172 725 1289 603 
Q 1406 481 1766 481 
L 2356 481 
L 2356 0 
L 1766 0 
Q 1100 0 847 248 
Q 594 497 594 1153 
L 594 3053 
L 172 3053 
L 172 3500 
L 594 3500 
L 594 4494 
L 1172 4494 
z
" transform="scale(0.015625)"/>
       <path id="DejaVuSans-75" d="M 544 1381 
L 544 3500 
L 1119 3500 
L 1119 1403 
Q 1119 906 1312 657 
Q 1506 409 1894 409 
Q 2359 409 2629 706 
Q 2900 1003 2900 1516 
L 2900 3500 
L 3475 3500 
L 3475 0 
L 2900 0 
L 2900 538 
Q 2691 219 2414 64 
Q 2138 -91 1772 -91 
Q 1169 -91 856 284 
Q 544 659 544 1381 
z
M 1991 3584 
L 1991 3584 
z
" transform="scale(0.015625)"/>
       <path id="DejaVuSans-64" d="M 2906 2969 
L 2906 4863 
L 3481 4863 
L 3481 0 
L 2906 0 
L 2906 525 
Q 2725 213 2448 61 
Q 2172 -91 1784 -91 
Q 1150 -91 751 415 
Q 353 922 353 1747 
Q 353 2572 751 3078 
Q 1150 3584 1784 3584 
Q 2172 3584 2448 3432 
Q 2725 3281 2906 2969 
z
M 947 1747 
Q 947 1113 1208 752 
Q 1469 391 1925 391 
Q 2381 391 2643 752 
Q 2906 1113 2906 1747 
Q 2906 2381 2643 2742 
Q 2381 3103 1925 3103 
Q 1469 3103 1208 2742 
Q 947 2381 947 1747 
z
" transform="scale(0.015625)"/>
      </defs>
      <use xlink:href="#DejaVuSans-41"/>
      <use xlink:href="#DejaVuSans-6d" transform="translate(68.408203 0)"/>
      <use xlink:href="#DejaVuSans-70" transform="translate(165.820312 0)"/>
      <use xlink:href="#DejaVuSans-6c" transform="translate(229.296875 0)"/>
      <use xlink:href="#DejaVuSans-69" transform="translate(257.080078 0)"/>
      <use xlink:href="#DejaVuSans-74" transform="translate(284.863281 0)"/>
      <use xlink:href="#DejaVuSans-75" transform="translate(324.072266 0)"/>
      <use xlink:href="#DejaVuSans-64" transform="translate(387.451172 0)"/>
      <use xlink:href="#DejaVuSans-65" transform="translate(450.927734 0)"/>
     </g>
    </g>
   </g>
   <g id="line2d_25"/>
   <g id="LineCollection_1">
    <path d="M 67.211932 214.297116 
L 67.211932 214.399862 
" clip-path="url(#p28a81622cc)" style="fill: none; stroke: #1f77b4"/>
    <path d="M 71.898068 214.297116 
L 71.898068 213.919088 
" clip-path="url(#p28a81622cc)" style="fill: none; stroke: #1f77b4"/>
    <path d="M 76.584205 214.297116 
L 76.584205 213.504934 
" clip-path="url(#p28a81622cc)" style="fill: none; stroke: #1f77b4"/>
    <path d="M 81.270341 214.297116 
L 81.270341 213.257453 
" clip-path="url(#p28a81622cc)" style="fill: none; stroke: #1f77b4"/>
    <path d="M 85.956477 214.297116 
L 85.956477 213.247431 
" clip-path="url(#p28a81622cc)" style="fill: none; stroke: #1f77b4"/>
    <path d="M 90.642614 214.297116 
L 90.642614 213.497936 
" clip-path="url(#p28a81622cc)" style="fill: none; stroke: #1f77b4"/>
    <path d="M 95.32875 214.297116 
L 95.32875 213.974788 
" clip-path="url(#p28a81622cc)" style="fill: none; stroke: #1f77b4"/>
    <path d="M 100.014886 214.297116 
L 100.014886 214.58881 
" clip-path="url(#p28a81622cc)" style="fill: none; stroke: #1f77b4"/>
    <path d="M 104.701023 214.297116 
L 104.701023 215.210441 
" clip-path="url(#p28a81622cc)" style="fill: none; stroke: #1f77b4"/>
    <path d="M 109.387159 214.297116 
L 109.387159 215.694652 
" clip-path="url(#p28a81622cc)" style="fill: none; stroke: #1f77b4"/>
    <path d="M 114.073295 214.297116 
L 114.073295 215.911702 
" clip-path="url(#p28a81622cc)" style="fill: none; stroke: #1f77b4"/>
    <path d="M 118.759432 214.297116 
L 118.759432 215.777601 
" clip-path="url(#p28a81622cc)" style="fill: none; stroke: #1f77b4"/>
    <path d="M 123.445568 214.297116 
L 123.445568 215.277612 
" clip-path="url(#p28a81622cc)" style="fill: none; stroke: #1f77b4"/>
    <path d="M 128.131705 214.297116 
L 128.131705 214.477024 
" clip-path="url(#p28a81622cc)" style="fill: none; stroke: #1f77b4"/>
    <path d="M 132.817841 214.297116 
L 132.817841 213.515509 
" clip-path="url(#p28a81622cc)" style="fill: none; stroke: #1f77b4"/>
    <path d="M 137.503977 214.297116 
L 137.503977 212.584588 
" clip-path="url(#p28a81622cc)" style="fill: none; stroke: #1f77b4"/>
    <path d="M 142.190114 214.297116 
L 142.190114 211.891229 
" clip-path="url(#p28a81622cc)" style="fill: none; stroke: #1f77b4"/>
    <path d="M 146.87625 214.297116 
L 146.87625 211.613873 
" clip-path="url(#p28a81622cc)" style="fill: none; stroke: #1f77b4"/>
    <path d="M 151.562386 214.297116 
L 151.562386 211.859476 
" clip-path="url(#p28a81622cc)" style="fill: none; stroke: #1f77b4"/>
    <path d="M 156.248523 214.297116 
L 156.248523 212.630883 
" clip-path="url(#p28a81622cc)" style="fill: none; stroke: #1f77b4"/>
    <path d="M 160.934659 214.297116 
L 160.934659 213.81274 
" clip-path="url(#p28a81622cc)" style="fill: none; stroke: #1f77b4"/>
    <path d="M 165.620795 214.297116 
L 165.620795 215.181234 
" clip-path="url(#p28a81622cc)" style="fill: none; stroke: #1f77b4"/>
    <path d="M 170.306932 214.297116 
L 170.306932 216.43866 
" clip-path="url(#p28a81622cc)" style="fill: none; stroke: #1f77b4"/>
    <path d="M 174.993068 214.297116 
L 174.993068 217.268809 
" clip-path="url(#p28a81622cc)" style="fill: none; stroke: #1f77b4"/>
    <path d="M 179.679205 214.297116 
L 179.679205 217.404452 
" clip-path="url(#p28a81622cc)" style="fill: none; stroke: #1f77b4"/>
    <path d="M 184.365341 214.297116 
L 184.365341 216.694655 
" clip-path="url(#p28a81622cc)" style="fill: none; stroke: #1f77b4"/>
    <path d="M 189.051477 214.297116 
L 189.051477 215.158135 
" clip-path="url(#p28a81622cc)" style="fill: none; stroke: #1f77b4"/>
    <path d="M 193.737614 214.297116 
L 193.737614 213.009846 
" clip-path="url(#p28a81622cc)" style="fill: none; stroke: #1f77b4"/>
    <path d="M 198.42375 214.297116 
L 198.42375 210.651541 
" clip-path="url(#p28a81622cc)" style="fill: none; stroke: #1f77b4"/>
    <path d="M 203.109886 214.297116 
L 203.109886 208.622782 
" clip-path="url(#p28a81622cc)" style="fill: none; stroke: #1f77b4"/>
    <path d="M 207.796023 214.297116 
L 207.796023 207.515851 
" clip-path="url(#p28a81622cc)" style="fill: none; stroke: #1f77b4"/>
    <path d="M 212.482159 214.297116 
L 212.482159 207.865211 
" clip-path="url(#p28a81622cc)" style="fill: none; stroke: #1f77b4"/>
    <path d="M 217.168295 214.297116 
L 217.168295 210.02809 
" clip-path="url(#p28a81622cc)" style="fill: none; stroke: #1f77b4"/>
    <path d="M 221.854432 214.297116 
L 221.854432 214.076456 
" clip-path="url(#p28a81622cc)" style="fill: none; stroke: #1f77b4"/>
    <path d="M 226.540568 214.297116 
L 226.540568 219.721025 
" clip-path="url(#p28a81622cc)" style="fill: none; stroke: #1f77b4"/>
    <path d="M 231.226705 214.297116 
L 231.226705 226.28481 
" clip-path="url(#p28a81622cc)" style="fill: none; stroke: #1f77b4"/>
    <path d="M 235.912841 214.297116 
L 235.912841 232.737264 
" clip-path="url(#p28a81622cc)" style="fill: none; stroke: #1f77b4"/>
    <path d="M 240.598977 214.297116 
L 240.598977 237.791073 
" clip-path="url(#p28a81622cc)" style="fill: none; stroke: #1f77b4"/>
    <path d="M 245.285114 214.297116 
L 245.285114 240.053608 
" clip-path="url(#p28a81622cc)" style="fill: none; stroke: #1f77b4"/>
    <path d="M 249.97125 214.297116 
L 249.97125 238.215369 
" clip-path="url(#p28a81622cc)" style="fill: none; stroke: #1f77b4"/>
    <path d="M 254.657386 214.297116 
L 254.657386 231.250276 
" clip-path="url(#p28a81622cc)" style="fill: none; stroke: #1f77b4"/>
    <path d="M 259.343523 214.297116 
L 259.343523 218.598613 
" clip-path="url(#p28a81622cc)" style="fill: none; stroke: #1f77b4"/>
    <path d="M 264.029659 214.297116 
L 264.029659 200.303803 
" clip-path="url(#p28a81622cc)" style="fill: none; stroke: #1f77b4"/>
    <path d="M 268.715795 214.297116 
L 268.715795 177.079089 
" clip-path="url(#p28a81622cc)" style="fill: none; stroke: #1f77b4"/>
    <path d="M 273.401932 214.297116 
L 273.401932 150.289144 
" clip-path="url(#p28a81622cc)" style="fill: none; stroke: #1f77b4"/>
    <path d="M 278.088068 214.297116 
L 278.088068 121.843355 
" clip-path="url(#p28a81622cc)" style="fill: none; stroke: #1f77b4"/>
    <path d="M 282.774205 214.297116 
L 282.774205 94.010326 
" clip-path="url(#p28a81622cc)" style="fill: none; stroke: #1f77b4"/>
    <path d="M 287.460341 214.297116 
L 287.460341 69.175101 
" clip-path="url(#p28a81622cc)" style="fill: none; stroke: #1f77b4"/>
    <path d="M 292.146477 214.297116 
L 292.146477 49.569585 
" clip-path="url(#p28a81622cc)" style="fill: none; stroke: #1f77b4"/>
    <path d="M 296.832614 214.297116 
L 296.832614 37.011682 
" clip-path="url(#p28a81622cc)" style="fill: none; stroke: #1f77b4"/>
    <path d="M 301.51875 214.297116 
L 301.51875 32.688267 
" clip-path="url(#p28a81622cc)" style="fill: none; stroke: #1f77b4"/>
    <path d="M 306.204886 214.297116 
L 306.204886 37.011682 
" clip-path="url(#p28a81622cc)" style="fill: none; stroke: #1f77b4"/>
    <path d="M 310.891023 214.297116 
L 310.891023 49.569585 
" clip-path="url(#p28a81622cc)" style="fill: none; stroke: #1f77b4"/>
    <path d="M 315.577159 214.297116 
L 315.577159 69.175101 
" clip-path="url(#p28a81622cc)" style="fill: none; stroke: #1f77b4"/>
    <path d="M 320.263295 214.297116 
L 320.263295 94.010326 
" clip-path="url(#p28a81622cc)" style="fill: none; stroke: #1f77b4"/>
    <path d="M 324.949432 214.297116 
L 324.949432 121.843355 
" clip-path="url(#p28a81622cc)" style="fill: none; stroke: #1f77b4"/>
    <path d="M 329.635568 214.297116 
L 329.635568 150.289144 
" clip-path="url(#p28a81622cc)" style="fill: none; stroke: #1f77b4"/>
    <path d="M 334.321705 214.297116 
L 334.321705 177.079089 
" clip-path="url(#p28a81622cc)" style="fill: none; stroke: #1f77b4"/>
    <path d="M 339.007841 214.297116 
L 339.007841 200.303803 
" clip-path="url(#p28a81622cc)" style="fill: none; stroke: #1f77b4"/>
    <path d="M 343.693977 214.297116 
L 343.693977 218.598613 
" clip-path="url(#p28a81622cc)" style="fill: none; stroke: #1f77b4"/>
    <path d="M 348.380114 214.297116 
L 348.380114 231.250276 
" clip-path="url(#p28a81622cc)" style="fill: none; stroke: #1f77b4"/>
    <path d="M 353.06625 214.297116 
L 353.06625 238.215369 
" clip-path="url(#p28a81622cc)" style="fill: none; stroke: #1f77b4"/>
    <path d="M 357.752386 214.297116 
L 357.752386 240.053608 
" clip-path="url(#p28a81622cc)" style="fill: none; stroke: #1f77b4"/>
    <path d="M 362.438523 214.297116 
L 362.438523 237.791073 
" clip-path="url(#p28a81622cc)" style="fill: none; stroke: #1f77b4"/>
    <path d="M 367.124659 214.297116 
L 367.124659 232.737264 
" clip-path="url(#p28a81622cc)" style="fill: none; stroke: #1f77b4"/>
    <path d="M 371.810795 214.297116 
L 371.810795 226.28481 
" clip-path="url(#p28a81622cc)" style="fill: none; stroke: #1f77b4"/>
    <path d="M 376.496932 214.297116 
L 376.496932 219.721025 
" clip-path="url(#p28a81622cc)" style="fill: none; stroke: #1f77b4"/>
    <path d="M 381.183068 214.297116 
L 381.183068 214.076456 
" clip-path="url(#p28a81622cc)" style="fill: none; stroke: #1f77b4"/>
    <path d="M 385.869205 214.297116 
L 385.869205 210.02809 
" clip-path="url(#p28a81622cc)" style="fill: none; stroke: #1f77b4"/>
    <path d="M 390.555341 214.297116 
L 390.555341 207.865211 
" clip-path="url(#p28a81622cc)" style="fill: none; stroke: #1f77b4"/>
    <path d="M 395.241477 214.297116 
L 395.241477 207.515851 
" clip-path="url(#p28a81622cc)" style="fill: none; stroke: #1f77b4"/>
    <path d="M 399.927614 214.297116 
L 399.927614 208.622782 
" clip-path="url(#p28a81622cc)" style="fill: none; stroke: #1f77b4"/>
    <path d="M 404.61375 214.297116 
L 404.61375 210.651541 
" clip-path="url(#p28a81622cc)" style="fill: none; stroke: #1f77b4"/>
    <path d="M 409.299886 214.297116 
L 409.299886 213.009846 
" clip-path="url(#p28a81622cc)" style="fill: none; stroke: #1f77b4"/>
    <path d="M 413.986023 214.297116 
L 413.986023 215.158135 
" clip-path="url(#p28a81622cc)" style="fill: none; stroke: #1f77b4"/>
    <path d="M 418.672159 214.297116 
L 418.672159 216.694655 
" clip-path="url(#p28a81622cc)" style="fill: none; stroke: #1f77b4"/>
    <path d="M 423.358295 214.297116 
L 423.358295 217.404452 
" clip-path="url(#p28a81622cc)" style="fill: none; stroke: #1f77b4"/>
    <path d="M 428.044432 214.297116 
L 428.044432 217.268809 
" clip-path="url(#p28a81622cc)" style="fill: none; stroke: #1f77b4"/>
    <path d="M 432.730568 214.297116 
L 432.730568 216.43866 
" clip-path="url(#p28a81622cc)" style="fill: none; stroke: #1f77b4"/>
    <path d="M 437.416705 214.297116 
L 437.416705 215.181234 
" clip-path="url(#p28a81622cc)" style="fill: none; stroke: #1f77b4"/>
    <path d="M 442.102841 214.297116 
L 442.102841 213.81274 
" clip-path="url(#p28a81622cc)" style="fill: none; stroke: #1f77b4"/>
    <path d="M 446.788977 214.297116 
L 446.788977 212.630883 
" clip-path="url(#p28a81622cc)" style="fill: none; stroke: #1f77b4"/>
    <path d="M 451.475114 214.297116 
L 451.475114 211.859476 
" clip-path="url(#p28a81622cc)" style="fill: none; stroke: #1f77b4"/>
    <path d="M 456.16125 214.297116 
L 456.16125 211.613873 
" clip-path="url(#p28a81622cc)" style="fill: none; stroke: #1f77b4"/>
    <path d="M 460.847386 214.297116 
L 460.847386 211.891229 
" clip-path="url(#p28a81622cc)" style="fill: none; stroke: #1f77b4"/>
    <path d="M 465.533523 214.297116 
L 465.533523 212.584588 
" clip-path="url(#p28a81622cc)" style="fill: none; stroke: #1f77b4"/>
    <path d="M 470.219659 214.297116 
L 470.219659 213.515509 
" clip-path="url(#p28a81622cc)" style="fill: none; stroke: #1f77b4"/>
    <path d="M 474.905795 214.297116 
L 474.905795 214.477024 
" clip-path="url(#p28a81622cc)" style="fill: none; stroke: #1f77b4"/>
    <path d="M 479.591932 214.297116 
L 479.591932 215.277612 
" clip-path="url(#p28a81622cc)" style="fill: none; stroke: #1f77b4"/>
    <path d="M 484.278068 214.297116 
L 484.278068 215.777601 
" clip-path="url(#p28a81622cc)" style="fill: none; stroke: #1f77b4"/>
    <path d="M 488.964205 214.297116 
L 488.964205 215.911702 
" clip-path="url(#p28a81622cc)" style="fill: none; stroke: #1f77b4"/>
    <path d="M 493.650341 214.297116 
L 493.650341 215.694652 
" clip-path="url(#p28a81622cc)" style="fill: none; stroke: #1f77b4"/>
    <path d="M 498.336477 214.297116 
L 498.336477 215.210441 
" clip-path="url(#p28a81622cc)" style="fill: none; stroke: #1f77b4"/>
    <path d="M 503.022614 214.297116 
L 503.022614 214.58881 
" clip-path="url(#p28a81622cc)" style="fill: none; stroke: #1f77b4"/>
    <path d="M 507.70875 214.297116 
L 507.70875 213.974788 
" clip-path="url(#p28a81622cc)" style="fill: none; stroke: #1f77b4"/>
    <path d="M 512.394886 214.297116 
L 512.394886 213.497936 
" clip-path="url(#p28a81622cc)" style="fill: none; stroke: #1f77b4"/>
    <path d="M 517.081023 214.297116 
L 517.081023 213.247431 
" clip-path="url(#p28a81622cc)" style="fill: none; stroke: #1f77b4"/>
    <path d="M 521.767159 214.297116 
L 521.767159 213.257453 
" clip-path="url(#p28a81622cc)" style="fill: none; stroke: #1f77b4"/>
    <path d="M 526.453295 214.297116 
L 526.453295 213.504934 
" clip-path="url(#p28a81622cc)" style="fill: none; stroke: #1f77b4"/>
    <path d="M 531.139432 214.297116 
L 531.139432 213.919088 
" clip-path="url(#p28a81622cc)" style="fill: none; stroke: #1f77b4"/>
    <path d="M 535.825568 214.297116 
L 535.825568 214.399862 
" clip-path="url(#p28a81622cc)" style="fill: none; stroke: #1f77b4"/>
   </g>
   <g id="line2d_26">
    <defs>
     <path id="m87b5db12f9" d="M 0 3 
C 0.795609 3 1.55874 2.683901 2.12132 2.12132 
C 2.683901 1.55874 3 0.795609 3 0 
C 3 -0.795609 2.683901 -1.55874 2.12132 -2.12132 
C 1.55874 -2.683901 0.795609 -3 0 -3 
C -0.795609 -3 -1.55874 -2.683901 -2.12132 -2.12132 
C -2.683901 -1.55874 -3 -0.795609 -3 0 
C -3 0.795609 -2.683901 1.55874 -2.12132 2.12132 
C -1.55874 2.683901 -0.795609 3 0 3 
z
" style="stroke: #1f77b4"/>
    </defs>
    <g clip-path="url(#p28a81622cc)">
     <use xlink:href="#m87b5db12f9" x="67.211932" y="214.399862" style="fill-opacity: 0; stroke: #1f77b4"/>
     <use xlink:href="#m87b5db12f9" x="71.898068" y="213.919088" style="fill-opacity: 0; stroke: #1f77b4"/>
     <use xlink:href="#m87b5db12f9" x="76.584205" y="213.504934" style="fill-opacity: 0; stroke: #1f77b4"/>
     <use xlink:href="#m87b5db12f9" x="81.270341" y="213.257453" style="fill-opacity: 0; stroke: #1f77b4"/>
     <use xlink:href="#m87b5db12f9" x="85.956477" y="213.247431" style="fill-opacity: 0; stroke: #1f77b4"/>
     <use xlink:href="#m87b5db12f9" x="90.642614" y="213.497936" style="fill-opacity: 0; stroke: #1f77b4"/>
     <use xlink:href="#m87b5db12f9" x="95.32875" y="213.974788" style="fill-opacity: 0; stroke: #1f77b4"/>
     <use xlink:href="#m87b5db12f9" x="100.014886" y="214.58881" style="fill-opacity: 0; stroke: #1f77b4"/>
     <use xlink:href="#m87b5db12f9" x="104.701023" y="215.210441" style="fill-opacity: 0; stroke: #1f77b4"/>
     <use xlink:href="#m87b5db12f9" x="109.387159" y="215.694652" style="fill-opacity: 0; stroke: #1f77b4"/>
     <use xlink:href="#m87b5db12f9" x="114.073295" y="215.911702" style="fill-opacity: 0; stroke: #1f77b4"/>
     <use xlink:href="#m87b5db12f9" x="118.759432" y="215.777601" style="fill-opacity: 0; stroke: #1f77b4"/>
     <use xlink:href="#m87b5db12f9" x="123.445568" y="215.277612" style="fill-opacity: 0; stroke: #1f77b4"/>
     <use xlink:href="#m87b5db12f9" x="128.131705" y="214.477024" style="fill-opacity: 0; stroke: #1f77b4"/>
     <use xlink:href="#m87b5db12f9" x="132.817841" y="213.515509" style="fill-opacity: 0; stroke: #1f77b4"/>
     <use xlink:href="#m87b5db12f9" x="137.503977" y="212.584588" style="fill-opacity: 0; stroke: #1f77b4"/>
     <use xlink:href="#m87b5db12f9" x="142.190114" y="211.891229" style="fill-opacity: 0; stroke: #1f77b4"/>
     <use xlink:href="#m87b5db12f9" x="146.87625" y="211.613873" style="fill-opacity: 0; stroke: #1f77b4"/>
     <use xlink:href="#m87b5db12f9" x="151.562386" y="211.859476" style="fill-opacity: 0; stroke: #1f77b4"/>
     <use xlink:href="#m87b5db12f9" x="156.248523" y="212.630883" style="fill-opacity: 0; stroke: #1f77b4"/>
     <use xlink:href="#m87b5db12f9" x="160.934659" y="213.81274" style="fill-opacity: 0; stroke: #1f77b4"/>
     <use xlink:href="#m87b5db12f9" x="165.620795" y="215.181234" style="fill-opacity: 0; stroke: #1f77b4"/>
     <use xlink:href="#m87b5db12f9" x="170.306932" y="216.43866" style="fill-opacity: 0; stroke: #1f77b4"/>
     <use xlink:href="#m87b5db12f9" x="174.993068" y="217.268809" style="fill-opacity: 0; stroke: #1f77b4"/>
     <use xlink:href="#m87b5db12f9" x="179.679205" y="217.404452" style="fill-opacity: 0; stroke: #1f77b4"/>
     <use xlink:href="#m87b5db12f9" x="184.365341" y="216.694655" style="fill-opacity: 0; stroke: #1f77b4"/>
     <use xlink:href="#m87b5db12f9" x="189.051477" y="215.158135" style="fill-opacity: 0; stroke: #1f77b4"/>
     <use xlink:href="#m87b5db12f9" x="193.737614" y="213.009846" style="fill-opacity: 0; stroke: #1f77b4"/>
     <use xlink:href="#m87b5db12f9" x="198.42375" y="210.651541" style="fill-opacity: 0; stroke: #1f77b4"/>
     <use xlink:href="#m87b5db12f9" x="203.109886" y="208.622782" style="fill-opacity: 0; stroke: #1f77b4"/>
     <use xlink:href="#m87b5db12f9" x="207.796023" y="207.515851" style="fill-opacity: 0; stroke: #1f77b4"/>
     <use xlink:href="#m87b5db12f9" x="212.482159" y="207.865211" style="fill-opacity: 0; stroke: #1f77b4"/>
     <use xlink:href="#m87b5db12f9" x="217.168295" y="210.02809" style="fill-opacity: 0; stroke: #1f77b4"/>
     <use xlink:href="#m87b5db12f9" x="221.854432" y="214.076456" style="fill-opacity: 0; stroke: #1f77b4"/>
     <use xlink:href="#m87b5db12f9" x="226.540568" y="219.721025" style="fill-opacity: 0; stroke: #1f77b4"/>
     <use xlink:href="#m87b5db12f9" x="231.226705" y="226.28481" style="fill-opacity: 0; stroke: #1f77b4"/>
     <use xlink:href="#m87b5db12f9" x="235.912841" y="232.737264" style="fill-opacity: 0; stroke: #1f77b4"/>
     <use xlink:href="#m87b5db12f9" x="240.598977" y="237.791073" style="fill-opacity: 0; stroke: #1f77b4"/>
     <use xlink:href="#m87b5db12f9" x="245.285114" y="240.053608" style="fill-opacity: 0; stroke: #1f77b4"/>
     <use xlink:href="#m87b5db12f9" x="249.97125" y="238.215369" style="fill-opacity: 0; stroke: #1f77b4"/>
     <use xlink:href="#m87b5db12f9" x="254.657386" y="231.250276" style="fill-opacity: 0; stroke: #1f77b4"/>
     <use xlink:href="#m87b5db12f9" x="259.343523" y="218.598613" style="fill-opacity: 0; stroke: #1f77b4"/>
     <use xlink:href="#m87b5db12f9" x="264.029659" y="200.303803" style="fill-opacity: 0; stroke: #1f77b4"/>
     <use xlink:href="#m87b5db12f9" x="268.715795" y="177.079089" style="fill-opacity: 0; stroke: #1f77b4"/>
     <use xlink:href="#m87b5db12f9" x="273.401932" y="150.289144" style="fill-opacity: 0; stroke: #1f77b4"/>
     <use xlink:href="#m87b5db12f9" x="278.088068" y="121.843355" style="fill-opacity: 0; stroke: #1f77b4"/>
     <use xlink:href="#m87b5db12f9" x="282.774205" y="94.010326" style="fill-opacity: 0; stroke: #1f77b4"/>
     <use xlink:href="#m87b5db12f9" x="287.460341" y="69.175101" style="fill-opacity: 0; stroke: #1f77b4"/>
     <use xlink:href="#m87b5db12f9" x="292.146477" y="49.569585" style="fill-opacity: 0; stroke: #1f77b4"/>
     <use xlink:href="#m87b5db12f9" x="296.832614" y="37.011682" style="fill-opacity: 0; stroke: #1f77b4"/>
     <use xlink:href="#m87b5db12f9" x="301.51875" y="32.688267" style="fill-opacity: 0; stroke: #1f77b4"/>
     <use xlink:href="#m87b5db12f9" x="306.204886" y="37.011682" style="fill-opacity: 0; stroke: #1f77b4"/>
     <use xlink:href="#m87b5db12f9" x="310.891023" y="49.569585" style="fill-opacity: 0; stroke: #1f77b4"/>
     <use xlink:href="#m87b5db12f9" x="315.577159" y="69.175101" style="fill-opacity: 0; stroke: #1f77b4"/>
     <use xlink:href="#m87b5db12f9" x="320.263295" y="94.010326" style="fill-opacity: 0; stroke: #1f77b4"/>
     <use xlink:href="#m87b5db12f9" x="324.949432" y="121.843355" style="fill-opacity: 0; stroke: #1f77b4"/>
     <use xlink:href="#m87b5db12f9" x="329.635568" y="150.289144" style="fill-opacity: 0; stroke: #1f77b4"/>
     <use xlink:href="#m87b5db12f9" x="334.321705" y="177.079089" style="fill-opacity: 0; stroke: #1f77b4"/>
     <use xlink:href="#m87b5db12f9" x="339.007841" y="200.303803" style="fill-opacity: 0; stroke: #1f77b4"/>
     <use xlink:href="#m87b5db12f9" x="343.693977" y="218.598613" style="fill-opacity: 0; stroke: #1f77b4"/>
     <use xlink:href="#m87b5db12f9" x="348.380114" y="231.250276" style="fill-opacity: 0; stroke: #1f77b4"/>
     <use xlink:href="#m87b5db12f9" x="353.06625" y="238.215369" style="fill-opacity: 0; stroke: #1f77b4"/>
     <use xlink:href="#m87b5db12f9" x="357.752386" y="240.053608" style="fill-opacity: 0; stroke: #1f77b4"/>
     <use xlink:href="#m87b5db12f9" x="362.438523" y="237.791073" style="fill-opacity: 0; stroke: #1f77b4"/>
     <use xlink:href="#m87b5db12f9" x="367.124659" y="232.737264" style="fill-opacity: 0; stroke: #1f77b4"/>
     <use xlink:href="#m87b5db12f9" x="371.810795" y="226.28481" style="fill-opacity: 0; stroke: #1f77b4"/>
     <use xlink:href="#m87b5db12f9" x="376.496932" y="219.721025" style="fill-opacity: 0; stroke: #1f77b4"/>
     <use xlink:href="#m87b5db12f9" x="381.183068" y="214.076456" style="fill-opacity: 0; stroke: #1f77b4"/>
     <use xlink:href="#m87b5db12f9" x="385.869205" y="210.02809" style="fill-opacity: 0; stroke: #1f77b4"/>
     <use xlink:href="#m87b5db12f9" x="390.555341" y="207.865211" style="fill-opacity: 0; stroke: #1f77b4"/>
     <use xlink:href="#m87b5db12f9" x="395.241477" y="207.515851" style="fill-opacity: 0; stroke: #1f77b4"/>
     <use xlink:href="#m87b5db12f9" x="399.927614" y="208.622782" style="fill-opacity: 0; stroke: #1f77b4"/>
     <use xlink:href="#m87b5db12f9" x="404.61375" y="210.651541" style="fill-opacity: 0; stroke: #1f77b4"/>
     <use xlink:href="#m87b5db12f9" x="409.299886" y="213.009846" style="fill-opacity: 0; stroke: #1f77b4"/>
     <use xlink:href="#m87b5db12f9" x="413.986023" y="215.158135" style="fill-opacity: 0; stroke: #1f77b4"/>
     <use xlink:href="#m87b5db12f9" x="418.672159" y="216.694655" style="fill-opacity: 0; stroke: #1f77b4"/>
     <use xlink:href="#m87b5db12f9" x="423.358295" y="217.404452" style="fill-opacity: 0; stroke: #1f77b4"/>
     <use xlink:href="#m87b5db12f9" x="428.044432" y="217.268809" style="fill-opacity: 0; stroke: #1f77b4"/>
     <use xlink:href="#m87b5db12f9" x="432.730568" y="216.43866" style="fill-opacity: 0; stroke: #1f77b4"/>
     <use xlink:href="#m87b5db12f9" x="437.416705" y="215.181234" style="fill-opacity: 0; stroke: #1f77b4"/>
     <use xlink:href="#m87b5db12f9" x="442.102841" y="213.81274" style="fill-opacity: 0; stroke: #1f77b4"/>
     <use xlink:href="#m87b5db12f9" x="446.788977" y="212.630883" style="fill-opacity: 0; stroke: #1f77b4"/>
     <use xlink:href="#m87b5db12f9" x="451.475114" y="211.859476" style="fill-opacity: 0; stroke: #1f77b4"/>
     <use xlink:href="#m87b5db12f9" x="456.16125" y="211.613873" style="fill-opacity: 0; stroke: #1f77b4"/>
     <use xlink:href="#m87b5db12f9" x="460.847386" y="211.891229" style="fill-opacity: 0; stroke: #1f77b4"/>
     <use xlink:href="#m87b5db12f9" x="465.533523" y="212.584588" style="fill-opacity: 0; stroke: #1f77b4"/>
     <use xlink:href="#m87b5db12f9" x="470.219659" y="213.515509" style="fill-opacity: 0; stroke: #1f77b4"/>
     <use xlink:href="#m87b5db12f9" x="474.905795" y="214.477024" style="fill-opacity: 0; stroke: #1f77b4"/>
     <use xlink:href="#m87b5db12f9" x="479.591932" y="215.277612" style="fill-opacity: 0; stroke: #1f77b4"/>
     <use xlink:href="#m87b5db12f9" x="484.278068" y="215.777601" style="fill-opacity: 0; stroke: #1f77b4"/>
     <use xlink:href="#m87b5db12f9" x="488.964205" y="215.911702" style="fill-opacity: 0; stroke: #1f77b4"/>
     <use xlink:href="#m87b5db12f9" x="493.650341" y="215.694652" style="fill-opacity: 0; stroke: #1f77b4"/>
     <use xlink:href="#m87b5db12f9" x="498.336477" y="215.210441" style="fill-opacity: 0; stroke: #1f77b4"/>
     <use xlink:href="#m87b5db12f9" x="503.022614" y="214.58881" style="fill-opacity: 0; stroke: #1f77b4"/>
     <use xlink:href="#m87b5db12f9" x="507.70875" y="213.974788" style="fill-opacity: 0; stroke: #1f77b4"/>
     <use xlink:href="#m87b5db12f9" x="512.394886" y="213.497936" style="fill-opacity: 0; stroke: #1f77b4"/>
     <use xlink:href="#m87b5db12f9" x="517.081023" y="213.247431" style="fill-opacity: 0; stroke: #1f77b4"/>
     <use xlink:href="#m87b5db12f9" x="521.767159" y="213.257453" style="fill-opacity: 0; stroke: #1f77b4"/>
     <use xlink:href="#m87b5db12f9" x="526.453295" y="213.504934" style="fill-opacity: 0; stroke: #1f77b4"/>
     <use xlink:href="#m87b5db12f9" x="531.139432" y="213.919088" style="fill-opacity: 0; stroke: #1f77b4"/>
     <use xlink:href="#m87b5db12f9" x="535.825568" y="214.399862" style="fill-opacity: 0; stroke: #1f77b4"/>
    </g>
   </g>
   <g id="line2d_27">
    <path d="M 67.211932 214.297116 
L 535.825568 214.297116 
" clip-path="url(#p28a81622cc)" style="fill: none; stroke: #000000; stroke-opacity: 0; stroke-linecap: square"/>
   </g>
   <g id="patch_3">
    <path d="M 43.78125 250.421875 
L 43.78125 22.32 
" style="fill: none; stroke: #000000; stroke-width: 0.8; stroke-linejoin: miter; stroke-linecap: square"/>
   </g>
   <g id="patch_4">
    <path d="M 559.25625 250.421875 
L 559.25625 22.32 
" style="fill: none; stroke: #000000; stroke-width: 0.8; stroke-linejoin: miter; stroke-linecap: square"/>
   </g>
   <g id="patch_5">
    <path d="M 43.78125 250.421875 
L 559.25625 250.421875 
" style="fill: none; stroke: #000000; stroke-width: 0.8; stroke-linejoin: miter; stroke-linecap: square"/>
   </g>
   <g id="patch_6">
    <path d="M 43.78125 22.32 
L 559.25625 22.32 
" style="fill: none; stroke: #000000; stroke-width: 0.8; stroke-linejoin: miter; stroke-linecap: square"/>
   </g>
   <g id="text_15">
    <!-- Impulse response, $h[n]$ -->
    <g transform="translate(232.57875 16.32) scale(0.12 -0.12)">
     <defs>
      <path id="DejaVuSans-49" d="M 628 4666 
L 1259 4666 
L 1259 0 
L 628 0 
L 628 4666 
z
" transform="scale(0.015625)"/>
      <path id="DejaVuSans-73" d="M 2834 3397 
L 2834 2853 
Q 2591 2978 2328 3040 
Q 2066 3103 1784 3103 
Q 1356 3103 1142 2972 
Q 928 2841 928 2578 
Q 928 2378 1081 2264 
Q 1234 2150 1697 2047 
L 1894 2003 
Q 2506 1872 2764 1633 
Q 3022 1394 3022 966 
Q 3022 478 2636 193 
Q 2250 -91 1575 -91 
Q 1294 -91 989 -36 
Q 684 19 347 128 
L 347 722 
Q 666 556 975 473 
Q 1284 391 1588 391 
Q 1994 391 2212 530 
Q 2431 669 2431 922 
Q 2431 1156 2273 1281 
Q 2116 1406 1581 1522 
L 1381 1569 
Q 847 1681 609 1914 
Q 372 2147 372 2553 
Q 372 3047 722 3315 
Q 1072 3584 1716 3584 
Q 2034 3584 2315 3537 
Q 2597 3491 2834 3397 
z
" transform="scale(0.015625)"/>
      <path id="DejaVuSans-72" d="M 2631 2963 
Q 2534 3019 2420 3045 
Q 2306 3072 2169 3072 
Q 1681 3072 1420 2755 
Q 1159 2438 1159 1844 
L 1159 0 
L 581 0 
L 581 3500 
L 1159 3500 
L 1159 2956 
Q 1341 3275 1631 3429 
Q 1922 3584 2338 3584 
Q 2397 3584 2469 3576 
Q 2541 3569 2628 3553 
L 2631 2963 
z
" transform="scale(0.015625)"/>
      <path id="DejaVuSans-6f" d="M 1959 3097 
Q 1497 3097 1228 2736 
Q 959 2375 959 1747 
Q 959 1119 1226 758 
Q 1494 397 1959 397 
Q 2419 397 2687 759 
Q 2956 1122 2956 1747 
Q 2956 2369 2687 2733 
Q 2419 3097 1959 3097 
z
M 1959 3584 
Q 2709 3584 3137 3096 
Q 3566 2609 3566 1747 
Q 3566 888 3137 398 
Q 2709 -91 1959 -91 
Q 1206 -91 779 398 
Q 353 888 353 1747 
Q 353 2609 779 3096 
Q 1206 3584 1959 3584 
z
" transform="scale(0.015625)"/>
      <path id="DejaVuSans-6e" d="M 3513 2113 
L 3513 0 
L 2938 0 
L 2938 2094 
Q 2938 2591 2744 2837 
Q 2550 3084 2163 3084 
Q 1697 3084 1428 2787 
Q 1159 2491 1159 1978 
L 1159 0 
L 581 0 
L 581 3500 
L 1159 3500 
L 1159 2956 
Q 1366 3272 1645 3428 
Q 1925 3584 2291 3584 
Q 2894 3584 3203 3211 
Q 3513 2838 3513 2113 
z
" transform="scale(0.015625)"/>
      <path id="DejaVuSans-Oblique-68" d="M 3566 2113 
L 3156 0 
L 2578 0 
L 2988 2091 
Q 3016 2238 3031 2350 
Q 3047 2463 3047 2528 
Q 3047 2791 2881 2937 
Q 2716 3084 2419 3084 
Q 1956 3084 1617 2771 
Q 1278 2459 1178 1941 
L 800 0 
L 225 0 
L 1172 4863 
L 1747 4863 
L 1375 2950 
Q 1594 3244 1934 3414 
Q 2275 3584 2650 3584 
Q 3113 3584 3367 3334 
Q 3622 3084 3622 2631 
Q 3622 2519 3608 2391 
Q 3594 2263 3566 2113 
z
" transform="scale(0.015625)"/>
      <path id="DejaVuSans-5b" d="M 550 4863 
L 1875 4863 
L 1875 4416 
L 1125 4416 
L 1125 -397 
L 1875 -397 
L 1875 -844 
L 550 -844 
L 550 4863 
z
" transform="scale(0.015625)"/>
      <path id="DejaVuSans-5d" d="M 1947 4863 
L 1947 -844 
L 622 -844 
L 622 -397 
L 1369 -397 
L 1369 4416 
L 622 4416 
L 622 4863 
L 1947 4863 
z
" transform="scale(0.015625)"/>
     </defs>
     <use xlink:href="#DejaVuSans-49" transform="translate(0 0.015625)"/>
     <use xlink:href="#DejaVuSans-6d" transform="translate(25.867188 0.015625)"/>
     <use xlink:href="#DejaVuSans-70" transform="translate(123.279297 0.015625)"/>
     <use xlink:href="#DejaVuSans-75" transform="translate(186.755859 0.015625)"/>
     <use xlink:href="#DejaVuSans-6c" transform="translate(250.134766 0.015625)"/>
     <use xlink:href="#DejaVuSans-73" transform="translate(277.917969 0.015625)"/>
     <use xlink:href="#DejaVuSans-65" transform="translate(330.017578 0.015625)"/>
     <use xlink:href="#DejaVuSans-20" transform="translate(391.541016 0.015625)"/>
     <use xlink:href="#DejaVuSans-72" transform="translate(423.328125 0.015625)"/>
     <use xlink:href="#DejaVuSans-65" transform="translate(464.441406 0.015625)"/>
     <use xlink:href="#DejaVuSans-73" transform="translate(525.964844 0.015625)"/>
     <use xlink:href="#DejaVuSans-70" transform="translate(578.064453 0.015625)"/>
     <use xlink:href="#DejaVuSans-6f" transform="translate(641.541016 0.015625)"/>
     <use xlink:href="#DejaVuSans-6e" transform="translate(702.722656 0.015625)"/>
     <use xlink:href="#DejaVuSans-73" transform="translate(766.101562 0.015625)"/>
     <use xlink:href="#DejaVuSans-65" transform="translate(818.201172 0.015625)"/>
     <use xlink:href="#DejaVuSans-2c" transform="translate(879.724609 0.015625)"/>
     <use xlink:href="#DejaVuSans-20" transform="translate(911.511719 0.015625)"/>
     <use xlink:href="#DejaVuSans-Oblique-68" transform="translate(943.298828 0.015625)"/>
     <use xlink:href="#DejaVuSans-5b" transform="translate(1006.677734 0.015625)"/>
     <use xlink:href="#DejaVuSans-Oblique-6e" transform="translate(1045.691406 0.015625)"/>
     <use xlink:href="#DejaVuSans-5d" transform="translate(1109.070312 0.015625)"/>
    </g>
   </g>
  </g>
 </g>
 <defs>
  <clipPath id="p28a81622cc">
   <rect x="43.78125" y="22.32" width="515.475" height="228.101875"/>
  </clipPath>
 </defs>
</svg>
