<?xml version="1.0" encoding="utf-8" standalone="no"?>
<!DOCTYPE svg PUBLIC "-//W3C//DTD SVG 1.1//EN"
  "http://www.w3.org/Graphics/SVG/1.1/DTD/svg11.dtd">
<svg xmlns:xlink="http://www.w3.org/1999/xlink" width="576pt" height="288pt" viewBox="0 0 576 288" xmlns="http://www.w3.org/2000/svg" version="1.1">
 <metadata>
  <rdf:RDF xmlns:dc="http://purl.org/dc/elements/1.1/" xmlns:cc="http://creativecommons.org/ns#" xmlns:rdf="http://www.w3.org/1999/02/22-rdf-syntax-ns#">
   <cc:Work>
    <dc:type rdf:resource="http://purl.org/dc/dcmitype/StillImage"/>
    <dc:date>2025-05-10T16:34:50.139672</dc:date>
    <dc:format>image/svg+xml</dc:format>
    <dc:creator>
     <cc:Agent>
      <dc:title>Matplotlib v3.10.3, https://matplotlib.org/</dc:title>
     </cc:Agent>
    </dc:creator>
   </cc:Work>
  </rdf:RDF>
 </metadata>
 <defs>
  <style type="text/css">*{stroke-linejoin: round; stroke-linecap: butt}</style>
 </defs>
 <g id="figure_1">
  <g id="patch_1">
   <path d="M 0 288 
L 576 288 
L 576 0 
L 0 0 
z
" style="fill: #ffffff"/>
  </g>
  <g id="axes_1">
   <g id="patch_2">
    <path d="M 50.14375 250.44375 
L 557.667187 250.44375 
L 557.667187 22.318125 
L 50.14375 22.318125 
z
" style="fill: #ffffff"/>
   </g>
   <g id="matplotlib.axis_1">
    <g id="xtick_1">
     <g id="line2d_1">
      <path d="M 50.14375 250.44375 
L 50.14375 22.318125 
" clip-path="url(#pdd84919bb5)" style="fill: none; stroke-dasharray: 2.96,1.28; stroke-dashoffset: 0; stroke: #b0b0b0; stroke-opacity: 0.8; stroke-width: 0.8"/>
     </g>
     <g id="line2d_2">
      <defs>
       <path id="m3116a5ca0e" d="M 0 0 
L 0 3.5 
" style="stroke: #000000; stroke-width: 0.8"/>
      </defs>
      <g>
       <use xlink:href="#m3116a5ca0e" x="50.14375" y="250.44375" style="stroke: #000000; stroke-width: 0.8"/>
      </g>
     </g>
     <g id="text_1">
      <!-- −10.0 -->
      <g transform="translate(34.821094 265.042188) scale(0.1 -0.1)">
       <defs>
        <path id="DejaVuSans-2212" d="M 678 2272 
L 4684 2272 
L 4684 1741 
L 678 1741 
L 678 2272 
z
" transform="scale(0.015625)"/>
        <path id="DejaVuSans-31" d="M 794 531 
L 1825 531 
L 1825 4091 
L 703 3866 
L 703 4441 
L 1819 4666 
L 2450 4666 
L 2450 531 
L 3481 531 
L 3481 0 
L 794 0 
L 794 531 
z
" transform="scale(0.015625)"/>
        <path id="DejaVuSans-30" d="M 2034 4250 
Q 1547 4250 1301 3770 
Q 1056 3291 1056 2328 
Q 1056 1369 1301 889 
Q 1547 409 2034 409 
Q 2525 409 2770 889 
Q 3016 1369 3016 2328 
Q 3016 3291 2770 3770 
Q 2525 4250 2034 4250 
z
M 2034 4750 
Q 2819 4750 3233 4129 
Q 3647 3509 3647 2328 
Q 3647 1150 3233 529 
Q 2819 -91 2034 -91 
Q 1250 -91 836 529 
Q 422 1150 422 2328 
Q 422 3509 836 4129 
Q 1250 4750 2034 4750 
z
" transform="scale(0.015625)"/>
        <path id="DejaVuSans-2e" d="M 684 794 
L 1344 794 
L 1344 0 
L 684 0 
L 684 794 
z
" transform="scale(0.015625)"/>
       </defs>
       <use xlink:href="#DejaVuSans-2212"/>
       <use xlink:href="#DejaVuSans-31" transform="translate(83.789062 0)"/>
       <use xlink:href="#DejaVuSans-30" transform="translate(147.412109 0)"/>
       <use xlink:href="#DejaVuSans-2e" transform="translate(211.035156 0)"/>
       <use xlink:href="#DejaVuSans-30" transform="translate(242.822266 0)"/>
      </g>
     </g>
    </g>
    <g id="xtick_2">
     <g id="line2d_3">
      <path d="M 113.58418 250.44375 
L 113.58418 22.318125 
" clip-path="url(#pdd84919bb5)" style="fill: none; stroke-dasharray: 2.96,1.28; stroke-dashoffset: 0; stroke: #b0b0b0; stroke-opacity: 0.8; stroke-width: 0.8"/>
     </g>
     <g id="line2d_4">
      <g>
       <use xlink:href="#m3116a5ca0e" x="113.58418" y="250.44375" style="stroke: #000000; stroke-width: 0.8"/>
      </g>
     </g>
     <g id="text_2">
      <!-- −7.5 -->
      <g transform="translate(101.442773 265.042188) scale(0.1 -0.1)">
       <defs>
        <path id="DejaVuSans-37" d="M 525 4666 
L 3525 4666 
L 3525 4397 
L 1831 0 
L 1172 0 
L 2766 4134 
L 525 4134 
L 525 4666 
z
" transform="scale(0.015625)"/>
        <path id="DejaVuSans-35" d="M 691 4666 
L 3169 4666 
L 3169 4134 
L 1269 4134 
L 1269 2991 
Q 1406 3038 1543 3061 
Q 1681 3084 1819 3084 
Q 2600 3084 3056 2656 
Q 3513 2228 3513 1497 
Q 3513 744 3044 326 
Q 2575 -91 1722 -91 
Q 1428 -91 1123 -41 
Q 819 9 494 109 
L 494 744 
Q 775 591 1075 516 
Q 1375 441 1709 441 
Q 2250 441 2565 725 
Q 2881 1009 2881 1497 
Q 2881 1984 2565 2268 
Q 2250 2553 1709 2553 
Q 1456 2553 1204 2497 
Q 953 2441 691 2322 
L 691 4666 
z
" transform="scale(0.015625)"/>
       </defs>
       <use xlink:href="#DejaVuSans-2212"/>
       <use xlink:href="#DejaVuSans-37" transform="translate(83.789062 0)"/>
       <use xlink:href="#DejaVuSans-2e" transform="translate(147.412109 0)"/>
       <use xlink:href="#DejaVuSans-35" transform="translate(179.199219 0)"/>
      </g>
     </g>
    </g>
    <g id="xtick_3">
     <g id="line2d_5">
      <path d="M 177.024609 250.44375 
L 177.024609 22.318125 
" clip-path="url(#pdd84919bb5)" style="fill: none; stroke-dasharray: 2.96,1.28; stroke-dashoffset: 0; stroke: #b0b0b0; stroke-opacity: 0.8; stroke-width: 0.8"/>
     </g>
     <g id="line2d_6">
      <g>
       <use xlink:href="#m3116a5ca0e" x="177.024609" y="250.44375" style="stroke: #000000; stroke-width: 0.8"/>
      </g>
     </g>
     <g id="text_3">
      <!-- −5.0 -->
      <g transform="translate(164.883203 265.042188) scale(0.1 -0.1)">
       <use xlink:href="#DejaVuSans-2212"/>
       <use xlink:href="#DejaVuSans-35" transform="translate(83.789062 0)"/>
       <use xlink:href="#DejaVuSans-2e" transform="translate(147.412109 0)"/>
       <use xlink:href="#DejaVuSans-30" transform="translate(179.199219 0)"/>
      </g>
     </g>
    </g>
    <g id="xtick_4">
     <g id="line2d_7">
      <path d="M 240.465039 250.44375 
L 240.465039 22.318125 
" clip-path="url(#pdd84919bb5)" style="fill: none; stroke-dasharray: 2.96,1.28; stroke-dashoffset: 0; stroke: #b0b0b0; stroke-opacity: 0.8; stroke-width: 0.8"/>
     </g>
     <g id="line2d_8">
      <g>
       <use xlink:href="#m3116a5ca0e" x="240.465039" y="250.44375" style="stroke: #000000; stroke-width: 0.8"/>
      </g>
     </g>
     <g id="text_4">
      <!-- −2.5 -->
      <g transform="translate(228.323633 265.042188) scale(0.1 -0.1)">
       <defs>
        <path id="DejaVuSans-32" d="M 1228 531 
L 3431 531 
L 3431 0 
L 469 0 
L 469 531 
Q 828 903 1448 1529 
Q 2069 2156 2228 2338 
Q 2531 2678 2651 2914 
Q 2772 3150 2772 3378 
Q 2772 3750 2511 3984 
Q 2250 4219 1831 4219 
Q 1534 4219 1204 4116 
Q 875 4013 500 3803 
L 500 4441 
Q 881 4594 1212 4672 
Q 1544 4750 1819 4750 
Q 2544 4750 2975 4387 
Q 3406 4025 3406 3419 
Q 3406 3131 3298 2873 
Q 3191 2616 2906 2266 
Q 2828 2175 2409 1742 
Q 1991 1309 1228 531 
z
" transform="scale(0.015625)"/>
       </defs>
       <use xlink:href="#DejaVuSans-2212"/>
       <use xlink:href="#DejaVuSans-32" transform="translate(83.789062 0)"/>
       <use xlink:href="#DejaVuSans-2e" transform="translate(147.412109 0)"/>
       <use xlink:href="#DejaVuSans-35" transform="translate(179.199219 0)"/>
      </g>
     </g>
    </g>
    <g id="xtick_5">
     <g id="line2d_9">
      <path d="M 303.905469 250.44375 
L 303.905469 22.318125 
" clip-path="url(#pdd84919bb5)" style="fill: none; stroke-dasharray: 2.96,1.28; stroke-dashoffset: 0; stroke: #b0b0b0; stroke-opacity: 0.8; stroke-width: 0.8"/>
     </g>
     <g id="line2d_10">
      <g>
       <use xlink:href="#m3116a5ca0e" x="303.905469" y="250.44375" style="stroke: #000000; stroke-width: 0.8"/>
      </g>
     </g>
     <g id="text_5">
      <!-- 0.0 -->
      <g transform="translate(295.953906 265.042188) scale(0.1 -0.1)">
       <use xlink:href="#DejaVuSans-30"/>
       <use xlink:href="#DejaVuSans-2e" transform="translate(63.623047 0)"/>
       <use xlink:href="#DejaVuSans-30" transform="translate(95.410156 0)"/>
      </g>
     </g>
    </g>
    <g id="xtick_6">
     <g id="line2d_11">
      <path d="M 367.345898 250.44375 
L 367.345898 22.318125 
" clip-path="url(#pdd84919bb5)" style="fill: none; stroke-dasharray: 2.96,1.28; stroke-dashoffset: 0; stroke: #b0b0b0; stroke-opacity: 0.8; stroke-width: 0.8"/>
     </g>
     <g id="line2d_12">
      <g>
       <use xlink:href="#m3116a5ca0e" x="367.345898" y="250.44375" style="stroke: #000000; stroke-width: 0.8"/>
      </g>
     </g>
     <g id="text_6">
      <!-- 2.5 -->
      <g transform="translate(359.394336 265.042188) scale(0.1 -0.1)">
       <use xlink:href="#DejaVuSans-32"/>
       <use xlink:href="#DejaVuSans-2e" transform="translate(63.623047 0)"/>
       <use xlink:href="#DejaVuSans-35" transform="translate(95.410156 0)"/>
      </g>
     </g>
    </g>
    <g id="xtick_7">
     <g id="line2d_13">
      <path d="M 430.786328 250.44375 
L 430.786328 22.318125 
" clip-path="url(#pdd84919bb5)" style="fill: none; stroke-dasharray: 2.96,1.28; stroke-dashoffset: 0; stroke: #b0b0b0; stroke-opacity: 0.8; stroke-width: 0.8"/>
     </g>
     <g id="line2d_14">
      <g>
       <use xlink:href="#m3116a5ca0e" x="430.786328" y="250.44375" style="stroke: #000000; stroke-width: 0.8"/>
      </g>
     </g>
     <g id="text_7">
      <!-- 5.0 -->
      <g transform="translate(422.834766 265.042188) scale(0.1 -0.1)">
       <use xlink:href="#DejaVuSans-35"/>
       <use xlink:href="#DejaVuSans-2e" transform="translate(63.623047 0)"/>
       <use xlink:href="#DejaVuSans-30" transform="translate(95.410156 0)"/>
      </g>
     </g>
    </g>
    <g id="xtick_8">
     <g id="line2d_15">
      <path d="M 494.226758 250.44375 
L 494.226758 22.318125 
" clip-path="url(#pdd84919bb5)" style="fill: none; stroke-dasharray: 2.96,1.28; stroke-dashoffset: 0; stroke: #b0b0b0; stroke-opacity: 0.8; stroke-width: 0.8"/>
     </g>
     <g id="line2d_16">
      <g>
       <use xlink:href="#m3116a5ca0e" x="494.226758" y="250.44375" style="stroke: #000000; stroke-width: 0.8"/>
      </g>
     </g>
     <g id="text_8">
      <!-- 7.5 -->
      <g transform="translate(486.275195 265.042188) scale(0.1 -0.1)">
       <use xlink:href="#DejaVuSans-37"/>
       <use xlink:href="#DejaVuSans-2e" transform="translate(63.623047 0)"/>
       <use xlink:href="#DejaVuSans-35" transform="translate(95.410156 0)"/>
      </g>
     </g>
    </g>
    <g id="xtick_9">
     <g id="line2d_17">
      <path d="M 557.667187 250.44375 
L 557.667187 22.318125 
" clip-path="url(#pdd84919bb5)" style="fill: none; stroke-dasharray: 2.96,1.28; stroke-dashoffset: 0; stroke: #b0b0b0; stroke-opacity: 0.8; stroke-width: 0.8"/>
     </g>
     <g id="line2d_18">
      <g>
       <use xlink:href="#m3116a5ca0e" x="557.667187" y="250.44375" style="stroke: #000000; stroke-width: 0.8"/>
      </g>
     </g>
     <g id="text_9">
      <!-- 10.0 -->
      <g transform="translate(546.534375 265.042188) scale(0.1 -0.1)">
       <use xlink:href="#DejaVuSans-31"/>
       <use xlink:href="#DejaVuSans-30" transform="translate(63.623047 0)"/>
       <use xlink:href="#DejaVuSans-2e" transform="translate(127.246094 0)"/>
       <use xlink:href="#DejaVuSans-30" transform="translate(159.033203 0)"/>
      </g>
     </g>
    </g>
    <g id="text_10">
     <!-- Random variable -->
     <g transform="translate(261.446094 278.720312) scale(0.1 -0.1)">
      <defs>
       <path id="DejaVuSans-52" d="M 2841 2188 
Q 3044 2119 3236 1894 
Q 3428 1669 3622 1275 
L 4263 0 
L 3584 0 
L 2988 1197 
Q 2756 1666 2539 1819 
Q 2322 1972 1947 1972 
L 1259 1972 
L 1259 0 
L 628 0 
L 628 4666 
L 2053 4666 
Q 2853 4666 3247 4331 
Q 3641 3997 3641 3322 
Q 3641 2881 3436 2590 
Q 3231 2300 2841 2188 
z
M 1259 4147 
L 1259 2491 
L 2053 2491 
Q 2509 2491 2742 2702 
Q 2975 2913 2975 3322 
Q 2975 3731 2742 3939 
Q 2509 4147 2053 4147 
L 1259 4147 
z
" transform="scale(0.015625)"/>
       <path id="DejaVuSans-61" d="M 2194 1759 
Q 1497 1759 1228 1600 
Q 959 1441 959 1056 
Q 959 750 1161 570 
Q 1363 391 1709 391 
Q 2188 391 2477 730 
Q 2766 1069 2766 1631 
L 2766 1759 
L 2194 1759 
z
M 3341 1997 
L 3341 0 
L 2766 0 
L 2766 531 
Q 2569 213 2275 61 
Q 1981 -91 1556 -91 
Q 1019 -91 701 211 
Q 384 513 384 1019 
Q 384 1609 779 1909 
Q 1175 2209 1959 2209 
L 2766 2209 
L 2766 2266 
Q 2766 2663 2505 2880 
Q 2244 3097 1772 3097 
Q 1472 3097 1187 3025 
Q 903 2953 641 2809 
L 641 3341 
Q 956 3463 1253 3523 
Q 1550 3584 1831 3584 
Q 2591 3584 2966 3190 
Q 3341 2797 3341 1997 
z
" transform="scale(0.015625)"/>
       <path id="DejaVuSans-6e" d="M 3513 2113 
L 3513 0 
L 2938 0 
L 2938 2094 
Q 2938 2591 2744 2837 
Q 2550 3084 2163 3084 
Q 1697 3084 1428 2787 
Q 1159 2491 1159 1978 
L 1159 0 
L 581 0 
L 581 3500 
L 1159 3500 
L 1159 2956 
Q 1366 3272 1645 3428 
Q 1925 3584 2291 3584 
Q 2894 3584 3203 3211 
Q 3513 2838 3513 2113 
z
" transform="scale(0.015625)"/>
       <path id="DejaVuSans-64" d="M 2906 2969 
L 2906 4863 
L 3481 4863 
L 3481 0 
L 2906 0 
L 2906 525 
Q 2725 213 2448 61 
Q 2172 -91 1784 -91 
Q 1150 -91 751 415 
Q 353 922 353 1747 
Q 353 2572 751 3078 
Q 1150 3584 1784 3584 
Q 2172 3584 2448 3432 
Q 2725 3281 2906 2969 
z
M 947 1747 
Q 947 1113 1208 752 
Q 1469 391 1925 391 
Q 2381 391 2643 752 
Q 2906 1113 2906 1747 
Q 2906 2381 2643 2742 
Q 2381 3103 1925 3103 
Q 1469 3103 1208 2742 
Q 947 2381 947 1747 
z
" transform="scale(0.015625)"/>
       <path id="DejaVuSans-6f" d="M 1959 3097 
Q 1497 3097 1228 2736 
Q 959 2375 959 1747 
Q 959 1119 1226 758 
Q 1494 397 1959 397 
Q 2419 397 2687 759 
Q 2956 1122 2956 1747 
Q 2956 2369 2687 2733 
Q 2419 3097 1959 3097 
z
M 1959 3584 
Q 2709 3584 3137 3096 
Q 3566 2609 3566 1747 
Q 3566 888 3137 398 
Q 2709 -91 1959 -91 
Q 1206 -91 779 398 
Q 353 888 353 1747 
Q 353 2609 779 3096 
Q 1206 3584 1959 3584 
z
" transform="scale(0.015625)"/>
       <path id="DejaVuSans-6d" d="M 3328 2828 
Q 3544 3216 3844 3400 
Q 4144 3584 4550 3584 
Q 5097 3584 5394 3201 
Q 5691 2819 5691 2113 
L 5691 0 
L 5113 0 
L 5113 2094 
Q 5113 2597 4934 2840 
Q 4756 3084 4391 3084 
Q 3944 3084 3684 2787 
Q 3425 2491 3425 1978 
L 3425 0 
L 2847 0 
L 2847 2094 
Q 2847 2600 2669 2842 
Q 2491 3084 2119 3084 
Q 1678 3084 1418 2786 
Q 1159 2488 1159 1978 
L 1159 0 
L 581 0 
L 581 3500 
L 1159 3500 
L 1159 2956 
Q 1356 3278 1631 3431 
Q 1906 3584 2284 3584 
Q 2666 3584 2933 3390 
Q 3200 3197 3328 2828 
z
" transform="scale(0.015625)"/>
       <path id="DejaVuSans-20" transform="scale(0.015625)"/>
       <path id="DejaVuSans-76" d="M 191 3500 
L 800 3500 
L 1894 563 
L 2988 3500 
L 3597 3500 
L 2284 0 
L 1503 0 
L 191 3500 
z
" transform="scale(0.015625)"/>
       <path id="DejaVuSans-72" d="M 2631 2963 
Q 2534 3019 2420 3045 
Q 2306 3072 2169 3072 
Q 1681 3072 1420 2755 
Q 1159 2438 1159 1844 
L 1159 0 
L 581 0 
L 581 3500 
L 1159 3500 
L 1159 2956 
Q 1341 3275 1631 3429 
Q 1922 3584 2338 3584 
Q 2397 3584 2469 3576 
Q 2541 3569 2628 3553 
L 2631 2963 
z
" transform="scale(0.015625)"/>
       <path id="DejaVuSans-69" d="M 603 3500 
L 1178 3500 
L 1178 0 
L 603 0 
L 603 3500 
z
M 603 4863 
L 1178 4863 
L 1178 4134 
L 603 4134 
L 603 4863 
z
" transform="scale(0.015625)"/>
       <path id="DejaVuSans-62" d="M 3116 1747 
Q 3116 2381 2855 2742 
Q 2594 3103 2138 3103 
Q 1681 3103 1420 2742 
Q 1159 2381 1159 1747 
Q 1159 1113 1420 752 
Q 1681 391 2138 391 
Q 2594 391 2855 752 
Q 3116 1113 3116 1747 
z
M 1159 2969 
Q 1341 3281 1617 3432 
Q 1894 3584 2278 3584 
Q 2916 3584 3314 3078 
Q 3713 2572 3713 1747 
Q 3713 922 3314 415 
Q 2916 -91 2278 -91 
Q 1894 -91 1617 61 
Q 1341 213 1159 525 
L 1159 0 
L 581 0 
L 581 4863 
L 1159 4863 
L 1159 2969 
z
" transform="scale(0.015625)"/>
       <path id="DejaVuSans-6c" d="M 603 4863 
L 1178 4863 
L 1178 0 
L 603 0 
L 603 4863 
z
" transform="scale(0.015625)"/>
       <path id="DejaVuSans-65" d="M 3597 1894 
L 3597 1613 
L 953 1613 
Q 991 1019 1311 708 
Q 1631 397 2203 397 
Q 2534 397 2845 478 
Q 3156 559 3463 722 
L 3463 178 
Q 3153 47 2828 -22 
Q 2503 -91 2169 -91 
Q 1331 -91 842 396 
Q 353 884 353 1716 
Q 353 2575 817 3079 
Q 1281 3584 2069 3584 
Q 2775 3584 3186 3129 
Q 3597 2675 3597 1894 
z
M 3022 2063 
Q 3016 2534 2758 2815 
Q 2500 3097 2075 3097 
Q 1594 3097 1305 2825 
Q 1016 2553 972 2059 
L 3022 2063 
z
" transform="scale(0.015625)"/>
      </defs>
      <use xlink:href="#DejaVuSans-52"/>
      <use xlink:href="#DejaVuSans-61" transform="translate(67.232422 0)"/>
      <use xlink:href="#DejaVuSans-6e" transform="translate(128.511719 0)"/>
      <use xlink:href="#DejaVuSans-64" transform="translate(191.890625 0)"/>
      <use xlink:href="#DejaVuSans-6f" transform="translate(255.367188 0)"/>
      <use xlink:href="#DejaVuSans-6d" transform="translate(316.548828 0)"/>
      <use xlink:href="#DejaVuSans-20" transform="translate(413.960938 0)"/>
      <use xlink:href="#DejaVuSans-76" transform="translate(445.748047 0)"/>
      <use xlink:href="#DejaVuSans-61" transform="translate(504.927734 0)"/>
      <use xlink:href="#DejaVuSans-72" transform="translate(566.207031 0)"/>
      <use xlink:href="#DejaVuSans-69" transform="translate(607.320312 0)"/>
      <use xlink:href="#DejaVuSans-61" transform="translate(635.103516 0)"/>
      <use xlink:href="#DejaVuSans-62" transform="translate(696.382812 0)"/>
      <use xlink:href="#DejaVuSans-6c" transform="translate(759.859375 0)"/>
      <use xlink:href="#DejaVuSans-65" transform="translate(787.642578 0)"/>
     </g>
    </g>
   </g>
   <g id="matplotlib.axis_2">
    <g id="ytick_1">
     <g id="line2d_19">
      <path d="M 50.14375 250.44375 
L 557.667187 250.44375 
" clip-path="url(#pdd84919bb5)" style="fill: none; stroke-dasharray: 2.96,1.28; stroke-dashoffset: 0; stroke: #b0b0b0; stroke-opacity: 0.8; stroke-width: 0.8"/>
     </g>
     <g id="line2d_20">
      <defs>
       <path id="m327e6ccd54" d="M 0 0 
L -3.5 0 
" style="stroke: #000000; stroke-width: 0.8"/>
      </defs>
      <g>
       <use xlink:href="#m327e6ccd54" x="50.14375" y="250.44375" style="stroke: #000000; stroke-width: 0.8"/>
      </g>
     </g>
     <g id="text_11">
      <!-- 0.00 -->
      <g transform="translate(20.878125 254.242969) scale(0.1 -0.1)">
       <use xlink:href="#DejaVuSans-30"/>
       <use xlink:href="#DejaVuSans-2e" transform="translate(63.623047 0)"/>
       <use xlink:href="#DejaVuSans-30" transform="translate(95.410156 0)"/>
       <use xlink:href="#DejaVuSans-30" transform="translate(159.033203 0)"/>
      </g>
     </g>
    </g>
    <g id="ytick_2">
     <g id="line2d_21">
      <path d="M 50.14375 223.94338 
L 557.667187 223.94338 
" clip-path="url(#pdd84919bb5)" style="fill: none; stroke-dasharray: 2.96,1.28; stroke-dashoffset: 0; stroke: #b0b0b0; stroke-opacity: 0.8; stroke-width: 0.8"/>
     </g>
     <g id="line2d_22">
      <g>
       <use xlink:href="#m327e6ccd54" x="50.14375" y="223.94338" style="stroke: #000000; stroke-width: 0.8"/>
      </g>
     </g>
     <g id="text_12">
      <!-- 0.05 -->
      <g transform="translate(20.878125 227.742598) scale(0.1 -0.1)">
       <use xlink:href="#DejaVuSans-30"/>
       <use xlink:href="#DejaVuSans-2e" transform="translate(63.623047 0)"/>
       <use xlink:href="#DejaVuSans-30" transform="translate(95.410156 0)"/>
       <use xlink:href="#DejaVuSans-35" transform="translate(159.033203 0)"/>
      </g>
     </g>
    </g>
    <g id="ytick_3">
     <g id="line2d_23">
      <path d="M 50.14375 197.443009 
L 557.667187 197.443009 
" clip-path="url(#pdd84919bb5)" style="fill: none; stroke-dasharray: 2.96,1.28; stroke-dashoffset: 0; stroke: #b0b0b0; stroke-opacity: 0.8; stroke-width: 0.8"/>
     </g>
     <g id="line2d_24">
      <g>
       <use xlink:href="#m327e6ccd54" x="50.14375" y="197.443009" style="stroke: #000000; stroke-width: 0.8"/>
      </g>
     </g>
     <g id="text_13">
      <!-- 0.10 -->
      <g transform="translate(20.878125 201.242228) scale(0.1 -0.1)">
       <use xlink:href="#DejaVuSans-30"/>
       <use xlink:href="#DejaVuSans-2e" transform="translate(63.623047 0)"/>
       <use xlink:href="#DejaVuSans-31" transform="translate(95.410156 0)"/>
       <use xlink:href="#DejaVuSans-30" transform="translate(159.033203 0)"/>
      </g>
     </g>
    </g>
    <g id="ytick_4">
     <g id="line2d_25">
      <path d="M 50.14375 170.942639 
L 557.667187 170.942639 
" clip-path="url(#pdd84919bb5)" style="fill: none; stroke-dasharray: 2.96,1.28; stroke-dashoffset: 0; stroke: #b0b0b0; stroke-opacity: 0.8; stroke-width: 0.8"/>
     </g>
     <g id="line2d_26">
      <g>
       <use xlink:href="#m327e6ccd54" x="50.14375" y="170.942639" style="stroke: #000000; stroke-width: 0.8"/>
      </g>
     </g>
     <g id="text_14">
      <!-- 0.15 -->
      <g transform="translate(20.878125 174.741857) scale(0.1 -0.1)">
       <use xlink:href="#DejaVuSans-30"/>
       <use xlink:href="#DejaVuSans-2e" transform="translate(63.623047 0)"/>
       <use xlink:href="#DejaVuSans-31" transform="translate(95.410156 0)"/>
       <use xlink:href="#DejaVuSans-35" transform="translate(159.033203 0)"/>
      </g>
     </g>
    </g>
    <g id="ytick_5">
     <g id="line2d_27">
      <path d="M 50.14375 144.442268 
L 557.667187 144.442268 
" clip-path="url(#pdd84919bb5)" style="fill: none; stroke-dasharray: 2.96,1.28; stroke-dashoffset: 0; stroke: #b0b0b0; stroke-opacity: 0.8; stroke-width: 0.8"/>
     </g>
     <g id="line2d_28">
      <g>
       <use xlink:href="#m327e6ccd54" x="50.14375" y="144.442268" style="stroke: #000000; stroke-width: 0.8"/>
      </g>
     </g>
     <g id="text_15">
      <!-- 0.20 -->
      <g transform="translate(20.878125 148.241487) scale(0.1 -0.1)">
       <use xlink:href="#DejaVuSans-30"/>
       <use xlink:href="#DejaVuSans-2e" transform="translate(63.623047 0)"/>
       <use xlink:href="#DejaVuSans-32" transform="translate(95.410156 0)"/>
       <use xlink:href="#DejaVuSans-30" transform="translate(159.033203 0)"/>
      </g>
     </g>
    </g>
    <g id="ytick_6">
     <g id="line2d_29">
      <path d="M 50.14375 117.941898 
L 557.667187 117.941898 
" clip-path="url(#pdd84919bb5)" style="fill: none; stroke-dasharray: 2.96,1.28; stroke-dashoffset: 0; stroke: #b0b0b0; stroke-opacity: 0.8; stroke-width: 0.8"/>
     </g>
     <g id="line2d_30">
      <g>
       <use xlink:href="#m327e6ccd54" x="50.14375" y="117.941898" style="stroke: #000000; stroke-width: 0.8"/>
      </g>
     </g>
     <g id="text_16">
      <!-- 0.25 -->
      <g transform="translate(20.878125 121.741116) scale(0.1 -0.1)">
       <use xlink:href="#DejaVuSans-30"/>
       <use xlink:href="#DejaVuSans-2e" transform="translate(63.623047 0)"/>
       <use xlink:href="#DejaVuSans-32" transform="translate(95.410156 0)"/>
       <use xlink:href="#DejaVuSans-35" transform="translate(159.033203 0)"/>
      </g>
     </g>
    </g>
    <g id="ytick_7">
     <g id="line2d_31">
      <path d="M 50.14375 91.441527 
L 557.667187 91.441527 
" clip-path="url(#pdd84919bb5)" style="fill: none; stroke-dasharray: 2.96,1.28; stroke-dashoffset: 0; stroke: #b0b0b0; stroke-opacity: 0.8; stroke-width: 0.8"/>
     </g>
     <g id="line2d_32">
      <g>
       <use xlink:href="#m327e6ccd54" x="50.14375" y="91.441527" style="stroke: #000000; stroke-width: 0.8"/>
      </g>
     </g>
     <g id="text_17">
      <!-- 0.30 -->
      <g transform="translate(20.878125 95.240746) scale(0.1 -0.1)">
       <defs>
        <path id="DejaVuSans-33" d="M 2597 2516 
Q 3050 2419 3304 2112 
Q 3559 1806 3559 1356 
Q 3559 666 3084 287 
Q 2609 -91 1734 -91 
Q 1441 -91 1130 -33 
Q 819 25 488 141 
L 488 750 
Q 750 597 1062 519 
Q 1375 441 1716 441 
Q 2309 441 2620 675 
Q 2931 909 2931 1356 
Q 2931 1769 2642 2001 
Q 2353 2234 1838 2234 
L 1294 2234 
L 1294 2753 
L 1863 2753 
Q 2328 2753 2575 2939 
Q 2822 3125 2822 3475 
Q 2822 3834 2567 4026 
Q 2313 4219 1838 4219 
Q 1578 4219 1281 4162 
Q 984 4106 628 3988 
L 628 4550 
Q 988 4650 1302 4700 
Q 1616 4750 1894 4750 
Q 2613 4750 3031 4423 
Q 3450 4097 3450 3541 
Q 3450 3153 3228 2886 
Q 3006 2619 2597 2516 
z
" transform="scale(0.015625)"/>
       </defs>
       <use xlink:href="#DejaVuSans-30"/>
       <use xlink:href="#DejaVuSans-2e" transform="translate(63.623047 0)"/>
       <use xlink:href="#DejaVuSans-33" transform="translate(95.410156 0)"/>
       <use xlink:href="#DejaVuSans-30" transform="translate(159.033203 0)"/>
      </g>
     </g>
    </g>
    <g id="ytick_8">
     <g id="line2d_33">
      <path d="M 50.14375 64.941157 
L 557.667187 64.941157 
" clip-path="url(#pdd84919bb5)" style="fill: none; stroke-dasharray: 2.96,1.28; stroke-dashoffset: 0; stroke: #b0b0b0; stroke-opacity: 0.8; stroke-width: 0.8"/>
     </g>
     <g id="line2d_34">
      <g>
       <use xlink:href="#m327e6ccd54" x="50.14375" y="64.941157" style="stroke: #000000; stroke-width: 0.8"/>
      </g>
     </g>
     <g id="text_18">
      <!-- 0.35 -->
      <g transform="translate(20.878125 68.740376) scale(0.1 -0.1)">
       <use xlink:href="#DejaVuSans-30"/>
       <use xlink:href="#DejaVuSans-2e" transform="translate(63.623047 0)"/>
       <use xlink:href="#DejaVuSans-33" transform="translate(95.410156 0)"/>
       <use xlink:href="#DejaVuSans-35" transform="translate(159.033203 0)"/>
      </g>
     </g>
    </g>
    <g id="ytick_9">
     <g id="line2d_35">
      <path d="M 50.14375 38.440786 
L 557.667187 38.440786 
" clip-path="url(#pdd84919bb5)" style="fill: none; stroke-dasharray: 2.96,1.28; stroke-dashoffset: 0; stroke: #b0b0b0; stroke-opacity: 0.8; stroke-width: 0.8"/>
     </g>
     <g id="line2d_36">
      <g>
       <use xlink:href="#m327e6ccd54" x="50.14375" y="38.440786" style="stroke: #000000; stroke-width: 0.8"/>
      </g>
     </g>
     <g id="text_19">
      <!-- 0.40 -->
      <g transform="translate(20.878125 42.240005) scale(0.1 -0.1)">
       <defs>
        <path id="DejaVuSans-34" d="M 2419 4116 
L 825 1625 
L 2419 1625 
L 2419 4116 
z
M 2253 4666 
L 3047 4666 
L 3047 1625 
L 3713 1625 
L 3713 1100 
L 3047 1100 
L 3047 0 
L 2419 0 
L 2419 1100 
L 313 1100 
L 313 1709 
L 2253 4666 
z
" transform="scale(0.015625)"/>
       </defs>
       <use xlink:href="#DejaVuSans-30"/>
       <use xlink:href="#DejaVuSans-2e" transform="translate(63.623047 0)"/>
       <use xlink:href="#DejaVuSans-34" transform="translate(95.410156 0)"/>
       <use xlink:href="#DejaVuSans-30" transform="translate(159.033203 0)"/>
      </g>
     </g>
    </g>
    <g id="text_20">
     <!-- Probability density -->
     <g transform="translate(14.798437 182.731719) rotate(-90) scale(0.1 -0.1)">
      <defs>
       <path id="DejaVuSans-50" d="M 1259 4147 
L 1259 2394 
L 2053 2394 
Q 2494 2394 2734 2622 
Q 2975 2850 2975 3272 
Q 2975 3691 2734 3919 
Q 2494 4147 2053 4147 
L 1259 4147 
z
M 628 4666 
L 2053 4666 
Q 2838 4666 3239 4311 
Q 3641 3956 3641 3272 
Q 3641 2581 3239 2228 
Q 2838 1875 2053 1875 
L 1259 1875 
L 1259 0 
L 628 0 
L 628 4666 
z
" transform="scale(0.015625)"/>
       <path id="DejaVuSans-74" d="M 1172 4494 
L 1172 3500 
L 2356 3500 
L 2356 3053 
L 1172 3053 
L 1172 1153 
Q 1172 725 1289 603 
Q 1406 481 1766 481 
L 2356 481 
L 2356 0 
L 1766 0 
Q 1100 0 847 248 
Q 594 497 594 1153 
L 594 3053 
L 172 3053 
L 172 3500 
L 594 3500 
L 594 4494 
L 1172 4494 
z
" transform="scale(0.015625)"/>
       <path id="DejaVuSans-79" d="M 2059 -325 
Q 1816 -950 1584 -1140 
Q 1353 -1331 966 -1331 
L 506 -1331 
L 506 -850 
L 844 -850 
Q 1081 -850 1212 -737 
Q 1344 -625 1503 -206 
L 1606 56 
L 191 3500 
L 800 3500 
L 1894 763 
L 2988 3500 
L 3597 3500 
L 2059 -325 
z
" transform="scale(0.015625)"/>
       <path id="DejaVuSans-73" d="M 2834 3397 
L 2834 2853 
Q 2591 2978 2328 3040 
Q 2066 3103 1784 3103 
Q 1356 3103 1142 2972 
Q 928 2841 928 2578 
Q 928 2378 1081 2264 
Q 1234 2150 1697 2047 
L 1894 2003 
Q 2506 1872 2764 1633 
Q 3022 1394 3022 966 
Q 3022 478 2636 193 
Q 2250 -91 1575 -91 
Q 1294 -91 989 -36 
Q 684 19 347 128 
L 347 722 
Q 666 556 975 473 
Q 1284 391 1588 391 
Q 1994 391 2212 530 
Q 2431 669 2431 922 
Q 2431 1156 2273 1281 
Q 2116 1406 1581 1522 
L 1381 1569 
Q 847 1681 609 1914 
Q 372 2147 372 2553 
Q 372 3047 722 3315 
Q 1072 3584 1716 3584 
Q 2034 3584 2315 3537 
Q 2597 3491 2834 3397 
z
" transform="scale(0.015625)"/>
      </defs>
      <use xlink:href="#DejaVuSans-50"/>
      <use xlink:href="#DejaVuSans-72" transform="translate(58.552734 0)"/>
      <use xlink:href="#DejaVuSans-6f" transform="translate(97.416016 0)"/>
      <use xlink:href="#DejaVuSans-62" transform="translate(158.597656 0)"/>
      <use xlink:href="#DejaVuSans-61" transform="translate(222.074219 0)"/>
      <use xlink:href="#DejaVuSans-62" transform="translate(283.353516 0)"/>
      <use xlink:href="#DejaVuSans-69" transform="translate(346.830078 0)"/>
      <use xlink:href="#DejaVuSans-6c" transform="translate(374.613281 0)"/>
      <use xlink:href="#DejaVuSans-69" transform="translate(402.396484 0)"/>
      <use xlink:href="#DejaVuSans-74" transform="translate(430.179688 0)"/>
      <use xlink:href="#DejaVuSans-79" transform="translate(469.388672 0)"/>
      <use xlink:href="#DejaVuSans-20" transform="translate(528.568359 0)"/>
      <use xlink:href="#DejaVuSans-64" transform="translate(560.355469 0)"/>
      <use xlink:href="#DejaVuSans-65" transform="translate(623.832031 0)"/>
      <use xlink:href="#DejaVuSans-6e" transform="translate(685.355469 0)"/>
      <use xlink:href="#DejaVuSans-73" transform="translate(748.734375 0)"/>
      <use xlink:href="#DejaVuSans-69" transform="translate(800.833984 0)"/>
      <use xlink:href="#DejaVuSans-74" transform="translate(828.617188 0)"/>
      <use xlink:href="#DejaVuSans-79" transform="translate(867.826172 0)"/>
     </g>
    </g>
   </g>
   <g id="line2d_37">
    <path d="M 50.14375 250.44375 
L 303.905469 250.44375 
L 309.488227 249.037911 
L 312.533367 248.02997 
L 315.070984 246.950641 
L 317.101078 245.8772 
L 319.131172 244.573023 
L 321.161266 242.994875 
L 323.191359 241.097364 
L 325.221453 238.83339 
L 327.251547 236.154857 
L 329.281641 233.01365 
L 331.311734 229.362864 
L 333.341828 225.158289 
L 335.371922 220.360105 
L 337.402016 214.93477 
L 339.432109 208.857013 
L 341.462203 202.111887 
L 343.492297 194.696782 
L 346.029914 184.504929 
L 348.567531 173.34348 
L 351.612672 158.814418 
L 355.165336 140.634699 
L 366.838375 79.435424 
L 369.375992 67.767585 
L 371.406086 59.339643 
L 373.43618 51.881006 
L 374.95875 47.00589 
L 376.48132 42.804239 
L 378.003891 39.320496 
L 379.018937 37.415453 
L 380.033984 35.855106 
L 381.049031 34.646791 
L 382.064078 33.796117 
L 383.079125 33.306922 
L 384.094172 33.18125 
L 385.109219 33.419329 
L 386.124266 34.019577 
L 387.139312 34.978618 
L 388.154359 36.291307 
L 389.169406 37.950783 
L 390.184453 39.948519 
L 391.707023 43.556822 
L 393.229594 47.862709 
L 394.752164 52.818919 
L 396.782258 60.345974 
L 398.812352 68.793985 
L 401.349969 80.417329 
L 404.395109 95.513018 
L 409.470344 122.055392 
L 414.545578 148.335096 
L 418.098242 165.55706 
L 421.143383 179.135254 
L 423.681 189.465575 
L 426.218617 198.829335 
L 428.756234 207.198861 
L 430.786328 213.180857 
L 432.816422 218.544142 
L 434.846516 223.312941 
L 436.876609 227.518697 
L 438.906703 231.198231 
L 440.936797 234.392014 
L 442.966891 237.14261 
L 444.996984 239.493311 
L 447.027078 241.486984 
L 449.057172 243.165128 
L 451.087266 244.567145 
L 453.117359 245.729807 
L 455.654977 246.897712 
L 458.192594 247.803163 
L 461.237734 248.614633 
L 464.282875 249.195075 
L 467.835539 249.658468 
L 472.40325 250.023605 
L 478.493531 250.270329 
L 488.136477 250.405823 
L 512.497602 250.443324 
L 557.667187 250.44375 
L 557.667187 250.44375 
" clip-path="url(#pdd84919bb5)" style="fill: none; stroke: #1f77b4; stroke-linecap: square"/>
   </g>
   <g id="line2d_38">
    <path d="M 50.14375 250.44375 
L 303.905469 250.44375 
L 304.412992 220.838819 
L 304.920516 208.992645 
L 305.935562 192.983803 
L 306.950609 181.463469 
L 307.965656 172.369389 
L 308.980703 164.882414 
L 309.99575 158.571936 
L 311.51832 150.763651 
L 313.040891 144.476845 
L 314.563461 139.369137 
L 316.086031 135.209402 
L 317.608602 131.831546 
L 319.131172 129.110652 
L 320.653742 126.949483 
L 322.176312 125.270294 
L 323.698883 124.009581 
L 325.221453 123.114563 
L 326.744023 122.540746 
L 328.266594 122.250171 
L 329.789164 122.210129 
L 331.311734 122.392193 
L 332.834305 122.771481 
L 334.864398 123.546477 
L 336.894492 124.58823 
L 338.924586 125.858004 
L 341.462203 127.715385 
L 344.507344 130.268119 
L 348.060008 133.593289 
L 352.120195 137.726847 
L 357.19543 143.219641 
L 366.330852 153.509479 
L 376.988844 165.427059 
L 384.094172 173.024267 
L 390.184453 179.219014 
L 395.767211 184.606258 
L 401.349969 189.698515 
L 406.932727 194.488966 
L 412.515484 198.977361 
L 418.098242 203.168299 
L 423.681 207.069894 
L 429.263758 210.692745 
L 434.846516 214.049138 
L 440.429273 217.152432 
L 446.012031 220.016586 
L 452.102312 222.885062 
L 458.192594 225.504202 
L 464.282875 227.892014 
L 470.88068 230.237947 
L 477.478484 232.353985 
L 484.583812 234.398605 
L 492.196664 236.345623 
L 499.809516 238.066506 
L 507.929891 239.680183 
L 516.557789 241.172888 
L 526.200734 242.605227 
L 536.351203 243.881224 
L 547.516719 245.052194 
L 557.667187 245.938493 
L 557.667187 245.938493 
" clip-path="url(#pdd84919bb5)" style="fill: none; stroke: #ff7f0e; stroke-linecap: square"/>
   </g>
   <g id="line2d_39">
    <path d="M 50.14375 249.276919 
L 76.027445 248.578115 
L 98.866 247.641342 
L 118.151891 246.48553 
L 135.915211 245.027775 
L 152.663484 243.193626 
L 167.381664 241.080545 
L 181.59232 238.495411 
L 195.295453 235.379115 
L 207.476016 231.933318 
L 220.671625 227.457935 
L 232.852187 222.382868 
L 236.912375 220.479344 
L 237.419898 220.348448 
L 249.600461 213.912944 
L 251.123031 212.970905 
L 251.630555 212.811906 
L 258.228359 208.64829 
L 258.735883 208.474093 
L 265.333687 203.923777 
L 265.841211 203.733891 
L 268.886352 201.407731 
L 269.393875 201.209923 
L 272.439016 198.788777 
L 272.946539 198.583071 
L 275.99168 196.067681 
L 276.499203 195.85418 
L 279.544344 193.24629 
L 280.051867 193.025187 
L 283.097008 190.327782 
L 283.604531 190.099385 
L 286.649672 187.316974 
L 287.157195 187.081731 
L 290.202336 184.220724 
L 290.709859 183.979262 
L 293.755 181.048453 
L 294.262523 180.801623 
L 297.307664 177.812876 
L 297.815187 177.561819 
L 300.860328 174.531121 
L 301.367852 174.277387 
L 304.412992 171.22719 
L 304.920516 170.973115 
L 308.47318 167.432526 
L 308.980703 167.181386 
L 312.025844 164.197727 
L 312.533367 163.952163 
L 315.578508 161.055879 
L 316.086031 160.819425 
L 319.131172 158.057078 
L 319.638695 157.833961 
L 322.683836 155.260358 
L 323.191359 155.055479 
L 326.2365 152.733252 
L 326.744023 152.552134 
L 329.789164 150.55077 
L 330.296687 150.399447 
L 332.834305 149.032917 
L 333.341828 148.793607 
L 334.356875 148.457329 
L 336.386969 147.700985 
L 337.909539 147.338547 
L 339.939633 146.948572 
L 341.969727 146.811502 
L 343.99982 146.903414 
L 345.522391 147.102028 
L 348.060008 147.745312 
L 350.090102 148.636251 
L 353.135242 150.366463 
L 356.180383 152.689606 
L 359.733047 156.192426 
L 363.793234 161.206791 
L 365.315805 163.483412 
L 365.823328 163.876906 
L 368.360945 168.018228 
L 368.868469 168.888865 
L 369.375992 169.329128 
L 372.421133 174.846327 
L 372.928656 175.323716 
L 375.973797 181.220991 
L 376.48132 181.724384 
L 379.526461 187.862231 
L 380.033984 188.379613 
L 383.079125 194.61176 
L 383.586648 195.13089 
L 386.631789 201.312406 
L 387.139312 201.82149 
L 390.184453 207.816683 
L 390.691977 208.305004 
L 393.737117 213.994391 
L 394.244641 214.452834 
L 397.289781 219.738587 
L 397.797305 220.160015 
L 400.842445 224.969474 
L 401.349969 225.348934 
L 403.887586 228.956047 
L 404.395109 229.636015 
L 404.902633 229.970771 
L 407.44025 233.126132 
L 407.947773 233.715336 
L 408.455297 234.004732 
L 410.992914 236.70981 
L 411.500437 237.210198 
L 412.007961 237.455401 
L 414.545578 239.728467 
L 415.053102 240.145014 
L 415.560625 240.348663 
L 418.098242 242.221035 
L 418.605766 242.560958 
L 419.113289 242.726764 
L 421.650906 244.238782 
L 422.15843 244.510731 
L 422.665953 244.643078 
L 425.20357 245.840192 
L 426.218617 246.157076 
L 429.263758 247.250413 
L 431.293852 247.772638 
L 433.831469 248.336293 
L 436.876609 248.927253 
L 438.906703 249.200773 
L 442.459367 249.596274 
L 447.027078 249.943795 
L 452.609836 250.185399 
L 460.730211 250.355196 
L 475.448391 250.433672 
L 548.531766 250.44375 
L 557.667187 250.44375 
L 557.667187 250.44375 
" clip-path="url(#pdd84919bb5)" style="fill: none; stroke: #2ca02c; stroke-linecap: square"/>
   </g>
   <g id="patch_3">
    <path d="M -1 250.041463 
L 5.030319 250.041463 
L 5.030319 249.811585 
L 12.051199 249.811585 
L 12.051199 249.658333 
L 40.134721 249.62002 
L 40.134721 249.466768 
L 54.176482 249.505081 
L 54.176482 249.026168 
L 68.218243 249.064481 
L 68.218243 248.757977 
L 75.239124 248.757977 
L 75.239124 248.643038 
L 82.260004 248.643038 
L 82.260004 248.087499 
L 89.280885 248.087499 
L 89.280885 247.685212 
L 96.301765 247.685212 
L 96.301765 247.417021 
L 103.322646 247.417021 
L 103.322646 246.823169 
L 110.343526 246.823169 
L 110.343526 247.206299 
L 117.364407 247.206299 
L 117.364407 246.171848 
L 124.385287 246.171848 
L 124.385287 246.018595 
L 131.406168 246.018595 
L 131.406168 244.984144 
L 138.427048 244.984144 
L 138.427048 244.715953 
L 145.447929 244.715953 
L 145.447929 243.604875 
L 152.468809 243.604875 
L 152.468809 242.685362 
L 159.48969 242.685362 
L 159.48969 241.804162 
L 166.51057 241.804162 
L 166.51057 241.018745 
L 173.531451 241.018745 
L 173.531451 238.719964 
L 180.552331 238.719964 
L 180.552331 238.509242 
L 187.573212 238.509242 
L 187.573212 236.152991 
L 194.594092 236.152991 
L 194.594092 234.792879 
L 201.614973 234.792879 
L 201.614973 232.704819 
L 208.635853 232.704819 
L 208.635853 229.448211 
L 215.656734 229.448211 
L 215.656734 228.681951 
L 222.677614 228.681951 
L 222.677614 224.965587 
L 229.698495 224.965587 
L 229.698495 221.728137 
L 236.719376 221.728137 
L 236.719376 220.118989 
L 243.740256 220.118989 
L 243.740256 216.440939 
L 250.761137 216.440939 
L 250.761137 211.153741 
L 257.782017 211.153741 
L 257.782017 205.674978 
L 264.802898 205.674978 
L 264.802898 202.09271 
L 271.823778 202.09271 
L 271.823778 198.338034 
L 278.844659 198.338034 
L 278.844659 191.020246 
L 285.865539 191.020246 
L 285.865539 184.928474 
L 292.88642 184.928474 
L 292.88642 177.840564 
L 299.9073 177.840564 
L 299.9073 173.204688 
L 306.928181 173.204688 
L 306.928181 165.963526 
L 313.949061 165.963526 
L 313.949061 160.082477 
L 320.969942 160.082477 
L 320.969942 155.772261 
L 327.990822 155.772261 
L 327.990822 149.642177 
L 335.011703 149.642177 
L 335.011703 148.933386 
L 342.032583 148.933386 
L 342.032583 146.538822 
L 349.053464 146.538822 
L 349.053464 147.611586 
L 356.074344 147.611586 
L 356.074344 155.178409 
L 363.095225 155.178409 
L 363.095225 167.419421 
L 370.116105 167.419421 
L 370.116105 175.94407 
L 377.136986 175.94407 
L 377.136986 189.526038 
L 384.157866 189.526038 
L 384.157866 202.054397 
L 391.178747 202.054397 
L 391.178747 214.199627 
L 398.199627 214.199627 
L 398.199627 225.329561 
L 405.220508 225.329561 
L 405.220508 235.271791 
L 412.241388 235.271791 
L 412.241388 240.156702 
L 419.262269 240.156702 
L 419.262269 244.371135 
L 426.283149 244.371135 
L 426.283149 247.340395 
L 433.30403 247.340395 
L 433.30403 248.79629 
L 440.32491 248.79629 
L 440.32491 249.639176 
L 447.345791 249.639176 
L 447.345791 250.041463 
L 454.366671 250.041463 
L 454.366671 250.290498 
L 468.408432 250.38628 
L 468.408432 250.424593 
L 482.450194 250.424593 
L 482.450194 250.44375 
" clip-path="url(#pdd84919bb5)" style="fill: none; stroke: #d62728; stroke-linejoin: miter"/>
   </g>
   <g id="patch_4">
    <path d="M 50.14375 250.44375 
L 50.14375 22.318125 
" style="fill: none; stroke: #000000; stroke-width: 0.8; stroke-linejoin: miter; stroke-linecap: square"/>
   </g>
   <g id="patch_5">
    <path d="M 557.667187 250.44375 
L 557.667187 22.318125 
" style="fill: none; stroke: #000000; stroke-width: 0.8; stroke-linejoin: miter; stroke-linecap: square"/>
   </g>
   <g id="patch_6">
    <path d="M 50.14375 250.44375 
L 557.667187 250.44375 
" style="fill: none; stroke: #000000; stroke-width: 0.8; stroke-linejoin: miter; stroke-linecap: square"/>
   </g>
   <g id="patch_7">
    <path d="M 50.14375 22.318125 
L 557.667187 22.318125 
" style="fill: none; stroke: #000000; stroke-width: 0.8; stroke-linejoin: miter; stroke-linecap: square"/>
   </g>
   <g id="text_21">
    <!-- Difference of Rician and Chi-squared random variables -->
    <g transform="translate(139.418281 16.318125) scale(0.12 -0.12)">
     <defs>
      <path id="DejaVuSans-44" d="M 1259 4147 
L 1259 519 
L 2022 519 
Q 2988 519 3436 956 
Q 3884 1394 3884 2338 
Q 3884 3275 3436 3711 
Q 2988 4147 2022 4147 
L 1259 4147 
z
M 628 4666 
L 1925 4666 
Q 3281 4666 3915 4102 
Q 4550 3538 4550 2338 
Q 4550 1131 3912 565 
Q 3275 0 1925 0 
L 628 0 
L 628 4666 
z
" transform="scale(0.015625)"/>
      <path id="DejaVuSans-66" d="M 2375 4863 
L 2375 4384 
L 1825 4384 
Q 1516 4384 1395 4259 
Q 1275 4134 1275 3809 
L 1275 3500 
L 2222 3500 
L 2222 3053 
L 1275 3053 
L 1275 0 
L 697 0 
L 697 3053 
L 147 3053 
L 147 3500 
L 697 3500 
L 697 3744 
Q 697 4328 969 4595 
Q 1241 4863 1831 4863 
L 2375 4863 
z
" transform="scale(0.015625)"/>
      <path id="DejaVuSans-63" d="M 3122 3366 
L 3122 2828 
Q 2878 2963 2633 3030 
Q 2388 3097 2138 3097 
Q 1578 3097 1268 2742 
Q 959 2388 959 1747 
Q 959 1106 1268 751 
Q 1578 397 2138 397 
Q 2388 397 2633 464 
Q 2878 531 3122 666 
L 3122 134 
Q 2881 22 2623 -34 
Q 2366 -91 2075 -91 
Q 1284 -91 818 406 
Q 353 903 353 1747 
Q 353 2603 823 3093 
Q 1294 3584 2113 3584 
Q 2378 3584 2631 3529 
Q 2884 3475 3122 3366 
z
" transform="scale(0.015625)"/>
      <path id="DejaVuSans-43" d="M 4122 4306 
L 4122 3641 
Q 3803 3938 3442 4084 
Q 3081 4231 2675 4231 
Q 1875 4231 1450 3742 
Q 1025 3253 1025 2328 
Q 1025 1406 1450 917 
Q 1875 428 2675 428 
Q 3081 428 3442 575 
Q 3803 722 4122 1019 
L 4122 359 
Q 3791 134 3420 21 
Q 3050 -91 2638 -91 
Q 1578 -91 968 557 
Q 359 1206 359 2328 
Q 359 3453 968 4101 
Q 1578 4750 2638 4750 
Q 3056 4750 3426 4639 
Q 3797 4528 4122 4306 
z
" transform="scale(0.015625)"/>
      <path id="DejaVuSans-68" d="M 3513 2113 
L 3513 0 
L 2938 0 
L 2938 2094 
Q 2938 2591 2744 2837 
Q 2550 3084 2163 3084 
Q 1697 3084 1428 2787 
Q 1159 2491 1159 1978 
L 1159 0 
L 581 0 
L 581 4863 
L 1159 4863 
L 1159 2956 
Q 1366 3272 1645 3428 
Q 1925 3584 2291 3584 
Q 2894 3584 3203 3211 
Q 3513 2838 3513 2113 
z
" transform="scale(0.015625)"/>
      <path id="DejaVuSans-2d" d="M 313 2009 
L 1997 2009 
L 1997 1497 
L 313 1497 
L 313 2009 
z
" transform="scale(0.015625)"/>
      <path id="DejaVuSans-71" d="M 947 1747 
Q 947 1113 1208 752 
Q 1469 391 1925 391 
Q 2381 391 2643 752 
Q 2906 1113 2906 1747 
Q 2906 2381 2643 2742 
Q 2381 3103 1925 3103 
Q 1469 3103 1208 2742 
Q 947 2381 947 1747 
z
M 2906 525 
Q 2725 213 2448 61 
Q 2172 -91 1784 -91 
Q 1150 -91 751 415 
Q 353 922 353 1747 
Q 353 2572 751 3078 
Q 1150 3584 1784 3584 
Q 2172 3584 2448 3432 
Q 2725 3281 2906 2969 
L 2906 3500 
L 3481 3500 
L 3481 -1331 
L 2906 -1331 
L 2906 525 
z
" transform="scale(0.015625)"/>
      <path id="DejaVuSans-75" d="M 544 1381 
L 544 3500 
L 1119 3500 
L 1119 1403 
Q 1119 906 1312 657 
Q 1506 409 1894 409 
Q 2359 409 2629 706 
Q 2900 1003 2900 1516 
L 2900 3500 
L 3475 3500 
L 3475 0 
L 2900 0 
L 2900 538 
Q 2691 219 2414 64 
Q 2138 -91 1772 -91 
Q 1169 -91 856 284 
Q 544 659 544 1381 
z
M 1991 3584 
L 1991 3584 
z
" transform="scale(0.015625)"/>
     </defs>
     <use xlink:href="#DejaVuSans-44"/>
     <use xlink:href="#DejaVuSans-69" transform="translate(77.001953 0)"/>
     <use xlink:href="#DejaVuSans-66" transform="translate(104.785156 0)"/>
     <use xlink:href="#DejaVuSans-66" transform="translate(139.990234 0)"/>
     <use xlink:href="#DejaVuSans-65" transform="translate(175.195312 0)"/>
     <use xlink:href="#DejaVuSans-72" transform="translate(236.71875 0)"/>
     <use xlink:href="#DejaVuSans-65" transform="translate(275.582031 0)"/>
     <use xlink:href="#DejaVuSans-6e" transform="translate(337.105469 0)"/>
     <use xlink:href="#DejaVuSans-63" transform="translate(400.484375 0)"/>
     <use xlink:href="#DejaVuSans-65" transform="translate(455.464844 0)"/>
     <use xlink:href="#DejaVuSans-20" transform="translate(516.988281 0)"/>
     <use xlink:href="#DejaVuSans-6f" transform="translate(548.775391 0)"/>
     <use xlink:href="#DejaVuSans-66" transform="translate(609.957031 0)"/>
     <use xlink:href="#DejaVuSans-20" transform="translate(645.162109 0)"/>
     <use xlink:href="#DejaVuSans-52" transform="translate(676.949219 0)"/>
     <use xlink:href="#DejaVuSans-69" transform="translate(746.431641 0)"/>
     <use xlink:href="#DejaVuSans-63" transform="translate(774.214844 0)"/>
     <use xlink:href="#DejaVuSans-69" transform="translate(829.195312 0)"/>
     <use xlink:href="#DejaVuSans-61" transform="translate(856.978516 0)"/>
     <use xlink:href="#DejaVuSans-6e" transform="translate(918.257812 0)"/>
     <use xlink:href="#DejaVuSans-20" transform="translate(981.636719 0)"/>
     <use xlink:href="#DejaVuSans-61" transform="translate(1013.423828 0)"/>
     <use xlink:href="#DejaVuSans-6e" transform="translate(1074.703125 0)"/>
     <use xlink:href="#DejaVuSans-64" transform="translate(1138.082031 0)"/>
     <use xlink:href="#DejaVuSans-20" transform="translate(1201.558594 0)"/>
     <use xlink:href="#DejaVuSans-43" transform="translate(1233.345703 0)"/>
     <use xlink:href="#DejaVuSans-68" transform="translate(1303.169922 0)"/>
     <use xlink:href="#DejaVuSans-69" transform="translate(1366.548828 0)"/>
     <use xlink:href="#DejaVuSans-2d" transform="translate(1394.332031 0)"/>
     <use xlink:href="#DejaVuSans-73" transform="translate(1430.416016 0)"/>
     <use xlink:href="#DejaVuSans-71" transform="translate(1482.515625 0)"/>
     <use xlink:href="#DejaVuSans-75" transform="translate(1545.992188 0)"/>
     <use xlink:href="#DejaVuSans-61" transform="translate(1609.371094 0)"/>
     <use xlink:href="#DejaVuSans-72" transform="translate(1670.650391 0)"/>
     <use xlink:href="#DejaVuSans-65" transform="translate(1709.513672 0)"/>
     <use xlink:href="#DejaVuSans-64" transform="translate(1771.037109 0)"/>
     <use xlink:href="#DejaVuSans-20" transform="translate(1834.513672 0)"/>
     <use xlink:href="#DejaVuSans-72" transform="translate(1866.300781 0)"/>
     <use xlink:href="#DejaVuSans-61" transform="translate(1907.414062 0)"/>
     <use xlink:href="#DejaVuSans-6e" transform="translate(1968.693359 0)"/>
     <use xlink:href="#DejaVuSans-64" transform="translate(2032.072266 0)"/>
     <use xlink:href="#DejaVuSans-6f" transform="translate(2095.548828 0)"/>
     <use xlink:href="#DejaVuSans-6d" transform="translate(2156.730469 0)"/>
     <use xlink:href="#DejaVuSans-20" transform="translate(2254.142578 0)"/>
     <use xlink:href="#DejaVuSans-76" transform="translate(2285.929688 0)"/>
     <use xlink:href="#DejaVuSans-61" transform="translate(2345.109375 0)"/>
     <use xlink:href="#DejaVuSans-72" transform="translate(2406.388672 0)"/>
     <use xlink:href="#DejaVuSans-69" transform="translate(2447.501953 0)"/>
     <use xlink:href="#DejaVuSans-61" transform="translate(2475.285156 0)"/>
     <use xlink:href="#DejaVuSans-62" transform="translate(2536.564453 0)"/>
     <use xlink:href="#DejaVuSans-6c" transform="translate(2600.041016 0)"/>
     <use xlink:href="#DejaVuSans-65" transform="translate(2627.824219 0)"/>
     <use xlink:href="#DejaVuSans-73" transform="translate(2689.347656 0)"/>
    </g>
   </g>
   <g id="legend_1">
    <g id="patch_8">
     <path d="M 443.867187 89.0525 
L 550.667187 89.0525 
Q 552.667187 89.0525 552.667187 87.0525 
L 552.667187 29.318125 
Q 552.667187 27.318125 550.667187 27.318125 
L 443.867187 27.318125 
Q 441.867187 27.318125 441.867187 29.318125 
L 441.867187 87.0525 
Q 441.867187 89.0525 443.867187 89.0525 
z
" style="fill: #ffffff; opacity: 0.8; stroke: #cccccc; stroke-linejoin: miter"/>
    </g>
    <g id="line2d_40">
     <path d="M 445.867187 35.416562 
L 455.867187 35.416562 
L 465.867187 35.416562 
" style="fill: none; stroke: #1f77b4; stroke-linecap: square"/>
    </g>
    <g id="text_22">
     <!-- $X$ -->
     <g transform="translate(473.867187 38.916562) scale(0.1 -0.1)">
      <defs>
       <path id="DejaVuSans-Oblique-58" d="M 878 4666 
L 1516 4666 
L 2316 2981 
L 3763 4666 
L 4500 4666 
L 2578 2438 
L 3738 0 
L 3103 0 
L 2163 1966 
L 459 0 
L -275 0 
L 1906 2509 
L 878 4666 
z
" transform="scale(0.015625)"/>
      </defs>
      <use xlink:href="#DejaVuSans-Oblique-58" transform="translate(0 0.09375)"/>
     </g>
    </g>
    <g id="line2d_41">
     <path d="M 445.867187 50.094687 
L 455.867187 50.094687 
L 465.867187 50.094687 
" style="fill: none; stroke: #ff7f0e; stroke-linecap: square"/>
    </g>
    <g id="text_23">
     <!-- $Y$ -->
     <g transform="translate(473.867187 53.594687) scale(0.1 -0.1)">
      <defs>
       <path id="DejaVuSans-Oblique-59" d="M 403 4666 
L 1081 4666 
L 1953 2747 
L 3616 4666 
L 4325 4666 
L 2209 2222 
L 1778 0 
L 1147 0 
L 1575 2222 
L 403 4666 
z
" transform="scale(0.015625)"/>
      </defs>
      <use xlink:href="#DejaVuSans-Oblique-59" transform="translate(0 0.09375)"/>
     </g>
    </g>
    <g id="line2d_42">
     <path d="M 445.867187 64.772812 
L 455.867187 64.772812 
L 465.867187 64.772812 
" style="fill: none; stroke: #2ca02c; stroke-linecap: square"/>
    </g>
    <g id="text_24">
     <!-- $X - Y$ -->
     <g transform="translate(473.867187 68.272812) scale(0.1 -0.1)">
      <use xlink:href="#DejaVuSans-Oblique-58" transform="translate(0 0.09375)"/>
      <use xlink:href="#DejaVuSans-2212" transform="translate(87.988281 0.09375)"/>
      <use xlink:href="#DejaVuSans-Oblique-59" transform="translate(191.259766 0.09375)"/>
     </g>
    </g>
    <g id="patch_9">
     <path d="M 445.867187 82.9525 
L 465.867187 82.9525 
L 465.867187 75.9525 
L 445.867187 75.9525 
L 445.867187 82.9525 
z
" style="fill: none; stroke: #d62728; stroke-linejoin: miter"/>
    </g>
    <g id="text_25">
     <!-- $X - Y$ empirical -->
     <g transform="translate(473.867187 82.9525) scale(0.1 -0.1)">
      <defs>
       <path id="DejaVuSans-70" d="M 1159 525 
L 1159 -1331 
L 581 -1331 
L 581 3500 
L 1159 3500 
L 1159 2969 
Q 1341 3281 1617 3432 
Q 1894 3584 2278 3584 
Q 2916 3584 3314 3078 
Q 3713 2572 3713 1747 
Q 3713 922 3314 415 
Q 2916 -91 2278 -91 
Q 1894 -91 1617 61 
Q 1341 213 1159 525 
z
M 3116 1747 
Q 3116 2381 2855 2742 
Q 2594 3103 2138 3103 
Q 1681 3103 1420 2742 
Q 1159 2381 1159 1747 
Q 1159 1113 1420 752 
Q 1681 391 2138 391 
Q 2594 391 2855 752 
Q 3116 1113 3116 1747 
z
" transform="scale(0.015625)"/>
      </defs>
      <use xlink:href="#DejaVuSans-Oblique-58" transform="translate(0 0.015625)"/>
      <use xlink:href="#DejaVuSans-2212" transform="translate(87.988281 0.015625)"/>
      <use xlink:href="#DejaVuSans-Oblique-59" transform="translate(191.259766 0.015625)"/>
      <use xlink:href="#DejaVuSans-20" transform="translate(252.34375 0.015625)"/>
      <use xlink:href="#DejaVuSans-65" transform="translate(284.130859 0.015625)"/>
      <use xlink:href="#DejaVuSans-6d" transform="translate(345.654297 0.015625)"/>
      <use xlink:href="#DejaVuSans-70" transform="translate(443.066406 0.015625)"/>
      <use xlink:href="#DejaVuSans-69" transform="translate(506.542969 0.015625)"/>
      <use xlink:href="#DejaVuSans-72" transform="translate(534.326172 0.015625)"/>
      <use xlink:href="#DejaVuSans-69" transform="translate(575.439453 0.015625)"/>
      <use xlink:href="#DejaVuSans-63" transform="translate(603.222656 0.015625)"/>
      <use xlink:href="#DejaVuSans-61" transform="translate(658.203125 0.015625)"/>
      <use xlink:href="#DejaVuSans-6c" transform="translate(719.482422 0.015625)"/>
     </g>
    </g>
   </g>
  </g>
 </g>
 <defs>
  <clipPath id="pdd84919bb5">
   <rect x="50.14375" y="22.318125" width="507.523437" height="228.125625"/>
  </clipPath>
 </defs>
</svg>
