<?xml version="1.0" encoding="utf-8" standalone="no"?>
<!DOCTYPE svg PUBLIC "-//W3C//DTD SVG 1.1//EN"
  "http://www.w3.org/Graphics/SVG/1.1/DTD/svg11.dtd">
<svg xmlns:xlink="http://www.w3.org/1999/xlink" width="576pt" height="288pt" viewBox="0 0 576 288" xmlns="http://www.w3.org/2000/svg" version="1.1">
 <metadata>
  <rdf:RDF xmlns:dc="http://purl.org/dc/elements/1.1/" xmlns:cc="http://creativecommons.org/ns#" xmlns:rdf="http://www.w3.org/1999/02/22-rdf-syntax-ns#">
   <cc:Work>
    <dc:type rdf:resource="http://purl.org/dc/dcmitype/StillImage"/>
    <dc:date>2025-05-10T16:33:04.538970</dc:date>
    <dc:format>image/svg+xml</dc:format>
    <dc:creator>
     <cc:Agent>
      <dc:title>Matplotlib v3.10.3, https://matplotlib.org/</dc:title>
     </cc:Agent>
    </dc:creator>
   </cc:Work>
  </rdf:RDF>
 </metadata>
 <defs>
  <style type="text/css">*{stroke-linejoin: round; stroke-linecap: butt}</style>
 </defs>
 <g id="figure_1">
  <g id="patch_1">
   <path d="M 0 288 
L 576 288 
L 576 0 
L 0 0 
z
" style="fill: #ffffff"/>
  </g>
  <g id="axes_1">
   <g id="patch_2">
    <path d="M 43.78125 250.44375 
L 568.8 250.44375 
L 568.8 22.318125 
L 43.78125 22.318125 
z
" style="fill: #ffffff"/>
   </g>
   <g id="matplotlib.axis_1">
    <g id="xtick_1">
     <g id="line2d_1">
      <path d="M 67.645739 250.44375 
L 67.645739 22.318125 
" clip-path="url(#pc53c082280)" style="fill: none; stroke-dasharray: 2.96,1.28; stroke-dashoffset: 0; stroke: #b0b0b0; stroke-opacity: 0.8; stroke-width: 0.8"/>
     </g>
     <g id="line2d_2">
      <defs>
       <path id="me3217175be" d="M 0 0 
L 0 3.5 
" style="stroke: #000000; stroke-width: 0.8"/>
      </defs>
      <g>
       <use xlink:href="#me3217175be" x="67.645739" y="250.44375" style="stroke: #000000; stroke-width: 0.8"/>
      </g>
     </g>
     <g id="text_1">
      <!-- −4 -->
      <g transform="translate(60.274645 265.042188) scale(0.1 -0.1)">
       <defs>
        <path id="DejaVuSans-2212" d="M 678 2272 
L 4684 2272 
L 4684 1741 
L 678 1741 
L 678 2272 
z
" transform="scale(0.015625)"/>
        <path id="DejaVuSans-34" d="M 2419 4116 
L 825 1625 
L 2419 1625 
L 2419 4116 
z
M 2253 4666 
L 3047 4666 
L 3047 1625 
L 3713 1625 
L 3713 1100 
L 3047 1100 
L 3047 0 
L 2419 0 
L 2419 1100 
L 313 1100 
L 313 1709 
L 2253 4666 
z
" transform="scale(0.015625)"/>
       </defs>
       <use xlink:href="#DejaVuSans-2212"/>
       <use xlink:href="#DejaVuSans-34" transform="translate(83.789062 0)"/>
      </g>
     </g>
    </g>
    <g id="xtick_2">
     <g id="line2d_3">
      <path d="M 163.103693 250.44375 
L 163.103693 22.318125 
" clip-path="url(#pc53c082280)" style="fill: none; stroke-dasharray: 2.96,1.28; stroke-dashoffset: 0; stroke: #b0b0b0; stroke-opacity: 0.8; stroke-width: 0.8"/>
     </g>
     <g id="line2d_4">
      <g>
       <use xlink:href="#me3217175be" x="163.103693" y="250.44375" style="stroke: #000000; stroke-width: 0.8"/>
      </g>
     </g>
     <g id="text_2">
      <!-- −3 -->
      <g transform="translate(155.732599 265.042188) scale(0.1 -0.1)">
       <defs>
        <path id="DejaVuSans-33" d="M 2597 2516 
Q 3050 2419 3304 2112 
Q 3559 1806 3559 1356 
Q 3559 666 3084 287 
Q 2609 -91 1734 -91 
Q 1441 -91 1130 -33 
Q 819 25 488 141 
L 488 750 
Q 750 597 1062 519 
Q 1375 441 1716 441 
Q 2309 441 2620 675 
Q 2931 909 2931 1356 
Q 2931 1769 2642 2001 
Q 2353 2234 1838 2234 
L 1294 2234 
L 1294 2753 
L 1863 2753 
Q 2328 2753 2575 2939 
Q 2822 3125 2822 3475 
Q 2822 3834 2567 4026 
Q 2313 4219 1838 4219 
Q 1578 4219 1281 4162 
Q 984 4106 628 3988 
L 628 4550 
Q 988 4650 1302 4700 
Q 1616 4750 1894 4750 
Q 2613 4750 3031 4423 
Q 3450 4097 3450 3541 
Q 3450 3153 3228 2886 
Q 3006 2619 2597 2516 
z
" transform="scale(0.015625)"/>
       </defs>
       <use xlink:href="#DejaVuSans-2212"/>
       <use xlink:href="#DejaVuSans-33" transform="translate(83.789062 0)"/>
      </g>
     </g>
    </g>
    <g id="xtick_3">
     <g id="line2d_5">
      <path d="M 258.561648 250.44375 
L 258.561648 22.318125 
" clip-path="url(#pc53c082280)" style="fill: none; stroke-dasharray: 2.96,1.28; stroke-dashoffset: 0; stroke: #b0b0b0; stroke-opacity: 0.8; stroke-width: 0.8"/>
     </g>
     <g id="line2d_6">
      <g>
       <use xlink:href="#me3217175be" x="258.561648" y="250.44375" style="stroke: #000000; stroke-width: 0.8"/>
      </g>
     </g>
     <g id="text_3">
      <!-- −2 -->
      <g transform="translate(251.190554 265.042188) scale(0.1 -0.1)">
       <defs>
        <path id="DejaVuSans-32" d="M 1228 531 
L 3431 531 
L 3431 0 
L 469 0 
L 469 531 
Q 828 903 1448 1529 
Q 2069 2156 2228 2338 
Q 2531 2678 2651 2914 
Q 2772 3150 2772 3378 
Q 2772 3750 2511 3984 
Q 2250 4219 1831 4219 
Q 1534 4219 1204 4116 
Q 875 4013 500 3803 
L 500 4441 
Q 881 4594 1212 4672 
Q 1544 4750 1819 4750 
Q 2544 4750 2975 4387 
Q 3406 4025 3406 3419 
Q 3406 3131 3298 2873 
Q 3191 2616 2906 2266 
Q 2828 2175 2409 1742 
Q 1991 1309 1228 531 
z
" transform="scale(0.015625)"/>
       </defs>
       <use xlink:href="#DejaVuSans-2212"/>
       <use xlink:href="#DejaVuSans-32" transform="translate(83.789062 0)"/>
      </g>
     </g>
    </g>
    <g id="xtick_4">
     <g id="line2d_7">
      <path d="M 354.019602 250.44375 
L 354.019602 22.318125 
" clip-path="url(#pc53c082280)" style="fill: none; stroke-dasharray: 2.96,1.28; stroke-dashoffset: 0; stroke: #b0b0b0; stroke-opacity: 0.8; stroke-width: 0.8"/>
     </g>
     <g id="line2d_8">
      <g>
       <use xlink:href="#me3217175be" x="354.019602" y="250.44375" style="stroke: #000000; stroke-width: 0.8"/>
      </g>
     </g>
     <g id="text_4">
      <!-- −1 -->
      <g transform="translate(346.648509 265.042188) scale(0.1 -0.1)">
       <defs>
        <path id="DejaVuSans-31" d="M 794 531 
L 1825 531 
L 1825 4091 
L 703 3866 
L 703 4441 
L 1819 4666 
L 2450 4666 
L 2450 531 
L 3481 531 
L 3481 0 
L 794 0 
L 794 531 
z
" transform="scale(0.015625)"/>
       </defs>
       <use xlink:href="#DejaVuSans-2212"/>
       <use xlink:href="#DejaVuSans-31" transform="translate(83.789062 0)"/>
      </g>
     </g>
    </g>
    <g id="xtick_5">
     <g id="line2d_9">
      <path d="M 449.477557 250.44375 
L 449.477557 22.318125 
" clip-path="url(#pc53c082280)" style="fill: none; stroke-dasharray: 2.96,1.28; stroke-dashoffset: 0; stroke: #b0b0b0; stroke-opacity: 0.8; stroke-width: 0.8"/>
     </g>
     <g id="line2d_10">
      <g>
       <use xlink:href="#me3217175be" x="449.477557" y="250.44375" style="stroke: #000000; stroke-width: 0.8"/>
      </g>
     </g>
     <g id="text_5">
      <!-- 0 -->
      <g transform="translate(446.296307 265.042188) scale(0.1 -0.1)">
       <defs>
        <path id="DejaVuSans-30" d="M 2034 4250 
Q 1547 4250 1301 3770 
Q 1056 3291 1056 2328 
Q 1056 1369 1301 889 
Q 1547 409 2034 409 
Q 2525 409 2770 889 
Q 3016 1369 3016 2328 
Q 3016 3291 2770 3770 
Q 2525 4250 2034 4250 
z
M 2034 4750 
Q 2819 4750 3233 4129 
Q 3647 3509 3647 2328 
Q 3647 1150 3233 529 
Q 2819 -91 2034 -91 
Q 1250 -91 836 529 
Q 422 1150 422 2328 
Q 422 3509 836 4129 
Q 1250 4750 2034 4750 
z
" transform="scale(0.015625)"/>
       </defs>
       <use xlink:href="#DejaVuSans-30"/>
      </g>
     </g>
    </g>
    <g id="xtick_6">
     <g id="line2d_11">
      <path d="M 544.935511 250.44375 
L 544.935511 22.318125 
" clip-path="url(#pc53c082280)" style="fill: none; stroke-dasharray: 2.96,1.28; stroke-dashoffset: 0; stroke: #b0b0b0; stroke-opacity: 0.8; stroke-width: 0.8"/>
     </g>
     <g id="line2d_12">
      <g>
       <use xlink:href="#me3217175be" x="544.935511" y="250.44375" style="stroke: #000000; stroke-width: 0.8"/>
      </g>
     </g>
     <g id="text_6">
      <!-- 1 -->
      <g transform="translate(541.754261 265.042188) scale(0.1 -0.1)">
       <use xlink:href="#DejaVuSans-31"/>
      </g>
     </g>
    </g>
    <g id="text_7">
     <!-- Random variable -->
     <g transform="translate(263.83125 278.720312) scale(0.1 -0.1)">
      <defs>
       <path id="DejaVuSans-52" d="M 2841 2188 
Q 3044 2119 3236 1894 
Q 3428 1669 3622 1275 
L 4263 0 
L 3584 0 
L 2988 1197 
Q 2756 1666 2539 1819 
Q 2322 1972 1947 1972 
L 1259 1972 
L 1259 0 
L 628 0 
L 628 4666 
L 2053 4666 
Q 2853 4666 3247 4331 
Q 3641 3997 3641 3322 
Q 3641 2881 3436 2590 
Q 3231 2300 2841 2188 
z
M 1259 4147 
L 1259 2491 
L 2053 2491 
Q 2509 2491 2742 2702 
Q 2975 2913 2975 3322 
Q 2975 3731 2742 3939 
Q 2509 4147 2053 4147 
L 1259 4147 
z
" transform="scale(0.015625)"/>
       <path id="DejaVuSans-61" d="M 2194 1759 
Q 1497 1759 1228 1600 
Q 959 1441 959 1056 
Q 959 750 1161 570 
Q 1363 391 1709 391 
Q 2188 391 2477 730 
Q 2766 1069 2766 1631 
L 2766 1759 
L 2194 1759 
z
M 3341 1997 
L 3341 0 
L 2766 0 
L 2766 531 
Q 2569 213 2275 61 
Q 1981 -91 1556 -91 
Q 1019 -91 701 211 
Q 384 513 384 1019 
Q 384 1609 779 1909 
Q 1175 2209 1959 2209 
L 2766 2209 
L 2766 2266 
Q 2766 2663 2505 2880 
Q 2244 3097 1772 3097 
Q 1472 3097 1187 3025 
Q 903 2953 641 2809 
L 641 3341 
Q 956 3463 1253 3523 
Q 1550 3584 1831 3584 
Q 2591 3584 2966 3190 
Q 3341 2797 3341 1997 
z
" transform="scale(0.015625)"/>
       <path id="DejaVuSans-6e" d="M 3513 2113 
L 3513 0 
L 2938 0 
L 2938 2094 
Q 2938 2591 2744 2837 
Q 2550 3084 2163 3084 
Q 1697 3084 1428 2787 
Q 1159 2491 1159 1978 
L 1159 0 
L 581 0 
L 581 3500 
L 1159 3500 
L 1159 2956 
Q 1366 3272 1645 3428 
Q 1925 3584 2291 3584 
Q 2894 3584 3203 3211 
Q 3513 2838 3513 2113 
z
" transform="scale(0.015625)"/>
       <path id="DejaVuSans-64" d="M 2906 2969 
L 2906 4863 
L 3481 4863 
L 3481 0 
L 2906 0 
L 2906 525 
Q 2725 213 2448 61 
Q 2172 -91 1784 -91 
Q 1150 -91 751 415 
Q 353 922 353 1747 
Q 353 2572 751 3078 
Q 1150 3584 1784 3584 
Q 2172 3584 2448 3432 
Q 2725 3281 2906 2969 
z
M 947 1747 
Q 947 1113 1208 752 
Q 1469 391 1925 391 
Q 2381 391 2643 752 
Q 2906 1113 2906 1747 
Q 2906 2381 2643 2742 
Q 2381 3103 1925 3103 
Q 1469 3103 1208 2742 
Q 947 2381 947 1747 
z
" transform="scale(0.015625)"/>
       <path id="DejaVuSans-6f" d="M 1959 3097 
Q 1497 3097 1228 2736 
Q 959 2375 959 1747 
Q 959 1119 1226 758 
Q 1494 397 1959 397 
Q 2419 397 2687 759 
Q 2956 1122 2956 1747 
Q 2956 2369 2687 2733 
Q 2419 3097 1959 3097 
z
M 1959 3584 
Q 2709 3584 3137 3096 
Q 3566 2609 3566 1747 
Q 3566 888 3137 398 
Q 2709 -91 1959 -91 
Q 1206 -91 779 398 
Q 353 888 353 1747 
Q 353 2609 779 3096 
Q 1206 3584 1959 3584 
z
" transform="scale(0.015625)"/>
       <path id="DejaVuSans-6d" d="M 3328 2828 
Q 3544 3216 3844 3400 
Q 4144 3584 4550 3584 
Q 5097 3584 5394 3201 
Q 5691 2819 5691 2113 
L 5691 0 
L 5113 0 
L 5113 2094 
Q 5113 2597 4934 2840 
Q 4756 3084 4391 3084 
Q 3944 3084 3684 2787 
Q 3425 2491 3425 1978 
L 3425 0 
L 2847 0 
L 2847 2094 
Q 2847 2600 2669 2842 
Q 2491 3084 2119 3084 
Q 1678 3084 1418 2786 
Q 1159 2488 1159 1978 
L 1159 0 
L 581 0 
L 581 3500 
L 1159 3500 
L 1159 2956 
Q 1356 3278 1631 3431 
Q 1906 3584 2284 3584 
Q 2666 3584 2933 3390 
Q 3200 3197 3328 2828 
z
" transform="scale(0.015625)"/>
       <path id="DejaVuSans-20" transform="scale(0.015625)"/>
       <path id="DejaVuSans-76" d="M 191 3500 
L 800 3500 
L 1894 563 
L 2988 3500 
L 3597 3500 
L 2284 0 
L 1503 0 
L 191 3500 
z
" transform="scale(0.015625)"/>
       <path id="DejaVuSans-72" d="M 2631 2963 
Q 2534 3019 2420 3045 
Q 2306 3072 2169 3072 
Q 1681 3072 1420 2755 
Q 1159 2438 1159 1844 
L 1159 0 
L 581 0 
L 581 3500 
L 1159 3500 
L 1159 2956 
Q 1341 3275 1631 3429 
Q 1922 3584 2338 3584 
Q 2397 3584 2469 3576 
Q 2541 3569 2628 3553 
L 2631 2963 
z
" transform="scale(0.015625)"/>
       <path id="DejaVuSans-69" d="M 603 3500 
L 1178 3500 
L 1178 0 
L 603 0 
L 603 3500 
z
M 603 4863 
L 1178 4863 
L 1178 4134 
L 603 4134 
L 603 4863 
z
" transform="scale(0.015625)"/>
       <path id="DejaVuSans-62" d="M 3116 1747 
Q 3116 2381 2855 2742 
Q 2594 3103 2138 3103 
Q 1681 3103 1420 2742 
Q 1159 2381 1159 1747 
Q 1159 1113 1420 752 
Q 1681 391 2138 391 
Q 2594 391 2855 752 
Q 3116 1113 3116 1747 
z
M 1159 2969 
Q 1341 3281 1617 3432 
Q 1894 3584 2278 3584 
Q 2916 3584 3314 3078 
Q 3713 2572 3713 1747 
Q 3713 922 3314 415 
Q 2916 -91 2278 -91 
Q 1894 -91 1617 61 
Q 1341 213 1159 525 
L 1159 0 
L 581 0 
L 581 4863 
L 1159 4863 
L 1159 2969 
z
" transform="scale(0.015625)"/>
       <path id="DejaVuSans-6c" d="M 603 4863 
L 1178 4863 
L 1178 0 
L 603 0 
L 603 4863 
z
" transform="scale(0.015625)"/>
       <path id="DejaVuSans-65" d="M 3597 1894 
L 3597 1613 
L 953 1613 
Q 991 1019 1311 708 
Q 1631 397 2203 397 
Q 2534 397 2845 478 
Q 3156 559 3463 722 
L 3463 178 
Q 3153 47 2828 -22 
Q 2503 -91 2169 -91 
Q 1331 -91 842 396 
Q 353 884 353 1716 
Q 353 2575 817 3079 
Q 1281 3584 2069 3584 
Q 2775 3584 3186 3129 
Q 3597 2675 3597 1894 
z
M 3022 2063 
Q 3016 2534 2758 2815 
Q 2500 3097 2075 3097 
Q 1594 3097 1305 2825 
Q 1016 2553 972 2059 
L 3022 2063 
z
" transform="scale(0.015625)"/>
      </defs>
      <use xlink:href="#DejaVuSans-52"/>
      <use xlink:href="#DejaVuSans-61" transform="translate(67.232422 0)"/>
      <use xlink:href="#DejaVuSans-6e" transform="translate(128.511719 0)"/>
      <use xlink:href="#DejaVuSans-64" transform="translate(191.890625 0)"/>
      <use xlink:href="#DejaVuSans-6f" transform="translate(255.367188 0)"/>
      <use xlink:href="#DejaVuSans-6d" transform="translate(316.548828 0)"/>
      <use xlink:href="#DejaVuSans-20" transform="translate(413.960938 0)"/>
      <use xlink:href="#DejaVuSans-76" transform="translate(445.748047 0)"/>
      <use xlink:href="#DejaVuSans-61" transform="translate(504.927734 0)"/>
      <use xlink:href="#DejaVuSans-72" transform="translate(566.207031 0)"/>
      <use xlink:href="#DejaVuSans-69" transform="translate(607.320312 0)"/>
      <use xlink:href="#DejaVuSans-61" transform="translate(635.103516 0)"/>
      <use xlink:href="#DejaVuSans-62" transform="translate(696.382812 0)"/>
      <use xlink:href="#DejaVuSans-6c" transform="translate(759.859375 0)"/>
      <use xlink:href="#DejaVuSans-65" transform="translate(787.642578 0)"/>
     </g>
    </g>
   </g>
   <g id="matplotlib.axis_2">
    <g id="ytick_1">
     <g id="line2d_13">
      <path d="M 43.78125 250.44375 
L 568.8 250.44375 
" clip-path="url(#pc53c082280)" style="fill: none; stroke-dasharray: 2.96,1.28; stroke-dashoffset: 0; stroke: #b0b0b0; stroke-opacity: 0.8; stroke-width: 0.8"/>
     </g>
     <g id="line2d_14">
      <defs>
       <path id="mf60664fd69" d="M 0 0 
L -3.5 0 
" style="stroke: #000000; stroke-width: 0.8"/>
      </defs>
      <g>
       <use xlink:href="#mf60664fd69" x="43.78125" y="250.44375" style="stroke: #000000; stroke-width: 0.8"/>
      </g>
     </g>
     <g id="text_8">
      <!-- 0.0 -->
      <g transform="translate(20.878125 254.242969) scale(0.1 -0.1)">
       <defs>
        <path id="DejaVuSans-2e" d="M 684 794 
L 1344 794 
L 1344 0 
L 684 0 
L 684 794 
z
" transform="scale(0.015625)"/>
       </defs>
       <use xlink:href="#DejaVuSans-30"/>
       <use xlink:href="#DejaVuSans-2e" transform="translate(63.623047 0)"/>
       <use xlink:href="#DejaVuSans-30" transform="translate(95.410156 0)"/>
      </g>
     </g>
    </g>
    <g id="ytick_2">
     <g id="line2d_15">
      <path d="M 43.78125 219.883976 
L 568.8 219.883976 
" clip-path="url(#pc53c082280)" style="fill: none; stroke-dasharray: 2.96,1.28; stroke-dashoffset: 0; stroke: #b0b0b0; stroke-opacity: 0.8; stroke-width: 0.8"/>
     </g>
     <g id="line2d_16">
      <g>
       <use xlink:href="#mf60664fd69" x="43.78125" y="219.883976" style="stroke: #000000; stroke-width: 0.8"/>
      </g>
     </g>
     <g id="text_9">
      <!-- 0.2 -->
      <g transform="translate(20.878125 223.683195) scale(0.1 -0.1)">
       <use xlink:href="#DejaVuSans-30"/>
       <use xlink:href="#DejaVuSans-2e" transform="translate(63.623047 0)"/>
       <use xlink:href="#DejaVuSans-32" transform="translate(95.410156 0)"/>
      </g>
     </g>
    </g>
    <g id="ytick_3">
     <g id="line2d_17">
      <path d="M 43.78125 189.324202 
L 568.8 189.324202 
" clip-path="url(#pc53c082280)" style="fill: none; stroke-dasharray: 2.96,1.28; stroke-dashoffset: 0; stroke: #b0b0b0; stroke-opacity: 0.8; stroke-width: 0.8"/>
     </g>
     <g id="line2d_18">
      <g>
       <use xlink:href="#mf60664fd69" x="43.78125" y="189.324202" style="stroke: #000000; stroke-width: 0.8"/>
      </g>
     </g>
     <g id="text_10">
      <!-- 0.4 -->
      <g transform="translate(20.878125 193.123421) scale(0.1 -0.1)">
       <use xlink:href="#DejaVuSans-30"/>
       <use xlink:href="#DejaVuSans-2e" transform="translate(63.623047 0)"/>
       <use xlink:href="#DejaVuSans-34" transform="translate(95.410156 0)"/>
      </g>
     </g>
    </g>
    <g id="ytick_4">
     <g id="line2d_19">
      <path d="M 43.78125 158.764429 
L 568.8 158.764429 
" clip-path="url(#pc53c082280)" style="fill: none; stroke-dasharray: 2.96,1.28; stroke-dashoffset: 0; stroke: #b0b0b0; stroke-opacity: 0.8; stroke-width: 0.8"/>
     </g>
     <g id="line2d_20">
      <g>
       <use xlink:href="#mf60664fd69" x="43.78125" y="158.764429" style="stroke: #000000; stroke-width: 0.8"/>
      </g>
     </g>
     <g id="text_11">
      <!-- 0.6 -->
      <g transform="translate(20.878125 162.563647) scale(0.1 -0.1)">
       <defs>
        <path id="DejaVuSans-36" d="M 2113 2584 
Q 1688 2584 1439 2293 
Q 1191 2003 1191 1497 
Q 1191 994 1439 701 
Q 1688 409 2113 409 
Q 2538 409 2786 701 
Q 3034 994 3034 1497 
Q 3034 2003 2786 2293 
Q 2538 2584 2113 2584 
z
M 3366 4563 
L 3366 3988 
Q 3128 4100 2886 4159 
Q 2644 4219 2406 4219 
Q 1781 4219 1451 3797 
Q 1122 3375 1075 2522 
Q 1259 2794 1537 2939 
Q 1816 3084 2150 3084 
Q 2853 3084 3261 2657 
Q 3669 2231 3669 1497 
Q 3669 778 3244 343 
Q 2819 -91 2113 -91 
Q 1303 -91 875 529 
Q 447 1150 447 2328 
Q 447 3434 972 4092 
Q 1497 4750 2381 4750 
Q 2619 4750 2861 4703 
Q 3103 4656 3366 4563 
z
" transform="scale(0.015625)"/>
       </defs>
       <use xlink:href="#DejaVuSans-30"/>
       <use xlink:href="#DejaVuSans-2e" transform="translate(63.623047 0)"/>
       <use xlink:href="#DejaVuSans-36" transform="translate(95.410156 0)"/>
      </g>
     </g>
    </g>
    <g id="ytick_5">
     <g id="line2d_21">
      <path d="M 43.78125 128.204655 
L 568.8 128.204655 
" clip-path="url(#pc53c082280)" style="fill: none; stroke-dasharray: 2.96,1.28; stroke-dashoffset: 0; stroke: #b0b0b0; stroke-opacity: 0.8; stroke-width: 0.8"/>
     </g>
     <g id="line2d_22">
      <g>
       <use xlink:href="#mf60664fd69" x="43.78125" y="128.204655" style="stroke: #000000; stroke-width: 0.8"/>
      </g>
     </g>
     <g id="text_12">
      <!-- 0.8 -->
      <g transform="translate(20.878125 132.003874) scale(0.1 -0.1)">
       <defs>
        <path id="DejaVuSans-38" d="M 2034 2216 
Q 1584 2216 1326 1975 
Q 1069 1734 1069 1313 
Q 1069 891 1326 650 
Q 1584 409 2034 409 
Q 2484 409 2743 651 
Q 3003 894 3003 1313 
Q 3003 1734 2745 1975 
Q 2488 2216 2034 2216 
z
M 1403 2484 
Q 997 2584 770 2862 
Q 544 3141 544 3541 
Q 544 4100 942 4425 
Q 1341 4750 2034 4750 
Q 2731 4750 3128 4425 
Q 3525 4100 3525 3541 
Q 3525 3141 3298 2862 
Q 3072 2584 2669 2484 
Q 3125 2378 3379 2068 
Q 3634 1759 3634 1313 
Q 3634 634 3220 271 
Q 2806 -91 2034 -91 
Q 1263 -91 848 271 
Q 434 634 434 1313 
Q 434 1759 690 2068 
Q 947 2378 1403 2484 
z
M 1172 3481 
Q 1172 3119 1398 2916 
Q 1625 2713 2034 2713 
Q 2441 2713 2670 2916 
Q 2900 3119 2900 3481 
Q 2900 3844 2670 4047 
Q 2441 4250 2034 4250 
Q 1625 4250 1398 4047 
Q 1172 3844 1172 3481 
z
" transform="scale(0.015625)"/>
       </defs>
       <use xlink:href="#DejaVuSans-30"/>
       <use xlink:href="#DejaVuSans-2e" transform="translate(63.623047 0)"/>
       <use xlink:href="#DejaVuSans-38" transform="translate(95.410156 0)"/>
      </g>
     </g>
    </g>
    <g id="ytick_6">
     <g id="line2d_23">
      <path d="M 43.78125 97.644881 
L 568.8 97.644881 
" clip-path="url(#pc53c082280)" style="fill: none; stroke-dasharray: 2.96,1.28; stroke-dashoffset: 0; stroke: #b0b0b0; stroke-opacity: 0.8; stroke-width: 0.8"/>
     </g>
     <g id="line2d_24">
      <g>
       <use xlink:href="#mf60664fd69" x="43.78125" y="97.644881" style="stroke: #000000; stroke-width: 0.8"/>
      </g>
     </g>
     <g id="text_13">
      <!-- 1.0 -->
      <g transform="translate(20.878125 101.4441) scale(0.1 -0.1)">
       <use xlink:href="#DejaVuSans-31"/>
       <use xlink:href="#DejaVuSans-2e" transform="translate(63.623047 0)"/>
       <use xlink:href="#DejaVuSans-30" transform="translate(95.410156 0)"/>
      </g>
     </g>
    </g>
    <g id="ytick_7">
     <g id="line2d_25">
      <path d="M 43.78125 67.085107 
L 568.8 67.085107 
" clip-path="url(#pc53c082280)" style="fill: none; stroke-dasharray: 2.96,1.28; stroke-dashoffset: 0; stroke: #b0b0b0; stroke-opacity: 0.8; stroke-width: 0.8"/>
     </g>
     <g id="line2d_26">
      <g>
       <use xlink:href="#mf60664fd69" x="43.78125" y="67.085107" style="stroke: #000000; stroke-width: 0.8"/>
      </g>
     </g>
     <g id="text_14">
      <!-- 1.2 -->
      <g transform="translate(20.878125 70.884326) scale(0.1 -0.1)">
       <use xlink:href="#DejaVuSans-31"/>
       <use xlink:href="#DejaVuSans-2e" transform="translate(63.623047 0)"/>
       <use xlink:href="#DejaVuSans-32" transform="translate(95.410156 0)"/>
      </g>
     </g>
    </g>
    <g id="ytick_8">
     <g id="line2d_27">
      <path d="M 43.78125 36.525334 
L 568.8 36.525334 
" clip-path="url(#pc53c082280)" style="fill: none; stroke-dasharray: 2.96,1.28; stroke-dashoffset: 0; stroke: #b0b0b0; stroke-opacity: 0.8; stroke-width: 0.8"/>
     </g>
     <g id="line2d_28">
      <g>
       <use xlink:href="#mf60664fd69" x="43.78125" y="36.525334" style="stroke: #000000; stroke-width: 0.8"/>
      </g>
     </g>
     <g id="text_15">
      <!-- 1.4 -->
      <g transform="translate(20.878125 40.324552) scale(0.1 -0.1)">
       <use xlink:href="#DejaVuSans-31"/>
       <use xlink:href="#DejaVuSans-2e" transform="translate(63.623047 0)"/>
       <use xlink:href="#DejaVuSans-34" transform="translate(95.410156 0)"/>
      </g>
     </g>
    </g>
    <g id="text_16">
     <!-- Probability density -->
     <g transform="translate(14.798438 182.731719) rotate(-90) scale(0.1 -0.1)">
      <defs>
       <path id="DejaVuSans-50" d="M 1259 4147 
L 1259 2394 
L 2053 2394 
Q 2494 2394 2734 2622 
Q 2975 2850 2975 3272 
Q 2975 3691 2734 3919 
Q 2494 4147 2053 4147 
L 1259 4147 
z
M 628 4666 
L 2053 4666 
Q 2838 4666 3239 4311 
Q 3641 3956 3641 3272 
Q 3641 2581 3239 2228 
Q 2838 1875 2053 1875 
L 1259 1875 
L 1259 0 
L 628 0 
L 628 4666 
z
" transform="scale(0.015625)"/>
       <path id="DejaVuSans-74" d="M 1172 4494 
L 1172 3500 
L 2356 3500 
L 2356 3053 
L 1172 3053 
L 1172 1153 
Q 1172 725 1289 603 
Q 1406 481 1766 481 
L 2356 481 
L 2356 0 
L 1766 0 
Q 1100 0 847 248 
Q 594 497 594 1153 
L 594 3053 
L 172 3053 
L 172 3500 
L 594 3500 
L 594 4494 
L 1172 4494 
z
" transform="scale(0.015625)"/>
       <path id="DejaVuSans-79" d="M 2059 -325 
Q 1816 -950 1584 -1140 
Q 1353 -1331 966 -1331 
L 506 -1331 
L 506 -850 
L 844 -850 
Q 1081 -850 1212 -737 
Q 1344 -625 1503 -206 
L 1606 56 
L 191 3500 
L 800 3500 
L 1894 763 
L 2988 3500 
L 3597 3500 
L 2059 -325 
z
" transform="scale(0.015625)"/>
       <path id="DejaVuSans-73" d="M 2834 3397 
L 2834 2853 
Q 2591 2978 2328 3040 
Q 2066 3103 1784 3103 
Q 1356 3103 1142 2972 
Q 928 2841 928 2578 
Q 928 2378 1081 2264 
Q 1234 2150 1697 2047 
L 1894 2003 
Q 2506 1872 2764 1633 
Q 3022 1394 3022 966 
Q 3022 478 2636 193 
Q 2250 -91 1575 -91 
Q 1294 -91 989 -36 
Q 684 19 347 128 
L 347 722 
Q 666 556 975 473 
Q 1284 391 1588 391 
Q 1994 391 2212 530 
Q 2431 669 2431 922 
Q 2431 1156 2273 1281 
Q 2116 1406 1581 1522 
L 1381 1569 
Q 847 1681 609 1914 
Q 372 2147 372 2553 
Q 372 3047 722 3315 
Q 1072 3584 1716 3584 
Q 2034 3584 2315 3537 
Q 2597 3491 2834 3397 
z
" transform="scale(0.015625)"/>
      </defs>
      <use xlink:href="#DejaVuSans-50"/>
      <use xlink:href="#DejaVuSans-72" transform="translate(58.552734 0)"/>
      <use xlink:href="#DejaVuSans-6f" transform="translate(97.416016 0)"/>
      <use xlink:href="#DejaVuSans-62" transform="translate(158.597656 0)"/>
      <use xlink:href="#DejaVuSans-61" transform="translate(222.074219 0)"/>
      <use xlink:href="#DejaVuSans-62" transform="translate(283.353516 0)"/>
      <use xlink:href="#DejaVuSans-69" transform="translate(346.830078 0)"/>
      <use xlink:href="#DejaVuSans-6c" transform="translate(374.613281 0)"/>
      <use xlink:href="#DejaVuSans-69" transform="translate(402.396484 0)"/>
      <use xlink:href="#DejaVuSans-74" transform="translate(430.179688 0)"/>
      <use xlink:href="#DejaVuSans-79" transform="translate(469.388672 0)"/>
      <use xlink:href="#DejaVuSans-20" transform="translate(528.568359 0)"/>
      <use xlink:href="#DejaVuSans-64" transform="translate(560.355469 0)"/>
      <use xlink:href="#DejaVuSans-65" transform="translate(623.832031 0)"/>
      <use xlink:href="#DejaVuSans-6e" transform="translate(685.355469 0)"/>
      <use xlink:href="#DejaVuSans-73" transform="translate(748.734375 0)"/>
      <use xlink:href="#DejaVuSans-69" transform="translate(800.833984 0)"/>
      <use xlink:href="#DejaVuSans-74" transform="translate(828.617188 0)"/>
      <use xlink:href="#DejaVuSans-79" transform="translate(867.826172 0)"/>
     </g>
    </g>
   </g>
   <g id="line2d_29">
    <path d="M 67.645739 250.443748 
L 175.035938 250.335998 
L 190.7865 250.092012 
L 201.286875 249.715178 
L 209.400801 249.206512 
L 216.082858 248.571237 
L 221.810335 247.81402 
L 227.060523 246.898775 
L 231.83342 245.841565 
L 236.129028 244.672544 
L 240.424636 243.264958 
L 244.242955 241.787071 
L 248.061273 240.07153 
L 251.879591 238.095293 
L 255.697909 235.836308 
L 259.038938 233.611762 
L 262.379966 231.143248 
L 265.720994 228.420887 
L 269.062023 225.437367 
L 272.880341 221.702565 
L 276.698659 217.620696 
L 280.516977 213.19825 
L 284.335295 208.449566 
L 288.630903 202.746148 
L 293.403801 196.01562 
L 299.131278 187.510092 
L 308.199784 173.541809 
L 315.83642 161.914667 
L 320.609318 155.019654 
L 324.427636 149.845876 
L 327.768665 145.640884 
L 331.109693 141.793814 
L 333.973432 138.820304 
L 336.83717 136.177515 
L 339.223619 134.247436 
L 341.610068 132.579785 
L 343.996517 131.186715 
L 346.382966 130.07847 
L 348.769415 129.263256 
L 350.678574 128.82622 
L 352.587733 128.582741 
L 354.496892 128.533987 
L 356.406051 128.680191 
L 358.31521 129.020652 
L 360.224369 129.55374 
L 362.133528 130.276909 
L 364.519977 131.442842 
L 366.906426 132.891711 
L 369.292875 134.612879 
L 371.679324 136.593826 
L 374.543063 139.293697 
L 377.406801 142.31949 
L 380.74783 146.220928 
L 384.088858 150.472652 
L 387.907176 155.690028 
L 392.680074 162.624465 
L 398.884841 172.066703 
L 412.248955 192.51979 
L 417.499142 200.099666 
L 422.27204 206.589084 
L 426.567648 212.040921 
L 430.385966 216.546594 
L 434.204284 220.714509 
L 438.022602 224.536286 
L 441.84092 228.010794 
L 445.181949 230.770081 
L 448.522977 233.274309 
L 451.864006 235.533019 
L 455.682324 237.828819 
L 459.500642 239.839222 
L 463.31896 241.586103 
L 467.137278 243.092421 
L 471.432886 244.528516 
L 475.728494 245.722464 
L 480.501392 246.803395 
L 485.75158 247.740294 
L 491.479057 248.516429 
L 497.683824 249.12948 
L 504.84317 249.616352 
L 513.911676 249.997965 
L 525.84392 250.256754 
L 543.980932 250.399454 
L 544.935511 250.402852 
L 544.935511 250.402852 
" clip-path="url(#pc53c082280)" style="fill: none; stroke: #1f77b4; stroke-linecap: square"/>
   </g>
   <g id="line2d_30">
    <path d="M 67.645739 250.443732 
L 147.83042 250.337946 
L 165.012852 249.970094 
L 170.26304 249.701389 
L 172.172199 249.601758 
L 175.513227 249.295692 
L 176.945097 249.223248 
L 178.854256 248.979726 
L 179.808835 248.889051 
L 181.240705 248.691951 
L 182.195284 248.584987 
L 184.104443 248.226965 
L 184.581733 248.226965 
L 185.059023 248.094207 
L 185.536313 248.094207 
L 186.490892 247.806558 
L 186.968182 247.806558 
L 187.445472 247.650949 
L 187.922761 247.650949 
L 188.877341 247.314257 
L 189.354631 247.314257 
L 189.83192 247.132367 
L 190.30921 247.132367 
L 191.26379 246.739369 
L 191.74108 246.739369 
L 192.218369 246.527358 
L 192.695659 246.527358 
L 193.650239 246.069931 
L 194.127528 246.069931 
L 194.604818 245.823511 
L 195.082108 245.823511 
L 196.036687 245.292614 
L 196.513977 245.292614 
L 197.468557 244.707234 
L 197.945847 244.707234 
L 198.423136 244.392641 
L 198.900426 244.392641 
L 199.855006 243.716535 
L 200.332295 243.716535 
L 200.809585 243.353718 
L 201.286875 243.353718 
L 202.241455 242.57515 
L 202.718744 242.57515 
L 203.196034 242.157976 
L 203.673324 242.157976 
L 204.627903 241.264142 
L 205.105193 241.264142 
L 205.582483 240.785939 
L 206.059773 240.785939 
L 207.014352 239.762954 
L 207.491642 239.762954 
L 208.446222 238.645632 
L 208.923511 238.645632 
L 209.400801 238.049434 
L 209.878091 238.049434 
L 210.83267 236.777486 
L 211.30996 236.777486 
L 211.78725 236.099889 
L 212.26454 236.099889 
L 213.219119 234.656717 
L 213.696409 234.656717 
L 214.173699 233.889199 
L 214.650989 233.889199 
L 215.605568 232.257346 
L 216.082858 232.257346 
L 216.560148 231.39099 
L 217.037438 231.39099 
L 217.992017 229.552295 
L 218.469307 229.552295 
L 219.423886 227.565362 
L 219.901176 227.565362 
L 220.378466 226.51369 
L 220.855756 226.51369 
L 221.810335 224.288688 
L 222.287625 224.288688 
L 222.764915 223.113261 
L 223.242205 223.113261 
L 224.196784 220.631364 
L 224.674074 220.631364 
L 225.151364 219.322843 
L 225.628653 219.322843 
L 226.583233 216.565636 
L 227.060523 216.565636 
L 227.537813 215.114999 
L 228.015102 215.114999 
L 228.969682 212.064962 
L 229.446972 212.064962 
L 229.924261 210.463774 
L 230.401551 210.463774 
L 231.356131 207.10486 
L 231.83342 207.10486 
L 232.788 203.532142 
L 233.26529 203.532142 
L 233.74258 201.66389 
L 234.219869 201.66389 
L 235.174449 197.760691 
L 235.651739 197.760691 
L 236.129028 195.724783 
L 236.606318 195.724783 
L 237.560898 191.482526 
L 238.038188 191.482526 
L 238.515477 189.275705 
L 238.992767 189.275705 
L 239.947347 184.690206 
L 240.424636 184.690206 
L 240.901926 182.311652 
L 241.379216 182.311652 
L 242.333795 177.384106 
L 242.811085 177.384106 
L 243.765665 172.232321 
L 244.242955 172.232321 
L 244.720244 169.573977 
L 245.197534 169.573977 
L 246.152114 164.096938 
L 246.629403 164.096938 
L 247.106693 161.280534 
L 247.583983 161.280534 
L 248.538563 155.498931 
L 249.015852 155.498931 
L 249.493142 152.537047 
L 249.970432 152.537047 
L 250.925011 146.480782 
L 251.402301 146.480782 
L 251.879591 143.390843 
L 252.356881 143.390843 
L 253.31146 137.09995 
L 253.78875 137.09995 
L 254.74333 130.680228 
L 255.220619 130.680228 
L 255.697909 127.430044 
L 256.175199 127.430044 
L 257.129778 120.86687 
L 257.607068 120.86687 
L 258.084358 117.561665 
L 258.561648 117.561665 
L 259.516227 110.925091 
L 259.993517 110.925091 
L 260.470807 107.60279 
L 260.948097 107.60279 
L 261.902676 100.974389 
L 262.379966 100.974389 
L 262.857256 97.678586 
L 263.334545 97.678586 
L 264.289125 91.150952 
L 264.766415 91.150952 
L 265.243705 87.930533 
L 265.720994 87.930533 
L 266.675574 81.606256 
L 267.152864 81.606256 
L 268.107443 75.478777 
L 268.584733 75.478777 
L 269.062023 72.504817 
L 269.539313 72.504817 
L 270.493892 66.769271 
L 270.971182 66.769271 
L 271.448472 64.021017 
L 271.925761 64.021017 
L 272.880341 58.797151 
L 273.357631 58.797151 
L 273.83492 56.335 
L 274.31221 56.335 
L 275.26679 51.743676 
L 275.74408 51.743676 
L 276.221369 49.62767 
L 276.698659 49.62767 
L 277.653239 45.787072 
L 278.130528 45.787072 
L 279.085108 42.509391 
L 279.562398 42.509391 
L 280.039688 41.09629 
L 280.516977 41.09629 
L 281.471557 38.748737 
L 281.948847 38.748737 
L 282.426136 37.824286 
L 282.903426 37.824286 
L 283.858006 36.49654 
L 284.335295 36.49654 
L 284.812585 36.10113 
L 285.289875 36.10113 
L 285.767165 35.889273 
L 286.721744 35.863853 
L 287.199034 36.02729 
L 287.676324 36.02729 
L 288.153614 36.381515 
L 288.630903 36.927953 
L 289.108193 36.927953 
L 290.062773 38.600528 
L 290.540063 38.600528 
L 291.017352 39.726833 
L 291.494642 39.726833 
L 292.449222 42.555681 
L 292.926511 42.555681 
L 293.403801 44.25499 
L 293.881091 44.25499 
L 294.83567 48.210952 
L 295.31296 48.210952 
L 295.79025 50.4609 
L 296.26754 50.4609 
L 297.222119 55.483705 
L 297.699409 55.483705 
L 298.176699 58.246485 
L 298.653989 58.246485 
L 299.608568 64.245625 
L 300.085858 64.245625 
L 300.563148 67.468804 
L 301.040438 67.468804 
L 301.995017 74.325934 
L 302.472307 74.325934 
L 303.426886 81.67728 
L 303.904176 81.67728 
L 304.381466 85.516854 
L 304.858756 85.516854 
L 305.813335 93.47825 
L 306.290625 93.47825 
L 306.767915 97.581118 
L 307.245205 97.581118 
L 308.199784 105.982484 
L 308.677074 105.982484 
L 309.154364 110.261154 
L 309.631653 110.261154 
L 310.586233 118.924573 
L 311.063523 118.924573 
L 311.540813 123.289426 
L 312.018102 123.289426 
L 312.972682 132.036375 
L 313.449972 132.036375 
L 314.404551 140.742802 
L 314.881841 140.742802 
L 315.359131 145.057859 
L 315.83642 145.057859 
L 316.791 153.568274 
L 317.26829 153.568274 
L 317.74558 157.747315 
L 318.222869 157.747315 
L 319.177449 165.915242 
L 319.654739 165.915242 
L 320.132028 169.890294 
L 320.609318 169.890294 
L 321.563898 177.591502 
L 322.041188 177.591502 
L 322.518477 181.3067 
L 322.995767 181.3067 
L 323.950347 188.442716 
L 324.427636 188.442716 
L 325.382216 195.160854 
L 325.859506 195.160854 
L 326.336795 198.355658 
L 326.814085 198.355658 
L 327.768665 204.406105 
L 328.245955 204.406105 
L 328.723244 207.258992 
L 329.200534 207.258992 
L 330.155114 212.616775 
L 330.632403 212.616775 
L 331.109693 215.121701 
L 331.586983 215.121701 
L 332.541563 219.786837 
L 333.018852 219.786837 
L 333.496142 221.949489 
L 333.973432 221.949489 
L 334.928011 225.943658 
L 335.405301 225.943658 
L 335.882591 227.779574 
L 336.359881 227.779574 
L 337.31446 231.142038 
L 337.79175 231.142038 
L 338.74633 234.111832 
L 339.223619 234.111832 
L 339.700909 235.457555 
L 340.178199 235.457555 
L 341.132778 237.887939 
L 341.610068 237.887939 
L 342.087358 238.979772 
L 342.564648 238.979772 
L 343.519227 240.935015 
L 343.996517 240.935015 
L 344.473807 241.805791 
L 344.951097 241.805791 
L 345.905676 243.351953 
L 346.382966 243.351953 
L 346.860256 244.034536 
L 347.337545 244.034536 
L 348.292125 245.236206 
L 348.769415 245.236206 
L 349.723994 246.242202 
L 350.201284 246.242202 
L 350.678574 246.679807 
L 351.155864 246.679807 
L 352.110443 247.439183 
L 352.587733 247.439183 
L 353.065023 247.766559 
L 353.542313 247.766559 
L 354.496892 248.329722 
L 354.974182 248.329722 
L 355.451472 248.570321 
L 355.928761 248.570321 
L 356.883341 248.980585 
L 357.360631 248.980585 
L 357.83792 249.154268 
L 358.31521 249.154268 
L 359.26979 249.447819 
L 359.74708 249.447819 
L 360.701659 249.680303 
L 362.133528 249.777218 
L 363.565398 249.938598 
L 365.474557 250.115228 
L 367.383716 250.19953 
L 370.247455 250.311928 
L 378.361381 250.41922 
L 394.111943 250.443294 
L 544.935511 250.44375 
L 544.935511 250.44375 
" clip-path="url(#pc53c082280)" style="fill: none; stroke: #ff7f0e; stroke-linecap: square"/>
   </g>
   <g id="patch_3">
    <path d="M 115.265004 250.44375 
L 115.265004 250.38641 
L 153.421049 250.38641 
L 153.421049 250.271729 
L 155.964785 250.271729 
L 155.964785 250.099708 
L 158.508522 250.099708 
L 158.508522 250.271729 
L 161.052258 250.271729 
L 161.052258 250.099708 
L 166.139731 250.042368 
L 166.139731 249.870347 
L 168.683467 249.870347 
L 168.683467 249.985027 
L 171.227203 249.985027 
L 171.227203 249.698326 
L 173.77094 249.698326 
L 173.77094 249.411624 
L 176.314676 249.411624 
L 176.314676 249.755666 
L 178.858412 249.755666 
L 178.858412 248.838221 
L 181.402149 248.838221 
L 181.402149 248.379498 
L 183.945885 248.379498 
L 183.945885 248.092797 
L 186.489621 248.092797 
L 186.489621 247.634074 
L 191.577094 247.576734 
L 191.577094 246.429927 
L 194.120831 246.429927 
L 194.120831 245.397801 
L 196.664567 245.397801 
L 196.664567 243.734932 
L 199.208303 243.734932 
L 199.208303 243.276209 
L 201.75204 243.276209 
L 201.75204 242.473445 
L 204.295776 242.473445 
L 204.295776 240.695894 
L 206.839512 240.695894 
L 206.839512 238.861004 
L 209.383249 238.861004 
L 209.383249 237.943559 
L 211.926985 237.943559 
L 211.926985 234.789841 
L 214.470721 234.789841 
L 214.470721 231.23474 
L 217.014458 231.23474 
L 217.014458 227.278258 
L 219.558194 227.278258 
L 219.558194 225.214006 
L 222.10193 225.214006 
L 222.10193 222.232309 
L 224.645667 222.232309 
L 224.645667 217.530402 
L 227.189403 217.530402 
L 227.189403 213.803281 
L 229.733139 213.803281 
L 229.733139 210.477542 
L 232.276876 210.477542 
L 232.276876 203.596703 
L 234.820612 203.596703 
L 234.820612 197.690649 
L 237.364349 197.690649 
L 237.364349 188.172155 
L 239.908085 188.172155 
L 239.908085 181.692698 
L 242.451821 181.692698 
L 242.451821 174.926539 
L 244.995558 174.926539 
L 244.995558 165.580066 
L 247.539294 165.580066 
L 247.539294 156.176252 
L 250.08303 156.176252 
L 250.08303 149.238072 
L 252.626767 149.238072 
L 252.626767 134.157566 
L 255.170503 134.157566 
L 255.170503 126.760664 
L 257.714239 126.760664 
L 257.714239 114.776536 
L 260.257976 114.776536 
L 260.257976 100.212093 
L 262.801712 100.212093 
L 262.801712 95.739547 
L 265.345448 95.739547 
L 265.345448 78.996171 
L 267.889185 78.996171 
L 267.889185 73.663521 
L 270.432921 73.663521 
L 270.432921 61.450031 
L 272.976657 61.450031 
L 272.976657 51.014092 
L 275.520394 51.014092 
L 275.520394 50.78473 
L 278.06413 50.78473 
L 278.06413 39.431346 
L 280.607866 39.431346 
L 280.607866 39.775388 
L 283.151603 39.775388 
L 283.151603 33.18125 
L 285.695339 33.18125 
L 285.695339 42.01166 
L 288.239076 42.01166 
L 288.239076 44.305273 
L 290.782812 44.305273 
L 290.782812 39.660707 
L 293.326548 39.660707 
L 293.326548 45.910803 
L 295.870285 45.910803 
L 295.870285 51.530155 
L 298.414021 51.530155 
L 298.414021 66.55332 
L 300.957757 66.55332 
L 300.957757 72.918097 
L 303.501494 72.918097 
L 303.501494 84.386162 
L 306.04523 84.386162 
L 306.04523 99.237307 
L 308.588966 99.237307 
L 308.588966 115.235258 
L 311.132703 115.235258 
L 311.132703 126.645983 
L 313.676439 126.645983 
L 313.676439 140.751704 
L 316.220175 140.751704 
L 316.220175 152.39179 
L 318.763912 152.39179 
L 318.763912 169.364527 
L 321.307648 169.364527 
L 321.307648 185.075777 
L 323.851384 185.075777 
L 323.851384 192.988742 
L 326.395121 192.988742 
L 326.395121 204.170106 
L 328.938857 204.170106 
L 328.938857 212.197752 
L 331.482593 212.197752 
L 331.482593 220.397419 
L 334.02633 220.397419 
L 334.02633 227.220917 
L 336.570066 227.220917 
L 336.570066 230.546656 
L 339.113803 230.546656 
L 339.113803 234.904521 
L 341.657539 234.904521 
L 341.657539 239.319727 
L 344.201275 239.319727 
L 344.201275 242.072062 
L 346.745012 242.072062 
L 346.745012 244.881738 
L 349.288748 244.881738 
L 349.288748 246.659288 
L 351.832484 246.659288 
L 351.832484 246.773969 
L 354.376221 246.773969 
L 354.376221 248.72354 
L 356.919957 248.72354 
L 356.919957 249.583645 
L 362.00743 249.640985 
L 362.00743 249.813006 
L 364.551166 249.813006 
L 364.551166 250.157048 
L 369.638639 250.157048 
L 369.638639 250.271729 
L 372.182375 250.271729 
L 372.182375 250.44375 
L 372.182375 250.44375 
" clip-path="url(#pc53c082280)" style="fill: none; stroke: #2ca02c; stroke-linejoin: miter"/>
   </g>
   <g id="patch_4">
    <path d="M 43.78125 250.44375 
L 43.78125 22.318125 
" style="fill: none; stroke: #000000; stroke-width: 0.8; stroke-linejoin: miter; stroke-linecap: square"/>
   </g>
   <g id="patch_5">
    <path d="M 568.8 250.44375 
L 568.8 22.318125 
" style="fill: none; stroke: #000000; stroke-width: 0.8; stroke-linejoin: miter; stroke-linecap: square"/>
   </g>
   <g id="patch_6">
    <path d="M 43.78125 250.44375 
L 568.8 250.44375 
" style="fill: none; stroke: #000000; stroke-width: 0.8; stroke-linejoin: miter; stroke-linecap: square"/>
   </g>
   <g id="patch_7">
    <path d="M 43.78125 22.318125 
L 568.8 22.318125 
" style="fill: none; stroke: #000000; stroke-width: 0.8; stroke-linejoin: miter; stroke-linecap: square"/>
   </g>
   <g id="text_17">
    <!-- Minimum of 10 normal random variables -->
    <g transform="translate(183.9075 16.318125) scale(0.12 -0.12)">
     <defs>
      <path id="DejaVuSans-4d" d="M 628 4666 
L 1569 4666 
L 2759 1491 
L 3956 4666 
L 4897 4666 
L 4897 0 
L 4281 0 
L 4281 4097 
L 3078 897 
L 2444 897 
L 1241 4097 
L 1241 0 
L 628 0 
L 628 4666 
z
" transform="scale(0.015625)"/>
      <path id="DejaVuSans-75" d="M 544 1381 
L 544 3500 
L 1119 3500 
L 1119 1403 
Q 1119 906 1312 657 
Q 1506 409 1894 409 
Q 2359 409 2629 706 
Q 2900 1003 2900 1516 
L 2900 3500 
L 3475 3500 
L 3475 0 
L 2900 0 
L 2900 538 
Q 2691 219 2414 64 
Q 2138 -91 1772 -91 
Q 1169 -91 856 284 
Q 544 659 544 1381 
z
M 1991 3584 
L 1991 3584 
z
" transform="scale(0.015625)"/>
      <path id="DejaVuSans-66" d="M 2375 4863 
L 2375 4384 
L 1825 4384 
Q 1516 4384 1395 4259 
Q 1275 4134 1275 3809 
L 1275 3500 
L 2222 3500 
L 2222 3053 
L 1275 3053 
L 1275 0 
L 697 0 
L 697 3053 
L 147 3053 
L 147 3500 
L 697 3500 
L 697 3744 
Q 697 4328 969 4595 
Q 1241 4863 1831 4863 
L 2375 4863 
z
" transform="scale(0.015625)"/>
     </defs>
     <use xlink:href="#DejaVuSans-4d"/>
     <use xlink:href="#DejaVuSans-69" transform="translate(86.279297 0)"/>
     <use xlink:href="#DejaVuSans-6e" transform="translate(114.0625 0)"/>
     <use xlink:href="#DejaVuSans-69" transform="translate(177.441406 0)"/>
     <use xlink:href="#DejaVuSans-6d" transform="translate(205.224609 0)"/>
     <use xlink:href="#DejaVuSans-75" transform="translate(302.636719 0)"/>
     <use xlink:href="#DejaVuSans-6d" transform="translate(366.015625 0)"/>
     <use xlink:href="#DejaVuSans-20" transform="translate(463.427734 0)"/>
     <use xlink:href="#DejaVuSans-6f" transform="translate(495.214844 0)"/>
     <use xlink:href="#DejaVuSans-66" transform="translate(556.396484 0)"/>
     <use xlink:href="#DejaVuSans-20" transform="translate(591.601562 0)"/>
     <use xlink:href="#DejaVuSans-31" transform="translate(623.388672 0)"/>
     <use xlink:href="#DejaVuSans-30" transform="translate(687.011719 0)"/>
     <use xlink:href="#DejaVuSans-20" transform="translate(750.634766 0)"/>
     <use xlink:href="#DejaVuSans-6e" transform="translate(782.421875 0)"/>
     <use xlink:href="#DejaVuSans-6f" transform="translate(845.800781 0)"/>
     <use xlink:href="#DejaVuSans-72" transform="translate(906.982422 0)"/>
     <use xlink:href="#DejaVuSans-6d" transform="translate(946.345703 0)"/>
     <use xlink:href="#DejaVuSans-61" transform="translate(1043.757812 0)"/>
     <use xlink:href="#DejaVuSans-6c" transform="translate(1105.037109 0)"/>
     <use xlink:href="#DejaVuSans-20" transform="translate(1132.820312 0)"/>
     <use xlink:href="#DejaVuSans-72" transform="translate(1164.607422 0)"/>
     <use xlink:href="#DejaVuSans-61" transform="translate(1205.720703 0)"/>
     <use xlink:href="#DejaVuSans-6e" transform="translate(1267 0)"/>
     <use xlink:href="#DejaVuSans-64" transform="translate(1330.378906 0)"/>
     <use xlink:href="#DejaVuSans-6f" transform="translate(1393.855469 0)"/>
     <use xlink:href="#DejaVuSans-6d" transform="translate(1455.037109 0)"/>
     <use xlink:href="#DejaVuSans-20" transform="translate(1552.449219 0)"/>
     <use xlink:href="#DejaVuSans-76" transform="translate(1584.236328 0)"/>
     <use xlink:href="#DejaVuSans-61" transform="translate(1643.416016 0)"/>
     <use xlink:href="#DejaVuSans-72" transform="translate(1704.695312 0)"/>
     <use xlink:href="#DejaVuSans-69" transform="translate(1745.808594 0)"/>
     <use xlink:href="#DejaVuSans-61" transform="translate(1773.591797 0)"/>
     <use xlink:href="#DejaVuSans-62" transform="translate(1834.871094 0)"/>
     <use xlink:href="#DejaVuSans-6c" transform="translate(1898.347656 0)"/>
     <use xlink:href="#DejaVuSans-65" transform="translate(1926.130859 0)"/>
     <use xlink:href="#DejaVuSans-73" transform="translate(1987.654297 0)"/>
    </g>
   </g>
   <g id="legend_1">
    <g id="patch_8">
     <path d="M 425.3 74.374375 
L 561.8 74.374375 
Q 563.8 74.374375 563.8 72.374375 
L 563.8 29.318125 
Q 563.8 27.318125 561.8 27.318125 
L 425.3 27.318125 
Q 423.3 27.318125 423.3 29.318125 
L 423.3 72.374375 
Q 423.3 74.374375 425.3 74.374375 
z
" style="fill: #ffffff; opacity: 0.8; stroke: #cccccc; stroke-linejoin: miter"/>
    </g>
    <g id="line2d_31">
     <path d="M 427.3 35.416562 
L 437.3 35.416562 
L 447.3 35.416562 
" style="fill: none; stroke: #1f77b4; stroke-linecap: square"/>
    </g>
    <g id="text_18">
     <!-- $X$ -->
     <g transform="translate(455.3 38.916562) scale(0.1 -0.1)">
      <defs>
       <path id="DejaVuSans-Oblique-58" d="M 878 4666 
L 1516 4666 
L 2316 2981 
L 3763 4666 
L 4500 4666 
L 2578 2438 
L 3738 0 
L 3103 0 
L 2163 1966 
L 459 0 
L -275 0 
L 1906 2509 
L 878 4666 
z
" transform="scale(0.015625)"/>
      </defs>
      <use xlink:href="#DejaVuSans-Oblique-58" transform="translate(0 0.09375)"/>
     </g>
    </g>
    <g id="line2d_32">
     <path d="M 427.3 50.094687 
L 437.3 50.094687 
L 447.3 50.094687 
" style="fill: none; stroke: #ff7f0e; stroke-linecap: square"/>
    </g>
    <g id="text_19">
     <!-- $\min(X_1, X_2)$ -->
     <g transform="translate(455.3 53.594687) scale(0.1 -0.1)">
      <defs>
       <path id="DejaVuSans-28" d="M 1984 4856 
Q 1566 4138 1362 3434 
Q 1159 2731 1159 2009 
Q 1159 1288 1364 580 
Q 1569 -128 1984 -844 
L 1484 -844 
Q 1016 -109 783 600 
Q 550 1309 550 2009 
Q 550 2706 781 3412 
Q 1013 4119 1484 4856 
L 1984 4856 
z
" transform="scale(0.015625)"/>
       <path id="DejaVuSans-2c" d="M 750 794 
L 1409 794 
L 1409 256 
L 897 -744 
L 494 -744 
L 750 256 
L 750 794 
z
" transform="scale(0.015625)"/>
       <path id="DejaVuSans-29" d="M 513 4856 
L 1013 4856 
Q 1481 4119 1714 3412 
Q 1947 2706 1947 2009 
Q 1947 1309 1714 600 
Q 1481 -109 1013 -844 
L 513 -844 
Q 928 -128 1133 580 
Q 1338 1288 1338 2009 
Q 1338 2731 1133 3434 
Q 928 4138 513 4856 
z
" transform="scale(0.015625)"/>
      </defs>
      <use xlink:href="#DejaVuSans-6d" transform="translate(0 0.015625)"/>
      <use xlink:href="#DejaVuSans-69" transform="translate(97.412109 0.015625)"/>
      <use xlink:href="#DejaVuSans-6e" transform="translate(125.195312 0.015625)"/>
      <use xlink:href="#DejaVuSans-28" transform="translate(188.574219 0.015625)"/>
      <use xlink:href="#DejaVuSans-Oblique-58" transform="translate(227.587891 0.015625)"/>
      <use xlink:href="#DejaVuSans-31" transform="translate(296.09375 -16.390625) scale(0.7)"/>
      <use xlink:href="#DejaVuSans-2c" transform="translate(343.364258 0.015625)"/>
      <use xlink:href="#DejaVuSans-Oblique-58" transform="translate(394.633789 0.015625)"/>
      <use xlink:href="#DejaVuSans-32" transform="translate(463.139648 -16.390625) scale(0.7)"/>
      <use xlink:href="#DejaVuSans-29" transform="translate(510.410156 0.015625)"/>
     </g>
    </g>
    <g id="patch_9">
     <path d="M 427.3 68.274375 
L 447.3 68.274375 
L 447.3 61.274375 
L 427.3 61.274375 
L 427.3 68.274375 
z
" style="fill: none; stroke: #2ca02c; stroke-linejoin: miter"/>
    </g>
    <g id="text_20">
     <!-- $\min(X_1, X_2)$ empirical -->
     <g transform="translate(455.3 68.274375) scale(0.1 -0.1)">
      <defs>
       <path id="DejaVuSans-70" d="M 1159 525 
L 1159 -1331 
L 581 -1331 
L 581 3500 
L 1159 3500 
L 1159 2969 
Q 1341 3281 1617 3432 
Q 1894 3584 2278 3584 
Q 2916 3584 3314 3078 
Q 3713 2572 3713 1747 
Q 3713 922 3314 415 
Q 2916 -91 2278 -91 
Q 1894 -91 1617 61 
Q 1341 213 1159 525 
z
M 3116 1747 
Q 3116 2381 2855 2742 
Q 2594 3103 2138 3103 
Q 1681 3103 1420 2742 
Q 1159 2381 1159 1747 
Q 1159 1113 1420 752 
Q 1681 391 2138 391 
Q 2594 391 2855 752 
Q 3116 1113 3116 1747 
z
" transform="scale(0.015625)"/>
       <path id="DejaVuSans-63" d="M 3122 3366 
L 3122 2828 
Q 2878 2963 2633 3030 
Q 2388 3097 2138 3097 
Q 1578 3097 1268 2742 
Q 959 2388 959 1747 
Q 959 1106 1268 751 
Q 1578 397 2138 397 
Q 2388 397 2633 464 
Q 2878 531 3122 666 
L 3122 134 
Q 2881 22 2623 -34 
Q 2366 -91 2075 -91 
Q 1284 -91 818 406 
Q 353 903 353 1747 
Q 353 2603 823 3093 
Q 1294 3584 2113 3584 
Q 2378 3584 2631 3529 
Q 2884 3475 3122 3366 
z
" transform="scale(0.015625)"/>
      </defs>
      <use xlink:href="#DejaVuSans-6d" transform="translate(0 0.015625)"/>
      <use xlink:href="#DejaVuSans-69" transform="translate(97.412109 0.015625)"/>
      <use xlink:href="#DejaVuSans-6e" transform="translate(125.195312 0.015625)"/>
      <use xlink:href="#DejaVuSans-28" transform="translate(188.574219 0.015625)"/>
      <use xlink:href="#DejaVuSans-Oblique-58" transform="translate(227.587891 0.015625)"/>
      <use xlink:href="#DejaVuSans-31" transform="translate(296.09375 -16.390625) scale(0.7)"/>
      <use xlink:href="#DejaVuSans-2c" transform="translate(343.364258 0.015625)"/>
      <use xlink:href="#DejaVuSans-Oblique-58" transform="translate(394.633789 0.015625)"/>
      <use xlink:href="#DejaVuSans-32" transform="translate(463.139648 -16.390625) scale(0.7)"/>
      <use xlink:href="#DejaVuSans-29" transform="translate(510.410156 0.015625)"/>
      <use xlink:href="#DejaVuSans-20" transform="translate(549.423828 0.015625)"/>
      <use xlink:href="#DejaVuSans-65" transform="translate(581.210938 0.015625)"/>
      <use xlink:href="#DejaVuSans-6d" transform="translate(642.734375 0.015625)"/>
      <use xlink:href="#DejaVuSans-70" transform="translate(740.146484 0.015625)"/>
      <use xlink:href="#DejaVuSans-69" transform="translate(803.623047 0.015625)"/>
      <use xlink:href="#DejaVuSans-72" transform="translate(831.40625 0.015625)"/>
      <use xlink:href="#DejaVuSans-69" transform="translate(872.519531 0.015625)"/>
      <use xlink:href="#DejaVuSans-63" transform="translate(900.302734 0.015625)"/>
      <use xlink:href="#DejaVuSans-61" transform="translate(955.283203 0.015625)"/>
      <use xlink:href="#DejaVuSans-6c" transform="translate(1016.5625 0.015625)"/>
     </g>
    </g>
   </g>
  </g>
 </g>
 <defs>
  <clipPath id="pc53c082280">
   <rect x="43.78125" y="22.318125" width="525.01875" height="228.125625"/>
  </clipPath>
 </defs>
</svg>
