<?xml version="1.0" encoding="utf-8" standalone="no"?>
<!DOCTYPE svg PUBLIC "-//W3C//DTD SVG 1.1//EN"
  "http://www.w3.org/Graphics/SVG/1.1/DTD/svg11.dtd">
<svg xmlns:xlink="http://www.w3.org/1999/xlink" width="576pt" height="288pt" viewBox="0 0 576 288" xmlns="http://www.w3.org/2000/svg" version="1.1">
 <metadata>
  <rdf:RDF xmlns:dc="http://purl.org/dc/elements/1.1/" xmlns:cc="http://creativecommons.org/ns#" xmlns:rdf="http://www.w3.org/1999/02/22-rdf-syntax-ns#">
   <cc:Work>
    <dc:type rdf:resource="http://purl.org/dc/dcmitype/StillImage"/>
    <dc:date>2025-05-10T16:30:47.460883</dc:date>
    <dc:format>image/svg+xml</dc:format>
    <dc:creator>
     <cc:Agent>
      <dc:title>Matplotlib v3.10.3, https://matplotlib.org/</dc:title>
     </cc:Agent>
    </dc:creator>
   </cc:Work>
  </rdf:RDF>
 </metadata>
 <defs>
  <style type="text/css">*{stroke-linejoin: round; stroke-linecap: butt}</style>
 </defs>
 <g id="figure_1">
  <g id="patch_1">
   <path d="M 0 288 
L 576 288 
L 576 0 
L 0 0 
z
" style="fill: #ffffff"/>
  </g>
  <g id="axes_1">
   <g id="patch_2">
    <path d="M 43.803125 248.921875 
L 568.8 248.921875 
L 568.8 22.318125 
L 43.803125 22.318125 
z
" style="fill: #ffffff"/>
   </g>
   <g id="matplotlib.axis_1">
    <g id="xtick_1">
     <g id="line2d_1">
      <path d="M 67.666619 248.921875 
L 67.666619 22.318125 
" clip-path="url(#p9bd39f5c81)" style="fill: none; stroke-dasharray: 2.96,1.28; stroke-dashoffset: 0; stroke: #b0b0b0; stroke-opacity: 0.8; stroke-width: 0.8"/>
     </g>
     <g id="line2d_2">
      <defs>
       <path id="ma7f7ee5ae2" d="M 0 0 
L 0 3.5 
" style="stroke: #000000; stroke-width: 0.8"/>
      </defs>
      <g>
       <use xlink:href="#ma7f7ee5ae2" x="67.666619" y="248.921875" style="stroke: #000000; stroke-width: 0.8"/>
      </g>
     </g>
     <g id="text_1">
      <!-- −20 -->
      <g transform="translate(57.114276 263.520312) scale(0.1 -0.1)">
       <defs>
        <path id="DejaVuSans-2212" d="M 678 2272 
L 4684 2272 
L 4684 1741 
L 678 1741 
L 678 2272 
z
" transform="scale(0.015625)"/>
        <path id="DejaVuSans-32" d="M 1228 531 
L 3431 531 
L 3431 0 
L 469 0 
L 469 531 
Q 828 903 1448 1529 
Q 2069 2156 2228 2338 
Q 2531 2678 2651 2914 
Q 2772 3150 2772 3378 
Q 2772 3750 2511 3984 
Q 2250 4219 1831 4219 
Q 1534 4219 1204 4116 
Q 875 4013 500 3803 
L 500 4441 
Q 881 4594 1212 4672 
Q 1544 4750 1819 4750 
Q 2544 4750 2975 4387 
Q 3406 4025 3406 3419 
Q 3406 3131 3298 2873 
Q 3191 2616 2906 2266 
Q 2828 2175 2409 1742 
Q 1991 1309 1228 531 
z
" transform="scale(0.015625)"/>
        <path id="DejaVuSans-30" d="M 2034 4250 
Q 1547 4250 1301 3770 
Q 1056 3291 1056 2328 
Q 1056 1369 1301 889 
Q 1547 409 2034 409 
Q 2525 409 2770 889 
Q 3016 1369 3016 2328 
Q 3016 3291 2770 3770 
Q 2525 4250 2034 4250 
z
M 2034 4750 
Q 2819 4750 3233 4129 
Q 3647 3509 3647 2328 
Q 3647 1150 3233 529 
Q 2819 -91 2034 -91 
Q 1250 -91 836 529 
Q 422 1150 422 2328 
Q 422 3509 836 4129 
Q 1250 4750 2034 4750 
z
" transform="scale(0.015625)"/>
       </defs>
       <use xlink:href="#DejaVuSans-2212"/>
       <use xlink:href="#DejaVuSans-32" transform="translate(83.789062 0)"/>
       <use xlink:href="#DejaVuSans-30" transform="translate(147.412109 0)"/>
      </g>
     </g>
    </g>
    <g id="xtick_2">
     <g id="line2d_3">
      <path d="M 147.2116 248.921875 
L 147.2116 22.318125 
" clip-path="url(#p9bd39f5c81)" style="fill: none; stroke-dasharray: 2.96,1.28; stroke-dashoffset: 0; stroke: #b0b0b0; stroke-opacity: 0.8; stroke-width: 0.8"/>
     </g>
     <g id="line2d_4">
      <g>
       <use xlink:href="#ma7f7ee5ae2" x="147.2116" y="248.921875" style="stroke: #000000; stroke-width: 0.8"/>
      </g>
     </g>
     <g id="text_2">
      <!-- −15 -->
      <g transform="translate(136.659257 263.520312) scale(0.1 -0.1)">
       <defs>
        <path id="DejaVuSans-31" d="M 794 531 
L 1825 531 
L 1825 4091 
L 703 3866 
L 703 4441 
L 1819 4666 
L 2450 4666 
L 2450 531 
L 3481 531 
L 3481 0 
L 794 0 
L 794 531 
z
" transform="scale(0.015625)"/>
        <path id="DejaVuSans-35" d="M 691 4666 
L 3169 4666 
L 3169 4134 
L 1269 4134 
L 1269 2991 
Q 1406 3038 1543 3061 
Q 1681 3084 1819 3084 
Q 2600 3084 3056 2656 
Q 3513 2228 3513 1497 
Q 3513 744 3044 326 
Q 2575 -91 1722 -91 
Q 1428 -91 1123 -41 
Q 819 9 494 109 
L 494 744 
Q 775 591 1075 516 
Q 1375 441 1709 441 
Q 2250 441 2565 725 
Q 2881 1009 2881 1497 
Q 2881 1984 2565 2268 
Q 2250 2553 1709 2553 
Q 1456 2553 1204 2497 
Q 953 2441 691 2322 
L 691 4666 
z
" transform="scale(0.015625)"/>
       </defs>
       <use xlink:href="#DejaVuSans-2212"/>
       <use xlink:href="#DejaVuSans-31" transform="translate(83.789062 0)"/>
       <use xlink:href="#DejaVuSans-35" transform="translate(147.412109 0)"/>
      </g>
     </g>
    </g>
    <g id="xtick_3">
     <g id="line2d_5">
      <path d="M 226.756581 248.921875 
L 226.756581 22.318125 
" clip-path="url(#p9bd39f5c81)" style="fill: none; stroke-dasharray: 2.96,1.28; stroke-dashoffset: 0; stroke: #b0b0b0; stroke-opacity: 0.8; stroke-width: 0.8"/>
     </g>
     <g id="line2d_6">
      <g>
       <use xlink:href="#ma7f7ee5ae2" x="226.756581" y="248.921875" style="stroke: #000000; stroke-width: 0.8"/>
      </g>
     </g>
     <g id="text_3">
      <!-- −10 -->
      <g transform="translate(216.204238 263.520312) scale(0.1 -0.1)">
       <use xlink:href="#DejaVuSans-2212"/>
       <use xlink:href="#DejaVuSans-31" transform="translate(83.789062 0)"/>
       <use xlink:href="#DejaVuSans-30" transform="translate(147.412109 0)"/>
      </g>
     </g>
    </g>
    <g id="xtick_4">
     <g id="line2d_7">
      <path d="M 306.301563 248.921875 
L 306.301563 22.318125 
" clip-path="url(#p9bd39f5c81)" style="fill: none; stroke-dasharray: 2.96,1.28; stroke-dashoffset: 0; stroke: #b0b0b0; stroke-opacity: 0.8; stroke-width: 0.8"/>
     </g>
     <g id="line2d_8">
      <g>
       <use xlink:href="#ma7f7ee5ae2" x="306.301563" y="248.921875" style="stroke: #000000; stroke-width: 0.8"/>
      </g>
     </g>
     <g id="text_4">
      <!-- −5 -->
      <g transform="translate(298.930469 263.520312) scale(0.1 -0.1)">
       <use xlink:href="#DejaVuSans-2212"/>
       <use xlink:href="#DejaVuSans-35" transform="translate(83.789062 0)"/>
      </g>
     </g>
    </g>
    <g id="xtick_5">
     <g id="line2d_9">
      <path d="M 385.846544 248.921875 
L 385.846544 22.318125 
" clip-path="url(#p9bd39f5c81)" style="fill: none; stroke-dasharray: 2.96,1.28; stroke-dashoffset: 0; stroke: #b0b0b0; stroke-opacity: 0.8; stroke-width: 0.8"/>
     </g>
     <g id="line2d_10">
      <g>
       <use xlink:href="#ma7f7ee5ae2" x="385.846544" y="248.921875" style="stroke: #000000; stroke-width: 0.8"/>
      </g>
     </g>
     <g id="text_5">
      <!-- 0 -->
      <g transform="translate(382.665294 263.520312) scale(0.1 -0.1)">
       <use xlink:href="#DejaVuSans-30"/>
      </g>
     </g>
    </g>
    <g id="xtick_6">
     <g id="line2d_11">
      <path d="M 465.391525 248.921875 
L 465.391525 22.318125 
" clip-path="url(#p9bd39f5c81)" style="fill: none; stroke-dasharray: 2.96,1.28; stroke-dashoffset: 0; stroke: #b0b0b0; stroke-opacity: 0.8; stroke-width: 0.8"/>
     </g>
     <g id="line2d_12">
      <g>
       <use xlink:href="#ma7f7ee5ae2" x="465.391525" y="248.921875" style="stroke: #000000; stroke-width: 0.8"/>
      </g>
     </g>
     <g id="text_6">
      <!-- 5 -->
      <g transform="translate(462.210275 263.520312) scale(0.1 -0.1)">
       <use xlink:href="#DejaVuSans-35"/>
      </g>
     </g>
    </g>
    <g id="xtick_7">
     <g id="line2d_13">
      <path d="M 544.936506 248.921875 
L 544.936506 22.318125 
" clip-path="url(#p9bd39f5c81)" style="fill: none; stroke-dasharray: 2.96,1.28; stroke-dashoffset: 0; stroke: #b0b0b0; stroke-opacity: 0.8; stroke-width: 0.8"/>
     </g>
     <g id="line2d_14">
      <g>
       <use xlink:href="#ma7f7ee5ae2" x="544.936506" y="248.921875" style="stroke: #000000; stroke-width: 0.8"/>
      </g>
     </g>
     <g id="text_7">
      <!-- 10 -->
      <g transform="translate(538.574006 263.520312) scale(0.1 -0.1)">
       <use xlink:href="#DejaVuSans-31"/>
       <use xlink:href="#DejaVuSans-30" transform="translate(63.623047 0)"/>
      </g>
     </g>
    </g>
    <g id="text_8">
     <!-- Signal-to-noise ratio (dB), $S/\sigma^2$ -->
     <g transform="translate(230.001563 278.7) scale(0.1 -0.1)">
      <defs>
       <path id="DejaVuSans-53" d="M 3425 4513 
L 3425 3897 
Q 3066 4069 2747 4153 
Q 2428 4238 2131 4238 
Q 1616 4238 1336 4038 
Q 1056 3838 1056 3469 
Q 1056 3159 1242 3001 
Q 1428 2844 1947 2747 
L 2328 2669 
Q 3034 2534 3370 2195 
Q 3706 1856 3706 1288 
Q 3706 609 3251 259 
Q 2797 -91 1919 -91 
Q 1588 -91 1214 -16 
Q 841 59 441 206 
L 441 856 
Q 825 641 1194 531 
Q 1563 422 1919 422 
Q 2459 422 2753 634 
Q 3047 847 3047 1241 
Q 3047 1584 2836 1778 
Q 2625 1972 2144 2069 
L 1759 2144 
Q 1053 2284 737 2584 
Q 422 2884 422 3419 
Q 422 4038 858 4394 
Q 1294 4750 2059 4750 
Q 2388 4750 2728 4690 
Q 3069 4631 3425 4513 
z
" transform="scale(0.015625)"/>
       <path id="DejaVuSans-69" d="M 603 3500 
L 1178 3500 
L 1178 0 
L 603 0 
L 603 3500 
z
M 603 4863 
L 1178 4863 
L 1178 4134 
L 603 4134 
L 603 4863 
z
" transform="scale(0.015625)"/>
       <path id="DejaVuSans-67" d="M 2906 1791 
Q 2906 2416 2648 2759 
Q 2391 3103 1925 3103 
Q 1463 3103 1205 2759 
Q 947 2416 947 1791 
Q 947 1169 1205 825 
Q 1463 481 1925 481 
Q 2391 481 2648 825 
Q 2906 1169 2906 1791 
z
M 3481 434 
Q 3481 -459 3084 -895 
Q 2688 -1331 1869 -1331 
Q 1566 -1331 1297 -1286 
Q 1028 -1241 775 -1147 
L 775 -588 
Q 1028 -725 1275 -790 
Q 1522 -856 1778 -856 
Q 2344 -856 2625 -561 
Q 2906 -266 2906 331 
L 2906 616 
Q 2728 306 2450 153 
Q 2172 0 1784 0 
Q 1141 0 747 490 
Q 353 981 353 1791 
Q 353 2603 747 3093 
Q 1141 3584 1784 3584 
Q 2172 3584 2450 3431 
Q 2728 3278 2906 2969 
L 2906 3500 
L 3481 3500 
L 3481 434 
z
" transform="scale(0.015625)"/>
       <path id="DejaVuSans-6e" d="M 3513 2113 
L 3513 0 
L 2938 0 
L 2938 2094 
Q 2938 2591 2744 2837 
Q 2550 3084 2163 3084 
Q 1697 3084 1428 2787 
Q 1159 2491 1159 1978 
L 1159 0 
L 581 0 
L 581 3500 
L 1159 3500 
L 1159 2956 
Q 1366 3272 1645 3428 
Q 1925 3584 2291 3584 
Q 2894 3584 3203 3211 
Q 3513 2838 3513 2113 
z
" transform="scale(0.015625)"/>
       <path id="DejaVuSans-61" d="M 2194 1759 
Q 1497 1759 1228 1600 
Q 959 1441 959 1056 
Q 959 750 1161 570 
Q 1363 391 1709 391 
Q 2188 391 2477 730 
Q 2766 1069 2766 1631 
L 2766 1759 
L 2194 1759 
z
M 3341 1997 
L 3341 0 
L 2766 0 
L 2766 531 
Q 2569 213 2275 61 
Q 1981 -91 1556 -91 
Q 1019 -91 701 211 
Q 384 513 384 1019 
Q 384 1609 779 1909 
Q 1175 2209 1959 2209 
L 2766 2209 
L 2766 2266 
Q 2766 2663 2505 2880 
Q 2244 3097 1772 3097 
Q 1472 3097 1187 3025 
Q 903 2953 641 2809 
L 641 3341 
Q 956 3463 1253 3523 
Q 1550 3584 1831 3584 
Q 2591 3584 2966 3190 
Q 3341 2797 3341 1997 
z
" transform="scale(0.015625)"/>
       <path id="DejaVuSans-6c" d="M 603 4863 
L 1178 4863 
L 1178 0 
L 603 0 
L 603 4863 
z
" transform="scale(0.015625)"/>
       <path id="DejaVuSans-2d" d="M 313 2009 
L 1997 2009 
L 1997 1497 
L 313 1497 
L 313 2009 
z
" transform="scale(0.015625)"/>
       <path id="DejaVuSans-74" d="M 1172 4494 
L 1172 3500 
L 2356 3500 
L 2356 3053 
L 1172 3053 
L 1172 1153 
Q 1172 725 1289 603 
Q 1406 481 1766 481 
L 2356 481 
L 2356 0 
L 1766 0 
Q 1100 0 847 248 
Q 594 497 594 1153 
L 594 3053 
L 172 3053 
L 172 3500 
L 594 3500 
L 594 4494 
L 1172 4494 
z
" transform="scale(0.015625)"/>
       <path id="DejaVuSans-6f" d="M 1959 3097 
Q 1497 3097 1228 2736 
Q 959 2375 959 1747 
Q 959 1119 1226 758 
Q 1494 397 1959 397 
Q 2419 397 2687 759 
Q 2956 1122 2956 1747 
Q 2956 2369 2687 2733 
Q 2419 3097 1959 3097 
z
M 1959 3584 
Q 2709 3584 3137 3096 
Q 3566 2609 3566 1747 
Q 3566 888 3137 398 
Q 2709 -91 1959 -91 
Q 1206 -91 779 398 
Q 353 888 353 1747 
Q 353 2609 779 3096 
Q 1206 3584 1959 3584 
z
" transform="scale(0.015625)"/>
       <path id="DejaVuSans-73" d="M 2834 3397 
L 2834 2853 
Q 2591 2978 2328 3040 
Q 2066 3103 1784 3103 
Q 1356 3103 1142 2972 
Q 928 2841 928 2578 
Q 928 2378 1081 2264 
Q 1234 2150 1697 2047 
L 1894 2003 
Q 2506 1872 2764 1633 
Q 3022 1394 3022 966 
Q 3022 478 2636 193 
Q 2250 -91 1575 -91 
Q 1294 -91 989 -36 
Q 684 19 347 128 
L 347 722 
Q 666 556 975 473 
Q 1284 391 1588 391 
Q 1994 391 2212 530 
Q 2431 669 2431 922 
Q 2431 1156 2273 1281 
Q 2116 1406 1581 1522 
L 1381 1569 
Q 847 1681 609 1914 
Q 372 2147 372 2553 
Q 372 3047 722 3315 
Q 1072 3584 1716 3584 
Q 2034 3584 2315 3537 
Q 2597 3491 2834 3397 
z
" transform="scale(0.015625)"/>
       <path id="DejaVuSans-65" d="M 3597 1894 
L 3597 1613 
L 953 1613 
Q 991 1019 1311 708 
Q 1631 397 2203 397 
Q 2534 397 2845 478 
Q 3156 559 3463 722 
L 3463 178 
Q 3153 47 2828 -22 
Q 2503 -91 2169 -91 
Q 1331 -91 842 396 
Q 353 884 353 1716 
Q 353 2575 817 3079 
Q 1281 3584 2069 3584 
Q 2775 3584 3186 3129 
Q 3597 2675 3597 1894 
z
M 3022 2063 
Q 3016 2534 2758 2815 
Q 2500 3097 2075 3097 
Q 1594 3097 1305 2825 
Q 1016 2553 972 2059 
L 3022 2063 
z
" transform="scale(0.015625)"/>
       <path id="DejaVuSans-20" transform="scale(0.015625)"/>
       <path id="DejaVuSans-72" d="M 2631 2963 
Q 2534 3019 2420 3045 
Q 2306 3072 2169 3072 
Q 1681 3072 1420 2755 
Q 1159 2438 1159 1844 
L 1159 0 
L 581 0 
L 581 3500 
L 1159 3500 
L 1159 2956 
Q 1341 3275 1631 3429 
Q 1922 3584 2338 3584 
Q 2397 3584 2469 3576 
Q 2541 3569 2628 3553 
L 2631 2963 
z
" transform="scale(0.015625)"/>
       <path id="DejaVuSans-28" d="M 1984 4856 
Q 1566 4138 1362 3434 
Q 1159 2731 1159 2009 
Q 1159 1288 1364 580 
Q 1569 -128 1984 -844 
L 1484 -844 
Q 1016 -109 783 600 
Q 550 1309 550 2009 
Q 550 2706 781 3412 
Q 1013 4119 1484 4856 
L 1984 4856 
z
" transform="scale(0.015625)"/>
       <path id="DejaVuSans-64" d="M 2906 2969 
L 2906 4863 
L 3481 4863 
L 3481 0 
L 2906 0 
L 2906 525 
Q 2725 213 2448 61 
Q 2172 -91 1784 -91 
Q 1150 -91 751 415 
Q 353 922 353 1747 
Q 353 2572 751 3078 
Q 1150 3584 1784 3584 
Q 2172 3584 2448 3432 
Q 2725 3281 2906 2969 
z
M 947 1747 
Q 947 1113 1208 752 
Q 1469 391 1925 391 
Q 2381 391 2643 752 
Q 2906 1113 2906 1747 
Q 2906 2381 2643 2742 
Q 2381 3103 1925 3103 
Q 1469 3103 1208 2742 
Q 947 2381 947 1747 
z
" transform="scale(0.015625)"/>
       <path id="DejaVuSans-42" d="M 1259 2228 
L 1259 519 
L 2272 519 
Q 2781 519 3026 730 
Q 3272 941 3272 1375 
Q 3272 1813 3026 2020 
Q 2781 2228 2272 2228 
L 1259 2228 
z
M 1259 4147 
L 1259 2741 
L 2194 2741 
Q 2656 2741 2882 2914 
Q 3109 3088 3109 3444 
Q 3109 3797 2882 3972 
Q 2656 4147 2194 4147 
L 1259 4147 
z
M 628 4666 
L 2241 4666 
Q 2963 4666 3353 4366 
Q 3744 4066 3744 3513 
Q 3744 3084 3544 2831 
Q 3344 2578 2956 2516 
Q 3422 2416 3680 2098 
Q 3938 1781 3938 1306 
Q 3938 681 3513 340 
Q 3088 0 2303 0 
L 628 0 
L 628 4666 
z
" transform="scale(0.015625)"/>
       <path id="DejaVuSans-29" d="M 513 4856 
L 1013 4856 
Q 1481 4119 1714 3412 
Q 1947 2706 1947 2009 
Q 1947 1309 1714 600 
Q 1481 -109 1013 -844 
L 513 -844 
Q 928 -128 1133 580 
Q 1338 1288 1338 2009 
Q 1338 2731 1133 3434 
Q 928 4138 513 4856 
z
" transform="scale(0.015625)"/>
       <path id="DejaVuSans-2c" d="M 750 794 
L 1409 794 
L 1409 256 
L 897 -744 
L 494 -744 
L 750 256 
L 750 794 
z
" transform="scale(0.015625)"/>
       <path id="DejaVuSans-Oblique-53" d="M 3859 4513 
L 3738 3897 
Q 3422 4066 3111 4152 
Q 2800 4238 2509 4238 
Q 1944 4238 1609 3991 
Q 1275 3744 1275 3334 
Q 1275 3109 1398 2989 
Q 1522 2869 2034 2731 
L 2413 2638 
Q 3053 2472 3303 2217 
Q 3553 1963 3553 1503 
Q 3553 797 2998 353 
Q 2444 -91 1538 -91 
Q 1166 -91 791 -17 
Q 416 56 38 206 
L 166 856 
Q 513 641 861 531 
Q 1209 422 1556 422 
Q 2147 422 2503 684 
Q 2859 947 2859 1369 
Q 2859 1650 2717 1795 
Q 2575 1941 2106 2059 
L 1728 2156 
Q 1081 2325 845 2545 
Q 609 2766 609 3163 
Q 609 3859 1145 4304 
Q 1681 4750 2541 4750 
Q 2875 4750 3203 4690 
Q 3531 4631 3859 4513 
z
" transform="scale(0.015625)"/>
       <path id="DejaVuSans-2f" d="M 1625 4666 
L 2156 4666 
L 531 -594 
L 0 -594 
L 1625 4666 
z
" transform="scale(0.015625)"/>
       <path id="DejaVuSans-Oblique-3c3" d="M 2219 3044 
Q 1744 3044 1422 2700 
Q 1081 2341 969 1747 
Q 844 1119 1044 756 
Q 1241 397 1706 397 
Q 2166 397 2503 759 
Q 2844 1122 2966 1747 
Q 3075 2319 2881 2700 
Q 2700 3044 2219 3044 
z
M 2309 3503 
L 4219 3500 
L 4106 2925 
L 3463 2925 
Q 3706 2438 3575 1747 
Q 3406 888 2884 400 
Q 2359 -91 1609 -91 
Q 856 -91 525 400 
Q 194 888 363 1747 
Q 528 2609 1050 3097 
Q 1484 3503 2309 3503 
z
" transform="scale(0.015625)"/>
      </defs>
      <use xlink:href="#DejaVuSans-53" transform="translate(0 0.765625)"/>
      <use xlink:href="#DejaVuSans-69" transform="translate(63.476562 0.765625)"/>
      <use xlink:href="#DejaVuSans-67" transform="translate(91.259766 0.765625)"/>
      <use xlink:href="#DejaVuSans-6e" transform="translate(154.736328 0.765625)"/>
      <use xlink:href="#DejaVuSans-61" transform="translate(218.115234 0.765625)"/>
      <use xlink:href="#DejaVuSans-6c" transform="translate(279.394531 0.765625)"/>
      <use xlink:href="#DejaVuSans-2d" transform="translate(307.177734 0.765625)"/>
      <use xlink:href="#DejaVuSans-74" transform="translate(343.261719 0.765625)"/>
      <use xlink:href="#DejaVuSans-6f" transform="translate(382.470703 0.765625)"/>
      <use xlink:href="#DejaVuSans-2d" transform="translate(443.652344 0.765625)"/>
      <use xlink:href="#DejaVuSans-6e" transform="translate(479.736328 0.765625)"/>
      <use xlink:href="#DejaVuSans-6f" transform="translate(543.115234 0.765625)"/>
      <use xlink:href="#DejaVuSans-69" transform="translate(604.296875 0.765625)"/>
      <use xlink:href="#DejaVuSans-73" transform="translate(632.080078 0.765625)"/>
      <use xlink:href="#DejaVuSans-65" transform="translate(684.179688 0.765625)"/>
      <use xlink:href="#DejaVuSans-20" transform="translate(745.703125 0.765625)"/>
      <use xlink:href="#DejaVuSans-72" transform="translate(777.490234 0.765625)"/>
      <use xlink:href="#DejaVuSans-61" transform="translate(818.603516 0.765625)"/>
      <use xlink:href="#DejaVuSans-74" transform="translate(879.882812 0.765625)"/>
      <use xlink:href="#DejaVuSans-69" transform="translate(919.091797 0.765625)"/>
      <use xlink:href="#DejaVuSans-6f" transform="translate(946.875 0.765625)"/>
      <use xlink:href="#DejaVuSans-20" transform="translate(1008.056641 0.765625)"/>
      <use xlink:href="#DejaVuSans-28" transform="translate(1039.84375 0.765625)"/>
      <use xlink:href="#DejaVuSans-64" transform="translate(1078.857422 0.765625)"/>
      <use xlink:href="#DejaVuSans-42" transform="translate(1142.333984 0.765625)"/>
      <use xlink:href="#DejaVuSans-29" transform="translate(1210.9375 0.765625)"/>
      <use xlink:href="#DejaVuSans-2c" transform="translate(1249.951172 0.765625)"/>
      <use xlink:href="#DejaVuSans-20" transform="translate(1281.738281 0.765625)"/>
      <use xlink:href="#DejaVuSans-Oblique-53" transform="translate(1313.525391 0.765625)"/>
      <use xlink:href="#DejaVuSans-2f" transform="translate(1377.001953 0.765625)"/>
      <use xlink:href="#DejaVuSans-Oblique-3c3" transform="translate(1410.693359 0.765625)"/>
      <use xlink:href="#DejaVuSans-32" transform="translate(1478.544974 39.046875) scale(0.7)"/>
     </g>
    </g>
   </g>
   <g id="matplotlib.axis_2">
    <g id="ytick_1">
     <g id="line2d_15">
      <path d="M 43.803125 238.624448 
L 568.8 238.624448 
" clip-path="url(#p9bd39f5c81)" style="fill: none; stroke-dasharray: 2.96,1.28; stroke-dashoffset: 0; stroke: #b0b0b0; stroke-opacity: 0.8; stroke-width: 0.8"/>
     </g>
     <g id="line2d_16">
      <defs>
       <path id="m394f787433" d="M 0 0 
L -3.5 0 
" style="stroke: #000000; stroke-width: 0.8"/>
      </defs>
      <g>
       <use xlink:href="#m394f787433" x="43.803125" y="238.624448" style="stroke: #000000; stroke-width: 0.8"/>
      </g>
     </g>
     <g id="text_9">
      <!-- 0.0 -->
      <g transform="translate(20.9 242.423666) scale(0.1 -0.1)">
       <defs>
        <path id="DejaVuSans-2e" d="M 684 794 
L 1344 794 
L 1344 0 
L 684 0 
L 684 794 
z
" transform="scale(0.015625)"/>
       </defs>
       <use xlink:href="#DejaVuSans-30"/>
       <use xlink:href="#DejaVuSans-2e" transform="translate(63.623047 0)"/>
       <use xlink:href="#DejaVuSans-30" transform="translate(95.410156 0)"/>
      </g>
     </g>
    </g>
    <g id="ytick_2">
     <g id="line2d_17">
      <path d="M 43.803125 197.423217 
L 568.8 197.423217 
" clip-path="url(#p9bd39f5c81)" style="fill: none; stroke-dasharray: 2.96,1.28; stroke-dashoffset: 0; stroke: #b0b0b0; stroke-opacity: 0.8; stroke-width: 0.8"/>
     </g>
     <g id="line2d_18">
      <g>
       <use xlink:href="#m394f787433" x="43.803125" y="197.423217" style="stroke: #000000; stroke-width: 0.8"/>
      </g>
     </g>
     <g id="text_10">
      <!-- 0.2 -->
      <g transform="translate(20.9 201.222436) scale(0.1 -0.1)">
       <use xlink:href="#DejaVuSans-30"/>
       <use xlink:href="#DejaVuSans-2e" transform="translate(63.623047 0)"/>
       <use xlink:href="#DejaVuSans-32" transform="translate(95.410156 0)"/>
      </g>
     </g>
    </g>
    <g id="ytick_3">
     <g id="line2d_19">
      <path d="M 43.803125 156.221987 
L 568.8 156.221987 
" clip-path="url(#p9bd39f5c81)" style="fill: none; stroke-dasharray: 2.96,1.28; stroke-dashoffset: 0; stroke: #b0b0b0; stroke-opacity: 0.8; stroke-width: 0.8"/>
     </g>
     <g id="line2d_20">
      <g>
       <use xlink:href="#m394f787433" x="43.803125" y="156.221987" style="stroke: #000000; stroke-width: 0.8"/>
      </g>
     </g>
     <g id="text_11">
      <!-- 0.4 -->
      <g transform="translate(20.9 160.021205) scale(0.1 -0.1)">
       <defs>
        <path id="DejaVuSans-34" d="M 2419 4116 
L 825 1625 
L 2419 1625 
L 2419 4116 
z
M 2253 4666 
L 3047 4666 
L 3047 1625 
L 3713 1625 
L 3713 1100 
L 3047 1100 
L 3047 0 
L 2419 0 
L 2419 1100 
L 313 1100 
L 313 1709 
L 2253 4666 
z
" transform="scale(0.015625)"/>
       </defs>
       <use xlink:href="#DejaVuSans-30"/>
       <use xlink:href="#DejaVuSans-2e" transform="translate(63.623047 0)"/>
       <use xlink:href="#DejaVuSans-34" transform="translate(95.410156 0)"/>
      </g>
     </g>
    </g>
    <g id="ytick_4">
     <g id="line2d_21">
      <path d="M 43.803125 115.020756 
L 568.8 115.020756 
" clip-path="url(#p9bd39f5c81)" style="fill: none; stroke-dasharray: 2.96,1.28; stroke-dashoffset: 0; stroke: #b0b0b0; stroke-opacity: 0.8; stroke-width: 0.8"/>
     </g>
     <g id="line2d_22">
      <g>
       <use xlink:href="#m394f787433" x="43.803125" y="115.020756" style="stroke: #000000; stroke-width: 0.8"/>
      </g>
     </g>
     <g id="text_12">
      <!-- 0.6 -->
      <g transform="translate(20.9 118.819975) scale(0.1 -0.1)">
       <defs>
        <path id="DejaVuSans-36" d="M 2113 2584 
Q 1688 2584 1439 2293 
Q 1191 2003 1191 1497 
Q 1191 994 1439 701 
Q 1688 409 2113 409 
Q 2538 409 2786 701 
Q 3034 994 3034 1497 
Q 3034 2003 2786 2293 
Q 2538 2584 2113 2584 
z
M 3366 4563 
L 3366 3988 
Q 3128 4100 2886 4159 
Q 2644 4219 2406 4219 
Q 1781 4219 1451 3797 
Q 1122 3375 1075 2522 
Q 1259 2794 1537 2939 
Q 1816 3084 2150 3084 
Q 2853 3084 3261 2657 
Q 3669 2231 3669 1497 
Q 3669 778 3244 343 
Q 2819 -91 2113 -91 
Q 1303 -91 875 529 
Q 447 1150 447 2328 
Q 447 3434 972 4092 
Q 1497 4750 2381 4750 
Q 2619 4750 2861 4703 
Q 3103 4656 3366 4563 
z
" transform="scale(0.015625)"/>
       </defs>
       <use xlink:href="#DejaVuSans-30"/>
       <use xlink:href="#DejaVuSans-2e" transform="translate(63.623047 0)"/>
       <use xlink:href="#DejaVuSans-36" transform="translate(95.410156 0)"/>
      </g>
     </g>
    </g>
    <g id="ytick_5">
     <g id="line2d_23">
      <path d="M 43.803125 73.819526 
L 568.8 73.819526 
" clip-path="url(#p9bd39f5c81)" style="fill: none; stroke-dasharray: 2.96,1.28; stroke-dashoffset: 0; stroke: #b0b0b0; stroke-opacity: 0.8; stroke-width: 0.8"/>
     </g>
     <g id="line2d_24">
      <g>
       <use xlink:href="#m394f787433" x="43.803125" y="73.819526" style="stroke: #000000; stroke-width: 0.8"/>
      </g>
     </g>
     <g id="text_13">
      <!-- 0.8 -->
      <g transform="translate(20.9 77.618745) scale(0.1 -0.1)">
       <defs>
        <path id="DejaVuSans-38" d="M 2034 2216 
Q 1584 2216 1326 1975 
Q 1069 1734 1069 1313 
Q 1069 891 1326 650 
Q 1584 409 2034 409 
Q 2484 409 2743 651 
Q 3003 894 3003 1313 
Q 3003 1734 2745 1975 
Q 2488 2216 2034 2216 
z
M 1403 2484 
Q 997 2584 770 2862 
Q 544 3141 544 3541 
Q 544 4100 942 4425 
Q 1341 4750 2034 4750 
Q 2731 4750 3128 4425 
Q 3525 4100 3525 3541 
Q 3525 3141 3298 2862 
Q 3072 2584 2669 2484 
Q 3125 2378 3379 2068 
Q 3634 1759 3634 1313 
Q 3634 634 3220 271 
Q 2806 -91 2034 -91 
Q 1263 -91 848 271 
Q 434 634 434 1313 
Q 434 1759 690 2068 
Q 947 2378 1403 2484 
z
M 1172 3481 
Q 1172 3119 1398 2916 
Q 1625 2713 2034 2713 
Q 2441 2713 2670 2916 
Q 2900 3119 2900 3481 
Q 2900 3844 2670 4047 
Q 2441 4250 2034 4250 
Q 1625 4250 1398 4047 
Q 1172 3844 1172 3481 
z
" transform="scale(0.015625)"/>
       </defs>
       <use xlink:href="#DejaVuSans-30"/>
       <use xlink:href="#DejaVuSans-2e" transform="translate(63.623047 0)"/>
       <use xlink:href="#DejaVuSans-38" transform="translate(95.410156 0)"/>
      </g>
     </g>
    </g>
    <g id="ytick_6">
     <g id="line2d_25">
      <path d="M 43.803125 32.618295 
L 568.8 32.618295 
" clip-path="url(#p9bd39f5c81)" style="fill: none; stroke-dasharray: 2.96,1.28; stroke-dashoffset: 0; stroke: #b0b0b0; stroke-opacity: 0.8; stroke-width: 0.8"/>
     </g>
     <g id="line2d_26">
      <g>
       <use xlink:href="#m394f787433" x="43.803125" y="32.618295" style="stroke: #000000; stroke-width: 0.8"/>
      </g>
     </g>
     <g id="text_14">
      <!-- 1.0 -->
      <g transform="translate(20.9 36.417514) scale(0.1 -0.1)">
       <use xlink:href="#DejaVuSans-31"/>
       <use xlink:href="#DejaVuSans-2e" transform="translate(63.623047 0)"/>
       <use xlink:href="#DejaVuSans-30" transform="translate(95.410156 0)"/>
      </g>
     </g>
    </g>
    <g id="text_15">
     <!-- Probability of detection, $P_d$ -->
     <g transform="translate(14.8 202.42) rotate(-90) scale(0.1 -0.1)">
      <defs>
       <path id="DejaVuSans-50" d="M 1259 4147 
L 1259 2394 
L 2053 2394 
Q 2494 2394 2734 2622 
Q 2975 2850 2975 3272 
Q 2975 3691 2734 3919 
Q 2494 4147 2053 4147 
L 1259 4147 
z
M 628 4666 
L 2053 4666 
Q 2838 4666 3239 4311 
Q 3641 3956 3641 3272 
Q 3641 2581 3239 2228 
Q 2838 1875 2053 1875 
L 1259 1875 
L 1259 0 
L 628 0 
L 628 4666 
z
" transform="scale(0.015625)"/>
       <path id="DejaVuSans-62" d="M 3116 1747 
Q 3116 2381 2855 2742 
Q 2594 3103 2138 3103 
Q 1681 3103 1420 2742 
Q 1159 2381 1159 1747 
Q 1159 1113 1420 752 
Q 1681 391 2138 391 
Q 2594 391 2855 752 
Q 3116 1113 3116 1747 
z
M 1159 2969 
Q 1341 3281 1617 3432 
Q 1894 3584 2278 3584 
Q 2916 3584 3314 3078 
Q 3713 2572 3713 1747 
Q 3713 922 3314 415 
Q 2916 -91 2278 -91 
Q 1894 -91 1617 61 
Q 1341 213 1159 525 
L 1159 0 
L 581 0 
L 581 4863 
L 1159 4863 
L 1159 2969 
z
" transform="scale(0.015625)"/>
       <path id="DejaVuSans-79" d="M 2059 -325 
Q 1816 -950 1584 -1140 
Q 1353 -1331 966 -1331 
L 506 -1331 
L 506 -850 
L 844 -850 
Q 1081 -850 1212 -737 
Q 1344 -625 1503 -206 
L 1606 56 
L 191 3500 
L 800 3500 
L 1894 763 
L 2988 3500 
L 3597 3500 
L 2059 -325 
z
" transform="scale(0.015625)"/>
       <path id="DejaVuSans-66" d="M 2375 4863 
L 2375 4384 
L 1825 4384 
Q 1516 4384 1395 4259 
Q 1275 4134 1275 3809 
L 1275 3500 
L 2222 3500 
L 2222 3053 
L 1275 3053 
L 1275 0 
L 697 0 
L 697 3053 
L 147 3053 
L 147 3500 
L 697 3500 
L 697 3744 
Q 697 4328 969 4595 
Q 1241 4863 1831 4863 
L 2375 4863 
z
" transform="scale(0.015625)"/>
       <path id="DejaVuSans-63" d="M 3122 3366 
L 3122 2828 
Q 2878 2963 2633 3030 
Q 2388 3097 2138 3097 
Q 1578 3097 1268 2742 
Q 959 2388 959 1747 
Q 959 1106 1268 751 
Q 1578 397 2138 397 
Q 2388 397 2633 464 
Q 2878 531 3122 666 
L 3122 134 
Q 2881 22 2623 -34 
Q 2366 -91 2075 -91 
Q 1284 -91 818 406 
Q 353 903 353 1747 
Q 353 2603 823 3093 
Q 1294 3584 2113 3584 
Q 2378 3584 2631 3529 
Q 2884 3475 3122 3366 
z
" transform="scale(0.015625)"/>
       <path id="DejaVuSans-Oblique-50" d="M 1081 4666 
L 2541 4666 
Q 3178 4666 3512 4369 
Q 3847 4072 3847 3500 
Q 3847 2731 3353 2303 
Q 2859 1875 1966 1875 
L 1172 1875 
L 806 0 
L 172 0 
L 1081 4666 
z
M 1613 4147 
L 1275 2394 
L 2069 2394 
Q 2606 2394 2893 2669 
Q 3181 2944 3181 3456 
Q 3181 3784 2986 3965 
Q 2791 4147 2438 4147 
L 1613 4147 
z
" transform="scale(0.015625)"/>
       <path id="DejaVuSans-Oblique-64" d="M 2675 525 
Q 2444 222 2128 65 
Q 1813 -91 1428 -91 
Q 903 -91 598 267 
Q 294 625 294 1247 
Q 294 1766 478 2236 
Q 663 2706 1013 3078 
Q 1244 3325 1534 3454 
Q 1825 3584 2144 3584 
Q 2481 3584 2739 3421 
Q 2997 3259 3138 2956 
L 3513 4863 
L 4091 4863 
L 3144 0 
L 2566 0 
L 2675 525 
z
M 891 1350 
Q 891 897 1095 644 
Q 1300 391 1663 391 
Q 1931 391 2161 520 
Q 2391 650 2566 903 
Q 2750 1166 2856 1509 
Q 2963 1853 2963 2188 
Q 2963 2622 2758 2865 
Q 2553 3109 2194 3109 
Q 1922 3109 1687 2981 
Q 1453 2853 1288 2613 
Q 1106 2353 998 2009 
Q 891 1666 891 1350 
z
" transform="scale(0.015625)"/>
      </defs>
      <use xlink:href="#DejaVuSans-50" transform="translate(0 0.015625)"/>
      <use xlink:href="#DejaVuSans-72" transform="translate(60.302734 0.015625)"/>
      <use xlink:href="#DejaVuSans-6f" transform="translate(101.416016 0.015625)"/>
      <use xlink:href="#DejaVuSans-62" transform="translate(162.597656 0.015625)"/>
      <use xlink:href="#DejaVuSans-61" transform="translate(226.074219 0.015625)"/>
      <use xlink:href="#DejaVuSans-62" transform="translate(287.353516 0.015625)"/>
      <use xlink:href="#DejaVuSans-69" transform="translate(350.830078 0.015625)"/>
      <use xlink:href="#DejaVuSans-6c" transform="translate(378.613281 0.015625)"/>
      <use xlink:href="#DejaVuSans-69" transform="translate(406.396484 0.015625)"/>
      <use xlink:href="#DejaVuSans-74" transform="translate(434.179688 0.015625)"/>
      <use xlink:href="#DejaVuSans-79" transform="translate(473.388672 0.015625)"/>
      <use xlink:href="#DejaVuSans-20" transform="translate(532.568359 0.015625)"/>
      <use xlink:href="#DejaVuSans-6f" transform="translate(564.355469 0.015625)"/>
      <use xlink:href="#DejaVuSans-66" transform="translate(625.537109 0.015625)"/>
      <use xlink:href="#DejaVuSans-20" transform="translate(660.742188 0.015625)"/>
      <use xlink:href="#DejaVuSans-64" transform="translate(692.529297 0.015625)"/>
      <use xlink:href="#DejaVuSans-65" transform="translate(756.005859 0.015625)"/>
      <use xlink:href="#DejaVuSans-74" transform="translate(817.529297 0.015625)"/>
      <use xlink:href="#DejaVuSans-65" transform="translate(856.738281 0.015625)"/>
      <use xlink:href="#DejaVuSans-63" transform="translate(918.261719 0.015625)"/>
      <use xlink:href="#DejaVuSans-74" transform="translate(973.242188 0.015625)"/>
      <use xlink:href="#DejaVuSans-69" transform="translate(1012.451172 0.015625)"/>
      <use xlink:href="#DejaVuSans-6f" transform="translate(1040.234375 0.015625)"/>
      <use xlink:href="#DejaVuSans-6e" transform="translate(1101.416016 0.015625)"/>
      <use xlink:href="#DejaVuSans-2c" transform="translate(1164.794922 0.015625)"/>
      <use xlink:href="#DejaVuSans-20" transform="translate(1196.582031 0.015625)"/>
      <use xlink:href="#DejaVuSans-Oblique-50" transform="translate(1228.369141 0.015625)"/>
      <use xlink:href="#DejaVuSans-Oblique-64" transform="translate(1288.671875 -16.390625) scale(0.7)"/>
     </g>
    </g>
   </g>
   <g id="line2d_27">
    <path d="M 67.666619 216.014525 
L 72.439318 215.866675 
L 77.212017 215.707641 
L 81.984716 215.536533 
L 86.757415 215.352384 
L 91.530114 215.154145 
L 96.302813 214.940674 
L 101.075511 214.710727 
L 105.84821 214.462949 
L 110.620909 214.195866 
L 115.393608 213.907864 
L 120.166307 213.597185 
L 124.939006 213.261908 
L 129.711705 212.89993 
L 134.484403 212.508952 
L 139.257102 212.086452 
L 144.029801 211.629672 
L 148.8025 211.135582 
L 153.575199 210.600861 
L 158.347898 210.021861 
L 163.120597 209.394575 
L 167.893295 208.714603 
L 172.665994 207.977105 
L 177.438693 207.176767 
L 182.211392 206.307746 
L 186.984091 205.363623 
L 191.75679 204.337353 
L 196.529489 203.221206 
L 201.302188 202.006712 
L 206.074886 200.684605 
L 210.847585 199.244769 
L 215.620284 197.67619 
L 220.392983 195.96691 
L 225.165682 194.104006 
L 229.938381 192.073575 
L 234.71108 189.860753 
L 239.483778 187.449771 
L 244.256477 184.824054 
L 249.029176 181.966382 
L 253.801875 178.859132 
L 258.574574 175.48461 
L 263.347273 171.825496 
L 268.119972 167.865421 
L 272.89267 163.589698 
L 277.665369 158.986206 
L 282.438068 154.046443 
L 287.210767 148.766746 
L 291.983466 143.149632 
L 296.756165 137.205234 
L 301.528864 130.95275 
L 306.301563 124.421775 
L 311.074261 117.653411 
L 315.84696 110.70094 
L 320.619659 103.629898 
L 325.392358 96.517346 
L 330.165057 89.450171 
L 334.937756 82.522334 
L 339.710455 75.83106 
L 344.483153 69.472122 
L 349.255852 63.534524 
L 354.028551 58.095046 
L 358.80125 53.213225 
L 363.573949 48.92739 
L 368.346648 45.252313 
L 373.119347 42.178864 
L 377.892045 39.675786 
L 382.664744 37.693413 
L 387.437443 36.168825 
L 392.210142 35.031732 
L 396.982841 34.210313 
L 401.75554 33.636268 
L 406.528239 33.248595 
L 411.300938 32.99584 
L 416.073636 32.83689 
L 420.846335 32.740544 
L 425.619034 32.684292 
L 430.391733 32.652672 
L 435.164432 32.635567 
L 439.937131 32.626663 
L 444.70983 32.622205 
L 449.482528 32.620056 
L 454.255227 32.61906 
L 459.027926 32.618616 
L 463.800625 32.618425 
L 468.573324 32.618346 
L 473.346023 32.618315 
L 478.118722 32.618302 
L 482.89142 32.618298 
L 487.664119 32.618296 
L 492.436818 32.618296 
L 497.209517 32.618296 
L 501.982216 32.618295 
L 506.754915 32.618295 
L 511.527614 32.618295 
L 516.300313 32.618295 
L 521.073011 32.618295 
L 525.84571 32.618295 
L 530.618409 32.618295 
L 535.391108 32.618295 
L 540.163807 32.618295 
L 544.936506 32.618295 
" clip-path="url(#p9bd39f5c81)" style="fill: none; stroke: #1f77b4; stroke-linecap: square"/>
   </g>
   <g id="line2d_28">
    <path d="M 67.666619 236.22769 
L 72.439318 236.202062 
L 77.212017 236.174365 
L 81.984716 236.144415 
L 86.757415 236.112008 
L 91.530114 236.07692 
L 96.302813 236.038902 
L 101.075511 235.997679 
L 105.84821 235.952945 
L 110.620909 235.904361 
L 115.393608 235.851548 
L 120.166307 235.794084 
L 124.939006 235.731496 
L 129.711705 235.663257 
L 134.484403 235.588773 
L 139.257102 235.507377 
L 144.029801 235.418317 
L 148.8025 235.320743 
L 153.575199 235.213697 
L 158.347898 235.096089 
L 163.120597 234.966681 
L 167.893295 234.824067 
L 172.665994 234.666638 
L 177.438693 234.492559 
L 182.211392 234.299726 
L 186.984091 234.085725 
L 191.75679 233.847779 
L 196.529489 233.582692 
L 201.302188 233.286775 
L 206.074886 232.955766 
L 210.847585 232.584732 
L 215.620284 232.16796 
L 220.392983 231.698825 
L 225.165682 231.16964 
L 229.938381 230.571483 
L 234.71108 229.893995 
L 239.483778 229.125164 
L 244.256477 228.251064 
L 249.029176 227.255583 
L 253.801875 226.120121 
L 258.574574 224.823278 
L 263.347273 223.340529 
L 268.119972 221.643924 
L 272.89267 219.701828 
L 277.665369 217.478739 
L 282.438068 214.935246 
L 287.210767 212.028189 
L 291.983466 208.711098 
L 296.756165 204.935037 
L 301.528864 200.649928 
L 306.301563 195.806497 
L 311.074261 190.358931 
L 315.84696 184.268288 
L 320.619659 177.506691 
L 325.392358 170.062141 
L 330.165057 161.943729 
L 334.937756 153.18679 
L 339.710455 143.857384 
L 344.483153 134.055327 
L 349.255852 123.914907 
L 354.028551 113.602493 
L 358.80125 103.310441 
L 363.573949 93.247186 
L 368.346648 83.623989 
L 373.119347 74.639525 
L 377.892045 66.464131 
L 382.664744 59.225915 
L 387.437443 53.00089 
L 392.210142 47.808802 
L 396.982841 43.615368 
L 401.75554 40.340475 
L 406.528239 37.870804 
L 411.300938 36.074582 
L 416.073636 34.816015 
L 420.846335 33.967303 
L 425.619034 33.416942 
L 430.391733 33.07399 
L 435.164432 32.868744 
L 439.937131 32.75082 
L 444.70983 32.685792 
L 449.482528 32.651379 
L 454.255227 32.633902 
L 459.027926 32.625381 
L 463.800625 32.621393 
L 468.573324 32.619599 
L 473.346023 32.618824 
L 478.118722 32.618502 
L 482.89142 32.618374 
L 487.664119 32.618324 
L 492.436818 32.618305 
L 497.209517 32.618299 
L 501.982216 32.618297 
L 506.754915 32.618296 
L 511.527614 32.618296 
L 516.300313 32.618295 
L 521.073011 32.618295 
L 525.84571 32.618295 
L 530.618409 32.618295 
L 535.391108 32.618295 
L 540.163807 32.618295 
L 544.936506 32.618295 
" clip-path="url(#p9bd39f5c81)" style="fill: none; stroke: #ff7f0e; stroke-linecap: square"/>
   </g>
   <g id="line2d_29">
    <path d="M 67.666619 238.372674 
L 72.439318 238.369094 
L 77.212017 238.365211 
L 81.984716 238.360995 
L 86.757415 238.356413 
L 91.530114 238.351428 
L 96.302813 238.346001 
L 101.075511 238.340084 
L 105.84821 238.333627 
L 110.620909 238.326571 
L 115.393608 238.31885 
L 120.166307 238.310392 
L 124.939006 238.30111 
L 129.711705 238.290909 
L 134.484403 238.279679 
L 139.257102 238.267296 
L 144.029801 238.253615 
L 148.8025 238.23847 
L 153.575199 238.221671 
L 158.347898 238.202996 
L 163.120597 238.182187 
L 167.893295 238.158947 
L 172.665994 238.132923 
L 177.438693 238.103708 
L 182.211392 238.070817 
L 186.984091 238.033681 
L 191.75679 237.991628 
L 196.529489 237.943857 
L 201.302188 237.889415 
L 206.074886 237.827162 
L 210.847585 237.755734 
L 215.620284 237.67349 
L 220.392983 237.578448 
L 225.165682 237.468217 
L 229.938381 237.339892 
L 234.71108 237.189946 
L 239.483778 237.014083 
L 244.256477 236.80706 
L 249.029176 236.562469 
L 253.801875 236.27247 
L 258.574574 235.927471 
L 263.347273 235.515726 
L 268.119972 235.022875 
L 272.89267 234.431379 
L 277.665369 233.719881 
L 282.438068 232.862461 
L 287.210767 231.827826 
L 291.983466 230.578441 
L 296.756165 229.069662 
L 301.528864 227.248949 
L 306.301563 225.055297 
L 311.074261 222.419046 
L 315.84696 219.262318 
L 320.619659 215.500357 
L 325.392358 211.044108 
L 330.165057 205.804358 
L 334.937756 199.697695 
L 339.710455 192.654402 
L 344.483153 184.628103 
L 349.255852 175.606621 
L 354.028551 165.622968 
L 358.80125 154.764932 
L 363.573949 143.181277 
L 368.346648 131.08249 
L 373.119347 118.7343 
L 377.892045 106.443103 
L 382.664744 94.533778 
L 387.437443 83.322101 
L 392.210142 73.085484 
L 396.982841 64.03676 
L 401.75554 56.305609 
L 406.528239 49.931026 
L 411.300938 44.865943 
L 416.073636 40.99265 
L 420.846335 38.145395 
L 425.619034 36.13546 
L 430.391733 34.774101 
L 435.164432 33.890017 
L 439.937131 33.339832 
L 444.70983 33.011845 
L 449.482528 32.824586 
L 454.255227 32.722199 
L 459.027926 32.668583 
L 463.800625 32.641686 
L 468.573324 32.628754 
L 473.346023 32.622793 
L 478.118722 32.620157 
L 482.89142 32.619037 
L 487.664119 32.61858 
L 492.436818 32.618401 
L 497.209517 32.618333 
L 501.982216 32.618308 
L 506.754915 32.6183 
L 511.527614 32.618297 
L 516.300313 32.618296 
L 521.073011 32.618296 
L 525.84571 32.618295 
L 530.618409 32.618295 
L 535.391108 32.618295 
L 540.163807 32.618295 
L 544.936506 32.618295 
" clip-path="url(#p9bd39f5c81)" style="fill: none; stroke: #2ca02c; stroke-linecap: square"/>
   </g>
   <g id="line2d_30">
    <path d="M 67.666619 238.598127 
L 72.439318 238.597669 
L 77.212017 238.59717 
L 81.984716 238.596627 
L 86.757415 238.596034 
L 91.530114 238.595386 
L 96.302813 238.594678 
L 101.075511 238.593902 
L 105.84821 238.593051 
L 110.620909 238.592116 
L 115.393608 238.591087 
L 120.166307 238.589953 
L 124.939006 238.5887 
L 129.711705 238.587313 
L 134.484403 238.585775 
L 139.257102 238.584065 
L 144.029801 238.58216 
L 148.8025 238.580032 
L 153.575199 238.577648 
L 158.347898 238.574969 
L 163.120597 238.571952 
L 167.893295 238.568542 
L 172.665994 238.564674 
L 177.438693 238.560274 
L 182.211392 238.555249 
L 186.984091 238.549487 
L 191.75679 238.542857 
L 196.529489 238.535193 
L 201.302188 238.526298 
L 206.074886 238.515926 
L 210.847585 238.503778 
L 215.620284 238.489478 
L 220.392983 238.472566 
L 225.165682 238.45246 
L 229.938381 238.428435 
L 234.71108 238.399576 
L 239.483778 238.364726 
L 244.256477 238.322416 
L 249.029176 238.270775 
L 253.801875 238.207409 
L 258.574574 238.129252 
L 263.347273 238.03236 
L 268.119972 237.911656 
L 272.89267 237.760591 
L 277.665369 237.570713 
L 282.438068 237.331121 
L 287.210767 237.027763 
L 291.983466 236.642577 
L 296.756165 236.152427 
L 301.528864 235.527828 
L 306.301563 234.731474 
L 311.074261 233.716579 
L 315.84696 232.425145 
L 320.619659 230.786306 
L 325.392358 228.71501 
L 330.165057 226.111442 
L 334.937756 222.861703 
L 339.710455 218.840405 
L 344.483153 213.915868 
L 349.255852 207.958568 
L 354.028551 200.853192 
L 358.80125 192.514128 
L 363.573949 182.903417 
L 368.346648 172.049164 
L 373.119347 160.06137 
L 377.892045 147.141441 
L 382.664744 133.581581 
L 387.437443 119.751282 
L 392.210142 106.07025 
L 396.982841 92.970059 
L 401.75554 80.849931 
L 406.528239 70.034278 
L 411.300938 60.740062 
L 416.073636 53.060358 
L 420.846335 46.966814 
L 425.619034 42.329362 
L 430.391733 38.947656 
L 435.164432 36.586763 
L 439.937131 35.009826 
L 444.70983 34.002572 
L 449.482528 33.387513 
L 454.255227 33.028521 
L 459.027926 32.828231 
L 463.800625 32.721396 
L 468.573324 32.666895 
L 473.346023 32.640292 
L 478.118722 32.627859 
L 482.89142 32.622293 
L 487.664119 32.619902 
L 492.436818 32.618917 
L 497.209517 32.618527 
L 501.982216 32.618379 
L 506.754915 32.618324 
L 511.527614 32.618305 
L 516.300313 32.618299 
L 521.073011 32.618296 
L 525.84571 32.618296 
L 530.618409 32.618296 
L 535.391108 32.618295 
L 540.163807 32.618295 
L 544.936506 32.618295 
" clip-path="url(#p9bd39f5c81)" style="fill: none; stroke: #d62728; stroke-linecap: square"/>
   </g>
   <g id="line2d_31">
    <path d="M 67.666619 238.621705 
L 72.439318 238.621649 
L 77.212017 238.621588 
L 81.984716 238.621521 
L 86.757415 238.621448 
L 91.530114 238.621368 
L 96.302813 238.62128 
L 101.075511 238.621183 
L 105.84821 238.621076 
L 110.620909 238.620958 
L 115.393608 238.620828 
L 120.166307 238.620684 
L 124.939006 238.620523 
L 129.711705 238.620344 
L 134.484403 238.620144 
L 139.257102 238.619921 
L 144.029801 238.619669 
L 148.8025 238.619386 
L 153.575199 238.619066 
L 158.347898 238.618703 
L 163.120597 238.61829 
L 167.893295 238.617818 
L 172.665994 238.617277 
L 177.438693 238.616653 
L 182.211392 238.615931 
L 186.984091 238.615092 
L 191.75679 238.614111 
L 196.529489 238.61296 
L 201.302188 238.6116 
L 206.074886 238.609987 
L 210.847585 238.60806 
L 215.620284 238.605747 
L 220.392983 238.602951 
L 225.165682 238.599551 
L 229.938381 238.595389 
L 234.71108 238.590261 
L 239.483778 238.5839 
L 244.256477 238.575954 
L 249.029176 238.565961 
L 253.801875 238.553305 
L 258.574574 238.537166 
L 263.347273 238.516446 
L 268.119972 238.489666 
L 272.89267 238.45483 
L 277.665369 238.409234 
L 282.438068 238.349209 
L 287.210767 238.269766 
L 291.983466 238.164117 
L 296.756165 238.023037 
L 301.528864 237.834007 
L 306.301563 237.580095 
L 311.074261 237.238518 
L 315.84696 236.77883 
L 320.619659 236.160717 
L 325.392358 235.331421 
L 330.165057 234.222906 
L 334.937756 232.749024 
L 339.710455 230.803116 
L 344.483153 228.256756 
L 349.255852 224.96057 
L 354.028551 220.748327 
L 358.80125 215.44551 
L 363.573949 208.883378 
L 368.346648 200.918828 
L 373.119347 191.459176 
L 377.892045 180.489295 
L 382.664744 168.096751 
L 387.437443 154.489108 
L 392.210142 139.997279 
L 396.982841 125.060183 
L 401.75554 110.189321 
L 406.528239 95.916666 
L 411.300938 82.734128 
L 416.073636 71.036238 
L 420.846335 61.077907 
L 425.619034 52.955869 
L 430.391733 46.616471 
L 435.164432 41.885829 
L 439.937131 38.513375 
L 444.70983 36.217898 
L 449.482528 34.726724 
L 454.255227 33.802413 
L 459.027926 33.255738 
L 463.800625 32.947194 
L 468.573324 32.780962 
L 473.346023 32.695433 
L 478.118722 32.653383 
L 482.89142 32.633613 
L 487.664119 32.624718 
L 492.436818 32.620884 
L 497.209517 32.619299 
L 501.982216 32.61867 
L 506.754915 32.61843 
L 511.527614 32.618342 
L 516.300313 32.618311 
L 521.073011 32.618301 
L 525.84571 32.618297 
L 530.618409 32.618296 
L 535.391108 32.618296 
L 540.163807 32.618295 
L 544.936506 32.618295 
" clip-path="url(#p9bd39f5c81)" style="fill: none; stroke: #9467bd; stroke-linecap: square"/>
   </g>
   <g id="patch_3">
    <path d="M 43.803125 248.921875 
L 43.803125 22.318125 
" style="fill: none; stroke: #000000; stroke-width: 0.8; stroke-linejoin: miter; stroke-linecap: square"/>
   </g>
   <g id="patch_4">
    <path d="M 568.8 248.921875 
L 568.8 22.318125 
" style="fill: none; stroke: #000000; stroke-width: 0.8; stroke-linejoin: miter; stroke-linecap: square"/>
   </g>
   <g id="patch_5">
    <path d="M 43.803125 248.921875 
L 568.8 248.921875 
" style="fill: none; stroke: #000000; stroke-width: 0.8; stroke-linejoin: miter; stroke-linecap: square"/>
   </g>
   <g id="patch_6">
    <path d="M 43.803125 22.318125 
L 568.8 22.318125 
" style="fill: none; stroke: #000000; stroke-width: 0.8; stroke-linejoin: miter; stroke-linecap: square"/>
   </g>
   <g id="text_16">
    <!-- Detection performance -->
    <g transform="translate(236.819688 16.318125) scale(0.12 -0.12)">
     <defs>
      <path id="DejaVuSans-44" d="M 1259 4147 
L 1259 519 
L 2022 519 
Q 2988 519 3436 956 
Q 3884 1394 3884 2338 
Q 3884 3275 3436 3711 
Q 2988 4147 2022 4147 
L 1259 4147 
z
M 628 4666 
L 1925 4666 
Q 3281 4666 3915 4102 
Q 4550 3538 4550 2338 
Q 4550 1131 3912 565 
Q 3275 0 1925 0 
L 628 0 
L 628 4666 
z
" transform="scale(0.015625)"/>
      <path id="DejaVuSans-70" d="M 1159 525 
L 1159 -1331 
L 581 -1331 
L 581 3500 
L 1159 3500 
L 1159 2969 
Q 1341 3281 1617 3432 
Q 1894 3584 2278 3584 
Q 2916 3584 3314 3078 
Q 3713 2572 3713 1747 
Q 3713 922 3314 415 
Q 2916 -91 2278 -91 
Q 1894 -91 1617 61 
Q 1341 213 1159 525 
z
M 3116 1747 
Q 3116 2381 2855 2742 
Q 2594 3103 2138 3103 
Q 1681 3103 1420 2742 
Q 1159 2381 1159 1747 
Q 1159 1113 1420 752 
Q 1681 391 2138 391 
Q 2594 391 2855 752 
Q 3116 1113 3116 1747 
z
" transform="scale(0.015625)"/>
      <path id="DejaVuSans-6d" d="M 3328 2828 
Q 3544 3216 3844 3400 
Q 4144 3584 4550 3584 
Q 5097 3584 5394 3201 
Q 5691 2819 5691 2113 
L 5691 0 
L 5113 0 
L 5113 2094 
Q 5113 2597 4934 2840 
Q 4756 3084 4391 3084 
Q 3944 3084 3684 2787 
Q 3425 2491 3425 1978 
L 3425 0 
L 2847 0 
L 2847 2094 
Q 2847 2600 2669 2842 
Q 2491 3084 2119 3084 
Q 1678 3084 1418 2786 
Q 1159 2488 1159 1978 
L 1159 0 
L 581 0 
L 581 3500 
L 1159 3500 
L 1159 2956 
Q 1356 3278 1631 3431 
Q 1906 3584 2284 3584 
Q 2666 3584 2933 3390 
Q 3200 3197 3328 2828 
z
" transform="scale(0.015625)"/>
     </defs>
     <use xlink:href="#DejaVuSans-44"/>
     <use xlink:href="#DejaVuSans-65" transform="translate(77.001953 0)"/>
     <use xlink:href="#DejaVuSans-74" transform="translate(138.525391 0)"/>
     <use xlink:href="#DejaVuSans-65" transform="translate(177.734375 0)"/>
     <use xlink:href="#DejaVuSans-63" transform="translate(239.257812 0)"/>
     <use xlink:href="#DejaVuSans-74" transform="translate(294.238281 0)"/>
     <use xlink:href="#DejaVuSans-69" transform="translate(333.447266 0)"/>
     <use xlink:href="#DejaVuSans-6f" transform="translate(361.230469 0)"/>
     <use xlink:href="#DejaVuSans-6e" transform="translate(422.412109 0)"/>
     <use xlink:href="#DejaVuSans-20" transform="translate(485.791016 0)"/>
     <use xlink:href="#DejaVuSans-70" transform="translate(517.578125 0)"/>
     <use xlink:href="#DejaVuSans-65" transform="translate(581.054688 0)"/>
     <use xlink:href="#DejaVuSans-72" transform="translate(642.578125 0)"/>
     <use xlink:href="#DejaVuSans-66" transform="translate(683.691406 0)"/>
     <use xlink:href="#DejaVuSans-6f" transform="translate(718.896484 0)"/>
     <use xlink:href="#DejaVuSans-72" transform="translate(780.078125 0)"/>
     <use xlink:href="#DejaVuSans-6d" transform="translate(819.441406 0)"/>
     <use xlink:href="#DejaVuSans-61" transform="translate(916.853516 0)"/>
     <use xlink:href="#DejaVuSans-6e" transform="translate(978.132812 0)"/>
     <use xlink:href="#DejaVuSans-63" transform="translate(1041.511719 0)"/>
     <use xlink:href="#DejaVuSans-65" transform="translate(1096.492188 0)"/>
    </g>
   </g>
   <g id="legend_1">
    <g id="patch_7">
     <path d="M 50.803125 109.518125 
L 131.603125 109.518125 
Q 133.603125 109.518125 133.603125 107.518125 
L 133.603125 29.318125 
Q 133.603125 27.318125 131.603125 27.318125 
L 50.803125 27.318125 
Q 48.803125 27.318125 48.803125 29.318125 
L 48.803125 107.518125 
Q 48.803125 109.518125 50.803125 109.518125 
z
" style="fill: #ffffff; opacity: 0.8; stroke: #cccccc; stroke-linejoin: miter"/>
    </g>
    <g id="line2d_32">
     <path d="M 52.803125 36.538437 
L 62.803125 36.538437 
L 72.803125 36.538437 
" style="fill: none; stroke: #1f77b4; stroke-linecap: square"/>
    </g>
    <g id="text_17">
     <!-- $P_{fa} = 10^{-1}$ -->
     <g transform="translate(80.803125 40.038437) scale(0.1 -0.1)">
      <defs>
       <path id="DejaVuSans-Oblique-66" d="M 3059 4863 
L 2969 4384 
L 2419 4384 
Q 2106 4384 1964 4261 
Q 1822 4138 1753 3809 
L 1691 3500 
L 2638 3500 
L 2553 3053 
L 1606 3053 
L 1013 0 
L 434 0 
L 1031 3053 
L 481 3053 
L 563 3500 
L 1113 3500 
L 1159 3744 
Q 1278 4363 1576 4613 
Q 1875 4863 2516 4863 
L 3059 4863 
z
" transform="scale(0.015625)"/>
       <path id="DejaVuSans-Oblique-61" d="M 3438 1997 
L 3047 0 
L 2472 0 
L 2578 531 
Q 2325 219 2001 64 
Q 1678 -91 1281 -91 
Q 834 -91 548 182 
Q 263 456 263 884 
Q 263 1497 752 1853 
Q 1241 2209 2100 2209 
L 2900 2209 
L 2931 2363 
Q 2938 2388 2941 2417 
Q 2944 2447 2944 2509 
Q 2944 2788 2717 2942 
Q 2491 3097 2081 3097 
Q 1800 3097 1504 3025 
Q 1209 2953 897 2809 
L 997 3341 
Q 1322 3463 1633 3523 
Q 1944 3584 2234 3584 
Q 2853 3584 3176 3315 
Q 3500 3047 3500 2534 
Q 3500 2431 3484 2292 
Q 3469 2153 3438 1997 
z
M 2816 1759 
L 2241 1759 
Q 1534 1759 1195 1570 
Q 856 1381 856 984 
Q 856 709 1029 553 
Q 1203 397 1509 397 
Q 1978 397 2328 733 
Q 2678 1069 2791 1631 
L 2816 1759 
z
" transform="scale(0.015625)"/>
       <path id="DejaVuSans-3d" d="M 678 2906 
L 4684 2906 
L 4684 2381 
L 678 2381 
L 678 2906 
z
M 678 1631 
L 4684 1631 
L 4684 1100 
L 678 1100 
L 678 1631 
z
" transform="scale(0.015625)"/>
      </defs>
      <use xlink:href="#DejaVuSans-Oblique-50" transform="translate(0 0.684375)"/>
      <use xlink:href="#DejaVuSans-Oblique-66" transform="translate(60.302734 -15.721875) scale(0.7)"/>
      <use xlink:href="#DejaVuSans-Oblique-61" transform="translate(84.946289 -15.721875) scale(0.7)"/>
      <use xlink:href="#DejaVuSans-3d" transform="translate(150.058594 0.684375)"/>
      <use xlink:href="#DejaVuSans-31" transform="translate(253.330078 0.684375)"/>
      <use xlink:href="#DejaVuSans-30" transform="translate(316.953125 0.684375)"/>
      <use xlink:href="#DejaVuSans-2212" transform="translate(381.533203 38.965625) scale(0.7)"/>
      <use xlink:href="#DejaVuSans-31" transform="translate(440.185547 38.965625) scale(0.7)"/>
     </g>
    </g>
    <g id="line2d_33">
     <path d="M 52.803125 52.438437 
L 62.803125 52.438437 
L 72.803125 52.438437 
" style="fill: none; stroke: #ff7f0e; stroke-linecap: square"/>
    </g>
    <g id="text_18">
     <!-- $P_{fa} = 10^{-2}$ -->
     <g transform="translate(80.803125 55.938437) scale(0.1 -0.1)">
      <use xlink:href="#DejaVuSans-Oblique-50" transform="translate(0 0.765625)"/>
      <use xlink:href="#DejaVuSans-Oblique-66" transform="translate(60.302734 -15.640625) scale(0.7)"/>
      <use xlink:href="#DejaVuSans-Oblique-61" transform="translate(84.946289 -15.640625) scale(0.7)"/>
      <use xlink:href="#DejaVuSans-3d" transform="translate(150.058594 0.765625)"/>
      <use xlink:href="#DejaVuSans-31" transform="translate(253.330078 0.765625)"/>
      <use xlink:href="#DejaVuSans-30" transform="translate(316.953125 0.765625)"/>
      <use xlink:href="#DejaVuSans-2212" transform="translate(381.533203 39.046875) scale(0.7)"/>
      <use xlink:href="#DejaVuSans-32" transform="translate(440.185547 39.046875) scale(0.7)"/>
     </g>
    </g>
    <g id="line2d_34">
     <path d="M 52.803125 68.338437 
L 62.803125 68.338437 
L 72.803125 68.338437 
" style="fill: none; stroke: #2ca02c; stroke-linecap: square"/>
    </g>
    <g id="text_19">
     <!-- $P_{fa} = 10^{-3}$ -->
     <g transform="translate(80.803125 71.838437) scale(0.1 -0.1)">
      <defs>
       <path id="DejaVuSans-33" d="M 2597 2516 
Q 3050 2419 3304 2112 
Q 3559 1806 3559 1356 
Q 3559 666 3084 287 
Q 2609 -91 1734 -91 
Q 1441 -91 1130 -33 
Q 819 25 488 141 
L 488 750 
Q 750 597 1062 519 
Q 1375 441 1716 441 
Q 2309 441 2620 675 
Q 2931 909 2931 1356 
Q 2931 1769 2642 2001 
Q 2353 2234 1838 2234 
L 1294 2234 
L 1294 2753 
L 1863 2753 
Q 2328 2753 2575 2939 
Q 2822 3125 2822 3475 
Q 2822 3834 2567 4026 
Q 2313 4219 1838 4219 
Q 1578 4219 1281 4162 
Q 984 4106 628 3988 
L 628 4550 
Q 988 4650 1302 4700 
Q 1616 4750 1894 4750 
Q 2613 4750 3031 4423 
Q 3450 4097 3450 3541 
Q 3450 3153 3228 2886 
Q 3006 2619 2597 2516 
z
" transform="scale(0.015625)"/>
      </defs>
      <use xlink:href="#DejaVuSans-Oblique-50" transform="translate(0 0.765625)"/>
      <use xlink:href="#DejaVuSans-Oblique-66" transform="translate(60.302734 -15.640625) scale(0.7)"/>
      <use xlink:href="#DejaVuSans-Oblique-61" transform="translate(84.946289 -15.640625) scale(0.7)"/>
      <use xlink:href="#DejaVuSans-3d" transform="translate(150.058594 0.765625)"/>
      <use xlink:href="#DejaVuSans-31" transform="translate(253.330078 0.765625)"/>
      <use xlink:href="#DejaVuSans-30" transform="translate(316.953125 0.765625)"/>
      <use xlink:href="#DejaVuSans-2212" transform="translate(381.533203 39.046875) scale(0.7)"/>
      <use xlink:href="#DejaVuSans-33" transform="translate(440.185547 39.046875) scale(0.7)"/>
     </g>
    </g>
    <g id="line2d_35">
     <path d="M 52.803125 84.138437 
L 62.803125 84.138437 
L 72.803125 84.138437 
" style="fill: none; stroke: #d62728; stroke-linecap: square"/>
    </g>
    <g id="text_20">
     <!-- $P_{fa} = 10^{-4}$ -->
     <g transform="translate(80.803125 87.638437) scale(0.1 -0.1)">
      <use xlink:href="#DejaVuSans-Oblique-50" transform="translate(0 0.684375)"/>
      <use xlink:href="#DejaVuSans-Oblique-66" transform="translate(60.302734 -15.721875) scale(0.7)"/>
      <use xlink:href="#DejaVuSans-Oblique-61" transform="translate(84.946289 -15.721875) scale(0.7)"/>
      <use xlink:href="#DejaVuSans-3d" transform="translate(150.058594 0.684375)"/>
      <use xlink:href="#DejaVuSans-31" transform="translate(253.330078 0.684375)"/>
      <use xlink:href="#DejaVuSans-30" transform="translate(316.953125 0.684375)"/>
      <use xlink:href="#DejaVuSans-2212" transform="translate(381.533203 38.965625) scale(0.7)"/>
      <use xlink:href="#DejaVuSans-34" transform="translate(440.185547 38.965625) scale(0.7)"/>
     </g>
    </g>
    <g id="line2d_36">
     <path d="M 52.803125 99.938437 
L 62.803125 99.938437 
L 72.803125 99.938437 
" style="fill: none; stroke: #9467bd; stroke-linecap: square"/>
    </g>
    <g id="text_21">
     <!-- $P_{fa} = 10^{-5}$ -->
     <g transform="translate(80.803125 103.438437) scale(0.1 -0.1)">
      <use xlink:href="#DejaVuSans-Oblique-50" transform="translate(0 0.684375)"/>
      <use xlink:href="#DejaVuSans-Oblique-66" transform="translate(60.302734 -15.721875) scale(0.7)"/>
      <use xlink:href="#DejaVuSans-Oblique-61" transform="translate(84.946289 -15.721875) scale(0.7)"/>
      <use xlink:href="#DejaVuSans-3d" transform="translate(150.058594 0.684375)"/>
      <use xlink:href="#DejaVuSans-31" transform="translate(253.330078 0.684375)"/>
      <use xlink:href="#DejaVuSans-30" transform="translate(316.953125 0.684375)"/>
      <use xlink:href="#DejaVuSans-2212" transform="translate(381.533203 38.965625) scale(0.7)"/>
      <use xlink:href="#DejaVuSans-35" transform="translate(440.185547 38.965625) scale(0.7)"/>
     </g>
    </g>
   </g>
  </g>
 </g>
 <defs>
  <clipPath id="p9bd39f5c81">
   <rect x="43.803125" y="22.318125" width="524.996875" height="226.60375"/>
  </clipPath>
 </defs>
</svg>
