<?xml version="1.0" encoding="utf-8" standalone="no"?>
<!DOCTYPE svg PUBLIC "-//W3C//DTD SVG 1.1//EN"
  "http://www.w3.org/Graphics/SVG/1.1/DTD/svg11.dtd">
<svg xmlns:xlink="http://www.w3.org/1999/xlink" width="576pt" height="288pt" viewBox="0 0 576 288" xmlns="http://www.w3.org/2000/svg" version="1.1">
 <metadata>
  <rdf:RDF xmlns:dc="http://purl.org/dc/elements/1.1/" xmlns:cc="http://creativecommons.org/ns#" xmlns:rdf="http://www.w3.org/1999/02/22-rdf-syntax-ns#">
   <cc:Work>
    <dc:type rdf:resource="http://purl.org/dc/dcmitype/StillImage"/>
    <dc:date>2025-05-12T21:37:53.836061</dc:date>
    <dc:format>image/svg+xml</dc:format>
    <dc:creator>
     <cc:Agent>
      <dc:title>Matplotlib v3.10.3, https://matplotlib.org/</dc:title>
     </cc:Agent>
    </dc:creator>
   </cc:Work>
  </rdf:RDF>
 </metadata>
 <defs>
  <style type="text/css">*{stroke-linejoin: round; stroke-linecap: butt}</style>
 </defs>
 <g id="figure_1">
  <g id="patch_1">
   <path d="M 0 288 
L 576 288 
L 576 0 
L 0 0 
z
" style="fill: #ffffff"/>
  </g>
  <g id="axes_1">
   <g id="patch_2">
    <path d="M 48.982813 250.421875 
L 568.8 250.421875 
L 568.8 22.32 
L 48.982813 22.32 
z
" style="fill: #ffffff"/>
   </g>
   <g id="matplotlib.axis_1">
    <g id="xtick_1">
     <g id="line2d_1">
      <path d="M 72.610866 250.421875 
L 72.610866 22.32 
" clip-path="url(#p6e2b626351)" style="fill: none; stroke-dasharray: 2.96,1.28; stroke-dashoffset: 0; stroke: #b0b0b0; stroke-opacity: 0.8; stroke-width: 0.8"/>
     </g>
     <g id="line2d_2">
      <defs>
       <path id="mb243b0c415" d="M 0 0 
L 0 3.5 
" style="stroke: #000000; stroke-width: 0.8"/>
      </defs>
      <g>
       <use xlink:href="#mb243b0c415" x="72.610866" y="250.421875" style="stroke: #000000; stroke-width: 0.8"/>
      </g>
     </g>
     <g id="text_1">
      <!-- 0 -->
      <g transform="translate(69.429616 265.020312) scale(0.1 -0.1)">
       <defs>
        <path id="DejaVuSans-30" d="M 2034 4250 
Q 1547 4250 1301 3770 
Q 1056 3291 1056 2328 
Q 1056 1369 1301 889 
Q 1547 409 2034 409 
Q 2525 409 2770 889 
Q 3016 1369 3016 2328 
Q 3016 3291 2770 3770 
Q 2525 4250 2034 4250 
z
M 2034 4750 
Q 2819 4750 3233 4129 
Q 3647 3509 3647 2328 
Q 3647 1150 3233 529 
Q 2819 -91 2034 -91 
Q 1250 -91 836 529 
Q 422 1150 422 2328 
Q 422 3509 836 4129 
Q 1250 4750 2034 4750 
z
" transform="scale(0.015625)"/>
       </defs>
       <use xlink:href="#DejaVuSans-30"/>
      </g>
     </g>
    </g>
    <g id="xtick_2">
     <g id="line2d_3">
      <path d="M 167.123082 250.421875 
L 167.123082 22.32 
" clip-path="url(#p6e2b626351)" style="fill: none; stroke-dasharray: 2.96,1.28; stroke-dashoffset: 0; stroke: #b0b0b0; stroke-opacity: 0.8; stroke-width: 0.8"/>
     </g>
     <g id="line2d_4">
      <g>
       <use xlink:href="#mb243b0c415" x="167.123082" y="250.421875" style="stroke: #000000; stroke-width: 0.8"/>
      </g>
     </g>
     <g id="text_2">
      <!-- 100 -->
      <g transform="translate(157.579332 265.020312) scale(0.1 -0.1)">
       <defs>
        <path id="DejaVuSans-31" d="M 794 531 
L 1825 531 
L 1825 4091 
L 703 3866 
L 703 4441 
L 1819 4666 
L 2450 4666 
L 2450 531 
L 3481 531 
L 3481 0 
L 794 0 
L 794 531 
z
" transform="scale(0.015625)"/>
       </defs>
       <use xlink:href="#DejaVuSans-31"/>
       <use xlink:href="#DejaVuSans-30" transform="translate(63.623047 0)"/>
       <use xlink:href="#DejaVuSans-30" transform="translate(127.246094 0)"/>
      </g>
     </g>
    </g>
    <g id="xtick_3">
     <g id="line2d_5">
      <path d="M 261.635298 250.421875 
L 261.635298 22.32 
" clip-path="url(#p6e2b626351)" style="fill: none; stroke-dasharray: 2.96,1.28; stroke-dashoffset: 0; stroke: #b0b0b0; stroke-opacity: 0.8; stroke-width: 0.8"/>
     </g>
     <g id="line2d_6">
      <g>
       <use xlink:href="#mb243b0c415" x="261.635298" y="250.421875" style="stroke: #000000; stroke-width: 0.8"/>
      </g>
     </g>
     <g id="text_3">
      <!-- 200 -->
      <g transform="translate(252.091548 265.020312) scale(0.1 -0.1)">
       <defs>
        <path id="DejaVuSans-32" d="M 1228 531 
L 3431 531 
L 3431 0 
L 469 0 
L 469 531 
Q 828 903 1448 1529 
Q 2069 2156 2228 2338 
Q 2531 2678 2651 2914 
Q 2772 3150 2772 3378 
Q 2772 3750 2511 3984 
Q 2250 4219 1831 4219 
Q 1534 4219 1204 4116 
Q 875 4013 500 3803 
L 500 4441 
Q 881 4594 1212 4672 
Q 1544 4750 1819 4750 
Q 2544 4750 2975 4387 
Q 3406 4025 3406 3419 
Q 3406 3131 3298 2873 
Q 3191 2616 2906 2266 
Q 2828 2175 2409 1742 
Q 1991 1309 1228 531 
z
" transform="scale(0.015625)"/>
       </defs>
       <use xlink:href="#DejaVuSans-32"/>
       <use xlink:href="#DejaVuSans-30" transform="translate(63.623047 0)"/>
       <use xlink:href="#DejaVuSans-30" transform="translate(127.246094 0)"/>
      </g>
     </g>
    </g>
    <g id="xtick_4">
     <g id="line2d_7">
      <path d="M 356.147514 250.421875 
L 356.147514 22.32 
" clip-path="url(#p6e2b626351)" style="fill: none; stroke-dasharray: 2.96,1.28; stroke-dashoffset: 0; stroke: #b0b0b0; stroke-opacity: 0.8; stroke-width: 0.8"/>
     </g>
     <g id="line2d_8">
      <g>
       <use xlink:href="#mb243b0c415" x="356.147514" y="250.421875" style="stroke: #000000; stroke-width: 0.8"/>
      </g>
     </g>
     <g id="text_4">
      <!-- 300 -->
      <g transform="translate(346.603764 265.020312) scale(0.1 -0.1)">
       <defs>
        <path id="DejaVuSans-33" d="M 2597 2516 
Q 3050 2419 3304 2112 
Q 3559 1806 3559 1356 
Q 3559 666 3084 287 
Q 2609 -91 1734 -91 
Q 1441 -91 1130 -33 
Q 819 25 488 141 
L 488 750 
Q 750 597 1062 519 
Q 1375 441 1716 441 
Q 2309 441 2620 675 
Q 2931 909 2931 1356 
Q 2931 1769 2642 2001 
Q 2353 2234 1838 2234 
L 1294 2234 
L 1294 2753 
L 1863 2753 
Q 2328 2753 2575 2939 
Q 2822 3125 2822 3475 
Q 2822 3834 2567 4026 
Q 2313 4219 1838 4219 
Q 1578 4219 1281 4162 
Q 984 4106 628 3988 
L 628 4550 
Q 988 4650 1302 4700 
Q 1616 4750 1894 4750 
Q 2613 4750 3031 4423 
Q 3450 4097 3450 3541 
Q 3450 3153 3228 2886 
Q 3006 2619 2597 2516 
z
" transform="scale(0.015625)"/>
       </defs>
       <use xlink:href="#DejaVuSans-33"/>
       <use xlink:href="#DejaVuSans-30" transform="translate(63.623047 0)"/>
       <use xlink:href="#DejaVuSans-30" transform="translate(127.246094 0)"/>
      </g>
     </g>
    </g>
    <g id="xtick_5">
     <g id="line2d_9">
      <path d="M 450.65973 250.421875 
L 450.65973 22.32 
" clip-path="url(#p6e2b626351)" style="fill: none; stroke-dasharray: 2.96,1.28; stroke-dashoffset: 0; stroke: #b0b0b0; stroke-opacity: 0.8; stroke-width: 0.8"/>
     </g>
     <g id="line2d_10">
      <g>
       <use xlink:href="#mb243b0c415" x="450.65973" y="250.421875" style="stroke: #000000; stroke-width: 0.8"/>
      </g>
     </g>
     <g id="text_5">
      <!-- 400 -->
      <g transform="translate(441.11598 265.020312) scale(0.1 -0.1)">
       <defs>
        <path id="DejaVuSans-34" d="M 2419 4116 
L 825 1625 
L 2419 1625 
L 2419 4116 
z
M 2253 4666 
L 3047 4666 
L 3047 1625 
L 3713 1625 
L 3713 1100 
L 3047 1100 
L 3047 0 
L 2419 0 
L 2419 1100 
L 313 1100 
L 313 1709 
L 2253 4666 
z
" transform="scale(0.015625)"/>
       </defs>
       <use xlink:href="#DejaVuSans-34"/>
       <use xlink:href="#DejaVuSans-30" transform="translate(63.623047 0)"/>
       <use xlink:href="#DejaVuSans-30" transform="translate(127.246094 0)"/>
      </g>
     </g>
    </g>
    <g id="xtick_6">
     <g id="line2d_11">
      <path d="M 545.171946 250.421875 
L 545.171946 22.32 
" clip-path="url(#p6e2b626351)" style="fill: none; stroke-dasharray: 2.96,1.28; stroke-dashoffset: 0; stroke: #b0b0b0; stroke-opacity: 0.8; stroke-width: 0.8"/>
     </g>
     <g id="line2d_12">
      <g>
       <use xlink:href="#mb243b0c415" x="545.171946" y="250.421875" style="stroke: #000000; stroke-width: 0.8"/>
      </g>
     </g>
     <g id="text_6">
      <!-- 500 -->
      <g transform="translate(535.628196 265.020312) scale(0.1 -0.1)">
       <defs>
        <path id="DejaVuSans-35" d="M 691 4666 
L 3169 4666 
L 3169 4134 
L 1269 4134 
L 1269 2991 
Q 1406 3038 1543 3061 
Q 1681 3084 1819 3084 
Q 2600 3084 3056 2656 
Q 3513 2228 3513 1497 
Q 3513 744 3044 326 
Q 2575 -91 1722 -91 
Q 1428 -91 1123 -41 
Q 819 9 494 109 
L 494 744 
Q 775 591 1075 516 
Q 1375 441 1709 441 
Q 2250 441 2565 725 
Q 2881 1009 2881 1497 
Q 2881 1984 2565 2268 
Q 2250 2553 1709 2553 
Q 1456 2553 1204 2497 
Q 953 2441 691 2322 
L 691 4666 
z
" transform="scale(0.015625)"/>
       </defs>
       <use xlink:href="#DejaVuSans-35"/>
       <use xlink:href="#DejaVuSans-30" transform="translate(63.623047 0)"/>
       <use xlink:href="#DejaVuSans-30" transform="translate(127.246094 0)"/>
      </g>
     </g>
    </g>
    <g id="text_7">
     <!-- Frequency (Hz), $f$ -->
     <g transform="translate(265.741406 278.7) scale(0.1 -0.1)">
      <defs>
       <path id="DejaVuSans-46" d="M 628 4666 
L 3309 4666 
L 3309 4134 
L 1259 4134 
L 1259 2759 
L 3109 2759 
L 3109 2228 
L 1259 2228 
L 1259 0 
L 628 0 
L 628 4666 
z
" transform="scale(0.015625)"/>
       <path id="DejaVuSans-72" d="M 2631 2963 
Q 2534 3019 2420 3045 
Q 2306 3072 2169 3072 
Q 1681 3072 1420 2755 
Q 1159 2438 1159 1844 
L 1159 0 
L 581 0 
L 581 3500 
L 1159 3500 
L 1159 2956 
Q 1341 3275 1631 3429 
Q 1922 3584 2338 3584 
Q 2397 3584 2469 3576 
Q 2541 3569 2628 3553 
L 2631 2963 
z
" transform="scale(0.015625)"/>
       <path id="DejaVuSans-65" d="M 3597 1894 
L 3597 1613 
L 953 1613 
Q 991 1019 1311 708 
Q 1631 397 2203 397 
Q 2534 397 2845 478 
Q 3156 559 3463 722 
L 3463 178 
Q 3153 47 2828 -22 
Q 2503 -91 2169 -91 
Q 1331 -91 842 396 
Q 353 884 353 1716 
Q 353 2575 817 3079 
Q 1281 3584 2069 3584 
Q 2775 3584 3186 3129 
Q 3597 2675 3597 1894 
z
M 3022 2063 
Q 3016 2534 2758 2815 
Q 2500 3097 2075 3097 
Q 1594 3097 1305 2825 
Q 1016 2553 972 2059 
L 3022 2063 
z
" transform="scale(0.015625)"/>
       <path id="DejaVuSans-71" d="M 947 1747 
Q 947 1113 1208 752 
Q 1469 391 1925 391 
Q 2381 391 2643 752 
Q 2906 1113 2906 1747 
Q 2906 2381 2643 2742 
Q 2381 3103 1925 3103 
Q 1469 3103 1208 2742 
Q 947 2381 947 1747 
z
M 2906 525 
Q 2725 213 2448 61 
Q 2172 -91 1784 -91 
Q 1150 -91 751 415 
Q 353 922 353 1747 
Q 353 2572 751 3078 
Q 1150 3584 1784 3584 
Q 2172 3584 2448 3432 
Q 2725 3281 2906 2969 
L 2906 3500 
L 3481 3500 
L 3481 -1331 
L 2906 -1331 
L 2906 525 
z
" transform="scale(0.015625)"/>
       <path id="DejaVuSans-75" d="M 544 1381 
L 544 3500 
L 1119 3500 
L 1119 1403 
Q 1119 906 1312 657 
Q 1506 409 1894 409 
Q 2359 409 2629 706 
Q 2900 1003 2900 1516 
L 2900 3500 
L 3475 3500 
L 3475 0 
L 2900 0 
L 2900 538 
Q 2691 219 2414 64 
Q 2138 -91 1772 -91 
Q 1169 -91 856 284 
Q 544 659 544 1381 
z
M 1991 3584 
L 1991 3584 
z
" transform="scale(0.015625)"/>
       <path id="DejaVuSans-6e" d="M 3513 2113 
L 3513 0 
L 2938 0 
L 2938 2094 
Q 2938 2591 2744 2837 
Q 2550 3084 2163 3084 
Q 1697 3084 1428 2787 
Q 1159 2491 1159 1978 
L 1159 0 
L 581 0 
L 581 3500 
L 1159 3500 
L 1159 2956 
Q 1366 3272 1645 3428 
Q 1925 3584 2291 3584 
Q 2894 3584 3203 3211 
Q 3513 2838 3513 2113 
z
" transform="scale(0.015625)"/>
       <path id="DejaVuSans-63" d="M 3122 3366 
L 3122 2828 
Q 2878 2963 2633 3030 
Q 2388 3097 2138 3097 
Q 1578 3097 1268 2742 
Q 959 2388 959 1747 
Q 959 1106 1268 751 
Q 1578 397 2138 397 
Q 2388 397 2633 464 
Q 2878 531 3122 666 
L 3122 134 
Q 2881 22 2623 -34 
Q 2366 -91 2075 -91 
Q 1284 -91 818 406 
Q 353 903 353 1747 
Q 353 2603 823 3093 
Q 1294 3584 2113 3584 
Q 2378 3584 2631 3529 
Q 2884 3475 3122 3366 
z
" transform="scale(0.015625)"/>
       <path id="DejaVuSans-79" d="M 2059 -325 
Q 1816 -950 1584 -1140 
Q 1353 -1331 966 -1331 
L 506 -1331 
L 506 -850 
L 844 -850 
Q 1081 -850 1212 -737 
Q 1344 -625 1503 -206 
L 1606 56 
L 191 3500 
L 800 3500 
L 1894 763 
L 2988 3500 
L 3597 3500 
L 2059 -325 
z
" transform="scale(0.015625)"/>
       <path id="DejaVuSans-20" transform="scale(0.015625)"/>
       <path id="DejaVuSans-28" d="M 1984 4856 
Q 1566 4138 1362 3434 
Q 1159 2731 1159 2009 
Q 1159 1288 1364 580 
Q 1569 -128 1984 -844 
L 1484 -844 
Q 1016 -109 783 600 
Q 550 1309 550 2009 
Q 550 2706 781 3412 
Q 1013 4119 1484 4856 
L 1984 4856 
z
" transform="scale(0.015625)"/>
       <path id="DejaVuSans-48" d="M 628 4666 
L 1259 4666 
L 1259 2753 
L 3553 2753 
L 3553 4666 
L 4184 4666 
L 4184 0 
L 3553 0 
L 3553 2222 
L 1259 2222 
L 1259 0 
L 628 0 
L 628 4666 
z
" transform="scale(0.015625)"/>
       <path id="DejaVuSans-7a" d="M 353 3500 
L 3084 3500 
L 3084 2975 
L 922 459 
L 3084 459 
L 3084 0 
L 275 0 
L 275 525 
L 2438 3041 
L 353 3041 
L 353 3500 
z
" transform="scale(0.015625)"/>
       <path id="DejaVuSans-29" d="M 513 4856 
L 1013 4856 
Q 1481 4119 1714 3412 
Q 1947 2706 1947 2009 
Q 1947 1309 1714 600 
Q 1481 -109 1013 -844 
L 513 -844 
Q 928 -128 1133 580 
Q 1338 1288 1338 2009 
Q 1338 2731 1133 3434 
Q 928 4138 513 4856 
z
" transform="scale(0.015625)"/>
       <path id="DejaVuSans-2c" d="M 750 794 
L 1409 794 
L 1409 256 
L 897 -744 
L 494 -744 
L 750 256 
L 750 794 
z
" transform="scale(0.015625)"/>
       <path id="DejaVuSans-Oblique-66" d="M 3059 4863 
L 2969 4384 
L 2419 4384 
Q 2106 4384 1964 4261 
Q 1822 4138 1753 3809 
L 1691 3500 
L 2638 3500 
L 2553 3053 
L 1606 3053 
L 1013 0 
L 434 0 
L 1031 3053 
L 481 3053 
L 563 3500 
L 1113 3500 
L 1159 3744 
Q 1278 4363 1576 4613 
Q 1875 4863 2516 4863 
L 3059 4863 
z
" transform="scale(0.015625)"/>
      </defs>
      <use xlink:href="#DejaVuSans-46" transform="translate(0 0.015625)"/>
      <use xlink:href="#DejaVuSans-72" transform="translate(57.519531 0.015625)"/>
      <use xlink:href="#DejaVuSans-65" transform="translate(98.632812 0.015625)"/>
      <use xlink:href="#DejaVuSans-71" transform="translate(160.15625 0.015625)"/>
      <use xlink:href="#DejaVuSans-75" transform="translate(223.632812 0.015625)"/>
      <use xlink:href="#DejaVuSans-65" transform="translate(287.011719 0.015625)"/>
      <use xlink:href="#DejaVuSans-6e" transform="translate(348.535156 0.015625)"/>
      <use xlink:href="#DejaVuSans-63" transform="translate(411.914062 0.015625)"/>
      <use xlink:href="#DejaVuSans-79" transform="translate(466.894531 0.015625)"/>
      <use xlink:href="#DejaVuSans-20" transform="translate(526.074219 0.015625)"/>
      <use xlink:href="#DejaVuSans-28" transform="translate(557.861328 0.015625)"/>
      <use xlink:href="#DejaVuSans-48" transform="translate(596.875 0.015625)"/>
      <use xlink:href="#DejaVuSans-7a" transform="translate(672.070312 0.015625)"/>
      <use xlink:href="#DejaVuSans-29" transform="translate(724.560547 0.015625)"/>
      <use xlink:href="#DejaVuSans-2c" transform="translate(763.574219 0.015625)"/>
      <use xlink:href="#DejaVuSans-20" transform="translate(795.361328 0.015625)"/>
      <use xlink:href="#DejaVuSans-Oblique-66" transform="translate(827.148438 0.015625)"/>
     </g>
    </g>
   </g>
   <g id="matplotlib.axis_2">
    <g id="ytick_1">
     <g id="line2d_13">
      <path d="M 48.982813 216.474326 
L 568.8 216.474326 
" clip-path="url(#p6e2b626351)" style="fill: none; stroke-dasharray: 2.96,1.28; stroke-dashoffset: 0; stroke: #b0b0b0; stroke-opacity: 0.8; stroke-width: 0.8"/>
     </g>
     <g id="line2d_14">
      <defs>
       <path id="m49c4a1a6b8" d="M 0 0 
L -3.5 0 
" style="stroke: #000000; stroke-width: 0.8"/>
      </defs>
      <g>
       <use xlink:href="#m49c4a1a6b8" x="48.982813" y="216.474326" style="stroke: #000000; stroke-width: 0.8"/>
      </g>
     </g>
     <g id="text_8">
      <!-- −60 -->
      <g transform="translate(20.878125 220.273544) scale(0.1 -0.1)">
       <defs>
        <path id="DejaVuSans-2212" d="M 678 2272 
L 4684 2272 
L 4684 1741 
L 678 1741 
L 678 2272 
z
" transform="scale(0.015625)"/>
        <path id="DejaVuSans-36" d="M 2113 2584 
Q 1688 2584 1439 2293 
Q 1191 2003 1191 1497 
Q 1191 994 1439 701 
Q 1688 409 2113 409 
Q 2538 409 2786 701 
Q 3034 994 3034 1497 
Q 3034 2003 2786 2293 
Q 2538 2584 2113 2584 
z
M 3366 4563 
L 3366 3988 
Q 3128 4100 2886 4159 
Q 2644 4219 2406 4219 
Q 1781 4219 1451 3797 
Q 1122 3375 1075 2522 
Q 1259 2794 1537 2939 
Q 1816 3084 2150 3084 
Q 2853 3084 3261 2657 
Q 3669 2231 3669 1497 
Q 3669 778 3244 343 
Q 2819 -91 2113 -91 
Q 1303 -91 875 529 
Q 447 1150 447 2328 
Q 447 3434 972 4092 
Q 1497 4750 2381 4750 
Q 2619 4750 2861 4703 
Q 3103 4656 3366 4563 
z
" transform="scale(0.015625)"/>
       </defs>
       <use xlink:href="#DejaVuSans-2212"/>
       <use xlink:href="#DejaVuSans-36" transform="translate(83.789062 0)"/>
       <use xlink:href="#DejaVuSans-30" transform="translate(147.412109 0)"/>
      </g>
     </g>
    </g>
    <g id="ytick_2">
     <g id="line2d_15">
      <path d="M 48.982813 179.20029 
L 568.8 179.20029 
" clip-path="url(#p6e2b626351)" style="fill: none; stroke-dasharray: 2.96,1.28; stroke-dashoffset: 0; stroke: #b0b0b0; stroke-opacity: 0.8; stroke-width: 0.8"/>
     </g>
     <g id="line2d_16">
      <g>
       <use xlink:href="#m49c4a1a6b8" x="48.982813" y="179.20029" style="stroke: #000000; stroke-width: 0.8"/>
      </g>
     </g>
     <g id="text_9">
      <!-- −50 -->
      <g transform="translate(20.878125 182.999508) scale(0.1 -0.1)">
       <use xlink:href="#DejaVuSans-2212"/>
       <use xlink:href="#DejaVuSans-35" transform="translate(83.789062 0)"/>
       <use xlink:href="#DejaVuSans-30" transform="translate(147.412109 0)"/>
      </g>
     </g>
    </g>
    <g id="ytick_3">
     <g id="line2d_17">
      <path d="M 48.982813 141.926254 
L 568.8 141.926254 
" clip-path="url(#p6e2b626351)" style="fill: none; stroke-dasharray: 2.96,1.28; stroke-dashoffset: 0; stroke: #b0b0b0; stroke-opacity: 0.8; stroke-width: 0.8"/>
     </g>
     <g id="line2d_18">
      <g>
       <use xlink:href="#m49c4a1a6b8" x="48.982813" y="141.926254" style="stroke: #000000; stroke-width: 0.8"/>
      </g>
     </g>
     <g id="text_10">
      <!-- −40 -->
      <g transform="translate(20.878125 145.725472) scale(0.1 -0.1)">
       <use xlink:href="#DejaVuSans-2212"/>
       <use xlink:href="#DejaVuSans-34" transform="translate(83.789062 0)"/>
       <use xlink:href="#DejaVuSans-30" transform="translate(147.412109 0)"/>
      </g>
     </g>
    </g>
    <g id="ytick_4">
     <g id="line2d_19">
      <path d="M 48.982813 104.652218 
L 568.8 104.652218 
" clip-path="url(#p6e2b626351)" style="fill: none; stroke-dasharray: 2.96,1.28; stroke-dashoffset: 0; stroke: #b0b0b0; stroke-opacity: 0.8; stroke-width: 0.8"/>
     </g>
     <g id="line2d_20">
      <g>
       <use xlink:href="#m49c4a1a6b8" x="48.982813" y="104.652218" style="stroke: #000000; stroke-width: 0.8"/>
      </g>
     </g>
     <g id="text_11">
      <!-- −30 -->
      <g transform="translate(20.878125 108.451436) scale(0.1 -0.1)">
       <use xlink:href="#DejaVuSans-2212"/>
       <use xlink:href="#DejaVuSans-33" transform="translate(83.789062 0)"/>
       <use xlink:href="#DejaVuSans-30" transform="translate(147.412109 0)"/>
      </g>
     </g>
    </g>
    <g id="ytick_5">
     <g id="line2d_21">
      <path d="M 48.982813 67.378182 
L 568.8 67.378182 
" clip-path="url(#p6e2b626351)" style="fill: none; stroke-dasharray: 2.96,1.28; stroke-dashoffset: 0; stroke: #b0b0b0; stroke-opacity: 0.8; stroke-width: 0.8"/>
     </g>
     <g id="line2d_22">
      <g>
       <use xlink:href="#m49c4a1a6b8" x="48.982813" y="67.378182" style="stroke: #000000; stroke-width: 0.8"/>
      </g>
     </g>
     <g id="text_12">
      <!-- −20 -->
      <g transform="translate(20.878125 71.1774) scale(0.1 -0.1)">
       <use xlink:href="#DejaVuSans-2212"/>
       <use xlink:href="#DejaVuSans-32" transform="translate(83.789062 0)"/>
       <use xlink:href="#DejaVuSans-30" transform="translate(147.412109 0)"/>
      </g>
     </g>
    </g>
    <g id="ytick_6">
     <g id="line2d_23">
      <path d="M 48.982813 30.104146 
L 568.8 30.104146 
" clip-path="url(#p6e2b626351)" style="fill: none; stroke-dasharray: 2.96,1.28; stroke-dashoffset: 0; stroke: #b0b0b0; stroke-opacity: 0.8; stroke-width: 0.8"/>
     </g>
     <g id="line2d_24">
      <g>
       <use xlink:href="#m49c4a1a6b8" x="48.982813" y="30.104146" style="stroke: #000000; stroke-width: 0.8"/>
      </g>
     </g>
     <g id="text_13">
      <!-- −10 -->
      <g transform="translate(20.878125 33.903364) scale(0.1 -0.1)">
       <use xlink:href="#DejaVuSans-2212"/>
       <use xlink:href="#DejaVuSans-31" transform="translate(83.789062 0)"/>
       <use xlink:href="#DejaVuSans-30" transform="translate(147.412109 0)"/>
      </g>
     </g>
    </g>
    <g id="text_14">
     <!-- Power density (dB/Hz) -->
     <g transform="translate(14.798437 191.570938) rotate(-90) scale(0.1 -0.1)">
      <defs>
       <path id="DejaVuSans-50" d="M 1259 4147 
L 1259 2394 
L 2053 2394 
Q 2494 2394 2734 2622 
Q 2975 2850 2975 3272 
Q 2975 3691 2734 3919 
Q 2494 4147 2053 4147 
L 1259 4147 
z
M 628 4666 
L 2053 4666 
Q 2838 4666 3239 4311 
Q 3641 3956 3641 3272 
Q 3641 2581 3239 2228 
Q 2838 1875 2053 1875 
L 1259 1875 
L 1259 0 
L 628 0 
L 628 4666 
z
" transform="scale(0.015625)"/>
       <path id="DejaVuSans-6f" d="M 1959 3097 
Q 1497 3097 1228 2736 
Q 959 2375 959 1747 
Q 959 1119 1226 758 
Q 1494 397 1959 397 
Q 2419 397 2687 759 
Q 2956 1122 2956 1747 
Q 2956 2369 2687 2733 
Q 2419 3097 1959 3097 
z
M 1959 3584 
Q 2709 3584 3137 3096 
Q 3566 2609 3566 1747 
Q 3566 888 3137 398 
Q 2709 -91 1959 -91 
Q 1206 -91 779 398 
Q 353 888 353 1747 
Q 353 2609 779 3096 
Q 1206 3584 1959 3584 
z
" transform="scale(0.015625)"/>
       <path id="DejaVuSans-77" d="M 269 3500 
L 844 3500 
L 1563 769 
L 2278 3500 
L 2956 3500 
L 3675 769 
L 4391 3500 
L 4966 3500 
L 4050 0 
L 3372 0 
L 2619 2869 
L 1863 0 
L 1184 0 
L 269 3500 
z
" transform="scale(0.015625)"/>
       <path id="DejaVuSans-64" d="M 2906 2969 
L 2906 4863 
L 3481 4863 
L 3481 0 
L 2906 0 
L 2906 525 
Q 2725 213 2448 61 
Q 2172 -91 1784 -91 
Q 1150 -91 751 415 
Q 353 922 353 1747 
Q 353 2572 751 3078 
Q 1150 3584 1784 3584 
Q 2172 3584 2448 3432 
Q 2725 3281 2906 2969 
z
M 947 1747 
Q 947 1113 1208 752 
Q 1469 391 1925 391 
Q 2381 391 2643 752 
Q 2906 1113 2906 1747 
Q 2906 2381 2643 2742 
Q 2381 3103 1925 3103 
Q 1469 3103 1208 2742 
Q 947 2381 947 1747 
z
" transform="scale(0.015625)"/>
       <path id="DejaVuSans-73" d="M 2834 3397 
L 2834 2853 
Q 2591 2978 2328 3040 
Q 2066 3103 1784 3103 
Q 1356 3103 1142 2972 
Q 928 2841 928 2578 
Q 928 2378 1081 2264 
Q 1234 2150 1697 2047 
L 1894 2003 
Q 2506 1872 2764 1633 
Q 3022 1394 3022 966 
Q 3022 478 2636 193 
Q 2250 -91 1575 -91 
Q 1294 -91 989 -36 
Q 684 19 347 128 
L 347 722 
Q 666 556 975 473 
Q 1284 391 1588 391 
Q 1994 391 2212 530 
Q 2431 669 2431 922 
Q 2431 1156 2273 1281 
Q 2116 1406 1581 1522 
L 1381 1569 
Q 847 1681 609 1914 
Q 372 2147 372 2553 
Q 372 3047 722 3315 
Q 1072 3584 1716 3584 
Q 2034 3584 2315 3537 
Q 2597 3491 2834 3397 
z
" transform="scale(0.015625)"/>
       <path id="DejaVuSans-69" d="M 603 3500 
L 1178 3500 
L 1178 0 
L 603 0 
L 603 3500 
z
M 603 4863 
L 1178 4863 
L 1178 4134 
L 603 4134 
L 603 4863 
z
" transform="scale(0.015625)"/>
       <path id="DejaVuSans-74" d="M 1172 4494 
L 1172 3500 
L 2356 3500 
L 2356 3053 
L 1172 3053 
L 1172 1153 
Q 1172 725 1289 603 
Q 1406 481 1766 481 
L 2356 481 
L 2356 0 
L 1766 0 
Q 1100 0 847 248 
Q 594 497 594 1153 
L 594 3053 
L 172 3053 
L 172 3500 
L 594 3500 
L 594 4494 
L 1172 4494 
z
" transform="scale(0.015625)"/>
       <path id="DejaVuSans-42" d="M 1259 2228 
L 1259 519 
L 2272 519 
Q 2781 519 3026 730 
Q 3272 941 3272 1375 
Q 3272 1813 3026 2020 
Q 2781 2228 2272 2228 
L 1259 2228 
z
M 1259 4147 
L 1259 2741 
L 2194 2741 
Q 2656 2741 2882 2914 
Q 3109 3088 3109 3444 
Q 3109 3797 2882 3972 
Q 2656 4147 2194 4147 
L 1259 4147 
z
M 628 4666 
L 2241 4666 
Q 2963 4666 3353 4366 
Q 3744 4066 3744 3513 
Q 3744 3084 3544 2831 
Q 3344 2578 2956 2516 
Q 3422 2416 3680 2098 
Q 3938 1781 3938 1306 
Q 3938 681 3513 340 
Q 3088 0 2303 0 
L 628 0 
L 628 4666 
z
" transform="scale(0.015625)"/>
       <path id="DejaVuSans-2f" d="M 1625 4666 
L 2156 4666 
L 531 -594 
L 0 -594 
L 1625 4666 
z
" transform="scale(0.015625)"/>
      </defs>
      <use xlink:href="#DejaVuSans-50"/>
      <use xlink:href="#DejaVuSans-6f" transform="translate(56.677734 0)"/>
      <use xlink:href="#DejaVuSans-77" transform="translate(117.859375 0)"/>
      <use xlink:href="#DejaVuSans-65" transform="translate(199.646484 0)"/>
      <use xlink:href="#DejaVuSans-72" transform="translate(261.169922 0)"/>
      <use xlink:href="#DejaVuSans-20" transform="translate(302.283203 0)"/>
      <use xlink:href="#DejaVuSans-64" transform="translate(334.070312 0)"/>
      <use xlink:href="#DejaVuSans-65" transform="translate(397.546875 0)"/>
      <use xlink:href="#DejaVuSans-6e" transform="translate(459.070312 0)"/>
      <use xlink:href="#DejaVuSans-73" transform="translate(522.449219 0)"/>
      <use xlink:href="#DejaVuSans-69" transform="translate(574.548828 0)"/>
      <use xlink:href="#DejaVuSans-74" transform="translate(602.332031 0)"/>
      <use xlink:href="#DejaVuSans-79" transform="translate(641.541016 0)"/>
      <use xlink:href="#DejaVuSans-20" transform="translate(700.720703 0)"/>
      <use xlink:href="#DejaVuSans-28" transform="translate(732.507812 0)"/>
      <use xlink:href="#DejaVuSans-64" transform="translate(771.521484 0)"/>
      <use xlink:href="#DejaVuSans-42" transform="translate(834.998047 0)"/>
      <use xlink:href="#DejaVuSans-2f" transform="translate(903.601562 0)"/>
      <use xlink:href="#DejaVuSans-48" transform="translate(937.292969 0)"/>
      <use xlink:href="#DejaVuSans-7a" transform="translate(1012.488281 0)"/>
      <use xlink:href="#DejaVuSans-29" transform="translate(1064.978516 0)"/>
     </g>
    </g>
   </g>
   <g id="line2d_25">
    <path d="M 72.610866 240.053608 
L 73.072352 229.131926 
L 73.533837 229.997549 
L 75.379779 235.008736 
L 75.841264 234.543219 
L 76.30275 232.753628 
L 77.225721 226.714031 
L 78.148692 220.558004 
L 79.071662 216.199502 
L 79.533148 214.843818 
L 79.994633 214.030485 
L 80.456119 213.730212 
L 80.917604 213.899696 
L 81.37909 214.480487 
L 82.30206 216.54326 
L 83.686517 220.025858 
L 84.148002 220.711061 
L 84.609488 220.986746 
L 85.070973 220.847278 
L 85.532458 220.354578 
L 86.455429 218.723489 
L 88.301371 215.169269 
L 90.608798 211.539776 
L 92.45474 208.864071 
L 93.377711 207.93306 
L 94.300682 207.40899 
L 95.223653 207.275653 
L 96.146623 207.516398 
L 97.069594 208.200796 
L 97.992565 209.458226 
L 98.915536 211.333366 
L 101.222963 216.630473 
L 101.684449 217.245111 
L 102.145934 217.616847 
L 102.607419 217.768997 
L 103.068905 217.746672 
L 103.991876 217.369803 
L 105.376332 216.384918 
L 106.760788 215.075149 
L 109.529701 212.317814 
L 110.452672 211.771866 
L 110.914157 211.695217 
L 111.375643 211.804561 
L 111.837128 212.137956 
L 112.298613 212.722635 
L 112.760099 213.566733 
L 113.68307 215.909663 
L 114.606041 218.464449 
L 115.067526 219.398609 
L 115.529011 219.859101 
L 115.990497 219.751427 
L 116.451982 219.108196 
L 117.374953 216.829214 
L 118.297924 214.36836 
L 119.220895 212.482498 
L 120.143866 211.19245 
L 121.989807 208.955781 
L 124.75872 205.001514 
L 125.681691 204.345506 
L 126.143176 204.247747 
L 126.604662 204.318456 
L 127.066147 204.564406 
L 127.527633 204.988955 
L 128.450603 206.365241 
L 129.373574 208.361659 
L 131.681001 213.873405 
L 132.142487 214.488209 
L 132.603972 214.778564 
L 133.065458 214.730402 
L 133.526943 214.37492 
L 134.449914 213.043154 
L 135.83437 210.86931 
L 136.295856 210.388226 
L 136.757341 210.092688 
L 137.218827 209.991055 
L 137.680312 210.074989 
L 138.141797 210.32281 
L 139.064768 211.181295 
L 142.295166 214.80569 
L 143.218137 215.357193 
L 143.679623 215.454893 
L 144.141108 215.403026 
L 144.602593 215.186026 
L 145.064079 214.802508 
L 145.98705 213.629803 
L 147.371506 211.626301 
L 148.294477 210.739371 
L 148.755962 210.507087 
L 149.217448 210.409882 
L 150.140419 210.545896 
L 152.447846 211.429366 
L 153.370817 211.206509 
L 153.832302 211.067468 
L 154.293787 211.127809 
L 154.755273 211.585742 
L 155.216758 212.594165 
L 156.139729 216.103673 
L 156.601215 217.799784 
L 157.0627 218.499494 
L 157.524185 217.920054 
L 157.985671 216.759537 
L 158.447156 216.218449 
L 159.370127 218.101775 
L 159.831613 213.315147 
L 162.13904 149.715933 
L 163.062011 134.026526 
L 163.984981 122.611854 
L 164.907952 114.621167 
L 165.369438 111.753713 
L 165.830923 109.585999 
L 166.292409 108.09272 
L 166.753894 107.257509 
L 167.215379 107.071956 
L 167.676865 107.535149 
L 168.13835 108.653676 
L 168.599836 110.442092 
L 169.061321 112.923938 
L 169.984292 120.118349 
L 170.907263 130.700389 
L 171.830234 145.561078 
L 172.753205 166.571426 
L 173.676175 197.905503 
L 174.137661 216.787873 
L 174.599146 222.775673 
L 175.060632 216.685838 
L 175.522117 212.440809 
L 175.983603 211.378268 
L 176.445088 212.420452 
L 177.368059 216.11183 
L 177.829544 216.885038 
L 178.29103 216.751883 
L 178.752515 216.297763 
L 179.214001 216.076847 
L 179.675486 216.348405 
L 180.136971 217.090757 
L 181.059942 219.012951 
L 181.521428 219.568253 
L 181.982913 219.583836 
L 182.444399 219.074845 
L 183.367369 217.061297 
L 185.213311 212.430911 
L 185.674797 211.579035 
L 186.136282 210.965702 
L 186.597768 210.625283 
L 187.059253 210.562829 
L 187.520738 210.747285 
L 189.36668 212.154194 
L 189.828166 212.13702 
L 190.289651 211.869498 
L 191.212622 210.848016 
L 192.135593 209.865823 
L 192.597078 209.596986 
L 193.058564 209.517903 
L 193.520049 209.609735 
L 194.904505 210.230816 
L 195.365991 210.254715 
L 195.827476 210.075193 
L 196.288962 209.688454 
L 197.211932 208.495436 
L 198.134903 207.238991 
L 199.057874 206.341682 
L 199.980845 205.87637 
L 200.903816 205.721556 
L 201.826787 205.825487 
L 202.288272 206.018989 
L 202.749758 206.356173 
L 203.211243 206.880445 
L 203.672728 207.631482 
L 204.595699 209.906727 
L 205.51867 213.10796 
L 206.441641 216.499269 
L 206.903126 217.807825 
L 207.364612 218.579146 
L 207.826097 218.69462 
L 208.287583 218.17832 
L 208.749068 217.182638 
L 210.59501 212.235343 
L 211.517981 210.728085 
L 211.979466 210.32104 
L 212.440952 210.125283 
L 212.902437 210.11339 
L 213.825408 210.496524 
L 215.67135 211.618158 
L 216.59432 211.737036 
L 218.901748 211.467227 
L 219.824718 211.870318 
L 221.209175 212.757609 
L 221.67066 212.891819 
L 222.132146 212.855158 
L 222.593631 212.632026 
L 223.516602 211.733689 
L 224.901058 210.105814 
L 225.824029 209.332202 
L 227.208485 208.443222 
L 228.131456 207.49073 
L 229.054427 206.041488 
L 230.438883 203.752669 
L 230.900369 203.263852 
L 231.361854 203.025818 
L 231.82334 203.084561 
L 232.284825 203.46751 
L 232.74631 204.181075 
L 233.669281 206.49197 
L 235.053738 210.744081 
L 235.515223 211.699322 
L 235.976708 212.125655 
L 236.438194 211.96003 
L 236.899679 211.26701 
L 237.82265 208.964986 
L 238.745621 206.555614 
L 239.668592 204.774472 
L 240.591563 203.712633 
L 241.514534 203.119639 
L 243.360475 202.331862 
L 244.283446 202.172216 
L 244.744932 202.249887 
L 245.206417 202.467581 
L 246.129388 203.341049 
L 248.436815 206.273582 
L 248.8983 206.502491 
L 249.359786 206.537816 
L 250.282757 206.18428 
L 251.667213 205.51218 
L 252.590184 205.474395 
L 253.513155 205.831809 
L 254.436126 206.46754 
L 256.743553 208.271203 
L 257.666524 208.595194 
L 258.589494 208.493972 
L 259.512465 208.066771 
L 260.896922 207.33519 
L 261.819892 207.137638 
L 262.281378 207.193757 
L 263.204349 207.650414 
L 264.12732 208.468666 
L 267.819203 212.363688 
L 268.742174 214.026981 
L 271.049601 219.144034 
L 271.511086 219.660778 
L 271.972572 219.7331 
L 272.434057 219.337737 
L 272.895543 218.55194 
L 274.279999 215.2063 
L 277.048912 208.290003 
L 277.510397 207.498408 
L 277.971882 207.021623 
L 278.433368 206.887483 
L 278.894853 207.067823 
L 279.817824 208.039425 
L 282.586737 211.600897 
L 283.048222 212.009723 
L 283.509708 212.201944 
L 284.432679 212.314796 
L 284.894164 212.696975 
L 285.355649 213.57846 
L 286.740106 217.383345 
L 287.201591 217.054331 
L 287.663077 215.489835 
L 288.586047 211.916543 
L 289.047533 211.262883 
L 289.970504 211.422322 
L 290.431989 209.980839 
L 290.893475 206.452793 
L 291.816445 197.720742 
L 292.277931 195.078861 
L 292.739416 194.4941 
L 293.200902 196.298608 
L 294.123873 205.716113 
L 294.585358 206.802602 
L 295.046843 200.746991 
L 295.508329 193.088798 
L 295.969814 187.912325 
L 296.4313 186.495613 
L 296.892785 189.861808 
L 297.815756 212.026427 
L 299.200212 161.330699 
L 299.661698 153.781187 
L 300.123183 150.884478 
L 300.584669 153.718216 
L 301.046154 167.501114 
L 301.507639 210.327112 
L 301.969125 149.071616 
L 302.43061 121.770113 
L 303.353581 89.857823 
L 304.276552 69.460607 
L 305.199523 55.078147 
L 306.122494 44.866699 
L 307.045465 37.982607 
L 307.50695 35.643555 
L 307.968435 33.993854 
L 308.429921 33.012711 
L 308.891406 32.688267 
L 309.352892 33.016774 
L 309.814377 34.002355 
L 310.275863 35.657281 
L 310.737348 38.002838 
L 311.198833 41.070907 
L 312.121804 49.572252 
L 313.044775 61.775128 
L 313.967746 78.933759 
L 314.429231 90.1865 
L 314.890717 104.184371 
L 315.352202 122.716313 
L 315.813688 151.328359 
L 316.275173 216.390548 
L 316.736659 164.569724 
L 317.198144 151.877462 
L 317.659629 149.395677 
L 318.121115 152.435402 
L 318.5826 160.048065 
L 319.044086 172.860302 
L 319.967057 214.981167 
L 320.890027 189.588265 
L 321.351513 185.675416 
L 321.812998 186.773571 
L 322.274484 191.910018 
L 323.197455 210.035644 
L 323.65894 213.011903 
L 324.581911 203.049047 
L 325.043396 200.602832 
L 325.504882 200.829794 
L 325.966367 203.117882 
L 326.427853 206.315929 
L 326.889338 208.535294 
L 327.350823 208.20266 
L 328.73528 201.391592 
L 329.196765 200.805896 
L 329.658251 201.371682 
L 330.119736 202.787502 
L 331.042707 206.286815 
L 331.504192 207.514319 
L 333.350134 210.671877 
L 334.273105 213.880339 
L 335.196076 216.963257 
L 336.119047 218.855389 
L 337.042017 220.079457 
L 337.503503 220.175401 
L 337.964988 219.546647 
L 338.887959 216.504384 
L 339.349445 215.083206 
L 339.81093 214.348157 
L 340.733901 214.379851 
L 341.195386 213.263274 
L 341.656872 209.996467 
L 342.579843 200.397327 
L 343.041328 196.920261 
L 343.502813 195.545112 
L 343.964299 196.88982 
L 344.425784 201.549643 
L 344.88727 208.949733 
L 345.348755 210.644316 
L 346.733211 177.224779 
L 347.194697 172.444077 
L 347.656182 172.395305 
L 348.117668 179.458514 
L 348.579153 202.695649 
L 349.040639 188.254664 
L 349.502124 153.95345 
L 349.963609 132.989233 
L 350.88658 105.481417 
L 351.809551 87.117543 
L 352.732522 74.07662 
L 353.655493 64.907312 
L 354.578464 58.913897 
L 355.039949 56.987832 
L 355.501435 55.738305 
L 355.96292 55.149776 
L 356.424405 55.215125 
L 356.885891 55.935166 
L 357.347376 57.318706 
L 357.808862 59.383151 
L 358.270347 62.155757 
L 359.193318 69.997778 
L 360.116289 81.379702 
L 361.03926 97.369368 
L 361.962231 120.464078 
L 362.423716 136.694794 
L 362.885201 159.319704 
L 363.346687 195.445179 
L 363.808172 191.549852 
L 364.269658 175.236041 
L 364.731143 170.29683 
L 365.192629 171.246951 
L 365.654114 176.380142 
L 366.115599 185.211875 
L 367.03857 208.815492 
L 367.500056 210.730133 
L 367.961541 206.130387 
L 368.423027 202.944553 
L 368.884512 202.660744 
L 369.345997 204.706583 
L 369.807483 207.787179 
L 370.268968 209.891111 
L 370.730454 209.467247 
L 372.11491 203.039817 
L 372.576395 202.635873 
L 373.037881 203.326321 
L 373.960852 206.536322 
L 374.422337 208.129616 
L 374.883823 209.283189 
L 375.806793 210.581189 
L 376.729764 211.900025 
L 377.652735 213.217602 
L 378.114221 213.472449 
L 378.575706 213.381988 
L 381.344619 211.333446 
L 383.19056 209.511783 
L 383.652046 209.377861 
L 384.113531 209.517854 
L 384.575017 209.93356 
L 385.497988 211.397146 
L 386.882444 213.916671 
L 387.343929 214.520853 
L 387.805415 214.923872 
L 388.2669 215.111772 
L 388.728386 215.095115 
L 389.189871 214.906772 
L 390.112842 214.221978 
L 391.035813 213.496005 
L 391.958784 213.041183 
L 392.881754 212.944181 
L 394.727696 213.061961 
L 395.189182 212.859462 
L 395.650667 212.462262 
L 396.573638 211.083018 
L 398.41958 207.58581 
L 399.34255 206.467297 
L 399.804036 206.164379 
L 400.265521 206.029559 
L 400.727007 206.052599 
L 401.188492 206.22231 
L 402.111463 206.965821 
L 403.034434 208.196005 
L 405.341861 212.056652 
L 405.803346 212.509723 
L 406.264832 212.712173 
L 406.726317 212.653726 
L 407.187803 212.371145 
L 409.033744 210.768683 
L 409.49523 210.708581 
L 409.956715 210.904621 
L 410.418201 211.367621 
L 411.341172 212.958525 
L 412.264142 214.792066 
L 412.725628 215.424339 
L 413.187113 215.666937 
L 413.648599 215.451736 
L 414.110084 214.816736 
L 415.956026 211.051848 
L 416.417511 210.520104 
L 416.878997 210.311621 
L 417.340482 210.437891 
L 417.801968 210.876111 
L 418.724938 212.424426 
L 419.647909 214.090734 
L 420.109395 214.602053 
L 420.57088 214.73803 
L 421.032366 214.459795 
L 421.493851 213.810498 
L 422.416822 211.838233 
L 423.801278 208.861806 
L 424.724249 207.55083 
L 425.64722 206.829795 
L 426.570191 206.561163 
L 427.493162 206.636454 
L 428.416132 207.060141 
L 429.339103 207.915338 
L 430.262074 209.235843 
L 432.108016 212.375223 
L 432.569501 212.927444 
L 433.030987 213.278097 
L 433.492472 213.415733 
L 433.953958 213.364123 
L 434.876928 212.910425 
L 436.261385 212.189196 
L 438.568812 211.390258 
L 439.491783 210.586243 
L 441.337724 208.587767 
L 441.79921 208.292398 
L 442.260695 208.160662 
L 442.722181 208.210769 
L 443.183666 208.445519 
L 444.106637 209.406679 
L 445.491093 211.541756 
L 446.414064 212.9008 
L 447.337035 213.880264 
L 447.79852 214.184033 
L 448.260006 214.349736 
L 448.721491 214.364906 
L 449.182977 214.213375 
L 449.644462 213.877759 
L 450.105948 213.345136 
L 451.028918 211.698014 
L 452.413375 208.226556 
L 453.797831 204.79661 
L 454.720802 203.224212 
L 455.182287 202.777452 
L 455.643773 202.601792 
L 456.105258 202.725542 
L 456.566744 203.172526 
L 457.028229 203.961309 
L 457.489714 205.10379 
L 458.412685 208.449338 
L 459.335656 213.052794 
L 461.181598 223.280546 
L 461.643083 225.14994 
L 462.104569 226.453891 
L 462.566054 227.166369 
L 463.02754 227.348968 
L 463.489025 227.116515 
L 463.95051 226.595926 
L 465.334967 224.316099 
L 466.257938 222.86137 
L 467.180908 221.823386 
L 468.103879 221.308085 
L 469.02685 221.211223 
L 469.949821 221.213037 
L 470.411306 221.106471 
L 470.872792 220.846249 
L 471.334277 220.381638 
L 471.795763 219.681453 
L 472.718734 217.584036 
L 475.487646 209.591915 
L 475.949132 208.70403 
L 476.410617 208.070037 
L 476.872102 207.70971 
L 477.333588 207.628548 
L 477.795073 207.815901 
L 478.256559 208.24208 
L 479.17953 209.57666 
L 480.1025 210.923793 
L 480.563986 211.316858 
L 481.025471 211.401356 
L 481.486957 211.150016 
L 481.948442 210.600286 
L 484.255869 206.809616 
L 484.717355 206.421103 
L 485.17884 206.237192 
L 485.640326 206.247466 
L 486.101811 206.426337 
L 487.024782 207.143602 
L 488.870724 209.110436 
L 490.25518 210.822612 
L 492.101122 213.22276 
L 492.562607 213.497921 
L 493.024093 213.481364 
L 493.485578 213.128952 
L 493.947063 212.44995 
L 494.870034 210.401489 
L 496.254491 207.169256 
L 496.715976 206.392342 
L 497.177461 205.841263 
L 497.638947 205.52558 
L 498.100432 205.433094 
L 498.561918 205.531071 
L 499.484889 206.077002 
L 500.407859 206.619426 
L 500.869345 206.733172 
L 501.33083 206.708007 
L 502.253801 206.35757 
L 503.176772 206.05315 
L 503.638257 206.10705 
L 504.099743 206.37864 
L 504.561228 206.904836 
L 505.022714 207.701332 
L 505.945685 210.05472 
L 508.253112 217.294704 
L 508.714597 218.184579 
L 509.176083 218.721792 
L 509.637568 218.916607 
L 510.099053 218.815033 
L 510.560539 218.47876 
L 511.48351 217.330748 
L 512.867966 215.014224 
L 514.252422 212.743352 
L 515.175393 211.675432 
L 516.098364 211.125072 
L 517.021335 210.991277 
L 517.944306 210.947858 
L 518.405791 210.828942 
L 518.867277 210.588769 
L 519.790247 209.699887 
L 522.097675 206.716113 
L 522.55916 206.392026 
L 523.020645 206.24769 
L 523.482131 206.29782 
L 523.943616 206.543202 
L 524.866587 207.54588 
L 526.712529 210.226897 
L 527.174014 210.671844 
L 527.6355 210.951085 
L 528.558471 211.124944 
L 529.481441 211.229423 
L 529.942927 211.4406 
L 530.404412 211.82975 
L 530.865898 212.419965 
L 531.788869 214.140947 
L 533.173325 216.95458 
L 533.63481 217.493444 
L 534.096296 217.675741 
L 534.557781 217.499588 
L 535.480752 216.432203 
L 536.403723 215.359724 
L 536.865208 215.159406 
L 537.326694 215.316802 
L 537.788179 215.902177 
L 538.249665 216.96581 
L 538.71115 218.53897 
L 539.634121 223.208513 
L 541.480063 234.67706 
L 541.941548 235.850012 
L 542.403033 235.712949 
L 542.864519 234.559191 
L 544.248975 229.915329 
L 544.710461 229.053162 
L 545.171946 239.978455 
L 545.171946 239.978455 
" clip-path="url(#p6e2b626351)" style="fill: none; stroke: #1f77b4; stroke-linecap: square"/>
   </g>
   <g id="patch_3">
    <path d="M 48.982813 250.421875 
L 48.982813 22.32 
" style="fill: none; stroke: #000000; stroke-width: 0.8; stroke-linejoin: miter; stroke-linecap: square"/>
   </g>
   <g id="patch_4">
    <path d="M 568.8 250.421875 
L 568.8 22.32 
" style="fill: none; stroke: #000000; stroke-width: 0.8; stroke-linejoin: miter; stroke-linecap: square"/>
   </g>
   <g id="patch_5">
    <path d="M 48.982813 250.421875 
L 568.8 250.421875 
" style="fill: none; stroke: #000000; stroke-width: 0.8; stroke-linejoin: miter; stroke-linecap: square"/>
   </g>
   <g id="patch_6">
    <path d="M 48.982813 22.32 
L 568.8 22.32 
" style="fill: none; stroke: #000000; stroke-width: 0.8; stroke-linejoin: miter; stroke-linecap: square"/>
   </g>
   <g id="text_15">
    <!-- Periodogram of $x_r[n]$ -->
    <g transform="translate(246.971406 16.32) scale(0.12 -0.12)">
     <defs>
      <path id="DejaVuSans-67" d="M 2906 1791 
Q 2906 2416 2648 2759 
Q 2391 3103 1925 3103 
Q 1463 3103 1205 2759 
Q 947 2416 947 1791 
Q 947 1169 1205 825 
Q 1463 481 1925 481 
Q 2391 481 2648 825 
Q 2906 1169 2906 1791 
z
M 3481 434 
Q 3481 -459 3084 -895 
Q 2688 -1331 1869 -1331 
Q 1566 -1331 1297 -1286 
Q 1028 -1241 775 -1147 
L 775 -588 
Q 1028 -725 1275 -790 
Q 1522 -856 1778 -856 
Q 2344 -856 2625 -561 
Q 2906 -266 2906 331 
L 2906 616 
Q 2728 306 2450 153 
Q 2172 0 1784 0 
Q 1141 0 747 490 
Q 353 981 353 1791 
Q 353 2603 747 3093 
Q 1141 3584 1784 3584 
Q 2172 3584 2450 3431 
Q 2728 3278 2906 2969 
L 2906 3500 
L 3481 3500 
L 3481 434 
z
" transform="scale(0.015625)"/>
      <path id="DejaVuSans-61" d="M 2194 1759 
Q 1497 1759 1228 1600 
Q 959 1441 959 1056 
Q 959 750 1161 570 
Q 1363 391 1709 391 
Q 2188 391 2477 730 
Q 2766 1069 2766 1631 
L 2766 1759 
L 2194 1759 
z
M 3341 1997 
L 3341 0 
L 2766 0 
L 2766 531 
Q 2569 213 2275 61 
Q 1981 -91 1556 -91 
Q 1019 -91 701 211 
Q 384 513 384 1019 
Q 384 1609 779 1909 
Q 1175 2209 1959 2209 
L 2766 2209 
L 2766 2266 
Q 2766 2663 2505 2880 
Q 2244 3097 1772 3097 
Q 1472 3097 1187 3025 
Q 903 2953 641 2809 
L 641 3341 
Q 956 3463 1253 3523 
Q 1550 3584 1831 3584 
Q 2591 3584 2966 3190 
Q 3341 2797 3341 1997 
z
" transform="scale(0.015625)"/>
      <path id="DejaVuSans-6d" d="M 3328 2828 
Q 3544 3216 3844 3400 
Q 4144 3584 4550 3584 
Q 5097 3584 5394 3201 
Q 5691 2819 5691 2113 
L 5691 0 
L 5113 0 
L 5113 2094 
Q 5113 2597 4934 2840 
Q 4756 3084 4391 3084 
Q 3944 3084 3684 2787 
Q 3425 2491 3425 1978 
L 3425 0 
L 2847 0 
L 2847 2094 
Q 2847 2600 2669 2842 
Q 2491 3084 2119 3084 
Q 1678 3084 1418 2786 
Q 1159 2488 1159 1978 
L 1159 0 
L 581 0 
L 581 3500 
L 1159 3500 
L 1159 2956 
Q 1356 3278 1631 3431 
Q 1906 3584 2284 3584 
Q 2666 3584 2933 3390 
Q 3200 3197 3328 2828 
z
" transform="scale(0.015625)"/>
      <path id="DejaVuSans-66" d="M 2375 4863 
L 2375 4384 
L 1825 4384 
Q 1516 4384 1395 4259 
Q 1275 4134 1275 3809 
L 1275 3500 
L 2222 3500 
L 2222 3053 
L 1275 3053 
L 1275 0 
L 697 0 
L 697 3053 
L 147 3053 
L 147 3500 
L 697 3500 
L 697 3744 
Q 697 4328 969 4595 
Q 1241 4863 1831 4863 
L 2375 4863 
z
" transform="scale(0.015625)"/>
      <path id="DejaVuSans-Oblique-78" d="M 3841 3500 
L 2234 1784 
L 3219 0 
L 2559 0 
L 1819 1388 
L 531 0 
L -166 0 
L 1556 1844 
L 641 3500 
L 1300 3500 
L 1972 2234 
L 3144 3500 
L 3841 3500 
z
" transform="scale(0.015625)"/>
      <path id="DejaVuSans-Oblique-72" d="M 2853 2969 
Q 2766 3016 2653 3041 
Q 2541 3066 2413 3066 
Q 1953 3066 1609 2717 
Q 1266 2369 1153 1784 
L 800 0 
L 225 0 
L 909 3500 
L 1484 3500 
L 1375 2956 
Q 1603 3259 1920 3421 
Q 2238 3584 2597 3584 
Q 2691 3584 2781 3573 
Q 2872 3563 2963 3538 
L 2853 2969 
z
" transform="scale(0.015625)"/>
      <path id="DejaVuSans-5b" d="M 550 4863 
L 1875 4863 
L 1875 4416 
L 1125 4416 
L 1125 -397 
L 1875 -397 
L 1875 -844 
L 550 -844 
L 550 4863 
z
" transform="scale(0.015625)"/>
      <path id="DejaVuSans-Oblique-6e" d="M 3566 2113 
L 3156 0 
L 2578 0 
L 2988 2091 
Q 3016 2238 3031 2350 
Q 3047 2463 3047 2528 
Q 3047 2791 2881 2937 
Q 2716 3084 2419 3084 
Q 1956 3084 1622 2776 
Q 1288 2469 1184 1941 
L 800 0 
L 225 0 
L 903 3500 
L 1478 3500 
L 1363 2950 
Q 1603 3253 1940 3418 
Q 2278 3584 2650 3584 
Q 3113 3584 3367 3334 
Q 3622 3084 3622 2631 
Q 3622 2519 3608 2391 
Q 3594 2263 3566 2113 
z
" transform="scale(0.015625)"/>
      <path id="DejaVuSans-5d" d="M 1947 4863 
L 1947 -844 
L 622 -844 
L 622 -397 
L 1369 -397 
L 1369 4416 
L 622 4416 
L 622 4863 
L 1947 4863 
z
" transform="scale(0.015625)"/>
     </defs>
     <use xlink:href="#DejaVuSans-50" transform="translate(0 0.015625)"/>
     <use xlink:href="#DejaVuSans-65" transform="translate(60.302734 0.015625)"/>
     <use xlink:href="#DejaVuSans-72" transform="translate(121.826172 0.015625)"/>
     <use xlink:href="#DejaVuSans-69" transform="translate(162.939453 0.015625)"/>
     <use xlink:href="#DejaVuSans-6f" transform="translate(190.722656 0.015625)"/>
     <use xlink:href="#DejaVuSans-64" transform="translate(251.904297 0.015625)"/>
     <use xlink:href="#DejaVuSans-6f" transform="translate(315.380859 0.015625)"/>
     <use xlink:href="#DejaVuSans-67" transform="translate(376.5625 0.015625)"/>
     <use xlink:href="#DejaVuSans-72" transform="translate(440.039062 0.015625)"/>
     <use xlink:href="#DejaVuSans-61" transform="translate(481.152344 0.015625)"/>
     <use xlink:href="#DejaVuSans-6d" transform="translate(542.431641 0.015625)"/>
     <use xlink:href="#DejaVuSans-20" transform="translate(639.84375 0.015625)"/>
     <use xlink:href="#DejaVuSans-6f" transform="translate(671.630859 0.015625)"/>
     <use xlink:href="#DejaVuSans-66" transform="translate(732.8125 0.015625)"/>
     <use xlink:href="#DejaVuSans-20" transform="translate(768.017578 0.015625)"/>
     <use xlink:href="#DejaVuSans-Oblique-78" transform="translate(799.804688 0.015625)"/>
     <use xlink:href="#DejaVuSans-Oblique-72" transform="translate(858.984375 -16.390625) scale(0.7)"/>
     <use xlink:href="#DejaVuSans-5b" transform="translate(890.498047 0.015625)"/>
     <use xlink:href="#DejaVuSans-Oblique-6e" transform="translate(929.511719 0.015625)"/>
     <use xlink:href="#DejaVuSans-5d" transform="translate(992.890625 0.015625)"/>
    </g>
   </g>
  </g>
 </g>
 <defs>
  <clipPath id="p6e2b626351">
   <rect x="48.982813" y="22.32" width="519.817188" height="228.101875"/>
  </clipPath>
 </defs>
</svg>
