<?xml version="1.0" encoding="utf-8" standalone="no"?>
<!DOCTYPE svg PUBLIC "-//W3C//DTD SVG 1.1//EN"
  "http://www.w3.org/Graphics/SVG/1.1/DTD/svg11.dtd">
<svg xmlns:xlink="http://www.w3.org/1999/xlink" width="576pt" height="288pt" viewBox="0 0 576 288" xmlns="http://www.w3.org/2000/svg" version="1.1">
 <metadata>
  <rdf:RDF xmlns:dc="http://purl.org/dc/elements/1.1/" xmlns:cc="http://creativecommons.org/ns#" xmlns:rdf="http://www.w3.org/1999/02/22-rdf-syntax-ns#">
   <cc:Work>
    <dc:type rdf:resource="http://purl.org/dc/dcmitype/StillImage"/>
    <dc:date>2025-05-10T16:32:59.973356</dc:date>
    <dc:format>image/svg+xml</dc:format>
    <dc:creator>
     <cc:Agent>
      <dc:title>Matplotlib v3.10.3, https://matplotlib.org/</dc:title>
     </cc:Agent>
    </dc:creator>
   </cc:Work>
  </rdf:RDF>
 </metadata>
 <defs>
  <style type="text/css">*{stroke-linejoin: round; stroke-linecap: butt}</style>
 </defs>
 <g id="figure_1">
  <g id="patch_1">
   <path d="M 0 288 
L 576 288 
L 576 0 
L 0 0 
z
" style="fill: #ffffff"/>
  </g>
  <g id="axes_1">
   <g id="patch_2">
    <path d="M 43.78125 250.44375 
L 568.8 250.44375 
L 568.8 22.318125 
L 43.78125 22.318125 
z
" style="fill: #ffffff"/>
   </g>
   <g id="matplotlib.axis_1">
    <g id="xtick_1">
     <g id="line2d_1">
      <path d="M 67.645739 250.44375 
L 67.645739 22.318125 
" clip-path="url(#p58ec2ca78b)" style="fill: none; stroke-dasharray: 2.96,1.28; stroke-dashoffset: 0; stroke: #b0b0b0; stroke-opacity: 0.8; stroke-width: 0.8"/>
     </g>
     <g id="line2d_2">
      <defs>
       <path id="m4ac9bb5157" d="M 0 0 
L 0 3.5 
" style="stroke: #000000; stroke-width: 0.8"/>
      </defs>
      <g>
       <use xlink:href="#m4ac9bb5157" x="67.645739" y="250.44375" style="stroke: #000000; stroke-width: 0.8"/>
      </g>
     </g>
     <g id="text_1">
      <!-- −3 -->
      <g transform="translate(60.274645 265.042188) scale(0.1 -0.1)">
       <defs>
        <path id="DejaVuSans-2212" d="M 678 2272 
L 4684 2272 
L 4684 1741 
L 678 1741 
L 678 2272 
z
" transform="scale(0.015625)"/>
        <path id="DejaVuSans-33" d="M 2597 2516 
Q 3050 2419 3304 2112 
Q 3559 1806 3559 1356 
Q 3559 666 3084 287 
Q 2609 -91 1734 -91 
Q 1441 -91 1130 -33 
Q 819 25 488 141 
L 488 750 
Q 750 597 1062 519 
Q 1375 441 1716 441 
Q 2309 441 2620 675 
Q 2931 909 2931 1356 
Q 2931 1769 2642 2001 
Q 2353 2234 1838 2234 
L 1294 2234 
L 1294 2753 
L 1863 2753 
Q 2328 2753 2575 2939 
Q 2822 3125 2822 3475 
Q 2822 3834 2567 4026 
Q 2313 4219 1838 4219 
Q 1578 4219 1281 4162 
Q 984 4106 628 3988 
L 628 4550 
Q 988 4650 1302 4700 
Q 1616 4750 1894 4750 
Q 2613 4750 3031 4423 
Q 3450 4097 3450 3541 
Q 3450 3153 3228 2886 
Q 3006 2619 2597 2516 
z
" transform="scale(0.015625)"/>
       </defs>
       <use xlink:href="#DejaVuSans-2212"/>
       <use xlink:href="#DejaVuSans-33" transform="translate(83.789062 0)"/>
      </g>
     </g>
    </g>
    <g id="xtick_2">
     <g id="line2d_3">
      <path d="M 182.851649 250.44375 
L 182.851649 22.318125 
" clip-path="url(#p58ec2ca78b)" style="fill: none; stroke-dasharray: 2.96,1.28; stroke-dashoffset: 0; stroke: #b0b0b0; stroke-opacity: 0.8; stroke-width: 0.8"/>
     </g>
     <g id="line2d_4">
      <g>
       <use xlink:href="#m4ac9bb5157" x="182.851649" y="250.44375" style="stroke: #000000; stroke-width: 0.8"/>
      </g>
     </g>
     <g id="text_2">
      <!-- −2 -->
      <g transform="translate(175.480556 265.042188) scale(0.1 -0.1)">
       <defs>
        <path id="DejaVuSans-32" d="M 1228 531 
L 3431 531 
L 3431 0 
L 469 0 
L 469 531 
Q 828 903 1448 1529 
Q 2069 2156 2228 2338 
Q 2531 2678 2651 2914 
Q 2772 3150 2772 3378 
Q 2772 3750 2511 3984 
Q 2250 4219 1831 4219 
Q 1534 4219 1204 4116 
Q 875 4013 500 3803 
L 500 4441 
Q 881 4594 1212 4672 
Q 1544 4750 1819 4750 
Q 2544 4750 2975 4387 
Q 3406 4025 3406 3419 
Q 3406 3131 3298 2873 
Q 3191 2616 2906 2266 
Q 2828 2175 2409 1742 
Q 1991 1309 1228 531 
z
" transform="scale(0.015625)"/>
       </defs>
       <use xlink:href="#DejaVuSans-2212"/>
       <use xlink:href="#DejaVuSans-32" transform="translate(83.789062 0)"/>
      </g>
     </g>
    </g>
    <g id="xtick_3">
     <g id="line2d_5">
      <path d="M 298.05756 250.44375 
L 298.05756 22.318125 
" clip-path="url(#p58ec2ca78b)" style="fill: none; stroke-dasharray: 2.96,1.28; stroke-dashoffset: 0; stroke: #b0b0b0; stroke-opacity: 0.8; stroke-width: 0.8"/>
     </g>
     <g id="line2d_6">
      <g>
       <use xlink:href="#m4ac9bb5157" x="298.05756" y="250.44375" style="stroke: #000000; stroke-width: 0.8"/>
      </g>
     </g>
     <g id="text_3">
      <!-- −1 -->
      <g transform="translate(290.686466 265.042188) scale(0.1 -0.1)">
       <defs>
        <path id="DejaVuSans-31" d="M 794 531 
L 1825 531 
L 1825 4091 
L 703 3866 
L 703 4441 
L 1819 4666 
L 2450 4666 
L 2450 531 
L 3481 531 
L 3481 0 
L 794 0 
L 794 531 
z
" transform="scale(0.015625)"/>
       </defs>
       <use xlink:href="#DejaVuSans-2212"/>
       <use xlink:href="#DejaVuSans-31" transform="translate(83.789062 0)"/>
      </g>
     </g>
    </g>
    <g id="xtick_4">
     <g id="line2d_7">
      <path d="M 413.263471 250.44375 
L 413.263471 22.318125 
" clip-path="url(#p58ec2ca78b)" style="fill: none; stroke-dasharray: 2.96,1.28; stroke-dashoffset: 0; stroke: #b0b0b0; stroke-opacity: 0.8; stroke-width: 0.8"/>
     </g>
     <g id="line2d_8">
      <g>
       <use xlink:href="#m4ac9bb5157" x="413.263471" y="250.44375" style="stroke: #000000; stroke-width: 0.8"/>
      </g>
     </g>
     <g id="text_4">
      <!-- 0 -->
      <g transform="translate(410.082221 265.042188) scale(0.1 -0.1)">
       <defs>
        <path id="DejaVuSans-30" d="M 2034 4250 
Q 1547 4250 1301 3770 
Q 1056 3291 1056 2328 
Q 1056 1369 1301 889 
Q 1547 409 2034 409 
Q 2525 409 2770 889 
Q 3016 1369 3016 2328 
Q 3016 3291 2770 3770 
Q 2525 4250 2034 4250 
z
M 2034 4750 
Q 2819 4750 3233 4129 
Q 3647 3509 3647 2328 
Q 3647 1150 3233 529 
Q 2819 -91 2034 -91 
Q 1250 -91 836 529 
Q 422 1150 422 2328 
Q 422 3509 836 4129 
Q 1250 4750 2034 4750 
z
" transform="scale(0.015625)"/>
       </defs>
       <use xlink:href="#DejaVuSans-30"/>
      </g>
     </g>
    </g>
    <g id="xtick_5">
     <g id="line2d_9">
      <path d="M 528.469382 250.44375 
L 528.469382 22.318125 
" clip-path="url(#p58ec2ca78b)" style="fill: none; stroke-dasharray: 2.96,1.28; stroke-dashoffset: 0; stroke: #b0b0b0; stroke-opacity: 0.8; stroke-width: 0.8"/>
     </g>
     <g id="line2d_10">
      <g>
       <use xlink:href="#m4ac9bb5157" x="528.469382" y="250.44375" style="stroke: #000000; stroke-width: 0.8"/>
      </g>
     </g>
     <g id="text_5">
      <!-- 1 -->
      <g transform="translate(525.288132 265.042188) scale(0.1 -0.1)">
       <use xlink:href="#DejaVuSans-31"/>
      </g>
     </g>
    </g>
    <g id="text_6">
     <!-- Random variable -->
     <g transform="translate(263.83125 278.720312) scale(0.1 -0.1)">
      <defs>
       <path id="DejaVuSans-52" d="M 2841 2188 
Q 3044 2119 3236 1894 
Q 3428 1669 3622 1275 
L 4263 0 
L 3584 0 
L 2988 1197 
Q 2756 1666 2539 1819 
Q 2322 1972 1947 1972 
L 1259 1972 
L 1259 0 
L 628 0 
L 628 4666 
L 2053 4666 
Q 2853 4666 3247 4331 
Q 3641 3997 3641 3322 
Q 3641 2881 3436 2590 
Q 3231 2300 2841 2188 
z
M 1259 4147 
L 1259 2491 
L 2053 2491 
Q 2509 2491 2742 2702 
Q 2975 2913 2975 3322 
Q 2975 3731 2742 3939 
Q 2509 4147 2053 4147 
L 1259 4147 
z
" transform="scale(0.015625)"/>
       <path id="DejaVuSans-61" d="M 2194 1759 
Q 1497 1759 1228 1600 
Q 959 1441 959 1056 
Q 959 750 1161 570 
Q 1363 391 1709 391 
Q 2188 391 2477 730 
Q 2766 1069 2766 1631 
L 2766 1759 
L 2194 1759 
z
M 3341 1997 
L 3341 0 
L 2766 0 
L 2766 531 
Q 2569 213 2275 61 
Q 1981 -91 1556 -91 
Q 1019 -91 701 211 
Q 384 513 384 1019 
Q 384 1609 779 1909 
Q 1175 2209 1959 2209 
L 2766 2209 
L 2766 2266 
Q 2766 2663 2505 2880 
Q 2244 3097 1772 3097 
Q 1472 3097 1187 3025 
Q 903 2953 641 2809 
L 641 3341 
Q 956 3463 1253 3523 
Q 1550 3584 1831 3584 
Q 2591 3584 2966 3190 
Q 3341 2797 3341 1997 
z
" transform="scale(0.015625)"/>
       <path id="DejaVuSans-6e" d="M 3513 2113 
L 3513 0 
L 2938 0 
L 2938 2094 
Q 2938 2591 2744 2837 
Q 2550 3084 2163 3084 
Q 1697 3084 1428 2787 
Q 1159 2491 1159 1978 
L 1159 0 
L 581 0 
L 581 3500 
L 1159 3500 
L 1159 2956 
Q 1366 3272 1645 3428 
Q 1925 3584 2291 3584 
Q 2894 3584 3203 3211 
Q 3513 2838 3513 2113 
z
" transform="scale(0.015625)"/>
       <path id="DejaVuSans-64" d="M 2906 2969 
L 2906 4863 
L 3481 4863 
L 3481 0 
L 2906 0 
L 2906 525 
Q 2725 213 2448 61 
Q 2172 -91 1784 -91 
Q 1150 -91 751 415 
Q 353 922 353 1747 
Q 353 2572 751 3078 
Q 1150 3584 1784 3584 
Q 2172 3584 2448 3432 
Q 2725 3281 2906 2969 
z
M 947 1747 
Q 947 1113 1208 752 
Q 1469 391 1925 391 
Q 2381 391 2643 752 
Q 2906 1113 2906 1747 
Q 2906 2381 2643 2742 
Q 2381 3103 1925 3103 
Q 1469 3103 1208 2742 
Q 947 2381 947 1747 
z
" transform="scale(0.015625)"/>
       <path id="DejaVuSans-6f" d="M 1959 3097 
Q 1497 3097 1228 2736 
Q 959 2375 959 1747 
Q 959 1119 1226 758 
Q 1494 397 1959 397 
Q 2419 397 2687 759 
Q 2956 1122 2956 1747 
Q 2956 2369 2687 2733 
Q 2419 3097 1959 3097 
z
M 1959 3584 
Q 2709 3584 3137 3096 
Q 3566 2609 3566 1747 
Q 3566 888 3137 398 
Q 2709 -91 1959 -91 
Q 1206 -91 779 398 
Q 353 888 353 1747 
Q 353 2609 779 3096 
Q 1206 3584 1959 3584 
z
" transform="scale(0.015625)"/>
       <path id="DejaVuSans-6d" d="M 3328 2828 
Q 3544 3216 3844 3400 
Q 4144 3584 4550 3584 
Q 5097 3584 5394 3201 
Q 5691 2819 5691 2113 
L 5691 0 
L 5113 0 
L 5113 2094 
Q 5113 2597 4934 2840 
Q 4756 3084 4391 3084 
Q 3944 3084 3684 2787 
Q 3425 2491 3425 1978 
L 3425 0 
L 2847 0 
L 2847 2094 
Q 2847 2600 2669 2842 
Q 2491 3084 2119 3084 
Q 1678 3084 1418 2786 
Q 1159 2488 1159 1978 
L 1159 0 
L 581 0 
L 581 3500 
L 1159 3500 
L 1159 2956 
Q 1356 3278 1631 3431 
Q 1906 3584 2284 3584 
Q 2666 3584 2933 3390 
Q 3200 3197 3328 2828 
z
" transform="scale(0.015625)"/>
       <path id="DejaVuSans-20" transform="scale(0.015625)"/>
       <path id="DejaVuSans-76" d="M 191 3500 
L 800 3500 
L 1894 563 
L 2988 3500 
L 3597 3500 
L 2284 0 
L 1503 0 
L 191 3500 
z
" transform="scale(0.015625)"/>
       <path id="DejaVuSans-72" d="M 2631 2963 
Q 2534 3019 2420 3045 
Q 2306 3072 2169 3072 
Q 1681 3072 1420 2755 
Q 1159 2438 1159 1844 
L 1159 0 
L 581 0 
L 581 3500 
L 1159 3500 
L 1159 2956 
Q 1341 3275 1631 3429 
Q 1922 3584 2338 3584 
Q 2397 3584 2469 3576 
Q 2541 3569 2628 3553 
L 2631 2963 
z
" transform="scale(0.015625)"/>
       <path id="DejaVuSans-69" d="M 603 3500 
L 1178 3500 
L 1178 0 
L 603 0 
L 603 3500 
z
M 603 4863 
L 1178 4863 
L 1178 4134 
L 603 4134 
L 603 4863 
z
" transform="scale(0.015625)"/>
       <path id="DejaVuSans-62" d="M 3116 1747 
Q 3116 2381 2855 2742 
Q 2594 3103 2138 3103 
Q 1681 3103 1420 2742 
Q 1159 2381 1159 1747 
Q 1159 1113 1420 752 
Q 1681 391 2138 391 
Q 2594 391 2855 752 
Q 3116 1113 3116 1747 
z
M 1159 2969 
Q 1341 3281 1617 3432 
Q 1894 3584 2278 3584 
Q 2916 3584 3314 3078 
Q 3713 2572 3713 1747 
Q 3713 922 3314 415 
Q 2916 -91 2278 -91 
Q 1894 -91 1617 61 
Q 1341 213 1159 525 
L 1159 0 
L 581 0 
L 581 4863 
L 1159 4863 
L 1159 2969 
z
" transform="scale(0.015625)"/>
       <path id="DejaVuSans-6c" d="M 603 4863 
L 1178 4863 
L 1178 0 
L 603 0 
L 603 4863 
z
" transform="scale(0.015625)"/>
       <path id="DejaVuSans-65" d="M 3597 1894 
L 3597 1613 
L 953 1613 
Q 991 1019 1311 708 
Q 1631 397 2203 397 
Q 2534 397 2845 478 
Q 3156 559 3463 722 
L 3463 178 
Q 3153 47 2828 -22 
Q 2503 -91 2169 -91 
Q 1331 -91 842 396 
Q 353 884 353 1716 
Q 353 2575 817 3079 
Q 1281 3584 2069 3584 
Q 2775 3584 3186 3129 
Q 3597 2675 3597 1894 
z
M 3022 2063 
Q 3016 2534 2758 2815 
Q 2500 3097 2075 3097 
Q 1594 3097 1305 2825 
Q 1016 2553 972 2059 
L 3022 2063 
z
" transform="scale(0.015625)"/>
      </defs>
      <use xlink:href="#DejaVuSans-52"/>
      <use xlink:href="#DejaVuSans-61" transform="translate(67.232422 0)"/>
      <use xlink:href="#DejaVuSans-6e" transform="translate(128.511719 0)"/>
      <use xlink:href="#DejaVuSans-64" transform="translate(191.890625 0)"/>
      <use xlink:href="#DejaVuSans-6f" transform="translate(255.367188 0)"/>
      <use xlink:href="#DejaVuSans-6d" transform="translate(316.548828 0)"/>
      <use xlink:href="#DejaVuSans-20" transform="translate(413.960938 0)"/>
      <use xlink:href="#DejaVuSans-76" transform="translate(445.748047 0)"/>
      <use xlink:href="#DejaVuSans-61" transform="translate(504.927734 0)"/>
      <use xlink:href="#DejaVuSans-72" transform="translate(566.207031 0)"/>
      <use xlink:href="#DejaVuSans-69" transform="translate(607.320312 0)"/>
      <use xlink:href="#DejaVuSans-61" transform="translate(635.103516 0)"/>
      <use xlink:href="#DejaVuSans-62" transform="translate(696.382812 0)"/>
      <use xlink:href="#DejaVuSans-6c" transform="translate(759.859375 0)"/>
      <use xlink:href="#DejaVuSans-65" transform="translate(787.642578 0)"/>
     </g>
    </g>
   </g>
   <g id="matplotlib.axis_2">
    <g id="ytick_1">
     <g id="line2d_11">
      <path d="M 43.78125 250.44375 
L 568.8 250.44375 
" clip-path="url(#p58ec2ca78b)" style="fill: none; stroke-dasharray: 2.96,1.28; stroke-dashoffset: 0; stroke: #b0b0b0; stroke-opacity: 0.8; stroke-width: 0.8"/>
     </g>
     <g id="line2d_12">
      <defs>
       <path id="m4f8c65d244" d="M 0 0 
L -3.5 0 
" style="stroke: #000000; stroke-width: 0.8"/>
      </defs>
      <g>
       <use xlink:href="#m4f8c65d244" x="43.78125" y="250.44375" style="stroke: #000000; stroke-width: 0.8"/>
      </g>
     </g>
     <g id="text_7">
      <!-- 0.0 -->
      <g transform="translate(20.878125 254.242969) scale(0.1 -0.1)">
       <defs>
        <path id="DejaVuSans-2e" d="M 684 794 
L 1344 794 
L 1344 0 
L 684 0 
L 684 794 
z
" transform="scale(0.015625)"/>
       </defs>
       <use xlink:href="#DejaVuSans-30"/>
       <use xlink:href="#DejaVuSans-2e" transform="translate(63.623047 0)"/>
       <use xlink:href="#DejaVuSans-30" transform="translate(95.410156 0)"/>
      </g>
     </g>
    </g>
    <g id="ytick_2">
     <g id="line2d_13">
      <path d="M 43.78125 206.728581 
L 568.8 206.728581 
" clip-path="url(#p58ec2ca78b)" style="fill: none; stroke-dasharray: 2.96,1.28; stroke-dashoffset: 0; stroke: #b0b0b0; stroke-opacity: 0.8; stroke-width: 0.8"/>
     </g>
     <g id="line2d_14">
      <g>
       <use xlink:href="#m4f8c65d244" x="43.78125" y="206.728581" style="stroke: #000000; stroke-width: 0.8"/>
      </g>
     </g>
     <g id="text_8">
      <!-- 0.2 -->
      <g transform="translate(20.878125 210.5278) scale(0.1 -0.1)">
       <use xlink:href="#DejaVuSans-30"/>
       <use xlink:href="#DejaVuSans-2e" transform="translate(63.623047 0)"/>
       <use xlink:href="#DejaVuSans-32" transform="translate(95.410156 0)"/>
      </g>
     </g>
    </g>
    <g id="ytick_3">
     <g id="line2d_15">
      <path d="M 43.78125 163.013413 
L 568.8 163.013413 
" clip-path="url(#p58ec2ca78b)" style="fill: none; stroke-dasharray: 2.96,1.28; stroke-dashoffset: 0; stroke: #b0b0b0; stroke-opacity: 0.8; stroke-width: 0.8"/>
     </g>
     <g id="line2d_16">
      <g>
       <use xlink:href="#m4f8c65d244" x="43.78125" y="163.013413" style="stroke: #000000; stroke-width: 0.8"/>
      </g>
     </g>
     <g id="text_9">
      <!-- 0.4 -->
      <g transform="translate(20.878125 166.812631) scale(0.1 -0.1)">
       <defs>
        <path id="DejaVuSans-34" d="M 2419 4116 
L 825 1625 
L 2419 1625 
L 2419 4116 
z
M 2253 4666 
L 3047 4666 
L 3047 1625 
L 3713 1625 
L 3713 1100 
L 3047 1100 
L 3047 0 
L 2419 0 
L 2419 1100 
L 313 1100 
L 313 1709 
L 2253 4666 
z
" transform="scale(0.015625)"/>
       </defs>
       <use xlink:href="#DejaVuSans-30"/>
       <use xlink:href="#DejaVuSans-2e" transform="translate(63.623047 0)"/>
       <use xlink:href="#DejaVuSans-34" transform="translate(95.410156 0)"/>
      </g>
     </g>
    </g>
    <g id="ytick_4">
     <g id="line2d_17">
      <path d="M 43.78125 119.298244 
L 568.8 119.298244 
" clip-path="url(#p58ec2ca78b)" style="fill: none; stroke-dasharray: 2.96,1.28; stroke-dashoffset: 0; stroke: #b0b0b0; stroke-opacity: 0.8; stroke-width: 0.8"/>
     </g>
     <g id="line2d_18">
      <g>
       <use xlink:href="#m4f8c65d244" x="43.78125" y="119.298244" style="stroke: #000000; stroke-width: 0.8"/>
      </g>
     </g>
     <g id="text_10">
      <!-- 0.6 -->
      <g transform="translate(20.878125 123.097463) scale(0.1 -0.1)">
       <defs>
        <path id="DejaVuSans-36" d="M 2113 2584 
Q 1688 2584 1439 2293 
Q 1191 2003 1191 1497 
Q 1191 994 1439 701 
Q 1688 409 2113 409 
Q 2538 409 2786 701 
Q 3034 994 3034 1497 
Q 3034 2003 2786 2293 
Q 2538 2584 2113 2584 
z
M 3366 4563 
L 3366 3988 
Q 3128 4100 2886 4159 
Q 2644 4219 2406 4219 
Q 1781 4219 1451 3797 
Q 1122 3375 1075 2522 
Q 1259 2794 1537 2939 
Q 1816 3084 2150 3084 
Q 2853 3084 3261 2657 
Q 3669 2231 3669 1497 
Q 3669 778 3244 343 
Q 2819 -91 2113 -91 
Q 1303 -91 875 529 
Q 447 1150 447 2328 
Q 447 3434 972 4092 
Q 1497 4750 2381 4750 
Q 2619 4750 2861 4703 
Q 3103 4656 3366 4563 
z
" transform="scale(0.015625)"/>
       </defs>
       <use xlink:href="#DejaVuSans-30"/>
       <use xlink:href="#DejaVuSans-2e" transform="translate(63.623047 0)"/>
       <use xlink:href="#DejaVuSans-36" transform="translate(95.410156 0)"/>
      </g>
     </g>
    </g>
    <g id="ytick_5">
     <g id="line2d_19">
      <path d="M 43.78125 75.583075 
L 568.8 75.583075 
" clip-path="url(#p58ec2ca78b)" style="fill: none; stroke-dasharray: 2.96,1.28; stroke-dashoffset: 0; stroke: #b0b0b0; stroke-opacity: 0.8; stroke-width: 0.8"/>
     </g>
     <g id="line2d_20">
      <g>
       <use xlink:href="#m4f8c65d244" x="43.78125" y="75.583075" style="stroke: #000000; stroke-width: 0.8"/>
      </g>
     </g>
     <g id="text_11">
      <!-- 0.8 -->
      <g transform="translate(20.878125 79.382294) scale(0.1 -0.1)">
       <defs>
        <path id="DejaVuSans-38" d="M 2034 2216 
Q 1584 2216 1326 1975 
Q 1069 1734 1069 1313 
Q 1069 891 1326 650 
Q 1584 409 2034 409 
Q 2484 409 2743 651 
Q 3003 894 3003 1313 
Q 3003 1734 2745 1975 
Q 2488 2216 2034 2216 
z
M 1403 2484 
Q 997 2584 770 2862 
Q 544 3141 544 3541 
Q 544 4100 942 4425 
Q 1341 4750 2034 4750 
Q 2731 4750 3128 4425 
Q 3525 4100 3525 3541 
Q 3525 3141 3298 2862 
Q 3072 2584 2669 2484 
Q 3125 2378 3379 2068 
Q 3634 1759 3634 1313 
Q 3634 634 3220 271 
Q 2806 -91 2034 -91 
Q 1263 -91 848 271 
Q 434 634 434 1313 
Q 434 1759 690 2068 
Q 947 2378 1403 2484 
z
M 1172 3481 
Q 1172 3119 1398 2916 
Q 1625 2713 2034 2713 
Q 2441 2713 2670 2916 
Q 2900 3119 2900 3481 
Q 2900 3844 2670 4047 
Q 2441 4250 2034 4250 
Q 1625 4250 1398 4047 
Q 1172 3844 1172 3481 
z
" transform="scale(0.015625)"/>
       </defs>
       <use xlink:href="#DejaVuSans-30"/>
       <use xlink:href="#DejaVuSans-2e" transform="translate(63.623047 0)"/>
       <use xlink:href="#DejaVuSans-38" transform="translate(95.410156 0)"/>
      </g>
     </g>
    </g>
    <g id="ytick_6">
     <g id="line2d_21">
      <path d="M 43.78125 31.867907 
L 568.8 31.867907 
" clip-path="url(#p58ec2ca78b)" style="fill: none; stroke-dasharray: 2.96,1.28; stroke-dashoffset: 0; stroke: #b0b0b0; stroke-opacity: 0.8; stroke-width: 0.8"/>
     </g>
     <g id="line2d_22">
      <g>
       <use xlink:href="#m4f8c65d244" x="43.78125" y="31.867907" style="stroke: #000000; stroke-width: 0.8"/>
      </g>
     </g>
     <g id="text_12">
      <!-- 1.0 -->
      <g transform="translate(20.878125 35.667125) scale(0.1 -0.1)">
       <use xlink:href="#DejaVuSans-31"/>
       <use xlink:href="#DejaVuSans-2e" transform="translate(63.623047 0)"/>
       <use xlink:href="#DejaVuSans-30" transform="translate(95.410156 0)"/>
      </g>
     </g>
    </g>
    <g id="text_13">
     <!-- Probability density -->
     <g transform="translate(14.798438 182.731719) rotate(-90) scale(0.1 -0.1)">
      <defs>
       <path id="DejaVuSans-50" d="M 1259 4147 
L 1259 2394 
L 2053 2394 
Q 2494 2394 2734 2622 
Q 2975 2850 2975 3272 
Q 2975 3691 2734 3919 
Q 2494 4147 2053 4147 
L 1259 4147 
z
M 628 4666 
L 2053 4666 
Q 2838 4666 3239 4311 
Q 3641 3956 3641 3272 
Q 3641 2581 3239 2228 
Q 2838 1875 2053 1875 
L 1259 1875 
L 1259 0 
L 628 0 
L 628 4666 
z
" transform="scale(0.015625)"/>
       <path id="DejaVuSans-74" d="M 1172 4494 
L 1172 3500 
L 2356 3500 
L 2356 3053 
L 1172 3053 
L 1172 1153 
Q 1172 725 1289 603 
Q 1406 481 1766 481 
L 2356 481 
L 2356 0 
L 1766 0 
Q 1100 0 847 248 
Q 594 497 594 1153 
L 594 3053 
L 172 3053 
L 172 3500 
L 594 3500 
L 594 4494 
L 1172 4494 
z
" transform="scale(0.015625)"/>
       <path id="DejaVuSans-79" d="M 2059 -325 
Q 1816 -950 1584 -1140 
Q 1353 -1331 966 -1331 
L 506 -1331 
L 506 -850 
L 844 -850 
Q 1081 -850 1212 -737 
Q 1344 -625 1503 -206 
L 1606 56 
L 191 3500 
L 800 3500 
L 1894 763 
L 2988 3500 
L 3597 3500 
L 2059 -325 
z
" transform="scale(0.015625)"/>
       <path id="DejaVuSans-73" d="M 2834 3397 
L 2834 2853 
Q 2591 2978 2328 3040 
Q 2066 3103 1784 3103 
Q 1356 3103 1142 2972 
Q 928 2841 928 2578 
Q 928 2378 1081 2264 
Q 1234 2150 1697 2047 
L 1894 2003 
Q 2506 1872 2764 1633 
Q 3022 1394 3022 966 
Q 3022 478 2636 193 
Q 2250 -91 1575 -91 
Q 1294 -91 989 -36 
Q 684 19 347 128 
L 347 722 
Q 666 556 975 473 
Q 1284 391 1588 391 
Q 1994 391 2212 530 
Q 2431 669 2431 922 
Q 2431 1156 2273 1281 
Q 2116 1406 1581 1522 
L 1381 1569 
Q 847 1681 609 1914 
Q 372 2147 372 2553 
Q 372 3047 722 3315 
Q 1072 3584 1716 3584 
Q 2034 3584 2315 3537 
Q 2597 3491 2834 3397 
z
" transform="scale(0.015625)"/>
      </defs>
      <use xlink:href="#DejaVuSans-50"/>
      <use xlink:href="#DejaVuSans-72" transform="translate(58.552734 0)"/>
      <use xlink:href="#DejaVuSans-6f" transform="translate(97.416016 0)"/>
      <use xlink:href="#DejaVuSans-62" transform="translate(158.597656 0)"/>
      <use xlink:href="#DejaVuSans-61" transform="translate(222.074219 0)"/>
      <use xlink:href="#DejaVuSans-62" transform="translate(283.353516 0)"/>
      <use xlink:href="#DejaVuSans-69" transform="translate(346.830078 0)"/>
      <use xlink:href="#DejaVuSans-6c" transform="translate(374.613281 0)"/>
      <use xlink:href="#DejaVuSans-69" transform="translate(402.396484 0)"/>
      <use xlink:href="#DejaVuSans-74" transform="translate(430.179688 0)"/>
      <use xlink:href="#DejaVuSans-79" transform="translate(469.388672 0)"/>
      <use xlink:href="#DejaVuSans-20" transform="translate(528.568359 0)"/>
      <use xlink:href="#DejaVuSans-64" transform="translate(560.355469 0)"/>
      <use xlink:href="#DejaVuSans-65" transform="translate(623.832031 0)"/>
      <use xlink:href="#DejaVuSans-6e" transform="translate(685.355469 0)"/>
      <use xlink:href="#DejaVuSans-73" transform="translate(748.734375 0)"/>
      <use xlink:href="#DejaVuSans-69" transform="translate(800.833984 0)"/>
      <use xlink:href="#DejaVuSans-74" transform="translate(828.617188 0)"/>
      <use xlink:href="#DejaVuSans-79" transform="translate(867.826172 0)"/>
     </g>
    </g>
   </g>
   <g id="line2d_23">
    <path d="M 67.645739 250.385246 
L 90.226097 250.183858 
L 103.589983 249.859453 
L 113.728103 249.401542 
L 122.022929 248.808536 
L 128.935283 248.101074 
L 134.925991 247.281671 
L 140.455874 246.312857 
L 145.524934 245.20863 
L 150.133171 243.994075 
L 154.741407 242.548434 
L 158.88882 241.023951 
L 163.036233 239.263222 
L 167.183646 237.241996 
L 170.870235 235.207009 
L 174.556824 232.93022 
L 178.243413 230.395503 
L 181.930002 227.587749 
L 185.616591 224.49328 
L 189.30318 221.100289 
L 192.98977 217.399297 
L 196.676359 213.383621 
L 200.362948 209.049842 
L 204.049537 204.398265 
L 208.19695 198.791089 
L 212.344363 192.800698 
L 216.952599 185.721197 
L 221.560835 178.235832 
L 227.090719 168.794739 
L 233.54225 157.300213 
L 255.661785 117.424519 
L 260.270021 109.80793 
L 264.417434 103.387714 
L 268.104023 98.09966 
L 271.329789 93.843918 
L 274.555554 89.973316 
L 277.320496 86.988098 
L 280.085438 84.330512 
L 282.85038 82.018217 
L 285.154498 80.366336 
L 287.458616 78.972826 
L 289.762735 77.844279 
L 292.066853 76.986059 
L 294.370971 76.402261 
L 296.675089 76.095679 
L 298.518384 76.05104 
L 300.361678 76.184922 
L 302.665797 76.602642 
L 304.969915 77.296617 
L 307.274033 78.263531 
L 309.578151 79.498777 
L 311.882269 80.996493 
L 314.186388 82.749612 
L 316.490506 84.749916 
L 319.255448 87.463389 
L 322.02039 90.501356 
L 324.785331 93.843918 
L 328.011097 98.09966 
L 331.236862 102.703789 
L 334.923452 108.342233 
L 339.070864 115.092979 
L 344.139924 123.804599 
L 350.591455 135.381911 
L 369.485225 169.598106 
L 375.015109 179.001194 
L 380.084169 187.171066 
L 384.692405 194.164061 
L 388.839818 200.070831 
L 392.987231 205.590784 
L 397.134643 210.712354 
L 400.821233 214.92667 
L 404.507822 218.823754 
L 408.194411 222.408302 
L 411.881 225.688101 
L 415.567589 228.673558 
L 419.254178 231.377234 
L 422.940767 233.813394 
L 426.627357 235.997574 
L 430.313946 237.946186 
L 434.461358 239.877872 
L 438.608771 241.557175 
L 442.756184 243.008221 
L 447.36442 244.381326 
L 451.972657 245.532396 
L 457.041717 246.576508 
L 462.571601 247.490301 
L 468.562308 248.261096 
L 475.474663 248.924614 
L 483.308665 249.453687 
L 492.985961 249.875041 
L 505.428199 250.176256 
L 522.939498 250.358252 
L 528.469382 250.385246 
L 528.469382 250.385246 
" clip-path="url(#p58ec2ca78b)" style="fill: none; stroke: #1f77b4; stroke-linecap: square"/>
   </g>
   <g id="line2d_24">
    <path d="M 67.645739 250.443746 
L 155.202231 250.339641 
L 175.939295 249.820647 
L 178.243413 249.663624 
L 180.086708 249.603795 
L 181.469178 249.471511 
L 182.851649 249.398552 
L 184.23412 249.237642 
L 185.616591 249.149113 
L 186.999062 248.954361 
L 188.381533 248.847478 
L 189.764004 248.612946 
L 190.224828 248.612946 
L 190.685651 248.484551 
L 191.146475 248.484551 
L 191.607299 248.348215 
L 192.068122 248.348215 
L 192.528946 248.203529 
L 192.98977 248.203529 
L 193.450593 248.050067 
L 193.911417 248.050067 
L 194.37224 247.887388 
L 194.833064 247.887388 
L 195.293888 247.715035 
L 196.215535 247.715035 
L 196.676359 247.532535 
L 197.137182 247.532535 
L 197.598006 247.3394 
L 198.05883 247.3394 
L 198.519653 247.135124 
L 198.980477 247.135124 
L 199.441301 246.919187 
L 199.902124 246.919187 
L 200.362948 246.691052 
L 200.823771 246.691052 
L 201.284595 246.450165 
L 201.745419 246.450165 
L 202.206242 246.195958 
L 202.667066 246.195958 
L 203.12789 245.927845 
L 203.588713 245.927845 
L 204.049537 245.645226 
L 204.510361 245.645226 
L 204.971184 245.347485 
L 205.432008 245.347485 
L 205.892832 245.033989 
L 206.353655 245.033989 
L 206.814479 244.704094 
L 207.275302 244.704094 
L 207.736126 244.357139 
L 208.19695 244.357139 
L 208.657773 243.992448 
L 209.118597 243.992448 
L 209.579421 243.609333 
L 210.040244 243.609333 
L 210.501068 243.207094 
L 210.961892 243.207094 
L 211.422715 242.785016 
L 211.883539 242.785016 
L 212.344363 242.342375 
L 213.26601 242.342375 
L 213.726833 241.878434 
L 214.187657 241.878434 
L 214.648481 241.392448 
L 215.109304 241.392448 
L 215.570128 240.88366 
L 216.030952 240.88366 
L 216.491775 240.351308 
L 216.952599 240.351308 
L 217.413423 239.794621 
L 217.874246 239.794621 
L 218.33507 239.212822 
L 218.795894 239.212822 
L 219.256717 238.60513 
L 219.717541 238.60513 
L 220.178364 237.970759 
L 220.639188 237.970759 
L 221.100012 237.308923 
L 221.560835 237.308923 
L 222.021659 236.618832 
L 222.482483 236.618832 
L 222.943306 235.8997 
L 223.40413 235.8997 
L 223.864954 235.150741 
L 224.325777 235.150741 
L 224.786601 234.371174 
L 225.247425 234.371174 
L 225.708248 233.560221 
L 226.169072 233.560221 
L 226.629895 232.717115 
L 227.090719 232.717115 
L 227.551543 231.841096 
L 228.012366 231.841096 
L 228.47319 230.931414 
L 228.934014 230.931414 
L 229.394837 229.987333 
L 230.316485 229.987333 
L 230.777308 229.008133 
L 231.238132 229.008133 
L 231.698956 227.99311 
L 232.159779 227.99311 
L 232.620603 226.941577 
L 233.081426 226.941577 
L 233.54225 225.852872 
L 234.003074 225.852872 
L 234.463897 224.726353 
L 234.924721 224.726353 
L 235.385545 223.561406 
L 235.846368 223.561406 
L 236.307192 222.357443 
L 236.768016 222.357443 
L 237.228839 221.113909 
L 237.689663 221.113909 
L 238.150487 219.830278 
L 238.61131 219.830278 
L 239.072134 218.506061 
L 239.532957 218.506061 
L 239.993781 217.140807 
L 240.454605 217.140807 
L 240.915428 215.734101 
L 241.376252 215.734101 
L 241.837076 214.285575 
L 242.297899 214.285575 
L 242.758723 212.7949 
L 243.219547 212.7949 
L 243.68037 211.261798 
L 244.141194 211.261798 
L 244.602018 209.686036 
L 245.062841 209.686036 
L 245.523665 208.067436 
L 245.984488 208.067436 
L 246.445312 206.405869 
L 247.366959 206.405869 
L 247.827783 204.701266 
L 248.288607 204.701266 
L 248.74943 202.953613 
L 249.210254 202.953613 
L 249.671078 201.162955 
L 250.131901 201.162955 
L 250.592725 199.329402 
L 251.053549 199.329402 
L 251.514372 197.453124 
L 251.975196 197.453124 
L 252.436019 195.534358 
L 252.896843 195.534358 
L 253.357667 193.573409 
L 253.81849 193.573409 
L 254.279314 191.57065 
L 254.740138 191.57065 
L 255.200961 189.526525 
L 255.661785 189.526525 
L 256.122609 187.441547 
L 256.583432 187.441547 
L 257.044256 185.316306 
L 257.50508 185.316306 
L 257.965903 183.151464 
L 258.426727 183.151464 
L 258.88755 180.947758 
L 259.348374 180.947758 
L 259.809198 178.706001 
L 260.270021 178.706001 
L 260.730845 176.427084 
L 261.191669 176.427084 
L 261.652492 174.111974 
L 262.113316 174.111974 
L 262.57414 171.761716 
L 263.034963 171.761716 
L 263.495787 169.377433 
L 264.417434 169.377433 
L 264.878258 166.960326 
L 265.339081 166.960326 
L 265.799905 164.511673 
L 266.260729 164.511673 
L 266.721552 162.032829 
L 267.182376 162.032829 
L 267.6432 159.525227 
L 268.104023 159.525227 
L 268.564847 156.990377 
L 269.025671 156.990377 
L 269.486494 154.42986 
L 269.947318 154.42986 
L 270.408142 151.845336 
L 270.868965 151.845336 
L 271.329789 149.238535 
L 271.790612 149.238535 
L 272.251436 146.611259 
L 272.71226 146.611259 
L 273.173083 143.965379 
L 273.633907 143.965379 
L 274.094731 141.302834 
L 274.555554 141.302834 
L 275.016378 138.625629 
L 275.477202 138.625629 
L 275.938025 135.935831 
L 276.398849 135.935831 
L 276.859673 133.23557 
L 277.320496 133.23557 
L 277.78132 130.527032 
L 278.242143 130.527032 
L 278.702967 127.812458 
L 279.163791 127.812458 
L 279.624614 125.094143 
L 280.085438 125.094143 
L 280.546262 122.374431 
L 281.467909 122.374431 
L 281.928733 119.655709 
L 282.389556 119.655709 
L 282.85038 116.940409 
L 283.311204 116.940409 
L 283.772027 114.230999 
L 284.232851 114.230999 
L 284.693674 111.529984 
L 285.154498 111.529984 
L 285.615322 108.839898 
L 286.076145 108.839898 
L 286.536969 106.163302 
L 286.997793 106.163302 
L 287.458616 103.502779 
L 287.91944 103.502779 
L 288.380264 100.860929 
L 288.841087 100.860929 
L 289.301911 98.240368 
L 289.762735 98.240368 
L 290.223558 95.643719 
L 290.684382 95.643719 
L 291.145205 93.073609 
L 291.606029 93.073609 
L 292.066853 90.532667 
L 292.527676 90.532667 
L 292.9885 88.023515 
L 293.449324 88.023515 
L 293.910147 85.548767 
L 294.370971 85.548767 
L 294.831795 83.11102 
L 295.292618 83.11102 
L 295.753442 80.712854 
L 296.214266 80.712854 
L 296.675089 78.356825 
L 297.135913 78.356825 
L 297.596736 76.045459 
L 298.518384 76.045459 
L 298.979207 73.781249 
L 299.440031 73.781249 
L 299.900855 71.566649 
L 300.361678 71.566649 
L 300.822502 69.404072 
L 301.283326 69.404072 
L 301.744149 67.295882 
L 302.204973 67.295882 
L 302.665797 65.244391 
L 303.12662 65.244391 
L 303.587444 63.251855 
L 304.048267 63.251855 
L 304.509091 61.320469 
L 304.969915 61.320469 
L 305.430738 59.452364 
L 305.891562 59.452364 
L 306.352386 57.649599 
L 306.813209 57.649599 
L 307.274033 55.914165 
L 307.734857 55.914165 
L 308.19568 54.247972 
L 308.656504 54.247972 
L 309.117328 52.652851 
L 309.578151 52.652851 
L 310.038975 51.130549 
L 310.499798 51.130549 
L 310.960622 49.682726 
L 311.421446 49.682726 
L 311.882269 48.310952 
L 312.343093 48.310952 
L 312.803917 47.016704 
L 313.26474 47.016704 
L 313.725564 45.801362 
L 314.186388 45.801362 
L 314.647211 44.666209 
L 315.568859 44.666209 
L 316.029682 43.612427 
L 316.490506 43.612427 
L 316.951329 42.641094 
L 317.412153 42.641094 
L 317.872977 41.753186 
L 318.3338 41.753186 
L 318.794624 40.949571 
L 319.255448 40.949571 
L 319.716271 40.231009 
L 320.177095 40.231009 
L 320.637919 39.598155 
L 321.098742 39.598155 
L 321.559566 39.05155 
L 322.02039 39.05155 
L 322.481213 38.591629 
L 322.942037 38.591629 
L 323.40286 38.218713 
L 323.863684 38.218713 
L 324.324508 37.933015 
L 324.785331 37.933015 
L 325.246155 37.734636 
L 326.628626 37.623568 
L 328.011097 37.662782 
L 328.471921 37.662782 
L 328.932744 37.812502 
L 329.393568 37.812502 
L 329.854391 38.04841 
L 330.315215 38.04841 
L 330.776039 38.36996 
L 331.236862 38.36996 
L 331.697686 38.776502 
L 332.619333 38.776502 
L 333.080157 39.267283 
L 333.540981 39.267283 
L 334.001804 39.841453 
L 334.462628 39.841453 
L 334.923452 40.498062 
L 335.384275 40.498062 
L 335.845099 41.236068 
L 336.305922 41.236068 
L 336.766746 42.054334 
L 337.22757 42.054334 
L 337.688393 42.951636 
L 338.149217 42.951636 
L 338.610041 43.926662 
L 339.070864 43.926662 
L 339.531688 44.978017 
L 339.992512 44.978017 
L 340.453335 46.104228 
L 340.914159 46.104228 
L 341.374983 47.303741 
L 341.835806 47.303741 
L 342.29663 48.574932 
L 342.757453 48.574932 
L 343.218277 49.916106 
L 343.679101 49.916106 
L 344.139924 51.325502 
L 344.600748 51.325502 
L 345.061572 52.801298 
L 345.522395 52.801298 
L 345.983219 54.341612 
L 346.444043 54.341612 
L 346.904866 55.944508 
L 347.36569 55.944508 
L 347.826514 57.607999 
L 348.287337 57.607999 
L 348.748161 59.330053 
L 349.669808 59.330053 
L 350.130632 61.108592 
L 350.591455 61.108592 
L 351.052279 62.941503 
L 351.513103 62.941503 
L 351.973926 64.826636 
L 352.43475 64.826636 
L 352.895574 66.761813 
L 353.356397 66.761813 
L 353.817221 68.744826 
L 354.278045 68.744826 
L 354.738868 70.773447 
L 355.199692 70.773447 
L 355.660516 72.845431 
L 356.121339 72.845431 
L 356.582163 74.958513 
L 357.042986 74.958513 
L 357.50381 77.110424 
L 357.964634 77.110424 
L 358.425457 79.298883 
L 358.886281 79.298883 
L 359.347105 81.521607 
L 359.807928 81.521607 
L 360.268752 83.776317 
L 360.729576 83.776317 
L 361.190399 86.060733 
L 361.651223 86.060733 
L 362.112047 88.372587 
L 362.57287 88.372587 
L 363.033694 90.70962 
L 363.494517 90.70962 
L 363.955341 93.069587 
L 364.416165 93.069587 
L 364.876988 95.450263 
L 365.337812 95.450263 
L 365.798636 97.849441 
L 366.720283 97.849441 
L 367.181107 100.26494 
L 367.64193 100.26494 
L 368.102754 102.694604 
L 368.563578 102.694604 
L 369.024401 105.136308 
L 369.485225 105.136308 
L 369.946048 107.587958 
L 370.406872 107.587958 
L 370.867696 110.047494 
L 371.328519 110.047494 
L 371.789343 112.512894 
L 372.250167 112.512894 
L 372.71099 114.982175 
L 373.171814 114.982175 
L 373.632638 117.453394 
L 374.093461 117.453394 
L 374.554285 119.924653 
L 375.015109 119.924653 
L 375.475932 122.394097 
L 375.936756 122.394097 
L 376.397579 124.859918 
L 376.858403 124.859918 
L 377.319227 127.320357 
L 377.78005 127.320357 
L 378.240874 129.773705 
L 378.701698 129.773705 
L 379.162521 132.218302 
L 379.623345 132.218302 
L 380.084169 134.65254 
L 380.544992 134.65254 
L 381.005816 137.074867 
L 381.46664 137.074867 
L 381.927463 139.483781 
L 382.388287 139.483781 
L 382.84911 141.877837 
L 383.770758 141.877837 
L 384.231581 144.255644 
L 384.692405 144.255644 
L 385.153229 146.615866 
L 385.614052 146.615866 
L 386.074876 148.957226 
L 386.5357 148.957226 
L 386.996523 151.278499 
L 387.457347 151.278499 
L 387.918171 153.578521 
L 388.378994 153.578521 
L 388.839818 155.856179 
L 389.300641 155.856179 
L 389.761465 158.110422 
L 390.222289 158.110422 
L 390.683112 160.340252 
L 391.143936 160.340252 
L 391.60476 162.544726 
L 392.065583 162.544726 
L 392.526407 164.722959 
L 392.987231 164.722959 
L 393.448054 166.87412 
L 393.908878 166.87412 
L 394.369702 168.997432 
L 394.830525 168.997432 
L 395.291349 171.092172 
L 395.752172 171.092172 
L 396.212996 173.157671 
L 396.67382 173.157671 
L 397.134643 175.193311 
L 397.595467 175.193311 
L 398.056291 177.198526 
L 398.517114 177.198526 
L 398.977938 179.172802 
L 399.438762 179.172802 
L 399.899585 181.115672 
L 400.821233 181.115672 
L 401.282056 183.02672 
L 401.74288 183.02672 
L 402.203703 184.905576 
L 402.664527 184.905576 
L 403.125351 186.751916 
L 403.586174 186.751916 
L 404.046998 188.565463 
L 404.507822 188.565463 
L 404.968645 190.345983 
L 405.429469 190.345983 
L 405.890293 192.093284 
L 406.351116 192.093284 
L 406.81194 193.807217 
L 407.272764 193.807217 
L 407.733587 195.487672 
L 408.194411 195.487672 
L 408.655234 197.134579 
L 409.116058 197.134579 
L 409.576882 198.747904 
L 410.037705 198.747904 
L 410.498529 200.32765 
L 410.959353 200.32765 
L 411.420176 201.873856 
L 411.881 201.873856 
L 412.341824 203.386593 
L 412.802647 203.386593 
L 413.263471 204.865965 
L 413.724295 204.865965 
L 414.185118 206.312106 
L 414.645942 206.312106 
L 415.106765 207.72518 
L 415.567589 207.72518 
L 416.028413 209.105378 
L 416.489236 209.105378 
L 416.95006 210.452919 
L 417.871707 210.452919 
L 418.332531 211.768048 
L 418.793355 211.768048 
L 419.254178 213.051031 
L 419.715002 213.051031 
L 420.175826 214.302159 
L 420.636649 214.302159 
L 421.097473 215.521745 
L 421.558296 215.521745 
L 422.01912 216.710121 
L 422.479944 216.710121 
L 422.940767 217.867636 
L 423.401591 217.867636 
L 423.862415 218.99466 
L 424.323238 218.99466 
L 424.784062 220.091578 
L 425.244886 220.091578 
L 425.705709 221.158789 
L 426.166533 221.158789 
L 426.627357 222.196708 
L 427.08818 222.196708 
L 427.549004 223.205762 
L 428.009827 223.205762 
L 428.470651 224.186389 
L 428.931475 224.186389 
L 429.392298 225.139038 
L 429.853122 225.139038 
L 430.313946 226.06417 
L 430.774769 226.06417 
L 431.235593 226.962252 
L 431.696417 226.962252 
L 432.15724 227.833759 
L 432.618064 227.833759 
L 433.078888 228.679173 
L 433.539711 228.679173 
L 434.000535 229.498982 
L 434.922182 229.498982 
L 435.383006 230.293678 
L 435.843829 230.293678 
L 436.304653 231.063759 
L 436.765477 231.063759 
L 437.2263 231.809725 
L 437.687124 231.809725 
L 438.147948 232.532077 
L 438.608771 232.532077 
L 439.069595 233.23132 
L 439.530419 233.23132 
L 439.991242 233.907958 
L 440.452066 233.907958 
L 440.912889 234.562496 
L 441.373713 234.562496 
L 441.834537 235.19544 
L 442.29536 235.19544 
L 442.756184 235.807292 
L 443.217008 235.807292 
L 443.677831 236.398555 
L 444.138655 236.398555 
L 444.599479 236.969728 
L 445.060302 236.969728 
L 445.521126 237.521307 
L 445.98195 237.521307 
L 446.442773 238.053786 
L 446.903597 238.053786 
L 447.36442 238.567656 
L 447.825244 238.567656 
L 448.286068 239.063401 
L 448.746891 239.063401 
L 449.207715 239.541502 
L 449.668539 239.541502 
L 450.129362 240.002436 
L 450.590186 240.002436 
L 451.05101 240.446672 
L 451.972657 240.446672 
L 452.433481 240.874675 
L 452.894304 240.874675 
L 453.355128 241.286904 
L 453.815951 241.286904 
L 454.276775 241.683812 
L 454.737599 241.683812 
L 455.198422 242.065843 
L 455.659246 242.065843 
L 456.12007 242.433437 
L 456.580893 242.433437 
L 457.041717 242.787026 
L 457.502541 242.787026 
L 457.963364 243.127034 
L 458.424188 243.127034 
L 458.885012 243.453878 
L 459.345835 243.453878 
L 459.806659 243.767968 
L 460.267482 243.767968 
L 460.728306 244.069705 
L 461.18913 244.069705 
L 461.649953 244.359484 
L 462.110777 244.359484 
L 462.571601 244.63769 
L 463.032424 244.63769 
L 463.493248 244.904702 
L 463.954072 244.904702 
L 464.414895 245.160889 
L 464.875719 245.160889 
L 465.336543 245.406614 
L 465.797366 245.406614 
L 466.25819 245.642229 
L 466.719013 245.642229 
L 467.179837 245.868081 
L 467.640661 245.868081 
L 468.101484 246.084507 
L 469.023132 246.084507 
L 469.483955 246.291835 
L 469.944779 246.291835 
L 470.405603 246.490387 
L 470.866426 246.490387 
L 471.32725 246.680476 
L 471.788074 246.680476 
L 472.248897 246.862406 
L 472.709721 246.862406 
L 473.170544 247.036473 
L 473.631368 247.036473 
L 474.092192 247.202967 
L 474.553015 247.202967 
L 475.013839 247.362169 
L 475.474663 247.362169 
L 475.935486 247.51435 
L 476.39631 247.51435 
L 476.857134 247.659777 
L 477.317957 247.659777 
L 477.778781 247.798707 
L 478.239605 247.798707 
L 478.700428 247.93139 
L 479.161252 247.93139 
L 479.622075 248.058068 
L 480.082899 248.058068 
L 480.543723 248.178976 
L 481.004546 248.178976 
L 481.46537 248.294343 
L 482.847841 248.404389 
L 484.230312 248.609366 
L 486.073606 248.704705 
L 487.456077 248.88205 
L 488.838548 248.964425 
L 490.221019 249.11745 
L 491.60349 249.188432 
L 492.985961 249.320119 
L 494.368432 249.381121 
L 495.750903 249.494143 
L 498.055021 249.596064 
L 500.359139 249.730261 
L 503.124081 249.808565 
L 505.428199 249.911291 
L 508.653965 249.998491 
L 511.87973 250.094287 
L 517.870438 250.202728 
L 523.400322 250.279131 
L 528.469382 250.324827 
L 528.469382 250.324827 
" clip-path="url(#p58ec2ca78b)" style="fill: none; stroke: #ff7f0e; stroke-linecap: square"/>
   </g>
   <g id="patch_3">
    <path d="M 137.9132 250.44375 
L 137.9132 250.381264 
L 150.002971 250.381264 
L 150.002971 250.256293 
L 162.092743 250.318779 
L 162.092743 250.068836 
L 174.182515 250.006351 
L 174.182515 249.943865 
L 178.212439 249.943865 
L 178.212439 249.44398 
L 182.242362 249.44398 
L 182.242362 249.194038 
L 186.272286 249.194038 
L 186.272286 248.819124 
L 190.30221 248.819124 
L 190.30221 248.506696 
L 194.332134 248.506696 
L 194.332134 247.944325 
L 198.362058 247.944325 
L 198.362058 247.007041 
L 202.391982 247.007041 
L 202.391982 245.569872 
L 206.421906 245.569872 
L 206.421906 243.88276 
L 210.45183 243.88276 
L 210.45183 242.258134 
L 214.481753 242.258134 
L 214.481753 241.133393 
L 218.511677 241.133393 
L 218.511677 237.509227 
L 222.541601 237.509227 
L 222.541601 235.072288 
L 226.571525 235.072288 
L 226.571525 231.76055 
L 230.601449 231.76055 
L 230.601449 228.698754 
L 234.631373 228.698754 
L 234.631373 221.075509 
L 238.661297 221.075509 
L 238.661297 215.014404 
L 242.691221 215.014404 
L 242.691221 212.202551 
L 246.721144 212.202551 
L 246.721144 205.016704 
L 250.751068 205.016704 
L 250.751068 190.769983 
L 254.780992 190.769983 
L 254.780992 182.459396 
L 258.810916 182.459396 
L 258.810916 180.709798 
L 262.84084 180.709798 
L 262.84084 165.963192 
L 266.870764 165.963192 
L 266.870764 159.214745 
L 270.900688 159.214745 
L 270.900688 148.217276 
L 274.930612 148.217276 
L 274.930612 136.782408 
L 278.960535 136.782408 
L 278.960535 126.722223 
L 282.990459 126.722223 
L 282.990459 107.976537 
L 287.020383 107.976537 
L 287.020383 96.416697 
L 291.050307 96.416697 
L 291.050307 88.168595 
L 295.080231 88.168595 
L 295.080231 83.732116 
L 299.110155 83.732116 
L 299.110155 68.923025 
L 303.140079 68.923025 
L 303.140079 59.800124 
L 307.170003 59.800124 
L 307.170003 50.427281 
L 311.199926 50.427281 
L 311.199926 44.74109 
L 315.22985 44.74109 
L 315.22985 44.491147 
L 319.259774 44.491147 
L 319.259774 42.366636 
L 323.289698 42.366636 
L 323.289698 35.18079 
L 327.319622 35.18079 
L 327.319622 39.179869 
L 331.349546 39.179869 
L 331.349546 33.18125 
L 335.37947 33.18125 
L 335.37947 47.990342 
L 339.409394 47.990342 
L 339.409394 47.865371 
L 343.439318 47.865371 
L 343.439318 51.239594 
L 347.469241 51.239594 
L 347.469241 54.426361 
L 351.499165 54.426361 
L 351.499165 65.048916 
L 355.529089 65.048916 
L 355.529089 73.671932 
L 359.559013 73.671932 
L 359.559013 84.919343 
L 363.588937 84.919343 
L 363.588937 96.541668 
L 367.618861 96.541668 
L 367.618861 106.22694 
L 371.648785 106.22694 
L 371.648785 116.412096 
L 375.678709 116.412096 
L 375.678709 126.347309 
L 379.708632 126.347309 
L 379.708632 138.594491 
L 383.738556 138.594491 
L 383.738556 153.091154 
L 387.76848 153.091154 
L 387.76848 161.276771 
L 391.798404 161.276771 
L 391.798404 168.587588 
L 395.828328 168.587588 
L 395.828328 174.398751 
L 399.858252 174.398751 
L 399.858252 183.209223 
L 403.888176 183.209223 
L 403.888176 193.331894 
L 407.9181 193.331894 
L 407.9181 201.767452 
L 411.948023 201.767452 
L 411.948023 204.204391 
L 415.977947 204.204391 
L 415.977947 209.64064 
L 420.007871 209.64064 
L 420.007871 216.076659 
L 424.037795 216.076659 
L 424.037795 222.012793 
L 428.067719 222.012793 
L 428.067719 225.074588 
L 432.097643 225.074588 
L 432.097643 228.323841 
L 436.127567 228.323841 
L 436.127567 232.822805 
L 440.157491 232.822805 
L 440.157491 235.197259 
L 444.187414 235.197259 
L 444.187414 237.759169 
L 448.217338 237.759169 
L 448.217338 238.821425 
L 452.247262 238.821425 
L 452.247262 241.88322 
L 456.277186 241.88322 
L 456.277186 242.820504 
L 460.30711 242.820504 
L 460.30711 244.88253 
L 464.337034 244.88253 
L 464.337034 245.4449 
L 468.366958 245.4449 
L 468.366958 246.632127 
L 472.396882 246.632127 
L 472.396882 247.256983 
L 476.426805 247.256983 
L 476.426805 247.756868 
L 480.456729 247.756868 
L 480.456729 248.381725 
L 484.486653 248.381725 
L 484.486653 248.88161 
L 488.516577 248.88161 
L 488.516577 249.131552 
L 500.606349 249.131552 
L 500.606349 250.068836 
L 504.636273 250.068836 
L 504.636273 249.943865 
L 508.666196 249.943865 
L 508.666196 249.818894 
L 512.69612 249.818894 
L 512.69612 250.318779 
L 516.726044 250.318779 
L 516.726044 249.818894 
L 520.755968 249.818894 
L 520.755968 250.381264 
L 544.935511 250.318779 
L 544.935511 250.44375 
" clip-path="url(#p58ec2ca78b)" style="fill: none; stroke: #2ca02c; stroke-linejoin: miter"/>
   </g>
   <g id="patch_4">
    <path d="M 43.78125 250.44375 
L 43.78125 22.318125 
" style="fill: none; stroke: #000000; stroke-width: 0.8; stroke-linejoin: miter; stroke-linecap: square"/>
   </g>
   <g id="patch_5">
    <path d="M 568.8 250.44375 
L 568.8 22.318125 
" style="fill: none; stroke: #000000; stroke-width: 0.8; stroke-linejoin: miter; stroke-linecap: square"/>
   </g>
   <g id="patch_6">
    <path d="M 43.78125 250.44375 
L 568.8 250.44375 
" style="fill: none; stroke: #000000; stroke-width: 0.8; stroke-linejoin: miter; stroke-linecap: square"/>
   </g>
   <g id="patch_7">
    <path d="M 43.78125 22.318125 
L 568.8 22.318125 
" style="fill: none; stroke: #000000; stroke-width: 0.8; stroke-linejoin: miter; stroke-linecap: square"/>
   </g>
   <g id="text_14">
    <!-- Maximum of two normal random variables -->
    <g transform="translate(178.853437 16.318125) scale(0.12 -0.12)">
     <defs>
      <path id="DejaVuSans-4d" d="M 628 4666 
L 1569 4666 
L 2759 1491 
L 3956 4666 
L 4897 4666 
L 4897 0 
L 4281 0 
L 4281 4097 
L 3078 897 
L 2444 897 
L 1241 4097 
L 1241 0 
L 628 0 
L 628 4666 
z
" transform="scale(0.015625)"/>
      <path id="DejaVuSans-78" d="M 3513 3500 
L 2247 1797 
L 3578 0 
L 2900 0 
L 1881 1375 
L 863 0 
L 184 0 
L 1544 1831 
L 300 3500 
L 978 3500 
L 1906 2253 
L 2834 3500 
L 3513 3500 
z
" transform="scale(0.015625)"/>
      <path id="DejaVuSans-75" d="M 544 1381 
L 544 3500 
L 1119 3500 
L 1119 1403 
Q 1119 906 1312 657 
Q 1506 409 1894 409 
Q 2359 409 2629 706 
Q 2900 1003 2900 1516 
L 2900 3500 
L 3475 3500 
L 3475 0 
L 2900 0 
L 2900 538 
Q 2691 219 2414 64 
Q 2138 -91 1772 -91 
Q 1169 -91 856 284 
Q 544 659 544 1381 
z
M 1991 3584 
L 1991 3584 
z
" transform="scale(0.015625)"/>
      <path id="DejaVuSans-66" d="M 2375 4863 
L 2375 4384 
L 1825 4384 
Q 1516 4384 1395 4259 
Q 1275 4134 1275 3809 
L 1275 3500 
L 2222 3500 
L 2222 3053 
L 1275 3053 
L 1275 0 
L 697 0 
L 697 3053 
L 147 3053 
L 147 3500 
L 697 3500 
L 697 3744 
Q 697 4328 969 4595 
Q 1241 4863 1831 4863 
L 2375 4863 
z
" transform="scale(0.015625)"/>
      <path id="DejaVuSans-77" d="M 269 3500 
L 844 3500 
L 1563 769 
L 2278 3500 
L 2956 3500 
L 3675 769 
L 4391 3500 
L 4966 3500 
L 4050 0 
L 3372 0 
L 2619 2869 
L 1863 0 
L 1184 0 
L 269 3500 
z
" transform="scale(0.015625)"/>
     </defs>
     <use xlink:href="#DejaVuSans-4d"/>
     <use xlink:href="#DejaVuSans-61" transform="translate(86.279297 0)"/>
     <use xlink:href="#DejaVuSans-78" transform="translate(147.558594 0)"/>
     <use xlink:href="#DejaVuSans-69" transform="translate(206.738281 0)"/>
     <use xlink:href="#DejaVuSans-6d" transform="translate(234.521484 0)"/>
     <use xlink:href="#DejaVuSans-75" transform="translate(331.933594 0)"/>
     <use xlink:href="#DejaVuSans-6d" transform="translate(395.3125 0)"/>
     <use xlink:href="#DejaVuSans-20" transform="translate(492.724609 0)"/>
     <use xlink:href="#DejaVuSans-6f" transform="translate(524.511719 0)"/>
     <use xlink:href="#DejaVuSans-66" transform="translate(585.693359 0)"/>
     <use xlink:href="#DejaVuSans-20" transform="translate(620.898438 0)"/>
     <use xlink:href="#DejaVuSans-74" transform="translate(652.685547 0)"/>
     <use xlink:href="#DejaVuSans-77" transform="translate(691.894531 0)"/>
     <use xlink:href="#DejaVuSans-6f" transform="translate(773.681641 0)"/>
     <use xlink:href="#DejaVuSans-20" transform="translate(834.863281 0)"/>
     <use xlink:href="#DejaVuSans-6e" transform="translate(866.650391 0)"/>
     <use xlink:href="#DejaVuSans-6f" transform="translate(930.029297 0)"/>
     <use xlink:href="#DejaVuSans-72" transform="translate(991.210938 0)"/>
     <use xlink:href="#DejaVuSans-6d" transform="translate(1030.574219 0)"/>
     <use xlink:href="#DejaVuSans-61" transform="translate(1127.986328 0)"/>
     <use xlink:href="#DejaVuSans-6c" transform="translate(1189.265625 0)"/>
     <use xlink:href="#DejaVuSans-20" transform="translate(1217.048828 0)"/>
     <use xlink:href="#DejaVuSans-72" transform="translate(1248.835938 0)"/>
     <use xlink:href="#DejaVuSans-61" transform="translate(1289.949219 0)"/>
     <use xlink:href="#DejaVuSans-6e" transform="translate(1351.228516 0)"/>
     <use xlink:href="#DejaVuSans-64" transform="translate(1414.607422 0)"/>
     <use xlink:href="#DejaVuSans-6f" transform="translate(1478.083984 0)"/>
     <use xlink:href="#DejaVuSans-6d" transform="translate(1539.265625 0)"/>
     <use xlink:href="#DejaVuSans-20" transform="translate(1636.677734 0)"/>
     <use xlink:href="#DejaVuSans-76" transform="translate(1668.464844 0)"/>
     <use xlink:href="#DejaVuSans-61" transform="translate(1727.644531 0)"/>
     <use xlink:href="#DejaVuSans-72" transform="translate(1788.923828 0)"/>
     <use xlink:href="#DejaVuSans-69" transform="translate(1830.037109 0)"/>
     <use xlink:href="#DejaVuSans-61" transform="translate(1857.820312 0)"/>
     <use xlink:href="#DejaVuSans-62" transform="translate(1919.099609 0)"/>
     <use xlink:href="#DejaVuSans-6c" transform="translate(1982.576172 0)"/>
     <use xlink:href="#DejaVuSans-65" transform="translate(2010.359375 0)"/>
     <use xlink:href="#DejaVuSans-73" transform="translate(2071.882812 0)"/>
    </g>
   </g>
   <g id="legend_1">
    <g id="patch_8">
     <path d="M 422.4 74.374375 
L 561.8 74.374375 
Q 563.8 74.374375 563.8 72.374375 
L 563.8 29.318125 
Q 563.8 27.318125 561.8 27.318125 
L 422.4 27.318125 
Q 420.4 27.318125 420.4 29.318125 
L 420.4 72.374375 
Q 420.4 74.374375 422.4 74.374375 
z
" style="fill: #ffffff; opacity: 0.8; stroke: #cccccc; stroke-linejoin: miter"/>
    </g>
    <g id="line2d_25">
     <path d="M 424.4 35.416562 
L 434.4 35.416562 
L 444.4 35.416562 
" style="fill: none; stroke: #1f77b4; stroke-linecap: square"/>
    </g>
    <g id="text_15">
     <!-- $X$ -->
     <g transform="translate(452.4 38.916562) scale(0.1 -0.1)">
      <defs>
       <path id="DejaVuSans-Oblique-58" d="M 878 4666 
L 1516 4666 
L 2316 2981 
L 3763 4666 
L 4500 4666 
L 2578 2438 
L 3738 0 
L 3103 0 
L 2163 1966 
L 459 0 
L -275 0 
L 1906 2509 
L 878 4666 
z
" transform="scale(0.015625)"/>
      </defs>
      <use xlink:href="#DejaVuSans-Oblique-58" transform="translate(0 0.09375)"/>
     </g>
    </g>
    <g id="line2d_26">
     <path d="M 424.4 50.094687 
L 434.4 50.094687 
L 444.4 50.094687 
" style="fill: none; stroke: #ff7f0e; stroke-linecap: square"/>
    </g>
    <g id="text_16">
     <!-- $\max(X_1, X_2)$ -->
     <g transform="translate(452.4 53.594687) scale(0.1 -0.1)">
      <defs>
       <path id="DejaVuSans-28" d="M 1984 4856 
Q 1566 4138 1362 3434 
Q 1159 2731 1159 2009 
Q 1159 1288 1364 580 
Q 1569 -128 1984 -844 
L 1484 -844 
Q 1016 -109 783 600 
Q 550 1309 550 2009 
Q 550 2706 781 3412 
Q 1013 4119 1484 4856 
L 1984 4856 
z
" transform="scale(0.015625)"/>
       <path id="DejaVuSans-2c" d="M 750 794 
L 1409 794 
L 1409 256 
L 897 -744 
L 494 -744 
L 750 256 
L 750 794 
z
" transform="scale(0.015625)"/>
       <path id="DejaVuSans-29" d="M 513 4856 
L 1013 4856 
Q 1481 4119 1714 3412 
Q 1947 2706 1947 2009 
Q 1947 1309 1714 600 
Q 1481 -109 1013 -844 
L 513 -844 
Q 928 -128 1133 580 
Q 1338 1288 1338 2009 
Q 1338 2731 1133 3434 
Q 928 4138 513 4856 
z
" transform="scale(0.015625)"/>
      </defs>
      <use xlink:href="#DejaVuSans-6d" transform="translate(0 0.125)"/>
      <use xlink:href="#DejaVuSans-61" transform="translate(97.412109 0.125)"/>
      <use xlink:href="#DejaVuSans-78" transform="translate(158.691406 0.125)"/>
      <use xlink:href="#DejaVuSans-28" transform="translate(217.871094 0.125)"/>
      <use xlink:href="#DejaVuSans-Oblique-58" transform="translate(256.884766 0.125)"/>
      <use xlink:href="#DejaVuSans-31" transform="translate(325.390625 -16.28125) scale(0.7)"/>
      <use xlink:href="#DejaVuSans-2c" transform="translate(372.661133 0.125)"/>
      <use xlink:href="#DejaVuSans-Oblique-58" transform="translate(423.930664 0.125)"/>
      <use xlink:href="#DejaVuSans-32" transform="translate(492.436523 -16.28125) scale(0.7)"/>
      <use xlink:href="#DejaVuSans-29" transform="translate(539.707031 0.125)"/>
     </g>
    </g>
    <g id="patch_9">
     <path d="M 424.4 68.274375 
L 444.4 68.274375 
L 444.4 61.274375 
L 424.4 61.274375 
L 424.4 68.274375 
z
" style="fill: none; stroke: #2ca02c; stroke-linejoin: miter"/>
    </g>
    <g id="text_17">
     <!-- $\max(X_1, X_2)$ empirical -->
     <g transform="translate(452.4 68.274375) scale(0.1 -0.1)">
      <defs>
       <path id="DejaVuSans-70" d="M 1159 525 
L 1159 -1331 
L 581 -1331 
L 581 3500 
L 1159 3500 
L 1159 2969 
Q 1341 3281 1617 3432 
Q 1894 3584 2278 3584 
Q 2916 3584 3314 3078 
Q 3713 2572 3713 1747 
Q 3713 922 3314 415 
Q 2916 -91 2278 -91 
Q 1894 -91 1617 61 
Q 1341 213 1159 525 
z
M 3116 1747 
Q 3116 2381 2855 2742 
Q 2594 3103 2138 3103 
Q 1681 3103 1420 2742 
Q 1159 2381 1159 1747 
Q 1159 1113 1420 752 
Q 1681 391 2138 391 
Q 2594 391 2855 752 
Q 3116 1113 3116 1747 
z
" transform="scale(0.015625)"/>
       <path id="DejaVuSans-63" d="M 3122 3366 
L 3122 2828 
Q 2878 2963 2633 3030 
Q 2388 3097 2138 3097 
Q 1578 3097 1268 2742 
Q 959 2388 959 1747 
Q 959 1106 1268 751 
Q 1578 397 2138 397 
Q 2388 397 2633 464 
Q 2878 531 3122 666 
L 3122 134 
Q 2881 22 2623 -34 
Q 2366 -91 2075 -91 
Q 1284 -91 818 406 
Q 353 903 353 1747 
Q 353 2603 823 3093 
Q 1294 3584 2113 3584 
Q 2378 3584 2631 3529 
Q 2884 3475 3122 3366 
z
" transform="scale(0.015625)"/>
      </defs>
      <use xlink:href="#DejaVuSans-6d" transform="translate(0 0.015625)"/>
      <use xlink:href="#DejaVuSans-61" transform="translate(97.412109 0.015625)"/>
      <use xlink:href="#DejaVuSans-78" transform="translate(158.691406 0.015625)"/>
      <use xlink:href="#DejaVuSans-28" transform="translate(217.871094 0.015625)"/>
      <use xlink:href="#DejaVuSans-Oblique-58" transform="translate(256.884766 0.015625)"/>
      <use xlink:href="#DejaVuSans-31" transform="translate(325.390625 -16.390625) scale(0.7)"/>
      <use xlink:href="#DejaVuSans-2c" transform="translate(372.661133 0.015625)"/>
      <use xlink:href="#DejaVuSans-Oblique-58" transform="translate(423.930664 0.015625)"/>
      <use xlink:href="#DejaVuSans-32" transform="translate(492.436523 -16.390625) scale(0.7)"/>
      <use xlink:href="#DejaVuSans-29" transform="translate(539.707031 0.015625)"/>
      <use xlink:href="#DejaVuSans-20" transform="translate(578.720703 0.015625)"/>
      <use xlink:href="#DejaVuSans-65" transform="translate(610.507812 0.015625)"/>
      <use xlink:href="#DejaVuSans-6d" transform="translate(672.03125 0.015625)"/>
      <use xlink:href="#DejaVuSans-70" transform="translate(769.443359 0.015625)"/>
      <use xlink:href="#DejaVuSans-69" transform="translate(832.919922 0.015625)"/>
      <use xlink:href="#DejaVuSans-72" transform="translate(860.703125 0.015625)"/>
      <use xlink:href="#DejaVuSans-69" transform="translate(901.816406 0.015625)"/>
      <use xlink:href="#DejaVuSans-63" transform="translate(929.599609 0.015625)"/>
      <use xlink:href="#DejaVuSans-61" transform="translate(984.580078 0.015625)"/>
      <use xlink:href="#DejaVuSans-6c" transform="translate(1045.859375 0.015625)"/>
     </g>
    </g>
   </g>
  </g>
 </g>
 <defs>
  <clipPath id="p58ec2ca78b">
   <rect x="43.78125" y="22.318125" width="525.01875" height="228.125625"/>
  </clipPath>
 </defs>
</svg>
