<?xml version="1.0" encoding="utf-8" standalone="no"?>
<!DOCTYPE svg PUBLIC "-//W3C//DTD SVG 1.1//EN"
  "http://www.w3.org/Graphics/SVG/1.1/DTD/svg11.dtd">
<svg xmlns:xlink="http://www.w3.org/1999/xlink" width="576pt" height="288pt" viewBox="0 0 576 288" xmlns="http://www.w3.org/2000/svg" version="1.1">
 <metadata>
  <rdf:RDF xmlns:dc="http://purl.org/dc/elements/1.1/" xmlns:cc="http://creativecommons.org/ns#" xmlns:rdf="http://www.w3.org/1999/02/22-rdf-syntax-ns#">
   <cc:Work>
    <dc:type rdf:resource="http://purl.org/dc/dcmitype/StillImage"/>
    <dc:date>2026-05-03T15:54:02.789816</dc:date>
    <dc:format>image/svg+xml</dc:format>
    <dc:creator>
     <cc:Agent>
      <dc:title>Matplotlib v3.10.9, https://matplotlib.org/</dc:title>
     </cc:Agent>
    </dc:creator>
   </cc:Work>
  </rdf:RDF>
 </metadata>
 <defs>
  <style type="text/css">*{stroke-linejoin: round; stroke-linecap: butt}</style>
 </defs>
 <g id="figure_1">
  <g id="patch_1">
   <path d="M 0 288 
L 576 288 
L 576 0 
L 0 0 
z
" style="fill: #ffffff"/>
  </g>
  <g id="axes_1">
   <g id="patch_2">
    <path d="M 48.982813 250.421875 
L 568.8 250.421875 
L 568.8 22.32 
L 48.982813 22.32 
z
" style="fill: #ffffff"/>
   </g>
   <g id="matplotlib.axis_1">
    <g id="xtick_1">
     <g id="line2d_1">
      <path d="M 119.89006 250.421875 
L 119.89006 22.32 
" clip-path="url(#p49954d1826)" style="fill: none; stroke-dasharray: 2.96,1.28; stroke-dashoffset: 0; stroke: #b0b0b0; stroke-opacity: 0.8; stroke-width: 0.8"/>
     </g>
     <g id="line2d_2">
      <defs>
       <path id="mcf1d75d03e" d="M 0 0 
L 0 3.5 
" style="stroke: #000000; stroke-width: 0.8"/>
      </defs>
      <g>
       <use xlink:href="#mcf1d75d03e" x="119.89006" y="250.421875" style="stroke: #000000; stroke-width: 0.8"/>
      </g>
     </g>
     <g id="text_1">
      <!-- -200 -->
      <g transform="translate(108.542404 265.020312) scale(0.1 -0.1)">
       <defs>
        <path id="DejaVuSans-2d" d="M 313 2009 
L 1997 2009 
L 1997 1497 
L 313 1497 
L 313 2009 
z
" transform="scale(0.015625)"/>
        <path id="DejaVuSans-32" d="M 1228 531 
L 3431 531 
L 3431 0 
L 469 0 
L 469 531 
Q 828 903 1448 1529 
Q 2069 2156 2228 2338 
Q 2531 2678 2651 2914 
Q 2772 3150 2772 3378 
Q 2772 3750 2511 3984 
Q 2250 4219 1831 4219 
Q 1534 4219 1204 4116 
Q 875 4013 500 3803 
L 500 4441 
Q 881 4594 1212 4672 
Q 1544 4750 1819 4750 
Q 2544 4750 2975 4387 
Q 3406 4025 3406 3419 
Q 3406 3131 3298 2873 
Q 3191 2616 2906 2266 
Q 2828 2175 2409 1742 
Q 1991 1309 1228 531 
z
" transform="scale(0.015625)"/>
        <path id="DejaVuSans-30" d="M 2034 4250 
Q 1547 4250 1301 3770 
Q 1056 3291 1056 2328 
Q 1056 1369 1301 889 
Q 1547 409 2034 409 
Q 2525 409 2770 889 
Q 3016 1369 3016 2328 
Q 3016 3291 2770 3770 
Q 2525 4250 2034 4250 
z
M 2034 4750 
Q 2819 4750 3233 4129 
Q 3647 3509 3647 2328 
Q 3647 1150 3233 529 
Q 2819 -91 2034 -91 
Q 1250 -91 836 529 
Q 422 1150 422 2328 
Q 422 3509 836 4129 
Q 1250 4750 2034 4750 
z
" transform="scale(0.015625)"/>
       </defs>
       <use xlink:href="#DejaVuSans-2d"/>
       <use xlink:href="#DejaVuSans-32" transform="translate(36.083984 0)"/>
       <use xlink:href="#DejaVuSans-30" transform="translate(99.707031 0)"/>
       <use xlink:href="#DejaVuSans-30" transform="translate(163.330078 0)"/>
      </g>
     </g>
    </g>
    <g id="xtick_2">
     <g id="line2d_3">
      <path d="M 214.448447 250.421875 
L 214.448447 22.32 
" clip-path="url(#p49954d1826)" style="fill: none; stroke-dasharray: 2.96,1.28; stroke-dashoffset: 0; stroke: #b0b0b0; stroke-opacity: 0.8; stroke-width: 0.8"/>
     </g>
     <g id="line2d_4">
      <g>
       <use xlink:href="#mcf1d75d03e" x="214.448447" y="250.421875" style="stroke: #000000; stroke-width: 0.8"/>
      </g>
     </g>
     <g id="text_2">
      <!-- -100 -->
      <g transform="translate(203.100791 265.020312) scale(0.1 -0.1)">
       <defs>
        <path id="DejaVuSans-31" d="M 794 531 
L 1825 531 
L 1825 4091 
L 703 3866 
L 703 4441 
L 1819 4666 
L 2450 4666 
L 2450 531 
L 3481 531 
L 3481 0 
L 794 0 
L 794 531 
z
" transform="scale(0.015625)"/>
       </defs>
       <use xlink:href="#DejaVuSans-2d"/>
       <use xlink:href="#DejaVuSans-31" transform="translate(36.083984 0)"/>
       <use xlink:href="#DejaVuSans-30" transform="translate(99.707031 0)"/>
       <use xlink:href="#DejaVuSans-30" transform="translate(163.330078 0)"/>
      </g>
     </g>
    </g>
    <g id="xtick_3">
     <g id="line2d_5">
      <path d="M 309.006834 250.421875 
L 309.006834 22.32 
" clip-path="url(#p49954d1826)" style="fill: none; stroke-dasharray: 2.96,1.28; stroke-dashoffset: 0; stroke: #b0b0b0; stroke-opacity: 0.8; stroke-width: 0.8"/>
     </g>
     <g id="line2d_6">
      <g>
       <use xlink:href="#mcf1d75d03e" x="309.006834" y="250.421875" style="stroke: #000000; stroke-width: 0.8"/>
      </g>
     </g>
     <g id="text_3">
      <!-- 0 -->
      <g transform="translate(305.825584 265.020312) scale(0.1 -0.1)">
       <use xlink:href="#DejaVuSans-30"/>
      </g>
     </g>
    </g>
    <g id="xtick_4">
     <g id="line2d_7">
      <path d="M 403.565221 250.421875 
L 403.565221 22.32 
" clip-path="url(#p49954d1826)" style="fill: none; stroke-dasharray: 2.96,1.28; stroke-dashoffset: 0; stroke: #b0b0b0; stroke-opacity: 0.8; stroke-width: 0.8"/>
     </g>
     <g id="line2d_8">
      <g>
       <use xlink:href="#mcf1d75d03e" x="403.565221" y="250.421875" style="stroke: #000000; stroke-width: 0.8"/>
      </g>
     </g>
     <g id="text_4">
      <!-- 100 -->
      <g transform="translate(394.021471 265.020312) scale(0.1 -0.1)">
       <use xlink:href="#DejaVuSans-31"/>
       <use xlink:href="#DejaVuSans-30" transform="translate(63.623047 0)"/>
       <use xlink:href="#DejaVuSans-30" transform="translate(127.246094 0)"/>
      </g>
     </g>
    </g>
    <g id="xtick_5">
     <g id="line2d_9">
      <path d="M 498.123608 250.421875 
L 498.123608 22.32 
" clip-path="url(#p49954d1826)" style="fill: none; stroke-dasharray: 2.96,1.28; stroke-dashoffset: 0; stroke: #b0b0b0; stroke-opacity: 0.8; stroke-width: 0.8"/>
     </g>
     <g id="line2d_10">
      <g>
       <use xlink:href="#mcf1d75d03e" x="498.123608" y="250.421875" style="stroke: #000000; stroke-width: 0.8"/>
      </g>
     </g>
     <g id="text_5">
      <!-- 200 -->
      <g transform="translate(488.579858 265.020312) scale(0.1 -0.1)">
       <use xlink:href="#DejaVuSans-32"/>
       <use xlink:href="#DejaVuSans-30" transform="translate(63.623047 0)"/>
       <use xlink:href="#DejaVuSans-30" transform="translate(127.246094 0)"/>
      </g>
     </g>
    </g>
    <g id="text_6">
     <!-- Frequency (Hz), $f$ -->
     <g transform="translate(265.741406 278.7) scale(0.1 -0.1)">
      <defs>
       <path id="DejaVuSans-46" d="M 628 4666 
L 3309 4666 
L 3309 4134 
L 1259 4134 
L 1259 2759 
L 3109 2759 
L 3109 2228 
L 1259 2228 
L 1259 0 
L 628 0 
L 628 4666 
z
" transform="scale(0.015625)"/>
       <path id="DejaVuSans-72" d="M 2631 2963 
Q 2534 3019 2420 3045 
Q 2306 3072 2169 3072 
Q 1681 3072 1420 2755 
Q 1159 2438 1159 1844 
L 1159 0 
L 581 0 
L 581 3500 
L 1159 3500 
L 1159 2956 
Q 1341 3275 1631 3429 
Q 1922 3584 2338 3584 
Q 2397 3584 2469 3576 
Q 2541 3569 2628 3553 
L 2631 2963 
z
" transform="scale(0.015625)"/>
       <path id="DejaVuSans-65" d="M 3597 1894 
L 3597 1613 
L 953 1613 
Q 991 1019 1311 708 
Q 1631 397 2203 397 
Q 2534 397 2845 478 
Q 3156 559 3463 722 
L 3463 178 
Q 3153 47 2828 -22 
Q 2503 -91 2169 -91 
Q 1331 -91 842 396 
Q 353 884 353 1716 
Q 353 2575 817 3079 
Q 1281 3584 2069 3584 
Q 2775 3584 3186 3129 
Q 3597 2675 3597 1894 
z
M 3022 2063 
Q 3016 2534 2758 2815 
Q 2500 3097 2075 3097 
Q 1594 3097 1305 2825 
Q 1016 2553 972 2059 
L 3022 2063 
z
" transform="scale(0.015625)"/>
       <path id="DejaVuSans-71" d="M 947 1747 
Q 947 1113 1208 752 
Q 1469 391 1925 391 
Q 2381 391 2643 752 
Q 2906 1113 2906 1747 
Q 2906 2381 2643 2742 
Q 2381 3103 1925 3103 
Q 1469 3103 1208 2742 
Q 947 2381 947 1747 
z
M 2906 525 
Q 2725 213 2448 61 
Q 2172 -91 1784 -91 
Q 1150 -91 751 415 
Q 353 922 353 1747 
Q 353 2572 751 3078 
Q 1150 3584 1784 3584 
Q 2172 3584 2448 3432 
Q 2725 3281 2906 2969 
L 2906 3500 
L 3481 3500 
L 3481 -1331 
L 2906 -1331 
L 2906 525 
z
" transform="scale(0.015625)"/>
       <path id="DejaVuSans-75" d="M 544 1381 
L 544 3500 
L 1119 3500 
L 1119 1403 
Q 1119 906 1312 657 
Q 1506 409 1894 409 
Q 2359 409 2629 706 
Q 2900 1003 2900 1516 
L 2900 3500 
L 3475 3500 
L 3475 0 
L 2900 0 
L 2900 538 
Q 2691 219 2414 64 
Q 2138 -91 1772 -91 
Q 1169 -91 856 284 
Q 544 659 544 1381 
z
M 1991 3584 
L 1991 3584 
z
" transform="scale(0.015625)"/>
       <path id="DejaVuSans-6e" d="M 3513 2113 
L 3513 0 
L 2938 0 
L 2938 2094 
Q 2938 2591 2744 2837 
Q 2550 3084 2163 3084 
Q 1697 3084 1428 2787 
Q 1159 2491 1159 1978 
L 1159 0 
L 581 0 
L 581 3500 
L 1159 3500 
L 1159 2956 
Q 1366 3272 1645 3428 
Q 1925 3584 2291 3584 
Q 2894 3584 3203 3211 
Q 3513 2838 3513 2113 
z
" transform="scale(0.015625)"/>
       <path id="DejaVuSans-63" d="M 3122 3366 
L 3122 2828 
Q 2878 2963 2633 3030 
Q 2388 3097 2138 3097 
Q 1578 3097 1268 2742 
Q 959 2388 959 1747 
Q 959 1106 1268 751 
Q 1578 397 2138 397 
Q 2388 397 2633 464 
Q 2878 531 3122 666 
L 3122 134 
Q 2881 22 2623 -34 
Q 2366 -91 2075 -91 
Q 1284 -91 818 406 
Q 353 903 353 1747 
Q 353 2603 823 3093 
Q 1294 3584 2113 3584 
Q 2378 3584 2631 3529 
Q 2884 3475 3122 3366 
z
" transform="scale(0.015625)"/>
       <path id="DejaVuSans-79" d="M 2059 -325 
Q 1816 -950 1584 -1140 
Q 1353 -1331 966 -1331 
L 506 -1331 
L 506 -850 
L 844 -850 
Q 1081 -850 1212 -737 
Q 1344 -625 1503 -206 
L 1606 56 
L 191 3500 
L 800 3500 
L 1894 763 
L 2988 3500 
L 3597 3500 
L 2059 -325 
z
" transform="scale(0.015625)"/>
       <path id="DejaVuSans-20" transform="scale(0.015625)"/>
       <path id="DejaVuSans-28" d="M 1984 4856 
Q 1566 4138 1362 3434 
Q 1159 2731 1159 2009 
Q 1159 1288 1364 580 
Q 1569 -128 1984 -844 
L 1484 -844 
Q 1016 -109 783 600 
Q 550 1309 550 2009 
Q 550 2706 781 3412 
Q 1013 4119 1484 4856 
L 1984 4856 
z
" transform="scale(0.015625)"/>
       <path id="DejaVuSans-48" d="M 628 4666 
L 1259 4666 
L 1259 2753 
L 3553 2753 
L 3553 4666 
L 4184 4666 
L 4184 0 
L 3553 0 
L 3553 2222 
L 1259 2222 
L 1259 0 
L 628 0 
L 628 4666 
z
" transform="scale(0.015625)"/>
       <path id="DejaVuSans-7a" d="M 353 3500 
L 3084 3500 
L 3084 2975 
L 922 459 
L 3084 459 
L 3084 0 
L 275 0 
L 275 525 
L 2438 3041 
L 353 3041 
L 353 3500 
z
" transform="scale(0.015625)"/>
       <path id="DejaVuSans-29" d="M 513 4856 
L 1013 4856 
Q 1481 4119 1714 3412 
Q 1947 2706 1947 2009 
Q 1947 1309 1714 600 
Q 1481 -109 1013 -844 
L 513 -844 
Q 928 -128 1133 580 
Q 1338 1288 1338 2009 
Q 1338 2731 1133 3434 
Q 928 4138 513 4856 
z
" transform="scale(0.015625)"/>
       <path id="DejaVuSans-2c" d="M 750 794 
L 1409 794 
L 1409 256 
L 897 -744 
L 494 -744 
L 750 256 
L 750 794 
z
" transform="scale(0.015625)"/>
       <path id="DejaVuSans-Oblique-66" d="M 3059 4863 
L 2969 4384 
L 2419 4384 
Q 2106 4384 1964 4261 
Q 1822 4138 1753 3809 
L 1691 3500 
L 2638 3500 
L 2553 3053 
L 1606 3053 
L 1013 0 
L 434 0 
L 1031 3053 
L 481 3053 
L 563 3500 
L 1113 3500 
L 1159 3744 
Q 1278 4363 1576 4613 
Q 1875 4863 2516 4863 
L 3059 4863 
z
" transform="scale(0.015625)"/>
      </defs>
      <use xlink:href="#DejaVuSans-46" transform="translate(0 0.015625)"/>
      <use xlink:href="#DejaVuSans-72" transform="translate(57.519531 0.015625)"/>
      <use xlink:href="#DejaVuSans-65" transform="translate(98.632812 0.015625)"/>
      <use xlink:href="#DejaVuSans-71" transform="translate(160.15625 0.015625)"/>
      <use xlink:href="#DejaVuSans-75" transform="translate(223.632812 0.015625)"/>
      <use xlink:href="#DejaVuSans-65" transform="translate(287.011719 0.015625)"/>
      <use xlink:href="#DejaVuSans-6e" transform="translate(348.535156 0.015625)"/>
      <use xlink:href="#DejaVuSans-63" transform="translate(411.914062 0.015625)"/>
      <use xlink:href="#DejaVuSans-79" transform="translate(466.894531 0.015625)"/>
      <use xlink:href="#DejaVuSans-20" transform="translate(526.074219 0.015625)"/>
      <use xlink:href="#DejaVuSans-28" transform="translate(557.861328 0.015625)"/>
      <use xlink:href="#DejaVuSans-48" transform="translate(596.875 0.015625)"/>
      <use xlink:href="#DejaVuSans-7a" transform="translate(672.070312 0.015625)"/>
      <use xlink:href="#DejaVuSans-29" transform="translate(724.560547 0.015625)"/>
      <use xlink:href="#DejaVuSans-2c" transform="translate(763.574219 0.015625)"/>
      <use xlink:href="#DejaVuSans-20" transform="translate(795.361328 0.015625)"/>
      <use xlink:href="#DejaVuSans-Oblique-66" transform="translate(827.148438 0.015625)"/>
     </g>
    </g>
   </g>
   <g id="matplotlib.axis_2">
    <g id="ytick_1">
     <g id="line2d_11">
      <path d="M 48.982813 227.122908 
L 568.8 227.122908 
" clip-path="url(#p49954d1826)" style="fill: none; stroke-dasharray: 2.96,1.28; stroke-dashoffset: 0; stroke: #b0b0b0; stroke-opacity: 0.8; stroke-width: 0.8"/>
     </g>
     <g id="line2d_12">
      <defs>
       <path id="m802864899c" d="M 0 0 
L -3.5 0 
" style="stroke: #000000; stroke-width: 0.8"/>
      </defs>
      <g>
       <use xlink:href="#m802864899c" x="48.982813" y="227.122908" style="stroke: #000000; stroke-width: 0.8"/>
      </g>
     </g>
     <g id="text_7">
      <!-- −60 -->
      <g transform="translate(20.878125 230.922126) scale(0.1 -0.1)">
       <defs>
        <path id="DejaVuSans-2212" d="M 678 2272 
L 4684 2272 
L 4684 1741 
L 678 1741 
L 678 2272 
z
" transform="scale(0.015625)"/>
        <path id="DejaVuSans-36" d="M 2113 2584 
Q 1688 2584 1439 2293 
Q 1191 2003 1191 1497 
Q 1191 994 1439 701 
Q 1688 409 2113 409 
Q 2538 409 2786 701 
Q 3034 994 3034 1497 
Q 3034 2003 2786 2293 
Q 2538 2584 2113 2584 
z
M 3366 4563 
L 3366 3988 
Q 3128 4100 2886 4159 
Q 2644 4219 2406 4219 
Q 1781 4219 1451 3797 
Q 1122 3375 1075 2522 
Q 1259 2794 1537 2939 
Q 1816 3084 2150 3084 
Q 2853 3084 3261 2657 
Q 3669 2231 3669 1497 
Q 3669 778 3244 343 
Q 2819 -91 2113 -91 
Q 1303 -91 875 529 
Q 447 1150 447 2328 
Q 447 3434 972 4092 
Q 1497 4750 2381 4750 
Q 2619 4750 2861 4703 
Q 3103 4656 3366 4563 
z
" transform="scale(0.015625)"/>
       </defs>
       <use xlink:href="#DejaVuSans-2212"/>
       <use xlink:href="#DejaVuSans-36" transform="translate(83.789062 0)"/>
       <use xlink:href="#DejaVuSans-30" transform="translate(147.412109 0)"/>
      </g>
     </g>
    </g>
    <g id="ytick_2">
     <g id="line2d_13">
      <path d="M 48.982813 191.97764 
L 568.8 191.97764 
" clip-path="url(#p49954d1826)" style="fill: none; stroke-dasharray: 2.96,1.28; stroke-dashoffset: 0; stroke: #b0b0b0; stroke-opacity: 0.8; stroke-width: 0.8"/>
     </g>
     <g id="line2d_14">
      <g>
       <use xlink:href="#m802864899c" x="48.982813" y="191.97764" style="stroke: #000000; stroke-width: 0.8"/>
      </g>
     </g>
     <g id="text_8">
      <!-- −50 -->
      <g transform="translate(20.878125 195.776859) scale(0.1 -0.1)">
       <defs>
        <path id="DejaVuSans-35" d="M 691 4666 
L 3169 4666 
L 3169 4134 
L 1269 4134 
L 1269 2991 
Q 1406 3038 1543 3061 
Q 1681 3084 1819 3084 
Q 2600 3084 3056 2656 
Q 3513 2228 3513 1497 
Q 3513 744 3044 326 
Q 2575 -91 1722 -91 
Q 1428 -91 1123 -41 
Q 819 9 494 109 
L 494 744 
Q 775 591 1075 516 
Q 1375 441 1709 441 
Q 2250 441 2565 725 
Q 2881 1009 2881 1497 
Q 2881 1984 2565 2268 
Q 2250 2553 1709 2553 
Q 1456 2553 1204 2497 
Q 953 2441 691 2322 
L 691 4666 
z
" transform="scale(0.015625)"/>
       </defs>
       <use xlink:href="#DejaVuSans-2212"/>
       <use xlink:href="#DejaVuSans-35" transform="translate(83.789062 0)"/>
       <use xlink:href="#DejaVuSans-30" transform="translate(147.412109 0)"/>
      </g>
     </g>
    </g>
    <g id="ytick_3">
     <g id="line2d_15">
      <path d="M 48.982813 156.832373 
L 568.8 156.832373 
" clip-path="url(#p49954d1826)" style="fill: none; stroke-dasharray: 2.96,1.28; stroke-dashoffset: 0; stroke: #b0b0b0; stroke-opacity: 0.8; stroke-width: 0.8"/>
     </g>
     <g id="line2d_16">
      <g>
       <use xlink:href="#m802864899c" x="48.982813" y="156.832373" style="stroke: #000000; stroke-width: 0.8"/>
      </g>
     </g>
     <g id="text_9">
      <!-- −40 -->
      <g transform="translate(20.878125 160.631592) scale(0.1 -0.1)">
       <defs>
        <path id="DejaVuSans-34" d="M 2419 4116 
L 825 1625 
L 2419 1625 
L 2419 4116 
z
M 2253 4666 
L 3047 4666 
L 3047 1625 
L 3713 1625 
L 3713 1100 
L 3047 1100 
L 3047 0 
L 2419 0 
L 2419 1100 
L 313 1100 
L 313 1709 
L 2253 4666 
z
" transform="scale(0.015625)"/>
       </defs>
       <use xlink:href="#DejaVuSans-2212"/>
       <use xlink:href="#DejaVuSans-34" transform="translate(83.789062 0)"/>
       <use xlink:href="#DejaVuSans-30" transform="translate(147.412109 0)"/>
      </g>
     </g>
    </g>
    <g id="ytick_4">
     <g id="line2d_17">
      <path d="M 48.982813 121.687106 
L 568.8 121.687106 
" clip-path="url(#p49954d1826)" style="fill: none; stroke-dasharray: 2.96,1.28; stroke-dashoffset: 0; stroke: #b0b0b0; stroke-opacity: 0.8; stroke-width: 0.8"/>
     </g>
     <g id="line2d_18">
      <g>
       <use xlink:href="#m802864899c" x="48.982813" y="121.687106" style="stroke: #000000; stroke-width: 0.8"/>
      </g>
     </g>
     <g id="text_10">
      <!-- −30 -->
      <g transform="translate(20.878125 125.486325) scale(0.1 -0.1)">
       <defs>
        <path id="DejaVuSans-33" d="M 2597 2516 
Q 3050 2419 3304 2112 
Q 3559 1806 3559 1356 
Q 3559 666 3084 287 
Q 2609 -91 1734 -91 
Q 1441 -91 1130 -33 
Q 819 25 488 141 
L 488 750 
Q 750 597 1062 519 
Q 1375 441 1716 441 
Q 2309 441 2620 675 
Q 2931 909 2931 1356 
Q 2931 1769 2642 2001 
Q 2353 2234 1838 2234 
L 1294 2234 
L 1294 2753 
L 1863 2753 
Q 2328 2753 2575 2939 
Q 2822 3125 2822 3475 
Q 2822 3834 2567 4026 
Q 2313 4219 1838 4219 
Q 1578 4219 1281 4162 
Q 984 4106 628 3988 
L 628 4550 
Q 988 4650 1302 4700 
Q 1616 4750 1894 4750 
Q 2613 4750 3031 4423 
Q 3450 4097 3450 3541 
Q 3450 3153 3228 2886 
Q 3006 2619 2597 2516 
z
" transform="scale(0.015625)"/>
       </defs>
       <use xlink:href="#DejaVuSans-2212"/>
       <use xlink:href="#DejaVuSans-33" transform="translate(83.789062 0)"/>
       <use xlink:href="#DejaVuSans-30" transform="translate(147.412109 0)"/>
      </g>
     </g>
    </g>
    <g id="ytick_5">
     <g id="line2d_19">
      <path d="M 48.982813 86.541839 
L 568.8 86.541839 
" clip-path="url(#p49954d1826)" style="fill: none; stroke-dasharray: 2.96,1.28; stroke-dashoffset: 0; stroke: #b0b0b0; stroke-opacity: 0.8; stroke-width: 0.8"/>
     </g>
     <g id="line2d_20">
      <g>
       <use xlink:href="#m802864899c" x="48.982813" y="86.541839" style="stroke: #000000; stroke-width: 0.8"/>
      </g>
     </g>
     <g id="text_11">
      <!-- −20 -->
      <g transform="translate(20.878125 90.341057) scale(0.1 -0.1)">
       <use xlink:href="#DejaVuSans-2212"/>
       <use xlink:href="#DejaVuSans-32" transform="translate(83.789062 0)"/>
       <use xlink:href="#DejaVuSans-30" transform="translate(147.412109 0)"/>
      </g>
     </g>
    </g>
    <g id="ytick_6">
     <g id="line2d_21">
      <path d="M 48.982813 51.396571 
L 568.8 51.396571 
" clip-path="url(#p49954d1826)" style="fill: none; stroke-dasharray: 2.96,1.28; stroke-dashoffset: 0; stroke: #b0b0b0; stroke-opacity: 0.8; stroke-width: 0.8"/>
     </g>
     <g id="line2d_22">
      <g>
       <use xlink:href="#m802864899c" x="48.982813" y="51.396571" style="stroke: #000000; stroke-width: 0.8"/>
      </g>
     </g>
     <g id="text_12">
      <!-- −10 -->
      <g transform="translate(20.878125 55.19579) scale(0.1 -0.1)">
       <use xlink:href="#DejaVuSans-2212"/>
       <use xlink:href="#DejaVuSans-31" transform="translate(83.789062 0)"/>
       <use xlink:href="#DejaVuSans-30" transform="translate(147.412109 0)"/>
      </g>
     </g>
    </g>
    <g id="text_13">
     <!-- Power density (dB/Hz) -->
     <g transform="translate(14.798437 191.570938) rotate(-90) scale(0.1 -0.1)">
      <defs>
       <path id="DejaVuSans-50" d="M 1259 4147 
L 1259 2394 
L 2053 2394 
Q 2494 2394 2734 2622 
Q 2975 2850 2975 3272 
Q 2975 3691 2734 3919 
Q 2494 4147 2053 4147 
L 1259 4147 
z
M 628 4666 
L 2053 4666 
Q 2838 4666 3239 4311 
Q 3641 3956 3641 3272 
Q 3641 2581 3239 2228 
Q 2838 1875 2053 1875 
L 1259 1875 
L 1259 0 
L 628 0 
L 628 4666 
z
" transform="scale(0.015625)"/>
       <path id="DejaVuSans-6f" d="M 1959 3097 
Q 1497 3097 1228 2736 
Q 959 2375 959 1747 
Q 959 1119 1226 758 
Q 1494 397 1959 397 
Q 2419 397 2687 759 
Q 2956 1122 2956 1747 
Q 2956 2369 2687 2733 
Q 2419 3097 1959 3097 
z
M 1959 3584 
Q 2709 3584 3137 3096 
Q 3566 2609 3566 1747 
Q 3566 888 3137 398 
Q 2709 -91 1959 -91 
Q 1206 -91 779 398 
Q 353 888 353 1747 
Q 353 2609 779 3096 
Q 1206 3584 1959 3584 
z
" transform="scale(0.015625)"/>
       <path id="DejaVuSans-77" d="M 269 3500 
L 844 3500 
L 1563 769 
L 2278 3500 
L 2956 3500 
L 3675 769 
L 4391 3500 
L 4966 3500 
L 4050 0 
L 3372 0 
L 2619 2869 
L 1863 0 
L 1184 0 
L 269 3500 
z
" transform="scale(0.015625)"/>
       <path id="DejaVuSans-64" d="M 2906 2969 
L 2906 4863 
L 3481 4863 
L 3481 0 
L 2906 0 
L 2906 525 
Q 2725 213 2448 61 
Q 2172 -91 1784 -91 
Q 1150 -91 751 415 
Q 353 922 353 1747 
Q 353 2572 751 3078 
Q 1150 3584 1784 3584 
Q 2172 3584 2448 3432 
Q 2725 3281 2906 2969 
z
M 947 1747 
Q 947 1113 1208 752 
Q 1469 391 1925 391 
Q 2381 391 2643 752 
Q 2906 1113 2906 1747 
Q 2906 2381 2643 2742 
Q 2381 3103 1925 3103 
Q 1469 3103 1208 2742 
Q 947 2381 947 1747 
z
" transform="scale(0.015625)"/>
       <path id="DejaVuSans-73" d="M 2834 3397 
L 2834 2853 
Q 2591 2978 2328 3040 
Q 2066 3103 1784 3103 
Q 1356 3103 1142 2972 
Q 928 2841 928 2578 
Q 928 2378 1081 2264 
Q 1234 2150 1697 2047 
L 1894 2003 
Q 2506 1872 2764 1633 
Q 3022 1394 3022 966 
Q 3022 478 2636 193 
Q 2250 -91 1575 -91 
Q 1294 -91 989 -36 
Q 684 19 347 128 
L 347 722 
Q 666 556 975 473 
Q 1284 391 1588 391 
Q 1994 391 2212 530 
Q 2431 669 2431 922 
Q 2431 1156 2273 1281 
Q 2116 1406 1581 1522 
L 1381 1569 
Q 847 1681 609 1914 
Q 372 2147 372 2553 
Q 372 3047 722 3315 
Q 1072 3584 1716 3584 
Q 2034 3584 2315 3537 
Q 2597 3491 2834 3397 
z
" transform="scale(0.015625)"/>
       <path id="DejaVuSans-69" d="M 603 3500 
L 1178 3500 
L 1178 0 
L 603 0 
L 603 3500 
z
M 603 4863 
L 1178 4863 
L 1178 4134 
L 603 4134 
L 603 4863 
z
" transform="scale(0.015625)"/>
       <path id="DejaVuSans-74" d="M 1172 4494 
L 1172 3500 
L 2356 3500 
L 2356 3053 
L 1172 3053 
L 1172 1153 
Q 1172 725 1289 603 
Q 1406 481 1766 481 
L 2356 481 
L 2356 0 
L 1766 0 
Q 1100 0 847 248 
Q 594 497 594 1153 
L 594 3053 
L 172 3053 
L 172 3500 
L 594 3500 
L 594 4494 
L 1172 4494 
z
" transform="scale(0.015625)"/>
       <path id="DejaVuSans-42" d="M 1259 2228 
L 1259 519 
L 2272 519 
Q 2781 519 3026 730 
Q 3272 941 3272 1375 
Q 3272 1813 3026 2020 
Q 2781 2228 2272 2228 
L 1259 2228 
z
M 1259 4147 
L 1259 2741 
L 2194 2741 
Q 2656 2741 2882 2914 
Q 3109 3088 3109 3444 
Q 3109 3797 2882 3972 
Q 2656 4147 2194 4147 
L 1259 4147 
z
M 628 4666 
L 2241 4666 
Q 2963 4666 3353 4366 
Q 3744 4066 3744 3513 
Q 3744 3084 3544 2831 
Q 3344 2578 2956 2516 
Q 3422 2416 3680 2098 
Q 3938 1781 3938 1306 
Q 3938 681 3513 340 
Q 3088 0 2303 0 
L 628 0 
L 628 4666 
z
" transform="scale(0.015625)"/>
       <path id="DejaVuSans-2f" d="M 1625 4666 
L 2156 4666 
L 531 -594 
L 0 -594 
L 1625 4666 
z
" transform="scale(0.015625)"/>
      </defs>
      <use xlink:href="#DejaVuSans-50"/>
      <use xlink:href="#DejaVuSans-6f" transform="translate(56.677734 0)"/>
      <use xlink:href="#DejaVuSans-77" transform="translate(117.859375 0)"/>
      <use xlink:href="#DejaVuSans-65" transform="translate(199.646484 0)"/>
      <use xlink:href="#DejaVuSans-72" transform="translate(261.169922 0)"/>
      <use xlink:href="#DejaVuSans-20" transform="translate(302.283203 0)"/>
      <use xlink:href="#DejaVuSans-64" transform="translate(334.070312 0)"/>
      <use xlink:href="#DejaVuSans-65" transform="translate(397.546875 0)"/>
      <use xlink:href="#DejaVuSans-6e" transform="translate(459.070312 0)"/>
      <use xlink:href="#DejaVuSans-73" transform="translate(522.449219 0)"/>
      <use xlink:href="#DejaVuSans-69" transform="translate(574.548828 0)"/>
      <use xlink:href="#DejaVuSans-74" transform="translate(602.332031 0)"/>
      <use xlink:href="#DejaVuSans-79" transform="translate(641.541016 0)"/>
      <use xlink:href="#DejaVuSans-20" transform="translate(700.720703 0)"/>
      <use xlink:href="#DejaVuSans-28" transform="translate(732.507812 0)"/>
      <use xlink:href="#DejaVuSans-64" transform="translate(771.521484 0)"/>
      <use xlink:href="#DejaVuSans-42" transform="translate(834.998047 0)"/>
      <use xlink:href="#DejaVuSans-2f" transform="translate(903.601562 0)"/>
      <use xlink:href="#DejaVuSans-48" transform="translate(937.292969 0)"/>
      <use xlink:href="#DejaVuSans-7a" transform="translate(1012.488281 0)"/>
      <use xlink:href="#DejaVuSans-29" transform="translate(1064.978516 0)"/>
     </g>
    </g>
   </g>
   <g id="line2d_23">
    <path d="M 72.610866 214.254373 
L 73.765144 223.072579 
L 73.995999 223.87668 
L 74.226855 224.093754 
L 74.45771 223.816805 
L 74.919421 222.458461 
L 75.611987 220.365874 
L 77.920542 215.421868 
L 78.382252 215.002728 
L 78.613108 215.019134 
L 79.305674 215.445543 
L 79.53653 215.392127 
L 79.767385 215.058294 
L 80.229096 213.372682 
L 81.845084 204.980117 
L 82.306795 204.086859 
L 82.53765 203.913307 
L 82.768506 203.883237 
L 83.230217 204.142476 
L 83.922783 205.029096 
L 84.846205 206.310456 
L 85.07706 206.427336 
L 85.307916 206.392208 
L 85.769626 205.860219 
L 86.693048 204.156707 
L 86.923904 203.939637 
L 87.154759 203.896179 
L 87.385614 204.048898 
L 87.61647 204.408945 
L 88.078181 205.753707 
L 88.539892 207.885305 
L 89.232458 212.344361 
L 90.848446 223.971874 
L 91.310157 225.432951 
L 91.541012 225.718948 
L 91.771868 225.786072 
L 92.233579 225.552294 
L 93.157 224.915354 
L 94.080422 224.600808 
L 94.542133 224.593147 
L 95.003844 224.824648 
L 95.927266 225.611428 
L 96.158121 225.442798 
L 96.388976 224.89599 
L 96.850687 222.478807 
L 98.466675 210.487198 
L 98.928386 208.742848 
L 99.390097 207.709462 
L 101.467796 204.374377 
L 101.698652 204.250865 
L 101.929507 204.286112 
L 102.160362 204.499819 
L 102.622073 205.503533 
L 103.083784 207.272926 
L 103.77635 211.08568 
L 104.699772 216.358691 
L 105.161483 217.699276 
L 105.392339 217.850528 
L 105.623194 217.681932 
L 106.084905 216.6839 
L 107.008327 214.299893 
L 107.700893 213.314018 
L 108.393459 212.438033 
L 108.85517 211.442391 
L 110.240303 207.755086 
L 110.471158 207.492434 
L 110.702014 207.414984 
L 110.932869 207.528158 
L 111.39458 208.275376 
L 112.548857 210.973613 
L 112.779713 211.110341 
L 113.010568 210.9995 
L 113.472279 210.118176 
L 114.626556 206.961958 
L 115.088267 206.488174 
L 115.319122 206.550054 
L 115.549978 206.834156 
L 116.011689 208.115301 
L 116.4734 210.367437 
L 117.858532 219.002369 
L 118.089388 219.339613 
L 118.320243 219.059861 
L 118.781954 217.080966 
L 119.705376 212.053072 
L 120.167086 210.608407 
L 120.397942 210.294746 
L 120.628797 210.283767 
L 120.859653 210.598318 
L 121.090508 211.260928 
L 121.552219 213.687986 
L 122.706496 222.683156 
L 122.937352 222.952787 
L 123.168207 222.106396 
L 123.629918 218.163395 
L 124.322484 212.099173 
L 124.784195 210.032307 
L 125.015051 209.712438 
L 125.245906 209.859531 
L 125.476762 210.451441 
L 125.938472 212.803543 
L 126.861894 219.092754 
L 127.09275 219.835254 
L 127.323605 219.884943 
L 127.55446 219.288232 
L 128.939593 213.26735 
L 129.170449 212.949738 
L 129.632159 212.804952 
L 130.09387 212.75724 
L 130.555581 212.313825 
L 131.479003 210.962991 
L 131.709858 210.90954 
L 131.940714 211.074583 
L 132.171569 211.479346 
L 132.63328 212.996905 
L 134.018413 219.114189 
L 134.249268 219.28844 
L 134.480124 219.022553 
L 134.941834 217.443149 
L 135.865256 213.4068 
L 136.326967 212.378168 
L 136.557823 212.278422 
L 136.788678 212.494285 
L 137.019533 213.053064 
L 137.481244 215.303849 
L 137.942955 219.164233 
L 138.866377 228.536074 
L 139.097232 229.039359 
L 139.328088 227.989564 
L 139.789799 222.646929 
L 140.482365 213.918648 
L 140.944076 210.084429 
L 141.405787 208.152026 
L 141.636642 207.896329 
L 141.867498 208.111664 
L 142.098353 208.796293 
L 142.560064 211.541277 
L 143.25263 218.35907 
L 143.714341 222.565713 
L 143.945197 223.452371 
L 144.176052 223.131147 
L 144.406907 221.68858 
L 145.099474 214.24062 
L 145.79204 207.317953 
L 146.484606 202.797982 
L 146.946317 201.183933 
L 147.177173 200.77964 
L 147.408028 200.627564 
L 147.638884 200.709173 
L 147.869739 201.000195 
L 148.33145 202.086713 
L 149.254872 205.332475 
L 150.178293 209.277658 
L 150.87086 213.502906 
L 151.794281 221.446228 
L 152.255992 225.11314 
L 152.486848 226.296 
L 152.717703 226.850078 
L 152.948559 226.745664 
L 153.179414 226.055687 
L 153.641125 223.43733 
L 154.564547 215.949153 
L 155.487968 208.646106 
L 155.949679 206.211805 
L 156.41139 205.077905 
L 156.642246 205.083186 
L 156.873101 205.505022 
L 157.103956 206.358131 
L 157.565667 209.313336 
L 158.9508 220.382773 
L 159.643366 222.872183 
L 159.874222 223.298635 
L 160.105077 223.303822 
L 160.335933 222.847615 
L 161.028499 220.863008 
L 161.259354 220.30237 
L 161.49021 218.958942 
L 161.721065 215.966399 
L 162.644487 198.29415 
L 162.875342 197.303265 
L 163.106198 199.271512 
L 163.567909 211.797435 
L 163.798764 200.695934 
L 164.260475 165.853936 
L 164.722186 143.349644 
L 165.414752 121.985676 
L 165.876463 112.888512 
L 166.338174 106.901533 
L 166.799885 103.636768 
L 167.03074 102.962914 
L 167.261596 102.914096 
L 167.492451 103.490185 
L 167.723307 104.699236 
L 168.185017 109.093851 
L 168.646728 116.370256 
L 169.108439 127.081749 
L 169.57015 142.376746 
L 170.031861 165.094718 
L 170.724427 221.549663 
L 171.186138 199.353438 
L 171.416994 196.265907 
L 171.647849 196.56029 
L 171.878704 199.057564 
L 172.571271 209.280507 
L 172.802126 210.073601 
L 173.032982 209.609321 
L 173.263837 208.888831 
L 173.494692 208.550283 
L 173.725548 208.794944 
L 174.187259 210.65516 
L 174.879825 213.898261 
L 175.341536 214.998994 
L 175.572391 215.155016 
L 175.803247 215.017275 
L 176.034102 214.569217 
L 176.495813 212.880682 
L 177.419235 208.905656 
L 177.880946 207.742337 
L 178.342657 207.311232 
L 178.573512 207.34794 
L 179.035223 207.854507 
L 179.496934 208.833626 
L 180.1895 210.898264 
L 181.112922 213.721779 
L 181.574633 214.484543 
L 181.805488 214.594999 
L 182.036344 214.524248 
L 182.498054 213.947844 
L 183.421476 212.352573 
L 183.883187 212.077686 
L 184.114043 212.161007 
L 184.575753 212.663746 
L 185.037464 213.150806 
L 185.26832 213.156768 
L 185.499175 212.912141 
L 185.960886 211.718854 
L 186.653452 209.569011 
L 186.884308 209.190041 
L 187.115163 209.10023 
L 187.346019 209.324915 
L 187.80773 210.654734 
L 188.731151 214.547906 
L 188.962007 215.099824 
L 189.192862 215.354731 
L 189.423718 215.367459 
L 190.116284 215.043948 
L 190.347139 215.117104 
L 190.80885 215.626029 
L 191.270561 216.095794 
L 191.501417 216.03092 
L 191.732272 215.649825 
L 192.193983 213.965478 
L 193.34826 208.724177 
L 193.809971 207.804782 
L 194.040826 207.701937 
L 194.271682 207.835983 
L 194.502537 208.202296 
L 194.964248 209.614951 
L 195.425959 211.921952 
L 196.118525 217.004171 
L 197.272802 226.988193 
L 197.734513 229.063003 
L 197.965369 229.471751 
L 198.42708 229.641731 
L 198.888791 229.826917 
L 199.581357 230.511662 
L 199.812212 230.463157 
L 200.043068 230.06027 
L 200.504779 228.067807 
L 203.044188 212.760416 
L 203.736755 209.80848 
L 204.198466 208.828694 
L 204.429321 208.744384 
L 204.660176 208.956847 
L 204.891032 209.471057 
L 205.352743 211.352165 
L 206.968731 220.187595 
L 207.430442 221.019602 
L 208.353863 221.954698 
L 209.04643 222.779255 
L 209.277285 222.850855 
L 209.508141 222.743131 
L 209.969851 222.013181 
L 211.354984 218.928113 
L 213.201828 216.055387 
L 213.663538 215.740059 
L 214.125249 215.762365 
L 214.817816 216.16589 
L 215.510382 216.818506 
L 215.972093 217.714888 
L 216.433804 219.302765 
L 217.357225 223.120897 
L 217.588081 223.325731 
L 217.818936 222.938184 
L 218.280647 220.687043 
L 218.973214 216.521312 
L 219.434924 214.802562 
L 219.896635 214.118713 
L 220.358346 214.035308 
L 220.820057 213.944966 
L 221.281768 213.441127 
L 222.666901 211.191872 
L 222.897756 211.201537 
L 223.128611 211.406203 
L 223.590322 212.39688 
L 224.975455 216.848943 
L 225.437166 217.277388 
L 225.898877 217.136544 
L 226.591443 216.479342 
L 227.284009 215.424909 
L 227.976576 214.339215 
L 228.207431 214.180038 
L 228.438286 214.202566 
L 228.669142 214.43544 
L 229.130853 215.531742 
L 230.054275 218.336597 
L 230.28513 218.331113 
L 230.515985 217.736537 
L 230.977696 214.80911 
L 232.362829 203.08336 
L 232.82454 201.121814 
L 233.055395 200.646727 
L 233.286251 200.489164 
L 233.517106 200.617174 
L 233.978817 201.531148 
L 234.902239 204.03936 
L 235.36395 204.690431 
L 235.82566 204.844558 
L 236.287371 204.653706 
L 236.749082 204.091504 
L 237.210793 203.022485 
L 238.36507 199.752237 
L 238.595926 199.568366 
L 238.826781 199.696521 
L 239.057637 200.173911 
L 239.519347 202.222166 
L 240.211914 207.402356 
L 240.673625 210.722798 
L 240.90448 211.747195 
L 241.135335 212.194691 
L 241.366191 212.1244 
L 242.289613 210.375993 
L 242.520468 210.315504 
L 242.751324 210.513917 
L 243.213034 211.54564 
L 243.905601 213.532856 
L 244.367312 214.175475 
L 244.598167 214.134495 
L 244.829022 213.83682 
L 245.290733 212.53851 
L 246.906721 206.313204 
L 247.137577 206.077007 
L 247.368432 206.110655 
L 247.599288 206.393379 
L 248.291854 208.089891 
L 248.753565 208.930947 
L 248.98442 209.016191 
L 249.215276 208.880574 
L 249.907842 208.066065 
L 250.138698 208.026196 
L 250.369553 208.243977 
L 250.600408 208.761571 
L 251.062119 210.718523 
L 251.754686 215.306702 
L 252.447252 219.547597 
L 252.678107 220.359237 
L 252.908963 220.759516 
L 253.139818 220.743849 
L 253.370674 220.342947 
L 253.832385 218.627898 
L 255.448373 211.082871 
L 255.910083 210.059079 
L 256.371794 209.536878 
L 256.833505 209.377134 
L 257.295216 209.578345 
L 257.756927 210.247288 
L 258.911204 212.944598 
L 259.14206 213.028058 
L 259.372915 212.7631 
L 259.834626 211.312798 
L 260.758048 207.808843 
L 261.219759 207.120585 
L 261.450614 207.103068 
L 261.912325 207.529596 
L 263.297457 209.718285 
L 263.759168 211.193298 
L 264.220879 213.884878 
L 264.68259 218.053058 
L 265.375156 224.927666 
L 265.606012 225.808835 
L 265.836867 225.276212 
L 266.298578 220.868731 
L 266.991144 213.073261 
L 267.452855 209.851333 
L 267.683711 208.959229 
L 267.914566 208.520101 
L 268.145422 208.497951 
L 268.376277 208.847753 
L 268.837988 210.44128 
L 270.453976 217.87163 
L 270.684831 218.178819 
L 270.915687 218.110401 
L 271.146542 217.642363 
L 271.608253 215.603731 
L 273.224241 205.979716 
L 273.685952 204.797182 
L 273.916808 204.597354 
L 274.147663 204.664504 
L 274.378518 205.003333 
L 274.840229 206.528886 
L 275.30194 209.275978 
L 275.763651 213.377044 
L 276.456217 221.921916 
L 276.917928 227.581691 
L 277.148784 229.2168 
L 277.379639 229.454081 
L 277.610495 228.286216 
L 278.303061 220.850404 
L 278.995627 214.266242 
L 279.688193 210.219323 
L 280.149904 208.688289 
L 280.38076 208.255709 
L 280.611615 208.059712 
L 280.842471 208.117503 
L 281.073326 208.446211 
L 281.535037 209.956934 
L 281.996748 212.532335 
L 282.92017 218.137156 
L 283.151025 218.61881 
L 283.38188 218.469015 
L 283.612736 217.769728 
L 284.767013 212.729121 
L 284.997869 212.284478 
L 285.228724 212.091185 
L 285.459579 212.110258 
L 286.383001 212.815599 
L 286.613857 212.651888 
L 286.844712 212.176526 
L 287.306423 210.287464 
L 288.922411 201.80754 
L 289.384122 200.537986 
L 289.845833 199.977677 
L 290.076688 199.96299 
L 290.307544 200.129138 
L 290.538399 200.4923 
L 291.00011 201.95982 
L 291.461821 204.757279 
L 292.385243 212.731107 
L 292.616098 213.490338 
L 292.846953 213.21555 
L 293.770375 209.678103 
L 294.001231 209.811543 
L 294.232086 210.443098 
L 294.924652 213.845202 
L 295.848074 218.900461 
L 296.078929 219.243694 
L 296.309785 218.605736 
L 297.002351 214.55583 
L 297.233207 214.170615 
L 297.694918 214.418204 
L 297.925773 213.411762 
L 298.387484 207.587711 
L 298.849195 202.630964 
L 299.08005 202.248135 
L 299.310906 203.48013 
L 299.772616 207.929897 
L 300.003472 207.337997 
L 300.696038 196.925735 
L 300.926894 196.652017 
L 301.157749 199.253254 
L 301.388605 204.093376 
L 301.61946 206.021023 
L 302.081171 188.132126 
L 302.542882 175.333472 
L 302.773737 174.212203 
L 303.004593 177.442912 
L 303.235448 187.057539 
L 303.466303 203.242629 
L 304.389725 147.473849 
L 304.620581 144.567169 
L 304.851436 147.177968 
L 305.082292 160.307382 
L 305.313147 203.066541 
L 305.544002 142.41741 
L 306.005713 99.601697 
L 306.467424 76.085476 
L 307.15999 53.79903 
L 307.852557 40.565476 
L 308.314268 35.475347 
L 308.775979 32.994534 
L 309.006834 32.688267 
L 309.237689 32.997461 
L 309.468545 33.925966 
L 309.930256 37.69553 
L 310.391967 44.20098 
L 310.853677 53.85733 
L 311.315388 67.478593 
L 311.777099 86.861736 
L 312.23881 117.503069 
L 312.469666 144.495738 
L 312.700521 215.590563 
L 312.931376 157.490612 
L 313.162232 145.286294 
L 313.393087 142.913294 
L 313.623943 145.825243 
L 313.854798 153.171936 
L 314.085654 165.799987 
L 314.316509 187.610533 
L 314.547364 221.454272 
L 314.77822 194.603107 
L 315.009075 181.320065 
L 315.239931 176.925062 
L 315.470786 177.643197 
L 315.701642 182.44055 
L 316.163353 204.216892 
L 316.394208 215.772236 
L 316.625063 212.631509 
L 316.855919 205.327295 
L 317.086774 201.745366 
L 317.31763 201.983488 
L 317.548485 205.341965 
L 318.010196 214.701176 
L 318.241051 213.992529 
L 318.702762 206.353144 
L 318.933618 204.561103 
L 319.164473 204.815629 
L 319.395329 206.896273 
L 320.087895 216.749776 
L 320.31875 217.631083 
L 320.780461 216.969952 
L 321.011317 217.337334 
L 321.473028 219.549472 
L 321.703883 219.894714 
L 321.934738 218.930435 
L 322.627305 213.666505 
L 322.85816 213.128665 
L 323.089016 213.493884 
L 323.550726 216.24224 
L 324.012437 219.475312 
L 324.243293 220.454857 
L 324.474148 220.876131 
L 324.705004 220.858023 
L 325.166715 220.154231 
L 325.628425 219.370106 
L 325.859281 219.201621 
L 326.090136 219.296104 
L 326.320992 219.681489 
L 327.013558 221.446481 
L 327.244413 221.428961 
L 327.475269 220.751407 
L 327.93698 217.70736 
L 328.860402 210.526494 
L 329.322112 208.243522 
L 329.552968 207.596026 
L 329.783823 207.320147 
L 330.014679 207.436105 
L 330.245534 207.947758 
L 330.707245 210.055046 
L 331.861522 216.940207 
L 332.092378 217.370896 
L 332.323233 217.296095 
L 332.784944 216.143814 
L 333.246655 214.83978 
L 333.47751 214.460758 
L 333.708366 214.320428 
L 334.170077 214.535833 
L 334.400932 214.643054 
L 334.631787 214.541132 
L 334.862643 214.110058 
L 335.324354 212.233144 
L 336.01692 208.71207 
L 336.478631 207.505085 
L 336.709486 207.497838 
L 336.940342 207.936387 
L 337.402053 210.154701 
L 338.094619 216.073984 
L 338.787185 222.076321 
L 339.248896 224.372393 
L 339.479752 224.938297 
L 339.710607 225.190589 
L 339.941463 225.204489 
L 340.403173 224.837843 
L 341.09574 224.038392 
L 341.557451 223.007092 
L 342.019161 221.18383 
L 343.404294 214.411715 
L 344.09686 210.794879 
L 344.327716 210.355386 
L 344.558571 210.575166 
L 344.789427 211.486893 
L 345.712848 217.201881 
L 345.943704 217.394738 
L 346.405415 217.080711 
L 346.867126 217.342686 
L 347.097981 216.894507 
L 347.559692 213.313616 
L 347.790547 211.375349 
L 348.021403 210.550244 
L 348.252258 211.514441 
L 348.944825 220.68587 
L 349.17568 215.123958 
L 349.637391 199.831534 
L 349.868246 196.04771 
L 350.099102 195.776801 
L 350.329957 199.825415 
L 350.791668 214.957892 
L 351.484234 171.992078 
L 351.71509 165.829116 
L 351.945945 163.967351 
L 352.176801 167.751646 
L 352.638512 205.728986 
L 352.869367 157.891823 
L 353.331078 118.003188 
L 353.792789 95.338926 
L 354.485355 73.744245 
L 354.947066 64.445261 
L 355.408777 58.236746 
L 355.870488 54.73285 
L 356.101343 53.931064 
L 356.332199 53.746787 
L 356.563054 54.177681 
L 356.793909 55.228802 
L 357.25562 59.251456 
L 357.717331 66.030859 
L 358.179042 76.000383 
L 358.640753 90.009077 
L 359.102464 109.943308 
L 359.564175 141.677257 
L 359.79503 170.129856 
L 360.025886 214.843697 
L 360.256741 177.244156 
L 360.487596 167.14664 
L 360.718452 165.745303 
L 360.949307 169.428433 
L 361.180163 177.554539 
L 361.411018 190.902456 
L 361.641874 210.775821 
L 361.872729 219.388613 
L 362.33444 198.958438 
L 362.565295 196.989653 
L 362.796151 199.209508 
L 363.027006 205.099649 
L 363.488717 224.467617 
L 363.719573 227.292171 
L 364.181283 218.054378 
L 364.412139 216.776579 
L 364.642994 218.573323 
L 365.335561 231.616842 
L 365.566416 229.031427 
L 366.028127 219.375211 
L 366.258982 216.523173 
L 366.489838 215.151146 
L 366.720693 214.82664 
L 367.182404 215.157723 
L 367.41326 214.92991 
L 368.567537 211.864101 
L 369.029248 211.739722 
L 369.490958 211.535345 
L 369.952669 210.844182 
L 371.337802 207.983725 
L 371.568657 207.998692 
L 372.261224 208.420492 
L 372.492079 208.165412 
L 372.95379 206.597766 
L 373.646356 203.824969 
L 373.877212 203.512571 
L 374.108067 203.686604 
L 374.338923 204.38351 
L 374.800634 207.310345 
L 375.4932 214.413863 
L 375.954911 218.957132 
L 376.416622 221.259874 
L 376.647477 221.407364 
L 376.878332 221.067814 
L 378.03261 218.104462 
L 378.263465 217.910308 
L 378.494321 217.902217 
L 378.956031 218.287183 
L 379.417742 218.699186 
L 379.648598 218.687403 
L 379.879453 218.448776 
L 380.341164 217.347093 
L 381.264586 214.704823 
L 381.957152 213.646853 
L 382.418863 212.87993 
L 382.880574 211.478024 
L 383.57314 208.144025 
L 384.265706 205.055927 
L 384.496562 204.502979 
L 384.727417 204.314794 
L 384.958273 204.552637 
L 385.189128 205.269814 
L 385.650839 208.310519 
L 386.11255 213.545241 
L 386.805116 222.062533 
L 387.035972 222.599824 
L 387.266827 221.188475 
L 388.65196 205.859254 
L 388.882815 205.032426 
L 389.113671 204.79929 
L 389.344526 205.12615 
L 389.575381 205.969938 
L 390.037092 208.954708 
L 390.960514 216.514744 
L 391.19137 217.642258 
L 391.422225 218.199314 
L 391.65308 218.239682 
L 391.883936 217.905821 
L 393.499924 214.336915 
L 393.961635 213.878443 
L 394.19249 213.799501 
L 394.423346 213.84871 
L 394.654201 214.043914 
L 395.115912 214.895517 
L 396.501045 218.498723 
L 396.7319 218.486588 
L 396.962755 218.154338 
L 397.424466 216.716388 
L 398.347888 213.359846 
L 398.578744 212.908768 
L 398.809599 212.716799 
L 399.040454 212.812179 
L 399.27131 213.215658 
L 399.733021 215.013728 
L 400.194732 218.251285 
L 400.656442 223.101466 
L 402.041575 240.053608 
L 402.272431 238.851701 
L 403.657563 224.230683 
L 403.888419 223.544079 
L 404.119274 223.453924 
L 404.350129 223.900491 
L 404.81184 226.000765 
L 405.273551 228.536332 
L 405.504407 229.33963 
L 405.735262 229.511602 
L 405.966118 228.957366 
L 406.427828 226.070027 
L 407.812961 215.159772 
L 408.274672 212.887229 
L 408.736383 211.415936 
L 410.583226 207.102931 
L 411.275793 205.313548 
L 411.737503 204.748271 
L 411.968359 204.710337 
L 412.199214 204.836304 
L 412.660925 205.54674 
L 413.122636 206.800668 
L 413.815202 209.591408 
L 414.738624 214.699107 
L 415.43119 217.973726 
L 415.662046 218.419036 
L 415.892901 218.399742 
L 416.123757 217.923733 
L 416.585468 215.957526 
L 417.739745 210.094291 
L 418.432311 207.864355 
L 418.894022 207.060309 
L 419.355733 206.809502 
L 419.817444 207.002001 
L 420.279155 207.314602 
L 420.51001 207.370118 
L 420.740865 207.290238 
L 421.202576 206.672595 
L 422.356854 204.474083 
L 422.818564 204.291263 
L 423.280275 204.52447 
L 424.665408 205.783422 
L 425.127119 206.616319 
L 425.819685 208.698372 
L 426.512251 210.824603 
L 426.973962 211.520579 
L 427.435673 211.624747 
L 428.128239 211.345839 
L 428.58995 210.938698 
L 429.051661 210.177651 
L 429.744228 208.940934 
L 429.975083 208.844664 
L 430.205938 209.059004 
L 430.436794 209.645893 
L 430.898505 211.973459 
L 431.591071 216.345921 
L 431.821926 216.769974 
L 432.052782 216.175281 
L 432.514493 212.612076 
L 433.207059 206.954722 
L 433.437915 205.947306 
L 433.66877 205.516637 
L 433.899625 205.673962 
L 434.130481 206.402943 
L 434.592192 209.35897 
L 435.515613 216.772087 
L 435.746469 217.455402 
L 435.977324 217.392906 
L 436.439035 215.808785 
L 437.131602 213.137685 
L 437.593312 212.327664 
L 437.824168 212.226767 
L 438.055023 212.289951 
L 438.516734 212.769921 
L 439.901867 214.721477 
L 441.979566 216.440419 
L 442.210421 216.35564 
L 442.672132 215.768036 
L 443.364698 214.736741 
L 443.595554 214.660288 
L 443.826409 214.808596 
L 444.057265 215.196967 
L 444.518975 216.598518 
L 445.442397 219.762574 
L 445.673253 220.13942 
L 445.904108 220.300406 
L 446.134964 220.29113 
L 446.596674 219.969212 
L 447.058385 219.347429 
L 447.520096 218.184022 
L 447.981807 216.293714 
L 449.136084 211.03767 
L 449.828651 209.221288 
L 450.521217 207.655244 
L 451.213783 205.445627 
L 452.137205 202.330662 
L 452.598916 201.418886 
L 452.829771 201.255132 
L 453.060627 201.32565 
L 453.291482 201.649814 
L 453.753193 203.054213 
L 454.676615 206.957162 
L 454.90747 207.286263 
L 455.138326 207.067378 
L 455.600036 205.219262 
L 456.292603 201.749935 
L 456.523458 201.081012 
L 456.754314 200.803697 
L 456.985169 200.947663 
L 457.216025 201.513834 
L 457.677735 203.784469 
L 459.062868 212.56905 
L 459.524579 213.641579 
L 459.98629 214.384083 
L 460.448001 215.593384 
L 461.140567 218.553156 
L 462.063989 222.410141 
L 462.98741 225.538016 
L 463.679977 228.293681 
L 463.910832 228.704106 
L 464.141688 228.47612 
L 464.372543 227.488456 
L 464.834254 223.675571 
L 465.757676 215.407108 
L 466.219387 213.241812 
L 466.450242 212.786394 
L 466.681097 212.741795 
L 466.911953 213.090661 
L 467.373664 214.864629 
L 467.835375 217.82776 
L 469.220507 227.999094 
L 469.451363 228.510378 
L 469.682218 228.317427 
L 469.913074 227.441487 
L 470.374784 224.257179 
L 471.298206 217.451951 
L 471.759917 215.612078 
L 471.990772 215.197924 
L 472.221628 215.101884 
L 472.452483 215.284386 
L 472.914194 216.212024 
L 473.375905 217.20104 
L 473.606761 217.414486 
L 473.837616 217.312263 
L 474.068471 216.866017 
L 474.530182 215.155307 
L 475.222749 212.184924 
L 475.684459 211.060947 
L 475.915315 210.920435 
L 476.14617 211.089234 
L 476.377026 211.568746 
L 476.838737 213.381009 
L 477.993014 219.472277 
L 478.223869 219.997335 
L 478.454725 220.079042 
L 478.68558 219.755114 
L 479.147291 218.320291 
L 479.839857 215.912439 
L 480.301568 214.936304 
L 480.532424 214.713978 
L 480.763279 214.671883 
L 480.994135 214.797823 
L 481.455845 215.417481 
L 481.917556 216.037805 
L 482.148412 216.063215 
L 482.379267 215.736755 
L 482.610123 214.991535 
L 483.071833 212.386018 
L 483.995255 206.22932 
L 484.456966 204.223764 
L 484.918677 203.104625 
L 485.380388 202.576531 
L 486.072954 202.241763 
L 486.534665 202.244074 
L 486.996376 202.571952 
L 488.381509 204.34434 
L 489.30493 204.546809 
L 489.535786 204.818635 
L 489.997497 206.004481 
L 490.690063 209.231434 
L 491.382629 212.393396 
L 491.84434 213.497636 
L 492.536906 214.620645 
L 492.998617 216.087379 
L 493.922039 220.106287 
L 494.152894 220.457146 
L 494.38375 220.23723 
L 494.614605 219.463518 
L 495.307172 215.411409 
L 495.999738 211.901722 
L 496.461449 210.617858 
L 496.92316 210.118709 
L 497.154015 210.126082 
L 497.384871 210.293847 
L 497.846581 211.10338 
L 498.308292 212.512735 
L 499.693425 217.642244 
L 500.616847 220.070149 
L 501.771124 224.355352 
L 502.001979 223.961618 
L 502.232835 222.657887 
L 502.925401 215.452603 
L 503.617967 209.098286 
L 504.079678 206.962891 
L 504.310534 206.574739 
L 504.541389 206.622767 
L 504.772245 207.085038 
L 505.233955 209.131344 
L 505.926522 214.291997 
L 506.849943 221.458344 
L 507.311654 223.086306 
L 507.54251 223.109243 
L 507.773365 222.581967 
L 508.235076 220.061207 
L 510.08192 205.791835 
L 510.54363 204.097204 
L 511.005341 203.360703 
L 511.236197 203.318996 
L 511.467052 203.482457 
L 511.928763 204.421496 
L 512.390474 206.221538 
L 512.852185 208.929148 
L 514.006462 217.062972 
L 514.237317 217.730466 
L 514.468173 217.705951 
L 514.699028 217.039695 
L 516.084161 210.81841 
L 516.315016 210.755824 
L 516.545872 211.114326 
L 516.776727 211.891163 
L 517.238438 214.621366 
L 517.931004 221.121234 
L 519.316137 235.865597 
L 519.546993 235.277916 
L 519.777848 232.792499 
L 521.162981 211.052122 
L 521.624691 207.357758 
L 522.086402 205.415106 
L 522.548113 204.687342 
L 523.009824 204.609184 
L 523.933246 204.90782 
L 524.394957 205.199502 
L 524.856668 205.794636 
L 525.318378 206.796051 
L 526.703511 210.344347 
L 526.934366 210.48405 
L 527.165222 210.415431 
L 527.626933 209.849611 
L 528.088644 209.248224 
L 528.319499 209.128384 
L 528.550355 209.194203 
L 528.78121 209.458359 
L 529.242921 210.467237 
L 529.935487 211.991206 
L 530.166343 212.129676 
L 530.397198 212.015509 
L 530.858909 211.258761 
L 531.32062 210.460752 
L 531.551475 210.266943 
L 531.782331 210.270985 
L 532.013186 210.476837 
L 532.474897 211.364631 
L 533.398319 213.408231 
L 534.32174 214.82956 
L 534.783451 216.021572 
L 535.476018 218.132814 
L 535.706873 218.483026 
L 535.937729 218.422588 
L 536.168584 217.876817 
L 536.630295 215.497163 
L 537.784572 208.226049 
L 538.246283 206.684918 
L 538.477138 206.29809 
L 538.707994 206.146173 
L 538.938849 206.202689 
L 539.40056 206.814495 
L 540.093126 208.545612 
L 540.785693 210.924566 
L 541.93997 215.528151 
L 542.170825 216.035296 
L 542.401681 216.182041 
L 542.632536 215.925158 
L 543.094247 214.38968 
L 543.786813 211.420963 
L 544.248524 210.410688 
L 544.47938 210.41579 
L 544.710235 210.804319 
L 545.171946 212.746809 
L 545.171946 212.746809 
" clip-path="url(#p49954d1826)" style="fill: none; stroke: #1f77b4; stroke-linecap: square"/>
   </g>
   <g id="patch_3">
    <path d="M 48.982813 250.421875 
L 48.982813 22.32 
" style="fill: none; stroke: #000000; stroke-width: 0.8; stroke-linejoin: miter; stroke-linecap: square"/>
   </g>
   <g id="patch_4">
    <path d="M 568.8 250.421875 
L 568.8 22.32 
" style="fill: none; stroke: #000000; stroke-width: 0.8; stroke-linejoin: miter; stroke-linecap: square"/>
   </g>
   <g id="patch_5">
    <path d="M 48.982813 250.421875 
L 568.8 250.421875 
" style="fill: none; stroke: #000000; stroke-width: 0.8; stroke-linejoin: miter; stroke-linecap: square"/>
   </g>
   <g id="patch_6">
    <path d="M 48.982813 22.32 
L 568.8 22.32 
" style="fill: none; stroke: #000000; stroke-width: 0.8; stroke-linejoin: miter; stroke-linecap: square"/>
   </g>
   <g id="text_14">
    <!-- Periodogram of $x_c[n]$ -->
    <g transform="translate(246.371406 16.32) scale(0.12 -0.12)">
     <defs>
      <path id="DejaVuSans-67" d="M 2906 1791 
Q 2906 2416 2648 2759 
Q 2391 3103 1925 3103 
Q 1463 3103 1205 2759 
Q 947 2416 947 1791 
Q 947 1169 1205 825 
Q 1463 481 1925 481 
Q 2391 481 2648 825 
Q 2906 1169 2906 1791 
z
M 3481 434 
Q 3481 -459 3084 -895 
Q 2688 -1331 1869 -1331 
Q 1566 -1331 1297 -1286 
Q 1028 -1241 775 -1147 
L 775 -588 
Q 1028 -725 1275 -790 
Q 1522 -856 1778 -856 
Q 2344 -856 2625 -561 
Q 2906 -266 2906 331 
L 2906 616 
Q 2728 306 2450 153 
Q 2172 0 1784 0 
Q 1141 0 747 490 
Q 353 981 353 1791 
Q 353 2603 747 3093 
Q 1141 3584 1784 3584 
Q 2172 3584 2450 3431 
Q 2728 3278 2906 2969 
L 2906 3500 
L 3481 3500 
L 3481 434 
z
" transform="scale(0.015625)"/>
      <path id="DejaVuSans-61" d="M 2194 1759 
Q 1497 1759 1228 1600 
Q 959 1441 959 1056 
Q 959 750 1161 570 
Q 1363 391 1709 391 
Q 2188 391 2477 730 
Q 2766 1069 2766 1631 
L 2766 1759 
L 2194 1759 
z
M 3341 1997 
L 3341 0 
L 2766 0 
L 2766 531 
Q 2569 213 2275 61 
Q 1981 -91 1556 -91 
Q 1019 -91 701 211 
Q 384 513 384 1019 
Q 384 1609 779 1909 
Q 1175 2209 1959 2209 
L 2766 2209 
L 2766 2266 
Q 2766 2663 2505 2880 
Q 2244 3097 1772 3097 
Q 1472 3097 1187 3025 
Q 903 2953 641 2809 
L 641 3341 
Q 956 3463 1253 3523 
Q 1550 3584 1831 3584 
Q 2591 3584 2966 3190 
Q 3341 2797 3341 1997 
z
" transform="scale(0.015625)"/>
      <path id="DejaVuSans-6d" d="M 3328 2828 
Q 3544 3216 3844 3400 
Q 4144 3584 4550 3584 
Q 5097 3584 5394 3201 
Q 5691 2819 5691 2113 
L 5691 0 
L 5113 0 
L 5113 2094 
Q 5113 2597 4934 2840 
Q 4756 3084 4391 3084 
Q 3944 3084 3684 2787 
Q 3425 2491 3425 1978 
L 3425 0 
L 2847 0 
L 2847 2094 
Q 2847 2600 2669 2842 
Q 2491 3084 2119 3084 
Q 1678 3084 1418 2786 
Q 1159 2488 1159 1978 
L 1159 0 
L 581 0 
L 581 3500 
L 1159 3500 
L 1159 2956 
Q 1356 3278 1631 3431 
Q 1906 3584 2284 3584 
Q 2666 3584 2933 3390 
Q 3200 3197 3328 2828 
z
" transform="scale(0.015625)"/>
      <path id="DejaVuSans-66" d="M 2375 4863 
L 2375 4384 
L 1825 4384 
Q 1516 4384 1395 4259 
Q 1275 4134 1275 3809 
L 1275 3500 
L 2222 3500 
L 2222 3053 
L 1275 3053 
L 1275 0 
L 697 0 
L 697 3053 
L 147 3053 
L 147 3500 
L 697 3500 
L 697 3744 
Q 697 4328 969 4595 
Q 1241 4863 1831 4863 
L 2375 4863 
z
" transform="scale(0.015625)"/>
      <path id="DejaVuSans-Oblique-78" d="M 3841 3500 
L 2234 1784 
L 3219 0 
L 2559 0 
L 1819 1388 
L 531 0 
L -166 0 
L 1556 1844 
L 641 3500 
L 1300 3500 
L 1972 2234 
L 3144 3500 
L 3841 3500 
z
" transform="scale(0.015625)"/>
      <path id="DejaVuSans-Oblique-63" d="M 3431 3366 
L 3316 2797 
Q 3109 2947 2876 3022 
Q 2644 3097 2394 3097 
Q 2119 3097 1870 3000 
Q 1622 2903 1453 2725 
Q 1184 2453 1037 2087 
Q 891 1722 891 1331 
Q 891 859 1127 628 
Q 1363 397 1844 397 
Q 2081 397 2348 469 
Q 2616 541 2906 684 
L 2797 116 
Q 2547 13 2283 -39 
Q 2019 -91 1741 -91 
Q 1044 -91 669 257 
Q 294 606 294 1253 
Q 294 1797 489 2255 
Q 684 2713 1069 3078 
Q 1331 3328 1684 3456 
Q 2038 3584 2456 3584 
Q 2700 3584 2940 3529 
Q 3181 3475 3431 3366 
z
" transform="scale(0.015625)"/>
      <path id="DejaVuSans-5b" d="M 550 4863 
L 1875 4863 
L 1875 4416 
L 1125 4416 
L 1125 -397 
L 1875 -397 
L 1875 -844 
L 550 -844 
L 550 4863 
z
" transform="scale(0.015625)"/>
      <path id="DejaVuSans-Oblique-6e" d="M 3566 2113 
L 3156 0 
L 2578 0 
L 2988 2091 
Q 3016 2238 3031 2350 
Q 3047 2463 3047 2528 
Q 3047 2791 2881 2937 
Q 2716 3084 2419 3084 
Q 1956 3084 1622 2776 
Q 1288 2469 1184 1941 
L 800 0 
L 225 0 
L 903 3500 
L 1478 3500 
L 1363 2950 
Q 1603 3253 1940 3418 
Q 2278 3584 2650 3584 
Q 3113 3584 3367 3334 
Q 3622 3084 3622 2631 
Q 3622 2519 3608 2391 
Q 3594 2263 3566 2113 
z
" transform="scale(0.015625)"/>
      <path id="DejaVuSans-5d" d="M 1947 4863 
L 1947 -844 
L 622 -844 
L 622 -397 
L 1369 -397 
L 1369 4416 
L 622 4416 
L 622 4863 
L 1947 4863 
z
" transform="scale(0.015625)"/>
     </defs>
     <use xlink:href="#DejaVuSans-50" transform="translate(0 0.015625)"/>
     <use xlink:href="#DejaVuSans-65" transform="translate(60.302734 0.015625)"/>
     <use xlink:href="#DejaVuSans-72" transform="translate(121.826172 0.015625)"/>
     <use xlink:href="#DejaVuSans-69" transform="translate(162.939453 0.015625)"/>
     <use xlink:href="#DejaVuSans-6f" transform="translate(190.722656 0.015625)"/>
     <use xlink:href="#DejaVuSans-64" transform="translate(251.904297 0.015625)"/>
     <use xlink:href="#DejaVuSans-6f" transform="translate(315.380859 0.015625)"/>
     <use xlink:href="#DejaVuSans-67" transform="translate(376.5625 0.015625)"/>
     <use xlink:href="#DejaVuSans-72" transform="translate(440.039062 0.015625)"/>
     <use xlink:href="#DejaVuSans-61" transform="translate(481.152344 0.015625)"/>
     <use xlink:href="#DejaVuSans-6d" transform="translate(542.431641 0.015625)"/>
     <use xlink:href="#DejaVuSans-20" transform="translate(639.84375 0.015625)"/>
     <use xlink:href="#DejaVuSans-6f" transform="translate(671.630859 0.015625)"/>
     <use xlink:href="#DejaVuSans-66" transform="translate(732.8125 0.015625)"/>
     <use xlink:href="#DejaVuSans-20" transform="translate(768.017578 0.015625)"/>
     <use xlink:href="#DejaVuSans-Oblique-78" transform="translate(799.804688 0.015625)"/>
     <use xlink:href="#DejaVuSans-Oblique-63" transform="translate(858.984375 -16.390625) scale(0.7)"/>
     <use xlink:href="#DejaVuSans-5b" transform="translate(900.205078 0.015625)"/>
     <use xlink:href="#DejaVuSans-Oblique-6e" transform="translate(939.21875 0.015625)"/>
     <use xlink:href="#DejaVuSans-5d" transform="translate(1002.597656 0.015625)"/>
    </g>
   </g>
  </g>
 </g>
 <defs>
  <clipPath id="p49954d1826">
   <rect x="48.982813" y="22.32" width="519.817188" height="228.101875"/>
  </clipPath>
 </defs>
</svg>
