<?xml version="1.0" encoding="utf-8" standalone="no"?>
<!DOCTYPE svg PUBLIC "-//W3C//DTD SVG 1.1//EN"
  "http://www.w3.org/Graphics/SVG/1.1/DTD/svg11.dtd">
<svg xmlns:xlink="http://www.w3.org/1999/xlink" width="576pt" height="288pt" viewBox="0 0 576 288" xmlns="http://www.w3.org/2000/svg" version="1.1">
 <metadata>
  <rdf:RDF xmlns:dc="http://purl.org/dc/elements/1.1/" xmlns:cc="http://creativecommons.org/ns#" xmlns:rdf="http://www.w3.org/1999/02/22-rdf-syntax-ns#">
   <cc:Work>
    <dc:type rdf:resource="http://purl.org/dc/dcmitype/StillImage"/>
    <dc:date>2025-11-29T03:58:12.062133</dc:date>
    <dc:format>image/svg+xml</dc:format>
    <dc:creator>
     <cc:Agent>
      <dc:title>Matplotlib v3.10.7, https://matplotlib.org/</dc:title>
     </cc:Agent>
    </dc:creator>
   </cc:Work>
  </rdf:RDF>
 </metadata>
 <defs>
  <style type="text/css">*{stroke-linejoin: round; stroke-linecap: butt}</style>
 </defs>
 <g id="figure_1">
  <g id="patch_1">
   <path d="M 0 288 
L 576 288 
L 576 0 
L 0 0 
z
" style="fill: #ffffff"/>
  </g>
  <g id="axes_1">
   <g id="patch_2">
    <path d="M 52.160938 250.421875 
L 568.8 250.421875 
L 568.8 7.2 
L 52.160938 7.2 
z
" style="fill: #ffffff"/>
   </g>
   <g id="matplotlib.axis_1">
    <g id="xtick_1">
     <g id="line2d_1">
      <path d="M 75.644531 250.421875 
L 75.644531 7.2 
" clip-path="url(#pbd51e0e708)" style="fill: none; stroke-dasharray: 2.96,1.28; stroke-dashoffset: 0; stroke: #b0b0b0; stroke-opacity: 0.8; stroke-width: 0.8"/>
     </g>
     <g id="line2d_2">
      <defs>
       <path id="m3dd9fcc8d9" d="M 0 0 
L 0 3.5 
" style="stroke: #000000; stroke-width: 0.8"/>
      </defs>
      <g>
       <use xlink:href="#m3dd9fcc8d9" x="75.644531" y="250.421875" style="stroke: #000000; stroke-width: 0.8"/>
      </g>
     </g>
     <g id="text_1">
      <!-- 0 -->
      <g transform="translate(72.463281 265.020312) scale(0.1 -0.1)">
       <defs>
        <path id="DejaVuSans-30" d="M 2034 4250 
Q 1547 4250 1301 3770 
Q 1056 3291 1056 2328 
Q 1056 1369 1301 889 
Q 1547 409 2034 409 
Q 2525 409 2770 889 
Q 3016 1369 3016 2328 
Q 3016 3291 2770 3770 
Q 2525 4250 2034 4250 
z
M 2034 4750 
Q 2819 4750 3233 4129 
Q 3647 3509 3647 2328 
Q 3647 1150 3233 529 
Q 2819 -91 2034 -91 
Q 1250 -91 836 529 
Q 422 1150 422 2328 
Q 422 3509 836 4129 
Q 1250 4750 2034 4750 
z
" transform="scale(0.015625)"/>
       </defs>
       <use xlink:href="#DejaVuSans-30"/>
      </g>
     </g>
    </g>
    <g id="xtick_2">
     <g id="line2d_3">
      <path d="M 134.500656 250.421875 
L 134.500656 7.2 
" clip-path="url(#pbd51e0e708)" style="fill: none; stroke-dasharray: 2.96,1.28; stroke-dashoffset: 0; stroke: #b0b0b0; stroke-opacity: 0.8; stroke-width: 0.8"/>
     </g>
     <g id="line2d_4">
      <g>
       <use xlink:href="#m3dd9fcc8d9" x="134.500656" y="250.421875" style="stroke: #000000; stroke-width: 0.8"/>
      </g>
     </g>
     <g id="text_2">
      <!-- 50 -->
      <g transform="translate(128.138156 265.020312) scale(0.1 -0.1)">
       <defs>
        <path id="DejaVuSans-35" d="M 691 4666 
L 3169 4666 
L 3169 4134 
L 1269 4134 
L 1269 2991 
Q 1406 3038 1543 3061 
Q 1681 3084 1819 3084 
Q 2600 3084 3056 2656 
Q 3513 2228 3513 1497 
Q 3513 744 3044 326 
Q 2575 -91 1722 -91 
Q 1428 -91 1123 -41 
Q 819 9 494 109 
L 494 744 
Q 775 591 1075 516 
Q 1375 441 1709 441 
Q 2250 441 2565 725 
Q 2881 1009 2881 1497 
Q 2881 1984 2565 2268 
Q 2250 2553 1709 2553 
Q 1456 2553 1204 2497 
Q 953 2441 691 2322 
L 691 4666 
z
" transform="scale(0.015625)"/>
       </defs>
       <use xlink:href="#DejaVuSans-35"/>
       <use xlink:href="#DejaVuSans-30" transform="translate(63.623047 0)"/>
      </g>
     </g>
    </g>
    <g id="xtick_3">
     <g id="line2d_5">
      <path d="M 193.356781 250.421875 
L 193.356781 7.2 
" clip-path="url(#pbd51e0e708)" style="fill: none; stroke-dasharray: 2.96,1.28; stroke-dashoffset: 0; stroke: #b0b0b0; stroke-opacity: 0.8; stroke-width: 0.8"/>
     </g>
     <g id="line2d_6">
      <g>
       <use xlink:href="#m3dd9fcc8d9" x="193.356781" y="250.421875" style="stroke: #000000; stroke-width: 0.8"/>
      </g>
     </g>
     <g id="text_3">
      <!-- 100 -->
      <g transform="translate(183.813031 265.020312) scale(0.1 -0.1)">
       <defs>
        <path id="DejaVuSans-31" d="M 794 531 
L 1825 531 
L 1825 4091 
L 703 3866 
L 703 4441 
L 1819 4666 
L 2450 4666 
L 2450 531 
L 3481 531 
L 3481 0 
L 794 0 
L 794 531 
z
" transform="scale(0.015625)"/>
       </defs>
       <use xlink:href="#DejaVuSans-31"/>
       <use xlink:href="#DejaVuSans-30" transform="translate(63.623047 0)"/>
       <use xlink:href="#DejaVuSans-30" transform="translate(127.246094 0)"/>
      </g>
     </g>
    </g>
    <g id="xtick_4">
     <g id="line2d_7">
      <path d="M 252.212905 250.421875 
L 252.212905 7.2 
" clip-path="url(#pbd51e0e708)" style="fill: none; stroke-dasharray: 2.96,1.28; stroke-dashoffset: 0; stroke: #b0b0b0; stroke-opacity: 0.8; stroke-width: 0.8"/>
     </g>
     <g id="line2d_8">
      <g>
       <use xlink:href="#m3dd9fcc8d9" x="252.212905" y="250.421875" style="stroke: #000000; stroke-width: 0.8"/>
      </g>
     </g>
     <g id="text_4">
      <!-- 150 -->
      <g transform="translate(242.669155 265.020312) scale(0.1 -0.1)">
       <use xlink:href="#DejaVuSans-31"/>
       <use xlink:href="#DejaVuSans-35" transform="translate(63.623047 0)"/>
       <use xlink:href="#DejaVuSans-30" transform="translate(127.246094 0)"/>
      </g>
     </g>
    </g>
    <g id="xtick_5">
     <g id="line2d_9">
      <path d="M 311.06903 250.421875 
L 311.06903 7.2 
" clip-path="url(#pbd51e0e708)" style="fill: none; stroke-dasharray: 2.96,1.28; stroke-dashoffset: 0; stroke: #b0b0b0; stroke-opacity: 0.8; stroke-width: 0.8"/>
     </g>
     <g id="line2d_10">
      <g>
       <use xlink:href="#m3dd9fcc8d9" x="311.06903" y="250.421875" style="stroke: #000000; stroke-width: 0.8"/>
      </g>
     </g>
     <g id="text_5">
      <!-- 200 -->
      <g transform="translate(301.52528 265.020312) scale(0.1 -0.1)">
       <defs>
        <path id="DejaVuSans-32" d="M 1228 531 
L 3431 531 
L 3431 0 
L 469 0 
L 469 531 
Q 828 903 1448 1529 
Q 2069 2156 2228 2338 
Q 2531 2678 2651 2914 
Q 2772 3150 2772 3378 
Q 2772 3750 2511 3984 
Q 2250 4219 1831 4219 
Q 1534 4219 1204 4116 
Q 875 4013 500 3803 
L 500 4441 
Q 881 4594 1212 4672 
Q 1544 4750 1819 4750 
Q 2544 4750 2975 4387 
Q 3406 4025 3406 3419 
Q 3406 3131 3298 2873 
Q 3191 2616 2906 2266 
Q 2828 2175 2409 1742 
Q 1991 1309 1228 531 
z
" transform="scale(0.015625)"/>
       </defs>
       <use xlink:href="#DejaVuSans-32"/>
       <use xlink:href="#DejaVuSans-30" transform="translate(63.623047 0)"/>
       <use xlink:href="#DejaVuSans-30" transform="translate(127.246094 0)"/>
      </g>
     </g>
    </g>
    <g id="xtick_6">
     <g id="line2d_11">
      <path d="M 369.925155 250.421875 
L 369.925155 7.2 
" clip-path="url(#pbd51e0e708)" style="fill: none; stroke-dasharray: 2.96,1.28; stroke-dashoffset: 0; stroke: #b0b0b0; stroke-opacity: 0.8; stroke-width: 0.8"/>
     </g>
     <g id="line2d_12">
      <g>
       <use xlink:href="#m3dd9fcc8d9" x="369.925155" y="250.421875" style="stroke: #000000; stroke-width: 0.8"/>
      </g>
     </g>
     <g id="text_6">
      <!-- 250 -->
      <g transform="translate(360.381405 265.020312) scale(0.1 -0.1)">
       <use xlink:href="#DejaVuSans-32"/>
       <use xlink:href="#DejaVuSans-35" transform="translate(63.623047 0)"/>
       <use xlink:href="#DejaVuSans-30" transform="translate(127.246094 0)"/>
      </g>
     </g>
    </g>
    <g id="xtick_7">
     <g id="line2d_13">
      <path d="M 428.781279 250.421875 
L 428.781279 7.2 
" clip-path="url(#pbd51e0e708)" style="fill: none; stroke-dasharray: 2.96,1.28; stroke-dashoffset: 0; stroke: #b0b0b0; stroke-opacity: 0.8; stroke-width: 0.8"/>
     </g>
     <g id="line2d_14">
      <g>
       <use xlink:href="#m3dd9fcc8d9" x="428.781279" y="250.421875" style="stroke: #000000; stroke-width: 0.8"/>
      </g>
     </g>
     <g id="text_7">
      <!-- 300 -->
      <g transform="translate(419.237529 265.020312) scale(0.1 -0.1)">
       <defs>
        <path id="DejaVuSans-33" d="M 2597 2516 
Q 3050 2419 3304 2112 
Q 3559 1806 3559 1356 
Q 3559 666 3084 287 
Q 2609 -91 1734 -91 
Q 1441 -91 1130 -33 
Q 819 25 488 141 
L 488 750 
Q 750 597 1062 519 
Q 1375 441 1716 441 
Q 2309 441 2620 675 
Q 2931 909 2931 1356 
Q 2931 1769 2642 2001 
Q 2353 2234 1838 2234 
L 1294 2234 
L 1294 2753 
L 1863 2753 
Q 2328 2753 2575 2939 
Q 2822 3125 2822 3475 
Q 2822 3834 2567 4026 
Q 2313 4219 1838 4219 
Q 1578 4219 1281 4162 
Q 984 4106 628 3988 
L 628 4550 
Q 988 4650 1302 4700 
Q 1616 4750 1894 4750 
Q 2613 4750 3031 4423 
Q 3450 4097 3450 3541 
Q 3450 3153 3228 2886 
Q 3006 2619 2597 2516 
z
" transform="scale(0.015625)"/>
       </defs>
       <use xlink:href="#DejaVuSans-33"/>
       <use xlink:href="#DejaVuSans-30" transform="translate(63.623047 0)"/>
       <use xlink:href="#DejaVuSans-30" transform="translate(127.246094 0)"/>
      </g>
     </g>
    </g>
    <g id="xtick_8">
     <g id="line2d_15">
      <path d="M 487.637404 250.421875 
L 487.637404 7.2 
" clip-path="url(#pbd51e0e708)" style="fill: none; stroke-dasharray: 2.96,1.28; stroke-dashoffset: 0; stroke: #b0b0b0; stroke-opacity: 0.8; stroke-width: 0.8"/>
     </g>
     <g id="line2d_16">
      <g>
       <use xlink:href="#m3dd9fcc8d9" x="487.637404" y="250.421875" style="stroke: #000000; stroke-width: 0.8"/>
      </g>
     </g>
     <g id="text_8">
      <!-- 350 -->
      <g transform="translate(478.093654 265.020312) scale(0.1 -0.1)">
       <use xlink:href="#DejaVuSans-33"/>
       <use xlink:href="#DejaVuSans-35" transform="translate(63.623047 0)"/>
       <use xlink:href="#DejaVuSans-30" transform="translate(127.246094 0)"/>
      </g>
     </g>
    </g>
    <g id="xtick_9">
     <g id="line2d_17">
      <path d="M 546.493529 250.421875 
L 546.493529 7.2 
" clip-path="url(#pbd51e0e708)" style="fill: none; stroke-dasharray: 2.96,1.28; stroke-dashoffset: 0; stroke: #b0b0b0; stroke-opacity: 0.8; stroke-width: 0.8"/>
     </g>
     <g id="line2d_18">
      <g>
       <use xlink:href="#m3dd9fcc8d9" x="546.493529" y="250.421875" style="stroke: #000000; stroke-width: 0.8"/>
      </g>
     </g>
     <g id="text_9">
      <!-- 400 -->
      <g transform="translate(536.949779 265.020312) scale(0.1 -0.1)">
       <defs>
        <path id="DejaVuSans-34" d="M 2419 4116 
L 825 1625 
L 2419 1625 
L 2419 4116 
z
M 2253 4666 
L 3047 4666 
L 3047 1625 
L 3713 1625 
L 3713 1100 
L 3047 1100 
L 3047 0 
L 2419 0 
L 2419 1100 
L 313 1100 
L 313 1709 
L 2253 4666 
z
" transform="scale(0.015625)"/>
       </defs>
       <use xlink:href="#DejaVuSans-34"/>
       <use xlink:href="#DejaVuSans-30" transform="translate(63.623047 0)"/>
       <use xlink:href="#DejaVuSans-30" transform="translate(127.246094 0)"/>
      </g>
     </g>
    </g>
    <g id="text_10">
     <!-- Sample, $n$ -->
     <g transform="translate(285.380469 278.7) scale(0.1 -0.1)">
      <defs>
       <path id="DejaVuSans-53" d="M 3425 4513 
L 3425 3897 
Q 3066 4069 2747 4153 
Q 2428 4238 2131 4238 
Q 1616 4238 1336 4038 
Q 1056 3838 1056 3469 
Q 1056 3159 1242 3001 
Q 1428 2844 1947 2747 
L 2328 2669 
Q 3034 2534 3370 2195 
Q 3706 1856 3706 1288 
Q 3706 609 3251 259 
Q 2797 -91 1919 -91 
Q 1588 -91 1214 -16 
Q 841 59 441 206 
L 441 856 
Q 825 641 1194 531 
Q 1563 422 1919 422 
Q 2459 422 2753 634 
Q 3047 847 3047 1241 
Q 3047 1584 2836 1778 
Q 2625 1972 2144 2069 
L 1759 2144 
Q 1053 2284 737 2584 
Q 422 2884 422 3419 
Q 422 4038 858 4394 
Q 1294 4750 2059 4750 
Q 2388 4750 2728 4690 
Q 3069 4631 3425 4513 
z
" transform="scale(0.015625)"/>
       <path id="DejaVuSans-61" d="M 2194 1759 
Q 1497 1759 1228 1600 
Q 959 1441 959 1056 
Q 959 750 1161 570 
Q 1363 391 1709 391 
Q 2188 391 2477 730 
Q 2766 1069 2766 1631 
L 2766 1759 
L 2194 1759 
z
M 3341 1997 
L 3341 0 
L 2766 0 
L 2766 531 
Q 2569 213 2275 61 
Q 1981 -91 1556 -91 
Q 1019 -91 701 211 
Q 384 513 384 1019 
Q 384 1609 779 1909 
Q 1175 2209 1959 2209 
L 2766 2209 
L 2766 2266 
Q 2766 2663 2505 2880 
Q 2244 3097 1772 3097 
Q 1472 3097 1187 3025 
Q 903 2953 641 2809 
L 641 3341 
Q 956 3463 1253 3523 
Q 1550 3584 1831 3584 
Q 2591 3584 2966 3190 
Q 3341 2797 3341 1997 
z
" transform="scale(0.015625)"/>
       <path id="DejaVuSans-6d" d="M 3328 2828 
Q 3544 3216 3844 3400 
Q 4144 3584 4550 3584 
Q 5097 3584 5394 3201 
Q 5691 2819 5691 2113 
L 5691 0 
L 5113 0 
L 5113 2094 
Q 5113 2597 4934 2840 
Q 4756 3084 4391 3084 
Q 3944 3084 3684 2787 
Q 3425 2491 3425 1978 
L 3425 0 
L 2847 0 
L 2847 2094 
Q 2847 2600 2669 2842 
Q 2491 3084 2119 3084 
Q 1678 3084 1418 2786 
Q 1159 2488 1159 1978 
L 1159 0 
L 581 0 
L 581 3500 
L 1159 3500 
L 1159 2956 
Q 1356 3278 1631 3431 
Q 1906 3584 2284 3584 
Q 2666 3584 2933 3390 
Q 3200 3197 3328 2828 
z
" transform="scale(0.015625)"/>
       <path id="DejaVuSans-70" d="M 1159 525 
L 1159 -1331 
L 581 -1331 
L 581 3500 
L 1159 3500 
L 1159 2969 
Q 1341 3281 1617 3432 
Q 1894 3584 2278 3584 
Q 2916 3584 3314 3078 
Q 3713 2572 3713 1747 
Q 3713 922 3314 415 
Q 2916 -91 2278 -91 
Q 1894 -91 1617 61 
Q 1341 213 1159 525 
z
M 3116 1747 
Q 3116 2381 2855 2742 
Q 2594 3103 2138 3103 
Q 1681 3103 1420 2742 
Q 1159 2381 1159 1747 
Q 1159 1113 1420 752 
Q 1681 391 2138 391 
Q 2594 391 2855 752 
Q 3116 1113 3116 1747 
z
" transform="scale(0.015625)"/>
       <path id="DejaVuSans-6c" d="M 603 4863 
L 1178 4863 
L 1178 0 
L 603 0 
L 603 4863 
z
" transform="scale(0.015625)"/>
       <path id="DejaVuSans-65" d="M 3597 1894 
L 3597 1613 
L 953 1613 
Q 991 1019 1311 708 
Q 1631 397 2203 397 
Q 2534 397 2845 478 
Q 3156 559 3463 722 
L 3463 178 
Q 3153 47 2828 -22 
Q 2503 -91 2169 -91 
Q 1331 -91 842 396 
Q 353 884 353 1716 
Q 353 2575 817 3079 
Q 1281 3584 2069 3584 
Q 2775 3584 3186 3129 
Q 3597 2675 3597 1894 
z
M 3022 2063 
Q 3016 2534 2758 2815 
Q 2500 3097 2075 3097 
Q 1594 3097 1305 2825 
Q 1016 2553 972 2059 
L 3022 2063 
z
" transform="scale(0.015625)"/>
       <path id="DejaVuSans-2c" d="M 750 794 
L 1409 794 
L 1409 256 
L 897 -744 
L 494 -744 
L 750 256 
L 750 794 
z
" transform="scale(0.015625)"/>
       <path id="DejaVuSans-20" transform="scale(0.015625)"/>
       <path id="DejaVuSans-Oblique-6e" d="M 3566 2113 
L 3156 0 
L 2578 0 
L 2988 2091 
Q 3016 2238 3031 2350 
Q 3047 2463 3047 2528 
Q 3047 2791 2881 2937 
Q 2716 3084 2419 3084 
Q 1956 3084 1622 2776 
Q 1288 2469 1184 1941 
L 800 0 
L 225 0 
L 903 3500 
L 1478 3500 
L 1363 2950 
Q 1603 3253 1940 3418 
Q 2278 3584 2650 3584 
Q 3113 3584 3367 3334 
Q 3622 3084 3622 2631 
Q 3622 2519 3608 2391 
Q 3594 2263 3566 2113 
z
" transform="scale(0.015625)"/>
      </defs>
      <use xlink:href="#DejaVuSans-53" transform="translate(0 0.015625)"/>
      <use xlink:href="#DejaVuSans-61" transform="translate(63.476562 0.015625)"/>
      <use xlink:href="#DejaVuSans-6d" transform="translate(124.755859 0.015625)"/>
      <use xlink:href="#DejaVuSans-70" transform="translate(222.167969 0.015625)"/>
      <use xlink:href="#DejaVuSans-6c" transform="translate(285.644531 0.015625)"/>
      <use xlink:href="#DejaVuSans-65" transform="translate(313.427734 0.015625)"/>
      <use xlink:href="#DejaVuSans-2c" transform="translate(374.951172 0.015625)"/>
      <use xlink:href="#DejaVuSans-20" transform="translate(406.738281 0.015625)"/>
      <use xlink:href="#DejaVuSans-Oblique-6e" transform="translate(438.525391 0.015625)"/>
     </g>
    </g>
   </g>
   <g id="matplotlib.axis_2">
    <g id="ytick_1">
     <g id="line2d_19">
      <path d="M 52.160938 238.633499 
L 568.8 238.633499 
" clip-path="url(#pbd51e0e708)" style="fill: none; stroke-dasharray: 2.96,1.28; stroke-dashoffset: 0; stroke: #b0b0b0; stroke-opacity: 0.8; stroke-width: 0.8"/>
     </g>
     <g id="line2d_20">
      <defs>
       <path id="m97567f7025" d="M 0 0 
L -3.5 0 
" style="stroke: #000000; stroke-width: 0.8"/>
      </defs>
      <g>
       <use xlink:href="#m97567f7025" x="52.160938" y="238.633499" style="stroke: #000000; stroke-width: 0.8"/>
      </g>
     </g>
     <g id="text_11">
      <!-- −0.4 -->
      <g transform="translate(20.878125 242.432718) scale(0.1 -0.1)">
       <defs>
        <path id="DejaVuSans-2212" d="M 678 2272 
L 4684 2272 
L 4684 1741 
L 678 1741 
L 678 2272 
z
" transform="scale(0.015625)"/>
        <path id="DejaVuSans-2e" d="M 684 794 
L 1344 794 
L 1344 0 
L 684 0 
L 684 794 
z
" transform="scale(0.015625)"/>
       </defs>
       <use xlink:href="#DejaVuSans-2212"/>
       <use xlink:href="#DejaVuSans-30" transform="translate(83.789062 0)"/>
       <use xlink:href="#DejaVuSans-2e" transform="translate(147.412109 0)"/>
       <use xlink:href="#DejaVuSans-34" transform="translate(179.199219 0)"/>
      </g>
     </g>
    </g>
    <g id="ytick_2">
     <g id="line2d_21">
      <path d="M 52.160938 210.644689 
L 568.8 210.644689 
" clip-path="url(#pbd51e0e708)" style="fill: none; stroke-dasharray: 2.96,1.28; stroke-dashoffset: 0; stroke: #b0b0b0; stroke-opacity: 0.8; stroke-width: 0.8"/>
     </g>
     <g id="line2d_22">
      <g>
       <use xlink:href="#m97567f7025" x="52.160938" y="210.644689" style="stroke: #000000; stroke-width: 0.8"/>
      </g>
     </g>
     <g id="text_12">
      <!-- −0.3 -->
      <g transform="translate(20.878125 214.443907) scale(0.1 -0.1)">
       <use xlink:href="#DejaVuSans-2212"/>
       <use xlink:href="#DejaVuSans-30" transform="translate(83.789062 0)"/>
       <use xlink:href="#DejaVuSans-2e" transform="translate(147.412109 0)"/>
       <use xlink:href="#DejaVuSans-33" transform="translate(179.199219 0)"/>
      </g>
     </g>
    </g>
    <g id="ytick_3">
     <g id="line2d_23">
      <path d="M 52.160938 182.655878 
L 568.8 182.655878 
" clip-path="url(#pbd51e0e708)" style="fill: none; stroke-dasharray: 2.96,1.28; stroke-dashoffset: 0; stroke: #b0b0b0; stroke-opacity: 0.8; stroke-width: 0.8"/>
     </g>
     <g id="line2d_24">
      <g>
       <use xlink:href="#m97567f7025" x="52.160938" y="182.655878" style="stroke: #000000; stroke-width: 0.8"/>
      </g>
     </g>
     <g id="text_13">
      <!-- −0.2 -->
      <g transform="translate(20.878125 186.455097) scale(0.1 -0.1)">
       <use xlink:href="#DejaVuSans-2212"/>
       <use xlink:href="#DejaVuSans-30" transform="translate(83.789062 0)"/>
       <use xlink:href="#DejaVuSans-2e" transform="translate(147.412109 0)"/>
       <use xlink:href="#DejaVuSans-32" transform="translate(179.199219 0)"/>
      </g>
     </g>
    </g>
    <g id="ytick_4">
     <g id="line2d_25">
      <path d="M 52.160938 154.667067 
L 568.8 154.667067 
" clip-path="url(#pbd51e0e708)" style="fill: none; stroke-dasharray: 2.96,1.28; stroke-dashoffset: 0; stroke: #b0b0b0; stroke-opacity: 0.8; stroke-width: 0.8"/>
     </g>
     <g id="line2d_26">
      <g>
       <use xlink:href="#m97567f7025" x="52.160938" y="154.667067" style="stroke: #000000; stroke-width: 0.8"/>
      </g>
     </g>
     <g id="text_14">
      <!-- −0.1 -->
      <g transform="translate(20.878125 158.466286) scale(0.1 -0.1)">
       <use xlink:href="#DejaVuSans-2212"/>
       <use xlink:href="#DejaVuSans-30" transform="translate(83.789062 0)"/>
       <use xlink:href="#DejaVuSans-2e" transform="translate(147.412109 0)"/>
       <use xlink:href="#DejaVuSans-31" transform="translate(179.199219 0)"/>
      </g>
     </g>
    </g>
    <g id="ytick_5">
     <g id="line2d_27">
      <path d="M 52.160938 126.678257 
L 568.8 126.678257 
" clip-path="url(#pbd51e0e708)" style="fill: none; stroke-dasharray: 2.96,1.28; stroke-dashoffset: 0; stroke: #b0b0b0; stroke-opacity: 0.8; stroke-width: 0.8"/>
     </g>
     <g id="line2d_28">
      <g>
       <use xlink:href="#m97567f7025" x="52.160938" y="126.678257" style="stroke: #000000; stroke-width: 0.8"/>
      </g>
     </g>
     <g id="text_15">
      <!-- 0.0 -->
      <g transform="translate(29.257812 130.477476) scale(0.1 -0.1)">
       <use xlink:href="#DejaVuSans-30"/>
       <use xlink:href="#DejaVuSans-2e" transform="translate(63.623047 0)"/>
       <use xlink:href="#DejaVuSans-30" transform="translate(95.410156 0)"/>
      </g>
     </g>
    </g>
    <g id="ytick_6">
     <g id="line2d_29">
      <path d="M 52.160938 98.689446 
L 568.8 98.689446 
" clip-path="url(#pbd51e0e708)" style="fill: none; stroke-dasharray: 2.96,1.28; stroke-dashoffset: 0; stroke: #b0b0b0; stroke-opacity: 0.8; stroke-width: 0.8"/>
     </g>
     <g id="line2d_30">
      <g>
       <use xlink:href="#m97567f7025" x="52.160938" y="98.689446" style="stroke: #000000; stroke-width: 0.8"/>
      </g>
     </g>
     <g id="text_16">
      <!-- 0.1 -->
      <g transform="translate(29.257812 102.488665) scale(0.1 -0.1)">
       <use xlink:href="#DejaVuSans-30"/>
       <use xlink:href="#DejaVuSans-2e" transform="translate(63.623047 0)"/>
       <use xlink:href="#DejaVuSans-31" transform="translate(95.410156 0)"/>
      </g>
     </g>
    </g>
    <g id="ytick_7">
     <g id="line2d_31">
      <path d="M 52.160938 70.700636 
L 568.8 70.700636 
" clip-path="url(#pbd51e0e708)" style="fill: none; stroke-dasharray: 2.96,1.28; stroke-dashoffset: 0; stroke: #b0b0b0; stroke-opacity: 0.8; stroke-width: 0.8"/>
     </g>
     <g id="line2d_32">
      <g>
       <use xlink:href="#m97567f7025" x="52.160938" y="70.700636" style="stroke: #000000; stroke-width: 0.8"/>
      </g>
     </g>
     <g id="text_17">
      <!-- 0.2 -->
      <g transform="translate(29.257812 74.499855) scale(0.1 -0.1)">
       <use xlink:href="#DejaVuSans-30"/>
       <use xlink:href="#DejaVuSans-2e" transform="translate(63.623047 0)"/>
       <use xlink:href="#DejaVuSans-32" transform="translate(95.410156 0)"/>
      </g>
     </g>
    </g>
    <g id="ytick_8">
     <g id="line2d_33">
      <path d="M 52.160938 42.711825 
L 568.8 42.711825 
" clip-path="url(#pbd51e0e708)" style="fill: none; stroke-dasharray: 2.96,1.28; stroke-dashoffset: 0; stroke: #b0b0b0; stroke-opacity: 0.8; stroke-width: 0.8"/>
     </g>
     <g id="line2d_34">
      <g>
       <use xlink:href="#m97567f7025" x="52.160938" y="42.711825" style="stroke: #000000; stroke-width: 0.8"/>
      </g>
     </g>
     <g id="text_18">
      <!-- 0.3 -->
      <g transform="translate(29.257812 46.511044) scale(0.1 -0.1)">
       <use xlink:href="#DejaVuSans-30"/>
       <use xlink:href="#DejaVuSans-2e" transform="translate(63.623047 0)"/>
       <use xlink:href="#DejaVuSans-33" transform="translate(95.410156 0)"/>
      </g>
     </g>
    </g>
    <g id="ytick_9">
     <g id="line2d_35">
      <path d="M 52.160938 14.723015 
L 568.8 14.723015 
" clip-path="url(#pbd51e0e708)" style="fill: none; stroke-dasharray: 2.96,1.28; stroke-dashoffset: 0; stroke: #b0b0b0; stroke-opacity: 0.8; stroke-width: 0.8"/>
     </g>
     <g id="line2d_36">
      <g>
       <use xlink:href="#m97567f7025" x="52.160938" y="14.723015" style="stroke: #000000; stroke-width: 0.8"/>
      </g>
     </g>
     <g id="text_19">
      <!-- 0.4 -->
      <g transform="translate(29.257812 18.522234) scale(0.1 -0.1)">
       <use xlink:href="#DejaVuSans-30"/>
       <use xlink:href="#DejaVuSans-2e" transform="translate(63.623047 0)"/>
       <use xlink:href="#DejaVuSans-34" transform="translate(95.410156 0)"/>
      </g>
     </g>
    </g>
    <g id="text_20">
     <!-- Amplitude -->
     <g transform="translate(14.798437 154.433594) rotate(-90) scale(0.1 -0.1)">
      <defs>
       <path id="DejaVuSans-41" d="M 2188 4044 
L 1331 1722 
L 3047 1722 
L 2188 4044 
z
M 1831 4666 
L 2547 4666 
L 4325 0 
L 3669 0 
L 3244 1197 
L 1141 1197 
L 716 0 
L 50 0 
L 1831 4666 
z
" transform="scale(0.015625)"/>
       <path id="DejaVuSans-69" d="M 603 3500 
L 1178 3500 
L 1178 0 
L 603 0 
L 603 3500 
z
M 603 4863 
L 1178 4863 
L 1178 4134 
L 603 4134 
L 603 4863 
z
" transform="scale(0.015625)"/>
       <path id="DejaVuSans-74" d="M 1172 4494 
L 1172 3500 
L 2356 3500 
L 2356 3053 
L 1172 3053 
L 1172 1153 
Q 1172 725 1289 603 
Q 1406 481 1766 481 
L 2356 481 
L 2356 0 
L 1766 0 
Q 1100 0 847 248 
Q 594 497 594 1153 
L 594 3053 
L 172 3053 
L 172 3500 
L 594 3500 
L 594 4494 
L 1172 4494 
z
" transform="scale(0.015625)"/>
       <path id="DejaVuSans-75" d="M 544 1381 
L 544 3500 
L 1119 3500 
L 1119 1403 
Q 1119 906 1312 657 
Q 1506 409 1894 409 
Q 2359 409 2629 706 
Q 2900 1003 2900 1516 
L 2900 3500 
L 3475 3500 
L 3475 0 
L 2900 0 
L 2900 538 
Q 2691 219 2414 64 
Q 2138 -91 1772 -91 
Q 1169 -91 856 284 
Q 544 659 544 1381 
z
M 1991 3584 
L 1991 3584 
z
" transform="scale(0.015625)"/>
       <path id="DejaVuSans-64" d="M 2906 2969 
L 2906 4863 
L 3481 4863 
L 3481 0 
L 2906 0 
L 2906 525 
Q 2725 213 2448 61 
Q 2172 -91 1784 -91 
Q 1150 -91 751 415 
Q 353 922 353 1747 
Q 353 2572 751 3078 
Q 1150 3584 1784 3584 
Q 2172 3584 2448 3432 
Q 2725 3281 2906 2969 
z
M 947 1747 
Q 947 1113 1208 752 
Q 1469 391 1925 391 
Q 2381 391 2643 752 
Q 2906 1113 2906 1747 
Q 2906 2381 2643 2742 
Q 2381 3103 1925 3103 
Q 1469 3103 1208 2742 
Q 947 2381 947 1747 
z
" transform="scale(0.015625)"/>
      </defs>
      <use xlink:href="#DejaVuSans-41"/>
      <use xlink:href="#DejaVuSans-6d" transform="translate(68.408203 0)"/>
      <use xlink:href="#DejaVuSans-70" transform="translate(165.820312 0)"/>
      <use xlink:href="#DejaVuSans-6c" transform="translate(229.296875 0)"/>
      <use xlink:href="#DejaVuSans-69" transform="translate(257.080078 0)"/>
      <use xlink:href="#DejaVuSans-74" transform="translate(284.863281 0)"/>
      <use xlink:href="#DejaVuSans-75" transform="translate(324.072266 0)"/>
      <use xlink:href="#DejaVuSans-64" transform="translate(387.451172 0)"/>
      <use xlink:href="#DejaVuSans-65" transform="translate(450.927734 0)"/>
     </g>
    </g>
   </g>
   <g id="line2d_37">
    <path d="M 75.644531 119.867954 
L 76.821654 162.710533 
L 77.998776 197.829415 
L 80.353021 233.385529 
L 82.707266 197.252901 
L 83.884389 159.597212 
L 85.061511 127.133875 
L 86.238634 87.887835 
L 87.415756 57.140755 
L 88.592879 35.556157 
L 89.770001 24.4098 
L 90.947124 36.039291 
L 92.124246 51.437367 
L 93.301369 91.945077 
L 96.832736 193.773683 
L 99.186981 231.301115 
L 100.364104 214.292216 
L 101.541226 191.431644 
L 102.718349 165.359476 
L 103.895471 120.84721 
L 106.249716 195.50234 
L 108.603961 229.717826 
L 109.781084 219.755017 
L 110.958206 198.405012 
L 113.312451 125.420923 
L 114.489574 168.316534 
L 115.666696 187.8204 
L 116.843819 223.367264 
L 118.020941 223.46205 
L 119.198064 213.654714 
L 120.375186 197.639761 
L 121.552309 155.436173 
L 125.083676 55.369439 
L 126.260798 36.837453 
L 127.437921 24.269103 
L 128.615043 33.246292 
L 129.792166 57.270613 
L 132.146411 124.188502 
L 133.323533 162.274013 
L 134.500656 206.691425 
L 136.854901 231.086875 
L 138.032023 225.734953 
L 139.209146 203.415666 
L 140.386268 155.471604 
L 141.563391 127.710657 
L 142.740513 90.826776 
L 143.917636 58.972797 
L 145.094758 41.906777 
L 146.271881 32.118136 
L 147.449003 36.016732 
L 148.626126 54.96436 
L 149.803248 82.810026 
L 150.980371 133.914647 
L 152.157493 90.452588 
L 154.511738 39.086134 
L 155.688861 31.900053 
L 156.865983 33.582462 
L 158.043106 52.675563 
L 159.220228 83.331942 
L 160.397351 125.931693 
L 161.574473 157.46672 
L 162.751596 200.221734 
L 163.928718 225.585846 
L 165.105841 227.639042 
L 166.282963 212.407443 
L 168.637208 171.882554 
L 169.814331 125.35534 
L 170.991453 164.292512 
L 172.168576 194.550045 
L 173.345698 215.788469 
L 174.522821 225.642473 
L 175.699943 215.659165 
L 176.877066 191.672941 
L 178.054188 163.075387 
L 179.231311 119.573542 
L 180.408433 93.731085 
L 181.585556 57.923649 
L 182.762678 31.329106 
L 183.939801 21.287375 
L 185.116923 27.412287 
L 187.471168 88.967733 
L 188.648291 131.965881 
L 189.825413 156.968057 
L 191.002536 190.790202 
L 192.179658 212.890836 
L 193.356781 221.795918 
L 194.533903 217.792846 
L 195.711026 194.426257 
L 196.888148 165.586575 
L 198.065271 119.95019 
L 199.242393 163.888208 
L 200.419516 194.987851 
L 201.596638 218.447178 
L 202.773761 222.695841 
L 203.950883 220.145837 
L 205.128006 185.353412 
L 206.305128 163.17147 
L 207.482251 129.203109 
L 208.659373 86.051356 
L 209.836496 56.151034 
L 211.013618 32.833508 
L 212.190741 27.273488 
L 213.367863 28.36105 
L 214.544986 57.33322 
L 216.89923 124.951253 
L 218.076353 86.100696 
L 219.253475 58.330053 
L 220.430598 35.414168 
L 221.60772 23.555204 
L 222.784843 38.035207 
L 223.961965 56.82113 
L 225.139088 87.19543 
L 226.31621 122.498854 
L 227.493333 89.564676 
L 228.670455 50.076005 
L 229.847578 38.013302 
L 231.0247 31.198083 
L 232.201823 37.184924 
L 233.378945 58.752247 
L 235.73319 126.337057 
L 236.910313 169.019079 
L 238.087435 197.661066 
L 239.264558 216.899171 
L 240.44168 225.102598 
L 241.618803 222.943465 
L 243.973048 162.519076 
L 245.15017 125.263265 
L 246.327293 167.621471 
L 247.504415 195.047181 
L 248.681538 215.692797 
L 249.85866 223.334464 
L 251.035783 215.671007 
L 252.212905 196.1506 
L 253.390028 160.36878 
L 254.56715 130.776573 
L 256.921395 57.56165 
L 258.098518 33.230016 
L 259.27564 21.413852 
L 260.452763 36.399464 
L 261.629885 61.114918 
L 262.807008 97.854878 
L 263.98413 124.497811 
L 265.161253 170.412317 
L 266.338375 203.842754 
L 267.515498 219.471985 
L 268.69262 217.125861 
L 269.869743 216.901277 
L 271.046865 205.102903 
L 273.40111 130.952008 
L 274.578233 157.775734 
L 275.755355 193.810106 
L 276.932478 220.470871 
L 278.1096 218.301573 
L 279.286723 215.236508 
L 280.463845 199.761625 
L 282.81809 127.161085 
L 283.995213 166.918147 
L 285.172335 196.591088 
L 286.349458 216.418726 
L 287.52658 228.252074 
L 288.703703 221.315325 
L 289.880825 197.084473 
L 291.057948 167.457863 
L 292.23507 124.413439 
L 293.412193 157.836043 
L 294.589315 198.176291 
L 295.766438 211.337665 
L 296.94356 233.243193 
L 298.120683 218.424821 
L 299.297805 196.646347 
L 301.65205 132.360319 
L 302.829173 161.472126 
L 305.183418 229.49884 
L 306.36054 218.787474 
L 307.537663 219.348653 
L 308.714785 191.859765 
L 309.891908 167.35675 
L 311.06903 127.748963 
L 312.246152 164.539006 
L 313.423275 197.172444 
L 314.600397 217.287248 
L 315.77752 239.366335 
L 316.954642 218.455824 
L 318.131765 200.056476 
L 319.308887 165.348316 
L 320.48601 136.56688 
L 321.663132 164.281973 
L 322.840255 199.33628 
L 324.017377 219.048833 
L 325.1945 228.229352 
L 326.371622 222.860228 
L 328.725867 162.993278 
L 329.90299 126.464364 
L 331.080112 82.91996 
L 333.434357 41.471829 
L 334.61148 24.296267 
L 335.788602 37.425724 
L 336.965725 51.856336 
L 339.31997 130.434212 
L 340.497092 86.126777 
L 342.851337 24.561363 
L 344.02846 33.140994 
L 345.205582 33.645772 
L 346.382705 56.027393 
L 347.559827 96.684535 
L 348.73695 128.873002 
L 351.091195 205.041678 
L 352.268317 219.516669 
L 353.44544 231.413488 
L 354.622562 212.271675 
L 355.799685 195.967198 
L 358.15393 132.160969 
L 359.331052 81.900672 
L 360.508175 50.706695 
L 361.685297 36.287102 
L 362.86242 30.404871 
L 364.039542 30.13999 
L 366.393787 85.531012 
L 367.57091 125.6152 
L 368.748032 84.779307 
L 369.925155 56.104025 
L 371.102277 38.837095 
L 372.2794 27.70101 
L 373.456522 28.19983 
L 375.810767 86.649537 
L 376.98789 125.971464 
L 378.165012 83.290068 
L 379.342135 55.888636 
L 380.519257 36.293226 
L 381.69638 25.25574 
L 382.873502 27.421371 
L 384.050625 54.023405 
L 385.227747 84.414869 
L 386.40487 122.558751 
L 387.581992 93.867058 
L 388.759115 57.834213 
L 389.936237 44.383797 
L 391.11336 20.151571 
L 392.290482 31.381115 
L 393.467605 51.815772 
L 395.82185 118.259465 
L 396.998972 92.334658 
L 398.176095 54.410758 
L 399.353217 38.631226 
L 400.53034 26.705435 
L 401.707462 38.922209 
L 402.884585 58.345388 
L 404.061707 92.369241 
L 405.238829 134.665418 
L 406.415952 163.105805 
L 407.593074 196.550581 
L 408.770197 217.560054 
L 409.947319 227.51757 
L 411.124442 211.479296 
L 412.301564 192.382024 
L 413.478687 166.456335 
L 414.655809 134.158554 
L 415.832932 87.576391 
L 417.010054 57.619852 
L 418.187177 34.734851 
L 419.364299 27.058411 
L 420.541422 33.94125 
L 422.895667 88.617576 
L 424.072789 127.885646 
L 425.249912 174.270764 
L 426.427034 198.537047 
L 427.604157 212.974681 
L 428.781279 223.663176 
L 429.958402 219.092733 
L 432.312647 162.490876 
L 433.489769 131.933398 
L 434.666892 80.698048 
L 435.844014 56.978804 
L 437.021137 36.059567 
L 438.198259 30.290464 
L 439.375382 34.378885 
L 440.552504 49.668415 
L 442.906749 122.100021 
L 445.260994 60.192791 
L 446.438117 32.417279 
L 447.615239 23.390212 
L 448.792362 34.092904 
L 449.969484 56.698951 
L 451.146607 86.705576 
L 452.323729 128.180178 
L 453.500852 163.544375 
L 455.855097 215.655251 
L 457.032219 227.856339 
L 458.209342 228.200921 
L 460.563587 156.710052 
L 461.740709 127.623525 
L 462.917832 156.349033 
L 464.094954 197.26688 
L 465.272077 221.224855 
L 466.449199 227.407204 
L 467.626322 228.879746 
L 471.157689 128.060999 
L 472.334812 163.527755 
L 474.689057 213.408766 
L 475.866179 225.889781 
L 477.043302 220.064059 
L 478.220424 202.28305 
L 479.397547 169.973341 
L 480.574669 132.39376 
L 481.751792 169.884353 
L 482.928914 194.977465 
L 484.106037 216.794907 
L 485.283159 228.784683 
L 486.460282 214.285572 
L 487.637404 194.70911 
L 488.814527 165.595912 
L 489.991649 118.749818 
L 492.345894 67.051464 
L 493.523017 32.559975 
L 494.700139 24.493663 
L 495.877262 39.967246 
L 497.054384 56.927869 
L 498.231507 82.293093 
L 499.408629 128.396711 
L 501.762874 202.03563 
L 502.939996 222.697023 
L 504.117119 235.950261 
L 505.294241 224.095123 
L 506.471364 200.468617 
L 508.825609 131.413929 
L 510.002731 86.732084 
L 511.179854 56.078104 
L 512.356976 35.224197 
L 513.534099 25.321305 
L 514.711221 31.504115 
L 515.888344 45.623823 
L 518.242589 127.041363 
L 519.419711 87.611887 
L 521.773956 32.459307 
L 522.951079 30.068842 
L 524.128201 33.519168 
L 525.305324 58.102221 
L 526.482446 89.715937 
L 527.659569 124.61218 
L 528.836691 164.585305 
L 530.013814 196.59741 
L 531.190936 207.418231 
L 532.368059 222.811105 
L 533.545181 215.699964 
L 534.722304 191.655141 
L 535.899426 163.584798 
L 538.253671 84.557526 
L 539.430794 53.892607 
L 540.607916 31.784457 
L 541.785039 30.838454 
L 542.962161 30.680977 
L 544.139284 59.555562 
L 545.316406 91.445745 
L 545.316406 91.445745 
" clip-path="url(#pbd51e0e708)" style="fill: none; stroke: #1f77b4; stroke-linecap: square"/>
   </g>
   <g id="line2d_38">
    <path d="M 75.644531 116.326776 
L 76.821654 123.873423 
L 77.998776 126.549078 
L 79.175899 131.944617 
L 80.353021 129.226293 
L 81.530144 89.154509 
L 82.707266 61.160446 
L 83.884389 37.610558 
L 85.061511 32.321334 
L 86.238634 31.842726 
L 87.415756 52.505022 
L 88.592879 84.552509 
L 89.770001 128.694734 
L 92.124246 203.464519 
L 93.301369 217.960876 
L 94.478491 226.754262 
L 96.832736 198.836413 
L 98.009859 163.922442 
L 99.186981 122.816016 
L 100.364104 173.556345 
L 101.541226 207.595834 
L 103.895471 226.909338 
L 105.072594 216.913989 
L 106.249716 199.422817 
L 107.426839 166.660444 
L 108.603961 120.425514 
L 109.781084 163.8935 
L 110.958206 199.567275 
L 112.135329 215.363813 
L 113.312451 222.14575 
L 114.489574 221.406598 
L 115.666696 200.486277 
L 118.020941 132.25014 
L 120.375186 190.747315 
L 121.552309 209.369713 
L 122.729431 223.470846 
L 123.906553 212.461614 
L 125.083676 195.35998 
L 126.260798 171.253061 
L 127.437921 126.921801 
L 128.615043 155.689532 
L 129.792166 197.822115 
L 130.969288 218.945532 
L 132.146411 223.765262 
L 133.323533 222.238729 
L 134.500656 203.179557 
L 139.209146 60.869343 
L 140.386268 35.137144 
L 141.563391 22.48574 
L 142.740513 31.883042 
L 145.094758 93.376114 
L 146.271881 125.889788 
L 147.449003 90.168243 
L 148.626126 50.945485 
L 150.980371 18.25554 
L 153.334616 59.087051 
L 154.511738 81.676488 
L 155.688861 124.565461 
L 156.865983 96.791904 
L 158.043106 61.286446 
L 159.220228 38.895995 
L 160.397351 23.066911 
L 161.574473 30.442651 
L 162.751596 49.077102 
L 165.105841 127.096075 
L 166.282963 84.827408 
L 167.460086 60.761889 
L 168.637208 45.531544 
L 169.814331 28.673069 
L 170.991453 34.79606 
L 172.168576 56.931599 
L 174.522821 129.01655 
L 175.699943 85.035168 
L 176.877066 54.718947 
L 178.054188 43.130342 
L 179.231311 25.504447 
L 180.408433 31.074889 
L 181.585556 64.836976 
L 182.762678 86.50227 
L 183.939801 132.675713 
L 185.116923 157.448772 
L 186.294046 194.313594 
L 187.471168 217.759044 
L 188.648291 228.241678 
L 189.825413 210.177445 
L 191.002536 200.433811 
L 192.179658 168.845242 
L 194.533903 83.244261 
L 195.711026 50.769775 
L 196.888148 31.849931 
L 198.065271 26.25174 
L 199.242393 29.01525 
L 200.419516 62.953578 
L 201.596638 91.05446 
L 202.773761 132.993814 
L 205.128006 199.251939 
L 206.305128 226.847879 
L 207.482251 222.943061 
L 208.659373 217.716029 
L 211.013618 166.99254 
L 212.190741 122.409264 
L 213.367863 165.744409 
L 214.544986 199.127756 
L 215.722108 222.846176 
L 216.89923 222.268911 
L 218.076353 214.621934 
L 219.253475 203.434241 
L 220.430598 171.298007 
L 221.60772 129.519994 
L 222.784843 160.04101 
L 223.961965 197.114293 
L 225.139088 225.337497 
L 226.31621 222.800643 
L 227.493333 220.811126 
L 228.670455 197.357425 
L 229.847578 168.579765 
L 231.0247 120.605902 
L 232.201823 172.771073 
L 233.378945 194.854204 
L 234.556068 210.667703 
L 235.73319 232.98599 
L 238.087435 194.962166 
L 240.44168 134.636433 
L 241.618803 162.907953 
L 242.795925 204.211128 
L 243.973048 225.046629 
L 245.15017 223.229733 
L 246.327293 213.682543 
L 247.504415 200.006266 
L 248.681538 169.415174 
L 249.85866 135.891955 
L 251.035783 93.493714 
L 252.212905 58.757993 
L 253.390028 40.604692 
L 254.56715 33.88989 
L 255.744273 32.149804 
L 256.921395 59.274166 
L 258.098518 96.467217 
L 259.27564 125.685195 
L 260.452763 171.039625 
L 261.629885 195.295251 
L 262.807008 215.093568 
L 263.98413 230.681621 
L 265.161253 220.090355 
L 266.338375 196.556564 
L 268.69262 131.854692 
L 269.869743 87.092178 
L 271.046865 57.819135 
L 272.223988 34.813659 
L 273.40111 29.309026 
L 274.578233 32.557531 
L 275.755355 58.942856 
L 278.1096 132.078574 
L 279.286723 86.743824 
L 280.463845 51.097503 
L 281.640968 37.415062 
L 282.81809 34.252855 
L 283.995213 33.590309 
L 285.172335 58.749446 
L 286.349458 89.097686 
L 287.52658 129.984859 
L 289.880825 196.027668 
L 292.23507 226.093469 
L 293.412193 217.059328 
L 295.766438 171.302101 
L 296.94356 131.862716 
L 298.120683 158.682227 
L 299.297805 207.266275 
L 300.474928 213.135609 
L 301.65205 228.193853 
L 302.829173 221.074661 
L 304.006295 195.45265 
L 305.183418 162.836213 
L 308.714785 54.19766 
L 309.891908 31.342417 
L 311.06903 29.528199 
L 312.246152 37.287361 
L 313.423275 63.522115 
L 314.600397 92.838893 
L 315.77752 125.513265 
L 318.131765 55.149647 
L 319.308887 33.657513 
L 320.48601 25.855119 
L 321.663132 32.099432 
L 322.840255 61.445976 
L 324.017377 81.762847 
L 325.1945 138.127223 
L 326.371622 169.871128 
L 327.548745 192.31273 
L 328.725867 220.188741 
L 329.90299 223.08002 
L 331.080112 218.309196 
L 333.434357 172.2157 
L 334.61148 122.31525 
L 335.788602 165.973949 
L 336.965725 190.039475 
L 338.142847 224.504779 
L 339.31997 224.643314 
L 340.497092 219.762322 
L 341.674215 196.788861 
L 342.851337 163.28037 
L 344.02846 123.61935 
L 345.205582 161.943372 
L 347.559827 214.329509 
L 348.73695 228.033588 
L 349.914072 226.411036 
L 352.268317 165.696513 
L 355.799685 53.989992 
L 356.976807 35.345637 
L 358.15393 22.486872 
L 359.331052 31.636133 
L 361.685297 88.307264 
L 362.86242 132.86925 
L 364.039542 166.686778 
L 365.216665 190.203948 
L 366.393787 218.959213 
L 367.57091 229.792811 
L 368.748032 219.59557 
L 369.925155 198.216862 
L 372.2794 128.419949 
L 373.456522 171.169967 
L 374.633645 202.45828 
L 375.810767 222.104961 
L 376.98789 226.298271 
L 378.165012 214.32124 
L 380.519257 167.203153 
L 381.69638 127.060939 
L 382.873502 169.910441 
L 385.227747 216.720063 
L 386.40487 222.228704 
L 387.581992 215.192632 
L 388.759115 200.156866 
L 389.936237 155.80273 
L 391.11336 128.186069 
L 392.290482 95.212382 
L 393.467605 56.569953 
L 394.644727 34.971061 
L 395.82185 27.520314 
L 396.998972 33.293169 
L 398.176095 54.684783 
L 400.53034 129.251237 
L 402.884585 56.94495 
L 404.061707 43.136726 
L 405.238829 23.182524 
L 406.415952 25.901384 
L 408.770197 88.583013 
L 409.947319 127.468119 
L 412.301564 197.876804 
L 413.478687 213.95946 
L 414.655809 227.754542 
L 415.832932 206.877019 
L 417.010054 195.597361 
L 418.187177 168.257086 
L 419.364299 132.465629 
L 420.541422 86.496506 
L 421.718544 58.954452 
L 422.895667 35.006889 
L 424.072789 27.849234 
L 425.249912 40.135847 
L 426.427034 54.004639 
L 427.604157 86.597228 
L 428.781279 126.556466 
L 429.958402 84.830729 
L 432.312647 32.919024 
L 433.489769 31.752308 
L 434.666892 36.375639 
L 435.844014 54.282839 
L 437.021137 91.967694 
L 438.198259 114.493609 
L 439.375382 173.372836 
L 440.552504 201.986701 
L 441.729627 211.464534 
L 442.906749 223.120037 
L 444.083872 212.813214 
L 445.260994 195.24118 
L 446.438117 170.656741 
L 447.615239 127.293553 
L 448.792362 167.717402 
L 449.969484 196.870809 
L 451.146607 220.77753 
L 452.323729 220.090981 
L 453.500852 215.465109 
L 455.855097 166.452727 
L 457.032219 123.48304 
L 458.209342 97.43718 
L 459.386464 62.373776 
L 460.563587 40.030901 
L 461.740709 30.720351 
L 462.917832 31.123305 
L 464.094954 53.695133 
L 466.449199 126.496534 
L 467.626322 88.376144 
L 468.803444 59.601084 
L 469.980567 37.512257 
L 471.157689 33.800671 
L 472.334812 27.206971 
L 473.511934 60.526528 
L 474.689057 85.452771 
L 475.866179 124.41289 
L 477.043302 171.766717 
L 478.220424 192.669916 
L 479.397547 215.79922 
L 480.574669 231.090063 
L 481.751792 212.086691 
L 482.928914 200.302626 
L 484.106037 161.103759 
L 485.283159 126.787693 
L 487.637404 195.579865 
L 488.814527 225.464642 
L 489.991649 228.611345 
L 491.168772 222.693923 
L 492.345894 192.367867 
L 493.523017 166.946342 
L 494.700139 129.037847 
L 495.877262 169.032397 
L 497.054384 194.839436 
L 498.231507 210.010273 
L 499.408629 230.218091 
L 500.585751 220.350032 
L 502.939996 168.253232 
L 504.117119 132.735173 
L 505.294241 173.065548 
L 506.471364 192.963303 
L 507.648486 214.986675 
L 508.825609 227.97513 
L 510.002731 211.948476 
L 511.179854 199.128513 
L 512.356976 164.491143 
L 513.534099 118.272196 
L 514.711221 90.123121 
L 515.888344 56.386695 
L 517.065466 35.572366 
L 518.242589 28.312916 
L 519.419711 37.410723 
L 520.596834 56.00766 
L 521.773956 92.220592 
L 522.951079 122.347619 
L 524.128201 165.348233 
L 525.305324 203.452566 
L 526.482446 228.466596 
L 527.659569 231.104273 
L 528.836691 219.689953 
L 530.013814 202.757743 
L 532.368059 131.810551 
L 533.545181 95.630921 
L 534.722304 55.776872 
L 535.899426 31.555791 
L 537.076549 26.470045 
L 539.430794 53.616952 
L 540.607916 87.7051 
L 541.785039 131.345124 
L 542.962161 163.480626 
L 544.139284 192.05078 
L 545.316406 213.985844 
L 545.316406 213.985844 
" clip-path="url(#pbd51e0e708)" style="fill: none; stroke: #ff7f0e; stroke-linecap: square"/>
   </g>
   <g id="patch_3">
    <path d="M 52.160938 250.421875 
L 52.160938 7.2 
" style="fill: none; stroke: #000000; stroke-width: 0.8; stroke-linejoin: miter; stroke-linecap: square"/>
   </g>
   <g id="patch_4">
    <path d="M 568.8 250.421875 
L 568.8 7.2 
" style="fill: none; stroke: #000000; stroke-width: 0.8; stroke-linejoin: miter; stroke-linecap: square"/>
   </g>
   <g id="patch_5">
    <path d="M 52.160937 250.421875 
L 568.8 250.421875 
" style="fill: none; stroke: #000000; stroke-width: 0.8; stroke-linejoin: miter; stroke-linecap: square"/>
   </g>
   <g id="patch_6">
    <path d="M 52.160937 7.2 
L 568.8 7.2 
" style="fill: none; stroke: #000000; stroke-width: 0.8; stroke-linejoin: miter; stroke-linecap: square"/>
   </g>
   <g id="legend_1">
    <g id="patch_7">
     <path d="M 59.160938 44.55625 
L 116.15625 44.55625 
Q 118.15625 44.55625 118.15625 42.55625 
L 118.15625 14.2 
Q 118.15625 12.2 116.15625 12.2 
L 59.160938 12.2 
Q 57.160938 12.2 57.160938 14.2 
L 57.160938 42.55625 
Q 57.160938 44.55625 59.160938 44.55625 
z
" style="fill: #ffffff; opacity: 0.8; stroke: #cccccc; stroke-linejoin: miter"/>
    </g>
    <g id="line2d_39">
     <path d="M 61.160938 20.298437 
L 71.160938 20.298437 
L 81.160938 20.298437 
" style="fill: none; stroke: #1f77b4; stroke-linecap: square"/>
    </g>
    <g id="text_21">
     <!-- real -->
     <g transform="translate(89.160938 23.798437) scale(0.1 -0.1)">
      <defs>
       <path id="DejaVuSans-72" d="M 2631 2963 
Q 2534 3019 2420 3045 
Q 2306 3072 2169 3072 
Q 1681 3072 1420 2755 
Q 1159 2438 1159 1844 
L 1159 0 
L 581 0 
L 581 3500 
L 1159 3500 
L 1159 2956 
Q 1341 3275 1631 3429 
Q 1922 3584 2338 3584 
Q 2397 3584 2469 3576 
Q 2541 3569 2628 3553 
L 2631 2963 
z
" transform="scale(0.015625)"/>
      </defs>
      <use xlink:href="#DejaVuSans-72"/>
      <use xlink:href="#DejaVuSans-65" transform="translate(38.863281 0)"/>
      <use xlink:href="#DejaVuSans-61" transform="translate(100.386719 0)"/>
      <use xlink:href="#DejaVuSans-6c" transform="translate(161.666016 0)"/>
     </g>
    </g>
    <g id="line2d_40">
     <path d="M 61.160938 34.976562 
L 71.160938 34.976562 
L 81.160938 34.976562 
" style="fill: none; stroke: #ff7f0e; stroke-linecap: square"/>
    </g>
    <g id="text_22">
     <!-- imag -->
     <g transform="translate(89.160938 38.476562) scale(0.1 -0.1)">
      <defs>
       <path id="DejaVuSans-67" d="M 2906 1791 
Q 2906 2416 2648 2759 
Q 2391 3103 1925 3103 
Q 1463 3103 1205 2759 
Q 947 2416 947 1791 
Q 947 1169 1205 825 
Q 1463 481 1925 481 
Q 2391 481 2648 825 
Q 2906 1169 2906 1791 
z
M 3481 434 
Q 3481 -459 3084 -895 
Q 2688 -1331 1869 -1331 
Q 1566 -1331 1297 -1286 
Q 1028 -1241 775 -1147 
L 775 -588 
Q 1028 -725 1275 -790 
Q 1522 -856 1778 -856 
Q 2344 -856 2625 -561 
Q 2906 -266 2906 331 
L 2906 616 
Q 2728 306 2450 153 
Q 2172 0 1784 0 
Q 1141 0 747 490 
Q 353 981 353 1791 
Q 353 2603 747 3093 
Q 1141 3584 1784 3584 
Q 2172 3584 2450 3431 
Q 2728 3278 2906 2969 
L 2906 3500 
L 3481 3500 
L 3481 434 
z
" transform="scale(0.015625)"/>
      </defs>
      <use xlink:href="#DejaVuSans-69"/>
      <use xlink:href="#DejaVuSans-6d" transform="translate(27.783203 0)"/>
      <use xlink:href="#DejaVuSans-61" transform="translate(125.195312 0)"/>
      <use xlink:href="#DejaVuSans-67" transform="translate(186.474609 0)"/>
     </g>
    </g>
   </g>
  </g>
 </g>
 <defs>
  <clipPath id="pbd51e0e708">
   <rect x="52.160938" y="7.2" width="516.639063" height="243.221875"/>
  </clipPath>
 </defs>
</svg>
