<?xml version="1.0" encoding="utf-8" standalone="no"?>
<!DOCTYPE svg PUBLIC "-//W3C//DTD SVG 1.1//EN"
  "http://www.w3.org/Graphics/SVG/1.1/DTD/svg11.dtd">
<svg xmlns:xlink="http://www.w3.org/1999/xlink" width="576pt" height="288pt" viewBox="0 0 576 288" xmlns="http://www.w3.org/2000/svg" version="1.1">
 <metadata>
  <rdf:RDF xmlns:dc="http://purl.org/dc/elements/1.1/" xmlns:cc="http://creativecommons.org/ns#" xmlns:rdf="http://www.w3.org/1999/02/22-rdf-syntax-ns#">
   <cc:Work>
    <dc:type rdf:resource="http://purl.org/dc/dcmitype/StillImage"/>
    <dc:date>2026-05-03T16:57:54.877346</dc:date>
    <dc:format>image/svg+xml</dc:format>
    <dc:creator>
     <cc:Agent>
      <dc:title>Matplotlib v3.10.9, https://matplotlib.org/</dc:title>
     </cc:Agent>
    </dc:creator>
   </cc:Work>
  </rdf:RDF>
 </metadata>
 <defs>
  <style type="text/css">*{stroke-linejoin: round; stroke-linecap: butt}</style>
 </defs>
 <g id="figure_1">
  <g id="patch_1">
   <path d="M 0 288 
L 576 288 
L 576 0 
L 0 0 
z
" style="fill: #ffffff"/>
  </g>
  <g id="axes_1">
   <g id="patch_2">
    <path d="M 52.160938 250.421875 
L 568.8 250.421875 
L 568.8 7.2 
L 52.160938 7.2 
z
" style="fill: #ffffff"/>
   </g>
   <g id="matplotlib.axis_1">
    <g id="xtick_1">
     <g id="line2d_1">
      <path d="M 75.644531 250.421875 
L 75.644531 7.2 
" clip-path="url(#p63744d413c)" style="fill: none; stroke-dasharray: 2.96,1.28; stroke-dashoffset: 0; stroke: #b0b0b0; stroke-opacity: 0.8; stroke-width: 0.8"/>
     </g>
     <g id="line2d_2">
      <defs>
       <path id="mae06810578" d="M 0 0 
L 0 3.5 
" style="stroke: #000000; stroke-width: 0.8"/>
      </defs>
      <g>
       <use xlink:href="#mae06810578" x="75.644531" y="250.421875" style="stroke: #000000; stroke-width: 0.8"/>
      </g>
     </g>
     <g id="text_1">
      <!-- 0 -->
      <g transform="translate(72.463281 265.020312) scale(0.1 -0.1)">
       <defs>
        <path id="DejaVuSans-30" d="M 2034 4250 
Q 1547 4250 1301 3770 
Q 1056 3291 1056 2328 
Q 1056 1369 1301 889 
Q 1547 409 2034 409 
Q 2525 409 2770 889 
Q 3016 1369 3016 2328 
Q 3016 3291 2770 3770 
Q 2525 4250 2034 4250 
z
M 2034 4750 
Q 2819 4750 3233 4129 
Q 3647 3509 3647 2328 
Q 3647 1150 3233 529 
Q 2819 -91 2034 -91 
Q 1250 -91 836 529 
Q 422 1150 422 2328 
Q 422 3509 836 4129 
Q 1250 4750 2034 4750 
z
" transform="scale(0.015625)"/>
       </defs>
       <use xlink:href="#DejaVuSans-30"/>
      </g>
     </g>
    </g>
    <g id="xtick_2">
     <g id="line2d_3">
      <path d="M 134.500656 250.421875 
L 134.500656 7.2 
" clip-path="url(#p63744d413c)" style="fill: none; stroke-dasharray: 2.96,1.28; stroke-dashoffset: 0; stroke: #b0b0b0; stroke-opacity: 0.8; stroke-width: 0.8"/>
     </g>
     <g id="line2d_4">
      <g>
       <use xlink:href="#mae06810578" x="134.500656" y="250.421875" style="stroke: #000000; stroke-width: 0.8"/>
      </g>
     </g>
     <g id="text_2">
      <!-- 50 -->
      <g transform="translate(128.138156 265.020312) scale(0.1 -0.1)">
       <defs>
        <path id="DejaVuSans-35" d="M 691 4666 
L 3169 4666 
L 3169 4134 
L 1269 4134 
L 1269 2991 
Q 1406 3038 1543 3061 
Q 1681 3084 1819 3084 
Q 2600 3084 3056 2656 
Q 3513 2228 3513 1497 
Q 3513 744 3044 326 
Q 2575 -91 1722 -91 
Q 1428 -91 1123 -41 
Q 819 9 494 109 
L 494 744 
Q 775 591 1075 516 
Q 1375 441 1709 441 
Q 2250 441 2565 725 
Q 2881 1009 2881 1497 
Q 2881 1984 2565 2268 
Q 2250 2553 1709 2553 
Q 1456 2553 1204 2497 
Q 953 2441 691 2322 
L 691 4666 
z
" transform="scale(0.015625)"/>
       </defs>
       <use xlink:href="#DejaVuSans-35"/>
       <use xlink:href="#DejaVuSans-30" transform="translate(63.623047 0)"/>
      </g>
     </g>
    </g>
    <g id="xtick_3">
     <g id="line2d_5">
      <path d="M 193.356781 250.421875 
L 193.356781 7.2 
" clip-path="url(#p63744d413c)" style="fill: none; stroke-dasharray: 2.96,1.28; stroke-dashoffset: 0; stroke: #b0b0b0; stroke-opacity: 0.8; stroke-width: 0.8"/>
     </g>
     <g id="line2d_6">
      <g>
       <use xlink:href="#mae06810578" x="193.356781" y="250.421875" style="stroke: #000000; stroke-width: 0.8"/>
      </g>
     </g>
     <g id="text_3">
      <!-- 100 -->
      <g transform="translate(183.813031 265.020312) scale(0.1 -0.1)">
       <defs>
        <path id="DejaVuSans-31" d="M 794 531 
L 1825 531 
L 1825 4091 
L 703 3866 
L 703 4441 
L 1819 4666 
L 2450 4666 
L 2450 531 
L 3481 531 
L 3481 0 
L 794 0 
L 794 531 
z
" transform="scale(0.015625)"/>
       </defs>
       <use xlink:href="#DejaVuSans-31"/>
       <use xlink:href="#DejaVuSans-30" transform="translate(63.623047 0)"/>
       <use xlink:href="#DejaVuSans-30" transform="translate(127.246094 0)"/>
      </g>
     </g>
    </g>
    <g id="xtick_4">
     <g id="line2d_7">
      <path d="M 252.212905 250.421875 
L 252.212905 7.2 
" clip-path="url(#p63744d413c)" style="fill: none; stroke-dasharray: 2.96,1.28; stroke-dashoffset: 0; stroke: #b0b0b0; stroke-opacity: 0.8; stroke-width: 0.8"/>
     </g>
     <g id="line2d_8">
      <g>
       <use xlink:href="#mae06810578" x="252.212905" y="250.421875" style="stroke: #000000; stroke-width: 0.8"/>
      </g>
     </g>
     <g id="text_4">
      <!-- 150 -->
      <g transform="translate(242.669155 265.020312) scale(0.1 -0.1)">
       <use xlink:href="#DejaVuSans-31"/>
       <use xlink:href="#DejaVuSans-35" transform="translate(63.623047 0)"/>
       <use xlink:href="#DejaVuSans-30" transform="translate(127.246094 0)"/>
      </g>
     </g>
    </g>
    <g id="xtick_5">
     <g id="line2d_9">
      <path d="M 311.06903 250.421875 
L 311.06903 7.2 
" clip-path="url(#p63744d413c)" style="fill: none; stroke-dasharray: 2.96,1.28; stroke-dashoffset: 0; stroke: #b0b0b0; stroke-opacity: 0.8; stroke-width: 0.8"/>
     </g>
     <g id="line2d_10">
      <g>
       <use xlink:href="#mae06810578" x="311.06903" y="250.421875" style="stroke: #000000; stroke-width: 0.8"/>
      </g>
     </g>
     <g id="text_5">
      <!-- 200 -->
      <g transform="translate(301.52528 265.020312) scale(0.1 -0.1)">
       <defs>
        <path id="DejaVuSans-32" d="M 1228 531 
L 3431 531 
L 3431 0 
L 469 0 
L 469 531 
Q 828 903 1448 1529 
Q 2069 2156 2228 2338 
Q 2531 2678 2651 2914 
Q 2772 3150 2772 3378 
Q 2772 3750 2511 3984 
Q 2250 4219 1831 4219 
Q 1534 4219 1204 4116 
Q 875 4013 500 3803 
L 500 4441 
Q 881 4594 1212 4672 
Q 1544 4750 1819 4750 
Q 2544 4750 2975 4387 
Q 3406 4025 3406 3419 
Q 3406 3131 3298 2873 
Q 3191 2616 2906 2266 
Q 2828 2175 2409 1742 
Q 1991 1309 1228 531 
z
" transform="scale(0.015625)"/>
       </defs>
       <use xlink:href="#DejaVuSans-32"/>
       <use xlink:href="#DejaVuSans-30" transform="translate(63.623047 0)"/>
       <use xlink:href="#DejaVuSans-30" transform="translate(127.246094 0)"/>
      </g>
     </g>
    </g>
    <g id="xtick_6">
     <g id="line2d_11">
      <path d="M 369.925155 250.421875 
L 369.925155 7.2 
" clip-path="url(#p63744d413c)" style="fill: none; stroke-dasharray: 2.96,1.28; stroke-dashoffset: 0; stroke: #b0b0b0; stroke-opacity: 0.8; stroke-width: 0.8"/>
     </g>
     <g id="line2d_12">
      <g>
       <use xlink:href="#mae06810578" x="369.925155" y="250.421875" style="stroke: #000000; stroke-width: 0.8"/>
      </g>
     </g>
     <g id="text_6">
      <!-- 250 -->
      <g transform="translate(360.381405 265.020312) scale(0.1 -0.1)">
       <use xlink:href="#DejaVuSans-32"/>
       <use xlink:href="#DejaVuSans-35" transform="translate(63.623047 0)"/>
       <use xlink:href="#DejaVuSans-30" transform="translate(127.246094 0)"/>
      </g>
     </g>
    </g>
    <g id="xtick_7">
     <g id="line2d_13">
      <path d="M 428.781279 250.421875 
L 428.781279 7.2 
" clip-path="url(#p63744d413c)" style="fill: none; stroke-dasharray: 2.96,1.28; stroke-dashoffset: 0; stroke: #b0b0b0; stroke-opacity: 0.8; stroke-width: 0.8"/>
     </g>
     <g id="line2d_14">
      <g>
       <use xlink:href="#mae06810578" x="428.781279" y="250.421875" style="stroke: #000000; stroke-width: 0.8"/>
      </g>
     </g>
     <g id="text_7">
      <!-- 300 -->
      <g transform="translate(419.237529 265.020312) scale(0.1 -0.1)">
       <defs>
        <path id="DejaVuSans-33" d="M 2597 2516 
Q 3050 2419 3304 2112 
Q 3559 1806 3559 1356 
Q 3559 666 3084 287 
Q 2609 -91 1734 -91 
Q 1441 -91 1130 -33 
Q 819 25 488 141 
L 488 750 
Q 750 597 1062 519 
Q 1375 441 1716 441 
Q 2309 441 2620 675 
Q 2931 909 2931 1356 
Q 2931 1769 2642 2001 
Q 2353 2234 1838 2234 
L 1294 2234 
L 1294 2753 
L 1863 2753 
Q 2328 2753 2575 2939 
Q 2822 3125 2822 3475 
Q 2822 3834 2567 4026 
Q 2313 4219 1838 4219 
Q 1578 4219 1281 4162 
Q 984 4106 628 3988 
L 628 4550 
Q 988 4650 1302 4700 
Q 1616 4750 1894 4750 
Q 2613 4750 3031 4423 
Q 3450 4097 3450 3541 
Q 3450 3153 3228 2886 
Q 3006 2619 2597 2516 
z
" transform="scale(0.015625)"/>
       </defs>
       <use xlink:href="#DejaVuSans-33"/>
       <use xlink:href="#DejaVuSans-30" transform="translate(63.623047 0)"/>
       <use xlink:href="#DejaVuSans-30" transform="translate(127.246094 0)"/>
      </g>
     </g>
    </g>
    <g id="xtick_8">
     <g id="line2d_15">
      <path d="M 487.637404 250.421875 
L 487.637404 7.2 
" clip-path="url(#p63744d413c)" style="fill: none; stroke-dasharray: 2.96,1.28; stroke-dashoffset: 0; stroke: #b0b0b0; stroke-opacity: 0.8; stroke-width: 0.8"/>
     </g>
     <g id="line2d_16">
      <g>
       <use xlink:href="#mae06810578" x="487.637404" y="250.421875" style="stroke: #000000; stroke-width: 0.8"/>
      </g>
     </g>
     <g id="text_8">
      <!-- 350 -->
      <g transform="translate(478.093654 265.020312) scale(0.1 -0.1)">
       <use xlink:href="#DejaVuSans-33"/>
       <use xlink:href="#DejaVuSans-35" transform="translate(63.623047 0)"/>
       <use xlink:href="#DejaVuSans-30" transform="translate(127.246094 0)"/>
      </g>
     </g>
    </g>
    <g id="xtick_9">
     <g id="line2d_17">
      <path d="M 546.493529 250.421875 
L 546.493529 7.2 
" clip-path="url(#p63744d413c)" style="fill: none; stroke-dasharray: 2.96,1.28; stroke-dashoffset: 0; stroke: #b0b0b0; stroke-opacity: 0.8; stroke-width: 0.8"/>
     </g>
     <g id="line2d_18">
      <g>
       <use xlink:href="#mae06810578" x="546.493529" y="250.421875" style="stroke: #000000; stroke-width: 0.8"/>
      </g>
     </g>
     <g id="text_9">
      <!-- 400 -->
      <g transform="translate(536.949779 265.020312) scale(0.1 -0.1)">
       <defs>
        <path id="DejaVuSans-34" d="M 2419 4116 
L 825 1625 
L 2419 1625 
L 2419 4116 
z
M 2253 4666 
L 3047 4666 
L 3047 1625 
L 3713 1625 
L 3713 1100 
L 3047 1100 
L 3047 0 
L 2419 0 
L 2419 1100 
L 313 1100 
L 313 1709 
L 2253 4666 
z
" transform="scale(0.015625)"/>
       </defs>
       <use xlink:href="#DejaVuSans-34"/>
       <use xlink:href="#DejaVuSans-30" transform="translate(63.623047 0)"/>
       <use xlink:href="#DejaVuSans-30" transform="translate(127.246094 0)"/>
      </g>
     </g>
    </g>
    <g id="text_10">
     <!-- Sample, $n$ -->
     <g transform="translate(285.380469 278.7) scale(0.1 -0.1)">
      <defs>
       <path id="DejaVuSans-53" d="M 3425 4513 
L 3425 3897 
Q 3066 4069 2747 4153 
Q 2428 4238 2131 4238 
Q 1616 4238 1336 4038 
Q 1056 3838 1056 3469 
Q 1056 3159 1242 3001 
Q 1428 2844 1947 2747 
L 2328 2669 
Q 3034 2534 3370 2195 
Q 3706 1856 3706 1288 
Q 3706 609 3251 259 
Q 2797 -91 1919 -91 
Q 1588 -91 1214 -16 
Q 841 59 441 206 
L 441 856 
Q 825 641 1194 531 
Q 1563 422 1919 422 
Q 2459 422 2753 634 
Q 3047 847 3047 1241 
Q 3047 1584 2836 1778 
Q 2625 1972 2144 2069 
L 1759 2144 
Q 1053 2284 737 2584 
Q 422 2884 422 3419 
Q 422 4038 858 4394 
Q 1294 4750 2059 4750 
Q 2388 4750 2728 4690 
Q 3069 4631 3425 4513 
z
" transform="scale(0.015625)"/>
       <path id="DejaVuSans-61" d="M 2194 1759 
Q 1497 1759 1228 1600 
Q 959 1441 959 1056 
Q 959 750 1161 570 
Q 1363 391 1709 391 
Q 2188 391 2477 730 
Q 2766 1069 2766 1631 
L 2766 1759 
L 2194 1759 
z
M 3341 1997 
L 3341 0 
L 2766 0 
L 2766 531 
Q 2569 213 2275 61 
Q 1981 -91 1556 -91 
Q 1019 -91 701 211 
Q 384 513 384 1019 
Q 384 1609 779 1909 
Q 1175 2209 1959 2209 
L 2766 2209 
L 2766 2266 
Q 2766 2663 2505 2880 
Q 2244 3097 1772 3097 
Q 1472 3097 1187 3025 
Q 903 2953 641 2809 
L 641 3341 
Q 956 3463 1253 3523 
Q 1550 3584 1831 3584 
Q 2591 3584 2966 3190 
Q 3341 2797 3341 1997 
z
" transform="scale(0.015625)"/>
       <path id="DejaVuSans-6d" d="M 3328 2828 
Q 3544 3216 3844 3400 
Q 4144 3584 4550 3584 
Q 5097 3584 5394 3201 
Q 5691 2819 5691 2113 
L 5691 0 
L 5113 0 
L 5113 2094 
Q 5113 2597 4934 2840 
Q 4756 3084 4391 3084 
Q 3944 3084 3684 2787 
Q 3425 2491 3425 1978 
L 3425 0 
L 2847 0 
L 2847 2094 
Q 2847 2600 2669 2842 
Q 2491 3084 2119 3084 
Q 1678 3084 1418 2786 
Q 1159 2488 1159 1978 
L 1159 0 
L 581 0 
L 581 3500 
L 1159 3500 
L 1159 2956 
Q 1356 3278 1631 3431 
Q 1906 3584 2284 3584 
Q 2666 3584 2933 3390 
Q 3200 3197 3328 2828 
z
" transform="scale(0.015625)"/>
       <path id="DejaVuSans-70" d="M 1159 525 
L 1159 -1331 
L 581 -1331 
L 581 3500 
L 1159 3500 
L 1159 2969 
Q 1341 3281 1617 3432 
Q 1894 3584 2278 3584 
Q 2916 3584 3314 3078 
Q 3713 2572 3713 1747 
Q 3713 922 3314 415 
Q 2916 -91 2278 -91 
Q 1894 -91 1617 61 
Q 1341 213 1159 525 
z
M 3116 1747 
Q 3116 2381 2855 2742 
Q 2594 3103 2138 3103 
Q 1681 3103 1420 2742 
Q 1159 2381 1159 1747 
Q 1159 1113 1420 752 
Q 1681 391 2138 391 
Q 2594 391 2855 752 
Q 3116 1113 3116 1747 
z
" transform="scale(0.015625)"/>
       <path id="DejaVuSans-6c" d="M 603 4863 
L 1178 4863 
L 1178 0 
L 603 0 
L 603 4863 
z
" transform="scale(0.015625)"/>
       <path id="DejaVuSans-65" d="M 3597 1894 
L 3597 1613 
L 953 1613 
Q 991 1019 1311 708 
Q 1631 397 2203 397 
Q 2534 397 2845 478 
Q 3156 559 3463 722 
L 3463 178 
Q 3153 47 2828 -22 
Q 2503 -91 2169 -91 
Q 1331 -91 842 396 
Q 353 884 353 1716 
Q 353 2575 817 3079 
Q 1281 3584 2069 3584 
Q 2775 3584 3186 3129 
Q 3597 2675 3597 1894 
z
M 3022 2063 
Q 3016 2534 2758 2815 
Q 2500 3097 2075 3097 
Q 1594 3097 1305 2825 
Q 1016 2553 972 2059 
L 3022 2063 
z
" transform="scale(0.015625)"/>
       <path id="DejaVuSans-2c" d="M 750 794 
L 1409 794 
L 1409 256 
L 897 -744 
L 494 -744 
L 750 256 
L 750 794 
z
" transform="scale(0.015625)"/>
       <path id="DejaVuSans-20" transform="scale(0.015625)"/>
       <path id="DejaVuSans-Oblique-6e" d="M 3566 2113 
L 3156 0 
L 2578 0 
L 2988 2091 
Q 3016 2238 3031 2350 
Q 3047 2463 3047 2528 
Q 3047 2791 2881 2937 
Q 2716 3084 2419 3084 
Q 1956 3084 1622 2776 
Q 1288 2469 1184 1941 
L 800 0 
L 225 0 
L 903 3500 
L 1478 3500 
L 1363 2950 
Q 1603 3253 1940 3418 
Q 2278 3584 2650 3584 
Q 3113 3584 3367 3334 
Q 3622 3084 3622 2631 
Q 3622 2519 3608 2391 
Q 3594 2263 3566 2113 
z
" transform="scale(0.015625)"/>
      </defs>
      <use xlink:href="#DejaVuSans-53" transform="translate(0 0.015625)"/>
      <use xlink:href="#DejaVuSans-61" transform="translate(63.476562 0.015625)"/>
      <use xlink:href="#DejaVuSans-6d" transform="translate(124.755859 0.015625)"/>
      <use xlink:href="#DejaVuSans-70" transform="translate(222.167969 0.015625)"/>
      <use xlink:href="#DejaVuSans-6c" transform="translate(285.644531 0.015625)"/>
      <use xlink:href="#DejaVuSans-65" transform="translate(313.427734 0.015625)"/>
      <use xlink:href="#DejaVuSans-2c" transform="translate(374.951172 0.015625)"/>
      <use xlink:href="#DejaVuSans-20" transform="translate(406.738281 0.015625)"/>
      <use xlink:href="#DejaVuSans-Oblique-6e" transform="translate(438.525391 0.015625)"/>
     </g>
    </g>
   </g>
   <g id="matplotlib.axis_2">
    <g id="ytick_1">
     <g id="line2d_19">
      <path d="M 52.160938 232.927785 
L 568.8 232.927785 
" clip-path="url(#p63744d413c)" style="fill: none; stroke-dasharray: 2.96,1.28; stroke-dashoffset: 0; stroke: #b0b0b0; stroke-opacity: 0.8; stroke-width: 0.8"/>
     </g>
     <g id="line2d_20">
      <defs>
       <path id="m325fad5348" d="M 0 0 
L -3.5 0 
" style="stroke: #000000; stroke-width: 0.8"/>
      </defs>
      <g>
       <use xlink:href="#m325fad5348" x="52.160938" y="232.927785" style="stroke: #000000; stroke-width: 0.8"/>
      </g>
     </g>
     <g id="text_11">
      <!-- −0.4 -->
      <g transform="translate(20.878125 236.727004) scale(0.1 -0.1)">
       <defs>
        <path id="DejaVuSans-2212" d="M 678 2272 
L 4684 2272 
L 4684 1741 
L 678 1741 
L 678 2272 
z
" transform="scale(0.015625)"/>
        <path id="DejaVuSans-2e" d="M 684 794 
L 1344 794 
L 1344 0 
L 684 0 
L 684 794 
z
" transform="scale(0.015625)"/>
       </defs>
       <use xlink:href="#DejaVuSans-2212"/>
       <use xlink:href="#DejaVuSans-30" transform="translate(83.789062 0)"/>
       <use xlink:href="#DejaVuSans-2e" transform="translate(147.412109 0)"/>
       <use xlink:href="#DejaVuSans-34" transform="translate(179.199219 0)"/>
      </g>
     </g>
    </g>
    <g id="ytick_2">
     <g id="line2d_21">
      <path d="M 52.160938 181.215597 
L 568.8 181.215597 
" clip-path="url(#p63744d413c)" style="fill: none; stroke-dasharray: 2.96,1.28; stroke-dashoffset: 0; stroke: #b0b0b0; stroke-opacity: 0.8; stroke-width: 0.8"/>
     </g>
     <g id="line2d_22">
      <g>
       <use xlink:href="#m325fad5348" x="52.160938" y="181.215597" style="stroke: #000000; stroke-width: 0.8"/>
      </g>
     </g>
     <g id="text_12">
      <!-- −0.2 -->
      <g transform="translate(20.878125 185.014815) scale(0.1 -0.1)">
       <use xlink:href="#DejaVuSans-2212"/>
       <use xlink:href="#DejaVuSans-30" transform="translate(83.789062 0)"/>
       <use xlink:href="#DejaVuSans-2e" transform="translate(147.412109 0)"/>
       <use xlink:href="#DejaVuSans-32" transform="translate(179.199219 0)"/>
      </g>
     </g>
    </g>
    <g id="ytick_3">
     <g id="line2d_23">
      <path d="M 52.160938 129.503408 
L 568.8 129.503408 
" clip-path="url(#p63744d413c)" style="fill: none; stroke-dasharray: 2.96,1.28; stroke-dashoffset: 0; stroke: #b0b0b0; stroke-opacity: 0.8; stroke-width: 0.8"/>
     </g>
     <g id="line2d_24">
      <g>
       <use xlink:href="#m325fad5348" x="52.160938" y="129.503408" style="stroke: #000000; stroke-width: 0.8"/>
      </g>
     </g>
     <g id="text_13">
      <!-- 0.0 -->
      <g transform="translate(29.257812 133.302626) scale(0.1 -0.1)">
       <use xlink:href="#DejaVuSans-30"/>
       <use xlink:href="#DejaVuSans-2e" transform="translate(63.623047 0)"/>
       <use xlink:href="#DejaVuSans-30" transform="translate(95.410156 0)"/>
      </g>
     </g>
    </g>
    <g id="ytick_4">
     <g id="line2d_25">
      <path d="M 52.160938 77.791219 
L 568.8 77.791219 
" clip-path="url(#p63744d413c)" style="fill: none; stroke-dasharray: 2.96,1.28; stroke-dashoffset: 0; stroke: #b0b0b0; stroke-opacity: 0.8; stroke-width: 0.8"/>
     </g>
     <g id="line2d_26">
      <g>
       <use xlink:href="#m325fad5348" x="52.160938" y="77.791219" style="stroke: #000000; stroke-width: 0.8"/>
      </g>
     </g>
     <g id="text_14">
      <!-- 0.2 -->
      <g transform="translate(29.257812 81.590438) scale(0.1 -0.1)">
       <use xlink:href="#DejaVuSans-30"/>
       <use xlink:href="#DejaVuSans-2e" transform="translate(63.623047 0)"/>
       <use xlink:href="#DejaVuSans-32" transform="translate(95.410156 0)"/>
      </g>
     </g>
    </g>
    <g id="ytick_5">
     <g id="line2d_27">
      <path d="M 52.160938 26.07903 
L 568.8 26.07903 
" clip-path="url(#p63744d413c)" style="fill: none; stroke-dasharray: 2.96,1.28; stroke-dashoffset: 0; stroke: #b0b0b0; stroke-opacity: 0.8; stroke-width: 0.8"/>
     </g>
     <g id="line2d_28">
      <g>
       <use xlink:href="#m325fad5348" x="52.160938" y="26.07903" style="stroke: #000000; stroke-width: 0.8"/>
      </g>
     </g>
     <g id="text_15">
      <!-- 0.4 -->
      <g transform="translate(29.257812 29.878249) scale(0.1 -0.1)">
       <use xlink:href="#DejaVuSans-30"/>
       <use xlink:href="#DejaVuSans-2e" transform="translate(63.623047 0)"/>
       <use xlink:href="#DejaVuSans-34" transform="translate(95.410156 0)"/>
      </g>
     </g>
    </g>
    <g id="text_16">
     <!-- Amplitude -->
     <g transform="translate(14.798437 154.433594) rotate(-90) scale(0.1 -0.1)">
      <defs>
       <path id="DejaVuSans-41" d="M 2188 4044 
L 1331 1722 
L 3047 1722 
L 2188 4044 
z
M 1831 4666 
L 2547 4666 
L 4325 0 
L 3669 0 
L 3244 1197 
L 1141 1197 
L 716 0 
L 50 0 
L 1831 4666 
z
" transform="scale(0.015625)"/>
       <path id="DejaVuSans-69" d="M 603 3500 
L 1178 3500 
L 1178 0 
L 603 0 
L 603 3500 
z
M 603 4863 
L 1178 4863 
L 1178 4134 
L 603 4134 
L 603 4863 
z
" transform="scale(0.015625)"/>
       <path id="DejaVuSans-74" d="M 1172 4494 
L 1172 3500 
L 2356 3500 
L 2356 3053 
L 1172 3053 
L 1172 1153 
Q 1172 725 1289 603 
Q 1406 481 1766 481 
L 2356 481 
L 2356 0 
L 1766 0 
Q 1100 0 847 248 
Q 594 497 594 1153 
L 594 3053 
L 172 3053 
L 172 3500 
L 594 3500 
L 594 4494 
L 1172 4494 
z
" transform="scale(0.015625)"/>
       <path id="DejaVuSans-75" d="M 544 1381 
L 544 3500 
L 1119 3500 
L 1119 1403 
Q 1119 906 1312 657 
Q 1506 409 1894 409 
Q 2359 409 2629 706 
Q 2900 1003 2900 1516 
L 2900 3500 
L 3475 3500 
L 3475 0 
L 2900 0 
L 2900 538 
Q 2691 219 2414 64 
Q 2138 -91 1772 -91 
Q 1169 -91 856 284 
Q 544 659 544 1381 
z
M 1991 3584 
L 1991 3584 
z
" transform="scale(0.015625)"/>
       <path id="DejaVuSans-64" d="M 2906 2969 
L 2906 4863 
L 3481 4863 
L 3481 0 
L 2906 0 
L 2906 525 
Q 2725 213 2448 61 
Q 2172 -91 1784 -91 
Q 1150 -91 751 415 
Q 353 922 353 1747 
Q 353 2572 751 3078 
Q 1150 3584 1784 3584 
Q 2172 3584 2448 3432 
Q 2725 3281 2906 2969 
z
M 947 1747 
Q 947 1113 1208 752 
Q 1469 391 1925 391 
Q 2381 391 2643 752 
Q 2906 1113 2906 1747 
Q 2906 2381 2643 2742 
Q 2381 3103 1925 3103 
Q 1469 3103 1208 2742 
Q 947 2381 947 1747 
z
" transform="scale(0.015625)"/>
      </defs>
      <use xlink:href="#DejaVuSans-41"/>
      <use xlink:href="#DejaVuSans-6d" transform="translate(68.408203 0)"/>
      <use xlink:href="#DejaVuSans-70" transform="translate(165.820312 0)"/>
      <use xlink:href="#DejaVuSans-6c" transform="translate(229.296875 0)"/>
      <use xlink:href="#DejaVuSans-69" transform="translate(257.080078 0)"/>
      <use xlink:href="#DejaVuSans-74" transform="translate(284.863281 0)"/>
      <use xlink:href="#DejaVuSans-75" transform="translate(324.072266 0)"/>
      <use xlink:href="#DejaVuSans-64" transform="translate(387.451172 0)"/>
      <use xlink:href="#DejaVuSans-65" transform="translate(450.927734 0)"/>
     </g>
    </g>
   </g>
   <g id="line2d_29">
    <path d="M 75.644531 133.450549 
L 76.821654 126.454032 
L 77.998776 132.444565 
L 79.175899 130.896912 
L 80.353021 126.908707 
L 81.530144 127.715598 
L 82.707266 133.127202 
L 83.884389 132.524537 
L 85.061511 127.369784 
L 86.238634 130.313722 
L 87.415756 130.477868 
L 88.592879 124.090362 
L 89.770001 131.725795 
L 90.947124 127.824185 
L 92.124246 119.925053 
L 93.301369 130.053868 
L 94.478491 121.377663 
L 95.655614 122.871605 
L 96.832736 133.606685 
L 98.009859 135.191088 
L 99.186981 144.964478 
L 100.364104 142.786706 
L 101.541226 145.355325 
L 102.718349 141.385904 
L 103.895471 134.688084 
L 105.072594 126.116529 
L 106.249716 127.323627 
L 107.426839 117.675042 
L 108.603961 110.945735 
L 109.781084 111.209963 
L 110.958206 105.688797 
L 112.135329 111.265883 
L 113.312451 115.396705 
L 114.489574 140.083888 
L 115.666696 154.332573 
L 116.843819 170.062931 
L 118.020941 195.879509 
L 119.198064 203.872761 
L 120.375186 214.761269 
L 121.552309 206.315445 
L 122.729431 200.82315 
L 123.906553 189.508678 
L 125.083676 173.3454 
L 126.260798 144.049922 
L 129.792166 69.935631 
L 130.969288 59.78416 
L 132.146411 51.178427 
L 133.323533 57.629733 
L 134.500656 68.714474 
L 135.677778 83.142324 
L 138.032023 144.819989 
L 139.209146 155.822059 
L 140.386268 197.515769 
L 141.563391 211.333821 
L 142.740513 221.890419 
L 143.917636 217.976847 
L 145.094758 207.899272 
L 146.271881 209.766392 
L 147.449003 200.007285 
L 148.626126 183.835771 
L 149.803248 176.959114 
L 150.980371 172.750378 
L 152.157493 185.336915 
L 153.334616 186.621836 
L 154.511738 201.583795 
L 155.688861 206.2344 
L 156.865983 215.432643 
L 158.043106 223.413641 
L 159.220228 219.731339 
L 160.397351 208.811709 
L 161.574473 193.055732 
L 163.928718 138.956647 
L 166.282963 85.751732 
L 167.460086 66.584838 
L 168.637208 54.606154 
L 169.814331 51.384994 
L 170.991453 60.517224 
L 172.168576 74.669803 
L 173.345698 92.123665 
L 174.522821 126.599824 
L 175.699943 154.389067 
L 176.877066 173.511447 
L 178.054188 190.543202 
L 179.231311 198.813357 
L 180.408433 205.443889 
L 181.585556 198.954074 
L 182.762678 184.883846 
L 183.939801 159.570726 
L 185.116923 128.009425 
L 187.471168 76.232608 
L 188.648291 56.107043 
L 189.825413 40.848343 
L 192.179658 18.25554 
L 193.356781 24.739071 
L 194.533903 25.233907 
L 195.711026 41.674362 
L 196.888148 56.461537 
L 198.065271 78.985831 
L 199.242393 94.0467 
L 200.419516 101.764769 
L 201.596638 118.08756 
L 203.950883 141.72886 
L 205.128006 161.023068 
L 206.305128 164.503571 
L 208.659373 199.85852 
L 209.836496 213.030607 
L 211.013618 232.18081 
L 213.367863 230.848472 
L 214.544986 229.466393 
L 216.89923 203.810824 
L 218.076353 182.959345 
L 219.253475 147.793424 
L 220.430598 134.954826 
L 221.60772 103.513833 
L 222.784843 96.082057 
L 223.961965 74.929764 
L 226.31621 60.024359 
L 227.493333 74.457057 
L 228.670455 78.596158 
L 229.847578 92.431809 
L 231.0247 104.237864 
L 233.378945 153.98554 
L 234.556068 171.07932 
L 235.73319 191.511945 
L 236.910313 206.575293 
L 238.087435 225.460328 
L 239.264558 233.599654 
L 240.44168 239.366335 
L 241.618803 226.076004 
L 242.795925 229.188331 
L 243.973048 216.894372 
L 245.15017 197.3745 
L 246.327293 169.284619 
L 247.504415 156.036827 
L 248.681538 131.317736 
L 251.035783 95.065424 
L 253.390028 68.689215 
L 254.56715 67.900366 
L 255.744273 58.966422 
L 256.921395 64.32524 
L 258.098518 54.642614 
L 259.27564 54.136398 
L 260.452763 57.75358 
L 261.629885 60.905174 
L 262.807008 63.652968 
L 263.98413 62.908547 
L 265.161253 69.478733 
L 266.338375 66.073755 
L 267.515498 58.909868 
L 268.69262 60.929197 
L 269.869743 57.470428 
L 271.046865 54.925391 
L 272.223988 62.028631 
L 273.40111 59.54862 
L 274.578233 61.356808 
L 275.755355 85.169869 
L 276.932478 97.127535 
L 278.1096 114.53084 
L 279.286723 140.124903 
L 280.463845 153.502261 
L 281.640968 173.62734 
L 282.81809 196.54338 
L 283.995213 206.51805 
L 285.172335 220.496025 
L 286.349458 224.905676 
L 287.52658 237.388397 
L 288.703703 235.101179 
L 289.880825 227.042639 
L 291.057948 207.650423 
L 293.412193 180.162393 
L 294.589315 148.939487 
L 295.766438 124.730934 
L 298.120683 90.638762 
L 299.297805 67.493996 
L 300.474928 71.118654 
L 301.65205 64.162568 
L 302.829173 67.960988 
L 304.006295 80.862131 
L 305.183418 95.469067 
L 306.36054 113.239008 
L 307.537663 135.654109 
L 308.714785 163.718033 
L 309.891908 184.461145 
L 312.246152 209.240221 
L 313.423275 214.807099 
L 314.600397 214.58613 
L 315.77752 212.529509 
L 316.954642 213.076643 
L 318.131765 205.169001 
L 319.308887 199.480169 
L 320.48601 183.957518 
L 321.663132 182.522867 
L 322.840255 179.952226 
L 324.017377 172.980926 
L 325.1945 187.152889 
L 326.371622 189.863901 
L 327.548745 190.78488 
L 328.725867 184.98831 
L 329.90299 200.983185 
L 331.080112 200.262815 
L 332.257235 205.728908 
L 333.434357 202.167893 
L 334.61148 202.318819 
L 335.788602 197.02504 
L 336.965725 194.452119 
L 338.142847 190.096171 
L 339.31997 186.728248 
L 340.497092 191.668618 
L 341.674215 189.709638 
L 342.851337 194.020207 
L 344.02846 194.680046 
L 345.205582 193.029981 
L 346.382705 192.173404 
L 347.559827 194.425044 
L 348.73695 194.952091 
L 349.914072 195.733753 
L 351.091195 191.880139 
L 352.268317 191.605908 
L 353.44544 187.903329 
L 354.622562 186.953508 
L 355.799685 190.6549 
L 356.976807 193.57538 
L 358.15393 207.265904 
L 359.331052 202.088101 
L 360.508175 210.031727 
L 361.685297 208.162563 
L 362.86242 208.42175 
L 364.039542 202.591987 
L 365.216665 205.153408 
L 366.393787 200.099029 
L 367.57091 188.529785 
L 369.925155 172.025479 
L 371.102277 157.15938 
L 372.2794 140.068339 
L 373.456522 126.552809 
L 374.633645 106.414796 
L 375.810767 91.90243 
L 376.98789 63.746875 
L 378.165012 58.909448 
L 379.342135 38.174112 
L 381.69638 24.91626 
L 382.873502 25.88843 
L 384.050625 29.524634 
L 385.227747 41.473076 
L 387.581992 81.506257 
L 388.759115 98.643634 
L 389.936237 132.819061 
L 391.11336 157.713098 
L 392.290482 169.748847 
L 393.467605 184.465647 
L 394.644727 197.541157 
L 395.82185 197.978039 
L 396.998972 193.545351 
L 399.353217 162.505966 
L 400.53034 144.552906 
L 401.707462 116.955336 
L 402.884585 99.590505 
L 404.061707 75.914227 
L 405.238829 67.170819 
L 406.415952 44.700281 
L 407.593074 44.915173 
L 408.770197 40.691413 
L 409.947319 42.437031 
L 411.124442 54.69719 
L 412.301564 59.700827 
L 413.478687 74.952575 
L 414.655809 71.611921 
L 415.832932 77.73952 
L 417.010054 76.140796 
L 418.187177 73.937811 
L 419.364299 77.540253 
L 420.541422 59.314196 
L 421.718544 61.151473 
L 422.895667 49.112362 
L 424.072789 61.563726 
L 425.249912 45.448836 
L 426.427034 53.634469 
L 427.604157 65.068399 
L 429.958402 75.065485 
L 431.135524 81.181354 
L 432.312647 82.864491 
L 433.489769 75.511009 
L 434.666892 61.888123 
L 435.844014 58.999631 
L 437.021137 47.370197 
L 438.198259 41.645797 
L 439.375382 30.450151 
L 440.552504 33.591412 
L 441.729627 35.516091 
L 444.083872 76.260215 
L 445.260994 104.321038 
L 446.438117 124.602356 
L 447.615239 156.978953 
L 448.792362 185.967055 
L 449.969484 204.870025 
L 451.146607 208.931024 
L 452.323729 200.10264 
L 453.500852 192.649643 
L 455.855097 149.501506 
L 457.032219 116.316275 
L 458.209342 96.375714 
L 459.386464 72.659789 
L 460.563587 62.127537 
L 461.740709 57.251473 
L 462.917832 54.571801 
L 465.272077 94.0977 
L 466.449199 118.195896 
L 467.626322 147.109651 
L 468.803444 172.391621 
L 469.980567 191.806982 
L 471.157689 207.030156 
L 472.334812 197.016518 
L 473.511934 199.497377 
L 474.689057 186.923861 
L 475.866179 163.460744 
L 478.220424 111.413317 
L 479.397547 74.924063 
L 480.574669 46.78978 
L 481.751792 42.375031 
L 482.928914 21.319302 
L 484.106037 21.325451 
L 485.283159 19.457024 
L 486.460282 37.968429 
L 487.637404 45.934659 
L 488.814527 55.392304 
L 489.991649 68.976686 
L 491.168772 92.605355 
L 492.345894 108.997392 
L 493.523017 119.826601 
L 494.700139 133.373922 
L 497.054384 170.149224 
L 498.231507 176.579952 
L 499.408629 181.59 
L 500.585751 198.249347 
L 501.762874 201.305312 
L 502.939996 209.067396 
L 504.117119 209.551328 
L 505.294241 210.748137 
L 506.471364 207.66919 
L 507.648486 211.355333 
L 508.825609 202.039756 
L 510.002731 194.003229 
L 511.179854 180.990984 
L 512.356976 175.35098 
L 513.534099 176.88345 
L 514.711221 174.606399 
L 515.888344 170.2549 
L 517.065466 175.634873 
L 518.242589 189.733047 
L 519.419711 196.32293 
L 520.596834 206.115888 
L 521.773956 222.923239 
L 522.951079 226.094903 
L 524.128201 236.669172 
L 525.305324 228.030017 
L 526.482446 209.523844 
L 527.659569 197.192696 
L 528.836691 179.827147 
L 530.013814 150.54292 
L 531.190936 133.742489 
L 532.368059 106.261844 
L 533.545181 81.521917 
L 534.722304 67.13904 
L 535.899426 68.918705 
L 537.076549 56.337573 
L 538.253671 66.607746 
L 539.430794 79.049636 
L 540.607916 95.33601 
L 541.785039 128.610085 
L 542.962161 153.907012 
L 544.139284 169.182567 
L 545.316406 176.29879 
L 545.316406 176.29879 
" clip-path="url(#p63744d413c)" style="fill: none; stroke: #1f77b4; stroke-linecap: square"/>
   </g>
   <g id="line2d_30">
    <path d="M 75.644531 130.653722 
L 76.821654 123.956381 
L 77.998776 134.592834 
L 79.175899 132.285676 
L 80.353021 131.422013 
L 81.530144 126.929147 
L 82.707266 129.732271 
L 83.884389 121.646025 
L 85.061511 132.565429 
L 86.238634 132.223221 
L 87.415756 131.117012 
L 88.592879 125.478032 
L 89.770001 122.4993 
L 90.947124 130.105729 
L 92.124246 124.921302 
L 93.301369 133.732631 
L 94.478491 134.136835 
L 95.655614 135.388176 
L 96.832736 144.653915 
L 98.009859 141.601677 
L 99.186981 136.065594 
L 100.364104 127.649741 
L 101.541226 131.01225 
L 102.718349 124.869652 
L 103.895471 125.537789 
L 105.072594 126.972253 
L 106.249716 116.004065 
L 107.426839 121.055097 
L 108.603961 122.657688 
L 109.781084 125.236416 
L 110.958206 136.485034 
L 112.135329 139.84792 
L 113.312451 141.508695 
L 114.489574 147.921523 
L 115.666696 151.077074 
L 116.843819 149.99892 
L 118.020941 138.598936 
L 119.198064 120.159692 
L 120.375186 113.344076 
L 121.552309 100.250984 
L 122.729431 76.332751 
L 123.906553 67.053045 
L 125.083676 58.830604 
L 126.260798 58.721538 
L 127.437921 53.368044 
L 128.615043 69.702401 
L 129.792166 79.277821 
L 130.969288 107.753666 
L 134.500656 164.9144 
L 135.677778 179.883504 
L 136.854901 200.130984 
L 138.032023 211.511493 
L 139.209146 221.312579 
L 140.386268 214.43693 
L 141.563391 209.402048 
L 142.740513 205.370846 
L 143.917636 194.56204 
L 145.094758 186.783815 
L 146.271881 183.55743 
L 147.449003 186.24552 
L 148.626126 181.473341 
L 149.803248 188.646088 
L 150.980371 189.228257 
L 152.157493 194.859447 
L 153.334616 196.579872 
L 154.511738 202.042141 
L 155.688861 201.198437 
L 156.865983 203.207789 
L 158.043106 204.154665 
L 159.220228 194.576156 
L 160.397351 193.121718 
L 161.574473 187.515319 
L 162.751596 190.730164 
L 163.928718 184.078512 
L 165.105841 191.498122 
L 166.282963 190.864918 
L 167.460086 192.22154 
L 168.637208 199.708999 
L 169.814331 213.645931 
L 170.991453 205.360081 
L 172.168576 221.574523 
L 173.345698 207.427458 
L 174.522821 197.605559 
L 175.699943 190.787462 
L 176.877066 170.000057 
L 178.054188 151.918242 
L 179.231311 127.206035 
L 180.408433 107.775293 
L 181.585556 92.014953 
L 182.762678 72.872002 
L 183.939801 56.332434 
L 185.116923 50.645351 
L 186.294046 47.743047 
L 187.471168 46.16971 
L 188.648291 47.022802 
L 189.825413 61.094875 
L 191.002536 59.310012 
L 192.179658 65.889391 
L 193.356781 77.614711 
L 194.533903 74.777708 
L 195.711026 75.72095 
L 196.888148 73.148223 
L 198.065271 65.367631 
L 199.242393 60.664416 
L 200.419516 50.258968 
L 201.596638 59.771406 
L 202.773761 52.388548 
L 203.950883 62.952572 
L 205.128006 58.089888 
L 206.305128 69.753431 
L 207.482251 77.323108 
L 208.659373 81.047145 
L 209.836496 80.25457 
L 211.013618 82.164241 
L 212.190741 78.263568 
L 213.367863 61.841811 
L 214.544986 53.878269 
L 215.722108 47.463442 
L 216.89923 35.989529 
L 218.076353 35.852844 
L 219.253475 33.99395 
L 220.430598 41.196412 
L 221.60772 49.159108 
L 222.784843 79.45233 
L 223.961965 98.703154 
L 225.139088 120.866322 
L 226.31621 153.644054 
L 227.493333 179.446152 
L 228.670455 193.9212 
L 229.847578 205.725929 
L 231.0247 201.38369 
L 232.201823 196.535686 
L 234.556068 158.496343 
L 236.910313 102.87403 
L 238.087435 79.730292 
L 239.264558 66.281278 
L 240.44168 55.518829 
L 241.618803 59.71829 
L 242.795925 60.11487 
L 243.973048 81.928817 
L 245.15017 110.746786 
L 247.504415 150.699816 
L 248.681538 185.029252 
L 249.85866 210.369749 
L 251.035783 218.001312 
L 252.212905 228.082747 
L 253.390028 237.013129 
L 254.56715 211.418738 
L 255.744273 208.350913 
L 258.098518 189.228955 
L 259.27564 179.069161 
L 260.452763 184.022733 
L 261.629885 178.521382 
L 262.807008 183.860569 
L 263.98413 180.014578 
L 265.161253 194.0115 
L 267.515498 208.253861 
L 268.69262 203.25111 
L 269.869743 199.336144 
L 271.046865 196.925288 
L 272.223988 197.096503 
L 273.40111 187.239951 
L 274.578233 182.413598 
L 275.755355 176.934111 
L 278.1096 188.234984 
L 279.286723 200.802353 
L 280.463845 202.601486 
L 281.640968 211.314553 
L 282.81809 221.894647 
L 283.995213 223.007585 
L 285.172335 230.227922 
L 286.349458 220.634221 
L 287.52658 209.644186 
L 288.703703 182.198867 
L 289.880825 163.859673 
L 291.057948 139.901073 
L 292.23507 110.82133 
L 293.412193 88.245619 
L 295.766438 53.934714 
L 296.94356 51.427766 
L 298.120683 67.586882 
L 299.297805 80.723838 
L 301.65205 127.85751 
L 302.829173 148.296761 
L 304.006295 180.413168 
L 305.183418 190.61908 
L 306.36054 207.175634 
L 307.537663 204.520063 
L 308.714785 199.779133 
L 311.06903 160.805415 
L 314.600397 74.619931 
L 315.77752 53.435305 
L 318.131765 30.769845 
L 319.308887 21.781891 
L 320.48601 24.245586 
L 321.663132 31.215384 
L 322.840255 41.47266 
L 324.017377 60.034733 
L 325.1945 75.55421 
L 326.371622 85.240435 
L 327.548745 106.54568 
L 328.725867 121.933954 
L 329.90299 132.200814 
L 332.257235 167.27819 
L 333.434357 175.934237 
L 334.61148 188.458513 
L 335.788602 192.823219 
L 336.965725 214.140409 
L 338.142847 218.083261 
L 339.31997 214.481176 
L 340.497092 222.996118 
L 341.674215 211.825465 
L 342.851337 209.99773 
L 344.02846 190.416194 
L 345.205582 181.742059 
L 346.382705 169.517781 
L 351.091195 95.739185 
L 352.268317 91.165699 
L 353.44544 69.743974 
L 354.622562 54.586392 
L 355.799685 37.051436 
L 356.976807 37.864812 
L 358.15393 46.662217 
L 359.331052 28.716381 
L 360.508175 41.06026 
L 361.685297 50.674198 
L 362.86242 56.955391 
L 364.039542 79.731731 
L 365.216665 95.374578 
L 366.393787 116.926544 
L 367.57091 144.119651 
L 368.748032 156.857656 
L 369.925155 182.47501 
L 371.102277 192.325097 
L 373.456522 206.594475 
L 374.633645 199.451807 
L 375.810767 197.225209 
L 376.98789 197.792356 
L 378.165012 187.286763 
L 379.342135 187.219912 
L 380.519257 188.096304 
L 381.69638 187.096819 
L 382.873502 190.745441 
L 384.050625 205.335647 
L 385.227747 202.926441 
L 386.40487 212.134894 
L 387.581992 212.738213 
L 388.759115 216.925563 
L 389.936237 208.228876 
L 391.11336 203.308492 
L 392.290482 191.192413 
L 393.467605 173.409405 
L 395.82185 111.720851 
L 398.176095 68.729279 
L 399.353217 58.069511 
L 400.53034 56.810835 
L 401.707462 49.222727 
L 402.884585 74.404331 
L 404.061707 93.864797 
L 405.238829 121.162667 
L 406.415952 144.015808 
L 407.593074 172.481465 
L 408.770197 190.590123 
L 409.947319 195.43055 
L 411.124442 214.869579 
L 412.301564 213.988143 
L 413.478687 217.130643 
L 414.655809 212.92938 
L 415.832932 197.3793 
L 417.010054 202.080164 
L 418.187177 192.773773 
L 419.364299 188.146951 
L 420.541422 189.079177 
L 421.718544 185.647862 
L 422.895667 191.052866 
L 424.072789 198.779607 
L 425.249912 203.79864 
L 426.427034 205.384906 
L 427.604157 209.537342 
L 428.781279 196.772921 
L 431.135524 183.916206 
L 432.312647 167.353267 
L 433.489769 144.264545 
L 434.666892 117.871674 
L 435.844014 109.272343 
L 437.021137 80.822896 
L 438.198259 68.584859 
L 439.375382 40.052429 
L 440.552504 36.683895 
L 441.729627 20.037578 
L 442.906749 30.875392 
L 444.083872 33.552545 
L 445.260994 36.863526 
L 447.615239 60.186939 
L 448.792362 85.054379 
L 449.969484 99.468845 
L 451.146607 125.500502 
L 452.323729 155.198897 
L 453.500852 164.758809 
L 454.677974 183.858806 
L 457.032219 199.982134 
L 458.209342 191.930782 
L 459.386464 180.076009 
L 460.563587 169.385315 
L 461.740709 144.95596 
L 462.917832 128.321298 
L 464.094954 101.52798 
L 465.272077 82.418805 
L 466.449199 53.269902 
L 467.626322 45.545421 
L 468.803444 31.373196 
L 469.980567 34.166939 
L 471.157689 28.748573 
L 472.334812 36.326362 
L 473.511934 41.805818 
L 474.689057 54.117904 
L 475.866179 60.707378 
L 478.220424 98.190889 
L 479.397547 122.81747 
L 480.574669 129.860649 
L 481.751792 156.085255 
L 482.928914 171.133572 
L 485.283159 191.128381 
L 486.460282 201.963489 
L 487.637404 206.950032 
L 488.814527 214.331669 
L 489.991649 217.195713 
L 491.168772 221.288255 
L 492.345894 222.037215 
L 493.523017 208.580223 
L 494.700139 192.141363 
L 495.877262 180.806649 
L 497.054384 161.063405 
L 498.231507 143.830105 
L 499.408629 135.235133 
L 500.585751 118.759826 
L 501.762874 86.508639 
L 502.939996 83.612472 
L 504.117119 68.351965 
L 505.294241 49.109069 
L 506.471364 52.107186 
L 507.648486 42.36356 
L 508.825609 37.258198 
L 510.002731 31.624301 
L 511.179854 42.433529 
L 512.356976 54.816628 
L 513.534099 62.764972 
L 515.888344 96.68115 
L 517.065466 120.386109 
L 518.242589 132.620671 
L 519.419711 152.704194 
L 521.773956 180.511595 
L 522.951079 199.209412 
L 524.128201 200.214155 
L 525.305324 201.966264 
L 526.482446 212.355538 
L 527.659569 205.826611 
L 528.836691 211.816919 
L 530.013814 209.260435 
L 531.190936 203.219604 
L 532.368059 200.688684 
L 533.545181 196.207625 
L 534.722304 187.807397 
L 535.899426 171.428108 
L 537.076549 175.834398 
L 538.253671 176.40978 
L 539.430794 177.32221 
L 540.607916 180.474974 
L 541.785039 185.642611 
L 542.962161 201.58689 
L 544.139284 209.973348 
L 545.316406 220.423625 
L 545.316406 220.423625 
" clip-path="url(#p63744d413c)" style="fill: none; stroke: #ff7f0e; stroke-linecap: square"/>
   </g>
   <g id="patch_3">
    <path d="M 52.160938 250.421875 
L 52.160938 7.2 
" style="fill: none; stroke: #000000; stroke-width: 0.8; stroke-linejoin: miter; stroke-linecap: square"/>
   </g>
   <g id="patch_4">
    <path d="M 568.8 250.421875 
L 568.8 7.2 
" style="fill: none; stroke: #000000; stroke-width: 0.8; stroke-linejoin: miter; stroke-linecap: square"/>
   </g>
   <g id="patch_5">
    <path d="M 52.160937 250.421875 
L 568.8 250.421875 
" style="fill: none; stroke: #000000; stroke-width: 0.8; stroke-linejoin: miter; stroke-linecap: square"/>
   </g>
   <g id="patch_6">
    <path d="M 52.160937 7.2 
L 568.8 7.2 
" style="fill: none; stroke: #000000; stroke-width: 0.8; stroke-linejoin: miter; stroke-linecap: square"/>
   </g>
   <g id="legend_1">
    <g id="patch_7">
     <path d="M 59.160938 44.55625 
L 116.15625 44.55625 
Q 118.15625 44.55625 118.15625 42.55625 
L 118.15625 14.2 
Q 118.15625 12.2 116.15625 12.2 
L 59.160938 12.2 
Q 57.160938 12.2 57.160938 14.2 
L 57.160938 42.55625 
Q 57.160938 44.55625 59.160938 44.55625 
z
" style="fill: #ffffff; opacity: 0.8; stroke: #cccccc; stroke-linejoin: miter"/>
    </g>
    <g id="line2d_31">
     <path d="M 61.160938 20.298437 
L 71.160938 20.298437 
L 81.160938 20.298437 
" style="fill: none; stroke: #1f77b4; stroke-linecap: square"/>
    </g>
    <g id="text_17">
     <!-- real -->
     <g transform="translate(89.160938 23.798437) scale(0.1 -0.1)">
      <defs>
       <path id="DejaVuSans-72" d="M 2631 2963 
Q 2534 3019 2420 3045 
Q 2306 3072 2169 3072 
Q 1681 3072 1420 2755 
Q 1159 2438 1159 1844 
L 1159 0 
L 581 0 
L 581 3500 
L 1159 3500 
L 1159 2956 
Q 1341 3275 1631 3429 
Q 1922 3584 2338 3584 
Q 2397 3584 2469 3576 
Q 2541 3569 2628 3553 
L 2631 2963 
z
" transform="scale(0.015625)"/>
      </defs>
      <use xlink:href="#DejaVuSans-72"/>
      <use xlink:href="#DejaVuSans-65" transform="translate(38.863281 0)"/>
      <use xlink:href="#DejaVuSans-61" transform="translate(100.386719 0)"/>
      <use xlink:href="#DejaVuSans-6c" transform="translate(161.666016 0)"/>
     </g>
    </g>
    <g id="line2d_32">
     <path d="M 61.160938 34.976562 
L 71.160938 34.976562 
L 81.160938 34.976562 
" style="fill: none; stroke: #ff7f0e; stroke-linecap: square"/>
    </g>
    <g id="text_18">
     <!-- imag -->
     <g transform="translate(89.160938 38.476562) scale(0.1 -0.1)">
      <defs>
       <path id="DejaVuSans-67" d="M 2906 1791 
Q 2906 2416 2648 2759 
Q 2391 3103 1925 3103 
Q 1463 3103 1205 2759 
Q 947 2416 947 1791 
Q 947 1169 1205 825 
Q 1463 481 1925 481 
Q 2391 481 2648 825 
Q 2906 1169 2906 1791 
z
M 3481 434 
Q 3481 -459 3084 -895 
Q 2688 -1331 1869 -1331 
Q 1566 -1331 1297 -1286 
Q 1028 -1241 775 -1147 
L 775 -588 
Q 1028 -725 1275 -790 
Q 1522 -856 1778 -856 
Q 2344 -856 2625 -561 
Q 2906 -266 2906 331 
L 2906 616 
Q 2728 306 2450 153 
Q 2172 0 1784 0 
Q 1141 0 747 490 
Q 353 981 353 1791 
Q 353 2603 747 3093 
Q 1141 3584 1784 3584 
Q 2172 3584 2450 3431 
Q 2728 3278 2906 2969 
L 2906 3500 
L 3481 3500 
L 3481 434 
z
" transform="scale(0.015625)"/>
      </defs>
      <use xlink:href="#DejaVuSans-69"/>
      <use xlink:href="#DejaVuSans-6d" transform="translate(27.783203 0)"/>
      <use xlink:href="#DejaVuSans-61" transform="translate(125.195312 0)"/>
      <use xlink:href="#DejaVuSans-67" transform="translate(186.474609 0)"/>
     </g>
    </g>
   </g>
  </g>
 </g>
 <defs>
  <clipPath id="p63744d413c">
   <rect x="52.160938" y="7.2" width="516.639063" height="243.221875"/>
  </clipPath>
 </defs>
</svg>
