<?xml version="1.0" encoding="utf-8" standalone="no"?>
<!DOCTYPE svg PUBLIC "-//W3C//DTD SVG 1.1//EN"
  "http://www.w3.org/Graphics/SVG/1.1/DTD/svg11.dtd">
<svg xmlns:xlink="http://www.w3.org/1999/xlink" width="576pt" height="288pt" viewBox="0 0 576 288" xmlns="http://www.w3.org/2000/svg" version="1.1">
 <metadata>
  <rdf:RDF xmlns:dc="http://purl.org/dc/elements/1.1/" xmlns:cc="http://creativecommons.org/ns#" xmlns:rdf="http://www.w3.org/1999/02/22-rdf-syntax-ns#">
   <cc:Work>
    <dc:type rdf:resource="http://purl.org/dc/dcmitype/StillImage"/>
    <dc:date>2025-05-10T16:34:49.640340</dc:date>
    <dc:format>image/svg+xml</dc:format>
    <dc:creator>
     <cc:Agent>
      <dc:title>Matplotlib v3.10.3, https://matplotlib.org/</dc:title>
     </cc:Agent>
    </dc:creator>
   </cc:Work>
  </rdf:RDF>
 </metadata>
 <defs>
  <style type="text/css">*{stroke-linejoin: round; stroke-linecap: butt}</style>
 </defs>
 <g id="figure_1">
  <g id="patch_1">
   <path d="M 0 288 
L 576 288 
L 576 0 
L 0 0 
z
" style="fill: #ffffff"/>
  </g>
  <g id="axes_1">
   <g id="patch_2">
    <path d="M 43.78125 250.44375 
L 568.8 250.44375 
L 568.8 22.318125 
L 43.78125 22.318125 
z
" style="fill: #ffffff"/>
   </g>
   <g id="matplotlib.axis_1">
    <g id="xtick_1">
     <g id="line2d_1">
      <path d="M 67.449883 250.44375 
L 67.449883 22.318125 
" clip-path="url(#p9bbf6a19ae)" style="fill: none; stroke-dasharray: 2.96,1.28; stroke-dashoffset: 0; stroke: #b0b0b0; stroke-opacity: 0.8; stroke-width: 0.8"/>
     </g>
     <g id="line2d_2">
      <defs>
       <path id="m98a4610043" d="M 0 0 
L 0 3.5 
" style="stroke: #000000; stroke-width: 0.8"/>
      </defs>
      <g>
       <use xlink:href="#m98a4610043" x="67.449883" y="250.44375" style="stroke: #000000; stroke-width: 0.8"/>
      </g>
     </g>
     <g id="text_1">
      <!-- −6 -->
      <g transform="translate(60.078789 265.042188) scale(0.1 -0.1)">
       <defs>
        <path id="DejaVuSans-2212" d="M 678 2272 
L 4684 2272 
L 4684 1741 
L 678 1741 
L 678 2272 
z
" transform="scale(0.015625)"/>
        <path id="DejaVuSans-36" d="M 2113 2584 
Q 1688 2584 1439 2293 
Q 1191 2003 1191 1497 
Q 1191 994 1439 701 
Q 1688 409 2113 409 
Q 2538 409 2786 701 
Q 3034 994 3034 1497 
Q 3034 2003 2786 2293 
Q 2538 2584 2113 2584 
z
M 3366 4563 
L 3366 3988 
Q 3128 4100 2886 4159 
Q 2644 4219 2406 4219 
Q 1781 4219 1451 3797 
Q 1122 3375 1075 2522 
Q 1259 2794 1537 2939 
Q 1816 3084 2150 3084 
Q 2853 3084 3261 2657 
Q 3669 2231 3669 1497 
Q 3669 778 3244 343 
Q 2819 -91 2113 -91 
Q 1303 -91 875 529 
Q 447 1150 447 2328 
Q 447 3434 972 4092 
Q 1497 4750 2381 4750 
Q 2619 4750 2861 4703 
Q 3103 4656 3366 4563 
z
" transform="scale(0.015625)"/>
       </defs>
       <use xlink:href="#DejaVuSans-2212"/>
       <use xlink:href="#DejaVuSans-36" transform="translate(83.789062 0)"/>
      </g>
     </g>
    </g>
    <g id="xtick_2">
     <g id="line2d_3">
      <path d="M 127.135586 250.44375 
L 127.135586 22.318125 
" clip-path="url(#p9bbf6a19ae)" style="fill: none; stroke-dasharray: 2.96,1.28; stroke-dashoffset: 0; stroke: #b0b0b0; stroke-opacity: 0.8; stroke-width: 0.8"/>
     </g>
     <g id="line2d_4">
      <g>
       <use xlink:href="#m98a4610043" x="127.135586" y="250.44375" style="stroke: #000000; stroke-width: 0.8"/>
      </g>
     </g>
     <g id="text_2">
      <!-- −4 -->
      <g transform="translate(119.764493 265.042188) scale(0.1 -0.1)">
       <defs>
        <path id="DejaVuSans-34" d="M 2419 4116 
L 825 1625 
L 2419 1625 
L 2419 4116 
z
M 2253 4666 
L 3047 4666 
L 3047 1625 
L 3713 1625 
L 3713 1100 
L 3047 1100 
L 3047 0 
L 2419 0 
L 2419 1100 
L 313 1100 
L 313 1709 
L 2253 4666 
z
" transform="scale(0.015625)"/>
       </defs>
       <use xlink:href="#DejaVuSans-2212"/>
       <use xlink:href="#DejaVuSans-34" transform="translate(83.789062 0)"/>
      </g>
     </g>
    </g>
    <g id="xtick_3">
     <g id="line2d_5">
      <path d="M 186.82129 250.44375 
L 186.82129 22.318125 
" clip-path="url(#p9bbf6a19ae)" style="fill: none; stroke-dasharray: 2.96,1.28; stroke-dashoffset: 0; stroke: #b0b0b0; stroke-opacity: 0.8; stroke-width: 0.8"/>
     </g>
     <g id="line2d_6">
      <g>
       <use xlink:href="#m98a4610043" x="186.82129" y="250.44375" style="stroke: #000000; stroke-width: 0.8"/>
      </g>
     </g>
     <g id="text_3">
      <!-- −2 -->
      <g transform="translate(179.450196 265.042188) scale(0.1 -0.1)">
       <defs>
        <path id="DejaVuSans-32" d="M 1228 531 
L 3431 531 
L 3431 0 
L 469 0 
L 469 531 
Q 828 903 1448 1529 
Q 2069 2156 2228 2338 
Q 2531 2678 2651 2914 
Q 2772 3150 2772 3378 
Q 2772 3750 2511 3984 
Q 2250 4219 1831 4219 
Q 1534 4219 1204 4116 
Q 875 4013 500 3803 
L 500 4441 
Q 881 4594 1212 4672 
Q 1544 4750 1819 4750 
Q 2544 4750 2975 4387 
Q 3406 4025 3406 3419 
Q 3406 3131 3298 2873 
Q 3191 2616 2906 2266 
Q 2828 2175 2409 1742 
Q 1991 1309 1228 531 
z
" transform="scale(0.015625)"/>
       </defs>
       <use xlink:href="#DejaVuSans-2212"/>
       <use xlink:href="#DejaVuSans-32" transform="translate(83.789062 0)"/>
      </g>
     </g>
    </g>
    <g id="xtick_4">
     <g id="line2d_7">
      <path d="M 246.506994 250.44375 
L 246.506994 22.318125 
" clip-path="url(#p9bbf6a19ae)" style="fill: none; stroke-dasharray: 2.96,1.28; stroke-dashoffset: 0; stroke: #b0b0b0; stroke-opacity: 0.8; stroke-width: 0.8"/>
     </g>
     <g id="line2d_8">
      <g>
       <use xlink:href="#m98a4610043" x="246.506994" y="250.44375" style="stroke: #000000; stroke-width: 0.8"/>
      </g>
     </g>
     <g id="text_4">
      <!-- 0 -->
      <g transform="translate(243.325744 265.042188) scale(0.1 -0.1)">
       <defs>
        <path id="DejaVuSans-30" d="M 2034 4250 
Q 1547 4250 1301 3770 
Q 1056 3291 1056 2328 
Q 1056 1369 1301 889 
Q 1547 409 2034 409 
Q 2525 409 2770 889 
Q 3016 1369 3016 2328 
Q 3016 3291 2770 3770 
Q 2525 4250 2034 4250 
z
M 2034 4750 
Q 2819 4750 3233 4129 
Q 3647 3509 3647 2328 
Q 3647 1150 3233 529 
Q 2819 -91 2034 -91 
Q 1250 -91 836 529 
Q 422 1150 422 2328 
Q 422 3509 836 4129 
Q 1250 4750 2034 4750 
z
" transform="scale(0.015625)"/>
       </defs>
       <use xlink:href="#DejaVuSans-30"/>
      </g>
     </g>
    </g>
    <g id="xtick_5">
     <g id="line2d_9">
      <path d="M 306.192697 250.44375 
L 306.192697 22.318125 
" clip-path="url(#p9bbf6a19ae)" style="fill: none; stroke-dasharray: 2.96,1.28; stroke-dashoffset: 0; stroke: #b0b0b0; stroke-opacity: 0.8; stroke-width: 0.8"/>
     </g>
     <g id="line2d_10">
      <g>
       <use xlink:href="#m98a4610043" x="306.192697" y="250.44375" style="stroke: #000000; stroke-width: 0.8"/>
      </g>
     </g>
     <g id="text_5">
      <!-- 2 -->
      <g transform="translate(303.011447 265.042188) scale(0.1 -0.1)">
       <use xlink:href="#DejaVuSans-32"/>
      </g>
     </g>
    </g>
    <g id="xtick_6">
     <g id="line2d_11">
      <path d="M 365.878401 250.44375 
L 365.878401 22.318125 
" clip-path="url(#p9bbf6a19ae)" style="fill: none; stroke-dasharray: 2.96,1.28; stroke-dashoffset: 0; stroke: #b0b0b0; stroke-opacity: 0.8; stroke-width: 0.8"/>
     </g>
     <g id="line2d_12">
      <g>
       <use xlink:href="#m98a4610043" x="365.878401" y="250.44375" style="stroke: #000000; stroke-width: 0.8"/>
      </g>
     </g>
     <g id="text_6">
      <!-- 4 -->
      <g transform="translate(362.697151 265.042188) scale(0.1 -0.1)">
       <use xlink:href="#DejaVuSans-34"/>
      </g>
     </g>
    </g>
    <g id="xtick_7">
     <g id="line2d_13">
      <path d="M 425.564104 250.44375 
L 425.564104 22.318125 
" clip-path="url(#p9bbf6a19ae)" style="fill: none; stroke-dasharray: 2.96,1.28; stroke-dashoffset: 0; stroke: #b0b0b0; stroke-opacity: 0.8; stroke-width: 0.8"/>
     </g>
     <g id="line2d_14">
      <g>
       <use xlink:href="#m98a4610043" x="425.564104" y="250.44375" style="stroke: #000000; stroke-width: 0.8"/>
      </g>
     </g>
     <g id="text_7">
      <!-- 6 -->
      <g transform="translate(422.382854 265.042188) scale(0.1 -0.1)">
       <use xlink:href="#DejaVuSans-36"/>
      </g>
     </g>
    </g>
    <g id="xtick_8">
     <g id="line2d_15">
      <path d="M 485.249808 250.44375 
L 485.249808 22.318125 
" clip-path="url(#p9bbf6a19ae)" style="fill: none; stroke-dasharray: 2.96,1.28; stroke-dashoffset: 0; stroke: #b0b0b0; stroke-opacity: 0.8; stroke-width: 0.8"/>
     </g>
     <g id="line2d_16">
      <g>
       <use xlink:href="#m98a4610043" x="485.249808" y="250.44375" style="stroke: #000000; stroke-width: 0.8"/>
      </g>
     </g>
     <g id="text_8">
      <!-- 8 -->
      <g transform="translate(482.068558 265.042188) scale(0.1 -0.1)">
       <defs>
        <path id="DejaVuSans-38" d="M 2034 2216 
Q 1584 2216 1326 1975 
Q 1069 1734 1069 1313 
Q 1069 891 1326 650 
Q 1584 409 2034 409 
Q 2484 409 2743 651 
Q 3003 894 3003 1313 
Q 3003 1734 2745 1975 
Q 2488 2216 2034 2216 
z
M 1403 2484 
Q 997 2584 770 2862 
Q 544 3141 544 3541 
Q 544 4100 942 4425 
Q 1341 4750 2034 4750 
Q 2731 4750 3128 4425 
Q 3525 4100 3525 3541 
Q 3525 3141 3298 2862 
Q 3072 2584 2669 2484 
Q 3125 2378 3379 2068 
Q 3634 1759 3634 1313 
Q 3634 634 3220 271 
Q 2806 -91 2034 -91 
Q 1263 -91 848 271 
Q 434 634 434 1313 
Q 434 1759 690 2068 
Q 947 2378 1403 2484 
z
M 1172 3481 
Q 1172 3119 1398 2916 
Q 1625 2713 2034 2713 
Q 2441 2713 2670 2916 
Q 2900 3119 2900 3481 
Q 2900 3844 2670 4047 
Q 2441 4250 2034 4250 
Q 1625 4250 1398 4047 
Q 1172 3844 1172 3481 
z
" transform="scale(0.015625)"/>
       </defs>
       <use xlink:href="#DejaVuSans-38"/>
      </g>
     </g>
    </g>
    <g id="xtick_9">
     <g id="line2d_17">
      <path d="M 544.935511 250.44375 
L 544.935511 22.318125 
" clip-path="url(#p9bbf6a19ae)" style="fill: none; stroke-dasharray: 2.96,1.28; stroke-dashoffset: 0; stroke: #b0b0b0; stroke-opacity: 0.8; stroke-width: 0.8"/>
     </g>
     <g id="line2d_18">
      <g>
       <use xlink:href="#m98a4610043" x="544.935511" y="250.44375" style="stroke: #000000; stroke-width: 0.8"/>
      </g>
     </g>
     <g id="text_9">
      <!-- 10 -->
      <g transform="translate(538.573011 265.042188) scale(0.1 -0.1)">
       <defs>
        <path id="DejaVuSans-31" d="M 794 531 
L 1825 531 
L 1825 4091 
L 703 3866 
L 703 4441 
L 1819 4666 
L 2450 4666 
L 2450 531 
L 3481 531 
L 3481 0 
L 794 0 
L 794 531 
z
" transform="scale(0.015625)"/>
       </defs>
       <use xlink:href="#DejaVuSans-31"/>
       <use xlink:href="#DejaVuSans-30" transform="translate(63.623047 0)"/>
      </g>
     </g>
    </g>
    <g id="text_10">
     <!-- Random variable -->
     <g transform="translate(263.83125 278.720312) scale(0.1 -0.1)">
      <defs>
       <path id="DejaVuSans-52" d="M 2841 2188 
Q 3044 2119 3236 1894 
Q 3428 1669 3622 1275 
L 4263 0 
L 3584 0 
L 2988 1197 
Q 2756 1666 2539 1819 
Q 2322 1972 1947 1972 
L 1259 1972 
L 1259 0 
L 628 0 
L 628 4666 
L 2053 4666 
Q 2853 4666 3247 4331 
Q 3641 3997 3641 3322 
Q 3641 2881 3436 2590 
Q 3231 2300 2841 2188 
z
M 1259 4147 
L 1259 2491 
L 2053 2491 
Q 2509 2491 2742 2702 
Q 2975 2913 2975 3322 
Q 2975 3731 2742 3939 
Q 2509 4147 2053 4147 
L 1259 4147 
z
" transform="scale(0.015625)"/>
       <path id="DejaVuSans-61" d="M 2194 1759 
Q 1497 1759 1228 1600 
Q 959 1441 959 1056 
Q 959 750 1161 570 
Q 1363 391 1709 391 
Q 2188 391 2477 730 
Q 2766 1069 2766 1631 
L 2766 1759 
L 2194 1759 
z
M 3341 1997 
L 3341 0 
L 2766 0 
L 2766 531 
Q 2569 213 2275 61 
Q 1981 -91 1556 -91 
Q 1019 -91 701 211 
Q 384 513 384 1019 
Q 384 1609 779 1909 
Q 1175 2209 1959 2209 
L 2766 2209 
L 2766 2266 
Q 2766 2663 2505 2880 
Q 2244 3097 1772 3097 
Q 1472 3097 1187 3025 
Q 903 2953 641 2809 
L 641 3341 
Q 956 3463 1253 3523 
Q 1550 3584 1831 3584 
Q 2591 3584 2966 3190 
Q 3341 2797 3341 1997 
z
" transform="scale(0.015625)"/>
       <path id="DejaVuSans-6e" d="M 3513 2113 
L 3513 0 
L 2938 0 
L 2938 2094 
Q 2938 2591 2744 2837 
Q 2550 3084 2163 3084 
Q 1697 3084 1428 2787 
Q 1159 2491 1159 1978 
L 1159 0 
L 581 0 
L 581 3500 
L 1159 3500 
L 1159 2956 
Q 1366 3272 1645 3428 
Q 1925 3584 2291 3584 
Q 2894 3584 3203 3211 
Q 3513 2838 3513 2113 
z
" transform="scale(0.015625)"/>
       <path id="DejaVuSans-64" d="M 2906 2969 
L 2906 4863 
L 3481 4863 
L 3481 0 
L 2906 0 
L 2906 525 
Q 2725 213 2448 61 
Q 2172 -91 1784 -91 
Q 1150 -91 751 415 
Q 353 922 353 1747 
Q 353 2572 751 3078 
Q 1150 3584 1784 3584 
Q 2172 3584 2448 3432 
Q 2725 3281 2906 2969 
z
M 947 1747 
Q 947 1113 1208 752 
Q 1469 391 1925 391 
Q 2381 391 2643 752 
Q 2906 1113 2906 1747 
Q 2906 2381 2643 2742 
Q 2381 3103 1925 3103 
Q 1469 3103 1208 2742 
Q 947 2381 947 1747 
z
" transform="scale(0.015625)"/>
       <path id="DejaVuSans-6f" d="M 1959 3097 
Q 1497 3097 1228 2736 
Q 959 2375 959 1747 
Q 959 1119 1226 758 
Q 1494 397 1959 397 
Q 2419 397 2687 759 
Q 2956 1122 2956 1747 
Q 2956 2369 2687 2733 
Q 2419 3097 1959 3097 
z
M 1959 3584 
Q 2709 3584 3137 3096 
Q 3566 2609 3566 1747 
Q 3566 888 3137 398 
Q 2709 -91 1959 -91 
Q 1206 -91 779 398 
Q 353 888 353 1747 
Q 353 2609 779 3096 
Q 1206 3584 1959 3584 
z
" transform="scale(0.015625)"/>
       <path id="DejaVuSans-6d" d="M 3328 2828 
Q 3544 3216 3844 3400 
Q 4144 3584 4550 3584 
Q 5097 3584 5394 3201 
Q 5691 2819 5691 2113 
L 5691 0 
L 5113 0 
L 5113 2094 
Q 5113 2597 4934 2840 
Q 4756 3084 4391 3084 
Q 3944 3084 3684 2787 
Q 3425 2491 3425 1978 
L 3425 0 
L 2847 0 
L 2847 2094 
Q 2847 2600 2669 2842 
Q 2491 3084 2119 3084 
Q 1678 3084 1418 2786 
Q 1159 2488 1159 1978 
L 1159 0 
L 581 0 
L 581 3500 
L 1159 3500 
L 1159 2956 
Q 1356 3278 1631 3431 
Q 1906 3584 2284 3584 
Q 2666 3584 2933 3390 
Q 3200 3197 3328 2828 
z
" transform="scale(0.015625)"/>
       <path id="DejaVuSans-20" transform="scale(0.015625)"/>
       <path id="DejaVuSans-76" d="M 191 3500 
L 800 3500 
L 1894 563 
L 2988 3500 
L 3597 3500 
L 2284 0 
L 1503 0 
L 191 3500 
z
" transform="scale(0.015625)"/>
       <path id="DejaVuSans-72" d="M 2631 2963 
Q 2534 3019 2420 3045 
Q 2306 3072 2169 3072 
Q 1681 3072 1420 2755 
Q 1159 2438 1159 1844 
L 1159 0 
L 581 0 
L 581 3500 
L 1159 3500 
L 1159 2956 
Q 1341 3275 1631 3429 
Q 1922 3584 2338 3584 
Q 2397 3584 2469 3576 
Q 2541 3569 2628 3553 
L 2631 2963 
z
" transform="scale(0.015625)"/>
       <path id="DejaVuSans-69" d="M 603 3500 
L 1178 3500 
L 1178 0 
L 603 0 
L 603 3500 
z
M 603 4863 
L 1178 4863 
L 1178 4134 
L 603 4134 
L 603 4863 
z
" transform="scale(0.015625)"/>
       <path id="DejaVuSans-62" d="M 3116 1747 
Q 3116 2381 2855 2742 
Q 2594 3103 2138 3103 
Q 1681 3103 1420 2742 
Q 1159 2381 1159 1747 
Q 1159 1113 1420 752 
Q 1681 391 2138 391 
Q 2594 391 2855 752 
Q 3116 1113 3116 1747 
z
M 1159 2969 
Q 1341 3281 1617 3432 
Q 1894 3584 2278 3584 
Q 2916 3584 3314 3078 
Q 3713 2572 3713 1747 
Q 3713 922 3314 415 
Q 2916 -91 2278 -91 
Q 1894 -91 1617 61 
Q 1341 213 1159 525 
L 1159 0 
L 581 0 
L 581 4863 
L 1159 4863 
L 1159 2969 
z
" transform="scale(0.015625)"/>
       <path id="DejaVuSans-6c" d="M 603 4863 
L 1178 4863 
L 1178 0 
L 603 0 
L 603 4863 
z
" transform="scale(0.015625)"/>
       <path id="DejaVuSans-65" d="M 3597 1894 
L 3597 1613 
L 953 1613 
Q 991 1019 1311 708 
Q 1631 397 2203 397 
Q 2534 397 2845 478 
Q 3156 559 3463 722 
L 3463 178 
Q 3153 47 2828 -22 
Q 2503 -91 2169 -91 
Q 1331 -91 842 396 
Q 353 884 353 1716 
Q 353 2575 817 3079 
Q 1281 3584 2069 3584 
Q 2775 3584 3186 3129 
Q 3597 2675 3597 1894 
z
M 3022 2063 
Q 3016 2534 2758 2815 
Q 2500 3097 2075 3097 
Q 1594 3097 1305 2825 
Q 1016 2553 972 2059 
L 3022 2063 
z
" transform="scale(0.015625)"/>
      </defs>
      <use xlink:href="#DejaVuSans-52"/>
      <use xlink:href="#DejaVuSans-61" transform="translate(67.232422 0)"/>
      <use xlink:href="#DejaVuSans-6e" transform="translate(128.511719 0)"/>
      <use xlink:href="#DejaVuSans-64" transform="translate(191.890625 0)"/>
      <use xlink:href="#DejaVuSans-6f" transform="translate(255.367188 0)"/>
      <use xlink:href="#DejaVuSans-6d" transform="translate(316.548828 0)"/>
      <use xlink:href="#DejaVuSans-20" transform="translate(413.960938 0)"/>
      <use xlink:href="#DejaVuSans-76" transform="translate(445.748047 0)"/>
      <use xlink:href="#DejaVuSans-61" transform="translate(504.927734 0)"/>
      <use xlink:href="#DejaVuSans-72" transform="translate(566.207031 0)"/>
      <use xlink:href="#DejaVuSans-69" transform="translate(607.320312 0)"/>
      <use xlink:href="#DejaVuSans-61" transform="translate(635.103516 0)"/>
      <use xlink:href="#DejaVuSans-62" transform="translate(696.382812 0)"/>
      <use xlink:href="#DejaVuSans-6c" transform="translate(759.859375 0)"/>
      <use xlink:href="#DejaVuSans-65" transform="translate(787.642578 0)"/>
     </g>
    </g>
   </g>
   <g id="matplotlib.axis_2">
    <g id="ytick_1">
     <g id="line2d_19">
      <path d="M 43.78125 250.44375 
L 568.8 250.44375 
" clip-path="url(#p9bbf6a19ae)" style="fill: none; stroke-dasharray: 2.96,1.28; stroke-dashoffset: 0; stroke: #b0b0b0; stroke-opacity: 0.8; stroke-width: 0.8"/>
     </g>
     <g id="line2d_20">
      <defs>
       <path id="md3536a0490" d="M 0 0 
L -3.5 0 
" style="stroke: #000000; stroke-width: 0.8"/>
      </defs>
      <g>
       <use xlink:href="#md3536a0490" x="43.78125" y="250.44375" style="stroke: #000000; stroke-width: 0.8"/>
      </g>
     </g>
     <g id="text_11">
      <!-- 0.0 -->
      <g transform="translate(20.878125 254.242969) scale(0.1 -0.1)">
       <defs>
        <path id="DejaVuSans-2e" d="M 684 794 
L 1344 794 
L 1344 0 
L 684 0 
L 684 794 
z
" transform="scale(0.015625)"/>
       </defs>
       <use xlink:href="#DejaVuSans-30"/>
       <use xlink:href="#DejaVuSans-2e" transform="translate(63.623047 0)"/>
       <use xlink:href="#DejaVuSans-30" transform="translate(95.410156 0)"/>
      </g>
     </g>
    </g>
    <g id="ytick_2">
     <g id="line2d_21">
      <path d="M 43.78125 223.212572 
L 568.8 223.212572 
" clip-path="url(#p9bbf6a19ae)" style="fill: none; stroke-dasharray: 2.96,1.28; stroke-dashoffset: 0; stroke: #b0b0b0; stroke-opacity: 0.8; stroke-width: 0.8"/>
     </g>
     <g id="line2d_22">
      <g>
       <use xlink:href="#md3536a0490" x="43.78125" y="223.212572" style="stroke: #000000; stroke-width: 0.8"/>
      </g>
     </g>
     <g id="text_12">
      <!-- 0.1 -->
      <g transform="translate(20.878125 227.011791) scale(0.1 -0.1)">
       <use xlink:href="#DejaVuSans-30"/>
       <use xlink:href="#DejaVuSans-2e" transform="translate(63.623047 0)"/>
       <use xlink:href="#DejaVuSans-31" transform="translate(95.410156 0)"/>
      </g>
     </g>
    </g>
    <g id="ytick_3">
     <g id="line2d_23">
      <path d="M 43.78125 195.981394 
L 568.8 195.981394 
" clip-path="url(#p9bbf6a19ae)" style="fill: none; stroke-dasharray: 2.96,1.28; stroke-dashoffset: 0; stroke: #b0b0b0; stroke-opacity: 0.8; stroke-width: 0.8"/>
     </g>
     <g id="line2d_24">
      <g>
       <use xlink:href="#md3536a0490" x="43.78125" y="195.981394" style="stroke: #000000; stroke-width: 0.8"/>
      </g>
     </g>
     <g id="text_13">
      <!-- 0.2 -->
      <g transform="translate(20.878125 199.780613) scale(0.1 -0.1)">
       <use xlink:href="#DejaVuSans-30"/>
       <use xlink:href="#DejaVuSans-2e" transform="translate(63.623047 0)"/>
       <use xlink:href="#DejaVuSans-32" transform="translate(95.410156 0)"/>
      </g>
     </g>
    </g>
    <g id="ytick_4">
     <g id="line2d_25">
      <path d="M 43.78125 168.750217 
L 568.8 168.750217 
" clip-path="url(#p9bbf6a19ae)" style="fill: none; stroke-dasharray: 2.96,1.28; stroke-dashoffset: 0; stroke: #b0b0b0; stroke-opacity: 0.8; stroke-width: 0.8"/>
     </g>
     <g id="line2d_26">
      <g>
       <use xlink:href="#md3536a0490" x="43.78125" y="168.750217" style="stroke: #000000; stroke-width: 0.8"/>
      </g>
     </g>
     <g id="text_14">
      <!-- 0.3 -->
      <g transform="translate(20.878125 172.549435) scale(0.1 -0.1)">
       <defs>
        <path id="DejaVuSans-33" d="M 2597 2516 
Q 3050 2419 3304 2112 
Q 3559 1806 3559 1356 
Q 3559 666 3084 287 
Q 2609 -91 1734 -91 
Q 1441 -91 1130 -33 
Q 819 25 488 141 
L 488 750 
Q 750 597 1062 519 
Q 1375 441 1716 441 
Q 2309 441 2620 675 
Q 2931 909 2931 1356 
Q 2931 1769 2642 2001 
Q 2353 2234 1838 2234 
L 1294 2234 
L 1294 2753 
L 1863 2753 
Q 2328 2753 2575 2939 
Q 2822 3125 2822 3475 
Q 2822 3834 2567 4026 
Q 2313 4219 1838 4219 
Q 1578 4219 1281 4162 
Q 984 4106 628 3988 
L 628 4550 
Q 988 4650 1302 4700 
Q 1616 4750 1894 4750 
Q 2613 4750 3031 4423 
Q 3450 4097 3450 3541 
Q 3450 3153 3228 2886 
Q 3006 2619 2597 2516 
z
" transform="scale(0.015625)"/>
       </defs>
       <use xlink:href="#DejaVuSans-30"/>
       <use xlink:href="#DejaVuSans-2e" transform="translate(63.623047 0)"/>
       <use xlink:href="#DejaVuSans-33" transform="translate(95.410156 0)"/>
      </g>
     </g>
    </g>
    <g id="ytick_5">
     <g id="line2d_27">
      <path d="M 43.78125 141.519039 
L 568.8 141.519039 
" clip-path="url(#p9bbf6a19ae)" style="fill: none; stroke-dasharray: 2.96,1.28; stroke-dashoffset: 0; stroke: #b0b0b0; stroke-opacity: 0.8; stroke-width: 0.8"/>
     </g>
     <g id="line2d_28">
      <g>
       <use xlink:href="#md3536a0490" x="43.78125" y="141.519039" style="stroke: #000000; stroke-width: 0.8"/>
      </g>
     </g>
     <g id="text_15">
      <!-- 0.4 -->
      <g transform="translate(20.878125 145.318258) scale(0.1 -0.1)">
       <use xlink:href="#DejaVuSans-30"/>
       <use xlink:href="#DejaVuSans-2e" transform="translate(63.623047 0)"/>
       <use xlink:href="#DejaVuSans-34" transform="translate(95.410156 0)"/>
      </g>
     </g>
    </g>
    <g id="ytick_6">
     <g id="line2d_29">
      <path d="M 43.78125 114.287861 
L 568.8 114.287861 
" clip-path="url(#p9bbf6a19ae)" style="fill: none; stroke-dasharray: 2.96,1.28; stroke-dashoffset: 0; stroke: #b0b0b0; stroke-opacity: 0.8; stroke-width: 0.8"/>
     </g>
     <g id="line2d_30">
      <g>
       <use xlink:href="#md3536a0490" x="43.78125" y="114.287861" style="stroke: #000000; stroke-width: 0.8"/>
      </g>
     </g>
     <g id="text_16">
      <!-- 0.5 -->
      <g transform="translate(20.878125 118.08708) scale(0.1 -0.1)">
       <defs>
        <path id="DejaVuSans-35" d="M 691 4666 
L 3169 4666 
L 3169 4134 
L 1269 4134 
L 1269 2991 
Q 1406 3038 1543 3061 
Q 1681 3084 1819 3084 
Q 2600 3084 3056 2656 
Q 3513 2228 3513 1497 
Q 3513 744 3044 326 
Q 2575 -91 1722 -91 
Q 1428 -91 1123 -41 
Q 819 9 494 109 
L 494 744 
Q 775 591 1075 516 
Q 1375 441 1709 441 
Q 2250 441 2565 725 
Q 2881 1009 2881 1497 
Q 2881 1984 2565 2268 
Q 2250 2553 1709 2553 
Q 1456 2553 1204 2497 
Q 953 2441 691 2322 
L 691 4666 
z
" transform="scale(0.015625)"/>
       </defs>
       <use xlink:href="#DejaVuSans-30"/>
       <use xlink:href="#DejaVuSans-2e" transform="translate(63.623047 0)"/>
       <use xlink:href="#DejaVuSans-35" transform="translate(95.410156 0)"/>
      </g>
     </g>
    </g>
    <g id="ytick_7">
     <g id="line2d_31">
      <path d="M 43.78125 87.056683 
L 568.8 87.056683 
" clip-path="url(#p9bbf6a19ae)" style="fill: none; stroke-dasharray: 2.96,1.28; stroke-dashoffset: 0; stroke: #b0b0b0; stroke-opacity: 0.8; stroke-width: 0.8"/>
     </g>
     <g id="line2d_32">
      <g>
       <use xlink:href="#md3536a0490" x="43.78125" y="87.056683" style="stroke: #000000; stroke-width: 0.8"/>
      </g>
     </g>
     <g id="text_17">
      <!-- 0.6 -->
      <g transform="translate(20.878125 90.855902) scale(0.1 -0.1)">
       <use xlink:href="#DejaVuSans-30"/>
       <use xlink:href="#DejaVuSans-2e" transform="translate(63.623047 0)"/>
       <use xlink:href="#DejaVuSans-36" transform="translate(95.410156 0)"/>
      </g>
     </g>
    </g>
    <g id="ytick_8">
     <g id="line2d_33">
      <path d="M 43.78125 59.825505 
L 568.8 59.825505 
" clip-path="url(#p9bbf6a19ae)" style="fill: none; stroke-dasharray: 2.96,1.28; stroke-dashoffset: 0; stroke: #b0b0b0; stroke-opacity: 0.8; stroke-width: 0.8"/>
     </g>
     <g id="line2d_34">
      <g>
       <use xlink:href="#md3536a0490" x="43.78125" y="59.825505" style="stroke: #000000; stroke-width: 0.8"/>
      </g>
     </g>
     <g id="text_18">
      <!-- 0.7 -->
      <g transform="translate(20.878125 63.624724) scale(0.1 -0.1)">
       <defs>
        <path id="DejaVuSans-37" d="M 525 4666 
L 3525 4666 
L 3525 4397 
L 1831 0 
L 1172 0 
L 2766 4134 
L 525 4134 
L 525 4666 
z
" transform="scale(0.015625)"/>
       </defs>
       <use xlink:href="#DejaVuSans-30"/>
       <use xlink:href="#DejaVuSans-2e" transform="translate(63.623047 0)"/>
       <use xlink:href="#DejaVuSans-37" transform="translate(95.410156 0)"/>
      </g>
     </g>
    </g>
    <g id="ytick_9">
     <g id="line2d_35">
      <path d="M 43.78125 32.594328 
L 568.8 32.594328 
" clip-path="url(#p9bbf6a19ae)" style="fill: none; stroke-dasharray: 2.96,1.28; stroke-dashoffset: 0; stroke: #b0b0b0; stroke-opacity: 0.8; stroke-width: 0.8"/>
     </g>
     <g id="line2d_36">
      <g>
       <use xlink:href="#md3536a0490" x="43.78125" y="32.594328" style="stroke: #000000; stroke-width: 0.8"/>
      </g>
     </g>
     <g id="text_19">
      <!-- 0.8 -->
      <g transform="translate(20.878125 36.393546) scale(0.1 -0.1)">
       <use xlink:href="#DejaVuSans-30"/>
       <use xlink:href="#DejaVuSans-2e" transform="translate(63.623047 0)"/>
       <use xlink:href="#DejaVuSans-38" transform="translate(95.410156 0)"/>
      </g>
     </g>
    </g>
    <g id="text_20">
     <!-- Probability density -->
     <g transform="translate(14.798438 182.731719) rotate(-90) scale(0.1 -0.1)">
      <defs>
       <path id="DejaVuSans-50" d="M 1259 4147 
L 1259 2394 
L 2053 2394 
Q 2494 2394 2734 2622 
Q 2975 2850 2975 3272 
Q 2975 3691 2734 3919 
Q 2494 4147 2053 4147 
L 1259 4147 
z
M 628 4666 
L 2053 4666 
Q 2838 4666 3239 4311 
Q 3641 3956 3641 3272 
Q 3641 2581 3239 2228 
Q 2838 1875 2053 1875 
L 1259 1875 
L 1259 0 
L 628 0 
L 628 4666 
z
" transform="scale(0.015625)"/>
       <path id="DejaVuSans-74" d="M 1172 4494 
L 1172 3500 
L 2356 3500 
L 2356 3053 
L 1172 3053 
L 1172 1153 
Q 1172 725 1289 603 
Q 1406 481 1766 481 
L 2356 481 
L 2356 0 
L 1766 0 
Q 1100 0 847 248 
Q 594 497 594 1153 
L 594 3053 
L 172 3053 
L 172 3500 
L 594 3500 
L 594 4494 
L 1172 4494 
z
" transform="scale(0.015625)"/>
       <path id="DejaVuSans-79" d="M 2059 -325 
Q 1816 -950 1584 -1140 
Q 1353 -1331 966 -1331 
L 506 -1331 
L 506 -850 
L 844 -850 
Q 1081 -850 1212 -737 
Q 1344 -625 1503 -206 
L 1606 56 
L 191 3500 
L 800 3500 
L 1894 763 
L 2988 3500 
L 3597 3500 
L 2059 -325 
z
" transform="scale(0.015625)"/>
       <path id="DejaVuSans-73" d="M 2834 3397 
L 2834 2853 
Q 2591 2978 2328 3040 
Q 2066 3103 1784 3103 
Q 1356 3103 1142 2972 
Q 928 2841 928 2578 
Q 928 2378 1081 2264 
Q 1234 2150 1697 2047 
L 1894 2003 
Q 2506 1872 2764 1633 
Q 3022 1394 3022 966 
Q 3022 478 2636 193 
Q 2250 -91 1575 -91 
Q 1294 -91 989 -36 
Q 684 19 347 128 
L 347 722 
Q 666 556 975 473 
Q 1284 391 1588 391 
Q 1994 391 2212 530 
Q 2431 669 2431 922 
Q 2431 1156 2273 1281 
Q 2116 1406 1581 1522 
L 1381 1569 
Q 847 1681 609 1914 
Q 372 2147 372 2553 
Q 372 3047 722 3315 
Q 1072 3584 1716 3584 
Q 2034 3584 2315 3537 
Q 2597 3491 2834 3397 
z
" transform="scale(0.015625)"/>
      </defs>
      <use xlink:href="#DejaVuSans-50"/>
      <use xlink:href="#DejaVuSans-72" transform="translate(58.552734 0)"/>
      <use xlink:href="#DejaVuSans-6f" transform="translate(97.416016 0)"/>
      <use xlink:href="#DejaVuSans-62" transform="translate(158.597656 0)"/>
      <use xlink:href="#DejaVuSans-61" transform="translate(222.074219 0)"/>
      <use xlink:href="#DejaVuSans-62" transform="translate(283.353516 0)"/>
      <use xlink:href="#DejaVuSans-69" transform="translate(346.830078 0)"/>
      <use xlink:href="#DejaVuSans-6c" transform="translate(374.613281 0)"/>
      <use xlink:href="#DejaVuSans-69" transform="translate(402.396484 0)"/>
      <use xlink:href="#DejaVuSans-74" transform="translate(430.179688 0)"/>
      <use xlink:href="#DejaVuSans-79" transform="translate(469.388672 0)"/>
      <use xlink:href="#DejaVuSans-20" transform="translate(528.568359 0)"/>
      <use xlink:href="#DejaVuSans-64" transform="translate(560.355469 0)"/>
      <use xlink:href="#DejaVuSans-65" transform="translate(623.832031 0)"/>
      <use xlink:href="#DejaVuSans-6e" transform="translate(685.355469 0)"/>
      <use xlink:href="#DejaVuSans-73" transform="translate(748.734375 0)"/>
      <use xlink:href="#DejaVuSans-69" transform="translate(800.833984 0)"/>
      <use xlink:href="#DejaVuSans-74" transform="translate(828.617188 0)"/>
      <use xlink:href="#DejaVuSans-79" transform="translate(867.826172 0)"/>
     </g>
    </g>
   </g>
   <g id="line2d_37">
    <path d="M 97.292735 250.44375 
L 337.229263 250.343696 
L 342.153334 250.098295 
L 345.286833 249.725576 
L 347.525047 249.264703 
L 349.315618 248.718958 
L 351.106189 247.956678 
L 352.89676 246.908775 
L 354.239689 245.88542 
L 355.582617 244.613229 
L 356.925545 243.046145 
L 358.268474 241.13359 
L 359.611402 238.821094 
L 360.95433 236.051263 
L 362.297258 232.765125 
L 363.640187 228.903866 
L 364.983115 224.410976 
L 366.326043 219.234757 
L 367.668972 213.331159 
L 369.459543 204.272547 
L 371.250114 193.824089 
L 373.040685 182.003829 
L 375.278899 165.439071 
L 377.964756 143.414057 
L 386.469968 71.162411 
L 388.26054 58.70068 
L 389.603468 50.685817 
L 390.946396 44.014797 
L 391.841682 40.391502 
L 392.736967 37.472687 
L 393.632253 35.289266 
L 394.527538 33.86455 
L 394.975181 33.441809 
L 395.422824 33.213837 
L 395.870467 33.18125 
L 396.31811 33.344136 
L 396.765752 33.702055 
L 397.213395 34.254042 
L 398.108681 35.933762 
L 399.003966 38.36529 
L 399.899252 41.522727 
L 400.794537 45.372742 
L 402.137466 52.356756 
L 403.480394 60.646518 
L 405.270965 73.407184 
L 407.509179 91.411613 
L 411.090321 122.613105 
L 414.671463 153.444204 
L 416.909677 171.166096 
L 419.147891 187.091761 
L 420.938462 198.346806 
L 422.729033 208.214788 
L 424.519604 216.703 
L 426.310176 223.870467 
L 427.653104 228.436844 
L 428.996032 232.365559 
L 430.338961 235.712718 
L 431.681889 238.53699 
L 433.024817 240.897425 
L 434.367746 242.851665 
L 435.710674 244.454559 
L 437.053602 245.757155 
L 438.396531 246.806033 
L 440.187102 247.881319 
L 441.977673 248.664563 
L 443.768244 249.226059 
L 446.006458 249.700924 
L 448.692314 250.045268 
L 452.273457 250.278599 
L 458.092813 250.408842 
L 473.76031 250.4435 
L 544.935511 250.44375 
L 544.935511 250.44375 
" clip-path="url(#p9bbf6a19ae)" style="fill: none; stroke: #1f77b4; stroke-linecap: square"/>
   </g>
   <g id="line2d_38">
    <path d="M 97.292735 250.44375 
L 276.349845 250.44375 
L 285.750344 229.263534 
L 290.674414 218.694023 
L 294.703199 210.509188 
L 298.284341 203.673824 
L 301.865484 197.320146 
L 304.998983 192.20032 
L 308.132483 187.524638 
L 310.818339 183.890624 
L 313.504196 180.615707 
L 316.190052 177.709931 
L 318.428266 175.575456 
L 320.66648 173.704375 
L 322.904694 172.097421 
L 325.142908 170.753841 
L 327.381122 169.671444 
L 329.619336 168.846661 
L 331.85755 168.274612 
L 334.095764 167.949178 
L 336.333977 167.86309 
L 338.572191 168.008015 
L 340.810405 168.374655 
L 343.048619 168.952847 
L 345.286833 169.731665 
L 347.97269 170.914727 
L 350.658546 172.348948 
L 353.792046 174.310379 
L 356.925545 176.548019 
L 360.506687 179.396853 
L 364.535472 182.908559 
L 369.459543 187.534935 
L 375.726542 193.758553 
L 391.841682 209.923765 
L 397.661038 215.366986 
L 402.585108 219.6829 
L 407.509179 223.691524 
L 411.985607 227.048035 
L 416.462034 230.120343 
L 420.938462 232.906145 
L 425.41489 235.4094 
L 429.891318 237.639201 
L 434.367746 239.608679 
L 438.844173 241.333976 
L 443.320601 242.833291 
L 448.244672 244.244733 
L 453.168742 245.432773 
L 458.540455 246.504922 
L 464.359812 247.439725 
L 470.62681 248.226029 
L 477.789095 248.898967 
L 486.294308 249.458492 
L 496.142449 249.874258 
L 508.676446 250.172014 
L 526.582158 250.356714 
L 544.935511 250.419202 
L 544.935511 250.419202 
" clip-path="url(#p9bbf6a19ae)" style="fill: none; stroke: #ff7f0e; stroke-linecap: square"/>
   </g>
   <g id="line2d_39">
    <path d="M 97.292735 250.403349 
L 125.046587 250.209454 
L 141.161727 249.851872 
L 153.695725 249.292714 
L 163.991508 248.519099 
L 172.944364 247.492503 
L 182.344862 245.978672 
L 190.402432 244.177722 
L 198.460002 241.819792 
L 201.145859 240.892688 
L 202.041144 240.626709 
L 210.546357 237.081215 
L 214.127499 235.298055 
L 214.575142 235.173306 
L 223.527998 230.027695 
L 224.423283 229.408972 
L 224.870926 229.252385 
L 229.347354 226.133445 
L 229.794997 225.961796 
L 234.271424 222.562172 
L 234.719067 222.376126 
L 236.957281 220.478055 
L 237.404924 220.284561 
L 239.643138 218.31419 
L 240.09078 218.113701 
L 241.881352 216.488233 
L 242.328994 216.282428 
L 244.567208 214.194189 
L 245.014851 213.982472 
L 247.253065 211.838721 
L 247.700708 211.621834 
L 249.491279 209.871878 
L 249.938922 209.651388 
L 252.177135 207.427864 
L 252.624778 207.203831 
L 254.862992 204.950014 
L 255.310635 204.723485 
L 257.548849 202.450388 
L 257.996492 202.222518 
L 259.787063 200.39825 
L 260.234705 200.170215 
L 262.472919 197.893714 
L 262.920562 197.666702 
L 265.158776 195.407538 
L 265.606419 195.182986 
L 267.39699 193.39838 
L 267.844633 193.176973 
L 270.082847 190.987896 
L 270.530489 190.771784 
L 272.768703 188.643913 
L 273.216346 188.43476 
L 275.006917 186.788557 
L 275.45456 186.586377 
L 277.692774 184.613592 
L 278.140416 184.42154 
L 280.37863 182.559012 
L 280.826273 182.378888 
L 282.616844 180.981435 
L 283.064487 180.812423 
L 285.302701 179.196832 
L 285.750344 179.043058 
L 287.988558 177.588926 
L 288.4362 177.452201 
L 290.674414 176.177512 
L 291.5697 175.829244 
L 292.912628 175.182424 
L 293.807914 174.884632 
L 295.598485 174.177454 
L 296.49377 173.9459 
L 298.284341 173.421769 
L 299.62727 173.165324 
L 301.417841 172.901628 
L 303.656055 172.731772 
L 305.894269 172.775008 
L 307.68484 172.95553 
L 310.370696 173.49702 
L 313.056553 174.361843 
L 317.085338 176.211197 
L 320.66648 178.590497 
L 321.114123 178.955015 
L 321.561766 179.141431 
L 325.142908 182.267536 
L 326.038194 183.204246 
L 326.485836 183.445086 
L 330.514621 187.935584 
L 331.409907 189.096956 
L 331.85755 189.393254 
L 333.648121 191.846473 
L 334.095764 192.163172 
L 336.333977 195.444904 
L 336.78162 195.783986 
L 339.019834 199.272792 
L 339.467477 199.630769 
L 341.258048 202.546203 
L 341.705691 202.91652 
L 343.943905 206.677561 
L 344.391547 207.058505 
L 346.629761 210.898713 
L 347.077404 211.28475 
L 349.315618 215.145924 
L 349.763261 215.530982 
L 351.553832 218.592465 
L 352.001475 218.971979 
L 354.239689 222.709861 
L 354.687331 223.07677 
L 356.925545 226.657472 
L 357.373188 227.005633 
L 359.163759 229.7156 
L 359.611402 230.044291 
L 361.849616 233.194827 
L 362.297258 233.495488 
L 364.535472 236.347016 
L 364.983115 236.616149 
L 366.773686 238.660301 
L 367.221329 238.902023 
L 369.459543 241.148323 
L 369.907186 241.355838 
L 372.1454 243.261701 
L 372.593042 243.435586 
L 374.383613 244.720765 
L 374.831256 244.868463 
L 377.06947 246.195079 
L 377.964756 246.542136 
L 379.755327 247.361562 
L 380.650612 247.631453 
L 382.441183 248.260378 
L 383.336469 248.46469 
L 385.574683 248.986097 
L 387.812897 249.388053 
L 390.498753 249.748462 
L 394.079896 250.06661 
L 398.556323 250.27427 
L 405.270965 250.401579 
L 436.605959 250.443743 
L 544.935511 250.44375 
L 544.935511 250.44375 
" clip-path="url(#p9bbf6a19ae)" style="fill: none; stroke: #2ca02c; stroke-linecap: square"/>
   </g>
   <g id="patch_3">
    <path d="M 67.645739 250.44375 
L 67.645739 250.420024 
L 115.597557 250.348845 
L 115.597557 250.301392 
L 122.447817 250.277666 
L 122.447817 250.159035 
L 125.872946 250.159035 
L 125.872946 250.277666 
L 129.298076 250.277666 
L 129.298076 250.016677 
L 136.148336 250.111582 
L 136.148336 249.80314 
L 149.848855 249.731962 
L 149.848855 249.399794 
L 153.273985 249.399794 
L 153.273985 249.115078 
L 156.699115 249.115078 
L 156.699115 248.5931 
L 160.124245 248.5931 
L 160.124245 248.735458 
L 163.549375 248.735458 
L 163.549375 248.213479 
L 170.399635 248.118574 
L 170.399635 247.786406 
L 173.824765 247.786406 
L 173.824765 247.264428 
L 177.249894 247.264428 
L 177.249894 246.481461 
L 180.675024 246.481461 
L 180.675024 245.793399 
L 184.100154 245.793399 
L 184.100154 245.010431 
L 187.525284 245.010431 
L 187.525284 244.180011 
L 190.950414 244.180011 
L 190.950414 242.780161 
L 194.375544 242.780161 
L 194.375544 242.234456 
L 197.800674 242.234456 
L 197.800674 241.712478 
L 201.225804 241.712478 
L 201.225804 239.268671 
L 204.650933 239.268671 
L 204.650933 239.482207 
L 208.076063 239.482207 
L 208.076063 237.275663 
L 211.501193 237.275663 
L 211.501193 236.397791 
L 214.926323 236.397791 
L 214.926323 235.140298 
L 218.351453 235.140298 
L 218.351453 232.055881 
L 221.776583 232.055881 
L 221.776583 229.896789 
L 225.201713 229.896789 
L 225.201713 228.781654 
L 228.626842 228.781654 
L 228.626842 225.151532 
L 232.051972 225.151532 
L 232.051972 222.019663 
L 235.477102 222.019663 
L 235.477102 219.077604 
L 238.902232 219.077604 
L 238.902232 216.894786 
L 242.327362 216.894786 
L 242.327362 216.23045 
L 245.752492 216.23045 
L 245.752492 211.556372 
L 249.177622 211.556372 
L 249.177622 209.254923 
L 252.602752 209.254923 
L 252.602752 206.14678 
L 256.027881 206.14678 
L 256.027881 200.357567 
L 259.453011 200.357567 
L 259.453011 200.049125 
L 262.878141 200.049125 
L 262.878141 197.27315 
L 266.303271 197.27315 
L 266.303271 192.432988 
L 269.728401 192.432988 
L 269.728401 188.660509 
L 273.153531 188.660509 
L 273.153531 188.233436 
L 276.578661 188.233436 
L 276.578661 184.50841 
L 280.00379 184.50841 
L 280.00379 180.1665 
L 283.42892 180.1665 
L 283.42892 178.600565 
L 286.85405 178.600565 
L 286.85405 176.512652 
L 290.27918 176.512652 
L 290.27918 178.980186 
L 293.70431 178.980186 
L 293.70431 171.530133 
L 297.12944 171.530133 
L 297.12944 172.692721 
L 300.55457 172.692721 
L 300.55457 173.024889 
L 303.9797 173.024889 
L 303.9797 174.092572 
L 307.404829 174.092572 
L 307.404829 172.7639 
L 310.829959 172.7639 
L 310.829959 174.733181 
L 314.255089 174.733181 
L 314.255089 175.160254 
L 317.680219 175.160254 
L 317.680219 178.932733 
L 321.105349 178.932733 
L 321.105349 179.834332 
L 324.530479 179.834332 
L 324.530479 184.484683 
L 327.955609 184.484683 
L 327.955609 188.304615 
L 331.380738 188.304615 
L 331.380738 190.558612 
L 334.805868 190.558612 
L 334.805868 196.988435 
L 338.230998 196.988435 
L 338.230998 199.218705 
L 341.656128 199.218705 
L 341.656128 204.960466 
L 345.081258 204.960466 
L 345.081258 211.200478 
L 348.506388 211.200478 
L 348.506388 216.349081 
L 351.931518 216.349081 
L 351.931518 222.470462 
L 355.356648 222.470462 
L 355.356648 226.836098 
L 358.781777 226.836098 
L 358.781777 231.083103 
L 362.206907 231.083103 
L 362.206907 235.591097 
L 365.632037 235.591097 
L 365.632037 239.316123 
L 369.057167 239.316123 
L 369.057167 242.044646 
L 372.482297 242.044646 
L 372.482297 244.607084 
L 375.907427 244.607084 
L 375.907427 246.030661 
L 379.332557 246.030661 
L 379.332557 247.644049 
L 382.757687 247.644049 
L 382.757687 248.78291 
L 386.182816 248.78291 
L 386.182816 249.470972 
L 389.607946 249.470972 
L 389.607946 249.874319 
L 393.033076 249.874319 
L 393.033076 250.064129 
L 396.458206 250.064129 
L 396.458206 250.301392 
L 403.308466 250.372571 
L 403.308466 250.420024 
L 413.583855 250.420024 
L 413.583855 250.44375 
" clip-path="url(#p9bbf6a19ae)" style="fill: none; stroke: #d62728; stroke-linejoin: miter"/>
   </g>
   <g id="patch_4">
    <path d="M 43.78125 250.44375 
L 43.78125 22.318125 
" style="fill: none; stroke: #000000; stroke-width: 0.8; stroke-linejoin: miter; stroke-linecap: square"/>
   </g>
   <g id="patch_5">
    <path d="M 568.8 250.44375 
L 568.8 22.318125 
" style="fill: none; stroke: #000000; stroke-width: 0.8; stroke-linejoin: miter; stroke-linecap: square"/>
   </g>
   <g id="patch_6">
    <path d="M 43.78125 250.44375 
L 568.8 250.44375 
" style="fill: none; stroke: #000000; stroke-width: 0.8; stroke-linejoin: miter; stroke-linecap: square"/>
   </g>
   <g id="patch_7">
    <path d="M 43.78125 22.318125 
L 568.8 22.318125 
" style="fill: none; stroke: #000000; stroke-width: 0.8; stroke-linejoin: miter; stroke-linecap: square"/>
   </g>
   <g id="text_21">
    <!-- Difference of normal and Rayleigh random variables -->
    <g transform="translate(149.232188 16.318125) scale(0.12 -0.12)">
     <defs>
      <path id="DejaVuSans-44" d="M 1259 4147 
L 1259 519 
L 2022 519 
Q 2988 519 3436 956 
Q 3884 1394 3884 2338 
Q 3884 3275 3436 3711 
Q 2988 4147 2022 4147 
L 1259 4147 
z
M 628 4666 
L 1925 4666 
Q 3281 4666 3915 4102 
Q 4550 3538 4550 2338 
Q 4550 1131 3912 565 
Q 3275 0 1925 0 
L 628 0 
L 628 4666 
z
" transform="scale(0.015625)"/>
      <path id="DejaVuSans-66" d="M 2375 4863 
L 2375 4384 
L 1825 4384 
Q 1516 4384 1395 4259 
Q 1275 4134 1275 3809 
L 1275 3500 
L 2222 3500 
L 2222 3053 
L 1275 3053 
L 1275 0 
L 697 0 
L 697 3053 
L 147 3053 
L 147 3500 
L 697 3500 
L 697 3744 
Q 697 4328 969 4595 
Q 1241 4863 1831 4863 
L 2375 4863 
z
" transform="scale(0.015625)"/>
      <path id="DejaVuSans-63" d="M 3122 3366 
L 3122 2828 
Q 2878 2963 2633 3030 
Q 2388 3097 2138 3097 
Q 1578 3097 1268 2742 
Q 959 2388 959 1747 
Q 959 1106 1268 751 
Q 1578 397 2138 397 
Q 2388 397 2633 464 
Q 2878 531 3122 666 
L 3122 134 
Q 2881 22 2623 -34 
Q 2366 -91 2075 -91 
Q 1284 -91 818 406 
Q 353 903 353 1747 
Q 353 2603 823 3093 
Q 1294 3584 2113 3584 
Q 2378 3584 2631 3529 
Q 2884 3475 3122 3366 
z
" transform="scale(0.015625)"/>
      <path id="DejaVuSans-67" d="M 2906 1791 
Q 2906 2416 2648 2759 
Q 2391 3103 1925 3103 
Q 1463 3103 1205 2759 
Q 947 2416 947 1791 
Q 947 1169 1205 825 
Q 1463 481 1925 481 
Q 2391 481 2648 825 
Q 2906 1169 2906 1791 
z
M 3481 434 
Q 3481 -459 3084 -895 
Q 2688 -1331 1869 -1331 
Q 1566 -1331 1297 -1286 
Q 1028 -1241 775 -1147 
L 775 -588 
Q 1028 -725 1275 -790 
Q 1522 -856 1778 -856 
Q 2344 -856 2625 -561 
Q 2906 -266 2906 331 
L 2906 616 
Q 2728 306 2450 153 
Q 2172 0 1784 0 
Q 1141 0 747 490 
Q 353 981 353 1791 
Q 353 2603 747 3093 
Q 1141 3584 1784 3584 
Q 2172 3584 2450 3431 
Q 2728 3278 2906 2969 
L 2906 3500 
L 3481 3500 
L 3481 434 
z
" transform="scale(0.015625)"/>
      <path id="DejaVuSans-68" d="M 3513 2113 
L 3513 0 
L 2938 0 
L 2938 2094 
Q 2938 2591 2744 2837 
Q 2550 3084 2163 3084 
Q 1697 3084 1428 2787 
Q 1159 2491 1159 1978 
L 1159 0 
L 581 0 
L 581 4863 
L 1159 4863 
L 1159 2956 
Q 1366 3272 1645 3428 
Q 1925 3584 2291 3584 
Q 2894 3584 3203 3211 
Q 3513 2838 3513 2113 
z
" transform="scale(0.015625)"/>
     </defs>
     <use xlink:href="#DejaVuSans-44"/>
     <use xlink:href="#DejaVuSans-69" transform="translate(77.001953 0)"/>
     <use xlink:href="#DejaVuSans-66" transform="translate(104.785156 0)"/>
     <use xlink:href="#DejaVuSans-66" transform="translate(139.990234 0)"/>
     <use xlink:href="#DejaVuSans-65" transform="translate(175.195312 0)"/>
     <use xlink:href="#DejaVuSans-72" transform="translate(236.71875 0)"/>
     <use xlink:href="#DejaVuSans-65" transform="translate(275.582031 0)"/>
     <use xlink:href="#DejaVuSans-6e" transform="translate(337.105469 0)"/>
     <use xlink:href="#DejaVuSans-63" transform="translate(400.484375 0)"/>
     <use xlink:href="#DejaVuSans-65" transform="translate(455.464844 0)"/>
     <use xlink:href="#DejaVuSans-20" transform="translate(516.988281 0)"/>
     <use xlink:href="#DejaVuSans-6f" transform="translate(548.775391 0)"/>
     <use xlink:href="#DejaVuSans-66" transform="translate(609.957031 0)"/>
     <use xlink:href="#DejaVuSans-20" transform="translate(645.162109 0)"/>
     <use xlink:href="#DejaVuSans-6e" transform="translate(676.949219 0)"/>
     <use xlink:href="#DejaVuSans-6f" transform="translate(740.328125 0)"/>
     <use xlink:href="#DejaVuSans-72" transform="translate(801.509766 0)"/>
     <use xlink:href="#DejaVuSans-6d" transform="translate(840.873047 0)"/>
     <use xlink:href="#DejaVuSans-61" transform="translate(938.285156 0)"/>
     <use xlink:href="#DejaVuSans-6c" transform="translate(999.564453 0)"/>
     <use xlink:href="#DejaVuSans-20" transform="translate(1027.347656 0)"/>
     <use xlink:href="#DejaVuSans-61" transform="translate(1059.134766 0)"/>
     <use xlink:href="#DejaVuSans-6e" transform="translate(1120.414062 0)"/>
     <use xlink:href="#DejaVuSans-64" transform="translate(1183.792969 0)"/>
     <use xlink:href="#DejaVuSans-20" transform="translate(1247.269531 0)"/>
     <use xlink:href="#DejaVuSans-52" transform="translate(1279.056641 0)"/>
     <use xlink:href="#DejaVuSans-61" transform="translate(1346.289062 0)"/>
     <use xlink:href="#DejaVuSans-79" transform="translate(1407.568359 0)"/>
     <use xlink:href="#DejaVuSans-6c" transform="translate(1466.748047 0)"/>
     <use xlink:href="#DejaVuSans-65" transform="translate(1494.53125 0)"/>
     <use xlink:href="#DejaVuSans-69" transform="translate(1556.054688 0)"/>
     <use xlink:href="#DejaVuSans-67" transform="translate(1583.837891 0)"/>
     <use xlink:href="#DejaVuSans-68" transform="translate(1647.314453 0)"/>
     <use xlink:href="#DejaVuSans-20" transform="translate(1710.693359 0)"/>
     <use xlink:href="#DejaVuSans-72" transform="translate(1742.480469 0)"/>
     <use xlink:href="#DejaVuSans-61" transform="translate(1783.59375 0)"/>
     <use xlink:href="#DejaVuSans-6e" transform="translate(1844.873047 0)"/>
     <use xlink:href="#DejaVuSans-64" transform="translate(1908.251953 0)"/>
     <use xlink:href="#DejaVuSans-6f" transform="translate(1971.728516 0)"/>
     <use xlink:href="#DejaVuSans-6d" transform="translate(2032.910156 0)"/>
     <use xlink:href="#DejaVuSans-20" transform="translate(2130.322266 0)"/>
     <use xlink:href="#DejaVuSans-76" transform="translate(2162.109375 0)"/>
     <use xlink:href="#DejaVuSans-61" transform="translate(2221.289062 0)"/>
     <use xlink:href="#DejaVuSans-72" transform="translate(2282.568359 0)"/>
     <use xlink:href="#DejaVuSans-69" transform="translate(2323.681641 0)"/>
     <use xlink:href="#DejaVuSans-61" transform="translate(2351.464844 0)"/>
     <use xlink:href="#DejaVuSans-62" transform="translate(2412.744141 0)"/>
     <use xlink:href="#DejaVuSans-6c" transform="translate(2476.220703 0)"/>
     <use xlink:href="#DejaVuSans-65" transform="translate(2504.003906 0)"/>
     <use xlink:href="#DejaVuSans-73" transform="translate(2565.527344 0)"/>
    </g>
   </g>
   <g id="legend_1">
    <g id="patch_8">
     <path d="M 455 89.0525 
L 561.8 89.0525 
Q 563.8 89.0525 563.8 87.0525 
L 563.8 29.318125 
Q 563.8 27.318125 561.8 27.318125 
L 455 27.318125 
Q 453 27.318125 453 29.318125 
L 453 87.0525 
Q 453 89.0525 455 89.0525 
z
" style="fill: #ffffff; opacity: 0.8; stroke: #cccccc; stroke-linejoin: miter"/>
    </g>
    <g id="line2d_40">
     <path d="M 457 35.416562 
L 467 35.416562 
L 477 35.416562 
" style="fill: none; stroke: #1f77b4; stroke-linecap: square"/>
    </g>
    <g id="text_22">
     <!-- $X$ -->
     <g transform="translate(485 38.916562) scale(0.1 -0.1)">
      <defs>
       <path id="DejaVuSans-Oblique-58" d="M 878 4666 
L 1516 4666 
L 2316 2981 
L 3763 4666 
L 4500 4666 
L 2578 2438 
L 3738 0 
L 3103 0 
L 2163 1966 
L 459 0 
L -275 0 
L 1906 2509 
L 878 4666 
z
" transform="scale(0.015625)"/>
      </defs>
      <use xlink:href="#DejaVuSans-Oblique-58" transform="translate(0 0.09375)"/>
     </g>
    </g>
    <g id="line2d_41">
     <path d="M 457 50.094687 
L 467 50.094687 
L 477 50.094687 
" style="fill: none; stroke: #ff7f0e; stroke-linecap: square"/>
    </g>
    <g id="text_23">
     <!-- $Y$ -->
     <g transform="translate(485 53.594687) scale(0.1 -0.1)">
      <defs>
       <path id="DejaVuSans-Oblique-59" d="M 403 4666 
L 1081 4666 
L 1953 2747 
L 3616 4666 
L 4325 4666 
L 2209 2222 
L 1778 0 
L 1147 0 
L 1575 2222 
L 403 4666 
z
" transform="scale(0.015625)"/>
      </defs>
      <use xlink:href="#DejaVuSans-Oblique-59" transform="translate(0 0.09375)"/>
     </g>
    </g>
    <g id="line2d_42">
     <path d="M 457 64.772812 
L 467 64.772812 
L 477 64.772812 
" style="fill: none; stroke: #2ca02c; stroke-linecap: square"/>
    </g>
    <g id="text_24">
     <!-- $X - Y$ -->
     <g transform="translate(485 68.272812) scale(0.1 -0.1)">
      <use xlink:href="#DejaVuSans-Oblique-58" transform="translate(0 0.09375)"/>
      <use xlink:href="#DejaVuSans-2212" transform="translate(87.988281 0.09375)"/>
      <use xlink:href="#DejaVuSans-Oblique-59" transform="translate(191.259766 0.09375)"/>
     </g>
    </g>
    <g id="patch_9">
     <path d="M 457 82.9525 
L 477 82.9525 
L 477 75.9525 
L 457 75.9525 
L 457 82.9525 
z
" style="fill: none; stroke: #d62728; stroke-linejoin: miter"/>
    </g>
    <g id="text_25">
     <!-- $X - Y$ empirical -->
     <g transform="translate(485 82.9525) scale(0.1 -0.1)">
      <defs>
       <path id="DejaVuSans-70" d="M 1159 525 
L 1159 -1331 
L 581 -1331 
L 581 3500 
L 1159 3500 
L 1159 2969 
Q 1341 3281 1617 3432 
Q 1894 3584 2278 3584 
Q 2916 3584 3314 3078 
Q 3713 2572 3713 1747 
Q 3713 922 3314 415 
Q 2916 -91 2278 -91 
Q 1894 -91 1617 61 
Q 1341 213 1159 525 
z
M 3116 1747 
Q 3116 2381 2855 2742 
Q 2594 3103 2138 3103 
Q 1681 3103 1420 2742 
Q 1159 2381 1159 1747 
Q 1159 1113 1420 752 
Q 1681 391 2138 391 
Q 2594 391 2855 752 
Q 3116 1113 3116 1747 
z
" transform="scale(0.015625)"/>
      </defs>
      <use xlink:href="#DejaVuSans-Oblique-58" transform="translate(0 0.015625)"/>
      <use xlink:href="#DejaVuSans-2212" transform="translate(87.988281 0.015625)"/>
      <use xlink:href="#DejaVuSans-Oblique-59" transform="translate(191.259766 0.015625)"/>
      <use xlink:href="#DejaVuSans-20" transform="translate(252.34375 0.015625)"/>
      <use xlink:href="#DejaVuSans-65" transform="translate(284.130859 0.015625)"/>
      <use xlink:href="#DejaVuSans-6d" transform="translate(345.654297 0.015625)"/>
      <use xlink:href="#DejaVuSans-70" transform="translate(443.066406 0.015625)"/>
      <use xlink:href="#DejaVuSans-69" transform="translate(506.542969 0.015625)"/>
      <use xlink:href="#DejaVuSans-72" transform="translate(534.326172 0.015625)"/>
      <use xlink:href="#DejaVuSans-69" transform="translate(575.439453 0.015625)"/>
      <use xlink:href="#DejaVuSans-63" transform="translate(603.222656 0.015625)"/>
      <use xlink:href="#DejaVuSans-61" transform="translate(658.203125 0.015625)"/>
      <use xlink:href="#DejaVuSans-6c" transform="translate(719.482422 0.015625)"/>
     </g>
    </g>
   </g>
  </g>
 </g>
 <defs>
  <clipPath id="p9bbf6a19ae">
   <rect x="43.78125" y="22.318125" width="525.01875" height="228.125625"/>
  </clipPath>
 </defs>
</svg>
