<?xml version="1.0" encoding="utf-8" standalone="no"?>
<!DOCTYPE svg PUBLIC "-//W3C//DTD SVG 1.1//EN"
  "http://www.w3.org/Graphics/SVG/1.1/DTD/svg11.dtd">
<svg xmlns:xlink="http://www.w3.org/1999/xlink" width="576pt" height="288pt" viewBox="0 0 576 288" xmlns="http://www.w3.org/2000/svg" version="1.1">
 <metadata>
  <rdf:RDF xmlns:dc="http://purl.org/dc/elements/1.1/" xmlns:cc="http://creativecommons.org/ns#" xmlns:rdf="http://www.w3.org/1999/02/22-rdf-syntax-ns#">
   <cc:Work>
    <dc:type rdf:resource="http://purl.org/dc/dcmitype/StillImage"/>
    <dc:date>2025-05-12T21:34:20.180837</dc:date>
    <dc:format>image/svg+xml</dc:format>
    <dc:creator>
     <cc:Agent>
      <dc:title>Matplotlib v3.10.3, https://matplotlib.org/</dc:title>
     </cc:Agent>
    </dc:creator>
   </cc:Work>
  </rdf:RDF>
 </metadata>
 <defs>
  <style type="text/css">*{stroke-linejoin: round; stroke-linecap: butt}</style>
 </defs>
 <g id="figure_1">
  <g id="patch_1">
   <path d="M 0 288 
L 576 288 
L 576 0 
L 0 0 
z
" style="fill: #ffffff"/>
  </g>
  <g id="axes_1">
   <g id="patch_2">
    <path d="M 52.160938 250.421875 
L 568.8 250.421875 
L 568.8 7.2 
L 52.160938 7.2 
z
" style="fill: #ffffff"/>
   </g>
   <g id="matplotlib.axis_1">
    <g id="xtick_1">
     <g id="line2d_1">
      <path d="M 75.644531 250.421875 
L 75.644531 7.2 
" clip-path="url(#p9c94e90fe4)" style="fill: none; stroke-dasharray: 2.96,1.28; stroke-dashoffset: 0; stroke: #b0b0b0; stroke-opacity: 0.8; stroke-width: 0.8"/>
     </g>
     <g id="line2d_2">
      <defs>
       <path id="mfcb32448d5" d="M 0 0 
L 0 3.5 
" style="stroke: #000000; stroke-width: 0.8"/>
      </defs>
      <g>
       <use xlink:href="#mfcb32448d5" x="75.644531" y="250.421875" style="stroke: #000000; stroke-width: 0.8"/>
      </g>
     </g>
     <g id="text_1">
      <!-- 0 -->
      <g transform="translate(72.463281 265.020312) scale(0.1 -0.1)">
       <defs>
        <path id="DejaVuSans-30" d="M 2034 4250 
Q 1547 4250 1301 3770 
Q 1056 3291 1056 2328 
Q 1056 1369 1301 889 
Q 1547 409 2034 409 
Q 2525 409 2770 889 
Q 3016 1369 3016 2328 
Q 3016 3291 2770 3770 
Q 2525 4250 2034 4250 
z
M 2034 4750 
Q 2819 4750 3233 4129 
Q 3647 3509 3647 2328 
Q 3647 1150 3233 529 
Q 2819 -91 2034 -91 
Q 1250 -91 836 529 
Q 422 1150 422 2328 
Q 422 3509 836 4129 
Q 1250 4750 2034 4750 
z
" transform="scale(0.015625)"/>
       </defs>
       <use xlink:href="#DejaVuSans-30"/>
      </g>
     </g>
    </g>
    <g id="xtick_2">
     <g id="line2d_3">
      <path d="M 134.500656 250.421875 
L 134.500656 7.2 
" clip-path="url(#p9c94e90fe4)" style="fill: none; stroke-dasharray: 2.96,1.28; stroke-dashoffset: 0; stroke: #b0b0b0; stroke-opacity: 0.8; stroke-width: 0.8"/>
     </g>
     <g id="line2d_4">
      <g>
       <use xlink:href="#mfcb32448d5" x="134.500656" y="250.421875" style="stroke: #000000; stroke-width: 0.8"/>
      </g>
     </g>
     <g id="text_2">
      <!-- 50 -->
      <g transform="translate(128.138156 265.020312) scale(0.1 -0.1)">
       <defs>
        <path id="DejaVuSans-35" d="M 691 4666 
L 3169 4666 
L 3169 4134 
L 1269 4134 
L 1269 2991 
Q 1406 3038 1543 3061 
Q 1681 3084 1819 3084 
Q 2600 3084 3056 2656 
Q 3513 2228 3513 1497 
Q 3513 744 3044 326 
Q 2575 -91 1722 -91 
Q 1428 -91 1123 -41 
Q 819 9 494 109 
L 494 744 
Q 775 591 1075 516 
Q 1375 441 1709 441 
Q 2250 441 2565 725 
Q 2881 1009 2881 1497 
Q 2881 1984 2565 2268 
Q 2250 2553 1709 2553 
Q 1456 2553 1204 2497 
Q 953 2441 691 2322 
L 691 4666 
z
" transform="scale(0.015625)"/>
       </defs>
       <use xlink:href="#DejaVuSans-35"/>
       <use xlink:href="#DejaVuSans-30" transform="translate(63.623047 0)"/>
      </g>
     </g>
    </g>
    <g id="xtick_3">
     <g id="line2d_5">
      <path d="M 193.356781 250.421875 
L 193.356781 7.2 
" clip-path="url(#p9c94e90fe4)" style="fill: none; stroke-dasharray: 2.96,1.28; stroke-dashoffset: 0; stroke: #b0b0b0; stroke-opacity: 0.8; stroke-width: 0.8"/>
     </g>
     <g id="line2d_6">
      <g>
       <use xlink:href="#mfcb32448d5" x="193.356781" y="250.421875" style="stroke: #000000; stroke-width: 0.8"/>
      </g>
     </g>
     <g id="text_3">
      <!-- 100 -->
      <g transform="translate(183.813031 265.020312) scale(0.1 -0.1)">
       <defs>
        <path id="DejaVuSans-31" d="M 794 531 
L 1825 531 
L 1825 4091 
L 703 3866 
L 703 4441 
L 1819 4666 
L 2450 4666 
L 2450 531 
L 3481 531 
L 3481 0 
L 794 0 
L 794 531 
z
" transform="scale(0.015625)"/>
       </defs>
       <use xlink:href="#DejaVuSans-31"/>
       <use xlink:href="#DejaVuSans-30" transform="translate(63.623047 0)"/>
       <use xlink:href="#DejaVuSans-30" transform="translate(127.246094 0)"/>
      </g>
     </g>
    </g>
    <g id="xtick_4">
     <g id="line2d_7">
      <path d="M 252.212905 250.421875 
L 252.212905 7.2 
" clip-path="url(#p9c94e90fe4)" style="fill: none; stroke-dasharray: 2.96,1.28; stroke-dashoffset: 0; stroke: #b0b0b0; stroke-opacity: 0.8; stroke-width: 0.8"/>
     </g>
     <g id="line2d_8">
      <g>
       <use xlink:href="#mfcb32448d5" x="252.212905" y="250.421875" style="stroke: #000000; stroke-width: 0.8"/>
      </g>
     </g>
     <g id="text_4">
      <!-- 150 -->
      <g transform="translate(242.669155 265.020312) scale(0.1 -0.1)">
       <use xlink:href="#DejaVuSans-31"/>
       <use xlink:href="#DejaVuSans-35" transform="translate(63.623047 0)"/>
       <use xlink:href="#DejaVuSans-30" transform="translate(127.246094 0)"/>
      </g>
     </g>
    </g>
    <g id="xtick_5">
     <g id="line2d_9">
      <path d="M 311.06903 250.421875 
L 311.06903 7.2 
" clip-path="url(#p9c94e90fe4)" style="fill: none; stroke-dasharray: 2.96,1.28; stroke-dashoffset: 0; stroke: #b0b0b0; stroke-opacity: 0.8; stroke-width: 0.8"/>
     </g>
     <g id="line2d_10">
      <g>
       <use xlink:href="#mfcb32448d5" x="311.06903" y="250.421875" style="stroke: #000000; stroke-width: 0.8"/>
      </g>
     </g>
     <g id="text_5">
      <!-- 200 -->
      <g transform="translate(301.52528 265.020312) scale(0.1 -0.1)">
       <defs>
        <path id="DejaVuSans-32" d="M 1228 531 
L 3431 531 
L 3431 0 
L 469 0 
L 469 531 
Q 828 903 1448 1529 
Q 2069 2156 2228 2338 
Q 2531 2678 2651 2914 
Q 2772 3150 2772 3378 
Q 2772 3750 2511 3984 
Q 2250 4219 1831 4219 
Q 1534 4219 1204 4116 
Q 875 4013 500 3803 
L 500 4441 
Q 881 4594 1212 4672 
Q 1544 4750 1819 4750 
Q 2544 4750 2975 4387 
Q 3406 4025 3406 3419 
Q 3406 3131 3298 2873 
Q 3191 2616 2906 2266 
Q 2828 2175 2409 1742 
Q 1991 1309 1228 531 
z
" transform="scale(0.015625)"/>
       </defs>
       <use xlink:href="#DejaVuSans-32"/>
       <use xlink:href="#DejaVuSans-30" transform="translate(63.623047 0)"/>
       <use xlink:href="#DejaVuSans-30" transform="translate(127.246094 0)"/>
      </g>
     </g>
    </g>
    <g id="xtick_6">
     <g id="line2d_11">
      <path d="M 369.925155 250.421875 
L 369.925155 7.2 
" clip-path="url(#p9c94e90fe4)" style="fill: none; stroke-dasharray: 2.96,1.28; stroke-dashoffset: 0; stroke: #b0b0b0; stroke-opacity: 0.8; stroke-width: 0.8"/>
     </g>
     <g id="line2d_12">
      <g>
       <use xlink:href="#mfcb32448d5" x="369.925155" y="250.421875" style="stroke: #000000; stroke-width: 0.8"/>
      </g>
     </g>
     <g id="text_6">
      <!-- 250 -->
      <g transform="translate(360.381405 265.020312) scale(0.1 -0.1)">
       <use xlink:href="#DejaVuSans-32"/>
       <use xlink:href="#DejaVuSans-35" transform="translate(63.623047 0)"/>
       <use xlink:href="#DejaVuSans-30" transform="translate(127.246094 0)"/>
      </g>
     </g>
    </g>
    <g id="xtick_7">
     <g id="line2d_13">
      <path d="M 428.781279 250.421875 
L 428.781279 7.2 
" clip-path="url(#p9c94e90fe4)" style="fill: none; stroke-dasharray: 2.96,1.28; stroke-dashoffset: 0; stroke: #b0b0b0; stroke-opacity: 0.8; stroke-width: 0.8"/>
     </g>
     <g id="line2d_14">
      <g>
       <use xlink:href="#mfcb32448d5" x="428.781279" y="250.421875" style="stroke: #000000; stroke-width: 0.8"/>
      </g>
     </g>
     <g id="text_7">
      <!-- 300 -->
      <g transform="translate(419.237529 265.020312) scale(0.1 -0.1)">
       <defs>
        <path id="DejaVuSans-33" d="M 2597 2516 
Q 3050 2419 3304 2112 
Q 3559 1806 3559 1356 
Q 3559 666 3084 287 
Q 2609 -91 1734 -91 
Q 1441 -91 1130 -33 
Q 819 25 488 141 
L 488 750 
Q 750 597 1062 519 
Q 1375 441 1716 441 
Q 2309 441 2620 675 
Q 2931 909 2931 1356 
Q 2931 1769 2642 2001 
Q 2353 2234 1838 2234 
L 1294 2234 
L 1294 2753 
L 1863 2753 
Q 2328 2753 2575 2939 
Q 2822 3125 2822 3475 
Q 2822 3834 2567 4026 
Q 2313 4219 1838 4219 
Q 1578 4219 1281 4162 
Q 984 4106 628 3988 
L 628 4550 
Q 988 4650 1302 4700 
Q 1616 4750 1894 4750 
Q 2613 4750 3031 4423 
Q 3450 4097 3450 3541 
Q 3450 3153 3228 2886 
Q 3006 2619 2597 2516 
z
" transform="scale(0.015625)"/>
       </defs>
       <use xlink:href="#DejaVuSans-33"/>
       <use xlink:href="#DejaVuSans-30" transform="translate(63.623047 0)"/>
       <use xlink:href="#DejaVuSans-30" transform="translate(127.246094 0)"/>
      </g>
     </g>
    </g>
    <g id="xtick_8">
     <g id="line2d_15">
      <path d="M 487.637404 250.421875 
L 487.637404 7.2 
" clip-path="url(#p9c94e90fe4)" style="fill: none; stroke-dasharray: 2.96,1.28; stroke-dashoffset: 0; stroke: #b0b0b0; stroke-opacity: 0.8; stroke-width: 0.8"/>
     </g>
     <g id="line2d_16">
      <g>
       <use xlink:href="#mfcb32448d5" x="487.637404" y="250.421875" style="stroke: #000000; stroke-width: 0.8"/>
      </g>
     </g>
     <g id="text_8">
      <!-- 350 -->
      <g transform="translate(478.093654 265.020312) scale(0.1 -0.1)">
       <use xlink:href="#DejaVuSans-33"/>
       <use xlink:href="#DejaVuSans-35" transform="translate(63.623047 0)"/>
       <use xlink:href="#DejaVuSans-30" transform="translate(127.246094 0)"/>
      </g>
     </g>
    </g>
    <g id="xtick_9">
     <g id="line2d_17">
      <path d="M 546.493529 250.421875 
L 546.493529 7.2 
" clip-path="url(#p9c94e90fe4)" style="fill: none; stroke-dasharray: 2.96,1.28; stroke-dashoffset: 0; stroke: #b0b0b0; stroke-opacity: 0.8; stroke-width: 0.8"/>
     </g>
     <g id="line2d_18">
      <g>
       <use xlink:href="#mfcb32448d5" x="546.493529" y="250.421875" style="stroke: #000000; stroke-width: 0.8"/>
      </g>
     </g>
     <g id="text_9">
      <!-- 400 -->
      <g transform="translate(536.949779 265.020312) scale(0.1 -0.1)">
       <defs>
        <path id="DejaVuSans-34" d="M 2419 4116 
L 825 1625 
L 2419 1625 
L 2419 4116 
z
M 2253 4666 
L 3047 4666 
L 3047 1625 
L 3713 1625 
L 3713 1100 
L 3047 1100 
L 3047 0 
L 2419 0 
L 2419 1100 
L 313 1100 
L 313 1709 
L 2253 4666 
z
" transform="scale(0.015625)"/>
       </defs>
       <use xlink:href="#DejaVuSans-34"/>
       <use xlink:href="#DejaVuSans-30" transform="translate(63.623047 0)"/>
       <use xlink:href="#DejaVuSans-30" transform="translate(127.246094 0)"/>
      </g>
     </g>
    </g>
    <g id="text_10">
     <!-- Sample, $n$ -->
     <g transform="translate(285.380469 278.7) scale(0.1 -0.1)">
      <defs>
       <path id="DejaVuSans-53" d="M 3425 4513 
L 3425 3897 
Q 3066 4069 2747 4153 
Q 2428 4238 2131 4238 
Q 1616 4238 1336 4038 
Q 1056 3838 1056 3469 
Q 1056 3159 1242 3001 
Q 1428 2844 1947 2747 
L 2328 2669 
Q 3034 2534 3370 2195 
Q 3706 1856 3706 1288 
Q 3706 609 3251 259 
Q 2797 -91 1919 -91 
Q 1588 -91 1214 -16 
Q 841 59 441 206 
L 441 856 
Q 825 641 1194 531 
Q 1563 422 1919 422 
Q 2459 422 2753 634 
Q 3047 847 3047 1241 
Q 3047 1584 2836 1778 
Q 2625 1972 2144 2069 
L 1759 2144 
Q 1053 2284 737 2584 
Q 422 2884 422 3419 
Q 422 4038 858 4394 
Q 1294 4750 2059 4750 
Q 2388 4750 2728 4690 
Q 3069 4631 3425 4513 
z
" transform="scale(0.015625)"/>
       <path id="DejaVuSans-61" d="M 2194 1759 
Q 1497 1759 1228 1600 
Q 959 1441 959 1056 
Q 959 750 1161 570 
Q 1363 391 1709 391 
Q 2188 391 2477 730 
Q 2766 1069 2766 1631 
L 2766 1759 
L 2194 1759 
z
M 3341 1997 
L 3341 0 
L 2766 0 
L 2766 531 
Q 2569 213 2275 61 
Q 1981 -91 1556 -91 
Q 1019 -91 701 211 
Q 384 513 384 1019 
Q 384 1609 779 1909 
Q 1175 2209 1959 2209 
L 2766 2209 
L 2766 2266 
Q 2766 2663 2505 2880 
Q 2244 3097 1772 3097 
Q 1472 3097 1187 3025 
Q 903 2953 641 2809 
L 641 3341 
Q 956 3463 1253 3523 
Q 1550 3584 1831 3584 
Q 2591 3584 2966 3190 
Q 3341 2797 3341 1997 
z
" transform="scale(0.015625)"/>
       <path id="DejaVuSans-6d" d="M 3328 2828 
Q 3544 3216 3844 3400 
Q 4144 3584 4550 3584 
Q 5097 3584 5394 3201 
Q 5691 2819 5691 2113 
L 5691 0 
L 5113 0 
L 5113 2094 
Q 5113 2597 4934 2840 
Q 4756 3084 4391 3084 
Q 3944 3084 3684 2787 
Q 3425 2491 3425 1978 
L 3425 0 
L 2847 0 
L 2847 2094 
Q 2847 2600 2669 2842 
Q 2491 3084 2119 3084 
Q 1678 3084 1418 2786 
Q 1159 2488 1159 1978 
L 1159 0 
L 581 0 
L 581 3500 
L 1159 3500 
L 1159 2956 
Q 1356 3278 1631 3431 
Q 1906 3584 2284 3584 
Q 2666 3584 2933 3390 
Q 3200 3197 3328 2828 
z
" transform="scale(0.015625)"/>
       <path id="DejaVuSans-70" d="M 1159 525 
L 1159 -1331 
L 581 -1331 
L 581 3500 
L 1159 3500 
L 1159 2969 
Q 1341 3281 1617 3432 
Q 1894 3584 2278 3584 
Q 2916 3584 3314 3078 
Q 3713 2572 3713 1747 
Q 3713 922 3314 415 
Q 2916 -91 2278 -91 
Q 1894 -91 1617 61 
Q 1341 213 1159 525 
z
M 3116 1747 
Q 3116 2381 2855 2742 
Q 2594 3103 2138 3103 
Q 1681 3103 1420 2742 
Q 1159 2381 1159 1747 
Q 1159 1113 1420 752 
Q 1681 391 2138 391 
Q 2594 391 2855 752 
Q 3116 1113 3116 1747 
z
" transform="scale(0.015625)"/>
       <path id="DejaVuSans-6c" d="M 603 4863 
L 1178 4863 
L 1178 0 
L 603 0 
L 603 4863 
z
" transform="scale(0.015625)"/>
       <path id="DejaVuSans-65" d="M 3597 1894 
L 3597 1613 
L 953 1613 
Q 991 1019 1311 708 
Q 1631 397 2203 397 
Q 2534 397 2845 478 
Q 3156 559 3463 722 
L 3463 178 
Q 3153 47 2828 -22 
Q 2503 -91 2169 -91 
Q 1331 -91 842 396 
Q 353 884 353 1716 
Q 353 2575 817 3079 
Q 1281 3584 2069 3584 
Q 2775 3584 3186 3129 
Q 3597 2675 3597 1894 
z
M 3022 2063 
Q 3016 2534 2758 2815 
Q 2500 3097 2075 3097 
Q 1594 3097 1305 2825 
Q 1016 2553 972 2059 
L 3022 2063 
z
" transform="scale(0.015625)"/>
       <path id="DejaVuSans-2c" d="M 750 794 
L 1409 794 
L 1409 256 
L 897 -744 
L 494 -744 
L 750 256 
L 750 794 
z
" transform="scale(0.015625)"/>
       <path id="DejaVuSans-20" transform="scale(0.015625)"/>
       <path id="DejaVuSans-Oblique-6e" d="M 3566 2113 
L 3156 0 
L 2578 0 
L 2988 2091 
Q 3016 2238 3031 2350 
Q 3047 2463 3047 2528 
Q 3047 2791 2881 2937 
Q 2716 3084 2419 3084 
Q 1956 3084 1622 2776 
Q 1288 2469 1184 1941 
L 800 0 
L 225 0 
L 903 3500 
L 1478 3500 
L 1363 2950 
Q 1603 3253 1940 3418 
Q 2278 3584 2650 3584 
Q 3113 3584 3367 3334 
Q 3622 3084 3622 2631 
Q 3622 2519 3608 2391 
Q 3594 2263 3566 2113 
z
" transform="scale(0.015625)"/>
      </defs>
      <use xlink:href="#DejaVuSans-53" transform="translate(0 0.015625)"/>
      <use xlink:href="#DejaVuSans-61" transform="translate(63.476562 0.015625)"/>
      <use xlink:href="#DejaVuSans-6d" transform="translate(124.755859 0.015625)"/>
      <use xlink:href="#DejaVuSans-70" transform="translate(222.167969 0.015625)"/>
      <use xlink:href="#DejaVuSans-6c" transform="translate(285.644531 0.015625)"/>
      <use xlink:href="#DejaVuSans-65" transform="translate(313.427734 0.015625)"/>
      <use xlink:href="#DejaVuSans-2c" transform="translate(374.951172 0.015625)"/>
      <use xlink:href="#DejaVuSans-20" transform="translate(406.738281 0.015625)"/>
      <use xlink:href="#DejaVuSans-Oblique-6e" transform="translate(438.525391 0.015625)"/>
     </g>
    </g>
   </g>
   <g id="matplotlib.axis_2">
    <g id="ytick_1">
     <g id="line2d_19">
      <path d="M 52.160938 222.620303 
L 568.8 222.620303 
" clip-path="url(#p9c94e90fe4)" style="fill: none; stroke-dasharray: 2.96,1.28; stroke-dashoffset: 0; stroke: #b0b0b0; stroke-opacity: 0.8; stroke-width: 0.8"/>
     </g>
     <g id="line2d_20">
      <defs>
       <path id="m2799b8d98d" d="M 0 0 
L -3.5 0 
" style="stroke: #000000; stroke-width: 0.8"/>
      </defs>
      <g>
       <use xlink:href="#m2799b8d98d" x="52.160938" y="222.620303" style="stroke: #000000; stroke-width: 0.8"/>
      </g>
     </g>
     <g id="text_11">
      <!-- −0.3 -->
      <g transform="translate(20.878125 226.419522) scale(0.1 -0.1)">
       <defs>
        <path id="DejaVuSans-2212" d="M 678 2272 
L 4684 2272 
L 4684 1741 
L 678 1741 
L 678 2272 
z
" transform="scale(0.015625)"/>
        <path id="DejaVuSans-2e" d="M 684 794 
L 1344 794 
L 1344 0 
L 684 0 
L 684 794 
z
" transform="scale(0.015625)"/>
       </defs>
       <use xlink:href="#DejaVuSans-2212"/>
       <use xlink:href="#DejaVuSans-30" transform="translate(83.789062 0)"/>
       <use xlink:href="#DejaVuSans-2e" transform="translate(147.412109 0)"/>
       <use xlink:href="#DejaVuSans-33" transform="translate(179.199219 0)"/>
      </g>
     </g>
    </g>
    <g id="ytick_2">
     <g id="line2d_21">
      <path d="M 52.160938 191.350515 
L 568.8 191.350515 
" clip-path="url(#p9c94e90fe4)" style="fill: none; stroke-dasharray: 2.96,1.28; stroke-dashoffset: 0; stroke: #b0b0b0; stroke-opacity: 0.8; stroke-width: 0.8"/>
     </g>
     <g id="line2d_22">
      <g>
       <use xlink:href="#m2799b8d98d" x="52.160938" y="191.350515" style="stroke: #000000; stroke-width: 0.8"/>
      </g>
     </g>
     <g id="text_12">
      <!-- −0.2 -->
      <g transform="translate(20.878125 195.149733) scale(0.1 -0.1)">
       <use xlink:href="#DejaVuSans-2212"/>
       <use xlink:href="#DejaVuSans-30" transform="translate(83.789062 0)"/>
       <use xlink:href="#DejaVuSans-2e" transform="translate(147.412109 0)"/>
       <use xlink:href="#DejaVuSans-32" transform="translate(179.199219 0)"/>
      </g>
     </g>
    </g>
    <g id="ytick_3">
     <g id="line2d_23">
      <path d="M 52.160938 160.080726 
L 568.8 160.080726 
" clip-path="url(#p9c94e90fe4)" style="fill: none; stroke-dasharray: 2.96,1.28; stroke-dashoffset: 0; stroke: #b0b0b0; stroke-opacity: 0.8; stroke-width: 0.8"/>
     </g>
     <g id="line2d_24">
      <g>
       <use xlink:href="#m2799b8d98d" x="52.160938" y="160.080726" style="stroke: #000000; stroke-width: 0.8"/>
      </g>
     </g>
     <g id="text_13">
      <!-- −0.1 -->
      <g transform="translate(20.878125 163.879945) scale(0.1 -0.1)">
       <use xlink:href="#DejaVuSans-2212"/>
       <use xlink:href="#DejaVuSans-30" transform="translate(83.789062 0)"/>
       <use xlink:href="#DejaVuSans-2e" transform="translate(147.412109 0)"/>
       <use xlink:href="#DejaVuSans-31" transform="translate(179.199219 0)"/>
      </g>
     </g>
    </g>
    <g id="ytick_4">
     <g id="line2d_25">
      <path d="M 52.160938 128.810937 
L 568.8 128.810937 
" clip-path="url(#p9c94e90fe4)" style="fill: none; stroke-dasharray: 2.96,1.28; stroke-dashoffset: 0; stroke: #b0b0b0; stroke-opacity: 0.8; stroke-width: 0.8"/>
     </g>
     <g id="line2d_26">
      <g>
       <use xlink:href="#m2799b8d98d" x="52.160938" y="128.810937" style="stroke: #000000; stroke-width: 0.8"/>
      </g>
     </g>
     <g id="text_14">
      <!-- 0.0 -->
      <g transform="translate(29.257812 132.610156) scale(0.1 -0.1)">
       <use xlink:href="#DejaVuSans-30"/>
       <use xlink:href="#DejaVuSans-2e" transform="translate(63.623047 0)"/>
       <use xlink:href="#DejaVuSans-30" transform="translate(95.410156 0)"/>
      </g>
     </g>
    </g>
    <g id="ytick_5">
     <g id="line2d_27">
      <path d="M 52.160938 97.541149 
L 568.8 97.541149 
" clip-path="url(#p9c94e90fe4)" style="fill: none; stroke-dasharray: 2.96,1.28; stroke-dashoffset: 0; stroke: #b0b0b0; stroke-opacity: 0.8; stroke-width: 0.8"/>
     </g>
     <g id="line2d_28">
      <g>
       <use xlink:href="#m2799b8d98d" x="52.160938" y="97.541149" style="stroke: #000000; stroke-width: 0.8"/>
      </g>
     </g>
     <g id="text_15">
      <!-- 0.1 -->
      <g transform="translate(29.257812 101.340368) scale(0.1 -0.1)">
       <use xlink:href="#DejaVuSans-30"/>
       <use xlink:href="#DejaVuSans-2e" transform="translate(63.623047 0)"/>
       <use xlink:href="#DejaVuSans-31" transform="translate(95.410156 0)"/>
      </g>
     </g>
    </g>
    <g id="ytick_6">
     <g id="line2d_29">
      <path d="M 52.160938 66.27136 
L 568.8 66.27136 
" clip-path="url(#p9c94e90fe4)" style="fill: none; stroke-dasharray: 2.96,1.28; stroke-dashoffset: 0; stroke: #b0b0b0; stroke-opacity: 0.8; stroke-width: 0.8"/>
     </g>
     <g id="line2d_30">
      <g>
       <use xlink:href="#m2799b8d98d" x="52.160938" y="66.27136" style="stroke: #000000; stroke-width: 0.8"/>
      </g>
     </g>
     <g id="text_16">
      <!-- 0.2 -->
      <g transform="translate(29.257812 70.070579) scale(0.1 -0.1)">
       <use xlink:href="#DejaVuSans-30"/>
       <use xlink:href="#DejaVuSans-2e" transform="translate(63.623047 0)"/>
       <use xlink:href="#DejaVuSans-32" transform="translate(95.410156 0)"/>
      </g>
     </g>
    </g>
    <g id="ytick_7">
     <g id="line2d_31">
      <path d="M 52.160938 35.001572 
L 568.8 35.001572 
" clip-path="url(#p9c94e90fe4)" style="fill: none; stroke-dasharray: 2.96,1.28; stroke-dashoffset: 0; stroke: #b0b0b0; stroke-opacity: 0.8; stroke-width: 0.8"/>
     </g>
     <g id="line2d_32">
      <g>
       <use xlink:href="#m2799b8d98d" x="52.160938" y="35.001572" style="stroke: #000000; stroke-width: 0.8"/>
      </g>
     </g>
     <g id="text_17">
      <!-- 0.3 -->
      <g transform="translate(29.257812 38.800791) scale(0.1 -0.1)">
       <use xlink:href="#DejaVuSans-30"/>
       <use xlink:href="#DejaVuSans-2e" transform="translate(63.623047 0)"/>
       <use xlink:href="#DejaVuSans-33" transform="translate(95.410156 0)"/>
      </g>
     </g>
    </g>
    <g id="text_18">
     <!-- Amplitude -->
     <g transform="translate(14.798437 154.433594) rotate(-90) scale(0.1 -0.1)">
      <defs>
       <path id="DejaVuSans-41" d="M 2188 4044 
L 1331 1722 
L 3047 1722 
L 2188 4044 
z
M 1831 4666 
L 2547 4666 
L 4325 0 
L 3669 0 
L 3244 1197 
L 1141 1197 
L 716 0 
L 50 0 
L 1831 4666 
z
" transform="scale(0.015625)"/>
       <path id="DejaVuSans-69" d="M 603 3500 
L 1178 3500 
L 1178 0 
L 603 0 
L 603 3500 
z
M 603 4863 
L 1178 4863 
L 1178 4134 
L 603 4134 
L 603 4863 
z
" transform="scale(0.015625)"/>
       <path id="DejaVuSans-74" d="M 1172 4494 
L 1172 3500 
L 2356 3500 
L 2356 3053 
L 1172 3053 
L 1172 1153 
Q 1172 725 1289 603 
Q 1406 481 1766 481 
L 2356 481 
L 2356 0 
L 1766 0 
Q 1100 0 847 248 
Q 594 497 594 1153 
L 594 3053 
L 172 3053 
L 172 3500 
L 594 3500 
L 594 4494 
L 1172 4494 
z
" transform="scale(0.015625)"/>
       <path id="DejaVuSans-75" d="M 544 1381 
L 544 3500 
L 1119 3500 
L 1119 1403 
Q 1119 906 1312 657 
Q 1506 409 1894 409 
Q 2359 409 2629 706 
Q 2900 1003 2900 1516 
L 2900 3500 
L 3475 3500 
L 3475 0 
L 2900 0 
L 2900 538 
Q 2691 219 2414 64 
Q 2138 -91 1772 -91 
Q 1169 -91 856 284 
Q 544 659 544 1381 
z
M 1991 3584 
L 1991 3584 
z
" transform="scale(0.015625)"/>
       <path id="DejaVuSans-64" d="M 2906 2969 
L 2906 4863 
L 3481 4863 
L 3481 0 
L 2906 0 
L 2906 525 
Q 2725 213 2448 61 
Q 2172 -91 1784 -91 
Q 1150 -91 751 415 
Q 353 922 353 1747 
Q 353 2572 751 3078 
Q 1150 3584 1784 3584 
Q 2172 3584 2448 3432 
Q 2725 3281 2906 2969 
z
M 947 1747 
Q 947 1113 1208 752 
Q 1469 391 1925 391 
Q 2381 391 2643 752 
Q 2906 1113 2906 1747 
Q 2906 2381 2643 2742 
Q 2381 3103 1925 3103 
Q 1469 3103 1208 2742 
Q 947 2381 947 1747 
z
" transform="scale(0.015625)"/>
      </defs>
      <use xlink:href="#DejaVuSans-41"/>
      <use xlink:href="#DejaVuSans-6d" transform="translate(68.408203 0)"/>
      <use xlink:href="#DejaVuSans-70" transform="translate(165.820312 0)"/>
      <use xlink:href="#DejaVuSans-6c" transform="translate(229.296875 0)"/>
      <use xlink:href="#DejaVuSans-69" transform="translate(257.080078 0)"/>
      <use xlink:href="#DejaVuSans-74" transform="translate(284.863281 0)"/>
      <use xlink:href="#DejaVuSans-75" transform="translate(324.072266 0)"/>
      <use xlink:href="#DejaVuSans-64" transform="translate(387.451172 0)"/>
      <use xlink:href="#DejaVuSans-65" transform="translate(450.927734 0)"/>
     </g>
    </g>
   </g>
   <g id="line2d_33">
    <path d="M 75.644531 128.810937 
L 76.821654 171.118657 
L 77.998776 206.985409 
L 79.175899 230.950807 
L 80.353021 239.366335 
L 81.530144 230.950807 
L 82.707266 206.985409 
L 83.884389 171.118657 
L 86.238634 86.503218 
L 87.415756 50.636466 
L 88.592879 26.671068 
L 89.770001 18.25554 
L 90.947124 26.671068 
L 92.124246 50.636466 
L 93.301369 86.503218 
L 95.655614 171.118657 
L 96.832736 206.985409 
L 98.009859 230.950807 
L 99.186981 239.366335 
L 100.364104 230.950807 
L 101.541226 206.985409 
L 102.718349 171.118657 
L 103.895471 128.810937 
L 105.072594 171.118657 
L 106.249716 206.985409 
L 107.426839 230.950807 
L 108.603961 239.366335 
L 109.781084 230.950807 
L 110.958206 206.985409 
L 112.135329 171.118657 
L 113.312451 128.810937 
L 114.489574 171.118657 
L 115.666696 206.985409 
L 116.843819 230.950807 
L 118.020941 239.366335 
L 119.198064 230.950807 
L 120.375186 206.985409 
L 121.552309 171.118657 
L 123.906553 86.503218 
L 125.083676 50.636466 
L 126.260798 26.671068 
L 127.437921 18.25554 
L 128.615043 26.671068 
L 129.792166 50.636466 
L 130.969288 86.503218 
L 133.323533 171.118657 
L 134.500656 206.985409 
L 135.677778 230.950807 
L 136.854901 239.366335 
L 138.032023 230.950807 
L 139.209146 206.985409 
L 140.386268 171.118657 
L 142.740513 86.503218 
L 143.917636 50.636466 
L 145.094758 26.671068 
L 146.271881 18.25554 
L 147.449003 26.671068 
L 148.626126 50.636466 
L 149.803248 86.503218 
L 150.980371 128.810937 
L 152.157493 86.503218 
L 153.334616 50.636466 
L 154.511738 26.671068 
L 155.688861 18.25554 
L 156.865983 26.671068 
L 158.043106 50.636466 
L 159.220228 86.503218 
L 161.574473 171.118657 
L 162.751596 206.985409 
L 163.928718 230.950807 
L 165.105841 239.366335 
L 166.282963 230.950807 
L 167.460086 206.985409 
L 168.637208 171.118657 
L 169.814331 128.810937 
L 170.991453 171.118657 
L 172.168576 206.985409 
L 173.345698 230.950807 
L 174.522821 239.366335 
L 175.699943 230.950807 
L 176.877066 206.985409 
L 178.054188 171.118657 
L 180.408433 86.503218 
L 181.585556 50.636466 
L 182.762678 26.671068 
L 183.939801 18.25554 
L 185.116923 26.671068 
L 186.294046 50.636466 
L 187.471168 86.503218 
L 189.825413 171.118657 
L 191.002536 206.985409 
L 192.179658 230.950807 
L 193.356781 239.366335 
L 194.533903 230.950807 
L 195.711026 206.985409 
L 196.888148 171.118657 
L 198.065271 128.810937 
L 199.242393 171.118657 
L 200.419516 206.985409 
L 201.596638 230.950807 
L 202.773761 239.366335 
L 203.950883 230.950807 
L 205.128006 206.985409 
L 206.305128 171.118657 
L 208.659373 86.503218 
L 209.836496 50.636466 
L 211.013618 26.671068 
L 212.190741 18.25554 
L 213.367863 26.671068 
L 214.544986 50.636466 
L 215.722108 86.503218 
L 216.89923 128.810937 
L 218.076353 86.503218 
L 219.253475 50.636466 
L 220.430598 26.671068 
L 221.60772 18.25554 
L 222.784843 26.671068 
L 223.961965 50.636466 
L 225.139088 86.503218 
L 226.31621 128.810937 
L 227.493333 86.503218 
L 228.670455 50.636466 
L 229.847578 26.671068 
L 231.0247 18.25554 
L 232.201823 26.671068 
L 233.378945 50.636466 
L 234.556068 86.503218 
L 236.910313 171.118657 
L 238.087435 206.985409 
L 239.264558 230.950807 
L 240.44168 239.366335 
L 241.618803 230.950807 
L 242.795925 206.985409 
L 243.973048 171.118657 
L 245.15017 128.810937 
L 246.327293 171.118657 
L 247.504415 206.985409 
L 248.681538 230.950807 
L 249.85866 239.366335 
L 251.035783 230.950807 
L 252.212905 206.985409 
L 253.390028 171.118657 
L 255.744273 86.503218 
L 256.921395 50.636466 
L 258.098518 26.671068 
L 259.27564 18.25554 
L 260.452763 26.671068 
L 261.629885 50.636466 
L 262.807008 86.503218 
L 265.161253 171.118657 
L 266.338375 206.985409 
L 267.515498 230.950807 
L 268.69262 239.366335 
L 269.869743 230.950807 
L 271.046865 206.985409 
L 272.223988 171.118657 
L 273.40111 128.810937 
L 274.578233 171.118657 
L 275.755355 206.985409 
L 276.932478 230.950807 
L 278.1096 239.366335 
L 279.286723 230.950807 
L 280.463845 206.985409 
L 281.640968 171.118657 
L 282.81809 128.810937 
L 283.995213 171.118657 
L 285.172335 206.985409 
L 286.349458 230.950807 
L 287.52658 239.366335 
L 288.703703 230.950807 
L 289.880825 206.985409 
L 291.057948 171.118657 
L 292.23507 128.810937 
L 293.412193 171.118657 
L 294.589315 206.985409 
L 295.766438 230.950807 
L 296.94356 239.366335 
L 298.120683 230.950807 
L 299.297805 206.985409 
L 300.474928 171.118657 
L 301.65205 128.810937 
L 302.829173 171.118657 
L 304.006295 206.985409 
L 305.183418 230.950807 
L 306.36054 239.366335 
L 307.537663 230.950807 
L 308.714785 206.985409 
L 309.891908 171.118657 
L 311.06903 128.810937 
L 312.246152 171.118657 
L 313.423275 206.985409 
L 314.600397 230.950807 
L 315.77752 239.366335 
L 316.954642 230.950807 
L 318.131765 206.985409 
L 319.308887 171.118657 
L 320.48601 128.810937 
L 321.663132 171.118657 
L 322.840255 206.985409 
L 324.017377 230.950807 
L 325.1945 239.366335 
L 326.371622 230.950807 
L 327.548745 206.985409 
L 328.725867 171.118657 
L 331.080112 86.503218 
L 332.257235 50.636466 
L 333.434357 26.671068 
L 334.61148 18.25554 
L 335.788602 26.671068 
L 336.965725 50.636466 
L 338.142847 86.503218 
L 339.31997 128.810937 
L 340.497092 86.503218 
L 341.674215 50.636466 
L 342.851337 26.671068 
L 344.02846 18.25554 
L 345.205582 26.671068 
L 346.382705 50.636466 
L 347.559827 86.503218 
L 349.914072 171.118657 
L 351.091195 206.985409 
L 352.268317 230.950807 
L 353.44544 239.366335 
L 354.622562 230.950807 
L 355.799685 206.985409 
L 356.976807 171.118657 
L 359.331052 86.503218 
L 360.508175 50.636466 
L 361.685297 26.671068 
L 362.86242 18.25554 
L 364.039542 26.671068 
L 365.216665 50.636466 
L 366.393787 86.503218 
L 367.57091 128.810937 
L 368.748032 86.503218 
L 369.925155 50.636466 
L 371.102277 26.671068 
L 372.2794 18.25554 
L 373.456522 26.671068 
L 374.633645 50.636466 
L 375.810767 86.503218 
L 376.98789 128.810937 
L 378.165012 86.503218 
L 379.342135 50.636466 
L 380.519257 26.671068 
L 381.69638 18.25554 
L 382.873502 26.671068 
L 384.050625 50.636466 
L 385.227747 86.503218 
L 386.40487 128.810937 
L 387.581992 86.503218 
L 388.759115 50.636466 
L 389.936237 26.671068 
L 391.11336 18.25554 
L 392.290482 26.671068 
L 393.467605 50.636466 
L 394.644727 86.503218 
L 395.82185 128.810937 
L 396.998972 86.503218 
L 398.176095 50.636466 
L 399.353217 26.671068 
L 400.53034 18.25554 
L 401.707462 26.671068 
L 402.884585 50.636466 
L 404.061707 86.503218 
L 406.415952 171.118657 
L 407.593074 206.985409 
L 408.770197 230.950807 
L 409.947319 239.366335 
L 411.124442 230.950807 
L 412.301564 206.985409 
L 413.478687 171.118657 
L 415.832932 86.503218 
L 417.010054 50.636466 
L 418.187177 26.671068 
L 419.364299 18.25554 
L 420.541422 26.671068 
L 421.718544 50.636466 
L 422.895667 86.503218 
L 425.249912 171.118657 
L 426.427034 206.985409 
L 427.604157 230.950807 
L 428.781279 239.366335 
L 429.958402 230.950807 
L 431.135524 206.985409 
L 432.312647 171.118657 
L 434.666892 86.503218 
L 435.844014 50.636466 
L 437.021137 26.671068 
L 438.198259 18.25554 
L 439.375382 26.671068 
L 440.552504 50.636466 
L 441.729627 86.503218 
L 442.906749 128.810937 
L 444.083872 86.503218 
L 445.260994 50.636466 
L 446.438117 26.671068 
L 447.615239 18.25554 
L 448.792362 26.671068 
L 449.969484 50.636466 
L 451.146607 86.503218 
L 453.500852 171.118657 
L 454.677974 206.985409 
L 455.855097 230.950807 
L 457.032219 239.366335 
L 458.209342 230.950807 
L 459.386464 206.985409 
L 460.563587 171.118657 
L 461.740709 128.810937 
L 462.917832 171.118657 
L 464.094954 206.985409 
L 465.272077 230.950807 
L 466.449199 239.366335 
L 467.626322 230.950807 
L 468.803444 206.985409 
L 469.980567 171.118657 
L 471.157689 128.810937 
L 472.334812 171.118657 
L 473.511934 206.985409 
L 474.689057 230.950807 
L 475.866179 239.366335 
L 477.043302 230.950807 
L 478.220424 206.985409 
L 479.397547 171.118657 
L 480.574669 128.810937 
L 481.751792 171.118657 
L 482.928914 206.985409 
L 484.106037 230.950807 
L 485.283159 239.366335 
L 486.460282 230.950807 
L 487.637404 206.985409 
L 488.814527 171.118657 
L 491.168772 86.503218 
L 492.345894 50.636466 
L 493.523017 26.671068 
L 494.700139 18.25554 
L 495.877262 26.671068 
L 497.054384 50.636466 
L 498.231507 86.503218 
L 500.585751 171.118657 
L 501.762874 206.985409 
L 502.939996 230.950807 
L 504.117119 239.366335 
L 505.294241 230.950807 
L 506.471364 206.985409 
L 507.648486 171.118657 
L 510.002731 86.503218 
L 511.179854 50.636466 
L 512.356976 26.671068 
L 513.534099 18.25554 
L 514.711221 26.671068 
L 515.888344 50.636466 
L 517.065466 86.503218 
L 518.242589 128.810937 
L 519.419711 86.503218 
L 520.596834 50.636466 
L 521.773956 26.671068 
L 522.951079 18.25554 
L 524.128201 26.671068 
L 525.305324 50.636466 
L 526.482446 86.503218 
L 528.836691 171.118657 
L 530.013814 206.985409 
L 531.190936 230.950807 
L 532.368059 239.366335 
L 533.545181 230.950807 
L 534.722304 206.985409 
L 535.899426 171.118657 
L 538.253671 86.503218 
L 539.430794 50.636466 
L 540.607916 26.671068 
L 541.785039 18.25554 
L 542.962161 26.671068 
L 544.139284 50.636466 
L 545.316406 86.503218 
L 545.316406 86.503218 
" clip-path="url(#p9c94e90fe4)" style="fill: none; stroke: #1f77b4; stroke-linecap: square"/>
   </g>
   <g id="line2d_34">
    <path d="M 75.644531 128.810937 
L 80.353021 128.810937 
L 81.530144 86.503218 
L 82.707266 50.636466 
L 83.884389 26.671068 
L 85.061511 18.25554 
L 86.238634 26.671068 
L 87.415756 50.636466 
L 88.592879 86.503218 
L 90.947124 171.118657 
L 92.124246 206.985409 
L 93.301369 230.950807 
L 94.478491 239.366335 
L 95.655614 230.950807 
L 96.832736 206.985409 
L 98.009859 171.118657 
L 99.186981 128.810937 
L 100.364104 171.118657 
L 101.541226 206.985409 
L 102.718349 230.950807 
L 103.895471 239.366335 
L 105.072594 230.950807 
L 106.249716 206.985409 
L 107.426839 171.118657 
L 108.603961 128.810937 
L 109.781084 171.118657 
L 110.958206 206.985409 
L 112.135329 230.950807 
L 113.312451 239.366335 
L 114.489574 230.950807 
L 115.666696 206.985409 
L 116.843819 171.118657 
L 118.020941 128.810937 
L 119.198064 171.118657 
L 120.375186 206.985409 
L 121.552309 230.950807 
L 122.729431 239.366335 
L 123.906553 230.950807 
L 125.083676 206.985409 
L 126.260798 171.118657 
L 127.437921 128.810937 
L 128.615043 171.118657 
L 129.792166 206.985409 
L 130.969288 230.950807 
L 132.146411 239.366335 
L 133.323533 230.950807 
L 134.500656 206.985409 
L 135.677778 171.118657 
L 138.032023 86.503218 
L 139.209146 50.636466 
L 140.386268 26.671068 
L 141.563391 18.25554 
L 142.740513 26.671068 
L 143.917636 50.636466 
L 145.094758 86.503218 
L 146.271881 128.810937 
L 147.449003 86.503218 
L 148.626126 50.636466 
L 149.803248 26.671068 
L 150.980371 18.25554 
L 152.157493 26.671068 
L 153.334616 50.636466 
L 154.511738 86.503218 
L 155.688861 128.810937 
L 156.865983 86.503218 
L 158.043106 50.636466 
L 159.220228 26.671068 
L 160.397351 18.25554 
L 161.574473 26.671068 
L 162.751596 50.636466 
L 163.928718 86.503218 
L 165.105841 128.810937 
L 166.282963 86.503218 
L 167.460086 50.636466 
L 168.637208 26.671068 
L 169.814331 18.25554 
L 170.991453 26.671068 
L 172.168576 50.636466 
L 173.345698 86.503218 
L 174.522821 128.810937 
L 175.699943 86.503218 
L 176.877066 50.636466 
L 178.054188 26.671068 
L 179.231311 18.25554 
L 180.408433 26.671068 
L 181.585556 50.636466 
L 182.762678 86.503218 
L 185.116923 171.118657 
L 186.294046 206.985409 
L 187.471168 230.950807 
L 188.648291 239.366335 
L 189.825413 230.950807 
L 191.002536 206.985409 
L 192.179658 171.118657 
L 194.533903 86.503218 
L 195.711026 50.636466 
L 196.888148 26.671068 
L 198.065271 18.25554 
L 199.242393 26.671068 
L 200.419516 50.636466 
L 201.596638 86.503218 
L 203.950883 171.118657 
L 205.128006 206.985409 
L 206.305128 230.950807 
L 207.482251 239.366335 
L 208.659373 230.950807 
L 209.836496 206.985409 
L 211.013618 171.118657 
L 212.190741 128.810937 
L 213.367863 171.118657 
L 214.544986 206.985409 
L 215.722108 230.950807 
L 216.89923 239.366335 
L 218.076353 230.950807 
L 219.253475 206.985409 
L 220.430598 171.118657 
L 221.60772 128.810937 
L 222.784843 171.118657 
L 223.961965 206.985409 
L 225.139088 230.950807 
L 226.31621 239.366335 
L 227.493333 230.950807 
L 228.670455 206.985409 
L 229.847578 171.118657 
L 231.0247 128.810937 
L 232.201823 171.118657 
L 233.378945 206.985409 
L 234.556068 230.950807 
L 235.73319 239.366335 
L 236.910313 230.950807 
L 238.087435 206.985409 
L 239.264558 171.118657 
L 240.44168 128.810937 
L 241.618803 171.118657 
L 242.795925 206.985409 
L 243.973048 230.950807 
L 245.15017 239.366335 
L 246.327293 230.950807 
L 247.504415 206.985409 
L 248.681538 171.118657 
L 251.035783 86.503218 
L 252.212905 50.636466 
L 253.390028 26.671068 
L 254.56715 18.25554 
L 255.744273 26.671068 
L 256.921395 50.636466 
L 258.098518 86.503218 
L 260.452763 171.118657 
L 261.629885 206.985409 
L 262.807008 230.950807 
L 263.98413 239.366335 
L 265.161253 230.950807 
L 266.338375 206.985409 
L 267.515498 171.118657 
L 269.869743 86.503218 
L 271.046865 50.636466 
L 272.223988 26.671068 
L 273.40111 18.25554 
L 274.578233 26.671068 
L 275.755355 50.636466 
L 276.932478 86.503218 
L 278.1096 128.810937 
L 279.286723 86.503218 
L 280.463845 50.636466 
L 281.640968 26.671068 
L 282.81809 18.25554 
L 283.995213 26.671068 
L 285.172335 50.636466 
L 286.349458 86.503218 
L 288.703703 171.118657 
L 289.880825 206.985409 
L 291.057948 230.950807 
L 292.23507 239.366335 
L 293.412193 230.950807 
L 294.589315 206.985409 
L 295.766438 171.118657 
L 296.94356 128.810937 
L 298.120683 171.118657 
L 299.297805 206.985409 
L 300.474928 230.950807 
L 301.65205 239.366335 
L 302.829173 230.950807 
L 304.006295 206.985409 
L 305.183418 171.118657 
L 307.537663 86.503218 
L 308.714785 50.636466 
L 309.891908 26.671068 
L 311.06903 18.25554 
L 312.246152 26.671068 
L 313.423275 50.636466 
L 314.600397 86.503218 
L 315.77752 128.810937 
L 316.954642 86.503218 
L 318.131765 50.636466 
L 319.308887 26.671068 
L 320.48601 18.25554 
L 321.663132 26.671068 
L 322.840255 50.636466 
L 324.017377 86.503218 
L 326.371622 171.118657 
L 327.548745 206.985409 
L 328.725867 230.950807 
L 329.90299 239.366335 
L 331.080112 230.950807 
L 332.257235 206.985409 
L 333.434357 171.118657 
L 334.61148 128.810937 
L 335.788602 171.118657 
L 336.965725 206.985409 
L 338.142847 230.950807 
L 339.31997 239.366335 
L 340.497092 230.950807 
L 341.674215 206.985409 
L 342.851337 171.118657 
L 344.02846 128.810937 
L 345.205582 171.118657 
L 346.382705 206.985409 
L 347.559827 230.950807 
L 348.73695 239.366335 
L 349.914072 230.950807 
L 351.091195 206.985409 
L 352.268317 171.118657 
L 354.622562 86.503218 
L 355.799685 50.636466 
L 356.976807 26.671068 
L 358.15393 18.25554 
L 359.331052 26.671068 
L 360.508175 50.636466 
L 361.685297 86.503218 
L 364.039542 171.118657 
L 365.216665 206.985409 
L 366.393787 230.950807 
L 367.57091 239.366335 
L 368.748032 230.950807 
L 369.925155 206.985409 
L 371.102277 171.118657 
L 372.2794 128.810937 
L 373.456522 171.118657 
L 374.633645 206.985409 
L 375.810767 230.950807 
L 376.98789 239.366335 
L 378.165012 230.950807 
L 379.342135 206.985409 
L 380.519257 171.118657 
L 381.69638 128.810937 
L 382.873502 171.118657 
L 384.050625 206.985409 
L 385.227747 230.950807 
L 386.40487 239.366335 
L 387.581992 230.950807 
L 388.759115 206.985409 
L 389.936237 171.118657 
L 392.290482 86.503218 
L 393.467605 50.636466 
L 394.644727 26.671068 
L 395.82185 18.25554 
L 396.998972 26.671068 
L 398.176095 50.636466 
L 399.353217 86.503218 
L 400.53034 128.810937 
L 401.707462 86.503218 
L 402.884585 50.636466 
L 404.061707 26.671068 
L 405.238829 18.25554 
L 406.415952 26.671068 
L 407.593074 50.636466 
L 408.770197 86.503218 
L 411.124442 171.118657 
L 412.301564 206.985409 
L 413.478687 230.950807 
L 414.655809 239.366335 
L 415.832932 230.950807 
L 417.010054 206.985409 
L 418.187177 171.118657 
L 420.541422 86.503218 
L 421.718544 50.636466 
L 422.895667 26.671068 
L 424.072789 18.25554 
L 425.249912 26.671068 
L 426.427034 50.636466 
L 427.604157 86.503218 
L 428.781279 128.810937 
L 429.958402 86.503218 
L 431.135524 50.636466 
L 432.312647 26.671068 
L 433.489769 18.25554 
L 434.666892 26.671068 
L 435.844014 50.636466 
L 437.021137 86.503218 
L 439.375382 171.118657 
L 440.552504 206.985409 
L 441.729627 230.950807 
L 442.906749 239.366335 
L 444.083872 230.950807 
L 445.260994 206.985409 
L 446.438117 171.118657 
L 447.615239 128.810937 
L 448.792362 171.118657 
L 449.969484 206.985409 
L 451.146607 230.950807 
L 452.323729 239.366335 
L 453.500852 230.950807 
L 454.677974 206.985409 
L 455.855097 171.118657 
L 458.209342 86.503218 
L 459.386464 50.636466 
L 460.563587 26.671068 
L 461.740709 18.25554 
L 462.917832 26.671068 
L 464.094954 50.636466 
L 465.272077 86.503218 
L 466.449199 128.810937 
L 467.626322 86.503218 
L 468.803444 50.636466 
L 469.980567 26.671068 
L 471.157689 18.25554 
L 472.334812 26.671068 
L 473.511934 50.636466 
L 474.689057 86.503218 
L 477.043302 171.118657 
L 478.220424 206.985409 
L 479.397547 230.950807 
L 480.574669 239.366335 
L 481.751792 230.950807 
L 482.928914 206.985409 
L 484.106037 171.118657 
L 485.283159 128.810937 
L 486.460282 171.118657 
L 487.637404 206.985409 
L 488.814527 230.950807 
L 489.991649 239.366335 
L 491.168772 230.950807 
L 492.345894 206.985409 
L 493.523017 171.118657 
L 494.700139 128.810937 
L 495.877262 171.118657 
L 497.054384 206.985409 
L 498.231507 230.950807 
L 499.408629 239.366335 
L 500.585751 230.950807 
L 501.762874 206.985409 
L 502.939996 171.118657 
L 504.117119 128.810937 
L 505.294241 171.118657 
L 506.471364 206.985409 
L 507.648486 230.950807 
L 508.825609 239.366335 
L 510.002731 230.950807 
L 511.179854 206.985409 
L 512.356976 171.118657 
L 514.711221 86.503218 
L 515.888344 50.636466 
L 517.065466 26.671068 
L 518.242589 18.25554 
L 519.419711 26.671068 
L 520.596834 50.636466 
L 521.773956 86.503218 
L 524.128201 171.118657 
L 525.305324 206.985409 
L 526.482446 230.950807 
L 527.659569 239.366335 
L 528.836691 230.950807 
L 530.013814 206.985409 
L 531.190936 171.118657 
L 533.545181 86.503218 
L 534.722304 50.636466 
L 535.899426 26.671068 
L 537.076549 18.25554 
L 538.253671 26.671068 
L 539.430794 50.636466 
L 540.607916 86.503218 
L 542.962161 171.118657 
L 544.139284 206.985409 
L 545.316406 230.950807 
L 545.316406 230.950807 
" clip-path="url(#p9c94e90fe4)" style="fill: none; stroke: #ff7f0e; stroke-linecap: square"/>
   </g>
   <g id="patch_3">
    <path d="M 52.160938 250.421875 
L 52.160938 7.2 
" style="fill: none; stroke: #000000; stroke-width: 0.8; stroke-linejoin: miter; stroke-linecap: square"/>
   </g>
   <g id="patch_4">
    <path d="M 568.8 250.421875 
L 568.8 7.2 
" style="fill: none; stroke: #000000; stroke-width: 0.8; stroke-linejoin: miter; stroke-linecap: square"/>
   </g>
   <g id="patch_5">
    <path d="M 52.160937 250.421875 
L 568.8 250.421875 
" style="fill: none; stroke: #000000; stroke-width: 0.8; stroke-linejoin: miter; stroke-linecap: square"/>
   </g>
   <g id="patch_6">
    <path d="M 52.160937 7.2 
L 568.8 7.2 
" style="fill: none; stroke: #000000; stroke-width: 0.8; stroke-linejoin: miter; stroke-linecap: square"/>
   </g>
   <g id="legend_1">
    <g id="patch_7">
     <path d="M 59.160938 44.55625 
L 116.15625 44.55625 
Q 118.15625 44.55625 118.15625 42.55625 
L 118.15625 14.2 
Q 118.15625 12.2 116.15625 12.2 
L 59.160938 12.2 
Q 57.160938 12.2 57.160938 14.2 
L 57.160938 42.55625 
Q 57.160938 44.55625 59.160938 44.55625 
z
" style="fill: #ffffff; opacity: 0.8; stroke: #cccccc; stroke-linejoin: miter"/>
    </g>
    <g id="line2d_35">
     <path d="M 61.160938 20.298437 
L 71.160938 20.298437 
L 81.160938 20.298437 
" style="fill: none; stroke: #1f77b4; stroke-linecap: square"/>
    </g>
    <g id="text_19">
     <!-- real -->
     <g transform="translate(89.160938 23.798437) scale(0.1 -0.1)">
      <defs>
       <path id="DejaVuSans-72" d="M 2631 2963 
Q 2534 3019 2420 3045 
Q 2306 3072 2169 3072 
Q 1681 3072 1420 2755 
Q 1159 2438 1159 1844 
L 1159 0 
L 581 0 
L 581 3500 
L 1159 3500 
L 1159 2956 
Q 1341 3275 1631 3429 
Q 1922 3584 2338 3584 
Q 2397 3584 2469 3576 
Q 2541 3569 2628 3553 
L 2631 2963 
z
" transform="scale(0.015625)"/>
      </defs>
      <use xlink:href="#DejaVuSans-72"/>
      <use xlink:href="#DejaVuSans-65" transform="translate(38.863281 0)"/>
      <use xlink:href="#DejaVuSans-61" transform="translate(100.386719 0)"/>
      <use xlink:href="#DejaVuSans-6c" transform="translate(161.666016 0)"/>
     </g>
    </g>
    <g id="line2d_36">
     <path d="M 61.160938 34.976562 
L 71.160938 34.976562 
L 81.160938 34.976562 
" style="fill: none; stroke: #ff7f0e; stroke-linecap: square"/>
    </g>
    <g id="text_20">
     <!-- imag -->
     <g transform="translate(89.160938 38.476562) scale(0.1 -0.1)">
      <defs>
       <path id="DejaVuSans-67" d="M 2906 1791 
Q 2906 2416 2648 2759 
Q 2391 3103 1925 3103 
Q 1463 3103 1205 2759 
Q 947 2416 947 1791 
Q 947 1169 1205 825 
Q 1463 481 1925 481 
Q 2391 481 2648 825 
Q 2906 1169 2906 1791 
z
M 3481 434 
Q 3481 -459 3084 -895 
Q 2688 -1331 1869 -1331 
Q 1566 -1331 1297 -1286 
Q 1028 -1241 775 -1147 
L 775 -588 
Q 1028 -725 1275 -790 
Q 1522 -856 1778 -856 
Q 2344 -856 2625 -561 
Q 2906 -266 2906 331 
L 2906 616 
Q 2728 306 2450 153 
Q 2172 0 1784 0 
Q 1141 0 747 490 
Q 353 981 353 1791 
Q 353 2603 747 3093 
Q 1141 3584 1784 3584 
Q 2172 3584 2450 3431 
Q 2728 3278 2906 2969 
L 2906 3500 
L 3481 3500 
L 3481 434 
z
" transform="scale(0.015625)"/>
      </defs>
      <use xlink:href="#DejaVuSans-69"/>
      <use xlink:href="#DejaVuSans-6d" transform="translate(27.783203 0)"/>
      <use xlink:href="#DejaVuSans-61" transform="translate(125.195312 0)"/>
      <use xlink:href="#DejaVuSans-67" transform="translate(186.474609 0)"/>
     </g>
    </g>
   </g>
  </g>
 </g>
 <defs>
  <clipPath id="p9c94e90fe4">
   <rect x="52.160938" y="7.2" width="516.639063" height="243.221875"/>
  </clipPath>
 </defs>
</svg>
