<?xml version="1.0" encoding="utf-8" standalone="no"?>
<!DOCTYPE svg PUBLIC "-//W3C//DTD SVG 1.1//EN"
  "http://www.w3.org/Graphics/SVG/1.1/DTD/svg11.dtd">
<svg xmlns:xlink="http://www.w3.org/1999/xlink" width="576pt" height="288pt" viewBox="0 0 576 288" xmlns="http://www.w3.org/2000/svg" version="1.1">
 <metadata>
  <rdf:RDF xmlns:dc="http://purl.org/dc/elements/1.1/" xmlns:cc="http://creativecommons.org/ns#" xmlns:rdf="http://www.w3.org/1999/02/22-rdf-syntax-ns#">
   <cc:Work>
    <dc:type rdf:resource="http://purl.org/dc/dcmitype/StillImage"/>
    <dc:date>2025-05-10T16:17:29.059502</dc:date>
    <dc:format>image/svg+xml</dc:format>
    <dc:creator>
     <cc:Agent>
      <dc:title>Matplotlib v3.10.3, https://matplotlib.org/</dc:title>
     </cc:Agent>
    </dc:creator>
   </cc:Work>
  </rdf:RDF>
 </metadata>
 <defs>
  <style type="text/css">*{stroke-linejoin: round; stroke-linecap: butt}</style>
 </defs>
 <g id="figure_1">
  <g id="patch_1">
   <path d="M 0 288 
L 576 288 
L 576 0 
L 0 0 
z
" style="fill: #ffffff"/>
  </g>
  <g id="axes_1">
   <g id="patch_2">
    <path d="M 57.167188 250.421875 
L 568.8 250.421875 
L 568.8 24.12 
L 57.167188 24.12 
z
" style="fill: #ffffff"/>
   </g>
   <g id="matplotlib.axis_1">
    <g id="xtick_1">
     <g id="line2d_1">
      <path d="M 80.423224 250.421875 
L 80.423224 24.12 
" clip-path="url(#pf6a1d822dc)" style="fill: none; stroke-dasharray: 2.96,1.28; stroke-dashoffset: 0; stroke: #b0b0b0; stroke-opacity: 0.8; stroke-width: 0.8"/>
     </g>
     <g id="line2d_2">
      <defs>
       <path id="m5b77d54a21" d="M 0 0 
L 0 3.5 
" style="stroke: #000000; stroke-width: 0.8"/>
      </defs>
      <g>
       <use xlink:href="#m5b77d54a21" x="80.423224" y="250.421875" style="stroke: #000000; stroke-width: 0.8"/>
      </g>
     </g>
     <g id="text_1">
      <!-- 0 -->
      <g transform="translate(77.241974 265.020312) scale(0.1 -0.1)">
       <defs>
        <path id="DejaVuSans-30" d="M 2034 4250 
Q 1547 4250 1301 3770 
Q 1056 3291 1056 2328 
Q 1056 1369 1301 889 
Q 1547 409 2034 409 
Q 2525 409 2770 889 
Q 3016 1369 3016 2328 
Q 3016 3291 2770 3770 
Q 2525 4250 2034 4250 
z
M 2034 4750 
Q 2819 4750 3233 4129 
Q 3647 3509 3647 2328 
Q 3647 1150 3233 529 
Q 2819 -91 2034 -91 
Q 1250 -91 836 529 
Q 422 1150 422 2328 
Q 422 3509 836 4129 
Q 1250 4750 2034 4750 
z
" transform="scale(0.015625)"/>
       </defs>
       <use xlink:href="#DejaVuSans-30"/>
      </g>
     </g>
    </g>
    <g id="xtick_2">
     <g id="line2d_3">
      <path d="M 173.538305 250.421875 
L 173.538305 24.12 
" clip-path="url(#pf6a1d822dc)" style="fill: none; stroke-dasharray: 2.96,1.28; stroke-dashoffset: 0; stroke: #b0b0b0; stroke-opacity: 0.8; stroke-width: 0.8"/>
     </g>
     <g id="line2d_4">
      <g>
       <use xlink:href="#m5b77d54a21" x="173.538305" y="250.421875" style="stroke: #000000; stroke-width: 0.8"/>
      </g>
     </g>
     <g id="text_2">
      <!-- 0.1 -->
      <g transform="translate(165.586742 265.020312) scale(0.1 -0.1)">
       <defs>
        <path id="DejaVuSans-2e" d="M 684 794 
L 1344 794 
L 1344 0 
L 684 0 
L 684 794 
z
" transform="scale(0.015625)"/>
        <path id="DejaVuSans-31" d="M 794 531 
L 1825 531 
L 1825 4091 
L 703 3866 
L 703 4441 
L 1819 4666 
L 2450 4666 
L 2450 531 
L 3481 531 
L 3481 0 
L 794 0 
L 794 531 
z
" transform="scale(0.015625)"/>
       </defs>
       <use xlink:href="#DejaVuSans-30"/>
       <use xlink:href="#DejaVuSans-2e" transform="translate(63.623047 0)"/>
       <use xlink:href="#DejaVuSans-31" transform="translate(95.410156 0)"/>
      </g>
     </g>
    </g>
    <g id="xtick_3">
     <g id="line2d_5">
      <path d="M 266.653385 250.421875 
L 266.653385 24.12 
" clip-path="url(#pf6a1d822dc)" style="fill: none; stroke-dasharray: 2.96,1.28; stroke-dashoffset: 0; stroke: #b0b0b0; stroke-opacity: 0.8; stroke-width: 0.8"/>
     </g>
     <g id="line2d_6">
      <g>
       <use xlink:href="#m5b77d54a21" x="266.653385" y="250.421875" style="stroke: #000000; stroke-width: 0.8"/>
      </g>
     </g>
     <g id="text_3">
      <!-- 0.2 -->
      <g transform="translate(258.701823 265.020312) scale(0.1 -0.1)">
       <defs>
        <path id="DejaVuSans-32" d="M 1228 531 
L 3431 531 
L 3431 0 
L 469 0 
L 469 531 
Q 828 903 1448 1529 
Q 2069 2156 2228 2338 
Q 2531 2678 2651 2914 
Q 2772 3150 2772 3378 
Q 2772 3750 2511 3984 
Q 2250 4219 1831 4219 
Q 1534 4219 1204 4116 
Q 875 4013 500 3803 
L 500 4441 
Q 881 4594 1212 4672 
Q 1544 4750 1819 4750 
Q 2544 4750 2975 4387 
Q 3406 4025 3406 3419 
Q 3406 3131 3298 2873 
Q 3191 2616 2906 2266 
Q 2828 2175 2409 1742 
Q 1991 1309 1228 531 
z
" transform="scale(0.015625)"/>
       </defs>
       <use xlink:href="#DejaVuSans-30"/>
       <use xlink:href="#DejaVuSans-2e" transform="translate(63.623047 0)"/>
       <use xlink:href="#DejaVuSans-32" transform="translate(95.410156 0)"/>
      </g>
     </g>
    </g>
    <g id="xtick_4">
     <g id="line2d_7">
      <path d="M 359.768466 250.421875 
L 359.768466 24.12 
" clip-path="url(#pf6a1d822dc)" style="fill: none; stroke-dasharray: 2.96,1.28; stroke-dashoffset: 0; stroke: #b0b0b0; stroke-opacity: 0.8; stroke-width: 0.8"/>
     </g>
     <g id="line2d_8">
      <g>
       <use xlink:href="#m5b77d54a21" x="359.768466" y="250.421875" style="stroke: #000000; stroke-width: 0.8"/>
      </g>
     </g>
     <g id="text_4">
      <!-- 0.3 -->
      <g transform="translate(351.816903 265.020312) scale(0.1 -0.1)">
       <defs>
        <path id="DejaVuSans-33" d="M 2597 2516 
Q 3050 2419 3304 2112 
Q 3559 1806 3559 1356 
Q 3559 666 3084 287 
Q 2609 -91 1734 -91 
Q 1441 -91 1130 -33 
Q 819 25 488 141 
L 488 750 
Q 750 597 1062 519 
Q 1375 441 1716 441 
Q 2309 441 2620 675 
Q 2931 909 2931 1356 
Q 2931 1769 2642 2001 
Q 2353 2234 1838 2234 
L 1294 2234 
L 1294 2753 
L 1863 2753 
Q 2328 2753 2575 2939 
Q 2822 3125 2822 3475 
Q 2822 3834 2567 4026 
Q 2313 4219 1838 4219 
Q 1578 4219 1281 4162 
Q 984 4106 628 3988 
L 628 4550 
Q 988 4650 1302 4700 
Q 1616 4750 1894 4750 
Q 2613 4750 3031 4423 
Q 3450 4097 3450 3541 
Q 3450 3153 3228 2886 
Q 3006 2619 2597 2516 
z
" transform="scale(0.015625)"/>
       </defs>
       <use xlink:href="#DejaVuSans-30"/>
       <use xlink:href="#DejaVuSans-2e" transform="translate(63.623047 0)"/>
       <use xlink:href="#DejaVuSans-33" transform="translate(95.410156 0)"/>
      </g>
     </g>
    </g>
    <g id="xtick_5">
     <g id="line2d_9">
      <path d="M 452.883546 250.421875 
L 452.883546 24.12 
" clip-path="url(#pf6a1d822dc)" style="fill: none; stroke-dasharray: 2.96,1.28; stroke-dashoffset: 0; stroke: #b0b0b0; stroke-opacity: 0.8; stroke-width: 0.8"/>
     </g>
     <g id="line2d_10">
      <g>
       <use xlink:href="#m5b77d54a21" x="452.883546" y="250.421875" style="stroke: #000000; stroke-width: 0.8"/>
      </g>
     </g>
     <g id="text_5">
      <!-- 0.4 -->
      <g transform="translate(444.931984 265.020312) scale(0.1 -0.1)">
       <defs>
        <path id="DejaVuSans-34" d="M 2419 4116 
L 825 1625 
L 2419 1625 
L 2419 4116 
z
M 2253 4666 
L 3047 4666 
L 3047 1625 
L 3713 1625 
L 3713 1100 
L 3047 1100 
L 3047 0 
L 2419 0 
L 2419 1100 
L 313 1100 
L 313 1709 
L 2253 4666 
z
" transform="scale(0.015625)"/>
       </defs>
       <use xlink:href="#DejaVuSans-30"/>
       <use xlink:href="#DejaVuSans-2e" transform="translate(63.623047 0)"/>
       <use xlink:href="#DejaVuSans-34" transform="translate(95.410156 0)"/>
      </g>
     </g>
    </g>
    <g id="xtick_6">
     <g id="line2d_11">
      <path d="M 545.998627 250.421875 
L 545.998627 24.12 
" clip-path="url(#pf6a1d822dc)" style="fill: none; stroke-dasharray: 2.96,1.28; stroke-dashoffset: 0; stroke: #b0b0b0; stroke-opacity: 0.8; stroke-width: 0.8"/>
     </g>
     <g id="line2d_12">
      <g>
       <use xlink:href="#m5b77d54a21" x="545.998627" y="250.421875" style="stroke: #000000; stroke-width: 0.8"/>
      </g>
     </g>
     <g id="text_6">
      <!-- 0.5 -->
      <g transform="translate(538.047064 265.020312) scale(0.1 -0.1)">
       <defs>
        <path id="DejaVuSans-35" d="M 691 4666 
L 3169 4666 
L 3169 4134 
L 1269 4134 
L 1269 2991 
Q 1406 3038 1543 3061 
Q 1681 3084 1819 3084 
Q 2600 3084 3056 2656 
Q 3513 2228 3513 1497 
Q 3513 744 3044 326 
Q 2575 -91 1722 -91 
Q 1428 -91 1123 -41 
Q 819 9 494 109 
L 494 744 
Q 775 591 1075 516 
Q 1375 441 1709 441 
Q 2250 441 2565 725 
Q 2881 1009 2881 1497 
Q 2881 1984 2565 2268 
Q 2250 2553 1709 2553 
Q 1456 2553 1204 2497 
Q 953 2441 691 2322 
L 691 4666 
z
" transform="scale(0.015625)"/>
       </defs>
       <use xlink:href="#DejaVuSans-30"/>
       <use xlink:href="#DejaVuSans-2e" transform="translate(63.623047 0)"/>
       <use xlink:href="#DejaVuSans-35" transform="translate(95.410156 0)"/>
      </g>
     </g>
    </g>
    <g id="text_7">
     <!-- Normalized frequency, $f/f_s$ -->
     <g transform="translate(247.383594 278.7) scale(0.1 -0.1)">
      <defs>
       <path id="DejaVuSans-4e" d="M 628 4666 
L 1478 4666 
L 3547 763 
L 3547 4666 
L 4159 4666 
L 4159 0 
L 3309 0 
L 1241 3903 
L 1241 0 
L 628 0 
L 628 4666 
z
" transform="scale(0.015625)"/>
       <path id="DejaVuSans-6f" d="M 1959 3097 
Q 1497 3097 1228 2736 
Q 959 2375 959 1747 
Q 959 1119 1226 758 
Q 1494 397 1959 397 
Q 2419 397 2687 759 
Q 2956 1122 2956 1747 
Q 2956 2369 2687 2733 
Q 2419 3097 1959 3097 
z
M 1959 3584 
Q 2709 3584 3137 3096 
Q 3566 2609 3566 1747 
Q 3566 888 3137 398 
Q 2709 -91 1959 -91 
Q 1206 -91 779 398 
Q 353 888 353 1747 
Q 353 2609 779 3096 
Q 1206 3584 1959 3584 
z
" transform="scale(0.015625)"/>
       <path id="DejaVuSans-72" d="M 2631 2963 
Q 2534 3019 2420 3045 
Q 2306 3072 2169 3072 
Q 1681 3072 1420 2755 
Q 1159 2438 1159 1844 
L 1159 0 
L 581 0 
L 581 3500 
L 1159 3500 
L 1159 2956 
Q 1341 3275 1631 3429 
Q 1922 3584 2338 3584 
Q 2397 3584 2469 3576 
Q 2541 3569 2628 3553 
L 2631 2963 
z
" transform="scale(0.015625)"/>
       <path id="DejaVuSans-6d" d="M 3328 2828 
Q 3544 3216 3844 3400 
Q 4144 3584 4550 3584 
Q 5097 3584 5394 3201 
Q 5691 2819 5691 2113 
L 5691 0 
L 5113 0 
L 5113 2094 
Q 5113 2597 4934 2840 
Q 4756 3084 4391 3084 
Q 3944 3084 3684 2787 
Q 3425 2491 3425 1978 
L 3425 0 
L 2847 0 
L 2847 2094 
Q 2847 2600 2669 2842 
Q 2491 3084 2119 3084 
Q 1678 3084 1418 2786 
Q 1159 2488 1159 1978 
L 1159 0 
L 581 0 
L 581 3500 
L 1159 3500 
L 1159 2956 
Q 1356 3278 1631 3431 
Q 1906 3584 2284 3584 
Q 2666 3584 2933 3390 
Q 3200 3197 3328 2828 
z
" transform="scale(0.015625)"/>
       <path id="DejaVuSans-61" d="M 2194 1759 
Q 1497 1759 1228 1600 
Q 959 1441 959 1056 
Q 959 750 1161 570 
Q 1363 391 1709 391 
Q 2188 391 2477 730 
Q 2766 1069 2766 1631 
L 2766 1759 
L 2194 1759 
z
M 3341 1997 
L 3341 0 
L 2766 0 
L 2766 531 
Q 2569 213 2275 61 
Q 1981 -91 1556 -91 
Q 1019 -91 701 211 
Q 384 513 384 1019 
Q 384 1609 779 1909 
Q 1175 2209 1959 2209 
L 2766 2209 
L 2766 2266 
Q 2766 2663 2505 2880 
Q 2244 3097 1772 3097 
Q 1472 3097 1187 3025 
Q 903 2953 641 2809 
L 641 3341 
Q 956 3463 1253 3523 
Q 1550 3584 1831 3584 
Q 2591 3584 2966 3190 
Q 3341 2797 3341 1997 
z
" transform="scale(0.015625)"/>
       <path id="DejaVuSans-6c" d="M 603 4863 
L 1178 4863 
L 1178 0 
L 603 0 
L 603 4863 
z
" transform="scale(0.015625)"/>
       <path id="DejaVuSans-69" d="M 603 3500 
L 1178 3500 
L 1178 0 
L 603 0 
L 603 3500 
z
M 603 4863 
L 1178 4863 
L 1178 4134 
L 603 4134 
L 603 4863 
z
" transform="scale(0.015625)"/>
       <path id="DejaVuSans-7a" d="M 353 3500 
L 3084 3500 
L 3084 2975 
L 922 459 
L 3084 459 
L 3084 0 
L 275 0 
L 275 525 
L 2438 3041 
L 353 3041 
L 353 3500 
z
" transform="scale(0.015625)"/>
       <path id="DejaVuSans-65" d="M 3597 1894 
L 3597 1613 
L 953 1613 
Q 991 1019 1311 708 
Q 1631 397 2203 397 
Q 2534 397 2845 478 
Q 3156 559 3463 722 
L 3463 178 
Q 3153 47 2828 -22 
Q 2503 -91 2169 -91 
Q 1331 -91 842 396 
Q 353 884 353 1716 
Q 353 2575 817 3079 
Q 1281 3584 2069 3584 
Q 2775 3584 3186 3129 
Q 3597 2675 3597 1894 
z
M 3022 2063 
Q 3016 2534 2758 2815 
Q 2500 3097 2075 3097 
Q 1594 3097 1305 2825 
Q 1016 2553 972 2059 
L 3022 2063 
z
" transform="scale(0.015625)"/>
       <path id="DejaVuSans-64" d="M 2906 2969 
L 2906 4863 
L 3481 4863 
L 3481 0 
L 2906 0 
L 2906 525 
Q 2725 213 2448 61 
Q 2172 -91 1784 -91 
Q 1150 -91 751 415 
Q 353 922 353 1747 
Q 353 2572 751 3078 
Q 1150 3584 1784 3584 
Q 2172 3584 2448 3432 
Q 2725 3281 2906 2969 
z
M 947 1747 
Q 947 1113 1208 752 
Q 1469 391 1925 391 
Q 2381 391 2643 752 
Q 2906 1113 2906 1747 
Q 2906 2381 2643 2742 
Q 2381 3103 1925 3103 
Q 1469 3103 1208 2742 
Q 947 2381 947 1747 
z
" transform="scale(0.015625)"/>
       <path id="DejaVuSans-20" transform="scale(0.015625)"/>
       <path id="DejaVuSans-66" d="M 2375 4863 
L 2375 4384 
L 1825 4384 
Q 1516 4384 1395 4259 
Q 1275 4134 1275 3809 
L 1275 3500 
L 2222 3500 
L 2222 3053 
L 1275 3053 
L 1275 0 
L 697 0 
L 697 3053 
L 147 3053 
L 147 3500 
L 697 3500 
L 697 3744 
Q 697 4328 969 4595 
Q 1241 4863 1831 4863 
L 2375 4863 
z
" transform="scale(0.015625)"/>
       <path id="DejaVuSans-71" d="M 947 1747 
Q 947 1113 1208 752 
Q 1469 391 1925 391 
Q 2381 391 2643 752 
Q 2906 1113 2906 1747 
Q 2906 2381 2643 2742 
Q 2381 3103 1925 3103 
Q 1469 3103 1208 2742 
Q 947 2381 947 1747 
z
M 2906 525 
Q 2725 213 2448 61 
Q 2172 -91 1784 -91 
Q 1150 -91 751 415 
Q 353 922 353 1747 
Q 353 2572 751 3078 
Q 1150 3584 1784 3584 
Q 2172 3584 2448 3432 
Q 2725 3281 2906 2969 
L 2906 3500 
L 3481 3500 
L 3481 -1331 
L 2906 -1331 
L 2906 525 
z
" transform="scale(0.015625)"/>
       <path id="DejaVuSans-75" d="M 544 1381 
L 544 3500 
L 1119 3500 
L 1119 1403 
Q 1119 906 1312 657 
Q 1506 409 1894 409 
Q 2359 409 2629 706 
Q 2900 1003 2900 1516 
L 2900 3500 
L 3475 3500 
L 3475 0 
L 2900 0 
L 2900 538 
Q 2691 219 2414 64 
Q 2138 -91 1772 -91 
Q 1169 -91 856 284 
Q 544 659 544 1381 
z
M 1991 3584 
L 1991 3584 
z
" transform="scale(0.015625)"/>
       <path id="DejaVuSans-6e" d="M 3513 2113 
L 3513 0 
L 2938 0 
L 2938 2094 
Q 2938 2591 2744 2837 
Q 2550 3084 2163 3084 
Q 1697 3084 1428 2787 
Q 1159 2491 1159 1978 
L 1159 0 
L 581 0 
L 581 3500 
L 1159 3500 
L 1159 2956 
Q 1366 3272 1645 3428 
Q 1925 3584 2291 3584 
Q 2894 3584 3203 3211 
Q 3513 2838 3513 2113 
z
" transform="scale(0.015625)"/>
       <path id="DejaVuSans-63" d="M 3122 3366 
L 3122 2828 
Q 2878 2963 2633 3030 
Q 2388 3097 2138 3097 
Q 1578 3097 1268 2742 
Q 959 2388 959 1747 
Q 959 1106 1268 751 
Q 1578 397 2138 397 
Q 2388 397 2633 464 
Q 2878 531 3122 666 
L 3122 134 
Q 2881 22 2623 -34 
Q 2366 -91 2075 -91 
Q 1284 -91 818 406 
Q 353 903 353 1747 
Q 353 2603 823 3093 
Q 1294 3584 2113 3584 
Q 2378 3584 2631 3529 
Q 2884 3475 3122 3366 
z
" transform="scale(0.015625)"/>
       <path id="DejaVuSans-79" d="M 2059 -325 
Q 1816 -950 1584 -1140 
Q 1353 -1331 966 -1331 
L 506 -1331 
L 506 -850 
L 844 -850 
Q 1081 -850 1212 -737 
Q 1344 -625 1503 -206 
L 1606 56 
L 191 3500 
L 800 3500 
L 1894 763 
L 2988 3500 
L 3597 3500 
L 2059 -325 
z
" transform="scale(0.015625)"/>
       <path id="DejaVuSans-2c" d="M 750 794 
L 1409 794 
L 1409 256 
L 897 -744 
L 494 -744 
L 750 256 
L 750 794 
z
" transform="scale(0.015625)"/>
       <path id="DejaVuSans-Oblique-66" d="M 3059 4863 
L 2969 4384 
L 2419 4384 
Q 2106 4384 1964 4261 
Q 1822 4138 1753 3809 
L 1691 3500 
L 2638 3500 
L 2553 3053 
L 1606 3053 
L 1013 0 
L 434 0 
L 1031 3053 
L 481 3053 
L 563 3500 
L 1113 3500 
L 1159 3744 
Q 1278 4363 1576 4613 
Q 1875 4863 2516 4863 
L 3059 4863 
z
" transform="scale(0.015625)"/>
       <path id="DejaVuSans-2f" d="M 1625 4666 
L 2156 4666 
L 531 -594 
L 0 -594 
L 1625 4666 
z
" transform="scale(0.015625)"/>
       <path id="DejaVuSans-Oblique-73" d="M 3200 3397 
L 3091 2853 
Q 2863 2978 2609 3040 
Q 2356 3103 2088 3103 
Q 1634 3103 1373 2948 
Q 1113 2794 1113 2528 
Q 1113 2219 1719 2053 
Q 1766 2041 1788 2034 
L 1972 1978 
Q 2547 1819 2739 1644 
Q 2931 1469 2931 1166 
Q 2931 609 2489 259 
Q 2047 -91 1331 -91 
Q 1053 -91 747 -37 
Q 441 16 72 128 
L 184 722 
Q 500 559 806 475 
Q 1113 391 1394 391 
Q 1816 391 2080 572 
Q 2344 753 2344 1031 
Q 2344 1331 1650 1516 
L 1591 1531 
L 1394 1581 
Q 956 1697 753 1886 
Q 550 2075 550 2369 
Q 550 2928 970 3256 
Q 1391 3584 2113 3584 
Q 2397 3584 2667 3537 
Q 2938 3491 3200 3397 
z
" transform="scale(0.015625)"/>
      </defs>
      <use xlink:href="#DejaVuSans-4e" transform="translate(0 0.015625)"/>
      <use xlink:href="#DejaVuSans-6f" transform="translate(74.804688 0.015625)"/>
      <use xlink:href="#DejaVuSans-72" transform="translate(135.986328 0.015625)"/>
      <use xlink:href="#DejaVuSans-6d" transform="translate(177.099609 0.015625)"/>
      <use xlink:href="#DejaVuSans-61" transform="translate(274.511719 0.015625)"/>
      <use xlink:href="#DejaVuSans-6c" transform="translate(335.791016 0.015625)"/>
      <use xlink:href="#DejaVuSans-69" transform="translate(363.574219 0.015625)"/>
      <use xlink:href="#DejaVuSans-7a" transform="translate(391.357422 0.015625)"/>
      <use xlink:href="#DejaVuSans-65" transform="translate(443.847656 0.015625)"/>
      <use xlink:href="#DejaVuSans-64" transform="translate(505.371094 0.015625)"/>
      <use xlink:href="#DejaVuSans-20" transform="translate(568.847656 0.015625)"/>
      <use xlink:href="#DejaVuSans-66" transform="translate(600.634766 0.015625)"/>
      <use xlink:href="#DejaVuSans-72" transform="translate(635.839844 0.015625)"/>
      <use xlink:href="#DejaVuSans-65" transform="translate(676.953125 0.015625)"/>
      <use xlink:href="#DejaVuSans-71" transform="translate(738.476562 0.015625)"/>
      <use xlink:href="#DejaVuSans-75" transform="translate(801.953125 0.015625)"/>
      <use xlink:href="#DejaVuSans-65" transform="translate(865.332031 0.015625)"/>
      <use xlink:href="#DejaVuSans-6e" transform="translate(926.855469 0.015625)"/>
      <use xlink:href="#DejaVuSans-63" transform="translate(990.234375 0.015625)"/>
      <use xlink:href="#DejaVuSans-79" transform="translate(1045.214844 0.015625)"/>
      <use xlink:href="#DejaVuSans-2c" transform="translate(1104.394531 0.015625)"/>
      <use xlink:href="#DejaVuSans-20" transform="translate(1136.181641 0.015625)"/>
      <use xlink:href="#DejaVuSans-Oblique-66" transform="translate(1167.96875 0.015625)"/>
      <use xlink:href="#DejaVuSans-2f" transform="translate(1203.173828 0.015625)"/>
      <use xlink:href="#DejaVuSans-Oblique-66" transform="translate(1236.865234 0.015625)"/>
      <use xlink:href="#DejaVuSans-Oblique-73" transform="translate(1272.070312 -16.390625) scale(0.7)"/>
     </g>
    </g>
   </g>
   <g id="matplotlib.axis_2">
    <g id="ytick_1">
     <g id="line2d_13">
      <path d="M 57.167188 236.191514 
L 568.8 236.191514 
" clip-path="url(#pf6a1d822dc)" style="fill: none; stroke-dasharray: 2.96,1.28; stroke-dashoffset: 0; stroke: #b0b0b0; stroke-opacity: 0.8; stroke-width: 0.8"/>
     </g>
     <g id="line2d_14">
      <defs>
       <path id="ma4a90f6e0c" d="M 0 0 
L -3.5 0 
" style="stroke: #000000; stroke-width: 0.8"/>
      </defs>
      <g>
       <use xlink:href="#ma4a90f6e0c" x="57.167188" y="236.191514" style="stroke: #000000; stroke-width: 0.8"/>
      </g>
     </g>
     <g id="text_8">
      <!-- −140 -->
      <g transform="translate(22.7 239.990732) scale(0.1 -0.1)">
       <defs>
        <path id="DejaVuSans-2212" d="M 678 2272 
L 4684 2272 
L 4684 1741 
L 678 1741 
L 678 2272 
z
" transform="scale(0.015625)"/>
       </defs>
       <use xlink:href="#DejaVuSans-2212"/>
       <use xlink:href="#DejaVuSans-31" transform="translate(83.789062 0)"/>
       <use xlink:href="#DejaVuSans-34" transform="translate(147.412109 0)"/>
       <use xlink:href="#DejaVuSans-30" transform="translate(211.035156 0)"/>
      </g>
     </g>
    </g>
    <g id="ytick_2">
     <g id="line2d_15">
      <path d="M 57.167188 209.292656 
L 568.8 209.292656 
" clip-path="url(#pf6a1d822dc)" style="fill: none; stroke-dasharray: 2.96,1.28; stroke-dashoffset: 0; stroke: #b0b0b0; stroke-opacity: 0.8; stroke-width: 0.8"/>
     </g>
     <g id="line2d_16">
      <g>
       <use xlink:href="#ma4a90f6e0c" x="57.167188" y="209.292656" style="stroke: #000000; stroke-width: 0.8"/>
      </g>
     </g>
     <g id="text_9">
      <!-- −120 -->
      <g transform="translate(22.7 213.091874) scale(0.1 -0.1)">
       <use xlink:href="#DejaVuSans-2212"/>
       <use xlink:href="#DejaVuSans-31" transform="translate(83.789062 0)"/>
       <use xlink:href="#DejaVuSans-32" transform="translate(147.412109 0)"/>
       <use xlink:href="#DejaVuSans-30" transform="translate(211.035156 0)"/>
      </g>
     </g>
    </g>
    <g id="ytick_3">
     <g id="line2d_17">
      <path d="M 57.167188 182.393798 
L 568.8 182.393798 
" clip-path="url(#pf6a1d822dc)" style="fill: none; stroke-dasharray: 2.96,1.28; stroke-dashoffset: 0; stroke: #b0b0b0; stroke-opacity: 0.8; stroke-width: 0.8"/>
     </g>
     <g id="line2d_18">
      <g>
       <use xlink:href="#ma4a90f6e0c" x="57.167188" y="182.393798" style="stroke: #000000; stroke-width: 0.8"/>
      </g>
     </g>
     <g id="text_10">
      <!-- −100 -->
      <g transform="translate(22.7 186.193016) scale(0.1 -0.1)">
       <use xlink:href="#DejaVuSans-2212"/>
       <use xlink:href="#DejaVuSans-31" transform="translate(83.789062 0)"/>
       <use xlink:href="#DejaVuSans-30" transform="translate(147.412109 0)"/>
       <use xlink:href="#DejaVuSans-30" transform="translate(211.035156 0)"/>
      </g>
     </g>
    </g>
    <g id="ytick_4">
     <g id="line2d_19">
      <path d="M 57.167188 155.49494 
L 568.8 155.49494 
" clip-path="url(#pf6a1d822dc)" style="fill: none; stroke-dasharray: 2.96,1.28; stroke-dashoffset: 0; stroke: #b0b0b0; stroke-opacity: 0.8; stroke-width: 0.8"/>
     </g>
     <g id="line2d_20">
      <g>
       <use xlink:href="#ma4a90f6e0c" x="57.167188" y="155.49494" style="stroke: #000000; stroke-width: 0.8"/>
      </g>
     </g>
     <g id="text_11">
      <!-- −80 -->
      <g transform="translate(29.0625 159.294158) scale(0.1 -0.1)">
       <defs>
        <path id="DejaVuSans-38" d="M 2034 2216 
Q 1584 2216 1326 1975 
Q 1069 1734 1069 1313 
Q 1069 891 1326 650 
Q 1584 409 2034 409 
Q 2484 409 2743 651 
Q 3003 894 3003 1313 
Q 3003 1734 2745 1975 
Q 2488 2216 2034 2216 
z
M 1403 2484 
Q 997 2584 770 2862 
Q 544 3141 544 3541 
Q 544 4100 942 4425 
Q 1341 4750 2034 4750 
Q 2731 4750 3128 4425 
Q 3525 4100 3525 3541 
Q 3525 3141 3298 2862 
Q 3072 2584 2669 2484 
Q 3125 2378 3379 2068 
Q 3634 1759 3634 1313 
Q 3634 634 3220 271 
Q 2806 -91 2034 -91 
Q 1263 -91 848 271 
Q 434 634 434 1313 
Q 434 1759 690 2068 
Q 947 2378 1403 2484 
z
M 1172 3481 
Q 1172 3119 1398 2916 
Q 1625 2713 2034 2713 
Q 2441 2713 2670 2916 
Q 2900 3119 2900 3481 
Q 2900 3844 2670 4047 
Q 2441 4250 2034 4250 
Q 1625 4250 1398 4047 
Q 1172 3844 1172 3481 
z
" transform="scale(0.015625)"/>
       </defs>
       <use xlink:href="#DejaVuSans-2212"/>
       <use xlink:href="#DejaVuSans-38" transform="translate(83.789062 0)"/>
       <use xlink:href="#DejaVuSans-30" transform="translate(147.412109 0)"/>
      </g>
     </g>
    </g>
    <g id="ytick_5">
     <g id="line2d_21">
      <path d="M 57.167188 128.596082 
L 568.8 128.596082 
" clip-path="url(#pf6a1d822dc)" style="fill: none; stroke-dasharray: 2.96,1.28; stroke-dashoffset: 0; stroke: #b0b0b0; stroke-opacity: 0.8; stroke-width: 0.8"/>
     </g>
     <g id="line2d_22">
      <g>
       <use xlink:href="#ma4a90f6e0c" x="57.167188" y="128.596082" style="stroke: #000000; stroke-width: 0.8"/>
      </g>
     </g>
     <g id="text_12">
      <!-- −60 -->
      <g transform="translate(29.0625 132.3953) scale(0.1 -0.1)">
       <defs>
        <path id="DejaVuSans-36" d="M 2113 2584 
Q 1688 2584 1439 2293 
Q 1191 2003 1191 1497 
Q 1191 994 1439 701 
Q 1688 409 2113 409 
Q 2538 409 2786 701 
Q 3034 994 3034 1497 
Q 3034 2003 2786 2293 
Q 2538 2584 2113 2584 
z
M 3366 4563 
L 3366 3988 
Q 3128 4100 2886 4159 
Q 2644 4219 2406 4219 
Q 1781 4219 1451 3797 
Q 1122 3375 1075 2522 
Q 1259 2794 1537 2939 
Q 1816 3084 2150 3084 
Q 2853 3084 3261 2657 
Q 3669 2231 3669 1497 
Q 3669 778 3244 343 
Q 2819 -91 2113 -91 
Q 1303 -91 875 529 
Q 447 1150 447 2328 
Q 447 3434 972 4092 
Q 1497 4750 2381 4750 
Q 2619 4750 2861 4703 
Q 3103 4656 3366 4563 
z
" transform="scale(0.015625)"/>
       </defs>
       <use xlink:href="#DejaVuSans-2212"/>
       <use xlink:href="#DejaVuSans-36" transform="translate(83.789062 0)"/>
       <use xlink:href="#DejaVuSans-30" transform="translate(147.412109 0)"/>
      </g>
     </g>
    </g>
    <g id="ytick_6">
     <g id="line2d_23">
      <path d="M 57.167188 101.697224 
L 568.8 101.697224 
" clip-path="url(#pf6a1d822dc)" style="fill: none; stroke-dasharray: 2.96,1.28; stroke-dashoffset: 0; stroke: #b0b0b0; stroke-opacity: 0.8; stroke-width: 0.8"/>
     </g>
     <g id="line2d_24">
      <g>
       <use xlink:href="#ma4a90f6e0c" x="57.167188" y="101.697224" style="stroke: #000000; stroke-width: 0.8"/>
      </g>
     </g>
     <g id="text_13">
      <!-- −40 -->
      <g transform="translate(29.0625 105.496442) scale(0.1 -0.1)">
       <use xlink:href="#DejaVuSans-2212"/>
       <use xlink:href="#DejaVuSans-34" transform="translate(83.789062 0)"/>
       <use xlink:href="#DejaVuSans-30" transform="translate(147.412109 0)"/>
      </g>
     </g>
    </g>
    <g id="ytick_7">
     <g id="line2d_25">
      <path d="M 57.167188 74.798366 
L 568.8 74.798366 
" clip-path="url(#pf6a1d822dc)" style="fill: none; stroke-dasharray: 2.96,1.28; stroke-dashoffset: 0; stroke: #b0b0b0; stroke-opacity: 0.8; stroke-width: 0.8"/>
     </g>
     <g id="line2d_26">
      <g>
       <use xlink:href="#ma4a90f6e0c" x="57.167188" y="74.798366" style="stroke: #000000; stroke-width: 0.8"/>
      </g>
     </g>
     <g id="text_14">
      <!-- −20 -->
      <g transform="translate(29.0625 78.597584) scale(0.1 -0.1)">
       <use xlink:href="#DejaVuSans-2212"/>
       <use xlink:href="#DejaVuSans-32" transform="translate(83.789062 0)"/>
       <use xlink:href="#DejaVuSans-30" transform="translate(147.412109 0)"/>
      </g>
     </g>
    </g>
    <g id="ytick_8">
     <g id="line2d_27">
      <path d="M 57.167188 47.899508 
L 568.8 47.899508 
" clip-path="url(#pf6a1d822dc)" style="fill: none; stroke-dasharray: 2.96,1.28; stroke-dashoffset: 0; stroke: #b0b0b0; stroke-opacity: 0.8; stroke-width: 0.8"/>
     </g>
     <g id="line2d_28">
      <g>
       <use xlink:href="#ma4a90f6e0c" x="57.167188" y="47.899508" style="stroke: #000000; stroke-width: 0.8"/>
      </g>
     </g>
     <g id="text_15">
      <!-- 0 -->
      <g transform="translate(43.804688 51.698726) scale(0.1 -0.1)">
       <use xlink:href="#DejaVuSans-30"/>
      </g>
     </g>
    </g>
    <g id="text_16">
     <!-- Power (dB), $|H(\omega)|^2$ -->
     <g transform="translate(16.3 185.470937) rotate(-90) scale(0.1 -0.1)">
      <defs>
       <path id="DejaVuSans-50" d="M 1259 4147 
L 1259 2394 
L 2053 2394 
Q 2494 2394 2734 2622 
Q 2975 2850 2975 3272 
Q 2975 3691 2734 3919 
Q 2494 4147 2053 4147 
L 1259 4147 
z
M 628 4666 
L 2053 4666 
Q 2838 4666 3239 4311 
Q 3641 3956 3641 3272 
Q 3641 2581 3239 2228 
Q 2838 1875 2053 1875 
L 1259 1875 
L 1259 0 
L 628 0 
L 628 4666 
z
" transform="scale(0.015625)"/>
       <path id="DejaVuSans-77" d="M 269 3500 
L 844 3500 
L 1563 769 
L 2278 3500 
L 2956 3500 
L 3675 769 
L 4391 3500 
L 4966 3500 
L 4050 0 
L 3372 0 
L 2619 2869 
L 1863 0 
L 1184 0 
L 269 3500 
z
" transform="scale(0.015625)"/>
       <path id="DejaVuSans-28" d="M 1984 4856 
Q 1566 4138 1362 3434 
Q 1159 2731 1159 2009 
Q 1159 1288 1364 580 
Q 1569 -128 1984 -844 
L 1484 -844 
Q 1016 -109 783 600 
Q 550 1309 550 2009 
Q 550 2706 781 3412 
Q 1013 4119 1484 4856 
L 1984 4856 
z
" transform="scale(0.015625)"/>
       <path id="DejaVuSans-42" d="M 1259 2228 
L 1259 519 
L 2272 519 
Q 2781 519 3026 730 
Q 3272 941 3272 1375 
Q 3272 1813 3026 2020 
Q 2781 2228 2272 2228 
L 1259 2228 
z
M 1259 4147 
L 1259 2741 
L 2194 2741 
Q 2656 2741 2882 2914 
Q 3109 3088 3109 3444 
Q 3109 3797 2882 3972 
Q 2656 4147 2194 4147 
L 1259 4147 
z
M 628 4666 
L 2241 4666 
Q 2963 4666 3353 4366 
Q 3744 4066 3744 3513 
Q 3744 3084 3544 2831 
Q 3344 2578 2956 2516 
Q 3422 2416 3680 2098 
Q 3938 1781 3938 1306 
Q 3938 681 3513 340 
Q 3088 0 2303 0 
L 628 0 
L 628 4666 
z
" transform="scale(0.015625)"/>
       <path id="DejaVuSans-29" d="M 513 4856 
L 1013 4856 
Q 1481 4119 1714 3412 
Q 1947 2706 1947 2009 
Q 1947 1309 1714 600 
Q 1481 -109 1013 -844 
L 513 -844 
Q 928 -128 1133 580 
Q 1338 1288 1338 2009 
Q 1338 2731 1133 3434 
Q 928 4138 513 4856 
z
" transform="scale(0.015625)"/>
       <path id="DejaVuSans-7c" d="M 1344 4891 
L 1344 -1509 
L 813 -1509 
L 813 4891 
L 1344 4891 
z
" transform="scale(0.015625)"/>
       <path id="DejaVuSans-Oblique-48" d="M 1081 4666 
L 1716 4666 
L 1344 2753 
L 3634 2753 
L 4006 4666 
L 4641 4666 
L 3731 0 
L 3097 0 
L 3531 2222 
L 1241 2222 
L 806 0 
L 172 0 
L 1081 4666 
z
" transform="scale(0.015625)"/>
       <path id="DejaVuSans-Oblique-3c9" d="M 1369 -91 
Q 72 -91 434 1766 
Q 575 2500 1256 3500 
L 1875 3500 
Q 1231 2500 1088 1750 
Q 819 397 1519 397 
Q 2166 397 2478 2078 
L 3009 2078 
Q 2669 388 3316 397 
Q 4013 403 4275 1750 
Q 4419 2500 4169 3500 
L 4788 3500 
Q 5075 2500 4934 1766 
Q 4578 -94 3278 -91 
Q 2428 -88 2503 844 
Q 2194 -91 1369 -91 
z
" transform="scale(0.015625)"/>
      </defs>
      <use xlink:href="#DejaVuSans-50" transform="translate(0 0.765625)"/>
      <use xlink:href="#DejaVuSans-6f" transform="translate(60.302734 0.765625)"/>
      <use xlink:href="#DejaVuSans-77" transform="translate(121.484375 0.765625)"/>
      <use xlink:href="#DejaVuSans-65" transform="translate(203.271484 0.765625)"/>
      <use xlink:href="#DejaVuSans-72" transform="translate(264.794922 0.765625)"/>
      <use xlink:href="#DejaVuSans-20" transform="translate(305.908203 0.765625)"/>
      <use xlink:href="#DejaVuSans-28" transform="translate(337.695312 0.765625)"/>
      <use xlink:href="#DejaVuSans-64" transform="translate(376.708984 0.765625)"/>
      <use xlink:href="#DejaVuSans-42" transform="translate(440.185547 0.765625)"/>
      <use xlink:href="#DejaVuSans-29" transform="translate(508.789062 0.765625)"/>
      <use xlink:href="#DejaVuSans-2c" transform="translate(547.802734 0.765625)"/>
      <use xlink:href="#DejaVuSans-20" transform="translate(579.589844 0.765625)"/>
      <use xlink:href="#DejaVuSans-7c" transform="translate(611.376953 0.765625)"/>
      <use xlink:href="#DejaVuSans-Oblique-48" transform="translate(645.068359 0.765625)"/>
      <use xlink:href="#DejaVuSans-28" transform="translate(720.263672 0.765625)"/>
      <use xlink:href="#DejaVuSans-Oblique-3c9" transform="translate(759.277344 0.765625)"/>
      <use xlink:href="#DejaVuSans-29" transform="translate(843.017578 0.765625)"/>
      <use xlink:href="#DejaVuSans-7c" transform="translate(882.03125 0.765625)"/>
      <use xlink:href="#DejaVuSans-32" transform="translate(916.679688 39.046875) scale(0.7)"/>
     </g>
    </g>
   </g>
   <g id="line2d_29">
    <path d="M 80.423224 34.416601 
L 106.339043 34.540969 
L 111.340341 34.855193 
L 114.977649 35.276448 
L 118.160293 35.850342 
L 121.342938 36.65039 
L 124.980245 37.826249 
L 128.617553 39.239406 
L 131.800198 40.706305 
L 134.073515 41.976843 
L 135.892169 43.207212 
L 137.710823 44.706287 
L 139.529477 46.561911 
L 140.893467 48.25001 
L 142.257458 50.250679 
L 143.621448 52.629843 
L 144.985438 55.474128 
L 146.349429 58.90668 
L 147.713419 63.121036 
L 148.622746 66.525316 
L 149.532073 70.608396 
L 150.4414 75.71803 
L 151.350727 82.670039 
L 151.805391 87.516427 
L 152.260054 94.466472 
L 152.714718 108.432294 
L 153.169381 109.17137 
L 153.624044 97.59545 
L 154.078708 92.868859 
L 154.533371 90.24547 
L 154.988035 88.700073 
L 155.442698 87.841794 
L 155.897362 87.48498 
L 156.352025 87.532773 
L 156.806689 87.935299 
L 157.261352 88.672772 
L 157.716016 89.74947 
L 158.170679 91.194552 
L 158.625343 93.07021 
L 159.080006 95.492832 
L 159.53467 98.686085 
L 159.989333 103.13663 
L 160.443997 110.233778 
L 160.89866 129.084958 
L 161.807987 107.798304 
L 162.262651 103.137586 
L 162.717314 100.240875 
L 163.171978 98.30963 
L 163.626641 97.01465 
L 164.081304 96.191137 
L 164.535968 95.748245 
L 164.990631 95.634635 
L 165.445295 95.823531 
L 165.899958 96.306159 
L 166.354622 97.089779 
L 166.809285 98.19928 
L 167.263949 99.683157 
L 167.718612 101.627303 
L 168.173276 104.186562 
L 168.627939 107.666162 
L 169.082603 112.787522 
L 169.537266 122.087183 
L 169.99193 141.785568 
L 170.446593 118.911769 
L 170.901257 112.068609 
L 171.35592 108.14039 
L 171.810584 105.542259 
L 172.265247 103.740145 
L 172.719911 102.490927 
L 173.174574 101.666195 
L 173.629238 101.193056 
L 174.083901 101.02994 
L 174.538565 101.155685 
L 174.993228 101.564763 
L 175.447891 102.266119 
L 175.902555 103.28506 
L 176.357218 104.669122 
L 176.811882 106.501134 
L 177.266545 108.928622 
L 177.721209 112.238352 
L 178.175872 117.09304 
L 178.630536 125.703156 
L 179.085199 155.67659 
L 179.539863 124.419705 
L 179.994526 117.064729 
L 180.44919 112.899994 
L 180.903853 110.139342 
L 181.358517 108.204646 
L 181.81318 106.837302 
L 182.267844 105.901823 
L 182.722507 105.32135 
L 183.177171 105.051599 
L 183.631834 105.069115 
L 184.086498 105.36598 
L 184.541161 105.948179 
L 184.995825 106.836828 
L 185.450488 108.072853 
L 185.905151 109.727554 
L 186.359815 111.925856 
L 186.814478 114.902693 
L 187.269142 119.168675 
L 187.723805 126.205709 
L 188.178469 146.773483 
L 188.633132 131.448235 
L 189.087796 122.16986 
L 189.542459 117.35219 
L 189.997123 114.235177 
L 190.451786 112.058981 
L 190.90645 110.505688 
L 191.361113 109.414369 
L 191.815777 108.695094 
L 192.27044 108.295771 
L 192.725104 108.187501 
L 193.179767 108.357843 
L 193.634431 108.808215 
L 194.089094 109.554176 
L 194.543758 110.628733 
L 194.998421 112.090287 
L 195.453085 114.039882 
L 195.907748 116.661092 
L 196.362411 120.327708 
L 196.817075 125.987798 
L 197.271738 137.702956 
L 197.726402 141.672109 
L 198.181065 127.621126 
L 198.635729 121.691553 
L 199.090392 118.046456 
L 199.545056 115.543114 
L 199.999719 113.754563 
L 200.454383 112.476583 
L 200.909046 111.598263 
L 201.36371 111.055686 
L 201.818373 110.812277 
L 202.273037 110.849758 
L 202.7277 111.164221 
L 203.182364 111.765335 
L 203.637027 112.678333 
L 204.091691 113.949709 
L 204.546354 115.659681 
L 205.001018 117.949908 
L 205.455681 121.092803 
L 205.910345 125.706929 
L 206.365008 133.774422 
L 206.819671 240.135426 
L 207.274335 133.99341 
L 207.728998 126.140978 
L 208.183662 121.742762 
L 208.638325 118.81596 
L 209.092989 116.741861 
L 209.547652 115.247986 
L 210.002316 114.192625 
L 210.456979 113.495509 
L 210.911643 113.110079 
L 211.366306 113.011015 
L 211.82097 113.188521 
L 212.275633 113.646318 
L 212.730297 114.402397 
L 213.18496 115.492862 
L 213.639624 116.980813 
L 214.094287 118.975605 
L 214.548951 121.67809 
L 215.003614 125.506332 
L 215.458278 131.5693 
L 215.912941 145.356968 
L 216.367605 142.819716 
L 216.822268 130.990239 
L 217.276931 125.475274 
L 217.731595 121.995026 
L 218.186258 119.574194 
L 218.640922 117.831233 
L 219.095585 116.579439 
L 219.550249 115.716174 
L 220.004912 115.182039 
L 220.459576 114.943247 
L 220.914239 114.983481 
L 221.368903 115.300445 
L 221.823566 115.905396 
L 222.27823 116.825467 
L 222.732893 118.109861 
L 223.187557 119.843314 
L 223.64222 122.176236 
L 224.096884 125.401324 
L 224.551547 130.19866 
L 225.006211 138.870602 
L 225.460874 164.79279 
L 225.915538 136.74652 
L 226.370201 129.413359 
L 226.824865 125.182899 
L 227.279528 122.333149 
L 227.734192 120.299597 
L 228.188855 118.828196 
L 228.643518 117.785298 
L 229.098182 117.094784 
L 229.552845 116.712539 
L 230.007509 116.614869 
L 230.462172 116.793241 
L 230.916836 117.252535 
L 231.371499 118.012036 
L 231.826163 119.109585 
L 232.280826 120.611003 
L 232.73549 122.630584 
L 233.190153 125.379687 
L 233.644817 129.304107 
L 234.09948 135.619181 
L 234.554144 150.975079 
L 235.008807 144.692147 
L 235.463471 133.79794 
L 235.918134 128.486811 
L 236.372798 125.089888 
L 236.827461 122.710814 
L 237.282125 120.990605 
L 237.736788 119.751498 
L 238.191452 118.895168 
L 238.646115 118.364612 
L 239.100778 118.127563 
L 239.555442 118.16881 
L 240.010105 118.487008 
L 240.464769 119.094405 
L 240.919432 120.019373 
L 241.374096 121.31295 
L 241.828759 123.062998 
L 242.283423 125.4261 
L 242.738086 128.709546 
L 243.19275 133.639028 
L 243.647413 142.772335 
L 244.102077 161.836535 
L 244.55674 139.06742 
L 245.011404 132.041659 
L 245.466067 127.915723 
L 245.920731 125.115189 
L 246.375394 123.108122 
L 246.830058 121.651856 
L 247.284721 120.617806 
L 247.739385 119.932504 
L 248.194048 119.553422 
L 248.648712 119.457956 
L 249.103375 119.638448 
L 249.558038 120.100623 
L 250.012702 120.864754 
L 250.467365 121.970048 
L 250.922029 123.484526 
L 251.376692 125.526544 
L 251.831356 128.316229 
L 252.286019 132.322982 
L 252.740683 138.856178 
L 253.195346 155.781139 
L 254.104673 136.055132 
L 254.559337 130.895705 
L 255.014 127.563501 
L 255.468664 125.218349 
L 255.923327 123.517818 
L 256.377991 122.290825 
L 256.832654 121.442304 
L 257.287318 120.917098 
L 257.741981 120.684126 
L 258.196645 120.729075 
L 258.651308 121.051395 
L 259.105972 121.6642 
L 259.560635 122.596983 
L 260.015298 123.902476 
L 260.469962 125.671486 
L 260.924625 128.066481 
L 261.379289 131.408869 
L 261.833952 136.469563 
L 262.288616 146.075808 
L 262.743279 160.640802 
L 263.197943 140.908345 
L 263.652606 134.142885 
L 264.10727 130.110612 
L 264.561933 127.356538 
L 265.016597 125.376226 
L 265.47126 123.936807 
L 265.925924 122.914113 
L 266.380587 122.237018 
L 266.835251 121.864415 
L 267.289914 121.774699 
L 267.744578 121.961034 
L 268.199241 122.429969 
L 268.653905 123.202764 
L 269.108568 124.320032 
L 269.563232 125.852086 
L 270.017895 127.921565 
L 270.472558 130.757961 
L 270.927222 134.856348 
L 271.381885 141.632065 
L 271.836549 160.602198 
L 272.291212 147.529086 
L 272.745876 137.83915 
L 273.200539 132.828257 
L 273.655203 129.562813 
L 274.109866 127.25481 
L 274.56453 125.577585 
L 275.019193 124.36651 
L 275.473857 123.52971 
L 275.92852 123.013847 
L 276.383184 122.789037 
L 276.837847 122.841878 
L 277.292511 123.172662 
L 277.747174 123.79543 
L 278.201838 124.740907 
L 278.656501 126.063716 
L 279.111165 127.857979 
L 279.565828 130.292872 
L 280.020492 133.706136 
L 280.475155 138.922291 
L 281.384482 159.677439 
L 281.839145 142.314039 
L 282.293809 135.813491 
L 282.748472 131.881979 
L 283.203136 129.180466 
L 283.657799 127.232277 
L 284.112463 125.814622 
L 284.567126 124.807932 
L 285.02179 124.143542 
L 285.476453 123.781859 
L 285.931117 123.702353 
L 286.38578 123.899095 
L 286.840444 124.379558 
L 287.295107 125.16613 
L 287.749771 126.301053 
L 288.204434 127.857326 
L 288.659098 129.962661 
L 289.113761 132.857783 
L 289.568425 137.069153 
L 290.023088 144.147031 
L 290.477752 166.341463 
L 290.932415 148.341335 
L 291.387079 139.225194 
L 291.841742 134.375896 
L 292.296405 131.186466 
L 292.751069 128.922757 
L 293.205732 127.274822 
L 293.660396 126.084975 
L 294.115059 125.264811 
L 294.569723 124.762991 
L 295.024386 124.550959 
L 295.47905 124.616343 
L 295.933713 124.960394 
L 296.388377 125.598237 
L 296.84304 126.562048 
L 297.297704 127.908703 
L 297.752367 129.736322 
L 298.207031 132.222251 
L 298.661694 135.724456 
L 299.116358 141.135788 
L 299.571021 152.099578 
L 300.025685 158.675683 
L 300.480348 143.34592 
L 300.935012 137.129069 
L 301.389675 133.310989 
L 301.844339 130.670994 
L 302.299002 128.761935 
L 302.753665 127.371954 
L 303.208329 126.386533 
L 303.662992 125.739742 
L 304.117656 125.393684 
L 304.572319 125.329052 
L 305.026983 125.540959 
L 305.481646 126.037956 
L 305.93631 126.843775 
L 306.390973 128.002606 
L 306.845637 129.590702 
L 307.3003 131.741989 
L 307.754964 134.711144 
L 308.209627 139.06451 
L 308.664291 146.532583 
L 309.118954 175.086206 
L 309.573618 148.808324 
L 310.028281 140.27858 
L 310.482945 135.607306 
L 310.937608 132.50488 
L 311.392272 130.293573 
L 311.846935 128.681453 
L 312.301599 127.518444 
L 312.756262 126.719982 
L 313.210925 126.23697 
L 313.665589 126.042353 
L 314.120252 126.124942 
L 314.574916 126.487103 
L 315.029579 127.145239 
L 315.484243 128.133261 
L 315.938906 129.510764 
L 316.39357 131.380744 
L 316.848233 133.930647 
L 317.302897 137.543913 
L 317.75756 143.202586 
L 318.212224 155.241929 
L 318.666887 157.614297 
L 319.121551 144.065 
L 319.576214 138.149856 
L 320.030878 134.458132 
L 320.485541 131.888829 
L 320.940205 130.026002 
L 321.394868 128.669605 
L 321.849532 127.710657 
L 322.304195 127.086256 
L 322.758859 126.760409 
L 323.213522 126.715193 
L 323.668185 126.946923 
L 324.122849 127.465411 
L 324.577512 128.295974 
L 325.032176 129.485141 
L 325.486839 131.113108 
L 325.941503 133.321417 
L 326.396166 136.382143 
L 326.85083 140.912766 
L 327.305493 148.889909 
L 327.760157 221.444098 
L 328.21482 148.996271 
L 328.669484 141.055084 
L 329.124147 136.576066 
L 329.578811 133.57086 
L 330.033474 131.419641 
L 330.488138 129.849553 
L 330.942801 128.718718 
L 331.397465 127.946772 
L 331.852128 127.487095 
L 332.306792 127.31431 
L 332.761455 127.418568 
L 333.216119 127.803524 
L 333.670782 128.487074 
L 334.125446 129.505183 
L 334.580109 130.92071 
L 335.034772 132.842566 
L 335.489436 135.470646 
L 335.944099 139.220508 
L 336.398763 145.191695 
L 336.853426 158.78053 
L 337.30809 156.521694 
L 337.762753 144.526757 
L 338.217417 138.924802 
L 338.67208 135.370238 
L 339.126744 132.879776 
L 339.581407 131.069643 
L 340.036071 129.752266 
L 340.490734 128.824604 
L 340.945398 128.227046 
L 341.400061 127.925691 
L 341.854725 127.904162 
L 342.309388 128.160137 
L 342.764052 128.70488 
L 343.218715 129.565565 
L 343.673379 130.791491 
L 344.128042 132.467585 
L 344.582706 134.744665 
L 345.037369 137.916411 
L 345.492032 142.665974 
L 345.946696 151.312441 
L 346.401359 176.583524 
L 346.856023 148.967224 
L 347.310686 141.602029 
L 347.76535 137.325092 
L 348.220013 134.425426 
L 348.674677 132.340911 
L 349.12934 130.818347 
L 349.584004 129.724476 
L 350.038667 128.983414 
L 350.493331 128.551215 
L 350.947994 128.404343 
L 351.402658 128.534443 
L 351.857321 128.946628 
L 352.311985 129.660518 
L 352.766648 130.714484 
L 353.221312 132.175257 
L 353.675975 134.158864 
L 354.130639 136.880447 
L 354.585302 140.795989 
L 355.039966 147.161085 
L 355.494629 163.121697 
L 355.949292 155.426638 
L 356.403956 144.779382 
L 356.858619 139.494178 
L 357.313283 136.084535 
L 357.767946 133.679503 
L 358.22261 131.927549 
L 358.677273 130.653931 
L 359.131937 129.761823 
L 359.5866 129.195108 
L 360.041264 128.922136 
L 360.495927 128.928224 
L 360.950591 129.212566 
L 361.405254 129.788076 
L 361.859918 130.684073 
L 362.314581 131.953101 
L 362.769245 133.68571 
L 363.223908 136.043919 
L 363.678572 139.348122 
L 364.133235 144.366006 
L 364.587899 153.90517 
L 365.042562 168.713478 
L 365.497226 148.773568 
L 365.951889 141.959173 
L 366.406552 137.889281 
L 366.861216 135.101187 
L 367.315879 133.088662 
L 367.770543 131.618219 
L 368.225206 130.565437 
L 368.67987 129.859094 
L 369.134533 129.45807 
L 369.589197 129.340807 
L 370.04386 129.500585 
L 370.498524 129.944146 
L 370.953187 130.693073 
L 371.407851 131.78852 
L 371.862514 133.301765 
L 372.317178 135.357334 
L 372.771841 138.188938 
L 373.226505 142.303429 
L 373.681168 149.166162 
L 374.135832 169.209148 
L 374.590495 154.34851 
L 375.045159 144.863423 
L 375.499822 139.89128 
L 375.954486 136.631136 
L 376.409149 134.316395 
L 376.863812 132.627006 
L 377.318476 131.401101 
L 377.773139 130.548209 
L 378.227803 130.015841 
L 378.682466 129.774723 
L 379.13713 129.81199 
L 379.591793 130.128502 
L 380.046457 130.739021 
L 380.50112 131.675314 
L 380.955784 132.993691 
L 381.410447 134.791326 
L 381.865111 137.243691 
L 382.319774 140.704134 
L 382.774438 146.049786 
L 383.229101 156.810941 
L 383.683765 164.207282 
L 384.138428 148.456832 
L 384.593092 142.15949 
L 385.047755 138.297175 
L 385.502419 135.624419 
L 385.957082 133.687801 
L 386.411746 132.273144 
L 386.866409 131.264878 
L 387.321073 130.596533 
L 387.775736 130.22992 
L 388.230399 130.145567 
L 388.685063 130.338513 
L 389.139726 130.817301 
L 389.59439 131.60572 
L 390.049053 132.748118 
L 390.503717 134.321072 
L 390.95838 136.459187 
L 391.413044 139.418732 
L 391.867707 143.770718 
L 392.322371 151.267482 
L 392.777034 180.869339 
L 393.231698 153.297949 
L 393.686361 144.812148 
L 394.141025 140.143629 
L 394.595688 137.034635 
L 395.050352 134.813366 
L 395.505015 133.189832 
L 395.959679 132.014803 
L 396.414342 131.204177 
L 396.869006 130.709158 
L 397.323669 130.502941 
L 397.778333 130.574581 
L 398.232996 130.926747 
L 398.687659 131.57625 
L 399.142323 132.557624 
L 399.596986 133.931514 
L 400.05165 135.802858 
L 400.506313 138.363221 
L 400.960977 142.006626 
L 401.41564 147.753271 
L 401.870304 160.262869 
L 402.324967 161.033466 
L 402.779631 148.048559 
L 403.234294 142.229954 
L 403.688958 138.572121 
L 404.143621 136.016431 
L 404.598285 134.158354 
L 405.052948 132.802252 
L 405.507612 131.841253 
L 405.962275 131.213646 
L 406.416939 130.884227 
L 406.871602 130.835695 
L 407.326266 131.064964 
L 407.780929 131.582538 
L 408.235593 132.414673 
L 408.690256 133.609348 
L 409.144919 135.249282 
L 409.599583 137.480987 
L 410.054246 140.588104 
L 410.50891 145.223012 
L 410.963573 153.540573 
L 411.418237 186.598876 
L 411.8729 152.279366 
L 412.327564 144.652276 
L 412.782227 140.273865 
L 413.236891 137.315197 
L 413.691554 135.189061 
L 414.146218 133.633642 
L 414.600881 132.511901 
L 415.055545 131.746001 
L 415.510208 131.290854 
L 415.964872 131.122172 
L 416.419535 131.231029 
L 416.874199 131.622026 
L 417.328862 132.314232 
L 417.783526 133.345291 
L 418.238189 134.780812 
L 418.692853 136.734788 
L 419.147516 139.418013 
L 419.602179 143.274869 
L 420.056843 149.515254 
L 420.511506 164.725237 
L 420.96617 158.567209 
L 421.420833 147.571979 
L 421.875497 142.192331 
L 422.33016 138.733154 
L 422.784824 136.294539 
L 423.239487 134.516496 
L 423.694151 133.220899 
L 424.148814 132.30929 
L 424.603478 131.724654 
L 425.058141 131.434785 
L 425.512805 131.424617 
L 425.967468 131.69304 
L 426.422132 132.252683 
L 426.876795 133.132538 
L 427.331459 134.384695 
L 427.786122 136.098954 
L 428.240786 138.435867 
L 428.695449 141.712322 
L 429.150113 146.684745 
L 429.604776 156.092413 
L 430.059439 171.901548 
L 430.514103 151.293131 
L 430.968766 144.40483 
L 431.42343 140.300453 
L 431.878093 137.489313 
L 432.332757 135.458668 
L 432.78742 133.972708 
L 433.242084 132.905976 
L 433.696747 132.186717 
L 434.151411 131.773511 
L 434.606074 131.644617 
L 435.060738 131.793196 
L 435.515401 132.225917 
L 435.970065 132.96431 
L 436.424728 134.049501 
L 436.879392 135.552758 
L 437.334055 137.598617 
L 437.788719 140.420856 
L 438.243382 144.526532 
L 438.698046 151.381938 
L 439.152709 171.437304 
L 439.607373 156.533748 
L 440.062036 147.043799 
L 440.5167 142.063983 
L 440.971363 138.795715 
L 441.426026 136.472794 
L 441.88069 134.775302 
L 442.335353 133.541435 
L 442.790017 132.680771 
L 443.24468 132.140869 
L 443.699344 131.892512 
L 444.154007 131.922904 
L 444.608671 132.23301 
L 445.063334 132.837746 
L 445.517998 133.769124 
L 445.972661 135.083868 
L 446.427325 136.879925 
L 446.881988 139.334379 
L 447.336652 142.804621 
L 447.791315 148.181639 
L 448.245979 159.095382 
L 448.700642 165.739804 
L 449.155306 150.337091 
L 449.609969 144.085994 
L 450.064633 140.238254 
L 450.519296 137.57037 
L 450.97396 135.634496 
L 451.428623 134.218546 
L 451.883286 133.207933 
L 452.33795 132.536736 
L 452.792613 132.167125 
L 453.247277 132.079914 
L 453.70194 132.270413 
L 454.156604 132.747479 
L 454.611267 133.535327 
L 455.065931 134.678961 
L 455.520594 136.256085 
L 455.975258 138.4035 
L 456.429921 141.382493 
L 456.884585 145.778727 
L 457.339248 153.413775 
L 457.793912 187.207682 
L 458.248575 154.787961 
L 458.703239 146.475776 
L 459.157902 141.858603 
L 459.612566 138.772249 
L 460.067229 136.562557 
L 460.521893 134.945313 
L 460.976556 133.773768 
L 461.43122 132.965097 
L 461.885883 132.471269 
L 462.340546 132.266016 
L 462.79521 132.338845 
L 463.249873 132.69288 
L 463.704537 133.345493 
L 464.1592 134.332015 
L 464.613864 135.71438 
L 465.068527 137.59989 
L 465.523191 140.185106 
L 465.977854 143.876975 
L 466.432518 149.743068 
L 466.887181 162.872314 
L 467.341845 161.784609 
L 467.796508 149.407549 
L 468.251172 143.707916 
L 468.705835 140.099022 
L 469.160499 137.569082 
L 469.615162 135.726408 
L 470.069826 134.380354 
L 470.524489 133.426436 
L 470.979153 132.804279 
L 471.433816 132.479541 
L 471.88848 132.435579 
L 472.343143 132.669904 
L 472.797806 133.193686 
L 473.25247 134.034054 
L 473.707133 135.240321 
L 474.161797 136.897503 
L 474.61646 139.156658 
L 475.071124 142.312098 
L 475.525787 147.048989 
L 475.980451 155.697531 
L 476.435114 180.571037 
L 476.889778 153.243816 
L 477.344441 145.87596 
L 477.799105 141.586844 
L 478.253768 138.672682 
L 478.708432 136.572932 
L 479.163095 135.03496 
L 479.617759 133.925785 
L 480.072422 133.1697 
L 480.527086 132.722903 
L 480.981749 132.562013 
L 481.436413 132.678856 
L 481.891076 133.078803 
L 482.34574 133.78185 
L 482.800403 134.826971 
L 483.255066 136.281946 
L 483.70973 138.264806 
L 484.164393 140.995093 
L 484.619057 144.940742 
L 485.07372 151.405339 
L 485.528384 168.173731 
L 486.437711 148.499899 
L 486.892374 143.279426 
L 487.347038 139.891839 
L 487.801701 137.493856 
L 488.256365 135.742154 
L 488.711028 134.465332 
L 489.165692 133.568228 
L 489.620355 132.995699 
L 490.075019 132.716771 
L 490.529682 132.717318 
L 490.984346 132.997104 
L 491.439009 133.569732 
L 491.893673 134.465492 
L 492.348336 135.738472 
L 492.803 137.481983 
L 493.257663 139.863665 
L 493.712327 143.217616 
L 494.16699 148.356391 
L 495.076317 169.701048 
L 495.53098 151.845915 
L 495.985644 145.249598 
L 496.440307 141.256822 
L 496.894971 138.504795 
L 497.349634 136.511094 
L 497.804298 135.050867 
L 498.258961 134.003645 
L 498.713625 133.300342 
L 499.168288 132.901184 
L 499.622952 132.785604 
L 500.077615 132.947763 
L 500.532279 133.395353 
L 500.986942 134.151177 
L 501.441606 135.258201 
L 501.896269 136.790748 
L 502.350933 138.87916 
L 502.805596 141.770142 
L 503.26026 146.007232 
L 503.714923 153.216779 
L 504.169587 177.664859 
L 504.62425 156.490288 
L 505.078913 147.609047 
L 505.533577 142.806672 
L 505.98824 139.623513 
L 506.442904 137.351101 
L 506.897567 135.687652 
L 507.352231 134.47895 
L 507.806894 133.638386 
L 508.261558 133.115727 
L 508.716221 132.883233 
L 509.170885 132.929269 
L 509.625548 133.25589 
L 510.080212 133.879263 
L 510.534875 134.83309 
L 510.989539 136.176755 
L 511.444202 138.012962 
L 511.898866 140.528648 
L 512.353529 144.106044 
L 512.808193 149.722988 
L 513.262856 161.680276 
L 513.71752 164.203291 
L 514.172183 150.556167 
L 514.626847 144.599751 
L 515.08151 140.874493 
L 515.536173 138.274492 
L 515.990837 136.382519 
L 516.4455 134.998069 
L 516.900164 134.011981 
L 517.354827 133.361305 
L 517.809491 133.010076 
L 518.264154 132.940469 
L 518.718818 133.148977 
L 519.173481 133.645704 
L 519.628145 134.456441 
L 520.082808 135.628519 
L 520.537472 137.243588 
L 520.992135 139.446106 
L 521.446799 142.514974 
L 521.901462 147.088237 
L 522.356126 155.246601 
L 522.810789 194.850381 
L 523.265453 154.497634 
L 523.720116 146.729671 
L 524.17478 142.293649 
L 524.629443 139.298923 
L 525.084107 137.145498 
L 525.53877 135.567219 
L 525.993433 134.425161 
L 526.448097 133.640524 
L 526.90276 133.167666 
L 527.357424 132.981945 
L 527.812087 133.074178 
L 528.266751 133.448758 
L 528.721414 134.12454 
L 529.176078 135.138916 
L 529.630741 136.55712 
L 530.085405 138.492487 
L 530.540068 141.154431 
L 530.994732 144.983682 
L 531.449395 151.175951 
L 531.904059 166.15217 
L 532.358722 160.467281 
L 532.813386 149.346829 
L 533.268049 143.927712 
L 533.722713 140.443928 
L 534.177376 137.985988 
L 534.63204 136.191134 
L 535.086703 134.880143 
L 535.541367 133.954036 
L 535.99603 133.355515 
L 536.450693 133.052215 
L 536.905357 133.02897 
L 537.36002 133.28461 
L 537.814684 133.831728 
L 538.269347 134.699302 
L 538.724011 135.939429 
L 539.178674 137.641948 
L 539.633338 139.967513 
L 540.088001 143.233284 
L 540.542665 148.196587 
L 540.997328 157.602168 
L 541.451992 173.315305 
L 541.906655 152.750916 
L 542.361319 145.856367 
L 542.815982 141.742624 
L 543.270646 138.92131 
L 543.725309 136.880227 
L 544.179973 135.383765 
L 544.634636 134.306568 
L 545.0893 133.576948 
L 545.543963 133.153539 
L 545.543963 133.153539 
" clip-path="url(#pf6a1d822dc)" style="fill: none; stroke: #1f77b4; stroke-linecap: square"/>
   </g>
   <g id="patch_3">
    <path d="M 57.167188 250.421875 
L 57.167188 24.12 
" style="fill: none; stroke: #000000; stroke-width: 0.8; stroke-linejoin: miter; stroke-linecap: square"/>
   </g>
   <g id="patch_4">
    <path d="M 568.8 250.421875 
L 568.8 24.12 
" style="fill: none; stroke: #000000; stroke-width: 0.8; stroke-linejoin: miter; stroke-linecap: square"/>
   </g>
   <g id="patch_5">
    <path d="M 57.167187 250.421875 
L 568.8 250.421875 
" style="fill: none; stroke: #000000; stroke-width: 0.8; stroke-linejoin: miter; stroke-linecap: square"/>
   </g>
   <g id="patch_6">
    <path d="M 57.167187 24.12 
L 568.8 24.12 
" style="fill: none; stroke: #000000; stroke-width: 0.8; stroke-linejoin: miter; stroke-linecap: square"/>
   </g>
   <g id="text_17">
    <!-- Magnitude response, $|H(\omega)|^2$ -->
    <g transform="translate(226.883594 18.12) scale(0.12 -0.12)">
     <defs>
      <path id="DejaVuSans-4d" d="M 628 4666 
L 1569 4666 
L 2759 1491 
L 3956 4666 
L 4897 4666 
L 4897 0 
L 4281 0 
L 4281 4097 
L 3078 897 
L 2444 897 
L 1241 4097 
L 1241 0 
L 628 0 
L 628 4666 
z
" transform="scale(0.015625)"/>
      <path id="DejaVuSans-67" d="M 2906 1791 
Q 2906 2416 2648 2759 
Q 2391 3103 1925 3103 
Q 1463 3103 1205 2759 
Q 947 2416 947 1791 
Q 947 1169 1205 825 
Q 1463 481 1925 481 
Q 2391 481 2648 825 
Q 2906 1169 2906 1791 
z
M 3481 434 
Q 3481 -459 3084 -895 
Q 2688 -1331 1869 -1331 
Q 1566 -1331 1297 -1286 
Q 1028 -1241 775 -1147 
L 775 -588 
Q 1028 -725 1275 -790 
Q 1522 -856 1778 -856 
Q 2344 -856 2625 -561 
Q 2906 -266 2906 331 
L 2906 616 
Q 2728 306 2450 153 
Q 2172 0 1784 0 
Q 1141 0 747 490 
Q 353 981 353 1791 
Q 353 2603 747 3093 
Q 1141 3584 1784 3584 
Q 2172 3584 2450 3431 
Q 2728 3278 2906 2969 
L 2906 3500 
L 3481 3500 
L 3481 434 
z
" transform="scale(0.015625)"/>
      <path id="DejaVuSans-74" d="M 1172 4494 
L 1172 3500 
L 2356 3500 
L 2356 3053 
L 1172 3053 
L 1172 1153 
Q 1172 725 1289 603 
Q 1406 481 1766 481 
L 2356 481 
L 2356 0 
L 1766 0 
Q 1100 0 847 248 
Q 594 497 594 1153 
L 594 3053 
L 172 3053 
L 172 3500 
L 594 3500 
L 594 4494 
L 1172 4494 
z
" transform="scale(0.015625)"/>
      <path id="DejaVuSans-73" d="M 2834 3397 
L 2834 2853 
Q 2591 2978 2328 3040 
Q 2066 3103 1784 3103 
Q 1356 3103 1142 2972 
Q 928 2841 928 2578 
Q 928 2378 1081 2264 
Q 1234 2150 1697 2047 
L 1894 2003 
Q 2506 1872 2764 1633 
Q 3022 1394 3022 966 
Q 3022 478 2636 193 
Q 2250 -91 1575 -91 
Q 1294 -91 989 -36 
Q 684 19 347 128 
L 347 722 
Q 666 556 975 473 
Q 1284 391 1588 391 
Q 1994 391 2212 530 
Q 2431 669 2431 922 
Q 2431 1156 2273 1281 
Q 2116 1406 1581 1522 
L 1381 1569 
Q 847 1681 609 1914 
Q 372 2147 372 2553 
Q 372 3047 722 3315 
Q 1072 3584 1716 3584 
Q 2034 3584 2315 3537 
Q 2597 3491 2834 3397 
z
" transform="scale(0.015625)"/>
      <path id="DejaVuSans-70" d="M 1159 525 
L 1159 -1331 
L 581 -1331 
L 581 3500 
L 1159 3500 
L 1159 2969 
Q 1341 3281 1617 3432 
Q 1894 3584 2278 3584 
Q 2916 3584 3314 3078 
Q 3713 2572 3713 1747 
Q 3713 922 3314 415 
Q 2916 -91 2278 -91 
Q 1894 -91 1617 61 
Q 1341 213 1159 525 
z
M 3116 1747 
Q 3116 2381 2855 2742 
Q 2594 3103 2138 3103 
Q 1681 3103 1420 2742 
Q 1159 2381 1159 1747 
Q 1159 1113 1420 752 
Q 1681 391 2138 391 
Q 2594 391 2855 752 
Q 3116 1113 3116 1747 
z
" transform="scale(0.015625)"/>
     </defs>
     <use xlink:href="#DejaVuSans-4d" transform="translate(0 0.765625)"/>
     <use xlink:href="#DejaVuSans-61" transform="translate(86.279297 0.765625)"/>
     <use xlink:href="#DejaVuSans-67" transform="translate(147.558594 0.765625)"/>
     <use xlink:href="#DejaVuSans-6e" transform="translate(211.035156 0.765625)"/>
     <use xlink:href="#DejaVuSans-69" transform="translate(274.414062 0.765625)"/>
     <use xlink:href="#DejaVuSans-74" transform="translate(302.197266 0.765625)"/>
     <use xlink:href="#DejaVuSans-75" transform="translate(341.40625 0.765625)"/>
     <use xlink:href="#DejaVuSans-64" transform="translate(404.785156 0.765625)"/>
     <use xlink:href="#DejaVuSans-65" transform="translate(468.261719 0.765625)"/>
     <use xlink:href="#DejaVuSans-20" transform="translate(529.785156 0.765625)"/>
     <use xlink:href="#DejaVuSans-72" transform="translate(561.572266 0.765625)"/>
     <use xlink:href="#DejaVuSans-65" transform="translate(602.685547 0.765625)"/>
     <use xlink:href="#DejaVuSans-73" transform="translate(664.208984 0.765625)"/>
     <use xlink:href="#DejaVuSans-70" transform="translate(716.308594 0.765625)"/>
     <use xlink:href="#DejaVuSans-6f" transform="translate(779.785156 0.765625)"/>
     <use xlink:href="#DejaVuSans-6e" transform="translate(840.966797 0.765625)"/>
     <use xlink:href="#DejaVuSans-73" transform="translate(904.345703 0.765625)"/>
     <use xlink:href="#DejaVuSans-65" transform="translate(956.445312 0.765625)"/>
     <use xlink:href="#DejaVuSans-2c" transform="translate(1017.96875 0.765625)"/>
     <use xlink:href="#DejaVuSans-20" transform="translate(1049.755859 0.765625)"/>
     <use xlink:href="#DejaVuSans-7c" transform="translate(1081.542969 0.765625)"/>
     <use xlink:href="#DejaVuSans-Oblique-48" transform="translate(1115.234375 0.765625)"/>
     <use xlink:href="#DejaVuSans-28" transform="translate(1190.429688 0.765625)"/>
     <use xlink:href="#DejaVuSans-Oblique-3c9" transform="translate(1229.443359 0.765625)"/>
     <use xlink:href="#DejaVuSans-29" transform="translate(1313.183594 0.765625)"/>
     <use xlink:href="#DejaVuSans-7c" transform="translate(1352.197266 0.765625)"/>
     <use xlink:href="#DejaVuSans-32" transform="translate(1386.845703 39.046875) scale(0.7)"/>
    </g>
   </g>
  </g>
 </g>
 <defs>
  <clipPath id="pf6a1d822dc">
   <rect x="57.167188" y="24.12" width="511.632813" height="226.301875"/>
  </clipPath>
 </defs>
</svg>
