<?xml version="1.0" encoding="utf-8" standalone="no"?>
<!DOCTYPE svg PUBLIC "-//W3C//DTD SVG 1.1//EN"
  "http://www.w3.org/Graphics/SVG/1.1/DTD/svg11.dtd">
<svg xmlns:xlink="http://www.w3.org/1999/xlink" width="576pt" height="288pt" viewBox="0 0 576 288" xmlns="http://www.w3.org/2000/svg" version="1.1">
 <metadata>
  <rdf:RDF xmlns:dc="http://purl.org/dc/elements/1.1/" xmlns:cc="http://creativecommons.org/ns#" xmlns:rdf="http://www.w3.org/1999/02/22-rdf-syntax-ns#">
   <cc:Work>
    <dc:type rdf:resource="http://purl.org/dc/dcmitype/StillImage"/>
    <dc:date>2025-05-10T16:32:47.087185</dc:date>
    <dc:format>image/svg+xml</dc:format>
    <dc:creator>
     <cc:Agent>
      <dc:title>Matplotlib v3.10.3, https://matplotlib.org/</dc:title>
     </cc:Agent>
    </dc:creator>
   </cc:Work>
  </rdf:RDF>
 </metadata>
 <defs>
  <style type="text/css">*{stroke-linejoin: round; stroke-linecap: butt}</style>
 </defs>
 <g id="figure_1">
  <g id="patch_1">
   <path d="M 0 288 
L 576 288 
L 576 0 
L 0 0 
z
" style="fill: #ffffff"/>
  </g>
  <g id="axes_1">
   <g id="patch_2">
    <path d="M 43.78125 250.44375 
L 568.8 250.44375 
L 568.8 22.318125 
L 43.78125 22.318125 
z
" style="fill: #ffffff"/>
   </g>
   <g id="FillBetweenPolyCollection_1">
    <defs>
     <path id="m263f28fdcf" d="M 307.837599 -37.55625 
L 307.837599 -37.55625 
L 308.249592 -37.55625 
L 308.661585 -37.55625 
L 309.073577 -37.55625 
L 309.48557 -37.55625 
L 309.897563 -37.55625 
L 310.309556 -37.55625 
L 310.721549 -37.55625 
L 311.133542 -37.55625 
L 311.545535 -37.55625 
L 311.957528 -37.55625 
L 312.369521 -37.55625 
L 312.781514 -37.55625 
L 313.193506 -37.55625 
L 313.605499 -37.55625 
L 314.017492 -37.55625 
L 314.429485 -37.55625 
L 314.841478 -37.55625 
L 315.253471 -37.55625 
L 315.665464 -37.55625 
L 316.077457 -37.55625 
L 316.48945 -37.55625 
L 316.901443 -37.55625 
L 317.313435 -37.55625 
L 317.725428 -37.55625 
L 318.137421 -37.55625 
L 318.549414 -37.55625 
L 318.961407 -37.55625 
L 319.3734 -37.55625 
L 319.785393 -37.55625 
L 320.197386 -37.55625 
L 320.609379 -37.55625 
L 321.021372 -37.55625 
L 321.433364 -37.55625 
L 321.845357 -37.55625 
L 322.25735 -37.55625 
L 322.669343 -37.55625 
L 323.081336 -37.55625 
L 323.493329 -37.55625 
L 323.905322 -37.55625 
L 324.317315 -37.55625 
L 324.729308 -37.55625 
L 325.1413 -37.55625 
L 325.553293 -37.55625 
L 325.965286 -37.55625 
L 326.377279 -37.55625 
L 326.789272 -37.55625 
L 327.201265 -37.55625 
L 327.613258 -37.55625 
L 328.025251 -37.55625 
L 328.437244 -37.55625 
L 328.849237 -37.55625 
L 329.261229 -37.55625 
L 329.673222 -37.55625 
L 330.085215 -37.55625 
L 330.497208 -37.55625 
L 330.909201 -37.55625 
L 331.321194 -37.55625 
L 331.733187 -37.55625 
L 332.14518 -37.55625 
L 332.557173 -37.55625 
L 332.969166 -37.55625 
L 333.381158 -37.55625 
L 333.793151 -37.55625 
L 334.205144 -37.55625 
L 334.617137 -37.55625 
L 335.02913 -37.55625 
L 335.441123 -37.55625 
L 335.853116 -37.55625 
L 336.265109 -37.55625 
L 336.677102 -37.55625 
L 337.089095 -37.55625 
L 337.501087 -37.55625 
L 337.91308 -37.55625 
L 338.325073 -37.55625 
L 338.737066 -37.55625 
L 339.149059 -37.55625 
L 339.561052 -37.55625 
L 339.973045 -37.55625 
L 340.385038 -37.55625 
L 340.797031 -37.55625 
L 341.209024 -37.55625 
L 341.621016 -37.55625 
L 342.033009 -37.55625 
L 342.445002 -37.55625 
L 342.856995 -37.55625 
L 343.268988 -37.55625 
L 343.680981 -37.55625 
L 344.092974 -37.55625 
L 344.504967 -37.55625 
L 344.91696 -37.55625 
L 345.328953 -37.55625 
L 345.740945 -37.55625 
L 346.152938 -37.55625 
L 346.564931 -37.55625 
L 346.976924 -37.55625 
L 347.388917 -37.55625 
L 347.80091 -37.55625 
L 348.212903 -37.55625 
L 348.624896 -37.55625 
L 349.036889 -37.55625 
L 349.448882 -37.55625 
L 349.860874 -37.55625 
L 350.272867 -37.55625 
L 350.68486 -37.55625 
L 351.096853 -37.55625 
L 351.508846 -37.55625 
L 351.920839 -37.55625 
L 352.332832 -37.55625 
L 352.744825 -37.55625 
L 353.156818 -37.55625 
L 353.568811 -37.55625 
L 353.980803 -37.55625 
L 354.392796 -37.55625 
L 354.804789 -37.55625 
L 355.216782 -37.55625 
L 355.628775 -37.55625 
L 356.040768 -37.55625 
L 356.452761 -37.55625 
L 356.864754 -37.55625 
L 357.276747 -37.55625 
L 357.68874 -37.55625 
L 358.100732 -37.55625 
L 358.512725 -37.55625 
L 358.924718 -37.55625 
L 359.336711 -37.55625 
L 359.748704 -37.55625 
L 360.160697 -37.55625 
L 360.57269 -37.55625 
L 360.984683 -37.55625 
L 361.396676 -37.55625 
L 361.808668 -37.55625 
L 362.220661 -37.55625 
L 362.632654 -37.55625 
L 363.044647 -37.55625 
L 363.45664 -37.55625 
L 363.868633 -37.55625 
L 364.280626 -37.55625 
L 364.692619 -37.55625 
L 365.104612 -37.55625 
L 365.516605 -37.55625 
L 365.928597 -37.55625 
L 366.34059 -37.55625 
L 366.752583 -37.55625 
L 367.164576 -37.55625 
L 367.576569 -37.55625 
L 367.988562 -37.55625 
L 368.400555 -37.55625 
L 368.812548 -37.55625 
L 369.224541 -37.55625 
L 369.636534 -37.55625 
L 370.048526 -37.55625 
L 370.460519 -37.55625 
L 370.872512 -37.55625 
L 371.284505 -37.55625 
L 371.696498 -37.55625 
L 372.108491 -37.55625 
L 372.520484 -37.55625 
L 372.932477 -37.55625 
L 373.34447 -37.55625 
L 373.756463 -37.55625 
L 374.168455 -37.55625 
L 374.580448 -37.55625 
L 374.992441 -37.55625 
L 375.404434 -37.55625 
L 375.816427 -37.55625 
L 376.22842 -37.55625 
L 376.640413 -37.55625 
L 377.052406 -37.55625 
L 377.464399 -37.55625 
L 377.876392 -37.55625 
L 378.288384 -37.55625 
L 378.700377 -37.55625 
L 379.11237 -37.55625 
L 379.524363 -37.55625 
L 379.936356 -37.55625 
L 380.348349 -37.55625 
L 380.760342 -37.55625 
L 381.172335 -37.55625 
L 381.584328 -37.55625 
L 381.996321 -37.55625 
L 382.408313 -37.55625 
L 382.820306 -37.55625 
L 383.232299 -37.55625 
L 383.644292 -37.55625 
L 384.056285 -37.55625 
L 384.468278 -37.55625 
L 384.880271 -37.55625 
L 385.292264 -37.55625 
L 385.704257 -37.55625 
L 386.11625 -37.55625 
L 386.528242 -37.55625 
L 386.940235 -37.55625 
L 387.352228 -37.55625 
L 387.764221 -37.55625 
L 388.176214 -37.55625 
L 388.588207 -37.55625 
L 389.0002 -37.55625 
L 389.412193 -37.55625 
L 389.824186 -37.55625 
L 390.236179 -37.55625 
L 390.648171 -37.55625 
L 391.060164 -37.55625 
L 391.472157 -37.55625 
L 391.88415 -37.55625 
L 392.296143 -37.55625 
L 392.708136 -37.55625 
L 393.120129 -37.55625 
L 393.532122 -37.55625 
L 393.944115 -37.55625 
L 394.356108 -37.55625 
L 394.7681 -37.55625 
L 395.180093 -37.55625 
L 395.592086 -37.55625 
L 396.004079 -37.55625 
L 396.416072 -37.55625 
L 396.828065 -37.55625 
L 397.240058 -37.55625 
L 397.652051 -37.55625 
L 398.064044 -37.55625 
L 398.476037 -37.55625 
L 398.888029 -37.55625 
L 399.300022 -37.55625 
L 399.712015 -37.55625 
L 400.124008 -37.55625 
L 400.536001 -37.55625 
L 400.947994 -37.55625 
L 401.359987 -37.55625 
L 401.77198 -37.55625 
L 402.183973 -37.55625 
L 402.595965 -37.55625 
L 403.007958 -37.55625 
L 403.419951 -37.55625 
L 403.831944 -37.55625 
L 404.243937 -37.55625 
L 404.65593 -37.55625 
L 405.067923 -37.55625 
L 405.479916 -37.55625 
L 405.891909 -37.55625 
L 406.303902 -37.55625 
L 406.715894 -37.55625 
L 407.127887 -37.55625 
L 407.53988 -37.55625 
L 407.951873 -37.55625 
L 408.363866 -37.55625 
L 408.775859 -37.55625 
L 409.187852 -37.55625 
L 409.599845 -37.55625 
L 410.011838 -37.55625 
L 410.423831 -37.55625 
L 410.835823 -37.55625 
L 411.247816 -37.55625 
L 411.659809 -37.55625 
L 412.071802 -37.55625 
L 412.483795 -37.55625 
L 412.895788 -37.55625 
L 413.307781 -37.55625 
L 413.719774 -37.55625 
L 414.131767 -37.55625 
L 414.54376 -37.55625 
L 414.955752 -37.55625 
L 415.367745 -37.55625 
L 415.779738 -37.55625 
L 416.191731 -37.55625 
L 416.603724 -37.55625 
L 417.015717 -37.55625 
L 417.42771 -37.55625 
L 417.839703 -37.55625 
L 418.251696 -37.55625 
L 418.663689 -37.55625 
L 419.075681 -37.55625 
L 419.487674 -37.55625 
L 419.899667 -37.55625 
L 420.31166 -37.55625 
L 420.723653 -37.55625 
L 421.135646 -37.55625 
L 421.547639 -37.55625 
L 421.959632 -37.55625 
L 422.371625 -37.55625 
L 422.783618 -37.55625 
L 423.19561 -37.55625 
L 423.607603 -37.55625 
L 424.019596 -37.55625 
L 424.431589 -37.55625 
L 424.843582 -37.55625 
L 425.255575 -37.55625 
L 425.667568 -37.55625 
L 426.079561 -37.55625 
L 426.491554 -37.55625 
L 426.903547 -37.55625 
L 427.315539 -37.55625 
L 427.727532 -37.55625 
L 428.139525 -37.55625 
L 428.551518 -37.55625 
L 428.963511 -37.55625 
L 429.375504 -37.55625 
L 429.787497 -37.55625 
L 430.19949 -37.55625 
L 430.611483 -37.55625 
L 431.023476 -37.55625 
L 431.435468 -37.55625 
L 431.847461 -37.55625 
L 432.259454 -37.55625 
L 432.671447 -37.55625 
L 433.08344 -37.55625 
L 433.495433 -37.55625 
L 433.907426 -37.55625 
L 434.319419 -37.55625 
L 434.731412 -37.55625 
L 435.143405 -37.55625 
L 435.555397 -37.55625 
L 435.96739 -37.55625 
L 436.379383 -37.55625 
L 436.791376 -37.55625 
L 437.203369 -37.55625 
L 437.615362 -37.55625 
L 438.027355 -37.55625 
L 438.439348 -37.55625 
L 438.851341 -37.55625 
L 439.263334 -37.55625 
L 439.675326 -37.55625 
L 440.087319 -37.55625 
L 440.499312 -37.55625 
L 440.911305 -37.55625 
L 441.323298 -37.55625 
L 441.735291 -37.55625 
L 442.147284 -37.55625 
L 442.559277 -37.55625 
L 442.97127 -37.55625 
L 443.383262 -37.55625 
L 443.795255 -37.55625 
L 444.207248 -37.55625 
L 444.619241 -37.55625 
L 445.031234 -37.55625 
L 445.443227 -37.55625 
L 445.85522 -37.55625 
L 446.267213 -37.55625 
L 446.679206 -37.55625 
L 447.091199 -37.55625 
L 447.503191 -37.55625 
L 447.915184 -37.55625 
L 448.327177 -37.55625 
L 448.73917 -37.55625 
L 449.151163 -37.55625 
L 449.563156 -37.55625 
L 449.975149 -37.55625 
L 450.387142 -37.55625 
L 450.799135 -37.55625 
L 451.211128 -37.55625 
L 451.62312 -37.55625 
L 452.035113 -37.55625 
L 452.447106 -37.55625 
L 452.859099 -37.55625 
L 453.271092 -37.55625 
L 453.683085 -37.55625 
L 454.095078 -37.55625 
L 454.507071 -37.55625 
L 454.919064 -37.55625 
L 455.331057 -37.55625 
L 455.743049 -37.55625 
L 456.155042 -37.55625 
L 456.567035 -37.55625 
L 456.979028 -37.55625 
L 457.391021 -37.55625 
L 457.803014 -37.55625 
L 458.215007 -37.55625 
L 458.627 -37.55625 
L 459.038993 -37.55625 
L 459.450986 -37.55625 
L 459.862978 -37.55625 
L 460.274971 -37.55625 
L 460.686964 -37.55625 
L 461.098957 -37.55625 
L 461.51095 -37.55625 
L 461.922943 -37.55625 
L 462.334936 -37.55625 
L 462.746929 -37.55625 
L 463.158922 -37.55625 
L 463.570915 -37.55625 
L 463.982907 -37.55625 
L 464.3949 -37.55625 
L 464.806893 -37.55625 
L 465.218886 -37.55625 
L 465.630879 -37.55625 
L 466.042872 -37.55625 
L 466.454865 -37.55625 
L 466.866858 -37.55625 
L 467.278851 -37.55625 
L 467.690844 -37.55625 
L 468.102836 -37.55625 
L 468.514829 -37.55625 
L 468.926822 -37.55625 
L 469.338815 -37.55625 
L 469.750808 -37.55625 
L 470.162801 -37.55625 
L 470.574794 -37.55625 
L 470.986787 -37.55625 
L 471.39878 -37.55625 
L 471.810773 -37.55625 
L 472.222765 -37.55625 
L 472.634758 -37.55625 
L 473.046751 -37.55625 
L 473.458744 -37.55625 
L 473.870737 -37.55625 
L 474.28273 -37.55625 
L 474.694723 -37.55625 
L 475.106716 -37.55625 
L 475.518709 -37.55625 
L 475.930702 -37.55625 
L 476.342694 -37.55625 
L 476.754687 -37.55625 
L 477.16668 -37.55625 
L 477.578673 -37.55625 
L 477.990666 -37.55625 
L 478.402659 -37.55625 
L 478.814652 -37.55625 
L 479.226645 -37.55625 
L 479.638638 -37.55625 
L 479.638638 -37.55625 
L 479.638638 -37.556282 
L 479.226645 -37.556284 
L 478.814652 -37.556286 
L 478.402659 -37.556288 
L 477.990666 -37.556291 
L 477.578673 -37.556293 
L 477.16668 -37.556296 
L 476.754687 -37.556298 
L 476.342694 -37.556301 
L 475.930702 -37.556304 
L 475.518709 -37.556307 
L 475.106716 -37.556311 
L 474.694723 -37.556314 
L 474.28273 -37.556318 
L 473.870737 -37.556322 
L 473.458744 -37.556326 
L 473.046751 -37.55633 
L 472.634758 -37.556335 
L 472.222765 -37.55634 
L 471.810773 -37.556345 
L 471.39878 -37.556351 
L 470.986787 -37.556356 
L 470.574794 -37.556363 
L 470.162801 -37.556369 
L 469.750808 -37.556376 
L 469.338815 -37.556383 
L 468.926822 -37.55639 
L 468.514829 -37.556398 
L 468.102836 -37.556407 
L 467.690844 -37.556416 
L 467.278851 -37.556425 
L 466.866858 -37.556435 
L 466.454865 -37.556445 
L 466.042872 -37.556456 
L 465.630879 -37.556468 
L 465.218886 -37.55648 
L 464.806893 -37.556493 
L 464.3949 -37.556506 
L 463.982907 -37.556521 
L 463.570915 -37.556536 
L 463.158922 -37.556551 
L 462.746929 -37.556568 
L 462.334936 -37.556586 
L 461.922943 -37.556604 
L 461.51095 -37.556623 
L 461.098957 -37.556644 
L 460.686964 -37.556665 
L 460.274971 -37.556688 
L 459.862978 -37.556712 
L 459.450986 -37.556737 
L 459.038993 -37.556763 
L 458.627 -37.556791 
L 458.215007 -37.55682 
L 457.803014 -37.556851 
L 457.391021 -37.556883 
L 456.979028 -37.556917 
L 456.567035 -37.556953 
L 456.155042 -37.55699 
L 455.743049 -37.55703 
L 455.331057 -37.557071 
L 454.919064 -37.557115 
L 454.507071 -37.55716 
L 454.095078 -37.557208 
L 453.683085 -37.557259 
L 453.271092 -37.557312 
L 452.859099 -37.557368 
L 452.447106 -37.557426 
L 452.035113 -37.557488 
L 451.62312 -37.557552 
L 451.211128 -37.55762 
L 450.799135 -37.557691 
L 450.387142 -37.557766 
L 449.975149 -37.557844 
L 449.563156 -37.557926 
L 449.151163 -37.558012 
L 448.73917 -37.558103 
L 448.327177 -37.558198 
L 447.915184 -37.558297 
L 447.503191 -37.558402 
L 447.091199 -37.558511 
L 446.679206 -37.558626 
L 446.267213 -37.558747 
L 445.85522 -37.558873 
L 445.443227 -37.559005 
L 445.031234 -37.559144 
L 444.619241 -37.559289 
L 444.207248 -37.559441 
L 443.795255 -37.559601 
L 443.383262 -37.559768 
L 442.97127 -37.559943 
L 442.559277 -37.560126 
L 442.147284 -37.560318 
L 441.735291 -37.56052 
L 441.323298 -37.56073 
L 440.911305 -37.560951 
L 440.499312 -37.561181 
L 440.087319 -37.561423 
L 439.675326 -37.561675 
L 439.263334 -37.56194 
L 438.851341 -37.562217 
L 438.439348 -37.562506 
L 438.027355 -37.562809 
L 437.615362 -37.563126 
L 437.203369 -37.563457 
L 436.791376 -37.563804 
L 436.379383 -37.564166 
L 435.96739 -37.564545 
L 435.555397 -37.564941 
L 435.143405 -37.565355 
L 434.731412 -37.565787 
L 434.319419 -37.566239 
L 433.907426 -37.566712 
L 433.495433 -37.567205 
L 433.08344 -37.567721 
L 432.671447 -37.56826 
L 432.259454 -37.568822 
L 431.847461 -37.569409 
L 431.435468 -37.570023 
L 431.023476 -37.570663 
L 430.611483 -37.571332 
L 430.19949 -37.57203 
L 429.787497 -37.572758 
L 429.375504 -37.573519 
L 428.963511 -37.574312 
L 428.551518 -37.57514 
L 428.139525 -37.576003 
L 427.727532 -37.576904 
L 427.315539 -37.577844 
L 426.903547 -37.578824 
L 426.491554 -37.579845 
L 426.079561 -37.580911 
L 425.667568 -37.582022 
L 425.255575 -37.58318 
L 424.843582 -37.584387 
L 424.431589 -37.585645 
L 424.019596 -37.586955 
L 423.607603 -37.588321 
L 423.19561 -37.589744 
L 422.783618 -37.591227 
L 422.371625 -37.592771 
L 421.959632 -37.594379 
L 421.547639 -37.596054 
L 421.135646 -37.597797 
L 420.723653 -37.599613 
L 420.31166 -37.601503 
L 419.899667 -37.60347 
L 419.487674 -37.605518 
L 419.075681 -37.607649 
L 418.663689 -37.609866 
L 418.251696 -37.612173 
L 417.839703 -37.614573 
L 417.42771 -37.617069 
L 417.015717 -37.619666 
L 416.603724 -37.622366 
L 416.191731 -37.625174 
L 415.779738 -37.628093 
L 415.367745 -37.631128 
L 414.955752 -37.634282 
L 414.54376 -37.637561 
L 414.131767 -37.640969 
L 413.719774 -37.64451 
L 413.307781 -37.648189 
L 412.895788 -37.652011 
L 412.483795 -37.655981 
L 412.071802 -37.660105 
L 411.659809 -37.664388 
L 411.247816 -37.668835 
L 410.835823 -37.673453 
L 410.423831 -37.678247 
L 410.011838 -37.683223 
L 409.599845 -37.688388 
L 409.187852 -37.693749 
L 408.775859 -37.699311 
L 408.363866 -37.705083 
L 407.951873 -37.711071 
L 407.53988 -37.717282 
L 407.127887 -37.723725 
L 406.715894 -37.730407 
L 406.303902 -37.737336 
L 405.891909 -37.74452 
L 405.479916 -37.751969 
L 405.067923 -37.75969 
L 404.65593 -37.767694 
L 404.243937 -37.775988 
L 403.831944 -37.784584 
L 403.419951 -37.79349 
L 403.007958 -37.802717 
L 402.595965 -37.812276 
L 402.183973 -37.822177 
L 401.77198 -37.832431 
L 401.359987 -37.843049 
L 400.947994 -37.854044 
L 400.536001 -37.865427 
L 400.124008 -37.877211 
L 399.712015 -37.889409 
L 399.300022 -37.902032 
L 398.888029 -37.915096 
L 398.476037 -37.928613 
L 398.064044 -37.942598 
L 397.652051 -37.957065 
L 397.240058 -37.972029 
L 396.828065 -37.987506 
L 396.416072 -38.003511 
L 396.004079 -38.02006 
L 395.592086 -38.037169 
L 395.180093 -38.054857 
L 394.7681 -38.073139 
L 394.356108 -38.092034 
L 393.944115 -38.11156 
L 393.532122 -38.131737 
L 393.120129 -38.152582 
L 392.708136 -38.174116 
L 392.296143 -38.196359 
L 391.88415 -38.219331 
L 391.472157 -38.243055 
L 391.060164 -38.26755 
L 390.648171 -38.292841 
L 390.236179 -38.318949 
L 389.824186 -38.345897 
L 389.412193 -38.37371 
L 389.0002 -38.402411 
L 388.588207 -38.432027 
L 388.176214 -38.462581 
L 387.764221 -38.494101 
L 387.352228 -38.526613 
L 386.940235 -38.560145 
L 386.528242 -38.594724 
L 386.11625 -38.630378 
L 385.704257 -38.667138 
L 385.292264 -38.705032 
L 384.880271 -38.744091 
L 384.468278 -38.784347 
L 384.056285 -38.82583 
L 383.644292 -38.868574 
L 383.232299 -38.912612 
L 382.820306 -38.957977 
L 382.408313 -39.004704 
L 381.996321 -39.052828 
L 381.584328 -39.102385 
L 381.172335 -39.153411 
L 380.760342 -39.205945 
L 380.348349 -39.260023 
L 379.936356 -39.315686 
L 379.524363 -39.372972 
L 379.11237 -39.431922 
L 378.700377 -39.492577 
L 378.288384 -39.554979 
L 377.876392 -39.619171 
L 377.464399 -39.685196 
L 377.052406 -39.753098 
L 376.640413 -39.822923 
L 376.22842 -39.894717 
L 375.816427 -39.968525 
L 375.404434 -40.044396 
L 374.992441 -40.122378 
L 374.580448 -40.20252 
L 374.168455 -40.284872 
L 373.756463 -40.369485 
L 373.34447 -40.456411 
L 372.932477 -40.545701 
L 372.520484 -40.637411 
L 372.108491 -40.731592 
L 371.696498 -40.828302 
L 371.284505 -40.927595 
L 370.872512 -41.029529 
L 370.460519 -41.134161 
L 370.048526 -41.241549 
L 369.636534 -41.351754 
L 369.224541 -41.464834 
L 368.812548 -41.580852 
L 368.400555 -41.699869 
L 367.988562 -41.821947 
L 367.576569 -41.947151 
L 367.164576 -42.075545 
L 366.752583 -42.207195 
L 366.34059 -42.342165 
L 365.928597 -42.480525 
L 365.516605 -42.62234 
L 365.104612 -42.767681 
L 364.692619 -42.916616 
L 364.280626 -43.069216 
L 363.868633 -43.225551 
L 363.45664 -43.385695 
L 363.044647 -43.549719 
L 362.632654 -43.717697 
L 362.220661 -43.889703 
L 361.808668 -44.065813 
L 361.396676 -44.246101 
L 360.984683 -44.430646 
L 360.57269 -44.619523 
L 360.160697 -44.812811 
L 359.748704 -45.010589 
L 359.336711 -45.212935 
L 358.924718 -45.41993 
L 358.512725 -45.631655 
L 358.100732 -45.84819 
L 357.68874 -46.069618 
L 357.276747 -46.296022 
L 356.864754 -46.527483 
L 356.452761 -46.764087 
L 356.040768 -47.005917 
L 355.628775 -47.253057 
L 355.216782 -47.505594 
L 354.804789 -47.763612 
L 354.392796 -48.027197 
L 353.980803 -48.296437 
L 353.568811 -48.571417 
L 353.156818 -48.852226 
L 352.744825 -49.138951 
L 352.332832 -49.431679 
L 351.920839 -49.730499 
L 351.508846 -50.035499 
L 351.096853 -50.346768 
L 350.68486 -50.664394 
L 350.272867 -50.988467 
L 349.860874 -51.319074 
L 349.448882 -51.656306 
L 349.036889 -52.000251 
L 348.624896 -52.350999 
L 348.212903 -52.708638 
L 347.80091 -53.073257 
L 347.388917 -53.444945 
L 346.976924 -53.823791 
L 346.564931 -54.209883 
L 346.152938 -54.60331 
L 345.740945 -55.004158 
L 345.328953 -55.412516 
L 344.91696 -55.828471 
L 344.504967 -56.252108 
L 344.092974 -56.683516 
L 343.680981 -57.122779 
L 343.268988 -57.569981 
L 342.856995 -58.025209 
L 342.445002 -58.488545 
L 342.033009 -58.960072 
L 341.621016 -59.439873 
L 341.209024 -59.928028 
L 340.797031 -60.424619 
L 340.385038 -60.929725 
L 339.973045 -61.443424 
L 339.561052 -61.965794 
L 339.149059 -62.496911 
L 338.737066 -63.03685 
L 338.325073 -63.585686 
L 337.91308 -64.143489 
L 337.501087 -64.710333 
L 337.089095 -65.286286 
L 336.677102 -65.871417 
L 336.265109 -66.465793 
L 335.853116 -67.069479 
L 335.441123 -67.682538 
L 335.02913 -68.305032 
L 334.617137 -68.937022 
L 334.205144 -69.578565 
L 333.793151 -70.229717 
L 333.381158 -70.890534 
L 332.969166 -71.561066 
L 332.557173 -72.241364 
L 332.14518 -72.931477 
L 331.733187 -73.631449 
L 331.321194 -74.341325 
L 330.909201 -75.061144 
L 330.497208 -75.790947 
L 330.085215 -76.530769 
L 329.673222 -77.280643 
L 329.261229 -78.0406 
L 328.849237 -78.81067 
L 328.437244 -79.590876 
L 328.025251 -80.381243 
L 327.613258 -81.181789 
L 327.201265 -81.992533 
L 326.789272 -82.813487 
L 326.377279 -83.644662 
L 325.965286 -84.486067 
L 325.553293 -85.337705 
L 325.1413 -86.199579 
L 324.729308 -87.071685 
L 324.317315 -87.954019 
L 323.905322 -88.846573 
L 323.493329 -89.749333 
L 323.081336 -90.662283 
L 322.669343 -91.585406 
L 322.25735 -92.518677 
L 321.845357 -93.46207 
L 321.433364 -94.415554 
L 321.021372 -95.379095 
L 320.609379 -96.352656 
L 320.197386 -97.336194 
L 319.785393 -98.329663 
L 319.3734 -99.333013 
L 318.961407 -100.34619 
L 318.549414 -101.369137 
L 318.137421 -102.401791 
L 317.725428 -103.444086 
L 317.313435 -104.495951 
L 316.901443 -105.557312 
L 316.48945 -106.62809 
L 316.077457 -107.708201 
L 315.665464 -108.797557 
L 315.253471 -109.896068 
L 314.841478 -111.003635 
L 314.429485 -112.120159 
L 314.017492 -113.245535 
L 313.605499 -114.379652 
L 313.193506 -115.522396 
L 312.781514 -116.673648 
L 312.369521 -117.833286 
L 311.957528 -119.001182 
L 311.545535 -120.177203 
L 311.133542 -121.361213 
L 310.721549 -122.553069 
L 310.309556 -123.752626 
L 309.897563 -124.959734 
L 309.48557 -126.174238 
L 309.073577 -127.395977 
L 308.661585 -128.624788 
L 308.249592 -129.860501 
L 307.837599 -131.102944 
z
" style="stroke: #1f77b4; stroke-opacity: 0.1"/>
    </defs>
    <g clip-path="url(#p6cdeb325b1)">
     <use xlink:href="#m263f28fdcf" x="0" y="288" style="fill: #1f77b4; fill-opacity: 0.1; stroke: #1f77b4; stroke-opacity: 0.1"/>
    </g>
   </g>
   <g id="FillBetweenPolyCollection_2">
    <defs>
     <path id="m3ae4e0cb84" d="M 307.425606 -37.55625 
L 307.837599 -37.55625 
L 308.249592 -37.55625 
L 308.661585 -37.55625 
L 309.073577 -37.55625 
L 309.48557 -37.55625 
L 309.897563 -37.55625 
L 310.309556 -37.55625 
L 310.721549 -37.55625 
L 311.133542 -37.55625 
L 311.545535 -37.55625 
L 311.957528 -37.55625 
L 312.369521 -37.55625 
L 312.781514 -37.55625 
L 313.193506 -37.55625 
L 313.605499 -37.55625 
L 314.017492 -37.55625 
L 314.429485 -37.55625 
L 314.841478 -37.55625 
L 315.253471 -37.55625 
L 315.665464 -37.55625 
L 316.077457 -37.55625 
L 316.48945 -37.55625 
L 316.901443 -37.55625 
L 317.313435 -37.55625 
L 317.725428 -37.55625 
L 318.137421 -37.55625 
L 318.549414 -37.55625 
L 318.961407 -37.55625 
L 319.3734 -37.55625 
L 319.785393 -37.55625 
L 320.197386 -37.55625 
L 320.609379 -37.55625 
L 321.021372 -37.55625 
L 321.433364 -37.55625 
L 321.845357 -37.55625 
L 322.25735 -37.55625 
L 322.669343 -37.55625 
L 323.081336 -37.55625 
L 323.493329 -37.55625 
L 323.905322 -37.55625 
L 324.317315 -37.55625 
L 324.729308 -37.55625 
L 325.1413 -37.55625 
L 325.553293 -37.55625 
L 325.965286 -37.55625 
L 326.377279 -37.55625 
L 326.789272 -37.55625 
L 327.201265 -37.55625 
L 327.613258 -37.55625 
L 328.025251 -37.55625 
L 328.437244 -37.55625 
L 328.849237 -37.55625 
L 329.261229 -37.55625 
L 329.673222 -37.55625 
L 330.085215 -37.55625 
L 330.497208 -37.55625 
L 330.909201 -37.55625 
L 331.321194 -37.55625 
L 331.733187 -37.55625 
L 332.14518 -37.55625 
L 332.557173 -37.55625 
L 332.969166 -37.55625 
L 333.381158 -37.55625 
L 333.793151 -37.55625 
L 334.205144 -37.55625 
L 334.617137 -37.55625 
L 335.02913 -37.55625 
L 335.441123 -37.55625 
L 335.853116 -37.55625 
L 336.265109 -37.55625 
L 336.677102 -37.55625 
L 337.089095 -37.55625 
L 337.501087 -37.55625 
L 337.91308 -37.55625 
L 338.325073 -37.55625 
L 338.737066 -37.55625 
L 339.149059 -37.55625 
L 339.561052 -37.55625 
L 339.973045 -37.55625 
L 340.385038 -37.55625 
L 340.797031 -37.55625 
L 341.209024 -37.55625 
L 341.621016 -37.55625 
L 342.033009 -37.55625 
L 342.445002 -37.55625 
L 342.856995 -37.55625 
L 343.268988 -37.55625 
L 343.680981 -37.55625 
L 344.092974 -37.55625 
L 344.504967 -37.55625 
L 344.91696 -37.55625 
L 345.328953 -37.55625 
L 345.740945 -37.55625 
L 346.152938 -37.55625 
L 346.564931 -37.55625 
L 346.976924 -37.55625 
L 347.388917 -37.55625 
L 347.80091 -37.55625 
L 348.212903 -37.55625 
L 348.624896 -37.55625 
L 349.036889 -37.55625 
L 349.448882 -37.55625 
L 349.860874 -37.55625 
L 350.272867 -37.55625 
L 350.68486 -37.55625 
L 351.096853 -37.55625 
L 351.508846 -37.55625 
L 351.920839 -37.55625 
L 352.332832 -37.55625 
L 352.744825 -37.55625 
L 353.156818 -37.55625 
L 353.568811 -37.55625 
L 353.980803 -37.55625 
L 354.392796 -37.55625 
L 354.804789 -37.55625 
L 355.216782 -37.55625 
L 355.628775 -37.55625 
L 356.040768 -37.55625 
L 356.452761 -37.55625 
L 356.864754 -37.55625 
L 357.276747 -37.55625 
L 357.68874 -37.55625 
L 358.100732 -37.55625 
L 358.512725 -37.55625 
L 358.924718 -37.55625 
L 359.336711 -37.55625 
L 359.748704 -37.55625 
L 360.160697 -37.55625 
L 360.57269 -37.55625 
L 360.984683 -37.55625 
L 361.396676 -37.55625 
L 361.808668 -37.55625 
L 362.220661 -37.55625 
L 362.632654 -37.55625 
L 363.044647 -37.55625 
L 363.45664 -37.55625 
L 363.868633 -37.55625 
L 364.280626 -37.55625 
L 364.692619 -37.55625 
L 365.104612 -37.55625 
L 365.516605 -37.55625 
L 365.928597 -37.55625 
L 366.34059 -37.55625 
L 366.752583 -37.55625 
L 367.164576 -37.55625 
L 367.576569 -37.55625 
L 367.988562 -37.55625 
L 368.400555 -37.55625 
L 368.812548 -37.55625 
L 369.224541 -37.55625 
L 369.636534 -37.55625 
L 370.048526 -37.55625 
L 370.460519 -37.55625 
L 370.872512 -37.55625 
L 371.284505 -37.55625 
L 371.696498 -37.55625 
L 372.108491 -37.55625 
L 372.520484 -37.55625 
L 372.932477 -37.55625 
L 373.34447 -37.55625 
L 373.756463 -37.55625 
L 374.168455 -37.55625 
L 374.580448 -37.55625 
L 374.992441 -37.55625 
L 375.404434 -37.55625 
L 375.816427 -37.55625 
L 376.22842 -37.55625 
L 376.640413 -37.55625 
L 377.052406 -37.55625 
L 377.464399 -37.55625 
L 377.876392 -37.55625 
L 378.288384 -37.55625 
L 378.700377 -37.55625 
L 379.11237 -37.55625 
L 379.524363 -37.55625 
L 379.936356 -37.55625 
L 380.348349 -37.55625 
L 380.760342 -37.55625 
L 381.172335 -37.55625 
L 381.584328 -37.55625 
L 381.996321 -37.55625 
L 382.408313 -37.55625 
L 382.820306 -37.55625 
L 383.232299 -37.55625 
L 383.644292 -37.55625 
L 384.056285 -37.55625 
L 384.468278 -37.55625 
L 384.880271 -37.55625 
L 385.292264 -37.55625 
L 385.704257 -37.55625 
L 386.11625 -37.55625 
L 386.528242 -37.55625 
L 386.940235 -37.55625 
L 387.352228 -37.55625 
L 387.764221 -37.55625 
L 388.176214 -37.55625 
L 388.588207 -37.55625 
L 389.0002 -37.55625 
L 389.412193 -37.55625 
L 389.824186 -37.55625 
L 390.236179 -37.55625 
L 390.648171 -37.55625 
L 391.060164 -37.55625 
L 391.472157 -37.55625 
L 391.88415 -37.55625 
L 392.296143 -37.55625 
L 392.708136 -37.55625 
L 393.120129 -37.55625 
L 393.532122 -37.55625 
L 393.944115 -37.55625 
L 394.356108 -37.55625 
L 394.7681 -37.55625 
L 395.180093 -37.55625 
L 395.592086 -37.55625 
L 396.004079 -37.55625 
L 396.416072 -37.55625 
L 396.828065 -37.55625 
L 397.240058 -37.55625 
L 397.652051 -37.55625 
L 398.064044 -37.55625 
L 398.476037 -37.55625 
L 398.888029 -37.55625 
L 399.300022 -37.55625 
L 399.712015 -37.55625 
L 400.124008 -37.55625 
L 400.536001 -37.55625 
L 400.947994 -37.55625 
L 401.359987 -37.55625 
L 401.77198 -37.55625 
L 402.183973 -37.55625 
L 402.595965 -37.55625 
L 403.007958 -37.55625 
L 403.419951 -37.55625 
L 403.831944 -37.55625 
L 404.243937 -37.55625 
L 404.65593 -37.55625 
L 405.067923 -37.55625 
L 405.479916 -37.55625 
L 405.891909 -37.55625 
L 406.303902 -37.55625 
L 406.715894 -37.55625 
L 407.127887 -37.55625 
L 407.53988 -37.55625 
L 407.951873 -37.55625 
L 408.363866 -37.55625 
L 408.775859 -37.55625 
L 409.187852 -37.55625 
L 409.599845 -37.55625 
L 410.011838 -37.55625 
L 410.423831 -37.55625 
L 410.835823 -37.55625 
L 411.247816 -37.55625 
L 411.659809 -37.55625 
L 412.071802 -37.55625 
L 412.483795 -37.55625 
L 412.895788 -37.55625 
L 413.307781 -37.55625 
L 413.719774 -37.55625 
L 414.131767 -37.55625 
L 414.54376 -37.55625 
L 414.955752 -37.55625 
L 415.367745 -37.55625 
L 415.779738 -37.55625 
L 416.191731 -37.55625 
L 416.603724 -37.55625 
L 417.015717 -37.55625 
L 417.42771 -37.55625 
L 417.839703 -37.55625 
L 418.251696 -37.55625 
L 418.663689 -37.55625 
L 419.075681 -37.55625 
L 419.487674 -37.55625 
L 419.899667 -37.55625 
L 420.31166 -37.55625 
L 420.723653 -37.55625 
L 421.135646 -37.55625 
L 421.547639 -37.55625 
L 421.959632 -37.55625 
L 422.371625 -37.55625 
L 422.783618 -37.55625 
L 423.19561 -37.55625 
L 423.607603 -37.55625 
L 424.019596 -37.55625 
L 424.431589 -37.55625 
L 424.843582 -37.55625 
L 425.255575 -37.55625 
L 425.667568 -37.55625 
L 426.079561 -37.55625 
L 426.491554 -37.55625 
L 426.903547 -37.55625 
L 427.315539 -37.55625 
L 427.727532 -37.55625 
L 428.139525 -37.55625 
L 428.551518 -37.55625 
L 428.963511 -37.55625 
L 429.375504 -37.55625 
L 429.787497 -37.55625 
L 430.19949 -37.55625 
L 430.611483 -37.55625 
L 431.023476 -37.55625 
L 431.435468 -37.55625 
L 431.847461 -37.55625 
L 432.259454 -37.55625 
L 432.671447 -37.55625 
L 433.08344 -37.55625 
L 433.495433 -37.55625 
L 433.907426 -37.55625 
L 434.319419 -37.55625 
L 434.731412 -37.55625 
L 435.143405 -37.55625 
L 435.555397 -37.55625 
L 435.96739 -37.55625 
L 436.379383 -37.55625 
L 436.791376 -37.55625 
L 437.203369 -37.55625 
L 437.615362 -37.55625 
L 438.027355 -37.55625 
L 438.439348 -37.55625 
L 438.851341 -37.55625 
L 439.263334 -37.55625 
L 439.675326 -37.55625 
L 440.087319 -37.55625 
L 440.499312 -37.55625 
L 440.911305 -37.55625 
L 441.323298 -37.55625 
L 441.735291 -37.55625 
L 442.147284 -37.55625 
L 442.559277 -37.55625 
L 442.97127 -37.55625 
L 443.383262 -37.55625 
L 443.795255 -37.55625 
L 444.207248 -37.55625 
L 444.619241 -37.55625 
L 445.031234 -37.55625 
L 445.443227 -37.55625 
L 445.85522 -37.55625 
L 446.267213 -37.55625 
L 446.679206 -37.55625 
L 447.091199 -37.55625 
L 447.503191 -37.55625 
L 447.915184 -37.55625 
L 448.327177 -37.55625 
L 448.73917 -37.55625 
L 449.151163 -37.55625 
L 449.563156 -37.55625 
L 449.975149 -37.55625 
L 450.387142 -37.55625 
L 450.799135 -37.55625 
L 451.211128 -37.55625 
L 451.62312 -37.55625 
L 452.035113 -37.55625 
L 452.447106 -37.55625 
L 452.859099 -37.55625 
L 453.271092 -37.55625 
L 453.683085 -37.55625 
L 454.095078 -37.55625 
L 454.507071 -37.55625 
L 454.919064 -37.55625 
L 455.331057 -37.55625 
L 455.743049 -37.55625 
L 456.155042 -37.55625 
L 456.567035 -37.55625 
L 456.979028 -37.55625 
L 457.391021 -37.55625 
L 457.803014 -37.55625 
L 458.215007 -37.55625 
L 458.627 -37.55625 
L 459.038993 -37.55625 
L 459.450986 -37.55625 
L 459.862978 -37.55625 
L 460.274971 -37.55625 
L 460.686964 -37.55625 
L 461.098957 -37.55625 
L 461.51095 -37.55625 
L 461.922943 -37.55625 
L 462.334936 -37.55625 
L 462.746929 -37.55625 
L 463.158922 -37.55625 
L 463.570915 -37.55625 
L 463.982907 -37.55625 
L 464.3949 -37.55625 
L 464.806893 -37.55625 
L 465.218886 -37.55625 
L 465.630879 -37.55625 
L 466.042872 -37.55625 
L 466.454865 -37.55625 
L 466.866858 -37.55625 
L 467.278851 -37.55625 
L 467.690844 -37.55625 
L 468.102836 -37.55625 
L 468.514829 -37.55625 
L 468.926822 -37.55625 
L 469.338815 -37.55625 
L 469.750808 -37.55625 
L 470.162801 -37.55625 
L 470.574794 -37.55625 
L 470.986787 -37.55625 
L 471.39878 -37.55625 
L 471.810773 -37.55625 
L 472.222765 -37.55625 
L 472.634758 -37.55625 
L 473.046751 -37.55625 
L 473.458744 -37.55625 
L 473.870737 -37.55625 
L 474.28273 -37.55625 
L 474.694723 -37.55625 
L 475.106716 -37.55625 
L 475.518709 -37.55625 
L 475.930702 -37.55625 
L 476.342694 -37.55625 
L 476.754687 -37.55625 
L 477.16668 -37.55625 
L 477.578673 -37.55625 
L 477.990666 -37.55625 
L 478.402659 -37.55625 
L 478.814652 -37.55625 
L 479.226645 -37.55625 
L 479.638638 -37.55625 
L 479.638638 -37.55625 
L 479.638638 -39.360365 
L 479.226645 -39.418949 
L 478.814652 -39.47923 
L 478.402659 -39.541248 
L 477.990666 -39.605046 
L 477.578673 -39.670669 
L 477.16668 -39.738159 
L 476.754687 -39.807561 
L 476.342694 -39.878922 
L 475.930702 -39.952288 
L 475.518709 -40.027706 
L 475.106716 -40.105224 
L 474.694723 -40.184892 
L 474.28273 -40.266759 
L 473.870737 -40.350875 
L 473.458744 -40.437293 
L 473.046751 -40.526065 
L 472.634758 -40.617243 
L 472.222765 -40.710882 
L 471.810773 -40.807037 
L 471.39878 -40.905763 
L 470.986787 -41.007117 
L 470.574794 -41.111157 
L 470.162801 -41.217941 
L 469.750808 -41.327527 
L 469.338815 -41.439976 
L 468.926822 -41.55535 
L 468.514829 -41.673708 
L 468.102836 -41.795115 
L 467.690844 -41.919634 
L 467.278851 -42.047328 
L 466.866858 -42.178263 
L 466.454865 -42.312505 
L 466.042872 -42.450121 
L 465.630879 -42.591179 
L 465.218886 -42.735746 
L 464.806893 -42.883893 
L 464.3949 -43.035689 
L 463.982907 -43.191206 
L 463.570915 -43.350515 
L 463.158922 -43.513688 
L 462.746929 -43.680799 
L 462.334936 -43.851922 
L 461.922943 -44.027133 
L 461.51095 -44.206505 
L 461.098957 -44.390117 
L 460.686964 -44.578045 
L 460.274971 -44.770366 
L 459.862978 -44.96716 
L 459.450986 -45.168505 
L 459.038993 -45.374482 
L 458.627 -45.58517 
L 458.215007 -45.800652 
L 457.803014 -46.021008 
L 457.391021 -46.246321 
L 456.979028 -46.476675 
L 456.567035 -46.712153 
L 456.155042 -46.952838 
L 455.743049 -47.198815 
L 455.331057 -47.45017 
L 454.919064 -47.706988 
L 454.507071 -47.969354 
L 454.095078 -48.237356 
L 453.683085 -48.51108 
L 453.271092 -48.790613 
L 452.859099 -49.076043 
L 452.447106 -49.367457 
L 452.035113 -49.664944 
L 451.62312 -49.968591 
L 451.211128 -50.278488 
L 450.799135 -50.594723 
L 450.387142 -50.917385 
L 449.975149 -51.246563 
L 449.563156 -51.582345 
L 449.151163 -51.924822 
L 448.73917 -52.274081 
L 448.327177 -52.630213 
L 447.915184 -52.993305 
L 447.503191 -53.363448 
L 447.091199 -53.740728 
L 446.679206 -54.125236 
L 446.267213 -54.517059 
L 445.85522 -54.916284 
L 445.443227 -55.323 
L 445.031234 -55.737294 
L 444.619241 -56.159253 
L 444.207248 -56.588962 
L 443.795255 -57.026508 
L 443.383262 -57.471976 
L 442.97127 -57.92545 
L 442.559277 -58.387014 
L 442.147284 -58.856751 
L 441.735291 -59.334744 
L 441.323298 -59.821075 
L 440.911305 -60.315823 
L 440.499312 -60.819069 
L 440.087319 -61.330892 
L 439.675326 -61.851368 
L 439.263334 -62.380575 
L 438.851341 -62.918588 
L 438.439348 -63.465481 
L 438.027355 -64.021326 
L 437.615362 -64.586197 
L 437.203369 -65.160161 
L 436.791376 -65.743289 
L 436.379383 -66.335648 
L 435.96739 -66.937302 
L 435.555397 -67.548316 
L 435.143405 -68.168752 
L 434.731412 -68.79867 
L 434.319419 -69.438129 
L 433.907426 -70.087185 
L 433.495433 -70.745893 
L 433.08344 -71.414307 
L 432.671447 -72.092476 
L 432.259454 -72.780448 
L 431.847461 -73.478271 
L 431.435468 -74.185988 
L 431.023476 -74.90364 
L 430.611483 -75.631267 
L 430.19949 -76.368905 
L 429.787497 -77.116589 
L 429.375504 -77.874349 
L 428.963511 -78.642216 
L 428.551518 -79.420214 
L 428.139525 -80.208368 
L 427.727532 -81.006697 
L 427.315539 -81.81522 
L 426.903547 -82.633951 
L 426.491554 -83.462901 
L 426.079561 -84.302079 
L 425.667568 -85.15149 
L 425.255575 -86.011136 
L 424.843582 -86.881016 
L 424.431589 -87.761125 
L 424.019596 -88.651455 
L 423.607603 -89.551995 
L 423.19561 -90.46273 
L 422.783618 -91.38364 
L 422.371625 -92.314705 
L 421.959632 -93.255897 
L 421.547639 -94.207188 
L 421.135646 -95.168544 
L 420.723653 -96.139927 
L 420.31166 -97.121297 
L 419.899667 -98.112609 
L 419.487674 -99.113813 
L 419.075681 -100.124857 
L 418.663689 -101.145683 
L 418.251696 -102.17623 
L 417.839703 -103.216432 
L 417.42771 -104.266221 
L 417.015717 -105.325522 
L 416.603724 -106.394257 
L 416.191731 -107.472344 
L 415.779738 -108.559696 
L 415.367745 -109.656222 
L 414.955752 -110.761827 
L 414.54376 -111.876411 
L 414.131767 -112.999869 
L 413.719774 -114.132093 
L 413.307781 -115.27297 
L 412.895788 -116.422381 
L 412.483795 -117.580205 
L 412.071802 -118.746314 
L 411.659809 -119.920579 
L 411.247816 -121.102861 
L 410.835823 -122.293022 
L 410.423831 -123.490916 
L 410.011838 -124.696394 
L 409.599845 -125.909302 
L 409.187852 -127.12948 
L 408.775859 -128.356766 
L 408.363866 -129.590991 
L 407.951873 -130.831985 
L 407.53988 -132.079569 
L 407.127887 -133.333562 
L 406.715894 -134.593779 
L 406.303902 -135.860029 
L 405.891909 -137.132117 
L 405.479916 -138.409845 
L 405.067923 -139.693008 
L 404.65593 -140.9814 
L 404.243937 -142.274806 
L 403.831944 -143.573011 
L 403.419951 -144.875795 
L 403.007958 -146.182931 
L 402.595965 -147.494192 
L 402.183973 -148.809343 
L 401.77198 -150.128147 
L 401.359987 -151.450363 
L 400.947994 -152.775746 
L 400.536001 -154.104046 
L 400.124008 -155.43501 
L 399.712015 -156.768381 
L 399.300022 -158.1039 
L 398.888029 -159.441301 
L 398.476037 -160.780317 
L 398.064044 -162.120678 
L 397.652051 -163.462107 
L 397.240058 -164.804329 
L 396.828065 -166.14706 
L 396.416072 -167.490018 
L 396.004079 -168.832914 
L 395.592086 -170.175459 
L 395.180093 -171.517359 
L 394.7681 -172.858319 
L 394.356108 -174.198039 
L 393.944115 -175.536219 
L 393.532122 -176.872555 
L 393.120129 -178.206741 
L 392.708136 -179.538469 
L 392.296143 -180.867428 
L 391.88415 -182.193305 
L 391.472157 -183.515788 
L 391.060164 -184.834558 
L 390.648171 -186.1493 
L 390.236179 -187.459692 
L 389.824186 -188.765415 
L 389.412193 -190.066146 
L 389.0002 -191.361563 
L 388.588207 -192.65134 
L 388.176214 -193.935152 
L 387.764221 -195.212675 
L 387.352228 -196.48358 
L 386.940235 -197.747541 
L 386.528242 -199.00423 
L 386.11625 -200.25332 
L 385.704257 -201.494483 
L 385.292264 -202.72739 
L 384.880271 -203.951714 
L 384.468278 -205.167128 
L 384.056285 -206.373305 
L 383.644292 -207.569919 
L 383.232299 -208.756644 
L 382.820306 -209.933155 
L 382.408313 -211.09913 
L 381.996321 -212.254246 
L 381.584328 -213.398181 
L 381.172335 -214.530617 
L 380.760342 -215.651236 
L 380.348349 -216.759721 
L 379.936356 -217.855758 
L 379.524363 -218.939036 
L 379.11237 -220.009244 
L 378.700377 -221.066075 
L 378.288384 -222.109224 
L 377.876392 -223.138389 
L 377.464399 -224.153271 
L 377.052406 -225.153572 
L 376.640413 -226.139 
L 376.22842 -227.109265 
L 375.816427 -228.064079 
L 375.404434 -229.003159 
L 374.992441 -229.926227 
L 374.580448 -230.833005 
L 374.168455 -231.723223 
L 373.756463 -232.596612 
L 373.34447 -233.452909 
L 372.932477 -234.291855 
L 372.520484 -235.113195 
L 372.108491 -235.916679 
L 371.696498 -236.702061 
L 371.284505 -237.469102 
L 370.872512 -238.217565 
L 370.460519 -238.94722 
L 370.048526 -239.657841 
L 369.636534 -240.34921 
L 369.224541 -241.021111 
L 368.812548 -241.673335 
L 368.400555 -242.30568 
L 367.988562 -242.917947 
L 367.576569 -243.509945 
L 367.164576 -244.081489 
L 366.752583 -244.632398 
L 366.34059 -245.1625 
L 365.928597 -245.671627 
L 365.516605 -246.159619 
L 365.104612 -246.626321 
L 364.692619 -247.071584 
L 364.280626 -247.495269 
L 363.868633 -247.89724 
L 363.45664 -248.277369 
L 363.044647 -248.635535 
L 362.632654 -248.971624 
L 362.220661 -249.285529 
L 361.808668 -249.577149 
L 361.396676 -249.846391 
L 360.984683 -250.093168 
L 360.57269 -250.317402 
L 360.160697 -250.519021 
L 359.748704 -250.69796 
L 359.336711 -250.854161 
L 358.924718 -250.987574 
L 358.512725 -251.098157 
L 358.100732 -251.185874 
L 357.68874 -251.250696 
L 357.276747 -251.292603 
L 356.864754 -251.311581 
L 356.452761 -251.307625 
L 356.040768 -251.280735 
L 355.628775 -251.23092 
L 355.216782 -251.158196 
L 354.804789 -251.062586 
L 354.392796 -250.944122 
L 353.980803 -250.802841 
L 353.568811 -250.638789 
L 353.156818 -250.452018 
L 352.744825 -250.242589 
L 352.332832 -250.010568 
L 351.920839 -249.756031 
L 351.508846 -249.479058 
L 351.096853 -249.179738 
L 350.68486 -248.858168 
L 350.272867 -248.514449 
L 349.860874 -248.148692 
L 349.448882 -247.761013 
L 349.036889 -247.351536 
L 348.624896 -246.920391 
L 348.212903 -246.467714 
L 347.80091 -245.99365 
L 347.388917 -245.498348 
L 346.976924 -244.981966 
L 346.564931 -244.444666 
L 346.152938 -243.886617 
L 345.740945 -243.307996 
L 345.328953 -242.708983 
L 344.91696 -242.089767 
L 344.504967 -241.450541 
L 344.092974 -240.791504 
L 343.680981 -240.112863 
L 343.268988 -239.414827 
L 342.856995 -238.697613 
L 342.445002 -237.961443 
L 342.033009 -237.206544 
L 341.621016 -236.433149 
L 341.209024 -235.641493 
L 340.797031 -234.831821 
L 340.385038 -234.004378 
L 339.973045 -233.159416 
L 339.561052 -232.297193 
L 339.149059 -231.417967 
L 338.737066 -230.522005 
L 338.325073 -229.609576 
L 337.91308 -228.680953 
L 337.501087 -227.736412 
L 337.089095 -226.776235 
L 336.677102 -225.800706 
L 336.265109 -224.810114 
L 335.853116 -223.804748 
L 335.441123 -222.784905 
L 335.02913 -221.750881 
L 334.617137 -220.702977 
L 334.205144 -219.641496 
L 333.793151 -218.566744 
L 333.381158 -217.479029 
L 332.969166 -216.378662 
L 332.557173 -215.265955 
L 332.14518 -214.141223 
L 331.733187 -213.004784 
L 331.321194 -211.856954 
L 330.909201 -210.698056 
L 330.497208 -209.528409 
L 330.085215 -208.348337 
L 329.673222 -207.158163 
L 329.261229 -205.958213 
L 328.849237 -204.748812 
L 328.437244 -203.530287 
L 328.025251 -202.302965 
L 327.613258 -201.067172 
L 327.201265 -199.823238 
L 326.789272 -198.571489 
L 326.377279 -197.312254 
L 325.965286 -196.04586 
L 325.553293 -194.772635 
L 325.1413 -193.492905 
L 324.729308 -192.206998 
L 324.317315 -190.915238 
L 323.905322 -189.617951 
L 323.493329 -188.315462 
L 323.081336 -187.008091 
L 322.669343 -185.696162 
L 322.25735 -184.379995 
L 321.845357 -183.059908 
L 321.433364 -181.736218 
L 321.021372 -180.409242 
L 320.609379 -179.079293 
L 320.197386 -177.746682 
L 319.785393 -176.41172 
L 319.3734 -175.074713 
L 318.961407 -173.735967 
L 318.549414 -172.395785 
L 318.137421 -171.054468 
L 317.725428 -169.712312 
L 317.313435 -168.369613 
L 316.901443 -167.026662 
L 316.48945 -165.68375 
L 316.077457 -164.341163 
L 315.665464 -162.999183 
L 315.253471 -161.658091 
L 314.841478 -160.318164 
L 314.429485 -158.979674 
L 314.017492 -157.642892 
L 313.605499 -156.308085 
L 313.193506 -154.975515 
L 312.781514 -153.645441 
L 312.369521 -152.318119 
L 311.957528 -150.993801 
L 311.545535 -149.672735 
L 311.133542 -148.355164 
L 310.721549 -147.041329 
L 310.309556 -145.731465 
L 309.897563 -144.425805 
L 309.48557 -143.124576 
L 309.073577 -141.828001 
L 308.661585 -140.536301 
L 308.249592 -139.24969 
L 307.837599 -137.968378 
z
" style="stroke: #ff7f0e; stroke-opacity: 0.1"/>
    </defs>
    <g clip-path="url(#p6cdeb325b1)">
     <use xlink:href="#m3ae4e0cb84" x="0" y="288" style="fill: #ff7f0e; fill-opacity: 0.1; stroke: #ff7f0e; stroke-opacity: 0.1"/>
    </g>
   </g>
   <g id="matplotlib.axis_1">
    <g id="xtick_1">
     <g id="line2d_1">
      <path d="M 144.209273 250.44375 
L 144.209273 22.318125 
" clip-path="url(#p6cdeb325b1)" style="fill: none; stroke-dasharray: 2.96,1.28; stroke-dashoffset: 0; stroke: #b0b0b0; stroke-opacity: 0.8; stroke-width: 0.8"/>
     </g>
     <g id="line2d_2">
      <defs>
       <path id="m18a526b880" d="M 0 0 
L 0 3.5 
" style="stroke: #000000; stroke-width: 0.8"/>
      </defs>
      <g>
       <use xlink:href="#m18a526b880" x="144.209273" y="250.44375" style="stroke: #000000; stroke-width: 0.8"/>
      </g>
     </g>
     <g id="text_1">
      <!-- −2 -->
      <g transform="translate(136.838179 265.042188) scale(0.1 -0.1)">
       <defs>
        <path id="DejaVuSans-2212" d="M 678 2272 
L 4684 2272 
L 4684 1741 
L 678 1741 
L 678 2272 
z
" transform="scale(0.015625)"/>
        <path id="DejaVuSans-32" d="M 1228 531 
L 3431 531 
L 3431 0 
L 469 0 
L 469 531 
Q 828 903 1448 1529 
Q 2069 2156 2228 2338 
Q 2531 2678 2651 2914 
Q 2772 3150 2772 3378 
Q 2772 3750 2511 3984 
Q 2250 4219 1831 4219 
Q 1534 4219 1204 4116 
Q 875 4013 500 3803 
L 500 4441 
Q 881 4594 1212 4672 
Q 1544 4750 1819 4750 
Q 2544 4750 2975 4387 
Q 3406 4025 3406 3419 
Q 3406 3131 3298 2873 
Q 3191 2616 2906 2266 
Q 2828 2175 2409 1742 
Q 1991 1309 1228 531 
z
" transform="scale(0.015625)"/>
       </defs>
       <use xlink:href="#DejaVuSans-2212"/>
       <use xlink:href="#DejaVuSans-32" transform="translate(83.789062 0)"/>
      </g>
     </g>
    </g>
    <g id="xtick_2">
     <g id="line2d_3">
      <path d="M 256.705219 250.44375 
L 256.705219 22.318125 
" clip-path="url(#p6cdeb325b1)" style="fill: none; stroke-dasharray: 2.96,1.28; stroke-dashoffset: 0; stroke: #b0b0b0; stroke-opacity: 0.8; stroke-width: 0.8"/>
     </g>
     <g id="line2d_4">
      <g>
       <use xlink:href="#m18a526b880" x="256.705219" y="250.44375" style="stroke: #000000; stroke-width: 0.8"/>
      </g>
     </g>
     <g id="text_2">
      <!-- 0 -->
      <g transform="translate(253.523969 265.042188) scale(0.1 -0.1)">
       <defs>
        <path id="DejaVuSans-30" d="M 2034 4250 
Q 1547 4250 1301 3770 
Q 1056 3291 1056 2328 
Q 1056 1369 1301 889 
Q 1547 409 2034 409 
Q 2525 409 2770 889 
Q 3016 1369 3016 2328 
Q 3016 3291 2770 3770 
Q 2525 4250 2034 4250 
z
M 2034 4750 
Q 2819 4750 3233 4129 
Q 3647 3509 3647 2328 
Q 3647 1150 3233 529 
Q 2819 -91 2034 -91 
Q 1250 -91 836 529 
Q 422 1150 422 2328 
Q 422 3509 836 4129 
Q 1250 4750 2034 4750 
z
" transform="scale(0.015625)"/>
       </defs>
       <use xlink:href="#DejaVuSans-30"/>
      </g>
     </g>
    </g>
    <g id="xtick_3">
     <g id="line2d_5">
      <path d="M 369.201164 250.44375 
L 369.201164 22.318125 
" clip-path="url(#p6cdeb325b1)" style="fill: none; stroke-dasharray: 2.96,1.28; stroke-dashoffset: 0; stroke: #b0b0b0; stroke-opacity: 0.8; stroke-width: 0.8"/>
     </g>
     <g id="line2d_6">
      <g>
       <use xlink:href="#m18a526b880" x="369.201164" y="250.44375" style="stroke: #000000; stroke-width: 0.8"/>
      </g>
     </g>
     <g id="text_3">
      <!-- 2 -->
      <g transform="translate(366.019914 265.042188) scale(0.1 -0.1)">
       <use xlink:href="#DejaVuSans-32"/>
      </g>
     </g>
    </g>
    <g id="xtick_4">
     <g id="line2d_7">
      <path d="M 481.697109 250.44375 
L 481.697109 22.318125 
" clip-path="url(#p6cdeb325b1)" style="fill: none; stroke-dasharray: 2.96,1.28; stroke-dashoffset: 0; stroke: #b0b0b0; stroke-opacity: 0.8; stroke-width: 0.8"/>
     </g>
     <g id="line2d_8">
      <g>
       <use xlink:href="#m18a526b880" x="481.697109" y="250.44375" style="stroke: #000000; stroke-width: 0.8"/>
      </g>
     </g>
     <g id="text_4">
      <!-- 4 -->
      <g transform="translate(478.515859 265.042188) scale(0.1 -0.1)">
       <defs>
        <path id="DejaVuSans-34" d="M 2419 4116 
L 825 1625 
L 2419 1625 
L 2419 4116 
z
M 2253 4666 
L 3047 4666 
L 3047 1625 
L 3713 1625 
L 3713 1100 
L 3047 1100 
L 3047 0 
L 2419 0 
L 2419 1100 
L 313 1100 
L 313 1709 
L 2253 4666 
z
" transform="scale(0.015625)"/>
       </defs>
       <use xlink:href="#DejaVuSans-34"/>
      </g>
     </g>
    </g>
    <g id="text_5">
     <!-- Test statistic, $T(x)$ -->
     <g transform="translate(261.190625 278.720312) scale(0.1 -0.1)">
      <defs>
       <path id="DejaVuSans-54" d="M -19 4666 
L 3928 4666 
L 3928 4134 
L 2272 4134 
L 2272 0 
L 1638 0 
L 1638 4134 
L -19 4134 
L -19 4666 
z
" transform="scale(0.015625)"/>
       <path id="DejaVuSans-65" d="M 3597 1894 
L 3597 1613 
L 953 1613 
Q 991 1019 1311 708 
Q 1631 397 2203 397 
Q 2534 397 2845 478 
Q 3156 559 3463 722 
L 3463 178 
Q 3153 47 2828 -22 
Q 2503 -91 2169 -91 
Q 1331 -91 842 396 
Q 353 884 353 1716 
Q 353 2575 817 3079 
Q 1281 3584 2069 3584 
Q 2775 3584 3186 3129 
Q 3597 2675 3597 1894 
z
M 3022 2063 
Q 3016 2534 2758 2815 
Q 2500 3097 2075 3097 
Q 1594 3097 1305 2825 
Q 1016 2553 972 2059 
L 3022 2063 
z
" transform="scale(0.015625)"/>
       <path id="DejaVuSans-73" d="M 2834 3397 
L 2834 2853 
Q 2591 2978 2328 3040 
Q 2066 3103 1784 3103 
Q 1356 3103 1142 2972 
Q 928 2841 928 2578 
Q 928 2378 1081 2264 
Q 1234 2150 1697 2047 
L 1894 2003 
Q 2506 1872 2764 1633 
Q 3022 1394 3022 966 
Q 3022 478 2636 193 
Q 2250 -91 1575 -91 
Q 1294 -91 989 -36 
Q 684 19 347 128 
L 347 722 
Q 666 556 975 473 
Q 1284 391 1588 391 
Q 1994 391 2212 530 
Q 2431 669 2431 922 
Q 2431 1156 2273 1281 
Q 2116 1406 1581 1522 
L 1381 1569 
Q 847 1681 609 1914 
Q 372 2147 372 2553 
Q 372 3047 722 3315 
Q 1072 3584 1716 3584 
Q 2034 3584 2315 3537 
Q 2597 3491 2834 3397 
z
" transform="scale(0.015625)"/>
       <path id="DejaVuSans-74" d="M 1172 4494 
L 1172 3500 
L 2356 3500 
L 2356 3053 
L 1172 3053 
L 1172 1153 
Q 1172 725 1289 603 
Q 1406 481 1766 481 
L 2356 481 
L 2356 0 
L 1766 0 
Q 1100 0 847 248 
Q 594 497 594 1153 
L 594 3053 
L 172 3053 
L 172 3500 
L 594 3500 
L 594 4494 
L 1172 4494 
z
" transform="scale(0.015625)"/>
       <path id="DejaVuSans-20" transform="scale(0.015625)"/>
       <path id="DejaVuSans-61" d="M 2194 1759 
Q 1497 1759 1228 1600 
Q 959 1441 959 1056 
Q 959 750 1161 570 
Q 1363 391 1709 391 
Q 2188 391 2477 730 
Q 2766 1069 2766 1631 
L 2766 1759 
L 2194 1759 
z
M 3341 1997 
L 3341 0 
L 2766 0 
L 2766 531 
Q 2569 213 2275 61 
Q 1981 -91 1556 -91 
Q 1019 -91 701 211 
Q 384 513 384 1019 
Q 384 1609 779 1909 
Q 1175 2209 1959 2209 
L 2766 2209 
L 2766 2266 
Q 2766 2663 2505 2880 
Q 2244 3097 1772 3097 
Q 1472 3097 1187 3025 
Q 903 2953 641 2809 
L 641 3341 
Q 956 3463 1253 3523 
Q 1550 3584 1831 3584 
Q 2591 3584 2966 3190 
Q 3341 2797 3341 1997 
z
" transform="scale(0.015625)"/>
       <path id="DejaVuSans-69" d="M 603 3500 
L 1178 3500 
L 1178 0 
L 603 0 
L 603 3500 
z
M 603 4863 
L 1178 4863 
L 1178 4134 
L 603 4134 
L 603 4863 
z
" transform="scale(0.015625)"/>
       <path id="DejaVuSans-63" d="M 3122 3366 
L 3122 2828 
Q 2878 2963 2633 3030 
Q 2388 3097 2138 3097 
Q 1578 3097 1268 2742 
Q 959 2388 959 1747 
Q 959 1106 1268 751 
Q 1578 397 2138 397 
Q 2388 397 2633 464 
Q 2878 531 3122 666 
L 3122 134 
Q 2881 22 2623 -34 
Q 2366 -91 2075 -91 
Q 1284 -91 818 406 
Q 353 903 353 1747 
Q 353 2603 823 3093 
Q 1294 3584 2113 3584 
Q 2378 3584 2631 3529 
Q 2884 3475 3122 3366 
z
" transform="scale(0.015625)"/>
       <path id="DejaVuSans-2c" d="M 750 794 
L 1409 794 
L 1409 256 
L 897 -744 
L 494 -744 
L 750 256 
L 750 794 
z
" transform="scale(0.015625)"/>
       <path id="DejaVuSans-Oblique-54" d="M 378 4666 
L 4325 4666 
L 4225 4134 
L 2559 4134 
L 1759 0 
L 1125 0 
L 1925 4134 
L 275 4134 
L 378 4666 
z
" transform="scale(0.015625)"/>
       <path id="DejaVuSans-28" d="M 1984 4856 
Q 1566 4138 1362 3434 
Q 1159 2731 1159 2009 
Q 1159 1288 1364 580 
Q 1569 -128 1984 -844 
L 1484 -844 
Q 1016 -109 783 600 
Q 550 1309 550 2009 
Q 550 2706 781 3412 
Q 1013 4119 1484 4856 
L 1984 4856 
z
" transform="scale(0.015625)"/>
       <path id="DejaVuSans-Oblique-78" d="M 3841 3500 
L 2234 1784 
L 3219 0 
L 2559 0 
L 1819 1388 
L 531 0 
L -166 0 
L 1556 1844 
L 641 3500 
L 1300 3500 
L 1972 2234 
L 3144 3500 
L 3841 3500 
z
" transform="scale(0.015625)"/>
       <path id="DejaVuSans-29" d="M 513 4856 
L 1013 4856 
Q 1481 4119 1714 3412 
Q 1947 2706 1947 2009 
Q 1947 1309 1714 600 
Q 1481 -109 1013 -844 
L 513 -844 
Q 928 -128 1133 580 
Q 1338 1288 1338 2009 
Q 1338 2731 1133 3434 
Q 928 4138 513 4856 
z
" transform="scale(0.015625)"/>
      </defs>
      <use xlink:href="#DejaVuSans-54" transform="translate(0 0.015625)"/>
      <use xlink:href="#DejaVuSans-65" transform="translate(61.083984 0.015625)"/>
      <use xlink:href="#DejaVuSans-73" transform="translate(122.607422 0.015625)"/>
      <use xlink:href="#DejaVuSans-74" transform="translate(174.707031 0.015625)"/>
      <use xlink:href="#DejaVuSans-20" transform="translate(213.916016 0.015625)"/>
      <use xlink:href="#DejaVuSans-73" transform="translate(245.703125 0.015625)"/>
      <use xlink:href="#DejaVuSans-74" transform="translate(297.802734 0.015625)"/>
      <use xlink:href="#DejaVuSans-61" transform="translate(337.011719 0.015625)"/>
      <use xlink:href="#DejaVuSans-74" transform="translate(398.291016 0.015625)"/>
      <use xlink:href="#DejaVuSans-69" transform="translate(437.5 0.015625)"/>
      <use xlink:href="#DejaVuSans-73" transform="translate(465.283203 0.015625)"/>
      <use xlink:href="#DejaVuSans-74" transform="translate(517.382812 0.015625)"/>
      <use xlink:href="#DejaVuSans-69" transform="translate(556.591797 0.015625)"/>
      <use xlink:href="#DejaVuSans-63" transform="translate(584.375 0.015625)"/>
      <use xlink:href="#DejaVuSans-2c" transform="translate(639.355469 0.015625)"/>
      <use xlink:href="#DejaVuSans-20" transform="translate(671.142578 0.015625)"/>
      <use xlink:href="#DejaVuSans-Oblique-54" transform="translate(702.929688 0.015625)"/>
      <use xlink:href="#DejaVuSans-28" transform="translate(764.013672 0.015625)"/>
      <use xlink:href="#DejaVuSans-Oblique-78" transform="translate(803.027344 0.015625)"/>
      <use xlink:href="#DejaVuSans-29" transform="translate(862.207031 0.015625)"/>
     </g>
    </g>
   </g>
   <g id="matplotlib.axis_2">
    <g id="ytick_1">
     <g id="line2d_9">
      <path d="M 43.78125 250.44375 
L 568.8 250.44375 
" clip-path="url(#p6cdeb325b1)" style="fill: none; stroke-dasharray: 2.96,1.28; stroke-dashoffset: 0; stroke: #b0b0b0; stroke-opacity: 0.8; stroke-width: 0.8"/>
     </g>
     <g id="line2d_10">
      <defs>
       <path id="m7ce870f313" d="M 0 0 
L -3.5 0 
" style="stroke: #000000; stroke-width: 0.8"/>
      </defs>
      <g>
       <use xlink:href="#m7ce870f313" x="43.78125" y="250.44375" style="stroke: #000000; stroke-width: 0.8"/>
      </g>
     </g>
     <g id="text_6">
      <!-- 0.0 -->
      <g transform="translate(20.878125 254.242969) scale(0.1 -0.1)">
       <defs>
        <path id="DejaVuSans-2e" d="M 684 794 
L 1344 794 
L 1344 0 
L 684 0 
L 684 794 
z
" transform="scale(0.015625)"/>
       </defs>
       <use xlink:href="#DejaVuSans-30"/>
       <use xlink:href="#DejaVuSans-2e" transform="translate(63.623047 0)"/>
       <use xlink:href="#DejaVuSans-30" transform="translate(95.410156 0)"/>
      </g>
     </g>
    </g>
    <g id="ytick_2">
     <g id="line2d_11">
      <path d="M 43.78125 212.556386 
L 568.8 212.556386 
" clip-path="url(#p6cdeb325b1)" style="fill: none; stroke-dasharray: 2.96,1.28; stroke-dashoffset: 0; stroke: #b0b0b0; stroke-opacity: 0.8; stroke-width: 0.8"/>
     </g>
     <g id="line2d_12">
      <g>
       <use xlink:href="#m7ce870f313" x="43.78125" y="212.556386" style="stroke: #000000; stroke-width: 0.8"/>
      </g>
     </g>
     <g id="text_7">
      <!-- 0.1 -->
      <g transform="translate(20.878125 216.355605) scale(0.1 -0.1)">
       <defs>
        <path id="DejaVuSans-31" d="M 794 531 
L 1825 531 
L 1825 4091 
L 703 3866 
L 703 4441 
L 1819 4666 
L 2450 4666 
L 2450 531 
L 3481 531 
L 3481 0 
L 794 0 
L 794 531 
z
" transform="scale(0.015625)"/>
       </defs>
       <use xlink:href="#DejaVuSans-30"/>
       <use xlink:href="#DejaVuSans-2e" transform="translate(63.623047 0)"/>
       <use xlink:href="#DejaVuSans-31" transform="translate(95.410156 0)"/>
      </g>
     </g>
    </g>
    <g id="ytick_3">
     <g id="line2d_13">
      <path d="M 43.78125 174.669022 
L 568.8 174.669022 
" clip-path="url(#p6cdeb325b1)" style="fill: none; stroke-dasharray: 2.96,1.28; stroke-dashoffset: 0; stroke: #b0b0b0; stroke-opacity: 0.8; stroke-width: 0.8"/>
     </g>
     <g id="line2d_14">
      <g>
       <use xlink:href="#m7ce870f313" x="43.78125" y="174.669022" style="stroke: #000000; stroke-width: 0.8"/>
      </g>
     </g>
     <g id="text_8">
      <!-- 0.2 -->
      <g transform="translate(20.878125 178.468241) scale(0.1 -0.1)">
       <use xlink:href="#DejaVuSans-30"/>
       <use xlink:href="#DejaVuSans-2e" transform="translate(63.623047 0)"/>
       <use xlink:href="#DejaVuSans-32" transform="translate(95.410156 0)"/>
      </g>
     </g>
    </g>
    <g id="ytick_4">
     <g id="line2d_15">
      <path d="M 43.78125 136.781658 
L 568.8 136.781658 
" clip-path="url(#p6cdeb325b1)" style="fill: none; stroke-dasharray: 2.96,1.28; stroke-dashoffset: 0; stroke: #b0b0b0; stroke-opacity: 0.8; stroke-width: 0.8"/>
     </g>
     <g id="line2d_16">
      <g>
       <use xlink:href="#m7ce870f313" x="43.78125" y="136.781658" style="stroke: #000000; stroke-width: 0.8"/>
      </g>
     </g>
     <g id="text_9">
      <!-- 0.3 -->
      <g transform="translate(20.878125 140.580877) scale(0.1 -0.1)">
       <defs>
        <path id="DejaVuSans-33" d="M 2597 2516 
Q 3050 2419 3304 2112 
Q 3559 1806 3559 1356 
Q 3559 666 3084 287 
Q 2609 -91 1734 -91 
Q 1441 -91 1130 -33 
Q 819 25 488 141 
L 488 750 
Q 750 597 1062 519 
Q 1375 441 1716 441 
Q 2309 441 2620 675 
Q 2931 909 2931 1356 
Q 2931 1769 2642 2001 
Q 2353 2234 1838 2234 
L 1294 2234 
L 1294 2753 
L 1863 2753 
Q 2328 2753 2575 2939 
Q 2822 3125 2822 3475 
Q 2822 3834 2567 4026 
Q 2313 4219 1838 4219 
Q 1578 4219 1281 4162 
Q 984 4106 628 3988 
L 628 4550 
Q 988 4650 1302 4700 
Q 1616 4750 1894 4750 
Q 2613 4750 3031 4423 
Q 3450 4097 3450 3541 
Q 3450 3153 3228 2886 
Q 3006 2619 2597 2516 
z
" transform="scale(0.015625)"/>
       </defs>
       <use xlink:href="#DejaVuSans-30"/>
       <use xlink:href="#DejaVuSans-2e" transform="translate(63.623047 0)"/>
       <use xlink:href="#DejaVuSans-33" transform="translate(95.410156 0)"/>
      </g>
     </g>
    </g>
    <g id="ytick_5">
     <g id="line2d_17">
      <path d="M 43.78125 98.894294 
L 568.8 98.894294 
" clip-path="url(#p6cdeb325b1)" style="fill: none; stroke-dasharray: 2.96,1.28; stroke-dashoffset: 0; stroke: #b0b0b0; stroke-opacity: 0.8; stroke-width: 0.8"/>
     </g>
     <g id="line2d_18">
      <g>
       <use xlink:href="#m7ce870f313" x="43.78125" y="98.894294" style="stroke: #000000; stroke-width: 0.8"/>
      </g>
     </g>
     <g id="text_10">
      <!-- 0.4 -->
      <g transform="translate(20.878125 102.693513) scale(0.1 -0.1)">
       <use xlink:href="#DejaVuSans-30"/>
       <use xlink:href="#DejaVuSans-2e" transform="translate(63.623047 0)"/>
       <use xlink:href="#DejaVuSans-34" transform="translate(95.410156 0)"/>
      </g>
     </g>
    </g>
    <g id="ytick_6">
     <g id="line2d_19">
      <path d="M 43.78125 61.00693 
L 568.8 61.00693 
" clip-path="url(#p6cdeb325b1)" style="fill: none; stroke-dasharray: 2.96,1.28; stroke-dashoffset: 0; stroke: #b0b0b0; stroke-opacity: 0.8; stroke-width: 0.8"/>
     </g>
     <g id="line2d_20">
      <g>
       <use xlink:href="#m7ce870f313" x="43.78125" y="61.00693" style="stroke: #000000; stroke-width: 0.8"/>
      </g>
     </g>
     <g id="text_11">
      <!-- 0.5 -->
      <g transform="translate(20.878125 64.806149) scale(0.1 -0.1)">
       <defs>
        <path id="DejaVuSans-35" d="M 691 4666 
L 3169 4666 
L 3169 4134 
L 1269 4134 
L 1269 2991 
Q 1406 3038 1543 3061 
Q 1681 3084 1819 3084 
Q 2600 3084 3056 2656 
Q 3513 2228 3513 1497 
Q 3513 744 3044 326 
Q 2575 -91 1722 -91 
Q 1428 -91 1123 -41 
Q 819 9 494 109 
L 494 744 
Q 775 591 1075 516 
Q 1375 441 1709 441 
Q 2250 441 2565 725 
Q 2881 1009 2881 1497 
Q 2881 1984 2565 2268 
Q 2250 2553 1709 2553 
Q 1456 2553 1204 2497 
Q 953 2441 691 2322 
L 691 4666 
z
" transform="scale(0.015625)"/>
       </defs>
       <use xlink:href="#DejaVuSans-30"/>
       <use xlink:href="#DejaVuSans-2e" transform="translate(63.623047 0)"/>
       <use xlink:href="#DejaVuSans-35" transform="translate(95.410156 0)"/>
      </g>
     </g>
    </g>
    <g id="ytick_7">
     <g id="line2d_21">
      <path d="M 43.78125 23.119566 
L 568.8 23.119566 
" clip-path="url(#p6cdeb325b1)" style="fill: none; stroke-dasharray: 2.96,1.28; stroke-dashoffset: 0; stroke: #b0b0b0; stroke-opacity: 0.8; stroke-width: 0.8"/>
     </g>
     <g id="line2d_22">
      <g>
       <use xlink:href="#m7ce870f313" x="43.78125" y="23.119566" style="stroke: #000000; stroke-width: 0.8"/>
      </g>
     </g>
     <g id="text_12">
      <!-- 0.6 -->
      <g transform="translate(20.878125 26.918785) scale(0.1 -0.1)">
       <defs>
        <path id="DejaVuSans-36" d="M 2113 2584 
Q 1688 2584 1439 2293 
Q 1191 2003 1191 1497 
Q 1191 994 1439 701 
Q 1688 409 2113 409 
Q 2538 409 2786 701 
Q 3034 994 3034 1497 
Q 3034 2003 2786 2293 
Q 2538 2584 2113 2584 
z
M 3366 4563 
L 3366 3988 
Q 3128 4100 2886 4159 
Q 2644 4219 2406 4219 
Q 1781 4219 1451 3797 
Q 1122 3375 1075 2522 
Q 1259 2794 1537 2939 
Q 1816 3084 2150 3084 
Q 2853 3084 3261 2657 
Q 3669 2231 3669 1497 
Q 3669 778 3244 343 
Q 2819 -91 2113 -91 
Q 1303 -91 875 529 
Q 447 1150 447 2328 
Q 447 3434 972 4092 
Q 1497 4750 2381 4750 
Q 2619 4750 2861 4703 
Q 3103 4656 3366 4563 
z
" transform="scale(0.015625)"/>
       </defs>
       <use xlink:href="#DejaVuSans-30"/>
       <use xlink:href="#DejaVuSans-2e" transform="translate(63.623047 0)"/>
       <use xlink:href="#DejaVuSans-36" transform="translate(95.410156 0)"/>
      </g>
     </g>
    </g>
    <g id="text_13">
     <!-- Probability density -->
     <g transform="translate(14.798438 182.731719) rotate(-90) scale(0.1 -0.1)">
      <defs>
       <path id="DejaVuSans-50" d="M 1259 4147 
L 1259 2394 
L 2053 2394 
Q 2494 2394 2734 2622 
Q 2975 2850 2975 3272 
Q 2975 3691 2734 3919 
Q 2494 4147 2053 4147 
L 1259 4147 
z
M 628 4666 
L 2053 4666 
Q 2838 4666 3239 4311 
Q 3641 3956 3641 3272 
Q 3641 2581 3239 2228 
Q 2838 1875 2053 1875 
L 1259 1875 
L 1259 0 
L 628 0 
L 628 4666 
z
" transform="scale(0.015625)"/>
       <path id="DejaVuSans-72" d="M 2631 2963 
Q 2534 3019 2420 3045 
Q 2306 3072 2169 3072 
Q 1681 3072 1420 2755 
Q 1159 2438 1159 1844 
L 1159 0 
L 581 0 
L 581 3500 
L 1159 3500 
L 1159 2956 
Q 1341 3275 1631 3429 
Q 1922 3584 2338 3584 
Q 2397 3584 2469 3576 
Q 2541 3569 2628 3553 
L 2631 2963 
z
" transform="scale(0.015625)"/>
       <path id="DejaVuSans-6f" d="M 1959 3097 
Q 1497 3097 1228 2736 
Q 959 2375 959 1747 
Q 959 1119 1226 758 
Q 1494 397 1959 397 
Q 2419 397 2687 759 
Q 2956 1122 2956 1747 
Q 2956 2369 2687 2733 
Q 2419 3097 1959 3097 
z
M 1959 3584 
Q 2709 3584 3137 3096 
Q 3566 2609 3566 1747 
Q 3566 888 3137 398 
Q 2709 -91 1959 -91 
Q 1206 -91 779 398 
Q 353 888 353 1747 
Q 353 2609 779 3096 
Q 1206 3584 1959 3584 
z
" transform="scale(0.015625)"/>
       <path id="DejaVuSans-62" d="M 3116 1747 
Q 3116 2381 2855 2742 
Q 2594 3103 2138 3103 
Q 1681 3103 1420 2742 
Q 1159 2381 1159 1747 
Q 1159 1113 1420 752 
Q 1681 391 2138 391 
Q 2594 391 2855 752 
Q 3116 1113 3116 1747 
z
M 1159 2969 
Q 1341 3281 1617 3432 
Q 1894 3584 2278 3584 
Q 2916 3584 3314 3078 
Q 3713 2572 3713 1747 
Q 3713 922 3314 415 
Q 2916 -91 2278 -91 
Q 1894 -91 1617 61 
Q 1341 213 1159 525 
L 1159 0 
L 581 0 
L 581 4863 
L 1159 4863 
L 1159 2969 
z
" transform="scale(0.015625)"/>
       <path id="DejaVuSans-6c" d="M 603 4863 
L 1178 4863 
L 1178 0 
L 603 0 
L 603 4863 
z
" transform="scale(0.015625)"/>
       <path id="DejaVuSans-79" d="M 2059 -325 
Q 1816 -950 1584 -1140 
Q 1353 -1331 966 -1331 
L 506 -1331 
L 506 -850 
L 844 -850 
Q 1081 -850 1212 -737 
Q 1344 -625 1503 -206 
L 1606 56 
L 191 3500 
L 800 3500 
L 1894 763 
L 2988 3500 
L 3597 3500 
L 2059 -325 
z
" transform="scale(0.015625)"/>
       <path id="DejaVuSans-64" d="M 2906 2969 
L 2906 4863 
L 3481 4863 
L 3481 0 
L 2906 0 
L 2906 525 
Q 2725 213 2448 61 
Q 2172 -91 1784 -91 
Q 1150 -91 751 415 
Q 353 922 353 1747 
Q 353 2572 751 3078 
Q 1150 3584 1784 3584 
Q 2172 3584 2448 3432 
Q 2725 3281 2906 2969 
z
M 947 1747 
Q 947 1113 1208 752 
Q 1469 391 1925 391 
Q 2381 391 2643 752 
Q 2906 1113 2906 1747 
Q 2906 2381 2643 2742 
Q 2381 3103 1925 3103 
Q 1469 3103 1208 2742 
Q 947 2381 947 1747 
z
" transform="scale(0.015625)"/>
       <path id="DejaVuSans-6e" d="M 3513 2113 
L 3513 0 
L 2938 0 
L 2938 2094 
Q 2938 2591 2744 2837 
Q 2550 3084 2163 3084 
Q 1697 3084 1428 2787 
Q 1159 2491 1159 1978 
L 1159 0 
L 581 0 
L 581 3500 
L 1159 3500 
L 1159 2956 
Q 1366 3272 1645 3428 
Q 1925 3584 2291 3584 
Q 2894 3584 3203 3211 
Q 3513 2838 3513 2113 
z
" transform="scale(0.015625)"/>
      </defs>
      <use xlink:href="#DejaVuSans-50"/>
      <use xlink:href="#DejaVuSans-72" transform="translate(58.552734 0)"/>
      <use xlink:href="#DejaVuSans-6f" transform="translate(97.416016 0)"/>
      <use xlink:href="#DejaVuSans-62" transform="translate(158.597656 0)"/>
      <use xlink:href="#DejaVuSans-61" transform="translate(222.074219 0)"/>
      <use xlink:href="#DejaVuSans-62" transform="translate(283.353516 0)"/>
      <use xlink:href="#DejaVuSans-69" transform="translate(346.830078 0)"/>
      <use xlink:href="#DejaVuSans-6c" transform="translate(374.613281 0)"/>
      <use xlink:href="#DejaVuSans-69" transform="translate(402.396484 0)"/>
      <use xlink:href="#DejaVuSans-74" transform="translate(430.179688 0)"/>
      <use xlink:href="#DejaVuSans-79" transform="translate(469.388672 0)"/>
      <use xlink:href="#DejaVuSans-20" transform="translate(528.568359 0)"/>
      <use xlink:href="#DejaVuSans-64" transform="translate(560.355469 0)"/>
      <use xlink:href="#DejaVuSans-65" transform="translate(623.832031 0)"/>
      <use xlink:href="#DejaVuSans-6e" transform="translate(685.355469 0)"/>
      <use xlink:href="#DejaVuSans-73" transform="translate(748.734375 0)"/>
      <use xlink:href="#DejaVuSans-69" transform="translate(800.833984 0)"/>
      <use xlink:href="#DejaVuSans-74" transform="translate(828.617188 0)"/>
      <use xlink:href="#DejaVuSans-79" transform="translate(867.826172 0)"/>
     </g>
    </g>
   </g>
   <g id="line2d_23">
    <path d="M 67.645739 250.441099 
L 103.077128 250.320676 
L 115.024922 250.068355 
L 122.852787 249.701494 
L 129.032681 249.206645 
L 134.388588 248.554899 
L 138.92051 247.779577 
L 143.040439 246.842482 
L 146.748375 245.763437 
L 150.044318 244.578602 
L 153.340262 243.144122 
L 156.224212 241.653559 
L 159.108162 239.914134 
L 161.992113 237.89665 
L 164.876063 235.571016 
L 167.34802 233.309257 
L 169.819978 230.779647 
L 172.291935 227.963589 
L 174.763892 224.843327 
L 177.23585 221.402368 
L 179.707807 217.625921 
L 182.591757 212.779363 
L 185.475708 207.443738 
L 188.359658 201.609683 
L 191.243608 195.274911 
L 194.127559 188.445216 
L 197.423502 180.05324 
L 200.719445 171.072275 
L 204.427381 160.334634 
L 208.959303 146.453536 
L 214.727204 127.973266 
L 225.439019 93.505333 
L 229.558948 81.102163 
L 232.854891 71.862459 
L 235.738841 64.41598 
L 238.210799 58.591153 
L 240.682756 53.346753 
L 242.742721 49.460995 
L 244.802685 46.047653 
L 246.450657 43.675023 
L 248.098628 41.633642 
L 249.7466 39.933817 
L 251.394572 38.584184 
L 252.63055 37.805985 
L 253.866529 37.230925 
L 255.102508 36.860665 
L 256.338486 36.696275 
L 257.574465 36.738232 
L 258.810444 36.986414 
L 260.046422 37.440103 
L 261.282401 38.097987 
L 262.51838 38.958168 
L 264.166351 40.415396 
L 265.814323 42.220365 
L 267.462295 44.363921 
L 269.110266 46.835262 
L 271.170231 50.366419 
L 273.230195 54.363024 
L 275.702153 59.730198 
L 278.17411 65.665596 
L 281.05806 73.224483 
L 284.354003 82.569572 
L 288.06194 93.786271 
L 293.005854 109.503212 
L 306.189627 151.863614 
L 310.309556 164.247374 
L 314.017492 174.754465 
L 317.313435 183.504049 
L 320.609379 191.647344 
L 323.905322 199.153427 
L 326.789272 205.186513 
L 329.673222 210.719357 
L 332.557173 215.758636 
L 335.441123 220.317462 
L 338.325073 224.414314 
L 341.209024 228.071972 
L 343.680981 230.877221 
L 346.564931 233.790117 
L 349.448882 236.343694 
L 352.332832 238.568321 
L 355.216782 240.494406 
L 358.100732 242.15181 
L 360.984683 243.569354 
L 364.280626 244.930784 
L 367.576569 246.052849 
L 371.284505 247.072405 
L 375.404434 247.955604 
L 379.936356 248.684314 
L 384.880271 249.255909 
L 391.060164 249.73245 
L 398.476037 250.071387 
L 408.775859 250.300689 
L 425.667568 250.417978 
L 476.342694 250.443699 
L 479.638638 250.443718 
L 479.638638 250.443718 
" clip-path="url(#p6cdeb325b1)" style="fill: none; stroke: #1f77b4; stroke-linecap: square"/>
   </g>
   <g id="line2d_24">
    <path d="M 67.645739 250.44375 
L 201.955424 250.333688 
L 214.315211 250.092309 
L 222.555069 249.721488 
L 228.734962 249.238452 
L 234.09087 248.601453 
L 238.622792 247.842841 
L 242.742721 246.925046 
L 246.450657 245.867283 
L 249.7466 244.704883 
L 253.042543 243.29649 
L 255.926493 241.831982 
L 258.810444 240.1218 
L 261.694394 238.136875 
L 264.578344 235.847192 
L 267.050302 233.61896 
L 269.522259 231.125345 
L 271.994217 228.347666 
L 274.466174 225.268037 
L 276.938131 221.869775 
L 279.410089 218.137841 
L 282.294039 213.34509 
L 285.177989 208.06471 
L 288.06194 202.286616 
L 290.94589 196.007677 
L 293.82984 189.232737 
L 297.125783 180.900669 
L 300.421727 171.975146 
L 304.129663 161.292318 
L 308.249592 148.75031 
L 313.605499 131.691915 
L 326.377279 90.687746 
L 330.085215 79.651663 
L 333.381158 70.520971 
L 336.265109 63.189886 
L 338.737066 57.477995 
L 341.209024 52.358507 
L 343.268988 48.585173 
L 345.328953 45.291017 
L 346.976924 43.018034 
L 348.624896 41.079609 
L 350.272867 39.485551 
L 351.920839 38.243969 
L 353.156818 37.547982 
L 354.392796 37.055878 
L 355.628775 36.76908 
L 356.864754 36.688419 
L 358.100732 36.814126 
L 359.336711 37.145839 
L 360.57269 37.682598 
L 361.808668 38.422851 
L 363.45664 39.722631 
L 365.104612 41.373679 
L 366.752583 43.367602 
L 368.400555 45.69432 
L 370.460519 49.05278 
L 372.520484 52.886805 
L 374.580448 57.166995 
L 377.052406 62.846428 
L 379.524363 69.060964 
L 382.408313 76.90087 
L 385.704257 86.505517 
L 389.824186 99.234585 
L 396.004079 119.167086 
L 404.65593 147.0186 
L 409.187852 160.87052 
L 413.307781 172.72703 
L 417.015717 182.674478 
L 420.31166 190.878703 
L 423.607603 198.448005 
L 426.491554 204.537099 
L 429.375504 210.125651 
L 432.259454 215.219552 
L 435.143405 219.831248 
L 438.027355 223.978674 
L 440.911305 227.684177 
L 443.383262 230.528024 
L 446.267213 233.482941 
L 449.151163 236.075178 
L 452.035113 238.335056 
L 454.919064 240.293012 
L 457.803014 241.978992 
L 460.686964 243.421955 
L 463.982907 244.808794 
L 467.278851 245.952672 
L 470.986787 246.992883 
L 475.106716 247.894776 
L 479.638638 248.639635 
L 479.638638 248.639635 
" clip-path="url(#p6cdeb325b1)" style="fill: none; stroke: #ff7f0e; stroke-linecap: square"/>
   </g>
   <g id="line2d_25">
    <path d="M 307.676783 250.44375 
L 307.676783 22.318125 
" clip-path="url(#p6cdeb325b1)" style="fill: none; stroke-dasharray: 3.7,1.6; stroke-dashoffset: 0; stroke: #000000"/>
   </g>
   <g id="patch_3">
    <path d="M 77.95925 250.44375 
L 77.95925 250.385094 
L 96.125174 250.44375 
L 96.125174 250.267781 
L 114.291097 250.267781 
L 114.291097 250.033157 
L 121.557466 250.033157 
L 121.557466 249.622563 
L 125.190651 249.622563 
L 125.190651 249.329283 
L 128.823835 249.329283 
L 128.823835 248.742721 
L 132.45702 248.742721 
L 132.45702 248.038847 
L 136.090205 248.038847 
L 136.090205 247.569597 
L 139.723389 247.569597 
L 139.723389 246.748411 
L 143.356574 246.748411 
L 143.356574 246.337817 
L 146.989759 246.337817 
L 146.989759 246.103192 
L 150.622943 246.103192 
L 150.622943 243.111727 
L 154.256128 243.111727 
L 154.256128 240.472199 
L 157.889313 240.472199 
L 157.889313 239.826981 
L 161.522497 239.826981 
L 161.522497 235.662392 
L 165.155682 235.662392 
L 165.155682 233.961363 
L 168.788867 233.961363 
L 168.788867 230.559304 
L 172.422051 230.559304 
L 172.422051 226.922621 
L 176.055236 226.922621 
L 176.055236 218.94538 
L 179.68842 218.94538 
L 179.68842 214.135573 
L 183.321605 214.135573 
L 183.321605 207.859362 
L 186.95479 207.859362 
L 186.95479 202.990898 
L 190.587974 202.990898 
L 190.587974 193.605909 
L 194.221159 193.605909 
L 194.221159 184.631513 
L 197.854344 184.631513 
L 197.854344 173.193558 
L 201.487528 173.193558 
L 201.487528 164.160506 
L 205.120713 164.160506 
L 205.120713 154.306267 
L 208.753898 154.306267 
L 208.753898 140.698033 
L 212.387082 140.698033 
L 212.387082 127.617704 
L 216.020267 127.617704 
L 216.020267 119.22987 
L 219.653452 119.22987 
L 219.653452 103.86195 
L 223.286636 103.86195 
L 223.286636 97.585738 
L 226.919821 97.585738 
L 226.919821 83.566911 
L 230.553006 83.566911 
L 230.553006 70.36927 
L 234.18619 70.36927 
L 234.18619 63.565153 
L 237.819375 63.565153 
L 237.819375 55.470599 
L 241.452559 55.470599 
L 241.452559 49.135732 
L 245.085744 49.135732 
L 245.085744 38.812244 
L 248.718929 38.812244 
L 248.718929 37.697776 
L 252.352113 37.697776 
L 252.352113 33.18125 
L 255.985298 33.18125 
L 255.985298 42.742208 
L 259.618483 42.742208 
L 259.618483 43.915331 
L 263.251667 43.915331 
L 263.251667 46.672172 
L 266.884852 46.672172 
L 266.884852 49.370356 
L 270.518037 49.370356 
L 270.518037 50.426168 
L 274.151221 50.426168 
L 274.151221 59.635188 
L 277.784406 59.635188 
L 277.784406 65.324838 
L 281.417591 65.324838 
L 281.417591 76.997418 
L 285.050775 76.997418 
L 285.050775 84.388097 
L 288.68396 84.388097 
L 288.68396 100.459891 
L 292.317145 100.459891 
L 292.317145 113.070971 
L 295.950329 113.070971 
L 295.950329 123.042522 
L 299.583514 123.042522 
L 299.583514 139.290284 
L 303.216698 139.290284 
L 303.216698 149.320491 
L 306.849883 149.320491 
L 306.849883 158.294887 
L 310.483068 158.294887 
L 310.483068 172.020434 
L 314.116252 172.020434 
L 314.116252 177.886052 
L 317.749437 177.886052 
L 317.749437 190.027882 
L 321.382622 190.027882 
L 321.382622 200.058089 
L 325.015806 200.058089 
L 325.015806 206.979519 
L 328.648991 206.979519 
L 328.648991 212.141263 
L 332.282176 212.141263 
L 332.282176 217.596288 
L 335.91536 217.596288 
L 335.91536 224.576374 
L 339.548545 224.576374 
L 339.548545 229.034243 
L 343.18173 229.034243 
L 343.18173 232.670927 
L 346.814914 232.670927 
L 346.814914 235.134486 
L 350.448099 235.134486 
L 350.448099 238.77117 
L 354.081284 238.77117 
L 354.081284 240.413543 
L 357.714468 240.413543 
L 357.714468 243.111727 
L 361.347653 243.111727 
L 361.347653 244.812756 
L 364.980837 244.812756 
L 364.980837 245.282006 
L 368.614022 245.282006 
L 368.614022 247.041691 
L 372.247207 247.041691 
L 372.247207 247.510941 
L 375.880391 247.510941 
L 375.880391 248.332127 
L 383.146761 248.332127 
L 383.146761 249.387939 
L 386.779945 249.387939 
L 386.779945 249.857188 
L 390.41313 249.857188 
L 390.41313 250.150469 
L 397.679499 250.091813 
L 397.679499 249.915844 
L 404.945869 249.857188 
L 404.945869 250.326438 
L 408.579053 250.326438 
L 408.579053 250.150469 
L 412.212238 250.150469 
L 412.212238 250.326438 
L 423.111792 250.385094 
L 423.111792 250.44375 
L 444.9109 250.385094 
L 444.9109 250.44375 
" clip-path="url(#p6cdeb325b1)" style="fill: none; stroke: #1f77b4; stroke-linejoin: miter"/>
   </g>
   <g id="patch_4">
    <path d="M 177.983862 250.44375 
L 177.983862 250.385094 
L 196.149785 250.44375 
L 196.149785 250.267781 
L 214.315708 250.267781 
L 214.315708 250.033157 
L 221.582078 250.033157 
L 221.582078 249.622563 
L 225.215262 249.622563 
L 225.215262 249.329283 
L 228.848447 249.329283 
L 228.848447 248.742721 
L 232.481632 248.742721 
L 232.481632 248.038847 
L 236.114816 248.038847 
L 236.114816 247.569597 
L 239.748001 247.569597 
L 239.748001 246.748411 
L 243.381186 246.748411 
L 243.381186 246.337817 
L 247.01437 246.337817 
L 247.01437 246.103192 
L 250.647555 246.103192 
L 250.647555 243.111727 
L 254.28074 243.111727 
L 254.28074 240.472199 
L 257.913924 240.472199 
L 257.913924 239.826981 
L 261.547109 239.826981 
L 261.547109 235.662392 
L 265.180294 235.662392 
L 265.180294 233.961363 
L 268.813478 233.961363 
L 268.813478 230.559304 
L 272.446663 230.559304 
L 272.446663 226.922621 
L 276.079847 226.922621 
L 276.079847 218.94538 
L 279.713032 218.94538 
L 279.713032 214.135573 
L 283.346217 214.135573 
L 283.346217 207.859362 
L 286.979401 207.859362 
L 286.979401 202.990898 
L 290.612586 202.990898 
L 290.612586 193.605909 
L 294.245771 193.605909 
L 294.245771 184.631513 
L 297.878955 184.631513 
L 297.878955 173.193558 
L 301.51214 173.193558 
L 301.51214 164.160506 
L 305.145325 164.160506 
L 305.145325 154.306267 
L 308.778509 154.306267 
L 308.778509 140.698033 
L 312.411694 140.698033 
L 312.411694 127.617704 
L 316.044879 127.617704 
L 316.044879 119.22987 
L 319.678063 119.22987 
L 319.678063 103.86195 
L 323.311248 103.86195 
L 323.311248 97.585738 
L 326.944433 97.585738 
L 326.944433 83.566911 
L 330.577617 83.566911 
L 330.577617 70.36927 
L 334.210802 70.36927 
L 334.210802 63.565153 
L 337.843986 63.565153 
L 337.843986 55.470599 
L 341.477171 55.470599 
L 341.477171 49.135732 
L 345.110356 49.135732 
L 345.110356 38.812244 
L 348.74354 38.812244 
L 348.74354 37.697776 
L 352.376725 37.697776 
L 352.376725 33.18125 
L 356.00991 33.18125 
L 356.00991 42.742208 
L 359.643094 42.742208 
L 359.643094 43.915331 
L 363.276279 43.915331 
L 363.276279 46.672172 
L 366.909464 46.672172 
L 366.909464 49.370356 
L 370.542648 49.370356 
L 370.542648 50.426168 
L 374.175833 50.426168 
L 374.175833 59.635188 
L 377.809018 59.635188 
L 377.809018 65.324838 
L 381.442202 65.324838 
L 381.442202 76.997418 
L 385.075387 76.997418 
L 385.075387 84.388097 
L 388.708572 84.388097 
L 388.708572 100.459891 
L 392.341756 100.459891 
L 392.341756 113.070971 
L 395.974941 113.070971 
L 395.974941 123.042522 
L 399.608125 123.042522 
L 399.608125 139.290284 
L 403.24131 139.290284 
L 403.24131 149.320491 
L 406.874495 149.320491 
L 406.874495 158.294887 
L 410.507679 158.294887 
L 410.507679 172.020434 
L 414.140864 172.020434 
L 414.140864 177.886052 
L 417.774049 177.886052 
L 417.774049 190.027882 
L 421.407233 190.027882 
L 421.407233 200.058089 
L 425.040418 200.058089 
L 425.040418 206.979519 
L 428.673603 206.979519 
L 428.673603 212.141263 
L 432.306787 212.141263 
L 432.306787 217.596288 
L 435.939972 217.596288 
L 435.939972 224.576374 
L 439.573157 224.576374 
L 439.573157 229.034243 
L 443.206341 229.034243 
L 443.206341 232.670927 
L 446.839526 232.670927 
L 446.839526 235.134486 
L 450.472711 235.134486 
L 450.472711 238.77117 
L 454.105895 238.77117 
L 454.105895 240.413543 
L 457.73908 240.413543 
L 457.73908 243.111727 
L 461.372264 243.111727 
L 461.372264 244.812756 
L 465.005449 244.812756 
L 465.005449 245.282006 
L 468.638634 245.282006 
L 468.638634 247.041691 
L 472.271818 247.041691 
L 472.271818 247.510941 
L 475.905003 247.510941 
L 475.905003 248.332127 
L 483.171372 248.332127 
L 483.171372 249.387939 
L 486.804557 249.387939 
L 486.804557 249.857188 
L 490.437742 249.857188 
L 490.437742 250.150469 
L 497.704111 250.091813 
L 497.704111 249.915844 
L 504.97048 249.857188 
L 504.97048 250.326438 
L 508.603665 250.326438 
L 508.603665 250.150469 
L 512.23685 250.150469 
L 512.23685 250.326438 
L 523.136403 250.385094 
L 523.136403 250.44375 
L 544.935511 250.385094 
L 544.935511 250.44375 
" clip-path="url(#p6cdeb325b1)" style="fill: none; stroke: #ff7f0e; stroke-linejoin: miter"/>
   </g>
   <g id="patch_5">
    <path d="M 43.78125 250.44375 
L 43.78125 22.318125 
" style="fill: none; stroke: #000000; stroke-width: 0.8; stroke-linejoin: miter; stroke-linecap: square"/>
   </g>
   <g id="patch_6">
    <path d="M 568.8 250.44375 
L 568.8 22.318125 
" style="fill: none; stroke: #000000; stroke-width: 0.8; stroke-linejoin: miter; stroke-linecap: square"/>
   </g>
   <g id="patch_7">
    <path d="M 43.78125 250.44375 
L 568.8 250.44375 
" style="fill: none; stroke: #000000; stroke-width: 0.8; stroke-linejoin: miter; stroke-linecap: square"/>
   </g>
   <g id="patch_8">
    <path d="M 43.78125 22.318125 
L 568.8 22.318125 
" style="fill: none; stroke: #000000; stroke-width: 0.8; stroke-linejoin: miter; stroke-linecap: square"/>
   </g>
   <g id="text_14">
    <!-- $P_{fa} = $ 1.00e-01 -->
    <g style="fill: #1f77b4" transform="translate(285.476513 225.572662) scale(0.1 -0.1)">
     <defs>
      <path id="DejaVuSans-Oblique-50" d="M 1081 4666 
L 2541 4666 
Q 3178 4666 3512 4369 
Q 3847 4072 3847 3500 
Q 3847 2731 3353 2303 
Q 2859 1875 1966 1875 
L 1172 1875 
L 806 0 
L 172 0 
L 1081 4666 
z
M 1613 4147 
L 1275 2394 
L 2069 2394 
Q 2606 2394 2893 2669 
Q 3181 2944 3181 3456 
Q 3181 3784 2986 3965 
Q 2791 4147 2438 4147 
L 1613 4147 
z
" transform="scale(0.015625)"/>
      <path id="DejaVuSans-Oblique-66" d="M 3059 4863 
L 2969 4384 
L 2419 4384 
Q 2106 4384 1964 4261 
Q 1822 4138 1753 3809 
L 1691 3500 
L 2638 3500 
L 2553 3053 
L 1606 3053 
L 1013 0 
L 434 0 
L 1031 3053 
L 481 3053 
L 563 3500 
L 1113 3500 
L 1159 3744 
Q 1278 4363 1576 4613 
Q 1875 4863 2516 4863 
L 3059 4863 
z
" transform="scale(0.015625)"/>
      <path id="DejaVuSans-Oblique-61" d="M 3438 1997 
L 3047 0 
L 2472 0 
L 2578 531 
Q 2325 219 2001 64 
Q 1678 -91 1281 -91 
Q 834 -91 548 182 
Q 263 456 263 884 
Q 263 1497 752 1853 
Q 1241 2209 2100 2209 
L 2900 2209 
L 2931 2363 
Q 2938 2388 2941 2417 
Q 2944 2447 2944 2509 
Q 2944 2788 2717 2942 
Q 2491 3097 2081 3097 
Q 1800 3097 1504 3025 
Q 1209 2953 897 2809 
L 997 3341 
Q 1322 3463 1633 3523 
Q 1944 3584 2234 3584 
Q 2853 3584 3176 3315 
Q 3500 3047 3500 2534 
Q 3500 2431 3484 2292 
Q 3469 2153 3438 1997 
z
M 2816 1759 
L 2241 1759 
Q 1534 1759 1195 1570 
Q 856 1381 856 984 
Q 856 709 1029 553 
Q 1203 397 1509 397 
Q 1978 397 2328 733 
Q 2678 1069 2791 1631 
L 2816 1759 
z
" transform="scale(0.015625)"/>
      <path id="DejaVuSans-3d" d="M 678 2906 
L 4684 2906 
L 4684 2381 
L 678 2381 
L 678 2906 
z
M 678 1631 
L 4684 1631 
L 4684 1100 
L 678 1100 
L 678 1631 
z
" transform="scale(0.015625)"/>
      <path id="DejaVuSans-2d" d="M 313 2009 
L 1997 2009 
L 1997 1497 
L 313 1497 
L 313 2009 
z
" transform="scale(0.015625)"/>
     </defs>
     <use xlink:href="#DejaVuSans-Oblique-50" transform="translate(0 0.78125)"/>
     <use xlink:href="#DejaVuSans-Oblique-66" transform="translate(60.302734 -15.625) scale(0.7)"/>
     <use xlink:href="#DejaVuSans-Oblique-61" transform="translate(84.946289 -15.625) scale(0.7)"/>
     <use xlink:href="#DejaVuSans-3d" transform="translate(150.058594 0.78125)"/>
     <use xlink:href="#DejaVuSans-20" transform="translate(253.330078 0.78125)"/>
     <use xlink:href="#DejaVuSans-31" transform="translate(285.117188 0.78125)"/>
     <use xlink:href="#DejaVuSans-2e" transform="translate(348.740234 0.78125)"/>
     <use xlink:href="#DejaVuSans-30" transform="translate(380.527344 0.78125)"/>
     <use xlink:href="#DejaVuSans-30" transform="translate(444.150391 0.78125)"/>
     <use xlink:href="#DejaVuSans-65" transform="translate(507.773438 0.78125)"/>
     <use xlink:href="#DejaVuSans-2d" transform="translate(569.296875 0.78125)"/>
     <use xlink:href="#DejaVuSans-30" transform="translate(605.380859 0.78125)"/>
     <use xlink:href="#DejaVuSans-31" transform="translate(669.003906 0.78125)"/>
    </g>
   </g>
   <g id="text_15">
    <!-- $P_{d} = $ 8.91e-01 -->
    <g style="fill: #ff7f0e" transform="translate(326.666693 147.31875) scale(0.1 -0.1)">
     <defs>
      <path id="DejaVuSans-Oblique-64" d="M 2675 525 
Q 2444 222 2128 65 
Q 1813 -91 1428 -91 
Q 903 -91 598 267 
Q 294 625 294 1247 
Q 294 1766 478 2236 
Q 663 2706 1013 3078 
Q 1244 3325 1534 3454 
Q 1825 3584 2144 3584 
Q 2481 3584 2739 3421 
Q 2997 3259 3138 2956 
L 3513 4863 
L 4091 4863 
L 3144 0 
L 2566 0 
L 2675 525 
z
M 891 1350 
Q 891 897 1095 644 
Q 1300 391 1663 391 
Q 1931 391 2161 520 
Q 2391 650 2566 903 
Q 2750 1166 2856 1509 
Q 2963 1853 2963 2188 
Q 2963 2622 2758 2865 
Q 2553 3109 2194 3109 
Q 1922 3109 1687 2981 
Q 1453 2853 1288 2613 
Q 1106 2353 998 2009 
Q 891 1666 891 1350 
z
" transform="scale(0.015625)"/>
      <path id="DejaVuSans-38" d="M 2034 2216 
Q 1584 2216 1326 1975 
Q 1069 1734 1069 1313 
Q 1069 891 1326 650 
Q 1584 409 2034 409 
Q 2484 409 2743 651 
Q 3003 894 3003 1313 
Q 3003 1734 2745 1975 
Q 2488 2216 2034 2216 
z
M 1403 2484 
Q 997 2584 770 2862 
Q 544 3141 544 3541 
Q 544 4100 942 4425 
Q 1341 4750 2034 4750 
Q 2731 4750 3128 4425 
Q 3525 4100 3525 3541 
Q 3525 3141 3298 2862 
Q 3072 2584 2669 2484 
Q 3125 2378 3379 2068 
Q 3634 1759 3634 1313 
Q 3634 634 3220 271 
Q 2806 -91 2034 -91 
Q 1263 -91 848 271 
Q 434 634 434 1313 
Q 434 1759 690 2068 
Q 947 2378 1403 2484 
z
M 1172 3481 
Q 1172 3119 1398 2916 
Q 1625 2713 2034 2713 
Q 2441 2713 2670 2916 
Q 2900 3119 2900 3481 
Q 2900 3844 2670 4047 
Q 2441 4250 2034 4250 
Q 1625 4250 1398 4047 
Q 1172 3844 1172 3481 
z
" transform="scale(0.015625)"/>
      <path id="DejaVuSans-39" d="M 703 97 
L 703 672 
Q 941 559 1184 500 
Q 1428 441 1663 441 
Q 2288 441 2617 861 
Q 2947 1281 2994 2138 
Q 2813 1869 2534 1725 
Q 2256 1581 1919 1581 
Q 1219 1581 811 2004 
Q 403 2428 403 3163 
Q 403 3881 828 4315 
Q 1253 4750 1959 4750 
Q 2769 4750 3195 4129 
Q 3622 3509 3622 2328 
Q 3622 1225 3098 567 
Q 2575 -91 1691 -91 
Q 1453 -91 1209 -44 
Q 966 3 703 97 
z
M 1959 2075 
Q 2384 2075 2632 2365 
Q 2881 2656 2881 3163 
Q 2881 3666 2632 3958 
Q 2384 4250 1959 4250 
Q 1534 4250 1286 3958 
Q 1038 3666 1038 3163 
Q 1038 2656 1286 2365 
Q 1534 2075 1959 2075 
z
" transform="scale(0.015625)"/>
     </defs>
     <use xlink:href="#DejaVuSans-Oblique-50" transform="translate(0 0.78125)"/>
     <use xlink:href="#DejaVuSans-Oblique-64" transform="translate(60.302734 -15.625) scale(0.7)"/>
     <use xlink:href="#DejaVuSans-3d" transform="translate(126.953125 0.78125)"/>
     <use xlink:href="#DejaVuSans-20" transform="translate(230.224609 0.78125)"/>
     <use xlink:href="#DejaVuSans-38" transform="translate(262.011719 0.78125)"/>
     <use xlink:href="#DejaVuSans-2e" transform="translate(325.634766 0.78125)"/>
     <use xlink:href="#DejaVuSans-39" transform="translate(357.421875 0.78125)"/>
     <use xlink:href="#DejaVuSans-31" transform="translate(421.044922 0.78125)"/>
     <use xlink:href="#DejaVuSans-65" transform="translate(484.667969 0.78125)"/>
     <use xlink:href="#DejaVuSans-2d" transform="translate(546.191406 0.78125)"/>
     <use xlink:href="#DejaVuSans-30" transform="translate(582.275391 0.78125)"/>
     <use xlink:href="#DejaVuSans-31" transform="translate(645.898438 0.78125)"/>
    </g>
   </g>
   <g id="text_16">
    <!-- Coherent Detector: Probability density functions -->
    <g transform="translate(161.719688 16.318125) scale(0.12 -0.12)">
     <defs>
      <path id="DejaVuSans-43" d="M 4122 4306 
L 4122 3641 
Q 3803 3938 3442 4084 
Q 3081 4231 2675 4231 
Q 1875 4231 1450 3742 
Q 1025 3253 1025 2328 
Q 1025 1406 1450 917 
Q 1875 428 2675 428 
Q 3081 428 3442 575 
Q 3803 722 4122 1019 
L 4122 359 
Q 3791 134 3420 21 
Q 3050 -91 2638 -91 
Q 1578 -91 968 557 
Q 359 1206 359 2328 
Q 359 3453 968 4101 
Q 1578 4750 2638 4750 
Q 3056 4750 3426 4639 
Q 3797 4528 4122 4306 
z
" transform="scale(0.015625)"/>
      <path id="DejaVuSans-68" d="M 3513 2113 
L 3513 0 
L 2938 0 
L 2938 2094 
Q 2938 2591 2744 2837 
Q 2550 3084 2163 3084 
Q 1697 3084 1428 2787 
Q 1159 2491 1159 1978 
L 1159 0 
L 581 0 
L 581 4863 
L 1159 4863 
L 1159 2956 
Q 1366 3272 1645 3428 
Q 1925 3584 2291 3584 
Q 2894 3584 3203 3211 
Q 3513 2838 3513 2113 
z
" transform="scale(0.015625)"/>
      <path id="DejaVuSans-44" d="M 1259 4147 
L 1259 519 
L 2022 519 
Q 2988 519 3436 956 
Q 3884 1394 3884 2338 
Q 3884 3275 3436 3711 
Q 2988 4147 2022 4147 
L 1259 4147 
z
M 628 4666 
L 1925 4666 
Q 3281 4666 3915 4102 
Q 4550 3538 4550 2338 
Q 4550 1131 3912 565 
Q 3275 0 1925 0 
L 628 0 
L 628 4666 
z
" transform="scale(0.015625)"/>
      <path id="DejaVuSans-3a" d="M 750 794 
L 1409 794 
L 1409 0 
L 750 0 
L 750 794 
z
M 750 3309 
L 1409 3309 
L 1409 2516 
L 750 2516 
L 750 3309 
z
" transform="scale(0.015625)"/>
      <path id="DejaVuSans-66" d="M 2375 4863 
L 2375 4384 
L 1825 4384 
Q 1516 4384 1395 4259 
Q 1275 4134 1275 3809 
L 1275 3500 
L 2222 3500 
L 2222 3053 
L 1275 3053 
L 1275 0 
L 697 0 
L 697 3053 
L 147 3053 
L 147 3500 
L 697 3500 
L 697 3744 
Q 697 4328 969 4595 
Q 1241 4863 1831 4863 
L 2375 4863 
z
" transform="scale(0.015625)"/>
      <path id="DejaVuSans-75" d="M 544 1381 
L 544 3500 
L 1119 3500 
L 1119 1403 
Q 1119 906 1312 657 
Q 1506 409 1894 409 
Q 2359 409 2629 706 
Q 2900 1003 2900 1516 
L 2900 3500 
L 3475 3500 
L 3475 0 
L 2900 0 
L 2900 538 
Q 2691 219 2414 64 
Q 2138 -91 1772 -91 
Q 1169 -91 856 284 
Q 544 659 544 1381 
z
M 1991 3584 
L 1991 3584 
z
" transform="scale(0.015625)"/>
     </defs>
     <use xlink:href="#DejaVuSans-43"/>
     <use xlink:href="#DejaVuSans-6f" transform="translate(69.824219 0)"/>
     <use xlink:href="#DejaVuSans-68" transform="translate(131.005859 0)"/>
     <use xlink:href="#DejaVuSans-65" transform="translate(194.384766 0)"/>
     <use xlink:href="#DejaVuSans-72" transform="translate(255.908203 0)"/>
     <use xlink:href="#DejaVuSans-65" transform="translate(294.771484 0)"/>
     <use xlink:href="#DejaVuSans-6e" transform="translate(356.294922 0)"/>
     <use xlink:href="#DejaVuSans-74" transform="translate(419.673828 0)"/>
     <use xlink:href="#DejaVuSans-20" transform="translate(458.882812 0)"/>
     <use xlink:href="#DejaVuSans-44" transform="translate(490.669922 0)"/>
     <use xlink:href="#DejaVuSans-65" transform="translate(567.671875 0)"/>
     <use xlink:href="#DejaVuSans-74" transform="translate(629.195312 0)"/>
     <use xlink:href="#DejaVuSans-65" transform="translate(668.404297 0)"/>
     <use xlink:href="#DejaVuSans-63" transform="translate(729.927734 0)"/>
     <use xlink:href="#DejaVuSans-74" transform="translate(784.908203 0)"/>
     <use xlink:href="#DejaVuSans-6f" transform="translate(824.117188 0)"/>
     <use xlink:href="#DejaVuSans-72" transform="translate(885.298828 0)"/>
     <use xlink:href="#DejaVuSans-3a" transform="translate(924.662109 0)"/>
     <use xlink:href="#DejaVuSans-20" transform="translate(958.353516 0)"/>
     <use xlink:href="#DejaVuSans-50" transform="translate(990.140625 0)"/>
     <use xlink:href="#DejaVuSans-72" transform="translate(1048.693359 0)"/>
     <use xlink:href="#DejaVuSans-6f" transform="translate(1087.556641 0)"/>
     <use xlink:href="#DejaVuSans-62" transform="translate(1148.738281 0)"/>
     <use xlink:href="#DejaVuSans-61" transform="translate(1212.214844 0)"/>
     <use xlink:href="#DejaVuSans-62" transform="translate(1273.494141 0)"/>
     <use xlink:href="#DejaVuSans-69" transform="translate(1336.970703 0)"/>
     <use xlink:href="#DejaVuSans-6c" transform="translate(1364.753906 0)"/>
     <use xlink:href="#DejaVuSans-69" transform="translate(1392.537109 0)"/>
     <use xlink:href="#DejaVuSans-74" transform="translate(1420.320312 0)"/>
     <use xlink:href="#DejaVuSans-79" transform="translate(1459.529297 0)"/>
     <use xlink:href="#DejaVuSans-20" transform="translate(1518.708984 0)"/>
     <use xlink:href="#DejaVuSans-64" transform="translate(1550.496094 0)"/>
     <use xlink:href="#DejaVuSans-65" transform="translate(1613.972656 0)"/>
     <use xlink:href="#DejaVuSans-6e" transform="translate(1675.496094 0)"/>
     <use xlink:href="#DejaVuSans-73" transform="translate(1738.875 0)"/>
     <use xlink:href="#DejaVuSans-69" transform="translate(1790.974609 0)"/>
     <use xlink:href="#DejaVuSans-74" transform="translate(1818.757812 0)"/>
     <use xlink:href="#DejaVuSans-79" transform="translate(1857.966797 0)"/>
     <use xlink:href="#DejaVuSans-20" transform="translate(1917.146484 0)"/>
     <use xlink:href="#DejaVuSans-66" transform="translate(1948.933594 0)"/>
     <use xlink:href="#DejaVuSans-75" transform="translate(1984.138672 0)"/>
     <use xlink:href="#DejaVuSans-6e" transform="translate(2047.517578 0)"/>
     <use xlink:href="#DejaVuSans-63" transform="translate(2110.896484 0)"/>
     <use xlink:href="#DejaVuSans-74" transform="translate(2165.876953 0)"/>
     <use xlink:href="#DejaVuSans-69" transform="translate(2205.085938 0)"/>
     <use xlink:href="#DejaVuSans-6f" transform="translate(2232.869141 0)"/>
     <use xlink:href="#DejaVuSans-6e" transform="translate(2294.050781 0)"/>
     <use xlink:href="#DejaVuSans-73" transform="translate(2357.429688 0)"/>
    </g>
   </g>
   <g id="legend_1">
    <g id="patch_9">
     <path d="M 436.9 74.374375 
L 561.8 74.374375 
Q 563.8 74.374375 563.8 72.374375 
L 563.8 29.318125 
Q 563.8 27.318125 561.8 27.318125 
L 436.9 27.318125 
Q 434.9 27.318125 434.9 29.318125 
L 434.9 72.374375 
Q 434.9 74.374375 436.9 74.374375 
z
" style="fill: #ffffff; opacity: 0.8; stroke: #cccccc; stroke-linejoin: miter"/>
    </g>
    <g id="line2d_26">
     <path d="M 438.9 35.416562 
L 448.9 35.416562 
L 458.9 35.416562 
" style="fill: none; stroke: #1f77b4; stroke-linecap: square"/>
    </g>
    <g id="text_17">
     <!-- $\mathcal{H}_0$: Noise -->
     <g transform="translate(466.9 38.916562) scale(0.1 -0.1)">
      <defs>
       <path id="STIXNonUnicode-Italic-e234" d="M 5408 4237 
L 5344 4083 
Q 5152 4083 5075 3964 
Q 4998 3846 4902 3494 
L 4134 762 
Q 4090 614 4090 429 
Q 4090 166 4435 166 
Q 4659 166 4838 339 
L 4934 218 
Q 4787 51 4531 -41 
Q 4275 -134 4051 -134 
Q 3802 -134 3587 -3 
Q 3373 128 3373 403 
Q 3373 525 3405 627 
L 3859 2240 
Q 3674 2157 3667 2157 
L 2016 2157 
L 1581 595 
Q 1472 218 1209 109 
Q 947 0 371 0 
L 435 154 
Q 634 173 739 294 
Q 845 416 934 717 
L 1542 2899 
Q 1562 2957 1638 3280 
Q 1715 3603 1715 3674 
Q 1715 3789 1664 3840 
Q 1613 3891 1466 3891 
Q 922 3891 365 3411 
L 262 3526 
Q 518 3821 966 4035 
Q 1414 4250 1978 4250 
Q 2221 4250 2329 4131 
Q 2438 4013 2438 3770 
Q 2438 3584 2304 3117 
L 2074 2330 
Q 2106 2336 2170 2374 
Q 2234 2413 2266 2413 
L 3910 2413 
L 4269 3654 
Q 4384 4051 4605 4144 
Q 4826 4237 5408 4237 
z
" transform="scale(0.015625)"/>
       <path id="DejaVuSans-4e" d="M 628 4666 
L 1478 4666 
L 3547 763 
L 3547 4666 
L 4159 4666 
L 4159 0 
L 3309 0 
L 1241 3903 
L 1241 0 
L 628 0 
L 628 4666 
z
" transform="scale(0.015625)"/>
      </defs>
      <use xlink:href="#STIXNonUnicode-Italic-e234" transform="translate(0 0.015625)"/>
      <use xlink:href="#DejaVuSans-30" transform="translate(84.057022 -16.390625) scale(0.7)"/>
      <use xlink:href="#DejaVuSans-3a" transform="translate(131.32753 0.015625)"/>
      <use xlink:href="#DejaVuSans-20" transform="translate(165.018936 0.015625)"/>
      <use xlink:href="#DejaVuSans-4e" transform="translate(196.806046 0.015625)"/>
      <use xlink:href="#DejaVuSans-6f" transform="translate(271.610733 0.015625)"/>
      <use xlink:href="#DejaVuSans-69" transform="translate(332.792374 0.015625)"/>
      <use xlink:href="#DejaVuSans-73" transform="translate(360.575577 0.015625)"/>
      <use xlink:href="#DejaVuSans-65" transform="translate(412.675186 0.015625)"/>
     </g>
    </g>
    <g id="line2d_27">
     <path d="M 438.9 50.09625 
L 448.9 50.09625 
L 458.9 50.09625 
" style="fill: none; stroke: #ff7f0e; stroke-linecap: square"/>
    </g>
    <g id="text_18">
     <!-- $\mathcal{H}_1$: Signal + Noise -->
     <g transform="translate(466.9 53.59625) scale(0.1 -0.1)">
      <defs>
       <path id="DejaVuSans-53" d="M 3425 4513 
L 3425 3897 
Q 3066 4069 2747 4153 
Q 2428 4238 2131 4238 
Q 1616 4238 1336 4038 
Q 1056 3838 1056 3469 
Q 1056 3159 1242 3001 
Q 1428 2844 1947 2747 
L 2328 2669 
Q 3034 2534 3370 2195 
Q 3706 1856 3706 1288 
Q 3706 609 3251 259 
Q 2797 -91 1919 -91 
Q 1588 -91 1214 -16 
Q 841 59 441 206 
L 441 856 
Q 825 641 1194 531 
Q 1563 422 1919 422 
Q 2459 422 2753 634 
Q 3047 847 3047 1241 
Q 3047 1584 2836 1778 
Q 2625 1972 2144 2069 
L 1759 2144 
Q 1053 2284 737 2584 
Q 422 2884 422 3419 
Q 422 4038 858 4394 
Q 1294 4750 2059 4750 
Q 2388 4750 2728 4690 
Q 3069 4631 3425 4513 
z
" transform="scale(0.015625)"/>
       <path id="DejaVuSans-67" d="M 2906 1791 
Q 2906 2416 2648 2759 
Q 2391 3103 1925 3103 
Q 1463 3103 1205 2759 
Q 947 2416 947 1791 
Q 947 1169 1205 825 
Q 1463 481 1925 481 
Q 2391 481 2648 825 
Q 2906 1169 2906 1791 
z
M 3481 434 
Q 3481 -459 3084 -895 
Q 2688 -1331 1869 -1331 
Q 1566 -1331 1297 -1286 
Q 1028 -1241 775 -1147 
L 775 -588 
Q 1028 -725 1275 -790 
Q 1522 -856 1778 -856 
Q 2344 -856 2625 -561 
Q 2906 -266 2906 331 
L 2906 616 
Q 2728 306 2450 153 
Q 2172 0 1784 0 
Q 1141 0 747 490 
Q 353 981 353 1791 
Q 353 2603 747 3093 
Q 1141 3584 1784 3584 
Q 2172 3584 2450 3431 
Q 2728 3278 2906 2969 
L 2906 3500 
L 3481 3500 
L 3481 434 
z
" transform="scale(0.015625)"/>
       <path id="DejaVuSans-2b" d="M 2944 4013 
L 2944 2272 
L 4684 2272 
L 4684 1741 
L 2944 1741 
L 2944 0 
L 2419 0 
L 2419 1741 
L 678 1741 
L 678 2272 
L 2419 2272 
L 2419 4013 
L 2944 4013 
z
" transform="scale(0.015625)"/>
      </defs>
      <use xlink:href="#STIXNonUnicode-Italic-e234" transform="translate(0 0.015625)"/>
      <use xlink:href="#DejaVuSans-31" transform="translate(84.057022 -16.390625) scale(0.7)"/>
      <use xlink:href="#DejaVuSans-3a" transform="translate(131.32753 0.015625)"/>
      <use xlink:href="#DejaVuSans-20" transform="translate(165.018936 0.015625)"/>
      <use xlink:href="#DejaVuSans-53" transform="translate(196.806046 0.015625)"/>
      <use xlink:href="#DejaVuSans-69" transform="translate(260.282608 0.015625)"/>
      <use xlink:href="#DejaVuSans-67" transform="translate(288.065811 0.015625)"/>
      <use xlink:href="#DejaVuSans-6e" transform="translate(351.542374 0.015625)"/>
      <use xlink:href="#DejaVuSans-61" transform="translate(414.92128 0.015625)"/>
      <use xlink:href="#DejaVuSans-6c" transform="translate(476.200577 0.015625)"/>
      <use xlink:href="#DejaVuSans-20" transform="translate(503.98378 0.015625)"/>
      <use xlink:href="#DejaVuSans-2b" transform="translate(535.770889 0.015625)"/>
      <use xlink:href="#DejaVuSans-20" transform="translate(619.559952 0.015625)"/>
      <use xlink:href="#DejaVuSans-4e" transform="translate(651.347061 0.015625)"/>
      <use xlink:href="#DejaVuSans-6f" transform="translate(726.151749 0.015625)"/>
      <use xlink:href="#DejaVuSans-69" transform="translate(787.333389 0.015625)"/>
      <use xlink:href="#DejaVuSans-73" transform="translate(815.116592 0.015625)"/>
      <use xlink:href="#DejaVuSans-65" transform="translate(867.216202 0.015625)"/>
     </g>
    </g>
    <g id="line2d_28">
     <path d="M 438.9 64.794688 
L 448.9 64.794688 
L 458.9 64.794688 
" style="fill: none; stroke-dasharray: 3.7,1.6; stroke-dashoffset: 0; stroke: #000000"/>
    </g>
    <g id="text_19">
     <!-- Threshold -->
     <g transform="translate(466.9 68.294688) scale(0.1 -0.1)">
      <use xlink:href="#DejaVuSans-54"/>
      <use xlink:href="#DejaVuSans-68" transform="translate(61.083984 0)"/>
      <use xlink:href="#DejaVuSans-72" transform="translate(124.462891 0)"/>
      <use xlink:href="#DejaVuSans-65" transform="translate(163.326172 0)"/>
      <use xlink:href="#DejaVuSans-73" transform="translate(224.849609 0)"/>
      <use xlink:href="#DejaVuSans-68" transform="translate(276.949219 0)"/>
      <use xlink:href="#DejaVuSans-6f" transform="translate(340.328125 0)"/>
      <use xlink:href="#DejaVuSans-6c" transform="translate(401.509766 0)"/>
      <use xlink:href="#DejaVuSans-64" transform="translate(429.292969 0)"/>
     </g>
    </g>
   </g>
  </g>
 </g>
 <defs>
  <clipPath id="p6cdeb325b1">
   <rect x="43.78125" y="22.318125" width="525.01875" height="228.125625"/>
  </clipPath>
 </defs>
</svg>
