<?xml version="1.0" encoding="utf-8" standalone="no"?>
<!DOCTYPE svg PUBLIC "-//W3C//DTD SVG 1.1//EN"
  "http://www.w3.org/Graphics/SVG/1.1/DTD/svg11.dtd">
<svg xmlns:xlink="http://www.w3.org/1999/xlink" width="576pt" height="288pt" viewBox="0 0 576 288" xmlns="http://www.w3.org/2000/svg" version="1.1">
 <metadata>
  <rdf:RDF xmlns:dc="http://purl.org/dc/elements/1.1/" xmlns:cc="http://creativecommons.org/ns#" xmlns:rdf="http://www.w3.org/1999/02/22-rdf-syntax-ns#">
   <cc:Work>
    <dc:type rdf:resource="http://purl.org/dc/dcmitype/StillImage"/>
    <dc:date>2025-05-10T16:34:53.640761</dc:date>
    <dc:format>image/svg+xml</dc:format>
    <dc:creator>
     <cc:Agent>
      <dc:title>Matplotlib v3.10.3, https://matplotlib.org/</dc:title>
     </cc:Agent>
    </dc:creator>
   </cc:Work>
  </rdf:RDF>
 </metadata>
 <defs>
  <style type="text/css">*{stroke-linejoin: round; stroke-linecap: butt}</style>
 </defs>
 <g id="figure_1">
  <g id="patch_1">
   <path d="M 0 288 
L 576 288 
L 576 0 
L 0 0 
z
" style="fill: #ffffff"/>
  </g>
  <g id="axes_1">
   <g id="patch_2">
    <path d="M 48.982813 250.421875 
L 568.8 250.421875 
L 568.8 22.32 
L 48.982813 22.32 
z
" style="fill: #ffffff"/>
   </g>
   <g id="matplotlib.axis_1">
    <g id="xtick_1">
     <g id="line2d_1">
      <path d="M 119.89006 250.421875 
L 119.89006 22.32 
" clip-path="url(#p993d60370d)" style="fill: none; stroke-dasharray: 2.96,1.28; stroke-dashoffset: 0; stroke: #b0b0b0; stroke-opacity: 0.8; stroke-width: 0.8"/>
     </g>
     <g id="line2d_2">
      <defs>
       <path id="mb109fc82c9" d="M 0 0 
L 0 3.5 
" style="stroke: #000000; stroke-width: 0.8"/>
      </defs>
      <g>
       <use xlink:href="#mb109fc82c9" x="119.89006" y="250.421875" style="stroke: #000000; stroke-width: 0.8"/>
      </g>
     </g>
     <g id="text_1">
      <!-- -200 -->
      <g transform="translate(108.542404 265.020312) scale(0.1 -0.1)">
       <defs>
        <path id="DejaVuSans-2d" d="M 313 2009 
L 1997 2009 
L 1997 1497 
L 313 1497 
L 313 2009 
z
" transform="scale(0.015625)"/>
        <path id="DejaVuSans-32" d="M 1228 531 
L 3431 531 
L 3431 0 
L 469 0 
L 469 531 
Q 828 903 1448 1529 
Q 2069 2156 2228 2338 
Q 2531 2678 2651 2914 
Q 2772 3150 2772 3378 
Q 2772 3750 2511 3984 
Q 2250 4219 1831 4219 
Q 1534 4219 1204 4116 
Q 875 4013 500 3803 
L 500 4441 
Q 881 4594 1212 4672 
Q 1544 4750 1819 4750 
Q 2544 4750 2975 4387 
Q 3406 4025 3406 3419 
Q 3406 3131 3298 2873 
Q 3191 2616 2906 2266 
Q 2828 2175 2409 1742 
Q 1991 1309 1228 531 
z
" transform="scale(0.015625)"/>
        <path id="DejaVuSans-30" d="M 2034 4250 
Q 1547 4250 1301 3770 
Q 1056 3291 1056 2328 
Q 1056 1369 1301 889 
Q 1547 409 2034 409 
Q 2525 409 2770 889 
Q 3016 1369 3016 2328 
Q 3016 3291 2770 3770 
Q 2525 4250 2034 4250 
z
M 2034 4750 
Q 2819 4750 3233 4129 
Q 3647 3509 3647 2328 
Q 3647 1150 3233 529 
Q 2819 -91 2034 -91 
Q 1250 -91 836 529 
Q 422 1150 422 2328 
Q 422 3509 836 4129 
Q 1250 4750 2034 4750 
z
" transform="scale(0.015625)"/>
       </defs>
       <use xlink:href="#DejaVuSans-2d"/>
       <use xlink:href="#DejaVuSans-32" transform="translate(36.083984 0)"/>
       <use xlink:href="#DejaVuSans-30" transform="translate(99.707031 0)"/>
       <use xlink:href="#DejaVuSans-30" transform="translate(163.330078 0)"/>
      </g>
     </g>
    </g>
    <g id="xtick_2">
     <g id="line2d_3">
      <path d="M 214.448447 250.421875 
L 214.448447 22.32 
" clip-path="url(#p993d60370d)" style="fill: none; stroke-dasharray: 2.96,1.28; stroke-dashoffset: 0; stroke: #b0b0b0; stroke-opacity: 0.8; stroke-width: 0.8"/>
     </g>
     <g id="line2d_4">
      <g>
       <use xlink:href="#mb109fc82c9" x="214.448447" y="250.421875" style="stroke: #000000; stroke-width: 0.8"/>
      </g>
     </g>
     <g id="text_2">
      <!-- -100 -->
      <g transform="translate(203.100791 265.020312) scale(0.1 -0.1)">
       <defs>
        <path id="DejaVuSans-31" d="M 794 531 
L 1825 531 
L 1825 4091 
L 703 3866 
L 703 4441 
L 1819 4666 
L 2450 4666 
L 2450 531 
L 3481 531 
L 3481 0 
L 794 0 
L 794 531 
z
" transform="scale(0.015625)"/>
       </defs>
       <use xlink:href="#DejaVuSans-2d"/>
       <use xlink:href="#DejaVuSans-31" transform="translate(36.083984 0)"/>
       <use xlink:href="#DejaVuSans-30" transform="translate(99.707031 0)"/>
       <use xlink:href="#DejaVuSans-30" transform="translate(163.330078 0)"/>
      </g>
     </g>
    </g>
    <g id="xtick_3">
     <g id="line2d_5">
      <path d="M 309.006834 250.421875 
L 309.006834 22.32 
" clip-path="url(#p993d60370d)" style="fill: none; stroke-dasharray: 2.96,1.28; stroke-dashoffset: 0; stroke: #b0b0b0; stroke-opacity: 0.8; stroke-width: 0.8"/>
     </g>
     <g id="line2d_6">
      <g>
       <use xlink:href="#mb109fc82c9" x="309.006834" y="250.421875" style="stroke: #000000; stroke-width: 0.8"/>
      </g>
     </g>
     <g id="text_3">
      <!-- 0 -->
      <g transform="translate(305.825584 265.020312) scale(0.1 -0.1)">
       <use xlink:href="#DejaVuSans-30"/>
      </g>
     </g>
    </g>
    <g id="xtick_4">
     <g id="line2d_7">
      <path d="M 403.565221 250.421875 
L 403.565221 22.32 
" clip-path="url(#p993d60370d)" style="fill: none; stroke-dasharray: 2.96,1.28; stroke-dashoffset: 0; stroke: #b0b0b0; stroke-opacity: 0.8; stroke-width: 0.8"/>
     </g>
     <g id="line2d_8">
      <g>
       <use xlink:href="#mb109fc82c9" x="403.565221" y="250.421875" style="stroke: #000000; stroke-width: 0.8"/>
      </g>
     </g>
     <g id="text_4">
      <!-- 100 -->
      <g transform="translate(394.021471 265.020312) scale(0.1 -0.1)">
       <use xlink:href="#DejaVuSans-31"/>
       <use xlink:href="#DejaVuSans-30" transform="translate(63.623047 0)"/>
       <use xlink:href="#DejaVuSans-30" transform="translate(127.246094 0)"/>
      </g>
     </g>
    </g>
    <g id="xtick_5">
     <g id="line2d_9">
      <path d="M 498.123608 250.421875 
L 498.123608 22.32 
" clip-path="url(#p993d60370d)" style="fill: none; stroke-dasharray: 2.96,1.28; stroke-dashoffset: 0; stroke: #b0b0b0; stroke-opacity: 0.8; stroke-width: 0.8"/>
     </g>
     <g id="line2d_10">
      <g>
       <use xlink:href="#mb109fc82c9" x="498.123608" y="250.421875" style="stroke: #000000; stroke-width: 0.8"/>
      </g>
     </g>
     <g id="text_5">
      <!-- 200 -->
      <g transform="translate(488.579858 265.020312) scale(0.1 -0.1)">
       <use xlink:href="#DejaVuSans-32"/>
       <use xlink:href="#DejaVuSans-30" transform="translate(63.623047 0)"/>
       <use xlink:href="#DejaVuSans-30" transform="translate(127.246094 0)"/>
      </g>
     </g>
    </g>
    <g id="text_6">
     <!-- Frequency (Hz), $f$ -->
     <g transform="translate(265.741406 278.7) scale(0.1 -0.1)">
      <defs>
       <path id="DejaVuSans-46" d="M 628 4666 
L 3309 4666 
L 3309 4134 
L 1259 4134 
L 1259 2759 
L 3109 2759 
L 3109 2228 
L 1259 2228 
L 1259 0 
L 628 0 
L 628 4666 
z
" transform="scale(0.015625)"/>
       <path id="DejaVuSans-72" d="M 2631 2963 
Q 2534 3019 2420 3045 
Q 2306 3072 2169 3072 
Q 1681 3072 1420 2755 
Q 1159 2438 1159 1844 
L 1159 0 
L 581 0 
L 581 3500 
L 1159 3500 
L 1159 2956 
Q 1341 3275 1631 3429 
Q 1922 3584 2338 3584 
Q 2397 3584 2469 3576 
Q 2541 3569 2628 3553 
L 2631 2963 
z
" transform="scale(0.015625)"/>
       <path id="DejaVuSans-65" d="M 3597 1894 
L 3597 1613 
L 953 1613 
Q 991 1019 1311 708 
Q 1631 397 2203 397 
Q 2534 397 2845 478 
Q 3156 559 3463 722 
L 3463 178 
Q 3153 47 2828 -22 
Q 2503 -91 2169 -91 
Q 1331 -91 842 396 
Q 353 884 353 1716 
Q 353 2575 817 3079 
Q 1281 3584 2069 3584 
Q 2775 3584 3186 3129 
Q 3597 2675 3597 1894 
z
M 3022 2063 
Q 3016 2534 2758 2815 
Q 2500 3097 2075 3097 
Q 1594 3097 1305 2825 
Q 1016 2553 972 2059 
L 3022 2063 
z
" transform="scale(0.015625)"/>
       <path id="DejaVuSans-71" d="M 947 1747 
Q 947 1113 1208 752 
Q 1469 391 1925 391 
Q 2381 391 2643 752 
Q 2906 1113 2906 1747 
Q 2906 2381 2643 2742 
Q 2381 3103 1925 3103 
Q 1469 3103 1208 2742 
Q 947 2381 947 1747 
z
M 2906 525 
Q 2725 213 2448 61 
Q 2172 -91 1784 -91 
Q 1150 -91 751 415 
Q 353 922 353 1747 
Q 353 2572 751 3078 
Q 1150 3584 1784 3584 
Q 2172 3584 2448 3432 
Q 2725 3281 2906 2969 
L 2906 3500 
L 3481 3500 
L 3481 -1331 
L 2906 -1331 
L 2906 525 
z
" transform="scale(0.015625)"/>
       <path id="DejaVuSans-75" d="M 544 1381 
L 544 3500 
L 1119 3500 
L 1119 1403 
Q 1119 906 1312 657 
Q 1506 409 1894 409 
Q 2359 409 2629 706 
Q 2900 1003 2900 1516 
L 2900 3500 
L 3475 3500 
L 3475 0 
L 2900 0 
L 2900 538 
Q 2691 219 2414 64 
Q 2138 -91 1772 -91 
Q 1169 -91 856 284 
Q 544 659 544 1381 
z
M 1991 3584 
L 1991 3584 
z
" transform="scale(0.015625)"/>
       <path id="DejaVuSans-6e" d="M 3513 2113 
L 3513 0 
L 2938 0 
L 2938 2094 
Q 2938 2591 2744 2837 
Q 2550 3084 2163 3084 
Q 1697 3084 1428 2787 
Q 1159 2491 1159 1978 
L 1159 0 
L 581 0 
L 581 3500 
L 1159 3500 
L 1159 2956 
Q 1366 3272 1645 3428 
Q 1925 3584 2291 3584 
Q 2894 3584 3203 3211 
Q 3513 2838 3513 2113 
z
" transform="scale(0.015625)"/>
       <path id="DejaVuSans-63" d="M 3122 3366 
L 3122 2828 
Q 2878 2963 2633 3030 
Q 2388 3097 2138 3097 
Q 1578 3097 1268 2742 
Q 959 2388 959 1747 
Q 959 1106 1268 751 
Q 1578 397 2138 397 
Q 2388 397 2633 464 
Q 2878 531 3122 666 
L 3122 134 
Q 2881 22 2623 -34 
Q 2366 -91 2075 -91 
Q 1284 -91 818 406 
Q 353 903 353 1747 
Q 353 2603 823 3093 
Q 1294 3584 2113 3584 
Q 2378 3584 2631 3529 
Q 2884 3475 3122 3366 
z
" transform="scale(0.015625)"/>
       <path id="DejaVuSans-79" d="M 2059 -325 
Q 1816 -950 1584 -1140 
Q 1353 -1331 966 -1331 
L 506 -1331 
L 506 -850 
L 844 -850 
Q 1081 -850 1212 -737 
Q 1344 -625 1503 -206 
L 1606 56 
L 191 3500 
L 800 3500 
L 1894 763 
L 2988 3500 
L 3597 3500 
L 2059 -325 
z
" transform="scale(0.015625)"/>
       <path id="DejaVuSans-20" transform="scale(0.015625)"/>
       <path id="DejaVuSans-28" d="M 1984 4856 
Q 1566 4138 1362 3434 
Q 1159 2731 1159 2009 
Q 1159 1288 1364 580 
Q 1569 -128 1984 -844 
L 1484 -844 
Q 1016 -109 783 600 
Q 550 1309 550 2009 
Q 550 2706 781 3412 
Q 1013 4119 1484 4856 
L 1984 4856 
z
" transform="scale(0.015625)"/>
       <path id="DejaVuSans-48" d="M 628 4666 
L 1259 4666 
L 1259 2753 
L 3553 2753 
L 3553 4666 
L 4184 4666 
L 4184 0 
L 3553 0 
L 3553 2222 
L 1259 2222 
L 1259 0 
L 628 0 
L 628 4666 
z
" transform="scale(0.015625)"/>
       <path id="DejaVuSans-7a" d="M 353 3500 
L 3084 3500 
L 3084 2975 
L 922 459 
L 3084 459 
L 3084 0 
L 275 0 
L 275 525 
L 2438 3041 
L 353 3041 
L 353 3500 
z
" transform="scale(0.015625)"/>
       <path id="DejaVuSans-29" d="M 513 4856 
L 1013 4856 
Q 1481 4119 1714 3412 
Q 1947 2706 1947 2009 
Q 1947 1309 1714 600 
Q 1481 -109 1013 -844 
L 513 -844 
Q 928 -128 1133 580 
Q 1338 1288 1338 2009 
Q 1338 2731 1133 3434 
Q 928 4138 513 4856 
z
" transform="scale(0.015625)"/>
       <path id="DejaVuSans-2c" d="M 750 794 
L 1409 794 
L 1409 256 
L 897 -744 
L 494 -744 
L 750 256 
L 750 794 
z
" transform="scale(0.015625)"/>
       <path id="DejaVuSans-Oblique-66" d="M 3059 4863 
L 2969 4384 
L 2419 4384 
Q 2106 4384 1964 4261 
Q 1822 4138 1753 3809 
L 1691 3500 
L 2638 3500 
L 2553 3053 
L 1606 3053 
L 1013 0 
L 434 0 
L 1031 3053 
L 481 3053 
L 563 3500 
L 1113 3500 
L 1159 3744 
Q 1278 4363 1576 4613 
Q 1875 4863 2516 4863 
L 3059 4863 
z
" transform="scale(0.015625)"/>
      </defs>
      <use xlink:href="#DejaVuSans-46" transform="translate(0 0.015625)"/>
      <use xlink:href="#DejaVuSans-72" transform="translate(57.519531 0.015625)"/>
      <use xlink:href="#DejaVuSans-65" transform="translate(98.632812 0.015625)"/>
      <use xlink:href="#DejaVuSans-71" transform="translate(160.15625 0.015625)"/>
      <use xlink:href="#DejaVuSans-75" transform="translate(223.632812 0.015625)"/>
      <use xlink:href="#DejaVuSans-65" transform="translate(287.011719 0.015625)"/>
      <use xlink:href="#DejaVuSans-6e" transform="translate(348.535156 0.015625)"/>
      <use xlink:href="#DejaVuSans-63" transform="translate(411.914062 0.015625)"/>
      <use xlink:href="#DejaVuSans-79" transform="translate(466.894531 0.015625)"/>
      <use xlink:href="#DejaVuSans-20" transform="translate(526.074219 0.015625)"/>
      <use xlink:href="#DejaVuSans-28" transform="translate(557.861328 0.015625)"/>
      <use xlink:href="#DejaVuSans-48" transform="translate(596.875 0.015625)"/>
      <use xlink:href="#DejaVuSans-7a" transform="translate(672.070312 0.015625)"/>
      <use xlink:href="#DejaVuSans-29" transform="translate(724.560547 0.015625)"/>
      <use xlink:href="#DejaVuSans-2c" transform="translate(763.574219 0.015625)"/>
      <use xlink:href="#DejaVuSans-20" transform="translate(795.361328 0.015625)"/>
      <use xlink:href="#DejaVuSans-Oblique-66" transform="translate(827.148438 0.015625)"/>
     </g>
    </g>
   </g>
   <g id="matplotlib.axis_2">
    <g id="ytick_1">
     <g id="line2d_11">
      <path d="M 48.982813 229.510308 
L 568.8 229.510308 
" clip-path="url(#p993d60370d)" style="fill: none; stroke-dasharray: 2.96,1.28; stroke-dashoffset: 0; stroke: #b0b0b0; stroke-opacity: 0.8; stroke-width: 0.8"/>
     </g>
     <g id="line2d_12">
      <defs>
       <path id="m36fe8571df" d="M 0 0 
L -3.5 0 
" style="stroke: #000000; stroke-width: 0.8"/>
      </defs>
      <g>
       <use xlink:href="#m36fe8571df" x="48.982813" y="229.510308" style="stroke: #000000; stroke-width: 0.8"/>
      </g>
     </g>
     <g id="text_7">
      <!-- −60 -->
      <g transform="translate(20.878125 233.309526) scale(0.1 -0.1)">
       <defs>
        <path id="DejaVuSans-2212" d="M 678 2272 
L 4684 2272 
L 4684 1741 
L 678 1741 
L 678 2272 
z
" transform="scale(0.015625)"/>
        <path id="DejaVuSans-36" d="M 2113 2584 
Q 1688 2584 1439 2293 
Q 1191 2003 1191 1497 
Q 1191 994 1439 701 
Q 1688 409 2113 409 
Q 2538 409 2786 701 
Q 3034 994 3034 1497 
Q 3034 2003 2786 2293 
Q 2538 2584 2113 2584 
z
M 3366 4563 
L 3366 3988 
Q 3128 4100 2886 4159 
Q 2644 4219 2406 4219 
Q 1781 4219 1451 3797 
Q 1122 3375 1075 2522 
Q 1259 2794 1537 2939 
Q 1816 3084 2150 3084 
Q 2853 3084 3261 2657 
Q 3669 2231 3669 1497 
Q 3669 778 3244 343 
Q 2819 -91 2113 -91 
Q 1303 -91 875 529 
Q 447 1150 447 2328 
Q 447 3434 972 4092 
Q 1497 4750 2381 4750 
Q 2619 4750 2861 4703 
Q 3103 4656 3366 4563 
z
" transform="scale(0.015625)"/>
       </defs>
       <use xlink:href="#DejaVuSans-2212"/>
       <use xlink:href="#DejaVuSans-36" transform="translate(83.789062 0)"/>
       <use xlink:href="#DejaVuSans-30" transform="translate(147.412109 0)"/>
      </g>
     </g>
    </g>
    <g id="ytick_2">
     <g id="line2d_13">
      <path d="M 48.982813 193.933811 
L 568.8 193.933811 
" clip-path="url(#p993d60370d)" style="fill: none; stroke-dasharray: 2.96,1.28; stroke-dashoffset: 0; stroke: #b0b0b0; stroke-opacity: 0.8; stroke-width: 0.8"/>
     </g>
     <g id="line2d_14">
      <g>
       <use xlink:href="#m36fe8571df" x="48.982813" y="193.933811" style="stroke: #000000; stroke-width: 0.8"/>
      </g>
     </g>
     <g id="text_8">
      <!-- −50 -->
      <g transform="translate(20.878125 197.73303) scale(0.1 -0.1)">
       <defs>
        <path id="DejaVuSans-35" d="M 691 4666 
L 3169 4666 
L 3169 4134 
L 1269 4134 
L 1269 2991 
Q 1406 3038 1543 3061 
Q 1681 3084 1819 3084 
Q 2600 3084 3056 2656 
Q 3513 2228 3513 1497 
Q 3513 744 3044 326 
Q 2575 -91 1722 -91 
Q 1428 -91 1123 -41 
Q 819 9 494 109 
L 494 744 
Q 775 591 1075 516 
Q 1375 441 1709 441 
Q 2250 441 2565 725 
Q 2881 1009 2881 1497 
Q 2881 1984 2565 2268 
Q 2250 2553 1709 2553 
Q 1456 2553 1204 2497 
Q 953 2441 691 2322 
L 691 4666 
z
" transform="scale(0.015625)"/>
       </defs>
       <use xlink:href="#DejaVuSans-2212"/>
       <use xlink:href="#DejaVuSans-35" transform="translate(83.789062 0)"/>
       <use xlink:href="#DejaVuSans-30" transform="translate(147.412109 0)"/>
      </g>
     </g>
    </g>
    <g id="ytick_3">
     <g id="line2d_15">
      <path d="M 48.982813 158.357315 
L 568.8 158.357315 
" clip-path="url(#p993d60370d)" style="fill: none; stroke-dasharray: 2.96,1.28; stroke-dashoffset: 0; stroke: #b0b0b0; stroke-opacity: 0.8; stroke-width: 0.8"/>
     </g>
     <g id="line2d_16">
      <g>
       <use xlink:href="#m36fe8571df" x="48.982813" y="158.357315" style="stroke: #000000; stroke-width: 0.8"/>
      </g>
     </g>
     <g id="text_9">
      <!-- −40 -->
      <g transform="translate(20.878125 162.156534) scale(0.1 -0.1)">
       <defs>
        <path id="DejaVuSans-34" d="M 2419 4116 
L 825 1625 
L 2419 1625 
L 2419 4116 
z
M 2253 4666 
L 3047 4666 
L 3047 1625 
L 3713 1625 
L 3713 1100 
L 3047 1100 
L 3047 0 
L 2419 0 
L 2419 1100 
L 313 1100 
L 313 1709 
L 2253 4666 
z
" transform="scale(0.015625)"/>
       </defs>
       <use xlink:href="#DejaVuSans-2212"/>
       <use xlink:href="#DejaVuSans-34" transform="translate(83.789062 0)"/>
       <use xlink:href="#DejaVuSans-30" transform="translate(147.412109 0)"/>
      </g>
     </g>
    </g>
    <g id="ytick_4">
     <g id="line2d_17">
      <path d="M 48.982813 122.780819 
L 568.8 122.780819 
" clip-path="url(#p993d60370d)" style="fill: none; stroke-dasharray: 2.96,1.28; stroke-dashoffset: 0; stroke: #b0b0b0; stroke-opacity: 0.8; stroke-width: 0.8"/>
     </g>
     <g id="line2d_18">
      <g>
       <use xlink:href="#m36fe8571df" x="48.982813" y="122.780819" style="stroke: #000000; stroke-width: 0.8"/>
      </g>
     </g>
     <g id="text_10">
      <!-- −30 -->
      <g transform="translate(20.878125 126.580038) scale(0.1 -0.1)">
       <defs>
        <path id="DejaVuSans-33" d="M 2597 2516 
Q 3050 2419 3304 2112 
Q 3559 1806 3559 1356 
Q 3559 666 3084 287 
Q 2609 -91 1734 -91 
Q 1441 -91 1130 -33 
Q 819 25 488 141 
L 488 750 
Q 750 597 1062 519 
Q 1375 441 1716 441 
Q 2309 441 2620 675 
Q 2931 909 2931 1356 
Q 2931 1769 2642 2001 
Q 2353 2234 1838 2234 
L 1294 2234 
L 1294 2753 
L 1863 2753 
Q 2328 2753 2575 2939 
Q 2822 3125 2822 3475 
Q 2822 3834 2567 4026 
Q 2313 4219 1838 4219 
Q 1578 4219 1281 4162 
Q 984 4106 628 3988 
L 628 4550 
Q 988 4650 1302 4700 
Q 1616 4750 1894 4750 
Q 2613 4750 3031 4423 
Q 3450 4097 3450 3541 
Q 3450 3153 3228 2886 
Q 3006 2619 2597 2516 
z
" transform="scale(0.015625)"/>
       </defs>
       <use xlink:href="#DejaVuSans-2212"/>
       <use xlink:href="#DejaVuSans-33" transform="translate(83.789062 0)"/>
       <use xlink:href="#DejaVuSans-30" transform="translate(147.412109 0)"/>
      </g>
     </g>
    </g>
    <g id="ytick_5">
     <g id="line2d_19">
      <path d="M 48.982813 87.204322 
L 568.8 87.204322 
" clip-path="url(#p993d60370d)" style="fill: none; stroke-dasharray: 2.96,1.28; stroke-dashoffset: 0; stroke: #b0b0b0; stroke-opacity: 0.8; stroke-width: 0.8"/>
     </g>
     <g id="line2d_20">
      <g>
       <use xlink:href="#m36fe8571df" x="48.982813" y="87.204322" style="stroke: #000000; stroke-width: 0.8"/>
      </g>
     </g>
     <g id="text_11">
      <!-- −20 -->
      <g transform="translate(20.878125 91.003541) scale(0.1 -0.1)">
       <use xlink:href="#DejaVuSans-2212"/>
       <use xlink:href="#DejaVuSans-32" transform="translate(83.789062 0)"/>
       <use xlink:href="#DejaVuSans-30" transform="translate(147.412109 0)"/>
      </g>
     </g>
    </g>
    <g id="ytick_6">
     <g id="line2d_21">
      <path d="M 48.982813 51.627826 
L 568.8 51.627826 
" clip-path="url(#p993d60370d)" style="fill: none; stroke-dasharray: 2.96,1.28; stroke-dashoffset: 0; stroke: #b0b0b0; stroke-opacity: 0.8; stroke-width: 0.8"/>
     </g>
     <g id="line2d_22">
      <g>
       <use xlink:href="#m36fe8571df" x="48.982813" y="51.627826" style="stroke: #000000; stroke-width: 0.8"/>
      </g>
     </g>
     <g id="text_12">
      <!-- −10 -->
      <g transform="translate(20.878125 55.427045) scale(0.1 -0.1)">
       <use xlink:href="#DejaVuSans-2212"/>
       <use xlink:href="#DejaVuSans-31" transform="translate(83.789062 0)"/>
       <use xlink:href="#DejaVuSans-30" transform="translate(147.412109 0)"/>
      </g>
     </g>
    </g>
    <g id="text_13">
     <!-- Power density (dB/Hz) -->
     <g transform="translate(14.798437 191.570938) rotate(-90) scale(0.1 -0.1)">
      <defs>
       <path id="DejaVuSans-50" d="M 1259 4147 
L 1259 2394 
L 2053 2394 
Q 2494 2394 2734 2622 
Q 2975 2850 2975 3272 
Q 2975 3691 2734 3919 
Q 2494 4147 2053 4147 
L 1259 4147 
z
M 628 4666 
L 2053 4666 
Q 2838 4666 3239 4311 
Q 3641 3956 3641 3272 
Q 3641 2581 3239 2228 
Q 2838 1875 2053 1875 
L 1259 1875 
L 1259 0 
L 628 0 
L 628 4666 
z
" transform="scale(0.015625)"/>
       <path id="DejaVuSans-6f" d="M 1959 3097 
Q 1497 3097 1228 2736 
Q 959 2375 959 1747 
Q 959 1119 1226 758 
Q 1494 397 1959 397 
Q 2419 397 2687 759 
Q 2956 1122 2956 1747 
Q 2956 2369 2687 2733 
Q 2419 3097 1959 3097 
z
M 1959 3584 
Q 2709 3584 3137 3096 
Q 3566 2609 3566 1747 
Q 3566 888 3137 398 
Q 2709 -91 1959 -91 
Q 1206 -91 779 398 
Q 353 888 353 1747 
Q 353 2609 779 3096 
Q 1206 3584 1959 3584 
z
" transform="scale(0.015625)"/>
       <path id="DejaVuSans-77" d="M 269 3500 
L 844 3500 
L 1563 769 
L 2278 3500 
L 2956 3500 
L 3675 769 
L 4391 3500 
L 4966 3500 
L 4050 0 
L 3372 0 
L 2619 2869 
L 1863 0 
L 1184 0 
L 269 3500 
z
" transform="scale(0.015625)"/>
       <path id="DejaVuSans-64" d="M 2906 2969 
L 2906 4863 
L 3481 4863 
L 3481 0 
L 2906 0 
L 2906 525 
Q 2725 213 2448 61 
Q 2172 -91 1784 -91 
Q 1150 -91 751 415 
Q 353 922 353 1747 
Q 353 2572 751 3078 
Q 1150 3584 1784 3584 
Q 2172 3584 2448 3432 
Q 2725 3281 2906 2969 
z
M 947 1747 
Q 947 1113 1208 752 
Q 1469 391 1925 391 
Q 2381 391 2643 752 
Q 2906 1113 2906 1747 
Q 2906 2381 2643 2742 
Q 2381 3103 1925 3103 
Q 1469 3103 1208 2742 
Q 947 2381 947 1747 
z
" transform="scale(0.015625)"/>
       <path id="DejaVuSans-73" d="M 2834 3397 
L 2834 2853 
Q 2591 2978 2328 3040 
Q 2066 3103 1784 3103 
Q 1356 3103 1142 2972 
Q 928 2841 928 2578 
Q 928 2378 1081 2264 
Q 1234 2150 1697 2047 
L 1894 2003 
Q 2506 1872 2764 1633 
Q 3022 1394 3022 966 
Q 3022 478 2636 193 
Q 2250 -91 1575 -91 
Q 1294 -91 989 -36 
Q 684 19 347 128 
L 347 722 
Q 666 556 975 473 
Q 1284 391 1588 391 
Q 1994 391 2212 530 
Q 2431 669 2431 922 
Q 2431 1156 2273 1281 
Q 2116 1406 1581 1522 
L 1381 1569 
Q 847 1681 609 1914 
Q 372 2147 372 2553 
Q 372 3047 722 3315 
Q 1072 3584 1716 3584 
Q 2034 3584 2315 3537 
Q 2597 3491 2834 3397 
z
" transform="scale(0.015625)"/>
       <path id="DejaVuSans-69" d="M 603 3500 
L 1178 3500 
L 1178 0 
L 603 0 
L 603 3500 
z
M 603 4863 
L 1178 4863 
L 1178 4134 
L 603 4134 
L 603 4863 
z
" transform="scale(0.015625)"/>
       <path id="DejaVuSans-74" d="M 1172 4494 
L 1172 3500 
L 2356 3500 
L 2356 3053 
L 1172 3053 
L 1172 1153 
Q 1172 725 1289 603 
Q 1406 481 1766 481 
L 2356 481 
L 2356 0 
L 1766 0 
Q 1100 0 847 248 
Q 594 497 594 1153 
L 594 3053 
L 172 3053 
L 172 3500 
L 594 3500 
L 594 4494 
L 1172 4494 
z
" transform="scale(0.015625)"/>
       <path id="DejaVuSans-42" d="M 1259 2228 
L 1259 519 
L 2272 519 
Q 2781 519 3026 730 
Q 3272 941 3272 1375 
Q 3272 1813 3026 2020 
Q 2781 2228 2272 2228 
L 1259 2228 
z
M 1259 4147 
L 1259 2741 
L 2194 2741 
Q 2656 2741 2882 2914 
Q 3109 3088 3109 3444 
Q 3109 3797 2882 3972 
Q 2656 4147 2194 4147 
L 1259 4147 
z
M 628 4666 
L 2241 4666 
Q 2963 4666 3353 4366 
Q 3744 4066 3744 3513 
Q 3744 3084 3544 2831 
Q 3344 2578 2956 2516 
Q 3422 2416 3680 2098 
Q 3938 1781 3938 1306 
Q 3938 681 3513 340 
Q 3088 0 2303 0 
L 628 0 
L 628 4666 
z
" transform="scale(0.015625)"/>
       <path id="DejaVuSans-2f" d="M 1625 4666 
L 2156 4666 
L 531 -594 
L 0 -594 
L 1625 4666 
z
" transform="scale(0.015625)"/>
      </defs>
      <use xlink:href="#DejaVuSans-50"/>
      <use xlink:href="#DejaVuSans-6f" transform="translate(56.677734 0)"/>
      <use xlink:href="#DejaVuSans-77" transform="translate(117.859375 0)"/>
      <use xlink:href="#DejaVuSans-65" transform="translate(199.646484 0)"/>
      <use xlink:href="#DejaVuSans-72" transform="translate(261.169922 0)"/>
      <use xlink:href="#DejaVuSans-20" transform="translate(302.283203 0)"/>
      <use xlink:href="#DejaVuSans-64" transform="translate(334.070312 0)"/>
      <use xlink:href="#DejaVuSans-65" transform="translate(397.546875 0)"/>
      <use xlink:href="#DejaVuSans-6e" transform="translate(459.070312 0)"/>
      <use xlink:href="#DejaVuSans-73" transform="translate(522.449219 0)"/>
      <use xlink:href="#DejaVuSans-69" transform="translate(574.548828 0)"/>
      <use xlink:href="#DejaVuSans-74" transform="translate(602.332031 0)"/>
      <use xlink:href="#DejaVuSans-79" transform="translate(641.541016 0)"/>
      <use xlink:href="#DejaVuSans-20" transform="translate(700.720703 0)"/>
      <use xlink:href="#DejaVuSans-28" transform="translate(732.507812 0)"/>
      <use xlink:href="#DejaVuSans-64" transform="translate(771.521484 0)"/>
      <use xlink:href="#DejaVuSans-42" transform="translate(834.998047 0)"/>
      <use xlink:href="#DejaVuSans-2f" transform="translate(903.601562 0)"/>
      <use xlink:href="#DejaVuSans-48" transform="translate(937.292969 0)"/>
      <use xlink:href="#DejaVuSans-7a" transform="translate(1012.488281 0)"/>
      <use xlink:href="#DejaVuSans-29" transform="translate(1064.978516 0)"/>
     </g>
    </g>
   </g>
   <g id="line2d_23">
    <path d="M 72.610866 210.686663 
L 73.303433 213.458542 
L 75.150276 222.161776 
L 75.381132 222.512607 
L 75.611987 222.50488 
L 75.842843 222.088875 
L 76.304553 220.02798 
L 77.689686 211.593945 
L 77.920542 211.096818 
L 78.151397 211.037924 
L 78.382252 211.43571 
L 78.613108 212.289907 
L 79.074819 215.243558 
L 79.99824 222.485727 
L 80.229096 223.043555 
L 80.459951 222.600518 
L 80.690807 221.219337 
L 81.383373 214.151272 
L 82.075939 207.335701 
L 82.53765 204.271905 
L 82.999361 202.731936 
L 83.230217 202.578603 
L 83.461072 202.846262 
L 83.691927 203.530468 
L 84.153638 206.053076 
L 85.538771 215.832625 
L 85.769626 216.3004 
L 86.000482 216.351249 
L 86.462193 215.804971 
L 86.923904 215.250382 
L 87.385614 215.137043 
L 87.847325 215.45729 
L 88.309036 216.101425 
L 89.463313 218.112793 
L 89.694169 218.093729 
L 89.925024 217.704807 
L 90.386735 215.709983 
L 91.771868 207.516672 
L 92.002723 206.961828 
L 92.233579 206.760776 
L 92.464434 206.904412 
L 92.695289 207.361195 
L 93.157 208.961676 
L 93.849567 211.514608 
L 94.080422 211.968608 
L 94.311278 212.151482 
L 94.772988 211.986778 
L 95.003844 211.875915 
L 95.234699 211.903796 
L 95.465555 212.153762 
L 95.927266 213.427577 
L 96.619832 216.093969 
L 96.850687 216.416686 
L 97.081543 216.095783 
L 97.312398 215.083233 
L 98.004965 209.660396 
L 98.466675 206.320946 
L 98.928386 204.427601 
L 99.159242 204.125287 
L 99.390097 204.254658 
L 99.620953 204.791027 
L 100.082663 206.853262 
L 100.77523 210.522164 
L 101.006085 211.146785 
L 101.236941 211.21126 
L 101.467796 210.717169 
L 101.929507 208.61478 
L 102.622073 205.29852 
L 103.083784 204.190684 
L 103.31464 204.066272 
L 103.545495 204.226157 
L 103.77635 204.656911 
L 104.238061 206.248059 
L 104.930628 210.009566 
L 106.084905 216.935287 
L 106.777471 219.73433 
L 107.700893 222.275575 
L 108.624315 224.226257 
L 109.086026 224.80615 
L 109.316881 224.931935 
L 109.547736 224.907966 
L 109.778592 224.698248 
L 110.240303 223.617501 
L 110.932869 220.592341 
L 111.625435 217.42831 
L 112.087146 216.042702 
L 112.548857 215.357086 
L 113.010568 215.149654 
L 113.93399 215.08745 
L 114.395701 215.266799 
L 114.626556 215.542781 
L 115.088267 216.671337 
L 115.549978 218.65578 
L 116.704255 224.763638 
L 117.165966 225.809332 
L 117.396821 225.906284 
L 117.858532 225.609712 
L 118.551098 225.049456 
L 119.012809 225.033809 
L 119.47452 225.360454 
L 119.936231 225.990974 
L 121.552219 228.82841 
L 121.783075 228.840403 
L 122.01393 228.606075 
L 122.475641 227.341386 
L 124.091629 220.889347 
L 124.322484 220.612894 
L 124.55334 220.53862 
L 125.245906 220.727432 
L 125.476762 220.54019 
L 125.707617 220.047971 
L 126.169328 218.078716 
L 127.55446 210.501154 
L 128.016171 209.246659 
L 128.477882 208.741107 
L 128.708738 208.726504 
L 128.939593 208.853598 
L 129.401304 209.52269 
L 129.863015 210.786014 
L 130.324726 212.693475 
L 131.940714 220.781594 
L 132.402425 221.727063 
L 132.864136 222.153045 
L 133.556702 222.557442 
L 133.787557 222.589802 
L 134.018413 222.476605 
L 134.249268 222.14905 
L 134.710979 220.680271 
L 135.403545 216.718933 
L 136.557823 209.712836 
L 137.019533 207.93344 
L 137.481244 206.969639 
L 137.7121 206.791422 
L 137.942955 206.802931 
L 138.173811 206.990038 
L 138.635521 207.832719 
L 139.097232 209.237782 
L 139.558943 211.216037 
L 140.25151 215.324577 
L 140.944076 219.525821 
L 141.174931 220.179622 
L 141.405787 220.123328 
L 141.636642 219.316546 
L 142.098353 216.105143 
L 142.790919 210.891194 
L 143.25263 208.917363 
L 143.483486 208.550943 
L 143.714341 208.611449 
L 143.945197 209.088222 
L 144.406907 211.158784 
L 145.561185 218.399635 
L 145.79204 219.07603 
L 146.022895 219.328393 
L 146.253751 219.25664 
L 146.946317 218.593123 
L 147.177173 218.623287 
L 147.408028 218.88474 
L 147.869739 220.127472 
L 148.562305 223.309557 
L 149.254872 226.243927 
L 149.485727 226.677726 
L 149.716582 226.717588 
L 149.947438 226.372168 
L 150.409149 224.831815 
L 151.33257 221.121934 
L 151.794281 219.89949 
L 152.255992 219.254441 
L 152.486848 219.143618 
L 152.717703 219.168791 
L 153.179414 219.59734 
L 153.87198 220.892104 
L 154.564547 222.102714 
L 155.026257 222.491495 
L 156.180535 223.067079 
L 156.642246 223.745529 
L 157.334812 225.088532 
L 157.565667 225.177384 
L 157.796523 224.781515 
L 158.027378 223.809466 
L 159.181655 217.014202 
L 159.412511 216.826351 
L 159.643366 217.13675 
L 160.105077 218.325144 
L 160.335933 218.588895 
L 160.566788 218.416744 
L 161.028499 217.574899 
L 161.259354 217.460434 
L 161.49021 217.567501 
L 161.721065 217.434646 
L 161.951921 216.402496 
L 162.644487 210.044463 
L 162.875342 210.59028 
L 163.106198 215.036752 
L 163.337053 224.810377 
L 163.567909 222.967803 
L 164.02962 180.399207 
L 164.49133 153.839901 
L 165.183897 128.985851 
L 165.876463 114.067733 
L 166.338174 108.076237 
L 166.799885 104.792513 
L 167.03074 104.108241 
L 167.261596 104.049065 
L 167.492451 104.614531 
L 167.723307 105.811679 
L 168.185017 110.170159 
L 168.646728 117.365309 
L 169.108439 127.873171 
L 169.57015 142.628455 
L 170.031861 163.701065 
L 170.493572 196.614144 
L 170.724427 217.953968 
L 170.955283 220.323935 
L 171.186138 211.744189 
L 171.416994 207.714343 
L 171.647849 207.69405 
L 171.878704 210.525518 
L 172.802126 230.190292 
L 173.032982 231.187083 
L 173.263837 230.760275 
L 173.725548 228.494207 
L 174.187259 224.577821 
L 174.879825 218.352024 
L 175.341536 216.290485 
L 175.803247 215.659593 
L 176.495813 215.352442 
L 176.957524 214.905549 
L 177.65009 213.821413 
L 178.342657 212.72451 
L 178.573512 212.59493 
L 178.804367 212.678622 
L 179.035223 213.0076 
L 179.496934 214.395118 
L 180.651211 219.316494 
L 180.882066 219.813843 
L 181.112922 219.989215 
L 181.343777 219.849029 
L 181.805488 218.828006 
L 182.959765 214.768058 
L 184.114043 210.922644 
L 184.575753 210.026443 
L 184.806609 209.851785 
L 185.037464 209.889154 
L 185.26832 210.147176 
L 185.730031 211.303732 
L 186.422597 214.293508 
L 187.346019 218.731304 
L 187.80773 220.118721 
L 188.26944 220.669025 
L 188.731151 220.669272 
L 189.654573 220.271333 
L 189.885428 219.997445 
L 190.116284 219.524932 
L 190.577995 217.807674 
L 191.963127 210.740452 
L 192.193983 210.214221 
L 192.424838 210.001428 
L 192.655694 210.09689 
L 192.886549 210.473542 
L 193.34826 211.855237 
L 194.271682 214.844377 
L 194.733393 215.448665 
L 195.195104 215.564924 
L 196.349381 215.449883 
L 196.811092 215.07546 
L 197.965369 213.745311 
L 198.196224 213.824424 
L 198.42708 214.145602 
L 198.888791 215.658414 
L 199.350501 218.4426 
L 200.735634 228.728951 
L 200.966489 228.81353 
L 201.197345 228.234559 
L 202.120767 224.296947 
L 202.351622 223.786377 
L 202.582478 223.545965 
L 203.505899 223.264215 
L 203.736755 222.749982 
L 204.198466 220.971003 
L 204.891032 218.124812 
L 205.121887 217.58516 
L 205.352743 217.357174 
L 205.583598 217.456756 
L 205.814454 217.871733 
L 206.276165 219.467283 
L 207.199586 223.154003 
L 207.430442 223.558378 
L 207.661297 223.64747 
L 207.892153 223.463151 
L 209.04643 221.747636 
L 209.277285 221.814605 
L 209.508141 222.108341 
L 209.969851 223.301815 
L 210.662418 225.528541 
L 210.893273 225.903812 
L 211.124129 225.882565 
L 211.354984 225.403893 
L 211.816695 223.214822 
L 213.201828 214.624287 
L 213.663538 213.099973 
L 213.894394 212.714319 
L 214.125249 212.583511 
L 214.356105 212.704188 
L 214.58696 213.069612 
L 215.048671 214.49907 
L 215.510382 216.801385 
L 216.202948 221.73978 
L 217.12637 229.210904 
L 217.357225 230.259045 
L 217.588081 230.540899 
L 217.818936 229.989096 
L 218.280647 226.987018 
L 219.204069 219.739149 
L 219.66578 217.313864 
L 220.127491 215.782238 
L 220.589202 214.934937 
L 221.050912 214.548013 
L 223.359467 213.66037 
L 223.590322 213.786605 
L 223.821178 214.083798 
L 224.282889 215.240185 
L 225.668021 219.97007 
L 225.898877 220.168269 
L 226.129732 220.108379 
L 226.360588 219.82656 
L 226.822298 218.762777 
L 227.514865 216.24984 
L 228.899997 210.563829 
L 229.130853 210.156569 
L 229.361708 210.038057 
L 229.592564 210.231564 
L 229.823419 210.744046 
L 230.28513 212.652269 
L 231.208552 217.731203 
L 231.439407 218.388858 
L 231.670263 218.503654 
L 231.901118 218.064589 
L 232.362829 215.994292 
L 233.055395 212.369568 
L 233.517106 210.88108 
L 233.747962 210.554446 
L 233.978817 210.52908 
L 234.209672 210.815562 
L 234.440528 211.423977 
L 234.902239 213.650501 
L 235.36395 217.259862 
L 236.287371 226.334356 
L 236.518227 227.388959 
L 236.749082 227.185422 
L 236.979938 225.741911 
L 238.595926 210.490499 
L 239.057637 208.820097 
L 239.519347 208.199595 
L 239.750203 208.177975 
L 239.981058 208.307566 
L 240.442769 208.973664 
L 240.90448 210.236425 
L 241.366191 212.264843 
L 242.058757 216.854541 
L 242.751324 221.521372 
L 242.982179 222.251838 
L 243.213034 222.290249 
L 243.44389 221.661545 
L 244.136456 217.78392 
L 244.598167 215.572216 
L 245.059878 214.514885 
L 245.290733 214.381455 
L 245.9833 214.451692 
L 246.214155 214.213564 
L 246.445011 213.688108 
L 246.906721 211.829697 
L 247.830143 207.517677 
L 248.291854 206.329226 
L 248.522709 206.064074 
L 248.753565 206.000352 
L 248.98442 206.111336 
L 249.446131 206.721032 
L 250.831264 209.065699 
L 251.754686 210.034719 
L 252.216396 211.012414 
L 252.908963 213.530662 
L 253.370674 215.076047 
L 253.601529 215.349088 
L 253.832385 215.107465 
L 254.06324 214.3404 
L 255.217517 208.322673 
L 255.448373 207.893651 
L 255.679228 207.97366 
L 255.910083 208.614609 
L 256.140939 209.852181 
L 256.60265 214.15813 
L 257.756927 227.660496 
L 257.987782 227.361761 
L 258.449493 223.764523 
L 259.14206 218.265884 
L 259.834626 214.998705 
L 260.758048 210.451017 
L 261.450614 207.420685 
L 261.681469 206.878733 
L 261.912325 206.641688 
L 262.14318 206.719176 
L 262.374036 207.103824 
L 262.835747 208.708237 
L 263.297457 211.23527 
L 264.220879 218.114998 
L 264.68259 221.381754 
L 264.913446 222.341148 
L 265.144301 222.516931 
L 265.375156 221.804351 
L 265.836867 218.349085 
L 266.529434 212.482568 
L 266.991144 210.373792 
L 267.222 210.091194 
L 267.452855 210.356815 
L 267.683711 211.177463 
L 268.145422 214.42144 
L 269.068843 223.632251 
L 269.299699 224.406191 
L 269.530554 223.778649 
L 269.992265 219.403134 
L 270.684831 211.83662 
L 271.146542 208.622353 
L 271.608253 207.144656 
L 271.839109 206.989738 
L 272.069964 207.161525 
L 272.531675 208.218555 
L 273.455097 210.778105 
L 273.685952 211.068059 
L 273.916808 211.165716 
L 274.147663 211.098233 
L 274.609374 210.61955 
L 275.071085 209.820037 
L 275.532796 208.61374 
L 276.225362 205.804606 
L 276.917928 202.716824 
L 277.379639 201.497498 
L 277.610495 201.341251 
L 277.84135 201.550433 
L 278.072205 202.157651 
L 278.533916 204.631399 
L 278.995627 208.69357 
L 279.919049 217.769245 
L 280.149904 218.693152 
L 280.38076 218.641258 
L 280.611615 217.731309 
L 281.304182 212.686284 
L 281.996748 208.402516 
L 282.458459 207.012888 
L 282.689314 206.806767 
L 282.92017 206.919092 
L 283.151025 207.332421 
L 283.612736 208.945296 
L 284.536158 213.901777 
L 285.228724 216.959546 
L 285.92129 218.702362 
L 286.613857 220.606049 
L 287.768134 224.403145 
L 288.229845 225.405964 
L 288.691556 225.951024 
L 289.384122 226.39662 
L 289.845833 227.207235 
L 290.307544 228.048331 
L 290.538399 227.920451 
L 290.769254 227.155018 
L 291.230965 224.048025 
L 291.923532 219.155523 
L 292.385243 217.176274 
L 292.846953 216.232485 
L 293.077809 216.226342 
L 293.308664 216.624603 
L 293.770375 218.701896 
L 294.232086 221.39586 
L 294.462941 222.103812 
L 294.693797 222.057392 
L 295.155508 220.542365 
L 296.309785 216.336637 
L 296.771496 214.130571 
L 297.002351 214.088345 
L 297.233207 215.31059 
L 297.694918 221.896709 
L 297.925773 225.66285 
L 298.156628 226.648323 
L 298.849195 217.514404 
L 299.08005 217.268904 
L 299.310906 219.484879 
L 299.541761 222.831905 
L 299.772616 222.68305 
L 300.696038 197.213631 
L 300.926894 196.70355 
L 301.157749 199.999096 
L 301.388605 208.41347 
L 301.61946 222.668324 
L 301.850315 221.017306 
L 302.312026 190.637975 
L 302.542882 184.163423 
L 302.773737 182.65152 
L 303.004593 186.960961 
L 303.235448 201.669083 
L 303.466303 235.166675 
L 303.697159 190.033789 
L 304.15887 155.32121 
L 304.389725 147.975689 
L 304.620581 145.155328 
L 304.851436 147.821021 
L 305.082292 161.043544 
L 305.313147 230.220314 
L 305.544002 144.701555 
L 306.005713 100.582577 
L 306.467424 76.673102 
L 307.15999 54.071331 
L 307.852557 40.663236 
L 308.314268 35.50814 
L 308.775979 32.997167 
L 309.006834 32.688267 
L 309.237689 33.003101 
L 309.468545 33.945678 
L 309.930256 37.770137 
L 310.391967 44.370832 
L 310.853677 54.173827 
L 311.315388 68.018147 
L 311.777099 87.770766 
L 312.23881 119.249968 
L 312.469666 147.60446 
L 312.700521 215.290017 
L 312.931376 156.861594 
L 313.162232 145.292823 
L 313.393087 143.117626 
L 313.623943 146.120083 
L 313.854798 153.507582 
L 314.085654 166.132524 
L 314.316509 187.991901 
L 314.547364 230.496264 
L 314.77822 198.596844 
L 315.009075 183.665757 
L 315.239931 178.681343 
L 315.470786 179.044415 
L 315.701642 183.516697 
L 316.163353 203.981284 
L 316.394208 214.727484 
L 316.625063 212.736972 
L 317.086774 202.082539 
L 317.31763 201.642403 
L 317.548485 203.942982 
L 318.010196 211.790981 
L 318.241051 213.226652 
L 318.933618 210.408943 
L 319.164473 211.92772 
L 319.85704 221.934773 
L 320.087895 221.520821 
L 320.780461 213.779372 
L 321.011317 213.326692 
L 321.242172 214.251125 
L 321.703883 218.80229 
L 322.165594 223.098266 
L 322.627305 224.676351 
L 323.089016 225.271939 
L 323.319871 225.191117 
L 323.550726 224.50912 
L 324.012437 221.419626 
L 324.474148 218.187729 
L 324.705004 217.190321 
L 324.935859 216.698534 
L 325.166715 216.665718 
L 325.39757 217.004968 
L 325.859281 218.41907 
L 326.551847 220.851357 
L 326.782703 221.192934 
L 327.013558 221.090518 
L 327.475269 219.812852 
L 327.93698 218.529596 
L 328.167835 218.405294 
L 328.398691 218.764394 
L 328.860402 220.88012 
L 330.014679 227.977648 
L 330.245534 228.345432 
L 330.47639 228.12173 
L 330.707245 227.319273 
L 331.168956 224.374471 
L 332.323233 216.056462 
L 332.784944 214.270397 
L 333.015799 213.881962 
L 333.246655 213.886785 
L 333.47751 214.332574 
L 333.708366 215.264776 
L 334.170077 218.7007 
L 335.324354 230.983582 
L 335.555209 231.121911 
L 335.786065 229.952433 
L 337.171197 218.98421 
L 339.248896 209.712942 
L 339.710607 208.44631 
L 340.172318 207.634144 
L 340.634029 207.263647 
L 340.864884 207.290008 
L 341.09574 207.485059 
L 341.557451 208.401217 
L 342.019161 209.948034 
L 342.711728 213.175721 
L 343.404294 216.549214 
L 344.09686 218.650547 
L 344.789427 220.669995 
L 345.020282 220.8459 
L 345.251138 220.224539 
L 346.174559 214.307835 
L 346.405415 214.228083 
L 347.097981 216.518496 
L 347.328837 215.52519 
L 348.021403 209.537427 
L 348.252258 210.072129 
L 348.483114 213.123407 
L 348.944825 226.666333 
L 349.17568 227.647161 
L 349.868246 205.470036 
L 350.099102 205.01554 
L 350.329957 209.860102 
L 350.560813 219.906964 
L 350.791668 215.780141 
L 351.253379 180.988362 
L 351.71509 165.109498 
L 351.945945 163.227029 
L 352.176801 166.598029 
L 352.407656 180.205828 
L 352.638512 211.010514 
L 352.869367 161.792909 
L 353.331078 119.78247 
L 353.792789 96.489917 
L 354.485355 74.454969 
L 354.947066 64.992297 
L 355.408777 58.679146 
L 355.870488 55.11568 
L 356.101343 54.298861 
L 356.332199 54.108825 
L 356.563054 54.543089 
L 356.793909 55.606751 
L 357.25562 59.683194 
L 357.717331 66.559167 
L 358.179042 76.679117 
L 358.640753 90.916854 
L 359.102464 111.225085 
L 359.564175 143.760966 
L 360.025886 212.820672 
L 360.256741 177.656848 
L 360.487596 168.127477 
L 360.718452 167.044606 
L 360.949307 171.064413 
L 361.180163 179.639825 
L 361.641874 211.337758 
L 361.872729 211.682574 
L 362.33444 193.614825 
L 362.565295 191.500143 
L 362.796151 192.724868 
L 363.027006 196.612577 
L 363.719573 214.00297 
L 363.950428 215.298545 
L 364.412139 214.058471 
L 364.642994 214.830766 
L 365.335561 220.82161 
L 365.566416 221.235684 
L 366.028127 220.323123 
L 366.258982 220.643774 
L 366.489838 221.975361 
L 367.182404 228.57783 
L 367.41326 229.220619 
L 367.644115 228.572494 
L 368.567537 222.719282 
L 369.260103 216.823639 
L 369.952669 211.196607 
L 370.41438 208.991478 
L 370.876091 207.905078 
L 371.106947 207.741622 
L 371.337802 207.864642 
L 371.568657 208.323043 
L 372.030368 210.410645 
L 372.722935 216.111835 
L 373.184645 219.830298 
L 373.415501 220.889838 
L 373.646356 221.204472 
L 373.877212 220.834731 
L 374.338923 218.872902 
L 375.031489 215.857698 
L 375.262344 215.318942 
L 375.4932 215.117027 
L 375.724055 215.284502 
L 375.954911 215.837905 
L 376.416622 218.071784 
L 377.570899 226.042533 
L 377.801754 226.561934 
L 378.03261 226.385155 
L 378.494321 224.482814 
L 379.417742 219.753006 
L 379.879453 218.366492 
L 380.341164 217.753636 
L 380.572019 217.729286 
L 380.802875 217.893802 
L 381.264586 218.801633 
L 381.726297 220.504928 
L 382.188007 223.044415 
L 382.880574 228.456908 
L 383.57314 234.269319 
L 383.803996 235.24728 
L 384.034851 235.211821 
L 384.265706 234.080451 
L 384.727417 229.494621 
L 385.650839 219.297372 
L 386.343405 214.396822 
L 386.805116 212.679563 
L 387.035972 212.2999 
L 387.266827 212.256344 
L 387.497683 212.567593 
L 387.728538 213.255627 
L 388.190249 215.846823 
L 388.65196 220.084948 
L 389.575381 229.484567 
L 389.806237 229.919651 
L 390.037092 229.044638 
L 390.498803 224.89655 
L 391.19137 218.77314 
L 391.65308 216.510354 
L 392.114791 215.532135 
L 392.576502 215.259367 
L 393.730779 214.994482 
L 393.961635 215.066608 
L 394.19249 215.274759 
L 394.654201 216.197901 
L 396.039334 220.12962 
L 396.270189 220.0091 
L 396.501045 219.532045 
L 397.193611 216.917727 
L 397.655322 215.330162 
L 398.117033 214.520932 
L 398.347888 214.443525 
L 398.578744 214.559094 
L 399.040454 215.202017 
L 399.733021 216.384438 
L 400.194732 216.74467 
L 400.425587 216.712574 
L 400.887298 216.229521 
L 402.272431 213.836671 
L 402.503286 213.78871 
L 402.734141 213.939928 
L 403.195852 214.832156 
L 404.119274 217.170427 
L 404.350129 217.157378 
L 404.580985 216.69344 
L 405.042696 214.575252 
L 405.966118 209.387189 
L 406.427828 208.075084 
L 406.658684 207.894758 
L 406.889539 208.03121 
L 407.120395 208.465051 
L 407.582106 210.081464 
L 409.659805 219.536585 
L 410.121515 220.631618 
L 410.352371 220.848156 
L 410.583226 220.755515 
L 410.814082 220.316461 
L 411.275793 218.511718 
L 412.199214 213.999142 
L 412.660925 212.774347 
L 412.891781 212.562267 
L 413.122636 212.608876 
L 413.353491 212.884743 
L 413.815202 213.933979 
L 414.96948 217.010988 
L 415.662046 218.739389 
L 416.123757 220.454774 
L 416.816323 224.186278 
L 417.508889 227.804519 
L 417.739745 228.385698 
L 417.9706 228.454907 
L 418.201456 227.988705 
L 418.663167 225.762502 
L 419.817444 218.868673 
L 420.279155 217.597512 
L 420.51001 217.453856 
L 420.740865 217.635686 
L 421.202576 218.801575 
L 421.895143 220.929043 
L 422.125998 221.141338 
L 422.356854 220.943348 
L 422.818564 219.570439 
L 423.511131 217.276991 
L 423.741986 216.925379 
L 423.972842 216.854795 
L 424.203697 217.0504 
L 424.665408 218.037951 
L 425.58883 220.393687 
L 426.281396 221.372006 
L 427.204818 222.57497 
L 428.359095 224.158136 
L 428.820806 224.59474 
L 429.282517 224.728949 
L 429.513372 224.606714 
L 429.975083 223.866144 
L 430.436794 222.458524 
L 431.12936 219.376133 
L 432.283637 212.6775 
L 433.207059 207.75962 
L 433.66877 206.108086 
L 434.130481 205.090638 
L 434.592192 204.643415 
L 435.053903 204.677088 
L 435.515613 205.137996 
L 435.977324 206.008274 
L 436.669891 207.926589 
L 437.362457 209.825451 
L 437.824168 210.46481 
L 438.055023 210.512629 
L 438.285879 210.387353 
L 438.74759 209.722916 
L 439.440156 208.06376 
L 440.825288 204.105771 
L 441.056144 203.760161 
L 441.286999 203.634132 
L 441.517855 203.768418 
L 441.74871 204.193543 
L 442.210421 205.976895 
L 442.672132 208.957676 
L 446.596674 240.053608 
L 446.82753 239.330233 
L 447.289241 234.376553 
L 448.212662 222.815193 
L 448.674373 219.45665 
L 449.136084 217.883238 
L 449.36694 217.635322 
L 449.828651 217.712394 
L 450.059506 217.74645 
L 450.290361 217.565952 
L 450.521217 217.052334 
L 450.982928 214.968109 
L 451.906349 209.716987 
L 452.36806 208.387614 
L 452.598916 208.232005 
L 452.829771 208.421272 
L 453.060627 208.939595 
L 453.522338 210.834393 
L 454.90747 218.424539 
L 455.138326 218.871858 
L 455.369181 218.842797 
L 455.600036 218.360688 
L 456.061747 216.461633 
L 456.754314 213.377242 
L 457.216025 212.343491 
L 457.44688 212.253385 
L 457.677735 212.434525 
L 458.139446 213.413001 
L 458.832013 215.124863 
L 459.062868 215.387456 
L 459.293723 215.415097 
L 459.524579 215.232409 
L 460.448001 213.952471 
L 460.678856 213.892769 
L 460.909712 214.039445 
L 461.140567 214.407269 
L 461.602278 215.761371 
L 462.756555 219.860328 
L 462.98741 220.039718 
L 463.218266 219.865818 
L 463.679977 218.694741 
L 464.372543 216.490358 
L 464.834254 215.77796 
L 465.065109 215.798828 
L 465.295965 216.100156 
L 465.757676 217.573058 
L 466.219387 220.152409 
L 467.142808 226.38228 
L 467.373664 227.055248 
L 467.604519 226.894352 
L 467.835375 225.864173 
L 468.297086 221.990413 
L 469.220507 213.639768 
L 469.913074 209.632036 
L 470.374784 207.900478 
L 470.836495 206.804984 
L 471.067351 206.531455 
L 471.298206 206.481952 
L 471.529062 206.691089 
L 471.759917 207.187489 
L 472.221628 209.075571 
L 473.375905 215.589099 
L 473.606761 215.92952 
L 473.837616 215.705737 
L 474.299327 214.164402 
L 474.761038 212.550135 
L 474.991893 212.103536 
L 475.222749 211.99198 
L 475.453604 212.223015 
L 475.915315 213.504054 
L 476.377026 215.010597 
L 476.607881 215.36369 
L 476.838737 215.208795 
L 477.069592 214.487067 
L 477.531303 211.760028 
L 478.223869 207.279875 
L 478.68558 205.578541 
L 478.916436 205.26888 
L 479.147291 205.3257 
L 479.378146 205.730783 
L 479.839857 207.426321 
L 480.994135 212.689733 
L 481.22499 212.923441 
L 481.455845 212.685939 
L 481.917556 211.028227 
L 483.071833 205.630564 
L 483.302689 205.110101 
L 483.533544 204.892493 
L 483.7644 204.993212 
L 483.995255 205.413216 
L 484.456966 207.136728 
L 486.072954 215.377216 
L 486.30381 215.707806 
L 486.534665 215.738169 
L 486.76552 215.522261 
L 487.227231 214.633279 
L 487.919798 213.259624 
L 488.150653 213.05442 
L 488.381509 213.051353 
L 488.612364 213.262163 
L 489.074075 214.189576 
L 489.535786 215.120521 
L 489.766641 215.218614 
L 489.997497 214.91359 
L 490.459207 213.167974 
L 491.151774 209.91491 
L 491.382629 209.279492 
L 491.613485 209.020584 
L 491.84434 209.167434 
L 492.075196 209.711435 
L 492.536906 211.74801 
L 493.229473 214.963181 
L 493.460328 215.281488 
L 493.691184 215.025468 
L 494.152894 213.168851 
L 495.076316 208.700545 
L 495.538027 207.436088 
L 495.999738 206.748539 
L 497.154015 205.773268 
L 497.846581 205.362128 
L 498.077437 205.3578 
L 498.308292 205.47144 
L 498.539148 205.738436 
L 499.000859 206.883114 
L 499.462569 209.092821 
L 499.92428 212.611071 
L 500.616847 220.176742 
L 501.078558 225.085359 
L 501.309413 226.424777 
L 501.540268 226.502244 
L 501.771124 225.28414 
L 502.232835 220.35627 
L 503.156256 209.915507 
L 503.617967 206.539236 
L 504.079678 204.718598 
L 504.310534 204.40918 
L 504.541389 204.498868 
L 504.772245 204.976347 
L 505.233955 206.978643 
L 506.388233 214.040825 
L 506.619088 214.712804 
L 506.849943 214.923914 
L 507.080799 214.73259 
L 507.54251 213.624857 
L 508.235076 211.752417 
L 508.696787 210.950692 
L 509.158498 210.593454 
L 509.620209 210.677403 
L 510.08192 211.193884 
L 510.54363 212.110891 
L 511.236197 214.200002 
L 511.697908 216.23028 
L 512.159619 219.069192 
L 513.313896 227.815557 
L 513.544751 227.982115 
L 513.775607 226.967713 
L 514.237317 222.41862 
L 514.929884 215.035644 
L 515.391595 211.890161 
L 515.853306 210.28074 
L 516.315016 209.763676 
L 516.776727 209.758198 
L 517.469294 209.916848 
L 517.700149 210.053107 
L 517.931004 210.319505 
L 518.16186 210.783012 
L 518.623571 212.535998 
L 519.085282 215.623304 
L 520.470414 227.223699 
L 520.70127 227.226219 
L 520.932125 226.356086 
L 521.624691 221.376247 
L 522.317258 217.256313 
L 522.778969 215.714029 
L 523.471535 214.396134 
L 524.625812 212.637065 
L 524.856668 212.536018 
L 525.087523 212.632807 
L 525.318378 212.962128 
L 525.780089 214.363907 
L 526.472656 217.857251 
L 526.934366 220.070861 
L 527.165222 220.747756 
L 527.396077 221.002379 
L 527.626933 220.821281 
L 528.088644 219.497099 
L 528.78121 217.221502 
L 529.012065 216.844386 
L 529.242921 216.745313 
L 529.473776 216.915823 
L 530.397198 218.585353 
L 530.628053 218.541422 
L 530.858909 218.076457 
L 531.32062 216.015328 
L 532.705752 208.364751 
L 533.398319 205.818094 
L 533.86003 204.713153 
L 534.090885 204.421717 
L 534.32174 204.354784 
L 534.552596 204.547983 
L 534.783451 205.030587 
L 535.245162 206.932671 
L 535.706873 210.056497 
L 536.86115 219.253827 
L 537.092006 220.014846 
L 537.322861 220.11271 
L 537.553717 219.644255 
L 538.707994 215.833586 
L 538.938849 215.750049 
L 539.169705 215.982039 
L 539.631416 217.120052 
L 540.093126 218.208272 
L 540.323982 218.261944 
L 540.554837 217.796318 
L 541.016548 215.384254 
L 542.170825 207.712031 
L 542.632536 206.149785 
L 542.863392 205.782615 
L 543.094247 205.66457 
L 543.325103 205.76308 
L 543.786813 206.448523 
L 544.710235 208.687264 
L 545.171946 209.964957 
L 545.171946 209.964957 
" clip-path="url(#p993d60370d)" style="fill: none; stroke: #1f77b4; stroke-linecap: square"/>
   </g>
   <g id="patch_3">
    <path d="M 48.982813 250.421875 
L 48.982813 22.32 
" style="fill: none; stroke: #000000; stroke-width: 0.8; stroke-linejoin: miter; stroke-linecap: square"/>
   </g>
   <g id="patch_4">
    <path d="M 568.8 250.421875 
L 568.8 22.32 
" style="fill: none; stroke: #000000; stroke-width: 0.8; stroke-linejoin: miter; stroke-linecap: square"/>
   </g>
   <g id="patch_5">
    <path d="M 48.982813 250.421875 
L 568.8 250.421875 
" style="fill: none; stroke: #000000; stroke-width: 0.8; stroke-linejoin: miter; stroke-linecap: square"/>
   </g>
   <g id="patch_6">
    <path d="M 48.982813 22.32 
L 568.8 22.32 
" style="fill: none; stroke: #000000; stroke-width: 0.8; stroke-linejoin: miter; stroke-linecap: square"/>
   </g>
   <g id="text_14">
    <!-- Periodogram of $x_c[n]$ -->
    <g transform="translate(246.371406 16.32) scale(0.12 -0.12)">
     <defs>
      <path id="DejaVuSans-67" d="M 2906 1791 
Q 2906 2416 2648 2759 
Q 2391 3103 1925 3103 
Q 1463 3103 1205 2759 
Q 947 2416 947 1791 
Q 947 1169 1205 825 
Q 1463 481 1925 481 
Q 2391 481 2648 825 
Q 2906 1169 2906 1791 
z
M 3481 434 
Q 3481 -459 3084 -895 
Q 2688 -1331 1869 -1331 
Q 1566 -1331 1297 -1286 
Q 1028 -1241 775 -1147 
L 775 -588 
Q 1028 -725 1275 -790 
Q 1522 -856 1778 -856 
Q 2344 -856 2625 -561 
Q 2906 -266 2906 331 
L 2906 616 
Q 2728 306 2450 153 
Q 2172 0 1784 0 
Q 1141 0 747 490 
Q 353 981 353 1791 
Q 353 2603 747 3093 
Q 1141 3584 1784 3584 
Q 2172 3584 2450 3431 
Q 2728 3278 2906 2969 
L 2906 3500 
L 3481 3500 
L 3481 434 
z
" transform="scale(0.015625)"/>
      <path id="DejaVuSans-61" d="M 2194 1759 
Q 1497 1759 1228 1600 
Q 959 1441 959 1056 
Q 959 750 1161 570 
Q 1363 391 1709 391 
Q 2188 391 2477 730 
Q 2766 1069 2766 1631 
L 2766 1759 
L 2194 1759 
z
M 3341 1997 
L 3341 0 
L 2766 0 
L 2766 531 
Q 2569 213 2275 61 
Q 1981 -91 1556 -91 
Q 1019 -91 701 211 
Q 384 513 384 1019 
Q 384 1609 779 1909 
Q 1175 2209 1959 2209 
L 2766 2209 
L 2766 2266 
Q 2766 2663 2505 2880 
Q 2244 3097 1772 3097 
Q 1472 3097 1187 3025 
Q 903 2953 641 2809 
L 641 3341 
Q 956 3463 1253 3523 
Q 1550 3584 1831 3584 
Q 2591 3584 2966 3190 
Q 3341 2797 3341 1997 
z
" transform="scale(0.015625)"/>
      <path id="DejaVuSans-6d" d="M 3328 2828 
Q 3544 3216 3844 3400 
Q 4144 3584 4550 3584 
Q 5097 3584 5394 3201 
Q 5691 2819 5691 2113 
L 5691 0 
L 5113 0 
L 5113 2094 
Q 5113 2597 4934 2840 
Q 4756 3084 4391 3084 
Q 3944 3084 3684 2787 
Q 3425 2491 3425 1978 
L 3425 0 
L 2847 0 
L 2847 2094 
Q 2847 2600 2669 2842 
Q 2491 3084 2119 3084 
Q 1678 3084 1418 2786 
Q 1159 2488 1159 1978 
L 1159 0 
L 581 0 
L 581 3500 
L 1159 3500 
L 1159 2956 
Q 1356 3278 1631 3431 
Q 1906 3584 2284 3584 
Q 2666 3584 2933 3390 
Q 3200 3197 3328 2828 
z
" transform="scale(0.015625)"/>
      <path id="DejaVuSans-66" d="M 2375 4863 
L 2375 4384 
L 1825 4384 
Q 1516 4384 1395 4259 
Q 1275 4134 1275 3809 
L 1275 3500 
L 2222 3500 
L 2222 3053 
L 1275 3053 
L 1275 0 
L 697 0 
L 697 3053 
L 147 3053 
L 147 3500 
L 697 3500 
L 697 3744 
Q 697 4328 969 4595 
Q 1241 4863 1831 4863 
L 2375 4863 
z
" transform="scale(0.015625)"/>
      <path id="DejaVuSans-Oblique-78" d="M 3841 3500 
L 2234 1784 
L 3219 0 
L 2559 0 
L 1819 1388 
L 531 0 
L -166 0 
L 1556 1844 
L 641 3500 
L 1300 3500 
L 1972 2234 
L 3144 3500 
L 3841 3500 
z
" transform="scale(0.015625)"/>
      <path id="DejaVuSans-Oblique-63" d="M 3431 3366 
L 3316 2797 
Q 3109 2947 2876 3022 
Q 2644 3097 2394 3097 
Q 2119 3097 1870 3000 
Q 1622 2903 1453 2725 
Q 1184 2453 1037 2087 
Q 891 1722 891 1331 
Q 891 859 1127 628 
Q 1363 397 1844 397 
Q 2081 397 2348 469 
Q 2616 541 2906 684 
L 2797 116 
Q 2547 13 2283 -39 
Q 2019 -91 1741 -91 
Q 1044 -91 669 257 
Q 294 606 294 1253 
Q 294 1797 489 2255 
Q 684 2713 1069 3078 
Q 1331 3328 1684 3456 
Q 2038 3584 2456 3584 
Q 2700 3584 2940 3529 
Q 3181 3475 3431 3366 
z
" transform="scale(0.015625)"/>
      <path id="DejaVuSans-5b" d="M 550 4863 
L 1875 4863 
L 1875 4416 
L 1125 4416 
L 1125 -397 
L 1875 -397 
L 1875 -844 
L 550 -844 
L 550 4863 
z
" transform="scale(0.015625)"/>
      <path id="DejaVuSans-Oblique-6e" d="M 3566 2113 
L 3156 0 
L 2578 0 
L 2988 2091 
Q 3016 2238 3031 2350 
Q 3047 2463 3047 2528 
Q 3047 2791 2881 2937 
Q 2716 3084 2419 3084 
Q 1956 3084 1622 2776 
Q 1288 2469 1184 1941 
L 800 0 
L 225 0 
L 903 3500 
L 1478 3500 
L 1363 2950 
Q 1603 3253 1940 3418 
Q 2278 3584 2650 3584 
Q 3113 3584 3367 3334 
Q 3622 3084 3622 2631 
Q 3622 2519 3608 2391 
Q 3594 2263 3566 2113 
z
" transform="scale(0.015625)"/>
      <path id="DejaVuSans-5d" d="M 1947 4863 
L 1947 -844 
L 622 -844 
L 622 -397 
L 1369 -397 
L 1369 4416 
L 622 4416 
L 622 4863 
L 1947 4863 
z
" transform="scale(0.015625)"/>
     </defs>
     <use xlink:href="#DejaVuSans-50" transform="translate(0 0.015625)"/>
     <use xlink:href="#DejaVuSans-65" transform="translate(60.302734 0.015625)"/>
     <use xlink:href="#DejaVuSans-72" transform="translate(121.826172 0.015625)"/>
     <use xlink:href="#DejaVuSans-69" transform="translate(162.939453 0.015625)"/>
     <use xlink:href="#DejaVuSans-6f" transform="translate(190.722656 0.015625)"/>
     <use xlink:href="#DejaVuSans-64" transform="translate(251.904297 0.015625)"/>
     <use xlink:href="#DejaVuSans-6f" transform="translate(315.380859 0.015625)"/>
     <use xlink:href="#DejaVuSans-67" transform="translate(376.5625 0.015625)"/>
     <use xlink:href="#DejaVuSans-72" transform="translate(440.039062 0.015625)"/>
     <use xlink:href="#DejaVuSans-61" transform="translate(481.152344 0.015625)"/>
     <use xlink:href="#DejaVuSans-6d" transform="translate(542.431641 0.015625)"/>
     <use xlink:href="#DejaVuSans-20" transform="translate(639.84375 0.015625)"/>
     <use xlink:href="#DejaVuSans-6f" transform="translate(671.630859 0.015625)"/>
     <use xlink:href="#DejaVuSans-66" transform="translate(732.8125 0.015625)"/>
     <use xlink:href="#DejaVuSans-20" transform="translate(768.017578 0.015625)"/>
     <use xlink:href="#DejaVuSans-Oblique-78" transform="translate(799.804688 0.015625)"/>
     <use xlink:href="#DejaVuSans-Oblique-63" transform="translate(858.984375 -16.390625) scale(0.7)"/>
     <use xlink:href="#DejaVuSans-5b" transform="translate(900.205078 0.015625)"/>
     <use xlink:href="#DejaVuSans-Oblique-6e" transform="translate(939.21875 0.015625)"/>
     <use xlink:href="#DejaVuSans-5d" transform="translate(1002.597656 0.015625)"/>
    </g>
   </g>
  </g>
 </g>
 <defs>
  <clipPath id="p993d60370d">
   <rect x="48.982813" y="22.32" width="519.817188" height="228.101875"/>
  </clipPath>
 </defs>
</svg>
