<?xml version="1.0" encoding="utf-8" standalone="no"?>
<!DOCTYPE svg PUBLIC "-//W3C//DTD SVG 1.1//EN"
  "http://www.w3.org/Graphics/SVG/1.1/DTD/svg11.dtd">
<svg xmlns:xlink="http://www.w3.org/1999/xlink" width="576pt" height="288pt" viewBox="0 0 576 288" xmlns="http://www.w3.org/2000/svg" version="1.1">
 <metadata>
  <rdf:RDF xmlns:dc="http://purl.org/dc/elements/1.1/" xmlns:cc="http://creativecommons.org/ns#" xmlns:rdf="http://www.w3.org/1999/02/22-rdf-syntax-ns#">
   <cc:Work>
    <dc:type rdf:resource="http://purl.org/dc/dcmitype/StillImage"/>
    <dc:date>2025-05-12T21:34:21.179281</dc:date>
    <dc:format>image/svg+xml</dc:format>
    <dc:creator>
     <cc:Agent>
      <dc:title>Matplotlib v3.10.3, https://matplotlib.org/</dc:title>
     </cc:Agent>
    </dc:creator>
   </cc:Work>
  </rdf:RDF>
 </metadata>
 <defs>
  <style type="text/css">*{stroke-linejoin: round; stroke-linecap: butt}</style>
 </defs>
 <g id="figure_1">
  <g id="patch_1">
   <path d="M 0 288 
L 576 288 
L 576 0 
L 0 0 
z
" style="fill: #ffffff"/>
  </g>
  <g id="axes_1">
   <g id="patch_2">
    <path d="M 52.160938 250.421875 
L 568.8 250.421875 
L 568.8 7.2 
L 52.160938 7.2 
z
" style="fill: #ffffff"/>
   </g>
   <g id="matplotlib.axis_1">
    <g id="xtick_1">
     <g id="line2d_1">
      <path d="M 75.644531 250.421875 
L 75.644531 7.2 
" clip-path="url(#p546b24b1f6)" style="fill: none; stroke-dasharray: 2.96,1.28; stroke-dashoffset: 0; stroke: #b0b0b0; stroke-opacity: 0.8; stroke-width: 0.8"/>
     </g>
     <g id="line2d_2">
      <defs>
       <path id="m423050000d" d="M 0 0 
L 0 3.5 
" style="stroke: #000000; stroke-width: 0.8"/>
      </defs>
      <g>
       <use xlink:href="#m423050000d" x="75.644531" y="250.421875" style="stroke: #000000; stroke-width: 0.8"/>
      </g>
     </g>
     <g id="text_1">
      <!-- 0 -->
      <g transform="translate(72.463281 265.020312) scale(0.1 -0.1)">
       <defs>
        <path id="DejaVuSans-30" d="M 2034 4250 
Q 1547 4250 1301 3770 
Q 1056 3291 1056 2328 
Q 1056 1369 1301 889 
Q 1547 409 2034 409 
Q 2525 409 2770 889 
Q 3016 1369 3016 2328 
Q 3016 3291 2770 3770 
Q 2525 4250 2034 4250 
z
M 2034 4750 
Q 2819 4750 3233 4129 
Q 3647 3509 3647 2328 
Q 3647 1150 3233 529 
Q 2819 -91 2034 -91 
Q 1250 -91 836 529 
Q 422 1150 422 2328 
Q 422 3509 836 4129 
Q 1250 4750 2034 4750 
z
" transform="scale(0.015625)"/>
       </defs>
       <use xlink:href="#DejaVuSans-30"/>
      </g>
     </g>
    </g>
    <g id="xtick_2">
     <g id="line2d_3">
      <path d="M 134.500656 250.421875 
L 134.500656 7.2 
" clip-path="url(#p546b24b1f6)" style="fill: none; stroke-dasharray: 2.96,1.28; stroke-dashoffset: 0; stroke: #b0b0b0; stroke-opacity: 0.8; stroke-width: 0.8"/>
     </g>
     <g id="line2d_4">
      <g>
       <use xlink:href="#m423050000d" x="134.500656" y="250.421875" style="stroke: #000000; stroke-width: 0.8"/>
      </g>
     </g>
     <g id="text_2">
      <!-- 50 -->
      <g transform="translate(128.138156 265.020312) scale(0.1 -0.1)">
       <defs>
        <path id="DejaVuSans-35" d="M 691 4666 
L 3169 4666 
L 3169 4134 
L 1269 4134 
L 1269 2991 
Q 1406 3038 1543 3061 
Q 1681 3084 1819 3084 
Q 2600 3084 3056 2656 
Q 3513 2228 3513 1497 
Q 3513 744 3044 326 
Q 2575 -91 1722 -91 
Q 1428 -91 1123 -41 
Q 819 9 494 109 
L 494 744 
Q 775 591 1075 516 
Q 1375 441 1709 441 
Q 2250 441 2565 725 
Q 2881 1009 2881 1497 
Q 2881 1984 2565 2268 
Q 2250 2553 1709 2553 
Q 1456 2553 1204 2497 
Q 953 2441 691 2322 
L 691 4666 
z
" transform="scale(0.015625)"/>
       </defs>
       <use xlink:href="#DejaVuSans-35"/>
       <use xlink:href="#DejaVuSans-30" transform="translate(63.623047 0)"/>
      </g>
     </g>
    </g>
    <g id="xtick_3">
     <g id="line2d_5">
      <path d="M 193.356781 250.421875 
L 193.356781 7.2 
" clip-path="url(#p546b24b1f6)" style="fill: none; stroke-dasharray: 2.96,1.28; stroke-dashoffset: 0; stroke: #b0b0b0; stroke-opacity: 0.8; stroke-width: 0.8"/>
     </g>
     <g id="line2d_6">
      <g>
       <use xlink:href="#m423050000d" x="193.356781" y="250.421875" style="stroke: #000000; stroke-width: 0.8"/>
      </g>
     </g>
     <g id="text_3">
      <!-- 100 -->
      <g transform="translate(183.813031 265.020312) scale(0.1 -0.1)">
       <defs>
        <path id="DejaVuSans-31" d="M 794 531 
L 1825 531 
L 1825 4091 
L 703 3866 
L 703 4441 
L 1819 4666 
L 2450 4666 
L 2450 531 
L 3481 531 
L 3481 0 
L 794 0 
L 794 531 
z
" transform="scale(0.015625)"/>
       </defs>
       <use xlink:href="#DejaVuSans-31"/>
       <use xlink:href="#DejaVuSans-30" transform="translate(63.623047 0)"/>
       <use xlink:href="#DejaVuSans-30" transform="translate(127.246094 0)"/>
      </g>
     </g>
    </g>
    <g id="xtick_4">
     <g id="line2d_7">
      <path d="M 252.212905 250.421875 
L 252.212905 7.2 
" clip-path="url(#p546b24b1f6)" style="fill: none; stroke-dasharray: 2.96,1.28; stroke-dashoffset: 0; stroke: #b0b0b0; stroke-opacity: 0.8; stroke-width: 0.8"/>
     </g>
     <g id="line2d_8">
      <g>
       <use xlink:href="#m423050000d" x="252.212905" y="250.421875" style="stroke: #000000; stroke-width: 0.8"/>
      </g>
     </g>
     <g id="text_4">
      <!-- 150 -->
      <g transform="translate(242.669155 265.020312) scale(0.1 -0.1)">
       <use xlink:href="#DejaVuSans-31"/>
       <use xlink:href="#DejaVuSans-35" transform="translate(63.623047 0)"/>
       <use xlink:href="#DejaVuSans-30" transform="translate(127.246094 0)"/>
      </g>
     </g>
    </g>
    <g id="xtick_5">
     <g id="line2d_9">
      <path d="M 311.06903 250.421875 
L 311.06903 7.2 
" clip-path="url(#p546b24b1f6)" style="fill: none; stroke-dasharray: 2.96,1.28; stroke-dashoffset: 0; stroke: #b0b0b0; stroke-opacity: 0.8; stroke-width: 0.8"/>
     </g>
     <g id="line2d_10">
      <g>
       <use xlink:href="#m423050000d" x="311.06903" y="250.421875" style="stroke: #000000; stroke-width: 0.8"/>
      </g>
     </g>
     <g id="text_5">
      <!-- 200 -->
      <g transform="translate(301.52528 265.020312) scale(0.1 -0.1)">
       <defs>
        <path id="DejaVuSans-32" d="M 1228 531 
L 3431 531 
L 3431 0 
L 469 0 
L 469 531 
Q 828 903 1448 1529 
Q 2069 2156 2228 2338 
Q 2531 2678 2651 2914 
Q 2772 3150 2772 3378 
Q 2772 3750 2511 3984 
Q 2250 4219 1831 4219 
Q 1534 4219 1204 4116 
Q 875 4013 500 3803 
L 500 4441 
Q 881 4594 1212 4672 
Q 1544 4750 1819 4750 
Q 2544 4750 2975 4387 
Q 3406 4025 3406 3419 
Q 3406 3131 3298 2873 
Q 3191 2616 2906 2266 
Q 2828 2175 2409 1742 
Q 1991 1309 1228 531 
z
" transform="scale(0.015625)"/>
       </defs>
       <use xlink:href="#DejaVuSans-32"/>
       <use xlink:href="#DejaVuSans-30" transform="translate(63.623047 0)"/>
       <use xlink:href="#DejaVuSans-30" transform="translate(127.246094 0)"/>
      </g>
     </g>
    </g>
    <g id="xtick_6">
     <g id="line2d_11">
      <path d="M 369.925155 250.421875 
L 369.925155 7.2 
" clip-path="url(#p546b24b1f6)" style="fill: none; stroke-dasharray: 2.96,1.28; stroke-dashoffset: 0; stroke: #b0b0b0; stroke-opacity: 0.8; stroke-width: 0.8"/>
     </g>
     <g id="line2d_12">
      <g>
       <use xlink:href="#m423050000d" x="369.925155" y="250.421875" style="stroke: #000000; stroke-width: 0.8"/>
      </g>
     </g>
     <g id="text_6">
      <!-- 250 -->
      <g transform="translate(360.381405 265.020312) scale(0.1 -0.1)">
       <use xlink:href="#DejaVuSans-32"/>
       <use xlink:href="#DejaVuSans-35" transform="translate(63.623047 0)"/>
       <use xlink:href="#DejaVuSans-30" transform="translate(127.246094 0)"/>
      </g>
     </g>
    </g>
    <g id="xtick_7">
     <g id="line2d_13">
      <path d="M 428.781279 250.421875 
L 428.781279 7.2 
" clip-path="url(#p546b24b1f6)" style="fill: none; stroke-dasharray: 2.96,1.28; stroke-dashoffset: 0; stroke: #b0b0b0; stroke-opacity: 0.8; stroke-width: 0.8"/>
     </g>
     <g id="line2d_14">
      <g>
       <use xlink:href="#m423050000d" x="428.781279" y="250.421875" style="stroke: #000000; stroke-width: 0.8"/>
      </g>
     </g>
     <g id="text_7">
      <!-- 300 -->
      <g transform="translate(419.237529 265.020312) scale(0.1 -0.1)">
       <defs>
        <path id="DejaVuSans-33" d="M 2597 2516 
Q 3050 2419 3304 2112 
Q 3559 1806 3559 1356 
Q 3559 666 3084 287 
Q 2609 -91 1734 -91 
Q 1441 -91 1130 -33 
Q 819 25 488 141 
L 488 750 
Q 750 597 1062 519 
Q 1375 441 1716 441 
Q 2309 441 2620 675 
Q 2931 909 2931 1356 
Q 2931 1769 2642 2001 
Q 2353 2234 1838 2234 
L 1294 2234 
L 1294 2753 
L 1863 2753 
Q 2328 2753 2575 2939 
Q 2822 3125 2822 3475 
Q 2822 3834 2567 4026 
Q 2313 4219 1838 4219 
Q 1578 4219 1281 4162 
Q 984 4106 628 3988 
L 628 4550 
Q 988 4650 1302 4700 
Q 1616 4750 1894 4750 
Q 2613 4750 3031 4423 
Q 3450 4097 3450 3541 
Q 3450 3153 3228 2886 
Q 3006 2619 2597 2516 
z
" transform="scale(0.015625)"/>
       </defs>
       <use xlink:href="#DejaVuSans-33"/>
       <use xlink:href="#DejaVuSans-30" transform="translate(63.623047 0)"/>
       <use xlink:href="#DejaVuSans-30" transform="translate(127.246094 0)"/>
      </g>
     </g>
    </g>
    <g id="xtick_8">
     <g id="line2d_15">
      <path d="M 487.637404 250.421875 
L 487.637404 7.2 
" clip-path="url(#p546b24b1f6)" style="fill: none; stroke-dasharray: 2.96,1.28; stroke-dashoffset: 0; stroke: #b0b0b0; stroke-opacity: 0.8; stroke-width: 0.8"/>
     </g>
     <g id="line2d_16">
      <g>
       <use xlink:href="#m423050000d" x="487.637404" y="250.421875" style="stroke: #000000; stroke-width: 0.8"/>
      </g>
     </g>
     <g id="text_8">
      <!-- 350 -->
      <g transform="translate(478.093654 265.020312) scale(0.1 -0.1)">
       <use xlink:href="#DejaVuSans-33"/>
       <use xlink:href="#DejaVuSans-35" transform="translate(63.623047 0)"/>
       <use xlink:href="#DejaVuSans-30" transform="translate(127.246094 0)"/>
      </g>
     </g>
    </g>
    <g id="xtick_9">
     <g id="line2d_17">
      <path d="M 546.493529 250.421875 
L 546.493529 7.2 
" clip-path="url(#p546b24b1f6)" style="fill: none; stroke-dasharray: 2.96,1.28; stroke-dashoffset: 0; stroke: #b0b0b0; stroke-opacity: 0.8; stroke-width: 0.8"/>
     </g>
     <g id="line2d_18">
      <g>
       <use xlink:href="#m423050000d" x="546.493529" y="250.421875" style="stroke: #000000; stroke-width: 0.8"/>
      </g>
     </g>
     <g id="text_9">
      <!-- 400 -->
      <g transform="translate(536.949779 265.020312) scale(0.1 -0.1)">
       <defs>
        <path id="DejaVuSans-34" d="M 2419 4116 
L 825 1625 
L 2419 1625 
L 2419 4116 
z
M 2253 4666 
L 3047 4666 
L 3047 1625 
L 3713 1625 
L 3713 1100 
L 3047 1100 
L 3047 0 
L 2419 0 
L 2419 1100 
L 313 1100 
L 313 1709 
L 2253 4666 
z
" transform="scale(0.015625)"/>
       </defs>
       <use xlink:href="#DejaVuSans-34"/>
       <use xlink:href="#DejaVuSans-30" transform="translate(63.623047 0)"/>
       <use xlink:href="#DejaVuSans-30" transform="translate(127.246094 0)"/>
      </g>
     </g>
    </g>
    <g id="text_10">
     <!-- Sample, $n$ -->
     <g transform="translate(285.380469 278.7) scale(0.1 -0.1)">
      <defs>
       <path id="DejaVuSans-53" d="M 3425 4513 
L 3425 3897 
Q 3066 4069 2747 4153 
Q 2428 4238 2131 4238 
Q 1616 4238 1336 4038 
Q 1056 3838 1056 3469 
Q 1056 3159 1242 3001 
Q 1428 2844 1947 2747 
L 2328 2669 
Q 3034 2534 3370 2195 
Q 3706 1856 3706 1288 
Q 3706 609 3251 259 
Q 2797 -91 1919 -91 
Q 1588 -91 1214 -16 
Q 841 59 441 206 
L 441 856 
Q 825 641 1194 531 
Q 1563 422 1919 422 
Q 2459 422 2753 634 
Q 3047 847 3047 1241 
Q 3047 1584 2836 1778 
Q 2625 1972 2144 2069 
L 1759 2144 
Q 1053 2284 737 2584 
Q 422 2884 422 3419 
Q 422 4038 858 4394 
Q 1294 4750 2059 4750 
Q 2388 4750 2728 4690 
Q 3069 4631 3425 4513 
z
" transform="scale(0.015625)"/>
       <path id="DejaVuSans-61" d="M 2194 1759 
Q 1497 1759 1228 1600 
Q 959 1441 959 1056 
Q 959 750 1161 570 
Q 1363 391 1709 391 
Q 2188 391 2477 730 
Q 2766 1069 2766 1631 
L 2766 1759 
L 2194 1759 
z
M 3341 1997 
L 3341 0 
L 2766 0 
L 2766 531 
Q 2569 213 2275 61 
Q 1981 -91 1556 -91 
Q 1019 -91 701 211 
Q 384 513 384 1019 
Q 384 1609 779 1909 
Q 1175 2209 1959 2209 
L 2766 2209 
L 2766 2266 
Q 2766 2663 2505 2880 
Q 2244 3097 1772 3097 
Q 1472 3097 1187 3025 
Q 903 2953 641 2809 
L 641 3341 
Q 956 3463 1253 3523 
Q 1550 3584 1831 3584 
Q 2591 3584 2966 3190 
Q 3341 2797 3341 1997 
z
" transform="scale(0.015625)"/>
       <path id="DejaVuSans-6d" d="M 3328 2828 
Q 3544 3216 3844 3400 
Q 4144 3584 4550 3584 
Q 5097 3584 5394 3201 
Q 5691 2819 5691 2113 
L 5691 0 
L 5113 0 
L 5113 2094 
Q 5113 2597 4934 2840 
Q 4756 3084 4391 3084 
Q 3944 3084 3684 2787 
Q 3425 2491 3425 1978 
L 3425 0 
L 2847 0 
L 2847 2094 
Q 2847 2600 2669 2842 
Q 2491 3084 2119 3084 
Q 1678 3084 1418 2786 
Q 1159 2488 1159 1978 
L 1159 0 
L 581 0 
L 581 3500 
L 1159 3500 
L 1159 2956 
Q 1356 3278 1631 3431 
Q 1906 3584 2284 3584 
Q 2666 3584 2933 3390 
Q 3200 3197 3328 2828 
z
" transform="scale(0.015625)"/>
       <path id="DejaVuSans-70" d="M 1159 525 
L 1159 -1331 
L 581 -1331 
L 581 3500 
L 1159 3500 
L 1159 2969 
Q 1341 3281 1617 3432 
Q 1894 3584 2278 3584 
Q 2916 3584 3314 3078 
Q 3713 2572 3713 1747 
Q 3713 922 3314 415 
Q 2916 -91 2278 -91 
Q 1894 -91 1617 61 
Q 1341 213 1159 525 
z
M 3116 1747 
Q 3116 2381 2855 2742 
Q 2594 3103 2138 3103 
Q 1681 3103 1420 2742 
Q 1159 2381 1159 1747 
Q 1159 1113 1420 752 
Q 1681 391 2138 391 
Q 2594 391 2855 752 
Q 3116 1113 3116 1747 
z
" transform="scale(0.015625)"/>
       <path id="DejaVuSans-6c" d="M 603 4863 
L 1178 4863 
L 1178 0 
L 603 0 
L 603 4863 
z
" transform="scale(0.015625)"/>
       <path id="DejaVuSans-65" d="M 3597 1894 
L 3597 1613 
L 953 1613 
Q 991 1019 1311 708 
Q 1631 397 2203 397 
Q 2534 397 2845 478 
Q 3156 559 3463 722 
L 3463 178 
Q 3153 47 2828 -22 
Q 2503 -91 2169 -91 
Q 1331 -91 842 396 
Q 353 884 353 1716 
Q 353 2575 817 3079 
Q 1281 3584 2069 3584 
Q 2775 3584 3186 3129 
Q 3597 2675 3597 1894 
z
M 3022 2063 
Q 3016 2534 2758 2815 
Q 2500 3097 2075 3097 
Q 1594 3097 1305 2825 
Q 1016 2553 972 2059 
L 3022 2063 
z
" transform="scale(0.015625)"/>
       <path id="DejaVuSans-2c" d="M 750 794 
L 1409 794 
L 1409 256 
L 897 -744 
L 494 -744 
L 750 256 
L 750 794 
z
" transform="scale(0.015625)"/>
       <path id="DejaVuSans-20" transform="scale(0.015625)"/>
       <path id="DejaVuSans-Oblique-6e" d="M 3566 2113 
L 3156 0 
L 2578 0 
L 2988 2091 
Q 3016 2238 3031 2350 
Q 3047 2463 3047 2528 
Q 3047 2791 2881 2937 
Q 2716 3084 2419 3084 
Q 1956 3084 1622 2776 
Q 1288 2469 1184 1941 
L 800 0 
L 225 0 
L 903 3500 
L 1478 3500 
L 1363 2950 
Q 1603 3253 1940 3418 
Q 2278 3584 2650 3584 
Q 3113 3584 3367 3334 
Q 3622 3084 3622 2631 
Q 3622 2519 3608 2391 
Q 3594 2263 3566 2113 
z
" transform="scale(0.015625)"/>
      </defs>
      <use xlink:href="#DejaVuSans-53" transform="translate(0 0.015625)"/>
      <use xlink:href="#DejaVuSans-61" transform="translate(63.476562 0.015625)"/>
      <use xlink:href="#DejaVuSans-6d" transform="translate(124.755859 0.015625)"/>
      <use xlink:href="#DejaVuSans-70" transform="translate(222.167969 0.015625)"/>
      <use xlink:href="#DejaVuSans-6c" transform="translate(285.644531 0.015625)"/>
      <use xlink:href="#DejaVuSans-65" transform="translate(313.427734 0.015625)"/>
      <use xlink:href="#DejaVuSans-2c" transform="translate(374.951172 0.015625)"/>
      <use xlink:href="#DejaVuSans-20" transform="translate(406.738281 0.015625)"/>
      <use xlink:href="#DejaVuSans-Oblique-6e" transform="translate(438.525391 0.015625)"/>
     </g>
    </g>
   </g>
   <g id="matplotlib.axis_2">
    <g id="ytick_1">
     <g id="line2d_19">
      <path d="M 52.160938 241.498763 
L 568.8 241.498763 
" clip-path="url(#p546b24b1f6)" style="fill: none; stroke-dasharray: 2.96,1.28; stroke-dashoffset: 0; stroke: #b0b0b0; stroke-opacity: 0.8; stroke-width: 0.8"/>
     </g>
     <g id="line2d_20">
      <defs>
       <path id="m608ac53870" d="M 0 0 
L -3.5 0 
" style="stroke: #000000; stroke-width: 0.8"/>
      </defs>
      <g>
       <use xlink:href="#m608ac53870" x="52.160938" y="241.498763" style="stroke: #000000; stroke-width: 0.8"/>
      </g>
     </g>
     <g id="text_11">
      <!-- −0.4 -->
      <g transform="translate(20.878125 245.297981) scale(0.1 -0.1)">
       <defs>
        <path id="DejaVuSans-2212" d="M 678 2272 
L 4684 2272 
L 4684 1741 
L 678 1741 
L 678 2272 
z
" transform="scale(0.015625)"/>
        <path id="DejaVuSans-2e" d="M 684 794 
L 1344 794 
L 1344 0 
L 684 0 
L 684 794 
z
" transform="scale(0.015625)"/>
       </defs>
       <use xlink:href="#DejaVuSans-2212"/>
       <use xlink:href="#DejaVuSans-30" transform="translate(83.789062 0)"/>
       <use xlink:href="#DejaVuSans-2e" transform="translate(147.412109 0)"/>
       <use xlink:href="#DejaVuSans-34" transform="translate(179.199219 0)"/>
      </g>
     </g>
    </g>
    <g id="ytick_2">
     <g id="line2d_21">
      <path d="M 52.160938 213.148674 
L 568.8 213.148674 
" clip-path="url(#p546b24b1f6)" style="fill: none; stroke-dasharray: 2.96,1.28; stroke-dashoffset: 0; stroke: #b0b0b0; stroke-opacity: 0.8; stroke-width: 0.8"/>
     </g>
     <g id="line2d_22">
      <g>
       <use xlink:href="#m608ac53870" x="52.160938" y="213.148674" style="stroke: #000000; stroke-width: 0.8"/>
      </g>
     </g>
     <g id="text_12">
      <!-- −0.3 -->
      <g transform="translate(20.878125 216.947893) scale(0.1 -0.1)">
       <use xlink:href="#DejaVuSans-2212"/>
       <use xlink:href="#DejaVuSans-30" transform="translate(83.789062 0)"/>
       <use xlink:href="#DejaVuSans-2e" transform="translate(147.412109 0)"/>
       <use xlink:href="#DejaVuSans-33" transform="translate(179.199219 0)"/>
      </g>
     </g>
    </g>
    <g id="ytick_3">
     <g id="line2d_23">
      <path d="M 52.160938 184.798586 
L 568.8 184.798586 
" clip-path="url(#p546b24b1f6)" style="fill: none; stroke-dasharray: 2.96,1.28; stroke-dashoffset: 0; stroke: #b0b0b0; stroke-opacity: 0.8; stroke-width: 0.8"/>
     </g>
     <g id="line2d_24">
      <g>
       <use xlink:href="#m608ac53870" x="52.160938" y="184.798586" style="stroke: #000000; stroke-width: 0.8"/>
      </g>
     </g>
     <g id="text_13">
      <!-- −0.2 -->
      <g transform="translate(20.878125 188.597805) scale(0.1 -0.1)">
       <use xlink:href="#DejaVuSans-2212"/>
       <use xlink:href="#DejaVuSans-30" transform="translate(83.789062 0)"/>
       <use xlink:href="#DejaVuSans-2e" transform="translate(147.412109 0)"/>
       <use xlink:href="#DejaVuSans-32" transform="translate(179.199219 0)"/>
      </g>
     </g>
    </g>
    <g id="ytick_4">
     <g id="line2d_25">
      <path d="M 52.160938 156.448498 
L 568.8 156.448498 
" clip-path="url(#p546b24b1f6)" style="fill: none; stroke-dasharray: 2.96,1.28; stroke-dashoffset: 0; stroke: #b0b0b0; stroke-opacity: 0.8; stroke-width: 0.8"/>
     </g>
     <g id="line2d_26">
      <g>
       <use xlink:href="#m608ac53870" x="52.160938" y="156.448498" style="stroke: #000000; stroke-width: 0.8"/>
      </g>
     </g>
     <g id="text_14">
      <!-- −0.1 -->
      <g transform="translate(20.878125 160.247716) scale(0.1 -0.1)">
       <use xlink:href="#DejaVuSans-2212"/>
       <use xlink:href="#DejaVuSans-30" transform="translate(83.789062 0)"/>
       <use xlink:href="#DejaVuSans-2e" transform="translate(147.412109 0)"/>
       <use xlink:href="#DejaVuSans-31" transform="translate(179.199219 0)"/>
      </g>
     </g>
    </g>
    <g id="ytick_5">
     <g id="line2d_27">
      <path d="M 52.160938 128.098409 
L 568.8 128.098409 
" clip-path="url(#p546b24b1f6)" style="fill: none; stroke-dasharray: 2.96,1.28; stroke-dashoffset: 0; stroke: #b0b0b0; stroke-opacity: 0.8; stroke-width: 0.8"/>
     </g>
     <g id="line2d_28">
      <g>
       <use xlink:href="#m608ac53870" x="52.160938" y="128.098409" style="stroke: #000000; stroke-width: 0.8"/>
      </g>
     </g>
     <g id="text_15">
      <!-- 0.0 -->
      <g transform="translate(29.257812 131.897628) scale(0.1 -0.1)">
       <use xlink:href="#DejaVuSans-30"/>
       <use xlink:href="#DejaVuSans-2e" transform="translate(63.623047 0)"/>
       <use xlink:href="#DejaVuSans-30" transform="translate(95.410156 0)"/>
      </g>
     </g>
    </g>
    <g id="ytick_6">
     <g id="line2d_29">
      <path d="M 52.160938 99.748321 
L 568.8 99.748321 
" clip-path="url(#p546b24b1f6)" style="fill: none; stroke-dasharray: 2.96,1.28; stroke-dashoffset: 0; stroke: #b0b0b0; stroke-opacity: 0.8; stroke-width: 0.8"/>
     </g>
     <g id="line2d_30">
      <g>
       <use xlink:href="#m608ac53870" x="52.160938" y="99.748321" style="stroke: #000000; stroke-width: 0.8"/>
      </g>
     </g>
     <g id="text_16">
      <!-- 0.1 -->
      <g transform="translate(29.257812 103.54754) scale(0.1 -0.1)">
       <use xlink:href="#DejaVuSans-30"/>
       <use xlink:href="#DejaVuSans-2e" transform="translate(63.623047 0)"/>
       <use xlink:href="#DejaVuSans-31" transform="translate(95.410156 0)"/>
      </g>
     </g>
    </g>
    <g id="ytick_7">
     <g id="line2d_31">
      <path d="M 52.160938 71.398232 
L 568.8 71.398232 
" clip-path="url(#p546b24b1f6)" style="fill: none; stroke-dasharray: 2.96,1.28; stroke-dashoffset: 0; stroke: #b0b0b0; stroke-opacity: 0.8; stroke-width: 0.8"/>
     </g>
     <g id="line2d_32">
      <g>
       <use xlink:href="#m608ac53870" x="52.160938" y="71.398232" style="stroke: #000000; stroke-width: 0.8"/>
      </g>
     </g>
     <g id="text_17">
      <!-- 0.2 -->
      <g transform="translate(29.257812 75.197451) scale(0.1 -0.1)">
       <use xlink:href="#DejaVuSans-30"/>
       <use xlink:href="#DejaVuSans-2e" transform="translate(63.623047 0)"/>
       <use xlink:href="#DejaVuSans-32" transform="translate(95.410156 0)"/>
      </g>
     </g>
    </g>
    <g id="ytick_8">
     <g id="line2d_33">
      <path d="M 52.160938 43.048144 
L 568.8 43.048144 
" clip-path="url(#p546b24b1f6)" style="fill: none; stroke-dasharray: 2.96,1.28; stroke-dashoffset: 0; stroke: #b0b0b0; stroke-opacity: 0.8; stroke-width: 0.8"/>
     </g>
     <g id="line2d_34">
      <g>
       <use xlink:href="#m608ac53870" x="52.160938" y="43.048144" style="stroke: #000000; stroke-width: 0.8"/>
      </g>
     </g>
     <g id="text_18">
      <!-- 0.3 -->
      <g transform="translate(29.257812 46.847363) scale(0.1 -0.1)">
       <use xlink:href="#DejaVuSans-30"/>
       <use xlink:href="#DejaVuSans-2e" transform="translate(63.623047 0)"/>
       <use xlink:href="#DejaVuSans-33" transform="translate(95.410156 0)"/>
      </g>
     </g>
    </g>
    <g id="ytick_9">
     <g id="line2d_35">
      <path d="M 52.160938 14.698056 
L 568.8 14.698056 
" clip-path="url(#p546b24b1f6)" style="fill: none; stroke-dasharray: 2.96,1.28; stroke-dashoffset: 0; stroke: #b0b0b0; stroke-opacity: 0.8; stroke-width: 0.8"/>
     </g>
     <g id="line2d_36">
      <g>
       <use xlink:href="#m608ac53870" x="52.160938" y="14.698056" style="stroke: #000000; stroke-width: 0.8"/>
      </g>
     </g>
     <g id="text_19">
      <!-- 0.4 -->
      <g transform="translate(29.257812 18.497274) scale(0.1 -0.1)">
       <use xlink:href="#DejaVuSans-30"/>
       <use xlink:href="#DejaVuSans-2e" transform="translate(63.623047 0)"/>
       <use xlink:href="#DejaVuSans-34" transform="translate(95.410156 0)"/>
      </g>
     </g>
    </g>
    <g id="text_20">
     <!-- Amplitude -->
     <g transform="translate(14.798437 154.433594) rotate(-90) scale(0.1 -0.1)">
      <defs>
       <path id="DejaVuSans-41" d="M 2188 4044 
L 1331 1722 
L 3047 1722 
L 2188 4044 
z
M 1831 4666 
L 2547 4666 
L 4325 0 
L 3669 0 
L 3244 1197 
L 1141 1197 
L 716 0 
L 50 0 
L 1831 4666 
z
" transform="scale(0.015625)"/>
       <path id="DejaVuSans-69" d="M 603 3500 
L 1178 3500 
L 1178 0 
L 603 0 
L 603 3500 
z
M 603 4863 
L 1178 4863 
L 1178 4134 
L 603 4134 
L 603 4863 
z
" transform="scale(0.015625)"/>
       <path id="DejaVuSans-74" d="M 1172 4494 
L 1172 3500 
L 2356 3500 
L 2356 3053 
L 1172 3053 
L 1172 1153 
Q 1172 725 1289 603 
Q 1406 481 1766 481 
L 2356 481 
L 2356 0 
L 1766 0 
Q 1100 0 847 248 
Q 594 497 594 1153 
L 594 3053 
L 172 3053 
L 172 3500 
L 594 3500 
L 594 4494 
L 1172 4494 
z
" transform="scale(0.015625)"/>
       <path id="DejaVuSans-75" d="M 544 1381 
L 544 3500 
L 1119 3500 
L 1119 1403 
Q 1119 906 1312 657 
Q 1506 409 1894 409 
Q 2359 409 2629 706 
Q 2900 1003 2900 1516 
L 2900 3500 
L 3475 3500 
L 3475 0 
L 2900 0 
L 2900 538 
Q 2691 219 2414 64 
Q 2138 -91 1772 -91 
Q 1169 -91 856 284 
Q 544 659 544 1381 
z
M 1991 3584 
L 1991 3584 
z
" transform="scale(0.015625)"/>
       <path id="DejaVuSans-64" d="M 2906 2969 
L 2906 4863 
L 3481 4863 
L 3481 0 
L 2906 0 
L 2906 525 
Q 2725 213 2448 61 
Q 2172 -91 1784 -91 
Q 1150 -91 751 415 
Q 353 922 353 1747 
Q 353 2572 751 3078 
Q 1150 3584 1784 3584 
Q 2172 3584 2448 3432 
Q 2725 3281 2906 2969 
z
M 947 1747 
Q 947 1113 1208 752 
Q 1469 391 1925 391 
Q 2381 391 2643 752 
Q 2906 1113 2906 1747 
Q 2906 2381 2643 2742 
Q 2381 3103 1925 3103 
Q 1469 3103 1208 2742 
Q 947 2381 947 1747 
z
" transform="scale(0.015625)"/>
      </defs>
      <use xlink:href="#DejaVuSans-41"/>
      <use xlink:href="#DejaVuSans-6d" transform="translate(68.408203 0)"/>
      <use xlink:href="#DejaVuSans-70" transform="translate(165.820312 0)"/>
      <use xlink:href="#DejaVuSans-6c" transform="translate(229.296875 0)"/>
      <use xlink:href="#DejaVuSans-69" transform="translate(257.080078 0)"/>
      <use xlink:href="#DejaVuSans-74" transform="translate(284.863281 0)"/>
      <use xlink:href="#DejaVuSans-75" transform="translate(324.072266 0)"/>
      <use xlink:href="#DejaVuSans-64" transform="translate(387.451172 0)"/>
      <use xlink:href="#DejaVuSans-65" transform="translate(450.927734 0)"/>
     </g>
    </g>
   </g>
   <g id="line2d_37">
    <path d="M 75.644531 126.135153 
L 76.821654 168.526991 
L 77.998776 204.817602 
L 79.175899 225.502432 
L 80.353021 232.349288 
L 81.530144 227.658114 
L 83.884389 173.928233 
L 85.061511 124.077548 
L 86.238634 95.152735 
L 87.415756 56.374456 
L 88.592879 37.714739 
L 89.770001 30.534638 
L 90.947124 37.63356 
L 92.124246 54.6648 
L 93.301369 94.021751 
L 94.478491 118.760788 
L 95.655614 170.592894 
L 98.009859 223.450983 
L 99.186981 229.519867 
L 100.364104 222.769357 
L 101.541226 200.157202 
L 102.718349 170.747711 
L 103.895471 129.122944 
L 105.072594 164.22677 
L 106.249716 204.076087 
L 107.426839 224.223209 
L 108.603961 224.055823 
L 109.781084 223.574613 
L 110.958206 199.744727 
L 112.135329 166.009656 
L 113.312451 124.776638 
L 114.489574 169.090924 
L 115.666696 195.451514 
L 116.843819 217.88091 
L 118.020941 223.762294 
L 119.198064 217.564473 
L 120.375186 196.625055 
L 121.552309 168.523698 
L 122.729431 125.4114 
L 123.906553 86.735339 
L 125.083676 64.670482 
L 126.260798 36.588851 
L 127.437921 28.223748 
L 128.615043 31.872191 
L 130.969288 79.772284 
L 133.323533 166.498745 
L 134.500656 192.868605 
L 135.677778 222.990646 
L 136.854901 234.108807 
L 138.032023 224.109099 
L 139.209146 195.406646 
L 141.563391 126.02846 
L 142.740513 89.165861 
L 145.094758 32.837514 
L 146.271881 27.898465 
L 147.449003 41.899585 
L 148.626126 52.412472 
L 150.980371 124.115186 
L 153.334616 58.814688 
L 154.511738 27.708013 
L 155.688861 24.136192 
L 156.865983 33.504411 
L 158.043106 60.560895 
L 159.220228 91.599047 
L 162.751596 198.676014 
L 163.928718 218.62189 
L 165.105841 225.195842 
L 166.282963 218.997528 
L 167.460086 193.369224 
L 168.637208 160.441621 
L 169.814331 131.43106 
L 170.991453 163.468643 
L 172.168576 201.681692 
L 173.345698 224.361836 
L 174.522821 222.56518 
L 175.699943 227.224225 
L 176.877066 204.937088 
L 178.054188 161.630351 
L 181.585556 53.831565 
L 182.762678 36.502981 
L 185.116923 31.933113 
L 186.294046 58.323555 
L 187.471168 96.933992 
L 188.648291 129.797951 
L 189.825413 167.797385 
L 191.002536 200.746892 
L 192.179658 226.416279 
L 193.356781 232.436544 
L 194.533903 225.440823 
L 195.711026 203.017189 
L 196.888148 161.938215 
L 198.065271 133.938465 
L 199.242393 170.488607 
L 201.596638 226.47894 
L 202.773761 230.084587 
L 203.950883 217.644979 
L 205.128006 208.020829 
L 206.305128 162.664356 
L 208.659373 90.63857 
L 209.836496 64.029076 
L 211.013618 40.242138 
L 212.190741 29.57416 
L 213.367863 39.12914 
L 214.544986 53.687045 
L 215.722108 90.320164 
L 216.89923 133.164819 
L 218.076353 88.91626 
L 220.430598 29.735457 
L 221.60772 23.997101 
L 222.784843 30.722527 
L 223.961965 64.640255 
L 225.139088 88.845963 
L 226.31621 124.894637 
L 227.493333 87.66728 
L 228.670455 58.169851 
L 229.847578 45.044466 
L 231.0247 23.155761 
L 232.201823 41.250105 
L 233.378945 57.609968 
L 235.73319 133.680546 
L 236.910313 162.334182 
L 238.087435 202.566036 
L 239.264558 220.059163 
L 240.44168 232.645328 
L 241.618803 215.185161 
L 242.795925 204.419027 
L 243.973048 168.087583 
L 245.15017 123.668906 
L 246.327293 165.294067 
L 247.504415 191.875433 
L 248.681538 221.897473 
L 249.85866 229.135185 
L 251.035783 210.079988 
L 252.212905 198.931224 
L 253.390028 166.275329 
L 254.56715 127.697947 
L 256.921395 60.445374 
L 258.098518 41.928446 
L 259.27564 32.271232 
L 260.452763 35.104639 
L 261.629885 60.672485 
L 265.161253 156.720817 
L 266.338375 197.196229 
L 267.515498 223.096639 
L 268.69262 226.80404 
L 269.869743 217.807438 
L 271.046865 197.176502 
L 272.223988 165.253014 
L 273.40111 125.138478 
L 274.578233 169.246732 
L 275.755355 197.437773 
L 276.932478 218.430063 
L 278.1096 222.203832 
L 279.286723 224.370884 
L 281.640968 165.882358 
L 282.81809 124.436548 
L 283.995213 166.047583 
L 285.172335 202.827705 
L 286.349458 219.210257 
L 287.52658 230.840078 
L 288.703703 217.475414 
L 289.880825 196.692899 
L 291.057948 167.172893 
L 292.23507 121.444651 
L 293.412193 169.680276 
L 294.589315 201.140143 
L 295.766438 212.884933 
L 296.94356 233.957939 
L 298.120683 223.425346 
L 299.297805 202.422978 
L 301.65205 125.718085 
L 302.829173 170.397635 
L 304.006295 202.472451 
L 305.183418 222.803275 
L 306.36054 221.560182 
L 307.537663 226.605665 
L 308.714785 208.269797 
L 311.06903 130.192016 
L 313.423275 205.763724 
L 314.600397 223.336392 
L 315.77752 226.344909 
L 318.131765 203.894225 
L 320.48601 129.153878 
L 322.840255 203.029252 
L 324.017377 220.764501 
L 325.1945 225.421177 
L 326.371622 220.577581 
L 328.725867 170.497111 
L 329.90299 126.150264 
L 331.080112 89.572063 
L 332.257235 64.85161 
L 333.434357 33.522568 
L 334.61148 27.608477 
L 335.788602 42.062399 
L 336.965725 53.843123 
L 338.142847 87.602663 
L 339.31997 131.041664 
L 340.497092 75.189539 
L 341.674215 54.450844 
L 342.851337 38.96932 
L 344.02846 28.6326 
L 345.205582 29.682156 
L 348.73695 117.464543 
L 349.914072 165.818396 
L 351.091195 185.735388 
L 352.268317 222.004532 
L 353.44544 227.920259 
L 354.622562 225.962203 
L 355.799685 202.870402 
L 359.331052 90.444681 
L 360.508175 52.805045 
L 361.685297 34.529733 
L 362.86242 32.082488 
L 364.039542 37.16368 
L 365.216665 64.57996 
L 367.57091 127.489516 
L 368.748032 97.891639 
L 369.925155 61.447084 
L 371.102277 39.134681 
L 372.2794 29.496349 
L 373.456522 46.417872 
L 374.633645 58.829935 
L 375.810767 98.197401 
L 376.98789 127.135045 
L 378.165012 85.503496 
L 379.342135 50.07473 
L 381.69638 28.567168 
L 382.873502 28.234342 
L 385.227747 89.536302 
L 386.40487 127.136755 
L 387.581992 91.326939 
L 389.936237 35.505681 
L 391.11336 26.66135 
L 392.290482 39.160977 
L 393.467605 57.946936 
L 394.644727 94.138554 
L 395.82185 121.572253 
L 396.998972 87.197587 
L 399.353217 39.525306 
L 400.53034 26.674215 
L 401.707462 27.654669 
L 402.884585 61.424853 
L 404.061707 88.455379 
L 406.415952 170.237436 
L 407.593074 204.745313 
L 408.770197 222.15377 
L 409.947319 228.819245 
L 411.124442 222.047749 
L 412.301564 196.573056 
L 413.478687 159.985891 
L 414.655809 133.200638 
L 415.832932 88.249889 
L 417.010054 54.769235 
L 418.187177 36.410536 
L 419.364299 25.133952 
L 420.541422 30.829299 
L 421.718544 56.686339 
L 422.895667 93.005701 
L 424.072789 123.43803 
L 425.249912 169.448598 
L 426.427034 197.383541 
L 428.781279 225.997602 
L 429.958402 226.051661 
L 431.135524 197.446607 
L 433.489769 127.378377 
L 434.666892 98.053131 
L 435.844014 50.606496 
L 437.021137 34.415838 
L 438.198259 24.48636 
L 440.552504 60.777045 
L 441.729627 93.340083 
L 442.906749 134.952951 
L 444.083872 88.804329 
L 445.260994 66.155539 
L 446.438117 32.903695 
L 447.615239 33.616782 
L 448.792362 30.902664 
L 449.969484 52.340066 
L 451.146607 94.978085 
L 453.500852 168.041851 
L 454.677974 201.1784 
L 455.855097 222.386549 
L 457.032219 228.064113 
L 459.386464 202.889177 
L 460.563587 167.375243 
L 461.740709 128.348098 
L 462.917832 165.040628 
L 465.272077 223.698949 
L 466.449199 223.291278 
L 467.626322 224.827486 
L 468.803444 191.562857 
L 471.157689 133.13501 
L 472.334812 173.302621 
L 473.511934 199.370791 
L 474.689057 228.630995 
L 477.043302 215.994725 
L 478.220424 202.396526 
L 479.397547 165.23003 
L 480.574669 123.9891 
L 481.751792 170.589209 
L 482.928914 196.324945 
L 484.106037 225.479869 
L 485.283159 225.348315 
L 487.637404 201.462424 
L 489.991649 122.764369 
L 491.168772 89.277064 
L 492.345894 51.65953 
L 493.523017 35.238593 
L 494.700139 26.78614 
L 495.877262 34.949656 
L 497.054384 61.978322 
L 498.231507 85.92526 
L 500.585751 162.989986 
L 501.762874 194.660891 
L 502.939996 217.459389 
L 504.117119 232.412458 
L 505.294241 222.789427 
L 507.648486 162.346289 
L 511.179854 53.745052 
L 512.356976 39.580177 
L 513.534099 28.840658 
L 514.711221 38.447227 
L 515.888344 52.968257 
L 517.065466 87.688114 
L 518.242589 129.929781 
L 519.419711 88.863938 
L 521.773956 36.828243 
L 522.951079 31.951331 
L 524.128201 33.90087 
L 525.305324 72.700411 
L 526.482446 94.483152 
L 530.013814 199.789209 
L 531.190936 222.665166 
L 532.368059 237.448963 
L 534.722304 208.238463 
L 537.076549 126.035013 
L 538.253671 90.406736 
L 540.607916 34.023406 
L 541.785039 33.184412 
L 542.962161 35.589503 
L 544.139284 61.850712 
L 545.316406 92.424421 
L 545.316406 92.424421 
" clip-path="url(#p546b24b1f6)" style="fill: none; stroke: #1f77b4; stroke-linecap: square"/>
   </g>
   <g id="line2d_38">
    <path d="M 75.644531 121.575648 
L 76.821654 130.35605 
L 77.998776 129.780054 
L 79.175899 130.945402 
L 80.353021 128.253631 
L 82.707266 57.598168 
L 83.884389 28.605561 
L 85.061511 28.081209 
L 86.238634 35.251142 
L 87.415756 53.059242 
L 88.592879 82.890637 
L 89.770001 118.320833 
L 92.124246 204.186324 
L 93.301369 222.762296 
L 94.478491 225.3462 
L 95.655614 220.292165 
L 96.832736 196.822914 
L 98.009859 157.203926 
L 99.186981 136.800096 
L 101.541226 203.936422 
L 103.895471 233.712762 
L 105.072594 218.969786 
L 106.249716 200.595487 
L 108.603961 127.64634 
L 109.781084 168.605058 
L 112.135329 218.740665 
L 113.312451 223.327737 
L 114.489574 219.821801 
L 115.666696 201.787696 
L 116.843819 167.759625 
L 118.020941 126.062626 
L 119.198064 166.481903 
L 120.375186 201.815833 
L 121.552309 223.102572 
L 122.729431 230.336106 
L 123.906553 222.249998 
L 125.083676 201.171843 
L 127.437921 125.632238 
L 128.615043 172.787203 
L 129.792166 202.840565 
L 130.969288 218.556104 
L 132.146411 227.227105 
L 133.323533 225.206319 
L 134.500656 193.652777 
L 135.677778 167.452946 
L 136.854901 120.093422 
L 138.032023 82.279689 
L 140.386268 38.887605 
L 141.563391 29.469819 
L 142.740513 41.999063 
L 143.917636 61.460282 
L 145.094758 101.477081 
L 146.271881 119.587012 
L 147.449003 82.41172 
L 148.626126 58.653416 
L 149.803248 30.445807 
L 150.980371 28.791472 
L 152.157493 35.189663 
L 154.511738 87.432863 
L 155.688861 125.732658 
L 156.865983 91.673108 
L 159.220228 28.825587 
L 160.397351 33.904284 
L 161.574473 44.636957 
L 162.751596 59.397888 
L 163.928718 89.116764 
L 165.105841 127.370871 
L 166.282963 86.864338 
L 167.460086 51.919276 
L 168.637208 31.116248 
L 169.814331 18.25554 
L 170.991453 37.649008 
L 172.168576 60.830311 
L 173.345698 93.803574 
L 174.522821 131.575456 
L 175.699943 89.516076 
L 176.877066 53.611453 
L 178.054188 39.937986 
L 179.231311 22.906988 
L 180.408433 33.825075 
L 181.585556 58.17493 
L 182.762678 90.226409 
L 183.939801 131.543812 
L 185.116923 167.390853 
L 186.294046 197.552161 
L 187.471168 220.858362 
L 188.648291 228.727762 
L 189.825413 216.880833 
L 191.002536 203.37986 
L 192.179658 172.92163 
L 193.356781 135.278186 
L 194.533903 85.514516 
L 195.711026 54.111164 
L 196.888148 32.89204 
L 198.065271 35.807413 
L 199.242393 35.315365 
L 200.419516 64.437738 
L 201.596638 90.300046 
L 205.128006 198.662693 
L 206.305128 220.437073 
L 207.482251 230.800834 
L 208.659373 227.824184 
L 209.836496 200.116286 
L 212.190741 129.396539 
L 213.367863 172.967026 
L 214.544986 196.950027 
L 215.722108 224.04408 
L 216.89923 221.86948 
L 218.076353 218.538707 
L 219.253475 192.727879 
L 220.430598 163.198782 
L 221.60772 122.789287 
L 222.784843 164.733127 
L 223.961965 189.638539 
L 225.139088 225.499425 
L 226.31621 229.194847 
L 227.493333 223.761815 
L 228.670455 189.629598 
L 229.847578 167.068957 
L 231.0247 126.223278 
L 233.378945 202.274347 
L 234.556068 226.18505 
L 235.73319 226.504928 
L 236.910313 218.618722 
L 238.087435 202.395158 
L 239.264558 161.549457 
L 240.44168 124.958105 
L 241.618803 172.57908 
L 242.795925 189.954092 
L 243.973048 219.798971 
L 245.15017 228.787639 
L 246.327293 230.106536 
L 247.504415 201.816613 
L 249.85866 124.06833 
L 251.035783 84.748278 
L 252.212905 53.953884 
L 253.390028 31.148329 
L 254.56715 28.156667 
L 255.744273 31.096064 
L 256.921395 56.343212 
L 258.098518 87.584241 
L 259.27564 122.141031 
L 260.452763 165.914779 
L 261.629885 201.083372 
L 262.807008 220.780883 
L 263.98413 228.180131 
L 265.161253 219.903443 
L 266.338375 193.82991 
L 267.515498 172.278411 
L 269.869743 80.903259 
L 271.046865 57.036365 
L 272.223988 29.054536 
L 273.40111 25.622883 
L 274.578233 39.105124 
L 275.755355 56.20202 
L 276.932478 86.745055 
L 278.1096 129.475833 
L 279.286723 91.864212 
L 281.640968 42.230934 
L 282.81809 25.780928 
L 283.995213 29.761385 
L 285.172335 58.232388 
L 286.349458 95.70116 
L 287.52658 128.249235 
L 288.703703 165.341107 
L 289.880825 189.069258 
L 291.057948 223.009767 
L 292.23507 232.37972 
L 293.412193 222.622418 
L 295.766438 165.834888 
L 296.94356 125.816827 
L 298.120683 165.541624 
L 299.297805 201.486402 
L 300.474928 226.17485 
L 301.65205 222.839358 
L 302.829173 216.21204 
L 304.006295 197.615351 
L 305.183418 170.551112 
L 306.36054 124.113744 
L 307.537663 83.771186 
L 308.714785 57.305192 
L 309.891908 44.14837 
L 311.06903 24.464657 
L 312.246152 32.303357 
L 313.423275 59.018711 
L 314.600397 91.831322 
L 315.77752 129.793768 
L 316.954642 95.004261 
L 318.131765 55.036568 
L 319.308887 47.976154 
L 320.48601 19.951748 
L 321.663132 40.3369 
L 322.840255 50.222709 
L 324.017377 94.630096 
L 325.1945 127.723411 
L 326.371622 171.288098 
L 328.725867 222.493343 
L 329.90299 221.45182 
L 331.080112 208.725161 
L 332.257235 198.980128 
L 333.434357 159.106671 
L 334.61148 127.135944 
L 335.788602 160.555205 
L 336.965725 199.129137 
L 338.142847 226.437975 
L 339.31997 232.808898 
L 340.497092 218.412786 
L 342.851337 170.766812 
L 344.02846 130.986594 
L 345.205582 176.698403 
L 346.382705 193.85101 
L 347.559827 217.494435 
L 348.73695 230.451123 
L 349.914072 220.421907 
L 351.091195 197.714914 
L 352.268317 158.551577 
L 355.799685 61.315584 
L 356.976807 31.236946 
L 358.15393 29.58918 
L 359.331052 40.45715 
L 360.508175 54.968964 
L 361.685297 87.641372 
L 362.86242 130.288649 
L 365.216665 199.57924 
L 366.393787 224.082321 
L 367.57091 239.366335 
L 368.748032 223.066555 
L 369.925155 190.570265 
L 371.102277 166.742011 
L 372.2794 135.532308 
L 373.456522 158.931891 
L 374.633645 205.868846 
L 375.810767 227.399249 
L 376.98789 223.038563 
L 378.165012 225.418594 
L 379.342135 198.304404 
L 381.69638 135.249943 
L 384.050625 198.863217 
L 385.227747 224.560439 
L 386.40487 233.276621 
L 387.581992 221.380879 
L 388.759115 200.831075 
L 389.936237 175.807209 
L 391.11336 124.774908 
L 392.290482 90.841728 
L 393.467605 49.131684 
L 394.644727 32.723058 
L 395.82185 27.689979 
L 396.998972 37.516979 
L 398.176095 55.949818 
L 399.353217 87.79436 
L 400.53034 124.162575 
L 401.707462 86.905898 
L 402.884585 53.239889 
L 404.061707 43.133399 
L 405.238829 35.854216 
L 406.415952 42.581465 
L 407.593074 50.963844 
L 408.770197 86.359577 
L 412.301564 203.863878 
L 413.478687 217.358168 
L 414.655809 237.709281 
L 415.832932 222.729731 
L 417.010054 197.529801 
L 418.187177 169.017341 
L 420.541422 92.104807 
L 422.895667 27.18733 
L 424.072789 29.402391 
L 425.249912 34.773197 
L 426.427034 62.629259 
L 427.604157 82.546579 
L 428.781279 134.904931 
L 429.958402 84.293685 
L 431.135524 49.099701 
L 432.312647 34.969944 
L 433.489769 30.347712 
L 434.666892 34.152435 
L 435.844014 53.206874 
L 438.198259 127.99117 
L 439.375382 165.434164 
L 440.552504 196.877854 
L 441.729627 223.411212 
L 442.906749 222.838812 
L 444.083872 228.277667 
L 445.260994 203.639976 
L 446.438117 169.874804 
L 447.615239 123.656051 
L 449.969484 202.493323 
L 451.146607 216.983232 
L 452.323729 229.060982 
L 453.500852 214.234294 
L 454.677974 201.635819 
L 455.855097 168.288687 
L 458.209342 80.605751 
L 459.386464 46.781069 
L 460.563587 31.202633 
L 461.740709 30.917113 
L 462.917832 29.252761 
L 464.094954 56.02966 
L 465.272077 90.43763 
L 466.449199 133.613979 
L 468.803444 52.48969 
L 469.980567 32.988836 
L 471.157689 28.528981 
L 472.334812 35.037653 
L 473.511934 54.357196 
L 474.689057 89.124776 
L 475.866179 131.275725 
L 477.043302 162.584144 
L 478.220424 207.302513 
L 479.397547 217.051867 
L 480.574669 236.232889 
L 481.751792 226.322839 
L 482.928914 207.693173 
L 485.283159 125.434904 
L 486.460282 162.65473 
L 487.637404 203.827045 
L 488.814527 214.286813 
L 489.991649 226.614354 
L 491.168772 220.715137 
L 492.345894 192.654985 
L 493.523017 172.805734 
L 494.700139 128.23188 
L 495.877262 169.874214 
L 497.054384 202.419478 
L 498.231507 228.104805 
L 499.408629 228.044287 
L 500.585751 228.62071 
L 501.762874 191.881713 
L 502.939996 168.41186 
L 504.117119 126.993307 
L 505.294241 167.918767 
L 506.471364 202.169434 
L 507.648486 221.969734 
L 508.825609 230.685204 
L 510.002731 228.342509 
L 511.179854 189.609798 
L 512.356976 168.648174 
L 513.534099 135.335012 
L 514.711221 90.608334 
L 515.888344 58.548152 
L 517.065466 31.847597 
L 518.242589 29.746308 
L 519.419711 42.020029 
L 520.596834 65.638041 
L 521.773956 93.800927 
L 525.305324 206.915207 
L 526.482446 218.427923 
L 527.659569 224.308466 
L 528.836691 220.22543 
L 531.190936 171.690531 
L 532.368059 125.316645 
L 533.545181 93.81743 
L 534.722304 66.580917 
L 535.899426 42.041752 
L 537.076549 26.567876 
L 538.253671 36.732716 
L 540.607916 78.896983 
L 541.785039 127.855069 
L 544.139284 200.364106 
L 545.316406 223.416028 
L 545.316406 223.416028 
" clip-path="url(#p546b24b1f6)" style="fill: none; stroke: #ff7f0e; stroke-linecap: square"/>
   </g>
   <g id="patch_3">
    <path d="M 52.160938 250.421875 
L 52.160938 7.2 
" style="fill: none; stroke: #000000; stroke-width: 0.8; stroke-linejoin: miter; stroke-linecap: square"/>
   </g>
   <g id="patch_4">
    <path d="M 568.8 250.421875 
L 568.8 7.2 
" style="fill: none; stroke: #000000; stroke-width: 0.8; stroke-linejoin: miter; stroke-linecap: square"/>
   </g>
   <g id="patch_5">
    <path d="M 52.160937 250.421875 
L 568.8 250.421875 
" style="fill: none; stroke: #000000; stroke-width: 0.8; stroke-linejoin: miter; stroke-linecap: square"/>
   </g>
   <g id="patch_6">
    <path d="M 52.160937 7.2 
L 568.8 7.2 
" style="fill: none; stroke: #000000; stroke-width: 0.8; stroke-linejoin: miter; stroke-linecap: square"/>
   </g>
   <g id="legend_1">
    <g id="patch_7">
     <path d="M 59.160938 44.55625 
L 116.15625 44.55625 
Q 118.15625 44.55625 118.15625 42.55625 
L 118.15625 14.2 
Q 118.15625 12.2 116.15625 12.2 
L 59.160938 12.2 
Q 57.160938 12.2 57.160938 14.2 
L 57.160938 42.55625 
Q 57.160938 44.55625 59.160938 44.55625 
z
" style="fill: #ffffff; opacity: 0.8; stroke: #cccccc; stroke-linejoin: miter"/>
    </g>
    <g id="line2d_39">
     <path d="M 61.160938 20.298437 
L 71.160938 20.298437 
L 81.160938 20.298437 
" style="fill: none; stroke: #1f77b4; stroke-linecap: square"/>
    </g>
    <g id="text_21">
     <!-- real -->
     <g transform="translate(89.160938 23.798437) scale(0.1 -0.1)">
      <defs>
       <path id="DejaVuSans-72" d="M 2631 2963 
Q 2534 3019 2420 3045 
Q 2306 3072 2169 3072 
Q 1681 3072 1420 2755 
Q 1159 2438 1159 1844 
L 1159 0 
L 581 0 
L 581 3500 
L 1159 3500 
L 1159 2956 
Q 1341 3275 1631 3429 
Q 1922 3584 2338 3584 
Q 2397 3584 2469 3576 
Q 2541 3569 2628 3553 
L 2631 2963 
z
" transform="scale(0.015625)"/>
      </defs>
      <use xlink:href="#DejaVuSans-72"/>
      <use xlink:href="#DejaVuSans-65" transform="translate(38.863281 0)"/>
      <use xlink:href="#DejaVuSans-61" transform="translate(100.386719 0)"/>
      <use xlink:href="#DejaVuSans-6c" transform="translate(161.666016 0)"/>
     </g>
    </g>
    <g id="line2d_40">
     <path d="M 61.160938 34.976562 
L 71.160938 34.976562 
L 81.160938 34.976562 
" style="fill: none; stroke: #ff7f0e; stroke-linecap: square"/>
    </g>
    <g id="text_22">
     <!-- imag -->
     <g transform="translate(89.160938 38.476562) scale(0.1 -0.1)">
      <defs>
       <path id="DejaVuSans-67" d="M 2906 1791 
Q 2906 2416 2648 2759 
Q 2391 3103 1925 3103 
Q 1463 3103 1205 2759 
Q 947 2416 947 1791 
Q 947 1169 1205 825 
Q 1463 481 1925 481 
Q 2391 481 2648 825 
Q 2906 1169 2906 1791 
z
M 3481 434 
Q 3481 -459 3084 -895 
Q 2688 -1331 1869 -1331 
Q 1566 -1331 1297 -1286 
Q 1028 -1241 775 -1147 
L 775 -588 
Q 1028 -725 1275 -790 
Q 1522 -856 1778 -856 
Q 2344 -856 2625 -561 
Q 2906 -266 2906 331 
L 2906 616 
Q 2728 306 2450 153 
Q 2172 0 1784 0 
Q 1141 0 747 490 
Q 353 981 353 1791 
Q 353 2603 747 3093 
Q 1141 3584 1784 3584 
Q 2172 3584 2450 3431 
Q 2728 3278 2906 2969 
L 2906 3500 
L 3481 3500 
L 3481 434 
z
" transform="scale(0.015625)"/>
      </defs>
      <use xlink:href="#DejaVuSans-69"/>
      <use xlink:href="#DejaVuSans-6d" transform="translate(27.783203 0)"/>
      <use xlink:href="#DejaVuSans-61" transform="translate(125.195312 0)"/>
      <use xlink:href="#DejaVuSans-67" transform="translate(186.474609 0)"/>
     </g>
    </g>
   </g>
  </g>
 </g>
 <defs>
  <clipPath id="p546b24b1f6">
   <rect x="52.160938" y="7.2" width="516.639063" height="243.221875"/>
  </clipPath>
 </defs>
</svg>
