<?xml version="1.0" encoding="utf-8" standalone="no"?>
<!DOCTYPE svg PUBLIC "-//W3C//DTD SVG 1.1//EN"
  "http://www.w3.org/Graphics/SVG/1.1/DTD/svg11.dtd">
<svg xmlns:xlink="http://www.w3.org/1999/xlink" width="576pt" height="288pt" viewBox="0 0 576 288" xmlns="http://www.w3.org/2000/svg" version="1.1">
 <metadata>
  <rdf:RDF xmlns:dc="http://purl.org/dc/elements/1.1/" xmlns:cc="http://creativecommons.org/ns#" xmlns:rdf="http://www.w3.org/1999/02/22-rdf-syntax-ns#">
   <cc:Work>
    <dc:type rdf:resource="http://purl.org/dc/dcmitype/StillImage"/>
    <dc:date>2025-05-10T16:14:12.726552</dc:date>
    <dc:format>image/svg+xml</dc:format>
    <dc:creator>
     <cc:Agent>
      <dc:title>Matplotlib v3.10.3, https://matplotlib.org/</dc:title>
     </cc:Agent>
    </dc:creator>
   </cc:Work>
  </rdf:RDF>
 </metadata>
 <defs>
  <style type="text/css">*{stroke-linejoin: round; stroke-linecap: butt}</style>
 </defs>
 <g id="figure_1">
  <g id="patch_1">
   <path d="M 0 288 
L 576 288 
L 576 0 
L 0 0 
z
" style="fill: #ffffff"/>
  </g>
  <g id="axes_1">
   <g id="patch_2">
    <path d="M 52.160938 250.421875 
L 568.8 250.421875 
L 568.8 7.2 
L 52.160938 7.2 
z
" style="fill: #ffffff"/>
   </g>
   <g id="matplotlib.axis_1">
    <g id="xtick_1">
     <g id="line2d_1">
      <path d="M 75.644531 250.421875 
L 75.644531 7.2 
" clip-path="url(#pfcf9bc06f0)" style="fill: none; stroke-dasharray: 2.96,1.28; stroke-dashoffset: 0; stroke: #b0b0b0; stroke-opacity: 0.8; stroke-width: 0.8"/>
     </g>
     <g id="line2d_2">
      <defs>
       <path id="m022f01516f" d="M 0 0 
L 0 3.5 
" style="stroke: #000000; stroke-width: 0.8"/>
      </defs>
      <g>
       <use xlink:href="#m022f01516f" x="75.644531" y="250.421875" style="stroke: #000000; stroke-width: 0.8"/>
      </g>
     </g>
     <g id="text_1">
      <!-- 0 -->
      <g transform="translate(72.463281 265.020312) scale(0.1 -0.1)">
       <defs>
        <path id="DejaVuSans-30" d="M 2034 4250 
Q 1547 4250 1301 3770 
Q 1056 3291 1056 2328 
Q 1056 1369 1301 889 
Q 1547 409 2034 409 
Q 2525 409 2770 889 
Q 3016 1369 3016 2328 
Q 3016 3291 2770 3770 
Q 2525 4250 2034 4250 
z
M 2034 4750 
Q 2819 4750 3233 4129 
Q 3647 3509 3647 2328 
Q 3647 1150 3233 529 
Q 2819 -91 2034 -91 
Q 1250 -91 836 529 
Q 422 1150 422 2328 
Q 422 3509 836 4129 
Q 1250 4750 2034 4750 
z
" transform="scale(0.015625)"/>
       </defs>
       <use xlink:href="#DejaVuSans-30"/>
      </g>
     </g>
    </g>
    <g id="xtick_2">
     <g id="line2d_3">
      <path d="M 134.500656 250.421875 
L 134.500656 7.2 
" clip-path="url(#pfcf9bc06f0)" style="fill: none; stroke-dasharray: 2.96,1.28; stroke-dashoffset: 0; stroke: #b0b0b0; stroke-opacity: 0.8; stroke-width: 0.8"/>
     </g>
     <g id="line2d_4">
      <g>
       <use xlink:href="#m022f01516f" x="134.500656" y="250.421875" style="stroke: #000000; stroke-width: 0.8"/>
      </g>
     </g>
     <g id="text_2">
      <!-- 50 -->
      <g transform="translate(128.138156 265.020312) scale(0.1 -0.1)">
       <defs>
        <path id="DejaVuSans-35" d="M 691 4666 
L 3169 4666 
L 3169 4134 
L 1269 4134 
L 1269 2991 
Q 1406 3038 1543 3061 
Q 1681 3084 1819 3084 
Q 2600 3084 3056 2656 
Q 3513 2228 3513 1497 
Q 3513 744 3044 326 
Q 2575 -91 1722 -91 
Q 1428 -91 1123 -41 
Q 819 9 494 109 
L 494 744 
Q 775 591 1075 516 
Q 1375 441 1709 441 
Q 2250 441 2565 725 
Q 2881 1009 2881 1497 
Q 2881 1984 2565 2268 
Q 2250 2553 1709 2553 
Q 1456 2553 1204 2497 
Q 953 2441 691 2322 
L 691 4666 
z
" transform="scale(0.015625)"/>
       </defs>
       <use xlink:href="#DejaVuSans-35"/>
       <use xlink:href="#DejaVuSans-30" transform="translate(63.623047 0)"/>
      </g>
     </g>
    </g>
    <g id="xtick_3">
     <g id="line2d_5">
      <path d="M 193.356781 250.421875 
L 193.356781 7.2 
" clip-path="url(#pfcf9bc06f0)" style="fill: none; stroke-dasharray: 2.96,1.28; stroke-dashoffset: 0; stroke: #b0b0b0; stroke-opacity: 0.8; stroke-width: 0.8"/>
     </g>
     <g id="line2d_6">
      <g>
       <use xlink:href="#m022f01516f" x="193.356781" y="250.421875" style="stroke: #000000; stroke-width: 0.8"/>
      </g>
     </g>
     <g id="text_3">
      <!-- 100 -->
      <g transform="translate(183.813031 265.020312) scale(0.1 -0.1)">
       <defs>
        <path id="DejaVuSans-31" d="M 794 531 
L 1825 531 
L 1825 4091 
L 703 3866 
L 703 4441 
L 1819 4666 
L 2450 4666 
L 2450 531 
L 3481 531 
L 3481 0 
L 794 0 
L 794 531 
z
" transform="scale(0.015625)"/>
       </defs>
       <use xlink:href="#DejaVuSans-31"/>
       <use xlink:href="#DejaVuSans-30" transform="translate(63.623047 0)"/>
       <use xlink:href="#DejaVuSans-30" transform="translate(127.246094 0)"/>
      </g>
     </g>
    </g>
    <g id="xtick_4">
     <g id="line2d_7">
      <path d="M 252.212905 250.421875 
L 252.212905 7.2 
" clip-path="url(#pfcf9bc06f0)" style="fill: none; stroke-dasharray: 2.96,1.28; stroke-dashoffset: 0; stroke: #b0b0b0; stroke-opacity: 0.8; stroke-width: 0.8"/>
     </g>
     <g id="line2d_8">
      <g>
       <use xlink:href="#m022f01516f" x="252.212905" y="250.421875" style="stroke: #000000; stroke-width: 0.8"/>
      </g>
     </g>
     <g id="text_4">
      <!-- 150 -->
      <g transform="translate(242.669155 265.020312) scale(0.1 -0.1)">
       <use xlink:href="#DejaVuSans-31"/>
       <use xlink:href="#DejaVuSans-35" transform="translate(63.623047 0)"/>
       <use xlink:href="#DejaVuSans-30" transform="translate(127.246094 0)"/>
      </g>
     </g>
    </g>
    <g id="xtick_5">
     <g id="line2d_9">
      <path d="M 311.06903 250.421875 
L 311.06903 7.2 
" clip-path="url(#pfcf9bc06f0)" style="fill: none; stroke-dasharray: 2.96,1.28; stroke-dashoffset: 0; stroke: #b0b0b0; stroke-opacity: 0.8; stroke-width: 0.8"/>
     </g>
     <g id="line2d_10">
      <g>
       <use xlink:href="#m022f01516f" x="311.06903" y="250.421875" style="stroke: #000000; stroke-width: 0.8"/>
      </g>
     </g>
     <g id="text_5">
      <!-- 200 -->
      <g transform="translate(301.52528 265.020312) scale(0.1 -0.1)">
       <defs>
        <path id="DejaVuSans-32" d="M 1228 531 
L 3431 531 
L 3431 0 
L 469 0 
L 469 531 
Q 828 903 1448 1529 
Q 2069 2156 2228 2338 
Q 2531 2678 2651 2914 
Q 2772 3150 2772 3378 
Q 2772 3750 2511 3984 
Q 2250 4219 1831 4219 
Q 1534 4219 1204 4116 
Q 875 4013 500 3803 
L 500 4441 
Q 881 4594 1212 4672 
Q 1544 4750 1819 4750 
Q 2544 4750 2975 4387 
Q 3406 4025 3406 3419 
Q 3406 3131 3298 2873 
Q 3191 2616 2906 2266 
Q 2828 2175 2409 1742 
Q 1991 1309 1228 531 
z
" transform="scale(0.015625)"/>
       </defs>
       <use xlink:href="#DejaVuSans-32"/>
       <use xlink:href="#DejaVuSans-30" transform="translate(63.623047 0)"/>
       <use xlink:href="#DejaVuSans-30" transform="translate(127.246094 0)"/>
      </g>
     </g>
    </g>
    <g id="xtick_6">
     <g id="line2d_11">
      <path d="M 369.925155 250.421875 
L 369.925155 7.2 
" clip-path="url(#pfcf9bc06f0)" style="fill: none; stroke-dasharray: 2.96,1.28; stroke-dashoffset: 0; stroke: #b0b0b0; stroke-opacity: 0.8; stroke-width: 0.8"/>
     </g>
     <g id="line2d_12">
      <g>
       <use xlink:href="#m022f01516f" x="369.925155" y="250.421875" style="stroke: #000000; stroke-width: 0.8"/>
      </g>
     </g>
     <g id="text_6">
      <!-- 250 -->
      <g transform="translate(360.381405 265.020312) scale(0.1 -0.1)">
       <use xlink:href="#DejaVuSans-32"/>
       <use xlink:href="#DejaVuSans-35" transform="translate(63.623047 0)"/>
       <use xlink:href="#DejaVuSans-30" transform="translate(127.246094 0)"/>
      </g>
     </g>
    </g>
    <g id="xtick_7">
     <g id="line2d_13">
      <path d="M 428.781279 250.421875 
L 428.781279 7.2 
" clip-path="url(#pfcf9bc06f0)" style="fill: none; stroke-dasharray: 2.96,1.28; stroke-dashoffset: 0; stroke: #b0b0b0; stroke-opacity: 0.8; stroke-width: 0.8"/>
     </g>
     <g id="line2d_14">
      <g>
       <use xlink:href="#m022f01516f" x="428.781279" y="250.421875" style="stroke: #000000; stroke-width: 0.8"/>
      </g>
     </g>
     <g id="text_7">
      <!-- 300 -->
      <g transform="translate(419.237529 265.020312) scale(0.1 -0.1)">
       <defs>
        <path id="DejaVuSans-33" d="M 2597 2516 
Q 3050 2419 3304 2112 
Q 3559 1806 3559 1356 
Q 3559 666 3084 287 
Q 2609 -91 1734 -91 
Q 1441 -91 1130 -33 
Q 819 25 488 141 
L 488 750 
Q 750 597 1062 519 
Q 1375 441 1716 441 
Q 2309 441 2620 675 
Q 2931 909 2931 1356 
Q 2931 1769 2642 2001 
Q 2353 2234 1838 2234 
L 1294 2234 
L 1294 2753 
L 1863 2753 
Q 2328 2753 2575 2939 
Q 2822 3125 2822 3475 
Q 2822 3834 2567 4026 
Q 2313 4219 1838 4219 
Q 1578 4219 1281 4162 
Q 984 4106 628 3988 
L 628 4550 
Q 988 4650 1302 4700 
Q 1616 4750 1894 4750 
Q 2613 4750 3031 4423 
Q 3450 4097 3450 3541 
Q 3450 3153 3228 2886 
Q 3006 2619 2597 2516 
z
" transform="scale(0.015625)"/>
       </defs>
       <use xlink:href="#DejaVuSans-33"/>
       <use xlink:href="#DejaVuSans-30" transform="translate(63.623047 0)"/>
       <use xlink:href="#DejaVuSans-30" transform="translate(127.246094 0)"/>
      </g>
     </g>
    </g>
    <g id="xtick_8">
     <g id="line2d_15">
      <path d="M 487.637404 250.421875 
L 487.637404 7.2 
" clip-path="url(#pfcf9bc06f0)" style="fill: none; stroke-dasharray: 2.96,1.28; stroke-dashoffset: 0; stroke: #b0b0b0; stroke-opacity: 0.8; stroke-width: 0.8"/>
     </g>
     <g id="line2d_16">
      <g>
       <use xlink:href="#m022f01516f" x="487.637404" y="250.421875" style="stroke: #000000; stroke-width: 0.8"/>
      </g>
     </g>
     <g id="text_8">
      <!-- 350 -->
      <g transform="translate(478.093654 265.020312) scale(0.1 -0.1)">
       <use xlink:href="#DejaVuSans-33"/>
       <use xlink:href="#DejaVuSans-35" transform="translate(63.623047 0)"/>
       <use xlink:href="#DejaVuSans-30" transform="translate(127.246094 0)"/>
      </g>
     </g>
    </g>
    <g id="xtick_9">
     <g id="line2d_17">
      <path d="M 546.493529 250.421875 
L 546.493529 7.2 
" clip-path="url(#pfcf9bc06f0)" style="fill: none; stroke-dasharray: 2.96,1.28; stroke-dashoffset: 0; stroke: #b0b0b0; stroke-opacity: 0.8; stroke-width: 0.8"/>
     </g>
     <g id="line2d_18">
      <g>
       <use xlink:href="#m022f01516f" x="546.493529" y="250.421875" style="stroke: #000000; stroke-width: 0.8"/>
      </g>
     </g>
     <g id="text_9">
      <!-- 400 -->
      <g transform="translate(536.949779 265.020312) scale(0.1 -0.1)">
       <defs>
        <path id="DejaVuSans-34" d="M 2419 4116 
L 825 1625 
L 2419 1625 
L 2419 4116 
z
M 2253 4666 
L 3047 4666 
L 3047 1625 
L 3713 1625 
L 3713 1100 
L 3047 1100 
L 3047 0 
L 2419 0 
L 2419 1100 
L 313 1100 
L 313 1709 
L 2253 4666 
z
" transform="scale(0.015625)"/>
       </defs>
       <use xlink:href="#DejaVuSans-34"/>
       <use xlink:href="#DejaVuSans-30" transform="translate(63.623047 0)"/>
       <use xlink:href="#DejaVuSans-30" transform="translate(127.246094 0)"/>
      </g>
     </g>
    </g>
    <g id="text_10">
     <!-- Sample, $n$ -->
     <g transform="translate(285.380469 278.7) scale(0.1 -0.1)">
      <defs>
       <path id="DejaVuSans-53" d="M 3425 4513 
L 3425 3897 
Q 3066 4069 2747 4153 
Q 2428 4238 2131 4238 
Q 1616 4238 1336 4038 
Q 1056 3838 1056 3469 
Q 1056 3159 1242 3001 
Q 1428 2844 1947 2747 
L 2328 2669 
Q 3034 2534 3370 2195 
Q 3706 1856 3706 1288 
Q 3706 609 3251 259 
Q 2797 -91 1919 -91 
Q 1588 -91 1214 -16 
Q 841 59 441 206 
L 441 856 
Q 825 641 1194 531 
Q 1563 422 1919 422 
Q 2459 422 2753 634 
Q 3047 847 3047 1241 
Q 3047 1584 2836 1778 
Q 2625 1972 2144 2069 
L 1759 2144 
Q 1053 2284 737 2584 
Q 422 2884 422 3419 
Q 422 4038 858 4394 
Q 1294 4750 2059 4750 
Q 2388 4750 2728 4690 
Q 3069 4631 3425 4513 
z
" transform="scale(0.015625)"/>
       <path id="DejaVuSans-61" d="M 2194 1759 
Q 1497 1759 1228 1600 
Q 959 1441 959 1056 
Q 959 750 1161 570 
Q 1363 391 1709 391 
Q 2188 391 2477 730 
Q 2766 1069 2766 1631 
L 2766 1759 
L 2194 1759 
z
M 3341 1997 
L 3341 0 
L 2766 0 
L 2766 531 
Q 2569 213 2275 61 
Q 1981 -91 1556 -91 
Q 1019 -91 701 211 
Q 384 513 384 1019 
Q 384 1609 779 1909 
Q 1175 2209 1959 2209 
L 2766 2209 
L 2766 2266 
Q 2766 2663 2505 2880 
Q 2244 3097 1772 3097 
Q 1472 3097 1187 3025 
Q 903 2953 641 2809 
L 641 3341 
Q 956 3463 1253 3523 
Q 1550 3584 1831 3584 
Q 2591 3584 2966 3190 
Q 3341 2797 3341 1997 
z
" transform="scale(0.015625)"/>
       <path id="DejaVuSans-6d" d="M 3328 2828 
Q 3544 3216 3844 3400 
Q 4144 3584 4550 3584 
Q 5097 3584 5394 3201 
Q 5691 2819 5691 2113 
L 5691 0 
L 5113 0 
L 5113 2094 
Q 5113 2597 4934 2840 
Q 4756 3084 4391 3084 
Q 3944 3084 3684 2787 
Q 3425 2491 3425 1978 
L 3425 0 
L 2847 0 
L 2847 2094 
Q 2847 2600 2669 2842 
Q 2491 3084 2119 3084 
Q 1678 3084 1418 2786 
Q 1159 2488 1159 1978 
L 1159 0 
L 581 0 
L 581 3500 
L 1159 3500 
L 1159 2956 
Q 1356 3278 1631 3431 
Q 1906 3584 2284 3584 
Q 2666 3584 2933 3390 
Q 3200 3197 3328 2828 
z
" transform="scale(0.015625)"/>
       <path id="DejaVuSans-70" d="M 1159 525 
L 1159 -1331 
L 581 -1331 
L 581 3500 
L 1159 3500 
L 1159 2969 
Q 1341 3281 1617 3432 
Q 1894 3584 2278 3584 
Q 2916 3584 3314 3078 
Q 3713 2572 3713 1747 
Q 3713 922 3314 415 
Q 2916 -91 2278 -91 
Q 1894 -91 1617 61 
Q 1341 213 1159 525 
z
M 3116 1747 
Q 3116 2381 2855 2742 
Q 2594 3103 2138 3103 
Q 1681 3103 1420 2742 
Q 1159 2381 1159 1747 
Q 1159 1113 1420 752 
Q 1681 391 2138 391 
Q 2594 391 2855 752 
Q 3116 1113 3116 1747 
z
" transform="scale(0.015625)"/>
       <path id="DejaVuSans-6c" d="M 603 4863 
L 1178 4863 
L 1178 0 
L 603 0 
L 603 4863 
z
" transform="scale(0.015625)"/>
       <path id="DejaVuSans-65" d="M 3597 1894 
L 3597 1613 
L 953 1613 
Q 991 1019 1311 708 
Q 1631 397 2203 397 
Q 2534 397 2845 478 
Q 3156 559 3463 722 
L 3463 178 
Q 3153 47 2828 -22 
Q 2503 -91 2169 -91 
Q 1331 -91 842 396 
Q 353 884 353 1716 
Q 353 2575 817 3079 
Q 1281 3584 2069 3584 
Q 2775 3584 3186 3129 
Q 3597 2675 3597 1894 
z
M 3022 2063 
Q 3016 2534 2758 2815 
Q 2500 3097 2075 3097 
Q 1594 3097 1305 2825 
Q 1016 2553 972 2059 
L 3022 2063 
z
" transform="scale(0.015625)"/>
       <path id="DejaVuSans-2c" d="M 750 794 
L 1409 794 
L 1409 256 
L 897 -744 
L 494 -744 
L 750 256 
L 750 794 
z
" transform="scale(0.015625)"/>
       <path id="DejaVuSans-20" transform="scale(0.015625)"/>
       <path id="DejaVuSans-Oblique-6e" d="M 3566 2113 
L 3156 0 
L 2578 0 
L 2988 2091 
Q 3016 2238 3031 2350 
Q 3047 2463 3047 2528 
Q 3047 2791 2881 2937 
Q 2716 3084 2419 3084 
Q 1956 3084 1622 2776 
Q 1288 2469 1184 1941 
L 800 0 
L 225 0 
L 903 3500 
L 1478 3500 
L 1363 2950 
Q 1603 3253 1940 3418 
Q 2278 3584 2650 3584 
Q 3113 3584 3367 3334 
Q 3622 3084 3622 2631 
Q 3622 2519 3608 2391 
Q 3594 2263 3566 2113 
z
" transform="scale(0.015625)"/>
      </defs>
      <use xlink:href="#DejaVuSans-53" transform="translate(0 0.015625)"/>
      <use xlink:href="#DejaVuSans-61" transform="translate(63.476562 0.015625)"/>
      <use xlink:href="#DejaVuSans-6d" transform="translate(124.755859 0.015625)"/>
      <use xlink:href="#DejaVuSans-70" transform="translate(222.167969 0.015625)"/>
      <use xlink:href="#DejaVuSans-6c" transform="translate(285.644531 0.015625)"/>
      <use xlink:href="#DejaVuSans-65" transform="translate(313.427734 0.015625)"/>
      <use xlink:href="#DejaVuSans-2c" transform="translate(374.951172 0.015625)"/>
      <use xlink:href="#DejaVuSans-20" transform="translate(406.738281 0.015625)"/>
      <use xlink:href="#DejaVuSans-Oblique-6e" transform="translate(438.525391 0.015625)"/>
     </g>
    </g>
   </g>
   <g id="matplotlib.axis_2">
    <g id="ytick_1">
     <g id="line2d_19">
      <path d="M 52.160938 242.657952 
L 568.8 242.657952 
" clip-path="url(#pfcf9bc06f0)" style="fill: none; stroke-dasharray: 2.96,1.28; stroke-dashoffset: 0; stroke: #b0b0b0; stroke-opacity: 0.8; stroke-width: 0.8"/>
     </g>
     <g id="line2d_20">
      <defs>
       <path id="mcc78300bd7" d="M 0 0 
L -3.5 0 
" style="stroke: #000000; stroke-width: 0.8"/>
      </defs>
      <g>
       <use xlink:href="#mcc78300bd7" x="52.160938" y="242.657952" style="stroke: #000000; stroke-width: 0.8"/>
      </g>
     </g>
     <g id="text_11">
      <!-- −0.4 -->
      <g transform="translate(20.878125 246.45717) scale(0.1 -0.1)">
       <defs>
        <path id="DejaVuSans-2212" d="M 678 2272 
L 4684 2272 
L 4684 1741 
L 678 1741 
L 678 2272 
z
" transform="scale(0.015625)"/>
        <path id="DejaVuSans-2e" d="M 684 794 
L 1344 794 
L 1344 0 
L 684 0 
L 684 794 
z
" transform="scale(0.015625)"/>
       </defs>
       <use xlink:href="#DejaVuSans-2212"/>
       <use xlink:href="#DejaVuSans-30" transform="translate(83.789062 0)"/>
       <use xlink:href="#DejaVuSans-2e" transform="translate(147.412109 0)"/>
       <use xlink:href="#DejaVuSans-34" transform="translate(179.199219 0)"/>
      </g>
     </g>
    </g>
    <g id="ytick_2">
     <g id="line2d_21">
      <path d="M 52.160938 213.95162 
L 568.8 213.95162 
" clip-path="url(#pfcf9bc06f0)" style="fill: none; stroke-dasharray: 2.96,1.28; stroke-dashoffset: 0; stroke: #b0b0b0; stroke-opacity: 0.8; stroke-width: 0.8"/>
     </g>
     <g id="line2d_22">
      <g>
       <use xlink:href="#mcc78300bd7" x="52.160938" y="213.95162" style="stroke: #000000; stroke-width: 0.8"/>
      </g>
     </g>
     <g id="text_12">
      <!-- −0.3 -->
      <g transform="translate(20.878125 217.750839) scale(0.1 -0.1)">
       <use xlink:href="#DejaVuSans-2212"/>
       <use xlink:href="#DejaVuSans-30" transform="translate(83.789062 0)"/>
       <use xlink:href="#DejaVuSans-2e" transform="translate(147.412109 0)"/>
       <use xlink:href="#DejaVuSans-33" transform="translate(179.199219 0)"/>
      </g>
     </g>
    </g>
    <g id="ytick_3">
     <g id="line2d_23">
      <path d="M 52.160938 185.245289 
L 568.8 185.245289 
" clip-path="url(#pfcf9bc06f0)" style="fill: none; stroke-dasharray: 2.96,1.28; stroke-dashoffset: 0; stroke: #b0b0b0; stroke-opacity: 0.8; stroke-width: 0.8"/>
     </g>
     <g id="line2d_24">
      <g>
       <use xlink:href="#mcc78300bd7" x="52.160938" y="185.245289" style="stroke: #000000; stroke-width: 0.8"/>
      </g>
     </g>
     <g id="text_13">
      <!-- −0.2 -->
      <g transform="translate(20.878125 189.044508) scale(0.1 -0.1)">
       <use xlink:href="#DejaVuSans-2212"/>
       <use xlink:href="#DejaVuSans-30" transform="translate(83.789062 0)"/>
       <use xlink:href="#DejaVuSans-2e" transform="translate(147.412109 0)"/>
       <use xlink:href="#DejaVuSans-32" transform="translate(179.199219 0)"/>
      </g>
     </g>
    </g>
    <g id="ytick_4">
     <g id="line2d_25">
      <path d="M 52.160938 156.538958 
L 568.8 156.538958 
" clip-path="url(#pfcf9bc06f0)" style="fill: none; stroke-dasharray: 2.96,1.28; stroke-dashoffset: 0; stroke: #b0b0b0; stroke-opacity: 0.8; stroke-width: 0.8"/>
     </g>
     <g id="line2d_26">
      <g>
       <use xlink:href="#mcc78300bd7" x="52.160938" y="156.538958" style="stroke: #000000; stroke-width: 0.8"/>
      </g>
     </g>
     <g id="text_14">
      <!-- −0.1 -->
      <g transform="translate(20.878125 160.338177) scale(0.1 -0.1)">
       <use xlink:href="#DejaVuSans-2212"/>
       <use xlink:href="#DejaVuSans-30" transform="translate(83.789062 0)"/>
       <use xlink:href="#DejaVuSans-2e" transform="translate(147.412109 0)"/>
       <use xlink:href="#DejaVuSans-31" transform="translate(179.199219 0)"/>
      </g>
     </g>
    </g>
    <g id="ytick_5">
     <g id="line2d_27">
      <path d="M 52.160938 127.832626 
L 568.8 127.832626 
" clip-path="url(#pfcf9bc06f0)" style="fill: none; stroke-dasharray: 2.96,1.28; stroke-dashoffset: 0; stroke: #b0b0b0; stroke-opacity: 0.8; stroke-width: 0.8"/>
     </g>
     <g id="line2d_28">
      <g>
       <use xlink:href="#mcc78300bd7" x="52.160938" y="127.832626" style="stroke: #000000; stroke-width: 0.8"/>
      </g>
     </g>
     <g id="text_15">
      <!-- 0.0 -->
      <g transform="translate(29.257812 131.631845) scale(0.1 -0.1)">
       <use xlink:href="#DejaVuSans-30"/>
       <use xlink:href="#DejaVuSans-2e" transform="translate(63.623047 0)"/>
       <use xlink:href="#DejaVuSans-30" transform="translate(95.410156 0)"/>
      </g>
     </g>
    </g>
    <g id="ytick_6">
     <g id="line2d_29">
      <path d="M 52.160938 99.126295 
L 568.8 99.126295 
" clip-path="url(#pfcf9bc06f0)" style="fill: none; stroke-dasharray: 2.96,1.28; stroke-dashoffset: 0; stroke: #b0b0b0; stroke-opacity: 0.8; stroke-width: 0.8"/>
     </g>
     <g id="line2d_30">
      <g>
       <use xlink:href="#mcc78300bd7" x="52.160938" y="99.126295" style="stroke: #000000; stroke-width: 0.8"/>
      </g>
     </g>
     <g id="text_16">
      <!-- 0.1 -->
      <g transform="translate(29.257812 102.925514) scale(0.1 -0.1)">
       <use xlink:href="#DejaVuSans-30"/>
       <use xlink:href="#DejaVuSans-2e" transform="translate(63.623047 0)"/>
       <use xlink:href="#DejaVuSans-31" transform="translate(95.410156 0)"/>
      </g>
     </g>
    </g>
    <g id="ytick_7">
     <g id="line2d_31">
      <path d="M 52.160938 70.419964 
L 568.8 70.419964 
" clip-path="url(#pfcf9bc06f0)" style="fill: none; stroke-dasharray: 2.96,1.28; stroke-dashoffset: 0; stroke: #b0b0b0; stroke-opacity: 0.8; stroke-width: 0.8"/>
     </g>
     <g id="line2d_32">
      <g>
       <use xlink:href="#mcc78300bd7" x="52.160938" y="70.419964" style="stroke: #000000; stroke-width: 0.8"/>
      </g>
     </g>
     <g id="text_17">
      <!-- 0.2 -->
      <g transform="translate(29.257812 74.219183) scale(0.1 -0.1)">
       <use xlink:href="#DejaVuSans-30"/>
       <use xlink:href="#DejaVuSans-2e" transform="translate(63.623047 0)"/>
       <use xlink:href="#DejaVuSans-32" transform="translate(95.410156 0)"/>
      </g>
     </g>
    </g>
    <g id="ytick_8">
     <g id="line2d_33">
      <path d="M 52.160938 41.713633 
L 568.8 41.713633 
" clip-path="url(#pfcf9bc06f0)" style="fill: none; stroke-dasharray: 2.96,1.28; stroke-dashoffset: 0; stroke: #b0b0b0; stroke-opacity: 0.8; stroke-width: 0.8"/>
     </g>
     <g id="line2d_34">
      <g>
       <use xlink:href="#mcc78300bd7" x="52.160938" y="41.713633" style="stroke: #000000; stroke-width: 0.8"/>
      </g>
     </g>
     <g id="text_18">
      <!-- 0.3 -->
      <g transform="translate(29.257812 45.512851) scale(0.1 -0.1)">
       <use xlink:href="#DejaVuSans-30"/>
       <use xlink:href="#DejaVuSans-2e" transform="translate(63.623047 0)"/>
       <use xlink:href="#DejaVuSans-33" transform="translate(95.410156 0)"/>
      </g>
     </g>
    </g>
    <g id="ytick_9">
     <g id="line2d_35">
      <path d="M 52.160938 13.007301 
L 568.8 13.007301 
" clip-path="url(#pfcf9bc06f0)" style="fill: none; stroke-dasharray: 2.96,1.28; stroke-dashoffset: 0; stroke: #b0b0b0; stroke-opacity: 0.8; stroke-width: 0.8"/>
     </g>
     <g id="line2d_36">
      <g>
       <use xlink:href="#mcc78300bd7" x="52.160938" y="13.007301" style="stroke: #000000; stroke-width: 0.8"/>
      </g>
     </g>
     <g id="text_19">
      <!-- 0.4 -->
      <g transform="translate(29.257812 16.80652) scale(0.1 -0.1)">
       <use xlink:href="#DejaVuSans-30"/>
       <use xlink:href="#DejaVuSans-2e" transform="translate(63.623047 0)"/>
       <use xlink:href="#DejaVuSans-34" transform="translate(95.410156 0)"/>
      </g>
     </g>
    </g>
    <g id="text_20">
     <!-- Amplitude -->
     <g transform="translate(14.798437 154.433594) rotate(-90) scale(0.1 -0.1)">
      <defs>
       <path id="DejaVuSans-41" d="M 2188 4044 
L 1331 1722 
L 3047 1722 
L 2188 4044 
z
M 1831 4666 
L 2547 4666 
L 4325 0 
L 3669 0 
L 3244 1197 
L 1141 1197 
L 716 0 
L 50 0 
L 1831 4666 
z
" transform="scale(0.015625)"/>
       <path id="DejaVuSans-69" d="M 603 3500 
L 1178 3500 
L 1178 0 
L 603 0 
L 603 3500 
z
M 603 4863 
L 1178 4863 
L 1178 4134 
L 603 4134 
L 603 4863 
z
" transform="scale(0.015625)"/>
       <path id="DejaVuSans-74" d="M 1172 4494 
L 1172 3500 
L 2356 3500 
L 2356 3053 
L 1172 3053 
L 1172 1153 
Q 1172 725 1289 603 
Q 1406 481 1766 481 
L 2356 481 
L 2356 0 
L 1766 0 
Q 1100 0 847 248 
Q 594 497 594 1153 
L 594 3053 
L 172 3053 
L 172 3500 
L 594 3500 
L 594 4494 
L 1172 4494 
z
" transform="scale(0.015625)"/>
       <path id="DejaVuSans-75" d="M 544 1381 
L 544 3500 
L 1119 3500 
L 1119 1403 
Q 1119 906 1312 657 
Q 1506 409 1894 409 
Q 2359 409 2629 706 
Q 2900 1003 2900 1516 
L 2900 3500 
L 3475 3500 
L 3475 0 
L 2900 0 
L 2900 538 
Q 2691 219 2414 64 
Q 2138 -91 1772 -91 
Q 1169 -91 856 284 
Q 544 659 544 1381 
z
M 1991 3584 
L 1991 3584 
z
" transform="scale(0.015625)"/>
       <path id="DejaVuSans-64" d="M 2906 2969 
L 2906 4863 
L 3481 4863 
L 3481 0 
L 2906 0 
L 2906 525 
Q 2725 213 2448 61 
Q 2172 -91 1784 -91 
Q 1150 -91 751 415 
Q 353 922 353 1747 
Q 353 2572 751 3078 
Q 1150 3584 1784 3584 
Q 2172 3584 2448 3432 
Q 2725 3281 2906 2969 
z
M 947 1747 
Q 947 1113 1208 752 
Q 1469 391 1925 391 
Q 2381 391 2643 752 
Q 2906 1113 2906 1747 
Q 2906 2381 2643 2742 
Q 2381 3103 1925 3103 
Q 1469 3103 1208 2742 
Q 947 2381 947 1747 
z
" transform="scale(0.015625)"/>
      </defs>
      <use xlink:href="#DejaVuSans-41"/>
      <use xlink:href="#DejaVuSans-6d" transform="translate(68.408203 0)"/>
      <use xlink:href="#DejaVuSans-70" transform="translate(165.820312 0)"/>
      <use xlink:href="#DejaVuSans-6c" transform="translate(229.296875 0)"/>
      <use xlink:href="#DejaVuSans-69" transform="translate(257.080078 0)"/>
      <use xlink:href="#DejaVuSans-74" transform="translate(284.863281 0)"/>
      <use xlink:href="#DejaVuSans-75" transform="translate(324.072266 0)"/>
      <use xlink:href="#DejaVuSans-64" transform="translate(387.451172 0)"/>
      <use xlink:href="#DejaVuSans-65" transform="translate(450.927734 0)"/>
     </g>
    </g>
   </g>
   <g id="line2d_37">
    <path d="M 75.644531 124.198348 
L 76.821654 164.420833 
L 77.998776 194.662816 
L 79.175899 221.08661 
L 80.353021 229.622225 
L 81.530144 225.412596 
L 82.707266 203.610692 
L 83.884389 174.280331 
L 85.061511 123.804023 
L 87.415756 51.586748 
L 88.592879 36.70428 
L 89.770001 26.303278 
L 90.947124 27.962238 
L 92.124246 59.274283 
L 93.301369 83.495554 
L 94.478491 134.265072 
L 95.655614 168.647204 
L 96.832736 195.88323 
L 98.009859 230.092309 
L 99.186981 224.76002 
L 100.364104 224.74898 
L 101.541226 201.682229 
L 102.718349 167.405588 
L 103.895471 122.885806 
L 105.072594 163.981037 
L 106.249716 197.137027 
L 107.426839 217.693756 
L 108.603961 234.045233 
L 109.781084 225.899986 
L 110.958206 204.156712 
L 112.135329 173.854865 
L 113.312451 125.697049 
L 114.489574 164.813201 
L 115.666696 196.727705 
L 116.843819 220.44168 
L 118.020941 224.236142 
L 119.198064 223.208601 
L 120.375186 199.393153 
L 122.729431 133.22781 
L 123.906553 85.063079 
L 125.083676 50.977406 
L 126.260798 32.644943 
L 127.437921 23.099533 
L 128.615043 42.063192 
L 129.792166 51.52607 
L 134.500656 206.498807 
L 135.677778 230.227213 
L 136.854901 234.161311 
L 138.032023 210.286876 
L 139.209146 198.595199 
L 140.386268 163.709583 
L 141.563391 125.298181 
L 143.917636 59.367994 
L 145.094758 30.133946 
L 146.271881 24.9848 
L 147.449003 36.127666 
L 148.626126 55.609812 
L 149.803248 91.367437 
L 150.980371 131.924303 
L 152.157493 87.220545 
L 153.334616 63.913833 
L 154.511738 34.893538 
L 155.688861 21.551466 
L 156.865983 29.825358 
L 158.043106 49.169606 
L 159.220228 84.323068 
L 160.397351 131.212737 
L 162.751596 198.749305 
L 163.928718 222.059867 
L 165.105841 235.438074 
L 166.282963 210.668037 
L 167.460086 196.743612 
L 169.814331 124.920426 
L 170.991453 171.617224 
L 172.168576 194.613865 
L 173.345698 227.162658 
L 174.522821 225.369164 
L 175.699943 220.419105 
L 176.877066 205.600087 
L 178.054188 172.369022 
L 179.231311 129.908532 
L 181.585556 56.63469 
L 182.762678 35.643017 
L 183.939801 27.382075 
L 185.116923 35.726048 
L 186.294046 52.348541 
L 187.471168 93.608449 
L 188.648291 125.861598 
L 189.825413 170.766144 
L 191.002536 197.94818 
L 192.179658 209.812012 
L 193.356781 224.013346 
L 194.533903 222.608019 
L 195.711026 189.562183 
L 196.888148 165.847156 
L 198.065271 134.913969 
L 199.242393 176.662698 
L 200.419516 199.95723 
L 201.596638 215.900196 
L 202.773761 227.357312 
L 203.950883 217.329698 
L 205.128006 197.352139 
L 206.305128 169.3201 
L 207.482251 120.50782 
L 208.659373 95.366449 
L 209.836496 54.035785 
L 211.013618 26.290976 
L 212.190741 25.31016 
L 213.367863 34.709543 
L 214.544986 52.254195 
L 216.89923 131.155041 
L 218.076353 88.149502 
L 219.253475 55.270367 
L 220.430598 32.946751 
L 221.60772 30.036491 
L 222.784843 34.043674 
L 223.961965 62.805685 
L 225.139088 83.945715 
L 226.31621 127.616603 
L 227.493333 83.590949 
L 228.670455 53.57621 
L 229.847578 30.932168 
L 231.0247 21.376813 
L 232.201823 31.738873 
L 233.378945 46.335035 
L 234.556068 88.299107 
L 235.73319 134.834339 
L 236.910313 163.813987 
L 238.087435 201.77993 
L 239.264558 223.452261 
L 240.44168 228.002009 
L 241.618803 216.649636 
L 242.795925 185.839534 
L 243.973048 158.17557 
L 245.15017 127.098466 
L 247.504415 202.351071 
L 248.681538 225.651365 
L 249.85866 232.598223 
L 251.035783 219.754856 
L 252.212905 195.757679 
L 253.390028 167.315746 
L 254.56715 128.656831 
L 255.744273 78.007599 
L 256.921395 54.260699 
L 258.098518 37.923513 
L 259.27564 24.167567 
L 260.452763 29.215308 
L 262.807008 88.456058 
L 263.98413 127.343791 
L 265.161253 171.948083 
L 266.338375 203.023847 
L 267.515498 218.511646 
L 268.69262 217.553777 
L 269.869743 226.039561 
L 271.046865 206.238992 
L 272.223988 162.898297 
L 273.40111 129.556644 
L 275.755355 198.000473 
L 278.1096 237.818068 
L 279.286723 220.999399 
L 280.463845 200.231499 
L 281.640968 166.817011 
L 282.81809 125.203808 
L 283.995213 170.471318 
L 285.172335 201.004801 
L 286.349458 219.843178 
L 287.52658 234.142319 
L 288.703703 225.48207 
L 291.057948 166.968473 
L 292.23507 132.891977 
L 293.412193 163.809947 
L 294.589315 197.821799 
L 295.766438 220.178429 
L 296.94356 224.301382 
L 298.120683 212.106066 
L 299.297805 193.677856 
L 300.474928 163.987165 
L 301.65205 127.644013 
L 302.829173 167.03352 
L 304.006295 201.835724 
L 306.36054 230.87015 
L 307.537663 225.163186 
L 308.714785 194.418127 
L 309.891908 170.138628 
L 311.06903 129.526996 
L 313.423275 197.011973 
L 314.600397 224.436881 
L 315.77752 217.99812 
L 316.954642 228.917569 
L 318.131765 200.970883 
L 319.308887 167.297247 
L 320.48601 125.447725 
L 321.663132 165.988825 
L 324.017377 221.038999 
L 325.1945 232.238235 
L 326.371622 227.290799 
L 328.725867 171.504779 
L 329.90299 125.890012 
L 332.257235 49.956117 
L 333.434357 40.349426 
L 334.61148 33.54493 
L 335.788602 33.133712 
L 338.142847 91.788418 
L 339.31997 123.983759 
L 341.674215 63.413754 
L 342.851337 39.448587 
L 344.02846 24.225554 
L 345.205582 34.925283 
L 346.382705 57.956309 
L 347.559827 93.392226 
L 348.73695 135.530982 
L 349.914072 161.06711 
L 351.091195 199.775035 
L 352.268317 228.34387 
L 353.44544 227.820861 
L 354.622562 220.721051 
L 355.799685 192.362113 
L 356.976807 167.532136 
L 358.15393 120.885615 
L 359.331052 84.805221 
L 361.685297 28.402741 
L 362.86242 25.567878 
L 364.039542 31.203632 
L 365.216665 51.282929 
L 367.57091 122.72293 
L 368.748032 82.604922 
L 369.925155 57.440484 
L 371.102277 39.255264 
L 372.2794 25.976346 
L 373.456522 35.66234 
L 374.633645 64.465292 
L 375.810767 88.386907 
L 376.98789 123.733956 
L 378.165012 94.439021 
L 379.342135 53.530253 
L 380.519257 35.970336 
L 381.69638 28.95848 
L 382.873502 36.950296 
L 384.050625 58.419389 
L 386.40487 125.599728 
L 388.759115 59.214235 
L 389.936237 42.910393 
L 391.11336 28.477712 
L 392.290482 33.267606 
L 393.467605 54.797104 
L 395.82185 123.131017 
L 396.998972 97.886678 
L 398.176095 64.485367 
L 399.353217 35.195227 
L 400.53034 20.521382 
L 401.707462 24.667365 
L 402.884585 66.483085 
L 404.061707 86.612984 
L 406.415952 170.305603 
L 407.593074 199.57893 
L 408.770197 218.961612 
L 409.947319 226.602618 
L 411.124442 216.372574 
L 413.478687 168.613051 
L 414.655809 130.20379 
L 415.832932 88.047994 
L 418.187177 35.218288 
L 419.364299 24.922686 
L 420.541422 35.88873 
L 421.718544 53.254762 
L 422.895667 88.098492 
L 425.249912 166.244242 
L 426.427034 200.633589 
L 427.604157 221.03669 
L 428.781279 228.784281 
L 429.958402 219.430149 
L 431.135524 206.328618 
L 432.312647 164.012693 
L 433.489769 130.122157 
L 434.666892 79.412449 
L 435.844014 53.921291 
L 437.021137 33.555833 
L 438.198259 29.458679 
L 439.375382 30.506926 
L 440.552504 48.294495 
L 442.906749 124.230058 
L 444.083872 84.547834 
L 446.438117 28.041598 
L 447.615239 24.423282 
L 448.792362 32.143362 
L 449.969484 51.700452 
L 451.146607 86.092215 
L 452.323729 132.035284 
L 454.677974 210.151367 
L 455.855097 228.051494 
L 457.032219 230.480352 
L 458.209342 220.537468 
L 459.386464 198.750415 
L 461.740709 124.626712 
L 462.917832 161.95302 
L 465.272077 219.976781 
L 466.449199 225.88861 
L 467.626322 228.524339 
L 468.803444 202.244568 
L 469.980567 165.301959 
L 471.157689 121.095116 
L 472.334812 166.566652 
L 473.511934 197.554537 
L 474.689057 225.182513 
L 475.866179 235.49572 
L 477.043302 216.307567 
L 478.220424 204.976737 
L 479.397547 158.4106 
L 480.574669 130.811974 
L 481.751792 173.205398 
L 482.928914 203.895485 
L 484.106037 225.47749 
L 485.283159 229.325332 
L 486.460282 226.291952 
L 487.637404 199.476968 
L 489.991649 127.934894 
L 491.168772 93.497109 
L 492.345894 52.969034 
L 494.700139 22.480409 
L 495.877262 40.600832 
L 497.054384 53.85814 
L 498.231507 90.724501 
L 499.408629 118.936515 
L 500.585751 168.672252 
L 501.762874 199.111019 
L 502.939996 221.508031 
L 504.117119 227.100709 
L 505.294241 224.540873 
L 506.471364 208.872582 
L 507.648486 163.921501 
L 508.825609 128.950594 
L 510.002731 88.520749 
L 511.179854 60.363989 
L 512.356976 40.906677 
L 513.534099 39.612616 
L 514.711221 37.472092 
L 515.888344 56.619067 
L 517.065466 88.511146 
L 518.242589 133.785174 
L 519.419711 92.591803 
L 520.596834 56.295295 
L 521.773956 29.10234 
L 522.951079 24.384943 
L 524.128201 31.317403 
L 525.305324 50.988706 
L 526.482446 87.63901 
L 527.659569 130.289247 
L 528.836691 167.758136 
L 530.013814 200.911097 
L 531.190936 219.618819 
L 532.368059 231.475114 
L 533.545181 221.212302 
L 534.722304 193.178271 
L 535.899426 161.86428 
L 537.076549 124.460839 
L 538.253671 83.285505 
L 539.430794 52.990336 
L 540.607916 27.57947 
L 541.785039 23.154772 
L 542.962161 33.631316 
L 544.139284 57.205061 
L 545.316406 89.018669 
L 545.316406 89.018669 
" clip-path="url(#pfcf9bc06f0)" style="fill: none; stroke: #1f77b4; stroke-linecap: square"/>
   </g>
   <g id="line2d_38">
    <path d="M 75.644531 120.159655 
L 76.821654 133.075447 
L 77.998776 130.090271 
L 79.175899 126.569505 
L 80.353021 120.122711 
L 81.530144 91.687317 
L 82.707266 52.364256 
L 85.061511 21.170265 
L 86.238634 29.900894 
L 87.415756 62.675796 
L 88.592879 75.781927 
L 89.770001 129.492353 
L 90.947124 173.835562 
L 92.124246 200.345166 
L 93.301369 220.037056 
L 94.478491 235.03301 
L 95.655614 223.816944 
L 96.832736 201.463174 
L 98.009859 160.222501 
L 99.186981 137.957524 
L 100.364104 161.610066 
L 101.541226 196.72034 
L 102.718349 227.02499 
L 103.895471 226.431756 
L 105.072594 224.55708 
L 106.249716 187.410253 
L 107.426839 165.430891 
L 108.603961 119.347257 
L 109.781084 164.063996 
L 110.958206 200.155732 
L 112.135329 217.825866 
L 113.312451 222.5272 
L 114.489574 219.771261 
L 115.666696 202.730883 
L 116.843819 166.128779 
L 118.020941 123.364567 
L 119.198064 164.81605 
L 120.375186 185.460351 
L 121.552309 222.976027 
L 122.729431 231.752189 
L 123.906553 213.903435 
L 125.083676 193.803207 
L 127.437921 130.974049 
L 128.615043 163.003267 
L 129.792166 198.393635 
L 130.969288 228.457046 
L 132.146411 237.263443 
L 133.323533 216.993601 
L 134.500656 191.486614 
L 135.677778 160.908659 
L 138.032023 86.854647 
L 139.209146 68.436937 
L 140.386268 27.47776 
L 141.563391 21.206188 
L 142.740513 44.099764 
L 143.917636 64.068323 
L 145.094758 89.407638 
L 146.271881 133.788331 
L 147.449003 96.370007 
L 148.626126 52.790306 
L 150.980371 22.059914 
L 152.157493 33.027861 
L 153.334616 56.542677 
L 154.511738 93.635713 
L 155.688861 121.809458 
L 156.865983 94.92225 
L 158.043106 56.112193 
L 159.220228 26.342791 
L 160.397351 25.922316 
L 161.574473 37.119915 
L 162.751596 61.314382 
L 165.105841 130.437555 
L 166.282963 85.349506 
L 167.460086 65.145624 
L 168.637208 33.323065 
L 169.814331 21.472308 
L 170.991453 38.069026 
L 172.168576 59.122476 
L 173.345698 83.330932 
L 174.522821 125.319479 
L 175.699943 79.860087 
L 178.054188 35.838903 
L 179.231311 28.213755 
L 180.408433 31.420567 
L 181.585556 57.171536 
L 182.762678 86.637256 
L 183.939801 134.711577 
L 185.116923 171.417114 
L 186.294046 194.37605 
L 187.471168 219.70769 
L 188.648291 228.502739 
L 189.825413 219.883131 
L 191.002536 194.422259 
L 193.356781 127.434479 
L 194.533903 85.271241 
L 195.711026 57.465137 
L 196.888148 32.71555 
L 198.065271 27.650779 
L 199.242393 31.653334 
L 200.419516 58.894971 
L 202.773761 123.68324 
L 203.950883 166.860941 
L 205.128006 197.895819 
L 206.305128 219.365721 
L 207.482251 234.93229 
L 208.659373 221.675153 
L 209.836496 199.867699 
L 211.013618 170.151797 
L 212.190741 121.880195 
L 213.367863 165.795244 
L 214.544986 202.442699 
L 215.722108 222.728825 
L 216.89923 223.021947 
L 219.253475 200.155341 
L 221.60772 131.039267 
L 222.784843 163.153862 
L 223.961965 201.420714 
L 225.139088 221.438377 
L 226.31621 225.465453 
L 227.493333 227.664854 
L 228.670455 198.310242 
L 231.0247 126.409017 
L 233.378945 196.648976 
L 234.556068 220.860334 
L 235.73319 230.119785 
L 236.910313 228.282996 
L 239.264558 170.804668 
L 240.44168 129.420296 
L 241.618803 163.885512 
L 242.795925 204.200391 
L 243.973048 220.601612 
L 245.15017 229.5655 
L 246.327293 223.880859 
L 247.504415 189.258184 
L 248.681538 163.527588 
L 249.85866 124.941225 
L 251.035783 94.775899 
L 252.212905 55.524707 
L 253.390028 34.063863 
L 254.56715 28.132546 
L 255.744273 36.187143 
L 256.921395 62.629814 
L 258.098518 97.058985 
L 259.27564 138.730716 
L 260.452763 162.519534 
L 261.629885 198.918315 
L 262.807008 226.200555 
L 263.98413 235.114499 
L 265.161253 224.861271 
L 266.338375 198.07354 
L 267.515498 165.380756 
L 268.69262 119.868193 
L 269.869743 93.410308 
L 271.046865 57.109591 
L 272.223988 32.921732 
L 273.40111 22.757206 
L 274.578233 28.075512 
L 275.755355 54.945533 
L 278.1096 130.014639 
L 279.286723 99.723239 
L 280.463845 49.958195 
L 281.640968 39.12105 
L 282.81809 31.006616 
L 283.995213 33.764308 
L 285.172335 53.799239 
L 286.349458 86.324919 
L 287.52658 134.978175 
L 288.703703 169.631878 
L 289.880825 200.684213 
L 291.057948 226.521693 
L 292.23507 238.620173 
L 293.412193 214.146364 
L 294.589315 200.895165 
L 295.766438 174.781557 
L 296.94356 131.761615 
L 298.120683 169.310656 
L 299.297805 196.640121 
L 300.474928 220.402728 
L 301.65205 227.311438 
L 302.829173 228.79809 
L 304.006295 203.767672 
L 305.183418 166.732142 
L 306.36054 126.033448 
L 307.537663 92.568349 
L 308.714785 54.311591 
L 309.891908 24.534337 
L 311.06903 20.700339 
L 312.246152 35.816224 
L 313.423275 68.306803 
L 314.600397 91.80674 
L 315.77752 132.569763 
L 316.954642 85.682478 
L 318.131765 52.627998 
L 319.308887 27.284461 
L 320.48601 26.808029 
L 321.663132 33.259824 
L 324.017377 89.69921 
L 325.1945 126.160847 
L 326.371622 166.594338 
L 328.725867 224.238353 
L 329.90299 230.824458 
L 331.080112 218.456429 
L 332.257235 202.428583 
L 333.434357 161.663562 
L 334.61148 137.705367 
L 335.788602 172.306812 
L 336.965725 199.776654 
L 338.142847 218.411387 
L 339.31997 225.654965 
L 340.497092 226.81472 
L 341.674215 199.939164 
L 342.851337 163.707358 
L 344.02846 131.083007 
L 345.205582 161.338358 
L 346.382705 201.054934 
L 347.559827 224.094019 
L 348.73695 233.918388 
L 349.914072 218.029633 
L 351.091195 205.741919 
L 352.268317 173.967789 
L 353.44544 120.852286 
L 354.622562 92.770121 
L 355.799685 53.436492 
L 356.976807 35.550427 
L 358.15393 36.009653 
L 359.331052 39.913839 
L 360.508175 57.105699 
L 362.86242 121.124753 
L 364.039542 165.971998 
L 365.216665 194.217763 
L 366.393787 214.451064 
L 367.57091 229.190975 
L 368.748032 218.149716 
L 369.925155 205.149791 
L 371.102277 171.435409 
L 372.2794 127.477029 
L 373.456522 165.500831 
L 374.633645 199.105649 
L 375.810767 224.448693 
L 376.98789 224.761476 
L 378.165012 222.301119 
L 380.519257 178.632372 
L 381.69638 130.415401 
L 382.873502 171.656466 
L 384.050625 192.39657 
L 385.227747 220.650254 
L 386.40487 224.875343 
L 387.581992 228.496101 
L 388.759115 205.306801 
L 389.936237 159.580645 
L 391.11336 127.671995 
L 392.290482 88.775196 
L 393.467605 61.162508 
L 394.644727 30.781319 
L 395.82185 30.097426 
L 396.998972 41.221836 
L 398.176095 55.205564 
L 399.353217 84.615997 
L 400.53034 124.765676 
L 401.707462 79.733793 
L 402.884585 57.797373 
L 404.061707 39.589124 
L 405.238829 18.25554 
L 406.415952 26.882158 
L 407.593074 58.739695 
L 408.770197 86.421543 
L 411.124442 167.66191 
L 412.301564 202.579951 
L 413.478687 219.307371 
L 414.655809 227.197005 
L 415.832932 224.008911 
L 417.010054 202.091841 
L 419.364299 122.073508 
L 421.718544 49.01474 
L 422.895667 29.347556 
L 424.072789 33.423023 
L 425.249912 34.111713 
L 426.427034 54.774535 
L 427.604157 82.170044 
L 428.781279 129.985853 
L 429.958402 87.187027 
L 431.135524 51.977127 
L 432.312647 36.255314 
L 433.489769 33.349409 
L 434.666892 34.055782 
L 435.844014 59.710782 
L 437.021137 98.29606 
L 439.375382 167.265138 
L 441.729627 219.592832 
L 442.906749 229.193695 
L 444.083872 208.014129 
L 445.260994 194.04397 
L 446.438117 164.434742 
L 447.615239 130.315264 
L 449.969484 201.749937 
L 451.146607 218.926473 
L 452.323729 228.877092 
L 453.500852 223.861888 
L 454.677974 193.122219 
L 455.855097 165.302333 
L 457.032219 134.378559 
L 458.209342 87.470769 
L 459.386464 54.373064 
L 460.563587 41.549437 
L 461.740709 22.151989 
L 462.917832 30.056762 
L 464.094954 58.422112 
L 465.272077 71.146982 
L 466.449199 132.267381 
L 467.626322 86.151612 
L 468.803444 55.536704 
L 469.980567 35.252298 
L 471.157689 25.282243 
L 472.334812 25.015794 
L 474.689057 92.797827 
L 475.866179 131.952104 
L 478.220424 196.521123 
L 479.397547 211.96171 
L 480.574669 239.366335 
L 481.751792 229.46685 
L 484.106037 172.910441 
L 485.283159 130.276616 
L 486.460282 174.279261 
L 487.637404 203.866235 
L 488.814527 218.623136 
L 489.991649 221.255933 
L 491.168772 229.077596 
L 493.523017 184.442618 
L 494.700139 127.616391 
L 495.877262 167.710794 
L 497.054384 197.057324 
L 498.231507 220.897655 
L 499.408629 237.856452 
L 500.585751 224.253357 
L 501.762874 196.000683 
L 502.939996 165.068187 
L 504.117119 118.526925 
L 505.294241 162.465319 
L 506.471364 202.172175 
L 507.648486 222.139795 
L 508.825609 231.075069 
L 510.002731 225.618136 
L 511.179854 197.761563 
L 513.534099 133.801225 
L 514.711221 93.892341 
L 515.888344 60.562592 
L 517.065466 36.953283 
L 518.242589 21.905037 
L 519.419711 32.559867 
L 520.596834 49.475052 
L 521.773956 84.172972 
L 522.951079 123.022831 
L 524.128201 169.287938 
L 525.305324 200.318789 
L 526.482446 228.312039 
L 527.659569 224.004675 
L 528.836691 220.987255 
L 530.013814 199.383181 
L 531.190936 166.201062 
L 532.368059 127.314318 
L 533.545181 99.773368 
L 534.722304 55.59144 
L 535.899426 36.759525 
L 537.076549 21.657274 
L 538.253671 29.274936 
L 539.430794 54.919167 
L 540.607916 93.323138 
L 541.785039 117.513799 
L 542.962161 177.46119 
L 544.139284 198.270742 
L 545.316406 223.113116 
L 545.316406 223.113116 
" clip-path="url(#pfcf9bc06f0)" style="fill: none; stroke: #ff7f0e; stroke-linecap: square"/>
   </g>
   <g id="patch_3">
    <path d="M 52.160938 250.421875 
L 52.160938 7.2 
" style="fill: none; stroke: #000000; stroke-width: 0.8; stroke-linejoin: miter; stroke-linecap: square"/>
   </g>
   <g id="patch_4">
    <path d="M 568.8 250.421875 
L 568.8 7.2 
" style="fill: none; stroke: #000000; stroke-width: 0.8; stroke-linejoin: miter; stroke-linecap: square"/>
   </g>
   <g id="patch_5">
    <path d="M 52.160937 250.421875 
L 568.8 250.421875 
" style="fill: none; stroke: #000000; stroke-width: 0.8; stroke-linejoin: miter; stroke-linecap: square"/>
   </g>
   <g id="patch_6">
    <path d="M 52.160937 7.2 
L 568.8 7.2 
" style="fill: none; stroke: #000000; stroke-width: 0.8; stroke-linejoin: miter; stroke-linecap: square"/>
   </g>
   <g id="legend_1">
    <g id="patch_7">
     <path d="M 59.160938 44.55625 
L 116.15625 44.55625 
Q 118.15625 44.55625 118.15625 42.55625 
L 118.15625 14.2 
Q 118.15625 12.2 116.15625 12.2 
L 59.160938 12.2 
Q 57.160938 12.2 57.160938 14.2 
L 57.160938 42.55625 
Q 57.160938 44.55625 59.160938 44.55625 
z
" style="fill: #ffffff; opacity: 0.8; stroke: #cccccc; stroke-linejoin: miter"/>
    </g>
    <g id="line2d_39">
     <path d="M 61.160938 20.298437 
L 71.160938 20.298437 
L 81.160938 20.298437 
" style="fill: none; stroke: #1f77b4; stroke-linecap: square"/>
    </g>
    <g id="text_21">
     <!-- real -->
     <g transform="translate(89.160938 23.798437) scale(0.1 -0.1)">
      <defs>
       <path id="DejaVuSans-72" d="M 2631 2963 
Q 2534 3019 2420 3045 
Q 2306 3072 2169 3072 
Q 1681 3072 1420 2755 
Q 1159 2438 1159 1844 
L 1159 0 
L 581 0 
L 581 3500 
L 1159 3500 
L 1159 2956 
Q 1341 3275 1631 3429 
Q 1922 3584 2338 3584 
Q 2397 3584 2469 3576 
Q 2541 3569 2628 3553 
L 2631 2963 
z
" transform="scale(0.015625)"/>
      </defs>
      <use xlink:href="#DejaVuSans-72"/>
      <use xlink:href="#DejaVuSans-65" transform="translate(38.863281 0)"/>
      <use xlink:href="#DejaVuSans-61" transform="translate(100.386719 0)"/>
      <use xlink:href="#DejaVuSans-6c" transform="translate(161.666016 0)"/>
     </g>
    </g>
    <g id="line2d_40">
     <path d="M 61.160938 34.976562 
L 71.160938 34.976562 
L 81.160938 34.976562 
" style="fill: none; stroke: #ff7f0e; stroke-linecap: square"/>
    </g>
    <g id="text_22">
     <!-- imag -->
     <g transform="translate(89.160938 38.476562) scale(0.1 -0.1)">
      <defs>
       <path id="DejaVuSans-67" d="M 2906 1791 
Q 2906 2416 2648 2759 
Q 2391 3103 1925 3103 
Q 1463 3103 1205 2759 
Q 947 2416 947 1791 
Q 947 1169 1205 825 
Q 1463 481 1925 481 
Q 2391 481 2648 825 
Q 2906 1169 2906 1791 
z
M 3481 434 
Q 3481 -459 3084 -895 
Q 2688 -1331 1869 -1331 
Q 1566 -1331 1297 -1286 
Q 1028 -1241 775 -1147 
L 775 -588 
Q 1028 -725 1275 -790 
Q 1522 -856 1778 -856 
Q 2344 -856 2625 -561 
Q 2906 -266 2906 331 
L 2906 616 
Q 2728 306 2450 153 
Q 2172 0 1784 0 
Q 1141 0 747 490 
Q 353 981 353 1791 
Q 353 2603 747 3093 
Q 1141 3584 1784 3584 
Q 2172 3584 2450 3431 
Q 2728 3278 2906 2969 
L 2906 3500 
L 3481 3500 
L 3481 434 
z
" transform="scale(0.015625)"/>
      </defs>
      <use xlink:href="#DejaVuSans-69"/>
      <use xlink:href="#DejaVuSans-6d" transform="translate(27.783203 0)"/>
      <use xlink:href="#DejaVuSans-61" transform="translate(125.195312 0)"/>
      <use xlink:href="#DejaVuSans-67" transform="translate(186.474609 0)"/>
     </g>
    </g>
   </g>
  </g>
 </g>
 <defs>
  <clipPath id="pfcf9bc06f0">
   <rect x="52.160938" y="7.2" width="516.639063" height="243.221875"/>
  </clipPath>
 </defs>
</svg>
