<?xml version="1.0" encoding="utf-8" standalone="no"?>
<!DOCTYPE svg PUBLIC "-//W3C//DTD SVG 1.1//EN"
  "http://www.w3.org/Graphics/SVG/1.1/DTD/svg11.dtd">
<svg xmlns:xlink="http://www.w3.org/1999/xlink" width="576pt" height="288pt" viewBox="0 0 576 288" xmlns="http://www.w3.org/2000/svg" version="1.1">
 <metadata>
  <rdf:RDF xmlns:dc="http://purl.org/dc/elements/1.1/" xmlns:cc="http://creativecommons.org/ns#" xmlns:rdf="http://www.w3.org/1999/02/22-rdf-syntax-ns#">
   <cc:Work>
    <dc:type rdf:resource="http://purl.org/dc/dcmitype/StillImage"/>
    <dc:date>2026-05-03T18:10:22.664951</dc:date>
    <dc:format>image/svg+xml</dc:format>
    <dc:creator>
     <cc:Agent>
      <dc:title>Matplotlib v3.10.9, https://matplotlib.org/</dc:title>
     </cc:Agent>
    </dc:creator>
   </cc:Work>
  </rdf:RDF>
 </metadata>
 <defs>
  <style type="text/css">*{stroke-linejoin: round; stroke-linecap: butt}</style>
 </defs>
 <g id="figure_1">
  <g id="patch_1">
   <path d="M 0 288 
L 576 288 
L 576 0 
L 0 0 
z
" style="fill: #ffffff"/>
  </g>
  <g id="axes_1">
   <g id="patch_2">
    <path d="M 43.78125 250.44375 
L 568.8 250.44375 
L 568.8 22.318125 
L 43.78125 22.318125 
z
" style="fill: #ffffff"/>
   </g>
   <g id="FillBetweenPolyCollection_1">
    <defs>
     <path id="me2f222f2d3" d="M 360.42517 -47.925597 
L 360.42517 -47.925597 
L 360.88624 -47.925597 
L 361.34731 -47.925597 
L 361.80838 -47.925597 
L 362.26945 -47.925597 
L 362.73052 -47.925597 
L 363.19159 -47.925597 
L 363.65266 -47.925597 
L 364.11373 -47.925597 
L 364.5748 -47.925597 
L 365.03587 -47.925597 
L 365.49694 -47.925597 
L 365.95801 -47.925597 
L 366.41908 -47.925597 
L 366.88015 -47.925597 
L 367.34122 -47.925597 
L 367.802289 -47.925597 
L 368.263359 -47.925597 
L 368.724429 -47.925597 
L 369.185499 -47.925597 
L 369.646569 -47.925597 
L 370.107639 -47.925597 
L 370.568709 -47.925597 
L 371.029779 -47.925597 
L 371.490849 -47.925597 
L 371.951919 -47.925597 
L 372.412989 -47.925597 
L 372.874059 -47.925597 
L 373.335129 -47.925597 
L 373.796199 -47.925597 
L 374.257269 -47.925597 
L 374.718339 -47.925597 
L 375.179409 -47.925597 
L 375.640479 -47.925597 
L 376.101549 -47.925597 
L 376.562619 -47.925597 
L 377.023689 -47.925597 
L 377.484759 -47.925597 
L 377.945829 -47.925597 
L 378.406899 -47.925597 
L 378.867969 -47.925597 
L 379.329039 -47.925597 
L 379.790109 -47.925597 
L 380.251179 -47.925597 
L 380.712249 -47.925597 
L 381.173319 -47.925597 
L 381.634389 -47.925597 
L 382.095459 -47.925597 
L 382.556529 -47.925597 
L 383.017599 -47.925597 
L 383.478668 -47.925597 
L 383.939738 -47.925597 
L 384.400808 -47.925597 
L 384.861878 -47.925597 
L 385.322948 -47.925597 
L 385.784018 -47.925597 
L 386.245088 -47.925597 
L 386.706158 -47.925597 
L 387.167228 -47.925597 
L 387.628298 -47.925597 
L 388.089368 -47.925597 
L 388.550438 -47.925597 
L 389.011508 -47.925597 
L 389.472578 -47.925597 
L 389.933648 -47.925597 
L 390.394718 -47.925597 
L 390.855788 -47.925597 
L 391.316858 -47.925597 
L 391.777928 -47.925597 
L 392.238998 -47.925597 
L 392.700068 -47.925597 
L 393.161138 -47.925597 
L 393.622208 -47.925597 
L 394.083278 -47.925597 
L 394.544348 -47.925597 
L 395.005418 -47.925597 
L 395.466488 -47.925597 
L 395.927558 -47.925597 
L 396.388628 -47.925597 
L 396.849698 -47.925597 
L 397.310768 -47.925597 
L 397.771838 -47.925597 
L 398.232908 -47.925597 
L 398.693978 -47.925597 
L 399.155047 -47.925597 
L 399.616117 -47.925597 
L 400.077187 -47.925597 
L 400.538257 -47.925597 
L 400.999327 -47.925597 
L 401.460397 -47.925597 
L 401.921467 -47.925597 
L 402.382537 -47.925597 
L 402.843607 -47.925597 
L 403.304677 -47.925597 
L 403.765747 -47.925597 
L 404.226817 -47.925597 
L 404.687887 -47.925597 
L 405.148957 -47.925597 
L 405.610027 -47.925597 
L 406.071097 -47.925597 
L 406.532167 -47.925597 
L 406.993237 -47.925597 
L 407.454307 -47.925597 
L 407.915377 -47.925597 
L 408.376447 -47.925597 
L 408.837517 -47.925597 
L 409.298587 -47.925597 
L 409.759657 -47.925597 
L 410.220727 -47.925597 
L 410.681797 -47.925597 
L 411.142867 -47.925597 
L 411.603937 -47.925597 
L 412.065007 -47.925597 
L 412.526077 -47.925597 
L 412.987147 -47.925597 
L 413.448217 -47.925597 
L 413.909287 -47.925597 
L 414.370357 -47.925597 
L 414.831426 -47.925597 
L 415.292496 -47.925597 
L 415.753566 -47.925597 
L 416.214636 -47.925597 
L 416.675706 -47.925597 
L 417.136776 -47.925597 
L 417.597846 -47.925597 
L 418.058916 -47.925597 
L 418.519986 -47.925597 
L 418.981056 -47.925597 
L 419.442126 -47.925597 
L 419.903196 -47.925597 
L 420.364266 -47.925597 
L 420.825336 -47.925597 
L 421.286406 -47.925597 
L 421.747476 -47.925597 
L 422.208546 -47.925597 
L 422.669616 -47.925597 
L 423.130686 -47.925597 
L 423.591756 -47.925597 
L 424.052826 -47.925597 
L 424.513896 -47.925597 
L 424.974966 -47.925597 
L 425.436036 -47.925597 
L 425.897106 -47.925597 
L 426.358176 -47.925597 
L 426.819246 -47.925597 
L 427.280316 -47.925597 
L 427.741386 -47.925597 
L 428.202456 -47.925597 
L 428.663526 -47.925597 
L 429.124596 -47.925597 
L 429.585666 -47.925597 
L 430.046736 -47.925597 
L 430.507805 -47.925597 
L 430.968875 -47.925597 
L 431.429945 -47.925597 
L 431.891015 -47.925597 
L 432.352085 -47.925597 
L 432.813155 -47.925597 
L 433.274225 -47.925597 
L 433.735295 -47.925597 
L 434.196365 -47.925597 
L 434.657435 -47.925597 
L 435.118505 -47.925597 
L 435.579575 -47.925597 
L 436.040645 -47.925597 
L 436.501715 -47.925597 
L 436.962785 -47.925597 
L 437.423855 -47.925597 
L 437.884925 -47.925597 
L 438.345995 -47.925597 
L 438.807065 -47.925597 
L 439.268135 -47.925597 
L 439.729205 -47.925597 
L 440.190275 -47.925597 
L 440.651345 -47.925597 
L 441.112415 -47.925597 
L 441.573485 -47.925597 
L 442.034555 -47.925597 
L 442.495625 -47.925597 
L 442.956695 -47.925597 
L 443.417765 -47.925597 
L 443.878835 -47.925597 
L 444.339905 -47.925597 
L 444.800975 -47.925597 
L 445.262045 -47.925597 
L 445.723115 -47.925597 
L 446.184184 -47.925597 
L 446.645254 -47.925597 
L 447.106324 -47.925597 
L 447.567394 -47.925597 
L 448.028464 -47.925597 
L 448.489534 -47.925597 
L 448.950604 -47.925597 
L 449.411674 -47.925597 
L 449.872744 -47.925597 
L 450.333814 -47.925597 
L 450.794884 -47.925597 
L 451.255954 -47.925597 
L 451.717024 -47.925597 
L 452.178094 -47.925597 
L 452.639164 -47.925597 
L 453.100234 -47.925597 
L 453.561304 -47.925597 
L 454.022374 -47.925597 
L 454.483444 -47.925597 
L 454.944514 -47.925597 
L 455.405584 -47.925597 
L 455.866654 -47.925597 
L 456.327724 -47.925597 
L 456.788794 -47.925597 
L 457.249864 -47.925597 
L 457.710934 -47.925597 
L 458.172004 -47.925597 
L 458.633074 -47.925597 
L 459.094144 -47.925597 
L 459.555214 -47.925597 
L 460.016284 -47.925597 
L 460.477354 -47.925597 
L 460.938424 -47.925597 
L 461.399494 -47.925597 
L 461.860563 -47.925597 
L 462.321633 -47.925597 
L 462.782703 -47.925597 
L 463.243773 -47.925597 
L 463.704843 -47.925597 
L 464.165913 -47.925597 
L 464.626983 -47.925597 
L 465.088053 -47.925597 
L 465.549123 -47.925597 
L 466.010193 -47.925597 
L 466.471263 -47.925597 
L 466.932333 -47.925597 
L 467.393403 -47.925597 
L 467.854473 -47.925597 
L 468.315543 -47.925597 
L 468.776613 -47.925597 
L 469.237683 -47.925597 
L 469.698753 -47.925597 
L 470.159823 -47.925597 
L 470.620893 -47.925597 
L 471.081963 -47.925597 
L 471.543033 -47.925597 
L 472.004103 -47.925597 
L 472.465173 -47.925597 
L 472.926243 -47.925597 
L 473.387313 -47.925597 
L 473.848383 -47.925597 
L 474.309453 -47.925597 
L 474.770523 -47.925597 
L 475.231593 -47.925597 
L 475.692663 -47.925597 
L 476.153733 -47.925597 
L 476.614803 -47.925597 
L 477.075873 -47.925597 
L 477.536942 -47.925597 
L 477.998012 -47.925597 
L 478.459082 -47.925597 
L 478.920152 -47.925597 
L 479.381222 -47.925597 
L 479.842292 -47.925597 
L 480.303362 -47.925597 
L 480.764432 -47.925597 
L 481.225502 -47.925597 
L 481.686572 -47.925597 
L 482.147642 -47.925597 
L 482.608712 -47.925597 
L 483.069782 -47.925597 
L 483.530852 -47.925597 
L 483.991922 -47.925597 
L 484.452992 -47.925597 
L 484.914062 -47.925597 
L 485.375132 -47.925597 
L 485.836202 -47.925597 
L 486.297272 -47.925597 
L 486.758342 -47.925597 
L 487.219412 -47.925597 
L 487.680482 -47.925597 
L 488.141552 -47.925597 
L 488.602622 -47.925597 
L 489.063692 -47.925597 
L 489.524762 -47.925597 
L 489.985832 -47.925597 
L 490.446902 -47.925597 
L 490.907972 -47.925597 
L 491.369042 -47.925597 
L 491.830112 -47.925597 
L 492.291182 -47.925597 
L 492.752252 -47.925597 
L 493.213321 -47.925597 
L 493.674391 -47.925597 
L 494.135461 -47.925597 
L 494.596531 -47.925597 
L 495.057601 -47.925597 
L 495.518671 -47.925597 
L 495.979741 -47.925597 
L 496.440811 -47.925597 
L 496.901881 -47.925597 
L 497.362951 -47.925597 
L 497.824021 -47.925597 
L 498.285091 -47.925597 
L 498.746161 -47.925597 
L 499.207231 -47.925597 
L 499.668301 -47.925597 
L 500.129371 -47.925597 
L 500.590441 -47.925597 
L 501.051511 -47.925597 
L 501.512581 -47.925597 
L 501.973651 -47.925597 
L 502.434721 -47.925597 
L 502.895791 -47.925597 
L 503.356861 -47.925597 
L 503.817931 -47.925597 
L 504.279001 -47.925597 
L 504.740071 -47.925597 
L 505.201141 -47.925597 
L 505.662211 -47.925597 
L 506.123281 -47.925597 
L 506.584351 -47.925597 
L 507.045421 -47.925597 
L 507.506491 -47.925597 
L 507.967561 -47.925597 
L 508.428631 -47.925597 
L 508.8897 -47.925597 
L 509.35077 -47.925597 
L 509.81184 -47.925597 
L 510.27291 -47.925597 
L 510.73398 -47.925597 
L 511.19505 -47.925597 
L 511.65612 -47.925597 
L 512.11719 -47.925597 
L 512.57826 -47.925597 
L 513.03933 -47.925597 
L 513.5004 -47.925597 
L 513.96147 -47.925597 
L 514.42254 -47.925597 
L 514.88361 -47.925597 
L 515.34468 -47.925597 
L 515.80575 -47.925597 
L 516.26682 -47.925597 
L 516.72789 -47.925597 
L 517.18896 -47.925597 
L 517.65003 -47.925597 
L 518.1111 -47.925597 
L 518.57217 -47.925597 
L 519.03324 -47.925597 
L 519.49431 -47.925597 
L 519.95538 -47.925597 
L 520.41645 -47.925597 
L 520.87752 -47.925597 
L 521.33859 -47.925597 
L 521.79966 -47.925597 
L 522.26073 -47.925597 
L 522.7218 -47.925597 
L 523.18287 -47.925597 
L 523.64394 -47.925597 
L 524.10501 -47.925597 
L 524.566079 -47.925597 
L 525.027149 -47.925597 
L 525.488219 -47.925597 
L 525.949289 -47.925597 
L 526.410359 -47.925597 
L 526.871429 -47.925597 
L 527.332499 -47.925597 
L 527.793569 -47.925597 
L 528.254639 -47.925597 
L 528.715709 -47.925597 
L 528.715709 -47.925597 
L 528.715709 -47.928169 
L 528.254639 -47.928288 
L 527.793569 -47.928412 
L 527.332499 -47.928541 
L 526.871429 -47.928676 
L 526.410359 -47.928817 
L 525.949289 -47.928965 
L 525.488219 -47.929118 
L 525.027149 -47.929279 
L 524.566079 -47.929446 
L 524.10501 -47.92962 
L 523.64394 -47.929802 
L 523.18287 -47.929992 
L 522.7218 -47.93019 
L 522.26073 -47.930397 
L 521.79966 -47.930612 
L 521.33859 -47.930836 
L 520.87752 -47.93107 
L 520.41645 -47.931314 
L 519.95538 -47.931569 
L 519.49431 -47.931834 
L 519.03324 -47.93211 
L 518.57217 -47.932398 
L 518.1111 -47.932698 
L 517.65003 -47.93301 
L 517.18896 -47.933336 
L 516.72789 -47.933675 
L 516.26682 -47.934028 
L 515.80575 -47.934396 
L 515.34468 -47.934779 
L 514.88361 -47.935178 
L 514.42254 -47.935594 
L 513.96147 -47.936026 
L 513.5004 -47.936476 
L 513.03933 -47.936945 
L 512.57826 -47.937432 
L 512.11719 -47.93794 
L 511.65612 -47.938468 
L 511.19505 -47.939017 
L 510.73398 -47.939589 
L 510.27291 -47.940183 
L 509.81184 -47.940802 
L 509.35077 -47.941445 
L 508.8897 -47.942114 
L 508.428631 -47.94281 
L 507.967561 -47.943534 
L 507.506491 -47.944286 
L 507.045421 -47.945068 
L 506.584351 -47.94588 
L 506.123281 -47.946725 
L 505.662211 -47.947603 
L 505.201141 -47.948516 
L 504.740071 -47.949464 
L 504.279001 -47.950449 
L 503.817931 -47.951472 
L 503.356861 -47.952536 
L 502.895791 -47.95364 
L 502.434721 -47.954787 
L 501.973651 -47.955978 
L 501.512581 -47.957215 
L 501.051511 -47.958499 
L 500.590441 -47.959832 
L 500.129371 -47.961216 
L 499.668301 -47.962653 
L 499.207231 -47.964144 
L 498.746161 -47.965691 
L 498.285091 -47.967297 
L 497.824021 -47.968964 
L 497.362951 -47.970692 
L 496.901881 -47.972486 
L 496.440811 -47.974346 
L 495.979741 -47.976276 
L 495.518671 -47.978277 
L 495.057601 -47.980352 
L 494.596531 -47.982504 
L 494.135461 -47.984735 
L 493.674391 -47.987048 
L 493.213321 -47.989446 
L 492.752252 -47.991931 
L 492.291182 -47.994507 
L 491.830112 -47.997176 
L 491.369042 -47.999942 
L 490.907972 -48.002808 
L 490.446902 -48.005777 
L 489.985832 -48.008853 
L 489.524762 -48.012039 
L 489.063692 -48.015339 
L 488.602622 -48.018756 
L 488.141552 -48.022295 
L 487.680482 -48.025959 
L 487.219412 -48.029752 
L 486.758342 -48.03368 
L 486.297272 -48.037745 
L 485.836202 -48.041952 
L 485.375132 -48.046306 
L 484.914062 -48.050812 
L 484.452992 -48.055475 
L 483.991922 -48.060299 
L 483.530852 -48.065289 
L 483.069782 -48.070451 
L 482.608712 -48.075791 
L 482.147642 -48.081313 
L 481.686572 -48.087023 
L 481.225502 -48.092928 
L 480.764432 -48.099033 
L 480.303362 -48.105345 
L 479.842292 -48.11187 
L 479.381222 -48.118614 
L 478.920152 -48.125584 
L 478.459082 -48.132787 
L 477.998012 -48.14023 
L 477.536942 -48.14792 
L 477.075873 -48.155865 
L 476.614803 -48.164072 
L 476.153733 -48.17255 
L 475.692663 -48.181306 
L 475.231593 -48.190348 
L 474.770523 -48.199686 
L 474.309453 -48.209327 
L 473.848383 -48.21928 
L 473.387313 -48.229556 
L 472.926243 -48.240162 
L 472.465173 -48.251109 
L 472.004103 -48.262407 
L 471.543033 -48.274065 
L 471.081963 -48.286094 
L 470.620893 -48.298505 
L 470.159823 -48.311308 
L 469.698753 -48.324515 
L 469.237683 -48.338137 
L 468.776613 -48.352185 
L 468.315543 -48.366671 
L 467.854473 -48.381609 
L 467.393403 -48.397009 
L 466.932333 -48.412886 
L 466.471263 -48.429252 
L 466.010193 -48.446121 
L 465.549123 -48.463505 
L 465.088053 -48.481421 
L 464.626983 -48.499881 
L 464.165913 -48.5189 
L 463.704843 -48.538494 
L 463.243773 -48.558678 
L 462.782703 -48.579468 
L 462.321633 -48.600879 
L 461.860563 -48.622928 
L 461.399494 -48.645632 
L 460.938424 -48.669008 
L 460.477354 -48.693074 
L 460.016284 -48.717847 
L 459.555214 -48.743346 
L 459.094144 -48.769589 
L 458.633074 -48.796596 
L 458.172004 -48.824386 
L 457.710934 -48.852978 
L 457.249864 -48.882394 
L 456.788794 -48.912653 
L 456.327724 -48.943778 
L 455.866654 -48.975789 
L 455.405584 -49.008708 
L 454.944514 -49.042559 
L 454.483444 -49.077363 
L 454.022374 -49.113144 
L 453.561304 -49.149926 
L 453.100234 -49.187734 
L 452.639164 -49.226591 
L 452.178094 -49.266524 
L 451.717024 -49.307557 
L 451.255954 -49.349717 
L 450.794884 -49.393031 
L 450.333814 -49.437525 
L 449.872744 -49.483228 
L 449.411674 -49.530167 
L 448.950604 -49.578372 
L 448.489534 -49.62787 
L 448.028464 -49.678693 
L 447.567394 -49.73087 
L 447.106324 -49.784431 
L 446.645254 -49.839409 
L 446.184184 -49.895835 
L 445.723115 -49.953742 
L 445.262045 -50.013161 
L 444.800975 -50.074127 
L 444.339905 -50.136674 
L 443.878835 -50.200836 
L 443.417765 -50.266648 
L 442.956695 -50.334146 
L 442.495625 -50.403366 
L 442.034555 -50.474346 
L 441.573485 -50.547121 
L 441.112415 -50.621731 
L 440.651345 -50.698214 
L 440.190275 -50.776609 
L 439.729205 -50.856955 
L 439.268135 -50.939293 
L 438.807065 -51.023664 
L 438.345995 -51.11011 
L 437.884925 -51.198671 
L 437.423855 -51.289391 
L 436.962785 -51.382314 
L 436.501715 -51.477482 
L 436.040645 -51.574941 
L 435.579575 -51.674735 
L 435.118505 -51.776909 
L 434.657435 -51.881511 
L 434.196365 -51.988586 
L 433.735295 -52.098183 
L 433.274225 -52.210348 
L 432.813155 -52.325132 
L 432.352085 -52.442581 
L 431.891015 -52.562747 
L 431.429945 -52.68568 
L 430.968875 -52.81143 
L 430.507805 -52.940049 
L 430.046736 -53.071588 
L 429.585666 -53.206101 
L 429.124596 -53.34364 
L 428.663526 -53.484259 
L 428.202456 -53.628013 
L 427.741386 -53.774955 
L 427.280316 -53.925141 
L 426.819246 -54.078628 
L 426.358176 -54.235471 
L 425.897106 -54.395727 
L 425.436036 -54.559453 
L 424.974966 -54.726708 
L 424.513896 -54.89755 
L 424.052826 -55.072037 
L 423.591756 -55.250229 
L 423.130686 -55.432186 
L 422.669616 -55.617968 
L 422.208546 -55.807635 
L 421.747476 -56.001248 
L 421.286406 -56.19887 
L 420.825336 -56.400562 
L 420.364266 -56.606387 
L 419.903196 -56.816406 
L 419.442126 -57.030684 
L 418.981056 -57.249283 
L 418.519986 -57.472267 
L 418.058916 -57.699701 
L 417.597846 -57.931649 
L 417.136776 -58.168176 
L 416.675706 -58.409346 
L 416.214636 -58.655224 
L 415.753566 -58.905877 
L 415.292496 -59.16137 
L 414.831426 -59.421769 
L 414.370357 -59.687139 
L 413.909287 -59.957548 
L 413.448217 -60.233061 
L 412.987147 -60.513745 
L 412.526077 -60.799667 
L 412.065007 -61.090894 
L 411.603937 -61.387491 
L 411.142867 -61.689527 
L 410.681797 -61.997067 
L 410.220727 -62.310179 
L 409.759657 -62.628928 
L 409.298587 -62.953383 
L 408.837517 -63.28361 
L 408.376447 -63.619674 
L 407.915377 -63.961643 
L 407.454307 -64.309582 
L 406.993237 -64.663558 
L 406.532167 -65.023636 
L 406.071097 -65.389882 
L 405.610027 -65.762361 
L 405.148957 -66.141138 
L 404.687887 -66.526277 
L 404.226817 -66.917842 
L 403.765747 -67.315898 
L 403.304677 -67.720508 
L 402.843607 -68.131734 
L 402.382537 -68.549639 
L 401.921467 -68.974284 
L 401.460397 -69.405732 
L 400.999327 -69.844042 
L 400.538257 -70.289274 
L 400.077187 -70.741489 
L 399.616117 -71.200744 
L 399.155047 -71.667097 
L 398.693978 -72.140606 
L 398.232908 -72.621327 
L 397.771838 -73.109314 
L 397.310768 -73.604624 
L 396.849698 -74.107308 
L 396.388628 -74.617421 
L 395.927558 -75.135013 
L 395.466488 -75.660135 
L 395.005418 -76.192836 
L 394.544348 -76.733166 
L 394.083278 -77.28117 
L 393.622208 -77.836896 
L 393.161138 -78.400388 
L 392.700068 -78.971689 
L 392.238998 -79.550842 
L 391.777928 -80.137887 
L 391.316858 -80.732863 
L 390.855788 -81.33581 
L 390.394718 -81.946763 
L 389.933648 -82.565757 
L 389.472578 -83.192826 
L 389.011508 -83.828001 
L 388.550438 -84.471312 
L 388.089368 -85.122789 
L 387.628298 -85.782458 
L 387.167228 -86.450343 
L 386.706158 -87.126468 
L 386.245088 -87.810855 
L 385.784018 -88.503522 
L 385.322948 -89.204487 
L 384.861878 -89.913766 
L 384.400808 -90.631373 
L 383.939738 -91.357318 
L 383.478668 -92.091612 
L 383.017599 -92.834261 
L 382.556529 -93.585271 
L 382.095459 -94.344645 
L 381.634389 -95.112383 
L 381.173319 -95.888483 
L 380.712249 -96.672943 
L 380.251179 -97.465755 
L 379.790109 -98.266911 
L 379.329039 -99.0764 
L 378.867969 -99.894209 
L 378.406899 -100.720321 
L 377.945829 -101.554717 
L 377.484759 -102.397378 
L 377.023689 -103.248279 
L 376.562619 -104.107394 
L 376.101549 -104.974694 
L 375.640479 -105.850147 
L 375.179409 -106.73372 
L 374.718339 -107.625374 
L 374.257269 -108.52507 
L 373.796199 -109.432766 
L 373.335129 -110.348416 
L 372.874059 -111.271972 
L 372.412989 -112.203382 
L 371.951919 -113.142592 
L 371.490849 -114.089546 
L 371.029779 -115.044183 
L 370.568709 -116.00644 
L 370.107639 -116.976252 
L 369.646569 -117.953549 
L 369.185499 -118.93826 
L 368.724429 -119.93031 
L 368.263359 -120.92962 
L 367.802289 -121.936109 
L 367.34122 -122.949694 
L 366.88015 -123.970287 
L 366.41908 -124.997797 
L 365.95801 -126.032132 
L 365.49694 -127.073194 
L 365.03587 -128.120883 
L 364.5748 -129.175097 
L 364.11373 -130.23573 
L 363.65266 -131.302673 
L 363.19159 -132.375812 
L 362.73052 -133.455034 
L 362.26945 -134.540219 
L 361.80838 -135.631245 
L 361.34731 -136.727987 
L 360.88624 -137.830319 
L 360.42517 -138.938107 
z
" style="stroke: #1f77b4; stroke-opacity: 0.1"/>
    </defs>
    <g clip-path="url(#pc903a3619c)">
     <use xlink:href="#me2f222f2d3" x="0" y="288" style="fill: #1f77b4; fill-opacity: 0.1; stroke: #1f77b4; stroke-opacity: 0.1"/>
    </g>
   </g>
   <g id="FillBetweenPolyCollection_2">
    <defs>
     <path id="me02672f536" d="M 360.292831 -47.925597 
L 360.592576 -47.925597 
L 360.89232 -47.925597 
L 361.192065 -47.925597 
L 361.49181 -47.925597 
L 361.791554 -47.925597 
L 362.091299 -47.925597 
L 362.391044 -47.925597 
L 362.690788 -47.925597 
L 362.990533 -47.925597 
L 363.290277 -47.925597 
L 363.590022 -47.925597 
L 363.889767 -47.925597 
L 364.189511 -47.925597 
L 364.489256 -47.925597 
L 364.789 -47.925597 
L 365.088745 -47.925597 
L 365.38849 -47.925597 
L 365.688234 -47.925597 
L 365.987979 -47.925597 
L 366.287723 -47.925597 
L 366.587468 -47.925597 
L 366.887213 -47.925597 
L 367.186957 -47.925597 
L 367.486702 -47.925597 
L 367.786446 -47.925597 
L 368.086191 -47.925597 
L 368.385936 -47.925597 
L 368.68568 -47.925597 
L 368.985425 -47.925597 
L 369.28517 -47.925597 
L 369.584914 -47.925597 
L 369.884659 -47.925597 
L 370.184403 -47.925597 
L 370.484148 -47.925597 
L 370.783893 -47.925597 
L 371.083637 -47.925597 
L 371.383382 -47.925597 
L 371.683126 -47.925597 
L 371.982871 -47.925597 
L 372.282616 -47.925597 
L 372.58236 -47.925597 
L 372.882105 -47.925597 
L 373.181849 -47.925597 
L 373.481594 -47.925597 
L 373.781339 -47.925597 
L 374.081083 -47.925597 
L 374.380828 -47.925597 
L 374.680573 -47.925597 
L 374.980317 -47.925597 
L 375.280062 -47.925597 
L 375.579806 -47.925597 
L 375.879551 -47.925597 
L 376.179296 -47.925597 
L 376.47904 -47.925597 
L 376.778785 -47.925597 
L 377.078529 -47.925597 
L 377.378274 -47.925597 
L 377.678019 -47.925597 
L 377.977763 -47.925597 
L 378.277508 -47.925597 
L 378.577252 -47.925597 
L 378.876997 -47.925597 
L 379.176742 -47.925597 
L 379.476486 -47.925597 
L 379.776231 -47.925597 
L 380.075976 -47.925597 
L 380.37572 -47.925597 
L 380.675465 -47.925597 
L 380.975209 -47.925597 
L 381.274954 -47.925597 
L 381.574699 -47.925597 
L 381.874443 -47.925597 
L 382.174188 -47.925597 
L 382.473932 -47.925597 
L 382.773677 -47.925597 
L 383.073422 -47.925597 
L 383.373166 -47.925597 
L 383.672911 -47.925597 
L 383.972655 -47.925597 
L 384.2724 -47.925597 
L 384.572145 -47.925597 
L 384.871889 -47.925597 
L 385.171634 -47.925597 
L 385.471379 -47.925597 
L 385.771123 -47.925597 
L 386.070868 -47.925597 
L 386.370612 -47.925597 
L 386.670357 -47.925597 
L 386.970102 -47.925597 
L 387.269846 -47.925597 
L 387.569591 -47.925597 
L 387.869335 -47.925597 
L 388.16908 -47.925597 
L 388.468825 -47.925597 
L 388.768569 -47.925597 
L 389.068314 -47.925597 
L 389.368058 -47.925597 
L 389.667803 -47.925597 
L 389.967548 -47.925597 
L 390.267292 -47.925597 
L 390.567037 -47.925597 
L 390.866782 -47.925597 
L 391.166526 -47.925597 
L 391.466271 -47.925597 
L 391.766015 -47.925597 
L 392.06576 -47.925597 
L 392.365505 -47.925597 
L 392.665249 -47.925597 
L 392.964994 -47.925597 
L 393.264738 -47.925597 
L 393.564483 -47.925597 
L 393.864228 -47.925597 
L 394.163972 -47.925597 
L 394.463717 -47.925597 
L 394.763461 -47.925597 
L 395.063206 -47.925597 
L 395.362951 -47.925597 
L 395.662695 -47.925597 
L 395.96244 -47.925597 
L 396.262185 -47.925597 
L 396.561929 -47.925597 
L 396.861674 -47.925597 
L 397.161418 -47.925597 
L 397.461163 -47.925597 
L 397.760908 -47.925597 
L 398.060652 -47.925597 
L 398.360397 -47.925597 
L 398.660141 -47.925597 
L 398.959886 -47.925597 
L 399.259631 -47.925597 
L 399.559375 -47.925597 
L 399.85912 -47.925597 
L 400.158864 -47.925597 
L 400.458609 -47.925597 
L 400.758354 -47.925597 
L 401.058098 -47.925597 
L 401.357843 -47.925597 
L 401.657587 -47.925597 
L 401.957332 -47.925597 
L 402.257077 -47.925597 
L 402.556821 -47.925597 
L 402.856566 -47.925597 
L 403.156311 -47.925597 
L 403.456055 -47.925597 
L 403.7558 -47.925597 
L 404.055544 -47.925597 
L 404.355289 -47.925597 
L 404.655034 -47.925597 
L 404.954778 -47.925597 
L 405.254523 -47.925597 
L 405.554267 -47.925597 
L 405.854012 -47.925597 
L 406.153757 -47.925597 
L 406.453501 -47.925597 
L 406.753246 -47.925597 
L 407.05299 -47.925597 
L 407.352735 -47.925597 
L 407.65248 -47.925597 
L 407.952224 -47.925597 
L 408.251969 -47.925597 
L 408.551714 -47.925597 
L 408.851458 -47.925597 
L 409.151203 -47.925597 
L 409.450947 -47.925597 
L 409.750692 -47.925597 
L 410.050437 -47.925597 
L 410.350181 -47.925597 
L 410.649926 -47.925597 
L 410.94967 -47.925597 
L 411.249415 -47.925597 
L 411.54916 -47.925597 
L 411.848904 -47.925597 
L 412.148649 -47.925597 
L 412.448393 -47.925597 
L 412.748138 -47.925597 
L 413.047883 -47.925597 
L 413.347627 -47.925597 
L 413.647372 -47.925597 
L 413.947117 -47.925597 
L 414.246861 -47.925597 
L 414.546606 -47.925597 
L 414.84635 -47.925597 
L 415.146095 -47.925597 
L 415.44584 -47.925597 
L 415.745584 -47.925597 
L 416.045329 -47.925597 
L 416.345073 -47.925597 
L 416.644818 -47.925597 
L 416.944563 -47.925597 
L 417.244307 -47.925597 
L 417.544052 -47.925597 
L 417.843796 -47.925597 
L 418.143541 -47.925597 
L 418.443286 -47.925597 
L 418.74303 -47.925597 
L 419.042775 -47.925597 
L 419.34252 -47.925597 
L 419.642264 -47.925597 
L 419.942009 -47.925597 
L 420.241753 -47.925597 
L 420.541498 -47.925597 
L 420.841243 -47.925597 
L 421.140987 -47.925597 
L 421.440732 -47.925597 
L 421.740476 -47.925597 
L 422.040221 -47.925597 
L 422.339966 -47.925597 
L 422.63971 -47.925597 
L 422.939455 -47.925597 
L 423.239199 -47.925597 
L 423.538944 -47.925597 
L 423.838689 -47.925597 
L 424.138433 -47.925597 
L 424.438178 -47.925597 
L 424.737923 -47.925597 
L 425.037667 -47.925597 
L 425.337412 -47.925597 
L 425.637156 -47.925597 
L 425.936901 -47.925597 
L 426.236646 -47.925597 
L 426.53639 -47.925597 
L 426.836135 -47.925597 
L 427.135879 -47.925597 
L 427.435624 -47.925597 
L 427.735369 -47.925597 
L 428.035113 -47.925597 
L 428.334858 -47.925597 
L 428.634602 -47.925597 
L 428.934347 -47.925597 
L 429.234092 -47.925597 
L 429.533836 -47.925597 
L 429.833581 -47.925597 
L 430.133326 -47.925597 
L 430.43307 -47.925597 
L 430.732815 -47.925597 
L 431.032559 -47.925597 
L 431.332304 -47.925597 
L 431.632049 -47.925597 
L 431.931793 -47.925597 
L 432.231538 -47.925597 
L 432.531282 -47.925597 
L 432.831027 -47.925597 
L 433.130772 -47.925597 
L 433.430516 -47.925597 
L 433.730261 -47.925597 
L 434.030005 -47.925597 
L 434.32975 -47.925597 
L 434.629495 -47.925597 
L 434.929239 -47.925597 
L 435.228984 -47.925597 
L 435.528728 -47.925597 
L 435.828473 -47.925597 
L 436.128218 -47.925597 
L 436.427962 -47.925597 
L 436.727707 -47.925597 
L 437.027452 -47.925597 
L 437.327196 -47.925597 
L 437.626941 -47.925597 
L 437.926685 -47.925597 
L 438.22643 -47.925597 
L 438.526175 -47.925597 
L 438.825919 -47.925597 
L 439.125664 -47.925597 
L 439.425408 -47.925597 
L 439.725153 -47.925597 
L 440.024898 -47.925597 
L 440.324642 -47.925597 
L 440.624387 -47.925597 
L 440.924131 -47.925597 
L 441.223876 -47.925597 
L 441.523621 -47.925597 
L 441.823365 -47.925597 
L 442.12311 -47.925597 
L 442.422855 -47.925597 
L 442.722599 -47.925597 
L 443.022344 -47.925597 
L 443.322088 -47.925597 
L 443.621833 -47.925597 
L 443.921578 -47.925597 
L 444.221322 -47.925597 
L 444.521067 -47.925597 
L 444.820811 -47.925597 
L 445.120556 -47.925597 
L 445.420301 -47.925597 
L 445.720045 -47.925597 
L 446.01979 -47.925597 
L 446.319534 -47.925597 
L 446.619279 -47.925597 
L 446.919024 -47.925597 
L 447.218768 -47.925597 
L 447.518513 -47.925597 
L 447.818258 -47.925597 
L 448.118002 -47.925597 
L 448.417747 -47.925597 
L 448.717491 -47.925597 
L 449.017236 -47.925597 
L 449.316981 -47.925597 
L 449.616725 -47.925597 
L 449.91647 -47.925597 
L 450.216214 -47.925597 
L 450.515959 -47.925597 
L 450.815704 -47.925597 
L 451.115448 -47.925597 
L 451.415193 -47.925597 
L 451.714937 -47.925597 
L 452.014682 -47.925597 
L 452.314427 -47.925597 
L 452.614171 -47.925597 
L 452.913916 -47.925597 
L 453.213661 -47.925597 
L 453.513405 -47.925597 
L 453.81315 -47.925597 
L 454.112894 -47.925597 
L 454.412639 -47.925597 
L 454.712384 -47.925597 
L 455.012128 -47.925597 
L 455.311873 -47.925597 
L 455.611617 -47.925597 
L 455.911362 -47.925597 
L 456.211107 -47.925597 
L 456.510851 -47.925597 
L 456.810596 -47.925597 
L 457.11034 -47.925597 
L 457.410085 -47.925597 
L 457.70983 -47.925597 
L 458.009574 -47.925597 
L 458.309319 -47.925597 
L 458.609064 -47.925597 
L 458.908808 -47.925597 
L 459.208553 -47.925597 
L 459.508297 -47.925597 
L 459.808042 -47.925597 
L 460.107787 -47.925597 
L 460.407531 -47.925597 
L 460.707276 -47.925597 
L 461.00702 -47.925597 
L 461.306765 -47.925597 
L 461.60651 -47.925597 
L 461.906254 -47.925597 
L 462.205999 -47.925597 
L 462.505743 -47.925597 
L 462.805488 -47.925597 
L 463.105233 -47.925597 
L 463.404977 -47.925597 
L 463.704722 -47.925597 
L 464.004467 -47.925597 
L 464.304211 -47.925597 
L 464.603956 -47.925597 
L 464.9037 -47.925597 
L 465.203445 -47.925597 
L 465.50319 -47.925597 
L 465.802934 -47.925597 
L 466.102679 -47.925597 
L 466.402423 -47.925597 
L 466.702168 -47.925597 
L 467.001913 -47.925597 
L 467.301657 -47.925597 
L 467.601402 -47.925597 
L 467.901146 -47.925597 
L 468.200891 -47.925597 
L 468.500636 -47.925597 
L 468.80038 -47.925597 
L 469.100125 -47.925597 
L 469.399869 -47.925597 
L 469.699614 -47.925597 
L 469.999359 -47.925597 
L 470.299103 -47.925597 
L 470.598848 -47.925597 
L 470.898593 -47.925597 
L 471.198337 -47.925597 
L 471.498082 -47.925597 
L 471.797826 -47.925597 
L 472.097571 -47.925597 
L 472.397316 -47.925597 
L 472.69706 -47.925597 
L 472.996805 -47.925597 
L 473.296549 -47.925597 
L 473.596294 -47.925597 
L 473.896039 -47.925597 
L 474.195783 -47.925597 
L 474.495528 -47.925597 
L 474.795272 -47.925597 
L 475.095017 -47.925597 
L 475.394762 -47.925597 
L 475.694506 -47.925597 
L 475.994251 -47.925597 
L 476.293996 -47.925597 
L 476.59374 -47.925597 
L 476.893485 -47.925597 
L 477.193229 -47.925597 
L 477.492974 -47.925597 
L 477.792719 -47.925597 
L 478.092463 -47.925597 
L 478.392208 -47.925597 
L 478.691952 -47.925597 
L 478.991697 -47.925597 
L 479.291442 -47.925597 
L 479.591186 -47.925597 
L 479.890931 -47.925597 
L 480.190675 -47.925597 
L 480.49042 -47.925597 
L 480.790165 -47.925597 
L 481.089909 -47.925597 
L 481.389654 -47.925597 
L 481.689399 -47.925597 
L 481.989143 -47.925597 
L 482.288888 -47.925597 
L 482.588632 -47.925597 
L 482.888377 -47.925597 
L 483.188122 -47.925597 
L 483.487866 -47.925597 
L 483.787611 -47.925597 
L 484.087355 -47.925597 
L 484.3871 -47.925597 
L 484.686845 -47.925597 
L 484.986589 -47.925597 
L 485.286334 -47.925597 
L 485.586078 -47.925597 
L 485.885823 -47.925597 
L 486.185568 -47.925597 
L 486.485312 -47.925597 
L 486.785057 -47.925597 
L 487.084802 -47.925597 
L 487.384546 -47.925597 
L 487.684291 -47.925597 
L 487.984035 -47.925597 
L 488.28378 -47.925597 
L 488.583525 -47.925597 
L 488.883269 -47.925597 
L 489.183014 -47.925597 
L 489.482758 -47.925597 
L 489.782503 -47.925597 
L 490.082248 -47.925597 
L 490.381992 -47.925597 
L 490.681737 -47.925597 
L 490.981481 -47.925597 
L 491.281226 -47.925597 
L 491.580971 -47.925597 
L 491.880715 -47.925597 
L 492.18046 -47.925597 
L 492.480205 -47.925597 
L 492.779949 -47.925597 
L 493.079694 -47.925597 
L 493.379438 -47.925597 
L 493.679183 -47.925597 
L 493.978928 -47.925597 
L 494.278672 -47.925597 
L 494.578417 -47.925597 
L 494.878161 -47.925597 
L 495.177906 -47.925597 
L 495.477651 -47.925597 
L 495.777395 -47.925597 
L 496.07714 -47.925597 
L 496.376884 -47.925597 
L 496.676629 -47.925597 
L 496.976374 -47.925597 
L 497.276118 -47.925597 
L 497.575863 -47.925597 
L 497.875607 -47.925597 
L 498.175352 -47.925597 
L 498.475097 -47.925597 
L 498.774841 -47.925597 
L 499.074586 -47.925597 
L 499.374331 -47.925597 
L 499.674075 -47.925597 
L 499.97382 -47.925597 
L 500.273564 -47.925597 
L 500.573309 -47.925597 
L 500.873054 -47.925597 
L 501.172798 -47.925597 
L 501.472543 -47.925597 
L 501.772287 -47.925597 
L 502.072032 -47.925597 
L 502.371777 -47.925597 
L 502.671521 -47.925597 
L 502.971266 -47.925597 
L 503.27101 -47.925597 
L 503.570755 -47.925597 
L 503.8705 -47.925597 
L 504.170244 -47.925597 
L 504.469989 -47.925597 
L 504.769734 -47.925597 
L 505.069478 -47.925597 
L 505.369223 -47.925597 
L 505.668967 -47.925597 
L 505.968712 -47.925597 
L 506.268457 -47.925597 
L 506.568201 -47.925597 
L 506.867946 -47.925597 
L 507.16769 -47.925597 
L 507.467435 -47.925597 
L 507.76718 -47.925597 
L 508.066924 -47.925597 
L 508.366669 -47.925597 
L 508.666413 -47.925597 
L 508.966158 -47.925597 
L 509.265903 -47.925597 
L 509.565647 -47.925597 
L 509.865392 -47.925597 
L 510.165137 -47.925597 
L 510.464881 -47.925597 
L 510.764626 -47.925597 
L 511.06437 -47.925597 
L 511.364115 -47.925597 
L 511.66386 -47.925597 
L 511.963604 -47.925597 
L 512.263349 -47.925597 
L 512.563093 -47.925597 
L 512.862838 -47.925597 
L 513.162583 -47.925597 
L 513.462327 -47.925597 
L 513.762072 -47.925597 
L 514.061816 -47.925597 
L 514.361561 -47.925597 
L 514.661306 -47.925597 
L 514.96105 -47.925597 
L 515.260795 -47.925597 
L 515.56054 -47.925597 
L 515.860284 -47.925597 
L 516.160029 -47.925597 
L 516.459773 -47.925597 
L 516.759518 -47.925597 
L 517.059263 -47.925597 
L 517.359007 -47.925597 
L 517.658752 -47.925597 
L 517.958496 -47.925597 
L 518.258241 -47.925597 
L 518.557986 -47.925597 
L 518.85773 -47.925597 
L 519.157475 -47.925597 
L 519.457219 -47.925597 
L 519.756964 -47.925597 
L 520.056709 -47.925597 
L 520.356453 -47.925597 
L 520.656198 -47.925597 
L 520.955943 -47.925597 
L 521.255687 -47.925597 
L 521.555432 -47.925597 
L 521.855176 -47.925597 
L 522.154921 -47.925597 
L 522.454666 -47.925597 
L 522.75441 -47.925597 
L 523.054155 -47.925597 
L 523.353899 -47.925597 
L 523.653644 -47.925597 
L 523.953389 -47.925597 
L 524.253133 -47.925597 
L 524.552878 -47.925597 
L 524.852622 -47.925597 
L 525.152367 -47.925597 
L 525.452112 -47.925597 
L 525.751856 -47.925597 
L 526.051601 -47.925597 
L 526.351346 -47.925597 
L 526.65109 -47.925597 
L 526.950835 -47.925597 
L 527.250579 -47.925597 
L 527.550324 -47.925597 
L 527.850069 -47.925597 
L 528.149813 -47.925597 
L 528.449558 -47.925597 
L 528.749302 -47.925597 
L 529.049047 -47.925597 
L 529.348792 -47.925597 
L 529.648536 -47.925597 
L 529.948281 -47.925597 
L 530.248025 -47.925597 
L 530.54777 -47.925597 
L 530.847515 -47.925597 
L 531.147259 -47.925597 
L 531.447004 -47.925597 
L 531.746748 -47.925597 
L 532.046493 -47.925597 
L 532.346238 -47.925597 
L 532.645982 -47.925597 
L 532.945727 -47.925597 
L 533.245472 -47.925597 
L 533.545216 -47.925597 
L 533.844961 -47.925597 
L 534.144705 -47.925597 
L 534.44445 -47.925597 
L 534.744195 -47.925597 
L 535.043939 -47.925597 
L 535.343684 -47.925597 
L 535.643428 -47.925597 
L 535.943173 -47.925597 
L 536.242918 -47.925597 
L 536.542662 -47.925597 
L 536.842407 -47.925597 
L 537.142151 -47.925597 
L 537.441896 -47.925597 
L 537.741641 -47.925597 
L 538.041385 -47.925597 
L 538.34113 -47.925597 
L 538.640875 -47.925597 
L 538.940619 -47.925597 
L 539.240364 -47.925597 
L 539.540108 -47.925597 
L 539.839853 -47.925597 
L 540.139598 -47.925597 
L 540.439342 -47.925597 
L 540.739087 -47.925597 
L 541.038831 -47.925597 
L 541.338576 -47.925597 
L 541.638321 -47.925597 
L 541.938065 -47.925597 
L 542.23781 -47.925597 
L 542.537554 -47.925597 
L 542.837299 -47.925597 
L 543.137044 -47.925597 
L 543.436788 -47.925597 
L 543.736533 -47.925597 
L 544.036278 -47.925597 
L 544.336022 -47.925597 
L 544.635767 -47.925597 
L 544.935511 -47.925597 
L 544.935511 -47.925597 
L 544.935511 -49.675951 
L 544.635767 -49.709669 
L 544.336022 -49.743966 
L 544.036278 -49.778852 
L 543.736533 -49.814335 
L 543.436788 -49.850424 
L 543.137044 -49.887128 
L 542.837299 -49.924455 
L 542.537554 -49.962414 
L 542.23781 -50.001016 
L 541.938065 -50.040268 
L 541.638321 -50.08018 
L 541.338576 -50.120761 
L 541.038831 -50.162022 
L 540.739087 -50.203971 
L 540.439342 -50.246618 
L 540.139598 -50.289973 
L 539.839853 -50.334046 
L 539.540108 -50.378846 
L 539.240364 -50.424385 
L 538.940619 -50.470672 
L 538.640875 -50.517717 
L 538.34113 -50.565531 
L 538.041385 -50.614124 
L 537.741641 -50.663507 
L 537.441896 -50.713691 
L 537.142151 -50.764686 
L 536.842407 -50.816503 
L 536.542662 -50.869154 
L 536.242918 -50.922649 
L 535.943173 -50.976999 
L 535.643428 -51.032217 
L 535.343684 -51.088313 
L 535.043939 -51.145299 
L 534.744195 -51.203186 
L 534.44445 -51.261987 
L 534.144705 -51.321713 
L 533.844961 -51.382376 
L 533.545216 -51.443989 
L 533.245472 -51.506562 
L 532.945727 -51.57011 
L 532.645982 -51.634643 
L 532.346238 -51.700175 
L 532.046493 -51.766718 
L 531.746748 -51.834285 
L 531.447004 -51.902888 
L 531.147259 -51.972541 
L 530.847515 -52.043256 
L 530.54777 -52.115047 
L 530.248025 -52.187927 
L 529.948281 -52.261909 
L 529.648536 -52.337007 
L 529.348792 -52.413233 
L 529.049047 -52.490603 
L 528.749302 -52.569129 
L 528.449558 -52.648826 
L 528.149813 -52.729706 
L 527.850069 -52.811785 
L 527.550324 -52.895077 
L 527.250579 -52.979595 
L 526.950835 -53.065355 
L 526.65109 -53.15237 
L 526.351346 -53.240655 
L 526.051601 -53.330225 
L 525.751856 -53.421095 
L 525.452112 -53.513278 
L 525.152367 -53.606792 
L 524.852622 -53.701649 
L 524.552878 -53.797866 
L 524.253133 -53.895458 
L 523.953389 -53.99444 
L 523.653644 -54.094827 
L 523.353899 -54.196635 
L 523.054155 -54.29988 
L 522.75441 -54.404577 
L 522.454666 -54.510743 
L 522.154921 -54.618392 
L 521.855176 -54.727541 
L 521.555432 -54.838206 
L 521.255687 -54.950404 
L 520.955943 -55.06415 
L 520.656198 -55.17946 
L 520.356453 -55.296351 
L 520.056709 -55.414841 
L 519.756964 -55.534944 
L 519.457219 -55.656678 
L 519.157475 -55.780059 
L 518.85773 -55.905105 
L 518.557986 -56.031831 
L 518.258241 -56.160256 
L 517.958496 -56.290396 
L 517.658752 -56.422268 
L 517.359007 -56.55589 
L 517.059263 -56.691278 
L 516.759518 -56.828449 
L 516.459773 -56.967422 
L 516.160029 -57.108214 
L 515.860284 -57.250841 
L 515.56054 -57.395322 
L 515.260795 -57.541675 
L 514.96105 -57.689916 
L 514.661306 -57.840064 
L 514.361561 -57.992136 
L 514.061816 -58.14615 
L 513.762072 -58.302124 
L 513.462327 -58.460076 
L 513.162583 -58.620024 
L 512.862838 -58.781986 
L 512.563093 -58.94598 
L 512.263349 -59.112023 
L 511.963604 -59.280135 
L 511.66386 -59.450333 
L 511.364115 -59.622635 
L 511.06437 -59.79706 
L 510.764626 -59.973625 
L 510.464881 -60.15235 
L 510.165137 -60.333251 
L 509.865392 -60.516349 
L 509.565647 -60.70166 
L 509.265903 -60.889204 
L 508.966158 -61.078998 
L 508.666413 -61.271061 
L 508.366669 -61.465411 
L 508.066924 -61.662067 
L 507.76718 -61.861047 
L 507.467435 -62.062369 
L 507.16769 -62.266052 
L 506.867946 -62.472114 
L 506.568201 -62.680573 
L 506.268457 -62.891447 
L 505.968712 -63.104756 
L 505.668967 -63.320517 
L 505.369223 -63.538749 
L 505.069478 -63.759469 
L 504.769734 -63.982696 
L 504.469989 -64.208448 
L 504.170244 -64.436743 
L 503.8705 -64.6676 
L 503.570755 -64.901036 
L 503.27101 -65.13707 
L 502.971266 -65.375718 
L 502.671521 -65.617 
L 502.371777 -65.860933 
L 502.072032 -66.107535 
L 501.772287 -66.356824 
L 501.472543 -66.608817 
L 501.172798 -66.863532 
L 500.873054 -67.120986 
L 500.573309 -67.381196 
L 500.273564 -67.644181 
L 499.97382 -67.909958 
L 499.674075 -68.178543 
L 499.374331 -68.449954 
L 499.074586 -68.724207 
L 498.774841 -69.00132 
L 498.475097 -69.28131 
L 498.175352 -69.564193 
L 497.875607 -69.849985 
L 497.575863 -70.138703 
L 497.276118 -70.430364 
L 496.976374 -70.724983 
L 496.676629 -71.022577 
L 496.376884 -71.323162 
L 496.07714 -71.626753 
L 495.777395 -71.933366 
L 495.477651 -72.243017 
L 495.177906 -72.555721 
L 494.878161 -72.871493 
L 494.578417 -73.190349 
L 494.278672 -73.512303 
L 493.978928 -73.837369 
L 493.679183 -74.165563 
L 493.379438 -74.496899 
L 493.079694 -74.831391 
L 492.779949 -75.169053 
L 492.480205 -75.509899 
L 492.18046 -75.853943 
L 491.880715 -76.201197 
L 491.580971 -76.551676 
L 491.281226 -76.905392 
L 490.981481 -77.262358 
L 490.681737 -77.622586 
L 490.381992 -77.98609 
L 490.082248 -78.35288 
L 489.782503 -78.72297 
L 489.482758 -79.096371 
L 489.183014 -79.473093 
L 488.883269 -79.853149 
L 488.583525 -80.23655 
L 488.28378 -80.623305 
L 487.984035 -81.013426 
L 487.684291 -81.406922 
L 487.384546 -81.803805 
L 487.084802 -82.204082 
L 486.785057 -82.607764 
L 486.485312 -83.014859 
L 486.185568 -83.425377 
L 485.885823 -83.839325 
L 485.586078 -84.256713 
L 485.286334 -84.677548 
L 484.986589 -85.101837 
L 484.686845 -85.529588 
L 484.3871 -85.960808 
L 484.087355 -86.395503 
L 483.787611 -86.833681 
L 483.487866 -87.275346 
L 483.188122 -87.720504 
L 482.888377 -88.169161 
L 482.588632 -88.621322 
L 482.288888 -89.076991 
L 481.989143 -89.536173 
L 481.689399 -89.998872 
L 481.389654 -90.46509 
L 481.089909 -90.934832 
L 480.790165 -91.4081 
L 480.49042 -91.884897 
L 480.190675 -92.365224 
L 479.890931 -92.849084 
L 479.591186 -93.336477 
L 479.291442 -93.827405 
L 478.991697 -94.321867 
L 478.691952 -94.819865 
L 478.392208 -95.321398 
L 478.092463 -95.826465 
L 477.792719 -96.335065 
L 477.492974 -96.847196 
L 477.193229 -97.362857 
L 476.893485 -97.882045 
L 476.59374 -98.404757 
L 476.293996 -98.93099 
L 475.994251 -99.46074 
L 475.694506 -99.994004 
L 475.394762 -100.530776 
L 475.095017 -101.071051 
L 474.795272 -101.614825 
L 474.495528 -102.16209 
L 474.195783 -102.712841 
L 473.896039 -103.267071 
L 473.596294 -103.824772 
L 473.296549 -104.385936 
L 472.996805 -104.950556 
L 472.69706 -105.518622 
L 472.397316 -106.090125 
L 472.097571 -106.665056 
L 471.797826 -107.243403 
L 471.498082 -107.825157 
L 471.198337 -108.410306 
L 470.898593 -108.998838 
L 470.598848 -109.590741 
L 470.299103 -110.186003 
L 469.999359 -110.784609 
L 469.699614 -111.386547 
L 469.399869 -111.991801 
L 469.100125 -112.600358 
L 468.80038 -113.212201 
L 468.500636 -113.827315 
L 468.200891 -114.445684 
L 467.901146 -115.06729 
L 467.601402 -115.692116 
L 467.301657 -116.320145 
L 467.001913 -116.951357 
L 466.702168 -117.585733 
L 466.402423 -118.223255 
L 466.102679 -118.863901 
L 465.802934 -119.507651 
L 465.50319 -120.154484 
L 465.203445 -120.804378 
L 464.9037 -121.457311 
L 464.603956 -122.113259 
L 464.304211 -122.7722 
L 464.004467 -123.43411 
L 463.704722 -124.098963 
L 463.404977 -124.766735 
L 463.105233 -125.437401 
L 462.805488 -126.110933 
L 462.505743 -126.787305 
L 462.205999 -127.46649 
L 461.906254 -128.148461 
L 461.60651 -128.833187 
L 461.306765 -129.520642 
L 461.00702 -130.210794 
L 460.707276 -130.903614 
L 460.407531 -131.599071 
L 460.107787 -132.297134 
L 459.808042 -132.997771 
L 459.508297 -133.70095 
L 459.208553 -134.406638 
L 458.908808 -135.1148 
L 458.609064 -135.825404 
L 458.309319 -136.538415 
L 458.009574 -137.253797 
L 457.70983 -137.971515 
L 457.410085 -138.691532 
L 457.11034 -139.413812 
L 456.810596 -140.138317 
L 456.510851 -140.86501 
L 456.211107 -141.593851 
L 455.911362 -142.324801 
L 455.611617 -143.057822 
L 455.311873 -143.792873 
L 455.012128 -144.529913 
L 454.712384 -145.268902 
L 454.412639 -146.009796 
L 454.112894 -146.752555 
L 453.81315 -147.497134 
L 453.513405 -148.243492 
L 453.213661 -148.991583 
L 452.913916 -149.741363 
L 452.614171 -150.492789 
L 452.314427 -151.245813 
L 452.014682 -152.00039 
L 451.714937 -152.756473 
L 451.415193 -153.514016 
L 451.115448 -154.272971 
L 450.815704 -155.03329 
L 450.515959 -155.794924 
L 450.216214 -156.557825 
L 449.91647 -157.321942 
L 449.616725 -158.087226 
L 449.316981 -158.853626 
L 449.017236 -159.621091 
L 448.717491 -160.38957 
L 448.417747 -161.159011 
L 448.118002 -161.929362 
L 447.818258 -162.700569 
L 447.518513 -163.472579 
L 447.218768 -164.245339 
L 446.919024 -165.018794 
L 446.619279 -165.79289 
L 446.319534 -166.567571 
L 446.01979 -167.342782 
L 445.720045 -168.118467 
L 445.420301 -168.89457 
L 445.120556 -169.671033 
L 444.820811 -170.447801 
L 444.521067 -171.224814 
L 444.221322 -172.002016 
L 443.921578 -172.779347 
L 443.621833 -173.556749 
L 443.322088 -174.334163 
L 443.022344 -175.11153 
L 442.722599 -175.888789 
L 442.422855 -176.66588 
L 442.12311 -177.442742 
L 441.823365 -178.219316 
L 441.523621 -178.995539 
L 441.223876 -179.77135 
L 440.924131 -180.546687 
L 440.624387 -181.321489 
L 440.324642 -182.095691 
L 440.024898 -182.869232 
L 439.725153 -183.642049 
L 439.425408 -184.414078 
L 439.125664 -185.185255 
L 438.825919 -185.955517 
L 438.526175 -186.7248 
L 438.22643 -187.493039 
L 437.926685 -188.260169 
L 437.626941 -189.026126 
L 437.327196 -189.790844 
L 437.027452 -190.554259 
L 436.727707 -191.316304 
L 436.427962 -192.076915 
L 436.128218 -192.836024 
L 435.828473 -193.593567 
L 435.528728 -194.349477 
L 435.228984 -195.103688 
L 434.929239 -195.856132 
L 434.629495 -196.606744 
L 434.32975 -197.355457 
L 434.030005 -198.102203 
L 433.730261 -198.846916 
L 433.430516 -199.589528 
L 433.130772 -200.329973 
L 432.831027 -201.068183 
L 432.531282 -201.804091 
L 432.231538 -202.537629 
L 431.931793 -203.26873 
L 431.632049 -203.997326 
L 431.332304 -204.72335 
L 431.032559 -205.446734 
L 430.732815 -206.167411 
L 430.43307 -206.885313 
L 430.133326 -207.600372 
L 429.833581 -208.312522 
L 429.533836 -209.021694 
L 429.234092 -209.727821 
L 428.934347 -210.430836 
L 428.634602 -211.130671 
L 428.334858 -211.827258 
L 428.035113 -212.520532 
L 427.735369 -213.210425 
L 427.435624 -213.896869 
L 427.135879 -214.579798 
L 426.836135 -215.259145 
L 426.53639 -215.934844 
L 426.236646 -216.606828 
L 425.936901 -217.27503 
L 425.637156 -217.939386 
L 425.337412 -218.599827 
L 425.037667 -219.25629 
L 424.737923 -219.908708 
L 424.438178 -220.557017 
L 424.138433 -221.20115 
L 423.838689 -221.841043 
L 423.538944 -222.476632 
L 423.239199 -223.107852 
L 422.939455 -223.734638 
L 422.63971 -224.356928 
L 422.339966 -224.974657 
L 422.040221 -225.587763 
L 421.740476 -226.196182 
L 421.440732 -226.799852 
L 421.140987 -227.39871 
L 420.841243 -227.992695 
L 420.541498 -228.581745 
L 420.241753 -229.165799 
L 419.942009 -229.744796 
L 419.642264 -230.318675 
L 419.34252 -230.887376 
L 419.042775 -231.450841 
L 418.74303 -232.009008 
L 418.443286 -232.561821 
L 418.143541 -233.10922 
L 417.843796 -233.651147 
L 417.544052 -234.187545 
L 417.244307 -234.718357 
L 416.944563 -235.243526 
L 416.644818 -235.762997 
L 416.345073 -236.276714 
L 416.045329 -236.784621 
L 415.745584 -237.286665 
L 415.44584 -237.78279 
L 415.146095 -238.272945 
L 414.84635 -238.757075 
L 414.546606 -239.23513 
L 414.246861 -239.707055 
L 413.947117 -240.172802 
L 413.647372 -240.632318 
L 413.347627 -241.085554 
L 413.047883 -241.53246 
L 412.748138 -241.972988 
L 412.448393 -242.40709 
L 412.148649 -242.834717 
L 411.848904 -243.255823 
L 411.54916 -243.670362 
L 411.249415 -244.078288 
L 410.94967 -244.479555 
L 410.649926 -244.874121 
L 410.350181 -245.26194 
L 410.050437 -245.64297 
L 409.750692 -246.01717 
L 409.450947 -246.384496 
L 409.151203 -246.744909 
L 408.851458 -247.098369 
L 408.551714 -247.444835 
L 408.251969 -247.78427 
L 407.952224 -248.116635 
L 407.65248 -248.441893 
L 407.352735 -248.760008 
L 407.05299 -249.070944 
L 406.753246 -249.374667 
L 406.453501 -249.671142 
L 406.153757 -249.960335 
L 405.854012 -250.242215 
L 405.554267 -250.516749 
L 405.254523 -250.783907 
L 404.954778 -251.043658 
L 404.655034 -251.295974 
L 404.355289 -251.540825 
L 404.055544 -251.778184 
L 403.7558 -252.008023 
L 403.456055 -252.230318 
L 403.156311 -252.445043 
L 402.856566 -252.652172 
L 402.556821 -252.851684 
L 402.257077 -253.043555 
L 401.957332 -253.227763 
L 401.657587 -253.404287 
L 401.357843 -253.573108 
L 401.058098 -253.734206 
L 400.758354 -253.887562 
L 400.458609 -254.03316 
L 400.158864 -254.170982 
L 399.85912 -254.301013 
L 399.559375 -254.423239 
L 399.259631 -254.537644 
L 398.959886 -254.644216 
L 398.660141 -254.742943 
L 398.360397 -254.833813 
L 398.060652 -254.916817 
L 397.760908 -254.991944 
L 397.461163 -255.059186 
L 397.161418 -255.118535 
L 396.861674 -255.169985 
L 396.561929 -255.21353 
L 396.262185 -255.249164 
L 395.96244 -255.276883 
L 395.662695 -255.296685 
L 395.362951 -255.308568 
L 395.063206 -255.312528 
L 394.763461 -255.308568 
L 394.463717 -255.296685 
L 394.163972 -255.276883 
L 393.864228 -255.249164 
L 393.564483 -255.21353 
L 393.264738 -255.169985 
L 392.964994 -255.118535 
L 392.665249 -255.059186 
L 392.365505 -254.991944 
L 392.06576 -254.916817 
L 391.766015 -254.833813 
L 391.466271 -254.742943 
L 391.166526 -254.644216 
L 390.866782 -254.537644 
L 390.567037 -254.423239 
L 390.267292 -254.301013 
L 389.967548 -254.170982 
L 389.667803 -254.03316 
L 389.368058 -253.887562 
L 389.068314 -253.734206 
L 388.768569 -253.573108 
L 388.468825 -253.404287 
L 388.16908 -253.227763 
L 387.869335 -253.043555 
L 387.569591 -252.851684 
L 387.269846 -252.652172 
L 386.970102 -252.445043 
L 386.670357 -252.230318 
L 386.370612 -252.008023 
L 386.070868 -251.778184 
L 385.771123 -251.540825 
L 385.471379 -251.295974 
L 385.171634 -251.043658 
L 384.871889 -250.783907 
L 384.572145 -250.516749 
L 384.2724 -250.242215 
L 383.972655 -249.960335 
L 383.672911 -249.671142 
L 383.373166 -249.374667 
L 383.073422 -249.070944 
L 382.773677 -248.760008 
L 382.473932 -248.441893 
L 382.174188 -248.116635 
L 381.874443 -247.78427 
L 381.574699 -247.444835 
L 381.274954 -247.098369 
L 380.975209 -246.744909 
L 380.675465 -246.384496 
L 380.37572 -246.01717 
L 380.075976 -245.64297 
L 379.776231 -245.26194 
L 379.476486 -244.874121 
L 379.176742 -244.479555 
L 378.876997 -244.078288 
L 378.577252 -243.670362 
L 378.277508 -243.255823 
L 377.977763 -242.834717 
L 377.678019 -242.40709 
L 377.378274 -241.972988 
L 377.078529 -241.53246 
L 376.778785 -241.085554 
L 376.47904 -240.632318 
L 376.179296 -240.172802 
L 375.879551 -239.707055 
L 375.579806 -239.23513 
L 375.280062 -238.757075 
L 374.980317 -238.272945 
L 374.680573 -237.78279 
L 374.380828 -237.286665 
L 374.081083 -236.784621 
L 373.781339 -236.276714 
L 373.481594 -235.762997 
L 373.181849 -235.243526 
L 372.882105 -234.718357 
L 372.58236 -234.187545 
L 372.282616 -233.651147 
L 371.982871 -233.10922 
L 371.683126 -232.561821 
L 371.383382 -232.009008 
L 371.083637 -231.450841 
L 370.783893 -230.887376 
L 370.484148 -230.318675 
L 370.184403 -229.744796 
L 369.884659 -229.165799 
L 369.584914 -228.581745 
L 369.28517 -227.992695 
L 368.985425 -227.39871 
L 368.68568 -226.799852 
L 368.385936 -226.196182 
L 368.086191 -225.587763 
L 367.786446 -224.974657 
L 367.486702 -224.356928 
L 367.186957 -223.734638 
L 366.887213 -223.107852 
L 366.587468 -222.476632 
L 366.287723 -221.841043 
L 365.987979 -221.20115 
L 365.688234 -220.557017 
L 365.38849 -219.908708 
L 365.088745 -219.25629 
L 364.789 -218.599827 
L 364.489256 -217.939386 
L 364.189511 -217.27503 
L 363.889767 -216.606828 
L 363.590022 -215.934844 
L 363.290277 -215.259145 
L 362.990533 -214.579798 
L 362.690788 -213.896869 
L 362.391044 -213.210425 
L 362.091299 -212.520532 
L 361.791554 -211.827258 
L 361.49181 -211.130671 
L 361.192065 -210.430836 
L 360.89232 -209.727821 
L 360.592576 -209.021694 
z
" style="stroke: #ff7f0e; stroke-opacity: 0.1"/>
    </defs>
    <g clip-path="url(#pc903a3619c)">
     <use xlink:href="#me02672f536" x="0" y="288" style="fill: #ff7f0e; fill-opacity: 0.1; stroke: #ff7f0e; stroke-opacity: 0.1"/>
    </g>
   </g>
   <g id="matplotlib.axis_1">
    <g id="xtick_1">
     <g id="line2d_1">
      <path d="M 92.418089 250.44375 
L 92.418089 22.318125 
" clip-path="url(#pc903a3619c)" style="fill: none; stroke-dasharray: 2.96,1.28; stroke-dashoffset: 0; stroke: #b0b0b0; stroke-opacity: 0.8; stroke-width: 0.8"/>
     </g>
     <g id="line2d_2">
      <defs>
       <path id="md251009975" d="M 0 0 
L 0 3.5 
" style="stroke: #000000; stroke-width: 0.8"/>
      </defs>
      <g>
       <use xlink:href="#md251009975" x="92.418089" y="250.44375" style="stroke: #000000; stroke-width: 0.8"/>
      </g>
     </g>
     <g id="text_1">
      <!-- −3 -->
      <g transform="translate(85.046996 265.042188) scale(0.1 -0.1)">
       <defs>
        <path id="DejaVuSans-2212" d="M 678 2272 
L 4684 2272 
L 4684 1741 
L 678 1741 
L 678 2272 
z
" transform="scale(0.015625)"/>
        <path id="DejaVuSans-33" d="M 2597 2516 
Q 3050 2419 3304 2112 
Q 3559 1806 3559 1356 
Q 3559 666 3084 287 
Q 2609 -91 1734 -91 
Q 1441 -91 1130 -33 
Q 819 25 488 141 
L 488 750 
Q 750 597 1062 519 
Q 1375 441 1716 441 
Q 2309 441 2620 675 
Q 2931 909 2931 1356 
Q 2931 1769 2642 2001 
Q 2353 2234 1838 2234 
L 1294 2234 
L 1294 2753 
L 1863 2753 
Q 2328 2753 2575 2939 
Q 2822 3125 2822 3475 
Q 2822 3834 2567 4026 
Q 2313 4219 1838 4219 
Q 1578 4219 1281 4162 
Q 984 4106 628 3988 
L 628 4550 
Q 988 4650 1302 4700 
Q 1616 4750 1894 4750 
Q 2613 4750 3031 4423 
Q 3450 4097 3450 3541 
Q 3450 3153 3228 2886 
Q 3006 2619 2597 2516 
z
" transform="scale(0.015625)"/>
       </defs>
       <use xlink:href="#DejaVuSans-2212"/>
       <use xlink:href="#DejaVuSans-33" transform="translate(83.789062 0)"/>
      </g>
     </g>
    </g>
    <g id="xtick_2">
     <g id="line2d_3">
      <path d="M 161.005634 250.44375 
L 161.005634 22.318125 
" clip-path="url(#pc903a3619c)" style="fill: none; stroke-dasharray: 2.96,1.28; stroke-dashoffset: 0; stroke: #b0b0b0; stroke-opacity: 0.8; stroke-width: 0.8"/>
     </g>
     <g id="line2d_4">
      <g>
       <use xlink:href="#md251009975" x="161.005634" y="250.44375" style="stroke: #000000; stroke-width: 0.8"/>
      </g>
     </g>
     <g id="text_2">
      <!-- −2 -->
      <g transform="translate(153.634541 265.042188) scale(0.1 -0.1)">
       <defs>
        <path id="DejaVuSans-32" d="M 1228 531 
L 3431 531 
L 3431 0 
L 469 0 
L 469 531 
Q 828 903 1448 1529 
Q 2069 2156 2228 2338 
Q 2531 2678 2651 2914 
Q 2772 3150 2772 3378 
Q 2772 3750 2511 3984 
Q 2250 4219 1831 4219 
Q 1534 4219 1204 4116 
Q 875 4013 500 3803 
L 500 4441 
Q 881 4594 1212 4672 
Q 1544 4750 1819 4750 
Q 2544 4750 2975 4387 
Q 3406 4025 3406 3419 
Q 3406 3131 3298 2873 
Q 3191 2616 2906 2266 
Q 2828 2175 2409 1742 
Q 1991 1309 1228 531 
z
" transform="scale(0.015625)"/>
       </defs>
       <use xlink:href="#DejaVuSans-2212"/>
       <use xlink:href="#DejaVuSans-32" transform="translate(83.789062 0)"/>
      </g>
     </g>
    </g>
    <g id="xtick_3">
     <g id="line2d_5">
      <path d="M 229.593179 250.44375 
L 229.593179 22.318125 
" clip-path="url(#pc903a3619c)" style="fill: none; stroke-dasharray: 2.96,1.28; stroke-dashoffset: 0; stroke: #b0b0b0; stroke-opacity: 0.8; stroke-width: 0.8"/>
     </g>
     <g id="line2d_6">
      <g>
       <use xlink:href="#md251009975" x="229.593179" y="250.44375" style="stroke: #000000; stroke-width: 0.8"/>
      </g>
     </g>
     <g id="text_3">
      <!-- −1 -->
      <g transform="translate(222.222085 265.042188) scale(0.1 -0.1)">
       <defs>
        <path id="DejaVuSans-31" d="M 794 531 
L 1825 531 
L 1825 4091 
L 703 3866 
L 703 4441 
L 1819 4666 
L 2450 4666 
L 2450 531 
L 3481 531 
L 3481 0 
L 794 0 
L 794 531 
z
" transform="scale(0.015625)"/>
       </defs>
       <use xlink:href="#DejaVuSans-2212"/>
       <use xlink:href="#DejaVuSans-31" transform="translate(83.789062 0)"/>
      </g>
     </g>
    </g>
    <g id="xtick_4">
     <g id="line2d_7">
      <path d="M 298.180724 250.44375 
L 298.180724 22.318125 
" clip-path="url(#pc903a3619c)" style="fill: none; stroke-dasharray: 2.96,1.28; stroke-dashoffset: 0; stroke: #b0b0b0; stroke-opacity: 0.8; stroke-width: 0.8"/>
     </g>
     <g id="line2d_8">
      <g>
       <use xlink:href="#md251009975" x="298.180724" y="250.44375" style="stroke: #000000; stroke-width: 0.8"/>
      </g>
     </g>
     <g id="text_4">
      <!-- 0 -->
      <g transform="translate(294.999474 265.042188) scale(0.1 -0.1)">
       <defs>
        <path id="DejaVuSans-30" d="M 2034 4250 
Q 1547 4250 1301 3770 
Q 1056 3291 1056 2328 
Q 1056 1369 1301 889 
Q 1547 409 2034 409 
Q 2525 409 2770 889 
Q 3016 1369 3016 2328 
Q 3016 3291 2770 3770 
Q 2525 4250 2034 4250 
z
M 2034 4750 
Q 2819 4750 3233 4129 
Q 3647 3509 3647 2328 
Q 3647 1150 3233 529 
Q 2819 -91 2034 -91 
Q 1250 -91 836 529 
Q 422 1150 422 2328 
Q 422 3509 836 4129 
Q 1250 4750 2034 4750 
z
" transform="scale(0.015625)"/>
       </defs>
       <use xlink:href="#DejaVuSans-30"/>
      </g>
     </g>
    </g>
    <g id="xtick_5">
     <g id="line2d_9">
      <path d="M 366.768269 250.44375 
L 366.768269 22.318125 
" clip-path="url(#pc903a3619c)" style="fill: none; stroke-dasharray: 2.96,1.28; stroke-dashoffset: 0; stroke: #b0b0b0; stroke-opacity: 0.8; stroke-width: 0.8"/>
     </g>
     <g id="line2d_10">
      <g>
       <use xlink:href="#md251009975" x="366.768269" y="250.44375" style="stroke: #000000; stroke-width: 0.8"/>
      </g>
     </g>
     <g id="text_5">
      <!-- 1 -->
      <g transform="translate(363.587019 265.042188) scale(0.1 -0.1)">
       <use xlink:href="#DejaVuSans-31"/>
      </g>
     </g>
    </g>
    <g id="xtick_6">
     <g id="line2d_11">
      <path d="M 435.355814 250.44375 
L 435.355814 22.318125 
" clip-path="url(#pc903a3619c)" style="fill: none; stroke-dasharray: 2.96,1.28; stroke-dashoffset: 0; stroke: #b0b0b0; stroke-opacity: 0.8; stroke-width: 0.8"/>
     </g>
     <g id="line2d_12">
      <g>
       <use xlink:href="#md251009975" x="435.355814" y="250.44375" style="stroke: #000000; stroke-width: 0.8"/>
      </g>
     </g>
     <g id="text_6">
      <!-- 2 -->
      <g transform="translate(432.174564 265.042188) scale(0.1 -0.1)">
       <use xlink:href="#DejaVuSans-32"/>
      </g>
     </g>
    </g>
    <g id="xtick_7">
     <g id="line2d_13">
      <path d="M 503.943358 250.44375 
L 503.943358 22.318125 
" clip-path="url(#pc903a3619c)" style="fill: none; stroke-dasharray: 2.96,1.28; stroke-dashoffset: 0; stroke: #b0b0b0; stroke-opacity: 0.8; stroke-width: 0.8"/>
     </g>
     <g id="line2d_14">
      <g>
       <use xlink:href="#md251009975" x="503.943358" y="250.44375" style="stroke: #000000; stroke-width: 0.8"/>
      </g>
     </g>
     <g id="text_7">
      <!-- 3 -->
      <g transform="translate(500.762108 265.042188) scale(0.1 -0.1)">
       <use xlink:href="#DejaVuSans-33"/>
      </g>
     </g>
    </g>
    <g id="text_8">
     <!-- Test statistic, $T(x)$ -->
     <g transform="translate(261.190625 278.720312) scale(0.1 -0.1)">
      <defs>
       <path id="DejaVuSans-54" d="M -19 4666 
L 3928 4666 
L 3928 4134 
L 2272 4134 
L 2272 0 
L 1638 0 
L 1638 4134 
L -19 4134 
L -19 4666 
z
" transform="scale(0.015625)"/>
       <path id="DejaVuSans-65" d="M 3597 1894 
L 3597 1613 
L 953 1613 
Q 991 1019 1311 708 
Q 1631 397 2203 397 
Q 2534 397 2845 478 
Q 3156 559 3463 722 
L 3463 178 
Q 3153 47 2828 -22 
Q 2503 -91 2169 -91 
Q 1331 -91 842 396 
Q 353 884 353 1716 
Q 353 2575 817 3079 
Q 1281 3584 2069 3584 
Q 2775 3584 3186 3129 
Q 3597 2675 3597 1894 
z
M 3022 2063 
Q 3016 2534 2758 2815 
Q 2500 3097 2075 3097 
Q 1594 3097 1305 2825 
Q 1016 2553 972 2059 
L 3022 2063 
z
" transform="scale(0.015625)"/>
       <path id="DejaVuSans-73" d="M 2834 3397 
L 2834 2853 
Q 2591 2978 2328 3040 
Q 2066 3103 1784 3103 
Q 1356 3103 1142 2972 
Q 928 2841 928 2578 
Q 928 2378 1081 2264 
Q 1234 2150 1697 2047 
L 1894 2003 
Q 2506 1872 2764 1633 
Q 3022 1394 3022 966 
Q 3022 478 2636 193 
Q 2250 -91 1575 -91 
Q 1294 -91 989 -36 
Q 684 19 347 128 
L 347 722 
Q 666 556 975 473 
Q 1284 391 1588 391 
Q 1994 391 2212 530 
Q 2431 669 2431 922 
Q 2431 1156 2273 1281 
Q 2116 1406 1581 1522 
L 1381 1569 
Q 847 1681 609 1914 
Q 372 2147 372 2553 
Q 372 3047 722 3315 
Q 1072 3584 1716 3584 
Q 2034 3584 2315 3537 
Q 2597 3491 2834 3397 
z
" transform="scale(0.015625)"/>
       <path id="DejaVuSans-74" d="M 1172 4494 
L 1172 3500 
L 2356 3500 
L 2356 3053 
L 1172 3053 
L 1172 1153 
Q 1172 725 1289 603 
Q 1406 481 1766 481 
L 2356 481 
L 2356 0 
L 1766 0 
Q 1100 0 847 248 
Q 594 497 594 1153 
L 594 3053 
L 172 3053 
L 172 3500 
L 594 3500 
L 594 4494 
L 1172 4494 
z
" transform="scale(0.015625)"/>
       <path id="DejaVuSans-20" transform="scale(0.015625)"/>
       <path id="DejaVuSans-61" d="M 2194 1759 
Q 1497 1759 1228 1600 
Q 959 1441 959 1056 
Q 959 750 1161 570 
Q 1363 391 1709 391 
Q 2188 391 2477 730 
Q 2766 1069 2766 1631 
L 2766 1759 
L 2194 1759 
z
M 3341 1997 
L 3341 0 
L 2766 0 
L 2766 531 
Q 2569 213 2275 61 
Q 1981 -91 1556 -91 
Q 1019 -91 701 211 
Q 384 513 384 1019 
Q 384 1609 779 1909 
Q 1175 2209 1959 2209 
L 2766 2209 
L 2766 2266 
Q 2766 2663 2505 2880 
Q 2244 3097 1772 3097 
Q 1472 3097 1187 3025 
Q 903 2953 641 2809 
L 641 3341 
Q 956 3463 1253 3523 
Q 1550 3584 1831 3584 
Q 2591 3584 2966 3190 
Q 3341 2797 3341 1997 
z
" transform="scale(0.015625)"/>
       <path id="DejaVuSans-69" d="M 603 3500 
L 1178 3500 
L 1178 0 
L 603 0 
L 603 3500 
z
M 603 4863 
L 1178 4863 
L 1178 4134 
L 603 4134 
L 603 4863 
z
" transform="scale(0.015625)"/>
       <path id="DejaVuSans-63" d="M 3122 3366 
L 3122 2828 
Q 2878 2963 2633 3030 
Q 2388 3097 2138 3097 
Q 1578 3097 1268 2742 
Q 959 2388 959 1747 
Q 959 1106 1268 751 
Q 1578 397 2138 397 
Q 2388 397 2633 464 
Q 2878 531 3122 666 
L 3122 134 
Q 2881 22 2623 -34 
Q 2366 -91 2075 -91 
Q 1284 -91 818 406 
Q 353 903 353 1747 
Q 353 2603 823 3093 
Q 1294 3584 2113 3584 
Q 2378 3584 2631 3529 
Q 2884 3475 3122 3366 
z
" transform="scale(0.015625)"/>
       <path id="DejaVuSans-2c" d="M 750 794 
L 1409 794 
L 1409 256 
L 897 -744 
L 494 -744 
L 750 256 
L 750 794 
z
" transform="scale(0.015625)"/>
       <path id="DejaVuSans-Oblique-54" d="M 378 4666 
L 4325 4666 
L 4225 4134 
L 2559 4134 
L 1759 0 
L 1125 0 
L 1925 4134 
L 275 4134 
L 378 4666 
z
" transform="scale(0.015625)"/>
       <path id="DejaVuSans-28" d="M 1984 4856 
Q 1566 4138 1362 3434 
Q 1159 2731 1159 2009 
Q 1159 1288 1364 580 
Q 1569 -128 1984 -844 
L 1484 -844 
Q 1016 -109 783 600 
Q 550 1309 550 2009 
Q 550 2706 781 3412 
Q 1013 4119 1484 4856 
L 1984 4856 
z
" transform="scale(0.015625)"/>
       <path id="DejaVuSans-Oblique-78" d="M 3841 3500 
L 2234 1784 
L 3219 0 
L 2559 0 
L 1819 1388 
L 531 0 
L -166 0 
L 1556 1844 
L 641 3500 
L 1300 3500 
L 1972 2234 
L 3144 3500 
L 3841 3500 
z
" transform="scale(0.015625)"/>
       <path id="DejaVuSans-29" d="M 513 4856 
L 1013 4856 
Q 1481 4119 1714 3412 
Q 1947 2706 1947 2009 
Q 1947 1309 1714 600 
Q 1481 -109 1013 -844 
L 513 -844 
Q 928 -128 1133 580 
Q 1338 1288 1338 2009 
Q 1338 2731 1133 3434 
Q 928 4138 513 4856 
z
" transform="scale(0.015625)"/>
      </defs>
      <use xlink:href="#DejaVuSans-54" transform="translate(0 0.015625)"/>
      <use xlink:href="#DejaVuSans-65" transform="translate(61.083984 0.015625)"/>
      <use xlink:href="#DejaVuSans-73" transform="translate(122.607422 0.015625)"/>
      <use xlink:href="#DejaVuSans-74" transform="translate(174.707031 0.015625)"/>
      <use xlink:href="#DejaVuSans-20" transform="translate(213.916016 0.015625)"/>
      <use xlink:href="#DejaVuSans-73" transform="translate(245.703125 0.015625)"/>
      <use xlink:href="#DejaVuSans-74" transform="translate(297.802734 0.015625)"/>
      <use xlink:href="#DejaVuSans-61" transform="translate(337.011719 0.015625)"/>
      <use xlink:href="#DejaVuSans-74" transform="translate(398.291016 0.015625)"/>
      <use xlink:href="#DejaVuSans-69" transform="translate(437.5 0.015625)"/>
      <use xlink:href="#DejaVuSans-73" transform="translate(465.283203 0.015625)"/>
      <use xlink:href="#DejaVuSans-74" transform="translate(517.382812 0.015625)"/>
      <use xlink:href="#DejaVuSans-69" transform="translate(556.591797 0.015625)"/>
      <use xlink:href="#DejaVuSans-63" transform="translate(584.375 0.015625)"/>
      <use xlink:href="#DejaVuSans-2c" transform="translate(639.355469 0.015625)"/>
      <use xlink:href="#DejaVuSans-20" transform="translate(671.142578 0.015625)"/>
      <use xlink:href="#DejaVuSans-Oblique-54" transform="translate(702.929688 0.015625)"/>
      <use xlink:href="#DejaVuSans-28" transform="translate(764.013672 0.015625)"/>
      <use xlink:href="#DejaVuSans-Oblique-78" transform="translate(803.027344 0.015625)"/>
      <use xlink:href="#DejaVuSans-29" transform="translate(862.207031 0.015625)"/>
     </g>
    </g>
   </g>
   <g id="matplotlib.axis_2">
    <g id="ytick_1">
     <g id="line2d_15">
      <path d="M 43.78125 240.074403 
L 568.8 240.074403 
" clip-path="url(#pc903a3619c)" style="fill: none; stroke-dasharray: 2.96,1.28; stroke-dashoffset: 0; stroke: #b0b0b0; stroke-opacity: 0.8; stroke-width: 0.8"/>
     </g>
     <g id="line2d_16">
      <defs>
       <path id="mf4fb4c5374" d="M 0 0 
L -3.5 0 
" style="stroke: #000000; stroke-width: 0.8"/>
      </defs>
      <g>
       <use xlink:href="#mf4fb4c5374" x="43.78125" y="240.074403" style="stroke: #000000; stroke-width: 0.8"/>
      </g>
     </g>
     <g id="text_9">
      <!-- 0.0 -->
      <g transform="translate(20.878125 243.873622) scale(0.1 -0.1)">
       <defs>
        <path id="DejaVuSans-2e" d="M 684 794 
L 1344 794 
L 1344 0 
L 684 0 
L 684 794 
z
" transform="scale(0.015625)"/>
       </defs>
       <use xlink:href="#DejaVuSans-30"/>
       <use xlink:href="#DejaVuSans-2e" transform="translate(63.623047 0)"/>
       <use xlink:href="#DejaVuSans-30" transform="translate(95.410156 0)"/>
      </g>
     </g>
    </g>
    <g id="ytick_2">
     <g id="line2d_17">
      <path d="M 43.78125 203.316027 
L 568.8 203.316027 
" clip-path="url(#pc903a3619c)" style="fill: none; stroke-dasharray: 2.96,1.28; stroke-dashoffset: 0; stroke: #b0b0b0; stroke-opacity: 0.8; stroke-width: 0.8"/>
     </g>
     <g id="line2d_18">
      <g>
       <use xlink:href="#mf4fb4c5374" x="43.78125" y="203.316027" style="stroke: #000000; stroke-width: 0.8"/>
      </g>
     </g>
     <g id="text_10">
      <!-- 0.1 -->
      <g transform="translate(20.878125 207.115246) scale(0.1 -0.1)">
       <use xlink:href="#DejaVuSans-30"/>
       <use xlink:href="#DejaVuSans-2e" transform="translate(63.623047 0)"/>
       <use xlink:href="#DejaVuSans-31" transform="translate(95.410156 0)"/>
      </g>
     </g>
    </g>
    <g id="ytick_3">
     <g id="line2d_19">
      <path d="M 43.78125 166.55765 
L 568.8 166.55765 
" clip-path="url(#pc903a3619c)" style="fill: none; stroke-dasharray: 2.96,1.28; stroke-dashoffset: 0; stroke: #b0b0b0; stroke-opacity: 0.8; stroke-width: 0.8"/>
     </g>
     <g id="line2d_20">
      <g>
       <use xlink:href="#mf4fb4c5374" x="43.78125" y="166.55765" style="stroke: #000000; stroke-width: 0.8"/>
      </g>
     </g>
     <g id="text_11">
      <!-- 0.2 -->
      <g transform="translate(20.878125 170.356869) scale(0.1 -0.1)">
       <use xlink:href="#DejaVuSans-30"/>
       <use xlink:href="#DejaVuSans-2e" transform="translate(63.623047 0)"/>
       <use xlink:href="#DejaVuSans-32" transform="translate(95.410156 0)"/>
      </g>
     </g>
    </g>
    <g id="ytick_4">
     <g id="line2d_21">
      <path d="M 43.78125 129.799274 
L 568.8 129.799274 
" clip-path="url(#pc903a3619c)" style="fill: none; stroke-dasharray: 2.96,1.28; stroke-dashoffset: 0; stroke: #b0b0b0; stroke-opacity: 0.8; stroke-width: 0.8"/>
     </g>
     <g id="line2d_22">
      <g>
       <use xlink:href="#mf4fb4c5374" x="43.78125" y="129.799274" style="stroke: #000000; stroke-width: 0.8"/>
      </g>
     </g>
     <g id="text_12">
      <!-- 0.3 -->
      <g transform="translate(20.878125 133.598492) scale(0.1 -0.1)">
       <use xlink:href="#DejaVuSans-30"/>
       <use xlink:href="#DejaVuSans-2e" transform="translate(63.623047 0)"/>
       <use xlink:href="#DejaVuSans-33" transform="translate(95.410156 0)"/>
      </g>
     </g>
    </g>
    <g id="ytick_5">
     <g id="line2d_23">
      <path d="M 43.78125 93.040897 
L 568.8 93.040897 
" clip-path="url(#pc903a3619c)" style="fill: none; stroke-dasharray: 2.96,1.28; stroke-dashoffset: 0; stroke: #b0b0b0; stroke-opacity: 0.8; stroke-width: 0.8"/>
     </g>
     <g id="line2d_24">
      <g>
       <use xlink:href="#mf4fb4c5374" x="43.78125" y="93.040897" style="stroke: #000000; stroke-width: 0.8"/>
      </g>
     </g>
     <g id="text_13">
      <!-- 0.4 -->
      <g transform="translate(20.878125 96.840116) scale(0.1 -0.1)">
       <defs>
        <path id="DejaVuSans-34" d="M 2419 4116 
L 825 1625 
L 2419 1625 
L 2419 4116 
z
M 2253 4666 
L 3047 4666 
L 3047 1625 
L 3713 1625 
L 3713 1100 
L 3047 1100 
L 3047 0 
L 2419 0 
L 2419 1100 
L 313 1100 
L 313 1709 
L 2253 4666 
z
" transform="scale(0.015625)"/>
       </defs>
       <use xlink:href="#DejaVuSans-30"/>
       <use xlink:href="#DejaVuSans-2e" transform="translate(63.623047 0)"/>
       <use xlink:href="#DejaVuSans-34" transform="translate(95.410156 0)"/>
      </g>
     </g>
    </g>
    <g id="ytick_6">
     <g id="line2d_25">
      <path d="M 43.78125 56.28252 
L 568.8 56.28252 
" clip-path="url(#pc903a3619c)" style="fill: none; stroke-dasharray: 2.96,1.28; stroke-dashoffset: 0; stroke: #b0b0b0; stroke-opacity: 0.8; stroke-width: 0.8"/>
     </g>
     <g id="line2d_26">
      <g>
       <use xlink:href="#mf4fb4c5374" x="43.78125" y="56.28252" style="stroke: #000000; stroke-width: 0.8"/>
      </g>
     </g>
     <g id="text_14">
      <!-- 0.5 -->
      <g transform="translate(20.878125 60.081739) scale(0.1 -0.1)">
       <defs>
        <path id="DejaVuSans-35" d="M 691 4666 
L 3169 4666 
L 3169 4134 
L 1269 4134 
L 1269 2991 
Q 1406 3038 1543 3061 
Q 1681 3084 1819 3084 
Q 2600 3084 3056 2656 
Q 3513 2228 3513 1497 
Q 3513 744 3044 326 
Q 2575 -91 1722 -91 
Q 1428 -91 1123 -41 
Q 819 9 494 109 
L 494 744 
Q 775 591 1075 516 
Q 1375 441 1709 441 
Q 2250 441 2565 725 
Q 2881 1009 2881 1497 
Q 2881 1984 2565 2268 
Q 2250 2553 1709 2553 
Q 1456 2553 1204 2497 
Q 953 2441 691 2322 
L 691 4666 
z
" transform="scale(0.015625)"/>
       </defs>
       <use xlink:href="#DejaVuSans-30"/>
       <use xlink:href="#DejaVuSans-2e" transform="translate(63.623047 0)"/>
       <use xlink:href="#DejaVuSans-35" transform="translate(95.410156 0)"/>
      </g>
     </g>
    </g>
    <g id="text_15">
     <!-- Probability density -->
     <g transform="translate(14.798438 182.731719) rotate(-90) scale(0.1 -0.1)">
      <defs>
       <path id="DejaVuSans-50" d="M 1259 4147 
L 1259 2394 
L 2053 2394 
Q 2494 2394 2734 2622 
Q 2975 2850 2975 3272 
Q 2975 3691 2734 3919 
Q 2494 4147 2053 4147 
L 1259 4147 
z
M 628 4666 
L 2053 4666 
Q 2838 4666 3239 4311 
Q 3641 3956 3641 3272 
Q 3641 2581 3239 2228 
Q 2838 1875 2053 1875 
L 1259 1875 
L 1259 0 
L 628 0 
L 628 4666 
z
" transform="scale(0.015625)"/>
       <path id="DejaVuSans-72" d="M 2631 2963 
Q 2534 3019 2420 3045 
Q 2306 3072 2169 3072 
Q 1681 3072 1420 2755 
Q 1159 2438 1159 1844 
L 1159 0 
L 581 0 
L 581 3500 
L 1159 3500 
L 1159 2956 
Q 1341 3275 1631 3429 
Q 1922 3584 2338 3584 
Q 2397 3584 2469 3576 
Q 2541 3569 2628 3553 
L 2631 2963 
z
" transform="scale(0.015625)"/>
       <path id="DejaVuSans-6f" d="M 1959 3097 
Q 1497 3097 1228 2736 
Q 959 2375 959 1747 
Q 959 1119 1226 758 
Q 1494 397 1959 397 
Q 2419 397 2687 759 
Q 2956 1122 2956 1747 
Q 2956 2369 2687 2733 
Q 2419 3097 1959 3097 
z
M 1959 3584 
Q 2709 3584 3137 3096 
Q 3566 2609 3566 1747 
Q 3566 888 3137 398 
Q 2709 -91 1959 -91 
Q 1206 -91 779 398 
Q 353 888 353 1747 
Q 353 2609 779 3096 
Q 1206 3584 1959 3584 
z
" transform="scale(0.015625)"/>
       <path id="DejaVuSans-62" d="M 3116 1747 
Q 3116 2381 2855 2742 
Q 2594 3103 2138 3103 
Q 1681 3103 1420 2742 
Q 1159 2381 1159 1747 
Q 1159 1113 1420 752 
Q 1681 391 2138 391 
Q 2594 391 2855 752 
Q 3116 1113 3116 1747 
z
M 1159 2969 
Q 1341 3281 1617 3432 
Q 1894 3584 2278 3584 
Q 2916 3584 3314 3078 
Q 3713 2572 3713 1747 
Q 3713 922 3314 415 
Q 2916 -91 2278 -91 
Q 1894 -91 1617 61 
Q 1341 213 1159 525 
L 1159 0 
L 581 0 
L 581 4863 
L 1159 4863 
L 1159 2969 
z
" transform="scale(0.015625)"/>
       <path id="DejaVuSans-6c" d="M 603 4863 
L 1178 4863 
L 1178 0 
L 603 0 
L 603 4863 
z
" transform="scale(0.015625)"/>
       <path id="DejaVuSans-79" d="M 2059 -325 
Q 1816 -950 1584 -1140 
Q 1353 -1331 966 -1331 
L 506 -1331 
L 506 -850 
L 844 -850 
Q 1081 -850 1212 -737 
Q 1344 -625 1503 -206 
L 1606 56 
L 191 3500 
L 800 3500 
L 1894 763 
L 2988 3500 
L 3597 3500 
L 2059 -325 
z
" transform="scale(0.015625)"/>
       <path id="DejaVuSans-64" d="M 2906 2969 
L 2906 4863 
L 3481 4863 
L 3481 0 
L 2906 0 
L 2906 525 
Q 2725 213 2448 61 
Q 2172 -91 1784 -91 
Q 1150 -91 751 415 
Q 353 922 353 1747 
Q 353 2572 751 3078 
Q 1150 3584 1784 3584 
Q 2172 3584 2448 3432 
Q 2725 3281 2906 2969 
z
M 947 1747 
Q 947 1113 1208 752 
Q 1469 391 1925 391 
Q 2381 391 2643 752 
Q 2906 1113 2906 1747 
Q 2906 2381 2643 2742 
Q 2381 3103 1925 3103 
Q 1469 3103 1208 2742 
Q 947 2381 947 1747 
z
" transform="scale(0.015625)"/>
       <path id="DejaVuSans-6e" d="M 3513 2113 
L 3513 0 
L 2938 0 
L 2938 2094 
Q 2938 2591 2744 2837 
Q 2550 3084 2163 3084 
Q 1697 3084 1428 2787 
Q 1159 2491 1159 1978 
L 1159 0 
L 581 0 
L 581 3500 
L 1159 3500 
L 1159 2956 
Q 1366 3272 1645 3428 
Q 1925 3584 2291 3584 
Q 2894 3584 3203 3211 
Q 3513 2838 3513 2113 
z
" transform="scale(0.015625)"/>
      </defs>
      <use xlink:href="#DejaVuSans-50"/>
      <use xlink:href="#DejaVuSans-72" transform="translate(58.552734 0)"/>
      <use xlink:href="#DejaVuSans-6f" transform="translate(97.416016 0)"/>
      <use xlink:href="#DejaVuSans-62" transform="translate(158.597656 0)"/>
      <use xlink:href="#DejaVuSans-61" transform="translate(222.074219 0)"/>
      <use xlink:href="#DejaVuSans-62" transform="translate(283.353516 0)"/>
      <use xlink:href="#DejaVuSans-69" transform="translate(346.830078 0)"/>
      <use xlink:href="#DejaVuSans-6c" transform="translate(374.613281 0)"/>
      <use xlink:href="#DejaVuSans-69" transform="translate(402.396484 0)"/>
      <use xlink:href="#DejaVuSans-74" transform="translate(430.179688 0)"/>
      <use xlink:href="#DejaVuSans-79" transform="translate(469.388672 0)"/>
      <use xlink:href="#DejaVuSans-20" transform="translate(528.568359 0)"/>
      <use xlink:href="#DejaVuSans-64" transform="translate(560.355469 0)"/>
      <use xlink:href="#DejaVuSans-65" transform="translate(623.832031 0)"/>
      <use xlink:href="#DejaVuSans-6e" transform="translate(685.355469 0)"/>
      <use xlink:href="#DejaVuSans-73" transform="translate(748.734375 0)"/>
      <use xlink:href="#DejaVuSans-69" transform="translate(800.833984 0)"/>
      <use xlink:href="#DejaVuSans-74" transform="translate(828.617188 0)"/>
      <use xlink:href="#DejaVuSans-79" transform="translate(867.826172 0)"/>
     </g>
    </g>
   </g>
   <g id="line2d_27">
    <path d="M 67.645739 240.071831 
L 110.986316 239.953694 
L 125.740555 239.701495 
L 135.423024 239.330992 
L 143.261214 238.812266 
L 149.716193 238.160591 
L 155.249033 237.378269 
L 160.320803 236.425059 
L 164.931502 235.31432 
L 169.081132 234.074859 
L 172.769692 232.749771 
L 176.458252 231.183594 
L 179.685741 229.590654 
L 182.913231 227.766939 
L 186.140721 225.689821 
L 189.368211 223.336442 
L 192.595701 220.684102 
L 195.82319 217.710726 
L 199.05068 214.395376 
L 202.27817 210.71883 
L 205.50566 206.66419 
L 208.73315 202.217542 
L 211.960639 197.368627 
L 215.188129 192.111517 
L 218.415619 186.445283 
L 222.104179 179.47493 
L 225.792739 171.99356 
L 229.481298 164.029713 
L 233.630928 154.544966 
L 238.241628 143.445892 
L 243.774467 129.536383 
L 262.678336 81.431741 
L 266.827966 71.794728 
L 270.516526 63.824662 
L 273.744015 57.410598 
L 276.510435 52.390087 
L 279.276855 47.858017 
L 281.582205 44.48454 
L 283.887555 41.501042 
L 286.192905 38.927041 
L 288.037185 37.174193 
L 289.881464 35.701824 
L 291.725744 34.51624 
L 293.570024 33.622541 
L 295.414304 33.024583 
L 297.258584 32.724956 
L 298.641794 32.696843 
L 300.025004 32.837367 
L 301.869284 33.286402 
L 303.713564 34.032634 
L 305.557843 35.072837 
L 307.402123 36.402527 
L 309.246403 38.015997 
L 311.090683 39.906355 
L 313.396033 42.64634 
L 315.701383 45.788306 
L 318.006733 49.311786 
L 320.773152 54.011485 
L 323.539572 59.184916 
L 326.767062 65.757383 
L 329.994552 72.833336 
L 333.683112 81.431741 
L 338.293811 92.763915 
L 344.748791 109.283195 
L 356.27554 138.86937 
L 361.34731 151.272013 
L 365.95801 161.967868 
L 370.107639 171.023748 
L 373.796199 178.567234 
L 377.484759 185.602622 
L 380.712249 191.327057 
L 383.939738 196.642682 
L 387.167228 201.549657 
L 390.394718 206.053237 
L 393.622208 210.163104 
L 396.849698 213.892692 
L 400.077187 217.258511 
L 403.304677 220.279492 
L 406.532167 222.976364 
L 409.759657 225.371072 
L 412.987147 227.486255 
L 416.214636 229.344776 
L 419.442126 230.969316 
L 423.130686 232.567814 
L 426.819246 233.921372 
L 430.968875 235.18857 
L 435.118505 236.223091 
L 439.729205 237.143045 
L 444.800975 237.925873 
L 450.794884 238.606969 
L 457.710934 239.147022 
L 466.010193 239.553879 
L 476.614803 239.835928 
L 492.291182 240.005493 
L 523.64394 240.070198 
L 528.715709 240.071831 
L 528.715709 240.071831 
" clip-path="url(#pc903a3619c)" style="fill: none; stroke: #1f77b4; stroke-linecap: square"/>
   </g>
   <g id="line2d_28">
    <path d="M 360.334332 250.44375 
L 360.334332 22.318125 
" clip-path="url(#pc903a3619c)" style="fill: none; stroke-dasharray: 3.7,1.6; stroke-dashoffset: 0; stroke: #000000"/>
   </g>
   <g id="line2d_29">
    <path d="M 245.190901 238.324049 
L 250.886048 237.575615 
L 255.981707 236.678287 
L 260.477876 235.662993 
L 264.6743 234.486722 
L 268.57098 233.161794 
L 272.167916 231.709604 
L 275.764851 230.007864 
L 279.062042 228.20294 
L 282.359232 226.138953 
L 285.656423 223.791552 
L 288.653869 221.391183 
L 291.651315 218.71869 
L 294.648762 215.756983 
L 297.646208 212.490101 
L 300.643654 208.903629 
L 303.6411 204.985141 
L 306.638546 200.724654 
L 309.935737 195.634776 
L 313.232927 190.117955 
L 316.530118 184.175228 
L 320.127053 177.215391 
L 323.723989 169.776745 
L 327.620669 161.212695 
L 331.817093 151.461585 
L 336.613007 139.756508 
L 342.907644 123.754661 
L 357.295385 86.931817 
L 361.791554 76.172742 
L 365.38849 68.091292 
L 368.68568 61.200148 
L 371.683126 55.438179 
L 374.380828 50.713335 
L 376.778785 46.914446 
L 379.176742 43.520445 
L 381.274954 40.901631 
L 383.373166 38.625333 
L 385.471379 36.704026 
L 387.269846 35.347828 
L 389.068314 34.265794 
L 390.866782 33.462356 
L 392.665249 32.940814 
L 394.163972 32.723117 
L 395.662695 32.703315 
L 397.161418 32.881465 
L 398.660141 33.257057 
L 400.158864 33.829018 
L 401.957332 34.772237 
L 403.7558 35.991977 
L 405.554267 37.483251 
L 407.352735 39.239992 
L 409.450947 41.615504 
L 411.54916 44.329638 
L 413.947117 47.827198 
L 416.345073 51.723286 
L 419.042775 56.549159 
L 422.040221 62.412237 
L 425.337412 69.400173 
L 428.934347 77.569164 
L 433.130772 87.670027 
L 438.526175 101.2752 
L 456.510851 147.13499 
L 461.306765 158.479358 
L 465.50319 167.845516 
L 469.399869 176.008199 
L 472.996805 183.049444 
L 476.59374 189.595243 
L 479.890931 195.150916 
L 483.188122 200.279496 
L 486.485312 204.985141 
L 489.782503 209.27703 
L 492.779949 212.830947 
L 495.777395 216.066634 
L 498.774841 218.99868 
L 501.772287 221.643176 
L 504.769734 224.017304 
L 508.066924 226.337933 
L 511.364115 228.377365 
L 514.661306 230.159936 
L 518.258241 231.839744 
L 521.855176 233.272459 
L 525.751856 234.578905 
L 529.948281 235.738091 
L 534.44445 236.738013 
L 539.240364 237.575615 
L 544.635767 238.290331 
L 544.935511 238.324049 
L 544.935511 238.324049 
" clip-path="url(#pc903a3619c)" style="fill: none; stroke: #ff7f0e; stroke-linecap: square"/>
   </g>
   <g id="line2d_30">
    <path d="M 360.334332 250.44375 
L 360.334332 22.318125 
" clip-path="url(#pc903a3619c)" style="fill: none; stroke-dasharray: 3.7,1.6; stroke-dashoffset: 0; stroke: #000000"/>
   </g>
   <g id="patch_3">
    <path d="M 43.78125 250.44375 
L 43.78125 22.318125 
" style="fill: none; stroke: #000000; stroke-width: 0.8; stroke-linejoin: miter; stroke-linecap: square"/>
   </g>
   <g id="patch_4">
    <path d="M 568.8 250.44375 
L 568.8 22.318125 
" style="fill: none; stroke: #000000; stroke-width: 0.8; stroke-linejoin: miter; stroke-linecap: square"/>
   </g>
   <g id="patch_5">
    <path d="M 43.78125 250.44375 
L 568.8 250.44375 
" style="fill: none; stroke: #000000; stroke-width: 0.8; stroke-linejoin: miter; stroke-linecap: square"/>
   </g>
   <g id="patch_6">
    <path d="M 43.78125 22.318125 
L 568.8 22.318125 
" style="fill: none; stroke: #000000; stroke-width: 0.8; stroke-linejoin: miter; stroke-linecap: square"/>
   </g>
   <g id="text_16">
    <!-- $P_{fa} = $ 1.00e-01 -->
    <g style="fill: #1f77b4" transform="translate(341.304016 216.026662) scale(0.1 -0.1)">
     <defs>
      <path id="DejaVuSans-Oblique-50" d="M 1081 4666 
L 2541 4666 
Q 3178 4666 3512 4369 
Q 3847 4072 3847 3500 
Q 3847 2731 3353 2303 
Q 2859 1875 1966 1875 
L 1172 1875 
L 806 0 
L 172 0 
L 1081 4666 
z
M 1613 4147 
L 1275 2394 
L 2069 2394 
Q 2606 2394 2893 2669 
Q 3181 2944 3181 3456 
Q 3181 3784 2986 3965 
Q 2791 4147 2438 4147 
L 1613 4147 
z
" transform="scale(0.015625)"/>
      <path id="DejaVuSans-Oblique-66" d="M 3059 4863 
L 2969 4384 
L 2419 4384 
Q 2106 4384 1964 4261 
Q 1822 4138 1753 3809 
L 1691 3500 
L 2638 3500 
L 2553 3053 
L 1606 3053 
L 1013 0 
L 434 0 
L 1031 3053 
L 481 3053 
L 563 3500 
L 1113 3500 
L 1159 3744 
Q 1278 4363 1576 4613 
Q 1875 4863 2516 4863 
L 3059 4863 
z
" transform="scale(0.015625)"/>
      <path id="DejaVuSans-Oblique-61" d="M 3438 1997 
L 3047 0 
L 2472 0 
L 2578 531 
Q 2325 219 2001 64 
Q 1678 -91 1281 -91 
Q 834 -91 548 182 
Q 263 456 263 884 
Q 263 1497 752 1853 
Q 1241 2209 2100 2209 
L 2900 2209 
L 2931 2363 
Q 2938 2388 2941 2417 
Q 2944 2447 2944 2509 
Q 2944 2788 2717 2942 
Q 2491 3097 2081 3097 
Q 1800 3097 1504 3025 
Q 1209 2953 897 2809 
L 997 3341 
Q 1322 3463 1633 3523 
Q 1944 3584 2234 3584 
Q 2853 3584 3176 3315 
Q 3500 3047 3500 2534 
Q 3500 2431 3484 2292 
Q 3469 2153 3438 1997 
z
M 2816 1759 
L 2241 1759 
Q 1534 1759 1195 1570 
Q 856 1381 856 984 
Q 856 709 1029 553 
Q 1203 397 1509 397 
Q 1978 397 2328 733 
Q 2678 1069 2791 1631 
L 2816 1759 
z
" transform="scale(0.015625)"/>
      <path id="DejaVuSans-3d" d="M 678 2906 
L 4684 2906 
L 4684 2381 
L 678 2381 
L 678 2906 
z
M 678 1631 
L 4684 1631 
L 4684 1100 
L 678 1100 
L 678 1631 
z
" transform="scale(0.015625)"/>
      <path id="DejaVuSans-2d" d="M 313 2009 
L 1997 2009 
L 1997 1497 
L 313 1497 
L 313 2009 
z
" transform="scale(0.015625)"/>
     </defs>
     <use xlink:href="#DejaVuSans-Oblique-50" transform="translate(0 0.78125)"/>
     <use xlink:href="#DejaVuSans-Oblique-66" transform="translate(60.302734 -15.625) scale(0.7)"/>
     <use xlink:href="#DejaVuSans-Oblique-61" transform="translate(84.946289 -15.625) scale(0.7)"/>
     <use xlink:href="#DejaVuSans-3d" transform="translate(150.058594 0.78125)"/>
     <use xlink:href="#DejaVuSans-20" transform="translate(253.330078 0.78125)"/>
     <use xlink:href="#DejaVuSans-31" transform="translate(285.117188 0.78125)"/>
     <use xlink:href="#DejaVuSans-2e" transform="translate(348.740234 0.78125)"/>
     <use xlink:href="#DejaVuSans-30" transform="translate(380.527344 0.78125)"/>
     <use xlink:href="#DejaVuSans-30" transform="translate(444.150391 0.78125)"/>
     <use xlink:href="#DejaVuSans-65" transform="translate(507.773438 0.78125)"/>
     <use xlink:href="#DejaVuSans-2d" transform="translate(569.296875 0.78125)"/>
     <use xlink:href="#DejaVuSans-30" transform="translate(605.380859 0.78125)"/>
     <use xlink:href="#DejaVuSans-31" transform="translate(669.003906 0.78125)"/>
    </g>
   </g>
   <g id="text_17">
    <!-- $P_{d} = $ 7.63e-01 -->
    <g style="fill: #ff7f0e" transform="translate(374.185874 143.747984) scale(0.1 -0.1)">
     <defs>
      <path id="DejaVuSans-Oblique-64" d="M 2675 525 
Q 2444 222 2128 65 
Q 1813 -91 1428 -91 
Q 903 -91 598 267 
Q 294 625 294 1247 
Q 294 1766 478 2236 
Q 663 2706 1013 3078 
Q 1244 3325 1534 3454 
Q 1825 3584 2144 3584 
Q 2481 3584 2739 3421 
Q 2997 3259 3138 2956 
L 3513 4863 
L 4091 4863 
L 3144 0 
L 2566 0 
L 2675 525 
z
M 891 1350 
Q 891 897 1095 644 
Q 1300 391 1663 391 
Q 1931 391 2161 520 
Q 2391 650 2566 903 
Q 2750 1166 2856 1509 
Q 2963 1853 2963 2188 
Q 2963 2622 2758 2865 
Q 2553 3109 2194 3109 
Q 1922 3109 1687 2981 
Q 1453 2853 1288 2613 
Q 1106 2353 998 2009 
Q 891 1666 891 1350 
z
" transform="scale(0.015625)"/>
      <path id="DejaVuSans-37" d="M 525 4666 
L 3525 4666 
L 3525 4397 
L 1831 0 
L 1172 0 
L 2766 4134 
L 525 4134 
L 525 4666 
z
" transform="scale(0.015625)"/>
      <path id="DejaVuSans-36" d="M 2113 2584 
Q 1688 2584 1439 2293 
Q 1191 2003 1191 1497 
Q 1191 994 1439 701 
Q 1688 409 2113 409 
Q 2538 409 2786 701 
Q 3034 994 3034 1497 
Q 3034 2003 2786 2293 
Q 2538 2584 2113 2584 
z
M 3366 4563 
L 3366 3988 
Q 3128 4100 2886 4159 
Q 2644 4219 2406 4219 
Q 1781 4219 1451 3797 
Q 1122 3375 1075 2522 
Q 1259 2794 1537 2939 
Q 1816 3084 2150 3084 
Q 2853 3084 3261 2657 
Q 3669 2231 3669 1497 
Q 3669 778 3244 343 
Q 2819 -91 2113 -91 
Q 1303 -91 875 529 
Q 447 1150 447 2328 
Q 447 3434 972 4092 
Q 1497 4750 2381 4750 
Q 2619 4750 2861 4703 
Q 3103 4656 3366 4563 
z
" transform="scale(0.015625)"/>
     </defs>
     <use xlink:href="#DejaVuSans-Oblique-50" transform="translate(0 0.78125)"/>
     <use xlink:href="#DejaVuSans-Oblique-64" transform="translate(60.302734 -15.625) scale(0.7)"/>
     <use xlink:href="#DejaVuSans-3d" transform="translate(126.953125 0.78125)"/>
     <use xlink:href="#DejaVuSans-20" transform="translate(230.224609 0.78125)"/>
     <use xlink:href="#DejaVuSans-37" transform="translate(262.011719 0.78125)"/>
     <use xlink:href="#DejaVuSans-2e" transform="translate(325.634766 0.78125)"/>
     <use xlink:href="#DejaVuSans-36" transform="translate(357.421875 0.78125)"/>
     <use xlink:href="#DejaVuSans-33" transform="translate(421.044922 0.78125)"/>
     <use xlink:href="#DejaVuSans-65" transform="translate(484.667969 0.78125)"/>
     <use xlink:href="#DejaVuSans-2d" transform="translate(546.191406 0.78125)"/>
     <use xlink:href="#DejaVuSans-30" transform="translate(582.275391 0.78125)"/>
     <use xlink:href="#DejaVuSans-31" transform="translate(645.898438 0.78125)"/>
    </g>
   </g>
   <g id="text_18">
    <!-- Coherent Detector: Probability density functions -->
    <g transform="translate(161.719688 16.318125) scale(0.12 -0.12)">
     <defs>
      <path id="DejaVuSans-43" d="M 4122 4306 
L 4122 3641 
Q 3803 3938 3442 4084 
Q 3081 4231 2675 4231 
Q 1875 4231 1450 3742 
Q 1025 3253 1025 2328 
Q 1025 1406 1450 917 
Q 1875 428 2675 428 
Q 3081 428 3442 575 
Q 3803 722 4122 1019 
L 4122 359 
Q 3791 134 3420 21 
Q 3050 -91 2638 -91 
Q 1578 -91 968 557 
Q 359 1206 359 2328 
Q 359 3453 968 4101 
Q 1578 4750 2638 4750 
Q 3056 4750 3426 4639 
Q 3797 4528 4122 4306 
z
" transform="scale(0.015625)"/>
      <path id="DejaVuSans-68" d="M 3513 2113 
L 3513 0 
L 2938 0 
L 2938 2094 
Q 2938 2591 2744 2837 
Q 2550 3084 2163 3084 
Q 1697 3084 1428 2787 
Q 1159 2491 1159 1978 
L 1159 0 
L 581 0 
L 581 4863 
L 1159 4863 
L 1159 2956 
Q 1366 3272 1645 3428 
Q 1925 3584 2291 3584 
Q 2894 3584 3203 3211 
Q 3513 2838 3513 2113 
z
" transform="scale(0.015625)"/>
      <path id="DejaVuSans-44" d="M 1259 4147 
L 1259 519 
L 2022 519 
Q 2988 519 3436 956 
Q 3884 1394 3884 2338 
Q 3884 3275 3436 3711 
Q 2988 4147 2022 4147 
L 1259 4147 
z
M 628 4666 
L 1925 4666 
Q 3281 4666 3915 4102 
Q 4550 3538 4550 2338 
Q 4550 1131 3912 565 
Q 3275 0 1925 0 
L 628 0 
L 628 4666 
z
" transform="scale(0.015625)"/>
      <path id="DejaVuSans-3a" d="M 750 794 
L 1409 794 
L 1409 0 
L 750 0 
L 750 794 
z
M 750 3309 
L 1409 3309 
L 1409 2516 
L 750 2516 
L 750 3309 
z
" transform="scale(0.015625)"/>
      <path id="DejaVuSans-66" d="M 2375 4863 
L 2375 4384 
L 1825 4384 
Q 1516 4384 1395 4259 
Q 1275 4134 1275 3809 
L 1275 3500 
L 2222 3500 
L 2222 3053 
L 1275 3053 
L 1275 0 
L 697 0 
L 697 3053 
L 147 3053 
L 147 3500 
L 697 3500 
L 697 3744 
Q 697 4328 969 4595 
Q 1241 4863 1831 4863 
L 2375 4863 
z
" transform="scale(0.015625)"/>
      <path id="DejaVuSans-75" d="M 544 1381 
L 544 3500 
L 1119 3500 
L 1119 1403 
Q 1119 906 1312 657 
Q 1506 409 1894 409 
Q 2359 409 2629 706 
Q 2900 1003 2900 1516 
L 2900 3500 
L 3475 3500 
L 3475 0 
L 2900 0 
L 2900 538 
Q 2691 219 2414 64 
Q 2138 -91 1772 -91 
Q 1169 -91 856 284 
Q 544 659 544 1381 
z
M 1991 3584 
L 1991 3584 
z
" transform="scale(0.015625)"/>
     </defs>
     <use xlink:href="#DejaVuSans-43"/>
     <use xlink:href="#DejaVuSans-6f" transform="translate(69.824219 0)"/>
     <use xlink:href="#DejaVuSans-68" transform="translate(131.005859 0)"/>
     <use xlink:href="#DejaVuSans-65" transform="translate(194.384766 0)"/>
     <use xlink:href="#DejaVuSans-72" transform="translate(255.908203 0)"/>
     <use xlink:href="#DejaVuSans-65" transform="translate(294.771484 0)"/>
     <use xlink:href="#DejaVuSans-6e" transform="translate(356.294922 0)"/>
     <use xlink:href="#DejaVuSans-74" transform="translate(419.673828 0)"/>
     <use xlink:href="#DejaVuSans-20" transform="translate(458.882812 0)"/>
     <use xlink:href="#DejaVuSans-44" transform="translate(490.669922 0)"/>
     <use xlink:href="#DejaVuSans-65" transform="translate(567.671875 0)"/>
     <use xlink:href="#DejaVuSans-74" transform="translate(629.195312 0)"/>
     <use xlink:href="#DejaVuSans-65" transform="translate(668.404297 0)"/>
     <use xlink:href="#DejaVuSans-63" transform="translate(729.927734 0)"/>
     <use xlink:href="#DejaVuSans-74" transform="translate(784.908203 0)"/>
     <use xlink:href="#DejaVuSans-6f" transform="translate(824.117188 0)"/>
     <use xlink:href="#DejaVuSans-72" transform="translate(885.298828 0)"/>
     <use xlink:href="#DejaVuSans-3a" transform="translate(924.662109 0)"/>
     <use xlink:href="#DejaVuSans-20" transform="translate(958.353516 0)"/>
     <use xlink:href="#DejaVuSans-50" transform="translate(990.140625 0)"/>
     <use xlink:href="#DejaVuSans-72" transform="translate(1048.693359 0)"/>
     <use xlink:href="#DejaVuSans-6f" transform="translate(1087.556641 0)"/>
     <use xlink:href="#DejaVuSans-62" transform="translate(1148.738281 0)"/>
     <use xlink:href="#DejaVuSans-61" transform="translate(1212.214844 0)"/>
     <use xlink:href="#DejaVuSans-62" transform="translate(1273.494141 0)"/>
     <use xlink:href="#DejaVuSans-69" transform="translate(1336.970703 0)"/>
     <use xlink:href="#DejaVuSans-6c" transform="translate(1364.753906 0)"/>
     <use xlink:href="#DejaVuSans-69" transform="translate(1392.537109 0)"/>
     <use xlink:href="#DejaVuSans-74" transform="translate(1420.320312 0)"/>
     <use xlink:href="#DejaVuSans-79" transform="translate(1459.529297 0)"/>
     <use xlink:href="#DejaVuSans-20" transform="translate(1518.708984 0)"/>
     <use xlink:href="#DejaVuSans-64" transform="translate(1550.496094 0)"/>
     <use xlink:href="#DejaVuSans-65" transform="translate(1613.972656 0)"/>
     <use xlink:href="#DejaVuSans-6e" transform="translate(1675.496094 0)"/>
     <use xlink:href="#DejaVuSans-73" transform="translate(1738.875 0)"/>
     <use xlink:href="#DejaVuSans-69" transform="translate(1790.974609 0)"/>
     <use xlink:href="#DejaVuSans-74" transform="translate(1818.757812 0)"/>
     <use xlink:href="#DejaVuSans-79" transform="translate(1857.966797 0)"/>
     <use xlink:href="#DejaVuSans-20" transform="translate(1917.146484 0)"/>
     <use xlink:href="#DejaVuSans-66" transform="translate(1948.933594 0)"/>
     <use xlink:href="#DejaVuSans-75" transform="translate(1984.138672 0)"/>
     <use xlink:href="#DejaVuSans-6e" transform="translate(2047.517578 0)"/>
     <use xlink:href="#DejaVuSans-63" transform="translate(2110.896484 0)"/>
     <use xlink:href="#DejaVuSans-74" transform="translate(2165.876953 0)"/>
     <use xlink:href="#DejaVuSans-69" transform="translate(2205.085938 0)"/>
     <use xlink:href="#DejaVuSans-6f" transform="translate(2232.869141 0)"/>
     <use xlink:href="#DejaVuSans-6e" transform="translate(2294.050781 0)"/>
     <use xlink:href="#DejaVuSans-73" transform="translate(2357.429688 0)"/>
    </g>
   </g>
   <g id="legend_1">
    <g id="patch_7">
     <path d="M 436.9 59.69625 
L 561.8 59.69625 
Q 563.8 59.69625 563.8 57.69625 
L 563.8 29.318125 
Q 563.8 27.318125 561.8 27.318125 
L 436.9 27.318125 
Q 434.9 27.318125 434.9 29.318125 
L 434.9 57.69625 
Q 434.9 59.69625 436.9 59.69625 
z
" style="fill: #ffffff; opacity: 0.8; stroke: #cccccc; stroke-linejoin: miter"/>
    </g>
    <g id="line2d_31">
     <path d="M 438.9 35.416563 
L 448.9 35.416563 
L 458.9 35.416563 
" style="fill: none; stroke: #1f77b4; stroke-linecap: square"/>
    </g>
    <g id="text_19">
     <!-- $\mathcal{H}_0$: Noise -->
     <g transform="translate(466.9 38.916563) scale(0.1 -0.1)">
      <defs>
       <path id="STIXNonUnicode-Italic-e234" d="M 5408 4237 
L 5344 4083 
Q 5152 4083 5075 3964 
Q 4998 3846 4902 3494 
L 4134 762 
Q 4090 614 4090 429 
Q 4090 166 4435 166 
Q 4659 166 4838 339 
L 4934 218 
Q 4787 51 4531 -41 
Q 4275 -134 4051 -134 
Q 3802 -134 3587 -3 
Q 3373 128 3373 403 
Q 3373 525 3405 627 
L 3859 2240 
Q 3674 2157 3667 2157 
L 2016 2157 
L 1581 595 
Q 1472 218 1209 109 
Q 947 0 371 0 
L 435 154 
Q 634 173 739 294 
Q 845 416 934 717 
L 1542 2899 
Q 1562 2957 1638 3280 
Q 1715 3603 1715 3674 
Q 1715 3789 1664 3840 
Q 1613 3891 1466 3891 
Q 922 3891 365 3411 
L 262 3526 
Q 518 3821 966 4035 
Q 1414 4250 1978 4250 
Q 2221 4250 2329 4131 
Q 2438 4013 2438 3770 
Q 2438 3584 2304 3117 
L 2074 2330 
Q 2106 2336 2170 2374 
Q 2234 2413 2266 2413 
L 3910 2413 
L 4269 3654 
Q 4384 4051 4605 4144 
Q 4826 4237 5408 4237 
z
" transform="scale(0.015625)"/>
       <path id="DejaVuSans-4e" d="M 628 4666 
L 1478 4666 
L 3547 763 
L 3547 4666 
L 4159 4666 
L 4159 0 
L 3309 0 
L 1241 3903 
L 1241 0 
L 628 0 
L 628 4666 
z
" transform="scale(0.015625)"/>
      </defs>
      <use xlink:href="#STIXNonUnicode-Italic-e234" transform="translate(0 0.015625)"/>
      <use xlink:href="#DejaVuSans-30" transform="translate(84.057022 -16.390625) scale(0.7)"/>
      <use xlink:href="#DejaVuSans-3a" transform="translate(131.32753 0.015625)"/>
      <use xlink:href="#DejaVuSans-20" transform="translate(165.018936 0.015625)"/>
      <use xlink:href="#DejaVuSans-4e" transform="translate(196.806046 0.015625)"/>
      <use xlink:href="#DejaVuSans-6f" transform="translate(271.610733 0.015625)"/>
      <use xlink:href="#DejaVuSans-69" transform="translate(332.792374 0.015625)"/>
      <use xlink:href="#DejaVuSans-73" transform="translate(360.575577 0.015625)"/>
      <use xlink:href="#DejaVuSans-65" transform="translate(412.675186 0.015625)"/>
     </g>
    </g>
    <g id="line2d_32">
     <path d="M 438.9 50.09625 
L 448.9 50.09625 
L 458.9 50.09625 
" style="fill: none; stroke: #ff7f0e; stroke-linecap: square"/>
    </g>
    <g id="text_20">
     <!-- $\mathcal{H}_1$: Signal + Noise -->
     <g transform="translate(466.9 53.59625) scale(0.1 -0.1)">
      <defs>
       <path id="DejaVuSans-53" d="M 3425 4513 
L 3425 3897 
Q 3066 4069 2747 4153 
Q 2428 4238 2131 4238 
Q 1616 4238 1336 4038 
Q 1056 3838 1056 3469 
Q 1056 3159 1242 3001 
Q 1428 2844 1947 2747 
L 2328 2669 
Q 3034 2534 3370 2195 
Q 3706 1856 3706 1288 
Q 3706 609 3251 259 
Q 2797 -91 1919 -91 
Q 1588 -91 1214 -16 
Q 841 59 441 206 
L 441 856 
Q 825 641 1194 531 
Q 1563 422 1919 422 
Q 2459 422 2753 634 
Q 3047 847 3047 1241 
Q 3047 1584 2836 1778 
Q 2625 1972 2144 2069 
L 1759 2144 
Q 1053 2284 737 2584 
Q 422 2884 422 3419 
Q 422 4038 858 4394 
Q 1294 4750 2059 4750 
Q 2388 4750 2728 4690 
Q 3069 4631 3425 4513 
z
" transform="scale(0.015625)"/>
       <path id="DejaVuSans-67" d="M 2906 1791 
Q 2906 2416 2648 2759 
Q 2391 3103 1925 3103 
Q 1463 3103 1205 2759 
Q 947 2416 947 1791 
Q 947 1169 1205 825 
Q 1463 481 1925 481 
Q 2391 481 2648 825 
Q 2906 1169 2906 1791 
z
M 3481 434 
Q 3481 -459 3084 -895 
Q 2688 -1331 1869 -1331 
Q 1566 -1331 1297 -1286 
Q 1028 -1241 775 -1147 
L 775 -588 
Q 1028 -725 1275 -790 
Q 1522 -856 1778 -856 
Q 2344 -856 2625 -561 
Q 2906 -266 2906 331 
L 2906 616 
Q 2728 306 2450 153 
Q 2172 0 1784 0 
Q 1141 0 747 490 
Q 353 981 353 1791 
Q 353 2603 747 3093 
Q 1141 3584 1784 3584 
Q 2172 3584 2450 3431 
Q 2728 3278 2906 2969 
L 2906 3500 
L 3481 3500 
L 3481 434 
z
" transform="scale(0.015625)"/>
       <path id="DejaVuSans-2b" d="M 2944 4013 
L 2944 2272 
L 4684 2272 
L 4684 1741 
L 2944 1741 
L 2944 0 
L 2419 0 
L 2419 1741 
L 678 1741 
L 678 2272 
L 2419 2272 
L 2419 4013 
L 2944 4013 
z
" transform="scale(0.015625)"/>
      </defs>
      <use xlink:href="#STIXNonUnicode-Italic-e234" transform="translate(0 0.015625)"/>
      <use xlink:href="#DejaVuSans-31" transform="translate(84.057022 -16.390625) scale(0.7)"/>
      <use xlink:href="#DejaVuSans-3a" transform="translate(131.32753 0.015625)"/>
      <use xlink:href="#DejaVuSans-20" transform="translate(165.018936 0.015625)"/>
      <use xlink:href="#DejaVuSans-53" transform="translate(196.806046 0.015625)"/>
      <use xlink:href="#DejaVuSans-69" transform="translate(260.282608 0.015625)"/>
      <use xlink:href="#DejaVuSans-67" transform="translate(288.065811 0.015625)"/>
      <use xlink:href="#DejaVuSans-6e" transform="translate(351.542374 0.015625)"/>
      <use xlink:href="#DejaVuSans-61" transform="translate(414.92128 0.015625)"/>
      <use xlink:href="#DejaVuSans-6c" transform="translate(476.200577 0.015625)"/>
      <use xlink:href="#DejaVuSans-20" transform="translate(503.98378 0.015625)"/>
      <use xlink:href="#DejaVuSans-2b" transform="translate(535.770889 0.015625)"/>
      <use xlink:href="#DejaVuSans-20" transform="translate(619.559952 0.015625)"/>
      <use xlink:href="#DejaVuSans-4e" transform="translate(651.347061 0.015625)"/>
      <use xlink:href="#DejaVuSans-6f" transform="translate(726.151749 0.015625)"/>
      <use xlink:href="#DejaVuSans-69" transform="translate(787.333389 0.015625)"/>
      <use xlink:href="#DejaVuSans-73" transform="translate(815.116592 0.015625)"/>
      <use xlink:href="#DejaVuSans-65" transform="translate(867.216202 0.015625)"/>
     </g>
    </g>
   </g>
  </g>
 </g>
 <defs>
  <clipPath id="pc903a3619c">
   <rect x="43.78125" y="22.318125" width="525.01875" height="228.125625"/>
  </clipPath>
 </defs>
</svg>
