<?xml version="1.0" encoding="utf-8" standalone="no"?>
<!DOCTYPE svg PUBLIC "-//W3C//DTD SVG 1.1//EN"
  "http://www.w3.org/Graphics/SVG/1.1/DTD/svg11.dtd">
<svg xmlns:xlink="http://www.w3.org/1999/xlink" width="576pt" height="288pt" viewBox="0 0 576 288" xmlns="http://www.w3.org/2000/svg" version="1.1">
 <metadata>
  <rdf:RDF xmlns:dc="http://purl.org/dc/elements/1.1/" xmlns:cc="http://creativecommons.org/ns#" xmlns:rdf="http://www.w3.org/1999/02/22-rdf-syntax-ns#">
   <cc:Work>
    <dc:type rdf:resource="http://purl.org/dc/dcmitype/StillImage"/>
    <dc:date>2025-11-29T03:58:27.681973</dc:date>
    <dc:format>image/svg+xml</dc:format>
    <dc:creator>
     <cc:Agent>
      <dc:title>Matplotlib v3.10.7, https://matplotlib.org/</dc:title>
     </cc:Agent>
    </dc:creator>
   </cc:Work>
  </rdf:RDF>
 </metadata>
 <defs>
  <style type="text/css">*{stroke-linejoin: round; stroke-linecap: butt}</style>
 </defs>
 <g id="figure_1">
  <g id="patch_1">
   <path d="M 0 288 
L 576 288 
L 576 0 
L 0 0 
z
" style="fill: #ffffff"/>
  </g>
  <g id="axes_1">
   <g id="patch_2">
    <path d="M 52.160938 250.421875 
L 568.8 250.421875 
L 568.8 7.2 
L 52.160938 7.2 
z
" style="fill: #ffffff"/>
   </g>
   <g id="matplotlib.axis_1">
    <g id="xtick_1">
     <g id="line2d_1">
      <path d="M 75.644531 250.421875 
L 75.644531 7.2 
" clip-path="url(#pd63cc25663)" style="fill: none; stroke-dasharray: 2.96,1.28; stroke-dashoffset: 0; stroke: #b0b0b0; stroke-opacity: 0.8; stroke-width: 0.8"/>
     </g>
     <g id="line2d_2">
      <defs>
       <path id="m7954a05154" d="M 0 0 
L 0 3.5 
" style="stroke: #000000; stroke-width: 0.8"/>
      </defs>
      <g>
       <use xlink:href="#m7954a05154" x="75.644531" y="250.421875" style="stroke: #000000; stroke-width: 0.8"/>
      </g>
     </g>
     <g id="text_1">
      <!-- 0 -->
      <g transform="translate(72.463281 265.020312) scale(0.1 -0.1)">
       <defs>
        <path id="DejaVuSans-30" d="M 2034 4250 
Q 1547 4250 1301 3770 
Q 1056 3291 1056 2328 
Q 1056 1369 1301 889 
Q 1547 409 2034 409 
Q 2525 409 2770 889 
Q 3016 1369 3016 2328 
Q 3016 3291 2770 3770 
Q 2525 4250 2034 4250 
z
M 2034 4750 
Q 2819 4750 3233 4129 
Q 3647 3509 3647 2328 
Q 3647 1150 3233 529 
Q 2819 -91 2034 -91 
Q 1250 -91 836 529 
Q 422 1150 422 2328 
Q 422 3509 836 4129 
Q 1250 4750 2034 4750 
z
" transform="scale(0.015625)"/>
       </defs>
       <use xlink:href="#DejaVuSans-30"/>
      </g>
     </g>
    </g>
    <g id="xtick_2">
     <g id="line2d_3">
      <path d="M 134.500656 250.421875 
L 134.500656 7.2 
" clip-path="url(#pd63cc25663)" style="fill: none; stroke-dasharray: 2.96,1.28; stroke-dashoffset: 0; stroke: #b0b0b0; stroke-opacity: 0.8; stroke-width: 0.8"/>
     </g>
     <g id="line2d_4">
      <g>
       <use xlink:href="#m7954a05154" x="134.500656" y="250.421875" style="stroke: #000000; stroke-width: 0.8"/>
      </g>
     </g>
     <g id="text_2">
      <!-- 50 -->
      <g transform="translate(128.138156 265.020312) scale(0.1 -0.1)">
       <defs>
        <path id="DejaVuSans-35" d="M 691 4666 
L 3169 4666 
L 3169 4134 
L 1269 4134 
L 1269 2991 
Q 1406 3038 1543 3061 
Q 1681 3084 1819 3084 
Q 2600 3084 3056 2656 
Q 3513 2228 3513 1497 
Q 3513 744 3044 326 
Q 2575 -91 1722 -91 
Q 1428 -91 1123 -41 
Q 819 9 494 109 
L 494 744 
Q 775 591 1075 516 
Q 1375 441 1709 441 
Q 2250 441 2565 725 
Q 2881 1009 2881 1497 
Q 2881 1984 2565 2268 
Q 2250 2553 1709 2553 
Q 1456 2553 1204 2497 
Q 953 2441 691 2322 
L 691 4666 
z
" transform="scale(0.015625)"/>
       </defs>
       <use xlink:href="#DejaVuSans-35"/>
       <use xlink:href="#DejaVuSans-30" transform="translate(63.623047 0)"/>
      </g>
     </g>
    </g>
    <g id="xtick_3">
     <g id="line2d_5">
      <path d="M 193.356781 250.421875 
L 193.356781 7.2 
" clip-path="url(#pd63cc25663)" style="fill: none; stroke-dasharray: 2.96,1.28; stroke-dashoffset: 0; stroke: #b0b0b0; stroke-opacity: 0.8; stroke-width: 0.8"/>
     </g>
     <g id="line2d_6">
      <g>
       <use xlink:href="#m7954a05154" x="193.356781" y="250.421875" style="stroke: #000000; stroke-width: 0.8"/>
      </g>
     </g>
     <g id="text_3">
      <!-- 100 -->
      <g transform="translate(183.813031 265.020312) scale(0.1 -0.1)">
       <defs>
        <path id="DejaVuSans-31" d="M 794 531 
L 1825 531 
L 1825 4091 
L 703 3866 
L 703 4441 
L 1819 4666 
L 2450 4666 
L 2450 531 
L 3481 531 
L 3481 0 
L 794 0 
L 794 531 
z
" transform="scale(0.015625)"/>
       </defs>
       <use xlink:href="#DejaVuSans-31"/>
       <use xlink:href="#DejaVuSans-30" transform="translate(63.623047 0)"/>
       <use xlink:href="#DejaVuSans-30" transform="translate(127.246094 0)"/>
      </g>
     </g>
    </g>
    <g id="xtick_4">
     <g id="line2d_7">
      <path d="M 252.212905 250.421875 
L 252.212905 7.2 
" clip-path="url(#pd63cc25663)" style="fill: none; stroke-dasharray: 2.96,1.28; stroke-dashoffset: 0; stroke: #b0b0b0; stroke-opacity: 0.8; stroke-width: 0.8"/>
     </g>
     <g id="line2d_8">
      <g>
       <use xlink:href="#m7954a05154" x="252.212905" y="250.421875" style="stroke: #000000; stroke-width: 0.8"/>
      </g>
     </g>
     <g id="text_4">
      <!-- 150 -->
      <g transform="translate(242.669155 265.020312) scale(0.1 -0.1)">
       <use xlink:href="#DejaVuSans-31"/>
       <use xlink:href="#DejaVuSans-35" transform="translate(63.623047 0)"/>
       <use xlink:href="#DejaVuSans-30" transform="translate(127.246094 0)"/>
      </g>
     </g>
    </g>
    <g id="xtick_5">
     <g id="line2d_9">
      <path d="M 311.06903 250.421875 
L 311.06903 7.2 
" clip-path="url(#pd63cc25663)" style="fill: none; stroke-dasharray: 2.96,1.28; stroke-dashoffset: 0; stroke: #b0b0b0; stroke-opacity: 0.8; stroke-width: 0.8"/>
     </g>
     <g id="line2d_10">
      <g>
       <use xlink:href="#m7954a05154" x="311.06903" y="250.421875" style="stroke: #000000; stroke-width: 0.8"/>
      </g>
     </g>
     <g id="text_5">
      <!-- 200 -->
      <g transform="translate(301.52528 265.020312) scale(0.1 -0.1)">
       <defs>
        <path id="DejaVuSans-32" d="M 1228 531 
L 3431 531 
L 3431 0 
L 469 0 
L 469 531 
Q 828 903 1448 1529 
Q 2069 2156 2228 2338 
Q 2531 2678 2651 2914 
Q 2772 3150 2772 3378 
Q 2772 3750 2511 3984 
Q 2250 4219 1831 4219 
Q 1534 4219 1204 4116 
Q 875 4013 500 3803 
L 500 4441 
Q 881 4594 1212 4672 
Q 1544 4750 1819 4750 
Q 2544 4750 2975 4387 
Q 3406 4025 3406 3419 
Q 3406 3131 3298 2873 
Q 3191 2616 2906 2266 
Q 2828 2175 2409 1742 
Q 1991 1309 1228 531 
z
" transform="scale(0.015625)"/>
       </defs>
       <use xlink:href="#DejaVuSans-32"/>
       <use xlink:href="#DejaVuSans-30" transform="translate(63.623047 0)"/>
       <use xlink:href="#DejaVuSans-30" transform="translate(127.246094 0)"/>
      </g>
     </g>
    </g>
    <g id="xtick_6">
     <g id="line2d_11">
      <path d="M 369.925155 250.421875 
L 369.925155 7.2 
" clip-path="url(#pd63cc25663)" style="fill: none; stroke-dasharray: 2.96,1.28; stroke-dashoffset: 0; stroke: #b0b0b0; stroke-opacity: 0.8; stroke-width: 0.8"/>
     </g>
     <g id="line2d_12">
      <g>
       <use xlink:href="#m7954a05154" x="369.925155" y="250.421875" style="stroke: #000000; stroke-width: 0.8"/>
      </g>
     </g>
     <g id="text_6">
      <!-- 250 -->
      <g transform="translate(360.381405 265.020312) scale(0.1 -0.1)">
       <use xlink:href="#DejaVuSans-32"/>
       <use xlink:href="#DejaVuSans-35" transform="translate(63.623047 0)"/>
       <use xlink:href="#DejaVuSans-30" transform="translate(127.246094 0)"/>
      </g>
     </g>
    </g>
    <g id="xtick_7">
     <g id="line2d_13">
      <path d="M 428.781279 250.421875 
L 428.781279 7.2 
" clip-path="url(#pd63cc25663)" style="fill: none; stroke-dasharray: 2.96,1.28; stroke-dashoffset: 0; stroke: #b0b0b0; stroke-opacity: 0.8; stroke-width: 0.8"/>
     </g>
     <g id="line2d_14">
      <g>
       <use xlink:href="#m7954a05154" x="428.781279" y="250.421875" style="stroke: #000000; stroke-width: 0.8"/>
      </g>
     </g>
     <g id="text_7">
      <!-- 300 -->
      <g transform="translate(419.237529 265.020312) scale(0.1 -0.1)">
       <defs>
        <path id="DejaVuSans-33" d="M 2597 2516 
Q 3050 2419 3304 2112 
Q 3559 1806 3559 1356 
Q 3559 666 3084 287 
Q 2609 -91 1734 -91 
Q 1441 -91 1130 -33 
Q 819 25 488 141 
L 488 750 
Q 750 597 1062 519 
Q 1375 441 1716 441 
Q 2309 441 2620 675 
Q 2931 909 2931 1356 
Q 2931 1769 2642 2001 
Q 2353 2234 1838 2234 
L 1294 2234 
L 1294 2753 
L 1863 2753 
Q 2328 2753 2575 2939 
Q 2822 3125 2822 3475 
Q 2822 3834 2567 4026 
Q 2313 4219 1838 4219 
Q 1578 4219 1281 4162 
Q 984 4106 628 3988 
L 628 4550 
Q 988 4650 1302 4700 
Q 1616 4750 1894 4750 
Q 2613 4750 3031 4423 
Q 3450 4097 3450 3541 
Q 3450 3153 3228 2886 
Q 3006 2619 2597 2516 
z
" transform="scale(0.015625)"/>
       </defs>
       <use xlink:href="#DejaVuSans-33"/>
       <use xlink:href="#DejaVuSans-30" transform="translate(63.623047 0)"/>
       <use xlink:href="#DejaVuSans-30" transform="translate(127.246094 0)"/>
      </g>
     </g>
    </g>
    <g id="xtick_8">
     <g id="line2d_15">
      <path d="M 487.637404 250.421875 
L 487.637404 7.2 
" clip-path="url(#pd63cc25663)" style="fill: none; stroke-dasharray: 2.96,1.28; stroke-dashoffset: 0; stroke: #b0b0b0; stroke-opacity: 0.8; stroke-width: 0.8"/>
     </g>
     <g id="line2d_16">
      <g>
       <use xlink:href="#m7954a05154" x="487.637404" y="250.421875" style="stroke: #000000; stroke-width: 0.8"/>
      </g>
     </g>
     <g id="text_8">
      <!-- 350 -->
      <g transform="translate(478.093654 265.020312) scale(0.1 -0.1)">
       <use xlink:href="#DejaVuSans-33"/>
       <use xlink:href="#DejaVuSans-35" transform="translate(63.623047 0)"/>
       <use xlink:href="#DejaVuSans-30" transform="translate(127.246094 0)"/>
      </g>
     </g>
    </g>
    <g id="xtick_9">
     <g id="line2d_17">
      <path d="M 546.493529 250.421875 
L 546.493529 7.2 
" clip-path="url(#pd63cc25663)" style="fill: none; stroke-dasharray: 2.96,1.28; stroke-dashoffset: 0; stroke: #b0b0b0; stroke-opacity: 0.8; stroke-width: 0.8"/>
     </g>
     <g id="line2d_18">
      <g>
       <use xlink:href="#m7954a05154" x="546.493529" y="250.421875" style="stroke: #000000; stroke-width: 0.8"/>
      </g>
     </g>
     <g id="text_9">
      <!-- 400 -->
      <g transform="translate(536.949779 265.020312) scale(0.1 -0.1)">
       <defs>
        <path id="DejaVuSans-34" d="M 2419 4116 
L 825 1625 
L 2419 1625 
L 2419 4116 
z
M 2253 4666 
L 3047 4666 
L 3047 1625 
L 3713 1625 
L 3713 1100 
L 3047 1100 
L 3047 0 
L 2419 0 
L 2419 1100 
L 313 1100 
L 313 1709 
L 2253 4666 
z
" transform="scale(0.015625)"/>
       </defs>
       <use xlink:href="#DejaVuSans-34"/>
       <use xlink:href="#DejaVuSans-30" transform="translate(63.623047 0)"/>
       <use xlink:href="#DejaVuSans-30" transform="translate(127.246094 0)"/>
      </g>
     </g>
    </g>
    <g id="text_10">
     <!-- Sample, $n$ -->
     <g transform="translate(285.380469 278.7) scale(0.1 -0.1)">
      <defs>
       <path id="DejaVuSans-53" d="M 3425 4513 
L 3425 3897 
Q 3066 4069 2747 4153 
Q 2428 4238 2131 4238 
Q 1616 4238 1336 4038 
Q 1056 3838 1056 3469 
Q 1056 3159 1242 3001 
Q 1428 2844 1947 2747 
L 2328 2669 
Q 3034 2534 3370 2195 
Q 3706 1856 3706 1288 
Q 3706 609 3251 259 
Q 2797 -91 1919 -91 
Q 1588 -91 1214 -16 
Q 841 59 441 206 
L 441 856 
Q 825 641 1194 531 
Q 1563 422 1919 422 
Q 2459 422 2753 634 
Q 3047 847 3047 1241 
Q 3047 1584 2836 1778 
Q 2625 1972 2144 2069 
L 1759 2144 
Q 1053 2284 737 2584 
Q 422 2884 422 3419 
Q 422 4038 858 4394 
Q 1294 4750 2059 4750 
Q 2388 4750 2728 4690 
Q 3069 4631 3425 4513 
z
" transform="scale(0.015625)"/>
       <path id="DejaVuSans-61" d="M 2194 1759 
Q 1497 1759 1228 1600 
Q 959 1441 959 1056 
Q 959 750 1161 570 
Q 1363 391 1709 391 
Q 2188 391 2477 730 
Q 2766 1069 2766 1631 
L 2766 1759 
L 2194 1759 
z
M 3341 1997 
L 3341 0 
L 2766 0 
L 2766 531 
Q 2569 213 2275 61 
Q 1981 -91 1556 -91 
Q 1019 -91 701 211 
Q 384 513 384 1019 
Q 384 1609 779 1909 
Q 1175 2209 1959 2209 
L 2766 2209 
L 2766 2266 
Q 2766 2663 2505 2880 
Q 2244 3097 1772 3097 
Q 1472 3097 1187 3025 
Q 903 2953 641 2809 
L 641 3341 
Q 956 3463 1253 3523 
Q 1550 3584 1831 3584 
Q 2591 3584 2966 3190 
Q 3341 2797 3341 1997 
z
" transform="scale(0.015625)"/>
       <path id="DejaVuSans-6d" d="M 3328 2828 
Q 3544 3216 3844 3400 
Q 4144 3584 4550 3584 
Q 5097 3584 5394 3201 
Q 5691 2819 5691 2113 
L 5691 0 
L 5113 0 
L 5113 2094 
Q 5113 2597 4934 2840 
Q 4756 3084 4391 3084 
Q 3944 3084 3684 2787 
Q 3425 2491 3425 1978 
L 3425 0 
L 2847 0 
L 2847 2094 
Q 2847 2600 2669 2842 
Q 2491 3084 2119 3084 
Q 1678 3084 1418 2786 
Q 1159 2488 1159 1978 
L 1159 0 
L 581 0 
L 581 3500 
L 1159 3500 
L 1159 2956 
Q 1356 3278 1631 3431 
Q 1906 3584 2284 3584 
Q 2666 3584 2933 3390 
Q 3200 3197 3328 2828 
z
" transform="scale(0.015625)"/>
       <path id="DejaVuSans-70" d="M 1159 525 
L 1159 -1331 
L 581 -1331 
L 581 3500 
L 1159 3500 
L 1159 2969 
Q 1341 3281 1617 3432 
Q 1894 3584 2278 3584 
Q 2916 3584 3314 3078 
Q 3713 2572 3713 1747 
Q 3713 922 3314 415 
Q 2916 -91 2278 -91 
Q 1894 -91 1617 61 
Q 1341 213 1159 525 
z
M 3116 1747 
Q 3116 2381 2855 2742 
Q 2594 3103 2138 3103 
Q 1681 3103 1420 2742 
Q 1159 2381 1159 1747 
Q 1159 1113 1420 752 
Q 1681 391 2138 391 
Q 2594 391 2855 752 
Q 3116 1113 3116 1747 
z
" transform="scale(0.015625)"/>
       <path id="DejaVuSans-6c" d="M 603 4863 
L 1178 4863 
L 1178 0 
L 603 0 
L 603 4863 
z
" transform="scale(0.015625)"/>
       <path id="DejaVuSans-65" d="M 3597 1894 
L 3597 1613 
L 953 1613 
Q 991 1019 1311 708 
Q 1631 397 2203 397 
Q 2534 397 2845 478 
Q 3156 559 3463 722 
L 3463 178 
Q 3153 47 2828 -22 
Q 2503 -91 2169 -91 
Q 1331 -91 842 396 
Q 353 884 353 1716 
Q 353 2575 817 3079 
Q 1281 3584 2069 3584 
Q 2775 3584 3186 3129 
Q 3597 2675 3597 1894 
z
M 3022 2063 
Q 3016 2534 2758 2815 
Q 2500 3097 2075 3097 
Q 1594 3097 1305 2825 
Q 1016 2553 972 2059 
L 3022 2063 
z
" transform="scale(0.015625)"/>
       <path id="DejaVuSans-2c" d="M 750 794 
L 1409 794 
L 1409 256 
L 897 -744 
L 494 -744 
L 750 256 
L 750 794 
z
" transform="scale(0.015625)"/>
       <path id="DejaVuSans-20" transform="scale(0.015625)"/>
       <path id="DejaVuSans-Oblique-6e" d="M 3566 2113 
L 3156 0 
L 2578 0 
L 2988 2091 
Q 3016 2238 3031 2350 
Q 3047 2463 3047 2528 
Q 3047 2791 2881 2937 
Q 2716 3084 2419 3084 
Q 1956 3084 1622 2776 
Q 1288 2469 1184 1941 
L 800 0 
L 225 0 
L 903 3500 
L 1478 3500 
L 1363 2950 
Q 1603 3253 1940 3418 
Q 2278 3584 2650 3584 
Q 3113 3584 3367 3334 
Q 3622 3084 3622 2631 
Q 3622 2519 3608 2391 
Q 3594 2263 3566 2113 
z
" transform="scale(0.015625)"/>
      </defs>
      <use xlink:href="#DejaVuSans-53" transform="translate(0 0.015625)"/>
      <use xlink:href="#DejaVuSans-61" transform="translate(63.476562 0.015625)"/>
      <use xlink:href="#DejaVuSans-6d" transform="translate(124.755859 0.015625)"/>
      <use xlink:href="#DejaVuSans-70" transform="translate(222.167969 0.015625)"/>
      <use xlink:href="#DejaVuSans-6c" transform="translate(285.644531 0.015625)"/>
      <use xlink:href="#DejaVuSans-65" transform="translate(313.427734 0.015625)"/>
      <use xlink:href="#DejaVuSans-2c" transform="translate(374.951172 0.015625)"/>
      <use xlink:href="#DejaVuSans-20" transform="translate(406.738281 0.015625)"/>
      <use xlink:href="#DejaVuSans-Oblique-6e" transform="translate(438.525391 0.015625)"/>
     </g>
    </g>
   </g>
   <g id="matplotlib.axis_2">
    <g id="ytick_1">
     <g id="line2d_19">
      <path d="M 52.160938 218.708808 
L 568.8 218.708808 
" clip-path="url(#pd63cc25663)" style="fill: none; stroke-dasharray: 2.96,1.28; stroke-dashoffset: 0; stroke: #b0b0b0; stroke-opacity: 0.8; stroke-width: 0.8"/>
     </g>
     <g id="line2d_20">
      <defs>
       <path id="mfeafaa961b" d="M 0 0 
L -3.5 0 
" style="stroke: #000000; stroke-width: 0.8"/>
      </defs>
      <g>
       <use xlink:href="#mfeafaa961b" x="52.160938" y="218.708808" style="stroke: #000000; stroke-width: 0.8"/>
      </g>
     </g>
     <g id="text_11">
      <!-- −0.4 -->
      <g transform="translate(20.878125 222.508027) scale(0.1 -0.1)">
       <defs>
        <path id="DejaVuSans-2212" d="M 678 2272 
L 4684 2272 
L 4684 1741 
L 678 1741 
L 678 2272 
z
" transform="scale(0.015625)"/>
        <path id="DejaVuSans-2e" d="M 684 794 
L 1344 794 
L 1344 0 
L 684 0 
L 684 794 
z
" transform="scale(0.015625)"/>
       </defs>
       <use xlink:href="#DejaVuSans-2212"/>
       <use xlink:href="#DejaVuSans-30" transform="translate(83.789062 0)"/>
       <use xlink:href="#DejaVuSans-2e" transform="translate(147.412109 0)"/>
       <use xlink:href="#DejaVuSans-34" transform="translate(179.199219 0)"/>
      </g>
     </g>
    </g>
    <g id="ytick_2">
     <g id="line2d_21">
      <path d="M 52.160938 175.307967 
L 568.8 175.307967 
" clip-path="url(#pd63cc25663)" style="fill: none; stroke-dasharray: 2.96,1.28; stroke-dashoffset: 0; stroke: #b0b0b0; stroke-opacity: 0.8; stroke-width: 0.8"/>
     </g>
     <g id="line2d_22">
      <g>
       <use xlink:href="#mfeafaa961b" x="52.160938" y="175.307967" style="stroke: #000000; stroke-width: 0.8"/>
      </g>
     </g>
     <g id="text_12">
      <!-- −0.2 -->
      <g transform="translate(20.878125 179.107186) scale(0.1 -0.1)">
       <use xlink:href="#DejaVuSans-2212"/>
       <use xlink:href="#DejaVuSans-30" transform="translate(83.789062 0)"/>
       <use xlink:href="#DejaVuSans-2e" transform="translate(147.412109 0)"/>
       <use xlink:href="#DejaVuSans-32" transform="translate(179.199219 0)"/>
      </g>
     </g>
    </g>
    <g id="ytick_3">
     <g id="line2d_23">
      <path d="M 52.160938 131.907126 
L 568.8 131.907126 
" clip-path="url(#pd63cc25663)" style="fill: none; stroke-dasharray: 2.96,1.28; stroke-dashoffset: 0; stroke: #b0b0b0; stroke-opacity: 0.8; stroke-width: 0.8"/>
     </g>
     <g id="line2d_24">
      <g>
       <use xlink:href="#mfeafaa961b" x="52.160938" y="131.907126" style="stroke: #000000; stroke-width: 0.8"/>
      </g>
     </g>
     <g id="text_13">
      <!-- 0.0 -->
      <g transform="translate(29.257812 135.706345) scale(0.1 -0.1)">
       <use xlink:href="#DejaVuSans-30"/>
       <use xlink:href="#DejaVuSans-2e" transform="translate(63.623047 0)"/>
       <use xlink:href="#DejaVuSans-30" transform="translate(95.410156 0)"/>
      </g>
     </g>
    </g>
    <g id="ytick_4">
     <g id="line2d_25">
      <path d="M 52.160938 88.506285 
L 568.8 88.506285 
" clip-path="url(#pd63cc25663)" style="fill: none; stroke-dasharray: 2.96,1.28; stroke-dashoffset: 0; stroke: #b0b0b0; stroke-opacity: 0.8; stroke-width: 0.8"/>
     </g>
     <g id="line2d_26">
      <g>
       <use xlink:href="#mfeafaa961b" x="52.160938" y="88.506285" style="stroke: #000000; stroke-width: 0.8"/>
      </g>
     </g>
     <g id="text_14">
      <!-- 0.2 -->
      <g transform="translate(29.257812 92.305504) scale(0.1 -0.1)">
       <use xlink:href="#DejaVuSans-30"/>
       <use xlink:href="#DejaVuSans-2e" transform="translate(63.623047 0)"/>
       <use xlink:href="#DejaVuSans-32" transform="translate(95.410156 0)"/>
      </g>
     </g>
    </g>
    <g id="ytick_5">
     <g id="line2d_27">
      <path d="M 52.160938 45.105444 
L 568.8 45.105444 
" clip-path="url(#pd63cc25663)" style="fill: none; stroke-dasharray: 2.96,1.28; stroke-dashoffset: 0; stroke: #b0b0b0; stroke-opacity: 0.8; stroke-width: 0.8"/>
     </g>
     <g id="line2d_28">
      <g>
       <use xlink:href="#mfeafaa961b" x="52.160938" y="45.105444" style="stroke: #000000; stroke-width: 0.8"/>
      </g>
     </g>
     <g id="text_15">
      <!-- 0.4 -->
      <g transform="translate(29.257812 48.904662) scale(0.1 -0.1)">
       <use xlink:href="#DejaVuSans-30"/>
       <use xlink:href="#DejaVuSans-2e" transform="translate(63.623047 0)"/>
       <use xlink:href="#DejaVuSans-34" transform="translate(95.410156 0)"/>
      </g>
     </g>
    </g>
    <g id="text_16">
     <!-- Amplitude -->
     <g transform="translate(14.798437 154.433594) rotate(-90) scale(0.1 -0.1)">
      <defs>
       <path id="DejaVuSans-41" d="M 2188 4044 
L 1331 1722 
L 3047 1722 
L 2188 4044 
z
M 1831 4666 
L 2547 4666 
L 4325 0 
L 3669 0 
L 3244 1197 
L 1141 1197 
L 716 0 
L 50 0 
L 1831 4666 
z
" transform="scale(0.015625)"/>
       <path id="DejaVuSans-69" d="M 603 3500 
L 1178 3500 
L 1178 0 
L 603 0 
L 603 3500 
z
M 603 4863 
L 1178 4863 
L 1178 4134 
L 603 4134 
L 603 4863 
z
" transform="scale(0.015625)"/>
       <path id="DejaVuSans-74" d="M 1172 4494 
L 1172 3500 
L 2356 3500 
L 2356 3053 
L 1172 3053 
L 1172 1153 
Q 1172 725 1289 603 
Q 1406 481 1766 481 
L 2356 481 
L 2356 0 
L 1766 0 
Q 1100 0 847 248 
Q 594 497 594 1153 
L 594 3053 
L 172 3053 
L 172 3500 
L 594 3500 
L 594 4494 
L 1172 4494 
z
" transform="scale(0.015625)"/>
       <path id="DejaVuSans-75" d="M 544 1381 
L 544 3500 
L 1119 3500 
L 1119 1403 
Q 1119 906 1312 657 
Q 1506 409 1894 409 
Q 2359 409 2629 706 
Q 2900 1003 2900 1516 
L 2900 3500 
L 3475 3500 
L 3475 0 
L 2900 0 
L 2900 538 
Q 2691 219 2414 64 
Q 2138 -91 1772 -91 
Q 1169 -91 856 284 
Q 544 659 544 1381 
z
M 1991 3584 
L 1991 3584 
z
" transform="scale(0.015625)"/>
       <path id="DejaVuSans-64" d="M 2906 2969 
L 2906 4863 
L 3481 4863 
L 3481 0 
L 2906 0 
L 2906 525 
Q 2725 213 2448 61 
Q 2172 -91 1784 -91 
Q 1150 -91 751 415 
Q 353 922 353 1747 
Q 353 2572 751 3078 
Q 1150 3584 1784 3584 
Q 2172 3584 2448 3432 
Q 2725 3281 2906 2969 
z
M 947 1747 
Q 947 1113 1208 752 
Q 1469 391 1925 391 
Q 2381 391 2643 752 
Q 2906 1113 2906 1747 
Q 2906 2381 2643 2742 
Q 2381 3103 1925 3103 
Q 1469 3103 1208 2742 
Q 947 2381 947 1747 
z
" transform="scale(0.015625)"/>
      </defs>
      <use xlink:href="#DejaVuSans-41"/>
      <use xlink:href="#DejaVuSans-6d" transform="translate(68.408203 0)"/>
      <use xlink:href="#DejaVuSans-70" transform="translate(165.820312 0)"/>
      <use xlink:href="#DejaVuSans-6c" transform="translate(229.296875 0)"/>
      <use xlink:href="#DejaVuSans-69" transform="translate(257.080078 0)"/>
      <use xlink:href="#DejaVuSans-74" transform="translate(284.863281 0)"/>
      <use xlink:href="#DejaVuSans-75" transform="translate(324.072266 0)"/>
      <use xlink:href="#DejaVuSans-64" transform="translate(387.451172 0)"/>
      <use xlink:href="#DejaVuSans-65" transform="translate(450.927734 0)"/>
     </g>
    </g>
   </g>
   <g id="line2d_29">
    <path d="M 75.644531 128.196036 
L 76.821654 138.415017 
L 77.998776 135.438408 
L 79.175899 129.789981 
L 80.353021 138.558905 
L 81.530144 128.232214 
L 82.707266 132.532392 
L 83.884389 134.567289 
L 85.061511 132.91081 
L 86.238634 136.194275 
L 87.415756 132.862542 
L 88.592879 134.100663 
L 89.770001 136.86109 
L 90.947124 131.506586 
L 92.124246 130.535637 
L 93.301369 129.10864 
L 94.478491 125.854943 
L 95.655614 126.619905 
L 96.832736 133.714149 
L 98.009859 132.927731 
L 100.364104 135.505317 
L 101.541226 134.762966 
L 102.718349 136.897792 
L 103.895471 131.399907 
L 105.072594 138.441899 
L 106.249716 132.865824 
L 107.426839 126.750102 
L 108.603961 131.183374 
L 109.781084 122.623233 
L 110.958206 125.980962 
L 112.135329 119.928369 
L 113.312451 124.444423 
L 114.489574 130.47696 
L 115.666696 133.738486 
L 116.843819 140.520045 
L 118.020941 144.494912 
L 119.198064 153.780165 
L 120.375186 145.930209 
L 121.552309 143.684559 
L 122.729431 138.094708 
L 123.906553 129.735184 
L 125.083676 108.122651 
L 126.260798 101.948565 
L 127.437921 80.855719 
L 128.615043 79.145273 
L 129.792166 69.191409 
L 130.969288 65.916445 
L 132.146411 71.867752 
L 133.323533 81.277477 
L 134.500656 96.089316 
L 135.677778 114.291669 
L 136.854901 145.697376 
L 138.032023 173.621567 
L 139.209146 192.687277 
L 140.386268 204.384129 
L 141.563391 219.552068 
L 142.740513 229.350562 
L 143.917636 226.302644 
L 145.094758 218.083145 
L 146.271881 199.00394 
L 147.449003 191.806127 
L 148.626126 182.753176 
L 149.803248 176.047545 
L 150.980371 175.344907 
L 152.157493 173.792239 
L 154.511738 185.27112 
L 155.688861 208.631019 
L 156.865983 220.658952 
L 158.043106 225.816733 
L 159.220228 225.930898 
L 160.397351 218.142566 
L 161.574473 205.536289 
L 163.928718 166.023532 
L 165.105841 145.34179 
L 166.282963 116.666095 
L 168.637208 81.715833 
L 169.814331 72.150358 
L 170.991453 68.078108 
L 172.168576 68.803168 
L 173.345698 72.74412 
L 174.522821 80.598698 
L 175.699943 101.492183 
L 176.877066 118.102205 
L 178.054188 125.091067 
L 179.231311 136.956003 
L 180.408433 140.433492 
L 181.585556 148.476363 
L 183.939801 134.459307 
L 185.116923 117.127528 
L 186.294046 106.248704 
L 187.471168 88.481963 
L 188.648291 77.982452 
L 191.002536 45.175668 
L 192.179658 39.263831 
L 193.356781 38.023665 
L 194.533903 37.167162 
L 195.711026 33.086741 
L 196.888148 46.012829 
L 198.065271 53.935301 
L 199.242393 74.314796 
L 200.419516 86.372285 
L 202.773761 130.918639 
L 203.950883 145.582773 
L 205.128006 165.756858 
L 206.305128 173.767978 
L 208.659373 198.545116 
L 209.836496 196.759191 
L 211.013618 189.502196 
L 212.190741 180.75912 
L 213.367863 174.212595 
L 214.544986 163.752298 
L 215.722108 145.451099 
L 216.89923 130.852827 
L 218.076353 109.63923 
L 219.253475 112.181196 
L 220.430598 89.591127 
L 221.60772 88.959111 
L 222.784843 77.504586 
L 223.961965 78.369168 
L 225.139088 78.003242 
L 226.31621 72.95822 
L 227.493333 82.199564 
L 228.670455 88.007938 
L 229.847578 96.213517 
L 231.0247 99.014767 
L 232.201823 107.801723 
L 233.378945 103.748294 
L 235.73319 131.586853 
L 236.910313 132.70375 
L 238.087435 151.053115 
L 239.264558 154.145292 
L 240.44168 161.109986 
L 241.618803 180.478347 
L 242.795925 184.729249 
L 243.973048 187.12995 
L 245.15017 190.229475 
L 246.327293 186.756366 
L 247.504415 181.921435 
L 248.681538 175.726005 
L 249.85866 171.586401 
L 251.035783 161.143453 
L 252.212905 146.094255 
L 253.390028 137.663986 
L 254.56715 133.519164 
L 255.744273 122.929317 
L 256.921395 114.44514 
L 258.098518 100.722273 
L 259.27564 91.729884 
L 260.452763 88.816255 
L 261.629885 80.707812 
L 262.807008 78.595318 
L 263.98413 69.845225 
L 265.161253 77.67961 
L 266.338375 82.99335 
L 267.515498 86.441727 
L 268.69262 93.004476 
L 269.869743 105.482309 
L 271.046865 109.592004 
L 272.223988 124.521523 
L 274.578233 146.643681 
L 275.755355 148.735428 
L 276.932478 158.687893 
L 278.1096 167.292508 
L 279.286723 181.32414 
L 280.463845 178.600826 
L 281.640968 182.387102 
L 282.81809 183.390306 
L 283.995213 190.406067 
L 285.172335 179.507305 
L 286.349458 173.723593 
L 287.52658 175.363157 
L 288.703703 161.824081 
L 289.880825 157.406995 
L 291.057948 139.86691 
L 293.412193 129.504831 
L 294.589315 110.83837 
L 295.766438 100.172954 
L 296.94356 92.192486 
L 298.120683 89.74243 
L 299.297805 86.187186 
L 300.474928 76.713678 
L 301.65205 79.763801 
L 302.829173 74.074528 
L 304.006295 83.80538 
L 305.183418 88.991477 
L 306.36054 88.905674 
L 307.537663 108.287376 
L 308.714785 108.849831 
L 309.891908 114.342056 
L 311.06903 130.840761 
L 312.246152 142.879462 
L 313.423275 150.470596 
L 314.600397 151.330811 
L 315.77752 163.027971 
L 316.954642 170.082899 
L 318.131765 181.313693 
L 319.308887 180.347136 
L 321.663132 188.508337 
L 322.840255 195.929501 
L 324.017377 199.88633 
L 325.1945 199.877588 
L 326.371622 202.222628 
L 327.548745 208.331571 
L 328.725867 200.877477 
L 329.90299 205.851205 
L 331.080112 212.576277 
L 332.257235 210.688618 
L 333.434357 207.832256 
L 334.61148 209.863542 
L 335.788602 200.323365 
L 336.965725 195.290215 
L 338.142847 197.52368 
L 339.31997 184.69373 
L 340.497092 178.03621 
L 341.674215 172.889518 
L 342.851337 159.956635 
L 344.02846 156.759114 
L 346.382705 138.116002 
L 347.559827 136.142916 
L 348.73695 130.863217 
L 349.914072 137.169865 
L 351.091195 132.689318 
L 352.268317 133.579038 
L 353.44544 140.87835 
L 354.622562 150.627169 
L 355.799685 159.448318 
L 356.976807 175.582442 
L 358.15393 184.912998 
L 359.331052 193.299229 
L 360.508175 206.911537 
L 361.685297 211.784681 
L 362.86242 229.405497 
L 364.039542 229.869289 
L 365.216665 228.878233 
L 366.393787 221.544041 
L 367.57091 212.064909 
L 368.748032 199.447364 
L 375.810767 82.090848 
L 376.98789 75.460769 
L 378.165012 59.689136 
L 379.342135 66.112492 
L 380.519257 77.570802 
L 381.69638 86.340347 
L 382.873502 90.714435 
L 384.050625 101.14753 
L 385.227747 128.592702 
L 386.40487 137.595892 
L 387.581992 151.020908 
L 388.759115 155.551911 
L 389.936237 167.481868 
L 391.11336 171.827178 
L 392.290482 180.411281 
L 393.467605 180.951556 
L 394.644727 182.550882 
L 395.82185 186.709657 
L 396.998972 181.241997 
L 398.176095 178.50926 
L 399.353217 175.445121 
L 400.53034 166.431393 
L 401.707462 164.814184 
L 402.884585 158.130444 
L 404.061707 145.721208 
L 405.238829 135.96174 
L 406.415952 127.290785 
L 407.593074 110.186834 
L 408.770197 101.299115 
L 409.947319 84.18697 
L 411.124442 82.982425 
L 412.301564 80.374732 
L 413.478687 79.166788 
L 414.655809 82.144655 
L 415.832932 84.010339 
L 417.010054 81.500019 
L 418.187177 93.771251 
L 419.364299 97.373954 
L 420.541422 110.871849 
L 421.718544 110.840118 
L 422.895667 118.80522 
L 424.072789 129.321387 
L 425.249912 127.767979 
L 426.427034 130.692712 
L 427.604157 135.16697 
L 428.781279 125.517457 
L 429.958402 127.129198 
L 431.135524 105.005465 
L 432.312647 97.774574 
L 433.489769 87.913669 
L 434.666892 67.516605 
L 435.844014 55.76539 
L 438.198259 28.248491 
L 439.375382 18.25554 
L 440.552504 25.810377 
L 441.729627 27.940141 
L 442.906749 41.820597 
L 444.083872 73.675697 
L 445.260994 95.797599 
L 446.438117 120.906595 
L 447.615239 148.845605 
L 448.792362 173.881541 
L 449.969484 186.54649 
L 451.146607 193.77217 
L 452.323729 199.725039 
L 453.500852 188.143463 
L 455.855097 149.774323 
L 458.209342 88.926518 
L 460.563587 56.587631 
L 461.740709 41.457787 
L 464.094954 55.657256 
L 465.272077 74.053258 
L 466.449199 102.612886 
L 467.626322 125.081385 
L 469.980567 179.611286 
L 471.157689 196.590058 
L 472.334812 200.586621 
L 473.511934 207.343849 
L 474.689057 199.789134 
L 475.866179 197.244616 
L 477.043302 180.65304 
L 478.220424 169.67852 
L 479.397547 142.779928 
L 480.574669 121.670211 
L 481.751792 110.560984 
L 482.928914 95.936205 
L 484.106037 84.88447 
L 485.283159 75.36784 
L 486.460282 81.771277 
L 487.637404 83.101093 
L 488.814527 88.032396 
L 489.991649 81.421011 
L 491.168772 79.240371 
L 492.345894 86.676866 
L 493.523017 91.910456 
L 494.700139 98.061246 
L 495.877262 105.342843 
L 497.054384 120.281659 
L 498.231507 122.423484 
L 499.408629 128.385848 
L 500.585751 139.864724 
L 501.762874 137.802573 
L 502.939996 158.014532 
L 504.117119 168.830363 
L 505.294241 165.572135 
L 506.471364 179.99272 
L 507.648486 186.022464 
L 508.825609 187.768043 
L 510.002731 189.262213 
L 512.356976 202.409722 
L 513.534099 194.269788 
L 514.711221 204.867025 
L 515.888344 196.908675 
L 517.065466 203.569333 
L 518.242589 204.077101 
L 519.419711 211.935798 
L 520.596834 202.761596 
L 521.773956 214.594637 
L 522.951079 209.182743 
L 524.128201 215.175465 
L 525.305324 205.841417 
L 526.482446 201.037769 
L 527.659569 188.162617 
L 528.836691 181.183626 
L 530.013814 159.742432 
L 531.190936 154.215058 
L 532.368059 145.410754 
L 533.545181 131.583084 
L 534.722304 122.520005 
L 535.899426 123.632951 
L 537.076549 131.474295 
L 538.253671 134.871411 
L 539.430794 152.747979 
L 540.607916 155.625914 
L 541.785039 168.417843 
L 542.962161 185.139319 
L 544.139284 189.575704 
L 545.316406 188.749395 
L 545.316406 188.749395 
" clip-path="url(#pd63cc25663)" style="fill: none; stroke: #1f77b4; stroke-linecap: square"/>
   </g>
   <g id="line2d_30">
    <path d="M 75.644531 135.552143 
L 76.821654 132.126777 
L 77.998776 126.919143 
L 79.175899 127.424869 
L 80.353021 128.07498 
L 81.530144 130.551964 
L 82.707266 128.871586 
L 83.884389 129.651785 
L 85.061511 124.918536 
L 86.238634 128.883935 
L 87.415756 135.139565 
L 88.592879 135.416356 
L 89.770001 136.67411 
L 90.947124 139.306506 
L 92.124246 134.549496 
L 93.301369 137.919086 
L 94.478491 134.790288 
L 96.832736 129.779299 
L 99.186981 119.758954 
L 100.364104 126.013396 
L 101.541226 124.232576 
L 102.718349 124.375384 
L 103.895471 126.843362 
L 105.072594 130.931399 
L 106.249716 135.527535 
L 107.426839 146.206786 
L 108.603961 149.614254 
L 109.781084 151.605421 
L 110.958206 149.634538 
L 112.135329 148.589917 
L 113.312451 134.113655 
L 114.489574 125.839093 
L 115.666696 107.421814 
L 116.843819 91.300491 
L 118.020941 72.41061 
L 119.198064 59.454892 
L 120.375186 43.48279 
L 121.552309 33.281561 
L 122.729431 49.593086 
L 123.906553 57.664801 
L 125.083676 77.372862 
L 126.260798 92.356671 
L 128.615043 151.8016 
L 129.792166 169.210507 
L 130.969288 183.84703 
L 132.146411 202.608428 
L 133.323533 199.719026 
L 134.500656 195.775989 
L 136.854901 166.621955 
L 138.032023 158.761859 
L 139.209146 134.786046 
L 140.386268 120.760327 
L 141.563391 122.883547 
L 142.740513 123.320096 
L 143.917636 127.845555 
L 145.094758 134.986809 
L 146.271881 150.404461 
L 147.449003 173.399082 
L 148.626126 192.308562 
L 149.803248 195.028944 
L 150.980371 199.990271 
L 152.157493 193.747413 
L 153.334616 189.663361 
L 154.511738 178.307448 
L 156.865983 144.782367 
L 158.043106 125.917548 
L 159.220228 125.36007 
L 160.397351 122.449179 
L 161.574473 123.036913 
L 162.751596 131.884 
L 163.928718 148.078182 
L 165.105841 157.213839 
L 167.460086 192.851816 
L 168.637208 188.220215 
L 169.814331 198.017884 
L 170.991453 188.028633 
L 172.168576 176.481655 
L 175.699943 106.615064 
L 176.877066 87.761269 
L 178.054188 57.413116 
L 179.231311 50.031428 
L 180.408433 35.998319 
L 181.585556 35.7892 
L 182.762678 30.990703 
L 183.939801 35.249529 
L 185.116923 45.552877 
L 186.294046 60.14277 
L 188.648291 83.111337 
L 189.825413 100.214788 
L 191.002536 111.833829 
L 192.179658 115.80663 
L 193.356781 115.558806 
L 194.533903 120.086736 
L 195.711026 120.14647 
L 196.888148 122.764713 
L 198.065271 123.107519 
L 199.242393 125.134121 
L 200.419516 123.851953 
L 201.596638 123.291467 
L 202.773761 117.870466 
L 203.950883 117.725442 
L 205.128006 109.073385 
L 206.305128 97.844075 
L 208.659373 77.126448 
L 209.836496 57.250814 
L 213.367863 22.047698 
L 214.544986 28.295482 
L 215.722108 28.440276 
L 216.89923 42.59291 
L 218.076353 71.217722 
L 219.253475 93.875069 
L 222.784843 170.56069 
L 223.961965 187.162997 
L 225.139088 189.096325 
L 226.31621 196.253722 
L 227.493333 181.652764 
L 229.847578 145.575837 
L 231.0247 116.422335 
L 232.201823 96.259107 
L 234.556068 61.035739 
L 235.73319 50.499576 
L 236.910313 46.969122 
L 238.087435 58.940363 
L 239.264558 65.912353 
L 240.44168 95.74405 
L 241.618803 117.372713 
L 242.795925 144.721888 
L 243.973048 167.864986 
L 245.15017 195.099365 
L 246.327293 208.742733 
L 247.504415 226.87114 
L 248.681538 225.200267 
L 249.85866 221.282965 
L 251.035783 220.182302 
L 252.212905 215.352488 
L 253.390028 209.0874 
L 254.56715 194.142216 
L 255.744273 196.885665 
L 256.921395 192.958299 
L 258.098518 183.578873 
L 259.27564 195.586959 
L 260.452763 189.584181 
L 261.629885 187.41512 
L 262.807008 195.019199 
L 263.98413 192.827049 
L 265.161253 192.4642 
L 266.338375 189.116674 
L 267.515498 189.012599 
L 268.69262 189.807615 
L 269.869743 184.571335 
L 271.046865 186.11339 
L 272.223988 194.621341 
L 273.40111 204.185273 
L 274.578233 203.495704 
L 275.755355 215.079433 
L 276.932478 220.852527 
L 278.1096 224.338408 
L 279.286723 233.205588 
L 280.463845 218.803126 
L 281.640968 219.231939 
L 282.81809 196.687492 
L 283.995213 169.887911 
L 285.172335 152.880042 
L 286.349458 119.324897 
L 288.703703 65.883609 
L 289.880825 47.050484 
L 291.057948 43.61172 
L 292.23507 43.572626 
L 293.412193 59.673074 
L 294.589315 78.791001 
L 295.766438 101.405654 
L 296.94356 121.268049 
L 298.120683 153.952352 
L 299.297805 169.694089 
L 300.474928 193.476945 
L 301.65205 200.183816 
L 302.829173 193.756608 
L 304.006295 182.691563 
L 305.183418 166.156247 
L 307.537663 118.458936 
L 308.714785 89.659584 
L 309.891908 66.824518 
L 311.06903 38.51553 
L 312.246152 36.925064 
L 313.423275 23.870039 
L 314.600397 33.909672 
L 315.77752 38.644617 
L 316.954642 53.770494 
L 318.131765 65.092988 
L 319.308887 81.650022 
L 320.48601 88.282589 
L 321.663132 96.190836 
L 322.840255 98.655752 
L 324.017377 103.460276 
L 325.1945 106.477052 
L 326.371622 103.931338 
L 327.548745 117.055864 
L 328.725867 110.190093 
L 329.90299 117.249174 
L 331.080112 130.113852 
L 332.257235 147.69596 
L 333.434357 162.385297 
L 334.61148 175.291517 
L 335.788602 184.680911 
L 338.142847 197.906602 
L 339.31997 197.150651 
L 340.497092 177.931836 
L 341.674215 165.415155 
L 342.851337 155.513041 
L 344.02846 121.995542 
L 345.205582 107.79918 
L 346.382705 88.798498 
L 347.559827 59.690698 
L 351.091195 38.427099 
L 352.268317 38.089902 
L 353.44544 43.823108 
L 354.622562 48.955728 
L 355.799685 57.509892 
L 356.976807 72.054284 
L 358.15393 73.461801 
L 359.331052 88.6658 
L 360.508175 95.555964 
L 361.685297 107.380836 
L 362.86242 111.555334 
L 364.039542 122.794865 
L 365.216665 131.73756 
L 366.393787 130.945704 
L 368.748032 133.717692 
L 369.925155 138.653123 
L 371.102277 139.437901 
L 372.2794 145.84499 
L 375.810767 171.53141 
L 376.98789 182.429636 
L 378.165012 197.751083 
L 379.342135 207.328312 
L 380.519257 218.149643 
L 381.69638 224.634265 
L 382.873502 239.366335 
L 384.050625 233.98776 
L 385.227747 230.551194 
L 386.40487 222.203405 
L 387.581992 203.043541 
L 388.759115 175.111933 
L 389.936237 153.228717 
L 391.11336 123.784968 
L 392.290482 98.233298 
L 393.467605 76.993039 
L 394.644727 73.619903 
L 395.82185 64.233259 
L 396.998972 72.183173 
L 398.176095 91.485206 
L 399.353217 106.252197 
L 400.53034 137.06148 
L 401.707462 158.413118 
L 402.884585 189.340229 
L 404.061707 204.193475 
L 405.238829 224.303441 
L 406.415952 228.606274 
L 407.593074 227.190768 
L 408.770197 223.204485 
L 409.947319 215.458954 
L 412.301564 187.946407 
L 413.478687 173.489676 
L 414.655809 176.680076 
L 415.832932 178.453512 
L 417.010054 177.128437 
L 419.364299 198.628437 
L 420.541422 213.120599 
L 421.718544 216.848822 
L 422.895667 217.180925 
L 424.072789 220.003752 
L 425.249912 202.216469 
L 426.427034 193.824594 
L 427.604157 173.652075 
L 428.781279 150.21135 
L 429.958402 121.964075 
L 431.135524 100.824559 
L 433.489769 69.294798 
L 434.666892 61.85074 
L 435.844014 59.022401 
L 437.021137 69.124642 
L 438.198259 77.302249 
L 439.375382 92.292636 
L 440.552504 111.785623 
L 441.729627 122.889336 
L 442.906749 141.64626 
L 444.083872 152.574543 
L 445.260994 157.833647 
L 446.438117 169.925973 
L 447.615239 174.27568 
L 448.792362 174.664067 
L 449.969484 184.742255 
L 451.146607 184.507394 
L 452.323729 185.602321 
L 453.500852 180.158107 
L 454.677974 182.040819 
L 455.855097 181.813086 
L 457.032219 172.874511 
L 458.209342 172.529211 
L 459.386464 152.362891 
L 460.563587 143.361202 
L 461.740709 136.103462 
L 462.917832 126.754898 
L 464.094954 107.273473 
L 465.272077 95.262609 
L 466.449199 85.592201 
L 467.626322 78.167914 
L 468.803444 69.31955 
L 469.980567 68.350685 
L 471.157689 77.33908 
L 472.334812 85.14126 
L 473.511934 96.161674 
L 474.689057 113.910486 
L 475.866179 137.437874 
L 477.043302 155.789273 
L 478.220424 176.118906 
L 479.397547 191.859966 
L 480.574669 204.847352 
L 481.751792 214.382051 
L 482.928914 227.908857 
L 484.106037 231.0698 
L 485.283159 236.168148 
L 486.460282 230.80315 
L 488.814527 196.972599 
L 489.991649 186.128568 
L 491.168772 164.791759 
L 492.345894 150.76705 
L 493.523017 125.197479 
L 494.700139 108.691251 
L 495.877262 95.324201 
L 497.054384 79.92638 
L 498.231507 61.872473 
L 499.408629 48.928505 
L 500.585751 42.319766 
L 501.762874 50.900377 
L 502.939996 47.063319 
L 504.117119 48.776773 
L 505.294241 57.898072 
L 506.471364 62.063955 
L 507.648486 70.914084 
L 508.825609 76.619235 
L 510.002731 86.85568 
L 511.179854 88.70427 
L 512.356976 102.946938 
L 513.534099 108.687141 
L 515.888344 123.459881 
L 517.065466 122.190971 
L 518.242589 130.673444 
L 519.419711 134.287529 
L 520.596834 146.821722 
L 521.773956 150.681734 
L 524.128201 173.089077 
L 525.305324 177.835866 
L 527.659569 188.528929 
L 528.836691 198.878425 
L 530.013814 198.121689 
L 531.190936 198.722419 
L 532.368059 195.117201 
L 533.545181 196.907323 
L 534.722304 201.385305 
L 535.899426 197.380544 
L 537.076549 202.924631 
L 538.253671 200.700541 
L 539.430794 211.344113 
L 540.607916 210.09521 
L 541.785039 211.068064 
L 542.962161 208.756795 
L 544.139284 213.528506 
L 545.316406 205.030396 
L 545.316406 205.030396 
" clip-path="url(#pd63cc25663)" style="fill: none; stroke: #ff7f0e; stroke-linecap: square"/>
   </g>
   <g id="patch_3">
    <path d="M 52.160938 250.421875 
L 52.160938 7.2 
" style="fill: none; stroke: #000000; stroke-width: 0.8; stroke-linejoin: miter; stroke-linecap: square"/>
   </g>
   <g id="patch_4">
    <path d="M 568.8 250.421875 
L 568.8 7.2 
" style="fill: none; stroke: #000000; stroke-width: 0.8; stroke-linejoin: miter; stroke-linecap: square"/>
   </g>
   <g id="patch_5">
    <path d="M 52.160937 250.421875 
L 568.8 250.421875 
" style="fill: none; stroke: #000000; stroke-width: 0.8; stroke-linejoin: miter; stroke-linecap: square"/>
   </g>
   <g id="patch_6">
    <path d="M 52.160937 7.2 
L 568.8 7.2 
" style="fill: none; stroke: #000000; stroke-width: 0.8; stroke-linejoin: miter; stroke-linecap: square"/>
   </g>
   <g id="legend_1">
    <g id="patch_7">
     <path d="M 504.804688 44.55625 
L 561.8 44.55625 
Q 563.8 44.55625 563.8 42.55625 
L 563.8 14.2 
Q 563.8 12.2 561.8 12.2 
L 504.804688 12.2 
Q 502.804688 12.2 502.804688 14.2 
L 502.804688 42.55625 
Q 502.804688 44.55625 504.804688 44.55625 
z
" style="fill: #ffffff; opacity: 0.8; stroke: #cccccc; stroke-linejoin: miter"/>
    </g>
    <g id="line2d_31">
     <path d="M 506.804688 20.298437 
L 516.804688 20.298437 
L 526.804688 20.298437 
" style="fill: none; stroke: #1f77b4; stroke-linecap: square"/>
    </g>
    <g id="text_17">
     <!-- real -->
     <g transform="translate(534.804688 23.798437) scale(0.1 -0.1)">
      <defs>
       <path id="DejaVuSans-72" d="M 2631 2963 
Q 2534 3019 2420 3045 
Q 2306 3072 2169 3072 
Q 1681 3072 1420 2755 
Q 1159 2438 1159 1844 
L 1159 0 
L 581 0 
L 581 3500 
L 1159 3500 
L 1159 2956 
Q 1341 3275 1631 3429 
Q 1922 3584 2338 3584 
Q 2397 3584 2469 3576 
Q 2541 3569 2628 3553 
L 2631 2963 
z
" transform="scale(0.015625)"/>
      </defs>
      <use xlink:href="#DejaVuSans-72"/>
      <use xlink:href="#DejaVuSans-65" transform="translate(38.863281 0)"/>
      <use xlink:href="#DejaVuSans-61" transform="translate(100.386719 0)"/>
      <use xlink:href="#DejaVuSans-6c" transform="translate(161.666016 0)"/>
     </g>
    </g>
    <g id="line2d_32">
     <path d="M 506.804688 34.976562 
L 516.804688 34.976562 
L 526.804688 34.976562 
" style="fill: none; stroke: #ff7f0e; stroke-linecap: square"/>
    </g>
    <g id="text_18">
     <!-- imag -->
     <g transform="translate(534.804688 38.476562) scale(0.1 -0.1)">
      <defs>
       <path id="DejaVuSans-67" d="M 2906 1791 
Q 2906 2416 2648 2759 
Q 2391 3103 1925 3103 
Q 1463 3103 1205 2759 
Q 947 2416 947 1791 
Q 947 1169 1205 825 
Q 1463 481 1925 481 
Q 2391 481 2648 825 
Q 2906 1169 2906 1791 
z
M 3481 434 
Q 3481 -459 3084 -895 
Q 2688 -1331 1869 -1331 
Q 1566 -1331 1297 -1286 
Q 1028 -1241 775 -1147 
L 775 -588 
Q 1028 -725 1275 -790 
Q 1522 -856 1778 -856 
Q 2344 -856 2625 -561 
Q 2906 -266 2906 331 
L 2906 616 
Q 2728 306 2450 153 
Q 2172 0 1784 0 
Q 1141 0 747 490 
Q 353 981 353 1791 
Q 353 2603 747 3093 
Q 1141 3584 1784 3584 
Q 2172 3584 2450 3431 
Q 2728 3278 2906 2969 
L 2906 3500 
L 3481 3500 
L 3481 434 
z
" transform="scale(0.015625)"/>
      </defs>
      <use xlink:href="#DejaVuSans-69"/>
      <use xlink:href="#DejaVuSans-6d" transform="translate(27.783203 0)"/>
      <use xlink:href="#DejaVuSans-61" transform="translate(125.195312 0)"/>
      <use xlink:href="#DejaVuSans-67" transform="translate(186.474609 0)"/>
     </g>
    </g>
   </g>
  </g>
 </g>
 <defs>
  <clipPath id="pd63cc25663">
   <rect x="52.160938" y="7.2" width="516.639063" height="243.221875"/>
  </clipPath>
 </defs>
</svg>
