<?xml version="1.0" encoding="utf-8" standalone="no"?>
<!DOCTYPE svg PUBLIC "-//W3C//DTD SVG 1.1//EN"
  "http://www.w3.org/Graphics/SVG/1.1/DTD/svg11.dtd">
<svg xmlns:xlink="http://www.w3.org/1999/xlink" width="576pt" height="288pt" viewBox="0 0 576 288" xmlns="http://www.w3.org/2000/svg" version="1.1">
 <metadata>
  <rdf:RDF xmlns:dc="http://purl.org/dc/elements/1.1/" xmlns:cc="http://creativecommons.org/ns#" xmlns:rdf="http://www.w3.org/1999/02/22-rdf-syntax-ns#">
   <cc:Work>
    <dc:type rdf:resource="http://purl.org/dc/dcmitype/StillImage"/>
    <dc:date>2026-05-03T16:50:52.692549</dc:date>
    <dc:format>image/svg+xml</dc:format>
    <dc:creator>
     <cc:Agent>
      <dc:title>Matplotlib v3.10.9, https://matplotlib.org/</dc:title>
     </cc:Agent>
    </dc:creator>
   </cc:Work>
  </rdf:RDF>
 </metadata>
 <defs>
  <style type="text/css">*{stroke-linejoin: round; stroke-linecap: butt}</style>
 </defs>
 <g id="figure_1">
  <g id="patch_1">
   <path d="M 0 288 
L 576 288 
L 576 0 
L 0 0 
z
" style="fill: #ffffff"/>
  </g>
  <g id="axes_1">
   <g id="patch_2">
    <path d="M 48.982813 250.421875 
L 568.8 250.421875 
L 568.8 22.32 
L 48.982813 22.32 
z
" style="fill: #ffffff"/>
   </g>
   <g id="matplotlib.axis_1">
    <g id="xtick_1">
     <g id="line2d_1">
      <path d="M 119.89006 250.421875 
L 119.89006 22.32 
" clip-path="url(#p43549fe1b5)" style="fill: none; stroke-dasharray: 2.96,1.28; stroke-dashoffset: 0; stroke: #b0b0b0; stroke-opacity: 0.8; stroke-width: 0.8"/>
     </g>
     <g id="line2d_2">
      <defs>
       <path id="m6fdab59db3" d="M 0 0 
L 0 3.5 
" style="stroke: #000000; stroke-width: 0.8"/>
      </defs>
      <g>
       <use xlink:href="#m6fdab59db3" x="119.89006" y="250.421875" style="stroke: #000000; stroke-width: 0.8"/>
      </g>
     </g>
     <g id="text_1">
      <!-- -200 -->
      <g transform="translate(108.542404 265.020312) scale(0.1 -0.1)">
       <defs>
        <path id="DejaVuSans-2d" d="M 313 2009 
L 1997 2009 
L 1997 1497 
L 313 1497 
L 313 2009 
z
" transform="scale(0.015625)"/>
        <path id="DejaVuSans-32" d="M 1228 531 
L 3431 531 
L 3431 0 
L 469 0 
L 469 531 
Q 828 903 1448 1529 
Q 2069 2156 2228 2338 
Q 2531 2678 2651 2914 
Q 2772 3150 2772 3378 
Q 2772 3750 2511 3984 
Q 2250 4219 1831 4219 
Q 1534 4219 1204 4116 
Q 875 4013 500 3803 
L 500 4441 
Q 881 4594 1212 4672 
Q 1544 4750 1819 4750 
Q 2544 4750 2975 4387 
Q 3406 4025 3406 3419 
Q 3406 3131 3298 2873 
Q 3191 2616 2906 2266 
Q 2828 2175 2409 1742 
Q 1991 1309 1228 531 
z
" transform="scale(0.015625)"/>
        <path id="DejaVuSans-30" d="M 2034 4250 
Q 1547 4250 1301 3770 
Q 1056 3291 1056 2328 
Q 1056 1369 1301 889 
Q 1547 409 2034 409 
Q 2525 409 2770 889 
Q 3016 1369 3016 2328 
Q 3016 3291 2770 3770 
Q 2525 4250 2034 4250 
z
M 2034 4750 
Q 2819 4750 3233 4129 
Q 3647 3509 3647 2328 
Q 3647 1150 3233 529 
Q 2819 -91 2034 -91 
Q 1250 -91 836 529 
Q 422 1150 422 2328 
Q 422 3509 836 4129 
Q 1250 4750 2034 4750 
z
" transform="scale(0.015625)"/>
       </defs>
       <use xlink:href="#DejaVuSans-2d"/>
       <use xlink:href="#DejaVuSans-32" transform="translate(36.083984 0)"/>
       <use xlink:href="#DejaVuSans-30" transform="translate(99.707031 0)"/>
       <use xlink:href="#DejaVuSans-30" transform="translate(163.330078 0)"/>
      </g>
     </g>
    </g>
    <g id="xtick_2">
     <g id="line2d_3">
      <path d="M 214.448447 250.421875 
L 214.448447 22.32 
" clip-path="url(#p43549fe1b5)" style="fill: none; stroke-dasharray: 2.96,1.28; stroke-dashoffset: 0; stroke: #b0b0b0; stroke-opacity: 0.8; stroke-width: 0.8"/>
     </g>
     <g id="line2d_4">
      <g>
       <use xlink:href="#m6fdab59db3" x="214.448447" y="250.421875" style="stroke: #000000; stroke-width: 0.8"/>
      </g>
     </g>
     <g id="text_2">
      <!-- -100 -->
      <g transform="translate(203.100791 265.020312) scale(0.1 -0.1)">
       <defs>
        <path id="DejaVuSans-31" d="M 794 531 
L 1825 531 
L 1825 4091 
L 703 3866 
L 703 4441 
L 1819 4666 
L 2450 4666 
L 2450 531 
L 3481 531 
L 3481 0 
L 794 0 
L 794 531 
z
" transform="scale(0.015625)"/>
       </defs>
       <use xlink:href="#DejaVuSans-2d"/>
       <use xlink:href="#DejaVuSans-31" transform="translate(36.083984 0)"/>
       <use xlink:href="#DejaVuSans-30" transform="translate(99.707031 0)"/>
       <use xlink:href="#DejaVuSans-30" transform="translate(163.330078 0)"/>
      </g>
     </g>
    </g>
    <g id="xtick_3">
     <g id="line2d_5">
      <path d="M 309.006834 250.421875 
L 309.006834 22.32 
" clip-path="url(#p43549fe1b5)" style="fill: none; stroke-dasharray: 2.96,1.28; stroke-dashoffset: 0; stroke: #b0b0b0; stroke-opacity: 0.8; stroke-width: 0.8"/>
     </g>
     <g id="line2d_6">
      <g>
       <use xlink:href="#m6fdab59db3" x="309.006834" y="250.421875" style="stroke: #000000; stroke-width: 0.8"/>
      </g>
     </g>
     <g id="text_3">
      <!-- 0 -->
      <g transform="translate(305.825584 265.020312) scale(0.1 -0.1)">
       <use xlink:href="#DejaVuSans-30"/>
      </g>
     </g>
    </g>
    <g id="xtick_4">
     <g id="line2d_7">
      <path d="M 403.565221 250.421875 
L 403.565221 22.32 
" clip-path="url(#p43549fe1b5)" style="fill: none; stroke-dasharray: 2.96,1.28; stroke-dashoffset: 0; stroke: #b0b0b0; stroke-opacity: 0.8; stroke-width: 0.8"/>
     </g>
     <g id="line2d_8">
      <g>
       <use xlink:href="#m6fdab59db3" x="403.565221" y="250.421875" style="stroke: #000000; stroke-width: 0.8"/>
      </g>
     </g>
     <g id="text_4">
      <!-- 100 -->
      <g transform="translate(394.021471 265.020312) scale(0.1 -0.1)">
       <use xlink:href="#DejaVuSans-31"/>
       <use xlink:href="#DejaVuSans-30" transform="translate(63.623047 0)"/>
       <use xlink:href="#DejaVuSans-30" transform="translate(127.246094 0)"/>
      </g>
     </g>
    </g>
    <g id="xtick_5">
     <g id="line2d_9">
      <path d="M 498.123608 250.421875 
L 498.123608 22.32 
" clip-path="url(#p43549fe1b5)" style="fill: none; stroke-dasharray: 2.96,1.28; stroke-dashoffset: 0; stroke: #b0b0b0; stroke-opacity: 0.8; stroke-width: 0.8"/>
     </g>
     <g id="line2d_10">
      <g>
       <use xlink:href="#m6fdab59db3" x="498.123608" y="250.421875" style="stroke: #000000; stroke-width: 0.8"/>
      </g>
     </g>
     <g id="text_5">
      <!-- 200 -->
      <g transform="translate(488.579858 265.020312) scale(0.1 -0.1)">
       <use xlink:href="#DejaVuSans-32"/>
       <use xlink:href="#DejaVuSans-30" transform="translate(63.623047 0)"/>
       <use xlink:href="#DejaVuSans-30" transform="translate(127.246094 0)"/>
      </g>
     </g>
    </g>
    <g id="text_6">
     <!-- Frequency (Hz), $f$ -->
     <g transform="translate(265.741406 278.7) scale(0.1 -0.1)">
      <defs>
       <path id="DejaVuSans-46" d="M 628 4666 
L 3309 4666 
L 3309 4134 
L 1259 4134 
L 1259 2759 
L 3109 2759 
L 3109 2228 
L 1259 2228 
L 1259 0 
L 628 0 
L 628 4666 
z
" transform="scale(0.015625)"/>
       <path id="DejaVuSans-72" d="M 2631 2963 
Q 2534 3019 2420 3045 
Q 2306 3072 2169 3072 
Q 1681 3072 1420 2755 
Q 1159 2438 1159 1844 
L 1159 0 
L 581 0 
L 581 3500 
L 1159 3500 
L 1159 2956 
Q 1341 3275 1631 3429 
Q 1922 3584 2338 3584 
Q 2397 3584 2469 3576 
Q 2541 3569 2628 3553 
L 2631 2963 
z
" transform="scale(0.015625)"/>
       <path id="DejaVuSans-65" d="M 3597 1894 
L 3597 1613 
L 953 1613 
Q 991 1019 1311 708 
Q 1631 397 2203 397 
Q 2534 397 2845 478 
Q 3156 559 3463 722 
L 3463 178 
Q 3153 47 2828 -22 
Q 2503 -91 2169 -91 
Q 1331 -91 842 396 
Q 353 884 353 1716 
Q 353 2575 817 3079 
Q 1281 3584 2069 3584 
Q 2775 3584 3186 3129 
Q 3597 2675 3597 1894 
z
M 3022 2063 
Q 3016 2534 2758 2815 
Q 2500 3097 2075 3097 
Q 1594 3097 1305 2825 
Q 1016 2553 972 2059 
L 3022 2063 
z
" transform="scale(0.015625)"/>
       <path id="DejaVuSans-71" d="M 947 1747 
Q 947 1113 1208 752 
Q 1469 391 1925 391 
Q 2381 391 2643 752 
Q 2906 1113 2906 1747 
Q 2906 2381 2643 2742 
Q 2381 3103 1925 3103 
Q 1469 3103 1208 2742 
Q 947 2381 947 1747 
z
M 2906 525 
Q 2725 213 2448 61 
Q 2172 -91 1784 -91 
Q 1150 -91 751 415 
Q 353 922 353 1747 
Q 353 2572 751 3078 
Q 1150 3584 1784 3584 
Q 2172 3584 2448 3432 
Q 2725 3281 2906 2969 
L 2906 3500 
L 3481 3500 
L 3481 -1331 
L 2906 -1331 
L 2906 525 
z
" transform="scale(0.015625)"/>
       <path id="DejaVuSans-75" d="M 544 1381 
L 544 3500 
L 1119 3500 
L 1119 1403 
Q 1119 906 1312 657 
Q 1506 409 1894 409 
Q 2359 409 2629 706 
Q 2900 1003 2900 1516 
L 2900 3500 
L 3475 3500 
L 3475 0 
L 2900 0 
L 2900 538 
Q 2691 219 2414 64 
Q 2138 -91 1772 -91 
Q 1169 -91 856 284 
Q 544 659 544 1381 
z
M 1991 3584 
L 1991 3584 
z
" transform="scale(0.015625)"/>
       <path id="DejaVuSans-6e" d="M 3513 2113 
L 3513 0 
L 2938 0 
L 2938 2094 
Q 2938 2591 2744 2837 
Q 2550 3084 2163 3084 
Q 1697 3084 1428 2787 
Q 1159 2491 1159 1978 
L 1159 0 
L 581 0 
L 581 3500 
L 1159 3500 
L 1159 2956 
Q 1366 3272 1645 3428 
Q 1925 3584 2291 3584 
Q 2894 3584 3203 3211 
Q 3513 2838 3513 2113 
z
" transform="scale(0.015625)"/>
       <path id="DejaVuSans-63" d="M 3122 3366 
L 3122 2828 
Q 2878 2963 2633 3030 
Q 2388 3097 2138 3097 
Q 1578 3097 1268 2742 
Q 959 2388 959 1747 
Q 959 1106 1268 751 
Q 1578 397 2138 397 
Q 2388 397 2633 464 
Q 2878 531 3122 666 
L 3122 134 
Q 2881 22 2623 -34 
Q 2366 -91 2075 -91 
Q 1284 -91 818 406 
Q 353 903 353 1747 
Q 353 2603 823 3093 
Q 1294 3584 2113 3584 
Q 2378 3584 2631 3529 
Q 2884 3475 3122 3366 
z
" transform="scale(0.015625)"/>
       <path id="DejaVuSans-79" d="M 2059 -325 
Q 1816 -950 1584 -1140 
Q 1353 -1331 966 -1331 
L 506 -1331 
L 506 -850 
L 844 -850 
Q 1081 -850 1212 -737 
Q 1344 -625 1503 -206 
L 1606 56 
L 191 3500 
L 800 3500 
L 1894 763 
L 2988 3500 
L 3597 3500 
L 2059 -325 
z
" transform="scale(0.015625)"/>
       <path id="DejaVuSans-20" transform="scale(0.015625)"/>
       <path id="DejaVuSans-28" d="M 1984 4856 
Q 1566 4138 1362 3434 
Q 1159 2731 1159 2009 
Q 1159 1288 1364 580 
Q 1569 -128 1984 -844 
L 1484 -844 
Q 1016 -109 783 600 
Q 550 1309 550 2009 
Q 550 2706 781 3412 
Q 1013 4119 1484 4856 
L 1984 4856 
z
" transform="scale(0.015625)"/>
       <path id="DejaVuSans-48" d="M 628 4666 
L 1259 4666 
L 1259 2753 
L 3553 2753 
L 3553 4666 
L 4184 4666 
L 4184 0 
L 3553 0 
L 3553 2222 
L 1259 2222 
L 1259 0 
L 628 0 
L 628 4666 
z
" transform="scale(0.015625)"/>
       <path id="DejaVuSans-7a" d="M 353 3500 
L 3084 3500 
L 3084 2975 
L 922 459 
L 3084 459 
L 3084 0 
L 275 0 
L 275 525 
L 2438 3041 
L 353 3041 
L 353 3500 
z
" transform="scale(0.015625)"/>
       <path id="DejaVuSans-29" d="M 513 4856 
L 1013 4856 
Q 1481 4119 1714 3412 
Q 1947 2706 1947 2009 
Q 1947 1309 1714 600 
Q 1481 -109 1013 -844 
L 513 -844 
Q 928 -128 1133 580 
Q 1338 1288 1338 2009 
Q 1338 2731 1133 3434 
Q 928 4138 513 4856 
z
" transform="scale(0.015625)"/>
       <path id="DejaVuSans-2c" d="M 750 794 
L 1409 794 
L 1409 256 
L 897 -744 
L 494 -744 
L 750 256 
L 750 794 
z
" transform="scale(0.015625)"/>
       <path id="DejaVuSans-Oblique-66" d="M 3059 4863 
L 2969 4384 
L 2419 4384 
Q 2106 4384 1964 4261 
Q 1822 4138 1753 3809 
L 1691 3500 
L 2638 3500 
L 2553 3053 
L 1606 3053 
L 1013 0 
L 434 0 
L 1031 3053 
L 481 3053 
L 563 3500 
L 1113 3500 
L 1159 3744 
Q 1278 4363 1576 4613 
Q 1875 4863 2516 4863 
L 3059 4863 
z
" transform="scale(0.015625)"/>
      </defs>
      <use xlink:href="#DejaVuSans-46" transform="translate(0 0.015625)"/>
      <use xlink:href="#DejaVuSans-72" transform="translate(57.519531 0.015625)"/>
      <use xlink:href="#DejaVuSans-65" transform="translate(98.632812 0.015625)"/>
      <use xlink:href="#DejaVuSans-71" transform="translate(160.15625 0.015625)"/>
      <use xlink:href="#DejaVuSans-75" transform="translate(223.632812 0.015625)"/>
      <use xlink:href="#DejaVuSans-65" transform="translate(287.011719 0.015625)"/>
      <use xlink:href="#DejaVuSans-6e" transform="translate(348.535156 0.015625)"/>
      <use xlink:href="#DejaVuSans-63" transform="translate(411.914062 0.015625)"/>
      <use xlink:href="#DejaVuSans-79" transform="translate(466.894531 0.015625)"/>
      <use xlink:href="#DejaVuSans-20" transform="translate(526.074219 0.015625)"/>
      <use xlink:href="#DejaVuSans-28" transform="translate(557.861328 0.015625)"/>
      <use xlink:href="#DejaVuSans-48" transform="translate(596.875 0.015625)"/>
      <use xlink:href="#DejaVuSans-7a" transform="translate(672.070312 0.015625)"/>
      <use xlink:href="#DejaVuSans-29" transform="translate(724.560547 0.015625)"/>
      <use xlink:href="#DejaVuSans-2c" transform="translate(763.574219 0.015625)"/>
      <use xlink:href="#DejaVuSans-20" transform="translate(795.361328 0.015625)"/>
      <use xlink:href="#DejaVuSans-Oblique-66" transform="translate(827.148438 0.015625)"/>
     </g>
    </g>
   </g>
   <g id="matplotlib.axis_2">
    <g id="ytick_1">
     <g id="line2d_11">
      <path d="M 48.982813 229.152382 
L 568.8 229.152382 
" clip-path="url(#p43549fe1b5)" style="fill: none; stroke-dasharray: 2.96,1.28; stroke-dashoffset: 0; stroke: #b0b0b0; stroke-opacity: 0.8; stroke-width: 0.8"/>
     </g>
     <g id="line2d_12">
      <defs>
       <path id="m9fdcfa1a32" d="M 0 0 
L -3.5 0 
" style="stroke: #000000; stroke-width: 0.8"/>
      </defs>
      <g>
       <use xlink:href="#m9fdcfa1a32" x="48.982813" y="229.152382" style="stroke: #000000; stroke-width: 0.8"/>
      </g>
     </g>
     <g id="text_7">
      <!-- −60 -->
      <g transform="translate(20.878125 232.951601) scale(0.1 -0.1)">
       <defs>
        <path id="DejaVuSans-2212" d="M 678 2272 
L 4684 2272 
L 4684 1741 
L 678 1741 
L 678 2272 
z
" transform="scale(0.015625)"/>
        <path id="DejaVuSans-36" d="M 2113 2584 
Q 1688 2584 1439 2293 
Q 1191 2003 1191 1497 
Q 1191 994 1439 701 
Q 1688 409 2113 409 
Q 2538 409 2786 701 
Q 3034 994 3034 1497 
Q 3034 2003 2786 2293 
Q 2538 2584 2113 2584 
z
M 3366 4563 
L 3366 3988 
Q 3128 4100 2886 4159 
Q 2644 4219 2406 4219 
Q 1781 4219 1451 3797 
Q 1122 3375 1075 2522 
Q 1259 2794 1537 2939 
Q 1816 3084 2150 3084 
Q 2853 3084 3261 2657 
Q 3669 2231 3669 1497 
Q 3669 778 3244 343 
Q 2819 -91 2113 -91 
Q 1303 -91 875 529 
Q 447 1150 447 2328 
Q 447 3434 972 4092 
Q 1497 4750 2381 4750 
Q 2619 4750 2861 4703 
Q 3103 4656 3366 4563 
z
" transform="scale(0.015625)"/>
       </defs>
       <use xlink:href="#DejaVuSans-2212"/>
       <use xlink:href="#DejaVuSans-36" transform="translate(83.789062 0)"/>
       <use xlink:href="#DejaVuSans-30" transform="translate(147.412109 0)"/>
      </g>
     </g>
    </g>
    <g id="ytick_2">
     <g id="line2d_13">
      <path d="M 48.982813 193.65254 
L 568.8 193.65254 
" clip-path="url(#p43549fe1b5)" style="fill: none; stroke-dasharray: 2.96,1.28; stroke-dashoffset: 0; stroke: #b0b0b0; stroke-opacity: 0.8; stroke-width: 0.8"/>
     </g>
     <g id="line2d_14">
      <g>
       <use xlink:href="#m9fdcfa1a32" x="48.982813" y="193.65254" style="stroke: #000000; stroke-width: 0.8"/>
      </g>
     </g>
     <g id="text_8">
      <!-- −50 -->
      <g transform="translate(20.878125 197.451758) scale(0.1 -0.1)">
       <defs>
        <path id="DejaVuSans-35" d="M 691 4666 
L 3169 4666 
L 3169 4134 
L 1269 4134 
L 1269 2991 
Q 1406 3038 1543 3061 
Q 1681 3084 1819 3084 
Q 2600 3084 3056 2656 
Q 3513 2228 3513 1497 
Q 3513 744 3044 326 
Q 2575 -91 1722 -91 
Q 1428 -91 1123 -41 
Q 819 9 494 109 
L 494 744 
Q 775 591 1075 516 
Q 1375 441 1709 441 
Q 2250 441 2565 725 
Q 2881 1009 2881 1497 
Q 2881 1984 2565 2268 
Q 2250 2553 1709 2553 
Q 1456 2553 1204 2497 
Q 953 2441 691 2322 
L 691 4666 
z
" transform="scale(0.015625)"/>
       </defs>
       <use xlink:href="#DejaVuSans-2212"/>
       <use xlink:href="#DejaVuSans-35" transform="translate(83.789062 0)"/>
       <use xlink:href="#DejaVuSans-30" transform="translate(147.412109 0)"/>
      </g>
     </g>
    </g>
    <g id="ytick_3">
     <g id="line2d_15">
      <path d="M 48.982813 158.152697 
L 568.8 158.152697 
" clip-path="url(#p43549fe1b5)" style="fill: none; stroke-dasharray: 2.96,1.28; stroke-dashoffset: 0; stroke: #b0b0b0; stroke-opacity: 0.8; stroke-width: 0.8"/>
     </g>
     <g id="line2d_16">
      <g>
       <use xlink:href="#m9fdcfa1a32" x="48.982813" y="158.152697" style="stroke: #000000; stroke-width: 0.8"/>
      </g>
     </g>
     <g id="text_9">
      <!-- −40 -->
      <g transform="translate(20.878125 161.951916) scale(0.1 -0.1)">
       <defs>
        <path id="DejaVuSans-34" d="M 2419 4116 
L 825 1625 
L 2419 1625 
L 2419 4116 
z
M 2253 4666 
L 3047 4666 
L 3047 1625 
L 3713 1625 
L 3713 1100 
L 3047 1100 
L 3047 0 
L 2419 0 
L 2419 1100 
L 313 1100 
L 313 1709 
L 2253 4666 
z
" transform="scale(0.015625)"/>
       </defs>
       <use xlink:href="#DejaVuSans-2212"/>
       <use xlink:href="#DejaVuSans-34" transform="translate(83.789062 0)"/>
       <use xlink:href="#DejaVuSans-30" transform="translate(147.412109 0)"/>
      </g>
     </g>
    </g>
    <g id="ytick_4">
     <g id="line2d_17">
      <path d="M 48.982813 122.652855 
L 568.8 122.652855 
" clip-path="url(#p43549fe1b5)" style="fill: none; stroke-dasharray: 2.96,1.28; stroke-dashoffset: 0; stroke: #b0b0b0; stroke-opacity: 0.8; stroke-width: 0.8"/>
     </g>
     <g id="line2d_18">
      <g>
       <use xlink:href="#m9fdcfa1a32" x="48.982813" y="122.652855" style="stroke: #000000; stroke-width: 0.8"/>
      </g>
     </g>
     <g id="text_10">
      <!-- −30 -->
      <g transform="translate(20.878125 126.452074) scale(0.1 -0.1)">
       <defs>
        <path id="DejaVuSans-33" d="M 2597 2516 
Q 3050 2419 3304 2112 
Q 3559 1806 3559 1356 
Q 3559 666 3084 287 
Q 2609 -91 1734 -91 
Q 1441 -91 1130 -33 
Q 819 25 488 141 
L 488 750 
Q 750 597 1062 519 
Q 1375 441 1716 441 
Q 2309 441 2620 675 
Q 2931 909 2931 1356 
Q 2931 1769 2642 2001 
Q 2353 2234 1838 2234 
L 1294 2234 
L 1294 2753 
L 1863 2753 
Q 2328 2753 2575 2939 
Q 2822 3125 2822 3475 
Q 2822 3834 2567 4026 
Q 2313 4219 1838 4219 
Q 1578 4219 1281 4162 
Q 984 4106 628 3988 
L 628 4550 
Q 988 4650 1302 4700 
Q 1616 4750 1894 4750 
Q 2613 4750 3031 4423 
Q 3450 4097 3450 3541 
Q 3450 3153 3228 2886 
Q 3006 2619 2597 2516 
z
" transform="scale(0.015625)"/>
       </defs>
       <use xlink:href="#DejaVuSans-2212"/>
       <use xlink:href="#DejaVuSans-33" transform="translate(83.789062 0)"/>
       <use xlink:href="#DejaVuSans-30" transform="translate(147.412109 0)"/>
      </g>
     </g>
    </g>
    <g id="ytick_5">
     <g id="line2d_19">
      <path d="M 48.982813 87.153013 
L 568.8 87.153013 
" clip-path="url(#p43549fe1b5)" style="fill: none; stroke-dasharray: 2.96,1.28; stroke-dashoffset: 0; stroke: #b0b0b0; stroke-opacity: 0.8; stroke-width: 0.8"/>
     </g>
     <g id="line2d_20">
      <g>
       <use xlink:href="#m9fdcfa1a32" x="48.982813" y="87.153013" style="stroke: #000000; stroke-width: 0.8"/>
      </g>
     </g>
     <g id="text_11">
      <!-- −20 -->
      <g transform="translate(20.878125 90.952232) scale(0.1 -0.1)">
       <use xlink:href="#DejaVuSans-2212"/>
       <use xlink:href="#DejaVuSans-32" transform="translate(83.789062 0)"/>
       <use xlink:href="#DejaVuSans-30" transform="translate(147.412109 0)"/>
      </g>
     </g>
    </g>
    <g id="ytick_6">
     <g id="line2d_21">
      <path d="M 48.982813 51.653171 
L 568.8 51.653171 
" clip-path="url(#p43549fe1b5)" style="fill: none; stroke-dasharray: 2.96,1.28; stroke-dashoffset: 0; stroke: #b0b0b0; stroke-opacity: 0.8; stroke-width: 0.8"/>
     </g>
     <g id="line2d_22">
      <g>
       <use xlink:href="#m9fdcfa1a32" x="48.982813" y="51.653171" style="stroke: #000000; stroke-width: 0.8"/>
      </g>
     </g>
     <g id="text_12">
      <!-- −10 -->
      <g transform="translate(20.878125 55.452389) scale(0.1 -0.1)">
       <use xlink:href="#DejaVuSans-2212"/>
       <use xlink:href="#DejaVuSans-31" transform="translate(83.789062 0)"/>
       <use xlink:href="#DejaVuSans-30" transform="translate(147.412109 0)"/>
      </g>
     </g>
    </g>
    <g id="text_13">
     <!-- Power density (dB/Hz) -->
     <g transform="translate(14.798437 191.570938) rotate(-90) scale(0.1 -0.1)">
      <defs>
       <path id="DejaVuSans-50" d="M 1259 4147 
L 1259 2394 
L 2053 2394 
Q 2494 2394 2734 2622 
Q 2975 2850 2975 3272 
Q 2975 3691 2734 3919 
Q 2494 4147 2053 4147 
L 1259 4147 
z
M 628 4666 
L 2053 4666 
Q 2838 4666 3239 4311 
Q 3641 3956 3641 3272 
Q 3641 2581 3239 2228 
Q 2838 1875 2053 1875 
L 1259 1875 
L 1259 0 
L 628 0 
L 628 4666 
z
" transform="scale(0.015625)"/>
       <path id="DejaVuSans-6f" d="M 1959 3097 
Q 1497 3097 1228 2736 
Q 959 2375 959 1747 
Q 959 1119 1226 758 
Q 1494 397 1959 397 
Q 2419 397 2687 759 
Q 2956 1122 2956 1747 
Q 2956 2369 2687 2733 
Q 2419 3097 1959 3097 
z
M 1959 3584 
Q 2709 3584 3137 3096 
Q 3566 2609 3566 1747 
Q 3566 888 3137 398 
Q 2709 -91 1959 -91 
Q 1206 -91 779 398 
Q 353 888 353 1747 
Q 353 2609 779 3096 
Q 1206 3584 1959 3584 
z
" transform="scale(0.015625)"/>
       <path id="DejaVuSans-77" d="M 269 3500 
L 844 3500 
L 1563 769 
L 2278 3500 
L 2956 3500 
L 3675 769 
L 4391 3500 
L 4966 3500 
L 4050 0 
L 3372 0 
L 2619 2869 
L 1863 0 
L 1184 0 
L 269 3500 
z
" transform="scale(0.015625)"/>
       <path id="DejaVuSans-64" d="M 2906 2969 
L 2906 4863 
L 3481 4863 
L 3481 0 
L 2906 0 
L 2906 525 
Q 2725 213 2448 61 
Q 2172 -91 1784 -91 
Q 1150 -91 751 415 
Q 353 922 353 1747 
Q 353 2572 751 3078 
Q 1150 3584 1784 3584 
Q 2172 3584 2448 3432 
Q 2725 3281 2906 2969 
z
M 947 1747 
Q 947 1113 1208 752 
Q 1469 391 1925 391 
Q 2381 391 2643 752 
Q 2906 1113 2906 1747 
Q 2906 2381 2643 2742 
Q 2381 3103 1925 3103 
Q 1469 3103 1208 2742 
Q 947 2381 947 1747 
z
" transform="scale(0.015625)"/>
       <path id="DejaVuSans-73" d="M 2834 3397 
L 2834 2853 
Q 2591 2978 2328 3040 
Q 2066 3103 1784 3103 
Q 1356 3103 1142 2972 
Q 928 2841 928 2578 
Q 928 2378 1081 2264 
Q 1234 2150 1697 2047 
L 1894 2003 
Q 2506 1872 2764 1633 
Q 3022 1394 3022 966 
Q 3022 478 2636 193 
Q 2250 -91 1575 -91 
Q 1294 -91 989 -36 
Q 684 19 347 128 
L 347 722 
Q 666 556 975 473 
Q 1284 391 1588 391 
Q 1994 391 2212 530 
Q 2431 669 2431 922 
Q 2431 1156 2273 1281 
Q 2116 1406 1581 1522 
L 1381 1569 
Q 847 1681 609 1914 
Q 372 2147 372 2553 
Q 372 3047 722 3315 
Q 1072 3584 1716 3584 
Q 2034 3584 2315 3537 
Q 2597 3491 2834 3397 
z
" transform="scale(0.015625)"/>
       <path id="DejaVuSans-69" d="M 603 3500 
L 1178 3500 
L 1178 0 
L 603 0 
L 603 3500 
z
M 603 4863 
L 1178 4863 
L 1178 4134 
L 603 4134 
L 603 4863 
z
" transform="scale(0.015625)"/>
       <path id="DejaVuSans-74" d="M 1172 4494 
L 1172 3500 
L 2356 3500 
L 2356 3053 
L 1172 3053 
L 1172 1153 
Q 1172 725 1289 603 
Q 1406 481 1766 481 
L 2356 481 
L 2356 0 
L 1766 0 
Q 1100 0 847 248 
Q 594 497 594 1153 
L 594 3053 
L 172 3053 
L 172 3500 
L 594 3500 
L 594 4494 
L 1172 4494 
z
" transform="scale(0.015625)"/>
       <path id="DejaVuSans-42" d="M 1259 2228 
L 1259 519 
L 2272 519 
Q 2781 519 3026 730 
Q 3272 941 3272 1375 
Q 3272 1813 3026 2020 
Q 2781 2228 2272 2228 
L 1259 2228 
z
M 1259 4147 
L 1259 2741 
L 2194 2741 
Q 2656 2741 2882 2914 
Q 3109 3088 3109 3444 
Q 3109 3797 2882 3972 
Q 2656 4147 2194 4147 
L 1259 4147 
z
M 628 4666 
L 2241 4666 
Q 2963 4666 3353 4366 
Q 3744 4066 3744 3513 
Q 3744 3084 3544 2831 
Q 3344 2578 2956 2516 
Q 3422 2416 3680 2098 
Q 3938 1781 3938 1306 
Q 3938 681 3513 340 
Q 3088 0 2303 0 
L 628 0 
L 628 4666 
z
" transform="scale(0.015625)"/>
       <path id="DejaVuSans-2f" d="M 1625 4666 
L 2156 4666 
L 531 -594 
L 0 -594 
L 1625 4666 
z
" transform="scale(0.015625)"/>
      </defs>
      <use xlink:href="#DejaVuSans-50"/>
      <use xlink:href="#DejaVuSans-6f" transform="translate(56.677734 0)"/>
      <use xlink:href="#DejaVuSans-77" transform="translate(117.859375 0)"/>
      <use xlink:href="#DejaVuSans-65" transform="translate(199.646484 0)"/>
      <use xlink:href="#DejaVuSans-72" transform="translate(261.169922 0)"/>
      <use xlink:href="#DejaVuSans-20" transform="translate(302.283203 0)"/>
      <use xlink:href="#DejaVuSans-64" transform="translate(334.070312 0)"/>
      <use xlink:href="#DejaVuSans-65" transform="translate(397.546875 0)"/>
      <use xlink:href="#DejaVuSans-6e" transform="translate(459.070312 0)"/>
      <use xlink:href="#DejaVuSans-73" transform="translate(522.449219 0)"/>
      <use xlink:href="#DejaVuSans-69" transform="translate(574.548828 0)"/>
      <use xlink:href="#DejaVuSans-74" transform="translate(602.332031 0)"/>
      <use xlink:href="#DejaVuSans-79" transform="translate(641.541016 0)"/>
      <use xlink:href="#DejaVuSans-20" transform="translate(700.720703 0)"/>
      <use xlink:href="#DejaVuSans-28" transform="translate(732.507812 0)"/>
      <use xlink:href="#DejaVuSans-64" transform="translate(771.521484 0)"/>
      <use xlink:href="#DejaVuSans-42" transform="translate(834.998047 0)"/>
      <use xlink:href="#DejaVuSans-2f" transform="translate(903.601562 0)"/>
      <use xlink:href="#DejaVuSans-48" transform="translate(937.292969 0)"/>
      <use xlink:href="#DejaVuSans-7a" transform="translate(1012.488281 0)"/>
      <use xlink:href="#DejaVuSans-29" transform="translate(1064.978516 0)"/>
     </g>
    </g>
   </g>
   <g id="line2d_23">
    <path d="M 72.610866 212.198022 
L 74.226855 216.292126 
L 76.073698 220.256131 
L 76.535409 221.598533 
L 76.99712 223.650433 
L 77.458831 226.740683 
L 78.151397 232.186205 
L 78.382252 233.199545 
L 78.613108 233.244237 
L 78.843963 232.247427 
L 79.53653 226.005931 
L 79.99824 222.290045 
L 80.459951 220.099206 
L 80.921662 219.25632 
L 81.614229 218.881397 
L 81.845084 218.527039 
L 82.306795 217.102101 
L 83.691927 211.561298 
L 84.153638 210.825229 
L 84.615349 210.589834 
L 86.000482 210.53192 
L 86.693048 210.764584 
L 87.385614 211.003647 
L 88.309036 211.122946 
L 88.539892 211.396019 
L 88.770747 211.910101 
L 89.232458 213.929879 
L 89.694169 217.577856 
L 91.079301 231.183256 
L 91.310157 230.61415 
L 91.771868 226.72341 
L 92.695289 218.029815 
L 93.387856 213.980852 
L 93.849567 212.473146 
L 94.080422 212.108555 
L 94.311278 212.039384 
L 94.542133 212.297867 
L 94.772988 212.915445 
L 95.234699 215.320206 
L 95.69641 219.259276 
L 96.619832 227.719031 
L 96.850687 228.198005 
L 97.081543 227.598962 
L 97.543254 224.250431 
L 98.23582 218.743974 
L 98.697531 216.504683 
L 99.159242 215.523104 
L 99.390097 215.39647 
L 100.313519 215.498634 
L 100.544374 215.252627 
L 101.006085 214.163291 
L 102.160362 210.700456 
L 102.391218 210.415127 
L 102.622073 210.340372 
L 102.852929 210.470758 
L 103.31464 211.257255 
L 104.007206 213.221908 
L 105.161483 216.506771 
L 105.623194 217.401663 
L 106.084905 217.868845 
L 106.31576 217.907896 
L 106.546616 217.811079 
L 107.008327 217.235279 
L 107.470037 216.237096 
L 108.393459 213.485557 
L 109.316881 210.92084 
L 109.778592 210.318633 
L 110.009447 210.28979 
L 110.240303 210.469135 
L 110.471158 210.867993 
L 110.932869 212.326252 
L 111.625435 215.862576 
L 112.318002 219.580971 
L 112.548857 220.375017 
L 112.779713 220.764154 
L 113.010568 220.698927 
L 113.241423 220.200885 
L 113.703134 218.301649 
L 114.395701 215.189583 
L 114.857411 214.174268 
L 115.088267 214.177218 
L 115.319122 214.569286 
L 115.549978 215.371693 
L 116.011689 218.209615 
L 116.93511 226.191373 
L 117.165966 227.047146 
L 117.396821 226.732762 
L 117.627677 225.292517 
L 119.012809 213.093646 
L 119.243665 212.340933 
L 119.47452 212.058818 
L 119.705376 212.213902 
L 119.936231 212.753975 
L 120.397942 214.67248 
L 121.090508 217.905423 
L 121.552219 218.938733 
L 121.783075 218.987786 
L 122.01393 218.788836 
L 122.475641 217.958356 
L 123.860773 215.13923 
L 125.245906 212.973727 
L 126.169328 211.722158 
L 126.400183 211.610867 
L 126.631039 211.677894 
L 126.861894 211.975761 
L 127.09275 212.550573 
L 127.55446 214.651586 
L 128.247027 219.994039 
L 128.939593 225.280026 
L 129.170449 226.088927 
L 129.401304 226.222894 
L 129.632159 225.762082 
L 130.09387 223.722133 
L 131.017292 218.062035 
L 132.402425 209.008632 
L 132.864136 207.180047 
L 133.325846 206.242807 
L 133.556702 206.063845 
L 133.787557 206.034852 
L 134.249268 206.281519 
L 134.941834 207.02289 
L 135.634401 208.13242 
L 136.326967 209.873661 
L 137.250389 212.487906 
L 137.7121 213.123985 
L 137.942955 213.160833 
L 138.173811 213.022053 
L 138.635521 212.349918 
L 139.328088 210.822537 
L 140.71322 207.541971 
L 140.944076 207.315535 
L 141.174931 207.300599 
L 141.405787 207.526844 
L 141.867498 208.715396 
L 143.021775 213.027248 
L 143.25263 213.284111 
L 143.483486 213.23102 
L 144.406907 212.164507 
L 144.637763 212.29628 
L 144.868618 212.744638 
L 145.330329 214.654125 
L 146.022895 219.466001 
L 146.715462 223.870755 
L 146.946317 224.584362 
L 147.177173 224.843031 
L 147.408028 224.728151 
L 147.869739 223.896636 
L 148.562305 222.690008 
L 149.024016 222.415118 
L 149.485727 222.567399 
L 149.947438 223.037232 
L 150.640004 224.101558 
L 151.33257 225.525895 
L 152.255992 227.583083 
L 152.486848 227.735033 
L 152.717703 227.570996 
L 152.948559 227.06706 
L 153.410269 225.268074 
L 154.333691 221.234598 
L 155.026257 219.228779 
L 155.718824 217.925114 
L 156.180535 217.456457 
L 156.41139 217.403883 
L 156.642246 217.523051 
L 156.873101 217.862733 
L 157.334812 219.398312 
L 157.796523 222.222674 
L 158.9508 230.386713 
L 159.181655 231.027592 
L 159.412511 231.08471 
L 159.643366 230.413154 
L 159.874222 228.897317 
L 161.028499 217.924149 
L 161.259354 217.469535 
L 161.721065 217.896709 
L 161.951921 217.370039 
L 162.644487 211.907194 
L 162.875342 212.572579 
L 163.337053 222.632919 
L 163.567909 213.830629 
L 164.260475 163.150742 
L 164.953041 134.643286 
L 165.645608 117.313112 
L 166.107318 109.97852 
L 166.569029 105.441797 
L 167.03074 103.470704 
L 167.261596 103.414503 
L 167.492451 103.975321 
L 167.723307 105.1602 
L 168.185017 109.469459 
L 168.646728 116.574274 
L 169.108439 126.926157 
L 169.57015 141.385825 
L 170.031861 161.718288 
L 170.955283 211.040355 
L 171.416994 203.933604 
L 171.647849 203.786183 
L 172.10956 207.859304 
L 172.340415 209.777335 
L 172.571271 210.432941 
L 172.802126 209.989259 
L 173.263837 208.796772 
L 173.494692 209.085348 
L 173.725548 210.19071 
L 174.187259 214.694736 
L 175.341536 229.568227 
L 175.572391 229.081406 
L 176.034102 223.491033 
L 176.726669 214.606467 
L 177.188379 211.580005 
L 177.419235 210.921651 
L 177.65009 210.728758 
L 177.880946 210.904918 
L 178.342657 211.94903 
L 179.035223 213.802202 
L 179.496934 214.51193 
L 179.958645 214.763531 
L 180.420356 214.895199 
L 180.882066 215.336729 
L 181.343777 216.387058 
L 182.267199 219.469277 
L 182.498054 219.785563 
L 182.72891 219.632171 
L 182.959765 218.975758 
L 183.652332 215.260957 
L 184.114043 213.188115 
L 184.344898 212.681925 
L 184.575753 212.609922 
L 184.806609 212.986834 
L 185.26832 214.966595 
L 186.191741 220.178668 
L 186.422597 220.458833 
L 186.653452 220.026279 
L 187.115163 217.531529 
L 188.038585 211.36739 
L 188.500296 209.275763 
L 188.962007 208.114083 
L 189.192862 207.917223 
L 189.423718 208.002206 
L 189.654573 208.390451 
L 190.116284 210.13952 
L 190.577995 213.132833 
L 191.501417 219.594999 
L 191.732272 220.083404 
L 191.963127 219.848686 
L 192.424838 217.902366 
L 192.886549 215.689695 
L 193.117405 214.956348 
L 193.34826 214.594262 
L 193.579115 214.636842 
L 193.809971 215.086965 
L 194.271682 217.108459 
L 194.964248 222.004434 
L 195.656814 226.461484 
L 195.88767 227.254427 
L 196.118525 227.582801 
L 196.349381 227.452503 
L 196.580236 226.905698 
L 197.041947 224.796135 
L 197.734513 219.996299 
L 198.657935 213.319753 
L 199.119646 210.920808 
L 199.581357 209.4498 
L 200.043068 208.886488 
L 200.273923 208.900824 
L 200.735634 209.396238 
L 201.197345 210.353143 
L 202.120767 213.017547 
L 202.813333 214.726683 
L 203.044188 215.006462 
L 203.275044 215.104991 
L 203.736755 214.906094 
L 204.198466 214.686759 
L 204.429321 214.769272 
L 204.660176 215.043552 
L 205.121887 216.101489 
L 205.583598 217.159823 
L 205.814454 217.252274 
L 206.045309 216.829174 
L 206.50702 214.362524 
L 207.892153 204.43131 
L 208.353863 202.821885 
L 208.815574 202.19388 
L 209.04643 202.206016 
L 209.277285 202.418925 
L 209.738996 203.434995 
L 210.200707 205.287442 
L 210.662418 208.106784 
L 211.354984 214.439796 
L 212.970972 232.710671 
L 213.201828 233.528153 
L 213.432683 233.635642 
L 213.663538 233.215137 
L 214.356105 230.63803 
L 215.741237 224.808247 
L 217.818936 214.484758 
L 218.049792 214.129503 
L 218.280647 214.046288 
L 218.511503 214.229168 
L 218.973214 215.296806 
L 220.589202 220.747366 
L 221.050912 221.295769 
L 221.512623 221.457065 
L 222.666901 221.574568 
L 223.128611 221.828256 
L 223.821178 222.512405 
L 224.513744 223.235972 
L 224.975455 223.381297 
L 225.20631 223.238893 
L 225.437166 222.898308 
L 225.898877 221.519341 
L 226.591443 217.978739 
L 227.514865 213.300179 
L 227.976576 212.043988 
L 228.207431 211.752255 
L 228.438286 211.667321 
L 228.669142 211.763615 
L 229.130853 212.384516 
L 229.592564 213.438452 
L 230.28513 215.801118 
L 231.208552 219.491296 
L 231.439407 219.758067 
L 231.670263 219.430067 
L 231.901118 218.476973 
L 232.593684 213.465422 
L 233.055395 210.426378 
L 233.517106 208.794532 
L 233.747962 208.585643 
L 233.978817 208.759048 
L 234.440528 210.020879 
L 235.36395 213.294416 
L 235.594805 213.642911 
L 235.82566 213.725765 
L 236.056516 213.592986 
L 236.749082 212.604812 
L 237.672504 211.364887 
L 238.134215 211.125652 
L 238.36507 211.232303 
L 238.595926 211.565781 
L 238.826781 212.183824 
L 239.288492 214.466394 
L 239.750203 218.300194 
L 240.90448 229.558186 
L 241.135335 229.938944 
L 241.366191 229.367969 
L 242.289613 224.601956 
L 242.520468 224.134938 
L 242.751324 224.170256 
L 242.982179 224.694774 
L 243.44389 226.829183 
L 243.905601 228.874491 
L 244.136456 229.032792 
L 244.367312 228.327043 
L 244.829022 224.957648 
L 245.521589 219.723614 
L 245.9833 218.182678 
L 246.214155 218.05309 
L 246.445011 218.24501 
L 246.906721 218.978946 
L 247.137577 219.127351 
L 247.368432 218.884954 
L 247.599288 218.163244 
L 248.060999 215.475696 
L 249.446131 205.737669 
L 250.138698 202.556872 
L 250.600408 201.539667 
L 250.831264 201.467737 
L 251.062119 201.730527 
L 251.292975 202.35253 
L 251.754686 204.719564 
L 252.216396 208.503592 
L 253.601529 221.70628 
L 254.06324 223.649266 
L 254.524951 224.35145 
L 254.755806 224.432919 
L 255.217517 224.241206 
L 256.371794 222.992542 
L 256.60265 223.039885 
L 256.833505 223.326455 
L 257.295216 224.734957 
L 257.987782 228.597123 
L 258.449493 230.933415 
L 258.680349 231.332993 
L 258.911204 230.933615 
L 259.14206 229.703657 
L 259.60377 225.447683 
L 260.527192 215.944902 
L 260.988903 212.563597 
L 261.450614 210.420142 
L 261.912325 209.507164 
L 262.14318 209.489543 
L 262.374036 209.74469 
L 262.835747 210.981788 
L 263.528313 214.07483 
L 264.220879 217.12159 
L 264.68259 218.275797 
L 265.144301 218.780891 
L 265.606012 219.270343 
L 266.067723 220.396528 
L 266.529434 222.457059 
L 267.914566 230.305377 
L 268.145422 230.851262 
L 268.376277 231.005048 
L 268.607132 230.774174 
L 269.068843 229.307195 
L 270.684831 221.925811 
L 270.915687 221.775729 
L 271.146542 222.036424 
L 271.377398 222.725571 
L 271.839109 225.338448 
L 272.993386 233.921942 
L 273.224241 234.307964 
L 273.455097 233.921273 
L 273.916808 231.424495 
L 275.994506 216.905458 
L 276.917928 212.219321 
L 277.610495 209.745154 
L 278.072205 208.908886 
L 278.303061 208.786086 
L 278.533916 208.860345 
L 278.995627 209.507238 
L 279.919049 211.339435 
L 280.38076 211.705179 
L 281.304182 211.787562 
L 281.765892 212.304421 
L 282.227603 213.391316 
L 283.38188 216.565284 
L 283.612736 216.769873 
L 283.843591 216.761738 
L 284.305302 216.27292 
L 284.997869 215.270997 
L 285.459579 215.005698 
L 285.690435 215.073947 
L 286.152146 215.584808 
L 287.075567 216.901039 
L 288.4607 217.906491 
L 288.922411 218.709364 
L 289.384122 220.066833 
L 289.845833 222.530351 
L 290.769254 229.48516 
L 291.00011 230.162097 
L 291.230965 230.007995 
L 291.692676 228.078495 
L 293.308664 219.426929 
L 293.53952 219.228873 
L 293.770375 219.538755 
L 294.693797 221.967628 
L 294.924652 222.104717 
L 295.155508 222.413237 
L 295.386363 223.296375 
L 295.617219 225.049039 
L 296.54064 235.985861 
L 296.771496 235.639005 
L 297.002351 233.587168 
L 297.464062 226.054438 
L 298.618339 201.467992 
L 298.849195 200.03573 
L 299.08005 200.532097 
L 299.310906 203.147711 
L 300.003472 215.89653 
L 300.234327 211.990975 
L 300.696038 201.917378 
L 300.926894 200.952332 
L 301.157749 203.634491 
L 301.61946 213.941959 
L 302.081171 193.015372 
L 302.542882 178.859203 
L 302.773737 177.770469 
L 303.004593 181.608263 
L 303.235448 193.548806 
L 303.466303 219.166478 
L 303.928014 168.962086 
L 304.389725 148.203207 
L 304.620581 145.237222 
L 304.851436 147.797299 
L 305.082292 160.847447 
L 305.313147 214.234638 
L 305.544002 144.282517 
L 306.005713 100.433714 
L 306.467424 76.583956 
L 307.15999 54.030021 
L 307.852557 40.649754 
L 308.314268 35.504953 
L 308.775979 32.997823 
L 309.006834 32.688267 
L 309.237689 33.000555 
L 309.468545 33.938495 
L 309.930256 37.746141 
L 310.391967 44.316314 
L 310.853677 54.066257 
L 311.315388 67.813153 
L 311.777099 87.35493 
L 312.23881 118.141349 
L 312.469666 144.953203 
L 312.700521 205.36638 
L 312.931376 159.188245 
L 313.162232 146.811907 
L 313.393087 144.37789 
L 313.623943 147.29475 
L 313.854798 154.674922 
L 314.085654 167.294565 
L 314.547364 218.932943 
L 315.009075 184.24771 
L 315.239931 180.304231 
L 315.470786 181.760738 
L 315.701642 187.87625 
L 315.932497 199.277175 
L 316.163353 216.79422 
L 316.394208 223.518998 
L 316.855919 200.927674 
L 317.086774 197.175284 
L 317.31763 197.287347 
L 317.548485 200.453906 
L 318.010196 211.350569 
L 318.241051 213.160784 
L 319.164473 202.91731 
L 319.395329 203.767632 
L 319.85704 209.146638 
L 320.31875 215.195399 
L 320.549606 216.888035 
L 320.780461 217.66377 
L 321.011317 217.919572 
L 321.242172 217.91859 
L 321.473028 217.698075 
L 321.934738 216.555523 
L 322.396449 215.256664 
L 323.089016 213.751387 
L 323.550726 211.564114 
L 324.012437 209.318971 
L 324.243293 208.893338 
L 324.474148 209.198692 
L 324.705004 210.311109 
L 325.166715 214.764037 
L 325.859281 223.247564 
L 326.320992 226.24432 
L 326.782703 227.306656 
L 327.475269 228.444741 
L 327.706124 229.078134 
L 327.93698 230.063601 
L 328.398691 233.638701 
L 329.091257 240.053608 
L 329.322112 239.426997 
L 329.783823 233.092346 
L 330.47639 223.493371 
L 330.9381 220.167187 
L 331.399811 218.743208 
L 331.630667 218.492609 
L 331.861522 218.436339 
L 332.323233 218.677699 
L 333.015799 219.500742 
L 333.708366 220.3623 
L 333.939221 220.452177 
L 334.170077 220.355477 
L 334.400932 220.054378 
L 334.862643 218.948735 
L 335.555209 216.669133 
L 336.247776 213.560067 
L 337.402053 207.435066 
L 337.863764 206.327225 
L 338.094619 206.220839 
L 338.325474 206.391682 
L 338.787185 207.371409 
L 339.479752 209.260367 
L 339.941463 209.867097 
L 340.172318 209.895297 
L 340.634029 209.63727 
L 342.019161 208.657625 
L 342.250017 208.601483 
L 342.480872 208.717318 
L 342.711728 209.080532 
L 343.173439 210.702754 
L 343.63515 213.446287 
L 344.09686 217.216448 
L 344.558571 222.517092 
L 345.020282 228.848337 
L 345.251138 230.605839 
L 345.481993 230.019432 
L 346.405415 220.682128 
L 346.63627 220.442627 
L 346.867126 220.772948 
L 347.097981 220.755133 
L 347.328837 219.565506 
L 348.021403 213.85995 
L 348.252258 214.569114 
L 348.483114 217.622034 
L 348.944825 225.335086 
L 349.17568 220.240772 
L 349.637391 204.204262 
L 349.868246 200.371923 
L 350.099102 200.484685 
L 350.329957 205.87921 
L 350.791668 231.722059 
L 351.253379 185.353795 
L 351.71509 167.672985 
L 351.945945 165.707402 
L 352.176801 169.474372 
L 352.638512 206.304638 
L 352.869367 159.318848 
L 353.331078 119.120874 
L 353.792789 96.228961 
L 354.485355 74.404927 
L 354.947066 65.003417 
L 355.408777 58.724222 
L 355.870488 55.178509 
L 356.101343 54.366359 
L 356.332199 54.178864 
L 356.563054 54.613959 
L 356.793909 55.677151 
L 357.25562 59.750616 
L 357.717331 66.625511 
L 358.179042 76.757316 
L 358.640753 91.049346 
L 359.102464 111.556701 
L 359.564175 145.008188 
L 360.025886 198.670191 
L 360.256741 171.867882 
L 360.487596 163.68279 
L 360.718452 162.669453 
L 360.949307 166.092227 
L 361.180163 173.274902 
L 361.872729 210.767011 
L 362.103584 206.979479 
L 362.33444 200.819212 
L 362.565295 198.484106 
L 362.796151 199.75815 
L 363.257862 209.737961 
L 363.488717 214.587261 
L 363.719573 215.358339 
L 364.181283 210.727421 
L 364.412139 210.023854 
L 364.642994 211.190304 
L 365.566416 221.966406 
L 365.797271 221.260001 
L 366.258982 218.616452 
L 366.489838 218.170776 
L 366.720693 218.3944 
L 367.41326 220.474317 
L 367.87497 222.380617 
L 368.336681 225.965482 
L 368.798392 229.142977 
L 369.029248 228.683508 
L 369.490958 223.608279 
L 369.952669 218.050098 
L 370.41438 214.767806 
L 370.876091 213.530542 
L 371.106947 213.410195 
L 371.568657 213.663386 
L 372.030368 213.947148 
L 372.261224 213.845997 
L 372.492079 213.463539 
L 372.95379 211.777791 
L 375.262344 200.35345 
L 375.724055 199.166967 
L 375.954911 198.900543 
L 376.185766 198.904059 
L 376.416622 199.209919 
L 376.647477 199.843488 
L 377.109188 202.151162 
L 377.570899 205.81143 
L 378.725176 216.946458 
L 378.956031 218.181938 
L 379.186887 218.723863 
L 379.417742 218.602201 
L 379.648598 217.949202 
L 380.341164 214.471618 
L 381.03373 211.178054 
L 381.495441 209.97284 
L 381.726297 209.794676 
L 381.957152 209.939124 
L 382.188007 210.420518 
L 382.649718 212.328964 
L 383.342285 216.024608 
L 383.57314 216.631739 
L 383.803996 216.549654 
L 384.034851 215.754203 
L 385.419984 208.326305 
L 385.650839 208.250037 
L 385.881694 208.658377 
L 386.343405 210.827117 
L 387.497683 219.050124 
L 387.728538 219.674543 
L 387.959393 219.699527 
L 388.190249 219.268696 
L 388.882815 217.369769 
L 389.113671 217.064167 
L 389.344526 217.040835 
L 389.575381 217.296637 
L 390.037092 218.460583 
L 390.960514 221.124871 
L 391.422225 221.594648 
L 391.65308 221.56029 
L 391.883936 221.346735 
L 392.114791 220.935661 
L 392.576502 219.400717 
L 393.038213 216.868721 
L 394.19249 209.525058 
L 394.654201 207.745469 
L 395.115912 206.99628 
L 395.346767 206.999156 
L 395.577623 207.237983 
L 396.039334 208.375836 
L 396.501045 210.349884 
L 397.193611 214.878441 
L 398.578744 225.512424 
L 398.809599 225.927964 
L 399.040454 225.685303 
L 399.502165 223.885894 
L 400.194732 220.851276 
L 400.656442 219.839659 
L 400.887298 219.697639 
L 401.118153 219.772096 
L 401.579864 220.44393 
L 402.272431 222.239125 
L 402.964997 224.040267 
L 403.426708 224.590175 
L 403.657563 224.546546 
L 403.888419 224.28765 
L 404.350129 223.30186 
L 405.042696 221.688106 
L 405.504407 221.122832 
L 405.966118 220.967455 
L 406.427828 220.815857 
L 406.889539 220.202768 
L 407.582106 218.388394 
L 408.043816 217.257922 
L 408.505527 216.725088 
L 408.736383 216.72556 
L 409.198094 217.127698 
L 409.89066 217.818115 
L 410.121515 217.8334 
L 410.583226 217.465119 
L 411.275793 216.639186 
L 411.506648 216.519569 
L 411.737503 216.532936 
L 412.199214 216.914896 
L 412.660925 217.426451 
L 412.891781 217.527967 
L 413.122636 217.417895 
L 413.353491 217.050452 
L 413.815202 215.59955 
L 414.96948 211.287286 
L 415.43119 210.594259 
L 415.662046 210.545664 
L 415.892901 210.676956 
L 416.354612 211.354824 
L 417.047178 212.616507 
L 417.278034 212.812154 
L 417.508889 212.773523 
L 417.739745 212.462869 
L 418.201456 211.10261 
L 419.124877 207.761433 
L 419.355733 207.309931 
L 419.586588 207.115 
L 419.817444 207.186379 
L 420.048299 207.511668 
L 420.51001 208.777527 
L 422.125998 214.238229 
L 424.665408 220.990628 
L 424.896263 221.233298 
L 425.127119 221.299302 
L 425.357974 221.15301 
L 425.58883 220.773742 
L 426.050541 219.362784 
L 427.435673 213.851929 
L 427.897384 212.875444 
L 428.359095 212.510264 
L 428.820806 212.607602 
L 430.667649 213.813395 
L 431.12936 214.636663 
L 431.821926 216.75046 
L 432.283637 218.055515 
L 432.514493 218.375451 
L 432.745348 218.376948 
L 432.976204 218.062745 
L 434.130481 215.153867 
L 434.361336 215.02675 
L 434.592192 215.181891 
L 434.823047 215.618259 
L 435.284758 217.2019 
L 436.439035 221.869651 
L 436.900746 222.800026 
L 437.824168 224.335693 
L 438.74759 226.244629 
L 438.978445 226.425165 
L 439.2093 226.409472 
L 439.671011 225.939436 
L 440.132722 225.398416 
L 440.363578 225.29454 
L 440.594433 225.365516 
L 440.825288 225.623244 
L 441.286999 226.600136 
L 442.210421 228.732223 
L 443.133843 230.050372 
L 443.595554 231.470963 
L 444.28812 234.280155 
L 444.518975 234.63629 
L 444.749831 234.264413 
L 444.980686 233.063061 
L 445.442397 228.792077 
L 446.365819 219.735696 
L 446.82753 216.929349 
L 447.289241 215.324032 
L 447.981807 214.131357 
L 448.443518 213.172321 
L 448.905229 211.568348 
L 450.059506 206.893168 
L 450.521217 206.061333 
L 450.752072 205.98009 
L 450.982928 206.114646 
L 451.444639 206.971025 
L 451.906349 208.5202 
L 452.598916 212.075302 
L 453.753193 219.088385 
L 453.984048 219.440459 
L 454.214904 219.053793 
L 454.676615 216.432321 
L 455.600036 210.00452 
L 456.061747 208.484805 
L 456.292603 208.30954 
L 456.523458 208.531117 
L 456.754314 209.146878 
L 457.216025 211.535986 
L 457.677735 215.384819 
L 459.062868 229.204807 
L 459.293723 229.669239 
L 459.524579 229.200348 
L 459.98629 226.23953 
L 460.678856 219.409673 
L 462.294844 201.984026 
L 462.756555 199.338183 
L 462.98741 198.693365 
L 463.218266 198.5312 
L 463.449121 198.863009 
L 463.679977 199.690625 
L 464.141688 202.77224 
L 465.52682 216.048184 
L 465.757676 216.875728 
L 465.988531 217.158906 
L 466.450242 217.115266 
L 466.681097 217.274578 
L 466.911953 217.766259 
L 467.373664 219.938134 
L 468.297086 225.782412 
L 468.527941 225.881068 
L 468.758796 224.981692 
L 469.220507 221.135452 
L 469.913074 215.200681 
L 470.374784 213.208043 
L 470.60564 212.967308 
L 470.836495 213.240861 
L 471.067351 214.012095 
L 471.529062 216.798787 
L 471.990772 220.052099 
L 472.221628 220.981118 
L 472.452483 220.900845 
L 472.683339 219.67757 
L 473.14505 214.906418 
L 473.837616 207.442889 
L 474.299327 204.26219 
L 474.761038 202.715704 
L 474.991893 202.493692 
L 475.222749 202.592703 
L 475.453604 202.974719 
L 475.915315 204.433321 
L 476.607881 207.798523 
L 477.762158 214.029218 
L 478.223869 215.527285 
L 478.454725 215.775908 
L 478.68558 215.613891 
L 478.916436 215.029445 
L 479.378146 212.793843 
L 480.532424 205.925023 
L 480.994135 204.5671 
L 481.22499 204.379983 
L 481.455845 204.544205 
L 481.686701 205.065999 
L 482.148412 207.16839 
L 482.610123 210.577394 
L 483.533544 219.965859 
L 484.226111 226.332006 
L 484.456966 227.588358 
L 484.687822 228.216629 
L 484.918677 228.196698 
L 485.149532 227.595318 
L 485.611243 225.215379 
L 486.534665 219.807871 
L 486.996376 218.061767 
L 487.458087 217.005396 
L 488.612364 214.948378 
L 489.535786 212.351534 
L 490.228352 210.007127 
L 490.920918 206.940482 
L 491.84434 202.850823 
L 492.306051 201.898836 
L 492.536906 201.869675 
L 492.767762 202.172148 
L 492.998617 202.816289 
L 493.460328 205.110726 
L 494.152894 210.657155 
L 495.307172 220.854175 
L 495.768883 222.952022 
L 495.999738 223.295612 
L 496.230593 223.171122 
L 496.461449 222.624195 
L 496.92316 220.573219 
L 498.308292 213.313837 
L 498.770003 212.362626 
L 499.000859 212.326322 
L 499.231714 212.589914 
L 499.693425 213.938031 
L 500.847702 218.842822 
L 501.078558 219.322508 
L 501.309413 219.535744 
L 501.771124 219.446569 
L 502.232835 219.258356 
L 502.694546 219.330092 
L 503.156256 219.456656 
L 503.387112 219.387266 
L 503.617967 219.162504 
L 504.079678 218.237245 
L 505.233955 215.426671 
L 505.695666 215.037932 
L 505.926522 215.067028 
L 506.157377 215.248486 
L 506.619088 216.087184 
L 507.080799 217.604368 
L 507.773365 220.993509 
L 508.235076 223.150647 
L 508.465932 223.710127 
L 508.696787 223.674777 
L 508.927642 222.966745 
L 509.389353 219.945158 
L 510.08192 214.662935 
L 510.54363 212.601493 
L 510.774486 212.255077 
L 511.005341 212.410662 
L 511.236197 213.083245 
L 511.697908 215.966168 
L 512.390474 223.376354 
L 512.852185 228.487574 
L 513.08304 230.223444 
L 513.313896 231.101951 
L 513.544751 231.133476 
L 513.775607 230.508753 
L 514.237317 228.218587 
L 516.545872 214.993174 
L 517.238438 212.7914 
L 518.392715 210.140061 
L 519.085282 208.968277 
L 519.546993 208.619474 
L 519.777848 208.624264 
L 520.008703 208.764479 
L 520.470414 209.486712 
L 520.932125 210.842077 
L 521.393836 212.849385 
L 523.009824 221.35631 
L 523.24068 221.728273 
L 523.471535 221.741136 
L 523.933246 221.106969 
L 524.394957 220.570071 
L 524.625812 220.660616 
L 524.856668 221.097188 
L 525.318378 223.067187 
L 526.010945 227.226478 
L 526.2418 227.935124 
L 526.472656 227.833049 
L 526.703511 226.890397 
L 528.088644 217.699661 
L 528.550355 216.694895 
L 529.242921 216.029024 
L 529.704632 214.970619 
L 530.858909 211.139183 
L 531.089764 210.82337 
L 531.32062 210.770466 
L 531.551475 210.975511 
L 532.013186 212.008513 
L 532.705752 213.905867 
L 532.936608 214.192758 
L 533.167463 214.1365 
L 533.398319 213.687367 
L 533.86003 211.678456 
L 535.476018 202.352408 
L 535.706873 201.881874 
L 535.937729 201.801732 
L 536.168584 202.14845 
L 536.399439 202.952457 
L 536.86115 206.018494 
L 537.322861 211.029986 
L 538.246283 223.16653 
L 538.477138 224.688936 
L 538.707994 224.994111 
L 538.938849 224.31132 
L 539.862271 219.871349 
L 540.093126 219.448787 
L 540.323982 219.375867 
L 540.554837 219.583514 
L 541.247404 220.708053 
L 541.478259 220.785789 
L 541.709114 220.531455 
L 542.170825 218.996232 
L 543.786813 211.501978 
L 544.248524 210.767134 
L 544.47938 210.715731 
L 544.710235 210.859079 
L 545.171946 211.633571 
L 545.171946 211.633571 
" clip-path="url(#p43549fe1b5)" style="fill: none; stroke: #1f77b4; stroke-linecap: square"/>
   </g>
   <g id="patch_3">
    <path d="M 48.982813 250.421875 
L 48.982813 22.32 
" style="fill: none; stroke: #000000; stroke-width: 0.8; stroke-linejoin: miter; stroke-linecap: square"/>
   </g>
   <g id="patch_4">
    <path d="M 568.8 250.421875 
L 568.8 22.32 
" style="fill: none; stroke: #000000; stroke-width: 0.8; stroke-linejoin: miter; stroke-linecap: square"/>
   </g>
   <g id="patch_5">
    <path d="M 48.982813 250.421875 
L 568.8 250.421875 
" style="fill: none; stroke: #000000; stroke-width: 0.8; stroke-linejoin: miter; stroke-linecap: square"/>
   </g>
   <g id="patch_6">
    <path d="M 48.982813 22.32 
L 568.8 22.32 
" style="fill: none; stroke: #000000; stroke-width: 0.8; stroke-linejoin: miter; stroke-linecap: square"/>
   </g>
   <g id="text_14">
    <!-- Periodogram of $x_c[n]$ -->
    <g transform="translate(246.371406 16.32) scale(0.12 -0.12)">
     <defs>
      <path id="DejaVuSans-67" d="M 2906 1791 
Q 2906 2416 2648 2759 
Q 2391 3103 1925 3103 
Q 1463 3103 1205 2759 
Q 947 2416 947 1791 
Q 947 1169 1205 825 
Q 1463 481 1925 481 
Q 2391 481 2648 825 
Q 2906 1169 2906 1791 
z
M 3481 434 
Q 3481 -459 3084 -895 
Q 2688 -1331 1869 -1331 
Q 1566 -1331 1297 -1286 
Q 1028 -1241 775 -1147 
L 775 -588 
Q 1028 -725 1275 -790 
Q 1522 -856 1778 -856 
Q 2344 -856 2625 -561 
Q 2906 -266 2906 331 
L 2906 616 
Q 2728 306 2450 153 
Q 2172 0 1784 0 
Q 1141 0 747 490 
Q 353 981 353 1791 
Q 353 2603 747 3093 
Q 1141 3584 1784 3584 
Q 2172 3584 2450 3431 
Q 2728 3278 2906 2969 
L 2906 3500 
L 3481 3500 
L 3481 434 
z
" transform="scale(0.015625)"/>
      <path id="DejaVuSans-61" d="M 2194 1759 
Q 1497 1759 1228 1600 
Q 959 1441 959 1056 
Q 959 750 1161 570 
Q 1363 391 1709 391 
Q 2188 391 2477 730 
Q 2766 1069 2766 1631 
L 2766 1759 
L 2194 1759 
z
M 3341 1997 
L 3341 0 
L 2766 0 
L 2766 531 
Q 2569 213 2275 61 
Q 1981 -91 1556 -91 
Q 1019 -91 701 211 
Q 384 513 384 1019 
Q 384 1609 779 1909 
Q 1175 2209 1959 2209 
L 2766 2209 
L 2766 2266 
Q 2766 2663 2505 2880 
Q 2244 3097 1772 3097 
Q 1472 3097 1187 3025 
Q 903 2953 641 2809 
L 641 3341 
Q 956 3463 1253 3523 
Q 1550 3584 1831 3584 
Q 2591 3584 2966 3190 
Q 3341 2797 3341 1997 
z
" transform="scale(0.015625)"/>
      <path id="DejaVuSans-6d" d="M 3328 2828 
Q 3544 3216 3844 3400 
Q 4144 3584 4550 3584 
Q 5097 3584 5394 3201 
Q 5691 2819 5691 2113 
L 5691 0 
L 5113 0 
L 5113 2094 
Q 5113 2597 4934 2840 
Q 4756 3084 4391 3084 
Q 3944 3084 3684 2787 
Q 3425 2491 3425 1978 
L 3425 0 
L 2847 0 
L 2847 2094 
Q 2847 2600 2669 2842 
Q 2491 3084 2119 3084 
Q 1678 3084 1418 2786 
Q 1159 2488 1159 1978 
L 1159 0 
L 581 0 
L 581 3500 
L 1159 3500 
L 1159 2956 
Q 1356 3278 1631 3431 
Q 1906 3584 2284 3584 
Q 2666 3584 2933 3390 
Q 3200 3197 3328 2828 
z
" transform="scale(0.015625)"/>
      <path id="DejaVuSans-66" d="M 2375 4863 
L 2375 4384 
L 1825 4384 
Q 1516 4384 1395 4259 
Q 1275 4134 1275 3809 
L 1275 3500 
L 2222 3500 
L 2222 3053 
L 1275 3053 
L 1275 0 
L 697 0 
L 697 3053 
L 147 3053 
L 147 3500 
L 697 3500 
L 697 3744 
Q 697 4328 969 4595 
Q 1241 4863 1831 4863 
L 2375 4863 
z
" transform="scale(0.015625)"/>
      <path id="DejaVuSans-Oblique-78" d="M 3841 3500 
L 2234 1784 
L 3219 0 
L 2559 0 
L 1819 1388 
L 531 0 
L -166 0 
L 1556 1844 
L 641 3500 
L 1300 3500 
L 1972 2234 
L 3144 3500 
L 3841 3500 
z
" transform="scale(0.015625)"/>
      <path id="DejaVuSans-Oblique-63" d="M 3431 3366 
L 3316 2797 
Q 3109 2947 2876 3022 
Q 2644 3097 2394 3097 
Q 2119 3097 1870 3000 
Q 1622 2903 1453 2725 
Q 1184 2453 1037 2087 
Q 891 1722 891 1331 
Q 891 859 1127 628 
Q 1363 397 1844 397 
Q 2081 397 2348 469 
Q 2616 541 2906 684 
L 2797 116 
Q 2547 13 2283 -39 
Q 2019 -91 1741 -91 
Q 1044 -91 669 257 
Q 294 606 294 1253 
Q 294 1797 489 2255 
Q 684 2713 1069 3078 
Q 1331 3328 1684 3456 
Q 2038 3584 2456 3584 
Q 2700 3584 2940 3529 
Q 3181 3475 3431 3366 
z
" transform="scale(0.015625)"/>
      <path id="DejaVuSans-5b" d="M 550 4863 
L 1875 4863 
L 1875 4416 
L 1125 4416 
L 1125 -397 
L 1875 -397 
L 1875 -844 
L 550 -844 
L 550 4863 
z
" transform="scale(0.015625)"/>
      <path id="DejaVuSans-Oblique-6e" d="M 3566 2113 
L 3156 0 
L 2578 0 
L 2988 2091 
Q 3016 2238 3031 2350 
Q 3047 2463 3047 2528 
Q 3047 2791 2881 2937 
Q 2716 3084 2419 3084 
Q 1956 3084 1622 2776 
Q 1288 2469 1184 1941 
L 800 0 
L 225 0 
L 903 3500 
L 1478 3500 
L 1363 2950 
Q 1603 3253 1940 3418 
Q 2278 3584 2650 3584 
Q 3113 3584 3367 3334 
Q 3622 3084 3622 2631 
Q 3622 2519 3608 2391 
Q 3594 2263 3566 2113 
z
" transform="scale(0.015625)"/>
      <path id="DejaVuSans-5d" d="M 1947 4863 
L 1947 -844 
L 622 -844 
L 622 -397 
L 1369 -397 
L 1369 4416 
L 622 4416 
L 622 4863 
L 1947 4863 
z
" transform="scale(0.015625)"/>
     </defs>
     <use xlink:href="#DejaVuSans-50" transform="translate(0 0.015625)"/>
     <use xlink:href="#DejaVuSans-65" transform="translate(60.302734 0.015625)"/>
     <use xlink:href="#DejaVuSans-72" transform="translate(121.826172 0.015625)"/>
     <use xlink:href="#DejaVuSans-69" transform="translate(162.939453 0.015625)"/>
     <use xlink:href="#DejaVuSans-6f" transform="translate(190.722656 0.015625)"/>
     <use xlink:href="#DejaVuSans-64" transform="translate(251.904297 0.015625)"/>
     <use xlink:href="#DejaVuSans-6f" transform="translate(315.380859 0.015625)"/>
     <use xlink:href="#DejaVuSans-67" transform="translate(376.5625 0.015625)"/>
     <use xlink:href="#DejaVuSans-72" transform="translate(440.039062 0.015625)"/>
     <use xlink:href="#DejaVuSans-61" transform="translate(481.152344 0.015625)"/>
     <use xlink:href="#DejaVuSans-6d" transform="translate(542.431641 0.015625)"/>
     <use xlink:href="#DejaVuSans-20" transform="translate(639.84375 0.015625)"/>
     <use xlink:href="#DejaVuSans-6f" transform="translate(671.630859 0.015625)"/>
     <use xlink:href="#DejaVuSans-66" transform="translate(732.8125 0.015625)"/>
     <use xlink:href="#DejaVuSans-20" transform="translate(768.017578 0.015625)"/>
     <use xlink:href="#DejaVuSans-Oblique-78" transform="translate(799.804688 0.015625)"/>
     <use xlink:href="#DejaVuSans-Oblique-63" transform="translate(858.984375 -16.390625) scale(0.7)"/>
     <use xlink:href="#DejaVuSans-5b" transform="translate(900.205078 0.015625)"/>
     <use xlink:href="#DejaVuSans-Oblique-6e" transform="translate(939.21875 0.015625)"/>
     <use xlink:href="#DejaVuSans-5d" transform="translate(1002.597656 0.015625)"/>
    </g>
   </g>
  </g>
 </g>
 <defs>
  <clipPath id="p43549fe1b5">
   <rect x="48.982813" y="22.32" width="519.817188" height="228.101875"/>
  </clipPath>
 </defs>
</svg>
