<?xml version="1.0" encoding="utf-8" standalone="no"?>
<!DOCTYPE svg PUBLIC "-//W3C//DTD SVG 1.1//EN"
  "http://www.w3.org/Graphics/SVG/1.1/DTD/svg11.dtd">
<svg xmlns:xlink="http://www.w3.org/1999/xlink" width="576pt" height="288pt" viewBox="0 0 576 288" xmlns="http://www.w3.org/2000/svg" version="1.1">
 <metadata>
  <rdf:RDF xmlns:dc="http://purl.org/dc/elements/1.1/" xmlns:cc="http://creativecommons.org/ns#" xmlns:rdf="http://www.w3.org/1999/02/22-rdf-syntax-ns#">
   <cc:Work>
    <dc:type rdf:resource="http://purl.org/dc/dcmitype/StillImage"/>
    <dc:date>2025-05-10T16:17:36.939064</dc:date>
    <dc:format>image/svg+xml</dc:format>
    <dc:creator>
     <cc:Agent>
      <dc:title>Matplotlib v3.10.3, https://matplotlib.org/</dc:title>
     </cc:Agent>
    </dc:creator>
   </cc:Work>
  </rdf:RDF>
 </metadata>
 <defs>
  <style type="text/css">*{stroke-linejoin: round; stroke-linecap: butt}</style>
 </defs>
 <g id="figure_1">
  <g id="patch_1">
   <path d="M 0 288 
L 576 288 
L 576 0 
L 0 0 
z
" style="fill: #ffffff"/>
  </g>
  <g id="axes_1">
   <g id="patch_2">
    <path d="M 52.160938 250.44375 
L 568.8 250.44375 
L 568.8 22.318125 
L 52.160938 22.318125 
z
" style="fill: #ffffff"/>
   </g>
   <g id="matplotlib.axis_1">
    <g id="xtick_1">
     <g id="line2d_1">
      <path d="M 75.644531 250.44375 
L 75.644531 22.318125 
" clip-path="url(#p1afe9f46b5)" style="fill: none; stroke-dasharray: 2.96,1.28; stroke-dashoffset: 0; stroke: #b0b0b0; stroke-opacity: 0.8; stroke-width: 0.8"/>
     </g>
     <g id="line2d_2">
      <defs>
       <path id="mcc7ee7283d" d="M 0 0 
L 0 3.5 
" style="stroke: #000000; stroke-width: 0.8"/>
      </defs>
      <g>
       <use xlink:href="#mcc7ee7283d" x="75.644531" y="250.44375" style="stroke: #000000; stroke-width: 0.8"/>
      </g>
     </g>
     <g id="text_1">
      <!-- 0 -->
      <g transform="translate(72.463281 265.042188) scale(0.1 -0.1)">
       <defs>
        <path id="DejaVuSans-30" d="M 2034 4250 
Q 1547 4250 1301 3770 
Q 1056 3291 1056 2328 
Q 1056 1369 1301 889 
Q 1547 409 2034 409 
Q 2525 409 2770 889 
Q 3016 1369 3016 2328 
Q 3016 3291 2770 3770 
Q 2525 4250 2034 4250 
z
M 2034 4750 
Q 2819 4750 3233 4129 
Q 3647 3509 3647 2328 
Q 3647 1150 3233 529 
Q 2819 -91 2034 -91 
Q 1250 -91 836 529 
Q 422 1150 422 2328 
Q 422 3509 836 4129 
Q 1250 4750 2034 4750 
z
" transform="scale(0.015625)"/>
       </defs>
       <use xlink:href="#DejaVuSans-30"/>
      </g>
     </g>
    </g>
    <g id="xtick_2">
     <g id="line2d_3">
      <path d="M 154.053859 250.44375 
L 154.053859 22.318125 
" clip-path="url(#p1afe9f46b5)" style="fill: none; stroke-dasharray: 2.96,1.28; stroke-dashoffset: 0; stroke: #b0b0b0; stroke-opacity: 0.8; stroke-width: 0.8"/>
     </g>
     <g id="line2d_4">
      <g>
       <use xlink:href="#mcc7ee7283d" x="154.053859" y="250.44375" style="stroke: #000000; stroke-width: 0.8"/>
      </g>
     </g>
     <g id="text_2">
      <!-- 10 -->
      <g transform="translate(147.691359 265.042188) scale(0.1 -0.1)">
       <defs>
        <path id="DejaVuSans-31" d="M 794 531 
L 1825 531 
L 1825 4091 
L 703 3866 
L 703 4441 
L 1819 4666 
L 2450 4666 
L 2450 531 
L 3481 531 
L 3481 0 
L 794 0 
L 794 531 
z
" transform="scale(0.015625)"/>
       </defs>
       <use xlink:href="#DejaVuSans-31"/>
       <use xlink:href="#DejaVuSans-30" transform="translate(63.623047 0)"/>
      </g>
     </g>
    </g>
    <g id="xtick_3">
     <g id="line2d_5">
      <path d="M 232.463187 250.44375 
L 232.463187 22.318125 
" clip-path="url(#p1afe9f46b5)" style="fill: none; stroke-dasharray: 2.96,1.28; stroke-dashoffset: 0; stroke: #b0b0b0; stroke-opacity: 0.8; stroke-width: 0.8"/>
     </g>
     <g id="line2d_6">
      <g>
       <use xlink:href="#mcc7ee7283d" x="232.463187" y="250.44375" style="stroke: #000000; stroke-width: 0.8"/>
      </g>
     </g>
     <g id="text_3">
      <!-- 20 -->
      <g transform="translate(226.100687 265.042188) scale(0.1 -0.1)">
       <defs>
        <path id="DejaVuSans-32" d="M 1228 531 
L 3431 531 
L 3431 0 
L 469 0 
L 469 531 
Q 828 903 1448 1529 
Q 2069 2156 2228 2338 
Q 2531 2678 2651 2914 
Q 2772 3150 2772 3378 
Q 2772 3750 2511 3984 
Q 2250 4219 1831 4219 
Q 1534 4219 1204 4116 
Q 875 4013 500 3803 
L 500 4441 
Q 881 4594 1212 4672 
Q 1544 4750 1819 4750 
Q 2544 4750 2975 4387 
Q 3406 4025 3406 3419 
Q 3406 3131 3298 2873 
Q 3191 2616 2906 2266 
Q 2828 2175 2409 1742 
Q 1991 1309 1228 531 
z
" transform="scale(0.015625)"/>
       </defs>
       <use xlink:href="#DejaVuSans-32"/>
       <use xlink:href="#DejaVuSans-30" transform="translate(63.623047 0)"/>
      </g>
     </g>
    </g>
    <g id="xtick_4">
     <g id="line2d_7">
      <path d="M 310.872515 250.44375 
L 310.872515 22.318125 
" clip-path="url(#p1afe9f46b5)" style="fill: none; stroke-dasharray: 2.96,1.28; stroke-dashoffset: 0; stroke: #b0b0b0; stroke-opacity: 0.8; stroke-width: 0.8"/>
     </g>
     <g id="line2d_8">
      <g>
       <use xlink:href="#mcc7ee7283d" x="310.872515" y="250.44375" style="stroke: #000000; stroke-width: 0.8"/>
      </g>
     </g>
     <g id="text_4">
      <!-- 30 -->
      <g transform="translate(304.510015 265.042188) scale(0.1 -0.1)">
       <defs>
        <path id="DejaVuSans-33" d="M 2597 2516 
Q 3050 2419 3304 2112 
Q 3559 1806 3559 1356 
Q 3559 666 3084 287 
Q 2609 -91 1734 -91 
Q 1441 -91 1130 -33 
Q 819 25 488 141 
L 488 750 
Q 750 597 1062 519 
Q 1375 441 1716 441 
Q 2309 441 2620 675 
Q 2931 909 2931 1356 
Q 2931 1769 2642 2001 
Q 2353 2234 1838 2234 
L 1294 2234 
L 1294 2753 
L 1863 2753 
Q 2328 2753 2575 2939 
Q 2822 3125 2822 3475 
Q 2822 3834 2567 4026 
Q 2313 4219 1838 4219 
Q 1578 4219 1281 4162 
Q 984 4106 628 3988 
L 628 4550 
Q 988 4650 1302 4700 
Q 1616 4750 1894 4750 
Q 2613 4750 3031 4423 
Q 3450 4097 3450 3541 
Q 3450 3153 3228 2886 
Q 3006 2619 2597 2516 
z
" transform="scale(0.015625)"/>
       </defs>
       <use xlink:href="#DejaVuSans-33"/>
       <use xlink:href="#DejaVuSans-30" transform="translate(63.623047 0)"/>
      </g>
     </g>
    </g>
    <g id="xtick_5">
     <g id="line2d_9">
      <path d="M 389.281843 250.44375 
L 389.281843 22.318125 
" clip-path="url(#p1afe9f46b5)" style="fill: none; stroke-dasharray: 2.96,1.28; stroke-dashoffset: 0; stroke: #b0b0b0; stroke-opacity: 0.8; stroke-width: 0.8"/>
     </g>
     <g id="line2d_10">
      <g>
       <use xlink:href="#mcc7ee7283d" x="389.281843" y="250.44375" style="stroke: #000000; stroke-width: 0.8"/>
      </g>
     </g>
     <g id="text_5">
      <!-- 40 -->
      <g transform="translate(382.919343 265.042188) scale(0.1 -0.1)">
       <defs>
        <path id="DejaVuSans-34" d="M 2419 4116 
L 825 1625 
L 2419 1625 
L 2419 4116 
z
M 2253 4666 
L 3047 4666 
L 3047 1625 
L 3713 1625 
L 3713 1100 
L 3047 1100 
L 3047 0 
L 2419 0 
L 2419 1100 
L 313 1100 
L 313 1709 
L 2253 4666 
z
" transform="scale(0.015625)"/>
       </defs>
       <use xlink:href="#DejaVuSans-34"/>
       <use xlink:href="#DejaVuSans-30" transform="translate(63.623047 0)"/>
      </g>
     </g>
    </g>
    <g id="xtick_6">
     <g id="line2d_11">
      <path d="M 467.691171 250.44375 
L 467.691171 22.318125 
" clip-path="url(#p1afe9f46b5)" style="fill: none; stroke-dasharray: 2.96,1.28; stroke-dashoffset: 0; stroke: #b0b0b0; stroke-opacity: 0.8; stroke-width: 0.8"/>
     </g>
     <g id="line2d_12">
      <g>
       <use xlink:href="#mcc7ee7283d" x="467.691171" y="250.44375" style="stroke: #000000; stroke-width: 0.8"/>
      </g>
     </g>
     <g id="text_6">
      <!-- 50 -->
      <g transform="translate(461.328671 265.042188) scale(0.1 -0.1)">
       <defs>
        <path id="DejaVuSans-35" d="M 691 4666 
L 3169 4666 
L 3169 4134 
L 1269 4134 
L 1269 2991 
Q 1406 3038 1543 3061 
Q 1681 3084 1819 3084 
Q 2600 3084 3056 2656 
Q 3513 2228 3513 1497 
Q 3513 744 3044 326 
Q 2575 -91 1722 -91 
Q 1428 -91 1123 -41 
Q 819 9 494 109 
L 494 744 
Q 775 591 1075 516 
Q 1375 441 1709 441 
Q 2250 441 2565 725 
Q 2881 1009 2881 1497 
Q 2881 1984 2565 2268 
Q 2250 2553 1709 2553 
Q 1456 2553 1204 2497 
Q 953 2441 691 2322 
L 691 4666 
z
" transform="scale(0.015625)"/>
       </defs>
       <use xlink:href="#DejaVuSans-35"/>
       <use xlink:href="#DejaVuSans-30" transform="translate(63.623047 0)"/>
      </g>
     </g>
    </g>
    <g id="xtick_7">
     <g id="line2d_13">
      <path d="M 546.1005 250.44375 
L 546.1005 22.318125 
" clip-path="url(#p1afe9f46b5)" style="fill: none; stroke-dasharray: 2.96,1.28; stroke-dashoffset: 0; stroke: #b0b0b0; stroke-opacity: 0.8; stroke-width: 0.8"/>
     </g>
     <g id="line2d_14">
      <g>
       <use xlink:href="#mcc7ee7283d" x="546.1005" y="250.44375" style="stroke: #000000; stroke-width: 0.8"/>
      </g>
     </g>
     <g id="text_7">
      <!-- 60 -->
      <g transform="translate(539.738 265.042188) scale(0.1 -0.1)">
       <defs>
        <path id="DejaVuSans-36" d="M 2113 2584 
Q 1688 2584 1439 2293 
Q 1191 2003 1191 1497 
Q 1191 994 1439 701 
Q 1688 409 2113 409 
Q 2538 409 2786 701 
Q 3034 994 3034 1497 
Q 3034 2003 2786 2293 
Q 2538 2584 2113 2584 
z
M 3366 4563 
L 3366 3988 
Q 3128 4100 2886 4159 
Q 2644 4219 2406 4219 
Q 1781 4219 1451 3797 
Q 1122 3375 1075 2522 
Q 1259 2794 1537 2939 
Q 1816 3084 2150 3084 
Q 2853 3084 3261 2657 
Q 3669 2231 3669 1497 
Q 3669 778 3244 343 
Q 2819 -91 2113 -91 
Q 1303 -91 875 529 
Q 447 1150 447 2328 
Q 447 3434 972 4092 
Q 1497 4750 2381 4750 
Q 2619 4750 2861 4703 
Q 3103 4656 3366 4563 
z
" transform="scale(0.015625)"/>
       </defs>
       <use xlink:href="#DejaVuSans-36"/>
       <use xlink:href="#DejaVuSans-30" transform="translate(63.623047 0)"/>
      </g>
     </g>
    </g>
    <g id="text_8">
     <!-- Time (ms), $t$ -->
     <g transform="translate(279.980469 278.720312) scale(0.1 -0.1)">
      <defs>
       <path id="DejaVuSans-54" d="M -19 4666 
L 3928 4666 
L 3928 4134 
L 2272 4134 
L 2272 0 
L 1638 0 
L 1638 4134 
L -19 4134 
L -19 4666 
z
" transform="scale(0.015625)"/>
       <path id="DejaVuSans-69" d="M 603 3500 
L 1178 3500 
L 1178 0 
L 603 0 
L 603 3500 
z
M 603 4863 
L 1178 4863 
L 1178 4134 
L 603 4134 
L 603 4863 
z
" transform="scale(0.015625)"/>
       <path id="DejaVuSans-6d" d="M 3328 2828 
Q 3544 3216 3844 3400 
Q 4144 3584 4550 3584 
Q 5097 3584 5394 3201 
Q 5691 2819 5691 2113 
L 5691 0 
L 5113 0 
L 5113 2094 
Q 5113 2597 4934 2840 
Q 4756 3084 4391 3084 
Q 3944 3084 3684 2787 
Q 3425 2491 3425 1978 
L 3425 0 
L 2847 0 
L 2847 2094 
Q 2847 2600 2669 2842 
Q 2491 3084 2119 3084 
Q 1678 3084 1418 2786 
Q 1159 2488 1159 1978 
L 1159 0 
L 581 0 
L 581 3500 
L 1159 3500 
L 1159 2956 
Q 1356 3278 1631 3431 
Q 1906 3584 2284 3584 
Q 2666 3584 2933 3390 
Q 3200 3197 3328 2828 
z
" transform="scale(0.015625)"/>
       <path id="DejaVuSans-65" d="M 3597 1894 
L 3597 1613 
L 953 1613 
Q 991 1019 1311 708 
Q 1631 397 2203 397 
Q 2534 397 2845 478 
Q 3156 559 3463 722 
L 3463 178 
Q 3153 47 2828 -22 
Q 2503 -91 2169 -91 
Q 1331 -91 842 396 
Q 353 884 353 1716 
Q 353 2575 817 3079 
Q 1281 3584 2069 3584 
Q 2775 3584 3186 3129 
Q 3597 2675 3597 1894 
z
M 3022 2063 
Q 3016 2534 2758 2815 
Q 2500 3097 2075 3097 
Q 1594 3097 1305 2825 
Q 1016 2553 972 2059 
L 3022 2063 
z
" transform="scale(0.015625)"/>
       <path id="DejaVuSans-20" transform="scale(0.015625)"/>
       <path id="DejaVuSans-28" d="M 1984 4856 
Q 1566 4138 1362 3434 
Q 1159 2731 1159 2009 
Q 1159 1288 1364 580 
Q 1569 -128 1984 -844 
L 1484 -844 
Q 1016 -109 783 600 
Q 550 1309 550 2009 
Q 550 2706 781 3412 
Q 1013 4119 1484 4856 
L 1984 4856 
z
" transform="scale(0.015625)"/>
       <path id="DejaVuSans-73" d="M 2834 3397 
L 2834 2853 
Q 2591 2978 2328 3040 
Q 2066 3103 1784 3103 
Q 1356 3103 1142 2972 
Q 928 2841 928 2578 
Q 928 2378 1081 2264 
Q 1234 2150 1697 2047 
L 1894 2003 
Q 2506 1872 2764 1633 
Q 3022 1394 3022 966 
Q 3022 478 2636 193 
Q 2250 -91 1575 -91 
Q 1294 -91 989 -36 
Q 684 19 347 128 
L 347 722 
Q 666 556 975 473 
Q 1284 391 1588 391 
Q 1994 391 2212 530 
Q 2431 669 2431 922 
Q 2431 1156 2273 1281 
Q 2116 1406 1581 1522 
L 1381 1569 
Q 847 1681 609 1914 
Q 372 2147 372 2553 
Q 372 3047 722 3315 
Q 1072 3584 1716 3584 
Q 2034 3584 2315 3537 
Q 2597 3491 2834 3397 
z
" transform="scale(0.015625)"/>
       <path id="DejaVuSans-29" d="M 513 4856 
L 1013 4856 
Q 1481 4119 1714 3412 
Q 1947 2706 1947 2009 
Q 1947 1309 1714 600 
Q 1481 -109 1013 -844 
L 513 -844 
Q 928 -128 1133 580 
Q 1338 1288 1338 2009 
Q 1338 2731 1133 3434 
Q 928 4138 513 4856 
z
" transform="scale(0.015625)"/>
       <path id="DejaVuSans-2c" d="M 750 794 
L 1409 794 
L 1409 256 
L 897 -744 
L 494 -744 
L 750 256 
L 750 794 
z
" transform="scale(0.015625)"/>
       <path id="DejaVuSans-Oblique-74" d="M 2706 3500 
L 2619 3053 
L 1472 3053 
L 1100 1153 
Q 1081 1047 1072 975 
Q 1063 903 1063 863 
Q 1063 663 1183 572 
Q 1303 481 1569 481 
L 2150 481 
L 2053 0 
L 1503 0 
Q 991 0 739 200 
Q 488 400 488 806 
Q 488 878 497 964 
Q 506 1050 525 1153 
L 897 3053 
L 409 3053 
L 500 3500 
L 978 3500 
L 1172 4494 
L 1747 4494 
L 1556 3500 
L 2706 3500 
z
" transform="scale(0.015625)"/>
      </defs>
      <use xlink:href="#DejaVuSans-54" transform="translate(0 0.015625)"/>
      <use xlink:href="#DejaVuSans-69" transform="translate(61.083984 0.015625)"/>
      <use xlink:href="#DejaVuSans-6d" transform="translate(88.867188 0.015625)"/>
      <use xlink:href="#DejaVuSans-65" transform="translate(186.279297 0.015625)"/>
      <use xlink:href="#DejaVuSans-20" transform="translate(247.802734 0.015625)"/>
      <use xlink:href="#DejaVuSans-28" transform="translate(279.589844 0.015625)"/>
      <use xlink:href="#DejaVuSans-6d" transform="translate(318.603516 0.015625)"/>
      <use xlink:href="#DejaVuSans-73" transform="translate(416.015625 0.015625)"/>
      <use xlink:href="#DejaVuSans-29" transform="translate(468.115234 0.015625)"/>
      <use xlink:href="#DejaVuSans-2c" transform="translate(507.128906 0.015625)"/>
      <use xlink:href="#DejaVuSans-20" transform="translate(538.916016 0.015625)"/>
      <use xlink:href="#DejaVuSans-Oblique-74" transform="translate(570.703125 0.015625)"/>
     </g>
    </g>
   </g>
   <g id="matplotlib.axis_2">
    <g id="ytick_1">
     <g id="line2d_15">
      <path d="M 52.160938 239.186169 
L 568.8 239.186169 
" clip-path="url(#p1afe9f46b5)" style="fill: none; stroke-dasharray: 2.96,1.28; stroke-dashoffset: 0; stroke: #b0b0b0; stroke-opacity: 0.8; stroke-width: 0.8"/>
     </g>
     <g id="line2d_16">
      <defs>
       <path id="me66e83a53e" d="M 0 0 
L -3.5 0 
" style="stroke: #000000; stroke-width: 0.8"/>
      </defs>
      <g>
       <use xlink:href="#me66e83a53e" x="52.160938" y="239.186169" style="stroke: #000000; stroke-width: 0.8"/>
      </g>
     </g>
     <g id="text_9">
      <!-- −0.4 -->
      <g transform="translate(20.878125 242.985388) scale(0.1 -0.1)">
       <defs>
        <path id="DejaVuSans-2212" d="M 678 2272 
L 4684 2272 
L 4684 1741 
L 678 1741 
L 678 2272 
z
" transform="scale(0.015625)"/>
        <path id="DejaVuSans-2e" d="M 684 794 
L 1344 794 
L 1344 0 
L 684 0 
L 684 794 
z
" transform="scale(0.015625)"/>
       </defs>
       <use xlink:href="#DejaVuSans-2212"/>
       <use xlink:href="#DejaVuSans-30" transform="translate(83.789062 0)"/>
       <use xlink:href="#DejaVuSans-2e" transform="translate(147.412109 0)"/>
       <use xlink:href="#DejaVuSans-34" transform="translate(179.199219 0)"/>
      </g>
     </g>
    </g>
    <g id="ytick_2">
     <g id="line2d_17">
      <path d="M 52.160938 212.374579 
L 568.8 212.374579 
" clip-path="url(#p1afe9f46b5)" style="fill: none; stroke-dasharray: 2.96,1.28; stroke-dashoffset: 0; stroke: #b0b0b0; stroke-opacity: 0.8; stroke-width: 0.8"/>
     </g>
     <g id="line2d_18">
      <g>
       <use xlink:href="#me66e83a53e" x="52.160938" y="212.374579" style="stroke: #000000; stroke-width: 0.8"/>
      </g>
     </g>
     <g id="text_10">
      <!-- −0.3 -->
      <g transform="translate(20.878125 216.173798) scale(0.1 -0.1)">
       <use xlink:href="#DejaVuSans-2212"/>
       <use xlink:href="#DejaVuSans-30" transform="translate(83.789062 0)"/>
       <use xlink:href="#DejaVuSans-2e" transform="translate(147.412109 0)"/>
       <use xlink:href="#DejaVuSans-33" transform="translate(179.199219 0)"/>
      </g>
     </g>
    </g>
    <g id="ytick_3">
     <g id="line2d_19">
      <path d="M 52.160938 185.562989 
L 568.8 185.562989 
" clip-path="url(#p1afe9f46b5)" style="fill: none; stroke-dasharray: 2.96,1.28; stroke-dashoffset: 0; stroke: #b0b0b0; stroke-opacity: 0.8; stroke-width: 0.8"/>
     </g>
     <g id="line2d_20">
      <g>
       <use xlink:href="#me66e83a53e" x="52.160938" y="185.562989" style="stroke: #000000; stroke-width: 0.8"/>
      </g>
     </g>
     <g id="text_11">
      <!-- −0.2 -->
      <g transform="translate(20.878125 189.362207) scale(0.1 -0.1)">
       <use xlink:href="#DejaVuSans-2212"/>
       <use xlink:href="#DejaVuSans-30" transform="translate(83.789062 0)"/>
       <use xlink:href="#DejaVuSans-2e" transform="translate(147.412109 0)"/>
       <use xlink:href="#DejaVuSans-32" transform="translate(179.199219 0)"/>
      </g>
     </g>
    </g>
    <g id="ytick_4">
     <g id="line2d_21">
      <path d="M 52.160938 158.751399 
L 568.8 158.751399 
" clip-path="url(#p1afe9f46b5)" style="fill: none; stroke-dasharray: 2.96,1.28; stroke-dashoffset: 0; stroke: #b0b0b0; stroke-opacity: 0.8; stroke-width: 0.8"/>
     </g>
     <g id="line2d_22">
      <g>
       <use xlink:href="#me66e83a53e" x="52.160938" y="158.751399" style="stroke: #000000; stroke-width: 0.8"/>
      </g>
     </g>
     <g id="text_12">
      <!-- −0.1 -->
      <g transform="translate(20.878125 162.550617) scale(0.1 -0.1)">
       <use xlink:href="#DejaVuSans-2212"/>
       <use xlink:href="#DejaVuSans-30" transform="translate(83.789062 0)"/>
       <use xlink:href="#DejaVuSans-2e" transform="translate(147.412109 0)"/>
       <use xlink:href="#DejaVuSans-31" transform="translate(179.199219 0)"/>
      </g>
     </g>
    </g>
    <g id="ytick_5">
     <g id="line2d_23">
      <path d="M 52.160938 131.939809 
L 568.8 131.939809 
" clip-path="url(#p1afe9f46b5)" style="fill: none; stroke-dasharray: 2.96,1.28; stroke-dashoffset: 0; stroke: #b0b0b0; stroke-opacity: 0.8; stroke-width: 0.8"/>
     </g>
     <g id="line2d_24">
      <g>
       <use xlink:href="#me66e83a53e" x="52.160938" y="131.939809" style="stroke: #000000; stroke-width: 0.8"/>
      </g>
     </g>
     <g id="text_13">
      <!-- 0.0 -->
      <g transform="translate(29.257812 135.739027) scale(0.1 -0.1)">
       <use xlink:href="#DejaVuSans-30"/>
       <use xlink:href="#DejaVuSans-2e" transform="translate(63.623047 0)"/>
       <use xlink:href="#DejaVuSans-30" transform="translate(95.410156 0)"/>
      </g>
     </g>
    </g>
    <g id="ytick_6">
     <g id="line2d_25">
      <path d="M 52.160938 105.128218 
L 568.8 105.128218 
" clip-path="url(#p1afe9f46b5)" style="fill: none; stroke-dasharray: 2.96,1.28; stroke-dashoffset: 0; stroke: #b0b0b0; stroke-opacity: 0.8; stroke-width: 0.8"/>
     </g>
     <g id="line2d_26">
      <g>
       <use xlink:href="#me66e83a53e" x="52.160938" y="105.128218" style="stroke: #000000; stroke-width: 0.8"/>
      </g>
     </g>
     <g id="text_14">
      <!-- 0.1 -->
      <g transform="translate(29.257812 108.927437) scale(0.1 -0.1)">
       <use xlink:href="#DejaVuSans-30"/>
       <use xlink:href="#DejaVuSans-2e" transform="translate(63.623047 0)"/>
       <use xlink:href="#DejaVuSans-31" transform="translate(95.410156 0)"/>
      </g>
     </g>
    </g>
    <g id="ytick_7">
     <g id="line2d_27">
      <path d="M 52.160938 78.316628 
L 568.8 78.316628 
" clip-path="url(#p1afe9f46b5)" style="fill: none; stroke-dasharray: 2.96,1.28; stroke-dashoffset: 0; stroke: #b0b0b0; stroke-opacity: 0.8; stroke-width: 0.8"/>
     </g>
     <g id="line2d_28">
      <g>
       <use xlink:href="#me66e83a53e" x="52.160938" y="78.316628" style="stroke: #000000; stroke-width: 0.8"/>
      </g>
     </g>
     <g id="text_15">
      <!-- 0.2 -->
      <g transform="translate(29.257812 82.115847) scale(0.1 -0.1)">
       <use xlink:href="#DejaVuSans-30"/>
       <use xlink:href="#DejaVuSans-2e" transform="translate(63.623047 0)"/>
       <use xlink:href="#DejaVuSans-32" transform="translate(95.410156 0)"/>
      </g>
     </g>
    </g>
    <g id="ytick_8">
     <g id="line2d_29">
      <path d="M 52.160938 51.505038 
L 568.8 51.505038 
" clip-path="url(#p1afe9f46b5)" style="fill: none; stroke-dasharray: 2.96,1.28; stroke-dashoffset: 0; stroke: #b0b0b0; stroke-opacity: 0.8; stroke-width: 0.8"/>
     </g>
     <g id="line2d_30">
      <g>
       <use xlink:href="#me66e83a53e" x="52.160938" y="51.505038" style="stroke: #000000; stroke-width: 0.8"/>
      </g>
     </g>
     <g id="text_16">
      <!-- 0.3 -->
      <g transform="translate(29.257812 55.304257) scale(0.1 -0.1)">
       <use xlink:href="#DejaVuSans-30"/>
       <use xlink:href="#DejaVuSans-2e" transform="translate(63.623047 0)"/>
       <use xlink:href="#DejaVuSans-33" transform="translate(95.410156 0)"/>
      </g>
     </g>
    </g>
    <g id="ytick_9">
     <g id="line2d_31">
      <path d="M 52.160938 24.693448 
L 568.8 24.693448 
" clip-path="url(#p1afe9f46b5)" style="fill: none; stroke-dasharray: 2.96,1.28; stroke-dashoffset: 0; stroke: #b0b0b0; stroke-opacity: 0.8; stroke-width: 0.8"/>
     </g>
     <g id="line2d_32">
      <g>
       <use xlink:href="#me66e83a53e" x="52.160938" y="24.693448" style="stroke: #000000; stroke-width: 0.8"/>
      </g>
     </g>
     <g id="text_17">
      <!-- 0.4 -->
      <g transform="translate(29.257812 28.492667) scale(0.1 -0.1)">
       <use xlink:href="#DejaVuSans-30"/>
       <use xlink:href="#DejaVuSans-2e" transform="translate(63.623047 0)"/>
       <use xlink:href="#DejaVuSans-34" transform="translate(95.410156 0)"/>
      </g>
     </g>
    </g>
    <g id="text_18">
     <!-- Amplitude -->
     <g transform="translate(14.798437 162.003594) rotate(-90) scale(0.1 -0.1)">
      <defs>
       <path id="DejaVuSans-41" d="M 2188 4044 
L 1331 1722 
L 3047 1722 
L 2188 4044 
z
M 1831 4666 
L 2547 4666 
L 4325 0 
L 3669 0 
L 3244 1197 
L 1141 1197 
L 716 0 
L 50 0 
L 1831 4666 
z
" transform="scale(0.015625)"/>
       <path id="DejaVuSans-70" d="M 1159 525 
L 1159 -1331 
L 581 -1331 
L 581 3500 
L 1159 3500 
L 1159 2969 
Q 1341 3281 1617 3432 
Q 1894 3584 2278 3584 
Q 2916 3584 3314 3078 
Q 3713 2572 3713 1747 
Q 3713 922 3314 415 
Q 2916 -91 2278 -91 
Q 1894 -91 1617 61 
Q 1341 213 1159 525 
z
M 3116 1747 
Q 3116 2381 2855 2742 
Q 2594 3103 2138 3103 
Q 1681 3103 1420 2742 
Q 1159 2381 1159 1747 
Q 1159 1113 1420 752 
Q 1681 391 2138 391 
Q 2594 391 2855 752 
Q 3116 1113 3116 1747 
z
" transform="scale(0.015625)"/>
       <path id="DejaVuSans-6c" d="M 603 4863 
L 1178 4863 
L 1178 0 
L 603 0 
L 603 4863 
z
" transform="scale(0.015625)"/>
       <path id="DejaVuSans-74" d="M 1172 4494 
L 1172 3500 
L 2356 3500 
L 2356 3053 
L 1172 3053 
L 1172 1153 
Q 1172 725 1289 603 
Q 1406 481 1766 481 
L 2356 481 
L 2356 0 
L 1766 0 
Q 1100 0 847 248 
Q 594 497 594 1153 
L 594 3053 
L 172 3053 
L 172 3500 
L 594 3500 
L 594 4494 
L 1172 4494 
z
" transform="scale(0.015625)"/>
       <path id="DejaVuSans-75" d="M 544 1381 
L 544 3500 
L 1119 3500 
L 1119 1403 
Q 1119 906 1312 657 
Q 1506 409 1894 409 
Q 2359 409 2629 706 
Q 2900 1003 2900 1516 
L 2900 3500 
L 3475 3500 
L 3475 0 
L 2900 0 
L 2900 538 
Q 2691 219 2414 64 
Q 2138 -91 1772 -91 
Q 1169 -91 856 284 
Q 544 659 544 1381 
z
M 1991 3584 
L 1991 3584 
z
" transform="scale(0.015625)"/>
       <path id="DejaVuSans-64" d="M 2906 2969 
L 2906 4863 
L 3481 4863 
L 3481 0 
L 2906 0 
L 2906 525 
Q 2725 213 2448 61 
Q 2172 -91 1784 -91 
Q 1150 -91 751 415 
Q 353 922 353 1747 
Q 353 2572 751 3078 
Q 1150 3584 1784 3584 
Q 2172 3584 2448 3432 
Q 2725 3281 2906 2969 
z
M 947 1747 
Q 947 1113 1208 752 
Q 1469 391 1925 391 
Q 2381 391 2643 752 
Q 2906 1113 2906 1747 
Q 2906 2381 2643 2742 
Q 2381 3103 1925 3103 
Q 1469 3103 1208 2742 
Q 947 2381 947 1747 
z
" transform="scale(0.015625)"/>
      </defs>
      <use xlink:href="#DejaVuSans-41"/>
      <use xlink:href="#DejaVuSans-6d" transform="translate(68.408203 0)"/>
      <use xlink:href="#DejaVuSans-70" transform="translate(165.820312 0)"/>
      <use xlink:href="#DejaVuSans-6c" transform="translate(229.296875 0)"/>
      <use xlink:href="#DejaVuSans-69" transform="translate(257.080078 0)"/>
      <use xlink:href="#DejaVuSans-74" transform="translate(284.863281 0)"/>
      <use xlink:href="#DejaVuSans-75" transform="translate(324.072266 0)"/>
      <use xlink:href="#DejaVuSans-64" transform="translate(387.451172 0)"/>
      <use xlink:href="#DejaVuSans-65" transform="translate(450.927734 0)"/>
     </g>
    </g>
   </g>
   <g id="line2d_33">
    <path d="M 75.644531 132.957798 
L 76.428625 132.860624 
L 77.212718 132.610243 
L 78.780904 131.736924 
L 80.349091 130.705188 
L 81.133184 130.302186 
L 81.917277 130.067869 
L 82.701371 130.056591 
L 83.485464 129.281303 
L 84.269557 129.875966 
L 85.053651 130.845812 
L 86.621837 133.53195 
L 88.190024 136.162005 
L 88.974117 136.991894 
L 89.75821 137.276202 
L 90.542304 136.905972 
L 91.326397 134.824872 
L 92.11049 133.211313 
L 95.246863 125.306974 
L 96.030957 124.165643 
L 96.81505 123.821073 
L 97.599143 124.416352 
L 98.383236 126.002888 
L 101.51961 139.752294 
L 102.303703 142.836102 
L 103.087796 145.100646 
L 103.871889 146.172227 
L 104.655983 145.742763 
L 105.440076 143.602238 
L 106.224169 139.664112 
L 107.792356 125.82953 
L 109.360542 108.8152 
L 110.928729 91.354624 
L 111.712822 83.795429 
L 112.496915 77.705793 
L 113.281009 73.530766 
L 114.065102 71.626963 
L 114.849195 71.226039 
L 115.633289 74.592358 
L 116.417382 80.772171 
L 117.201475 89.635856 
L 117.985568 100.917728 
L 119.553755 129.079512 
L 122.690128 190.747724 
L 123.474221 204.126073 
L 124.258315 215.493739 
L 125.042408 224.341021 
L 125.826501 230.236767 
L 126.610594 232.850218 
L 127.394688 231.972106 
L 128.178781 227.53372 
L 128.962874 219.622274 
L 129.746968 208.490616 
L 131.315154 177.488044 
L 134.451527 108.242052 
L 135.235621 93.93895 
L 136.019714 82.422987 
L 136.803807 74.289591 
L 137.5879 69.954335 
L 138.371994 68.606128 
L 139.156087 72.360637 
L 139.94018 80.013216 
L 140.724274 91.094225 
L 142.29246 120.696661 
L 144.64474 170.184394 
L 145.428833 184.39746 
L 146.212926 195.225269 
L 146.99702 204.343929 
L 147.781113 210.565124 
L 148.565206 213.883669 
L 149.3493 214.497485 
L 150.133393 212.778752 
L 150.917486 209.232443 
L 152.485673 199.037274 
L 154.837953 182.729431 
L 155.622046 180.311357 
L 156.406139 179.448832 
L 157.190232 180.057496 
L 157.974326 181.907646 
L 158.758419 184.661341 
L 161.894792 197.747549 
L 162.678885 200.211337 
L 163.462979 200.443019 
L 164.247072 199.528098 
L 165.031165 197.669298 
L 166.599352 192.409189 
L 167.383445 189.761275 
L 168.167538 187.582238 
L 168.951632 186.151325 
L 169.735725 186.660411 
L 170.519818 187.992956 
L 171.303911 188.923108 
L 172.088005 190.327824 
L 174.440285 195.200056 
L 175.224378 196.252853 
L 176.008471 196.69914 
L 176.792564 196.444903 
L 177.576658 194.466516 
L 178.360751 192.016345 
L 180.713031 187.439855 
L 181.497124 186.457077 
L 182.281217 186.032647 
L 183.065311 186.277759 
L 183.849404 187.240265 
L 184.633497 188.895323 
L 186.201684 195.697202 
L 187.76987 200.231176 
L 188.553964 201.793867 
L 189.338057 202.598859 
L 190.12215 202.455064 
L 190.906243 201.199879 
L 191.690337 198.70324 
L 193.258523 190.656193 
L 194.042617 184.871447 
L 194.82671 176.377992 
L 196.394896 154.79674 
L 197.963083 128.563873 
L 200.315363 86.383969 
L 201.883549 63.291007 
L 202.667643 52.724306 
L 203.451736 44.10365 
L 204.235829 37.911106 
L 205.019923 34.576458 
L 205.804016 34.440426 
L 206.588109 37.718252 
L 207.372202 44.467235 
L 208.156296 54.56192 
L 208.940389 68.698351 
L 211.292669 119.931663 
L 212.860855 154.094677 
L 213.644949 168.754295 
L 214.429042 180.721407 
L 215.213135 189.343153 
L 215.997228 194.147494 
L 216.781322 195.896016 
L 217.565415 193.402197 
L 218.349508 185.738341 
L 219.133602 174.423014 
L 219.917695 160.182554 
L 223.838161 78.561342 
L 224.622255 65.60038 
L 225.406348 57.694058 
L 226.190441 51.973624 
L 226.974534 49.429399 
L 227.758628 49.787902 
L 228.542721 52.564521 
L 229.326814 57.116416 
L 232.463187 79.525238 
L 233.247281 83.436241 
L 234.031374 84.415384 
L 234.815467 83.526888 
L 235.59956 81.043607 
L 236.383654 77.42254 
L 237.95184 69.133225 
L 238.735934 65.690998 
L 239.520027 63.411325 
L 240.30412 61.606995 
L 241.088213 61.569695 
L 241.872307 64.350128 
L 242.6564 68.566676 
L 245.00868 83.512849 
L 245.792773 86.802132 
L 246.576866 88.159262 
L 247.36096 87.202676 
L 248.145053 82.80627 
L 249.71324 69.433345 
L 251.281426 54.337902 
L 252.065519 48.015089 
L 252.849613 43.812751 
L 253.633706 42.600472 
L 254.417799 45.044716 
L 255.201892 51.528165 
L 255.985986 63.111286 
L 257.554172 95.279188 
L 260.690545 169.755733 
L 261.474639 183.83156 
L 262.258732 193.856346 
L 263.042825 199.110147 
L 263.826919 200.238027 
L 264.611012 194.149898 
L 265.395105 184.313736 
L 266.179198 170.444691 
L 267.747385 135.025584 
L 269.315572 98.459054 
L 270.099665 83.244657 
L 270.883758 71.684753 
L 271.667851 63.640577 
L 272.451945 60.815566 
L 273.236038 64.51874 
L 274.020131 73.461553 
L 274.804224 86.994581 
L 275.588318 104.154478 
L 279.508784 199.706339 
L 280.292877 212.161579 
L 281.076971 222.103666 
L 281.861064 228.2446 
L 282.645157 230.572356 
L 283.429251 229.303159 
L 284.213344 224.835346 
L 284.997437 217.692732 
L 285.78153 208.464028 
L 286.565624 197.744728 
L 288.917904 160.278484 
L 291.270183 127.390377 
L 295.19065 77.566448 
L 295.974743 67.802739 
L 296.758836 60.072997 
L 297.54293 53.677287 
L 298.327023 48.952089 
L 299.111116 46.220007 
L 299.895209 45.755451 
L 300.679303 47.752257 
L 301.463396 52.296965 
L 302.247489 59.350792 
L 303.031583 69.760342 
L 305.383862 108.220516 
L 308.520236 162.116528 
L 310.088422 183.391067 
L 310.872515 190.656193 
L 312.440702 201.599994 
L 313.224795 205.379021 
L 314.008889 207.70282 
L 314.792982 208.611946 
L 315.577075 208.174788 
L 316.361168 206.493554 
L 317.145262 203.711783 
L 319.497541 192.835539 
L 321.065728 182.629152 
L 321.849821 178.188302 
L 322.633915 174.813528 
L 323.418008 172.928193 
L 324.202101 172.862328 
L 324.986194 174.806825 
L 325.770288 178.775527 
L 326.554381 183.562441 
L 329.690754 215.922636 
L 330.474847 221.877615 
L 331.258941 225.314621 
L 332.043034 225.458286 
L 332.827127 221.731656 
L 333.611221 213.831832 
L 334.395314 202.80431 
L 335.9635 167.044545 
L 339.099873 85.273722 
L 339.883967 70.510435 
L 340.66806 60.691355 
L 341.452153 56.678774 
L 342.236247 57.871463 
L 343.02034 65.345079 
L 343.804433 79.632287 
L 344.588526 98.553979 
L 347.7249 184.93328 
L 348.508993 199.425752 
L 349.293086 207.835141 
L 350.077179 208.315199 
L 350.861273 203.767833 
L 351.645366 191.583315 
L 352.429459 173.889196 
L 353.997646 128.854033 
L 355.565832 84.966293 
L 356.349926 68.617527 
L 357.134019 58.15675 
L 357.918112 55.56543 
L 358.702205 59.99838 
L 359.486299 69.958397 
L 360.270392 85.532842 
L 361.838579 127.390377 
L 363.406765 170.613952 
L 364.190858 187.839436 
L 364.974952 200.001399 
L 365.759045 205.034167 
L 366.543138 205.549086 
L 367.327232 198.578628 
L 368.111325 185.837176 
L 368.895418 168.506175 
L 372.031791 86.561194 
L 372.815885 71.510972 
L 373.599978 60.360557 
L 374.384071 56.935728 
L 375.168164 58.436956 
L 375.952258 65.72873 
L 376.736351 78.240916 
L 377.520444 95.055615 
L 379.088631 136.745665 
L 381.440911 200.498277 
L 382.225004 215.671059 
L 383.009097 228.101943 
L 383.79319 236.301551 
L 384.577284 240.074403 
L 385.361377 239.483053 
L 386.14547 234.814294 
L 386.929564 226.534728 
L 387.713657 215.241163 
L 389.281843 187.375161 
L 390.85003 155.249066 
L 392.418217 122.746782 
L 393.986403 95.852718 
L 394.770496 85.807995 
L 395.55459 78.568617 
L 396.338683 74.417635 
L 397.122776 72.508674 
L 397.90687 74.056385 
L 398.690963 80.124502 
L 399.475056 89.420587 
L 400.259149 101.506244 
L 401.827336 131.596945 
L 404.179616 180.168153 
L 404.963709 195.181266 
L 405.747802 207.837317 
L 406.531896 216.515628 
L 407.315989 221.982223 
L 408.100082 224.191435 
L 408.884175 223.290072 
L 409.668269 219.58759 
L 410.452362 213.51359 
L 411.236455 205.567273 
L 412.020549 196.264348 
L 415.156922 153.045331 
L 419.077388 103.107387 
L 422.997854 49.46213 
L 423.781948 41.513513 
L 424.566041 36.040114 
L 425.350134 33.713031 
L 426.134228 35.068467 
L 426.918321 40.435081 
L 427.702414 49.876408 
L 428.486507 62.137299 
L 430.054694 98.871293 
L 432.406974 159.725139 
L 433.191067 176.885036 
L 433.97516 190.418064 
L 434.759254 199.360877 
L 435.543347 203.064051 
L 436.32744 200.23904 
L 437.111534 192.194864 
L 437.895627 180.63496 
L 438.67972 165.420563 
L 441.816093 93.434926 
L 442.600187 79.565881 
L 443.38428 69.729719 
L 444.168373 63.64159 
L 444.952466 64.76947 
L 445.73656 70.023271 
L 446.520653 80.048057 
L 447.304746 94.123884 
L 448.872933 130.225638 
L 450.441119 168.600429 
L 452.009306 200.768331 
L 452.793399 212.351452 
L 453.577492 218.834901 
L 454.361586 221.279145 
L 455.145679 220.066866 
L 455.929772 215.864528 
L 456.713866 209.541715 
L 459.066145 187.546128 
L 459.850239 181.073347 
L 460.634332 176.676941 
L 461.418425 175.720355 
L 462.202519 177.077485 
L 462.986612 180.366768 
L 464.554798 190.230722 
L 465.338892 195.312941 
L 466.122985 199.529489 
L 466.907078 202.309922 
L 467.691171 203.290611 
L 468.475265 201.389107 
L 469.259358 198.859054 
L 470.043451 195.029667 
L 472.395731 181.601389 
L 473.179824 178.715107 
L 473.963918 177.592294 
L 474.748011 178.560159 
L 475.532104 181.695873 
L 477.100291 194.199399 
L 478.668477 208.355343 
L 479.452571 214.32164 
L 480.236664 218.313911 
L 481.020757 219.502304 
L 481.804851 217.242387 
L 482.588944 211.151723 
L 483.373037 201.1643 
L 484.941224 170.151191 
L 488.077597 95.922898 
L 488.86169 81.337867 
L 489.645783 70.61782 
L 490.429877 64.540499 
L 491.21397 63.550059 
L 491.998063 68.681628 
L 492.782156 77.507937 
L 493.56625 90.404146 
L 495.134436 124.409433 
L 496.702623 161.026154 
L 497.486716 177.090536 
L 498.270809 190.178511 
L 499.054903 199.485696 
L 499.838996 205.493472 
L 500.623089 205.954613 
L 501.407183 202.132859 
L 502.191276 194.59585 
L 502.975369 184.168543 
L 506.111742 134.109872 
L 506.895836 124.355359 
L 507.679929 118.049613 
L 508.464022 113.348471 
L 509.248115 111.307927 
L 510.032209 111.732239 
L 510.816302 114.22954 
L 511.600395 118.265001 
L 514.736768 137.618404 
L 515.520862 141.643164 
L 516.304955 143.207144 
L 517.089048 143.333789 
L 517.873141 142.183215 
L 518.657235 140.036299 
L 521.793608 128.826673 
L 522.577701 127.018767 
L 523.361794 126.973645 
L 524.145888 126.603415 
L 524.929981 126.887723 
L 525.714074 127.717612 
L 527.282261 130.347667 
L 528.850447 133.033805 
L 529.634541 134.003651 
L 530.418634 134.598314 
L 531.202727 133.823026 
L 531.98682 133.811748 
L 532.770914 133.577431 
L 534.3391 132.671636 
L 535.907287 131.656534 
L 536.69138 131.269374 
L 537.475473 131.018993 
L 538.259567 130.921819 
L 539.04366 131.939809 
L 545.316406 131.939809 
L 545.316406 131.939809 
" clip-path="url(#p1afe9f46b5)" style="fill: none; stroke: #1f77b4; stroke-linecap: square"/>
   </g>
   <g id="line2d_34">
    <path d="M 75.644531 132.957798 
L 76.428625 132.860624 
L 77.212718 132.610243 
L 78.780904 131.736924 
L 80.349091 130.705188 
L 81.133184 130.302186 
L 81.917277 130.067869 
L 82.701371 130.056591 
L 83.485464 129.281303 
L 84.269557 129.875966 
L 85.053651 130.845812 
L 86.621837 133.53195 
L 88.190024 136.162005 
L 88.974117 136.991894 
L 89.75821 137.276202 
L 90.542304 136.905972 
L 91.326397 136.86085 
L 92.11049 135.052944 
L 92.894583 132.577041 
L 95.246863 123.843318 
L 96.030957 121.696402 
L 96.81505 120.545828 
L 97.599143 120.672473 
L 98.383236 122.236453 
L 99.951423 130.44489 
L 103.087796 149.650077 
L 103.871889 152.147378 
L 104.655983 152.57169 
L 105.440076 150.531146 
L 106.224169 145.830004 
L 107.008262 137.488279 
L 107.792356 127.928115 
L 109.360542 104.600043 
L 110.928729 81.17473 
L 111.712822 71.753008 
L 112.496915 65.022003 
L 113.281009 61.668882 
L 114.065102 62.152579 
L 114.849195 65.638974 
L 115.633289 74.14553 
L 116.417382 86.295335 
L 117.985568 118.456024 
L 120.337848 169.921789 
L 121.121942 183.18665 
L 121.906035 192.798531 
L 122.690128 197.049539 
L 123.474221 197.684957 
L 124.258315 193.68158 
L 125.042408 185.286461 
L 125.826501 173.02255 
L 126.610594 157.641736 
L 128.178781 121.304018 
L 130.531061 67.058341 
L 131.315154 53.362191 
L 132.099247 42.87472 
L 132.883341 35.941411 
L 133.667434 32.687472 
L 134.451527 33.03357 
L 135.235621 36.724734 
L 136.019714 43.368427 
L 136.803807 52.477433 
L 137.5879 63.513219 
L 141.508367 129.392724 
L 143.076553 152.530383 
L 144.64474 171.963679 
L 145.428833 180.184197 
L 147.781113 197.856116 
L 148.565206 202.103776 
L 149.3493 205.233578 
L 150.133393 207.14829 
L 150.917486 207.769018 
L 151.701579 207.060103 
L 152.485673 205.052653 
L 154.053859 198.721536 
L 155.622046 187.667606 
L 157.190232 178.188302 
L 157.974326 174.813528 
L 158.758419 172.928193 
L 159.542512 172.862328 
L 160.326606 174.806825 
L 161.110699 178.775527 
L 161.894792 183.562441 
L 165.031165 215.922636 
L 165.815259 221.877615 
L 166.599352 225.314621 
L 167.383445 225.458286 
L 168.167538 221.731656 
L 168.951632 213.831832 
L 169.735725 202.80431 
L 171.303911 167.044545 
L 174.440285 85.273722 
L 175.224378 70.510435 
L 176.008471 60.691355 
L 176.792564 56.678774 
L 177.576658 57.871463 
L 178.360751 65.345079 
L 179.144844 79.632287 
L 179.928938 98.553979 
L 183.065311 184.93328 
L 183.849404 199.425752 
L 184.633497 207.835141 
L 185.417591 208.315199 
L 186.201684 203.767833 
L 186.985777 191.583315 
L 187.76987 173.889196 
L 189.338057 128.854033 
L 190.906243 84.966293 
L 191.690337 68.617527 
L 192.47443 58.15675 
L 193.258523 55.56543 
L 194.042617 59.99838 
L 194.82671 69.958397 
L 195.610803 85.532842 
L 197.17899 127.390377 
L 198.747176 170.613952 
L 199.53127 187.839436 
L 200.315363 200.001399 
L 201.099456 207.070146 
L 201.883549 207.390717 
L 202.667643 199.919498 
L 203.451736 186.403726 
L 204.235829 168.100405 
L 207.372202 82.817316 
L 208.156296 67.744537 
L 208.940389 59.115504 
L 209.724482 56.491304 
L 210.508575 58.930702 
L 211.292669 67.199176 
L 212.076762 80.61366 
L 212.860855 98.14139 
L 215.213135 162.111569 
L 215.997228 182.627989 
L 216.781322 199.706339 
L 217.565415 213.641959 
L 218.349508 225.00042 
L 219.133602 232.423742 
L 219.917695 235.820112 
L 220.701788 235.316247 
L 221.485881 231.216267 
L 222.269975 223.955109 
L 223.054068 214.052066 
L 224.622255 189.594202 
L 226.190441 160.705825 
L 228.542721 115.746828 
L 230.110908 91.32157 
L 230.895001 81.913587 
L 231.679094 74.683908 
L 232.463187 68.698351 
L 233.247281 65.069856 
L 234.031374 64.749036 
L 234.815467 66.328345 
L 235.59956 69.268899 
L 237.167747 76.597412 
L 237.95184 79.607475 
L 238.735934 81.361634 
L 239.520027 81.423233 
L 241.088213 75.875546 
L 241.872307 70.622442 
L 244.224587 52.181895 
L 245.00868 48.067043 
L 245.792773 46.478281 
L 246.576866 48.146239 
L 247.36096 53.557265 
L 248.145053 61.867245 
L 248.929146 74.063299 
L 249.71324 90.753288 
L 253.633706 185.636358 
L 254.417799 197.106478 
L 255.201892 203.321005 
L 255.985986 202.728134 
L 256.770079 198.360757 
L 257.554172 187.563868 
L 258.338266 172.24949 
L 259.906452 133.403464 
L 261.474639 94.338822 
L 262.258732 78.718757 
L 263.042825 67.443664 
L 263.826919 62.396536 
L 264.611012 62.844666 
L 265.395105 67.620263 
L 266.179198 77.339362 
L 266.963292 91.248873 
L 268.531478 127.350627 
L 270.099665 166.197421 
L 271.667851 199.523278 
L 272.451945 210.065397 
L 273.236038 217.987777 
L 274.020131 222.183042 
L 274.804224 222.84538 
L 275.588318 220.413959 
L 276.372411 215.516866 
L 277.940598 201.37518 
L 278.724691 193.71202 
L 279.508784 187.634398 
L 280.292877 180.617157 
L 281.076971 176.147695 
L 281.861064 173.428877 
L 282.645157 172.522423 
L 283.429251 173.349872 
L 284.213344 175.71906 
L 284.997437 179.353907 
L 286.565624 189.069104 
L 287.349717 195.440503 
L 289.701997 207.964 
L 290.48609 210.547532 
L 291.270183 211.697722 
L 292.054277 211.208729 
L 292.83837 208.932703 
L 293.622463 204.785024 
L 295.19065 191.900234 
L 295.974743 183.203598 
L 297.54293 158.805268 
L 301.463396 89.756024 
L 302.247489 78.751215 
L 303.815676 62.844179 
L 304.599769 58.247469 
L 305.383862 55.850811 
L 306.167956 55.449402 
L 306.952049 56.731327 
L 307.736142 59.307236 
L 309.304329 66.602996 
L 310.088422 70.468469 
L 310.872515 75.000165 
L 311.656609 78.750729 
L 312.440702 80.383231 
L 313.224795 80.877103 
L 314.008889 80.316212 
L 314.792982 78.886196 
L 315.577075 76.845532 
L 317.929355 70.021642 
L 318.713448 69.413101 
L 319.497541 69.276345 
L 320.281635 68.521347 
L 321.065728 68.193313 
L 321.849821 68.273791 
L 322.633915 68.706302 
L 323.418008 69.406956 
L 325.770288 72.120227 
L 326.554381 71.902195 
L 327.338474 73.600607 
L 328.122568 74.109385 
L 328.906661 74.45569 
L 329.690754 74.654712 
L 330.474847 74.71939 
L 331.258941 74.654712 
L 332.043034 74.45569 
L 332.827127 74.109385 
L 333.611221 73.600607 
L 334.395314 73.938174 
L 335.179407 73.961857 
L 335.9635 72.5535 
L 339.099873 65.804549 
L 339.883967 64.918068 
L 340.66806 64.777468 
L 342.236247 66.132068 
L 343.02034 67.735587 
L 343.804433 71.279036 
L 346.156713 83.435627 
L 346.940806 86.291363 
L 347.7249 87.706029 
L 348.508993 87.312138 
L 349.293086 84.916621 
L 350.077179 81.561217 
L 352.429459 59.095936 
L 353.213553 51.462891 
L 353.997646 45.087777 
L 354.781739 40.93774 
L 355.565832 39.891777 
L 356.349926 42.641707 
L 357.134019 49.603361 
L 357.918112 59.830254 
L 358.702205 74.176702 
L 360.270392 114.450163 
L 361.838579 158.644109 
L 362.622672 178.200125 
L 363.406765 193.935731 
L 364.190858 204.529132 
L 364.974952 209.042474 
L 365.759045 206.008154 
L 366.543138 196.692907 
L 367.327232 182.906461 
L 368.111325 164.759089 
L 371.247698 82.221582 
L 372.031791 68.197744 
L 372.815885 59.810911 
L 373.599978 56.809471 
L 374.384071 60.556208 
L 375.168164 71.802556 
L 375.952258 88.519975 
L 377.520444 131.939809 
L 379.088631 175.359642 
L 379.872724 192.077061 
L 380.656817 203.323409 
L 381.440911 209.106124 
L 382.225004 205.910337 
L 383.009097 197.022743 
L 383.79319 182.224584 
L 384.577284 162.852649 
L 386.929564 95.845284 
L 387.713657 77.229278 
L 388.49775 63.420275 
L 389.281843 54.590431 
L 390.065937 52.551089 
L 390.85003 58.503361 
L 391.634123 70.847783 
L 392.418217 88.458006 
L 393.986403 133.016506 
L 395.55459 177.717331 
L 396.338683 195.868807 
L 397.122776 208.574436 
L 397.90687 216.374841 
L 398.690963 220.324381 
L 399.475056 219.772683 
L 400.259149 215.503302 
L 401.043243 208.611946 
L 403.395522 184.987397 
L 404.179616 179.996548 
L 404.963709 178.767314 
L 405.747802 180.357798 
L 406.531896 183.431512 
L 407.315989 188.487299 
L 409.668269 206.653139 
L 410.452362 210.235061 
L 411.236455 210.992464 
L 412.020549 208.284145 
L 412.804642 202.80431 
L 413.588735 191.484167 
L 414.372828 177.783737 
L 415.941015 143.233595 
L 417.509202 106.475577 
L 418.293295 90.360499 
L 419.077388 77.294152 
L 419.861481 68.191365 
L 420.645575 62.66659 
L 421.429668 64.124058 
L 422.213761 69.451715 
L 422.997854 79.316416 
L 423.781948 93.061851 
L 425.350134 128.412661 
L 427.702414 184.295838 
L 428.486507 200.498277 
L 429.270601 211.603751 
L 430.054694 220.259506 
L 430.838787 225.257468 
L 431.622881 226.660677 
L 432.406974 224.753728 
L 433.191067 219.99336 
L 433.97516 212.947041 
L 435.543347 194.422717 
L 436.32744 183.03315 
L 437.895627 163.175239 
L 443.38428 92.248988 
L 444.168373 80.055542 
L 446.520653 49.46213 
L 447.304746 41.513513 
L 448.088839 36.040114 
L 448.872933 33.713031 
L 449.657026 35.068467 
L 450.441119 40.435081 
L 451.225213 49.876408 
L 452.009306 62.137299 
L 453.577492 98.871293 
L 455.929772 159.725139 
L 456.713866 176.885036 
L 457.497959 190.418064 
L 458.282052 199.360877 
L 459.066145 203.064051 
L 459.850239 200.23904 
L 460.634332 192.194864 
L 461.418425 180.63496 
L 462.202519 165.420563 
L 465.338892 93.434926 
L 466.122985 79.565881 
L 466.907078 69.729719 
L 467.691171 64.659579 
L 468.475265 65.690285 
L 469.259358 70.693706 
L 470.043451 80.331332 
L 470.827545 93.921 
L 472.395731 128.991018 
L 474.748011 183.692012 
L 475.532104 198.109826 
L 476.316198 210.287609 
L 477.100291 217.740904 
L 477.884384 221.447818 
L 478.668477 221.659008 
L 479.452571 218.871071 
L 480.236664 213.763911 
L 481.804851 199.782665 
L 483.373037 185.994388 
L 484.15713 179.790077 
L 484.941224 176.357587 
L 485.725317 174.801233 
L 486.50941 175.055339 
L 487.293503 176.896931 
L 488.077597 179.987316 
L 489.645783 188.262154 
L 491.21397 196.594026 
L 493.56625 203.462774 
L 494.350343 204.3113 
L 495.134436 204.167346 
L 495.91853 203.04358 
L 496.702623 200.984611 
L 497.486716 198.05557 
L 498.270809 194.333571 
L 499.838996 185.820489 
L 501.407183 173.831323 
L 505.327649 141.635067 
L 506.111742 136.39833 
L 507.679929 127.523997 
L 508.464022 125.210355 
L 509.248115 123.991717 
L 510.032209 123.774659 
L 510.816302 124.409433 
L 511.600395 125.703576 
L 513.168582 129.388118 
L 515.520862 135.477272 
L 516.304955 136.278236 
L 517.089048 136.504862 
L 517.873141 136.208064 
L 518.657235 135.486867 
L 520.225421 133.312164 
L 521.793608 131.112728 
L 522.577701 130.299799 
L 523.361794 130.74008 
L 524.145888 130.347294 
L 524.929981 130.162967 
L 525.714074 130.186854 
L 526.498168 130.396921 
L 528.066354 131.204585 
L 530.418634 132.562335 
L 531.202727 133.823026 
L 531.98682 133.811748 
L 532.770914 133.577431 
L 534.3391 132.671636 
L 535.907287 131.656534 
L 536.69138 131.269374 
L 537.475473 131.018993 
L 538.259567 130.921819 
L 539.04366 131.939809 
L 545.316406 131.939809 
L 545.316406 131.939809 
" clip-path="url(#p1afe9f46b5)" style="fill: none; stroke: #ff7f0e; stroke-linecap: square"/>
   </g>
   <g id="patch_3">
    <path d="M 52.160938 250.44375 
L 52.160938 22.318125 
" style="fill: none; stroke: #000000; stroke-width: 0.8; stroke-linejoin: miter; stroke-linecap: square"/>
   </g>
   <g id="patch_4">
    <path d="M 568.8 250.44375 
L 568.8 22.318125 
" style="fill: none; stroke: #000000; stroke-width: 0.8; stroke-linejoin: miter; stroke-linecap: square"/>
   </g>
   <g id="patch_5">
    <path d="M 52.160937 250.44375 
L 568.8 250.44375 
" style="fill: none; stroke: #000000; stroke-width: 0.8; stroke-linejoin: miter; stroke-linecap: square"/>
   </g>
   <g id="patch_6">
    <path d="M 52.160937 22.318125 
L 568.8 22.318125 
" style="fill: none; stroke: #000000; stroke-width: 0.8; stroke-linejoin: miter; stroke-linecap: square"/>
   </g>
   <g id="text_19">
    <!-- SRRC pulse-shaped QPSK -->
    <g transform="translate(234.369531 16.318125) scale(0.12 -0.12)">
     <defs>
      <path id="DejaVuSans-53" d="M 3425 4513 
L 3425 3897 
Q 3066 4069 2747 4153 
Q 2428 4238 2131 4238 
Q 1616 4238 1336 4038 
Q 1056 3838 1056 3469 
Q 1056 3159 1242 3001 
Q 1428 2844 1947 2747 
L 2328 2669 
Q 3034 2534 3370 2195 
Q 3706 1856 3706 1288 
Q 3706 609 3251 259 
Q 2797 -91 1919 -91 
Q 1588 -91 1214 -16 
Q 841 59 441 206 
L 441 856 
Q 825 641 1194 531 
Q 1563 422 1919 422 
Q 2459 422 2753 634 
Q 3047 847 3047 1241 
Q 3047 1584 2836 1778 
Q 2625 1972 2144 2069 
L 1759 2144 
Q 1053 2284 737 2584 
Q 422 2884 422 3419 
Q 422 4038 858 4394 
Q 1294 4750 2059 4750 
Q 2388 4750 2728 4690 
Q 3069 4631 3425 4513 
z
" transform="scale(0.015625)"/>
      <path id="DejaVuSans-52" d="M 2841 2188 
Q 3044 2119 3236 1894 
Q 3428 1669 3622 1275 
L 4263 0 
L 3584 0 
L 2988 1197 
Q 2756 1666 2539 1819 
Q 2322 1972 1947 1972 
L 1259 1972 
L 1259 0 
L 628 0 
L 628 4666 
L 2053 4666 
Q 2853 4666 3247 4331 
Q 3641 3997 3641 3322 
Q 3641 2881 3436 2590 
Q 3231 2300 2841 2188 
z
M 1259 4147 
L 1259 2491 
L 2053 2491 
Q 2509 2491 2742 2702 
Q 2975 2913 2975 3322 
Q 2975 3731 2742 3939 
Q 2509 4147 2053 4147 
L 1259 4147 
z
" transform="scale(0.015625)"/>
      <path id="DejaVuSans-43" d="M 4122 4306 
L 4122 3641 
Q 3803 3938 3442 4084 
Q 3081 4231 2675 4231 
Q 1875 4231 1450 3742 
Q 1025 3253 1025 2328 
Q 1025 1406 1450 917 
Q 1875 428 2675 428 
Q 3081 428 3442 575 
Q 3803 722 4122 1019 
L 4122 359 
Q 3791 134 3420 21 
Q 3050 -91 2638 -91 
Q 1578 -91 968 557 
Q 359 1206 359 2328 
Q 359 3453 968 4101 
Q 1578 4750 2638 4750 
Q 3056 4750 3426 4639 
Q 3797 4528 4122 4306 
z
" transform="scale(0.015625)"/>
      <path id="DejaVuSans-2d" d="M 313 2009 
L 1997 2009 
L 1997 1497 
L 313 1497 
L 313 2009 
z
" transform="scale(0.015625)"/>
      <path id="DejaVuSans-68" d="M 3513 2113 
L 3513 0 
L 2938 0 
L 2938 2094 
Q 2938 2591 2744 2837 
Q 2550 3084 2163 3084 
Q 1697 3084 1428 2787 
Q 1159 2491 1159 1978 
L 1159 0 
L 581 0 
L 581 4863 
L 1159 4863 
L 1159 2956 
Q 1366 3272 1645 3428 
Q 1925 3584 2291 3584 
Q 2894 3584 3203 3211 
Q 3513 2838 3513 2113 
z
" transform="scale(0.015625)"/>
      <path id="DejaVuSans-61" d="M 2194 1759 
Q 1497 1759 1228 1600 
Q 959 1441 959 1056 
Q 959 750 1161 570 
Q 1363 391 1709 391 
Q 2188 391 2477 730 
Q 2766 1069 2766 1631 
L 2766 1759 
L 2194 1759 
z
M 3341 1997 
L 3341 0 
L 2766 0 
L 2766 531 
Q 2569 213 2275 61 
Q 1981 -91 1556 -91 
Q 1019 -91 701 211 
Q 384 513 384 1019 
Q 384 1609 779 1909 
Q 1175 2209 1959 2209 
L 2766 2209 
L 2766 2266 
Q 2766 2663 2505 2880 
Q 2244 3097 1772 3097 
Q 1472 3097 1187 3025 
Q 903 2953 641 2809 
L 641 3341 
Q 956 3463 1253 3523 
Q 1550 3584 1831 3584 
Q 2591 3584 2966 3190 
Q 3341 2797 3341 1997 
z
" transform="scale(0.015625)"/>
      <path id="DejaVuSans-51" d="M 2522 4238 
Q 1834 4238 1429 3725 
Q 1025 3213 1025 2328 
Q 1025 1447 1429 934 
Q 1834 422 2522 422 
Q 3209 422 3611 934 
Q 4013 1447 4013 2328 
Q 4013 3213 3611 3725 
Q 3209 4238 2522 4238 
z
M 3406 84 
L 4238 -825 
L 3475 -825 
L 2784 -78 
Q 2681 -84 2626 -87 
Q 2572 -91 2522 -91 
Q 1538 -91 948 567 
Q 359 1225 359 2328 
Q 359 3434 948 4092 
Q 1538 4750 2522 4750 
Q 3503 4750 4090 4092 
Q 4678 3434 4678 2328 
Q 4678 1516 4351 937 
Q 4025 359 3406 84 
z
" transform="scale(0.015625)"/>
      <path id="DejaVuSans-50" d="M 1259 4147 
L 1259 2394 
L 2053 2394 
Q 2494 2394 2734 2622 
Q 2975 2850 2975 3272 
Q 2975 3691 2734 3919 
Q 2494 4147 2053 4147 
L 1259 4147 
z
M 628 4666 
L 2053 4666 
Q 2838 4666 3239 4311 
Q 3641 3956 3641 3272 
Q 3641 2581 3239 2228 
Q 2838 1875 2053 1875 
L 1259 1875 
L 1259 0 
L 628 0 
L 628 4666 
z
" transform="scale(0.015625)"/>
      <path id="DejaVuSans-4b" d="M 628 4666 
L 1259 4666 
L 1259 2694 
L 3353 4666 
L 4166 4666 
L 1850 2491 
L 4331 0 
L 3500 0 
L 1259 2247 
L 1259 0 
L 628 0 
L 628 4666 
z
" transform="scale(0.015625)"/>
     </defs>
     <use xlink:href="#DejaVuSans-53"/>
     <use xlink:href="#DejaVuSans-52" transform="translate(63.476562 0)"/>
     <use xlink:href="#DejaVuSans-52" transform="translate(132.958984 0)"/>
     <use xlink:href="#DejaVuSans-43" transform="translate(197.441406 0)"/>
     <use xlink:href="#DejaVuSans-20" transform="translate(267.265625 0)"/>
     <use xlink:href="#DejaVuSans-70" transform="translate(299.052734 0)"/>
     <use xlink:href="#DejaVuSans-75" transform="translate(362.529297 0)"/>
     <use xlink:href="#DejaVuSans-6c" transform="translate(425.908203 0)"/>
     <use xlink:href="#DejaVuSans-73" transform="translate(453.691406 0)"/>
     <use xlink:href="#DejaVuSans-65" transform="translate(505.791016 0)"/>
     <use xlink:href="#DejaVuSans-2d" transform="translate(567.314453 0)"/>
     <use xlink:href="#DejaVuSans-73" transform="translate(603.398438 0)"/>
     <use xlink:href="#DejaVuSans-68" transform="translate(655.498047 0)"/>
     <use xlink:href="#DejaVuSans-61" transform="translate(718.876953 0)"/>
     <use xlink:href="#DejaVuSans-70" transform="translate(780.15625 0)"/>
     <use xlink:href="#DejaVuSans-65" transform="translate(843.632812 0)"/>
     <use xlink:href="#DejaVuSans-64" transform="translate(905.15625 0)"/>
     <use xlink:href="#DejaVuSans-20" transform="translate(968.632812 0)"/>
     <use xlink:href="#DejaVuSans-51" transform="translate(1000.419922 0)"/>
     <use xlink:href="#DejaVuSans-50" transform="translate(1079.130859 0)"/>
     <use xlink:href="#DejaVuSans-53" transform="translate(1139.433594 0)"/>
     <use xlink:href="#DejaVuSans-4b" transform="translate(1202.910156 0)"/>
    </g>
   </g>
   <g id="legend_1">
    <g id="patch_7">
     <path d="M 504.804688 59.674375 
L 561.8 59.674375 
Q 563.8 59.674375 563.8 57.674375 
L 563.8 29.318125 
Q 563.8 27.318125 561.8 27.318125 
L 504.804688 27.318125 
Q 502.804688 27.318125 502.804688 29.318125 
L 502.804688 57.674375 
Q 502.804688 59.674375 504.804688 59.674375 
z
" style="fill: #ffffff; opacity: 0.8; stroke: #cccccc; stroke-linejoin: miter"/>
    </g>
    <g id="line2d_35">
     <path d="M 506.804688 35.416563 
L 516.804688 35.416563 
L 526.804688 35.416563 
" style="fill: none; stroke: #1f77b4; stroke-linecap: square"/>
    </g>
    <g id="text_20">
     <!-- real -->
     <g transform="translate(534.804688 38.916563) scale(0.1 -0.1)">
      <defs>
       <path id="DejaVuSans-72" d="M 2631 2963 
Q 2534 3019 2420 3045 
Q 2306 3072 2169 3072 
Q 1681 3072 1420 2755 
Q 1159 2438 1159 1844 
L 1159 0 
L 581 0 
L 581 3500 
L 1159 3500 
L 1159 2956 
Q 1341 3275 1631 3429 
Q 1922 3584 2338 3584 
Q 2397 3584 2469 3576 
Q 2541 3569 2628 3553 
L 2631 2963 
z
" transform="scale(0.015625)"/>
      </defs>
      <use xlink:href="#DejaVuSans-72"/>
      <use xlink:href="#DejaVuSans-65" transform="translate(38.863281 0)"/>
      <use xlink:href="#DejaVuSans-61" transform="translate(100.386719 0)"/>
      <use xlink:href="#DejaVuSans-6c" transform="translate(161.666016 0)"/>
     </g>
    </g>
    <g id="line2d_36">
     <path d="M 506.804688 50.094688 
L 516.804688 50.094688 
L 526.804688 50.094688 
" style="fill: none; stroke: #ff7f0e; stroke-linecap: square"/>
    </g>
    <g id="text_21">
     <!-- imag -->
     <g transform="translate(534.804688 53.594688) scale(0.1 -0.1)">
      <defs>
       <path id="DejaVuSans-67" d="M 2906 1791 
Q 2906 2416 2648 2759 
Q 2391 3103 1925 3103 
Q 1463 3103 1205 2759 
Q 947 2416 947 1791 
Q 947 1169 1205 825 
Q 1463 481 1925 481 
Q 2391 481 2648 825 
Q 2906 1169 2906 1791 
z
M 3481 434 
Q 3481 -459 3084 -895 
Q 2688 -1331 1869 -1331 
Q 1566 -1331 1297 -1286 
Q 1028 -1241 775 -1147 
L 775 -588 
Q 1028 -725 1275 -790 
Q 1522 -856 1778 -856 
Q 2344 -856 2625 -561 
Q 2906 -266 2906 331 
L 2906 616 
Q 2728 306 2450 153 
Q 2172 0 1784 0 
Q 1141 0 747 490 
Q 353 981 353 1791 
Q 353 2603 747 3093 
Q 1141 3584 1784 3584 
Q 2172 3584 2450 3431 
Q 2728 3278 2906 2969 
L 2906 3500 
L 3481 3500 
L 3481 434 
z
" transform="scale(0.015625)"/>
      </defs>
      <use xlink:href="#DejaVuSans-69"/>
      <use xlink:href="#DejaVuSans-6d" transform="translate(27.783203 0)"/>
      <use xlink:href="#DejaVuSans-61" transform="translate(125.195312 0)"/>
      <use xlink:href="#DejaVuSans-67" transform="translate(186.474609 0)"/>
     </g>
    </g>
   </g>
  </g>
 </g>
 <defs>
  <clipPath id="p1afe9f46b5">
   <rect x="52.160938" y="22.318125" width="516.639063" height="228.125625"/>
  </clipPath>
 </defs>
</svg>
