<?xml version="1.0" encoding="utf-8" standalone="no"?>
<!DOCTYPE svg PUBLIC "-//W3C//DTD SVG 1.1//EN"
  "http://www.w3.org/Graphics/SVG/1.1/DTD/svg11.dtd">
<svg xmlns:xlink="http://www.w3.org/1999/xlink" width="576pt" height="288pt" viewBox="0 0 576 288" xmlns="http://www.w3.org/2000/svg" version="1.1">
 <metadata>
  <rdf:RDF xmlns:dc="http://purl.org/dc/elements/1.1/" xmlns:cc="http://creativecommons.org/ns#" xmlns:rdf="http://www.w3.org/1999/02/22-rdf-syntax-ns#">
   <cc:Work>
    <dc:type rdf:resource="http://purl.org/dc/dcmitype/StillImage"/>
    <dc:date>2025-05-04T14:37:03.430520</dc:date>
    <dc:format>image/svg+xml</dc:format>
    <dc:creator>
     <cc:Agent>
      <dc:title>Matplotlib v3.10.1, https://matplotlib.org/</dc:title>
     </cc:Agent>
    </dc:creator>
   </cc:Work>
  </rdf:RDF>
 </metadata>
 <defs>
  <style type="text/css">*{stroke-linejoin: round; stroke-linecap: butt}</style>
 </defs>
 <g id="figure_1">
  <g id="patch_1">
   <path d="M 0 288 
L 576 288 
L 576 0 
L 0 0 
z
" style="fill: #ffffff"/>
  </g>
  <g id="axes_1">
   <g id="patch_2">
    <path d="M 58.523438 250.44375 
L 568.8 250.44375 
L 568.8 22.318125 
L 58.523438 22.318125 
z
" style="fill: #ffffff"/>
   </g>
   <g id="matplotlib.axis_1">
    <g id="xtick_1">
     <g id="line2d_1">
      <path d="M 117.401502 250.44375 
L 117.401502 22.318125 
" clip-path="url(#p1973342b17)" style="fill: none; stroke-dasharray: 2.96,1.28; stroke-dashoffset: 0; stroke: #b0b0b0; stroke-opacity: 0.8; stroke-width: 0.8"/>
     </g>
     <g id="line2d_2">
      <defs>
       <path id="m87d9f1d06d" d="M 0 0 
L 0 3.5 
" style="stroke: #000000; stroke-width: 0.8"/>
      </defs>
      <g>
       <use xlink:href="#m87d9f1d06d" x="117.401502" y="250.44375" style="stroke: #000000; stroke-width: 0.8"/>
      </g>
     </g>
     <g id="text_1">
      <!-- -2 -->
      <g transform="translate(112.416346 265.042188) scale(0.1 -0.1)">
       <defs>
        <path id="DejaVuSans-2d" d="M 313 2009 
L 1997 2009 
L 1997 1497 
L 313 1497 
L 313 2009 
z
" transform="scale(0.015625)"/>
        <path id="DejaVuSans-32" d="M 1228 531 
L 3431 531 
L 3431 0 
L 469 0 
L 469 531 
Q 828 903 1448 1529 
Q 2069 2156 2228 2338 
Q 2531 2678 2651 2914 
Q 2772 3150 2772 3378 
Q 2772 3750 2511 3984 
Q 2250 4219 1831 4219 
Q 1534 4219 1204 4116 
Q 875 4013 500 3803 
L 500 4441 
Q 881 4594 1212 4672 
Q 1544 4750 1819 4750 
Q 2544 4750 2975 4387 
Q 3406 4025 3406 3419 
Q 3406 3131 3298 2873 
Q 3191 2616 2906 2266 
Q 2828 2175 2409 1742 
Q 1991 1309 1228 531 
z
" transform="scale(0.015625)"/>
       </defs>
       <use xlink:href="#DejaVuSans-2d"/>
       <use xlink:href="#DejaVuSans-32" transform="translate(36.083984 0)"/>
      </g>
     </g>
    </g>
    <g id="xtick_2">
     <g id="line2d_3">
      <path d="M 188.768854 250.44375 
L 188.768854 22.318125 
" clip-path="url(#p1973342b17)" style="fill: none; stroke-dasharray: 2.96,1.28; stroke-dashoffset: 0; stroke: #b0b0b0; stroke-opacity: 0.8; stroke-width: 0.8"/>
     </g>
     <g id="line2d_4">
      <g>
       <use xlink:href="#m87d9f1d06d" x="188.768854" y="250.44375" style="stroke: #000000; stroke-width: 0.8"/>
      </g>
     </g>
     <g id="text_2">
      <!-- 0 -->
      <g transform="translate(185.587604 265.042188) scale(0.1 -0.1)">
       <defs>
        <path id="DejaVuSans-30" d="M 2034 4250 
Q 1547 4250 1301 3770 
Q 1056 3291 1056 2328 
Q 1056 1369 1301 889 
Q 1547 409 2034 409 
Q 2525 409 2770 889 
Q 3016 1369 3016 2328 
Q 3016 3291 2770 3770 
Q 2525 4250 2034 4250 
z
M 2034 4750 
Q 2819 4750 3233 4129 
Q 3647 3509 3647 2328 
Q 3647 1150 3233 529 
Q 2819 -91 2034 -91 
Q 1250 -91 836 529 
Q 422 1150 422 2328 
Q 422 3509 836 4129 
Q 1250 4750 2034 4750 
z
" transform="scale(0.015625)"/>
       </defs>
       <use xlink:href="#DejaVuSans-30"/>
      </g>
     </g>
    </g>
    <g id="xtick_3">
     <g id="line2d_5">
      <path d="M 260.136205 250.44375 
L 260.136205 22.318125 
" clip-path="url(#p1973342b17)" style="fill: none; stroke-dasharray: 2.96,1.28; stroke-dashoffset: 0; stroke: #b0b0b0; stroke-opacity: 0.8; stroke-width: 0.8"/>
     </g>
     <g id="line2d_6">
      <g>
       <use xlink:href="#m87d9f1d06d" x="260.136205" y="250.44375" style="stroke: #000000; stroke-width: 0.8"/>
      </g>
     </g>
     <g id="text_3">
      <!-- 2 -->
      <g transform="translate(256.954955 265.042188) scale(0.1 -0.1)">
       <use xlink:href="#DejaVuSans-32"/>
      </g>
     </g>
    </g>
    <g id="xtick_4">
     <g id="line2d_7">
      <path d="M 331.503557 250.44375 
L 331.503557 22.318125 
" clip-path="url(#p1973342b17)" style="fill: none; stroke-dasharray: 2.96,1.28; stroke-dashoffset: 0; stroke: #b0b0b0; stroke-opacity: 0.8; stroke-width: 0.8"/>
     </g>
     <g id="line2d_8">
      <g>
       <use xlink:href="#m87d9f1d06d" x="331.503557" y="250.44375" style="stroke: #000000; stroke-width: 0.8"/>
      </g>
     </g>
     <g id="text_4">
      <!-- 4 -->
      <g transform="translate(328.322307 265.042188) scale(0.1 -0.1)">
       <defs>
        <path id="DejaVuSans-34" d="M 2419 4116 
L 825 1625 
L 2419 1625 
L 2419 4116 
z
M 2253 4666 
L 3047 4666 
L 3047 1625 
L 3713 1625 
L 3713 1100 
L 3047 1100 
L 3047 0 
L 2419 0 
L 2419 1100 
L 313 1100 
L 313 1709 
L 2253 4666 
z
" transform="scale(0.015625)"/>
       </defs>
       <use xlink:href="#DejaVuSans-34"/>
      </g>
     </g>
    </g>
    <g id="xtick_5">
     <g id="line2d_9">
      <path d="M 402.870908 250.44375 
L 402.870908 22.318125 
" clip-path="url(#p1973342b17)" style="fill: none; stroke-dasharray: 2.96,1.28; stroke-dashoffset: 0; stroke: #b0b0b0; stroke-opacity: 0.8; stroke-width: 0.8"/>
     </g>
     <g id="line2d_10">
      <g>
       <use xlink:href="#m87d9f1d06d" x="402.870908" y="250.44375" style="stroke: #000000; stroke-width: 0.8"/>
      </g>
     </g>
     <g id="text_5">
      <!-- 6 -->
      <g transform="translate(399.689658 265.042188) scale(0.1 -0.1)">
       <defs>
        <path id="DejaVuSans-36" d="M 2113 2584 
Q 1688 2584 1439 2293 
Q 1191 2003 1191 1497 
Q 1191 994 1439 701 
Q 1688 409 2113 409 
Q 2538 409 2786 701 
Q 3034 994 3034 1497 
Q 3034 2003 2786 2293 
Q 2538 2584 2113 2584 
z
M 3366 4563 
L 3366 3988 
Q 3128 4100 2886 4159 
Q 2644 4219 2406 4219 
Q 1781 4219 1451 3797 
Q 1122 3375 1075 2522 
Q 1259 2794 1537 2939 
Q 1816 3084 2150 3084 
Q 2853 3084 3261 2657 
Q 3669 2231 3669 1497 
Q 3669 778 3244 343 
Q 2819 -91 2113 -91 
Q 1303 -91 875 529 
Q 447 1150 447 2328 
Q 447 3434 972 4092 
Q 1497 4750 2381 4750 
Q 2619 4750 2861 4703 
Q 3103 4656 3366 4563 
z
" transform="scale(0.015625)"/>
       </defs>
       <use xlink:href="#DejaVuSans-36"/>
      </g>
     </g>
    </g>
    <g id="xtick_6">
     <g id="line2d_11">
      <path d="M 474.238259 250.44375 
L 474.238259 22.318125 
" clip-path="url(#p1973342b17)" style="fill: none; stroke-dasharray: 2.96,1.28; stroke-dashoffset: 0; stroke: #b0b0b0; stroke-opacity: 0.8; stroke-width: 0.8"/>
     </g>
     <g id="line2d_12">
      <g>
       <use xlink:href="#m87d9f1d06d" x="474.238259" y="250.44375" style="stroke: #000000; stroke-width: 0.8"/>
      </g>
     </g>
     <g id="text_6">
      <!-- 8 -->
      <g transform="translate(471.057009 265.042188) scale(0.1 -0.1)">
       <defs>
        <path id="DejaVuSans-38" d="M 2034 2216 
Q 1584 2216 1326 1975 
Q 1069 1734 1069 1313 
Q 1069 891 1326 650 
Q 1584 409 2034 409 
Q 2484 409 2743 651 
Q 3003 894 3003 1313 
Q 3003 1734 2745 1975 
Q 2488 2216 2034 2216 
z
M 1403 2484 
Q 997 2584 770 2862 
Q 544 3141 544 3541 
Q 544 4100 942 4425 
Q 1341 4750 2034 4750 
Q 2731 4750 3128 4425 
Q 3525 4100 3525 3541 
Q 3525 3141 3298 2862 
Q 3072 2584 2669 2484 
Q 3125 2378 3379 2068 
Q 3634 1759 3634 1313 
Q 3634 634 3220 271 
Q 2806 -91 2034 -91 
Q 1263 -91 848 271 
Q 434 634 434 1313 
Q 434 1759 690 2068 
Q 947 2378 1403 2484 
z
M 1172 3481 
Q 1172 3119 1398 2916 
Q 1625 2713 2034 2713 
Q 2441 2713 2670 2916 
Q 2900 3119 2900 3481 
Q 2900 3844 2670 4047 
Q 2441 4250 2034 4250 
Q 1625 4250 1398 4047 
Q 1172 3844 1172 3481 
z
" transform="scale(0.015625)"/>
       </defs>
       <use xlink:href="#DejaVuSans-38"/>
      </g>
     </g>
    </g>
    <g id="xtick_7">
     <g id="line2d_13">
      <path d="M 545.605611 250.44375 
L 545.605611 22.318125 
" clip-path="url(#p1973342b17)" style="fill: none; stroke-dasharray: 2.96,1.28; stroke-dashoffset: 0; stroke: #b0b0b0; stroke-opacity: 0.8; stroke-width: 0.8"/>
     </g>
     <g id="line2d_14">
      <g>
       <use xlink:href="#m87d9f1d06d" x="545.605611" y="250.44375" style="stroke: #000000; stroke-width: 0.8"/>
      </g>
     </g>
     <g id="text_7">
      <!-- 10 -->
      <g transform="translate(539.243111 265.042188) scale(0.1 -0.1)">
       <defs>
        <path id="DejaVuSans-31" d="M 794 531 
L 1825 531 
L 1825 4091 
L 703 3866 
L 703 4441 
L 1819 4666 
L 2450 4666 
L 2450 531 
L 3481 531 
L 3481 0 
L 794 0 
L 794 531 
z
" transform="scale(0.015625)"/>
       </defs>
       <use xlink:href="#DejaVuSans-31"/>
       <use xlink:href="#DejaVuSans-30" transform="translate(63.623047 0)"/>
      </g>
     </g>
    </g>
    <g id="text_8">
     <!-- Time (s), $t$ -->
     <g transform="translate(288.011719 278.720312) scale(0.1 -0.1)">
      <defs>
       <path id="DejaVuSans-54" d="M -19 4666 
L 3928 4666 
L 3928 4134 
L 2272 4134 
L 2272 0 
L 1638 0 
L 1638 4134 
L -19 4134 
L -19 4666 
z
" transform="scale(0.015625)"/>
       <path id="DejaVuSans-69" d="M 603 3500 
L 1178 3500 
L 1178 0 
L 603 0 
L 603 3500 
z
M 603 4863 
L 1178 4863 
L 1178 4134 
L 603 4134 
L 603 4863 
z
" transform="scale(0.015625)"/>
       <path id="DejaVuSans-6d" d="M 3328 2828 
Q 3544 3216 3844 3400 
Q 4144 3584 4550 3584 
Q 5097 3584 5394 3201 
Q 5691 2819 5691 2113 
L 5691 0 
L 5113 0 
L 5113 2094 
Q 5113 2597 4934 2840 
Q 4756 3084 4391 3084 
Q 3944 3084 3684 2787 
Q 3425 2491 3425 1978 
L 3425 0 
L 2847 0 
L 2847 2094 
Q 2847 2600 2669 2842 
Q 2491 3084 2119 3084 
Q 1678 3084 1418 2786 
Q 1159 2488 1159 1978 
L 1159 0 
L 581 0 
L 581 3500 
L 1159 3500 
L 1159 2956 
Q 1356 3278 1631 3431 
Q 1906 3584 2284 3584 
Q 2666 3584 2933 3390 
Q 3200 3197 3328 2828 
z
" transform="scale(0.015625)"/>
       <path id="DejaVuSans-65" d="M 3597 1894 
L 3597 1613 
L 953 1613 
Q 991 1019 1311 708 
Q 1631 397 2203 397 
Q 2534 397 2845 478 
Q 3156 559 3463 722 
L 3463 178 
Q 3153 47 2828 -22 
Q 2503 -91 2169 -91 
Q 1331 -91 842 396 
Q 353 884 353 1716 
Q 353 2575 817 3079 
Q 1281 3584 2069 3584 
Q 2775 3584 3186 3129 
Q 3597 2675 3597 1894 
z
M 3022 2063 
Q 3016 2534 2758 2815 
Q 2500 3097 2075 3097 
Q 1594 3097 1305 2825 
Q 1016 2553 972 2059 
L 3022 2063 
z
" transform="scale(0.015625)"/>
       <path id="DejaVuSans-20" transform="scale(0.015625)"/>
       <path id="DejaVuSans-28" d="M 1984 4856 
Q 1566 4138 1362 3434 
Q 1159 2731 1159 2009 
Q 1159 1288 1364 580 
Q 1569 -128 1984 -844 
L 1484 -844 
Q 1016 -109 783 600 
Q 550 1309 550 2009 
Q 550 2706 781 3412 
Q 1013 4119 1484 4856 
L 1984 4856 
z
" transform="scale(0.015625)"/>
       <path id="DejaVuSans-73" d="M 2834 3397 
L 2834 2853 
Q 2591 2978 2328 3040 
Q 2066 3103 1784 3103 
Q 1356 3103 1142 2972 
Q 928 2841 928 2578 
Q 928 2378 1081 2264 
Q 1234 2150 1697 2047 
L 1894 2003 
Q 2506 1872 2764 1633 
Q 3022 1394 3022 966 
Q 3022 478 2636 193 
Q 2250 -91 1575 -91 
Q 1294 -91 989 -36 
Q 684 19 347 128 
L 347 722 
Q 666 556 975 473 
Q 1284 391 1588 391 
Q 1994 391 2212 530 
Q 2431 669 2431 922 
Q 2431 1156 2273 1281 
Q 2116 1406 1581 1522 
L 1381 1569 
Q 847 1681 609 1914 
Q 372 2147 372 2553 
Q 372 3047 722 3315 
Q 1072 3584 1716 3584 
Q 2034 3584 2315 3537 
Q 2597 3491 2834 3397 
z
" transform="scale(0.015625)"/>
       <path id="DejaVuSans-29" d="M 513 4856 
L 1013 4856 
Q 1481 4119 1714 3412 
Q 1947 2706 1947 2009 
Q 1947 1309 1714 600 
Q 1481 -109 1013 -844 
L 513 -844 
Q 928 -128 1133 580 
Q 1338 1288 1338 2009 
Q 1338 2731 1133 3434 
Q 928 4138 513 4856 
z
" transform="scale(0.015625)"/>
       <path id="DejaVuSans-2c" d="M 750 794 
L 1409 794 
L 1409 256 
L 897 -744 
L 494 -744 
L 750 256 
L 750 794 
z
" transform="scale(0.015625)"/>
       <path id="DejaVuSans-Oblique-74" d="M 2706 3500 
L 2619 3053 
L 1472 3053 
L 1100 1153 
Q 1081 1047 1072 975 
Q 1063 903 1063 863 
Q 1063 663 1183 572 
Q 1303 481 1569 481 
L 2150 481 
L 2053 0 
L 1503 0 
Q 991 0 739 200 
Q 488 400 488 806 
Q 488 878 497 964 
Q 506 1050 525 1153 
L 897 3053 
L 409 3053 
L 500 3500 
L 978 3500 
L 1172 4494 
L 1747 4494 
L 1556 3500 
L 2706 3500 
z
" transform="scale(0.015625)"/>
      </defs>
      <use xlink:href="#DejaVuSans-54" transform="translate(0 0.015625)"/>
      <use xlink:href="#DejaVuSans-69" transform="translate(61.083984 0.015625)"/>
      <use xlink:href="#DejaVuSans-6d" transform="translate(88.867188 0.015625)"/>
      <use xlink:href="#DejaVuSans-65" transform="translate(186.279297 0.015625)"/>
      <use xlink:href="#DejaVuSans-20" transform="translate(247.802734 0.015625)"/>
      <use xlink:href="#DejaVuSans-28" transform="translate(279.589844 0.015625)"/>
      <use xlink:href="#DejaVuSans-73" transform="translate(318.603516 0.015625)"/>
      <use xlink:href="#DejaVuSans-29" transform="translate(370.703125 0.015625)"/>
      <use xlink:href="#DejaVuSans-2c" transform="translate(409.716797 0.015625)"/>
      <use xlink:href="#DejaVuSans-20" transform="translate(441.503906 0.015625)"/>
      <use xlink:href="#DejaVuSans-Oblique-74" transform="translate(473.291016 0.015625)"/>
     </g>
    </g>
   </g>
   <g id="matplotlib.axis_2">
    <g id="ytick_1">
     <g id="line2d_15">
      <path d="M 58.523438 240.977505 
L 568.8 240.977505 
" clip-path="url(#p1973342b17)" style="fill: none; stroke-dasharray: 2.96,1.28; stroke-dashoffset: 0; stroke: #b0b0b0; stroke-opacity: 0.8; stroke-width: 0.8"/>
     </g>
     <g id="line2d_16">
      <defs>
       <path id="m160c6e682b" d="M 0 0 
L -3.5 0 
" style="stroke: #000000; stroke-width: 0.8"/>
      </defs>
      <g>
       <use xlink:href="#m160c6e682b" x="58.523438" y="240.977505" style="stroke: #000000; stroke-width: 0.8"/>
      </g>
     </g>
     <g id="text_9">
      <!-- −1.00 -->
      <g transform="translate(20.878125 244.776724) scale(0.1 -0.1)">
       <defs>
        <path id="DejaVuSans-2212" d="M 678 2272 
L 4684 2272 
L 4684 1741 
L 678 1741 
L 678 2272 
z
" transform="scale(0.015625)"/>
        <path id="DejaVuSans-2e" d="M 684 794 
L 1344 794 
L 1344 0 
L 684 0 
L 684 794 
z
" transform="scale(0.015625)"/>
       </defs>
       <use xlink:href="#DejaVuSans-2212"/>
       <use xlink:href="#DejaVuSans-31" transform="translate(83.789062 0)"/>
       <use xlink:href="#DejaVuSans-2e" transform="translate(147.412109 0)"/>
       <use xlink:href="#DejaVuSans-30" transform="translate(179.199219 0)"/>
       <use xlink:href="#DejaVuSans-30" transform="translate(242.822266 0)"/>
      </g>
     </g>
    </g>
    <g id="ytick_2">
     <g id="line2d_17">
      <path d="M 58.523438 214.941251 
L 568.8 214.941251 
" clip-path="url(#p1973342b17)" style="fill: none; stroke-dasharray: 2.96,1.28; stroke-dashoffset: 0; stroke: #b0b0b0; stroke-opacity: 0.8; stroke-width: 0.8"/>
     </g>
     <g id="line2d_18">
      <g>
       <use xlink:href="#m160c6e682b" x="58.523438" y="214.941251" style="stroke: #000000; stroke-width: 0.8"/>
      </g>
     </g>
     <g id="text_10">
      <!-- −0.75 -->
      <g transform="translate(20.878125 218.740469) scale(0.1 -0.1)">
       <defs>
        <path id="DejaVuSans-37" d="M 525 4666 
L 3525 4666 
L 3525 4397 
L 1831 0 
L 1172 0 
L 2766 4134 
L 525 4134 
L 525 4666 
z
" transform="scale(0.015625)"/>
        <path id="DejaVuSans-35" d="M 691 4666 
L 3169 4666 
L 3169 4134 
L 1269 4134 
L 1269 2991 
Q 1406 3038 1543 3061 
Q 1681 3084 1819 3084 
Q 2600 3084 3056 2656 
Q 3513 2228 3513 1497 
Q 3513 744 3044 326 
Q 2575 -91 1722 -91 
Q 1428 -91 1123 -41 
Q 819 9 494 109 
L 494 744 
Q 775 591 1075 516 
Q 1375 441 1709 441 
Q 2250 441 2565 725 
Q 2881 1009 2881 1497 
Q 2881 1984 2565 2268 
Q 2250 2553 1709 2553 
Q 1456 2553 1204 2497 
Q 953 2441 691 2322 
L 691 4666 
z
" transform="scale(0.015625)"/>
       </defs>
       <use xlink:href="#DejaVuSans-2212"/>
       <use xlink:href="#DejaVuSans-30" transform="translate(83.789062 0)"/>
       <use xlink:href="#DejaVuSans-2e" transform="translate(147.412109 0)"/>
       <use xlink:href="#DejaVuSans-37" transform="translate(179.199219 0)"/>
       <use xlink:href="#DejaVuSans-35" transform="translate(242.822266 0)"/>
      </g>
     </g>
    </g>
    <g id="ytick_3">
     <g id="line2d_19">
      <path d="M 58.523438 188.904997 
L 568.8 188.904997 
" clip-path="url(#p1973342b17)" style="fill: none; stroke-dasharray: 2.96,1.28; stroke-dashoffset: 0; stroke: #b0b0b0; stroke-opacity: 0.8; stroke-width: 0.8"/>
     </g>
     <g id="line2d_20">
      <g>
       <use xlink:href="#m160c6e682b" x="58.523438" y="188.904997" style="stroke: #000000; stroke-width: 0.8"/>
      </g>
     </g>
     <g id="text_11">
      <!-- −0.50 -->
      <g transform="translate(20.878125 192.704215) scale(0.1 -0.1)">
       <use xlink:href="#DejaVuSans-2212"/>
       <use xlink:href="#DejaVuSans-30" transform="translate(83.789062 0)"/>
       <use xlink:href="#DejaVuSans-2e" transform="translate(147.412109 0)"/>
       <use xlink:href="#DejaVuSans-35" transform="translate(179.199219 0)"/>
       <use xlink:href="#DejaVuSans-30" transform="translate(242.822266 0)"/>
      </g>
     </g>
    </g>
    <g id="ytick_4">
     <g id="line2d_21">
      <path d="M 58.523438 162.868742 
L 568.8 162.868742 
" clip-path="url(#p1973342b17)" style="fill: none; stroke-dasharray: 2.96,1.28; stroke-dashoffset: 0; stroke: #b0b0b0; stroke-opacity: 0.8; stroke-width: 0.8"/>
     </g>
     <g id="line2d_22">
      <g>
       <use xlink:href="#m160c6e682b" x="58.523438" y="162.868742" style="stroke: #000000; stroke-width: 0.8"/>
      </g>
     </g>
     <g id="text_12">
      <!-- −0.25 -->
      <g transform="translate(20.878125 166.667961) scale(0.1 -0.1)">
       <use xlink:href="#DejaVuSans-2212"/>
       <use xlink:href="#DejaVuSans-30" transform="translate(83.789062 0)"/>
       <use xlink:href="#DejaVuSans-2e" transform="translate(147.412109 0)"/>
       <use xlink:href="#DejaVuSans-32" transform="translate(179.199219 0)"/>
       <use xlink:href="#DejaVuSans-35" transform="translate(242.822266 0)"/>
      </g>
     </g>
    </g>
    <g id="ytick_5">
     <g id="line2d_23">
      <path d="M 58.523438 136.832488 
L 568.8 136.832488 
" clip-path="url(#p1973342b17)" style="fill: none; stroke-dasharray: 2.96,1.28; stroke-dashoffset: 0; stroke: #b0b0b0; stroke-opacity: 0.8; stroke-width: 0.8"/>
     </g>
     <g id="line2d_24">
      <g>
       <use xlink:href="#m160c6e682b" x="58.523438" y="136.832488" style="stroke: #000000; stroke-width: 0.8"/>
      </g>
     </g>
     <g id="text_13">
      <!-- 0.00 -->
      <g transform="translate(29.257813 140.631707) scale(0.1 -0.1)">
       <use xlink:href="#DejaVuSans-30"/>
       <use xlink:href="#DejaVuSans-2e" transform="translate(63.623047 0)"/>
       <use xlink:href="#DejaVuSans-30" transform="translate(95.410156 0)"/>
       <use xlink:href="#DejaVuSans-30" transform="translate(159.033203 0)"/>
      </g>
     </g>
    </g>
    <g id="ytick_6">
     <g id="line2d_25">
      <path d="M 58.523438 110.796234 
L 568.8 110.796234 
" clip-path="url(#p1973342b17)" style="fill: none; stroke-dasharray: 2.96,1.28; stroke-dashoffset: 0; stroke: #b0b0b0; stroke-opacity: 0.8; stroke-width: 0.8"/>
     </g>
     <g id="line2d_26">
      <g>
       <use xlink:href="#m160c6e682b" x="58.523438" y="110.796234" style="stroke: #000000; stroke-width: 0.8"/>
      </g>
     </g>
     <g id="text_14">
      <!-- 0.25 -->
      <g transform="translate(29.257813 114.595453) scale(0.1 -0.1)">
       <use xlink:href="#DejaVuSans-30"/>
       <use xlink:href="#DejaVuSans-2e" transform="translate(63.623047 0)"/>
       <use xlink:href="#DejaVuSans-32" transform="translate(95.410156 0)"/>
       <use xlink:href="#DejaVuSans-35" transform="translate(159.033203 0)"/>
      </g>
     </g>
    </g>
    <g id="ytick_7">
     <g id="line2d_27">
      <path d="M 58.523438 84.75998 
L 568.8 84.75998 
" clip-path="url(#p1973342b17)" style="fill: none; stroke-dasharray: 2.96,1.28; stroke-dashoffset: 0; stroke: #b0b0b0; stroke-opacity: 0.8; stroke-width: 0.8"/>
     </g>
     <g id="line2d_28">
      <g>
       <use xlink:href="#m160c6e682b" x="58.523438" y="84.75998" style="stroke: #000000; stroke-width: 0.8"/>
      </g>
     </g>
     <g id="text_15">
      <!-- 0.50 -->
      <g transform="translate(29.257813 88.559199) scale(0.1 -0.1)">
       <use xlink:href="#DejaVuSans-30"/>
       <use xlink:href="#DejaVuSans-2e" transform="translate(63.623047 0)"/>
       <use xlink:href="#DejaVuSans-35" transform="translate(95.410156 0)"/>
       <use xlink:href="#DejaVuSans-30" transform="translate(159.033203 0)"/>
      </g>
     </g>
    </g>
    <g id="ytick_8">
     <g id="line2d_29">
      <path d="M 58.523438 58.723726 
L 568.8 58.723726 
" clip-path="url(#p1973342b17)" style="fill: none; stroke-dasharray: 2.96,1.28; stroke-dashoffset: 0; stroke: #b0b0b0; stroke-opacity: 0.8; stroke-width: 0.8"/>
     </g>
     <g id="line2d_30">
      <g>
       <use xlink:href="#m160c6e682b" x="58.523438" y="58.723726" style="stroke: #000000; stroke-width: 0.8"/>
      </g>
     </g>
     <g id="text_16">
      <!-- 0.75 -->
      <g transform="translate(29.257813 62.522944) scale(0.1 -0.1)">
       <use xlink:href="#DejaVuSans-30"/>
       <use xlink:href="#DejaVuSans-2e" transform="translate(63.623047 0)"/>
       <use xlink:href="#DejaVuSans-37" transform="translate(95.410156 0)"/>
       <use xlink:href="#DejaVuSans-35" transform="translate(159.033203 0)"/>
      </g>
     </g>
    </g>
    <g id="ytick_9">
     <g id="line2d_31">
      <path d="M 58.523438 32.687472 
L 568.8 32.687472 
" clip-path="url(#p1973342b17)" style="fill: none; stroke-dasharray: 2.96,1.28; stroke-dashoffset: 0; stroke: #b0b0b0; stroke-opacity: 0.8; stroke-width: 0.8"/>
     </g>
     <g id="line2d_32">
      <g>
       <use xlink:href="#m160c6e682b" x="58.523438" y="32.687472" style="stroke: #000000; stroke-width: 0.8"/>
      </g>
     </g>
     <g id="text_17">
      <!-- 1.00 -->
      <g transform="translate(29.257813 36.48669) scale(0.1 -0.1)">
       <use xlink:href="#DejaVuSans-31"/>
       <use xlink:href="#DejaVuSans-2e" transform="translate(63.623047 0)"/>
       <use xlink:href="#DejaVuSans-30" transform="translate(95.410156 0)"/>
       <use xlink:href="#DejaVuSans-30" transform="translate(159.033203 0)"/>
      </g>
     </g>
    </g>
    <g id="text_18">
     <!-- Amplitude -->
     <g transform="translate(14.798438 162.003594) rotate(-90) scale(0.1 -0.1)">
      <defs>
       <path id="DejaVuSans-41" d="M 2188 4044 
L 1331 1722 
L 3047 1722 
L 2188 4044 
z
M 1831 4666 
L 2547 4666 
L 4325 0 
L 3669 0 
L 3244 1197 
L 1141 1197 
L 716 0 
L 50 0 
L 1831 4666 
z
" transform="scale(0.015625)"/>
       <path id="DejaVuSans-70" d="M 1159 525 
L 1159 -1331 
L 581 -1331 
L 581 3500 
L 1159 3500 
L 1159 2969 
Q 1341 3281 1617 3432 
Q 1894 3584 2278 3584 
Q 2916 3584 3314 3078 
Q 3713 2572 3713 1747 
Q 3713 922 3314 415 
Q 2916 -91 2278 -91 
Q 1894 -91 1617 61 
Q 1341 213 1159 525 
z
M 3116 1747 
Q 3116 2381 2855 2742 
Q 2594 3103 2138 3103 
Q 1681 3103 1420 2742 
Q 1159 2381 1159 1747 
Q 1159 1113 1420 752 
Q 1681 391 2138 391 
Q 2594 391 2855 752 
Q 3116 1113 3116 1747 
z
" transform="scale(0.015625)"/>
       <path id="DejaVuSans-6c" d="M 603 4863 
L 1178 4863 
L 1178 0 
L 603 0 
L 603 4863 
z
" transform="scale(0.015625)"/>
       <path id="DejaVuSans-74" d="M 1172 4494 
L 1172 3500 
L 2356 3500 
L 2356 3053 
L 1172 3053 
L 1172 1153 
Q 1172 725 1289 603 
Q 1406 481 1766 481 
L 2356 481 
L 2356 0 
L 1766 0 
Q 1100 0 847 248 
Q 594 497 594 1153 
L 594 3053 
L 172 3053 
L 172 3500 
L 594 3500 
L 594 4494 
L 1172 4494 
z
" transform="scale(0.015625)"/>
       <path id="DejaVuSans-75" d="M 544 1381 
L 544 3500 
L 1119 3500 
L 1119 1403 
Q 1119 906 1312 657 
Q 1506 409 1894 409 
Q 2359 409 2629 706 
Q 2900 1003 2900 1516 
L 2900 3500 
L 3475 3500 
L 3475 0 
L 2900 0 
L 2900 538 
Q 2691 219 2414 64 
Q 2138 -91 1772 -91 
Q 1169 -91 856 284 
Q 544 659 544 1381 
z
M 1991 3584 
L 1991 3584 
z
" transform="scale(0.015625)"/>
       <path id="DejaVuSans-64" d="M 2906 2969 
L 2906 4863 
L 3481 4863 
L 3481 0 
L 2906 0 
L 2906 525 
Q 2725 213 2448 61 
Q 2172 -91 1784 -91 
Q 1150 -91 751 415 
Q 353 922 353 1747 
Q 353 2572 751 3078 
Q 1150 3584 1784 3584 
Q 2172 3584 2448 3432 
Q 2725 3281 2906 2969 
z
M 947 1747 
Q 947 1113 1208 752 
Q 1469 391 1925 391 
Q 2381 391 2643 752 
Q 2906 1113 2906 1747 
Q 2906 2381 2643 2742 
Q 2381 3103 1925 3103 
Q 1469 3103 1208 2742 
Q 947 2381 947 1747 
z
" transform="scale(0.015625)"/>
      </defs>
      <use xlink:href="#DejaVuSans-41"/>
      <use xlink:href="#DejaVuSans-6d" transform="translate(68.408203 0)"/>
      <use xlink:href="#DejaVuSans-70" transform="translate(165.820312 0)"/>
      <use xlink:href="#DejaVuSans-6c" transform="translate(229.296875 0)"/>
      <use xlink:href="#DejaVuSans-69" transform="translate(257.080078 0)"/>
      <use xlink:href="#DejaVuSans-74" transform="translate(284.863281 0)"/>
      <use xlink:href="#DejaVuSans-75" transform="translate(324.072266 0)"/>
      <use xlink:href="#DejaVuSans-64" transform="translate(387.451172 0)"/>
      <use xlink:href="#DejaVuSans-65" transform="translate(450.927734 0)"/>
     </g>
    </g>
   </g>
   <g id="line2d_33">
    <path d="M 188.768854 32.687472 
L 224.45253 100.379696 
L 260.136205 215.459124 
L 295.819881 228.327001 
L 331.503557 122.25559 
L 367.187232 35.133576 
L 402.870908 80.21617 
L 438.554584 198.897763 
L 474.238259 236.896926 
L 509.921935 144.816234 
L 545.605611 42.356984 
" clip-path="url(#p1973342b17)" style="fill: none; stroke: #1f77b4; stroke-linecap: square"/>
    <defs>
     <path id="m0605d512aa" d="M 0 3 
C 0.795609 3 1.55874 2.683901 2.12132 2.12132 
C 2.683901 1.55874 3 0.795609 3 0 
C 3 -0.795609 2.683901 -1.55874 2.12132 -2.12132 
C 1.55874 -2.683901 0.795609 -3 0 -3 
C -0.795609 -3 -1.55874 -2.683901 -2.12132 -2.12132 
C -2.683901 -1.55874 -3 -0.795609 -3 0 
C -3 0.795609 -2.683901 1.55874 -2.12132 2.12132 
C -1.55874 2.683901 -0.795609 3 0 3 
z
" style="stroke: #1f77b4"/>
    </defs>
    <g clip-path="url(#p1973342b17)">
     <use xlink:href="#m0605d512aa" x="188.768854" y="32.687472" style="fill: #1f77b4; stroke: #1f77b4"/>
     <use xlink:href="#m0605d512aa" x="224.45253" y="100.379696" style="fill: #1f77b4; stroke: #1f77b4"/>
     <use xlink:href="#m0605d512aa" x="260.136205" y="215.459124" style="fill: #1f77b4; stroke: #1f77b4"/>
     <use xlink:href="#m0605d512aa" x="295.819881" y="228.327001" style="fill: #1f77b4; stroke: #1f77b4"/>
     <use xlink:href="#m0605d512aa" x="331.503557" y="122.25559" style="fill: #1f77b4; stroke: #1f77b4"/>
     <use xlink:href="#m0605d512aa" x="367.187232" y="35.133576" style="fill: #1f77b4; stroke: #1f77b4"/>
     <use xlink:href="#m0605d512aa" x="402.870908" y="80.21617" style="fill: #1f77b4; stroke: #1f77b4"/>
     <use xlink:href="#m0605d512aa" x="438.554584" y="198.897763" style="fill: #1f77b4; stroke: #1f77b4"/>
     <use xlink:href="#m0605d512aa" x="474.238259" y="236.896926" style="fill: #1f77b4; stroke: #1f77b4"/>
     <use xlink:href="#m0605d512aa" x="509.921935" y="144.816234" style="fill: #1f77b4; stroke: #1f77b4"/>
     <use xlink:href="#m0605d512aa" x="545.605611" y="42.356984" style="fill: #1f77b4; stroke: #1f77b4"/>
    </g>
   </g>
   <g id="line2d_34">
    <path d="M 153.085178 136.832488 
L 164.443645 103.6821 
L 175.802112 70.531711 
L 187.160578 37.381323 
L 198.519045 51.183664 
L 209.877512 72.730768 
L 221.235979 94.277872 
L 232.594445 126.637277 
L 243.952912 163.268197 
L 255.311379 199.899117 
L 266.669846 217.815218 
L 278.028312 221.91119 
L 289.386779 226.007163 
L 300.745246 213.686121 
L 312.103713 179.922543 
L 323.462179 146.158964 
L 334.820646 114.156886 
L 346.179113 86.425088 
L 357.53758 58.69329 
L 368.896046 37.292484 
L 380.254513 51.642719 
L 391.61298 65.992955 
L 402.971447 80.550555 
L 414.329913 118.328079 
L 425.68838 156.105604 
L 437.046847 193.883128 
L 448.405314 209.3877 
L 459.76378 221.483209 
L 471.122247 233.578718 
L 482.480714 215.627511 
L 493.839181 186.317316 
L 505.197647 157.007122 
L 516.556114 125.767383 
L 527.914581 93.153591 
L 539.273048 60.539799 
" clip-path="url(#p1973342b17)" style="fill: none; stroke: #ff7f0e; stroke-linecap: square"/>
    <defs>
     <path id="meefa59e1e2" d="M 0 1.5 
C 0.397805 1.5 0.77937 1.341951 1.06066 1.06066 
C 1.341951 0.77937 1.5 0.397805 1.5 0 
C 1.5 -0.397805 1.341951 -0.77937 1.06066 -1.06066 
C 0.77937 -1.341951 0.397805 -1.5 0 -1.5 
C -0.397805 -1.5 -0.77937 -1.341951 -1.06066 -1.06066 
C -1.341951 -0.77937 -1.5 -0.397805 -1.5 0 
C -1.5 0.397805 -1.341951 0.77937 -1.06066 1.06066 
C -0.77937 1.341951 -0.397805 1.5 0 1.5 
z
" style="stroke: #ff7f0e"/>
    </defs>
    <g clip-path="url(#p1973342b17)">
     <use xlink:href="#meefa59e1e2" x="153.085178" y="136.832488" style="fill: #ff7f0e; stroke: #ff7f0e"/>
     <use xlink:href="#meefa59e1e2" x="164.443645" y="103.6821" style="fill: #ff7f0e; stroke: #ff7f0e"/>
     <use xlink:href="#meefa59e1e2" x="175.802112" y="70.531711" style="fill: #ff7f0e; stroke: #ff7f0e"/>
     <use xlink:href="#meefa59e1e2" x="187.160578" y="37.381323" style="fill: #ff7f0e; stroke: #ff7f0e"/>
     <use xlink:href="#meefa59e1e2" x="198.519045" y="51.183664" style="fill: #ff7f0e; stroke: #ff7f0e"/>
     <use xlink:href="#meefa59e1e2" x="209.877512" y="72.730768" style="fill: #ff7f0e; stroke: #ff7f0e"/>
     <use xlink:href="#meefa59e1e2" x="221.235979" y="94.277872" style="fill: #ff7f0e; stroke: #ff7f0e"/>
     <use xlink:href="#meefa59e1e2" x="232.594445" y="126.637277" style="fill: #ff7f0e; stroke: #ff7f0e"/>
     <use xlink:href="#meefa59e1e2" x="243.952912" y="163.268197" style="fill: #ff7f0e; stroke: #ff7f0e"/>
     <use xlink:href="#meefa59e1e2" x="255.311379" y="199.899117" style="fill: #ff7f0e; stroke: #ff7f0e"/>
     <use xlink:href="#meefa59e1e2" x="266.669846" y="217.815218" style="fill: #ff7f0e; stroke: #ff7f0e"/>
     <use xlink:href="#meefa59e1e2" x="278.028312" y="221.91119" style="fill: #ff7f0e; stroke: #ff7f0e"/>
     <use xlink:href="#meefa59e1e2" x="289.386779" y="226.007163" style="fill: #ff7f0e; stroke: #ff7f0e"/>
     <use xlink:href="#meefa59e1e2" x="300.745246" y="213.686121" style="fill: #ff7f0e; stroke: #ff7f0e"/>
     <use xlink:href="#meefa59e1e2" x="312.103713" y="179.922543" style="fill: #ff7f0e; stroke: #ff7f0e"/>
     <use xlink:href="#meefa59e1e2" x="323.462179" y="146.158964" style="fill: #ff7f0e; stroke: #ff7f0e"/>
     <use xlink:href="#meefa59e1e2" x="334.820646" y="114.156886" style="fill: #ff7f0e; stroke: #ff7f0e"/>
     <use xlink:href="#meefa59e1e2" x="346.179113" y="86.425088" style="fill: #ff7f0e; stroke: #ff7f0e"/>
     <use xlink:href="#meefa59e1e2" x="357.53758" y="58.69329" style="fill: #ff7f0e; stroke: #ff7f0e"/>
     <use xlink:href="#meefa59e1e2" x="368.896046" y="37.292484" style="fill: #ff7f0e; stroke: #ff7f0e"/>
     <use xlink:href="#meefa59e1e2" x="380.254513" y="51.642719" style="fill: #ff7f0e; stroke: #ff7f0e"/>
     <use xlink:href="#meefa59e1e2" x="391.61298" y="65.992955" style="fill: #ff7f0e; stroke: #ff7f0e"/>
     <use xlink:href="#meefa59e1e2" x="402.971447" y="80.550555" style="fill: #ff7f0e; stroke: #ff7f0e"/>
     <use xlink:href="#meefa59e1e2" x="414.329913" y="118.328079" style="fill: #ff7f0e; stroke: #ff7f0e"/>
     <use xlink:href="#meefa59e1e2" x="425.68838" y="156.105604" style="fill: #ff7f0e; stroke: #ff7f0e"/>
     <use xlink:href="#meefa59e1e2" x="437.046847" y="193.883128" style="fill: #ff7f0e; stroke: #ff7f0e"/>
     <use xlink:href="#meefa59e1e2" x="448.405314" y="209.3877" style="fill: #ff7f0e; stroke: #ff7f0e"/>
     <use xlink:href="#meefa59e1e2" x="459.76378" y="221.483209" style="fill: #ff7f0e; stroke: #ff7f0e"/>
     <use xlink:href="#meefa59e1e2" x="471.122247" y="233.578718" style="fill: #ff7f0e; stroke: #ff7f0e"/>
     <use xlink:href="#meefa59e1e2" x="482.480714" y="215.627511" style="fill: #ff7f0e; stroke: #ff7f0e"/>
     <use xlink:href="#meefa59e1e2" x="493.839181" y="186.317316" style="fill: #ff7f0e; stroke: #ff7f0e"/>
     <use xlink:href="#meefa59e1e2" x="505.197647" y="157.007122" style="fill: #ff7f0e; stroke: #ff7f0e"/>
     <use xlink:href="#meefa59e1e2" x="516.556114" y="125.767383" style="fill: #ff7f0e; stroke: #ff7f0e"/>
     <use xlink:href="#meefa59e1e2" x="527.914581" y="93.153591" style="fill: #ff7f0e; stroke: #ff7f0e"/>
     <use xlink:href="#meefa59e1e2" x="539.273048" y="60.539799" style="fill: #ff7f0e; stroke: #ff7f0e"/>
    </g>
   </g>
   <g id="line2d_35">
    <path d="M 117.401502 136.832488 
L 128.759969 141.797747 
L 140.118436 143.404169 
L 151.476903 138.292918 
L 162.835369 107.086624 
L 174.193836 70.119179 
L 185.552303 39.141045 
L 196.91077 37.48802 
L 208.269236 56.335658 
L 219.627703 85.703261 
L 230.98617 122.318846 
L 242.344637 161.516803 
L 253.703103 197.915974 
L 265.06157 223.693138 
L 276.420037 235.017562 
L 287.778504 235.212354 
L 299.13697 221.363242 
L 310.495437 191.249513 
L 321.853904 154.830559 
L 333.212371 116.749659 
L 344.570837 82.167303 
L 355.929304 53.707097 
L 367.287771 35.102398 
L 378.646238 38.013411 
L 390.004704 52.4127 
L 401.363171 76.410145 
L 412.721638 112.182156 
L 424.080105 151.768548 
L 435.438571 189.520947 
L 446.797038 216.641176 
L 458.155505 232.915648 
L 469.513972 238.266048 
L 480.872438 226.04064 
L 492.230905 199.224371 
L 503.589372 165.343653 
" clip-path="url(#p1973342b17)" style="fill: none; stroke: #2ca02c; stroke-linecap: square"/>
    <defs>
     <path id="m0ddf790d2e" d="M 0 1.5 
C 0.397805 1.5 0.77937 1.341951 1.06066 1.06066 
C 1.341951 0.77937 1.5 0.397805 1.5 0 
C 1.5 -0.397805 1.341951 -0.77937 1.06066 -1.06066 
C 0.77937 -1.341951 0.397805 -1.5 0 -1.5 
C -0.397805 -1.5 -0.77937 -1.341951 -1.06066 -1.06066 
C -1.341951 -0.77937 -1.5 -0.397805 -1.5 0 
C -1.5 0.397805 -1.341951 0.77937 -1.06066 1.06066 
C -0.77937 1.341951 -0.397805 1.5 0 1.5 
z
" style="stroke: #2ca02c"/>
    </defs>
    <g clip-path="url(#p1973342b17)">
     <use xlink:href="#m0ddf790d2e" x="117.401502" y="136.832488" style="fill: #2ca02c; stroke: #2ca02c"/>
     <use xlink:href="#m0ddf790d2e" x="128.759969" y="141.797747" style="fill: #2ca02c; stroke: #2ca02c"/>
     <use xlink:href="#m0ddf790d2e" x="140.118436" y="143.404169" style="fill: #2ca02c; stroke: #2ca02c"/>
     <use xlink:href="#m0ddf790d2e" x="151.476903" y="138.292918" style="fill: #2ca02c; stroke: #2ca02c"/>
     <use xlink:href="#m0ddf790d2e" x="162.835369" y="107.086624" style="fill: #2ca02c; stroke: #2ca02c"/>
     <use xlink:href="#m0ddf790d2e" x="174.193836" y="70.119179" style="fill: #2ca02c; stroke: #2ca02c"/>
     <use xlink:href="#m0ddf790d2e" x="185.552303" y="39.141045" style="fill: #2ca02c; stroke: #2ca02c"/>
     <use xlink:href="#m0ddf790d2e" x="196.91077" y="37.48802" style="fill: #2ca02c; stroke: #2ca02c"/>
     <use xlink:href="#m0ddf790d2e" x="208.269236" y="56.335658" style="fill: #2ca02c; stroke: #2ca02c"/>
     <use xlink:href="#m0ddf790d2e" x="219.627703" y="85.703261" style="fill: #2ca02c; stroke: #2ca02c"/>
     <use xlink:href="#m0ddf790d2e" x="230.98617" y="122.318846" style="fill: #2ca02c; stroke: #2ca02c"/>
     <use xlink:href="#m0ddf790d2e" x="242.344637" y="161.516803" style="fill: #2ca02c; stroke: #2ca02c"/>
     <use xlink:href="#m0ddf790d2e" x="253.703103" y="197.915974" style="fill: #2ca02c; stroke: #2ca02c"/>
     <use xlink:href="#m0ddf790d2e" x="265.06157" y="223.693138" style="fill: #2ca02c; stroke: #2ca02c"/>
     <use xlink:href="#m0ddf790d2e" x="276.420037" y="235.017562" style="fill: #2ca02c; stroke: #2ca02c"/>
     <use xlink:href="#m0ddf790d2e" x="287.778504" y="235.212354" style="fill: #2ca02c; stroke: #2ca02c"/>
     <use xlink:href="#m0ddf790d2e" x="299.13697" y="221.363242" style="fill: #2ca02c; stroke: #2ca02c"/>
     <use xlink:href="#m0ddf790d2e" x="310.495437" y="191.249513" style="fill: #2ca02c; stroke: #2ca02c"/>
     <use xlink:href="#m0ddf790d2e" x="321.853904" y="154.830559" style="fill: #2ca02c; stroke: #2ca02c"/>
     <use xlink:href="#m0ddf790d2e" x="333.212371" y="116.749659" style="fill: #2ca02c; stroke: #2ca02c"/>
     <use xlink:href="#m0ddf790d2e" x="344.570837" y="82.167303" style="fill: #2ca02c; stroke: #2ca02c"/>
     <use xlink:href="#m0ddf790d2e" x="355.929304" y="53.707097" style="fill: #2ca02c; stroke: #2ca02c"/>
     <use xlink:href="#m0ddf790d2e" x="367.287771" y="35.102398" style="fill: #2ca02c; stroke: #2ca02c"/>
     <use xlink:href="#m0ddf790d2e" x="378.646238" y="38.013411" style="fill: #2ca02c; stroke: #2ca02c"/>
     <use xlink:href="#m0ddf790d2e" x="390.004704" y="52.4127" style="fill: #2ca02c; stroke: #2ca02c"/>
     <use xlink:href="#m0ddf790d2e" x="401.363171" y="76.410145" style="fill: #2ca02c; stroke: #2ca02c"/>
     <use xlink:href="#m0ddf790d2e" x="412.721638" y="112.182156" style="fill: #2ca02c; stroke: #2ca02c"/>
     <use xlink:href="#m0ddf790d2e" x="424.080105" y="151.768548" style="fill: #2ca02c; stroke: #2ca02c"/>
     <use xlink:href="#m0ddf790d2e" x="435.438571" y="189.520947" style="fill: #2ca02c; stroke: #2ca02c"/>
     <use xlink:href="#m0ddf790d2e" x="446.797038" y="216.641176" style="fill: #2ca02c; stroke: #2ca02c"/>
     <use xlink:href="#m0ddf790d2e" x="458.155505" y="232.915648" style="fill: #2ca02c; stroke: #2ca02c"/>
     <use xlink:href="#m0ddf790d2e" x="469.513972" y="238.266048" style="fill: #2ca02c; stroke: #2ca02c"/>
     <use xlink:href="#m0ddf790d2e" x="480.872438" y="226.04064" style="fill: #2ca02c; stroke: #2ca02c"/>
     <use xlink:href="#m0ddf790d2e" x="492.230905" y="199.224371" style="fill: #2ca02c; stroke: #2ca02c"/>
     <use xlink:href="#m0ddf790d2e" x="503.589372" y="165.343653" style="fill: #2ca02c; stroke: #2ca02c"/>
    </g>
   </g>
   <g id="line2d_36">
    <path d="M 81.717827 136.832488 
L 93.076293 135.864591 
L 104.43476 135.651322 
L 115.793227 136.60699 
L 127.151694 143.331868 
L 138.51016 146.821485 
L 149.868627 140.815557 
L 161.227094 112.806969 
L 172.585561 74.791256 
L 183.944027 42.136195 
L 195.302494 32.731806 
L 206.660961 47.950075 
L 218.019428 78.56002 
L 229.377894 117.266486 
L 240.736361 157.244788 
L 252.094828 194.103063 
L 263.453295 222.260926 
L 274.811761 237.320747 
L 286.170228 238.495937 
L 297.528695 225.176513 
L 308.887162 197.505867 
L 320.245628 161.366993 
L 331.604095 121.91072 
L 342.962562 84.903026 
L 354.321029 55.034073 
L 365.679495 36.551471 
L 377.037962 34.346443 
L 388.396429 46.767676 
L 399.754896 71.619742 
L 411.113362 106.616158 
L 422.471829 146.312381 
L 433.830296 184.670115 
L 445.188763 215.349705 
L 456.547229 234.45009 
L 467.905696 240.074403 
" clip-path="url(#p1973342b17)" style="fill: none; stroke: #d62728; stroke-linecap: square"/>
    <defs>
     <path id="md9cc7c7c69" d="M 0 1.5 
C 0.397805 1.5 0.77937 1.341951 1.06066 1.06066 
C 1.341951 0.77937 1.5 0.397805 1.5 0 
C 1.5 -0.397805 1.341951 -0.77937 1.06066 -1.06066 
C 0.77937 -1.341951 0.397805 -1.5 0 -1.5 
C -0.397805 -1.5 -0.77937 -1.341951 -1.06066 -1.06066 
C -1.341951 -0.77937 -1.5 -0.397805 -1.5 0 
C -1.5 0.397805 -1.341951 0.77937 -1.06066 1.06066 
C -0.77937 1.341951 -0.397805 1.5 0 1.5 
z
" style="stroke: #d62728"/>
    </defs>
    <g clip-path="url(#p1973342b17)">
     <use xlink:href="#md9cc7c7c69" x="81.717827" y="136.832488" style="fill: #d62728; stroke: #d62728"/>
     <use xlink:href="#md9cc7c7c69" x="93.076293" y="135.864591" style="fill: #d62728; stroke: #d62728"/>
     <use xlink:href="#md9cc7c7c69" x="104.43476" y="135.651322" style="fill: #d62728; stroke: #d62728"/>
     <use xlink:href="#md9cc7c7c69" x="115.793227" y="136.60699" style="fill: #d62728; stroke: #d62728"/>
     <use xlink:href="#md9cc7c7c69" x="127.151694" y="143.331868" style="fill: #d62728; stroke: #d62728"/>
     <use xlink:href="#md9cc7c7c69" x="138.51016" y="146.821485" style="fill: #d62728; stroke: #d62728"/>
     <use xlink:href="#md9cc7c7c69" x="149.868627" y="140.815557" style="fill: #d62728; stroke: #d62728"/>
     <use xlink:href="#md9cc7c7c69" x="161.227094" y="112.806969" style="fill: #d62728; stroke: #d62728"/>
     <use xlink:href="#md9cc7c7c69" x="172.585561" y="74.791256" style="fill: #d62728; stroke: #d62728"/>
     <use xlink:href="#md9cc7c7c69" x="183.944027" y="42.136195" style="fill: #d62728; stroke: #d62728"/>
     <use xlink:href="#md9cc7c7c69" x="195.302494" y="32.731806" style="fill: #d62728; stroke: #d62728"/>
     <use xlink:href="#md9cc7c7c69" x="206.660961" y="47.950075" style="fill: #d62728; stroke: #d62728"/>
     <use xlink:href="#md9cc7c7c69" x="218.019428" y="78.56002" style="fill: #d62728; stroke: #d62728"/>
     <use xlink:href="#md9cc7c7c69" x="229.377894" y="117.266486" style="fill: #d62728; stroke: #d62728"/>
     <use xlink:href="#md9cc7c7c69" x="240.736361" y="157.244788" style="fill: #d62728; stroke: #d62728"/>
     <use xlink:href="#md9cc7c7c69" x="252.094828" y="194.103063" style="fill: #d62728; stroke: #d62728"/>
     <use xlink:href="#md9cc7c7c69" x="263.453295" y="222.260926" style="fill: #d62728; stroke: #d62728"/>
     <use xlink:href="#md9cc7c7c69" x="274.811761" y="237.320747" style="fill: #d62728; stroke: #d62728"/>
     <use xlink:href="#md9cc7c7c69" x="286.170228" y="238.495937" style="fill: #d62728; stroke: #d62728"/>
     <use xlink:href="#md9cc7c7c69" x="297.528695" y="225.176513" style="fill: #d62728; stroke: #d62728"/>
     <use xlink:href="#md9cc7c7c69" x="308.887162" y="197.505867" style="fill: #d62728; stroke: #d62728"/>
     <use xlink:href="#md9cc7c7c69" x="320.245628" y="161.366993" style="fill: #d62728; stroke: #d62728"/>
     <use xlink:href="#md9cc7c7c69" x="331.604095" y="121.91072" style="fill: #d62728; stroke: #d62728"/>
     <use xlink:href="#md9cc7c7c69" x="342.962562" y="84.903026" style="fill: #d62728; stroke: #d62728"/>
     <use xlink:href="#md9cc7c7c69" x="354.321029" y="55.034073" style="fill: #d62728; stroke: #d62728"/>
     <use xlink:href="#md9cc7c7c69" x="365.679495" y="36.551471" style="fill: #d62728; stroke: #d62728"/>
     <use xlink:href="#md9cc7c7c69" x="377.037962" y="34.346443" style="fill: #d62728; stroke: #d62728"/>
     <use xlink:href="#md9cc7c7c69" x="388.396429" y="46.767676" style="fill: #d62728; stroke: #d62728"/>
     <use xlink:href="#md9cc7c7c69" x="399.754896" y="71.619742" style="fill: #d62728; stroke: #d62728"/>
     <use xlink:href="#md9cc7c7c69" x="411.113362" y="106.616158" style="fill: #d62728; stroke: #d62728"/>
     <use xlink:href="#md9cc7c7c69" x="422.471829" y="146.312381" style="fill: #d62728; stroke: #d62728"/>
     <use xlink:href="#md9cc7c7c69" x="433.830296" y="184.670115" style="fill: #d62728; stroke: #d62728"/>
     <use xlink:href="#md9cc7c7c69" x="445.188763" y="215.349705" style="fill: #d62728; stroke: #d62728"/>
     <use xlink:href="#md9cc7c7c69" x="456.547229" y="234.45009" style="fill: #d62728; stroke: #d62728"/>
     <use xlink:href="#md9cc7c7c69" x="467.905696" y="240.074403" style="fill: #d62728; stroke: #d62728"/>
    </g>
   </g>
   <g id="patch_3">
    <path d="M 58.523438 250.44375 
L 58.523438 22.318125 
" style="fill: none; stroke: #000000; stroke-width: 0.8; stroke-linejoin: miter; stroke-linecap: square"/>
   </g>
   <g id="patch_4">
    <path d="M 568.8 250.44375 
L 568.8 22.318125 
" style="fill: none; stroke: #000000; stroke-width: 0.8; stroke-linejoin: miter; stroke-linecap: square"/>
   </g>
   <g id="patch_5">
    <path d="M 58.523438 250.44375 
L 568.8 250.44375 
" style="fill: none; stroke: #000000; stroke-width: 0.8; stroke-linejoin: miter; stroke-linecap: square"/>
   </g>
   <g id="patch_6">
    <path d="M 58.523438 22.318125 
L 568.8 22.318125 
" style="fill: none; stroke: #000000; stroke-width: 0.8; stroke-linejoin: miter; stroke-linecap: square"/>
   </g>
   <g id="text_19">
    <!-- Farrow Resampler Outputs -->
    <g transform="translate(234.157031 16.318125) scale(0.12 -0.12)">
     <defs>
      <path id="DejaVuSans-46" d="M 628 4666 
L 3309 4666 
L 3309 4134 
L 1259 4134 
L 1259 2759 
L 3109 2759 
L 3109 2228 
L 1259 2228 
L 1259 0 
L 628 0 
L 628 4666 
z
" transform="scale(0.015625)"/>
      <path id="DejaVuSans-61" d="M 2194 1759 
Q 1497 1759 1228 1600 
Q 959 1441 959 1056 
Q 959 750 1161 570 
Q 1363 391 1709 391 
Q 2188 391 2477 730 
Q 2766 1069 2766 1631 
L 2766 1759 
L 2194 1759 
z
M 3341 1997 
L 3341 0 
L 2766 0 
L 2766 531 
Q 2569 213 2275 61 
Q 1981 -91 1556 -91 
Q 1019 -91 701 211 
Q 384 513 384 1019 
Q 384 1609 779 1909 
Q 1175 2209 1959 2209 
L 2766 2209 
L 2766 2266 
Q 2766 2663 2505 2880 
Q 2244 3097 1772 3097 
Q 1472 3097 1187 3025 
Q 903 2953 641 2809 
L 641 3341 
Q 956 3463 1253 3523 
Q 1550 3584 1831 3584 
Q 2591 3584 2966 3190 
Q 3341 2797 3341 1997 
z
" transform="scale(0.015625)"/>
      <path id="DejaVuSans-72" d="M 2631 2963 
Q 2534 3019 2420 3045 
Q 2306 3072 2169 3072 
Q 1681 3072 1420 2755 
Q 1159 2438 1159 1844 
L 1159 0 
L 581 0 
L 581 3500 
L 1159 3500 
L 1159 2956 
Q 1341 3275 1631 3429 
Q 1922 3584 2338 3584 
Q 2397 3584 2469 3576 
Q 2541 3569 2628 3553 
L 2631 2963 
z
" transform="scale(0.015625)"/>
      <path id="DejaVuSans-6f" d="M 1959 3097 
Q 1497 3097 1228 2736 
Q 959 2375 959 1747 
Q 959 1119 1226 758 
Q 1494 397 1959 397 
Q 2419 397 2687 759 
Q 2956 1122 2956 1747 
Q 2956 2369 2687 2733 
Q 2419 3097 1959 3097 
z
M 1959 3584 
Q 2709 3584 3137 3096 
Q 3566 2609 3566 1747 
Q 3566 888 3137 398 
Q 2709 -91 1959 -91 
Q 1206 -91 779 398 
Q 353 888 353 1747 
Q 353 2609 779 3096 
Q 1206 3584 1959 3584 
z
" transform="scale(0.015625)"/>
      <path id="DejaVuSans-77" d="M 269 3500 
L 844 3500 
L 1563 769 
L 2278 3500 
L 2956 3500 
L 3675 769 
L 4391 3500 
L 4966 3500 
L 4050 0 
L 3372 0 
L 2619 2869 
L 1863 0 
L 1184 0 
L 269 3500 
z
" transform="scale(0.015625)"/>
      <path id="DejaVuSans-52" d="M 2841 2188 
Q 3044 2119 3236 1894 
Q 3428 1669 3622 1275 
L 4263 0 
L 3584 0 
L 2988 1197 
Q 2756 1666 2539 1819 
Q 2322 1972 1947 1972 
L 1259 1972 
L 1259 0 
L 628 0 
L 628 4666 
L 2053 4666 
Q 2853 4666 3247 4331 
Q 3641 3997 3641 3322 
Q 3641 2881 3436 2590 
Q 3231 2300 2841 2188 
z
M 1259 4147 
L 1259 2491 
L 2053 2491 
Q 2509 2491 2742 2702 
Q 2975 2913 2975 3322 
Q 2975 3731 2742 3939 
Q 2509 4147 2053 4147 
L 1259 4147 
z
" transform="scale(0.015625)"/>
      <path id="DejaVuSans-4f" d="M 2522 4238 
Q 1834 4238 1429 3725 
Q 1025 3213 1025 2328 
Q 1025 1447 1429 934 
Q 1834 422 2522 422 
Q 3209 422 3611 934 
Q 4013 1447 4013 2328 
Q 4013 3213 3611 3725 
Q 3209 4238 2522 4238 
z
M 2522 4750 
Q 3503 4750 4090 4092 
Q 4678 3434 4678 2328 
Q 4678 1225 4090 567 
Q 3503 -91 2522 -91 
Q 1538 -91 948 565 
Q 359 1222 359 2328 
Q 359 3434 948 4092 
Q 1538 4750 2522 4750 
z
" transform="scale(0.015625)"/>
     </defs>
     <use xlink:href="#DejaVuSans-46"/>
     <use xlink:href="#DejaVuSans-61" transform="translate(48.394531 0)"/>
     <use xlink:href="#DejaVuSans-72" transform="translate(109.673828 0)"/>
     <use xlink:href="#DejaVuSans-72" transform="translate(149.037109 0)"/>
     <use xlink:href="#DejaVuSans-6f" transform="translate(187.900391 0)"/>
     <use xlink:href="#DejaVuSans-77" transform="translate(249.082031 0)"/>
     <use xlink:href="#DejaVuSans-20" transform="translate(330.869141 0)"/>
     <use xlink:href="#DejaVuSans-52" transform="translate(362.65625 0)"/>
     <use xlink:href="#DejaVuSans-65" transform="translate(427.638672 0)"/>
     <use xlink:href="#DejaVuSans-73" transform="translate(489.162109 0)"/>
     <use xlink:href="#DejaVuSans-61" transform="translate(541.261719 0)"/>
     <use xlink:href="#DejaVuSans-6d" transform="translate(602.541016 0)"/>
     <use xlink:href="#DejaVuSans-70" transform="translate(699.953125 0)"/>
     <use xlink:href="#DejaVuSans-6c" transform="translate(763.429688 0)"/>
     <use xlink:href="#DejaVuSans-65" transform="translate(791.212891 0)"/>
     <use xlink:href="#DejaVuSans-72" transform="translate(852.736328 0)"/>
     <use xlink:href="#DejaVuSans-20" transform="translate(893.849609 0)"/>
     <use xlink:href="#DejaVuSans-4f" transform="translate(925.636719 0)"/>
     <use xlink:href="#DejaVuSans-75" transform="translate(1004.347656 0)"/>
     <use xlink:href="#DejaVuSans-74" transform="translate(1067.726562 0)"/>
     <use xlink:href="#DejaVuSans-70" transform="translate(1106.935547 0)"/>
     <use xlink:href="#DejaVuSans-75" transform="translate(1170.412109 0)"/>
     <use xlink:href="#DejaVuSans-74" transform="translate(1233.791016 0)"/>
     <use xlink:href="#DejaVuSans-73" transform="translate(1273 0)"/>
    </g>
   </g>
   <g id="legend_1">
    <g id="patch_7">
     <path d="M 65.523438 89.030625 
L 141.8 89.030625 
Q 143.8 89.030625 143.8 87.030625 
L 143.8 29.318125 
Q 143.8 27.318125 141.8 27.318125 
L 65.523438 27.318125 
Q 63.523438 27.318125 63.523438 29.318125 
L 63.523438 87.030625 
Q 63.523438 89.030625 65.523438 89.030625 
z
" style="fill: #ffffff; opacity: 0.8; stroke: #cccccc; stroke-linejoin: miter"/>
    </g>
    <g id="line2d_37">
     <path d="M 67.523438 35.416562 
L 77.523438 35.416562 
L 87.523438 35.416562 
" style="fill: none; stroke: #1f77b4; stroke-linecap: square"/>
     <g>
      <use xlink:href="#m0605d512aa" x="77.523438" y="35.416562" style="fill: #1f77b4; stroke: #1f77b4"/>
     </g>
    </g>
    <g id="text_20">
     <!-- Input -->
     <g transform="translate(95.523438 38.916562) scale(0.1 -0.1)">
      <defs>
       <path id="DejaVuSans-49" d="M 628 4666 
L 1259 4666 
L 1259 0 
L 628 0 
L 628 4666 
z
" transform="scale(0.015625)"/>
       <path id="DejaVuSans-6e" d="M 3513 2113 
L 3513 0 
L 2938 0 
L 2938 2094 
Q 2938 2591 2744 2837 
Q 2550 3084 2163 3084 
Q 1697 3084 1428 2787 
Q 1159 2491 1159 1978 
L 1159 0 
L 581 0 
L 581 3500 
L 1159 3500 
L 1159 2956 
Q 1366 3272 1645 3428 
Q 1925 3584 2291 3584 
Q 2894 3584 3203 3211 
Q 3513 2838 3513 2113 
z
" transform="scale(0.015625)"/>
      </defs>
      <use xlink:href="#DejaVuSans-49"/>
      <use xlink:href="#DejaVuSans-6e" transform="translate(29.492188 0)"/>
      <use xlink:href="#DejaVuSans-70" transform="translate(92.871094 0)"/>
      <use xlink:href="#DejaVuSans-75" transform="translate(156.347656 0)"/>
      <use xlink:href="#DejaVuSans-74" transform="translate(219.726562 0)"/>
     </g>
    </g>
    <g id="line2d_38">
     <path d="M 67.523438 50.094687 
L 77.523438 50.094687 
L 87.523438 50.094687 
" style="fill: none; stroke: #ff7f0e; stroke-linecap: square"/>
     <g>
      <use xlink:href="#meefa59e1e2" x="77.523438" y="50.094687" style="fill: #ff7f0e; stroke: #ff7f0e"/>
     </g>
    </g>
    <g id="text_21">
     <!-- Output 1 -->
     <g transform="translate(95.523438 53.594687) scale(0.1 -0.1)">
      <use xlink:href="#DejaVuSans-4f"/>
      <use xlink:href="#DejaVuSans-75" transform="translate(78.710938 0)"/>
      <use xlink:href="#DejaVuSans-74" transform="translate(142.089844 0)"/>
      <use xlink:href="#DejaVuSans-70" transform="translate(181.298828 0)"/>
      <use xlink:href="#DejaVuSans-75" transform="translate(244.775391 0)"/>
      <use xlink:href="#DejaVuSans-74" transform="translate(308.154297 0)"/>
      <use xlink:href="#DejaVuSans-20" transform="translate(347.363281 0)"/>
      <use xlink:href="#DejaVuSans-31" transform="translate(379.150391 0)"/>
     </g>
    </g>
    <g id="line2d_39">
     <path d="M 67.523438 64.772812 
L 77.523438 64.772812 
L 87.523438 64.772812 
" style="fill: none; stroke: #2ca02c; stroke-linecap: square"/>
     <g>
      <use xlink:href="#m0ddf790d2e" x="77.523438" y="64.772812" style="fill: #2ca02c; stroke: #2ca02c"/>
     </g>
    </g>
    <g id="text_22">
     <!-- Output 3 -->
     <g transform="translate(95.523438 68.272812) scale(0.1 -0.1)">
      <defs>
       <path id="DejaVuSans-33" d="M 2597 2516 
Q 3050 2419 3304 2112 
Q 3559 1806 3559 1356 
Q 3559 666 3084 287 
Q 2609 -91 1734 -91 
Q 1441 -91 1130 -33 
Q 819 25 488 141 
L 488 750 
Q 750 597 1062 519 
Q 1375 441 1716 441 
Q 2309 441 2620 675 
Q 2931 909 2931 1356 
Q 2931 1769 2642 2001 
Q 2353 2234 1838 2234 
L 1294 2234 
L 1294 2753 
L 1863 2753 
Q 2328 2753 2575 2939 
Q 2822 3125 2822 3475 
Q 2822 3834 2567 4026 
Q 2313 4219 1838 4219 
Q 1578 4219 1281 4162 
Q 984 4106 628 3988 
L 628 4550 
Q 988 4650 1302 4700 
Q 1616 4750 1894 4750 
Q 2613 4750 3031 4423 
Q 3450 4097 3450 3541 
Q 3450 3153 3228 2886 
Q 3006 2619 2597 2516 
z
" transform="scale(0.015625)"/>
      </defs>
      <use xlink:href="#DejaVuSans-4f"/>
      <use xlink:href="#DejaVuSans-75" transform="translate(78.710938 0)"/>
      <use xlink:href="#DejaVuSans-74" transform="translate(142.089844 0)"/>
      <use xlink:href="#DejaVuSans-70" transform="translate(181.298828 0)"/>
      <use xlink:href="#DejaVuSans-75" transform="translate(244.775391 0)"/>
      <use xlink:href="#DejaVuSans-74" transform="translate(308.154297 0)"/>
      <use xlink:href="#DejaVuSans-20" transform="translate(347.363281 0)"/>
      <use xlink:href="#DejaVuSans-33" transform="translate(379.150391 0)"/>
     </g>
    </g>
    <g id="line2d_40">
     <path d="M 67.523438 79.450938 
L 77.523438 79.450938 
L 87.523438 79.450938 
" style="fill: none; stroke: #d62728; stroke-linecap: square"/>
     <g>
      <use xlink:href="#md9cc7c7c69" x="77.523438" y="79.450938" style="fill: #d62728; stroke: #d62728"/>
     </g>
    </g>
    <g id="text_23">
     <!-- Output 5 -->
     <g transform="translate(95.523438 82.950938) scale(0.1 -0.1)">
      <use xlink:href="#DejaVuSans-4f"/>
      <use xlink:href="#DejaVuSans-75" transform="translate(78.710938 0)"/>
      <use xlink:href="#DejaVuSans-74" transform="translate(142.089844 0)"/>
      <use xlink:href="#DejaVuSans-70" transform="translate(181.298828 0)"/>
      <use xlink:href="#DejaVuSans-75" transform="translate(244.775391 0)"/>
      <use xlink:href="#DejaVuSans-74" transform="translate(308.154297 0)"/>
      <use xlink:href="#DejaVuSans-20" transform="translate(347.363281 0)"/>
      <use xlink:href="#DejaVuSans-35" transform="translate(379.150391 0)"/>
     </g>
    </g>
   </g>
  </g>
 </g>
 <defs>
  <clipPath id="p1973342b17">
   <rect x="58.523438" y="22.318125" width="510.276563" height="228.125625"/>
  </clipPath>
 </defs>
</svg>
