<?xml version="1.0" encoding="utf-8" standalone="no"?>
<!DOCTYPE svg PUBLIC "-//W3C//DTD SVG 1.1//EN"
  "http://www.w3.org/Graphics/SVG/1.1/DTD/svg11.dtd">
<svg xmlns:xlink="http://www.w3.org/1999/xlink" width="576pt" height="288pt" viewBox="0 0 576 288" xmlns="http://www.w3.org/2000/svg" version="1.1">
 <metadata>
  <rdf:RDF xmlns:dc="http://purl.org/dc/elements/1.1/" xmlns:cc="http://creativecommons.org/ns#" xmlns:rdf="http://www.w3.org/1999/02/22-rdf-syntax-ns#">
   <cc:Work>
    <dc:type rdf:resource="http://purl.org/dc/dcmitype/StillImage"/>
    <dc:date>2026-05-03T17:01:06.582910</dc:date>
    <dc:format>image/svg+xml</dc:format>
    <dc:creator>
     <cc:Agent>
      <dc:title>Matplotlib v3.10.9, https://matplotlib.org/</dc:title>
     </cc:Agent>
    </dc:creator>
   </cc:Work>
  </rdf:RDF>
 </metadata>
 <defs>
  <style type="text/css">*{stroke-linejoin: round; stroke-linecap: butt}</style>
 </defs>
 <g id="figure_1">
  <g id="patch_1">
   <path d="M 0 288 
L 576 288 
L 576 0 
L 0 0 
z
" style="fill: #ffffff"/>
  </g>
  <g id="axes_1">
   <g id="patch_2">
    <path d="M 48.982813 250.421875 
L 568.8 250.421875 
L 568.8 22.32 
L 48.982813 22.32 
z
" style="fill: #ffffff"/>
   </g>
   <g id="matplotlib.axis_1">
    <g id="xtick_1">
     <g id="line2d_1">
      <path d="M 119.89006 250.421875 
L 119.89006 22.32 
" clip-path="url(#p357cd6ac6d)" style="fill: none; stroke-dasharray: 2.96,1.28; stroke-dashoffset: 0; stroke: #b0b0b0; stroke-opacity: 0.8; stroke-width: 0.8"/>
     </g>
     <g id="line2d_2">
      <defs>
       <path id="m88956a36f8" d="M 0 0 
L 0 3.5 
" style="stroke: #000000; stroke-width: 0.8"/>
      </defs>
      <g>
       <use xlink:href="#m88956a36f8" x="119.89006" y="250.421875" style="stroke: #000000; stroke-width: 0.8"/>
      </g>
     </g>
     <g id="text_1">
      <!-- -200 -->
      <g transform="translate(108.542404 265.020312) scale(0.1 -0.1)">
       <defs>
        <path id="DejaVuSans-2d" d="M 313 2009 
L 1997 2009 
L 1997 1497 
L 313 1497 
L 313 2009 
z
" transform="scale(0.015625)"/>
        <path id="DejaVuSans-32" d="M 1228 531 
L 3431 531 
L 3431 0 
L 469 0 
L 469 531 
Q 828 903 1448 1529 
Q 2069 2156 2228 2338 
Q 2531 2678 2651 2914 
Q 2772 3150 2772 3378 
Q 2772 3750 2511 3984 
Q 2250 4219 1831 4219 
Q 1534 4219 1204 4116 
Q 875 4013 500 3803 
L 500 4441 
Q 881 4594 1212 4672 
Q 1544 4750 1819 4750 
Q 2544 4750 2975 4387 
Q 3406 4025 3406 3419 
Q 3406 3131 3298 2873 
Q 3191 2616 2906 2266 
Q 2828 2175 2409 1742 
Q 1991 1309 1228 531 
z
" transform="scale(0.015625)"/>
        <path id="DejaVuSans-30" d="M 2034 4250 
Q 1547 4250 1301 3770 
Q 1056 3291 1056 2328 
Q 1056 1369 1301 889 
Q 1547 409 2034 409 
Q 2525 409 2770 889 
Q 3016 1369 3016 2328 
Q 3016 3291 2770 3770 
Q 2525 4250 2034 4250 
z
M 2034 4750 
Q 2819 4750 3233 4129 
Q 3647 3509 3647 2328 
Q 3647 1150 3233 529 
Q 2819 -91 2034 -91 
Q 1250 -91 836 529 
Q 422 1150 422 2328 
Q 422 3509 836 4129 
Q 1250 4750 2034 4750 
z
" transform="scale(0.015625)"/>
       </defs>
       <use xlink:href="#DejaVuSans-2d"/>
       <use xlink:href="#DejaVuSans-32" transform="translate(36.083984 0)"/>
       <use xlink:href="#DejaVuSans-30" transform="translate(99.707031 0)"/>
       <use xlink:href="#DejaVuSans-30" transform="translate(163.330078 0)"/>
      </g>
     </g>
    </g>
    <g id="xtick_2">
     <g id="line2d_3">
      <path d="M 214.448447 250.421875 
L 214.448447 22.32 
" clip-path="url(#p357cd6ac6d)" style="fill: none; stroke-dasharray: 2.96,1.28; stroke-dashoffset: 0; stroke: #b0b0b0; stroke-opacity: 0.8; stroke-width: 0.8"/>
     </g>
     <g id="line2d_4">
      <g>
       <use xlink:href="#m88956a36f8" x="214.448447" y="250.421875" style="stroke: #000000; stroke-width: 0.8"/>
      </g>
     </g>
     <g id="text_2">
      <!-- -100 -->
      <g transform="translate(203.100791 265.020312) scale(0.1 -0.1)">
       <defs>
        <path id="DejaVuSans-31" d="M 794 531 
L 1825 531 
L 1825 4091 
L 703 3866 
L 703 4441 
L 1819 4666 
L 2450 4666 
L 2450 531 
L 3481 531 
L 3481 0 
L 794 0 
L 794 531 
z
" transform="scale(0.015625)"/>
       </defs>
       <use xlink:href="#DejaVuSans-2d"/>
       <use xlink:href="#DejaVuSans-31" transform="translate(36.083984 0)"/>
       <use xlink:href="#DejaVuSans-30" transform="translate(99.707031 0)"/>
       <use xlink:href="#DejaVuSans-30" transform="translate(163.330078 0)"/>
      </g>
     </g>
    </g>
    <g id="xtick_3">
     <g id="line2d_5">
      <path d="M 309.006834 250.421875 
L 309.006834 22.32 
" clip-path="url(#p357cd6ac6d)" style="fill: none; stroke-dasharray: 2.96,1.28; stroke-dashoffset: 0; stroke: #b0b0b0; stroke-opacity: 0.8; stroke-width: 0.8"/>
     </g>
     <g id="line2d_6">
      <g>
       <use xlink:href="#m88956a36f8" x="309.006834" y="250.421875" style="stroke: #000000; stroke-width: 0.8"/>
      </g>
     </g>
     <g id="text_3">
      <!-- 0 -->
      <g transform="translate(305.825584 265.020312) scale(0.1 -0.1)">
       <use xlink:href="#DejaVuSans-30"/>
      </g>
     </g>
    </g>
    <g id="xtick_4">
     <g id="line2d_7">
      <path d="M 403.565221 250.421875 
L 403.565221 22.32 
" clip-path="url(#p357cd6ac6d)" style="fill: none; stroke-dasharray: 2.96,1.28; stroke-dashoffset: 0; stroke: #b0b0b0; stroke-opacity: 0.8; stroke-width: 0.8"/>
     </g>
     <g id="line2d_8">
      <g>
       <use xlink:href="#m88956a36f8" x="403.565221" y="250.421875" style="stroke: #000000; stroke-width: 0.8"/>
      </g>
     </g>
     <g id="text_4">
      <!-- 100 -->
      <g transform="translate(394.021471 265.020312) scale(0.1 -0.1)">
       <use xlink:href="#DejaVuSans-31"/>
       <use xlink:href="#DejaVuSans-30" transform="translate(63.623047 0)"/>
       <use xlink:href="#DejaVuSans-30" transform="translate(127.246094 0)"/>
      </g>
     </g>
    </g>
    <g id="xtick_5">
     <g id="line2d_9">
      <path d="M 498.123608 250.421875 
L 498.123608 22.32 
" clip-path="url(#p357cd6ac6d)" style="fill: none; stroke-dasharray: 2.96,1.28; stroke-dashoffset: 0; stroke: #b0b0b0; stroke-opacity: 0.8; stroke-width: 0.8"/>
     </g>
     <g id="line2d_10">
      <g>
       <use xlink:href="#m88956a36f8" x="498.123608" y="250.421875" style="stroke: #000000; stroke-width: 0.8"/>
      </g>
     </g>
     <g id="text_5">
      <!-- 200 -->
      <g transform="translate(488.579858 265.020312) scale(0.1 -0.1)">
       <use xlink:href="#DejaVuSans-32"/>
       <use xlink:href="#DejaVuSans-30" transform="translate(63.623047 0)"/>
       <use xlink:href="#DejaVuSans-30" transform="translate(127.246094 0)"/>
      </g>
     </g>
    </g>
    <g id="text_6">
     <!-- Frequency (Hz), $f$ -->
     <g transform="translate(265.741406 278.7) scale(0.1 -0.1)">
      <defs>
       <path id="DejaVuSans-46" d="M 628 4666 
L 3309 4666 
L 3309 4134 
L 1259 4134 
L 1259 2759 
L 3109 2759 
L 3109 2228 
L 1259 2228 
L 1259 0 
L 628 0 
L 628 4666 
z
" transform="scale(0.015625)"/>
       <path id="DejaVuSans-72" d="M 2631 2963 
Q 2534 3019 2420 3045 
Q 2306 3072 2169 3072 
Q 1681 3072 1420 2755 
Q 1159 2438 1159 1844 
L 1159 0 
L 581 0 
L 581 3500 
L 1159 3500 
L 1159 2956 
Q 1341 3275 1631 3429 
Q 1922 3584 2338 3584 
Q 2397 3584 2469 3576 
Q 2541 3569 2628 3553 
L 2631 2963 
z
" transform="scale(0.015625)"/>
       <path id="DejaVuSans-65" d="M 3597 1894 
L 3597 1613 
L 953 1613 
Q 991 1019 1311 708 
Q 1631 397 2203 397 
Q 2534 397 2845 478 
Q 3156 559 3463 722 
L 3463 178 
Q 3153 47 2828 -22 
Q 2503 -91 2169 -91 
Q 1331 -91 842 396 
Q 353 884 353 1716 
Q 353 2575 817 3079 
Q 1281 3584 2069 3584 
Q 2775 3584 3186 3129 
Q 3597 2675 3597 1894 
z
M 3022 2063 
Q 3016 2534 2758 2815 
Q 2500 3097 2075 3097 
Q 1594 3097 1305 2825 
Q 1016 2553 972 2059 
L 3022 2063 
z
" transform="scale(0.015625)"/>
       <path id="DejaVuSans-71" d="M 947 1747 
Q 947 1113 1208 752 
Q 1469 391 1925 391 
Q 2381 391 2643 752 
Q 2906 1113 2906 1747 
Q 2906 2381 2643 2742 
Q 2381 3103 1925 3103 
Q 1469 3103 1208 2742 
Q 947 2381 947 1747 
z
M 2906 525 
Q 2725 213 2448 61 
Q 2172 -91 1784 -91 
Q 1150 -91 751 415 
Q 353 922 353 1747 
Q 353 2572 751 3078 
Q 1150 3584 1784 3584 
Q 2172 3584 2448 3432 
Q 2725 3281 2906 2969 
L 2906 3500 
L 3481 3500 
L 3481 -1331 
L 2906 -1331 
L 2906 525 
z
" transform="scale(0.015625)"/>
       <path id="DejaVuSans-75" d="M 544 1381 
L 544 3500 
L 1119 3500 
L 1119 1403 
Q 1119 906 1312 657 
Q 1506 409 1894 409 
Q 2359 409 2629 706 
Q 2900 1003 2900 1516 
L 2900 3500 
L 3475 3500 
L 3475 0 
L 2900 0 
L 2900 538 
Q 2691 219 2414 64 
Q 2138 -91 1772 -91 
Q 1169 -91 856 284 
Q 544 659 544 1381 
z
M 1991 3584 
L 1991 3584 
z
" transform="scale(0.015625)"/>
       <path id="DejaVuSans-6e" d="M 3513 2113 
L 3513 0 
L 2938 0 
L 2938 2094 
Q 2938 2591 2744 2837 
Q 2550 3084 2163 3084 
Q 1697 3084 1428 2787 
Q 1159 2491 1159 1978 
L 1159 0 
L 581 0 
L 581 3500 
L 1159 3500 
L 1159 2956 
Q 1366 3272 1645 3428 
Q 1925 3584 2291 3584 
Q 2894 3584 3203 3211 
Q 3513 2838 3513 2113 
z
" transform="scale(0.015625)"/>
       <path id="DejaVuSans-63" d="M 3122 3366 
L 3122 2828 
Q 2878 2963 2633 3030 
Q 2388 3097 2138 3097 
Q 1578 3097 1268 2742 
Q 959 2388 959 1747 
Q 959 1106 1268 751 
Q 1578 397 2138 397 
Q 2388 397 2633 464 
Q 2878 531 3122 666 
L 3122 134 
Q 2881 22 2623 -34 
Q 2366 -91 2075 -91 
Q 1284 -91 818 406 
Q 353 903 353 1747 
Q 353 2603 823 3093 
Q 1294 3584 2113 3584 
Q 2378 3584 2631 3529 
Q 2884 3475 3122 3366 
z
" transform="scale(0.015625)"/>
       <path id="DejaVuSans-79" d="M 2059 -325 
Q 1816 -950 1584 -1140 
Q 1353 -1331 966 -1331 
L 506 -1331 
L 506 -850 
L 844 -850 
Q 1081 -850 1212 -737 
Q 1344 -625 1503 -206 
L 1606 56 
L 191 3500 
L 800 3500 
L 1894 763 
L 2988 3500 
L 3597 3500 
L 2059 -325 
z
" transform="scale(0.015625)"/>
       <path id="DejaVuSans-20" transform="scale(0.015625)"/>
       <path id="DejaVuSans-28" d="M 1984 4856 
Q 1566 4138 1362 3434 
Q 1159 2731 1159 2009 
Q 1159 1288 1364 580 
Q 1569 -128 1984 -844 
L 1484 -844 
Q 1016 -109 783 600 
Q 550 1309 550 2009 
Q 550 2706 781 3412 
Q 1013 4119 1484 4856 
L 1984 4856 
z
" transform="scale(0.015625)"/>
       <path id="DejaVuSans-48" d="M 628 4666 
L 1259 4666 
L 1259 2753 
L 3553 2753 
L 3553 4666 
L 4184 4666 
L 4184 0 
L 3553 0 
L 3553 2222 
L 1259 2222 
L 1259 0 
L 628 0 
L 628 4666 
z
" transform="scale(0.015625)"/>
       <path id="DejaVuSans-7a" d="M 353 3500 
L 3084 3500 
L 3084 2975 
L 922 459 
L 3084 459 
L 3084 0 
L 275 0 
L 275 525 
L 2438 3041 
L 353 3041 
L 353 3500 
z
" transform="scale(0.015625)"/>
       <path id="DejaVuSans-29" d="M 513 4856 
L 1013 4856 
Q 1481 4119 1714 3412 
Q 1947 2706 1947 2009 
Q 1947 1309 1714 600 
Q 1481 -109 1013 -844 
L 513 -844 
Q 928 -128 1133 580 
Q 1338 1288 1338 2009 
Q 1338 2731 1133 3434 
Q 928 4138 513 4856 
z
" transform="scale(0.015625)"/>
       <path id="DejaVuSans-2c" d="M 750 794 
L 1409 794 
L 1409 256 
L 897 -744 
L 494 -744 
L 750 256 
L 750 794 
z
" transform="scale(0.015625)"/>
       <path id="DejaVuSans-Oblique-66" d="M 3059 4863 
L 2969 4384 
L 2419 4384 
Q 2106 4384 1964 4261 
Q 1822 4138 1753 3809 
L 1691 3500 
L 2638 3500 
L 2553 3053 
L 1606 3053 
L 1013 0 
L 434 0 
L 1031 3053 
L 481 3053 
L 563 3500 
L 1113 3500 
L 1159 3744 
Q 1278 4363 1576 4613 
Q 1875 4863 2516 4863 
L 3059 4863 
z
" transform="scale(0.015625)"/>
      </defs>
      <use xlink:href="#DejaVuSans-46" transform="translate(0 0.015625)"/>
      <use xlink:href="#DejaVuSans-72" transform="translate(57.519531 0.015625)"/>
      <use xlink:href="#DejaVuSans-65" transform="translate(98.632812 0.015625)"/>
      <use xlink:href="#DejaVuSans-71" transform="translate(160.15625 0.015625)"/>
      <use xlink:href="#DejaVuSans-75" transform="translate(223.632812 0.015625)"/>
      <use xlink:href="#DejaVuSans-65" transform="translate(287.011719 0.015625)"/>
      <use xlink:href="#DejaVuSans-6e" transform="translate(348.535156 0.015625)"/>
      <use xlink:href="#DejaVuSans-63" transform="translate(411.914062 0.015625)"/>
      <use xlink:href="#DejaVuSans-79" transform="translate(466.894531 0.015625)"/>
      <use xlink:href="#DejaVuSans-20" transform="translate(526.074219 0.015625)"/>
      <use xlink:href="#DejaVuSans-28" transform="translate(557.861328 0.015625)"/>
      <use xlink:href="#DejaVuSans-48" transform="translate(596.875 0.015625)"/>
      <use xlink:href="#DejaVuSans-7a" transform="translate(672.070312 0.015625)"/>
      <use xlink:href="#DejaVuSans-29" transform="translate(724.560547 0.015625)"/>
      <use xlink:href="#DejaVuSans-2c" transform="translate(763.574219 0.015625)"/>
      <use xlink:href="#DejaVuSans-20" transform="translate(795.361328 0.015625)"/>
      <use xlink:href="#DejaVuSans-Oblique-66" transform="translate(827.148438 0.015625)"/>
     </g>
    </g>
   </g>
   <g id="matplotlib.axis_2">
    <g id="ytick_1">
     <g id="line2d_11">
      <path d="M 48.982813 237.818928 
L 568.8 237.818928 
" clip-path="url(#p357cd6ac6d)" style="fill: none; stroke-dasharray: 2.96,1.28; stroke-dashoffset: 0; stroke: #b0b0b0; stroke-opacity: 0.8; stroke-width: 0.8"/>
     </g>
     <g id="line2d_12">
      <defs>
       <path id="ma62a4e6aba" d="M 0 0 
L -3.5 0 
" style="stroke: #000000; stroke-width: 0.8"/>
      </defs>
      <g>
       <use xlink:href="#ma62a4e6aba" x="48.982813" y="237.818928" style="stroke: #000000; stroke-width: 0.8"/>
      </g>
     </g>
     <g id="text_7">
      <!-- −80 -->
      <g transform="translate(20.878125 241.618147) scale(0.1 -0.1)">
       <defs>
        <path id="DejaVuSans-2212" d="M 678 2272 
L 4684 2272 
L 4684 1741 
L 678 1741 
L 678 2272 
z
" transform="scale(0.015625)"/>
        <path id="DejaVuSans-38" d="M 2034 2216 
Q 1584 2216 1326 1975 
Q 1069 1734 1069 1313 
Q 1069 891 1326 650 
Q 1584 409 2034 409 
Q 2484 409 2743 651 
Q 3003 894 3003 1313 
Q 3003 1734 2745 1975 
Q 2488 2216 2034 2216 
z
M 1403 2484 
Q 997 2584 770 2862 
Q 544 3141 544 3541 
Q 544 4100 942 4425 
Q 1341 4750 2034 4750 
Q 2731 4750 3128 4425 
Q 3525 4100 3525 3541 
Q 3525 3141 3298 2862 
Q 3072 2584 2669 2484 
Q 3125 2378 3379 2068 
Q 3634 1759 3634 1313 
Q 3634 634 3220 271 
Q 2806 -91 2034 -91 
Q 1263 -91 848 271 
Q 434 634 434 1313 
Q 434 1759 690 2068 
Q 947 2378 1403 2484 
z
M 1172 3481 
Q 1172 3119 1398 2916 
Q 1625 2713 2034 2713 
Q 2441 2713 2670 2916 
Q 2900 3119 2900 3481 
Q 2900 3844 2670 4047 
Q 2441 4250 2034 4250 
Q 1625 4250 1398 4047 
Q 1172 3844 1172 3481 
z
" transform="scale(0.015625)"/>
       </defs>
       <use xlink:href="#DejaVuSans-2212"/>
       <use xlink:href="#DejaVuSans-38" transform="translate(83.789062 0)"/>
       <use xlink:href="#DejaVuSans-30" transform="translate(147.412109 0)"/>
      </g>
     </g>
    </g>
    <g id="ytick_2">
     <g id="line2d_13">
      <path d="M 48.982813 210.594761 
L 568.8 210.594761 
" clip-path="url(#p357cd6ac6d)" style="fill: none; stroke-dasharray: 2.96,1.28; stroke-dashoffset: 0; stroke: #b0b0b0; stroke-opacity: 0.8; stroke-width: 0.8"/>
     </g>
     <g id="line2d_14">
      <g>
       <use xlink:href="#ma62a4e6aba" x="48.982813" y="210.594761" style="stroke: #000000; stroke-width: 0.8"/>
      </g>
     </g>
     <g id="text_8">
      <!-- −70 -->
      <g transform="translate(20.878125 214.39398) scale(0.1 -0.1)">
       <defs>
        <path id="DejaVuSans-37" d="M 525 4666 
L 3525 4666 
L 3525 4397 
L 1831 0 
L 1172 0 
L 2766 4134 
L 525 4134 
L 525 4666 
z
" transform="scale(0.015625)"/>
       </defs>
       <use xlink:href="#DejaVuSans-2212"/>
       <use xlink:href="#DejaVuSans-37" transform="translate(83.789062 0)"/>
       <use xlink:href="#DejaVuSans-30" transform="translate(147.412109 0)"/>
      </g>
     </g>
    </g>
    <g id="ytick_3">
     <g id="line2d_15">
      <path d="M 48.982813 183.370594 
L 568.8 183.370594 
" clip-path="url(#p357cd6ac6d)" style="fill: none; stroke-dasharray: 2.96,1.28; stroke-dashoffset: 0; stroke: #b0b0b0; stroke-opacity: 0.8; stroke-width: 0.8"/>
     </g>
     <g id="line2d_16">
      <g>
       <use xlink:href="#ma62a4e6aba" x="48.982813" y="183.370594" style="stroke: #000000; stroke-width: 0.8"/>
      </g>
     </g>
     <g id="text_9">
      <!-- −60 -->
      <g transform="translate(20.878125 187.169812) scale(0.1 -0.1)">
       <defs>
        <path id="DejaVuSans-36" d="M 2113 2584 
Q 1688 2584 1439 2293 
Q 1191 2003 1191 1497 
Q 1191 994 1439 701 
Q 1688 409 2113 409 
Q 2538 409 2786 701 
Q 3034 994 3034 1497 
Q 3034 2003 2786 2293 
Q 2538 2584 2113 2584 
z
M 3366 4563 
L 3366 3988 
Q 3128 4100 2886 4159 
Q 2644 4219 2406 4219 
Q 1781 4219 1451 3797 
Q 1122 3375 1075 2522 
Q 1259 2794 1537 2939 
Q 1816 3084 2150 3084 
Q 2853 3084 3261 2657 
Q 3669 2231 3669 1497 
Q 3669 778 3244 343 
Q 2819 -91 2113 -91 
Q 1303 -91 875 529 
Q 447 1150 447 2328 
Q 447 3434 972 4092 
Q 1497 4750 2381 4750 
Q 2619 4750 2861 4703 
Q 3103 4656 3366 4563 
z
" transform="scale(0.015625)"/>
       </defs>
       <use xlink:href="#DejaVuSans-2212"/>
       <use xlink:href="#DejaVuSans-36" transform="translate(83.789062 0)"/>
       <use xlink:href="#DejaVuSans-30" transform="translate(147.412109 0)"/>
      </g>
     </g>
    </g>
    <g id="ytick_4">
     <g id="line2d_17">
      <path d="M 48.982813 156.146426 
L 568.8 156.146426 
" clip-path="url(#p357cd6ac6d)" style="fill: none; stroke-dasharray: 2.96,1.28; stroke-dashoffset: 0; stroke: #b0b0b0; stroke-opacity: 0.8; stroke-width: 0.8"/>
     </g>
     <g id="line2d_18">
      <g>
       <use xlink:href="#ma62a4e6aba" x="48.982813" y="156.146426" style="stroke: #000000; stroke-width: 0.8"/>
      </g>
     </g>
     <g id="text_10">
      <!-- −50 -->
      <g transform="translate(20.878125 159.945645) scale(0.1 -0.1)">
       <defs>
        <path id="DejaVuSans-35" d="M 691 4666 
L 3169 4666 
L 3169 4134 
L 1269 4134 
L 1269 2991 
Q 1406 3038 1543 3061 
Q 1681 3084 1819 3084 
Q 2600 3084 3056 2656 
Q 3513 2228 3513 1497 
Q 3513 744 3044 326 
Q 2575 -91 1722 -91 
Q 1428 -91 1123 -41 
Q 819 9 494 109 
L 494 744 
Q 775 591 1075 516 
Q 1375 441 1709 441 
Q 2250 441 2565 725 
Q 2881 1009 2881 1497 
Q 2881 1984 2565 2268 
Q 2250 2553 1709 2553 
Q 1456 2553 1204 2497 
Q 953 2441 691 2322 
L 691 4666 
z
" transform="scale(0.015625)"/>
       </defs>
       <use xlink:href="#DejaVuSans-2212"/>
       <use xlink:href="#DejaVuSans-35" transform="translate(83.789062 0)"/>
       <use xlink:href="#DejaVuSans-30" transform="translate(147.412109 0)"/>
      </g>
     </g>
    </g>
    <g id="ytick_5">
     <g id="line2d_19">
      <path d="M 48.982813 128.922259 
L 568.8 128.922259 
" clip-path="url(#p357cd6ac6d)" style="fill: none; stroke-dasharray: 2.96,1.28; stroke-dashoffset: 0; stroke: #b0b0b0; stroke-opacity: 0.8; stroke-width: 0.8"/>
     </g>
     <g id="line2d_20">
      <g>
       <use xlink:href="#ma62a4e6aba" x="48.982813" y="128.922259" style="stroke: #000000; stroke-width: 0.8"/>
      </g>
     </g>
     <g id="text_11">
      <!-- −40 -->
      <g transform="translate(20.878125 132.721478) scale(0.1 -0.1)">
       <defs>
        <path id="DejaVuSans-34" d="M 2419 4116 
L 825 1625 
L 2419 1625 
L 2419 4116 
z
M 2253 4666 
L 3047 4666 
L 3047 1625 
L 3713 1625 
L 3713 1100 
L 3047 1100 
L 3047 0 
L 2419 0 
L 2419 1100 
L 313 1100 
L 313 1709 
L 2253 4666 
z
" transform="scale(0.015625)"/>
       </defs>
       <use xlink:href="#DejaVuSans-2212"/>
       <use xlink:href="#DejaVuSans-34" transform="translate(83.789062 0)"/>
       <use xlink:href="#DejaVuSans-30" transform="translate(147.412109 0)"/>
      </g>
     </g>
    </g>
    <g id="ytick_6">
     <g id="line2d_21">
      <path d="M 48.982813 101.698092 
L 568.8 101.698092 
" clip-path="url(#p357cd6ac6d)" style="fill: none; stroke-dasharray: 2.96,1.28; stroke-dashoffset: 0; stroke: #b0b0b0; stroke-opacity: 0.8; stroke-width: 0.8"/>
     </g>
     <g id="line2d_22">
      <g>
       <use xlink:href="#ma62a4e6aba" x="48.982813" y="101.698092" style="stroke: #000000; stroke-width: 0.8"/>
      </g>
     </g>
     <g id="text_12">
      <!-- −30 -->
      <g transform="translate(20.878125 105.49731) scale(0.1 -0.1)">
       <defs>
        <path id="DejaVuSans-33" d="M 2597 2516 
Q 3050 2419 3304 2112 
Q 3559 1806 3559 1356 
Q 3559 666 3084 287 
Q 2609 -91 1734 -91 
Q 1441 -91 1130 -33 
Q 819 25 488 141 
L 488 750 
Q 750 597 1062 519 
Q 1375 441 1716 441 
Q 2309 441 2620 675 
Q 2931 909 2931 1356 
Q 2931 1769 2642 2001 
Q 2353 2234 1838 2234 
L 1294 2234 
L 1294 2753 
L 1863 2753 
Q 2328 2753 2575 2939 
Q 2822 3125 2822 3475 
Q 2822 3834 2567 4026 
Q 2313 4219 1838 4219 
Q 1578 4219 1281 4162 
Q 984 4106 628 3988 
L 628 4550 
Q 988 4650 1302 4700 
Q 1616 4750 1894 4750 
Q 2613 4750 3031 4423 
Q 3450 4097 3450 3541 
Q 3450 3153 3228 2886 
Q 3006 2619 2597 2516 
z
" transform="scale(0.015625)"/>
       </defs>
       <use xlink:href="#DejaVuSans-2212"/>
       <use xlink:href="#DejaVuSans-33" transform="translate(83.789062 0)"/>
       <use xlink:href="#DejaVuSans-30" transform="translate(147.412109 0)"/>
      </g>
     </g>
    </g>
    <g id="ytick_7">
     <g id="line2d_23">
      <path d="M 48.982813 74.473924 
L 568.8 74.473924 
" clip-path="url(#p357cd6ac6d)" style="fill: none; stroke-dasharray: 2.96,1.28; stroke-dashoffset: 0; stroke: #b0b0b0; stroke-opacity: 0.8; stroke-width: 0.8"/>
     </g>
     <g id="line2d_24">
      <g>
       <use xlink:href="#ma62a4e6aba" x="48.982813" y="74.473924" style="stroke: #000000; stroke-width: 0.8"/>
      </g>
     </g>
     <g id="text_13">
      <!-- −20 -->
      <g transform="translate(20.878125 78.273143) scale(0.1 -0.1)">
       <use xlink:href="#DejaVuSans-2212"/>
       <use xlink:href="#DejaVuSans-32" transform="translate(83.789062 0)"/>
       <use xlink:href="#DejaVuSans-30" transform="translate(147.412109 0)"/>
      </g>
     </g>
    </g>
    <g id="ytick_8">
     <g id="line2d_25">
      <path d="M 48.982813 47.249757 
L 568.8 47.249757 
" clip-path="url(#p357cd6ac6d)" style="fill: none; stroke-dasharray: 2.96,1.28; stroke-dashoffset: 0; stroke: #b0b0b0; stroke-opacity: 0.8; stroke-width: 0.8"/>
     </g>
     <g id="line2d_26">
      <g>
       <use xlink:href="#ma62a4e6aba" x="48.982813" y="47.249757" style="stroke: #000000; stroke-width: 0.8"/>
      </g>
     </g>
     <g id="text_14">
      <!-- −10 -->
      <g transform="translate(20.878125 51.048976) scale(0.1 -0.1)">
       <use xlink:href="#DejaVuSans-2212"/>
       <use xlink:href="#DejaVuSans-31" transform="translate(83.789062 0)"/>
       <use xlink:href="#DejaVuSans-30" transform="translate(147.412109 0)"/>
      </g>
     </g>
    </g>
    <g id="text_15">
     <!-- Power density (dB/Hz) -->
     <g transform="translate(14.798437 191.570938) rotate(-90) scale(0.1 -0.1)">
      <defs>
       <path id="DejaVuSans-50" d="M 1259 4147 
L 1259 2394 
L 2053 2394 
Q 2494 2394 2734 2622 
Q 2975 2850 2975 3272 
Q 2975 3691 2734 3919 
Q 2494 4147 2053 4147 
L 1259 4147 
z
M 628 4666 
L 2053 4666 
Q 2838 4666 3239 4311 
Q 3641 3956 3641 3272 
Q 3641 2581 3239 2228 
Q 2838 1875 2053 1875 
L 1259 1875 
L 1259 0 
L 628 0 
L 628 4666 
z
" transform="scale(0.015625)"/>
       <path id="DejaVuSans-6f" d="M 1959 3097 
Q 1497 3097 1228 2736 
Q 959 2375 959 1747 
Q 959 1119 1226 758 
Q 1494 397 1959 397 
Q 2419 397 2687 759 
Q 2956 1122 2956 1747 
Q 2956 2369 2687 2733 
Q 2419 3097 1959 3097 
z
M 1959 3584 
Q 2709 3584 3137 3096 
Q 3566 2609 3566 1747 
Q 3566 888 3137 398 
Q 2709 -91 1959 -91 
Q 1206 -91 779 398 
Q 353 888 353 1747 
Q 353 2609 779 3096 
Q 1206 3584 1959 3584 
z
" transform="scale(0.015625)"/>
       <path id="DejaVuSans-77" d="M 269 3500 
L 844 3500 
L 1563 769 
L 2278 3500 
L 2956 3500 
L 3675 769 
L 4391 3500 
L 4966 3500 
L 4050 0 
L 3372 0 
L 2619 2869 
L 1863 0 
L 1184 0 
L 269 3500 
z
" transform="scale(0.015625)"/>
       <path id="DejaVuSans-64" d="M 2906 2969 
L 2906 4863 
L 3481 4863 
L 3481 0 
L 2906 0 
L 2906 525 
Q 2725 213 2448 61 
Q 2172 -91 1784 -91 
Q 1150 -91 751 415 
Q 353 922 353 1747 
Q 353 2572 751 3078 
Q 1150 3584 1784 3584 
Q 2172 3584 2448 3432 
Q 2725 3281 2906 2969 
z
M 947 1747 
Q 947 1113 1208 752 
Q 1469 391 1925 391 
Q 2381 391 2643 752 
Q 2906 1113 2906 1747 
Q 2906 2381 2643 2742 
Q 2381 3103 1925 3103 
Q 1469 3103 1208 2742 
Q 947 2381 947 1747 
z
" transform="scale(0.015625)"/>
       <path id="DejaVuSans-73" d="M 2834 3397 
L 2834 2853 
Q 2591 2978 2328 3040 
Q 2066 3103 1784 3103 
Q 1356 3103 1142 2972 
Q 928 2841 928 2578 
Q 928 2378 1081 2264 
Q 1234 2150 1697 2047 
L 1894 2003 
Q 2506 1872 2764 1633 
Q 3022 1394 3022 966 
Q 3022 478 2636 193 
Q 2250 -91 1575 -91 
Q 1294 -91 989 -36 
Q 684 19 347 128 
L 347 722 
Q 666 556 975 473 
Q 1284 391 1588 391 
Q 1994 391 2212 530 
Q 2431 669 2431 922 
Q 2431 1156 2273 1281 
Q 2116 1406 1581 1522 
L 1381 1569 
Q 847 1681 609 1914 
Q 372 2147 372 2553 
Q 372 3047 722 3315 
Q 1072 3584 1716 3584 
Q 2034 3584 2315 3537 
Q 2597 3491 2834 3397 
z
" transform="scale(0.015625)"/>
       <path id="DejaVuSans-69" d="M 603 3500 
L 1178 3500 
L 1178 0 
L 603 0 
L 603 3500 
z
M 603 4863 
L 1178 4863 
L 1178 4134 
L 603 4134 
L 603 4863 
z
" transform="scale(0.015625)"/>
       <path id="DejaVuSans-74" d="M 1172 4494 
L 1172 3500 
L 2356 3500 
L 2356 3053 
L 1172 3053 
L 1172 1153 
Q 1172 725 1289 603 
Q 1406 481 1766 481 
L 2356 481 
L 2356 0 
L 1766 0 
Q 1100 0 847 248 
Q 594 497 594 1153 
L 594 3053 
L 172 3053 
L 172 3500 
L 594 3500 
L 594 4494 
L 1172 4494 
z
" transform="scale(0.015625)"/>
       <path id="DejaVuSans-42" d="M 1259 2228 
L 1259 519 
L 2272 519 
Q 2781 519 3026 730 
Q 3272 941 3272 1375 
Q 3272 1813 3026 2020 
Q 2781 2228 2272 2228 
L 1259 2228 
z
M 1259 4147 
L 1259 2741 
L 2194 2741 
Q 2656 2741 2882 2914 
Q 3109 3088 3109 3444 
Q 3109 3797 2882 3972 
Q 2656 4147 2194 4147 
L 1259 4147 
z
M 628 4666 
L 2241 4666 
Q 2963 4666 3353 4366 
Q 3744 4066 3744 3513 
Q 3744 3084 3544 2831 
Q 3344 2578 2956 2516 
Q 3422 2416 3680 2098 
Q 3938 1781 3938 1306 
Q 3938 681 3513 340 
Q 3088 0 2303 0 
L 628 0 
L 628 4666 
z
" transform="scale(0.015625)"/>
       <path id="DejaVuSans-2f" d="M 1625 4666 
L 2156 4666 
L 531 -594 
L 0 -594 
L 1625 4666 
z
" transform="scale(0.015625)"/>
      </defs>
      <use xlink:href="#DejaVuSans-50"/>
      <use xlink:href="#DejaVuSans-6f" transform="translate(56.677734 0)"/>
      <use xlink:href="#DejaVuSans-77" transform="translate(117.859375 0)"/>
      <use xlink:href="#DejaVuSans-65" transform="translate(199.646484 0)"/>
      <use xlink:href="#DejaVuSans-72" transform="translate(261.169922 0)"/>
      <use xlink:href="#DejaVuSans-20" transform="translate(302.283203 0)"/>
      <use xlink:href="#DejaVuSans-64" transform="translate(334.070312 0)"/>
      <use xlink:href="#DejaVuSans-65" transform="translate(397.546875 0)"/>
      <use xlink:href="#DejaVuSans-6e" transform="translate(459.070312 0)"/>
      <use xlink:href="#DejaVuSans-73" transform="translate(522.449219 0)"/>
      <use xlink:href="#DejaVuSans-69" transform="translate(574.548828 0)"/>
      <use xlink:href="#DejaVuSans-74" transform="translate(602.332031 0)"/>
      <use xlink:href="#DejaVuSans-79" transform="translate(641.541016 0)"/>
      <use xlink:href="#DejaVuSans-20" transform="translate(700.720703 0)"/>
      <use xlink:href="#DejaVuSans-28" transform="translate(732.507812 0)"/>
      <use xlink:href="#DejaVuSans-64" transform="translate(771.521484 0)"/>
      <use xlink:href="#DejaVuSans-42" transform="translate(834.998047 0)"/>
      <use xlink:href="#DejaVuSans-2f" transform="translate(903.601562 0)"/>
      <use xlink:href="#DejaVuSans-48" transform="translate(937.292969 0)"/>
      <use xlink:href="#DejaVuSans-7a" transform="translate(1012.488281 0)"/>
      <use xlink:href="#DejaVuSans-29" transform="translate(1064.978516 0)"/>
     </g>
    </g>
   </g>
   <g id="line2d_27">
    <path d="M 72.610866 168.090006 
L 72.841722 167.893176 
L 73.072577 168.01225 
L 73.303433 168.496414 
L 73.534288 169.389833 
L 73.995999 172.567731 
L 74.45771 177.8383 
L 75.381132 191.521844 
L 75.611987 192.036106 
L 75.842843 190.28822 
L 76.99712 176.826955 
L 77.458831 174.024547 
L 77.920542 172.476834 
L 78.382252 171.822513 
L 78.613108 171.745495 
L 78.843963 171.808243 
L 79.305674 172.333878 
L 79.767385 173.436569 
L 80.229096 175.176971 
L 81.383373 180.61055 
L 81.614229 181.09142 
L 81.845084 181.089683 
L 82.075939 180.583734 
L 82.53765 178.375813 
L 83.922783 170.361514 
L 84.384494 168.855152 
L 84.846205 168.096541 
L 85.07706 167.97607 
L 85.307916 168.013624 
L 85.538771 168.200157 
L 86.000482 168.998948 
L 86.462193 170.342037 
L 87.61647 174.456262 
L 87.847325 174.672869 
L 88.078181 174.425057 
L 88.309036 173.706995 
L 88.770747 171.239067 
L 89.925024 164.313127 
L 90.617591 161.531324 
L 91.079301 160.36891 
L 91.541012 159.796469 
L 91.771868 159.748862 
L 92.002723 159.870404 
L 92.233579 160.16788 
L 92.695289 161.310882 
L 93.157 163.198569 
L 93.849567 167.365976 
L 94.772988 174.847507 
L 96.158121 188.033364 
L 97.081543 198.917727 
L 97.774109 207.813072 
L 98.004965 209.557064 
L 98.23582 209.632986 
L 98.466675 207.804278 
L 99.159242 196.526577 
L 100.082663 182.560259 
L 100.77523 175.704072 
L 101.236941 172.860498 
L 101.698652 171.233478 
L 102.160362 170.497709 
L 102.852929 169.802342 
L 103.31464 168.721141 
L 104.930628 163.492231 
L 105.161483 163.404608 
L 105.392339 163.602598 
L 105.623194 164.100023 
L 106.084905 165.994087 
L 106.777471 170.544127 
L 107.239182 173.391621 
L 107.470037 174.20252 
L 107.700893 174.45072 
L 107.931748 174.19448 
L 109.086026 171.41439 
L 109.316881 171.32712 
L 109.547736 171.429281 
L 110.932869 172.808029 
L 111.39458 172.919109 
L 111.625435 173.076267 
L 111.856291 173.394283 
L 112.318002 174.738289 
L 112.779713 177.267119 
L 113.472279 183.295711 
L 114.395701 191.751873 
L 114.857411 193.781972 
L 115.549978 195.949739 
L 116.704255 200.941903 
L 116.93511 200.486777 
L 117.396821 197.860353 
L 117.858532 195.218417 
L 118.089388 194.508604 
L 118.320243 194.371899 
L 118.551098 194.87827 
L 118.781954 196.070115 
L 119.243665 200.337779 
L 119.705376 203.994731 
L 119.936231 202.781923 
L 120.397942 194.60466 
L 121.090508 182.606169 
L 121.552219 177.551193 
L 122.01393 174.607397 
L 122.244785 173.839057 
L 122.475641 173.503899 
L 122.706496 173.577161 
L 122.937352 174.02928 
L 123.399063 175.871844 
L 124.091629 179.263625 
L 124.322484 179.812419 
L 124.55334 179.810984 
L 124.784195 179.297366 
L 125.707617 175.953638 
L 125.938472 175.605618 
L 126.169328 175.595948 
L 126.400183 175.920626 
L 126.861894 177.387281 
L 127.55446 180.04005 
L 127.785316 180.477446 
L 128.016171 180.512908 
L 128.247027 180.132438 
L 128.708738 178.310369 
L 129.401304 173.891394 
L 130.324726 167.774365 
L 130.786437 165.919901 
L 131.017292 165.466167 
L 131.248147 165.355157 
L 131.479003 165.588097 
L 131.940714 166.99864 
L 133.325846 172.990351 
L 134.249268 174.59425 
L 134.710979 176.906115 
L 135.17269 181.328707 
L 135.865256 190.455741 
L 136.096112 191.28785 
L 136.326967 189.410232 
L 137.481244 171.976171 
L 137.942955 168.40543 
L 138.404666 166.807408 
L 138.635521 166.653824 
L 138.866377 166.88216 
L 139.328088 168.309927 
L 140.71322 174.759643 
L 140.944076 175.192986 
L 141.174931 175.368506 
L 141.636642 175.239873 
L 142.098353 174.991376 
L 142.329208 174.969389 
L 142.560064 175.066402 
L 142.790919 175.30902 
L 143.25263 176.306878 
L 143.714341 178.041913 
L 145.099474 184.670253 
L 145.330329 184.964973 
L 145.561185 184.767399 
L 145.79204 184.079948 
L 146.253751 181.524305 
L 147.638884 172.428897 
L 148.100594 171.153152 
L 148.33145 171.009224 
L 148.562305 171.18927 
L 148.793161 171.668781 
L 149.254872 173.334641 
L 150.409149 178.102361 
L 151.33257 180.884911 
L 152.025137 184.206166 
L 152.717703 187.46149 
L 152.948559 187.670689 
L 153.179414 187.121054 
L 153.641125 184.01288 
L 154.564547 176.228276 
L 155.026257 174.023787 
L 155.257113 173.532202 
L 155.487968 173.452756 
L 155.718824 173.765734 
L 156.180535 175.372556 
L 157.103956 179.587548 
L 157.334812 180.143445 
L 157.565667 180.407317 
L 157.796523 180.447125 
L 158.258234 180.304758 
L 158.489089 180.378364 
L 158.719944 180.72013 
L 158.9508 181.446248 
L 159.412511 184.31041 
L 160.105077 189.825725 
L 160.797643 191.897968 
L 161.028499 194.607963 
L 161.49021 207.684247 
L 161.721065 202.336859 
L 162.182776 178.834999 
L 162.644487 168.098668 
L 162.875342 167.057797 
L 163.106198 169.881009 
L 163.337053 180.237849 
L 163.567909 205.323793 
L 163.798764 168.00086 
L 164.260475 135.827662 
L 164.722186 118.216779 
L 165.414752 101.677448 
L 165.876463 94.633185 
L 166.338174 89.986737 
L 166.799885 87.436297 
L 167.03074 86.897866 
L 167.261596 86.838887 
L 167.492451 87.25823 
L 167.723307 88.160722 
L 168.185017 91.466805 
L 168.646728 96.941507 
L 169.108439 104.957486 
L 169.57015 116.265406 
L 170.031861 132.591444 
L 170.493572 158.501954 
L 170.724427 172.189644 
L 170.955283 168.46514 
L 171.186138 161.730693 
L 171.416994 158.323919 
L 171.647849 157.316173 
L 171.878704 157.873016 
L 172.340415 161.5845 
L 173.032982 168.297977 
L 173.494692 170.967763 
L 173.725548 171.477279 
L 173.956403 171.525172 
L 174.418114 171.196097 
L 174.64897 171.349659 
L 174.879825 171.964417 
L 175.341536 174.695378 
L 175.803247 178.029615 
L 176.034102 178.701202 
L 176.264958 178.159301 
L 176.726669 174.506659 
L 177.419235 168.566395 
L 178.111801 164.287905 
L 179.266078 158.684558 
L 179.958645 156.304866 
L 180.420356 155.470084 
L 180.651211 155.344744 
L 180.882066 155.436325 
L 181.112922 155.754373 
L 181.574633 157.070463 
L 182.036344 159.204012 
L 183.883187 169.294648 
L 184.344898 170.455836 
L 184.806609 170.870672 
L 185.037464 170.845291 
L 185.499175 170.488912 
L 186.422597 169.605015 
L 186.884308 169.496511 
L 187.346019 169.661148 
L 188.038585 170.223272 
L 188.962007 171.297459 
L 189.423718 172.128133 
L 189.885428 173.352703 
L 190.347139 175.119598 
L 191.039706 179.00607 
L 191.963127 186.291019 
L 192.886549 193.374082 
L 193.34826 195.583391 
L 193.809971 196.844675 
L 194.040826 197.172066 
L 194.271682 197.272952 
L 194.502537 197.083002 
L 194.733393 196.521678 
L 195.195104 194.110931 
L 195.88767 188.205161 
L 196.811092 180.442933 
L 197.503658 176.191689 
L 198.196224 173.239658 
L 198.657935 171.979747 
L 199.119646 171.32363 
L 199.581357 171.222703 
L 200.273923 171.490813 
L 200.504779 171.433095 
L 200.735634 171.188918 
L 201.197345 170.05601 
L 202.582478 165.502134 
L 202.813333 165.269792 
L 203.044188 165.286669 
L 203.275044 165.563464 
L 203.736755 166.907655 
L 204.198466 169.283344 
L 204.891032 174.554259 
L 205.583598 180.151976 
L 205.814454 181.05738 
L 206.045309 180.983289 
L 206.276165 179.918941 
L 207.661297 169.344162 
L 208.123008 168.134589 
L 208.353863 168.080987 
L 208.584719 168.359273 
L 209.04643 169.764472 
L 209.508141 172.044379 
L 210.200707 176.788619 
L 210.662418 181.172524 
L 211.58584 191.993381 
L 211.816695 192.263462 
L 212.04755 190.361924 
L 212.970972 178.082917 
L 213.432683 174.844065 
L 213.894394 173.624532 
L 214.356105 173.294043 
L 214.58696 172.886618 
L 214.817816 172.015132 
L 215.279527 168.784108 
L 216.202948 161.517346 
L 216.664659 159.786173 
L 216.895515 159.56413 
L 217.12637 159.776267 
L 217.357225 160.414433 
L 217.818936 162.891423 
L 218.511503 168.938824 
L 219.434924 177.077039 
L 219.896635 179.120844 
L 220.127491 179.584963 
L 220.358346 179.76494 
L 220.589202 179.732744 
L 221.050912 179.311684 
L 221.512623 178.878761 
L 221.743479 178.813252 
L 221.974334 178.904157 
L 222.436045 179.5942 
L 223.359467 181.855818 
L 223.590322 182.082698 
L 223.821178 181.953553 
L 224.052033 181.403961 
L 224.513744 179.12257 
L 225.668021 171.695911 
L 226.129732 170.095555 
L 226.360588 169.767785 
L 226.591443 169.758211 
L 226.822298 170.047588 
L 227.284009 171.333527 
L 227.976576 173.526632 
L 228.207431 173.77008 
L 228.438286 173.595979 
L 228.669142 173.018147 
L 229.361708 169.969166 
L 230.054275 167.240111 
L 230.515985 166.224262 
L 230.977696 165.802108 
L 231.439407 165.800116 
L 231.901118 166.088647 
L 232.362829 166.660319 
L 232.82454 167.592965 
L 233.517106 169.74609 
L 234.671383 173.974383 
L 234.902239 174.440602 
L 235.133094 174.566126 
L 235.36395 174.262384 
L 235.594805 173.497719 
L 236.056516 170.860195 
L 236.979938 165.043828 
L 237.441648 163.474332 
L 237.672504 163.151215 
L 237.903359 163.128287 
L 238.134215 163.380052 
L 238.595926 164.52643 
L 239.519347 167.374822 
L 239.981058 167.97677 
L 240.211914 168.006432 
L 240.673625 167.706855 
L 242.058757 166.307424 
L 242.751324 165.976024 
L 243.44389 165.723602 
L 243.905601 165.242484 
L 244.367312 164.217859 
L 245.059878 161.662277 
L 245.752444 158.968128 
L 246.214155 157.917899 
L 246.445011 157.77338 
L 246.675866 157.934388 
L 246.906721 158.429742 
L 247.368432 160.4865 
L 248.060999 165.871642 
L 248.522709 169.437828 
L 248.753565 170.391183 
L 248.98442 170.525909 
L 249.215276 169.939185 
L 250.369553 165.152462 
L 250.831264 164.475281 
L 252.678107 163.335033 
L 252.908963 163.503651 
L 253.139818 163.908973 
L 253.601529 165.571855 
L 254.06324 168.50254 
L 254.755806 175.322691 
L 255.910083 188.934227 
L 256.140939 189.478975 
L 256.371794 188.4773 
L 256.833505 183.625941 
L 257.526072 176.196711 
L 257.987782 173.127264 
L 258.449493 171.765806 
L 258.680349 171.69791 
L 258.911204 172.008108 
L 259.372915 173.58693 
L 260.296337 177.599349 
L 260.527192 177.838126 
L 260.758048 177.582076 
L 261.219759 176.064968 
L 261.681469 174.384288 
L 262.14318 173.533825 
L 262.374036 173.55605 
L 262.604891 173.894528 
L 263.066602 175.460744 
L 264.68259 183.292242 
L 265.375156 184.442152 
L 266.298578 185.931897 
L 266.529434 185.799627 
L 266.760289 185.156052 
L 267.222 182.400291 
L 268.145422 175.804652 
L 268.607132 173.983919 
L 268.837988 173.580963 
L 269.068843 173.511836 
L 269.299699 173.758263 
L 269.76141 175.050139 
L 270.453976 177.697097 
L 270.684831 178.155013 
L 270.915687 178.107757 
L 271.146542 177.492524 
L 271.608253 174.969715 
L 272.300819 170.744767 
L 272.76253 169.112041 
L 272.993386 168.798871 
L 273.224241 168.833514 
L 273.455097 169.210287 
L 273.916808 170.933145 
L 274.378518 173.828693 
L 275.071085 180.218943 
L 275.763651 189.312432 
L 276.225362 195.667948 
L 276.456217 197.319197 
L 276.687073 196.987695 
L 277.148784 191.992264 
L 277.84135 183.511016 
L 278.533916 177.398815 
L 279.457338 171.395485 
L 280.149904 168.386722 
L 280.611615 167.268823 
L 281.073326 166.811736 
L 281.535037 166.849537 
L 281.996748 167.192043 
L 285.459579 170.902378 
L 285.92129 172.130546 
L 286.613857 174.843611 
L 287.768134 180.177587 
L 288.4607 185.029147 
L 288.922411 188.072578 
L 289.153266 188.742405 
L 289.384122 188.69337 
L 289.845833 187.215028 
L 290.307544 184.892559 
L 290.769254 181.484156 
L 292.154387 169.799282 
L 293.077809 164.5924 
L 293.53952 162.939832 
L 293.770375 162.534221 
L 294.001231 162.45798 
L 294.232086 162.732142 
L 294.462941 163.37769 
L 294.924652 165.94123 
L 295.386363 170.61682 
L 296.078929 179.341111 
L 296.309785 179.620354 
L 297.233207 173.275768 
L 297.464062 173.597158 
L 297.925773 175.775414 
L 298.156628 175.966848 
L 298.849195 172.783173 
L 299.08005 173.584486 
L 299.310906 176.387216 
L 299.541761 180.802177 
L 299.772616 182.960395 
L 300.234327 170.472115 
L 300.696038 161.79302 
L 300.926894 161.467524 
L 301.157749 164.23031 
L 301.61946 176.758153 
L 301.850315 169.271273 
L 302.312026 150.665905 
L 302.542882 146.669983 
L 302.773737 146.064795 
L 303.004593 149.573651 
L 303.466303 166.997019 
L 303.928014 133.064674 
L 304.389725 118.736694 
L 304.620581 116.538561 
L 304.851436 118.163806 
L 305.082292 126.65292 
L 305.313147 162.725929 
L 305.774858 99.157252 
L 306.236569 74.927266 
L 306.929135 54.014084 
L 307.621701 41.644148 
L 308.083412 36.586054 
L 308.545123 33.654367 
L 308.775979 32.931007 
L 309.006834 32.688267 
L 309.237689 32.923053 
L 309.468545 33.638069 
L 309.930256 36.550062 
L 310.391967 41.579912 
L 310.853677 49.044983 
L 311.315388 59.565649 
L 311.777099 74.499913 
L 312.23881 97.921837 
L 312.469666 118.134685 
L 312.700521 175.608621 
L 312.931376 131.616171 
L 313.162232 121.442422 
L 313.393087 119.517385 
L 313.623943 121.932949 
L 313.854798 128.054496 
L 314.085654 138.850113 
L 314.547364 180.758172 
L 314.77822 154.786403 
L 315.009075 145.996612 
L 315.239931 143.444311 
L 315.470786 144.744473 
L 315.701642 149.430782 
L 315.932497 158.031744 
L 316.394208 181.347034 
L 316.855919 163.068351 
L 317.086774 160.127011 
L 317.31763 160.682967 
L 317.548485 164.371784 
L 318.010196 179.947151 
L 318.241051 180.6759 
L 318.702762 165.83114 
L 319.164473 159.296007 
L 319.395329 158.503197 
L 319.626184 158.74665 
L 320.549606 162.179392 
L 320.780461 162.345565 
L 321.473028 162.028387 
L 321.703883 162.143063 
L 321.934738 162.550535 
L 322.165594 163.341985 
L 322.627305 166.341297 
L 323.550726 175.248272 
L 323.781582 176.041033 
L 324.012437 175.830488 
L 324.474148 173.822937 
L 325.166715 169.549451 
L 326.090136 163.237392 
L 326.551847 161.659042 
L 326.782703 161.409136 
L 327.013558 161.462921 
L 327.475269 162.179661 
L 329.322112 166.348558 
L 329.783823 168.142692 
L 330.245534 170.790042 
L 330.707245 174.598451 
L 331.168956 179.980806 
L 332.323233 196.730468 
L 332.554089 195.339768 
L 333.246655 186.442608 
L 333.708366 183.489315 
L 333.939221 182.945378 
L 334.400932 182.390327 
L 334.631787 181.670246 
L 335.093498 178.520989 
L 335.786065 172.71302 
L 336.247776 170.515667 
L 336.478631 170.13105 
L 336.709486 170.222687 
L 336.940342 170.761165 
L 337.402053 172.893939 
L 337.863764 175.378123 
L 338.094619 176.118694 
L 338.325474 176.219035 
L 338.55633 175.661471 
L 339.248896 172.109538 
L 339.710607 170.095553 
L 340.172318 168.933025 
L 341.557451 166.708802 
L 342.019161 165.623224 
L 342.250017 165.309122 
L 342.480872 165.287959 
L 342.711728 165.631831 
L 342.942583 166.373067 
L 343.404294 168.94295 
L 344.558571 177.045765 
L 344.789427 178.001848 
L 345.020282 178.129098 
L 345.251138 177.065475 
L 346.405415 165.936527 
L 346.63627 165.313581 
L 346.867126 165.444528 
L 347.328837 167.279385 
L 347.790547 168.963492 
L 348.021403 168.75661 
L 348.252258 167.477423 
L 348.713969 161.608019 
L 349.406535 150.718562 
L 349.637391 148.633987 
L 349.868246 147.997728 
L 350.099102 149.284409 
L 350.329957 153.301039 
L 350.791668 173.766521 
L 351.022524 164.197518 
L 351.484234 140.06903 
L 351.71509 134.706045 
L 351.945945 132.776091 
L 352.176801 134.987367 
L 352.407656 144.903188 
L 352.638512 171.051917 
L 352.869367 132.339954 
L 353.331078 99.609183 
L 353.792789 81.666574 
L 354.485355 64.752555 
L 354.947066 57.499396 
L 355.408777 52.6614 
L 355.870488 49.928705 
L 356.101343 49.30061 
L 356.332199 49.15193 
L 356.563054 49.480745 
L 356.793909 50.290994 
L 357.25562 53.402975 
L 357.717331 58.659475 
L 358.179042 66.407621 
L 358.640753 77.33738 
L 359.102464 93.02304 
L 359.564175 118.673778 
L 360.025886 163.002436 
L 360.256741 139.553211 
L 360.487596 132.935853 
L 360.718452 131.973681 
L 360.949307 134.430505 
L 361.180163 139.78896 
L 361.411018 148.357255 
L 361.641874 161.479955 
L 361.872729 181.583801 
L 362.103584 184.385703 
L 362.33444 173.271032 
L 362.565295 169.413872 
L 362.796151 170.559157 
L 363.027006 175.898612 
L 363.488717 193.15334 
L 364.181283 173.942262 
L 364.412139 171.822284 
L 364.642994 171.425466 
L 364.87385 171.820906 
L 365.104705 171.970884 
L 365.335561 171.14324 
L 366.028127 166.252589 
L 366.258982 165.651215 
L 366.489838 165.918796 
L 366.720693 167.037563 
L 367.182404 171.455519 
L 368.336681 187.860072 
L 369.721814 209.242878 
L 370.41438 227.182982 
L 371.106947 200.13953 
L 371.568657 192.280337 
L 371.799513 190.439762 
L 372.030368 189.558706 
L 372.261224 189.327495 
L 372.492079 189.380857 
L 372.722935 189.301599 
L 372.95379 188.723177 
L 373.415501 185.717658 
L 374.569778 176.240403 
L 375.031489 173.832068 
L 375.4932 172.289043 
L 375.954911 171.504394 
L 376.185766 171.370708 
L 376.416622 171.404334 
L 376.647477 171.605985 
L 377.109188 172.504086 
L 378.263465 175.719588 
L 378.494321 175.827516 
L 378.725176 175.592957 
L 379.186887 174.282834 
L 380.802875 168.182854 
L 381.495441 166.538413 
L 381.957152 165.991234 
L 382.418863 165.908089 
L 382.880574 166.17612 
L 383.57314 166.650226 
L 384.034851 166.584837 
L 384.958273 165.889541 
L 385.189128 165.983547 
L 385.419984 166.360521 
L 385.650839 167.112801 
L 386.11255 170.145108 
L 386.574261 176.093651 
L 387.035972 186.703397 
L 387.497683 201.420459 
L 387.728538 200.679152 
L 388.421104 181.428249 
L 388.882815 175.00669 
L 389.344526 172.346072 
L 389.575381 172.078759 
L 389.806237 172.413447 
L 390.037092 173.29235 
L 390.498803 176.457525 
L 391.65308 186.499199 
L 391.883936 186.893577 
L 392.114791 186.375951 
L 392.576502 183.520126 
L 393.499924 176.664179 
L 393.961635 174.35429 
L 394.423346 173.26413 
L 394.654201 173.232228 
L 394.885057 173.55336 
L 395.346767 175.19323 
L 396.270189 180.071367 
L 396.501045 180.623442 
L 396.7319 180.61148 
L 396.962755 180.100757 
L 398.117033 176.333669 
L 398.347888 176.122067 
L 398.578744 176.141322 
L 399.040454 176.723436 
L 400.425587 179.403143 
L 400.887298 179.812764 
L 401.118153 179.832763 
L 401.349009 179.665197 
L 401.579864 179.249539 
L 402.041575 177.51597 
L 402.734141 173.149451 
L 403.426708 168.813242 
L 403.888419 166.903171 
L 404.350129 166.042803 
L 404.580985 166.010964 
L 404.81184 166.226128 
L 405.273551 167.277365 
L 407.582106 174.785288 
L 408.043816 177.860989 
L 408.505527 183.495811 
L 408.967238 194.063176 
L 409.659805 220.12699 
L 410.121515 195.160955 
L 410.583226 182.14256 
L 411.044937 174.845154 
L 411.506648 170.55474 
L 411.968359 168.074205 
L 412.43007 166.614707 
L 414.046058 162.501098 
L 415.200335 159.291344 
L 416.123757 157.336712 
L 417.047178 155.80757 
L 417.508889 155.427763 
L 417.739745 155.440844 
L 417.9706 155.638583 
L 418.201456 156.055397 
L 418.663167 157.653677 
L 419.124877 160.343333 
L 420.51001 170.493799 
L 420.740865 171.2334 
L 420.971721 171.588661 
L 421.433432 171.677807 
L 422.125998 171.693035 
L 422.587709 171.672528 
L 422.818564 171.501843 
L 423.280275 170.64333 
L 423.741986 169.072576 
L 424.434552 165.699826 
L 425.58883 159.893488 
L 426.050541 158.826703 
L 426.281396 158.78548 
L 426.512251 159.1359 
L 426.743107 159.924796 
L 427.204818 163.019167 
L 427.666529 168.493805 
L 428.58995 182.444916 
L 428.820806 181.659564 
L 430.205938 164.246666 
L 430.667649 162.066614 
L 430.898505 161.590674 
L 431.12936 161.479327 
L 431.360216 161.712103 
L 431.591071 162.277533 
L 432.052782 164.39681 
L 432.514493 167.867737 
L 433.207059 175.713379 
L 434.592192 194.611711 
L 435.053903 196.798944 
L 435.515613 197.407807 
L 435.977324 197.574428 
L 436.20818 197.402317 
L 436.439035 196.887847 
L 436.669891 195.911361 
L 437.131602 192.433388 
L 437.824168 184.536724 
L 438.978445 171.27991 
L 439.440156 167.675805 
L 439.901867 165.555573 
L 440.132722 165.123438 
L 440.363578 165.145965 
L 440.594433 165.651987 
L 440.825288 166.673502 
L 441.286999 170.408368 
L 441.74871 176.608604 
L 442.672132 190.651888 
L 442.902987 190.54061 
L 444.057265 182.854523 
L 444.28812 182.488707 
L 444.518975 182.469222 
L 445.442397 183.301403 
L 445.673253 183.116419 
L 445.904108 182.594419 
L 446.365819 180.503683 
L 447.750952 172.079442 
L 447.981807 171.43521 
L 448.212662 171.178893 
L 448.443518 171.329038 
L 448.674373 171.876913 
L 449.597795 175.740611 
L 449.828651 175.758605 
L 450.059506 174.854921 
L 450.521217 171.042131 
L 451.213783 165.185522 
L 451.675494 163.087367 
L 451.906349 162.687447 
L 452.137205 162.713546 
L 452.36806 163.149362 
L 452.829771 165.14216 
L 453.522338 170.121048 
L 454.214904 174.846211 
L 454.676615 176.29479 
L 454.90747 176.536419 
L 455.830892 176.889863 
L 456.292603 177.609022 
L 456.754314 178.79191 
L 457.44688 181.174833 
L 458.370302 185.204418 
L 460.217145 194.185089 
L 460.448001 194.696241 
L 460.678856 194.913344 
L 460.909712 194.821796 
L 461.140567 194.433347 
L 461.602278 192.951291 
L 462.5257 189.431662 
L 462.756555 188.92463 
L 462.98741 188.691498 
L 463.218266 188.764067 
L 463.449121 189.149786 
L 463.910832 190.702577 
L 464.372543 192.416611 
L 464.603399 192.74902 
L 464.834254 192.429684 
L 465.065109 191.429798 
L 466.681097 181.536249 
L 467.835375 178.299513 
L 468.297086 175.706973 
L 469.913074 164.267183 
L 470.374784 162.523008 
L 470.836495 161.784095 
L 471.067351 161.773662 
L 471.298206 161.981197 
L 471.759917 162.959805 
L 472.452483 165.466071 
L 473.375905 170.035293 
L 474.299327 174.748915 
L 474.761038 175.891294 
L 474.991893 176.014626 
L 475.915315 175.793657 
L 476.14617 176.140657 
L 476.607881 177.741954 
L 477.762158 183.720375 
L 477.993014 183.816592 
L 478.223869 183.247001 
L 478.68558 180.726906 
L 479.839857 173.517511 
L 480.532424 170.709551 
L 480.994135 169.698722 
L 481.22499 169.475714 
L 481.455845 169.444293 
L 481.686701 169.601219 
L 482.148412 170.444522 
L 482.610123 171.904207 
L 483.302689 175.040466 
L 483.995255 179.26479 
L 484.687822 183.79044 
L 484.918677 184.626873 
L 485.149532 184.668696 
L 485.380388 183.806733 
L 485.842099 180.176714 
L 486.534665 174.448681 
L 486.996376 172.237463 
L 487.227231 171.709404 
L 487.458087 171.536972 
L 487.688942 171.670365 
L 488.150653 172.5346 
L 488.612364 173.456559 
L 488.843219 173.665737 
L 489.074075 173.639825 
L 489.535786 173.070259 
L 489.997497 172.484378 
L 490.228352 172.433035 
L 490.459207 172.634021 
L 490.690063 173.12892 
L 491.151774 175.087504 
L 491.613485 178.345678 
L 492.767762 187.575052 
L 492.998617 187.572701 
L 493.229473 186.543342 
L 494.614605 176.090122 
L 494.845461 175.306699 
L 495.076316 174.943031 
L 495.307172 175.013674 
L 495.538027 175.528528 
L 495.999738 177.871558 
L 496.92316 184.371395 
L 497.154015 184.294952 
L 497.384871 182.955203 
L 498.770003 170.307893 
L 499.231714 168.647369 
L 499.462569 168.307248 
L 499.693425 168.21675 
L 500.155136 168.480659 
L 500.616847 168.790095 
L 500.847702 168.803249 
L 501.309413 168.506828 
L 502.001979 167.958782 
L 502.232835 167.957501 
L 502.46369 168.094586 
L 502.925401 168.780658 
L 503.387112 169.930547 
L 503.848823 171.511958 
L 504.310534 173.771309 
L 504.772245 177.278326 
L 505.233955 182.757057 
L 505.926522 193.528252 
L 506.157377 194.650977 
L 506.388233 192.873743 
L 507.311654 180.267457 
L 507.54251 178.6863 
L 507.773365 177.879503 
L 508.004221 177.83405 
L 508.235076 178.551322 
L 508.465932 180.048902 
L 508.927642 185.456833 
L 509.620209 195.661661 
L 509.851064 195.361615 
L 510.312775 188.782398 
L 510.774486 182.603916 
L 511.236197 179.317791 
L 511.467052 178.691641 
L 511.697908 178.674922 
L 511.928763 179.226892 
L 512.390474 181.930641 
L 512.852185 186.73934 
L 513.313896 193.955051 
L 514.006462 207.507647 
L 514.237317 206.417488 
L 515.62245 172.906376 
L 516.315016 164.394155 
L 516.776727 161.099527 
L 517.238438 159.432558 
L 517.469294 159.163668 
L 517.700149 159.251054 
L 517.931004 159.679502 
L 518.392715 161.48731 
L 518.854426 164.401225 
L 519.546993 170.283162 
L 520.470414 180.25366 
L 521.162981 190.630981 
L 521.624691 198.347364 
L 521.855547 200.480188 
L 522.086402 200.079492 
L 522.548113 194.126012 
L 523.24068 184.829641 
L 523.933246 178.659866 
L 524.625812 174.704576 
L 525.318378 172.185016 
L 526.010945 170.464172 
L 526.472656 169.72192 
L 526.703511 169.555098 
L 526.934366 169.586415 
L 527.165222 169.867927 
L 527.396077 170.452566 
L 527.857788 172.742352 
L 528.319499 176.89466 
L 528.78121 183.456934 
L 529.242921 193.348532 
L 529.704632 208.817003 
L 530.397198 240.053608 
L 530.858909 215.278391 
L 531.32062 202.496628 
L 532.013186 190.376868 
L 532.705752 182.230072 
L 533.629174 174.055835 
L 534.32174 169.569814 
L 534.783451 168.010894 
L 535.014307 167.79971 
L 535.245162 168.012759 
L 535.476018 168.674147 
L 535.937729 171.378517 
L 537.092006 181.538213 
L 537.322861 181.70077 
L 537.553717 180.763079 
L 538.938849 171.720335 
L 539.40056 170.606226 
L 539.631416 170.421908 
L 539.862271 170.46408 
L 540.093126 170.720005 
L 540.554837 171.819729 
L 541.247404 174.513311 
L 541.709114 176.258032 
L 541.93997 176.827917 
L 542.170825 177.095513 
L 542.401681 177.047442 
L 542.632536 176.725637 
L 543.094247 175.564076 
L 544.248524 171.704041 
L 545.171946 168.546904 
L 545.171946 168.546904 
" clip-path="url(#p357cd6ac6d)" style="fill: none; stroke: #1f77b4; stroke-linecap: square"/>
   </g>
   <g id="patch_3">
    <path d="M 48.982813 250.421875 
L 48.982813 22.32 
" style="fill: none; stroke: #000000; stroke-width: 0.8; stroke-linejoin: miter; stroke-linecap: square"/>
   </g>
   <g id="patch_4">
    <path d="M 568.8 250.421875 
L 568.8 22.32 
" style="fill: none; stroke: #000000; stroke-width: 0.8; stroke-linejoin: miter; stroke-linecap: square"/>
   </g>
   <g id="patch_5">
    <path d="M 48.982813 250.421875 
L 568.8 250.421875 
" style="fill: none; stroke: #000000; stroke-width: 0.8; stroke-linejoin: miter; stroke-linecap: square"/>
   </g>
   <g id="patch_6">
    <path d="M 48.982813 22.32 
L 568.8 22.32 
" style="fill: none; stroke: #000000; stroke-width: 0.8; stroke-linejoin: miter; stroke-linecap: square"/>
   </g>
   <g id="text_16">
    <!-- Periodogram of $x_c[n]$ -->
    <g transform="translate(246.371406 16.32) scale(0.12 -0.12)">
     <defs>
      <path id="DejaVuSans-67" d="M 2906 1791 
Q 2906 2416 2648 2759 
Q 2391 3103 1925 3103 
Q 1463 3103 1205 2759 
Q 947 2416 947 1791 
Q 947 1169 1205 825 
Q 1463 481 1925 481 
Q 2391 481 2648 825 
Q 2906 1169 2906 1791 
z
M 3481 434 
Q 3481 -459 3084 -895 
Q 2688 -1331 1869 -1331 
Q 1566 -1331 1297 -1286 
Q 1028 -1241 775 -1147 
L 775 -588 
Q 1028 -725 1275 -790 
Q 1522 -856 1778 -856 
Q 2344 -856 2625 -561 
Q 2906 -266 2906 331 
L 2906 616 
Q 2728 306 2450 153 
Q 2172 0 1784 0 
Q 1141 0 747 490 
Q 353 981 353 1791 
Q 353 2603 747 3093 
Q 1141 3584 1784 3584 
Q 2172 3584 2450 3431 
Q 2728 3278 2906 2969 
L 2906 3500 
L 3481 3500 
L 3481 434 
z
" transform="scale(0.015625)"/>
      <path id="DejaVuSans-61" d="M 2194 1759 
Q 1497 1759 1228 1600 
Q 959 1441 959 1056 
Q 959 750 1161 570 
Q 1363 391 1709 391 
Q 2188 391 2477 730 
Q 2766 1069 2766 1631 
L 2766 1759 
L 2194 1759 
z
M 3341 1997 
L 3341 0 
L 2766 0 
L 2766 531 
Q 2569 213 2275 61 
Q 1981 -91 1556 -91 
Q 1019 -91 701 211 
Q 384 513 384 1019 
Q 384 1609 779 1909 
Q 1175 2209 1959 2209 
L 2766 2209 
L 2766 2266 
Q 2766 2663 2505 2880 
Q 2244 3097 1772 3097 
Q 1472 3097 1187 3025 
Q 903 2953 641 2809 
L 641 3341 
Q 956 3463 1253 3523 
Q 1550 3584 1831 3584 
Q 2591 3584 2966 3190 
Q 3341 2797 3341 1997 
z
" transform="scale(0.015625)"/>
      <path id="DejaVuSans-6d" d="M 3328 2828 
Q 3544 3216 3844 3400 
Q 4144 3584 4550 3584 
Q 5097 3584 5394 3201 
Q 5691 2819 5691 2113 
L 5691 0 
L 5113 0 
L 5113 2094 
Q 5113 2597 4934 2840 
Q 4756 3084 4391 3084 
Q 3944 3084 3684 2787 
Q 3425 2491 3425 1978 
L 3425 0 
L 2847 0 
L 2847 2094 
Q 2847 2600 2669 2842 
Q 2491 3084 2119 3084 
Q 1678 3084 1418 2786 
Q 1159 2488 1159 1978 
L 1159 0 
L 581 0 
L 581 3500 
L 1159 3500 
L 1159 2956 
Q 1356 3278 1631 3431 
Q 1906 3584 2284 3584 
Q 2666 3584 2933 3390 
Q 3200 3197 3328 2828 
z
" transform="scale(0.015625)"/>
      <path id="DejaVuSans-66" d="M 2375 4863 
L 2375 4384 
L 1825 4384 
Q 1516 4384 1395 4259 
Q 1275 4134 1275 3809 
L 1275 3500 
L 2222 3500 
L 2222 3053 
L 1275 3053 
L 1275 0 
L 697 0 
L 697 3053 
L 147 3053 
L 147 3500 
L 697 3500 
L 697 3744 
Q 697 4328 969 4595 
Q 1241 4863 1831 4863 
L 2375 4863 
z
" transform="scale(0.015625)"/>
      <path id="DejaVuSans-Oblique-78" d="M 3841 3500 
L 2234 1784 
L 3219 0 
L 2559 0 
L 1819 1388 
L 531 0 
L -166 0 
L 1556 1844 
L 641 3500 
L 1300 3500 
L 1972 2234 
L 3144 3500 
L 3841 3500 
z
" transform="scale(0.015625)"/>
      <path id="DejaVuSans-Oblique-63" d="M 3431 3366 
L 3316 2797 
Q 3109 2947 2876 3022 
Q 2644 3097 2394 3097 
Q 2119 3097 1870 3000 
Q 1622 2903 1453 2725 
Q 1184 2453 1037 2087 
Q 891 1722 891 1331 
Q 891 859 1127 628 
Q 1363 397 1844 397 
Q 2081 397 2348 469 
Q 2616 541 2906 684 
L 2797 116 
Q 2547 13 2283 -39 
Q 2019 -91 1741 -91 
Q 1044 -91 669 257 
Q 294 606 294 1253 
Q 294 1797 489 2255 
Q 684 2713 1069 3078 
Q 1331 3328 1684 3456 
Q 2038 3584 2456 3584 
Q 2700 3584 2940 3529 
Q 3181 3475 3431 3366 
z
" transform="scale(0.015625)"/>
      <path id="DejaVuSans-5b" d="M 550 4863 
L 1875 4863 
L 1875 4416 
L 1125 4416 
L 1125 -397 
L 1875 -397 
L 1875 -844 
L 550 -844 
L 550 4863 
z
" transform="scale(0.015625)"/>
      <path id="DejaVuSans-Oblique-6e" d="M 3566 2113 
L 3156 0 
L 2578 0 
L 2988 2091 
Q 3016 2238 3031 2350 
Q 3047 2463 3047 2528 
Q 3047 2791 2881 2937 
Q 2716 3084 2419 3084 
Q 1956 3084 1622 2776 
Q 1288 2469 1184 1941 
L 800 0 
L 225 0 
L 903 3500 
L 1478 3500 
L 1363 2950 
Q 1603 3253 1940 3418 
Q 2278 3584 2650 3584 
Q 3113 3584 3367 3334 
Q 3622 3084 3622 2631 
Q 3622 2519 3608 2391 
Q 3594 2263 3566 2113 
z
" transform="scale(0.015625)"/>
      <path id="DejaVuSans-5d" d="M 1947 4863 
L 1947 -844 
L 622 -844 
L 622 -397 
L 1369 -397 
L 1369 4416 
L 622 4416 
L 622 4863 
L 1947 4863 
z
" transform="scale(0.015625)"/>
     </defs>
     <use xlink:href="#DejaVuSans-50" transform="translate(0 0.015625)"/>
     <use xlink:href="#DejaVuSans-65" transform="translate(60.302734 0.015625)"/>
     <use xlink:href="#DejaVuSans-72" transform="translate(121.826172 0.015625)"/>
     <use xlink:href="#DejaVuSans-69" transform="translate(162.939453 0.015625)"/>
     <use xlink:href="#DejaVuSans-6f" transform="translate(190.722656 0.015625)"/>
     <use xlink:href="#DejaVuSans-64" transform="translate(251.904297 0.015625)"/>
     <use xlink:href="#DejaVuSans-6f" transform="translate(315.380859 0.015625)"/>
     <use xlink:href="#DejaVuSans-67" transform="translate(376.5625 0.015625)"/>
     <use xlink:href="#DejaVuSans-72" transform="translate(440.039062 0.015625)"/>
     <use xlink:href="#DejaVuSans-61" transform="translate(481.152344 0.015625)"/>
     <use xlink:href="#DejaVuSans-6d" transform="translate(542.431641 0.015625)"/>
     <use xlink:href="#DejaVuSans-20" transform="translate(639.84375 0.015625)"/>
     <use xlink:href="#DejaVuSans-6f" transform="translate(671.630859 0.015625)"/>
     <use xlink:href="#DejaVuSans-66" transform="translate(732.8125 0.015625)"/>
     <use xlink:href="#DejaVuSans-20" transform="translate(768.017578 0.015625)"/>
     <use xlink:href="#DejaVuSans-Oblique-78" transform="translate(799.804688 0.015625)"/>
     <use xlink:href="#DejaVuSans-Oblique-63" transform="translate(858.984375 -16.390625) scale(0.7)"/>
     <use xlink:href="#DejaVuSans-5b" transform="translate(900.205078 0.015625)"/>
     <use xlink:href="#DejaVuSans-Oblique-6e" transform="translate(939.21875 0.015625)"/>
     <use xlink:href="#DejaVuSans-5d" transform="translate(1002.597656 0.015625)"/>
    </g>
   </g>
  </g>
 </g>
 <defs>
  <clipPath id="p357cd6ac6d">
   <rect x="48.982813" y="22.32" width="519.817188" height="228.101875"/>
  </clipPath>
 </defs>
</svg>
