<?xml version="1.0" encoding="utf-8" standalone="no"?>
<!DOCTYPE svg PUBLIC "-//W3C//DTD SVG 1.1//EN"
  "http://www.w3.org/Graphics/SVG/1.1/DTD/svg11.dtd">
<svg xmlns:xlink="http://www.w3.org/1999/xlink" width="576pt" height="288pt" viewBox="0 0 576 288" xmlns="http://www.w3.org/2000/svg" version="1.1">
 <metadata>
  <rdf:RDF xmlns:dc="http://purl.org/dc/elements/1.1/" xmlns:cc="http://creativecommons.org/ns#" xmlns:rdf="http://www.w3.org/1999/02/22-rdf-syntax-ns#">
   <cc:Work>
    <dc:type rdf:resource="http://purl.org/dc/dcmitype/StillImage"/>
    <dc:date>2025-11-27T16:51:32.819562</dc:date>
    <dc:format>image/svg+xml</dc:format>
    <dc:creator>
     <cc:Agent>
      <dc:title>Matplotlib v3.10.7, https://matplotlib.org/</dc:title>
     </cc:Agent>
    </dc:creator>
   </cc:Work>
  </rdf:RDF>
 </metadata>
 <defs>
  <style type="text/css">*{stroke-linejoin: round; stroke-linecap: butt}</style>
 </defs>
 <g id="figure_1">
  <g id="patch_1">
   <path d="M 0 288 
L 576 288 
L 576 0 
L 0 0 
z
" style="fill: #ffffff"/>
  </g>
  <g id="axes_1">
   <g id="patch_2">
    <path d="M 48.982813 250.421875 
L 568.8 250.421875 
L 568.8 22.32 
L 48.982813 22.32 
z
" style="fill: #ffffff"/>
   </g>
   <g id="matplotlib.axis_1">
    <g id="xtick_1">
     <g id="line2d_1">
      <path d="M 72.610866 250.421875 
L 72.610866 22.32 
" clip-path="url(#pabdf090ad3)" style="fill: none; stroke-dasharray: 2.96,1.28; stroke-dashoffset: 0; stroke: #b0b0b0; stroke-opacity: 0.8; stroke-width: 0.8"/>
     </g>
     <g id="line2d_2">
      <defs>
       <path id="mf410b3a07f" d="M 0 0 
L 0 3.5 
" style="stroke: #000000; stroke-width: 0.8"/>
      </defs>
      <g>
       <use xlink:href="#mf410b3a07f" x="72.610866" y="250.421875" style="stroke: #000000; stroke-width: 0.8"/>
      </g>
     </g>
     <g id="text_1">
      <!-- 0 -->
      <g transform="translate(69.429616 265.020312) scale(0.1 -0.1)">
       <defs>
        <path id="DejaVuSans-30" d="M 2034 4250 
Q 1547 4250 1301 3770 
Q 1056 3291 1056 2328 
Q 1056 1369 1301 889 
Q 1547 409 2034 409 
Q 2525 409 2770 889 
Q 3016 1369 3016 2328 
Q 3016 3291 2770 3770 
Q 2525 4250 2034 4250 
z
M 2034 4750 
Q 2819 4750 3233 4129 
Q 3647 3509 3647 2328 
Q 3647 1150 3233 529 
Q 2819 -91 2034 -91 
Q 1250 -91 836 529 
Q 422 1150 422 2328 
Q 422 3509 836 4129 
Q 1250 4750 2034 4750 
z
" transform="scale(0.015625)"/>
       </defs>
       <use xlink:href="#DejaVuSans-30"/>
      </g>
     </g>
    </g>
    <g id="xtick_2">
     <g id="line2d_3">
      <path d="M 167.123082 250.421875 
L 167.123082 22.32 
" clip-path="url(#pabdf090ad3)" style="fill: none; stroke-dasharray: 2.96,1.28; stroke-dashoffset: 0; stroke: #b0b0b0; stroke-opacity: 0.8; stroke-width: 0.8"/>
     </g>
     <g id="line2d_4">
      <g>
       <use xlink:href="#mf410b3a07f" x="167.123082" y="250.421875" style="stroke: #000000; stroke-width: 0.8"/>
      </g>
     </g>
     <g id="text_2">
      <!-- 100 -->
      <g transform="translate(157.579332 265.020312) scale(0.1 -0.1)">
       <defs>
        <path id="DejaVuSans-31" d="M 794 531 
L 1825 531 
L 1825 4091 
L 703 3866 
L 703 4441 
L 1819 4666 
L 2450 4666 
L 2450 531 
L 3481 531 
L 3481 0 
L 794 0 
L 794 531 
z
" transform="scale(0.015625)"/>
       </defs>
       <use xlink:href="#DejaVuSans-31"/>
       <use xlink:href="#DejaVuSans-30" transform="translate(63.623047 0)"/>
       <use xlink:href="#DejaVuSans-30" transform="translate(127.246094 0)"/>
      </g>
     </g>
    </g>
    <g id="xtick_3">
     <g id="line2d_5">
      <path d="M 261.635298 250.421875 
L 261.635298 22.32 
" clip-path="url(#pabdf090ad3)" style="fill: none; stroke-dasharray: 2.96,1.28; stroke-dashoffset: 0; stroke: #b0b0b0; stroke-opacity: 0.8; stroke-width: 0.8"/>
     </g>
     <g id="line2d_6">
      <g>
       <use xlink:href="#mf410b3a07f" x="261.635298" y="250.421875" style="stroke: #000000; stroke-width: 0.8"/>
      </g>
     </g>
     <g id="text_3">
      <!-- 200 -->
      <g transform="translate(252.091548 265.020312) scale(0.1 -0.1)">
       <defs>
        <path id="DejaVuSans-32" d="M 1228 531 
L 3431 531 
L 3431 0 
L 469 0 
L 469 531 
Q 828 903 1448 1529 
Q 2069 2156 2228 2338 
Q 2531 2678 2651 2914 
Q 2772 3150 2772 3378 
Q 2772 3750 2511 3984 
Q 2250 4219 1831 4219 
Q 1534 4219 1204 4116 
Q 875 4013 500 3803 
L 500 4441 
Q 881 4594 1212 4672 
Q 1544 4750 1819 4750 
Q 2544 4750 2975 4387 
Q 3406 4025 3406 3419 
Q 3406 3131 3298 2873 
Q 3191 2616 2906 2266 
Q 2828 2175 2409 1742 
Q 1991 1309 1228 531 
z
" transform="scale(0.015625)"/>
       </defs>
       <use xlink:href="#DejaVuSans-32"/>
       <use xlink:href="#DejaVuSans-30" transform="translate(63.623047 0)"/>
       <use xlink:href="#DejaVuSans-30" transform="translate(127.246094 0)"/>
      </g>
     </g>
    </g>
    <g id="xtick_4">
     <g id="line2d_7">
      <path d="M 356.147514 250.421875 
L 356.147514 22.32 
" clip-path="url(#pabdf090ad3)" style="fill: none; stroke-dasharray: 2.96,1.28; stroke-dashoffset: 0; stroke: #b0b0b0; stroke-opacity: 0.8; stroke-width: 0.8"/>
     </g>
     <g id="line2d_8">
      <g>
       <use xlink:href="#mf410b3a07f" x="356.147514" y="250.421875" style="stroke: #000000; stroke-width: 0.8"/>
      </g>
     </g>
     <g id="text_4">
      <!-- 300 -->
      <g transform="translate(346.603764 265.020312) scale(0.1 -0.1)">
       <defs>
        <path id="DejaVuSans-33" d="M 2597 2516 
Q 3050 2419 3304 2112 
Q 3559 1806 3559 1356 
Q 3559 666 3084 287 
Q 2609 -91 1734 -91 
Q 1441 -91 1130 -33 
Q 819 25 488 141 
L 488 750 
Q 750 597 1062 519 
Q 1375 441 1716 441 
Q 2309 441 2620 675 
Q 2931 909 2931 1356 
Q 2931 1769 2642 2001 
Q 2353 2234 1838 2234 
L 1294 2234 
L 1294 2753 
L 1863 2753 
Q 2328 2753 2575 2939 
Q 2822 3125 2822 3475 
Q 2822 3834 2567 4026 
Q 2313 4219 1838 4219 
Q 1578 4219 1281 4162 
Q 984 4106 628 3988 
L 628 4550 
Q 988 4650 1302 4700 
Q 1616 4750 1894 4750 
Q 2613 4750 3031 4423 
Q 3450 4097 3450 3541 
Q 3450 3153 3228 2886 
Q 3006 2619 2597 2516 
z
" transform="scale(0.015625)"/>
       </defs>
       <use xlink:href="#DejaVuSans-33"/>
       <use xlink:href="#DejaVuSans-30" transform="translate(63.623047 0)"/>
       <use xlink:href="#DejaVuSans-30" transform="translate(127.246094 0)"/>
      </g>
     </g>
    </g>
    <g id="xtick_5">
     <g id="line2d_9">
      <path d="M 450.65973 250.421875 
L 450.65973 22.32 
" clip-path="url(#pabdf090ad3)" style="fill: none; stroke-dasharray: 2.96,1.28; stroke-dashoffset: 0; stroke: #b0b0b0; stroke-opacity: 0.8; stroke-width: 0.8"/>
     </g>
     <g id="line2d_10">
      <g>
       <use xlink:href="#mf410b3a07f" x="450.65973" y="250.421875" style="stroke: #000000; stroke-width: 0.8"/>
      </g>
     </g>
     <g id="text_5">
      <!-- 400 -->
      <g transform="translate(441.11598 265.020312) scale(0.1 -0.1)">
       <defs>
        <path id="DejaVuSans-34" d="M 2419 4116 
L 825 1625 
L 2419 1625 
L 2419 4116 
z
M 2253 4666 
L 3047 4666 
L 3047 1625 
L 3713 1625 
L 3713 1100 
L 3047 1100 
L 3047 0 
L 2419 0 
L 2419 1100 
L 313 1100 
L 313 1709 
L 2253 4666 
z
" transform="scale(0.015625)"/>
       </defs>
       <use xlink:href="#DejaVuSans-34"/>
       <use xlink:href="#DejaVuSans-30" transform="translate(63.623047 0)"/>
       <use xlink:href="#DejaVuSans-30" transform="translate(127.246094 0)"/>
      </g>
     </g>
    </g>
    <g id="xtick_6">
     <g id="line2d_11">
      <path d="M 545.171946 250.421875 
L 545.171946 22.32 
" clip-path="url(#pabdf090ad3)" style="fill: none; stroke-dasharray: 2.96,1.28; stroke-dashoffset: 0; stroke: #b0b0b0; stroke-opacity: 0.8; stroke-width: 0.8"/>
     </g>
     <g id="line2d_12">
      <g>
       <use xlink:href="#mf410b3a07f" x="545.171946" y="250.421875" style="stroke: #000000; stroke-width: 0.8"/>
      </g>
     </g>
     <g id="text_6">
      <!-- 500 -->
      <g transform="translate(535.628196 265.020312) scale(0.1 -0.1)">
       <defs>
        <path id="DejaVuSans-35" d="M 691 4666 
L 3169 4666 
L 3169 4134 
L 1269 4134 
L 1269 2991 
Q 1406 3038 1543 3061 
Q 1681 3084 1819 3084 
Q 2600 3084 3056 2656 
Q 3513 2228 3513 1497 
Q 3513 744 3044 326 
Q 2575 -91 1722 -91 
Q 1428 -91 1123 -41 
Q 819 9 494 109 
L 494 744 
Q 775 591 1075 516 
Q 1375 441 1709 441 
Q 2250 441 2565 725 
Q 2881 1009 2881 1497 
Q 2881 1984 2565 2268 
Q 2250 2553 1709 2553 
Q 1456 2553 1204 2497 
Q 953 2441 691 2322 
L 691 4666 
z
" transform="scale(0.015625)"/>
       </defs>
       <use xlink:href="#DejaVuSans-35"/>
       <use xlink:href="#DejaVuSans-30" transform="translate(63.623047 0)"/>
       <use xlink:href="#DejaVuSans-30" transform="translate(127.246094 0)"/>
      </g>
     </g>
    </g>
    <g id="text_7">
     <!-- Frequency (Hz), $f$ -->
     <g transform="translate(265.741406 278.7) scale(0.1 -0.1)">
      <defs>
       <path id="DejaVuSans-46" d="M 628 4666 
L 3309 4666 
L 3309 4134 
L 1259 4134 
L 1259 2759 
L 3109 2759 
L 3109 2228 
L 1259 2228 
L 1259 0 
L 628 0 
L 628 4666 
z
" transform="scale(0.015625)"/>
       <path id="DejaVuSans-72" d="M 2631 2963 
Q 2534 3019 2420 3045 
Q 2306 3072 2169 3072 
Q 1681 3072 1420 2755 
Q 1159 2438 1159 1844 
L 1159 0 
L 581 0 
L 581 3500 
L 1159 3500 
L 1159 2956 
Q 1341 3275 1631 3429 
Q 1922 3584 2338 3584 
Q 2397 3584 2469 3576 
Q 2541 3569 2628 3553 
L 2631 2963 
z
" transform="scale(0.015625)"/>
       <path id="DejaVuSans-65" d="M 3597 1894 
L 3597 1613 
L 953 1613 
Q 991 1019 1311 708 
Q 1631 397 2203 397 
Q 2534 397 2845 478 
Q 3156 559 3463 722 
L 3463 178 
Q 3153 47 2828 -22 
Q 2503 -91 2169 -91 
Q 1331 -91 842 396 
Q 353 884 353 1716 
Q 353 2575 817 3079 
Q 1281 3584 2069 3584 
Q 2775 3584 3186 3129 
Q 3597 2675 3597 1894 
z
M 3022 2063 
Q 3016 2534 2758 2815 
Q 2500 3097 2075 3097 
Q 1594 3097 1305 2825 
Q 1016 2553 972 2059 
L 3022 2063 
z
" transform="scale(0.015625)"/>
       <path id="DejaVuSans-71" d="M 947 1747 
Q 947 1113 1208 752 
Q 1469 391 1925 391 
Q 2381 391 2643 752 
Q 2906 1113 2906 1747 
Q 2906 2381 2643 2742 
Q 2381 3103 1925 3103 
Q 1469 3103 1208 2742 
Q 947 2381 947 1747 
z
M 2906 525 
Q 2725 213 2448 61 
Q 2172 -91 1784 -91 
Q 1150 -91 751 415 
Q 353 922 353 1747 
Q 353 2572 751 3078 
Q 1150 3584 1784 3584 
Q 2172 3584 2448 3432 
Q 2725 3281 2906 2969 
L 2906 3500 
L 3481 3500 
L 3481 -1331 
L 2906 -1331 
L 2906 525 
z
" transform="scale(0.015625)"/>
       <path id="DejaVuSans-75" d="M 544 1381 
L 544 3500 
L 1119 3500 
L 1119 1403 
Q 1119 906 1312 657 
Q 1506 409 1894 409 
Q 2359 409 2629 706 
Q 2900 1003 2900 1516 
L 2900 3500 
L 3475 3500 
L 3475 0 
L 2900 0 
L 2900 538 
Q 2691 219 2414 64 
Q 2138 -91 1772 -91 
Q 1169 -91 856 284 
Q 544 659 544 1381 
z
M 1991 3584 
L 1991 3584 
z
" transform="scale(0.015625)"/>
       <path id="DejaVuSans-6e" d="M 3513 2113 
L 3513 0 
L 2938 0 
L 2938 2094 
Q 2938 2591 2744 2837 
Q 2550 3084 2163 3084 
Q 1697 3084 1428 2787 
Q 1159 2491 1159 1978 
L 1159 0 
L 581 0 
L 581 3500 
L 1159 3500 
L 1159 2956 
Q 1366 3272 1645 3428 
Q 1925 3584 2291 3584 
Q 2894 3584 3203 3211 
Q 3513 2838 3513 2113 
z
" transform="scale(0.015625)"/>
       <path id="DejaVuSans-63" d="M 3122 3366 
L 3122 2828 
Q 2878 2963 2633 3030 
Q 2388 3097 2138 3097 
Q 1578 3097 1268 2742 
Q 959 2388 959 1747 
Q 959 1106 1268 751 
Q 1578 397 2138 397 
Q 2388 397 2633 464 
Q 2878 531 3122 666 
L 3122 134 
Q 2881 22 2623 -34 
Q 2366 -91 2075 -91 
Q 1284 -91 818 406 
Q 353 903 353 1747 
Q 353 2603 823 3093 
Q 1294 3584 2113 3584 
Q 2378 3584 2631 3529 
Q 2884 3475 3122 3366 
z
" transform="scale(0.015625)"/>
       <path id="DejaVuSans-79" d="M 2059 -325 
Q 1816 -950 1584 -1140 
Q 1353 -1331 966 -1331 
L 506 -1331 
L 506 -850 
L 844 -850 
Q 1081 -850 1212 -737 
Q 1344 -625 1503 -206 
L 1606 56 
L 191 3500 
L 800 3500 
L 1894 763 
L 2988 3500 
L 3597 3500 
L 2059 -325 
z
" transform="scale(0.015625)"/>
       <path id="DejaVuSans-20" transform="scale(0.015625)"/>
       <path id="DejaVuSans-28" d="M 1984 4856 
Q 1566 4138 1362 3434 
Q 1159 2731 1159 2009 
Q 1159 1288 1364 580 
Q 1569 -128 1984 -844 
L 1484 -844 
Q 1016 -109 783 600 
Q 550 1309 550 2009 
Q 550 2706 781 3412 
Q 1013 4119 1484 4856 
L 1984 4856 
z
" transform="scale(0.015625)"/>
       <path id="DejaVuSans-48" d="M 628 4666 
L 1259 4666 
L 1259 2753 
L 3553 2753 
L 3553 4666 
L 4184 4666 
L 4184 0 
L 3553 0 
L 3553 2222 
L 1259 2222 
L 1259 0 
L 628 0 
L 628 4666 
z
" transform="scale(0.015625)"/>
       <path id="DejaVuSans-7a" d="M 353 3500 
L 3084 3500 
L 3084 2975 
L 922 459 
L 3084 459 
L 3084 0 
L 275 0 
L 275 525 
L 2438 3041 
L 353 3041 
L 353 3500 
z
" transform="scale(0.015625)"/>
       <path id="DejaVuSans-29" d="M 513 4856 
L 1013 4856 
Q 1481 4119 1714 3412 
Q 1947 2706 1947 2009 
Q 1947 1309 1714 600 
Q 1481 -109 1013 -844 
L 513 -844 
Q 928 -128 1133 580 
Q 1338 1288 1338 2009 
Q 1338 2731 1133 3434 
Q 928 4138 513 4856 
z
" transform="scale(0.015625)"/>
       <path id="DejaVuSans-2c" d="M 750 794 
L 1409 794 
L 1409 256 
L 897 -744 
L 494 -744 
L 750 256 
L 750 794 
z
" transform="scale(0.015625)"/>
       <path id="DejaVuSans-Oblique-66" d="M 3059 4863 
L 2969 4384 
L 2419 4384 
Q 2106 4384 1964 4261 
Q 1822 4138 1753 3809 
L 1691 3500 
L 2638 3500 
L 2553 3053 
L 1606 3053 
L 1013 0 
L 434 0 
L 1031 3053 
L 481 3053 
L 563 3500 
L 1113 3500 
L 1159 3744 
Q 1278 4363 1576 4613 
Q 1875 4863 2516 4863 
L 3059 4863 
z
" transform="scale(0.015625)"/>
      </defs>
      <use xlink:href="#DejaVuSans-46" transform="translate(0 0.015625)"/>
      <use xlink:href="#DejaVuSans-72" transform="translate(57.519531 0.015625)"/>
      <use xlink:href="#DejaVuSans-65" transform="translate(98.632812 0.015625)"/>
      <use xlink:href="#DejaVuSans-71" transform="translate(160.15625 0.015625)"/>
      <use xlink:href="#DejaVuSans-75" transform="translate(223.632812 0.015625)"/>
      <use xlink:href="#DejaVuSans-65" transform="translate(287.011719 0.015625)"/>
      <use xlink:href="#DejaVuSans-6e" transform="translate(348.535156 0.015625)"/>
      <use xlink:href="#DejaVuSans-63" transform="translate(411.914062 0.015625)"/>
      <use xlink:href="#DejaVuSans-79" transform="translate(466.894531 0.015625)"/>
      <use xlink:href="#DejaVuSans-20" transform="translate(526.074219 0.015625)"/>
      <use xlink:href="#DejaVuSans-28" transform="translate(557.861328 0.015625)"/>
      <use xlink:href="#DejaVuSans-48" transform="translate(596.875 0.015625)"/>
      <use xlink:href="#DejaVuSans-7a" transform="translate(672.070312 0.015625)"/>
      <use xlink:href="#DejaVuSans-29" transform="translate(724.560547 0.015625)"/>
      <use xlink:href="#DejaVuSans-2c" transform="translate(763.574219 0.015625)"/>
      <use xlink:href="#DejaVuSans-20" transform="translate(795.361328 0.015625)"/>
      <use xlink:href="#DejaVuSans-Oblique-66" transform="translate(827.148438 0.015625)"/>
     </g>
    </g>
   </g>
   <g id="matplotlib.axis_2">
    <g id="ytick_1">
     <g id="line2d_13">
      <path d="M 48.982813 218.86136 
L 568.8 218.86136 
" clip-path="url(#pabdf090ad3)" style="fill: none; stroke-dasharray: 2.96,1.28; stroke-dashoffset: 0; stroke: #b0b0b0; stroke-opacity: 0.8; stroke-width: 0.8"/>
     </g>
     <g id="line2d_14">
      <defs>
       <path id="m11009ef538" d="M 0 0 
L -3.5 0 
" style="stroke: #000000; stroke-width: 0.8"/>
      </defs>
      <g>
       <use xlink:href="#m11009ef538" x="48.982813" y="218.86136" style="stroke: #000000; stroke-width: 0.8"/>
      </g>
     </g>
     <g id="text_8">
      <!-- −60 -->
      <g transform="translate(20.878125 222.660579) scale(0.1 -0.1)">
       <defs>
        <path id="DejaVuSans-2212" d="M 678 2272 
L 4684 2272 
L 4684 1741 
L 678 1741 
L 678 2272 
z
" transform="scale(0.015625)"/>
        <path id="DejaVuSans-36" d="M 2113 2584 
Q 1688 2584 1439 2293 
Q 1191 2003 1191 1497 
Q 1191 994 1439 701 
Q 1688 409 2113 409 
Q 2538 409 2786 701 
Q 3034 994 3034 1497 
Q 3034 2003 2786 2293 
Q 2538 2584 2113 2584 
z
M 3366 4563 
L 3366 3988 
Q 3128 4100 2886 4159 
Q 2644 4219 2406 4219 
Q 1781 4219 1451 3797 
Q 1122 3375 1075 2522 
Q 1259 2794 1537 2939 
Q 1816 3084 2150 3084 
Q 2853 3084 3261 2657 
Q 3669 2231 3669 1497 
Q 3669 778 3244 343 
Q 2819 -91 2113 -91 
Q 1303 -91 875 529 
Q 447 1150 447 2328 
Q 447 3434 972 4092 
Q 1497 4750 2381 4750 
Q 2619 4750 2861 4703 
Q 3103 4656 3366 4563 
z
" transform="scale(0.015625)"/>
       </defs>
       <use xlink:href="#DejaVuSans-2212"/>
       <use xlink:href="#DejaVuSans-36" transform="translate(83.789062 0)"/>
       <use xlink:href="#DejaVuSans-30" transform="translate(147.412109 0)"/>
      </g>
     </g>
    </g>
    <g id="ytick_2">
     <g id="line2d_15">
      <path d="M 48.982813 181.111292 
L 568.8 181.111292 
" clip-path="url(#pabdf090ad3)" style="fill: none; stroke-dasharray: 2.96,1.28; stroke-dashoffset: 0; stroke: #b0b0b0; stroke-opacity: 0.8; stroke-width: 0.8"/>
     </g>
     <g id="line2d_16">
      <g>
       <use xlink:href="#m11009ef538" x="48.982813" y="181.111292" style="stroke: #000000; stroke-width: 0.8"/>
      </g>
     </g>
     <g id="text_9">
      <!-- −50 -->
      <g transform="translate(20.878125 184.910511) scale(0.1 -0.1)">
       <use xlink:href="#DejaVuSans-2212"/>
       <use xlink:href="#DejaVuSans-35" transform="translate(83.789062 0)"/>
       <use xlink:href="#DejaVuSans-30" transform="translate(147.412109 0)"/>
      </g>
     </g>
    </g>
    <g id="ytick_3">
     <g id="line2d_17">
      <path d="M 48.982813 143.361224 
L 568.8 143.361224 
" clip-path="url(#pabdf090ad3)" style="fill: none; stroke-dasharray: 2.96,1.28; stroke-dashoffset: 0; stroke: #b0b0b0; stroke-opacity: 0.8; stroke-width: 0.8"/>
     </g>
     <g id="line2d_18">
      <g>
       <use xlink:href="#m11009ef538" x="48.982813" y="143.361224" style="stroke: #000000; stroke-width: 0.8"/>
      </g>
     </g>
     <g id="text_10">
      <!-- −40 -->
      <g transform="translate(20.878125 147.160442) scale(0.1 -0.1)">
       <use xlink:href="#DejaVuSans-2212"/>
       <use xlink:href="#DejaVuSans-34" transform="translate(83.789062 0)"/>
       <use xlink:href="#DejaVuSans-30" transform="translate(147.412109 0)"/>
      </g>
     </g>
    </g>
    <g id="ytick_4">
     <g id="line2d_19">
      <path d="M 48.982813 105.611155 
L 568.8 105.611155 
" clip-path="url(#pabdf090ad3)" style="fill: none; stroke-dasharray: 2.96,1.28; stroke-dashoffset: 0; stroke: #b0b0b0; stroke-opacity: 0.8; stroke-width: 0.8"/>
     </g>
     <g id="line2d_20">
      <g>
       <use xlink:href="#m11009ef538" x="48.982813" y="105.611155" style="stroke: #000000; stroke-width: 0.8"/>
      </g>
     </g>
     <g id="text_11">
      <!-- −30 -->
      <g transform="translate(20.878125 109.410374) scale(0.1 -0.1)">
       <use xlink:href="#DejaVuSans-2212"/>
       <use xlink:href="#DejaVuSans-33" transform="translate(83.789062 0)"/>
       <use xlink:href="#DejaVuSans-30" transform="translate(147.412109 0)"/>
      </g>
     </g>
    </g>
    <g id="ytick_5">
     <g id="line2d_21">
      <path d="M 48.982813 67.861087 
L 568.8 67.861087 
" clip-path="url(#pabdf090ad3)" style="fill: none; stroke-dasharray: 2.96,1.28; stroke-dashoffset: 0; stroke: #b0b0b0; stroke-opacity: 0.8; stroke-width: 0.8"/>
     </g>
     <g id="line2d_22">
      <g>
       <use xlink:href="#m11009ef538" x="48.982813" y="67.861087" style="stroke: #000000; stroke-width: 0.8"/>
      </g>
     </g>
     <g id="text_12">
      <!-- −20 -->
      <g transform="translate(20.878125 71.660306) scale(0.1 -0.1)">
       <use xlink:href="#DejaVuSans-2212"/>
       <use xlink:href="#DejaVuSans-32" transform="translate(83.789062 0)"/>
       <use xlink:href="#DejaVuSans-30" transform="translate(147.412109 0)"/>
      </g>
     </g>
    </g>
    <g id="ytick_6">
     <g id="line2d_23">
      <path d="M 48.982813 30.111019 
L 568.8 30.111019 
" clip-path="url(#pabdf090ad3)" style="fill: none; stroke-dasharray: 2.96,1.28; stroke-dashoffset: 0; stroke: #b0b0b0; stroke-opacity: 0.8; stroke-width: 0.8"/>
     </g>
     <g id="line2d_24">
      <g>
       <use xlink:href="#m11009ef538" x="48.982813" y="30.111019" style="stroke: #000000; stroke-width: 0.8"/>
      </g>
     </g>
     <g id="text_13">
      <!-- −10 -->
      <g transform="translate(20.878125 33.910238) scale(0.1 -0.1)">
       <use xlink:href="#DejaVuSans-2212"/>
       <use xlink:href="#DejaVuSans-31" transform="translate(83.789062 0)"/>
       <use xlink:href="#DejaVuSans-30" transform="translate(147.412109 0)"/>
      </g>
     </g>
    </g>
    <g id="text_14">
     <!-- Power density (dB/Hz) -->
     <g transform="translate(14.798437 191.570938) rotate(-90) scale(0.1 -0.1)">
      <defs>
       <path id="DejaVuSans-50" d="M 1259 4147 
L 1259 2394 
L 2053 2394 
Q 2494 2394 2734 2622 
Q 2975 2850 2975 3272 
Q 2975 3691 2734 3919 
Q 2494 4147 2053 4147 
L 1259 4147 
z
M 628 4666 
L 2053 4666 
Q 2838 4666 3239 4311 
Q 3641 3956 3641 3272 
Q 3641 2581 3239 2228 
Q 2838 1875 2053 1875 
L 1259 1875 
L 1259 0 
L 628 0 
L 628 4666 
z
" transform="scale(0.015625)"/>
       <path id="DejaVuSans-6f" d="M 1959 3097 
Q 1497 3097 1228 2736 
Q 959 2375 959 1747 
Q 959 1119 1226 758 
Q 1494 397 1959 397 
Q 2419 397 2687 759 
Q 2956 1122 2956 1747 
Q 2956 2369 2687 2733 
Q 2419 3097 1959 3097 
z
M 1959 3584 
Q 2709 3584 3137 3096 
Q 3566 2609 3566 1747 
Q 3566 888 3137 398 
Q 2709 -91 1959 -91 
Q 1206 -91 779 398 
Q 353 888 353 1747 
Q 353 2609 779 3096 
Q 1206 3584 1959 3584 
z
" transform="scale(0.015625)"/>
       <path id="DejaVuSans-77" d="M 269 3500 
L 844 3500 
L 1563 769 
L 2278 3500 
L 2956 3500 
L 3675 769 
L 4391 3500 
L 4966 3500 
L 4050 0 
L 3372 0 
L 2619 2869 
L 1863 0 
L 1184 0 
L 269 3500 
z
" transform="scale(0.015625)"/>
       <path id="DejaVuSans-64" d="M 2906 2969 
L 2906 4863 
L 3481 4863 
L 3481 0 
L 2906 0 
L 2906 525 
Q 2725 213 2448 61 
Q 2172 -91 1784 -91 
Q 1150 -91 751 415 
Q 353 922 353 1747 
Q 353 2572 751 3078 
Q 1150 3584 1784 3584 
Q 2172 3584 2448 3432 
Q 2725 3281 2906 2969 
z
M 947 1747 
Q 947 1113 1208 752 
Q 1469 391 1925 391 
Q 2381 391 2643 752 
Q 2906 1113 2906 1747 
Q 2906 2381 2643 2742 
Q 2381 3103 1925 3103 
Q 1469 3103 1208 2742 
Q 947 2381 947 1747 
z
" transform="scale(0.015625)"/>
       <path id="DejaVuSans-73" d="M 2834 3397 
L 2834 2853 
Q 2591 2978 2328 3040 
Q 2066 3103 1784 3103 
Q 1356 3103 1142 2972 
Q 928 2841 928 2578 
Q 928 2378 1081 2264 
Q 1234 2150 1697 2047 
L 1894 2003 
Q 2506 1872 2764 1633 
Q 3022 1394 3022 966 
Q 3022 478 2636 193 
Q 2250 -91 1575 -91 
Q 1294 -91 989 -36 
Q 684 19 347 128 
L 347 722 
Q 666 556 975 473 
Q 1284 391 1588 391 
Q 1994 391 2212 530 
Q 2431 669 2431 922 
Q 2431 1156 2273 1281 
Q 2116 1406 1581 1522 
L 1381 1569 
Q 847 1681 609 1914 
Q 372 2147 372 2553 
Q 372 3047 722 3315 
Q 1072 3584 1716 3584 
Q 2034 3584 2315 3537 
Q 2597 3491 2834 3397 
z
" transform="scale(0.015625)"/>
       <path id="DejaVuSans-69" d="M 603 3500 
L 1178 3500 
L 1178 0 
L 603 0 
L 603 3500 
z
M 603 4863 
L 1178 4863 
L 1178 4134 
L 603 4134 
L 603 4863 
z
" transform="scale(0.015625)"/>
       <path id="DejaVuSans-74" d="M 1172 4494 
L 1172 3500 
L 2356 3500 
L 2356 3053 
L 1172 3053 
L 1172 1153 
Q 1172 725 1289 603 
Q 1406 481 1766 481 
L 2356 481 
L 2356 0 
L 1766 0 
Q 1100 0 847 248 
Q 594 497 594 1153 
L 594 3053 
L 172 3053 
L 172 3500 
L 594 3500 
L 594 4494 
L 1172 4494 
z
" transform="scale(0.015625)"/>
       <path id="DejaVuSans-42" d="M 1259 2228 
L 1259 519 
L 2272 519 
Q 2781 519 3026 730 
Q 3272 941 3272 1375 
Q 3272 1813 3026 2020 
Q 2781 2228 2272 2228 
L 1259 2228 
z
M 1259 4147 
L 1259 2741 
L 2194 2741 
Q 2656 2741 2882 2914 
Q 3109 3088 3109 3444 
Q 3109 3797 2882 3972 
Q 2656 4147 2194 4147 
L 1259 4147 
z
M 628 4666 
L 2241 4666 
Q 2963 4666 3353 4366 
Q 3744 4066 3744 3513 
Q 3744 3084 3544 2831 
Q 3344 2578 2956 2516 
Q 3422 2416 3680 2098 
Q 3938 1781 3938 1306 
Q 3938 681 3513 340 
Q 3088 0 2303 0 
L 628 0 
L 628 4666 
z
" transform="scale(0.015625)"/>
       <path id="DejaVuSans-2f" d="M 1625 4666 
L 2156 4666 
L 531 -594 
L 0 -594 
L 1625 4666 
z
" transform="scale(0.015625)"/>
      </defs>
      <use xlink:href="#DejaVuSans-50"/>
      <use xlink:href="#DejaVuSans-6f" transform="translate(56.677734 0)"/>
      <use xlink:href="#DejaVuSans-77" transform="translate(117.859375 0)"/>
      <use xlink:href="#DejaVuSans-65" transform="translate(199.646484 0)"/>
      <use xlink:href="#DejaVuSans-72" transform="translate(261.169922 0)"/>
      <use xlink:href="#DejaVuSans-20" transform="translate(302.283203 0)"/>
      <use xlink:href="#DejaVuSans-64" transform="translate(334.070312 0)"/>
      <use xlink:href="#DejaVuSans-65" transform="translate(397.546875 0)"/>
      <use xlink:href="#DejaVuSans-6e" transform="translate(459.070312 0)"/>
      <use xlink:href="#DejaVuSans-73" transform="translate(522.449219 0)"/>
      <use xlink:href="#DejaVuSans-69" transform="translate(574.548828 0)"/>
      <use xlink:href="#DejaVuSans-74" transform="translate(602.332031 0)"/>
      <use xlink:href="#DejaVuSans-79" transform="translate(641.541016 0)"/>
      <use xlink:href="#DejaVuSans-20" transform="translate(700.720703 0)"/>
      <use xlink:href="#DejaVuSans-28" transform="translate(732.507812 0)"/>
      <use xlink:href="#DejaVuSans-64" transform="translate(771.521484 0)"/>
      <use xlink:href="#DejaVuSans-42" transform="translate(834.998047 0)"/>
      <use xlink:href="#DejaVuSans-2f" transform="translate(903.601562 0)"/>
      <use xlink:href="#DejaVuSans-48" transform="translate(937.292969 0)"/>
      <use xlink:href="#DejaVuSans-7a" transform="translate(1012.488281 0)"/>
      <use xlink:href="#DejaVuSans-29" transform="translate(1064.978516 0)"/>
     </g>
    </g>
   </g>
   <g id="line2d_25">
    <path d="M 72.610866 211.604702 
L 73.072352 200.314885 
L 73.995323 200.84859 
L 76.30275 202.942541 
L 77.225721 204.056642 
L 78.148692 205.853746 
L 79.071662 208.545652 
L 80.456119 213.263527 
L 80.917604 214.437671 
L 81.37909 215.13855 
L 81.840575 215.292153 
L 82.30206 214.929059 
L 82.763546 214.161263 
L 83.686517 211.970394 
L 85.070973 208.515409 
L 85.993944 206.663025 
L 86.916915 205.428171 
L 87.3784 205.100074 
L 87.839886 204.985404 
L 88.301371 205.087543 
L 88.762857 205.397119 
L 89.685827 206.53025 
L 91.993255 210.075802 
L 92.916225 210.917724 
L 93.839196 211.417941 
L 96.608109 212.545711 
L 97.53108 213.196097 
L 98.454051 214.204773 
L 99.838507 216.337789 
L 100.761478 217.69274 
L 101.222963 218.171934 
L 101.684449 218.477882 
L 102.607419 218.692398 
L 103.53039 218.902391 
L 103.991876 219.224953 
L 104.453361 219.768773 
L 105.376332 221.495552 
L 106.299303 223.461428 
L 106.760788 224.098833 
L 107.222274 224.250092 
L 107.683759 223.820074 
L 108.145245 222.850249 
L 109.068215 219.967156 
L 109.991186 217.077378 
L 110.914157 215.085796 
L 111.375643 214.510786 
L 111.837128 214.199342 
L 112.298613 214.113917 
L 112.760099 214.203475 
L 115.067526 215.157359 
L 115.529011 215.094511 
L 115.990497 214.888259 
L 116.913468 214.073638 
L 117.836439 212.857735 
L 119.68238 210.166134 
L 120.605351 209.193242 
L 121.066837 208.889728 
L 121.528322 208.727819 
L 121.989807 208.713503 
L 122.451293 208.845468 
L 123.374264 209.506509 
L 124.297235 210.556155 
L 125.681691 212.278321 
L 126.604662 213.088607 
L 127.066147 213.314526 
L 127.527633 213.414548 
L 128.450603 213.285688 
L 129.373574 212.840315 
L 130.758031 211.815107 
L 135.372885 207.907383 
L 136.757341 206.857807 
L 137.218827 206.672551 
L 137.680312 206.670268 
L 138.141797 206.919324 
L 138.603283 207.485635 
L 139.064768 208.428091 
L 139.526254 209.79363 
L 140.449225 213.867937 
L 142.295166 223.964276 
L 142.756652 224.722357 
L 143.218137 224.042772 
L 143.679623 222.212984 
L 145.064079 215.195959 
L 145.525564 213.531759 
L 145.98705 212.436841 
L 146.448535 211.92165 
L 146.910021 211.941861 
L 147.371506 212.394563 
L 148.294477 213.823057 
L 148.755962 214.253879 
L 149.217448 214.153527 
L 149.678933 213.444826 
L 150.601904 210.870093 
L 151.524875 208.503554 
L 151.98636 207.839802 
L 152.447846 207.576445 
L 152.909331 207.663684 
L 153.370817 208.008998 
L 155.216758 209.99677 
L 155.678244 210.144758 
L 156.139729 209.825874 
L 156.601215 208.879638 
L 157.985671 204.471752 
L 158.447156 204.437642 
L 158.908642 206.290622 
L 159.370127 210.255891 
L 159.831613 213.168676 
L 160.293098 205.492206 
L 161.677554 162.149935 
L 162.600525 142.644132 
L 163.523496 128.693894 
L 164.446467 118.797735 
L 165.369438 112.192972 
L 165.830923 109.990158 
L 166.292409 108.477374 
L 166.753894 107.635329 
L 167.215379 107.453294 
L 167.676865 107.928361 
L 168.13835 109.06521 
L 168.599836 110.876345 
L 169.061321 113.382837 
L 169.984292 120.617865 
L 170.907263 131.184269 
L 171.830234 145.844237 
L 172.753205 166.049843 
L 173.676175 194.347055 
L 174.137661 210.988631 
L 174.599146 222.067886 
L 175.060632 222.222275 
L 175.522117 219.794359 
L 175.983603 219.117808 
L 176.445088 220.008715 
L 176.906573 221.273982 
L 177.368059 221.73104 
L 177.829544 220.953053 
L 179.214001 216.562181 
L 179.675486 215.771509 
L 180.136971 215.330768 
L 181.059942 214.886861 
L 181.982913 214.67611 
L 182.444399 214.817324 
L 182.905884 215.243735 
L 183.367369 215.990128 
L 184.29034 218.237639 
L 185.213311 220.551861 
L 185.674797 221.291738 
L 186.136282 221.578339 
L 186.597768 221.370329 
L 187.059253 220.696961 
L 187.982224 218.299134 
L 189.828166 212.645895 
L 190.289651 211.708415 
L 190.751136 211.108667 
L 191.212622 210.873063 
L 191.674107 210.999914 
L 192.135593 211.459405 
L 193.058564 213.117683 
L 194.44302 215.960014 
L 194.904505 216.625539 
L 195.827476 217.41514 
L 197.211932 218.228847 
L 198.134903 219.183282 
L 199.980845 221.48114 
L 200.903816 222.170797 
L 202.288272 223.064957 
L 203.211243 224.085866 
L 204.134214 225.246677 
L 204.595699 225.610621 
L 205.057185 225.642198 
L 205.51867 225.236621 
L 205.980156 224.366641 
L 206.903126 221.538617 
L 208.749068 215.081938 
L 209.672039 212.777805 
L 210.133524 211.958481 
L 210.59501 211.366038 
L 211.056495 210.998261 
L 211.517981 210.849937 
L 211.979466 210.913084 
L 212.440952 211.176735 
L 212.902437 211.626864 
L 213.825408 213.019982 
L 214.748379 214.971103 
L 215.67135 217.460972 
L 216.59432 220.675889 
L 217.517291 224.984509 
L 218.440262 230.645493 
L 219.363233 236.867602 
L 219.824718 239.176575 
L 220.286204 240.053608 
L 220.747689 239.129931 
L 221.209175 236.705521 
L 223.055116 224.348101 
L 223.978087 220.54974 
L 224.439573 219.394698 
L 224.901058 218.673477 
L 225.362544 218.312689 
L 225.824029 218.215359 
L 226.747 218.299538 
L 227.208485 218.189901 
L 227.669971 217.810353 
L 228.131456 217.104613 
L 229.054427 214.8937 
L 229.977398 212.442041 
L 230.438883 211.460808 
L 230.900369 210.775016 
L 231.361854 210.445578 
L 231.82334 210.506067 
L 232.284825 210.966107 
L 232.74631 211.813016 
L 233.669281 214.500001 
L 235.515223 221.181124 
L 235.976708 222.337973 
L 236.438194 223.058821 
L 236.899679 223.31877 
L 237.361165 223.156303 
L 237.82265 222.653744 
L 238.745621 221.029721 
L 240.130077 218.319937 
L 241.053048 216.952003 
L 241.976019 216.157623 
L 242.437504 216.003353 
L 242.89899 216.025136 
L 243.360475 216.234443 
L 243.821961 216.639479 
L 244.744932 218.003343 
L 246.129388 220.456616 
L 246.590873 220.818926 
L 247.052359 220.672558 
L 247.513844 219.949401 
L 247.97533 218.711634 
L 250.282757 211.16857 
L 250.744242 210.40004 
L 251.205728 210.025405 
L 251.667213 210.044852 
L 252.128698 210.437571 
L 252.590184 211.164233 
L 253.513155 213.384899 
L 255.359096 219.055808 
L 258.128009 227.67884 
L 258.589494 228.777954 
L 259.05098 229.577225 
L 259.512465 230.033295 
L 259.973951 230.145303 
L 260.435436 229.935766 
L 260.896922 229.42168 
L 261.358407 228.596622 
L 261.819892 227.436669 
L 262.742863 224.097079 
L 265.05029 214.123139 
L 265.511776 212.85596 
L 265.973261 212.022684 
L 266.434747 211.643669 
L 266.896232 211.708909 
L 267.357718 212.177077 
L 267.819203 212.974135 
L 269.665145 217.08607 
L 270.12663 217.761002 
L 270.588116 218.185964 
L 271.049601 218.393642 
L 271.972572 218.411291 
L 273.357028 218.342165 
L 274.279999 218.39151 
L 274.741484 218.234921 
L 275.20297 217.784383 
L 275.664455 216.949316 
L 276.587426 214.254501 
L 277.971882 209.72708 
L 278.894853 207.387038 
L 280.27931 204.624107 
L 280.740795 203.983444 
L 281.20228 203.624282 
L 281.663766 203.630267 
L 282.125251 204.04078 
L 282.586737 204.834035 
L 283.509708 207.213247 
L 284.894164 211.65224 
L 286.27862 217.203071 
L 286.740106 218.146836 
L 287.201591 217.747345 
L 288.586047 213.057833 
L 289.047533 212.864789 
L 289.509018 213.78405 
L 289.970504 215.137065 
L 290.431989 215.409311 
L 290.893475 213.269413 
L 291.816445 205.491549 
L 292.277931 203.255233 
L 292.739416 203.555637 
L 293.200902 207.213057 
L 293.662387 215.181476 
L 294.123873 226.12177 
L 294.585358 223.985027 
L 295.508329 197.759623 
L 295.969814 191.36385 
L 296.4313 189.73034 
L 296.892785 193.549527 
L 297.815756 217.511913 
L 298.738727 174.216595 
L 299.200212 161.461249 
L 299.661698 153.855045 
L 300.123183 150.827048 
L 300.584669 153.35588 
L 301.046154 166.142157 
L 301.507639 214.490803 
L 301.969125 152.725326 
L 302.43061 123.854742 
L 302.892096 105.107332 
L 303.815067 79.544158 
L 304.738037 62.166276 
L 305.661008 49.804375 
L 306.583979 41.190007 
L 307.50695 35.702312 
L 307.968435 34.023777 
L 308.429921 33.023214 
L 308.891406 32.688267 
L 309.352892 33.01485 
L 309.814377 34.006869 
L 310.275863 35.676485 
L 310.737348 38.04496 
L 311.198833 41.144226 
L 312.121804 49.733299 
L 313.044775 62.058613 
L 313.967746 79.372528 
L 314.429231 90.709293 
L 314.890717 104.779107 
L 315.352202 123.308025 
L 315.813688 151.379235 
L 316.275173 203.720809 
L 316.736659 166.483958 
L 317.198144 153.681277 
L 317.659629 151.088277 
L 318.121115 154.065719 
L 318.5826 161.591959 
L 319.044086 174.042505 
L 319.967057 206.565188 
L 320.890027 188.311691 
L 321.351513 185.106164 
L 321.812998 186.451709 
L 322.274484 191.865667 
L 322.735969 201.683495 
L 323.197455 217.16511 
L 323.65894 238.002946 
L 324.120425 239.583146 
L 324.581911 227.53931 
L 325.043396 221.849972 
L 325.504882 221.825569 
L 325.966367 226.094598 
L 326.427853 232.433699 
L 326.889338 234.593047 
L 327.350823 228.816267 
L 327.812309 221.219445 
L 328.273794 215.608252 
L 328.73528 212.423892 
L 329.196765 211.312196 
L 329.658251 211.77785 
L 331.042707 216.295349 
L 331.504192 216.846936 
L 331.965678 216.694487 
L 332.427163 216.144048 
L 333.350134 214.512028 
L 334.273105 212.030515 
L 335.196076 209.502083 
L 335.657561 208.873104 
L 336.119047 208.902329 
L 336.580532 209.541355 
L 337.042017 210.474909 
L 337.503503 211.105091 
L 337.964988 210.780387 
L 338.426474 209.301823 
L 339.349445 205.164131 
L 339.81093 203.980602 
L 340.272415 203.997944 
L 340.733901 205.309274 
L 341.656872 209.927416 
L 342.118357 210.780228 
L 342.579843 209.512399 
L 343.041328 207.364774 
L 343.502813 206.21376 
L 343.964299 207.364849 
L 344.425784 211.058937 
L 344.88727 213.838677 
L 345.348755 207.214512 
L 346.271726 183.059079 
L 346.733211 175.109744 
L 347.194697 170.814134 
L 347.656182 170.827352 
L 348.117668 177.415513 
L 348.579153 199.856166 
L 349.040639 198.565508 
L 349.502124 158.060606 
L 349.963609 135.543932 
L 350.88658 106.913673 
L 351.809551 88.063703 
L 352.732522 74.742053 
L 353.655493 65.394745 
L 354.578464 59.288828 
L 355.039949 57.325404 
L 355.501435 56.049324 
L 355.96292 55.444134 
L 356.424405 55.502018 
L 356.885891 56.223248 
L 357.347376 57.616187 
L 357.808862 59.697849 
L 358.270347 62.4951 
L 359.193318 70.40669 
L 360.116289 81.878886 
L 361.03926 97.958738 
L 361.962231 121.064309 
L 362.423716 137.181329 
L 362.885201 159.481413 
L 363.346687 197.428462 
L 363.808172 203.468777 
L 364.269658 181.947872 
L 364.731143 175.968163 
L 365.192629 176.9297 
L 365.654114 182.748461 
L 366.115599 193.066313 
L 366.577085 207.303123 
L 367.03857 217.151724 
L 367.500056 211.626265 
L 367.961541 203.994544 
L 368.423027 200.005271 
L 368.884512 199.325273 
L 369.345997 201.137306 
L 370.730454 211.369141 
L 371.191939 212.759348 
L 371.653425 213.250635 
L 372.11491 213.971296 
L 372.576395 215.606362 
L 373.499366 220.893978 
L 373.960852 222.412703 
L 374.422337 221.657491 
L 376.268279 211.704562 
L 376.729764 210.757628 
L 377.19125 210.451856 
L 377.652735 210.559105 
L 380.883133 212.595444 
L 381.344619 212.591026 
L 382.267589 212.141616 
L 382.729075 211.873085 
L 383.19056 211.749258 
L 383.652046 211.884523 
L 384.113531 212.34889 
L 384.575017 213.160261 
L 385.497988 215.658093 
L 387.805415 223.059821 
L 389.651356 228.011656 
L 390.112842 229.011503 
L 390.574327 229.676752 
L 391.035813 229.826426 
L 391.497298 229.338872 
L 391.958784 228.220787 
L 392.881754 224.73718 
L 394.266211 219.360818 
L 395.189182 216.891515 
L 396.112152 215.357062 
L 397.035123 214.474874 
L 397.958094 213.99028 
L 398.881065 213.812255 
L 399.34255 213.862065 
L 399.804036 214.037108 
L 400.265521 214.3699 
L 400.727007 214.895392 
L 401.188492 215.647365 
L 401.649978 216.654821 
L 402.572948 219.506781 
L 403.495919 223.444753 
L 405.341861 232.388712 
L 405.803346 233.849151 
L 406.264832 234.519652 
L 406.726317 234.260704 
L 407.187803 233.101632 
L 407.649288 231.223609 
L 409.033744 223.665241 
L 410.418201 216.447653 
L 411.341172 212.589682 
L 412.264142 209.577663 
L 413.187113 207.418898 
L 413.648599 206.666724 
L 414.110084 206.138798 
L 414.57157 205.838467 
L 415.033055 205.764995 
L 415.49454 205.910357 
L 415.956026 206.255892 
L 416.878997 207.403803 
L 418.263453 209.399116 
L 419.186424 210.249354 
L 420.109395 210.659168 
L 421.032366 211.096616 
L 421.493851 211.514208 
L 421.955336 212.148846 
L 422.416822 213.043596 
L 423.339793 215.686288 
L 424.262764 219.336021 
L 425.64722 225.053143 
L 426.108705 226.341298 
L 426.570191 227.062211 
L 427.031676 227.203983 
L 427.493162 226.880799 
L 429.339103 224.60536 
L 429.800589 224.400843 
L 430.72356 224.435679 
L 431.185045 224.44845 
L 431.64653 224.250699 
L 432.108016 223.698869 
L 432.569501 222.717452 
L 433.492472 219.64333 
L 434.876928 214.300443 
L 435.799899 211.584765 
L 436.72287 209.906697 
L 437.184356 209.429419 
L 437.645841 209.156146 
L 438.107326 209.056472 
L 438.568812 209.104437 
L 439.030297 209.281819 
L 439.953268 209.989659 
L 440.876239 211.12146 
L 442.260695 213.075358 
L 442.722181 213.52282 
L 443.183666 213.742212 
L 443.645152 213.70358 
L 444.106637 213.434547 
L 445.491093 212.195043 
L 445.952579 212.00743 
L 446.414064 212.066326 
L 446.87555 212.395081 
L 447.79852 213.721681 
L 448.721491 215.226264 
L 449.182977 215.654283 
L 449.644462 215.681436 
L 450.105948 215.261223 
L 450.567433 214.443667 
L 451.951889 210.892929 
L 452.87486 208.784212 
L 453.797831 207.441319 
L 454.259316 207.098402 
L 454.720802 206.975852 
L 455.182287 207.066238 
L 455.643773 207.354476 
L 456.566744 208.410528 
L 458.412685 210.95279 
L 458.874171 211.323349 
L 459.335656 211.526196 
L 460.258627 211.541298 
L 461.643083 211.329883 
L 463.02754 211.453775 
L 464.411996 211.59172 
L 466.257938 211.711916 
L 467.180908 212.040451 
L 468.565365 212.587826 
L 469.02685 212.589191 
L 469.488336 212.414118 
L 469.949821 212.036017 
L 470.872792 210.710596 
L 472.718734 207.293912 
L 473.180219 206.663857 
L 473.641704 206.225776 
L 474.10319 206.006296 
L 474.564675 206.015351 
L 475.026161 206.244603 
L 475.949132 207.229389 
L 477.333588 209.025464 
L 477.795073 209.393626 
L 478.256559 209.563642 
L 478.718044 209.546939 
L 480.563986 209.037084 
L 481.025471 209.231595 
L 481.486957 209.689993 
L 481.948442 210.447132 
L 482.409928 211.517783 
L 483.332899 214.545001 
L 485.17884 221.778333 
L 485.640326 222.824303 
L 486.101811 223.18357 
L 486.563297 222.826335 
L 487.024782 221.870326 
L 488.409238 217.503109 
L 489.332209 214.94804 
L 490.25518 213.25888 
L 490.716665 212.728782 
L 491.178151 212.374899 
L 491.639636 212.168634 
L 492.562607 212.110831 
L 493.485578 212.470969 
L 494.408549 213.293383 
L 495.33152 214.639402 
L 496.715976 217.438039 
L 497.638947 219.343248 
L 498.561918 220.740002 
L 499.023403 221.145586 
L 499.484889 221.351106 
L 499.946374 221.387462 
L 500.869345 221.156401 
L 502.715287 220.482437 
L 503.176772 220.187083 
L 503.638257 219.705756 
L 504.099743 218.965746 
L 505.022714 216.633157 
L 506.868655 210.752855 
L 507.330141 209.670328 
L 507.791626 208.897398 
L 508.253112 208.46326 
L 508.714597 208.371087 
L 509.176083 208.599341 
L 509.637568 209.102333 
L 510.560539 210.636757 
L 511.48351 212.239609 
L 511.944995 212.84451 
L 512.406481 213.258148 
L 512.867966 213.491665 
L 515.175393 214.112983 
L 516.098364 215.090032 
L 517.021335 216.564003 
L 517.944306 218.126457 
L 518.405791 218.732084 
L 518.867277 219.099197 
L 519.328762 219.164013 
L 519.790247 218.911016 
L 520.251733 218.382179 
L 522.097675 215.530588 
L 522.55916 215.12526 
L 523.020645 214.953666 
L 523.482131 215.014942 
L 523.943616 215.276642 
L 525.789558 216.840227 
L 526.251043 216.934214 
L 526.712529 216.805953 
L 527.174014 216.467229 
L 528.096985 215.33337 
L 531.327383 210.663198 
L 531.788869 210.263872 
L 532.250354 210.040943 
L 532.711839 210.044601 
L 533.173325 210.324959 
L 533.63481 210.929464 
L 534.096296 211.901049 
L 534.557781 213.27659 
L 535.480752 217.341528 
L 536.403723 223.141062 
L 537.788179 233.076986 
L 538.249665 235.336049 
L 538.71115 236.285237 
L 539.172635 235.808723 
L 539.634121 234.210203 
L 541.941548 223.092098 
L 542.864519 220.067191 
L 543.78749 218.083346 
L 544.248975 217.467219 
L 544.710461 217.098036 
L 545.171946 228.338931 
L 545.171946 228.338931 
" clip-path="url(#pabdf090ad3)" style="fill: none; stroke: #1f77b4; stroke-linecap: square"/>
   </g>
   <g id="patch_3">
    <path d="M 48.982813 250.421875 
L 48.982813 22.32 
" style="fill: none; stroke: #000000; stroke-width: 0.8; stroke-linejoin: miter; stroke-linecap: square"/>
   </g>
   <g id="patch_4">
    <path d="M 568.8 250.421875 
L 568.8 22.32 
" style="fill: none; stroke: #000000; stroke-width: 0.8; stroke-linejoin: miter; stroke-linecap: square"/>
   </g>
   <g id="patch_5">
    <path d="M 48.982813 250.421875 
L 568.8 250.421875 
" style="fill: none; stroke: #000000; stroke-width: 0.8; stroke-linejoin: miter; stroke-linecap: square"/>
   </g>
   <g id="patch_6">
    <path d="M 48.982813 22.32 
L 568.8 22.32 
" style="fill: none; stroke: #000000; stroke-width: 0.8; stroke-linejoin: miter; stroke-linecap: square"/>
   </g>
   <g id="text_15">
    <!-- Periodogram of $x_r[n]$ -->
    <g transform="translate(246.971406 16.32) scale(0.12 -0.12)">
     <defs>
      <path id="DejaVuSans-67" d="M 2906 1791 
Q 2906 2416 2648 2759 
Q 2391 3103 1925 3103 
Q 1463 3103 1205 2759 
Q 947 2416 947 1791 
Q 947 1169 1205 825 
Q 1463 481 1925 481 
Q 2391 481 2648 825 
Q 2906 1169 2906 1791 
z
M 3481 434 
Q 3481 -459 3084 -895 
Q 2688 -1331 1869 -1331 
Q 1566 -1331 1297 -1286 
Q 1028 -1241 775 -1147 
L 775 -588 
Q 1028 -725 1275 -790 
Q 1522 -856 1778 -856 
Q 2344 -856 2625 -561 
Q 2906 -266 2906 331 
L 2906 616 
Q 2728 306 2450 153 
Q 2172 0 1784 0 
Q 1141 0 747 490 
Q 353 981 353 1791 
Q 353 2603 747 3093 
Q 1141 3584 1784 3584 
Q 2172 3584 2450 3431 
Q 2728 3278 2906 2969 
L 2906 3500 
L 3481 3500 
L 3481 434 
z
" transform="scale(0.015625)"/>
      <path id="DejaVuSans-61" d="M 2194 1759 
Q 1497 1759 1228 1600 
Q 959 1441 959 1056 
Q 959 750 1161 570 
Q 1363 391 1709 391 
Q 2188 391 2477 730 
Q 2766 1069 2766 1631 
L 2766 1759 
L 2194 1759 
z
M 3341 1997 
L 3341 0 
L 2766 0 
L 2766 531 
Q 2569 213 2275 61 
Q 1981 -91 1556 -91 
Q 1019 -91 701 211 
Q 384 513 384 1019 
Q 384 1609 779 1909 
Q 1175 2209 1959 2209 
L 2766 2209 
L 2766 2266 
Q 2766 2663 2505 2880 
Q 2244 3097 1772 3097 
Q 1472 3097 1187 3025 
Q 903 2953 641 2809 
L 641 3341 
Q 956 3463 1253 3523 
Q 1550 3584 1831 3584 
Q 2591 3584 2966 3190 
Q 3341 2797 3341 1997 
z
" transform="scale(0.015625)"/>
      <path id="DejaVuSans-6d" d="M 3328 2828 
Q 3544 3216 3844 3400 
Q 4144 3584 4550 3584 
Q 5097 3584 5394 3201 
Q 5691 2819 5691 2113 
L 5691 0 
L 5113 0 
L 5113 2094 
Q 5113 2597 4934 2840 
Q 4756 3084 4391 3084 
Q 3944 3084 3684 2787 
Q 3425 2491 3425 1978 
L 3425 0 
L 2847 0 
L 2847 2094 
Q 2847 2600 2669 2842 
Q 2491 3084 2119 3084 
Q 1678 3084 1418 2786 
Q 1159 2488 1159 1978 
L 1159 0 
L 581 0 
L 581 3500 
L 1159 3500 
L 1159 2956 
Q 1356 3278 1631 3431 
Q 1906 3584 2284 3584 
Q 2666 3584 2933 3390 
Q 3200 3197 3328 2828 
z
" transform="scale(0.015625)"/>
      <path id="DejaVuSans-66" d="M 2375 4863 
L 2375 4384 
L 1825 4384 
Q 1516 4384 1395 4259 
Q 1275 4134 1275 3809 
L 1275 3500 
L 2222 3500 
L 2222 3053 
L 1275 3053 
L 1275 0 
L 697 0 
L 697 3053 
L 147 3053 
L 147 3500 
L 697 3500 
L 697 3744 
Q 697 4328 969 4595 
Q 1241 4863 1831 4863 
L 2375 4863 
z
" transform="scale(0.015625)"/>
      <path id="DejaVuSans-Oblique-78" d="M 3841 3500 
L 2234 1784 
L 3219 0 
L 2559 0 
L 1819 1388 
L 531 0 
L -166 0 
L 1556 1844 
L 641 3500 
L 1300 3500 
L 1972 2234 
L 3144 3500 
L 3841 3500 
z
" transform="scale(0.015625)"/>
      <path id="DejaVuSans-Oblique-72" d="M 2853 2969 
Q 2766 3016 2653 3041 
Q 2541 3066 2413 3066 
Q 1953 3066 1609 2717 
Q 1266 2369 1153 1784 
L 800 0 
L 225 0 
L 909 3500 
L 1484 3500 
L 1375 2956 
Q 1603 3259 1920 3421 
Q 2238 3584 2597 3584 
Q 2691 3584 2781 3573 
Q 2872 3563 2963 3538 
L 2853 2969 
z
" transform="scale(0.015625)"/>
      <path id="DejaVuSans-5b" d="M 550 4863 
L 1875 4863 
L 1875 4416 
L 1125 4416 
L 1125 -397 
L 1875 -397 
L 1875 -844 
L 550 -844 
L 550 4863 
z
" transform="scale(0.015625)"/>
      <path id="DejaVuSans-Oblique-6e" d="M 3566 2113 
L 3156 0 
L 2578 0 
L 2988 2091 
Q 3016 2238 3031 2350 
Q 3047 2463 3047 2528 
Q 3047 2791 2881 2937 
Q 2716 3084 2419 3084 
Q 1956 3084 1622 2776 
Q 1288 2469 1184 1941 
L 800 0 
L 225 0 
L 903 3500 
L 1478 3500 
L 1363 2950 
Q 1603 3253 1940 3418 
Q 2278 3584 2650 3584 
Q 3113 3584 3367 3334 
Q 3622 3084 3622 2631 
Q 3622 2519 3608 2391 
Q 3594 2263 3566 2113 
z
" transform="scale(0.015625)"/>
      <path id="DejaVuSans-5d" d="M 1947 4863 
L 1947 -844 
L 622 -844 
L 622 -397 
L 1369 -397 
L 1369 4416 
L 622 4416 
L 622 4863 
L 1947 4863 
z
" transform="scale(0.015625)"/>
     </defs>
     <use xlink:href="#DejaVuSans-50" transform="translate(0 0.015625)"/>
     <use xlink:href="#DejaVuSans-65" transform="translate(60.302734 0.015625)"/>
     <use xlink:href="#DejaVuSans-72" transform="translate(121.826172 0.015625)"/>
     <use xlink:href="#DejaVuSans-69" transform="translate(162.939453 0.015625)"/>
     <use xlink:href="#DejaVuSans-6f" transform="translate(190.722656 0.015625)"/>
     <use xlink:href="#DejaVuSans-64" transform="translate(251.904297 0.015625)"/>
     <use xlink:href="#DejaVuSans-6f" transform="translate(315.380859 0.015625)"/>
     <use xlink:href="#DejaVuSans-67" transform="translate(376.5625 0.015625)"/>
     <use xlink:href="#DejaVuSans-72" transform="translate(440.039062 0.015625)"/>
     <use xlink:href="#DejaVuSans-61" transform="translate(481.152344 0.015625)"/>
     <use xlink:href="#DejaVuSans-6d" transform="translate(542.431641 0.015625)"/>
     <use xlink:href="#DejaVuSans-20" transform="translate(639.84375 0.015625)"/>
     <use xlink:href="#DejaVuSans-6f" transform="translate(671.630859 0.015625)"/>
     <use xlink:href="#DejaVuSans-66" transform="translate(732.8125 0.015625)"/>
     <use xlink:href="#DejaVuSans-20" transform="translate(768.017578 0.015625)"/>
     <use xlink:href="#DejaVuSans-Oblique-78" transform="translate(799.804688 0.015625)"/>
     <use xlink:href="#DejaVuSans-Oblique-72" transform="translate(858.984375 -16.390625) scale(0.7)"/>
     <use xlink:href="#DejaVuSans-5b" transform="translate(890.498047 0.015625)"/>
     <use xlink:href="#DejaVuSans-Oblique-6e" transform="translate(929.511719 0.015625)"/>
     <use xlink:href="#DejaVuSans-5d" transform="translate(992.890625 0.015625)"/>
    </g>
   </g>
  </g>
 </g>
 <defs>
  <clipPath id="pabdf090ad3">
   <rect x="48.982813" y="22.32" width="519.817188" height="228.101875"/>
  </clipPath>
 </defs>
</svg>
