<?xml version="1.0" encoding="utf-8" standalone="no"?>
<!DOCTYPE svg PUBLIC "-//W3C//DTD SVG 1.1//EN"
  "http://www.w3.org/Graphics/SVG/1.1/DTD/svg11.dtd">
<svg xmlns:xlink="http://www.w3.org/1999/xlink" width="576pt" height="288pt" viewBox="0 0 576 288" xmlns="http://www.w3.org/2000/svg" version="1.1">
 <metadata>
  <rdf:RDF xmlns:dc="http://purl.org/dc/elements/1.1/" xmlns:cc="http://creativecommons.org/ns#" xmlns:rdf="http://www.w3.org/1999/02/22-rdf-syntax-ns#">
   <cc:Work>
    <dc:type rdf:resource="http://purl.org/dc/dcmitype/StillImage"/>
    <dc:date>2025-05-10T16:30:48.114858</dc:date>
    <dc:format>image/svg+xml</dc:format>
    <dc:creator>
     <cc:Agent>
      <dc:title>Matplotlib v3.10.3, https://matplotlib.org/</dc:title>
     </cc:Agent>
    </dc:creator>
   </cc:Work>
  </rdf:RDF>
 </metadata>
 <defs>
  <style type="text/css">*{stroke-linejoin: round; stroke-linecap: butt}</style>
 </defs>
 <g id="figure_1">
  <g id="patch_1">
   <path d="M 0 288 
L 576 288 
L 576 0 
L 0 0 
z
" style="fill: #ffffff"/>
  </g>
  <g id="axes_1">
   <g id="patch_2">
    <path d="M 43.803125 250.421875 
L 568.8 250.421875 
L 568.8 22.318125 
L 43.803125 22.318125 
z
" style="fill: #ffffff"/>
   </g>
   <g id="matplotlib.axis_1">
    <g id="xtick_1">
     <g id="line2d_1">
      <path d="M 115.393608 250.421875 
L 115.393608 22.318125 
" clip-path="url(#p1446742628)" style="fill: none; stroke-dasharray: 2.96,1.28; stroke-dashoffset: 0; stroke: #b0b0b0; stroke-opacity: 0.8; stroke-width: 0.8"/>
     </g>
     <g id="line2d_2">
      <defs>
       <path id="m1202831c67" d="M 0 0 
L 0 3.5 
" style="stroke: #000000; stroke-width: 0.8"/>
      </defs>
      <g>
       <use xlink:href="#m1202831c67" x="115.393608" y="250.421875" style="stroke: #000000; stroke-width: 0.8"/>
      </g>
     </g>
     <g id="text_1">
      <!-- $\mathdefault{10^{-9}}$ -->
      <g transform="translate(103.643608 265.020312) scale(0.1 -0.1)">
       <defs>
        <path id="DejaVuSans-31" d="M 794 531 
L 1825 531 
L 1825 4091 
L 703 3866 
L 703 4441 
L 1819 4666 
L 2450 4666 
L 2450 531 
L 3481 531 
L 3481 0 
L 794 0 
L 794 531 
z
" transform="scale(0.015625)"/>
        <path id="DejaVuSans-30" d="M 2034 4250 
Q 1547 4250 1301 3770 
Q 1056 3291 1056 2328 
Q 1056 1369 1301 889 
Q 1547 409 2034 409 
Q 2525 409 2770 889 
Q 3016 1369 3016 2328 
Q 3016 3291 2770 3770 
Q 2525 4250 2034 4250 
z
M 2034 4750 
Q 2819 4750 3233 4129 
Q 3647 3509 3647 2328 
Q 3647 1150 3233 529 
Q 2819 -91 2034 -91 
Q 1250 -91 836 529 
Q 422 1150 422 2328 
Q 422 3509 836 4129 
Q 1250 4750 2034 4750 
z
" transform="scale(0.015625)"/>
        <path id="DejaVuSans-2212" d="M 678 2272 
L 4684 2272 
L 4684 1741 
L 678 1741 
L 678 2272 
z
" transform="scale(0.015625)"/>
        <path id="DejaVuSans-39" d="M 703 97 
L 703 672 
Q 941 559 1184 500 
Q 1428 441 1663 441 
Q 2288 441 2617 861 
Q 2947 1281 2994 2138 
Q 2813 1869 2534 1725 
Q 2256 1581 1919 1581 
Q 1219 1581 811 2004 
Q 403 2428 403 3163 
Q 403 3881 828 4315 
Q 1253 4750 1959 4750 
Q 2769 4750 3195 4129 
Q 3622 3509 3622 2328 
Q 3622 1225 3098 567 
Q 2575 -91 1691 -91 
Q 1453 -91 1209 -44 
Q 966 3 703 97 
z
M 1959 2075 
Q 2384 2075 2632 2365 
Q 2881 2656 2881 3163 
Q 2881 3666 2632 3958 
Q 2384 4250 1959 4250 
Q 1534 4250 1286 3958 
Q 1038 3666 1038 3163 
Q 1038 2656 1286 2365 
Q 1534 2075 1959 2075 
z
" transform="scale(0.015625)"/>
       </defs>
       <use xlink:href="#DejaVuSans-31" transform="translate(0 0.765625)"/>
       <use xlink:href="#DejaVuSans-30" transform="translate(63.623047 0.765625)"/>
       <use xlink:href="#DejaVuSans-2212" transform="translate(128.203125 39.046875) scale(0.7)"/>
       <use xlink:href="#DejaVuSans-39" transform="translate(186.855469 39.046875) scale(0.7)"/>
      </g>
     </g>
    </g>
    <g id="xtick_2">
     <g id="line2d_3">
      <path d="M 210.847585 250.421875 
L 210.847585 22.318125 
" clip-path="url(#p1446742628)" style="fill: none; stroke-dasharray: 2.96,1.28; stroke-dashoffset: 0; stroke: #b0b0b0; stroke-opacity: 0.8; stroke-width: 0.8"/>
     </g>
     <g id="line2d_4">
      <g>
       <use xlink:href="#m1202831c67" x="210.847585" y="250.421875" style="stroke: #000000; stroke-width: 0.8"/>
      </g>
     </g>
     <g id="text_2">
      <!-- $\mathdefault{10^{-7}}$ -->
      <g transform="translate(199.097585 265.020312) scale(0.1 -0.1)">
       <defs>
        <path id="DejaVuSans-37" d="M 525 4666 
L 3525 4666 
L 3525 4397 
L 1831 0 
L 1172 0 
L 2766 4134 
L 525 4134 
L 525 4666 
z
" transform="scale(0.015625)"/>
       </defs>
       <use xlink:href="#DejaVuSans-31" transform="translate(0 0.684375)"/>
       <use xlink:href="#DejaVuSans-30" transform="translate(63.623047 0.684375)"/>
       <use xlink:href="#DejaVuSans-2212" transform="translate(128.203125 38.965625) scale(0.7)"/>
       <use xlink:href="#DejaVuSans-37" transform="translate(186.855469 38.965625) scale(0.7)"/>
      </g>
     </g>
    </g>
    <g id="xtick_3">
     <g id="line2d_5">
      <path d="M 306.301563 250.421875 
L 306.301563 22.318125 
" clip-path="url(#p1446742628)" style="fill: none; stroke-dasharray: 2.96,1.28; stroke-dashoffset: 0; stroke: #b0b0b0; stroke-opacity: 0.8; stroke-width: 0.8"/>
     </g>
     <g id="line2d_6">
      <g>
       <use xlink:href="#m1202831c67" x="306.301563" y="250.421875" style="stroke: #000000; stroke-width: 0.8"/>
      </g>
     </g>
     <g id="text_3">
      <!-- $\mathdefault{10^{-5}}$ -->
      <g transform="translate(294.551563 265.020312) scale(0.1 -0.1)">
       <defs>
        <path id="DejaVuSans-35" d="M 691 4666 
L 3169 4666 
L 3169 4134 
L 1269 4134 
L 1269 2991 
Q 1406 3038 1543 3061 
Q 1681 3084 1819 3084 
Q 2600 3084 3056 2656 
Q 3513 2228 3513 1497 
Q 3513 744 3044 326 
Q 2575 -91 1722 -91 
Q 1428 -91 1123 -41 
Q 819 9 494 109 
L 494 744 
Q 775 591 1075 516 
Q 1375 441 1709 441 
Q 2250 441 2565 725 
Q 2881 1009 2881 1497 
Q 2881 1984 2565 2268 
Q 2250 2553 1709 2553 
Q 1456 2553 1204 2497 
Q 953 2441 691 2322 
L 691 4666 
z
" transform="scale(0.015625)"/>
       </defs>
       <use xlink:href="#DejaVuSans-31" transform="translate(0 0.684375)"/>
       <use xlink:href="#DejaVuSans-30" transform="translate(63.623047 0.684375)"/>
       <use xlink:href="#DejaVuSans-2212" transform="translate(128.203125 38.965625) scale(0.7)"/>
       <use xlink:href="#DejaVuSans-35" transform="translate(186.855469 38.965625) scale(0.7)"/>
      </g>
     </g>
    </g>
    <g id="xtick_4">
     <g id="line2d_7">
      <path d="M 401.75554 250.421875 
L 401.75554 22.318125 
" clip-path="url(#p1446742628)" style="fill: none; stroke-dasharray: 2.96,1.28; stroke-dashoffset: 0; stroke: #b0b0b0; stroke-opacity: 0.8; stroke-width: 0.8"/>
     </g>
     <g id="line2d_8">
      <g>
       <use xlink:href="#m1202831c67" x="401.75554" y="250.421875" style="stroke: #000000; stroke-width: 0.8"/>
      </g>
     </g>
     <g id="text_4">
      <!-- $\mathdefault{10^{-3}}$ -->
      <g transform="translate(390.00554 265.020312) scale(0.1 -0.1)">
       <defs>
        <path id="DejaVuSans-33" d="M 2597 2516 
Q 3050 2419 3304 2112 
Q 3559 1806 3559 1356 
Q 3559 666 3084 287 
Q 2609 -91 1734 -91 
Q 1441 -91 1130 -33 
Q 819 25 488 141 
L 488 750 
Q 750 597 1062 519 
Q 1375 441 1716 441 
Q 2309 441 2620 675 
Q 2931 909 2931 1356 
Q 2931 1769 2642 2001 
Q 2353 2234 1838 2234 
L 1294 2234 
L 1294 2753 
L 1863 2753 
Q 2328 2753 2575 2939 
Q 2822 3125 2822 3475 
Q 2822 3834 2567 4026 
Q 2313 4219 1838 4219 
Q 1578 4219 1281 4162 
Q 984 4106 628 3988 
L 628 4550 
Q 988 4650 1302 4700 
Q 1616 4750 1894 4750 
Q 2613 4750 3031 4423 
Q 3450 4097 3450 3541 
Q 3450 3153 3228 2886 
Q 3006 2619 2597 2516 
z
" transform="scale(0.015625)"/>
       </defs>
       <use xlink:href="#DejaVuSans-31" transform="translate(0 0.765625)"/>
       <use xlink:href="#DejaVuSans-30" transform="translate(63.623047 0.765625)"/>
       <use xlink:href="#DejaVuSans-2212" transform="translate(128.203125 39.046875) scale(0.7)"/>
       <use xlink:href="#DejaVuSans-33" transform="translate(186.855469 39.046875) scale(0.7)"/>
      </g>
     </g>
    </g>
    <g id="xtick_5">
     <g id="line2d_9">
      <path d="M 497.209517 250.421875 
L 497.209517 22.318125 
" clip-path="url(#p1446742628)" style="fill: none; stroke-dasharray: 2.96,1.28; stroke-dashoffset: 0; stroke: #b0b0b0; stroke-opacity: 0.8; stroke-width: 0.8"/>
     </g>
     <g id="line2d_10">
      <g>
       <use xlink:href="#m1202831c67" x="497.209517" y="250.421875" style="stroke: #000000; stroke-width: 0.8"/>
      </g>
     </g>
     <g id="text_5">
      <!-- $\mathdefault{10^{-1}}$ -->
      <g transform="translate(485.459517 265.020312) scale(0.1 -0.1)">
       <use xlink:href="#DejaVuSans-31" transform="translate(0 0.684375)"/>
       <use xlink:href="#DejaVuSans-30" transform="translate(63.623047 0.684375)"/>
       <use xlink:href="#DejaVuSans-2212" transform="translate(128.203125 38.965625) scale(0.7)"/>
       <use xlink:href="#DejaVuSans-31" transform="translate(186.855469 38.965625) scale(0.7)"/>
      </g>
     </g>
    </g>
    <g id="text_6">
     <!-- Probability of false alarm, $P_{fa}$ -->
     <g transform="translate(234.001563 278.7) scale(0.1 -0.1)">
      <defs>
       <path id="DejaVuSans-50" d="M 1259 4147 
L 1259 2394 
L 2053 2394 
Q 2494 2394 2734 2622 
Q 2975 2850 2975 3272 
Q 2975 3691 2734 3919 
Q 2494 4147 2053 4147 
L 1259 4147 
z
M 628 4666 
L 2053 4666 
Q 2838 4666 3239 4311 
Q 3641 3956 3641 3272 
Q 3641 2581 3239 2228 
Q 2838 1875 2053 1875 
L 1259 1875 
L 1259 0 
L 628 0 
L 628 4666 
z
" transform="scale(0.015625)"/>
       <path id="DejaVuSans-72" d="M 2631 2963 
Q 2534 3019 2420 3045 
Q 2306 3072 2169 3072 
Q 1681 3072 1420 2755 
Q 1159 2438 1159 1844 
L 1159 0 
L 581 0 
L 581 3500 
L 1159 3500 
L 1159 2956 
Q 1341 3275 1631 3429 
Q 1922 3584 2338 3584 
Q 2397 3584 2469 3576 
Q 2541 3569 2628 3553 
L 2631 2963 
z
" transform="scale(0.015625)"/>
       <path id="DejaVuSans-6f" d="M 1959 3097 
Q 1497 3097 1228 2736 
Q 959 2375 959 1747 
Q 959 1119 1226 758 
Q 1494 397 1959 397 
Q 2419 397 2687 759 
Q 2956 1122 2956 1747 
Q 2956 2369 2687 2733 
Q 2419 3097 1959 3097 
z
M 1959 3584 
Q 2709 3584 3137 3096 
Q 3566 2609 3566 1747 
Q 3566 888 3137 398 
Q 2709 -91 1959 -91 
Q 1206 -91 779 398 
Q 353 888 353 1747 
Q 353 2609 779 3096 
Q 1206 3584 1959 3584 
z
" transform="scale(0.015625)"/>
       <path id="DejaVuSans-62" d="M 3116 1747 
Q 3116 2381 2855 2742 
Q 2594 3103 2138 3103 
Q 1681 3103 1420 2742 
Q 1159 2381 1159 1747 
Q 1159 1113 1420 752 
Q 1681 391 2138 391 
Q 2594 391 2855 752 
Q 3116 1113 3116 1747 
z
M 1159 2969 
Q 1341 3281 1617 3432 
Q 1894 3584 2278 3584 
Q 2916 3584 3314 3078 
Q 3713 2572 3713 1747 
Q 3713 922 3314 415 
Q 2916 -91 2278 -91 
Q 1894 -91 1617 61 
Q 1341 213 1159 525 
L 1159 0 
L 581 0 
L 581 4863 
L 1159 4863 
L 1159 2969 
z
" transform="scale(0.015625)"/>
       <path id="DejaVuSans-61" d="M 2194 1759 
Q 1497 1759 1228 1600 
Q 959 1441 959 1056 
Q 959 750 1161 570 
Q 1363 391 1709 391 
Q 2188 391 2477 730 
Q 2766 1069 2766 1631 
L 2766 1759 
L 2194 1759 
z
M 3341 1997 
L 3341 0 
L 2766 0 
L 2766 531 
Q 2569 213 2275 61 
Q 1981 -91 1556 -91 
Q 1019 -91 701 211 
Q 384 513 384 1019 
Q 384 1609 779 1909 
Q 1175 2209 1959 2209 
L 2766 2209 
L 2766 2266 
Q 2766 2663 2505 2880 
Q 2244 3097 1772 3097 
Q 1472 3097 1187 3025 
Q 903 2953 641 2809 
L 641 3341 
Q 956 3463 1253 3523 
Q 1550 3584 1831 3584 
Q 2591 3584 2966 3190 
Q 3341 2797 3341 1997 
z
" transform="scale(0.015625)"/>
       <path id="DejaVuSans-69" d="M 603 3500 
L 1178 3500 
L 1178 0 
L 603 0 
L 603 3500 
z
M 603 4863 
L 1178 4863 
L 1178 4134 
L 603 4134 
L 603 4863 
z
" transform="scale(0.015625)"/>
       <path id="DejaVuSans-6c" d="M 603 4863 
L 1178 4863 
L 1178 0 
L 603 0 
L 603 4863 
z
" transform="scale(0.015625)"/>
       <path id="DejaVuSans-74" d="M 1172 4494 
L 1172 3500 
L 2356 3500 
L 2356 3053 
L 1172 3053 
L 1172 1153 
Q 1172 725 1289 603 
Q 1406 481 1766 481 
L 2356 481 
L 2356 0 
L 1766 0 
Q 1100 0 847 248 
Q 594 497 594 1153 
L 594 3053 
L 172 3053 
L 172 3500 
L 594 3500 
L 594 4494 
L 1172 4494 
z
" transform="scale(0.015625)"/>
       <path id="DejaVuSans-79" d="M 2059 -325 
Q 1816 -950 1584 -1140 
Q 1353 -1331 966 -1331 
L 506 -1331 
L 506 -850 
L 844 -850 
Q 1081 -850 1212 -737 
Q 1344 -625 1503 -206 
L 1606 56 
L 191 3500 
L 800 3500 
L 1894 763 
L 2988 3500 
L 3597 3500 
L 2059 -325 
z
" transform="scale(0.015625)"/>
       <path id="DejaVuSans-20" transform="scale(0.015625)"/>
       <path id="DejaVuSans-66" d="M 2375 4863 
L 2375 4384 
L 1825 4384 
Q 1516 4384 1395 4259 
Q 1275 4134 1275 3809 
L 1275 3500 
L 2222 3500 
L 2222 3053 
L 1275 3053 
L 1275 0 
L 697 0 
L 697 3053 
L 147 3053 
L 147 3500 
L 697 3500 
L 697 3744 
Q 697 4328 969 4595 
Q 1241 4863 1831 4863 
L 2375 4863 
z
" transform="scale(0.015625)"/>
       <path id="DejaVuSans-73" d="M 2834 3397 
L 2834 2853 
Q 2591 2978 2328 3040 
Q 2066 3103 1784 3103 
Q 1356 3103 1142 2972 
Q 928 2841 928 2578 
Q 928 2378 1081 2264 
Q 1234 2150 1697 2047 
L 1894 2003 
Q 2506 1872 2764 1633 
Q 3022 1394 3022 966 
Q 3022 478 2636 193 
Q 2250 -91 1575 -91 
Q 1294 -91 989 -36 
Q 684 19 347 128 
L 347 722 
Q 666 556 975 473 
Q 1284 391 1588 391 
Q 1994 391 2212 530 
Q 2431 669 2431 922 
Q 2431 1156 2273 1281 
Q 2116 1406 1581 1522 
L 1381 1569 
Q 847 1681 609 1914 
Q 372 2147 372 2553 
Q 372 3047 722 3315 
Q 1072 3584 1716 3584 
Q 2034 3584 2315 3537 
Q 2597 3491 2834 3397 
z
" transform="scale(0.015625)"/>
       <path id="DejaVuSans-65" d="M 3597 1894 
L 3597 1613 
L 953 1613 
Q 991 1019 1311 708 
Q 1631 397 2203 397 
Q 2534 397 2845 478 
Q 3156 559 3463 722 
L 3463 178 
Q 3153 47 2828 -22 
Q 2503 -91 2169 -91 
Q 1331 -91 842 396 
Q 353 884 353 1716 
Q 353 2575 817 3079 
Q 1281 3584 2069 3584 
Q 2775 3584 3186 3129 
Q 3597 2675 3597 1894 
z
M 3022 2063 
Q 3016 2534 2758 2815 
Q 2500 3097 2075 3097 
Q 1594 3097 1305 2825 
Q 1016 2553 972 2059 
L 3022 2063 
z
" transform="scale(0.015625)"/>
       <path id="DejaVuSans-6d" d="M 3328 2828 
Q 3544 3216 3844 3400 
Q 4144 3584 4550 3584 
Q 5097 3584 5394 3201 
Q 5691 2819 5691 2113 
L 5691 0 
L 5113 0 
L 5113 2094 
Q 5113 2597 4934 2840 
Q 4756 3084 4391 3084 
Q 3944 3084 3684 2787 
Q 3425 2491 3425 1978 
L 3425 0 
L 2847 0 
L 2847 2094 
Q 2847 2600 2669 2842 
Q 2491 3084 2119 3084 
Q 1678 3084 1418 2786 
Q 1159 2488 1159 1978 
L 1159 0 
L 581 0 
L 581 3500 
L 1159 3500 
L 1159 2956 
Q 1356 3278 1631 3431 
Q 1906 3584 2284 3584 
Q 2666 3584 2933 3390 
Q 3200 3197 3328 2828 
z
" transform="scale(0.015625)"/>
       <path id="DejaVuSans-2c" d="M 750 794 
L 1409 794 
L 1409 256 
L 897 -744 
L 494 -744 
L 750 256 
L 750 794 
z
" transform="scale(0.015625)"/>
       <path id="DejaVuSans-Oblique-50" d="M 1081 4666 
L 2541 4666 
Q 3178 4666 3512 4369 
Q 3847 4072 3847 3500 
Q 3847 2731 3353 2303 
Q 2859 1875 1966 1875 
L 1172 1875 
L 806 0 
L 172 0 
L 1081 4666 
z
M 1613 4147 
L 1275 2394 
L 2069 2394 
Q 2606 2394 2893 2669 
Q 3181 2944 3181 3456 
Q 3181 3784 2986 3965 
Q 2791 4147 2438 4147 
L 1613 4147 
z
" transform="scale(0.015625)"/>
       <path id="DejaVuSans-Oblique-66" d="M 3059 4863 
L 2969 4384 
L 2419 4384 
Q 2106 4384 1964 4261 
Q 1822 4138 1753 3809 
L 1691 3500 
L 2638 3500 
L 2553 3053 
L 1606 3053 
L 1013 0 
L 434 0 
L 1031 3053 
L 481 3053 
L 563 3500 
L 1113 3500 
L 1159 3744 
Q 1278 4363 1576 4613 
Q 1875 4863 2516 4863 
L 3059 4863 
z
" transform="scale(0.015625)"/>
       <path id="DejaVuSans-Oblique-61" d="M 3438 1997 
L 3047 0 
L 2472 0 
L 2578 531 
Q 2325 219 2001 64 
Q 1678 -91 1281 -91 
Q 834 -91 548 182 
Q 263 456 263 884 
Q 263 1497 752 1853 
Q 1241 2209 2100 2209 
L 2900 2209 
L 2931 2363 
Q 2938 2388 2941 2417 
Q 2944 2447 2944 2509 
Q 2944 2788 2717 2942 
Q 2491 3097 2081 3097 
Q 1800 3097 1504 3025 
Q 1209 2953 897 2809 
L 997 3341 
Q 1322 3463 1633 3523 
Q 1944 3584 2234 3584 
Q 2853 3584 3176 3315 
Q 3500 3047 3500 2534 
Q 3500 2431 3484 2292 
Q 3469 2153 3438 1997 
z
M 2816 1759 
L 2241 1759 
Q 1534 1759 1195 1570 
Q 856 1381 856 984 
Q 856 709 1029 553 
Q 1203 397 1509 397 
Q 1978 397 2328 733 
Q 2678 1069 2791 1631 
L 2816 1759 
z
" transform="scale(0.015625)"/>
      </defs>
      <use xlink:href="#DejaVuSans-50" transform="translate(0 0.015625)"/>
      <use xlink:href="#DejaVuSans-72" transform="translate(60.302734 0.015625)"/>
      <use xlink:href="#DejaVuSans-6f" transform="translate(101.416016 0.015625)"/>
      <use xlink:href="#DejaVuSans-62" transform="translate(162.597656 0.015625)"/>
      <use xlink:href="#DejaVuSans-61" transform="translate(226.074219 0.015625)"/>
      <use xlink:href="#DejaVuSans-62" transform="translate(287.353516 0.015625)"/>
      <use xlink:href="#DejaVuSans-69" transform="translate(350.830078 0.015625)"/>
      <use xlink:href="#DejaVuSans-6c" transform="translate(378.613281 0.015625)"/>
      <use xlink:href="#DejaVuSans-69" transform="translate(406.396484 0.015625)"/>
      <use xlink:href="#DejaVuSans-74" transform="translate(434.179688 0.015625)"/>
      <use xlink:href="#DejaVuSans-79" transform="translate(473.388672 0.015625)"/>
      <use xlink:href="#DejaVuSans-20" transform="translate(532.568359 0.015625)"/>
      <use xlink:href="#DejaVuSans-6f" transform="translate(564.355469 0.015625)"/>
      <use xlink:href="#DejaVuSans-66" transform="translate(625.537109 0.015625)"/>
      <use xlink:href="#DejaVuSans-20" transform="translate(660.742188 0.015625)"/>
      <use xlink:href="#DejaVuSans-66" transform="translate(692.529297 0.015625)"/>
      <use xlink:href="#DejaVuSans-61" transform="translate(727.734375 0.015625)"/>
      <use xlink:href="#DejaVuSans-6c" transform="translate(789.013672 0.015625)"/>
      <use xlink:href="#DejaVuSans-73" transform="translate(816.796875 0.015625)"/>
      <use xlink:href="#DejaVuSans-65" transform="translate(868.896484 0.015625)"/>
      <use xlink:href="#DejaVuSans-20" transform="translate(930.419922 0.015625)"/>
      <use xlink:href="#DejaVuSans-61" transform="translate(962.207031 0.015625)"/>
      <use xlink:href="#DejaVuSans-6c" transform="translate(1023.486328 0.015625)"/>
      <use xlink:href="#DejaVuSans-61" transform="translate(1051.269531 0.015625)"/>
      <use xlink:href="#DejaVuSans-72" transform="translate(1112.548828 0.015625)"/>
      <use xlink:href="#DejaVuSans-6d" transform="translate(1153.662109 0.015625)"/>
      <use xlink:href="#DejaVuSans-2c" transform="translate(1251.074219 0.015625)"/>
      <use xlink:href="#DejaVuSans-20" transform="translate(1282.861328 0.015625)"/>
      <use xlink:href="#DejaVuSans-Oblique-50" transform="translate(1314.648438 0.015625)"/>
      <use xlink:href="#DejaVuSans-Oblique-66" transform="translate(1374.951172 -16.390625) scale(0.7)"/>
      <use xlink:href="#DejaVuSans-Oblique-61" transform="translate(1399.594727 -16.390625) scale(0.7)"/>
     </g>
    </g>
   </g>
   <g id="matplotlib.axis_2">
    <g id="ytick_1">
     <g id="line2d_11">
      <path d="M 43.803125 240.053523 
L 568.8 240.053523 
" clip-path="url(#p1446742628)" style="fill: none; stroke-dasharray: 2.96,1.28; stroke-dashoffset: 0; stroke: #b0b0b0; stroke-opacity: 0.8; stroke-width: 0.8"/>
     </g>
     <g id="line2d_12">
      <defs>
       <path id="m4d3ea2bdcb" d="M 0 0 
L -3.5 0 
" style="stroke: #000000; stroke-width: 0.8"/>
      </defs>
      <g>
       <use xlink:href="#m4d3ea2bdcb" x="43.803125" y="240.053523" style="stroke: #000000; stroke-width: 0.8"/>
      </g>
     </g>
     <g id="text_7">
      <!-- 0.0 -->
      <g transform="translate(20.9 243.852742) scale(0.1 -0.1)">
       <defs>
        <path id="DejaVuSans-2e" d="M 684 794 
L 1344 794 
L 1344 0 
L 684 0 
L 684 794 
z
" transform="scale(0.015625)"/>
       </defs>
       <use xlink:href="#DejaVuSans-30"/>
       <use xlink:href="#DejaVuSans-2e" transform="translate(63.623047 0)"/>
       <use xlink:href="#DejaVuSans-30" transform="translate(95.410156 0)"/>
      </g>
     </g>
    </g>
    <g id="ytick_2">
     <g id="line2d_13">
      <path d="M 43.803125 198.580114 
L 568.8 198.580114 
" clip-path="url(#p1446742628)" style="fill: none; stroke-dasharray: 2.96,1.28; stroke-dashoffset: 0; stroke: #b0b0b0; stroke-opacity: 0.8; stroke-width: 0.8"/>
     </g>
     <g id="line2d_14">
      <g>
       <use xlink:href="#m4d3ea2bdcb" x="43.803125" y="198.580114" style="stroke: #000000; stroke-width: 0.8"/>
      </g>
     </g>
     <g id="text_8">
      <!-- 0.2 -->
      <g transform="translate(20.9 202.379333) scale(0.1 -0.1)">
       <defs>
        <path id="DejaVuSans-32" d="M 1228 531 
L 3431 531 
L 3431 0 
L 469 0 
L 469 531 
Q 828 903 1448 1529 
Q 2069 2156 2228 2338 
Q 2531 2678 2651 2914 
Q 2772 3150 2772 3378 
Q 2772 3750 2511 3984 
Q 2250 4219 1831 4219 
Q 1534 4219 1204 4116 
Q 875 4013 500 3803 
L 500 4441 
Q 881 4594 1212 4672 
Q 1544 4750 1819 4750 
Q 2544 4750 2975 4387 
Q 3406 4025 3406 3419 
Q 3406 3131 3298 2873 
Q 3191 2616 2906 2266 
Q 2828 2175 2409 1742 
Q 1991 1309 1228 531 
z
" transform="scale(0.015625)"/>
       </defs>
       <use xlink:href="#DejaVuSans-30"/>
       <use xlink:href="#DejaVuSans-2e" transform="translate(63.623047 0)"/>
       <use xlink:href="#DejaVuSans-32" transform="translate(95.410156 0)"/>
      </g>
     </g>
    </g>
    <g id="ytick_3">
     <g id="line2d_15">
      <path d="M 43.803125 157.106705 
L 568.8 157.106705 
" clip-path="url(#p1446742628)" style="fill: none; stroke-dasharray: 2.96,1.28; stroke-dashoffset: 0; stroke: #b0b0b0; stroke-opacity: 0.8; stroke-width: 0.8"/>
     </g>
     <g id="line2d_16">
      <g>
       <use xlink:href="#m4d3ea2bdcb" x="43.803125" y="157.106705" style="stroke: #000000; stroke-width: 0.8"/>
      </g>
     </g>
     <g id="text_9">
      <!-- 0.4 -->
      <g transform="translate(20.9 160.905923) scale(0.1 -0.1)">
       <defs>
        <path id="DejaVuSans-34" d="M 2419 4116 
L 825 1625 
L 2419 1625 
L 2419 4116 
z
M 2253 4666 
L 3047 4666 
L 3047 1625 
L 3713 1625 
L 3713 1100 
L 3047 1100 
L 3047 0 
L 2419 0 
L 2419 1100 
L 313 1100 
L 313 1709 
L 2253 4666 
z
" transform="scale(0.015625)"/>
       </defs>
       <use xlink:href="#DejaVuSans-30"/>
       <use xlink:href="#DejaVuSans-2e" transform="translate(63.623047 0)"/>
       <use xlink:href="#DejaVuSans-34" transform="translate(95.410156 0)"/>
      </g>
     </g>
    </g>
    <g id="ytick_4">
     <g id="line2d_17">
      <path d="M 43.803125 115.633296 
L 568.8 115.633296 
" clip-path="url(#p1446742628)" style="fill: none; stroke-dasharray: 2.96,1.28; stroke-dashoffset: 0; stroke: #b0b0b0; stroke-opacity: 0.8; stroke-width: 0.8"/>
     </g>
     <g id="line2d_18">
      <g>
       <use xlink:href="#m4d3ea2bdcb" x="43.803125" y="115.633296" style="stroke: #000000; stroke-width: 0.8"/>
      </g>
     </g>
     <g id="text_10">
      <!-- 0.6 -->
      <g transform="translate(20.9 119.432514) scale(0.1 -0.1)">
       <defs>
        <path id="DejaVuSans-36" d="M 2113 2584 
Q 1688 2584 1439 2293 
Q 1191 2003 1191 1497 
Q 1191 994 1439 701 
Q 1688 409 2113 409 
Q 2538 409 2786 701 
Q 3034 994 3034 1497 
Q 3034 2003 2786 2293 
Q 2538 2584 2113 2584 
z
M 3366 4563 
L 3366 3988 
Q 3128 4100 2886 4159 
Q 2644 4219 2406 4219 
Q 1781 4219 1451 3797 
Q 1122 3375 1075 2522 
Q 1259 2794 1537 2939 
Q 1816 3084 2150 3084 
Q 2853 3084 3261 2657 
Q 3669 2231 3669 1497 
Q 3669 778 3244 343 
Q 2819 -91 2113 -91 
Q 1303 -91 875 529 
Q 447 1150 447 2328 
Q 447 3434 972 4092 
Q 1497 4750 2381 4750 
Q 2619 4750 2861 4703 
Q 3103 4656 3366 4563 
z
" transform="scale(0.015625)"/>
       </defs>
       <use xlink:href="#DejaVuSans-30"/>
       <use xlink:href="#DejaVuSans-2e" transform="translate(63.623047 0)"/>
       <use xlink:href="#DejaVuSans-36" transform="translate(95.410156 0)"/>
      </g>
     </g>
    </g>
    <g id="ytick_5">
     <g id="line2d_19">
      <path d="M 43.803125 74.159886 
L 568.8 74.159886 
" clip-path="url(#p1446742628)" style="fill: none; stroke-dasharray: 2.96,1.28; stroke-dashoffset: 0; stroke: #b0b0b0; stroke-opacity: 0.8; stroke-width: 0.8"/>
     </g>
     <g id="line2d_20">
      <g>
       <use xlink:href="#m4d3ea2bdcb" x="43.803125" y="74.159886" style="stroke: #000000; stroke-width: 0.8"/>
      </g>
     </g>
     <g id="text_11">
      <!-- 0.8 -->
      <g transform="translate(20.9 77.959105) scale(0.1 -0.1)">
       <defs>
        <path id="DejaVuSans-38" d="M 2034 2216 
Q 1584 2216 1326 1975 
Q 1069 1734 1069 1313 
Q 1069 891 1326 650 
Q 1584 409 2034 409 
Q 2484 409 2743 651 
Q 3003 894 3003 1313 
Q 3003 1734 2745 1975 
Q 2488 2216 2034 2216 
z
M 1403 2484 
Q 997 2584 770 2862 
Q 544 3141 544 3541 
Q 544 4100 942 4425 
Q 1341 4750 2034 4750 
Q 2731 4750 3128 4425 
Q 3525 4100 3525 3541 
Q 3525 3141 3298 2862 
Q 3072 2584 2669 2484 
Q 3125 2378 3379 2068 
Q 3634 1759 3634 1313 
Q 3634 634 3220 271 
Q 2806 -91 2034 -91 
Q 1263 -91 848 271 
Q 434 634 434 1313 
Q 434 1759 690 2068 
Q 947 2378 1403 2484 
z
M 1172 3481 
Q 1172 3119 1398 2916 
Q 1625 2713 2034 2713 
Q 2441 2713 2670 2916 
Q 2900 3119 2900 3481 
Q 2900 3844 2670 4047 
Q 2441 4250 2034 4250 
Q 1625 4250 1398 4047 
Q 1172 3844 1172 3481 
z
" transform="scale(0.015625)"/>
       </defs>
       <use xlink:href="#DejaVuSans-30"/>
       <use xlink:href="#DejaVuSans-2e" transform="translate(63.623047 0)"/>
       <use xlink:href="#DejaVuSans-38" transform="translate(95.410156 0)"/>
      </g>
     </g>
    </g>
    <g id="ytick_6">
     <g id="line2d_21">
      <path d="M 43.803125 32.686477 
L 568.8 32.686477 
" clip-path="url(#p1446742628)" style="fill: none; stroke-dasharray: 2.96,1.28; stroke-dashoffset: 0; stroke: #b0b0b0; stroke-opacity: 0.8; stroke-width: 0.8"/>
     </g>
     <g id="line2d_22">
      <g>
       <use xlink:href="#m4d3ea2bdcb" x="43.803125" y="32.686477" style="stroke: #000000; stroke-width: 0.8"/>
      </g>
     </g>
     <g id="text_12">
      <!-- 1.0 -->
      <g transform="translate(20.9 36.485696) scale(0.1 -0.1)">
       <use xlink:href="#DejaVuSans-31"/>
       <use xlink:href="#DejaVuSans-2e" transform="translate(63.623047 0)"/>
       <use xlink:href="#DejaVuSans-30" transform="translate(95.410156 0)"/>
      </g>
     </g>
    </g>
    <g id="text_13">
     <!-- Probability of detection, $P_d$ -->
     <g transform="translate(14.8 203.17) rotate(-90) scale(0.1 -0.1)">
      <defs>
       <path id="DejaVuSans-64" d="M 2906 2969 
L 2906 4863 
L 3481 4863 
L 3481 0 
L 2906 0 
L 2906 525 
Q 2725 213 2448 61 
Q 2172 -91 1784 -91 
Q 1150 -91 751 415 
Q 353 922 353 1747 
Q 353 2572 751 3078 
Q 1150 3584 1784 3584 
Q 2172 3584 2448 3432 
Q 2725 3281 2906 2969 
z
M 947 1747 
Q 947 1113 1208 752 
Q 1469 391 1925 391 
Q 2381 391 2643 752 
Q 2906 1113 2906 1747 
Q 2906 2381 2643 2742 
Q 2381 3103 1925 3103 
Q 1469 3103 1208 2742 
Q 947 2381 947 1747 
z
" transform="scale(0.015625)"/>
       <path id="DejaVuSans-63" d="M 3122 3366 
L 3122 2828 
Q 2878 2963 2633 3030 
Q 2388 3097 2138 3097 
Q 1578 3097 1268 2742 
Q 959 2388 959 1747 
Q 959 1106 1268 751 
Q 1578 397 2138 397 
Q 2388 397 2633 464 
Q 2878 531 3122 666 
L 3122 134 
Q 2881 22 2623 -34 
Q 2366 -91 2075 -91 
Q 1284 -91 818 406 
Q 353 903 353 1747 
Q 353 2603 823 3093 
Q 1294 3584 2113 3584 
Q 2378 3584 2631 3529 
Q 2884 3475 3122 3366 
z
" transform="scale(0.015625)"/>
       <path id="DejaVuSans-6e" d="M 3513 2113 
L 3513 0 
L 2938 0 
L 2938 2094 
Q 2938 2591 2744 2837 
Q 2550 3084 2163 3084 
Q 1697 3084 1428 2787 
Q 1159 2491 1159 1978 
L 1159 0 
L 581 0 
L 581 3500 
L 1159 3500 
L 1159 2956 
Q 1366 3272 1645 3428 
Q 1925 3584 2291 3584 
Q 2894 3584 3203 3211 
Q 3513 2838 3513 2113 
z
" transform="scale(0.015625)"/>
       <path id="DejaVuSans-Oblique-64" d="M 2675 525 
Q 2444 222 2128 65 
Q 1813 -91 1428 -91 
Q 903 -91 598 267 
Q 294 625 294 1247 
Q 294 1766 478 2236 
Q 663 2706 1013 3078 
Q 1244 3325 1534 3454 
Q 1825 3584 2144 3584 
Q 2481 3584 2739 3421 
Q 2997 3259 3138 2956 
L 3513 4863 
L 4091 4863 
L 3144 0 
L 2566 0 
L 2675 525 
z
M 891 1350 
Q 891 897 1095 644 
Q 1300 391 1663 391 
Q 1931 391 2161 520 
Q 2391 650 2566 903 
Q 2750 1166 2856 1509 
Q 2963 1853 2963 2188 
Q 2963 2622 2758 2865 
Q 2553 3109 2194 3109 
Q 1922 3109 1687 2981 
Q 1453 2853 1288 2613 
Q 1106 2353 998 2009 
Q 891 1666 891 1350 
z
" transform="scale(0.015625)"/>
      </defs>
      <use xlink:href="#DejaVuSans-50" transform="translate(0 0.015625)"/>
      <use xlink:href="#DejaVuSans-72" transform="translate(60.302734 0.015625)"/>
      <use xlink:href="#DejaVuSans-6f" transform="translate(101.416016 0.015625)"/>
      <use xlink:href="#DejaVuSans-62" transform="translate(162.597656 0.015625)"/>
      <use xlink:href="#DejaVuSans-61" transform="translate(226.074219 0.015625)"/>
      <use xlink:href="#DejaVuSans-62" transform="translate(287.353516 0.015625)"/>
      <use xlink:href="#DejaVuSans-69" transform="translate(350.830078 0.015625)"/>
      <use xlink:href="#DejaVuSans-6c" transform="translate(378.613281 0.015625)"/>
      <use xlink:href="#DejaVuSans-69" transform="translate(406.396484 0.015625)"/>
      <use xlink:href="#DejaVuSans-74" transform="translate(434.179688 0.015625)"/>
      <use xlink:href="#DejaVuSans-79" transform="translate(473.388672 0.015625)"/>
      <use xlink:href="#DejaVuSans-20" transform="translate(532.568359 0.015625)"/>
      <use xlink:href="#DejaVuSans-6f" transform="translate(564.355469 0.015625)"/>
      <use xlink:href="#DejaVuSans-66" transform="translate(625.537109 0.015625)"/>
      <use xlink:href="#DejaVuSans-20" transform="translate(660.742188 0.015625)"/>
      <use xlink:href="#DejaVuSans-64" transform="translate(692.529297 0.015625)"/>
      <use xlink:href="#DejaVuSans-65" transform="translate(756.005859 0.015625)"/>
      <use xlink:href="#DejaVuSans-74" transform="translate(817.529297 0.015625)"/>
      <use xlink:href="#DejaVuSans-65" transform="translate(856.738281 0.015625)"/>
      <use xlink:href="#DejaVuSans-63" transform="translate(918.261719 0.015625)"/>
      <use xlink:href="#DejaVuSans-74" transform="translate(973.242188 0.015625)"/>
      <use xlink:href="#DejaVuSans-69" transform="translate(1012.451172 0.015625)"/>
      <use xlink:href="#DejaVuSans-6f" transform="translate(1040.234375 0.015625)"/>
      <use xlink:href="#DejaVuSans-6e" transform="translate(1101.416016 0.015625)"/>
      <use xlink:href="#DejaVuSans-2c" transform="translate(1164.794922 0.015625)"/>
      <use xlink:href="#DejaVuSans-20" transform="translate(1196.582031 0.015625)"/>
      <use xlink:href="#DejaVuSans-Oblique-50" transform="translate(1228.369141 0.015625)"/>
      <use xlink:href="#DejaVuSans-Oblique-64" transform="translate(1288.671875 -16.390625) scale(0.7)"/>
     </g>
    </g>
   </g>
   <g id="line2d_23">
    <path d="M 67.666619 240.053523 
L 72.439318 240.053523 
L 77.212017 240.053523 
L 81.984716 240.053523 
L 86.757415 240.053523 
L 91.530114 240.053522 
L 96.302813 240.053522 
L 101.075511 240.053522 
L 105.84821 240.053522 
L 110.620909 240.053522 
L 115.393608 240.053522 
L 120.166307 240.053521 
L 124.939006 240.053521 
L 129.711705 240.05352 
L 134.484403 240.05352 
L 139.257102 240.053519 
L 144.029801 240.053518 
L 148.8025 240.053517 
L 153.575199 240.053516 
L 158.347898 240.053514 
L 163.120597 240.053512 
L 167.893295 240.053509 
L 172.665994 240.053506 
L 177.438693 240.053502 
L 182.211392 240.053497 
L 186.984091 240.053491 
L 191.75679 240.053484 
L 196.529489 240.053475 
L 201.302188 240.053464 
L 206.074886 240.05345 
L 210.847585 240.053433 
L 215.620284 240.053412 
L 220.392983 240.053386 
L 225.165682 240.053355 
L 229.938381 240.053316 
L 234.71108 240.053267 
L 239.483778 240.053208 
L 244.256477 240.053134 
L 249.029176 240.053044 
L 253.801875 240.052932 
L 258.574574 240.052795 
L 263.347273 240.052625 
L 268.119972 240.052416 
L 272.89267 240.052159 
L 277.665369 240.051841 
L 282.438068 240.051449 
L 287.210767 240.050966 
L 291.983466 240.050371 
L 296.756165 240.049637 
L 301.528864 240.048732 
L 306.301563 240.047617 
L 311.074261 240.046242 
L 315.84696 240.044546 
L 320.619659 240.042456 
L 325.392358 240.03988 
L 330.165057 240.036703 
L 334.937756 240.032786 
L 339.710455 240.027958 
L 344.483153 240.022005 
L 349.255852 240.014666 
L 354.028551 240.005618 
L 358.80125 239.994464 
L 363.573949 239.980712 
L 368.346648 239.963759 
L 373.119347 239.942857 
L 377.892045 239.917089 
L 382.664744 239.885321 
L 387.437443 239.846156 
L 392.210142 239.797871 
L 396.982841 239.738343 
L 401.75554 239.664955 
L 406.528239 239.574478 
L 411.300938 239.462934 
L 416.073636 239.325417 
L 420.846335 239.15588 
L 425.619034 238.946867 
L 430.391733 238.689186 
L 435.164432 238.371505 
L 439.937131 237.979852 
L 444.70983 237.497005 
L 449.482528 236.901728 
L 454.255227 236.167843 
L 459.027926 235.263075 
L 463.800625 234.147635 
L 468.573324 232.772468 
L 473.346023 231.077099 
L 478.118722 228.986967 
L 482.89142 226.410156 
L 487.664119 223.233342 
L 492.436818 219.316818 
L 497.209517 214.488344 
L 501.982216 208.535576 
L 506.754915 201.196725 
L 511.527614 192.149046 
L 516.300313 180.994645 
L 521.073011 167.242977 
L 525.84571 150.289279 
L 530.618409 129.387968 
L 535.391108 103.619854 
L 540.163807 71.851719 
L 544.936506 32.686477 
" clip-path="url(#p1446742628)" style="fill: none; stroke: #1f77b4; stroke-linecap: square"/>
   </g>
   <g id="line2d_24">
    <path d="M 67.666619 240.053522 
L 72.439318 240.053522 
L 77.212017 240.053522 
L 81.984716 240.053522 
L 86.757415 240.053522 
L 91.530114 240.053521 
L 96.302813 240.053521 
L 101.075511 240.053521 
L 105.84821 240.05352 
L 110.620909 240.05352 
L 115.393608 240.053519 
L 120.166307 240.053518 
L 124.939006 240.053517 
L 129.711705 240.053515 
L 134.484403 240.053514 
L 139.257102 240.053512 
L 144.029801 240.053509 
L 148.8025 240.053506 
L 153.575199 240.053502 
L 158.347898 240.053498 
L 163.120597 240.053492 
L 167.893295 240.053485 
L 172.665994 240.053477 
L 177.438693 240.053466 
L 182.211392 240.053453 
L 186.984091 240.053438 
L 191.75679 240.053419 
L 196.529489 240.053395 
L 201.302188 240.053366 
L 206.074886 240.053331 
L 210.847585 240.053288 
L 215.620284 240.053235 
L 220.392983 240.05317 
L 225.165682 240.053091 
L 229.938381 240.052994 
L 234.71108 240.052875 
L 239.483778 240.05273 
L 244.256477 240.052552 
L 249.029176 240.052334 
L 253.801875 240.052068 
L 258.574574 240.051742 
L 263.347273 240.051343 
L 268.119972 240.050854 
L 272.89267 240.050257 
L 277.665369 240.049527 
L 282.438068 240.048633 
L 287.210767 240.04754 
L 291.983466 240.046204 
L 296.756165 240.04457 
L 301.528864 240.042572 
L 306.301563 240.04013 
L 311.074261 240.037145 
L 315.84696 240.033498 
L 320.619659 240.02904 
L 325.392358 240.023595 
L 330.165057 240.016942 
L 334.937756 240.008817 
L 339.710455 239.998893 
L 344.483153 239.986777 
L 349.255852 239.971985 
L 354.028551 239.953929 
L 358.80125 239.931894 
L 363.573949 239.905007 
L 368.346648 239.872207 
L 373.119347 239.832201 
L 377.892045 239.783416 
L 382.664744 239.72394 
L 387.437443 239.651447 
L 392.210142 239.563109 
L 396.982841 239.455491 
L 401.75554 239.324421 
L 406.528239 239.164834 
L 411.300938 238.970584 
L 416.073636 238.734219 
L 420.846335 238.446705 
L 425.619034 238.097103 
L 430.391733 237.672167 
L 435.164432 237.155877 
L 439.937131 236.528874 
L 444.70983 235.767776 
L 449.482528 234.84438 
L 454.255227 233.7247 
L 459.027926 232.367829 
L 463.800625 230.724604 
L 468.573324 228.736031 
L 473.346023 226.331442 
L 478.118722 223.426376 
L 482.89142 219.920125 
L 487.664119 215.692983 
L 492.436818 210.603169 
L 497.209517 204.483527 
L 501.982216 197.138129 
L 506.754915 188.339083 
L 511.527614 177.824121 
L 516.300313 165.29603 
L 521.073011 150.42605 
L 525.84571 132.865561 
L 530.618409 112.275997 
L 535.391108 88.403915 
L 540.163807 61.301237 
L 544.936506 32.686477 
" clip-path="url(#p1446742628)" style="fill: none; stroke: #ff7f0e; stroke-linecap: square"/>
   </g>
   <g id="line2d_25">
    <path d="M 67.666619 240.053504 
L 72.439318 240.0535 
L 77.212017 240.053496 
L 81.984716 240.05349 
L 86.757415 240.053484 
L 91.530114 240.053476 
L 96.302813 240.053466 
L 101.075511 240.053455 
L 105.84821 240.053441 
L 110.620909 240.053425 
L 115.393608 240.053405 
L 120.166307 240.053381 
L 124.939006 240.053353 
L 129.711705 240.053319 
L 134.484403 240.053278 
L 139.257102 240.05323 
L 144.029801 240.053171 
L 148.8025 240.053101 
L 153.575199 240.053017 
L 158.347898 240.052917 
L 163.120597 240.052797 
L 167.893295 240.052653 
L 172.665994 240.052481 
L 177.438693 240.052275 
L 182.211392 240.052028 
L 186.984091 240.051734 
L 191.75679 240.051382 
L 196.529489 240.050961 
L 201.302188 240.050458 
L 206.074886 240.049857 
L 210.847585 240.04914 
L 215.620284 240.048284 
L 220.392983 240.047262 
L 225.165682 240.046043 
L 229.938381 240.044589 
L 234.71108 240.042856 
L 239.483778 240.040789 
L 244.256477 240.038327 
L 249.029176 240.035393 
L 253.801875 240.031901 
L 258.574574 240.027743 
L 263.347273 240.022796 
L 268.119972 240.016911 
L 272.89267 240.009913 
L 277.665369 240.001596 
L 282.438068 239.991715 
L 287.210767 239.97998 
L 291.983466 239.96605 
L 296.756165 239.949521 
L 301.528864 239.929917 
L 306.301563 239.906676 
L 311.074261 239.879139 
L 315.84696 239.846526 
L 320.619659 239.807922 
L 325.392358 239.762251 
L 330.165057 239.708248 
L 334.937756 239.644431 
L 339.710455 239.569061 
L 344.483153 239.480101 
L 349.255852 239.375166 
L 354.028551 239.251472 
L 358.80125 239.105764 
L 363.573949 238.934248 
L 368.346648 238.732504 
L 373.119347 238.49539 
L 377.892045 238.216933 
L 382.664744 237.890203 
L 387.437443 237.507175 
L 392.210142 237.058569 
L 396.982841 236.533676 
L 401.75554 235.92016 
L 406.528239 235.203842 
L 411.300938 234.368461 
L 416.073636 233.395418 
L 420.846335 232.263495 
L 425.619034 230.948561 
L 430.391733 229.423265 
L 435.164432 227.656724 
L 439.937131 225.614209 
L 444.70983 223.256859 
L 449.482528 220.541423 
L 454.255227 217.420075 
L 459.027926 213.840318 
L 463.800625 209.745045 
L 468.573324 205.072799 
L 473.346023 199.758335 
L 478.118722 193.733564 
L 482.89142 186.929052 
L 487.664119 179.276227 
L 492.436818 170.710553 
L 497.209517 161.175991 
L 501.982216 150.631181 
L 506.754915 139.057943 
L 511.527614 126.472972 
L 516.300313 112.944036 
L 521.073011 98.612809 
L 525.84571 83.728217 
L 530.618409 68.698433 
L 535.391108 54.182635 
L 540.163807 41.299553 
L 544.936506 32.686477 
" clip-path="url(#p1446742628)" style="fill: none; stroke: #2ca02c; stroke-linecap: square"/>
   </g>
   <g id="line2d_26">
    <path d="M 67.666619 239.908211 
L 72.439318 239.889955 
L 77.212017 239.869492 
L 81.984716 239.846569 
L 86.757415 239.820902 
L 91.530114 239.792181 
L 96.302813 239.760061 
L 101.075511 239.724159 
L 105.84821 239.684055 
L 110.620909 239.639285 
L 115.393608 239.589335 
L 120.166307 239.533641 
L 124.939006 239.471583 
L 129.711705 239.402478 
L 134.484403 239.325577 
L 139.257102 239.240057 
L 144.029801 239.145017 
L 148.8025 239.039473 
L 153.575199 238.922345 
L 158.347898 238.792456 
L 163.120597 238.648524 
L 167.893295 238.489149 
L 172.665994 238.312809 
L 177.438693 238.117853 
L 182.211392 237.902487 
L 186.984091 237.664767 
L 191.75679 237.402594 
L 196.529489 237.113698 
L 201.302188 236.79563 
L 206.074886 236.445758 
L 210.847585 236.061249 
L 215.620284 235.639068 
L 220.392983 235.175965 
L 225.165682 234.668465 
L 229.938381 234.112868 
L 234.71108 233.505233 
L 239.483778 232.841382 
L 244.256477 232.116888 
L 249.029176 231.327081 
L 253.801875 230.467038 
L 258.574574 229.531597 
L 263.347273 228.515352 
L 268.119972 227.412666 
L 272.89267 226.217683 
L 277.665369 224.924339 
L 282.438068 223.52639 
L 287.210767 222.017428 
L 291.983466 220.390918 
L 296.756165 218.64023 
L 301.528864 216.758684 
L 306.301563 214.739598 
L 311.074261 212.576343 
L 315.84696 210.262411 
L 320.619659 207.791482 
L 325.392358 205.157508 
L 330.165057 202.354799 
L 334.937756 199.378122 
L 339.710455 196.222804 
L 344.483153 192.884847 
L 349.255852 189.361047 
L 354.028551 185.649126 
L 358.80125 181.747857 
L 363.573949 177.657213 
L 368.346648 173.378501 
L 373.119347 168.914505 
L 377.892045 164.269633 
L 382.664744 159.450047 
L 387.437443 154.4638 
L 392.210142 149.320952 
L 396.982841 144.033678 
L 401.75554 138.616351 
L 406.528239 133.08561 
L 411.300938 127.460385 
L 416.073636 121.761902 
L 420.846335 116.01364 
L 425.619034 110.241238 
L 430.391733 104.472359 
L 435.164432 98.73649 
L 439.937131 93.064682 
L 444.70983 87.489221 
L 449.482528 82.043232 
L 454.255227 76.760209 
L 459.027926 71.673475 
L 463.800625 66.81557 
L 468.573324 62.217579 
L 473.346023 57.908403 
L 478.118722 53.913989 
L 482.89142 50.256525 
L 487.664119 46.953645 
L 492.436818 44.017642 
L 497.209517 41.454746 
L 501.982216 39.264482 
L 506.754915 37.439173 
L 511.527614 35.963625 
L 516.300313 34.815037 
L 521.073011 33.963221 
L 525.84571 33.371152 
L 530.618409 32.99593 
L 535.391108 32.790185 
L 540.163807 32.703917 
L 544.936506 32.686477 
" clip-path="url(#p1446742628)" style="fill: none; stroke: #d62728; stroke-linecap: square"/>
   </g>
   <g id="line2d_27">
    <path d="M 67.666619 98.772343 
L 72.439318 96.251162 
L 77.212017 93.760156 
L 81.984716 91.301997 
L 86.757415 88.879286 
L 91.530114 86.494549 
L 96.302813 84.150226 
L 101.075511 81.848661 
L 105.84821 79.592094 
L 110.620909 77.382654 
L 115.393608 75.222348 
L 120.166307 73.113055 
L 124.939006 71.056519 
L 129.711705 69.054344 
L 134.484403 67.107983 
L 139.257102 65.218741 
L 144.029801 63.387764 
L 148.8025 61.616034 
L 153.575199 59.904376 
L 158.347898 58.253443 
L 163.120597 56.663724 
L 167.893295 55.13554 
L 172.665994 53.669045 
L 177.438693 52.264227 
L 182.211392 50.920911 
L 186.984091 49.638759 
L 191.75679 48.41728 
L 196.529489 47.255828 
L 201.302188 46.153612 
L 206.074886 45.109699 
L 210.847585 44.123024 
L 215.620284 43.192396 
L 220.392983 42.316505 
L 225.165682 41.493934 
L 229.938381 40.723163 
L 234.71108 40.002587 
L 239.483778 39.330515 
L 244.256477 38.705191 
L 249.029176 38.124797 
L 253.801875 37.587467 
L 258.574574 37.091295 
L 263.347273 36.634348 
L 268.119972 36.214677 
L 272.89267 35.830322 
L 277.665369 35.479329 
L 282.438068 35.159753 
L 287.210767 34.86967 
L 291.983466 34.607188 
L 296.756165 34.370449 
L 301.528864 34.157641 
L 306.301563 33.967004 
L 311.074261 33.796835 
L 315.84696 33.645493 
L 320.619659 33.511406 
L 325.392358 33.393072 
L 330.165057 33.289064 
L 334.937756 33.198031 
L 339.710455 33.118702 
L 344.483153 33.049883 
L 349.255852 32.990463 
L 354.028551 32.939407 
L 358.80125 32.89576 
L 363.573949 32.858644 
L 368.346648 32.827255 
L 373.119347 32.800862 
L 377.892045 32.778802 
L 382.664744 32.76048 
L 387.437443 32.745362 
L 392.210142 32.732973 
L 396.982841 32.722895 
L 401.75554 32.714759 
L 406.528239 32.708243 
L 411.300938 32.703069 
L 416.073636 32.698997 
L 420.846335 32.695823 
L 425.619034 32.693374 
L 430.391733 32.691505 
L 435.164432 32.690094 
L 439.937131 32.689042 
L 444.70983 32.688269 
L 449.482528 32.687708 
L 454.255227 32.687308 
L 459.027926 32.687027 
L 463.800625 32.686833 
L 468.573324 32.686702 
L 473.346023 32.686616 
L 478.118722 32.68656 
L 482.89142 32.686525 
L 487.664119 32.686504 
L 492.436818 32.686492 
L 497.209517 32.686484 
L 501.982216 32.686481 
L 506.754915 32.686479 
L 511.527614 32.686478 
L 516.300313 32.686477 
L 521.073011 32.686477 
L 525.84571 32.686477 
L 530.618409 32.686477 
L 535.391108 32.686477 
L 540.163807 32.686477 
L 544.936506 32.686477 
" clip-path="url(#p1446742628)" style="fill: none; stroke: #9467bd; stroke-linecap: square"/>
   </g>
   <g id="patch_3">
    <path d="M 43.803125 250.421875 
L 43.803125 22.318125 
" style="fill: none; stroke: #000000; stroke-width: 0.8; stroke-linejoin: miter; stroke-linecap: square"/>
   </g>
   <g id="patch_4">
    <path d="M 568.8 250.421875 
L 568.8 22.318125 
" style="fill: none; stroke: #000000; stroke-width: 0.8; stroke-linejoin: miter; stroke-linecap: square"/>
   </g>
   <g id="patch_5">
    <path d="M 43.803125 250.421875 
L 568.8 250.421875 
" style="fill: none; stroke: #000000; stroke-width: 0.8; stroke-linejoin: miter; stroke-linecap: square"/>
   </g>
   <g id="patch_6">
    <path d="M 43.803125 22.318125 
L 568.8 22.318125 
" style="fill: none; stroke: #000000; stroke-width: 0.8; stroke-linejoin: miter; stroke-linecap: square"/>
   </g>
   <g id="text_14">
    <!-- Receiver operating characteristic (ROC) curve -->
    <g transform="translate(168.352188 16.318125) scale(0.12 -0.12)">
     <defs>
      <path id="DejaVuSans-52" d="M 2841 2188 
Q 3044 2119 3236 1894 
Q 3428 1669 3622 1275 
L 4263 0 
L 3584 0 
L 2988 1197 
Q 2756 1666 2539 1819 
Q 2322 1972 1947 1972 
L 1259 1972 
L 1259 0 
L 628 0 
L 628 4666 
L 2053 4666 
Q 2853 4666 3247 4331 
Q 3641 3997 3641 3322 
Q 3641 2881 3436 2590 
Q 3231 2300 2841 2188 
z
M 1259 4147 
L 1259 2491 
L 2053 2491 
Q 2509 2491 2742 2702 
Q 2975 2913 2975 3322 
Q 2975 3731 2742 3939 
Q 2509 4147 2053 4147 
L 1259 4147 
z
" transform="scale(0.015625)"/>
      <path id="DejaVuSans-76" d="M 191 3500 
L 800 3500 
L 1894 563 
L 2988 3500 
L 3597 3500 
L 2284 0 
L 1503 0 
L 191 3500 
z
" transform="scale(0.015625)"/>
      <path id="DejaVuSans-70" d="M 1159 525 
L 1159 -1331 
L 581 -1331 
L 581 3500 
L 1159 3500 
L 1159 2969 
Q 1341 3281 1617 3432 
Q 1894 3584 2278 3584 
Q 2916 3584 3314 3078 
Q 3713 2572 3713 1747 
Q 3713 922 3314 415 
Q 2916 -91 2278 -91 
Q 1894 -91 1617 61 
Q 1341 213 1159 525 
z
M 3116 1747 
Q 3116 2381 2855 2742 
Q 2594 3103 2138 3103 
Q 1681 3103 1420 2742 
Q 1159 2381 1159 1747 
Q 1159 1113 1420 752 
Q 1681 391 2138 391 
Q 2594 391 2855 752 
Q 3116 1113 3116 1747 
z
" transform="scale(0.015625)"/>
      <path id="DejaVuSans-67" d="M 2906 1791 
Q 2906 2416 2648 2759 
Q 2391 3103 1925 3103 
Q 1463 3103 1205 2759 
Q 947 2416 947 1791 
Q 947 1169 1205 825 
Q 1463 481 1925 481 
Q 2391 481 2648 825 
Q 2906 1169 2906 1791 
z
M 3481 434 
Q 3481 -459 3084 -895 
Q 2688 -1331 1869 -1331 
Q 1566 -1331 1297 -1286 
Q 1028 -1241 775 -1147 
L 775 -588 
Q 1028 -725 1275 -790 
Q 1522 -856 1778 -856 
Q 2344 -856 2625 -561 
Q 2906 -266 2906 331 
L 2906 616 
Q 2728 306 2450 153 
Q 2172 0 1784 0 
Q 1141 0 747 490 
Q 353 981 353 1791 
Q 353 2603 747 3093 
Q 1141 3584 1784 3584 
Q 2172 3584 2450 3431 
Q 2728 3278 2906 2969 
L 2906 3500 
L 3481 3500 
L 3481 434 
z
" transform="scale(0.015625)"/>
      <path id="DejaVuSans-68" d="M 3513 2113 
L 3513 0 
L 2938 0 
L 2938 2094 
Q 2938 2591 2744 2837 
Q 2550 3084 2163 3084 
Q 1697 3084 1428 2787 
Q 1159 2491 1159 1978 
L 1159 0 
L 581 0 
L 581 4863 
L 1159 4863 
L 1159 2956 
Q 1366 3272 1645 3428 
Q 1925 3584 2291 3584 
Q 2894 3584 3203 3211 
Q 3513 2838 3513 2113 
z
" transform="scale(0.015625)"/>
      <path id="DejaVuSans-28" d="M 1984 4856 
Q 1566 4138 1362 3434 
Q 1159 2731 1159 2009 
Q 1159 1288 1364 580 
Q 1569 -128 1984 -844 
L 1484 -844 
Q 1016 -109 783 600 
Q 550 1309 550 2009 
Q 550 2706 781 3412 
Q 1013 4119 1484 4856 
L 1984 4856 
z
" transform="scale(0.015625)"/>
      <path id="DejaVuSans-4f" d="M 2522 4238 
Q 1834 4238 1429 3725 
Q 1025 3213 1025 2328 
Q 1025 1447 1429 934 
Q 1834 422 2522 422 
Q 3209 422 3611 934 
Q 4013 1447 4013 2328 
Q 4013 3213 3611 3725 
Q 3209 4238 2522 4238 
z
M 2522 4750 
Q 3503 4750 4090 4092 
Q 4678 3434 4678 2328 
Q 4678 1225 4090 567 
Q 3503 -91 2522 -91 
Q 1538 -91 948 565 
Q 359 1222 359 2328 
Q 359 3434 948 4092 
Q 1538 4750 2522 4750 
z
" transform="scale(0.015625)"/>
      <path id="DejaVuSans-43" d="M 4122 4306 
L 4122 3641 
Q 3803 3938 3442 4084 
Q 3081 4231 2675 4231 
Q 1875 4231 1450 3742 
Q 1025 3253 1025 2328 
Q 1025 1406 1450 917 
Q 1875 428 2675 428 
Q 3081 428 3442 575 
Q 3803 722 4122 1019 
L 4122 359 
Q 3791 134 3420 21 
Q 3050 -91 2638 -91 
Q 1578 -91 968 557 
Q 359 1206 359 2328 
Q 359 3453 968 4101 
Q 1578 4750 2638 4750 
Q 3056 4750 3426 4639 
Q 3797 4528 4122 4306 
z
" transform="scale(0.015625)"/>
      <path id="DejaVuSans-29" d="M 513 4856 
L 1013 4856 
Q 1481 4119 1714 3412 
Q 1947 2706 1947 2009 
Q 1947 1309 1714 600 
Q 1481 -109 1013 -844 
L 513 -844 
Q 928 -128 1133 580 
Q 1338 1288 1338 2009 
Q 1338 2731 1133 3434 
Q 928 4138 513 4856 
z
" transform="scale(0.015625)"/>
      <path id="DejaVuSans-75" d="M 544 1381 
L 544 3500 
L 1119 3500 
L 1119 1403 
Q 1119 906 1312 657 
Q 1506 409 1894 409 
Q 2359 409 2629 706 
Q 2900 1003 2900 1516 
L 2900 3500 
L 3475 3500 
L 3475 0 
L 2900 0 
L 2900 538 
Q 2691 219 2414 64 
Q 2138 -91 1772 -91 
Q 1169 -91 856 284 
Q 544 659 544 1381 
z
M 1991 3584 
L 1991 3584 
z
" transform="scale(0.015625)"/>
     </defs>
     <use xlink:href="#DejaVuSans-52"/>
     <use xlink:href="#DejaVuSans-65" transform="translate(64.982422 0)"/>
     <use xlink:href="#DejaVuSans-63" transform="translate(126.505859 0)"/>
     <use xlink:href="#DejaVuSans-65" transform="translate(181.486328 0)"/>
     <use xlink:href="#DejaVuSans-69" transform="translate(243.009766 0)"/>
     <use xlink:href="#DejaVuSans-76" transform="translate(270.792969 0)"/>
     <use xlink:href="#DejaVuSans-65" transform="translate(329.972656 0)"/>
     <use xlink:href="#DejaVuSans-72" transform="translate(391.496094 0)"/>
     <use xlink:href="#DejaVuSans-20" transform="translate(432.609375 0)"/>
     <use xlink:href="#DejaVuSans-6f" transform="translate(464.396484 0)"/>
     <use xlink:href="#DejaVuSans-70" transform="translate(525.578125 0)"/>
     <use xlink:href="#DejaVuSans-65" transform="translate(589.054688 0)"/>
     <use xlink:href="#DejaVuSans-72" transform="translate(650.578125 0)"/>
     <use xlink:href="#DejaVuSans-61" transform="translate(691.691406 0)"/>
     <use xlink:href="#DejaVuSans-74" transform="translate(752.970703 0)"/>
     <use xlink:href="#DejaVuSans-69" transform="translate(792.179688 0)"/>
     <use xlink:href="#DejaVuSans-6e" transform="translate(819.962891 0)"/>
     <use xlink:href="#DejaVuSans-67" transform="translate(883.341797 0)"/>
     <use xlink:href="#DejaVuSans-20" transform="translate(946.818359 0)"/>
     <use xlink:href="#DejaVuSans-63" transform="translate(978.605469 0)"/>
     <use xlink:href="#DejaVuSans-68" transform="translate(1033.585938 0)"/>
     <use xlink:href="#DejaVuSans-61" transform="translate(1096.964844 0)"/>
     <use xlink:href="#DejaVuSans-72" transform="translate(1158.244141 0)"/>
     <use xlink:href="#DejaVuSans-61" transform="translate(1199.357422 0)"/>
     <use xlink:href="#DejaVuSans-63" transform="translate(1260.636719 0)"/>
     <use xlink:href="#DejaVuSans-74" transform="translate(1315.617188 0)"/>
     <use xlink:href="#DejaVuSans-65" transform="translate(1354.826172 0)"/>
     <use xlink:href="#DejaVuSans-72" transform="translate(1416.349609 0)"/>
     <use xlink:href="#DejaVuSans-69" transform="translate(1457.462891 0)"/>
     <use xlink:href="#DejaVuSans-73" transform="translate(1485.246094 0)"/>
     <use xlink:href="#DejaVuSans-74" transform="translate(1537.345703 0)"/>
     <use xlink:href="#DejaVuSans-69" transform="translate(1576.554688 0)"/>
     <use xlink:href="#DejaVuSans-63" transform="translate(1604.337891 0)"/>
     <use xlink:href="#DejaVuSans-20" transform="translate(1659.318359 0)"/>
     <use xlink:href="#DejaVuSans-28" transform="translate(1691.105469 0)"/>
     <use xlink:href="#DejaVuSans-52" transform="translate(1730.119141 0)"/>
     <use xlink:href="#DejaVuSans-4f" transform="translate(1799.601562 0)"/>
     <use xlink:href="#DejaVuSans-43" transform="translate(1878.3125 0)"/>
     <use xlink:href="#DejaVuSans-29" transform="translate(1948.136719 0)"/>
     <use xlink:href="#DejaVuSans-20" transform="translate(1987.150391 0)"/>
     <use xlink:href="#DejaVuSans-63" transform="translate(2018.9375 0)"/>
     <use xlink:href="#DejaVuSans-75" transform="translate(2073.917969 0)"/>
     <use xlink:href="#DejaVuSans-72" transform="translate(2137.296875 0)"/>
     <use xlink:href="#DejaVuSans-76" transform="translate(2178.410156 0)"/>
     <use xlink:href="#DejaVuSans-65" transform="translate(2237.589844 0)"/>
    </g>
   </g>
   <g id="legend_1">
    <g id="patch_7">
     <path d="M 264.878906 174.565313 
L 347.724219 174.565313 
Q 349.724219 174.565313 349.724219 172.565313 
L 349.724219 100.174688 
Q 349.724219 98.174688 347.724219 98.174688 
L 264.878906 98.174688 
Q 262.878906 98.174688 262.878906 100.174688 
L 262.878906 172.565313 
Q 262.878906 174.565313 264.878906 174.565313 
z
" style="fill: #ffffff; opacity: 0.8; stroke: #cccccc; stroke-linejoin: miter"/>
    </g>
    <g id="line2d_28">
     <path d="M 266.878906 106.273125 
L 276.878906 106.273125 
L 286.878906 106.273125 
" style="fill: none; stroke: #1f77b4; stroke-linecap: square"/>
    </g>
    <g id="text_15">
     <!-- N = 1 -->
     <g transform="translate(294.878906 109.773125) scale(0.1 -0.1)">
      <defs>
       <path id="DejaVuSans-4e" d="M 628 4666 
L 1478 4666 
L 3547 763 
L 3547 4666 
L 4159 4666 
L 4159 0 
L 3309 0 
L 1241 3903 
L 1241 0 
L 628 0 
L 628 4666 
z
" transform="scale(0.015625)"/>
       <path id="DejaVuSans-3d" d="M 678 2906 
L 4684 2906 
L 4684 2381 
L 678 2381 
L 678 2906 
z
M 678 1631 
L 4684 1631 
L 4684 1100 
L 678 1100 
L 678 1631 
z
" transform="scale(0.015625)"/>
      </defs>
      <use xlink:href="#DejaVuSans-4e"/>
      <use xlink:href="#DejaVuSans-20" transform="translate(74.804688 0)"/>
      <use xlink:href="#DejaVuSans-3d" transform="translate(106.591797 0)"/>
      <use xlink:href="#DejaVuSans-20" transform="translate(190.380859 0)"/>
      <use xlink:href="#DejaVuSans-31" transform="translate(222.167969 0)"/>
     </g>
    </g>
    <g id="line2d_29">
     <path d="M 266.878906 120.95125 
L 276.878906 120.95125 
L 286.878906 120.95125 
" style="fill: none; stroke: #ff7f0e; stroke-linecap: square"/>
    </g>
    <g id="text_16">
     <!-- N = 10 -->
     <g transform="translate(294.878906 124.45125) scale(0.1 -0.1)">
      <use xlink:href="#DejaVuSans-4e"/>
      <use xlink:href="#DejaVuSans-20" transform="translate(74.804688 0)"/>
      <use xlink:href="#DejaVuSans-3d" transform="translate(106.591797 0)"/>
      <use xlink:href="#DejaVuSans-20" transform="translate(190.380859 0)"/>
      <use xlink:href="#DejaVuSans-31" transform="translate(222.167969 0)"/>
      <use xlink:href="#DejaVuSans-30" transform="translate(285.791016 0)"/>
     </g>
    </g>
    <g id="line2d_30">
     <path d="M 266.878906 135.629375 
L 276.878906 135.629375 
L 286.878906 135.629375 
" style="fill: none; stroke: #2ca02c; stroke-linecap: square"/>
    </g>
    <g id="text_17">
     <!-- N = 100 -->
     <g transform="translate(294.878906 139.129375) scale(0.1 -0.1)">
      <use xlink:href="#DejaVuSans-4e"/>
      <use xlink:href="#DejaVuSans-20" transform="translate(74.804688 0)"/>
      <use xlink:href="#DejaVuSans-3d" transform="translate(106.591797 0)"/>
      <use xlink:href="#DejaVuSans-20" transform="translate(190.380859 0)"/>
      <use xlink:href="#DejaVuSans-31" transform="translate(222.167969 0)"/>
      <use xlink:href="#DejaVuSans-30" transform="translate(285.791016 0)"/>
      <use xlink:href="#DejaVuSans-30" transform="translate(349.414062 0)"/>
     </g>
    </g>
    <g id="line2d_31">
     <path d="M 266.878906 150.3075 
L 276.878906 150.3075 
L 286.878906 150.3075 
" style="fill: none; stroke: #d62728; stroke-linecap: square"/>
    </g>
    <g id="text_18">
     <!-- N = 1,000 -->
     <g transform="translate(294.878906 153.8075) scale(0.1 -0.1)">
      <use xlink:href="#DejaVuSans-4e"/>
      <use xlink:href="#DejaVuSans-20" transform="translate(74.804688 0)"/>
      <use xlink:href="#DejaVuSans-3d" transform="translate(106.591797 0)"/>
      <use xlink:href="#DejaVuSans-20" transform="translate(190.380859 0)"/>
      <use xlink:href="#DejaVuSans-31" transform="translate(222.167969 0)"/>
      <use xlink:href="#DejaVuSans-2c" transform="translate(285.791016 0)"/>
      <use xlink:href="#DejaVuSans-30" transform="translate(317.578125 0)"/>
      <use xlink:href="#DejaVuSans-30" transform="translate(381.201172 0)"/>
      <use xlink:href="#DejaVuSans-30" transform="translate(444.824219 0)"/>
     </g>
    </g>
    <g id="line2d_32">
     <path d="M 266.878906 164.985625 
L 276.878906 164.985625 
L 286.878906 164.985625 
" style="fill: none; stroke: #9467bd; stroke-linecap: square"/>
    </g>
    <g id="text_19">
     <!-- N = 5,000 -->
     <g transform="translate(294.878906 168.485625) scale(0.1 -0.1)">
      <use xlink:href="#DejaVuSans-4e"/>
      <use xlink:href="#DejaVuSans-20" transform="translate(74.804688 0)"/>
      <use xlink:href="#DejaVuSans-3d" transform="translate(106.591797 0)"/>
      <use xlink:href="#DejaVuSans-20" transform="translate(190.380859 0)"/>
      <use xlink:href="#DejaVuSans-35" transform="translate(222.167969 0)"/>
      <use xlink:href="#DejaVuSans-2c" transform="translate(285.791016 0)"/>
      <use xlink:href="#DejaVuSans-30" transform="translate(317.578125 0)"/>
      <use xlink:href="#DejaVuSans-30" transform="translate(381.201172 0)"/>
      <use xlink:href="#DejaVuSans-30" transform="translate(444.824219 0)"/>
     </g>
    </g>
   </g>
  </g>
 </g>
 <defs>
  <clipPath id="p1446742628">
   <rect x="43.803125" y="22.318125" width="524.996875" height="228.10375"/>
  </clipPath>
 </defs>
</svg>
