<?xml version="1.0" encoding="utf-8" standalone="no"?>
<!DOCTYPE svg PUBLIC "-//W3C//DTD SVG 1.1//EN"
  "http://www.w3.org/Graphics/SVG/1.1/DTD/svg11.dtd">
<svg xmlns:xlink="http://www.w3.org/1999/xlink" width="576pt" height="288pt" viewBox="0 0 576 288" xmlns="http://www.w3.org/2000/svg" version="1.1">
 <metadata>
  <rdf:RDF xmlns:dc="http://purl.org/dc/elements/1.1/" xmlns:cc="http://creativecommons.org/ns#" xmlns:rdf="http://www.w3.org/1999/02/22-rdf-syntax-ns#">
   <cc:Work>
    <dc:type rdf:resource="http://purl.org/dc/dcmitype/StillImage"/>
    <dc:date>2025-05-12T21:34:12.578409</dc:date>
    <dc:format>image/svg+xml</dc:format>
    <dc:creator>
     <cc:Agent>
      <dc:title>Matplotlib v3.10.3, https://matplotlib.org/</dc:title>
     </cc:Agent>
    </dc:creator>
   </cc:Work>
  </rdf:RDF>
 </metadata>
 <defs>
  <style type="text/css">*{stroke-linejoin: round; stroke-linecap: butt}</style>
 </defs>
 <g id="figure_1">
  <g id="patch_1">
   <path d="M 0 288 
L 576 288 
L 576 0 
L 0 0 
z
" style="fill: #ffffff"/>
  </g>
  <g id="axes_1">
   <g id="patch_2">
    <path d="M 58.523438 250.44375 
L 568.8 250.44375 
L 568.8 22.318125 
L 58.523438 22.318125 
z
" style="fill: #ffffff"/>
   </g>
   <g id="matplotlib.axis_1">
    <g id="xtick_1">
     <g id="line2d_1">
      <path d="M 81.717827 250.44375 
L 81.717827 22.318125 
" clip-path="url(#p91f2a8408b)" style="fill: none; stroke-dasharray: 2.96,1.28; stroke-dashoffset: 0; stroke: #b0b0b0; stroke-opacity: 0.8; stroke-width: 0.8"/>
     </g>
     <g id="line2d_2">
      <defs>
       <path id="mcf5f255aea" d="M 0 0 
L 0 3.5 
" style="stroke: #000000; stroke-width: 0.8"/>
      </defs>
      <g>
       <use xlink:href="#mcf5f255aea" x="81.717827" y="250.44375" style="stroke: #000000; stroke-width: 0.8"/>
      </g>
     </g>
     <g id="text_1">
      <!-- 0 -->
      <g transform="translate(78.536577 265.042188) scale(0.1 -0.1)">
       <defs>
        <path id="DejaVuSans-30" d="M 2034 4250 
Q 1547 4250 1301 3770 
Q 1056 3291 1056 2328 
Q 1056 1369 1301 889 
Q 1547 409 2034 409 
Q 2525 409 2770 889 
Q 3016 1369 3016 2328 
Q 3016 3291 2770 3770 
Q 2525 4250 2034 4250 
z
M 2034 4750 
Q 2819 4750 3233 4129 
Q 3647 3509 3647 2328 
Q 3647 1150 3233 529 
Q 2819 -91 2034 -91 
Q 1250 -91 836 529 
Q 422 1150 422 2328 
Q 422 3509 836 4129 
Q 1250 4750 2034 4750 
z
" transform="scale(0.015625)"/>
       </defs>
       <use xlink:href="#DejaVuSans-30"/>
      </g>
     </g>
    </g>
    <g id="xtick_2">
     <g id="line2d_3">
      <path d="M 141.19062 250.44375 
L 141.19062 22.318125 
" clip-path="url(#p91f2a8408b)" style="fill: none; stroke-dasharray: 2.96,1.28; stroke-dashoffset: 0; stroke: #b0b0b0; stroke-opacity: 0.8; stroke-width: 0.8"/>
     </g>
     <g id="line2d_4">
      <g>
       <use xlink:href="#mcf5f255aea" x="141.19062" y="250.44375" style="stroke: #000000; stroke-width: 0.8"/>
      </g>
     </g>
     <g id="text_2">
      <!-- 5 -->
      <g transform="translate(138.00937 265.042188) scale(0.1 -0.1)">
       <defs>
        <path id="DejaVuSans-35" d="M 691 4666 
L 3169 4666 
L 3169 4134 
L 1269 4134 
L 1269 2991 
Q 1406 3038 1543 3061 
Q 1681 3084 1819 3084 
Q 2600 3084 3056 2656 
Q 3513 2228 3513 1497 
Q 3513 744 3044 326 
Q 2575 -91 1722 -91 
Q 1428 -91 1123 -41 
Q 819 9 494 109 
L 494 744 
Q 775 591 1075 516 
Q 1375 441 1709 441 
Q 2250 441 2565 725 
Q 2881 1009 2881 1497 
Q 2881 1984 2565 2268 
Q 2250 2553 1709 2553 
Q 1456 2553 1204 2497 
Q 953 2441 691 2322 
L 691 4666 
z
" transform="scale(0.015625)"/>
       </defs>
       <use xlink:href="#DejaVuSans-35"/>
      </g>
     </g>
    </g>
    <g id="xtick_3">
     <g id="line2d_5">
      <path d="M 200.663412 250.44375 
L 200.663412 22.318125 
" clip-path="url(#p91f2a8408b)" style="fill: none; stroke-dasharray: 2.96,1.28; stroke-dashoffset: 0; stroke: #b0b0b0; stroke-opacity: 0.8; stroke-width: 0.8"/>
     </g>
     <g id="line2d_6">
      <g>
       <use xlink:href="#mcf5f255aea" x="200.663412" y="250.44375" style="stroke: #000000; stroke-width: 0.8"/>
      </g>
     </g>
     <g id="text_3">
      <!-- 10 -->
      <g transform="translate(194.300912 265.042188) scale(0.1 -0.1)">
       <defs>
        <path id="DejaVuSans-31" d="M 794 531 
L 1825 531 
L 1825 4091 
L 703 3866 
L 703 4441 
L 1819 4666 
L 2450 4666 
L 2450 531 
L 3481 531 
L 3481 0 
L 794 0 
L 794 531 
z
" transform="scale(0.015625)"/>
       </defs>
       <use xlink:href="#DejaVuSans-31"/>
       <use xlink:href="#DejaVuSans-30" transform="translate(63.623047 0)"/>
      </g>
     </g>
    </g>
    <g id="xtick_4">
     <g id="line2d_7">
      <path d="M 260.136205 250.44375 
L 260.136205 22.318125 
" clip-path="url(#p91f2a8408b)" style="fill: none; stroke-dasharray: 2.96,1.28; stroke-dashoffset: 0; stroke: #b0b0b0; stroke-opacity: 0.8; stroke-width: 0.8"/>
     </g>
     <g id="line2d_8">
      <g>
       <use xlink:href="#mcf5f255aea" x="260.136205" y="250.44375" style="stroke: #000000; stroke-width: 0.8"/>
      </g>
     </g>
     <g id="text_4">
      <!-- 15 -->
      <g transform="translate(253.773705 265.042188) scale(0.1 -0.1)">
       <use xlink:href="#DejaVuSans-31"/>
       <use xlink:href="#DejaVuSans-35" transform="translate(63.623047 0)"/>
      </g>
     </g>
    </g>
    <g id="xtick_5">
     <g id="line2d_9">
      <path d="M 319.608998 250.44375 
L 319.608998 22.318125 
" clip-path="url(#p91f2a8408b)" style="fill: none; stroke-dasharray: 2.96,1.28; stroke-dashoffset: 0; stroke: #b0b0b0; stroke-opacity: 0.8; stroke-width: 0.8"/>
     </g>
     <g id="line2d_10">
      <g>
       <use xlink:href="#mcf5f255aea" x="319.608998" y="250.44375" style="stroke: #000000; stroke-width: 0.8"/>
      </g>
     </g>
     <g id="text_5">
      <!-- 20 -->
      <g transform="translate(313.246498 265.042188) scale(0.1 -0.1)">
       <defs>
        <path id="DejaVuSans-32" d="M 1228 531 
L 3431 531 
L 3431 0 
L 469 0 
L 469 531 
Q 828 903 1448 1529 
Q 2069 2156 2228 2338 
Q 2531 2678 2651 2914 
Q 2772 3150 2772 3378 
Q 2772 3750 2511 3984 
Q 2250 4219 1831 4219 
Q 1534 4219 1204 4116 
Q 875 4013 500 3803 
L 500 4441 
Q 881 4594 1212 4672 
Q 1544 4750 1819 4750 
Q 2544 4750 2975 4387 
Q 3406 4025 3406 3419 
Q 3406 3131 3298 2873 
Q 3191 2616 2906 2266 
Q 2828 2175 2409 1742 
Q 1991 1309 1228 531 
z
" transform="scale(0.015625)"/>
       </defs>
       <use xlink:href="#DejaVuSans-32"/>
       <use xlink:href="#DejaVuSans-30" transform="translate(63.623047 0)"/>
      </g>
     </g>
    </g>
    <g id="xtick_6">
     <g id="line2d_11">
      <path d="M 379.081791 250.44375 
L 379.081791 22.318125 
" clip-path="url(#p91f2a8408b)" style="fill: none; stroke-dasharray: 2.96,1.28; stroke-dashoffset: 0; stroke: #b0b0b0; stroke-opacity: 0.8; stroke-width: 0.8"/>
     </g>
     <g id="line2d_12">
      <g>
       <use xlink:href="#mcf5f255aea" x="379.081791" y="250.44375" style="stroke: #000000; stroke-width: 0.8"/>
      </g>
     </g>
     <g id="text_6">
      <!-- 25 -->
      <g transform="translate(372.719291 265.042188) scale(0.1 -0.1)">
       <use xlink:href="#DejaVuSans-32"/>
       <use xlink:href="#DejaVuSans-35" transform="translate(63.623047 0)"/>
      </g>
     </g>
    </g>
    <g id="xtick_7">
     <g id="line2d_13">
      <path d="M 438.554584 250.44375 
L 438.554584 22.318125 
" clip-path="url(#p91f2a8408b)" style="fill: none; stroke-dasharray: 2.96,1.28; stroke-dashoffset: 0; stroke: #b0b0b0; stroke-opacity: 0.8; stroke-width: 0.8"/>
     </g>
     <g id="line2d_14">
      <g>
       <use xlink:href="#mcf5f255aea" x="438.554584" y="250.44375" style="stroke: #000000; stroke-width: 0.8"/>
      </g>
     </g>
     <g id="text_7">
      <!-- 30 -->
      <g transform="translate(432.192084 265.042188) scale(0.1 -0.1)">
       <defs>
        <path id="DejaVuSans-33" d="M 2597 2516 
Q 3050 2419 3304 2112 
Q 3559 1806 3559 1356 
Q 3559 666 3084 287 
Q 2609 -91 1734 -91 
Q 1441 -91 1130 -33 
Q 819 25 488 141 
L 488 750 
Q 750 597 1062 519 
Q 1375 441 1716 441 
Q 2309 441 2620 675 
Q 2931 909 2931 1356 
Q 2931 1769 2642 2001 
Q 2353 2234 1838 2234 
L 1294 2234 
L 1294 2753 
L 1863 2753 
Q 2328 2753 2575 2939 
Q 2822 3125 2822 3475 
Q 2822 3834 2567 4026 
Q 2313 4219 1838 4219 
Q 1578 4219 1281 4162 
Q 984 4106 628 3988 
L 628 4550 
Q 988 4650 1302 4700 
Q 1616 4750 1894 4750 
Q 2613 4750 3031 4423 
Q 3450 4097 3450 3541 
Q 3450 3153 3228 2886 
Q 3006 2619 2597 2516 
z
" transform="scale(0.015625)"/>
       </defs>
       <use xlink:href="#DejaVuSans-33"/>
       <use xlink:href="#DejaVuSans-30" transform="translate(63.623047 0)"/>
      </g>
     </g>
    </g>
    <g id="xtick_8">
     <g id="line2d_15">
      <path d="M 498.027377 250.44375 
L 498.027377 22.318125 
" clip-path="url(#p91f2a8408b)" style="fill: none; stroke-dasharray: 2.96,1.28; stroke-dashoffset: 0; stroke: #b0b0b0; stroke-opacity: 0.8; stroke-width: 0.8"/>
     </g>
     <g id="line2d_16">
      <g>
       <use xlink:href="#mcf5f255aea" x="498.027377" y="250.44375" style="stroke: #000000; stroke-width: 0.8"/>
      </g>
     </g>
     <g id="text_8">
      <!-- 35 -->
      <g transform="translate(491.664877 265.042188) scale(0.1 -0.1)">
       <use xlink:href="#DejaVuSans-33"/>
       <use xlink:href="#DejaVuSans-35" transform="translate(63.623047 0)"/>
      </g>
     </g>
    </g>
    <g id="xtick_9">
     <g id="line2d_17">
      <path d="M 557.500169 250.44375 
L 557.500169 22.318125 
" clip-path="url(#p91f2a8408b)" style="fill: none; stroke-dasharray: 2.96,1.28; stroke-dashoffset: 0; stroke: #b0b0b0; stroke-opacity: 0.8; stroke-width: 0.8"/>
     </g>
     <g id="line2d_18">
      <g>
       <use xlink:href="#mcf5f255aea" x="557.500169" y="250.44375" style="stroke: #000000; stroke-width: 0.8"/>
      </g>
     </g>
     <g id="text_9">
      <!-- 40 -->
      <g transform="translate(551.137669 265.042188) scale(0.1 -0.1)">
       <defs>
        <path id="DejaVuSans-34" d="M 2419 4116 
L 825 1625 
L 2419 1625 
L 2419 4116 
z
M 2253 4666 
L 3047 4666 
L 3047 1625 
L 3713 1625 
L 3713 1100 
L 3047 1100 
L 3047 0 
L 2419 0 
L 2419 1100 
L 313 1100 
L 313 1709 
L 2253 4666 
z
" transform="scale(0.015625)"/>
       </defs>
       <use xlink:href="#DejaVuSans-34"/>
       <use xlink:href="#DejaVuSans-30" transform="translate(63.623047 0)"/>
      </g>
     </g>
    </g>
    <g id="text_10">
     <!-- Time (s), $t$ -->
     <g transform="translate(288.011719 278.720312) scale(0.1 -0.1)">
      <defs>
       <path id="DejaVuSans-54" d="M -19 4666 
L 3928 4666 
L 3928 4134 
L 2272 4134 
L 2272 0 
L 1638 0 
L 1638 4134 
L -19 4134 
L -19 4666 
z
" transform="scale(0.015625)"/>
       <path id="DejaVuSans-69" d="M 603 3500 
L 1178 3500 
L 1178 0 
L 603 0 
L 603 3500 
z
M 603 4863 
L 1178 4863 
L 1178 4134 
L 603 4134 
L 603 4863 
z
" transform="scale(0.015625)"/>
       <path id="DejaVuSans-6d" d="M 3328 2828 
Q 3544 3216 3844 3400 
Q 4144 3584 4550 3584 
Q 5097 3584 5394 3201 
Q 5691 2819 5691 2113 
L 5691 0 
L 5113 0 
L 5113 2094 
Q 5113 2597 4934 2840 
Q 4756 3084 4391 3084 
Q 3944 3084 3684 2787 
Q 3425 2491 3425 1978 
L 3425 0 
L 2847 0 
L 2847 2094 
Q 2847 2600 2669 2842 
Q 2491 3084 2119 3084 
Q 1678 3084 1418 2786 
Q 1159 2488 1159 1978 
L 1159 0 
L 581 0 
L 581 3500 
L 1159 3500 
L 1159 2956 
Q 1356 3278 1631 3431 
Q 1906 3584 2284 3584 
Q 2666 3584 2933 3390 
Q 3200 3197 3328 2828 
z
" transform="scale(0.015625)"/>
       <path id="DejaVuSans-65" d="M 3597 1894 
L 3597 1613 
L 953 1613 
Q 991 1019 1311 708 
Q 1631 397 2203 397 
Q 2534 397 2845 478 
Q 3156 559 3463 722 
L 3463 178 
Q 3153 47 2828 -22 
Q 2503 -91 2169 -91 
Q 1331 -91 842 396 
Q 353 884 353 1716 
Q 353 2575 817 3079 
Q 1281 3584 2069 3584 
Q 2775 3584 3186 3129 
Q 3597 2675 3597 1894 
z
M 3022 2063 
Q 3016 2534 2758 2815 
Q 2500 3097 2075 3097 
Q 1594 3097 1305 2825 
Q 1016 2553 972 2059 
L 3022 2063 
z
" transform="scale(0.015625)"/>
       <path id="DejaVuSans-20" transform="scale(0.015625)"/>
       <path id="DejaVuSans-28" d="M 1984 4856 
Q 1566 4138 1362 3434 
Q 1159 2731 1159 2009 
Q 1159 1288 1364 580 
Q 1569 -128 1984 -844 
L 1484 -844 
Q 1016 -109 783 600 
Q 550 1309 550 2009 
Q 550 2706 781 3412 
Q 1013 4119 1484 4856 
L 1984 4856 
z
" transform="scale(0.015625)"/>
       <path id="DejaVuSans-73" d="M 2834 3397 
L 2834 2853 
Q 2591 2978 2328 3040 
Q 2066 3103 1784 3103 
Q 1356 3103 1142 2972 
Q 928 2841 928 2578 
Q 928 2378 1081 2264 
Q 1234 2150 1697 2047 
L 1894 2003 
Q 2506 1872 2764 1633 
Q 3022 1394 3022 966 
Q 3022 478 2636 193 
Q 2250 -91 1575 -91 
Q 1294 -91 989 -36 
Q 684 19 347 128 
L 347 722 
Q 666 556 975 473 
Q 1284 391 1588 391 
Q 1994 391 2212 530 
Q 2431 669 2431 922 
Q 2431 1156 2273 1281 
Q 2116 1406 1581 1522 
L 1381 1569 
Q 847 1681 609 1914 
Q 372 2147 372 2553 
Q 372 3047 722 3315 
Q 1072 3584 1716 3584 
Q 2034 3584 2315 3537 
Q 2597 3491 2834 3397 
z
" transform="scale(0.015625)"/>
       <path id="DejaVuSans-29" d="M 513 4856 
L 1013 4856 
Q 1481 4119 1714 3412 
Q 1947 2706 1947 2009 
Q 1947 1309 1714 600 
Q 1481 -109 1013 -844 
L 513 -844 
Q 928 -128 1133 580 
Q 1338 1288 1338 2009 
Q 1338 2731 1133 3434 
Q 928 4138 513 4856 
z
" transform="scale(0.015625)"/>
       <path id="DejaVuSans-2c" d="M 750 794 
L 1409 794 
L 1409 256 
L 897 -744 
L 494 -744 
L 750 256 
L 750 794 
z
" transform="scale(0.015625)"/>
       <path id="DejaVuSans-Oblique-74" d="M 2706 3500 
L 2619 3053 
L 1472 3053 
L 1100 1153 
Q 1081 1047 1072 975 
Q 1063 903 1063 863 
Q 1063 663 1183 572 
Q 1303 481 1569 481 
L 2150 481 
L 2053 0 
L 1503 0 
Q 991 0 739 200 
Q 488 400 488 806 
Q 488 878 497 964 
Q 506 1050 525 1153 
L 897 3053 
L 409 3053 
L 500 3500 
L 978 3500 
L 1172 4494 
L 1747 4494 
L 1556 3500 
L 2706 3500 
z
" transform="scale(0.015625)"/>
      </defs>
      <use xlink:href="#DejaVuSans-54" transform="translate(0 0.015625)"/>
      <use xlink:href="#DejaVuSans-69" transform="translate(61.083984 0.015625)"/>
      <use xlink:href="#DejaVuSans-6d" transform="translate(88.867188 0.015625)"/>
      <use xlink:href="#DejaVuSans-65" transform="translate(186.279297 0.015625)"/>
      <use xlink:href="#DejaVuSans-20" transform="translate(247.802734 0.015625)"/>
      <use xlink:href="#DejaVuSans-28" transform="translate(279.589844 0.015625)"/>
      <use xlink:href="#DejaVuSans-73" transform="translate(318.603516 0.015625)"/>
      <use xlink:href="#DejaVuSans-29" transform="translate(370.703125 0.015625)"/>
      <use xlink:href="#DejaVuSans-2c" transform="translate(409.716797 0.015625)"/>
      <use xlink:href="#DejaVuSans-20" transform="translate(441.503906 0.015625)"/>
      <use xlink:href="#DejaVuSans-Oblique-74" transform="translate(473.291016 0.015625)"/>
     </g>
    </g>
   </g>
   <g id="matplotlib.axis_2">
    <g id="ytick_1">
     <g id="line2d_19">
      <path d="M 58.523438 240.284879 
L 568.8 240.284879 
" clip-path="url(#p91f2a8408b)" style="fill: none; stroke-dasharray: 2.96,1.28; stroke-dashoffset: 0; stroke: #b0b0b0; stroke-opacity: 0.8; stroke-width: 0.8"/>
     </g>
     <g id="line2d_20">
      <defs>
       <path id="m7c3a18cd40" d="M 0 0 
L -3.5 0 
" style="stroke: #000000; stroke-width: 0.8"/>
      </defs>
      <g>
       <use xlink:href="#m7c3a18cd40" x="58.523438" y="240.284879" style="stroke: #000000; stroke-width: 0.8"/>
      </g>
     </g>
     <g id="text_11">
      <!-- −1.00 -->
      <g transform="translate(20.878125 244.084098) scale(0.1 -0.1)">
       <defs>
        <path id="DejaVuSans-2212" d="M 678 2272 
L 4684 2272 
L 4684 1741 
L 678 1741 
L 678 2272 
z
" transform="scale(0.015625)"/>
        <path id="DejaVuSans-2e" d="M 684 794 
L 1344 794 
L 1344 0 
L 684 0 
L 684 794 
z
" transform="scale(0.015625)"/>
       </defs>
       <use xlink:href="#DejaVuSans-2212"/>
       <use xlink:href="#DejaVuSans-31" transform="translate(83.789062 0)"/>
       <use xlink:href="#DejaVuSans-2e" transform="translate(147.412109 0)"/>
       <use xlink:href="#DejaVuSans-30" transform="translate(179.199219 0)"/>
       <use xlink:href="#DejaVuSans-30" transform="translate(242.822266 0)"/>
      </g>
     </g>
    </g>
    <g id="ytick_2">
     <g id="line2d_21">
      <path d="M 58.523438 214.335203 
L 568.8 214.335203 
" clip-path="url(#p91f2a8408b)" style="fill: none; stroke-dasharray: 2.96,1.28; stroke-dashoffset: 0; stroke: #b0b0b0; stroke-opacity: 0.8; stroke-width: 0.8"/>
     </g>
     <g id="line2d_22">
      <g>
       <use xlink:href="#m7c3a18cd40" x="58.523438" y="214.335203" style="stroke: #000000; stroke-width: 0.8"/>
      </g>
     </g>
     <g id="text_12">
      <!-- −0.75 -->
      <g transform="translate(20.878125 218.134422) scale(0.1 -0.1)">
       <defs>
        <path id="DejaVuSans-37" d="M 525 4666 
L 3525 4666 
L 3525 4397 
L 1831 0 
L 1172 0 
L 2766 4134 
L 525 4134 
L 525 4666 
z
" transform="scale(0.015625)"/>
       </defs>
       <use xlink:href="#DejaVuSans-2212"/>
       <use xlink:href="#DejaVuSans-30" transform="translate(83.789062 0)"/>
       <use xlink:href="#DejaVuSans-2e" transform="translate(147.412109 0)"/>
       <use xlink:href="#DejaVuSans-37" transform="translate(179.199219 0)"/>
       <use xlink:href="#DejaVuSans-35" transform="translate(242.822266 0)"/>
      </g>
     </g>
    </g>
    <g id="ytick_3">
     <g id="line2d_23">
      <path d="M 58.523438 188.385527 
L 568.8 188.385527 
" clip-path="url(#p91f2a8408b)" style="fill: none; stroke-dasharray: 2.96,1.28; stroke-dashoffset: 0; stroke: #b0b0b0; stroke-opacity: 0.8; stroke-width: 0.8"/>
     </g>
     <g id="line2d_24">
      <g>
       <use xlink:href="#m7c3a18cd40" x="58.523438" y="188.385527" style="stroke: #000000; stroke-width: 0.8"/>
      </g>
     </g>
     <g id="text_13">
      <!-- −0.50 -->
      <g transform="translate(20.878125 192.184746) scale(0.1 -0.1)">
       <use xlink:href="#DejaVuSans-2212"/>
       <use xlink:href="#DejaVuSans-30" transform="translate(83.789062 0)"/>
       <use xlink:href="#DejaVuSans-2e" transform="translate(147.412109 0)"/>
       <use xlink:href="#DejaVuSans-35" transform="translate(179.199219 0)"/>
       <use xlink:href="#DejaVuSans-30" transform="translate(242.822266 0)"/>
      </g>
     </g>
    </g>
    <g id="ytick_4">
     <g id="line2d_25">
      <path d="M 58.523438 162.435851 
L 568.8 162.435851 
" clip-path="url(#p91f2a8408b)" style="fill: none; stroke-dasharray: 2.96,1.28; stroke-dashoffset: 0; stroke: #b0b0b0; stroke-opacity: 0.8; stroke-width: 0.8"/>
     </g>
     <g id="line2d_26">
      <g>
       <use xlink:href="#m7c3a18cd40" x="58.523438" y="162.435851" style="stroke: #000000; stroke-width: 0.8"/>
      </g>
     </g>
     <g id="text_14">
      <!-- −0.25 -->
      <g transform="translate(20.878125 166.23507) scale(0.1 -0.1)">
       <use xlink:href="#DejaVuSans-2212"/>
       <use xlink:href="#DejaVuSans-30" transform="translate(83.789062 0)"/>
       <use xlink:href="#DejaVuSans-2e" transform="translate(147.412109 0)"/>
       <use xlink:href="#DejaVuSans-32" transform="translate(179.199219 0)"/>
       <use xlink:href="#DejaVuSans-35" transform="translate(242.822266 0)"/>
      </g>
     </g>
    </g>
    <g id="ytick_5">
     <g id="line2d_27">
      <path d="M 58.523438 136.486175 
L 568.8 136.486175 
" clip-path="url(#p91f2a8408b)" style="fill: none; stroke-dasharray: 2.96,1.28; stroke-dashoffset: 0; stroke: #b0b0b0; stroke-opacity: 0.8; stroke-width: 0.8"/>
     </g>
     <g id="line2d_28">
      <g>
       <use xlink:href="#m7c3a18cd40" x="58.523438" y="136.486175" style="stroke: #000000; stroke-width: 0.8"/>
      </g>
     </g>
     <g id="text_15">
      <!-- 0.00 -->
      <g transform="translate(29.257813 140.285394) scale(0.1 -0.1)">
       <use xlink:href="#DejaVuSans-30"/>
       <use xlink:href="#DejaVuSans-2e" transform="translate(63.623047 0)"/>
       <use xlink:href="#DejaVuSans-30" transform="translate(95.410156 0)"/>
       <use xlink:href="#DejaVuSans-30" transform="translate(159.033203 0)"/>
      </g>
     </g>
    </g>
    <g id="ytick_6">
     <g id="line2d_29">
      <path d="M 58.523438 110.536499 
L 568.8 110.536499 
" clip-path="url(#p91f2a8408b)" style="fill: none; stroke-dasharray: 2.96,1.28; stroke-dashoffset: 0; stroke: #b0b0b0; stroke-opacity: 0.8; stroke-width: 0.8"/>
     </g>
     <g id="line2d_30">
      <g>
       <use xlink:href="#m7c3a18cd40" x="58.523438" y="110.536499" style="stroke: #000000; stroke-width: 0.8"/>
      </g>
     </g>
     <g id="text_16">
      <!-- 0.25 -->
      <g transform="translate(29.257813 114.335718) scale(0.1 -0.1)">
       <use xlink:href="#DejaVuSans-30"/>
       <use xlink:href="#DejaVuSans-2e" transform="translate(63.623047 0)"/>
       <use xlink:href="#DejaVuSans-32" transform="translate(95.410156 0)"/>
       <use xlink:href="#DejaVuSans-35" transform="translate(159.033203 0)"/>
      </g>
     </g>
    </g>
    <g id="ytick_7">
     <g id="line2d_31">
      <path d="M 58.523438 84.586823 
L 568.8 84.586823 
" clip-path="url(#p91f2a8408b)" style="fill: none; stroke-dasharray: 2.96,1.28; stroke-dashoffset: 0; stroke: #b0b0b0; stroke-opacity: 0.8; stroke-width: 0.8"/>
     </g>
     <g id="line2d_32">
      <g>
       <use xlink:href="#m7c3a18cd40" x="58.523438" y="84.586823" style="stroke: #000000; stroke-width: 0.8"/>
      </g>
     </g>
     <g id="text_17">
      <!-- 0.50 -->
      <g transform="translate(29.257813 88.386042) scale(0.1 -0.1)">
       <use xlink:href="#DejaVuSans-30"/>
       <use xlink:href="#DejaVuSans-2e" transform="translate(63.623047 0)"/>
       <use xlink:href="#DejaVuSans-35" transform="translate(95.410156 0)"/>
       <use xlink:href="#DejaVuSans-30" transform="translate(159.033203 0)"/>
      </g>
     </g>
    </g>
    <g id="ytick_8">
     <g id="line2d_33">
      <path d="M 58.523438 58.637148 
L 568.8 58.637148 
" clip-path="url(#p91f2a8408b)" style="fill: none; stroke-dasharray: 2.96,1.28; stroke-dashoffset: 0; stroke: #b0b0b0; stroke-opacity: 0.8; stroke-width: 0.8"/>
     </g>
     <g id="line2d_34">
      <g>
       <use xlink:href="#m7c3a18cd40" x="58.523438" y="58.637148" style="stroke: #000000; stroke-width: 0.8"/>
      </g>
     </g>
     <g id="text_18">
      <!-- 0.75 -->
      <g transform="translate(29.257813 62.436366) scale(0.1 -0.1)">
       <use xlink:href="#DejaVuSans-30"/>
       <use xlink:href="#DejaVuSans-2e" transform="translate(63.623047 0)"/>
       <use xlink:href="#DejaVuSans-37" transform="translate(95.410156 0)"/>
       <use xlink:href="#DejaVuSans-35" transform="translate(159.033203 0)"/>
      </g>
     </g>
    </g>
    <g id="ytick_9">
     <g id="line2d_35">
      <path d="M 58.523438 32.687472 
L 568.8 32.687472 
" clip-path="url(#p91f2a8408b)" style="fill: none; stroke-dasharray: 2.96,1.28; stroke-dashoffset: 0; stroke: #b0b0b0; stroke-opacity: 0.8; stroke-width: 0.8"/>
     </g>
     <g id="line2d_36">
      <g>
       <use xlink:href="#m7c3a18cd40" x="58.523438" y="32.687472" style="stroke: #000000; stroke-width: 0.8"/>
      </g>
     </g>
     <g id="text_19">
      <!-- 1.00 -->
      <g transform="translate(29.257813 36.48669) scale(0.1 -0.1)">
       <use xlink:href="#DejaVuSans-31"/>
       <use xlink:href="#DejaVuSans-2e" transform="translate(63.623047 0)"/>
       <use xlink:href="#DejaVuSans-30" transform="translate(95.410156 0)"/>
       <use xlink:href="#DejaVuSans-30" transform="translate(159.033203 0)"/>
      </g>
     </g>
    </g>
    <g id="text_20">
     <!-- Amplitude -->
     <g transform="translate(14.798438 162.003594) rotate(-90) scale(0.1 -0.1)">
      <defs>
       <path id="DejaVuSans-41" d="M 2188 4044 
L 1331 1722 
L 3047 1722 
L 2188 4044 
z
M 1831 4666 
L 2547 4666 
L 4325 0 
L 3669 0 
L 3244 1197 
L 1141 1197 
L 716 0 
L 50 0 
L 1831 4666 
z
" transform="scale(0.015625)"/>
       <path id="DejaVuSans-70" d="M 1159 525 
L 1159 -1331 
L 581 -1331 
L 581 3500 
L 1159 3500 
L 1159 2969 
Q 1341 3281 1617 3432 
Q 1894 3584 2278 3584 
Q 2916 3584 3314 3078 
Q 3713 2572 3713 1747 
Q 3713 922 3314 415 
Q 2916 -91 2278 -91 
Q 1894 -91 1617 61 
Q 1341 213 1159 525 
z
M 3116 1747 
Q 3116 2381 2855 2742 
Q 2594 3103 2138 3103 
Q 1681 3103 1420 2742 
Q 1159 2381 1159 1747 
Q 1159 1113 1420 752 
Q 1681 391 2138 391 
Q 2594 391 2855 752 
Q 3116 1113 3116 1747 
z
" transform="scale(0.015625)"/>
       <path id="DejaVuSans-6c" d="M 603 4863 
L 1178 4863 
L 1178 0 
L 603 0 
L 603 4863 
z
" transform="scale(0.015625)"/>
       <path id="DejaVuSans-74" d="M 1172 4494 
L 1172 3500 
L 2356 3500 
L 2356 3053 
L 1172 3053 
L 1172 1153 
Q 1172 725 1289 603 
Q 1406 481 1766 481 
L 2356 481 
L 2356 0 
L 1766 0 
Q 1100 0 847 248 
Q 594 497 594 1153 
L 594 3053 
L 172 3053 
L 172 3500 
L 594 3500 
L 594 4494 
L 1172 4494 
z
" transform="scale(0.015625)"/>
       <path id="DejaVuSans-75" d="M 544 1381 
L 544 3500 
L 1119 3500 
L 1119 1403 
Q 1119 906 1312 657 
Q 1506 409 1894 409 
Q 2359 409 2629 706 
Q 2900 1003 2900 1516 
L 2900 3500 
L 3475 3500 
L 3475 0 
L 2900 0 
L 2900 538 
Q 2691 219 2414 64 
Q 2138 -91 1772 -91 
Q 1169 -91 856 284 
Q 544 659 544 1381 
z
M 1991 3584 
L 1991 3584 
z
" transform="scale(0.015625)"/>
       <path id="DejaVuSans-64" d="M 2906 2969 
L 2906 4863 
L 3481 4863 
L 3481 0 
L 2906 0 
L 2906 525 
Q 2725 213 2448 61 
Q 2172 -91 1784 -91 
Q 1150 -91 751 415 
Q 353 922 353 1747 
Q 353 2572 751 3078 
Q 1150 3584 1784 3584 
Q 2172 3584 2448 3432 
Q 2725 3281 2906 2969 
z
M 947 1747 
Q 947 1113 1208 752 
Q 1469 391 1925 391 
Q 2381 391 2643 752 
Q 2906 1113 2906 1747 
Q 2906 2381 2643 2742 
Q 2381 3103 1925 3103 
Q 1469 3103 1208 2742 
Q 947 2381 947 1747 
z
" transform="scale(0.015625)"/>
      </defs>
      <use xlink:href="#DejaVuSans-41"/>
      <use xlink:href="#DejaVuSans-6d" transform="translate(68.408203 0)"/>
      <use xlink:href="#DejaVuSans-70" transform="translate(165.820312 0)"/>
      <use xlink:href="#DejaVuSans-6c" transform="translate(229.296875 0)"/>
      <use xlink:href="#DejaVuSans-69" transform="translate(257.080078 0)"/>
      <use xlink:href="#DejaVuSans-74" transform="translate(284.863281 0)"/>
      <use xlink:href="#DejaVuSans-75" transform="translate(324.072266 0)"/>
      <use xlink:href="#DejaVuSans-64" transform="translate(387.451172 0)"/>
      <use xlink:href="#DejaVuSans-65" transform="translate(450.927734 0)"/>
     </g>
    </g>
   </g>
   <g id="line2d_37">
    <path d="M 81.717827 32.687472 
L 93.612385 100.154599 
L 105.506944 214.851355 
L 117.401502 227.676442 
L 129.296061 121.95775 
L 141.19062 35.125442 
L 153.085178 80.058123 
L 164.979737 198.345065 
L 176.874295 236.21787 
L 188.768854 144.443373 
L 200.663412 42.32483 
L 212.557971 62.612354 
L 224.45253 178.932956 
L 236.347088 240.074403 
L 248.241647 166.555206 
L 260.136205 53.947445 
L 272.030764 48.636805 
L 283.925322 157.52691 
L 295.819881 239.064883 
L 307.714439 187.254548 
L 319.608998 69.447314 
L 331.503557 38.787977 
L 343.398115 135.132476 
L 355.292674 233.236731 
L 367.187232 205.569047 
L 379.081791 88.096332 
L 390.976349 33.52852 
L 402.870908 112.801633 
L 414.765467 222.863724 
L 426.660025 220.63838 
L 438.554584 109.018461 
L 450.449142 33.105496 
L 462.343701 91.58337 
L 474.238259 208.433135 
L 486.132818 231.754666 
L 498.027377 131.230886 
L 509.921935 37.538776 
L 521.816494 72.474415 
L 533.711052 190.622839 
L 545.605611 238.395717 
" clip-path="url(#p91f2a8408b)" style="fill: none; stroke: #1f77b4; stroke-linecap: square"/>
    <defs>
     <path id="m96749af39b" d="M 0 3 
C 0.795609 3 1.55874 2.683901 2.12132 2.12132 
C 2.683901 1.55874 3 0.795609 3 0 
C 3 -0.795609 2.683901 -1.55874 2.12132 -2.12132 
C 1.55874 -2.683901 0.795609 -3 0 -3 
C -0.795609 -3 -1.55874 -2.683901 -2.12132 -2.12132 
C -2.683901 -1.55874 -3 -0.795609 -3 0 
C -3 0.795609 -2.683901 1.55874 -2.12132 2.12132 
C -1.55874 2.683901 -0.795609 3 0 3 
z
" style="stroke: #1f77b4"/>
    </defs>
    <g clip-path="url(#p91f2a8408b)">
     <use xlink:href="#m96749af39b" x="81.717827" y="32.687472" style="fill: #1f77b4; stroke: #1f77b4"/>
     <use xlink:href="#m96749af39b" x="93.612385" y="100.154599" style="fill: #1f77b4; stroke: #1f77b4"/>
     <use xlink:href="#m96749af39b" x="105.506944" y="214.851355" style="fill: #1f77b4; stroke: #1f77b4"/>
     <use xlink:href="#m96749af39b" x="117.401502" y="227.676442" style="fill: #1f77b4; stroke: #1f77b4"/>
     <use xlink:href="#m96749af39b" x="129.296061" y="121.95775" style="fill: #1f77b4; stroke: #1f77b4"/>
     <use xlink:href="#m96749af39b" x="141.19062" y="35.125442" style="fill: #1f77b4; stroke: #1f77b4"/>
     <use xlink:href="#m96749af39b" x="153.085178" y="80.058123" style="fill: #1f77b4; stroke: #1f77b4"/>
     <use xlink:href="#m96749af39b" x="164.979737" y="198.345065" style="fill: #1f77b4; stroke: #1f77b4"/>
     <use xlink:href="#m96749af39b" x="176.874295" y="236.21787" style="fill: #1f77b4; stroke: #1f77b4"/>
     <use xlink:href="#m96749af39b" x="188.768854" y="144.443373" style="fill: #1f77b4; stroke: #1f77b4"/>
     <use xlink:href="#m96749af39b" x="200.663412" y="42.32483" style="fill: #1f77b4; stroke: #1f77b4"/>
     <use xlink:href="#m96749af39b" x="212.557971" y="62.612354" style="fill: #1f77b4; stroke: #1f77b4"/>
     <use xlink:href="#m96749af39b" x="224.45253" y="178.932956" style="fill: #1f77b4; stroke: #1f77b4"/>
     <use xlink:href="#m96749af39b" x="236.347088" y="240.074403" style="fill: #1f77b4; stroke: #1f77b4"/>
     <use xlink:href="#m96749af39b" x="248.241647" y="166.555206" style="fill: #1f77b4; stroke: #1f77b4"/>
     <use xlink:href="#m96749af39b" x="260.136205" y="53.947445" style="fill: #1f77b4; stroke: #1f77b4"/>
     <use xlink:href="#m96749af39b" x="272.030764" y="48.636805" style="fill: #1f77b4; stroke: #1f77b4"/>
     <use xlink:href="#m96749af39b" x="283.925322" y="157.52691" style="fill: #1f77b4; stroke: #1f77b4"/>
     <use xlink:href="#m96749af39b" x="295.819881" y="239.064883" style="fill: #1f77b4; stroke: #1f77b4"/>
     <use xlink:href="#m96749af39b" x="307.714439" y="187.254548" style="fill: #1f77b4; stroke: #1f77b4"/>
     <use xlink:href="#m96749af39b" x="319.608998" y="69.447314" style="fill: #1f77b4; stroke: #1f77b4"/>
     <use xlink:href="#m96749af39b" x="331.503557" y="38.787977" style="fill: #1f77b4; stroke: #1f77b4"/>
     <use xlink:href="#m96749af39b" x="343.398115" y="135.132476" style="fill: #1f77b4; stroke: #1f77b4"/>
     <use xlink:href="#m96749af39b" x="355.292674" y="233.236731" style="fill: #1f77b4; stroke: #1f77b4"/>
     <use xlink:href="#m96749af39b" x="367.187232" y="205.569047" style="fill: #1f77b4; stroke: #1f77b4"/>
     <use xlink:href="#m96749af39b" x="379.081791" y="88.096332" style="fill: #1f77b4; stroke: #1f77b4"/>
     <use xlink:href="#m96749af39b" x="390.976349" y="33.52852" style="fill: #1f77b4; stroke: #1f77b4"/>
     <use xlink:href="#m96749af39b" x="402.870908" y="112.801633" style="fill: #1f77b4; stroke: #1f77b4"/>
     <use xlink:href="#m96749af39b" x="414.765467" y="222.863724" style="fill: #1f77b4; stroke: #1f77b4"/>
     <use xlink:href="#m96749af39b" x="426.660025" y="220.63838" style="fill: #1f77b4; stroke: #1f77b4"/>
     <use xlink:href="#m96749af39b" x="438.554584" y="109.018461" style="fill: #1f77b4; stroke: #1f77b4"/>
     <use xlink:href="#m96749af39b" x="450.449142" y="33.105496" style="fill: #1f77b4; stroke: #1f77b4"/>
     <use xlink:href="#m96749af39b" x="462.343701" y="91.58337" style="fill: #1f77b4; stroke: #1f77b4"/>
     <use xlink:href="#m96749af39b" x="474.238259" y="208.433135" style="fill: #1f77b4; stroke: #1f77b4"/>
     <use xlink:href="#m96749af39b" x="486.132818" y="231.754666" style="fill: #1f77b4; stroke: #1f77b4"/>
     <use xlink:href="#m96749af39b" x="498.027377" y="131.230886" style="fill: #1f77b4; stroke: #1f77b4"/>
     <use xlink:href="#m96749af39b" x="509.921935" y="37.538776" style="fill: #1f77b4; stroke: #1f77b4"/>
     <use xlink:href="#m96749af39b" x="521.816494" y="72.474415" style="fill: #1f77b4; stroke: #1f77b4"/>
     <use xlink:href="#m96749af39b" x="533.711052" y="190.622839" style="fill: #1f77b4; stroke: #1f77b4"/>
     <use xlink:href="#m96749af39b" x="545.605611" y="238.395717" style="fill: #1f77b4; stroke: #1f77b4"/>
    </g>
   </g>
   <g id="line2d_38">
    <path d="M 81.717827 32.687472 
L 85.503982 41.495149 
L 89.290138 63.655325 
L 93.076293 95.167641 
L 96.862449 133.087982 
L 100.648605 171.853722 
L 104.43476 206.468216 
L 108.220916 227.348856 
L 112.007071 235.54893 
L 115.793227 232.504112 
L 119.579383 213.1317 
L 123.365538 180.888636 
L 127.151694 143.616485 
L 130.937849 106.301624 
L 134.724005 73.192707 
L 138.51016 47.21652 
L 142.296316 34.64443 
L 146.082472 40.979457 
L 149.868627 58.231084 
L 153.654783 85.274808 
L 157.440938 122.988294 
L 161.227094 162.42876 
L 165.01325 198.587854 
L 168.799405 221.635674 
L 172.585561 234.933938 
L 176.371716 236.894802 
L 180.157872 218.767076 
L 183.944027 189.655557 
L 187.730183 154.592697 
L 191.516339 116.936153 
L 195.302494 81.14419 
L 199.08865 51.692415 
L 202.874805 37.622393 
L 206.660961 38.907505 
L 210.447117 51.24758 
L 214.233272 76.664433 
L 218.019428 113.229691 
L 221.805583 152.490407 
L 225.591739 188.435245 
L 229.377894 215.489293 
L 233.16405 233.617828 
L 236.950206 238.781894 
L 240.736361 223.544579 
L 244.522517 198.236639 
L 248.308672 165.892698 
L 252.094828 127.282698 
L 255.880984 89.516939 
L 259.667139 57.316585 
L 263.453295 41.381608 
L 267.23945 37.428499 
L 271.025606 44.764582 
L 274.811761 69.081236 
L 278.597917 103.691526 
L 282.384073 141.954182 
L 286.170228 178.225288 
L 289.956384 208.943116 
L 293.742539 231.444117 
L 297.528695 238.244797 
L 301.314851 227.622995 
L 305.101006 206.642748 
L 308.887162 176.080173 
L 312.673317 137.370526 
L 316.459473 98.443002 
L 320.245628 65.244449 
L 324.031784 45.741004 
L 327.81794 36.56904 
L 331.604095 39.24654 
L 335.390251 62.392585 
L 339.176406 94.260233 
L 342.962562 130.810172 
L 346.748718 168.101965 
L 350.534873 201.946072 
L 354.321029 228.215458 
L 358.107184 236.710159 
L 361.89334 231.112668 
L 365.679495 214.794101 
L 369.465651 185.324153 
L 373.251807 147.292146 
L 377.037962 108.049942 
L 380.824118 74.476224 
L 384.610273 50.601622 
L 388.396429 36.44122 
L 392.182585 37.193278 
L 395.96874 56.441137 
L 399.754896 84.86747 
L 403.541051 119.523333 
L 407.327207 158.109626 
L 411.113362 194.384314 
L 414.899518 223.45882 
L 418.685674 234.393998 
L 422.471829 234.048683 
L 426.257985 222.516174 
L 430.04414 193.692323 
L 433.830296 157.167101 
L 437.616452 118.420457 
L 441.402607 83.878306 
L 445.188763 55.954494 
L 448.974918 37.225355 
L 452.761074 36.319252 
L 456.547229 51.086068 
L 460.333385 75.520702 
L 464.119541 109.017496 
L 467.905696 148.207199 
L 471.691852 186.114389 
L 475.478007 215.750938 
L 479.264163 231.451634 
L 483.050319 236.378002 
L 486.836474 227.970482 
L 490.62263 201.311427 
L 494.408785 167.102022 
" clip-path="url(#p91f2a8408b)" style="fill: none; stroke: #ff7f0e; stroke-linecap: square"/>
    <defs>
     <path id="m029dc063ea" d="M 0 1.5 
C 0.397805 1.5 0.77937 1.341951 1.06066 1.06066 
C 1.341951 0.77937 1.5 0.397805 1.5 0 
C 1.5 -0.397805 1.341951 -0.77937 1.06066 -1.06066 
C 0.77937 -1.341951 0.397805 -1.5 0 -1.5 
C -0.397805 -1.5 -0.77937 -1.341951 -1.06066 -1.06066 
C -1.341951 -0.77937 -1.5 -0.397805 -1.5 0 
C -1.5 0.397805 -1.341951 0.77937 -1.06066 1.06066 
C -0.77937 1.341951 -0.397805 1.5 0 1.5 
z
" style="stroke: #ff7f0e"/>
    </defs>
    <g clip-path="url(#p91f2a8408b)">
     <use xlink:href="#m029dc063ea" x="81.717827" y="32.687472" style="fill: #ff7f0e; stroke: #ff7f0e"/>
     <use xlink:href="#m029dc063ea" x="85.503982" y="41.495149" style="fill: #ff7f0e; stroke: #ff7f0e"/>
     <use xlink:href="#m029dc063ea" x="89.290138" y="63.655325" style="fill: #ff7f0e; stroke: #ff7f0e"/>
     <use xlink:href="#m029dc063ea" x="93.076293" y="95.167641" style="fill: #ff7f0e; stroke: #ff7f0e"/>
     <use xlink:href="#m029dc063ea" x="96.862449" y="133.087982" style="fill: #ff7f0e; stroke: #ff7f0e"/>
     <use xlink:href="#m029dc063ea" x="100.648605" y="171.853722" style="fill: #ff7f0e; stroke: #ff7f0e"/>
     <use xlink:href="#m029dc063ea" x="104.43476" y="206.468216" style="fill: #ff7f0e; stroke: #ff7f0e"/>
     <use xlink:href="#m029dc063ea" x="108.220916" y="227.348856" style="fill: #ff7f0e; stroke: #ff7f0e"/>
     <use xlink:href="#m029dc063ea" x="112.007071" y="235.54893" style="fill: #ff7f0e; stroke: #ff7f0e"/>
     <use xlink:href="#m029dc063ea" x="115.793227" y="232.504112" style="fill: #ff7f0e; stroke: #ff7f0e"/>
     <use xlink:href="#m029dc063ea" x="119.579383" y="213.1317" style="fill: #ff7f0e; stroke: #ff7f0e"/>
     <use xlink:href="#m029dc063ea" x="123.365538" y="180.888636" style="fill: #ff7f0e; stroke: #ff7f0e"/>
     <use xlink:href="#m029dc063ea" x="127.151694" y="143.616485" style="fill: #ff7f0e; stroke: #ff7f0e"/>
     <use xlink:href="#m029dc063ea" x="130.937849" y="106.301624" style="fill: #ff7f0e; stroke: #ff7f0e"/>
     <use xlink:href="#m029dc063ea" x="134.724005" y="73.192707" style="fill: #ff7f0e; stroke: #ff7f0e"/>
     <use xlink:href="#m029dc063ea" x="138.51016" y="47.21652" style="fill: #ff7f0e; stroke: #ff7f0e"/>
     <use xlink:href="#m029dc063ea" x="142.296316" y="34.64443" style="fill: #ff7f0e; stroke: #ff7f0e"/>
     <use xlink:href="#m029dc063ea" x="146.082472" y="40.979457" style="fill: #ff7f0e; stroke: #ff7f0e"/>
     <use xlink:href="#m029dc063ea" x="149.868627" y="58.231084" style="fill: #ff7f0e; stroke: #ff7f0e"/>
     <use xlink:href="#m029dc063ea" x="153.654783" y="85.274808" style="fill: #ff7f0e; stroke: #ff7f0e"/>
     <use xlink:href="#m029dc063ea" x="157.440938" y="122.988294" style="fill: #ff7f0e; stroke: #ff7f0e"/>
     <use xlink:href="#m029dc063ea" x="161.227094" y="162.42876" style="fill: #ff7f0e; stroke: #ff7f0e"/>
     <use xlink:href="#m029dc063ea" x="165.01325" y="198.587854" style="fill: #ff7f0e; stroke: #ff7f0e"/>
     <use xlink:href="#m029dc063ea" x="168.799405" y="221.635674" style="fill: #ff7f0e; stroke: #ff7f0e"/>
     <use xlink:href="#m029dc063ea" x="172.585561" y="234.933938" style="fill: #ff7f0e; stroke: #ff7f0e"/>
     <use xlink:href="#m029dc063ea" x="176.371716" y="236.894802" style="fill: #ff7f0e; stroke: #ff7f0e"/>
     <use xlink:href="#m029dc063ea" x="180.157872" y="218.767076" style="fill: #ff7f0e; stroke: #ff7f0e"/>
     <use xlink:href="#m029dc063ea" x="183.944027" y="189.655557" style="fill: #ff7f0e; stroke: #ff7f0e"/>
     <use xlink:href="#m029dc063ea" x="187.730183" y="154.592697" style="fill: #ff7f0e; stroke: #ff7f0e"/>
     <use xlink:href="#m029dc063ea" x="191.516339" y="116.936153" style="fill: #ff7f0e; stroke: #ff7f0e"/>
     <use xlink:href="#m029dc063ea" x="195.302494" y="81.14419" style="fill: #ff7f0e; stroke: #ff7f0e"/>
     <use xlink:href="#m029dc063ea" x="199.08865" y="51.692415" style="fill: #ff7f0e; stroke: #ff7f0e"/>
     <use xlink:href="#m029dc063ea" x="202.874805" y="37.622393" style="fill: #ff7f0e; stroke: #ff7f0e"/>
     <use xlink:href="#m029dc063ea" x="206.660961" y="38.907505" style="fill: #ff7f0e; stroke: #ff7f0e"/>
     <use xlink:href="#m029dc063ea" x="210.447117" y="51.24758" style="fill: #ff7f0e; stroke: #ff7f0e"/>
     <use xlink:href="#m029dc063ea" x="214.233272" y="76.664433" style="fill: #ff7f0e; stroke: #ff7f0e"/>
     <use xlink:href="#m029dc063ea" x="218.019428" y="113.229691" style="fill: #ff7f0e; stroke: #ff7f0e"/>
     <use xlink:href="#m029dc063ea" x="221.805583" y="152.490407" style="fill: #ff7f0e; stroke: #ff7f0e"/>
     <use xlink:href="#m029dc063ea" x="225.591739" y="188.435245" style="fill: #ff7f0e; stroke: #ff7f0e"/>
     <use xlink:href="#m029dc063ea" x="229.377894" y="215.489293" style="fill: #ff7f0e; stroke: #ff7f0e"/>
     <use xlink:href="#m029dc063ea" x="233.16405" y="233.617828" style="fill: #ff7f0e; stroke: #ff7f0e"/>
     <use xlink:href="#m029dc063ea" x="236.950206" y="238.781894" style="fill: #ff7f0e; stroke: #ff7f0e"/>
     <use xlink:href="#m029dc063ea" x="240.736361" y="223.544579" style="fill: #ff7f0e; stroke: #ff7f0e"/>
     <use xlink:href="#m029dc063ea" x="244.522517" y="198.236639" style="fill: #ff7f0e; stroke: #ff7f0e"/>
     <use xlink:href="#m029dc063ea" x="248.308672" y="165.892698" style="fill: #ff7f0e; stroke: #ff7f0e"/>
     <use xlink:href="#m029dc063ea" x="252.094828" y="127.282698" style="fill: #ff7f0e; stroke: #ff7f0e"/>
     <use xlink:href="#m029dc063ea" x="255.880984" y="89.516939" style="fill: #ff7f0e; stroke: #ff7f0e"/>
     <use xlink:href="#m029dc063ea" x="259.667139" y="57.316585" style="fill: #ff7f0e; stroke: #ff7f0e"/>
     <use xlink:href="#m029dc063ea" x="263.453295" y="41.381608" style="fill: #ff7f0e; stroke: #ff7f0e"/>
     <use xlink:href="#m029dc063ea" x="267.23945" y="37.428499" style="fill: #ff7f0e; stroke: #ff7f0e"/>
     <use xlink:href="#m029dc063ea" x="271.025606" y="44.764582" style="fill: #ff7f0e; stroke: #ff7f0e"/>
     <use xlink:href="#m029dc063ea" x="274.811761" y="69.081236" style="fill: #ff7f0e; stroke: #ff7f0e"/>
     <use xlink:href="#m029dc063ea" x="278.597917" y="103.691526" style="fill: #ff7f0e; stroke: #ff7f0e"/>
     <use xlink:href="#m029dc063ea" x="282.384073" y="141.954182" style="fill: #ff7f0e; stroke: #ff7f0e"/>
     <use xlink:href="#m029dc063ea" x="286.170228" y="178.225288" style="fill: #ff7f0e; stroke: #ff7f0e"/>
     <use xlink:href="#m029dc063ea" x="289.956384" y="208.943116" style="fill: #ff7f0e; stroke: #ff7f0e"/>
     <use xlink:href="#m029dc063ea" x="293.742539" y="231.444117" style="fill: #ff7f0e; stroke: #ff7f0e"/>
     <use xlink:href="#m029dc063ea" x="297.528695" y="238.244797" style="fill: #ff7f0e; stroke: #ff7f0e"/>
     <use xlink:href="#m029dc063ea" x="301.314851" y="227.622995" style="fill: #ff7f0e; stroke: #ff7f0e"/>
     <use xlink:href="#m029dc063ea" x="305.101006" y="206.642748" style="fill: #ff7f0e; stroke: #ff7f0e"/>
     <use xlink:href="#m029dc063ea" x="308.887162" y="176.080173" style="fill: #ff7f0e; stroke: #ff7f0e"/>
     <use xlink:href="#m029dc063ea" x="312.673317" y="137.370526" style="fill: #ff7f0e; stroke: #ff7f0e"/>
     <use xlink:href="#m029dc063ea" x="316.459473" y="98.443002" style="fill: #ff7f0e; stroke: #ff7f0e"/>
     <use xlink:href="#m029dc063ea" x="320.245628" y="65.244449" style="fill: #ff7f0e; stroke: #ff7f0e"/>
     <use xlink:href="#m029dc063ea" x="324.031784" y="45.741004" style="fill: #ff7f0e; stroke: #ff7f0e"/>
     <use xlink:href="#m029dc063ea" x="327.81794" y="36.56904" style="fill: #ff7f0e; stroke: #ff7f0e"/>
     <use xlink:href="#m029dc063ea" x="331.604095" y="39.24654" style="fill: #ff7f0e; stroke: #ff7f0e"/>
     <use xlink:href="#m029dc063ea" x="335.390251" y="62.392585" style="fill: #ff7f0e; stroke: #ff7f0e"/>
     <use xlink:href="#m029dc063ea" x="339.176406" y="94.260233" style="fill: #ff7f0e; stroke: #ff7f0e"/>
     <use xlink:href="#m029dc063ea" x="342.962562" y="130.810172" style="fill: #ff7f0e; stroke: #ff7f0e"/>
     <use xlink:href="#m029dc063ea" x="346.748718" y="168.101965" style="fill: #ff7f0e; stroke: #ff7f0e"/>
     <use xlink:href="#m029dc063ea" x="350.534873" y="201.946072" style="fill: #ff7f0e; stroke: #ff7f0e"/>
     <use xlink:href="#m029dc063ea" x="354.321029" y="228.215458" style="fill: #ff7f0e; stroke: #ff7f0e"/>
     <use xlink:href="#m029dc063ea" x="358.107184" y="236.710159" style="fill: #ff7f0e; stroke: #ff7f0e"/>
     <use xlink:href="#m029dc063ea" x="361.89334" y="231.112668" style="fill: #ff7f0e; stroke: #ff7f0e"/>
     <use xlink:href="#m029dc063ea" x="365.679495" y="214.794101" style="fill: #ff7f0e; stroke: #ff7f0e"/>
     <use xlink:href="#m029dc063ea" x="369.465651" y="185.324153" style="fill: #ff7f0e; stroke: #ff7f0e"/>
     <use xlink:href="#m029dc063ea" x="373.251807" y="147.292146" style="fill: #ff7f0e; stroke: #ff7f0e"/>
     <use xlink:href="#m029dc063ea" x="377.037962" y="108.049942" style="fill: #ff7f0e; stroke: #ff7f0e"/>
     <use xlink:href="#m029dc063ea" x="380.824118" y="74.476224" style="fill: #ff7f0e; stroke: #ff7f0e"/>
     <use xlink:href="#m029dc063ea" x="384.610273" y="50.601622" style="fill: #ff7f0e; stroke: #ff7f0e"/>
     <use xlink:href="#m029dc063ea" x="388.396429" y="36.44122" style="fill: #ff7f0e; stroke: #ff7f0e"/>
     <use xlink:href="#m029dc063ea" x="392.182585" y="37.193278" style="fill: #ff7f0e; stroke: #ff7f0e"/>
     <use xlink:href="#m029dc063ea" x="395.96874" y="56.441137" style="fill: #ff7f0e; stroke: #ff7f0e"/>
     <use xlink:href="#m029dc063ea" x="399.754896" y="84.86747" style="fill: #ff7f0e; stroke: #ff7f0e"/>
     <use xlink:href="#m029dc063ea" x="403.541051" y="119.523333" style="fill: #ff7f0e; stroke: #ff7f0e"/>
     <use xlink:href="#m029dc063ea" x="407.327207" y="158.109626" style="fill: #ff7f0e; stroke: #ff7f0e"/>
     <use xlink:href="#m029dc063ea" x="411.113362" y="194.384314" style="fill: #ff7f0e; stroke: #ff7f0e"/>
     <use xlink:href="#m029dc063ea" x="414.899518" y="223.45882" style="fill: #ff7f0e; stroke: #ff7f0e"/>
     <use xlink:href="#m029dc063ea" x="418.685674" y="234.393998" style="fill: #ff7f0e; stroke: #ff7f0e"/>
     <use xlink:href="#m029dc063ea" x="422.471829" y="234.048683" style="fill: #ff7f0e; stroke: #ff7f0e"/>
     <use xlink:href="#m029dc063ea" x="426.257985" y="222.516174" style="fill: #ff7f0e; stroke: #ff7f0e"/>
     <use xlink:href="#m029dc063ea" x="430.04414" y="193.692323" style="fill: #ff7f0e; stroke: #ff7f0e"/>
     <use xlink:href="#m029dc063ea" x="433.830296" y="157.167101" style="fill: #ff7f0e; stroke: #ff7f0e"/>
     <use xlink:href="#m029dc063ea" x="437.616452" y="118.420457" style="fill: #ff7f0e; stroke: #ff7f0e"/>
     <use xlink:href="#m029dc063ea" x="441.402607" y="83.878306" style="fill: #ff7f0e; stroke: #ff7f0e"/>
     <use xlink:href="#m029dc063ea" x="445.188763" y="55.954494" style="fill: #ff7f0e; stroke: #ff7f0e"/>
     <use xlink:href="#m029dc063ea" x="448.974918" y="37.225355" style="fill: #ff7f0e; stroke: #ff7f0e"/>
     <use xlink:href="#m029dc063ea" x="452.761074" y="36.319252" style="fill: #ff7f0e; stroke: #ff7f0e"/>
     <use xlink:href="#m029dc063ea" x="456.547229" y="51.086068" style="fill: #ff7f0e; stroke: #ff7f0e"/>
     <use xlink:href="#m029dc063ea" x="460.333385" y="75.520702" style="fill: #ff7f0e; stroke: #ff7f0e"/>
     <use xlink:href="#m029dc063ea" x="464.119541" y="109.017496" style="fill: #ff7f0e; stroke: #ff7f0e"/>
     <use xlink:href="#m029dc063ea" x="467.905696" y="148.207199" style="fill: #ff7f0e; stroke: #ff7f0e"/>
     <use xlink:href="#m029dc063ea" x="471.691852" y="186.114389" style="fill: #ff7f0e; stroke: #ff7f0e"/>
     <use xlink:href="#m029dc063ea" x="475.478007" y="215.750938" style="fill: #ff7f0e; stroke: #ff7f0e"/>
     <use xlink:href="#m029dc063ea" x="479.264163" y="231.451634" style="fill: #ff7f0e; stroke: #ff7f0e"/>
     <use xlink:href="#m029dc063ea" x="483.050319" y="236.378002" style="fill: #ff7f0e; stroke: #ff7f0e"/>
     <use xlink:href="#m029dc063ea" x="486.836474" y="227.970482" style="fill: #ff7f0e; stroke: #ff7f0e"/>
     <use xlink:href="#m029dc063ea" x="490.62263" y="201.311427" style="fill: #ff7f0e; stroke: #ff7f0e"/>
     <use xlink:href="#m029dc063ea" x="494.408785" y="167.102022" style="fill: #ff7f0e; stroke: #ff7f0e"/>
    </g>
   </g>
   <g id="patch_3">
    <path d="M 58.523438 250.44375 
L 58.523438 22.318125 
" style="fill: none; stroke: #000000; stroke-width: 0.8; stroke-linejoin: miter; stroke-linecap: square"/>
   </g>
   <g id="patch_4">
    <path d="M 568.8 250.44375 
L 568.8 22.318125 
" style="fill: none; stroke: #000000; stroke-width: 0.8; stroke-linejoin: miter; stroke-linecap: square"/>
   </g>
   <g id="patch_5">
    <path d="M 58.523438 250.44375 
L 568.8 250.44375 
" style="fill: none; stroke: #000000; stroke-width: 0.8; stroke-linejoin: miter; stroke-linecap: square"/>
   </g>
   <g id="patch_6">
    <path d="M 58.523438 22.318125 
L 568.8 22.318125 
" style="fill: none; stroke: #000000; stroke-width: 0.8; stroke-linejoin: miter; stroke-linecap: square"/>
   </g>
   <g id="text_21">
    <!-- Cubic Farrow Resampler Concatenated Outputs -->
    <g transform="translate(171.560156 16.318125) scale(0.12 -0.12)">
     <defs>
      <path id="DejaVuSans-43" d="M 4122 4306 
L 4122 3641 
Q 3803 3938 3442 4084 
Q 3081 4231 2675 4231 
Q 1875 4231 1450 3742 
Q 1025 3253 1025 2328 
Q 1025 1406 1450 917 
Q 1875 428 2675 428 
Q 3081 428 3442 575 
Q 3803 722 4122 1019 
L 4122 359 
Q 3791 134 3420 21 
Q 3050 -91 2638 -91 
Q 1578 -91 968 557 
Q 359 1206 359 2328 
Q 359 3453 968 4101 
Q 1578 4750 2638 4750 
Q 3056 4750 3426 4639 
Q 3797 4528 4122 4306 
z
" transform="scale(0.015625)"/>
      <path id="DejaVuSans-62" d="M 3116 1747 
Q 3116 2381 2855 2742 
Q 2594 3103 2138 3103 
Q 1681 3103 1420 2742 
Q 1159 2381 1159 1747 
Q 1159 1113 1420 752 
Q 1681 391 2138 391 
Q 2594 391 2855 752 
Q 3116 1113 3116 1747 
z
M 1159 2969 
Q 1341 3281 1617 3432 
Q 1894 3584 2278 3584 
Q 2916 3584 3314 3078 
Q 3713 2572 3713 1747 
Q 3713 922 3314 415 
Q 2916 -91 2278 -91 
Q 1894 -91 1617 61 
Q 1341 213 1159 525 
L 1159 0 
L 581 0 
L 581 4863 
L 1159 4863 
L 1159 2969 
z
" transform="scale(0.015625)"/>
      <path id="DejaVuSans-63" d="M 3122 3366 
L 3122 2828 
Q 2878 2963 2633 3030 
Q 2388 3097 2138 3097 
Q 1578 3097 1268 2742 
Q 959 2388 959 1747 
Q 959 1106 1268 751 
Q 1578 397 2138 397 
Q 2388 397 2633 464 
Q 2878 531 3122 666 
L 3122 134 
Q 2881 22 2623 -34 
Q 2366 -91 2075 -91 
Q 1284 -91 818 406 
Q 353 903 353 1747 
Q 353 2603 823 3093 
Q 1294 3584 2113 3584 
Q 2378 3584 2631 3529 
Q 2884 3475 3122 3366 
z
" transform="scale(0.015625)"/>
      <path id="DejaVuSans-46" d="M 628 4666 
L 3309 4666 
L 3309 4134 
L 1259 4134 
L 1259 2759 
L 3109 2759 
L 3109 2228 
L 1259 2228 
L 1259 0 
L 628 0 
L 628 4666 
z
" transform="scale(0.015625)"/>
      <path id="DejaVuSans-61" d="M 2194 1759 
Q 1497 1759 1228 1600 
Q 959 1441 959 1056 
Q 959 750 1161 570 
Q 1363 391 1709 391 
Q 2188 391 2477 730 
Q 2766 1069 2766 1631 
L 2766 1759 
L 2194 1759 
z
M 3341 1997 
L 3341 0 
L 2766 0 
L 2766 531 
Q 2569 213 2275 61 
Q 1981 -91 1556 -91 
Q 1019 -91 701 211 
Q 384 513 384 1019 
Q 384 1609 779 1909 
Q 1175 2209 1959 2209 
L 2766 2209 
L 2766 2266 
Q 2766 2663 2505 2880 
Q 2244 3097 1772 3097 
Q 1472 3097 1187 3025 
Q 903 2953 641 2809 
L 641 3341 
Q 956 3463 1253 3523 
Q 1550 3584 1831 3584 
Q 2591 3584 2966 3190 
Q 3341 2797 3341 1997 
z
" transform="scale(0.015625)"/>
      <path id="DejaVuSans-72" d="M 2631 2963 
Q 2534 3019 2420 3045 
Q 2306 3072 2169 3072 
Q 1681 3072 1420 2755 
Q 1159 2438 1159 1844 
L 1159 0 
L 581 0 
L 581 3500 
L 1159 3500 
L 1159 2956 
Q 1341 3275 1631 3429 
Q 1922 3584 2338 3584 
Q 2397 3584 2469 3576 
Q 2541 3569 2628 3553 
L 2631 2963 
z
" transform="scale(0.015625)"/>
      <path id="DejaVuSans-6f" d="M 1959 3097 
Q 1497 3097 1228 2736 
Q 959 2375 959 1747 
Q 959 1119 1226 758 
Q 1494 397 1959 397 
Q 2419 397 2687 759 
Q 2956 1122 2956 1747 
Q 2956 2369 2687 2733 
Q 2419 3097 1959 3097 
z
M 1959 3584 
Q 2709 3584 3137 3096 
Q 3566 2609 3566 1747 
Q 3566 888 3137 398 
Q 2709 -91 1959 -91 
Q 1206 -91 779 398 
Q 353 888 353 1747 
Q 353 2609 779 3096 
Q 1206 3584 1959 3584 
z
" transform="scale(0.015625)"/>
      <path id="DejaVuSans-77" d="M 269 3500 
L 844 3500 
L 1563 769 
L 2278 3500 
L 2956 3500 
L 3675 769 
L 4391 3500 
L 4966 3500 
L 4050 0 
L 3372 0 
L 2619 2869 
L 1863 0 
L 1184 0 
L 269 3500 
z
" transform="scale(0.015625)"/>
      <path id="DejaVuSans-52" d="M 2841 2188 
Q 3044 2119 3236 1894 
Q 3428 1669 3622 1275 
L 4263 0 
L 3584 0 
L 2988 1197 
Q 2756 1666 2539 1819 
Q 2322 1972 1947 1972 
L 1259 1972 
L 1259 0 
L 628 0 
L 628 4666 
L 2053 4666 
Q 2853 4666 3247 4331 
Q 3641 3997 3641 3322 
Q 3641 2881 3436 2590 
Q 3231 2300 2841 2188 
z
M 1259 4147 
L 1259 2491 
L 2053 2491 
Q 2509 2491 2742 2702 
Q 2975 2913 2975 3322 
Q 2975 3731 2742 3939 
Q 2509 4147 2053 4147 
L 1259 4147 
z
" transform="scale(0.015625)"/>
      <path id="DejaVuSans-6e" d="M 3513 2113 
L 3513 0 
L 2938 0 
L 2938 2094 
Q 2938 2591 2744 2837 
Q 2550 3084 2163 3084 
Q 1697 3084 1428 2787 
Q 1159 2491 1159 1978 
L 1159 0 
L 581 0 
L 581 3500 
L 1159 3500 
L 1159 2956 
Q 1366 3272 1645 3428 
Q 1925 3584 2291 3584 
Q 2894 3584 3203 3211 
Q 3513 2838 3513 2113 
z
" transform="scale(0.015625)"/>
      <path id="DejaVuSans-4f" d="M 2522 4238 
Q 1834 4238 1429 3725 
Q 1025 3213 1025 2328 
Q 1025 1447 1429 934 
Q 1834 422 2522 422 
Q 3209 422 3611 934 
Q 4013 1447 4013 2328 
Q 4013 3213 3611 3725 
Q 3209 4238 2522 4238 
z
M 2522 4750 
Q 3503 4750 4090 4092 
Q 4678 3434 4678 2328 
Q 4678 1225 4090 567 
Q 3503 -91 2522 -91 
Q 1538 -91 948 565 
Q 359 1222 359 2328 
Q 359 3434 948 4092 
Q 1538 4750 2522 4750 
z
" transform="scale(0.015625)"/>
     </defs>
     <use xlink:href="#DejaVuSans-43"/>
     <use xlink:href="#DejaVuSans-75" transform="translate(69.824219 0)"/>
     <use xlink:href="#DejaVuSans-62" transform="translate(133.203125 0)"/>
     <use xlink:href="#DejaVuSans-69" transform="translate(196.679688 0)"/>
     <use xlink:href="#DejaVuSans-63" transform="translate(224.462891 0)"/>
     <use xlink:href="#DejaVuSans-20" transform="translate(279.443359 0)"/>
     <use xlink:href="#DejaVuSans-46" transform="translate(311.230469 0)"/>
     <use xlink:href="#DejaVuSans-61" transform="translate(359.625 0)"/>
     <use xlink:href="#DejaVuSans-72" transform="translate(420.904297 0)"/>
     <use xlink:href="#DejaVuSans-72" transform="translate(460.267578 0)"/>
     <use xlink:href="#DejaVuSans-6f" transform="translate(499.130859 0)"/>
     <use xlink:href="#DejaVuSans-77" transform="translate(560.3125 0)"/>
     <use xlink:href="#DejaVuSans-20" transform="translate(642.099609 0)"/>
     <use xlink:href="#DejaVuSans-52" transform="translate(673.886719 0)"/>
     <use xlink:href="#DejaVuSans-65" transform="translate(738.869141 0)"/>
     <use xlink:href="#DejaVuSans-73" transform="translate(800.392578 0)"/>
     <use xlink:href="#DejaVuSans-61" transform="translate(852.492188 0)"/>
     <use xlink:href="#DejaVuSans-6d" transform="translate(913.771484 0)"/>
     <use xlink:href="#DejaVuSans-70" transform="translate(1011.183594 0)"/>
     <use xlink:href="#DejaVuSans-6c" transform="translate(1074.660156 0)"/>
     <use xlink:href="#DejaVuSans-65" transform="translate(1102.443359 0)"/>
     <use xlink:href="#DejaVuSans-72" transform="translate(1163.966797 0)"/>
     <use xlink:href="#DejaVuSans-20" transform="translate(1205.080078 0)"/>
     <use xlink:href="#DejaVuSans-43" transform="translate(1236.867188 0)"/>
     <use xlink:href="#DejaVuSans-6f" transform="translate(1306.691406 0)"/>
     <use xlink:href="#DejaVuSans-6e" transform="translate(1367.873047 0)"/>
     <use xlink:href="#DejaVuSans-63" transform="translate(1431.251953 0)"/>
     <use xlink:href="#DejaVuSans-61" transform="translate(1486.232422 0)"/>
     <use xlink:href="#DejaVuSans-74" transform="translate(1547.511719 0)"/>
     <use xlink:href="#DejaVuSans-65" transform="translate(1586.720703 0)"/>
     <use xlink:href="#DejaVuSans-6e" transform="translate(1648.244141 0)"/>
     <use xlink:href="#DejaVuSans-61" transform="translate(1711.623047 0)"/>
     <use xlink:href="#DejaVuSans-74" transform="translate(1772.902344 0)"/>
     <use xlink:href="#DejaVuSans-65" transform="translate(1812.111328 0)"/>
     <use xlink:href="#DejaVuSans-64" transform="translate(1873.634766 0)"/>
     <use xlink:href="#DejaVuSans-20" transform="translate(1937.111328 0)"/>
     <use xlink:href="#DejaVuSans-4f" transform="translate(1968.898438 0)"/>
     <use xlink:href="#DejaVuSans-75" transform="translate(2047.609375 0)"/>
     <use xlink:href="#DejaVuSans-74" transform="translate(2110.988281 0)"/>
     <use xlink:href="#DejaVuSans-70" transform="translate(2150.197266 0)"/>
     <use xlink:href="#DejaVuSans-75" transform="translate(2213.673828 0)"/>
     <use xlink:href="#DejaVuSans-74" transform="translate(2277.052734 0)"/>
     <use xlink:href="#DejaVuSans-73" transform="translate(2316.261719 0)"/>
    </g>
   </g>
   <g id="legend_1">
    <g id="patch_7">
     <path d="M 430.134375 152.559063 
L 561.8 152.559063 
Q 563.8 152.559063 563.8 150.559063 
L 563.8 122.202812 
Q 563.8 120.202812 561.8 120.202812 
L 430.134375 120.202812 
Q 428.134375 120.202812 428.134375 122.202812 
L 428.134375 150.559063 
Q 428.134375 152.559063 430.134375 152.559063 
z
" style="fill: #ffffff; opacity: 0.8; stroke: #cccccc; stroke-linejoin: miter"/>
    </g>
    <g id="line2d_39">
     <path d="M 432.134375 128.30125 
L 442.134375 128.30125 
L 452.134375 128.30125 
" style="fill: none; stroke: #1f77b4; stroke-linecap: square"/>
     <g>
      <use xlink:href="#m96749af39b" x="442.134375" y="128.30125" style="fill: #1f77b4; stroke: #1f77b4"/>
     </g>
    </g>
    <g id="text_22">
     <!-- Input -->
     <g transform="translate(460.134375 131.80125) scale(0.1 -0.1)">
      <defs>
       <path id="DejaVuSans-49" d="M 628 4666 
L 1259 4666 
L 1259 0 
L 628 0 
L 628 4666 
z
" transform="scale(0.015625)"/>
      </defs>
      <use xlink:href="#DejaVuSans-49"/>
      <use xlink:href="#DejaVuSans-6e" transform="translate(29.492188 0)"/>
      <use xlink:href="#DejaVuSans-70" transform="translate(92.871094 0)"/>
      <use xlink:href="#DejaVuSans-75" transform="translate(156.347656 0)"/>
      <use xlink:href="#DejaVuSans-74" transform="translate(219.726562 0)"/>
     </g>
    </g>
    <g id="line2d_40">
     <path d="M 432.134375 142.979375 
L 442.134375 142.979375 
L 452.134375 142.979375 
" style="fill: none; stroke: #ff7f0e; stroke-linecap: square"/>
     <g>
      <use xlink:href="#m029dc063ea" x="442.134375" y="142.979375" style="fill: #ff7f0e; stroke: #ff7f0e"/>
     </g>
    </g>
    <g id="text_23">
     <!-- Cubic concatenated -->
     <g transform="translate(460.134375 146.479375) scale(0.1 -0.1)">
      <use xlink:href="#DejaVuSans-43"/>
      <use xlink:href="#DejaVuSans-75" transform="translate(69.824219 0)"/>
      <use xlink:href="#DejaVuSans-62" transform="translate(133.203125 0)"/>
      <use xlink:href="#DejaVuSans-69" transform="translate(196.679688 0)"/>
      <use xlink:href="#DejaVuSans-63" transform="translate(224.462891 0)"/>
      <use xlink:href="#DejaVuSans-20" transform="translate(279.443359 0)"/>
      <use xlink:href="#DejaVuSans-63" transform="translate(311.230469 0)"/>
      <use xlink:href="#DejaVuSans-6f" transform="translate(366.210938 0)"/>
      <use xlink:href="#DejaVuSans-6e" transform="translate(427.392578 0)"/>
      <use xlink:href="#DejaVuSans-63" transform="translate(490.771484 0)"/>
      <use xlink:href="#DejaVuSans-61" transform="translate(545.751953 0)"/>
      <use xlink:href="#DejaVuSans-74" transform="translate(607.03125 0)"/>
      <use xlink:href="#DejaVuSans-65" transform="translate(646.240234 0)"/>
      <use xlink:href="#DejaVuSans-6e" transform="translate(707.763672 0)"/>
      <use xlink:href="#DejaVuSans-61" transform="translate(771.142578 0)"/>
      <use xlink:href="#DejaVuSans-74" transform="translate(832.421875 0)"/>
      <use xlink:href="#DejaVuSans-65" transform="translate(871.630859 0)"/>
      <use xlink:href="#DejaVuSans-64" transform="translate(933.154297 0)"/>
     </g>
    </g>
   </g>
  </g>
 </g>
 <defs>
  <clipPath id="p91f2a8408b">
   <rect x="58.523438" y="22.318125" width="510.276563" height="228.125625"/>
  </clipPath>
 </defs>
</svg>
