<?xml version="1.0" encoding="utf-8" standalone="no"?>
<!DOCTYPE svg PUBLIC "-//W3C//DTD SVG 1.1//EN"
  "http://www.w3.org/Graphics/SVG/1.1/DTD/svg11.dtd">
<svg xmlns:xlink="http://www.w3.org/1999/xlink" width="576pt" height="288pt" viewBox="0 0 576 288" xmlns="http://www.w3.org/2000/svg" version="1.1">
 <metadata>
  <rdf:RDF xmlns:dc="http://purl.org/dc/elements/1.1/" xmlns:cc="http://creativecommons.org/ns#" xmlns:rdf="http://www.w3.org/1999/02/22-rdf-syntax-ns#">
   <cc:Work>
    <dc:type rdf:resource="http://purl.org/dc/dcmitype/StillImage"/>
    <dc:date>2025-05-10T16:32:44.130437</dc:date>
    <dc:format>image/svg+xml</dc:format>
    <dc:creator>
     <cc:Agent>
      <dc:title>Matplotlib v3.10.3, https://matplotlib.org/</dc:title>
     </cc:Agent>
    </dc:creator>
   </cc:Work>
  </rdf:RDF>
 </metadata>
 <defs>
  <style type="text/css">*{stroke-linejoin: round; stroke-linecap: butt}</style>
 </defs>
 <g id="figure_1">
  <g id="patch_1">
   <path d="M 0 288 
L 576 288 
L 576 0 
L 0 0 
z
" style="fill: #ffffff"/>
  </g>
  <g id="axes_1">
   <g id="patch_2">
    <path d="M 57.167188 250.421875 
L 568.8 250.421875 
L 568.8 24.12 
L 57.167188 24.12 
z
" style="fill: #ffffff"/>
   </g>
   <g id="matplotlib.axis_1">
    <g id="xtick_1">
     <g id="line2d_1">
      <path d="M 80.423224 250.421875 
L 80.423224 24.12 
" clip-path="url(#p044d3c481c)" style="fill: none; stroke-dasharray: 2.96,1.28; stroke-dashoffset: 0; stroke: #b0b0b0; stroke-opacity: 0.8; stroke-width: 0.8"/>
     </g>
     <g id="line2d_2">
      <defs>
       <path id="m49cc139dd5" d="M 0 0 
L 0 3.5 
" style="stroke: #000000; stroke-width: 0.8"/>
      </defs>
      <g>
       <use xlink:href="#m49cc139dd5" x="80.423224" y="250.421875" style="stroke: #000000; stroke-width: 0.8"/>
      </g>
     </g>
     <g id="text_1">
      <!-- 0 -->
      <g transform="translate(77.241974 265.020312) scale(0.1 -0.1)">
       <defs>
        <path id="DejaVuSans-30" d="M 2034 4250 
Q 1547 4250 1301 3770 
Q 1056 3291 1056 2328 
Q 1056 1369 1301 889 
Q 1547 409 2034 409 
Q 2525 409 2770 889 
Q 3016 1369 3016 2328 
Q 3016 3291 2770 3770 
Q 2525 4250 2034 4250 
z
M 2034 4750 
Q 2819 4750 3233 4129 
Q 3647 3509 3647 2328 
Q 3647 1150 3233 529 
Q 2819 -91 2034 -91 
Q 1250 -91 836 529 
Q 422 1150 422 2328 
Q 422 3509 836 4129 
Q 1250 4750 2034 4750 
z
" transform="scale(0.015625)"/>
       </defs>
       <use xlink:href="#DejaVuSans-30"/>
      </g>
     </g>
    </g>
    <g id="xtick_2">
     <g id="line2d_3">
      <path d="M 173.538305 250.421875 
L 173.538305 24.12 
" clip-path="url(#p044d3c481c)" style="fill: none; stroke-dasharray: 2.96,1.28; stroke-dashoffset: 0; stroke: #b0b0b0; stroke-opacity: 0.8; stroke-width: 0.8"/>
     </g>
     <g id="line2d_4">
      <g>
       <use xlink:href="#m49cc139dd5" x="173.538305" y="250.421875" style="stroke: #000000; stroke-width: 0.8"/>
      </g>
     </g>
     <g id="text_2">
      <!-- 0.1 -->
      <g transform="translate(165.586742 265.020312) scale(0.1 -0.1)">
       <defs>
        <path id="DejaVuSans-2e" d="M 684 794 
L 1344 794 
L 1344 0 
L 684 0 
L 684 794 
z
" transform="scale(0.015625)"/>
        <path id="DejaVuSans-31" d="M 794 531 
L 1825 531 
L 1825 4091 
L 703 3866 
L 703 4441 
L 1819 4666 
L 2450 4666 
L 2450 531 
L 3481 531 
L 3481 0 
L 794 0 
L 794 531 
z
" transform="scale(0.015625)"/>
       </defs>
       <use xlink:href="#DejaVuSans-30"/>
       <use xlink:href="#DejaVuSans-2e" transform="translate(63.623047 0)"/>
       <use xlink:href="#DejaVuSans-31" transform="translate(95.410156 0)"/>
      </g>
     </g>
    </g>
    <g id="xtick_3">
     <g id="line2d_5">
      <path d="M 266.653385 250.421875 
L 266.653385 24.12 
" clip-path="url(#p044d3c481c)" style="fill: none; stroke-dasharray: 2.96,1.28; stroke-dashoffset: 0; stroke: #b0b0b0; stroke-opacity: 0.8; stroke-width: 0.8"/>
     </g>
     <g id="line2d_6">
      <g>
       <use xlink:href="#m49cc139dd5" x="266.653385" y="250.421875" style="stroke: #000000; stroke-width: 0.8"/>
      </g>
     </g>
     <g id="text_3">
      <!-- 0.2 -->
      <g transform="translate(258.701823 265.020312) scale(0.1 -0.1)">
       <defs>
        <path id="DejaVuSans-32" d="M 1228 531 
L 3431 531 
L 3431 0 
L 469 0 
L 469 531 
Q 828 903 1448 1529 
Q 2069 2156 2228 2338 
Q 2531 2678 2651 2914 
Q 2772 3150 2772 3378 
Q 2772 3750 2511 3984 
Q 2250 4219 1831 4219 
Q 1534 4219 1204 4116 
Q 875 4013 500 3803 
L 500 4441 
Q 881 4594 1212 4672 
Q 1544 4750 1819 4750 
Q 2544 4750 2975 4387 
Q 3406 4025 3406 3419 
Q 3406 3131 3298 2873 
Q 3191 2616 2906 2266 
Q 2828 2175 2409 1742 
Q 1991 1309 1228 531 
z
" transform="scale(0.015625)"/>
       </defs>
       <use xlink:href="#DejaVuSans-30"/>
       <use xlink:href="#DejaVuSans-2e" transform="translate(63.623047 0)"/>
       <use xlink:href="#DejaVuSans-32" transform="translate(95.410156 0)"/>
      </g>
     </g>
    </g>
    <g id="xtick_4">
     <g id="line2d_7">
      <path d="M 359.768466 250.421875 
L 359.768466 24.12 
" clip-path="url(#p044d3c481c)" style="fill: none; stroke-dasharray: 2.96,1.28; stroke-dashoffset: 0; stroke: #b0b0b0; stroke-opacity: 0.8; stroke-width: 0.8"/>
     </g>
     <g id="line2d_8">
      <g>
       <use xlink:href="#m49cc139dd5" x="359.768466" y="250.421875" style="stroke: #000000; stroke-width: 0.8"/>
      </g>
     </g>
     <g id="text_4">
      <!-- 0.3 -->
      <g transform="translate(351.816903 265.020312) scale(0.1 -0.1)">
       <defs>
        <path id="DejaVuSans-33" d="M 2597 2516 
Q 3050 2419 3304 2112 
Q 3559 1806 3559 1356 
Q 3559 666 3084 287 
Q 2609 -91 1734 -91 
Q 1441 -91 1130 -33 
Q 819 25 488 141 
L 488 750 
Q 750 597 1062 519 
Q 1375 441 1716 441 
Q 2309 441 2620 675 
Q 2931 909 2931 1356 
Q 2931 1769 2642 2001 
Q 2353 2234 1838 2234 
L 1294 2234 
L 1294 2753 
L 1863 2753 
Q 2328 2753 2575 2939 
Q 2822 3125 2822 3475 
Q 2822 3834 2567 4026 
Q 2313 4219 1838 4219 
Q 1578 4219 1281 4162 
Q 984 4106 628 3988 
L 628 4550 
Q 988 4650 1302 4700 
Q 1616 4750 1894 4750 
Q 2613 4750 3031 4423 
Q 3450 4097 3450 3541 
Q 3450 3153 3228 2886 
Q 3006 2619 2597 2516 
z
" transform="scale(0.015625)"/>
       </defs>
       <use xlink:href="#DejaVuSans-30"/>
       <use xlink:href="#DejaVuSans-2e" transform="translate(63.623047 0)"/>
       <use xlink:href="#DejaVuSans-33" transform="translate(95.410156 0)"/>
      </g>
     </g>
    </g>
    <g id="xtick_5">
     <g id="line2d_9">
      <path d="M 452.883546 250.421875 
L 452.883546 24.12 
" clip-path="url(#p044d3c481c)" style="fill: none; stroke-dasharray: 2.96,1.28; stroke-dashoffset: 0; stroke: #b0b0b0; stroke-opacity: 0.8; stroke-width: 0.8"/>
     </g>
     <g id="line2d_10">
      <g>
       <use xlink:href="#m49cc139dd5" x="452.883546" y="250.421875" style="stroke: #000000; stroke-width: 0.8"/>
      </g>
     </g>
     <g id="text_5">
      <!-- 0.4 -->
      <g transform="translate(444.931984 265.020312) scale(0.1 -0.1)">
       <defs>
        <path id="DejaVuSans-34" d="M 2419 4116 
L 825 1625 
L 2419 1625 
L 2419 4116 
z
M 2253 4666 
L 3047 4666 
L 3047 1625 
L 3713 1625 
L 3713 1100 
L 3047 1100 
L 3047 0 
L 2419 0 
L 2419 1100 
L 313 1100 
L 313 1709 
L 2253 4666 
z
" transform="scale(0.015625)"/>
       </defs>
       <use xlink:href="#DejaVuSans-30"/>
       <use xlink:href="#DejaVuSans-2e" transform="translate(63.623047 0)"/>
       <use xlink:href="#DejaVuSans-34" transform="translate(95.410156 0)"/>
      </g>
     </g>
    </g>
    <g id="xtick_6">
     <g id="line2d_11">
      <path d="M 545.998627 250.421875 
L 545.998627 24.12 
" clip-path="url(#p044d3c481c)" style="fill: none; stroke-dasharray: 2.96,1.28; stroke-dashoffset: 0; stroke: #b0b0b0; stroke-opacity: 0.8; stroke-width: 0.8"/>
     </g>
     <g id="line2d_12">
      <g>
       <use xlink:href="#m49cc139dd5" x="545.998627" y="250.421875" style="stroke: #000000; stroke-width: 0.8"/>
      </g>
     </g>
     <g id="text_6">
      <!-- 0.5 -->
      <g transform="translate(538.047064 265.020312) scale(0.1 -0.1)">
       <defs>
        <path id="DejaVuSans-35" d="M 691 4666 
L 3169 4666 
L 3169 4134 
L 1269 4134 
L 1269 2991 
Q 1406 3038 1543 3061 
Q 1681 3084 1819 3084 
Q 2600 3084 3056 2656 
Q 3513 2228 3513 1497 
Q 3513 744 3044 326 
Q 2575 -91 1722 -91 
Q 1428 -91 1123 -41 
Q 819 9 494 109 
L 494 744 
Q 775 591 1075 516 
Q 1375 441 1709 441 
Q 2250 441 2565 725 
Q 2881 1009 2881 1497 
Q 2881 1984 2565 2268 
Q 2250 2553 1709 2553 
Q 1456 2553 1204 2497 
Q 953 2441 691 2322 
L 691 4666 
z
" transform="scale(0.015625)"/>
       </defs>
       <use xlink:href="#DejaVuSans-30"/>
       <use xlink:href="#DejaVuSans-2e" transform="translate(63.623047 0)"/>
       <use xlink:href="#DejaVuSans-35" transform="translate(95.410156 0)"/>
      </g>
     </g>
    </g>
    <g id="text_7">
     <!-- Normalized frequency, $f/f_s$ -->
     <g transform="translate(247.383594 278.7) scale(0.1 -0.1)">
      <defs>
       <path id="DejaVuSans-4e" d="M 628 4666 
L 1478 4666 
L 3547 763 
L 3547 4666 
L 4159 4666 
L 4159 0 
L 3309 0 
L 1241 3903 
L 1241 0 
L 628 0 
L 628 4666 
z
" transform="scale(0.015625)"/>
       <path id="DejaVuSans-6f" d="M 1959 3097 
Q 1497 3097 1228 2736 
Q 959 2375 959 1747 
Q 959 1119 1226 758 
Q 1494 397 1959 397 
Q 2419 397 2687 759 
Q 2956 1122 2956 1747 
Q 2956 2369 2687 2733 
Q 2419 3097 1959 3097 
z
M 1959 3584 
Q 2709 3584 3137 3096 
Q 3566 2609 3566 1747 
Q 3566 888 3137 398 
Q 2709 -91 1959 -91 
Q 1206 -91 779 398 
Q 353 888 353 1747 
Q 353 2609 779 3096 
Q 1206 3584 1959 3584 
z
" transform="scale(0.015625)"/>
       <path id="DejaVuSans-72" d="M 2631 2963 
Q 2534 3019 2420 3045 
Q 2306 3072 2169 3072 
Q 1681 3072 1420 2755 
Q 1159 2438 1159 1844 
L 1159 0 
L 581 0 
L 581 3500 
L 1159 3500 
L 1159 2956 
Q 1341 3275 1631 3429 
Q 1922 3584 2338 3584 
Q 2397 3584 2469 3576 
Q 2541 3569 2628 3553 
L 2631 2963 
z
" transform="scale(0.015625)"/>
       <path id="DejaVuSans-6d" d="M 3328 2828 
Q 3544 3216 3844 3400 
Q 4144 3584 4550 3584 
Q 5097 3584 5394 3201 
Q 5691 2819 5691 2113 
L 5691 0 
L 5113 0 
L 5113 2094 
Q 5113 2597 4934 2840 
Q 4756 3084 4391 3084 
Q 3944 3084 3684 2787 
Q 3425 2491 3425 1978 
L 3425 0 
L 2847 0 
L 2847 2094 
Q 2847 2600 2669 2842 
Q 2491 3084 2119 3084 
Q 1678 3084 1418 2786 
Q 1159 2488 1159 1978 
L 1159 0 
L 581 0 
L 581 3500 
L 1159 3500 
L 1159 2956 
Q 1356 3278 1631 3431 
Q 1906 3584 2284 3584 
Q 2666 3584 2933 3390 
Q 3200 3197 3328 2828 
z
" transform="scale(0.015625)"/>
       <path id="DejaVuSans-61" d="M 2194 1759 
Q 1497 1759 1228 1600 
Q 959 1441 959 1056 
Q 959 750 1161 570 
Q 1363 391 1709 391 
Q 2188 391 2477 730 
Q 2766 1069 2766 1631 
L 2766 1759 
L 2194 1759 
z
M 3341 1997 
L 3341 0 
L 2766 0 
L 2766 531 
Q 2569 213 2275 61 
Q 1981 -91 1556 -91 
Q 1019 -91 701 211 
Q 384 513 384 1019 
Q 384 1609 779 1909 
Q 1175 2209 1959 2209 
L 2766 2209 
L 2766 2266 
Q 2766 2663 2505 2880 
Q 2244 3097 1772 3097 
Q 1472 3097 1187 3025 
Q 903 2953 641 2809 
L 641 3341 
Q 956 3463 1253 3523 
Q 1550 3584 1831 3584 
Q 2591 3584 2966 3190 
Q 3341 2797 3341 1997 
z
" transform="scale(0.015625)"/>
       <path id="DejaVuSans-6c" d="M 603 4863 
L 1178 4863 
L 1178 0 
L 603 0 
L 603 4863 
z
" transform="scale(0.015625)"/>
       <path id="DejaVuSans-69" d="M 603 3500 
L 1178 3500 
L 1178 0 
L 603 0 
L 603 3500 
z
M 603 4863 
L 1178 4863 
L 1178 4134 
L 603 4134 
L 603 4863 
z
" transform="scale(0.015625)"/>
       <path id="DejaVuSans-7a" d="M 353 3500 
L 3084 3500 
L 3084 2975 
L 922 459 
L 3084 459 
L 3084 0 
L 275 0 
L 275 525 
L 2438 3041 
L 353 3041 
L 353 3500 
z
" transform="scale(0.015625)"/>
       <path id="DejaVuSans-65" d="M 3597 1894 
L 3597 1613 
L 953 1613 
Q 991 1019 1311 708 
Q 1631 397 2203 397 
Q 2534 397 2845 478 
Q 3156 559 3463 722 
L 3463 178 
Q 3153 47 2828 -22 
Q 2503 -91 2169 -91 
Q 1331 -91 842 396 
Q 353 884 353 1716 
Q 353 2575 817 3079 
Q 1281 3584 2069 3584 
Q 2775 3584 3186 3129 
Q 3597 2675 3597 1894 
z
M 3022 2063 
Q 3016 2534 2758 2815 
Q 2500 3097 2075 3097 
Q 1594 3097 1305 2825 
Q 1016 2553 972 2059 
L 3022 2063 
z
" transform="scale(0.015625)"/>
       <path id="DejaVuSans-64" d="M 2906 2969 
L 2906 4863 
L 3481 4863 
L 3481 0 
L 2906 0 
L 2906 525 
Q 2725 213 2448 61 
Q 2172 -91 1784 -91 
Q 1150 -91 751 415 
Q 353 922 353 1747 
Q 353 2572 751 3078 
Q 1150 3584 1784 3584 
Q 2172 3584 2448 3432 
Q 2725 3281 2906 2969 
z
M 947 1747 
Q 947 1113 1208 752 
Q 1469 391 1925 391 
Q 2381 391 2643 752 
Q 2906 1113 2906 1747 
Q 2906 2381 2643 2742 
Q 2381 3103 1925 3103 
Q 1469 3103 1208 2742 
Q 947 2381 947 1747 
z
" transform="scale(0.015625)"/>
       <path id="DejaVuSans-20" transform="scale(0.015625)"/>
       <path id="DejaVuSans-66" d="M 2375 4863 
L 2375 4384 
L 1825 4384 
Q 1516 4384 1395 4259 
Q 1275 4134 1275 3809 
L 1275 3500 
L 2222 3500 
L 2222 3053 
L 1275 3053 
L 1275 0 
L 697 0 
L 697 3053 
L 147 3053 
L 147 3500 
L 697 3500 
L 697 3744 
Q 697 4328 969 4595 
Q 1241 4863 1831 4863 
L 2375 4863 
z
" transform="scale(0.015625)"/>
       <path id="DejaVuSans-71" d="M 947 1747 
Q 947 1113 1208 752 
Q 1469 391 1925 391 
Q 2381 391 2643 752 
Q 2906 1113 2906 1747 
Q 2906 2381 2643 2742 
Q 2381 3103 1925 3103 
Q 1469 3103 1208 2742 
Q 947 2381 947 1747 
z
M 2906 525 
Q 2725 213 2448 61 
Q 2172 -91 1784 -91 
Q 1150 -91 751 415 
Q 353 922 353 1747 
Q 353 2572 751 3078 
Q 1150 3584 1784 3584 
Q 2172 3584 2448 3432 
Q 2725 3281 2906 2969 
L 2906 3500 
L 3481 3500 
L 3481 -1331 
L 2906 -1331 
L 2906 525 
z
" transform="scale(0.015625)"/>
       <path id="DejaVuSans-75" d="M 544 1381 
L 544 3500 
L 1119 3500 
L 1119 1403 
Q 1119 906 1312 657 
Q 1506 409 1894 409 
Q 2359 409 2629 706 
Q 2900 1003 2900 1516 
L 2900 3500 
L 3475 3500 
L 3475 0 
L 2900 0 
L 2900 538 
Q 2691 219 2414 64 
Q 2138 -91 1772 -91 
Q 1169 -91 856 284 
Q 544 659 544 1381 
z
M 1991 3584 
L 1991 3584 
z
" transform="scale(0.015625)"/>
       <path id="DejaVuSans-6e" d="M 3513 2113 
L 3513 0 
L 2938 0 
L 2938 2094 
Q 2938 2591 2744 2837 
Q 2550 3084 2163 3084 
Q 1697 3084 1428 2787 
Q 1159 2491 1159 1978 
L 1159 0 
L 581 0 
L 581 3500 
L 1159 3500 
L 1159 2956 
Q 1366 3272 1645 3428 
Q 1925 3584 2291 3584 
Q 2894 3584 3203 3211 
Q 3513 2838 3513 2113 
z
" transform="scale(0.015625)"/>
       <path id="DejaVuSans-63" d="M 3122 3366 
L 3122 2828 
Q 2878 2963 2633 3030 
Q 2388 3097 2138 3097 
Q 1578 3097 1268 2742 
Q 959 2388 959 1747 
Q 959 1106 1268 751 
Q 1578 397 2138 397 
Q 2388 397 2633 464 
Q 2878 531 3122 666 
L 3122 134 
Q 2881 22 2623 -34 
Q 2366 -91 2075 -91 
Q 1284 -91 818 406 
Q 353 903 353 1747 
Q 353 2603 823 3093 
Q 1294 3584 2113 3584 
Q 2378 3584 2631 3529 
Q 2884 3475 3122 3366 
z
" transform="scale(0.015625)"/>
       <path id="DejaVuSans-79" d="M 2059 -325 
Q 1816 -950 1584 -1140 
Q 1353 -1331 966 -1331 
L 506 -1331 
L 506 -850 
L 844 -850 
Q 1081 -850 1212 -737 
Q 1344 -625 1503 -206 
L 1606 56 
L 191 3500 
L 800 3500 
L 1894 763 
L 2988 3500 
L 3597 3500 
L 2059 -325 
z
" transform="scale(0.015625)"/>
       <path id="DejaVuSans-2c" d="M 750 794 
L 1409 794 
L 1409 256 
L 897 -744 
L 494 -744 
L 750 256 
L 750 794 
z
" transform="scale(0.015625)"/>
       <path id="DejaVuSans-Oblique-66" d="M 3059 4863 
L 2969 4384 
L 2419 4384 
Q 2106 4384 1964 4261 
Q 1822 4138 1753 3809 
L 1691 3500 
L 2638 3500 
L 2553 3053 
L 1606 3053 
L 1013 0 
L 434 0 
L 1031 3053 
L 481 3053 
L 563 3500 
L 1113 3500 
L 1159 3744 
Q 1278 4363 1576 4613 
Q 1875 4863 2516 4863 
L 3059 4863 
z
" transform="scale(0.015625)"/>
       <path id="DejaVuSans-2f" d="M 1625 4666 
L 2156 4666 
L 531 -594 
L 0 -594 
L 1625 4666 
z
" transform="scale(0.015625)"/>
       <path id="DejaVuSans-Oblique-73" d="M 3200 3397 
L 3091 2853 
Q 2863 2978 2609 3040 
Q 2356 3103 2088 3103 
Q 1634 3103 1373 2948 
Q 1113 2794 1113 2528 
Q 1113 2219 1719 2053 
Q 1766 2041 1788 2034 
L 1972 1978 
Q 2547 1819 2739 1644 
Q 2931 1469 2931 1166 
Q 2931 609 2489 259 
Q 2047 -91 1331 -91 
Q 1053 -91 747 -37 
Q 441 16 72 128 
L 184 722 
Q 500 559 806 475 
Q 1113 391 1394 391 
Q 1816 391 2080 572 
Q 2344 753 2344 1031 
Q 2344 1331 1650 1516 
L 1591 1531 
L 1394 1581 
Q 956 1697 753 1886 
Q 550 2075 550 2369 
Q 550 2928 970 3256 
Q 1391 3584 2113 3584 
Q 2397 3584 2667 3537 
Q 2938 3491 3200 3397 
z
" transform="scale(0.015625)"/>
      </defs>
      <use xlink:href="#DejaVuSans-4e" transform="translate(0 0.015625)"/>
      <use xlink:href="#DejaVuSans-6f" transform="translate(74.804688 0.015625)"/>
      <use xlink:href="#DejaVuSans-72" transform="translate(135.986328 0.015625)"/>
      <use xlink:href="#DejaVuSans-6d" transform="translate(177.099609 0.015625)"/>
      <use xlink:href="#DejaVuSans-61" transform="translate(274.511719 0.015625)"/>
      <use xlink:href="#DejaVuSans-6c" transform="translate(335.791016 0.015625)"/>
      <use xlink:href="#DejaVuSans-69" transform="translate(363.574219 0.015625)"/>
      <use xlink:href="#DejaVuSans-7a" transform="translate(391.357422 0.015625)"/>
      <use xlink:href="#DejaVuSans-65" transform="translate(443.847656 0.015625)"/>
      <use xlink:href="#DejaVuSans-64" transform="translate(505.371094 0.015625)"/>
      <use xlink:href="#DejaVuSans-20" transform="translate(568.847656 0.015625)"/>
      <use xlink:href="#DejaVuSans-66" transform="translate(600.634766 0.015625)"/>
      <use xlink:href="#DejaVuSans-72" transform="translate(635.839844 0.015625)"/>
      <use xlink:href="#DejaVuSans-65" transform="translate(676.953125 0.015625)"/>
      <use xlink:href="#DejaVuSans-71" transform="translate(738.476562 0.015625)"/>
      <use xlink:href="#DejaVuSans-75" transform="translate(801.953125 0.015625)"/>
      <use xlink:href="#DejaVuSans-65" transform="translate(865.332031 0.015625)"/>
      <use xlink:href="#DejaVuSans-6e" transform="translate(926.855469 0.015625)"/>
      <use xlink:href="#DejaVuSans-63" transform="translate(990.234375 0.015625)"/>
      <use xlink:href="#DejaVuSans-79" transform="translate(1045.214844 0.015625)"/>
      <use xlink:href="#DejaVuSans-2c" transform="translate(1104.394531 0.015625)"/>
      <use xlink:href="#DejaVuSans-20" transform="translate(1136.181641 0.015625)"/>
      <use xlink:href="#DejaVuSans-Oblique-66" transform="translate(1167.96875 0.015625)"/>
      <use xlink:href="#DejaVuSans-2f" transform="translate(1203.173828 0.015625)"/>
      <use xlink:href="#DejaVuSans-Oblique-66" transform="translate(1236.865234 0.015625)"/>
      <use xlink:href="#DejaVuSans-Oblique-73" transform="translate(1272.070312 -16.390625) scale(0.7)"/>
     </g>
    </g>
   </g>
   <g id="matplotlib.axis_2">
    <g id="ytick_1">
     <g id="line2d_13">
      <path d="M 57.167188 225.030965 
L 568.8 225.030965 
" clip-path="url(#p044d3c481c)" style="fill: none; stroke-dasharray: 2.96,1.28; stroke-dashoffset: 0; stroke: #b0b0b0; stroke-opacity: 0.8; stroke-width: 0.8"/>
     </g>
     <g id="line2d_14">
      <defs>
       <path id="m60945c9ce4" d="M 0 0 
L -3.5 0 
" style="stroke: #000000; stroke-width: 0.8"/>
      </defs>
      <g>
       <use xlink:href="#m60945c9ce4" x="57.167188" y="225.030965" style="stroke: #000000; stroke-width: 0.8"/>
      </g>
     </g>
     <g id="text_8">
      <!-- −200 -->
      <g transform="translate(22.7 228.830184) scale(0.1 -0.1)">
       <defs>
        <path id="DejaVuSans-2212" d="M 678 2272 
L 4684 2272 
L 4684 1741 
L 678 1741 
L 678 2272 
z
" transform="scale(0.015625)"/>
       </defs>
       <use xlink:href="#DejaVuSans-2212"/>
       <use xlink:href="#DejaVuSans-32" transform="translate(83.789062 0)"/>
       <use xlink:href="#DejaVuSans-30" transform="translate(147.412109 0)"/>
       <use xlink:href="#DejaVuSans-30" transform="translate(211.035156 0)"/>
      </g>
     </g>
    </g>
    <g id="ytick_2">
     <g id="line2d_15">
      <path d="M 57.167188 177.374836 
L 568.8 177.374836 
" clip-path="url(#p044d3c481c)" style="fill: none; stroke-dasharray: 2.96,1.28; stroke-dashoffset: 0; stroke: #b0b0b0; stroke-opacity: 0.8; stroke-width: 0.8"/>
     </g>
     <g id="line2d_16">
      <g>
       <use xlink:href="#m60945c9ce4" x="57.167188" y="177.374836" style="stroke: #000000; stroke-width: 0.8"/>
      </g>
     </g>
     <g id="text_9">
      <!-- −150 -->
      <g transform="translate(22.7 181.174055) scale(0.1 -0.1)">
       <use xlink:href="#DejaVuSans-2212"/>
       <use xlink:href="#DejaVuSans-31" transform="translate(83.789062 0)"/>
       <use xlink:href="#DejaVuSans-35" transform="translate(147.412109 0)"/>
       <use xlink:href="#DejaVuSans-30" transform="translate(211.035156 0)"/>
      </g>
     </g>
    </g>
    <g id="ytick_3">
     <g id="line2d_17">
      <path d="M 57.167188 129.718707 
L 568.8 129.718707 
" clip-path="url(#p044d3c481c)" style="fill: none; stroke-dasharray: 2.96,1.28; stroke-dashoffset: 0; stroke: #b0b0b0; stroke-opacity: 0.8; stroke-width: 0.8"/>
     </g>
     <g id="line2d_18">
      <g>
       <use xlink:href="#m60945c9ce4" x="57.167188" y="129.718707" style="stroke: #000000; stroke-width: 0.8"/>
      </g>
     </g>
     <g id="text_10">
      <!-- −100 -->
      <g transform="translate(22.7 133.517926) scale(0.1 -0.1)">
       <use xlink:href="#DejaVuSans-2212"/>
       <use xlink:href="#DejaVuSans-31" transform="translate(83.789062 0)"/>
       <use xlink:href="#DejaVuSans-30" transform="translate(147.412109 0)"/>
       <use xlink:href="#DejaVuSans-30" transform="translate(211.035156 0)"/>
      </g>
     </g>
    </g>
    <g id="ytick_4">
     <g id="line2d_19">
      <path d="M 57.167188 82.062578 
L 568.8 82.062578 
" clip-path="url(#p044d3c481c)" style="fill: none; stroke-dasharray: 2.96,1.28; stroke-dashoffset: 0; stroke: #b0b0b0; stroke-opacity: 0.8; stroke-width: 0.8"/>
     </g>
     <g id="line2d_20">
      <g>
       <use xlink:href="#m60945c9ce4" x="57.167188" y="82.062578" style="stroke: #000000; stroke-width: 0.8"/>
      </g>
     </g>
     <g id="text_11">
      <!-- −50 -->
      <g transform="translate(29.0625 85.861797) scale(0.1 -0.1)">
       <use xlink:href="#DejaVuSans-2212"/>
       <use xlink:href="#DejaVuSans-35" transform="translate(83.789062 0)"/>
       <use xlink:href="#DejaVuSans-30" transform="translate(147.412109 0)"/>
      </g>
     </g>
    </g>
    <g id="ytick_5">
     <g id="line2d_21">
      <path d="M 57.167188 34.406449 
L 568.8 34.406449 
" clip-path="url(#p044d3c481c)" style="fill: none; stroke-dasharray: 2.96,1.28; stroke-dashoffset: 0; stroke: #b0b0b0; stroke-opacity: 0.8; stroke-width: 0.8"/>
     </g>
     <g id="line2d_22">
      <g>
       <use xlink:href="#m60945c9ce4" x="57.167188" y="34.406449" style="stroke: #000000; stroke-width: 0.8"/>
      </g>
     </g>
     <g id="text_12">
      <!-- 0 -->
      <g transform="translate(43.804688 38.205668) scale(0.1 -0.1)">
       <use xlink:href="#DejaVuSans-30"/>
      </g>
     </g>
    </g>
    <g id="text_13">
     <!-- Power (dB), $|H(\omega)|^2$ -->
     <g transform="translate(16.3 185.470937) rotate(-90) scale(0.1 -0.1)">
      <defs>
       <path id="DejaVuSans-50" d="M 1259 4147 
L 1259 2394 
L 2053 2394 
Q 2494 2394 2734 2622 
Q 2975 2850 2975 3272 
Q 2975 3691 2734 3919 
Q 2494 4147 2053 4147 
L 1259 4147 
z
M 628 4666 
L 2053 4666 
Q 2838 4666 3239 4311 
Q 3641 3956 3641 3272 
Q 3641 2581 3239 2228 
Q 2838 1875 2053 1875 
L 1259 1875 
L 1259 0 
L 628 0 
L 628 4666 
z
" transform="scale(0.015625)"/>
       <path id="DejaVuSans-77" d="M 269 3500 
L 844 3500 
L 1563 769 
L 2278 3500 
L 2956 3500 
L 3675 769 
L 4391 3500 
L 4966 3500 
L 4050 0 
L 3372 0 
L 2619 2869 
L 1863 0 
L 1184 0 
L 269 3500 
z
" transform="scale(0.015625)"/>
       <path id="DejaVuSans-28" d="M 1984 4856 
Q 1566 4138 1362 3434 
Q 1159 2731 1159 2009 
Q 1159 1288 1364 580 
Q 1569 -128 1984 -844 
L 1484 -844 
Q 1016 -109 783 600 
Q 550 1309 550 2009 
Q 550 2706 781 3412 
Q 1013 4119 1484 4856 
L 1984 4856 
z
" transform="scale(0.015625)"/>
       <path id="DejaVuSans-42" d="M 1259 2228 
L 1259 519 
L 2272 519 
Q 2781 519 3026 730 
Q 3272 941 3272 1375 
Q 3272 1813 3026 2020 
Q 2781 2228 2272 2228 
L 1259 2228 
z
M 1259 4147 
L 1259 2741 
L 2194 2741 
Q 2656 2741 2882 2914 
Q 3109 3088 3109 3444 
Q 3109 3797 2882 3972 
Q 2656 4147 2194 4147 
L 1259 4147 
z
M 628 4666 
L 2241 4666 
Q 2963 4666 3353 4366 
Q 3744 4066 3744 3513 
Q 3744 3084 3544 2831 
Q 3344 2578 2956 2516 
Q 3422 2416 3680 2098 
Q 3938 1781 3938 1306 
Q 3938 681 3513 340 
Q 3088 0 2303 0 
L 628 0 
L 628 4666 
z
" transform="scale(0.015625)"/>
       <path id="DejaVuSans-29" d="M 513 4856 
L 1013 4856 
Q 1481 4119 1714 3412 
Q 1947 2706 1947 2009 
Q 1947 1309 1714 600 
Q 1481 -109 1013 -844 
L 513 -844 
Q 928 -128 1133 580 
Q 1338 1288 1338 2009 
Q 1338 2731 1133 3434 
Q 928 4138 513 4856 
z
" transform="scale(0.015625)"/>
       <path id="DejaVuSans-7c" d="M 1344 4891 
L 1344 -1509 
L 813 -1509 
L 813 4891 
L 1344 4891 
z
" transform="scale(0.015625)"/>
       <path id="DejaVuSans-Oblique-48" d="M 1081 4666 
L 1716 4666 
L 1344 2753 
L 3634 2753 
L 4006 4666 
L 4641 4666 
L 3731 0 
L 3097 0 
L 3531 2222 
L 1241 2222 
L 806 0 
L 172 0 
L 1081 4666 
z
" transform="scale(0.015625)"/>
       <path id="DejaVuSans-Oblique-3c9" d="M 1369 -91 
Q 72 -91 434 1766 
Q 575 2500 1256 3500 
L 1875 3500 
Q 1231 2500 1088 1750 
Q 819 397 1519 397 
Q 2166 397 2478 2078 
L 3009 2078 
Q 2669 388 3316 397 
Q 4013 403 4275 1750 
Q 4419 2500 4169 3500 
L 4788 3500 
Q 5075 2500 4934 1766 
Q 4578 -94 3278 -91 
Q 2428 -88 2503 844 
Q 2194 -91 1369 -91 
z
" transform="scale(0.015625)"/>
      </defs>
      <use xlink:href="#DejaVuSans-50" transform="translate(0 0.765625)"/>
      <use xlink:href="#DejaVuSans-6f" transform="translate(60.302734 0.765625)"/>
      <use xlink:href="#DejaVuSans-77" transform="translate(121.484375 0.765625)"/>
      <use xlink:href="#DejaVuSans-65" transform="translate(203.271484 0.765625)"/>
      <use xlink:href="#DejaVuSans-72" transform="translate(264.794922 0.765625)"/>
      <use xlink:href="#DejaVuSans-20" transform="translate(305.908203 0.765625)"/>
      <use xlink:href="#DejaVuSans-28" transform="translate(337.695312 0.765625)"/>
      <use xlink:href="#DejaVuSans-64" transform="translate(376.708984 0.765625)"/>
      <use xlink:href="#DejaVuSans-42" transform="translate(440.185547 0.765625)"/>
      <use xlink:href="#DejaVuSans-29" transform="translate(508.789062 0.765625)"/>
      <use xlink:href="#DejaVuSans-2c" transform="translate(547.802734 0.765625)"/>
      <use xlink:href="#DejaVuSans-20" transform="translate(579.589844 0.765625)"/>
      <use xlink:href="#DejaVuSans-7c" transform="translate(611.376953 0.765625)"/>
      <use xlink:href="#DejaVuSans-Oblique-48" transform="translate(645.068359 0.765625)"/>
      <use xlink:href="#DejaVuSans-28" transform="translate(720.263672 0.765625)"/>
      <use xlink:href="#DejaVuSans-Oblique-3c9" transform="translate(759.277344 0.765625)"/>
      <use xlink:href="#DejaVuSans-29" transform="translate(843.017578 0.765625)"/>
      <use xlink:href="#DejaVuSans-7c" transform="translate(882.03125 0.765625)"/>
      <use xlink:href="#DejaVuSans-32" transform="translate(916.679688 39.046875) scale(0.7)"/>
     </g>
    </g>
   </g>
   <g id="line2d_23">
    <path d="M 80.423224 34.406449 
L 82.696542 34.534113 
L 84.969859 34.919799 
L 87.243177 35.571877 
L 89.516494 36.505345 
L 91.335148 37.47015 
L 93.153802 38.647138 
L 94.972456 40.060249 
L 96.79111 41.743194 
L 98.609764 43.744932 
L 100.428417 46.140109 
L 101.792408 48.265383 
L 103.156398 50.763407 
L 104.520389 53.77844 
L 105.429716 56.204226 
L 106.339043 59.137795 
L 107.24837 62.907499 
L 107.703033 65.33108 
L 108.157697 68.40119 
L 108.61236 72.712963 
L 109.521687 88.063044 
L 109.976351 76.4899 
L 110.431014 72.338926 
L 110.885677 69.947412 
L 111.340341 68.381426 
L 111.795004 67.306624 
L 112.249668 66.565802 
L 112.704331 66.073598 
L 113.158995 65.779697 
L 113.613658 65.653282 
L 114.068322 65.675639 
L 114.522985 65.836432 
L 114.977649 66.131885 
L 115.886976 67.141618 
L 116.796303 68.806916 
L 117.70563 71.425101 
L 118.160293 73.316371 
L 118.614957 75.895252 
L 119.06962 79.803463 
L 119.524284 87.687187 
L 119.978947 91.868644 
L 120.433611 81.147537 
L 120.888274 76.668464 
L 121.342938 73.827803 
L 122.252264 70.182298 
L 123.161591 67.863097 
L 124.070918 66.268282 
L 124.980245 65.152114 
L 125.889572 64.391789 
L 126.798899 63.919451 
L 127.708226 63.696549 
L 128.617553 63.702774 
L 129.52688 63.931254 
L 130.436207 64.38717 
L 131.345534 65.089095 
L 132.254861 66.073772 
L 133.164188 67.407181 
L 134.073515 69.210332 
L 134.982842 71.727939 
L 135.437505 73.412977 
L 135.892169 75.565314 
L 136.346832 78.506994 
L 136.801496 83.115484 
L 137.256159 94.279985 
L 137.710823 89.338376 
L 138.165486 81.682694 
L 138.62015 77.853935 
L 139.074813 75.318345 
L 139.98414 71.98868 
L 140.893467 69.842991 
L 141.802794 68.360805 
L 142.712121 67.322904 
L 143.621448 66.618386 
L 144.530775 66.185882 
L 145.440102 65.990874 
L 146.349429 66.015808 
L 147.258756 66.25585 
L 148.168083 66.717811 
L 149.07741 67.421703 
L 149.986737 68.405733 
L 150.896064 69.737712 
L 151.805391 71.541632 
L 152.714718 74.068767 
L 153.169381 75.766988 
L 153.624044 77.94569 
L 154.078708 80.944742 
L 154.533371 85.713309 
L 154.988035 98.108447 
L 155.897362 83.532459 
L 156.352025 79.807439 
L 156.806689 77.311552 
L 157.716016 74.003631 
L 158.625343 71.851783 
L 159.53467 70.35177 
L 160.443997 69.289411 
L 161.353324 68.555767 
L 162.262651 68.090254 
L 163.171978 67.858528 
L 164.081304 67.842787 
L 164.990631 68.037517 
L 165.899958 68.448293 
L 166.809285 69.093006 
L 167.718612 70.006151 
L 168.627939 71.248609 
L 169.537266 72.929959 
L 170.446593 75.265995 
L 170.901257 76.814545 
L 171.35592 78.766185 
L 171.810584 81.367172 
L 172.265247 85.217656 
L 173.174574 99.285121 
L 173.629238 87.423332 
L 174.083901 82.799698 
L 174.538565 79.910022 
L 175.447891 76.225019 
L 176.357218 73.877559 
L 177.266545 72.24784 
L 178.175872 71.086291 
L 179.085199 70.269296 
L 179.994526 69.728849 
L 180.903853 69.426169 
L 181.81318 69.340289 
L 182.722507 69.46294 
L 183.631834 69.796743 
L 184.541161 70.35577 
L 185.450488 71.168772 
L 186.359815 72.286789 
L 187.269142 73.800165 
L 188.178469 75.88021 
L 189.087796 78.903139 
L 189.542459 81.043108 
L 189.997123 83.982795 
L 190.451786 88.624924 
L 190.90645 100.179297 
L 191.361113 94.356906 
L 191.815777 86.847021 
L 192.27044 83.031257 
L 192.725104 80.48417 
L 193.634431 77.108445 
L 194.543758 74.904113 
L 195.453085 73.356603 
L 196.362411 72.248363 
L 197.271738 71.468906 
L 198.181065 70.956694 
L 199.090392 70.6766 
L 199.999719 70.609997 
L 200.909046 70.750346 
L 201.818373 71.101775 
L 202.7277 71.679976 
L 203.637027 72.515818 
L 204.546354 73.663677 
L 205.455681 75.220095 
L 206.365008 77.370192 
L 207.274335 80.529788 
L 207.728998 82.802269 
L 208.183662 85.994711 
L 208.638325 91.307365 
L 209.092989 110.372483 
L 209.547652 93.208823 
L 210.002316 87.018426 
L 210.456979 83.568658 
L 211.366306 79.400972 
L 212.275633 76.820017 
L 213.18496 75.040574 
L 214.094287 73.766805 
L 215.003614 72.856847 
L 215.912941 72.233823 
L 216.822268 71.853851 
L 217.731595 71.692499 
L 218.640922 71.738657 
L 219.550249 71.99208 
L 220.459576 72.463333 
L 221.368903 73.176128 
L 222.27823 74.173221 
L 223.187557 75.529475 
L 224.096884 77.382507 
L 225.006211 80.017162 
L 225.460874 81.818981 
L 225.915538 84.177841 
L 226.370201 87.542478 
L 226.824865 93.36013 
L 227.279528 125.888449 
L 227.734192 93.087683 
L 228.188855 87.477394 
L 228.643518 84.213478 
L 229.552845 80.190258 
L 230.462172 77.66867 
L 231.371499 75.920545 
L 232.280826 74.665458 
L 233.190153 73.767479 
L 234.09948 73.152523 
L 235.008807 72.778228 
L 235.918134 72.621097 
L 236.827461 72.67067 
L 237.736788 72.927233 
L 238.646115 73.40187 
L 239.555442 74.118921 
L 240.464769 75.122059 
L 241.374096 76.487743 
L 242.283423 78.356903 
L 243.19275 81.022913 
L 243.647413 82.853485 
L 244.102077 85.261728 
L 244.55674 88.728283 
L 245.011404 94.867477 
L 245.466067 113.931771 
L 245.920731 93.399907 
L 246.375394 88.061687 
L 246.830058 84.890446 
L 247.739385 80.940279 
L 248.648712 78.44811 
L 249.558038 76.714678 
L 250.467365 75.467564 
L 251.376692 74.573953 
L 252.286019 73.961236 
L 253.195346 73.587857 
L 254.104673 73.430807 
L 255.014 73.479964 
L 255.923327 73.735875 
L 256.832654 74.209878 
L 257.741981 74.926595 
L 258.651308 75.930113 
L 259.560635 77.297588 
L 260.469962 79.171392 
L 261.379289 81.848636 
L 261.833952 83.690542 
L 262.288616 86.11924 
L 262.743279 89.629867 
L 263.197943 95.916122 
L 263.652606 112.306216 
L 264.10727 93.934341 
L 264.561933 88.702344 
L 265.016597 85.567608 
L 265.925924 81.645114 
L 266.835251 79.162669 
L 267.744578 77.432814 
L 268.653905 76.186435 
L 269.563232 75.292006 
L 270.472558 74.677529 
L 271.381885 74.301773 
L 272.291212 74.141919 
L 273.200539 74.187964 
L 274.109866 74.440536 
L 275.019193 74.911025 
L 275.92852 75.624098 
L 276.837847 76.623871 
L 277.747174 77.987534 
L 278.656501 79.857498 
L 279.565828 82.530949 
L 280.020492 84.371036 
L 280.475155 86.798063 
L 280.929819 90.307428 
L 281.384482 96.594271 
L 281.839145 112.940839 
L 282.293809 94.599267 
L 282.748472 89.366995 
L 283.203136 86.230778 
L 284.112463 82.304499 
L 285.02179 79.817903 
L 285.931117 78.083731 
L 286.840444 76.832919 
L 287.749771 75.933956 
L 288.659098 75.314841 
L 289.568425 74.934327 
L 290.477752 74.769574 
L 291.387079 74.810542 
L 292.296405 75.057803 
L 293.205732 75.52266 
L 294.115059 76.229637 
L 295.024386 77.222605 
L 295.933713 78.578284 
L 296.84304 80.438076 
L 297.752367 83.096504 
L 298.207031 84.924933 
L 298.661694 87.333718 
L 299.116358 90.807811 
L 299.571021 96.984899 
L 300.025685 115.163005 
L 300.480348 95.351222 
L 300.935012 90.03974 
L 301.389675 86.8738 
L 302.299002 82.920313 
L 303.208329 80.419224 
L 304.117656 78.674849 
L 305.026983 77.41575 
L 305.93631 76.509478 
L 306.845637 75.883572 
L 307.754964 75.496521 
L 308.664291 75.3253 
L 309.573618 75.359715 
L 310.482945 75.600183 
L 311.392272 76.057813 
L 312.301599 76.756849 
L 313.210925 77.740706 
L 314.120252 79.085264 
L 315.029579 80.930135 
L 315.938906 83.565166 
L 316.39357 85.374656 
L 316.848233 87.753058 
L 317.302897 91.167437 
L 317.75756 97.159733 
L 318.212224 119.752255 
L 318.666887 96.16978 
L 319.121551 90.712827 
L 319.576214 87.494374 
L 320.485541 83.495139 
L 321.394868 80.971475 
L 322.304195 79.212324 
L 323.213522 77.941955 
L 324.122849 77.026231 
L 325.032176 76.391877 
L 325.941503 75.996918 
L 326.85083 75.818022 
L 327.760157 75.844754 
L 328.669484 76.077293 
L 329.578811 76.526475 
L 330.488138 77.216161 
L 331.397465 78.189153 
L 332.306792 79.520216 
L 333.216119 81.3466 
L 334.125446 83.952032 
L 334.580109 85.737276 
L 335.034772 88.07663 
L 335.489436 91.414546 
L 335.944099 97.17656 
L 336.398763 135.973049 
L 336.853426 97.047209 
L 337.30809 91.382837 
L 337.762753 88.09212 
L 338.67208 84.031657 
L 339.581407 81.478836 
L 340.490734 79.701229 
L 341.400061 78.417208 
L 342.309388 77.490332 
L 343.218715 76.846219 
L 344.128042 76.442273 
L 345.037369 76.254757 
L 345.946696 76.27292 
L 346.856023 76.496647 
L 347.76535 76.936436 
L 348.674677 77.615688 
L 349.584004 78.576476 
L 350.493331 79.892243 
L 351.402658 81.697472 
L 352.311985 84.26876 
L 352.766648 86.025973 
L 353.221312 88.320302 
L 353.675975 91.570974 
L 354.130639 97.079525 
L 354.585302 121.747673 
L 355.039966 97.983961 
L 355.494629 92.048807 
L 355.949292 88.667622 
L 356.858619 84.532388 
L 357.767946 81.944853 
L 358.677273 80.14574 
L 359.5866 78.846112 
L 360.495927 77.9067 
L 361.405254 77.25177 
L 362.314581 76.837972 
L 363.223908 76.641081 
L 364.133235 76.649974 
L 365.042562 76.864195 
L 365.951889 77.293854 
L 366.861216 77.961833 
L 367.770543 78.90939 
L 368.67987 80.208503 
L 369.589197 81.990596 
L 370.498524 84.524473 
L 370.953187 86.251038 
L 371.407851 88.496427 
L 371.862514 91.653575 
L 372.317178 96.901093 
L 372.771841 115.114645 
L 373.226505 98.986921 
L 373.681168 92.711256 
L 374.135832 89.221934 
L 375.045159 84.999595 
L 375.954486 82.372506 
L 376.863812 80.549289 
L 377.773139 79.232417 
L 378.682466 78.27932 
L 379.591793 77.612702 
L 380.50112 77.188345 
L 381.410447 76.981469 
L 382.319774 76.980532 
L 383.229101 77.184695 
L 384.138428 77.603647 
L 385.047755 78.259704 
L 385.957082 79.193247 
L 386.866409 80.474687 
L 387.775736 82.232201 
L 388.685063 84.726389 
L 389.139726 86.420589 
L 389.59439 88.614685 
L 390.049053 91.675343 
L 390.503717 96.664511 
L 390.95838 111.413393 
L 391.413044 100.069299 
L 391.867707 93.371676 
L 392.322371 89.756319 
L 393.231698 85.435251 
L 394.141025 82.764278 
L 395.050352 80.914695 
L 395.959679 79.579174 
L 396.869006 78.611423 
L 397.778333 77.93239 
L 398.687659 77.496892 
L 399.596986 77.279533 
L 400.506313 77.268312 
L 401.41564 77.46198 
L 402.324967 77.869772 
L 403.234294 78.513408 
L 404.143621 79.432345 
L 405.052948 80.695362 
L 405.962275 82.427271 
L 406.871602 84.88026 
L 407.326266 86.541068 
L 407.780929 88.682699 
L 408.235593 91.64629 
L 408.690256 96.386112 
L 409.144919 108.834986 
L 410.054246 94.032267 
L 410.50891 90.272112 
L 410.963573 87.736525 
L 411.8729 84.344073 
L 412.782227 82.103974 
L 413.691554 80.512924 
L 414.600881 79.356868 
L 415.510208 78.526684 
L 416.419535 77.961391 
L 417.328862 77.626013 
L 418.238189 77.501806 
L 419.147516 77.581858 
L 420.056843 77.869616 
L 420.96617 78.379615 
L 421.875497 79.140747 
L 422.784824 80.203818 
L 423.694151 81.658302 
L 424.603478 83.67317 
L 425.512805 86.617621 
L 425.967468 88.706494 
L 426.422132 91.574127 
L 426.876795 96.077191 
L 427.331459 106.854455 
L 427.786122 102.566488 
L 428.240786 94.695818 
L 428.695449 90.770639 
L 429.150113 88.158621 
L 430.059439 84.691538 
L 430.968766 82.413046 
L 431.878093 80.797259 
L 432.78742 79.622984 
L 433.696747 78.778104 
L 434.606074 78.200123 
L 435.515401 77.853185 
L 436.424728 77.717948 
L 437.334055 77.787024 
L 438.243382 78.063398 
L 439.152709 78.561055 
L 440.062036 79.308116 
L 440.971363 80.354129 
L 441.88069 81.786203 
L 442.790017 83.768081 
L 443.699344 86.654367 
L 444.154007 88.690842 
L 444.608671 91.464784 
L 445.063334 95.74545 
L 445.517998 105.243455 
L 445.972661 104.061798 
L 446.427325 95.365682 
L 446.881988 91.253177 
L 447.336652 88.557091 
L 448.245979 85.009559 
L 449.155306 82.690344 
L 450.064633 81.048581 
L 450.97396 79.855319 
L 451.883286 78.995213 
L 452.792613 78.404155 
L 453.70194 78.045349 
L 454.611267 77.898826 
L 455.520594 77.956701 
L 456.429921 78.22148 
L 457.339248 78.706589 
L 458.248575 79.439371 
L 459.157902 80.468107 
L 460.067229 81.877544 
L 460.976556 83.826257 
L 461.885883 86.654603 
L 462.340546 88.639518 
L 462.79521 91.322811 
L 463.249873 95.396044 
L 463.704537 103.881132 
L 464.1592 105.817267 
L 464.613864 96.045814 
L 465.068527 91.720923 
L 465.523191 88.932817 
L 466.432518 85.299097 
L 467.341845 82.936971 
L 468.251172 81.268105 
L 469.160499 80.055173 
L 470.069826 79.179384 
L 470.979153 78.574914 
L 471.88848 78.203984 
L 472.797806 78.045968 
L 473.707133 78.092464 
L 474.61646 78.345492 
L 475.525787 78.81791 
L 476.435114 79.536278 
L 477.344441 80.547614 
L 478.253768 81.934329 
L 479.163095 83.849922 
L 480.072422 86.62096 
L 480.527086 88.555502 
L 480.981749 91.151676 
L 481.436413 95.032332 
L 481.891076 102.695451 
L 482.34574 107.973477 
L 482.800403 96.740881 
L 483.255066 92.174982 
L 483.70973 89.286478 
L 484.619057 85.560854 
L 485.528384 83.153746 
L 486.437711 81.456747 
L 487.347038 80.223537 
L 488.256365 79.331664 
L 489.165692 78.713501 
L 490.075019 78.330235 
L 490.984346 78.160559 
L 491.893673 78.195543 
L 492.803 78.436708 
L 493.712327 78.896343 
L 494.621653 79.600224 
L 495.53098 80.59412 
L 496.440307 81.958144 
L 497.349634 83.840842 
L 498.258961 86.555518 
L 498.713625 88.441122 
L 499.168288 90.954 
L 499.622952 94.656408 
L 500.077615 101.639877 
L 500.532279 110.815926 
L 500.986942 97.456425 
L 501.441606 92.616346 
L 501.896269 89.618538 
L 502.805596 85.795278 
L 503.714923 83.341222 
L 504.62425 81.615145 
L 505.533577 80.361116 
L 506.442904 79.452814 
L 507.352231 78.82072 
L 508.261558 78.424946 
L 509.170885 78.243483 
L 510.080212 78.266858 
L 510.989539 78.496088 
L 511.898866 78.942892 
L 512.808193 79.632269 
L 513.71752 80.608756 
L 514.626847 81.950214 
L 515.536173 83.800394 
L 516.4455 86.459898 
L 516.900164 88.298175 
L 517.354827 90.73173 
L 517.809491 94.269466 
L 518.264154 100.682538 
L 518.718818 115.082898 
L 519.173481 98.199118 
L 519.628145 93.045878 
L 520.082808 89.929237 
L 520.992135 86.002573 
L 521.901462 83.499698 
L 522.810789 81.743681 
L 523.720116 80.468355 
L 524.629443 79.543328 
L 525.53877 78.897107 
L 526.448097 78.488691 
L 527.357424 78.295346 
L 528.266751 78.307049 
L 529.176078 78.524309 
L 530.085405 78.958275 
L 530.994732 79.633178 
L 531.904059 80.592348 
L 532.813386 81.911454 
L 533.722713 83.729611 
L 534.63204 86.335327 
L 535.086703 88.128009 
L 535.541367 90.486267 
L 535.99603 93.872061 
L 536.450693 99.800603 
L 536.905357 124.197011 
L 537.36002 98.977119 
L 537.814684 93.464281 
L 538.269347 90.218573 
L 539.178674 86.182691 
L 540.088001 83.629227 
L 540.997328 81.842488 
L 541.906655 80.545449 
L 542.815982 79.60345 
L 543.725309 78.942945 
L 544.634636 78.521787 
L 545.543963 78.316499 
L 545.543963 78.316499 
" clip-path="url(#p044d3c481c)" style="fill: none; stroke: #1f77b4; stroke-linecap: square"/>
   </g>
   <g id="line2d_24">
    <path d="M 80.423224 34.406449 
L 84.060532 34.515703 
L 87.69784 34.843527 
L 91.335148 35.390092 
L 94.972456 36.155644 
L 98.609764 37.140445 
L 102.247071 38.344696 
L 105.884379 39.768454 
L 109.521687 41.411552 
L 113.613658 43.52166 
L 117.70563 45.907814 
L 121.797601 48.568889 
L 125.889572 51.504236 
L 129.981544 54.714657 
L 134.073515 58.203571 
L 138.165486 61.977724 
L 142.257458 66.046 
L 146.349429 70.413839 
L 150.896064 75.603327 
L 156.806689 82.745886 
L 170.446593 99.683977 
L 172.265247 102.396831 
L 173.629238 104.740409 
L 174.993228 107.518731 
L 175.902555 109.750329 
L 176.811882 112.472153 
L 177.721209 116.037692 
L 178.175872 118.384321 
L 178.630536 121.433236 
L 179.085199 125.899814 
L 179.539863 134.998023 
L 179.994526 136.284466 
L 180.44919 127.192368 
L 180.903853 123.248625 
L 181.358517 120.800558 
L 181.81318 119.08587 
L 182.722507 116.840522 
L 183.631834 115.50643 
L 184.541161 114.740797 
L 185.450488 114.39364 
L 186.359815 114.395644 
L 187.269142 114.721965 
L 188.178469 115.381178 
L 189.087796 116.418035 
L 189.997123 117.932627 
L 190.90645 120.137675 
L 191.361113 121.636163 
L 191.815777 123.55271 
L 192.27044 126.144879 
L 192.725104 130.052633 
L 193.179767 137.900562 
L 193.634431 142.231904 
L 194.089094 131.426471 
L 194.543758 126.917701 
L 194.998421 124.049072 
L 195.907748 120.339842 
L 196.817075 117.944454 
L 197.726402 116.261915 
L 198.635729 115.04774 
L 199.545056 114.180073 
L 200.454383 113.59159 
L 201.36371 113.2438 
L 202.273037 113.115892 
L 203.182364 113.199746 
L 204.091691 113.498201 
L 205.001018 114.025713 
L 205.910345 114.811726 
L 206.819671 115.908584 
L 207.728998 117.409272 
L 208.638325 119.491188 
L 209.547652 122.548103 
L 210.002316 124.734322 
L 210.456979 127.77313 
L 210.911643 132.690172 
L 211.366306 146.606036 
L 211.82097 136.580096 
L 212.275633 129.73665 
L 212.730297 126.089552 
L 213.18496 123.615422 
L 214.094287 120.300492 
L 215.003614 118.118541 
L 215.912941 116.580348 
L 216.822268 115.476599 
L 217.731595 114.700472 
L 218.640922 114.192523 
L 219.550249 113.919152 
L 220.459576 113.863158 
L 221.368903 114.019633 
L 222.27823 114.394882 
L 223.187557 115.007825 
L 224.096884 115.894595 
L 225.006211 117.118985 
L 225.915538 118.796473 
L 226.824865 121.157071 
L 227.279528 122.739737 
L 227.734192 124.755923 
L 228.188855 127.486652 
L 228.643518 131.653719 
L 229.098182 140.533891 
L 229.552845 141.210346 
L 230.007509 131.923738 
L 230.462172 127.702206 
L 230.916836 124.967231 
L 231.826163 121.400866 
L 232.73549 119.090775 
L 233.644817 117.470172 
L 234.554144 116.305412 
L 235.463471 115.479444 
L 236.372798 114.927608 
L 237.282125 114.613167 
L 238.191452 114.51668 
L 239.100778 114.631284 
L 240.010105 114.961188 
L 240.919432 115.522593 
L 241.828759 116.347513 
L 242.738086 117.492608 
L 243.647413 119.059163 
L 244.55674 121.243509 
L 245.466067 124.495101 
L 245.920731 126.870087 
L 246.375394 130.276373 
L 246.830058 136.239357 
L 247.284721 159.910358 
L 247.739385 135.373535 
L 248.194048 129.893842 
L 248.648712 126.670713 
L 249.558038 122.674642 
L 250.467365 120.160462 
L 251.376692 118.414381 
L 252.286019 117.160041 
L 253.195346 116.263235 
L 254.104673 115.650869 
L 255.014 115.281353 
L 255.923327 115.131962 
L 256.832654 115.193175 
L 257.741981 115.466553 
L 258.651308 115.965081 
L 259.560635 116.716135 
L 260.469962 117.768651 
L 261.379289 119.209138 
L 262.288616 121.200538 
L 263.197943 124.095756 
L 263.652606 126.13501 
L 264.10727 128.907991 
L 264.561933 133.175363 
L 265.016597 142.565972 
L 265.47126 141.71705 
L 265.925924 132.932173 
L 266.380587 128.809545 
L 266.835251 126.115532 
L 267.744578 122.583237 
L 268.653905 120.285461 
L 269.563232 118.66869 
L 270.472558 117.503291 
L 271.381885 116.673802 
L 272.291212 116.116271 
L 273.200539 115.794267 
L 274.109866 115.68841 
L 275.019193 115.791717 
L 275.92852 116.108073 
L 276.837847 116.653075 
L 277.747174 117.457656 
L 278.656501 118.576475 
L 279.565828 120.106782 
L 280.475155 122.235462 
L 281.384482 125.383685 
L 281.839145 127.659721 
L 282.293809 130.873174 
L 282.748472 136.271361 
L 283.203136 157.480661 
L 283.657799 137.682731 
L 284.112463 131.612498 
L 284.567126 128.191158 
L 285.476453 124.030273 
L 286.38578 121.438469 
L 287.295107 119.643163 
L 288.204434 118.351941 
L 289.113761 117.42432 
L 290.023088 116.784155 
L 290.932415 116.388074 
L 291.841742 116.212103 
L 292.751069 116.24564 
L 293.660396 116.489099 
L 294.569723 116.953999 
L 295.47905 117.665549 
L 296.388377 118.669063 
L 297.297704 120.04423 
L 298.207031 121.939074 
L 299.116358 124.665881 
L 299.571021 126.556736 
L 300.025685 129.072992 
L 300.480348 132.773102 
L 300.935012 139.724688 
L 301.389675 149.205912 
L 301.844339 135.677128 
L 302.299002 130.82782 
L 302.753665 127.833163 
L 303.662992 124.025785 
L 304.572319 121.592529 
L 305.481646 119.889948 
L 306.390973 118.661564 
L 307.3003 117.78096 
L 308.209627 117.17873 
L 309.118954 116.815249 
L 310.028281 116.668936 
L 310.937608 116.730969 
L 311.846935 117.003353 
L 312.756262 117.499346 
L 313.665589 118.246469 
L 314.574916 119.293674 
L 315.484243 120.7273 
L 316.39357 122.709728 
L 317.302897 125.592118 
L 317.75756 127.621825 
L 318.212224 130.380071 
L 318.666887 134.617325 
L 319.121551 143.867212 
L 319.576214 143.403937 
L 320.030878 134.492023 
L 320.485541 130.339791 
L 320.940205 127.630442 
L 321.849532 124.078929 
L 322.758859 121.766625 
L 323.668185 120.13662 
L 324.577512 118.958197 
L 325.486839 118.115392 
L 326.396166 117.54393 
L 327.305493 117.207099 
L 328.21482 117.085219 
L 329.124147 117.170917 
L 330.033474 117.46753 
L 330.942801 117.989817 
L 331.852128 118.767344 
L 332.761455 119.852344 
L 333.670782 121.337284 
L 334.580109 123.398088 
L 335.489436 126.423966 
L 335.944099 128.586364 
L 336.398763 131.586791 
L 336.853426 136.416864 
L 337.30809 149.600059 
L 338.217417 133.732243 
L 338.67208 130.02953 
L 339.126744 127.523167 
L 340.036071 124.16417 
L 340.945398 121.94649 
L 341.854725 120.374394 
L 342.764052 119.236323 
L 343.673379 118.424315 
L 344.582706 117.878098 
L 345.492032 117.563278 
L 346.401359 117.461708 
L 347.310686 117.567214 
L 348.220013 117.884261 
L 349.12934 118.428913 
L 350.038667 119.232546 
L 350.947994 120.350353 
L 351.857321 121.880417 
L 352.766648 124.011348 
L 353.675975 127.169205 
L 354.130639 129.457778 
L 354.585302 132.699175 
L 355.039966 138.184297 
L 355.494629 162.049548 
L 355.949292 139.182235 
L 356.403956 133.220251 
L 356.858619 129.830136 
L 357.767946 125.687829 
L 358.677273 123.097906 
L 359.5866 121.298601 
L 360.495927 120.000371 
L 361.405254 119.063785 
L 362.314581 118.413133 
L 363.223908 118.005203 
L 364.133235 117.816013 
L 365.042562 117.834825 
L 365.951889 118.061764 
L 366.861216 118.507851 
L 367.770543 119.197438 
L 368.67987 120.174332 
L 369.589197 121.515315 
L 370.498524 123.362085 
L 371.407851 126.010114 
L 371.862514 127.835192 
L 372.317178 130.243297 
L 372.771841 133.723309 
L 373.226505 139.934411 
L 373.681168 157.371768 
L 374.135832 138.149716 
L 374.590495 132.861896 
L 375.045159 129.700774 
L 375.954486 125.745128 
L 376.863812 123.237761 
L 377.773139 121.486248 
L 378.682466 120.220115 
L 379.591793 119.30735 
L 380.50112 118.675782 
L 381.410447 118.284159 
L 382.319774 118.109747 
L 383.229101 118.142731 
L 384.138428 118.384058 
L 385.047755 118.845635 
L 385.957082 119.552991 
L 386.866409 120.551752 
L 387.775736 121.921998 
L 388.685063 123.812419 
L 389.59439 126.53691 
L 390.049053 128.42879 
L 390.503717 130.94987 
L 390.95838 134.665352 
L 391.413044 141.685468 
L 391.867707 150.641966 
L 392.322371 137.421741 
L 392.777034 132.60173 
L 393.231698 129.61498 
L 394.141025 125.807863 
L 395.050352 123.36806 
L 395.959679 121.656168 
L 396.869006 120.416843 
L 397.778333 119.524072 
L 398.687659 118.908583 
L 399.596986 118.53075 
L 400.506313 118.368885 
L 401.41564 118.413957 
L 402.324967 118.667619 
L 403.234294 119.142561 
L 404.143621 119.865354 
L 405.052948 120.883265 
L 405.962275 122.279369 
L 406.871602 124.208796 
L 407.780929 127.002723 
L 408.235593 128.956355 
L 408.690256 131.584156 
L 409.144919 135.531609 
L 409.599583 143.461373 
L 410.054246 147.55295 
L 410.50891 136.881191 
L 410.963573 132.404581 
L 411.418237 129.554756 
L 412.327564 125.868354 
L 413.236891 123.484711 
L 414.146218 121.806095 
L 415.055545 120.589415 
L 415.964872 119.7136 
L 416.874199 119.11179 
L 417.783526 118.745724 
L 418.692853 118.594602 
L 419.602179 118.650067 
L 420.511506 118.91439 
L 421.420833 119.400952 
L 422.33016 120.137255 
L 423.239487 121.172051 
L 424.148814 122.591152 
L 425.058141 124.555629 
L 425.967468 127.412882 
L 426.422132 129.423766 
L 426.876795 132.15255 
L 427.331459 136.32864 
L 427.786122 145.295415 
L 428.240786 145.653048 
L 428.695449 136.460478 
L 429.150113 132.246821 
L 429.604776 129.50735 
L 430.514103 125.920956 
L 431.42343 123.584693 
L 432.332757 121.934389 
L 433.242084 120.737068 
L 434.151411 119.875791 
L 435.060738 119.285739 
L 435.970065 118.929814 
L 436.879392 118.787981 
L 437.788719 118.852468 
L 438.698046 119.126091 
L 439.607373 119.622847 
L 440.5167 120.371082 
L 441.426026 121.420899 
L 442.335353 122.860622 
L 443.24468 124.856838 
L 444.154007 127.772226 
L 444.608671 129.836478 
L 445.063334 132.661216 
L 445.517998 137.063382 
L 445.972661 147.237105 
L 446.427325 144.326817 
L 446.881988 136.117076 
L 447.336652 132.111799 
L 447.791315 129.463372 
L 448.700642 125.961367 
L 449.609969 123.665693 
L 450.519296 122.039811 
L 451.428623 120.859251 
L 452.33795 120.010593 
L 453.247277 119.430769 
L 454.156604 119.083687 
L 455.065931 118.949978 
L 455.975258 119.022388 
L 456.884585 119.304218 
L 457.793912 119.810022 
L 458.703239 120.568914 
L 459.612566 121.632243 
L 460.521893 123.09066 
L 461.43122 125.115909 
L 462.340546 128.085164 
L 462.79521 130.199572 
L 463.249873 133.116148 
L 463.704537 137.743298 
L 464.1592 149.365827 
L 465.523191 131.987268 
L 465.977854 129.415642 
L 466.887181 125.986185 
L 467.796508 123.725851 
L 468.705835 122.121356 
L 469.615162 120.955522 
L 470.524489 120.117975 
L 471.433816 119.547173 
L 472.343143 119.207912 
L 473.25247 119.08141 
L 474.161797 119.160876 
L 475.071124 119.450052 
L 475.980451 119.964002 
L 476.889778 120.732551 
L 477.799105 121.808205 
L 478.708432 123.2838 
L 479.617759 125.335958 
L 480.527086 128.355738 
L 480.981749 130.517823 
L 481.436413 133.52323 
L 481.891076 138.376551 
L 482.34574 151.821743 
L 482.800403 142.515942 
L 483.255066 135.556152 
L 483.70973 131.863845 
L 484.164393 129.358465 
L 485.07372 125.992604 
L 485.983047 123.763593 
L 486.892374 122.178151 
L 487.801701 121.025475 
L 488.711028 120.197875 
L 489.620355 119.635169 
L 490.529682 119.302942 
L 491.439009 119.182944 
L 492.348336 119.268807 
L 493.257663 119.564675 
L 494.16699 120.086088 
L 495.076317 120.86354 
L 495.985644 121.950632 
L 496.894971 123.442279 
L 497.804298 125.519783 
L 498.713625 128.587691 
L 499.168288 130.795771 
L 499.622952 133.888323 
L 500.077615 138.972241 
L 500.532279 154.889746 
L 500.986942 141.829758 
L 501.441606 135.303204 
L 501.896269 131.734046 
L 502.805596 127.442451 
L 503.714923 124.779078 
L 504.62425 122.93057 
L 505.533577 121.593647 
L 506.442904 120.623597 
L 507.352231 119.942175 
L 508.261558 119.504717 
L 509.170885 119.286255 
L 510.080212 119.275231 
L 510.989539 119.470936 
L 511.898866 119.883363 
L 512.808193 120.535393 
L 513.71752 121.468427 
L 514.626847 122.754839 
L 515.536173 124.526991 
L 516.4455 127.056194 
L 516.900164 128.784536 
L 517.354827 131.037793 
L 517.809491 134.217361 
L 518.264154 139.540731 
L 518.718818 159.307503 
L 519.173481 141.217647 
L 519.628145 135.051763 
L 520.082808 131.59166 
L 520.992135 127.384229 
L 521.901462 124.756573 
L 522.810789 122.928194 
L 523.720116 121.604497 
L 524.629443 120.644084 
L 525.53877 119.970269 
L 526.448097 119.539249 
L 527.357424 119.3266 
L 528.266751 119.321167 
L 529.176078 119.522599 
L 530.085405 119.941279 
L 530.994732 120.600599 
L 531.904059 121.542753 
L 532.813386 122.841525 
L 533.722713 124.632221 
L 534.63204 127.19366 
L 535.086703 128.949622 
L 535.541367 131.248196 
L 535.99603 134.516487 
L 536.450693 140.094131 
L 536.905357 168.497143 
L 537.36002 140.647027 
L 537.814684 134.792235 
L 538.269347 131.431318 
L 539.178674 127.302154 
L 540.088001 124.708173 
L 540.997328 122.898893 
L 541.906655 121.5878 
L 542.815982 120.636601 
L 543.725309 119.970086 
L 544.634636 119.545266 
L 545.543963 119.338239 
L 545.543963 119.338239 
" clip-path="url(#p044d3c481c)" style="fill: none; stroke: #ff7f0e; stroke-linecap: square"/>
   </g>
   <g id="line2d_25">
    <path d="M 80.423224 34.406449 
L 85.879186 34.5159 
L 91.335148 34.844252 
L 96.79111 35.391505 
L 102.247071 36.15766 
L 107.703033 37.142717 
L 113.158995 38.346675 
L 118.614957 39.769534 
L 124.070918 41.411295 
L 129.52688 43.271957 
L 134.982842 45.35152 
L 140.893467 47.851405 
L 146.804092 50.608195 
L 152.714718 53.621891 
L 158.625343 56.892491 
L 164.535968 60.419995 
L 170.446593 64.204404 
L 176.357218 68.245721 
L 182.267844 72.543947 
L 188.633132 77.460114 
L 194.998421 82.674217 
L 201.36371 88.186245 
L 207.728998 93.996224 
L 214.094287 100.104259 
L 220.459576 106.510443 
L 227.279528 113.704722 
L 234.09948 121.239523 
L 240.919432 129.114012 
L 247.739385 137.335893 
L 254.104673 145.344077 
L 260.924625 154.281367 
L 272.745876 169.883593 
L 279.565828 178.721185 
L 281.384482 181.41627 
L 283.203136 184.542503 
L 284.567126 187.377472 
L 285.476453 189.65337 
L 286.38578 192.430965 
L 287.295107 196.079288 
L 287.749771 198.491867 
L 288.204434 201.649276 
L 288.659098 206.35272 
L 289.113761 216.621611 
L 289.568425 214.640876 
L 290.023088 206.601305 
L 290.477752 202.887166 
L 290.932415 200.54831 
L 291.387079 198.903033 
L 292.296405 196.752745 
L 293.205732 195.49371 
L 294.115059 194.800229 
L 295.024386 194.530974 
L 295.933713 194.624066 
L 296.84304 195.063999 
L 297.752367 195.874019 
L 298.661694 197.125707 
L 299.571021 198.976215 
L 300.480348 201.787548 
L 300.935012 203.820976 
L 301.389675 206.642403 
L 301.844339 211.11734 
L 302.299002 221.995123 
L 302.753665 217.343555 
L 303.208329 209.504868 
L 303.662992 205.559623 
L 304.117656 202.920625 
L 305.026983 199.398277 
L 305.93631 197.068724 
L 306.845637 195.407167 
L 307.754964 194.192106 
L 308.664291 193.310863 
L 309.573618 192.70036 
L 310.482945 192.324179 
L 311.392272 192.162442 
L 312.301599 192.207215 
L 313.210925 192.460891 
L 314.120252 192.93673 
L 315.029579 193.661856 
L 315.938906 194.684235 
L 316.848233 196.088089 
L 317.75756 198.030913 
L 318.666887 200.850195 
L 319.121551 202.826755 
L 319.576214 205.494468 
L 320.030878 209.530204 
L 320.485541 217.837667 
L 320.940205 220.431936 
L 321.394868 210.404645 
L 321.849532 206.037908 
L 322.304195 203.235322 
L 323.213522 199.59541 
L 324.122849 197.238487 
L 325.032176 195.58049 
L 325.941503 194.38255 
L 326.85083 193.525468 
L 327.760157 192.943499 
L 328.669484 192.599252 
L 329.578811 192.472804 
L 330.488138 192.556849 
L 331.397465 192.855094 
L 332.306792 193.383062 
L 333.216119 194.171715 
L 334.125446 195.275881 
L 335.034772 196.793243 
L 335.944099 198.911775 
L 336.853426 202.055945 
L 337.30809 204.335642 
L 337.762753 207.563606 
L 338.217417 213.017085 
L 338.67208 235.951585 
L 339.126744 214.133871 
L 339.581407 208.135162 
L 340.036071 204.731895 
L 340.945398 200.57738 
L 341.854725 197.981329 
L 342.764052 196.178723 
L 343.673379 194.879217 
L 344.582706 193.943175 
L 345.492032 193.294911 
L 346.401359 192.891384 
L 347.310686 192.708924 
L 348.220013 192.73728 
L 349.12934 192.977324 
L 350.038667 193.441243 
L 350.947994 194.155303 
L 351.857321 195.166639 
L 352.766648 196.558409 
L 353.675975 198.486218 
L 354.585302 201.282842 
L 355.039966 203.240979 
L 355.494629 205.878125 
L 355.949292 209.848185 
L 356.403956 217.87707 
L 356.858619 221.550346 
L 357.313283 211.064291 
L 357.767946 206.617991 
L 358.22261 203.781067 
L 359.131937 200.107714 
L 360.041264 197.732492 
L 360.950591 196.061515 
L 361.859918 194.852929 
L 362.769245 193.986277 
L 363.678572 193.395145 
L 364.587899 193.041709 
L 365.497226 192.905687 
L 366.406552 192.979417 
L 367.315879 193.266169 
L 368.225206 193.780853 
L 369.134533 194.553473 
L 370.04386 195.637186 
L 370.953187 197.126403 
L 371.862514 199.2016 
L 372.771841 202.265262 
L 373.226505 204.468515 
L 373.681168 207.55052 
L 374.135832 212.60277 
L 374.590495 228.102645 
L 375.045159 215.645762 
L 375.499822 209.064488 
L 375.954486 205.481992 
L 376.863812 201.185683 
L 377.773139 198.526354 
L 378.682466 196.685617 
L 379.591793 195.35896 
L 380.50112 194.401312 
L 381.410447 193.734399 
L 382.319774 193.313714 
L 383.229101 193.114614 
L 384.138428 193.12606 
L 385.047755 193.348151 
L 385.957082 193.792142 
L 386.866409 194.48297 
L 387.775736 195.465607 
L 388.685063 196.819181 
L 389.59439 198.69059 
L 390.503717 201.389183 
L 390.95838 203.26154 
L 391.413044 205.751992 
L 391.867707 209.40643 
L 392.322371 216.214635 
L 392.777034 226.728901 
L 393.231698 212.541066 
L 393.686361 207.616898 
L 394.141025 204.589093 
L 395.050352 200.745087 
L 395.959679 198.287693 
L 396.869006 196.565634 
L 397.778333 195.320204 
L 398.687659 194.424136 
L 399.596986 193.807658 
L 400.506313 193.430999 
L 401.41564 193.272559 
L 402.324967 193.323597 
L 403.234294 193.586303 
L 404.143621 194.074275 
L 405.052948 194.815617 
L 405.962275 195.860337 
L 406.871602 197.296844 
L 407.780929 199.292167 
L 408.690256 202.210476 
L 409.144919 204.279101 
L 409.599583 207.112943 
L 410.054246 211.538482 
L 410.50891 221.852955 
L 410.963573 218.607284 
L 411.418237 210.483696 
L 411.8729 206.498513 
L 412.327564 203.8595 
L 413.236891 200.367758 
L 414.146218 198.07916 
L 415.055545 196.459898 
L 415.964872 195.286432 
L 416.874199 194.445826 
L 417.783526 193.875377 
L 418.692853 193.539365 
L 419.602179 193.418868 
L 420.511506 193.507237 
L 421.420833 193.808651 
L 422.33016 194.339014 
L 423.239487 195.12966 
L 424.148814 196.235875 
L 425.058141 197.756073 
L 425.967468 199.879766 
L 426.876795 203.035816 
L 427.331459 205.328446 
L 427.786122 208.583331 
L 428.240786 214.117813 
L 428.695449 240.135426 
L 429.150113 214.869923 
L 429.604776 208.967019 
L 430.059439 205.592895 
L 430.968766 201.45821 
L 431.878093 198.867309 
L 432.78742 197.064705 
L 433.696747 195.762597 
L 434.606074 194.822289 
L 435.515401 194.168495 
L 436.424728 193.75833 
L 437.334055 193.568148 
L 438.243382 193.587607 
L 439.152709 193.817378 
L 440.062036 194.269285 
L 440.971363 194.968963 
L 441.88069 195.96242 
L 442.790017 197.33062 
L 443.699344 199.22433 
L 444.608671 201.963164 
L 445.063334 203.871537 
L 445.517998 206.424172 
L 445.972661 210.212156 
L 446.881988 224.673788 
L 447.336652 212.472413 
L 447.791315 207.772822 
L 448.245979 204.831486 
L 449.155306 201.061272 
L 450.064633 198.636473 
L 450.97396 196.932454 
L 451.883286 195.698237 
L 452.792613 194.809633 
L 453.70194 194.198352 
L 454.611267 193.825438 
L 455.520594 193.669788 
L 456.429921 193.723004 
L 457.339248 193.987547 
L 458.248575 194.477268 
L 459.157902 195.220566 
L 460.067229 196.267872 
L 460.976556 197.70834 
L 461.885883 199.710601 
L 462.79521 202.643264 
L 463.249873 204.726077 
L 463.704537 207.586693 
L 464.1592 212.078873 
L 464.613864 222.807446 
L 465.068527 218.616067 
L 465.523191 210.719806 
L 465.977854 206.786881 
L 466.432518 204.170501 
L 467.341845 200.698437 
L 468.251172 198.417725 
L 469.160499 196.801836 
L 470.069826 195.629492 
L 470.979153 194.788686 
L 471.88848 194.217165 
L 472.797806 193.879446 
L 473.707133 193.756735 
L 474.61646 193.842451 
L 475.525787 194.140789 
L 476.435114 194.667631 
L 477.344441 195.454224 
L 478.253768 196.555674 
L 479.163095 198.070002 
L 480.072422 200.185783 
L 480.981749 203.329078 
L 481.436413 205.610619 
L 481.891076 208.845219 
L 482.34574 214.324085 
L 482.800403 238.204701 
L 483.255066 215.305829 
L 483.70973 209.338091 
L 484.164393 205.941833 
L 485.07372 201.787338 
L 485.983047 199.185661 
L 486.892374 197.375147 
L 487.801701 196.066323 
L 488.711028 195.119834 
L 489.620355 194.460069 
L 490.529682 194.043946 
L 491.439009 193.847667 
L 492.348336 193.860749 
L 493.257663 194.0837 
L 494.16699 194.528121 
L 495.076317 195.21931 
L 495.985644 196.202705 
L 496.894971 197.558192 
L 497.804298 199.434199 
L 498.713625 202.144056 
L 499.168288 204.028069 
L 499.622952 206.540134 
L 500.077615 210.243206 
L 500.532279 217.233286 
L 500.986942 226.354486 
L 501.441606 213.027177 
L 501.896269 208.190685 
L 502.350933 205.194601 
L 503.26026 201.374301 
L 504.169587 198.92406 
L 505.078913 197.203176 
L 505.98824 195.955979 
L 506.897567 195.056391 
L 507.806894 194.435187 
L 508.716221 194.052863 
L 509.625548 193.887942 
L 510.534875 193.931711 
L 511.444202 194.186305 
L 512.353529 194.665172 
L 513.262856 195.396122 
L 514.172183 196.428603 
L 515.08151 197.849904 
L 515.990837 199.824513 
L 516.900164 202.709447 
L 517.354827 204.749825 
L 517.809491 207.535097 
L 518.264154 211.849084 
L 518.718818 221.544764 
L 519.173481 219.8205 
L 519.628145 211.280667 
L 520.082808 207.199531 
L 520.537472 204.515946 
L 521.446799 200.978443 
L 522.356126 198.663546 
L 523.265453 197.025037 
L 524.17478 195.83551 
L 525.084107 194.980402 
L 525.993433 194.396168 
L 526.90276 194.046564 
L 527.812087 193.912274 
L 528.721414 193.986279 
L 529.630741 194.27233 
L 530.540068 194.785759 
L 531.449395 195.55701 
L 532.358722 196.639839 
L 533.268049 198.129662 
L 534.177376 200.209111 
L 535.086703 203.286802 
L 535.541367 205.506845 
L 535.99603 208.62442 
L 536.450693 213.779669 
L 536.905357 230.681139 
L 537.36002 216.260099 
L 537.814684 209.850729 
L 538.269347 206.31579 
L 539.178674 202.049957 
L 540.088001 199.397688 
L 540.997328 197.556229 
L 541.906655 196.225146 
L 542.815982 195.260888 
L 543.725309 194.585849 
L 544.634636 194.155841 
L 545.543963 193.946351 
L 545.543963 193.946351 
" clip-path="url(#p044d3c481c)" style="fill: none; stroke: #2ca02c; stroke-linecap: square"/>
   </g>
   <g id="patch_3">
    <path d="M 57.167188 250.421875 
L 57.167188 24.12 
" style="fill: none; stroke: #000000; stroke-width: 0.8; stroke-linejoin: miter; stroke-linecap: square"/>
   </g>
   <g id="patch_4">
    <path d="M 568.8 250.421875 
L 568.8 24.12 
" style="fill: none; stroke: #000000; stroke-width: 0.8; stroke-linejoin: miter; stroke-linecap: square"/>
   </g>
   <g id="patch_5">
    <path d="M 57.167187 250.421875 
L 568.8 250.421875 
" style="fill: none; stroke: #000000; stroke-width: 0.8; stroke-linejoin: miter; stroke-linecap: square"/>
   </g>
   <g id="patch_6">
    <path d="M 57.167187 24.12 
L 568.8 24.12 
" style="fill: none; stroke: #000000; stroke-width: 0.8; stroke-linejoin: miter; stroke-linecap: square"/>
   </g>
   <g id="text_14">
    <!-- Magnitude response, $|H(\omega)|^2$ -->
    <g transform="translate(226.883594 18.12) scale(0.12 -0.12)">
     <defs>
      <path id="DejaVuSans-4d" d="M 628 4666 
L 1569 4666 
L 2759 1491 
L 3956 4666 
L 4897 4666 
L 4897 0 
L 4281 0 
L 4281 4097 
L 3078 897 
L 2444 897 
L 1241 4097 
L 1241 0 
L 628 0 
L 628 4666 
z
" transform="scale(0.015625)"/>
      <path id="DejaVuSans-67" d="M 2906 1791 
Q 2906 2416 2648 2759 
Q 2391 3103 1925 3103 
Q 1463 3103 1205 2759 
Q 947 2416 947 1791 
Q 947 1169 1205 825 
Q 1463 481 1925 481 
Q 2391 481 2648 825 
Q 2906 1169 2906 1791 
z
M 3481 434 
Q 3481 -459 3084 -895 
Q 2688 -1331 1869 -1331 
Q 1566 -1331 1297 -1286 
Q 1028 -1241 775 -1147 
L 775 -588 
Q 1028 -725 1275 -790 
Q 1522 -856 1778 -856 
Q 2344 -856 2625 -561 
Q 2906 -266 2906 331 
L 2906 616 
Q 2728 306 2450 153 
Q 2172 0 1784 0 
Q 1141 0 747 490 
Q 353 981 353 1791 
Q 353 2603 747 3093 
Q 1141 3584 1784 3584 
Q 2172 3584 2450 3431 
Q 2728 3278 2906 2969 
L 2906 3500 
L 3481 3500 
L 3481 434 
z
" transform="scale(0.015625)"/>
      <path id="DejaVuSans-74" d="M 1172 4494 
L 1172 3500 
L 2356 3500 
L 2356 3053 
L 1172 3053 
L 1172 1153 
Q 1172 725 1289 603 
Q 1406 481 1766 481 
L 2356 481 
L 2356 0 
L 1766 0 
Q 1100 0 847 248 
Q 594 497 594 1153 
L 594 3053 
L 172 3053 
L 172 3500 
L 594 3500 
L 594 4494 
L 1172 4494 
z
" transform="scale(0.015625)"/>
      <path id="DejaVuSans-73" d="M 2834 3397 
L 2834 2853 
Q 2591 2978 2328 3040 
Q 2066 3103 1784 3103 
Q 1356 3103 1142 2972 
Q 928 2841 928 2578 
Q 928 2378 1081 2264 
Q 1234 2150 1697 2047 
L 1894 2003 
Q 2506 1872 2764 1633 
Q 3022 1394 3022 966 
Q 3022 478 2636 193 
Q 2250 -91 1575 -91 
Q 1294 -91 989 -36 
Q 684 19 347 128 
L 347 722 
Q 666 556 975 473 
Q 1284 391 1588 391 
Q 1994 391 2212 530 
Q 2431 669 2431 922 
Q 2431 1156 2273 1281 
Q 2116 1406 1581 1522 
L 1381 1569 
Q 847 1681 609 1914 
Q 372 2147 372 2553 
Q 372 3047 722 3315 
Q 1072 3584 1716 3584 
Q 2034 3584 2315 3537 
Q 2597 3491 2834 3397 
z
" transform="scale(0.015625)"/>
      <path id="DejaVuSans-70" d="M 1159 525 
L 1159 -1331 
L 581 -1331 
L 581 3500 
L 1159 3500 
L 1159 2969 
Q 1341 3281 1617 3432 
Q 1894 3584 2278 3584 
Q 2916 3584 3314 3078 
Q 3713 2572 3713 1747 
Q 3713 922 3314 415 
Q 2916 -91 2278 -91 
Q 1894 -91 1617 61 
Q 1341 213 1159 525 
z
M 3116 1747 
Q 3116 2381 2855 2742 
Q 2594 3103 2138 3103 
Q 1681 3103 1420 2742 
Q 1159 2381 1159 1747 
Q 1159 1113 1420 752 
Q 1681 391 2138 391 
Q 2594 391 2855 752 
Q 3116 1113 3116 1747 
z
" transform="scale(0.015625)"/>
     </defs>
     <use xlink:href="#DejaVuSans-4d" transform="translate(0 0.765625)"/>
     <use xlink:href="#DejaVuSans-61" transform="translate(86.279297 0.765625)"/>
     <use xlink:href="#DejaVuSans-67" transform="translate(147.558594 0.765625)"/>
     <use xlink:href="#DejaVuSans-6e" transform="translate(211.035156 0.765625)"/>
     <use xlink:href="#DejaVuSans-69" transform="translate(274.414062 0.765625)"/>
     <use xlink:href="#DejaVuSans-74" transform="translate(302.197266 0.765625)"/>
     <use xlink:href="#DejaVuSans-75" transform="translate(341.40625 0.765625)"/>
     <use xlink:href="#DejaVuSans-64" transform="translate(404.785156 0.765625)"/>
     <use xlink:href="#DejaVuSans-65" transform="translate(468.261719 0.765625)"/>
     <use xlink:href="#DejaVuSans-20" transform="translate(529.785156 0.765625)"/>
     <use xlink:href="#DejaVuSans-72" transform="translate(561.572266 0.765625)"/>
     <use xlink:href="#DejaVuSans-65" transform="translate(602.685547 0.765625)"/>
     <use xlink:href="#DejaVuSans-73" transform="translate(664.208984 0.765625)"/>
     <use xlink:href="#DejaVuSans-70" transform="translate(716.308594 0.765625)"/>
     <use xlink:href="#DejaVuSans-6f" transform="translate(779.785156 0.765625)"/>
     <use xlink:href="#DejaVuSans-6e" transform="translate(840.966797 0.765625)"/>
     <use xlink:href="#DejaVuSans-73" transform="translate(904.345703 0.765625)"/>
     <use xlink:href="#DejaVuSans-65" transform="translate(956.445312 0.765625)"/>
     <use xlink:href="#DejaVuSans-2c" transform="translate(1017.96875 0.765625)"/>
     <use xlink:href="#DejaVuSans-20" transform="translate(1049.755859 0.765625)"/>
     <use xlink:href="#DejaVuSans-7c" transform="translate(1081.542969 0.765625)"/>
     <use xlink:href="#DejaVuSans-Oblique-48" transform="translate(1115.234375 0.765625)"/>
     <use xlink:href="#DejaVuSans-28" transform="translate(1190.429688 0.765625)"/>
     <use xlink:href="#DejaVuSans-Oblique-3c9" transform="translate(1229.443359 0.765625)"/>
     <use xlink:href="#DejaVuSans-29" transform="translate(1313.183594 0.765625)"/>
     <use xlink:href="#DejaVuSans-7c" transform="translate(1352.197266 0.765625)"/>
     <use xlink:href="#DejaVuSans-32" transform="translate(1386.845703 39.046875) scale(0.7)"/>
    </g>
   </g>
   <g id="legend_1">
    <g id="patch_7">
     <path d="M 64.167188 245.421875 
L 152.267188 245.421875 
Q 154.267188 245.421875 154.267188 243.421875 
L 154.267188 197.326562 
Q 154.267188 195.326562 152.267188 195.326562 
L 64.167188 195.326562 
Q 62.167188 195.326562 62.167188 197.326562 
L 62.167188 243.421875 
Q 62.167188 245.421875 64.167188 245.421875 
z
" style="fill: #ffffff; opacity: 0.8; stroke: #cccccc; stroke-linejoin: miter"/>
    </g>
    <g id="line2d_26">
     <path d="M 66.167188 203.425 
L 76.167188 203.425 
L 86.167188 203.425 
" style="fill: none; stroke: #1f77b4; stroke-linecap: square"/>
    </g>
    <g id="text_15">
     <!-- $B T_{sym} = 0.1$ -->
     <g transform="translate(94.167188 206.925) scale(0.1 -0.1)">
      <defs>
       <path id="DejaVuSans-Oblique-42" d="M 1081 4666 
L 2694 4666 
Q 3350 4666 3675 4422 
Q 4000 4178 4000 3688 
Q 4000 3238 3720 2911 
Q 3441 2584 2988 2516 
Q 3375 2428 3569 2181 
Q 3763 1934 3763 1522 
Q 3763 819 3242 409 
Q 2722 0 1819 0 
L 172 0 
L 1081 4666 
z
M 1234 2228 
L 903 519 
L 1919 519 
Q 2491 519 2800 781 
Q 3109 1044 3109 1522 
Q 3109 1891 2904 2059 
Q 2700 2228 2247 2228 
L 1234 2228 
z
M 1606 4147 
L 1331 2741 
L 2272 2741 
Q 2775 2741 3058 2959 
Q 3341 3178 3341 3566 
Q 3341 3869 3150 4008 
Q 2959 4147 2541 4147 
L 1606 4147 
z
" transform="scale(0.015625)"/>
       <path id="DejaVuSans-Oblique-54" d="M 378 4666 
L 4325 4666 
L 4225 4134 
L 2559 4134 
L 1759 0 
L 1125 0 
L 1925 4134 
L 275 4134 
L 378 4666 
z
" transform="scale(0.015625)"/>
       <path id="DejaVuSans-Oblique-79" d="M 1588 -325 
Q 1188 -997 936 -1164 
Q 684 -1331 294 -1331 
L -159 -1331 
L -63 -850 
L 269 -850 
Q 509 -850 678 -719 
Q 847 -588 1056 -206 
L 1234 128 
L 459 3500 
L 1069 3500 
L 1650 819 
L 3256 3500 
L 3859 3500 
L 1588 -325 
z
" transform="scale(0.015625)"/>
       <path id="DejaVuSans-Oblique-6d" d="M 5747 2113 
L 5338 0 
L 4763 0 
L 5166 2094 
Q 5191 2228 5203 2325 
Q 5216 2422 5216 2491 
Q 5216 2772 5059 2928 
Q 4903 3084 4622 3084 
Q 4203 3084 3875 2770 
Q 3547 2456 3450 1953 
L 3066 0 
L 2491 0 
L 2900 2094 
Q 2925 2209 2937 2307 
Q 2950 2406 2950 2484 
Q 2950 2769 2794 2926 
Q 2638 3084 2363 3084 
Q 1938 3084 1609 2770 
Q 1281 2456 1184 1953 
L 800 0 
L 225 0 
L 909 3500 
L 1484 3500 
L 1375 2956 
Q 1609 3263 1923 3423 
Q 2238 3584 2597 3584 
Q 2978 3584 3223 3384 
Q 3469 3184 3519 2828 
Q 3781 3197 4126 3390 
Q 4472 3584 4856 3584 
Q 5306 3584 5551 3325 
Q 5797 3066 5797 2591 
Q 5797 2488 5784 2364 
Q 5772 2241 5747 2113 
z
" transform="scale(0.015625)"/>
       <path id="DejaVuSans-3d" d="M 678 2906 
L 4684 2906 
L 4684 2381 
L 678 2381 
L 678 2906 
z
M 678 1631 
L 4684 1631 
L 4684 1100 
L 678 1100 
L 678 1631 
z
" transform="scale(0.015625)"/>
      </defs>
      <use xlink:href="#DejaVuSans-Oblique-42" transform="translate(0 0.78125)"/>
      <use xlink:href="#DejaVuSans-Oblique-54" transform="translate(68.603516 0.78125)"/>
      <use xlink:href="#DejaVuSans-Oblique-73" transform="translate(129.6875 -15.625) scale(0.7)"/>
      <use xlink:href="#DejaVuSans-Oblique-79" transform="translate(166.157227 -15.625) scale(0.7)"/>
      <use xlink:href="#DejaVuSans-Oblique-6d" transform="translate(207.583008 -15.625) scale(0.7)"/>
      <use xlink:href="#DejaVuSans-3d" transform="translate(297.988281 0.78125)"/>
      <use xlink:href="#DejaVuSans-30" transform="translate(401.259766 0.78125)"/>
      <use xlink:href="#DejaVuSans-2e" transform="translate(464.882812 0.78125)"/>
      <use xlink:href="#DejaVuSans-31" transform="translate(496.669922 0.78125)"/>
     </g>
    </g>
    <g id="line2d_27">
     <path d="M 66.167188 219.123437 
L 76.167188 219.123437 
L 86.167188 219.123437 
" style="fill: none; stroke: #ff7f0e; stroke-linecap: square"/>
    </g>
    <g id="text_16">
     <!-- $B T_{sym} = 0.2$ -->
     <g transform="translate(94.167188 222.623437) scale(0.1 -0.1)">
      <use xlink:href="#DejaVuSans-Oblique-42" transform="translate(0 0.78125)"/>
      <use xlink:href="#DejaVuSans-Oblique-54" transform="translate(68.603516 0.78125)"/>
      <use xlink:href="#DejaVuSans-Oblique-73" transform="translate(129.6875 -15.625) scale(0.7)"/>
      <use xlink:href="#DejaVuSans-Oblique-79" transform="translate(166.157227 -15.625) scale(0.7)"/>
      <use xlink:href="#DejaVuSans-Oblique-6d" transform="translate(207.583008 -15.625) scale(0.7)"/>
      <use xlink:href="#DejaVuSans-3d" transform="translate(297.988281 0.78125)"/>
      <use xlink:href="#DejaVuSans-30" transform="translate(401.259766 0.78125)"/>
      <use xlink:href="#DejaVuSans-2e" transform="translate(464.882812 0.78125)"/>
      <use xlink:href="#DejaVuSans-32" transform="translate(491.169922 0.78125)"/>
     </g>
    </g>
    <g id="line2d_28">
     <path d="M 66.167188 234.821875 
L 76.167188 234.821875 
L 86.167188 234.821875 
" style="fill: none; stroke: #2ca02c; stroke-linecap: square"/>
    </g>
    <g id="text_17">
     <!-- $B T_{sym} = 0.3$ -->
     <g transform="translate(94.167188 238.321875) scale(0.1 -0.1)">
      <use xlink:href="#DejaVuSans-Oblique-42" transform="translate(0 0.78125)"/>
      <use xlink:href="#DejaVuSans-Oblique-54" transform="translate(68.603516 0.78125)"/>
      <use xlink:href="#DejaVuSans-Oblique-73" transform="translate(129.6875 -15.625) scale(0.7)"/>
      <use xlink:href="#DejaVuSans-Oblique-79" transform="translate(166.157227 -15.625) scale(0.7)"/>
      <use xlink:href="#DejaVuSans-Oblique-6d" transform="translate(207.583008 -15.625) scale(0.7)"/>
      <use xlink:href="#DejaVuSans-3d" transform="translate(297.988281 0.78125)"/>
      <use xlink:href="#DejaVuSans-30" transform="translate(401.259766 0.78125)"/>
      <use xlink:href="#DejaVuSans-2e" transform="translate(464.882812 0.78125)"/>
      <use xlink:href="#DejaVuSans-33" transform="translate(496.669922 0.78125)"/>
     </g>
    </g>
   </g>
  </g>
 </g>
 <defs>
  <clipPath id="p044d3c481c">
   <rect x="57.167188" y="24.12" width="511.632813" height="226.301875"/>
  </clipPath>
 </defs>
</svg>
