<?xml version="1.0" encoding="utf-8" standalone="no"?>
<!DOCTYPE svg PUBLIC "-//W3C//DTD SVG 1.1//EN"
  "http://www.w3.org/Graphics/SVG/1.1/DTD/svg11.dtd">
<svg xmlns:xlink="http://www.w3.org/1999/xlink" width="576pt" height="288pt" viewBox="0 0 576 288" xmlns="http://www.w3.org/2000/svg" version="1.1">
 <metadata>
  <rdf:RDF xmlns:dc="http://purl.org/dc/elements/1.1/" xmlns:cc="http://creativecommons.org/ns#" xmlns:rdf="http://www.w3.org/1999/02/22-rdf-syntax-ns#">
   <cc:Work>
    <dc:type rdf:resource="http://purl.org/dc/dcmitype/StillImage"/>
    <dc:date>2026-05-03T18:08:05.006249</dc:date>
    <dc:format>image/svg+xml</dc:format>
    <dc:creator>
     <cc:Agent>
      <dc:title>Matplotlib v3.10.9, https://matplotlib.org/</dc:title>
     </cc:Agent>
    </dc:creator>
   </cc:Work>
  </rdf:RDF>
 </metadata>
 <defs>
  <style type="text/css">*{stroke-linejoin: round; stroke-linecap: butt}</style>
 </defs>
 <g id="figure_1">
  <g id="patch_1">
   <path d="M 0 288 
L 576 288 
L 576 0 
L 0 0 
z
" style="fill: #ffffff"/>
  </g>
  <g id="axes_1">
   <g id="patch_2">
    <path d="M 52.160938 250.421875 
L 568.8 250.421875 
L 568.8 7.2 
L 52.160938 7.2 
z
" style="fill: #ffffff"/>
   </g>
   <g id="matplotlib.axis_1">
    <g id="xtick_1">
     <g id="line2d_1">
      <path d="M 75.644531 250.421875 
L 75.644531 7.2 
" clip-path="url(#p8de96cdccb)" style="fill: none; stroke-dasharray: 2.96,1.28; stroke-dashoffset: 0; stroke: #b0b0b0; stroke-opacity: 0.8; stroke-width: 0.8"/>
     </g>
     <g id="line2d_2">
      <defs>
       <path id="m593c9b1929" d="M 0 0 
L 0 3.5 
" style="stroke: #000000; stroke-width: 0.8"/>
      </defs>
      <g>
       <use xlink:href="#m593c9b1929" x="75.644531" y="250.421875" style="stroke: #000000; stroke-width: 0.8"/>
      </g>
     </g>
     <g id="text_1">
      <!-- 0 -->
      <g transform="translate(72.463281 265.020312) scale(0.1 -0.1)">
       <defs>
        <path id="DejaVuSans-30" d="M 2034 4250 
Q 1547 4250 1301 3770 
Q 1056 3291 1056 2328 
Q 1056 1369 1301 889 
Q 1547 409 2034 409 
Q 2525 409 2770 889 
Q 3016 1369 3016 2328 
Q 3016 3291 2770 3770 
Q 2525 4250 2034 4250 
z
M 2034 4750 
Q 2819 4750 3233 4129 
Q 3647 3509 3647 2328 
Q 3647 1150 3233 529 
Q 2819 -91 2034 -91 
Q 1250 -91 836 529 
Q 422 1150 422 2328 
Q 422 3509 836 4129 
Q 1250 4750 2034 4750 
z
" transform="scale(0.015625)"/>
       </defs>
       <use xlink:href="#DejaVuSans-30"/>
      </g>
     </g>
    </g>
    <g id="xtick_2">
     <g id="line2d_3">
      <path d="M 134.500656 250.421875 
L 134.500656 7.2 
" clip-path="url(#p8de96cdccb)" style="fill: none; stroke-dasharray: 2.96,1.28; stroke-dashoffset: 0; stroke: #b0b0b0; stroke-opacity: 0.8; stroke-width: 0.8"/>
     </g>
     <g id="line2d_4">
      <g>
       <use xlink:href="#m593c9b1929" x="134.500656" y="250.421875" style="stroke: #000000; stroke-width: 0.8"/>
      </g>
     </g>
     <g id="text_2">
      <!-- 50 -->
      <g transform="translate(128.138156 265.020312) scale(0.1 -0.1)">
       <defs>
        <path id="DejaVuSans-35" d="M 691 4666 
L 3169 4666 
L 3169 4134 
L 1269 4134 
L 1269 2991 
Q 1406 3038 1543 3061 
Q 1681 3084 1819 3084 
Q 2600 3084 3056 2656 
Q 3513 2228 3513 1497 
Q 3513 744 3044 326 
Q 2575 -91 1722 -91 
Q 1428 -91 1123 -41 
Q 819 9 494 109 
L 494 744 
Q 775 591 1075 516 
Q 1375 441 1709 441 
Q 2250 441 2565 725 
Q 2881 1009 2881 1497 
Q 2881 1984 2565 2268 
Q 2250 2553 1709 2553 
Q 1456 2553 1204 2497 
Q 953 2441 691 2322 
L 691 4666 
z
" transform="scale(0.015625)"/>
       </defs>
       <use xlink:href="#DejaVuSans-35"/>
       <use xlink:href="#DejaVuSans-30" transform="translate(63.623047 0)"/>
      </g>
     </g>
    </g>
    <g id="xtick_3">
     <g id="line2d_5">
      <path d="M 193.356781 250.421875 
L 193.356781 7.2 
" clip-path="url(#p8de96cdccb)" style="fill: none; stroke-dasharray: 2.96,1.28; stroke-dashoffset: 0; stroke: #b0b0b0; stroke-opacity: 0.8; stroke-width: 0.8"/>
     </g>
     <g id="line2d_6">
      <g>
       <use xlink:href="#m593c9b1929" x="193.356781" y="250.421875" style="stroke: #000000; stroke-width: 0.8"/>
      </g>
     </g>
     <g id="text_3">
      <!-- 100 -->
      <g transform="translate(183.813031 265.020312) scale(0.1 -0.1)">
       <defs>
        <path id="DejaVuSans-31" d="M 794 531 
L 1825 531 
L 1825 4091 
L 703 3866 
L 703 4441 
L 1819 4666 
L 2450 4666 
L 2450 531 
L 3481 531 
L 3481 0 
L 794 0 
L 794 531 
z
" transform="scale(0.015625)"/>
       </defs>
       <use xlink:href="#DejaVuSans-31"/>
       <use xlink:href="#DejaVuSans-30" transform="translate(63.623047 0)"/>
       <use xlink:href="#DejaVuSans-30" transform="translate(127.246094 0)"/>
      </g>
     </g>
    </g>
    <g id="xtick_4">
     <g id="line2d_7">
      <path d="M 252.212905 250.421875 
L 252.212905 7.2 
" clip-path="url(#p8de96cdccb)" style="fill: none; stroke-dasharray: 2.96,1.28; stroke-dashoffset: 0; stroke: #b0b0b0; stroke-opacity: 0.8; stroke-width: 0.8"/>
     </g>
     <g id="line2d_8">
      <g>
       <use xlink:href="#m593c9b1929" x="252.212905" y="250.421875" style="stroke: #000000; stroke-width: 0.8"/>
      </g>
     </g>
     <g id="text_4">
      <!-- 150 -->
      <g transform="translate(242.669155 265.020312) scale(0.1 -0.1)">
       <use xlink:href="#DejaVuSans-31"/>
       <use xlink:href="#DejaVuSans-35" transform="translate(63.623047 0)"/>
       <use xlink:href="#DejaVuSans-30" transform="translate(127.246094 0)"/>
      </g>
     </g>
    </g>
    <g id="xtick_5">
     <g id="line2d_9">
      <path d="M 311.06903 250.421875 
L 311.06903 7.2 
" clip-path="url(#p8de96cdccb)" style="fill: none; stroke-dasharray: 2.96,1.28; stroke-dashoffset: 0; stroke: #b0b0b0; stroke-opacity: 0.8; stroke-width: 0.8"/>
     </g>
     <g id="line2d_10">
      <g>
       <use xlink:href="#m593c9b1929" x="311.06903" y="250.421875" style="stroke: #000000; stroke-width: 0.8"/>
      </g>
     </g>
     <g id="text_5">
      <!-- 200 -->
      <g transform="translate(301.52528 265.020312) scale(0.1 -0.1)">
       <defs>
        <path id="DejaVuSans-32" d="M 1228 531 
L 3431 531 
L 3431 0 
L 469 0 
L 469 531 
Q 828 903 1448 1529 
Q 2069 2156 2228 2338 
Q 2531 2678 2651 2914 
Q 2772 3150 2772 3378 
Q 2772 3750 2511 3984 
Q 2250 4219 1831 4219 
Q 1534 4219 1204 4116 
Q 875 4013 500 3803 
L 500 4441 
Q 881 4594 1212 4672 
Q 1544 4750 1819 4750 
Q 2544 4750 2975 4387 
Q 3406 4025 3406 3419 
Q 3406 3131 3298 2873 
Q 3191 2616 2906 2266 
Q 2828 2175 2409 1742 
Q 1991 1309 1228 531 
z
" transform="scale(0.015625)"/>
       </defs>
       <use xlink:href="#DejaVuSans-32"/>
       <use xlink:href="#DejaVuSans-30" transform="translate(63.623047 0)"/>
       <use xlink:href="#DejaVuSans-30" transform="translate(127.246094 0)"/>
      </g>
     </g>
    </g>
    <g id="xtick_6">
     <g id="line2d_11">
      <path d="M 369.925155 250.421875 
L 369.925155 7.2 
" clip-path="url(#p8de96cdccb)" style="fill: none; stroke-dasharray: 2.96,1.28; stroke-dashoffset: 0; stroke: #b0b0b0; stroke-opacity: 0.8; stroke-width: 0.8"/>
     </g>
     <g id="line2d_12">
      <g>
       <use xlink:href="#m593c9b1929" x="369.925155" y="250.421875" style="stroke: #000000; stroke-width: 0.8"/>
      </g>
     </g>
     <g id="text_6">
      <!-- 250 -->
      <g transform="translate(360.381405 265.020312) scale(0.1 -0.1)">
       <use xlink:href="#DejaVuSans-32"/>
       <use xlink:href="#DejaVuSans-35" transform="translate(63.623047 0)"/>
       <use xlink:href="#DejaVuSans-30" transform="translate(127.246094 0)"/>
      </g>
     </g>
    </g>
    <g id="xtick_7">
     <g id="line2d_13">
      <path d="M 428.781279 250.421875 
L 428.781279 7.2 
" clip-path="url(#p8de96cdccb)" style="fill: none; stroke-dasharray: 2.96,1.28; stroke-dashoffset: 0; stroke: #b0b0b0; stroke-opacity: 0.8; stroke-width: 0.8"/>
     </g>
     <g id="line2d_14">
      <g>
       <use xlink:href="#m593c9b1929" x="428.781279" y="250.421875" style="stroke: #000000; stroke-width: 0.8"/>
      </g>
     </g>
     <g id="text_7">
      <!-- 300 -->
      <g transform="translate(419.237529 265.020312) scale(0.1 -0.1)">
       <defs>
        <path id="DejaVuSans-33" d="M 2597 2516 
Q 3050 2419 3304 2112 
Q 3559 1806 3559 1356 
Q 3559 666 3084 287 
Q 2609 -91 1734 -91 
Q 1441 -91 1130 -33 
Q 819 25 488 141 
L 488 750 
Q 750 597 1062 519 
Q 1375 441 1716 441 
Q 2309 441 2620 675 
Q 2931 909 2931 1356 
Q 2931 1769 2642 2001 
Q 2353 2234 1838 2234 
L 1294 2234 
L 1294 2753 
L 1863 2753 
Q 2328 2753 2575 2939 
Q 2822 3125 2822 3475 
Q 2822 3834 2567 4026 
Q 2313 4219 1838 4219 
Q 1578 4219 1281 4162 
Q 984 4106 628 3988 
L 628 4550 
Q 988 4650 1302 4700 
Q 1616 4750 1894 4750 
Q 2613 4750 3031 4423 
Q 3450 4097 3450 3541 
Q 3450 3153 3228 2886 
Q 3006 2619 2597 2516 
z
" transform="scale(0.015625)"/>
       </defs>
       <use xlink:href="#DejaVuSans-33"/>
       <use xlink:href="#DejaVuSans-30" transform="translate(63.623047 0)"/>
       <use xlink:href="#DejaVuSans-30" transform="translate(127.246094 0)"/>
      </g>
     </g>
    </g>
    <g id="xtick_8">
     <g id="line2d_15">
      <path d="M 487.637404 250.421875 
L 487.637404 7.2 
" clip-path="url(#p8de96cdccb)" style="fill: none; stroke-dasharray: 2.96,1.28; stroke-dashoffset: 0; stroke: #b0b0b0; stroke-opacity: 0.8; stroke-width: 0.8"/>
     </g>
     <g id="line2d_16">
      <g>
       <use xlink:href="#m593c9b1929" x="487.637404" y="250.421875" style="stroke: #000000; stroke-width: 0.8"/>
      </g>
     </g>
     <g id="text_8">
      <!-- 350 -->
      <g transform="translate(478.093654 265.020312) scale(0.1 -0.1)">
       <use xlink:href="#DejaVuSans-33"/>
       <use xlink:href="#DejaVuSans-35" transform="translate(63.623047 0)"/>
       <use xlink:href="#DejaVuSans-30" transform="translate(127.246094 0)"/>
      </g>
     </g>
    </g>
    <g id="xtick_9">
     <g id="line2d_17">
      <path d="M 546.493529 250.421875 
L 546.493529 7.2 
" clip-path="url(#p8de96cdccb)" style="fill: none; stroke-dasharray: 2.96,1.28; stroke-dashoffset: 0; stroke: #b0b0b0; stroke-opacity: 0.8; stroke-width: 0.8"/>
     </g>
     <g id="line2d_18">
      <g>
       <use xlink:href="#m593c9b1929" x="546.493529" y="250.421875" style="stroke: #000000; stroke-width: 0.8"/>
      </g>
     </g>
     <g id="text_9">
      <!-- 400 -->
      <g transform="translate(536.949779 265.020312) scale(0.1 -0.1)">
       <defs>
        <path id="DejaVuSans-34" d="M 2419 4116 
L 825 1625 
L 2419 1625 
L 2419 4116 
z
M 2253 4666 
L 3047 4666 
L 3047 1625 
L 3713 1625 
L 3713 1100 
L 3047 1100 
L 3047 0 
L 2419 0 
L 2419 1100 
L 313 1100 
L 313 1709 
L 2253 4666 
z
" transform="scale(0.015625)"/>
       </defs>
       <use xlink:href="#DejaVuSans-34"/>
       <use xlink:href="#DejaVuSans-30" transform="translate(63.623047 0)"/>
       <use xlink:href="#DejaVuSans-30" transform="translate(127.246094 0)"/>
      </g>
     </g>
    </g>
    <g id="text_10">
     <!-- Sample, $n$ -->
     <g transform="translate(285.380469 278.7) scale(0.1 -0.1)">
      <defs>
       <path id="DejaVuSans-53" d="M 3425 4513 
L 3425 3897 
Q 3066 4069 2747 4153 
Q 2428 4238 2131 4238 
Q 1616 4238 1336 4038 
Q 1056 3838 1056 3469 
Q 1056 3159 1242 3001 
Q 1428 2844 1947 2747 
L 2328 2669 
Q 3034 2534 3370 2195 
Q 3706 1856 3706 1288 
Q 3706 609 3251 259 
Q 2797 -91 1919 -91 
Q 1588 -91 1214 -16 
Q 841 59 441 206 
L 441 856 
Q 825 641 1194 531 
Q 1563 422 1919 422 
Q 2459 422 2753 634 
Q 3047 847 3047 1241 
Q 3047 1584 2836 1778 
Q 2625 1972 2144 2069 
L 1759 2144 
Q 1053 2284 737 2584 
Q 422 2884 422 3419 
Q 422 4038 858 4394 
Q 1294 4750 2059 4750 
Q 2388 4750 2728 4690 
Q 3069 4631 3425 4513 
z
" transform="scale(0.015625)"/>
       <path id="DejaVuSans-61" d="M 2194 1759 
Q 1497 1759 1228 1600 
Q 959 1441 959 1056 
Q 959 750 1161 570 
Q 1363 391 1709 391 
Q 2188 391 2477 730 
Q 2766 1069 2766 1631 
L 2766 1759 
L 2194 1759 
z
M 3341 1997 
L 3341 0 
L 2766 0 
L 2766 531 
Q 2569 213 2275 61 
Q 1981 -91 1556 -91 
Q 1019 -91 701 211 
Q 384 513 384 1019 
Q 384 1609 779 1909 
Q 1175 2209 1959 2209 
L 2766 2209 
L 2766 2266 
Q 2766 2663 2505 2880 
Q 2244 3097 1772 3097 
Q 1472 3097 1187 3025 
Q 903 2953 641 2809 
L 641 3341 
Q 956 3463 1253 3523 
Q 1550 3584 1831 3584 
Q 2591 3584 2966 3190 
Q 3341 2797 3341 1997 
z
" transform="scale(0.015625)"/>
       <path id="DejaVuSans-6d" d="M 3328 2828 
Q 3544 3216 3844 3400 
Q 4144 3584 4550 3584 
Q 5097 3584 5394 3201 
Q 5691 2819 5691 2113 
L 5691 0 
L 5113 0 
L 5113 2094 
Q 5113 2597 4934 2840 
Q 4756 3084 4391 3084 
Q 3944 3084 3684 2787 
Q 3425 2491 3425 1978 
L 3425 0 
L 2847 0 
L 2847 2094 
Q 2847 2600 2669 2842 
Q 2491 3084 2119 3084 
Q 1678 3084 1418 2786 
Q 1159 2488 1159 1978 
L 1159 0 
L 581 0 
L 581 3500 
L 1159 3500 
L 1159 2956 
Q 1356 3278 1631 3431 
Q 1906 3584 2284 3584 
Q 2666 3584 2933 3390 
Q 3200 3197 3328 2828 
z
" transform="scale(0.015625)"/>
       <path id="DejaVuSans-70" d="M 1159 525 
L 1159 -1331 
L 581 -1331 
L 581 3500 
L 1159 3500 
L 1159 2969 
Q 1341 3281 1617 3432 
Q 1894 3584 2278 3584 
Q 2916 3584 3314 3078 
Q 3713 2572 3713 1747 
Q 3713 922 3314 415 
Q 2916 -91 2278 -91 
Q 1894 -91 1617 61 
Q 1341 213 1159 525 
z
M 3116 1747 
Q 3116 2381 2855 2742 
Q 2594 3103 2138 3103 
Q 1681 3103 1420 2742 
Q 1159 2381 1159 1747 
Q 1159 1113 1420 752 
Q 1681 391 2138 391 
Q 2594 391 2855 752 
Q 3116 1113 3116 1747 
z
" transform="scale(0.015625)"/>
       <path id="DejaVuSans-6c" d="M 603 4863 
L 1178 4863 
L 1178 0 
L 603 0 
L 603 4863 
z
" transform="scale(0.015625)"/>
       <path id="DejaVuSans-65" d="M 3597 1894 
L 3597 1613 
L 953 1613 
Q 991 1019 1311 708 
Q 1631 397 2203 397 
Q 2534 397 2845 478 
Q 3156 559 3463 722 
L 3463 178 
Q 3153 47 2828 -22 
Q 2503 -91 2169 -91 
Q 1331 -91 842 396 
Q 353 884 353 1716 
Q 353 2575 817 3079 
Q 1281 3584 2069 3584 
Q 2775 3584 3186 3129 
Q 3597 2675 3597 1894 
z
M 3022 2063 
Q 3016 2534 2758 2815 
Q 2500 3097 2075 3097 
Q 1594 3097 1305 2825 
Q 1016 2553 972 2059 
L 3022 2063 
z
" transform="scale(0.015625)"/>
       <path id="DejaVuSans-2c" d="M 750 794 
L 1409 794 
L 1409 256 
L 897 -744 
L 494 -744 
L 750 256 
L 750 794 
z
" transform="scale(0.015625)"/>
       <path id="DejaVuSans-20" transform="scale(0.015625)"/>
       <path id="DejaVuSans-Oblique-6e" d="M 3566 2113 
L 3156 0 
L 2578 0 
L 2988 2091 
Q 3016 2238 3031 2350 
Q 3047 2463 3047 2528 
Q 3047 2791 2881 2937 
Q 2716 3084 2419 3084 
Q 1956 3084 1622 2776 
Q 1288 2469 1184 1941 
L 800 0 
L 225 0 
L 903 3500 
L 1478 3500 
L 1363 2950 
Q 1603 3253 1940 3418 
Q 2278 3584 2650 3584 
Q 3113 3584 3367 3334 
Q 3622 3084 3622 2631 
Q 3622 2519 3608 2391 
Q 3594 2263 3566 2113 
z
" transform="scale(0.015625)"/>
      </defs>
      <use xlink:href="#DejaVuSans-53" transform="translate(0 0.015625)"/>
      <use xlink:href="#DejaVuSans-61" transform="translate(63.476562 0.015625)"/>
      <use xlink:href="#DejaVuSans-6d" transform="translate(124.755859 0.015625)"/>
      <use xlink:href="#DejaVuSans-70" transform="translate(222.167969 0.015625)"/>
      <use xlink:href="#DejaVuSans-6c" transform="translate(285.644531 0.015625)"/>
      <use xlink:href="#DejaVuSans-65" transform="translate(313.427734 0.015625)"/>
      <use xlink:href="#DejaVuSans-2c" transform="translate(374.951172 0.015625)"/>
      <use xlink:href="#DejaVuSans-20" transform="translate(406.738281 0.015625)"/>
      <use xlink:href="#DejaVuSans-Oblique-6e" transform="translate(438.525391 0.015625)"/>
     </g>
    </g>
   </g>
   <g id="matplotlib.axis_2">
    <g id="ytick_1">
     <g id="line2d_19">
      <path d="M 52.160938 224.266148 
L 568.8 224.266148 
" clip-path="url(#p8de96cdccb)" style="fill: none; stroke-dasharray: 2.96,1.28; stroke-dashoffset: 0; stroke: #b0b0b0; stroke-opacity: 0.8; stroke-width: 0.8"/>
     </g>
     <g id="line2d_20">
      <defs>
       <path id="mc3dd032a29" d="M 0 0 
L -3.5 0 
" style="stroke: #000000; stroke-width: 0.8"/>
      </defs>
      <g>
       <use xlink:href="#mc3dd032a29" x="52.160938" y="224.266148" style="stroke: #000000; stroke-width: 0.8"/>
      </g>
     </g>
     <g id="text_11">
      <!-- −0.4 -->
      <g transform="translate(20.878125 228.065367) scale(0.1 -0.1)">
       <defs>
        <path id="DejaVuSans-2212" d="M 678 2272 
L 4684 2272 
L 4684 1741 
L 678 1741 
L 678 2272 
z
" transform="scale(0.015625)"/>
        <path id="DejaVuSans-2e" d="M 684 794 
L 1344 794 
L 1344 0 
L 684 0 
L 684 794 
z
" transform="scale(0.015625)"/>
       </defs>
       <use xlink:href="#DejaVuSans-2212"/>
       <use xlink:href="#DejaVuSans-30" transform="translate(83.789062 0)"/>
       <use xlink:href="#DejaVuSans-2e" transform="translate(147.412109 0)"/>
       <use xlink:href="#DejaVuSans-34" transform="translate(179.199219 0)"/>
      </g>
     </g>
    </g>
    <g id="ytick_2">
     <g id="line2d_21">
      <path d="M 52.160938 178.908743 
L 568.8 178.908743 
" clip-path="url(#p8de96cdccb)" style="fill: none; stroke-dasharray: 2.96,1.28; stroke-dashoffset: 0; stroke: #b0b0b0; stroke-opacity: 0.8; stroke-width: 0.8"/>
     </g>
     <g id="line2d_22">
      <g>
       <use xlink:href="#mc3dd032a29" x="52.160938" y="178.908743" style="stroke: #000000; stroke-width: 0.8"/>
      </g>
     </g>
     <g id="text_12">
      <!-- −0.2 -->
      <g transform="translate(20.878125 182.707962) scale(0.1 -0.1)">
       <use xlink:href="#DejaVuSans-2212"/>
       <use xlink:href="#DejaVuSans-30" transform="translate(83.789062 0)"/>
       <use xlink:href="#DejaVuSans-2e" transform="translate(147.412109 0)"/>
       <use xlink:href="#DejaVuSans-32" transform="translate(179.199219 0)"/>
      </g>
     </g>
    </g>
    <g id="ytick_3">
     <g id="line2d_23">
      <path d="M 52.160938 133.551337 
L 568.8 133.551337 
" clip-path="url(#p8de96cdccb)" style="fill: none; stroke-dasharray: 2.96,1.28; stroke-dashoffset: 0; stroke: #b0b0b0; stroke-opacity: 0.8; stroke-width: 0.8"/>
     </g>
     <g id="line2d_24">
      <g>
       <use xlink:href="#mc3dd032a29" x="52.160938" y="133.551337" style="stroke: #000000; stroke-width: 0.8"/>
      </g>
     </g>
     <g id="text_13">
      <!-- 0.0 -->
      <g transform="translate(29.257812 137.350556) scale(0.1 -0.1)">
       <use xlink:href="#DejaVuSans-30"/>
       <use xlink:href="#DejaVuSans-2e" transform="translate(63.623047 0)"/>
       <use xlink:href="#DejaVuSans-30" transform="translate(95.410156 0)"/>
      </g>
     </g>
    </g>
    <g id="ytick_4">
     <g id="line2d_25">
      <path d="M 52.160938 88.193932 
L 568.8 88.193932 
" clip-path="url(#p8de96cdccb)" style="fill: none; stroke-dasharray: 2.96,1.28; stroke-dashoffset: 0; stroke: #b0b0b0; stroke-opacity: 0.8; stroke-width: 0.8"/>
     </g>
     <g id="line2d_26">
      <g>
       <use xlink:href="#mc3dd032a29" x="52.160938" y="88.193932" style="stroke: #000000; stroke-width: 0.8"/>
      </g>
     </g>
     <g id="text_14">
      <!-- 0.2 -->
      <g transform="translate(29.257812 91.99315) scale(0.1 -0.1)">
       <use xlink:href="#DejaVuSans-30"/>
       <use xlink:href="#DejaVuSans-2e" transform="translate(63.623047 0)"/>
       <use xlink:href="#DejaVuSans-32" transform="translate(95.410156 0)"/>
      </g>
     </g>
    </g>
    <g id="ytick_5">
     <g id="line2d_27">
      <path d="M 52.160938 42.836526 
L 568.8 42.836526 
" clip-path="url(#p8de96cdccb)" style="fill: none; stroke-dasharray: 2.96,1.28; stroke-dashoffset: 0; stroke: #b0b0b0; stroke-opacity: 0.8; stroke-width: 0.8"/>
     </g>
     <g id="line2d_28">
      <g>
       <use xlink:href="#mc3dd032a29" x="52.160938" y="42.836526" style="stroke: #000000; stroke-width: 0.8"/>
      </g>
     </g>
     <g id="text_15">
      <!-- 0.4 -->
      <g transform="translate(29.257812 46.635745) scale(0.1 -0.1)">
       <use xlink:href="#DejaVuSans-30"/>
       <use xlink:href="#DejaVuSans-2e" transform="translate(63.623047 0)"/>
       <use xlink:href="#DejaVuSans-34" transform="translate(95.410156 0)"/>
      </g>
     </g>
    </g>
    <g id="text_16">
     <!-- Amplitude -->
     <g transform="translate(14.798437 154.433594) rotate(-90) scale(0.1 -0.1)">
      <defs>
       <path id="DejaVuSans-41" d="M 2188 4044 
L 1331 1722 
L 3047 1722 
L 2188 4044 
z
M 1831 4666 
L 2547 4666 
L 4325 0 
L 3669 0 
L 3244 1197 
L 1141 1197 
L 716 0 
L 50 0 
L 1831 4666 
z
" transform="scale(0.015625)"/>
       <path id="DejaVuSans-69" d="M 603 3500 
L 1178 3500 
L 1178 0 
L 603 0 
L 603 3500 
z
M 603 4863 
L 1178 4863 
L 1178 4134 
L 603 4134 
L 603 4863 
z
" transform="scale(0.015625)"/>
       <path id="DejaVuSans-74" d="M 1172 4494 
L 1172 3500 
L 2356 3500 
L 2356 3053 
L 1172 3053 
L 1172 1153 
Q 1172 725 1289 603 
Q 1406 481 1766 481 
L 2356 481 
L 2356 0 
L 1766 0 
Q 1100 0 847 248 
Q 594 497 594 1153 
L 594 3053 
L 172 3053 
L 172 3500 
L 594 3500 
L 594 4494 
L 1172 4494 
z
" transform="scale(0.015625)"/>
       <path id="DejaVuSans-75" d="M 544 1381 
L 544 3500 
L 1119 3500 
L 1119 1403 
Q 1119 906 1312 657 
Q 1506 409 1894 409 
Q 2359 409 2629 706 
Q 2900 1003 2900 1516 
L 2900 3500 
L 3475 3500 
L 3475 0 
L 2900 0 
L 2900 538 
Q 2691 219 2414 64 
Q 2138 -91 1772 -91 
Q 1169 -91 856 284 
Q 544 659 544 1381 
z
M 1991 3584 
L 1991 3584 
z
" transform="scale(0.015625)"/>
       <path id="DejaVuSans-64" d="M 2906 2969 
L 2906 4863 
L 3481 4863 
L 3481 0 
L 2906 0 
L 2906 525 
Q 2725 213 2448 61 
Q 2172 -91 1784 -91 
Q 1150 -91 751 415 
Q 353 922 353 1747 
Q 353 2572 751 3078 
Q 1150 3584 1784 3584 
Q 2172 3584 2448 3432 
Q 2725 3281 2906 2969 
z
M 947 1747 
Q 947 1113 1208 752 
Q 1469 391 1925 391 
Q 2381 391 2643 752 
Q 2906 1113 2906 1747 
Q 2906 2381 2643 2742 
Q 2381 3103 1925 3103 
Q 1469 3103 1208 2742 
Q 947 2381 947 1747 
z
" transform="scale(0.015625)"/>
      </defs>
      <use xlink:href="#DejaVuSans-41"/>
      <use xlink:href="#DejaVuSans-6d" transform="translate(68.408203 0)"/>
      <use xlink:href="#DejaVuSans-70" transform="translate(165.820312 0)"/>
      <use xlink:href="#DejaVuSans-6c" transform="translate(229.296875 0)"/>
      <use xlink:href="#DejaVuSans-69" transform="translate(257.080078 0)"/>
      <use xlink:href="#DejaVuSans-74" transform="translate(284.863281 0)"/>
      <use xlink:href="#DejaVuSans-75" transform="translate(324.072266 0)"/>
      <use xlink:href="#DejaVuSans-64" transform="translate(387.451172 0)"/>
      <use xlink:href="#DejaVuSans-65" transform="translate(450.927734 0)"/>
     </g>
    </g>
   </g>
   <g id="line2d_29">
    <path d="M 75.644531 131.009722 
L 76.821654 131.676361 
L 77.998776 135.702287 
L 79.175899 133.541853 
L 80.353021 134.440047 
L 81.530144 130.842448 
L 82.707266 129.939631 
L 85.061511 134.731138 
L 86.238634 136.471865 
L 87.415756 135.529124 
L 88.592879 127.936813 
L 89.770001 133.628921 
L 90.947124 125.437304 
L 92.124246 134.135472 
L 93.301369 130.788333 
L 94.478491 124.767561 
L 95.655614 130.349764 
L 96.832736 129.080934 
L 98.009859 134.960562 
L 99.186981 139.453608 
L 100.364104 136.790034 
L 101.541226 135.994333 
L 102.718349 139.727215 
L 103.895471 144.248348 
L 105.072594 135.561232 
L 106.249716 132.579469 
L 107.426839 124.359124 
L 108.603961 131.886175 
L 109.781084 124.007975 
L 110.958206 120.854444 
L 112.135329 123.803656 
L 113.312451 127.853454 
L 114.489574 132.827097 
L 115.666696 136.458113 
L 116.843819 145.100048 
L 118.020941 143.412123 
L 119.198064 151.974238 
L 120.375186 152.47718 
L 121.552309 145.930657 
L 122.729431 138.076775 
L 123.906553 128.991381 
L 125.083676 116.600475 
L 127.437921 78.786158 
L 129.792166 61.460157 
L 132.146411 65.522011 
L 133.323533 87.430037 
L 134.500656 95.951903 
L 138.032023 166.803991 
L 139.209146 195.086788 
L 140.386268 207.592038 
L 141.563391 230.439805 
L 142.740513 225.283691 
L 143.917636 228.764548 
L 145.094758 215.191749 
L 146.271881 204.145294 
L 147.449003 196.506523 
L 148.626126 190.018151 
L 149.803248 187.311942 
L 150.980371 186.809558 
L 152.157493 176.191222 
L 155.688861 208.21716 
L 156.865983 222.957185 
L 158.043106 226.284068 
L 159.220228 232.316136 
L 160.397351 219.758272 
L 161.574473 214.830497 
L 162.751596 186.520287 
L 163.928718 175.954019 
L 166.282963 115.830217 
L 167.460086 100.85176 
L 168.637208 79.022545 
L 169.814331 71.347716 
L 170.991453 67.397823 
L 172.168576 69.211424 
L 173.345698 73.651378 
L 174.522821 84.867618 
L 175.699943 102.566549 
L 176.877066 108.666635 
L 178.054188 117.727098 
L 179.231311 138.543356 
L 180.408433 146.873676 
L 181.585556 145.311566 
L 182.762678 141.443425 
L 183.939801 131.359949 
L 185.116923 125.287701 
L 186.294046 107.479572 
L 187.471168 94.393225 
L 188.648291 71.089115 
L 189.825413 62.642045 
L 191.002536 46.817745 
L 192.179658 35.938637 
L 193.356781 27.650522 
L 194.533903 28.936096 
L 195.711026 21.083785 
L 196.888148 42.732986 
L 198.065271 49.469027 
L 199.242393 63.648901 
L 200.419516 83.912809 
L 201.596638 102.151674 
L 202.773761 132.242849 
L 203.950883 147.743006 
L 205.128006 173.363605 
L 206.305128 184.186891 
L 207.482251 189.318426 
L 208.659373 199.21462 
L 209.836496 197.069293 
L 211.013618 194.069383 
L 212.190741 188.887479 
L 213.367863 180.183432 
L 215.722108 145.254924 
L 216.89923 129.633424 
L 218.076353 115.919856 
L 220.430598 98.827091 
L 221.60772 87.53096 
L 222.784843 84.114822 
L 223.961965 74.782375 
L 225.139088 84.108397 
L 226.31621 81.927138 
L 227.493333 87.115889 
L 228.670455 88.013059 
L 229.847578 93.352992 
L 231.0247 94.194927 
L 232.201823 106.514154 
L 233.378945 114.078608 
L 234.556068 124.587157 
L 235.73319 136.464868 
L 236.910313 145.164876 
L 238.087435 157.229905 
L 239.264558 167.393981 
L 240.44168 170.1832 
L 241.618803 179.010925 
L 242.795925 191.000178 
L 243.973048 191.927458 
L 245.15017 191.957237 
L 246.327293 195.841253 
L 247.504415 182.945338 
L 248.681538 176.914892 
L 249.85866 179.110106 
L 251.035783 159.35347 
L 252.212905 147.455958 
L 253.390028 145.662102 
L 254.56715 131.772932 
L 255.744273 123.590917 
L 256.921395 101.972729 
L 258.098518 105.242679 
L 259.27564 90.713876 
L 260.452763 79.958083 
L 261.629885 79.733199 
L 262.807008 80.854779 
L 263.98413 77.208504 
L 265.161253 78.364416 
L 266.338375 77.919753 
L 267.515498 91.297108 
L 268.69262 95.341506 
L 269.869743 110.812233 
L 271.046865 117.113233 
L 272.223988 121.681266 
L 273.40111 128.182367 
L 274.578233 143.780284 
L 275.755355 147.412948 
L 278.1096 179.876633 
L 279.286723 185.887832 
L 280.463845 191.138454 
L 281.640968 193.561002 
L 282.81809 189.608645 
L 283.995213 177.377534 
L 285.172335 184.964153 
L 286.349458 175.824811 
L 287.52658 178.477671 
L 288.703703 165.968175 
L 289.880825 159.999582 
L 291.057948 152.137024 
L 292.23507 126.029821 
L 293.412193 117.649355 
L 294.589315 111.830186 
L 295.766438 103.257296 
L 296.94356 96.988104 
L 298.120683 89.216393 
L 299.297805 73.121395 
L 300.474928 73.567815 
L 301.65205 70.884319 
L 302.829173 77.724543 
L 304.006295 82.368118 
L 305.183418 89.453604 
L 306.36054 103.092754 
L 307.537663 110.178946 
L 308.714785 118.862708 
L 309.891908 124.594271 
L 311.06903 132.680813 
L 312.246152 141.581997 
L 313.423275 153.443569 
L 314.600397 158.942904 
L 315.77752 167.044402 
L 316.954642 178.142582 
L 318.131765 178.959024 
L 319.308887 185.814357 
L 320.48601 185.708043 
L 321.663132 190.158645 
L 322.840255 198.997567 
L 324.017377 197.036761 
L 325.1945 199.965518 
L 326.371622 199.215452 
L 327.548745 208.447979 
L 328.725867 210.884887 
L 329.90299 209.52348 
L 331.080112 214.396413 
L 332.257235 221.206291 
L 333.434357 216.03131 
L 334.61148 212.669715 
L 335.788602 202.954667 
L 336.965725 203.667995 
L 338.142847 196.717022 
L 340.497092 177.794237 
L 341.674215 172.571622 
L 342.851337 160.620094 
L 344.02846 156.008248 
L 345.205582 148.563305 
L 346.382705 142.985212 
L 347.559827 141.485558 
L 348.73695 132.344316 
L 349.914072 133.017307 
L 351.091195 133.027266 
L 353.44544 146.946626 
L 354.622562 150.037017 
L 355.799685 169.049113 
L 356.976807 175.934972 
L 358.15393 189.903498 
L 359.331052 195.638663 
L 360.508175 216.855281 
L 361.685297 223.207169 
L 362.86242 228.61024 
L 364.039542 233.395671 
L 365.216665 227.594498 
L 366.393787 224.265314 
L 367.57091 215.505221 
L 368.748032 203.884374 
L 371.102277 166.343988 
L 372.2794 138.955615 
L 373.456522 121.475631 
L 374.633645 106.42601 
L 375.810767 83.459431 
L 376.98789 74.823249 
L 378.165012 71.325278 
L 379.342135 67.329643 
L 380.519257 78.053262 
L 381.69638 84.229724 
L 382.873502 95.611052 
L 384.050625 104.944425 
L 386.40487 136.354831 
L 387.581992 149.360318 
L 388.759115 166.338611 
L 389.936237 172.358329 
L 391.11336 172.727214 
L 392.290482 181.872582 
L 393.467605 185.76496 
L 394.644727 182.42787 
L 395.82185 190.161404 
L 396.998972 179.027869 
L 398.176095 184.250884 
L 399.353217 182.165629 
L 400.53034 171.018333 
L 401.707462 169.115362 
L 402.884585 160.716134 
L 405.238829 134.806786 
L 406.415952 127.597247 
L 407.593074 109.980834 
L 408.770197 107.513339 
L 409.947319 98.032931 
L 411.124442 78.333309 
L 412.301564 78.927293 
L 413.478687 76.412694 
L 414.655809 76.35651 
L 415.832932 85.723988 
L 417.010054 89.04077 
L 418.187177 95.325511 
L 419.364299 103.918553 
L 420.541422 110.352924 
L 421.718544 118.818216 
L 422.895667 121.98113 
L 424.072789 131.052394 
L 425.249912 135.21413 
L 426.427034 131.154734 
L 427.604157 135.930925 
L 428.781279 128.102975 
L 429.958402 121.047539 
L 431.135524 107.591266 
L 432.312647 100.967555 
L 433.489769 82.768175 
L 434.666892 71.527193 
L 435.844014 48.383045 
L 437.021137 33.167664 
L 438.198259 26.754596 
L 439.375382 23.278748 
L 440.552504 21.788433 
L 441.729627 30.409555 
L 442.906749 42.262905 
L 444.083872 70.52081 
L 445.260994 95.631719 
L 446.438117 125.070401 
L 447.615239 150.245894 
L 448.792362 169.839118 
L 449.969484 195.749311 
L 451.146607 197.691883 
L 452.323729 201.476426 
L 453.500852 189.162003 
L 454.677974 172.206175 
L 458.209342 90.172024 
L 459.386464 70.342826 
L 460.563587 54.272773 
L 462.917832 44.779576 
L 464.094954 56.394603 
L 466.449199 96.773728 
L 467.626322 126.226291 
L 468.803444 150.74772 
L 469.980567 186.784518 
L 471.157689 197.010465 
L 472.334812 211.985127 
L 473.511934 215.322299 
L 474.689057 213.727195 
L 477.043302 183.598229 
L 478.220424 162.651675 
L 479.397547 153.591364 
L 480.574669 129.94039 
L 481.751792 103.722161 
L 482.928914 96.992795 
L 484.106037 81.949888 
L 485.283159 73.190029 
L 486.460282 78.102041 
L 487.637404 76.228984 
L 488.814527 77.881804 
L 489.991649 84.24439 
L 492.345894 92.25478 
L 493.523017 93.779004 
L 494.700139 107.345645 
L 495.877262 110.485008 
L 497.054384 113.047679 
L 498.231507 121.078549 
L 499.408629 131.439953 
L 500.585751 133.377322 
L 501.762874 147.173227 
L 502.939996 157.931748 
L 505.294241 172.54409 
L 506.471364 181.578835 
L 507.648486 184.889272 
L 508.825609 195.327463 
L 510.002731 194.078361 
L 511.179854 200.541869 
L 512.356976 202.225948 
L 513.534099 204.413071 
L 514.711221 199.651895 
L 517.065466 205.941953 
L 518.242589 205.645568 
L 519.419711 218.828192 
L 520.596834 210.464428 
L 521.773956 211.118336 
L 522.951079 216.152092 
L 524.128201 216.708362 
L 525.305324 213.061776 
L 526.482446 201.695767 
L 527.659569 193.583055 
L 528.836691 176.437059 
L 530.013814 170.579425 
L 531.190936 152.713812 
L 532.368059 146.185404 
L 533.545181 135.178221 
L 534.722304 128.40677 
L 535.899426 129.685162 
L 537.076549 131.501201 
L 538.253671 131.603434 
L 539.430794 146.251964 
L 540.607916 162.560958 
L 541.785039 171.742432 
L 542.962161 186.09873 
L 544.139284 194.373173 
L 545.316406 198.302821 
L 545.316406 198.302821 
" clip-path="url(#p8de96cdccb)" style="fill: none; stroke: #1f77b4; stroke-linecap: square"/>
   </g>
   <g id="line2d_30">
    <path d="M 75.644531 136.372985 
L 76.821654 135.001574 
L 77.998776 133.187267 
L 79.175899 135.444161 
L 80.353021 132.294344 
L 81.530144 134.942858 
L 82.707266 129.143433 
L 83.884389 131.886537 
L 85.061511 129.329927 
L 86.238634 129.167106 
L 87.415756 132.997645 
L 88.592879 133.399741 
L 89.770001 138.968343 
L 90.947124 136.944783 
L 92.124246 143.844614 
L 93.301369 146.794003 
L 94.478491 141.889597 
L 95.655614 138.852099 
L 96.832736 124.853582 
L 98.009859 131.05654 
L 99.186981 120.642132 
L 100.364104 124.477815 
L 101.541226 127.038974 
L 102.718349 123.546583 
L 103.895471 125.336737 
L 105.072594 131.637527 
L 106.249716 140.264178 
L 107.426839 144.928919 
L 108.603961 152.084429 
L 109.781084 161.296306 
L 110.958206 158.543756 
L 112.135329 159.748333 
L 113.312451 141.318766 
L 114.489574 126.934759 
L 115.666696 108.127193 
L 116.843819 93.344767 
L 118.020941 68.40825 
L 120.375186 43.597725 
L 121.552309 37.422455 
L 122.729431 44.390741 
L 125.083676 72.54345 
L 126.260798 99.994171 
L 128.615043 149.720897 
L 129.792166 175.772057 
L 130.969288 184.899664 
L 132.146411 204.150393 
L 133.323533 203.421762 
L 134.500656 201.225503 
L 135.677778 184.550284 
L 136.854901 175.00765 
L 138.032023 155.802021 
L 139.209146 142.559758 
L 140.386268 124.330645 
L 141.563391 119.413128 
L 142.740513 126.436777 
L 143.917636 129.465353 
L 148.626126 188.353765 
L 149.803248 201.780928 
L 150.980371 201.211585 
L 152.157493 203.124047 
L 153.334616 185.814437 
L 154.511738 174.550865 
L 155.688861 158.736778 
L 158.043106 135.062486 
L 159.220228 122.503584 
L 160.397351 130.756021 
L 161.574473 125.625672 
L 162.751596 134.183844 
L 166.282963 179.975496 
L 167.460086 189.485279 
L 168.637208 192.495088 
L 169.814331 204.378776 
L 170.991453 190.96225 
L 172.168576 181.904419 
L 173.345698 157.349726 
L 174.522821 137.939121 
L 176.877066 84.91065 
L 179.231311 45.968128 
L 180.408433 33.086938 
L 181.585556 35.376076 
L 182.762678 25.496896 
L 183.939801 36.911041 
L 185.116923 43.650032 
L 187.471168 70.59626 
L 188.648291 80.654893 
L 189.825413 99.498943 
L 191.002536 111.958702 
L 192.179658 117.389419 
L 193.356781 117.260599 
L 194.533903 123.939578 
L 195.711026 127.322021 
L 196.888148 125.147877 
L 198.065271 118.597028 
L 199.242393 127.116666 
L 200.419516 128.487405 
L 201.596638 120.071718 
L 202.773761 126.445225 
L 203.950883 112.261982 
L 205.128006 106.19822 
L 206.305128 101.815511 
L 207.482251 88.057412 
L 208.659373 70.420749 
L 209.836496 49.231021 
L 212.190741 33.349984 
L 213.367863 18.25554 
L 215.722108 31.178865 
L 216.89923 43.48015 
L 218.076353 64.82815 
L 219.253475 96.81274 
L 220.430598 117.926361 
L 221.60772 150.8191 
L 222.784843 172.492668 
L 223.961965 189.215706 
L 225.139088 199.807867 
L 226.31621 190.352018 
L 227.493333 185.187346 
L 228.670455 166.57386 
L 229.847578 150.981121 
L 231.0247 116.989606 
L 232.201823 95.97186 
L 233.378945 77.424073 
L 234.556068 56.729473 
L 236.910313 44.666997 
L 238.087435 51.534234 
L 239.264558 71.521007 
L 240.44168 88.527082 
L 241.618803 122.933703 
L 242.795925 144.535327 
L 243.973048 175.29972 
L 245.15017 194.244991 
L 246.327293 216.970287 
L 247.504415 228.993691 
L 248.681538 233.390903 
L 249.85866 234.624222 
L 251.035783 226.699151 
L 252.212905 220.495943 
L 253.390028 207.872463 
L 254.56715 203.645156 
L 255.744273 196.451516 
L 256.921395 191.839378 
L 258.098518 192.615331 
L 259.27564 194.953373 
L 260.452763 194.524702 
L 261.629885 199.197948 
L 263.98413 193.576063 
L 265.161253 199.844566 
L 267.515498 195.320543 
L 268.69262 187.621058 
L 269.869743 188.625628 
L 271.046865 195.149799 
L 272.223988 204.223749 
L 273.40111 207.634282 
L 274.578233 207.409144 
L 276.932478 230.841695 
L 278.1096 237.632713 
L 279.286723 235.162411 
L 280.463845 229.720507 
L 281.640968 210.490606 
L 282.81809 199.154993 
L 283.995213 166.367964 
L 285.172335 150.640109 
L 286.349458 114.999595 
L 288.703703 66.940981 
L 289.880825 51.75161 
L 291.057948 46.337881 
L 292.23507 48.849559 
L 293.412193 61.75993 
L 294.589315 70.781887 
L 295.766438 101.533611 
L 296.94356 123.96623 
L 298.120683 148.630789 
L 299.297805 169.672779 
L 300.474928 193.834749 
L 301.65205 195.494297 
L 302.829173 203.495896 
L 304.006295 193.70842 
L 305.183418 174.645868 
L 306.36054 142.9574 
L 307.537663 114.59571 
L 308.714785 80.980845 
L 309.891908 51.508363 
L 311.06903 44.348156 
L 312.246152 28.009236 
L 313.423275 26.837158 
L 314.600397 26.538748 
L 315.77752 32.218401 
L 316.954642 45.295946 
L 318.131765 59.820135 
L 319.308887 79.236323 
L 320.48601 85.738974 
L 321.663132 100.622257 
L 322.840255 103.617661 
L 324.017377 105.704266 
L 325.1945 101.696591 
L 326.371622 111.188903 
L 327.548745 114.915895 
L 328.725867 110.07904 
L 329.90299 125.711192 
L 331.080112 137.54066 
L 332.257235 150.572226 
L 333.434357 161.880635 
L 334.61148 178.870664 
L 335.788602 192.381925 
L 336.965725 199.655501 
L 338.142847 200.545279 
L 339.31997 197.882177 
L 340.497092 186.178982 
L 341.674215 172.553738 
L 342.851337 150.521656 
L 344.02846 121.933041 
L 345.205582 109.792869 
L 346.382705 80.987873 
L 347.559827 65.311421 
L 348.73695 46.575749 
L 349.914072 43.026626 
L 351.091195 37.830795 
L 352.268317 36.21085 
L 353.44544 42.980797 
L 354.622562 51.0694 
L 355.799685 57.699557 
L 356.976807 72.596559 
L 358.15393 77.169648 
L 359.331052 83.923256 
L 360.508175 97.950812 
L 361.685297 114.48307 
L 362.86242 113.47066 
L 364.039542 128.174068 
L 365.216665 130.692478 
L 366.393787 136.262587 
L 367.57091 137.939303 
L 368.748032 141.033335 
L 369.925155 136.58141 
L 371.102277 143.108477 
L 372.2794 152.38518 
L 373.456522 155.881554 
L 374.633645 166.889283 
L 375.810767 167.27641 
L 376.98789 185.80153 
L 378.165012 200.274729 
L 379.342135 219.232354 
L 380.519257 228.115663 
L 381.69638 239.366335 
L 382.873502 236.679066 
L 384.050625 236.868747 
L 385.227747 232.974938 
L 386.40487 228.658986 
L 387.581992 206.879638 
L 388.759115 178.144535 
L 389.936237 152.833097 
L 391.11336 124.465132 
L 392.290482 104.155778 
L 393.467605 81.524073 
L 394.644727 63.046503 
L 395.82185 63.309427 
L 396.998972 70.800942 
L 399.353217 106.5567 
L 400.53034 140.583658 
L 401.707462 159.419518 
L 402.884585 189.563862 
L 404.061707 214.173647 
L 405.238829 223.656525 
L 406.415952 231.871483 
L 407.593074 227.448858 
L 408.770197 226.839684 
L 409.947319 216.523444 
L 412.301564 190.731495 
L 413.478687 186.084186 
L 414.655809 184.769849 
L 415.832932 180.380031 
L 417.010054 185.266885 
L 418.187177 199.784386 
L 419.364299 211.334813 
L 420.541422 215.378764 
L 421.718544 229.013891 
L 422.895667 218.712771 
L 424.072789 226.669139 
L 425.249912 217.359413 
L 427.604157 177.34369 
L 428.781279 150.233358 
L 429.958402 127.329067 
L 431.135524 101.368961 
L 432.312647 86.554803 
L 433.489769 69.255045 
L 434.666892 58.316064 
L 435.844014 63.242865 
L 437.021137 64.275878 
L 438.198259 73.426493 
L 439.375382 99.801549 
L 440.552504 111.8101 
L 441.729627 125.418176 
L 442.906749 141.99135 
L 444.083872 151.920029 
L 445.260994 164.761259 
L 446.438117 175.066072 
L 447.615239 176.600592 
L 448.792362 188.0028 
L 449.969484 179.063772 
L 451.146607 183.977534 
L 452.323729 180.687352 
L 453.500852 182.373545 
L 454.677974 177.112242 
L 455.855097 180.234818 
L 457.032219 169.626843 
L 458.209342 167.264324 
L 459.386464 162.865883 
L 460.563587 155.165449 
L 462.917832 121.894762 
L 464.094954 110.531952 
L 465.272077 92.42119 
L 466.449199 78.064087 
L 467.626322 73.040836 
L 468.803444 68.663066 
L 469.980567 64.976344 
L 471.157689 71.815947 
L 472.334812 82.32696 
L 473.511934 97.569266 
L 474.689057 116.296496 
L 477.043302 162.747064 
L 479.397547 200.523103 
L 480.574669 207.446369 
L 481.751792 224.006757 
L 482.928914 235.310731 
L 484.106037 238.859125 
L 485.283159 233.833039 
L 486.460282 235.853587 
L 487.637404 218.521892 
L 489.991649 190.566886 
L 491.168772 167.842223 
L 493.523017 129.597903 
L 494.700139 113.664594 
L 495.877262 89.54327 
L 497.054384 82.564414 
L 499.408629 52.58582 
L 500.585751 48.618647 
L 501.762874 41.788498 
L 502.939996 48.123017 
L 504.117119 52.196496 
L 505.294241 56.688134 
L 506.471364 57.912904 
L 507.648486 65.064022 
L 508.825609 79.2726 
L 510.002731 86.130153 
L 511.179854 90.849569 
L 512.356976 104.744396 
L 513.534099 105.728081 
L 514.711221 116.940355 
L 515.888344 123.513412 
L 517.065466 127.923605 
L 518.242589 130.286136 
L 519.419711 138.380523 
L 520.596834 147.796744 
L 521.773956 156.195494 
L 522.951079 163.274883 
L 524.128201 169.59085 
L 525.305324 178.37072 
L 526.482446 189.285208 
L 527.659569 193.596383 
L 528.836691 202.844259 
L 530.013814 202.511866 
L 531.190936 206.489016 
L 532.368059 207.95749 
L 533.545181 202.404005 
L 534.722304 203.50172 
L 535.899426 200.325108 
L 537.076549 204.636601 
L 538.253671 207.556041 
L 539.430794 218.515452 
L 540.607916 215.948405 
L 541.785039 212.229694 
L 542.962161 222.960441 
L 544.139284 216.201824 
L 545.316406 205.752922 
L 545.316406 205.752922 
" clip-path="url(#p8de96cdccb)" style="fill: none; stroke: #ff7f0e; stroke-linecap: square"/>
   </g>
   <g id="patch_3">
    <path d="M 52.160938 250.421875 
L 52.160938 7.2 
" style="fill: none; stroke: #000000; stroke-width: 0.8; stroke-linejoin: miter; stroke-linecap: square"/>
   </g>
   <g id="patch_4">
    <path d="M 568.8 250.421875 
L 568.8 7.2 
" style="fill: none; stroke: #000000; stroke-width: 0.8; stroke-linejoin: miter; stroke-linecap: square"/>
   </g>
   <g id="patch_5">
    <path d="M 52.160937 250.421875 
L 568.8 250.421875 
" style="fill: none; stroke: #000000; stroke-width: 0.8; stroke-linejoin: miter; stroke-linecap: square"/>
   </g>
   <g id="patch_6">
    <path d="M 52.160937 7.2 
L 568.8 7.2 
" style="fill: none; stroke: #000000; stroke-width: 0.8; stroke-linejoin: miter; stroke-linecap: square"/>
   </g>
   <g id="legend_1">
    <g id="patch_7">
     <path d="M 504.804688 44.55625 
L 561.8 44.55625 
Q 563.8 44.55625 563.8 42.55625 
L 563.8 14.2 
Q 563.8 12.2 561.8 12.2 
L 504.804688 12.2 
Q 502.804688 12.2 502.804688 14.2 
L 502.804688 42.55625 
Q 502.804688 44.55625 504.804688 44.55625 
z
" style="fill: #ffffff; opacity: 0.8; stroke: #cccccc; stroke-linejoin: miter"/>
    </g>
    <g id="line2d_31">
     <path d="M 506.804688 20.298437 
L 516.804688 20.298437 
L 526.804688 20.298437 
" style="fill: none; stroke: #1f77b4; stroke-linecap: square"/>
    </g>
    <g id="text_17">
     <!-- real -->
     <g transform="translate(534.804688 23.798437) scale(0.1 -0.1)">
      <defs>
       <path id="DejaVuSans-72" d="M 2631 2963 
Q 2534 3019 2420 3045 
Q 2306 3072 2169 3072 
Q 1681 3072 1420 2755 
Q 1159 2438 1159 1844 
L 1159 0 
L 581 0 
L 581 3500 
L 1159 3500 
L 1159 2956 
Q 1341 3275 1631 3429 
Q 1922 3584 2338 3584 
Q 2397 3584 2469 3576 
Q 2541 3569 2628 3553 
L 2631 2963 
z
" transform="scale(0.015625)"/>
      </defs>
      <use xlink:href="#DejaVuSans-72"/>
      <use xlink:href="#DejaVuSans-65" transform="translate(38.863281 0)"/>
      <use xlink:href="#DejaVuSans-61" transform="translate(100.386719 0)"/>
      <use xlink:href="#DejaVuSans-6c" transform="translate(161.666016 0)"/>
     </g>
    </g>
    <g id="line2d_32">
     <path d="M 506.804688 34.976562 
L 516.804688 34.976562 
L 526.804688 34.976562 
" style="fill: none; stroke: #ff7f0e; stroke-linecap: square"/>
    </g>
    <g id="text_18">
     <!-- imag -->
     <g transform="translate(534.804688 38.476562) scale(0.1 -0.1)">
      <defs>
       <path id="DejaVuSans-67" d="M 2906 1791 
Q 2906 2416 2648 2759 
Q 2391 3103 1925 3103 
Q 1463 3103 1205 2759 
Q 947 2416 947 1791 
Q 947 1169 1205 825 
Q 1463 481 1925 481 
Q 2391 481 2648 825 
Q 2906 1169 2906 1791 
z
M 3481 434 
Q 3481 -459 3084 -895 
Q 2688 -1331 1869 -1331 
Q 1566 -1331 1297 -1286 
Q 1028 -1241 775 -1147 
L 775 -588 
Q 1028 -725 1275 -790 
Q 1522 -856 1778 -856 
Q 2344 -856 2625 -561 
Q 2906 -266 2906 331 
L 2906 616 
Q 2728 306 2450 153 
Q 2172 0 1784 0 
Q 1141 0 747 490 
Q 353 981 353 1791 
Q 353 2603 747 3093 
Q 1141 3584 1784 3584 
Q 2172 3584 2450 3431 
Q 2728 3278 2906 2969 
L 2906 3500 
L 3481 3500 
L 3481 434 
z
" transform="scale(0.015625)"/>
      </defs>
      <use xlink:href="#DejaVuSans-69"/>
      <use xlink:href="#DejaVuSans-6d" transform="translate(27.783203 0)"/>
      <use xlink:href="#DejaVuSans-61" transform="translate(125.195312 0)"/>
      <use xlink:href="#DejaVuSans-67" transform="translate(186.474609 0)"/>
     </g>
    </g>
   </g>
  </g>
 </g>
 <defs>
  <clipPath id="p8de96cdccb">
   <rect x="52.160938" y="7.2" width="516.639063" height="243.221875"/>
  </clipPath>
 </defs>
</svg>
