<?xml version="1.0" encoding="utf-8" standalone="no"?>
<!DOCTYPE svg PUBLIC "-//W3C//DTD SVG 1.1//EN"
  "http://www.w3.org/Graphics/SVG/1.1/DTD/svg11.dtd">
<svg xmlns:xlink="http://www.w3.org/1999/xlink" width="576pt" height="288pt" viewBox="0 0 576 288" xmlns="http://www.w3.org/2000/svg" version="1.1">
 <metadata>
  <rdf:RDF xmlns:dc="http://purl.org/dc/elements/1.1/" xmlns:cc="http://creativecommons.org/ns#" xmlns:rdf="http://www.w3.org/1999/02/22-rdf-syntax-ns#">
   <cc:Work>
    <dc:type rdf:resource="http://purl.org/dc/dcmitype/StillImage"/>
    <dc:date>2025-05-04T14:40:46.649385</dc:date>
    <dc:format>image/svg+xml</dc:format>
    <dc:creator>
     <cc:Agent>
      <dc:title>Matplotlib v3.10.1, https://matplotlib.org/</dc:title>
     </cc:Agent>
    </dc:creator>
   </cc:Work>
  </rdf:RDF>
 </metadata>
 <defs>
  <style type="text/css">*{stroke-linejoin: round; stroke-linecap: butt}</style>
 </defs>
 <g id="figure_1">
  <g id="patch_1">
   <path d="M 0 288 
L 576 288 
L 576 0 
L 0 0 
z
" style="fill: #ffffff"/>
  </g>
  <g id="axes_1">
   <g id="patch_2">
    <path d="M 48.982813 250.421875 
L 568.8 250.421875 
L 568.8 22.32 
L 48.982813 22.32 
z
" style="fill: #ffffff"/>
   </g>
   <g id="matplotlib.axis_1">
    <g id="xtick_1">
     <g id="line2d_1">
      <path d="M 119.89006 250.421875 
L 119.89006 22.32 
" clip-path="url(#p10858acd92)" style="fill: none; stroke-dasharray: 2.96,1.28; stroke-dashoffset: 0; stroke: #b0b0b0; stroke-opacity: 0.8; stroke-width: 0.8"/>
     </g>
     <g id="line2d_2">
      <defs>
       <path id="m465e725e7f" d="M 0 0 
L 0 3.5 
" style="stroke: #000000; stroke-width: 0.8"/>
      </defs>
      <g>
       <use xlink:href="#m465e725e7f" x="119.89006" y="250.421875" style="stroke: #000000; stroke-width: 0.8"/>
      </g>
     </g>
     <g id="text_1">
      <!-- -200 -->
      <g transform="translate(108.542404 265.020312) scale(0.1 -0.1)">
       <defs>
        <path id="DejaVuSans-2d" d="M 313 2009 
L 1997 2009 
L 1997 1497 
L 313 1497 
L 313 2009 
z
" transform="scale(0.015625)"/>
        <path id="DejaVuSans-32" d="M 1228 531 
L 3431 531 
L 3431 0 
L 469 0 
L 469 531 
Q 828 903 1448 1529 
Q 2069 2156 2228 2338 
Q 2531 2678 2651 2914 
Q 2772 3150 2772 3378 
Q 2772 3750 2511 3984 
Q 2250 4219 1831 4219 
Q 1534 4219 1204 4116 
Q 875 4013 500 3803 
L 500 4441 
Q 881 4594 1212 4672 
Q 1544 4750 1819 4750 
Q 2544 4750 2975 4387 
Q 3406 4025 3406 3419 
Q 3406 3131 3298 2873 
Q 3191 2616 2906 2266 
Q 2828 2175 2409 1742 
Q 1991 1309 1228 531 
z
" transform="scale(0.015625)"/>
        <path id="DejaVuSans-30" d="M 2034 4250 
Q 1547 4250 1301 3770 
Q 1056 3291 1056 2328 
Q 1056 1369 1301 889 
Q 1547 409 2034 409 
Q 2525 409 2770 889 
Q 3016 1369 3016 2328 
Q 3016 3291 2770 3770 
Q 2525 4250 2034 4250 
z
M 2034 4750 
Q 2819 4750 3233 4129 
Q 3647 3509 3647 2328 
Q 3647 1150 3233 529 
Q 2819 -91 2034 -91 
Q 1250 -91 836 529 
Q 422 1150 422 2328 
Q 422 3509 836 4129 
Q 1250 4750 2034 4750 
z
" transform="scale(0.015625)"/>
       </defs>
       <use xlink:href="#DejaVuSans-2d"/>
       <use xlink:href="#DejaVuSans-32" transform="translate(36.083984 0)"/>
       <use xlink:href="#DejaVuSans-30" transform="translate(99.707031 0)"/>
       <use xlink:href="#DejaVuSans-30" transform="translate(163.330078 0)"/>
      </g>
     </g>
    </g>
    <g id="xtick_2">
     <g id="line2d_3">
      <path d="M 214.448447 250.421875 
L 214.448447 22.32 
" clip-path="url(#p10858acd92)" style="fill: none; stroke-dasharray: 2.96,1.28; stroke-dashoffset: 0; stroke: #b0b0b0; stroke-opacity: 0.8; stroke-width: 0.8"/>
     </g>
     <g id="line2d_4">
      <g>
       <use xlink:href="#m465e725e7f" x="214.448447" y="250.421875" style="stroke: #000000; stroke-width: 0.8"/>
      </g>
     </g>
     <g id="text_2">
      <!-- -100 -->
      <g transform="translate(203.100791 265.020312) scale(0.1 -0.1)">
       <defs>
        <path id="DejaVuSans-31" d="M 794 531 
L 1825 531 
L 1825 4091 
L 703 3866 
L 703 4441 
L 1819 4666 
L 2450 4666 
L 2450 531 
L 3481 531 
L 3481 0 
L 794 0 
L 794 531 
z
" transform="scale(0.015625)"/>
       </defs>
       <use xlink:href="#DejaVuSans-2d"/>
       <use xlink:href="#DejaVuSans-31" transform="translate(36.083984 0)"/>
       <use xlink:href="#DejaVuSans-30" transform="translate(99.707031 0)"/>
       <use xlink:href="#DejaVuSans-30" transform="translate(163.330078 0)"/>
      </g>
     </g>
    </g>
    <g id="xtick_3">
     <g id="line2d_5">
      <path d="M 309.006834 250.421875 
L 309.006834 22.32 
" clip-path="url(#p10858acd92)" style="fill: none; stroke-dasharray: 2.96,1.28; stroke-dashoffset: 0; stroke: #b0b0b0; stroke-opacity: 0.8; stroke-width: 0.8"/>
     </g>
     <g id="line2d_6">
      <g>
       <use xlink:href="#m465e725e7f" x="309.006834" y="250.421875" style="stroke: #000000; stroke-width: 0.8"/>
      </g>
     </g>
     <g id="text_3">
      <!-- 0 -->
      <g transform="translate(305.825584 265.020312) scale(0.1 -0.1)">
       <use xlink:href="#DejaVuSans-30"/>
      </g>
     </g>
    </g>
    <g id="xtick_4">
     <g id="line2d_7">
      <path d="M 403.565221 250.421875 
L 403.565221 22.32 
" clip-path="url(#p10858acd92)" style="fill: none; stroke-dasharray: 2.96,1.28; stroke-dashoffset: 0; stroke: #b0b0b0; stroke-opacity: 0.8; stroke-width: 0.8"/>
     </g>
     <g id="line2d_8">
      <g>
       <use xlink:href="#m465e725e7f" x="403.565221" y="250.421875" style="stroke: #000000; stroke-width: 0.8"/>
      </g>
     </g>
     <g id="text_4">
      <!-- 100 -->
      <g transform="translate(394.021471 265.020312) scale(0.1 -0.1)">
       <use xlink:href="#DejaVuSans-31"/>
       <use xlink:href="#DejaVuSans-30" transform="translate(63.623047 0)"/>
       <use xlink:href="#DejaVuSans-30" transform="translate(127.246094 0)"/>
      </g>
     </g>
    </g>
    <g id="xtick_5">
     <g id="line2d_9">
      <path d="M 498.123608 250.421875 
L 498.123608 22.32 
" clip-path="url(#p10858acd92)" style="fill: none; stroke-dasharray: 2.96,1.28; stroke-dashoffset: 0; stroke: #b0b0b0; stroke-opacity: 0.8; stroke-width: 0.8"/>
     </g>
     <g id="line2d_10">
      <g>
       <use xlink:href="#m465e725e7f" x="498.123608" y="250.421875" style="stroke: #000000; stroke-width: 0.8"/>
      </g>
     </g>
     <g id="text_5">
      <!-- 200 -->
      <g transform="translate(488.579858 265.020312) scale(0.1 -0.1)">
       <use xlink:href="#DejaVuSans-32"/>
       <use xlink:href="#DejaVuSans-30" transform="translate(63.623047 0)"/>
       <use xlink:href="#DejaVuSans-30" transform="translate(127.246094 0)"/>
      </g>
     </g>
    </g>
    <g id="text_6">
     <!-- Frequency (Hz), $f$ -->
     <g transform="translate(265.741406 278.7) scale(0.1 -0.1)">
      <defs>
       <path id="DejaVuSans-46" d="M 628 4666 
L 3309 4666 
L 3309 4134 
L 1259 4134 
L 1259 2759 
L 3109 2759 
L 3109 2228 
L 1259 2228 
L 1259 0 
L 628 0 
L 628 4666 
z
" transform="scale(0.015625)"/>
       <path id="DejaVuSans-72" d="M 2631 2963 
Q 2534 3019 2420 3045 
Q 2306 3072 2169 3072 
Q 1681 3072 1420 2755 
Q 1159 2438 1159 1844 
L 1159 0 
L 581 0 
L 581 3500 
L 1159 3500 
L 1159 2956 
Q 1341 3275 1631 3429 
Q 1922 3584 2338 3584 
Q 2397 3584 2469 3576 
Q 2541 3569 2628 3553 
L 2631 2963 
z
" transform="scale(0.015625)"/>
       <path id="DejaVuSans-65" d="M 3597 1894 
L 3597 1613 
L 953 1613 
Q 991 1019 1311 708 
Q 1631 397 2203 397 
Q 2534 397 2845 478 
Q 3156 559 3463 722 
L 3463 178 
Q 3153 47 2828 -22 
Q 2503 -91 2169 -91 
Q 1331 -91 842 396 
Q 353 884 353 1716 
Q 353 2575 817 3079 
Q 1281 3584 2069 3584 
Q 2775 3584 3186 3129 
Q 3597 2675 3597 1894 
z
M 3022 2063 
Q 3016 2534 2758 2815 
Q 2500 3097 2075 3097 
Q 1594 3097 1305 2825 
Q 1016 2553 972 2059 
L 3022 2063 
z
" transform="scale(0.015625)"/>
       <path id="DejaVuSans-71" d="M 947 1747 
Q 947 1113 1208 752 
Q 1469 391 1925 391 
Q 2381 391 2643 752 
Q 2906 1113 2906 1747 
Q 2906 2381 2643 2742 
Q 2381 3103 1925 3103 
Q 1469 3103 1208 2742 
Q 947 2381 947 1747 
z
M 2906 525 
Q 2725 213 2448 61 
Q 2172 -91 1784 -91 
Q 1150 -91 751 415 
Q 353 922 353 1747 
Q 353 2572 751 3078 
Q 1150 3584 1784 3584 
Q 2172 3584 2448 3432 
Q 2725 3281 2906 2969 
L 2906 3500 
L 3481 3500 
L 3481 -1331 
L 2906 -1331 
L 2906 525 
z
" transform="scale(0.015625)"/>
       <path id="DejaVuSans-75" d="M 544 1381 
L 544 3500 
L 1119 3500 
L 1119 1403 
Q 1119 906 1312 657 
Q 1506 409 1894 409 
Q 2359 409 2629 706 
Q 2900 1003 2900 1516 
L 2900 3500 
L 3475 3500 
L 3475 0 
L 2900 0 
L 2900 538 
Q 2691 219 2414 64 
Q 2138 -91 1772 -91 
Q 1169 -91 856 284 
Q 544 659 544 1381 
z
M 1991 3584 
L 1991 3584 
z
" transform="scale(0.015625)"/>
       <path id="DejaVuSans-6e" d="M 3513 2113 
L 3513 0 
L 2938 0 
L 2938 2094 
Q 2938 2591 2744 2837 
Q 2550 3084 2163 3084 
Q 1697 3084 1428 2787 
Q 1159 2491 1159 1978 
L 1159 0 
L 581 0 
L 581 3500 
L 1159 3500 
L 1159 2956 
Q 1366 3272 1645 3428 
Q 1925 3584 2291 3584 
Q 2894 3584 3203 3211 
Q 3513 2838 3513 2113 
z
" transform="scale(0.015625)"/>
       <path id="DejaVuSans-63" d="M 3122 3366 
L 3122 2828 
Q 2878 2963 2633 3030 
Q 2388 3097 2138 3097 
Q 1578 3097 1268 2742 
Q 959 2388 959 1747 
Q 959 1106 1268 751 
Q 1578 397 2138 397 
Q 2388 397 2633 464 
Q 2878 531 3122 666 
L 3122 134 
Q 2881 22 2623 -34 
Q 2366 -91 2075 -91 
Q 1284 -91 818 406 
Q 353 903 353 1747 
Q 353 2603 823 3093 
Q 1294 3584 2113 3584 
Q 2378 3584 2631 3529 
Q 2884 3475 3122 3366 
z
" transform="scale(0.015625)"/>
       <path id="DejaVuSans-79" d="M 2059 -325 
Q 1816 -950 1584 -1140 
Q 1353 -1331 966 -1331 
L 506 -1331 
L 506 -850 
L 844 -850 
Q 1081 -850 1212 -737 
Q 1344 -625 1503 -206 
L 1606 56 
L 191 3500 
L 800 3500 
L 1894 763 
L 2988 3500 
L 3597 3500 
L 2059 -325 
z
" transform="scale(0.015625)"/>
       <path id="DejaVuSans-20" transform="scale(0.015625)"/>
       <path id="DejaVuSans-28" d="M 1984 4856 
Q 1566 4138 1362 3434 
Q 1159 2731 1159 2009 
Q 1159 1288 1364 580 
Q 1569 -128 1984 -844 
L 1484 -844 
Q 1016 -109 783 600 
Q 550 1309 550 2009 
Q 550 2706 781 3412 
Q 1013 4119 1484 4856 
L 1984 4856 
z
" transform="scale(0.015625)"/>
       <path id="DejaVuSans-48" d="M 628 4666 
L 1259 4666 
L 1259 2753 
L 3553 2753 
L 3553 4666 
L 4184 4666 
L 4184 0 
L 3553 0 
L 3553 2222 
L 1259 2222 
L 1259 0 
L 628 0 
L 628 4666 
z
" transform="scale(0.015625)"/>
       <path id="DejaVuSans-7a" d="M 353 3500 
L 3084 3500 
L 3084 2975 
L 922 459 
L 3084 459 
L 3084 0 
L 275 0 
L 275 525 
L 2438 3041 
L 353 3041 
L 353 3500 
z
" transform="scale(0.015625)"/>
       <path id="DejaVuSans-29" d="M 513 4856 
L 1013 4856 
Q 1481 4119 1714 3412 
Q 1947 2706 1947 2009 
Q 1947 1309 1714 600 
Q 1481 -109 1013 -844 
L 513 -844 
Q 928 -128 1133 580 
Q 1338 1288 1338 2009 
Q 1338 2731 1133 3434 
Q 928 4138 513 4856 
z
" transform="scale(0.015625)"/>
       <path id="DejaVuSans-2c" d="M 750 794 
L 1409 794 
L 1409 256 
L 897 -744 
L 494 -744 
L 750 256 
L 750 794 
z
" transform="scale(0.015625)"/>
       <path id="DejaVuSans-Oblique-66" d="M 3059 4863 
L 2969 4384 
L 2419 4384 
Q 2106 4384 1964 4261 
Q 1822 4138 1753 3809 
L 1691 3500 
L 2638 3500 
L 2553 3053 
L 1606 3053 
L 1013 0 
L 434 0 
L 1031 3053 
L 481 3053 
L 563 3500 
L 1113 3500 
L 1159 3744 
Q 1278 4363 1576 4613 
Q 1875 4863 2516 4863 
L 3059 4863 
z
" transform="scale(0.015625)"/>
      </defs>
      <use xlink:href="#DejaVuSans-46" transform="translate(0 0.015625)"/>
      <use xlink:href="#DejaVuSans-72" transform="translate(57.519531 0.015625)"/>
      <use xlink:href="#DejaVuSans-65" transform="translate(98.632812 0.015625)"/>
      <use xlink:href="#DejaVuSans-71" transform="translate(160.15625 0.015625)"/>
      <use xlink:href="#DejaVuSans-75" transform="translate(223.632812 0.015625)"/>
      <use xlink:href="#DejaVuSans-65" transform="translate(287.011719 0.015625)"/>
      <use xlink:href="#DejaVuSans-6e" transform="translate(348.535156 0.015625)"/>
      <use xlink:href="#DejaVuSans-63" transform="translate(411.914062 0.015625)"/>
      <use xlink:href="#DejaVuSans-79" transform="translate(466.894531 0.015625)"/>
      <use xlink:href="#DejaVuSans-20" transform="translate(526.074219 0.015625)"/>
      <use xlink:href="#DejaVuSans-28" transform="translate(557.861328 0.015625)"/>
      <use xlink:href="#DejaVuSans-48" transform="translate(596.875 0.015625)"/>
      <use xlink:href="#DejaVuSans-7a" transform="translate(672.070312 0.015625)"/>
      <use xlink:href="#DejaVuSans-29" transform="translate(724.560547 0.015625)"/>
      <use xlink:href="#DejaVuSans-2c" transform="translate(763.574219 0.015625)"/>
      <use xlink:href="#DejaVuSans-20" transform="translate(795.361328 0.015625)"/>
      <use xlink:href="#DejaVuSans-Oblique-66" transform="translate(827.148438 0.015625)"/>
     </g>
    </g>
   </g>
   <g id="matplotlib.axis_2">
    <g id="ytick_1">
     <g id="line2d_11">
      <path d="M 48.982813 228.480643 
L 568.8 228.480643 
" clip-path="url(#p10858acd92)" style="fill: none; stroke-dasharray: 2.96,1.28; stroke-dashoffset: 0; stroke: #b0b0b0; stroke-opacity: 0.8; stroke-width: 0.8"/>
     </g>
     <g id="line2d_12">
      <defs>
       <path id="m979a987a17" d="M 0 0 
L -3.5 0 
" style="stroke: #000000; stroke-width: 0.8"/>
      </defs>
      <g>
       <use xlink:href="#m979a987a17" x="48.982813" y="228.480643" style="stroke: #000000; stroke-width: 0.8"/>
      </g>
     </g>
     <g id="text_7">
      <!-- −70 -->
      <g transform="translate(20.878125 232.279862) scale(0.1 -0.1)">
       <defs>
        <path id="DejaVuSans-2212" d="M 678 2272 
L 4684 2272 
L 4684 1741 
L 678 1741 
L 678 2272 
z
" transform="scale(0.015625)"/>
        <path id="DejaVuSans-37" d="M 525 4666 
L 3525 4666 
L 3525 4397 
L 1831 0 
L 1172 0 
L 2766 4134 
L 525 4134 
L 525 4666 
z
" transform="scale(0.015625)"/>
       </defs>
       <use xlink:href="#DejaVuSans-2212"/>
       <use xlink:href="#DejaVuSans-37" transform="translate(83.789062 0)"/>
       <use xlink:href="#DejaVuSans-30" transform="translate(147.412109 0)"/>
      </g>
     </g>
    </g>
    <g id="ytick_2">
     <g id="line2d_13">
      <path d="M 48.982813 198.514255 
L 568.8 198.514255 
" clip-path="url(#p10858acd92)" style="fill: none; stroke-dasharray: 2.96,1.28; stroke-dashoffset: 0; stroke: #b0b0b0; stroke-opacity: 0.8; stroke-width: 0.8"/>
     </g>
     <g id="line2d_14">
      <g>
       <use xlink:href="#m979a987a17" x="48.982813" y="198.514255" style="stroke: #000000; stroke-width: 0.8"/>
      </g>
     </g>
     <g id="text_8">
      <!-- −60 -->
      <g transform="translate(20.878125 202.313474) scale(0.1 -0.1)">
       <defs>
        <path id="DejaVuSans-36" d="M 2113 2584 
Q 1688 2584 1439 2293 
Q 1191 2003 1191 1497 
Q 1191 994 1439 701 
Q 1688 409 2113 409 
Q 2538 409 2786 701 
Q 3034 994 3034 1497 
Q 3034 2003 2786 2293 
Q 2538 2584 2113 2584 
z
M 3366 4563 
L 3366 3988 
Q 3128 4100 2886 4159 
Q 2644 4219 2406 4219 
Q 1781 4219 1451 3797 
Q 1122 3375 1075 2522 
Q 1259 2794 1537 2939 
Q 1816 3084 2150 3084 
Q 2853 3084 3261 2657 
Q 3669 2231 3669 1497 
Q 3669 778 3244 343 
Q 2819 -91 2113 -91 
Q 1303 -91 875 529 
Q 447 1150 447 2328 
Q 447 3434 972 4092 
Q 1497 4750 2381 4750 
Q 2619 4750 2861 4703 
Q 3103 4656 3366 4563 
z
" transform="scale(0.015625)"/>
       </defs>
       <use xlink:href="#DejaVuSans-2212"/>
       <use xlink:href="#DejaVuSans-36" transform="translate(83.789062 0)"/>
       <use xlink:href="#DejaVuSans-30" transform="translate(147.412109 0)"/>
      </g>
     </g>
    </g>
    <g id="ytick_3">
     <g id="line2d_15">
      <path d="M 48.982813 168.547867 
L 568.8 168.547867 
" clip-path="url(#p10858acd92)" style="fill: none; stroke-dasharray: 2.96,1.28; stroke-dashoffset: 0; stroke: #b0b0b0; stroke-opacity: 0.8; stroke-width: 0.8"/>
     </g>
     <g id="line2d_16">
      <g>
       <use xlink:href="#m979a987a17" x="48.982813" y="168.547867" style="stroke: #000000; stroke-width: 0.8"/>
      </g>
     </g>
     <g id="text_9">
      <!-- −50 -->
      <g transform="translate(20.878125 172.347086) scale(0.1 -0.1)">
       <defs>
        <path id="DejaVuSans-35" d="M 691 4666 
L 3169 4666 
L 3169 4134 
L 1269 4134 
L 1269 2991 
Q 1406 3038 1543 3061 
Q 1681 3084 1819 3084 
Q 2600 3084 3056 2656 
Q 3513 2228 3513 1497 
Q 3513 744 3044 326 
Q 2575 -91 1722 -91 
Q 1428 -91 1123 -41 
Q 819 9 494 109 
L 494 744 
Q 775 591 1075 516 
Q 1375 441 1709 441 
Q 2250 441 2565 725 
Q 2881 1009 2881 1497 
Q 2881 1984 2565 2268 
Q 2250 2553 1709 2553 
Q 1456 2553 1204 2497 
Q 953 2441 691 2322 
L 691 4666 
z
" transform="scale(0.015625)"/>
       </defs>
       <use xlink:href="#DejaVuSans-2212"/>
       <use xlink:href="#DejaVuSans-35" transform="translate(83.789062 0)"/>
       <use xlink:href="#DejaVuSans-30" transform="translate(147.412109 0)"/>
      </g>
     </g>
    </g>
    <g id="ytick_4">
     <g id="line2d_17">
      <path d="M 48.982813 138.581479 
L 568.8 138.581479 
" clip-path="url(#p10858acd92)" style="fill: none; stroke-dasharray: 2.96,1.28; stroke-dashoffset: 0; stroke: #b0b0b0; stroke-opacity: 0.8; stroke-width: 0.8"/>
     </g>
     <g id="line2d_18">
      <g>
       <use xlink:href="#m979a987a17" x="48.982813" y="138.581479" style="stroke: #000000; stroke-width: 0.8"/>
      </g>
     </g>
     <g id="text_10">
      <!-- −40 -->
      <g transform="translate(20.878125 142.380697) scale(0.1 -0.1)">
       <defs>
        <path id="DejaVuSans-34" d="M 2419 4116 
L 825 1625 
L 2419 1625 
L 2419 4116 
z
M 2253 4666 
L 3047 4666 
L 3047 1625 
L 3713 1625 
L 3713 1100 
L 3047 1100 
L 3047 0 
L 2419 0 
L 2419 1100 
L 313 1100 
L 313 1709 
L 2253 4666 
z
" transform="scale(0.015625)"/>
       </defs>
       <use xlink:href="#DejaVuSans-2212"/>
       <use xlink:href="#DejaVuSans-34" transform="translate(83.789062 0)"/>
       <use xlink:href="#DejaVuSans-30" transform="translate(147.412109 0)"/>
      </g>
     </g>
    </g>
    <g id="ytick_5">
     <g id="line2d_19">
      <path d="M 48.982813 108.61509 
L 568.8 108.61509 
" clip-path="url(#p10858acd92)" style="fill: none; stroke-dasharray: 2.96,1.28; stroke-dashoffset: 0; stroke: #b0b0b0; stroke-opacity: 0.8; stroke-width: 0.8"/>
     </g>
     <g id="line2d_20">
      <g>
       <use xlink:href="#m979a987a17" x="48.982813" y="108.61509" style="stroke: #000000; stroke-width: 0.8"/>
      </g>
     </g>
     <g id="text_11">
      <!-- −30 -->
      <g transform="translate(20.878125 112.414309) scale(0.1 -0.1)">
       <defs>
        <path id="DejaVuSans-33" d="M 2597 2516 
Q 3050 2419 3304 2112 
Q 3559 1806 3559 1356 
Q 3559 666 3084 287 
Q 2609 -91 1734 -91 
Q 1441 -91 1130 -33 
Q 819 25 488 141 
L 488 750 
Q 750 597 1062 519 
Q 1375 441 1716 441 
Q 2309 441 2620 675 
Q 2931 909 2931 1356 
Q 2931 1769 2642 2001 
Q 2353 2234 1838 2234 
L 1294 2234 
L 1294 2753 
L 1863 2753 
Q 2328 2753 2575 2939 
Q 2822 3125 2822 3475 
Q 2822 3834 2567 4026 
Q 2313 4219 1838 4219 
Q 1578 4219 1281 4162 
Q 984 4106 628 3988 
L 628 4550 
Q 988 4650 1302 4700 
Q 1616 4750 1894 4750 
Q 2613 4750 3031 4423 
Q 3450 4097 3450 3541 
Q 3450 3153 3228 2886 
Q 3006 2619 2597 2516 
z
" transform="scale(0.015625)"/>
       </defs>
       <use xlink:href="#DejaVuSans-2212"/>
       <use xlink:href="#DejaVuSans-33" transform="translate(83.789062 0)"/>
       <use xlink:href="#DejaVuSans-30" transform="translate(147.412109 0)"/>
      </g>
     </g>
    </g>
    <g id="ytick_6">
     <g id="line2d_21">
      <path d="M 48.982813 78.648702 
L 568.8 78.648702 
" clip-path="url(#p10858acd92)" style="fill: none; stroke-dasharray: 2.96,1.28; stroke-dashoffset: 0; stroke: #b0b0b0; stroke-opacity: 0.8; stroke-width: 0.8"/>
     </g>
     <g id="line2d_22">
      <g>
       <use xlink:href="#m979a987a17" x="48.982813" y="78.648702" style="stroke: #000000; stroke-width: 0.8"/>
      </g>
     </g>
     <g id="text_12">
      <!-- −20 -->
      <g transform="translate(20.878125 82.447921) scale(0.1 -0.1)">
       <use xlink:href="#DejaVuSans-2212"/>
       <use xlink:href="#DejaVuSans-32" transform="translate(83.789062 0)"/>
       <use xlink:href="#DejaVuSans-30" transform="translate(147.412109 0)"/>
      </g>
     </g>
    </g>
    <g id="ytick_7">
     <g id="line2d_23">
      <path d="M 48.982813 48.682314 
L 568.8 48.682314 
" clip-path="url(#p10858acd92)" style="fill: none; stroke-dasharray: 2.96,1.28; stroke-dashoffset: 0; stroke: #b0b0b0; stroke-opacity: 0.8; stroke-width: 0.8"/>
     </g>
     <g id="line2d_24">
      <g>
       <use xlink:href="#m979a987a17" x="48.982813" y="48.682314" style="stroke: #000000; stroke-width: 0.8"/>
      </g>
     </g>
     <g id="text_13">
      <!-- −10 -->
      <g transform="translate(20.878125 52.481532) scale(0.1 -0.1)">
       <use xlink:href="#DejaVuSans-2212"/>
       <use xlink:href="#DejaVuSans-31" transform="translate(83.789062 0)"/>
       <use xlink:href="#DejaVuSans-30" transform="translate(147.412109 0)"/>
      </g>
     </g>
    </g>
    <g id="text_14">
     <!-- Power density (dB/Hz) -->
     <g transform="translate(14.798437 191.570938) rotate(-90) scale(0.1 -0.1)">
      <defs>
       <path id="DejaVuSans-50" d="M 1259 4147 
L 1259 2394 
L 2053 2394 
Q 2494 2394 2734 2622 
Q 2975 2850 2975 3272 
Q 2975 3691 2734 3919 
Q 2494 4147 2053 4147 
L 1259 4147 
z
M 628 4666 
L 2053 4666 
Q 2838 4666 3239 4311 
Q 3641 3956 3641 3272 
Q 3641 2581 3239 2228 
Q 2838 1875 2053 1875 
L 1259 1875 
L 1259 0 
L 628 0 
L 628 4666 
z
" transform="scale(0.015625)"/>
       <path id="DejaVuSans-6f" d="M 1959 3097 
Q 1497 3097 1228 2736 
Q 959 2375 959 1747 
Q 959 1119 1226 758 
Q 1494 397 1959 397 
Q 2419 397 2687 759 
Q 2956 1122 2956 1747 
Q 2956 2369 2687 2733 
Q 2419 3097 1959 3097 
z
M 1959 3584 
Q 2709 3584 3137 3096 
Q 3566 2609 3566 1747 
Q 3566 888 3137 398 
Q 2709 -91 1959 -91 
Q 1206 -91 779 398 
Q 353 888 353 1747 
Q 353 2609 779 3096 
Q 1206 3584 1959 3584 
z
" transform="scale(0.015625)"/>
       <path id="DejaVuSans-77" d="M 269 3500 
L 844 3500 
L 1563 769 
L 2278 3500 
L 2956 3500 
L 3675 769 
L 4391 3500 
L 4966 3500 
L 4050 0 
L 3372 0 
L 2619 2869 
L 1863 0 
L 1184 0 
L 269 3500 
z
" transform="scale(0.015625)"/>
       <path id="DejaVuSans-64" d="M 2906 2969 
L 2906 4863 
L 3481 4863 
L 3481 0 
L 2906 0 
L 2906 525 
Q 2725 213 2448 61 
Q 2172 -91 1784 -91 
Q 1150 -91 751 415 
Q 353 922 353 1747 
Q 353 2572 751 3078 
Q 1150 3584 1784 3584 
Q 2172 3584 2448 3432 
Q 2725 3281 2906 2969 
z
M 947 1747 
Q 947 1113 1208 752 
Q 1469 391 1925 391 
Q 2381 391 2643 752 
Q 2906 1113 2906 1747 
Q 2906 2381 2643 2742 
Q 2381 3103 1925 3103 
Q 1469 3103 1208 2742 
Q 947 2381 947 1747 
z
" transform="scale(0.015625)"/>
       <path id="DejaVuSans-73" d="M 2834 3397 
L 2834 2853 
Q 2591 2978 2328 3040 
Q 2066 3103 1784 3103 
Q 1356 3103 1142 2972 
Q 928 2841 928 2578 
Q 928 2378 1081 2264 
Q 1234 2150 1697 2047 
L 1894 2003 
Q 2506 1872 2764 1633 
Q 3022 1394 3022 966 
Q 3022 478 2636 193 
Q 2250 -91 1575 -91 
Q 1294 -91 989 -36 
Q 684 19 347 128 
L 347 722 
Q 666 556 975 473 
Q 1284 391 1588 391 
Q 1994 391 2212 530 
Q 2431 669 2431 922 
Q 2431 1156 2273 1281 
Q 2116 1406 1581 1522 
L 1381 1569 
Q 847 1681 609 1914 
Q 372 2147 372 2553 
Q 372 3047 722 3315 
Q 1072 3584 1716 3584 
Q 2034 3584 2315 3537 
Q 2597 3491 2834 3397 
z
" transform="scale(0.015625)"/>
       <path id="DejaVuSans-69" d="M 603 3500 
L 1178 3500 
L 1178 0 
L 603 0 
L 603 3500 
z
M 603 4863 
L 1178 4863 
L 1178 4134 
L 603 4134 
L 603 4863 
z
" transform="scale(0.015625)"/>
       <path id="DejaVuSans-74" d="M 1172 4494 
L 1172 3500 
L 2356 3500 
L 2356 3053 
L 1172 3053 
L 1172 1153 
Q 1172 725 1289 603 
Q 1406 481 1766 481 
L 2356 481 
L 2356 0 
L 1766 0 
Q 1100 0 847 248 
Q 594 497 594 1153 
L 594 3053 
L 172 3053 
L 172 3500 
L 594 3500 
L 594 4494 
L 1172 4494 
z
" transform="scale(0.015625)"/>
       <path id="DejaVuSans-42" d="M 1259 2228 
L 1259 519 
L 2272 519 
Q 2781 519 3026 730 
Q 3272 941 3272 1375 
Q 3272 1813 3026 2020 
Q 2781 2228 2272 2228 
L 1259 2228 
z
M 1259 4147 
L 1259 2741 
L 2194 2741 
Q 2656 2741 2882 2914 
Q 3109 3088 3109 3444 
Q 3109 3797 2882 3972 
Q 2656 4147 2194 4147 
L 1259 4147 
z
M 628 4666 
L 2241 4666 
Q 2963 4666 3353 4366 
Q 3744 4066 3744 3513 
Q 3744 3084 3544 2831 
Q 3344 2578 2956 2516 
Q 3422 2416 3680 2098 
Q 3938 1781 3938 1306 
Q 3938 681 3513 340 
Q 3088 0 2303 0 
L 628 0 
L 628 4666 
z
" transform="scale(0.015625)"/>
       <path id="DejaVuSans-2f" d="M 1625 4666 
L 2156 4666 
L 531 -594 
L 0 -594 
L 1625 4666 
z
" transform="scale(0.015625)"/>
      </defs>
      <use xlink:href="#DejaVuSans-50"/>
      <use xlink:href="#DejaVuSans-6f" transform="translate(56.677734 0)"/>
      <use xlink:href="#DejaVuSans-77" transform="translate(117.859375 0)"/>
      <use xlink:href="#DejaVuSans-65" transform="translate(199.646484 0)"/>
      <use xlink:href="#DejaVuSans-72" transform="translate(261.169922 0)"/>
      <use xlink:href="#DejaVuSans-20" transform="translate(302.283203 0)"/>
      <use xlink:href="#DejaVuSans-64" transform="translate(334.070312 0)"/>
      <use xlink:href="#DejaVuSans-65" transform="translate(397.546875 0)"/>
      <use xlink:href="#DejaVuSans-6e" transform="translate(459.070312 0)"/>
      <use xlink:href="#DejaVuSans-73" transform="translate(522.449219 0)"/>
      <use xlink:href="#DejaVuSans-69" transform="translate(574.548828 0)"/>
      <use xlink:href="#DejaVuSans-74" transform="translate(602.332031 0)"/>
      <use xlink:href="#DejaVuSans-79" transform="translate(641.541016 0)"/>
      <use xlink:href="#DejaVuSans-20" transform="translate(700.720703 0)"/>
      <use xlink:href="#DejaVuSans-28" transform="translate(732.507812 0)"/>
      <use xlink:href="#DejaVuSans-64" transform="translate(771.521484 0)"/>
      <use xlink:href="#DejaVuSans-42" transform="translate(834.998047 0)"/>
      <use xlink:href="#DejaVuSans-2f" transform="translate(903.601562 0)"/>
      <use xlink:href="#DejaVuSans-48" transform="translate(937.292969 0)"/>
      <use xlink:href="#DejaVuSans-7a" transform="translate(1012.488281 0)"/>
      <use xlink:href="#DejaVuSans-29" transform="translate(1064.978516 0)"/>
     </g>
    </g>
   </g>
   <g id="line2d_25">
    <path d="M 72.610866 201.142746 
L 73.072577 200.512525 
L 73.534288 198.955969 
L 73.995999 196.18948 
L 75.611987 184.387252 
L 76.073698 182.745155 
L 76.304553 182.366293 
L 76.535409 182.275493 
L 76.766264 182.455783 
L 77.227975 183.520971 
L 77.920542 186.305139 
L 78.843963 190.314793 
L 79.305674 191.73132 
L 79.99824 193.032963 
L 80.459951 193.951916 
L 80.921662 195.612038 
L 81.383373 198.531889 
L 81.845084 202.991765 
L 82.768506 213.349519 
L 82.999361 213.895009 
L 83.230217 212.806204 
L 83.691927 207.54625 
L 84.384494 199.197886 
L 85.07706 193.619959 
L 87.385614 180.447203 
L 87.847325 178.675363 
L 88.078181 178.188263 
L 88.309036 177.985823 
L 88.539892 178.063335 
L 88.770747 178.40126 
L 89.232458 179.701481 
L 90.15588 182.897504 
L 90.617591 183.707483 
L 91.079301 183.955021 
L 91.541012 184.186987 
L 92.002723 184.932449 
L 92.464434 186.4216 
L 93.849567 192.016412 
L 94.080422 192.363797 
L 94.311278 192.501579 
L 94.772988 192.421595 
L 96.158121 191.789798 
L 97.312398 190.646111 
L 97.543254 190.692588 
L 97.774109 190.937792 
L 98.23582 192.082602 
L 99.159242 195.453377 
L 99.390097 195.634114 
L 99.620953 195.196073 
L 100.082663 192.665058 
L 100.77523 188.017227 
L 101.236941 186.452243 
L 101.467796 186.359204 
L 101.698652 186.729821 
L 102.160362 188.577564 
L 102.622073 190.59549 
L 102.852929 190.873334 
L 103.083784 190.331037 
L 103.545495 187.26185 
L 104.238061 182.202623 
L 104.699772 180.579006 
L 104.930628 180.418797 
L 105.161483 180.679024 
L 105.392339 181.333698 
L 105.854049 183.684861 
L 106.546616 189.140136 
L 107.700893 199.181222 
L 107.931748 200.34485 
L 108.162604 200.848569 
L 108.393459 200.622662 
L 108.624315 199.740445 
L 110.240303 190.880902 
L 110.471158 190.647333 
L 110.702014 190.826666 
L 110.932869 191.452421 
L 111.39458 194.19548 
L 111.856291 199.162696 
L 112.548857 209.049713 
L 112.779713 210.524683 
L 113.010568 209.61369 
L 114.164845 195.611625 
L 114.395701 194.375393 
L 114.626556 193.834816 
L 114.857411 193.944423 
L 115.088267 194.6192 
L 115.780833 197.600847 
L 116.011689 197.352594 
L 116.242544 195.805821 
L 116.93511 186.88553 
L 117.396821 181.58327 
L 117.858532 178.254108 
L 118.089388 177.371741 
L 118.320243 177.002327 
L 118.551098 177.135131 
L 118.781954 177.756749 
L 119.243665 180.368662 
L 120.397942 188.997166 
L 120.628797 188.78745 
L 120.859653 187.563263 
L 122.244785 176.351736 
L 122.706496 174.442848 
L 123.168207 173.552727 
L 123.399063 173.435171 
L 123.629918 173.513578 
L 123.860773 173.780028 
L 124.322484 174.895622 
L 124.784195 176.935212 
L 125.245906 180.231837 
L 125.707617 185.214881 
L 126.631039 197.510482 
L 126.861894 197.501374 
L 127.09275 195.162819 
L 128.016171 181.322313 
L 128.477882 177.132998 
L 128.939593 174.933998 
L 129.170449 174.446758 
L 129.401304 174.286383 
L 129.632159 174.383895 
L 130.09387 175.042441 
L 130.786437 176.0472 
L 131.248147 176.238066 
L 131.940714 176.29118 
L 132.171569 176.481412 
L 132.402425 176.857649 
L 132.864136 178.388014 
L 133.325846 181.319431 
L 133.787557 186.101449 
L 134.480124 197.084887 
L 134.941834 203.628468 
L 135.17269 204.176212 
L 135.403545 202.701064 
L 136.326967 193.97428 
L 136.788678 192.205833 
L 137.250389 191.570856 
L 137.7121 190.969679 
L 138.173811 189.823197 
L 138.866377 187.869013 
L 139.328088 187.272408 
L 139.558943 187.296215 
L 139.789799 187.531285 
L 140.25151 188.523788 
L 141.405787 191.646563 
L 141.636642 191.913325 
L 141.867498 191.971953 
L 142.098353 191.829232 
L 142.560064 191.08582 
L 143.483486 189.283814 
L 143.945197 188.883322 
L 144.406907 188.925021 
L 145.099474 189.480859 
L 146.253751 190.662707 
L 146.715462 191.604526 
L 147.177173 193.241 
L 147.638884 195.708856 
L 149.024016 204.387686 
L 149.254872 204.839671 
L 149.485727 204.795474 
L 149.947438 203.690193 
L 150.409149 202.46053 
L 150.640004 202.231508 
L 150.87086 202.42969 
L 151.101715 203.135316 
L 151.563426 206.036808 
L 152.025137 208.958828 
L 152.255992 208.56696 
L 152.486848 206.222604 
L 153.641125 188.407149 
L 154.102836 184.732968 
L 154.564547 183.204825 
L 154.795402 183.104533 
L 155.026257 183.353339 
L 155.487968 184.527654 
L 155.949679 185.811089 
L 156.180535 186.178302 
L 156.41139 186.248819 
L 156.642246 186.015507 
L 157.103956 184.915065 
L 157.796523 183.191902 
L 158.258234 182.757843 
L 158.489089 182.797384 
L 158.9508 183.261796 
L 160.105077 184.937105 
L 160.335933 185.55651 
L 160.797643 188.104825 
L 161.259354 190.935527 
L 161.49021 189.443519 
L 161.951921 178.868365 
L 162.413631 168.684746 
L 162.644487 165.703434 
L 162.875342 164.570604 
L 163.106198 165.83715 
L 163.337053 170.768388 
L 163.567909 183.023283 
L 163.798764 202.116887 
L 164.260475 152.187854 
L 164.722186 129.321758 
L 165.183897 115.033795 
L 165.645608 105.26977 
L 166.107318 98.673908 
L 166.569029 94.64591 
L 167.03074 92.899622 
L 167.261596 92.841855 
L 167.492451 93.322847 
L 167.723307 94.348426 
L 168.185017 98.097252 
L 168.646728 104.318377 
L 169.108439 113.48285 
L 169.57015 126.558952 
L 170.031861 145.847157 
L 170.724427 187.67929 
L 171.186138 174.818492 
L 171.416994 173.18132 
L 171.647849 174.389934 
L 172.10956 182.602136 
L 172.571271 191.094372 
L 172.802126 191.12447 
L 173.494692 185.495371 
L 173.956403 184.020602 
L 175.110681 181.939844 
L 175.341536 181.898872 
L 175.572391 182.129557 
L 176.034102 183.221422 
L 176.726669 184.945418 
L 177.188379 185.336791 
L 177.65009 185.284783 
L 178.111801 185.201867 
L 178.573512 185.375206 
L 179.035223 186.005933 
L 179.496934 187.262536 
L 179.958645 189.223399 
L 181.805488 198.6311 
L 182.267199 199.355162 
L 182.498054 199.405706 
L 182.72891 199.266033 
L 183.190621 198.424804 
L 183.652332 196.858932 
L 185.499175 189.252787 
L 186.191741 186.783694 
L 186.884308 182.673873 
L 187.80773 177.074398 
L 188.26944 175.835474 
L 188.500296 175.793388 
L 188.731151 176.175911 
L 188.962007 177.007129 
L 189.423718 180.102538 
L 189.885428 185.198667 
L 190.80885 198.110443 
L 191.039706 199.33762 
L 191.270561 198.850327 
L 191.732272 194.923811 
L 192.424838 189.232481 
L 192.886549 186.97451 
L 193.579115 184.876141 
L 194.964248 180.963989 
L 195.656814 179.269973 
L 196.118525 178.759425 
L 196.349381 178.779063 
L 196.580236 179.008521 
L 197.041947 180.123527 
L 197.503658 182.058118 
L 198.42708 187.500062 
L 199.119646 191.431202 
L 199.350501 192.271991 
L 199.581357 192.68422 
L 199.812212 192.589538 
L 200.043068 191.988014 
L 200.504779 189.657053 
L 201.889911 181.613826 
L 202.582478 179.11274 
L 203.044188 178.437333 
L 203.275044 178.498718 
L 203.505899 178.857464 
L 203.96761 180.449334 
L 204.891032 184.884014 
L 205.121887 185.277144 
L 205.352743 185.064443 
L 205.583598 184.261011 
L 206.045309 181.435708 
L 207.199586 173.523987 
L 207.661297 171.516957 
L 207.892153 170.931008 
L 208.123008 170.668716 
L 208.353863 170.759653 
L 208.584719 171.229938 
L 209.04643 173.400545 
L 209.508141 177.361872 
L 209.969851 183.355448 
L 210.431562 191.849996 
L 210.893273 203.819544 
L 211.58584 223.484542 
L 211.816695 220.49889 
L 212.509261 204.231785 
L 212.970972 198.401913 
L 213.432683 195.541942 
L 213.894394 194.504465 
L 214.356105 194.319655 
L 215.048671 194.22186 
L 215.741237 193.918358 
L 216.202948 193.375575 
L 216.664659 191.985263 
L 217.12637 189.567362 
L 218.280647 182.882255 
L 218.742358 181.195138 
L 219.204069 180.112485 
L 219.896635 179.176843 
L 220.589202 178.629825 
L 221.050912 178.444297 
L 221.512623 178.481518 
L 221.974334 178.864715 
L 222.436045 179.775761 
L 222.897756 181.441047 
L 223.359467 184.04661 
L 224.744599 193.243145 
L 224.975455 193.235146 
L 225.20631 192.567995 
L 226.591443 186.303247 
L 226.822298 185.931899 
L 227.053154 185.802235 
L 227.284009 185.884066 
L 227.74572 186.464075 
L 228.207431 186.954533 
L 228.438286 186.826578 
L 228.669142 186.282482 
L 229.130853 183.894356 
L 230.28513 176.419505 
L 230.515985 175.665662 
L 230.746841 175.297334 
L 230.977696 175.328339 
L 231.208552 175.758053 
L 231.670263 177.743342 
L 232.362829 182.89333 
L 233.517106 194.040659 
L 234.671383 208.211946 
L 234.902239 206.935535 
L 235.594805 194.422852 
L 236.056516 187.413732 
L 236.518227 182.794068 
L 236.979938 180.10126 
L 237.441648 178.918297 
L 237.672504 178.808577 
L 237.903359 178.9964 
L 238.134215 179.4755 
L 238.595926 181.314034 
L 239.057637 184.36258 
L 239.750203 191.185282 
L 241.135335 207.49856 
L 241.597046 210.10018 
L 241.827902 210.656844 
L 242.058757 210.873795 
L 242.289613 210.837449 
L 242.520468 210.548093 
L 242.751324 209.91409 
L 242.982179 208.798634 
L 243.44389 204.899344 
L 244.598167 193.079269 
L 245.059878 190.789866 
L 245.290733 190.313431 
L 245.521589 190.197934 
L 246.214155 190.471485 
L 246.445011 190.085747 
L 246.906721 187.947084 
L 247.830143 182.188555 
L 248.291854 180.721634 
L 248.522709 180.472833 
L 248.753565 180.51537 
L 248.98442 180.805528 
L 249.446131 181.911791 
L 251.754686 189.240154 
L 252.216396 191.757364 
L 252.678107 195.507274 
L 253.832385 206.814493 
L 254.06324 206.556372 
L 254.294095 204.896731 
L 255.910083 188.146734 
L 256.60265 183.934971 
L 257.064361 182.193576 
L 257.526072 181.376427 
L 257.756927 181.316636 
L 257.987782 181.475735 
L 258.449493 182.354554 
L 260.296337 187.324897 
L 262.14318 190.054889 
L 262.604891 190.287476 
L 263.066602 190.462985 
L 263.297457 190.709547 
L 263.759168 191.837731 
L 264.68259 195.426009 
L 264.913446 195.455824 
L 265.144301 194.690449 
L 265.606012 191.264108 
L 266.298578 185.479863 
L 266.760289 183.060862 
L 266.991144 182.393018 
L 267.222 182.067878 
L 267.452855 182.057174 
L 267.683711 182.326416 
L 268.145422 183.548614 
L 268.837988 186.459738 
L 269.76141 190.414868 
L 270.223121 191.41355 
L 270.453976 191.48276 
L 270.684831 191.258576 
L 271.146542 190.180725 
L 271.608253 189.002172 
L 271.839109 188.68874 
L 272.069964 188.716769 
L 272.300819 189.195851 
L 272.531675 190.23449 
L 272.993386 194.449788 
L 273.455097 202.090729 
L 273.916808 209.106975 
L 274.147663 207.083249 
L 275.30194 180.497407 
L 275.763651 174.483461 
L 276.225362 170.69891 
L 276.687073 168.751361 
L 276.917928 168.391708 
L 277.148784 168.410789 
L 277.379639 168.784847 
L 277.84135 170.471694 
L 278.764772 175.928747 
L 279.226483 178.215873 
L 279.688193 179.54551 
L 280.38076 181.049066 
L 280.842471 183.203169 
L 281.304182 187.16119 
L 281.996748 195.015529 
L 282.227603 195.963204 
L 282.458459 194.869143 
L 283.843591 178.97318 
L 284.074447 178.00327 
L 284.305302 177.58702 
L 284.536158 177.676356 
L 284.767013 178.222967 
L 285.228724 180.528282 
L 285.690435 184.361999 
L 286.152146 189.999291 
L 287.075567 203.225697 
L 287.306423 201.877508 
L 288.691556 179.73072 
L 289.384122 174.395099 
L 290.076688 170.978292 
L 290.538399 169.621609 
L 290.769254 169.336419 
L 291.00011 169.392285 
L 291.230965 169.853916 
L 291.461821 170.78799 
L 291.923532 174.350024 
L 292.385243 180.664171 
L 292.846953 190.226116 
L 293.308664 200.718351 
L 293.53952 202.115647 
L 293.770375 199.200703 
L 294.462941 185.548062 
L 294.924652 180.49503 
L 295.155508 179.365517 
L 295.386363 179.056262 
L 295.617219 179.402662 
L 296.309785 181.221599 
L 296.54064 181.109473 
L 296.771496 180.770548 
L 297.002351 180.655618 
L 297.233207 181.168098 
L 297.694918 184.460721 
L 297.925773 186.278475 
L 298.156628 186.666971 
L 298.387484 185.043267 
L 298.849195 180.046562 
L 299.08005 178.834635 
L 299.310906 178.990336 
L 300.003472 182.507003 
L 300.234327 181.111836 
L 300.696038 177.51196 
L 300.926894 178.249628 
L 301.388605 186.357403 
L 301.61946 183.994739 
L 302.312026 157.236164 
L 302.542882 153.586414 
L 302.773737 153.069992 
L 303.004593 156.464994 
L 303.235448 166.153948 
L 303.466303 184.168591 
L 304.15887 135.69644 
L 304.389725 129.307783 
L 304.620581 126.744846 
L 304.851436 128.708672 
L 305.082292 139.059801 
L 305.313147 193.05973 
L 305.544002 128.223146 
L 306.005713 90.165107 
L 306.467424 69.854688 
L 307.15999 50.736944 
L 307.852557 39.417993 
L 308.314268 35.068973 
L 308.775979 32.950078 
L 309.006834 32.688267 
L 309.237689 32.951684 
L 309.468545 33.743421 
L 309.930256 36.957669 
L 310.391967 42.503165 
L 310.853677 50.730643 
L 311.315388 62.326969 
L 311.777099 78.802571 
L 312.23881 104.74015 
L 312.469666 127.394975 
L 312.700521 213.275012 
L 312.931376 140.535349 
L 313.162232 129.532113 
L 313.393087 127.341442 
L 313.623943 129.746222 
L 313.854798 135.932063 
L 314.085654 146.472056 
L 314.547364 182.745439 
L 315.009075 159.349683 
L 315.239931 156.290341 
L 315.470786 157.46194 
L 315.701642 162.292808 
L 315.932497 171.132998 
L 316.394208 193.984041 
L 316.855919 177.878277 
L 317.086774 174.728035 
L 317.31763 175.150811 
L 317.548485 178.703674 
L 318.010196 194.577331 
L 318.241051 201.811626 
L 318.471907 199.629059 
L 318.933618 191.623371 
L 319.164473 191.754533 
L 319.395329 194.655748 
L 320.087895 212.472005 
L 320.31875 212.178816 
L 320.780461 206.75713 
L 321.011317 205.001315 
L 321.242172 202.387831 
L 322.396449 180.879498 
L 322.627305 179.33293 
L 322.85816 178.935289 
L 323.089016 179.600319 
L 323.319871 181.234698 
L 323.781582 186.96196 
L 324.935859 205.883409 
L 325.166715 207.258417 
L 325.39757 206.762413 
L 325.859281 202.202612 
L 326.551847 195.2707 
L 327.013558 192.428308 
L 327.475269 190.778952 
L 327.706124 190.422887 
L 327.93698 190.440344 
L 328.167835 190.87737 
L 328.629546 193.059989 
L 329.783823 200.662298 
L 330.014679 200.800035 
L 330.245534 200.329668 
L 330.9381 197.892988 
L 331.168956 197.535276 
L 331.399811 197.663949 
L 331.630667 198.351083 
L 332.092378 201.302723 
L 332.554089 204.628321 
L 332.784944 205.047164 
L 333.015799 204.106593 
L 334.170077 194.841185 
L 334.400932 194.340089 
L 334.631787 194.403151 
L 334.862643 194.929932 
L 335.324354 196.517394 
L 335.555209 196.836818 
L 335.786065 196.253225 
L 336.01692 194.573031 
L 336.709486 185.841961 
L 337.402053 178.325798 
L 337.863764 175.557004 
L 338.094619 174.906352 
L 338.325474 174.758347 
L 338.55633 175.126114 
L 338.787185 176.025111 
L 339.248896 179.469092 
L 339.710607 185.043898 
L 340.634029 197.562594 
L 340.864884 198.863984 
L 341.09574 199.091657 
L 341.326595 198.561667 
L 341.788306 196.406883 
L 342.480872 191.68946 
L 344.09686 178.50593 
L 344.327716 178.10211 
L 344.558571 178.365807 
L 344.789427 179.292272 
L 345.251138 182.715452 
L 345.943704 188.137113 
L 346.867126 192.947961 
L 347.097981 192.546095 
L 347.559692 187.508547 
L 348.021403 183.236742 
L 348.252258 183.0064 
L 348.713969 184.444272 
L 348.944825 182.452187 
L 349.868246 164.215397 
L 350.099102 163.752906 
L 350.329957 166.220194 
L 350.560813 172.817965 
L 350.791668 184.91263 
L 351.022524 185.356326 
L 351.484234 156.863813 
L 351.71509 150.311127 
L 351.945945 148.134996 
L 352.176801 151.408932 
L 352.638512 180.632633 
L 352.869367 139.010764 
L 353.331078 105.636569 
L 353.792789 86.407111 
L 354.485355 68.008371 
L 354.947066 60.075387 
L 355.408777 54.777984 
L 355.870488 51.789645 
L 356.101343 51.107219 
L 356.332199 50.952662 
L 356.563054 51.324289 
L 356.793909 52.226845 
L 357.25562 55.678435 
L 357.717331 61.500986 
L 358.179042 70.085489 
L 358.640753 82.212949 
L 359.102464 99.684981 
L 359.564175 128.598141 
L 359.79503 157.006932 
L 360.025886 168.877932 
L 360.256741 147.915554 
L 360.487596 141.442199 
L 360.718452 140.591708 
L 360.949307 143.240071 
L 361.180163 148.812151 
L 361.641874 169.460784 
L 361.872729 183.856864 
L 362.103584 188.787013 
L 362.565295 180.617978 
L 362.796151 181.207078 
L 363.488717 191.375427 
L 363.719573 190.303261 
L 363.950428 188.052392 
L 364.181283 187.011343 
L 364.412139 188.06138 
L 364.642994 191.363861 
L 365.104705 200.144548 
L 365.335561 198.174528 
L 366.028127 183.026362 
L 366.258982 180.871402 
L 366.489838 180.172066 
L 366.720693 180.714388 
L 366.951549 182.295882 
L 367.41326 187.653425 
L 368.105826 196.26745 
L 368.567537 199.215815 
L 369.952669 204.084908 
L 370.41438 206.088743 
L 370.645236 206.294593 
L 370.876091 205.749709 
L 371.337802 203.185684 
L 372.492079 196.468294 
L 373.646356 190.58587 
L 374.338923 188.260983 
L 374.800634 187.387037 
L 375.031489 187.260236 
L 375.262344 187.396235 
L 375.4932 187.817307 
L 375.954911 189.453864 
L 376.878332 193.552892 
L 377.109188 194.081624 
L 377.340043 194.283424 
L 377.570899 194.18328 
L 378.03261 193.328265 
L 378.956031 191.229247 
L 379.186887 191.053165 
L 379.417742 191.084682 
L 380.110309 191.611458 
L 380.341164 191.335583 
L 380.572019 190.509267 
L 381.03373 187.219333 
L 381.957152 179.316058 
L 382.418863 176.909054 
L 382.880574 175.8946 
L 383.111429 175.886398 
L 383.342285 176.186197 
L 383.803996 177.61086 
L 384.496562 181.24526 
L 385.189128 185.034744 
L 385.650839 186.460802 
L 385.881694 186.72989 
L 386.11255 186.766089 
L 386.574261 186.473347 
L 388.190249 185.045128 
L 389.113671 183.728216 
L 389.344526 183.665017 
L 389.575381 183.80929 
L 389.806237 184.188426 
L 390.267948 185.667984 
L 390.960514 189.230234 
L 391.65308 192.797209 
L 392.114791 194.230264 
L 392.345647 194.529663 
L 392.576502 194.513308 
L 392.807358 194.164876 
L 393.269068 192.543561 
L 394.423346 187.380001 
L 394.654201 187.048817 
L 394.885057 187.148151 
L 395.115912 187.729639 
L 395.577623 190.43937 
L 396.501045 198.084273 
L 396.7319 197.693275 
L 397.193611 192.887368 
L 397.886177 184.840575 
L 398.347888 182.114385 
L 398.578744 181.676144 
L 398.809599 181.85889 
L 399.040454 182.670162 
L 399.502165 186.255455 
L 399.963876 192.688284 
L 400.656442 207.652704 
L 401.118153 215.314229 
L 401.349009 214.993866 
L 402.272431 206.574353 
L 402.503286 205.689518 
L 402.734141 205.327088 
L 402.964997 205.37575 
L 403.195852 205.733809 
L 403.657563 207.116189 
L 404.119274 209.330121 
L 404.81184 214.41746 
L 405.273551 217.041752 
L 405.504407 216.742914 
L 405.735262 215.058224 
L 406.427828 206.036341 
L 407.812961 188.934664 
L 408.505527 181.803084 
L 408.967238 178.544032 
L 409.428949 176.943209 
L 409.659805 176.832895 
L 409.89066 177.200765 
L 410.121515 178.04619 
L 410.583226 181.049261 
L 411.275793 186.767302 
L 411.506648 187.769639 
L 411.737503 187.781856 
L 411.968359 186.855223 
L 413.122636 179.397744 
L 413.584347 178.308262 
L 413.815202 178.289527 
L 414.046058 178.600441 
L 414.507769 180.156607 
L 414.96948 182.920835 
L 415.43119 186.9187 
L 416.123757 195.252473 
L 417.508889 214.689058 
L 417.739745 216.255612 
L 417.9706 216.164048 
L 418.201456 214.087189 
L 418.894022 201.565355 
L 419.586588 190.727211 
L 420.048299 186.132457 
L 420.51001 183.287926 
L 420.971721 181.59402 
L 422.587709 177.172403 
L 422.818564 176.870512 
L 423.04942 176.86746 
L 423.280275 177.24032 
L 423.511131 178.061275 
L 423.972842 181.341545 
L 424.434552 187.4121 
L 424.896263 197.339002 
L 425.58883 215.34657 
L 425.819685 212.928888 
L 426.512251 196.869285 
L 426.973962 190.900921 
L 427.435673 188.033603 
L 427.666529 187.498362 
L 427.897384 187.484908 
L 428.128239 187.964044 
L 428.359095 188.923546 
L 428.820806 192.291742 
L 429.282517 197.610699 
L 430.205938 210.304187 
L 430.436794 211.451467 
L 430.667649 211.150319 
L 432.514493 200.967236 
L 433.207059 194.75148 
L 433.899625 188.927403 
L 434.361336 186.788591 
L 434.592192 186.367278 
L 434.823047 186.391691 
L 435.053903 186.861381 
L 435.515613 189.103582 
L 435.977324 192.947143 
L 437.593312 209.850868 
L 437.824168 210.87332 
L 438.055023 211.280801 
L 438.285879 211.104783 
L 438.516734 210.401923 
L 438.978445 207.727881 
L 439.901867 199.90719 
L 441.056144 190.595359 
L 441.74871 186.393102 
L 442.441277 183.646554 
L 442.902987 182.794557 
L 443.133843 182.694162 
L 443.364698 182.816115 
L 443.826409 183.689046 
L 444.980686 187.186389 
L 445.211542 187.379292 
L 445.442397 187.224459 
L 445.904108 186.016551 
L 446.82753 182.691753 
L 447.289241 181.84131 
L 447.520096 181.766718 
L 447.750952 181.953657 
L 447.981807 182.415179 
L 448.443518 184.177673 
L 449.136084 188.604867 
L 449.828651 193.067336 
L 450.059506 193.798743 
L 450.290361 193.926599 
L 450.521217 193.461754 
L 450.982928 191.238245 
L 453.060627 178.594491 
L 453.984048 174.526622 
L 454.445759 173.249197 
L 454.676615 172.911992 
L 454.90747 172.814887 
L 455.138326 172.97757 
L 455.369181 173.408119 
L 455.830892 175.025888 
L 457.44688 182.2983 
L 458.139446 184.317936 
L 458.601157 186.892264 
L 459.062868 191.450991 
L 459.524579 198.909934 
L 459.98629 210.938716 
L 460.678856 240.053608 
L 460.909712 234.185418 
L 461.371422 216.163755 
L 461.833133 205.930782 
L 462.294844 199.722335 
L 462.756555 195.633664 
L 463.449121 191.762112 
L 463.910832 190.211855 
L 464.372543 189.341409 
L 464.834254 189.08994 
L 465.065109 189.173063 
L 465.52682 189.679862 
L 466.681097 191.491802 
L 466.911953 191.592049 
L 467.142808 191.514992 
L 467.604519 190.881662 
L 468.297086 189.723472 
L 468.527941 189.647692 
L 468.758796 189.875143 
L 468.989652 190.481732 
L 469.451363 193.101492 
L 469.913074 198.010529 
L 470.374784 205.605201 
L 471.067351 219.242491 
L 471.298206 220.980038 
L 471.529062 220.03089 
L 472.452483 210.457202 
L 472.914194 208.201937 
L 473.14505 207.694219 
L 473.606761 207.371479 
L 473.837616 207.220834 
L 474.068471 206.779783 
L 474.299327 205.833502 
L 474.761038 202.198075 
L 475.915315 191.031775 
L 476.377026 188.317262 
L 477.762158 181.891006 
L 478.68558 176.930899 
L 479.147291 175.547309 
L 479.378146 175.231803 
L 479.609002 175.148188 
L 479.839857 175.259819 
L 480.301568 175.857696 
L 480.994135 176.856555 
L 482.148412 178.158843 
L 482.610123 179.467935 
L 483.071833 181.640359 
L 483.7644 186.346449 
L 484.456966 191.209419 
L 484.918677 193.005021 
L 485.149532 193.210531 
L 485.380388 192.978471 
L 485.842099 191.617893 
L 486.534665 189.246943 
L 486.76552 188.796602 
L 486.996376 188.640429 
L 487.227231 188.825762 
L 487.458087 189.380559 
L 487.919798 191.57182 
L 488.612364 195.997942 
L 488.843219 196.789418 
L 489.074075 196.768907 
L 489.30493 195.922623 
L 490.690063 187.709598 
L 490.920918 187.24575 
L 491.151774 187.095078 
L 491.382629 187.212334 
L 491.84434 188.008353 
L 493.691184 192.397148 
L 494.152894 195.005539 
L 494.614605 199.405277 
L 495.307172 207.12468 
L 495.538027 207.509724 
L 495.768883 205.845308 
L 496.92316 191.338683 
L 497.384871 188.568931 
L 497.846581 187.222578 
L 498.539148 185.735141 
L 499.693425 181.975826 
L 499.92428 181.758161 
L 500.155136 181.975897 
L 500.385991 182.722164 
L 500.616847 184.08905 
L 501.078558 189.082962 
L 501.540268 197.59493 
L 502.001979 206.034338 
L 502.232835 205.296514 
L 503.387112 184.036005 
L 503.848823 180.167587 
L 504.310534 178.433574 
L 504.541389 178.136163 
L 504.772245 178.113649 
L 505.0031 178.301135 
L 505.464811 179.128255 
L 505.926522 180.468618 
L 506.388233 182.487956 
L 506.849943 185.538507 
L 507.311654 189.968346 
L 508.235076 199.893985 
L 508.465932 199.481855 
L 508.696787 196.927485 
L 510.08192 174.910902 
L 510.54363 170.723632 
L 511.005341 168.126821 
L 511.467052 166.879915 
L 511.697908 166.685922 
L 511.928763 166.733384 
L 512.390474 167.397086 
L 513.313896 169.767765 
L 514.929884 174.052988 
L 515.62245 177.336928 
L 517.007583 184.83562 
L 517.238438 185.400536 
L 517.469294 185.668964 
L 517.700149 185.688934 
L 518.16186 185.303317 
L 518.623571 184.925943 
L 518.854426 184.926646 
L 519.085282 185.130509 
L 519.316137 185.582481 
L 519.777848 187.368244 
L 520.239559 190.469571 
L 521.393836 200.87395 
L 521.624691 201.089156 
L 521.855547 199.788322 
L 522.317258 194.044545 
L 523.24068 181.990221 
L 523.70239 178.10172 
L 524.164101 175.798915 
L 524.394957 175.221437 
L 524.625812 175.013593 
L 524.856668 175.164131 
L 525.087523 175.657617 
L 525.549234 177.552927 
L 526.472656 182.098478 
L 526.703511 182.185547 
L 526.934366 181.494332 
L 527.396077 178.352382 
L 528.088644 173.135804 
L 528.550355 171.242327 
L 528.78121 170.961205 
L 529.012065 171.154045 
L 529.242921 171.832862 
L 529.704632 174.672522 
L 530.166343 179.456186 
L 531.551475 197.744723 
L 531.782331 199.009766 
L 532.013186 199.598687 
L 532.474897 199.888826 
L 532.936608 200.245033 
L 533.398319 201.099076 
L 533.86003 202.459856 
L 534.32174 204.43984 
L 534.783451 207.231805 
L 535.476018 212.941055 
L 536.399439 220.994966 
L 536.86115 223.343433 
L 537.092006 223.75553 
L 537.322861 223.638014 
L 537.553717 223.056099 
L 538.015427 220.929338 
L 538.707994 216.493315 
L 539.631416 208.84495 
L 540.323982 203.234612 
L 540.785693 200.767668 
L 541.016548 200.099557 
L 541.247404 199.855544 
L 541.478259 200.052483 
L 541.709114 200.688372 
L 542.170825 203.112275 
L 542.863392 207.414832 
L 543.094247 207.991194 
L 543.325103 207.825582 
L 543.786813 205.879487 
L 544.47938 202.647474 
L 544.941091 201.597347 
L 545.171946 201.338893 
L 545.171946 201.338893 
" clip-path="url(#p10858acd92)" style="fill: none; stroke: #1f77b4; stroke-linecap: square"/>
   </g>
   <g id="patch_3">
    <path d="M 48.982813 250.421875 
L 48.982813 22.32 
" style="fill: none; stroke: #000000; stroke-width: 0.8; stroke-linejoin: miter; stroke-linecap: square"/>
   </g>
   <g id="patch_4">
    <path d="M 568.8 250.421875 
L 568.8 22.32 
" style="fill: none; stroke: #000000; stroke-width: 0.8; stroke-linejoin: miter; stroke-linecap: square"/>
   </g>
   <g id="patch_5">
    <path d="M 48.982813 250.421875 
L 568.8 250.421875 
" style="fill: none; stroke: #000000; stroke-width: 0.8; stroke-linejoin: miter; stroke-linecap: square"/>
   </g>
   <g id="patch_6">
    <path d="M 48.982813 22.32 
L 568.8 22.32 
" style="fill: none; stroke: #000000; stroke-width: 0.8; stroke-linejoin: miter; stroke-linecap: square"/>
   </g>
   <g id="text_15">
    <!-- Periodogram of $x_c[n]$ -->
    <g transform="translate(246.371406 16.32) scale(0.12 -0.12)">
     <defs>
      <path id="DejaVuSans-67" d="M 2906 1791 
Q 2906 2416 2648 2759 
Q 2391 3103 1925 3103 
Q 1463 3103 1205 2759 
Q 947 2416 947 1791 
Q 947 1169 1205 825 
Q 1463 481 1925 481 
Q 2391 481 2648 825 
Q 2906 1169 2906 1791 
z
M 3481 434 
Q 3481 -459 3084 -895 
Q 2688 -1331 1869 -1331 
Q 1566 -1331 1297 -1286 
Q 1028 -1241 775 -1147 
L 775 -588 
Q 1028 -725 1275 -790 
Q 1522 -856 1778 -856 
Q 2344 -856 2625 -561 
Q 2906 -266 2906 331 
L 2906 616 
Q 2728 306 2450 153 
Q 2172 0 1784 0 
Q 1141 0 747 490 
Q 353 981 353 1791 
Q 353 2603 747 3093 
Q 1141 3584 1784 3584 
Q 2172 3584 2450 3431 
Q 2728 3278 2906 2969 
L 2906 3500 
L 3481 3500 
L 3481 434 
z
" transform="scale(0.015625)"/>
      <path id="DejaVuSans-61" d="M 2194 1759 
Q 1497 1759 1228 1600 
Q 959 1441 959 1056 
Q 959 750 1161 570 
Q 1363 391 1709 391 
Q 2188 391 2477 730 
Q 2766 1069 2766 1631 
L 2766 1759 
L 2194 1759 
z
M 3341 1997 
L 3341 0 
L 2766 0 
L 2766 531 
Q 2569 213 2275 61 
Q 1981 -91 1556 -91 
Q 1019 -91 701 211 
Q 384 513 384 1019 
Q 384 1609 779 1909 
Q 1175 2209 1959 2209 
L 2766 2209 
L 2766 2266 
Q 2766 2663 2505 2880 
Q 2244 3097 1772 3097 
Q 1472 3097 1187 3025 
Q 903 2953 641 2809 
L 641 3341 
Q 956 3463 1253 3523 
Q 1550 3584 1831 3584 
Q 2591 3584 2966 3190 
Q 3341 2797 3341 1997 
z
" transform="scale(0.015625)"/>
      <path id="DejaVuSans-6d" d="M 3328 2828 
Q 3544 3216 3844 3400 
Q 4144 3584 4550 3584 
Q 5097 3584 5394 3201 
Q 5691 2819 5691 2113 
L 5691 0 
L 5113 0 
L 5113 2094 
Q 5113 2597 4934 2840 
Q 4756 3084 4391 3084 
Q 3944 3084 3684 2787 
Q 3425 2491 3425 1978 
L 3425 0 
L 2847 0 
L 2847 2094 
Q 2847 2600 2669 2842 
Q 2491 3084 2119 3084 
Q 1678 3084 1418 2786 
Q 1159 2488 1159 1978 
L 1159 0 
L 581 0 
L 581 3500 
L 1159 3500 
L 1159 2956 
Q 1356 3278 1631 3431 
Q 1906 3584 2284 3584 
Q 2666 3584 2933 3390 
Q 3200 3197 3328 2828 
z
" transform="scale(0.015625)"/>
      <path id="DejaVuSans-66" d="M 2375 4863 
L 2375 4384 
L 1825 4384 
Q 1516 4384 1395 4259 
Q 1275 4134 1275 3809 
L 1275 3500 
L 2222 3500 
L 2222 3053 
L 1275 3053 
L 1275 0 
L 697 0 
L 697 3053 
L 147 3053 
L 147 3500 
L 697 3500 
L 697 3744 
Q 697 4328 969 4595 
Q 1241 4863 1831 4863 
L 2375 4863 
z
" transform="scale(0.015625)"/>
      <path id="DejaVuSans-Oblique-78" d="M 3841 3500 
L 2234 1784 
L 3219 0 
L 2559 0 
L 1819 1388 
L 531 0 
L -166 0 
L 1556 1844 
L 641 3500 
L 1300 3500 
L 1972 2234 
L 3144 3500 
L 3841 3500 
z
" transform="scale(0.015625)"/>
      <path id="DejaVuSans-Oblique-63" d="M 3431 3366 
L 3316 2797 
Q 3109 2947 2876 3022 
Q 2644 3097 2394 3097 
Q 2119 3097 1870 3000 
Q 1622 2903 1453 2725 
Q 1184 2453 1037 2087 
Q 891 1722 891 1331 
Q 891 859 1127 628 
Q 1363 397 1844 397 
Q 2081 397 2348 469 
Q 2616 541 2906 684 
L 2797 116 
Q 2547 13 2283 -39 
Q 2019 -91 1741 -91 
Q 1044 -91 669 257 
Q 294 606 294 1253 
Q 294 1797 489 2255 
Q 684 2713 1069 3078 
Q 1331 3328 1684 3456 
Q 2038 3584 2456 3584 
Q 2700 3584 2940 3529 
Q 3181 3475 3431 3366 
z
" transform="scale(0.015625)"/>
      <path id="DejaVuSans-5b" d="M 550 4863 
L 1875 4863 
L 1875 4416 
L 1125 4416 
L 1125 -397 
L 1875 -397 
L 1875 -844 
L 550 -844 
L 550 4863 
z
" transform="scale(0.015625)"/>
      <path id="DejaVuSans-Oblique-6e" d="M 3566 2113 
L 3156 0 
L 2578 0 
L 2988 2091 
Q 3016 2238 3031 2350 
Q 3047 2463 3047 2528 
Q 3047 2791 2881 2937 
Q 2716 3084 2419 3084 
Q 1956 3084 1622 2776 
Q 1288 2469 1184 1941 
L 800 0 
L 225 0 
L 903 3500 
L 1478 3500 
L 1363 2950 
Q 1603 3253 1940 3418 
Q 2278 3584 2650 3584 
Q 3113 3584 3367 3334 
Q 3622 3084 3622 2631 
Q 3622 2519 3608 2391 
Q 3594 2263 3566 2113 
z
" transform="scale(0.015625)"/>
      <path id="DejaVuSans-5d" d="M 1947 4863 
L 1947 -844 
L 622 -844 
L 622 -397 
L 1369 -397 
L 1369 4416 
L 622 4416 
L 622 4863 
L 1947 4863 
z
" transform="scale(0.015625)"/>
     </defs>
     <use xlink:href="#DejaVuSans-50" transform="translate(0 0.015625)"/>
     <use xlink:href="#DejaVuSans-65" transform="translate(60.302734 0.015625)"/>
     <use xlink:href="#DejaVuSans-72" transform="translate(121.826172 0.015625)"/>
     <use xlink:href="#DejaVuSans-69" transform="translate(162.939453 0.015625)"/>
     <use xlink:href="#DejaVuSans-6f" transform="translate(190.722656 0.015625)"/>
     <use xlink:href="#DejaVuSans-64" transform="translate(251.904297 0.015625)"/>
     <use xlink:href="#DejaVuSans-6f" transform="translate(315.380859 0.015625)"/>
     <use xlink:href="#DejaVuSans-67" transform="translate(376.5625 0.015625)"/>
     <use xlink:href="#DejaVuSans-72" transform="translate(440.039062 0.015625)"/>
     <use xlink:href="#DejaVuSans-61" transform="translate(481.152344 0.015625)"/>
     <use xlink:href="#DejaVuSans-6d" transform="translate(542.431641 0.015625)"/>
     <use xlink:href="#DejaVuSans-20" transform="translate(639.84375 0.015625)"/>
     <use xlink:href="#DejaVuSans-6f" transform="translate(671.630859 0.015625)"/>
     <use xlink:href="#DejaVuSans-66" transform="translate(732.8125 0.015625)"/>
     <use xlink:href="#DejaVuSans-20" transform="translate(768.017578 0.015625)"/>
     <use xlink:href="#DejaVuSans-Oblique-78" transform="translate(799.804688 0.015625)"/>
     <use xlink:href="#DejaVuSans-Oblique-63" transform="translate(858.984375 -16.390625) scale(0.7)"/>
     <use xlink:href="#DejaVuSans-5b" transform="translate(900.205078 0.015625)"/>
     <use xlink:href="#DejaVuSans-Oblique-6e" transform="translate(939.21875 0.015625)"/>
     <use xlink:href="#DejaVuSans-5d" transform="translate(1002.597656 0.015625)"/>
    </g>
   </g>
  </g>
 </g>
 <defs>
  <clipPath id="p10858acd92">
   <rect x="48.982813" y="22.32" width="519.817188" height="228.101875"/>
  </clipPath>
 </defs>
</svg>
