<?xml version="1.0" encoding="utf-8" standalone="no"?>
<!DOCTYPE svg PUBLIC "-//W3C//DTD SVG 1.1//EN"
  "http://www.w3.org/Graphics/SVG/1.1/DTD/svg11.dtd">
<svg xmlns:xlink="http://www.w3.org/1999/xlink" width="576pt" height="288pt" viewBox="0 0 576 288" xmlns="http://www.w3.org/2000/svg" version="1.1">
 <metadata>
  <rdf:RDF xmlns:dc="http://purl.org/dc/elements/1.1/" xmlns:cc="http://creativecommons.org/ns#" xmlns:rdf="http://www.w3.org/1999/02/22-rdf-syntax-ns#">
   <cc:Work>
    <dc:type rdf:resource="http://purl.org/dc/dcmitype/StillImage"/>
    <dc:date>2025-05-10T16:31:21.875402</dc:date>
    <dc:format>image/svg+xml</dc:format>
    <dc:creator>
     <cc:Agent>
      <dc:title>Matplotlib v3.10.3, https://matplotlib.org/</dc:title>
     </cc:Agent>
    </dc:creator>
   </cc:Work>
  </rdf:RDF>
 </metadata>
 <defs>
  <style type="text/css">*{stroke-linejoin: round; stroke-linecap: butt}</style>
 </defs>
 <g id="figure_1">
  <g id="patch_1">
   <path d="M 0 288 
L 576 288 
L 576 0 
L 0 0 
z
" style="fill: #ffffff"/>
  </g>
  <g id="axes_1">
   <g id="patch_2">
    <path d="M 52.160938 250.421875 
L 568.8 250.421875 
L 568.8 7.2 
L 52.160938 7.2 
z
" style="fill: #ffffff"/>
   </g>
   <g id="matplotlib.axis_1">
    <g id="xtick_1">
     <g id="line2d_1">
      <path d="M 75.644531 250.421875 
L 75.644531 7.2 
" clip-path="url(#pa5750b4d9c)" style="fill: none; stroke-dasharray: 2.96,1.28; stroke-dashoffset: 0; stroke: #b0b0b0; stroke-opacity: 0.8; stroke-width: 0.8"/>
     </g>
     <g id="line2d_2">
      <defs>
       <path id="mbefd668a4c" d="M 0 0 
L 0 3.5 
" style="stroke: #000000; stroke-width: 0.8"/>
      </defs>
      <g>
       <use xlink:href="#mbefd668a4c" x="75.644531" y="250.421875" style="stroke: #000000; stroke-width: 0.8"/>
      </g>
     </g>
     <g id="text_1">
      <!-- 0 -->
      <g transform="translate(72.463281 265.020312) scale(0.1 -0.1)">
       <defs>
        <path id="DejaVuSans-30" d="M 2034 4250 
Q 1547 4250 1301 3770 
Q 1056 3291 1056 2328 
Q 1056 1369 1301 889 
Q 1547 409 2034 409 
Q 2525 409 2770 889 
Q 3016 1369 3016 2328 
Q 3016 3291 2770 3770 
Q 2525 4250 2034 4250 
z
M 2034 4750 
Q 2819 4750 3233 4129 
Q 3647 3509 3647 2328 
Q 3647 1150 3233 529 
Q 2819 -91 2034 -91 
Q 1250 -91 836 529 
Q 422 1150 422 2328 
Q 422 3509 836 4129 
Q 1250 4750 2034 4750 
z
" transform="scale(0.015625)"/>
       </defs>
       <use xlink:href="#DejaVuSans-30"/>
      </g>
     </g>
    </g>
    <g id="xtick_2">
     <g id="line2d_3">
      <path d="M 134.500656 250.421875 
L 134.500656 7.2 
" clip-path="url(#pa5750b4d9c)" style="fill: none; stroke-dasharray: 2.96,1.28; stroke-dashoffset: 0; stroke: #b0b0b0; stroke-opacity: 0.8; stroke-width: 0.8"/>
     </g>
     <g id="line2d_4">
      <g>
       <use xlink:href="#mbefd668a4c" x="134.500656" y="250.421875" style="stroke: #000000; stroke-width: 0.8"/>
      </g>
     </g>
     <g id="text_2">
      <!-- 50 -->
      <g transform="translate(128.138156 265.020312) scale(0.1 -0.1)">
       <defs>
        <path id="DejaVuSans-35" d="M 691 4666 
L 3169 4666 
L 3169 4134 
L 1269 4134 
L 1269 2991 
Q 1406 3038 1543 3061 
Q 1681 3084 1819 3084 
Q 2600 3084 3056 2656 
Q 3513 2228 3513 1497 
Q 3513 744 3044 326 
Q 2575 -91 1722 -91 
Q 1428 -91 1123 -41 
Q 819 9 494 109 
L 494 744 
Q 775 591 1075 516 
Q 1375 441 1709 441 
Q 2250 441 2565 725 
Q 2881 1009 2881 1497 
Q 2881 1984 2565 2268 
Q 2250 2553 1709 2553 
Q 1456 2553 1204 2497 
Q 953 2441 691 2322 
L 691 4666 
z
" transform="scale(0.015625)"/>
       </defs>
       <use xlink:href="#DejaVuSans-35"/>
       <use xlink:href="#DejaVuSans-30" transform="translate(63.623047 0)"/>
      </g>
     </g>
    </g>
    <g id="xtick_3">
     <g id="line2d_5">
      <path d="M 193.356781 250.421875 
L 193.356781 7.2 
" clip-path="url(#pa5750b4d9c)" style="fill: none; stroke-dasharray: 2.96,1.28; stroke-dashoffset: 0; stroke: #b0b0b0; stroke-opacity: 0.8; stroke-width: 0.8"/>
     </g>
     <g id="line2d_6">
      <g>
       <use xlink:href="#mbefd668a4c" x="193.356781" y="250.421875" style="stroke: #000000; stroke-width: 0.8"/>
      </g>
     </g>
     <g id="text_3">
      <!-- 100 -->
      <g transform="translate(183.813031 265.020312) scale(0.1 -0.1)">
       <defs>
        <path id="DejaVuSans-31" d="M 794 531 
L 1825 531 
L 1825 4091 
L 703 3866 
L 703 4441 
L 1819 4666 
L 2450 4666 
L 2450 531 
L 3481 531 
L 3481 0 
L 794 0 
L 794 531 
z
" transform="scale(0.015625)"/>
       </defs>
       <use xlink:href="#DejaVuSans-31"/>
       <use xlink:href="#DejaVuSans-30" transform="translate(63.623047 0)"/>
       <use xlink:href="#DejaVuSans-30" transform="translate(127.246094 0)"/>
      </g>
     </g>
    </g>
    <g id="xtick_4">
     <g id="line2d_7">
      <path d="M 252.212905 250.421875 
L 252.212905 7.2 
" clip-path="url(#pa5750b4d9c)" style="fill: none; stroke-dasharray: 2.96,1.28; stroke-dashoffset: 0; stroke: #b0b0b0; stroke-opacity: 0.8; stroke-width: 0.8"/>
     </g>
     <g id="line2d_8">
      <g>
       <use xlink:href="#mbefd668a4c" x="252.212905" y="250.421875" style="stroke: #000000; stroke-width: 0.8"/>
      </g>
     </g>
     <g id="text_4">
      <!-- 150 -->
      <g transform="translate(242.669155 265.020312) scale(0.1 -0.1)">
       <use xlink:href="#DejaVuSans-31"/>
       <use xlink:href="#DejaVuSans-35" transform="translate(63.623047 0)"/>
       <use xlink:href="#DejaVuSans-30" transform="translate(127.246094 0)"/>
      </g>
     </g>
    </g>
    <g id="xtick_5">
     <g id="line2d_9">
      <path d="M 311.06903 250.421875 
L 311.06903 7.2 
" clip-path="url(#pa5750b4d9c)" style="fill: none; stroke-dasharray: 2.96,1.28; stroke-dashoffset: 0; stroke: #b0b0b0; stroke-opacity: 0.8; stroke-width: 0.8"/>
     </g>
     <g id="line2d_10">
      <g>
       <use xlink:href="#mbefd668a4c" x="311.06903" y="250.421875" style="stroke: #000000; stroke-width: 0.8"/>
      </g>
     </g>
     <g id="text_5">
      <!-- 200 -->
      <g transform="translate(301.52528 265.020312) scale(0.1 -0.1)">
       <defs>
        <path id="DejaVuSans-32" d="M 1228 531 
L 3431 531 
L 3431 0 
L 469 0 
L 469 531 
Q 828 903 1448 1529 
Q 2069 2156 2228 2338 
Q 2531 2678 2651 2914 
Q 2772 3150 2772 3378 
Q 2772 3750 2511 3984 
Q 2250 4219 1831 4219 
Q 1534 4219 1204 4116 
Q 875 4013 500 3803 
L 500 4441 
Q 881 4594 1212 4672 
Q 1544 4750 1819 4750 
Q 2544 4750 2975 4387 
Q 3406 4025 3406 3419 
Q 3406 3131 3298 2873 
Q 3191 2616 2906 2266 
Q 2828 2175 2409 1742 
Q 1991 1309 1228 531 
z
" transform="scale(0.015625)"/>
       </defs>
       <use xlink:href="#DejaVuSans-32"/>
       <use xlink:href="#DejaVuSans-30" transform="translate(63.623047 0)"/>
       <use xlink:href="#DejaVuSans-30" transform="translate(127.246094 0)"/>
      </g>
     </g>
    </g>
    <g id="xtick_6">
     <g id="line2d_11">
      <path d="M 369.925155 250.421875 
L 369.925155 7.2 
" clip-path="url(#pa5750b4d9c)" style="fill: none; stroke-dasharray: 2.96,1.28; stroke-dashoffset: 0; stroke: #b0b0b0; stroke-opacity: 0.8; stroke-width: 0.8"/>
     </g>
     <g id="line2d_12">
      <g>
       <use xlink:href="#mbefd668a4c" x="369.925155" y="250.421875" style="stroke: #000000; stroke-width: 0.8"/>
      </g>
     </g>
     <g id="text_6">
      <!-- 250 -->
      <g transform="translate(360.381405 265.020312) scale(0.1 -0.1)">
       <use xlink:href="#DejaVuSans-32"/>
       <use xlink:href="#DejaVuSans-35" transform="translate(63.623047 0)"/>
       <use xlink:href="#DejaVuSans-30" transform="translate(127.246094 0)"/>
      </g>
     </g>
    </g>
    <g id="xtick_7">
     <g id="line2d_13">
      <path d="M 428.781279 250.421875 
L 428.781279 7.2 
" clip-path="url(#pa5750b4d9c)" style="fill: none; stroke-dasharray: 2.96,1.28; stroke-dashoffset: 0; stroke: #b0b0b0; stroke-opacity: 0.8; stroke-width: 0.8"/>
     </g>
     <g id="line2d_14">
      <g>
       <use xlink:href="#mbefd668a4c" x="428.781279" y="250.421875" style="stroke: #000000; stroke-width: 0.8"/>
      </g>
     </g>
     <g id="text_7">
      <!-- 300 -->
      <g transform="translate(419.237529 265.020312) scale(0.1 -0.1)">
       <defs>
        <path id="DejaVuSans-33" d="M 2597 2516 
Q 3050 2419 3304 2112 
Q 3559 1806 3559 1356 
Q 3559 666 3084 287 
Q 2609 -91 1734 -91 
Q 1441 -91 1130 -33 
Q 819 25 488 141 
L 488 750 
Q 750 597 1062 519 
Q 1375 441 1716 441 
Q 2309 441 2620 675 
Q 2931 909 2931 1356 
Q 2931 1769 2642 2001 
Q 2353 2234 1838 2234 
L 1294 2234 
L 1294 2753 
L 1863 2753 
Q 2328 2753 2575 2939 
Q 2822 3125 2822 3475 
Q 2822 3834 2567 4026 
Q 2313 4219 1838 4219 
Q 1578 4219 1281 4162 
Q 984 4106 628 3988 
L 628 4550 
Q 988 4650 1302 4700 
Q 1616 4750 1894 4750 
Q 2613 4750 3031 4423 
Q 3450 4097 3450 3541 
Q 3450 3153 3228 2886 
Q 3006 2619 2597 2516 
z
" transform="scale(0.015625)"/>
       </defs>
       <use xlink:href="#DejaVuSans-33"/>
       <use xlink:href="#DejaVuSans-30" transform="translate(63.623047 0)"/>
       <use xlink:href="#DejaVuSans-30" transform="translate(127.246094 0)"/>
      </g>
     </g>
    </g>
    <g id="xtick_8">
     <g id="line2d_15">
      <path d="M 487.637404 250.421875 
L 487.637404 7.2 
" clip-path="url(#pa5750b4d9c)" style="fill: none; stroke-dasharray: 2.96,1.28; stroke-dashoffset: 0; stroke: #b0b0b0; stroke-opacity: 0.8; stroke-width: 0.8"/>
     </g>
     <g id="line2d_16">
      <g>
       <use xlink:href="#mbefd668a4c" x="487.637404" y="250.421875" style="stroke: #000000; stroke-width: 0.8"/>
      </g>
     </g>
     <g id="text_8">
      <!-- 350 -->
      <g transform="translate(478.093654 265.020312) scale(0.1 -0.1)">
       <use xlink:href="#DejaVuSans-33"/>
       <use xlink:href="#DejaVuSans-35" transform="translate(63.623047 0)"/>
       <use xlink:href="#DejaVuSans-30" transform="translate(127.246094 0)"/>
      </g>
     </g>
    </g>
    <g id="xtick_9">
     <g id="line2d_17">
      <path d="M 546.493529 250.421875 
L 546.493529 7.2 
" clip-path="url(#pa5750b4d9c)" style="fill: none; stroke-dasharray: 2.96,1.28; stroke-dashoffset: 0; stroke: #b0b0b0; stroke-opacity: 0.8; stroke-width: 0.8"/>
     </g>
     <g id="line2d_18">
      <g>
       <use xlink:href="#mbefd668a4c" x="546.493529" y="250.421875" style="stroke: #000000; stroke-width: 0.8"/>
      </g>
     </g>
     <g id="text_9">
      <!-- 400 -->
      <g transform="translate(536.949779 265.020312) scale(0.1 -0.1)">
       <defs>
        <path id="DejaVuSans-34" d="M 2419 4116 
L 825 1625 
L 2419 1625 
L 2419 4116 
z
M 2253 4666 
L 3047 4666 
L 3047 1625 
L 3713 1625 
L 3713 1100 
L 3047 1100 
L 3047 0 
L 2419 0 
L 2419 1100 
L 313 1100 
L 313 1709 
L 2253 4666 
z
" transform="scale(0.015625)"/>
       </defs>
       <use xlink:href="#DejaVuSans-34"/>
       <use xlink:href="#DejaVuSans-30" transform="translate(63.623047 0)"/>
       <use xlink:href="#DejaVuSans-30" transform="translate(127.246094 0)"/>
      </g>
     </g>
    </g>
    <g id="text_10">
     <!-- Sample, $n$ -->
     <g transform="translate(285.380469 278.7) scale(0.1 -0.1)">
      <defs>
       <path id="DejaVuSans-53" d="M 3425 4513 
L 3425 3897 
Q 3066 4069 2747 4153 
Q 2428 4238 2131 4238 
Q 1616 4238 1336 4038 
Q 1056 3838 1056 3469 
Q 1056 3159 1242 3001 
Q 1428 2844 1947 2747 
L 2328 2669 
Q 3034 2534 3370 2195 
Q 3706 1856 3706 1288 
Q 3706 609 3251 259 
Q 2797 -91 1919 -91 
Q 1588 -91 1214 -16 
Q 841 59 441 206 
L 441 856 
Q 825 641 1194 531 
Q 1563 422 1919 422 
Q 2459 422 2753 634 
Q 3047 847 3047 1241 
Q 3047 1584 2836 1778 
Q 2625 1972 2144 2069 
L 1759 2144 
Q 1053 2284 737 2584 
Q 422 2884 422 3419 
Q 422 4038 858 4394 
Q 1294 4750 2059 4750 
Q 2388 4750 2728 4690 
Q 3069 4631 3425 4513 
z
" transform="scale(0.015625)"/>
       <path id="DejaVuSans-61" d="M 2194 1759 
Q 1497 1759 1228 1600 
Q 959 1441 959 1056 
Q 959 750 1161 570 
Q 1363 391 1709 391 
Q 2188 391 2477 730 
Q 2766 1069 2766 1631 
L 2766 1759 
L 2194 1759 
z
M 3341 1997 
L 3341 0 
L 2766 0 
L 2766 531 
Q 2569 213 2275 61 
Q 1981 -91 1556 -91 
Q 1019 -91 701 211 
Q 384 513 384 1019 
Q 384 1609 779 1909 
Q 1175 2209 1959 2209 
L 2766 2209 
L 2766 2266 
Q 2766 2663 2505 2880 
Q 2244 3097 1772 3097 
Q 1472 3097 1187 3025 
Q 903 2953 641 2809 
L 641 3341 
Q 956 3463 1253 3523 
Q 1550 3584 1831 3584 
Q 2591 3584 2966 3190 
Q 3341 2797 3341 1997 
z
" transform="scale(0.015625)"/>
       <path id="DejaVuSans-6d" d="M 3328 2828 
Q 3544 3216 3844 3400 
Q 4144 3584 4550 3584 
Q 5097 3584 5394 3201 
Q 5691 2819 5691 2113 
L 5691 0 
L 5113 0 
L 5113 2094 
Q 5113 2597 4934 2840 
Q 4756 3084 4391 3084 
Q 3944 3084 3684 2787 
Q 3425 2491 3425 1978 
L 3425 0 
L 2847 0 
L 2847 2094 
Q 2847 2600 2669 2842 
Q 2491 3084 2119 3084 
Q 1678 3084 1418 2786 
Q 1159 2488 1159 1978 
L 1159 0 
L 581 0 
L 581 3500 
L 1159 3500 
L 1159 2956 
Q 1356 3278 1631 3431 
Q 1906 3584 2284 3584 
Q 2666 3584 2933 3390 
Q 3200 3197 3328 2828 
z
" transform="scale(0.015625)"/>
       <path id="DejaVuSans-70" d="M 1159 525 
L 1159 -1331 
L 581 -1331 
L 581 3500 
L 1159 3500 
L 1159 2969 
Q 1341 3281 1617 3432 
Q 1894 3584 2278 3584 
Q 2916 3584 3314 3078 
Q 3713 2572 3713 1747 
Q 3713 922 3314 415 
Q 2916 -91 2278 -91 
Q 1894 -91 1617 61 
Q 1341 213 1159 525 
z
M 3116 1747 
Q 3116 2381 2855 2742 
Q 2594 3103 2138 3103 
Q 1681 3103 1420 2742 
Q 1159 2381 1159 1747 
Q 1159 1113 1420 752 
Q 1681 391 2138 391 
Q 2594 391 2855 752 
Q 3116 1113 3116 1747 
z
" transform="scale(0.015625)"/>
       <path id="DejaVuSans-6c" d="M 603 4863 
L 1178 4863 
L 1178 0 
L 603 0 
L 603 4863 
z
" transform="scale(0.015625)"/>
       <path id="DejaVuSans-65" d="M 3597 1894 
L 3597 1613 
L 953 1613 
Q 991 1019 1311 708 
Q 1631 397 2203 397 
Q 2534 397 2845 478 
Q 3156 559 3463 722 
L 3463 178 
Q 3153 47 2828 -22 
Q 2503 -91 2169 -91 
Q 1331 -91 842 396 
Q 353 884 353 1716 
Q 353 2575 817 3079 
Q 1281 3584 2069 3584 
Q 2775 3584 3186 3129 
Q 3597 2675 3597 1894 
z
M 3022 2063 
Q 3016 2534 2758 2815 
Q 2500 3097 2075 3097 
Q 1594 3097 1305 2825 
Q 1016 2553 972 2059 
L 3022 2063 
z
" transform="scale(0.015625)"/>
       <path id="DejaVuSans-2c" d="M 750 794 
L 1409 794 
L 1409 256 
L 897 -744 
L 494 -744 
L 750 256 
L 750 794 
z
" transform="scale(0.015625)"/>
       <path id="DejaVuSans-20" transform="scale(0.015625)"/>
       <path id="DejaVuSans-Oblique-6e" d="M 3566 2113 
L 3156 0 
L 2578 0 
L 2988 2091 
Q 3016 2238 3031 2350 
Q 3047 2463 3047 2528 
Q 3047 2791 2881 2937 
Q 2716 3084 2419 3084 
Q 1956 3084 1622 2776 
Q 1288 2469 1184 1941 
L 800 0 
L 225 0 
L 903 3500 
L 1478 3500 
L 1363 2950 
Q 1603 3253 1940 3418 
Q 2278 3584 2650 3584 
Q 3113 3584 3367 3334 
Q 3622 3084 3622 2631 
Q 3622 2519 3608 2391 
Q 3594 2263 3566 2113 
z
" transform="scale(0.015625)"/>
      </defs>
      <use xlink:href="#DejaVuSans-53" transform="translate(0 0.015625)"/>
      <use xlink:href="#DejaVuSans-61" transform="translate(63.476562 0.015625)"/>
      <use xlink:href="#DejaVuSans-6d" transform="translate(124.755859 0.015625)"/>
      <use xlink:href="#DejaVuSans-70" transform="translate(222.167969 0.015625)"/>
      <use xlink:href="#DejaVuSans-6c" transform="translate(285.644531 0.015625)"/>
      <use xlink:href="#DejaVuSans-65" transform="translate(313.427734 0.015625)"/>
      <use xlink:href="#DejaVuSans-2c" transform="translate(374.951172 0.015625)"/>
      <use xlink:href="#DejaVuSans-20" transform="translate(406.738281 0.015625)"/>
      <use xlink:href="#DejaVuSans-Oblique-6e" transform="translate(438.525391 0.015625)"/>
     </g>
    </g>
   </g>
   <g id="matplotlib.axis_2">
    <g id="ytick_1">
     <g id="line2d_19">
      <path d="M 52.160938 233.053552 
L 568.8 233.053552 
" clip-path="url(#pa5750b4d9c)" style="fill: none; stroke-dasharray: 2.96,1.28; stroke-dashoffset: 0; stroke: #b0b0b0; stroke-opacity: 0.8; stroke-width: 0.8"/>
     </g>
     <g id="line2d_20">
      <defs>
       <path id="m2207274cde" d="M 0 0 
L -3.5 0 
" style="stroke: #000000; stroke-width: 0.8"/>
      </defs>
      <g>
       <use xlink:href="#m2207274cde" x="52.160938" y="233.053552" style="stroke: #000000; stroke-width: 0.8"/>
      </g>
     </g>
     <g id="text_11">
      <!-- −0.4 -->
      <g transform="translate(20.878125 236.852771) scale(0.1 -0.1)">
       <defs>
        <path id="DejaVuSans-2212" d="M 678 2272 
L 4684 2272 
L 4684 1741 
L 678 1741 
L 678 2272 
z
" transform="scale(0.015625)"/>
        <path id="DejaVuSans-2e" d="M 684 794 
L 1344 794 
L 1344 0 
L 684 0 
L 684 794 
z
" transform="scale(0.015625)"/>
       </defs>
       <use xlink:href="#DejaVuSans-2212"/>
       <use xlink:href="#DejaVuSans-30" transform="translate(83.789062 0)"/>
       <use xlink:href="#DejaVuSans-2e" transform="translate(147.412109 0)"/>
       <use xlink:href="#DejaVuSans-34" transform="translate(179.199219 0)"/>
      </g>
     </g>
    </g>
    <g id="ytick_2">
     <g id="line2d_21">
      <path d="M 52.160938 181.45878 
L 568.8 181.45878 
" clip-path="url(#pa5750b4d9c)" style="fill: none; stroke-dasharray: 2.96,1.28; stroke-dashoffset: 0; stroke: #b0b0b0; stroke-opacity: 0.8; stroke-width: 0.8"/>
     </g>
     <g id="line2d_22">
      <g>
       <use xlink:href="#m2207274cde" x="52.160938" y="181.45878" style="stroke: #000000; stroke-width: 0.8"/>
      </g>
     </g>
     <g id="text_12">
      <!-- −0.2 -->
      <g transform="translate(20.878125 185.257999) scale(0.1 -0.1)">
       <use xlink:href="#DejaVuSans-2212"/>
       <use xlink:href="#DejaVuSans-30" transform="translate(83.789062 0)"/>
       <use xlink:href="#DejaVuSans-2e" transform="translate(147.412109 0)"/>
       <use xlink:href="#DejaVuSans-32" transform="translate(179.199219 0)"/>
      </g>
     </g>
    </g>
    <g id="ytick_3">
     <g id="line2d_23">
      <path d="M 52.160938 129.864009 
L 568.8 129.864009 
" clip-path="url(#pa5750b4d9c)" style="fill: none; stroke-dasharray: 2.96,1.28; stroke-dashoffset: 0; stroke: #b0b0b0; stroke-opacity: 0.8; stroke-width: 0.8"/>
     </g>
     <g id="line2d_24">
      <g>
       <use xlink:href="#m2207274cde" x="52.160938" y="129.864009" style="stroke: #000000; stroke-width: 0.8"/>
      </g>
     </g>
     <g id="text_13">
      <!-- 0.0 -->
      <g transform="translate(29.257812 133.663227) scale(0.1 -0.1)">
       <use xlink:href="#DejaVuSans-30"/>
       <use xlink:href="#DejaVuSans-2e" transform="translate(63.623047 0)"/>
       <use xlink:href="#DejaVuSans-30" transform="translate(95.410156 0)"/>
      </g>
     </g>
    </g>
    <g id="ytick_4">
     <g id="line2d_25">
      <path d="M 52.160938 78.269237 
L 568.8 78.269237 
" clip-path="url(#pa5750b4d9c)" style="fill: none; stroke-dasharray: 2.96,1.28; stroke-dashoffset: 0; stroke: #b0b0b0; stroke-opacity: 0.8; stroke-width: 0.8"/>
     </g>
     <g id="line2d_26">
      <g>
       <use xlink:href="#m2207274cde" x="52.160938" y="78.269237" style="stroke: #000000; stroke-width: 0.8"/>
      </g>
     </g>
     <g id="text_14">
      <!-- 0.2 -->
      <g transform="translate(29.257812 82.068456) scale(0.1 -0.1)">
       <use xlink:href="#DejaVuSans-30"/>
       <use xlink:href="#DejaVuSans-2e" transform="translate(63.623047 0)"/>
       <use xlink:href="#DejaVuSans-32" transform="translate(95.410156 0)"/>
      </g>
     </g>
    </g>
    <g id="ytick_5">
     <g id="line2d_27">
      <path d="M 52.160938 26.674465 
L 568.8 26.674465 
" clip-path="url(#pa5750b4d9c)" style="fill: none; stroke-dasharray: 2.96,1.28; stroke-dashoffset: 0; stroke: #b0b0b0; stroke-opacity: 0.8; stroke-width: 0.8"/>
     </g>
     <g id="line2d_28">
      <g>
       <use xlink:href="#m2207274cde" x="52.160938" y="26.674465" style="stroke: #000000; stroke-width: 0.8"/>
      </g>
     </g>
     <g id="text_15">
      <!-- 0.4 -->
      <g transform="translate(29.257812 30.473684) scale(0.1 -0.1)">
       <use xlink:href="#DejaVuSans-30"/>
       <use xlink:href="#DejaVuSans-2e" transform="translate(63.623047 0)"/>
       <use xlink:href="#DejaVuSans-34" transform="translate(95.410156 0)"/>
      </g>
     </g>
    </g>
    <g id="text_16">
     <!-- Amplitude -->
     <g transform="translate(14.798437 154.433594) rotate(-90) scale(0.1 -0.1)">
      <defs>
       <path id="DejaVuSans-41" d="M 2188 4044 
L 1331 1722 
L 3047 1722 
L 2188 4044 
z
M 1831 4666 
L 2547 4666 
L 4325 0 
L 3669 0 
L 3244 1197 
L 1141 1197 
L 716 0 
L 50 0 
L 1831 4666 
z
" transform="scale(0.015625)"/>
       <path id="DejaVuSans-69" d="M 603 3500 
L 1178 3500 
L 1178 0 
L 603 0 
L 603 3500 
z
M 603 4863 
L 1178 4863 
L 1178 4134 
L 603 4134 
L 603 4863 
z
" transform="scale(0.015625)"/>
       <path id="DejaVuSans-74" d="M 1172 4494 
L 1172 3500 
L 2356 3500 
L 2356 3053 
L 1172 3053 
L 1172 1153 
Q 1172 725 1289 603 
Q 1406 481 1766 481 
L 2356 481 
L 2356 0 
L 1766 0 
Q 1100 0 847 248 
Q 594 497 594 1153 
L 594 3053 
L 172 3053 
L 172 3500 
L 594 3500 
L 594 4494 
L 1172 4494 
z
" transform="scale(0.015625)"/>
       <path id="DejaVuSans-75" d="M 544 1381 
L 544 3500 
L 1119 3500 
L 1119 1403 
Q 1119 906 1312 657 
Q 1506 409 1894 409 
Q 2359 409 2629 706 
Q 2900 1003 2900 1516 
L 2900 3500 
L 3475 3500 
L 3475 0 
L 2900 0 
L 2900 538 
Q 2691 219 2414 64 
Q 2138 -91 1772 -91 
Q 1169 -91 856 284 
Q 544 659 544 1381 
z
M 1991 3584 
L 1991 3584 
z
" transform="scale(0.015625)"/>
       <path id="DejaVuSans-64" d="M 2906 2969 
L 2906 4863 
L 3481 4863 
L 3481 0 
L 2906 0 
L 2906 525 
Q 2725 213 2448 61 
Q 2172 -91 1784 -91 
Q 1150 -91 751 415 
Q 353 922 353 1747 
Q 353 2572 751 3078 
Q 1150 3584 1784 3584 
Q 2172 3584 2448 3432 
Q 2725 3281 2906 2969 
z
M 947 1747 
Q 947 1113 1208 752 
Q 1469 391 1925 391 
Q 2381 391 2643 752 
Q 2906 1113 2906 1747 
Q 2906 2381 2643 2742 
Q 2381 3103 1925 3103 
Q 1469 3103 1208 2742 
Q 947 2381 947 1747 
z
" transform="scale(0.015625)"/>
      </defs>
      <use xlink:href="#DejaVuSans-41"/>
      <use xlink:href="#DejaVuSans-6d" transform="translate(68.408203 0)"/>
      <use xlink:href="#DejaVuSans-70" transform="translate(165.820312 0)"/>
      <use xlink:href="#DejaVuSans-6c" transform="translate(229.296875 0)"/>
      <use xlink:href="#DejaVuSans-69" transform="translate(257.080078 0)"/>
      <use xlink:href="#DejaVuSans-74" transform="translate(284.863281 0)"/>
      <use xlink:href="#DejaVuSans-75" transform="translate(324.072266 0)"/>
      <use xlink:href="#DejaVuSans-64" transform="translate(387.451172 0)"/>
      <use xlink:href="#DejaVuSans-65" transform="translate(450.927734 0)"/>
     </g>
    </g>
   </g>
   <g id="line2d_29">
    <path d="M 75.644531 131.389054 
L 76.821654 123.125023 
L 79.175899 134.149271 
L 80.353021 132.007088 
L 81.530144 132.639608 
L 82.707266 132.041394 
L 83.884389 137.084798 
L 85.061511 131.755754 
L 86.238634 129.812684 
L 87.415756 125.95252 
L 88.592879 133.156259 
L 89.770001 133.282535 
L 90.947124 129.484591 
L 92.124246 132.504491 
L 93.301369 116.950288 
L 94.478491 125.275354 
L 95.655614 126.529313 
L 96.832736 132.694471 
L 98.009859 129.009311 
L 99.186981 136.237334 
L 100.364104 136.772353 
L 101.541226 141.258014 
L 102.718349 138.646404 
L 103.895471 139.898197 
L 105.072594 133.936719 
L 106.249716 123.998227 
L 107.426839 116.285372 
L 108.603961 110.547076 
L 109.781084 103.788067 
L 110.958206 110.304909 
L 112.135329 115.631694 
L 113.312451 123.967186 
L 114.489574 137.992345 
L 115.666696 146.507712 
L 116.843819 169.660122 
L 118.020941 186.188505 
L 120.375186 211.086773 
L 121.552309 213.343743 
L 122.729431 211.389351 
L 123.906553 193.197664 
L 125.083676 177.362281 
L 126.260798 153.791417 
L 127.437921 116.652954 
L 128.615043 94.435961 
L 129.792166 74.351992 
L 130.969288 59.586678 
L 132.146411 46.758432 
L 133.323533 54.936285 
L 134.500656 77.607559 
L 135.677778 84.339766 
L 136.854901 109.597461 
L 138.032023 139.461732 
L 139.209146 162.188771 
L 140.386268 195.1129 
L 141.563391 207.738136 
L 142.740513 221.644562 
L 143.917636 222.279856 
L 145.094758 218.71102 
L 146.271881 199.357099 
L 147.449003 192.87996 
L 148.626126 190.727979 
L 149.803248 180.825643 
L 150.980371 179.187927 
L 152.157493 184.823297 
L 153.334616 191.9631 
L 154.511738 195.011871 
L 155.688861 204.507079 
L 156.865983 220.070129 
L 158.043106 220.796299 
L 159.220228 222.159721 
L 160.397351 216.295305 
L 161.574473 182.768988 
L 162.751596 175.586492 
L 163.928718 134.630835 
L 165.105841 116.547481 
L 166.282963 84.441773 
L 167.460086 65.777615 
L 168.637208 61.406287 
L 169.814331 50.606638 
L 170.991453 61.888266 
L 172.168576 77.820581 
L 173.345698 98.755902 
L 174.522821 127.09535 
L 175.699943 148.052032 
L 176.877066 178.941946 
L 178.054188 197.667259 
L 179.231311 212.512924 
L 180.408433 211.5291 
L 182.762678 179.80571 
L 183.939801 160.366832 
L 185.116923 137.012355 
L 186.294046 107.722474 
L 187.471168 82.271375 
L 188.648291 60.64983 
L 189.825413 29.857286 
L 191.002536 28.142721 
L 192.179658 27.048097 
L 193.356781 30.180349 
L 194.533903 30.03029 
L 195.711026 53.325283 
L 196.888148 59.191326 
L 198.065271 72.399592 
L 199.242393 84.052529 
L 200.419516 107.919296 
L 201.596638 113.143559 
L 202.773761 128.708021 
L 203.950883 155.754516 
L 205.128006 157.631504 
L 206.305128 177.445268 
L 207.482251 183.078556 
L 208.659373 202.463144 
L 209.836496 212.742169 
L 211.013618 224.276726 
L 212.190741 223.253252 
L 213.367863 229.548186 
L 214.544986 222.649805 
L 216.89923 206.617321 
L 218.076353 180.330084 
L 219.253475 157.08054 
L 220.430598 123.404436 
L 221.60772 112.44113 
L 223.961965 72.308029 
L 225.139088 69.681256 
L 226.31621 54.593568 
L 227.493333 73.852955 
L 228.670455 74.733299 
L 229.847578 87.209492 
L 233.378945 151.261457 
L 234.556068 180.684279 
L 235.73319 195.26186 
L 236.910313 200.362034 
L 238.087435 215.330022 
L 239.264558 226.843423 
L 240.44168 233.015266 
L 241.618803 231.751857 
L 242.795925 221.43223 
L 243.973048 217.243837 
L 245.15017 192.14364 
L 246.327293 171.766588 
L 247.504415 156.7495 
L 249.85866 117.439166 
L 251.035783 104.952517 
L 252.212905 76.198395 
L 253.390028 75.816668 
L 254.56715 62.91139 
L 255.744273 63.768079 
L 256.921395 60.771848 
L 258.098518 60.080215 
L 259.27564 55.181596 
L 260.452763 60.449925 
L 261.629885 64.34169 
L 262.807008 65.530697 
L 263.98413 66.241942 
L 265.161253 62.475175 
L 266.338375 62.490642 
L 267.515498 65.638224 
L 268.69262 62.785948 
L 269.869743 60.828135 
L 271.046865 61.265296 
L 272.223988 56.893159 
L 273.40111 67.470249 
L 274.578233 65.954242 
L 275.755355 78.202679 
L 276.932478 106.421788 
L 278.1096 113.274522 
L 279.286723 131.164884 
L 280.463845 152.452836 
L 281.640968 168.464817 
L 282.81809 196.679629 
L 283.995213 207.302045 
L 285.172335 229.709492 
L 286.349458 239.366335 
L 287.52658 238.909241 
L 288.703703 235.332236 
L 289.880825 221.23271 
L 291.057948 212.953858 
L 292.23507 192.280636 
L 294.589315 141.710985 
L 295.766438 128.488343 
L 298.120683 82.809485 
L 299.297805 67.361558 
L 300.474928 65.959394 
L 301.65205 57.627448 
L 302.829173 61.994338 
L 304.006295 75.793991 
L 307.537663 141.200078 
L 308.714785 167.682052 
L 309.891908 180.520176 
L 311.06903 194.75259 
L 312.246152 215.427082 
L 313.423275 214.662095 
L 314.600397 217.568617 
L 315.77752 213.355988 
L 316.954642 207.879239 
L 318.131765 201.342996 
L 319.308887 200.673441 
L 320.48601 191.2094 
L 321.663132 183.318754 
L 322.840255 178.843088 
L 324.017377 178.948125 
L 325.1945 184.268796 
L 326.371622 182.736808 
L 327.548745 194.179624 
L 328.725867 201.993054 
L 329.90299 205.877987 
L 331.080112 203.211422 
L 332.257235 200.263607 
L 333.434357 200.224696 
L 334.61148 197.200197 
L 335.788602 197.702667 
L 336.965725 196.526693 
L 338.142847 187.504341 
L 339.31997 185.365946 
L 340.497092 193.936671 
L 341.674215 187.710089 
L 342.851337 197.816244 
L 344.02846 195.032324 
L 345.205582 205.072014 
L 346.382705 196.460105 
L 347.559827 205.796195 
L 348.73695 198.457154 
L 349.914072 197.584005 
L 351.091195 185.954965 
L 352.268317 184.815652 
L 353.44544 187.83759 
L 354.622562 186.765459 
L 355.799685 184.716212 
L 356.976807 187.511009 
L 358.15393 191.978243 
L 359.331052 193.128837 
L 360.508175 208.275177 
L 361.685297 202.372828 
L 362.86242 203.041085 
L 364.039542 208.854211 
L 365.216665 209.766599 
L 366.393787 204.037953 
L 367.57091 195.953053 
L 368.748032 186.437661 
L 369.925155 175.87512 
L 371.102277 160.225085 
L 372.2794 141.869344 
L 373.456522 125.732926 
L 374.633645 104.096505 
L 375.810767 85.463901 
L 376.98789 70.949443 
L 378.165012 49.581316 
L 379.342135 34.568433 
L 380.519257 27.797447 
L 381.69638 34.315308 
L 382.873502 32.191837 
L 384.050625 30.800647 
L 385.227747 42.979785 
L 386.40487 62.447173 
L 387.581992 88.447583 
L 388.759115 105.998553 
L 389.936237 132.309727 
L 391.11336 153.221242 
L 393.467605 187.962593 
L 394.644727 199.431813 
L 395.82185 198.395614 
L 396.998972 195.003135 
L 398.176095 173.090141 
L 399.353217 163.994237 
L 400.53034 143.444537 
L 401.707462 126.200426 
L 402.884585 103.003252 
L 404.061707 71.367314 
L 405.238829 59.712551 
L 406.415952 51.212242 
L 407.593074 40.587895 
L 408.770197 45.260346 
L 409.947319 42.200004 
L 411.124442 48.394456 
L 412.301564 67.650731 
L 413.478687 73.947402 
L 414.655809 73.823731 
L 415.832932 72.086833 
L 417.010054 81.93022 
L 418.187177 73.49263 
L 419.364299 67.723711 
L 420.541422 60.101386 
L 421.718544 60.674366 
L 422.895667 60.162898 
L 424.072789 52.371234 
L 425.249912 55.465571 
L 427.604157 67.139754 
L 428.781279 65.384488 
L 429.958402 81.013112 
L 431.135524 84.328073 
L 432.312647 86.869539 
L 433.489769 72.577646 
L 434.666892 70.118877 
L 435.844014 62.414605 
L 438.198259 38.135827 
L 439.375382 32.338611 
L 440.552504 28.066964 
L 441.729627 40.354547 
L 444.083872 73.597718 
L 445.260994 100.584318 
L 447.615239 159.379204 
L 448.792362 187.254398 
L 449.969484 202.069905 
L 451.146607 208.875145 
L 452.323729 205.977498 
L 453.500852 188.448828 
L 454.677974 178.321689 
L 455.855097 144.472741 
L 457.032219 126.681501 
L 458.209342 91.985096 
L 459.386464 82.790993 
L 460.563587 60.518587 
L 461.740709 55.809747 
L 462.917832 59.608545 
L 464.094954 72.915814 
L 467.626322 144.126008 
L 468.803444 170.262846 
L 471.157689 205.388749 
L 472.334812 204.022339 
L 473.511934 197.995736 
L 474.689057 184.151779 
L 477.043302 143.780571 
L 478.220424 111.254446 
L 479.397547 84.36962 
L 480.574669 53.365474 
L 481.751792 40.350415 
L 482.928914 22.870453 
L 484.106037 18.25554 
L 485.283159 19.362209 
L 486.460282 25.506651 
L 487.637404 39.004214 
L 488.814527 56.477966 
L 489.991649 71.309972 
L 491.168772 96.38468 
L 492.345894 105.139234 
L 493.523017 130.223667 
L 494.700139 147.23555 
L 495.877262 151.144282 
L 497.054384 163.491282 
L 498.231507 171.073393 
L 499.408629 184.642195 
L 500.585751 196.194494 
L 501.762874 204.423227 
L 502.939996 213.672271 
L 504.117119 214.133865 
L 505.294241 220.644823 
L 506.471364 208.03696 
L 507.648486 204.597748 
L 508.825609 198.220231 
L 510.002731 187.895948 
L 511.179854 181.680031 
L 512.356976 179.608526 
L 513.534099 168.812909 
L 514.711221 175.013283 
L 515.888344 166.903716 
L 517.065466 177.232742 
L 518.242589 189.189222 
L 519.419711 188.609642 
L 521.773956 224.006534 
L 522.951079 229.361117 
L 524.128201 223.392885 
L 525.305324 230.806006 
L 526.482446 213.150655 
L 527.659569 207.219464 
L 528.836691 179.096498 
L 532.368059 101.619315 
L 533.545181 81.589334 
L 534.722304 78.530214 
L 535.899426 63.506532 
L 537.076549 57.243107 
L 538.253671 65.85352 
L 539.430794 78.318784 
L 540.607916 97.865416 
L 541.785039 126.936667 
L 542.962161 147.284017 
L 544.139284 173.699786 
L 545.316406 190.895011 
L 545.316406 190.895011 
" clip-path="url(#pa5750b4d9c)" style="fill: none; stroke: #1f77b4; stroke-linecap: square"/>
   </g>
   <g id="line2d_30">
    <path d="M 75.644531 139.24726 
L 76.821654 134.139043 
L 77.998776 132.956373 
L 79.175899 136.285206 
L 80.353021 128.103462 
L 81.530144 130.545784 
L 82.707266 130.337521 
L 83.884389 141.802469 
L 85.061511 130.089339 
L 86.238634 123.62926 
L 87.415756 125.991357 
L 88.592879 126.797601 
L 89.770001 122.992105 
L 90.947124 131.52346 
L 92.124246 133.853838 
L 93.301369 122.098415 
L 94.478491 130.280668 
L 95.655614 134.774538 
L 96.832736 132.633442 
L 98.009859 136.437017 
L 99.186981 135.21415 
L 100.364104 126.140896 
L 101.541226 128.099648 
L 102.718349 129.509729 
L 103.895471 111.043374 
L 105.072594 127.455348 
L 106.249716 118.902775 
L 107.426839 118.89527 
L 108.603961 126.888034 
L 109.781084 129.211814 
L 110.958206 140.506972 
L 112.135329 145.576989 
L 113.312451 146.115108 
L 114.489574 149.06156 
L 115.666696 141.99788 
L 116.843819 143.890193 
L 118.020941 141.53316 
L 119.198064 119.798373 
L 120.375186 111.174588 
L 121.552309 98.839055 
L 122.729431 80.053822 
L 123.906553 75.889142 
L 125.083676 65.3135 
L 126.260798 53.553133 
L 127.437921 62.234226 
L 128.615043 65.648314 
L 129.792166 90.148102 
L 130.969288 98.868324 
L 132.146411 125.374763 
L 133.323533 139.182792 
L 134.500656 168.986891 
L 135.677778 180.169396 
L 136.854901 197.944767 
L 138.032023 210.367364 
L 139.209146 221.599883 
L 140.386268 221.552582 
L 141.563391 207.474818 
L 142.740513 212.001893 
L 143.917636 197.406527 
L 146.271881 190.342981 
L 147.449003 183.845335 
L 148.626126 187.616977 
L 149.803248 184.301133 
L 152.157493 195.889093 
L 153.334616 200.737125 
L 154.511738 192.928616 
L 155.688861 198.6683 
L 156.865983 198.834968 
L 158.043106 190.620411 
L 159.220228 196.767579 
L 160.397351 192.679773 
L 161.574473 190.175424 
L 162.751596 179.084266 
L 163.928718 187.192581 
L 165.105841 196.86195 
L 166.282963 201.554892 
L 167.460086 198.006134 
L 169.814331 206.523238 
L 170.991453 207.709447 
L 172.168576 215.223619 
L 173.345698 212.09591 
L 174.522821 194.726614 
L 175.699943 187.354955 
L 176.877066 167.024121 
L 178.054188 150.626064 
L 180.408433 113.322981 
L 181.585556 81.859433 
L 182.762678 66.461593 
L 183.939801 65.860708 
L 185.116923 48.831244 
L 186.294046 47.372431 
L 187.471168 49.062856 
L 188.648291 50.167091 
L 189.825413 55.149299 
L 191.002536 59.14634 
L 192.179658 67.033842 
L 193.356781 70.08036 
L 194.533903 74.569368 
L 195.711026 71.435093 
L 196.888148 71.217433 
L 198.065271 65.274669 
L 199.242393 68.737501 
L 200.419516 64.097484 
L 201.596638 55.988745 
L 202.773761 53.780571 
L 203.950883 62.202149 
L 205.128006 54.735222 
L 206.305128 65.463755 
L 207.482251 78.499331 
L 208.659373 81.423806 
L 209.836496 78.975051 
L 211.013618 75.857631 
L 212.190741 78.125038 
L 213.367863 68.974671 
L 214.544986 55.601254 
L 215.722108 51.050049 
L 216.89923 45.527928 
L 218.076353 39.278529 
L 219.253475 33.878491 
L 220.430598 50.617826 
L 221.60772 49.964267 
L 222.784843 69.332057 
L 223.961965 104.443482 
L 225.139088 126.712837 
L 227.493333 177.728798 
L 228.670455 192.701146 
L 229.847578 203.699917 
L 231.0247 199.827688 
L 232.201823 194.620407 
L 234.556068 156.436943 
L 235.73319 126.950559 
L 236.910313 100.636634 
L 238.087435 77.769371 
L 239.264558 65.444711 
L 240.44168 60.545326 
L 241.618803 56.124991 
L 242.795925 63.606495 
L 245.15017 99.68784 
L 246.327293 134.200719 
L 247.504415 159.829206 
L 248.681538 177.917166 
L 251.035783 224.502717 
L 252.212905 222.633116 
L 253.390028 224.943424 
L 254.56715 213.462247 
L 255.744273 210.984779 
L 256.921395 205.321595 
L 259.27564 180.138864 
L 260.452763 181.448829 
L 261.629885 179.211902 
L 262.807008 176.706731 
L 263.98413 186.648145 
L 265.161253 203.600132 
L 266.338375 197.055726 
L 267.515498 211.037906 
L 268.69262 214.331907 
L 269.869743 203.696372 
L 271.046865 201.085914 
L 272.223988 190.379988 
L 273.40111 181.329895 
L 274.578233 187.002682 
L 275.755355 174.677338 
L 276.932478 180.773935 
L 278.1096 182.119225 
L 279.286723 195.256625 
L 280.463845 195.249014 
L 281.640968 207.895534 
L 282.81809 225.955706 
L 283.995213 226.036098 
L 285.172335 225.486069 
L 286.349458 222.974307 
L 289.880825 159.117891 
L 291.057948 128.703485 
L 292.23507 110.658985 
L 294.589315 64.387834 
L 295.766438 58.193516 
L 296.94356 44.929311 
L 298.120683 64.550013 
L 299.297805 75.808987 
L 300.474928 99.989007 
L 301.65205 129.343198 
L 302.829173 151.508718 
L 304.006295 182.215087 
L 305.183418 187.001672 
L 306.36054 207.098865 
L 307.537663 210.287677 
L 308.714785 200.67717 
L 309.891908 171.216516 
L 311.06903 154.740756 
L 312.246152 135.850316 
L 314.600397 78.296799 
L 315.77752 56.387692 
L 316.954642 39.989452 
L 318.131765 29.38551 
L 319.308887 25.641647 
L 320.48601 22.817316 
L 321.663132 28.616158 
L 322.840255 40.488284 
L 324.017377 59.308292 
L 326.371622 87.571113 
L 328.725867 118.899421 
L 329.90299 145.618658 
L 331.080112 151.139831 
L 332.257235 167.222602 
L 333.434357 179.202411 
L 334.61148 193.44734 
L 335.788602 202.370937 
L 336.965725 214.30231 
L 338.142847 215.6087 
L 339.31997 218.881017 
L 340.497092 220.025236 
L 341.674215 221.324757 
L 342.851337 207.394774 
L 344.02846 196.697621 
L 345.205582 184.349212 
L 346.382705 170.371358 
L 348.73695 125.594528 
L 349.914072 107.158203 
L 351.091195 98.95333 
L 352.268317 80.647779 
L 353.44544 70.752141 
L 354.622562 58.76051 
L 355.799685 48.086622 
L 356.976807 34.733499 
L 358.15393 40.057809 
L 359.331052 40.20262 
L 360.508175 40.738991 
L 361.685297 50.774456 
L 362.86242 59.445312 
L 366.393787 120.797143 
L 367.57091 138.20791 
L 368.748032 164.017744 
L 369.925155 182.428492 
L 371.102277 197.6299 
L 372.2794 202.300659 
L 373.456522 205.975872 
L 374.633645 211.172461 
L 375.810767 204.743495 
L 376.98789 192.341924 
L 378.165012 186.357599 
L 379.342135 195.624987 
L 380.519257 192.590566 
L 381.69638 179.243449 
L 382.873502 185.166908 
L 384.050625 199.150228 
L 385.227747 200.955855 
L 386.40487 215.614671 
L 387.581992 223.312796 
L 388.759115 219.95679 
L 389.936237 206.890696 
L 391.11336 203.266616 
L 392.290482 197.652296 
L 393.467605 160.778462 
L 394.644727 136.011622 
L 395.82185 115.661453 
L 396.998972 89.148187 
L 398.176095 77.858577 
L 399.353217 59.522045 
L 400.53034 53.866157 
L 401.707462 61.282803 
L 402.884585 70.71114 
L 404.061707 84.482856 
L 405.238829 118.8312 
L 408.770197 184.274049 
L 409.947319 205.648628 
L 411.124442 222.494957 
L 412.301564 215.660766 
L 413.478687 225.546057 
L 414.655809 207.227383 
L 415.832932 213.830992 
L 417.010054 198.265243 
L 418.187177 196.103419 
L 419.364299 188.797478 
L 420.541422 184.245436 
L 421.718544 193.447801 
L 422.895667 193.208341 
L 424.072789 190.565835 
L 425.249912 198.072214 
L 426.427034 197.160936 
L 427.604157 199.955722 
L 428.781279 197.190596 
L 429.958402 179.488892 
L 431.135524 182.061883 
L 432.312647 164.897787 
L 433.489769 137.538244 
L 434.666892 122.267977 
L 435.844014 104.229 
L 437.021137 76.093147 
L 438.198259 61.759166 
L 439.375382 45.101321 
L 440.552504 38.546049 
L 441.729627 22.807574 
L 442.906749 23.091899 
L 444.083872 29.717787 
L 445.260994 39.204668 
L 446.438117 52.169084 
L 448.792362 89.892208 
L 449.969484 105.513497 
L 452.323729 158.42898 
L 453.500852 166.396934 
L 454.677974 185.502605 
L 455.855097 190.877408 
L 457.032219 199.231862 
L 458.209342 189.977055 
L 459.386464 184.209103 
L 460.563587 168.082322 
L 461.740709 144.996938 
L 462.917832 130.962845 
L 465.272077 74.317458 
L 466.449199 58.875821 
L 467.626322 49.048893 
L 468.803444 37.057003 
L 469.980567 28.309597 
L 471.157689 31.383901 
L 472.334812 40.873601 
L 473.511934 37.157129 
L 474.689057 50.622114 
L 475.866179 70.821089 
L 477.043302 85.72947 
L 478.220424 92.917613 
L 479.397547 123.315257 
L 480.574669 132.590249 
L 481.751792 152.55206 
L 484.106037 180.688791 
L 485.283159 191.84618 
L 486.460282 204.599718 
L 487.637404 213.180531 
L 488.814527 215.984533 
L 489.991649 220.039878 
L 491.168772 220.351223 
L 492.345894 218.470309 
L 494.700139 193.239035 
L 495.877262 179.695308 
L 497.054384 168.192041 
L 499.408629 128.378371 
L 500.585751 112.2391 
L 502.939996 82.989825 
L 504.117119 67.222143 
L 505.294241 54.194148 
L 506.471364 43.197553 
L 507.648486 41.773311 
L 508.825609 42.167405 
L 510.002731 31.211465 
L 511.179854 40.391993 
L 512.356976 51.514207 
L 513.534099 66.837426 
L 514.711221 71.712223 
L 515.888344 96.736174 
L 517.065466 118.906359 
L 519.419711 156.456071 
L 520.596834 164.783824 
L 521.773956 178.481519 
L 522.951079 186.592524 
L 524.128201 202.04202 
L 525.305324 206.946722 
L 526.482446 211.026503 
L 527.659569 211.919553 
L 528.836691 211.843667 
L 530.013814 215.156412 
L 531.190936 203.442684 
L 532.368059 196.576013 
L 533.545181 190.967371 
L 534.722304 187.107229 
L 535.899426 185.482616 
L 537.076549 179.738111 
L 538.253671 175.139575 
L 539.430794 171.757509 
L 540.607916 171.320535 
L 541.785039 188.40681 
L 542.962161 200.024296 
L 544.139284 206.961438 
L 545.316406 218.806587 
L 545.316406 218.806587 
" clip-path="url(#pa5750b4d9c)" style="fill: none; stroke: #ff7f0e; stroke-linecap: square"/>
   </g>
   <g id="patch_3">
    <path d="M 52.160938 250.421875 
L 52.160938 7.2 
" style="fill: none; stroke: #000000; stroke-width: 0.8; stroke-linejoin: miter; stroke-linecap: square"/>
   </g>
   <g id="patch_4">
    <path d="M 568.8 250.421875 
L 568.8 7.2 
" style="fill: none; stroke: #000000; stroke-width: 0.8; stroke-linejoin: miter; stroke-linecap: square"/>
   </g>
   <g id="patch_5">
    <path d="M 52.160937 250.421875 
L 568.8 250.421875 
" style="fill: none; stroke: #000000; stroke-width: 0.8; stroke-linejoin: miter; stroke-linecap: square"/>
   </g>
   <g id="patch_6">
    <path d="M 52.160937 7.2 
L 568.8 7.2 
" style="fill: none; stroke: #000000; stroke-width: 0.8; stroke-linejoin: miter; stroke-linecap: square"/>
   </g>
   <g id="legend_1">
    <g id="patch_7">
     <path d="M 59.160938 44.55625 
L 116.15625 44.55625 
Q 118.15625 44.55625 118.15625 42.55625 
L 118.15625 14.2 
Q 118.15625 12.2 116.15625 12.2 
L 59.160938 12.2 
Q 57.160938 12.2 57.160938 14.2 
L 57.160938 42.55625 
Q 57.160938 44.55625 59.160938 44.55625 
z
" style="fill: #ffffff; opacity: 0.8; stroke: #cccccc; stroke-linejoin: miter"/>
    </g>
    <g id="line2d_31">
     <path d="M 61.160938 20.298438 
L 71.160938 20.298438 
L 81.160938 20.298438 
" style="fill: none; stroke: #1f77b4; stroke-linecap: square"/>
    </g>
    <g id="text_17">
     <!-- real -->
     <g transform="translate(89.160938 23.798438) scale(0.1 -0.1)">
      <defs>
       <path id="DejaVuSans-72" d="M 2631 2963 
Q 2534 3019 2420 3045 
Q 2306 3072 2169 3072 
Q 1681 3072 1420 2755 
Q 1159 2438 1159 1844 
L 1159 0 
L 581 0 
L 581 3500 
L 1159 3500 
L 1159 2956 
Q 1341 3275 1631 3429 
Q 1922 3584 2338 3584 
Q 2397 3584 2469 3576 
Q 2541 3569 2628 3553 
L 2631 2963 
z
" transform="scale(0.015625)"/>
      </defs>
      <use xlink:href="#DejaVuSans-72"/>
      <use xlink:href="#DejaVuSans-65" transform="translate(38.863281 0)"/>
      <use xlink:href="#DejaVuSans-61" transform="translate(100.386719 0)"/>
      <use xlink:href="#DejaVuSans-6c" transform="translate(161.666016 0)"/>
     </g>
    </g>
    <g id="line2d_32">
     <path d="M 61.160938 34.976563 
L 71.160938 34.976563 
L 81.160938 34.976563 
" style="fill: none; stroke: #ff7f0e; stroke-linecap: square"/>
    </g>
    <g id="text_18">
     <!-- imag -->
     <g transform="translate(89.160938 38.476563) scale(0.1 -0.1)">
      <defs>
       <path id="DejaVuSans-67" d="M 2906 1791 
Q 2906 2416 2648 2759 
Q 2391 3103 1925 3103 
Q 1463 3103 1205 2759 
Q 947 2416 947 1791 
Q 947 1169 1205 825 
Q 1463 481 1925 481 
Q 2391 481 2648 825 
Q 2906 1169 2906 1791 
z
M 3481 434 
Q 3481 -459 3084 -895 
Q 2688 -1331 1869 -1331 
Q 1566 -1331 1297 -1286 
Q 1028 -1241 775 -1147 
L 775 -588 
Q 1028 -725 1275 -790 
Q 1522 -856 1778 -856 
Q 2344 -856 2625 -561 
Q 2906 -266 2906 331 
L 2906 616 
Q 2728 306 2450 153 
Q 2172 0 1784 0 
Q 1141 0 747 490 
Q 353 981 353 1791 
Q 353 2603 747 3093 
Q 1141 3584 1784 3584 
Q 2172 3584 2450 3431 
Q 2728 3278 2906 2969 
L 2906 3500 
L 3481 3500 
L 3481 434 
z
" transform="scale(0.015625)"/>
      </defs>
      <use xlink:href="#DejaVuSans-69"/>
      <use xlink:href="#DejaVuSans-6d" transform="translate(27.783203 0)"/>
      <use xlink:href="#DejaVuSans-61" transform="translate(125.195312 0)"/>
      <use xlink:href="#DejaVuSans-67" transform="translate(186.474609 0)"/>
     </g>
    </g>
   </g>
  </g>
 </g>
 <defs>
  <clipPath id="pa5750b4d9c">
   <rect x="52.160938" y="7.2" width="516.639063" height="243.221875"/>
  </clipPath>
 </defs>
</svg>
