<?xml version="1.0" encoding="utf-8" standalone="no"?>
<!DOCTYPE svg PUBLIC "-//W3C//DTD SVG 1.1//EN"
  "http://www.w3.org/Graphics/SVG/1.1/DTD/svg11.dtd">
<svg xmlns:xlink="http://www.w3.org/1999/xlink" width="576pt" height="288pt" viewBox="0 0 576 288" xmlns="http://www.w3.org/2000/svg" version="1.1">
 <metadata>
  <rdf:RDF xmlns:dc="http://purl.org/dc/elements/1.1/" xmlns:cc="http://creativecommons.org/ns#" xmlns:rdf="http://www.w3.org/1999/02/22-rdf-syntax-ns#">
   <cc:Work>
    <dc:type rdf:resource="http://purl.org/dc/dcmitype/StillImage"/>
    <dc:date>2025-11-27T16:51:33.153062</dc:date>
    <dc:format>image/svg+xml</dc:format>
    <dc:creator>
     <cc:Agent>
      <dc:title>Matplotlib v3.10.7, https://matplotlib.org/</dc:title>
     </cc:Agent>
    </dc:creator>
   </cc:Work>
  </rdf:RDF>
 </metadata>
 <defs>
  <style type="text/css">*{stroke-linejoin: round; stroke-linecap: butt}</style>
 </defs>
 <g id="figure_1">
  <g id="patch_1">
   <path d="M 0 288 
L 576 288 
L 576 0 
L 0 0 
z
" style="fill: #ffffff"/>
  </g>
  <g id="axes_1">
   <g id="patch_2">
    <path d="M 48.982813 250.421875 
L 568.8 250.421875 
L 568.8 22.32 
L 48.982813 22.32 
z
" style="fill: #ffffff"/>
   </g>
   <g id="matplotlib.axis_1">
    <g id="xtick_1">
     <g id="line2d_1">
      <path d="M 119.89006 250.421875 
L 119.89006 22.32 
" clip-path="url(#p7d0d9d0b9b)" style="fill: none; stroke-dasharray: 2.96,1.28; stroke-dashoffset: 0; stroke: #b0b0b0; stroke-opacity: 0.8; stroke-width: 0.8"/>
     </g>
     <g id="line2d_2">
      <defs>
       <path id="m1c16be2f20" d="M 0 0 
L 0 3.5 
" style="stroke: #000000; stroke-width: 0.8"/>
      </defs>
      <g>
       <use xlink:href="#m1c16be2f20" x="119.89006" y="250.421875" style="stroke: #000000; stroke-width: 0.8"/>
      </g>
     </g>
     <g id="text_1">
      <!-- -200 -->
      <g transform="translate(108.542404 265.020312) scale(0.1 -0.1)">
       <defs>
        <path id="DejaVuSans-2d" d="M 313 2009 
L 1997 2009 
L 1997 1497 
L 313 1497 
L 313 2009 
z
" transform="scale(0.015625)"/>
        <path id="DejaVuSans-32" d="M 1228 531 
L 3431 531 
L 3431 0 
L 469 0 
L 469 531 
Q 828 903 1448 1529 
Q 2069 2156 2228 2338 
Q 2531 2678 2651 2914 
Q 2772 3150 2772 3378 
Q 2772 3750 2511 3984 
Q 2250 4219 1831 4219 
Q 1534 4219 1204 4116 
Q 875 4013 500 3803 
L 500 4441 
Q 881 4594 1212 4672 
Q 1544 4750 1819 4750 
Q 2544 4750 2975 4387 
Q 3406 4025 3406 3419 
Q 3406 3131 3298 2873 
Q 3191 2616 2906 2266 
Q 2828 2175 2409 1742 
Q 1991 1309 1228 531 
z
" transform="scale(0.015625)"/>
        <path id="DejaVuSans-30" d="M 2034 4250 
Q 1547 4250 1301 3770 
Q 1056 3291 1056 2328 
Q 1056 1369 1301 889 
Q 1547 409 2034 409 
Q 2525 409 2770 889 
Q 3016 1369 3016 2328 
Q 3016 3291 2770 3770 
Q 2525 4250 2034 4250 
z
M 2034 4750 
Q 2819 4750 3233 4129 
Q 3647 3509 3647 2328 
Q 3647 1150 3233 529 
Q 2819 -91 2034 -91 
Q 1250 -91 836 529 
Q 422 1150 422 2328 
Q 422 3509 836 4129 
Q 1250 4750 2034 4750 
z
" transform="scale(0.015625)"/>
       </defs>
       <use xlink:href="#DejaVuSans-2d"/>
       <use xlink:href="#DejaVuSans-32" transform="translate(36.083984 0)"/>
       <use xlink:href="#DejaVuSans-30" transform="translate(99.707031 0)"/>
       <use xlink:href="#DejaVuSans-30" transform="translate(163.330078 0)"/>
      </g>
     </g>
    </g>
    <g id="xtick_2">
     <g id="line2d_3">
      <path d="M 214.448447 250.421875 
L 214.448447 22.32 
" clip-path="url(#p7d0d9d0b9b)" style="fill: none; stroke-dasharray: 2.96,1.28; stroke-dashoffset: 0; stroke: #b0b0b0; stroke-opacity: 0.8; stroke-width: 0.8"/>
     </g>
     <g id="line2d_4">
      <g>
       <use xlink:href="#m1c16be2f20" x="214.448447" y="250.421875" style="stroke: #000000; stroke-width: 0.8"/>
      </g>
     </g>
     <g id="text_2">
      <!-- -100 -->
      <g transform="translate(203.100791 265.020312) scale(0.1 -0.1)">
       <defs>
        <path id="DejaVuSans-31" d="M 794 531 
L 1825 531 
L 1825 4091 
L 703 3866 
L 703 4441 
L 1819 4666 
L 2450 4666 
L 2450 531 
L 3481 531 
L 3481 0 
L 794 0 
L 794 531 
z
" transform="scale(0.015625)"/>
       </defs>
       <use xlink:href="#DejaVuSans-2d"/>
       <use xlink:href="#DejaVuSans-31" transform="translate(36.083984 0)"/>
       <use xlink:href="#DejaVuSans-30" transform="translate(99.707031 0)"/>
       <use xlink:href="#DejaVuSans-30" transform="translate(163.330078 0)"/>
      </g>
     </g>
    </g>
    <g id="xtick_3">
     <g id="line2d_5">
      <path d="M 309.006834 250.421875 
L 309.006834 22.32 
" clip-path="url(#p7d0d9d0b9b)" style="fill: none; stroke-dasharray: 2.96,1.28; stroke-dashoffset: 0; stroke: #b0b0b0; stroke-opacity: 0.8; stroke-width: 0.8"/>
     </g>
     <g id="line2d_6">
      <g>
       <use xlink:href="#m1c16be2f20" x="309.006834" y="250.421875" style="stroke: #000000; stroke-width: 0.8"/>
      </g>
     </g>
     <g id="text_3">
      <!-- 0 -->
      <g transform="translate(305.825584 265.020312) scale(0.1 -0.1)">
       <use xlink:href="#DejaVuSans-30"/>
      </g>
     </g>
    </g>
    <g id="xtick_4">
     <g id="line2d_7">
      <path d="M 403.565221 250.421875 
L 403.565221 22.32 
" clip-path="url(#p7d0d9d0b9b)" style="fill: none; stroke-dasharray: 2.96,1.28; stroke-dashoffset: 0; stroke: #b0b0b0; stroke-opacity: 0.8; stroke-width: 0.8"/>
     </g>
     <g id="line2d_8">
      <g>
       <use xlink:href="#m1c16be2f20" x="403.565221" y="250.421875" style="stroke: #000000; stroke-width: 0.8"/>
      </g>
     </g>
     <g id="text_4">
      <!-- 100 -->
      <g transform="translate(394.021471 265.020312) scale(0.1 -0.1)">
       <use xlink:href="#DejaVuSans-31"/>
       <use xlink:href="#DejaVuSans-30" transform="translate(63.623047 0)"/>
       <use xlink:href="#DejaVuSans-30" transform="translate(127.246094 0)"/>
      </g>
     </g>
    </g>
    <g id="xtick_5">
     <g id="line2d_9">
      <path d="M 498.123608 250.421875 
L 498.123608 22.32 
" clip-path="url(#p7d0d9d0b9b)" style="fill: none; stroke-dasharray: 2.96,1.28; stroke-dashoffset: 0; stroke: #b0b0b0; stroke-opacity: 0.8; stroke-width: 0.8"/>
     </g>
     <g id="line2d_10">
      <g>
       <use xlink:href="#m1c16be2f20" x="498.123608" y="250.421875" style="stroke: #000000; stroke-width: 0.8"/>
      </g>
     </g>
     <g id="text_5">
      <!-- 200 -->
      <g transform="translate(488.579858 265.020312) scale(0.1 -0.1)">
       <use xlink:href="#DejaVuSans-32"/>
       <use xlink:href="#DejaVuSans-30" transform="translate(63.623047 0)"/>
       <use xlink:href="#DejaVuSans-30" transform="translate(127.246094 0)"/>
      </g>
     </g>
    </g>
    <g id="text_6">
     <!-- Frequency (Hz), $f$ -->
     <g transform="translate(265.741406 278.7) scale(0.1 -0.1)">
      <defs>
       <path id="DejaVuSans-46" d="M 628 4666 
L 3309 4666 
L 3309 4134 
L 1259 4134 
L 1259 2759 
L 3109 2759 
L 3109 2228 
L 1259 2228 
L 1259 0 
L 628 0 
L 628 4666 
z
" transform="scale(0.015625)"/>
       <path id="DejaVuSans-72" d="M 2631 2963 
Q 2534 3019 2420 3045 
Q 2306 3072 2169 3072 
Q 1681 3072 1420 2755 
Q 1159 2438 1159 1844 
L 1159 0 
L 581 0 
L 581 3500 
L 1159 3500 
L 1159 2956 
Q 1341 3275 1631 3429 
Q 1922 3584 2338 3584 
Q 2397 3584 2469 3576 
Q 2541 3569 2628 3553 
L 2631 2963 
z
" transform="scale(0.015625)"/>
       <path id="DejaVuSans-65" d="M 3597 1894 
L 3597 1613 
L 953 1613 
Q 991 1019 1311 708 
Q 1631 397 2203 397 
Q 2534 397 2845 478 
Q 3156 559 3463 722 
L 3463 178 
Q 3153 47 2828 -22 
Q 2503 -91 2169 -91 
Q 1331 -91 842 396 
Q 353 884 353 1716 
Q 353 2575 817 3079 
Q 1281 3584 2069 3584 
Q 2775 3584 3186 3129 
Q 3597 2675 3597 1894 
z
M 3022 2063 
Q 3016 2534 2758 2815 
Q 2500 3097 2075 3097 
Q 1594 3097 1305 2825 
Q 1016 2553 972 2059 
L 3022 2063 
z
" transform="scale(0.015625)"/>
       <path id="DejaVuSans-71" d="M 947 1747 
Q 947 1113 1208 752 
Q 1469 391 1925 391 
Q 2381 391 2643 752 
Q 2906 1113 2906 1747 
Q 2906 2381 2643 2742 
Q 2381 3103 1925 3103 
Q 1469 3103 1208 2742 
Q 947 2381 947 1747 
z
M 2906 525 
Q 2725 213 2448 61 
Q 2172 -91 1784 -91 
Q 1150 -91 751 415 
Q 353 922 353 1747 
Q 353 2572 751 3078 
Q 1150 3584 1784 3584 
Q 2172 3584 2448 3432 
Q 2725 3281 2906 2969 
L 2906 3500 
L 3481 3500 
L 3481 -1331 
L 2906 -1331 
L 2906 525 
z
" transform="scale(0.015625)"/>
       <path id="DejaVuSans-75" d="M 544 1381 
L 544 3500 
L 1119 3500 
L 1119 1403 
Q 1119 906 1312 657 
Q 1506 409 1894 409 
Q 2359 409 2629 706 
Q 2900 1003 2900 1516 
L 2900 3500 
L 3475 3500 
L 3475 0 
L 2900 0 
L 2900 538 
Q 2691 219 2414 64 
Q 2138 -91 1772 -91 
Q 1169 -91 856 284 
Q 544 659 544 1381 
z
M 1991 3584 
L 1991 3584 
z
" transform="scale(0.015625)"/>
       <path id="DejaVuSans-6e" d="M 3513 2113 
L 3513 0 
L 2938 0 
L 2938 2094 
Q 2938 2591 2744 2837 
Q 2550 3084 2163 3084 
Q 1697 3084 1428 2787 
Q 1159 2491 1159 1978 
L 1159 0 
L 581 0 
L 581 3500 
L 1159 3500 
L 1159 2956 
Q 1366 3272 1645 3428 
Q 1925 3584 2291 3584 
Q 2894 3584 3203 3211 
Q 3513 2838 3513 2113 
z
" transform="scale(0.015625)"/>
       <path id="DejaVuSans-63" d="M 3122 3366 
L 3122 2828 
Q 2878 2963 2633 3030 
Q 2388 3097 2138 3097 
Q 1578 3097 1268 2742 
Q 959 2388 959 1747 
Q 959 1106 1268 751 
Q 1578 397 2138 397 
Q 2388 397 2633 464 
Q 2878 531 3122 666 
L 3122 134 
Q 2881 22 2623 -34 
Q 2366 -91 2075 -91 
Q 1284 -91 818 406 
Q 353 903 353 1747 
Q 353 2603 823 3093 
Q 1294 3584 2113 3584 
Q 2378 3584 2631 3529 
Q 2884 3475 3122 3366 
z
" transform="scale(0.015625)"/>
       <path id="DejaVuSans-79" d="M 2059 -325 
Q 1816 -950 1584 -1140 
Q 1353 -1331 966 -1331 
L 506 -1331 
L 506 -850 
L 844 -850 
Q 1081 -850 1212 -737 
Q 1344 -625 1503 -206 
L 1606 56 
L 191 3500 
L 800 3500 
L 1894 763 
L 2988 3500 
L 3597 3500 
L 2059 -325 
z
" transform="scale(0.015625)"/>
       <path id="DejaVuSans-20" transform="scale(0.015625)"/>
       <path id="DejaVuSans-28" d="M 1984 4856 
Q 1566 4138 1362 3434 
Q 1159 2731 1159 2009 
Q 1159 1288 1364 580 
Q 1569 -128 1984 -844 
L 1484 -844 
Q 1016 -109 783 600 
Q 550 1309 550 2009 
Q 550 2706 781 3412 
Q 1013 4119 1484 4856 
L 1984 4856 
z
" transform="scale(0.015625)"/>
       <path id="DejaVuSans-48" d="M 628 4666 
L 1259 4666 
L 1259 2753 
L 3553 2753 
L 3553 4666 
L 4184 4666 
L 4184 0 
L 3553 0 
L 3553 2222 
L 1259 2222 
L 1259 0 
L 628 0 
L 628 4666 
z
" transform="scale(0.015625)"/>
       <path id="DejaVuSans-7a" d="M 353 3500 
L 3084 3500 
L 3084 2975 
L 922 459 
L 3084 459 
L 3084 0 
L 275 0 
L 275 525 
L 2438 3041 
L 353 3041 
L 353 3500 
z
" transform="scale(0.015625)"/>
       <path id="DejaVuSans-29" d="M 513 4856 
L 1013 4856 
Q 1481 4119 1714 3412 
Q 1947 2706 1947 2009 
Q 1947 1309 1714 600 
Q 1481 -109 1013 -844 
L 513 -844 
Q 928 -128 1133 580 
Q 1338 1288 1338 2009 
Q 1338 2731 1133 3434 
Q 928 4138 513 4856 
z
" transform="scale(0.015625)"/>
       <path id="DejaVuSans-2c" d="M 750 794 
L 1409 794 
L 1409 256 
L 897 -744 
L 494 -744 
L 750 256 
L 750 794 
z
" transform="scale(0.015625)"/>
       <path id="DejaVuSans-Oblique-66" d="M 3059 4863 
L 2969 4384 
L 2419 4384 
Q 2106 4384 1964 4261 
Q 1822 4138 1753 3809 
L 1691 3500 
L 2638 3500 
L 2553 3053 
L 1606 3053 
L 1013 0 
L 434 0 
L 1031 3053 
L 481 3053 
L 563 3500 
L 1113 3500 
L 1159 3744 
Q 1278 4363 1576 4613 
Q 1875 4863 2516 4863 
L 3059 4863 
z
" transform="scale(0.015625)"/>
      </defs>
      <use xlink:href="#DejaVuSans-46" transform="translate(0 0.015625)"/>
      <use xlink:href="#DejaVuSans-72" transform="translate(57.519531 0.015625)"/>
      <use xlink:href="#DejaVuSans-65" transform="translate(98.632812 0.015625)"/>
      <use xlink:href="#DejaVuSans-71" transform="translate(160.15625 0.015625)"/>
      <use xlink:href="#DejaVuSans-75" transform="translate(223.632812 0.015625)"/>
      <use xlink:href="#DejaVuSans-65" transform="translate(287.011719 0.015625)"/>
      <use xlink:href="#DejaVuSans-6e" transform="translate(348.535156 0.015625)"/>
      <use xlink:href="#DejaVuSans-63" transform="translate(411.914062 0.015625)"/>
      <use xlink:href="#DejaVuSans-79" transform="translate(466.894531 0.015625)"/>
      <use xlink:href="#DejaVuSans-20" transform="translate(526.074219 0.015625)"/>
      <use xlink:href="#DejaVuSans-28" transform="translate(557.861328 0.015625)"/>
      <use xlink:href="#DejaVuSans-48" transform="translate(596.875 0.015625)"/>
      <use xlink:href="#DejaVuSans-7a" transform="translate(672.070312 0.015625)"/>
      <use xlink:href="#DejaVuSans-29" transform="translate(724.560547 0.015625)"/>
      <use xlink:href="#DejaVuSans-2c" transform="translate(763.574219 0.015625)"/>
      <use xlink:href="#DejaVuSans-20" transform="translate(795.361328 0.015625)"/>
      <use xlink:href="#DejaVuSans-Oblique-66" transform="translate(827.148438 0.015625)"/>
     </g>
    </g>
   </g>
   <g id="matplotlib.axis_2">
    <g id="ytick_1">
     <g id="line2d_11">
      <path d="M 48.982813 229.477496 
L 568.8 229.477496 
" clip-path="url(#p7d0d9d0b9b)" style="fill: none; stroke-dasharray: 2.96,1.28; stroke-dashoffset: 0; stroke: #b0b0b0; stroke-opacity: 0.8; stroke-width: 0.8"/>
     </g>
     <g id="line2d_12">
      <defs>
       <path id="mbcb8849f4d" d="M 0 0 
L -3.5 0 
" style="stroke: #000000; stroke-width: 0.8"/>
      </defs>
      <g>
       <use xlink:href="#mbcb8849f4d" x="48.982813" y="229.477496" style="stroke: #000000; stroke-width: 0.8"/>
      </g>
     </g>
     <g id="text_7">
      <!-- −70 -->
      <g transform="translate(20.878125 233.276714) scale(0.1 -0.1)">
       <defs>
        <path id="DejaVuSans-2212" d="M 678 2272 
L 4684 2272 
L 4684 1741 
L 678 1741 
L 678 2272 
z
" transform="scale(0.015625)"/>
        <path id="DejaVuSans-37" d="M 525 4666 
L 3525 4666 
L 3525 4397 
L 1831 0 
L 1172 0 
L 2766 4134 
L 525 4134 
L 525 4666 
z
" transform="scale(0.015625)"/>
       </defs>
       <use xlink:href="#DejaVuSans-2212"/>
       <use xlink:href="#DejaVuSans-37" transform="translate(83.789062 0)"/>
       <use xlink:href="#DejaVuSans-30" transform="translate(147.412109 0)"/>
      </g>
     </g>
    </g>
    <g id="ytick_2">
     <g id="line2d_13">
      <path d="M 48.982813 199.361883 
L 568.8 199.361883 
" clip-path="url(#p7d0d9d0b9b)" style="fill: none; stroke-dasharray: 2.96,1.28; stroke-dashoffset: 0; stroke: #b0b0b0; stroke-opacity: 0.8; stroke-width: 0.8"/>
     </g>
     <g id="line2d_14">
      <g>
       <use xlink:href="#mbcb8849f4d" x="48.982813" y="199.361883" style="stroke: #000000; stroke-width: 0.8"/>
      </g>
     </g>
     <g id="text_8">
      <!-- −60 -->
      <g transform="translate(20.878125 203.161102) scale(0.1 -0.1)">
       <defs>
        <path id="DejaVuSans-36" d="M 2113 2584 
Q 1688 2584 1439 2293 
Q 1191 2003 1191 1497 
Q 1191 994 1439 701 
Q 1688 409 2113 409 
Q 2538 409 2786 701 
Q 3034 994 3034 1497 
Q 3034 2003 2786 2293 
Q 2538 2584 2113 2584 
z
M 3366 4563 
L 3366 3988 
Q 3128 4100 2886 4159 
Q 2644 4219 2406 4219 
Q 1781 4219 1451 3797 
Q 1122 3375 1075 2522 
Q 1259 2794 1537 2939 
Q 1816 3084 2150 3084 
Q 2853 3084 3261 2657 
Q 3669 2231 3669 1497 
Q 3669 778 3244 343 
Q 2819 -91 2113 -91 
Q 1303 -91 875 529 
Q 447 1150 447 2328 
Q 447 3434 972 4092 
Q 1497 4750 2381 4750 
Q 2619 4750 2861 4703 
Q 3103 4656 3366 4563 
z
" transform="scale(0.015625)"/>
       </defs>
       <use xlink:href="#DejaVuSans-2212"/>
       <use xlink:href="#DejaVuSans-36" transform="translate(83.789062 0)"/>
       <use xlink:href="#DejaVuSans-30" transform="translate(147.412109 0)"/>
      </g>
     </g>
    </g>
    <g id="ytick_3">
     <g id="line2d_15">
      <path d="M 48.982813 169.246271 
L 568.8 169.246271 
" clip-path="url(#p7d0d9d0b9b)" style="fill: none; stroke-dasharray: 2.96,1.28; stroke-dashoffset: 0; stroke: #b0b0b0; stroke-opacity: 0.8; stroke-width: 0.8"/>
     </g>
     <g id="line2d_16">
      <g>
       <use xlink:href="#mbcb8849f4d" x="48.982813" y="169.246271" style="stroke: #000000; stroke-width: 0.8"/>
      </g>
     </g>
     <g id="text_9">
      <!-- −50 -->
      <g transform="translate(20.878125 173.04549) scale(0.1 -0.1)">
       <defs>
        <path id="DejaVuSans-35" d="M 691 4666 
L 3169 4666 
L 3169 4134 
L 1269 4134 
L 1269 2991 
Q 1406 3038 1543 3061 
Q 1681 3084 1819 3084 
Q 2600 3084 3056 2656 
Q 3513 2228 3513 1497 
Q 3513 744 3044 326 
Q 2575 -91 1722 -91 
Q 1428 -91 1123 -41 
Q 819 9 494 109 
L 494 744 
Q 775 591 1075 516 
Q 1375 441 1709 441 
Q 2250 441 2565 725 
Q 2881 1009 2881 1497 
Q 2881 1984 2565 2268 
Q 2250 2553 1709 2553 
Q 1456 2553 1204 2497 
Q 953 2441 691 2322 
L 691 4666 
z
" transform="scale(0.015625)"/>
       </defs>
       <use xlink:href="#DejaVuSans-2212"/>
       <use xlink:href="#DejaVuSans-35" transform="translate(83.789062 0)"/>
       <use xlink:href="#DejaVuSans-30" transform="translate(147.412109 0)"/>
      </g>
     </g>
    </g>
    <g id="ytick_4">
     <g id="line2d_17">
      <path d="M 48.982813 139.130659 
L 568.8 139.130659 
" clip-path="url(#p7d0d9d0b9b)" style="fill: none; stroke-dasharray: 2.96,1.28; stroke-dashoffset: 0; stroke: #b0b0b0; stroke-opacity: 0.8; stroke-width: 0.8"/>
     </g>
     <g id="line2d_18">
      <g>
       <use xlink:href="#mbcb8849f4d" x="48.982813" y="139.130659" style="stroke: #000000; stroke-width: 0.8"/>
      </g>
     </g>
     <g id="text_10">
      <!-- −40 -->
      <g transform="translate(20.878125 142.929878) scale(0.1 -0.1)">
       <defs>
        <path id="DejaVuSans-34" d="M 2419 4116 
L 825 1625 
L 2419 1625 
L 2419 4116 
z
M 2253 4666 
L 3047 4666 
L 3047 1625 
L 3713 1625 
L 3713 1100 
L 3047 1100 
L 3047 0 
L 2419 0 
L 2419 1100 
L 313 1100 
L 313 1709 
L 2253 4666 
z
" transform="scale(0.015625)"/>
       </defs>
       <use xlink:href="#DejaVuSans-2212"/>
       <use xlink:href="#DejaVuSans-34" transform="translate(83.789062 0)"/>
       <use xlink:href="#DejaVuSans-30" transform="translate(147.412109 0)"/>
      </g>
     </g>
    </g>
    <g id="ytick_5">
     <g id="line2d_19">
      <path d="M 48.982813 109.015047 
L 568.8 109.015047 
" clip-path="url(#p7d0d9d0b9b)" style="fill: none; stroke-dasharray: 2.96,1.28; stroke-dashoffset: 0; stroke: #b0b0b0; stroke-opacity: 0.8; stroke-width: 0.8"/>
     </g>
     <g id="line2d_20">
      <g>
       <use xlink:href="#mbcb8849f4d" x="48.982813" y="109.015047" style="stroke: #000000; stroke-width: 0.8"/>
      </g>
     </g>
     <g id="text_11">
      <!-- −30 -->
      <g transform="translate(20.878125 112.814266) scale(0.1 -0.1)">
       <defs>
        <path id="DejaVuSans-33" d="M 2597 2516 
Q 3050 2419 3304 2112 
Q 3559 1806 3559 1356 
Q 3559 666 3084 287 
Q 2609 -91 1734 -91 
Q 1441 -91 1130 -33 
Q 819 25 488 141 
L 488 750 
Q 750 597 1062 519 
Q 1375 441 1716 441 
Q 2309 441 2620 675 
Q 2931 909 2931 1356 
Q 2931 1769 2642 2001 
Q 2353 2234 1838 2234 
L 1294 2234 
L 1294 2753 
L 1863 2753 
Q 2328 2753 2575 2939 
Q 2822 3125 2822 3475 
Q 2822 3834 2567 4026 
Q 2313 4219 1838 4219 
Q 1578 4219 1281 4162 
Q 984 4106 628 3988 
L 628 4550 
Q 988 4650 1302 4700 
Q 1616 4750 1894 4750 
Q 2613 4750 3031 4423 
Q 3450 4097 3450 3541 
Q 3450 3153 3228 2886 
Q 3006 2619 2597 2516 
z
" transform="scale(0.015625)"/>
       </defs>
       <use xlink:href="#DejaVuSans-2212"/>
       <use xlink:href="#DejaVuSans-33" transform="translate(83.789062 0)"/>
       <use xlink:href="#DejaVuSans-30" transform="translate(147.412109 0)"/>
      </g>
     </g>
    </g>
    <g id="ytick_6">
     <g id="line2d_21">
      <path d="M 48.982813 78.899435 
L 568.8 78.899435 
" clip-path="url(#p7d0d9d0b9b)" style="fill: none; stroke-dasharray: 2.96,1.28; stroke-dashoffset: 0; stroke: #b0b0b0; stroke-opacity: 0.8; stroke-width: 0.8"/>
     </g>
     <g id="line2d_22">
      <g>
       <use xlink:href="#mbcb8849f4d" x="48.982813" y="78.899435" style="stroke: #000000; stroke-width: 0.8"/>
      </g>
     </g>
     <g id="text_12">
      <!-- −20 -->
      <g transform="translate(20.878125 82.698653) scale(0.1 -0.1)">
       <use xlink:href="#DejaVuSans-2212"/>
       <use xlink:href="#DejaVuSans-32" transform="translate(83.789062 0)"/>
       <use xlink:href="#DejaVuSans-30" transform="translate(147.412109 0)"/>
      </g>
     </g>
    </g>
    <g id="ytick_7">
     <g id="line2d_23">
      <path d="M 48.982813 48.783823 
L 568.8 48.783823 
" clip-path="url(#p7d0d9d0b9b)" style="fill: none; stroke-dasharray: 2.96,1.28; stroke-dashoffset: 0; stroke: #b0b0b0; stroke-opacity: 0.8; stroke-width: 0.8"/>
     </g>
     <g id="line2d_24">
      <g>
       <use xlink:href="#mbcb8849f4d" x="48.982813" y="48.783823" style="stroke: #000000; stroke-width: 0.8"/>
      </g>
     </g>
     <g id="text_13">
      <!-- −10 -->
      <g transform="translate(20.878125 52.583041) scale(0.1 -0.1)">
       <use xlink:href="#DejaVuSans-2212"/>
       <use xlink:href="#DejaVuSans-31" transform="translate(83.789062 0)"/>
       <use xlink:href="#DejaVuSans-30" transform="translate(147.412109 0)"/>
      </g>
     </g>
    </g>
    <g id="text_14">
     <!-- Power density (dB/Hz) -->
     <g transform="translate(14.798437 191.570938) rotate(-90) scale(0.1 -0.1)">
      <defs>
       <path id="DejaVuSans-50" d="M 1259 4147 
L 1259 2394 
L 2053 2394 
Q 2494 2394 2734 2622 
Q 2975 2850 2975 3272 
Q 2975 3691 2734 3919 
Q 2494 4147 2053 4147 
L 1259 4147 
z
M 628 4666 
L 2053 4666 
Q 2838 4666 3239 4311 
Q 3641 3956 3641 3272 
Q 3641 2581 3239 2228 
Q 2838 1875 2053 1875 
L 1259 1875 
L 1259 0 
L 628 0 
L 628 4666 
z
" transform="scale(0.015625)"/>
       <path id="DejaVuSans-6f" d="M 1959 3097 
Q 1497 3097 1228 2736 
Q 959 2375 959 1747 
Q 959 1119 1226 758 
Q 1494 397 1959 397 
Q 2419 397 2687 759 
Q 2956 1122 2956 1747 
Q 2956 2369 2687 2733 
Q 2419 3097 1959 3097 
z
M 1959 3584 
Q 2709 3584 3137 3096 
Q 3566 2609 3566 1747 
Q 3566 888 3137 398 
Q 2709 -91 1959 -91 
Q 1206 -91 779 398 
Q 353 888 353 1747 
Q 353 2609 779 3096 
Q 1206 3584 1959 3584 
z
" transform="scale(0.015625)"/>
       <path id="DejaVuSans-77" d="M 269 3500 
L 844 3500 
L 1563 769 
L 2278 3500 
L 2956 3500 
L 3675 769 
L 4391 3500 
L 4966 3500 
L 4050 0 
L 3372 0 
L 2619 2869 
L 1863 0 
L 1184 0 
L 269 3500 
z
" transform="scale(0.015625)"/>
       <path id="DejaVuSans-64" d="M 2906 2969 
L 2906 4863 
L 3481 4863 
L 3481 0 
L 2906 0 
L 2906 525 
Q 2725 213 2448 61 
Q 2172 -91 1784 -91 
Q 1150 -91 751 415 
Q 353 922 353 1747 
Q 353 2572 751 3078 
Q 1150 3584 1784 3584 
Q 2172 3584 2448 3432 
Q 2725 3281 2906 2969 
z
M 947 1747 
Q 947 1113 1208 752 
Q 1469 391 1925 391 
Q 2381 391 2643 752 
Q 2906 1113 2906 1747 
Q 2906 2381 2643 2742 
Q 2381 3103 1925 3103 
Q 1469 3103 1208 2742 
Q 947 2381 947 1747 
z
" transform="scale(0.015625)"/>
       <path id="DejaVuSans-73" d="M 2834 3397 
L 2834 2853 
Q 2591 2978 2328 3040 
Q 2066 3103 1784 3103 
Q 1356 3103 1142 2972 
Q 928 2841 928 2578 
Q 928 2378 1081 2264 
Q 1234 2150 1697 2047 
L 1894 2003 
Q 2506 1872 2764 1633 
Q 3022 1394 3022 966 
Q 3022 478 2636 193 
Q 2250 -91 1575 -91 
Q 1294 -91 989 -36 
Q 684 19 347 128 
L 347 722 
Q 666 556 975 473 
Q 1284 391 1588 391 
Q 1994 391 2212 530 
Q 2431 669 2431 922 
Q 2431 1156 2273 1281 
Q 2116 1406 1581 1522 
L 1381 1569 
Q 847 1681 609 1914 
Q 372 2147 372 2553 
Q 372 3047 722 3315 
Q 1072 3584 1716 3584 
Q 2034 3584 2315 3537 
Q 2597 3491 2834 3397 
z
" transform="scale(0.015625)"/>
       <path id="DejaVuSans-69" d="M 603 3500 
L 1178 3500 
L 1178 0 
L 603 0 
L 603 3500 
z
M 603 4863 
L 1178 4863 
L 1178 4134 
L 603 4134 
L 603 4863 
z
" transform="scale(0.015625)"/>
       <path id="DejaVuSans-74" d="M 1172 4494 
L 1172 3500 
L 2356 3500 
L 2356 3053 
L 1172 3053 
L 1172 1153 
Q 1172 725 1289 603 
Q 1406 481 1766 481 
L 2356 481 
L 2356 0 
L 1766 0 
Q 1100 0 847 248 
Q 594 497 594 1153 
L 594 3053 
L 172 3053 
L 172 3500 
L 594 3500 
L 594 4494 
L 1172 4494 
z
" transform="scale(0.015625)"/>
       <path id="DejaVuSans-42" d="M 1259 2228 
L 1259 519 
L 2272 519 
Q 2781 519 3026 730 
Q 3272 941 3272 1375 
Q 3272 1813 3026 2020 
Q 2781 2228 2272 2228 
L 1259 2228 
z
M 1259 4147 
L 1259 2741 
L 2194 2741 
Q 2656 2741 2882 2914 
Q 3109 3088 3109 3444 
Q 3109 3797 2882 3972 
Q 2656 4147 2194 4147 
L 1259 4147 
z
M 628 4666 
L 2241 4666 
Q 2963 4666 3353 4366 
Q 3744 4066 3744 3513 
Q 3744 3084 3544 2831 
Q 3344 2578 2956 2516 
Q 3422 2416 3680 2098 
Q 3938 1781 3938 1306 
Q 3938 681 3513 340 
Q 3088 0 2303 0 
L 628 0 
L 628 4666 
z
" transform="scale(0.015625)"/>
       <path id="DejaVuSans-2f" d="M 1625 4666 
L 2156 4666 
L 531 -594 
L 0 -594 
L 1625 4666 
z
" transform="scale(0.015625)"/>
      </defs>
      <use xlink:href="#DejaVuSans-50"/>
      <use xlink:href="#DejaVuSans-6f" transform="translate(56.677734 0)"/>
      <use xlink:href="#DejaVuSans-77" transform="translate(117.859375 0)"/>
      <use xlink:href="#DejaVuSans-65" transform="translate(199.646484 0)"/>
      <use xlink:href="#DejaVuSans-72" transform="translate(261.169922 0)"/>
      <use xlink:href="#DejaVuSans-20" transform="translate(302.283203 0)"/>
      <use xlink:href="#DejaVuSans-64" transform="translate(334.070312 0)"/>
      <use xlink:href="#DejaVuSans-65" transform="translate(397.546875 0)"/>
      <use xlink:href="#DejaVuSans-6e" transform="translate(459.070312 0)"/>
      <use xlink:href="#DejaVuSans-73" transform="translate(522.449219 0)"/>
      <use xlink:href="#DejaVuSans-69" transform="translate(574.548828 0)"/>
      <use xlink:href="#DejaVuSans-74" transform="translate(602.332031 0)"/>
      <use xlink:href="#DejaVuSans-79" transform="translate(641.541016 0)"/>
      <use xlink:href="#DejaVuSans-20" transform="translate(700.720703 0)"/>
      <use xlink:href="#DejaVuSans-28" transform="translate(732.507812 0)"/>
      <use xlink:href="#DejaVuSans-64" transform="translate(771.521484 0)"/>
      <use xlink:href="#DejaVuSans-42" transform="translate(834.998047 0)"/>
      <use xlink:href="#DejaVuSans-2f" transform="translate(903.601562 0)"/>
      <use xlink:href="#DejaVuSans-48" transform="translate(937.292969 0)"/>
      <use xlink:href="#DejaVuSans-7a" transform="translate(1012.488281 0)"/>
      <use xlink:href="#DejaVuSans-29" transform="translate(1064.978516 0)"/>
     </g>
    </g>
   </g>
   <g id="line2d_25">
    <path d="M 72.610866 187.355531 
L 72.841722 187.127767 
L 73.072577 187.300594 
L 73.303433 187.871355 
L 73.995999 190.387035 
L 74.226855 190.35569 
L 74.45771 189.332004 
L 74.919421 184.906908 
L 75.611987 177.737244 
L 76.073698 174.747214 
L 76.535409 173.283363 
L 76.766264 172.991929 
L 76.99712 172.898897 
L 77.458831 173.02805 
L 78.151397 173.49597 
L 78.613108 174.25557 
L 79.074819 175.893193 
L 79.53653 178.649555 
L 80.459951 185.144293 
L 80.690807 185.850428 
L 80.921662 185.875887 
L 81.152518 185.306253 
L 82.768506 178.86414 
L 82.999361 178.609721 
L 83.230217 178.636155 
L 83.461072 178.98978 
L 83.691927 179.726858 
L 84.153638 182.618716 
L 84.615349 187.859109 
L 85.307916 198.503004 
L 85.538771 199.514642 
L 85.769626 197.428987 
L 86.923904 178.697194 
L 87.385614 175.215276 
L 87.61647 174.330319 
L 87.847325 173.950167 
L 88.078181 174.030223 
L 88.309036 174.526789 
L 88.770747 176.579932 
L 89.463313 181.410653 
L 90.617591 189.661517 
L 91.310157 193.497881 
L 91.771868 194.996455 
L 92.002723 195.055077 
L 92.233579 194.543069 
L 92.695289 192.169385 
L 93.387856 188.225318 
L 93.618711 187.494873 
L 93.849567 187.231625 
L 94.080422 187.504712 
L 94.311278 188.375079 
L 94.772988 192.136707 
L 95.234699 198.732757 
L 95.69641 205.665428 
L 95.927266 206.209913 
L 96.158121 203.706955 
L 97.081543 188.053113 
L 97.543254 183.6048 
L 98.004965 181.404852 
L 98.23582 181.000583 
L 98.466675 180.987145 
L 98.697531 181.30869 
L 99.159242 182.703169 
L 100.082663 186.258196 
L 100.544374 187.224357 
L 101.006085 187.470504 
L 101.467796 187.318178 
L 102.391218 186.643162 
L 103.083784 186.169641 
L 103.31464 186.20544 
L 103.545495 186.444297 
L 103.77635 186.954653 
L 104.238061 189.036163 
L 104.699772 192.821465 
L 105.854049 205.78506 
L 106.084905 206.418515 
L 106.31576 205.88906 
L 107.470037 200.270238 
L 107.700893 200.002336 
L 107.931748 200.069125 
L 108.162604 200.434255 
L 108.624315 201.933571 
L 109.316881 205.602098 
L 109.778592 207.659076 
L 110.009447 207.692069 
L 110.240303 206.656517 
L 110.702014 201.830793 
L 111.625435 190.901087 
L 112.087146 187.723739 
L 112.318002 186.86742 
L 112.548857 186.517866 
L 112.779713 186.692129 
L 113.010568 187.414853 
L 113.472279 190.660663 
L 113.93399 196.706694 
L 114.395701 206.04104 
L 114.857411 216.260053 
L 115.088267 217.741598 
L 115.319122 215.422986 
L 116.011689 204.560064 
L 116.4734 200.985422 
L 116.704255 200.278626 
L 116.93511 200.115363 
L 117.165966 200.325765 
L 117.627677 200.958729 
L 117.858532 200.851372 
L 118.089388 200.178734 
L 118.551098 197.131843 
L 120.167086 183.216547 
L 120.859653 179.078093 
L 121.321364 177.211815 
L 121.783075 176.318949 
L 122.01393 176.320399 
L 122.244785 176.665184 
L 122.475641 177.386066 
L 122.937352 180.076932 
L 123.399063 184.55138 
L 124.322484 195.308706 
L 124.55334 195.840993 
L 124.784195 194.745266 
L 126.169328 182.025967 
L 126.400183 181.204199 
L 126.631039 180.873129 
L 126.861894 181.040191 
L 127.09275 181.721493 
L 127.55446 184.753574 
L 128.016171 190.389295 
L 128.477882 199.348858 
L 129.170449 217.231783 
L 129.401304 218.781979 
L 129.863015 212.340684 
L 130.324726 206.992884 
L 130.555581 206.040428 
L 130.786437 206.166911 
L 131.017292 207.231085 
L 131.709858 211.690475 
L 131.940714 210.680313 
L 132.402425 203.71401 
L 133.094991 192.625967 
L 133.556702 187.701853 
L 134.018413 184.439704 
L 134.480124 182.365561 
L 134.941834 181.146204 
L 135.403545 180.592036 
L 135.865256 180.569 
L 137.019533 181.090902 
L 137.250389 180.860658 
L 137.7121 179.747231 
L 139.097232 174.852321 
L 139.328088 174.576079 
L 139.558943 174.595552 
L 139.789799 174.937958 
L 140.020654 175.622483 
L 140.482365 178.067085 
L 140.944076 182.002062 
L 141.405787 187.510839 
L 142.098353 198.92743 
L 142.560064 207.079854 
L 142.790919 209.032133 
L 143.021775 208.082815 
L 143.483486 200.460654 
L 144.176052 188.836121 
L 144.868618 181.248604 
L 145.330329 177.986627 
L 145.79204 175.888096 
L 146.253751 174.869155 
L 146.484606 174.761504 
L 146.715462 174.92359 
L 146.946317 175.354992 
L 147.408028 177.002432 
L 147.869739 179.595811 
L 148.562305 184.866623 
L 149.254872 192.026325 
L 149.716582 199.465809 
L 150.178293 211.944763 
L 150.409149 219.907152 
L 150.640004 222.183322 
L 151.794281 185.615247 
L 152.255992 178.829952 
L 152.717703 174.999222 
L 152.948559 173.972387 
L 153.179414 173.466953 
L 153.410269 173.444245 
L 153.641125 173.869508 
L 154.102836 175.89713 
L 155.257113 182.726447 
L 155.487968 182.904915 
L 155.718824 182.476871 
L 156.873101 178.349786 
L 157.103956 178.181824 
L 157.334812 178.349773 
L 157.565667 178.836946 
L 158.027378 180.633658 
L 158.719944 184.897277 
L 159.643366 191.578349 
L 159.874222 192.096478 
L 160.105077 191.705024 
L 160.566788 189.870927 
L 160.797643 189.710563 
L 161.028499 190.806178 
L 161.259354 193.563635 
L 161.721065 201.619258 
L 161.951921 198.940573 
L 162.644487 178.06686 
L 162.875342 175.400715 
L 163.106198 175.791005 
L 163.337053 180.177165 
L 163.567909 188.42574 
L 163.798764 182.454312 
L 164.260475 148.900604 
L 164.722186 128.348734 
L 165.414752 109.346715 
L 165.876463 101.35057 
L 166.338174 96.11309 
L 166.799885 93.26466 
L 167.03074 92.676749 
L 167.261596 92.632402 
L 167.492451 93.130541 
L 167.723307 94.177421 
L 168.185017 97.982705 
L 168.646728 104.2822 
L 169.108439 113.558321 
L 169.57015 126.827557 
L 170.031861 146.701356 
L 170.262716 161.543192 
L 170.724427 208.893467 
L 170.955283 186.687631 
L 171.186138 177.705402 
L 171.416994 174.913772 
L 171.647849 175.501428 
L 171.878704 178.345225 
L 172.571271 189.51368 
L 172.802126 189.077912 
L 173.494692 182.923806 
L 173.725548 181.948215 
L 173.956403 181.624885 
L 174.187259 181.842806 
L 174.418114 182.511951 
L 174.879825 185.023929 
L 175.341536 189.008256 
L 176.957524 206.080711 
L 177.188379 207.200726 
L 177.419235 207.50422 
L 177.65009 206.79224 
L 178.111801 202.610719 
L 179.035223 192.178314 
L 179.496934 188.926854 
L 179.958645 187.3671 
L 180.1895 187.203726 
L 180.420356 187.42809 
L 180.651211 188.011108 
L 181.112922 190.063776 
L 182.267199 196.530764 
L 182.72891 197.929383 
L 182.959765 198.18109 
L 183.190621 198.07585 
L 183.421476 197.571258 
L 183.883187 195.387487 
L 185.26832 186.843113 
L 185.730031 185.681894 
L 185.960886 185.533755 
L 186.191741 185.655362 
L 186.422597 186.022037 
L 186.884308 187.353603 
L 188.038585 191.303456 
L 188.26944 191.383273 
L 188.500296 190.958397 
L 188.962007 188.606972 
L 190.347139 178.744865 
L 190.80885 177.178431 
L 191.039706 176.869777 
L 191.270561 176.875981 
L 191.501417 177.187768 
L 191.963127 178.664867 
L 192.424838 181.121891 
L 193.34826 187.780482 
L 194.733393 197.431045 
L 195.656814 203.108289 
L 195.88767 203.85494 
L 196.118525 203.972254 
L 196.349381 203.415217 
L 196.811092 200.935189 
L 197.503658 197.357678 
L 197.734513 196.787419 
L 197.965369 196.58433 
L 198.196224 196.704151 
L 198.888791 197.828367 
L 199.119646 197.89586 
L 199.350501 197.573352 
L 199.812212 195.844142 
L 200.504779 192.624462 
L 200.966489 191.393835 
L 201.197345 191.153488 
L 201.4282 191.132301 
L 201.889911 191.551825 
L 203.275044 193.424377 
L 203.96761 194.009566 
L 204.429321 194.001951 
L 204.891032 193.605835 
L 205.583598 192.998119 
L 205.814454 193.005126 
L 206.045309 193.170272 
L 206.50702 193.957458 
L 207.430442 196.060319 
L 207.661297 196.181721 
L 207.892153 195.896887 
L 208.123008 195.10376 
L 208.584719 191.966334 
L 209.969851 180.137246 
L 210.431562 178.608254 
L 210.662418 178.52924 
L 210.893273 178.92851 
L 211.124129 179.814641 
L 211.58584 183.049539 
L 212.04755 188.108882 
L 213.201828 202.232014 
L 213.432683 203.381293 
L 213.663538 203.783424 
L 213.894394 203.683235 
L 214.58696 202.402563 
L 216.202948 199.327442 
L 216.664659 198.881076 
L 216.895515 198.835528 
L 217.12637 198.929594 
L 217.588081 199.57479 
L 218.049792 200.846107 
L 218.742358 203.802529 
L 220.358346 212.242285 
L 220.589202 212.698287 
L 220.820057 212.63954 
L 221.050912 212.038814 
L 221.512623 209.568576 
L 222.666901 202.155107 
L 224.052033 195.441585 
L 224.744599 192.664951 
L 225.20631 191.640614 
L 225.437166 191.450471 
L 225.668021 191.459102 
L 226.591443 192.054263 
L 226.822298 191.800934 
L 227.053154 191.213611 
L 227.514865 189.136434 
L 229.130853 180.319127 
L 230.515985 174.540135 
L 231.208552 172.616718 
L 231.670263 172.111406 
L 231.901118 172.156373 
L 232.131973 172.421415 
L 232.593684 173.651819 
L 233.055395 175.824544 
L 233.747962 180.586081 
L 234.902239 190.507969 
L 235.36395 195.466122 
L 235.82566 202.430626 
L 236.287371 213.482903 
L 236.979938 238.278558 
L 237.210793 232.437186 
L 237.672504 215.412957 
L 238.134215 205.181111 
L 238.595926 198.686841 
L 239.288492 192.310837 
L 239.750203 189.695232 
L 239.981058 188.950997 
L 240.211914 188.658356 
L 240.442769 188.886762 
L 240.673625 189.716967 
L 240.90448 191.246907 
L 241.366191 196.946494 
L 241.827902 207.439729 
L 242.289613 219.925459 
L 242.520468 218.213725 
L 243.213034 198.809437 
L 243.674745 191.406119 
L 244.136456 187.722443 
L 244.367312 186.952293 
L 244.598167 186.797547 
L 244.829022 187.213549 
L 245.059878 188.171515 
L 245.521589 191.635605 
L 246.675866 204.212634 
L 246.906721 204.335077 
L 247.137577 202.864802 
L 248.98442 183.91537 
L 249.676987 179.571359 
L 250.369553 176.602968 
L 250.831264 175.696494 
L 251.062119 175.627928 
L 251.292975 175.829557 
L 251.52383 176.301269 
L 251.985541 178.002865 
L 252.678107 181.924331 
L 253.832385 188.58925 
L 254.755806 193.807937 
L 255.448373 197.521654 
L 255.679228 197.938791 
L 255.910083 197.71793 
L 256.371794 195.830937 
L 257.064361 192.754917 
L 257.295216 192.293218 
L 257.526072 192.213507 
L 257.756927 192.520739 
L 258.218638 194.196738 
L 259.372915 200.623137 
L 259.60377 201.117186 
L 259.834626 201.034583 
L 260.065481 200.394099 
L 260.527192 197.92643 
L 261.681469 190.908563 
L 262.14318 189.107426 
L 262.604891 187.958497 
L 263.990024 185.429443 
L 264.451735 183.667173 
L 265.836867 177.560793 
L 266.298578 176.817699 
L 266.529434 176.841967 
L 266.760289 177.131711 
L 267.222 178.424147 
L 268.607132 183.656136 
L 268.837988 183.956407 
L 269.068843 184.015586 
L 269.299699 183.871967 
L 269.76141 183.186273 
L 270.684831 181.593536 
L 271.146542 181.312064 
L 271.377398 181.390335 
L 271.839109 181.986645 
L 272.993386 184.197128 
L 273.455097 184.368382 
L 274.147663 184.261798 
L 274.378518 184.411936 
L 274.609374 184.75357 
L 275.071085 186.122647 
L 275.532796 188.413859 
L 276.225362 193.26347 
L 276.917928 199.71403 
L 277.610495 206.408273 
L 277.84135 206.846803 
L 278.072205 205.490456 
L 278.764772 195.869467 
L 279.226483 190.4976 
L 279.688193 187.580079 
L 279.919049 187.043588 
L 280.149904 187.0762 
L 280.38076 187.614087 
L 281.304182 191.650215 
L 281.535037 191.829905 
L 281.765892 191.302373 
L 282.458459 187.511581 
L 282.92017 185.659401 
L 283.151025 185.363445 
L 283.38188 185.559418 
L 283.612736 186.278397 
L 284.074447 189.397168 
L 284.536158 194.951925 
L 285.459579 210.35331 
L 285.690435 211.345107 
L 285.92129 209.688508 
L 287.537278 188.053407 
L 288.229845 183.374315 
L 288.922411 180.691712 
L 290.307544 176.546988 
L 290.538399 176.132473 
L 290.769254 176.019675 
L 291.00011 176.32822 
L 291.230965 177.182065 
L 291.461821 178.708696 
L 291.923532 184.310371 
L 292.385243 194.037663 
L 292.846953 205.738348 
L 293.077809 208.592851 
L 293.308664 208.357487 
L 293.53952 207.215271 
L 293.770375 207.027379 
L 294.001231 208.611015 
L 294.232086 212.352002 
L 294.693797 227.043925 
L 294.924652 235.04075 
L 295.155508 235.456199 
L 295.848074 222.59344 
L 297.464062 197.394496 
L 298.618339 174.16221 
L 298.849195 172.200763 
L 299.08005 171.629236 
L 299.310906 172.409691 
L 300.003472 177.93627 
L 300.234327 177.347695 
L 300.696038 174.428138 
L 300.926894 175.262662 
L 301.157749 179.325864 
L 301.61946 196.965874 
L 302.312026 162.465154 
L 302.542882 157.761719 
L 302.773737 156.772746 
L 303.004593 160.207452 
L 303.235448 171.034628 
L 303.466303 193.175773 
L 303.928014 147.427483 
L 304.389725 130.15434 
L 304.620581 127.659854 
L 304.851436 129.769247 
L 305.082292 140.562483 
L 305.313147 194.53478 
L 305.544002 128.050761 
L 306.005713 90.322839 
L 306.467424 70.001968 
L 307.15999 50.826002 
L 307.852557 39.457346 
L 308.314268 35.085478 
L 308.775979 32.953065 
L 309.006834 32.688267 
L 309.237689 32.951419 
L 309.468545 33.745844 
L 309.930256 36.975756 
L 310.391967 42.55479 
L 310.853677 50.843852 
L 311.315388 62.555367 
L 311.777099 79.281118 
L 312.23881 106.030082 
L 312.469666 130.407674 
L 312.700521 191.579251 
L 312.931376 136.915061 
L 313.162232 127.171131 
L 313.393087 125.219666 
L 313.623943 127.518068 
L 313.854798 133.31854 
L 314.085654 143.086915 
L 314.316509 159.180529 
L 314.547364 191.13523 
L 314.77822 181.206461 
L 315.009075 164.979401 
L 315.239931 159.45408 
L 315.470786 158.938264 
L 315.701642 161.749835 
L 316.394208 175.568973 
L 316.625063 174.42779 
L 316.855919 172.311018 
L 317.086774 171.421386 
L 317.31763 172.178403 
L 317.779341 176.060549 
L 318.010196 176.547735 
L 318.471907 173.286635 
L 318.702762 171.935854 
L 318.933618 171.828009 
L 319.164473 173.222492 
L 319.395329 176.232929 
L 319.85704 187.192028 
L 320.31875 200.954447 
L 320.549606 204.245482 
L 321.011317 206.197051 
L 321.242172 209.228577 
L 321.703883 218.801363 
L 321.934738 217.409284 
L 322.627305 202.155765 
L 322.85816 200.46306 
L 323.089016 200.455299 
L 323.319871 201.829796 
L 324.243293 210.754424 
L 324.474148 210.990343 
L 324.935859 209.889486 
L 325.39757 208.983099 
L 325.628425 208.948011 
L 325.859281 209.357212 
L 326.090136 210.364582 
L 326.551847 214.464014 
L 327.013558 219.434328 
L 327.244413 220.377099 
L 327.475269 219.949291 
L 327.706124 219.123809 
L 327.93698 219.061811 
L 328.167835 220.66121 
L 328.398691 224.716395 
L 328.860402 240.053608 
L 329.091257 234.300881 
L 329.552968 210.557551 
L 330.014679 196.973186 
L 330.47639 189.400885 
L 330.9381 185.527905 
L 331.168956 184.610358 
L 331.399811 184.243455 
L 331.630667 184.3487 
L 331.861522 184.849585 
L 332.323233 186.674496 
L 332.784944 188.703581 
L 333.015799 189.331579 
L 333.246655 189.456801 
L 333.47751 189.004313 
L 333.939221 186.756633 
L 334.631787 183.046571 
L 334.862643 182.355526 
L 335.093498 182.061864 
L 335.324354 182.18214 
L 335.555209 182.704587 
L 336.01692 184.797398 
L 336.709486 189.6724 
L 338.325474 202.735425 
L 338.787185 204.26696 
L 339.248896 204.973967 
L 339.479752 205.192637 
L 339.710607 205.222256 
L 339.941463 204.932251 
L 340.403173 203.294779 
L 341.09574 200.224054 
L 341.557451 199.112382 
L 341.788306 198.937982 
L 342.019161 199.050941 
L 342.250017 199.473602 
L 342.711728 200.877433 
L 342.942583 201.129879 
L 343.173439 200.273621 
L 343.63515 194.834131 
L 344.327716 186.102241 
L 344.558571 184.597569 
L 344.789427 183.883914 
L 345.020282 183.85018 
L 345.481993 184.9937 
L 345.943704 186.202386 
L 346.405415 186.862814 
L 346.63627 186.992198 
L 346.867126 186.689923 
L 347.097981 185.604487 
L 348.021403 178.400848 
L 348.252258 178.754609 
L 348.483114 180.858729 
L 349.17568 192.405932 
L 349.406535 188.502215 
L 349.868246 179.012313 
L 350.099102 178.811932 
L 350.329957 183.626586 
L 350.791668 210.593126 
L 351.253379 163.562955 
L 351.71509 148.668059 
L 351.945945 147.300777 
L 352.176801 151.253658 
L 352.638512 177.958641 
L 352.869367 138.199934 
L 353.331078 105.285535 
L 353.792789 86.176133 
L 354.485355 67.834619 
L 354.947066 59.913415 
L 355.408777 54.62179 
L 355.870488 51.638803 
L 356.101343 50.959835 
L 356.332199 50.809511 
L 356.563054 51.186204 
L 356.793909 52.094583 
L 357.25562 55.558944 
L 357.717331 61.390796 
L 358.179042 69.965677 
L 358.640753 82.018076 
L 359.102464 99.178609 
L 359.564175 126.536014 
L 359.79503 151.254065 
L 360.025886 195.689367 
L 360.256741 157.760999 
L 360.487596 149.160727 
L 360.718452 148.332163 
L 360.949307 152.17463 
L 361.180163 160.419112 
L 361.641874 192.202413 
L 362.33444 167.070284 
L 362.565295 165.695731 
L 362.796151 167.215075 
L 363.027006 171.219834 
L 363.950428 195.653648 
L 364.412139 192.625482 
L 364.642994 192.787696 
L 365.104705 196.131575 
L 365.335561 196.539871 
L 365.566416 195.014792 
L 366.028127 190.782805 
L 366.258982 190.007457 
L 366.489838 190.539541 
L 366.720693 192.367316 
L 367.41326 201.597594 
L 367.644115 201.732152 
L 367.87497 198.682344 
L 368.798392 180.921039 
L 369.260103 175.609473 
L 369.721814 173.084612 
L 369.952669 172.815591 
L 370.183525 173.172711 
L 370.41438 174.119941 
L 370.876091 177.577626 
L 372.261224 191.619695 
L 372.492079 192.556155 
L 372.722935 192.89069 
L 372.95379 192.801697 
L 373.646356 191.883882 
L 373.877212 191.76811 
L 374.108067 191.836321 
L 374.338923 192.094568 
L 374.800634 193.084234 
L 375.262344 194.21821 
L 375.4932 194.510993 
L 375.724055 194.416643 
L 375.954911 193.853693 
L 376.416622 191.561144 
L 377.340043 186.360294 
L 378.494321 181.873057 
L 379.186887 179.611599 
L 379.417742 179.202042 
L 379.648598 179.07424 
L 379.879453 179.278132 
L 380.110309 179.849792 
L 380.572019 182.157219 
L 381.726297 190.989734 
L 381.957152 191.372008 
L 382.188007 190.83471 
L 383.342285 184.999724 
L 383.57314 184.759838 
L 383.803996 184.972155 
L 384.034851 185.59489 
L 385.189128 190.044395 
L 385.419984 189.843672 
L 385.881694 188.008548 
L 386.574261 184.540119 
L 387.035972 183.277358 
L 387.266827 183.10984 
L 387.497683 183.270546 
L 387.728538 183.765269 
L 388.190249 185.765717 
L 388.65196 189.085468 
L 390.037092 201.618336 
L 390.267948 202.257417 
L 390.498803 202.178864 
L 390.960514 200.710772 
L 391.65308 198.334764 
L 392.114791 197.680018 
L 392.345647 197.631845 
L 393.269068 198.009027 
L 393.499924 197.87662 
L 393.730779 197.53414 
L 394.19249 196.209965 
L 396.039334 189.303049 
L 397.424466 185.890909 
L 397.886177 185.005436 
L 398.347888 184.565823 
L 398.578744 184.564741 
L 398.809599 184.715968 
L 399.27131 185.409886 
L 400.194732 187.062466 
L 400.425587 187.175487 
L 400.656442 187.095035 
L 401.118153 186.472743 
L 401.81072 185.436107 
L 402.041575 185.352366 
L 402.272431 185.481764 
L 402.503286 185.846545 
L 402.964997 187.281559 
L 403.657563 190.768182 
L 405.735262 203.33359 
L 408.043816 220.146056 
L 408.274672 220.314675 
L 408.505527 218.633096 
L 408.967238 210.871485 
L 409.659805 198.630305 
L 410.121515 193.240504 
L 410.583226 190.322827 
L 410.814082 189.75935 
L 411.044937 189.754461 
L 411.275793 190.241445 
L 411.968359 192.658562 
L 412.199214 192.497437 
L 412.43007 191.235861 
L 412.891781 186.144404 
L 413.584347 178.034334 
L 414.046058 174.556232 
L 414.507769 172.792855 
L 414.738624 172.471812 
L 414.96948 172.463413 
L 415.200335 172.716214 
L 415.662046 173.793 
L 417.739745 180.079151 
L 418.432311 181.036028 
L 418.894022 181.695294 
L 419.586588 183.231042 
L 420.279155 184.956724 
L 420.740865 185.569501 
L 420.971721 185.600585 
L 421.202576 185.43987 
L 421.664287 184.646639 
L 422.356854 183.120274 
L 422.587709 182.816945 
L 422.818564 182.742577 
L 423.04942 182.963168 
L 423.280275 183.534574 
L 423.741986 185.896455 
L 424.203697 190.027859 
L 424.896263 199.167749 
L 425.819685 211.485229 
L 426.281396 214.698545 
L 426.512251 215.365528 
L 426.743107 215.407352 
L 426.973962 214.874356 
L 427.435673 212.687247 
L 428.128239 209.450308 
L 428.58995 208.454501 
L 429.051661 208.159478 
L 429.513372 207.89287 
L 429.975083 207.089991 
L 430.436794 205.5791 
L 431.821926 199.935524 
L 432.283637 199.04232 
L 432.976204 198.301671 
L 433.437915 197.260512 
L 434.592192 193.579791 
L 434.823047 193.33682 
L 435.053903 193.34539 
L 435.515613 193.904565 
L 435.977324 194.537808 
L 436.20818 194.650274 
L 436.669891 194.441685 
L 437.131602 194.256035 
L 437.362457 194.419438 
L 437.824168 195.373751 
L 438.285879 196.42774 
L 438.516734 196.463158 
L 438.74759 195.928458 
L 439.2093 193.363874 
L 439.901867 189.107052 
L 440.132722 188.300828 
L 440.363578 187.93197 
L 440.594433 188.017507 
L 440.825288 188.548947 
L 441.286999 190.806507 
L 442.210421 197.908544 
L 443.364698 207.038683 
L 444.28812 217.012119 
L 444.518975 217.305252 
L 444.749831 215.54844 
L 445.904108 200.343469 
L 446.365819 197.234461 
L 446.82753 195.840035 
L 447.058385 195.64467 
L 447.289241 195.708756 
L 447.750952 196.393137 
L 448.905229 199.216936 
L 450.059506 201.833417 
L 450.290361 201.868025 
L 450.521217 201.433833 
L 450.752072 200.44071 
L 451.213783 196.984857 
L 452.598916 184.832069 
L 453.753193 177.435999 
L 454.676615 172.88218 
L 455.138326 171.439926 
L 455.369181 171.0194 
L 455.600036 170.838662 
L 455.830892 170.930705 
L 456.061747 171.332028 
L 456.292603 172.083029 
L 456.754314 174.81532 
L 457.216025 179.509771 
L 457.908591 190.413313 
L 458.370302 196.954181 
L 458.601157 197.649116 
L 458.832013 196.427828 
L 459.524579 190.285781 
L 459.755434 189.14062 
L 459.98629 188.647294 
L 460.217145 188.767588 
L 460.448001 189.418685 
L 461.371422 193.786424 
L 461.602278 194.040865 
L 461.833133 193.618091 
L 462.294844 191.303009 
L 463.218266 185.902297 
L 463.910832 183.020411 
L 464.603399 180.992021 
L 465.065109 180.295012 
L 465.295965 180.250944 
L 465.52682 180.472329 
L 465.757676 181.012125 
L 466.219387 183.291773 
L 466.681097 187.696748 
L 467.142808 195.192656 
L 467.604519 207.507274 
L 468.06623 223.781027 
L 468.297086 223.951595 
L 468.989652 204.588011 
L 469.451363 197.541488 
L 469.913074 193.827444 
L 470.374784 191.915832 
L 470.836495 190.948183 
L 471.298206 190.607284 
L 471.759917 190.80495 
L 472.221628 191.075105 
L 472.452483 190.875962 
L 472.683339 190.222116 
L 473.14505 187.367241 
L 474.068471 179.846094 
L 474.530182 177.769771 
L 474.761038 177.422071 
L 474.991893 177.571573 
L 475.222749 178.233187 
L 475.684459 181.105751 
L 476.377026 188.627352 
L 476.838737 193.314837 
L 477.069592 194.224376 
L 477.300448 193.844778 
L 477.762158 190.554513 
L 478.68558 183.059978 
L 479.839857 175.959542 
L 480.301568 173.911435 
L 480.763279 172.810289 
L 480.994135 172.706309 
L 481.22499 172.927504 
L 481.455845 173.478669 
L 481.917556 175.516394 
L 482.610123 180.260821 
L 484.226111 191.958943 
L 484.687822 194.655637 
L 484.918677 195.260055 
L 485.149532 195.111098 
L 485.380388 194.248733 
L 486.534665 188.065779 
L 486.76552 187.588149 
L 486.996376 187.410121 
L 487.227231 187.466695 
L 487.688942 187.969567 
L 488.612364 189.081658 
L 489.074075 189.499995 
L 489.30493 189.604865 
L 489.535786 189.555986 
L 489.766641 189.286186 
L 490.228352 187.985911 
L 491.84434 181.708625 
L 492.536906 180.445918 
L 493.229473 179.69056 
L 494.152894 179.05867 
L 494.845461 178.850845 
L 495.307172 179.062709 
L 495.768883 179.847709 
L 496.230593 181.466677 
L 496.692304 184.100614 
L 497.384871 189.860271 
L 498.077437 195.441306 
L 498.308292 196.152799 
L 498.539148 195.934052 
L 498.770003 194.869112 
L 500.155136 185.095543 
L 500.616847 183.770603 
L 500.847702 183.599475 
L 501.078558 183.738939 
L 501.309413 184.167658 
L 501.771124 185.77021 
L 503.387112 192.973037 
L 503.617967 193.129333 
L 503.848823 192.905605 
L 504.310534 191.522622 
L 505.464811 187.137124 
L 505.926522 186.44885 
L 506.619088 186.025572 
L 506.849943 185.59163 
L 507.311654 183.711211 
L 508.465932 176.940162 
L 508.696787 176.265082 
L 508.927642 176.021503 
L 509.158498 176.260045 
L 509.389353 177.026004 
L 509.851064 180.332642 
L 510.312775 186.422234 
L 510.774486 195.946491 
L 511.467052 212.234811 
L 511.697908 211.618439 
L 513.08304 189.380703 
L 513.775607 183.358639 
L 514.237317 180.577354 
L 514.699028 178.915061 
L 514.929884 178.556986 
L 515.160739 178.533465 
L 515.391595 178.850164 
L 515.853306 180.484345 
L 516.315016 183.31128 
L 517.469294 192.94798 
L 518.16186 199.468385 
L 519.085282 211.277052 
L 519.316137 211.674693 
L 519.546993 208.979475 
L 520.70127 187.024888 
L 521.162981 182.186579 
L 521.624691 179.418326 
L 522.086402 178.223955 
L 522.317258 178.074006 
L 522.548113 178.152714 
L 523.009824 178.828614 
L 523.471535 180.032049 
L 523.933246 181.743716 
L 524.625812 185.398741 
L 525.549234 190.820949 
L 526.010945 192.18179 
L 526.472656 192.501232 
L 526.934366 192.739347 
L 527.165222 193.126368 
L 527.626933 194.762523 
L 528.088644 197.616946 
L 529.242921 206.455132 
L 529.473776 207.246007 
L 529.704632 207.290026 
L 529.935487 206.546553 
L 530.397198 203.116186 
L 532.013186 187.632142 
L 532.474897 185.151919 
L 532.936608 183.882176 
L 533.167463 183.679724 
L 533.398319 183.739731 
L 533.629174 184.035692 
L 534.090885 185.219244 
L 534.552596 187.046472 
L 535.014307 189.539232 
L 535.476018 193.016222 
L 535.937729 197.918282 
L 536.86115 208.679599 
L 537.092006 208.780169 
L 537.322861 207.336798 
L 538.246283 199.283437 
L 538.477138 198.363626 
L 538.707994 197.97451 
L 538.938849 198.051897 
L 539.169705 198.505877 
L 540.323982 202.110955 
L 540.554837 202.211739 
L 540.785693 201.891102 
L 541.016548 201.128117 
L 541.478259 198.47208 
L 542.401681 192.225591 
L 542.863392 190.523483 
L 543.094247 190.189652 
L 543.325103 190.154427 
L 544.017669 190.708625 
L 544.248524 190.609259 
L 544.47938 190.196222 
L 545.171946 187.91798 
L 545.171946 187.91798 
" clip-path="url(#p7d0d9d0b9b)" style="fill: none; stroke: #1f77b4; stroke-linecap: square"/>
   </g>
   <g id="patch_3">
    <path d="M 48.982813 250.421875 
L 48.982813 22.32 
" style="fill: none; stroke: #000000; stroke-width: 0.8; stroke-linejoin: miter; stroke-linecap: square"/>
   </g>
   <g id="patch_4">
    <path d="M 568.8 250.421875 
L 568.8 22.32 
" style="fill: none; stroke: #000000; stroke-width: 0.8; stroke-linejoin: miter; stroke-linecap: square"/>
   </g>
   <g id="patch_5">
    <path d="M 48.982813 250.421875 
L 568.8 250.421875 
" style="fill: none; stroke: #000000; stroke-width: 0.8; stroke-linejoin: miter; stroke-linecap: square"/>
   </g>
   <g id="patch_6">
    <path d="M 48.982813 22.32 
L 568.8 22.32 
" style="fill: none; stroke: #000000; stroke-width: 0.8; stroke-linejoin: miter; stroke-linecap: square"/>
   </g>
   <g id="text_15">
    <!-- Periodogram of $x_c[n]$ -->
    <g transform="translate(246.371406 16.32) scale(0.12 -0.12)">
     <defs>
      <path id="DejaVuSans-67" d="M 2906 1791 
Q 2906 2416 2648 2759 
Q 2391 3103 1925 3103 
Q 1463 3103 1205 2759 
Q 947 2416 947 1791 
Q 947 1169 1205 825 
Q 1463 481 1925 481 
Q 2391 481 2648 825 
Q 2906 1169 2906 1791 
z
M 3481 434 
Q 3481 -459 3084 -895 
Q 2688 -1331 1869 -1331 
Q 1566 -1331 1297 -1286 
Q 1028 -1241 775 -1147 
L 775 -588 
Q 1028 -725 1275 -790 
Q 1522 -856 1778 -856 
Q 2344 -856 2625 -561 
Q 2906 -266 2906 331 
L 2906 616 
Q 2728 306 2450 153 
Q 2172 0 1784 0 
Q 1141 0 747 490 
Q 353 981 353 1791 
Q 353 2603 747 3093 
Q 1141 3584 1784 3584 
Q 2172 3584 2450 3431 
Q 2728 3278 2906 2969 
L 2906 3500 
L 3481 3500 
L 3481 434 
z
" transform="scale(0.015625)"/>
      <path id="DejaVuSans-61" d="M 2194 1759 
Q 1497 1759 1228 1600 
Q 959 1441 959 1056 
Q 959 750 1161 570 
Q 1363 391 1709 391 
Q 2188 391 2477 730 
Q 2766 1069 2766 1631 
L 2766 1759 
L 2194 1759 
z
M 3341 1997 
L 3341 0 
L 2766 0 
L 2766 531 
Q 2569 213 2275 61 
Q 1981 -91 1556 -91 
Q 1019 -91 701 211 
Q 384 513 384 1019 
Q 384 1609 779 1909 
Q 1175 2209 1959 2209 
L 2766 2209 
L 2766 2266 
Q 2766 2663 2505 2880 
Q 2244 3097 1772 3097 
Q 1472 3097 1187 3025 
Q 903 2953 641 2809 
L 641 3341 
Q 956 3463 1253 3523 
Q 1550 3584 1831 3584 
Q 2591 3584 2966 3190 
Q 3341 2797 3341 1997 
z
" transform="scale(0.015625)"/>
      <path id="DejaVuSans-6d" d="M 3328 2828 
Q 3544 3216 3844 3400 
Q 4144 3584 4550 3584 
Q 5097 3584 5394 3201 
Q 5691 2819 5691 2113 
L 5691 0 
L 5113 0 
L 5113 2094 
Q 5113 2597 4934 2840 
Q 4756 3084 4391 3084 
Q 3944 3084 3684 2787 
Q 3425 2491 3425 1978 
L 3425 0 
L 2847 0 
L 2847 2094 
Q 2847 2600 2669 2842 
Q 2491 3084 2119 3084 
Q 1678 3084 1418 2786 
Q 1159 2488 1159 1978 
L 1159 0 
L 581 0 
L 581 3500 
L 1159 3500 
L 1159 2956 
Q 1356 3278 1631 3431 
Q 1906 3584 2284 3584 
Q 2666 3584 2933 3390 
Q 3200 3197 3328 2828 
z
" transform="scale(0.015625)"/>
      <path id="DejaVuSans-66" d="M 2375 4863 
L 2375 4384 
L 1825 4384 
Q 1516 4384 1395 4259 
Q 1275 4134 1275 3809 
L 1275 3500 
L 2222 3500 
L 2222 3053 
L 1275 3053 
L 1275 0 
L 697 0 
L 697 3053 
L 147 3053 
L 147 3500 
L 697 3500 
L 697 3744 
Q 697 4328 969 4595 
Q 1241 4863 1831 4863 
L 2375 4863 
z
" transform="scale(0.015625)"/>
      <path id="DejaVuSans-Oblique-78" d="M 3841 3500 
L 2234 1784 
L 3219 0 
L 2559 0 
L 1819 1388 
L 531 0 
L -166 0 
L 1556 1844 
L 641 3500 
L 1300 3500 
L 1972 2234 
L 3144 3500 
L 3841 3500 
z
" transform="scale(0.015625)"/>
      <path id="DejaVuSans-Oblique-63" d="M 3431 3366 
L 3316 2797 
Q 3109 2947 2876 3022 
Q 2644 3097 2394 3097 
Q 2119 3097 1870 3000 
Q 1622 2903 1453 2725 
Q 1184 2453 1037 2087 
Q 891 1722 891 1331 
Q 891 859 1127 628 
Q 1363 397 1844 397 
Q 2081 397 2348 469 
Q 2616 541 2906 684 
L 2797 116 
Q 2547 13 2283 -39 
Q 2019 -91 1741 -91 
Q 1044 -91 669 257 
Q 294 606 294 1253 
Q 294 1797 489 2255 
Q 684 2713 1069 3078 
Q 1331 3328 1684 3456 
Q 2038 3584 2456 3584 
Q 2700 3584 2940 3529 
Q 3181 3475 3431 3366 
z
" transform="scale(0.015625)"/>
      <path id="DejaVuSans-5b" d="M 550 4863 
L 1875 4863 
L 1875 4416 
L 1125 4416 
L 1125 -397 
L 1875 -397 
L 1875 -844 
L 550 -844 
L 550 4863 
z
" transform="scale(0.015625)"/>
      <path id="DejaVuSans-Oblique-6e" d="M 3566 2113 
L 3156 0 
L 2578 0 
L 2988 2091 
Q 3016 2238 3031 2350 
Q 3047 2463 3047 2528 
Q 3047 2791 2881 2937 
Q 2716 3084 2419 3084 
Q 1956 3084 1622 2776 
Q 1288 2469 1184 1941 
L 800 0 
L 225 0 
L 903 3500 
L 1478 3500 
L 1363 2950 
Q 1603 3253 1940 3418 
Q 2278 3584 2650 3584 
Q 3113 3584 3367 3334 
Q 3622 3084 3622 2631 
Q 3622 2519 3608 2391 
Q 3594 2263 3566 2113 
z
" transform="scale(0.015625)"/>
      <path id="DejaVuSans-5d" d="M 1947 4863 
L 1947 -844 
L 622 -844 
L 622 -397 
L 1369 -397 
L 1369 4416 
L 622 4416 
L 622 4863 
L 1947 4863 
z
" transform="scale(0.015625)"/>
     </defs>
     <use xlink:href="#DejaVuSans-50" transform="translate(0 0.015625)"/>
     <use xlink:href="#DejaVuSans-65" transform="translate(60.302734 0.015625)"/>
     <use xlink:href="#DejaVuSans-72" transform="translate(121.826172 0.015625)"/>
     <use xlink:href="#DejaVuSans-69" transform="translate(162.939453 0.015625)"/>
     <use xlink:href="#DejaVuSans-6f" transform="translate(190.722656 0.015625)"/>
     <use xlink:href="#DejaVuSans-64" transform="translate(251.904297 0.015625)"/>
     <use xlink:href="#DejaVuSans-6f" transform="translate(315.380859 0.015625)"/>
     <use xlink:href="#DejaVuSans-67" transform="translate(376.5625 0.015625)"/>
     <use xlink:href="#DejaVuSans-72" transform="translate(440.039062 0.015625)"/>
     <use xlink:href="#DejaVuSans-61" transform="translate(481.152344 0.015625)"/>
     <use xlink:href="#DejaVuSans-6d" transform="translate(542.431641 0.015625)"/>
     <use xlink:href="#DejaVuSans-20" transform="translate(639.84375 0.015625)"/>
     <use xlink:href="#DejaVuSans-6f" transform="translate(671.630859 0.015625)"/>
     <use xlink:href="#DejaVuSans-66" transform="translate(732.8125 0.015625)"/>
     <use xlink:href="#DejaVuSans-20" transform="translate(768.017578 0.015625)"/>
     <use xlink:href="#DejaVuSans-Oblique-78" transform="translate(799.804688 0.015625)"/>
     <use xlink:href="#DejaVuSans-Oblique-63" transform="translate(858.984375 -16.390625) scale(0.7)"/>
     <use xlink:href="#DejaVuSans-5b" transform="translate(900.205078 0.015625)"/>
     <use xlink:href="#DejaVuSans-Oblique-6e" transform="translate(939.21875 0.015625)"/>
     <use xlink:href="#DejaVuSans-5d" transform="translate(1002.597656 0.015625)"/>
    </g>
   </g>
  </g>
 </g>
 <defs>
  <clipPath id="p7d0d9d0b9b">
   <rect x="48.982813" y="22.32" width="519.817188" height="228.101875"/>
  </clipPath>
 </defs>
</svg>
