<?xml version="1.0" encoding="utf-8" standalone="no"?>
<!DOCTYPE svg PUBLIC "-//W3C//DTD SVG 1.1//EN"
  "http://www.w3.org/Graphics/SVG/1.1/DTD/svg11.dtd">
<svg xmlns:xlink="http://www.w3.org/1999/xlink" width="576pt" height="288pt" viewBox="0 0 576 288" xmlns="http://www.w3.org/2000/svg" version="1.1">
 <metadata>
  <rdf:RDF xmlns:dc="http://purl.org/dc/elements/1.1/" xmlns:cc="http://creativecommons.org/ns#" xmlns:rdf="http://www.w3.org/1999/02/22-rdf-syntax-ns#">
   <cc:Work>
    <dc:type rdf:resource="http://purl.org/dc/dcmitype/StillImage"/>
    <dc:date>2025-05-12T21:34:18.361989</dc:date>
    <dc:format>image/svg+xml</dc:format>
    <dc:creator>
     <cc:Agent>
      <dc:title>Matplotlib v3.10.3, https://matplotlib.org/</dc:title>
     </cc:Agent>
    </dc:creator>
   </cc:Work>
  </rdf:RDF>
 </metadata>
 <defs>
  <style type="text/css">*{stroke-linejoin: round; stroke-linecap: butt}</style>
 </defs>
 <g id="figure_1">
  <g id="patch_1">
   <path d="M 0 288 
L 576 288 
L 576 0 
L 0 0 
z
" style="fill: #ffffff"/>
  </g>
  <g id="axes_1">
   <g id="patch_2">
    <path d="M 50.804688 250.421875 
L 568.8 250.421875 
L 568.8 24.12 
L 50.804688 24.12 
z
" style="fill: #ffffff"/>
   </g>
   <g id="matplotlib.axis_1">
    <g id="xtick_1">
     <g id="line2d_1">
      <path d="M 74.349929 250.421875 
L 74.349929 24.12 
" clip-path="url(#p838ffca285)" style="fill: none; stroke-dasharray: 2.96,1.28; stroke-dashoffset: 0; stroke: #b0b0b0; stroke-opacity: 0.8; stroke-width: 0.8"/>
     </g>
     <g id="line2d_2">
      <defs>
       <path id="m210890ee7b" d="M 0 0 
L 0 3.5 
" style="stroke: #000000; stroke-width: 0.8"/>
      </defs>
      <g>
       <use xlink:href="#m210890ee7b" x="74.349929" y="250.421875" style="stroke: #000000; stroke-width: 0.8"/>
      </g>
     </g>
     <g id="text_1">
      <!-- 0 -->
      <g transform="translate(71.168679 265.020312) scale(0.1 -0.1)">
       <defs>
        <path id="DejaVuSans-30" d="M 2034 4250 
Q 1547 4250 1301 3770 
Q 1056 3291 1056 2328 
Q 1056 1369 1301 889 
Q 1547 409 2034 409 
Q 2525 409 2770 889 
Q 3016 1369 3016 2328 
Q 3016 3291 2770 3770 
Q 2525 4250 2034 4250 
z
M 2034 4750 
Q 2819 4750 3233 4129 
Q 3647 3509 3647 2328 
Q 3647 1150 3233 529 
Q 2819 -91 2034 -91 
Q 1250 -91 836 529 
Q 422 1150 422 2328 
Q 422 3509 836 4129 
Q 1250 4750 2034 4750 
z
" transform="scale(0.015625)"/>
       </defs>
       <use xlink:href="#DejaVuSans-30"/>
      </g>
     </g>
    </g>
    <g id="xtick_2">
     <g id="line2d_3">
      <path d="M 168.622958 250.421875 
L 168.622958 24.12 
" clip-path="url(#p838ffca285)" style="fill: none; stroke-dasharray: 2.96,1.28; stroke-dashoffset: 0; stroke: #b0b0b0; stroke-opacity: 0.8; stroke-width: 0.8"/>
     </g>
     <g id="line2d_4">
      <g>
       <use xlink:href="#m210890ee7b" x="168.622958" y="250.421875" style="stroke: #000000; stroke-width: 0.8"/>
      </g>
     </g>
     <g id="text_2">
      <!-- 0.1 -->
      <g transform="translate(160.671396 265.020312) scale(0.1 -0.1)">
       <defs>
        <path id="DejaVuSans-2e" d="M 684 794 
L 1344 794 
L 1344 0 
L 684 0 
L 684 794 
z
" transform="scale(0.015625)"/>
        <path id="DejaVuSans-31" d="M 794 531 
L 1825 531 
L 1825 4091 
L 703 3866 
L 703 4441 
L 1819 4666 
L 2450 4666 
L 2450 531 
L 3481 531 
L 3481 0 
L 794 0 
L 794 531 
z
" transform="scale(0.015625)"/>
       </defs>
       <use xlink:href="#DejaVuSans-30"/>
       <use xlink:href="#DejaVuSans-2e" transform="translate(63.623047 0)"/>
       <use xlink:href="#DejaVuSans-31" transform="translate(95.410156 0)"/>
      </g>
     </g>
    </g>
    <g id="xtick_3">
     <g id="line2d_5">
      <path d="M 262.895988 250.421875 
L 262.895988 24.12 
" clip-path="url(#p838ffca285)" style="fill: none; stroke-dasharray: 2.96,1.28; stroke-dashoffset: 0; stroke: #b0b0b0; stroke-opacity: 0.8; stroke-width: 0.8"/>
     </g>
     <g id="line2d_6">
      <g>
       <use xlink:href="#m210890ee7b" x="262.895988" y="250.421875" style="stroke: #000000; stroke-width: 0.8"/>
      </g>
     </g>
     <g id="text_3">
      <!-- 0.2 -->
      <g transform="translate(254.944425 265.020312) scale(0.1 -0.1)">
       <defs>
        <path id="DejaVuSans-32" d="M 1228 531 
L 3431 531 
L 3431 0 
L 469 0 
L 469 531 
Q 828 903 1448 1529 
Q 2069 2156 2228 2338 
Q 2531 2678 2651 2914 
Q 2772 3150 2772 3378 
Q 2772 3750 2511 3984 
Q 2250 4219 1831 4219 
Q 1534 4219 1204 4116 
Q 875 4013 500 3803 
L 500 4441 
Q 881 4594 1212 4672 
Q 1544 4750 1819 4750 
Q 2544 4750 2975 4387 
Q 3406 4025 3406 3419 
Q 3406 3131 3298 2873 
Q 3191 2616 2906 2266 
Q 2828 2175 2409 1742 
Q 1991 1309 1228 531 
z
" transform="scale(0.015625)"/>
       </defs>
       <use xlink:href="#DejaVuSans-30"/>
       <use xlink:href="#DejaVuSans-2e" transform="translate(63.623047 0)"/>
       <use xlink:href="#DejaVuSans-32" transform="translate(95.410156 0)"/>
      </g>
     </g>
    </g>
    <g id="xtick_4">
     <g id="line2d_7">
      <path d="M 357.169017 250.421875 
L 357.169017 24.12 
" clip-path="url(#p838ffca285)" style="fill: none; stroke-dasharray: 2.96,1.28; stroke-dashoffset: 0; stroke: #b0b0b0; stroke-opacity: 0.8; stroke-width: 0.8"/>
     </g>
     <g id="line2d_8">
      <g>
       <use xlink:href="#m210890ee7b" x="357.169017" y="250.421875" style="stroke: #000000; stroke-width: 0.8"/>
      </g>
     </g>
     <g id="text_4">
      <!-- 0.3 -->
      <g transform="translate(349.217455 265.020312) scale(0.1 -0.1)">
       <defs>
        <path id="DejaVuSans-33" d="M 2597 2516 
Q 3050 2419 3304 2112 
Q 3559 1806 3559 1356 
Q 3559 666 3084 287 
Q 2609 -91 1734 -91 
Q 1441 -91 1130 -33 
Q 819 25 488 141 
L 488 750 
Q 750 597 1062 519 
Q 1375 441 1716 441 
Q 2309 441 2620 675 
Q 2931 909 2931 1356 
Q 2931 1769 2642 2001 
Q 2353 2234 1838 2234 
L 1294 2234 
L 1294 2753 
L 1863 2753 
Q 2328 2753 2575 2939 
Q 2822 3125 2822 3475 
Q 2822 3834 2567 4026 
Q 2313 4219 1838 4219 
Q 1578 4219 1281 4162 
Q 984 4106 628 3988 
L 628 4550 
Q 988 4650 1302 4700 
Q 1616 4750 1894 4750 
Q 2613 4750 3031 4423 
Q 3450 4097 3450 3541 
Q 3450 3153 3228 2886 
Q 3006 2619 2597 2516 
z
" transform="scale(0.015625)"/>
       </defs>
       <use xlink:href="#DejaVuSans-30"/>
       <use xlink:href="#DejaVuSans-2e" transform="translate(63.623047 0)"/>
       <use xlink:href="#DejaVuSans-33" transform="translate(95.410156 0)"/>
      </g>
     </g>
    </g>
    <g id="xtick_5">
     <g id="line2d_9">
      <path d="M 451.442047 250.421875 
L 451.442047 24.12 
" clip-path="url(#p838ffca285)" style="fill: none; stroke-dasharray: 2.96,1.28; stroke-dashoffset: 0; stroke: #b0b0b0; stroke-opacity: 0.8; stroke-width: 0.8"/>
     </g>
     <g id="line2d_10">
      <g>
       <use xlink:href="#m210890ee7b" x="451.442047" y="250.421875" style="stroke: #000000; stroke-width: 0.8"/>
      </g>
     </g>
     <g id="text_5">
      <!-- 0.4 -->
      <g transform="translate(443.490484 265.020312) scale(0.1 -0.1)">
       <defs>
        <path id="DejaVuSans-34" d="M 2419 4116 
L 825 1625 
L 2419 1625 
L 2419 4116 
z
M 2253 4666 
L 3047 4666 
L 3047 1625 
L 3713 1625 
L 3713 1100 
L 3047 1100 
L 3047 0 
L 2419 0 
L 2419 1100 
L 313 1100 
L 313 1709 
L 2253 4666 
z
" transform="scale(0.015625)"/>
       </defs>
       <use xlink:href="#DejaVuSans-30"/>
       <use xlink:href="#DejaVuSans-2e" transform="translate(63.623047 0)"/>
       <use xlink:href="#DejaVuSans-34" transform="translate(95.410156 0)"/>
      </g>
     </g>
    </g>
    <g id="xtick_6">
     <g id="line2d_11">
      <path d="M 545.715076 250.421875 
L 545.715076 24.12 
" clip-path="url(#p838ffca285)" style="fill: none; stroke-dasharray: 2.96,1.28; stroke-dashoffset: 0; stroke: #b0b0b0; stroke-opacity: 0.8; stroke-width: 0.8"/>
     </g>
     <g id="line2d_12">
      <g>
       <use xlink:href="#m210890ee7b" x="545.715076" y="250.421875" style="stroke: #000000; stroke-width: 0.8"/>
      </g>
     </g>
     <g id="text_6">
      <!-- 0.5 -->
      <g transform="translate(537.763514 265.020312) scale(0.1 -0.1)">
       <defs>
        <path id="DejaVuSans-35" d="M 691 4666 
L 3169 4666 
L 3169 4134 
L 1269 4134 
L 1269 2991 
Q 1406 3038 1543 3061 
Q 1681 3084 1819 3084 
Q 2600 3084 3056 2656 
Q 3513 2228 3513 1497 
Q 3513 744 3044 326 
Q 2575 -91 1722 -91 
Q 1428 -91 1123 -41 
Q 819 9 494 109 
L 494 744 
Q 775 591 1075 516 
Q 1375 441 1709 441 
Q 2250 441 2565 725 
Q 2881 1009 2881 1497 
Q 2881 1984 2565 2268 
Q 2250 2553 1709 2553 
Q 1456 2553 1204 2497 
Q 953 2441 691 2322 
L 691 4666 
z
" transform="scale(0.015625)"/>
       </defs>
       <use xlink:href="#DejaVuSans-30"/>
       <use xlink:href="#DejaVuSans-2e" transform="translate(63.623047 0)"/>
       <use xlink:href="#DejaVuSans-35" transform="translate(95.410156 0)"/>
      </g>
     </g>
    </g>
    <g id="text_7">
     <!-- Normalized frequency, $f/f_s$ -->
     <g transform="translate(244.202344 278.7) scale(0.1 -0.1)">
      <defs>
       <path id="DejaVuSans-4e" d="M 628 4666 
L 1478 4666 
L 3547 763 
L 3547 4666 
L 4159 4666 
L 4159 0 
L 3309 0 
L 1241 3903 
L 1241 0 
L 628 0 
L 628 4666 
z
" transform="scale(0.015625)"/>
       <path id="DejaVuSans-6f" d="M 1959 3097 
Q 1497 3097 1228 2736 
Q 959 2375 959 1747 
Q 959 1119 1226 758 
Q 1494 397 1959 397 
Q 2419 397 2687 759 
Q 2956 1122 2956 1747 
Q 2956 2369 2687 2733 
Q 2419 3097 1959 3097 
z
M 1959 3584 
Q 2709 3584 3137 3096 
Q 3566 2609 3566 1747 
Q 3566 888 3137 398 
Q 2709 -91 1959 -91 
Q 1206 -91 779 398 
Q 353 888 353 1747 
Q 353 2609 779 3096 
Q 1206 3584 1959 3584 
z
" transform="scale(0.015625)"/>
       <path id="DejaVuSans-72" d="M 2631 2963 
Q 2534 3019 2420 3045 
Q 2306 3072 2169 3072 
Q 1681 3072 1420 2755 
Q 1159 2438 1159 1844 
L 1159 0 
L 581 0 
L 581 3500 
L 1159 3500 
L 1159 2956 
Q 1341 3275 1631 3429 
Q 1922 3584 2338 3584 
Q 2397 3584 2469 3576 
Q 2541 3569 2628 3553 
L 2631 2963 
z
" transform="scale(0.015625)"/>
       <path id="DejaVuSans-6d" d="M 3328 2828 
Q 3544 3216 3844 3400 
Q 4144 3584 4550 3584 
Q 5097 3584 5394 3201 
Q 5691 2819 5691 2113 
L 5691 0 
L 5113 0 
L 5113 2094 
Q 5113 2597 4934 2840 
Q 4756 3084 4391 3084 
Q 3944 3084 3684 2787 
Q 3425 2491 3425 1978 
L 3425 0 
L 2847 0 
L 2847 2094 
Q 2847 2600 2669 2842 
Q 2491 3084 2119 3084 
Q 1678 3084 1418 2786 
Q 1159 2488 1159 1978 
L 1159 0 
L 581 0 
L 581 3500 
L 1159 3500 
L 1159 2956 
Q 1356 3278 1631 3431 
Q 1906 3584 2284 3584 
Q 2666 3584 2933 3390 
Q 3200 3197 3328 2828 
z
" transform="scale(0.015625)"/>
       <path id="DejaVuSans-61" d="M 2194 1759 
Q 1497 1759 1228 1600 
Q 959 1441 959 1056 
Q 959 750 1161 570 
Q 1363 391 1709 391 
Q 2188 391 2477 730 
Q 2766 1069 2766 1631 
L 2766 1759 
L 2194 1759 
z
M 3341 1997 
L 3341 0 
L 2766 0 
L 2766 531 
Q 2569 213 2275 61 
Q 1981 -91 1556 -91 
Q 1019 -91 701 211 
Q 384 513 384 1019 
Q 384 1609 779 1909 
Q 1175 2209 1959 2209 
L 2766 2209 
L 2766 2266 
Q 2766 2663 2505 2880 
Q 2244 3097 1772 3097 
Q 1472 3097 1187 3025 
Q 903 2953 641 2809 
L 641 3341 
Q 956 3463 1253 3523 
Q 1550 3584 1831 3584 
Q 2591 3584 2966 3190 
Q 3341 2797 3341 1997 
z
" transform="scale(0.015625)"/>
       <path id="DejaVuSans-6c" d="M 603 4863 
L 1178 4863 
L 1178 0 
L 603 0 
L 603 4863 
z
" transform="scale(0.015625)"/>
       <path id="DejaVuSans-69" d="M 603 3500 
L 1178 3500 
L 1178 0 
L 603 0 
L 603 3500 
z
M 603 4863 
L 1178 4863 
L 1178 4134 
L 603 4134 
L 603 4863 
z
" transform="scale(0.015625)"/>
       <path id="DejaVuSans-7a" d="M 353 3500 
L 3084 3500 
L 3084 2975 
L 922 459 
L 3084 459 
L 3084 0 
L 275 0 
L 275 525 
L 2438 3041 
L 353 3041 
L 353 3500 
z
" transform="scale(0.015625)"/>
       <path id="DejaVuSans-65" d="M 3597 1894 
L 3597 1613 
L 953 1613 
Q 991 1019 1311 708 
Q 1631 397 2203 397 
Q 2534 397 2845 478 
Q 3156 559 3463 722 
L 3463 178 
Q 3153 47 2828 -22 
Q 2503 -91 2169 -91 
Q 1331 -91 842 396 
Q 353 884 353 1716 
Q 353 2575 817 3079 
Q 1281 3584 2069 3584 
Q 2775 3584 3186 3129 
Q 3597 2675 3597 1894 
z
M 3022 2063 
Q 3016 2534 2758 2815 
Q 2500 3097 2075 3097 
Q 1594 3097 1305 2825 
Q 1016 2553 972 2059 
L 3022 2063 
z
" transform="scale(0.015625)"/>
       <path id="DejaVuSans-64" d="M 2906 2969 
L 2906 4863 
L 3481 4863 
L 3481 0 
L 2906 0 
L 2906 525 
Q 2725 213 2448 61 
Q 2172 -91 1784 -91 
Q 1150 -91 751 415 
Q 353 922 353 1747 
Q 353 2572 751 3078 
Q 1150 3584 1784 3584 
Q 2172 3584 2448 3432 
Q 2725 3281 2906 2969 
z
M 947 1747 
Q 947 1113 1208 752 
Q 1469 391 1925 391 
Q 2381 391 2643 752 
Q 2906 1113 2906 1747 
Q 2906 2381 2643 2742 
Q 2381 3103 1925 3103 
Q 1469 3103 1208 2742 
Q 947 2381 947 1747 
z
" transform="scale(0.015625)"/>
       <path id="DejaVuSans-20" transform="scale(0.015625)"/>
       <path id="DejaVuSans-66" d="M 2375 4863 
L 2375 4384 
L 1825 4384 
Q 1516 4384 1395 4259 
Q 1275 4134 1275 3809 
L 1275 3500 
L 2222 3500 
L 2222 3053 
L 1275 3053 
L 1275 0 
L 697 0 
L 697 3053 
L 147 3053 
L 147 3500 
L 697 3500 
L 697 3744 
Q 697 4328 969 4595 
Q 1241 4863 1831 4863 
L 2375 4863 
z
" transform="scale(0.015625)"/>
       <path id="DejaVuSans-71" d="M 947 1747 
Q 947 1113 1208 752 
Q 1469 391 1925 391 
Q 2381 391 2643 752 
Q 2906 1113 2906 1747 
Q 2906 2381 2643 2742 
Q 2381 3103 1925 3103 
Q 1469 3103 1208 2742 
Q 947 2381 947 1747 
z
M 2906 525 
Q 2725 213 2448 61 
Q 2172 -91 1784 -91 
Q 1150 -91 751 415 
Q 353 922 353 1747 
Q 353 2572 751 3078 
Q 1150 3584 1784 3584 
Q 2172 3584 2448 3432 
Q 2725 3281 2906 2969 
L 2906 3500 
L 3481 3500 
L 3481 -1331 
L 2906 -1331 
L 2906 525 
z
" transform="scale(0.015625)"/>
       <path id="DejaVuSans-75" d="M 544 1381 
L 544 3500 
L 1119 3500 
L 1119 1403 
Q 1119 906 1312 657 
Q 1506 409 1894 409 
Q 2359 409 2629 706 
Q 2900 1003 2900 1516 
L 2900 3500 
L 3475 3500 
L 3475 0 
L 2900 0 
L 2900 538 
Q 2691 219 2414 64 
Q 2138 -91 1772 -91 
Q 1169 -91 856 284 
Q 544 659 544 1381 
z
M 1991 3584 
L 1991 3584 
z
" transform="scale(0.015625)"/>
       <path id="DejaVuSans-6e" d="M 3513 2113 
L 3513 0 
L 2938 0 
L 2938 2094 
Q 2938 2591 2744 2837 
Q 2550 3084 2163 3084 
Q 1697 3084 1428 2787 
Q 1159 2491 1159 1978 
L 1159 0 
L 581 0 
L 581 3500 
L 1159 3500 
L 1159 2956 
Q 1366 3272 1645 3428 
Q 1925 3584 2291 3584 
Q 2894 3584 3203 3211 
Q 3513 2838 3513 2113 
z
" transform="scale(0.015625)"/>
       <path id="DejaVuSans-63" d="M 3122 3366 
L 3122 2828 
Q 2878 2963 2633 3030 
Q 2388 3097 2138 3097 
Q 1578 3097 1268 2742 
Q 959 2388 959 1747 
Q 959 1106 1268 751 
Q 1578 397 2138 397 
Q 2388 397 2633 464 
Q 2878 531 3122 666 
L 3122 134 
Q 2881 22 2623 -34 
Q 2366 -91 2075 -91 
Q 1284 -91 818 406 
Q 353 903 353 1747 
Q 353 2603 823 3093 
Q 1294 3584 2113 3584 
Q 2378 3584 2631 3529 
Q 2884 3475 3122 3366 
z
" transform="scale(0.015625)"/>
       <path id="DejaVuSans-79" d="M 2059 -325 
Q 1816 -950 1584 -1140 
Q 1353 -1331 966 -1331 
L 506 -1331 
L 506 -850 
L 844 -850 
Q 1081 -850 1212 -737 
Q 1344 -625 1503 -206 
L 1606 56 
L 191 3500 
L 800 3500 
L 1894 763 
L 2988 3500 
L 3597 3500 
L 2059 -325 
z
" transform="scale(0.015625)"/>
       <path id="DejaVuSans-2c" d="M 750 794 
L 1409 794 
L 1409 256 
L 897 -744 
L 494 -744 
L 750 256 
L 750 794 
z
" transform="scale(0.015625)"/>
       <path id="DejaVuSans-Oblique-66" d="M 3059 4863 
L 2969 4384 
L 2419 4384 
Q 2106 4384 1964 4261 
Q 1822 4138 1753 3809 
L 1691 3500 
L 2638 3500 
L 2553 3053 
L 1606 3053 
L 1013 0 
L 434 0 
L 1031 3053 
L 481 3053 
L 563 3500 
L 1113 3500 
L 1159 3744 
Q 1278 4363 1576 4613 
Q 1875 4863 2516 4863 
L 3059 4863 
z
" transform="scale(0.015625)"/>
       <path id="DejaVuSans-2f" d="M 1625 4666 
L 2156 4666 
L 531 -594 
L 0 -594 
L 1625 4666 
z
" transform="scale(0.015625)"/>
       <path id="DejaVuSans-Oblique-73" d="M 3200 3397 
L 3091 2853 
Q 2863 2978 2609 3040 
Q 2356 3103 2088 3103 
Q 1634 3103 1373 2948 
Q 1113 2794 1113 2528 
Q 1113 2219 1719 2053 
Q 1766 2041 1788 2034 
L 1972 1978 
Q 2547 1819 2739 1644 
Q 2931 1469 2931 1166 
Q 2931 609 2489 259 
Q 2047 -91 1331 -91 
Q 1053 -91 747 -37 
Q 441 16 72 128 
L 184 722 
Q 500 559 806 475 
Q 1113 391 1394 391 
Q 1816 391 2080 572 
Q 2344 753 2344 1031 
Q 2344 1331 1650 1516 
L 1591 1531 
L 1394 1581 
Q 956 1697 753 1886 
Q 550 2075 550 2369 
Q 550 2928 970 3256 
Q 1391 3584 2113 3584 
Q 2397 3584 2667 3537 
Q 2938 3491 3200 3397 
z
" transform="scale(0.015625)"/>
      </defs>
      <use xlink:href="#DejaVuSans-4e" transform="translate(0 0.015625)"/>
      <use xlink:href="#DejaVuSans-6f" transform="translate(74.804688 0.015625)"/>
      <use xlink:href="#DejaVuSans-72" transform="translate(135.986328 0.015625)"/>
      <use xlink:href="#DejaVuSans-6d" transform="translate(177.099609 0.015625)"/>
      <use xlink:href="#DejaVuSans-61" transform="translate(274.511719 0.015625)"/>
      <use xlink:href="#DejaVuSans-6c" transform="translate(335.791016 0.015625)"/>
      <use xlink:href="#DejaVuSans-69" transform="translate(363.574219 0.015625)"/>
      <use xlink:href="#DejaVuSans-7a" transform="translate(391.357422 0.015625)"/>
      <use xlink:href="#DejaVuSans-65" transform="translate(443.847656 0.015625)"/>
      <use xlink:href="#DejaVuSans-64" transform="translate(505.371094 0.015625)"/>
      <use xlink:href="#DejaVuSans-20" transform="translate(568.847656 0.015625)"/>
      <use xlink:href="#DejaVuSans-66" transform="translate(600.634766 0.015625)"/>
      <use xlink:href="#DejaVuSans-72" transform="translate(635.839844 0.015625)"/>
      <use xlink:href="#DejaVuSans-65" transform="translate(676.953125 0.015625)"/>
      <use xlink:href="#DejaVuSans-71" transform="translate(738.476562 0.015625)"/>
      <use xlink:href="#DejaVuSans-75" transform="translate(801.953125 0.015625)"/>
      <use xlink:href="#DejaVuSans-65" transform="translate(865.332031 0.015625)"/>
      <use xlink:href="#DejaVuSans-6e" transform="translate(926.855469 0.015625)"/>
      <use xlink:href="#DejaVuSans-63" transform="translate(990.234375 0.015625)"/>
      <use xlink:href="#DejaVuSans-79" transform="translate(1045.214844 0.015625)"/>
      <use xlink:href="#DejaVuSans-2c" transform="translate(1104.394531 0.015625)"/>
      <use xlink:href="#DejaVuSans-20" transform="translate(1136.181641 0.015625)"/>
      <use xlink:href="#DejaVuSans-Oblique-66" transform="translate(1167.96875 0.015625)"/>
      <use xlink:href="#DejaVuSans-2f" transform="translate(1203.173828 0.015625)"/>
      <use xlink:href="#DejaVuSans-Oblique-66" transform="translate(1236.865234 0.015625)"/>
      <use xlink:href="#DejaVuSans-Oblique-73" transform="translate(1272.070312 -16.390625) scale(0.7)"/>
     </g>
    </g>
   </g>
   <g id="matplotlib.axis_2">
    <g id="ytick_1">
     <g id="line2d_13">
      <path d="M 50.804688 250.421875 
L 568.8 250.421875 
" clip-path="url(#p838ffca285)" style="fill: none; stroke-dasharray: 2.96,1.28; stroke-dashoffset: 0; stroke: #b0b0b0; stroke-opacity: 0.8; stroke-width: 0.8"/>
     </g>
     <g id="line2d_14">
      <defs>
       <path id="m5fe63f672e" d="M 0 0 
L -3.5 0 
" style="stroke: #000000; stroke-width: 0.8"/>
      </defs>
      <g>
       <use xlink:href="#m5fe63f672e" x="50.804688" y="250.421875" style="stroke: #000000; stroke-width: 0.8"/>
      </g>
     </g>
     <g id="text_8">
      <!-- −35 -->
      <g transform="translate(22.7 254.221094) scale(0.1 -0.1)">
       <defs>
        <path id="DejaVuSans-2212" d="M 678 2272 
L 4684 2272 
L 4684 1741 
L 678 1741 
L 678 2272 
z
" transform="scale(0.015625)"/>
       </defs>
       <use xlink:href="#DejaVuSans-2212"/>
       <use xlink:href="#DejaVuSans-33" transform="translate(83.789062 0)"/>
       <use xlink:href="#DejaVuSans-35" transform="translate(147.412109 0)"/>
      </g>
     </g>
    </g>
    <g id="ytick_2">
     <g id="line2d_15">
      <path d="M 50.804688 222.134141 
L 568.8 222.134141 
" clip-path="url(#p838ffca285)" style="fill: none; stroke-dasharray: 2.96,1.28; stroke-dashoffset: 0; stroke: #b0b0b0; stroke-opacity: 0.8; stroke-width: 0.8"/>
     </g>
     <g id="line2d_16">
      <g>
       <use xlink:href="#m5fe63f672e" x="50.804688" y="222.134141" style="stroke: #000000; stroke-width: 0.8"/>
      </g>
     </g>
     <g id="text_9">
      <!-- −30 -->
      <g transform="translate(22.7 225.933359) scale(0.1 -0.1)">
       <use xlink:href="#DejaVuSans-2212"/>
       <use xlink:href="#DejaVuSans-33" transform="translate(83.789062 0)"/>
       <use xlink:href="#DejaVuSans-30" transform="translate(147.412109 0)"/>
      </g>
     </g>
    </g>
    <g id="ytick_3">
     <g id="line2d_17">
      <path d="M 50.804688 193.846406 
L 568.8 193.846406 
" clip-path="url(#p838ffca285)" style="fill: none; stroke-dasharray: 2.96,1.28; stroke-dashoffset: 0; stroke: #b0b0b0; stroke-opacity: 0.8; stroke-width: 0.8"/>
     </g>
     <g id="line2d_18">
      <g>
       <use xlink:href="#m5fe63f672e" x="50.804688" y="193.846406" style="stroke: #000000; stroke-width: 0.8"/>
      </g>
     </g>
     <g id="text_10">
      <!-- −25 -->
      <g transform="translate(22.7 197.645625) scale(0.1 -0.1)">
       <use xlink:href="#DejaVuSans-2212"/>
       <use xlink:href="#DejaVuSans-32" transform="translate(83.789062 0)"/>
       <use xlink:href="#DejaVuSans-35" transform="translate(147.412109 0)"/>
      </g>
     </g>
    </g>
    <g id="ytick_4">
     <g id="line2d_19">
      <path d="M 50.804688 165.558672 
L 568.8 165.558672 
" clip-path="url(#p838ffca285)" style="fill: none; stroke-dasharray: 2.96,1.28; stroke-dashoffset: 0; stroke: #b0b0b0; stroke-opacity: 0.8; stroke-width: 0.8"/>
     </g>
     <g id="line2d_20">
      <g>
       <use xlink:href="#m5fe63f672e" x="50.804688" y="165.558672" style="stroke: #000000; stroke-width: 0.8"/>
      </g>
     </g>
     <g id="text_11">
      <!-- −20 -->
      <g transform="translate(22.7 169.357891) scale(0.1 -0.1)">
       <use xlink:href="#DejaVuSans-2212"/>
       <use xlink:href="#DejaVuSans-32" transform="translate(83.789062 0)"/>
       <use xlink:href="#DejaVuSans-30" transform="translate(147.412109 0)"/>
      </g>
     </g>
    </g>
    <g id="ytick_5">
     <g id="line2d_21">
      <path d="M 50.804688 137.270938 
L 568.8 137.270938 
" clip-path="url(#p838ffca285)" style="fill: none; stroke-dasharray: 2.96,1.28; stroke-dashoffset: 0; stroke: #b0b0b0; stroke-opacity: 0.8; stroke-width: 0.8"/>
     </g>
     <g id="line2d_22">
      <g>
       <use xlink:href="#m5fe63f672e" x="50.804688" y="137.270938" style="stroke: #000000; stroke-width: 0.8"/>
      </g>
     </g>
     <g id="text_12">
      <!-- −15 -->
      <g transform="translate(22.7 141.070156) scale(0.1 -0.1)">
       <use xlink:href="#DejaVuSans-2212"/>
       <use xlink:href="#DejaVuSans-31" transform="translate(83.789062 0)"/>
       <use xlink:href="#DejaVuSans-35" transform="translate(147.412109 0)"/>
      </g>
     </g>
    </g>
    <g id="ytick_6">
     <g id="line2d_23">
      <path d="M 50.804688 108.983203 
L 568.8 108.983203 
" clip-path="url(#p838ffca285)" style="fill: none; stroke-dasharray: 2.96,1.28; stroke-dashoffset: 0; stroke: #b0b0b0; stroke-opacity: 0.8; stroke-width: 0.8"/>
     </g>
     <g id="line2d_24">
      <g>
       <use xlink:href="#m5fe63f672e" x="50.804688" y="108.983203" style="stroke: #000000; stroke-width: 0.8"/>
      </g>
     </g>
     <g id="text_13">
      <!-- −10 -->
      <g transform="translate(22.7 112.782422) scale(0.1 -0.1)">
       <use xlink:href="#DejaVuSans-2212"/>
       <use xlink:href="#DejaVuSans-31" transform="translate(83.789062 0)"/>
       <use xlink:href="#DejaVuSans-30" transform="translate(147.412109 0)"/>
      </g>
     </g>
    </g>
    <g id="ytick_7">
     <g id="line2d_25">
      <path d="M 50.804688 80.695469 
L 568.8 80.695469 
" clip-path="url(#p838ffca285)" style="fill: none; stroke-dasharray: 2.96,1.28; stroke-dashoffset: 0; stroke: #b0b0b0; stroke-opacity: 0.8; stroke-width: 0.8"/>
     </g>
     <g id="line2d_26">
      <g>
       <use xlink:href="#m5fe63f672e" x="50.804688" y="80.695469" style="stroke: #000000; stroke-width: 0.8"/>
      </g>
     </g>
     <g id="text_14">
      <!-- −5 -->
      <g transform="translate(29.0625 84.494688) scale(0.1 -0.1)">
       <use xlink:href="#DejaVuSans-2212"/>
       <use xlink:href="#DejaVuSans-35" transform="translate(83.789062 0)"/>
      </g>
     </g>
    </g>
    <g id="ytick_8">
     <g id="line2d_27">
      <path d="M 50.804688 52.407734 
L 568.8 52.407734 
" clip-path="url(#p838ffca285)" style="fill: none; stroke-dasharray: 2.96,1.28; stroke-dashoffset: 0; stroke: #b0b0b0; stroke-opacity: 0.8; stroke-width: 0.8"/>
     </g>
     <g id="line2d_28">
      <g>
       <use xlink:href="#m5fe63f672e" x="50.804688" y="52.407734" style="stroke: #000000; stroke-width: 0.8"/>
      </g>
     </g>
     <g id="text_15">
      <!-- 0 -->
      <g transform="translate(37.442188 56.206953) scale(0.1 -0.1)">
       <use xlink:href="#DejaVuSans-30"/>
      </g>
     </g>
    </g>
    <g id="ytick_9">
     <g id="line2d_29">
      <path d="M 50.804688 24.12 
L 568.8 24.12 
" clip-path="url(#p838ffca285)" style="fill: none; stroke-dasharray: 2.96,1.28; stroke-dashoffset: 0; stroke: #b0b0b0; stroke-opacity: 0.8; stroke-width: 0.8"/>
     </g>
     <g id="line2d_30">
      <g>
       <use xlink:href="#m5fe63f672e" x="50.804688" y="24.12" style="stroke: #000000; stroke-width: 0.8"/>
      </g>
     </g>
     <g id="text_16">
      <!-- 5 -->
      <g transform="translate(37.442188 27.919219) scale(0.1 -0.1)">
       <use xlink:href="#DejaVuSans-35"/>
      </g>
     </g>
    </g>
    <g id="text_17">
     <!-- Power (dB), $|H(\omega)|^2$ -->
     <g transform="translate(16.3 185.470937) rotate(-90) scale(0.1 -0.1)">
      <defs>
       <path id="DejaVuSans-50" d="M 1259 4147 
L 1259 2394 
L 2053 2394 
Q 2494 2394 2734 2622 
Q 2975 2850 2975 3272 
Q 2975 3691 2734 3919 
Q 2494 4147 2053 4147 
L 1259 4147 
z
M 628 4666 
L 2053 4666 
Q 2838 4666 3239 4311 
Q 3641 3956 3641 3272 
Q 3641 2581 3239 2228 
Q 2838 1875 2053 1875 
L 1259 1875 
L 1259 0 
L 628 0 
L 628 4666 
z
" transform="scale(0.015625)"/>
       <path id="DejaVuSans-77" d="M 269 3500 
L 844 3500 
L 1563 769 
L 2278 3500 
L 2956 3500 
L 3675 769 
L 4391 3500 
L 4966 3500 
L 4050 0 
L 3372 0 
L 2619 2869 
L 1863 0 
L 1184 0 
L 269 3500 
z
" transform="scale(0.015625)"/>
       <path id="DejaVuSans-28" d="M 1984 4856 
Q 1566 4138 1362 3434 
Q 1159 2731 1159 2009 
Q 1159 1288 1364 580 
Q 1569 -128 1984 -844 
L 1484 -844 
Q 1016 -109 783 600 
Q 550 1309 550 2009 
Q 550 2706 781 3412 
Q 1013 4119 1484 4856 
L 1984 4856 
z
" transform="scale(0.015625)"/>
       <path id="DejaVuSans-42" d="M 1259 2228 
L 1259 519 
L 2272 519 
Q 2781 519 3026 730 
Q 3272 941 3272 1375 
Q 3272 1813 3026 2020 
Q 2781 2228 2272 2228 
L 1259 2228 
z
M 1259 4147 
L 1259 2741 
L 2194 2741 
Q 2656 2741 2882 2914 
Q 3109 3088 3109 3444 
Q 3109 3797 2882 3972 
Q 2656 4147 2194 4147 
L 1259 4147 
z
M 628 4666 
L 2241 4666 
Q 2963 4666 3353 4366 
Q 3744 4066 3744 3513 
Q 3744 3084 3544 2831 
Q 3344 2578 2956 2516 
Q 3422 2416 3680 2098 
Q 3938 1781 3938 1306 
Q 3938 681 3513 340 
Q 3088 0 2303 0 
L 628 0 
L 628 4666 
z
" transform="scale(0.015625)"/>
       <path id="DejaVuSans-29" d="M 513 4856 
L 1013 4856 
Q 1481 4119 1714 3412 
Q 1947 2706 1947 2009 
Q 1947 1309 1714 600 
Q 1481 -109 1013 -844 
L 513 -844 
Q 928 -128 1133 580 
Q 1338 1288 1338 2009 
Q 1338 2731 1133 3434 
Q 928 4138 513 4856 
z
" transform="scale(0.015625)"/>
       <path id="DejaVuSans-7c" d="M 1344 4891 
L 1344 -1509 
L 813 -1509 
L 813 4891 
L 1344 4891 
z
" transform="scale(0.015625)"/>
       <path id="DejaVuSans-Oblique-48" d="M 1081 4666 
L 1716 4666 
L 1344 2753 
L 3634 2753 
L 4006 4666 
L 4641 4666 
L 3731 0 
L 3097 0 
L 3531 2222 
L 1241 2222 
L 806 0 
L 172 0 
L 1081 4666 
z
" transform="scale(0.015625)"/>
       <path id="DejaVuSans-Oblique-3c9" d="M 1369 -91 
Q 72 -91 434 1766 
Q 575 2500 1256 3500 
L 1875 3500 
Q 1231 2500 1088 1750 
Q 819 397 1519 397 
Q 2166 397 2478 2078 
L 3009 2078 
Q 2669 388 3316 397 
Q 4013 403 4275 1750 
Q 4419 2500 4169 3500 
L 4788 3500 
Q 5075 2500 4934 1766 
Q 4578 -94 3278 -91 
Q 2428 -88 2503 844 
Q 2194 -91 1369 -91 
z
" transform="scale(0.015625)"/>
      </defs>
      <use xlink:href="#DejaVuSans-50" transform="translate(0 0.765625)"/>
      <use xlink:href="#DejaVuSans-6f" transform="translate(60.302734 0.765625)"/>
      <use xlink:href="#DejaVuSans-77" transform="translate(121.484375 0.765625)"/>
      <use xlink:href="#DejaVuSans-65" transform="translate(203.271484 0.765625)"/>
      <use xlink:href="#DejaVuSans-72" transform="translate(264.794922 0.765625)"/>
      <use xlink:href="#DejaVuSans-20" transform="translate(305.908203 0.765625)"/>
      <use xlink:href="#DejaVuSans-28" transform="translate(337.695312 0.765625)"/>
      <use xlink:href="#DejaVuSans-64" transform="translate(376.708984 0.765625)"/>
      <use xlink:href="#DejaVuSans-42" transform="translate(440.185547 0.765625)"/>
      <use xlink:href="#DejaVuSans-29" transform="translate(508.789062 0.765625)"/>
      <use xlink:href="#DejaVuSans-2c" transform="translate(547.802734 0.765625)"/>
      <use xlink:href="#DejaVuSans-20" transform="translate(579.589844 0.765625)"/>
      <use xlink:href="#DejaVuSans-7c" transform="translate(611.376953 0.765625)"/>
      <use xlink:href="#DejaVuSans-Oblique-48" transform="translate(645.068359 0.765625)"/>
      <use xlink:href="#DejaVuSans-28" transform="translate(720.263672 0.765625)"/>
      <use xlink:href="#DejaVuSans-Oblique-3c9" transform="translate(759.277344 0.765625)"/>
      <use xlink:href="#DejaVuSans-29" transform="translate(843.017578 0.765625)"/>
      <use xlink:href="#DejaVuSans-7c" transform="translate(882.03125 0.765625)"/>
      <use xlink:href="#DejaVuSans-32" transform="translate(916.679688 39.046875) scale(0.7)"/>
     </g>
    </g>
   </g>
   <g id="line2d_31">
    <path d="M 74.349929 52.407734 
L 75.730882 52.563765 
L 77.111834 53.033054 
L 78.492787 53.819238 
L 79.873739 54.928528 
L 81.254692 56.369948 
L 82.635644 58.155701 
L 84.016597 60.301687 
L 85.39755 62.828232 
L 86.778502 65.761112 
L 88.159455 69.132984 
L 89.540407 72.985428 
L 90.92136 77.371919 
L 92.302313 82.362271 
L 93.683265 88.049503 
L 95.064218 94.560893 
L 96.44517 102.076713 
L 97.826123 110.864068 
L 99.207075 121.343344 
L 100.588028 134.234154 
L 101.508663 144.804456 
L 102.429298 157.806186 
L 103.349933 174.76789 
L 103.810251 185.720761 
L 104.270568 199.472916 
L 104.730886 218.083558 
L 105.191203 247.354759 
L 105.439303 289 
M 105.986245 289 
L 106.572156 234.110228 
L 107.032473 212.49964 
L 107.492791 197.975403 
L 108.413426 178.564469 
L 109.334061 165.634382 
L 110.254696 156.214334 
L 111.175331 149.026259 
L 112.095966 143.403527 
L 113.016601 138.955453 
L 113.937236 135.434595 
L 114.857871 132.675534 
L 115.778506 130.563429 
L 116.699141 129.016549 
L 117.619776 127.975976 
L 118.540412 127.399278 
L 119.461047 127.256498 
L 120.381682 127.527609 
L 121.302317 128.200922 
L 122.222952 129.272193 
L 123.143587 130.744279 
L 124.064222 132.627286 
L 124.984857 134.939243 
L 125.905492 137.707392 
L 126.826127 140.970319 
L 128.20708 146.914233 
L 129.588032 154.368858 
L 130.508667 160.391203 
L 131.429302 167.491902 
L 132.349937 175.995747 
L 133.270572 186.43698 
L 134.191207 199.785609 
L 135.111842 218.099108 
L 135.57216 230.57129 
L 136.032478 247.178297 
L 136.492795 272.141092 
L 136.641415 289 
M 137.761617 289 
L 137.873748 275.38625 
L 138.334065 250.256857 
L 138.794383 233.982883 
L 139.715018 212.597397 
L 140.635653 198.403918 
L 141.556288 188.00155 
L 142.476923 179.97785 
L 143.397558 173.610078 
L 144.318193 168.47959 
L 145.238828 164.323173 
L 146.159463 160.965645 
L 147.080098 158.285648 
L 148.000733 156.196822 
L 148.921368 154.636783 
L 149.842003 153.56037 
L 150.762638 152.935393 
L 151.683273 152.739917 
L 152.603908 152.960557 
L 153.524544 153.591502 
L 154.445179 154.634094 
L 155.365814 156.096913 
L 156.286449 157.996373 
L 157.207084 160.357915 
L 158.127719 163.218009 
L 159.048354 166.627308 
L 159.968989 170.655603 
L 160.889624 175.399736 
L 161.810259 180.996705 
L 162.730894 187.646459 
L 163.651529 195.654339 
L 164.572164 205.517569 
L 165.492799 218.125172 
L 166.413434 235.31531 
L 166.873752 246.883089 
L 167.334069 262.011198 
L 167.853272 289 
M 169.416741 289 
L 169.635657 274.971894 
L 170.095974 256.881681 
L 171.01661 233.769619 
L 171.937245 218.660076 
L 172.85788 207.633911 
L 173.778515 199.126236 
L 174.69915 192.353215 
L 175.619785 186.866855 
L 176.54042 182.388035 
L 177.461055 178.732136 
L 178.38169 175.771802 
L 179.302325 173.416633 
L 180.22296 171.601378 
L 181.143595 170.278744 
L 182.06423 169.414878 
L 182.984865 168.986478 
L 183.9055 168.978982 
L 184.826135 169.385499 
L 185.74677 170.206324 
L 186.667405 171.448953 
L 187.58804 173.128606 
L 188.508676 175.269338 
L 189.429311 177.90591 
L 190.349946 181.086765 
L 191.270581 184.878685 
L 192.191216 189.374219 
L 193.111851 194.703897 
L 194.032486 201.057337 
L 194.953121 208.722124 
L 195.873756 218.161976 
L 196.794391 230.193908 
L 197.715026 246.467456 
L 198.175344 257.285193 
L 198.635661 271.202208 
L 199.056322 289 
M 201.065174 289 
L 201.397566 274.388886 
L 202.318201 249.448501 
L 203.238836 233.468874 
L 204.159471 221.897457 
L 205.080106 212.993966 
L 206.000742 205.906508 
L 206.921377 200.15511 
L 207.842012 195.443593 
L 208.762647 191.577374 
L 209.683282 188.422853 
L 210.603917 185.885478 
L 211.524552 183.897099 
L 212.445187 182.408301 
L 213.365822 181.383598 
L 214.286457 180.798373 
L 215.207092 180.63694 
L 216.127727 180.891395 
L 217.048362 181.561052 
L 217.968997 182.6524 
L 218.889632 184.179551 
L 219.810267 186.165263 
L 220.730902 188.6427 
L 221.651537 191.658231 
L 222.572172 195.275812 
L 223.492808 199.58396 
L 224.413443 204.707152 
L 225.334078 210.825384 
L 226.254713 218.209846 
L 227.175348 227.293711 
L 228.095983 238.829626 
L 229.016618 254.303816 
L 229.476935 264.471985 
L 230.242268 289 
M 232.700478 289 
L 233.159476 273.634241 
L 234.080111 252.824034 
L 235.000746 238.690299 
L 235.921381 228.160523 
L 236.842016 219.923346 
L 237.762651 213.297403 
L 238.683286 207.884083 
L 239.603921 203.431032 
L 240.524556 199.769442 
L 241.445191 196.78194 
L 242.365826 194.384783 
L 243.286461 192.517383 
L 244.207096 191.135866 
L 245.127731 190.209005 
L 246.048366 189.715621 
L 246.969001 189.64297 
L 247.889636 189.985817 
L 248.810271 190.746076 
L 249.730907 191.932938 
L 250.651542 193.56352 
L 251.572177 195.664136 
L 252.492812 198.272384 
L 253.413447 201.440453 
L 254.334082 205.240305 
L 255.254717 209.771983 
L 256.175352 215.177427 
L 257.095987 221.664652 
L 258.016622 229.553111 
L 258.937257 239.367144 
L 259.857892 252.055317 
L 260.778527 269.616797 
L 261.451177 289 
M 264.355896 289 
L 264.461067 285.135896 
L 265.381702 262.912935 
L 266.302338 248.079556 
L 267.222973 237.114359 
L 268.143608 228.568533 
L 269.064243 221.704481 
L 269.984878 216.096275 
L 270.905513 211.476658 
L 271.826148 207.667971 
L 272.746783 204.547222 
L 273.667418 202.026901 
L 274.588053 200.043762 
L 275.508688 198.551973 
L 276.429323 197.51879 
L 277.349958 196.921799 
L 278.270593 196.747191 
L 279.191228 196.988757 
L 280.111863 197.647455 
L 281.032498 198.731475 
L 281.953133 200.256812 
L 282.873768 202.248449 
L 283.794404 204.742314 
L 284.715039 207.788399 
L 285.635674 211.455626 
L 286.556309 215.839649 
L 287.476944 221.075717 
L 288.397579 227.36104 
L 289.318214 234.996303 
L 290.238849 244.469973 
L 291.159484 256.652218 
L 292.080119 273.331329 
L 292.679495 289 
M 295.982444 289 
L 296.683294 271.593165 
L 297.603929 256.016854 
L 298.524564 244.604606 
L 299.445199 235.749946 
L 300.365834 228.652665 
L 301.28647 222.856989 
L 302.207105 218.079596 
L 303.12774 214.133379 
L 304.048375 210.889403 
L 304.96901 208.256195 
L 305.889645 206.167739 
L 306.81028 204.57617 
L 307.730915 203.447181 
L 308.65155 202.757098 
L 309.572185 202.491032 
L 310.49282 202.641795 
L 311.413455 203.209391 
L 312.33409 204.201022 
L 313.254725 205.631586 
L 314.17536 207.524771 
L 315.095995 209.914894 
L 316.01663 212.849831 
L 316.937265 216.395611 
L 317.8579 220.643715 
L 318.778536 225.723094 
L 319.699171 231.820863 
L 320.619806 239.220357 
L 321.540441 248.377361 
L 322.461076 260.092096 
L 323.381711 275.971048 
L 323.926049 289 
M 327.578949 289 
L 328.445204 270.29552 
L 329.365839 256.492744 
L 330.286474 246.115265 
L 331.207109 237.943463 
L 332.127744 231.334425 
L 333.048379 225.908508 
L 333.969014 221.423814 
L 334.889649 217.717792 
L 335.810284 214.677063 
L 336.730919 212.220574 
L 337.651554 210.289636 
L 338.572189 208.841782 
L 339.492824 207.846875 
L 340.413459 207.28463 
L 341.334094 207.143071 
L 342.254729 207.417677 
L 343.175364 208.111064 
L 344.095999 209.233166 
L 345.016635 210.801943 
L 345.93727 212.844714 
L 346.857905 215.400354 
L 347.77854 218.522748 
L 348.699175 222.286213 
L 349.61981 226.794231 
L 350.540445 232.194017 
L 351.46108 238.702178 
L 352.381715 246.65325 
L 353.30235 256.600798 
L 354.222985 269.558518 
L 355.14362 287.706462 
L 355.190915 289 
M 359.171723 289 
L 359.746795 276.61108 
L 360.66743 262.172408 
L 361.588065 251.401987 
L 362.508701 242.955788 
L 363.429336 236.138929 
L 364.349971 230.54618 
L 365.270606 225.921551 
L 366.191241 222.094062 
L 367.111876 218.944954 
L 368.032511 216.389547 
L 368.953146 214.366588 
L 369.873781 212.831708 
L 370.794416 211.753293 
L 371.715051 211.10985 
L 372.635686 210.888356 
L 373.556321 211.083324 
L 374.476956 211.696418 
L 375.397591 212.736566 
L 376.318226 214.220596 
L 377.238861 216.174471 
L 378.159496 218.635359 
L 379.080131 221.654882 
L 380.000767 225.304219 
L 380.921402 229.682283 
L 381.842037 234.929297 
L 382.762672 241.250493 
L 383.683307 248.960483 
L 384.603942 258.574311 
L 385.524577 271.020074 
L 386.474939 289 
M 390.736524 289 
L 391.508705 274.03119 
L 392.42934 261.142698 
L 393.349975 251.311884 
L 394.27061 243.502011 
L 395.191245 237.149294 
L 396.11188 231.913964 
L 397.032515 227.57645 
L 397.95315 223.987727 
L 398.873785 221.043139 
L 399.79442 218.667565 
L 400.715055 216.806547 
L 401.63569 215.42078 
L 402.556325 214.482603 
L 403.47696 213.973779 
L 404.397595 213.884124 
L 405.31823 214.210791 
L 406.238866 214.958067 
L 407.159501 216.137672 
L 408.080136 217.769601 
L 409.000771 219.883634 
L 409.921406 222.52178 
L 410.842041 225.74211 
L 411.762676 229.624803 
L 412.683311 234.281946 
L 413.603946 239.874072 
L 414.524581 246.639719 
L 415.445216 254.952476 
L 416.365851 265.443086 
L 417.286486 279.302517 
L 417.779512 289 
M 422.274756 289 
L 422.810296 278.640993 
L 423.730932 265.198268 
L 424.651567 255.01529 
L 425.572202 246.955742 
L 426.492837 240.412326 
L 427.413472 235.023204 
L 428.334107 230.556387 
L 429.254742 226.855302 
L 430.175377 223.810409 
L 431.096012 221.343255 
L 432.016647 219.397003 
L 432.937282 217.930562 
L 433.857917 216.91487 
L 434.778552 216.330528 
L 435.699187 216.166332 
L 436.619822 216.418478 
L 437.540457 217.090294 
L 438.461092 218.192474 
L 439.381727 219.743837 
L 440.302362 221.772743 
L 441.222998 224.319383 
L 442.143633 227.439396 
L 443.064268 231.209552 
L 443.984903 235.736917 
L 444.905538 241.174237 
L 445.826173 247.747182 
L 446.746808 255.806332 
L 447.667443 265.936691 
L 448.588078 279.223253 
L 449.106476 289 
M 453.793455 289 
L 454.572206 275.137978 
L 455.492841 263.06099 
L 456.413476 253.733142 
L 457.334111 246.265518 
L 458.254746 240.161005 
L 459.175381 235.114374 
L 460.096016 230.925794 
L 461.016651 227.458389 
L 461.937286 224.615441 
L 462.857921 222.327289 
L 463.778556 220.543413 
L 464.699191 219.227481 
L 465.619826 218.354194 
L 466.540462 217.907287 
L 467.461097 217.878332 
L 468.381732 218.266144 
L 469.302367 219.076699 
L 470.223002 220.323549 
L 471.143637 222.028809 
L 472.064272 224.224849 
L 472.984907 226.957019 
L 473.905542 230.2879 
L 474.826177 234.304056 
L 475.746812 239.127055 
L 476.667447 244.932302 
L 477.588082 251.983237 
L 478.508717 260.698744 
L 479.429352 271.80181 
L 480.349987 286.705138 
L 480.458094 289 
M 485.284006 289 
L 485.873798 278.360539 
L 486.794433 265.794056 
L 487.715068 256.146644 
L 488.635703 248.448677 
L 489.556338 242.166317 
L 490.476973 236.975195 
L 491.397608 232.664491 
L 492.318243 229.090545 
L 493.238878 226.152193 
L 494.159513 223.776707 
L 495.080148 221.911351 
L 496.000783 220.518113 
L 496.921418 219.570359 
L 497.842053 219.050704 
L 498.762688 218.949721 
L 499.683323 219.265274 
L 500.603958 220.002371 
L 501.524594 221.17351 
L 502.445229 222.799584 
L 503.365864 224.911465 
L 504.286499 227.552566 
L 505.207134 230.782848 
L 506.127769 234.685158 
L 507.048404 239.375534 
L 507.969039 245.020676 
L 508.889674 251.869403 
L 509.810309 260.31388 
L 510.730944 271.022334 
L 511.651579 285.274555 
L 511.837073 289 
M 516.739628 289 
L 517.635707 274.077839 
L 518.556342 262.723575 
L 519.476977 253.856927 
L 520.397612 246.709839 
L 521.318247 240.841784 
L 522.238882 235.977619 
L 523.159517 231.93503 
L 524.080152 228.58809 
L 525.000787 225.847322 
L 525.921422 223.648106 
L 526.842057 221.943593 
L 527.762693 220.700258 
L 528.683328 219.895053 
L 529.603963 219.513624 
L 530.524598 219.549266 
L 531.445233 220.002454 
L 532.365868 220.880874 
L 533.286503 222.199964 
L 534.207138 223.984049 
L 535.127773 226.268237 
L 536.048408 229.101446 
L 536.969043 232.551128 
L 537.889678 236.710817 
L 538.810313 241.712561 
L 539.730948 247.74843 
L 540.651583 255.11026 
L 541.572218 264.269796 
L 542.492853 276.061243 
L 543.246617 289 
L 543.246617 289 
" clip-path="url(#p838ffca285)" style="fill: none; stroke: #1f77b4; stroke-linecap: square"/>
   </g>
   <g id="line2d_32">
    <path d="M 74.349929 52.407734 
L 75.270564 52.601234 
L 76.191199 53.172745 
L 77.111834 54.096658 
L 78.032469 55.334367 
L 79.413422 57.676184 
L 81.254692 61.446497 
L 84.016597 67.805424 
L 89.08009 79.583991 
L 92.302313 86.486913 
L 95.064218 91.933927 
L 97.826123 96.961327 
L 101.048346 102.342645 
L 104.270568 107.262127 
L 107.492791 111.778933 
L 110.715014 115.945237 
L 114.397554 120.334477 
L 118.080094 124.379722 
L 122.222952 128.576253 
L 126.365809 132.448652 
L 130.968985 136.423602 
L 135.57216 140.099943 
L 140.635653 143.845436 
L 145.699146 147.318974 
L 151.222956 150.838306 
L 157.207084 154.37372 
L 163.191212 157.657325 
L 169.635657 160.946956 
L 176.54042 164.222437 
L 183.9055 167.466859 
L 191.730898 170.666144 
L 200.016614 173.808608 
L 208.762647 176.884568 
L 217.968997 179.88598 
L 227.635665 182.806122 
L 237.762651 185.639324 
L 248.810271 188.495178 
L 260.31821 191.237331 
L 272.286465 193.863699 
L 285.175356 196.461179 
L 298.524564 198.923847 
L 312.794408 201.324818 
L 327.524569 203.57528 
L 343.175364 205.734973 
L 359.286478 207.729793 
L 375.857909 209.558667 
L 393.349975 211.261553 
L 411.302358 212.782273 
L 429.715059 214.117437 
L 448.588078 215.262434 
L 467.921414 216.21136 
L 487.715068 216.956889 
L 507.508721 217.480538 
L 527.762693 217.791552 
L 545.254759 217.879381 
L 545.254759 217.879381 
" clip-path="url(#p838ffca285)" style="fill: none; stroke: #ff7f0e; stroke-linecap: square"/>
   </g>
   <g id="patch_3">
    <path d="M 50.804688 250.421875 
L 50.804688 24.12 
" style="fill: none; stroke: #000000; stroke-width: 0.8; stroke-linejoin: miter; stroke-linecap: square"/>
   </g>
   <g id="patch_4">
    <path d="M 568.8 250.421875 
L 568.8 24.12 
" style="fill: none; stroke: #000000; stroke-width: 0.8; stroke-linejoin: miter; stroke-linecap: square"/>
   </g>
   <g id="patch_5">
    <path d="M 50.804688 250.421875 
L 568.8 250.421875 
" style="fill: none; stroke: #000000; stroke-width: 0.8; stroke-linejoin: miter; stroke-linecap: square"/>
   </g>
   <g id="patch_6">
    <path d="M 50.804688 24.12 
L 568.8 24.12 
" style="fill: none; stroke: #000000; stroke-width: 0.8; stroke-linejoin: miter; stroke-linecap: square"/>
   </g>
   <g id="text_18">
    <!-- Magnitude response, $|H(\omega)|^2$ -->
    <g transform="translate(223.702344 18.12) scale(0.12 -0.12)">
     <defs>
      <path id="DejaVuSans-4d" d="M 628 4666 
L 1569 4666 
L 2759 1491 
L 3956 4666 
L 4897 4666 
L 4897 0 
L 4281 0 
L 4281 4097 
L 3078 897 
L 2444 897 
L 1241 4097 
L 1241 0 
L 628 0 
L 628 4666 
z
" transform="scale(0.015625)"/>
      <path id="DejaVuSans-67" d="M 2906 1791 
Q 2906 2416 2648 2759 
Q 2391 3103 1925 3103 
Q 1463 3103 1205 2759 
Q 947 2416 947 1791 
Q 947 1169 1205 825 
Q 1463 481 1925 481 
Q 2391 481 2648 825 
Q 2906 1169 2906 1791 
z
M 3481 434 
Q 3481 -459 3084 -895 
Q 2688 -1331 1869 -1331 
Q 1566 -1331 1297 -1286 
Q 1028 -1241 775 -1147 
L 775 -588 
Q 1028 -725 1275 -790 
Q 1522 -856 1778 -856 
Q 2344 -856 2625 -561 
Q 2906 -266 2906 331 
L 2906 616 
Q 2728 306 2450 153 
Q 2172 0 1784 0 
Q 1141 0 747 490 
Q 353 981 353 1791 
Q 353 2603 747 3093 
Q 1141 3584 1784 3584 
Q 2172 3584 2450 3431 
Q 2728 3278 2906 2969 
L 2906 3500 
L 3481 3500 
L 3481 434 
z
" transform="scale(0.015625)"/>
      <path id="DejaVuSans-74" d="M 1172 4494 
L 1172 3500 
L 2356 3500 
L 2356 3053 
L 1172 3053 
L 1172 1153 
Q 1172 725 1289 603 
Q 1406 481 1766 481 
L 2356 481 
L 2356 0 
L 1766 0 
Q 1100 0 847 248 
Q 594 497 594 1153 
L 594 3053 
L 172 3053 
L 172 3500 
L 594 3500 
L 594 4494 
L 1172 4494 
z
" transform="scale(0.015625)"/>
      <path id="DejaVuSans-73" d="M 2834 3397 
L 2834 2853 
Q 2591 2978 2328 3040 
Q 2066 3103 1784 3103 
Q 1356 3103 1142 2972 
Q 928 2841 928 2578 
Q 928 2378 1081 2264 
Q 1234 2150 1697 2047 
L 1894 2003 
Q 2506 1872 2764 1633 
Q 3022 1394 3022 966 
Q 3022 478 2636 193 
Q 2250 -91 1575 -91 
Q 1294 -91 989 -36 
Q 684 19 347 128 
L 347 722 
Q 666 556 975 473 
Q 1284 391 1588 391 
Q 1994 391 2212 530 
Q 2431 669 2431 922 
Q 2431 1156 2273 1281 
Q 2116 1406 1581 1522 
L 1381 1569 
Q 847 1681 609 1914 
Q 372 2147 372 2553 
Q 372 3047 722 3315 
Q 1072 3584 1716 3584 
Q 2034 3584 2315 3537 
Q 2597 3491 2834 3397 
z
" transform="scale(0.015625)"/>
      <path id="DejaVuSans-70" d="M 1159 525 
L 1159 -1331 
L 581 -1331 
L 581 3500 
L 1159 3500 
L 1159 2969 
Q 1341 3281 1617 3432 
Q 1894 3584 2278 3584 
Q 2916 3584 3314 3078 
Q 3713 2572 3713 1747 
Q 3713 922 3314 415 
Q 2916 -91 2278 -91 
Q 1894 -91 1617 61 
Q 1341 213 1159 525 
z
M 3116 1747 
Q 3116 2381 2855 2742 
Q 2594 3103 2138 3103 
Q 1681 3103 1420 2742 
Q 1159 2381 1159 1747 
Q 1159 1113 1420 752 
Q 1681 391 2138 391 
Q 2594 391 2855 752 
Q 3116 1113 3116 1747 
z
" transform="scale(0.015625)"/>
     </defs>
     <use xlink:href="#DejaVuSans-4d" transform="translate(0 0.765625)"/>
     <use xlink:href="#DejaVuSans-61" transform="translate(86.279297 0.765625)"/>
     <use xlink:href="#DejaVuSans-67" transform="translate(147.558594 0.765625)"/>
     <use xlink:href="#DejaVuSans-6e" transform="translate(211.035156 0.765625)"/>
     <use xlink:href="#DejaVuSans-69" transform="translate(274.414062 0.765625)"/>
     <use xlink:href="#DejaVuSans-74" transform="translate(302.197266 0.765625)"/>
     <use xlink:href="#DejaVuSans-75" transform="translate(341.40625 0.765625)"/>
     <use xlink:href="#DejaVuSans-64" transform="translate(404.785156 0.765625)"/>
     <use xlink:href="#DejaVuSans-65" transform="translate(468.261719 0.765625)"/>
     <use xlink:href="#DejaVuSans-20" transform="translate(529.785156 0.765625)"/>
     <use xlink:href="#DejaVuSans-72" transform="translate(561.572266 0.765625)"/>
     <use xlink:href="#DejaVuSans-65" transform="translate(602.685547 0.765625)"/>
     <use xlink:href="#DejaVuSans-73" transform="translate(664.208984 0.765625)"/>
     <use xlink:href="#DejaVuSans-70" transform="translate(716.308594 0.765625)"/>
     <use xlink:href="#DejaVuSans-6f" transform="translate(779.785156 0.765625)"/>
     <use xlink:href="#DejaVuSans-6e" transform="translate(840.966797 0.765625)"/>
     <use xlink:href="#DejaVuSans-73" transform="translate(904.345703 0.765625)"/>
     <use xlink:href="#DejaVuSans-65" transform="translate(956.445312 0.765625)"/>
     <use xlink:href="#DejaVuSans-2c" transform="translate(1017.96875 0.765625)"/>
     <use xlink:href="#DejaVuSans-20" transform="translate(1049.755859 0.765625)"/>
     <use xlink:href="#DejaVuSans-7c" transform="translate(1081.542969 0.765625)"/>
     <use xlink:href="#DejaVuSans-Oblique-48" transform="translate(1115.234375 0.765625)"/>
     <use xlink:href="#DejaVuSans-28" transform="translate(1190.429688 0.765625)"/>
     <use xlink:href="#DejaVuSans-Oblique-3c9" transform="translate(1229.443359 0.765625)"/>
     <use xlink:href="#DejaVuSans-29" transform="translate(1313.183594 0.765625)"/>
     <use xlink:href="#DejaVuSans-7c" transform="translate(1352.197266 0.765625)"/>
     <use xlink:href="#DejaVuSans-32" transform="translate(1386.845703 39.046875) scale(0.7)"/>
    </g>
   </g>
   <g id="legend_1">
    <g id="patch_7">
     <path d="M 445.315625 61.47625 
L 561.8 61.47625 
Q 563.8 61.47625 563.8 59.47625 
L 563.8 31.12 
Q 563.8 29.12 561.8 29.12 
L 445.315625 29.12 
Q 443.315625 29.12 443.315625 31.12 
L 443.315625 59.47625 
Q 443.315625 61.47625 445.315625 61.47625 
z
" style="fill: #ffffff; opacity: 0.8; stroke: #cccccc; stroke-linejoin: miter"/>
    </g>
    <g id="line2d_33">
     <path d="M 447.315625 37.218437 
L 457.315625 37.218437 
L 467.315625 37.218437 
" style="fill: none; stroke: #1f77b4; stroke-linecap: square"/>
    </g>
    <g id="text_19">
     <!-- Moving Averager -->
     <g transform="translate(475.315625 40.718437) scale(0.1 -0.1)">
      <defs>
       <path id="DejaVuSans-76" d="M 191 3500 
L 800 3500 
L 1894 563 
L 2988 3500 
L 3597 3500 
L 2284 0 
L 1503 0 
L 191 3500 
z
" transform="scale(0.015625)"/>
       <path id="DejaVuSans-41" d="M 2188 4044 
L 1331 1722 
L 3047 1722 
L 2188 4044 
z
M 1831 4666 
L 2547 4666 
L 4325 0 
L 3669 0 
L 3244 1197 
L 1141 1197 
L 716 0 
L 50 0 
L 1831 4666 
z
" transform="scale(0.015625)"/>
      </defs>
      <use xlink:href="#DejaVuSans-4d"/>
      <use xlink:href="#DejaVuSans-6f" transform="translate(86.279297 0)"/>
      <use xlink:href="#DejaVuSans-76" transform="translate(147.460938 0)"/>
      <use xlink:href="#DejaVuSans-69" transform="translate(206.640625 0)"/>
      <use xlink:href="#DejaVuSans-6e" transform="translate(234.423828 0)"/>
      <use xlink:href="#DejaVuSans-67" transform="translate(297.802734 0)"/>
      <use xlink:href="#DejaVuSans-20" transform="translate(361.279297 0)"/>
      <use xlink:href="#DejaVuSans-41" transform="translate(393.066406 0)"/>
      <use xlink:href="#DejaVuSans-76" transform="translate(455.599609 0)"/>
      <use xlink:href="#DejaVuSans-65" transform="translate(514.779297 0)"/>
      <use xlink:href="#DejaVuSans-72" transform="translate(576.302734 0)"/>
      <use xlink:href="#DejaVuSans-61" transform="translate(617.416016 0)"/>
      <use xlink:href="#DejaVuSans-67" transform="translate(678.695312 0)"/>
      <use xlink:href="#DejaVuSans-65" transform="translate(742.171875 0)"/>
      <use xlink:href="#DejaVuSans-72" transform="translate(803.695312 0)"/>
     </g>
    </g>
    <g id="line2d_34">
     <path d="M 447.315625 51.896562 
L 457.315625 51.896562 
L 467.315625 51.896562 
" style="fill: none; stroke: #ff7f0e; stroke-linecap: square"/>
    </g>
    <g id="text_20">
     <!-- Leaky Integrator -->
     <g transform="translate(475.315625 55.396562) scale(0.1 -0.1)">
      <defs>
       <path id="DejaVuSans-4c" d="M 628 4666 
L 1259 4666 
L 1259 531 
L 3531 531 
L 3531 0 
L 628 0 
L 628 4666 
z
" transform="scale(0.015625)"/>
       <path id="DejaVuSans-6b" d="M 581 4863 
L 1159 4863 
L 1159 1991 
L 2875 3500 
L 3609 3500 
L 1753 1863 
L 3688 0 
L 2938 0 
L 1159 1709 
L 1159 0 
L 581 0 
L 581 4863 
z
" transform="scale(0.015625)"/>
       <path id="DejaVuSans-49" d="M 628 4666 
L 1259 4666 
L 1259 0 
L 628 0 
L 628 4666 
z
" transform="scale(0.015625)"/>
      </defs>
      <use xlink:href="#DejaVuSans-4c"/>
      <use xlink:href="#DejaVuSans-65" transform="translate(53.962891 0)"/>
      <use xlink:href="#DejaVuSans-61" transform="translate(115.486328 0)"/>
      <use xlink:href="#DejaVuSans-6b" transform="translate(176.765625 0)"/>
      <use xlink:href="#DejaVuSans-79" transform="translate(231.050781 0)"/>
      <use xlink:href="#DejaVuSans-20" transform="translate(290.230469 0)"/>
      <use xlink:href="#DejaVuSans-49" transform="translate(322.017578 0)"/>
      <use xlink:href="#DejaVuSans-6e" transform="translate(351.509766 0)"/>
      <use xlink:href="#DejaVuSans-74" transform="translate(414.888672 0)"/>
      <use xlink:href="#DejaVuSans-65" transform="translate(454.097656 0)"/>
      <use xlink:href="#DejaVuSans-67" transform="translate(515.621094 0)"/>
      <use xlink:href="#DejaVuSans-72" transform="translate(579.097656 0)"/>
      <use xlink:href="#DejaVuSans-61" transform="translate(620.210938 0)"/>
      <use xlink:href="#DejaVuSans-74" transform="translate(681.490234 0)"/>
      <use xlink:href="#DejaVuSans-6f" transform="translate(720.699219 0)"/>
      <use xlink:href="#DejaVuSans-72" transform="translate(781.880859 0)"/>
     </g>
    </g>
   </g>
  </g>
 </g>
 <defs>
  <clipPath id="p838ffca285">
   <rect x="50.804688" y="24.12" width="517.995313" height="226.301875"/>
  </clipPath>
 </defs>
</svg>
