<?xml version="1.0" encoding="utf-8" standalone="no"?>
<!DOCTYPE svg PUBLIC "-//W3C//DTD SVG 1.1//EN"
  "http://www.w3.org/Graphics/SVG/1.1/DTD/svg11.dtd">
<svg xmlns:xlink="http://www.w3.org/1999/xlink" width="576pt" height="288pt" viewBox="0 0 576 288" xmlns="http://www.w3.org/2000/svg" version="1.1">
 <metadata>
  <rdf:RDF xmlns:dc="http://purl.org/dc/elements/1.1/" xmlns:cc="http://creativecommons.org/ns#" xmlns:rdf="http://www.w3.org/1999/02/22-rdf-syntax-ns#">
   <cc:Work>
    <dc:type rdf:resource="http://purl.org/dc/dcmitype/StillImage"/>
    <dc:date>2026-05-03T16:48:31.844713</dc:date>
    <dc:format>image/svg+xml</dc:format>
    <dc:creator>
     <cc:Agent>
      <dc:title>Matplotlib v3.10.9, https://matplotlib.org/</dc:title>
     </cc:Agent>
    </dc:creator>
   </cc:Work>
  </rdf:RDF>
 </metadata>
 <defs>
  <style type="text/css">*{stroke-linejoin: round; stroke-linecap: butt}</style>
 </defs>
 <g id="figure_1">
  <g id="patch_1">
   <path d="M 0 288 
L 576 288 
L 576 0 
L 0 0 
z
" style="fill: #ffffff"/>
  </g>
  <g id="axes_1">
   <g id="patch_2">
    <path d="M 53.35 250.421875 
L 557.667188 250.421875 
L 557.667188 22.318125 
L 53.35 22.318125 
z
" style="fill: #ffffff"/>
   </g>
   <g id="matplotlib.axis_1">
    <g id="xtick_1">
     <g id="line2d_1">
      <path d="M 53.35 250.421875 
L 53.35 22.318125 
" clip-path="url(#p58c0c35ff0)" style="fill: none; stroke-dasharray: 2.96,1.28; stroke-dashoffset: 0; stroke: #b0b0b0; stroke-opacity: 0.8; stroke-width: 0.8"/>
     </g>
     <g id="line2d_2">
      <defs>
       <path id="m8af82aeccc" d="M 0 0 
L 0 3.5 
" style="stroke: #000000; stroke-width: 0.8"/>
      </defs>
      <g>
       <use xlink:href="#m8af82aeccc" x="53.35" y="250.421875" style="stroke: #000000; stroke-width: 0.8"/>
      </g>
     </g>
     <g id="text_1">
      <!-- 0.08 -->
      <g transform="translate(42.217188 265.020312) scale(0.1 -0.1)">
       <defs>
        <path id="DejaVuSans-30" d="M 2034 4250 
Q 1547 4250 1301 3770 
Q 1056 3291 1056 2328 
Q 1056 1369 1301 889 
Q 1547 409 2034 409 
Q 2525 409 2770 889 
Q 3016 1369 3016 2328 
Q 3016 3291 2770 3770 
Q 2525 4250 2034 4250 
z
M 2034 4750 
Q 2819 4750 3233 4129 
Q 3647 3509 3647 2328 
Q 3647 1150 3233 529 
Q 2819 -91 2034 -91 
Q 1250 -91 836 529 
Q 422 1150 422 2328 
Q 422 3509 836 4129 
Q 1250 4750 2034 4750 
z
" transform="scale(0.015625)"/>
        <path id="DejaVuSans-2e" d="M 684 794 
L 1344 794 
L 1344 0 
L 684 0 
L 684 794 
z
" transform="scale(0.015625)"/>
        <path id="DejaVuSans-38" d="M 2034 2216 
Q 1584 2216 1326 1975 
Q 1069 1734 1069 1313 
Q 1069 891 1326 650 
Q 1584 409 2034 409 
Q 2484 409 2743 651 
Q 3003 894 3003 1313 
Q 3003 1734 2745 1975 
Q 2488 2216 2034 2216 
z
M 1403 2484 
Q 997 2584 770 2862 
Q 544 3141 544 3541 
Q 544 4100 942 4425 
Q 1341 4750 2034 4750 
Q 2731 4750 3128 4425 
Q 3525 4100 3525 3541 
Q 3525 3141 3298 2862 
Q 3072 2584 2669 2484 
Q 3125 2378 3379 2068 
Q 3634 1759 3634 1313 
Q 3634 634 3220 271 
Q 2806 -91 2034 -91 
Q 1263 -91 848 271 
Q 434 634 434 1313 
Q 434 1759 690 2068 
Q 947 2378 1403 2484 
z
M 1172 3481 
Q 1172 3119 1398 2916 
Q 1625 2713 2034 2713 
Q 2441 2713 2670 2916 
Q 2900 3119 2900 3481 
Q 2900 3844 2670 4047 
Q 2441 4250 2034 4250 
Q 1625 4250 1398 4047 
Q 1172 3844 1172 3481 
z
" transform="scale(0.015625)"/>
       </defs>
       <use xlink:href="#DejaVuSans-30"/>
       <use xlink:href="#DejaVuSans-2e" transform="translate(63.623047 0)"/>
       <use xlink:href="#DejaVuSans-30" transform="translate(95.410156 0)"/>
       <use xlink:href="#DejaVuSans-38" transform="translate(159.033203 0)"/>
      </g>
     </g>
    </g>
    <g id="xtick_2">
     <g id="line2d_3">
      <path d="M 137.402865 250.421875 
L 137.402865 22.318125 
" clip-path="url(#p58c0c35ff0)" style="fill: none; stroke-dasharray: 2.96,1.28; stroke-dashoffset: 0; stroke: #b0b0b0; stroke-opacity: 0.8; stroke-width: 0.8"/>
     </g>
     <g id="line2d_4">
      <g>
       <use xlink:href="#m8af82aeccc" x="137.402865" y="250.421875" style="stroke: #000000; stroke-width: 0.8"/>
      </g>
     </g>
     <g id="text_2">
      <!-- 0.09 -->
      <g transform="translate(126.270052 265.020312) scale(0.1 -0.1)">
       <defs>
        <path id="DejaVuSans-39" d="M 703 97 
L 703 672 
Q 941 559 1184 500 
Q 1428 441 1663 441 
Q 2288 441 2617 861 
Q 2947 1281 2994 2138 
Q 2813 1869 2534 1725 
Q 2256 1581 1919 1581 
Q 1219 1581 811 2004 
Q 403 2428 403 3163 
Q 403 3881 828 4315 
Q 1253 4750 1959 4750 
Q 2769 4750 3195 4129 
Q 3622 3509 3622 2328 
Q 3622 1225 3098 567 
Q 2575 -91 1691 -91 
Q 1453 -91 1209 -44 
Q 966 3 703 97 
z
M 1959 2075 
Q 2384 2075 2632 2365 
Q 2881 2656 2881 3163 
Q 2881 3666 2632 3958 
Q 2384 4250 1959 4250 
Q 1534 4250 1286 3958 
Q 1038 3666 1038 3163 
Q 1038 2656 1286 2365 
Q 1534 2075 1959 2075 
z
" transform="scale(0.015625)"/>
       </defs>
       <use xlink:href="#DejaVuSans-30"/>
       <use xlink:href="#DejaVuSans-2e" transform="translate(63.623047 0)"/>
       <use xlink:href="#DejaVuSans-30" transform="translate(95.410156 0)"/>
       <use xlink:href="#DejaVuSans-39" transform="translate(159.033203 0)"/>
      </g>
     </g>
    </g>
    <g id="xtick_3">
     <g id="line2d_5">
      <path d="M 221.455729 250.421875 
L 221.455729 22.318125 
" clip-path="url(#p58c0c35ff0)" style="fill: none; stroke-dasharray: 2.96,1.28; stroke-dashoffset: 0; stroke: #b0b0b0; stroke-opacity: 0.8; stroke-width: 0.8"/>
     </g>
     <g id="line2d_6">
      <g>
       <use xlink:href="#m8af82aeccc" x="221.455729" y="250.421875" style="stroke: #000000; stroke-width: 0.8"/>
      </g>
     </g>
     <g id="text_3">
      <!-- 0.1 -->
      <g transform="translate(213.504167 265.020312) scale(0.1 -0.1)">
       <defs>
        <path id="DejaVuSans-31" d="M 794 531 
L 1825 531 
L 1825 4091 
L 703 3866 
L 703 4441 
L 1819 4666 
L 2450 4666 
L 2450 531 
L 3481 531 
L 3481 0 
L 794 0 
L 794 531 
z
" transform="scale(0.015625)"/>
       </defs>
       <use xlink:href="#DejaVuSans-30"/>
       <use xlink:href="#DejaVuSans-2e" transform="translate(63.623047 0)"/>
       <use xlink:href="#DejaVuSans-31" transform="translate(95.410156 0)"/>
      </g>
     </g>
    </g>
    <g id="xtick_4">
     <g id="line2d_7">
      <path d="M 305.508594 250.421875 
L 305.508594 22.318125 
" clip-path="url(#p58c0c35ff0)" style="fill: none; stroke-dasharray: 2.96,1.28; stroke-dashoffset: 0; stroke: #b0b0b0; stroke-opacity: 0.8; stroke-width: 0.8"/>
     </g>
     <g id="line2d_8">
      <g>
       <use xlink:href="#m8af82aeccc" x="305.508594" y="250.421875" style="stroke: #000000; stroke-width: 0.8"/>
      </g>
     </g>
     <g id="text_4">
      <!-- 0.11 -->
      <g transform="translate(294.375781 265.020312) scale(0.1 -0.1)">
       <use xlink:href="#DejaVuSans-30"/>
       <use xlink:href="#DejaVuSans-2e" transform="translate(63.623047 0)"/>
       <use xlink:href="#DejaVuSans-31" transform="translate(95.410156 0)"/>
       <use xlink:href="#DejaVuSans-31" transform="translate(159.033203 0)"/>
      </g>
     </g>
    </g>
    <g id="xtick_5">
     <g id="line2d_9">
      <path d="M 389.561458 250.421875 
L 389.561458 22.318125 
" clip-path="url(#p58c0c35ff0)" style="fill: none; stroke-dasharray: 2.96,1.28; stroke-dashoffset: 0; stroke: #b0b0b0; stroke-opacity: 0.8; stroke-width: 0.8"/>
     </g>
     <g id="line2d_10">
      <g>
       <use xlink:href="#m8af82aeccc" x="389.561458" y="250.421875" style="stroke: #000000; stroke-width: 0.8"/>
      </g>
     </g>
     <g id="text_5">
      <!-- 0.12 -->
      <g transform="translate(378.428646 265.020312) scale(0.1 -0.1)">
       <defs>
        <path id="DejaVuSans-32" d="M 1228 531 
L 3431 531 
L 3431 0 
L 469 0 
L 469 531 
Q 828 903 1448 1529 
Q 2069 2156 2228 2338 
Q 2531 2678 2651 2914 
Q 2772 3150 2772 3378 
Q 2772 3750 2511 3984 
Q 2250 4219 1831 4219 
Q 1534 4219 1204 4116 
Q 875 4013 500 3803 
L 500 4441 
Q 881 4594 1212 4672 
Q 1544 4750 1819 4750 
Q 2544 4750 2975 4387 
Q 3406 4025 3406 3419 
Q 3406 3131 3298 2873 
Q 3191 2616 2906 2266 
Q 2828 2175 2409 1742 
Q 1991 1309 1228 531 
z
" transform="scale(0.015625)"/>
       </defs>
       <use xlink:href="#DejaVuSans-30"/>
       <use xlink:href="#DejaVuSans-2e" transform="translate(63.623047 0)"/>
       <use xlink:href="#DejaVuSans-31" transform="translate(95.410156 0)"/>
       <use xlink:href="#DejaVuSans-32" transform="translate(159.033203 0)"/>
      </g>
     </g>
    </g>
    <g id="xtick_6">
     <g id="line2d_11">
      <path d="M 473.614323 250.421875 
L 473.614323 22.318125 
" clip-path="url(#p58c0c35ff0)" style="fill: none; stroke-dasharray: 2.96,1.28; stroke-dashoffset: 0; stroke: #b0b0b0; stroke-opacity: 0.8; stroke-width: 0.8"/>
     </g>
     <g id="line2d_12">
      <g>
       <use xlink:href="#m8af82aeccc" x="473.614323" y="250.421875" style="stroke: #000000; stroke-width: 0.8"/>
      </g>
     </g>
     <g id="text_6">
      <!-- 0.13 -->
      <g transform="translate(462.48151 265.020312) scale(0.1 -0.1)">
       <defs>
        <path id="DejaVuSans-33" d="M 2597 2516 
Q 3050 2419 3304 2112 
Q 3559 1806 3559 1356 
Q 3559 666 3084 287 
Q 2609 -91 1734 -91 
Q 1441 -91 1130 -33 
Q 819 25 488 141 
L 488 750 
Q 750 597 1062 519 
Q 1375 441 1716 441 
Q 2309 441 2620 675 
Q 2931 909 2931 1356 
Q 2931 1769 2642 2001 
Q 2353 2234 1838 2234 
L 1294 2234 
L 1294 2753 
L 1863 2753 
Q 2328 2753 2575 2939 
Q 2822 3125 2822 3475 
Q 2822 3834 2567 4026 
Q 2313 4219 1838 4219 
Q 1578 4219 1281 4162 
Q 984 4106 628 3988 
L 628 4550 
Q 988 4650 1302 4700 
Q 1616 4750 1894 4750 
Q 2613 4750 3031 4423 
Q 3450 4097 3450 3541 
Q 3450 3153 3228 2886 
Q 3006 2619 2597 2516 
z
" transform="scale(0.015625)"/>
       </defs>
       <use xlink:href="#DejaVuSans-30"/>
       <use xlink:href="#DejaVuSans-2e" transform="translate(63.623047 0)"/>
       <use xlink:href="#DejaVuSans-31" transform="translate(95.410156 0)"/>
       <use xlink:href="#DejaVuSans-33" transform="translate(159.033203 0)"/>
      </g>
     </g>
    </g>
    <g id="xtick_7">
     <g id="line2d_13">
      <path d="M 557.667188 250.421875 
L 557.667188 22.318125 
" clip-path="url(#p58c0c35ff0)" style="fill: none; stroke-dasharray: 2.96,1.28; stroke-dashoffset: 0; stroke: #b0b0b0; stroke-opacity: 0.8; stroke-width: 0.8"/>
     </g>
     <g id="line2d_14">
      <g>
       <use xlink:href="#m8af82aeccc" x="557.667188" y="250.421875" style="stroke: #000000; stroke-width: 0.8"/>
      </g>
     </g>
     <g id="text_7">
      <!-- 0.14 -->
      <g transform="translate(546.534375 265.020312) scale(0.1 -0.1)">
       <defs>
        <path id="DejaVuSans-34" d="M 2419 4116 
L 825 1625 
L 2419 1625 
L 2419 4116 
z
M 2253 4666 
L 3047 4666 
L 3047 1625 
L 3713 1625 
L 3713 1100 
L 3047 1100 
L 3047 0 
L 2419 0 
L 2419 1100 
L 313 1100 
L 313 1709 
L 2253 4666 
z
" transform="scale(0.015625)"/>
       </defs>
       <use xlink:href="#DejaVuSans-30"/>
       <use xlink:href="#DejaVuSans-2e" transform="translate(63.623047 0)"/>
       <use xlink:href="#DejaVuSans-31" transform="translate(95.410156 0)"/>
       <use xlink:href="#DejaVuSans-34" transform="translate(159.033203 0)"/>
      </g>
     </g>
    </g>
    <g id="text_8">
     <!-- Frequency (MHz), $f$ -->
     <g transform="translate(258.058594 278.7) scale(0.1 -0.1)">
      <defs>
       <path id="DejaVuSans-46" d="M 628 4666 
L 3309 4666 
L 3309 4134 
L 1259 4134 
L 1259 2759 
L 3109 2759 
L 3109 2228 
L 1259 2228 
L 1259 0 
L 628 0 
L 628 4666 
z
" transform="scale(0.015625)"/>
       <path id="DejaVuSans-72" d="M 2631 2963 
Q 2534 3019 2420 3045 
Q 2306 3072 2169 3072 
Q 1681 3072 1420 2755 
Q 1159 2438 1159 1844 
L 1159 0 
L 581 0 
L 581 3500 
L 1159 3500 
L 1159 2956 
Q 1341 3275 1631 3429 
Q 1922 3584 2338 3584 
Q 2397 3584 2469 3576 
Q 2541 3569 2628 3553 
L 2631 2963 
z
" transform="scale(0.015625)"/>
       <path id="DejaVuSans-65" d="M 3597 1894 
L 3597 1613 
L 953 1613 
Q 991 1019 1311 708 
Q 1631 397 2203 397 
Q 2534 397 2845 478 
Q 3156 559 3463 722 
L 3463 178 
Q 3153 47 2828 -22 
Q 2503 -91 2169 -91 
Q 1331 -91 842 396 
Q 353 884 353 1716 
Q 353 2575 817 3079 
Q 1281 3584 2069 3584 
Q 2775 3584 3186 3129 
Q 3597 2675 3597 1894 
z
M 3022 2063 
Q 3016 2534 2758 2815 
Q 2500 3097 2075 3097 
Q 1594 3097 1305 2825 
Q 1016 2553 972 2059 
L 3022 2063 
z
" transform="scale(0.015625)"/>
       <path id="DejaVuSans-71" d="M 947 1747 
Q 947 1113 1208 752 
Q 1469 391 1925 391 
Q 2381 391 2643 752 
Q 2906 1113 2906 1747 
Q 2906 2381 2643 2742 
Q 2381 3103 1925 3103 
Q 1469 3103 1208 2742 
Q 947 2381 947 1747 
z
M 2906 525 
Q 2725 213 2448 61 
Q 2172 -91 1784 -91 
Q 1150 -91 751 415 
Q 353 922 353 1747 
Q 353 2572 751 3078 
Q 1150 3584 1784 3584 
Q 2172 3584 2448 3432 
Q 2725 3281 2906 2969 
L 2906 3500 
L 3481 3500 
L 3481 -1331 
L 2906 -1331 
L 2906 525 
z
" transform="scale(0.015625)"/>
       <path id="DejaVuSans-75" d="M 544 1381 
L 544 3500 
L 1119 3500 
L 1119 1403 
Q 1119 906 1312 657 
Q 1506 409 1894 409 
Q 2359 409 2629 706 
Q 2900 1003 2900 1516 
L 2900 3500 
L 3475 3500 
L 3475 0 
L 2900 0 
L 2900 538 
Q 2691 219 2414 64 
Q 2138 -91 1772 -91 
Q 1169 -91 856 284 
Q 544 659 544 1381 
z
M 1991 3584 
L 1991 3584 
z
" transform="scale(0.015625)"/>
       <path id="DejaVuSans-6e" d="M 3513 2113 
L 3513 0 
L 2938 0 
L 2938 2094 
Q 2938 2591 2744 2837 
Q 2550 3084 2163 3084 
Q 1697 3084 1428 2787 
Q 1159 2491 1159 1978 
L 1159 0 
L 581 0 
L 581 3500 
L 1159 3500 
L 1159 2956 
Q 1366 3272 1645 3428 
Q 1925 3584 2291 3584 
Q 2894 3584 3203 3211 
Q 3513 2838 3513 2113 
z
" transform="scale(0.015625)"/>
       <path id="DejaVuSans-63" d="M 3122 3366 
L 3122 2828 
Q 2878 2963 2633 3030 
Q 2388 3097 2138 3097 
Q 1578 3097 1268 2742 
Q 959 2388 959 1747 
Q 959 1106 1268 751 
Q 1578 397 2138 397 
Q 2388 397 2633 464 
Q 2878 531 3122 666 
L 3122 134 
Q 2881 22 2623 -34 
Q 2366 -91 2075 -91 
Q 1284 -91 818 406 
Q 353 903 353 1747 
Q 353 2603 823 3093 
Q 1294 3584 2113 3584 
Q 2378 3584 2631 3529 
Q 2884 3475 3122 3366 
z
" transform="scale(0.015625)"/>
       <path id="DejaVuSans-79" d="M 2059 -325 
Q 1816 -950 1584 -1140 
Q 1353 -1331 966 -1331 
L 506 -1331 
L 506 -850 
L 844 -850 
Q 1081 -850 1212 -737 
Q 1344 -625 1503 -206 
L 1606 56 
L 191 3500 
L 800 3500 
L 1894 763 
L 2988 3500 
L 3597 3500 
L 2059 -325 
z
" transform="scale(0.015625)"/>
       <path id="DejaVuSans-20" transform="scale(0.015625)"/>
       <path id="DejaVuSans-28" d="M 1984 4856 
Q 1566 4138 1362 3434 
Q 1159 2731 1159 2009 
Q 1159 1288 1364 580 
Q 1569 -128 1984 -844 
L 1484 -844 
Q 1016 -109 783 600 
Q 550 1309 550 2009 
Q 550 2706 781 3412 
Q 1013 4119 1484 4856 
L 1984 4856 
z
" transform="scale(0.015625)"/>
       <path id="DejaVuSans-4d" d="M 628 4666 
L 1569 4666 
L 2759 1491 
L 3956 4666 
L 4897 4666 
L 4897 0 
L 4281 0 
L 4281 4097 
L 3078 897 
L 2444 897 
L 1241 4097 
L 1241 0 
L 628 0 
L 628 4666 
z
" transform="scale(0.015625)"/>
       <path id="DejaVuSans-48" d="M 628 4666 
L 1259 4666 
L 1259 2753 
L 3553 2753 
L 3553 4666 
L 4184 4666 
L 4184 0 
L 3553 0 
L 3553 2222 
L 1259 2222 
L 1259 0 
L 628 0 
L 628 4666 
z
" transform="scale(0.015625)"/>
       <path id="DejaVuSans-7a" d="M 353 3500 
L 3084 3500 
L 3084 2975 
L 922 459 
L 3084 459 
L 3084 0 
L 275 0 
L 275 525 
L 2438 3041 
L 353 3041 
L 353 3500 
z
" transform="scale(0.015625)"/>
       <path id="DejaVuSans-29" d="M 513 4856 
L 1013 4856 
Q 1481 4119 1714 3412 
Q 1947 2706 1947 2009 
Q 1947 1309 1714 600 
Q 1481 -109 1013 -844 
L 513 -844 
Q 928 -128 1133 580 
Q 1338 1288 1338 2009 
Q 1338 2731 1133 3434 
Q 928 4138 513 4856 
z
" transform="scale(0.015625)"/>
       <path id="DejaVuSans-2c" d="M 750 794 
L 1409 794 
L 1409 256 
L 897 -744 
L 494 -744 
L 750 256 
L 750 794 
z
" transform="scale(0.015625)"/>
       <path id="DejaVuSans-Oblique-66" d="M 3059 4863 
L 2969 4384 
L 2419 4384 
Q 2106 4384 1964 4261 
Q 1822 4138 1753 3809 
L 1691 3500 
L 2638 3500 
L 2553 3053 
L 1606 3053 
L 1013 0 
L 434 0 
L 1031 3053 
L 481 3053 
L 563 3500 
L 1113 3500 
L 1159 3744 
Q 1278 4363 1576 4613 
Q 1875 4863 2516 4863 
L 3059 4863 
z
" transform="scale(0.015625)"/>
      </defs>
      <use xlink:href="#DejaVuSans-46" transform="translate(0 0.015625)"/>
      <use xlink:href="#DejaVuSans-72" transform="translate(57.519531 0.015625)"/>
      <use xlink:href="#DejaVuSans-65" transform="translate(98.632812 0.015625)"/>
      <use xlink:href="#DejaVuSans-71" transform="translate(160.15625 0.015625)"/>
      <use xlink:href="#DejaVuSans-75" transform="translate(223.632812 0.015625)"/>
      <use xlink:href="#DejaVuSans-65" transform="translate(287.011719 0.015625)"/>
      <use xlink:href="#DejaVuSans-6e" transform="translate(348.535156 0.015625)"/>
      <use xlink:href="#DejaVuSans-63" transform="translate(411.914062 0.015625)"/>
      <use xlink:href="#DejaVuSans-79" transform="translate(466.894531 0.015625)"/>
      <use xlink:href="#DejaVuSans-20" transform="translate(526.074219 0.015625)"/>
      <use xlink:href="#DejaVuSans-28" transform="translate(557.861328 0.015625)"/>
      <use xlink:href="#DejaVuSans-4d" transform="translate(596.875 0.015625)"/>
      <use xlink:href="#DejaVuSans-48" transform="translate(683.154297 0.015625)"/>
      <use xlink:href="#DejaVuSans-7a" transform="translate(758.349609 0.015625)"/>
      <use xlink:href="#DejaVuSans-29" transform="translate(810.839844 0.015625)"/>
      <use xlink:href="#DejaVuSans-2c" transform="translate(849.853516 0.015625)"/>
      <use xlink:href="#DejaVuSans-20" transform="translate(881.640625 0.015625)"/>
      <use xlink:href="#DejaVuSans-Oblique-66" transform="translate(913.427734 0.015625)"/>
     </g>
    </g>
   </g>
   <g id="matplotlib.axis_2">
    <g id="ytick_1">
     <g id="line2d_15">
      <path d="M 53.35 240.053523 
L 557.667188 240.053523 
" clip-path="url(#p58c0c35ff0)" style="fill: none; stroke-dasharray: 2.96,1.28; stroke-dashoffset: 0; stroke: #b0b0b0; stroke-opacity: 0.8; stroke-width: 0.8"/>
     </g>
     <g id="line2d_16">
      <defs>
       <path id="m88996b67cf" d="M 0 0 
L -3.5 0 
" style="stroke: #000000; stroke-width: 0.8"/>
      </defs>
      <g>
       <use xlink:href="#m88996b67cf" x="53.35" y="240.053523" style="stroke: #000000; stroke-width: 0.8"/>
      </g>
     </g>
     <g id="text_9">
      <!-- 0 -->
      <g transform="translate(39.9875 243.852741) scale(0.1 -0.1)">
       <use xlink:href="#DejaVuSans-30"/>
      </g>
     </g>
    </g>
    <g id="ytick_2">
     <g id="line2d_17">
      <path d="M 53.35 198.580215 
L 557.667188 198.580215 
" clip-path="url(#p58c0c35ff0)" style="fill: none; stroke-dasharray: 2.96,1.28; stroke-dashoffset: 0; stroke: #b0b0b0; stroke-opacity: 0.8; stroke-width: 0.8"/>
     </g>
     <g id="line2d_18">
      <g>
       <use xlink:href="#m88996b67cf" x="53.35" y="198.580215" style="stroke: #000000; stroke-width: 0.8"/>
      </g>
     </g>
     <g id="text_10">
      <!-- 200 -->
      <g transform="translate(27.2625 202.379434) scale(0.1 -0.1)">
       <use xlink:href="#DejaVuSans-32"/>
       <use xlink:href="#DejaVuSans-30" transform="translate(63.623047 0)"/>
       <use xlink:href="#DejaVuSans-30" transform="translate(127.246094 0)"/>
      </g>
     </g>
    </g>
    <g id="ytick_3">
     <g id="line2d_19">
      <path d="M 53.35 157.106908 
L 557.667188 157.106908 
" clip-path="url(#p58c0c35ff0)" style="fill: none; stroke-dasharray: 2.96,1.28; stroke-dashoffset: 0; stroke: #b0b0b0; stroke-opacity: 0.8; stroke-width: 0.8"/>
     </g>
     <g id="line2d_20">
      <g>
       <use xlink:href="#m88996b67cf" x="53.35" y="157.106908" style="stroke: #000000; stroke-width: 0.8"/>
      </g>
     </g>
     <g id="text_11">
      <!-- 400 -->
      <g transform="translate(27.2625 160.906126) scale(0.1 -0.1)">
       <use xlink:href="#DejaVuSans-34"/>
       <use xlink:href="#DejaVuSans-30" transform="translate(63.623047 0)"/>
       <use xlink:href="#DejaVuSans-30" transform="translate(127.246094 0)"/>
      </g>
     </g>
    </g>
    <g id="ytick_4">
     <g id="line2d_21">
      <path d="M 53.35 115.6336 
L 557.667188 115.6336 
" clip-path="url(#p58c0c35ff0)" style="fill: none; stroke-dasharray: 2.96,1.28; stroke-dashoffset: 0; stroke: #b0b0b0; stroke-opacity: 0.8; stroke-width: 0.8"/>
     </g>
     <g id="line2d_22">
      <g>
       <use xlink:href="#m88996b67cf" x="53.35" y="115.6336" style="stroke: #000000; stroke-width: 0.8"/>
      </g>
     </g>
     <g id="text_12">
      <!-- 600 -->
      <g transform="translate(27.2625 119.432819) scale(0.1 -0.1)">
       <defs>
        <path id="DejaVuSans-36" d="M 2113 2584 
Q 1688 2584 1439 2293 
Q 1191 2003 1191 1497 
Q 1191 994 1439 701 
Q 1688 409 2113 409 
Q 2538 409 2786 701 
Q 3034 994 3034 1497 
Q 3034 2003 2786 2293 
Q 2538 2584 2113 2584 
z
M 3366 4563 
L 3366 3988 
Q 3128 4100 2886 4159 
Q 2644 4219 2406 4219 
Q 1781 4219 1451 3797 
Q 1122 3375 1075 2522 
Q 1259 2794 1537 2939 
Q 1816 3084 2150 3084 
Q 2853 3084 3261 2657 
Q 3669 2231 3669 1497 
Q 3669 778 3244 343 
Q 2819 -91 2113 -91 
Q 1303 -91 875 529 
Q 447 1150 447 2328 
Q 447 3434 972 4092 
Q 1497 4750 2381 4750 
Q 2619 4750 2861 4703 
Q 3103 4656 3366 4563 
z
" transform="scale(0.015625)"/>
       </defs>
       <use xlink:href="#DejaVuSans-36"/>
       <use xlink:href="#DejaVuSans-30" transform="translate(63.623047 0)"/>
       <use xlink:href="#DejaVuSans-30" transform="translate(127.246094 0)"/>
      </g>
     </g>
    </g>
    <g id="ytick_5">
     <g id="line2d_23">
      <path d="M 53.35 74.160292 
L 557.667188 74.160292 
" clip-path="url(#p58c0c35ff0)" style="fill: none; stroke-dasharray: 2.96,1.28; stroke-dashoffset: 0; stroke: #b0b0b0; stroke-opacity: 0.8; stroke-width: 0.8"/>
     </g>
     <g id="line2d_24">
      <g>
       <use xlink:href="#m88996b67cf" x="53.35" y="74.160292" style="stroke: #000000; stroke-width: 0.8"/>
      </g>
     </g>
     <g id="text_13">
      <!-- 800 -->
      <g transform="translate(27.2625 77.959511) scale(0.1 -0.1)">
       <use xlink:href="#DejaVuSans-38"/>
       <use xlink:href="#DejaVuSans-30" transform="translate(63.623047 0)"/>
       <use xlink:href="#DejaVuSans-30" transform="translate(127.246094 0)"/>
      </g>
     </g>
    </g>
    <g id="ytick_6">
     <g id="line2d_25">
      <path d="M 53.35 32.686985 
L 557.667188 32.686985 
" clip-path="url(#p58c0c35ff0)" style="fill: none; stroke-dasharray: 2.96,1.28; stroke-dashoffset: 0; stroke: #b0b0b0; stroke-opacity: 0.8; stroke-width: 0.8"/>
     </g>
     <g id="line2d_26">
      <g>
       <use xlink:href="#m88996b67cf" x="53.35" y="32.686985" style="stroke: #000000; stroke-width: 0.8"/>
      </g>
     </g>
     <g id="text_14">
      <!-- 1000 -->
      <g transform="translate(20.9 36.486204) scale(0.1 -0.1)">
       <use xlink:href="#DejaVuSans-31"/>
       <use xlink:href="#DejaVuSans-30" transform="translate(63.623047 0)"/>
       <use xlink:href="#DejaVuSans-30" transform="translate(127.246094 0)"/>
       <use xlink:href="#DejaVuSans-30" transform="translate(190.869141 0)"/>
      </g>
     </g>
    </g>
    <g id="text_15">
     <!-- Magnitude, $\left| X(f) \right|$ -->
     <g transform="translate(14.8 178.17) rotate(-90) scale(0.1 -0.1)">
      <defs>
       <path id="DejaVuSans-61" d="M 2194 1759 
Q 1497 1759 1228 1600 
Q 959 1441 959 1056 
Q 959 750 1161 570 
Q 1363 391 1709 391 
Q 2188 391 2477 730 
Q 2766 1069 2766 1631 
L 2766 1759 
L 2194 1759 
z
M 3341 1997 
L 3341 0 
L 2766 0 
L 2766 531 
Q 2569 213 2275 61 
Q 1981 -91 1556 -91 
Q 1019 -91 701 211 
Q 384 513 384 1019 
Q 384 1609 779 1909 
Q 1175 2209 1959 2209 
L 2766 2209 
L 2766 2266 
Q 2766 2663 2505 2880 
Q 2244 3097 1772 3097 
Q 1472 3097 1187 3025 
Q 903 2953 641 2809 
L 641 3341 
Q 956 3463 1253 3523 
Q 1550 3584 1831 3584 
Q 2591 3584 2966 3190 
Q 3341 2797 3341 1997 
z
" transform="scale(0.015625)"/>
       <path id="DejaVuSans-67" d="M 2906 1791 
Q 2906 2416 2648 2759 
Q 2391 3103 1925 3103 
Q 1463 3103 1205 2759 
Q 947 2416 947 1791 
Q 947 1169 1205 825 
Q 1463 481 1925 481 
Q 2391 481 2648 825 
Q 2906 1169 2906 1791 
z
M 3481 434 
Q 3481 -459 3084 -895 
Q 2688 -1331 1869 -1331 
Q 1566 -1331 1297 -1286 
Q 1028 -1241 775 -1147 
L 775 -588 
Q 1028 -725 1275 -790 
Q 1522 -856 1778 -856 
Q 2344 -856 2625 -561 
Q 2906 -266 2906 331 
L 2906 616 
Q 2728 306 2450 153 
Q 2172 0 1784 0 
Q 1141 0 747 490 
Q 353 981 353 1791 
Q 353 2603 747 3093 
Q 1141 3584 1784 3584 
Q 2172 3584 2450 3431 
Q 2728 3278 2906 2969 
L 2906 3500 
L 3481 3500 
L 3481 434 
z
" transform="scale(0.015625)"/>
       <path id="DejaVuSans-69" d="M 603 3500 
L 1178 3500 
L 1178 0 
L 603 0 
L 603 3500 
z
M 603 4863 
L 1178 4863 
L 1178 4134 
L 603 4134 
L 603 4863 
z
" transform="scale(0.015625)"/>
       <path id="DejaVuSans-74" d="M 1172 4494 
L 1172 3500 
L 2356 3500 
L 2356 3053 
L 1172 3053 
L 1172 1153 
Q 1172 725 1289 603 
Q 1406 481 1766 481 
L 2356 481 
L 2356 0 
L 1766 0 
Q 1100 0 847 248 
Q 594 497 594 1153 
L 594 3053 
L 172 3053 
L 172 3500 
L 594 3500 
L 594 4494 
L 1172 4494 
z
" transform="scale(0.015625)"/>
       <path id="DejaVuSans-64" d="M 2906 2969 
L 2906 4863 
L 3481 4863 
L 3481 0 
L 2906 0 
L 2906 525 
Q 2725 213 2448 61 
Q 2172 -91 1784 -91 
Q 1150 -91 751 415 
Q 353 922 353 1747 
Q 353 2572 751 3078 
Q 1150 3584 1784 3584 
Q 2172 3584 2448 3432 
Q 2725 3281 2906 2969 
z
M 947 1747 
Q 947 1113 1208 752 
Q 1469 391 1925 391 
Q 2381 391 2643 752 
Q 2906 1113 2906 1747 
Q 2906 2381 2643 2742 
Q 2381 3103 1925 3103 
Q 1469 3103 1208 2742 
Q 947 2381 947 1747 
z
" transform="scale(0.015625)"/>
       <path id="DejaVuSans-7c" d="M 1344 4891 
L 1344 -1509 
L 813 -1509 
L 813 4891 
L 1344 4891 
z
" transform="scale(0.015625)"/>
       <path id="DejaVuSans-Oblique-58" d="M 878 4666 
L 1516 4666 
L 2316 2981 
L 3763 4666 
L 4500 4666 
L 2578 2438 
L 3738 0 
L 3103 0 
L 2163 1966 
L 459 0 
L -275 0 
L 1906 2509 
L 878 4666 
z
" transform="scale(0.015625)"/>
      </defs>
      <use xlink:href="#DejaVuSans-4d" transform="translate(0 0.015625)"/>
      <use xlink:href="#DejaVuSans-61" transform="translate(86.279297 0.015625)"/>
      <use xlink:href="#DejaVuSans-67" transform="translate(147.558594 0.015625)"/>
      <use xlink:href="#DejaVuSans-6e" transform="translate(211.035156 0.015625)"/>
      <use xlink:href="#DejaVuSans-69" transform="translate(274.414062 0.015625)"/>
      <use xlink:href="#DejaVuSans-74" transform="translate(302.197266 0.015625)"/>
      <use xlink:href="#DejaVuSans-75" transform="translate(341.40625 0.015625)"/>
      <use xlink:href="#DejaVuSans-64" transform="translate(404.785156 0.015625)"/>
      <use xlink:href="#DejaVuSans-65" transform="translate(468.261719 0.015625)"/>
      <use xlink:href="#DejaVuSans-2c" transform="translate(529.785156 0.015625)"/>
      <use xlink:href="#DejaVuSans-20" transform="translate(561.572266 0.015625)"/>
      <use xlink:href="#DejaVuSans-7c" transform="translate(593.359375 7.8125) scale(0.891719)"/>
      <use xlink:href="#DejaVuSans-Oblique-58" transform="translate(623.386841 0.015625)"/>
      <use xlink:href="#DejaVuSans-28" transform="translate(691.8927 0.015625)"/>
      <use xlink:href="#DejaVuSans-Oblique-66" transform="translate(730.906372 0.015625)"/>
      <use xlink:href="#DejaVuSans-29" transform="translate(766.11145 0.015625)"/>
      <use xlink:href="#DejaVuSans-7c" transform="translate(805.125122 7.8125) scale(0.891719)"/>
     </g>
    </g>
   </g>
   <g id="line2d_27">
    <path d="M 53.349359 240.052816 
L 55.946512 237.576411 
L 56.796198 237.153949 
L 57.549693 237.018424 
L 58.271125 237.112634 
L 59.02462 237.43984 
L 59.890338 238.073325 
L 60.996533 239.183733 
L 61.76606 240.040938 
L 61.830187 239.966 
L 63.705909 237.942767 
L 64.667818 237.22705 
L 65.453377 236.902195 
L 66.174808 236.839235 
L 66.880208 237.002878 
L 67.633703 237.41311 
L 68.515453 238.161384 
L 69.701807 239.488967 
L 70.166729 240.045884 
L 70.230856 239.966278 
L 72.106578 237.814183 
L 73.052455 237.060644 
L 73.838014 236.707143 
L 74.543414 236.631205 
L 75.232782 236.786001 
L 75.970245 237.193011 
L 76.819931 237.934308 
L 77.942158 239.240313 
L 78.567398 240.051488 
L 78.631526 239.966671 
L 80.491216 237.686919 
L 81.437093 236.874854 
L 82.20662 236.49403 
L 82.879956 236.397746 
L 83.53726 236.526154 
L 84.24266 236.901958 
L 85.04425 237.598127 
L 86.070286 238.81329 
L 86.968068 240.049172 
L 87.048227 239.944522 
L 88.891885 237.526417 
L 89.82173 236.665975 
L 90.575225 236.254737 
L 91.23253 236.137064 
L 91.873802 236.248952 
L 92.547138 236.602902 
L 93.316665 237.278338 
L 94.262542 238.428006 
L 95.384769 240.040877 
L 95.464928 239.919212 
L 97.292554 237.344429 
L 98.206368 236.429291 
L 98.943831 235.983906 
L 99.585103 235.842495 
L 100.194312 235.930946 
L 100.835585 236.2561 
L 101.557016 236.886157 
L 102.438766 237.974665 
L 103.737343 239.981004 
L 103.785438 240.047442 
L 103.833534 239.968774 
L 105.693224 237.136273 
L 106.607037 236.144805 
L 107.328469 235.667286 
L 107.953709 235.505499 
L 108.546886 235.580135 
L 109.156095 235.886853 
L 109.845463 236.498069 
L 110.679117 237.559154 
L 111.833408 239.43126 
L 112.186107 240.051933 
L 112.250235 239.941479 
L 114.093893 236.895805 
L 114.991674 235.830897 
L 115.697074 235.309327 
L 116.306283 235.117701 
L 116.867396 235.165861 
L 117.444542 235.440685 
L 118.085814 236.001417 
L 118.855341 236.988543 
L 119.865345 238.678434 
L 120.586777 240.04288 
L 120.650904 239.940349 
L 122.494562 236.614791 
L 123.392344 235.447239 
L 124.097743 234.872577 
L 124.690921 234.660586 
L 125.236002 234.697537 
L 125.797116 234.968826 
L 126.422356 235.538537 
L 127.159819 236.5356 
L 128.121728 238.25016 
L 129.003478 240.04103 
L 129.067605 239.90515 
L 130.911263 236.254966 
L 131.793013 234.992036 
L 132.482381 234.364051 
L 133.059526 234.120333 
L 133.588576 234.137109 
L 134.117626 234.386193 
L 134.710803 234.933015 
L 135.400171 235.893526 
L 136.28192 237.539603 
L 137.404147 240.050519 
L 137.500338 239.82499 
L 139.311933 235.851338 
L 140.177651 234.46395 
L 140.850987 233.762695 
L 141.4121 233.472846 
L 141.909086 233.454923 
L 142.406072 233.665326 
L 142.951154 234.153373 
L 143.592426 235.049647 
L 144.394017 236.590772 
L 145.516244 239.294216 
L 145.804816 240.044797 
L 145.852912 239.93632 
L 147.744666 235.289026 
L 148.610383 233.744607 
L 149.267688 232.981705 
L 149.812769 232.661601 
L 150.293724 232.630579 
L 150.758646 232.829234 
L 151.271664 233.305622 
L 151.880873 234.202918 
L 152.634368 235.751444 
L 153.644372 238.396316 
L 154.221518 240.029602 
L 154.269613 239.887102 
L 156.161367 234.61942 
L 157.011053 232.890532 
L 157.668357 232.010806 
L 158.197407 231.641499 
L 158.646298 231.582018 
L 159.079156 231.750857 
L 159.560111 232.197304 
L 160.121224 233.048821 
L 160.810592 234.537201 
L 161.708374 237.064575 
L 162.622187 240.041744 
L 162.686314 239.82338 
L 164.5941 233.708007 
L 165.443786 231.718928 
L 166.085058 230.727193 
L 166.598076 230.302774 
L 167.030935 230.218451 
L 167.43173 230.370067 
L 167.880621 230.802017 
L 168.409671 231.656288 
L 169.050943 233.15551 
L 169.868566 235.689336 
L 171.022856 240.048918 
L 171.119047 239.67374 
L 173.042864 232.428131 
L 173.876519 230.132937 
L 174.517791 228.961874 
L 175.014777 228.470687 
L 175.415573 228.359415 
L 175.784304 228.488679 
L 176.185099 228.882457 
L 176.666054 229.697165 
L 177.259231 231.18894 
L 177.996694 233.706491 
L 178.990667 237.974465 
L 179.423525 240.025753 
L 179.487653 239.772326 
L 181.523693 230.484583 
L 182.341315 227.776637 
L 182.966556 226.398187 
L 183.44751 225.816138 
L 183.816242 225.673366 
L 184.15291 225.781006 
L 184.521642 226.162631 
L 184.9545 226.959929 
L 185.499582 228.481914 
L 186.172918 231.092575 
L 187.038636 235.423577 
L 187.840227 240.019397 
L 187.904354 239.630823 
L 190.052617 227.267283 
L 190.854207 223.960367 
L 191.463416 222.295927 
L 191.928338 221.603494 
L 192.265007 221.439102 
L 192.553579 221.531987 
L 192.874215 221.892627 
L 193.275011 222.725599 
L 193.771997 224.338022 
L 194.381206 227.142837 
L 195.150733 231.831 
L 196.208832 239.802352 
L 196.240896 240.045209 
L 196.288991 239.654737 
L 198.709795 220.858547 
L 199.479322 216.728559 
L 200.056467 214.71597 
L 200.473294 213.936517 
L 200.777899 213.753229 
L 201.018376 213.848419 
L 201.290916 214.21819 
L 201.643616 215.11549 
L 202.092507 216.942177 
L 202.637589 220.169218 
L 203.310925 225.58367 
L 204.176643 234.515689 
L 204.641565 240.009666 
L 204.705692 239.31143 
L 207.735705 203.353197 
L 208.409041 198.416416 
L 208.906027 196.17646 
L 209.258727 195.419307 
L 209.483172 195.326414 
L 209.675554 195.498897 
L 209.932063 196.103374 
L 210.268731 197.567836 
L 210.685558 200.470467 
L 211.198576 205.738136 
L 211.807785 214.438323 
L 212.545248 228.426458 
L 213.058266 239.861267 
L 213.106362 238.671508 
L 214.132398 210.371299 
L 215.623356 162.299639 
L 217.996064 86.140544 
L 219.0221 60.374314 
L 219.807659 45.738903 
L 220.4329 37.820441 
L 220.913854 34.165975 
L 221.266554 32.882275 
L 221.490999 32.688784 
L 221.651317 32.848331 
L 221.875763 33.487879 
L 222.180367 35.127631 
L 222.581162 38.618234 
L 223.09418 45.224149 
L 223.735453 56.644432 
L 224.537043 75.291121 
L 225.579111 105.243043 
L 227.34261 163.616896 
L 229.170237 221.609808 
L 229.859605 240.018544 
L 229.891668 239.296413 
L 230.821514 219.129583 
L 231.59104 206.881884 
L 232.232313 199.922059 
L 232.745331 196.477091 
L 233.146126 195.060078 
L 233.434699 194.704039 
L 233.627081 194.763252 
L 233.851526 195.120517 
L 234.15613 196.078699 
L 234.572957 198.210376 
L 235.118039 202.265272 
L 235.855502 209.598993 
L 236.961697 223.141539 
L 238.260274 239.978426 
L 238.30837 239.530944 
L 239.46266 226.594235 
L 240.280282 219.688663 
L 240.937587 215.84874 
L 241.450605 213.998715 
L 241.8514 213.265476 
L 242.139973 213.120147 
L 242.38045 213.238232 
L 242.669022 213.658267 
L 243.053786 214.669057 
L 243.550772 216.678478 
L 244.192044 220.287772 
L 245.073794 226.666818 
L 246.676975 240.0086 
L 246.757134 239.342457 
L 248.007616 229.896937 
L 248.84127 225.138883 
L 249.498574 222.553635 
L 250.011592 221.32777 
L 250.412387 220.868821 
L 250.716992 220.812175 
L 251.005564 220.9871 
L 251.358264 221.493548 
L 251.807155 222.57905 
L 252.3843 224.63213 
L 253.137795 228.236049 
L 254.24399 234.774624 
L 255.077645 240.048686 
L 255.12574 239.746866 
L 256.472412 232.002838 
L 257.322098 228.310314 
L 257.979402 226.344902 
L 258.49242 225.417717 
L 258.909248 225.072107 
L 259.245916 225.060691 
L 259.582584 225.284464 
L 259.983379 225.846853 
L 260.480365 226.963195 
L 261.121638 229.01164 
L 261.971324 232.558083 
L 263.462282 239.953069 
L 263.478314 240.034087 
L 263.526409 239.830274 
L 264.937209 233.289967 
L 265.786895 230.320933 
L 266.444199 228.744822 
L 266.973249 227.992629 
L 267.390076 227.738916 
L 267.758808 227.764764 
L 268.143571 228.037705 
L 268.592462 228.660693 
L 269.153575 229.865539 
L 269.858975 231.958321 
L 270.836915 235.635541 
L 271.895015 240.021534 
L 271.959142 239.750857 
L 273.385973 234.212686 
L 274.251691 231.68978 
L 274.908996 230.388775 
L 275.438045 229.778682 
L 275.870904 229.582866 
L 276.255668 229.639254 
L 276.672495 229.940208 
L 277.153449 230.5832 
L 277.746626 231.774759 
L 278.516153 233.870415 
L 279.622348 237.611757 
L 280.295684 240.042786 
L 280.34378 239.867882 
L 281.818706 234.924028 
L 282.684424 232.749088 
L 283.35776 231.607553 
L 283.902842 231.084834 
L 284.351733 230.936933 
L 284.76856 231.029165 
L 285.21745 231.369823 
L 285.7465 232.074954 
L 286.403804 233.36056 
L 287.25349 235.560487 
L 288.66429 239.945568 
L 288.696354 240.048189 
L 288.744449 239.905105 
L 290.251439 235.460993 
L 291.117157 233.552386 
L 291.790493 232.55337 
L 292.335575 232.099408 
L 292.800497 231.97538 
L 293.249388 232.086564 
L 293.730342 232.450712 
L 294.291456 233.175909 
L 294.980824 234.456965 
L 295.894637 236.665879 
L 297.097023 240.035574 
L 297.177182 239.842772 
L 298.684172 235.880723 
L 299.54989 234.182623 
L 300.239258 233.28147 
L 300.800371 232.884946 
L 301.281326 232.797536 
L 301.746248 232.935039 
L 302.259266 233.331983 
L 302.868475 234.113164 
L 303.62197 235.478923 
L 304.648006 237.848613 
L 305.513724 240.040281 
L 305.577851 239.874913 
L 307.116905 236.217854 
L 307.998655 234.66723 
L 308.688023 233.870013 
L 309.265168 233.522241 
L 309.762154 233.467232 
L 310.25914 233.63819 
L 310.804222 234.075514 
L 311.445494 234.896072 
L 312.247085 236.310515 
L 313.417407 238.884306 
L 313.914393 240.052314 
L 313.962489 239.939042 
L 315.533606 236.524522 
L 316.415356 235.108384 
L 317.104724 234.380782 
L 317.681869 234.064265 
L 318.210919 234.019715 
L 318.723937 234.200429 
L 319.301082 234.655985 
L 319.974418 235.493164 
L 320.824104 236.93275 
L 322.154744 239.696547 
L 322.315063 240.04462 
L 322.37919 239.923411 
L 323.950307 236.780831 
L 324.848089 235.458529 
L 325.553488 234.786393 
L 326.146666 234.506802 
L 326.691747 234.490599 
L 327.236829 234.703517 
L 327.846038 235.198786 
L 328.567469 236.097682 
L 329.497314 237.646378 
L 330.731764 240.038826 
L 330.811923 239.877832 
L 332.38304 236.972748 
L 333.280822 235.756201 
L 333.986221 235.142362 
L 334.59543 234.888787 
L 335.156544 234.89217 
L 335.717657 235.120646 
L 336.342898 235.625337 
L 337.096393 236.541263 
L 338.090365 238.137939 
L 339.132433 240.048474 
L 339.212592 239.898349 
L 340.799741 237.161252 
L 341.697523 236.028761 
L 342.418954 235.449197 
L 343.044195 235.219041 
L 343.62134 235.240709 
L 344.214517 235.494104 
L 344.871821 236.030756 
L 345.65738 236.976465 
L 346.731512 238.654893 
L 347.533102 240.050144 
L 347.597229 239.944324 
L 349.216442 237.32493 
L 350.130256 236.250522 
L 350.867719 235.70816 
L 351.49296 235.507663 
L 352.086137 235.546543 
L 352.695346 235.814692 
L 353.384713 236.376773 
L 354.218368 237.366994 
L 355.38869 239.144516 
L 355.949803 240.037833 
L 355.997899 239.958365 
L 357.633144 237.468388 
L 358.546957 236.459464 
L 359.28442 235.951565 
L 359.925693 235.763837 
L 360.534901 235.813205 
L 361.160142 236.090016 
L 361.865542 236.655805 
L 362.73126 237.65676 
L 363.981741 239.485552 
L 364.350473 240.04591 
L 364.398568 239.970816 
L 366.049845 237.595156 
L 366.97969 236.630997 
L 367.733185 236.152922 
L 368.390489 235.98879 
L 369.01573 236.059558 
L 369.673034 236.366273 
L 370.410497 236.968398 
L 371.324311 238.021636 
L 372.751142 240.053143 
L 372.879396 239.863423 
L 374.482578 237.689436 
L 375.412423 236.784012 
L 376.165918 236.339558 
L 376.839254 236.191771 
L 377.480526 236.277469 
L 378.153862 236.597926 
L 378.923389 237.224656 
L 379.885298 238.317357 
L 381.167843 240.037086 
L 381.264034 239.901747 
L 382.899279 237.791465 
L 383.845156 236.921401 
L 384.614683 236.501478 
L 385.30405 236.374696 
L 385.961355 236.480122 
L 386.666754 236.829751 
L 387.468345 237.490985 
L 388.494381 238.649861 
L 389.568512 240.044049 
L 389.648671 239.936471 
L 391.31598 237.883397 
L 392.261857 237.056465 
L 393.031384 236.658929 
L 393.720752 236.541025 
L 394.394088 236.649788 
L 395.115519 237.00207 
L 395.933142 237.6615 
L 396.991241 238.822423 
L 397.969182 240.050394 
L 398.049341 239.947546 
L 399.732681 237.966663 
L 400.69459 237.168481 
L 401.480148 236.791783 
L 402.185548 236.692665 
L 402.874916 236.820139 
L 403.612379 237.190494 
L 404.462065 237.878111 
L 405.600324 239.113827 
L 406.369851 240.050841 
L 406.45001 239.95766 
L 408.149382 238.042436 
L 409.111291 237.280525 
L 409.912881 236.917986 
L 410.634313 236.831684 
L 411.339713 236.972282 
L 412.093208 237.355262 
L 412.974957 238.065647 
L 414.177343 239.34899 
L 414.786552 240.042619 
L 414.850679 239.966938 
L 416.566083 238.111686 
L 417.544024 237.373623 
L 418.345614 237.033726 
L 419.083078 236.95973 
L 419.804509 237.113127 
L 420.590068 237.519042 
L 421.503881 238.256011 
L 422.802458 239.622509 
L 423.187221 240.048279 
L 423.251349 239.975484 
L 424.982784 238.175224 
L 425.960725 237.46817 
L 426.778347 237.140296 
L 427.51581 237.077023 
L 428.253274 237.23814 
L 429.054864 237.651515 
L 430.000741 238.405703 
L 431.395509 239.843039 
L 431.587891 240.053523 
L 431.652018 239.983386 
L 433.415517 238.220325 
L 434.393458 237.546796 
L 435.21108 237.238783 
L 435.964575 237.186749 
L 436.71807 237.3602 
L 437.535693 237.785573 
L 438.513633 238.560715 
L 440.132846 239.906221 
L 441.832218 238.274885 
L 442.826191 237.619653 
L 443.659845 237.326924 
L 444.429372 237.290564 
L 445.198899 237.480715 
L 446.048585 237.932845 
L 447.074621 238.750512 
L 448.517484 239.932199 
L 450.248919 238.325446 
L 451.242892 237.695049 
L 452.076546 237.415071 
L 452.862105 237.384556 
L 453.647663 237.581964 
L 454.513381 238.041114 
L 455.571481 238.874084 
L 456.918153 239.940677 
L 458.66562 238.372436 
L 459.675625 237.757811 
L 460.525311 237.491655 
L 461.310869 237.474172 
L 462.11246 237.683238 
L 462.99421 238.153602 
L 464.084373 239.005007 
L 465.318822 239.948604 
L 467.082322 238.416221 
L 468.092326 237.8235 
L 468.958044 237.566042 
L 469.759634 237.558446 
L 470.577257 237.778976 
L 471.475038 238.260297 
L 472.613297 239.143272 
L 473.70346 239.970885 
L 475.499023 238.457121 
L 476.525059 237.878166 
L 477.390776 237.635815 
L 478.208399 237.637908 
L 479.042053 237.869722 
L 479.971898 238.372291 
L 481.158252 239.288828 
L 482.104129 239.977437 
L 483.915724 238.495414 
L 484.94176 237.935962 
L 485.823509 237.701417 
L 486.641132 237.710637 
L 487.490818 237.949327 
L 488.436695 238.458405 
L 489.671144 239.400783 
L 490.504798 239.983609 
L 492.332425 238.531343 
L 493.374493 237.984038 
L 494.256242 237.763237 
L 495.089897 237.781658 
L 495.939583 238.024733 
L 496.901491 238.540277 
L 498.168004 239.494169 
L 498.921499 239.975796 
L 500.749126 238.565122 
L 501.791194 238.035328 
L 502.688975 237.821619 
L 503.538661 237.849102 
L 504.404379 238.102959 
L 505.398351 238.638995 
L 506.728992 239.635397 
L 507.322169 239.981663 
L 509.165827 238.596942 
L 510.223927 238.077972 
L 511.121708 237.876863 
L 511.971394 237.910547 
L 512.853144 238.171058 
L 513.863148 238.713258 
L 515.257916 239.744859 
L 515.722838 239.987221 
L 517.582528 238.626968 
L 518.640628 238.123835 
L 519.554441 237.929239 
L 520.420159 237.971616 
L 521.31794 238.242681 
L 522.343976 238.794505 
L 523.802871 239.862007 
L 524.123507 239.992494 
L 525.999229 238.655351 
L 527.073361 238.161953 
L 527.987174 237.978985 
L 528.868924 238.029956 
L 529.782737 238.311436 
L 530.840836 238.882844 
L 532.395922 240.010901 
L 532.540208 239.985187 
L 534.41593 238.682222 
L 535.490062 238.203241 
L 536.419907 238.026314 
L 537.301657 238.082749 
L 538.231502 238.370697 
L 539.305633 238.947762 
L 541.037069 239.918125 
L 542.848663 238.698929 
L 543.922795 238.23755 
L 544.85264 238.071417 
L 545.750421 238.136157 
L 546.696298 238.434309 
L 547.802493 239.030317 
L 549.421706 239.936309 
L 551.265364 238.723355 
L 552.355528 238.270286 
L 553.301405 238.113803 
L 554.215218 238.1907 
L 555.177127 238.50262 
L 556.315385 239.12035 
L 557.678089 240.045695 
L 557.678089 240.045695 
" clip-path="url(#p58c0c35ff0)" style="fill: none; stroke: #1f77b4; stroke-linecap: square"/>
   </g>
   <g id="line2d_28">
    <path d="M 53.349359 238.876735 
L 54.824285 239.279947 
L 57.068739 239.933284 
L 59.505574 239.024071 
L 60.948437 238.724189 
L 62.247014 238.677812 
L 63.561623 238.857718 
L 65.036549 239.29576 
L 67.120685 239.942464 
L 69.55752 238.99265 
L 70.984352 238.677343 
L 72.266896 238.619678 
L 73.549441 238.788489 
L 74.976273 239.211487 
L 77.220726 239.930508 
L 79.609466 238.959554 
L 81.020266 238.627984 
L 82.270747 238.557835 
L 83.521228 238.712282 
L 84.883932 239.110866 
L 86.711559 239.899328 
L 87.160449 239.994027 
L 89.661412 238.924613 
L 91.05618 238.575861 
L 92.290629 238.493253 
L 93.509047 238.635621 
L 94.839687 239.023082 
L 96.555091 239.775026 
L 97.244459 239.991402 
L 99.713358 238.887632 
L 101.092094 238.52069 
L 102.310511 238.424897 
L 103.496866 238.554709 
L 104.77941 238.924258 
L 106.382592 239.633914 
L 107.328469 239.98861 
L 109.765304 238.84839 
L 111.128008 238.462146 
L 112.314362 238.352287 
L 113.484684 238.469138 
L 114.735165 238.825814 
L 116.258188 239.50796 
L 117.412478 239.985632 
L 119.833282 238.800367 
L 121.163922 238.399852 
L 122.334244 238.27532 
L 123.472503 238.37844 
L 124.674889 238.715448 
L 126.117752 239.365079 
L 127.512519 239.973365 
L 129.885227 238.755443 
L 131.199836 238.333376 
L 132.354126 238.193224 
L 133.460321 238.282071 
L 134.630644 238.604436 
L 136.00938 239.229767 
L 137.612561 239.960003 
L 139.937173 238.707339 
L 141.23575 238.262212 
L 142.357977 238.105938 
L 143.44814 238.179395 
L 144.586399 238.486206 
L 145.901007 239.085123 
L 147.712602 239.945412 
L 150.005151 238.648262 
L 151.287696 238.181618 
L 152.393891 238.011113 
L 153.451991 238.072242 
L 154.542154 238.359986 
L 155.792635 238.930448 
L 157.556134 240.009753 
L 157.716452 239.992358 
L 160.057097 238.592064 
L 161.32361 238.098846 
L 162.413773 237.909547 
L 163.439809 237.954402 
L 164.497909 238.224864 
L 165.684263 238.764917 
L 167.271412 239.755238 
L 167.800462 239.989155 
L 170.125075 238.522909 
L 171.359524 238.009249 
L 172.417624 237.801031 
L 173.427628 237.82757 
L 174.453664 238.079756 
L 175.591922 238.596308 
L 177.050817 239.523003 
L 177.884472 239.985672 
L 180.177021 238.456179 
L 181.395438 237.911841 
L 182.437506 237.68204 
L 183.415447 237.690497 
L 184.409419 237.923362 
L 185.499582 238.414695 
L 186.846254 239.282054 
L 187.984513 239.969561 
L 190.244998 238.373859 
L 191.447384 237.799657 
L 192.47342 237.550192 
L 193.435329 237.545172 
L 194.397237 237.764931 
L 195.439305 238.236258 
L 196.705818 239.067729 
L 198.084554 239.951613 
L 200.296944 238.293085 
L 201.483298 237.682286 
L 202.493302 237.407362 
L 203.423147 237.382164 
L 204.352993 237.580556 
L 205.362997 238.03249 
L 206.549351 238.821091 
L 208.184595 239.931523 
L 210.364922 238.193103 
L 211.535244 237.54581 
L 212.513185 237.249774 
L 213.426998 237.204441 
L 214.324779 237.3841 
L 215.286688 237.809775 
L 216.408915 238.563787 
L 217.996064 239.932749 
L 218.204478 239.982699 
L 220.4329 238.081548 
L 221.571158 237.401064 
L 222.533067 237.074788 
L 223.414817 237.006408 
L 224.280534 237.162139 
L 225.194348 237.556184 
L 226.252447 238.268398 
L 227.647215 239.503494 
L 228.288487 239.977981 
L 230.500877 237.956217 
L 231.623104 237.230827 
L 232.568981 236.875256 
L 233.418667 236.786496 
L 234.252321 236.920927 
L 235.134071 237.294482 
L 236.128043 237.968884 
L 237.394556 239.121076 
L 238.30837 240.04033 
L 238.372497 239.972665 
L 240.568855 237.814316 
L 241.67505 237.038145 
L 242.588863 236.653974 
L 243.422517 236.538813 
L 244.224108 236.650461 
L 245.057762 236.99312 
L 246.003639 237.635567 
L 247.15793 238.709729 
L 248.392379 240.039563 
L 248.48857 239.93013 
L 250.636833 237.652238 
L 251.726996 236.818107 
L 252.624777 236.39706 
L 253.426368 236.257281 
L 254.195895 236.34441 
L 254.997485 236.663146 
L 255.879235 237.261972 
L 256.937335 238.265282 
L 258.476389 240.038708 
L 258.588611 239.900386 
L 260.70481 237.465249 
L 261.778942 236.564255 
L 262.660691 236.10081 
L 263.44625 235.932892 
L 264.199745 236.001983 
L 264.969272 236.304271 
L 265.802927 236.879162 
L 266.796899 237.851822 
L 268.143571 239.51331 
L 268.560398 240.037742 
L 268.608494 239.973173 
L 270.78882 237.229757 
L 271.846919 236.255876 
L 272.712637 235.748382 
L 273.466132 235.554577 
L 274.187564 235.59931 
L 274.908996 235.870215 
L 275.694554 236.409651 
L 276.608368 237.319729 
L 277.794722 238.843202 
L 278.644408 240.036636 
L 278.708535 239.942166 
L 280.856798 236.969769 
L 281.898865 235.903717 
L 282.73252 235.345991 
L 283.469983 235.109395 
L 284.159351 235.121653 
L 284.848719 235.362283 
L 285.586182 235.863347 
L 286.435868 236.723091 
L 287.493968 238.133989 
L 288.728417 240.035347 
L 288.808576 239.9047 
L 290.940807 236.636044 
L 291.966843 235.464906 
L 292.784465 234.844656 
L 293.489865 234.572 
L 294.147169 234.553125 
L 294.788442 234.757608 
L 295.47781 235.217034 
L 296.263369 236.020799 
L 297.225277 237.349062 
L 298.571949 239.637213 
L 298.796395 240.044061 
L 298.860522 239.946255 
L 301.040848 236.202819 
L 302.050853 234.908641 
L 302.852443 234.217716 
L 303.541811 233.903862 
L 304.167052 233.860793 
L 304.776261 234.045248 
L 305.433565 234.49097 
L 306.171028 235.277674 
L 307.052778 236.565979 
L 308.2231 238.710808 
L 308.880404 240.042109 
L 308.944532 239.932903 
L 311.14089 235.658091 
L 312.134862 234.207811 
L 312.920421 233.426703 
L 313.577725 233.065328 
L 314.170902 232.986223 
L 314.732016 233.133534 
L 315.341224 233.536608 
L 316.014561 234.264137 
L 316.816151 235.479592 
L 317.826155 237.449365 
L 318.964414 240.039544 
L 319.060605 239.839849 
L 321.240931 234.952411 
L 322.218872 233.297468 
L 322.988399 232.397174 
L 323.629671 231.966995 
L 324.190784 231.849511 
L 324.719834 231.967883 
L 325.280948 232.337084 
L 325.906188 233.035436 
L 326.643652 234.219994 
L 327.541433 236.113386 
L 328.791914 239.328961 
L 329.048423 240.03606 
L 329.112551 239.893048 
L 331.389068 233.892446 
L 332.350977 231.985997 
L 333.104472 230.949101 
L 333.713681 230.457457 
L 334.24273 230.303659 
L 334.723685 230.392708 
L 335.220671 230.71594 
L 335.781784 231.358936 
L 336.439089 232.469154 
L 337.240679 234.291356 
L 338.266715 237.222142 
L 339.132433 240.03111 
L 339.212592 239.807534 
L 341.553236 232.342259 
L 342.499113 230.079415 
L 343.236577 228.849034 
L 343.829754 228.261271 
L 344.310708 228.070928 
L 344.743567 228.128022 
L 345.192458 228.419476 
L 345.705476 229.040881 
L 346.314685 230.16621 
L 347.036116 232.004155 
L 347.933898 234.946531 
L 349.184379 239.88905 
L 349.216442 240.023595 
L 349.28057 239.813704 
L 351.781532 229.742485 
L 352.711377 226.965694 
L 353.416777 225.496063 
L 353.977891 224.791108 
L 354.426781 224.549805 
L 354.811545 224.581761 
L 355.21234 224.854712 
L 355.661231 225.452538 
L 356.206312 226.58823 
L 356.847585 228.475803 
L 357.633144 231.526043 
L 358.643148 236.418324 
L 359.300452 240.010954 
L 359.364579 239.734493 
L 362.170146 224.501223 
L 363.051896 221.059406 
L 363.725232 219.247536 
L 364.23825 218.424946 
L 364.639045 218.148396 
L 364.959681 218.169726 
L 365.29635 218.430845 
L 365.697145 219.065958 
L 366.178099 220.295897 
L 366.755244 222.436598 
L 367.460644 225.992702 
L 368.31033 231.506487 
L 369.400493 239.985491 
L 369.480652 239.302054 
L 373.007651 210.037831 
L 373.777178 205.901451 
L 374.370355 203.807104 
L 374.803214 202.974399 
L 375.12385 202.769927 
L 375.364327 202.859209 
L 375.636868 203.221259 
L 375.989568 204.114604 
L 376.422427 205.886616 
L 376.951477 209.090764 
L 377.576717 214.372176 
L 378.314181 222.668727 
L 379.179898 235.139874 
L 379.484503 239.924805 
L 379.532598 239.099405 
L 380.654825 217.803237 
L 382.177847 184.233998 
L 385.464369 110.735215 
L 386.570564 91.392102 
L 387.452313 79.569483 
L 388.157713 72.807251 
L 388.734858 69.211158 
L 389.167717 67.706071 
L 389.472321 67.270565 
L 389.680735 67.271179 
L 389.90518 67.543271 
L 390.193753 68.305395 
L 390.578516 70.036736 
L 391.059471 73.328378 
L 391.652648 79.049877 
L 392.374079 88.3198 
L 393.255829 102.704866 
L 394.378056 124.908188 
L 396.09346 163.878974 
L 398.642518 221.187401 
L 399.652522 239.940801 
L 400.678558 224.19554 
L 401.544276 214.100118 
L 402.265707 208.055125 
L 402.874916 204.640865 
L 403.371902 202.978579 
L 403.756666 202.360621 
L 404.029206 202.262548 
L 404.285715 202.417705 
L 404.59032 202.900775 
L 404.991115 204.003389 
L 405.504133 206.125522 
L 406.161437 209.861894 
L 407.043187 216.2924 
L 408.389859 227.998435 
L 409.736531 240.001349 
L 409.768595 239.724655 
L 411.05114 229.627133 
L 411.980985 223.926451 
L 412.73448 220.573089 
L 413.343689 218.7688 
L 413.840675 217.91483 
L 414.225439 217.633934 
L 414.546075 217.648705 
L 414.882743 217.900971 
L 415.283538 218.505065 
L 415.796556 219.730483 
L 416.437829 221.904632 
L 417.255451 225.536693 
L 418.409741 231.792411 
L 419.820541 240.021647 
L 419.868636 239.743631 
L 421.295468 232.15995 
L 422.241344 228.234094 
L 422.99484 225.96183 
L 423.62008 224.72287 
L 424.117066 224.175189 
L 424.533894 224.016555 
L 424.918657 224.110378 
L 425.335484 224.464887 
L 425.83247 225.214897 
L 426.441679 226.581403 
L 427.195174 228.861376 
L 428.205178 232.694075 
L 429.90455 240.031872 
L 429.984709 239.682907 
L 431.475668 233.692635 
L 432.437577 230.675248 
L 433.207104 228.93561 
L 433.832344 228.023663 
L 434.345362 227.628708 
L 434.794253 227.547262 
L 435.227112 227.699255 
L 435.708066 228.125031 
L 436.26918 228.943886 
L 436.958548 230.377754 
L 437.824265 232.731105 
L 439.074747 236.850431 
L 439.98856 240.038061 
L 440.036655 239.869648 
L 441.623805 234.720044 
L 442.601745 232.253901 
L 443.371272 230.863284 
L 444.012545 230.127873 
L 444.541594 229.827167 
L 445.022549 229.79695 
L 445.503503 229.995094 
L 446.032553 230.466893 
L 446.657794 231.34358 
L 447.427321 232.839351 
L 448.421293 235.301438 
L 450.072569 240.042223 
L 450.16876 239.760492 
L 451.771941 235.412823 
L 452.749882 233.3563 
L 453.535441 232.182543 
L 454.176713 231.586774 
L 454.737827 231.348158 
L 455.250845 231.363762 
L 455.779894 231.609713 
L 456.373071 232.150258 
L 457.062439 233.100004 
L 457.912125 234.673701 
L 459.082448 237.357856 
L 460.156579 240.045215 
L 460.220706 239.88348 
L 461.888015 235.977724 
L 462.881987 234.179659 
L 463.683578 233.159741 
L 464.340882 232.653405 
L 464.918027 232.468408 
L 465.463109 232.519108 
L 466.040254 232.8064 
L 466.681526 233.391944 
L 467.435021 234.401236 
L 468.380898 236.067611 
L 469.80773 239.096178 
L 470.240588 240.047458 
L 470.288684 239.940943 
L 472.004088 236.403998 
L 473.014092 234.803859 
L 473.815682 233.917518 
L 474.50505 233.46866 
L 475.114259 233.327439 
L 475.707436 233.422301 
L 476.316645 233.751769 
L 477.006013 234.389193 
L 477.839667 235.488247 
L 478.913799 237.309034 
L 480.324598 240.049168 
L 480.404757 239.890784 
L 482.136193 236.711288 
L 483.146197 235.293618 
L 483.963819 234.501587 
L 484.669219 234.113202 
L 485.29446 234.010539 
L 485.9197 234.136248 
L 486.577005 234.506245 
L 487.314468 235.188522 
L 488.212249 236.343561 
L 489.430667 238.314973 
L 490.408608 240.050439 
L 490.472735 239.936212 
L 492.252266 236.981336 
L 493.278302 235.688363 
L 494.111956 234.974044 
L 494.833388 234.636538 
L 495.490692 234.568419 
L 496.147996 234.728917 
L 496.853396 235.14464 
L 497.654986 235.893776 
L 498.632927 237.134208 
L 500.07579 239.37266 
L 500.492617 240.051255 
L 500.556744 239.947463 
L 502.352307 237.224154 
L 503.394375 236.028705 
L 504.244061 235.373805 
L 504.981524 235.07434 
L 505.670892 235.032793 
L 506.36026 235.221063 
L 507.097723 235.664048 
L 507.947409 236.449953 
L 509.005509 237.754024 
L 510.576627 240.051526 
L 510.688849 239.884622 
L 512.484412 237.388202 
L 513.542512 236.286073 
L 514.392198 235.701286 
L 515.145693 235.440291 
L 515.851093 235.426607 
L 516.572524 235.641632 
L 517.342051 236.111179 
L 518.239833 236.932812 
L 519.394123 238.315844 
L 520.660636 240.051307 
L 520.740795 239.942523 
L 522.584453 237.563194 
L 523.658585 236.53063 
L 524.524303 235.988295 
L 525.29383 235.756307 
L 526.031293 235.765688 
L 526.768756 235.999126 
L 527.586379 236.501968 
L 528.548287 237.374616 
L 529.814801 238.852288 
L 530.744646 240.050838 
L 530.824805 239.950901 
L 532.700527 237.696845 
L 533.774658 236.741126 
L 534.656408 236.236013 
L 535.441966 236.029982 
L 536.195462 236.058456 
L 536.964988 236.312211 
L 537.814675 236.835804 
L 538.824679 237.736658 
L 540.219446 239.310647 
L 540.828655 240.050291 
L 540.892782 239.977688 
L 542.800568 237.828432 
L 543.890731 236.924266 
L 544.788513 236.452148 
L 545.606135 236.26834 
L 546.391694 236.322389 
L 547.193284 236.605013 
L 548.091066 237.16969 
L 549.165197 238.125159 
L 550.800442 239.921814 
L 550.928696 240.03791 
L 550.976792 239.982932 
L 552.916641 237.92918 
L 554.022836 237.0751 
L 554.936649 236.637167 
L 555.770304 236.47979 
L 556.571894 236.554858 
L 557.405548 236.861165 
L 557.678089 237.008421 
L 557.678089 237.008421 
" clip-path="url(#p58c0c35ff0)" style="fill: none; stroke: #ff7f0e; stroke-linecap: square"/>
   </g>
   <g id="line2d_29">
    <path d="M 53.349359 240.01911 
L 53.397454 240.03392 
L 53.44555 239.981263 
L 55.353335 238.041551 
L 56.331276 237.365156 
L 57.132866 237.067921 
L 57.87033 237.027614 
L 58.607793 237.216614 
L 59.393352 237.656376 
L 60.323197 238.445888 
L 61.669869 239.920336 
L 61.798123 240.036066 
L 61.846219 239.980377 
L 63.754004 237.923265 
L 64.715913 237.21341 
L 65.501472 236.894852 
L 66.222903 236.838403 
L 66.928303 237.00863 
L 67.681798 237.425606 
L 68.563548 238.180675 
L 69.765934 239.533765 
L 70.198793 240.038479 
L 70.246888 239.979474 
L 72.138642 237.807169 
L 73.084519 237.054855 
L 73.854046 236.707465 
L 74.559446 236.628105 
L 75.248813 236.779817 
L 75.970245 237.172756 
L 76.819931 237.906767 
L 77.926126 239.187081 
L 78.599462 240.041161 
L 78.663589 239.957364 
L 80.523279 237.677793 
L 81.469156 236.867626 
L 82.238683 236.489158 
L 82.912019 236.395391 
L 83.569324 236.526512 
L 84.274723 236.905321 
L 85.076314 237.60475 
L 86.10235 238.823354 
L 87.000131 240.044027 
L 87.08029 239.932283 
L 88.923949 237.51493 
L 89.853794 236.657102 
L 90.607289 236.248929 
L 91.264593 236.134441 
L 91.905866 236.24971 
L 92.579202 236.607289 
L 93.348729 237.286668 
L 94.310637 238.46228 
L 95.400801 240.046652 
L 95.496992 239.903646 
L 97.308586 237.349299 
L 98.222399 236.431263 
L 98.959863 235.983437 
L 99.601135 235.839995 
L 100.210344 235.92671 
L 100.851617 236.250342 
L 101.573048 236.879158 
L 102.454798 237.966934 
L 103.753375 239.973611 
L 103.80147 240.047415 
L 103.865597 239.949399 
L 105.725287 237.119045 
L 106.623069 236.145749 
L 107.3445 235.666326 
L 107.969741 235.503015 
L 108.562918 235.576398 
L 109.172127 235.882091 
L 109.861495 236.492526 
L 110.695149 237.553257 
L 111.849439 239.425909 
L 112.202139 240.044519 
L 112.266266 239.946143 
L 114.125957 236.875034 
L 115.023738 235.815475 
L 115.729138 235.299553 
L 116.338347 235.113532 
L 116.89946 235.167198 
L 117.476605 235.44777 
L 118.13391 236.03206 
L 118.919468 237.056207 
L 119.961536 238.822712 
L 120.61884 240.034474 
L 120.666936 239.942459 
L 122.526626 236.589873 
L 123.408376 235.445631 
L 124.113775 234.870284 
L 124.706952 234.657934 
L 125.252034 234.694751 
L 125.813147 234.966104 
L 126.438388 235.536122 
L 127.175851 236.533827 
L 128.13776 238.249561 
L 129.01951 240.038818 
L 129.083637 239.904264 
L 130.927295 236.252102 
L 131.809045 234.988767 
L 132.498413 234.360846 
L 133.075558 234.117452 
L 133.604608 234.134736 
L 134.133658 234.384509 
L 134.726835 234.932283 
L 135.416202 235.894067 
L 136.297952 237.541868 
L 137.420179 240.043584 
L 137.500338 239.85811 
L 139.327965 235.845573 
L 140.193682 234.458657 
L 140.867018 233.758312 
L 141.428132 233.469558 
L 141.925118 233.452828 
L 142.422104 233.664593 
L 142.967186 234.154269 
L 143.608458 235.052543 
L 144.410049 236.596101 
L 145.532276 239.302317 
L 145.820848 240.046547 
L 145.868944 239.927387 
L 147.760697 235.279727 
L 148.626415 233.736887 
L 149.28372 232.975921 
L 149.828801 232.657838 
L 150.309755 232.628848 
L 150.774678 232.82963 
L 151.287696 233.308468 
L 151.896905 234.208688 
L 152.6504 235.760609 
L 153.660404 238.409119 
L 154.221518 240.041728 
L 154.285645 239.87268 
L 156.177399 234.605695 
L 157.027085 232.879684 
L 157.684389 232.003186 
L 158.213439 231.636997 
L 158.662329 231.58044 
L 159.095188 231.75226 
L 159.576143 232.20211 
L 160.137256 233.057571 
L 160.826624 234.55049 
L 161.724405 237.082732 
L 162.622187 240.030795 
L 162.702346 239.801872 
L 164.610131 233.68862 
L 165.459817 231.704174 
L 166.10109 230.717248 
L 166.614108 230.297322 
L 167.046967 230.217118 
L 167.447762 230.372722 
L 167.896653 230.809223 
L 168.425703 231.668801 
L 169.066975 233.174067 
L 169.884598 235.714406 
L 171.038888 240.026366 
L 171.119047 239.706912 
L 173.042864 232.452457 
L 173.876519 230.149199 
L 174.517791 228.970837 
L 175.014777 228.473625 
L 175.415573 228.357414 
L 175.784304 228.48217 
L 176.185099 228.871189 
L 176.666054 229.680524 
L 177.259231 231.166415 
L 177.996694 233.678192 
L 178.990667 237.94175 
L 179.439557 240.035654 
L 179.487653 239.805482 
L 181.539725 230.447352 
L 182.357347 227.749464 
L 182.982588 226.381044 
L 183.463542 225.807784 
L 183.832274 225.67221 
L 184.168942 225.786651 
L 184.537673 226.17585 
L 184.986564 227.019002 
L 185.531646 228.568231 
L 186.204982 231.208861 
L 187.086731 235.658116 
L 187.840227 240.045576 
L 187.904354 239.664044 
L 190.052617 227.291652 
L 190.854207 223.977101 
L 191.463416 222.305861 
L 191.928338 221.607889 
L 192.265007 221.439397 
L 192.553579 221.528763 
L 192.874215 221.885536 
L 193.275011 222.713817 
L 193.771997 224.320782 
L 194.381206 227.119694 
L 195.150733 231.802051 
L 196.208832 239.769044 
L 196.240896 240.027312 
L 196.288991 239.687969 
L 198.709795 220.882903 
L 199.479322 216.745655 
L 200.056467 214.726731 
L 200.473294 213.942397 
L 200.777899 213.755451 
L 201.018376 213.847731 
L 201.290916 214.214209 
L 201.643616 215.107305 
L 202.092507 216.92883 
L 202.637589 220.150061 
L 203.310925 225.558318 
L 204.176643 234.484469 
L 204.641565 239.976002 
L 204.705692 239.344815 
L 207.735705 203.377844 
L 208.409041 198.43484 
L 208.906027 196.189638 
L 209.258727 195.428512 
L 209.483172 195.333008 
L 209.675554 195.503216 
L 209.932063 196.10462 
L 210.268731 197.565009 
L 210.685558 200.462597 
L 211.198576 205.724165 
L 211.807785 214.417429 
L 212.545248 228.397902 
L 213.058266 239.894335 
L 213.106362 238.705191 
L 214.132398 210.412709 
L 215.623356 162.348224 
L 217.996064 86.193515 
L 219.0221 60.428181 
L 219.807659 45.793597 
L 220.4329 37.876002 
L 220.913854 34.222352 
L 221.266554 32.939329 
L 221.490999 32.746302 
L 221.651317 32.906192 
L 221.875763 33.546237 
L 222.180367 35.186684 
L 222.581162 38.67822 
L 223.09418 45.285306 
L 223.735453 56.706889 
L 224.537043 75.354673 
L 225.579111 105.306521 
L 227.34261 163.67435 
L 229.170237 221.651394 
L 229.859605 240.044551 
L 229.891668 239.263561 
L 230.821514 219.109616 
L 231.59104 206.873274 
L 232.232313 199.922973 
L 232.745331 196.485402 
L 233.146126 195.073897 
L 233.434699 194.721621 
L 233.627081 194.783231 
L 233.851526 195.143164 
L 234.15613 196.104722 
L 234.572957 198.240507 
L 235.118039 202.299771 
L 235.855502 209.637363 
L 236.961697 223.18092 
L 238.260274 240.010708 
L 238.30837 239.498007 
L 239.46266 226.572673 
L 240.280282 219.677273 
L 240.937587 215.846185 
L 241.450605 214.003127 
L 241.8514 213.27521 
L 242.139973 213.13358 
L 242.38045 213.25463 
L 242.669022 213.678049 
L 243.053786 214.692997 
L 243.550772 216.707075 
L 244.192044 220.320973 
L 245.073794 226.703372 
L 246.660943 239.99718 
L 246.757134 239.309741 
L 248.007616 229.875057 
L 248.84127 225.126808 
L 249.498574 222.55009 
L 250.011592 221.331029 
L 250.412387 220.877315 
L 250.716992 220.824525 
L 251.005564 221.002956 
L 251.358264 221.51344 
L 251.807155 222.603578 
L 252.3843 224.661615 
L 253.137795 228.269975 
L 254.24399 234.810315 
L 255.077645 240.014401 
L 255.12574 239.713825 
L 256.472412 231.980584 
L 257.322098 228.297754 
L 257.979402 226.340716 
L 258.49242 225.420253 
L 258.909248 225.080041 
L 259.245916 225.072849 
L 259.582584 225.300655 
L 259.983379 225.867509 
L 260.480365 226.988743 
L 261.121638 229.0422 
L 261.971324 232.592602 
L 263.478314 240.036827 
L 263.574505 239.555398 
L 264.95324 233.203431 
L 265.802927 230.261997 
L 266.460231 228.710888 
L 266.989281 227.979995 
L 267.406108 227.743213 
L 267.774839 227.783794 
L 268.159603 228.071555 
L 268.608494 228.710732 
L 269.169607 229.933523 
L 269.891038 232.098513 
L 270.885011 235.866947 
L 271.878983 240.0435 
L 271.94311 239.785384 
L 273.385973 234.190472 
L 274.235659 231.715861 
L 274.892964 230.409016 
L 275.422013 229.793574 
L 275.854872 229.593114 
L 276.239636 229.645276 
L 276.656463 229.94165 
L 277.137417 230.579488 
L 277.730594 231.765094 
L 278.500121 233.854076 
L 279.606316 237.588681 
L 280.279652 240.036031 
L 280.34378 239.834749 
L 281.818706 234.901814 
L 282.684424 232.736493 
L 283.35776 231.603385 
L 283.902842 231.0877 
L 284.351733 230.945514 
L 284.76856 231.04284 
L 285.21745 231.38861 
L 285.7465 232.099081 
L 286.403804 233.389996 
L 287.25349 235.594143 
L 288.696354 240.023994 
L 288.792544 239.718739 
L 290.251439 235.438863 
L 291.117157 233.53985 
L 291.790493 232.549242 
L 292.335575 232.102298 
L 292.800497 231.984171 
L 293.249388 232.100803 
L 293.730342 232.47034 
L 294.291456 233.201015 
L 294.996855 234.521654 
L 295.926701 236.78532 
L 297.097023 240.035253 
L 297.177182 239.809755 
L 298.684172 235.85873 
L 299.54989 234.170224 
L 300.223226 233.293366 
L 300.784339 232.895114 
L 301.265294 232.80596 
L 301.730216 232.941605 
L 302.243234 233.336363 
L 302.852443 234.114864 
L 303.605938 235.477352 
L 304.631974 237.843014 
L 305.497692 240.042033 
L 305.561819 239.883036 
L 307.100873 236.228782 
L 307.982623 234.678206 
L 308.671991 233.880343 
L 309.249136 233.531612 
L 309.746122 233.47551 
L 310.243108 233.645169 
L 310.78819 234.080879 
L 311.429462 234.899362 
L 312.231053 236.311092 
L 313.401375 238.881038 
L 313.898361 240.042441 
L 313.946457 239.943339 
L 315.533606 236.502757 
L 316.415356 235.096414 
L 317.104724 234.37742 
L 317.681869 234.068303 
L 318.210919 234.030378 
L 318.723937 234.217121 
L 319.301082 234.678717 
L 319.974418 235.521595 
L 320.840136 236.996272 
L 322.20284 239.834166 
L 322.299031 240.038485 
L 322.363158 239.924816 
L 323.950307 236.759138 
L 324.832057 235.465931 
L 325.537457 234.794582 
L 326.130634 234.515298 
L 326.675715 234.499078 
L 327.220797 234.711693 
L 327.830006 235.206297 
L 328.551437 236.103995 
L 329.481282 237.650589 
L 330.715732 240.034574 
L 330.795891 239.876905 
L 332.38304 236.951305 
L 333.280822 235.744791 
L 333.986221 235.139785 
L 334.59543 234.894001 
L 335.156544 234.904331 
L 335.717657 235.139219 
L 336.342898 235.650082 
L 337.096393 236.571632 
L 338.090365 238.172009 
L 339.116401 240.039863 
L 339.180528 239.925063 
L 340.799741 237.139914 
L 341.697523 236.01747 
L 342.418954 235.446946 
L 343.044195 235.224777 
L 343.62134 235.253549 
L 344.214517 235.513621 
L 344.871821 236.056541 
L 345.673412 237.030001 
L 346.763575 238.743684 
L 347.51707 240.042221 
L 347.581198 239.939075 
L 349.232474 237.281748 
L 350.130256 236.239561 
L 350.851687 235.714604 
L 351.476928 235.515789 
L 352.070105 235.555909 
L 352.679314 235.824903 
L 353.368682 236.38736 
L 354.202336 237.377167 
L 355.372658 239.152521 
L 355.91774 240.041383 
L 355.981867 239.951382 
L 357.649175 237.426667 
L 358.562989 236.434682 
L 359.300452 235.942573 
L 359.941724 235.769113 
L 360.550933 235.831717 
L 361.192206 236.131349 
L 361.913637 236.73088 
L 362.795387 237.77446 
L 364.126027 239.743834 
L 364.334441 240.034147 
L 364.382536 239.962278 
L 366.081908 237.5354 
L 366.995722 236.607529 
L 367.733185 236.15195 
L 368.390489 235.996177 
L 369.01573 236.074492 
L 369.673034 236.388253 
L 370.426529 237.012616 
L 371.356374 238.096639 
L 372.73511 240.038369 
L 372.847333 239.877826 
L 374.482578 237.668786 
L 375.412423 236.77392 
L 376.165918 236.338966 
L 376.839254 236.199728 
L 377.480526 236.293107 
L 378.153862 236.620656 
L 378.923389 237.253711 
L 379.90133 238.371361 
L 381.135779 240.040915 
L 381.23197 239.913678 
L 382.899279 237.770964 
L 383.829124 236.923174 
L 384.598651 236.507094 
L 385.288019 236.383413 
L 385.945323 236.491301 
L 386.650723 236.84286 
L 387.452313 237.505223 
L 388.478349 238.663721 
L 389.552481 240.029425 
L 389.616608 239.9461 
L 391.332012 237.846545 
L 392.277888 237.036148 
L 393.047415 236.65397 
L 393.736783 236.550164 
L 394.410119 236.67208 
L 395.131551 237.03683 
L 395.965205 237.72276 
L 397.055368 238.934577 
L 397.95315 240.033817 
L 398.017277 239.955204 
L 399.748713 237.930744 
L 400.69459 237.159337 
L 401.480148 236.792587 
L 402.185548 236.702364 
L 402.874916 236.837885 
L 403.612379 237.215533 
L 404.478097 237.924517 
L 405.632388 239.186137 
L 406.353819 240.037289 
L 406.417946 239.963507 
L 408.181446 237.992437 
L 409.127323 237.261925 
L 409.912881 236.919199 
L 410.634313 236.84197 
L 411.339713 236.990722 
L 412.109239 237.391684 
L 413.007021 238.127716 
L 414.257502 239.476029 
L 414.754488 240.039656 
L 414.818616 239.971111 
L 416.614179 238.048914 
L 417.576087 237.346962 
L 418.377678 237.027686 
L 419.099109 236.971799 
L 419.820541 237.138304 
L 420.6061 237.556352 
L 421.535945 238.318449 
L 422.882617 239.746537 
L 423.17119 240.029918 
L 423.219285 239.9781 
L 425.046911 238.100829 
L 426.00882 237.434023 
L 426.810411 237.135316 
L 427.547874 237.091059 
L 428.285337 237.270063 
L 429.086928 237.700033 
L 430.048837 238.483018 
L 431.619954 239.984544 
L 431.700113 239.897922 
L 433.415517 238.200988 
L 434.393458 237.538862 
L 435.21108 237.241247 
L 435.964575 237.19861 
L 436.71807 237.380519 
L 437.535693 237.813229 
L 438.529665 238.608388 
L 440.100783 239.907045 
L 441.832218 238.255727 
L 442.826191 237.612131 
L 443.659845 237.330016 
L 444.429372 237.303206 
L 445.198899 237.501861 
L 446.048585 237.961329 
L 447.090652 238.7986 
L 448.48542 239.931705 
L 450.248919 238.30647 
L 451.242892 237.687743 
L 452.076546 237.418384 
L 452.862105 237.397595 
L 453.647663 237.603605 
L 454.513381 238.070054 
L 455.587513 238.922148 
L 456.870058 239.954689 
L 458.681652 238.34189 
L 459.675625 237.750925 
L 460.525311 237.495601 
L 461.310869 237.487798 
L 462.11246 237.705526 
L 462.99421 238.183087 
L 464.100405 239.053064 
L 465.270727 239.961059 
L 467.114385 238.374988 
L 468.124389 237.803301 
L 468.974075 237.56826 
L 469.775666 237.574987 
L 470.593288 237.808567 
L 471.507102 238.311716 
L 472.677424 239.233384 
L 473.671396 239.967021 
L 475.531086 238.416841 
L 476.54109 237.865458 
L 477.406808 237.638677 
L 478.224431 237.655196 
L 479.058085 237.900026 
L 479.98793 238.413576 
L 481.206348 239.3644 
L 482.072065 239.972614 
L 483.963819 238.445557 
L 484.973823 237.917572 
L 485.839541 237.704913 
L 486.657164 237.728391 
L 487.50685 237.980104 
L 488.468758 238.510622 
L 489.735271 239.489202 
L 490.472735 239.977869 
L 492.396552 238.472596 
L 493.422588 237.960911 
L 494.304338 237.764499 
L 495.137992 237.805816 
L 496.00371 238.076727 
L 496.997682 238.635398 
L 498.344354 239.675159 
L 498.873404 239.982814 
L 500.829285 238.498114 
L 501.855321 238.007576 
L 502.737071 237.823848 
L 503.586757 237.874249 
L 504.468506 238.155827 
L 505.47851 238.723824 
L 506.905342 239.81345 
L 507.274073 239.987475 
L 509.262018 238.52225 
L 510.288054 238.051738 
L 511.185835 237.879067 
L 512.035521 237.939393 
L 512.933303 238.231481 
L 513.975371 238.819194 
L 515.498393 239.970362 
L 515.674743 239.991872 
L 517.694751 238.545126 
L 518.720787 238.093615 
L 519.618568 237.932516 
L 520.484286 238.001528 
L 521.398099 238.303973 
L 522.456199 238.900356 
L 524.171603 239.921772 
L 526.015261 238.629016 
L 527.073361 238.157707 
L 527.987174 237.986397 
L 528.868924 238.047807 
L 529.782737 238.338049 
L 530.856868 238.926016 
L 532.588304 239.915479 
L 534.41593 238.665181 
L 535.490062 238.199231 
L 536.419907 238.034161 
L 537.301657 238.100981 
L 538.231502 238.397718 
L 539.321665 238.991063 
L 540.972941 239.933211 
L 542.848663 238.682271 
L 543.922795 238.233982 
L 544.85264 238.079699 
L 545.750421 238.154941 
L 546.696298 238.461853 
L 547.818525 239.073888 
L 549.373611 239.938516 
L 551.265364 238.706903 
L 552.339496 238.271614 
L 553.285373 238.123182 
L 554.199186 238.206768 
L 555.161095 238.523711 
L 556.315385 239.154002 
L 557.678089 240.010461 
L 557.678089 240.010461 
" clip-path="url(#p58c0c35ff0)" style="fill: none; stroke: #2ca02c; stroke-linecap: square"/>
   </g>
   <g id="line2d_30">
    <path d="M 221.455729 250.421875 
L 221.455729 22.318125 
" clip-path="url(#p58c0c35ff0)" style="fill: none; stroke-dasharray: 3.7,1.6; stroke-dashoffset: 0; stroke: #000000"/>
   </g>
   <g id="line2d_31">
    <path d="M 389.561458 250.421875 
L 389.561458 22.318125 
" clip-path="url(#p58c0c35ff0)" style="fill: none; stroke-dasharray: 3.7,1.6; stroke-dashoffset: 0; stroke: #000000"/>
   </g>
   <g id="patch_3">
    <path d="M 53.35 250.421875 
L 53.35 22.318125 
" style="fill: none; stroke: #000000; stroke-width: 0.8; stroke-linejoin: miter; stroke-linecap: square"/>
   </g>
   <g id="patch_4">
    <path d="M 557.667188 250.421875 
L 557.667188 22.318125 
" style="fill: none; stroke: #000000; stroke-width: 0.8; stroke-linejoin: miter; stroke-linecap: square"/>
   </g>
   <g id="patch_5">
    <path d="M 53.35 250.421875 
L 557.667188 250.421875 
" style="fill: none; stroke: #000000; stroke-width: 0.8; stroke-linejoin: miter; stroke-linecap: square"/>
   </g>
   <g id="patch_6">
    <path d="M 53.35 22.318125 
L 557.667188 22.318125 
" style="fill: none; stroke: #000000; stroke-width: 0.8; stroke-linejoin: miter; stroke-linecap: square"/>
   </g>
   <g id="text_16">
    <!-- Discrete-time Fourier transform (DTFT) -->
    <g transform="translate(188.899531 16.318125) scale(0.12 -0.12)">
     <defs>
      <path id="DejaVuSans-44" d="M 1259 4147 
L 1259 519 
L 2022 519 
Q 2988 519 3436 956 
Q 3884 1394 3884 2338 
Q 3884 3275 3436 3711 
Q 2988 4147 2022 4147 
L 1259 4147 
z
M 628 4666 
L 1925 4666 
Q 3281 4666 3915 4102 
Q 4550 3538 4550 2338 
Q 4550 1131 3912 565 
Q 3275 0 1925 0 
L 628 0 
L 628 4666 
z
" transform="scale(0.015625)"/>
      <path id="DejaVuSans-73" d="M 2834 3397 
L 2834 2853 
Q 2591 2978 2328 3040 
Q 2066 3103 1784 3103 
Q 1356 3103 1142 2972 
Q 928 2841 928 2578 
Q 928 2378 1081 2264 
Q 1234 2150 1697 2047 
L 1894 2003 
Q 2506 1872 2764 1633 
Q 3022 1394 3022 966 
Q 3022 478 2636 193 
Q 2250 -91 1575 -91 
Q 1294 -91 989 -36 
Q 684 19 347 128 
L 347 722 
Q 666 556 975 473 
Q 1284 391 1588 391 
Q 1994 391 2212 530 
Q 2431 669 2431 922 
Q 2431 1156 2273 1281 
Q 2116 1406 1581 1522 
L 1381 1569 
Q 847 1681 609 1914 
Q 372 2147 372 2553 
Q 372 3047 722 3315 
Q 1072 3584 1716 3584 
Q 2034 3584 2315 3537 
Q 2597 3491 2834 3397 
z
" transform="scale(0.015625)"/>
      <path id="DejaVuSans-2d" d="M 313 2009 
L 1997 2009 
L 1997 1497 
L 313 1497 
L 313 2009 
z
" transform="scale(0.015625)"/>
      <path id="DejaVuSans-6d" d="M 3328 2828 
Q 3544 3216 3844 3400 
Q 4144 3584 4550 3584 
Q 5097 3584 5394 3201 
Q 5691 2819 5691 2113 
L 5691 0 
L 5113 0 
L 5113 2094 
Q 5113 2597 4934 2840 
Q 4756 3084 4391 3084 
Q 3944 3084 3684 2787 
Q 3425 2491 3425 1978 
L 3425 0 
L 2847 0 
L 2847 2094 
Q 2847 2600 2669 2842 
Q 2491 3084 2119 3084 
Q 1678 3084 1418 2786 
Q 1159 2488 1159 1978 
L 1159 0 
L 581 0 
L 581 3500 
L 1159 3500 
L 1159 2956 
Q 1356 3278 1631 3431 
Q 1906 3584 2284 3584 
Q 2666 3584 2933 3390 
Q 3200 3197 3328 2828 
z
" transform="scale(0.015625)"/>
      <path id="DejaVuSans-6f" d="M 1959 3097 
Q 1497 3097 1228 2736 
Q 959 2375 959 1747 
Q 959 1119 1226 758 
Q 1494 397 1959 397 
Q 2419 397 2687 759 
Q 2956 1122 2956 1747 
Q 2956 2369 2687 2733 
Q 2419 3097 1959 3097 
z
M 1959 3584 
Q 2709 3584 3137 3096 
Q 3566 2609 3566 1747 
Q 3566 888 3137 398 
Q 2709 -91 1959 -91 
Q 1206 -91 779 398 
Q 353 888 353 1747 
Q 353 2609 779 3096 
Q 1206 3584 1959 3584 
z
" transform="scale(0.015625)"/>
      <path id="DejaVuSans-66" d="M 2375 4863 
L 2375 4384 
L 1825 4384 
Q 1516 4384 1395 4259 
Q 1275 4134 1275 3809 
L 1275 3500 
L 2222 3500 
L 2222 3053 
L 1275 3053 
L 1275 0 
L 697 0 
L 697 3053 
L 147 3053 
L 147 3500 
L 697 3500 
L 697 3744 
Q 697 4328 969 4595 
Q 1241 4863 1831 4863 
L 2375 4863 
z
" transform="scale(0.015625)"/>
      <path id="DejaVuSans-54" d="M -19 4666 
L 3928 4666 
L 3928 4134 
L 2272 4134 
L 2272 0 
L 1638 0 
L 1638 4134 
L -19 4134 
L -19 4666 
z
" transform="scale(0.015625)"/>
     </defs>
     <use xlink:href="#DejaVuSans-44"/>
     <use xlink:href="#DejaVuSans-69" transform="translate(77.001953 0)"/>
     <use xlink:href="#DejaVuSans-73" transform="translate(104.785156 0)"/>
     <use xlink:href="#DejaVuSans-63" transform="translate(156.884766 0)"/>
     <use xlink:href="#DejaVuSans-72" transform="translate(211.865234 0)"/>
     <use xlink:href="#DejaVuSans-65" transform="translate(250.728516 0)"/>
     <use xlink:href="#DejaVuSans-74" transform="translate(312.251953 0)"/>
     <use xlink:href="#DejaVuSans-65" transform="translate(351.460938 0)"/>
     <use xlink:href="#DejaVuSans-2d" transform="translate(412.984375 0)"/>
     <use xlink:href="#DejaVuSans-74" transform="translate(449.068359 0)"/>
     <use xlink:href="#DejaVuSans-69" transform="translate(488.277344 0)"/>
     <use xlink:href="#DejaVuSans-6d" transform="translate(516.060547 0)"/>
     <use xlink:href="#DejaVuSans-65" transform="translate(613.472656 0)"/>
     <use xlink:href="#DejaVuSans-20" transform="translate(674.996094 0)"/>
     <use xlink:href="#DejaVuSans-46" transform="translate(706.783203 0)"/>
     <use xlink:href="#DejaVuSans-6f" transform="translate(760.677734 0)"/>
     <use xlink:href="#DejaVuSans-75" transform="translate(821.859375 0)"/>
     <use xlink:href="#DejaVuSans-72" transform="translate(885.238281 0)"/>
     <use xlink:href="#DejaVuSans-69" transform="translate(926.351562 0)"/>
     <use xlink:href="#DejaVuSans-65" transform="translate(954.134766 0)"/>
     <use xlink:href="#DejaVuSans-72" transform="translate(1015.658203 0)"/>
     <use xlink:href="#DejaVuSans-20" transform="translate(1056.771484 0)"/>
     <use xlink:href="#DejaVuSans-74" transform="translate(1088.558594 0)"/>
     <use xlink:href="#DejaVuSans-72" transform="translate(1127.767578 0)"/>
     <use xlink:href="#DejaVuSans-61" transform="translate(1168.880859 0)"/>
     <use xlink:href="#DejaVuSans-6e" transform="translate(1230.160156 0)"/>
     <use xlink:href="#DejaVuSans-73" transform="translate(1293.539062 0)"/>
     <use xlink:href="#DejaVuSans-66" transform="translate(1345.638672 0)"/>
     <use xlink:href="#DejaVuSans-6f" transform="translate(1380.84375 0)"/>
     <use xlink:href="#DejaVuSans-72" transform="translate(1442.025391 0)"/>
     <use xlink:href="#DejaVuSans-6d" transform="translate(1481.388672 0)"/>
     <use xlink:href="#DejaVuSans-20" transform="translate(1578.800781 0)"/>
     <use xlink:href="#DejaVuSans-28" transform="translate(1610.587891 0)"/>
     <use xlink:href="#DejaVuSans-44" transform="translate(1649.601562 0)"/>
     <use xlink:href="#DejaVuSans-54" transform="translate(1726.603516 0)"/>
     <use xlink:href="#DejaVuSans-46" transform="translate(1787.6875 0)"/>
     <use xlink:href="#DejaVuSans-54" transform="translate(1843.457031 0)"/>
     <use xlink:href="#DejaVuSans-29" transform="translate(1904.541016 0)"/>
    </g>
   </g>
   <g id="legend_1">
    <g id="patch_7">
     <path d="M 400.285938 74.3525 
L 550.667188 74.3525 
Q 552.667188 74.3525 552.667188 72.3525 
L 552.667188 29.318125 
Q 552.667188 27.318125 550.667188 27.318125 
L 400.285938 27.318125 
Q 398.285938 27.318125 398.285938 29.318125 
L 398.285938 72.3525 
Q 398.285938 74.3525 400.285938 74.3525 
z
" style="fill: #ffffff; opacity: 0.8; stroke: #cccccc; stroke-linejoin: miter"/>
    </g>
    <g id="line2d_32">
     <path d="M 402.285938 35.416563 
L 412.285938 35.416563 
L 422.285938 35.416563 
" style="fill: none; stroke: #1f77b4; stroke-linecap: square"/>
    </g>
    <g id="text_17">
     <!-- No clock error -->
     <g transform="translate(430.285938 38.916563) scale(0.1 -0.1)">
      <defs>
       <path id="DejaVuSans-4e" d="M 628 4666 
L 1478 4666 
L 3547 763 
L 3547 4666 
L 4159 4666 
L 4159 0 
L 3309 0 
L 1241 3903 
L 1241 0 
L 628 0 
L 628 4666 
z
" transform="scale(0.015625)"/>
       <path id="DejaVuSans-6c" d="M 603 4863 
L 1178 4863 
L 1178 0 
L 603 0 
L 603 4863 
z
" transform="scale(0.015625)"/>
       <path id="DejaVuSans-6b" d="M 581 4863 
L 1159 4863 
L 1159 1991 
L 2875 3500 
L 3609 3500 
L 1753 1863 
L 3688 0 
L 2938 0 
L 1159 1709 
L 1159 0 
L 581 0 
L 581 4863 
z
" transform="scale(0.015625)"/>
      </defs>
      <use xlink:href="#DejaVuSans-4e"/>
      <use xlink:href="#DejaVuSans-6f" transform="translate(74.804688 0)"/>
      <use xlink:href="#DejaVuSans-20" transform="translate(135.986328 0)"/>
      <use xlink:href="#DejaVuSans-63" transform="translate(167.773438 0)"/>
      <use xlink:href="#DejaVuSans-6c" transform="translate(222.753906 0)"/>
      <use xlink:href="#DejaVuSans-6f" transform="translate(250.537109 0)"/>
      <use xlink:href="#DejaVuSans-63" transform="translate(311.71875 0)"/>
      <use xlink:href="#DejaVuSans-6b" transform="translate(366.699219 0)"/>
      <use xlink:href="#DejaVuSans-20" transform="translate(424.609375 0)"/>
      <use xlink:href="#DejaVuSans-65" transform="translate(456.396484 0)"/>
      <use xlink:href="#DejaVuSans-72" transform="translate(517.919922 0)"/>
      <use xlink:href="#DejaVuSans-72" transform="translate(557.283203 0)"/>
      <use xlink:href="#DejaVuSans-6f" transform="translate(596.146484 0)"/>
      <use xlink:href="#DejaVuSans-72" transform="translate(657.328125 0)"/>
     </g>
    </g>
    <g id="line2d_33">
     <path d="M 402.285938 50.094688 
L 412.285938 50.094688 
L 422.285938 50.094688 
" style="fill: none; stroke: #ff7f0e; stroke-linecap: square"/>
    </g>
    <g id="text_18">
     <!-- Added Tx clock error -->
     <g transform="translate(430.285938 53.594688) scale(0.1 -0.1)">
      <defs>
       <path id="DejaVuSans-41" d="M 2188 4044 
L 1331 1722 
L 3047 1722 
L 2188 4044 
z
M 1831 4666 
L 2547 4666 
L 4325 0 
L 3669 0 
L 3244 1197 
L 1141 1197 
L 716 0 
L 50 0 
L 1831 4666 
z
" transform="scale(0.015625)"/>
       <path id="DejaVuSans-78" d="M 3513 3500 
L 2247 1797 
L 3578 0 
L 2900 0 
L 1881 1375 
L 863 0 
L 184 0 
L 1544 1831 
L 300 3500 
L 978 3500 
L 1906 2253 
L 2834 3500 
L 3513 3500 
z
" transform="scale(0.015625)"/>
      </defs>
      <use xlink:href="#DejaVuSans-41"/>
      <use xlink:href="#DejaVuSans-64" transform="translate(66.658203 0)"/>
      <use xlink:href="#DejaVuSans-64" transform="translate(130.134766 0)"/>
      <use xlink:href="#DejaVuSans-65" transform="translate(193.611328 0)"/>
      <use xlink:href="#DejaVuSans-64" transform="translate(255.134766 0)"/>
      <use xlink:href="#DejaVuSans-20" transform="translate(318.611328 0)"/>
      <use xlink:href="#DejaVuSans-54" transform="translate(350.398438 0)"/>
      <use xlink:href="#DejaVuSans-78" transform="translate(411.482422 0)"/>
      <use xlink:href="#DejaVuSans-20" transform="translate(470.662109 0)"/>
      <use xlink:href="#DejaVuSans-63" transform="translate(502.449219 0)"/>
      <use xlink:href="#DejaVuSans-6c" transform="translate(557.429688 0)"/>
      <use xlink:href="#DejaVuSans-6f" transform="translate(585.212891 0)"/>
      <use xlink:href="#DejaVuSans-63" transform="translate(646.394531 0)"/>
      <use xlink:href="#DejaVuSans-6b" transform="translate(701.375 0)"/>
      <use xlink:href="#DejaVuSans-20" transform="translate(759.285156 0)"/>
      <use xlink:href="#DejaVuSans-65" transform="translate(791.072266 0)"/>
      <use xlink:href="#DejaVuSans-72" transform="translate(852.595703 0)"/>
      <use xlink:href="#DejaVuSans-72" transform="translate(891.958984 0)"/>
      <use xlink:href="#DejaVuSans-6f" transform="translate(930.822266 0)"/>
      <use xlink:href="#DejaVuSans-72" transform="translate(992.003906 0)"/>
     </g>
    </g>
    <g id="line2d_34">
     <path d="M 402.285938 64.772813 
L 412.285938 64.772813 
L 422.285938 64.772813 
" style="fill: none; stroke: #2ca02c; stroke-linecap: square"/>
    </g>
    <g id="text_19">
     <!-- Removed Tx clock error -->
     <g transform="translate(430.285938 68.272813) scale(0.1 -0.1)">
      <defs>
       <path id="DejaVuSans-52" d="M 2841 2188 
Q 3044 2119 3236 1894 
Q 3428 1669 3622 1275 
L 4263 0 
L 3584 0 
L 2988 1197 
Q 2756 1666 2539 1819 
Q 2322 1972 1947 1972 
L 1259 1972 
L 1259 0 
L 628 0 
L 628 4666 
L 2053 4666 
Q 2853 4666 3247 4331 
Q 3641 3997 3641 3322 
Q 3641 2881 3436 2590 
Q 3231 2300 2841 2188 
z
M 1259 4147 
L 1259 2491 
L 2053 2491 
Q 2509 2491 2742 2702 
Q 2975 2913 2975 3322 
Q 2975 3731 2742 3939 
Q 2509 4147 2053 4147 
L 1259 4147 
z
" transform="scale(0.015625)"/>
       <path id="DejaVuSans-76" d="M 191 3500 
L 800 3500 
L 1894 563 
L 2988 3500 
L 3597 3500 
L 2284 0 
L 1503 0 
L 191 3500 
z
" transform="scale(0.015625)"/>
      </defs>
      <use xlink:href="#DejaVuSans-52"/>
      <use xlink:href="#DejaVuSans-65" transform="translate(64.982422 0)"/>
      <use xlink:href="#DejaVuSans-6d" transform="translate(126.505859 0)"/>
      <use xlink:href="#DejaVuSans-6f" transform="translate(223.917969 0)"/>
      <use xlink:href="#DejaVuSans-76" transform="translate(285.099609 0)"/>
      <use xlink:href="#DejaVuSans-65" transform="translate(344.279297 0)"/>
      <use xlink:href="#DejaVuSans-64" transform="translate(405.802734 0)"/>
      <use xlink:href="#DejaVuSans-20" transform="translate(469.279297 0)"/>
      <use xlink:href="#DejaVuSans-54" transform="translate(501.066406 0)"/>
      <use xlink:href="#DejaVuSans-78" transform="translate(562.150391 0)"/>
      <use xlink:href="#DejaVuSans-20" transform="translate(621.330078 0)"/>
      <use xlink:href="#DejaVuSans-63" transform="translate(653.117188 0)"/>
      <use xlink:href="#DejaVuSans-6c" transform="translate(708.097656 0)"/>
      <use xlink:href="#DejaVuSans-6f" transform="translate(735.880859 0)"/>
      <use xlink:href="#DejaVuSans-63" transform="translate(797.0625 0)"/>
      <use xlink:href="#DejaVuSans-6b" transform="translate(852.042969 0)"/>
      <use xlink:href="#DejaVuSans-20" transform="translate(909.953125 0)"/>
      <use xlink:href="#DejaVuSans-65" transform="translate(941.740234 0)"/>
      <use xlink:href="#DejaVuSans-72" transform="translate(1003.263672 0)"/>
      <use xlink:href="#DejaVuSans-72" transform="translate(1042.626953 0)"/>
      <use xlink:href="#DejaVuSans-6f" transform="translate(1081.490234 0)"/>
      <use xlink:href="#DejaVuSans-72" transform="translate(1142.671875 0)"/>
     </g>
    </g>
   </g>
  </g>
 </g>
 <defs>
  <clipPath id="p58c0c35ff0">
   <rect x="53.35" y="22.318125" width="504.317188" height="228.10375"/>
  </clipPath>
 </defs>
</svg>
