<?xml version="1.0" encoding="utf-8" standalone="no"?>
<!DOCTYPE svg PUBLIC "-//W3C//DTD SVG 1.1//EN"
  "http://www.w3.org/Graphics/SVG/1.1/DTD/svg11.dtd">
<svg xmlns:xlink="http://www.w3.org/1999/xlink" width="576pt" height="288pt" viewBox="0 0 576 288" xmlns="http://www.w3.org/2000/svg" version="1.1">
 <metadata>
  <rdf:RDF xmlns:dc="http://purl.org/dc/elements/1.1/" xmlns:cc="http://creativecommons.org/ns#" xmlns:rdf="http://www.w3.org/1999/02/22-rdf-syntax-ns#">
   <cc:Work>
    <dc:type rdf:resource="http://purl.org/dc/dcmitype/StillImage"/>
    <dc:date>2026-05-03T16:58:06.288169</dc:date>
    <dc:format>image/svg+xml</dc:format>
    <dc:creator>
     <cc:Agent>
      <dc:title>Matplotlib v3.10.9, https://matplotlib.org/</dc:title>
     </cc:Agent>
    </dc:creator>
   </cc:Work>
  </rdf:RDF>
 </metadata>
 <defs>
  <style type="text/css">*{stroke-linejoin: round; stroke-linecap: butt}</style>
 </defs>
 <g id="figure_1">
  <g id="patch_1">
   <path d="M 0 288 
L 576 288 
L 576 0 
L 0 0 
z
" style="fill: #ffffff"/>
  </g>
  <g id="axes_1">
   <g id="patch_2">
    <path d="M 52.160938 250.421875 
L 568.8 250.421875 
L 568.8 7.2 
L 52.160938 7.2 
z
" style="fill: #ffffff"/>
   </g>
   <g id="matplotlib.axis_1">
    <g id="xtick_1">
     <g id="line2d_1">
      <path d="M 75.644531 250.421875 
L 75.644531 7.2 
" clip-path="url(#p2aec6459e4)" style="fill: none; stroke-dasharray: 2.96,1.28; stroke-dashoffset: 0; stroke: #b0b0b0; stroke-opacity: 0.8; stroke-width: 0.8"/>
     </g>
     <g id="line2d_2">
      <defs>
       <path id="ma73b3aa997" d="M 0 0 
L 0 3.5 
" style="stroke: #000000; stroke-width: 0.8"/>
      </defs>
      <g>
       <use xlink:href="#ma73b3aa997" x="75.644531" y="250.421875" style="stroke: #000000; stroke-width: 0.8"/>
      </g>
     </g>
     <g id="text_1">
      <!-- 0 -->
      <g transform="translate(72.463281 265.020312) scale(0.1 -0.1)">
       <defs>
        <path id="DejaVuSans-30" d="M 2034 4250 
Q 1547 4250 1301 3770 
Q 1056 3291 1056 2328 
Q 1056 1369 1301 889 
Q 1547 409 2034 409 
Q 2525 409 2770 889 
Q 3016 1369 3016 2328 
Q 3016 3291 2770 3770 
Q 2525 4250 2034 4250 
z
M 2034 4750 
Q 2819 4750 3233 4129 
Q 3647 3509 3647 2328 
Q 3647 1150 3233 529 
Q 2819 -91 2034 -91 
Q 1250 -91 836 529 
Q 422 1150 422 2328 
Q 422 3509 836 4129 
Q 1250 4750 2034 4750 
z
" transform="scale(0.015625)"/>
       </defs>
       <use xlink:href="#DejaVuSans-30"/>
      </g>
     </g>
    </g>
    <g id="xtick_2">
     <g id="line2d_3">
      <path d="M 134.500656 250.421875 
L 134.500656 7.2 
" clip-path="url(#p2aec6459e4)" style="fill: none; stroke-dasharray: 2.96,1.28; stroke-dashoffset: 0; stroke: #b0b0b0; stroke-opacity: 0.8; stroke-width: 0.8"/>
     </g>
     <g id="line2d_4">
      <g>
       <use xlink:href="#ma73b3aa997" x="134.500656" y="250.421875" style="stroke: #000000; stroke-width: 0.8"/>
      </g>
     </g>
     <g id="text_2">
      <!-- 50 -->
      <g transform="translate(128.138156 265.020312) scale(0.1 -0.1)">
       <defs>
        <path id="DejaVuSans-35" d="M 691 4666 
L 3169 4666 
L 3169 4134 
L 1269 4134 
L 1269 2991 
Q 1406 3038 1543 3061 
Q 1681 3084 1819 3084 
Q 2600 3084 3056 2656 
Q 3513 2228 3513 1497 
Q 3513 744 3044 326 
Q 2575 -91 1722 -91 
Q 1428 -91 1123 -41 
Q 819 9 494 109 
L 494 744 
Q 775 591 1075 516 
Q 1375 441 1709 441 
Q 2250 441 2565 725 
Q 2881 1009 2881 1497 
Q 2881 1984 2565 2268 
Q 2250 2553 1709 2553 
Q 1456 2553 1204 2497 
Q 953 2441 691 2322 
L 691 4666 
z
" transform="scale(0.015625)"/>
       </defs>
       <use xlink:href="#DejaVuSans-35"/>
       <use xlink:href="#DejaVuSans-30" transform="translate(63.623047 0)"/>
      </g>
     </g>
    </g>
    <g id="xtick_3">
     <g id="line2d_5">
      <path d="M 193.356781 250.421875 
L 193.356781 7.2 
" clip-path="url(#p2aec6459e4)" style="fill: none; stroke-dasharray: 2.96,1.28; stroke-dashoffset: 0; stroke: #b0b0b0; stroke-opacity: 0.8; stroke-width: 0.8"/>
     </g>
     <g id="line2d_6">
      <g>
       <use xlink:href="#ma73b3aa997" x="193.356781" y="250.421875" style="stroke: #000000; stroke-width: 0.8"/>
      </g>
     </g>
     <g id="text_3">
      <!-- 100 -->
      <g transform="translate(183.813031 265.020312) scale(0.1 -0.1)">
       <defs>
        <path id="DejaVuSans-31" d="M 794 531 
L 1825 531 
L 1825 4091 
L 703 3866 
L 703 4441 
L 1819 4666 
L 2450 4666 
L 2450 531 
L 3481 531 
L 3481 0 
L 794 0 
L 794 531 
z
" transform="scale(0.015625)"/>
       </defs>
       <use xlink:href="#DejaVuSans-31"/>
       <use xlink:href="#DejaVuSans-30" transform="translate(63.623047 0)"/>
       <use xlink:href="#DejaVuSans-30" transform="translate(127.246094 0)"/>
      </g>
     </g>
    </g>
    <g id="xtick_4">
     <g id="line2d_7">
      <path d="M 252.212905 250.421875 
L 252.212905 7.2 
" clip-path="url(#p2aec6459e4)" style="fill: none; stroke-dasharray: 2.96,1.28; stroke-dashoffset: 0; stroke: #b0b0b0; stroke-opacity: 0.8; stroke-width: 0.8"/>
     </g>
     <g id="line2d_8">
      <g>
       <use xlink:href="#ma73b3aa997" x="252.212905" y="250.421875" style="stroke: #000000; stroke-width: 0.8"/>
      </g>
     </g>
     <g id="text_4">
      <!-- 150 -->
      <g transform="translate(242.669155 265.020312) scale(0.1 -0.1)">
       <use xlink:href="#DejaVuSans-31"/>
       <use xlink:href="#DejaVuSans-35" transform="translate(63.623047 0)"/>
       <use xlink:href="#DejaVuSans-30" transform="translate(127.246094 0)"/>
      </g>
     </g>
    </g>
    <g id="xtick_5">
     <g id="line2d_9">
      <path d="M 311.06903 250.421875 
L 311.06903 7.2 
" clip-path="url(#p2aec6459e4)" style="fill: none; stroke-dasharray: 2.96,1.28; stroke-dashoffset: 0; stroke: #b0b0b0; stroke-opacity: 0.8; stroke-width: 0.8"/>
     </g>
     <g id="line2d_10">
      <g>
       <use xlink:href="#ma73b3aa997" x="311.06903" y="250.421875" style="stroke: #000000; stroke-width: 0.8"/>
      </g>
     </g>
     <g id="text_5">
      <!-- 200 -->
      <g transform="translate(301.52528 265.020312) scale(0.1 -0.1)">
       <defs>
        <path id="DejaVuSans-32" d="M 1228 531 
L 3431 531 
L 3431 0 
L 469 0 
L 469 531 
Q 828 903 1448 1529 
Q 2069 2156 2228 2338 
Q 2531 2678 2651 2914 
Q 2772 3150 2772 3378 
Q 2772 3750 2511 3984 
Q 2250 4219 1831 4219 
Q 1534 4219 1204 4116 
Q 875 4013 500 3803 
L 500 4441 
Q 881 4594 1212 4672 
Q 1544 4750 1819 4750 
Q 2544 4750 2975 4387 
Q 3406 4025 3406 3419 
Q 3406 3131 3298 2873 
Q 3191 2616 2906 2266 
Q 2828 2175 2409 1742 
Q 1991 1309 1228 531 
z
" transform="scale(0.015625)"/>
       </defs>
       <use xlink:href="#DejaVuSans-32"/>
       <use xlink:href="#DejaVuSans-30" transform="translate(63.623047 0)"/>
       <use xlink:href="#DejaVuSans-30" transform="translate(127.246094 0)"/>
      </g>
     </g>
    </g>
    <g id="xtick_6">
     <g id="line2d_11">
      <path d="M 369.925155 250.421875 
L 369.925155 7.2 
" clip-path="url(#p2aec6459e4)" style="fill: none; stroke-dasharray: 2.96,1.28; stroke-dashoffset: 0; stroke: #b0b0b0; stroke-opacity: 0.8; stroke-width: 0.8"/>
     </g>
     <g id="line2d_12">
      <g>
       <use xlink:href="#ma73b3aa997" x="369.925155" y="250.421875" style="stroke: #000000; stroke-width: 0.8"/>
      </g>
     </g>
     <g id="text_6">
      <!-- 250 -->
      <g transform="translate(360.381405 265.020312) scale(0.1 -0.1)">
       <use xlink:href="#DejaVuSans-32"/>
       <use xlink:href="#DejaVuSans-35" transform="translate(63.623047 0)"/>
       <use xlink:href="#DejaVuSans-30" transform="translate(127.246094 0)"/>
      </g>
     </g>
    </g>
    <g id="xtick_7">
     <g id="line2d_13">
      <path d="M 428.781279 250.421875 
L 428.781279 7.2 
" clip-path="url(#p2aec6459e4)" style="fill: none; stroke-dasharray: 2.96,1.28; stroke-dashoffset: 0; stroke: #b0b0b0; stroke-opacity: 0.8; stroke-width: 0.8"/>
     </g>
     <g id="line2d_14">
      <g>
       <use xlink:href="#ma73b3aa997" x="428.781279" y="250.421875" style="stroke: #000000; stroke-width: 0.8"/>
      </g>
     </g>
     <g id="text_7">
      <!-- 300 -->
      <g transform="translate(419.237529 265.020312) scale(0.1 -0.1)">
       <defs>
        <path id="DejaVuSans-33" d="M 2597 2516 
Q 3050 2419 3304 2112 
Q 3559 1806 3559 1356 
Q 3559 666 3084 287 
Q 2609 -91 1734 -91 
Q 1441 -91 1130 -33 
Q 819 25 488 141 
L 488 750 
Q 750 597 1062 519 
Q 1375 441 1716 441 
Q 2309 441 2620 675 
Q 2931 909 2931 1356 
Q 2931 1769 2642 2001 
Q 2353 2234 1838 2234 
L 1294 2234 
L 1294 2753 
L 1863 2753 
Q 2328 2753 2575 2939 
Q 2822 3125 2822 3475 
Q 2822 3834 2567 4026 
Q 2313 4219 1838 4219 
Q 1578 4219 1281 4162 
Q 984 4106 628 3988 
L 628 4550 
Q 988 4650 1302 4700 
Q 1616 4750 1894 4750 
Q 2613 4750 3031 4423 
Q 3450 4097 3450 3541 
Q 3450 3153 3228 2886 
Q 3006 2619 2597 2516 
z
" transform="scale(0.015625)"/>
       </defs>
       <use xlink:href="#DejaVuSans-33"/>
       <use xlink:href="#DejaVuSans-30" transform="translate(63.623047 0)"/>
       <use xlink:href="#DejaVuSans-30" transform="translate(127.246094 0)"/>
      </g>
     </g>
    </g>
    <g id="xtick_8">
     <g id="line2d_15">
      <path d="M 487.637404 250.421875 
L 487.637404 7.2 
" clip-path="url(#p2aec6459e4)" style="fill: none; stroke-dasharray: 2.96,1.28; stroke-dashoffset: 0; stroke: #b0b0b0; stroke-opacity: 0.8; stroke-width: 0.8"/>
     </g>
     <g id="line2d_16">
      <g>
       <use xlink:href="#ma73b3aa997" x="487.637404" y="250.421875" style="stroke: #000000; stroke-width: 0.8"/>
      </g>
     </g>
     <g id="text_8">
      <!-- 350 -->
      <g transform="translate(478.093654 265.020312) scale(0.1 -0.1)">
       <use xlink:href="#DejaVuSans-33"/>
       <use xlink:href="#DejaVuSans-35" transform="translate(63.623047 0)"/>
       <use xlink:href="#DejaVuSans-30" transform="translate(127.246094 0)"/>
      </g>
     </g>
    </g>
    <g id="xtick_9">
     <g id="line2d_17">
      <path d="M 546.493529 250.421875 
L 546.493529 7.2 
" clip-path="url(#p2aec6459e4)" style="fill: none; stroke-dasharray: 2.96,1.28; stroke-dashoffset: 0; stroke: #b0b0b0; stroke-opacity: 0.8; stroke-width: 0.8"/>
     </g>
     <g id="line2d_18">
      <g>
       <use xlink:href="#ma73b3aa997" x="546.493529" y="250.421875" style="stroke: #000000; stroke-width: 0.8"/>
      </g>
     </g>
     <g id="text_9">
      <!-- 400 -->
      <g transform="translate(536.949779 265.020312) scale(0.1 -0.1)">
       <defs>
        <path id="DejaVuSans-34" d="M 2419 4116 
L 825 1625 
L 2419 1625 
L 2419 4116 
z
M 2253 4666 
L 3047 4666 
L 3047 1625 
L 3713 1625 
L 3713 1100 
L 3047 1100 
L 3047 0 
L 2419 0 
L 2419 1100 
L 313 1100 
L 313 1709 
L 2253 4666 
z
" transform="scale(0.015625)"/>
       </defs>
       <use xlink:href="#DejaVuSans-34"/>
       <use xlink:href="#DejaVuSans-30" transform="translate(63.623047 0)"/>
       <use xlink:href="#DejaVuSans-30" transform="translate(127.246094 0)"/>
      </g>
     </g>
    </g>
    <g id="text_10">
     <!-- Sample, $n$ -->
     <g transform="translate(285.380469 278.7) scale(0.1 -0.1)">
      <defs>
       <path id="DejaVuSans-53" d="M 3425 4513 
L 3425 3897 
Q 3066 4069 2747 4153 
Q 2428 4238 2131 4238 
Q 1616 4238 1336 4038 
Q 1056 3838 1056 3469 
Q 1056 3159 1242 3001 
Q 1428 2844 1947 2747 
L 2328 2669 
Q 3034 2534 3370 2195 
Q 3706 1856 3706 1288 
Q 3706 609 3251 259 
Q 2797 -91 1919 -91 
Q 1588 -91 1214 -16 
Q 841 59 441 206 
L 441 856 
Q 825 641 1194 531 
Q 1563 422 1919 422 
Q 2459 422 2753 634 
Q 3047 847 3047 1241 
Q 3047 1584 2836 1778 
Q 2625 1972 2144 2069 
L 1759 2144 
Q 1053 2284 737 2584 
Q 422 2884 422 3419 
Q 422 4038 858 4394 
Q 1294 4750 2059 4750 
Q 2388 4750 2728 4690 
Q 3069 4631 3425 4513 
z
" transform="scale(0.015625)"/>
       <path id="DejaVuSans-61" d="M 2194 1759 
Q 1497 1759 1228 1600 
Q 959 1441 959 1056 
Q 959 750 1161 570 
Q 1363 391 1709 391 
Q 2188 391 2477 730 
Q 2766 1069 2766 1631 
L 2766 1759 
L 2194 1759 
z
M 3341 1997 
L 3341 0 
L 2766 0 
L 2766 531 
Q 2569 213 2275 61 
Q 1981 -91 1556 -91 
Q 1019 -91 701 211 
Q 384 513 384 1019 
Q 384 1609 779 1909 
Q 1175 2209 1959 2209 
L 2766 2209 
L 2766 2266 
Q 2766 2663 2505 2880 
Q 2244 3097 1772 3097 
Q 1472 3097 1187 3025 
Q 903 2953 641 2809 
L 641 3341 
Q 956 3463 1253 3523 
Q 1550 3584 1831 3584 
Q 2591 3584 2966 3190 
Q 3341 2797 3341 1997 
z
" transform="scale(0.015625)"/>
       <path id="DejaVuSans-6d" d="M 3328 2828 
Q 3544 3216 3844 3400 
Q 4144 3584 4550 3584 
Q 5097 3584 5394 3201 
Q 5691 2819 5691 2113 
L 5691 0 
L 5113 0 
L 5113 2094 
Q 5113 2597 4934 2840 
Q 4756 3084 4391 3084 
Q 3944 3084 3684 2787 
Q 3425 2491 3425 1978 
L 3425 0 
L 2847 0 
L 2847 2094 
Q 2847 2600 2669 2842 
Q 2491 3084 2119 3084 
Q 1678 3084 1418 2786 
Q 1159 2488 1159 1978 
L 1159 0 
L 581 0 
L 581 3500 
L 1159 3500 
L 1159 2956 
Q 1356 3278 1631 3431 
Q 1906 3584 2284 3584 
Q 2666 3584 2933 3390 
Q 3200 3197 3328 2828 
z
" transform="scale(0.015625)"/>
       <path id="DejaVuSans-70" d="M 1159 525 
L 1159 -1331 
L 581 -1331 
L 581 3500 
L 1159 3500 
L 1159 2969 
Q 1341 3281 1617 3432 
Q 1894 3584 2278 3584 
Q 2916 3584 3314 3078 
Q 3713 2572 3713 1747 
Q 3713 922 3314 415 
Q 2916 -91 2278 -91 
Q 1894 -91 1617 61 
Q 1341 213 1159 525 
z
M 3116 1747 
Q 3116 2381 2855 2742 
Q 2594 3103 2138 3103 
Q 1681 3103 1420 2742 
Q 1159 2381 1159 1747 
Q 1159 1113 1420 752 
Q 1681 391 2138 391 
Q 2594 391 2855 752 
Q 3116 1113 3116 1747 
z
" transform="scale(0.015625)"/>
       <path id="DejaVuSans-6c" d="M 603 4863 
L 1178 4863 
L 1178 0 
L 603 0 
L 603 4863 
z
" transform="scale(0.015625)"/>
       <path id="DejaVuSans-65" d="M 3597 1894 
L 3597 1613 
L 953 1613 
Q 991 1019 1311 708 
Q 1631 397 2203 397 
Q 2534 397 2845 478 
Q 3156 559 3463 722 
L 3463 178 
Q 3153 47 2828 -22 
Q 2503 -91 2169 -91 
Q 1331 -91 842 396 
Q 353 884 353 1716 
Q 353 2575 817 3079 
Q 1281 3584 2069 3584 
Q 2775 3584 3186 3129 
Q 3597 2675 3597 1894 
z
M 3022 2063 
Q 3016 2534 2758 2815 
Q 2500 3097 2075 3097 
Q 1594 3097 1305 2825 
Q 1016 2553 972 2059 
L 3022 2063 
z
" transform="scale(0.015625)"/>
       <path id="DejaVuSans-2c" d="M 750 794 
L 1409 794 
L 1409 256 
L 897 -744 
L 494 -744 
L 750 256 
L 750 794 
z
" transform="scale(0.015625)"/>
       <path id="DejaVuSans-20" transform="scale(0.015625)"/>
       <path id="DejaVuSans-Oblique-6e" d="M 3566 2113 
L 3156 0 
L 2578 0 
L 2988 2091 
Q 3016 2238 3031 2350 
Q 3047 2463 3047 2528 
Q 3047 2791 2881 2937 
Q 2716 3084 2419 3084 
Q 1956 3084 1622 2776 
Q 1288 2469 1184 1941 
L 800 0 
L 225 0 
L 903 3500 
L 1478 3500 
L 1363 2950 
Q 1603 3253 1940 3418 
Q 2278 3584 2650 3584 
Q 3113 3584 3367 3334 
Q 3622 3084 3622 2631 
Q 3622 2519 3608 2391 
Q 3594 2263 3566 2113 
z
" transform="scale(0.015625)"/>
      </defs>
      <use xlink:href="#DejaVuSans-53" transform="translate(0 0.015625)"/>
      <use xlink:href="#DejaVuSans-61" transform="translate(63.476562 0.015625)"/>
      <use xlink:href="#DejaVuSans-6d" transform="translate(124.755859 0.015625)"/>
      <use xlink:href="#DejaVuSans-70" transform="translate(222.167969 0.015625)"/>
      <use xlink:href="#DejaVuSans-6c" transform="translate(285.644531 0.015625)"/>
      <use xlink:href="#DejaVuSans-65" transform="translate(313.427734 0.015625)"/>
      <use xlink:href="#DejaVuSans-2c" transform="translate(374.951172 0.015625)"/>
      <use xlink:href="#DejaVuSans-20" transform="translate(406.738281 0.015625)"/>
      <use xlink:href="#DejaVuSans-Oblique-6e" transform="translate(438.525391 0.015625)"/>
     </g>
    </g>
   </g>
   <g id="matplotlib.axis_2">
    <g id="ytick_1">
     <g id="line2d_19">
      <path d="M 52.160938 224.029132 
L 568.8 224.029132 
" clip-path="url(#p2aec6459e4)" style="fill: none; stroke-dasharray: 2.96,1.28; stroke-dashoffset: 0; stroke: #b0b0b0; stroke-opacity: 0.8; stroke-width: 0.8"/>
     </g>
     <g id="line2d_20">
      <defs>
       <path id="m842822c87f" d="M 0 0 
L -3.5 0 
" style="stroke: #000000; stroke-width: 0.8"/>
      </defs>
      <g>
       <use xlink:href="#m842822c87f" x="52.160938" y="224.029132" style="stroke: #000000; stroke-width: 0.8"/>
      </g>
     </g>
     <g id="text_11">
      <!-- −0.4 -->
      <g transform="translate(20.878125 227.828351) scale(0.1 -0.1)">
       <defs>
        <path id="DejaVuSans-2212" d="M 678 2272 
L 4684 2272 
L 4684 1741 
L 678 1741 
L 678 2272 
z
" transform="scale(0.015625)"/>
        <path id="DejaVuSans-2e" d="M 684 794 
L 1344 794 
L 1344 0 
L 684 0 
L 684 794 
z
" transform="scale(0.015625)"/>
       </defs>
       <use xlink:href="#DejaVuSans-2212"/>
       <use xlink:href="#DejaVuSans-30" transform="translate(83.789062 0)"/>
       <use xlink:href="#DejaVuSans-2e" transform="translate(147.412109 0)"/>
       <use xlink:href="#DejaVuSans-34" transform="translate(179.199219 0)"/>
      </g>
     </g>
    </g>
    <g id="ytick_2">
     <g id="line2d_21">
      <path d="M 52.160938 178.972331 
L 568.8 178.972331 
" clip-path="url(#p2aec6459e4)" style="fill: none; stroke-dasharray: 2.96,1.28; stroke-dashoffset: 0; stroke: #b0b0b0; stroke-opacity: 0.8; stroke-width: 0.8"/>
     </g>
     <g id="line2d_22">
      <g>
       <use xlink:href="#m842822c87f" x="52.160938" y="178.972331" style="stroke: #000000; stroke-width: 0.8"/>
      </g>
     </g>
     <g id="text_12">
      <!-- −0.2 -->
      <g transform="translate(20.878125 182.77155) scale(0.1 -0.1)">
       <use xlink:href="#DejaVuSans-2212"/>
       <use xlink:href="#DejaVuSans-30" transform="translate(83.789062 0)"/>
       <use xlink:href="#DejaVuSans-2e" transform="translate(147.412109 0)"/>
       <use xlink:href="#DejaVuSans-32" transform="translate(179.199219 0)"/>
      </g>
     </g>
    </g>
    <g id="ytick_3">
     <g id="line2d_23">
      <path d="M 52.160938 133.91553 
L 568.8 133.91553 
" clip-path="url(#p2aec6459e4)" style="fill: none; stroke-dasharray: 2.96,1.28; stroke-dashoffset: 0; stroke: #b0b0b0; stroke-opacity: 0.8; stroke-width: 0.8"/>
     </g>
     <g id="line2d_24">
      <g>
       <use xlink:href="#m842822c87f" x="52.160938" y="133.91553" style="stroke: #000000; stroke-width: 0.8"/>
      </g>
     </g>
     <g id="text_13">
      <!-- 0.0 -->
      <g transform="translate(29.257812 137.714749) scale(0.1 -0.1)">
       <use xlink:href="#DejaVuSans-30"/>
       <use xlink:href="#DejaVuSans-2e" transform="translate(63.623047 0)"/>
       <use xlink:href="#DejaVuSans-30" transform="translate(95.410156 0)"/>
      </g>
     </g>
    </g>
    <g id="ytick_4">
     <g id="line2d_25">
      <path d="M 52.160938 88.858729 
L 568.8 88.858729 
" clip-path="url(#p2aec6459e4)" style="fill: none; stroke-dasharray: 2.96,1.28; stroke-dashoffset: 0; stroke: #b0b0b0; stroke-opacity: 0.8; stroke-width: 0.8"/>
     </g>
     <g id="line2d_26">
      <g>
       <use xlink:href="#m842822c87f" x="52.160938" y="88.858729" style="stroke: #000000; stroke-width: 0.8"/>
      </g>
     </g>
     <g id="text_14">
      <!-- 0.2 -->
      <g transform="translate(29.257812 92.657948) scale(0.1 -0.1)">
       <use xlink:href="#DejaVuSans-30"/>
       <use xlink:href="#DejaVuSans-2e" transform="translate(63.623047 0)"/>
       <use xlink:href="#DejaVuSans-32" transform="translate(95.410156 0)"/>
      </g>
     </g>
    </g>
    <g id="ytick_5">
     <g id="line2d_27">
      <path d="M 52.160938 43.801928 
L 568.8 43.801928 
" clip-path="url(#p2aec6459e4)" style="fill: none; stroke-dasharray: 2.96,1.28; stroke-dashoffset: 0; stroke: #b0b0b0; stroke-opacity: 0.8; stroke-width: 0.8"/>
     </g>
     <g id="line2d_28">
      <g>
       <use xlink:href="#m842822c87f" x="52.160938" y="43.801928" style="stroke: #000000; stroke-width: 0.8"/>
      </g>
     </g>
     <g id="text_15">
      <!-- 0.4 -->
      <g transform="translate(29.257812 47.601147) scale(0.1 -0.1)">
       <use xlink:href="#DejaVuSans-30"/>
       <use xlink:href="#DejaVuSans-2e" transform="translate(63.623047 0)"/>
       <use xlink:href="#DejaVuSans-34" transform="translate(95.410156 0)"/>
      </g>
     </g>
    </g>
    <g id="text_16">
     <!-- Amplitude -->
     <g transform="translate(14.798437 154.433594) rotate(-90) scale(0.1 -0.1)">
      <defs>
       <path id="DejaVuSans-41" d="M 2188 4044 
L 1331 1722 
L 3047 1722 
L 2188 4044 
z
M 1831 4666 
L 2547 4666 
L 4325 0 
L 3669 0 
L 3244 1197 
L 1141 1197 
L 716 0 
L 50 0 
L 1831 4666 
z
" transform="scale(0.015625)"/>
       <path id="DejaVuSans-69" d="M 603 3500 
L 1178 3500 
L 1178 0 
L 603 0 
L 603 3500 
z
M 603 4863 
L 1178 4863 
L 1178 4134 
L 603 4134 
L 603 4863 
z
" transform="scale(0.015625)"/>
       <path id="DejaVuSans-74" d="M 1172 4494 
L 1172 3500 
L 2356 3500 
L 2356 3053 
L 1172 3053 
L 1172 1153 
Q 1172 725 1289 603 
Q 1406 481 1766 481 
L 2356 481 
L 2356 0 
L 1766 0 
Q 1100 0 847 248 
Q 594 497 594 1153 
L 594 3053 
L 172 3053 
L 172 3500 
L 594 3500 
L 594 4494 
L 1172 4494 
z
" transform="scale(0.015625)"/>
       <path id="DejaVuSans-75" d="M 544 1381 
L 544 3500 
L 1119 3500 
L 1119 1403 
Q 1119 906 1312 657 
Q 1506 409 1894 409 
Q 2359 409 2629 706 
Q 2900 1003 2900 1516 
L 2900 3500 
L 3475 3500 
L 3475 0 
L 2900 0 
L 2900 538 
Q 2691 219 2414 64 
Q 2138 -91 1772 -91 
Q 1169 -91 856 284 
Q 544 659 544 1381 
z
M 1991 3584 
L 1991 3584 
z
" transform="scale(0.015625)"/>
       <path id="DejaVuSans-64" d="M 2906 2969 
L 2906 4863 
L 3481 4863 
L 3481 0 
L 2906 0 
L 2906 525 
Q 2725 213 2448 61 
Q 2172 -91 1784 -91 
Q 1150 -91 751 415 
Q 353 922 353 1747 
Q 353 2572 751 3078 
Q 1150 3584 1784 3584 
Q 2172 3584 2448 3432 
Q 2725 3281 2906 2969 
z
M 947 1747 
Q 947 1113 1208 752 
Q 1469 391 1925 391 
Q 2381 391 2643 752 
Q 2906 1113 2906 1747 
Q 2906 2381 2643 2742 
Q 2381 3103 1925 3103 
Q 1469 3103 1208 2742 
Q 947 2381 947 1747 
z
" transform="scale(0.015625)"/>
      </defs>
      <use xlink:href="#DejaVuSans-41"/>
      <use xlink:href="#DejaVuSans-6d" transform="translate(68.408203 0)"/>
      <use xlink:href="#DejaVuSans-70" transform="translate(165.820312 0)"/>
      <use xlink:href="#DejaVuSans-6c" transform="translate(229.296875 0)"/>
      <use xlink:href="#DejaVuSans-69" transform="translate(257.080078 0)"/>
      <use xlink:href="#DejaVuSans-74" transform="translate(284.863281 0)"/>
      <use xlink:href="#DejaVuSans-75" transform="translate(324.072266 0)"/>
      <use xlink:href="#DejaVuSans-64" transform="translate(387.451172 0)"/>
      <use xlink:href="#DejaVuSans-65" transform="translate(450.927734 0)"/>
     </g>
    </g>
   </g>
   <g id="line2d_29">
    <path d="M 75.644531 132.53087 
L 76.821654 129.348345 
L 77.998776 136.847386 
L 79.175899 137.920658 
L 80.353021 132.5265 
L 81.530144 132.705737 
L 82.707266 136.21578 
L 83.884389 132.935818 
L 85.061511 133.474916 
L 86.238634 138.661618 
L 87.415756 131.253158 
L 88.592879 132.199625 
L 89.770001 135.041518 
L 90.947124 135.806878 
L 92.124246 130.318152 
L 93.301369 128.018181 
L 94.478491 130.300073 
L 95.655614 135.297587 
L 96.832736 130.401006 
L 98.009859 132.890877 
L 99.186981 136.313986 
L 100.364104 135.611683 
L 101.541226 142.677643 
L 102.718349 134.965274 
L 103.895471 141.849917 
L 105.072594 141.177058 
L 107.426839 122.967219 
L 108.603961 124.496052 
L 109.781084 126.885734 
L 110.958206 128.204903 
L 112.135329 125.98439 
L 113.312451 130.407464 
L 114.489574 131.919645 
L 115.666696 137.345038 
L 116.843819 144.801487 
L 118.020941 150.980637 
L 119.198064 152.74451 
L 120.375186 156.141711 
L 121.552309 153.169057 
L 122.729431 143.293428 
L 123.906553 128.182501 
L 125.083676 122.725326 
L 126.260798 99.930873 
L 127.437921 83.764293 
L 128.615043 71.610918 
L 129.792166 63.297223 
L 130.969288 62.861075 
L 132.146411 64.311371 
L 133.323533 85.831796 
L 134.500656 104.105053 
L 135.677778 120.515533 
L 138.032023 175.293134 
L 139.209146 201.089038 
L 140.386268 217.499686 
L 141.563391 224.184357 
L 142.740513 226.233785 
L 143.917636 233.848121 
L 145.094758 224.42411 
L 146.271881 212.135168 
L 147.449003 195.627623 
L 148.626126 189.460733 
L 149.803248 175.698071 
L 150.980371 181.466226 
L 152.157493 182.886089 
L 153.334616 187.901756 
L 155.688861 212.202826 
L 156.865983 225.555377 
L 158.043106 229.967514 
L 159.220228 226.282775 
L 160.397351 224.756679 
L 161.574473 213.23354 
L 162.751596 189.282593 
L 163.928718 173.513226 
L 166.282963 116.448252 
L 169.814331 69.298375 
L 172.168576 63.845783 
L 173.345698 71.504397 
L 175.699943 102.181185 
L 176.877066 114.585564 
L 178.054188 130.278229 
L 179.231311 139.459367 
L 180.408433 145.900778 
L 181.585556 144.671936 
L 182.762678 133.403719 
L 183.939801 133.86552 
L 185.116923 128.315062 
L 186.294046 101.582781 
L 187.471168 85.680549 
L 188.648291 78.415377 
L 189.825413 63.943199 
L 191.002536 44.164035 
L 192.179658 36.99162 
L 193.356781 36.355805 
L 194.533903 27.911142 
L 195.711026 25.848782 
L 196.888148 45.599441 
L 198.065271 53.507284 
L 200.419516 93.575132 
L 201.596638 109.413264 
L 202.773761 127.955272 
L 203.950883 152.120089 
L 205.128006 162.422117 
L 206.305128 185.358743 
L 207.482251 192.601596 
L 208.659373 193.917707 
L 209.836496 201.094468 
L 211.013618 191.469309 
L 212.190741 189.344178 
L 213.367863 180.980677 
L 214.544986 161.147643 
L 215.722108 145.709458 
L 216.89923 135.114014 
L 219.253475 106.301113 
L 221.60772 83.737045 
L 222.784843 82.846584 
L 223.961965 80.894832 
L 225.139088 79.179233 
L 226.31621 79.957149 
L 227.493333 86.463276 
L 228.670455 87.878065 
L 229.847578 90.569534 
L 231.0247 95.747509 
L 232.201823 101.715297 
L 234.556068 122.789177 
L 235.73319 127.107082 
L 236.910313 140.86021 
L 238.087435 151.996097 
L 239.264558 159.512884 
L 240.44168 172.242063 
L 241.618803 176.152221 
L 242.795925 182.596236 
L 243.973048 194.46874 
L 245.15017 190.353224 
L 246.327293 190.794641 
L 247.504415 188.754957 
L 248.681538 184.463898 
L 249.85866 168.478024 
L 251.035783 159.519561 
L 252.212905 157.48802 
L 253.390028 143.304956 
L 254.56715 132.281971 
L 256.921395 112.446208 
L 258.098518 97.584611 
L 259.27564 94.666708 
L 260.452763 87.921359 
L 261.629885 79.304352 
L 262.807008 82.063242 
L 263.98413 75.681735 
L 265.161253 85.70685 
L 266.338375 81.942303 
L 267.515498 87.311872 
L 268.69262 94.7763 
L 269.869743 104.287504 
L 271.046865 116.426781 
L 274.578233 145.638653 
L 275.755355 158.460729 
L 276.932478 166.051283 
L 278.1096 175.912964 
L 279.286723 174.940331 
L 280.463845 186.612822 
L 281.640968 187.293671 
L 282.81809 189.523725 
L 283.995213 184.864583 
L 285.172335 181.349764 
L 286.349458 176.494253 
L 287.52658 179.195597 
L 288.703703 166.761706 
L 289.880825 156.420217 
L 291.057948 152.673384 
L 292.23507 130.279551 
L 293.412193 124.855097 
L 294.589315 105.246158 
L 295.766438 102.2493 
L 298.120683 86.096193 
L 299.297805 76.445731 
L 300.474928 77.671707 
L 301.65205 74.629264 
L 302.829173 79.292591 
L 304.006295 82.915547 
L 305.183418 92.436141 
L 306.36054 96.522784 
L 307.537663 102.67509 
L 308.714785 118.460986 
L 309.891908 123.391081 
L 311.06903 133.871081 
L 312.246152 138.857329 
L 313.423275 152.28405 
L 314.600397 163.201076 
L 315.77752 166.797037 
L 316.954642 175.320427 
L 318.131765 187.286084 
L 319.308887 184.003096 
L 320.48601 196.568026 
L 321.663132 196.318263 
L 322.840255 201.076522 
L 324.017377 198.159805 
L 325.1945 205.621991 
L 326.371622 201.528888 
L 327.548745 209.415891 
L 328.725867 211.917966 
L 329.90299 212.540981 
L 331.080112 218.290017 
L 332.257235 215.422002 
L 333.434357 216.812128 
L 334.61148 214.044877 
L 335.788602 206.984455 
L 336.965725 200.920899 
L 338.142847 196.403017 
L 340.497092 176.074328 
L 341.674215 172.453069 
L 342.851337 163.865529 
L 344.02846 149.349021 
L 345.205582 145.429808 
L 346.382705 142.051693 
L 347.559827 141.604287 
L 348.73695 140.267295 
L 349.914072 134.883924 
L 351.091195 131.959803 
L 352.268317 137.051531 
L 353.44544 144.555092 
L 354.622562 155.953966 
L 355.799685 168.860341 
L 356.976807 179.40652 
L 358.15393 194.178133 
L 359.331052 197.632551 
L 360.508175 208.072409 
L 361.685297 226.489537 
L 362.86242 226.669916 
L 364.039542 235.696217 
L 365.216665 229.292418 
L 366.393787 221.921454 
L 367.57091 220.751468 
L 369.925155 181.357508 
L 371.102277 164.043431 
L 372.2794 138.852587 
L 373.456522 119.19926 
L 375.810767 83.206215 
L 376.98789 75.158624 
L 378.165012 71.473833 
L 379.342135 66.562917 
L 380.519257 71.391534 
L 381.69638 73.962801 
L 382.873502 88.993615 
L 384.050625 111.385493 
L 386.40487 129.396248 
L 387.581992 153.220717 
L 388.759115 162.759535 
L 389.936237 167.607661 
L 391.11336 183.437154 
L 392.290482 177.572977 
L 393.467605 188.550395 
L 394.644727 186.792238 
L 395.82185 182.928511 
L 396.998972 186.61901 
L 398.176095 181.995975 
L 399.353217 179.438632 
L 400.53034 170.358093 
L 401.707462 171.138036 
L 405.238829 138.421676 
L 406.415952 122.156434 
L 407.593074 117.579498 
L 408.770197 98.329988 
L 409.947319 89.184292 
L 411.124442 82.852529 
L 412.301564 77.223432 
L 413.478687 79.488871 
L 414.655809 80.938655 
L 415.832932 85.306298 
L 417.010054 86.444903 
L 418.187177 96.399687 
L 419.364299 103.162124 
L 420.541422 108.564927 
L 421.718544 115.240928 
L 422.895667 124.62949 
L 424.072789 128.993567 
L 425.249912 130.99791 
L 426.427034 131.898193 
L 427.604157 131.972836 
L 428.781279 129.170032 
L 429.958402 121.56323 
L 431.135524 115.530487 
L 432.312647 100.301121 
L 433.489769 86.629867 
L 434.666892 58.772699 
L 435.844014 54.482825 
L 437.021137 36.402384 
L 438.198259 24.043363 
L 439.375382 18.436889 
L 440.552504 18.25554 
L 442.906749 41.838814 
L 444.083872 67.985832 
L 446.438117 126.554179 
L 447.615239 151.478492 
L 448.792362 168.333299 
L 449.969484 193.994456 
L 451.146607 192.377035 
L 452.323729 199.940798 
L 453.500852 186.573851 
L 455.855097 147.624788 
L 457.032219 120.002397 
L 458.209342 88.988033 
L 459.386464 74.047761 
L 460.563587 53.691244 
L 461.740709 41.848942 
L 462.917832 41.198509 
L 465.272077 71.490317 
L 466.449199 102.372026 
L 468.803444 158.052058 
L 469.980567 181.338998 
L 471.157689 201.279863 
L 472.334812 212.868951 
L 473.511934 217.079017 
L 474.689057 209.728396 
L 477.043302 184.663968 
L 478.220424 167.979384 
L 479.397547 143.102106 
L 480.574669 128.361024 
L 481.751792 107.295152 
L 482.928914 92.190187 
L 484.106037 85.269815 
L 485.283159 83.1429 
L 486.460282 79.307196 
L 487.637404 82.431203 
L 488.814527 78.948586 
L 489.991649 79.876994 
L 491.168772 85.573838 
L 492.345894 90.662505 
L 493.523017 99.532383 
L 494.700139 104.836592 
L 495.877262 107.11745 
L 499.408629 127.747796 
L 500.585751 139.740905 
L 501.762874 149.1467 
L 502.939996 160.03138 
L 505.294241 178.052627 
L 507.648486 190.750488 
L 508.825609 193.215456 
L 510.002731 198.075413 
L 511.179854 199.44025 
L 512.356976 204.033108 
L 513.534099 202.773071 
L 514.711221 205.702077 
L 515.888344 210.74963 
L 517.065466 204.171893 
L 518.242589 208.053767 
L 519.419711 210.605066 
L 520.596834 220.382825 
L 521.773956 211.741259 
L 522.951079 215.503202 
L 524.128201 214.406833 
L 525.305324 212.412347 
L 526.482446 202.237981 
L 527.659569 198.668675 
L 528.836691 182.636813 
L 530.013814 171.970806 
L 531.190936 155.776955 
L 533.545181 130.461055 
L 534.722304 127.142049 
L 535.899426 128.150182 
L 537.076549 124.516556 
L 538.253671 141.60856 
L 539.430794 149.304277 
L 540.607916 165.735745 
L 541.785039 171.306426 
L 542.962161 194.403026 
L 544.139284 190.72547 
L 545.316406 199.187579 
L 545.316406 199.187579 
" clip-path="url(#p2aec6459e4)" style="fill: none; stroke: #1f77b4; stroke-linecap: square"/>
   </g>
   <g id="line2d_30">
    <path d="M 75.644531 129.58024 
L 76.821654 137.561717 
L 77.998776 133.313791 
L 79.175899 136.23004 
L 80.353021 134.531797 
L 81.530144 129.395335 
L 82.707266 132.019072 
L 83.884389 128.044232 
L 85.061511 129.302185 
L 86.238634 126.369745 
L 87.415756 128.911057 
L 88.592879 137.857099 
L 89.770001 135.907313 
L 90.947124 139.896264 
L 92.124246 139.614147 
L 93.301369 135.258604 
L 94.478491 132.687647 
L 95.655614 131.888341 
L 96.832736 133.221376 
L 98.009859 131.258869 
L 99.186981 121.569253 
L 100.364104 121.32148 
L 101.541226 122.993753 
L 102.718349 121.649489 
L 103.895471 130.498118 
L 105.072594 137.131633 
L 106.249716 142.160753 
L 107.426839 149.748269 
L 108.603961 155.093471 
L 109.781084 159.727836 
L 110.958206 157.0857 
L 112.135329 147.063952 
L 113.312451 138.758493 
L 114.489574 126.089489 
L 116.843819 94.069108 
L 118.020941 72.718916 
L 119.198064 58.991751 
L 120.375186 42.732859 
L 121.552309 40.904919 
L 122.729431 37.73025 
L 126.260798 100.67877 
L 127.437921 129.927582 
L 129.792166 176.029353 
L 130.969288 196.623979 
L 132.146411 204.107435 
L 133.323533 204.614053 
L 135.677778 187.204504 
L 136.854901 171.841438 
L 138.032023 153.814439 
L 139.209146 139.448608 
L 140.386268 120.186682 
L 141.563391 119.535078 
L 142.740513 119.97686 
L 143.917636 124.523166 
L 145.094758 145.380769 
L 146.271881 154.716122 
L 147.449003 178.993837 
L 148.626126 189.159617 
L 149.803248 194.806596 
L 150.980371 205.104306 
L 152.157493 205.004041 
L 153.334616 186.689801 
L 154.511738 182.526662 
L 156.865983 145.450704 
L 158.043106 129.176608 
L 159.220228 128.689588 
L 160.397351 120.519461 
L 162.751596 131.372816 
L 163.928718 149.327441 
L 166.282963 180.947622 
L 167.460086 190.847007 
L 168.637208 198.989 
L 169.814331 198.457171 
L 170.991453 193.671305 
L 172.168576 178.915751 
L 173.345698 159.808611 
L 174.522821 134.402456 
L 175.699943 114.359445 
L 176.877066 85.995441 
L 179.231311 51.009274 
L 180.408433 30.897476 
L 181.585556 31.937725 
L 182.762678 27.694119 
L 183.939801 35.242593 
L 185.116923 40.165392 
L 186.294046 57.691183 
L 187.471168 65.4224 
L 189.825413 98.458827 
L 191.002536 111.899507 
L 192.179658 111.581048 
L 193.356781 117.805328 
L 194.533903 127.876894 
L 195.711026 126.140012 
L 196.888148 120.863157 
L 198.065271 121.398228 
L 199.242393 122.612635 
L 200.419516 128.784006 
L 201.596638 120.50663 
L 202.773761 125.50289 
L 203.950883 124.107426 
L 205.128006 110.012834 
L 206.305128 104.180651 
L 207.482251 81.773581 
L 208.659373 73.600288 
L 209.836496 52.255365 
L 211.013618 33.90439 
L 212.190741 28.140035 
L 213.367863 18.446648 
L 214.544986 32.161214 
L 215.722108 28.927926 
L 216.89923 45.910937 
L 218.076353 70.894215 
L 219.253475 92.541469 
L 220.430598 118.459116 
L 222.784843 173.10963 
L 223.961965 197.858608 
L 225.139088 206.187308 
L 226.31621 198.155196 
L 227.493333 194.92496 
L 229.847578 155.198995 
L 231.0247 124.906624 
L 232.201823 99.561265 
L 233.378945 68.498087 
L 234.556068 55.386418 
L 235.73319 46.860083 
L 236.910313 42.233704 
L 238.087435 58.394573 
L 240.44168 86.006632 
L 241.618803 124.057898 
L 242.795925 145.19268 
L 243.973048 177.20485 
L 245.15017 203.8724 
L 246.327293 215.963066 
L 247.504415 226.58193 
L 249.85866 237.213064 
L 251.035783 231.573597 
L 252.212905 222.505969 
L 253.390028 216.641152 
L 254.56715 202.220942 
L 256.921395 190.486403 
L 258.098518 189.383359 
L 259.27564 189.410007 
L 260.452763 196.897357 
L 261.629885 197.111574 
L 262.807008 201.183795 
L 263.98413 198.533625 
L 265.161253 201.409122 
L 266.338375 195.37917 
L 267.515498 193.958462 
L 268.69262 188.423491 
L 269.869743 188.01225 
L 271.046865 194.084223 
L 272.223988 195.78596 
L 273.40111 204.00796 
L 274.578233 210.45406 
L 275.755355 218.216069 
L 276.932478 227.446252 
L 278.1096 234.406852 
L 280.463845 229.105301 
L 281.640968 219.896388 
L 282.81809 203.960248 
L 283.995213 173.303014 
L 288.703703 67.17463 
L 289.880825 53.065907 
L 291.057948 40.765322 
L 292.23507 48.280759 
L 293.412193 54.789157 
L 294.589315 70.452513 
L 295.766438 98.035092 
L 296.94356 130.677706 
L 299.297805 171.975869 
L 300.474928 194.520152 
L 301.65205 205.66759 
L 302.829173 201.987634 
L 304.006295 188.911909 
L 305.183418 174.13308 
L 306.36054 135.341896 
L 307.537663 117.044861 
L 308.714785 84.098199 
L 311.06903 38.389334 
L 312.246152 28.790336 
L 313.423275 25.086017 
L 314.600397 28.864351 
L 315.77752 37.453878 
L 316.954642 48.020376 
L 318.131765 70.475084 
L 319.308887 80.492996 
L 320.48601 89.07878 
L 321.663132 102.782639 
L 322.840255 109.066381 
L 324.017377 106.812118 
L 325.1945 107.091164 
L 326.371622 109.096139 
L 327.548745 103.621609 
L 328.725867 113.910226 
L 329.90299 128.469717 
L 331.080112 137.754537 
L 332.257235 157.594185 
L 333.434357 164.56511 
L 334.61148 184.251323 
L 335.788602 192.715028 
L 336.965725 205.827609 
L 338.142847 208.749332 
L 339.31997 200.763729 
L 341.674215 169.443914 
L 342.851337 148.706683 
L 344.02846 138.151142 
L 345.205582 99.801524 
L 346.382705 77.547853 
L 347.559827 60.632905 
L 348.73695 53.255884 
L 349.914072 36.076162 
L 351.091195 32.396477 
L 352.268317 33.887463 
L 353.44544 45.293865 
L 354.622562 47.434488 
L 356.976807 67.354708 
L 358.15393 81.506825 
L 359.331052 82.896994 
L 360.508175 96.444409 
L 361.685297 104.846144 
L 362.86242 118.747432 
L 365.216665 127.694644 
L 366.393787 136.255919 
L 367.57091 132.425616 
L 368.748032 141.600492 
L 369.925155 144.868827 
L 371.102277 142.902816 
L 372.2794 151.524062 
L 373.456522 158.966739 
L 374.633645 162.346493 
L 375.810767 172.854694 
L 376.98789 186.191045 
L 378.165012 202.866569 
L 379.342135 213.219371 
L 380.519257 222.245002 
L 381.69638 235.122756 
L 382.873502 239.366335 
L 384.050625 238.102576 
L 385.227747 232.348785 
L 386.40487 217.030704 
L 387.581992 209.710464 
L 391.11336 127.679997 
L 392.290482 101.882434 
L 393.467605 81.877111 
L 394.644727 72.235442 
L 395.82185 66.705598 
L 396.998972 71.534089 
L 398.176095 86.748641 
L 399.353217 109.553786 
L 400.53034 141.69692 
L 401.707462 162.169391 
L 402.884585 188.67214 
L 404.061707 206.368913 
L 405.238829 229.745729 
L 406.415952 228.97767 
L 407.593074 230.347026 
L 409.947319 217.2823 
L 411.124442 205.444449 
L 412.301564 196.165822 
L 413.478687 189.052486 
L 414.655809 187.732225 
L 415.832932 180.273206 
L 417.010054 188.301401 
L 418.187177 201.886333 
L 419.364299 210.543487 
L 420.541422 216.800501 
L 421.718544 221.604321 
L 422.895667 225.779164 
L 424.072789 222.804419 
L 425.249912 211.67937 
L 426.427034 198.753516 
L 427.604157 174.043572 
L 428.781279 156.302593 
L 429.958402 124.911507 
L 431.135524 102.618803 
L 433.489769 64.76052 
L 434.666892 60.355379 
L 435.844014 57.834569 
L 437.021137 63.37801 
L 438.198259 77.867075 
L 440.552504 102.988181 
L 441.729627 125.335078 
L 442.906749 145.20302 
L 444.083872 153.100038 
L 445.260994 167.315824 
L 446.438117 174.129862 
L 447.615239 177.873444 
L 449.969484 182.450687 
L 451.146607 181.492352 
L 452.323729 182.025386 
L 453.500852 191.838256 
L 454.677974 189.726081 
L 455.855097 178.695335 
L 457.032219 176.337125 
L 458.209342 165.416942 
L 459.386464 158.564322 
L 460.563587 152.713156 
L 461.740709 133.197393 
L 462.917832 125.760765 
L 464.094954 98.721255 
L 465.272077 98.585519 
L 466.449199 83.590296 
L 468.803444 73.51056 
L 469.980567 66.420007 
L 471.157689 76.837814 
L 472.334812 90.079562 
L 473.511934 101.102072 
L 474.689057 121.023217 
L 475.866179 134.272059 
L 477.043302 153.776234 
L 478.220424 179.85798 
L 479.397547 201.64213 
L 480.574669 212.419212 
L 481.751792 224.982432 
L 482.928914 234.656313 
L 484.106037 235.658795 
L 485.283159 234.74284 
L 486.460282 233.675555 
L 487.637404 227.660252 
L 493.523017 128.195778 
L 495.877262 90.397064 
L 497.054384 81.02677 
L 499.408629 55.218979 
L 500.585751 46.924465 
L 501.762874 43.641635 
L 502.939996 47.017314 
L 504.117119 48.151556 
L 505.294241 54.311585 
L 506.471364 65.970948 
L 507.648486 68.164356 
L 508.825609 77.49456 
L 510.002731 91.090868 
L 511.179854 88.37673 
L 512.356976 107.575978 
L 513.534099 103.611111 
L 514.711221 116.865109 
L 515.888344 121.134016 
L 517.065466 121.973461 
L 518.242589 133.959487 
L 519.419711 141.092473 
L 520.596834 141.563069 
L 521.773956 153.34743 
L 522.951079 163.770569 
L 524.128201 170.086965 
L 525.305324 170.297831 
L 526.482446 193.173517 
L 527.659569 191.697376 
L 528.836691 201.096377 
L 530.013814 207.177926 
L 531.190936 205.558702 
L 532.368059 202.426211 
L 533.545181 206.071116 
L 534.722304 199.936703 
L 535.899426 200.200903 
L 537.076549 205.919435 
L 538.253671 205.313324 
L 539.430794 222.536647 
L 540.607916 217.085792 
L 541.785039 216.367686 
L 542.962161 226.323232 
L 544.139284 209.869902 
L 545.316406 210.873251 
L 545.316406 210.873251 
" clip-path="url(#p2aec6459e4)" style="fill: none; stroke: #ff7f0e; stroke-linecap: square"/>
   </g>
   <g id="patch_3">
    <path d="M 52.160938 250.421875 
L 52.160938 7.2 
" style="fill: none; stroke: #000000; stroke-width: 0.8; stroke-linejoin: miter; stroke-linecap: square"/>
   </g>
   <g id="patch_4">
    <path d="M 568.8 250.421875 
L 568.8 7.2 
" style="fill: none; stroke: #000000; stroke-width: 0.8; stroke-linejoin: miter; stroke-linecap: square"/>
   </g>
   <g id="patch_5">
    <path d="M 52.160937 250.421875 
L 568.8 250.421875 
" style="fill: none; stroke: #000000; stroke-width: 0.8; stroke-linejoin: miter; stroke-linecap: square"/>
   </g>
   <g id="patch_6">
    <path d="M 52.160937 7.2 
L 568.8 7.2 
" style="fill: none; stroke: #000000; stroke-width: 0.8; stroke-linejoin: miter; stroke-linecap: square"/>
   </g>
   <g id="legend_1">
    <g id="patch_7">
     <path d="M 504.804688 44.55625 
L 561.8 44.55625 
Q 563.8 44.55625 563.8 42.55625 
L 563.8 14.2 
Q 563.8 12.2 561.8 12.2 
L 504.804688 12.2 
Q 502.804688 12.2 502.804688 14.2 
L 502.804688 42.55625 
Q 502.804688 44.55625 504.804688 44.55625 
z
" style="fill: #ffffff; opacity: 0.8; stroke: #cccccc; stroke-linejoin: miter"/>
    </g>
    <g id="line2d_31">
     <path d="M 506.804688 20.298438 
L 516.804688 20.298438 
L 526.804688 20.298438 
" style="fill: none; stroke: #1f77b4; stroke-linecap: square"/>
    </g>
    <g id="text_17">
     <!-- real -->
     <g transform="translate(534.804688 23.798438) scale(0.1 -0.1)">
      <defs>
       <path id="DejaVuSans-72" d="M 2631 2963 
Q 2534 3019 2420 3045 
Q 2306 3072 2169 3072 
Q 1681 3072 1420 2755 
Q 1159 2438 1159 1844 
L 1159 0 
L 581 0 
L 581 3500 
L 1159 3500 
L 1159 2956 
Q 1341 3275 1631 3429 
Q 1922 3584 2338 3584 
Q 2397 3584 2469 3576 
Q 2541 3569 2628 3553 
L 2631 2963 
z
" transform="scale(0.015625)"/>
      </defs>
      <use xlink:href="#DejaVuSans-72"/>
      <use xlink:href="#DejaVuSans-65" transform="translate(38.863281 0)"/>
      <use xlink:href="#DejaVuSans-61" transform="translate(100.386719 0)"/>
      <use xlink:href="#DejaVuSans-6c" transform="translate(161.666016 0)"/>
     </g>
    </g>
    <g id="line2d_32">
     <path d="M 506.804688 34.976563 
L 516.804688 34.976563 
L 526.804688 34.976563 
" style="fill: none; stroke: #ff7f0e; stroke-linecap: square"/>
    </g>
    <g id="text_18">
     <!-- imag -->
     <g transform="translate(534.804688 38.476563) scale(0.1 -0.1)">
      <defs>
       <path id="DejaVuSans-67" d="M 2906 1791 
Q 2906 2416 2648 2759 
Q 2391 3103 1925 3103 
Q 1463 3103 1205 2759 
Q 947 2416 947 1791 
Q 947 1169 1205 825 
Q 1463 481 1925 481 
Q 2391 481 2648 825 
Q 2906 1169 2906 1791 
z
M 3481 434 
Q 3481 -459 3084 -895 
Q 2688 -1331 1869 -1331 
Q 1566 -1331 1297 -1286 
Q 1028 -1241 775 -1147 
L 775 -588 
Q 1028 -725 1275 -790 
Q 1522 -856 1778 -856 
Q 2344 -856 2625 -561 
Q 2906 -266 2906 331 
L 2906 616 
Q 2728 306 2450 153 
Q 2172 0 1784 0 
Q 1141 0 747 490 
Q 353 981 353 1791 
Q 353 2603 747 3093 
Q 1141 3584 1784 3584 
Q 2172 3584 2450 3431 
Q 2728 3278 2906 2969 
L 2906 3500 
L 3481 3500 
L 3481 434 
z
" transform="scale(0.015625)"/>
      </defs>
      <use xlink:href="#DejaVuSans-69"/>
      <use xlink:href="#DejaVuSans-6d" transform="translate(27.783203 0)"/>
      <use xlink:href="#DejaVuSans-61" transform="translate(125.195312 0)"/>
      <use xlink:href="#DejaVuSans-67" transform="translate(186.474609 0)"/>
     </g>
    </g>
   </g>
  </g>
 </g>
 <defs>
  <clipPath id="p2aec6459e4">
   <rect x="52.160938" y="7.2" width="516.639063" height="243.221875"/>
  </clipPath>
 </defs>
</svg>
