<?xml version="1.0" encoding="utf-8" standalone="no"?>
<!DOCTYPE svg PUBLIC "-//W3C//DTD SVG 1.1//EN"
  "http://www.w3.org/Graphics/SVG/1.1/DTD/svg11.dtd">
<svg xmlns:xlink="http://www.w3.org/1999/xlink" width="576pt" height="288pt" viewBox="0 0 576 288" xmlns="http://www.w3.org/2000/svg" version="1.1">
 <metadata>
  <rdf:RDF xmlns:dc="http://purl.org/dc/elements/1.1/" xmlns:cc="http://creativecommons.org/ns#" xmlns:rdf="http://www.w3.org/1999/02/22-rdf-syntax-ns#">
   <cc:Work>
    <dc:type rdf:resource="http://purl.org/dc/dcmitype/StillImage"/>
    <dc:date>2026-05-03T15:50:56.171222</dc:date>
    <dc:format>image/svg+xml</dc:format>
    <dc:creator>
     <cc:Agent>
      <dc:title>Matplotlib v3.10.9, https://matplotlib.org/</dc:title>
     </cc:Agent>
    </dc:creator>
   </cc:Work>
  </rdf:RDF>
 </metadata>
 <defs>
  <style type="text/css">*{stroke-linejoin: round; stroke-linecap: butt}</style>
 </defs>
 <g id="figure_1">
  <g id="patch_1">
   <path d="M 0 288 
L 576 288 
L 576 0 
L 0 0 
z
" style="fill: #ffffff"/>
  </g>
  <g id="axes_1">
   <g id="patch_2">
    <path d="M 52.160938 250.421875 
L 568.8 250.421875 
L 568.8 7.2 
L 52.160938 7.2 
z
" style="fill: #ffffff"/>
   </g>
   <g id="matplotlib.axis_1">
    <g id="xtick_1">
     <g id="line2d_1">
      <path d="M 75.644531 250.421875 
L 75.644531 7.2 
" clip-path="url(#p8fe44a7b60)" style="fill: none; stroke-dasharray: 2.96,1.28; stroke-dashoffset: 0; stroke: #b0b0b0; stroke-opacity: 0.8; stroke-width: 0.8"/>
     </g>
     <g id="line2d_2">
      <defs>
       <path id="m2d9e72dfbd" d="M 0 0 
L 0 3.5 
" style="stroke: #000000; stroke-width: 0.8"/>
      </defs>
      <g>
       <use xlink:href="#m2d9e72dfbd" x="75.644531" y="250.421875" style="stroke: #000000; stroke-width: 0.8"/>
      </g>
     </g>
     <g id="text_1">
      <!-- 0 -->
      <g transform="translate(72.463281 265.020312) scale(0.1 -0.1)">
       <defs>
        <path id="DejaVuSans-30" d="M 2034 4250 
Q 1547 4250 1301 3770 
Q 1056 3291 1056 2328 
Q 1056 1369 1301 889 
Q 1547 409 2034 409 
Q 2525 409 2770 889 
Q 3016 1369 3016 2328 
Q 3016 3291 2770 3770 
Q 2525 4250 2034 4250 
z
M 2034 4750 
Q 2819 4750 3233 4129 
Q 3647 3509 3647 2328 
Q 3647 1150 3233 529 
Q 2819 -91 2034 -91 
Q 1250 -91 836 529 
Q 422 1150 422 2328 
Q 422 3509 836 4129 
Q 1250 4750 2034 4750 
z
" transform="scale(0.015625)"/>
       </defs>
       <use xlink:href="#DejaVuSans-30"/>
      </g>
     </g>
    </g>
    <g id="xtick_2">
     <g id="line2d_3">
      <path d="M 134.500656 250.421875 
L 134.500656 7.2 
" clip-path="url(#p8fe44a7b60)" style="fill: none; stroke-dasharray: 2.96,1.28; stroke-dashoffset: 0; stroke: #b0b0b0; stroke-opacity: 0.8; stroke-width: 0.8"/>
     </g>
     <g id="line2d_4">
      <g>
       <use xlink:href="#m2d9e72dfbd" x="134.500656" y="250.421875" style="stroke: #000000; stroke-width: 0.8"/>
      </g>
     </g>
     <g id="text_2">
      <!-- 50 -->
      <g transform="translate(128.138156 265.020312) scale(0.1 -0.1)">
       <defs>
        <path id="DejaVuSans-35" d="M 691 4666 
L 3169 4666 
L 3169 4134 
L 1269 4134 
L 1269 2991 
Q 1406 3038 1543 3061 
Q 1681 3084 1819 3084 
Q 2600 3084 3056 2656 
Q 3513 2228 3513 1497 
Q 3513 744 3044 326 
Q 2575 -91 1722 -91 
Q 1428 -91 1123 -41 
Q 819 9 494 109 
L 494 744 
Q 775 591 1075 516 
Q 1375 441 1709 441 
Q 2250 441 2565 725 
Q 2881 1009 2881 1497 
Q 2881 1984 2565 2268 
Q 2250 2553 1709 2553 
Q 1456 2553 1204 2497 
Q 953 2441 691 2322 
L 691 4666 
z
" transform="scale(0.015625)"/>
       </defs>
       <use xlink:href="#DejaVuSans-35"/>
       <use xlink:href="#DejaVuSans-30" transform="translate(63.623047 0)"/>
      </g>
     </g>
    </g>
    <g id="xtick_3">
     <g id="line2d_5">
      <path d="M 193.356781 250.421875 
L 193.356781 7.2 
" clip-path="url(#p8fe44a7b60)" style="fill: none; stroke-dasharray: 2.96,1.28; stroke-dashoffset: 0; stroke: #b0b0b0; stroke-opacity: 0.8; stroke-width: 0.8"/>
     </g>
     <g id="line2d_6">
      <g>
       <use xlink:href="#m2d9e72dfbd" x="193.356781" y="250.421875" style="stroke: #000000; stroke-width: 0.8"/>
      </g>
     </g>
     <g id="text_3">
      <!-- 100 -->
      <g transform="translate(183.813031 265.020312) scale(0.1 -0.1)">
       <defs>
        <path id="DejaVuSans-31" d="M 794 531 
L 1825 531 
L 1825 4091 
L 703 3866 
L 703 4441 
L 1819 4666 
L 2450 4666 
L 2450 531 
L 3481 531 
L 3481 0 
L 794 0 
L 794 531 
z
" transform="scale(0.015625)"/>
       </defs>
       <use xlink:href="#DejaVuSans-31"/>
       <use xlink:href="#DejaVuSans-30" transform="translate(63.623047 0)"/>
       <use xlink:href="#DejaVuSans-30" transform="translate(127.246094 0)"/>
      </g>
     </g>
    </g>
    <g id="xtick_4">
     <g id="line2d_7">
      <path d="M 252.212905 250.421875 
L 252.212905 7.2 
" clip-path="url(#p8fe44a7b60)" style="fill: none; stroke-dasharray: 2.96,1.28; stroke-dashoffset: 0; stroke: #b0b0b0; stroke-opacity: 0.8; stroke-width: 0.8"/>
     </g>
     <g id="line2d_8">
      <g>
       <use xlink:href="#m2d9e72dfbd" x="252.212905" y="250.421875" style="stroke: #000000; stroke-width: 0.8"/>
      </g>
     </g>
     <g id="text_4">
      <!-- 150 -->
      <g transform="translate(242.669155 265.020312) scale(0.1 -0.1)">
       <use xlink:href="#DejaVuSans-31"/>
       <use xlink:href="#DejaVuSans-35" transform="translate(63.623047 0)"/>
       <use xlink:href="#DejaVuSans-30" transform="translate(127.246094 0)"/>
      </g>
     </g>
    </g>
    <g id="xtick_5">
     <g id="line2d_9">
      <path d="M 311.06903 250.421875 
L 311.06903 7.2 
" clip-path="url(#p8fe44a7b60)" style="fill: none; stroke-dasharray: 2.96,1.28; stroke-dashoffset: 0; stroke: #b0b0b0; stroke-opacity: 0.8; stroke-width: 0.8"/>
     </g>
     <g id="line2d_10">
      <g>
       <use xlink:href="#m2d9e72dfbd" x="311.06903" y="250.421875" style="stroke: #000000; stroke-width: 0.8"/>
      </g>
     </g>
     <g id="text_5">
      <!-- 200 -->
      <g transform="translate(301.52528 265.020312) scale(0.1 -0.1)">
       <defs>
        <path id="DejaVuSans-32" d="M 1228 531 
L 3431 531 
L 3431 0 
L 469 0 
L 469 531 
Q 828 903 1448 1529 
Q 2069 2156 2228 2338 
Q 2531 2678 2651 2914 
Q 2772 3150 2772 3378 
Q 2772 3750 2511 3984 
Q 2250 4219 1831 4219 
Q 1534 4219 1204 4116 
Q 875 4013 500 3803 
L 500 4441 
Q 881 4594 1212 4672 
Q 1544 4750 1819 4750 
Q 2544 4750 2975 4387 
Q 3406 4025 3406 3419 
Q 3406 3131 3298 2873 
Q 3191 2616 2906 2266 
Q 2828 2175 2409 1742 
Q 1991 1309 1228 531 
z
" transform="scale(0.015625)"/>
       </defs>
       <use xlink:href="#DejaVuSans-32"/>
       <use xlink:href="#DejaVuSans-30" transform="translate(63.623047 0)"/>
       <use xlink:href="#DejaVuSans-30" transform="translate(127.246094 0)"/>
      </g>
     </g>
    </g>
    <g id="xtick_6">
     <g id="line2d_11">
      <path d="M 369.925155 250.421875 
L 369.925155 7.2 
" clip-path="url(#p8fe44a7b60)" style="fill: none; stroke-dasharray: 2.96,1.28; stroke-dashoffset: 0; stroke: #b0b0b0; stroke-opacity: 0.8; stroke-width: 0.8"/>
     </g>
     <g id="line2d_12">
      <g>
       <use xlink:href="#m2d9e72dfbd" x="369.925155" y="250.421875" style="stroke: #000000; stroke-width: 0.8"/>
      </g>
     </g>
     <g id="text_6">
      <!-- 250 -->
      <g transform="translate(360.381405 265.020312) scale(0.1 -0.1)">
       <use xlink:href="#DejaVuSans-32"/>
       <use xlink:href="#DejaVuSans-35" transform="translate(63.623047 0)"/>
       <use xlink:href="#DejaVuSans-30" transform="translate(127.246094 0)"/>
      </g>
     </g>
    </g>
    <g id="xtick_7">
     <g id="line2d_13">
      <path d="M 428.781279 250.421875 
L 428.781279 7.2 
" clip-path="url(#p8fe44a7b60)" style="fill: none; stroke-dasharray: 2.96,1.28; stroke-dashoffset: 0; stroke: #b0b0b0; stroke-opacity: 0.8; stroke-width: 0.8"/>
     </g>
     <g id="line2d_14">
      <g>
       <use xlink:href="#m2d9e72dfbd" x="428.781279" y="250.421875" style="stroke: #000000; stroke-width: 0.8"/>
      </g>
     </g>
     <g id="text_7">
      <!-- 300 -->
      <g transform="translate(419.237529 265.020312) scale(0.1 -0.1)">
       <defs>
        <path id="DejaVuSans-33" d="M 2597 2516 
Q 3050 2419 3304 2112 
Q 3559 1806 3559 1356 
Q 3559 666 3084 287 
Q 2609 -91 1734 -91 
Q 1441 -91 1130 -33 
Q 819 25 488 141 
L 488 750 
Q 750 597 1062 519 
Q 1375 441 1716 441 
Q 2309 441 2620 675 
Q 2931 909 2931 1356 
Q 2931 1769 2642 2001 
Q 2353 2234 1838 2234 
L 1294 2234 
L 1294 2753 
L 1863 2753 
Q 2328 2753 2575 2939 
Q 2822 3125 2822 3475 
Q 2822 3834 2567 4026 
Q 2313 4219 1838 4219 
Q 1578 4219 1281 4162 
Q 984 4106 628 3988 
L 628 4550 
Q 988 4650 1302 4700 
Q 1616 4750 1894 4750 
Q 2613 4750 3031 4423 
Q 3450 4097 3450 3541 
Q 3450 3153 3228 2886 
Q 3006 2619 2597 2516 
z
" transform="scale(0.015625)"/>
       </defs>
       <use xlink:href="#DejaVuSans-33"/>
       <use xlink:href="#DejaVuSans-30" transform="translate(63.623047 0)"/>
       <use xlink:href="#DejaVuSans-30" transform="translate(127.246094 0)"/>
      </g>
     </g>
    </g>
    <g id="xtick_8">
     <g id="line2d_15">
      <path d="M 487.637404 250.421875 
L 487.637404 7.2 
" clip-path="url(#p8fe44a7b60)" style="fill: none; stroke-dasharray: 2.96,1.28; stroke-dashoffset: 0; stroke: #b0b0b0; stroke-opacity: 0.8; stroke-width: 0.8"/>
     </g>
     <g id="line2d_16">
      <g>
       <use xlink:href="#m2d9e72dfbd" x="487.637404" y="250.421875" style="stroke: #000000; stroke-width: 0.8"/>
      </g>
     </g>
     <g id="text_8">
      <!-- 350 -->
      <g transform="translate(478.093654 265.020312) scale(0.1 -0.1)">
       <use xlink:href="#DejaVuSans-33"/>
       <use xlink:href="#DejaVuSans-35" transform="translate(63.623047 0)"/>
       <use xlink:href="#DejaVuSans-30" transform="translate(127.246094 0)"/>
      </g>
     </g>
    </g>
    <g id="xtick_9">
     <g id="line2d_17">
      <path d="M 546.493529 250.421875 
L 546.493529 7.2 
" clip-path="url(#p8fe44a7b60)" style="fill: none; stroke-dasharray: 2.96,1.28; stroke-dashoffset: 0; stroke: #b0b0b0; stroke-opacity: 0.8; stroke-width: 0.8"/>
     </g>
     <g id="line2d_18">
      <g>
       <use xlink:href="#m2d9e72dfbd" x="546.493529" y="250.421875" style="stroke: #000000; stroke-width: 0.8"/>
      </g>
     </g>
     <g id="text_9">
      <!-- 400 -->
      <g transform="translate(536.949779 265.020312) scale(0.1 -0.1)">
       <defs>
        <path id="DejaVuSans-34" d="M 2419 4116 
L 825 1625 
L 2419 1625 
L 2419 4116 
z
M 2253 4666 
L 3047 4666 
L 3047 1625 
L 3713 1625 
L 3713 1100 
L 3047 1100 
L 3047 0 
L 2419 0 
L 2419 1100 
L 313 1100 
L 313 1709 
L 2253 4666 
z
" transform="scale(0.015625)"/>
       </defs>
       <use xlink:href="#DejaVuSans-34"/>
       <use xlink:href="#DejaVuSans-30" transform="translate(63.623047 0)"/>
       <use xlink:href="#DejaVuSans-30" transform="translate(127.246094 0)"/>
      </g>
     </g>
    </g>
    <g id="text_10">
     <!-- Sample, $n$ -->
     <g transform="translate(285.380469 278.7) scale(0.1 -0.1)">
      <defs>
       <path id="DejaVuSans-53" d="M 3425 4513 
L 3425 3897 
Q 3066 4069 2747 4153 
Q 2428 4238 2131 4238 
Q 1616 4238 1336 4038 
Q 1056 3838 1056 3469 
Q 1056 3159 1242 3001 
Q 1428 2844 1947 2747 
L 2328 2669 
Q 3034 2534 3370 2195 
Q 3706 1856 3706 1288 
Q 3706 609 3251 259 
Q 2797 -91 1919 -91 
Q 1588 -91 1214 -16 
Q 841 59 441 206 
L 441 856 
Q 825 641 1194 531 
Q 1563 422 1919 422 
Q 2459 422 2753 634 
Q 3047 847 3047 1241 
Q 3047 1584 2836 1778 
Q 2625 1972 2144 2069 
L 1759 2144 
Q 1053 2284 737 2584 
Q 422 2884 422 3419 
Q 422 4038 858 4394 
Q 1294 4750 2059 4750 
Q 2388 4750 2728 4690 
Q 3069 4631 3425 4513 
z
" transform="scale(0.015625)"/>
       <path id="DejaVuSans-61" d="M 2194 1759 
Q 1497 1759 1228 1600 
Q 959 1441 959 1056 
Q 959 750 1161 570 
Q 1363 391 1709 391 
Q 2188 391 2477 730 
Q 2766 1069 2766 1631 
L 2766 1759 
L 2194 1759 
z
M 3341 1997 
L 3341 0 
L 2766 0 
L 2766 531 
Q 2569 213 2275 61 
Q 1981 -91 1556 -91 
Q 1019 -91 701 211 
Q 384 513 384 1019 
Q 384 1609 779 1909 
Q 1175 2209 1959 2209 
L 2766 2209 
L 2766 2266 
Q 2766 2663 2505 2880 
Q 2244 3097 1772 3097 
Q 1472 3097 1187 3025 
Q 903 2953 641 2809 
L 641 3341 
Q 956 3463 1253 3523 
Q 1550 3584 1831 3584 
Q 2591 3584 2966 3190 
Q 3341 2797 3341 1997 
z
" transform="scale(0.015625)"/>
       <path id="DejaVuSans-6d" d="M 3328 2828 
Q 3544 3216 3844 3400 
Q 4144 3584 4550 3584 
Q 5097 3584 5394 3201 
Q 5691 2819 5691 2113 
L 5691 0 
L 5113 0 
L 5113 2094 
Q 5113 2597 4934 2840 
Q 4756 3084 4391 3084 
Q 3944 3084 3684 2787 
Q 3425 2491 3425 1978 
L 3425 0 
L 2847 0 
L 2847 2094 
Q 2847 2600 2669 2842 
Q 2491 3084 2119 3084 
Q 1678 3084 1418 2786 
Q 1159 2488 1159 1978 
L 1159 0 
L 581 0 
L 581 3500 
L 1159 3500 
L 1159 2956 
Q 1356 3278 1631 3431 
Q 1906 3584 2284 3584 
Q 2666 3584 2933 3390 
Q 3200 3197 3328 2828 
z
" transform="scale(0.015625)"/>
       <path id="DejaVuSans-70" d="M 1159 525 
L 1159 -1331 
L 581 -1331 
L 581 3500 
L 1159 3500 
L 1159 2969 
Q 1341 3281 1617 3432 
Q 1894 3584 2278 3584 
Q 2916 3584 3314 3078 
Q 3713 2572 3713 1747 
Q 3713 922 3314 415 
Q 2916 -91 2278 -91 
Q 1894 -91 1617 61 
Q 1341 213 1159 525 
z
M 3116 1747 
Q 3116 2381 2855 2742 
Q 2594 3103 2138 3103 
Q 1681 3103 1420 2742 
Q 1159 2381 1159 1747 
Q 1159 1113 1420 752 
Q 1681 391 2138 391 
Q 2594 391 2855 752 
Q 3116 1113 3116 1747 
z
" transform="scale(0.015625)"/>
       <path id="DejaVuSans-6c" d="M 603 4863 
L 1178 4863 
L 1178 0 
L 603 0 
L 603 4863 
z
" transform="scale(0.015625)"/>
       <path id="DejaVuSans-65" d="M 3597 1894 
L 3597 1613 
L 953 1613 
Q 991 1019 1311 708 
Q 1631 397 2203 397 
Q 2534 397 2845 478 
Q 3156 559 3463 722 
L 3463 178 
Q 3153 47 2828 -22 
Q 2503 -91 2169 -91 
Q 1331 -91 842 396 
Q 353 884 353 1716 
Q 353 2575 817 3079 
Q 1281 3584 2069 3584 
Q 2775 3584 3186 3129 
Q 3597 2675 3597 1894 
z
M 3022 2063 
Q 3016 2534 2758 2815 
Q 2500 3097 2075 3097 
Q 1594 3097 1305 2825 
Q 1016 2553 972 2059 
L 3022 2063 
z
" transform="scale(0.015625)"/>
       <path id="DejaVuSans-2c" d="M 750 794 
L 1409 794 
L 1409 256 
L 897 -744 
L 494 -744 
L 750 256 
L 750 794 
z
" transform="scale(0.015625)"/>
       <path id="DejaVuSans-20" transform="scale(0.015625)"/>
       <path id="DejaVuSans-Oblique-6e" d="M 3566 2113 
L 3156 0 
L 2578 0 
L 2988 2091 
Q 3016 2238 3031 2350 
Q 3047 2463 3047 2528 
Q 3047 2791 2881 2937 
Q 2716 3084 2419 3084 
Q 1956 3084 1622 2776 
Q 1288 2469 1184 1941 
L 800 0 
L 225 0 
L 903 3500 
L 1478 3500 
L 1363 2950 
Q 1603 3253 1940 3418 
Q 2278 3584 2650 3584 
Q 3113 3584 3367 3334 
Q 3622 3084 3622 2631 
Q 3622 2519 3608 2391 
Q 3594 2263 3566 2113 
z
" transform="scale(0.015625)"/>
      </defs>
      <use xlink:href="#DejaVuSans-53" transform="translate(0 0.015625)"/>
      <use xlink:href="#DejaVuSans-61" transform="translate(63.476562 0.015625)"/>
      <use xlink:href="#DejaVuSans-6d" transform="translate(124.755859 0.015625)"/>
      <use xlink:href="#DejaVuSans-70" transform="translate(222.167969 0.015625)"/>
      <use xlink:href="#DejaVuSans-6c" transform="translate(285.644531 0.015625)"/>
      <use xlink:href="#DejaVuSans-65" transform="translate(313.427734 0.015625)"/>
      <use xlink:href="#DejaVuSans-2c" transform="translate(374.951172 0.015625)"/>
      <use xlink:href="#DejaVuSans-20" transform="translate(406.738281 0.015625)"/>
      <use xlink:href="#DejaVuSans-Oblique-6e" transform="translate(438.525391 0.015625)"/>
     </g>
    </g>
   </g>
   <g id="matplotlib.axis_2">
    <g id="ytick_1">
     <g id="line2d_19">
      <path d="M 52.160938 235.177885 
L 568.8 235.177885 
" clip-path="url(#p8fe44a7b60)" style="fill: none; stroke-dasharray: 2.96,1.28; stroke-dashoffset: 0; stroke: #b0b0b0; stroke-opacity: 0.8; stroke-width: 0.8"/>
     </g>
     <g id="line2d_20">
      <defs>
       <path id="m9d04410474" d="M 0 0 
L -3.5 0 
" style="stroke: #000000; stroke-width: 0.8"/>
      </defs>
      <g>
       <use xlink:href="#m9d04410474" x="52.160938" y="235.177885" style="stroke: #000000; stroke-width: 0.8"/>
      </g>
     </g>
     <g id="text_11">
      <!-- −0.4 -->
      <g transform="translate(20.878125 238.977104) scale(0.1 -0.1)">
       <defs>
        <path id="DejaVuSans-2212" d="M 678 2272 
L 4684 2272 
L 4684 1741 
L 678 1741 
L 678 2272 
z
" transform="scale(0.015625)"/>
        <path id="DejaVuSans-2e" d="M 684 794 
L 1344 794 
L 1344 0 
L 684 0 
L 684 794 
z
" transform="scale(0.015625)"/>
       </defs>
       <use xlink:href="#DejaVuSans-2212"/>
       <use xlink:href="#DejaVuSans-30" transform="translate(83.789062 0)"/>
       <use xlink:href="#DejaVuSans-2e" transform="translate(147.412109 0)"/>
       <use xlink:href="#DejaVuSans-34" transform="translate(179.199219 0)"/>
      </g>
     </g>
    </g>
    <g id="ytick_2">
     <g id="line2d_21">
      <path d="M 52.160938 183.625647 
L 568.8 183.625647 
" clip-path="url(#p8fe44a7b60)" style="fill: none; stroke-dasharray: 2.96,1.28; stroke-dashoffset: 0; stroke: #b0b0b0; stroke-opacity: 0.8; stroke-width: 0.8"/>
     </g>
     <g id="line2d_22">
      <g>
       <use xlink:href="#m9d04410474" x="52.160938" y="183.625647" style="stroke: #000000; stroke-width: 0.8"/>
      </g>
     </g>
     <g id="text_12">
      <!-- −0.2 -->
      <g transform="translate(20.878125 187.424866) scale(0.1 -0.1)">
       <use xlink:href="#DejaVuSans-2212"/>
       <use xlink:href="#DejaVuSans-30" transform="translate(83.789062 0)"/>
       <use xlink:href="#DejaVuSans-2e" transform="translate(147.412109 0)"/>
       <use xlink:href="#DejaVuSans-32" transform="translate(179.199219 0)"/>
      </g>
     </g>
    </g>
    <g id="ytick_3">
     <g id="line2d_23">
      <path d="M 52.160938 132.073409 
L 568.8 132.073409 
" clip-path="url(#p8fe44a7b60)" style="fill: none; stroke-dasharray: 2.96,1.28; stroke-dashoffset: 0; stroke: #b0b0b0; stroke-opacity: 0.8; stroke-width: 0.8"/>
     </g>
     <g id="line2d_24">
      <g>
       <use xlink:href="#m9d04410474" x="52.160938" y="132.073409" style="stroke: #000000; stroke-width: 0.8"/>
      </g>
     </g>
     <g id="text_13">
      <!-- 0.0 -->
      <g transform="translate(29.257812 135.872628) scale(0.1 -0.1)">
       <use xlink:href="#DejaVuSans-30"/>
       <use xlink:href="#DejaVuSans-2e" transform="translate(63.623047 0)"/>
       <use xlink:href="#DejaVuSans-30" transform="translate(95.410156 0)"/>
      </g>
     </g>
    </g>
    <g id="ytick_4">
     <g id="line2d_25">
      <path d="M 52.160938 80.521171 
L 568.8 80.521171 
" clip-path="url(#p8fe44a7b60)" style="fill: none; stroke-dasharray: 2.96,1.28; stroke-dashoffset: 0; stroke: #b0b0b0; stroke-opacity: 0.8; stroke-width: 0.8"/>
     </g>
     <g id="line2d_26">
      <g>
       <use xlink:href="#m9d04410474" x="52.160938" y="80.521171" style="stroke: #000000; stroke-width: 0.8"/>
      </g>
     </g>
     <g id="text_14">
      <!-- 0.2 -->
      <g transform="translate(29.257812 84.32039) scale(0.1 -0.1)">
       <use xlink:href="#DejaVuSans-30"/>
       <use xlink:href="#DejaVuSans-2e" transform="translate(63.623047 0)"/>
       <use xlink:href="#DejaVuSans-32" transform="translate(95.410156 0)"/>
      </g>
     </g>
    </g>
    <g id="ytick_5">
     <g id="line2d_27">
      <path d="M 52.160938 28.968933 
L 568.8 28.968933 
" clip-path="url(#p8fe44a7b60)" style="fill: none; stroke-dasharray: 2.96,1.28; stroke-dashoffset: 0; stroke: #b0b0b0; stroke-opacity: 0.8; stroke-width: 0.8"/>
     </g>
     <g id="line2d_28">
      <g>
       <use xlink:href="#m9d04410474" x="52.160938" y="28.968933" style="stroke: #000000; stroke-width: 0.8"/>
      </g>
     </g>
     <g id="text_15">
      <!-- 0.4 -->
      <g transform="translate(29.257812 32.768151) scale(0.1 -0.1)">
       <use xlink:href="#DejaVuSans-30"/>
       <use xlink:href="#DejaVuSans-2e" transform="translate(63.623047 0)"/>
       <use xlink:href="#DejaVuSans-34" transform="translate(95.410156 0)"/>
      </g>
     </g>
    </g>
    <g id="text_16">
     <!-- Amplitude -->
     <g transform="translate(14.798437 154.433594) rotate(-90) scale(0.1 -0.1)">
      <defs>
       <path id="DejaVuSans-41" d="M 2188 4044 
L 1331 1722 
L 3047 1722 
L 2188 4044 
z
M 1831 4666 
L 2547 4666 
L 4325 0 
L 3669 0 
L 3244 1197 
L 1141 1197 
L 716 0 
L 50 0 
L 1831 4666 
z
" transform="scale(0.015625)"/>
       <path id="DejaVuSans-69" d="M 603 3500 
L 1178 3500 
L 1178 0 
L 603 0 
L 603 3500 
z
M 603 4863 
L 1178 4863 
L 1178 4134 
L 603 4134 
L 603 4863 
z
" transform="scale(0.015625)"/>
       <path id="DejaVuSans-74" d="M 1172 4494 
L 1172 3500 
L 2356 3500 
L 2356 3053 
L 1172 3053 
L 1172 1153 
Q 1172 725 1289 603 
Q 1406 481 1766 481 
L 2356 481 
L 2356 0 
L 1766 0 
Q 1100 0 847 248 
Q 594 497 594 1153 
L 594 3053 
L 172 3053 
L 172 3500 
L 594 3500 
L 594 4494 
L 1172 4494 
z
" transform="scale(0.015625)"/>
       <path id="DejaVuSans-75" d="M 544 1381 
L 544 3500 
L 1119 3500 
L 1119 1403 
Q 1119 906 1312 657 
Q 1506 409 1894 409 
Q 2359 409 2629 706 
Q 2900 1003 2900 1516 
L 2900 3500 
L 3475 3500 
L 3475 0 
L 2900 0 
L 2900 538 
Q 2691 219 2414 64 
Q 2138 -91 1772 -91 
Q 1169 -91 856 284 
Q 544 659 544 1381 
z
M 1991 3584 
L 1991 3584 
z
" transform="scale(0.015625)"/>
       <path id="DejaVuSans-64" d="M 2906 2969 
L 2906 4863 
L 3481 4863 
L 3481 0 
L 2906 0 
L 2906 525 
Q 2725 213 2448 61 
Q 2172 -91 1784 -91 
Q 1150 -91 751 415 
Q 353 922 353 1747 
Q 353 2572 751 3078 
Q 1150 3584 1784 3584 
Q 2172 3584 2448 3432 
Q 2725 3281 2906 2969 
z
M 947 1747 
Q 947 1113 1208 752 
Q 1469 391 1925 391 
Q 2381 391 2643 752 
Q 2906 1113 2906 1747 
Q 2906 2381 2643 2742 
Q 2381 3103 1925 3103 
Q 1469 3103 1208 2742 
Q 947 2381 947 1747 
z
" transform="scale(0.015625)"/>
      </defs>
      <use xlink:href="#DejaVuSans-41"/>
      <use xlink:href="#DejaVuSans-6d" transform="translate(68.408203 0)"/>
      <use xlink:href="#DejaVuSans-70" transform="translate(165.820312 0)"/>
      <use xlink:href="#DejaVuSans-6c" transform="translate(229.296875 0)"/>
      <use xlink:href="#DejaVuSans-69" transform="translate(257.080078 0)"/>
      <use xlink:href="#DejaVuSans-74" transform="translate(284.863281 0)"/>
      <use xlink:href="#DejaVuSans-75" transform="translate(324.072266 0)"/>
      <use xlink:href="#DejaVuSans-64" transform="translate(387.451172 0)"/>
      <use xlink:href="#DejaVuSans-65" transform="translate(450.927734 0)"/>
     </g>
    </g>
   </g>
   <g id="line2d_29">
    <path d="M 75.644531 133.48604 
L 76.821654 132.636413 
L 77.998776 128.097952 
L 79.175899 128.226619 
L 80.353021 124.053754 
L 81.530144 138.562164 
L 82.707266 138.237858 
L 83.884389 134.823926 
L 85.061511 132.732345 
L 86.238634 136.707878 
L 87.415756 129.651856 
L 88.592879 129.347741 
L 89.770001 129.882324 
L 90.947124 126.342739 
L 92.124246 128.940209 
L 93.301369 132.044244 
L 94.478491 128.230682 
L 95.655614 134.019124 
L 96.832736 135.436865 
L 98.009859 133.175178 
L 99.186981 133.470307 
L 100.364104 147.827573 
L 101.541226 146.581805 
L 102.718349 144.016653 
L 103.895471 138.502814 
L 105.072594 127.243698 
L 106.249716 126.112841 
L 107.426839 117.842201 
L 108.603961 112.86957 
L 109.781084 108.540914 
L 110.958206 109.478243 
L 112.135329 126.216048 
L 113.312451 118.472709 
L 114.489574 136.616379 
L 115.666696 150.290905 
L 116.843819 172.559205 
L 118.020941 191.866018 
L 119.198064 197.377135 
L 120.375186 214.10338 
L 121.552309 207.259439 
L 122.729431 209.314293 
L 123.906553 196.025844 
L 125.083676 165.486738 
L 126.260798 149.265875 
L 127.437921 119.907891 
L 128.615043 98.750012 
L 129.792166 72.693729 
L 130.969288 61.748578 
L 132.146411 56.467536 
L 133.323533 61.717392 
L 134.500656 64.038492 
L 135.677778 91.387425 
L 136.854901 114.842493 
L 138.032023 144.442954 
L 139.209146 165.240142 
L 140.386268 190.75829 
L 142.740513 225.178258 
L 143.917636 220.216693 
L 145.094758 220.80163 
L 146.271881 209.063236 
L 147.449003 200.974242 
L 149.803248 174.567985 
L 150.980371 185.485738 
L 152.157493 181.148697 
L 153.334616 190.499585 
L 154.511738 201.924933 
L 155.688861 208.594119 
L 156.865983 220.309065 
L 158.043106 219.194133 
L 159.220228 220.018987 
L 160.397351 210.960493 
L 161.574473 193.655895 
L 162.751596 164.219131 
L 165.105841 116.473982 
L 166.282963 95.754698 
L 168.637208 60.96736 
L 169.814331 56.063224 
L 170.991453 56.769749 
L 172.168576 89.160894 
L 173.345698 99.528874 
L 174.522821 124.706261 
L 175.699943 158.797231 
L 178.054188 196.777383 
L 179.231311 206.21763 
L 180.408433 210.773479 
L 183.939801 169.54756 
L 185.116923 135.964597 
L 186.294046 110.767062 
L 187.471168 78.569225 
L 188.648291 58.111829 
L 189.825413 42.020187 
L 191.002536 29.108203 
L 192.179658 27.131215 
L 193.356781 30.609665 
L 194.533903 39.352378 
L 195.711026 42.076539 
L 196.888148 67.865033 
L 198.065271 74.964727 
L 200.419516 110.191587 
L 201.596638 115.518152 
L 202.773761 136.397434 
L 203.950883 148.322462 
L 205.128006 164.156484 
L 206.305128 175.577448 
L 207.482251 189.889134 
L 208.659373 196.54531 
L 209.836496 215.425729 
L 212.190741 238.539666 
L 213.367863 228.328866 
L 214.544986 227.913416 
L 216.89923 204.481949 
L 219.253475 160.143997 
L 220.430598 145.587855 
L 221.60772 113.28152 
L 222.784843 93.353614 
L 223.961965 68.848371 
L 225.139088 59.436276 
L 226.31621 56.995345 
L 227.493333 66.00058 
L 228.670455 72.967351 
L 229.847578 95.962843 
L 231.0247 109.66562 
L 232.201823 137.565491 
L 233.378945 155.529559 
L 234.556068 175.595937 
L 235.73319 197.661659 
L 238.087435 229.55052 
L 239.264558 226.470972 
L 240.44168 234.60519 
L 241.618803 236.409747 
L 242.795925 226.158312 
L 245.15017 196.518819 
L 246.327293 173.859649 
L 247.504415 159.247413 
L 248.681538 133.00693 
L 249.85866 118.419553 
L 251.035783 101.690077 
L 252.212905 87.388029 
L 253.390028 70.748956 
L 254.56715 68.500005 
L 255.744273 54.715676 
L 256.921395 55.83744 
L 258.098518 62.538339 
L 259.27564 57.966025 
L 260.452763 64.430325 
L 261.629885 65.467875 
L 262.807008 71.677738 
L 263.98413 59.830973 
L 265.161253 58.840589 
L 266.338375 71.403977 
L 267.515498 65.077948 
L 268.69262 56.166377 
L 269.869743 59.990656 
L 271.046865 61.002725 
L 272.223988 66.385735 
L 273.40111 70.379954 
L 274.578233 78.488736 
L 275.755355 84.637485 
L 276.932478 96.905053 
L 278.1096 112.305603 
L 279.286723 134.497281 
L 280.463845 153.056043 
L 281.640968 180.826422 
L 283.995213 210.443726 
L 285.172335 236.44602 
L 286.349458 231.446597 
L 287.52658 239.366335 
L 288.703703 235.399249 
L 289.880825 230.49227 
L 291.057948 222.588502 
L 294.589315 158.318003 
L 295.766438 127.695979 
L 298.120683 92.745707 
L 299.297805 67.261686 
L 300.474928 64.216262 
L 301.65205 59.367498 
L 302.829173 65.221923 
L 305.183418 92.573787 
L 306.36054 116.30716 
L 307.537663 145.357676 
L 308.714785 166.738211 
L 309.891908 183.323779 
L 311.06903 196.957874 
L 312.246152 207.296639 
L 313.423275 219.127644 
L 314.600397 223.9807 
L 315.77752 215.565824 
L 316.954642 214.374342 
L 318.131765 205.844331 
L 319.308887 199.437471 
L 320.48601 185.85133 
L 322.840255 184.868623 
L 324.017377 179.114404 
L 325.1945 189.454724 
L 326.371622 194.884794 
L 327.548745 193.956351 
L 328.725867 200.160676 
L 329.90299 205.038163 
L 331.080112 206.276276 
L 332.257235 211.727929 
L 333.434357 200.126595 
L 334.61148 195.410176 
L 335.788602 193.189573 
L 336.965725 194.878213 
L 338.142847 197.558182 
L 339.31997 194.260642 
L 340.497092 196.064118 
L 341.674215 194.157136 
L 342.851337 192.744228 
L 344.02846 197.924895 
L 345.205582 202.521881 
L 346.382705 202.667238 
L 347.559827 203.561909 
L 348.73695 206.031085 
L 349.914072 194.383557 
L 351.091195 197.917408 
L 352.268317 194.240933 
L 353.44544 187.700467 
L 354.622562 196.745028 
L 355.799685 189.936283 
L 356.976807 200.264695 
L 358.15393 198.653615 
L 359.331052 205.13934 
L 360.508175 200.779577 
L 361.685297 206.705891 
L 362.86242 209.447948 
L 364.039542 206.486289 
L 365.216665 212.173241 
L 366.393787 203.798024 
L 367.57091 193.294649 
L 368.748032 195.751511 
L 369.925155 176.265452 
L 371.102277 159.990993 
L 372.2794 148.150899 
L 373.456522 122.595728 
L 374.633645 101.953688 
L 375.810767 89.919835 
L 378.165012 47.078288 
L 379.342135 47.52575 
L 380.519257 30.06513 
L 381.69638 27.250155 
L 382.873502 31.616547 
L 384.050625 33.437983 
L 385.227747 39.055173 
L 386.40487 69.879188 
L 387.581992 81.789962 
L 388.759115 113.785983 
L 389.936237 138.567211 
L 392.290482 176.140126 
L 393.467605 189.610302 
L 394.644727 201.710504 
L 395.82185 193.894414 
L 396.998972 201.883831 
L 398.176095 181.114239 
L 399.353217 169.30832 
L 400.53034 145.256036 
L 401.707462 123.76111 
L 402.884585 100.075273 
L 404.061707 80.809788 
L 405.238829 66.208352 
L 406.415952 49.701142 
L 407.593074 41.117006 
L 408.770197 41.445904 
L 409.947319 46.081919 
L 411.124442 54.132448 
L 412.301564 55.376489 
L 413.478687 73.174595 
L 414.655809 78.094042 
L 415.832932 79.11344 
L 417.010054 78.796795 
L 418.187177 82.76381 
L 419.364299 75.228066 
L 420.541422 61.584381 
L 421.718544 68.088279 
L 422.895667 63.794986 
L 424.072789 62.571468 
L 425.249912 60.330355 
L 426.427034 68.254796 
L 427.604157 72.675355 
L 428.781279 71.817505 
L 429.958402 78.867475 
L 431.135524 75.341994 
L 432.312647 80.392914 
L 433.489769 78.520539 
L 434.666892 69.463884 
L 437.021137 44.589778 
L 438.198259 41.02839 
L 439.375382 27.072958 
L 440.552504 35.005078 
L 441.729627 38.188076 
L 442.906749 62.786385 
L 444.083872 80.700606 
L 445.260994 104.06146 
L 446.438117 134.085808 
L 447.615239 161.16339 
L 448.792362 179.68707 
L 449.969484 190.696432 
L 451.146607 213.173969 
L 452.323729 206.854074 
L 453.500852 199.693241 
L 454.677974 184.303157 
L 455.855097 155.311722 
L 457.032219 122.148509 
L 458.209342 95.794295 
L 459.386464 78.614853 
L 460.563587 66.471765 
L 461.740709 49.412699 
L 462.917832 60.595396 
L 464.094954 79.094108 
L 465.272077 93.547272 
L 466.449199 125.280614 
L 467.626322 149.09296 
L 468.803444 169.332995 
L 469.980567 201.001369 
L 472.334812 211.452762 
L 473.511934 204.03581 
L 474.689057 190.38941 
L 475.866179 171.009299 
L 477.043302 136.874049 
L 478.220424 117.143511 
L 479.397547 82.4349 
L 480.574669 55.960846 
L 481.751792 37.073021 
L 482.928914 28.133992 
L 484.106037 21.689876 
L 485.283159 18.25554 
L 487.637404 36.74741 
L 491.168772 101.413055 
L 492.345894 106.492246 
L 493.523017 130.577741 
L 494.700139 147.903013 
L 495.877262 158.473986 
L 497.054384 167.733568 
L 498.231507 186.572594 
L 499.408629 192.064855 
L 500.585751 189.044274 
L 501.762874 202.407725 
L 502.939996 208.758296 
L 504.117119 206.712655 
L 505.294241 218.194051 
L 506.471364 201.085506 
L 507.648486 206.013745 
L 508.825609 204.460999 
L 510.002731 193.235299 
L 511.179854 192.150287 
L 512.356976 177.178522 
L 513.534099 183.751619 
L 514.711221 175.020228 
L 515.888344 170.046085 
L 517.065466 182.393469 
L 518.242589 180.667768 
L 519.419711 201.539207 
L 520.596834 213.278713 
L 521.773956 218.143002 
L 522.951079 228.136127 
L 524.128201 236.476412 
L 525.305324 227.044203 
L 526.482446 221.961718 
L 527.659569 211.576371 
L 528.836691 178.966588 
L 530.013814 155.033521 
L 531.190936 134.809552 
L 532.368059 108.927265 
L 533.545181 88.585178 
L 534.722304 75.139534 
L 535.899426 57.587674 
L 537.076549 64.960669 
L 538.253671 64.687209 
L 540.607916 108.438109 
L 541.785039 125.186154 
L 544.139284 166.478543 
L 545.316406 191.599659 
L 545.316406 191.599659 
" clip-path="url(#p8fe44a7b60)" style="fill: none; stroke: #1f77b4; stroke-linecap: square"/>
   </g>
   <g id="line2d_30">
    <path d="M 75.644531 135.604678 
L 76.821654 126.564026 
L 77.998776 134.320539 
L 79.175899 136.221338 
L 80.353021 129.635306 
L 81.530144 134.124226 
L 82.707266 137.111951 
L 83.884389 123.679692 
L 85.061511 125.602779 
L 86.238634 128.688655 
L 87.415756 138.458399 
L 88.592879 139.848024 
L 89.770001 135.584466 
L 90.947124 138.94718 
L 92.124246 139.682696 
L 93.301369 135.220528 
L 94.478491 137.615421 
L 95.655614 130.544367 
L 96.832736 126.854969 
L 98.009859 124.766459 
L 99.186981 128.01935 
L 100.364104 126.498346 
L 101.541226 127.918919 
L 103.895471 125.721066 
L 105.072594 136.025175 
L 106.249716 142.606292 
L 107.426839 141.493422 
L 108.603961 144.230744 
L 109.781084 152.287351 
L 110.958206 152.042971 
L 112.135329 150.947807 
L 113.312451 135.520857 
L 114.489574 123.087148 
L 115.666696 113.815212 
L 116.843819 105.832923 
L 118.020941 82.592771 
L 119.198064 68.725673 
L 120.375186 66.488289 
L 121.552309 63.364934 
L 122.729431 69.502622 
L 123.906553 68.601268 
L 126.260798 109.507473 
L 127.437921 122.545251 
L 128.615043 149.649419 
L 129.792166 169.417521 
L 130.969288 184.72756 
L 132.146411 205.227694 
L 133.323533 217.042042 
L 134.500656 217.213682 
L 135.677778 219.413919 
L 136.854901 212.366011 
L 138.032023 213.21745 
L 139.209146 198.570791 
L 140.386268 189.929133 
L 141.563391 192.425714 
L 142.740513 191.039767 
L 143.917636 178.169241 
L 145.094758 184.821618 
L 146.271881 193.316087 
L 147.449003 190.525236 
L 148.626126 200.017506 
L 149.803248 199.502071 
L 150.980371 198.617848 
L 152.157493 203.929006 
L 153.334616 206.317944 
L 154.511738 189.949318 
L 155.688861 192.429026 
L 156.865983 187.807047 
L 158.043106 192.96338 
L 159.220228 179.118022 
L 160.397351 194.448334 
L 161.574473 196.206167 
L 162.751596 198.503007 
L 163.928718 208.92824 
L 165.105841 217.860713 
L 166.282963 214.161996 
L 167.460086 217.434341 
L 168.637208 209.380504 
L 170.991453 185.659407 
L 173.345698 151.343313 
L 174.522821 131.214 
L 175.699943 101.401158 
L 176.877066 99.085403 
L 178.054188 74.971304 
L 179.231311 66.452104 
L 180.408433 53.057949 
L 181.585556 45.622515 
L 182.762678 43.419431 
L 183.939801 51.322754 
L 185.116923 61.608417 
L 186.294046 56.010968 
L 187.471168 62.938465 
L 188.648291 68.84435 
L 189.825413 75.626764 
L 191.002536 77.06529 
L 192.179658 72.164592 
L 193.356781 77.667809 
L 194.533903 66.806044 
L 195.711026 63.525698 
L 196.888148 61.438097 
L 198.065271 52.774517 
L 199.242393 63.183174 
L 200.419516 71.518019 
L 201.596638 71.316976 
L 202.773761 65.178181 
L 203.950883 80.796225 
L 205.128006 84.109763 
L 206.305128 81.540116 
L 207.482251 77.974463 
L 208.659373 79.610076 
L 209.836496 54.925299 
L 211.013618 56.505835 
L 212.190741 44.48266 
L 213.367863 40.408217 
L 214.544986 33.920228 
L 215.722108 48.536908 
L 216.89923 52.38845 
L 218.076353 73.421689 
L 219.253475 98.685601 
L 221.60772 156.619684 
L 222.784843 180.825047 
L 223.961965 200.243246 
L 225.139088 214.331983 
L 226.31621 212.465804 
L 227.493333 200.364029 
L 228.670455 183.456905 
L 229.847578 152.198532 
L 231.0247 134.483422 
L 233.378945 81.131619 
L 234.556068 65.912775 
L 235.73319 55.391176 
L 236.910313 53.681381 
L 238.087435 73.649358 
L 239.264558 89.104203 
L 240.44168 110.702295 
L 241.618803 144.027826 
L 242.795925 164.04322 
L 243.973048 192.126073 
L 246.327293 222.764214 
L 247.504415 228.145684 
L 248.681538 235.540219 
L 249.85866 225.089728 
L 251.035783 213.026807 
L 252.212905 211.517273 
L 253.390028 190.34604 
L 254.56715 179.104908 
L 255.744273 185.263063 
L 256.921395 169.823613 
L 258.098518 185.437503 
L 259.27564 181.938729 
L 261.629885 203.821354 
L 262.807008 203.097373 
L 263.98413 207.367195 
L 265.161253 218.277927 
L 266.338375 202.492197 
L 267.515498 194.795744 
L 268.69262 190.830579 
L 269.869743 182.511245 
L 271.046865 179.436636 
L 272.223988 179.892869 
L 273.40111 190.644481 
L 274.578233 191.647833 
L 275.755355 207.336281 
L 276.932478 215.092805 
L 278.1096 226.210736 
L 279.286723 226.552481 
L 280.463845 221.165547 
L 281.640968 223.12322 
L 282.81809 201.721098 
L 283.995213 185.561604 
L 285.172335 157.988056 
L 286.349458 137.254182 
L 287.52658 109.06551 
L 288.703703 89.545819 
L 289.880825 73.462519 
L 291.057948 62.822127 
L 292.23507 58.685614 
L 293.412193 74.693304 
L 294.589315 82.116779 
L 295.766438 98.082833 
L 296.94356 131.649203 
L 298.120683 150.382346 
L 299.297805 173.76901 
L 300.474928 193.161102 
L 301.65205 201.696786 
L 302.829173 213.147993 
L 304.006295 195.608462 
L 305.183418 189.391081 
L 306.36054 161.806566 
L 307.537663 138.824991 
L 308.714785 108.022382 
L 309.891908 81.160248 
L 311.06903 58.092217 
L 312.246152 38.417872 
L 313.423275 23.725787 
L 314.600397 24.280816 
L 315.77752 23.743046 
L 316.954642 34.881725 
L 318.131765 41.485579 
L 321.663132 90.512428 
L 322.840255 109.650256 
L 325.1945 143.116922 
L 326.371622 152.028582 
L 327.548745 170.245436 
L 328.725867 180.422165 
L 329.90299 196.141453 
L 331.080112 204.428667 
L 332.257235 218.099802 
L 333.434357 215.672016 
L 334.61148 224.409091 
L 335.788602 220.326889 
L 336.965725 218.802796 
L 338.142847 200.695955 
L 339.31997 198.012655 
L 340.497092 183.270402 
L 341.674215 165.736239 
L 342.851337 155.1314 
L 344.02846 134.429284 
L 345.205582 118.169326 
L 346.382705 95.594111 
L 347.559827 78.595343 
L 348.73695 71.501929 
L 349.914072 60.533476 
L 351.091195 50.813866 
L 352.268317 42.111083 
L 353.44544 31.249279 
L 354.622562 35.479269 
L 355.799685 40.387409 
L 356.976807 44.371781 
L 358.15393 56.657788 
L 359.331052 75.607574 
L 360.508175 96.431915 
L 361.685297 120.685945 
L 362.86242 139.407187 
L 364.039542 164.825936 
L 365.216665 186.55131 
L 366.393787 189.382227 
L 367.57091 203.087614 
L 368.748032 210.151147 
L 369.925155 212.70072 
L 371.102277 210.79658 
L 372.2794 198.041783 
L 373.456522 195.195205 
L 374.633645 190.27423 
L 375.810767 190.031331 
L 376.98789 189.451161 
L 378.165012 191.885452 
L 379.342135 198.464919 
L 380.519257 207.611808 
L 381.69638 214.969971 
L 382.873502 218.046215 
L 384.050625 224.579693 
L 385.227747 216.826234 
L 386.40487 212.684403 
L 389.936237 149.213606 
L 391.11336 119.735031 
L 392.290482 102.864907 
L 393.467605 75.996797 
L 394.644727 56.436945 
L 395.82185 59.409405 
L 396.998972 58.941631 
L 398.176095 79.570787 
L 399.353217 87.38373 
L 400.53034 119.57716 
L 402.884585 168.326026 
L 404.061707 191.04364 
L 405.238829 204.70227 
L 406.415952 215.963562 
L 407.593074 218.890479 
L 408.770197 219.473622 
L 409.947319 212.794024 
L 411.124442 203.949606 
L 412.301564 196.205288 
L 413.478687 193.007179 
L 414.655809 192.076977 
L 415.832932 191.949289 
L 417.010054 196.756672 
L 418.187177 192.270483 
L 419.364299 194.695644 
L 420.541422 198.206175 
L 421.718544 204.016603 
L 424.072789 200.348664 
L 425.249912 193.639239 
L 426.427034 182.604688 
L 427.604157 168.763842 
L 428.781279 150.659316 
L 429.958402 128.817759 
L 431.135524 111.013367 
L 432.312647 82.469573 
L 433.489769 62.185087 
L 435.844014 36.734806 
L 437.021137 28.221663 
L 438.198259 24.525526 
L 439.375382 28.537185 
L 440.552504 38.068571 
L 441.729627 41.96287 
L 442.906749 72.202914 
L 444.083872 88.14546 
L 446.438117 126.118398 
L 447.615239 154.930005 
L 449.969484 188.218232 
L 451.146607 197.873408 
L 452.323729 196.676882 
L 453.500852 204.094825 
L 454.677974 192.715963 
L 455.855097 164.369498 
L 457.032219 162.178028 
L 458.209342 139.911498 
L 459.386464 103.290862 
L 460.563587 85.189024 
L 461.740709 57.676955 
L 462.917832 44.668913 
L 465.272077 33.735772 
L 466.449199 34.255876 
L 467.626322 33.930661 
L 469.980567 57.891236 
L 471.157689 64.313009 
L 472.334812 86.291847 
L 473.511934 100.602171 
L 475.866179 140.929493 
L 477.043302 151.491349 
L 478.220424 168.249008 
L 479.397547 181.127519 
L 480.574669 196.809902 
L 481.751792 205.003713 
L 482.928914 209.607569 
L 484.106037 213.113503 
L 485.283159 224.348297 
L 486.460282 214.997765 
L 487.637404 217.403163 
L 488.814527 206.997949 
L 489.991649 193.15287 
L 491.168772 187.440786 
L 492.345894 163.999107 
L 493.523017 155.569591 
L 494.700139 139.065451 
L 495.877262 117.690241 
L 497.054384 105.690015 
L 498.231507 80.487676 
L 499.408629 71.670406 
L 500.585751 49.717228 
L 502.939996 39.548374 
L 504.117119 36.227393 
L 505.294241 35.557941 
L 506.471364 43.745673 
L 507.648486 55.486277 
L 508.825609 71.336328 
L 510.002731 78.339824 
L 511.179854 104.797094 
L 512.356976 118.41216 
L 513.534099 140.261675 
L 514.711221 159.716375 
L 515.888344 171.43781 
L 517.065466 186.717326 
L 518.242589 194.741908 
L 519.419711 206.014037 
L 520.596834 210.191122 
L 521.773956 209.962593 
L 522.951079 216.187264 
L 524.128201 211.760316 
L 525.305324 205.054087 
L 526.482446 211.072859 
L 527.659569 201.419977 
L 528.836691 199.998228 
L 530.013814 186.631469 
L 531.190936 183.600038 
L 532.368059 175.804696 
L 533.545181 170.074811 
L 534.722304 175.509703 
L 535.899426 178.373799 
L 537.076549 191.919168 
L 538.253671 190.597687 
L 539.430794 205.433077 
L 540.607916 218.760912 
L 541.785039 229.029072 
L 542.962161 235.683503 
L 544.139284 226.01634 
L 545.316406 223.095978 
L 545.316406 223.095978 
" clip-path="url(#p8fe44a7b60)" style="fill: none; stroke: #ff7f0e; stroke-linecap: square"/>
   </g>
   <g id="patch_3">
    <path d="M 52.160938 250.421875 
L 52.160938 7.2 
" style="fill: none; stroke: #000000; stroke-width: 0.8; stroke-linejoin: miter; stroke-linecap: square"/>
   </g>
   <g id="patch_4">
    <path d="M 568.8 250.421875 
L 568.8 7.2 
" style="fill: none; stroke: #000000; stroke-width: 0.8; stroke-linejoin: miter; stroke-linecap: square"/>
   </g>
   <g id="patch_5">
    <path d="M 52.160937 250.421875 
L 568.8 250.421875 
" style="fill: none; stroke: #000000; stroke-width: 0.8; stroke-linejoin: miter; stroke-linecap: square"/>
   </g>
   <g id="patch_6">
    <path d="M 52.160937 7.2 
L 568.8 7.2 
" style="fill: none; stroke: #000000; stroke-width: 0.8; stroke-linejoin: miter; stroke-linecap: square"/>
   </g>
   <g id="legend_1">
    <g id="patch_7">
     <path d="M 59.160938 44.55625 
L 116.15625 44.55625 
Q 118.15625 44.55625 118.15625 42.55625 
L 118.15625 14.2 
Q 118.15625 12.2 116.15625 12.2 
L 59.160938 12.2 
Q 57.160938 12.2 57.160938 14.2 
L 57.160938 42.55625 
Q 57.160938 44.55625 59.160938 44.55625 
z
" style="fill: #ffffff; opacity: 0.8; stroke: #cccccc; stroke-linejoin: miter"/>
    </g>
    <g id="line2d_31">
     <path d="M 61.160938 20.298438 
L 71.160938 20.298438 
L 81.160938 20.298438 
" style="fill: none; stroke: #1f77b4; stroke-linecap: square"/>
    </g>
    <g id="text_17">
     <!-- real -->
     <g transform="translate(89.160938 23.798438) scale(0.1 -0.1)">
      <defs>
       <path id="DejaVuSans-72" d="M 2631 2963 
Q 2534 3019 2420 3045 
Q 2306 3072 2169 3072 
Q 1681 3072 1420 2755 
Q 1159 2438 1159 1844 
L 1159 0 
L 581 0 
L 581 3500 
L 1159 3500 
L 1159 2956 
Q 1341 3275 1631 3429 
Q 1922 3584 2338 3584 
Q 2397 3584 2469 3576 
Q 2541 3569 2628 3553 
L 2631 2963 
z
" transform="scale(0.015625)"/>
      </defs>
      <use xlink:href="#DejaVuSans-72"/>
      <use xlink:href="#DejaVuSans-65" transform="translate(38.863281 0)"/>
      <use xlink:href="#DejaVuSans-61" transform="translate(100.386719 0)"/>
      <use xlink:href="#DejaVuSans-6c" transform="translate(161.666016 0)"/>
     </g>
    </g>
    <g id="line2d_32">
     <path d="M 61.160938 34.976563 
L 71.160938 34.976563 
L 81.160938 34.976563 
" style="fill: none; stroke: #ff7f0e; stroke-linecap: square"/>
    </g>
    <g id="text_18">
     <!-- imag -->
     <g transform="translate(89.160938 38.476563) scale(0.1 -0.1)">
      <defs>
       <path id="DejaVuSans-67" d="M 2906 1791 
Q 2906 2416 2648 2759 
Q 2391 3103 1925 3103 
Q 1463 3103 1205 2759 
Q 947 2416 947 1791 
Q 947 1169 1205 825 
Q 1463 481 1925 481 
Q 2391 481 2648 825 
Q 2906 1169 2906 1791 
z
M 3481 434 
Q 3481 -459 3084 -895 
Q 2688 -1331 1869 -1331 
Q 1566 -1331 1297 -1286 
Q 1028 -1241 775 -1147 
L 775 -588 
Q 1028 -725 1275 -790 
Q 1522 -856 1778 -856 
Q 2344 -856 2625 -561 
Q 2906 -266 2906 331 
L 2906 616 
Q 2728 306 2450 153 
Q 2172 0 1784 0 
Q 1141 0 747 490 
Q 353 981 353 1791 
Q 353 2603 747 3093 
Q 1141 3584 1784 3584 
Q 2172 3584 2450 3431 
Q 2728 3278 2906 2969 
L 2906 3500 
L 3481 3500 
L 3481 434 
z
" transform="scale(0.015625)"/>
      </defs>
      <use xlink:href="#DejaVuSans-69"/>
      <use xlink:href="#DejaVuSans-6d" transform="translate(27.783203 0)"/>
      <use xlink:href="#DejaVuSans-61" transform="translate(125.195312 0)"/>
      <use xlink:href="#DejaVuSans-67" transform="translate(186.474609 0)"/>
     </g>
    </g>
   </g>
  </g>
 </g>
 <defs>
  <clipPath id="p8fe44a7b60">
   <rect x="52.160938" y="7.2" width="516.639063" height="243.221875"/>
  </clipPath>
 </defs>
</svg>
