<?xml version="1.0" encoding="utf-8" standalone="no"?>
<!DOCTYPE svg PUBLIC "-//W3C//DTD SVG 1.1//EN"
  "http://www.w3.org/Graphics/SVG/1.1/DTD/svg11.dtd">
<svg xmlns:xlink="http://www.w3.org/1999/xlink" width="576pt" height="288pt" viewBox="0 0 576 288" xmlns="http://www.w3.org/2000/svg" version="1.1">
 <metadata>
  <rdf:RDF xmlns:dc="http://purl.org/dc/elements/1.1/" xmlns:cc="http://creativecommons.org/ns#" xmlns:rdf="http://www.w3.org/1999/02/22-rdf-syntax-ns#">
   <cc:Work>
    <dc:type rdf:resource="http://purl.org/dc/dcmitype/StillImage"/>
    <dc:date>2025-05-10T16:34:56.866237</dc:date>
    <dc:format>image/svg+xml</dc:format>
    <dc:creator>
     <cc:Agent>
      <dc:title>Matplotlib v3.10.3, https://matplotlib.org/</dc:title>
     </cc:Agent>
    </dc:creator>
   </cc:Work>
  </rdf:RDF>
 </metadata>
 <defs>
  <style type="text/css">*{stroke-linejoin: round; stroke-linecap: butt}</style>
 </defs>
 <g id="figure_1">
  <g id="patch_1">
   <path d="M 0 288 
L 576 288 
L 576 0 
L 0 0 
z
" style="fill: #ffffff"/>
  </g>
  <g id="axes_1">
   <g id="patch_2">
    <path d="M 173.948125 250.421875 
L 402.051875 250.421875 
L 402.051875 22.318125 
L 173.948125 22.318125 
z
" style="fill: #ffffff"/>
   </g>
   <g id="matplotlib.axis_1">
    <g id="xtick_1">
     <g id="line2d_1">
      <path d="M 184.316477 250.421875 
L 184.316477 22.318125 
" clip-path="url(#pd2089fa772)" style="fill: none; stroke-dasharray: 2.96,1.28; stroke-dashoffset: 0; stroke: #b0b0b0; stroke-opacity: 0.8; stroke-width: 0.8"/>
     </g>
     <g id="line2d_2">
      <defs>
       <path id="mc9d53a0e4e" d="M 0 0 
L 0 3.5 
" style="stroke: #000000; stroke-width: 0.8"/>
      </defs>
      <g>
       <use xlink:href="#mc9d53a0e4e" x="184.316477" y="250.421875" style="stroke: #000000; stroke-width: 0.8"/>
      </g>
     </g>
     <g id="text_1">
      <!-- −1.0 -->
      <g transform="translate(172.175071 265.020312) scale(0.1 -0.1)">
       <defs>
        <path id="DejaVuSans-2212" d="M 678 2272 
L 4684 2272 
L 4684 1741 
L 678 1741 
L 678 2272 
z
" transform="scale(0.015625)"/>
        <path id="DejaVuSans-31" d="M 794 531 
L 1825 531 
L 1825 4091 
L 703 3866 
L 703 4441 
L 1819 4666 
L 2450 4666 
L 2450 531 
L 3481 531 
L 3481 0 
L 794 0 
L 794 531 
z
" transform="scale(0.015625)"/>
        <path id="DejaVuSans-2e" d="M 684 794 
L 1344 794 
L 1344 0 
L 684 0 
L 684 794 
z
" transform="scale(0.015625)"/>
        <path id="DejaVuSans-30" d="M 2034 4250 
Q 1547 4250 1301 3770 
Q 1056 3291 1056 2328 
Q 1056 1369 1301 889 
Q 1547 409 2034 409 
Q 2525 409 2770 889 
Q 3016 1369 3016 2328 
Q 3016 3291 2770 3770 
Q 2525 4250 2034 4250 
z
M 2034 4750 
Q 2819 4750 3233 4129 
Q 3647 3509 3647 2328 
Q 3647 1150 3233 529 
Q 2819 -91 2034 -91 
Q 1250 -91 836 529 
Q 422 1150 422 2328 
Q 422 3509 836 4129 
Q 1250 4750 2034 4750 
z
" transform="scale(0.015625)"/>
       </defs>
       <use xlink:href="#DejaVuSans-2212"/>
       <use xlink:href="#DejaVuSans-31" transform="translate(83.789062 0)"/>
       <use xlink:href="#DejaVuSans-2e" transform="translate(147.412109 0)"/>
       <use xlink:href="#DejaVuSans-30" transform="translate(179.199219 0)"/>
      </g>
     </g>
    </g>
    <g id="xtick_2">
     <g id="line2d_3">
      <path d="M 236.158239 250.421875 
L 236.158239 22.318125 
" clip-path="url(#pd2089fa772)" style="fill: none; stroke-dasharray: 2.96,1.28; stroke-dashoffset: 0; stroke: #b0b0b0; stroke-opacity: 0.8; stroke-width: 0.8"/>
     </g>
     <g id="line2d_4">
      <g>
       <use xlink:href="#mc9d53a0e4e" x="236.158239" y="250.421875" style="stroke: #000000; stroke-width: 0.8"/>
      </g>
     </g>
     <g id="text_2">
      <!-- −0.5 -->
      <g transform="translate(224.016832 265.020312) scale(0.1 -0.1)">
       <defs>
        <path id="DejaVuSans-35" d="M 691 4666 
L 3169 4666 
L 3169 4134 
L 1269 4134 
L 1269 2991 
Q 1406 3038 1543 3061 
Q 1681 3084 1819 3084 
Q 2600 3084 3056 2656 
Q 3513 2228 3513 1497 
Q 3513 744 3044 326 
Q 2575 -91 1722 -91 
Q 1428 -91 1123 -41 
Q 819 9 494 109 
L 494 744 
Q 775 591 1075 516 
Q 1375 441 1709 441 
Q 2250 441 2565 725 
Q 2881 1009 2881 1497 
Q 2881 1984 2565 2268 
Q 2250 2553 1709 2553 
Q 1456 2553 1204 2497 
Q 953 2441 691 2322 
L 691 4666 
z
" transform="scale(0.015625)"/>
       </defs>
       <use xlink:href="#DejaVuSans-2212"/>
       <use xlink:href="#DejaVuSans-30" transform="translate(83.789062 0)"/>
       <use xlink:href="#DejaVuSans-2e" transform="translate(147.412109 0)"/>
       <use xlink:href="#DejaVuSans-35" transform="translate(179.199219 0)"/>
      </g>
     </g>
    </g>
    <g id="xtick_3">
     <g id="line2d_5">
      <path d="M 288 250.421875 
L 288 22.318125 
" clip-path="url(#pd2089fa772)" style="fill: none; stroke-dasharray: 2.96,1.28; stroke-dashoffset: 0; stroke: #b0b0b0; stroke-opacity: 0.8; stroke-width: 0.8"/>
     </g>
     <g id="line2d_6">
      <g>
       <use xlink:href="#mc9d53a0e4e" x="288" y="250.421875" style="stroke: #000000; stroke-width: 0.8"/>
      </g>
     </g>
     <g id="text_3">
      <!-- 0.0 -->
      <g transform="translate(280.048437 265.020312) scale(0.1 -0.1)">
       <use xlink:href="#DejaVuSans-30"/>
       <use xlink:href="#DejaVuSans-2e" transform="translate(63.623047 0)"/>
       <use xlink:href="#DejaVuSans-30" transform="translate(95.410156 0)"/>
      </g>
     </g>
    </g>
    <g id="xtick_4">
     <g id="line2d_7">
      <path d="M 339.841761 250.421875 
L 339.841761 22.318125 
" clip-path="url(#pd2089fa772)" style="fill: none; stroke-dasharray: 2.96,1.28; stroke-dashoffset: 0; stroke: #b0b0b0; stroke-opacity: 0.8; stroke-width: 0.8"/>
     </g>
     <g id="line2d_8">
      <g>
       <use xlink:href="#mc9d53a0e4e" x="339.841761" y="250.421875" style="stroke: #000000; stroke-width: 0.8"/>
      </g>
     </g>
     <g id="text_4">
      <!-- 0.5 -->
      <g transform="translate(331.890199 265.020312) scale(0.1 -0.1)">
       <use xlink:href="#DejaVuSans-30"/>
       <use xlink:href="#DejaVuSans-2e" transform="translate(63.623047 0)"/>
       <use xlink:href="#DejaVuSans-35" transform="translate(95.410156 0)"/>
      </g>
     </g>
    </g>
    <g id="xtick_5">
     <g id="line2d_9">
      <path d="M 391.683523 250.421875 
L 391.683523 22.318125 
" clip-path="url(#pd2089fa772)" style="fill: none; stroke-dasharray: 2.96,1.28; stroke-dashoffset: 0; stroke: #b0b0b0; stroke-opacity: 0.8; stroke-width: 0.8"/>
     </g>
     <g id="line2d_10">
      <g>
       <use xlink:href="#mc9d53a0e4e" x="391.683523" y="250.421875" style="stroke: #000000; stroke-width: 0.8"/>
      </g>
     </g>
     <g id="text_5">
      <!-- 1.0 -->
      <g transform="translate(383.73196 265.020312) scale(0.1 -0.1)">
       <use xlink:href="#DejaVuSans-31"/>
       <use xlink:href="#DejaVuSans-2e" transform="translate(63.623047 0)"/>
       <use xlink:href="#DejaVuSans-30" transform="translate(95.410156 0)"/>
      </g>
     </g>
    </g>
    <g id="text_6">
     <!-- In-phase channel, $I$ -->
     <g transform="translate(240.4 278.7) scale(0.1 -0.1)">
      <defs>
       <path id="DejaVuSans-49" d="M 628 4666 
L 1259 4666 
L 1259 0 
L 628 0 
L 628 4666 
z
" transform="scale(0.015625)"/>
       <path id="DejaVuSans-6e" d="M 3513 2113 
L 3513 0 
L 2938 0 
L 2938 2094 
Q 2938 2591 2744 2837 
Q 2550 3084 2163 3084 
Q 1697 3084 1428 2787 
Q 1159 2491 1159 1978 
L 1159 0 
L 581 0 
L 581 3500 
L 1159 3500 
L 1159 2956 
Q 1366 3272 1645 3428 
Q 1925 3584 2291 3584 
Q 2894 3584 3203 3211 
Q 3513 2838 3513 2113 
z
" transform="scale(0.015625)"/>
       <path id="DejaVuSans-2d" d="M 313 2009 
L 1997 2009 
L 1997 1497 
L 313 1497 
L 313 2009 
z
" transform="scale(0.015625)"/>
       <path id="DejaVuSans-70" d="M 1159 525 
L 1159 -1331 
L 581 -1331 
L 581 3500 
L 1159 3500 
L 1159 2969 
Q 1341 3281 1617 3432 
Q 1894 3584 2278 3584 
Q 2916 3584 3314 3078 
Q 3713 2572 3713 1747 
Q 3713 922 3314 415 
Q 2916 -91 2278 -91 
Q 1894 -91 1617 61 
Q 1341 213 1159 525 
z
M 3116 1747 
Q 3116 2381 2855 2742 
Q 2594 3103 2138 3103 
Q 1681 3103 1420 2742 
Q 1159 2381 1159 1747 
Q 1159 1113 1420 752 
Q 1681 391 2138 391 
Q 2594 391 2855 752 
Q 3116 1113 3116 1747 
z
" transform="scale(0.015625)"/>
       <path id="DejaVuSans-68" d="M 3513 2113 
L 3513 0 
L 2938 0 
L 2938 2094 
Q 2938 2591 2744 2837 
Q 2550 3084 2163 3084 
Q 1697 3084 1428 2787 
Q 1159 2491 1159 1978 
L 1159 0 
L 581 0 
L 581 4863 
L 1159 4863 
L 1159 2956 
Q 1366 3272 1645 3428 
Q 1925 3584 2291 3584 
Q 2894 3584 3203 3211 
Q 3513 2838 3513 2113 
z
" transform="scale(0.015625)"/>
       <path id="DejaVuSans-61" d="M 2194 1759 
Q 1497 1759 1228 1600 
Q 959 1441 959 1056 
Q 959 750 1161 570 
Q 1363 391 1709 391 
Q 2188 391 2477 730 
Q 2766 1069 2766 1631 
L 2766 1759 
L 2194 1759 
z
M 3341 1997 
L 3341 0 
L 2766 0 
L 2766 531 
Q 2569 213 2275 61 
Q 1981 -91 1556 -91 
Q 1019 -91 701 211 
Q 384 513 384 1019 
Q 384 1609 779 1909 
Q 1175 2209 1959 2209 
L 2766 2209 
L 2766 2266 
Q 2766 2663 2505 2880 
Q 2244 3097 1772 3097 
Q 1472 3097 1187 3025 
Q 903 2953 641 2809 
L 641 3341 
Q 956 3463 1253 3523 
Q 1550 3584 1831 3584 
Q 2591 3584 2966 3190 
Q 3341 2797 3341 1997 
z
" transform="scale(0.015625)"/>
       <path id="DejaVuSans-73" d="M 2834 3397 
L 2834 2853 
Q 2591 2978 2328 3040 
Q 2066 3103 1784 3103 
Q 1356 3103 1142 2972 
Q 928 2841 928 2578 
Q 928 2378 1081 2264 
Q 1234 2150 1697 2047 
L 1894 2003 
Q 2506 1872 2764 1633 
Q 3022 1394 3022 966 
Q 3022 478 2636 193 
Q 2250 -91 1575 -91 
Q 1294 -91 989 -36 
Q 684 19 347 128 
L 347 722 
Q 666 556 975 473 
Q 1284 391 1588 391 
Q 1994 391 2212 530 
Q 2431 669 2431 922 
Q 2431 1156 2273 1281 
Q 2116 1406 1581 1522 
L 1381 1569 
Q 847 1681 609 1914 
Q 372 2147 372 2553 
Q 372 3047 722 3315 
Q 1072 3584 1716 3584 
Q 2034 3584 2315 3537 
Q 2597 3491 2834 3397 
z
" transform="scale(0.015625)"/>
       <path id="DejaVuSans-65" d="M 3597 1894 
L 3597 1613 
L 953 1613 
Q 991 1019 1311 708 
Q 1631 397 2203 397 
Q 2534 397 2845 478 
Q 3156 559 3463 722 
L 3463 178 
Q 3153 47 2828 -22 
Q 2503 -91 2169 -91 
Q 1331 -91 842 396 
Q 353 884 353 1716 
Q 353 2575 817 3079 
Q 1281 3584 2069 3584 
Q 2775 3584 3186 3129 
Q 3597 2675 3597 1894 
z
M 3022 2063 
Q 3016 2534 2758 2815 
Q 2500 3097 2075 3097 
Q 1594 3097 1305 2825 
Q 1016 2553 972 2059 
L 3022 2063 
z
" transform="scale(0.015625)"/>
       <path id="DejaVuSans-20" transform="scale(0.015625)"/>
       <path id="DejaVuSans-63" d="M 3122 3366 
L 3122 2828 
Q 2878 2963 2633 3030 
Q 2388 3097 2138 3097 
Q 1578 3097 1268 2742 
Q 959 2388 959 1747 
Q 959 1106 1268 751 
Q 1578 397 2138 397 
Q 2388 397 2633 464 
Q 2878 531 3122 666 
L 3122 134 
Q 2881 22 2623 -34 
Q 2366 -91 2075 -91 
Q 1284 -91 818 406 
Q 353 903 353 1747 
Q 353 2603 823 3093 
Q 1294 3584 2113 3584 
Q 2378 3584 2631 3529 
Q 2884 3475 3122 3366 
z
" transform="scale(0.015625)"/>
       <path id="DejaVuSans-6c" d="M 603 4863 
L 1178 4863 
L 1178 0 
L 603 0 
L 603 4863 
z
" transform="scale(0.015625)"/>
       <path id="DejaVuSans-2c" d="M 750 794 
L 1409 794 
L 1409 256 
L 897 -744 
L 494 -744 
L 750 256 
L 750 794 
z
" transform="scale(0.015625)"/>
       <path id="DejaVuSans-Oblique-49" d="M 1081 4666 
L 1716 4666 
L 806 0 
L 172 0 
L 1081 4666 
z
" transform="scale(0.015625)"/>
      </defs>
      <use xlink:href="#DejaVuSans-49" transform="translate(0 0.015625)"/>
      <use xlink:href="#DejaVuSans-6e" transform="translate(29.492188 0.015625)"/>
      <use xlink:href="#DejaVuSans-2d" transform="translate(92.871094 0.015625)"/>
      <use xlink:href="#DejaVuSans-70" transform="translate(128.955078 0.015625)"/>
      <use xlink:href="#DejaVuSans-68" transform="translate(192.431641 0.015625)"/>
      <use xlink:href="#DejaVuSans-61" transform="translate(255.810547 0.015625)"/>
      <use xlink:href="#DejaVuSans-73" transform="translate(317.089844 0.015625)"/>
      <use xlink:href="#DejaVuSans-65" transform="translate(369.189453 0.015625)"/>
      <use xlink:href="#DejaVuSans-20" transform="translate(430.712891 0.015625)"/>
      <use xlink:href="#DejaVuSans-63" transform="translate(462.5 0.015625)"/>
      <use xlink:href="#DejaVuSans-68" transform="translate(517.480469 0.015625)"/>
      <use xlink:href="#DejaVuSans-61" transform="translate(580.859375 0.015625)"/>
      <use xlink:href="#DejaVuSans-6e" transform="translate(642.138672 0.015625)"/>
      <use xlink:href="#DejaVuSans-6e" transform="translate(705.517578 0.015625)"/>
      <use xlink:href="#DejaVuSans-65" transform="translate(768.896484 0.015625)"/>
      <use xlink:href="#DejaVuSans-6c" transform="translate(830.419922 0.015625)"/>
      <use xlink:href="#DejaVuSans-2c" transform="translate(858.203125 0.015625)"/>
      <use xlink:href="#DejaVuSans-20" transform="translate(889.990234 0.015625)"/>
      <use xlink:href="#DejaVuSans-Oblique-49" transform="translate(921.777344 0.015625)"/>
     </g>
    </g>
   </g>
   <g id="matplotlib.axis_2">
    <g id="ytick_1">
     <g id="line2d_11">
      <path d="M 173.948125 240.053523 
L 402.051875 240.053523 
" clip-path="url(#pd2089fa772)" style="fill: none; stroke-dasharray: 2.96,1.28; stroke-dashoffset: 0; stroke: #b0b0b0; stroke-opacity: 0.8; stroke-width: 0.8"/>
     </g>
     <g id="line2d_12">
      <defs>
       <path id="mc67d0e4b0c" d="M 0 0 
L -3.5 0 
" style="stroke: #000000; stroke-width: 0.8"/>
      </defs>
      <g>
       <use xlink:href="#mc67d0e4b0c" x="173.948125" y="240.053523" style="stroke: #000000; stroke-width: 0.8"/>
      </g>
     </g>
     <g id="text_7">
      <!-- −1.00 -->
      <g transform="translate(136.302813 243.852741) scale(0.1 -0.1)">
       <use xlink:href="#DejaVuSans-2212"/>
       <use xlink:href="#DejaVuSans-31" transform="translate(83.789062 0)"/>
       <use xlink:href="#DejaVuSans-2e" transform="translate(147.412109 0)"/>
       <use xlink:href="#DejaVuSans-30" transform="translate(179.199219 0)"/>
       <use xlink:href="#DejaVuSans-30" transform="translate(242.822266 0)"/>
      </g>
     </g>
    </g>
    <g id="ytick_2">
     <g id="line2d_13">
      <path d="M 173.948125 214.132642 
L 402.051875 214.132642 
" clip-path="url(#pd2089fa772)" style="fill: none; stroke-dasharray: 2.96,1.28; stroke-dashoffset: 0; stroke: #b0b0b0; stroke-opacity: 0.8; stroke-width: 0.8"/>
     </g>
     <g id="line2d_14">
      <g>
       <use xlink:href="#mc67d0e4b0c" x="173.948125" y="214.132642" style="stroke: #000000; stroke-width: 0.8"/>
      </g>
     </g>
     <g id="text_8">
      <!-- −0.75 -->
      <g transform="translate(136.302813 217.931861) scale(0.1 -0.1)">
       <defs>
        <path id="DejaVuSans-37" d="M 525 4666 
L 3525 4666 
L 3525 4397 
L 1831 0 
L 1172 0 
L 2766 4134 
L 525 4134 
L 525 4666 
z
" transform="scale(0.015625)"/>
       </defs>
       <use xlink:href="#DejaVuSans-2212"/>
       <use xlink:href="#DejaVuSans-30" transform="translate(83.789062 0)"/>
       <use xlink:href="#DejaVuSans-2e" transform="translate(147.412109 0)"/>
       <use xlink:href="#DejaVuSans-37" transform="translate(179.199219 0)"/>
       <use xlink:href="#DejaVuSans-35" transform="translate(242.822266 0)"/>
      </g>
     </g>
    </g>
    <g id="ytick_3">
     <g id="line2d_15">
      <path d="M 173.948125 188.211761 
L 402.051875 188.211761 
" clip-path="url(#pd2089fa772)" style="fill: none; stroke-dasharray: 2.96,1.28; stroke-dashoffset: 0; stroke: #b0b0b0; stroke-opacity: 0.8; stroke-width: 0.8"/>
     </g>
     <g id="line2d_16">
      <g>
       <use xlink:href="#mc67d0e4b0c" x="173.948125" y="188.211761" style="stroke: #000000; stroke-width: 0.8"/>
      </g>
     </g>
     <g id="text_9">
      <!-- −0.50 -->
      <g transform="translate(136.302813 192.01098) scale(0.1 -0.1)">
       <use xlink:href="#DejaVuSans-2212"/>
       <use xlink:href="#DejaVuSans-30" transform="translate(83.789062 0)"/>
       <use xlink:href="#DejaVuSans-2e" transform="translate(147.412109 0)"/>
       <use xlink:href="#DejaVuSans-35" transform="translate(179.199219 0)"/>
       <use xlink:href="#DejaVuSans-30" transform="translate(242.822266 0)"/>
      </g>
     </g>
    </g>
    <g id="ytick_4">
     <g id="line2d_17">
      <path d="M 173.948125 162.290881 
L 402.051875 162.290881 
" clip-path="url(#pd2089fa772)" style="fill: none; stroke-dasharray: 2.96,1.28; stroke-dashoffset: 0; stroke: #b0b0b0; stroke-opacity: 0.8; stroke-width: 0.8"/>
     </g>
     <g id="line2d_18">
      <g>
       <use xlink:href="#mc67d0e4b0c" x="173.948125" y="162.290881" style="stroke: #000000; stroke-width: 0.8"/>
      </g>
     </g>
     <g id="text_10">
      <!-- −0.25 -->
      <g transform="translate(136.302813 166.090099) scale(0.1 -0.1)">
       <defs>
        <path id="DejaVuSans-32" d="M 1228 531 
L 3431 531 
L 3431 0 
L 469 0 
L 469 531 
Q 828 903 1448 1529 
Q 2069 2156 2228 2338 
Q 2531 2678 2651 2914 
Q 2772 3150 2772 3378 
Q 2772 3750 2511 3984 
Q 2250 4219 1831 4219 
Q 1534 4219 1204 4116 
Q 875 4013 500 3803 
L 500 4441 
Q 881 4594 1212 4672 
Q 1544 4750 1819 4750 
Q 2544 4750 2975 4387 
Q 3406 4025 3406 3419 
Q 3406 3131 3298 2873 
Q 3191 2616 2906 2266 
Q 2828 2175 2409 1742 
Q 1991 1309 1228 531 
z
" transform="scale(0.015625)"/>
       </defs>
       <use xlink:href="#DejaVuSans-2212"/>
       <use xlink:href="#DejaVuSans-30" transform="translate(83.789062 0)"/>
       <use xlink:href="#DejaVuSans-2e" transform="translate(147.412109 0)"/>
       <use xlink:href="#DejaVuSans-32" transform="translate(179.199219 0)"/>
       <use xlink:href="#DejaVuSans-35" transform="translate(242.822266 0)"/>
      </g>
     </g>
    </g>
    <g id="ytick_5">
     <g id="line2d_19">
      <path d="M 173.948125 136.37 
L 402.051875 136.37 
" clip-path="url(#pd2089fa772)" style="fill: none; stroke-dasharray: 2.96,1.28; stroke-dashoffset: 0; stroke: #b0b0b0; stroke-opacity: 0.8; stroke-width: 0.8"/>
     </g>
     <g id="line2d_20">
      <g>
       <use xlink:href="#mc67d0e4b0c" x="173.948125" y="136.37" style="stroke: #000000; stroke-width: 0.8"/>
      </g>
     </g>
     <g id="text_11">
      <!-- 0.00 -->
      <g transform="translate(144.6825 140.169219) scale(0.1 -0.1)">
       <use xlink:href="#DejaVuSans-30"/>
       <use xlink:href="#DejaVuSans-2e" transform="translate(63.623047 0)"/>
       <use xlink:href="#DejaVuSans-30" transform="translate(95.410156 0)"/>
       <use xlink:href="#DejaVuSans-30" transform="translate(159.033203 0)"/>
      </g>
     </g>
    </g>
    <g id="ytick_6">
     <g id="line2d_21">
      <path d="M 173.948125 110.449119 
L 402.051875 110.449119 
" clip-path="url(#pd2089fa772)" style="fill: none; stroke-dasharray: 2.96,1.28; stroke-dashoffset: 0; stroke: #b0b0b0; stroke-opacity: 0.8; stroke-width: 0.8"/>
     </g>
     <g id="line2d_22">
      <g>
       <use xlink:href="#mc67d0e4b0c" x="173.948125" y="110.449119" style="stroke: #000000; stroke-width: 0.8"/>
      </g>
     </g>
     <g id="text_12">
      <!-- 0.25 -->
      <g transform="translate(144.6825 114.248338) scale(0.1 -0.1)">
       <use xlink:href="#DejaVuSans-30"/>
       <use xlink:href="#DejaVuSans-2e" transform="translate(63.623047 0)"/>
       <use xlink:href="#DejaVuSans-32" transform="translate(95.410156 0)"/>
       <use xlink:href="#DejaVuSans-35" transform="translate(159.033203 0)"/>
      </g>
     </g>
    </g>
    <g id="ytick_7">
     <g id="line2d_23">
      <path d="M 173.948125 84.528239 
L 402.051875 84.528239 
" clip-path="url(#pd2089fa772)" style="fill: none; stroke-dasharray: 2.96,1.28; stroke-dashoffset: 0; stroke: #b0b0b0; stroke-opacity: 0.8; stroke-width: 0.8"/>
     </g>
     <g id="line2d_24">
      <g>
       <use xlink:href="#mc67d0e4b0c" x="173.948125" y="84.528239" style="stroke: #000000; stroke-width: 0.8"/>
      </g>
     </g>
     <g id="text_13">
      <!-- 0.50 -->
      <g transform="translate(144.6825 88.327457) scale(0.1 -0.1)">
       <use xlink:href="#DejaVuSans-30"/>
       <use xlink:href="#DejaVuSans-2e" transform="translate(63.623047 0)"/>
       <use xlink:href="#DejaVuSans-35" transform="translate(95.410156 0)"/>
       <use xlink:href="#DejaVuSans-30" transform="translate(159.033203 0)"/>
      </g>
     </g>
    </g>
    <g id="ytick_8">
     <g id="line2d_25">
      <path d="M 173.948125 58.607358 
L 402.051875 58.607358 
" clip-path="url(#pd2089fa772)" style="fill: none; stroke-dasharray: 2.96,1.28; stroke-dashoffset: 0; stroke: #b0b0b0; stroke-opacity: 0.8; stroke-width: 0.8"/>
     </g>
     <g id="line2d_26">
      <g>
       <use xlink:href="#mc67d0e4b0c" x="173.948125" y="58.607358" style="stroke: #000000; stroke-width: 0.8"/>
      </g>
     </g>
     <g id="text_14">
      <!-- 0.75 -->
      <g transform="translate(144.6825 62.406577) scale(0.1 -0.1)">
       <use xlink:href="#DejaVuSans-30"/>
       <use xlink:href="#DejaVuSans-2e" transform="translate(63.623047 0)"/>
       <use xlink:href="#DejaVuSans-37" transform="translate(95.410156 0)"/>
       <use xlink:href="#DejaVuSans-35" transform="translate(159.033203 0)"/>
      </g>
     </g>
    </g>
    <g id="ytick_9">
     <g id="line2d_27">
      <path d="M 173.948125 32.686477 
L 402.051875 32.686477 
" clip-path="url(#pd2089fa772)" style="fill: none; stroke-dasharray: 2.96,1.28; stroke-dashoffset: 0; stroke: #b0b0b0; stroke-opacity: 0.8; stroke-width: 0.8"/>
     </g>
     <g id="line2d_28">
      <g>
       <use xlink:href="#mc67d0e4b0c" x="173.948125" y="32.686477" style="stroke: #000000; stroke-width: 0.8"/>
      </g>
     </g>
     <g id="text_15">
      <!-- 1.00 -->
      <g transform="translate(144.6825 36.485696) scale(0.1 -0.1)">
       <use xlink:href="#DejaVuSans-31"/>
       <use xlink:href="#DejaVuSans-2e" transform="translate(63.623047 0)"/>
       <use xlink:href="#DejaVuSans-30" transform="translate(95.410156 0)"/>
       <use xlink:href="#DejaVuSans-30" transform="translate(159.033203 0)"/>
      </g>
     </g>
    </g>
    <g id="text_16">
     <!-- Quadrature channel, $Q$ -->
     <g transform="translate(130.223125 193.62) rotate(-90) scale(0.1 -0.1)">
      <defs>
       <path id="DejaVuSans-51" d="M 2522 4238 
Q 1834 4238 1429 3725 
Q 1025 3213 1025 2328 
Q 1025 1447 1429 934 
Q 1834 422 2522 422 
Q 3209 422 3611 934 
Q 4013 1447 4013 2328 
Q 4013 3213 3611 3725 
Q 3209 4238 2522 4238 
z
M 3406 84 
L 4238 -825 
L 3475 -825 
L 2784 -78 
Q 2681 -84 2626 -87 
Q 2572 -91 2522 -91 
Q 1538 -91 948 567 
Q 359 1225 359 2328 
Q 359 3434 948 4092 
Q 1538 4750 2522 4750 
Q 3503 4750 4090 4092 
Q 4678 3434 4678 2328 
Q 4678 1516 4351 937 
Q 4025 359 3406 84 
z
" transform="scale(0.015625)"/>
       <path id="DejaVuSans-75" d="M 544 1381 
L 544 3500 
L 1119 3500 
L 1119 1403 
Q 1119 906 1312 657 
Q 1506 409 1894 409 
Q 2359 409 2629 706 
Q 2900 1003 2900 1516 
L 2900 3500 
L 3475 3500 
L 3475 0 
L 2900 0 
L 2900 538 
Q 2691 219 2414 64 
Q 2138 -91 1772 -91 
Q 1169 -91 856 284 
Q 544 659 544 1381 
z
M 1991 3584 
L 1991 3584 
z
" transform="scale(0.015625)"/>
       <path id="DejaVuSans-64" d="M 2906 2969 
L 2906 4863 
L 3481 4863 
L 3481 0 
L 2906 0 
L 2906 525 
Q 2725 213 2448 61 
Q 2172 -91 1784 -91 
Q 1150 -91 751 415 
Q 353 922 353 1747 
Q 353 2572 751 3078 
Q 1150 3584 1784 3584 
Q 2172 3584 2448 3432 
Q 2725 3281 2906 2969 
z
M 947 1747 
Q 947 1113 1208 752 
Q 1469 391 1925 391 
Q 2381 391 2643 752 
Q 2906 1113 2906 1747 
Q 2906 2381 2643 2742 
Q 2381 3103 1925 3103 
Q 1469 3103 1208 2742 
Q 947 2381 947 1747 
z
" transform="scale(0.015625)"/>
       <path id="DejaVuSans-72" d="M 2631 2963 
Q 2534 3019 2420 3045 
Q 2306 3072 2169 3072 
Q 1681 3072 1420 2755 
Q 1159 2438 1159 1844 
L 1159 0 
L 581 0 
L 581 3500 
L 1159 3500 
L 1159 2956 
Q 1341 3275 1631 3429 
Q 1922 3584 2338 3584 
Q 2397 3584 2469 3576 
Q 2541 3569 2628 3553 
L 2631 2963 
z
" transform="scale(0.015625)"/>
       <path id="DejaVuSans-74" d="M 1172 4494 
L 1172 3500 
L 2356 3500 
L 2356 3053 
L 1172 3053 
L 1172 1153 
Q 1172 725 1289 603 
Q 1406 481 1766 481 
L 2356 481 
L 2356 0 
L 1766 0 
Q 1100 0 847 248 
Q 594 497 594 1153 
L 594 3053 
L 172 3053 
L 172 3500 
L 594 3500 
L 594 4494 
L 1172 4494 
z
" transform="scale(0.015625)"/>
       <path id="DejaVuSans-Oblique-51" d="M 2309 -84 
Q 2275 -88 2237 -89 
Q 2200 -91 2125 -91 
Q 1250 -91 756 411 
Q 263 913 263 1797 
Q 263 2319 452 2844 
Q 641 3369 978 3788 
Q 1369 4269 1858 4509 
Q 2347 4750 2938 4750 
Q 3794 4750 4287 4245 
Q 4781 3741 4781 2869 
Q 4781 1928 4265 1147 
Q 3750 366 2919 44 
L 3553 -825 
L 2847 -825 
L 2309 -84 
z
M 2919 4238 
Q 2400 4238 2003 3986 
Q 1606 3734 1313 3219 
Q 1125 2891 1026 2522 
Q 928 2153 928 1778 
Q 928 1128 1239 775 
Q 1550 422 2119 422 
Q 2631 422 3032 676 
Q 3434 931 3719 1434 
Q 3909 1772 4009 2142 
Q 4109 2513 4109 2881 
Q 4109 3528 3796 3883 
Q 3484 4238 2919 4238 
z
" transform="scale(0.015625)"/>
      </defs>
      <use xlink:href="#DejaVuSans-51" transform="translate(0 0.015625)"/>
      <use xlink:href="#DejaVuSans-75" transform="translate(78.710938 0.015625)"/>
      <use xlink:href="#DejaVuSans-61" transform="translate(142.089844 0.015625)"/>
      <use xlink:href="#DejaVuSans-64" transform="translate(203.369141 0.015625)"/>
      <use xlink:href="#DejaVuSans-72" transform="translate(266.845703 0.015625)"/>
      <use xlink:href="#DejaVuSans-61" transform="translate(307.958984 0.015625)"/>
      <use xlink:href="#DejaVuSans-74" transform="translate(369.238281 0.015625)"/>
      <use xlink:href="#DejaVuSans-75" transform="translate(408.447266 0.015625)"/>
      <use xlink:href="#DejaVuSans-72" transform="translate(471.826172 0.015625)"/>
      <use xlink:href="#DejaVuSans-65" transform="translate(512.939453 0.015625)"/>
      <use xlink:href="#DejaVuSans-20" transform="translate(574.462891 0.015625)"/>
      <use xlink:href="#DejaVuSans-63" transform="translate(606.25 0.015625)"/>
      <use xlink:href="#DejaVuSans-68" transform="translate(661.230469 0.015625)"/>
      <use xlink:href="#DejaVuSans-61" transform="translate(724.609375 0.015625)"/>
      <use xlink:href="#DejaVuSans-6e" transform="translate(785.888672 0.015625)"/>
      <use xlink:href="#DejaVuSans-6e" transform="translate(849.267578 0.015625)"/>
      <use xlink:href="#DejaVuSans-65" transform="translate(912.646484 0.015625)"/>
      <use xlink:href="#DejaVuSans-6c" transform="translate(974.169922 0.015625)"/>
      <use xlink:href="#DejaVuSans-2c" transform="translate(1001.953125 0.015625)"/>
      <use xlink:href="#DejaVuSans-20" transform="translate(1033.740234 0.015625)"/>
      <use xlink:href="#DejaVuSans-Oblique-51" transform="translate(1065.527344 0.015625)"/>
     </g>
    </g>
   </g>
   <g id="line2d_29">
    <path d="M 391.683523 136.37 
L 390.731633 150.387293 
L 383.221061 177.397095 
L 359.215056 211.727075 
L 310.091557 237.672695 
L 241.660923 229.122158 
L 188.759822 166.397653 
L 205.801808 73.174034 
L 305.491388 34.172523 
L 389.993291 117.724851 
L 327.948434 232.048605 
L 195.777417 183.75426 
L 245.899484 41.618644 
L 389.046582 113.135087 
L 277.47291 239.517725 
L 200.432002 80.853168 
L 383.221061 95.342905 
L 254.625798 234.535348 
L 250.224054 39.813018 
L 371.605394 197.69219 
L 186.454129 115.42462 
L 391.2601 127.009198 
L 187.504322 161.882577 
L 387.893441 108.592791 
L 185.611388 152.705393 
L 391.2601 145.730802 
L 195.777417 88.98574 
L 344.502845 223.305041 
L 296.193318 33.010712 
L 208.741431 203.215734 
L 389.046582 159.604913 
L 259.095723 36.796833 
L 205.801808 199.565966 
L 368.749004 201.40746 
L 344.502845 49.434959 
L 203.030111 76.952908 
L 215.100103 210.098406 
L 336.423391 228.051231 
L 391.577613 131.684813 
L 340.516763 46.970545 
L 254.625798 38.204652 
L 198.01279 84.866845 
L 184.554723 143.394788 
L 198.01279 187.873155 
L 218.506162 213.31725 
L 233.476271 224.559772 
L 237.51703 226.933473 
L 229.5469 222.005904 
L 211.842975 206.72894 
L 191.876069 175.234672 
L 184.977822 124.677966 
L 211.842975 66.01106 
L 282.144639 32.851945 
L 365.727649 67.750138 
L 386.536223 168.632758 
L 296.193318 239.729288 
L 190.218064 170.851384 
L 241.660923 43.617842 
L 381.269888 91.082023 
L 319.147194 235.264515 
L 184.342958 138.713192 
L 327.948434 40.691395 
L 348.373496 220.663024 
L 184.554723 129.345212 
L 368.749004 71.33254 
L 259.095723 235.943167 
L 268.203472 34.593921 
L 340.516763 225.769455 
L 218.506162 59.42275 
L 362.547501 208.432078 
L 218.506162 59.42275 
L 340.516763 225.769455 
L 268.203472 34.593921 
L 259.095723 235.943167 
L 368.749004 71.33254 
L 184.554723 129.345212 
L 348.373496 220.663024 
L 327.948434 40.691395 
L 184.342958 138.713192 
L 319.147194 235.264515 
L 381.269888 91.082023 
L 241.660923 43.617842 
L 190.218064 170.851384 
L 296.193318 239.729288 
L 386.536223 168.632758 
L 365.727649 67.750138 
L 282.144639 32.851945 
L 211.842975 66.01106 
L 184.977822 124.677966 
L 191.876069 175.234672 
L 211.842975 206.72894 
L 229.5469 222.005904 
L 237.51703 226.933473 
L 233.476271 224.559772 
L 218.506162 213.31725 
L 198.01279 187.873155 
L 184.554723 143.394788 
L 198.01279 84.866845 
L 254.625798 38.204652 
L 340.516763 46.970545 
L 391.577613 131.684813 
L 336.423391 228.051231 
L 215.100103 210.098406 
L 203.030111 76.952908 
L 344.502845 49.434959 
L 368.749004 201.40746 
L 205.801808 199.565966 
L 259.095723 36.796833 
L 389.046582 159.604913 
L 208.741431 203.215734 
L 296.193318 33.010712 
L 344.502845 223.305041 
L 195.777417 88.98574 
L 391.2601 145.730802 
L 185.611388 152.705393 
L 387.893441 108.592791 
L 187.504322 161.882577 
L 391.2601 127.009198 
L 186.454129 115.42462 
L 371.605394 197.69219 
L 250.224054 39.813018 
L 254.625798 234.535348 
L 383.221061 95.342905 
L 200.432002 80.853168 
L 277.47291 239.517725 
L 389.046582 113.135087 
L 245.899484 41.618644 
L 195.777417 183.75426 
L 327.948434 232.048605 
L 389.993291 117.724851 
L 305.491388 34.172523 
L 205.801808 73.174034 
L 188.759822 166.397653 
L 241.660923 229.122158 
L 310.091557 237.672695 
L 359.215056 211.727075 
L 383.221061 177.397095 
L 390.731633 150.387293 
L 391.683523 136.37 
L 391.683523 136.37 
" clip-path="url(#pd2089fa772)" style="fill: none; stroke: #1f77b4; stroke-width: 0.5; stroke-linecap: square"/>
    <defs>
     <path id="m44f7af091c" d="M 0 1.5 
C 0.397805 1.5 0.77937 1.341951 1.06066 1.06066 
C 1.341951 0.77937 1.5 0.397805 1.5 0 
C 1.5 -0.397805 1.341951 -0.77937 1.06066 -1.06066 
C 0.77937 -1.341951 0.397805 -1.5 0 -1.5 
C -0.397805 -1.5 -0.77937 -1.341951 -1.06066 -1.06066 
C -1.341951 -0.77937 -1.5 -0.397805 -1.5 0 
C -1.5 0.397805 -1.341951 0.77937 -1.06066 1.06066 
C -0.77937 1.341951 -0.397805 1.5 0 1.5 
z
" style="stroke: #1f77b4"/>
    </defs>
    <g clip-path="url(#pd2089fa772)">
     <use xlink:href="#m44f7af091c" x="391.683523" y="136.37" style="fill: #1f77b4; stroke: #1f77b4"/>
     <use xlink:href="#m44f7af091c" x="390.731633" y="150.387293" style="fill: #1f77b4; stroke: #1f77b4"/>
     <use xlink:href="#m44f7af091c" x="383.221061" y="177.397095" style="fill: #1f77b4; stroke: #1f77b4"/>
     <use xlink:href="#m44f7af091c" x="359.215056" y="211.727075" style="fill: #1f77b4; stroke: #1f77b4"/>
     <use xlink:href="#m44f7af091c" x="310.091557" y="237.672695" style="fill: #1f77b4; stroke: #1f77b4"/>
     <use xlink:href="#m44f7af091c" x="241.660923" y="229.122158" style="fill: #1f77b4; stroke: #1f77b4"/>
     <use xlink:href="#m44f7af091c" x="188.759822" y="166.397653" style="fill: #1f77b4; stroke: #1f77b4"/>
     <use xlink:href="#m44f7af091c" x="205.801808" y="73.174034" style="fill: #1f77b4; stroke: #1f77b4"/>
     <use xlink:href="#m44f7af091c" x="305.491388" y="34.172523" style="fill: #1f77b4; stroke: #1f77b4"/>
     <use xlink:href="#m44f7af091c" x="389.993291" y="117.724851" style="fill: #1f77b4; stroke: #1f77b4"/>
     <use xlink:href="#m44f7af091c" x="327.948434" y="232.048605" style="fill: #1f77b4; stroke: #1f77b4"/>
     <use xlink:href="#m44f7af091c" x="195.777417" y="183.75426" style="fill: #1f77b4; stroke: #1f77b4"/>
     <use xlink:href="#m44f7af091c" x="245.899484" y="41.618644" style="fill: #1f77b4; stroke: #1f77b4"/>
     <use xlink:href="#m44f7af091c" x="389.046582" y="113.135087" style="fill: #1f77b4; stroke: #1f77b4"/>
     <use xlink:href="#m44f7af091c" x="277.47291" y="239.517725" style="fill: #1f77b4; stroke: #1f77b4"/>
     <use xlink:href="#m44f7af091c" x="200.432002" y="80.853168" style="fill: #1f77b4; stroke: #1f77b4"/>
     <use xlink:href="#m44f7af091c" x="383.221061" y="95.342905" style="fill: #1f77b4; stroke: #1f77b4"/>
     <use xlink:href="#m44f7af091c" x="254.625798" y="234.535348" style="fill: #1f77b4; stroke: #1f77b4"/>
     <use xlink:href="#m44f7af091c" x="250.224054" y="39.813018" style="fill: #1f77b4; stroke: #1f77b4"/>
     <use xlink:href="#m44f7af091c" x="371.605394" y="197.69219" style="fill: #1f77b4; stroke: #1f77b4"/>
     <use xlink:href="#m44f7af091c" x="186.454129" y="115.42462" style="fill: #1f77b4; stroke: #1f77b4"/>
     <use xlink:href="#m44f7af091c" x="391.2601" y="127.009198" style="fill: #1f77b4; stroke: #1f77b4"/>
     <use xlink:href="#m44f7af091c" x="187.504322" y="161.882577" style="fill: #1f77b4; stroke: #1f77b4"/>
     <use xlink:href="#m44f7af091c" x="387.893441" y="108.592791" style="fill: #1f77b4; stroke: #1f77b4"/>
     <use xlink:href="#m44f7af091c" x="185.611388" y="152.705393" style="fill: #1f77b4; stroke: #1f77b4"/>
     <use xlink:href="#m44f7af091c" x="391.2601" y="145.730802" style="fill: #1f77b4; stroke: #1f77b4"/>
     <use xlink:href="#m44f7af091c" x="195.777417" y="88.98574" style="fill: #1f77b4; stroke: #1f77b4"/>
     <use xlink:href="#m44f7af091c" x="344.502845" y="223.305041" style="fill: #1f77b4; stroke: #1f77b4"/>
     <use xlink:href="#m44f7af091c" x="296.193318" y="33.010712" style="fill: #1f77b4; stroke: #1f77b4"/>
     <use xlink:href="#m44f7af091c" x="208.741431" y="203.215734" style="fill: #1f77b4; stroke: #1f77b4"/>
     <use xlink:href="#m44f7af091c" x="389.046582" y="159.604913" style="fill: #1f77b4; stroke: #1f77b4"/>
     <use xlink:href="#m44f7af091c" x="259.095723" y="36.796833" style="fill: #1f77b4; stroke: #1f77b4"/>
     <use xlink:href="#m44f7af091c" x="205.801808" y="199.565966" style="fill: #1f77b4; stroke: #1f77b4"/>
     <use xlink:href="#m44f7af091c" x="368.749004" y="201.40746" style="fill: #1f77b4; stroke: #1f77b4"/>
     <use xlink:href="#m44f7af091c" x="344.502845" y="49.434959" style="fill: #1f77b4; stroke: #1f77b4"/>
     <use xlink:href="#m44f7af091c" x="203.030111" y="76.952908" style="fill: #1f77b4; stroke: #1f77b4"/>
     <use xlink:href="#m44f7af091c" x="215.100103" y="210.098406" style="fill: #1f77b4; stroke: #1f77b4"/>
     <use xlink:href="#m44f7af091c" x="336.423391" y="228.051231" style="fill: #1f77b4; stroke: #1f77b4"/>
     <use xlink:href="#m44f7af091c" x="391.577613" y="131.684813" style="fill: #1f77b4; stroke: #1f77b4"/>
     <use xlink:href="#m44f7af091c" x="340.516763" y="46.970545" style="fill: #1f77b4; stroke: #1f77b4"/>
     <use xlink:href="#m44f7af091c" x="254.625798" y="38.204652" style="fill: #1f77b4; stroke: #1f77b4"/>
     <use xlink:href="#m44f7af091c" x="198.01279" y="84.866845" style="fill: #1f77b4; stroke: #1f77b4"/>
     <use xlink:href="#m44f7af091c" x="184.554723" y="143.394788" style="fill: #1f77b4; stroke: #1f77b4"/>
     <use xlink:href="#m44f7af091c" x="198.01279" y="187.873155" style="fill: #1f77b4; stroke: #1f77b4"/>
     <use xlink:href="#m44f7af091c" x="218.506162" y="213.31725" style="fill: #1f77b4; stroke: #1f77b4"/>
     <use xlink:href="#m44f7af091c" x="233.476271" y="224.559772" style="fill: #1f77b4; stroke: #1f77b4"/>
     <use xlink:href="#m44f7af091c" x="237.51703" y="226.933473" style="fill: #1f77b4; stroke: #1f77b4"/>
     <use xlink:href="#m44f7af091c" x="229.5469" y="222.005904" style="fill: #1f77b4; stroke: #1f77b4"/>
     <use xlink:href="#m44f7af091c" x="211.842975" y="206.72894" style="fill: #1f77b4; stroke: #1f77b4"/>
     <use xlink:href="#m44f7af091c" x="191.876069" y="175.234672" style="fill: #1f77b4; stroke: #1f77b4"/>
     <use xlink:href="#m44f7af091c" x="184.977822" y="124.677966" style="fill: #1f77b4; stroke: #1f77b4"/>
     <use xlink:href="#m44f7af091c" x="211.842975" y="66.01106" style="fill: #1f77b4; stroke: #1f77b4"/>
     <use xlink:href="#m44f7af091c" x="282.144639" y="32.851945" style="fill: #1f77b4; stroke: #1f77b4"/>
     <use xlink:href="#m44f7af091c" x="365.727649" y="67.750138" style="fill: #1f77b4; stroke: #1f77b4"/>
     <use xlink:href="#m44f7af091c" x="386.536223" y="168.632758" style="fill: #1f77b4; stroke: #1f77b4"/>
     <use xlink:href="#m44f7af091c" x="296.193318" y="239.729288" style="fill: #1f77b4; stroke: #1f77b4"/>
     <use xlink:href="#m44f7af091c" x="190.218064" y="170.851384" style="fill: #1f77b4; stroke: #1f77b4"/>
     <use xlink:href="#m44f7af091c" x="241.660923" y="43.617842" style="fill: #1f77b4; stroke: #1f77b4"/>
     <use xlink:href="#m44f7af091c" x="381.269888" y="91.082023" style="fill: #1f77b4; stroke: #1f77b4"/>
     <use xlink:href="#m44f7af091c" x="319.147194" y="235.264515" style="fill: #1f77b4; stroke: #1f77b4"/>
     <use xlink:href="#m44f7af091c" x="184.342958" y="138.713192" style="fill: #1f77b4; stroke: #1f77b4"/>
     <use xlink:href="#m44f7af091c" x="327.948434" y="40.691395" style="fill: #1f77b4; stroke: #1f77b4"/>
     <use xlink:href="#m44f7af091c" x="348.373496" y="220.663024" style="fill: #1f77b4; stroke: #1f77b4"/>
     <use xlink:href="#m44f7af091c" x="184.554723" y="129.345212" style="fill: #1f77b4; stroke: #1f77b4"/>
     <use xlink:href="#m44f7af091c" x="368.749004" y="71.33254" style="fill: #1f77b4; stroke: #1f77b4"/>
     <use xlink:href="#m44f7af091c" x="259.095723" y="235.943167" style="fill: #1f77b4; stroke: #1f77b4"/>
     <use xlink:href="#m44f7af091c" x="268.203472" y="34.593921" style="fill: #1f77b4; stroke: #1f77b4"/>
     <use xlink:href="#m44f7af091c" x="340.516763" y="225.769455" style="fill: #1f77b4; stroke: #1f77b4"/>
     <use xlink:href="#m44f7af091c" x="218.506162" y="59.42275" style="fill: #1f77b4; stroke: #1f77b4"/>
     <use xlink:href="#m44f7af091c" x="362.547501" y="208.432078" style="fill: #1f77b4; stroke: #1f77b4"/>
     <use xlink:href="#m44f7af091c" x="218.506162" y="59.42275" style="fill: #1f77b4; stroke: #1f77b4"/>
     <use xlink:href="#m44f7af091c" x="340.516763" y="225.769455" style="fill: #1f77b4; stroke: #1f77b4"/>
     <use xlink:href="#m44f7af091c" x="268.203472" y="34.593921" style="fill: #1f77b4; stroke: #1f77b4"/>
     <use xlink:href="#m44f7af091c" x="259.095723" y="235.943167" style="fill: #1f77b4; stroke: #1f77b4"/>
     <use xlink:href="#m44f7af091c" x="368.749004" y="71.33254" style="fill: #1f77b4; stroke: #1f77b4"/>
     <use xlink:href="#m44f7af091c" x="184.554723" y="129.345212" style="fill: #1f77b4; stroke: #1f77b4"/>
     <use xlink:href="#m44f7af091c" x="348.373496" y="220.663024" style="fill: #1f77b4; stroke: #1f77b4"/>
     <use xlink:href="#m44f7af091c" x="327.948434" y="40.691395" style="fill: #1f77b4; stroke: #1f77b4"/>
     <use xlink:href="#m44f7af091c" x="184.342958" y="138.713192" style="fill: #1f77b4; stroke: #1f77b4"/>
     <use xlink:href="#m44f7af091c" x="319.147194" y="235.264515" style="fill: #1f77b4; stroke: #1f77b4"/>
     <use xlink:href="#m44f7af091c" x="381.269888" y="91.082023" style="fill: #1f77b4; stroke: #1f77b4"/>
     <use xlink:href="#m44f7af091c" x="241.660923" y="43.617842" style="fill: #1f77b4; stroke: #1f77b4"/>
     <use xlink:href="#m44f7af091c" x="190.218064" y="170.851384" style="fill: #1f77b4; stroke: #1f77b4"/>
     <use xlink:href="#m44f7af091c" x="296.193318" y="239.729288" style="fill: #1f77b4; stroke: #1f77b4"/>
     <use xlink:href="#m44f7af091c" x="386.536223" y="168.632758" style="fill: #1f77b4; stroke: #1f77b4"/>
     <use xlink:href="#m44f7af091c" x="365.727649" y="67.750138" style="fill: #1f77b4; stroke: #1f77b4"/>
     <use xlink:href="#m44f7af091c" x="282.144639" y="32.851945" style="fill: #1f77b4; stroke: #1f77b4"/>
     <use xlink:href="#m44f7af091c" x="211.842975" y="66.01106" style="fill: #1f77b4; stroke: #1f77b4"/>
     <use xlink:href="#m44f7af091c" x="184.977822" y="124.677966" style="fill: #1f77b4; stroke: #1f77b4"/>
     <use xlink:href="#m44f7af091c" x="191.876069" y="175.234672" style="fill: #1f77b4; stroke: #1f77b4"/>
     <use xlink:href="#m44f7af091c" x="211.842975" y="206.72894" style="fill: #1f77b4; stroke: #1f77b4"/>
     <use xlink:href="#m44f7af091c" x="229.5469" y="222.005904" style="fill: #1f77b4; stroke: #1f77b4"/>
     <use xlink:href="#m44f7af091c" x="237.51703" y="226.933473" style="fill: #1f77b4; stroke: #1f77b4"/>
     <use xlink:href="#m44f7af091c" x="233.476271" y="224.559772" style="fill: #1f77b4; stroke: #1f77b4"/>
     <use xlink:href="#m44f7af091c" x="218.506162" y="213.31725" style="fill: #1f77b4; stroke: #1f77b4"/>
     <use xlink:href="#m44f7af091c" x="198.01279" y="187.873155" style="fill: #1f77b4; stroke: #1f77b4"/>
     <use xlink:href="#m44f7af091c" x="184.554723" y="143.394788" style="fill: #1f77b4; stroke: #1f77b4"/>
     <use xlink:href="#m44f7af091c" x="198.01279" y="84.866845" style="fill: #1f77b4; stroke: #1f77b4"/>
     <use xlink:href="#m44f7af091c" x="254.625798" y="38.204652" style="fill: #1f77b4; stroke: #1f77b4"/>
     <use xlink:href="#m44f7af091c" x="340.516763" y="46.970545" style="fill: #1f77b4; stroke: #1f77b4"/>
     <use xlink:href="#m44f7af091c" x="391.577613" y="131.684813" style="fill: #1f77b4; stroke: #1f77b4"/>
     <use xlink:href="#m44f7af091c" x="336.423391" y="228.051231" style="fill: #1f77b4; stroke: #1f77b4"/>
     <use xlink:href="#m44f7af091c" x="215.100103" y="210.098406" style="fill: #1f77b4; stroke: #1f77b4"/>
     <use xlink:href="#m44f7af091c" x="203.030111" y="76.952908" style="fill: #1f77b4; stroke: #1f77b4"/>
     <use xlink:href="#m44f7af091c" x="344.502845" y="49.434959" style="fill: #1f77b4; stroke: #1f77b4"/>
     <use xlink:href="#m44f7af091c" x="368.749004" y="201.40746" style="fill: #1f77b4; stroke: #1f77b4"/>
     <use xlink:href="#m44f7af091c" x="205.801808" y="199.565966" style="fill: #1f77b4; stroke: #1f77b4"/>
     <use xlink:href="#m44f7af091c" x="259.095723" y="36.796833" style="fill: #1f77b4; stroke: #1f77b4"/>
     <use xlink:href="#m44f7af091c" x="389.046582" y="159.604913" style="fill: #1f77b4; stroke: #1f77b4"/>
     <use xlink:href="#m44f7af091c" x="208.741431" y="203.215734" style="fill: #1f77b4; stroke: #1f77b4"/>
     <use xlink:href="#m44f7af091c" x="296.193318" y="33.010712" style="fill: #1f77b4; stroke: #1f77b4"/>
     <use xlink:href="#m44f7af091c" x="344.502845" y="223.305041" style="fill: #1f77b4; stroke: #1f77b4"/>
     <use xlink:href="#m44f7af091c" x="195.777417" y="88.98574" style="fill: #1f77b4; stroke: #1f77b4"/>
     <use xlink:href="#m44f7af091c" x="391.2601" y="145.730802" style="fill: #1f77b4; stroke: #1f77b4"/>
     <use xlink:href="#m44f7af091c" x="185.611388" y="152.705393" style="fill: #1f77b4; stroke: #1f77b4"/>
     <use xlink:href="#m44f7af091c" x="387.893441" y="108.592791" style="fill: #1f77b4; stroke: #1f77b4"/>
     <use xlink:href="#m44f7af091c" x="187.504322" y="161.882577" style="fill: #1f77b4; stroke: #1f77b4"/>
     <use xlink:href="#m44f7af091c" x="391.2601" y="127.009198" style="fill: #1f77b4; stroke: #1f77b4"/>
     <use xlink:href="#m44f7af091c" x="186.454129" y="115.42462" style="fill: #1f77b4; stroke: #1f77b4"/>
     <use xlink:href="#m44f7af091c" x="371.605394" y="197.69219" style="fill: #1f77b4; stroke: #1f77b4"/>
     <use xlink:href="#m44f7af091c" x="250.224054" y="39.813018" style="fill: #1f77b4; stroke: #1f77b4"/>
     <use xlink:href="#m44f7af091c" x="254.625798" y="234.535348" style="fill: #1f77b4; stroke: #1f77b4"/>
     <use xlink:href="#m44f7af091c" x="383.221061" y="95.342905" style="fill: #1f77b4; stroke: #1f77b4"/>
     <use xlink:href="#m44f7af091c" x="200.432002" y="80.853168" style="fill: #1f77b4; stroke: #1f77b4"/>
     <use xlink:href="#m44f7af091c" x="277.47291" y="239.517725" style="fill: #1f77b4; stroke: #1f77b4"/>
     <use xlink:href="#m44f7af091c" x="389.046582" y="113.135087" style="fill: #1f77b4; stroke: #1f77b4"/>
     <use xlink:href="#m44f7af091c" x="245.899484" y="41.618644" style="fill: #1f77b4; stroke: #1f77b4"/>
     <use xlink:href="#m44f7af091c" x="195.777417" y="183.75426" style="fill: #1f77b4; stroke: #1f77b4"/>
     <use xlink:href="#m44f7af091c" x="327.948434" y="232.048605" style="fill: #1f77b4; stroke: #1f77b4"/>
     <use xlink:href="#m44f7af091c" x="389.993291" y="117.724851" style="fill: #1f77b4; stroke: #1f77b4"/>
     <use xlink:href="#m44f7af091c" x="305.491388" y="34.172523" style="fill: #1f77b4; stroke: #1f77b4"/>
     <use xlink:href="#m44f7af091c" x="205.801808" y="73.174034" style="fill: #1f77b4; stroke: #1f77b4"/>
     <use xlink:href="#m44f7af091c" x="188.759822" y="166.397653" style="fill: #1f77b4; stroke: #1f77b4"/>
     <use xlink:href="#m44f7af091c" x="241.660923" y="229.122158" style="fill: #1f77b4; stroke: #1f77b4"/>
     <use xlink:href="#m44f7af091c" x="310.091557" y="237.672695" style="fill: #1f77b4; stroke: #1f77b4"/>
     <use xlink:href="#m44f7af091c" x="359.215056" y="211.727075" style="fill: #1f77b4; stroke: #1f77b4"/>
     <use xlink:href="#m44f7af091c" x="383.221061" y="177.397095" style="fill: #1f77b4; stroke: #1f77b4"/>
     <use xlink:href="#m44f7af091c" x="390.731633" y="150.387293" style="fill: #1f77b4; stroke: #1f77b4"/>
     <use xlink:href="#m44f7af091c" x="391.683523" y="136.37" style="fill: #1f77b4; stroke: #1f77b4"/>
    </g>
   </g>
   <g id="patch_3">
    <path d="M 173.948125 250.421875 
L 173.948125 22.318125 
" style="fill: none; stroke: #000000; stroke-width: 0.8; stroke-linejoin: miter; stroke-linecap: square"/>
   </g>
   <g id="patch_4">
    <path d="M 402.051875 250.421875 
L 402.051875 22.318125 
" style="fill: none; stroke: #000000; stroke-width: 0.8; stroke-linejoin: miter; stroke-linecap: square"/>
   </g>
   <g id="patch_5">
    <path d="M 173.948125 250.421875 
L 402.051875 250.421875 
" style="fill: none; stroke: #000000; stroke-width: 0.8; stroke-linejoin: miter; stroke-linecap: square"/>
   </g>
   <g id="patch_6">
    <path d="M 173.948125 22.318125 
L 402.051875 22.318125 
" style="fill: none; stroke: #000000; stroke-width: 0.8; stroke-linejoin: miter; stroke-linecap: square"/>
   </g>
   <g id="text_17">
    <!-- Root-3 Zadoff-Chu sequence of length 139 -->
    <g transform="translate(160.493437 16.318125) scale(0.12 -0.12)">
     <defs>
      <path id="DejaVuSans-52" d="M 2841 2188 
Q 3044 2119 3236 1894 
Q 3428 1669 3622 1275 
L 4263 0 
L 3584 0 
L 2988 1197 
Q 2756 1666 2539 1819 
Q 2322 1972 1947 1972 
L 1259 1972 
L 1259 0 
L 628 0 
L 628 4666 
L 2053 4666 
Q 2853 4666 3247 4331 
Q 3641 3997 3641 3322 
Q 3641 2881 3436 2590 
Q 3231 2300 2841 2188 
z
M 1259 4147 
L 1259 2491 
L 2053 2491 
Q 2509 2491 2742 2702 
Q 2975 2913 2975 3322 
Q 2975 3731 2742 3939 
Q 2509 4147 2053 4147 
L 1259 4147 
z
" transform="scale(0.015625)"/>
      <path id="DejaVuSans-6f" d="M 1959 3097 
Q 1497 3097 1228 2736 
Q 959 2375 959 1747 
Q 959 1119 1226 758 
Q 1494 397 1959 397 
Q 2419 397 2687 759 
Q 2956 1122 2956 1747 
Q 2956 2369 2687 2733 
Q 2419 3097 1959 3097 
z
M 1959 3584 
Q 2709 3584 3137 3096 
Q 3566 2609 3566 1747 
Q 3566 888 3137 398 
Q 2709 -91 1959 -91 
Q 1206 -91 779 398 
Q 353 888 353 1747 
Q 353 2609 779 3096 
Q 1206 3584 1959 3584 
z
" transform="scale(0.015625)"/>
      <path id="DejaVuSans-33" d="M 2597 2516 
Q 3050 2419 3304 2112 
Q 3559 1806 3559 1356 
Q 3559 666 3084 287 
Q 2609 -91 1734 -91 
Q 1441 -91 1130 -33 
Q 819 25 488 141 
L 488 750 
Q 750 597 1062 519 
Q 1375 441 1716 441 
Q 2309 441 2620 675 
Q 2931 909 2931 1356 
Q 2931 1769 2642 2001 
Q 2353 2234 1838 2234 
L 1294 2234 
L 1294 2753 
L 1863 2753 
Q 2328 2753 2575 2939 
Q 2822 3125 2822 3475 
Q 2822 3834 2567 4026 
Q 2313 4219 1838 4219 
Q 1578 4219 1281 4162 
Q 984 4106 628 3988 
L 628 4550 
Q 988 4650 1302 4700 
Q 1616 4750 1894 4750 
Q 2613 4750 3031 4423 
Q 3450 4097 3450 3541 
Q 3450 3153 3228 2886 
Q 3006 2619 2597 2516 
z
" transform="scale(0.015625)"/>
      <path id="DejaVuSans-5a" d="M 359 4666 
L 4025 4666 
L 4025 4184 
L 1075 531 
L 4097 531 
L 4097 0 
L 288 0 
L 288 481 
L 3238 4134 
L 359 4134 
L 359 4666 
z
" transform="scale(0.015625)"/>
      <path id="DejaVuSans-66" d="M 2375 4863 
L 2375 4384 
L 1825 4384 
Q 1516 4384 1395 4259 
Q 1275 4134 1275 3809 
L 1275 3500 
L 2222 3500 
L 2222 3053 
L 1275 3053 
L 1275 0 
L 697 0 
L 697 3053 
L 147 3053 
L 147 3500 
L 697 3500 
L 697 3744 
Q 697 4328 969 4595 
Q 1241 4863 1831 4863 
L 2375 4863 
z
" transform="scale(0.015625)"/>
      <path id="DejaVuSans-43" d="M 4122 4306 
L 4122 3641 
Q 3803 3938 3442 4084 
Q 3081 4231 2675 4231 
Q 1875 4231 1450 3742 
Q 1025 3253 1025 2328 
Q 1025 1406 1450 917 
Q 1875 428 2675 428 
Q 3081 428 3442 575 
Q 3803 722 4122 1019 
L 4122 359 
Q 3791 134 3420 21 
Q 3050 -91 2638 -91 
Q 1578 -91 968 557 
Q 359 1206 359 2328 
Q 359 3453 968 4101 
Q 1578 4750 2638 4750 
Q 3056 4750 3426 4639 
Q 3797 4528 4122 4306 
z
" transform="scale(0.015625)"/>
      <path id="DejaVuSans-71" d="M 947 1747 
Q 947 1113 1208 752 
Q 1469 391 1925 391 
Q 2381 391 2643 752 
Q 2906 1113 2906 1747 
Q 2906 2381 2643 2742 
Q 2381 3103 1925 3103 
Q 1469 3103 1208 2742 
Q 947 2381 947 1747 
z
M 2906 525 
Q 2725 213 2448 61 
Q 2172 -91 1784 -91 
Q 1150 -91 751 415 
Q 353 922 353 1747 
Q 353 2572 751 3078 
Q 1150 3584 1784 3584 
Q 2172 3584 2448 3432 
Q 2725 3281 2906 2969 
L 2906 3500 
L 3481 3500 
L 3481 -1331 
L 2906 -1331 
L 2906 525 
z
" transform="scale(0.015625)"/>
      <path id="DejaVuSans-67" d="M 2906 1791 
Q 2906 2416 2648 2759 
Q 2391 3103 1925 3103 
Q 1463 3103 1205 2759 
Q 947 2416 947 1791 
Q 947 1169 1205 825 
Q 1463 481 1925 481 
Q 2391 481 2648 825 
Q 2906 1169 2906 1791 
z
M 3481 434 
Q 3481 -459 3084 -895 
Q 2688 -1331 1869 -1331 
Q 1566 -1331 1297 -1286 
Q 1028 -1241 775 -1147 
L 775 -588 
Q 1028 -725 1275 -790 
Q 1522 -856 1778 -856 
Q 2344 -856 2625 -561 
Q 2906 -266 2906 331 
L 2906 616 
Q 2728 306 2450 153 
Q 2172 0 1784 0 
Q 1141 0 747 490 
Q 353 981 353 1791 
Q 353 2603 747 3093 
Q 1141 3584 1784 3584 
Q 2172 3584 2450 3431 
Q 2728 3278 2906 2969 
L 2906 3500 
L 3481 3500 
L 3481 434 
z
" transform="scale(0.015625)"/>
      <path id="DejaVuSans-39" d="M 703 97 
L 703 672 
Q 941 559 1184 500 
Q 1428 441 1663 441 
Q 2288 441 2617 861 
Q 2947 1281 2994 2138 
Q 2813 1869 2534 1725 
Q 2256 1581 1919 1581 
Q 1219 1581 811 2004 
Q 403 2428 403 3163 
Q 403 3881 828 4315 
Q 1253 4750 1959 4750 
Q 2769 4750 3195 4129 
Q 3622 3509 3622 2328 
Q 3622 1225 3098 567 
Q 2575 -91 1691 -91 
Q 1453 -91 1209 -44 
Q 966 3 703 97 
z
M 1959 2075 
Q 2384 2075 2632 2365 
Q 2881 2656 2881 3163 
Q 2881 3666 2632 3958 
Q 2384 4250 1959 4250 
Q 1534 4250 1286 3958 
Q 1038 3666 1038 3163 
Q 1038 2656 1286 2365 
Q 1534 2075 1959 2075 
z
" transform="scale(0.015625)"/>
     </defs>
     <use xlink:href="#DejaVuSans-52"/>
     <use xlink:href="#DejaVuSans-6f" transform="translate(64.982422 0)"/>
     <use xlink:href="#DejaVuSans-6f" transform="translate(126.164062 0)"/>
     <use xlink:href="#DejaVuSans-74" transform="translate(187.345703 0)"/>
     <use xlink:href="#DejaVuSans-2d" transform="translate(226.554688 0)"/>
     <use xlink:href="#DejaVuSans-33" transform="translate(262.638672 0)"/>
     <use xlink:href="#DejaVuSans-20" transform="translate(326.261719 0)"/>
     <use xlink:href="#DejaVuSans-5a" transform="translate(358.048828 0)"/>
     <use xlink:href="#DejaVuSans-61" transform="translate(426.554688 0)"/>
     <use xlink:href="#DejaVuSans-64" transform="translate(487.833984 0)"/>
     <use xlink:href="#DejaVuSans-6f" transform="translate(551.310547 0)"/>
     <use xlink:href="#DejaVuSans-66" transform="translate(612.492188 0)"/>
     <use xlink:href="#DejaVuSans-66" transform="translate(647.697266 0)"/>
     <use xlink:href="#DejaVuSans-2d" transform="translate(677.402344 0)"/>
     <use xlink:href="#DejaVuSans-43" transform="translate(713.486328 0)"/>
     <use xlink:href="#DejaVuSans-68" transform="translate(783.310547 0)"/>
     <use xlink:href="#DejaVuSans-75" transform="translate(846.689453 0)"/>
     <use xlink:href="#DejaVuSans-20" transform="translate(910.068359 0)"/>
     <use xlink:href="#DejaVuSans-73" transform="translate(941.855469 0)"/>
     <use xlink:href="#DejaVuSans-65" transform="translate(993.955078 0)"/>
     <use xlink:href="#DejaVuSans-71" transform="translate(1055.478516 0)"/>
     <use xlink:href="#DejaVuSans-75" transform="translate(1118.955078 0)"/>
     <use xlink:href="#DejaVuSans-65" transform="translate(1182.333984 0)"/>
     <use xlink:href="#DejaVuSans-6e" transform="translate(1243.857422 0)"/>
     <use xlink:href="#DejaVuSans-63" transform="translate(1307.236328 0)"/>
     <use xlink:href="#DejaVuSans-65" transform="translate(1362.216797 0)"/>
     <use xlink:href="#DejaVuSans-20" transform="translate(1423.740234 0)"/>
     <use xlink:href="#DejaVuSans-6f" transform="translate(1455.527344 0)"/>
     <use xlink:href="#DejaVuSans-66" transform="translate(1516.708984 0)"/>
     <use xlink:href="#DejaVuSans-20" transform="translate(1551.914062 0)"/>
     <use xlink:href="#DejaVuSans-6c" transform="translate(1583.701172 0)"/>
     <use xlink:href="#DejaVuSans-65" transform="translate(1611.484375 0)"/>
     <use xlink:href="#DejaVuSans-6e" transform="translate(1673.007812 0)"/>
     <use xlink:href="#DejaVuSans-67" transform="translate(1736.386719 0)"/>
     <use xlink:href="#DejaVuSans-74" transform="translate(1799.863281 0)"/>
     <use xlink:href="#DejaVuSans-68" transform="translate(1839.072266 0)"/>
     <use xlink:href="#DejaVuSans-20" transform="translate(1902.451172 0)"/>
     <use xlink:href="#DejaVuSans-31" transform="translate(1934.238281 0)"/>
     <use xlink:href="#DejaVuSans-33" transform="translate(1997.861328 0)"/>
     <use xlink:href="#DejaVuSans-39" transform="translate(2061.484375 0)"/>
    </g>
   </g>
  </g>
 </g>
 <defs>
  <clipPath id="pd2089fa772">
   <rect x="173.948125" y="22.318125" width="228.10375" height="228.10375"/>
  </clipPath>
 </defs>
</svg>
