<?xml version="1.0" encoding="utf-8" standalone="no"?>
<!DOCTYPE svg PUBLIC "-//W3C//DTD SVG 1.1//EN"
  "http://www.w3.org/Graphics/SVG/1.1/DTD/svg11.dtd">
<svg xmlns:xlink="http://www.w3.org/1999/xlink" width="576pt" height="288pt" viewBox="0 0 576 288" xmlns="http://www.w3.org/2000/svg" version="1.1">
 <metadata>
  <rdf:RDF xmlns:dc="http://purl.org/dc/elements/1.1/" xmlns:cc="http://creativecommons.org/ns#" xmlns:rdf="http://www.w3.org/1999/02/22-rdf-syntax-ns#">
   <cc:Work>
    <dc:type rdf:resource="http://purl.org/dc/dcmitype/StillImage"/>
    <dc:date>2025-05-12T21:34:25.180344</dc:date>
    <dc:format>image/svg+xml</dc:format>
    <dc:creator>
     <cc:Agent>
      <dc:title>Matplotlib v3.10.3, https://matplotlib.org/</dc:title>
     </cc:Agent>
    </dc:creator>
   </cc:Work>
  </rdf:RDF>
 </metadata>
 <defs>
  <style type="text/css">*{stroke-linejoin: round; stroke-linecap: butt}</style>
 </defs>
 <g id="figure_1">
  <g id="patch_1">
   <path d="M 0 288 
L 576 288 
L 576 0 
L 0 0 
z
" style="fill: #ffffff"/>
  </g>
  <g id="axes_1">
   <g id="patch_2">
    <path d="M 52.160938 250.421875 
L 568.8 250.421875 
L 568.8 7.2 
L 52.160938 7.2 
z
" style="fill: #ffffff"/>
   </g>
   <g id="matplotlib.axis_1">
    <g id="xtick_1">
     <g id="line2d_1">
      <path d="M 75.644531 250.421875 
L 75.644531 7.2 
" clip-path="url(#pf89ac31745)" style="fill: none; stroke-dasharray: 2.96,1.28; stroke-dashoffset: 0; stroke: #b0b0b0; stroke-opacity: 0.8; stroke-width: 0.8"/>
     </g>
     <g id="line2d_2">
      <defs>
       <path id="me4e1d93494" d="M 0 0 
L 0 3.5 
" style="stroke: #000000; stroke-width: 0.8"/>
      </defs>
      <g>
       <use xlink:href="#me4e1d93494" x="75.644531" y="250.421875" style="stroke: #000000; stroke-width: 0.8"/>
      </g>
     </g>
     <g id="text_1">
      <!-- 0 -->
      <g transform="translate(72.463281 265.020312) scale(0.1 -0.1)">
       <defs>
        <path id="DejaVuSans-30" d="M 2034 4250 
Q 1547 4250 1301 3770 
Q 1056 3291 1056 2328 
Q 1056 1369 1301 889 
Q 1547 409 2034 409 
Q 2525 409 2770 889 
Q 3016 1369 3016 2328 
Q 3016 3291 2770 3770 
Q 2525 4250 2034 4250 
z
M 2034 4750 
Q 2819 4750 3233 4129 
Q 3647 3509 3647 2328 
Q 3647 1150 3233 529 
Q 2819 -91 2034 -91 
Q 1250 -91 836 529 
Q 422 1150 422 2328 
Q 422 3509 836 4129 
Q 1250 4750 2034 4750 
z
" transform="scale(0.015625)"/>
       </defs>
       <use xlink:href="#DejaVuSans-30"/>
      </g>
     </g>
    </g>
    <g id="xtick_2">
     <g id="line2d_3">
      <path d="M 134.500656 250.421875 
L 134.500656 7.2 
" clip-path="url(#pf89ac31745)" style="fill: none; stroke-dasharray: 2.96,1.28; stroke-dashoffset: 0; stroke: #b0b0b0; stroke-opacity: 0.8; stroke-width: 0.8"/>
     </g>
     <g id="line2d_4">
      <g>
       <use xlink:href="#me4e1d93494" x="134.500656" y="250.421875" style="stroke: #000000; stroke-width: 0.8"/>
      </g>
     </g>
     <g id="text_2">
      <!-- 50 -->
      <g transform="translate(128.138156 265.020312) scale(0.1 -0.1)">
       <defs>
        <path id="DejaVuSans-35" d="M 691 4666 
L 3169 4666 
L 3169 4134 
L 1269 4134 
L 1269 2991 
Q 1406 3038 1543 3061 
Q 1681 3084 1819 3084 
Q 2600 3084 3056 2656 
Q 3513 2228 3513 1497 
Q 3513 744 3044 326 
Q 2575 -91 1722 -91 
Q 1428 -91 1123 -41 
Q 819 9 494 109 
L 494 744 
Q 775 591 1075 516 
Q 1375 441 1709 441 
Q 2250 441 2565 725 
Q 2881 1009 2881 1497 
Q 2881 1984 2565 2268 
Q 2250 2553 1709 2553 
Q 1456 2553 1204 2497 
Q 953 2441 691 2322 
L 691 4666 
z
" transform="scale(0.015625)"/>
       </defs>
       <use xlink:href="#DejaVuSans-35"/>
       <use xlink:href="#DejaVuSans-30" transform="translate(63.623047 0)"/>
      </g>
     </g>
    </g>
    <g id="xtick_3">
     <g id="line2d_5">
      <path d="M 193.356781 250.421875 
L 193.356781 7.2 
" clip-path="url(#pf89ac31745)" style="fill: none; stroke-dasharray: 2.96,1.28; stroke-dashoffset: 0; stroke: #b0b0b0; stroke-opacity: 0.8; stroke-width: 0.8"/>
     </g>
     <g id="line2d_6">
      <g>
       <use xlink:href="#me4e1d93494" x="193.356781" y="250.421875" style="stroke: #000000; stroke-width: 0.8"/>
      </g>
     </g>
     <g id="text_3">
      <!-- 100 -->
      <g transform="translate(183.813031 265.020312) scale(0.1 -0.1)">
       <defs>
        <path id="DejaVuSans-31" d="M 794 531 
L 1825 531 
L 1825 4091 
L 703 3866 
L 703 4441 
L 1819 4666 
L 2450 4666 
L 2450 531 
L 3481 531 
L 3481 0 
L 794 0 
L 794 531 
z
" transform="scale(0.015625)"/>
       </defs>
       <use xlink:href="#DejaVuSans-31"/>
       <use xlink:href="#DejaVuSans-30" transform="translate(63.623047 0)"/>
       <use xlink:href="#DejaVuSans-30" transform="translate(127.246094 0)"/>
      </g>
     </g>
    </g>
    <g id="xtick_4">
     <g id="line2d_7">
      <path d="M 252.212905 250.421875 
L 252.212905 7.2 
" clip-path="url(#pf89ac31745)" style="fill: none; stroke-dasharray: 2.96,1.28; stroke-dashoffset: 0; stroke: #b0b0b0; stroke-opacity: 0.8; stroke-width: 0.8"/>
     </g>
     <g id="line2d_8">
      <g>
       <use xlink:href="#me4e1d93494" x="252.212905" y="250.421875" style="stroke: #000000; stroke-width: 0.8"/>
      </g>
     </g>
     <g id="text_4">
      <!-- 150 -->
      <g transform="translate(242.669155 265.020312) scale(0.1 -0.1)">
       <use xlink:href="#DejaVuSans-31"/>
       <use xlink:href="#DejaVuSans-35" transform="translate(63.623047 0)"/>
       <use xlink:href="#DejaVuSans-30" transform="translate(127.246094 0)"/>
      </g>
     </g>
    </g>
    <g id="xtick_5">
     <g id="line2d_9">
      <path d="M 311.06903 250.421875 
L 311.06903 7.2 
" clip-path="url(#pf89ac31745)" style="fill: none; stroke-dasharray: 2.96,1.28; stroke-dashoffset: 0; stroke: #b0b0b0; stroke-opacity: 0.8; stroke-width: 0.8"/>
     </g>
     <g id="line2d_10">
      <g>
       <use xlink:href="#me4e1d93494" x="311.06903" y="250.421875" style="stroke: #000000; stroke-width: 0.8"/>
      </g>
     </g>
     <g id="text_5">
      <!-- 200 -->
      <g transform="translate(301.52528 265.020312) scale(0.1 -0.1)">
       <defs>
        <path id="DejaVuSans-32" d="M 1228 531 
L 3431 531 
L 3431 0 
L 469 0 
L 469 531 
Q 828 903 1448 1529 
Q 2069 2156 2228 2338 
Q 2531 2678 2651 2914 
Q 2772 3150 2772 3378 
Q 2772 3750 2511 3984 
Q 2250 4219 1831 4219 
Q 1534 4219 1204 4116 
Q 875 4013 500 3803 
L 500 4441 
Q 881 4594 1212 4672 
Q 1544 4750 1819 4750 
Q 2544 4750 2975 4387 
Q 3406 4025 3406 3419 
Q 3406 3131 3298 2873 
Q 3191 2616 2906 2266 
Q 2828 2175 2409 1742 
Q 1991 1309 1228 531 
z
" transform="scale(0.015625)"/>
       </defs>
       <use xlink:href="#DejaVuSans-32"/>
       <use xlink:href="#DejaVuSans-30" transform="translate(63.623047 0)"/>
       <use xlink:href="#DejaVuSans-30" transform="translate(127.246094 0)"/>
      </g>
     </g>
    </g>
    <g id="xtick_6">
     <g id="line2d_11">
      <path d="M 369.925155 250.421875 
L 369.925155 7.2 
" clip-path="url(#pf89ac31745)" style="fill: none; stroke-dasharray: 2.96,1.28; stroke-dashoffset: 0; stroke: #b0b0b0; stroke-opacity: 0.8; stroke-width: 0.8"/>
     </g>
     <g id="line2d_12">
      <g>
       <use xlink:href="#me4e1d93494" x="369.925155" y="250.421875" style="stroke: #000000; stroke-width: 0.8"/>
      </g>
     </g>
     <g id="text_6">
      <!-- 250 -->
      <g transform="translate(360.381405 265.020312) scale(0.1 -0.1)">
       <use xlink:href="#DejaVuSans-32"/>
       <use xlink:href="#DejaVuSans-35" transform="translate(63.623047 0)"/>
       <use xlink:href="#DejaVuSans-30" transform="translate(127.246094 0)"/>
      </g>
     </g>
    </g>
    <g id="xtick_7">
     <g id="line2d_13">
      <path d="M 428.781279 250.421875 
L 428.781279 7.2 
" clip-path="url(#pf89ac31745)" style="fill: none; stroke-dasharray: 2.96,1.28; stroke-dashoffset: 0; stroke: #b0b0b0; stroke-opacity: 0.8; stroke-width: 0.8"/>
     </g>
     <g id="line2d_14">
      <g>
       <use xlink:href="#me4e1d93494" x="428.781279" y="250.421875" style="stroke: #000000; stroke-width: 0.8"/>
      </g>
     </g>
     <g id="text_7">
      <!-- 300 -->
      <g transform="translate(419.237529 265.020312) scale(0.1 -0.1)">
       <defs>
        <path id="DejaVuSans-33" d="M 2597 2516 
Q 3050 2419 3304 2112 
Q 3559 1806 3559 1356 
Q 3559 666 3084 287 
Q 2609 -91 1734 -91 
Q 1441 -91 1130 -33 
Q 819 25 488 141 
L 488 750 
Q 750 597 1062 519 
Q 1375 441 1716 441 
Q 2309 441 2620 675 
Q 2931 909 2931 1356 
Q 2931 1769 2642 2001 
Q 2353 2234 1838 2234 
L 1294 2234 
L 1294 2753 
L 1863 2753 
Q 2328 2753 2575 2939 
Q 2822 3125 2822 3475 
Q 2822 3834 2567 4026 
Q 2313 4219 1838 4219 
Q 1578 4219 1281 4162 
Q 984 4106 628 3988 
L 628 4550 
Q 988 4650 1302 4700 
Q 1616 4750 1894 4750 
Q 2613 4750 3031 4423 
Q 3450 4097 3450 3541 
Q 3450 3153 3228 2886 
Q 3006 2619 2597 2516 
z
" transform="scale(0.015625)"/>
       </defs>
       <use xlink:href="#DejaVuSans-33"/>
       <use xlink:href="#DejaVuSans-30" transform="translate(63.623047 0)"/>
       <use xlink:href="#DejaVuSans-30" transform="translate(127.246094 0)"/>
      </g>
     </g>
    </g>
    <g id="xtick_8">
     <g id="line2d_15">
      <path d="M 487.637404 250.421875 
L 487.637404 7.2 
" clip-path="url(#pf89ac31745)" style="fill: none; stroke-dasharray: 2.96,1.28; stroke-dashoffset: 0; stroke: #b0b0b0; stroke-opacity: 0.8; stroke-width: 0.8"/>
     </g>
     <g id="line2d_16">
      <g>
       <use xlink:href="#me4e1d93494" x="487.637404" y="250.421875" style="stroke: #000000; stroke-width: 0.8"/>
      </g>
     </g>
     <g id="text_8">
      <!-- 350 -->
      <g transform="translate(478.093654 265.020312) scale(0.1 -0.1)">
       <use xlink:href="#DejaVuSans-33"/>
       <use xlink:href="#DejaVuSans-35" transform="translate(63.623047 0)"/>
       <use xlink:href="#DejaVuSans-30" transform="translate(127.246094 0)"/>
      </g>
     </g>
    </g>
    <g id="xtick_9">
     <g id="line2d_17">
      <path d="M 546.493529 250.421875 
L 546.493529 7.2 
" clip-path="url(#pf89ac31745)" style="fill: none; stroke-dasharray: 2.96,1.28; stroke-dashoffset: 0; stroke: #b0b0b0; stroke-opacity: 0.8; stroke-width: 0.8"/>
     </g>
     <g id="line2d_18">
      <g>
       <use xlink:href="#me4e1d93494" x="546.493529" y="250.421875" style="stroke: #000000; stroke-width: 0.8"/>
      </g>
     </g>
     <g id="text_9">
      <!-- 400 -->
      <g transform="translate(536.949779 265.020312) scale(0.1 -0.1)">
       <defs>
        <path id="DejaVuSans-34" d="M 2419 4116 
L 825 1625 
L 2419 1625 
L 2419 4116 
z
M 2253 4666 
L 3047 4666 
L 3047 1625 
L 3713 1625 
L 3713 1100 
L 3047 1100 
L 3047 0 
L 2419 0 
L 2419 1100 
L 313 1100 
L 313 1709 
L 2253 4666 
z
" transform="scale(0.015625)"/>
       </defs>
       <use xlink:href="#DejaVuSans-34"/>
       <use xlink:href="#DejaVuSans-30" transform="translate(63.623047 0)"/>
       <use xlink:href="#DejaVuSans-30" transform="translate(127.246094 0)"/>
      </g>
     </g>
    </g>
    <g id="text_10">
     <!-- Sample, $n$ -->
     <g transform="translate(285.380469 278.7) scale(0.1 -0.1)">
      <defs>
       <path id="DejaVuSans-53" d="M 3425 4513 
L 3425 3897 
Q 3066 4069 2747 4153 
Q 2428 4238 2131 4238 
Q 1616 4238 1336 4038 
Q 1056 3838 1056 3469 
Q 1056 3159 1242 3001 
Q 1428 2844 1947 2747 
L 2328 2669 
Q 3034 2534 3370 2195 
Q 3706 1856 3706 1288 
Q 3706 609 3251 259 
Q 2797 -91 1919 -91 
Q 1588 -91 1214 -16 
Q 841 59 441 206 
L 441 856 
Q 825 641 1194 531 
Q 1563 422 1919 422 
Q 2459 422 2753 634 
Q 3047 847 3047 1241 
Q 3047 1584 2836 1778 
Q 2625 1972 2144 2069 
L 1759 2144 
Q 1053 2284 737 2584 
Q 422 2884 422 3419 
Q 422 4038 858 4394 
Q 1294 4750 2059 4750 
Q 2388 4750 2728 4690 
Q 3069 4631 3425 4513 
z
" transform="scale(0.015625)"/>
       <path id="DejaVuSans-61" d="M 2194 1759 
Q 1497 1759 1228 1600 
Q 959 1441 959 1056 
Q 959 750 1161 570 
Q 1363 391 1709 391 
Q 2188 391 2477 730 
Q 2766 1069 2766 1631 
L 2766 1759 
L 2194 1759 
z
M 3341 1997 
L 3341 0 
L 2766 0 
L 2766 531 
Q 2569 213 2275 61 
Q 1981 -91 1556 -91 
Q 1019 -91 701 211 
Q 384 513 384 1019 
Q 384 1609 779 1909 
Q 1175 2209 1959 2209 
L 2766 2209 
L 2766 2266 
Q 2766 2663 2505 2880 
Q 2244 3097 1772 3097 
Q 1472 3097 1187 3025 
Q 903 2953 641 2809 
L 641 3341 
Q 956 3463 1253 3523 
Q 1550 3584 1831 3584 
Q 2591 3584 2966 3190 
Q 3341 2797 3341 1997 
z
" transform="scale(0.015625)"/>
       <path id="DejaVuSans-6d" d="M 3328 2828 
Q 3544 3216 3844 3400 
Q 4144 3584 4550 3584 
Q 5097 3584 5394 3201 
Q 5691 2819 5691 2113 
L 5691 0 
L 5113 0 
L 5113 2094 
Q 5113 2597 4934 2840 
Q 4756 3084 4391 3084 
Q 3944 3084 3684 2787 
Q 3425 2491 3425 1978 
L 3425 0 
L 2847 0 
L 2847 2094 
Q 2847 2600 2669 2842 
Q 2491 3084 2119 3084 
Q 1678 3084 1418 2786 
Q 1159 2488 1159 1978 
L 1159 0 
L 581 0 
L 581 3500 
L 1159 3500 
L 1159 2956 
Q 1356 3278 1631 3431 
Q 1906 3584 2284 3584 
Q 2666 3584 2933 3390 
Q 3200 3197 3328 2828 
z
" transform="scale(0.015625)"/>
       <path id="DejaVuSans-70" d="M 1159 525 
L 1159 -1331 
L 581 -1331 
L 581 3500 
L 1159 3500 
L 1159 2969 
Q 1341 3281 1617 3432 
Q 1894 3584 2278 3584 
Q 2916 3584 3314 3078 
Q 3713 2572 3713 1747 
Q 3713 922 3314 415 
Q 2916 -91 2278 -91 
Q 1894 -91 1617 61 
Q 1341 213 1159 525 
z
M 3116 1747 
Q 3116 2381 2855 2742 
Q 2594 3103 2138 3103 
Q 1681 3103 1420 2742 
Q 1159 2381 1159 1747 
Q 1159 1113 1420 752 
Q 1681 391 2138 391 
Q 2594 391 2855 752 
Q 3116 1113 3116 1747 
z
" transform="scale(0.015625)"/>
       <path id="DejaVuSans-6c" d="M 603 4863 
L 1178 4863 
L 1178 0 
L 603 0 
L 603 4863 
z
" transform="scale(0.015625)"/>
       <path id="DejaVuSans-65" d="M 3597 1894 
L 3597 1613 
L 953 1613 
Q 991 1019 1311 708 
Q 1631 397 2203 397 
Q 2534 397 2845 478 
Q 3156 559 3463 722 
L 3463 178 
Q 3153 47 2828 -22 
Q 2503 -91 2169 -91 
Q 1331 -91 842 396 
Q 353 884 353 1716 
Q 353 2575 817 3079 
Q 1281 3584 2069 3584 
Q 2775 3584 3186 3129 
Q 3597 2675 3597 1894 
z
M 3022 2063 
Q 3016 2534 2758 2815 
Q 2500 3097 2075 3097 
Q 1594 3097 1305 2825 
Q 1016 2553 972 2059 
L 3022 2063 
z
" transform="scale(0.015625)"/>
       <path id="DejaVuSans-2c" d="M 750 794 
L 1409 794 
L 1409 256 
L 897 -744 
L 494 -744 
L 750 256 
L 750 794 
z
" transform="scale(0.015625)"/>
       <path id="DejaVuSans-20" transform="scale(0.015625)"/>
       <path id="DejaVuSans-Oblique-6e" d="M 3566 2113 
L 3156 0 
L 2578 0 
L 2988 2091 
Q 3016 2238 3031 2350 
Q 3047 2463 3047 2528 
Q 3047 2791 2881 2937 
Q 2716 3084 2419 3084 
Q 1956 3084 1622 2776 
Q 1288 2469 1184 1941 
L 800 0 
L 225 0 
L 903 3500 
L 1478 3500 
L 1363 2950 
Q 1603 3253 1940 3418 
Q 2278 3584 2650 3584 
Q 3113 3584 3367 3334 
Q 3622 3084 3622 2631 
Q 3622 2519 3608 2391 
Q 3594 2263 3566 2113 
z
" transform="scale(0.015625)"/>
      </defs>
      <use xlink:href="#DejaVuSans-53" transform="translate(0 0.015625)"/>
      <use xlink:href="#DejaVuSans-61" transform="translate(63.476562 0.015625)"/>
      <use xlink:href="#DejaVuSans-6d" transform="translate(124.755859 0.015625)"/>
      <use xlink:href="#DejaVuSans-70" transform="translate(222.167969 0.015625)"/>
      <use xlink:href="#DejaVuSans-6c" transform="translate(285.644531 0.015625)"/>
      <use xlink:href="#DejaVuSans-65" transform="translate(313.427734 0.015625)"/>
      <use xlink:href="#DejaVuSans-2c" transform="translate(374.951172 0.015625)"/>
      <use xlink:href="#DejaVuSans-20" transform="translate(406.738281 0.015625)"/>
      <use xlink:href="#DejaVuSans-Oblique-6e" transform="translate(438.525391 0.015625)"/>
     </g>
    </g>
   </g>
   <g id="matplotlib.axis_2">
    <g id="ytick_1">
     <g id="line2d_19">
      <path d="M 52.160938 235.168724 
L 568.8 235.168724 
" clip-path="url(#pf89ac31745)" style="fill: none; stroke-dasharray: 2.96,1.28; stroke-dashoffset: 0; stroke: #b0b0b0; stroke-opacity: 0.8; stroke-width: 0.8"/>
     </g>
     <g id="line2d_20">
      <defs>
       <path id="mc545c52fc8" d="M 0 0 
L -3.5 0 
" style="stroke: #000000; stroke-width: 0.8"/>
      </defs>
      <g>
       <use xlink:href="#mc545c52fc8" x="52.160938" y="235.168724" style="stroke: #000000; stroke-width: 0.8"/>
      </g>
     </g>
     <g id="text_11">
      <!-- −0.4 -->
      <g transform="translate(20.878125 238.967942) scale(0.1 -0.1)">
       <defs>
        <path id="DejaVuSans-2212" d="M 678 2272 
L 4684 2272 
L 4684 1741 
L 678 1741 
L 678 2272 
z
" transform="scale(0.015625)"/>
        <path id="DejaVuSans-2e" d="M 684 794 
L 1344 794 
L 1344 0 
L 684 0 
L 684 794 
z
" transform="scale(0.015625)"/>
       </defs>
       <use xlink:href="#DejaVuSans-2212"/>
       <use xlink:href="#DejaVuSans-30" transform="translate(83.789062 0)"/>
       <use xlink:href="#DejaVuSans-2e" transform="translate(147.412109 0)"/>
       <use xlink:href="#DejaVuSans-34" transform="translate(179.199219 0)"/>
      </g>
     </g>
    </g>
    <g id="ytick_2">
     <g id="line2d_21">
      <path d="M 52.160938 182.964212 
L 568.8 182.964212 
" clip-path="url(#pf89ac31745)" style="fill: none; stroke-dasharray: 2.96,1.28; stroke-dashoffset: 0; stroke: #b0b0b0; stroke-opacity: 0.8; stroke-width: 0.8"/>
     </g>
     <g id="line2d_22">
      <g>
       <use xlink:href="#mc545c52fc8" x="52.160938" y="182.964212" style="stroke: #000000; stroke-width: 0.8"/>
      </g>
     </g>
     <g id="text_12">
      <!-- −0.2 -->
      <g transform="translate(20.878125 186.763431) scale(0.1 -0.1)">
       <use xlink:href="#DejaVuSans-2212"/>
       <use xlink:href="#DejaVuSans-30" transform="translate(83.789062 0)"/>
       <use xlink:href="#DejaVuSans-2e" transform="translate(147.412109 0)"/>
       <use xlink:href="#DejaVuSans-32" transform="translate(179.199219 0)"/>
      </g>
     </g>
    </g>
    <g id="ytick_3">
     <g id="line2d_23">
      <path d="M 52.160938 130.759701 
L 568.8 130.759701 
" clip-path="url(#pf89ac31745)" style="fill: none; stroke-dasharray: 2.96,1.28; stroke-dashoffset: 0; stroke: #b0b0b0; stroke-opacity: 0.8; stroke-width: 0.8"/>
     </g>
     <g id="line2d_24">
      <g>
       <use xlink:href="#mc545c52fc8" x="52.160938" y="130.759701" style="stroke: #000000; stroke-width: 0.8"/>
      </g>
     </g>
     <g id="text_13">
      <!-- 0.0 -->
      <g transform="translate(29.257812 134.55892) scale(0.1 -0.1)">
       <use xlink:href="#DejaVuSans-30"/>
       <use xlink:href="#DejaVuSans-2e" transform="translate(63.623047 0)"/>
       <use xlink:href="#DejaVuSans-30" transform="translate(95.410156 0)"/>
      </g>
     </g>
    </g>
    <g id="ytick_4">
     <g id="line2d_25">
      <path d="M 52.160938 78.555189 
L 568.8 78.555189 
" clip-path="url(#pf89ac31745)" style="fill: none; stroke-dasharray: 2.96,1.28; stroke-dashoffset: 0; stroke: #b0b0b0; stroke-opacity: 0.8; stroke-width: 0.8"/>
     </g>
     <g id="line2d_26">
      <g>
       <use xlink:href="#mc545c52fc8" x="52.160938" y="78.555189" style="stroke: #000000; stroke-width: 0.8"/>
      </g>
     </g>
     <g id="text_14">
      <!-- 0.2 -->
      <g transform="translate(29.257812 82.354408) scale(0.1 -0.1)">
       <use xlink:href="#DejaVuSans-30"/>
       <use xlink:href="#DejaVuSans-2e" transform="translate(63.623047 0)"/>
       <use xlink:href="#DejaVuSans-32" transform="translate(95.410156 0)"/>
      </g>
     </g>
    </g>
    <g id="ytick_5">
     <g id="line2d_27">
      <path d="M 52.160938 26.350678 
L 568.8 26.350678 
" clip-path="url(#pf89ac31745)" style="fill: none; stroke-dasharray: 2.96,1.28; stroke-dashoffset: 0; stroke: #b0b0b0; stroke-opacity: 0.8; stroke-width: 0.8"/>
     </g>
     <g id="line2d_28">
      <g>
       <use xlink:href="#mc545c52fc8" x="52.160938" y="26.350678" style="stroke: #000000; stroke-width: 0.8"/>
      </g>
     </g>
     <g id="text_15">
      <!-- 0.4 -->
      <g transform="translate(29.257812 30.149897) scale(0.1 -0.1)">
       <use xlink:href="#DejaVuSans-30"/>
       <use xlink:href="#DejaVuSans-2e" transform="translate(63.623047 0)"/>
       <use xlink:href="#DejaVuSans-34" transform="translate(95.410156 0)"/>
      </g>
     </g>
    </g>
    <g id="text_16">
     <!-- Amplitude -->
     <g transform="translate(14.798437 154.433594) rotate(-90) scale(0.1 -0.1)">
      <defs>
       <path id="DejaVuSans-41" d="M 2188 4044 
L 1331 1722 
L 3047 1722 
L 2188 4044 
z
M 1831 4666 
L 2547 4666 
L 4325 0 
L 3669 0 
L 3244 1197 
L 1141 1197 
L 716 0 
L 50 0 
L 1831 4666 
z
" transform="scale(0.015625)"/>
       <path id="DejaVuSans-69" d="M 603 3500 
L 1178 3500 
L 1178 0 
L 603 0 
L 603 3500 
z
M 603 4863 
L 1178 4863 
L 1178 4134 
L 603 4134 
L 603 4863 
z
" transform="scale(0.015625)"/>
       <path id="DejaVuSans-74" d="M 1172 4494 
L 1172 3500 
L 2356 3500 
L 2356 3053 
L 1172 3053 
L 1172 1153 
Q 1172 725 1289 603 
Q 1406 481 1766 481 
L 2356 481 
L 2356 0 
L 1766 0 
Q 1100 0 847 248 
Q 594 497 594 1153 
L 594 3053 
L 172 3053 
L 172 3500 
L 594 3500 
L 594 4494 
L 1172 4494 
z
" transform="scale(0.015625)"/>
       <path id="DejaVuSans-75" d="M 544 1381 
L 544 3500 
L 1119 3500 
L 1119 1403 
Q 1119 906 1312 657 
Q 1506 409 1894 409 
Q 2359 409 2629 706 
Q 2900 1003 2900 1516 
L 2900 3500 
L 3475 3500 
L 3475 0 
L 2900 0 
L 2900 538 
Q 2691 219 2414 64 
Q 2138 -91 1772 -91 
Q 1169 -91 856 284 
Q 544 659 544 1381 
z
M 1991 3584 
L 1991 3584 
z
" transform="scale(0.015625)"/>
       <path id="DejaVuSans-64" d="M 2906 2969 
L 2906 4863 
L 3481 4863 
L 3481 0 
L 2906 0 
L 2906 525 
Q 2725 213 2448 61 
Q 2172 -91 1784 -91 
Q 1150 -91 751 415 
Q 353 922 353 1747 
Q 353 2572 751 3078 
Q 1150 3584 1784 3584 
Q 2172 3584 2448 3432 
Q 2725 3281 2906 2969 
z
M 947 1747 
Q 947 1113 1208 752 
Q 1469 391 1925 391 
Q 2381 391 2643 752 
Q 2906 1113 2906 1747 
Q 2906 2381 2643 2742 
Q 2381 3103 1925 3103 
Q 1469 3103 1208 2742 
Q 947 2381 947 1747 
z
" transform="scale(0.015625)"/>
      </defs>
      <use xlink:href="#DejaVuSans-41"/>
      <use xlink:href="#DejaVuSans-6d" transform="translate(68.408203 0)"/>
      <use xlink:href="#DejaVuSans-70" transform="translate(165.820312 0)"/>
      <use xlink:href="#DejaVuSans-6c" transform="translate(229.296875 0)"/>
      <use xlink:href="#DejaVuSans-69" transform="translate(257.080078 0)"/>
      <use xlink:href="#DejaVuSans-74" transform="translate(284.863281 0)"/>
      <use xlink:href="#DejaVuSans-75" transform="translate(324.072266 0)"/>
      <use xlink:href="#DejaVuSans-64" transform="translate(387.451172 0)"/>
      <use xlink:href="#DejaVuSans-65" transform="translate(450.927734 0)"/>
     </g>
    </g>
   </g>
   <g id="line2d_29">
    <path d="M 75.644531 133.809264 
L 76.821654 132.262558 
L 77.998776 129.752727 
L 79.175899 123.794511 
L 80.353021 127.199217 
L 81.530144 130.168491 
L 82.707266 135.366316 
L 83.884389 135.892506 
L 85.061511 131.613666 
L 86.238634 116.087516 
L 87.415756 134.612746 
L 88.592879 128.853174 
L 89.770001 130.879697 
L 90.947124 130.063513 
L 92.124246 132.256008 
L 93.301369 125.750488 
L 94.478491 124.854183 
L 95.655614 134.355319 
L 96.832736 128.609098 
L 98.009859 132.335561 
L 99.186981 136.586565 
L 100.364104 138.981209 
L 101.541226 137.803503 
L 102.718349 135.844418 
L 103.895471 132.063983 
L 105.072594 124.84951 
L 106.249716 124.293136 
L 107.426839 108.469578 
L 108.603961 115.547249 
L 109.781084 110.491398 
L 110.958206 112.23646 
L 112.135329 109.646143 
L 113.312451 115.020033 
L 114.489574 137.811482 
L 116.843819 173.908365 
L 119.198064 195.883592 
L 120.375186 205.300178 
L 121.552309 207.859719 
L 122.729431 208.403302 
L 123.906553 190.094411 
L 125.083676 178.627747 
L 126.260798 143.989932 
L 127.437921 121.395511 
L 128.615043 93.585957 
L 129.792166 81.215104 
L 130.969288 59.458859 
L 132.146411 61.222929 
L 133.323533 49.049776 
L 135.677778 89.781462 
L 136.854901 118.364268 
L 138.032023 136.559749 
L 139.209146 168.840589 
L 140.386268 195.526662 
L 141.563391 205.739518 
L 142.740513 222.054615 
L 143.917636 221.957968 
L 145.094758 216.069277 
L 146.271881 205.417218 
L 148.626126 192.775596 
L 149.803248 179.984624 
L 150.980371 178.610145 
L 152.157493 181.279838 
L 153.334616 198.057523 
L 154.511738 204.148104 
L 155.688861 220.140683 
L 156.865983 215.083328 
L 158.043106 228.579453 
L 159.220228 214.862097 
L 160.397351 207.482095 
L 161.574473 194.186801 
L 162.751596 169.92651 
L 163.928718 132.329039 
L 165.105841 115.156811 
L 166.282963 86.128323 
L 167.460086 62.888897 
L 168.637208 60.700002 
L 169.814331 50.179278 
L 170.991453 65.79935 
L 172.168576 70.028225 
L 175.699943 150.693284 
L 179.231311 211.638771 
L 180.408433 206.781858 
L 181.585556 203.085189 
L 182.762678 182.662971 
L 185.116923 134.524469 
L 186.294046 114.393257 
L 187.471168 85.982298 
L 188.648291 52.258673 
L 189.825413 37.220811 
L 191.002536 31.974281 
L 192.179658 28.885904 
L 193.356781 29.694661 
L 194.533903 33.950697 
L 198.065271 62.428996 
L 199.242393 99.835708 
L 200.419516 107.49864 
L 201.596638 117.875161 
L 202.773761 134.36199 
L 205.128006 161.766043 
L 206.305128 172.381913 
L 207.482251 191.666266 
L 208.659373 203.457759 
L 209.836496 220.085709 
L 211.013618 222.354481 
L 212.190741 230.967987 
L 213.367863 227.410366 
L 214.544986 228.166281 
L 215.722108 222.016156 
L 216.89923 206.830553 
L 218.076353 180.173211 
L 219.253475 162.931479 
L 222.784843 85.007486 
L 223.961965 73.836957 
L 225.139088 73.639655 
L 226.31621 61.275379 
L 227.493333 65.768055 
L 228.670455 66.020813 
L 229.847578 89.256981 
L 231.0247 99.110738 
L 232.201823 127.751841 
L 233.378945 149.390943 
L 234.556068 181.320596 
L 235.73319 202.375242 
L 236.910313 212.159136 
L 238.087435 229.207608 
L 239.264558 229.779979 
L 240.44168 236.827894 
L 241.618803 232.374793 
L 242.795925 228.911483 
L 243.973048 220.820506 
L 246.327293 172.206257 
L 248.681538 134.929222 
L 249.85866 120.469714 
L 252.212905 72.344748 
L 253.390028 68.161407 
L 254.56715 64.940444 
L 255.744273 60.335328 
L 256.921395 52.869649 
L 258.098518 63.764333 
L 259.27564 53.963041 
L 260.452763 63.803876 
L 261.629885 58.325439 
L 262.807008 68.65083 
L 263.98413 63.195877 
L 265.161253 69.677871 
L 266.338375 60.38721 
L 267.515498 63.376518 
L 268.69262 56.563051 
L 269.869743 56.730593 
L 271.046865 61.716969 
L 272.223988 61.897388 
L 273.40111 57.351103 
L 274.578233 64.652584 
L 275.755355 92.986398 
L 276.932478 97.109416 
L 278.1096 118.736099 
L 279.286723 146.042452 
L 280.463845 153.564512 
L 281.640968 183.646699 
L 282.81809 203.133386 
L 283.995213 212.605657 
L 285.172335 231.031416 
L 286.349458 232.133144 
L 287.52658 238.335764 
L 288.703703 239.366335 
L 289.880825 226.683803 
L 291.057948 223.71513 
L 292.23507 201.337466 
L 294.589315 147.880489 
L 295.766438 132.867682 
L 296.94356 106.29843 
L 298.120683 91.885493 
L 299.297805 73.885347 
L 301.65205 56.707644 
L 302.829173 63.589162 
L 304.006295 77.199311 
L 305.183418 92.489849 
L 306.36054 111.440625 
L 307.537663 143.846543 
L 308.714785 165.903369 
L 309.891908 191.662429 
L 311.06903 198.710002 
L 313.423275 221.072669 
L 314.600397 224.431174 
L 315.77752 228.316404 
L 316.954642 214.07332 
L 318.131765 204.034132 
L 319.308887 196.999002 
L 320.48601 184.80087 
L 321.663132 189.473895 
L 322.840255 181.441056 
L 324.017377 184.841311 
L 325.1945 185.199089 
L 326.371622 184.358139 
L 327.548745 188.920254 
L 328.725867 205.348962 
L 329.90299 203.475636 
L 331.080112 209.689682 
L 332.257235 206.143694 
L 333.434357 201.077915 
L 334.61148 200.593047 
L 335.788602 196.777633 
L 336.965725 187.044692 
L 338.142847 189.364618 
L 339.31997 193.343525 
L 340.497092 189.411371 
L 341.674215 190.558399 
L 342.851337 187.723275 
L 344.02846 197.362936 
L 345.205582 191.888599 
L 346.382705 203.252637 
L 347.559827 195.920007 
L 348.73695 199.108529 
L 349.914072 203.068531 
L 352.268317 192.098853 
L 353.44544 194.150188 
L 354.622562 186.699449 
L 355.799685 191.33772 
L 356.976807 191.52668 
L 358.15393 198.056244 
L 359.331052 200.256226 
L 360.508175 208.368372 
L 361.685297 203.887059 
L 362.86242 210.074881 
L 364.039542 213.208962 
L 365.216665 203.963406 
L 366.393787 198.616467 
L 367.57091 199.940876 
L 368.748032 181.934006 
L 369.925155 174.892452 
L 371.102277 153.739748 
L 372.2794 145.138803 
L 374.633645 99.699764 
L 375.810767 88.882822 
L 376.98789 65.965484 
L 378.165012 47.091002 
L 379.342135 37.230859 
L 380.519257 35.593933 
L 381.69638 23.336821 
L 382.873502 29.319351 
L 384.050625 21.809176 
L 385.227747 48.356457 
L 386.40487 60.48693 
L 387.581992 79.483623 
L 388.759115 109.418951 
L 391.11336 153.465718 
L 392.290482 169.124688 
L 393.467605 182.159677 
L 394.644727 201.10865 
L 395.82185 202.066659 
L 396.998972 187.549968 
L 398.176095 185.38396 
L 399.353217 170.835017 
L 400.53034 147.680036 
L 401.707462 113.803399 
L 402.884585 97.871244 
L 404.061707 78.232274 
L 405.238829 51.488975 
L 406.415952 51.425678 
L 407.593074 41.858219 
L 408.770197 47.820088 
L 409.947319 39.517271 
L 411.124442 53.224952 
L 412.301564 57.195756 
L 413.478687 61.732283 
L 414.655809 75.616959 
L 415.832932 82.421919 
L 417.010054 76.308083 
L 418.187177 78.883277 
L 419.364299 69.91733 
L 420.541422 66.573391 
L 421.718544 58.594809 
L 422.895667 52.744944 
L 424.072789 57.994293 
L 425.249912 62.350965 
L 426.427034 63.240868 
L 427.604157 66.203922 
L 428.781279 74.131134 
L 429.958402 84.035292 
L 431.135524 80.077083 
L 432.312647 78.104182 
L 433.489769 79.772512 
L 434.666892 67.27001 
L 435.844014 58.204538 
L 437.021137 45.773951 
L 438.198259 35.516354 
L 439.375382 32.497184 
L 440.552504 30.588143 
L 441.729627 38.792737 
L 442.906749 44.884463 
L 445.260994 96.128963 
L 447.615239 154.578605 
L 448.792362 189.792994 
L 449.969484 186.650369 
L 451.146607 206.687918 
L 452.323729 212.096824 
L 453.500852 195.780045 
L 454.677974 182.92858 
L 455.855097 156.100477 
L 457.032219 121.503818 
L 458.209342 96.19656 
L 459.386464 75.542588 
L 460.563587 61.41166 
L 461.740709 57.524058 
L 462.917832 59.183199 
L 464.094954 66.623884 
L 465.272077 94.236723 
L 466.449199 111.400283 
L 467.626322 149.498936 
L 468.803444 175.083564 
L 469.980567 192.888479 
L 471.157689 212.705561 
L 472.334812 213.752958 
L 474.689057 184.802538 
L 475.866179 161.701517 
L 477.043302 142.709892 
L 478.220424 105.650537 
L 479.397547 75.3508 
L 480.574669 50.702107 
L 481.751792 30.736232 
L 482.928914 27.209626 
L 484.106037 22.895968 
L 485.283159 23.646089 
L 486.460282 33.789763 
L 487.637404 38.973931 
L 488.814527 54.064627 
L 491.168772 92.626138 
L 492.345894 114.516619 
L 493.523017 129.939168 
L 494.700139 139.055281 
L 497.054384 175.053907 
L 498.231507 174.657393 
L 500.585751 204.843798 
L 501.762874 205.845253 
L 502.939996 207.529918 
L 504.117119 210.389939 
L 505.294241 215.396065 
L 506.471364 212.320929 
L 507.648486 211.968489 
L 508.825609 210.859695 
L 510.002731 188.392869 
L 511.179854 190.393213 
L 512.356976 182.965752 
L 513.534099 174.074057 
L 514.711221 175.301157 
L 515.888344 175.765167 
L 517.065466 185.487254 
L 518.242589 189.027367 
L 519.419711 197.599389 
L 520.596834 210.220786 
L 521.773956 218.041952 
L 522.951079 229.214656 
L 524.128201 228.239021 
L 526.482446 220.57504 
L 527.659569 204.336766 
L 528.836691 175.399944 
L 530.013814 159.673113 
L 531.190936 132.301514 
L 532.368059 108.297634 
L 533.545181 87.739952 
L 534.722304 69.312758 
L 535.899426 59.99939 
L 537.076549 57.89482 
L 538.253671 63.546856 
L 539.430794 84.83051 
L 540.607916 101.847213 
L 541.785039 128.36635 
L 542.962161 151.983737 
L 545.316406 187.897197 
L 545.316406 187.897197 
" clip-path="url(#pf89ac31745)" style="fill: none; stroke: #1f77b4; stroke-linecap: square"/>
   </g>
   <g id="line2d_30">
    <path d="M 75.644531 129.857095 
L 76.821654 128.317067 
L 77.998776 125.075555 
L 79.175899 128.411005 
L 80.353021 133.913337 
L 81.530144 133.033634 
L 82.707266 128.256995 
L 83.884389 132.681489 
L 85.061511 125.368919 
L 86.238634 129.99065 
L 87.415756 129.711782 
L 88.592879 128.805667 
L 89.770001 134.824569 
L 90.947124 130.365473 
L 92.124246 130.439661 
L 93.301369 134.19361 
L 94.478491 132.065495 
L 95.655614 133.771943 
L 96.832736 139.765025 
L 98.009859 138.616815 
L 99.186981 136.719751 
L 100.364104 128.150522 
L 101.541226 128.151726 
L 102.718349 119.381823 
L 103.895471 126.040139 
L 105.072594 124.788434 
L 106.249716 120.081402 
L 107.426839 125.382081 
L 108.603961 125.582272 
L 109.781084 138.413748 
L 110.958206 138.758961 
L 112.135329 136.443931 
L 113.312451 147.078021 
L 114.489574 148.3092 
L 115.666696 145.509323 
L 118.020941 137.35149 
L 119.198064 119.705471 
L 120.375186 113.16732 
L 121.552309 103.40504 
L 122.729431 75.854626 
L 123.906553 73.997032 
L 126.260798 56.690451 
L 127.437921 55.677412 
L 129.792166 80.112809 
L 130.969288 88.631831 
L 133.323533 148.097652 
L 134.500656 170.809412 
L 135.677778 183.038119 
L 138.032023 210.803118 
L 139.209146 210.093555 
L 140.386268 212.053874 
L 141.563391 216.172101 
L 142.740513 210.752697 
L 143.917636 202.293002 
L 145.094758 198.11607 
L 146.271881 178.924641 
L 147.449003 183.958554 
L 148.626126 191.00186 
L 149.803248 191.115797 
L 150.980371 189.1276 
L 152.157493 193.281524 
L 153.334616 199.654605 
L 154.511738 196.752525 
L 155.688861 204.245292 
L 156.865983 194.050932 
L 158.043106 198.724307 
L 159.220228 205.739643 
L 160.397351 195.891124 
L 161.574473 196.571052 
L 162.751596 177.81133 
L 163.928718 192.808906 
L 165.105841 193.380779 
L 166.282963 196.919084 
L 167.460086 195.326471 
L 168.637208 205.117856 
L 169.814331 206.554342 
L 170.991453 222.400154 
L 172.168576 210.413978 
L 173.345698 216.12315 
L 175.699943 193.040241 
L 176.877066 172.03594 
L 178.054188 153.302525 
L 179.231311 138.180378 
L 180.408433 115.174677 
L 181.585556 94.814422 
L 182.762678 77.762684 
L 183.939801 53.373781 
L 185.116923 51.797324 
L 186.294046 54.080634 
L 187.471168 52.067156 
L 188.648291 48.499267 
L 191.002536 65.796599 
L 192.179658 64.218402 
L 193.356781 67.978246 
L 194.533903 75.673513 
L 195.711026 77.321978 
L 196.888148 69.485408 
L 198.065271 65.265884 
L 199.242393 64.969623 
L 200.419516 59.315419 
L 201.596638 54.855552 
L 202.773761 57.493673 
L 203.950883 56.167153 
L 205.128006 66.573912 
L 206.305128 66.723159 
L 207.482251 74.108227 
L 208.659373 79.248206 
L 209.836496 77.251344 
L 211.013618 80.179956 
L 212.190741 76.988955 
L 213.367863 77.55749 
L 214.544986 63.446939 
L 215.722108 42.404742 
L 216.89923 40.197178 
L 218.076353 29.638605 
L 219.253475 38.943943 
L 220.430598 39.211845 
L 221.60772 55.592171 
L 222.784843 79.83816 
L 223.961965 97.550896 
L 225.139088 123.026217 
L 226.31621 157.236551 
L 227.493333 183.334915 
L 228.670455 189.803387 
L 229.847578 211.453351 
L 231.0247 209.97346 
L 232.201823 202.547491 
L 234.556068 151.048403 
L 235.73319 131.764219 
L 236.910313 100.773967 
L 239.264558 65.62954 
L 240.44168 52.380442 
L 241.618803 60.011853 
L 242.795925 61.984332 
L 243.973048 82.154826 
L 246.327293 138.149461 
L 247.504415 159.683958 
L 248.681538 185.653469 
L 249.85866 206.956131 
L 251.035783 223.292221 
L 252.212905 224.828423 
L 253.390028 223.175784 
L 254.56715 217.651768 
L 255.744273 214.059073 
L 256.921395 203.522961 
L 258.098518 188.589561 
L 259.27564 178.258964 
L 260.452763 181.189818 
L 261.629885 179.123827 
L 262.807008 180.718314 
L 263.98413 188.361531 
L 265.161253 207.513046 
L 266.338375 209.217854 
L 267.515498 204.810916 
L 268.69262 205.008548 
L 269.869743 204.47074 
L 271.046865 198.334497 
L 272.223988 201.831405 
L 273.40111 186.888213 
L 274.578233 183.666134 
L 275.755355 177.732092 
L 276.932478 169.538703 
L 278.1096 188.556628 
L 279.286723 190.181461 
L 280.463845 196.561584 
L 281.640968 216.450076 
L 282.81809 225.345839 
L 283.995213 224.734304 
L 285.172335 222.303928 
L 286.349458 214.997071 
L 287.52658 200.717753 
L 288.703703 190.209561 
L 289.880825 161.469784 
L 293.412193 87.689324 
L 294.589315 63.466592 
L 295.766438 56.297059 
L 296.94356 56.067077 
L 298.120683 71.287868 
L 299.297805 83.948477 
L 300.474928 101.295328 
L 301.65205 130.696852 
L 304.006295 179.301578 
L 305.183418 195.230125 
L 306.36054 208.549646 
L 307.537663 213.255016 
L 308.714785 196.298271 
L 309.891908 184.979999 
L 312.246152 136.369515 
L 313.423275 97.722906 
L 314.600397 74.732051 
L 315.77752 63.235249 
L 316.954642 33.265537 
L 318.131765 25.720521 
L 319.308887 28.899138 
L 320.48601 18.25554 
L 322.840255 45.305146 
L 324.017377 53.673223 
L 325.1945 76.084379 
L 326.371622 91.786426 
L 327.548745 113.435079 
L 328.725867 117.634108 
L 329.90299 137.13507 
L 331.080112 150.364087 
L 332.257235 170.439205 
L 333.434357 175.848543 
L 335.788602 208.623938 
L 336.965725 211.77826 
L 338.142847 213.136788 
L 339.31997 224.737364 
L 340.497092 225.608778 
L 341.674215 212.753582 
L 342.851337 208.306856 
L 344.02846 197.444835 
L 345.205582 176.12445 
L 346.382705 168.42762 
L 347.559827 149.559704 
L 348.73695 135.305357 
L 349.914072 117.789109 
L 351.091195 97.954422 
L 352.268317 81.930272 
L 353.44544 71.413662 
L 354.622562 57.664344 
L 355.799685 46.933561 
L 356.976807 42.885312 
L 358.15393 31.65784 
L 359.331052 33.152394 
L 360.508175 41.964382 
L 361.685297 43.518672 
L 364.039542 69.965773 
L 365.216665 94.587313 
L 366.393787 127.473119 
L 367.57091 142.803645 
L 368.748032 166.829682 
L 369.925155 183.691864 
L 371.102277 190.491356 
L 372.2794 206.822435 
L 373.456522 207.100456 
L 374.633645 204.606124 
L 375.810767 203.304972 
L 376.98789 200.164065 
L 378.165012 201.285406 
L 379.342135 191.474839 
L 380.519257 184.292467 
L 381.69638 189.312626 
L 382.873502 189.167455 
L 384.050625 198.519071 
L 385.227747 211.932054 
L 386.40487 210.614525 
L 387.581992 215.214283 
L 388.759115 217.837379 
L 389.936237 211.719282 
L 391.11336 203.371572 
L 393.467605 167.818158 
L 395.82185 112.143478 
L 398.176095 70.549519 
L 399.353217 54.8334 
L 400.53034 47.732915 
L 401.707462 60.865334 
L 402.884585 69.586693 
L 405.238829 114.526592 
L 406.415952 153.579074 
L 407.593074 171.191801 
L 408.770197 193.946007 
L 409.947319 197.177518 
L 411.124442 217.263433 
L 412.301564 221.030577 
L 413.478687 219.629413 
L 414.655809 215.398565 
L 415.832932 210.719035 
L 417.010054 202.330095 
L 418.187177 192.789031 
L 419.364299 188.163033 
L 420.541422 190.27709 
L 421.718544 193.771809 
L 422.895667 192.584419 
L 424.072789 200.267604 
L 425.249912 203.055277 
L 426.427034 206.994471 
L 427.604157 199.030342 
L 428.781279 198.245838 
L 429.958402 188.020756 
L 431.135524 183.34951 
L 433.489769 149.881417 
L 434.666892 120.749837 
L 435.844014 104.968968 
L 437.021137 81.623471 
L 438.198259 60.595756 
L 439.375382 45.283006 
L 440.552504 40.058833 
L 441.729627 22.935896 
L 442.906749 19.905413 
L 444.083872 27.401059 
L 445.260994 39.930571 
L 446.438117 48.156726 
L 448.792362 78.276427 
L 449.969484 115.170007 
L 451.146607 127.300296 
L 452.323729 152.7801 
L 453.500852 169.270969 
L 454.677974 189.069273 
L 455.855097 193.906769 
L 457.032219 206.69082 
L 458.209342 193.065168 
L 459.386464 188.805598 
L 460.563587 165.800826 
L 461.740709 150.897863 
L 464.094954 100.416141 
L 465.272077 87.21321 
L 466.449199 63.77945 
L 467.626322 47.826358 
L 469.980567 33.502849 
L 471.157689 33.903551 
L 472.334812 31.065744 
L 473.511934 38.360918 
L 474.689057 57.058898 
L 475.866179 69.749466 
L 477.043302 77.534838 
L 478.220424 100.194387 
L 480.574669 139.486224 
L 481.751792 159.142814 
L 482.928914 168.461625 
L 484.106037 180.42439 
L 485.283159 194.449988 
L 486.460282 204.071003 
L 487.637404 215.751387 
L 488.814527 216.510896 
L 489.991649 218.695298 
L 491.168772 221.686652 
L 492.345894 221.34911 
L 493.523017 209.107068 
L 494.700139 192.757278 
L 495.877262 181.582488 
L 497.054384 164.997172 
L 498.231507 154.730757 
L 499.408629 136.279473 
L 500.585751 112.151662 
L 501.762874 100.451081 
L 502.939996 79.951856 
L 504.117119 61.578816 
L 505.294241 58.752087 
L 506.471364 44.992095 
L 507.648486 38.176107 
L 508.825609 38.541281 
L 510.002731 37.797642 
L 511.179854 46.070109 
L 512.356976 53.444297 
L 513.534099 66.792286 
L 514.711221 77.137771 
L 515.888344 96.695689 
L 517.065466 121.682671 
L 519.419711 149.060129 
L 520.596834 173.321492 
L 521.773956 175.37099 
L 522.951079 197.513393 
L 524.128201 200.699461 
L 525.305324 208.496312 
L 526.482446 209.919129 
L 527.659569 216.158622 
L 528.836691 212.325501 
L 530.013814 205.612684 
L 531.190936 206.377816 
L 532.368059 193.224627 
L 533.545181 195.532134 
L 534.722304 189.811632 
L 535.899426 184.793709 
L 537.076549 182.032966 
L 538.253671 172.746597 
L 539.430794 178.386785 
L 540.607916 182.489596 
L 541.785039 189.028666 
L 542.962161 199.526862 
L 544.139284 205.56849 
L 545.316406 221.713665 
L 545.316406 221.713665 
" clip-path="url(#pf89ac31745)" style="fill: none; stroke: #ff7f0e; stroke-linecap: square"/>
   </g>
   <g id="patch_3">
    <path d="M 52.160938 250.421875 
L 52.160938 7.2 
" style="fill: none; stroke: #000000; stroke-width: 0.8; stroke-linejoin: miter; stroke-linecap: square"/>
   </g>
   <g id="patch_4">
    <path d="M 568.8 250.421875 
L 568.8 7.2 
" style="fill: none; stroke: #000000; stroke-width: 0.8; stroke-linejoin: miter; stroke-linecap: square"/>
   </g>
   <g id="patch_5">
    <path d="M 52.160937 250.421875 
L 568.8 250.421875 
" style="fill: none; stroke: #000000; stroke-width: 0.8; stroke-linejoin: miter; stroke-linecap: square"/>
   </g>
   <g id="patch_6">
    <path d="M 52.160937 7.2 
L 568.8 7.2 
" style="fill: none; stroke: #000000; stroke-width: 0.8; stroke-linejoin: miter; stroke-linecap: square"/>
   </g>
   <g id="legend_1">
    <g id="patch_7">
     <path d="M 59.160938 44.55625 
L 116.15625 44.55625 
Q 118.15625 44.55625 118.15625 42.55625 
L 118.15625 14.2 
Q 118.15625 12.2 116.15625 12.2 
L 59.160938 12.2 
Q 57.160938 12.2 57.160938 14.2 
L 57.160938 42.55625 
Q 57.160938 44.55625 59.160938 44.55625 
z
" style="fill: #ffffff; opacity: 0.8; stroke: #cccccc; stroke-linejoin: miter"/>
    </g>
    <g id="line2d_31">
     <path d="M 61.160938 20.298437 
L 71.160938 20.298437 
L 81.160938 20.298437 
" style="fill: none; stroke: #1f77b4; stroke-linecap: square"/>
    </g>
    <g id="text_17">
     <!-- real -->
     <g transform="translate(89.160938 23.798437) scale(0.1 -0.1)">
      <defs>
       <path id="DejaVuSans-72" d="M 2631 2963 
Q 2534 3019 2420 3045 
Q 2306 3072 2169 3072 
Q 1681 3072 1420 2755 
Q 1159 2438 1159 1844 
L 1159 0 
L 581 0 
L 581 3500 
L 1159 3500 
L 1159 2956 
Q 1341 3275 1631 3429 
Q 1922 3584 2338 3584 
Q 2397 3584 2469 3576 
Q 2541 3569 2628 3553 
L 2631 2963 
z
" transform="scale(0.015625)"/>
      </defs>
      <use xlink:href="#DejaVuSans-72"/>
      <use xlink:href="#DejaVuSans-65" transform="translate(38.863281 0)"/>
      <use xlink:href="#DejaVuSans-61" transform="translate(100.386719 0)"/>
      <use xlink:href="#DejaVuSans-6c" transform="translate(161.666016 0)"/>
     </g>
    </g>
    <g id="line2d_32">
     <path d="M 61.160938 34.976562 
L 71.160938 34.976562 
L 81.160938 34.976562 
" style="fill: none; stroke: #ff7f0e; stroke-linecap: square"/>
    </g>
    <g id="text_18">
     <!-- imag -->
     <g transform="translate(89.160938 38.476562) scale(0.1 -0.1)">
      <defs>
       <path id="DejaVuSans-67" d="M 2906 1791 
Q 2906 2416 2648 2759 
Q 2391 3103 1925 3103 
Q 1463 3103 1205 2759 
Q 947 2416 947 1791 
Q 947 1169 1205 825 
Q 1463 481 1925 481 
Q 2391 481 2648 825 
Q 2906 1169 2906 1791 
z
M 3481 434 
Q 3481 -459 3084 -895 
Q 2688 -1331 1869 -1331 
Q 1566 -1331 1297 -1286 
Q 1028 -1241 775 -1147 
L 775 -588 
Q 1028 -725 1275 -790 
Q 1522 -856 1778 -856 
Q 2344 -856 2625 -561 
Q 2906 -266 2906 331 
L 2906 616 
Q 2728 306 2450 153 
Q 2172 0 1784 0 
Q 1141 0 747 490 
Q 353 981 353 1791 
Q 353 2603 747 3093 
Q 1141 3584 1784 3584 
Q 2172 3584 2450 3431 
Q 2728 3278 2906 2969 
L 2906 3500 
L 3481 3500 
L 3481 434 
z
" transform="scale(0.015625)"/>
      </defs>
      <use xlink:href="#DejaVuSans-69"/>
      <use xlink:href="#DejaVuSans-6d" transform="translate(27.783203 0)"/>
      <use xlink:href="#DejaVuSans-61" transform="translate(125.195312 0)"/>
      <use xlink:href="#DejaVuSans-67" transform="translate(186.474609 0)"/>
     </g>
    </g>
   </g>
  </g>
 </g>
 <defs>
  <clipPath id="pf89ac31745">
   <rect x="52.160938" y="7.2" width="516.639063" height="243.221875"/>
  </clipPath>
 </defs>
</svg>
