<?xml version="1.0" encoding="utf-8" standalone="no"?>
<!DOCTYPE svg PUBLIC "-//W3C//DTD SVG 1.1//EN"
  "http://www.w3.org/Graphics/SVG/1.1/DTD/svg11.dtd">
<svg xmlns:xlink="http://www.w3.org/1999/xlink" width="576pt" height="288pt" viewBox="0 0 576 288" xmlns="http://www.w3.org/2000/svg" version="1.1">
 <metadata>
  <rdf:RDF xmlns:dc="http://purl.org/dc/elements/1.1/" xmlns:cc="http://creativecommons.org/ns#" xmlns:rdf="http://www.w3.org/1999/02/22-rdf-syntax-ns#">
   <cc:Work>
    <dc:type rdf:resource="http://purl.org/dc/dcmitype/StillImage"/>
    <dc:date>2025-05-10T16:15:46.751643</dc:date>
    <dc:format>image/svg+xml</dc:format>
    <dc:creator>
     <cc:Agent>
      <dc:title>Matplotlib v3.10.3, https://matplotlib.org/</dc:title>
     </cc:Agent>
    </dc:creator>
   </cc:Work>
  </rdf:RDF>
 </metadata>
 <defs>
  <style type="text/css">*{stroke-linejoin: round; stroke-linecap: butt}</style>
 </defs>
 <g id="figure_1">
  <g id="patch_1">
   <path d="M 0 288 
L 576 288 
L 576 0 
L 0 0 
z
" style="fill: #ffffff"/>
  </g>
  <g id="axes_1">
   <g id="patch_2">
    <path d="M 57.167188 250.421875 
L 568.8 250.421875 
L 568.8 24.12 
L 57.167188 24.12 
z
" style="fill: #ffffff"/>
   </g>
   <g id="matplotlib.axis_1">
    <g id="xtick_1">
     <g id="line2d_1">
      <path d="M 80.423224 250.421875 
L 80.423224 24.12 
" clip-path="url(#pc156bb8c3c)" style="fill: none; stroke-dasharray: 2.96,1.28; stroke-dashoffset: 0; stroke: #b0b0b0; stroke-opacity: 0.8; stroke-width: 0.8"/>
     </g>
     <g id="line2d_2">
      <defs>
       <path id="mdb07c9010c" d="M 0 0 
L 0 3.5 
" style="stroke: #000000; stroke-width: 0.8"/>
      </defs>
      <g>
       <use xlink:href="#mdb07c9010c" x="80.423224" y="250.421875" style="stroke: #000000; stroke-width: 0.8"/>
      </g>
     </g>
     <g id="text_1">
      <!-- 0 -->
      <g transform="translate(77.241974 265.020312) scale(0.1 -0.1)">
       <defs>
        <path id="DejaVuSans-30" d="M 2034 4250 
Q 1547 4250 1301 3770 
Q 1056 3291 1056 2328 
Q 1056 1369 1301 889 
Q 1547 409 2034 409 
Q 2525 409 2770 889 
Q 3016 1369 3016 2328 
Q 3016 3291 2770 3770 
Q 2525 4250 2034 4250 
z
M 2034 4750 
Q 2819 4750 3233 4129 
Q 3647 3509 3647 2328 
Q 3647 1150 3233 529 
Q 2819 -91 2034 -91 
Q 1250 -91 836 529 
Q 422 1150 422 2328 
Q 422 3509 836 4129 
Q 1250 4750 2034 4750 
z
" transform="scale(0.015625)"/>
       </defs>
       <use xlink:href="#DejaVuSans-30"/>
      </g>
     </g>
    </g>
    <g id="xtick_2">
     <g id="line2d_3">
      <path d="M 173.538305 250.421875 
L 173.538305 24.12 
" clip-path="url(#pc156bb8c3c)" style="fill: none; stroke-dasharray: 2.96,1.28; stroke-dashoffset: 0; stroke: #b0b0b0; stroke-opacity: 0.8; stroke-width: 0.8"/>
     </g>
     <g id="line2d_4">
      <g>
       <use xlink:href="#mdb07c9010c" x="173.538305" y="250.421875" style="stroke: #000000; stroke-width: 0.8"/>
      </g>
     </g>
     <g id="text_2">
      <!-- 0.1 -->
      <g transform="translate(165.586742 265.020312) scale(0.1 -0.1)">
       <defs>
        <path id="DejaVuSans-2e" d="M 684 794 
L 1344 794 
L 1344 0 
L 684 0 
L 684 794 
z
" transform="scale(0.015625)"/>
        <path id="DejaVuSans-31" d="M 794 531 
L 1825 531 
L 1825 4091 
L 703 3866 
L 703 4441 
L 1819 4666 
L 2450 4666 
L 2450 531 
L 3481 531 
L 3481 0 
L 794 0 
L 794 531 
z
" transform="scale(0.015625)"/>
       </defs>
       <use xlink:href="#DejaVuSans-30"/>
       <use xlink:href="#DejaVuSans-2e" transform="translate(63.623047 0)"/>
       <use xlink:href="#DejaVuSans-31" transform="translate(95.410156 0)"/>
      </g>
     </g>
    </g>
    <g id="xtick_3">
     <g id="line2d_5">
      <path d="M 266.653385 250.421875 
L 266.653385 24.12 
" clip-path="url(#pc156bb8c3c)" style="fill: none; stroke-dasharray: 2.96,1.28; stroke-dashoffset: 0; stroke: #b0b0b0; stroke-opacity: 0.8; stroke-width: 0.8"/>
     </g>
     <g id="line2d_6">
      <g>
       <use xlink:href="#mdb07c9010c" x="266.653385" y="250.421875" style="stroke: #000000; stroke-width: 0.8"/>
      </g>
     </g>
     <g id="text_3">
      <!-- 0.2 -->
      <g transform="translate(258.701823 265.020312) scale(0.1 -0.1)">
       <defs>
        <path id="DejaVuSans-32" d="M 1228 531 
L 3431 531 
L 3431 0 
L 469 0 
L 469 531 
Q 828 903 1448 1529 
Q 2069 2156 2228 2338 
Q 2531 2678 2651 2914 
Q 2772 3150 2772 3378 
Q 2772 3750 2511 3984 
Q 2250 4219 1831 4219 
Q 1534 4219 1204 4116 
Q 875 4013 500 3803 
L 500 4441 
Q 881 4594 1212 4672 
Q 1544 4750 1819 4750 
Q 2544 4750 2975 4387 
Q 3406 4025 3406 3419 
Q 3406 3131 3298 2873 
Q 3191 2616 2906 2266 
Q 2828 2175 2409 1742 
Q 1991 1309 1228 531 
z
" transform="scale(0.015625)"/>
       </defs>
       <use xlink:href="#DejaVuSans-30"/>
       <use xlink:href="#DejaVuSans-2e" transform="translate(63.623047 0)"/>
       <use xlink:href="#DejaVuSans-32" transform="translate(95.410156 0)"/>
      </g>
     </g>
    </g>
    <g id="xtick_4">
     <g id="line2d_7">
      <path d="M 359.768466 250.421875 
L 359.768466 24.12 
" clip-path="url(#pc156bb8c3c)" style="fill: none; stroke-dasharray: 2.96,1.28; stroke-dashoffset: 0; stroke: #b0b0b0; stroke-opacity: 0.8; stroke-width: 0.8"/>
     </g>
     <g id="line2d_8">
      <g>
       <use xlink:href="#mdb07c9010c" x="359.768466" y="250.421875" style="stroke: #000000; stroke-width: 0.8"/>
      </g>
     </g>
     <g id="text_4">
      <!-- 0.3 -->
      <g transform="translate(351.816903 265.020312) scale(0.1 -0.1)">
       <defs>
        <path id="DejaVuSans-33" d="M 2597 2516 
Q 3050 2419 3304 2112 
Q 3559 1806 3559 1356 
Q 3559 666 3084 287 
Q 2609 -91 1734 -91 
Q 1441 -91 1130 -33 
Q 819 25 488 141 
L 488 750 
Q 750 597 1062 519 
Q 1375 441 1716 441 
Q 2309 441 2620 675 
Q 2931 909 2931 1356 
Q 2931 1769 2642 2001 
Q 2353 2234 1838 2234 
L 1294 2234 
L 1294 2753 
L 1863 2753 
Q 2328 2753 2575 2939 
Q 2822 3125 2822 3475 
Q 2822 3834 2567 4026 
Q 2313 4219 1838 4219 
Q 1578 4219 1281 4162 
Q 984 4106 628 3988 
L 628 4550 
Q 988 4650 1302 4700 
Q 1616 4750 1894 4750 
Q 2613 4750 3031 4423 
Q 3450 4097 3450 3541 
Q 3450 3153 3228 2886 
Q 3006 2619 2597 2516 
z
" transform="scale(0.015625)"/>
       </defs>
       <use xlink:href="#DejaVuSans-30"/>
       <use xlink:href="#DejaVuSans-2e" transform="translate(63.623047 0)"/>
       <use xlink:href="#DejaVuSans-33" transform="translate(95.410156 0)"/>
      </g>
     </g>
    </g>
    <g id="xtick_5">
     <g id="line2d_9">
      <path d="M 452.883546 250.421875 
L 452.883546 24.12 
" clip-path="url(#pc156bb8c3c)" style="fill: none; stroke-dasharray: 2.96,1.28; stroke-dashoffset: 0; stroke: #b0b0b0; stroke-opacity: 0.8; stroke-width: 0.8"/>
     </g>
     <g id="line2d_10">
      <g>
       <use xlink:href="#mdb07c9010c" x="452.883546" y="250.421875" style="stroke: #000000; stroke-width: 0.8"/>
      </g>
     </g>
     <g id="text_5">
      <!-- 0.4 -->
      <g transform="translate(444.931984 265.020312) scale(0.1 -0.1)">
       <defs>
        <path id="DejaVuSans-34" d="M 2419 4116 
L 825 1625 
L 2419 1625 
L 2419 4116 
z
M 2253 4666 
L 3047 4666 
L 3047 1625 
L 3713 1625 
L 3713 1100 
L 3047 1100 
L 3047 0 
L 2419 0 
L 2419 1100 
L 313 1100 
L 313 1709 
L 2253 4666 
z
" transform="scale(0.015625)"/>
       </defs>
       <use xlink:href="#DejaVuSans-30"/>
       <use xlink:href="#DejaVuSans-2e" transform="translate(63.623047 0)"/>
       <use xlink:href="#DejaVuSans-34" transform="translate(95.410156 0)"/>
      </g>
     </g>
    </g>
    <g id="xtick_6">
     <g id="line2d_11">
      <path d="M 545.998627 250.421875 
L 545.998627 24.12 
" clip-path="url(#pc156bb8c3c)" style="fill: none; stroke-dasharray: 2.96,1.28; stroke-dashoffset: 0; stroke: #b0b0b0; stroke-opacity: 0.8; stroke-width: 0.8"/>
     </g>
     <g id="line2d_12">
      <g>
       <use xlink:href="#mdb07c9010c" x="545.998627" y="250.421875" style="stroke: #000000; stroke-width: 0.8"/>
      </g>
     </g>
     <g id="text_6">
      <!-- 0.5 -->
      <g transform="translate(538.047064 265.020312) scale(0.1 -0.1)">
       <defs>
        <path id="DejaVuSans-35" d="M 691 4666 
L 3169 4666 
L 3169 4134 
L 1269 4134 
L 1269 2991 
Q 1406 3038 1543 3061 
Q 1681 3084 1819 3084 
Q 2600 3084 3056 2656 
Q 3513 2228 3513 1497 
Q 3513 744 3044 326 
Q 2575 -91 1722 -91 
Q 1428 -91 1123 -41 
Q 819 9 494 109 
L 494 744 
Q 775 591 1075 516 
Q 1375 441 1709 441 
Q 2250 441 2565 725 
Q 2881 1009 2881 1497 
Q 2881 1984 2565 2268 
Q 2250 2553 1709 2553 
Q 1456 2553 1204 2497 
Q 953 2441 691 2322 
L 691 4666 
z
" transform="scale(0.015625)"/>
       </defs>
       <use xlink:href="#DejaVuSans-30"/>
       <use xlink:href="#DejaVuSans-2e" transform="translate(63.623047 0)"/>
       <use xlink:href="#DejaVuSans-35" transform="translate(95.410156 0)"/>
      </g>
     </g>
    </g>
    <g id="text_7">
     <!-- Normalized frequency, $f/f_s$ -->
     <g transform="translate(247.383594 278.7) scale(0.1 -0.1)">
      <defs>
       <path id="DejaVuSans-4e" d="M 628 4666 
L 1478 4666 
L 3547 763 
L 3547 4666 
L 4159 4666 
L 4159 0 
L 3309 0 
L 1241 3903 
L 1241 0 
L 628 0 
L 628 4666 
z
" transform="scale(0.015625)"/>
       <path id="DejaVuSans-6f" d="M 1959 3097 
Q 1497 3097 1228 2736 
Q 959 2375 959 1747 
Q 959 1119 1226 758 
Q 1494 397 1959 397 
Q 2419 397 2687 759 
Q 2956 1122 2956 1747 
Q 2956 2369 2687 2733 
Q 2419 3097 1959 3097 
z
M 1959 3584 
Q 2709 3584 3137 3096 
Q 3566 2609 3566 1747 
Q 3566 888 3137 398 
Q 2709 -91 1959 -91 
Q 1206 -91 779 398 
Q 353 888 353 1747 
Q 353 2609 779 3096 
Q 1206 3584 1959 3584 
z
" transform="scale(0.015625)"/>
       <path id="DejaVuSans-72" d="M 2631 2963 
Q 2534 3019 2420 3045 
Q 2306 3072 2169 3072 
Q 1681 3072 1420 2755 
Q 1159 2438 1159 1844 
L 1159 0 
L 581 0 
L 581 3500 
L 1159 3500 
L 1159 2956 
Q 1341 3275 1631 3429 
Q 1922 3584 2338 3584 
Q 2397 3584 2469 3576 
Q 2541 3569 2628 3553 
L 2631 2963 
z
" transform="scale(0.015625)"/>
       <path id="DejaVuSans-6d" d="M 3328 2828 
Q 3544 3216 3844 3400 
Q 4144 3584 4550 3584 
Q 5097 3584 5394 3201 
Q 5691 2819 5691 2113 
L 5691 0 
L 5113 0 
L 5113 2094 
Q 5113 2597 4934 2840 
Q 4756 3084 4391 3084 
Q 3944 3084 3684 2787 
Q 3425 2491 3425 1978 
L 3425 0 
L 2847 0 
L 2847 2094 
Q 2847 2600 2669 2842 
Q 2491 3084 2119 3084 
Q 1678 3084 1418 2786 
Q 1159 2488 1159 1978 
L 1159 0 
L 581 0 
L 581 3500 
L 1159 3500 
L 1159 2956 
Q 1356 3278 1631 3431 
Q 1906 3584 2284 3584 
Q 2666 3584 2933 3390 
Q 3200 3197 3328 2828 
z
" transform="scale(0.015625)"/>
       <path id="DejaVuSans-61" d="M 2194 1759 
Q 1497 1759 1228 1600 
Q 959 1441 959 1056 
Q 959 750 1161 570 
Q 1363 391 1709 391 
Q 2188 391 2477 730 
Q 2766 1069 2766 1631 
L 2766 1759 
L 2194 1759 
z
M 3341 1997 
L 3341 0 
L 2766 0 
L 2766 531 
Q 2569 213 2275 61 
Q 1981 -91 1556 -91 
Q 1019 -91 701 211 
Q 384 513 384 1019 
Q 384 1609 779 1909 
Q 1175 2209 1959 2209 
L 2766 2209 
L 2766 2266 
Q 2766 2663 2505 2880 
Q 2244 3097 1772 3097 
Q 1472 3097 1187 3025 
Q 903 2953 641 2809 
L 641 3341 
Q 956 3463 1253 3523 
Q 1550 3584 1831 3584 
Q 2591 3584 2966 3190 
Q 3341 2797 3341 1997 
z
" transform="scale(0.015625)"/>
       <path id="DejaVuSans-6c" d="M 603 4863 
L 1178 4863 
L 1178 0 
L 603 0 
L 603 4863 
z
" transform="scale(0.015625)"/>
       <path id="DejaVuSans-69" d="M 603 3500 
L 1178 3500 
L 1178 0 
L 603 0 
L 603 3500 
z
M 603 4863 
L 1178 4863 
L 1178 4134 
L 603 4134 
L 603 4863 
z
" transform="scale(0.015625)"/>
       <path id="DejaVuSans-7a" d="M 353 3500 
L 3084 3500 
L 3084 2975 
L 922 459 
L 3084 459 
L 3084 0 
L 275 0 
L 275 525 
L 2438 3041 
L 353 3041 
L 353 3500 
z
" transform="scale(0.015625)"/>
       <path id="DejaVuSans-65" d="M 3597 1894 
L 3597 1613 
L 953 1613 
Q 991 1019 1311 708 
Q 1631 397 2203 397 
Q 2534 397 2845 478 
Q 3156 559 3463 722 
L 3463 178 
Q 3153 47 2828 -22 
Q 2503 -91 2169 -91 
Q 1331 -91 842 396 
Q 353 884 353 1716 
Q 353 2575 817 3079 
Q 1281 3584 2069 3584 
Q 2775 3584 3186 3129 
Q 3597 2675 3597 1894 
z
M 3022 2063 
Q 3016 2534 2758 2815 
Q 2500 3097 2075 3097 
Q 1594 3097 1305 2825 
Q 1016 2553 972 2059 
L 3022 2063 
z
" transform="scale(0.015625)"/>
       <path id="DejaVuSans-64" d="M 2906 2969 
L 2906 4863 
L 3481 4863 
L 3481 0 
L 2906 0 
L 2906 525 
Q 2725 213 2448 61 
Q 2172 -91 1784 -91 
Q 1150 -91 751 415 
Q 353 922 353 1747 
Q 353 2572 751 3078 
Q 1150 3584 1784 3584 
Q 2172 3584 2448 3432 
Q 2725 3281 2906 2969 
z
M 947 1747 
Q 947 1113 1208 752 
Q 1469 391 1925 391 
Q 2381 391 2643 752 
Q 2906 1113 2906 1747 
Q 2906 2381 2643 2742 
Q 2381 3103 1925 3103 
Q 1469 3103 1208 2742 
Q 947 2381 947 1747 
z
" transform="scale(0.015625)"/>
       <path id="DejaVuSans-20" transform="scale(0.015625)"/>
       <path id="DejaVuSans-66" d="M 2375 4863 
L 2375 4384 
L 1825 4384 
Q 1516 4384 1395 4259 
Q 1275 4134 1275 3809 
L 1275 3500 
L 2222 3500 
L 2222 3053 
L 1275 3053 
L 1275 0 
L 697 0 
L 697 3053 
L 147 3053 
L 147 3500 
L 697 3500 
L 697 3744 
Q 697 4328 969 4595 
Q 1241 4863 1831 4863 
L 2375 4863 
z
" transform="scale(0.015625)"/>
       <path id="DejaVuSans-71" d="M 947 1747 
Q 947 1113 1208 752 
Q 1469 391 1925 391 
Q 2381 391 2643 752 
Q 2906 1113 2906 1747 
Q 2906 2381 2643 2742 
Q 2381 3103 1925 3103 
Q 1469 3103 1208 2742 
Q 947 2381 947 1747 
z
M 2906 525 
Q 2725 213 2448 61 
Q 2172 -91 1784 -91 
Q 1150 -91 751 415 
Q 353 922 353 1747 
Q 353 2572 751 3078 
Q 1150 3584 1784 3584 
Q 2172 3584 2448 3432 
Q 2725 3281 2906 2969 
L 2906 3500 
L 3481 3500 
L 3481 -1331 
L 2906 -1331 
L 2906 525 
z
" transform="scale(0.015625)"/>
       <path id="DejaVuSans-75" d="M 544 1381 
L 544 3500 
L 1119 3500 
L 1119 1403 
Q 1119 906 1312 657 
Q 1506 409 1894 409 
Q 2359 409 2629 706 
Q 2900 1003 2900 1516 
L 2900 3500 
L 3475 3500 
L 3475 0 
L 2900 0 
L 2900 538 
Q 2691 219 2414 64 
Q 2138 -91 1772 -91 
Q 1169 -91 856 284 
Q 544 659 544 1381 
z
M 1991 3584 
L 1991 3584 
z
" transform="scale(0.015625)"/>
       <path id="DejaVuSans-6e" d="M 3513 2113 
L 3513 0 
L 2938 0 
L 2938 2094 
Q 2938 2591 2744 2837 
Q 2550 3084 2163 3084 
Q 1697 3084 1428 2787 
Q 1159 2491 1159 1978 
L 1159 0 
L 581 0 
L 581 3500 
L 1159 3500 
L 1159 2956 
Q 1366 3272 1645 3428 
Q 1925 3584 2291 3584 
Q 2894 3584 3203 3211 
Q 3513 2838 3513 2113 
z
" transform="scale(0.015625)"/>
       <path id="DejaVuSans-63" d="M 3122 3366 
L 3122 2828 
Q 2878 2963 2633 3030 
Q 2388 3097 2138 3097 
Q 1578 3097 1268 2742 
Q 959 2388 959 1747 
Q 959 1106 1268 751 
Q 1578 397 2138 397 
Q 2388 397 2633 464 
Q 2878 531 3122 666 
L 3122 134 
Q 2881 22 2623 -34 
Q 2366 -91 2075 -91 
Q 1284 -91 818 406 
Q 353 903 353 1747 
Q 353 2603 823 3093 
Q 1294 3584 2113 3584 
Q 2378 3584 2631 3529 
Q 2884 3475 3122 3366 
z
" transform="scale(0.015625)"/>
       <path id="DejaVuSans-79" d="M 2059 -325 
Q 1816 -950 1584 -1140 
Q 1353 -1331 966 -1331 
L 506 -1331 
L 506 -850 
L 844 -850 
Q 1081 -850 1212 -737 
Q 1344 -625 1503 -206 
L 1606 56 
L 191 3500 
L 800 3500 
L 1894 763 
L 2988 3500 
L 3597 3500 
L 2059 -325 
z
" transform="scale(0.015625)"/>
       <path id="DejaVuSans-2c" d="M 750 794 
L 1409 794 
L 1409 256 
L 897 -744 
L 494 -744 
L 750 256 
L 750 794 
z
" transform="scale(0.015625)"/>
       <path id="DejaVuSans-Oblique-66" d="M 3059 4863 
L 2969 4384 
L 2419 4384 
Q 2106 4384 1964 4261 
Q 1822 4138 1753 3809 
L 1691 3500 
L 2638 3500 
L 2553 3053 
L 1606 3053 
L 1013 0 
L 434 0 
L 1031 3053 
L 481 3053 
L 563 3500 
L 1113 3500 
L 1159 3744 
Q 1278 4363 1576 4613 
Q 1875 4863 2516 4863 
L 3059 4863 
z
" transform="scale(0.015625)"/>
       <path id="DejaVuSans-2f" d="M 1625 4666 
L 2156 4666 
L 531 -594 
L 0 -594 
L 1625 4666 
z
" transform="scale(0.015625)"/>
       <path id="DejaVuSans-Oblique-73" d="M 3200 3397 
L 3091 2853 
Q 2863 2978 2609 3040 
Q 2356 3103 2088 3103 
Q 1634 3103 1373 2948 
Q 1113 2794 1113 2528 
Q 1113 2219 1719 2053 
Q 1766 2041 1788 2034 
L 1972 1978 
Q 2547 1819 2739 1644 
Q 2931 1469 2931 1166 
Q 2931 609 2489 259 
Q 2047 -91 1331 -91 
Q 1053 -91 747 -37 
Q 441 16 72 128 
L 184 722 
Q 500 559 806 475 
Q 1113 391 1394 391 
Q 1816 391 2080 572 
Q 2344 753 2344 1031 
Q 2344 1331 1650 1516 
L 1591 1531 
L 1394 1581 
Q 956 1697 753 1886 
Q 550 2075 550 2369 
Q 550 2928 970 3256 
Q 1391 3584 2113 3584 
Q 2397 3584 2667 3537 
Q 2938 3491 3200 3397 
z
" transform="scale(0.015625)"/>
      </defs>
      <use xlink:href="#DejaVuSans-4e" transform="translate(0 0.015625)"/>
      <use xlink:href="#DejaVuSans-6f" transform="translate(74.804688 0.015625)"/>
      <use xlink:href="#DejaVuSans-72" transform="translate(135.986328 0.015625)"/>
      <use xlink:href="#DejaVuSans-6d" transform="translate(177.099609 0.015625)"/>
      <use xlink:href="#DejaVuSans-61" transform="translate(274.511719 0.015625)"/>
      <use xlink:href="#DejaVuSans-6c" transform="translate(335.791016 0.015625)"/>
      <use xlink:href="#DejaVuSans-69" transform="translate(363.574219 0.015625)"/>
      <use xlink:href="#DejaVuSans-7a" transform="translate(391.357422 0.015625)"/>
      <use xlink:href="#DejaVuSans-65" transform="translate(443.847656 0.015625)"/>
      <use xlink:href="#DejaVuSans-64" transform="translate(505.371094 0.015625)"/>
      <use xlink:href="#DejaVuSans-20" transform="translate(568.847656 0.015625)"/>
      <use xlink:href="#DejaVuSans-66" transform="translate(600.634766 0.015625)"/>
      <use xlink:href="#DejaVuSans-72" transform="translate(635.839844 0.015625)"/>
      <use xlink:href="#DejaVuSans-65" transform="translate(676.953125 0.015625)"/>
      <use xlink:href="#DejaVuSans-71" transform="translate(738.476562 0.015625)"/>
      <use xlink:href="#DejaVuSans-75" transform="translate(801.953125 0.015625)"/>
      <use xlink:href="#DejaVuSans-65" transform="translate(865.332031 0.015625)"/>
      <use xlink:href="#DejaVuSans-6e" transform="translate(926.855469 0.015625)"/>
      <use xlink:href="#DejaVuSans-63" transform="translate(990.234375 0.015625)"/>
      <use xlink:href="#DejaVuSans-79" transform="translate(1045.214844 0.015625)"/>
      <use xlink:href="#DejaVuSans-2c" transform="translate(1104.394531 0.015625)"/>
      <use xlink:href="#DejaVuSans-20" transform="translate(1136.181641 0.015625)"/>
      <use xlink:href="#DejaVuSans-Oblique-66" transform="translate(1167.96875 0.015625)"/>
      <use xlink:href="#DejaVuSans-2f" transform="translate(1203.173828 0.015625)"/>
      <use xlink:href="#DejaVuSans-Oblique-66" transform="translate(1236.865234 0.015625)"/>
      <use xlink:href="#DejaVuSans-Oblique-73" transform="translate(1272.070312 -16.390625) scale(0.7)"/>
     </g>
    </g>
   </g>
   <g id="matplotlib.axis_2">
    <g id="ytick_1">
     <g id="line2d_13">
      <path d="M 57.167188 235.584267 
L 568.8 235.584267 
" clip-path="url(#pc156bb8c3c)" style="fill: none; stroke-dasharray: 2.96,1.28; stroke-dashoffset: 0; stroke: #b0b0b0; stroke-opacity: 0.8; stroke-width: 0.8"/>
     </g>
     <g id="line2d_14">
      <defs>
       <path id="m5ce417aa70" d="M 0 0 
L -3.5 0 
" style="stroke: #000000; stroke-width: 0.8"/>
      </defs>
      <g>
       <use xlink:href="#m5ce417aa70" x="57.167188" y="235.584267" style="stroke: #000000; stroke-width: 0.8"/>
      </g>
     </g>
     <g id="text_8">
      <!-- −120 -->
      <g transform="translate(22.7 239.383485) scale(0.1 -0.1)">
       <defs>
        <path id="DejaVuSans-2212" d="M 678 2272 
L 4684 2272 
L 4684 1741 
L 678 1741 
L 678 2272 
z
" transform="scale(0.015625)"/>
       </defs>
       <use xlink:href="#DejaVuSans-2212"/>
       <use xlink:href="#DejaVuSans-31" transform="translate(83.789062 0)"/>
       <use xlink:href="#DejaVuSans-32" transform="translate(147.412109 0)"/>
       <use xlink:href="#DejaVuSans-30" transform="translate(211.035156 0)"/>
      </g>
     </g>
    </g>
    <g id="ytick_2">
     <g id="line2d_15">
      <path d="M 57.167188 202.05652 
L 568.8 202.05652 
" clip-path="url(#pc156bb8c3c)" style="fill: none; stroke-dasharray: 2.96,1.28; stroke-dashoffset: 0; stroke: #b0b0b0; stroke-opacity: 0.8; stroke-width: 0.8"/>
     </g>
     <g id="line2d_16">
      <g>
       <use xlink:href="#m5ce417aa70" x="57.167188" y="202.05652" style="stroke: #000000; stroke-width: 0.8"/>
      </g>
     </g>
     <g id="text_9">
      <!-- −100 -->
      <g transform="translate(22.7 205.855739) scale(0.1 -0.1)">
       <use xlink:href="#DejaVuSans-2212"/>
       <use xlink:href="#DejaVuSans-31" transform="translate(83.789062 0)"/>
       <use xlink:href="#DejaVuSans-30" transform="translate(147.412109 0)"/>
       <use xlink:href="#DejaVuSans-30" transform="translate(211.035156 0)"/>
      </g>
     </g>
    </g>
    <g id="ytick_3">
     <g id="line2d_17">
      <path d="M 57.167188 168.528774 
L 568.8 168.528774 
" clip-path="url(#pc156bb8c3c)" style="fill: none; stroke-dasharray: 2.96,1.28; stroke-dashoffset: 0; stroke: #b0b0b0; stroke-opacity: 0.8; stroke-width: 0.8"/>
     </g>
     <g id="line2d_18">
      <g>
       <use xlink:href="#m5ce417aa70" x="57.167188" y="168.528774" style="stroke: #000000; stroke-width: 0.8"/>
      </g>
     </g>
     <g id="text_10">
      <!-- −80 -->
      <g transform="translate(29.0625 172.327992) scale(0.1 -0.1)">
       <defs>
        <path id="DejaVuSans-38" d="M 2034 2216 
Q 1584 2216 1326 1975 
Q 1069 1734 1069 1313 
Q 1069 891 1326 650 
Q 1584 409 2034 409 
Q 2484 409 2743 651 
Q 3003 894 3003 1313 
Q 3003 1734 2745 1975 
Q 2488 2216 2034 2216 
z
M 1403 2484 
Q 997 2584 770 2862 
Q 544 3141 544 3541 
Q 544 4100 942 4425 
Q 1341 4750 2034 4750 
Q 2731 4750 3128 4425 
Q 3525 4100 3525 3541 
Q 3525 3141 3298 2862 
Q 3072 2584 2669 2484 
Q 3125 2378 3379 2068 
Q 3634 1759 3634 1313 
Q 3634 634 3220 271 
Q 2806 -91 2034 -91 
Q 1263 -91 848 271 
Q 434 634 434 1313 
Q 434 1759 690 2068 
Q 947 2378 1403 2484 
z
M 1172 3481 
Q 1172 3119 1398 2916 
Q 1625 2713 2034 2713 
Q 2441 2713 2670 2916 
Q 2900 3119 2900 3481 
Q 2900 3844 2670 4047 
Q 2441 4250 2034 4250 
Q 1625 4250 1398 4047 
Q 1172 3844 1172 3481 
z
" transform="scale(0.015625)"/>
       </defs>
       <use xlink:href="#DejaVuSans-2212"/>
       <use xlink:href="#DejaVuSans-38" transform="translate(83.789062 0)"/>
       <use xlink:href="#DejaVuSans-30" transform="translate(147.412109 0)"/>
      </g>
     </g>
    </g>
    <g id="ytick_4">
     <g id="line2d_19">
      <path d="M 57.167188 135.001027 
L 568.8 135.001027 
" clip-path="url(#pc156bb8c3c)" style="fill: none; stroke-dasharray: 2.96,1.28; stroke-dashoffset: 0; stroke: #b0b0b0; stroke-opacity: 0.8; stroke-width: 0.8"/>
     </g>
     <g id="line2d_20">
      <g>
       <use xlink:href="#m5ce417aa70" x="57.167188" y="135.001027" style="stroke: #000000; stroke-width: 0.8"/>
      </g>
     </g>
     <g id="text_11">
      <!-- −60 -->
      <g transform="translate(29.0625 138.800246) scale(0.1 -0.1)">
       <defs>
        <path id="DejaVuSans-36" d="M 2113 2584 
Q 1688 2584 1439 2293 
Q 1191 2003 1191 1497 
Q 1191 994 1439 701 
Q 1688 409 2113 409 
Q 2538 409 2786 701 
Q 3034 994 3034 1497 
Q 3034 2003 2786 2293 
Q 2538 2584 2113 2584 
z
M 3366 4563 
L 3366 3988 
Q 3128 4100 2886 4159 
Q 2644 4219 2406 4219 
Q 1781 4219 1451 3797 
Q 1122 3375 1075 2522 
Q 1259 2794 1537 2939 
Q 1816 3084 2150 3084 
Q 2853 3084 3261 2657 
Q 3669 2231 3669 1497 
Q 3669 778 3244 343 
Q 2819 -91 2113 -91 
Q 1303 -91 875 529 
Q 447 1150 447 2328 
Q 447 3434 972 4092 
Q 1497 4750 2381 4750 
Q 2619 4750 2861 4703 
Q 3103 4656 3366 4563 
z
" transform="scale(0.015625)"/>
       </defs>
       <use xlink:href="#DejaVuSans-2212"/>
       <use xlink:href="#DejaVuSans-36" transform="translate(83.789062 0)"/>
       <use xlink:href="#DejaVuSans-30" transform="translate(147.412109 0)"/>
      </g>
     </g>
    </g>
    <g id="ytick_5">
     <g id="line2d_21">
      <path d="M 57.167188 101.473281 
L 568.8 101.473281 
" clip-path="url(#pc156bb8c3c)" style="fill: none; stroke-dasharray: 2.96,1.28; stroke-dashoffset: 0; stroke: #b0b0b0; stroke-opacity: 0.8; stroke-width: 0.8"/>
     </g>
     <g id="line2d_22">
      <g>
       <use xlink:href="#m5ce417aa70" x="57.167188" y="101.473281" style="stroke: #000000; stroke-width: 0.8"/>
      </g>
     </g>
     <g id="text_12">
      <!-- −40 -->
      <g transform="translate(29.0625 105.272499) scale(0.1 -0.1)">
       <use xlink:href="#DejaVuSans-2212"/>
       <use xlink:href="#DejaVuSans-34" transform="translate(83.789062 0)"/>
       <use xlink:href="#DejaVuSans-30" transform="translate(147.412109 0)"/>
      </g>
     </g>
    </g>
    <g id="ytick_6">
     <g id="line2d_23">
      <path d="M 57.167188 67.945534 
L 568.8 67.945534 
" clip-path="url(#pc156bb8c3c)" style="fill: none; stroke-dasharray: 2.96,1.28; stroke-dashoffset: 0; stroke: #b0b0b0; stroke-opacity: 0.8; stroke-width: 0.8"/>
     </g>
     <g id="line2d_24">
      <g>
       <use xlink:href="#m5ce417aa70" x="57.167188" y="67.945534" style="stroke: #000000; stroke-width: 0.8"/>
      </g>
     </g>
     <g id="text_13">
      <!-- −20 -->
      <g transform="translate(29.0625 71.744753) scale(0.1 -0.1)">
       <use xlink:href="#DejaVuSans-2212"/>
       <use xlink:href="#DejaVuSans-32" transform="translate(83.789062 0)"/>
       <use xlink:href="#DejaVuSans-30" transform="translate(147.412109 0)"/>
      </g>
     </g>
    </g>
    <g id="ytick_7">
     <g id="line2d_25">
      <path d="M 57.167188 34.417787 
L 568.8 34.417787 
" clip-path="url(#pc156bb8c3c)" style="fill: none; stroke-dasharray: 2.96,1.28; stroke-dashoffset: 0; stroke: #b0b0b0; stroke-opacity: 0.8; stroke-width: 0.8"/>
     </g>
     <g id="line2d_26">
      <g>
       <use xlink:href="#m5ce417aa70" x="57.167188" y="34.417787" style="stroke: #000000; stroke-width: 0.8"/>
      </g>
     </g>
     <g id="text_14">
      <!-- 0 -->
      <g transform="translate(43.804688 38.217006) scale(0.1 -0.1)">
       <use xlink:href="#DejaVuSans-30"/>
      </g>
     </g>
    </g>
    <g id="text_15">
     <!-- Power (dB), $|H(\omega)|^2$ -->
     <g transform="translate(16.3 185.470937) rotate(-90) scale(0.1 -0.1)">
      <defs>
       <path id="DejaVuSans-50" d="M 1259 4147 
L 1259 2394 
L 2053 2394 
Q 2494 2394 2734 2622 
Q 2975 2850 2975 3272 
Q 2975 3691 2734 3919 
Q 2494 4147 2053 4147 
L 1259 4147 
z
M 628 4666 
L 2053 4666 
Q 2838 4666 3239 4311 
Q 3641 3956 3641 3272 
Q 3641 2581 3239 2228 
Q 2838 1875 2053 1875 
L 1259 1875 
L 1259 0 
L 628 0 
L 628 4666 
z
" transform="scale(0.015625)"/>
       <path id="DejaVuSans-77" d="M 269 3500 
L 844 3500 
L 1563 769 
L 2278 3500 
L 2956 3500 
L 3675 769 
L 4391 3500 
L 4966 3500 
L 4050 0 
L 3372 0 
L 2619 2869 
L 1863 0 
L 1184 0 
L 269 3500 
z
" transform="scale(0.015625)"/>
       <path id="DejaVuSans-28" d="M 1984 4856 
Q 1566 4138 1362 3434 
Q 1159 2731 1159 2009 
Q 1159 1288 1364 580 
Q 1569 -128 1984 -844 
L 1484 -844 
Q 1016 -109 783 600 
Q 550 1309 550 2009 
Q 550 2706 781 3412 
Q 1013 4119 1484 4856 
L 1984 4856 
z
" transform="scale(0.015625)"/>
       <path id="DejaVuSans-42" d="M 1259 2228 
L 1259 519 
L 2272 519 
Q 2781 519 3026 730 
Q 3272 941 3272 1375 
Q 3272 1813 3026 2020 
Q 2781 2228 2272 2228 
L 1259 2228 
z
M 1259 4147 
L 1259 2741 
L 2194 2741 
Q 2656 2741 2882 2914 
Q 3109 3088 3109 3444 
Q 3109 3797 2882 3972 
Q 2656 4147 2194 4147 
L 1259 4147 
z
M 628 4666 
L 2241 4666 
Q 2963 4666 3353 4366 
Q 3744 4066 3744 3513 
Q 3744 3084 3544 2831 
Q 3344 2578 2956 2516 
Q 3422 2416 3680 2098 
Q 3938 1781 3938 1306 
Q 3938 681 3513 340 
Q 3088 0 2303 0 
L 628 0 
L 628 4666 
z
" transform="scale(0.015625)"/>
       <path id="DejaVuSans-29" d="M 513 4856 
L 1013 4856 
Q 1481 4119 1714 3412 
Q 1947 2706 1947 2009 
Q 1947 1309 1714 600 
Q 1481 -109 1013 -844 
L 513 -844 
Q 928 -128 1133 580 
Q 1338 1288 1338 2009 
Q 1338 2731 1133 3434 
Q 928 4138 513 4856 
z
" transform="scale(0.015625)"/>
       <path id="DejaVuSans-7c" d="M 1344 4891 
L 1344 -1509 
L 813 -1509 
L 813 4891 
L 1344 4891 
z
" transform="scale(0.015625)"/>
       <path id="DejaVuSans-Oblique-48" d="M 1081 4666 
L 1716 4666 
L 1344 2753 
L 3634 2753 
L 4006 4666 
L 4641 4666 
L 3731 0 
L 3097 0 
L 3531 2222 
L 1241 2222 
L 806 0 
L 172 0 
L 1081 4666 
z
" transform="scale(0.015625)"/>
       <path id="DejaVuSans-Oblique-3c9" d="M 1369 -91 
Q 72 -91 434 1766 
Q 575 2500 1256 3500 
L 1875 3500 
Q 1231 2500 1088 1750 
Q 819 397 1519 397 
Q 2166 397 2478 2078 
L 3009 2078 
Q 2669 388 3316 397 
Q 4013 403 4275 1750 
Q 4419 2500 4169 3500 
L 4788 3500 
Q 5075 2500 4934 1766 
Q 4578 -94 3278 -91 
Q 2428 -88 2503 844 
Q 2194 -91 1369 -91 
z
" transform="scale(0.015625)"/>
      </defs>
      <use xlink:href="#DejaVuSans-50" transform="translate(0 0.765625)"/>
      <use xlink:href="#DejaVuSans-6f" transform="translate(60.302734 0.765625)"/>
      <use xlink:href="#DejaVuSans-77" transform="translate(121.484375 0.765625)"/>
      <use xlink:href="#DejaVuSans-65" transform="translate(203.271484 0.765625)"/>
      <use xlink:href="#DejaVuSans-72" transform="translate(264.794922 0.765625)"/>
      <use xlink:href="#DejaVuSans-20" transform="translate(305.908203 0.765625)"/>
      <use xlink:href="#DejaVuSans-28" transform="translate(337.695312 0.765625)"/>
      <use xlink:href="#DejaVuSans-64" transform="translate(376.708984 0.765625)"/>
      <use xlink:href="#DejaVuSans-42" transform="translate(440.185547 0.765625)"/>
      <use xlink:href="#DejaVuSans-29" transform="translate(508.789062 0.765625)"/>
      <use xlink:href="#DejaVuSans-2c" transform="translate(547.802734 0.765625)"/>
      <use xlink:href="#DejaVuSans-20" transform="translate(579.589844 0.765625)"/>
      <use xlink:href="#DejaVuSans-7c" transform="translate(611.376953 0.765625)"/>
      <use xlink:href="#DejaVuSans-Oblique-48" transform="translate(645.068359 0.765625)"/>
      <use xlink:href="#DejaVuSans-28" transform="translate(720.263672 0.765625)"/>
      <use xlink:href="#DejaVuSans-Oblique-3c9" transform="translate(759.277344 0.765625)"/>
      <use xlink:href="#DejaVuSans-29" transform="translate(843.017578 0.765625)"/>
      <use xlink:href="#DejaVuSans-7c" transform="translate(882.03125 0.765625)"/>
      <use xlink:href="#DejaVuSans-32" transform="translate(916.679688 39.046875) scale(0.7)"/>
     </g>
    </g>
   </g>
   <g id="line2d_27">
    <path d="M 80.423224 154.765991 
L 80.877888 154.938026 
L 81.332551 155.462463 
L 81.787215 156.365981 
L 82.241878 157.69944 
L 82.696542 159.550852 
L 83.151205 162.073758 
L 83.605869 165.555693 
L 84.060532 170.617831 
L 84.515196 179.041559 
L 84.969859 202.992493 
L 85.424523 186.03615 
L 85.879186 173.979627 
L 86.33385 167.695637 
L 86.788513 163.575298 
L 87.243177 160.644004 
L 87.69784 158.496913 
L 88.152504 156.92977 
L 88.607167 155.828516 
L 89.061831 155.126915 
L 89.516494 154.78786 
L 89.971157 154.794731 
L 90.425821 155.147942 
L 90.880484 155.865024 
L 91.335148 156.984279 
L 91.789811 158.573775 
L 92.244475 160.750779 
L 92.699138 163.726033 
L 93.153802 167.92019 
L 93.608465 174.359871 
L 94.517792 200.172438 
L 94.972456 178.431617 
L 95.427119 170.265505 
L 95.881783 165.304613 
L 96.336446 161.877772 
L 96.79111 159.3903 
L 97.245773 157.564299 
L 97.700437 156.250619 
L 98.1551 155.3636 
L 98.609764 154.853823 
L 99.064427 154.695622 
L 99.519091 154.881513 
L 99.973754 155.420676 
L 100.428417 156.340823 
L 100.883081 157.694283 
L 101.337744 159.571485 
L 101.792408 162.13053 
L 102.247071 165.669027 
L 102.701735 170.836274 
L 103.156398 179.534347 
L 103.611062 206.33555 
L 104.065725 185.005244 
L 104.520389 173.469451 
L 104.975052 167.334274 
L 105.429716 163.285592 
L 105.884379 160.39732 
L 106.339043 158.279658 
L 106.793706 156.734594 
L 107.24837 155.65118 
L 107.703033 154.964968 
L 108.157697 154.640027 
L 108.61236 154.660642 
L 109.067024 155.028055 
L 109.521687 155.760716 
L 109.976351 156.89815 
L 110.431014 158.510304 
L 110.885677 160.717763 
L 111.340341 163.738032 
L 111.795004 168.008436 
L 112.249668 174.611592 
L 112.704331 187.872137 
L 113.158995 197.654482 
L 113.613658 177.700741 
L 114.068322 169.777627 
L 114.522985 164.91455 
L 114.977649 161.541497 
L 115.432312 159.088836 
L 115.886976 157.287902 
L 116.341639 155.993802 
L 116.796303 155.123165 
L 117.250966 154.627984 
L 117.70563 154.483599 
L 118.160293 154.68337 
L 118.614957 155.237333 
L 119.06962 156.174248 
L 119.524284 157.547953 
L 119.978947 159.451374 
L 120.433611 162.047347 
L 120.888274 165.644057 
L 121.342938 170.920768 
L 121.797601 179.912433 
L 122.252264 210.632975 
L 122.706928 183.884179 
L 123.161591 172.826254 
L 123.616255 166.833802 
L 124.070918 162.85486 
L 124.525582 160.008777 
L 124.980245 157.920114 
L 125.434909 156.396882 
L 125.889572 155.33116 
L 126.344236 154.660252 
L 126.798899 154.349388 
L 127.253563 154.383749 
L 127.708226 154.765413 
L 128.16289 155.513763 
L 128.617553 156.66957 
L 129.072217 158.304722 
L 129.52688 160.543245 
L 129.981544 163.609718 
L 130.436207 167.959105 
L 130.890871 174.734581 
L 131.345534 188.701477 
L 131.800198 195.308389 
L 132.254861 176.843637 
L 132.709524 169.150716 
L 133.164188 164.382411 
L 133.618851 161.061994 
L 134.073515 158.643589 
L 134.528178 156.867418 
L 134.982842 155.592716 
L 135.437505 154.738353 
L 135.892169 154.25771 
L 136.346832 154.127125 
L 136.801496 154.340801 
L 137.256159 154.909645 
L 137.710823 155.863483 
L 138.165486 157.257705 
L 138.62015 159.187823 
L 139.074813 161.821615 
L 139.529477 165.478402 
L 139.98414 170.86951 
L 140.438804 180.177073 
L 140.893467 216.936136 
L 141.348131 182.661574 
L 141.802794 172.045114 
L 142.257458 166.190006 
L 142.712121 162.279112 
L 143.166784 159.474486 
L 143.621448 157.41444 
L 144.076111 155.91282 
L 144.530775 154.864657 
L 144.985438 154.208974 
L 145.440102 153.91215 
L 145.894765 153.960265 
L 146.349429 154.356233 
L 146.804092 155.12039 
L 147.258756 156.29479 
L 147.713419 157.953321 
L 148.168083 160.223595 
L 148.622746 163.337614 
L 149.07741 167.769088 
L 149.532073 174.727 
L 149.986737 189.491365 
L 150.4414 193.04867 
L 150.896064 175.853238 
L 151.350727 168.379293 
L 151.805391 163.703082 
L 152.260054 160.434289 
L 152.714718 158.049656 
L 153.169381 156.297979 
L 153.624044 155.042514 
L 154.078708 154.204324 
L 154.533371 153.738164 
L 154.988035 153.621364 
L 155.442698 153.848977 
L 155.897362 154.432789 
L 156.352025 155.403723 
L 156.806689 156.818768 
L 157.261352 158.776124 
L 157.716016 161.448742 
L 158.170679 165.167724 
L 158.625343 170.678856 
L 159.080006 180.328425 
L 159.53467 229.353944 
L 159.989333 181.325071 
L 160.443997 171.119019 
L 160.89866 165.39653 
L 161.353324 161.552209 
L 161.807987 158.788405 
L 162.262651 156.756646 
L 162.717314 155.276443 
L 163.171978 154.245717 
L 163.626641 153.605185 
L 164.081304 153.322368 
L 164.535968 153.384244 
L 164.990631 153.794578 
L 165.445295 154.574675 
L 165.899958 155.767911 
L 166.354622 157.450253 
L 166.809285 159.753058 
L 167.263949 162.916155 
L 167.718612 167.433261 
L 168.173276 174.585288 
L 168.627939 190.261743 
L 169.082603 190.813642 
L 169.537266 174.720341 
L 169.99193 167.455587 
L 170.446593 162.86914 
L 170.901257 159.651103 
L 171.35592 157.299828 
L 171.810584 155.572413 
L 172.265247 154.336039 
L 172.719911 153.513931 
L 173.174574 153.062204 
L 173.629238 152.959177 
L 174.083901 153.200761 
L 174.538565 153.799639 
L 174.993228 154.787861 
L 175.447891 156.224076 
L 175.902555 158.209287 
L 176.357218 160.921887 
L 176.811882 164.705492 
L 177.266545 170.343128 
L 177.721209 180.365637 
L 178.175872 240.135426 
L 178.630536 179.860652 
L 179.085199 170.038484 
L 179.539863 164.444515 
L 179.994526 160.665508 
L 180.44919 157.941991 
L 180.903853 155.93824 
L 181.358517 154.479285 
L 181.81318 153.465887 
L 182.267844 152.840438 
L 182.722507 152.571598 
L 183.177171 152.647246 
L 183.631834 153.072012 
L 184.086498 153.868199 
L 184.541161 155.080548 
L 184.995825 156.787196 
L 185.450488 159.12343 
L 185.905151 162.337369 
L 186.359815 166.944201 
L 186.814478 174.303982 
L 187.269142 191.040348 
L 187.723805 188.554516 
L 188.178469 173.433101 
L 188.633132 166.36908 
L 189.087796 161.870419 
L 189.542459 158.702419 
L 189.997123 156.384161 
L 190.451786 154.680813 
L 190.90645 153.463405 
L 191.361113 152.657295 
L 191.815777 152.219951 
L 192.27044 152.130687 
L 192.725104 152.386283 
L 193.179767 153.000339 
L 193.634431 154.006069 
L 194.089094 155.463852 
L 194.543758 157.47763 
L 194.998421 160.23155 
L 195.453085 164.082596 
L 195.907748 169.854296 
L 196.362411 180.286957 
L 196.817075 218.172835 
L 197.271738 178.251849 
L 197.726402 168.790991 
L 198.181065 163.322059 
L 198.635729 159.607337 
L 199.090392 156.923682 
L 199.545056 154.947714 
L 199.999719 153.509867 
L 200.454383 152.513699 
L 200.909046 151.90327 
L 201.36371 151.648376 
L 201.818373 151.737812 
L 202.273037 152.177087 
L 202.7277 152.989535 
L 203.182364 154.221318 
L 203.637027 155.952845 
L 204.091691 158.323555 
L 204.546354 161.590397 
L 205.001018 166.291748 
L 205.455681 173.875449 
L 205.910345 191.868427 
L 206.365008 186.228955 
L 206.819671 171.976328 
L 207.274335 165.105855 
L 207.728998 160.693368 
L 208.183662 157.574849 
L 208.638325 155.28935 
L 209.092989 153.609915 
L 209.547652 152.411367 
L 210.002316 151.621179 
L 210.456979 151.198173 
L 210.911643 151.122664 
L 211.366306 151.392317 
L 211.82097 152.021679 
L 212.275633 153.045173 
L 212.730297 154.524987 
L 213.18496 156.56817 
L 213.639624 159.364984 
L 214.094287 163.286792 
L 214.548951 169.20151 
L 215.003614 180.089923 
L 215.458278 208.701289 
L 215.912941 176.478776 
L 216.367605 167.360189 
L 216.822268 162.013455 
L 217.276931 158.362236 
L 217.731595 155.718139 
L 218.186258 153.769792 
L 218.640922 152.352942 
L 219.095585 151.373922 
L 219.550249 150.778454 
L 220.004912 150.537479 
L 220.459576 150.640721 
L 220.914239 151.094595 
L 221.368903 151.923503 
L 221.823566 153.175096 
L 222.27823 154.93218 
L 222.732893 157.338606 
L 223.187557 160.660798 
L 223.64222 165.462375 
L 224.096884 173.289491 
L 224.551547 192.811609 
L 225.006211 183.79671 
L 225.460874 170.330512 
L 225.915538 163.647674 
L 226.370201 159.320151 
L 226.824865 156.250739 
L 227.279528 153.997832 
L 227.734192 152.342204 
L 228.188855 151.162432 
L 228.643518 150.3881 
L 229.098182 149.979388 
L 229.552845 149.917628 
L 230.007509 150.201394 
L 230.462172 150.846211 
L 230.916836 151.88777 
L 231.371499 153.39017 
L 231.826163 155.463756 
L 232.280826 158.305349 
L 232.73549 162.301903 
L 233.190153 168.370438 
L 233.644817 179.771731 
L 234.09948 202.01528 
L 234.554144 174.516858 
L 235.008807 165.724793 
L 235.463471 160.498102 
L 235.918134 156.90989 
L 236.372798 154.305186 
L 236.827461 152.38437 
L 237.282125 150.988444 
L 237.736788 150.026504 
L 238.191452 149.445941 
L 238.646115 149.218859 
L 239.100778 149.335931 
L 239.555442 149.804511 
L 240.010105 150.650115 
L 240.464769 151.921969 
L 240.919432 153.705424 
L 241.374096 156.149065 
L 241.828759 159.529569 
L 242.283423 164.438295 
L 242.738086 172.532828 
L 243.19275 193.982381 
L 244.102077 168.47049 
L 244.55674 161.97069 
L 245.011404 157.727374 
L 245.466067 154.706909 
L 245.920731 152.486539 
L 246.375394 150.854668 
L 246.830058 149.693614 
L 247.284721 148.935079 
L 247.739385 148.540619 
L 248.194048 148.492606 
L 248.648712 148.79055 
L 249.103375 149.451003 
L 249.558038 150.510991 
L 250.012702 152.036645 
L 250.467365 154.141851 
L 250.922029 157.030525 
L 251.376692 161.106697 
L 251.831356 167.342343 
L 252.286019 179.329982 
L 252.740683 196.457592 
L 253.195346 172.335213 
L 253.65001 163.857068 
L 254.104673 158.749029 
L 254.559337 155.223656 
L 255.014 152.658349 
L 255.468664 150.765062 
L 255.923327 149.390025 
L 256.377991 148.445114 
L 256.832654 147.879408 
L 257.287318 147.666194 
L 257.741981 147.797126 
L 258.196645 148.280539 
L 258.651308 149.143127 
L 259.105972 150.435791 
L 259.560635 152.24662 
L 260.015298 154.729319 
L 260.469962 158.171788 
L 260.924625 163.196231 
L 261.379289 171.588402 
L 261.833952 195.59214 
L 262.288616 178.441356 
L 262.743279 166.363715 
L 263.197943 160.043748 
L 263.652606 155.884403 
L 264.10727 152.912979 
L 264.561933 150.725222 
L 265.016597 149.117126 
L 265.47126 147.974761 
L 265.925924 147.231974 
L 266.380587 146.851726 
L 266.835251 146.817459 
L 267.289914 147.129664 
L 267.744578 147.805971 
L 268.199241 148.884834 
L 268.653905 150.434571 
L 269.108568 152.572905 
L 269.563232 155.511516 
L 270.017895 159.673375 
L 270.472558 166.092832 
L 271.381885 191.40149 
L 271.836549 169.894731 
L 272.291212 161.720963 
L 272.745876 156.731026 
L 273.200539 153.268711 
L 273.655203 150.742999 
L 274.109866 148.87734 
L 274.56453 147.523211 
L 275.019193 146.595296 
L 275.473857 146.044399 
L 275.92852 145.845029 
L 276.383184 145.989862 
L 276.837847 146.488264 
L 277.292511 147.368192 
L 277.747174 148.682347 
L 278.201838 150.521794 
L 278.656501 153.04585 
L 279.111165 156.554849 
L 279.565828 161.705783 
L 280.020492 170.43444 
L 280.475155 198.092877 
L 280.929819 175.419347 
L 281.384482 163.968385 
L 281.839145 157.82648 
L 282.293809 153.751445 
L 282.748472 150.829444 
L 283.203136 148.674525 
L 283.657799 147.090295 
L 284.112463 145.966624 
L 284.567126 145.239548 
L 285.02179 144.873472 
L 285.476453 144.852956 
L 285.931117 145.179522 
L 286.38578 145.871953 
L 286.840444 146.970243 
L 287.295107 148.54509 
L 287.749771 150.718426 
L 288.204434 153.710542 
L 288.659098 157.965696 
L 289.113761 164.590177 
L 289.568425 178.07734 
L 290.023088 186.520037 
L 290.477752 167.146718 
L 290.932415 159.270523 
L 291.387079 154.39898 
L 291.841742 151.000336 
L 292.296405 148.514628 
L 292.751069 146.676803 
L 293.205732 145.343649 
L 293.660396 144.432718 
L 294.115059 143.896588 
L 294.569723 143.711039 
L 295.024386 143.869823 
L 295.47905 144.383408 
L 295.933713 145.281107 
L 296.388377 146.617586 
L 296.84304 148.487179 
L 297.297704 151.055423 
L 297.752367 154.636601 
L 298.207031 159.927492 
L 298.661694 169.042825 
L 299.116358 202.681095 
L 299.571021 172.090731 
L 300.025685 161.233151 
L 300.480348 155.268667 
L 300.935012 151.278761 
L 301.389675 148.406811 
L 301.844339 146.28509 
L 302.299002 144.724886 
L 302.753665 143.619944 
L 303.208329 142.908549 
L 303.662992 142.556608 
L 304.117656 142.549853 
L 304.572319 142.890899 
L 305.026983 143.599774 
L 305.481646 144.718141 
L 305.93631 146.319309 
L 306.390973 148.529871 
L 306.845637 151.579741 
L 307.3003 155.93735 
L 307.754964 162.793025 
L 308.209627 177.276938 
L 308.664291 181.613307 
L 309.118954 164.036502 
L 309.573618 156.452209 
L 310.028281 151.69968 
L 310.482945 148.365493 
L 310.937608 145.920295 
L 311.392272 144.110566 
L 311.846935 142.798485 
L 312.301599 141.904539 
L 312.756262 141.383142 
L 313.210925 141.211396 
L 313.665589 141.384189 
L 314.120252 141.913164 
L 314.574916 142.829099 
L 315.029579 144.188798 
L 315.484243 146.090181 
L 315.938906 148.705682 
L 316.39357 152.365242 
L 316.848233 157.811256 
L 317.302897 167.373606 
L 317.75756 214.54379 
L 318.212224 168.404713 
L 318.666887 158.107246 
L 319.121551 152.318646 
L 319.576214 148.414315 
L 320.030878 145.592877 
L 320.485541 143.50464 
L 320.940205 141.968596 
L 321.394868 140.882417 
L 321.849532 140.186687 
L 322.304195 139.848858 
L 322.758859 139.855876 
L 323.213522 140.211508 
L 323.668185 140.93709 
L 324.122849 142.07607 
L 324.577512 143.704558 
L 325.032176 145.954194 
L 325.486839 149.065422 
L 325.941503 153.533572 
L 326.396166 160.645445 
L 326.85083 176.342859 
L 327.305493 176.604074 
L 327.760157 160.534889 
L 328.21482 153.23007 
L 328.669484 148.594489 
L 329.124147 145.324298 
L 329.578811 142.919504 
L 330.033474 141.137852 
L 330.488138 139.84684 
L 330.942801 138.969879 
L 331.397465 138.463214 
L 331.852128 138.305278 
L 332.306792 138.4921 
L 332.761455 139.036506 
L 333.216119 139.970752 
L 333.670782 141.353811 
L 334.125446 143.287253 
L 334.580109 145.950592 
L 335.034772 149.690051 
L 335.489436 155.296513 
L 335.944099 165.340737 
L 336.398763 217.612166 
L 336.853426 164.416078 
L 337.30809 154.610686 
L 337.762753 148.984567 
L 338.217417 145.161007 
L 338.67208 142.387976 
L 339.126744 140.33226 
L 339.581407 138.819986 
L 340.036071 137.752477 
L 340.490734 137.072462 
L 340.945398 136.748822 
L 341.400061 136.769613 
L 341.854725 137.139622 
L 342.309388 137.881333 
L 342.764052 139.03972 
L 343.218715 140.693283 
L 343.673379 142.977957 
L 344.128042 146.143221 
L 344.582706 150.707798 
L 345.037369 158.044947 
L 345.492032 174.907778 
L 345.946696 171.879314 
L 346.401359 156.84434 
L 346.856023 149.754818 
L 347.310686 145.213491 
L 347.76535 141.99705 
L 348.220013 139.627745 
L 348.674677 137.871964 
L 349.12934 136.601296 
L 349.584004 135.741367 
L 350.038667 135.249765 
L 350.493331 135.105821 
L 350.947994 135.306243 
L 351.402658 135.864456 
L 351.857321 136.813339 
L 352.311985 138.212663 
L 352.766648 140.165236 
L 353.221312 142.85287 
L 353.675975 146.627002 
L 354.130639 152.294144 
L 354.585302 162.505257 
L 355.039966 206.206443 
L 355.494629 161.007851 
L 355.949292 151.354172 
L 356.403956 145.7877 
L 356.858619 142.000447 
L 357.313283 139.254489 
L 357.767946 137.221314 
L 358.22261 135.728989 
L 358.677273 134.679695 
L 359.131937 134.016471 
L 359.5866 133.708153 
L 360.041264 133.742427 
L 360.495927 134.123329 
L 360.950591 134.872024 
L 361.405254 136.031225 
L 361.859918 137.675402 
L 362.314581 139.932766 
L 362.769245 143.036123 
L 363.223908 147.460745 
L 363.678572 154.420553 
L 364.133235 169.234495 
L 364.587899 172.575717 
L 365.042562 155.455382 
L 365.497226 147.99193 
L 365.951889 143.319327 
L 366.406552 140.052773 
L 366.861216 137.670167 
L 367.315879 135.920317 
L 367.770543 134.665909 
L 368.225206 133.826916 
L 368.67987 133.356369 
L 369.134533 133.228974 
L 369.589197 133.43581 
L 370.04386 133.982517 
L 370.498524 134.890233 
L 370.953187 136.199639 
L 371.407851 137.980005 
L 371.862514 140.348224 
L 372.317178 143.511664 
L 372.771841 147.879759 
L 373.226505 154.438176 
L 373.681168 166.85761 
L 374.135832 183.325495 
L 374.590495 160.123641 
L 375.045159 152.049427 
L 375.499822 147.319187 
L 375.954486 144.171696 
L 376.409149 141.9878 
L 376.863812 140.476508 
L 377.318476 139.476626 
L 377.773139 138.887422 
L 378.227803 138.638283 
L 378.682466 138.672625 
L 379.13713 138.937509 
L 380.046457 139.917625 
L 380.955784 140.949947 
L 381.410447 141.214923 
L 381.865111 141.155017 
L 382.319774 140.680983 
L 382.774438 139.758256 
L 383.683765 136.750222 
L 385.957082 127.454734 
L 386.866409 124.959911 
L 387.321073 124.263983 
L 387.775736 124.068164 
L 388.230399 124.541511 
L 388.685063 125.990918 
L 389.139726 129.080849 
L 389.59439 135.77335 
L 390.049053 162.086535 
L 390.503717 136.205964 
L 390.95838 122.700816 
L 391.867707 108.125184 
L 392.777034 98.483774 
L 393.686361 90.949334 
L 395.050352 81.85207 
L 396.414342 74.442114 
L 397.778333 68.20439 
L 399.142323 62.862605 
L 400.506313 58.246642 
L 401.870304 54.241712 
L 403.234294 50.765032 
L 404.598285 47.753685 
L 405.962275 45.157676 
L 407.326266 42.935624 
L 408.690256 41.051934 
L 410.054246 39.474812 
L 411.418237 38.174843 
L 412.782227 37.123939 
L 414.146218 36.294587 
L 415.964872 35.486019 
L 417.783526 34.957322 
L 419.602179 34.643652 
L 422.33016 34.441937 
L 426.876795 34.412779 
L 450.97396 34.414753 
L 475.525787 34.427673 
L 492.803 34.421635 
L 520.992135 34.440032 
L 545.543963 34.417953 
L 545.543963 34.417953 
" clip-path="url(#pc156bb8c3c)" style="fill: none; stroke: #1f77b4; stroke-linecap: square"/>
   </g>
   <g id="patch_3">
    <path d="M 57.167188 250.421875 
L 57.167188 24.12 
" style="fill: none; stroke: #000000; stroke-width: 0.8; stroke-linejoin: miter; stroke-linecap: square"/>
   </g>
   <g id="patch_4">
    <path d="M 568.8 250.421875 
L 568.8 24.12 
" style="fill: none; stroke: #000000; stroke-width: 0.8; stroke-linejoin: miter; stroke-linecap: square"/>
   </g>
   <g id="patch_5">
    <path d="M 57.167187 250.421875 
L 568.8 250.421875 
" style="fill: none; stroke: #000000; stroke-width: 0.8; stroke-linejoin: miter; stroke-linecap: square"/>
   </g>
   <g id="patch_6">
    <path d="M 57.167187 24.12 
L 568.8 24.12 
" style="fill: none; stroke: #000000; stroke-width: 0.8; stroke-linejoin: miter; stroke-linecap: square"/>
   </g>
   <g id="text_16">
    <!-- Magnitude response, $|H(\omega)|^2$ -->
    <g transform="translate(226.883594 18.12) scale(0.12 -0.12)">
     <defs>
      <path id="DejaVuSans-4d" d="M 628 4666 
L 1569 4666 
L 2759 1491 
L 3956 4666 
L 4897 4666 
L 4897 0 
L 4281 0 
L 4281 4097 
L 3078 897 
L 2444 897 
L 1241 4097 
L 1241 0 
L 628 0 
L 628 4666 
z
" transform="scale(0.015625)"/>
      <path id="DejaVuSans-67" d="M 2906 1791 
Q 2906 2416 2648 2759 
Q 2391 3103 1925 3103 
Q 1463 3103 1205 2759 
Q 947 2416 947 1791 
Q 947 1169 1205 825 
Q 1463 481 1925 481 
Q 2391 481 2648 825 
Q 2906 1169 2906 1791 
z
M 3481 434 
Q 3481 -459 3084 -895 
Q 2688 -1331 1869 -1331 
Q 1566 -1331 1297 -1286 
Q 1028 -1241 775 -1147 
L 775 -588 
Q 1028 -725 1275 -790 
Q 1522 -856 1778 -856 
Q 2344 -856 2625 -561 
Q 2906 -266 2906 331 
L 2906 616 
Q 2728 306 2450 153 
Q 2172 0 1784 0 
Q 1141 0 747 490 
Q 353 981 353 1791 
Q 353 2603 747 3093 
Q 1141 3584 1784 3584 
Q 2172 3584 2450 3431 
Q 2728 3278 2906 2969 
L 2906 3500 
L 3481 3500 
L 3481 434 
z
" transform="scale(0.015625)"/>
      <path id="DejaVuSans-74" d="M 1172 4494 
L 1172 3500 
L 2356 3500 
L 2356 3053 
L 1172 3053 
L 1172 1153 
Q 1172 725 1289 603 
Q 1406 481 1766 481 
L 2356 481 
L 2356 0 
L 1766 0 
Q 1100 0 847 248 
Q 594 497 594 1153 
L 594 3053 
L 172 3053 
L 172 3500 
L 594 3500 
L 594 4494 
L 1172 4494 
z
" transform="scale(0.015625)"/>
      <path id="DejaVuSans-73" d="M 2834 3397 
L 2834 2853 
Q 2591 2978 2328 3040 
Q 2066 3103 1784 3103 
Q 1356 3103 1142 2972 
Q 928 2841 928 2578 
Q 928 2378 1081 2264 
Q 1234 2150 1697 2047 
L 1894 2003 
Q 2506 1872 2764 1633 
Q 3022 1394 3022 966 
Q 3022 478 2636 193 
Q 2250 -91 1575 -91 
Q 1294 -91 989 -36 
Q 684 19 347 128 
L 347 722 
Q 666 556 975 473 
Q 1284 391 1588 391 
Q 1994 391 2212 530 
Q 2431 669 2431 922 
Q 2431 1156 2273 1281 
Q 2116 1406 1581 1522 
L 1381 1569 
Q 847 1681 609 1914 
Q 372 2147 372 2553 
Q 372 3047 722 3315 
Q 1072 3584 1716 3584 
Q 2034 3584 2315 3537 
Q 2597 3491 2834 3397 
z
" transform="scale(0.015625)"/>
      <path id="DejaVuSans-70" d="M 1159 525 
L 1159 -1331 
L 581 -1331 
L 581 3500 
L 1159 3500 
L 1159 2969 
Q 1341 3281 1617 3432 
Q 1894 3584 2278 3584 
Q 2916 3584 3314 3078 
Q 3713 2572 3713 1747 
Q 3713 922 3314 415 
Q 2916 -91 2278 -91 
Q 1894 -91 1617 61 
Q 1341 213 1159 525 
z
M 3116 1747 
Q 3116 2381 2855 2742 
Q 2594 3103 2138 3103 
Q 1681 3103 1420 2742 
Q 1159 2381 1159 1747 
Q 1159 1113 1420 752 
Q 1681 391 2138 391 
Q 2594 391 2855 752 
Q 3116 1113 3116 1747 
z
" transform="scale(0.015625)"/>
     </defs>
     <use xlink:href="#DejaVuSans-4d" transform="translate(0 0.765625)"/>
     <use xlink:href="#DejaVuSans-61" transform="translate(86.279297 0.765625)"/>
     <use xlink:href="#DejaVuSans-67" transform="translate(147.558594 0.765625)"/>
     <use xlink:href="#DejaVuSans-6e" transform="translate(211.035156 0.765625)"/>
     <use xlink:href="#DejaVuSans-69" transform="translate(274.414062 0.765625)"/>
     <use xlink:href="#DejaVuSans-74" transform="translate(302.197266 0.765625)"/>
     <use xlink:href="#DejaVuSans-75" transform="translate(341.40625 0.765625)"/>
     <use xlink:href="#DejaVuSans-64" transform="translate(404.785156 0.765625)"/>
     <use xlink:href="#DejaVuSans-65" transform="translate(468.261719 0.765625)"/>
     <use xlink:href="#DejaVuSans-20" transform="translate(529.785156 0.765625)"/>
     <use xlink:href="#DejaVuSans-72" transform="translate(561.572266 0.765625)"/>
     <use xlink:href="#DejaVuSans-65" transform="translate(602.685547 0.765625)"/>
     <use xlink:href="#DejaVuSans-73" transform="translate(664.208984 0.765625)"/>
     <use xlink:href="#DejaVuSans-70" transform="translate(716.308594 0.765625)"/>
     <use xlink:href="#DejaVuSans-6f" transform="translate(779.785156 0.765625)"/>
     <use xlink:href="#DejaVuSans-6e" transform="translate(840.966797 0.765625)"/>
     <use xlink:href="#DejaVuSans-73" transform="translate(904.345703 0.765625)"/>
     <use xlink:href="#DejaVuSans-65" transform="translate(956.445312 0.765625)"/>
     <use xlink:href="#DejaVuSans-2c" transform="translate(1017.96875 0.765625)"/>
     <use xlink:href="#DejaVuSans-20" transform="translate(1049.755859 0.765625)"/>
     <use xlink:href="#DejaVuSans-7c" transform="translate(1081.542969 0.765625)"/>
     <use xlink:href="#DejaVuSans-Oblique-48" transform="translate(1115.234375 0.765625)"/>
     <use xlink:href="#DejaVuSans-28" transform="translate(1190.429688 0.765625)"/>
     <use xlink:href="#DejaVuSans-Oblique-3c9" transform="translate(1229.443359 0.765625)"/>
     <use xlink:href="#DejaVuSans-29" transform="translate(1313.183594 0.765625)"/>
     <use xlink:href="#DejaVuSans-7c" transform="translate(1352.197266 0.765625)"/>
     <use xlink:href="#DejaVuSans-32" transform="translate(1386.845703 39.046875) scale(0.7)"/>
    </g>
   </g>
  </g>
 </g>
 <defs>
  <clipPath id="pc156bb8c3c">
   <rect x="57.167188" y="24.12" width="511.632813" height="226.301875"/>
  </clipPath>
 </defs>
</svg>
