<?xml version="1.0" encoding="utf-8" standalone="no"?>
<!DOCTYPE svg PUBLIC "-//W3C//DTD SVG 1.1//EN"
  "http://www.w3.org/Graphics/SVG/1.1/DTD/svg11.dtd">
<svg xmlns:xlink="http://www.w3.org/1999/xlink" width="576pt" height="288pt" viewBox="0 0 576 288" xmlns="http://www.w3.org/2000/svg" version="1.1">
 <metadata>
  <rdf:RDF xmlns:dc="http://purl.org/dc/elements/1.1/" xmlns:cc="http://creativecommons.org/ns#" xmlns:rdf="http://www.w3.org/1999/02/22-rdf-syntax-ns#">
   <cc:Work>
    <dc:type rdf:resource="http://purl.org/dc/dcmitype/StillImage"/>
    <dc:date>2025-05-04T14:37:20.816348</dc:date>
    <dc:format>image/svg+xml</dc:format>
    <dc:creator>
     <cc:Agent>
      <dc:title>Matplotlib v3.10.1, https://matplotlib.org/</dc:title>
     </cc:Agent>
    </dc:creator>
   </cc:Work>
  </rdf:RDF>
 </metadata>
 <defs>
  <style type="text/css">*{stroke-linejoin: round; stroke-linecap: butt}</style>
 </defs>
 <g id="figure_1">
  <g id="patch_1">
   <path d="M 0 288 
L 576 288 
L 576 0 
L 0 0 
z
" style="fill: #ffffff"/>
  </g>
  <g id="axes_1">
   <g id="patch_2">
    <path d="M 52.160938 250.421875 
L 568.8 250.421875 
L 568.8 7.2 
L 52.160938 7.2 
z
" style="fill: #ffffff"/>
   </g>
   <g id="matplotlib.axis_1">
    <g id="xtick_1">
     <g id="line2d_1">
      <path d="M 75.644531 250.421875 
L 75.644531 7.2 
" clip-path="url(#pec88f35587)" style="fill: none; stroke-dasharray: 2.96,1.28; stroke-dashoffset: 0; stroke: #b0b0b0; stroke-opacity: 0.8; stroke-width: 0.8"/>
     </g>
     <g id="line2d_2">
      <defs>
       <path id="m6447cddaed" d="M 0 0 
L 0 3.5 
" style="stroke: #000000; stroke-width: 0.8"/>
      </defs>
      <g>
       <use xlink:href="#m6447cddaed" x="75.644531" y="250.421875" style="stroke: #000000; stroke-width: 0.8"/>
      </g>
     </g>
     <g id="text_1">
      <!-- 0 -->
      <g transform="translate(72.463281 265.020312) scale(0.1 -0.1)">
       <defs>
        <path id="DejaVuSans-30" d="M 2034 4250 
Q 1547 4250 1301 3770 
Q 1056 3291 1056 2328 
Q 1056 1369 1301 889 
Q 1547 409 2034 409 
Q 2525 409 2770 889 
Q 3016 1369 3016 2328 
Q 3016 3291 2770 3770 
Q 2525 4250 2034 4250 
z
M 2034 4750 
Q 2819 4750 3233 4129 
Q 3647 3509 3647 2328 
Q 3647 1150 3233 529 
Q 2819 -91 2034 -91 
Q 1250 -91 836 529 
Q 422 1150 422 2328 
Q 422 3509 836 4129 
Q 1250 4750 2034 4750 
z
" transform="scale(0.015625)"/>
       </defs>
       <use xlink:href="#DejaVuSans-30"/>
      </g>
     </g>
    </g>
    <g id="xtick_2">
     <g id="line2d_3">
      <path d="M 134.500656 250.421875 
L 134.500656 7.2 
" clip-path="url(#pec88f35587)" style="fill: none; stroke-dasharray: 2.96,1.28; stroke-dashoffset: 0; stroke: #b0b0b0; stroke-opacity: 0.8; stroke-width: 0.8"/>
     </g>
     <g id="line2d_4">
      <g>
       <use xlink:href="#m6447cddaed" x="134.500656" y="250.421875" style="stroke: #000000; stroke-width: 0.8"/>
      </g>
     </g>
     <g id="text_2">
      <!-- 50 -->
      <g transform="translate(128.138156 265.020312) scale(0.1 -0.1)">
       <defs>
        <path id="DejaVuSans-35" d="M 691 4666 
L 3169 4666 
L 3169 4134 
L 1269 4134 
L 1269 2991 
Q 1406 3038 1543 3061 
Q 1681 3084 1819 3084 
Q 2600 3084 3056 2656 
Q 3513 2228 3513 1497 
Q 3513 744 3044 326 
Q 2575 -91 1722 -91 
Q 1428 -91 1123 -41 
Q 819 9 494 109 
L 494 744 
Q 775 591 1075 516 
Q 1375 441 1709 441 
Q 2250 441 2565 725 
Q 2881 1009 2881 1497 
Q 2881 1984 2565 2268 
Q 2250 2553 1709 2553 
Q 1456 2553 1204 2497 
Q 953 2441 691 2322 
L 691 4666 
z
" transform="scale(0.015625)"/>
       </defs>
       <use xlink:href="#DejaVuSans-35"/>
       <use xlink:href="#DejaVuSans-30" transform="translate(63.623047 0)"/>
      </g>
     </g>
    </g>
    <g id="xtick_3">
     <g id="line2d_5">
      <path d="M 193.356781 250.421875 
L 193.356781 7.2 
" clip-path="url(#pec88f35587)" style="fill: none; stroke-dasharray: 2.96,1.28; stroke-dashoffset: 0; stroke: #b0b0b0; stroke-opacity: 0.8; stroke-width: 0.8"/>
     </g>
     <g id="line2d_6">
      <g>
       <use xlink:href="#m6447cddaed" x="193.356781" y="250.421875" style="stroke: #000000; stroke-width: 0.8"/>
      </g>
     </g>
     <g id="text_3">
      <!-- 100 -->
      <g transform="translate(183.813031 265.020312) scale(0.1 -0.1)">
       <defs>
        <path id="DejaVuSans-31" d="M 794 531 
L 1825 531 
L 1825 4091 
L 703 3866 
L 703 4441 
L 1819 4666 
L 2450 4666 
L 2450 531 
L 3481 531 
L 3481 0 
L 794 0 
L 794 531 
z
" transform="scale(0.015625)"/>
       </defs>
       <use xlink:href="#DejaVuSans-31"/>
       <use xlink:href="#DejaVuSans-30" transform="translate(63.623047 0)"/>
       <use xlink:href="#DejaVuSans-30" transform="translate(127.246094 0)"/>
      </g>
     </g>
    </g>
    <g id="xtick_4">
     <g id="line2d_7">
      <path d="M 252.212905 250.421875 
L 252.212905 7.2 
" clip-path="url(#pec88f35587)" style="fill: none; stroke-dasharray: 2.96,1.28; stroke-dashoffset: 0; stroke: #b0b0b0; stroke-opacity: 0.8; stroke-width: 0.8"/>
     </g>
     <g id="line2d_8">
      <g>
       <use xlink:href="#m6447cddaed" x="252.212905" y="250.421875" style="stroke: #000000; stroke-width: 0.8"/>
      </g>
     </g>
     <g id="text_4">
      <!-- 150 -->
      <g transform="translate(242.669155 265.020312) scale(0.1 -0.1)">
       <use xlink:href="#DejaVuSans-31"/>
       <use xlink:href="#DejaVuSans-35" transform="translate(63.623047 0)"/>
       <use xlink:href="#DejaVuSans-30" transform="translate(127.246094 0)"/>
      </g>
     </g>
    </g>
    <g id="xtick_5">
     <g id="line2d_9">
      <path d="M 311.06903 250.421875 
L 311.06903 7.2 
" clip-path="url(#pec88f35587)" style="fill: none; stroke-dasharray: 2.96,1.28; stroke-dashoffset: 0; stroke: #b0b0b0; stroke-opacity: 0.8; stroke-width: 0.8"/>
     </g>
     <g id="line2d_10">
      <g>
       <use xlink:href="#m6447cddaed" x="311.06903" y="250.421875" style="stroke: #000000; stroke-width: 0.8"/>
      </g>
     </g>
     <g id="text_5">
      <!-- 200 -->
      <g transform="translate(301.52528 265.020312) scale(0.1 -0.1)">
       <defs>
        <path id="DejaVuSans-32" d="M 1228 531 
L 3431 531 
L 3431 0 
L 469 0 
L 469 531 
Q 828 903 1448 1529 
Q 2069 2156 2228 2338 
Q 2531 2678 2651 2914 
Q 2772 3150 2772 3378 
Q 2772 3750 2511 3984 
Q 2250 4219 1831 4219 
Q 1534 4219 1204 4116 
Q 875 4013 500 3803 
L 500 4441 
Q 881 4594 1212 4672 
Q 1544 4750 1819 4750 
Q 2544 4750 2975 4387 
Q 3406 4025 3406 3419 
Q 3406 3131 3298 2873 
Q 3191 2616 2906 2266 
Q 2828 2175 2409 1742 
Q 1991 1309 1228 531 
z
" transform="scale(0.015625)"/>
       </defs>
       <use xlink:href="#DejaVuSans-32"/>
       <use xlink:href="#DejaVuSans-30" transform="translate(63.623047 0)"/>
       <use xlink:href="#DejaVuSans-30" transform="translate(127.246094 0)"/>
      </g>
     </g>
    </g>
    <g id="xtick_6">
     <g id="line2d_11">
      <path d="M 369.925155 250.421875 
L 369.925155 7.2 
" clip-path="url(#pec88f35587)" style="fill: none; stroke-dasharray: 2.96,1.28; stroke-dashoffset: 0; stroke: #b0b0b0; stroke-opacity: 0.8; stroke-width: 0.8"/>
     </g>
     <g id="line2d_12">
      <g>
       <use xlink:href="#m6447cddaed" x="369.925155" y="250.421875" style="stroke: #000000; stroke-width: 0.8"/>
      </g>
     </g>
     <g id="text_6">
      <!-- 250 -->
      <g transform="translate(360.381405 265.020312) scale(0.1 -0.1)">
       <use xlink:href="#DejaVuSans-32"/>
       <use xlink:href="#DejaVuSans-35" transform="translate(63.623047 0)"/>
       <use xlink:href="#DejaVuSans-30" transform="translate(127.246094 0)"/>
      </g>
     </g>
    </g>
    <g id="xtick_7">
     <g id="line2d_13">
      <path d="M 428.781279 250.421875 
L 428.781279 7.2 
" clip-path="url(#pec88f35587)" style="fill: none; stroke-dasharray: 2.96,1.28; stroke-dashoffset: 0; stroke: #b0b0b0; stroke-opacity: 0.8; stroke-width: 0.8"/>
     </g>
     <g id="line2d_14">
      <g>
       <use xlink:href="#m6447cddaed" x="428.781279" y="250.421875" style="stroke: #000000; stroke-width: 0.8"/>
      </g>
     </g>
     <g id="text_7">
      <!-- 300 -->
      <g transform="translate(419.237529 265.020312) scale(0.1 -0.1)">
       <defs>
        <path id="DejaVuSans-33" d="M 2597 2516 
Q 3050 2419 3304 2112 
Q 3559 1806 3559 1356 
Q 3559 666 3084 287 
Q 2609 -91 1734 -91 
Q 1441 -91 1130 -33 
Q 819 25 488 141 
L 488 750 
Q 750 597 1062 519 
Q 1375 441 1716 441 
Q 2309 441 2620 675 
Q 2931 909 2931 1356 
Q 2931 1769 2642 2001 
Q 2353 2234 1838 2234 
L 1294 2234 
L 1294 2753 
L 1863 2753 
Q 2328 2753 2575 2939 
Q 2822 3125 2822 3475 
Q 2822 3834 2567 4026 
Q 2313 4219 1838 4219 
Q 1578 4219 1281 4162 
Q 984 4106 628 3988 
L 628 4550 
Q 988 4650 1302 4700 
Q 1616 4750 1894 4750 
Q 2613 4750 3031 4423 
Q 3450 4097 3450 3541 
Q 3450 3153 3228 2886 
Q 3006 2619 2597 2516 
z
" transform="scale(0.015625)"/>
       </defs>
       <use xlink:href="#DejaVuSans-33"/>
       <use xlink:href="#DejaVuSans-30" transform="translate(63.623047 0)"/>
       <use xlink:href="#DejaVuSans-30" transform="translate(127.246094 0)"/>
      </g>
     </g>
    </g>
    <g id="xtick_8">
     <g id="line2d_15">
      <path d="M 487.637404 250.421875 
L 487.637404 7.2 
" clip-path="url(#pec88f35587)" style="fill: none; stroke-dasharray: 2.96,1.28; stroke-dashoffset: 0; stroke: #b0b0b0; stroke-opacity: 0.8; stroke-width: 0.8"/>
     </g>
     <g id="line2d_16">
      <g>
       <use xlink:href="#m6447cddaed" x="487.637404" y="250.421875" style="stroke: #000000; stroke-width: 0.8"/>
      </g>
     </g>
     <g id="text_8">
      <!-- 350 -->
      <g transform="translate(478.093654 265.020312) scale(0.1 -0.1)">
       <use xlink:href="#DejaVuSans-33"/>
       <use xlink:href="#DejaVuSans-35" transform="translate(63.623047 0)"/>
       <use xlink:href="#DejaVuSans-30" transform="translate(127.246094 0)"/>
      </g>
     </g>
    </g>
    <g id="xtick_9">
     <g id="line2d_17">
      <path d="M 546.493529 250.421875 
L 546.493529 7.2 
" clip-path="url(#pec88f35587)" style="fill: none; stroke-dasharray: 2.96,1.28; stroke-dashoffset: 0; stroke: #b0b0b0; stroke-opacity: 0.8; stroke-width: 0.8"/>
     </g>
     <g id="line2d_18">
      <g>
       <use xlink:href="#m6447cddaed" x="546.493529" y="250.421875" style="stroke: #000000; stroke-width: 0.8"/>
      </g>
     </g>
     <g id="text_9">
      <!-- 400 -->
      <g transform="translate(536.949779 265.020312) scale(0.1 -0.1)">
       <defs>
        <path id="DejaVuSans-34" d="M 2419 4116 
L 825 1625 
L 2419 1625 
L 2419 4116 
z
M 2253 4666 
L 3047 4666 
L 3047 1625 
L 3713 1625 
L 3713 1100 
L 3047 1100 
L 3047 0 
L 2419 0 
L 2419 1100 
L 313 1100 
L 313 1709 
L 2253 4666 
z
" transform="scale(0.015625)"/>
       </defs>
       <use xlink:href="#DejaVuSans-34"/>
       <use xlink:href="#DejaVuSans-30" transform="translate(63.623047 0)"/>
       <use xlink:href="#DejaVuSans-30" transform="translate(127.246094 0)"/>
      </g>
     </g>
    </g>
    <g id="text_10">
     <!-- Sample, $n$ -->
     <g transform="translate(285.380469 278.7) scale(0.1 -0.1)">
      <defs>
       <path id="DejaVuSans-53" d="M 3425 4513 
L 3425 3897 
Q 3066 4069 2747 4153 
Q 2428 4238 2131 4238 
Q 1616 4238 1336 4038 
Q 1056 3838 1056 3469 
Q 1056 3159 1242 3001 
Q 1428 2844 1947 2747 
L 2328 2669 
Q 3034 2534 3370 2195 
Q 3706 1856 3706 1288 
Q 3706 609 3251 259 
Q 2797 -91 1919 -91 
Q 1588 -91 1214 -16 
Q 841 59 441 206 
L 441 856 
Q 825 641 1194 531 
Q 1563 422 1919 422 
Q 2459 422 2753 634 
Q 3047 847 3047 1241 
Q 3047 1584 2836 1778 
Q 2625 1972 2144 2069 
L 1759 2144 
Q 1053 2284 737 2584 
Q 422 2884 422 3419 
Q 422 4038 858 4394 
Q 1294 4750 2059 4750 
Q 2388 4750 2728 4690 
Q 3069 4631 3425 4513 
z
" transform="scale(0.015625)"/>
       <path id="DejaVuSans-61" d="M 2194 1759 
Q 1497 1759 1228 1600 
Q 959 1441 959 1056 
Q 959 750 1161 570 
Q 1363 391 1709 391 
Q 2188 391 2477 730 
Q 2766 1069 2766 1631 
L 2766 1759 
L 2194 1759 
z
M 3341 1997 
L 3341 0 
L 2766 0 
L 2766 531 
Q 2569 213 2275 61 
Q 1981 -91 1556 -91 
Q 1019 -91 701 211 
Q 384 513 384 1019 
Q 384 1609 779 1909 
Q 1175 2209 1959 2209 
L 2766 2209 
L 2766 2266 
Q 2766 2663 2505 2880 
Q 2244 3097 1772 3097 
Q 1472 3097 1187 3025 
Q 903 2953 641 2809 
L 641 3341 
Q 956 3463 1253 3523 
Q 1550 3584 1831 3584 
Q 2591 3584 2966 3190 
Q 3341 2797 3341 1997 
z
" transform="scale(0.015625)"/>
       <path id="DejaVuSans-6d" d="M 3328 2828 
Q 3544 3216 3844 3400 
Q 4144 3584 4550 3584 
Q 5097 3584 5394 3201 
Q 5691 2819 5691 2113 
L 5691 0 
L 5113 0 
L 5113 2094 
Q 5113 2597 4934 2840 
Q 4756 3084 4391 3084 
Q 3944 3084 3684 2787 
Q 3425 2491 3425 1978 
L 3425 0 
L 2847 0 
L 2847 2094 
Q 2847 2600 2669 2842 
Q 2491 3084 2119 3084 
Q 1678 3084 1418 2786 
Q 1159 2488 1159 1978 
L 1159 0 
L 581 0 
L 581 3500 
L 1159 3500 
L 1159 2956 
Q 1356 3278 1631 3431 
Q 1906 3584 2284 3584 
Q 2666 3584 2933 3390 
Q 3200 3197 3328 2828 
z
" transform="scale(0.015625)"/>
       <path id="DejaVuSans-70" d="M 1159 525 
L 1159 -1331 
L 581 -1331 
L 581 3500 
L 1159 3500 
L 1159 2969 
Q 1341 3281 1617 3432 
Q 1894 3584 2278 3584 
Q 2916 3584 3314 3078 
Q 3713 2572 3713 1747 
Q 3713 922 3314 415 
Q 2916 -91 2278 -91 
Q 1894 -91 1617 61 
Q 1341 213 1159 525 
z
M 3116 1747 
Q 3116 2381 2855 2742 
Q 2594 3103 2138 3103 
Q 1681 3103 1420 2742 
Q 1159 2381 1159 1747 
Q 1159 1113 1420 752 
Q 1681 391 2138 391 
Q 2594 391 2855 752 
Q 3116 1113 3116 1747 
z
" transform="scale(0.015625)"/>
       <path id="DejaVuSans-6c" d="M 603 4863 
L 1178 4863 
L 1178 0 
L 603 0 
L 603 4863 
z
" transform="scale(0.015625)"/>
       <path id="DejaVuSans-65" d="M 3597 1894 
L 3597 1613 
L 953 1613 
Q 991 1019 1311 708 
Q 1631 397 2203 397 
Q 2534 397 2845 478 
Q 3156 559 3463 722 
L 3463 178 
Q 3153 47 2828 -22 
Q 2503 -91 2169 -91 
Q 1331 -91 842 396 
Q 353 884 353 1716 
Q 353 2575 817 3079 
Q 1281 3584 2069 3584 
Q 2775 3584 3186 3129 
Q 3597 2675 3597 1894 
z
M 3022 2063 
Q 3016 2534 2758 2815 
Q 2500 3097 2075 3097 
Q 1594 3097 1305 2825 
Q 1016 2553 972 2059 
L 3022 2063 
z
" transform="scale(0.015625)"/>
       <path id="DejaVuSans-2c" d="M 750 794 
L 1409 794 
L 1409 256 
L 897 -744 
L 494 -744 
L 750 256 
L 750 794 
z
" transform="scale(0.015625)"/>
       <path id="DejaVuSans-20" transform="scale(0.015625)"/>
       <path id="DejaVuSans-Oblique-6e" d="M 3566 2113 
L 3156 0 
L 2578 0 
L 2988 2091 
Q 3016 2238 3031 2350 
Q 3047 2463 3047 2528 
Q 3047 2791 2881 2937 
Q 2716 3084 2419 3084 
Q 1956 3084 1622 2776 
Q 1288 2469 1184 1941 
L 800 0 
L 225 0 
L 903 3500 
L 1478 3500 
L 1363 2950 
Q 1603 3253 1940 3418 
Q 2278 3584 2650 3584 
Q 3113 3584 3367 3334 
Q 3622 3084 3622 2631 
Q 3622 2519 3608 2391 
Q 3594 2263 3566 2113 
z
" transform="scale(0.015625)"/>
      </defs>
      <use xlink:href="#DejaVuSans-53" transform="translate(0 0.015625)"/>
      <use xlink:href="#DejaVuSans-61" transform="translate(63.476562 0.015625)"/>
      <use xlink:href="#DejaVuSans-6d" transform="translate(124.755859 0.015625)"/>
      <use xlink:href="#DejaVuSans-70" transform="translate(222.167969 0.015625)"/>
      <use xlink:href="#DejaVuSans-6c" transform="translate(285.644531 0.015625)"/>
      <use xlink:href="#DejaVuSans-65" transform="translate(313.427734 0.015625)"/>
      <use xlink:href="#DejaVuSans-2c" transform="translate(374.951172 0.015625)"/>
      <use xlink:href="#DejaVuSans-20" transform="translate(406.738281 0.015625)"/>
      <use xlink:href="#DejaVuSans-Oblique-6e" transform="translate(438.525391 0.015625)"/>
     </g>
    </g>
   </g>
   <g id="matplotlib.axis_2">
    <g id="ytick_1">
     <g id="line2d_19">
      <path d="M 52.160938 236.319382 
L 568.8 236.319382 
" clip-path="url(#pec88f35587)" style="fill: none; stroke-dasharray: 2.96,1.28; stroke-dashoffset: 0; stroke: #b0b0b0; stroke-opacity: 0.8; stroke-width: 0.8"/>
     </g>
     <g id="line2d_20">
      <defs>
       <path id="m20b040b0ff" d="M 0 0 
L -3.5 0 
" style="stroke: #000000; stroke-width: 0.8"/>
      </defs>
      <g>
       <use xlink:href="#m20b040b0ff" x="52.160938" y="236.319382" style="stroke: #000000; stroke-width: 0.8"/>
      </g>
     </g>
     <g id="text_11">
      <!-- −0.4 -->
      <g transform="translate(20.878125 240.118601) scale(0.1 -0.1)">
       <defs>
        <path id="DejaVuSans-2212" d="M 678 2272 
L 4684 2272 
L 4684 1741 
L 678 1741 
L 678 2272 
z
" transform="scale(0.015625)"/>
        <path id="DejaVuSans-2e" d="M 684 794 
L 1344 794 
L 1344 0 
L 684 0 
L 684 794 
z
" transform="scale(0.015625)"/>
       </defs>
       <use xlink:href="#DejaVuSans-2212"/>
       <use xlink:href="#DejaVuSans-30" transform="translate(83.789062 0)"/>
       <use xlink:href="#DejaVuSans-2e" transform="translate(147.412109 0)"/>
       <use xlink:href="#DejaVuSans-34" transform="translate(179.199219 0)"/>
      </g>
     </g>
    </g>
    <g id="ytick_2">
     <g id="line2d_21">
      <path d="M 52.160938 183.737364 
L 568.8 183.737364 
" clip-path="url(#pec88f35587)" style="fill: none; stroke-dasharray: 2.96,1.28; stroke-dashoffset: 0; stroke: #b0b0b0; stroke-opacity: 0.8; stroke-width: 0.8"/>
     </g>
     <g id="line2d_22">
      <g>
       <use xlink:href="#m20b040b0ff" x="52.160938" y="183.737364" style="stroke: #000000; stroke-width: 0.8"/>
      </g>
     </g>
     <g id="text_12">
      <!-- −0.2 -->
      <g transform="translate(20.878125 187.536583) scale(0.1 -0.1)">
       <use xlink:href="#DejaVuSans-2212"/>
       <use xlink:href="#DejaVuSans-30" transform="translate(83.789062 0)"/>
       <use xlink:href="#DejaVuSans-2e" transform="translate(147.412109 0)"/>
       <use xlink:href="#DejaVuSans-32" transform="translate(179.199219 0)"/>
      </g>
     </g>
    </g>
    <g id="ytick_3">
     <g id="line2d_23">
      <path d="M 52.160938 131.155346 
L 568.8 131.155346 
" clip-path="url(#pec88f35587)" style="fill: none; stroke-dasharray: 2.96,1.28; stroke-dashoffset: 0; stroke: #b0b0b0; stroke-opacity: 0.8; stroke-width: 0.8"/>
     </g>
     <g id="line2d_24">
      <g>
       <use xlink:href="#m20b040b0ff" x="52.160938" y="131.155346" style="stroke: #000000; stroke-width: 0.8"/>
      </g>
     </g>
     <g id="text_13">
      <!-- 0.0 -->
      <g transform="translate(29.257812 134.954565) scale(0.1 -0.1)">
       <use xlink:href="#DejaVuSans-30"/>
       <use xlink:href="#DejaVuSans-2e" transform="translate(63.623047 0)"/>
       <use xlink:href="#DejaVuSans-30" transform="translate(95.410156 0)"/>
      </g>
     </g>
    </g>
    <g id="ytick_4">
     <g id="line2d_25">
      <path d="M 52.160938 78.573328 
L 568.8 78.573328 
" clip-path="url(#pec88f35587)" style="fill: none; stroke-dasharray: 2.96,1.28; stroke-dashoffset: 0; stroke: #b0b0b0; stroke-opacity: 0.8; stroke-width: 0.8"/>
     </g>
     <g id="line2d_26">
      <g>
       <use xlink:href="#m20b040b0ff" x="52.160938" y="78.573328" style="stroke: #000000; stroke-width: 0.8"/>
      </g>
     </g>
     <g id="text_14">
      <!-- 0.2 -->
      <g transform="translate(29.257812 82.372547) scale(0.1 -0.1)">
       <use xlink:href="#DejaVuSans-30"/>
       <use xlink:href="#DejaVuSans-2e" transform="translate(63.623047 0)"/>
       <use xlink:href="#DejaVuSans-32" transform="translate(95.410156 0)"/>
      </g>
     </g>
    </g>
    <g id="ytick_5">
     <g id="line2d_27">
      <path d="M 52.160938 25.99131 
L 568.8 25.99131 
" clip-path="url(#pec88f35587)" style="fill: none; stroke-dasharray: 2.96,1.28; stroke-dashoffset: 0; stroke: #b0b0b0; stroke-opacity: 0.8; stroke-width: 0.8"/>
     </g>
     <g id="line2d_28">
      <g>
       <use xlink:href="#m20b040b0ff" x="52.160938" y="25.99131" style="stroke: #000000; stroke-width: 0.8"/>
      </g>
     </g>
     <g id="text_15">
      <!-- 0.4 -->
      <g transform="translate(29.257812 29.790529) scale(0.1 -0.1)">
       <use xlink:href="#DejaVuSans-30"/>
       <use xlink:href="#DejaVuSans-2e" transform="translate(63.623047 0)"/>
       <use xlink:href="#DejaVuSans-34" transform="translate(95.410156 0)"/>
      </g>
     </g>
    </g>
    <g id="text_16">
     <!-- Amplitude -->
     <g transform="translate(14.798437 154.433594) rotate(-90) scale(0.1 -0.1)">
      <defs>
       <path id="DejaVuSans-41" d="M 2188 4044 
L 1331 1722 
L 3047 1722 
L 2188 4044 
z
M 1831 4666 
L 2547 4666 
L 4325 0 
L 3669 0 
L 3244 1197 
L 1141 1197 
L 716 0 
L 50 0 
L 1831 4666 
z
" transform="scale(0.015625)"/>
       <path id="DejaVuSans-69" d="M 603 3500 
L 1178 3500 
L 1178 0 
L 603 0 
L 603 3500 
z
M 603 4863 
L 1178 4863 
L 1178 4134 
L 603 4134 
L 603 4863 
z
" transform="scale(0.015625)"/>
       <path id="DejaVuSans-74" d="M 1172 4494 
L 1172 3500 
L 2356 3500 
L 2356 3053 
L 1172 3053 
L 1172 1153 
Q 1172 725 1289 603 
Q 1406 481 1766 481 
L 2356 481 
L 2356 0 
L 1766 0 
Q 1100 0 847 248 
Q 594 497 594 1153 
L 594 3053 
L 172 3053 
L 172 3500 
L 594 3500 
L 594 4494 
L 1172 4494 
z
" transform="scale(0.015625)"/>
       <path id="DejaVuSans-75" d="M 544 1381 
L 544 3500 
L 1119 3500 
L 1119 1403 
Q 1119 906 1312 657 
Q 1506 409 1894 409 
Q 2359 409 2629 706 
Q 2900 1003 2900 1516 
L 2900 3500 
L 3475 3500 
L 3475 0 
L 2900 0 
L 2900 538 
Q 2691 219 2414 64 
Q 2138 -91 1772 -91 
Q 1169 -91 856 284 
Q 544 659 544 1381 
z
M 1991 3584 
L 1991 3584 
z
" transform="scale(0.015625)"/>
       <path id="DejaVuSans-64" d="M 2906 2969 
L 2906 4863 
L 3481 4863 
L 3481 0 
L 2906 0 
L 2906 525 
Q 2725 213 2448 61 
Q 2172 -91 1784 -91 
Q 1150 -91 751 415 
Q 353 922 353 1747 
Q 353 2572 751 3078 
Q 1150 3584 1784 3584 
Q 2172 3584 2448 3432 
Q 2725 3281 2906 2969 
z
M 947 1747 
Q 947 1113 1208 752 
Q 1469 391 1925 391 
Q 2381 391 2643 752 
Q 2906 1113 2906 1747 
Q 2906 2381 2643 2742 
Q 2381 3103 1925 3103 
Q 1469 3103 1208 2742 
Q 947 2381 947 1747 
z
" transform="scale(0.015625)"/>
      </defs>
      <use xlink:href="#DejaVuSans-41"/>
      <use xlink:href="#DejaVuSans-6d" transform="translate(68.408203 0)"/>
      <use xlink:href="#DejaVuSans-70" transform="translate(165.820312 0)"/>
      <use xlink:href="#DejaVuSans-6c" transform="translate(229.296875 0)"/>
      <use xlink:href="#DejaVuSans-69" transform="translate(257.080078 0)"/>
      <use xlink:href="#DejaVuSans-74" transform="translate(284.863281 0)"/>
      <use xlink:href="#DejaVuSans-75" transform="translate(324.072266 0)"/>
      <use xlink:href="#DejaVuSans-64" transform="translate(387.451172 0)"/>
      <use xlink:href="#DejaVuSans-65" transform="translate(450.927734 0)"/>
     </g>
    </g>
   </g>
   <g id="line2d_29">
    <path d="M 75.644531 131.291325 
L 76.821654 135.475602 
L 77.998776 127.611844 
L 79.175899 125.282212 
L 80.353021 128.447058 
L 81.530144 135.691026 
L 82.707266 132.149993 
L 83.884389 129.320936 
L 85.061511 136.823335 
L 86.238634 125.847098 
L 87.415756 129.611078 
L 88.592879 125.781473 
L 89.770001 127.795002 
L 90.947124 117.6066 
L 92.124246 130.159031 
L 93.301369 127.116487 
L 94.478491 120.461032 
L 95.655614 129.785879 
L 96.832736 131.435634 
L 99.186981 143.024785 
L 100.364104 145.184909 
L 101.541226 140.030831 
L 102.718349 145.36139 
L 103.895471 133.122961 
L 105.072594 131.51074 
L 106.249716 126.582061 
L 107.426839 116.904702 
L 108.603961 113.946536 
L 109.781084 111.452302 
L 110.958206 110.140492 
L 112.135329 118.407721 
L 113.312451 128.687719 
L 114.489574 131.470813 
L 116.843819 170.163121 
L 118.020941 188.807999 
L 119.198064 200.076205 
L 120.375186 212.695683 
L 121.552309 213.190763 
L 122.729431 205.50237 
L 123.906553 192.133757 
L 125.083676 172.700104 
L 126.260798 150.230622 
L 127.437921 119.605538 
L 129.792166 68.527298 
L 130.969288 57.144511 
L 132.146411 51.042006 
L 133.323533 55.28891 
L 134.500656 71.188244 
L 136.854901 110.951087 
L 138.032023 146.298259 
L 139.209146 164.308464 
L 140.386268 190.344834 
L 141.563391 225.317788 
L 142.740513 219.358623 
L 143.917636 225.536237 
L 145.094758 220.470944 
L 146.271881 212.272052 
L 147.449003 209.215002 
L 148.626126 188.892016 
L 149.803248 179.233145 
L 150.980371 176.414594 
L 152.157493 182.749471 
L 153.334616 190.508767 
L 154.511738 200.525353 
L 155.688861 211.970794 
L 156.865983 222.13291 
L 158.043106 222.057856 
L 159.220228 225.48356 
L 160.397351 206.886262 
L 161.574473 192.584032 
L 162.751596 172.326069 
L 163.928718 143.826916 
L 165.105841 108.424374 
L 166.282963 92.492557 
L 167.460086 67.569109 
L 168.637208 54.828294 
L 169.814331 51.128477 
L 170.991453 65.02097 
L 172.168576 84.788571 
L 173.345698 101.528477 
L 174.522821 124.501864 
L 176.877066 179.316107 
L 178.054188 201.815113 
L 179.231311 212.397718 
L 180.408433 206.66837 
L 181.585556 197.244169 
L 182.762678 180.697207 
L 183.939801 168.634295 
L 185.116923 132.738153 
L 186.294046 111.555585 
L 187.471168 75.722962 
L 188.648291 57.016039 
L 191.002536 24.81582 
L 192.179658 19.466125 
L 193.356781 20.891535 
L 194.533903 33.204848 
L 195.711026 43.421175 
L 196.888148 56.116525 
L 198.065271 70.444523 
L 199.242393 91.341581 
L 200.419516 100.988719 
L 201.596638 120.095971 
L 202.773761 129.012184 
L 203.950883 147.648373 
L 205.128006 155.573953 
L 206.305128 178.801783 
L 207.482251 188.798462 
L 208.659373 211.298184 
L 209.836496 219.700541 
L 211.013618 214.538318 
L 212.190741 237.060527 
L 213.367863 229.081491 
L 214.544986 230.267505 
L 216.89923 199.577584 
L 218.076353 180.920675 
L 219.253475 160.416342 
L 221.60772 113.210979 
L 222.784843 92.170868 
L 223.961965 84.535981 
L 225.139088 60.899806 
L 226.31621 68.824266 
L 227.493333 54.644582 
L 228.670455 74.024227 
L 229.847578 89.429609 
L 231.0247 119.216362 
L 232.201823 127.647208 
L 233.378945 160.097427 
L 234.556068 178.783407 
L 235.73319 190.306817 
L 236.910313 207.992883 
L 238.087435 230.431812 
L 239.264558 231.481361 
L 240.44168 238.531362 
L 241.618803 239.23701 
L 242.795925 228.421971 
L 243.973048 221.42796 
L 245.15017 203.420899 
L 246.327293 176.21811 
L 247.504415 153.250335 
L 248.681538 139.706462 
L 249.85866 112.890209 
L 251.035783 99.942268 
L 252.212905 81.024192 
L 253.390028 75.695879 
L 254.56715 68.596996 
L 255.744273 52.62997 
L 256.921395 57.791254 
L 258.098518 60.261908 
L 259.27564 65.27343 
L 260.452763 65.468508 
L 261.629885 58.973211 
L 262.807008 61.627449 
L 263.98413 65.802525 
L 265.161253 62.667104 
L 266.338375 58.857283 
L 267.515498 61.725017 
L 268.69262 59.102592 
L 269.869743 57.537692 
L 271.046865 59.157406 
L 272.223988 63.327623 
L 273.40111 68.281322 
L 274.578233 72.515605 
L 275.755355 85.596528 
L 276.932478 101.3187 
L 278.1096 119.01212 
L 279.286723 131.434421 
L 281.640968 181.526966 
L 282.81809 193.984831 
L 285.172335 227.500794 
L 286.349458 233.996277 
L 288.703703 239.366335 
L 289.880825 234.421435 
L 291.057948 213.719005 
L 292.23507 196.65649 
L 293.412193 176.627094 
L 295.766438 131.348411 
L 296.94356 98.108667 
L 298.120683 93.875684 
L 299.297805 78.91019 
L 300.474928 61.572466 
L 301.65205 57.125741 
L 302.829173 75.60314 
L 304.006295 75.148537 
L 305.183418 97.474244 
L 306.36054 113.799702 
L 307.537663 142.999828 
L 308.714785 163.714182 
L 309.891908 182.160488 
L 311.06903 198.401822 
L 312.246152 209.150096 
L 313.423275 218.003043 
L 314.600397 216.845047 
L 315.77752 218.284125 
L 316.954642 219.199524 
L 318.131765 208.680832 
L 319.308887 200.133213 
L 320.48601 189.30023 
L 321.663132 183.083787 
L 322.840255 183.937611 
L 324.017377 183.084414 
L 325.1945 189.041638 
L 326.371622 188.804377 
L 327.548745 196.685231 
L 328.725867 200.554198 
L 329.90299 196.366291 
L 331.080112 209.581801 
L 332.257235 202.754532 
L 333.434357 205.443237 
L 334.61148 194.454849 
L 335.788602 198.282586 
L 336.965725 199.822539 
L 338.142847 186.996397 
L 339.31997 195.850553 
L 340.497092 202.727997 
L 341.674215 190.030198 
L 342.851337 194.520455 
L 344.02846 202.170782 
L 345.205582 204.450734 
L 346.382705 201.847164 
L 347.559827 202.719842 
L 348.73695 201.64228 
L 349.914072 192.649092 
L 351.091195 190.767957 
L 352.268317 194.067052 
L 353.44544 194.179393 
L 354.622562 186.559956 
L 355.799685 191.481276 
L 358.15393 197.233171 
L 359.331052 201.324564 
L 360.508175 202.259641 
L 361.685297 209.283573 
L 362.86242 206.269949 
L 364.039542 208.277242 
L 365.216665 201.691192 
L 367.57091 191.843885 
L 368.748032 188.332235 
L 369.925155 168.363436 
L 371.102277 163.644069 
L 372.2794 141.967313 
L 373.456522 122.532974 
L 374.633645 106.33588 
L 376.98789 65.440957 
L 380.519257 28.268277 
L 381.69638 23.855072 
L 382.873502 18.25554 
L 384.050625 36.800741 
L 385.227747 40.005447 
L 386.40487 63.485858 
L 387.581992 78.632651 
L 388.759115 104.386338 
L 389.936237 125.225109 
L 391.11336 158.148609 
L 392.290482 172.366424 
L 393.467605 185.20526 
L 394.644727 208.729508 
L 395.82185 202.346762 
L 396.998972 194.234723 
L 398.176095 189.612288 
L 399.353217 170.986755 
L 400.53034 144.054975 
L 401.707462 131.279285 
L 402.884585 91.707303 
L 404.061707 78.436652 
L 405.238829 57.745919 
L 406.415952 45.263619 
L 407.593074 38.354567 
L 408.770197 37.287732 
L 409.947319 47.326097 
L 411.124442 48.016364 
L 412.301564 58.426205 
L 413.478687 67.178811 
L 414.655809 78.222468 
L 415.832932 69.279758 
L 417.010054 80.44071 
L 418.187177 76.15549 
L 419.364299 73.733686 
L 420.541422 68.767181 
L 421.718544 64.917973 
L 422.895667 53.592668 
L 424.072789 50.771673 
L 425.249912 52.399486 
L 426.427034 58.945555 
L 427.604157 67.86371 
L 428.781279 67.436396 
L 429.958402 83.433095 
L 431.135524 79.690247 
L 432.312647 87.727854 
L 433.489769 82.456647 
L 435.844014 64.583949 
L 437.021137 47.023589 
L 438.198259 37.183085 
L 439.375382 29.756781 
L 440.552504 27.677962 
L 442.906749 46.604433 
L 444.083872 72.68322 
L 445.260994 108.000721 
L 446.438117 127.982613 
L 447.615239 163.211701 
L 448.792362 182.25135 
L 449.969484 204.736541 
L 451.146607 213.678649 
L 452.323729 208.226607 
L 453.500852 199.219606 
L 454.677974 168.895444 
L 455.855097 148.154952 
L 457.032219 131.687478 
L 460.563587 50.607863 
L 461.740709 46.486003 
L 465.272077 89.00959 
L 466.449199 117.808565 
L 467.626322 156.618074 
L 469.980567 196.754668 
L 472.334812 208.105642 
L 473.511934 202.694181 
L 474.689057 185.950805 
L 477.043302 143.63741 
L 478.220424 109.182915 
L 479.397547 84.963499 
L 481.751792 29.29185 
L 482.928914 34.055752 
L 484.106037 21.989294 
L 485.283159 18.502184 
L 486.460282 20.288361 
L 487.637404 34.420596 
L 492.345894 109.383316 
L 494.700139 141.636443 
L 495.877262 158.980918 
L 497.054384 163.346559 
L 499.408629 189.561 
L 500.585751 198.917387 
L 501.762874 206.537632 
L 502.939996 215.305617 
L 504.117119 215.692882 
L 505.294241 209.07507 
L 506.471364 213.167444 
L 507.648486 212.262592 
L 508.825609 199.565771 
L 510.002731 192.830282 
L 511.179854 188.212453 
L 512.356976 176.596183 
L 513.534099 178.481656 
L 514.711221 177.037513 
L 515.888344 180.168599 
L 517.065466 186.848856 
L 518.242589 188.628353 
L 519.419711 199.578542 
L 520.596834 207.358858 
L 521.773956 216.685131 
L 522.951079 229.626407 
L 524.128201 233.186468 
L 526.482446 220.893281 
L 527.659569 199.339832 
L 528.836691 184.491234 
L 530.013814 166.053855 
L 531.190936 128.091229 
L 532.368059 108.985365 
L 533.545181 87.679391 
L 534.722304 72.345935 
L 535.899426 53.309457 
L 537.076549 63.873716 
L 538.253671 65.567654 
L 540.607916 101.160676 
L 542.962161 148.363186 
L 544.139284 178.583206 
L 545.316406 192.413995 
L 545.316406 192.413995 
" clip-path="url(#pec88f35587)" style="fill: none; stroke: #1f77b4; stroke-linecap: square"/>
   </g>
   <g id="line2d_30">
    <path d="M 75.644531 125.750367 
L 76.821654 135.653569 
L 77.998776 137.71294 
L 79.175899 133.51769 
L 80.353021 131.529133 
L 81.530144 133.088453 
L 82.707266 131.192037 
L 83.884389 132.203785 
L 85.061511 123.463215 
L 86.238634 129.448064 
L 87.415756 134.118825 
L 88.592879 131.215893 
L 89.770001 127.598012 
L 90.947124 138.234956 
L 92.124246 134.365403 
L 93.301369 140.828591 
L 94.478491 139.438284 
L 95.655614 133.387379 
L 96.832736 130.056434 
L 98.009859 121.911158 
L 99.186981 125.501228 
L 100.364104 123.920374 
L 101.541226 124.358112 
L 102.718349 118.55475 
L 103.895471 124.216475 
L 106.249716 134.167186 
L 107.426839 141.866117 
L 108.603961 138.279502 
L 109.781084 151.463591 
L 110.958206 148.613507 
L 112.135329 148.593735 
L 113.312451 142.168454 
L 114.489574 127.47848 
L 115.666696 108.844015 
L 118.020941 82.777993 
L 119.198064 79.100219 
L 120.375186 62.047635 
L 121.552309 67.68428 
L 122.729431 59.137064 
L 123.906553 71.764531 
L 125.083676 78.473113 
L 126.260798 96.195276 
L 127.437921 122.733603 
L 128.615043 146.006525 
L 129.792166 173.852701 
L 130.969288 190.557561 
L 132.146411 220.168102 
L 133.323533 220.652583 
L 134.500656 222.712832 
L 135.677778 229.765581 
L 136.854901 210.492275 
L 138.032023 215.426724 
L 139.209146 199.523106 
L 140.386268 193.323111 
L 141.563391 194.026536 
L 142.740513 186.66119 
L 143.917636 181.054528 
L 145.094758 192.131413 
L 146.271881 191.029093 
L 147.449003 191.757899 
L 148.626126 206.213939 
L 149.803248 199.987213 
L 150.980371 199.574681 
L 152.157493 198.550014 
L 153.334616 208.151647 
L 154.511738 196.491055 
L 155.688861 191.811612 
L 156.865983 194.779834 
L 158.043106 188.789376 
L 159.220228 185.491763 
L 160.397351 189.526337 
L 161.574473 191.56432 
L 162.751596 201.285968 
L 163.928718 208.605694 
L 166.282963 217.449291 
L 167.460086 215.155374 
L 168.637208 214.293673 
L 169.814331 200.848378 
L 170.991453 193.96919 
L 172.168576 166.256661 
L 173.345698 155.340451 
L 174.522821 116.544561 
L 175.699943 117.467964 
L 178.054188 69.280415 
L 179.231311 56.50824 
L 180.408433 49.903695 
L 181.585556 48.951654 
L 182.762678 38.359556 
L 183.939801 53.027152 
L 185.116923 53.219794 
L 186.294046 57.327477 
L 187.471168 62.248913 
L 188.648291 68.145049 
L 189.825413 66.416153 
L 191.002536 75.431051 
L 192.179658 73.283313 
L 193.356781 70.414121 
L 194.533903 61.168356 
L 195.711026 60.621503 
L 196.888148 57.366662 
L 198.065271 57.060156 
L 199.242393 61.171097 
L 200.419516 74.953387 
L 201.596638 74.651112 
L 202.773761 73.88883 
L 203.950883 89.611807 
L 205.128006 82.467568 
L 206.305128 78.040707 
L 207.482251 68.531483 
L 208.659373 65.82122 
L 209.836496 61.719395 
L 211.013618 46.377756 
L 212.190741 38.235278 
L 213.367863 33.095217 
L 214.544986 35.454835 
L 215.722108 39.071558 
L 216.89923 52.989027 
L 218.076353 73.980598 
L 219.253475 102.499372 
L 220.430598 126.307205 
L 221.60772 160.922206 
L 222.784843 181.431702 
L 225.139088 212.846834 
L 226.31621 205.910687 
L 227.493333 196.513163 
L 228.670455 181.286816 
L 229.847578 160.883103 
L 231.0247 135.52531 
L 232.201823 105.583506 
L 233.378945 86.406043 
L 234.556068 65.275243 
L 235.73319 53.464388 
L 236.910313 54.253891 
L 238.087435 64.640748 
L 239.264558 83.333464 
L 240.44168 107.60571 
L 241.618803 138.445929 
L 242.795925 160.348717 
L 243.973048 188.974821 
L 245.15017 206.434249 
L 246.327293 229.289194 
L 247.504415 227.626727 
L 248.681538 231.743756 
L 249.85866 219.039978 
L 251.035783 215.972447 
L 252.212905 200.291086 
L 253.390028 199.212121 
L 254.56715 195.574019 
L 255.744273 176.69271 
L 256.921395 180.324724 
L 258.098518 187.429572 
L 259.27564 181.93068 
L 260.452763 194.860348 
L 261.629885 200.438269 
L 262.807008 210.034036 
L 263.98413 208.043058 
L 265.161253 216.284447 
L 266.338375 199.893647 
L 267.515498 199.172935 
L 268.69262 192.942874 
L 269.869743 183.177641 
L 271.046865 185.2315 
L 272.223988 171.289177 
L 273.40111 179.947856 
L 276.932478 218.196542 
L 278.1096 221.827623 
L 279.286723 218.622666 
L 280.463845 234.144941 
L 282.81809 196.986615 
L 283.995213 181.011562 
L 285.172335 159.800315 
L 286.349458 131.944355 
L 288.703703 84.706225 
L 289.880825 68.082472 
L 291.057948 55.613288 
L 292.23507 46.503178 
L 293.412193 64.677777 
L 294.589315 78.801582 
L 296.94356 132.101455 
L 299.297805 178.778753 
L 300.474928 191.126238 
L 301.65205 208.737569 
L 302.829173 204.143821 
L 305.183418 189.341224 
L 306.36054 157.222903 
L 307.537663 138.417273 
L 308.714785 104.456117 
L 309.891908 85.600935 
L 311.06903 53.720191 
L 312.246152 33.354481 
L 313.423275 21.342771 
L 314.600397 26.031242 
L 315.77752 28.520637 
L 316.954642 29.41858 
L 318.131765 44.613062 
L 319.308887 53.847131 
L 320.48601 66.842611 
L 321.663132 84.218183 
L 322.840255 113.474817 
L 324.017377 118.212311 
L 325.1945 142.746286 
L 326.371622 154.308079 
L 327.548745 169.1465 
L 328.725867 181.757122 
L 331.080112 202.79077 
L 332.257235 218.899423 
L 333.434357 221.431055 
L 334.61148 219.177782 
L 335.788602 230.592065 
L 336.965725 219.801928 
L 338.142847 213.993616 
L 339.31997 198.51599 
L 340.497092 188.207664 
L 342.851337 150.008149 
L 344.02846 134.134499 
L 345.205582 105.520283 
L 346.382705 94.342542 
L 347.559827 76.779564 
L 348.73695 69.132035 
L 351.091195 43.381978 
L 352.268317 35.501078 
L 353.44544 35.749382 
L 354.622562 32.816617 
L 358.15393 55.193313 
L 359.331052 70.625952 
L 360.508175 94.191506 
L 361.685297 123.022265 
L 364.039542 163.287668 
L 365.216665 178.525023 
L 366.393787 201.458342 
L 367.57091 207.085318 
L 368.748032 198.84598 
L 369.925155 210.111883 
L 371.102277 210.45612 
L 372.2794 200.148265 
L 373.456522 198.890693 
L 374.633645 194.457018 
L 375.810767 185.787913 
L 376.98789 188.315082 
L 378.165012 194.611815 
L 379.342135 203.83665 
L 380.519257 205.417936 
L 381.69638 204.585126 
L 382.873502 218.289719 
L 384.050625 227.129273 
L 385.227747 216.673542 
L 387.581992 193.638608 
L 388.759115 172.269467 
L 389.936237 137.047468 
L 391.11336 116.725175 
L 392.290482 87.767643 
L 393.467605 71.136889 
L 394.644727 59.804569 
L 396.998972 54.695195 
L 399.353217 89.893252 
L 400.53034 111.444859 
L 401.707462 142.235414 
L 402.884585 163.777217 
L 404.061707 188.040812 
L 405.238829 201.463982 
L 406.415952 212.874648 
L 407.593074 220.726605 
L 408.770197 223.215087 
L 409.947319 209.262895 
L 412.301564 200.978562 
L 413.478687 199.64273 
L 414.655809 193.069457 
L 415.832932 197.348865 
L 417.010054 189.164954 
L 418.187177 199.378747 
L 419.364299 194.791486 
L 420.541422 194.360918 
L 421.718544 209.637033 
L 422.895667 201.702286 
L 424.072789 205.052789 
L 425.249912 193.938506 
L 426.427034 175.984071 
L 427.604157 169.125638 
L 428.781279 145.423338 
L 429.958402 128.096622 
L 431.135524 103.829039 
L 433.489769 62.734363 
L 434.666892 48.377094 
L 435.844014 41.171426 
L 437.021137 22.359361 
L 438.198259 29.459814 
L 439.375382 31.537031 
L 440.552504 35.124257 
L 441.729627 51.38511 
L 442.906749 70.875686 
L 444.083872 84.424799 
L 445.260994 106.629536 
L 446.438117 135.894631 
L 447.615239 147.440365 
L 448.792362 165.331923 
L 449.969484 186.811249 
L 451.146607 196.820284 
L 452.323729 202.981553 
L 453.500852 198.914785 
L 455.855097 172.69318 
L 460.563587 78.280084 
L 461.740709 59.267892 
L 462.917832 47.800342 
L 464.094954 40.422859 
L 465.272077 27.056838 
L 466.449199 23.794442 
L 467.626322 31.260638 
L 468.803444 40.00629 
L 469.980567 56.931624 
L 471.157689 60.03616 
L 472.334812 87.236469 
L 473.511934 99.017769 
L 474.689057 123.715167 
L 477.043302 158.037924 
L 478.220424 161.88308 
L 479.397547 180.941102 
L 480.574669 184.367416 
L 481.751792 205.437218 
L 482.928914 215.686264 
L 484.106037 216.750935 
L 485.283159 227.218957 
L 486.460282 221.259937 
L 487.637404 218.117564 
L 488.814527 212.248503 
L 489.991649 199.09614 
L 491.168772 183.110459 
L 492.345894 168.92084 
L 493.523017 137.569637 
L 494.700139 131.448463 
L 495.877262 112.349525 
L 497.054384 98.040767 
L 498.231507 77.289537 
L 499.408629 61.255217 
L 500.585751 57.794315 
L 501.762874 37.030934 
L 502.939996 40.984459 
L 504.117119 35.846412 
L 505.294241 35.014495 
L 506.471364 50.675116 
L 507.648486 49.566373 
L 508.825609 58.041293 
L 510.002731 78.028618 
L 511.179854 94.04089 
L 512.356976 116.672271 
L 513.534099 133.265193 
L 514.711221 159.224588 
L 515.888344 170.554539 
L 517.065466 184.065878 
L 518.242589 192.34716 
L 519.419711 206.336184 
L 520.596834 207.477639 
L 521.773956 209.456845 
L 522.951079 209.541374 
L 524.128201 215.443298 
L 525.305324 207.498076 
L 526.482446 211.60738 
L 527.659569 201.883422 
L 528.836691 199.274041 
L 530.013814 195.586894 
L 531.190936 180.799889 
L 532.368059 181.814073 
L 533.545181 174.696798 
L 534.722304 179.630583 
L 535.899426 178.499777 
L 537.076549 189.861531 
L 538.253671 207.614848 
L 539.430794 215.56031 
L 540.607916 218.925188 
L 541.785039 231.424104 
L 542.962161 236.333947 
L 544.139284 230.645775 
L 545.316406 228.744617 
L 545.316406 228.744617 
" clip-path="url(#pec88f35587)" style="fill: none; stroke: #ff7f0e; stroke-linecap: square"/>
   </g>
   <g id="patch_3">
    <path d="M 52.160938 250.421875 
L 52.160938 7.2 
" style="fill: none; stroke: #000000; stroke-width: 0.8; stroke-linejoin: miter; stroke-linecap: square"/>
   </g>
   <g id="patch_4">
    <path d="M 568.8 250.421875 
L 568.8 7.2 
" style="fill: none; stroke: #000000; stroke-width: 0.8; stroke-linejoin: miter; stroke-linecap: square"/>
   </g>
   <g id="patch_5">
    <path d="M 52.160937 250.421875 
L 568.8 250.421875 
" style="fill: none; stroke: #000000; stroke-width: 0.8; stroke-linejoin: miter; stroke-linecap: square"/>
   </g>
   <g id="patch_6">
    <path d="M 52.160937 7.2 
L 568.8 7.2 
" style="fill: none; stroke: #000000; stroke-width: 0.8; stroke-linejoin: miter; stroke-linecap: square"/>
   </g>
   <g id="legend_1">
    <g id="patch_7">
     <path d="M 59.160938 44.55625 
L 116.15625 44.55625 
Q 118.15625 44.55625 118.15625 42.55625 
L 118.15625 14.2 
Q 118.15625 12.2 116.15625 12.2 
L 59.160938 12.2 
Q 57.160938 12.2 57.160938 14.2 
L 57.160938 42.55625 
Q 57.160938 44.55625 59.160938 44.55625 
z
" style="fill: #ffffff; opacity: 0.8; stroke: #cccccc; stroke-linejoin: miter"/>
    </g>
    <g id="line2d_31">
     <path d="M 61.160938 20.298437 
L 71.160938 20.298437 
L 81.160938 20.298437 
" style="fill: none; stroke: #1f77b4; stroke-linecap: square"/>
    </g>
    <g id="text_17">
     <!-- real -->
     <g transform="translate(89.160938 23.798437) scale(0.1 -0.1)">
      <defs>
       <path id="DejaVuSans-72" d="M 2631 2963 
Q 2534 3019 2420 3045 
Q 2306 3072 2169 3072 
Q 1681 3072 1420 2755 
Q 1159 2438 1159 1844 
L 1159 0 
L 581 0 
L 581 3500 
L 1159 3500 
L 1159 2956 
Q 1341 3275 1631 3429 
Q 1922 3584 2338 3584 
Q 2397 3584 2469 3576 
Q 2541 3569 2628 3553 
L 2631 2963 
z
" transform="scale(0.015625)"/>
      </defs>
      <use xlink:href="#DejaVuSans-72"/>
      <use xlink:href="#DejaVuSans-65" transform="translate(38.863281 0)"/>
      <use xlink:href="#DejaVuSans-61" transform="translate(100.386719 0)"/>
      <use xlink:href="#DejaVuSans-6c" transform="translate(161.666016 0)"/>
     </g>
    </g>
    <g id="line2d_32">
     <path d="M 61.160938 34.976562 
L 71.160938 34.976562 
L 81.160938 34.976562 
" style="fill: none; stroke: #ff7f0e; stroke-linecap: square"/>
    </g>
    <g id="text_18">
     <!-- imag -->
     <g transform="translate(89.160938 38.476562) scale(0.1 -0.1)">
      <defs>
       <path id="DejaVuSans-67" d="M 2906 1791 
Q 2906 2416 2648 2759 
Q 2391 3103 1925 3103 
Q 1463 3103 1205 2759 
Q 947 2416 947 1791 
Q 947 1169 1205 825 
Q 1463 481 1925 481 
Q 2391 481 2648 825 
Q 2906 1169 2906 1791 
z
M 3481 434 
Q 3481 -459 3084 -895 
Q 2688 -1331 1869 -1331 
Q 1566 -1331 1297 -1286 
Q 1028 -1241 775 -1147 
L 775 -588 
Q 1028 -725 1275 -790 
Q 1522 -856 1778 -856 
Q 2344 -856 2625 -561 
Q 2906 -266 2906 331 
L 2906 616 
Q 2728 306 2450 153 
Q 2172 0 1784 0 
Q 1141 0 747 490 
Q 353 981 353 1791 
Q 353 2603 747 3093 
Q 1141 3584 1784 3584 
Q 2172 3584 2450 3431 
Q 2728 3278 2906 2969 
L 2906 3500 
L 3481 3500 
L 3481 434 
z
" transform="scale(0.015625)"/>
      </defs>
      <use xlink:href="#DejaVuSans-69"/>
      <use xlink:href="#DejaVuSans-6d" transform="translate(27.783203 0)"/>
      <use xlink:href="#DejaVuSans-61" transform="translate(125.195312 0)"/>
      <use xlink:href="#DejaVuSans-67" transform="translate(186.474609 0)"/>
     </g>
    </g>
   </g>
  </g>
 </g>
 <defs>
  <clipPath id="pec88f35587">
   <rect x="52.160938" y="7.2" width="516.639063" height="243.221875"/>
  </clipPath>
 </defs>
</svg>
