<?xml version="1.0" encoding="utf-8" standalone="no"?>
<!DOCTYPE svg PUBLIC "-//W3C//DTD SVG 1.1//EN"
  "http://www.w3.org/Graphics/SVG/1.1/DTD/svg11.dtd">
<svg xmlns:xlink="http://www.w3.org/1999/xlink" width="576pt" height="288pt" viewBox="0 0 576 288" xmlns="http://www.w3.org/2000/svg" version="1.1">
 <metadata>
  <rdf:RDF xmlns:dc="http://purl.org/dc/elements/1.1/" xmlns:cc="http://creativecommons.org/ns#" xmlns:rdf="http://www.w3.org/1999/02/22-rdf-syntax-ns#">
   <cc:Work>
    <dc:type rdf:resource="http://purl.org/dc/dcmitype/StillImage"/>
    <dc:date>2025-05-04T14:37:02.653054</dc:date>
    <dc:format>image/svg+xml</dc:format>
    <dc:creator>
     <cc:Agent>
      <dc:title>Matplotlib v3.10.1, https://matplotlib.org/</dc:title>
     </cc:Agent>
    </dc:creator>
   </cc:Work>
  </rdf:RDF>
 </metadata>
 <defs>
  <style type="text/css">*{stroke-linejoin: round; stroke-linecap: butt}</style>
 </defs>
 <g id="figure_1">
  <g id="patch_1">
   <path d="M 0 288 
L 576 288 
L 576 0 
L 0 0 
z
" style="fill: #ffffff"/>
  </g>
  <g id="axes_1">
   <g id="patch_2">
    <path d="M 52.160938 250.421875 
L 565.61875 250.421875 
L 565.61875 22.318125 
L 52.160938 22.318125 
z
" style="fill: #ffffff"/>
   </g>
   <g id="matplotlib.axis_1">
    <g id="xtick_1">
     <g id="line2d_1">
      <path d="M 52.160937 250.421875 
L 52.160937 22.318125 
" clip-path="url(#pa0cc56a16a)" style="fill: none; stroke-dasharray: 2.96,1.28; stroke-dashoffset: 0; stroke: #b0b0b0; stroke-opacity: 0.8; stroke-width: 0.8"/>
     </g>
     <g id="line2d_2">
      <defs>
       <path id="mc12bd9ec8f" d="M 0 0 
L 0 3.5 
" style="stroke: #000000; stroke-width: 0.8"/>
      </defs>
      <g>
       <use xlink:href="#mc12bd9ec8f" x="52.160937" y="250.421875" style="stroke: #000000; stroke-width: 0.8"/>
      </g>
     </g>
     <g id="text_1">
      <!-- -2 -->
      <g transform="translate(47.175781 265.020312) scale(0.1 -0.1)">
       <defs>
        <path id="DejaVuSans-2d" d="M 313 2009 
L 1997 2009 
L 1997 1497 
L 313 1497 
L 313 2009 
z
" transform="scale(0.015625)"/>
        <path id="DejaVuSans-32" d="M 1228 531 
L 3431 531 
L 3431 0 
L 469 0 
L 469 531 
Q 828 903 1448 1529 
Q 2069 2156 2228 2338 
Q 2531 2678 2651 2914 
Q 2772 3150 2772 3378 
Q 2772 3750 2511 3984 
Q 2250 4219 1831 4219 
Q 1534 4219 1204 4116 
Q 875 4013 500 3803 
L 500 4441 
Q 881 4594 1212 4672 
Q 1544 4750 1819 4750 
Q 2544 4750 2975 4387 
Q 3406 4025 3406 3419 
Q 3406 3131 3298 2873 
Q 3191 2616 2906 2266 
Q 2828 2175 2409 1742 
Q 1991 1309 1228 531 
z
" transform="scale(0.015625)"/>
       </defs>
       <use xlink:href="#DejaVuSans-2d"/>
       <use xlink:href="#DejaVuSans-32" transform="translate(36.083984 0)"/>
      </g>
     </g>
    </g>
    <g id="xtick_2">
     <g id="line2d_3">
      <path d="M 180.525391 250.421875 
L 180.525391 22.318125 
" clip-path="url(#pa0cc56a16a)" style="fill: none; stroke-dasharray: 2.96,1.28; stroke-dashoffset: 0; stroke: #b0b0b0; stroke-opacity: 0.8; stroke-width: 0.8"/>
     </g>
     <g id="line2d_4">
      <g>
       <use xlink:href="#mc12bd9ec8f" x="180.525391" y="250.421875" style="stroke: #000000; stroke-width: 0.8"/>
      </g>
     </g>
     <g id="text_2">
      <!-- -1 -->
      <g transform="translate(175.540234 265.020312) scale(0.1 -0.1)">
       <defs>
        <path id="DejaVuSans-31" d="M 794 531 
L 1825 531 
L 1825 4091 
L 703 3866 
L 703 4441 
L 1819 4666 
L 2450 4666 
L 2450 531 
L 3481 531 
L 3481 0 
L 794 0 
L 794 531 
z
" transform="scale(0.015625)"/>
       </defs>
       <use xlink:href="#DejaVuSans-2d"/>
       <use xlink:href="#DejaVuSans-31" transform="translate(36.083984 0)"/>
      </g>
     </g>
    </g>
    <g id="xtick_3">
     <g id="line2d_5">
      <path d="M 308.889844 250.421875 
L 308.889844 22.318125 
" clip-path="url(#pa0cc56a16a)" style="fill: none; stroke-dasharray: 2.96,1.28; stroke-dashoffset: 0; stroke: #b0b0b0; stroke-opacity: 0.8; stroke-width: 0.8"/>
     </g>
     <g id="line2d_6">
      <g>
       <use xlink:href="#mc12bd9ec8f" x="308.889844" y="250.421875" style="stroke: #000000; stroke-width: 0.8"/>
      </g>
     </g>
     <g id="text_3">
      <!-- 0 -->
      <g transform="translate(305.708594 265.020312) scale(0.1 -0.1)">
       <defs>
        <path id="DejaVuSans-30" d="M 2034 4250 
Q 1547 4250 1301 3770 
Q 1056 3291 1056 2328 
Q 1056 1369 1301 889 
Q 1547 409 2034 409 
Q 2525 409 2770 889 
Q 3016 1369 3016 2328 
Q 3016 3291 2770 3770 
Q 2525 4250 2034 4250 
z
M 2034 4750 
Q 2819 4750 3233 4129 
Q 3647 3509 3647 2328 
Q 3647 1150 3233 529 
Q 2819 -91 2034 -91 
Q 1250 -91 836 529 
Q 422 1150 422 2328 
Q 422 3509 836 4129 
Q 1250 4750 2034 4750 
z
" transform="scale(0.015625)"/>
       </defs>
       <use xlink:href="#DejaVuSans-30"/>
      </g>
     </g>
    </g>
    <g id="xtick_4">
     <g id="line2d_7">
      <path d="M 437.254297 250.421875 
L 437.254297 22.318125 
" clip-path="url(#pa0cc56a16a)" style="fill: none; stroke-dasharray: 2.96,1.28; stroke-dashoffset: 0; stroke: #b0b0b0; stroke-opacity: 0.8; stroke-width: 0.8"/>
     </g>
     <g id="line2d_8">
      <g>
       <use xlink:href="#mc12bd9ec8f" x="437.254297" y="250.421875" style="stroke: #000000; stroke-width: 0.8"/>
      </g>
     </g>
     <g id="text_4">
      <!-- 1 -->
      <g transform="translate(434.073047 265.020312) scale(0.1 -0.1)">
       <use xlink:href="#DejaVuSans-31"/>
      </g>
     </g>
    </g>
    <g id="xtick_5">
     <g id="line2d_9">
      <path d="M 565.61875 250.421875 
L 565.61875 22.318125 
" clip-path="url(#pa0cc56a16a)" style="fill: none; stroke-dasharray: 2.96,1.28; stroke-dashoffset: 0; stroke: #b0b0b0; stroke-opacity: 0.8; stroke-width: 0.8"/>
     </g>
     <g id="line2d_10">
      <g>
       <use xlink:href="#mc12bd9ec8f" x="565.61875" y="250.421875" style="stroke: #000000; stroke-width: 0.8"/>
      </g>
     </g>
     <g id="text_5">
      <!-- 2 -->
      <g transform="translate(562.4375 265.020312) scale(0.1 -0.1)">
       <use xlink:href="#DejaVuSans-32"/>
      </g>
     </g>
    </g>
    <g id="text_6">
     <!-- Samples, $n$ -->
     <g transform="translate(281.139844 278.7) scale(0.1 -0.1)">
      <defs>
       <path id="DejaVuSans-53" d="M 3425 4513 
L 3425 3897 
Q 3066 4069 2747 4153 
Q 2428 4238 2131 4238 
Q 1616 4238 1336 4038 
Q 1056 3838 1056 3469 
Q 1056 3159 1242 3001 
Q 1428 2844 1947 2747 
L 2328 2669 
Q 3034 2534 3370 2195 
Q 3706 1856 3706 1288 
Q 3706 609 3251 259 
Q 2797 -91 1919 -91 
Q 1588 -91 1214 -16 
Q 841 59 441 206 
L 441 856 
Q 825 641 1194 531 
Q 1563 422 1919 422 
Q 2459 422 2753 634 
Q 3047 847 3047 1241 
Q 3047 1584 2836 1778 
Q 2625 1972 2144 2069 
L 1759 2144 
Q 1053 2284 737 2584 
Q 422 2884 422 3419 
Q 422 4038 858 4394 
Q 1294 4750 2059 4750 
Q 2388 4750 2728 4690 
Q 3069 4631 3425 4513 
z
" transform="scale(0.015625)"/>
       <path id="DejaVuSans-61" d="M 2194 1759 
Q 1497 1759 1228 1600 
Q 959 1441 959 1056 
Q 959 750 1161 570 
Q 1363 391 1709 391 
Q 2188 391 2477 730 
Q 2766 1069 2766 1631 
L 2766 1759 
L 2194 1759 
z
M 3341 1997 
L 3341 0 
L 2766 0 
L 2766 531 
Q 2569 213 2275 61 
Q 1981 -91 1556 -91 
Q 1019 -91 701 211 
Q 384 513 384 1019 
Q 384 1609 779 1909 
Q 1175 2209 1959 2209 
L 2766 2209 
L 2766 2266 
Q 2766 2663 2505 2880 
Q 2244 3097 1772 3097 
Q 1472 3097 1187 3025 
Q 903 2953 641 2809 
L 641 3341 
Q 956 3463 1253 3523 
Q 1550 3584 1831 3584 
Q 2591 3584 2966 3190 
Q 3341 2797 3341 1997 
z
" transform="scale(0.015625)"/>
       <path id="DejaVuSans-6d" d="M 3328 2828 
Q 3544 3216 3844 3400 
Q 4144 3584 4550 3584 
Q 5097 3584 5394 3201 
Q 5691 2819 5691 2113 
L 5691 0 
L 5113 0 
L 5113 2094 
Q 5113 2597 4934 2840 
Q 4756 3084 4391 3084 
Q 3944 3084 3684 2787 
Q 3425 2491 3425 1978 
L 3425 0 
L 2847 0 
L 2847 2094 
Q 2847 2600 2669 2842 
Q 2491 3084 2119 3084 
Q 1678 3084 1418 2786 
Q 1159 2488 1159 1978 
L 1159 0 
L 581 0 
L 581 3500 
L 1159 3500 
L 1159 2956 
Q 1356 3278 1631 3431 
Q 1906 3584 2284 3584 
Q 2666 3584 2933 3390 
Q 3200 3197 3328 2828 
z
" transform="scale(0.015625)"/>
       <path id="DejaVuSans-70" d="M 1159 525 
L 1159 -1331 
L 581 -1331 
L 581 3500 
L 1159 3500 
L 1159 2969 
Q 1341 3281 1617 3432 
Q 1894 3584 2278 3584 
Q 2916 3584 3314 3078 
Q 3713 2572 3713 1747 
Q 3713 922 3314 415 
Q 2916 -91 2278 -91 
Q 1894 -91 1617 61 
Q 1341 213 1159 525 
z
M 3116 1747 
Q 3116 2381 2855 2742 
Q 2594 3103 2138 3103 
Q 1681 3103 1420 2742 
Q 1159 2381 1159 1747 
Q 1159 1113 1420 752 
Q 1681 391 2138 391 
Q 2594 391 2855 752 
Q 3116 1113 3116 1747 
z
" transform="scale(0.015625)"/>
       <path id="DejaVuSans-6c" d="M 603 4863 
L 1178 4863 
L 1178 0 
L 603 0 
L 603 4863 
z
" transform="scale(0.015625)"/>
       <path id="DejaVuSans-65" d="M 3597 1894 
L 3597 1613 
L 953 1613 
Q 991 1019 1311 708 
Q 1631 397 2203 397 
Q 2534 397 2845 478 
Q 3156 559 3463 722 
L 3463 178 
Q 3153 47 2828 -22 
Q 2503 -91 2169 -91 
Q 1331 -91 842 396 
Q 353 884 353 1716 
Q 353 2575 817 3079 
Q 1281 3584 2069 3584 
Q 2775 3584 3186 3129 
Q 3597 2675 3597 1894 
z
M 3022 2063 
Q 3016 2534 2758 2815 
Q 2500 3097 2075 3097 
Q 1594 3097 1305 2825 
Q 1016 2553 972 2059 
L 3022 2063 
z
" transform="scale(0.015625)"/>
       <path id="DejaVuSans-73" d="M 2834 3397 
L 2834 2853 
Q 2591 2978 2328 3040 
Q 2066 3103 1784 3103 
Q 1356 3103 1142 2972 
Q 928 2841 928 2578 
Q 928 2378 1081 2264 
Q 1234 2150 1697 2047 
L 1894 2003 
Q 2506 1872 2764 1633 
Q 3022 1394 3022 966 
Q 3022 478 2636 193 
Q 2250 -91 1575 -91 
Q 1294 -91 989 -36 
Q 684 19 347 128 
L 347 722 
Q 666 556 975 473 
Q 1284 391 1588 391 
Q 1994 391 2212 530 
Q 2431 669 2431 922 
Q 2431 1156 2273 1281 
Q 2116 1406 1581 1522 
L 1381 1569 
Q 847 1681 609 1914 
Q 372 2147 372 2553 
Q 372 3047 722 3315 
Q 1072 3584 1716 3584 
Q 2034 3584 2315 3537 
Q 2597 3491 2834 3397 
z
" transform="scale(0.015625)"/>
       <path id="DejaVuSans-2c" d="M 750 794 
L 1409 794 
L 1409 256 
L 897 -744 
L 494 -744 
L 750 256 
L 750 794 
z
" transform="scale(0.015625)"/>
       <path id="DejaVuSans-20" transform="scale(0.015625)"/>
       <path id="DejaVuSans-Oblique-6e" d="M 3566 2113 
L 3156 0 
L 2578 0 
L 2988 2091 
Q 3016 2238 3031 2350 
Q 3047 2463 3047 2528 
Q 3047 2791 2881 2937 
Q 2716 3084 2419 3084 
Q 1956 3084 1622 2776 
Q 1288 2469 1184 1941 
L 800 0 
L 225 0 
L 903 3500 
L 1478 3500 
L 1363 2950 
Q 1603 3253 1940 3418 
Q 2278 3584 2650 3584 
Q 3113 3584 3367 3334 
Q 3622 3084 3622 2631 
Q 3622 2519 3608 2391 
Q 3594 2263 3566 2113 
z
" transform="scale(0.015625)"/>
      </defs>
      <use xlink:href="#DejaVuSans-53" transform="translate(0 0.015625)"/>
      <use xlink:href="#DejaVuSans-61" transform="translate(63.476562 0.015625)"/>
      <use xlink:href="#DejaVuSans-6d" transform="translate(124.755859 0.015625)"/>
      <use xlink:href="#DejaVuSans-70" transform="translate(222.167969 0.015625)"/>
      <use xlink:href="#DejaVuSans-6c" transform="translate(285.644531 0.015625)"/>
      <use xlink:href="#DejaVuSans-65" transform="translate(313.427734 0.015625)"/>
      <use xlink:href="#DejaVuSans-73" transform="translate(374.951172 0.015625)"/>
      <use xlink:href="#DejaVuSans-2c" transform="translate(427.050781 0.015625)"/>
      <use xlink:href="#DejaVuSans-20" transform="translate(458.837891 0.015625)"/>
      <use xlink:href="#DejaVuSans-Oblique-6e" transform="translate(490.625 0.015625)"/>
     </g>
    </g>
   </g>
   <g id="matplotlib.axis_2">
    <g id="ytick_1">
     <g id="line2d_11">
      <path d="M 52.160938 237.117846 
L 565.61875 237.117846 
" clip-path="url(#pa0cc56a16a)" style="fill: none; stroke-dasharray: 2.96,1.28; stroke-dashoffset: 0; stroke: #b0b0b0; stroke-opacity: 0.8; stroke-width: 0.8"/>
     </g>
     <g id="line2d_12">
      <defs>
       <path id="m5797bf1ac2" d="M 0 0 
L -3.5 0 
" style="stroke: #000000; stroke-width: 0.8"/>
      </defs>
      <g>
       <use xlink:href="#m5797bf1ac2" x="52.160938" y="237.117846" style="stroke: #000000; stroke-width: 0.8"/>
      </g>
     </g>
     <g id="text_7">
      <!-- −0.2 -->
      <g transform="translate(20.878125 240.917065) scale(0.1 -0.1)">
       <defs>
        <path id="DejaVuSans-2212" d="M 678 2272 
L 4684 2272 
L 4684 1741 
L 678 1741 
L 678 2272 
z
" transform="scale(0.015625)"/>
        <path id="DejaVuSans-2e" d="M 684 794 
L 1344 794 
L 1344 0 
L 684 0 
L 684 794 
z
" transform="scale(0.015625)"/>
       </defs>
       <use xlink:href="#DejaVuSans-2212"/>
       <use xlink:href="#DejaVuSans-30" transform="translate(83.789062 0)"/>
       <use xlink:href="#DejaVuSans-2e" transform="translate(147.412109 0)"/>
       <use xlink:href="#DejaVuSans-32" transform="translate(179.199219 0)"/>
      </g>
     </g>
    </g>
    <g id="ytick_2">
     <g id="line2d_13">
      <path d="M 52.160938 203.045951 
L 565.61875 203.045951 
" clip-path="url(#pa0cc56a16a)" style="fill: none; stroke-dasharray: 2.96,1.28; stroke-dashoffset: 0; stroke: #b0b0b0; stroke-opacity: 0.8; stroke-width: 0.8"/>
     </g>
     <g id="line2d_14">
      <g>
       <use xlink:href="#m5797bf1ac2" x="52.160938" y="203.045951" style="stroke: #000000; stroke-width: 0.8"/>
      </g>
     </g>
     <g id="text_8">
      <!-- 0.0 -->
      <g transform="translate(29.257812 206.84517) scale(0.1 -0.1)">
       <use xlink:href="#DejaVuSans-30"/>
       <use xlink:href="#DejaVuSans-2e" transform="translate(63.623047 0)"/>
       <use xlink:href="#DejaVuSans-30" transform="translate(95.410156 0)"/>
      </g>
     </g>
    </g>
    <g id="ytick_3">
     <g id="line2d_15">
      <path d="M 52.160938 168.974056 
L 565.61875 168.974056 
" clip-path="url(#pa0cc56a16a)" style="fill: none; stroke-dasharray: 2.96,1.28; stroke-dashoffset: 0; stroke: #b0b0b0; stroke-opacity: 0.8; stroke-width: 0.8"/>
     </g>
     <g id="line2d_16">
      <g>
       <use xlink:href="#m5797bf1ac2" x="52.160938" y="168.974056" style="stroke: #000000; stroke-width: 0.8"/>
      </g>
     </g>
     <g id="text_9">
      <!-- 0.2 -->
      <g transform="translate(29.257812 172.773275) scale(0.1 -0.1)">
       <use xlink:href="#DejaVuSans-30"/>
       <use xlink:href="#DejaVuSans-2e" transform="translate(63.623047 0)"/>
       <use xlink:href="#DejaVuSans-32" transform="translate(95.410156 0)"/>
      </g>
     </g>
    </g>
    <g id="ytick_4">
     <g id="line2d_17">
      <path d="M 52.160938 134.902162 
L 565.61875 134.902162 
" clip-path="url(#pa0cc56a16a)" style="fill: none; stroke-dasharray: 2.96,1.28; stroke-dashoffset: 0; stroke: #b0b0b0; stroke-opacity: 0.8; stroke-width: 0.8"/>
     </g>
     <g id="line2d_18">
      <g>
       <use xlink:href="#m5797bf1ac2" x="52.160938" y="134.902162" style="stroke: #000000; stroke-width: 0.8"/>
      </g>
     </g>
     <g id="text_10">
      <!-- 0.4 -->
      <g transform="translate(29.257812 138.70138) scale(0.1 -0.1)">
       <defs>
        <path id="DejaVuSans-34" d="M 2419 4116 
L 825 1625 
L 2419 1625 
L 2419 4116 
z
M 2253 4666 
L 3047 4666 
L 3047 1625 
L 3713 1625 
L 3713 1100 
L 3047 1100 
L 3047 0 
L 2419 0 
L 2419 1100 
L 313 1100 
L 313 1709 
L 2253 4666 
z
" transform="scale(0.015625)"/>
       </defs>
       <use xlink:href="#DejaVuSans-30"/>
       <use xlink:href="#DejaVuSans-2e" transform="translate(63.623047 0)"/>
       <use xlink:href="#DejaVuSans-34" transform="translate(95.410156 0)"/>
      </g>
     </g>
    </g>
    <g id="ytick_5">
     <g id="line2d_19">
      <path d="M 52.160938 100.830267 
L 565.61875 100.830267 
" clip-path="url(#pa0cc56a16a)" style="fill: none; stroke-dasharray: 2.96,1.28; stroke-dashoffset: 0; stroke: #b0b0b0; stroke-opacity: 0.8; stroke-width: 0.8"/>
     </g>
     <g id="line2d_20">
      <g>
       <use xlink:href="#m5797bf1ac2" x="52.160938" y="100.830267" style="stroke: #000000; stroke-width: 0.8"/>
      </g>
     </g>
     <g id="text_11">
      <!-- 0.6 -->
      <g transform="translate(29.257812 104.629486) scale(0.1 -0.1)">
       <defs>
        <path id="DejaVuSans-36" d="M 2113 2584 
Q 1688 2584 1439 2293 
Q 1191 2003 1191 1497 
Q 1191 994 1439 701 
Q 1688 409 2113 409 
Q 2538 409 2786 701 
Q 3034 994 3034 1497 
Q 3034 2003 2786 2293 
Q 2538 2584 2113 2584 
z
M 3366 4563 
L 3366 3988 
Q 3128 4100 2886 4159 
Q 2644 4219 2406 4219 
Q 1781 4219 1451 3797 
Q 1122 3375 1075 2522 
Q 1259 2794 1537 2939 
Q 1816 3084 2150 3084 
Q 2853 3084 3261 2657 
Q 3669 2231 3669 1497 
Q 3669 778 3244 343 
Q 2819 -91 2113 -91 
Q 1303 -91 875 529 
Q 447 1150 447 2328 
Q 447 3434 972 4092 
Q 1497 4750 2381 4750 
Q 2619 4750 2861 4703 
Q 3103 4656 3366 4563 
z
" transform="scale(0.015625)"/>
       </defs>
       <use xlink:href="#DejaVuSans-30"/>
       <use xlink:href="#DejaVuSans-2e" transform="translate(63.623047 0)"/>
       <use xlink:href="#DejaVuSans-36" transform="translate(95.410156 0)"/>
      </g>
     </g>
    </g>
    <g id="ytick_6">
     <g id="line2d_21">
      <path d="M 52.160938 66.758372 
L 565.61875 66.758372 
" clip-path="url(#pa0cc56a16a)" style="fill: none; stroke-dasharray: 2.96,1.28; stroke-dashoffset: 0; stroke: #b0b0b0; stroke-opacity: 0.8; stroke-width: 0.8"/>
     </g>
     <g id="line2d_22">
      <g>
       <use xlink:href="#m5797bf1ac2" x="52.160938" y="66.758372" style="stroke: #000000; stroke-width: 0.8"/>
      </g>
     </g>
     <g id="text_12">
      <!-- 0.8 -->
      <g transform="translate(29.257812 70.557591) scale(0.1 -0.1)">
       <defs>
        <path id="DejaVuSans-38" d="M 2034 2216 
Q 1584 2216 1326 1975 
Q 1069 1734 1069 1313 
Q 1069 891 1326 650 
Q 1584 409 2034 409 
Q 2484 409 2743 651 
Q 3003 894 3003 1313 
Q 3003 1734 2745 1975 
Q 2488 2216 2034 2216 
z
M 1403 2484 
Q 997 2584 770 2862 
Q 544 3141 544 3541 
Q 544 4100 942 4425 
Q 1341 4750 2034 4750 
Q 2731 4750 3128 4425 
Q 3525 4100 3525 3541 
Q 3525 3141 3298 2862 
Q 3072 2584 2669 2484 
Q 3125 2378 3379 2068 
Q 3634 1759 3634 1313 
Q 3634 634 3220 271 
Q 2806 -91 2034 -91 
Q 1263 -91 848 271 
Q 434 634 434 1313 
Q 434 1759 690 2068 
Q 947 2378 1403 2484 
z
M 1172 3481 
Q 1172 3119 1398 2916 
Q 1625 2713 2034 2713 
Q 2441 2713 2670 2916 
Q 2900 3119 2900 3481 
Q 2900 3844 2670 4047 
Q 2441 4250 2034 4250 
Q 1625 4250 1398 4047 
Q 1172 3844 1172 3481 
z
" transform="scale(0.015625)"/>
       </defs>
       <use xlink:href="#DejaVuSans-30"/>
       <use xlink:href="#DejaVuSans-2e" transform="translate(63.623047 0)"/>
       <use xlink:href="#DejaVuSans-38" transform="translate(95.410156 0)"/>
      </g>
     </g>
    </g>
    <g id="ytick_7">
     <g id="line2d_23">
      <path d="M 52.160938 32.686477 
L 565.61875 32.686477 
" clip-path="url(#pa0cc56a16a)" style="fill: none; stroke-dasharray: 2.96,1.28; stroke-dashoffset: 0; stroke: #b0b0b0; stroke-opacity: 0.8; stroke-width: 0.8"/>
     </g>
     <g id="line2d_24">
      <g>
       <use xlink:href="#m5797bf1ac2" x="52.160938" y="32.686477" style="stroke: #000000; stroke-width: 0.8"/>
      </g>
     </g>
     <g id="text_13">
      <!-- 1.0 -->
      <g transform="translate(29.257812 36.485696) scale(0.1 -0.1)">
       <use xlink:href="#DejaVuSans-31"/>
       <use xlink:href="#DejaVuSans-2e" transform="translate(63.623047 0)"/>
       <use xlink:href="#DejaVuSans-30" transform="translate(95.410156 0)"/>
      </g>
     </g>
    </g>
    <g id="text_14">
     <!-- Amplitude -->
     <g transform="translate(14.798437 161.992656) rotate(-90) scale(0.1 -0.1)">
      <defs>
       <path id="DejaVuSans-41" d="M 2188 4044 
L 1331 1722 
L 3047 1722 
L 2188 4044 
z
M 1831 4666 
L 2547 4666 
L 4325 0 
L 3669 0 
L 3244 1197 
L 1141 1197 
L 716 0 
L 50 0 
L 1831 4666 
z
" transform="scale(0.015625)"/>
       <path id="DejaVuSans-69" d="M 603 3500 
L 1178 3500 
L 1178 0 
L 603 0 
L 603 3500 
z
M 603 4863 
L 1178 4863 
L 1178 4134 
L 603 4134 
L 603 4863 
z
" transform="scale(0.015625)"/>
       <path id="DejaVuSans-74" d="M 1172 4494 
L 1172 3500 
L 2356 3500 
L 2356 3053 
L 1172 3053 
L 1172 1153 
Q 1172 725 1289 603 
Q 1406 481 1766 481 
L 2356 481 
L 2356 0 
L 1766 0 
Q 1100 0 847 248 
Q 594 497 594 1153 
L 594 3053 
L 172 3053 
L 172 3500 
L 594 3500 
L 594 4494 
L 1172 4494 
z
" transform="scale(0.015625)"/>
       <path id="DejaVuSans-75" d="M 544 1381 
L 544 3500 
L 1119 3500 
L 1119 1403 
Q 1119 906 1312 657 
Q 1506 409 1894 409 
Q 2359 409 2629 706 
Q 2900 1003 2900 1516 
L 2900 3500 
L 3475 3500 
L 3475 0 
L 2900 0 
L 2900 538 
Q 2691 219 2414 64 
Q 2138 -91 1772 -91 
Q 1169 -91 856 284 
Q 544 659 544 1381 
z
M 1991 3584 
L 1991 3584 
z
" transform="scale(0.015625)"/>
       <path id="DejaVuSans-64" d="M 2906 2969 
L 2906 4863 
L 3481 4863 
L 3481 0 
L 2906 0 
L 2906 525 
Q 2725 213 2448 61 
Q 2172 -91 1784 -91 
Q 1150 -91 751 415 
Q 353 922 353 1747 
Q 353 2572 751 3078 
Q 1150 3584 1784 3584 
Q 2172 3584 2448 3432 
Q 2725 3281 2906 2969 
z
M 947 1747 
Q 947 1113 1208 752 
Q 1469 391 1925 391 
Q 2381 391 2643 752 
Q 2906 1113 2906 1747 
Q 2906 2381 2643 2742 
Q 2381 3103 1925 3103 
Q 1469 3103 1208 2742 
Q 947 2381 947 1747 
z
" transform="scale(0.015625)"/>
      </defs>
      <use xlink:href="#DejaVuSans-41"/>
      <use xlink:href="#DejaVuSans-6d" transform="translate(68.408203 0)"/>
      <use xlink:href="#DejaVuSans-70" transform="translate(165.820312 0)"/>
      <use xlink:href="#DejaVuSans-6c" transform="translate(229.296875 0)"/>
      <use xlink:href="#DejaVuSans-69" transform="translate(257.080078 0)"/>
      <use xlink:href="#DejaVuSans-74" transform="translate(284.863281 0)"/>
      <use xlink:href="#DejaVuSans-75" transform="translate(324.072266 0)"/>
      <use xlink:href="#DejaVuSans-64" transform="translate(387.451172 0)"/>
      <use xlink:href="#DejaVuSans-65" transform="translate(450.927734 0)"/>
     </g>
    </g>
   </g>
   <g id="line2d_25">
    <path d="M 52.160937 203.045951 
L 60.384486 208.64551 
L 81.457329 223.158057 
L 87.624991 227.049501 
L 92.764708 230.038042 
L 97.390455 232.480228 
L 101.502229 234.420528 
L 105.614003 236.115447 
L 109.211806 237.376627 
L 112.809608 238.413205 
L 116.407411 239.209376 
L 120.005213 239.750337 
L 123.089044 240.000476 
L 126.172874 240.045103 
L 129.256705 239.876989 
L 132.340536 239.489638 
L 135.424367 238.877331 
L 138.508197 238.035159 
L 141.592028 236.959052 
L 144.675859 235.645816 
L 147.759689 234.09315 
L 150.84352 232.299673 
L 153.927351 230.264942 
L 157.011181 227.989461 
L 160.608984 225.032466 
L 164.206786 221.753815 
L 167.804589 218.159297 
L 171.402391 214.256488 
L 175.000194 210.054735 
L 179.111968 204.900981 
L 183.223742 199.390584 
L 187.849489 192.792689 
L 192.475235 185.806946 
L 197.614952 177.638372 
L 203.268642 168.227804 
L 209.950275 156.647685 
L 218.687796 141.002022 
L 238.732695 104.887139 
L 245.414328 93.400658 
L 251.068018 84.117377 
L 256.207736 76.115912 
L 260.833482 69.333732 
L 264.945256 63.680997 
L 269.05703 58.416926 
L 272.654833 54.154346 
L 276.252635 50.232811 
L 279.850438 46.670298 
L 282.934269 43.91493 
L 286.018099 41.444727 
L 289.10193 39.268069 
L 292.185761 37.392355 
L 294.75562 36.063783 
L 297.325479 34.951796 
L 299.895338 34.059025 
L 302.465196 33.387589 
L 305.035055 32.939077 
L 307.604914 32.714555 
L 310.174773 32.714555 
L 312.744632 32.939077 
L 315.314491 33.387589 
L 317.88435 34.059025 
L 320.454209 34.951796 
L 323.024068 36.063783 
L 325.593927 37.392355 
L 328.677757 39.268069 
L 331.761588 41.444727 
L 334.845419 43.91493 
L 337.92925 46.670298 
L 341.01308 49.7015 
L 344.610883 53.572811 
L 348.208685 57.787828 
L 351.806488 62.327281 
L 355.918262 67.885905 
L 360.030036 73.808298 
L 364.655782 80.862276 
L 369.7955 89.124454 
L 375.44919 98.642041 
L 382.130823 110.332001 
L 391.896287 127.930164 
L 407.31544 155.740379 
L 414.511045 168.227804 
L 420.678707 178.472916 
L 425.818425 186.601096 
L 430.444171 193.545627 
L 435.069917 200.098159 
L 439.181691 205.565127 
L 443.293465 210.672887 
L 447.40524 215.402523 
L 451.003042 219.218125 
L 454.600845 222.72309 
L 458.198647 225.910352 
L 461.79645 228.774634 
L 464.88028 230.96998 
L 467.964111 232.924302 
L 471.047942 234.637413 
L 474.131772 236.11007 
L 477.215603 237.343963 
L 480.299434 238.341692 
L 483.383265 239.106749 
L 486.467095 239.643484 
L 489.550926 239.957081 
L 492.634757 240.053523 
L 495.718587 239.939553 
L 498.802418 239.622639 
L 502.400221 239.007313 
L 505.998023 238.140897 
L 509.595826 237.038494 
L 513.193628 235.716172 
L 517.305402 233.95741 
L 521.417177 231.959985 
L 526.042923 229.461853 
L 531.18264 226.421773 
L 536.83633 222.821582 
L 544.031935 217.96805 
L 565.61875 203.045951 
L 565.61875 203.045951 
" clip-path="url(#pa0cc56a16a)" style="fill: none; stroke-dasharray: 3.7,1.6; stroke-dashoffset: 0; stroke: #000000"/>
   </g>
   <g id="line2d_26">
    <path d="M -1 203.045951 
L 180.525391 203.045951 
L 308.889844 32.686477 
L 437.254297 203.045951 
L 577 203.045951 
L 577 203.045951 
" clip-path="url(#pa0cc56a16a)" style="fill: none; stroke: #1f77b4; stroke-linecap: square"/>
   </g>
   <g id="line2d_27">
    <path d="M -1 203.045951 
L 52.160937 203.045951 
L 71.415605 207.209111 
L 82.968406 209.467822 
L 91.953918 211.001994 
L 99.655785 212.113249 
L 107.357652 212.997585 
L 113.775875 213.534643 
L 120.194098 213.86727 
L 126.61232 213.974171 
L 133.030543 213.83405 
L 139.448766 213.425613 
L 144.583344 212.891366 
L 149.717922 212.160864 
L 154.8525 211.223206 
L 159.987078 210.067487 
L 165.121656 208.682805 
L 170.256234 207.058257 
L 175.390812 205.18294 
L 180.525391 203.045951 
L 186.943613 194.325676 
L 193.361836 185.243386 
L 201.063703 173.95673 
L 210.049215 160.393646 
L 225.452949 136.637699 
L 240.856684 113.00441 
L 249.842195 99.626166 
L 257.544062 88.564385 
L 263.962285 79.71634 
L 270.380508 71.272898 
L 275.515086 64.85239 
L 280.649664 58.764424 
L 285.784242 53.041709 
L 290.91882 47.716953 
L 294.769754 44.004224 
L 298.620687 40.547545 
L 302.471621 37.360715 
L 306.322555 34.457534 
L 308.889844 32.686477 
L 312.740777 35.392893 
L 316.591711 38.392157 
L 320.442645 41.670469 
L 324.293578 45.214032 
L 328.144512 49.009044 
L 333.27909 54.436356 
L 338.413668 60.253451 
L 343.548246 66.427619 
L 348.682824 72.926152 
L 355.101047 81.455625 
L 361.51927 90.376924 
L 369.221137 101.509746 
L 378.206648 114.947616 
L 389.759449 132.666449 
L 411.581406 166.248305 
L 420.566918 179.646822 
L 428.268785 190.732624 
L 434.687008 199.605371 
L 437.254297 203.045951 
L 442.388875 205.18294 
L 447.523453 207.058257 
L 452.658031 208.682805 
L 457.792609 210.067487 
L 462.927187 211.223206 
L 468.061766 212.160864 
L 473.196344 212.891366 
L 478.330922 213.425613 
L 483.4655 213.774509 
L 489.883723 213.96659 
L 496.301945 213.90739 
L 502.720168 213.618205 
L 509.138391 213.120329 
L 516.840258 212.27739 
L 524.542125 211.2014 
L 533.527637 209.700618 
L 543.796793 207.733307 
L 556.633238 205.023739 
L 565.61875 203.045951 
L 577 203.045951 
L 577 203.045951 
" clip-path="url(#pa0cc56a16a)" style="fill: none; stroke: #ff7f0e; stroke-linecap: square"/>
   </g>
   <g id="line2d_28">
    <path d="M -1 201.048677 
L 12.367957 201.237503 
L 26.488047 201.672172 
L 40.608137 202.341547 
L 52.160937 203.045951 
L 76.550184 211.045971 
L 85.535695 213.70184 
L 93.237563 215.722781 
L 99.655785 217.175295 
L 106.074008 218.376431 
L 111.208586 219.13122 
L 116.343164 219.682619 
L 121.477742 220.012604 
L 126.61232 220.103809 
L 131.746898 219.939605 
L 136.881477 219.504195 
L 142.016055 218.782695 
L 145.866988 218.045434 
L 149.717922 217.133961 
L 153.568855 216.043185 
L 157.419789 214.768401 
L 161.270723 213.305311 
L 165.121656 211.650046 
L 168.97259 209.799182 
L 172.823523 207.749768 
L 176.674457 205.499342 
L 180.525391 203.045951 
L 185.659969 196.056287 
L 192.078191 186.867882 
L 198.496414 177.252427 
L 206.198281 165.267034 
L 215.183793 150.85597 
L 243.423973 105.22826 
L 251.12584 93.409821 
L 257.544062 83.985122 
L 262.678641 76.786556 
L 267.813219 69.939241 
L 272.947797 63.486354 
L 278.082375 57.469848 
L 281.933309 53.268301 
L 285.784242 49.351604 
L 289.635176 45.73576 
L 293.486109 42.43619 
L 297.337043 39.467694 
L 301.187977 36.844411 
L 305.03891 34.579776 
L 307.606199 33.275566 
L 308.889844 32.686477 
L 311.457133 33.906812 
L 315.308066 36.049041 
L 319.159 38.554231 
L 323.009934 41.409193 
L 326.860867 44.600018 
L 330.711801 48.112121 
L 334.562734 51.930283 
L 338.413668 56.038692 
L 342.264602 60.420983 
L 347.39918 66.660841 
L 352.533758 73.316267 
L 357.668336 80.344674 
L 364.086559 89.587987 
L 370.504781 99.258245 
L 378.206648 111.300345 
L 388.475805 127.841943 
L 411.581406 165.267034 
L 419.283273 177.252427 
L 425.701496 186.867882 
L 432.119719 196.056287 
L 437.254297 203.045951 
L 441.10523 205.499342 
L 444.956164 207.749768 
L 448.807098 209.799182 
L 452.658031 211.650046 
L 456.508965 213.305311 
L 460.359898 214.768401 
L 464.210832 216.043185 
L 468.061766 217.133961 
L 471.912699 218.045434 
L 475.763633 218.782695 
L 480.898211 219.504195 
L 486.032789 219.939605 
L 491.167367 220.103809 
L 496.301945 220.012604 
L 501.436523 219.682619 
L 506.571102 219.13122 
L 511.70568 218.376431 
L 518.123902 217.175295 
L 524.542125 215.722781 
L 530.960348 214.057132 
L 538.662215 211.831791 
L 548.931371 208.591667 
L 564.335105 203.47251 
L 564.335105 203.47251 
" clip-path="url(#pa0cc56a16a)" style="fill: none; stroke: #2ca02c; stroke-linecap: square"/>
   </g>
   <g id="patch_3">
    <path d="M 52.160938 250.421875 
L 52.160938 22.318125 
" style="fill: none; stroke: #000000; stroke-width: 0.8; stroke-linejoin: miter; stroke-linecap: square"/>
   </g>
   <g id="patch_4">
    <path d="M 565.61875 250.421875 
L 565.61875 22.318125 
" style="fill: none; stroke: #000000; stroke-width: 0.8; stroke-linejoin: miter; stroke-linecap: square"/>
   </g>
   <g id="patch_5">
    <path d="M 52.160937 250.421875 
L 565.61875 250.421875 
" style="fill: none; stroke: #000000; stroke-width: 0.8; stroke-linejoin: miter; stroke-linecap: square"/>
   </g>
   <g id="patch_6">
    <path d="M 52.160937 22.318125 
L 565.61875 22.318125 
" style="fill: none; stroke: #000000; stroke-width: 0.8; stroke-linejoin: miter; stroke-linecap: square"/>
   </g>
   <g id="text_15">
    <!-- Farrow Resampler Impulse Responses -->
    <g transform="translate(195.792656 16.318125) scale(0.12 -0.12)">
     <defs>
      <path id="DejaVuSans-46" d="M 628 4666 
L 3309 4666 
L 3309 4134 
L 1259 4134 
L 1259 2759 
L 3109 2759 
L 3109 2228 
L 1259 2228 
L 1259 0 
L 628 0 
L 628 4666 
z
" transform="scale(0.015625)"/>
      <path id="DejaVuSans-72" d="M 2631 2963 
Q 2534 3019 2420 3045 
Q 2306 3072 2169 3072 
Q 1681 3072 1420 2755 
Q 1159 2438 1159 1844 
L 1159 0 
L 581 0 
L 581 3500 
L 1159 3500 
L 1159 2956 
Q 1341 3275 1631 3429 
Q 1922 3584 2338 3584 
Q 2397 3584 2469 3576 
Q 2541 3569 2628 3553 
L 2631 2963 
z
" transform="scale(0.015625)"/>
      <path id="DejaVuSans-6f" d="M 1959 3097 
Q 1497 3097 1228 2736 
Q 959 2375 959 1747 
Q 959 1119 1226 758 
Q 1494 397 1959 397 
Q 2419 397 2687 759 
Q 2956 1122 2956 1747 
Q 2956 2369 2687 2733 
Q 2419 3097 1959 3097 
z
M 1959 3584 
Q 2709 3584 3137 3096 
Q 3566 2609 3566 1747 
Q 3566 888 3137 398 
Q 2709 -91 1959 -91 
Q 1206 -91 779 398 
Q 353 888 353 1747 
Q 353 2609 779 3096 
Q 1206 3584 1959 3584 
z
" transform="scale(0.015625)"/>
      <path id="DejaVuSans-77" d="M 269 3500 
L 844 3500 
L 1563 769 
L 2278 3500 
L 2956 3500 
L 3675 769 
L 4391 3500 
L 4966 3500 
L 4050 0 
L 3372 0 
L 2619 2869 
L 1863 0 
L 1184 0 
L 269 3500 
z
" transform="scale(0.015625)"/>
      <path id="DejaVuSans-52" d="M 2841 2188 
Q 3044 2119 3236 1894 
Q 3428 1669 3622 1275 
L 4263 0 
L 3584 0 
L 2988 1197 
Q 2756 1666 2539 1819 
Q 2322 1972 1947 1972 
L 1259 1972 
L 1259 0 
L 628 0 
L 628 4666 
L 2053 4666 
Q 2853 4666 3247 4331 
Q 3641 3997 3641 3322 
Q 3641 2881 3436 2590 
Q 3231 2300 2841 2188 
z
M 1259 4147 
L 1259 2491 
L 2053 2491 
Q 2509 2491 2742 2702 
Q 2975 2913 2975 3322 
Q 2975 3731 2742 3939 
Q 2509 4147 2053 4147 
L 1259 4147 
z
" transform="scale(0.015625)"/>
      <path id="DejaVuSans-49" d="M 628 4666 
L 1259 4666 
L 1259 0 
L 628 0 
L 628 4666 
z
" transform="scale(0.015625)"/>
      <path id="DejaVuSans-6e" d="M 3513 2113 
L 3513 0 
L 2938 0 
L 2938 2094 
Q 2938 2591 2744 2837 
Q 2550 3084 2163 3084 
Q 1697 3084 1428 2787 
Q 1159 2491 1159 1978 
L 1159 0 
L 581 0 
L 581 3500 
L 1159 3500 
L 1159 2956 
Q 1366 3272 1645 3428 
Q 1925 3584 2291 3584 
Q 2894 3584 3203 3211 
Q 3513 2838 3513 2113 
z
" transform="scale(0.015625)"/>
     </defs>
     <use xlink:href="#DejaVuSans-46"/>
     <use xlink:href="#DejaVuSans-61" transform="translate(48.394531 0)"/>
     <use xlink:href="#DejaVuSans-72" transform="translate(109.673828 0)"/>
     <use xlink:href="#DejaVuSans-72" transform="translate(149.037109 0)"/>
     <use xlink:href="#DejaVuSans-6f" transform="translate(187.900391 0)"/>
     <use xlink:href="#DejaVuSans-77" transform="translate(249.082031 0)"/>
     <use xlink:href="#DejaVuSans-20" transform="translate(330.869141 0)"/>
     <use xlink:href="#DejaVuSans-52" transform="translate(362.65625 0)"/>
     <use xlink:href="#DejaVuSans-65" transform="translate(427.638672 0)"/>
     <use xlink:href="#DejaVuSans-73" transform="translate(489.162109 0)"/>
     <use xlink:href="#DejaVuSans-61" transform="translate(541.261719 0)"/>
     <use xlink:href="#DejaVuSans-6d" transform="translate(602.541016 0)"/>
     <use xlink:href="#DejaVuSans-70" transform="translate(699.953125 0)"/>
     <use xlink:href="#DejaVuSans-6c" transform="translate(763.429688 0)"/>
     <use xlink:href="#DejaVuSans-65" transform="translate(791.212891 0)"/>
     <use xlink:href="#DejaVuSans-72" transform="translate(852.736328 0)"/>
     <use xlink:href="#DejaVuSans-20" transform="translate(893.849609 0)"/>
     <use xlink:href="#DejaVuSans-49" transform="translate(925.636719 0)"/>
     <use xlink:href="#DejaVuSans-6d" transform="translate(955.128906 0)"/>
     <use xlink:href="#DejaVuSans-70" transform="translate(1052.541016 0)"/>
     <use xlink:href="#DejaVuSans-75" transform="translate(1116.017578 0)"/>
     <use xlink:href="#DejaVuSans-6c" transform="translate(1179.396484 0)"/>
     <use xlink:href="#DejaVuSans-73" transform="translate(1207.179688 0)"/>
     <use xlink:href="#DejaVuSans-65" transform="translate(1259.279297 0)"/>
     <use xlink:href="#DejaVuSans-20" transform="translate(1320.802734 0)"/>
     <use xlink:href="#DejaVuSans-52" transform="translate(1352.589844 0)"/>
     <use xlink:href="#DejaVuSans-65" transform="translate(1417.572266 0)"/>
     <use xlink:href="#DejaVuSans-73" transform="translate(1479.095703 0)"/>
     <use xlink:href="#DejaVuSans-70" transform="translate(1531.195312 0)"/>
     <use xlink:href="#DejaVuSans-6f" transform="translate(1594.671875 0)"/>
     <use xlink:href="#DejaVuSans-6e" transform="translate(1655.853516 0)"/>
     <use xlink:href="#DejaVuSans-73" transform="translate(1719.232422 0)"/>
     <use xlink:href="#DejaVuSans-65" transform="translate(1771.332031 0)"/>
     <use xlink:href="#DejaVuSans-73" transform="translate(1832.855469 0)"/>
    </g>
   </g>
   <g id="legend_1">
    <g id="patch_7">
     <path d="M 478.120313 103.70875 
L 558.61875 103.70875 
Q 560.61875 103.70875 560.61875 101.70875 
L 560.61875 29.318125 
Q 560.61875 27.318125 558.61875 27.318125 
L 478.120313 27.318125 
Q 476.120313 27.318125 476.120313 29.318125 
L 476.120313 101.70875 
Q 476.120313 103.70875 478.120313 103.70875 
z
" style="fill: #ffffff; opacity: 0.8; stroke: #cccccc; stroke-linejoin: miter"/>
    </g>
    <g id="text_16">
     <!-- Farrow Order -->
     <g transform="translate(486.027344 38.916562) scale(0.1 -0.1)">
      <defs>
       <path id="DejaVuSans-4f" d="M 2522 4238 
Q 1834 4238 1429 3725 
Q 1025 3213 1025 2328 
Q 1025 1447 1429 934 
Q 1834 422 2522 422 
Q 3209 422 3611 934 
Q 4013 1447 4013 2328 
Q 4013 3213 3611 3725 
Q 3209 4238 2522 4238 
z
M 2522 4750 
Q 3503 4750 4090 4092 
Q 4678 3434 4678 2328 
Q 4678 1225 4090 567 
Q 3503 -91 2522 -91 
Q 1538 -91 948 565 
Q 359 1222 359 2328 
Q 359 3434 948 4092 
Q 1538 4750 2522 4750 
z
" transform="scale(0.015625)"/>
      </defs>
      <use xlink:href="#DejaVuSans-46"/>
      <use xlink:href="#DejaVuSans-61" transform="translate(48.394531 0)"/>
      <use xlink:href="#DejaVuSans-72" transform="translate(109.673828 0)"/>
      <use xlink:href="#DejaVuSans-72" transform="translate(149.037109 0)"/>
      <use xlink:href="#DejaVuSans-6f" transform="translate(187.900391 0)"/>
      <use xlink:href="#DejaVuSans-77" transform="translate(249.082031 0)"/>
      <use xlink:href="#DejaVuSans-20" transform="translate(330.869141 0)"/>
      <use xlink:href="#DejaVuSans-4f" transform="translate(362.65625 0)"/>
      <use xlink:href="#DejaVuSans-72" transform="translate(441.367188 0)"/>
      <use xlink:href="#DejaVuSans-64" transform="translate(480.730469 0)"/>
      <use xlink:href="#DejaVuSans-65" transform="translate(544.207031 0)"/>
      <use xlink:href="#DejaVuSans-72" transform="translate(605.730469 0)"/>
     </g>
    </g>
    <g id="line2d_29">
     <path d="M 480.120313 50.094687 
L 490.120313 50.094687 
L 500.120313 50.094687 
" style="fill: none; stroke-dasharray: 3.7,1.6; stroke-dashoffset: 0; stroke: #000000"/>
    </g>
    <g id="text_17">
     <!-- Ideal Sinc -->
     <g transform="translate(508.120313 53.594687) scale(0.1 -0.1)">
      <defs>
       <path id="DejaVuSans-63" d="M 3122 3366 
L 3122 2828 
Q 2878 2963 2633 3030 
Q 2388 3097 2138 3097 
Q 1578 3097 1268 2742 
Q 959 2388 959 1747 
Q 959 1106 1268 751 
Q 1578 397 2138 397 
Q 2388 397 2633 464 
Q 2878 531 3122 666 
L 3122 134 
Q 2881 22 2623 -34 
Q 2366 -91 2075 -91 
Q 1284 -91 818 406 
Q 353 903 353 1747 
Q 353 2603 823 3093 
Q 1294 3584 2113 3584 
Q 2378 3584 2631 3529 
Q 2884 3475 3122 3366 
z
" transform="scale(0.015625)"/>
      </defs>
      <use xlink:href="#DejaVuSans-49"/>
      <use xlink:href="#DejaVuSans-64" transform="translate(29.492188 0)"/>
      <use xlink:href="#DejaVuSans-65" transform="translate(92.96875 0)"/>
      <use xlink:href="#DejaVuSans-61" transform="translate(154.492188 0)"/>
      <use xlink:href="#DejaVuSans-6c" transform="translate(215.771484 0)"/>
      <use xlink:href="#DejaVuSans-20" transform="translate(243.554688 0)"/>
      <use xlink:href="#DejaVuSans-53" transform="translate(275.341797 0)"/>
      <use xlink:href="#DejaVuSans-69" transform="translate(338.818359 0)"/>
      <use xlink:href="#DejaVuSans-6e" transform="translate(366.601562 0)"/>
      <use xlink:href="#DejaVuSans-63" transform="translate(429.980469 0)"/>
     </g>
    </g>
    <g id="line2d_30">
     <path d="M 480.120313 64.772812 
L 490.120313 64.772812 
L 500.120313 64.772812 
" style="fill: none; stroke: #1f77b4; stroke-linecap: square"/>
    </g>
    <g id="text_18">
     <!-- 1 -->
     <g transform="translate(508.120313 68.272812) scale(0.1 -0.1)">
      <use xlink:href="#DejaVuSans-31"/>
     </g>
    </g>
    <g id="line2d_31">
     <path d="M 480.120313 79.450938 
L 490.120313 79.450938 
L 500.120313 79.450938 
" style="fill: none; stroke: #ff7f0e; stroke-linecap: square"/>
    </g>
    <g id="text_19">
     <!-- 3 -->
     <g transform="translate(508.120313 82.950938) scale(0.1 -0.1)">
      <defs>
       <path id="DejaVuSans-33" d="M 2597 2516 
Q 3050 2419 3304 2112 
Q 3559 1806 3559 1356 
Q 3559 666 3084 287 
Q 2609 -91 1734 -91 
Q 1441 -91 1130 -33 
Q 819 25 488 141 
L 488 750 
Q 750 597 1062 519 
Q 1375 441 1716 441 
Q 2309 441 2620 675 
Q 2931 909 2931 1356 
Q 2931 1769 2642 2001 
Q 2353 2234 1838 2234 
L 1294 2234 
L 1294 2753 
L 1863 2753 
Q 2328 2753 2575 2939 
Q 2822 3125 2822 3475 
Q 2822 3834 2567 4026 
Q 2313 4219 1838 4219 
Q 1578 4219 1281 4162 
Q 984 4106 628 3988 
L 628 4550 
Q 988 4650 1302 4700 
Q 1616 4750 1894 4750 
Q 2613 4750 3031 4423 
Q 3450 4097 3450 3541 
Q 3450 3153 3228 2886 
Q 3006 2619 2597 2516 
z
" transform="scale(0.015625)"/>
      </defs>
      <use xlink:href="#DejaVuSans-33"/>
     </g>
    </g>
    <g id="line2d_32">
     <path d="M 480.120313 94.129063 
L 490.120313 94.129063 
L 500.120313 94.129063 
" style="fill: none; stroke: #2ca02c; stroke-linecap: square"/>
    </g>
    <g id="text_20">
     <!-- 5 -->
     <g transform="translate(508.120313 97.629063) scale(0.1 -0.1)">
      <defs>
       <path id="DejaVuSans-35" d="M 691 4666 
L 3169 4666 
L 3169 4134 
L 1269 4134 
L 1269 2991 
Q 1406 3038 1543 3061 
Q 1681 3084 1819 3084 
Q 2600 3084 3056 2656 
Q 3513 2228 3513 1497 
Q 3513 744 3044 326 
Q 2575 -91 1722 -91 
Q 1428 -91 1123 -41 
Q 819 9 494 109 
L 494 744 
Q 775 591 1075 516 
Q 1375 441 1709 441 
Q 2250 441 2565 725 
Q 2881 1009 2881 1497 
Q 2881 1984 2565 2268 
Q 2250 2553 1709 2553 
Q 1456 2553 1204 2497 
Q 953 2441 691 2322 
L 691 4666 
z
" transform="scale(0.015625)"/>
      </defs>
      <use xlink:href="#DejaVuSans-35"/>
     </g>
    </g>
   </g>
  </g>
 </g>
 <defs>
  <clipPath id="pa0cc56a16a">
   <rect x="52.160938" y="22.318125" width="513.457813" height="228.10375"/>
  </clipPath>
 </defs>
</svg>
