<?xml version="1.0" encoding="utf-8" standalone="no"?>
<!DOCTYPE svg PUBLIC "-//W3C//DTD SVG 1.1//EN"
  "http://www.w3.org/Graphics/SVG/1.1/DTD/svg11.dtd">
<svg xmlns:xlink="http://www.w3.org/1999/xlink" width="576pt" height="288pt" viewBox="0 0 576 288" xmlns="http://www.w3.org/2000/svg" version="1.1">
 <metadata>
  <rdf:RDF xmlns:dc="http://purl.org/dc/elements/1.1/" xmlns:cc="http://creativecommons.org/ns#" xmlns:rdf="http://www.w3.org/1999/02/22-rdf-syntax-ns#">
   <cc:Work>
    <dc:type rdf:resource="http://purl.org/dc/dcmitype/StillImage"/>
    <dc:date>2025-11-10T13:28:06.107309</dc:date>
    <dc:format>image/svg+xml</dc:format>
    <dc:creator>
     <cc:Agent>
      <dc:title>Matplotlib v3.10.7, https://matplotlib.org/</dc:title>
     </cc:Agent>
    </dc:creator>
   </cc:Work>
  </rdf:RDF>
 </metadata>
 <defs>
  <style type="text/css">*{stroke-linejoin: round; stroke-linecap: butt}</style>
 </defs>
 <g id="figure_1">
  <g id="patch_1">
   <path d="M 0 288 
L 576 288 
L 576 0 
L 0 0 
z
" style="fill: #ffffff"/>
  </g>
  <g id="axes_1">
   <g id="patch_2">
    <path d="M 52.160938 250.421875 
L 568.8 250.421875 
L 568.8 7.2 
L 52.160938 7.2 
z
" style="fill: #ffffff"/>
   </g>
   <g id="matplotlib.axis_1">
    <g id="xtick_1">
     <g id="line2d_1">
      <path d="M 75.644531 250.421875 
L 75.644531 7.2 
" clip-path="url(#p0de5a9e111)" style="fill: none; stroke-dasharray: 2.96,1.28; stroke-dashoffset: 0; stroke: #b0b0b0; stroke-opacity: 0.8; stroke-width: 0.8"/>
     </g>
     <g id="line2d_2">
      <defs>
       <path id="m3f82cf8204" d="M 0 0 
L 0 3.5 
" style="stroke: #000000; stroke-width: 0.8"/>
      </defs>
      <g>
       <use xlink:href="#m3f82cf8204" x="75.644531" y="250.421875" style="stroke: #000000; stroke-width: 0.8"/>
      </g>
     </g>
     <g id="text_1">
      <!-- 0 -->
      <g transform="translate(72.463281 265.020312) scale(0.1 -0.1)">
       <defs>
        <path id="DejaVuSans-30" d="M 2034 4250 
Q 1547 4250 1301 3770 
Q 1056 3291 1056 2328 
Q 1056 1369 1301 889 
Q 1547 409 2034 409 
Q 2525 409 2770 889 
Q 3016 1369 3016 2328 
Q 3016 3291 2770 3770 
Q 2525 4250 2034 4250 
z
M 2034 4750 
Q 2819 4750 3233 4129 
Q 3647 3509 3647 2328 
Q 3647 1150 3233 529 
Q 2819 -91 2034 -91 
Q 1250 -91 836 529 
Q 422 1150 422 2328 
Q 422 3509 836 4129 
Q 1250 4750 2034 4750 
z
" transform="scale(0.015625)"/>
       </defs>
       <use xlink:href="#DejaVuSans-30"/>
      </g>
     </g>
    </g>
    <g id="xtick_2">
     <g id="line2d_3">
      <path d="M 134.500656 250.421875 
L 134.500656 7.2 
" clip-path="url(#p0de5a9e111)" style="fill: none; stroke-dasharray: 2.96,1.28; stroke-dashoffset: 0; stroke: #b0b0b0; stroke-opacity: 0.8; stroke-width: 0.8"/>
     </g>
     <g id="line2d_4">
      <g>
       <use xlink:href="#m3f82cf8204" x="134.500656" y="250.421875" style="stroke: #000000; stroke-width: 0.8"/>
      </g>
     </g>
     <g id="text_2">
      <!-- 50 -->
      <g transform="translate(128.138156 265.020312) scale(0.1 -0.1)">
       <defs>
        <path id="DejaVuSans-35" d="M 691 4666 
L 3169 4666 
L 3169 4134 
L 1269 4134 
L 1269 2991 
Q 1406 3038 1543 3061 
Q 1681 3084 1819 3084 
Q 2600 3084 3056 2656 
Q 3513 2228 3513 1497 
Q 3513 744 3044 326 
Q 2575 -91 1722 -91 
Q 1428 -91 1123 -41 
Q 819 9 494 109 
L 494 744 
Q 775 591 1075 516 
Q 1375 441 1709 441 
Q 2250 441 2565 725 
Q 2881 1009 2881 1497 
Q 2881 1984 2565 2268 
Q 2250 2553 1709 2553 
Q 1456 2553 1204 2497 
Q 953 2441 691 2322 
L 691 4666 
z
" transform="scale(0.015625)"/>
       </defs>
       <use xlink:href="#DejaVuSans-35"/>
       <use xlink:href="#DejaVuSans-30" transform="translate(63.623047 0)"/>
      </g>
     </g>
    </g>
    <g id="xtick_3">
     <g id="line2d_5">
      <path d="M 193.356781 250.421875 
L 193.356781 7.2 
" clip-path="url(#p0de5a9e111)" style="fill: none; stroke-dasharray: 2.96,1.28; stroke-dashoffset: 0; stroke: #b0b0b0; stroke-opacity: 0.8; stroke-width: 0.8"/>
     </g>
     <g id="line2d_6">
      <g>
       <use xlink:href="#m3f82cf8204" x="193.356781" y="250.421875" style="stroke: #000000; stroke-width: 0.8"/>
      </g>
     </g>
     <g id="text_3">
      <!-- 100 -->
      <g transform="translate(183.813031 265.020312) scale(0.1 -0.1)">
       <defs>
        <path id="DejaVuSans-31" d="M 794 531 
L 1825 531 
L 1825 4091 
L 703 3866 
L 703 4441 
L 1819 4666 
L 2450 4666 
L 2450 531 
L 3481 531 
L 3481 0 
L 794 0 
L 794 531 
z
" transform="scale(0.015625)"/>
       </defs>
       <use xlink:href="#DejaVuSans-31"/>
       <use xlink:href="#DejaVuSans-30" transform="translate(63.623047 0)"/>
       <use xlink:href="#DejaVuSans-30" transform="translate(127.246094 0)"/>
      </g>
     </g>
    </g>
    <g id="xtick_4">
     <g id="line2d_7">
      <path d="M 252.212905 250.421875 
L 252.212905 7.2 
" clip-path="url(#p0de5a9e111)" style="fill: none; stroke-dasharray: 2.96,1.28; stroke-dashoffset: 0; stroke: #b0b0b0; stroke-opacity: 0.8; stroke-width: 0.8"/>
     </g>
     <g id="line2d_8">
      <g>
       <use xlink:href="#m3f82cf8204" x="252.212905" y="250.421875" style="stroke: #000000; stroke-width: 0.8"/>
      </g>
     </g>
     <g id="text_4">
      <!-- 150 -->
      <g transform="translate(242.669155 265.020312) scale(0.1 -0.1)">
       <use xlink:href="#DejaVuSans-31"/>
       <use xlink:href="#DejaVuSans-35" transform="translate(63.623047 0)"/>
       <use xlink:href="#DejaVuSans-30" transform="translate(127.246094 0)"/>
      </g>
     </g>
    </g>
    <g id="xtick_5">
     <g id="line2d_9">
      <path d="M 311.06903 250.421875 
L 311.06903 7.2 
" clip-path="url(#p0de5a9e111)" style="fill: none; stroke-dasharray: 2.96,1.28; stroke-dashoffset: 0; stroke: #b0b0b0; stroke-opacity: 0.8; stroke-width: 0.8"/>
     </g>
     <g id="line2d_10">
      <g>
       <use xlink:href="#m3f82cf8204" x="311.06903" y="250.421875" style="stroke: #000000; stroke-width: 0.8"/>
      </g>
     </g>
     <g id="text_5">
      <!-- 200 -->
      <g transform="translate(301.52528 265.020312) scale(0.1 -0.1)">
       <defs>
        <path id="DejaVuSans-32" d="M 1228 531 
L 3431 531 
L 3431 0 
L 469 0 
L 469 531 
Q 828 903 1448 1529 
Q 2069 2156 2228 2338 
Q 2531 2678 2651 2914 
Q 2772 3150 2772 3378 
Q 2772 3750 2511 3984 
Q 2250 4219 1831 4219 
Q 1534 4219 1204 4116 
Q 875 4013 500 3803 
L 500 4441 
Q 881 4594 1212 4672 
Q 1544 4750 1819 4750 
Q 2544 4750 2975 4387 
Q 3406 4025 3406 3419 
Q 3406 3131 3298 2873 
Q 3191 2616 2906 2266 
Q 2828 2175 2409 1742 
Q 1991 1309 1228 531 
z
" transform="scale(0.015625)"/>
       </defs>
       <use xlink:href="#DejaVuSans-32"/>
       <use xlink:href="#DejaVuSans-30" transform="translate(63.623047 0)"/>
       <use xlink:href="#DejaVuSans-30" transform="translate(127.246094 0)"/>
      </g>
     </g>
    </g>
    <g id="xtick_6">
     <g id="line2d_11">
      <path d="M 369.925155 250.421875 
L 369.925155 7.2 
" clip-path="url(#p0de5a9e111)" style="fill: none; stroke-dasharray: 2.96,1.28; stroke-dashoffset: 0; stroke: #b0b0b0; stroke-opacity: 0.8; stroke-width: 0.8"/>
     </g>
     <g id="line2d_12">
      <g>
       <use xlink:href="#m3f82cf8204" x="369.925155" y="250.421875" style="stroke: #000000; stroke-width: 0.8"/>
      </g>
     </g>
     <g id="text_6">
      <!-- 250 -->
      <g transform="translate(360.381405 265.020312) scale(0.1 -0.1)">
       <use xlink:href="#DejaVuSans-32"/>
       <use xlink:href="#DejaVuSans-35" transform="translate(63.623047 0)"/>
       <use xlink:href="#DejaVuSans-30" transform="translate(127.246094 0)"/>
      </g>
     </g>
    </g>
    <g id="xtick_7">
     <g id="line2d_13">
      <path d="M 428.781279 250.421875 
L 428.781279 7.2 
" clip-path="url(#p0de5a9e111)" style="fill: none; stroke-dasharray: 2.96,1.28; stroke-dashoffset: 0; stroke: #b0b0b0; stroke-opacity: 0.8; stroke-width: 0.8"/>
     </g>
     <g id="line2d_14">
      <g>
       <use xlink:href="#m3f82cf8204" x="428.781279" y="250.421875" style="stroke: #000000; stroke-width: 0.8"/>
      </g>
     </g>
     <g id="text_7">
      <!-- 300 -->
      <g transform="translate(419.237529 265.020312) scale(0.1 -0.1)">
       <defs>
        <path id="DejaVuSans-33" d="M 2597 2516 
Q 3050 2419 3304 2112 
Q 3559 1806 3559 1356 
Q 3559 666 3084 287 
Q 2609 -91 1734 -91 
Q 1441 -91 1130 -33 
Q 819 25 488 141 
L 488 750 
Q 750 597 1062 519 
Q 1375 441 1716 441 
Q 2309 441 2620 675 
Q 2931 909 2931 1356 
Q 2931 1769 2642 2001 
Q 2353 2234 1838 2234 
L 1294 2234 
L 1294 2753 
L 1863 2753 
Q 2328 2753 2575 2939 
Q 2822 3125 2822 3475 
Q 2822 3834 2567 4026 
Q 2313 4219 1838 4219 
Q 1578 4219 1281 4162 
Q 984 4106 628 3988 
L 628 4550 
Q 988 4650 1302 4700 
Q 1616 4750 1894 4750 
Q 2613 4750 3031 4423 
Q 3450 4097 3450 3541 
Q 3450 3153 3228 2886 
Q 3006 2619 2597 2516 
z
" transform="scale(0.015625)"/>
       </defs>
       <use xlink:href="#DejaVuSans-33"/>
       <use xlink:href="#DejaVuSans-30" transform="translate(63.623047 0)"/>
       <use xlink:href="#DejaVuSans-30" transform="translate(127.246094 0)"/>
      </g>
     </g>
    </g>
    <g id="xtick_8">
     <g id="line2d_15">
      <path d="M 487.637404 250.421875 
L 487.637404 7.2 
" clip-path="url(#p0de5a9e111)" style="fill: none; stroke-dasharray: 2.96,1.28; stroke-dashoffset: 0; stroke: #b0b0b0; stroke-opacity: 0.8; stroke-width: 0.8"/>
     </g>
     <g id="line2d_16">
      <g>
       <use xlink:href="#m3f82cf8204" x="487.637404" y="250.421875" style="stroke: #000000; stroke-width: 0.8"/>
      </g>
     </g>
     <g id="text_8">
      <!-- 350 -->
      <g transform="translate(478.093654 265.020312) scale(0.1 -0.1)">
       <use xlink:href="#DejaVuSans-33"/>
       <use xlink:href="#DejaVuSans-35" transform="translate(63.623047 0)"/>
       <use xlink:href="#DejaVuSans-30" transform="translate(127.246094 0)"/>
      </g>
     </g>
    </g>
    <g id="xtick_9">
     <g id="line2d_17">
      <path d="M 546.493529 250.421875 
L 546.493529 7.2 
" clip-path="url(#p0de5a9e111)" style="fill: none; stroke-dasharray: 2.96,1.28; stroke-dashoffset: 0; stroke: #b0b0b0; stroke-opacity: 0.8; stroke-width: 0.8"/>
     </g>
     <g id="line2d_18">
      <g>
       <use xlink:href="#m3f82cf8204" x="546.493529" y="250.421875" style="stroke: #000000; stroke-width: 0.8"/>
      </g>
     </g>
     <g id="text_9">
      <!-- 400 -->
      <g transform="translate(536.949779 265.020312) scale(0.1 -0.1)">
       <defs>
        <path id="DejaVuSans-34" d="M 2419 4116 
L 825 1625 
L 2419 1625 
L 2419 4116 
z
M 2253 4666 
L 3047 4666 
L 3047 1625 
L 3713 1625 
L 3713 1100 
L 3047 1100 
L 3047 0 
L 2419 0 
L 2419 1100 
L 313 1100 
L 313 1709 
L 2253 4666 
z
" transform="scale(0.015625)"/>
       </defs>
       <use xlink:href="#DejaVuSans-34"/>
       <use xlink:href="#DejaVuSans-30" transform="translate(63.623047 0)"/>
       <use xlink:href="#DejaVuSans-30" transform="translate(127.246094 0)"/>
      </g>
     </g>
    </g>
    <g id="text_10">
     <!-- Sample, $n$ -->
     <g transform="translate(285.380469 278.7) scale(0.1 -0.1)">
      <defs>
       <path id="DejaVuSans-53" d="M 3425 4513 
L 3425 3897 
Q 3066 4069 2747 4153 
Q 2428 4238 2131 4238 
Q 1616 4238 1336 4038 
Q 1056 3838 1056 3469 
Q 1056 3159 1242 3001 
Q 1428 2844 1947 2747 
L 2328 2669 
Q 3034 2534 3370 2195 
Q 3706 1856 3706 1288 
Q 3706 609 3251 259 
Q 2797 -91 1919 -91 
Q 1588 -91 1214 -16 
Q 841 59 441 206 
L 441 856 
Q 825 641 1194 531 
Q 1563 422 1919 422 
Q 2459 422 2753 634 
Q 3047 847 3047 1241 
Q 3047 1584 2836 1778 
Q 2625 1972 2144 2069 
L 1759 2144 
Q 1053 2284 737 2584 
Q 422 2884 422 3419 
Q 422 4038 858 4394 
Q 1294 4750 2059 4750 
Q 2388 4750 2728 4690 
Q 3069 4631 3425 4513 
z
" transform="scale(0.015625)"/>
       <path id="DejaVuSans-61" d="M 2194 1759 
Q 1497 1759 1228 1600 
Q 959 1441 959 1056 
Q 959 750 1161 570 
Q 1363 391 1709 391 
Q 2188 391 2477 730 
Q 2766 1069 2766 1631 
L 2766 1759 
L 2194 1759 
z
M 3341 1997 
L 3341 0 
L 2766 0 
L 2766 531 
Q 2569 213 2275 61 
Q 1981 -91 1556 -91 
Q 1019 -91 701 211 
Q 384 513 384 1019 
Q 384 1609 779 1909 
Q 1175 2209 1959 2209 
L 2766 2209 
L 2766 2266 
Q 2766 2663 2505 2880 
Q 2244 3097 1772 3097 
Q 1472 3097 1187 3025 
Q 903 2953 641 2809 
L 641 3341 
Q 956 3463 1253 3523 
Q 1550 3584 1831 3584 
Q 2591 3584 2966 3190 
Q 3341 2797 3341 1997 
z
" transform="scale(0.015625)"/>
       <path id="DejaVuSans-6d" d="M 3328 2828 
Q 3544 3216 3844 3400 
Q 4144 3584 4550 3584 
Q 5097 3584 5394 3201 
Q 5691 2819 5691 2113 
L 5691 0 
L 5113 0 
L 5113 2094 
Q 5113 2597 4934 2840 
Q 4756 3084 4391 3084 
Q 3944 3084 3684 2787 
Q 3425 2491 3425 1978 
L 3425 0 
L 2847 0 
L 2847 2094 
Q 2847 2600 2669 2842 
Q 2491 3084 2119 3084 
Q 1678 3084 1418 2786 
Q 1159 2488 1159 1978 
L 1159 0 
L 581 0 
L 581 3500 
L 1159 3500 
L 1159 2956 
Q 1356 3278 1631 3431 
Q 1906 3584 2284 3584 
Q 2666 3584 2933 3390 
Q 3200 3197 3328 2828 
z
" transform="scale(0.015625)"/>
       <path id="DejaVuSans-70" d="M 1159 525 
L 1159 -1331 
L 581 -1331 
L 581 3500 
L 1159 3500 
L 1159 2969 
Q 1341 3281 1617 3432 
Q 1894 3584 2278 3584 
Q 2916 3584 3314 3078 
Q 3713 2572 3713 1747 
Q 3713 922 3314 415 
Q 2916 -91 2278 -91 
Q 1894 -91 1617 61 
Q 1341 213 1159 525 
z
M 3116 1747 
Q 3116 2381 2855 2742 
Q 2594 3103 2138 3103 
Q 1681 3103 1420 2742 
Q 1159 2381 1159 1747 
Q 1159 1113 1420 752 
Q 1681 391 2138 391 
Q 2594 391 2855 752 
Q 3116 1113 3116 1747 
z
" transform="scale(0.015625)"/>
       <path id="DejaVuSans-6c" d="M 603 4863 
L 1178 4863 
L 1178 0 
L 603 0 
L 603 4863 
z
" transform="scale(0.015625)"/>
       <path id="DejaVuSans-65" d="M 3597 1894 
L 3597 1613 
L 953 1613 
Q 991 1019 1311 708 
Q 1631 397 2203 397 
Q 2534 397 2845 478 
Q 3156 559 3463 722 
L 3463 178 
Q 3153 47 2828 -22 
Q 2503 -91 2169 -91 
Q 1331 -91 842 396 
Q 353 884 353 1716 
Q 353 2575 817 3079 
Q 1281 3584 2069 3584 
Q 2775 3584 3186 3129 
Q 3597 2675 3597 1894 
z
M 3022 2063 
Q 3016 2534 2758 2815 
Q 2500 3097 2075 3097 
Q 1594 3097 1305 2825 
Q 1016 2553 972 2059 
L 3022 2063 
z
" transform="scale(0.015625)"/>
       <path id="DejaVuSans-2c" d="M 750 794 
L 1409 794 
L 1409 256 
L 897 -744 
L 494 -744 
L 750 256 
L 750 794 
z
" transform="scale(0.015625)"/>
       <path id="DejaVuSans-20" transform="scale(0.015625)"/>
       <path id="DejaVuSans-Oblique-6e" d="M 3566 2113 
L 3156 0 
L 2578 0 
L 2988 2091 
Q 3016 2238 3031 2350 
Q 3047 2463 3047 2528 
Q 3047 2791 2881 2937 
Q 2716 3084 2419 3084 
Q 1956 3084 1622 2776 
Q 1288 2469 1184 1941 
L 800 0 
L 225 0 
L 903 3500 
L 1478 3500 
L 1363 2950 
Q 1603 3253 1940 3418 
Q 2278 3584 2650 3584 
Q 3113 3584 3367 3334 
Q 3622 3084 3622 2631 
Q 3622 2519 3608 2391 
Q 3594 2263 3566 2113 
z
" transform="scale(0.015625)"/>
      </defs>
      <use xlink:href="#DejaVuSans-53" transform="translate(0 0.015625)"/>
      <use xlink:href="#DejaVuSans-61" transform="translate(63.476562 0.015625)"/>
      <use xlink:href="#DejaVuSans-6d" transform="translate(124.755859 0.015625)"/>
      <use xlink:href="#DejaVuSans-70" transform="translate(222.167969 0.015625)"/>
      <use xlink:href="#DejaVuSans-6c" transform="translate(285.644531 0.015625)"/>
      <use xlink:href="#DejaVuSans-65" transform="translate(313.427734 0.015625)"/>
      <use xlink:href="#DejaVuSans-2c" transform="translate(374.951172 0.015625)"/>
      <use xlink:href="#DejaVuSans-20" transform="translate(406.738281 0.015625)"/>
      <use xlink:href="#DejaVuSans-Oblique-6e" transform="translate(438.525391 0.015625)"/>
     </g>
    </g>
   </g>
   <g id="matplotlib.axis_2">
    <g id="ytick_1">
     <g id="line2d_19">
      <path d="M 52.160938 219.625965 
L 568.8 219.625965 
" clip-path="url(#p0de5a9e111)" style="fill: none; stroke-dasharray: 2.96,1.28; stroke-dashoffset: 0; stroke: #b0b0b0; stroke-opacity: 0.8; stroke-width: 0.8"/>
     </g>
     <g id="line2d_20">
      <defs>
       <path id="m9526ed28a2" d="M 0 0 
L -3.5 0 
" style="stroke: #000000; stroke-width: 0.8"/>
      </defs>
      <g>
       <use xlink:href="#m9526ed28a2" x="52.160938" y="219.625965" style="stroke: #000000; stroke-width: 0.8"/>
      </g>
     </g>
     <g id="text_11">
      <!-- −0.4 -->
      <g transform="translate(20.878125 223.425184) scale(0.1 -0.1)">
       <defs>
        <path id="DejaVuSans-2212" d="M 678 2272 
L 4684 2272 
L 4684 1741 
L 678 1741 
L 678 2272 
z
" transform="scale(0.015625)"/>
        <path id="DejaVuSans-2e" d="M 684 794 
L 1344 794 
L 1344 0 
L 684 0 
L 684 794 
z
" transform="scale(0.015625)"/>
       </defs>
       <use xlink:href="#DejaVuSans-2212"/>
       <use xlink:href="#DejaVuSans-30" transform="translate(83.789062 0)"/>
       <use xlink:href="#DejaVuSans-2e" transform="translate(147.412109 0)"/>
       <use xlink:href="#DejaVuSans-34" transform="translate(179.199219 0)"/>
      </g>
     </g>
    </g>
    <g id="ytick_2">
     <g id="line2d_21">
      <path d="M 52.160938 175.277399 
L 568.8 175.277399 
" clip-path="url(#p0de5a9e111)" style="fill: none; stroke-dasharray: 2.96,1.28; stroke-dashoffset: 0; stroke: #b0b0b0; stroke-opacity: 0.8; stroke-width: 0.8"/>
     </g>
     <g id="line2d_22">
      <g>
       <use xlink:href="#m9526ed28a2" x="52.160938" y="175.277399" style="stroke: #000000; stroke-width: 0.8"/>
      </g>
     </g>
     <g id="text_12">
      <!-- −0.2 -->
      <g transform="translate(20.878125 179.076618) scale(0.1 -0.1)">
       <use xlink:href="#DejaVuSans-2212"/>
       <use xlink:href="#DejaVuSans-30" transform="translate(83.789062 0)"/>
       <use xlink:href="#DejaVuSans-2e" transform="translate(147.412109 0)"/>
       <use xlink:href="#DejaVuSans-32" transform="translate(179.199219 0)"/>
      </g>
     </g>
    </g>
    <g id="ytick_3">
     <g id="line2d_23">
      <path d="M 52.160938 130.928833 
L 568.8 130.928833 
" clip-path="url(#p0de5a9e111)" style="fill: none; stroke-dasharray: 2.96,1.28; stroke-dashoffset: 0; stroke: #b0b0b0; stroke-opacity: 0.8; stroke-width: 0.8"/>
     </g>
     <g id="line2d_24">
      <g>
       <use xlink:href="#m9526ed28a2" x="52.160938" y="130.928833" style="stroke: #000000; stroke-width: 0.8"/>
      </g>
     </g>
     <g id="text_13">
      <!-- 0.0 -->
      <g transform="translate(29.257812 134.728052) scale(0.1 -0.1)">
       <use xlink:href="#DejaVuSans-30"/>
       <use xlink:href="#DejaVuSans-2e" transform="translate(63.623047 0)"/>
       <use xlink:href="#DejaVuSans-30" transform="translate(95.410156 0)"/>
      </g>
     </g>
    </g>
    <g id="ytick_4">
     <g id="line2d_25">
      <path d="M 52.160938 86.580266 
L 568.8 86.580266 
" clip-path="url(#p0de5a9e111)" style="fill: none; stroke-dasharray: 2.96,1.28; stroke-dashoffset: 0; stroke: #b0b0b0; stroke-opacity: 0.8; stroke-width: 0.8"/>
     </g>
     <g id="line2d_26">
      <g>
       <use xlink:href="#m9526ed28a2" x="52.160938" y="86.580266" style="stroke: #000000; stroke-width: 0.8"/>
      </g>
     </g>
     <g id="text_14">
      <!-- 0.2 -->
      <g transform="translate(29.257812 90.379485) scale(0.1 -0.1)">
       <use xlink:href="#DejaVuSans-30"/>
       <use xlink:href="#DejaVuSans-2e" transform="translate(63.623047 0)"/>
       <use xlink:href="#DejaVuSans-32" transform="translate(95.410156 0)"/>
      </g>
     </g>
    </g>
    <g id="ytick_5">
     <g id="line2d_27">
      <path d="M 52.160938 42.2317 
L 568.8 42.2317 
" clip-path="url(#p0de5a9e111)" style="fill: none; stroke-dasharray: 2.96,1.28; stroke-dashoffset: 0; stroke: #b0b0b0; stroke-opacity: 0.8; stroke-width: 0.8"/>
     </g>
     <g id="line2d_28">
      <g>
       <use xlink:href="#m9526ed28a2" x="52.160938" y="42.2317" style="stroke: #000000; stroke-width: 0.8"/>
      </g>
     </g>
     <g id="text_15">
      <!-- 0.4 -->
      <g transform="translate(29.257812 46.030919) scale(0.1 -0.1)">
       <use xlink:href="#DejaVuSans-30"/>
       <use xlink:href="#DejaVuSans-2e" transform="translate(63.623047 0)"/>
       <use xlink:href="#DejaVuSans-34" transform="translate(95.410156 0)"/>
      </g>
     </g>
    </g>
    <g id="text_16">
     <!-- Amplitude -->
     <g transform="translate(14.798437 154.433594) rotate(-90) scale(0.1 -0.1)">
      <defs>
       <path id="DejaVuSans-41" d="M 2188 4044 
L 1331 1722 
L 3047 1722 
L 2188 4044 
z
M 1831 4666 
L 2547 4666 
L 4325 0 
L 3669 0 
L 3244 1197 
L 1141 1197 
L 716 0 
L 50 0 
L 1831 4666 
z
" transform="scale(0.015625)"/>
       <path id="DejaVuSans-69" d="M 603 3500 
L 1178 3500 
L 1178 0 
L 603 0 
L 603 3500 
z
M 603 4863 
L 1178 4863 
L 1178 4134 
L 603 4134 
L 603 4863 
z
" transform="scale(0.015625)"/>
       <path id="DejaVuSans-74" d="M 1172 4494 
L 1172 3500 
L 2356 3500 
L 2356 3053 
L 1172 3053 
L 1172 1153 
Q 1172 725 1289 603 
Q 1406 481 1766 481 
L 2356 481 
L 2356 0 
L 1766 0 
Q 1100 0 847 248 
Q 594 497 594 1153 
L 594 3053 
L 172 3053 
L 172 3500 
L 594 3500 
L 594 4494 
L 1172 4494 
z
" transform="scale(0.015625)"/>
       <path id="DejaVuSans-75" d="M 544 1381 
L 544 3500 
L 1119 3500 
L 1119 1403 
Q 1119 906 1312 657 
Q 1506 409 1894 409 
Q 2359 409 2629 706 
Q 2900 1003 2900 1516 
L 2900 3500 
L 3475 3500 
L 3475 0 
L 2900 0 
L 2900 538 
Q 2691 219 2414 64 
Q 2138 -91 1772 -91 
Q 1169 -91 856 284 
Q 544 659 544 1381 
z
M 1991 3584 
L 1991 3584 
z
" transform="scale(0.015625)"/>
       <path id="DejaVuSans-64" d="M 2906 2969 
L 2906 4863 
L 3481 4863 
L 3481 0 
L 2906 0 
L 2906 525 
Q 2725 213 2448 61 
Q 2172 -91 1784 -91 
Q 1150 -91 751 415 
Q 353 922 353 1747 
Q 353 2572 751 3078 
Q 1150 3584 1784 3584 
Q 2172 3584 2448 3432 
Q 2725 3281 2906 2969 
z
M 947 1747 
Q 947 1113 1208 752 
Q 1469 391 1925 391 
Q 2381 391 2643 752 
Q 2906 1113 2906 1747 
Q 2906 2381 2643 2742 
Q 2381 3103 1925 3103 
Q 1469 3103 1208 2742 
Q 947 2381 947 1747 
z
" transform="scale(0.015625)"/>
      </defs>
      <use xlink:href="#DejaVuSans-41"/>
      <use xlink:href="#DejaVuSans-6d" transform="translate(68.408203 0)"/>
      <use xlink:href="#DejaVuSans-70" transform="translate(165.820312 0)"/>
      <use xlink:href="#DejaVuSans-6c" transform="translate(229.296875 0)"/>
      <use xlink:href="#DejaVuSans-69" transform="translate(257.080078 0)"/>
      <use xlink:href="#DejaVuSans-74" transform="translate(284.863281 0)"/>
      <use xlink:href="#DejaVuSans-75" transform="translate(324.072266 0)"/>
      <use xlink:href="#DejaVuSans-64" transform="translate(387.451172 0)"/>
      <use xlink:href="#DejaVuSans-65" transform="translate(450.927734 0)"/>
     </g>
    </g>
   </g>
   <g id="line2d_29">
    <path d="M 75.644531 130.20495 
L 76.821654 135.566688 
L 77.998776 131.187122 
L 79.175899 131.998509 
L 80.353021 132.142776 
L 81.530144 130.853511 
L 82.707266 126.115691 
L 83.884389 123.872505 
L 85.061511 133.354496 
L 86.238634 132.479672 
L 87.415756 132.443276 
L 88.592879 128.469691 
L 89.770001 132.66594 
L 90.947124 124.980972 
L 92.124246 126.324536 
L 93.301369 129.46077 
L 94.478491 131.107673 
L 95.655614 130.522712 
L 96.832736 135.879926 
L 98.009859 133.937383 
L 99.186981 131.085849 
L 100.364104 135.231943 
L 101.541226 132.990512 
L 102.718349 139.434551 
L 103.895471 135.418617 
L 106.249716 126.276372 
L 107.426839 120.796652 
L 108.603961 125.731006 
L 109.781084 124.667391 
L 110.958206 124.569163 
L 113.312451 114.005717 
L 114.489574 127.17156 
L 115.666696 130.173596 
L 116.843819 145.483973 
L 118.020941 150.509985 
L 119.198064 151.751089 
L 122.729431 142.775043 
L 123.906553 125.536384 
L 125.083676 112.935063 
L 126.260798 95.623604 
L 127.437921 82.025916 
L 128.615043 70.967928 
L 129.792166 53.041466 
L 130.969288 63.878909 
L 132.146411 68.636341 
L 133.323533 79.894202 
L 134.500656 98.123726 
L 135.677778 123.330282 
L 136.854901 138.938432 
L 138.032023 172.209274 
L 140.386268 213.968625 
L 141.563391 221.397304 
L 142.740513 223.918688 
L 143.917636 223.728777 
L 145.094758 214.987992 
L 146.271881 208.148357 
L 148.626126 183.305773 
L 149.803248 175.497595 
L 150.980371 175.23281 
L 152.157493 178.724194 
L 153.334616 180.761518 
L 154.511738 199.810922 
L 155.688861 205.836033 
L 158.043106 224.541048 
L 160.397351 212.81771 
L 161.574473 200.217892 
L 162.751596 192.101767 
L 163.928718 167.161195 
L 165.105841 139.793958 
L 166.282963 124.300858 
L 167.460086 96.393381 
L 168.637208 79.545386 
L 169.814331 60.564745 
L 170.991453 58.444236 
L 172.168576 67.12932 
L 173.345698 66.417304 
L 174.522821 80.259039 
L 176.877066 113.089814 
L 178.054188 125.513309 
L 179.231311 133.109885 
L 180.408433 142.993902 
L 181.585556 142.897595 
L 182.762678 131.904274 
L 183.939801 130.566679 
L 186.294046 105.652635 
L 188.648291 75.760261 
L 189.825413 57.595642 
L 191.002536 48.343739 
L 192.179658 41.274699 
L 194.533903 25.768024 
L 195.711026 31.196758 
L 196.888148 43.08395 
L 198.065271 49.00842 
L 199.242393 69.273239 
L 200.419516 82.74016 
L 201.596638 101.032834 
L 202.773761 128.119564 
L 203.950883 149.736971 
L 205.128006 158.361712 
L 206.305128 173.76561 
L 207.482251 182.037478 
L 208.659373 196.579722 
L 209.836496 195.533139 
L 211.013618 184.786273 
L 212.190741 184.30568 
L 213.367863 171.252271 
L 214.544986 161.862647 
L 215.722108 142.621445 
L 216.89923 134.84659 
L 218.076353 107.465004 
L 219.253475 99.494872 
L 220.430598 99.545437 
L 221.60772 87.098479 
L 222.784843 85.927188 
L 223.961965 76.658772 
L 225.139088 75.468059 
L 226.31621 78.833624 
L 227.493333 76.906075 
L 228.670455 86.327025 
L 229.847578 83.206465 
L 231.0247 93.997884 
L 232.201823 102.116428 
L 233.378945 113.277975 
L 234.556068 117.242149 
L 235.73319 127.375723 
L 236.910313 138.828064 
L 238.087435 142.606925 
L 239.264558 156.221805 
L 240.44168 167.550079 
L 241.618803 175.352924 
L 242.795925 178.74434 
L 243.973048 187.979389 
L 245.15017 183.341297 
L 246.327293 185.38351 
L 247.504415 177.559603 
L 248.681538 174.384472 
L 249.85866 167.602666 
L 252.212905 157.382483 
L 253.390028 139.657622 
L 255.744273 123.680613 
L 256.921395 112.060232 
L 258.098518 104.344007 
L 259.27564 82.361258 
L 260.452763 87.538056 
L 261.629885 84.041823 
L 262.807008 68.795518 
L 263.98413 73.953644 
L 265.161253 77.064544 
L 266.338375 77.557103 
L 267.515498 87.066486 
L 268.69262 95.552988 
L 269.869743 107.654467 
L 271.046865 110.020516 
L 272.223988 119.613378 
L 274.578233 143.816405 
L 275.755355 152.311316 
L 276.932478 165.058735 
L 278.1096 171.628139 
L 279.286723 178.965119 
L 281.640968 186.691051 
L 282.81809 183.563099 
L 283.995213 186.56217 
L 285.172335 184.152924 
L 286.349458 183.349196 
L 289.880825 151.743794 
L 291.057948 137.505075 
L 292.23507 135.622443 
L 293.412193 121.611902 
L 294.589315 104.523775 
L 295.766438 94.745378 
L 296.94356 97.207289 
L 298.120683 89.110157 
L 299.297805 77.306994 
L 300.474928 78.113983 
L 301.65205 80.844458 
L 302.829173 74.075473 
L 304.006295 80.717237 
L 305.183418 80.662144 
L 306.36054 94.700453 
L 307.537663 93.27044 
L 308.714785 116.226461 
L 309.891908 126.031903 
L 311.06903 126.249261 
L 312.246152 139.939247 
L 313.423275 142.05277 
L 314.600397 155.173917 
L 315.77752 165.559547 
L 316.954642 174.744481 
L 318.131765 182.727971 
L 319.308887 192.930887 
L 320.48601 186.184835 
L 321.663132 190.9097 
L 322.840255 202.817901 
L 324.017377 203.615544 
L 325.1945 200.303868 
L 326.371622 204.654248 
L 327.548745 204.496462 
L 328.725867 205.692671 
L 331.080112 209.675073 
L 332.257235 214.262692 
L 333.434357 208.271985 
L 334.61148 206.019428 
L 335.788602 204.854288 
L 336.965725 195.629072 
L 338.142847 188.469005 
L 340.497092 177.896403 
L 341.674215 167.937334 
L 342.851337 162.612131 
L 344.02846 150.992858 
L 345.205582 151.209929 
L 346.382705 143.666559 
L 347.559827 139.979631 
L 348.73695 133.221848 
L 349.914072 130.217555 
L 351.091195 133.182039 
L 352.268317 132.263264 
L 353.44544 133.001215 
L 354.622562 148.107579 
L 355.799685 156.746502 
L 356.976807 171.570851 
L 358.15393 180.027746 
L 359.331052 199.049158 
L 360.508175 203.559033 
L 361.685297 223.008465 
L 362.86242 226.105733 
L 364.039542 225.855594 
L 365.216665 231.953829 
L 366.393787 227.022538 
L 367.57091 207.272848 
L 368.748032 195.911778 
L 369.925155 177.797383 
L 371.102277 152.902526 
L 374.633645 99.4897 
L 375.810767 84.818377 
L 376.98789 72.974649 
L 378.165012 69.578931 
L 379.342135 64.155364 
L 380.519257 78.032433 
L 381.69638 76.262004 
L 382.873502 90.316927 
L 384.050625 110.808317 
L 385.227747 118.889029 
L 386.40487 132.320626 
L 387.581992 147.878151 
L 388.759115 158.515794 
L 389.936237 163.449692 
L 391.11336 167.856185 
L 392.290482 187.688621 
L 393.467605 182.939299 
L 395.82185 186.50571 
L 396.998972 182.608627 
L 398.176095 179.551319 
L 400.53034 172.97801 
L 401.707462 163.953798 
L 402.884585 152.804288 
L 404.061707 146.689327 
L 405.238829 130.850076 
L 406.415952 123.313841 
L 407.593074 113.716682 
L 408.770197 96.661666 
L 409.947319 88.810061 
L 411.124442 78.60028 
L 412.301564 70.80354 
L 413.478687 75.637303 
L 414.655809 79.845283 
L 415.832932 78.281954 
L 417.010054 81.9849 
L 418.187177 95.740727 
L 419.364299 94.72541 
L 420.541422 110.104512 
L 422.895667 122.703922 
L 424.072789 131.334243 
L 425.249912 127.087705 
L 426.427034 129.858281 
L 427.604157 134.653613 
L 428.781279 126.778123 
L 429.958402 121.186576 
L 431.135524 106.733125 
L 432.312647 95.841224 
L 433.489769 78.896134 
L 434.666892 59.901409 
L 435.844014 48.654594 
L 437.021137 33.890674 
L 438.198259 22.125818 
L 439.375382 22.627859 
L 440.552504 18.25554 
L 441.729627 23.650628 
L 442.906749 42.028108 
L 444.083872 66.952322 
L 445.260994 88.586696 
L 446.438117 123.352929 
L 447.615239 144.36238 
L 448.792362 172.23606 
L 449.969484 188.231967 
L 451.146607 195.577903 
L 452.323729 197.835022 
L 453.500852 182.996473 
L 454.677974 170.254703 
L 455.855097 149.873882 
L 457.032219 119.039528 
L 458.209342 94.760072 
L 459.386464 66.889791 
L 460.563587 49.429852 
L 461.740709 40.873074 
L 462.917832 44.052501 
L 464.094954 54.500849 
L 465.272077 71.6484 
L 466.449199 95.261356 
L 467.626322 126.765876 
L 469.980567 176.141015 
L 471.157689 190.422776 
L 472.334812 214.861614 
L 473.511934 211.405211 
L 474.689057 207.360694 
L 475.866179 198.965698 
L 477.043302 178.026576 
L 478.220424 161.509358 
L 479.397547 147.438358 
L 480.574669 127.277519 
L 481.751792 104.810029 
L 482.928914 86.481488 
L 484.106037 86.559121 
L 485.283159 76.322201 
L 486.460282 75.478018 
L 487.637404 74.026011 
L 488.814527 81.431917 
L 489.991649 83.850474 
L 491.168772 78.000077 
L 492.345894 93.875112 
L 493.523017 94.684124 
L 494.700139 100.320069 
L 495.877262 113.423361 
L 497.054384 111.598154 
L 498.231507 118.330466 
L 499.408629 115.11345 
L 500.585751 133.44683 
L 501.762874 147.435295 
L 502.939996 159.020213 
L 504.117119 162.305109 
L 505.294241 175.120862 
L 506.471364 176.406543 
L 507.648486 184.153758 
L 508.825609 188.554675 
L 510.002731 188.073628 
L 511.179854 189.697571 
L 512.356976 198.491035 
L 513.534099 202.885475 
L 514.711221 199.051916 
L 515.888344 199.684838 
L 517.065466 199.264676 
L 518.242589 201.700153 
L 519.419711 202.307233 
L 520.596834 210.522258 
L 521.773956 211.074909 
L 522.951079 217.919651 
L 524.128201 212.663107 
L 525.305324 200.773412 
L 526.482446 199.20472 
L 527.659569 192.447223 
L 528.836691 174.142927 
L 531.190936 149.708922 
L 532.368059 146.803235 
L 533.545181 127.177676 
L 534.722304 122.740893 
L 535.899426 124.922869 
L 537.076549 127.465408 
L 538.253671 136.369912 
L 539.430794 142.282455 
L 540.607916 152.532892 
L 541.785039 175.08457 
L 542.962161 175.926631 
L 544.139284 193.504155 
L 545.316406 194.860107 
L 545.316406 194.860107 
" clip-path="url(#p0de5a9e111)" style="fill: none; stroke: #1f77b4; stroke-linecap: square"/>
   </g>
   <g id="line2d_30">
    <path d="M 75.644531 133.659893 
L 77.998776 131.135439 
L 79.175899 135.098431 
L 81.530144 125.514008 
L 82.707266 133.911879 
L 83.884389 131.601377 
L 85.061511 128.772539 
L 86.238634 131.870062 
L 87.415756 129.860898 
L 88.592879 139.517725 
L 89.770001 131.069369 
L 90.947124 134.889108 
L 92.124246 141.655978 
L 93.301369 132.533215 
L 94.478491 137.214393 
L 95.655614 127.010537 
L 96.832736 122.670777 
L 98.009859 121.009317 
L 99.186981 118.135042 
L 100.364104 119.063673 
L 101.541226 120.218155 
L 102.718349 115.434287 
L 103.895471 123.728264 
L 105.072594 130.063959 
L 107.426839 144.716609 
L 109.781084 155.398612 
L 110.958206 148.205683 
L 112.135329 153.829893 
L 113.312451 142.298928 
L 114.489574 123.560374 
L 115.666696 101.815973 
L 116.843819 88.294561 
L 118.020941 67.550941 
L 119.198064 53.766302 
L 120.375186 43.952988 
L 121.552309 42.002457 
L 122.729431 41.673702 
L 123.906553 51.238254 
L 126.260798 96.830162 
L 127.437921 126.959662 
L 128.615043 146.016397 
L 129.792166 168.323597 
L 130.969288 193.40947 
L 132.146411 200.055752 
L 133.323533 199.684233 
L 134.500656 191.955776 
L 136.854901 173.329636 
L 138.032023 150.106394 
L 139.209146 131.696912 
L 141.563391 116.893807 
L 142.740513 116.972096 
L 143.917636 128.903578 
L 146.271881 149.450021 
L 147.449003 168.897099 
L 149.803248 192.381323 
L 150.980371 195.460596 
L 152.157493 196.274715 
L 153.334616 184.466565 
L 154.511738 176.776323 
L 155.688861 156.10779 
L 156.865983 140.381565 
L 158.043106 129.180177 
L 159.220228 127.434258 
L 160.397351 112.639501 
L 161.574473 127.876752 
L 162.751596 130.431767 
L 163.928718 144.193858 
L 165.105841 164.343507 
L 167.460086 192.729961 
L 168.637208 194.868749 
L 169.814331 197.545919 
L 170.991453 191.130296 
L 173.345698 155.278983 
L 174.522821 129.845832 
L 175.699943 108.740074 
L 176.877066 92.42949 
L 179.231311 42.324543 
L 180.408433 26.66727 
L 181.585556 34.722988 
L 182.762678 27.450492 
L 183.939801 26.861143 
L 185.116923 41.610409 
L 186.294046 52.683219 
L 188.648291 84.159793 
L 189.825413 92.233933 
L 191.002536 106.576769 
L 192.179658 110.751647 
L 193.356781 120.197902 
L 194.533903 118.76374 
L 195.711026 114.704203 
L 196.888148 119.095125 
L 198.065271 124.995769 
L 199.242393 125.468223 
L 200.419516 117.855408 
L 201.596638 125.263739 
L 202.773761 127.61293 
L 203.950883 116.115547 
L 205.128006 107.035874 
L 206.305128 102.755173 
L 207.482251 86.78055 
L 209.836496 52.028818 
L 211.013618 42.840014 
L 212.190741 31.095524 
L 213.367863 27.744408 
L 214.544986 23.017925 
L 215.722108 27.002781 
L 216.89923 43.442234 
L 219.253475 86.552877 
L 220.430598 119.761447 
L 221.60772 143.95885 
L 222.784843 173.108076 
L 223.961965 181.851776 
L 226.31621 196.07103 
L 227.493333 187.766309 
L 228.670455 164.992007 
L 229.847578 150.926005 
L 232.201823 94.036288 
L 233.378945 71.721558 
L 234.556068 53.79188 
L 235.73319 47.926355 
L 236.910313 42.82751 
L 238.087435 51.033587 
L 239.264558 71.160114 
L 240.44168 88.893458 
L 241.618803 118.665975 
L 242.795925 145.02606 
L 245.15017 201.16508 
L 247.504415 227.013246 
L 248.681538 239.366335 
L 249.85866 230.133502 
L 251.035783 224.221942 
L 252.212905 211.314712 
L 253.390028 212.322362 
L 254.56715 199.406128 
L 255.744273 192.465488 
L 256.921395 186.621323 
L 258.098518 189.433105 
L 259.27564 189.810077 
L 260.452763 195.756608 
L 261.629885 194.498394 
L 262.807008 192.081684 
L 263.98413 199.731176 
L 265.161253 193.694104 
L 266.338375 199.494286 
L 267.515498 187.62091 
L 268.69262 188.059017 
L 269.869743 190.098112 
L 271.046865 189.774365 
L 272.223988 196.818179 
L 273.40111 198.12964 
L 274.578233 209.948569 
L 275.755355 211.235263 
L 276.932478 220.459661 
L 278.1096 231.229226 
L 279.286723 237.854935 
L 282.81809 197.960334 
L 283.995213 167.918879 
L 285.172335 145.000673 
L 287.52658 89.246039 
L 289.880825 49.869705 
L 291.057948 43.877727 
L 292.23507 41.28824 
L 293.412193 51.798901 
L 294.589315 66.421944 
L 295.766438 92.776443 
L 298.120683 151.21258 
L 299.297805 173.227379 
L 300.474928 187.765206 
L 301.65205 197.169248 
L 302.829173 199.88447 
L 304.006295 186.916938 
L 305.183418 169.475305 
L 306.36054 146.180915 
L 307.537663 109.483226 
L 308.714785 82.449326 
L 309.891908 49.472722 
L 311.06903 34.039469 
L 312.246152 28.396016 
L 313.423275 21.811633 
L 314.600397 30.617701 
L 315.77752 37.261963 
L 316.954642 46.233093 
L 318.131765 63.12311 
L 319.308887 70.892536 
L 320.48601 80.914963 
L 321.663132 100.147349 
L 322.840255 106.589414 
L 324.017377 106.82225 
L 325.1945 104.755741 
L 326.371622 105.195425 
L 327.548745 108.912367 
L 328.725867 111.435436 
L 332.257235 143.651717 
L 333.434357 162.839875 
L 334.61148 171.858996 
L 335.788602 194.532807 
L 336.965725 198.368007 
L 338.142847 197.561523 
L 339.31997 197.446902 
L 340.497092 181.791577 
L 341.674215 159.477255 
L 342.851337 147.260869 
L 344.02846 127.271972 
L 345.205582 100.299786 
L 346.382705 80.838728 
L 347.559827 58.652485 
L 348.73695 50.325603 
L 349.914072 40.613389 
L 351.091195 37.321237 
L 352.268317 35.291977 
L 353.44544 41.091254 
L 354.622562 46.096825 
L 356.976807 66.601702 
L 358.15393 73.963212 
L 359.331052 88.770798 
L 361.685297 107.58551 
L 362.86242 121.167952 
L 364.039542 124.559472 
L 365.216665 126.39514 
L 366.393787 133.236711 
L 367.57091 137.903922 
L 368.748032 128.871557 
L 369.925155 137.337377 
L 371.102277 141.774292 
L 372.2794 147.154129 
L 373.456522 147.907275 
L 374.633645 159.38923 
L 375.810767 172.803441 
L 376.98789 182.253589 
L 378.165012 197.693707 
L 379.342135 206.233763 
L 380.519257 221.380714 
L 381.69638 234.361226 
L 382.873502 238.821652 
L 384.050625 237.245191 
L 386.40487 219.401414 
L 387.581992 202.599605 
L 389.936237 148.742955 
L 391.11336 119.102608 
L 392.290482 98.222439 
L 393.467605 81.846674 
L 394.644727 67.904424 
L 395.82185 68.269593 
L 396.998972 65.739762 
L 398.176095 83.801835 
L 399.353217 111.43711 
L 400.53034 132.396924 
L 402.884585 190.831399 
L 404.061707 210.299951 
L 405.238829 224.99662 
L 406.415952 229.045021 
L 407.593074 229.230141 
L 408.770197 218.7196 
L 409.947319 213.573069 
L 412.301564 184.314811 
L 413.478687 182.401831 
L 414.655809 175.248055 
L 415.832932 170.146278 
L 417.010054 182.145444 
L 418.187177 189.176267 
L 419.364299 206.185335 
L 420.541422 211.610777 
L 421.718544 218.237953 
L 422.895667 226.580942 
L 424.072789 219.719673 
L 425.249912 210.137016 
L 426.427034 195.442335 
L 427.604157 178.949501 
L 428.781279 148.77593 
L 429.958402 127.96523 
L 431.135524 100.553892 
L 433.489769 61.06333 
L 434.666892 58.030939 
L 435.844014 51.86893 
L 438.198259 71.625932 
L 439.375382 82.775869 
L 440.552504 103.047284 
L 441.729627 127.769603 
L 442.906749 136.566895 
L 445.260994 162.338421 
L 446.438117 166.670042 
L 447.615239 175.822338 
L 448.792362 179.403299 
L 449.969484 178.303709 
L 451.146607 185.856176 
L 452.323729 181.793025 
L 453.500852 186.185082 
L 454.677974 180.376897 
L 455.855097 178.813097 
L 457.032219 173.259433 
L 458.209342 172.953776 
L 459.386464 159.078539 
L 460.563587 150.160774 
L 461.740709 133.1661 
L 462.917832 118.034962 
L 464.094954 108.765919 
L 465.272077 92.012442 
L 466.449199 83.691044 
L 467.626322 72.740729 
L 468.803444 67.651849 
L 469.980567 72.509035 
L 471.157689 68.656782 
L 472.334812 78.267486 
L 473.511934 91.865685 
L 474.689057 108.587009 
L 475.866179 136.0645 
L 477.043302 160.102319 
L 478.220424 173.720062 
L 479.397547 190.876527 
L 480.574669 215.443347 
L 481.751792 227.781583 
L 482.928914 237.973075 
L 484.106037 233.658502 
L 485.283159 231.468129 
L 486.460282 234.138004 
L 489.991649 187.089502 
L 491.168772 164.53181 
L 492.345894 146.465791 
L 493.523017 124.240386 
L 494.700139 105.389494 
L 495.877262 95.804225 
L 497.054384 80.416313 
L 499.408629 52.651309 
L 500.585751 47.75433 
L 501.762874 42.199899 
L 502.939996 42.806135 
L 504.117119 44.634589 
L 505.294241 49.680275 
L 506.471364 62.384046 
L 507.648486 68.77927 
L 508.825609 78.756288 
L 510.002731 82.838447 
L 511.179854 89.165328 
L 513.534099 105.657412 
L 514.711221 108.416216 
L 515.888344 122.586483 
L 517.065466 118.039513 
L 518.242589 126.186447 
L 519.419711 136.663957 
L 520.596834 142.959105 
L 521.773956 156.627238 
L 522.951079 160.545467 
L 524.128201 163.876742 
L 526.482446 187.001894 
L 527.659569 193.366087 
L 528.836691 202.212049 
L 530.013814 198.811369 
L 531.190936 200.723902 
L 532.368059 204.773069 
L 533.545181 201.998177 
L 534.722304 196.704697 
L 535.899426 202.959744 
L 537.076549 202.099669 
L 538.253671 207.09515 
L 539.430794 213.555979 
L 540.607916 204.748079 
L 541.785039 215.651969 
L 542.962161 218.708308 
L 544.139284 211.321606 
L 545.316406 205.575066 
L 545.316406 205.575066 
" clip-path="url(#p0de5a9e111)" style="fill: none; stroke: #ff7f0e; stroke-linecap: square"/>
   </g>
   <g id="patch_3">
    <path d="M 52.160938 250.421875 
L 52.160938 7.2 
" style="fill: none; stroke: #000000; stroke-width: 0.8; stroke-linejoin: miter; stroke-linecap: square"/>
   </g>
   <g id="patch_4">
    <path d="M 568.8 250.421875 
L 568.8 7.2 
" style="fill: none; stroke: #000000; stroke-width: 0.8; stroke-linejoin: miter; stroke-linecap: square"/>
   </g>
   <g id="patch_5">
    <path d="M 52.160937 250.421875 
L 568.8 250.421875 
" style="fill: none; stroke: #000000; stroke-width: 0.8; stroke-linejoin: miter; stroke-linecap: square"/>
   </g>
   <g id="patch_6">
    <path d="M 52.160937 7.2 
L 568.8 7.2 
" style="fill: none; stroke: #000000; stroke-width: 0.8; stroke-linejoin: miter; stroke-linecap: square"/>
   </g>
   <g id="legend_1">
    <g id="patch_7">
     <path d="M 59.160938 44.55625 
L 116.15625 44.55625 
Q 118.15625 44.55625 118.15625 42.55625 
L 118.15625 14.2 
Q 118.15625 12.2 116.15625 12.2 
L 59.160938 12.2 
Q 57.160938 12.2 57.160938 14.2 
L 57.160938 42.55625 
Q 57.160938 44.55625 59.160938 44.55625 
z
" style="fill: #ffffff; opacity: 0.8; stroke: #cccccc; stroke-linejoin: miter"/>
    </g>
    <g id="line2d_31">
     <path d="M 61.160938 20.298437 
L 71.160938 20.298437 
L 81.160938 20.298437 
" style="fill: none; stroke: #1f77b4; stroke-linecap: square"/>
    </g>
    <g id="text_17">
     <!-- real -->
     <g transform="translate(89.160938 23.798437) scale(0.1 -0.1)">
      <defs>
       <path id="DejaVuSans-72" d="M 2631 2963 
Q 2534 3019 2420 3045 
Q 2306 3072 2169 3072 
Q 1681 3072 1420 2755 
Q 1159 2438 1159 1844 
L 1159 0 
L 581 0 
L 581 3500 
L 1159 3500 
L 1159 2956 
Q 1341 3275 1631 3429 
Q 1922 3584 2338 3584 
Q 2397 3584 2469 3576 
Q 2541 3569 2628 3553 
L 2631 2963 
z
" transform="scale(0.015625)"/>
      </defs>
      <use xlink:href="#DejaVuSans-72"/>
      <use xlink:href="#DejaVuSans-65" transform="translate(38.863281 0)"/>
      <use xlink:href="#DejaVuSans-61" transform="translate(100.386719 0)"/>
      <use xlink:href="#DejaVuSans-6c" transform="translate(161.666016 0)"/>
     </g>
    </g>
    <g id="line2d_32">
     <path d="M 61.160938 34.976562 
L 71.160938 34.976562 
L 81.160938 34.976562 
" style="fill: none; stroke: #ff7f0e; stroke-linecap: square"/>
    </g>
    <g id="text_18">
     <!-- imag -->
     <g transform="translate(89.160938 38.476562) scale(0.1 -0.1)">
      <defs>
       <path id="DejaVuSans-67" d="M 2906 1791 
Q 2906 2416 2648 2759 
Q 2391 3103 1925 3103 
Q 1463 3103 1205 2759 
Q 947 2416 947 1791 
Q 947 1169 1205 825 
Q 1463 481 1925 481 
Q 2391 481 2648 825 
Q 2906 1169 2906 1791 
z
M 3481 434 
Q 3481 -459 3084 -895 
Q 2688 -1331 1869 -1331 
Q 1566 -1331 1297 -1286 
Q 1028 -1241 775 -1147 
L 775 -588 
Q 1028 -725 1275 -790 
Q 1522 -856 1778 -856 
Q 2344 -856 2625 -561 
Q 2906 -266 2906 331 
L 2906 616 
Q 2728 306 2450 153 
Q 2172 0 1784 0 
Q 1141 0 747 490 
Q 353 981 353 1791 
Q 353 2603 747 3093 
Q 1141 3584 1784 3584 
Q 2172 3584 2450 3431 
Q 2728 3278 2906 2969 
L 2906 3500 
L 3481 3500 
L 3481 434 
z
" transform="scale(0.015625)"/>
      </defs>
      <use xlink:href="#DejaVuSans-69"/>
      <use xlink:href="#DejaVuSans-6d" transform="translate(27.783203 0)"/>
      <use xlink:href="#DejaVuSans-61" transform="translate(125.195312 0)"/>
      <use xlink:href="#DejaVuSans-67" transform="translate(186.474609 0)"/>
     </g>
    </g>
   </g>
  </g>
 </g>
 <defs>
  <clipPath id="p0de5a9e111">
   <rect x="52.160938" y="7.2" width="516.639063" height="243.221875"/>
  </clipPath>
 </defs>
</svg>
