<?xml version="1.0" encoding="utf-8" standalone="no"?>
<!DOCTYPE svg PUBLIC "-//W3C//DTD SVG 1.1//EN"
  "http://www.w3.org/Graphics/SVG/1.1/DTD/svg11.dtd">
<svg xmlns:xlink="http://www.w3.org/1999/xlink" width="576pt" height="288pt" viewBox="0 0 576 288" xmlns="http://www.w3.org/2000/svg" version="1.1">
 <metadata>
  <rdf:RDF xmlns:dc="http://purl.org/dc/elements/1.1/" xmlns:cc="http://creativecommons.org/ns#" xmlns:rdf="http://www.w3.org/1999/02/22-rdf-syntax-ns#">
   <cc:Work>
    <dc:type rdf:resource="http://purl.org/dc/dcmitype/StillImage"/>
    <dc:date>2025-05-10T16:56:44.524118</dc:date>
    <dc:format>image/svg+xml</dc:format>
    <dc:creator>
     <cc:Agent>
      <dc:title>Matplotlib v3.10.3, https://matplotlib.org/</dc:title>
     </cc:Agent>
    </dc:creator>
   </cc:Work>
  </rdf:RDF>
 </metadata>
 <defs>
  <style type="text/css">*{stroke-linejoin: round; stroke-linecap: butt}</style>
 </defs>
 <g id="figure_1">
  <g id="patch_1">
   <path d="M 0 288 
L 576 288 
L 576 0 
L 0 0 
z
" style="fill: #ffffff"/>
  </g>
  <g id="axes_1">
   <g id="patch_2">
    <path d="M 52.160938 250.44375 
L 568.8 250.44375 
L 568.8 7.2 
L 52.160938 7.2 
z
" style="fill: #ffffff"/>
   </g>
   <g id="matplotlib.axis_1">
    <g id="xtick_1">
     <g id="line2d_1">
      <path d="M 75.644531 250.44375 
L 75.644531 7.2 
" clip-path="url(#p8aaf4d9df5)" style="fill: none; stroke-dasharray: 2.96,1.28; stroke-dashoffset: 0; stroke: #b0b0b0; stroke-opacity: 0.8; stroke-width: 0.8"/>
     </g>
     <g id="line2d_2">
      <defs>
       <path id="m9b100aa5c2" d="M 0 0 
L 0 3.5 
" style="stroke: #000000; stroke-width: 0.8"/>
      </defs>
      <g>
       <use xlink:href="#m9b100aa5c2" x="75.644531" y="250.44375" style="stroke: #000000; stroke-width: 0.8"/>
      </g>
     </g>
     <g id="text_1">
      <!-- 0 -->
      <g transform="translate(72.463281 265.042188) scale(0.1 -0.1)">
       <defs>
        <path id="DejaVuSans-30" d="M 2034 4250 
Q 1547 4250 1301 3770 
Q 1056 3291 1056 2328 
Q 1056 1369 1301 889 
Q 1547 409 2034 409 
Q 2525 409 2770 889 
Q 3016 1369 3016 2328 
Q 3016 3291 2770 3770 
Q 2525 4250 2034 4250 
z
M 2034 4750 
Q 2819 4750 3233 4129 
Q 3647 3509 3647 2328 
Q 3647 1150 3233 529 
Q 2819 -91 2034 -91 
Q 1250 -91 836 529 
Q 422 1150 422 2328 
Q 422 3509 836 4129 
Q 1250 4750 2034 4750 
z
" transform="scale(0.015625)"/>
       </defs>
       <use xlink:href="#DejaVuSans-30"/>
      </g>
     </g>
    </g>
    <g id="xtick_2">
     <g id="line2d_3">
      <path d="M 161.047181 250.44375 
L 161.047181 7.2 
" clip-path="url(#p8aaf4d9df5)" style="fill: none; stroke-dasharray: 2.96,1.28; stroke-dashoffset: 0; stroke: #b0b0b0; stroke-opacity: 0.8; stroke-width: 0.8"/>
     </g>
     <g id="line2d_4">
      <g>
       <use xlink:href="#m9b100aa5c2" x="161.047181" y="250.44375" style="stroke: #000000; stroke-width: 0.8"/>
      </g>
     </g>
     <g id="text_2">
      <!-- 0.2 -->
      <g transform="translate(153.095619 265.042188) scale(0.1 -0.1)">
       <defs>
        <path id="DejaVuSans-2e" d="M 684 794 
L 1344 794 
L 1344 0 
L 684 0 
L 684 794 
z
" transform="scale(0.015625)"/>
        <path id="DejaVuSans-32" d="M 1228 531 
L 3431 531 
L 3431 0 
L 469 0 
L 469 531 
Q 828 903 1448 1529 
Q 2069 2156 2228 2338 
Q 2531 2678 2651 2914 
Q 2772 3150 2772 3378 
Q 2772 3750 2511 3984 
Q 2250 4219 1831 4219 
Q 1534 4219 1204 4116 
Q 875 4013 500 3803 
L 500 4441 
Q 881 4594 1212 4672 
Q 1544 4750 1819 4750 
Q 2544 4750 2975 4387 
Q 3406 4025 3406 3419 
Q 3406 3131 3298 2873 
Q 3191 2616 2906 2266 
Q 2828 2175 2409 1742 
Q 1991 1309 1228 531 
z
" transform="scale(0.015625)"/>
       </defs>
       <use xlink:href="#DejaVuSans-30"/>
       <use xlink:href="#DejaVuSans-2e" transform="translate(63.623047 0)"/>
       <use xlink:href="#DejaVuSans-32" transform="translate(95.410156 0)"/>
      </g>
     </g>
    </g>
    <g id="xtick_3">
     <g id="line2d_5">
      <path d="M 246.449832 250.44375 
L 246.449832 7.2 
" clip-path="url(#p8aaf4d9df5)" style="fill: none; stroke-dasharray: 2.96,1.28; stroke-dashoffset: 0; stroke: #b0b0b0; stroke-opacity: 0.8; stroke-width: 0.8"/>
     </g>
     <g id="line2d_6">
      <g>
       <use xlink:href="#m9b100aa5c2" x="246.449832" y="250.44375" style="stroke: #000000; stroke-width: 0.8"/>
      </g>
     </g>
     <g id="text_3">
      <!-- 0.4 -->
      <g transform="translate(238.498269 265.042188) scale(0.1 -0.1)">
       <defs>
        <path id="DejaVuSans-34" d="M 2419 4116 
L 825 1625 
L 2419 1625 
L 2419 4116 
z
M 2253 4666 
L 3047 4666 
L 3047 1625 
L 3713 1625 
L 3713 1100 
L 3047 1100 
L 3047 0 
L 2419 0 
L 2419 1100 
L 313 1100 
L 313 1709 
L 2253 4666 
z
" transform="scale(0.015625)"/>
       </defs>
       <use xlink:href="#DejaVuSans-30"/>
       <use xlink:href="#DejaVuSans-2e" transform="translate(63.623047 0)"/>
       <use xlink:href="#DejaVuSans-34" transform="translate(95.410156 0)"/>
      </g>
     </g>
    </g>
    <g id="xtick_4">
     <g id="line2d_7">
      <path d="M 331.852482 250.44375 
L 331.852482 7.2 
" clip-path="url(#p8aaf4d9df5)" style="fill: none; stroke-dasharray: 2.96,1.28; stroke-dashoffset: 0; stroke: #b0b0b0; stroke-opacity: 0.8; stroke-width: 0.8"/>
     </g>
     <g id="line2d_8">
      <g>
       <use xlink:href="#m9b100aa5c2" x="331.852482" y="250.44375" style="stroke: #000000; stroke-width: 0.8"/>
      </g>
     </g>
     <g id="text_4">
      <!-- 0.6 -->
      <g transform="translate(323.900919 265.042188) scale(0.1 -0.1)">
       <defs>
        <path id="DejaVuSans-36" d="M 2113 2584 
Q 1688 2584 1439 2293 
Q 1191 2003 1191 1497 
Q 1191 994 1439 701 
Q 1688 409 2113 409 
Q 2538 409 2786 701 
Q 3034 994 3034 1497 
Q 3034 2003 2786 2293 
Q 2538 2584 2113 2584 
z
M 3366 4563 
L 3366 3988 
Q 3128 4100 2886 4159 
Q 2644 4219 2406 4219 
Q 1781 4219 1451 3797 
Q 1122 3375 1075 2522 
Q 1259 2794 1537 2939 
Q 1816 3084 2150 3084 
Q 2853 3084 3261 2657 
Q 3669 2231 3669 1497 
Q 3669 778 3244 343 
Q 2819 -91 2113 -91 
Q 1303 -91 875 529 
Q 447 1150 447 2328 
Q 447 3434 972 4092 
Q 1497 4750 2381 4750 
Q 2619 4750 2861 4703 
Q 3103 4656 3366 4563 
z
" transform="scale(0.015625)"/>
       </defs>
       <use xlink:href="#DejaVuSans-30"/>
       <use xlink:href="#DejaVuSans-2e" transform="translate(63.623047 0)"/>
       <use xlink:href="#DejaVuSans-36" transform="translate(95.410156 0)"/>
      </g>
     </g>
    </g>
    <g id="xtick_5">
     <g id="line2d_9">
      <path d="M 417.255132 250.44375 
L 417.255132 7.2 
" clip-path="url(#p8aaf4d9df5)" style="fill: none; stroke-dasharray: 2.96,1.28; stroke-dashoffset: 0; stroke: #b0b0b0; stroke-opacity: 0.8; stroke-width: 0.8"/>
     </g>
     <g id="line2d_10">
      <g>
       <use xlink:href="#m9b100aa5c2" x="417.255132" y="250.44375" style="stroke: #000000; stroke-width: 0.8"/>
      </g>
     </g>
     <g id="text_5">
      <!-- 0.8 -->
      <g transform="translate(409.30357 265.042188) scale(0.1 -0.1)">
       <defs>
        <path id="DejaVuSans-38" d="M 2034 2216 
Q 1584 2216 1326 1975 
Q 1069 1734 1069 1313 
Q 1069 891 1326 650 
Q 1584 409 2034 409 
Q 2484 409 2743 651 
Q 3003 894 3003 1313 
Q 3003 1734 2745 1975 
Q 2488 2216 2034 2216 
z
M 1403 2484 
Q 997 2584 770 2862 
Q 544 3141 544 3541 
Q 544 4100 942 4425 
Q 1341 4750 2034 4750 
Q 2731 4750 3128 4425 
Q 3525 4100 3525 3541 
Q 3525 3141 3298 2862 
Q 3072 2584 2669 2484 
Q 3125 2378 3379 2068 
Q 3634 1759 3634 1313 
Q 3634 634 3220 271 
Q 2806 -91 2034 -91 
Q 1263 -91 848 271 
Q 434 634 434 1313 
Q 434 1759 690 2068 
Q 947 2378 1403 2484 
z
M 1172 3481 
Q 1172 3119 1398 2916 
Q 1625 2713 2034 2713 
Q 2441 2713 2670 2916 
Q 2900 3119 2900 3481 
Q 2900 3844 2670 4047 
Q 2441 4250 2034 4250 
Q 1625 4250 1398 4047 
Q 1172 3844 1172 3481 
z
" transform="scale(0.015625)"/>
       </defs>
       <use xlink:href="#DejaVuSans-30"/>
       <use xlink:href="#DejaVuSans-2e" transform="translate(63.623047 0)"/>
       <use xlink:href="#DejaVuSans-38" transform="translate(95.410156 0)"/>
      </g>
     </g>
    </g>
    <g id="xtick_6">
     <g id="line2d_11">
      <path d="M 502.657782 250.44375 
L 502.657782 7.2 
" clip-path="url(#p8aaf4d9df5)" style="fill: none; stroke-dasharray: 2.96,1.28; stroke-dashoffset: 0; stroke: #b0b0b0; stroke-opacity: 0.8; stroke-width: 0.8"/>
     </g>
     <g id="line2d_12">
      <g>
       <use xlink:href="#m9b100aa5c2" x="502.657782" y="250.44375" style="stroke: #000000; stroke-width: 0.8"/>
      </g>
     </g>
     <g id="text_6">
      <!-- 1 -->
      <g transform="translate(499.476532 265.042188) scale(0.1 -0.1)">
       <defs>
        <path id="DejaVuSans-31" d="M 794 531 
L 1825 531 
L 1825 4091 
L 703 3866 
L 703 4441 
L 1819 4666 
L 2450 4666 
L 2450 531 
L 3481 531 
L 3481 0 
L 794 0 
L 794 531 
z
" transform="scale(0.015625)"/>
       </defs>
       <use xlink:href="#DejaVuSans-31"/>
      </g>
     </g>
    </g>
    <g id="text_7">
     <!-- Time (s), $t$ -->
     <g transform="translate(284.830469 278.720312) scale(0.1 -0.1)">
      <defs>
       <path id="DejaVuSans-54" d="M -19 4666 
L 3928 4666 
L 3928 4134 
L 2272 4134 
L 2272 0 
L 1638 0 
L 1638 4134 
L -19 4134 
L -19 4666 
z
" transform="scale(0.015625)"/>
       <path id="DejaVuSans-69" d="M 603 3500 
L 1178 3500 
L 1178 0 
L 603 0 
L 603 3500 
z
M 603 4863 
L 1178 4863 
L 1178 4134 
L 603 4134 
L 603 4863 
z
" transform="scale(0.015625)"/>
       <path id="DejaVuSans-6d" d="M 3328 2828 
Q 3544 3216 3844 3400 
Q 4144 3584 4550 3584 
Q 5097 3584 5394 3201 
Q 5691 2819 5691 2113 
L 5691 0 
L 5113 0 
L 5113 2094 
Q 5113 2597 4934 2840 
Q 4756 3084 4391 3084 
Q 3944 3084 3684 2787 
Q 3425 2491 3425 1978 
L 3425 0 
L 2847 0 
L 2847 2094 
Q 2847 2600 2669 2842 
Q 2491 3084 2119 3084 
Q 1678 3084 1418 2786 
Q 1159 2488 1159 1978 
L 1159 0 
L 581 0 
L 581 3500 
L 1159 3500 
L 1159 2956 
Q 1356 3278 1631 3431 
Q 1906 3584 2284 3584 
Q 2666 3584 2933 3390 
Q 3200 3197 3328 2828 
z
" transform="scale(0.015625)"/>
       <path id="DejaVuSans-65" d="M 3597 1894 
L 3597 1613 
L 953 1613 
Q 991 1019 1311 708 
Q 1631 397 2203 397 
Q 2534 397 2845 478 
Q 3156 559 3463 722 
L 3463 178 
Q 3153 47 2828 -22 
Q 2503 -91 2169 -91 
Q 1331 -91 842 396 
Q 353 884 353 1716 
Q 353 2575 817 3079 
Q 1281 3584 2069 3584 
Q 2775 3584 3186 3129 
Q 3597 2675 3597 1894 
z
M 3022 2063 
Q 3016 2534 2758 2815 
Q 2500 3097 2075 3097 
Q 1594 3097 1305 2825 
Q 1016 2553 972 2059 
L 3022 2063 
z
" transform="scale(0.015625)"/>
       <path id="DejaVuSans-20" transform="scale(0.015625)"/>
       <path id="DejaVuSans-28" d="M 1984 4856 
Q 1566 4138 1362 3434 
Q 1159 2731 1159 2009 
Q 1159 1288 1364 580 
Q 1569 -128 1984 -844 
L 1484 -844 
Q 1016 -109 783 600 
Q 550 1309 550 2009 
Q 550 2706 781 3412 
Q 1013 4119 1484 4856 
L 1984 4856 
z
" transform="scale(0.015625)"/>
       <path id="DejaVuSans-73" d="M 2834 3397 
L 2834 2853 
Q 2591 2978 2328 3040 
Q 2066 3103 1784 3103 
Q 1356 3103 1142 2972 
Q 928 2841 928 2578 
Q 928 2378 1081 2264 
Q 1234 2150 1697 2047 
L 1894 2003 
Q 2506 1872 2764 1633 
Q 3022 1394 3022 966 
Q 3022 478 2636 193 
Q 2250 -91 1575 -91 
Q 1294 -91 989 -36 
Q 684 19 347 128 
L 347 722 
Q 666 556 975 473 
Q 1284 391 1588 391 
Q 1994 391 2212 530 
Q 2431 669 2431 922 
Q 2431 1156 2273 1281 
Q 2116 1406 1581 1522 
L 1381 1569 
Q 847 1681 609 1914 
Q 372 2147 372 2553 
Q 372 3047 722 3315 
Q 1072 3584 1716 3584 
Q 2034 3584 2315 3537 
Q 2597 3491 2834 3397 
z
" transform="scale(0.015625)"/>
       <path id="DejaVuSans-29" d="M 513 4856 
L 1013 4856 
Q 1481 4119 1714 3412 
Q 1947 2706 1947 2009 
Q 1947 1309 1714 600 
Q 1481 -109 1013 -844 
L 513 -844 
Q 928 -128 1133 580 
Q 1338 1288 1338 2009 
Q 1338 2731 1133 3434 
Q 928 4138 513 4856 
z
" transform="scale(0.015625)"/>
       <path id="DejaVuSans-2c" d="M 750 794 
L 1409 794 
L 1409 256 
L 897 -744 
L 494 -744 
L 750 256 
L 750 794 
z
" transform="scale(0.015625)"/>
       <path id="DejaVuSans-Oblique-74" d="M 2706 3500 
L 2619 3053 
L 1472 3053 
L 1100 1153 
Q 1081 1047 1072 975 
Q 1063 903 1063 863 
Q 1063 663 1183 572 
Q 1303 481 1569 481 
L 2150 481 
L 2053 0 
L 1503 0 
Q 991 0 739 200 
Q 488 400 488 806 
Q 488 878 497 964 
Q 506 1050 525 1153 
L 897 3053 
L 409 3053 
L 500 3500 
L 978 3500 
L 1172 4494 
L 1747 4494 
L 1556 3500 
L 2706 3500 
z
" transform="scale(0.015625)"/>
      </defs>
      <use xlink:href="#DejaVuSans-54" transform="translate(0 0.015625)"/>
      <use xlink:href="#DejaVuSans-69" transform="translate(61.083984 0.015625)"/>
      <use xlink:href="#DejaVuSans-6d" transform="translate(88.867188 0.015625)"/>
      <use xlink:href="#DejaVuSans-65" transform="translate(186.279297 0.015625)"/>
      <use xlink:href="#DejaVuSans-20" transform="translate(247.802734 0.015625)"/>
      <use xlink:href="#DejaVuSans-28" transform="translate(279.589844 0.015625)"/>
      <use xlink:href="#DejaVuSans-73" transform="translate(318.603516 0.015625)"/>
      <use xlink:href="#DejaVuSans-29" transform="translate(370.703125 0.015625)"/>
      <use xlink:href="#DejaVuSans-2c" transform="translate(409.716797 0.015625)"/>
      <use xlink:href="#DejaVuSans-20" transform="translate(441.503906 0.015625)"/>
      <use xlink:href="#DejaVuSans-Oblique-74" transform="translate(473.291016 0.015625)"/>
     </g>
    </g>
   </g>
   <g id="matplotlib.axis_2">
    <g id="ytick_1">
     <g id="line2d_13">
      <path d="M 52.160938 220.689078 
L 568.8 220.689078 
" clip-path="url(#p8aaf4d9df5)" style="fill: none; stroke-dasharray: 2.96,1.28; stroke-dashoffset: 0; stroke: #b0b0b0; stroke-opacity: 0.8; stroke-width: 0.8"/>
     </g>
     <g id="line2d_14">
      <defs>
       <path id="mac1c873a1e" d="M 0 0 
L -3.5 0 
" style="stroke: #000000; stroke-width: 0.8"/>
      </defs>
      <g>
       <use xlink:href="#mac1c873a1e" x="52.160938" y="220.689078" style="stroke: #000000; stroke-width: 0.8"/>
      </g>
     </g>
     <g id="text_8">
      <!-- −0.3 -->
      <g transform="translate(20.878125 224.488297) scale(0.1 -0.1)">
       <defs>
        <path id="DejaVuSans-2212" d="M 678 2272 
L 4684 2272 
L 4684 1741 
L 678 1741 
L 678 2272 
z
" transform="scale(0.015625)"/>
        <path id="DejaVuSans-33" d="M 2597 2516 
Q 3050 2419 3304 2112 
Q 3559 1806 3559 1356 
Q 3559 666 3084 287 
Q 2609 -91 1734 -91 
Q 1441 -91 1130 -33 
Q 819 25 488 141 
L 488 750 
Q 750 597 1062 519 
Q 1375 441 1716 441 
Q 2309 441 2620 675 
Q 2931 909 2931 1356 
Q 2931 1769 2642 2001 
Q 2353 2234 1838 2234 
L 1294 2234 
L 1294 2753 
L 1863 2753 
Q 2328 2753 2575 2939 
Q 2822 3125 2822 3475 
Q 2822 3834 2567 4026 
Q 2313 4219 1838 4219 
Q 1578 4219 1281 4162 
Q 984 4106 628 3988 
L 628 4550 
Q 988 4650 1302 4700 
Q 1616 4750 1894 4750 
Q 2613 4750 3031 4423 
Q 3450 4097 3450 3541 
Q 3450 3153 3228 2886 
Q 3006 2619 2597 2516 
z
" transform="scale(0.015625)"/>
       </defs>
       <use xlink:href="#DejaVuSans-2212"/>
       <use xlink:href="#DejaVuSans-30" transform="translate(83.789062 0)"/>
       <use xlink:href="#DejaVuSans-2e" transform="translate(147.412109 0)"/>
       <use xlink:href="#DejaVuSans-33" transform="translate(179.199219 0)"/>
      </g>
     </g>
    </g>
    <g id="ytick_2">
     <g id="line2d_15">
      <path d="M 52.160938 186.114737 
L 568.8 186.114737 
" clip-path="url(#p8aaf4d9df5)" style="fill: none; stroke-dasharray: 2.96,1.28; stroke-dashoffset: 0; stroke: #b0b0b0; stroke-opacity: 0.8; stroke-width: 0.8"/>
     </g>
     <g id="line2d_16">
      <g>
       <use xlink:href="#mac1c873a1e" x="52.160938" y="186.114737" style="stroke: #000000; stroke-width: 0.8"/>
      </g>
     </g>
     <g id="text_9">
      <!-- −0.2 -->
      <g transform="translate(20.878125 189.913956) scale(0.1 -0.1)">
       <use xlink:href="#DejaVuSans-2212"/>
       <use xlink:href="#DejaVuSans-30" transform="translate(83.789062 0)"/>
       <use xlink:href="#DejaVuSans-2e" transform="translate(147.412109 0)"/>
       <use xlink:href="#DejaVuSans-32" transform="translate(179.199219 0)"/>
      </g>
     </g>
    </g>
    <g id="ytick_3">
     <g id="line2d_17">
      <path d="M 52.160938 151.540397 
L 568.8 151.540397 
" clip-path="url(#p8aaf4d9df5)" style="fill: none; stroke-dasharray: 2.96,1.28; stroke-dashoffset: 0; stroke: #b0b0b0; stroke-opacity: 0.8; stroke-width: 0.8"/>
     </g>
     <g id="line2d_18">
      <g>
       <use xlink:href="#mac1c873a1e" x="52.160938" y="151.540397" style="stroke: #000000; stroke-width: 0.8"/>
      </g>
     </g>
     <g id="text_10">
      <!-- −0.1 -->
      <g transform="translate(20.878125 155.339615) scale(0.1 -0.1)">
       <use xlink:href="#DejaVuSans-2212"/>
       <use xlink:href="#DejaVuSans-30" transform="translate(83.789062 0)"/>
       <use xlink:href="#DejaVuSans-2e" transform="translate(147.412109 0)"/>
       <use xlink:href="#DejaVuSans-31" transform="translate(179.199219 0)"/>
      </g>
     </g>
    </g>
    <g id="ytick_4">
     <g id="line2d_19">
      <path d="M 52.160938 116.966056 
L 568.8 116.966056 
" clip-path="url(#p8aaf4d9df5)" style="fill: none; stroke-dasharray: 2.96,1.28; stroke-dashoffset: 0; stroke: #b0b0b0; stroke-opacity: 0.8; stroke-width: 0.8"/>
     </g>
     <g id="line2d_20">
      <g>
       <use xlink:href="#mac1c873a1e" x="52.160938" y="116.966056" style="stroke: #000000; stroke-width: 0.8"/>
      </g>
     </g>
     <g id="text_11">
      <!-- 0.0 -->
      <g transform="translate(29.257812 120.765275) scale(0.1 -0.1)">
       <use xlink:href="#DejaVuSans-30"/>
       <use xlink:href="#DejaVuSans-2e" transform="translate(63.623047 0)"/>
       <use xlink:href="#DejaVuSans-30" transform="translate(95.410156 0)"/>
      </g>
     </g>
    </g>
    <g id="ytick_5">
     <g id="line2d_21">
      <path d="M 52.160938 82.391715 
L 568.8 82.391715 
" clip-path="url(#p8aaf4d9df5)" style="fill: none; stroke-dasharray: 2.96,1.28; stroke-dashoffset: 0; stroke: #b0b0b0; stroke-opacity: 0.8; stroke-width: 0.8"/>
     </g>
     <g id="line2d_22">
      <g>
       <use xlink:href="#mac1c873a1e" x="52.160938" y="82.391715" style="stroke: #000000; stroke-width: 0.8"/>
      </g>
     </g>
     <g id="text_12">
      <!-- 0.1 -->
      <g transform="translate(29.257812 86.190934) scale(0.1 -0.1)">
       <use xlink:href="#DejaVuSans-30"/>
       <use xlink:href="#DejaVuSans-2e" transform="translate(63.623047 0)"/>
       <use xlink:href="#DejaVuSans-31" transform="translate(95.410156 0)"/>
      </g>
     </g>
    </g>
    <g id="ytick_6">
     <g id="line2d_23">
      <path d="M 52.160938 47.817374 
L 568.8 47.817374 
" clip-path="url(#p8aaf4d9df5)" style="fill: none; stroke-dasharray: 2.96,1.28; stroke-dashoffset: 0; stroke: #b0b0b0; stroke-opacity: 0.8; stroke-width: 0.8"/>
     </g>
     <g id="line2d_24">
      <g>
       <use xlink:href="#mac1c873a1e" x="52.160938" y="47.817374" style="stroke: #000000; stroke-width: 0.8"/>
      </g>
     </g>
     <g id="text_13">
      <!-- 0.2 -->
      <g transform="translate(29.257812 51.616593) scale(0.1 -0.1)">
       <use xlink:href="#DejaVuSans-30"/>
       <use xlink:href="#DejaVuSans-2e" transform="translate(63.623047 0)"/>
       <use xlink:href="#DejaVuSans-32" transform="translate(95.410156 0)"/>
      </g>
     </g>
    </g>
    <g id="ytick_7">
     <g id="line2d_25">
      <path d="M 52.160938 13.243034 
L 568.8 13.243034 
" clip-path="url(#p8aaf4d9df5)" style="fill: none; stroke-dasharray: 2.96,1.28; stroke-dashoffset: 0; stroke: #b0b0b0; stroke-opacity: 0.8; stroke-width: 0.8"/>
     </g>
     <g id="line2d_26">
      <g>
       <use xlink:href="#mac1c873a1e" x="52.160938" y="13.243034" style="stroke: #000000; stroke-width: 0.8"/>
      </g>
     </g>
     <g id="text_14">
      <!-- 0.3 -->
      <g transform="translate(29.257812 17.042252) scale(0.1 -0.1)">
       <use xlink:href="#DejaVuSans-30"/>
       <use xlink:href="#DejaVuSans-2e" transform="translate(63.623047 0)"/>
       <use xlink:href="#DejaVuSans-33" transform="translate(95.410156 0)"/>
      </g>
     </g>
    </g>
    <g id="text_15">
     <!-- Amplitude -->
     <g transform="translate(14.798437 154.444531) rotate(-90) scale(0.1 -0.1)">
      <defs>
       <path id="DejaVuSans-41" d="M 2188 4044 
L 1331 1722 
L 3047 1722 
L 2188 4044 
z
M 1831 4666 
L 2547 4666 
L 4325 0 
L 3669 0 
L 3244 1197 
L 1141 1197 
L 716 0 
L 50 0 
L 1831 4666 
z
" transform="scale(0.015625)"/>
       <path id="DejaVuSans-70" d="M 1159 525 
L 1159 -1331 
L 581 -1331 
L 581 3500 
L 1159 3500 
L 1159 2969 
Q 1341 3281 1617 3432 
Q 1894 3584 2278 3584 
Q 2916 3584 3314 3078 
Q 3713 2572 3713 1747 
Q 3713 922 3314 415 
Q 2916 -91 2278 -91 
Q 1894 -91 1617 61 
Q 1341 213 1159 525 
z
M 3116 1747 
Q 3116 2381 2855 2742 
Q 2594 3103 2138 3103 
Q 1681 3103 1420 2742 
Q 1159 2381 1159 1747 
Q 1159 1113 1420 752 
Q 1681 391 2138 391 
Q 2594 391 2855 752 
Q 3116 1113 3116 1747 
z
" transform="scale(0.015625)"/>
       <path id="DejaVuSans-6c" d="M 603 4863 
L 1178 4863 
L 1178 0 
L 603 0 
L 603 4863 
z
" transform="scale(0.015625)"/>
       <path id="DejaVuSans-74" d="M 1172 4494 
L 1172 3500 
L 2356 3500 
L 2356 3053 
L 1172 3053 
L 1172 1153 
Q 1172 725 1289 603 
Q 1406 481 1766 481 
L 2356 481 
L 2356 0 
L 1766 0 
Q 1100 0 847 248 
Q 594 497 594 1153 
L 594 3053 
L 172 3053 
L 172 3500 
L 594 3500 
L 594 4494 
L 1172 4494 
z
" transform="scale(0.015625)"/>
       <path id="DejaVuSans-75" d="M 544 1381 
L 544 3500 
L 1119 3500 
L 1119 1403 
Q 1119 906 1312 657 
Q 1506 409 1894 409 
Q 2359 409 2629 706 
Q 2900 1003 2900 1516 
L 2900 3500 
L 3475 3500 
L 3475 0 
L 2900 0 
L 2900 538 
Q 2691 219 2414 64 
Q 2138 -91 1772 -91 
Q 1169 -91 856 284 
Q 544 659 544 1381 
z
M 1991 3584 
L 1991 3584 
z
" transform="scale(0.015625)"/>
       <path id="DejaVuSans-64" d="M 2906 2969 
L 2906 4863 
L 3481 4863 
L 3481 0 
L 2906 0 
L 2906 525 
Q 2725 213 2448 61 
Q 2172 -91 1784 -91 
Q 1150 -91 751 415 
Q 353 922 353 1747 
Q 353 2572 751 3078 
Q 1150 3584 1784 3584 
Q 2172 3584 2448 3432 
Q 2725 3281 2906 2969 
z
M 947 1747 
Q 947 1113 1208 752 
Q 1469 391 1925 391 
Q 2381 391 2643 752 
Q 2906 1113 2906 1747 
Q 2906 2381 2643 2742 
Q 2381 3103 1925 3103 
Q 1469 3103 1208 2742 
Q 947 2381 947 1747 
z
" transform="scale(0.015625)"/>
      </defs>
      <use xlink:href="#DejaVuSans-41"/>
      <use xlink:href="#DejaVuSans-6d" transform="translate(68.408203 0)"/>
      <use xlink:href="#DejaVuSans-70" transform="translate(165.820312 0)"/>
      <use xlink:href="#DejaVuSans-6c" transform="translate(229.296875 0)"/>
      <use xlink:href="#DejaVuSans-69" transform="translate(257.080078 0)"/>
      <use xlink:href="#DejaVuSans-74" transform="translate(284.863281 0)"/>
      <use xlink:href="#DejaVuSans-75" transform="translate(324.072266 0)"/>
      <use xlink:href="#DejaVuSans-64" transform="translate(387.451172 0)"/>
      <use xlink:href="#DejaVuSans-65" transform="translate(450.927734 0)"/>
     </g>
    </g>
   </g>
   <g id="line2d_27">
    <path d="M 75.644531 117.553133 
L 76.327752 117.420735 
L 77.096376 117.022519 
L 79.017936 115.894655 
L 79.573053 115.895991 
L 79.871962 115.999216 
L 79.914664 115.432889 
L 80.000066 115.482942 
L 80.469781 115.922469 
L 81.0676 116.831175 
L 82.861055 119.844573 
L 83.245367 120.039487 
L 83.586978 119.963194 
L 83.928588 119.632436 
L 84.142095 119.295902 
L 84.270199 118.46482 
L 84.910719 116.917685 
L 86.533369 112.761211 
L 86.917681 112.342386 
L 87.21659 112.292956 
L 87.472798 112.464452 
L 87.814409 113.013784 
L 88.241422 114.20647 
L 88.412227 114.828917 
L 88.583033 116.104264 
L 89.650566 121.079548 
L 90.41919 124.104677 
L 90.846203 125.021747 
L 91.102411 125.198446 
L 91.315918 125.099926 
L 91.572126 124.663288 
L 91.913736 123.511496 
L 92.340749 121.137003 
L 92.68236 118.513753 
L 92.895867 115.99799 
L 93.707192 107.215695 
L 95.457946 87.679234 
L 96.013063 83.874438 
L 96.397375 82.454774 
L 96.653583 82.134909 
L 96.824389 82.216115 
L 96.952492 82.435619 
L 96.995194 81.952259 
L 97.080596 82.209897 
L 97.379506 83.625948 
L 97.763818 86.617374 
L 98.276234 92.569251 
L 98.959455 103.558192 
L 99.941585 123.510579 
L 101.564236 156.388886 
L 102.332859 167.90141 
L 102.845275 172.825479 
L 103.229587 174.795069 
L 103.485795 175.22367 
L 103.613899 175.164353 
L 103.784705 174.798018 
L 104.040912 173.630842 
L 104.382523 170.93211 
L 104.852238 165.17633 
L 105.450056 154.800067 
L 106.21868 137.277996 
L 108.14024 94.308014 
L 108.738058 85.802805 
L 109.207773 81.945602 
L 109.506682 80.917129 
L 109.677487 80.841094 
L 109.76289 80.94279 
L 109.805591 80.441349 
L 109.890994 80.68596 
L 110.147202 81.987308 
L 110.488813 84.99927 
L 110.958527 91.306599 
L 111.641748 104.02476 
L 114.118425 154.061367 
L 114.716244 160.727541 
L 115.143257 163.471108 
L 115.484868 164.485272 
L 115.698374 164.622251 
L 115.86918 164.478281 
L 116.125387 163.878852 
L 116.509699 162.24558 
L 117.107518 158.479143 
L 118.345856 149.085862 
L 118.516662 147.507635 
L 119.029078 145.312682 
L 119.413389 144.502075 
L 119.669597 144.363151 
L 119.883104 144.48026 
L 120.182013 144.968456 
L 120.609027 146.214416 
L 121.292248 149.054602 
L 122.445184 153.822624 
L 122.573288 154.210556 
L 122.786794 155.921069 
L 123.128405 156.421153 
L 123.384613 156.500679 
L 123.640821 156.33538 
L 123.982431 155.768625 
L 124.452146 154.469961 
L 126.459108 148.229986 
L 126.800719 147.950207 
L 126.84342 147.940518 
L 127.014225 149.124767 
L 127.355836 149.330727 
L 127.782849 149.898874 
L 128.423369 151.208222 
L 129.661708 153.790508 
L 130.131422 154.256517 
L 130.473033 154.304144 
L 130.771942 154.128851 
L 131.113553 153.685159 
L 131.284358 152.206583 
L 132.30919 150.037598 
L 133.077814 148.654667 
L 133.547528 148.215969 
L 133.889139 148.169313 
L 134.188048 148.339687 
L 134.57236 148.85798 
L 135.042074 149.928014 
L 135.383685 150.965973 
L 135.597192 152.861775 
L 136.792829 156.559321 
L 137.305245 157.495717 
L 137.646855 157.745768 
L 137.903063 157.697516 
L 138.159271 157.4244 
L 138.500882 156.679894 
L 138.927895 155.089625 
L 139.440311 152.149036 
L 139.653818 150.57942 
L 139.696519 150.827956 
L 139.73922 151.067402 
L 139.781922 150.709817 
L 140.37974 144.667134 
L 141.105663 134.869972 
L 142.087793 118.194635 
L 144.479067 76.081396 
L 145.247691 66.310703 
L 145.760107 62.21581 
L 146.101718 60.816345 
L 146.315224 60.536849 
L 146.443328 60.598852 
L 146.614134 60.955984 
L 146.870342 62.089629 
L 147.211952 64.725445 
L 147.681667 70.401753 
L 148.194083 79.0801 
L 148.578395 88.137286 
L 150.03024 122.164923 
L 150.969669 141.167127 
L 151.567487 149.24538 
L 151.994501 152.472394 
L 152.29341 153.349718 
L 152.421514 153.368958 
L 152.464215 153.327717 
L 152.549618 154.347244 
L 152.63502 154.091946 
L 152.891228 152.725367 
L 153.232839 149.554741 
L 153.702554 142.921361 
L 154.385775 129.609895 
L 156.777049 78.707926 
L 156.81975 78.699826 
L 157.374868 72.604579 
L 157.801881 70.048444 
L 158.10079 69.331164 
L 158.271595 69.291127 
L 158.442401 69.499957 
L 158.698609 70.236601 
L 159.082921 72.140279 
L 159.72344 76.703201 
L 160.961779 85.69628 
L 161.047181 86.73843 
L 161.217987 88.121165 
L 161.602299 89.280695 
L 161.858507 89.552114 
L 162.072013 89.476792 
L 162.328221 89.046192 
L 162.669832 87.962696 
L 163.224949 85.293356 
L 164.634093 78.140736 
L 165.018405 77.213292 
L 165.274613 76.995544 
L 165.360015 75.824624 
L 165.445418 75.871668 
L 165.658925 76.182985 
L 165.957834 77.065374 
L 166.384847 79.117384 
L 167.11077 83.960454 
L 168.050199 89.910885 
L 168.477212 91.39733 
L 168.73342 91.717695 
L 168.904225 91.664453 
L 169.117732 91.284366 
L 169.416641 90.161376 
L 169.544745 89.47354 
L 169.800953 86.595696 
L 170.398772 81.342992 
L 171.893318 67.420205 
L 172.27763 65.731931 
L 172.491137 65.425145 
L 172.619241 65.484827 
L 172.790046 65.866929 
L 173.046254 67.120476 
L 173.387864 70.111381 
L 173.814878 75.973814 
L 174.156488 83.391623 
L 174.925112 101.159697 
L 176.761269 145.439119 
L 177.273685 152.673492 
L 177.657997 155.532021 
L 177.914205 156.110808 
L 178.042309 155.994371 
L 178.08501 155.895511 
L 178.127712 156.353826 
L 178.298517 154.945521 
L 178.597426 152.393819 
L 179.024439 146.466404 
L 179.622258 134.48322 
L 182.013532 81.687191 
L 182.568649 76.192285 
L 182.782156 75.909182 
L 182.91026 76.123047 
L 183.123767 77.114594 
L 183.422676 79.800881 
L 183.849689 86.07319 
L 184.447508 98.827115 
L 185.515041 127.79478 
L 186.625275 155.755011 
L 186.753379 157.164375 
L 187.393899 167.469774 
L 187.863614 171.974734 
L 188.205224 173.569329 
L 188.418731 173.8648 
L 188.546835 173.793018 
L 188.760341 173.276442 
L 189.059251 171.773046 
L 189.486264 168.231479 
L 190.084083 161.097783 
L 190.895408 148.881417 
L 191.194317 142.87179 
L 193.030474 114.939253 
L 195.080138 87.791024 
L 196.403879 72.498678 
L 196.958996 68.894633 
L 197.343308 67.531212 
L 197.599516 67.205149 
L 197.770321 67.263302 
L 197.983828 67.65693 
L 198.282737 68.821132 
L 198.667049 71.37852 
L 199.179465 76.593542 
L 199.478374 81.106988 
L 199.734582 85.490843 
L 200.716713 102.490997 
L 202.851779 140.303424 
L 203.663104 150.537912 
L 203.705805 150.981432 
L 203.748507 150.827956 
L 203.791208 150.665391 
L 204.474429 156.320081 
L 205.029546 159.31865 
L 205.499261 160.747418 
L 205.840872 161.166386 
L 206.097079 161.150905 
L 206.353287 160.865141 
L 206.694898 160.088495 
L 207.164613 158.35715 
L 207.805132 155.011273 
L 207.975938 153.981674 
L 208.018639 154.305106 
L 208.06134 154.625542 
L 208.104042 154.355229 
L 210.196407 141.540412 
L 210.580719 140.604169 
L 210.836927 140.446337 
L 211.050433 140.625159 
L 211.306641 141.226793 
L 211.648252 142.689986 
L 212.117966 145.86988 
L 212.758486 151.982617 
L 214.423838 168.833435 
L 214.80815 170.696181 
L 215.064358 171.118433 
L 215.192462 171.051786 
L 215.363267 170.655258 
L 215.619475 169.368615 
L 215.961086 166.308085 
L 216.388099 160.302725 
L 216.943216 149.10748 
L 217.754541 127.630857 
L 219.291789 86.346758 
L 219.846906 77.242169 
L 220.231218 74.064938 
L 220.444725 73.527291 
L 220.572829 73.638235 
L 220.743634 74.293751 
L 220.786335 74.547829 
L 220.829037 74.250639 
L 220.871738 73.989932 
L 220.914439 74.35343 
L 221.25605 78.560693 
L 221.725764 87.784577 
L 222.408986 106.454456 
L 223.988935 151.247277 
L 224.458649 158.786686 
L 224.80026 161.42531 
L 224.971065 161.772508 
L 225.056468 161.698237 
L 225.099169 161.011953 
L 225.184572 161.281513 
L 225.398078 159.773281 
L 225.739689 155.32107 
L 226.209404 145.567073 
L 226.935326 124.715024 
L 228.301769 84.785659 
L 228.814184 75.828552 
L 229.155795 72.85988 
L 229.3266 72.355695 
L 229.540107 73.822294 
L 229.753614 75.104463 
L 230.052523 78.497736 
L 230.479536 86.269148 
L 231.120056 102.824385 
L 232.87081 150.863562 
L 233.340525 157.653622 
L 233.596733 159.527194 
L 233.639434 159.119772 
L 233.767538 160.022571 
L 233.895642 159.992234 
L 234.066447 159.416728 
L 234.322655 157.433545 
L 234.664266 152.824475 
L 235.176682 142.316218 
L 235.988007 120.087797 
L 237.183644 87.92944 
L 237.738761 78.237656 
L 238.123073 74.568182 
L 238.379281 73.642763 
L 238.507385 73.645178 
L 238.678191 74.129965 
L 238.934399 75.871486 
L 239.276009 79.998613 
L 239.745724 88.674816 
L 240.428945 105.986259 
L 242.649414 166.074311 
L 243.204531 174.617155 
L 243.631544 178.329574 
L 243.930454 179.404935 
L 244.101259 179.464077 
L 244.272064 179.130091 
L 244.528272 177.919512 
L 244.869883 175.065779 
L 245.339597 169.10144 
L 246.022818 157.145649 
L 247.560066 124.607852 
L 248.713002 101.056364 
L 249.438924 90.361713 
L 249.95134 85.561342 
L 250.335652 83.655838 
L 250.59186 83.23268 
L 250.677263 83.244436 
L 250.762666 82.159487 
L 250.848068 82.331246 
L 251.104276 83.343912 
L 251.445887 85.829615 
L 251.915601 91.234806 
L 252.51342 100.973643 
L 253.452849 120.556882 
L 255.246305 158.244356 
L 255.844123 165.741162 
L 256.313838 169.105133 
L 256.612747 170.060713 
L 256.826254 170.193733 
L 256.997059 169.983269 
L 257.253267 169.166872 
L 257.594878 167.21949 
L 258.107293 162.734838 
L 258.833216 154.062194 
L 259.388333 145.204072 
L 261.950413 110.433531 
L 263.48766 88.280336 
L 263.701167 85.043881 
L 264.939506 67.900666 
L 265.537324 62.433382 
L 265.921636 60.615428 
L 266.135143 60.296814 
L 266.263247 60.362529 
L 266.434052 60.762732 
L 266.69026 62.05471 
L 267.03187 65.097805 
L 267.501585 71.715808 
L 268.099404 83.830933 
L 268.996131 107.334124 
L 270.362574 142.886091 
L 270.960392 153.096732 
L 271.387406 157.078763 
L 271.643614 157.983601 
L 271.771718 158.005575 
L 271.899822 157.739827 
L 272.027925 157.188251 
L 272.284133 154.092447 
L 272.668445 149.33812 
L 273.223563 139.090935 
L 274.12029 117.374596 
L 275.273226 90.504237 
L 275.828343 82.014587 
L 276.212655 78.737051 
L 276.340759 77.578286 
L 276.468863 77.868866 
L 276.596967 77.842672 
L 276.725071 78.087235 
L 276.938578 79.091946 
L 277.237487 81.718317 
L 277.6645 87.754976 
L 278.262319 99.916821 
L 279.372553 128.36312 
L 280.397385 152.214978 
L 281.166009 164.71145 
L 281.593022 167.739691 
L 281.84923 168.447284 
L 282.020036 168.485285 
L 282.190841 168.200181 
L 282.447049 167.22216 
L 282.831361 164.716721 
L 283.471881 158.740058 
L 284.710219 147.025731 
L 284.881024 145.301502 
L 285.05183 143.770736 
L 285.436142 142.453455 
L 285.69235 142.207185 
L 285.863155 142.316323 
L 286.119363 142.863937 
L 286.460973 144.226418 
L 287.016091 147.56222 
L 288.425234 156.525341 
L 288.852248 157.833274 
L 289.108456 158.107488 
L 289.151157 158.701336 
L 289.193858 158.107488 
L 289.407365 157.906561 
L 289.663573 157.306277 
L 290.047885 155.734711 
L 290.603002 152.379424 
L 292.012146 143.462767 
L 292.396458 142.376457 
L 292.609964 142.207185 
L 292.780769 142.315563 
L 292.994276 142.766083 
L 293.293185 143.98656 
L 293.720199 146.873146 
L 294.318017 152.707378 
L 295.855265 168.480426 
L 296.239577 170.165456 
L 296.453083 170.373111 
L 296.581187 170.218251 
L 296.794694 169.465095 
L 297.093603 167.321809 
L 297.477915 162.650474 
L 297.734123 157.187735 
L 298.331942 144.105893 
L 299.356774 115.607495 
L 300.424307 87.97496 
L 300.979424 78.690433 
L 301.363736 75.298444 
L 301.619944 74.569332 
L 301.748048 74.677104 
L 301.918853 75.310589 
L 301.961554 74.968664 
L 302.175061 77.304557 
L 302.559373 82.50021 
L 303.071789 92.978891 
L 303.925815 116.124164 
L 305.078751 146.356539 
L 305.633868 155.460997 
L 306.01818 158.537124 
L 306.188986 158.972225 
L 306.231687 158.402331 
L 306.274388 158.972225 
L 306.402492 158.700677 
L 306.615999 157.522041 
L 306.914908 154.399255 
L 307.341921 147.229166 
L 307.93974 133.005717 
L 309.946702 81.800057 
L 310.416417 76.153717 
L 310.459118 75.837641 
L 310.501819 76.142819 
L 310.544521 76.481509 
L 310.587222 76.265944 
L 310.800729 75.684622 
L 310.928833 75.734924 
L 311.099638 76.265712 
L 311.355846 78.035983 
L 311.697457 82.120493 
L 312.167171 90.569571 
L 312.893094 108.291781 
L 314.729251 155.254055 
L 314.771952 155.485499 
L 315.02816 160.565526 
L 315.583277 167.593518 
L 315.967589 170.22835 
L 316.266498 171.061415 
L 316.437304 171.090365 
L 316.608109 170.81705 
L 316.864317 169.888102 
L 317.248629 167.49268 
L 317.846447 162.044402 
L 319.469098 146.35679 
L 320.152319 141.292632 
L 320.622033 139.140453 
L 320.963644 138.360152 
L 321.219852 138.229148 
L 321.433359 138.420104 
L 321.689567 139.005688 
L 322.031177 140.371636 
L 322.500892 143.255703 
L 323.141412 148.71726 
L 325.233777 167.872271 
L 325.618089 169.342148 
L 325.874296 169.625556 
L 326.045102 169.469617 
L 326.258608 168.861418 
L 326.557518 167.201378 
L 326.94183 163.636018 
L 327.454245 156.405647 
L 328.094765 143.861514 
L 329.205 116.700466 
L 330.272533 92.451357 
L 330.870351 83.373767 
L 331.297365 79.825465 
L 331.553573 79.008593 
L 331.681677 78.980733 
L 331.809781 79.207521 
L 331.895183 78.32629 
L 331.937885 78.516898 
L 332.194093 80.274692 
L 332.578404 84.792837 
L 333.09082 93.871657 
L 333.902146 113.005167 
L 335.268588 145.048683 
L 335.823705 153.223605 
L 336.378822 157.948908 
L 336.506926 158.02293 
L 336.63503 157.809065 
L 336.848537 156.817517 
L 337.147446 154.131231 
L 337.57446 147.858922 
L 338.172278 135.104996 
L 339.239811 106.137332 
L 340.392747 76.710758 
L 340.47815 75.601796 
L 341.075968 66.094621 
L 341.545683 61.780815 
L 341.887293 60.428688 
L 342.058099 60.296814 
L 342.186203 60.425332 
L 342.399709 61.051336 
L 342.698619 62.725727 
L 343.125632 66.502509 
L 343.766152 74.40067 
L 344.66288 88.218412 
L 344.919087 92.641946 
L 346.157426 109.335589 
L 348.719505 141.922589 
L 350.726468 170.228252 
L 351.196182 173.905867 
L 351.537793 175.11237 
L 351.708598 175.17947 
L 351.879403 174.862167 
L 352.135611 173.632636 
L 352.477222 170.539857 
L 352.904235 164.335963 
L 353.459352 152.667917 
L 354.270678 130.177419 
L 355.850627 85.723193 
L 356.405744 76.277223 
L 356.790056 72.971915 
L 357.003562 72.396817 
L 357.131666 72.495511 
L 357.302472 73.145388 
L 357.430576 74.017849 
L 357.729485 78.441838 
L 358.156498 85.732695 
L 358.797018 101.248946 
L 360.718578 151.357297 
L 361.188292 157.385762 
L 361.487202 159.024371 
L 361.615306 159.174067 
L 361.658007 159.14953 
L 361.700708 159.087768 
L 361.74341 159.575901 
L 361.786111 158.850405 
L 361.999618 157.60614 
L 362.298527 154.361744 
L 362.72554 146.949 
L 363.323359 132.259565 
L 365.244918 81.556532 
L 365.671931 76.036294 
L 365.970841 74.318947 
L 366.013542 74.81234 
L 366.056243 74.167554 
L 366.184347 74.22475 
L 366.355153 74.836388 
L 366.611361 76.878387 
L 366.952971 81.582814 
L 367.465387 92.283919 
L 368.276712 114.901861 
L 369.472349 147.279646 
L 370.027467 156.630661 
L 370.539883 161.422201 
L 370.667987 161.486148 
L 370.79609 161.208183 
L 371.009597 159.995214 
L 371.308506 156.781059 
L 371.73552 149.406729 
L 372.333338 134.756258 
L 374.63921 73.312182 
L 375.151626 66.610303 
L 375.535938 64.089796 
L 375.792146 63.559001 
L 375.920249 63.616075 
L 376.091055 64.003209 
L 376.389964 65.451685 
L 376.816977 68.896483 
L 377.628303 77.835768 
L 378.567732 87.403302 
L 378.781238 88.946488 
L 378.82394 88.63061 
L 378.866641 88.30262 
L 378.909342 88.55028 
L 379.336356 90.370364 
L 379.635265 90.915154 
L 379.848771 90.94397 
L 380.062278 90.690749 
L 380.361187 89.910632 
L 380.830902 87.887748 
L 382.837864 78.121737 
L 383.051371 77.758304 
L 383.136773 78.843253 
L 383.222176 78.780807 
L 383.478384 78.747421 
L 383.734592 78.936112 
L 384.076203 79.496863 
L 384.588618 80.842191 
L 386.083165 85.107931 
L 386.467477 85.542283 
L 386.723685 85.575774 
L 386.979893 85.392308 
L 387.321503 84.813848 
L 387.364205 85.302962 
L 387.406906 84.61013 
L 387.876621 83.119196 
L 388.645244 79.79781 
L 389.584674 75.942949 
L 390.011687 74.977224 
L 390.267895 74.792665 
L 390.481401 74.908708 
L 390.737609 75.407476 
L 391.036519 76.526682 
L 391.420831 78.870514 
L 391.634337 81.211976 
L 391.847844 83.854569 
L 392.488364 91.623179 
L 393.299689 104.408301 
L 394.836937 133.109897 
L 395.861768 150.866437 
L 395.947171 150.991478 
L 396.801197 162.09519 
L 397.399016 167.278901 
L 397.826029 169.373398 
L 398.124939 169.959543 
L 398.295744 169.953926 
L 398.466549 169.695205 
L 398.722757 168.827145 
L 399.064368 166.772016 
L 399.534082 162.30799 
L 400.131901 154.096078 
L 400.473511 147.176732 
L 401.626447 124.764425 
L 403.120994 96.627149 
L 403.889617 86.165392 
L 404.402033 81.395588 
L 404.444735 81.668689 
L 404.61554 79.943677 
L 405.085255 77.826213 
L 405.426865 77.139622 
L 405.683073 77.032151 
L 405.939281 77.219955 
L 406.280892 77.835872 
L 406.836009 79.400129 
L 407.946243 82.600654 
L 408.415958 83.301244 
L 408.672166 83.432384 
L 408.842971 82.250085 
L 409.184582 82.071478 
L 409.611595 81.582256 
L 410.337518 80.336178 
L 411.106141 79.137397 
L 411.490453 78.896002 
L 411.746661 78.957978 
L 412.002869 79.242246 
L 412.34448 80.026949 
L 412.728792 81.546357 
L 412.942298 82.711752 
L 412.985 83.560869 
L 413.070402 83.52269 
L 413.582818 87.659408 
L 414.223338 94.871024 
L 414.991962 106.30747 
L 416.059495 125.97664 
L 418.237263 166.829059 
L 418.79238 172.747112 
L 419.219393 175.274962 
L 419.475601 175.849233 
L 419.646406 175.818875 
L 419.817212 175.450092 
L 420.07342 174.254008 
L 420.41503 171.457458 
L 420.884745 165.433318 
L 421.482563 154.473424 
L 421.781473 147.861782 
L 423.019811 116.454708 
L 424.044643 93.027781 
L 424.642461 83.864138 
L 425.069475 80.184678 
L 425.368384 79.182697 
L 425.496488 79.16065 
L 425.667293 79.511443 
L 425.752696 79.848461 
L 425.795397 80.644037 
L 425.8808 80.548382 
L 426.22241 83.535174 
L 426.692125 90.070006 
L 427.332645 102.491688 
L 429.510413 147.672442 
L 429.980127 152.577477 
L 430.022828 152.87981 
L 430.06553 152.570049 
L 430.108231 152.235942 
L 430.150932 152.46525 
L 430.449842 153.395784 
L 430.577946 153.427604 
L 430.748751 153.12438 
L 431.004959 151.931798 
L 431.34657 148.996333 
L 431.816284 142.613813 
L 432.414103 131.141997 
L 433.353532 108.177403 
L 435.061585 66.365596 
L 435.659403 57.66906 
L 436.086417 54.187503 
L 436.385326 53.216594 
L 436.51343 53.178648 
L 436.641534 53.368289 
L 436.85504 54.187503 
L 437.15395 56.372462 
L 437.580963 61.494583 
L 438.13608 71.287404 
L 438.904704 89.274563 
L 441.125173 143.983623 
L 441.68029 151.831573 
L 442.064602 154.810963 
L 442.32081 155.586811 
L 442.448914 155.603154 
L 442.619719 155.23896 
L 442.833226 154.169622 
L 443.004031 152.841075 
L 443.388343 148.385321 
L 443.94346 138.8338 
L 444.797487 119.511694 
L 446.078527 91.071795 
L 446.633644 83.032797 
L 447.060657 79.682838 
L 447.103358 79.49721 
L 447.274164 77.868866 
L 447.402268 77.842672 
L 447.530372 78.087235 
L 447.743878 79.091946 
L 448.042788 81.718317 
L 448.469801 87.754976 
L 449.067619 99.916821 
L 450.177854 128.36312 
L 451.202686 152.214978 
L 451.843206 162.277597 
L 452.31292 166.587097 
L 452.654531 168.069858 
L 452.868037 168.330464 
L 453.038843 168.196837 
L 453.252349 167.63742 
L 453.59396 165.951898 
L 454.106376 162.049881 
L 456.113338 145.14653 
L 456.583053 143.364411 
L 456.924663 142.826283 
L 457.13817 142.799837 
L 457.351677 142.994008 
L 457.650586 143.59787 
L 458.077599 145.009825 
L 458.803522 148.313734 
L 459.913756 153.447796 
L 459.999159 152.60021 
L 460.04186 152.760137 
L 460.810484 155.210222 
L 461.365601 156.348743 
L 461.792614 156.806585 
L 462.134225 156.898832 
L 462.475836 156.745211 
L 462.860147 156.282458 
L 463.329862 155.318384 
L 463.927681 153.526994 
L 464.183889 152.60021 
L 464.22659 151.851225 
L 464.311992 152.113675 
L 466.190851 145.283345 
L 466.617864 144.589982 
L 466.916773 144.470426 
L 467.172981 144.638026 
L 467.471891 145.167769 
L 467.856202 146.387036 
L 468.368618 148.903404 
L 469.137242 154.075151 
L 470.375581 162.46449 
L 470.845295 164.233116 
L 471.101503 164.606658 
L 471.272308 164.583967 
L 471.485815 164.223304 
L 471.742023 163.271984 
L 472.083634 161.077837 
L 472.510647 156.814389 
L 473.279271 146.186866 
L 474.090596 129.024053 
L 475.84135 91.010751 
L 476.439169 83.014049 
L 476.823481 80.196275 
L 477.036987 78.908182 
L 477.079689 79.433475 
L 477.207793 79.401445 
L 477.335897 79.59996 
L 477.549403 80.441507 
L 477.848313 82.672014 
L 478.275326 87.866725 
L 478.830443 97.669733 
L 479.68447 117.269471 
L 481.477925 158.940119 
L 482.075744 167.069334 
L 482.502757 170.375139 
L 482.801666 171.438806 
L 483.015173 171.59184 
L 483.185978 171.368136 
L 483.442186 170.492097 
L 483.783797 168.412393 
L 484.296213 163.683148 
L 485.064837 154.165737 
L 488.053929 111.97803 
L 490.786814 73.516363 
L 491.470035 67.019335 
L 491.93975 64.428574 
L 492.238659 63.765081 
L 492.409464 63.764291 
L 492.58027 64.051582 
L 492.836478 65.038349 
L 493.178088 67.409718 
L 493.605102 72.051867 
L 494.160219 80.665749 
L 494.928843 96.403335 
L 497.10661 143.37585 
L 497.661727 150.294743 
L 498.046039 152.94856 
L 498.302247 153.669354 
L 498.344949 153.706305 
L 498.38765 154.306488 
L 498.430351 153.706305 
L 498.601157 153.415626 
L 498.857365 152.270346 
L 499.198975 149.457997 
L 499.66869 143.37585 
L 500.30921 131.674415 
L 501.419444 106.294805 
L 502.615081 80.665749 
L 503.2129 72.002968 
L 503.768017 66.333832 
L 504.152329 64.197861 
L 504.451238 63.55201 
L 504.622043 63.570997 
L 504.792849 63.862062 
L 505.049057 64.785475 
L 505.433369 67.179218 
L 505.945784 71.983236 
L 506.671707 81.123357 
L 507.73924 97.66429 
L 510.813736 143.314582 
L 511.838567 156.076196 
L 512.649893 164.380521 
L 513.162308 167.746853 
L 513.503919 168.90926 
L 513.717426 169.134293 
L 513.888231 169.017578 
L 514.101738 168.48562 
L 514.400647 166.998476 
L 514.784959 163.796439 
L 515.297375 157.335539 
L 515.809791 148.068484 
L 516.74922 128.375898 
L 518.329169 95.227382 
L 519.01239 85.460328 
L 519.482105 81.339313 
L 519.738313 80.060079 
L 519.781014 80.501939 
L 519.866416 80.266358 
L 520.079923 79.994779 
L 520.250728 80.098143 
L 520.464235 80.614426 
L 520.763144 82.018691 
L 521.190158 85.252719 
L 521.787976 91.669271 
L 524.17925 119.569597 
L 524.734368 123.119543 
L 525.161381 124.663288 
L 525.46029 125.138418 
L 525.673797 125.190616 
L 525.887303 125.021747 
L 526.186213 124.452983 
L 526.613226 123.089623 
L 527.339148 119.864741 
L 528.833695 113.208377 
L 529.260708 112.464452 
L 529.559617 112.283959 
L 529.858527 112.370165 
L 530.200137 112.761211 
L 530.669852 113.706908 
L 531.523878 116.070812 
L 532.463307 118.46482 
L 532.54871 118.62988 
L 532.676814 119.44227 
L 533.103827 119.935945 
L 533.445438 120.043409 
L 533.787048 119.911471 
L 534.214062 119.46057 
L 534.854582 118.381177 
L 536.263725 115.922469 
L 536.776141 115.456741 
L 536.818843 115.432889 
L 536.861544 115.999216 
L 536.946947 115.962203 
L 537.502064 115.867116 
L 538.057181 116.003143 
L 538.825805 116.453511 
L 540.363053 117.404974 
L 541.046274 117.551516 
L 541.088975 117.553133 
L 541.217079 116.966056 
L 545.316406 116.966056 
L 545.316406 116.966056 
" clip-path="url(#p8aaf4d9df5)" style="fill: none; stroke: #1f77b4; stroke-linecap: square"/>
   </g>
   <g id="line2d_28">
    <path d="M 75.644531 118.553825 
L 76.071545 118.397043 
L 76.541259 117.952658 
L 77.139078 117.042181 
L 78.804429 114.301837 
L 79.188741 114.090363 
L 79.530352 114.144152 
L 79.871962 114.444502 
L 79.914664 112.968981 
L 80.000066 113.102338 
L 80.384378 113.997034 
L 80.896794 115.861702 
L 81.836223 120.384628 
L 82.604847 123.603776 
L 83.03186 124.575481 
L 83.288068 124.755883 
L 83.501575 124.646008 
L 83.757783 124.185869 
L 84.099394 123.010438 
L 84.142095 122.819434 
L 84.270199 120.727207 
L 84.868017 117.13642 
L 86.490668 106.78828 
L 86.87498 105.696738 
L 87.131188 105.50301 
L 87.301993 105.635674 
L 87.5155 106.109349 
L 87.814409 107.35618 
L 88.241422 110.281884 
L 88.412227 111.797507 
L 88.583033 114.885065 
L 90.718099 135.574061 
L 91.017008 136.353391 
L 91.187814 136.353977 
L 91.358619 136.005516 
L 91.614827 134.794887 
L 91.956437 131.84785 
L 92.383451 126.010501 
L 92.68236 120.566508 
L 92.895867 114.71843 
L 93.749893 93.339256 
L 95.372543 52.193521 
L 95.927661 43.296443 
L 96.311973 39.831597 
L 96.568181 38.911861 
L 96.696285 38.891701 
L 96.824389 39.171798 
L 96.952492 39.755871 
L 96.995194 38.706386 
L 97.037895 39.007332 
L 97.336804 42.125551 
L 97.721116 48.713754 
L 98.233532 61.792466 
L 98.916753 85.83601 
L 99.941585 131.192803 
L 101.436132 196.516684 
L 102.204755 221.911092 
L 102.759873 233.801183 
L 103.144185 238.24413 
L 103.400393 239.35088 
L 103.528497 239.331758 
L 103.699302 238.706285 
L 103.95551 236.480046 
L 104.29712 231.13434 
L 104.766835 219.539652 
L 105.364654 198.467847 
L 106.133277 162.678885 
L 108.054837 74.45206 
L 108.695357 55.697804 
L 109.165071 47.836584 
L 109.463981 45.682985 
L 109.592085 45.453292 
L 109.634786 45.469162 
L 109.76289 45.792795 
L 109.805591 44.832771 
L 109.890994 45.376831 
L 110.147202 48.120903 
L 110.531514 55.219999 
L 111.04393 69.617628 
L 111.769852 97.17437 
L 113.904919 182.411676 
L 114.417334 193.948314 
L 114.92975 202.000758 
L 115.314062 205.020563 
L 115.57027 205.682153 
L 115.698374 205.636807 
L 115.86918 205.213957 
L 116.125387 203.871319 
L 116.509699 200.514311 
L 117.150219 192.500777 
L 118.345856 175.115704 
L 118.516662 172.160219 
L 119.029078 167.92042 
L 119.413389 166.264798 
L 119.669597 165.884621 
L 119.840403 165.935175 
L 120.053909 166.314647 
L 120.352819 167.369519 
L 120.822533 169.985896 
L 122.573288 181.45895 
L 122.744093 184.135945 
L 123.085703 184.849592 
L 123.29921 184.898941 
L 123.512717 184.650877 
L 123.811626 183.837471 
L 124.238639 181.87224 
L 124.964562 177.179344 
L 125.989394 170.710984 
L 126.501809 168.772768 
L 126.84342 168.19169 
L 126.928823 170.078723 
L 127.014225 170.051313 
L 127.270433 170.120791 
L 127.569343 170.470208 
L 127.996356 171.385089 
L 128.807681 173.84027 
L 129.533604 175.779127 
L 129.960617 176.370875 
L 130.259526 176.440993 
L 130.515734 176.2509 
L 130.814643 175.73073 
L 131.113553 174.900882 
L 131.327059 172.308775 
L 133.376723 165.209291 
L 133.761035 164.737416 
L 134.017243 164.690613 
L 134.273451 164.869249 
L 134.615061 165.457669 
L 135.042074 166.71974 
L 135.383685 168.086799 
L 135.597192 170.8057 
L 136.707426 175.289826 
L 137.177141 176.402537 
L 137.47605 176.70238 
L 137.689557 176.686178 
L 137.945765 176.386019 
L 138.244674 175.615989 
L 138.628986 173.908835 
L 139.0987 170.652804 
L 139.995428 162.303234 
L 140.678649 150.8676 
L 141.532676 132.437448 
L 142.984521 95.214749 
L 143.966651 71.754659 
L 144.009353 71.594321 
L 144.906081 54.075973 
L 145.503899 46.245865 
L 145.930912 43.146667 
L 146.18712 42.415476 
L 146.315224 42.384861 
L 146.443328 42.583032 
L 146.656835 43.429372 
L 146.955744 45.708308 
L 147.340056 50.498957 
L 147.852472 59.971617 
L 148.279485 71.751699 
L 149.304317 101.599798 
L 150.713461 141.565035 
L 151.353981 154.02269 
L 151.823695 159.540859 
L 152.165306 161.400061 
L 152.336111 161.628016 
L 152.464215 161.491698 
L 152.549618 162.690666 
L 152.592319 162.525356 
L 152.848527 160.894152 
L 153.190138 157.084591 
L 153.659852 149.115143 
L 154.343073 133.190522 
L 156.648945 75.44762 
L 157.204062 67.633094 
L 157.631075 64.127763 
L 157.972686 62.864097 
L 158.186193 62.724605 
L 158.356998 62.944556 
L 158.613206 63.774043 
L 158.997518 65.965114 
L 159.595336 70.899845 
L 161.346091 86.033701 
L 161.730403 87.12585 
L 161.986611 87.306883 
L 162.200117 87.140827 
L 162.456325 86.595793 
L 162.840637 85.188376 
L 163.523858 81.634067 
L 164.420586 77.174522 
L 164.847599 75.958888 
L 165.146509 75.632023 
L 165.274613 75.63553 
L 165.360015 74.474796 
L 165.445418 74.573323 
L 165.701626 75.140538 
L 166.043237 76.492654 
L 166.555652 79.56276 
L 168.349108 91.308989 
L 168.690719 92.052148 
L 168.904225 92.095141 
L 169.117732 91.797607 
L 169.37394 90.989612 
L 169.544745 90.185498 
L 169.758252 87.773469 
L 170.35607 83.068136 
L 171.850617 70.520559 
L 172.234929 69.057253 
L 172.448435 68.827608 
L 172.576539 68.914111 
L 172.790046 69.456179 
L 173.088955 71.091721 
L 173.473267 74.741266 
L 173.857579 80.630622 
L 174.156488 86.366427 
L 174.967813 103.71514 
L 176.590464 139.210156 
L 177.145581 146.824601 
L 177.572594 150.001422 
L 177.828802 150.68338 
L 177.956906 150.673496 
L 178.08501 150.430796 
L 178.127712 150.802937 
L 178.298517 149.508946 
L 178.640127 146.759796 
L 179.109842 140.685187 
L 179.793063 128.285537 
L 181.671922 92.286827 
L 182.184337 86.997017 
L 182.696753 84.102372 
L 182.824857 84.185793 
L 182.995663 84.653201 
L 183.251871 86.100075 
L 183.636182 89.848621 
L 184.148598 97.387843 
L 184.959924 113.31784 
L 186.539873 144.82049 
L 187.009587 150.509123 
L 187.564704 155.829238 
L 187.991718 158.002188 
L 188.290627 158.54423 
L 188.461432 158.508655 
L 188.674939 158.130535 
L 188.973848 157.02342 
L 189.400861 154.418142 
L 189.99868 149.196871 
L 190.895408 139.348967 
L 191.194317 135.043579 
L 192.731565 118.470172 
L 194.226111 104.922438 
L 196.019567 90.603088 
L 196.660087 87.517854 
L 197.129801 86.216117 
L 197.42871 85.879223 
L 197.642217 85.890368 
L 197.898425 86.191388 
L 198.197334 86.947355 
L 198.581646 88.560402 
L 199.094062 91.788833 
L 199.478374 95.297783 
L 199.734582 98.034476 
L 200.844817 109.845387 
L 202.510168 127.309546 
L 203.364195 133.955662 
L 203.705805 135.984485 
L 203.748507 135.883535 
L 203.791208 135.777654 
L 204.431728 138.511247 
L 204.986845 139.982944 
L 205.413858 140.567491 
L 205.755469 140.708722 
L 206.054378 140.607145 
L 206.395989 140.250614 
L 206.865703 139.382857 
L 207.463522 137.757343 
L 207.975938 136.039718 
L 208.018639 136.190351 
L 208.06134 136.339173 
L 208.104042 136.184081 
L 210.068303 129.353957 
L 210.538017 128.576582 
L 210.879628 128.395558 
L 211.135836 128.491385 
L 211.434745 128.859556 
L 211.819057 129.726716 
L 212.331473 131.491097 
L 213.185499 135.421143 
L 214.16763 139.68874 
L 214.637345 140.873556 
L 214.936254 141.154709 
L 215.14976 141.090764 
L 215.405968 140.697013 
L 215.704878 139.777085 
L 216.08919 137.848697 
L 216.601605 134.020744 
L 217.284827 127.046164 
L 219.505296 102.884405 
L 219.97501 100.460128 
L 220.273919 99.774369 
L 220.487426 99.713585 
L 220.658231 99.923682 
L 220.786335 100.230369 
L 220.829037 100.129158 
L 220.871738 100.04253 
L 220.914439 100.20166 
L 221.25605 101.971891 
L 221.725764 105.692705 
L 222.451687 113.464582 
L 223.818129 128.22242 
L 224.330545 131.594296 
L 224.714857 132.852736 
L 224.928364 133.040026 
L 225.056468 132.974269 
L 225.099169 132.712915 
L 225.184572 132.777607 
L 225.44078 131.998171 
L 225.825092 129.925607 
L 226.337508 125.761346 
L 227.319638 115.437854 
L 228.216366 106.933862 
L 228.728782 103.855009 
L 229.113094 102.719919 
L 229.3266 102.55761 
L 229.540107 103.104523 
L 229.796315 103.72049 
L 230.137926 105.198149 
L 230.650341 108.601714 
L 231.504368 116.163522 
L 232.571901 125.177645 
L 233.127018 128.150765 
L 233.51133 129.193837 
L 233.596733 129.304067 
L 233.639434 129.172389 
L 233.682136 129.370195 
L 233.895642 129.342081 
L 234.109149 129.040384 
L 234.408058 128.181466 
L 234.835071 126.167628 
L 235.475591 121.850102 
L 237.311748 108.646843 
L 237.824164 106.66887 
L 238.165775 106.031255 
L 238.421983 105.925461 
L 238.635489 106.078981 
L 238.934399 106.649875 
L 239.31871 107.947427 
L 239.873828 110.754375 
L 240.770555 116.715122 
L 242.179699 126.011445 
L 242.265102 126.316409 
L 242.905622 128.958811 
L 243.375336 130.093308 
L 243.759648 130.496716 
L 244.058558 130.493264 
L 244.357467 130.228732 
L 244.741779 129.539803 
L 245.254195 128.103026 
L 245.980117 125.334136 
L 248.883807 113.469842 
L 249.524327 111.941345 
L 250.036743 111.240201 
L 250.421055 111.035087 
L 251.018874 111.063328 
L 251.445887 111.644423 
L 252.001004 112.853545 
L 252.769628 115.162736 
L 255.289006 123.22921 
L 255.844123 124.106488 
L 256.313838 124.468278 
L 256.69815 124.512946 
L 257.125163 124.321011 
L 257.637579 123.80585 
L 258.3208 122.76327 
L 259.260229 120.908199 
L 259.516437 120.33139 
L 261.010984 117.674903 
L 263.78657 113.414725 
L 264.811402 112.100912 
L 265.451921 111.603406 
L 265.964337 111.479405 
L 266.391351 111.595454 
L 266.861065 111.966643 
L 267.416182 112.722729 
L 268.142105 114.141203 
L 270.57608 119.318345 
L 271.131198 119.857863 
L 271.558211 120.000483 
L 271.985224 119.904806 
L 272.241432 119.656509 
L 272.796549 119.07835 
L 273.607875 117.853178 
L 275.145122 115.498626 
L 275.785642 114.932487 
L 276.340759 114.714701 
L 276.554266 114.75649 
L 277.066682 114.944588 
L 277.6645 115.423358 
L 278.561228 116.476101 
L 280.098476 118.282812 
L 280.952502 118.904779 
L 281.593022 119.043931 
L 282.276244 118.95478 
L 283.258374 118.562417 
L 285.094531 117.806816 
L 286.03396 117.718307 
L 287.485805 117.845653 
L 288.980352 117.896739 
L 290.389495 117.69491 
L 292.652666 117.359585 
L 294.189913 117.413223 
L 296.367681 117.487568 
L 297.734123 117.286531 
L 300.723216 116.804592 
L 302.345866 116.843825 
L 306.060882 117.006034 
L 314.38764 116.98931 
L 324.422451 117.392264 
L 326.557518 117.602829 
L 327.667752 117.482508 
L 328.820688 117.122291 
L 331.553573 116.139415 
L 332.450301 116.163175 
L 333.218924 116.449359 
L 334.243756 117.098383 
L 335.823705 118.108107 
L 336.63503 118.336229 
L 337.232849 118.234186 
L 337.873369 117.886555 
L 338.641993 117.195286 
L 341.417579 114.417679 
L 342.058099 114.194846 
L 342.698619 114.204928 
L 343.38184 114.440951 
L 344.321269 115.028518 
L 347.096855 117.197572 
L 348.292492 118.283606 
L 349.488129 119.70342 
L 350.939974 121.396924 
L 351.537793 121.772971 
L 352.007507 121.820162 
L 352.434521 121.631829 
L 352.904235 121.147092 
L 353.459352 120.200235 
L 354.185275 118.443744 
L 356.320341 112.887766 
L 356.790056 112.339055 
L 357.131666 112.219692 
L 357.430576 112.323243 
L 357.729485 112.748291 
L 358.156498 113.484432 
L 358.754317 115.037216 
L 359.907253 118.886479 
L 360.718578 121.222798 
L 361.230994 122.11486 
L 361.615306 122.378477 
L 361.914215 122.317334 
L 362.213124 122.018582 
L 362.597436 121.298184 
L 363.109852 119.818243 
L 363.921177 116.669836 
L 365.116814 112.118677 
L 365.62923 110.920024 
L 365.970841 110.526027 
L 366.013542 110.590732 
L 366.056243 110.483257 
L 366.312451 110.493501 
L 366.611361 110.771964 
L 366.952971 111.432113 
L 367.422686 112.877078 
L 368.105907 115.804774 
L 369.728557 123.037151 
L 370.369077 124.676947 
L 370.667987 124.875243 
L 370.924194 124.782447 
L 371.223104 124.368135 
L 371.607416 123.373732 
L 372.119832 121.342389 
L 372.888455 117.258878 
L 374.425703 108.993207 
L 375.023522 106.947672 
L 375.493236 106.04223 
L 375.834847 105.778281 
L 376.133756 105.80203 
L 376.475367 106.085536 
L 376.945081 106.827285 
L 377.841809 108.801324 
L 378.653134 110.377104 
L 378.781238 110.555797 
L 378.82394 110.475423 
L 378.866641 110.392085 
L 378.909342 110.440744 
L 379.379057 110.801266 
L 379.763369 110.845856 
L 380.147681 110.670267 
L 380.617395 110.197214 
L 381.343318 109.100029 
L 382.581656 107.240397 
L 383.051371 106.839543 
L 383.136773 107.096573 
L 383.222176 107.057153 
L 383.734592 106.957929 
L 384.289709 107.089246 
L 385.143736 107.578263 
L 386.040464 108.025204 
L 386.595581 108.050242 
L 387.065295 107.852717 
L 387.321503 107.655831 
L 387.364205 107.78727 
L 387.406906 107.576003 
L 388.047426 106.781575 
L 390.139791 103.857564 
L 390.524103 103.768612 
L 390.865713 103.925161 
L 391.207324 104.333792 
L 391.591636 105.119207 
L 391.847844 106.21522 
L 392.445662 108.422334 
L 393.171585 112.018295 
L 394.239118 118.611937 
L 395.90447 129.121716 
L 395.947171 129.15484 
L 396.843899 133.637884 
L 397.484419 135.841254 
L 397.954133 136.760387 
L 398.295744 137.005218 
L 398.551952 136.938253 
L 398.850861 136.578595 
L 399.235173 135.663127 
L 399.704888 133.859344 
L 400.131901 131.601389 
L 400.473511 128.964951 
L 401.455642 121.539977 
L 403.419903 106.440494 
L 404.145825 102.588618 
L 404.743644 100.518705 
L 405.213359 99.592275 
L 405.59767 99.247933 
L 405.939281 99.204151 
L 406.323593 99.383549 
L 406.921412 99.955172 
L 407.988945 100.982389 
L 408.458659 101.133526 
L 408.672166 101.110057 
L 408.842971 100.493864 
L 409.398088 100.120123 
L 410.124011 99.321092 
L 411.276947 98.042807 
L 411.70396 97.855005 
L 412.045571 97.918303 
L 412.387181 98.221432 
L 412.771493 98.900542 
L 412.942298 99.329965 
L 412.985 99.752802 
L 413.070402 99.704401 
L 413.582818 101.688066 
L 414.180637 105.023733 
L 414.906559 110.514464 
L 415.803287 119.147534 
L 417.255132 135.556244 
L 417.554041 139.062578 
L 418.365367 146.344041 
L 418.920484 149.685774 
L 419.347497 151.077687 
L 419.603705 151.357718 
L 419.77451 151.299274 
L 419.988017 150.94217 
L 420.286926 149.902357 
L 420.671238 147.637783 
L 421.183654 143.055941 
L 421.866875 134.547366 
L 423.019811 116.64845 
L 424.087344 101.313086 
L 424.685163 95.484395 
L 425.112176 93.118802 
L 425.411085 92.467964 
L 425.581891 92.482024 
L 425.752696 92.778491 
L 425.795397 93.279386 
L 425.8808 93.181817 
L 426.179709 94.717392 
L 426.606722 98.268203 
L 427.204541 105.46997 
L 428.272074 121.792706 
L 429.254205 135.583185 
L 429.809322 140.818113 
L 430.022828 142.13514 
L 430.06553 141.935882 
L 430.108231 141.719234 
L 430.150932 141.897957 
L 430.449842 142.679465 
L 430.620647 142.747827 
L 430.791452 142.535849 
L 431.04766 141.690306 
L 431.389271 139.591598 
L 431.858985 134.988098 
L 432.456804 126.625253 
L 433.353532 110.458788 
L 435.189689 76.687798 
L 435.787507 70.3065 
L 436.214521 67.854591 
L 436.470729 67.300194 
L 436.641534 67.323342 
L 436.812339 67.66264 
L 437.068547 68.761545 
L 437.410158 71.304002 
L 437.879872 76.689511 
L 438.520392 87.056777 
L 439.502523 107.367044 
L 440.954368 136.885445 
L 441.594888 145.562263 
L 442.021901 148.889368 
L 442.32081 149.887612 
L 442.491615 149.94441 
L 442.662421 149.6236 
L 442.833226 148.926552 
L 443.004031 147.864834 
L 443.388343 144.184318 
L 443.900759 136.793907 
L 444.669383 121.939518 
L 446.206631 91.599725 
L 446.761748 84.889769 
L 447.316865 81.028973 
L 447.444969 81.020624 
L 447.615774 81.397542 
L 447.871982 82.788956 
L 448.213593 86.135572 
L 448.683308 93.265831 
L 449.366529 107.689897 
L 451.586998 157.823794 
L 452.142115 164.562988 
L 452.569128 167.322078 
L 452.868037 168.036471 
L 453.038843 168.02589 
L 453.209648 167.734063 
L 453.465856 166.818716 
L 453.850168 164.546432 
L 454.490688 159.192618 
L 455.643623 149.130311 
L 455.686325 149.436295 
L 455.85713 147.699216 
L 456.369546 145.208735 
L 456.753858 144.300824 
L 457.010066 144.155776 
L 457.223573 144.302583 
L 457.522482 144.883658 
L 457.949495 146.362085 
L 458.590015 149.571419 
L 459.913756 156.917566 
L 459.999159 156.033984 
L 460.04186 156.23174 
L 460.895886 159.636313 
L 461.493705 161.208887 
L 461.96342 161.887381 
L 462.30503 162.055441 
L 462.603939 161.974394 
L 462.94555 161.623048 
L 463.372563 160.808849 
L 463.927681 159.184118 
L 464.183889 158.251454 
L 464.22659 157.406147 
L 464.311992 157.755666 
L 466.233552 150.543187 
L 466.617864 149.992531 
L 466.874072 149.953861 
L 467.087579 150.147473 
L 467.386488 150.788213 
L 467.7708 152.270886 
L 468.240514 155.07204 
L 468.454021 156.673978 
L 468.496722 157.735232 
L 468.582125 157.715579 
L 469.521554 166.539211 
L 470.418282 174.307003 
L 470.887997 176.729555 
L 471.186906 177.327999 
L 471.357711 177.280517 
L 471.528516 176.924781 
L 471.784724 175.777814 
L 472.126335 173.042983 
L 472.553348 167.631147 
L 473.279271 154.946288 
L 474.047895 134.073463 
L 476.012156 78.470523 
L 476.567273 69.472437 
L 476.951585 66.318819 
L 476.994286 66.136465 
L 477.036987 65.189787 
L 477.079689 65.878243 
L 477.207793 65.755981 
L 477.250494 65.78505 
L 477.378598 66.082525 
L 477.592105 67.278578 
L 477.891014 70.402548 
L 478.318027 77.650526 
L 478.873144 91.346478 
L 479.727171 118.877803 
L 481.563328 179.226226 
L 482.161146 190.589373 
L 482.58816 195.14312 
L 482.887069 196.546936 
L 483.057874 196.711863 
L 483.185978 196.543657 
L 483.399485 195.733063 
L 483.698394 193.564939 
L 484.125407 188.652082 
L 484.765927 178.258241 
L 486.388578 146.430352 
L 489.761982 69.662701 
L 490.957619 44.567242 
L 491.598139 35.200013 
L 492.025152 31.607347 
L 492.324062 30.63421 
L 492.452166 30.64168 
L 492.622971 31.066215 
L 492.879179 32.617884 
L 493.22079 36.432527 
L 493.647803 43.993138 
L 494.20292 58.155464 
L 494.971544 84.253446 
L 497.234714 165.379729 
L 497.789831 176.186324 
L 498.174143 179.939092 
L 498.344949 180.556872 
L 498.38765 181.625067 
L 498.430351 180.614701 
L 498.558455 180.385209 
L 498.771962 179.176271 
L 499.070871 175.771083 
L 499.455183 168.583719 
L 499.967599 154.598603 
L 500.736223 126.502955 
L 502.871289 44.277221 
L 503.511809 28.544032 
L 503.981524 21.478525 
L 504.323134 18.850751 
L 504.536641 18.2751 
L 504.664745 18.314366 
L 504.83555 18.803049 
L 505.091758 20.434055 
L 505.47607 24.751681 
L 505.988486 33.52765 
L 506.714408 50.409659 
L 507.696539 78.896209 
L 511.582359 188.31984 
L 512.521789 209.680273 
L 513.119607 218.803527 
L 513.503919 221.964799 
L 513.760127 222.677967 
L 513.888231 222.582474 
L 514.059036 221.965974 
L 514.315244 219.960245 
L 514.656855 215.218553 
L 515.083868 205.97295 
L 515.510881 192.018954 
L 516.236804 163.869654 
L 518.926987 51.937755 
L 519.439403 41.277632 
L 519.738313 37.711697 
L 519.781014 38.628617 
L 519.823715 38.32387 
L 520.079923 37.312036 
L 520.208027 37.325221 
L 520.378832 37.868246 
L 520.63504 39.767168 
L 520.976651 44.178408 
L 521.489067 54.227415 
L 522.257691 74.530527 
L 523.880341 118.288832 
L 524.307354 124.978815 
L 524.862472 132.125408 
L 525.246783 134.79657 
L 525.545693 135.613677 
L 525.716498 135.613685 
L 525.887303 135.296995 
L 526.143511 134.278164 
L 526.527823 131.706673 
L 527.125642 125.976287 
L 528.919097 107.717613 
L 529.303409 106.294623 
L 529.559617 105.94545 
L 529.730423 105.970721 
L 529.943929 106.276286 
L 530.242838 107.168831 
L 530.669852 109.216803 
L 531.438476 114.229114 
L 532.463307 120.587943 
L 532.54871 120.989919 
L 532.676814 122.961549 
L 533.103827 124.184517 
L 533.402737 124.466201 
L 533.616243 124.388064 
L 533.872451 124.010827 
L 534.256763 122.945786 
L 534.854582 120.459887 
L 536.263725 114.35705 
L 536.73344 113.242774 
L 536.818843 113.11421 
L 536.861544 114.536103 
L 536.946947 114.441175 
L 537.331258 114.199708 
L 537.672869 114.233341 
L 538.057181 114.520342 
L 538.569597 115.218616 
L 540.533858 118.255522 
L 541.003572 118.485337 
L 541.088975 118.497175 
L 541.217079 116.966056 
L 545.316406 116.966056 
L 545.316406 116.966056 
" clip-path="url(#p8aaf4d9df5)" style="fill: none; stroke: #ff7f0e; stroke-linecap: square"/>
   </g>
   <g id="patch_3">
    <path d="M 52.160938 250.44375 
L 52.160938 7.2 
" style="fill: none; stroke: #000000; stroke-width: 0.8; stroke-linejoin: miter; stroke-linecap: square"/>
   </g>
   <g id="patch_4">
    <path d="M 568.8 250.44375 
L 568.8 7.2 
" style="fill: none; stroke: #000000; stroke-width: 0.8; stroke-linejoin: miter; stroke-linecap: square"/>
   </g>
   <g id="patch_5">
    <path d="M 52.160937 250.44375 
L 568.8 250.44375 
" style="fill: none; stroke: #000000; stroke-width: 0.8; stroke-linejoin: miter; stroke-linecap: square"/>
   </g>
   <g id="patch_6">
    <path d="M 52.160937 7.2 
L 568.8 7.2 
" style="fill: none; stroke: #000000; stroke-width: 0.8; stroke-linejoin: miter; stroke-linecap: square"/>
   </g>
   <g id="legend_1">
    <g id="patch_7">
     <path d="M 226.361719 245.44375 
L 394.599219 245.44375 
Q 396.599219 245.44375 396.599219 243.44375 
L 396.599219 215.0875 
Q 396.599219 213.0875 394.599219 213.0875 
L 226.361719 213.0875 
Q 224.361719 213.0875 224.361719 215.0875 
L 224.361719 243.44375 
Q 224.361719 245.44375 226.361719 245.44375 
z
" style="fill: #ffffff; opacity: 0.8; stroke: #cccccc; stroke-linejoin: miter"/>
    </g>
    <g id="line2d_29">
     <path d="M 228.361719 221.185937 
L 238.361719 221.185937 
L 248.361719 221.185937 
" style="fill: none; stroke: #1f77b4; stroke-linecap: square"/>
    </g>
    <g id="text_16">
     <!-- SRRC -->
     <g transform="translate(256.361719 224.685937) scale(0.1 -0.1)">
      <defs>
       <path id="DejaVuSans-53" d="M 3425 4513 
L 3425 3897 
Q 3066 4069 2747 4153 
Q 2428 4238 2131 4238 
Q 1616 4238 1336 4038 
Q 1056 3838 1056 3469 
Q 1056 3159 1242 3001 
Q 1428 2844 1947 2747 
L 2328 2669 
Q 3034 2534 3370 2195 
Q 3706 1856 3706 1288 
Q 3706 609 3251 259 
Q 2797 -91 1919 -91 
Q 1588 -91 1214 -16 
Q 841 59 441 206 
L 441 856 
Q 825 641 1194 531 
Q 1563 422 1919 422 
Q 2459 422 2753 634 
Q 3047 847 3047 1241 
Q 3047 1584 2836 1778 
Q 2625 1972 2144 2069 
L 1759 2144 
Q 1053 2284 737 2584 
Q 422 2884 422 3419 
Q 422 4038 858 4394 
Q 1294 4750 2059 4750 
Q 2388 4750 2728 4690 
Q 3069 4631 3425 4513 
z
" transform="scale(0.015625)"/>
       <path id="DejaVuSans-52" d="M 2841 2188 
Q 3044 2119 3236 1894 
Q 3428 1669 3622 1275 
L 4263 0 
L 3584 0 
L 2988 1197 
Q 2756 1666 2539 1819 
Q 2322 1972 1947 1972 
L 1259 1972 
L 1259 0 
L 628 0 
L 628 4666 
L 2053 4666 
Q 2853 4666 3247 4331 
Q 3641 3997 3641 3322 
Q 3641 2881 3436 2590 
Q 3231 2300 2841 2188 
z
M 1259 4147 
L 1259 2491 
L 2053 2491 
Q 2509 2491 2742 2702 
Q 2975 2913 2975 3322 
Q 2975 3731 2742 3939 
Q 2509 4147 2053 4147 
L 1259 4147 
z
" transform="scale(0.015625)"/>
       <path id="DejaVuSans-43" d="M 4122 4306 
L 4122 3641 
Q 3803 3938 3442 4084 
Q 3081 4231 2675 4231 
Q 1875 4231 1450 3742 
Q 1025 3253 1025 2328 
Q 1025 1406 1450 917 
Q 1875 428 2675 428 
Q 3081 428 3442 575 
Q 3803 722 4122 1019 
L 4122 359 
Q 3791 134 3420 21 
Q 3050 -91 2638 -91 
Q 1578 -91 968 557 
Q 359 1206 359 2328 
Q 359 3453 968 4101 
Q 1578 4750 2638 4750 
Q 3056 4750 3426 4639 
Q 3797 4528 4122 4306 
z
" transform="scale(0.015625)"/>
      </defs>
      <use xlink:href="#DejaVuSans-53"/>
      <use xlink:href="#DejaVuSans-52" transform="translate(63.476562 0)"/>
      <use xlink:href="#DejaVuSans-52" transform="translate(132.958984 0)"/>
      <use xlink:href="#DejaVuSans-43" transform="translate(197.441406 0)"/>
     </g>
    </g>
    <g id="line2d_30">
     <path d="M 228.361719 235.864062 
L 238.361719 235.864062 
L 248.361719 235.864062 
" style="fill: none; stroke: #ff7f0e; stroke-linecap: square"/>
    </g>
    <g id="text_17">
     <!-- SRRC + Parabolic Envelope -->
     <g transform="translate(256.361719 239.364062) scale(0.1 -0.1)">
      <defs>
       <path id="DejaVuSans-2b" d="M 2944 4013 
L 2944 2272 
L 4684 2272 
L 4684 1741 
L 2944 1741 
L 2944 0 
L 2419 0 
L 2419 1741 
L 678 1741 
L 678 2272 
L 2419 2272 
L 2419 4013 
L 2944 4013 
z
" transform="scale(0.015625)"/>
       <path id="DejaVuSans-50" d="M 1259 4147 
L 1259 2394 
L 2053 2394 
Q 2494 2394 2734 2622 
Q 2975 2850 2975 3272 
Q 2975 3691 2734 3919 
Q 2494 4147 2053 4147 
L 1259 4147 
z
M 628 4666 
L 2053 4666 
Q 2838 4666 3239 4311 
Q 3641 3956 3641 3272 
Q 3641 2581 3239 2228 
Q 2838 1875 2053 1875 
L 1259 1875 
L 1259 0 
L 628 0 
L 628 4666 
z
" transform="scale(0.015625)"/>
       <path id="DejaVuSans-61" d="M 2194 1759 
Q 1497 1759 1228 1600 
Q 959 1441 959 1056 
Q 959 750 1161 570 
Q 1363 391 1709 391 
Q 2188 391 2477 730 
Q 2766 1069 2766 1631 
L 2766 1759 
L 2194 1759 
z
M 3341 1997 
L 3341 0 
L 2766 0 
L 2766 531 
Q 2569 213 2275 61 
Q 1981 -91 1556 -91 
Q 1019 -91 701 211 
Q 384 513 384 1019 
Q 384 1609 779 1909 
Q 1175 2209 1959 2209 
L 2766 2209 
L 2766 2266 
Q 2766 2663 2505 2880 
Q 2244 3097 1772 3097 
Q 1472 3097 1187 3025 
Q 903 2953 641 2809 
L 641 3341 
Q 956 3463 1253 3523 
Q 1550 3584 1831 3584 
Q 2591 3584 2966 3190 
Q 3341 2797 3341 1997 
z
" transform="scale(0.015625)"/>
       <path id="DejaVuSans-72" d="M 2631 2963 
Q 2534 3019 2420 3045 
Q 2306 3072 2169 3072 
Q 1681 3072 1420 2755 
Q 1159 2438 1159 1844 
L 1159 0 
L 581 0 
L 581 3500 
L 1159 3500 
L 1159 2956 
Q 1341 3275 1631 3429 
Q 1922 3584 2338 3584 
Q 2397 3584 2469 3576 
Q 2541 3569 2628 3553 
L 2631 2963 
z
" transform="scale(0.015625)"/>
       <path id="DejaVuSans-62" d="M 3116 1747 
Q 3116 2381 2855 2742 
Q 2594 3103 2138 3103 
Q 1681 3103 1420 2742 
Q 1159 2381 1159 1747 
Q 1159 1113 1420 752 
Q 1681 391 2138 391 
Q 2594 391 2855 752 
Q 3116 1113 3116 1747 
z
M 1159 2969 
Q 1341 3281 1617 3432 
Q 1894 3584 2278 3584 
Q 2916 3584 3314 3078 
Q 3713 2572 3713 1747 
Q 3713 922 3314 415 
Q 2916 -91 2278 -91 
Q 1894 -91 1617 61 
Q 1341 213 1159 525 
L 1159 0 
L 581 0 
L 581 4863 
L 1159 4863 
L 1159 2969 
z
" transform="scale(0.015625)"/>
       <path id="DejaVuSans-6f" d="M 1959 3097 
Q 1497 3097 1228 2736 
Q 959 2375 959 1747 
Q 959 1119 1226 758 
Q 1494 397 1959 397 
Q 2419 397 2687 759 
Q 2956 1122 2956 1747 
Q 2956 2369 2687 2733 
Q 2419 3097 1959 3097 
z
M 1959 3584 
Q 2709 3584 3137 3096 
Q 3566 2609 3566 1747 
Q 3566 888 3137 398 
Q 2709 -91 1959 -91 
Q 1206 -91 779 398 
Q 353 888 353 1747 
Q 353 2609 779 3096 
Q 1206 3584 1959 3584 
z
" transform="scale(0.015625)"/>
       <path id="DejaVuSans-63" d="M 3122 3366 
L 3122 2828 
Q 2878 2963 2633 3030 
Q 2388 3097 2138 3097 
Q 1578 3097 1268 2742 
Q 959 2388 959 1747 
Q 959 1106 1268 751 
Q 1578 397 2138 397 
Q 2388 397 2633 464 
Q 2878 531 3122 666 
L 3122 134 
Q 2881 22 2623 -34 
Q 2366 -91 2075 -91 
Q 1284 -91 818 406 
Q 353 903 353 1747 
Q 353 2603 823 3093 
Q 1294 3584 2113 3584 
Q 2378 3584 2631 3529 
Q 2884 3475 3122 3366 
z
" transform="scale(0.015625)"/>
       <path id="DejaVuSans-45" d="M 628 4666 
L 3578 4666 
L 3578 4134 
L 1259 4134 
L 1259 2753 
L 3481 2753 
L 3481 2222 
L 1259 2222 
L 1259 531 
L 3634 531 
L 3634 0 
L 628 0 
L 628 4666 
z
" transform="scale(0.015625)"/>
       <path id="DejaVuSans-6e" d="M 3513 2113 
L 3513 0 
L 2938 0 
L 2938 2094 
Q 2938 2591 2744 2837 
Q 2550 3084 2163 3084 
Q 1697 3084 1428 2787 
Q 1159 2491 1159 1978 
L 1159 0 
L 581 0 
L 581 3500 
L 1159 3500 
L 1159 2956 
Q 1366 3272 1645 3428 
Q 1925 3584 2291 3584 
Q 2894 3584 3203 3211 
Q 3513 2838 3513 2113 
z
" transform="scale(0.015625)"/>
       <path id="DejaVuSans-76" d="M 191 3500 
L 800 3500 
L 1894 563 
L 2988 3500 
L 3597 3500 
L 2284 0 
L 1503 0 
L 191 3500 
z
" transform="scale(0.015625)"/>
      </defs>
      <use xlink:href="#DejaVuSans-53"/>
      <use xlink:href="#DejaVuSans-52" transform="translate(63.476562 0)"/>
      <use xlink:href="#DejaVuSans-52" transform="translate(132.958984 0)"/>
      <use xlink:href="#DejaVuSans-43" transform="translate(197.441406 0)"/>
      <use xlink:href="#DejaVuSans-20" transform="translate(267.265625 0)"/>
      <use xlink:href="#DejaVuSans-2b" transform="translate(299.052734 0)"/>
      <use xlink:href="#DejaVuSans-20" transform="translate(382.841797 0)"/>
      <use xlink:href="#DejaVuSans-50" transform="translate(414.628906 0)"/>
      <use xlink:href="#DejaVuSans-61" transform="translate(470.431641 0)"/>
      <use xlink:href="#DejaVuSans-72" transform="translate(531.710938 0)"/>
      <use xlink:href="#DejaVuSans-61" transform="translate(572.824219 0)"/>
      <use xlink:href="#DejaVuSans-62" transform="translate(634.103516 0)"/>
      <use xlink:href="#DejaVuSans-6f" transform="translate(697.580078 0)"/>
      <use xlink:href="#DejaVuSans-6c" transform="translate(758.761719 0)"/>
      <use xlink:href="#DejaVuSans-69" transform="translate(786.544922 0)"/>
      <use xlink:href="#DejaVuSans-63" transform="translate(814.328125 0)"/>
      <use xlink:href="#DejaVuSans-20" transform="translate(869.308594 0)"/>
      <use xlink:href="#DejaVuSans-45" transform="translate(901.095703 0)"/>
      <use xlink:href="#DejaVuSans-6e" transform="translate(964.279297 0)"/>
      <use xlink:href="#DejaVuSans-76" transform="translate(1027.658203 0)"/>
      <use xlink:href="#DejaVuSans-65" transform="translate(1086.837891 0)"/>
      <use xlink:href="#DejaVuSans-6c" transform="translate(1148.361328 0)"/>
      <use xlink:href="#DejaVuSans-6f" transform="translate(1176.144531 0)"/>
      <use xlink:href="#DejaVuSans-70" transform="translate(1237.326172 0)"/>
      <use xlink:href="#DejaVuSans-65" transform="translate(1300.802734 0)"/>
     </g>
    </g>
   </g>
  </g>
 </g>
 <defs>
  <clipPath id="p8aaf4d9df5">
   <rect x="52.160938" y="7.2" width="516.639063" height="243.24375"/>
  </clipPath>
 </defs>
</svg>
