<?xml version="1.0" encoding="utf-8" standalone="no"?>
<!DOCTYPE svg PUBLIC "-//W3C//DTD SVG 1.1//EN"
  "http://www.w3.org/Graphics/SVG/1.1/DTD/svg11.dtd">
<svg xmlns:xlink="http://www.w3.org/1999/xlink" width="576pt" height="288pt" viewBox="0 0 576 288" xmlns="http://www.w3.org/2000/svg" version="1.1">
 <metadata>
  <rdf:RDF xmlns:dc="http://purl.org/dc/elements/1.1/" xmlns:cc="http://creativecommons.org/ns#" xmlns:rdf="http://www.w3.org/1999/02/22-rdf-syntax-ns#">
   <cc:Work>
    <dc:type rdf:resource="http://purl.org/dc/dcmitype/StillImage"/>
    <dc:date>2025-05-10T16:56:41.495830</dc:date>
    <dc:format>image/svg+xml</dc:format>
    <dc:creator>
     <cc:Agent>
      <dc:title>Matplotlib v3.10.3, https://matplotlib.org/</dc:title>
     </cc:Agent>
    </dc:creator>
   </cc:Work>
  </rdf:RDF>
 </metadata>
 <defs>
  <style type="text/css">*{stroke-linejoin: round; stroke-linecap: butt}</style>
 </defs>
 <g id="figure_1">
  <g id="patch_1">
   <path d="M 0 288 
L 576 288 
L 576 0 
L 0 0 
z
" style="fill: #ffffff"/>
  </g>
  <g id="axes_1">
   <g id="patch_2">
    <path d="M 52.160938 250.44375 
L 568.8 250.44375 
L 568.8 22.32 
L 52.160938 22.32 
z
" style="fill: #ffffff"/>
   </g>
   <g id="PathCollection_1">
    <defs>
     <path id="m98f2ff54a5" d="M 0 3 
C 0.795609 3 1.55874 2.683901 2.12132 2.12132 
C 2.683901 1.55874 3 0.795609 3 0 
C 3 -0.795609 2.683901 -1.55874 2.12132 -2.12132 
C 1.55874 -2.683901 0.795609 -3 0 -3 
C -0.795609 -3 -1.55874 -2.683901 -2.12132 -2.12132 
C -2.683901 -1.55874 -3 -0.795609 -3 0 
C -3 0.795609 -2.683901 1.55874 -2.12132 2.12132 
C -1.55874 2.683901 -0.795609 3 0 3 
z
" style="stroke: #1f77b4"/>
    </defs>
    <g clip-path="url(#p5eac165b95)">
     <use xlink:href="#m98f2ff54a5" x="545.316406" y="136.381875" style="fill: #1f77b4; stroke: #1f77b4"/>
     <use xlink:href="#m98f2ff54a5" x="75.644531" y="134.116051" style="fill: #1f77b4; stroke: #1f77b4"/>
     <use xlink:href="#m98f2ff54a5" x="75.644531" y="138.647699" style="fill: #1f77b4; stroke: #1f77b4"/>
     <use xlink:href="#m98f2ff54a5" x="75.928154" y="129.593143" style="fill: #1f77b4; stroke: #1f77b4"/>
     <use xlink:href="#m98f2ff54a5" x="75.928154" y="143.170607" style="fill: #1f77b4; stroke: #1f77b4"/>
     <use xlink:href="#m98f2ff54a5" x="76.494281" y="125.096924" style="fill: #1f77b4; stroke: #1f77b4"/>
     <use xlink:href="#m98f2ff54a5" x="76.494281" y="147.666826" style="fill: #1f77b4; stroke: #1f77b4"/>
     <use xlink:href="#m98f2ff54a5" x="77.340731" y="120.644788" style="fill: #1f77b4; stroke: #1f77b4"/>
     <use xlink:href="#m98f2ff54a5" x="77.340731" y="152.118962" style="fill: #1f77b4; stroke: #1f77b4"/>
     <use xlink:href="#m98f2ff54a5" x="78.464182" y="116.254315" style="fill: #1f77b4; stroke: #1f77b4"/>
     <use xlink:href="#m98f2ff54a5" x="78.464182" y="156.509435" style="fill: #1f77b4; stroke: #1f77b4"/>
     <use xlink:href="#m98f2ff54a5" x="79.860274" y="111.942619" style="fill: #1f77b4; stroke: #1f77b4"/>
     <use xlink:href="#m98f2ff54a5" x="79.860274" y="160.821131" style="fill: #1f77b4; stroke: #1f77b4"/>
     <use xlink:href="#m98f2ff54a5" x="81.52357" y="107.726591" style="fill: #1f77b4; stroke: #1f77b4"/>
     <use xlink:href="#m98f2ff54a5" x="81.52357" y="165.037159" style="fill: #1f77b4; stroke: #1f77b4"/>
     <use xlink:href="#m98f2ff54a5" x="83.44756" y="103.622818" style="fill: #1f77b4; stroke: #1f77b4"/>
     <use xlink:href="#m98f2ff54a5" x="83.44756" y="169.140932" style="fill: #1f77b4; stroke: #1f77b4"/>
     <use xlink:href="#m98f2ff54a5" x="85.62481" y="99.647254" style="fill: #1f77b4; stroke: #1f77b4"/>
     <use xlink:href="#m98f2ff54a5" x="85.62481" y="173.116496" style="fill: #1f77b4; stroke: #1f77b4"/>
     <use xlink:href="#m98f2ff54a5" x="88.046737" y="95.81566" style="fill: #1f77b4; stroke: #1f77b4"/>
     <use xlink:href="#m98f2ff54a5" x="88.046737" y="176.94809" style="fill: #1f77b4; stroke: #1f77b4"/>
     <use xlink:href="#m98f2ff54a5" x="90.704023" y="92.142875" style="fill: #1f77b4; stroke: #1f77b4"/>
     <use xlink:href="#m98f2ff54a5" x="90.704023" y="180.620875" style="fill: #1f77b4; stroke: #1f77b4"/>
     <use xlink:href="#m98f2ff54a5" x="93.586168" y="88.643509" style="fill: #1f77b4; stroke: #1f77b4"/>
     <use xlink:href="#m98f2ff54a5" x="93.586168" y="184.120241" style="fill: #1f77b4; stroke: #1f77b4"/>
     <use xlink:href="#m98f2ff54a5" x="96.682073" y="85.331134" style="fill: #1f77b4; stroke: #1f77b4"/>
     <use xlink:href="#m98f2ff54a5" x="96.682073" y="187.432616" style="fill: #1f77b4; stroke: #1f77b4"/>
     <use xlink:href="#m98f2ff54a5" x="99.979531" y="82.218914" style="fill: #1f77b4; stroke: #1f77b4"/>
     <use xlink:href="#m98f2ff54a5" x="99.979531" y="190.544836" style="fill: #1f77b4; stroke: #1f77b4"/>
     <use xlink:href="#m98f2ff54a5" x="103.465771" y="79.319" style="fill: #1f77b4; stroke: #1f77b4"/>
     <use xlink:href="#m98f2ff54a5" x="103.465771" y="193.44475" style="fill: #1f77b4; stroke: #1f77b4"/>
     <use xlink:href="#m98f2ff54a5" x="107.12713" y="76.642869" style="fill: #1f77b4; stroke: #1f77b4"/>
     <use xlink:href="#m98f2ff54a5" x="107.12713" y="196.120881" style="fill: #1f77b4; stroke: #1f77b4"/>
     <use xlink:href="#m98f2ff54a5" x="110.949308" y="74.201073" style="fill: #1f77b4; stroke: #1f77b4"/>
     <use xlink:href="#m98f2ff54a5" x="110.949308" y="198.562677" style="fill: #1f77b4; stroke: #1f77b4"/>
     <use xlink:href="#m98f2ff54a5" x="114.917422" y="72.003234" style="fill: #1f77b4; stroke: #1f77b4"/>
     <use xlink:href="#m98f2ff54a5" x="114.917422" y="200.760516" style="fill: #1f77b4; stroke: #1f77b4"/>
     <use xlink:href="#m98f2ff54a5" x="131.931054" y="65.81094" style="fill: #1f77b4; stroke: #1f77b4"/>
     <use xlink:href="#m98f2ff54a5" x="131.931054" y="206.95281" style="fill: #1f77b4; stroke: #1f77b4"/>
     <use xlink:href="#m98f2ff54a5" x="136.38643" y="64.943537" style="fill: #1f77b4; stroke: #1f77b4"/>
     <use xlink:href="#m98f2ff54a5" x="136.38643" y="207.820213" style="fill: #1f77b4; stroke: #1f77b4"/>
     <use xlink:href="#m98f2ff54a5" x="127.539357" y="66.955767" style="fill: #1f77b4; stroke: #1f77b4"/>
     <use xlink:href="#m98f2ff54a5" x="127.539357" y="205.807983" style="fill: #1f77b4; stroke: #1f77b4"/>
     <use xlink:href="#m98f2ff54a5" x="140.888139" y="64.357058" style="fill: #1f77b4; stroke: #1f77b4"/>
     <use xlink:href="#m98f2ff54a5" x="140.888139" y="208.406692" style="fill: #1f77b4; stroke: #1f77b4"/>
     <use xlink:href="#m98f2ff54a5" x="145.4184" y="64.05395" style="fill: #1f77b4; stroke: #1f77b4"/>
     <use xlink:href="#m98f2ff54a5" x="145.4184" y="208.7098" style="fill: #1f77b4; stroke: #1f77b4"/>
     <use xlink:href="#m98f2ff54a5" x="149.95945" y="64.035526" style="fill: #1f77b4; stroke: #1f77b4"/>
     <use xlink:href="#m98f2ff54a5" x="149.95945" y="208.728224" style="fill: #1f77b4; stroke: #1f77b4"/>
     <use xlink:href="#m98f2ff54a5" x="154.493402" y="64.301989" style="fill: #1f77b4; stroke: #1f77b4"/>
     <use xlink:href="#m98f2ff54a5" x="154.493402" y="208.461761" style="fill: #1f77b4; stroke: #1f77b4"/>
     <use xlink:href="#m98f2ff54a5" x="123.228721" y="68.373363" style="fill: #1f77b4; stroke: #1f77b4"/>
     <use xlink:href="#m98f2ff54a5" x="123.228721" y="204.390387" style="fill: #1f77b4; stroke: #1f77b4"/>
     <use xlink:href="#m98f2ff54a5" x="159.002339" y="64.852411" style="fill: #1f77b4; stroke: #1f77b4"/>
     <use xlink:href="#m98f2ff54a5" x="159.002339" y="207.911339" style="fill: #1f77b4; stroke: #1f77b4"/>
     <use xlink:href="#m98f2ff54a5" x="163.468516" y="65.68475" style="fill: #1f77b4; stroke: #1f77b4"/>
     <use xlink:href="#m98f2ff54a5" x="163.468516" y="207.079" style="fill: #1f77b4; stroke: #1f77b4"/>
     <use xlink:href="#m98f2ff54a5" x="167.874164" y="66.795805" style="fill: #1f77b4; stroke: #1f77b4"/>
     <use xlink:href="#m98f2ff54a5" x="167.874164" y="205.967945" style="fill: #1f77b4; stroke: #1f77b4"/>
     <use xlink:href="#m98f2ff54a5" x="172.201896" y="68.181292" style="fill: #1f77b4; stroke: #1f77b4"/>
     <use xlink:href="#m98f2ff54a5" x="172.201896" y="204.582458" style="fill: #1f77b4; stroke: #1f77b4"/>
     <use xlink:href="#m98f2ff54a5" x="176.43439" y="69.835741" style="fill: #1f77b4; stroke: #1f77b4"/>
     <use xlink:href="#m98f2ff54a5" x="176.43439" y="202.928009" style="fill: #1f77b4; stroke: #1f77b4"/>
     <use xlink:href="#m98f2ff54a5" x="180.554811" y="71.752611" style="fill: #1f77b4; stroke: #1f77b4"/>
     <use xlink:href="#m98f2ff54a5" x="180.554811" y="201.011139" style="fill: #1f77b4; stroke: #1f77b4"/>
     <use xlink:href="#m98f2ff54a5" x="230.761751" y="130.936602" style="fill: #1f77b4; stroke: #1f77b4"/>
     <use xlink:href="#m98f2ff54a5" x="230.761751" y="141.827148" style="fill: #1f77b4; stroke: #1f77b4"/>
     <use xlink:href="#m98f2ff54a5" x="229.78744" y="120.608226" style="fill: #1f77b4; stroke: #1f77b4"/>
     <use xlink:href="#m98f2ff54a5" x="229.78744" y="152.155524" style="fill: #1f77b4; stroke: #1f77b4"/>
     <use xlink:href="#m98f2ff54a5" x="184.54654" y="73.924149" style="fill: #1f77b4; stroke: #1f77b4"/>
     <use xlink:href="#m98f2ff54a5" x="184.54654" y="198.839601" style="fill: #1f77b4; stroke: #1f77b4"/>
     <use xlink:href="#m98f2ff54a5" x="188.393452" y="76.341466" style="fill: #1f77b4; stroke: #1f77b4"/>
     <use xlink:href="#m98f2ff54a5" x="188.393452" y="196.422284" style="fill: #1f77b4; stroke: #1f77b4"/>
     <use xlink:href="#m98f2ff54a5" x="192.079765" y="78.994364" style="fill: #1f77b4; stroke: #1f77b4"/>
     <use xlink:href="#m98f2ff54a5" x="192.079765" y="193.769386" style="fill: #1f77b4; stroke: #1f77b4"/>
     <use xlink:href="#m98f2ff54a5" x="225.225301" y="109.722563" style="fill: #1f77b4; stroke: #1f77b4"/>
     <use xlink:href="#m98f2ff54a5" x="225.225301" y="163.041187" style="fill: #1f77b4; stroke: #1f77b4"/>
     <use xlink:href="#m98f2ff54a5" x="195.590073" y="81.871201" style="fill: #1f77b4; stroke: #1f77b4"/>
     <use xlink:href="#m98f2ff54a5" x="195.590073" y="190.892549" style="fill: #1f77b4; stroke: #1f77b4"/>
     <use xlink:href="#m98f2ff54a5" x="119.015857" y="70.058111" style="fill: #1f77b4; stroke: #1f77b4"/>
     <use xlink:href="#m98f2ff54a5" x="119.015857" y="202.705639" style="fill: #1f77b4; stroke: #1f77b4"/>
     <use xlink:href="#m98f2ff54a5" x="198.909179" y="84.958462" style="fill: #1f77b4; stroke: #1f77b4"/>
     <use xlink:href="#m98f2ff54a5" x="198.909179" y="187.805288" style="fill: #1f77b4; stroke: #1f77b4"/>
     <use xlink:href="#m98f2ff54a5" x="202.021647" y="88.239752" style="fill: #1f77b4; stroke: #1f77b4"/>
     <use xlink:href="#m98f2ff54a5" x="202.021647" y="184.523998" style="fill: #1f77b4; stroke: #1f77b4"/>
     <use xlink:href="#m98f2ff54a5" x="204.910728" y="91.693288" style="fill: #1f77b4; stroke: #1f77b4"/>
     <use xlink:href="#m98f2ff54a5" x="204.910728" y="181.070462" style="fill: #1f77b4; stroke: #1f77b4"/>
     <use xlink:href="#m98f2ff54a5" x="207.554868" y="95.284121" style="fill: #1f77b4; stroke: #1f77b4"/>
     <use xlink:href="#m98f2ff54a5" x="207.554868" y="177.479629" style="fill: #1f77b4; stroke: #1f77b4"/>
     <use xlink:href="#m98f2ff54a5" x="209.914994" y="98.935136" style="fill: #1f77b4; stroke: #1f77b4"/>
     <use xlink:href="#m98f2ff54a5" x="209.914994" y="173.828614" style="fill: #1f77b4; stroke: #1f77b4"/>
     <use xlink:href="#m98f2ff54a5" x="211.863034" y="102.364687" style="fill: #1f77b4; stroke: #1f77b4"/>
     <use xlink:href="#m98f2ff54a5" x="211.863034" y="170.399063" style="fill: #1f77b4; stroke: #1f77b4"/>
     <use xlink:href="#m98f2ff54a5" x="208.575445" y="115.46903" style="fill: #1f77b4; stroke: #1f77b4"/>
     <use xlink:href="#m98f2ff54a5" x="208.575445" y="157.29472" style="fill: #1f77b4; stroke: #1f77b4"/>
     <use xlink:href="#m98f2ff54a5" x="209.716281" y="124.478348" style="fill: #1f77b4; stroke: #1f77b4"/>
     <use xlink:href="#m98f2ff54a5" x="209.716281" y="148.285402" style="fill: #1f77b4; stroke: #1f77b4"/>
     <use xlink:href="#m98f2ff54a5" x="210.98528" y="132.23751" style="fill: #1f77b4; stroke: #1f77b4"/>
     <use xlink:href="#m98f2ff54a5" x="210.98528" y="140.52624" style="fill: #1f77b4; stroke: #1f77b4"/>
     <use xlink:href="#m98f2ff54a5" x="161.165032" y="136.381875" style="fill: #1f77b4; stroke: #1f77b4"/>
    </g>
   </g>
   <g id="PathCollection_2"/>
   <g id="matplotlib.axis_1">
    <g id="xtick_1">
     <g id="line2d_1">
      <path d="M 75.609054 250.44375 
L 75.609054 22.32 
" clip-path="url(#p5eac165b95)" style="fill: none; stroke-dasharray: 2.96,1.28; stroke-dashoffset: 0; stroke: #b0b0b0; stroke-opacity: 0.8; stroke-width: 0.8"/>
     </g>
     <g id="line2d_2">
      <defs>
       <path id="mfaf05081c4" d="M 0 0 
L 0 3.5 
" style="stroke: #000000; stroke-width: 0.8"/>
      </defs>
      <g>
       <use xlink:href="#mfaf05081c4" x="75.609054" y="250.44375" style="stroke: #000000; stroke-width: 0.8"/>
      </g>
     </g>
     <g id="text_1">
      <!-- −1 -->
      <g transform="translate(68.23796 265.042188) scale(0.1 -0.1)">
       <defs>
        <path id="DejaVuSans-2212" d="M 678 2272 
L 4684 2272 
L 4684 1741 
L 678 1741 
L 678 2272 
z
" transform="scale(0.015625)"/>
        <path id="DejaVuSans-31" d="M 794 531 
L 1825 531 
L 1825 4091 
L 703 3866 
L 703 4441 
L 1819 4666 
L 2450 4666 
L 2450 531 
L 3481 531 
L 3481 0 
L 794 0 
L 794 531 
z
" transform="scale(0.015625)"/>
       </defs>
       <use xlink:href="#DejaVuSans-2212"/>
       <use xlink:href="#DejaVuSans-31" transform="translate(83.789062 0)"/>
      </g>
     </g>
    </g>
    <g id="xtick_2">
     <g id="line2d_3">
      <path d="M 147.982412 250.44375 
L 147.982412 22.32 
" clip-path="url(#p5eac165b95)" style="fill: none; stroke-dasharray: 2.96,1.28; stroke-dashoffset: 0; stroke: #b0b0b0; stroke-opacity: 0.8; stroke-width: 0.8"/>
     </g>
     <g id="line2d_4">
      <g>
       <use xlink:href="#mfaf05081c4" x="147.982412" y="250.44375" style="stroke: #000000; stroke-width: 0.8"/>
      </g>
     </g>
     <g id="text_2">
      <!-- 0 -->
      <g transform="translate(144.801162 265.042188) scale(0.1 -0.1)">
       <defs>
        <path id="DejaVuSans-30" d="M 2034 4250 
Q 1547 4250 1301 3770 
Q 1056 3291 1056 2328 
Q 1056 1369 1301 889 
Q 1547 409 2034 409 
Q 2525 409 2770 889 
Q 3016 1369 3016 2328 
Q 3016 3291 2770 3770 
Q 2525 4250 2034 4250 
z
M 2034 4750 
Q 2819 4750 3233 4129 
Q 3647 3509 3647 2328 
Q 3647 1150 3233 529 
Q 2819 -91 2034 -91 
Q 1250 -91 836 529 
Q 422 1150 422 2328 
Q 422 3509 836 4129 
Q 1250 4750 2034 4750 
z
" transform="scale(0.015625)"/>
       </defs>
       <use xlink:href="#DejaVuSans-30"/>
      </g>
     </g>
    </g>
    <g id="xtick_3">
     <g id="line2d_5">
      <path d="M 220.35577 250.44375 
L 220.35577 22.32 
" clip-path="url(#p5eac165b95)" style="fill: none; stroke-dasharray: 2.96,1.28; stroke-dashoffset: 0; stroke: #b0b0b0; stroke-opacity: 0.8; stroke-width: 0.8"/>
     </g>
     <g id="line2d_6">
      <g>
       <use xlink:href="#mfaf05081c4" x="220.35577" y="250.44375" style="stroke: #000000; stroke-width: 0.8"/>
      </g>
     </g>
     <g id="text_3">
      <!-- 1 -->
      <g transform="translate(217.17452 265.042188) scale(0.1 -0.1)">
       <use xlink:href="#DejaVuSans-31"/>
      </g>
     </g>
    </g>
    <g id="xtick_4">
     <g id="line2d_7">
      <path d="M 292.729128 250.44375 
L 292.729128 22.32 
" clip-path="url(#p5eac165b95)" style="fill: none; stroke-dasharray: 2.96,1.28; stroke-dashoffset: 0; stroke: #b0b0b0; stroke-opacity: 0.8; stroke-width: 0.8"/>
     </g>
     <g id="line2d_8">
      <g>
       <use xlink:href="#mfaf05081c4" x="292.729128" y="250.44375" style="stroke: #000000; stroke-width: 0.8"/>
      </g>
     </g>
     <g id="text_4">
      <!-- 2 -->
      <g transform="translate(289.547878 265.042188) scale(0.1 -0.1)">
       <defs>
        <path id="DejaVuSans-32" d="M 1228 531 
L 3431 531 
L 3431 0 
L 469 0 
L 469 531 
Q 828 903 1448 1529 
Q 2069 2156 2228 2338 
Q 2531 2678 2651 2914 
Q 2772 3150 2772 3378 
Q 2772 3750 2511 3984 
Q 2250 4219 1831 4219 
Q 1534 4219 1204 4116 
Q 875 4013 500 3803 
L 500 4441 
Q 881 4594 1212 4672 
Q 1544 4750 1819 4750 
Q 2544 4750 2975 4387 
Q 3406 4025 3406 3419 
Q 3406 3131 3298 2873 
Q 3191 2616 2906 2266 
Q 2828 2175 2409 1742 
Q 1991 1309 1228 531 
z
" transform="scale(0.015625)"/>
       </defs>
       <use xlink:href="#DejaVuSans-32"/>
      </g>
     </g>
    </g>
    <g id="xtick_5">
     <g id="line2d_9">
      <path d="M 365.102486 250.44375 
L 365.102486 22.32 
" clip-path="url(#p5eac165b95)" style="fill: none; stroke-dasharray: 2.96,1.28; stroke-dashoffset: 0; stroke: #b0b0b0; stroke-opacity: 0.8; stroke-width: 0.8"/>
     </g>
     <g id="line2d_10">
      <g>
       <use xlink:href="#mfaf05081c4" x="365.102486" y="250.44375" style="stroke: #000000; stroke-width: 0.8"/>
      </g>
     </g>
     <g id="text_5">
      <!-- 3 -->
      <g transform="translate(361.921236 265.042188) scale(0.1 -0.1)">
       <defs>
        <path id="DejaVuSans-33" d="M 2597 2516 
Q 3050 2419 3304 2112 
Q 3559 1806 3559 1356 
Q 3559 666 3084 287 
Q 2609 -91 1734 -91 
Q 1441 -91 1130 -33 
Q 819 25 488 141 
L 488 750 
Q 750 597 1062 519 
Q 1375 441 1716 441 
Q 2309 441 2620 675 
Q 2931 909 2931 1356 
Q 2931 1769 2642 2001 
Q 2353 2234 1838 2234 
L 1294 2234 
L 1294 2753 
L 1863 2753 
Q 2328 2753 2575 2939 
Q 2822 3125 2822 3475 
Q 2822 3834 2567 4026 
Q 2313 4219 1838 4219 
Q 1578 4219 1281 4162 
Q 984 4106 628 3988 
L 628 4550 
Q 988 4650 1302 4700 
Q 1616 4750 1894 4750 
Q 2613 4750 3031 4423 
Q 3450 4097 3450 3541 
Q 3450 3153 3228 2886 
Q 3006 2619 2597 2516 
z
" transform="scale(0.015625)"/>
       </defs>
       <use xlink:href="#DejaVuSans-33"/>
      </g>
     </g>
    </g>
    <g id="xtick_6">
     <g id="line2d_11">
      <path d="M 437.475844 250.44375 
L 437.475844 22.32 
" clip-path="url(#p5eac165b95)" style="fill: none; stroke-dasharray: 2.96,1.28; stroke-dashoffset: 0; stroke: #b0b0b0; stroke-opacity: 0.8; stroke-width: 0.8"/>
     </g>
     <g id="line2d_12">
      <g>
       <use xlink:href="#mfaf05081c4" x="437.475844" y="250.44375" style="stroke: #000000; stroke-width: 0.8"/>
      </g>
     </g>
     <g id="text_6">
      <!-- 4 -->
      <g transform="translate(434.294594 265.042188) scale(0.1 -0.1)">
       <defs>
        <path id="DejaVuSans-34" d="M 2419 4116 
L 825 1625 
L 2419 1625 
L 2419 4116 
z
M 2253 4666 
L 3047 4666 
L 3047 1625 
L 3713 1625 
L 3713 1100 
L 3047 1100 
L 3047 0 
L 2419 0 
L 2419 1100 
L 313 1100 
L 313 1709 
L 2253 4666 
z
" transform="scale(0.015625)"/>
       </defs>
       <use xlink:href="#DejaVuSans-34"/>
      </g>
     </g>
    </g>
    <g id="xtick_7">
     <g id="line2d_13">
      <path d="M 509.849202 250.44375 
L 509.849202 22.32 
" clip-path="url(#p5eac165b95)" style="fill: none; stroke-dasharray: 2.96,1.28; stroke-dashoffset: 0; stroke: #b0b0b0; stroke-opacity: 0.8; stroke-width: 0.8"/>
     </g>
     <g id="line2d_14">
      <g>
       <use xlink:href="#mfaf05081c4" x="509.849202" y="250.44375" style="stroke: #000000; stroke-width: 0.8"/>
      </g>
     </g>
     <g id="text_7">
      <!-- 5 -->
      <g transform="translate(506.667952 265.042188) scale(0.1 -0.1)">
       <defs>
        <path id="DejaVuSans-35" d="M 691 4666 
L 3169 4666 
L 3169 4134 
L 1269 4134 
L 1269 2991 
Q 1406 3038 1543 3061 
Q 1681 3084 1819 3084 
Q 2600 3084 3056 2656 
Q 3513 2228 3513 1497 
Q 3513 744 3044 326 
Q 2575 -91 1722 -91 
Q 1428 -91 1123 -41 
Q 819 9 494 109 
L 494 744 
Q 775 591 1075 516 
Q 1375 441 1709 441 
Q 2250 441 2565 725 
Q 2881 1009 2881 1497 
Q 2881 1984 2565 2268 
Q 2250 2553 1709 2553 
Q 1456 2553 1204 2497 
Q 953 2441 691 2322 
L 691 4666 
z
" transform="scale(0.015625)"/>
       </defs>
       <use xlink:href="#DejaVuSans-35"/>
      </g>
     </g>
    </g>
    <g id="text_8">
     <!-- Real -->
     <g transform="translate(299.701563 278.720312) scale(0.1 -0.1)">
      <defs>
       <path id="DejaVuSans-52" d="M 2841 2188 
Q 3044 2119 3236 1894 
Q 3428 1669 3622 1275 
L 4263 0 
L 3584 0 
L 2988 1197 
Q 2756 1666 2539 1819 
Q 2322 1972 1947 1972 
L 1259 1972 
L 1259 0 
L 628 0 
L 628 4666 
L 2053 4666 
Q 2853 4666 3247 4331 
Q 3641 3997 3641 3322 
Q 3641 2881 3436 2590 
Q 3231 2300 2841 2188 
z
M 1259 4147 
L 1259 2491 
L 2053 2491 
Q 2509 2491 2742 2702 
Q 2975 2913 2975 3322 
Q 2975 3731 2742 3939 
Q 2509 4147 2053 4147 
L 1259 4147 
z
" transform="scale(0.015625)"/>
       <path id="DejaVuSans-65" d="M 3597 1894 
L 3597 1613 
L 953 1613 
Q 991 1019 1311 708 
Q 1631 397 2203 397 
Q 2534 397 2845 478 
Q 3156 559 3463 722 
L 3463 178 
Q 3153 47 2828 -22 
Q 2503 -91 2169 -91 
Q 1331 -91 842 396 
Q 353 884 353 1716 
Q 353 2575 817 3079 
Q 1281 3584 2069 3584 
Q 2775 3584 3186 3129 
Q 3597 2675 3597 1894 
z
M 3022 2063 
Q 3016 2534 2758 2815 
Q 2500 3097 2075 3097 
Q 1594 3097 1305 2825 
Q 1016 2553 972 2059 
L 3022 2063 
z
" transform="scale(0.015625)"/>
       <path id="DejaVuSans-61" d="M 2194 1759 
Q 1497 1759 1228 1600 
Q 959 1441 959 1056 
Q 959 750 1161 570 
Q 1363 391 1709 391 
Q 2188 391 2477 730 
Q 2766 1069 2766 1631 
L 2766 1759 
L 2194 1759 
z
M 3341 1997 
L 3341 0 
L 2766 0 
L 2766 531 
Q 2569 213 2275 61 
Q 1981 -91 1556 -91 
Q 1019 -91 701 211 
Q 384 513 384 1019 
Q 384 1609 779 1909 
Q 1175 2209 1959 2209 
L 2766 2209 
L 2766 2266 
Q 2766 2663 2505 2880 
Q 2244 3097 1772 3097 
Q 1472 3097 1187 3025 
Q 903 2953 641 2809 
L 641 3341 
Q 956 3463 1253 3523 
Q 1550 3584 1831 3584 
Q 2591 3584 2966 3190 
Q 3341 2797 3341 1997 
z
" transform="scale(0.015625)"/>
       <path id="DejaVuSans-6c" d="M 603 4863 
L 1178 4863 
L 1178 0 
L 603 0 
L 603 4863 
z
" transform="scale(0.015625)"/>
      </defs>
      <use xlink:href="#DejaVuSans-52"/>
      <use xlink:href="#DejaVuSans-65" transform="translate(64.982422 0)"/>
      <use xlink:href="#DejaVuSans-61" transform="translate(126.505859 0)"/>
      <use xlink:href="#DejaVuSans-6c" transform="translate(187.785156 0)"/>
     </g>
    </g>
   </g>
   <g id="matplotlib.axis_2">
    <g id="ytick_1">
     <g id="line2d_15">
      <path d="M 52.160938 244.941912 
L 568.8 244.941912 
" clip-path="url(#p5eac165b95)" style="fill: none; stroke-dasharray: 2.96,1.28; stroke-dashoffset: 0; stroke: #b0b0b0; stroke-opacity: 0.8; stroke-width: 0.8"/>
     </g>
     <g id="line2d_16">
      <defs>
       <path id="m465ce114d1" d="M 0 0 
L -3.5 0 
" style="stroke: #000000; stroke-width: 0.8"/>
      </defs>
      <g>
       <use xlink:href="#m465ce114d1" x="52.160938" y="244.941912" style="stroke: #000000; stroke-width: 0.8"/>
      </g>
     </g>
     <g id="text_9">
      <!-- −1.5 -->
      <g transform="translate(20.878125 248.741131) scale(0.1 -0.1)">
       <defs>
        <path id="DejaVuSans-2e" d="M 684 794 
L 1344 794 
L 1344 0 
L 684 0 
L 684 794 
z
" transform="scale(0.015625)"/>
       </defs>
       <use xlink:href="#DejaVuSans-2212"/>
       <use xlink:href="#DejaVuSans-31" transform="translate(83.789062 0)"/>
       <use xlink:href="#DejaVuSans-2e" transform="translate(147.412109 0)"/>
       <use xlink:href="#DejaVuSans-35" transform="translate(179.199219 0)"/>
      </g>
     </g>
    </g>
    <g id="ytick_2">
     <g id="line2d_17">
      <path d="M 52.160938 208.755233 
L 568.8 208.755233 
" clip-path="url(#p5eac165b95)" style="fill: none; stroke-dasharray: 2.96,1.28; stroke-dashoffset: 0; stroke: #b0b0b0; stroke-opacity: 0.8; stroke-width: 0.8"/>
     </g>
     <g id="line2d_18">
      <g>
       <use xlink:href="#m465ce114d1" x="52.160938" y="208.755233" style="stroke: #000000; stroke-width: 0.8"/>
      </g>
     </g>
     <g id="text_10">
      <!-- −1.0 -->
      <g transform="translate(20.878125 212.554452) scale(0.1 -0.1)">
       <use xlink:href="#DejaVuSans-2212"/>
       <use xlink:href="#DejaVuSans-31" transform="translate(83.789062 0)"/>
       <use xlink:href="#DejaVuSans-2e" transform="translate(147.412109 0)"/>
       <use xlink:href="#DejaVuSans-30" transform="translate(179.199219 0)"/>
      </g>
     </g>
    </g>
    <g id="ytick_3">
     <g id="line2d_19">
      <path d="M 52.160938 172.568554 
L 568.8 172.568554 
" clip-path="url(#p5eac165b95)" style="fill: none; stroke-dasharray: 2.96,1.28; stroke-dashoffset: 0; stroke: #b0b0b0; stroke-opacity: 0.8; stroke-width: 0.8"/>
     </g>
     <g id="line2d_20">
      <g>
       <use xlink:href="#m465ce114d1" x="52.160938" y="172.568554" style="stroke: #000000; stroke-width: 0.8"/>
      </g>
     </g>
     <g id="text_11">
      <!-- −0.5 -->
      <g transform="translate(20.878125 176.367773) scale(0.1 -0.1)">
       <use xlink:href="#DejaVuSans-2212"/>
       <use xlink:href="#DejaVuSans-30" transform="translate(83.789062 0)"/>
       <use xlink:href="#DejaVuSans-2e" transform="translate(147.412109 0)"/>
       <use xlink:href="#DejaVuSans-35" transform="translate(179.199219 0)"/>
      </g>
     </g>
    </g>
    <g id="ytick_4">
     <g id="line2d_21">
      <path d="M 52.160938 136.381875 
L 568.8 136.381875 
" clip-path="url(#p5eac165b95)" style="fill: none; stroke-dasharray: 2.96,1.28; stroke-dashoffset: 0; stroke: #b0b0b0; stroke-opacity: 0.8; stroke-width: 0.8"/>
     </g>
     <g id="line2d_22">
      <g>
       <use xlink:href="#m465ce114d1" x="52.160938" y="136.381875" style="stroke: #000000; stroke-width: 0.8"/>
      </g>
     </g>
     <g id="text_12">
      <!-- 0.0 -->
      <g transform="translate(29.257812 140.181094) scale(0.1 -0.1)">
       <use xlink:href="#DejaVuSans-30"/>
       <use xlink:href="#DejaVuSans-2e" transform="translate(63.623047 0)"/>
       <use xlink:href="#DejaVuSans-30" transform="translate(95.410156 0)"/>
      </g>
     </g>
    </g>
    <g id="ytick_5">
     <g id="line2d_23">
      <path d="M 52.160938 100.195196 
L 568.8 100.195196 
" clip-path="url(#p5eac165b95)" style="fill: none; stroke-dasharray: 2.96,1.28; stroke-dashoffset: 0; stroke: #b0b0b0; stroke-opacity: 0.8; stroke-width: 0.8"/>
     </g>
     <g id="line2d_24">
      <g>
       <use xlink:href="#m465ce114d1" x="52.160938" y="100.195196" style="stroke: #000000; stroke-width: 0.8"/>
      </g>
     </g>
     <g id="text_13">
      <!-- 0.5 -->
      <g transform="translate(29.257812 103.994415) scale(0.1 -0.1)">
       <use xlink:href="#DejaVuSans-30"/>
       <use xlink:href="#DejaVuSans-2e" transform="translate(63.623047 0)"/>
       <use xlink:href="#DejaVuSans-35" transform="translate(95.410156 0)"/>
      </g>
     </g>
    </g>
    <g id="ytick_6">
     <g id="line2d_25">
      <path d="M 52.160938 64.008517 
L 568.8 64.008517 
" clip-path="url(#p5eac165b95)" style="fill: none; stroke-dasharray: 2.96,1.28; stroke-dashoffset: 0; stroke: #b0b0b0; stroke-opacity: 0.8; stroke-width: 0.8"/>
     </g>
     <g id="line2d_26">
      <g>
       <use xlink:href="#m465ce114d1" x="52.160938" y="64.008517" style="stroke: #000000; stroke-width: 0.8"/>
      </g>
     </g>
     <g id="text_14">
      <!-- 1.0 -->
      <g transform="translate(29.257812 67.807736) scale(0.1 -0.1)">
       <use xlink:href="#DejaVuSans-31"/>
       <use xlink:href="#DejaVuSans-2e" transform="translate(63.623047 0)"/>
       <use xlink:href="#DejaVuSans-30" transform="translate(95.410156 0)"/>
      </g>
     </g>
    </g>
    <g id="ytick_7">
     <g id="line2d_27">
      <path d="M 52.160938 27.821838 
L 568.8 27.821838 
" clip-path="url(#p5eac165b95)" style="fill: none; stroke-dasharray: 2.96,1.28; stroke-dashoffset: 0; stroke: #b0b0b0; stroke-opacity: 0.8; stroke-width: 0.8"/>
     </g>
     <g id="line2d_28">
      <g>
       <use xlink:href="#m465ce114d1" x="52.160938" y="27.821838" style="stroke: #000000; stroke-width: 0.8"/>
      </g>
     </g>
     <g id="text_15">
      <!-- 1.5 -->
      <g transform="translate(29.257812 31.621057) scale(0.1 -0.1)">
       <use xlink:href="#DejaVuSans-31"/>
       <use xlink:href="#DejaVuSans-2e" transform="translate(63.623047 0)"/>
       <use xlink:href="#DejaVuSans-35" transform="translate(95.410156 0)"/>
      </g>
     </g>
    </g>
    <g id="text_16">
     <!-- Imaginary -->
     <g transform="translate(14.798437 161.602187) rotate(-90) scale(0.1 -0.1)">
      <defs>
       <path id="DejaVuSans-49" d="M 628 4666 
L 1259 4666 
L 1259 0 
L 628 0 
L 628 4666 
z
" transform="scale(0.015625)"/>
       <path id="DejaVuSans-6d" d="M 3328 2828 
Q 3544 3216 3844 3400 
Q 4144 3584 4550 3584 
Q 5097 3584 5394 3201 
Q 5691 2819 5691 2113 
L 5691 0 
L 5113 0 
L 5113 2094 
Q 5113 2597 4934 2840 
Q 4756 3084 4391 3084 
Q 3944 3084 3684 2787 
Q 3425 2491 3425 1978 
L 3425 0 
L 2847 0 
L 2847 2094 
Q 2847 2600 2669 2842 
Q 2491 3084 2119 3084 
Q 1678 3084 1418 2786 
Q 1159 2488 1159 1978 
L 1159 0 
L 581 0 
L 581 3500 
L 1159 3500 
L 1159 2956 
Q 1356 3278 1631 3431 
Q 1906 3584 2284 3584 
Q 2666 3584 2933 3390 
Q 3200 3197 3328 2828 
z
" transform="scale(0.015625)"/>
       <path id="DejaVuSans-67" d="M 2906 1791 
Q 2906 2416 2648 2759 
Q 2391 3103 1925 3103 
Q 1463 3103 1205 2759 
Q 947 2416 947 1791 
Q 947 1169 1205 825 
Q 1463 481 1925 481 
Q 2391 481 2648 825 
Q 2906 1169 2906 1791 
z
M 3481 434 
Q 3481 -459 3084 -895 
Q 2688 -1331 1869 -1331 
Q 1566 -1331 1297 -1286 
Q 1028 -1241 775 -1147 
L 775 -588 
Q 1028 -725 1275 -790 
Q 1522 -856 1778 -856 
Q 2344 -856 2625 -561 
Q 2906 -266 2906 331 
L 2906 616 
Q 2728 306 2450 153 
Q 2172 0 1784 0 
Q 1141 0 747 490 
Q 353 981 353 1791 
Q 353 2603 747 3093 
Q 1141 3584 1784 3584 
Q 2172 3584 2450 3431 
Q 2728 3278 2906 2969 
L 2906 3500 
L 3481 3500 
L 3481 434 
z
" transform="scale(0.015625)"/>
       <path id="DejaVuSans-69" d="M 603 3500 
L 1178 3500 
L 1178 0 
L 603 0 
L 603 3500 
z
M 603 4863 
L 1178 4863 
L 1178 4134 
L 603 4134 
L 603 4863 
z
" transform="scale(0.015625)"/>
       <path id="DejaVuSans-6e" d="M 3513 2113 
L 3513 0 
L 2938 0 
L 2938 2094 
Q 2938 2591 2744 2837 
Q 2550 3084 2163 3084 
Q 1697 3084 1428 2787 
Q 1159 2491 1159 1978 
L 1159 0 
L 581 0 
L 581 3500 
L 1159 3500 
L 1159 2956 
Q 1366 3272 1645 3428 
Q 1925 3584 2291 3584 
Q 2894 3584 3203 3211 
Q 3513 2838 3513 2113 
z
" transform="scale(0.015625)"/>
       <path id="DejaVuSans-72" d="M 2631 2963 
Q 2534 3019 2420 3045 
Q 2306 3072 2169 3072 
Q 1681 3072 1420 2755 
Q 1159 2438 1159 1844 
L 1159 0 
L 581 0 
L 581 3500 
L 1159 3500 
L 1159 2956 
Q 1341 3275 1631 3429 
Q 1922 3584 2338 3584 
Q 2397 3584 2469 3576 
Q 2541 3569 2628 3553 
L 2631 2963 
z
" transform="scale(0.015625)"/>
       <path id="DejaVuSans-79" d="M 2059 -325 
Q 1816 -950 1584 -1140 
Q 1353 -1331 966 -1331 
L 506 -1331 
L 506 -850 
L 844 -850 
Q 1081 -850 1212 -737 
Q 1344 -625 1503 -206 
L 1606 56 
L 191 3500 
L 800 3500 
L 1894 763 
L 2988 3500 
L 3597 3500 
L 2059 -325 
z
" transform="scale(0.015625)"/>
      </defs>
      <use xlink:href="#DejaVuSans-49"/>
      <use xlink:href="#DejaVuSans-6d" transform="translate(29.492188 0)"/>
      <use xlink:href="#DejaVuSans-61" transform="translate(126.904297 0)"/>
      <use xlink:href="#DejaVuSans-67" transform="translate(188.183594 0)"/>
      <use xlink:href="#DejaVuSans-69" transform="translate(251.660156 0)"/>
      <use xlink:href="#DejaVuSans-6e" transform="translate(279.443359 0)"/>
      <use xlink:href="#DejaVuSans-61" transform="translate(342.822266 0)"/>
      <use xlink:href="#DejaVuSans-72" transform="translate(404.101562 0)"/>
      <use xlink:href="#DejaVuSans-79" transform="translate(445.214844 0)"/>
     </g>
    </g>
   </g>
   <g id="line2d_29">
    <path d="M 220.35577 136.381875 
L 220.210059 131.791673 
L 219.773513 127.219954 
L 219.047889 122.685127 
L 218.03611 118.205452 
L 216.742249 113.798967 
L 215.171517 109.483415 
L 213.330238 105.276174 
L 211.225826 101.194185 
L 208.866755 97.253884 
L 206.262525 93.471137 
L 203.423621 89.861177 
L 200.361475 86.43854 
L 197.088417 83.217006 
L 193.617626 80.209549 
L 189.963078 77.428278 
L 186.13949 74.884392 
L 182.162256 72.588135 
L 178.047391 70.548753 
L 173.811466 68.774457 
L 169.471537 67.272393 
L 165.045078 66.048608 
L 160.549914 65.108031 
L 156.004145 64.454448 
L 151.426075 64.090491 
L 146.834139 64.017627 
L 142.246827 64.236147 
L 137.682609 64.745173 
L 133.159866 65.542655 
L 128.696807 66.625381 
L 124.311405 67.988992 
L 120.021318 69.627997 
L 115.84382 71.535797 
L 111.795733 73.704708 
L 107.893357 76.125999 
L 104.152405 78.789918 
L 100.587942 81.68574 
L 97.214319 84.801805 
L 94.045121 88.125563 
L 91.09311 91.643633 
L 88.370172 95.341848 
L 85.887271 99.205317 
L 83.654406 103.218483 
L 81.680567 107.365186 
L 79.973702 111.628729 
L 78.540684 115.991944 
L 77.387283 120.437262 
L 76.518144 124.946783 
L 75.936766 129.50235 
L 75.645491 134.085618 
L 75.645491 138.678132 
L 75.936766 143.2614 
L 76.518144 147.816967 
L 77.387283 152.326488 
L 78.540684 156.771806 
L 79.973702 161.135021 
L 81.680567 165.398564 
L 83.654406 169.545267 
L 85.887271 173.558433 
L 88.370172 177.421902 
L 91.09311 181.120117 
L 94.045121 184.638187 
L 97.214319 187.961945 
L 100.587942 191.07801 
L 104.152405 193.973832 
L 107.893357 196.637751 
L 111.795733 199.059042 
L 115.84382 201.227953 
L 120.021318 203.135753 
L 124.311405 204.774758 
L 128.696807 206.138369 
L 133.159866 207.221095 
L 137.682609 208.018577 
L 142.246827 208.527603 
L 146.834139 208.746123 
L 151.426075 208.673259 
L 156.004145 208.309302 
L 160.549914 207.655719 
L 165.045078 206.715142 
L 169.471537 205.491357 
L 173.811466 203.989293 
L 178.047391 202.214997 
L 182.162256 200.175615 
L 186.13949 197.879358 
L 189.963078 195.335472 
L 193.617626 192.554201 
L 197.088417 189.546744 
L 200.361475 186.32521 
L 203.423621 182.902573 
L 206.262525 179.292613 
L 208.866755 175.509866 
L 211.225826 171.569565 
L 213.330238 167.487576 
L 215.171517 163.280335 
L 216.742249 158.964783 
L 218.03611 154.558298 
L 219.047889 150.078623 
L 219.773513 145.543796 
L 220.210059 140.972077 
L 220.35577 136.381875 
" clip-path="url(#p5eac165b95)" style="fill: none; stroke-dasharray: 3.7,1.6; stroke-dashoffset: 0; stroke: #000000"/>
   </g>
   <g id="patch_3">
    <path d="M 52.160938 250.44375 
L 52.160938 22.32 
" style="fill: none; stroke: #000000; stroke-width: 0.8; stroke-linejoin: miter; stroke-linecap: square"/>
   </g>
   <g id="patch_4">
    <path d="M 568.8 250.44375 
L 568.8 22.32 
" style="fill: none; stroke: #000000; stroke-width: 0.8; stroke-linejoin: miter; stroke-linecap: square"/>
   </g>
   <g id="patch_5">
    <path d="M 52.160937 250.44375 
L 568.8 250.44375 
" style="fill: none; stroke: #000000; stroke-width: 0.8; stroke-linejoin: miter; stroke-linecap: square"/>
   </g>
   <g id="patch_6">
    <path d="M 52.160937 22.32 
L 568.8 22.32 
" style="fill: none; stroke: #000000; stroke-width: 0.8; stroke-linejoin: miter; stroke-linecap: square"/>
   </g>
   <g id="text_17">
    <!-- Zeros and poles of $H(z)$ -->
    <g transform="translate(240.400469 16.32) scale(0.12 -0.12)">
     <defs>
      <path id="DejaVuSans-5a" d="M 359 4666 
L 4025 4666 
L 4025 4184 
L 1075 531 
L 4097 531 
L 4097 0 
L 288 0 
L 288 481 
L 3238 4134 
L 359 4134 
L 359 4666 
z
" transform="scale(0.015625)"/>
      <path id="DejaVuSans-6f" d="M 1959 3097 
Q 1497 3097 1228 2736 
Q 959 2375 959 1747 
Q 959 1119 1226 758 
Q 1494 397 1959 397 
Q 2419 397 2687 759 
Q 2956 1122 2956 1747 
Q 2956 2369 2687 2733 
Q 2419 3097 1959 3097 
z
M 1959 3584 
Q 2709 3584 3137 3096 
Q 3566 2609 3566 1747 
Q 3566 888 3137 398 
Q 2709 -91 1959 -91 
Q 1206 -91 779 398 
Q 353 888 353 1747 
Q 353 2609 779 3096 
Q 1206 3584 1959 3584 
z
" transform="scale(0.015625)"/>
      <path id="DejaVuSans-73" d="M 2834 3397 
L 2834 2853 
Q 2591 2978 2328 3040 
Q 2066 3103 1784 3103 
Q 1356 3103 1142 2972 
Q 928 2841 928 2578 
Q 928 2378 1081 2264 
Q 1234 2150 1697 2047 
L 1894 2003 
Q 2506 1872 2764 1633 
Q 3022 1394 3022 966 
Q 3022 478 2636 193 
Q 2250 -91 1575 -91 
Q 1294 -91 989 -36 
Q 684 19 347 128 
L 347 722 
Q 666 556 975 473 
Q 1284 391 1588 391 
Q 1994 391 2212 530 
Q 2431 669 2431 922 
Q 2431 1156 2273 1281 
Q 2116 1406 1581 1522 
L 1381 1569 
Q 847 1681 609 1914 
Q 372 2147 372 2553 
Q 372 3047 722 3315 
Q 1072 3584 1716 3584 
Q 2034 3584 2315 3537 
Q 2597 3491 2834 3397 
z
" transform="scale(0.015625)"/>
      <path id="DejaVuSans-20" transform="scale(0.015625)"/>
      <path id="DejaVuSans-64" d="M 2906 2969 
L 2906 4863 
L 3481 4863 
L 3481 0 
L 2906 0 
L 2906 525 
Q 2725 213 2448 61 
Q 2172 -91 1784 -91 
Q 1150 -91 751 415 
Q 353 922 353 1747 
Q 353 2572 751 3078 
Q 1150 3584 1784 3584 
Q 2172 3584 2448 3432 
Q 2725 3281 2906 2969 
z
M 947 1747 
Q 947 1113 1208 752 
Q 1469 391 1925 391 
Q 2381 391 2643 752 
Q 2906 1113 2906 1747 
Q 2906 2381 2643 2742 
Q 2381 3103 1925 3103 
Q 1469 3103 1208 2742 
Q 947 2381 947 1747 
z
" transform="scale(0.015625)"/>
      <path id="DejaVuSans-70" d="M 1159 525 
L 1159 -1331 
L 581 -1331 
L 581 3500 
L 1159 3500 
L 1159 2969 
Q 1341 3281 1617 3432 
Q 1894 3584 2278 3584 
Q 2916 3584 3314 3078 
Q 3713 2572 3713 1747 
Q 3713 922 3314 415 
Q 2916 -91 2278 -91 
Q 1894 -91 1617 61 
Q 1341 213 1159 525 
z
M 3116 1747 
Q 3116 2381 2855 2742 
Q 2594 3103 2138 3103 
Q 1681 3103 1420 2742 
Q 1159 2381 1159 1747 
Q 1159 1113 1420 752 
Q 1681 391 2138 391 
Q 2594 391 2855 752 
Q 3116 1113 3116 1747 
z
" transform="scale(0.015625)"/>
      <path id="DejaVuSans-66" d="M 2375 4863 
L 2375 4384 
L 1825 4384 
Q 1516 4384 1395 4259 
Q 1275 4134 1275 3809 
L 1275 3500 
L 2222 3500 
L 2222 3053 
L 1275 3053 
L 1275 0 
L 697 0 
L 697 3053 
L 147 3053 
L 147 3500 
L 697 3500 
L 697 3744 
Q 697 4328 969 4595 
Q 1241 4863 1831 4863 
L 2375 4863 
z
" transform="scale(0.015625)"/>
      <path id="DejaVuSans-Oblique-48" d="M 1081 4666 
L 1716 4666 
L 1344 2753 
L 3634 2753 
L 4006 4666 
L 4641 4666 
L 3731 0 
L 3097 0 
L 3531 2222 
L 1241 2222 
L 806 0 
L 172 0 
L 1081 4666 
z
" transform="scale(0.015625)"/>
      <path id="DejaVuSans-28" d="M 1984 4856 
Q 1566 4138 1362 3434 
Q 1159 2731 1159 2009 
Q 1159 1288 1364 580 
Q 1569 -128 1984 -844 
L 1484 -844 
Q 1016 -109 783 600 
Q 550 1309 550 2009 
Q 550 2706 781 3412 
Q 1013 4119 1484 4856 
L 1984 4856 
z
" transform="scale(0.015625)"/>
      <path id="DejaVuSans-Oblique-7a" d="M 744 3500 
L 3475 3500 
L 3372 2975 
L 738 459 
L 2913 459 
L 2822 0 
L -19 0 
L 84 525 
L 2719 3041 
L 653 3041 
L 744 3500 
z
" transform="scale(0.015625)"/>
      <path id="DejaVuSans-29" d="M 513 4856 
L 1013 4856 
Q 1481 4119 1714 3412 
Q 1947 2706 1947 2009 
Q 1947 1309 1714 600 
Q 1481 -109 1013 -844 
L 513 -844 
Q 928 -128 1133 580 
Q 1338 1288 1338 2009 
Q 1338 2731 1133 3434 
Q 928 4138 513 4856 
z
" transform="scale(0.015625)"/>
     </defs>
     <use xlink:href="#DejaVuSans-5a" transform="translate(0 0.015625)"/>
     <use xlink:href="#DejaVuSans-65" transform="translate(68.505859 0.015625)"/>
     <use xlink:href="#DejaVuSans-72" transform="translate(130.029297 0.015625)"/>
     <use xlink:href="#DejaVuSans-6f" transform="translate(171.142578 0.015625)"/>
     <use xlink:href="#DejaVuSans-73" transform="translate(232.324219 0.015625)"/>
     <use xlink:href="#DejaVuSans-20" transform="translate(284.423828 0.015625)"/>
     <use xlink:href="#DejaVuSans-61" transform="translate(316.210938 0.015625)"/>
     <use xlink:href="#DejaVuSans-6e" transform="translate(377.490234 0.015625)"/>
     <use xlink:href="#DejaVuSans-64" transform="translate(440.869141 0.015625)"/>
     <use xlink:href="#DejaVuSans-20" transform="translate(504.345703 0.015625)"/>
     <use xlink:href="#DejaVuSans-70" transform="translate(536.132812 0.015625)"/>
     <use xlink:href="#DejaVuSans-6f" transform="translate(599.609375 0.015625)"/>
     <use xlink:href="#DejaVuSans-6c" transform="translate(660.791016 0.015625)"/>
     <use xlink:href="#DejaVuSans-65" transform="translate(688.574219 0.015625)"/>
     <use xlink:href="#DejaVuSans-73" transform="translate(750.097656 0.015625)"/>
     <use xlink:href="#DejaVuSans-20" transform="translate(802.197266 0.015625)"/>
     <use xlink:href="#DejaVuSans-6f" transform="translate(833.984375 0.015625)"/>
     <use xlink:href="#DejaVuSans-66" transform="translate(895.166016 0.015625)"/>
     <use xlink:href="#DejaVuSans-20" transform="translate(930.371094 0.015625)"/>
     <use xlink:href="#DejaVuSans-Oblique-48" transform="translate(962.158203 0.015625)"/>
     <use xlink:href="#DejaVuSans-28" transform="translate(1037.353516 0.015625)"/>
     <use xlink:href="#DejaVuSans-Oblique-7a" transform="translate(1076.367188 0.015625)"/>
     <use xlink:href="#DejaVuSans-29" transform="translate(1128.857422 0.015625)"/>
    </g>
   </g>
   <g id="legend_1">
    <g id="patch_7">
     <path d="M 479.675 74.354375 
L 561.8 74.354375 
Q 563.8 74.354375 563.8 72.354375 
L 563.8 29.32 
Q 563.8 27.32 561.8 27.32 
L 479.675 27.32 
Q 477.675 27.32 477.675 29.32 
L 477.675 72.354375 
Q 477.675 74.354375 479.675 74.354375 
z
" style="fill: #ffffff; opacity: 0.8; stroke: #cccccc; stroke-linejoin: miter"/>
    </g>
    <g id="line2d_30">
     <path d="M 481.675 35.418438 
L 491.675 35.418438 
L 501.675 35.418438 
" style="fill: none; stroke-dasharray: 3.7,1.6; stroke-dashoffset: 0; stroke: #000000"/>
    </g>
    <g id="text_18">
     <!-- Unit circle -->
     <g transform="translate(509.675 38.918438) scale(0.1 -0.1)">
      <defs>
       <path id="DejaVuSans-55" d="M 556 4666 
L 1191 4666 
L 1191 1831 
Q 1191 1081 1462 751 
Q 1734 422 2344 422 
Q 2950 422 3222 751 
Q 3494 1081 3494 1831 
L 3494 4666 
L 4128 4666 
L 4128 1753 
Q 4128 841 3676 375 
Q 3225 -91 2344 -91 
Q 1459 -91 1007 375 
Q 556 841 556 1753 
L 556 4666 
z
" transform="scale(0.015625)"/>
       <path id="DejaVuSans-74" d="M 1172 4494 
L 1172 3500 
L 2356 3500 
L 2356 3053 
L 1172 3053 
L 1172 1153 
Q 1172 725 1289 603 
Q 1406 481 1766 481 
L 2356 481 
L 2356 0 
L 1766 0 
Q 1100 0 847 248 
Q 594 497 594 1153 
L 594 3053 
L 172 3053 
L 172 3500 
L 594 3500 
L 594 4494 
L 1172 4494 
z
" transform="scale(0.015625)"/>
       <path id="DejaVuSans-63" d="M 3122 3366 
L 3122 2828 
Q 2878 2963 2633 3030 
Q 2388 3097 2138 3097 
Q 1578 3097 1268 2742 
Q 959 2388 959 1747 
Q 959 1106 1268 751 
Q 1578 397 2138 397 
Q 2388 397 2633 464 
Q 2878 531 3122 666 
L 3122 134 
Q 2881 22 2623 -34 
Q 2366 -91 2075 -91 
Q 1284 -91 818 406 
Q 353 903 353 1747 
Q 353 2603 823 3093 
Q 1294 3584 2113 3584 
Q 2378 3584 2631 3529 
Q 2884 3475 3122 3366 
z
" transform="scale(0.015625)"/>
      </defs>
      <use xlink:href="#DejaVuSans-55"/>
      <use xlink:href="#DejaVuSans-6e" transform="translate(73.193359 0)"/>
      <use xlink:href="#DejaVuSans-69" transform="translate(136.572266 0)"/>
      <use xlink:href="#DejaVuSans-74" transform="translate(164.355469 0)"/>
      <use xlink:href="#DejaVuSans-20" transform="translate(203.564453 0)"/>
      <use xlink:href="#DejaVuSans-63" transform="translate(235.351562 0)"/>
      <use xlink:href="#DejaVuSans-69" transform="translate(290.332031 0)"/>
      <use xlink:href="#DejaVuSans-72" transform="translate(318.115234 0)"/>
      <use xlink:href="#DejaVuSans-63" transform="translate(356.978516 0)"/>
      <use xlink:href="#DejaVuSans-6c" transform="translate(411.958984 0)"/>
      <use xlink:href="#DejaVuSans-65" transform="translate(439.742188 0)"/>
     </g>
    </g>
    <g id="PathCollection_3">
     <g>
      <use xlink:href="#m98f2ff54a5" x="491.675" y="50.971563" style="fill: #1f77b4; stroke: #1f77b4"/>
     </g>
    </g>
    <g id="text_19">
     <!-- Zeros -->
     <g transform="translate(509.675 53.596563) scale(0.1 -0.1)">
      <use xlink:href="#DejaVuSans-5a"/>
      <use xlink:href="#DejaVuSans-65" transform="translate(68.505859 0)"/>
      <use xlink:href="#DejaVuSans-72" transform="translate(130.029297 0)"/>
      <use xlink:href="#DejaVuSans-6f" transform="translate(168.892578 0)"/>
      <use xlink:href="#DejaVuSans-73" transform="translate(230.074219 0)"/>
     </g>
    </g>
    <g id="PathCollection_4">
     <defs>
      <path id="mac6ae68c6e" d="M -3 3 
L 3 -3 
M -3 -3 
L 3 3 
" style="stroke: #ff7f0e"/>
     </defs>
     <g>
      <use xlink:href="#mac6ae68c6e" x="491.675" y="65.649688" style="fill: #ff7f0e; stroke: #ff7f0e"/>
     </g>
    </g>
    <g id="text_20">
     <!-- Poles -->
     <g transform="translate(509.675 68.274688) scale(0.1 -0.1)">
      <defs>
       <path id="DejaVuSans-50" d="M 1259 4147 
L 1259 2394 
L 2053 2394 
Q 2494 2394 2734 2622 
Q 2975 2850 2975 3272 
Q 2975 3691 2734 3919 
Q 2494 4147 2053 4147 
L 1259 4147 
z
M 628 4666 
L 2053 4666 
Q 2838 4666 3239 4311 
Q 3641 3956 3641 3272 
Q 3641 2581 3239 2228 
Q 2838 1875 2053 1875 
L 1259 1875 
L 1259 0 
L 628 0 
L 628 4666 
z
" transform="scale(0.015625)"/>
      </defs>
      <use xlink:href="#DejaVuSans-50"/>
      <use xlink:href="#DejaVuSans-6f" transform="translate(56.677734 0)"/>
      <use xlink:href="#DejaVuSans-6c" transform="translate(117.859375 0)"/>
      <use xlink:href="#DejaVuSans-65" transform="translate(145.642578 0)"/>
      <use xlink:href="#DejaVuSans-73" transform="translate(207.166016 0)"/>
     </g>
    </g>
   </g>
  </g>
 </g>
 <defs>
  <clipPath id="p5eac165b95">
   <rect x="52.160938" y="22.32" width="516.639063" height="228.12375"/>
  </clipPath>
 </defs>
</svg>
