<?xml version="1.0" encoding="utf-8" standalone="no"?>
<!DOCTYPE svg PUBLIC "-//W3C//DTD SVG 1.1//EN"
  "http://www.w3.org/Graphics/SVG/1.1/DTD/svg11.dtd">
<svg xmlns:xlink="http://www.w3.org/1999/xlink" width="576pt" height="288pt" viewBox="0 0 576 288" xmlns="http://www.w3.org/2000/svg" version="1.1">
 <metadata>
  <rdf:RDF xmlns:dc="http://purl.org/dc/elements/1.1/" xmlns:cc="http://creativecommons.org/ns#" xmlns:rdf="http://www.w3.org/1999/02/22-rdf-syntax-ns#">
   <cc:Work>
    <dc:type rdf:resource="http://purl.org/dc/dcmitype/StillImage"/>
    <dc:date>2025-05-10T16:56:54.526221</dc:date>
    <dc:format>image/svg+xml</dc:format>
    <dc:creator>
     <cc:Agent>
      <dc:title>Matplotlib v3.10.3, https://matplotlib.org/</dc:title>
     </cc:Agent>
    </dc:creator>
   </cc:Work>
  </rdf:RDF>
 </metadata>
 <defs>
  <style type="text/css">*{stroke-linejoin: round; stroke-linecap: butt}</style>
 </defs>
 <g id="figure_1">
  <g id="patch_1">
   <path d="M 0 288 
L 576 288 
L 576 0 
L 0 0 
z
" style="fill: #ffffff"/>
  </g>
  <g id="axes_1">
   <g id="patch_2">
    <path d="M 48.982813 250.421875 
L 568.8 250.421875 
L 568.8 22.32 
L 48.982813 22.32 
z
" style="fill: #ffffff"/>
   </g>
   <g id="matplotlib.axis_1">
    <g id="xtick_1">
     <g id="line2d_1">
      <path d="M 119.89006 250.421875 
L 119.89006 22.32 
" clip-path="url(#p5c0e204983)" style="fill: none; stroke-dasharray: 2.96,1.28; stroke-dashoffset: 0; stroke: #b0b0b0; stroke-opacity: 0.8; stroke-width: 0.8"/>
     </g>
     <g id="line2d_2">
      <defs>
       <path id="m7e3af3feab" d="M 0 0 
L 0 3.5 
" style="stroke: #000000; stroke-width: 0.8"/>
      </defs>
      <g>
       <use xlink:href="#m7e3af3feab" x="119.89006" y="250.421875" style="stroke: #000000; stroke-width: 0.8"/>
      </g>
     </g>
     <g id="text_1">
      <!-- -200 -->
      <g transform="translate(108.542404 265.020312) scale(0.1 -0.1)">
       <defs>
        <path id="DejaVuSans-2d" d="M 313 2009 
L 1997 2009 
L 1997 1497 
L 313 1497 
L 313 2009 
z
" transform="scale(0.015625)"/>
        <path id="DejaVuSans-32" d="M 1228 531 
L 3431 531 
L 3431 0 
L 469 0 
L 469 531 
Q 828 903 1448 1529 
Q 2069 2156 2228 2338 
Q 2531 2678 2651 2914 
Q 2772 3150 2772 3378 
Q 2772 3750 2511 3984 
Q 2250 4219 1831 4219 
Q 1534 4219 1204 4116 
Q 875 4013 500 3803 
L 500 4441 
Q 881 4594 1212 4672 
Q 1544 4750 1819 4750 
Q 2544 4750 2975 4387 
Q 3406 4025 3406 3419 
Q 3406 3131 3298 2873 
Q 3191 2616 2906 2266 
Q 2828 2175 2409 1742 
Q 1991 1309 1228 531 
z
" transform="scale(0.015625)"/>
        <path id="DejaVuSans-30" d="M 2034 4250 
Q 1547 4250 1301 3770 
Q 1056 3291 1056 2328 
Q 1056 1369 1301 889 
Q 1547 409 2034 409 
Q 2525 409 2770 889 
Q 3016 1369 3016 2328 
Q 3016 3291 2770 3770 
Q 2525 4250 2034 4250 
z
M 2034 4750 
Q 2819 4750 3233 4129 
Q 3647 3509 3647 2328 
Q 3647 1150 3233 529 
Q 2819 -91 2034 -91 
Q 1250 -91 836 529 
Q 422 1150 422 2328 
Q 422 3509 836 4129 
Q 1250 4750 2034 4750 
z
" transform="scale(0.015625)"/>
       </defs>
       <use xlink:href="#DejaVuSans-2d"/>
       <use xlink:href="#DejaVuSans-32" transform="translate(36.083984 0)"/>
       <use xlink:href="#DejaVuSans-30" transform="translate(99.707031 0)"/>
       <use xlink:href="#DejaVuSans-30" transform="translate(163.330078 0)"/>
      </g>
     </g>
    </g>
    <g id="xtick_2">
     <g id="line2d_3">
      <path d="M 214.448447 250.421875 
L 214.448447 22.32 
" clip-path="url(#p5c0e204983)" style="fill: none; stroke-dasharray: 2.96,1.28; stroke-dashoffset: 0; stroke: #b0b0b0; stroke-opacity: 0.8; stroke-width: 0.8"/>
     </g>
     <g id="line2d_4">
      <g>
       <use xlink:href="#m7e3af3feab" x="214.448447" y="250.421875" style="stroke: #000000; stroke-width: 0.8"/>
      </g>
     </g>
     <g id="text_2">
      <!-- -100 -->
      <g transform="translate(203.100791 265.020312) scale(0.1 -0.1)">
       <defs>
        <path id="DejaVuSans-31" d="M 794 531 
L 1825 531 
L 1825 4091 
L 703 3866 
L 703 4441 
L 1819 4666 
L 2450 4666 
L 2450 531 
L 3481 531 
L 3481 0 
L 794 0 
L 794 531 
z
" transform="scale(0.015625)"/>
       </defs>
       <use xlink:href="#DejaVuSans-2d"/>
       <use xlink:href="#DejaVuSans-31" transform="translate(36.083984 0)"/>
       <use xlink:href="#DejaVuSans-30" transform="translate(99.707031 0)"/>
       <use xlink:href="#DejaVuSans-30" transform="translate(163.330078 0)"/>
      </g>
     </g>
    </g>
    <g id="xtick_3">
     <g id="line2d_5">
      <path d="M 309.006834 250.421875 
L 309.006834 22.32 
" clip-path="url(#p5c0e204983)" style="fill: none; stroke-dasharray: 2.96,1.28; stroke-dashoffset: 0; stroke: #b0b0b0; stroke-opacity: 0.8; stroke-width: 0.8"/>
     </g>
     <g id="line2d_6">
      <g>
       <use xlink:href="#m7e3af3feab" x="309.006834" y="250.421875" style="stroke: #000000; stroke-width: 0.8"/>
      </g>
     </g>
     <g id="text_3">
      <!-- 0 -->
      <g transform="translate(305.825584 265.020312) scale(0.1 -0.1)">
       <use xlink:href="#DejaVuSans-30"/>
      </g>
     </g>
    </g>
    <g id="xtick_4">
     <g id="line2d_7">
      <path d="M 403.565221 250.421875 
L 403.565221 22.32 
" clip-path="url(#p5c0e204983)" style="fill: none; stroke-dasharray: 2.96,1.28; stroke-dashoffset: 0; stroke: #b0b0b0; stroke-opacity: 0.8; stroke-width: 0.8"/>
     </g>
     <g id="line2d_8">
      <g>
       <use xlink:href="#m7e3af3feab" x="403.565221" y="250.421875" style="stroke: #000000; stroke-width: 0.8"/>
      </g>
     </g>
     <g id="text_4">
      <!-- 100 -->
      <g transform="translate(394.021471 265.020312) scale(0.1 -0.1)">
       <use xlink:href="#DejaVuSans-31"/>
       <use xlink:href="#DejaVuSans-30" transform="translate(63.623047 0)"/>
       <use xlink:href="#DejaVuSans-30" transform="translate(127.246094 0)"/>
      </g>
     </g>
    </g>
    <g id="xtick_5">
     <g id="line2d_9">
      <path d="M 498.123608 250.421875 
L 498.123608 22.32 
" clip-path="url(#p5c0e204983)" style="fill: none; stroke-dasharray: 2.96,1.28; stroke-dashoffset: 0; stroke: #b0b0b0; stroke-opacity: 0.8; stroke-width: 0.8"/>
     </g>
     <g id="line2d_10">
      <g>
       <use xlink:href="#m7e3af3feab" x="498.123608" y="250.421875" style="stroke: #000000; stroke-width: 0.8"/>
      </g>
     </g>
     <g id="text_5">
      <!-- 200 -->
      <g transform="translate(488.579858 265.020312) scale(0.1 -0.1)">
       <use xlink:href="#DejaVuSans-32"/>
       <use xlink:href="#DejaVuSans-30" transform="translate(63.623047 0)"/>
       <use xlink:href="#DejaVuSans-30" transform="translate(127.246094 0)"/>
      </g>
     </g>
    </g>
    <g id="text_6">
     <!-- Frequency (Hz), $f$ -->
     <g transform="translate(265.741406 278.7) scale(0.1 -0.1)">
      <defs>
       <path id="DejaVuSans-46" d="M 628 4666 
L 3309 4666 
L 3309 4134 
L 1259 4134 
L 1259 2759 
L 3109 2759 
L 3109 2228 
L 1259 2228 
L 1259 0 
L 628 0 
L 628 4666 
z
" transform="scale(0.015625)"/>
       <path id="DejaVuSans-72" d="M 2631 2963 
Q 2534 3019 2420 3045 
Q 2306 3072 2169 3072 
Q 1681 3072 1420 2755 
Q 1159 2438 1159 1844 
L 1159 0 
L 581 0 
L 581 3500 
L 1159 3500 
L 1159 2956 
Q 1341 3275 1631 3429 
Q 1922 3584 2338 3584 
Q 2397 3584 2469 3576 
Q 2541 3569 2628 3553 
L 2631 2963 
z
" transform="scale(0.015625)"/>
       <path id="DejaVuSans-65" d="M 3597 1894 
L 3597 1613 
L 953 1613 
Q 991 1019 1311 708 
Q 1631 397 2203 397 
Q 2534 397 2845 478 
Q 3156 559 3463 722 
L 3463 178 
Q 3153 47 2828 -22 
Q 2503 -91 2169 -91 
Q 1331 -91 842 396 
Q 353 884 353 1716 
Q 353 2575 817 3079 
Q 1281 3584 2069 3584 
Q 2775 3584 3186 3129 
Q 3597 2675 3597 1894 
z
M 3022 2063 
Q 3016 2534 2758 2815 
Q 2500 3097 2075 3097 
Q 1594 3097 1305 2825 
Q 1016 2553 972 2059 
L 3022 2063 
z
" transform="scale(0.015625)"/>
       <path id="DejaVuSans-71" d="M 947 1747 
Q 947 1113 1208 752 
Q 1469 391 1925 391 
Q 2381 391 2643 752 
Q 2906 1113 2906 1747 
Q 2906 2381 2643 2742 
Q 2381 3103 1925 3103 
Q 1469 3103 1208 2742 
Q 947 2381 947 1747 
z
M 2906 525 
Q 2725 213 2448 61 
Q 2172 -91 1784 -91 
Q 1150 -91 751 415 
Q 353 922 353 1747 
Q 353 2572 751 3078 
Q 1150 3584 1784 3584 
Q 2172 3584 2448 3432 
Q 2725 3281 2906 2969 
L 2906 3500 
L 3481 3500 
L 3481 -1331 
L 2906 -1331 
L 2906 525 
z
" transform="scale(0.015625)"/>
       <path id="DejaVuSans-75" d="M 544 1381 
L 544 3500 
L 1119 3500 
L 1119 1403 
Q 1119 906 1312 657 
Q 1506 409 1894 409 
Q 2359 409 2629 706 
Q 2900 1003 2900 1516 
L 2900 3500 
L 3475 3500 
L 3475 0 
L 2900 0 
L 2900 538 
Q 2691 219 2414 64 
Q 2138 -91 1772 -91 
Q 1169 -91 856 284 
Q 544 659 544 1381 
z
M 1991 3584 
L 1991 3584 
z
" transform="scale(0.015625)"/>
       <path id="DejaVuSans-6e" d="M 3513 2113 
L 3513 0 
L 2938 0 
L 2938 2094 
Q 2938 2591 2744 2837 
Q 2550 3084 2163 3084 
Q 1697 3084 1428 2787 
Q 1159 2491 1159 1978 
L 1159 0 
L 581 0 
L 581 3500 
L 1159 3500 
L 1159 2956 
Q 1366 3272 1645 3428 
Q 1925 3584 2291 3584 
Q 2894 3584 3203 3211 
Q 3513 2838 3513 2113 
z
" transform="scale(0.015625)"/>
       <path id="DejaVuSans-63" d="M 3122 3366 
L 3122 2828 
Q 2878 2963 2633 3030 
Q 2388 3097 2138 3097 
Q 1578 3097 1268 2742 
Q 959 2388 959 1747 
Q 959 1106 1268 751 
Q 1578 397 2138 397 
Q 2388 397 2633 464 
Q 2878 531 3122 666 
L 3122 134 
Q 2881 22 2623 -34 
Q 2366 -91 2075 -91 
Q 1284 -91 818 406 
Q 353 903 353 1747 
Q 353 2603 823 3093 
Q 1294 3584 2113 3584 
Q 2378 3584 2631 3529 
Q 2884 3475 3122 3366 
z
" transform="scale(0.015625)"/>
       <path id="DejaVuSans-79" d="M 2059 -325 
Q 1816 -950 1584 -1140 
Q 1353 -1331 966 -1331 
L 506 -1331 
L 506 -850 
L 844 -850 
Q 1081 -850 1212 -737 
Q 1344 -625 1503 -206 
L 1606 56 
L 191 3500 
L 800 3500 
L 1894 763 
L 2988 3500 
L 3597 3500 
L 2059 -325 
z
" transform="scale(0.015625)"/>
       <path id="DejaVuSans-20" transform="scale(0.015625)"/>
       <path id="DejaVuSans-28" d="M 1984 4856 
Q 1566 4138 1362 3434 
Q 1159 2731 1159 2009 
Q 1159 1288 1364 580 
Q 1569 -128 1984 -844 
L 1484 -844 
Q 1016 -109 783 600 
Q 550 1309 550 2009 
Q 550 2706 781 3412 
Q 1013 4119 1484 4856 
L 1984 4856 
z
" transform="scale(0.015625)"/>
       <path id="DejaVuSans-48" d="M 628 4666 
L 1259 4666 
L 1259 2753 
L 3553 2753 
L 3553 4666 
L 4184 4666 
L 4184 0 
L 3553 0 
L 3553 2222 
L 1259 2222 
L 1259 0 
L 628 0 
L 628 4666 
z
" transform="scale(0.015625)"/>
       <path id="DejaVuSans-7a" d="M 353 3500 
L 3084 3500 
L 3084 2975 
L 922 459 
L 3084 459 
L 3084 0 
L 275 0 
L 275 525 
L 2438 3041 
L 353 3041 
L 353 3500 
z
" transform="scale(0.015625)"/>
       <path id="DejaVuSans-29" d="M 513 4856 
L 1013 4856 
Q 1481 4119 1714 3412 
Q 1947 2706 1947 2009 
Q 1947 1309 1714 600 
Q 1481 -109 1013 -844 
L 513 -844 
Q 928 -128 1133 580 
Q 1338 1288 1338 2009 
Q 1338 2731 1133 3434 
Q 928 4138 513 4856 
z
" transform="scale(0.015625)"/>
       <path id="DejaVuSans-2c" d="M 750 794 
L 1409 794 
L 1409 256 
L 897 -744 
L 494 -744 
L 750 256 
L 750 794 
z
" transform="scale(0.015625)"/>
       <path id="DejaVuSans-Oblique-66" d="M 3059 4863 
L 2969 4384 
L 2419 4384 
Q 2106 4384 1964 4261 
Q 1822 4138 1753 3809 
L 1691 3500 
L 2638 3500 
L 2553 3053 
L 1606 3053 
L 1013 0 
L 434 0 
L 1031 3053 
L 481 3053 
L 563 3500 
L 1113 3500 
L 1159 3744 
Q 1278 4363 1576 4613 
Q 1875 4863 2516 4863 
L 3059 4863 
z
" transform="scale(0.015625)"/>
      </defs>
      <use xlink:href="#DejaVuSans-46" transform="translate(0 0.015625)"/>
      <use xlink:href="#DejaVuSans-72" transform="translate(57.519531 0.015625)"/>
      <use xlink:href="#DejaVuSans-65" transform="translate(98.632812 0.015625)"/>
      <use xlink:href="#DejaVuSans-71" transform="translate(160.15625 0.015625)"/>
      <use xlink:href="#DejaVuSans-75" transform="translate(223.632812 0.015625)"/>
      <use xlink:href="#DejaVuSans-65" transform="translate(287.011719 0.015625)"/>
      <use xlink:href="#DejaVuSans-6e" transform="translate(348.535156 0.015625)"/>
      <use xlink:href="#DejaVuSans-63" transform="translate(411.914062 0.015625)"/>
      <use xlink:href="#DejaVuSans-79" transform="translate(466.894531 0.015625)"/>
      <use xlink:href="#DejaVuSans-20" transform="translate(526.074219 0.015625)"/>
      <use xlink:href="#DejaVuSans-28" transform="translate(557.861328 0.015625)"/>
      <use xlink:href="#DejaVuSans-48" transform="translate(596.875 0.015625)"/>
      <use xlink:href="#DejaVuSans-7a" transform="translate(672.070312 0.015625)"/>
      <use xlink:href="#DejaVuSans-29" transform="translate(724.560547 0.015625)"/>
      <use xlink:href="#DejaVuSans-2c" transform="translate(763.574219 0.015625)"/>
      <use xlink:href="#DejaVuSans-20" transform="translate(795.361328 0.015625)"/>
      <use xlink:href="#DejaVuSans-Oblique-66" transform="translate(827.148438 0.015625)"/>
     </g>
    </g>
   </g>
   <g id="matplotlib.axis_2">
    <g id="ytick_1">
     <g id="line2d_11">
      <path d="M 48.982813 232.341098 
L 568.8 232.341098 
" clip-path="url(#p5c0e204983)" style="fill: none; stroke-dasharray: 2.96,1.28; stroke-dashoffset: 0; stroke: #b0b0b0; stroke-opacity: 0.8; stroke-width: 0.8"/>
     </g>
     <g id="line2d_12">
      <defs>
       <path id="mc36829e37a" d="M 0 0 
L -3.5 0 
" style="stroke: #000000; stroke-width: 0.8"/>
      </defs>
      <g>
       <use xlink:href="#mc36829e37a" x="48.982813" y="232.341098" style="stroke: #000000; stroke-width: 0.8"/>
      </g>
     </g>
     <g id="text_7">
      <!-- −60 -->
      <g transform="translate(20.878125 236.140317) scale(0.1 -0.1)">
       <defs>
        <path id="DejaVuSans-2212" d="M 678 2272 
L 4684 2272 
L 4684 1741 
L 678 1741 
L 678 2272 
z
" transform="scale(0.015625)"/>
        <path id="DejaVuSans-36" d="M 2113 2584 
Q 1688 2584 1439 2293 
Q 1191 2003 1191 1497 
Q 1191 994 1439 701 
Q 1688 409 2113 409 
Q 2538 409 2786 701 
Q 3034 994 3034 1497 
Q 3034 2003 2786 2293 
Q 2538 2584 2113 2584 
z
M 3366 4563 
L 3366 3988 
Q 3128 4100 2886 4159 
Q 2644 4219 2406 4219 
Q 1781 4219 1451 3797 
Q 1122 3375 1075 2522 
Q 1259 2794 1537 2939 
Q 1816 3084 2150 3084 
Q 2853 3084 3261 2657 
Q 3669 2231 3669 1497 
Q 3669 778 3244 343 
Q 2819 -91 2113 -91 
Q 1303 -91 875 529 
Q 447 1150 447 2328 
Q 447 3434 972 4092 
Q 1497 4750 2381 4750 
Q 2619 4750 2861 4703 
Q 3103 4656 3366 4563 
z
" transform="scale(0.015625)"/>
       </defs>
       <use xlink:href="#DejaVuSans-2212"/>
       <use xlink:href="#DejaVuSans-36" transform="translate(83.789062 0)"/>
       <use xlink:href="#DejaVuSans-30" transform="translate(147.412109 0)"/>
      </g>
     </g>
    </g>
    <g id="ytick_2">
     <g id="line2d_13">
      <path d="M 48.982813 196.261063 
L 568.8 196.261063 
" clip-path="url(#p5c0e204983)" style="fill: none; stroke-dasharray: 2.96,1.28; stroke-dashoffset: 0; stroke: #b0b0b0; stroke-opacity: 0.8; stroke-width: 0.8"/>
     </g>
     <g id="line2d_14">
      <g>
       <use xlink:href="#mc36829e37a" x="48.982813" y="196.261063" style="stroke: #000000; stroke-width: 0.8"/>
      </g>
     </g>
     <g id="text_8">
      <!-- −50 -->
      <g transform="translate(20.878125 200.060282) scale(0.1 -0.1)">
       <defs>
        <path id="DejaVuSans-35" d="M 691 4666 
L 3169 4666 
L 3169 4134 
L 1269 4134 
L 1269 2991 
Q 1406 3038 1543 3061 
Q 1681 3084 1819 3084 
Q 2600 3084 3056 2656 
Q 3513 2228 3513 1497 
Q 3513 744 3044 326 
Q 2575 -91 1722 -91 
Q 1428 -91 1123 -41 
Q 819 9 494 109 
L 494 744 
Q 775 591 1075 516 
Q 1375 441 1709 441 
Q 2250 441 2565 725 
Q 2881 1009 2881 1497 
Q 2881 1984 2565 2268 
Q 2250 2553 1709 2553 
Q 1456 2553 1204 2497 
Q 953 2441 691 2322 
L 691 4666 
z
" transform="scale(0.015625)"/>
       </defs>
       <use xlink:href="#DejaVuSans-2212"/>
       <use xlink:href="#DejaVuSans-35" transform="translate(83.789062 0)"/>
       <use xlink:href="#DejaVuSans-30" transform="translate(147.412109 0)"/>
      </g>
     </g>
    </g>
    <g id="ytick_3">
     <g id="line2d_15">
      <path d="M 48.982813 160.181028 
L 568.8 160.181028 
" clip-path="url(#p5c0e204983)" style="fill: none; stroke-dasharray: 2.96,1.28; stroke-dashoffset: 0; stroke: #b0b0b0; stroke-opacity: 0.8; stroke-width: 0.8"/>
     </g>
     <g id="line2d_16">
      <g>
       <use xlink:href="#mc36829e37a" x="48.982813" y="160.181028" style="stroke: #000000; stroke-width: 0.8"/>
      </g>
     </g>
     <g id="text_9">
      <!-- −40 -->
      <g transform="translate(20.878125 163.980247) scale(0.1 -0.1)">
       <defs>
        <path id="DejaVuSans-34" d="M 2419 4116 
L 825 1625 
L 2419 1625 
L 2419 4116 
z
M 2253 4666 
L 3047 4666 
L 3047 1625 
L 3713 1625 
L 3713 1100 
L 3047 1100 
L 3047 0 
L 2419 0 
L 2419 1100 
L 313 1100 
L 313 1709 
L 2253 4666 
z
" transform="scale(0.015625)"/>
       </defs>
       <use xlink:href="#DejaVuSans-2212"/>
       <use xlink:href="#DejaVuSans-34" transform="translate(83.789062 0)"/>
       <use xlink:href="#DejaVuSans-30" transform="translate(147.412109 0)"/>
      </g>
     </g>
    </g>
    <g id="ytick_4">
     <g id="line2d_17">
      <path d="M 48.982813 124.100994 
L 568.8 124.100994 
" clip-path="url(#p5c0e204983)" style="fill: none; stroke-dasharray: 2.96,1.28; stroke-dashoffset: 0; stroke: #b0b0b0; stroke-opacity: 0.8; stroke-width: 0.8"/>
     </g>
     <g id="line2d_18">
      <g>
       <use xlink:href="#mc36829e37a" x="48.982813" y="124.100994" style="stroke: #000000; stroke-width: 0.8"/>
      </g>
     </g>
     <g id="text_10">
      <!-- −30 -->
      <g transform="translate(20.878125 127.900212) scale(0.1 -0.1)">
       <defs>
        <path id="DejaVuSans-33" d="M 2597 2516 
Q 3050 2419 3304 2112 
Q 3559 1806 3559 1356 
Q 3559 666 3084 287 
Q 2609 -91 1734 -91 
Q 1441 -91 1130 -33 
Q 819 25 488 141 
L 488 750 
Q 750 597 1062 519 
Q 1375 441 1716 441 
Q 2309 441 2620 675 
Q 2931 909 2931 1356 
Q 2931 1769 2642 2001 
Q 2353 2234 1838 2234 
L 1294 2234 
L 1294 2753 
L 1863 2753 
Q 2328 2753 2575 2939 
Q 2822 3125 2822 3475 
Q 2822 3834 2567 4026 
Q 2313 4219 1838 4219 
Q 1578 4219 1281 4162 
Q 984 4106 628 3988 
L 628 4550 
Q 988 4650 1302 4700 
Q 1616 4750 1894 4750 
Q 2613 4750 3031 4423 
Q 3450 4097 3450 3541 
Q 3450 3153 3228 2886 
Q 3006 2619 2597 2516 
z
" transform="scale(0.015625)"/>
       </defs>
       <use xlink:href="#DejaVuSans-2212"/>
       <use xlink:href="#DejaVuSans-33" transform="translate(83.789062 0)"/>
       <use xlink:href="#DejaVuSans-30" transform="translate(147.412109 0)"/>
      </g>
     </g>
    </g>
    <g id="ytick_5">
     <g id="line2d_19">
      <path d="M 48.982813 88.020959 
L 568.8 88.020959 
" clip-path="url(#p5c0e204983)" style="fill: none; stroke-dasharray: 2.96,1.28; stroke-dashoffset: 0; stroke: #b0b0b0; stroke-opacity: 0.8; stroke-width: 0.8"/>
     </g>
     <g id="line2d_20">
      <g>
       <use xlink:href="#mc36829e37a" x="48.982813" y="88.020959" style="stroke: #000000; stroke-width: 0.8"/>
      </g>
     </g>
     <g id="text_11">
      <!-- −20 -->
      <g transform="translate(20.878125 91.820178) scale(0.1 -0.1)">
       <use xlink:href="#DejaVuSans-2212"/>
       <use xlink:href="#DejaVuSans-32" transform="translate(83.789062 0)"/>
       <use xlink:href="#DejaVuSans-30" transform="translate(147.412109 0)"/>
      </g>
     </g>
    </g>
    <g id="ytick_6">
     <g id="line2d_21">
      <path d="M 48.982813 51.940924 
L 568.8 51.940924 
" clip-path="url(#p5c0e204983)" style="fill: none; stroke-dasharray: 2.96,1.28; stroke-dashoffset: 0; stroke: #b0b0b0; stroke-opacity: 0.8; stroke-width: 0.8"/>
     </g>
     <g id="line2d_22">
      <g>
       <use xlink:href="#mc36829e37a" x="48.982813" y="51.940924" style="stroke: #000000; stroke-width: 0.8"/>
      </g>
     </g>
     <g id="text_12">
      <!-- −10 -->
      <g transform="translate(20.878125 55.740143) scale(0.1 -0.1)">
       <use xlink:href="#DejaVuSans-2212"/>
       <use xlink:href="#DejaVuSans-31" transform="translate(83.789062 0)"/>
       <use xlink:href="#DejaVuSans-30" transform="translate(147.412109 0)"/>
      </g>
     </g>
    </g>
    <g id="text_13">
     <!-- Power density (dB/Hz) -->
     <g transform="translate(14.798437 191.570938) rotate(-90) scale(0.1 -0.1)">
      <defs>
       <path id="DejaVuSans-50" d="M 1259 4147 
L 1259 2394 
L 2053 2394 
Q 2494 2394 2734 2622 
Q 2975 2850 2975 3272 
Q 2975 3691 2734 3919 
Q 2494 4147 2053 4147 
L 1259 4147 
z
M 628 4666 
L 2053 4666 
Q 2838 4666 3239 4311 
Q 3641 3956 3641 3272 
Q 3641 2581 3239 2228 
Q 2838 1875 2053 1875 
L 1259 1875 
L 1259 0 
L 628 0 
L 628 4666 
z
" transform="scale(0.015625)"/>
       <path id="DejaVuSans-6f" d="M 1959 3097 
Q 1497 3097 1228 2736 
Q 959 2375 959 1747 
Q 959 1119 1226 758 
Q 1494 397 1959 397 
Q 2419 397 2687 759 
Q 2956 1122 2956 1747 
Q 2956 2369 2687 2733 
Q 2419 3097 1959 3097 
z
M 1959 3584 
Q 2709 3584 3137 3096 
Q 3566 2609 3566 1747 
Q 3566 888 3137 398 
Q 2709 -91 1959 -91 
Q 1206 -91 779 398 
Q 353 888 353 1747 
Q 353 2609 779 3096 
Q 1206 3584 1959 3584 
z
" transform="scale(0.015625)"/>
       <path id="DejaVuSans-77" d="M 269 3500 
L 844 3500 
L 1563 769 
L 2278 3500 
L 2956 3500 
L 3675 769 
L 4391 3500 
L 4966 3500 
L 4050 0 
L 3372 0 
L 2619 2869 
L 1863 0 
L 1184 0 
L 269 3500 
z
" transform="scale(0.015625)"/>
       <path id="DejaVuSans-64" d="M 2906 2969 
L 2906 4863 
L 3481 4863 
L 3481 0 
L 2906 0 
L 2906 525 
Q 2725 213 2448 61 
Q 2172 -91 1784 -91 
Q 1150 -91 751 415 
Q 353 922 353 1747 
Q 353 2572 751 3078 
Q 1150 3584 1784 3584 
Q 2172 3584 2448 3432 
Q 2725 3281 2906 2969 
z
M 947 1747 
Q 947 1113 1208 752 
Q 1469 391 1925 391 
Q 2381 391 2643 752 
Q 2906 1113 2906 1747 
Q 2906 2381 2643 2742 
Q 2381 3103 1925 3103 
Q 1469 3103 1208 2742 
Q 947 2381 947 1747 
z
" transform="scale(0.015625)"/>
       <path id="DejaVuSans-73" d="M 2834 3397 
L 2834 2853 
Q 2591 2978 2328 3040 
Q 2066 3103 1784 3103 
Q 1356 3103 1142 2972 
Q 928 2841 928 2578 
Q 928 2378 1081 2264 
Q 1234 2150 1697 2047 
L 1894 2003 
Q 2506 1872 2764 1633 
Q 3022 1394 3022 966 
Q 3022 478 2636 193 
Q 2250 -91 1575 -91 
Q 1294 -91 989 -36 
Q 684 19 347 128 
L 347 722 
Q 666 556 975 473 
Q 1284 391 1588 391 
Q 1994 391 2212 530 
Q 2431 669 2431 922 
Q 2431 1156 2273 1281 
Q 2116 1406 1581 1522 
L 1381 1569 
Q 847 1681 609 1914 
Q 372 2147 372 2553 
Q 372 3047 722 3315 
Q 1072 3584 1716 3584 
Q 2034 3584 2315 3537 
Q 2597 3491 2834 3397 
z
" transform="scale(0.015625)"/>
       <path id="DejaVuSans-69" d="M 603 3500 
L 1178 3500 
L 1178 0 
L 603 0 
L 603 3500 
z
M 603 4863 
L 1178 4863 
L 1178 4134 
L 603 4134 
L 603 4863 
z
" transform="scale(0.015625)"/>
       <path id="DejaVuSans-74" d="M 1172 4494 
L 1172 3500 
L 2356 3500 
L 2356 3053 
L 1172 3053 
L 1172 1153 
Q 1172 725 1289 603 
Q 1406 481 1766 481 
L 2356 481 
L 2356 0 
L 1766 0 
Q 1100 0 847 248 
Q 594 497 594 1153 
L 594 3053 
L 172 3053 
L 172 3500 
L 594 3500 
L 594 4494 
L 1172 4494 
z
" transform="scale(0.015625)"/>
       <path id="DejaVuSans-42" d="M 1259 2228 
L 1259 519 
L 2272 519 
Q 2781 519 3026 730 
Q 3272 941 3272 1375 
Q 3272 1813 3026 2020 
Q 2781 2228 2272 2228 
L 1259 2228 
z
M 1259 4147 
L 1259 2741 
L 2194 2741 
Q 2656 2741 2882 2914 
Q 3109 3088 3109 3444 
Q 3109 3797 2882 3972 
Q 2656 4147 2194 4147 
L 1259 4147 
z
M 628 4666 
L 2241 4666 
Q 2963 4666 3353 4366 
Q 3744 4066 3744 3513 
Q 3744 3084 3544 2831 
Q 3344 2578 2956 2516 
Q 3422 2416 3680 2098 
Q 3938 1781 3938 1306 
Q 3938 681 3513 340 
Q 3088 0 2303 0 
L 628 0 
L 628 4666 
z
" transform="scale(0.015625)"/>
       <path id="DejaVuSans-2f" d="M 1625 4666 
L 2156 4666 
L 531 -594 
L 0 -594 
L 1625 4666 
z
" transform="scale(0.015625)"/>
      </defs>
      <use xlink:href="#DejaVuSans-50"/>
      <use xlink:href="#DejaVuSans-6f" transform="translate(56.677734 0)"/>
      <use xlink:href="#DejaVuSans-77" transform="translate(117.859375 0)"/>
      <use xlink:href="#DejaVuSans-65" transform="translate(199.646484 0)"/>
      <use xlink:href="#DejaVuSans-72" transform="translate(261.169922 0)"/>
      <use xlink:href="#DejaVuSans-20" transform="translate(302.283203 0)"/>
      <use xlink:href="#DejaVuSans-64" transform="translate(334.070312 0)"/>
      <use xlink:href="#DejaVuSans-65" transform="translate(397.546875 0)"/>
      <use xlink:href="#DejaVuSans-6e" transform="translate(459.070312 0)"/>
      <use xlink:href="#DejaVuSans-73" transform="translate(522.449219 0)"/>
      <use xlink:href="#DejaVuSans-69" transform="translate(574.548828 0)"/>
      <use xlink:href="#DejaVuSans-74" transform="translate(602.332031 0)"/>
      <use xlink:href="#DejaVuSans-79" transform="translate(641.541016 0)"/>
      <use xlink:href="#DejaVuSans-20" transform="translate(700.720703 0)"/>
      <use xlink:href="#DejaVuSans-28" transform="translate(732.507812 0)"/>
      <use xlink:href="#DejaVuSans-64" transform="translate(771.521484 0)"/>
      <use xlink:href="#DejaVuSans-42" transform="translate(834.998047 0)"/>
      <use xlink:href="#DejaVuSans-2f" transform="translate(903.601562 0)"/>
      <use xlink:href="#DejaVuSans-48" transform="translate(937.292969 0)"/>
      <use xlink:href="#DejaVuSans-7a" transform="translate(1012.488281 0)"/>
      <use xlink:href="#DejaVuSans-29" transform="translate(1064.978516 0)"/>
     </g>
    </g>
   </g>
   <g id="line2d_23">
    <path d="M 72.610866 216.091647 
L 73.303433 219.345683 
L 73.995999 221.226956 
L 74.45771 221.838421 
L 74.688565 221.763149 
L 74.919421 221.278097 
L 75.381132 218.906076 
L 76.766264 209.163244 
L 77.227975 207.895911 
L 77.458831 207.739277 
L 77.689686 207.863936 
L 78.151397 208.789677 
L 79.767385 213.607232 
L 80.229096 214.123151 
L 81.152518 214.730801 
L 81.614229 215.580549 
L 82.075939 217.036453 
L 82.999361 220.270194 
L 83.230217 220.441671 
L 83.461072 220.066516 
L 83.691927 219.094293 
L 84.153638 215.696405 
L 85.07706 207.921108 
L 85.538771 205.603863 
L 85.769626 205.045235 
L 86.000482 204.914789 
L 86.231337 205.221846 
L 86.462193 205.969107 
L 86.923904 208.763759 
L 87.385614 213.167614 
L 88.770747 228.933356 
L 89.001603 230.089628 
L 89.232458 230.587125 
L 89.463313 230.614586 
L 90.15588 230.112571 
L 90.386735 230.250857 
L 90.617591 230.635929 
L 91.079301 232.030651 
L 92.002723 235.320835 
L 93.849567 240.053608 
L 94.080422 240.038497 
L 94.311278 239.508955 
L 94.772988 236.875966 
L 96.850687 220.367806 
L 98.23582 213.331431 
L 99.159242 209.465548 
L 99.620953 208.262395 
L 100.082663 207.635902 
L 100.544374 207.442728 
L 101.698652 207.482367 
L 102.160362 207.603942 
L 102.622073 208.087585 
L 103.083784 209.224852 
L 103.545495 211.235876 
L 104.238061 215.98914 
L 105.392339 225.092366 
L 105.623194 226.039602 
L 105.854049 226.428448 
L 106.084905 226.254136 
L 106.31576 225.58495 
L 106.777471 223.246869 
L 107.700893 217.996306 
L 108.162604 216.466476 
L 108.393459 216.151874 
L 108.624315 216.171024 
L 108.85517 216.534994 
L 109.316881 218.272883 
L 110.702014 225.793897 
L 110.932869 225.59175 
L 111.163724 224.67704 
L 111.856291 219.634885 
L 112.548857 215.214707 
L 113.010568 213.758388 
L 113.241423 213.494816 
L 113.472279 213.50431 
L 113.703134 213.743574 
L 114.164845 214.697704 
L 115.549978 218.505322 
L 116.242544 221.263554 
L 116.93511 224.294247 
L 117.165966 224.704409 
L 117.396821 224.512057 
L 117.627677 223.67911 
L 118.320243 218.977841 
L 118.781954 216.155285 
L 119.243665 214.69725 
L 119.47452 214.507401 
L 119.705376 214.606721 
L 120.628797 215.586929 
L 120.859653 215.390721 
L 121.321364 214.302696 
L 122.01393 212.4128 
L 122.475641 211.899343 
L 122.706496 211.899551 
L 123.399063 212.355387 
L 124.322484 212.905084 
L 124.784195 213.694991 
L 125.245906 215.241027 
L 125.938472 217.812737 
L 126.169328 218.070083 
L 126.400183 217.767654 
L 126.861894 215.626976 
L 127.785316 210.267617 
L 128.016171 209.581154 
L 128.247027 209.292137 
L 128.477882 209.41906 
L 128.708738 209.965154 
L 129.170449 212.266279 
L 129.863015 218.118816 
L 130.555581 224.129117 
L 130.786437 225.282739 
L 131.017292 225.783157 
L 131.248147 225.676642 
L 131.709858 224.336526 
L 132.402425 222.184303 
L 132.63328 221.840847 
L 132.864136 221.738679 
L 133.094991 221.875551 
L 133.325846 222.238168 
L 133.787557 223.563682 
L 134.480124 226.743514 
L 135.865256 234.230578 
L 136.326967 235.318403 
L 136.557823 235.369847 
L 136.788678 235.119919 
L 137.250389 233.956301 
L 138.404666 229.691983 
L 139.328088 225.519498 
L 141.174931 215.502195 
L 141.636642 214.374361 
L 141.867498 214.121606 
L 142.329208 214.057035 
L 142.790919 214.119028 
L 143.021775 213.995291 
L 143.25263 213.686899 
L 143.714341 212.499495 
L 144.637763 209.576802 
L 144.868618 209.173276 
L 145.099474 208.997923 
L 145.330329 209.064236 
L 145.561185 209.366762 
L 146.022895 210.572726 
L 147.408028 215.250457 
L 148.100594 216.514529 
L 149.024016 217.653814 
L 149.254872 217.754156 
L 149.485727 217.702007 
L 149.716582 217.477047 
L 150.178293 216.591859 
L 150.87086 215.192013 
L 151.101715 215.026072 
L 151.33257 215.110619 
L 151.563426 215.472962 
L 152.025137 217.002322 
L 153.179414 221.908407 
L 153.410269 222.202104 
L 153.641125 222.18751 
L 154.564547 221.417115 
L 154.795402 221.637389 
L 155.026257 222.163117 
L 155.487968 224.111533 
L 156.180535 227.808947 
L 156.41139 228.479093 
L 156.642246 228.556989 
L 156.873101 228.029246 
L 157.334812 225.754193 
L 158.258234 220.811784 
L 158.9508 218.506487 
L 159.643366 217.233364 
L 160.335933 216.105114 
L 160.566788 216.026961 
L 160.797643 216.402266 
L 161.259354 218.770611 
L 161.49021 219.969963 
L 161.721065 219.660107 
L 161.951921 216.883894 
L 162.644487 204.52927 
L 162.875342 203.566842 
L 163.106198 205.962771 
L 163.567909 224.244834 
L 163.798764 210.116559 
L 164.260475 170.718179 
L 164.722186 147.125801 
L 165.414752 124.994176 
L 165.876463 115.595193 
L 166.338174 109.407454 
L 166.799885 106.022753 
L 167.03074 105.315936 
L 167.261596 105.251117 
L 167.492451 105.827654 
L 167.723307 107.053214 
L 168.185017 111.527652 
L 168.646728 118.942639 
L 169.108439 129.838308 
L 169.57015 145.307555 
L 170.031861 167.88151 
L 170.724427 219.656614 
L 171.186138 205.982289 
L 171.416994 203.515673 
L 171.647849 204.550017 
L 171.878704 208.178117 
L 172.571271 223.00875 
L 172.802126 222.883601 
L 173.725548 213.333231 
L 174.187259 211.380038 
L 174.879825 209.569268 
L 175.341536 208.709214 
L 175.803247 208.19116 
L 176.957524 207.45846 
L 177.419235 207.304579 
L 177.65009 207.370984 
L 177.880946 207.6096 
L 178.111801 208.082268 
L 178.573512 209.921409 
L 179.266078 214.756545 
L 179.727789 217.877516 
L 179.958645 218.743137 
L 180.1895 218.98301 
L 180.420356 218.687073 
L 181.343777 216.537172 
L 181.574633 216.552316 
L 181.805488 216.887276 
L 182.267199 218.349917 
L 183.421476 222.836559 
L 184.114043 224.215022 
L 184.575753 225.191924 
L 185.499175 227.538051 
L 185.730031 227.572888 
L 185.960886 227.086582 
L 186.422597 224.522615 
L 187.576874 215.709945 
L 188.038585 213.620714 
L 188.500296 212.607224 
L 188.731151 212.436822 
L 188.962007 212.441879 
L 189.423718 212.833184 
L 189.885428 213.554538 
L 190.577995 215.167004 
L 191.039706 216.819534 
L 191.501417 219.220875 
L 192.193983 224.458909 
L 192.886549 230.011655 
L 193.117405 231.046938 
L 193.34826 231.337299 
L 193.579115 230.873394 
L 194.040826 228.386801 
L 195.425959 219.633927 
L 196.349381 215.05827 
L 196.811092 213.904776 
L 197.041947 213.830933 
L 197.272802 214.154113 
L 197.503658 214.900782 
L 197.965369 217.665767 
L 199.350501 229.244572 
L 199.581357 229.780051 
L 199.812212 229.757493 
L 200.735634 228.21006 
L 200.966489 228.184436 
L 201.197345 228.387684 
L 201.659056 229.278728 
L 202.120767 230.168532 
L 202.351622 230.314479 
L 202.582478 230.131514 
L 202.813333 229.584474 
L 203.275044 227.553961 
L 204.891032 218.811685 
L 205.583598 216.475944 
L 206.045309 215.506971 
L 206.50702 215.024322 
L 206.968731 215.016783 
L 207.430442 215.435838 
L 208.123008 216.662884 
L 209.04643 218.42332 
L 209.508141 218.7169 
L 209.738996 218.643336 
L 210.200707 218.18597 
L 210.662418 217.690176 
L 210.893273 217.576996 
L 211.124129 217.614721 
L 211.354984 217.830263 
L 211.816695 218.82259 
L 212.509261 221.431967 
L 213.201828 224.201964 
L 213.663538 225.139715 
L 213.894394 225.142672 
L 214.125249 224.822756 
L 214.58696 223.43803 
L 215.510382 220.176482 
L 215.972093 219.300392 
L 216.433804 219.011743 
L 218.049792 219.096408 
L 218.511503 219.375548 
L 218.973214 220.290016 
L 219.434924 222.069235 
L 220.820057 229.420863 
L 221.050912 229.576554 
L 221.281768 229.071317 
L 221.743479 226.349034 
L 223.359467 213.68912 
L 223.821178 211.796975 
L 224.052033 211.288032 
L 224.282889 211.086181 
L 224.513744 211.198674 
L 224.744599 211.629484 
L 225.20631 213.447823 
L 225.668021 216.522315 
L 226.360588 223.30629 
L 227.053154 231.014395 
L 227.284009 232.599928 
L 227.514865 232.933511 
L 227.74572 231.797461 
L 228.207431 226.319703 
L 229.130853 214.633001 
L 229.592564 211.388346 
L 229.823419 210.533552 
L 230.054275 210.180105 
L 230.28513 210.309801 
L 230.515985 210.894551 
L 230.977696 213.235084 
L 232.131973 220.422299 
L 232.362829 220.810464 
L 232.593684 220.721845 
L 233.055395 219.738001 
L 233.517106 218.791565 
L 233.747962 218.59405 
L 233.978817 218.618309 
L 234.440528 219.203909 
L 235.133094 220.380328 
L 235.594805 220.663186 
L 236.056516 220.55823 
L 236.518227 220.418126 
L 236.979938 220.487302 
L 237.441648 220.847413 
L 237.903359 221.636388 
L 238.36507 223.156119 
L 239.057637 226.964182 
L 239.519347 228.867355 
L 239.750203 228.679629 
L 239.981058 227.46622 
L 240.442769 222.824331 
L 241.135335 215.547116 
L 241.597046 212.635909 
L 241.827902 211.871742 
L 242.058757 211.537141 
L 242.289613 211.587579 
L 242.520468 211.965749 
L 242.982179 213.419604 
L 243.905601 216.760531 
L 244.367312 217.52181 
L 244.598167 217.591578 
L 245.059878 217.271071 
L 245.752444 216.464724 
L 245.9833 216.325514 
L 246.214155 216.320435 
L 246.445011 216.474536 
L 246.906721 217.292319 
L 247.599288 219.505202 
L 248.291854 221.73018 
L 248.753565 222.628095 
L 249.676987 223.993345 
L 250.138698 225.469309 
L 250.831264 229.055055 
L 251.292975 231.426911 
L 251.52383 232.176211 
L 251.754686 232.479422 
L 251.985541 232.32483 
L 252.447252 231.034533 
L 254.06324 224.954047 
L 254.524951 221.437765 
L 256.140939 206.718365 
L 256.60265 204.627361 
L 257.064361 203.545794 
L 257.526072 203.050253 
L 258.218638 202.412732 
L 259.14206 201.287602 
L 259.372915 201.206943 
L 259.60377 201.311878 
L 259.834626 201.644891 
L 260.296337 203.109726 
L 260.758048 205.693173 
L 262.374036 216.818037 
L 262.835747 217.66915 
L 263.297457 218.038701 
L 263.759168 218.843127 
L 264.451735 221.171528 
L 264.913446 222.651223 
L 265.375156 223.307675 
L 265.606012 223.295357 
L 266.067723 222.862418 
L 266.760289 222.178459 
L 266.991144 222.132502 
L 267.222 222.230115 
L 267.452855 222.491219 
L 267.914566 223.504499 
L 268.607132 225.384355 
L 268.837988 225.585035 
L 269.068843 225.321822 
L 269.299699 224.545957 
L 269.76141 221.837263 
L 270.453976 217.544828 
L 270.915687 216.029691 
L 271.146542 215.819539 
L 271.377398 215.96983 
L 271.608253 216.452222 
L 272.069964 218.212031 
L 272.993386 222.565516 
L 273.455097 223.581167 
L 273.685952 223.597783 
L 273.916808 223.32087 
L 274.378518 222.16382 
L 276.225362 216.619957 
L 276.917928 215.237952 
L 278.764772 212.406257 
L 279.457338 210.972864 
L 279.919049 210.45063 
L 280.149904 210.422569 
L 280.38076 210.568374 
L 280.842471 211.340664 
L 281.765892 213.895079 
L 283.151025 217.689967 
L 283.612736 218.350409 
L 283.843591 218.373115 
L 284.074447 218.185967 
L 284.767013 216.937523 
L 285.228724 216.261025 
L 285.459579 216.118848 
L 285.690435 216.119834 
L 286.152146 216.442038 
L 286.613857 216.823884 
L 286.844712 216.885332 
L 287.075567 216.816924 
L 288.229845 215.904149 
L 288.4607 216.046313 
L 288.691556 216.414616 
L 289.153266 217.974857 
L 289.614977 220.8153 
L 290.538399 227.728531 
L 290.769254 228.145805 
L 291.00011 227.696815 
L 291.923532 223.663338 
L 292.154387 223.23996 
L 292.385243 223.085331 
L 292.616098 223.127383 
L 292.846953 223.337181 
L 293.077809 223.749868 
L 293.53952 225.407185 
L 294.001231 227.535072 
L 294.232086 227.882894 
L 294.462941 227.273626 
L 295.386363 221.591665 
L 296.078929 220.269349 
L 296.309785 219.066872 
L 297.233207 212.38977 
L 297.464062 211.851333 
L 297.925773 211.237181 
L 298.387484 209.040353 
L 298.618339 207.853658 
L 298.849195 207.449521 
L 299.08005 208.341991 
L 299.772616 215.697672 
L 300.003472 213.40832 
L 300.465183 203.11394 
L 300.696038 200.195626 
L 300.926894 200.241631 
L 301.157749 204.071243 
L 301.61946 225.265255 
L 301.850315 218.801376 
L 302.312026 191.22458 
L 302.542882 185.410585 
L 302.773737 184.426597 
L 303.004593 189.297975 
L 303.466303 219.318017 
L 303.928014 166.799579 
L 304.389725 147.514158 
L 304.620581 144.655006 
L 304.851436 147.011815 
L 305.082292 158.941884 
L 305.313147 211.992074 
L 305.544002 148.460626 
L 306.005713 102.04456 
L 306.467424 77.493889 
L 307.15999 54.438479 
L 307.852557 40.798926 
L 308.314268 35.558671 
L 308.775979 33.004631 
L 309.006834 32.688267 
L 309.237689 33.004475 
L 309.468545 33.957015 
L 309.930256 37.82654 
L 310.391967 44.505164 
L 310.853677 54.417554 
L 311.315388 68.396648 
L 311.777099 88.27953 
L 312.23881 119.676418 
L 312.469666 147.298609 
L 312.700521 235.594302 
L 312.931376 161.431839 
L 313.162232 148.616097 
L 313.393087 146.089181 
L 313.623943 149.00931 
L 313.854798 156.437442 
L 314.085654 169.090855 
L 314.547364 217.457917 
L 315.009075 186.353396 
L 315.239931 182.376592 
L 315.470786 183.741821 
L 315.701642 189.648751 
L 316.394208 220.854797 
L 316.855919 202.370364 
L 317.086774 198.813034 
L 317.31763 198.879023 
L 317.548485 201.905869 
L 318.241051 217.916053 
L 318.471907 217.890334 
L 318.933618 213.75472 
L 319.164473 213.532002 
L 319.395329 214.806723 
L 319.85704 218.615618 
L 320.087895 219.043732 
L 320.780461 216.452761 
L 321.011317 216.7563 
L 321.473028 219.640364 
L 321.934738 222.275751 
L 322.165594 222.573926 
L 322.396449 222.520383 
L 322.627305 222.612238 
L 322.85816 223.156182 
L 323.550726 226.214023 
L 323.781582 226.434313 
L 324.012437 225.935057 
L 326.090136 217.646964 
L 326.320992 217.149845 
L 326.551847 217.076253 
L 326.782703 217.461351 
L 327.244413 219.41635 
L 328.167835 224.30047 
L 328.398691 224.903041 
L 328.629546 225.149125 
L 328.860402 225.102483 
L 329.552968 224.46968 
L 329.783823 224.5276 
L 330.014679 224.850208 
L 330.47639 226.158616 
L 330.9381 227.449933 
L 331.168956 227.655761 
L 331.399811 227.458608 
L 331.861522 226.234933 
L 332.323233 225.039602 
L 332.554089 224.785882 
L 332.784944 224.831593 
L 333.015799 225.162699 
L 333.939221 227.402518 
L 334.170077 227.44742 
L 334.400932 227.062857 
L 334.862643 225.196368 
L 336.709486 215.764091 
L 337.171197 214.684413 
L 337.402053 214.524472 
L 337.632908 214.588239 
L 338.325474 215.162208 
L 338.55633 215.052546 
L 338.787185 214.639552 
L 339.248896 213.035809 
L 339.941463 210.442773 
L 340.172318 209.999436 
L 340.403173 209.889822 
L 340.634029 210.140941 
L 341.09574 211.658245 
L 342.480872 218.131096 
L 343.866005 222.564989 
L 344.09686 222.790479 
L 344.327716 222.843827 
L 344.558571 222.774969 
L 344.789427 222.559694 
L 345.020282 222.097341 
L 345.481993 220.228614 
L 345.943704 218.350399 
L 346.174559 218.219011 
L 346.405415 218.878549 
L 346.867126 221.303415 
L 347.097981 221.200425 
L 347.328837 219.177269 
L 347.790547 212.949473 
L 348.021403 211.225 
L 348.252258 211.446805 
L 348.483114 214.043364 
L 348.944825 225.093451 
L 349.17568 226.033571 
L 349.868246 208.287912 
L 350.099102 208.483478 
L 350.329957 214.050567 
L 350.560813 223.715894 
L 350.791668 215.547659 
L 351.253379 181.349821 
L 351.71509 165.896472 
L 351.945945 164.121331 
L 352.176801 167.589981 
L 352.407656 181.398116 
L 352.638512 219.962634 
L 352.869367 164.280269 
L 353.331078 121.041634 
L 353.792789 97.355153 
L 354.485355 75.004153 
L 354.947066 65.414726 
L 355.408777 59.019293 
L 355.870488 55.410258 
L 356.101343 54.583045 
L 356.332199 54.390397 
L 356.563054 54.829554 
L 356.793909 55.905373 
L 357.25562 60.026929 
L 357.717331 66.973379 
L 358.179042 77.183215 
L 358.640753 91.513324 
L 359.102464 111.856361 
L 359.564175 144.035059 
L 359.79503 172.520014 
L 360.025886 228.266927 
L 360.256741 183.231609 
L 360.487596 171.95747 
L 360.718452 170.15515 
L 360.949307 173.639895 
L 361.180163 181.537067 
L 361.872729 220.675435 
L 362.33444 205.742944 
L 362.565295 204.284455 
L 362.796151 206.694293 
L 363.257862 216.330547 
L 363.488717 216.293634 
L 364.181283 204.741221 
L 364.412139 204.099661 
L 364.642994 205.453325 
L 365.104705 213.027836 
L 365.566416 222.133783 
L 365.797271 224.116449 
L 366.028127 224.058426 
L 367.87497 216.357135 
L 368.105826 216.396103 
L 368.336681 217.196881 
L 368.798392 220.883583 
L 369.490958 227.336217 
L 369.721814 228.051774 
L 369.952669 227.75955 
L 370.41438 225.223315 
L 371.106947 220.640747 
L 371.568657 218.86027 
L 371.799513 218.596793 
L 372.030368 218.809996 
L 372.261224 219.525042 
L 372.722935 222.516049 
L 373.184645 227.557504 
L 373.877212 236.186654 
L 374.108067 237.016835 
L 374.338923 235.733019 
L 374.800634 228.954761 
L 375.4932 218.861791 
L 375.954911 214.888359 
L 376.416622 213.098882 
L 376.647477 212.933592 
L 376.878332 213.204101 
L 377.340043 214.860531 
L 378.725176 221.767322 
L 378.956031 222.076565 
L 379.879453 222.431804 
L 380.110309 222.921913 
L 380.572019 224.786692 
L 381.495441 229.967742 
L 381.726297 230.630297 
L 381.957152 230.775317 
L 382.188007 230.447201 
L 382.649718 228.957227 
L 383.803996 225.018808 
L 384.727417 222.091546 
L 385.189128 221.364527 
L 385.419984 221.411165 
L 385.650839 221.778452 
L 386.11255 223.428132 
L 386.805116 226.790053 
L 387.035972 227.433225 
L 387.266827 227.528248 
L 387.497683 227.030434 
L 387.959393 224.735881 
L 388.65196 220.848603 
L 389.113671 219.331295 
L 389.344526 219.00489 
L 389.575381 218.963915 
L 389.806237 219.194459 
L 390.267948 220.382531 
L 391.422225 225.006039 
L 391.65308 225.279655 
L 391.883936 224.982277 
L 392.114791 224.064986 
L 392.576502 220.720923 
L 393.730779 210.894027 
L 394.19249 208.303616 
L 394.654201 206.687435 
L 395.115912 205.924013 
L 395.346767 205.814324 
L 395.577623 205.865359 
L 395.808478 206.069241 
L 396.270189 206.946028 
L 396.7319 208.547945 
L 397.193611 211.061867 
L 397.886177 216.787946 
L 398.809599 225.672417 
L 399.040454 226.985235 
L 399.27131 227.57491 
L 399.502165 227.462209 
L 399.963876 225.833939 
L 400.887298 221.863375 
L 401.579864 220.075404 
L 402.272431 219.010758 
L 402.734141 218.759912 
L 402.964997 218.864957 
L 403.195852 219.175134 
L 403.657563 220.520362 
L 404.350129 224.143047 
L 404.81184 226.44283 
L 405.042696 226.972237 
L 405.273551 226.86915 
L 405.504407 226.134294 
L 406.889539 219.077466 
L 407.120395 218.892618 
L 407.35125 219.158356 
L 407.582106 219.880896 
L 408.043816 222.654814 
L 408.736383 229.464526 
L 409.428949 236.109435 
L 409.659805 237.151197 
L 409.89066 237.344227 
L 410.121515 236.794196 
L 410.814082 233.136132 
L 411.275793 230.936411 
L 411.737503 229.595362 
L 412.199214 228.957285 
L 412.660925 228.476041 
L 413.122636 227.449622 
L 413.584347 225.526176 
L 414.738624 220.047664 
L 415.200335 219.196128 
L 415.43119 219.150648 
L 415.662046 219.310932 
L 416.816323 220.797837 
L 417.278034 220.875869 
L 417.739745 220.914277 
L 418.201456 221.309747 
L 418.663167 222.187461 
L 419.817444 224.843622 
L 420.048299 225.040716 
L 420.279155 224.998883 
L 420.51001 224.677853 
L 420.971721 223.17077 
L 422.587709 215.467033 
L 423.04942 214.503003 
L 423.511131 214.107637 
L 423.972842 214.054824 
L 424.434552 214.301296 
L 424.896263 215.055148 
L 425.357974 216.612777 
L 425.819685 219.09449 
L 426.743107 224.855913 
L 426.973962 225.608275 
L 427.204818 225.788924 
L 427.435673 225.385292 
L 427.897384 223.283216 
L 428.820806 218.446566 
L 429.051661 217.786808 
L 429.282517 217.472395 
L 429.513372 217.53387 
L 429.744228 217.985712 
L 430.205938 220.008402 
L 431.12936 225.842663 
L 431.360216 226.56427 
L 431.591071 226.671862 
L 431.821926 226.242706 
L 432.514493 224.020117 
L 432.745348 223.673112 
L 432.976204 223.712562 
L 433.207059 224.144544 
L 434.130481 227.362712 
L 434.361336 227.42992 
L 434.592192 226.858658 
L 435.053903 224.289583 
L 435.746469 220.302133 
L 436.20818 219.175381 
L 436.439035 219.132948 
L 436.669891 219.366687 
L 437.593312 220.999583 
L 437.824168 221.057867 
L 438.055023 220.872388 
L 438.516734 219.937698 
L 439.2093 218.236192 
L 439.671011 217.620475 
L 439.901867 217.586725 
L 440.132722 217.775844 
L 440.363578 218.217141 
L 440.825288 219.970809 
L 441.286999 223.03397 
L 441.979566 229.936549 
L 442.672132 237.095869 
L 442.902987 238.566432 
L 443.133843 239.304697 
L 443.364698 239.333243 
L 443.595554 238.775538 
L 444.057265 236.42733 
L 444.749831 230.78563 
L 446.134964 217.919728 
L 446.82753 214.006833 
L 447.289241 212.523614 
L 447.750952 211.843458 
L 447.981807 211.806093 
L 448.212662 211.987873 
L 448.443518 212.409982 
L 448.905229 214.070999 
L 449.36694 216.941543 
L 450.059506 223.250333 
L 450.521217 227.497358 
L 450.752072 228.891721 
L 450.982928 229.424787 
L 451.213783 228.995247 
L 451.675494 225.906183 
L 452.598916 218.097512 
L 453.060627 215.615326 
L 453.522338 214.431744 
L 453.753193 214.316954 
L 453.984048 214.503614 
L 454.214904 214.975022 
L 454.676615 216.68838 
L 455.369181 220.706418 
L 456.061747 224.932563 
L 456.523458 226.392318 
L 456.754314 226.400356 
L 456.985169 225.900262 
L 457.44688 223.652503 
L 459.524579 210.257919 
L 459.98629 209.071341 
L 460.217145 208.848585 
L 460.448001 208.859068 
L 460.678856 209.08057 
L 461.140567 210.034444 
L 461.833133 212.264144 
L 462.756555 216.043497 
L 463.679977 220.072848 
L 464.141688 221.150926 
L 464.372543 221.226884 
L 464.603399 220.995495 
L 465.065109 219.909962 
L 465.757676 218.296675 
L 465.988531 218.100491 
L 466.219387 218.140359 
L 466.450242 218.408911 
L 467.604519 220.550415 
L 467.835375 220.356853 
L 468.297086 219.031862 
L 468.989652 216.5309 
L 469.220507 216.083324 
L 469.451363 215.968735 
L 469.682218 216.222764 
L 469.913074 216.852376 
L 470.374784 219.123684 
L 471.529062 225.965999 
L 471.759917 226.380478 
L 471.990772 226.287765 
L 472.221628 225.745723 
L 472.683339 223.716501 
L 474.299327 214.935585 
L 474.761038 213.49302 
L 475.222749 212.789857 
L 475.453604 212.691829 
L 475.684459 212.740629 
L 476.14617 213.220051 
L 476.607881 214.175254 
L 477.069592 215.66583 
L 477.762158 219.045751 
L 478.68558 224.231013 
L 479.147291 225.439197 
L 479.378146 225.450294 
L 479.609002 225.12837 
L 480.532424 223.010688 
L 480.763279 222.853981 
L 480.994135 223.003768 
L 481.22499 223.502632 
L 481.686701 225.633678 
L 482.148412 229.199499 
L 482.840978 235.356136 
L 483.071833 236.541093 
L 483.302689 236.734629 
L 483.533544 235.847908 
L 483.995255 231.786477 
L 484.918677 223.01613 
L 485.380388 220.55891 
L 485.611243 219.897078 
L 485.842099 219.573597 
L 486.072954 219.526748 
L 486.76552 219.945078 
L 486.996376 219.775885 
L 487.227231 219.223751 
L 487.688942 216.874962 
L 489.30493 206.036109 
L 489.766641 204.488824 
L 490.228352 203.804051 
L 490.459207 203.761156 
L 490.690063 203.899853 
L 491.151774 204.649392 
L 491.84434 206.617218 
L 492.767762 210.031256 
L 494.845461 218.422972 
L 495.307172 219.250409 
L 495.999738 219.921098 
L 497.615726 221.202525 
L 498.539148 221.649461 
L 499.000859 222.173835 
L 499.693425 223.102217 
L 499.92428 223.139175 
L 500.155136 222.841362 
L 500.385991 222.110041 
L 500.847702 219.305701 
L 502.001979 210.104841 
L 502.46369 208.152974 
L 502.694546 207.803338 
L 502.925401 207.893516 
L 503.156256 208.418719 
L 503.617967 210.642329 
L 504.772245 217.688693 
L 505.0031 218.054684 
L 505.233955 217.965922 
L 506.157377 216.492856 
L 506.388233 216.52614 
L 506.619088 216.818913 
L 507.080799 218.041096 
L 508.004221 220.806074 
L 508.235076 221.078681 
L 508.465932 221.100889 
L 508.696787 220.889771 
L 509.158498 219.961039 
L 509.851064 218.302961 
L 510.312775 217.792351 
L 510.54363 217.873287 
L 510.774486 218.220412 
L 511.236197 219.724664 
L 512.390474 224.960296 
L 512.621329 225.176119 
L 512.852185 224.897065 
L 513.313896 223.25262 
L 514.006462 220.409548 
L 514.468173 219.516794 
L 514.699028 219.499501 
L 514.929884 219.780915 
L 515.391595 221.240003 
L 515.853306 223.881525 
L 516.545872 229.824159 
L 517.238438 235.786063 
L 517.469294 236.615119 
L 517.700149 236.460422 
L 517.931004 235.387454 
L 519.316137 225.275406 
L 519.777848 223.737216 
L 520.470414 222.506106 
L 521.624691 220.613664 
L 521.855547 220.459567 
L 522.086402 220.499006 
L 522.317258 220.764862 
L 522.778969 222.005725 
L 523.933246 226.651759 
L 524.164101 226.905874 
L 524.394957 226.683579 
L 524.856668 224.996231 
L 525.780089 220.467605 
L 526.2418 219.349991 
L 526.472656 219.228028 
L 526.703511 219.398597 
L 526.934366 219.847922 
L 527.396077 221.490951 
L 528.088644 225.340228 
L 529.012065 230.742259 
L 529.242921 231.451288 
L 529.473776 231.642111 
L 529.704632 231.258565 
L 530.166343 229.016561 
L 531.32062 221.577066 
L 531.782331 219.761218 
L 532.244042 218.675541 
L 532.936608 217.762821 
L 533.398319 217.365178 
L 533.629174 217.269511 
L 533.86003 217.299093 
L 534.090885 217.500723 
L 534.552596 218.539976 
L 535.476018 221.900837 
L 535.706873 222.16102 
L 535.937729 221.854111 
L 536.399439 219.684967 
L 537.092006 215.480315 
L 537.553717 214.00965 
L 537.784572 213.866241 
L 538.015427 214.09631 
L 538.477138 215.388796 
L 539.169705 217.617866 
L 539.631416 218.181029 
L 540.093126 218.386851 
L 540.323982 218.708592 
L 540.554837 219.352643 
L 541.016548 221.874476 
L 541.709114 227.361134 
L 541.93997 228.245866 
L 542.170825 227.861207 
L 542.401681 226.176068 
L 543.555958 213.814864 
L 544.017669 211.826716 
L 544.248524 211.63796 
L 544.47938 211.924408 
L 544.941091 213.615756 
L 545.171946 214.816073 
L 545.171946 214.816073 
" clip-path="url(#p5c0e204983)" style="fill: none; stroke: #1f77b4; stroke-linecap: square"/>
   </g>
   <g id="patch_3">
    <path d="M 48.982813 250.421875 
L 48.982813 22.32 
" style="fill: none; stroke: #000000; stroke-width: 0.8; stroke-linejoin: miter; stroke-linecap: square"/>
   </g>
   <g id="patch_4">
    <path d="M 568.8 250.421875 
L 568.8 22.32 
" style="fill: none; stroke: #000000; stroke-width: 0.8; stroke-linejoin: miter; stroke-linecap: square"/>
   </g>
   <g id="patch_5">
    <path d="M 48.982813 250.421875 
L 568.8 250.421875 
" style="fill: none; stroke: #000000; stroke-width: 0.8; stroke-linejoin: miter; stroke-linecap: square"/>
   </g>
   <g id="patch_6">
    <path d="M 48.982813 22.32 
L 568.8 22.32 
" style="fill: none; stroke: #000000; stroke-width: 0.8; stroke-linejoin: miter; stroke-linecap: square"/>
   </g>
   <g id="text_14">
    <!-- Periodogram of $x_c[n]$ -->
    <g transform="translate(246.371406 16.32) scale(0.12 -0.12)">
     <defs>
      <path id="DejaVuSans-67" d="M 2906 1791 
Q 2906 2416 2648 2759 
Q 2391 3103 1925 3103 
Q 1463 3103 1205 2759 
Q 947 2416 947 1791 
Q 947 1169 1205 825 
Q 1463 481 1925 481 
Q 2391 481 2648 825 
Q 2906 1169 2906 1791 
z
M 3481 434 
Q 3481 -459 3084 -895 
Q 2688 -1331 1869 -1331 
Q 1566 -1331 1297 -1286 
Q 1028 -1241 775 -1147 
L 775 -588 
Q 1028 -725 1275 -790 
Q 1522 -856 1778 -856 
Q 2344 -856 2625 -561 
Q 2906 -266 2906 331 
L 2906 616 
Q 2728 306 2450 153 
Q 2172 0 1784 0 
Q 1141 0 747 490 
Q 353 981 353 1791 
Q 353 2603 747 3093 
Q 1141 3584 1784 3584 
Q 2172 3584 2450 3431 
Q 2728 3278 2906 2969 
L 2906 3500 
L 3481 3500 
L 3481 434 
z
" transform="scale(0.015625)"/>
      <path id="DejaVuSans-61" d="M 2194 1759 
Q 1497 1759 1228 1600 
Q 959 1441 959 1056 
Q 959 750 1161 570 
Q 1363 391 1709 391 
Q 2188 391 2477 730 
Q 2766 1069 2766 1631 
L 2766 1759 
L 2194 1759 
z
M 3341 1997 
L 3341 0 
L 2766 0 
L 2766 531 
Q 2569 213 2275 61 
Q 1981 -91 1556 -91 
Q 1019 -91 701 211 
Q 384 513 384 1019 
Q 384 1609 779 1909 
Q 1175 2209 1959 2209 
L 2766 2209 
L 2766 2266 
Q 2766 2663 2505 2880 
Q 2244 3097 1772 3097 
Q 1472 3097 1187 3025 
Q 903 2953 641 2809 
L 641 3341 
Q 956 3463 1253 3523 
Q 1550 3584 1831 3584 
Q 2591 3584 2966 3190 
Q 3341 2797 3341 1997 
z
" transform="scale(0.015625)"/>
      <path id="DejaVuSans-6d" d="M 3328 2828 
Q 3544 3216 3844 3400 
Q 4144 3584 4550 3584 
Q 5097 3584 5394 3201 
Q 5691 2819 5691 2113 
L 5691 0 
L 5113 0 
L 5113 2094 
Q 5113 2597 4934 2840 
Q 4756 3084 4391 3084 
Q 3944 3084 3684 2787 
Q 3425 2491 3425 1978 
L 3425 0 
L 2847 0 
L 2847 2094 
Q 2847 2600 2669 2842 
Q 2491 3084 2119 3084 
Q 1678 3084 1418 2786 
Q 1159 2488 1159 1978 
L 1159 0 
L 581 0 
L 581 3500 
L 1159 3500 
L 1159 2956 
Q 1356 3278 1631 3431 
Q 1906 3584 2284 3584 
Q 2666 3584 2933 3390 
Q 3200 3197 3328 2828 
z
" transform="scale(0.015625)"/>
      <path id="DejaVuSans-66" d="M 2375 4863 
L 2375 4384 
L 1825 4384 
Q 1516 4384 1395 4259 
Q 1275 4134 1275 3809 
L 1275 3500 
L 2222 3500 
L 2222 3053 
L 1275 3053 
L 1275 0 
L 697 0 
L 697 3053 
L 147 3053 
L 147 3500 
L 697 3500 
L 697 3744 
Q 697 4328 969 4595 
Q 1241 4863 1831 4863 
L 2375 4863 
z
" transform="scale(0.015625)"/>
      <path id="DejaVuSans-Oblique-78" d="M 3841 3500 
L 2234 1784 
L 3219 0 
L 2559 0 
L 1819 1388 
L 531 0 
L -166 0 
L 1556 1844 
L 641 3500 
L 1300 3500 
L 1972 2234 
L 3144 3500 
L 3841 3500 
z
" transform="scale(0.015625)"/>
      <path id="DejaVuSans-Oblique-63" d="M 3431 3366 
L 3316 2797 
Q 3109 2947 2876 3022 
Q 2644 3097 2394 3097 
Q 2119 3097 1870 3000 
Q 1622 2903 1453 2725 
Q 1184 2453 1037 2087 
Q 891 1722 891 1331 
Q 891 859 1127 628 
Q 1363 397 1844 397 
Q 2081 397 2348 469 
Q 2616 541 2906 684 
L 2797 116 
Q 2547 13 2283 -39 
Q 2019 -91 1741 -91 
Q 1044 -91 669 257 
Q 294 606 294 1253 
Q 294 1797 489 2255 
Q 684 2713 1069 3078 
Q 1331 3328 1684 3456 
Q 2038 3584 2456 3584 
Q 2700 3584 2940 3529 
Q 3181 3475 3431 3366 
z
" transform="scale(0.015625)"/>
      <path id="DejaVuSans-5b" d="M 550 4863 
L 1875 4863 
L 1875 4416 
L 1125 4416 
L 1125 -397 
L 1875 -397 
L 1875 -844 
L 550 -844 
L 550 4863 
z
" transform="scale(0.015625)"/>
      <path id="DejaVuSans-Oblique-6e" d="M 3566 2113 
L 3156 0 
L 2578 0 
L 2988 2091 
Q 3016 2238 3031 2350 
Q 3047 2463 3047 2528 
Q 3047 2791 2881 2937 
Q 2716 3084 2419 3084 
Q 1956 3084 1622 2776 
Q 1288 2469 1184 1941 
L 800 0 
L 225 0 
L 903 3500 
L 1478 3500 
L 1363 2950 
Q 1603 3253 1940 3418 
Q 2278 3584 2650 3584 
Q 3113 3584 3367 3334 
Q 3622 3084 3622 2631 
Q 3622 2519 3608 2391 
Q 3594 2263 3566 2113 
z
" transform="scale(0.015625)"/>
      <path id="DejaVuSans-5d" d="M 1947 4863 
L 1947 -844 
L 622 -844 
L 622 -397 
L 1369 -397 
L 1369 4416 
L 622 4416 
L 622 4863 
L 1947 4863 
z
" transform="scale(0.015625)"/>
     </defs>
     <use xlink:href="#DejaVuSans-50" transform="translate(0 0.015625)"/>
     <use xlink:href="#DejaVuSans-65" transform="translate(60.302734 0.015625)"/>
     <use xlink:href="#DejaVuSans-72" transform="translate(121.826172 0.015625)"/>
     <use xlink:href="#DejaVuSans-69" transform="translate(162.939453 0.015625)"/>
     <use xlink:href="#DejaVuSans-6f" transform="translate(190.722656 0.015625)"/>
     <use xlink:href="#DejaVuSans-64" transform="translate(251.904297 0.015625)"/>
     <use xlink:href="#DejaVuSans-6f" transform="translate(315.380859 0.015625)"/>
     <use xlink:href="#DejaVuSans-67" transform="translate(376.5625 0.015625)"/>
     <use xlink:href="#DejaVuSans-72" transform="translate(440.039062 0.015625)"/>
     <use xlink:href="#DejaVuSans-61" transform="translate(481.152344 0.015625)"/>
     <use xlink:href="#DejaVuSans-6d" transform="translate(542.431641 0.015625)"/>
     <use xlink:href="#DejaVuSans-20" transform="translate(639.84375 0.015625)"/>
     <use xlink:href="#DejaVuSans-6f" transform="translate(671.630859 0.015625)"/>
     <use xlink:href="#DejaVuSans-66" transform="translate(732.8125 0.015625)"/>
     <use xlink:href="#DejaVuSans-20" transform="translate(768.017578 0.015625)"/>
     <use xlink:href="#DejaVuSans-Oblique-78" transform="translate(799.804688 0.015625)"/>
     <use xlink:href="#DejaVuSans-Oblique-63" transform="translate(858.984375 -16.390625) scale(0.7)"/>
     <use xlink:href="#DejaVuSans-5b" transform="translate(900.205078 0.015625)"/>
     <use xlink:href="#DejaVuSans-Oblique-6e" transform="translate(939.21875 0.015625)"/>
     <use xlink:href="#DejaVuSans-5d" transform="translate(1002.597656 0.015625)"/>
    </g>
   </g>
  </g>
 </g>
 <defs>
  <clipPath id="p5c0e204983">
   <rect x="48.982813" y="22.32" width="519.817188" height="228.101875"/>
  </clipPath>
 </defs>
</svg>
