<?xml version="1.0" encoding="utf-8" standalone="no"?>
<!DOCTYPE svg PUBLIC "-//W3C//DTD SVG 1.1//EN"
  "http://www.w3.org/Graphics/SVG/1.1/DTD/svg11.dtd">
<svg xmlns:xlink="http://www.w3.org/1999/xlink" width="576pt" height="288pt" viewBox="0 0 576 288" xmlns="http://www.w3.org/2000/svg" version="1.1">
 <metadata>
  <rdf:RDF xmlns:dc="http://purl.org/dc/elements/1.1/" xmlns:cc="http://creativecommons.org/ns#" xmlns:rdf="http://www.w3.org/1999/02/22-rdf-syntax-ns#">
   <cc:Work>
    <dc:type rdf:resource="http://purl.org/dc/dcmitype/StillImage"/>
    <dc:date>2025-05-10T16:54:23.396503</dc:date>
    <dc:format>image/svg+xml</dc:format>
    <dc:creator>
     <cc:Agent>
      <dc:title>Matplotlib v3.10.3, https://matplotlib.org/</dc:title>
     </cc:Agent>
    </dc:creator>
   </cc:Work>
  </rdf:RDF>
 </metadata>
 <defs>
  <style type="text/css">*{stroke-linejoin: round; stroke-linecap: butt}</style>
 </defs>
 <g id="figure_1">
  <g id="patch_1">
   <path d="M 0 288 
L 576 288 
L 576 0 
L 0 0 
z
" style="fill: #ffffff"/>
  </g>
  <g id="axes_1">
   <g id="patch_2">
    <path d="M 53.35 250.421875 
L 557.667188 250.421875 
L 557.667188 22.318125 
L 53.35 22.318125 
z
" style="fill: #ffffff"/>
   </g>
   <g id="matplotlib.axis_1">
    <g id="xtick_1">
     <g id="line2d_1">
      <path d="M 53.35 250.421875 
L 53.35 22.318125 
" clip-path="url(#pfff471fd0b)" style="fill: none; stroke-dasharray: 2.96,1.28; stroke-dashoffset: 0; stroke: #b0b0b0; stroke-opacity: 0.8; stroke-width: 0.8"/>
     </g>
     <g id="line2d_2">
      <defs>
       <path id="m14a9baa121" d="M 0 0 
L 0 3.5 
" style="stroke: #000000; stroke-width: 0.8"/>
      </defs>
      <g>
       <use xlink:href="#m14a9baa121" x="53.35" y="250.421875" style="stroke: #000000; stroke-width: 0.8"/>
      </g>
     </g>
     <g id="text_1">
      <!-- 0.08 -->
      <g transform="translate(42.217188 265.020312) scale(0.1 -0.1)">
       <defs>
        <path id="DejaVuSans-30" d="M 2034 4250 
Q 1547 4250 1301 3770 
Q 1056 3291 1056 2328 
Q 1056 1369 1301 889 
Q 1547 409 2034 409 
Q 2525 409 2770 889 
Q 3016 1369 3016 2328 
Q 3016 3291 2770 3770 
Q 2525 4250 2034 4250 
z
M 2034 4750 
Q 2819 4750 3233 4129 
Q 3647 3509 3647 2328 
Q 3647 1150 3233 529 
Q 2819 -91 2034 -91 
Q 1250 -91 836 529 
Q 422 1150 422 2328 
Q 422 3509 836 4129 
Q 1250 4750 2034 4750 
z
" transform="scale(0.015625)"/>
        <path id="DejaVuSans-2e" d="M 684 794 
L 1344 794 
L 1344 0 
L 684 0 
L 684 794 
z
" transform="scale(0.015625)"/>
        <path id="DejaVuSans-38" d="M 2034 2216 
Q 1584 2216 1326 1975 
Q 1069 1734 1069 1313 
Q 1069 891 1326 650 
Q 1584 409 2034 409 
Q 2484 409 2743 651 
Q 3003 894 3003 1313 
Q 3003 1734 2745 1975 
Q 2488 2216 2034 2216 
z
M 1403 2484 
Q 997 2584 770 2862 
Q 544 3141 544 3541 
Q 544 4100 942 4425 
Q 1341 4750 2034 4750 
Q 2731 4750 3128 4425 
Q 3525 4100 3525 3541 
Q 3525 3141 3298 2862 
Q 3072 2584 2669 2484 
Q 3125 2378 3379 2068 
Q 3634 1759 3634 1313 
Q 3634 634 3220 271 
Q 2806 -91 2034 -91 
Q 1263 -91 848 271 
Q 434 634 434 1313 
Q 434 1759 690 2068 
Q 947 2378 1403 2484 
z
M 1172 3481 
Q 1172 3119 1398 2916 
Q 1625 2713 2034 2713 
Q 2441 2713 2670 2916 
Q 2900 3119 2900 3481 
Q 2900 3844 2670 4047 
Q 2441 4250 2034 4250 
Q 1625 4250 1398 4047 
Q 1172 3844 1172 3481 
z
" transform="scale(0.015625)"/>
       </defs>
       <use xlink:href="#DejaVuSans-30"/>
       <use xlink:href="#DejaVuSans-2e" transform="translate(63.623047 0)"/>
       <use xlink:href="#DejaVuSans-30" transform="translate(95.410156 0)"/>
       <use xlink:href="#DejaVuSans-38" transform="translate(159.033203 0)"/>
      </g>
     </g>
    </g>
    <g id="xtick_2">
     <g id="line2d_3">
      <path d="M 137.402865 250.421875 
L 137.402865 22.318125 
" clip-path="url(#pfff471fd0b)" style="fill: none; stroke-dasharray: 2.96,1.28; stroke-dashoffset: 0; stroke: #b0b0b0; stroke-opacity: 0.8; stroke-width: 0.8"/>
     </g>
     <g id="line2d_4">
      <g>
       <use xlink:href="#m14a9baa121" x="137.402865" y="250.421875" style="stroke: #000000; stroke-width: 0.8"/>
      </g>
     </g>
     <g id="text_2">
      <!-- 0.09 -->
      <g transform="translate(126.270052 265.020312) scale(0.1 -0.1)">
       <defs>
        <path id="DejaVuSans-39" d="M 703 97 
L 703 672 
Q 941 559 1184 500 
Q 1428 441 1663 441 
Q 2288 441 2617 861 
Q 2947 1281 2994 2138 
Q 2813 1869 2534 1725 
Q 2256 1581 1919 1581 
Q 1219 1581 811 2004 
Q 403 2428 403 3163 
Q 403 3881 828 4315 
Q 1253 4750 1959 4750 
Q 2769 4750 3195 4129 
Q 3622 3509 3622 2328 
Q 3622 1225 3098 567 
Q 2575 -91 1691 -91 
Q 1453 -91 1209 -44 
Q 966 3 703 97 
z
M 1959 2075 
Q 2384 2075 2632 2365 
Q 2881 2656 2881 3163 
Q 2881 3666 2632 3958 
Q 2384 4250 1959 4250 
Q 1534 4250 1286 3958 
Q 1038 3666 1038 3163 
Q 1038 2656 1286 2365 
Q 1534 2075 1959 2075 
z
" transform="scale(0.015625)"/>
       </defs>
       <use xlink:href="#DejaVuSans-30"/>
       <use xlink:href="#DejaVuSans-2e" transform="translate(63.623047 0)"/>
       <use xlink:href="#DejaVuSans-30" transform="translate(95.410156 0)"/>
       <use xlink:href="#DejaVuSans-39" transform="translate(159.033203 0)"/>
      </g>
     </g>
    </g>
    <g id="xtick_3">
     <g id="line2d_5">
      <path d="M 221.455729 250.421875 
L 221.455729 22.318125 
" clip-path="url(#pfff471fd0b)" style="fill: none; stroke-dasharray: 2.96,1.28; stroke-dashoffset: 0; stroke: #b0b0b0; stroke-opacity: 0.8; stroke-width: 0.8"/>
     </g>
     <g id="line2d_6">
      <g>
       <use xlink:href="#m14a9baa121" x="221.455729" y="250.421875" style="stroke: #000000; stroke-width: 0.8"/>
      </g>
     </g>
     <g id="text_3">
      <!-- 0.1 -->
      <g transform="translate(213.504167 265.020312) scale(0.1 -0.1)">
       <defs>
        <path id="DejaVuSans-31" d="M 794 531 
L 1825 531 
L 1825 4091 
L 703 3866 
L 703 4441 
L 1819 4666 
L 2450 4666 
L 2450 531 
L 3481 531 
L 3481 0 
L 794 0 
L 794 531 
z
" transform="scale(0.015625)"/>
       </defs>
       <use xlink:href="#DejaVuSans-30"/>
       <use xlink:href="#DejaVuSans-2e" transform="translate(63.623047 0)"/>
       <use xlink:href="#DejaVuSans-31" transform="translate(95.410156 0)"/>
      </g>
     </g>
    </g>
    <g id="xtick_4">
     <g id="line2d_7">
      <path d="M 305.508594 250.421875 
L 305.508594 22.318125 
" clip-path="url(#pfff471fd0b)" style="fill: none; stroke-dasharray: 2.96,1.28; stroke-dashoffset: 0; stroke: #b0b0b0; stroke-opacity: 0.8; stroke-width: 0.8"/>
     </g>
     <g id="line2d_8">
      <g>
       <use xlink:href="#m14a9baa121" x="305.508594" y="250.421875" style="stroke: #000000; stroke-width: 0.8"/>
      </g>
     </g>
     <g id="text_4">
      <!-- 0.11 -->
      <g transform="translate(294.375781 265.020312) scale(0.1 -0.1)">
       <use xlink:href="#DejaVuSans-30"/>
       <use xlink:href="#DejaVuSans-2e" transform="translate(63.623047 0)"/>
       <use xlink:href="#DejaVuSans-31" transform="translate(95.410156 0)"/>
       <use xlink:href="#DejaVuSans-31" transform="translate(159.033203 0)"/>
      </g>
     </g>
    </g>
    <g id="xtick_5">
     <g id="line2d_9">
      <path d="M 389.561458 250.421875 
L 389.561458 22.318125 
" clip-path="url(#pfff471fd0b)" style="fill: none; stroke-dasharray: 2.96,1.28; stroke-dashoffset: 0; stroke: #b0b0b0; stroke-opacity: 0.8; stroke-width: 0.8"/>
     </g>
     <g id="line2d_10">
      <g>
       <use xlink:href="#m14a9baa121" x="389.561458" y="250.421875" style="stroke: #000000; stroke-width: 0.8"/>
      </g>
     </g>
     <g id="text_5">
      <!-- 0.12 -->
      <g transform="translate(378.428646 265.020312) scale(0.1 -0.1)">
       <defs>
        <path id="DejaVuSans-32" d="M 1228 531 
L 3431 531 
L 3431 0 
L 469 0 
L 469 531 
Q 828 903 1448 1529 
Q 2069 2156 2228 2338 
Q 2531 2678 2651 2914 
Q 2772 3150 2772 3378 
Q 2772 3750 2511 3984 
Q 2250 4219 1831 4219 
Q 1534 4219 1204 4116 
Q 875 4013 500 3803 
L 500 4441 
Q 881 4594 1212 4672 
Q 1544 4750 1819 4750 
Q 2544 4750 2975 4387 
Q 3406 4025 3406 3419 
Q 3406 3131 3298 2873 
Q 3191 2616 2906 2266 
Q 2828 2175 2409 1742 
Q 1991 1309 1228 531 
z
" transform="scale(0.015625)"/>
       </defs>
       <use xlink:href="#DejaVuSans-30"/>
       <use xlink:href="#DejaVuSans-2e" transform="translate(63.623047 0)"/>
       <use xlink:href="#DejaVuSans-31" transform="translate(95.410156 0)"/>
       <use xlink:href="#DejaVuSans-32" transform="translate(159.033203 0)"/>
      </g>
     </g>
    </g>
    <g id="xtick_6">
     <g id="line2d_11">
      <path d="M 473.614323 250.421875 
L 473.614323 22.318125 
" clip-path="url(#pfff471fd0b)" style="fill: none; stroke-dasharray: 2.96,1.28; stroke-dashoffset: 0; stroke: #b0b0b0; stroke-opacity: 0.8; stroke-width: 0.8"/>
     </g>
     <g id="line2d_12">
      <g>
       <use xlink:href="#m14a9baa121" x="473.614323" y="250.421875" style="stroke: #000000; stroke-width: 0.8"/>
      </g>
     </g>
     <g id="text_6">
      <!-- 0.13 -->
      <g transform="translate(462.48151 265.020312) scale(0.1 -0.1)">
       <defs>
        <path id="DejaVuSans-33" d="M 2597 2516 
Q 3050 2419 3304 2112 
Q 3559 1806 3559 1356 
Q 3559 666 3084 287 
Q 2609 -91 1734 -91 
Q 1441 -91 1130 -33 
Q 819 25 488 141 
L 488 750 
Q 750 597 1062 519 
Q 1375 441 1716 441 
Q 2309 441 2620 675 
Q 2931 909 2931 1356 
Q 2931 1769 2642 2001 
Q 2353 2234 1838 2234 
L 1294 2234 
L 1294 2753 
L 1863 2753 
Q 2328 2753 2575 2939 
Q 2822 3125 2822 3475 
Q 2822 3834 2567 4026 
Q 2313 4219 1838 4219 
Q 1578 4219 1281 4162 
Q 984 4106 628 3988 
L 628 4550 
Q 988 4650 1302 4700 
Q 1616 4750 1894 4750 
Q 2613 4750 3031 4423 
Q 3450 4097 3450 3541 
Q 3450 3153 3228 2886 
Q 3006 2619 2597 2516 
z
" transform="scale(0.015625)"/>
       </defs>
       <use xlink:href="#DejaVuSans-30"/>
       <use xlink:href="#DejaVuSans-2e" transform="translate(63.623047 0)"/>
       <use xlink:href="#DejaVuSans-31" transform="translate(95.410156 0)"/>
       <use xlink:href="#DejaVuSans-33" transform="translate(159.033203 0)"/>
      </g>
     </g>
    </g>
    <g id="xtick_7">
     <g id="line2d_13">
      <path d="M 557.667188 250.421875 
L 557.667188 22.318125 
" clip-path="url(#pfff471fd0b)" style="fill: none; stroke-dasharray: 2.96,1.28; stroke-dashoffset: 0; stroke: #b0b0b0; stroke-opacity: 0.8; stroke-width: 0.8"/>
     </g>
     <g id="line2d_14">
      <g>
       <use xlink:href="#m14a9baa121" x="557.667188" y="250.421875" style="stroke: #000000; stroke-width: 0.8"/>
      </g>
     </g>
     <g id="text_7">
      <!-- 0.14 -->
      <g transform="translate(546.534375 265.020312) scale(0.1 -0.1)">
       <defs>
        <path id="DejaVuSans-34" d="M 2419 4116 
L 825 1625 
L 2419 1625 
L 2419 4116 
z
M 2253 4666 
L 3047 4666 
L 3047 1625 
L 3713 1625 
L 3713 1100 
L 3047 1100 
L 3047 0 
L 2419 0 
L 2419 1100 
L 313 1100 
L 313 1709 
L 2253 4666 
z
" transform="scale(0.015625)"/>
       </defs>
       <use xlink:href="#DejaVuSans-30"/>
       <use xlink:href="#DejaVuSans-2e" transform="translate(63.623047 0)"/>
       <use xlink:href="#DejaVuSans-31" transform="translate(95.410156 0)"/>
       <use xlink:href="#DejaVuSans-34" transform="translate(159.033203 0)"/>
      </g>
     </g>
    </g>
    <g id="text_8">
     <!-- Frequency (MHz), $f$ -->
     <g transform="translate(258.058594 278.7) scale(0.1 -0.1)">
      <defs>
       <path id="DejaVuSans-46" d="M 628 4666 
L 3309 4666 
L 3309 4134 
L 1259 4134 
L 1259 2759 
L 3109 2759 
L 3109 2228 
L 1259 2228 
L 1259 0 
L 628 0 
L 628 4666 
z
" transform="scale(0.015625)"/>
       <path id="DejaVuSans-72" d="M 2631 2963 
Q 2534 3019 2420 3045 
Q 2306 3072 2169 3072 
Q 1681 3072 1420 2755 
Q 1159 2438 1159 1844 
L 1159 0 
L 581 0 
L 581 3500 
L 1159 3500 
L 1159 2956 
Q 1341 3275 1631 3429 
Q 1922 3584 2338 3584 
Q 2397 3584 2469 3576 
Q 2541 3569 2628 3553 
L 2631 2963 
z
" transform="scale(0.015625)"/>
       <path id="DejaVuSans-65" d="M 3597 1894 
L 3597 1613 
L 953 1613 
Q 991 1019 1311 708 
Q 1631 397 2203 397 
Q 2534 397 2845 478 
Q 3156 559 3463 722 
L 3463 178 
Q 3153 47 2828 -22 
Q 2503 -91 2169 -91 
Q 1331 -91 842 396 
Q 353 884 353 1716 
Q 353 2575 817 3079 
Q 1281 3584 2069 3584 
Q 2775 3584 3186 3129 
Q 3597 2675 3597 1894 
z
M 3022 2063 
Q 3016 2534 2758 2815 
Q 2500 3097 2075 3097 
Q 1594 3097 1305 2825 
Q 1016 2553 972 2059 
L 3022 2063 
z
" transform="scale(0.015625)"/>
       <path id="DejaVuSans-71" d="M 947 1747 
Q 947 1113 1208 752 
Q 1469 391 1925 391 
Q 2381 391 2643 752 
Q 2906 1113 2906 1747 
Q 2906 2381 2643 2742 
Q 2381 3103 1925 3103 
Q 1469 3103 1208 2742 
Q 947 2381 947 1747 
z
M 2906 525 
Q 2725 213 2448 61 
Q 2172 -91 1784 -91 
Q 1150 -91 751 415 
Q 353 922 353 1747 
Q 353 2572 751 3078 
Q 1150 3584 1784 3584 
Q 2172 3584 2448 3432 
Q 2725 3281 2906 2969 
L 2906 3500 
L 3481 3500 
L 3481 -1331 
L 2906 -1331 
L 2906 525 
z
" transform="scale(0.015625)"/>
       <path id="DejaVuSans-75" d="M 544 1381 
L 544 3500 
L 1119 3500 
L 1119 1403 
Q 1119 906 1312 657 
Q 1506 409 1894 409 
Q 2359 409 2629 706 
Q 2900 1003 2900 1516 
L 2900 3500 
L 3475 3500 
L 3475 0 
L 2900 0 
L 2900 538 
Q 2691 219 2414 64 
Q 2138 -91 1772 -91 
Q 1169 -91 856 284 
Q 544 659 544 1381 
z
M 1991 3584 
L 1991 3584 
z
" transform="scale(0.015625)"/>
       <path id="DejaVuSans-6e" d="M 3513 2113 
L 3513 0 
L 2938 0 
L 2938 2094 
Q 2938 2591 2744 2837 
Q 2550 3084 2163 3084 
Q 1697 3084 1428 2787 
Q 1159 2491 1159 1978 
L 1159 0 
L 581 0 
L 581 3500 
L 1159 3500 
L 1159 2956 
Q 1366 3272 1645 3428 
Q 1925 3584 2291 3584 
Q 2894 3584 3203 3211 
Q 3513 2838 3513 2113 
z
" transform="scale(0.015625)"/>
       <path id="DejaVuSans-63" d="M 3122 3366 
L 3122 2828 
Q 2878 2963 2633 3030 
Q 2388 3097 2138 3097 
Q 1578 3097 1268 2742 
Q 959 2388 959 1747 
Q 959 1106 1268 751 
Q 1578 397 2138 397 
Q 2388 397 2633 464 
Q 2878 531 3122 666 
L 3122 134 
Q 2881 22 2623 -34 
Q 2366 -91 2075 -91 
Q 1284 -91 818 406 
Q 353 903 353 1747 
Q 353 2603 823 3093 
Q 1294 3584 2113 3584 
Q 2378 3584 2631 3529 
Q 2884 3475 3122 3366 
z
" transform="scale(0.015625)"/>
       <path id="DejaVuSans-79" d="M 2059 -325 
Q 1816 -950 1584 -1140 
Q 1353 -1331 966 -1331 
L 506 -1331 
L 506 -850 
L 844 -850 
Q 1081 -850 1212 -737 
Q 1344 -625 1503 -206 
L 1606 56 
L 191 3500 
L 800 3500 
L 1894 763 
L 2988 3500 
L 3597 3500 
L 2059 -325 
z
" transform="scale(0.015625)"/>
       <path id="DejaVuSans-20" transform="scale(0.015625)"/>
       <path id="DejaVuSans-28" d="M 1984 4856 
Q 1566 4138 1362 3434 
Q 1159 2731 1159 2009 
Q 1159 1288 1364 580 
Q 1569 -128 1984 -844 
L 1484 -844 
Q 1016 -109 783 600 
Q 550 1309 550 2009 
Q 550 2706 781 3412 
Q 1013 4119 1484 4856 
L 1984 4856 
z
" transform="scale(0.015625)"/>
       <path id="DejaVuSans-4d" d="M 628 4666 
L 1569 4666 
L 2759 1491 
L 3956 4666 
L 4897 4666 
L 4897 0 
L 4281 0 
L 4281 4097 
L 3078 897 
L 2444 897 
L 1241 4097 
L 1241 0 
L 628 0 
L 628 4666 
z
" transform="scale(0.015625)"/>
       <path id="DejaVuSans-48" d="M 628 4666 
L 1259 4666 
L 1259 2753 
L 3553 2753 
L 3553 4666 
L 4184 4666 
L 4184 0 
L 3553 0 
L 3553 2222 
L 1259 2222 
L 1259 0 
L 628 0 
L 628 4666 
z
" transform="scale(0.015625)"/>
       <path id="DejaVuSans-7a" d="M 353 3500 
L 3084 3500 
L 3084 2975 
L 922 459 
L 3084 459 
L 3084 0 
L 275 0 
L 275 525 
L 2438 3041 
L 353 3041 
L 353 3500 
z
" transform="scale(0.015625)"/>
       <path id="DejaVuSans-29" d="M 513 4856 
L 1013 4856 
Q 1481 4119 1714 3412 
Q 1947 2706 1947 2009 
Q 1947 1309 1714 600 
Q 1481 -109 1013 -844 
L 513 -844 
Q 928 -128 1133 580 
Q 1338 1288 1338 2009 
Q 1338 2731 1133 3434 
Q 928 4138 513 4856 
z
" transform="scale(0.015625)"/>
       <path id="DejaVuSans-2c" d="M 750 794 
L 1409 794 
L 1409 256 
L 897 -744 
L 494 -744 
L 750 256 
L 750 794 
z
" transform="scale(0.015625)"/>
       <path id="DejaVuSans-Oblique-66" d="M 3059 4863 
L 2969 4384 
L 2419 4384 
Q 2106 4384 1964 4261 
Q 1822 4138 1753 3809 
L 1691 3500 
L 2638 3500 
L 2553 3053 
L 1606 3053 
L 1013 0 
L 434 0 
L 1031 3053 
L 481 3053 
L 563 3500 
L 1113 3500 
L 1159 3744 
Q 1278 4363 1576 4613 
Q 1875 4863 2516 4863 
L 3059 4863 
z
" transform="scale(0.015625)"/>
      </defs>
      <use xlink:href="#DejaVuSans-46" transform="translate(0 0.015625)"/>
      <use xlink:href="#DejaVuSans-72" transform="translate(57.519531 0.015625)"/>
      <use xlink:href="#DejaVuSans-65" transform="translate(98.632812 0.015625)"/>
      <use xlink:href="#DejaVuSans-71" transform="translate(160.15625 0.015625)"/>
      <use xlink:href="#DejaVuSans-75" transform="translate(223.632812 0.015625)"/>
      <use xlink:href="#DejaVuSans-65" transform="translate(287.011719 0.015625)"/>
      <use xlink:href="#DejaVuSans-6e" transform="translate(348.535156 0.015625)"/>
      <use xlink:href="#DejaVuSans-63" transform="translate(411.914062 0.015625)"/>
      <use xlink:href="#DejaVuSans-79" transform="translate(466.894531 0.015625)"/>
      <use xlink:href="#DejaVuSans-20" transform="translate(526.074219 0.015625)"/>
      <use xlink:href="#DejaVuSans-28" transform="translate(557.861328 0.015625)"/>
      <use xlink:href="#DejaVuSans-4d" transform="translate(596.875 0.015625)"/>
      <use xlink:href="#DejaVuSans-48" transform="translate(683.154297 0.015625)"/>
      <use xlink:href="#DejaVuSans-7a" transform="translate(758.349609 0.015625)"/>
      <use xlink:href="#DejaVuSans-29" transform="translate(810.839844 0.015625)"/>
      <use xlink:href="#DejaVuSans-2c" transform="translate(849.853516 0.015625)"/>
      <use xlink:href="#DejaVuSans-20" transform="translate(881.640625 0.015625)"/>
      <use xlink:href="#DejaVuSans-Oblique-66" transform="translate(913.427734 0.015625)"/>
     </g>
    </g>
   </g>
   <g id="matplotlib.axis_2">
    <g id="ytick_1">
     <g id="line2d_15">
      <path d="M 53.35 240.053523 
L 557.667188 240.053523 
" clip-path="url(#pfff471fd0b)" style="fill: none; stroke-dasharray: 2.96,1.28; stroke-dashoffset: 0; stroke: #b0b0b0; stroke-opacity: 0.8; stroke-width: 0.8"/>
     </g>
     <g id="line2d_16">
      <defs>
       <path id="m3be6fda6a4" d="M 0 0 
L -3.5 0 
" style="stroke: #000000; stroke-width: 0.8"/>
      </defs>
      <g>
       <use xlink:href="#m3be6fda6a4" x="53.35" y="240.053523" style="stroke: #000000; stroke-width: 0.8"/>
      </g>
     </g>
     <g id="text_9">
      <!-- 0 -->
      <g transform="translate(39.9875 243.852741) scale(0.1 -0.1)">
       <use xlink:href="#DejaVuSans-30"/>
      </g>
     </g>
    </g>
    <g id="ytick_2">
     <g id="line2d_17">
      <path d="M 53.35 198.580215 
L 557.667188 198.580215 
" clip-path="url(#pfff471fd0b)" style="fill: none; stroke-dasharray: 2.96,1.28; stroke-dashoffset: 0; stroke: #b0b0b0; stroke-opacity: 0.8; stroke-width: 0.8"/>
     </g>
     <g id="line2d_18">
      <g>
       <use xlink:href="#m3be6fda6a4" x="53.35" y="198.580215" style="stroke: #000000; stroke-width: 0.8"/>
      </g>
     </g>
     <g id="text_10">
      <!-- 200 -->
      <g transform="translate(27.2625 202.379434) scale(0.1 -0.1)">
       <use xlink:href="#DejaVuSans-32"/>
       <use xlink:href="#DejaVuSans-30" transform="translate(63.623047 0)"/>
       <use xlink:href="#DejaVuSans-30" transform="translate(127.246094 0)"/>
      </g>
     </g>
    </g>
    <g id="ytick_3">
     <g id="line2d_19">
      <path d="M 53.35 157.106908 
L 557.667188 157.106908 
" clip-path="url(#pfff471fd0b)" style="fill: none; stroke-dasharray: 2.96,1.28; stroke-dashoffset: 0; stroke: #b0b0b0; stroke-opacity: 0.8; stroke-width: 0.8"/>
     </g>
     <g id="line2d_20">
      <g>
       <use xlink:href="#m3be6fda6a4" x="53.35" y="157.106908" style="stroke: #000000; stroke-width: 0.8"/>
      </g>
     </g>
     <g id="text_11">
      <!-- 400 -->
      <g transform="translate(27.2625 160.906126) scale(0.1 -0.1)">
       <use xlink:href="#DejaVuSans-34"/>
       <use xlink:href="#DejaVuSans-30" transform="translate(63.623047 0)"/>
       <use xlink:href="#DejaVuSans-30" transform="translate(127.246094 0)"/>
      </g>
     </g>
    </g>
    <g id="ytick_4">
     <g id="line2d_21">
      <path d="M 53.35 115.6336 
L 557.667188 115.6336 
" clip-path="url(#pfff471fd0b)" style="fill: none; stroke-dasharray: 2.96,1.28; stroke-dashoffset: 0; stroke: #b0b0b0; stroke-opacity: 0.8; stroke-width: 0.8"/>
     </g>
     <g id="line2d_22">
      <g>
       <use xlink:href="#m3be6fda6a4" x="53.35" y="115.6336" style="stroke: #000000; stroke-width: 0.8"/>
      </g>
     </g>
     <g id="text_12">
      <!-- 600 -->
      <g transform="translate(27.2625 119.432819) scale(0.1 -0.1)">
       <defs>
        <path id="DejaVuSans-36" d="M 2113 2584 
Q 1688 2584 1439 2293 
Q 1191 2003 1191 1497 
Q 1191 994 1439 701 
Q 1688 409 2113 409 
Q 2538 409 2786 701 
Q 3034 994 3034 1497 
Q 3034 2003 2786 2293 
Q 2538 2584 2113 2584 
z
M 3366 4563 
L 3366 3988 
Q 3128 4100 2886 4159 
Q 2644 4219 2406 4219 
Q 1781 4219 1451 3797 
Q 1122 3375 1075 2522 
Q 1259 2794 1537 2939 
Q 1816 3084 2150 3084 
Q 2853 3084 3261 2657 
Q 3669 2231 3669 1497 
Q 3669 778 3244 343 
Q 2819 -91 2113 -91 
Q 1303 -91 875 529 
Q 447 1150 447 2328 
Q 447 3434 972 4092 
Q 1497 4750 2381 4750 
Q 2619 4750 2861 4703 
Q 3103 4656 3366 4563 
z
" transform="scale(0.015625)"/>
       </defs>
       <use xlink:href="#DejaVuSans-36"/>
       <use xlink:href="#DejaVuSans-30" transform="translate(63.623047 0)"/>
       <use xlink:href="#DejaVuSans-30" transform="translate(127.246094 0)"/>
      </g>
     </g>
    </g>
    <g id="ytick_5">
     <g id="line2d_23">
      <path d="M 53.35 74.160292 
L 557.667188 74.160292 
" clip-path="url(#pfff471fd0b)" style="fill: none; stroke-dasharray: 2.96,1.28; stroke-dashoffset: 0; stroke: #b0b0b0; stroke-opacity: 0.8; stroke-width: 0.8"/>
     </g>
     <g id="line2d_24">
      <g>
       <use xlink:href="#m3be6fda6a4" x="53.35" y="74.160292" style="stroke: #000000; stroke-width: 0.8"/>
      </g>
     </g>
     <g id="text_13">
      <!-- 800 -->
      <g transform="translate(27.2625 77.959511) scale(0.1 -0.1)">
       <use xlink:href="#DejaVuSans-38"/>
       <use xlink:href="#DejaVuSans-30" transform="translate(63.623047 0)"/>
       <use xlink:href="#DejaVuSans-30" transform="translate(127.246094 0)"/>
      </g>
     </g>
    </g>
    <g id="ytick_6">
     <g id="line2d_25">
      <path d="M 53.35 32.686985 
L 557.667188 32.686985 
" clip-path="url(#pfff471fd0b)" style="fill: none; stroke-dasharray: 2.96,1.28; stroke-dashoffset: 0; stroke: #b0b0b0; stroke-opacity: 0.8; stroke-width: 0.8"/>
     </g>
     <g id="line2d_26">
      <g>
       <use xlink:href="#m3be6fda6a4" x="53.35" y="32.686985" style="stroke: #000000; stroke-width: 0.8"/>
      </g>
     </g>
     <g id="text_14">
      <!-- 1000 -->
      <g transform="translate(20.9 36.486204) scale(0.1 -0.1)">
       <use xlink:href="#DejaVuSans-31"/>
       <use xlink:href="#DejaVuSans-30" transform="translate(63.623047 0)"/>
       <use xlink:href="#DejaVuSans-30" transform="translate(127.246094 0)"/>
       <use xlink:href="#DejaVuSans-30" transform="translate(190.869141 0)"/>
      </g>
     </g>
    </g>
    <g id="text_15">
     <!-- Magnitude, $\left| X(f) \right|$ -->
     <g transform="translate(14.8 178.17) rotate(-90) scale(0.1 -0.1)">
      <defs>
       <path id="DejaVuSans-61" d="M 2194 1759 
Q 1497 1759 1228 1600 
Q 959 1441 959 1056 
Q 959 750 1161 570 
Q 1363 391 1709 391 
Q 2188 391 2477 730 
Q 2766 1069 2766 1631 
L 2766 1759 
L 2194 1759 
z
M 3341 1997 
L 3341 0 
L 2766 0 
L 2766 531 
Q 2569 213 2275 61 
Q 1981 -91 1556 -91 
Q 1019 -91 701 211 
Q 384 513 384 1019 
Q 384 1609 779 1909 
Q 1175 2209 1959 2209 
L 2766 2209 
L 2766 2266 
Q 2766 2663 2505 2880 
Q 2244 3097 1772 3097 
Q 1472 3097 1187 3025 
Q 903 2953 641 2809 
L 641 3341 
Q 956 3463 1253 3523 
Q 1550 3584 1831 3584 
Q 2591 3584 2966 3190 
Q 3341 2797 3341 1997 
z
" transform="scale(0.015625)"/>
       <path id="DejaVuSans-67" d="M 2906 1791 
Q 2906 2416 2648 2759 
Q 2391 3103 1925 3103 
Q 1463 3103 1205 2759 
Q 947 2416 947 1791 
Q 947 1169 1205 825 
Q 1463 481 1925 481 
Q 2391 481 2648 825 
Q 2906 1169 2906 1791 
z
M 3481 434 
Q 3481 -459 3084 -895 
Q 2688 -1331 1869 -1331 
Q 1566 -1331 1297 -1286 
Q 1028 -1241 775 -1147 
L 775 -588 
Q 1028 -725 1275 -790 
Q 1522 -856 1778 -856 
Q 2344 -856 2625 -561 
Q 2906 -266 2906 331 
L 2906 616 
Q 2728 306 2450 153 
Q 2172 0 1784 0 
Q 1141 0 747 490 
Q 353 981 353 1791 
Q 353 2603 747 3093 
Q 1141 3584 1784 3584 
Q 2172 3584 2450 3431 
Q 2728 3278 2906 2969 
L 2906 3500 
L 3481 3500 
L 3481 434 
z
" transform="scale(0.015625)"/>
       <path id="DejaVuSans-69" d="M 603 3500 
L 1178 3500 
L 1178 0 
L 603 0 
L 603 3500 
z
M 603 4863 
L 1178 4863 
L 1178 4134 
L 603 4134 
L 603 4863 
z
" transform="scale(0.015625)"/>
       <path id="DejaVuSans-74" d="M 1172 4494 
L 1172 3500 
L 2356 3500 
L 2356 3053 
L 1172 3053 
L 1172 1153 
Q 1172 725 1289 603 
Q 1406 481 1766 481 
L 2356 481 
L 2356 0 
L 1766 0 
Q 1100 0 847 248 
Q 594 497 594 1153 
L 594 3053 
L 172 3053 
L 172 3500 
L 594 3500 
L 594 4494 
L 1172 4494 
z
" transform="scale(0.015625)"/>
       <path id="DejaVuSans-64" d="M 2906 2969 
L 2906 4863 
L 3481 4863 
L 3481 0 
L 2906 0 
L 2906 525 
Q 2725 213 2448 61 
Q 2172 -91 1784 -91 
Q 1150 -91 751 415 
Q 353 922 353 1747 
Q 353 2572 751 3078 
Q 1150 3584 1784 3584 
Q 2172 3584 2448 3432 
Q 2725 3281 2906 2969 
z
M 947 1747 
Q 947 1113 1208 752 
Q 1469 391 1925 391 
Q 2381 391 2643 752 
Q 2906 1113 2906 1747 
Q 2906 2381 2643 2742 
Q 2381 3103 1925 3103 
Q 1469 3103 1208 2742 
Q 947 2381 947 1747 
z
" transform="scale(0.015625)"/>
       <path id="DejaVuSans-7c" d="M 1344 4891 
L 1344 -1509 
L 813 -1509 
L 813 4891 
L 1344 4891 
z
" transform="scale(0.015625)"/>
       <path id="DejaVuSans-Oblique-58" d="M 878 4666 
L 1516 4666 
L 2316 2981 
L 3763 4666 
L 4500 4666 
L 2578 2438 
L 3738 0 
L 3103 0 
L 2163 1966 
L 459 0 
L -275 0 
L 1906 2509 
L 878 4666 
z
" transform="scale(0.015625)"/>
      </defs>
      <use xlink:href="#DejaVuSans-4d" transform="translate(0 0.015625)"/>
      <use xlink:href="#DejaVuSans-61" transform="translate(86.279297 0.015625)"/>
      <use xlink:href="#DejaVuSans-67" transform="translate(147.558594 0.015625)"/>
      <use xlink:href="#DejaVuSans-6e" transform="translate(211.035156 0.015625)"/>
      <use xlink:href="#DejaVuSans-69" transform="translate(274.414062 0.015625)"/>
      <use xlink:href="#DejaVuSans-74" transform="translate(302.197266 0.015625)"/>
      <use xlink:href="#DejaVuSans-75" transform="translate(341.40625 0.015625)"/>
      <use xlink:href="#DejaVuSans-64" transform="translate(404.785156 0.015625)"/>
      <use xlink:href="#DejaVuSans-65" transform="translate(468.261719 0.015625)"/>
      <use xlink:href="#DejaVuSans-2c" transform="translate(529.785156 0.015625)"/>
      <use xlink:href="#DejaVuSans-20" transform="translate(561.572266 0.015625)"/>
      <use xlink:href="#DejaVuSans-7c" transform="translate(593.359375 7.8125) scale(0.891719)"/>
      <use xlink:href="#DejaVuSans-Oblique-58" transform="translate(623.386841 0.015625)"/>
      <use xlink:href="#DejaVuSans-28" transform="translate(691.8927 0.015625)"/>
      <use xlink:href="#DejaVuSans-Oblique-66" transform="translate(730.906372 0.015625)"/>
      <use xlink:href="#DejaVuSans-29" transform="translate(766.11145 0.015625)"/>
      <use xlink:href="#DejaVuSans-7c" transform="translate(805.125122 7.8125) scale(0.891719)"/>
     </g>
    </g>
   </g>
   <g id="line2d_27">
    <path d="M 53.349359 240.052816 
L 55.946512 237.576411 
L 56.796198 237.153949 
L 57.549693 237.018424 
L 58.271125 237.112634 
L 59.02462 237.43984 
L 59.890338 238.073325 
L 60.996533 239.183733 
L 61.76606 240.040938 
L 61.830187 239.966 
L 63.705909 237.942767 
L 64.667818 237.22705 
L 65.453377 236.902195 
L 66.174808 236.839235 
L 66.880208 237.002878 
L 67.633703 237.41311 
L 68.515453 238.161384 
L 69.701807 239.488967 
L 70.166729 240.045884 
L 70.230856 239.966278 
L 72.106578 237.814183 
L 73.052455 237.060644 
L 73.838014 236.707143 
L 74.543414 236.631205 
L 75.232782 236.786001 
L 75.970245 237.193011 
L 76.819931 237.934308 
L 77.942158 239.240313 
L 78.567398 240.051488 
L 78.631526 239.966671 
L 80.491216 237.686919 
L 81.437093 236.874854 
L 82.20662 236.49403 
L 82.879956 236.397746 
L 83.53726 236.526154 
L 84.24266 236.901958 
L 85.04425 237.598127 
L 86.070286 238.81329 
L 86.968068 240.049172 
L 87.048227 239.944522 
L 88.891885 237.526417 
L 89.82173 236.665975 
L 90.575225 236.254737 
L 91.23253 236.137064 
L 91.873802 236.248952 
L 92.547138 236.602902 
L 93.316665 237.278338 
L 94.262542 238.428006 
L 95.384769 240.040877 
L 95.464928 239.919212 
L 97.292554 237.344429 
L 98.206368 236.429291 
L 98.943831 235.983906 
L 99.585103 235.842495 
L 100.194312 235.930946 
L 100.835585 236.2561 
L 101.557016 236.886157 
L 102.438766 237.974665 
L 103.737343 239.981004 
L 103.785438 240.047442 
L 103.833534 239.968774 
L 105.693224 237.136273 
L 106.607037 236.144805 
L 107.328469 235.667286 
L 107.953709 235.505499 
L 108.546886 235.580135 
L 109.156095 235.886853 
L 109.845463 236.498069 
L 110.679117 237.559154 
L 111.833408 239.43126 
L 112.186107 240.051933 
L 112.250235 239.941479 
L 114.093893 236.895805 
L 114.991674 235.830897 
L 115.697074 235.309327 
L 116.306283 235.117701 
L 116.867396 235.165861 
L 117.444542 235.440685 
L 118.085814 236.001417 
L 118.855341 236.988543 
L 119.865345 238.678434 
L 120.586777 240.04288 
L 120.650904 239.940349 
L 122.494562 236.614791 
L 123.392344 235.447239 
L 124.097743 234.872577 
L 124.690921 234.660586 
L 125.236002 234.697537 
L 125.797116 234.968826 
L 126.422356 235.538537 
L 127.159819 236.5356 
L 128.121728 238.25016 
L 129.003478 240.04103 
L 129.067605 239.90515 
L 130.911263 236.254966 
L 131.793013 234.992036 
L 132.482381 234.364051 
L 133.059526 234.120333 
L 133.588576 234.137109 
L 134.117626 234.386193 
L 134.710803 234.933015 
L 135.400171 235.893526 
L 136.28192 237.539603 
L 137.404147 240.050519 
L 137.500338 239.82499 
L 139.311933 235.851338 
L 140.177651 234.46395 
L 140.850987 233.762695 
L 141.4121 233.472846 
L 141.909086 233.454923 
L 142.406072 233.665326 
L 142.951154 234.153373 
L 143.592426 235.049647 
L 144.394017 236.590772 
L 145.516244 239.294216 
L 145.804816 240.044797 
L 145.852912 239.93632 
L 147.744666 235.289026 
L 148.610383 233.744607 
L 149.267688 232.981705 
L 149.812769 232.661601 
L 150.293724 232.630579 
L 150.758646 232.829234 
L 151.271664 233.305622 
L 151.880873 234.202918 
L 152.634368 235.751444 
L 153.644372 238.396316 
L 154.221518 240.029602 
L 154.269613 239.887102 
L 156.161367 234.61942 
L 157.011053 232.890532 
L 157.668357 232.010806 
L 158.197407 231.641499 
L 158.646298 231.582018 
L 159.079156 231.750857 
L 159.560111 232.197304 
L 160.121224 233.048821 
L 160.810592 234.537201 
L 161.708374 237.064575 
L 162.622187 240.041744 
L 162.686314 239.82338 
L 164.5941 233.708007 
L 165.443786 231.718928 
L 166.085058 230.727193 
L 166.598076 230.302774 
L 167.030935 230.218451 
L 167.43173 230.370067 
L 167.880621 230.802017 
L 168.409671 231.656288 
L 169.050943 233.15551 
L 169.868566 235.689336 
L 171.022856 240.048918 
L 171.119047 239.67374 
L 173.042864 232.428131 
L 173.876519 230.132937 
L 174.517791 228.961874 
L 175.014777 228.470687 
L 175.415573 228.359415 
L 175.784304 228.488679 
L 176.185099 228.882457 
L 176.666054 229.697165 
L 177.259231 231.18894 
L 177.996694 233.706491 
L 178.990667 237.974465 
L 179.423525 240.025753 
L 179.487653 239.772326 
L 181.523693 230.484583 
L 182.341315 227.776637 
L 182.966556 226.398187 
L 183.44751 225.816138 
L 183.816242 225.673366 
L 184.15291 225.781006 
L 184.521642 226.162631 
L 184.9545 226.959929 
L 185.499582 228.481914 
L 186.172918 231.092575 
L 187.038636 235.423577 
L 187.840227 240.019397 
L 187.904354 239.630823 
L 190.052617 227.267283 
L 190.854207 223.960367 
L 191.463416 222.295927 
L 191.928338 221.603494 
L 192.265007 221.439102 
L 192.553579 221.531987 
L 192.874215 221.892627 
L 193.275011 222.725599 
L 193.771997 224.338022 
L 194.381206 227.142837 
L 195.150733 231.831 
L 196.208832 239.802352 
L 196.240896 240.045209 
L 196.288991 239.654737 
L 198.709795 220.858547 
L 199.479322 216.728559 
L 200.056467 214.71597 
L 200.473294 213.936517 
L 200.777899 213.753229 
L 201.018376 213.848419 
L 201.290916 214.21819 
L 201.643616 215.11549 
L 202.092507 216.942177 
L 202.637589 220.169218 
L 203.310925 225.58367 
L 204.176643 234.515689 
L 204.641565 240.009666 
L 204.705692 239.31143 
L 207.735705 203.353197 
L 208.409041 198.416416 
L 208.906027 196.17646 
L 209.258727 195.419307 
L 209.483172 195.326414 
L 209.675554 195.498897 
L 209.932063 196.103374 
L 210.268731 197.567836 
L 210.685558 200.470467 
L 211.198576 205.738136 
L 211.807785 214.438323 
L 212.545248 228.426458 
L 213.058266 239.861267 
L 213.106362 238.671508 
L 214.132398 210.371299 
L 215.623356 162.299639 
L 217.996064 86.140544 
L 219.0221 60.374314 
L 219.807659 45.738903 
L 220.4329 37.820441 
L 220.913854 34.165975 
L 221.266554 32.882275 
L 221.490999 32.688784 
L 221.651317 32.848331 
L 221.875763 33.487879 
L 222.180367 35.127631 
L 222.581162 38.618234 
L 223.09418 45.224149 
L 223.735453 56.644432 
L 224.537043 75.291121 
L 225.579111 105.243043 
L 227.34261 163.616896 
L 229.170237 221.609808 
L 229.859605 240.018544 
L 229.891668 239.296413 
L 230.821514 219.129583 
L 231.59104 206.881884 
L 232.232313 199.922059 
L 232.745331 196.477091 
L 233.146126 195.060078 
L 233.434699 194.704039 
L 233.627081 194.763252 
L 233.851526 195.120517 
L 234.15613 196.078699 
L 234.572957 198.210376 
L 235.118039 202.265272 
L 235.855502 209.598993 
L 236.961697 223.141539 
L 238.260274 239.978426 
L 238.30837 239.530944 
L 239.46266 226.594235 
L 240.280282 219.688663 
L 240.937587 215.84874 
L 241.450605 213.998715 
L 241.8514 213.265476 
L 242.139973 213.120147 
L 242.38045 213.238232 
L 242.669022 213.658267 
L 243.053786 214.669057 
L 243.550772 216.678478 
L 244.192044 220.287772 
L 245.073794 226.666818 
L 246.676975 240.0086 
L 246.757134 239.342457 
L 248.007616 229.896937 
L 248.84127 225.138883 
L 249.498574 222.553635 
L 250.011592 221.32777 
L 250.412387 220.868821 
L 250.716992 220.812175 
L 251.005564 220.9871 
L 251.358264 221.493548 
L 251.807155 222.57905 
L 252.3843 224.63213 
L 253.137795 228.236049 
L 254.24399 234.774624 
L 255.077645 240.048686 
L 255.12574 239.746866 
L 256.472412 232.002838 
L 257.322098 228.310314 
L 257.979402 226.344902 
L 258.49242 225.417717 
L 258.909248 225.072107 
L 259.245916 225.060691 
L 259.582584 225.284464 
L 259.983379 225.846853 
L 260.480365 226.963195 
L 261.121638 229.01164 
L 261.971324 232.558083 
L 263.462282 239.953069 
L 263.478314 240.034087 
L 263.526409 239.830274 
L 264.937209 233.289967 
L 265.786895 230.320933 
L 266.444199 228.744822 
L 266.973249 227.992629 
L 267.390076 227.738916 
L 267.758808 227.764764 
L 268.143571 228.037705 
L 268.592462 228.660693 
L 269.153575 229.865539 
L 269.858975 231.958321 
L 270.836915 235.635541 
L 271.895015 240.021534 
L 271.959142 239.750857 
L 273.385973 234.212686 
L 274.251691 231.68978 
L 274.908996 230.388775 
L 275.438045 229.778682 
L 275.870904 229.582866 
L 276.255668 229.639254 
L 276.672495 229.940208 
L 277.153449 230.5832 
L 277.746626 231.774759 
L 278.516153 233.870415 
L 279.622348 237.611757 
L 280.295684 240.042786 
L 280.34378 239.867882 
L 281.818706 234.924028 
L 282.684424 232.749088 
L 283.35776 231.607553 
L 283.902842 231.084834 
L 284.351733 230.936933 
L 284.76856 231.029165 
L 285.21745 231.369823 
L 285.7465 232.074954 
L 286.403804 233.36056 
L 287.25349 235.560487 
L 288.66429 239.945568 
L 288.696354 240.048189 
L 288.744449 239.905105 
L 290.251439 235.460993 
L 291.117157 233.552386 
L 291.790493 232.55337 
L 292.335575 232.099408 
L 292.800497 231.97538 
L 293.249388 232.086564 
L 293.730342 232.450712 
L 294.291456 233.175909 
L 294.980824 234.456965 
L 295.894637 236.665879 
L 297.097023 240.035574 
L 297.177182 239.842772 
L 298.684172 235.880723 
L 299.54989 234.182623 
L 300.239258 233.28147 
L 300.800371 232.884946 
L 301.281326 232.797536 
L 301.746248 232.935039 
L 302.259266 233.331983 
L 302.868475 234.113164 
L 303.62197 235.478923 
L 304.648006 237.848613 
L 305.513724 240.040281 
L 305.577851 239.874913 
L 307.116905 236.217854 
L 307.998655 234.66723 
L 308.688023 233.870013 
L 309.265168 233.522241 
L 309.762154 233.467232 
L 310.25914 233.63819 
L 310.804222 234.075514 
L 311.445494 234.896072 
L 312.247085 236.310515 
L 313.417407 238.884306 
L 313.914393 240.052314 
L 313.962489 239.939042 
L 315.533606 236.524522 
L 316.415356 235.108384 
L 317.104724 234.380782 
L 317.681869 234.064265 
L 318.210919 234.019715 
L 318.723937 234.200429 
L 319.301082 234.655985 
L 319.974418 235.493164 
L 320.824104 236.93275 
L 322.154744 239.696547 
L 322.315063 240.04462 
L 322.37919 239.923411 
L 323.950307 236.780831 
L 324.848089 235.458529 
L 325.553488 234.786393 
L 326.146666 234.506802 
L 326.691747 234.490599 
L 327.236829 234.703517 
L 327.846038 235.198786 
L 328.567469 236.097682 
L 329.497314 237.646378 
L 330.731764 240.038826 
L 330.811923 239.877832 
L 332.38304 236.972748 
L 333.280822 235.756201 
L 333.986221 235.142362 
L 334.59543 234.888787 
L 335.156544 234.89217 
L 335.717657 235.120646 
L 336.342898 235.625337 
L 337.096393 236.541263 
L 338.090365 238.137939 
L 339.132433 240.048474 
L 339.212592 239.898349 
L 340.799741 237.161252 
L 341.697523 236.028761 
L 342.418954 235.449197 
L 343.044195 235.219041 
L 343.62134 235.240709 
L 344.214517 235.494104 
L 344.871821 236.030756 
L 345.65738 236.976465 
L 346.731512 238.654893 
L 347.533102 240.050144 
L 347.597229 239.944324 
L 349.216442 237.32493 
L 350.130256 236.250522 
L 350.867719 235.70816 
L 351.49296 235.507663 
L 352.086137 235.546543 
L 352.695346 235.814692 
L 353.384713 236.376773 
L 354.218368 237.366994 
L 355.38869 239.144516 
L 355.949803 240.037833 
L 355.997899 239.958365 
L 357.633144 237.468388 
L 358.546957 236.459464 
L 359.28442 235.951565 
L 359.925693 235.763837 
L 360.534901 235.813205 
L 361.160142 236.090016 
L 361.865542 236.655805 
L 362.73126 237.65676 
L 363.981741 239.485552 
L 364.350473 240.04591 
L 364.398568 239.970816 
L 366.049845 237.595156 
L 366.97969 236.630997 
L 367.733185 236.152922 
L 368.390489 235.98879 
L 369.01573 236.059558 
L 369.673034 236.366273 
L 370.410497 236.968398 
L 371.324311 238.021636 
L 372.751142 240.053143 
L 372.879396 239.863423 
L 374.482578 237.689436 
L 375.412423 236.784012 
L 376.165918 236.339558 
L 376.839254 236.191771 
L 377.480526 236.277469 
L 378.153862 236.597926 
L 378.923389 237.224656 
L 379.885298 238.317357 
L 381.167843 240.037086 
L 381.264034 239.901747 
L 382.899279 237.791465 
L 383.845156 236.921401 
L 384.614683 236.501478 
L 385.30405 236.374696 
L 385.961355 236.480122 
L 386.666754 236.829751 
L 387.468345 237.490985 
L 388.494381 238.649861 
L 389.568512 240.044049 
L 389.648671 239.936471 
L 391.31598 237.883397 
L 392.261857 237.056465 
L 393.031384 236.658929 
L 393.720752 236.541025 
L 394.394088 236.649788 
L 395.115519 237.00207 
L 395.933142 237.6615 
L 396.991241 238.822423 
L 397.969182 240.050394 
L 398.049341 239.947546 
L 399.732681 237.966663 
L 400.69459 237.168481 
L 401.480148 236.791783 
L 402.185548 236.692665 
L 402.874916 236.820139 
L 403.612379 237.190494 
L 404.462065 237.878111 
L 405.600324 239.113827 
L 406.369851 240.050841 
L 406.45001 239.95766 
L 408.149382 238.042436 
L 409.111291 237.280525 
L 409.912881 236.917986 
L 410.634313 236.831684 
L 411.339713 236.972282 
L 412.093208 237.355262 
L 412.974957 238.065647 
L 414.177343 239.34899 
L 414.786552 240.042619 
L 414.850679 239.966938 
L 416.566083 238.111686 
L 417.544024 237.373623 
L 418.345614 237.033726 
L 419.083078 236.95973 
L 419.804509 237.113127 
L 420.590068 237.519042 
L 421.503881 238.256011 
L 422.802458 239.622509 
L 423.187221 240.048279 
L 423.251349 239.975484 
L 424.982784 238.175224 
L 425.960725 237.46817 
L 426.778347 237.140296 
L 427.51581 237.077023 
L 428.253274 237.23814 
L 429.054864 237.651515 
L 430.000741 238.405703 
L 431.395509 239.843039 
L 431.587891 240.053523 
L 431.652018 239.983386 
L 433.415517 238.220325 
L 434.393458 237.546796 
L 435.21108 237.238783 
L 435.964575 237.186749 
L 436.71807 237.3602 
L 437.535693 237.785573 
L 438.513633 238.560715 
L 440.132846 239.906221 
L 441.832218 238.274885 
L 442.826191 237.619653 
L 443.659845 237.326924 
L 444.429372 237.290564 
L 445.198899 237.480715 
L 446.048585 237.932845 
L 447.074621 238.750512 
L 448.517484 239.932199 
L 450.248919 238.325446 
L 451.242892 237.695049 
L 452.076546 237.415071 
L 452.862105 237.384556 
L 453.647663 237.581964 
L 454.513381 238.041114 
L 455.571481 238.874084 
L 456.918153 239.940677 
L 458.66562 238.372436 
L 459.675625 237.757811 
L 460.525311 237.491655 
L 461.310869 237.474172 
L 462.11246 237.683238 
L 462.99421 238.153602 
L 464.084373 239.005007 
L 465.318822 239.948604 
L 467.082322 238.416221 
L 468.092326 237.8235 
L 468.958044 237.566042 
L 469.759634 237.558446 
L 470.577257 237.778976 
L 471.475038 238.260297 
L 472.613297 239.143272 
L 473.70346 239.970885 
L 475.499023 238.457121 
L 476.525059 237.878166 
L 477.390776 237.635815 
L 478.208399 237.637908 
L 479.042053 237.869722 
L 479.971898 238.372291 
L 481.158252 239.288828 
L 482.104129 239.977437 
L 483.915724 238.495414 
L 484.94176 237.935962 
L 485.823509 237.701417 
L 486.641132 237.710637 
L 487.490818 237.949327 
L 488.436695 238.458405 
L 489.671144 239.400783 
L 490.504798 239.983609 
L 492.332425 238.531343 
L 493.374493 237.984038 
L 494.256242 237.763237 
L 495.089897 237.781658 
L 495.939583 238.024733 
L 496.901491 238.540277 
L 498.168004 239.494169 
L 498.921499 239.975796 
L 500.749126 238.565122 
L 501.791194 238.035328 
L 502.688975 237.821619 
L 503.538661 237.849102 
L 504.404379 238.102959 
L 505.398351 238.638995 
L 506.728992 239.635397 
L 507.322169 239.981663 
L 509.165827 238.596942 
L 510.223927 238.077972 
L 511.121708 237.876863 
L 511.971394 237.910547 
L 512.853144 238.171058 
L 513.863148 238.713258 
L 515.257916 239.744859 
L 515.722838 239.987221 
L 517.582528 238.626968 
L 518.640628 238.123835 
L 519.554441 237.929239 
L 520.420159 237.971616 
L 521.31794 238.242681 
L 522.343976 238.794505 
L 523.802871 239.862007 
L 524.123507 239.992494 
L 525.999229 238.655351 
L 527.073361 238.161953 
L 527.987174 237.978985 
L 528.868924 238.029956 
L 529.782737 238.311436 
L 530.840836 238.882844 
L 532.395922 240.010901 
L 532.540208 239.985187 
L 534.41593 238.682222 
L 535.490062 238.203241 
L 536.419907 238.026314 
L 537.301657 238.082749 
L 538.231502 238.370697 
L 539.305633 238.947762 
L 541.037069 239.918125 
L 542.848663 238.698929 
L 543.922795 238.23755 
L 544.85264 238.071417 
L 545.750421 238.136157 
L 546.696298 238.434309 
L 547.802493 239.030317 
L 549.421706 239.936309 
L 551.265364 238.723355 
L 552.355528 238.270286 
L 553.301405 238.113803 
L 554.215218 238.1907 
L 555.177127 238.50262 
L 556.315385 239.12035 
L 557.678089 240.045695 
L 557.678089 240.045695 
" clip-path="url(#pfff471fd0b)" style="fill: none; stroke: #1f77b4; stroke-linecap: square"/>
   </g>
   <g id="line2d_28">
    <path d="M 53.349359 238.902091 
L 54.872381 239.389684 
L 56.63588 239.950651 
L 60.291133 238.714431 
L 61.58971 238.609581 
L 62.856223 238.731201 
L 64.234959 239.094488 
L 66.062585 239.829976 
L 66.655762 239.975147 
L 67.794021 239.487988 
L 69.605616 238.838955 
L 70.952288 238.587311 
L 72.202769 238.579054 
L 73.469282 238.795955 
L 74.912145 239.277692 
L 76.835963 239.941991 
L 80.202643 238.666271 
L 81.469156 238.5015 
L 82.687574 238.566863 
L 83.970119 238.864592 
L 85.509173 239.466194 
L 86.871877 239.963497 
L 90.847766 238.507571 
L 92.066184 238.439729 
L 93.26857 238.597751 
L 94.583178 239.001912 
L 96.330646 239.795945 
L 96.923823 239.978241 
L 97.917795 239.497288 
L 99.72939 238.740247 
L 101.027967 238.431896 
L 102.214321 238.376051 
L 103.400675 238.546574 
L 104.699251 238.967061 
L 106.414655 239.780113 
L 107.023864 239.97534 
L 108.114027 239.423433 
L 109.845463 238.678248 
L 111.128008 238.363059 
L 112.282298 238.304017 
L 113.436589 238.468602 
L 114.703102 238.883081 
L 116.322315 239.668134 
L 117.107874 239.978445 
L 118.069782 239.470037 
L 119.849313 238.651645 
L 121.115827 238.307328 
L 122.254085 238.223378 
L 123.376312 238.36322 
L 124.59473 238.747362 
L 126.085688 239.467808 
L 127.223947 239.967998 
L 128.730937 239.140474 
L 130.253959 238.478182 
L 131.456345 238.190411 
L 132.56254 238.151287 
L 133.668735 238.335922 
L 134.887153 238.773995 
L 136.426207 239.583224 
L 137.307956 239.971182 
L 138.574469 239.237217 
L 140.161619 238.474248 
L 141.364005 238.134263 
L 142.454168 238.05278 
L 143.528299 238.195786 
L 144.68259 238.58033 
L 146.077357 239.295649 
L 147.424029 239.958221 
L 150.951028 238.161545 
L 152.057223 237.96571 
L 153.099291 238.00441 
L 154.173422 238.26905 
L 155.375808 238.801631 
L 157.011053 239.793459 
L 157.475975 239.978187 
L 158.421852 239.372025 
L 160.105192 238.425125 
L 161.307578 237.996718 
L 162.365678 237.851032 
L 163.391714 237.935401 
L 164.465845 238.254709 
L 165.684263 238.860269 
L 167.688239 239.904128 
L 170.333488 238.278494 
L 171.487779 237.869084 
L 172.513815 237.735496 
L 173.507787 237.82931 
L 174.549855 238.156062 
L 175.736209 238.771409 
L 177.788281 239.893571 
L 180.35337 238.220162 
L 181.491629 237.775393 
L 182.501633 237.613316 
L 183.479574 237.683696 
L 184.489578 237.986689 
L 185.627837 238.573749 
L 187.118795 239.617219 
L 187.760067 239.972315 
L 188.898326 239.115191 
L 190.43738 238.123148 
L 191.559607 237.654982 
L 192.553579 237.477523 
L 193.499456 237.535043 
L 194.477397 237.823887 
L 195.56756 238.390586 
L 196.946296 239.379245 
L 197.860109 239.966014 
L 199.431226 238.729094 
L 200.777899 237.878056 
L 201.835998 237.460347 
L 202.781875 237.31901 
L 203.695688 237.405579 
L 204.641565 237.721137 
L 205.715697 238.326154 
L 207.0784 239.370109 
L 207.944118 239.970315 
L 209.146504 238.951606 
L 210.605399 237.896689 
L 211.67953 237.379907 
L 212.625407 237.16453 
L 213.523189 237.188884 
L 214.437002 237.443258 
L 215.430974 237.961543 
L 216.63336 238.857953 
L 218.076223 239.936327 
L 220.977981 237.587262 
L 221.987985 237.13089 
L 222.885767 236.96125 
L 223.751485 237.024196 
L 224.633234 237.314862 
L 225.611175 237.880829 
L 226.797529 238.84048 
L 228.160233 239.939467 
L 231.078023 237.414105 
L 232.071995 236.932143 
L 232.953744 236.747799 
L 233.787399 236.800252 
L 234.637085 237.079605 
L 235.56693 237.626341 
L 236.689157 238.560752 
L 238.276306 239.91131 
L 240.873459 237.431021 
L 241.883464 236.820088 
L 242.765213 236.53879 
L 243.582836 236.510996 
L 244.384426 236.706252 
L 245.250144 237.153256 
L 246.244116 237.930651 
L 247.542693 239.255255 
L 248.296188 239.978449 
L 248.31222 239.963307 
L 251.646837 236.748886 
L 252.528586 236.343965 
L 253.330177 236.213035 
L 254.099704 236.310887 
L 254.901295 236.642439 
L 255.783044 237.256366 
L 256.857176 238.295003 
L 258.380198 239.984864 
L 258.460357 239.89614 
L 260.945288 237.093748 
L 261.93926 236.34797 
L 262.772914 235.984136 
L 263.542441 235.886877 
L 264.279904 236.017136 
L 265.049431 236.381703 
L 265.915149 237.048339 
L 266.957217 238.148277 
L 268.464207 239.991835 
L 268.560398 239.875989 
L 270.949138 236.916932 
L 271.94311 236.071005 
L 272.776765 235.641296 
L 273.514228 235.503181 
L 274.219628 235.59413 
L 274.957091 235.92068 
L 275.774713 236.542027 
L 276.736622 237.573112 
L 278.035199 239.327169 
L 278.548217 239.999054 
L 278.58028 239.963643 
L 281.85077 235.82411 
L 282.684424 235.281484 
L 283.405856 235.063672 
L 284.079192 235.085085 
L 284.76856 235.334002 
L 285.506023 235.844938 
L 286.355709 236.7167 
L 287.413809 238.142326 
L 288.632226 240.005556 
L 288.712385 239.898932 
L 291.22938 236.127447 
L 292.175257 235.166037 
L 292.944784 234.679644 
L 293.634152 234.499085 
L 294.275424 234.559004 
L 294.932728 234.849242 
L 295.65416 235.423722 
L 296.487814 236.38865 
L 297.529882 237.959696 
L 298.732268 240.000237 
L 298.796395 239.900372 
L 301.329421 235.650859 
L 302.259266 234.585922 
L 303.012761 234.039334 
L 303.670066 233.824913 
L 304.279274 233.856819 
L 304.888483 234.112977 
L 305.561819 234.649684 
L 306.331346 235.564406 
L 307.277223 237.061142 
L 308.607864 239.633662 
L 308.816277 240.007678 
L 308.864373 239.93357 
L 311.653908 234.718446 
L 312.519626 233.675581 
L 313.225025 233.149096 
L 313.834234 232.954815 
L 314.411379 233.004373 
L 314.988525 233.283389 
L 315.629797 233.855786 
L 316.36726 234.832157 
L 317.265042 236.41629 
L 318.48346 239.062283 
L 318.900287 240.00855 
L 318.964414 239.904663 
L 321.577599 234.188367 
L 322.459349 232.864038 
L 323.18078 232.155294 
L 323.773957 231.859614 
L 324.319039 231.830683 
L 324.848089 232.029883 
L 325.425234 232.500493 
L 326.082538 233.345032 
L 326.868097 234.745811 
L 327.862069 237.017162 
L 329.000328 240.009794 
L 329.080487 239.821177 
L 331.485259 233.534354 
L 332.415104 231.766158 
L 333.136535 230.829059 
L 333.729712 230.389587 
L 334.24273 230.269014 
L 334.723685 230.382086 
L 335.236703 230.745506 
L 335.813848 231.448211 
L 336.487184 232.640019 
L 337.320838 234.608251 
L 338.39497 237.766438 
L 339.100369 240.002955 
L 339.148465 239.860739 
L 341.745618 231.690601 
L 342.627368 229.718867 
L 343.316736 228.665962 
L 343.877849 228.174307 
L 344.342772 228.034072 
L 344.775631 228.129019 
L 345.240553 228.476236 
L 345.769603 229.177726 
L 346.394844 230.411995 
L 347.148339 232.435203 
L 348.094216 235.667862 
L 349.184379 240.010084 
L 349.264538 239.721223 
L 351.829628 229.441179 
L 352.727409 226.816705 
L 353.416777 225.415227 
L 353.961859 224.749239 
L 354.410749 224.519173 
L 354.795513 224.561025 
L 355.196308 224.844372 
L 355.645199 225.45374 
L 356.190281 226.602985 
L 356.847585 228.560165 
L 357.649175 231.711854 
L 358.675211 236.733149 
L 359.28442 240.005004 
L 359.332516 239.755297 
L 362.250305 224.017333 
L 363.099991 220.806981 
L 363.757296 219.112222 
L 364.254282 218.3619 
L 364.639045 218.121671 
L 364.959681 218.159096 
L 365.29635 218.437224 
L 365.697145 219.09248 
L 366.178099 220.346015 
L 366.755244 222.513501 
L 367.460644 226.098883 
L 368.326362 231.756927 
L 369.36843 239.990444 
L 369.464621 239.280152 
L 373.007651 209.933473 
L 373.777178 205.829597 
L 374.354323 203.805008 
L 374.787182 202.970774 
L 375.107818 202.764336 
L 375.348295 202.851639 
L 375.620836 203.210897 
L 375.973536 204.099724 
L 376.406395 205.864735 
L 376.935445 209.058088 
L 377.560685 214.323554 
L 378.298149 222.597027 
L 379.163867 235.035781 
L 379.468471 240.010214 
L 379.516566 239.216767 
L 380.622761 218.299219 
L 382.145784 184.8393 
L 385.4804 110.432172 
L 386.586595 91.208412 
L 387.452313 79.669273 
L 388.157713 72.932565 
L 388.718826 69.428076 
L 389.151685 67.894128 
L 389.472321 67.42662 
L 389.680735 67.429809 
L 389.90518 67.703926 
L 390.193753 68.467498 
L 390.578516 70.19873 
L 391.059471 73.486968 
L 391.652648 79.199383 
L 392.374079 88.451434 
L 393.255829 102.805771 
L 394.378056 124.959396 
L 396.09346 163.844516 
L 398.642518 221.049986 
L 399.652522 239.992988 
L 399.668554 239.819632 
L 400.726653 223.717126 
L 401.576339 213.937716 
L 402.297771 207.973119 
L 402.90698 204.620508 
L 403.403966 203.003329 
L 403.772697 202.429886 
L 404.045238 202.335861 
L 404.301747 202.493804 
L 404.606352 202.978918 
L 405.007147 204.082209 
L 405.520165 206.202068 
L 406.193501 210.034394 
L 407.075251 216.47311 
L 408.437955 228.306941 
L 409.752563 240.001407 
L 409.784627 239.742138 
L 411.099235 229.45394 
L 412.02908 223.821751 
L 412.782576 220.524523 
L 413.391784 218.763701 
L 413.872739 217.960657 
L 414.257502 217.689788 
L 414.578138 217.711663 
L 414.914807 217.970117 
L 415.331634 218.610819 
L 415.844652 219.855792 
L 416.485924 222.047693 
L 417.319578 225.770707 
L 418.505932 232.221259 
L 419.836573 240.001451 
L 419.9007 239.715015 
L 421.359595 232.01852 
L 422.305472 228.149484 
L 423.058967 225.92434 
L 423.668176 224.746781 
L 424.165162 224.215305 
L 424.581989 224.0687 
L 424.966752 224.1722 
L 425.38358 224.535518 
L 425.880566 225.293623 
L 426.489775 226.666355 
L 427.259301 229.003025 
L 428.285337 232.906644 
L 429.936614 240.013639 
L 430.016773 239.700546 
L 431.555827 233.566576 
L 432.517736 230.600799 
L 433.271231 228.933345 
L 433.896472 228.044467 
L 434.409489 227.666858 
L 434.85838 227.599056 
L 435.291239 227.762611 
L 435.772193 228.199178 
L 436.349339 229.056092 
L 437.054738 230.545985 
L 437.95252 233.017919 
L 439.267128 237.379291 
L 440.036655 240.006617 
L 440.084751 239.856538 
L 441.784123 234.423385 
L 442.73 232.118877 
L 443.483495 230.813565 
L 444.108736 230.134461 
L 444.637785 229.860541 
L 445.11874 229.853072 
L 445.599694 230.071935 
L 446.144776 230.582522 
L 446.786048 231.51397 
L 447.571607 233.078995 
L 448.613675 235.703441 
L 450.120665 240.013932 
L 450.216856 239.776791 
L 451.884164 235.301931 
L 452.862105 233.292026 
L 453.631632 232.176823 
L 454.272904 231.605308 
L 454.834017 231.386504 
L 455.347035 231.418536 
L 455.876085 231.67931 
L 456.469262 232.233477 
L 457.174662 233.220646 
L 458.04038 234.842046 
L 459.242766 237.613543 
L 460.220706 240.01317 
L 460.268802 239.916072 
L 462.224683 235.459816 
L 463.154528 233.910846 
L 463.908023 233.049496 
L 464.549295 232.627818 
L 465.126441 232.504156 
L 465.687554 232.616913 
L 466.280731 232.978363 
L 466.954067 233.670151 
L 467.755658 234.836081 
L 468.797725 236.781678 
L 470.320748 240.007912 
L 470.400907 239.848824 
L 472.212501 236.186759 
L 473.190442 234.703665 
L 473.976001 233.884229 
L 474.649337 233.481981 
L 475.258546 233.369105 
L 475.851723 233.489374 
L 476.476963 233.854089 
L 477.182363 234.537294 
L 478.032049 235.690893 
L 479.154276 237.625831 
L 480.404757 240.015229 
L 480.484916 239.887985 
L 482.408734 236.435981 
L 483.386674 235.147388 
L 484.188265 234.439759 
L 484.877632 234.115308 
L 485.502873 234.058744 
L 486.128114 234.227771 
L 486.80145 234.651426 
L 487.570977 235.414521 
L 488.516854 236.690675 
L 489.863526 238.929004 
L 490.504798 240.012768 
L 490.552894 239.946055 
L 492.781316 236.406117 
L 493.711161 235.390316 
L 494.496719 234.843095 
L 495.186087 234.622333 
L 495.843392 234.64494 
L 496.516728 234.900242 
L 497.254191 235.432729 
L 498.119909 236.353139 
L 499.226104 237.882897 
L 500.60484 240.008527 
L 500.684999 239.894381 
L 502.672943 236.963003 
L 503.666916 235.903186 
L 504.484538 235.334508 
L 505.20597 235.089246 
L 505.895338 235.089092 
L 506.584705 235.315317 
L 507.338201 235.806106 
L 508.21995 236.66345 
L 509.342177 238.090497 
L 510.704881 240.00377 
L 510.769008 239.919679 
L 512.869176 237.089474 
L 513.863148 236.145717 
L 514.696802 235.64669 
L 515.434265 235.454384 
L 516.139665 235.496944 
L 516.861097 235.764978 
L 517.662687 236.309521 
L 518.608564 237.236473 
L 519.891109 238.838094 
L 520.788891 240.012487 
L 520.836986 239.961475 
L 523.305885 236.964973 
L 524.251762 236.231218 
L 525.069384 235.866668 
L 525.822879 235.771637 
L 526.560343 235.905443 
L 527.345902 236.284146 
L 528.227651 236.968252 
L 529.333846 238.131249 
L 530.888932 240.008858 
L 530.985123 239.899847 
L 533.037195 237.506332 
L 534.079262 236.648315 
L 534.94498 236.210039 
L 535.730539 236.054912 
L 536.484034 236.129993 
L 537.269593 236.434863 
L 538.151343 237.027041 
L 539.225474 238.037798 
L 541.005005 239.990405 
L 541.101196 239.882225 
L 543.121204 237.673848 
L 544.179304 236.855352 
L 545.061053 236.439742 
L 545.862644 236.298864 
L 546.648203 236.386629 
L 547.465825 236.707407 
L 548.379638 237.314455 
L 549.501865 238.343549 
L 551.105046 239.986551 
L 551.169174 239.919507 
L 553.333468 237.711691 
L 554.391568 236.973744 
L 555.289349 236.610587 
L 556.106972 236.51399 
L 556.924594 236.645215 
L 557.678089 236.959044 
L 557.678089 236.959044 
" clip-path="url(#pfff471fd0b)" style="fill: none; stroke: #ff7f0e; stroke-linecap: square"/>
   </g>
   <g id="line2d_29">
    <path d="M 53.349359 239.581069 
L 54.663967 238.178996 
L 55.722067 237.282995 
L 56.539689 236.865592 
L 57.261121 236.736406 
L 57.950489 236.834325 
L 58.687952 237.173005 
L 59.521606 237.816071 
L 60.627801 238.981678 
L 61.445424 239.762583 
L 61.669869 239.660297 
L 62.29511 238.968657 
L 63.721941 237.464658 
L 64.60369 236.848126 
L 65.341154 236.587865 
L 66.030522 236.577319 
L 66.71989 236.794771 
L 67.473385 237.277917 
L 68.371166 238.136016 
L 69.974347 239.739 
L 70.294984 239.429322 
L 72.443246 237.05822 
L 73.260869 236.546073 
L 73.966268 236.358087 
L 74.623573 236.409949 
L 75.296909 236.6891 
L 76.050404 237.252655 
L 76.980249 238.248256 
L 78.358985 239.755281 
L 78.615494 239.523527 
L 81.164552 236.639735 
L 81.918047 236.234983 
L 82.575351 236.122265 
L 83.216624 236.237836 
L 83.88996 236.593751 
L 84.659487 237.267842 
L 85.637427 238.448688 
L 86.743622 239.766576 
L 86.952036 239.603972 
L 87.801722 238.429199 
L 89.004108 236.943938 
L 89.837762 236.240569 
L 90.543162 235.921911 
L 91.168402 235.874145 
L 91.793643 236.052343 
L 92.466979 236.487939 
L 93.252538 237.281168 
L 94.278574 238.665453 
L 95.144292 239.77017 
L 95.320642 239.64986 
L 95.913819 238.787445 
L 97.308586 236.861825 
L 98.158272 236.048126 
L 98.863672 235.66461 
L 99.488913 235.57344 
L 100.08209 235.710695 
L 100.723362 236.098613 
L 101.460825 236.826163 
L 102.374639 238.065613 
L 103.609088 239.760822 
L 103.817502 239.53082 
L 106.446719 235.86185 
L 107.152119 235.390577 
L 107.761327 235.237007 
L 108.338473 235.318939 
L 108.93165 235.632154 
L 109.604986 236.252051 
L 110.422608 237.329936 
L 111.657058 239.386414 
L 112.009757 239.769369 
L 112.186107 239.583344 
L 113.083889 238.019679 
L 114.254211 236.218379 
L 115.055802 235.358709 
L 115.713106 234.953225 
L 116.290251 234.844849 
L 116.851365 234.969575 
L 117.444542 235.34461 
L 118.117878 236.052964 
L 118.951532 237.283905 
L 120.44249 239.764747 
L 120.506618 239.70675 
L 120.875349 239.061802 
L 122.542658 236.079547 
L 123.376312 235.045493 
L 124.033616 234.553967 
L 124.610761 234.388562 
L 125.139811 234.465798 
L 125.684893 234.773835 
L 126.310133 235.399127 
L 127.063629 236.495272 
L 128.057601 238.372702 
L 128.859192 239.766821 
L 129.035541 239.512244 
L 131.648727 234.738284 
L 132.322063 234.109739 
L 132.883176 233.863834 
L 133.396194 233.873639 
L 133.909212 234.110133 
L 134.486357 234.639315 
L 135.159693 235.580604 
L 136.00938 237.181319 
L 137.275893 239.768999 
L 137.323988 239.719254 
L 137.628592 239.082083 
L 139.392092 235.242968 
L 140.209714 234.006522 
L 140.850987 233.407888 
L 141.380036 233.192359 
L 141.860991 233.226167 
L 142.357977 233.492838 
L 142.91909 234.068867 
L 143.576395 235.085832 
L 144.410049 236.819763 
L 145.676562 239.778825 
L 145.756721 239.687329 
L 146.157516 238.696913 
L 147.728634 234.860605 
L 148.562288 233.39595 
L 149.20356 232.678634 
L 149.73261 232.394314 
L 150.197533 232.38774 
L 150.662455 232.612359 
L 151.175473 233.123838 
L 151.784682 234.069727 
L 152.538177 235.68458 
L 153.580245 238.504628 
L 154.093263 239.78116 
L 154.125327 239.758408 
L 154.301677 239.345761 
L 156.530098 233.350303 
L 157.267562 232.101117 
L 157.844707 231.520634 
L 158.325661 231.331286 
L 158.75852 231.399333 
L 159.207411 231.71016 
L 159.720429 232.357967 
L 160.34567 233.542114 
L 161.131228 235.559221 
L 162.285519 239.234264 
L 162.509964 239.783233 
L 162.542028 239.759113 
L 162.718378 239.272052 
L 164.882672 232.508611 
L 165.620136 231.000491 
L 166.197281 230.267747 
L 166.662203 229.99667 
L 167.062999 230.003123 
L 167.463794 230.235476 
L 167.928716 230.785343 
L 168.48983 231.833489 
L 169.179198 233.642528 
L 170.076979 236.687989 
L 170.926665 239.784596 
L 170.990793 239.686593 
L 171.375556 238.210266 
L 172.994769 232.123994 
L 173.812391 229.865967 
L 174.437632 228.721005 
L 174.934618 228.229551 
L 175.335413 228.122979 
L 175.704145 228.260313 
L 176.10494 228.666721 
L 176.585895 229.501464 
L 177.179072 231.024294 
L 177.916535 233.58776 
L 178.926539 237.992784 
L 179.359398 239.782814 
L 179.391462 239.719355 
L 179.680034 238.411422 
L 181.475597 230.215082 
L 182.29322 227.501973 
L 182.902429 226.161106 
L 183.383383 225.581324 
L 183.752115 225.444302 
L 184.088783 225.560093 
L 184.457514 225.95363 
L 184.906405 226.805939 
L 185.451487 228.371613 
L 186.124823 231.039595 
L 187.006572 235.532364 
L 187.776099 239.786385 
L 187.824195 239.635167 
L 188.353245 236.449813 
L 189.924362 227.441348 
L 190.741984 223.95049 
L 191.351193 222.200251 
L 191.816116 221.441121 
L 192.168816 221.225959 
L 192.457388 221.290688 
L 192.778025 221.621549 
L 193.162788 222.379957 
L 193.643742 223.874342 
L 194.236919 226.513397 
L 194.974383 230.885448 
L 195.984387 238.349404 
L 196.1928 239.789406 
L 196.240896 239.577435 
L 196.946296 233.786074 
L 198.485349 221.876221 
L 199.302972 217.155293 
L 199.912181 214.80348 
L 200.361071 213.829674 
L 200.681708 213.564526 
L 200.922185 213.61188 
L 201.194726 213.927239 
L 201.531394 214.706598 
L 201.964253 216.344586 
L 202.493302 219.302227 
L 203.150607 224.358674 
L 203.984261 232.680336 
L 204.609502 239.786304 
L 204.673629 239.268916 
L 206.004269 222.285968 
L 207.334909 206.739654 
L 208.120468 199.951834 
L 208.697613 196.696619 
L 209.114441 195.443227 
L 209.386981 195.173549 
L 209.579363 195.260033 
L 209.803808 195.661325 
L 210.108413 196.740228 
L 210.493176 199.011052 
L 210.974131 203.314816 
L 211.551276 210.658348 
L 212.240644 222.504016 
L 213.042234 239.732299 
L 213.122393 237.861248 
L 214.132398 209.924469 
L 215.639388 161.361863 
L 217.964001 86.968205 
L 218.990037 61.182679 
L 219.775595 46.486762 
L 220.400836 38.490167 
L 220.88179 34.757659 
L 221.23449 33.407195 
L 221.458936 33.167218 
L 221.619254 33.291741 
L 221.827667 33.821848 
L 222.11624 35.239319 
L 222.501003 38.347077 
L 222.997989 44.360348 
L 223.62323 54.941915 
L 224.392757 72.092625 
L 225.386729 99.683479 
L 226.909751 149.063216 
L 229.138173 220.393122 
L 229.875637 239.793556 
L 229.9077 239.255077 
L 230.9658 216.984662 
L 231.703263 205.928201 
L 232.328504 199.591313 
L 232.82549 196.528361 
L 233.210253 195.319113 
L 233.482794 195.050941 
L 233.675176 195.143666 
L 233.915653 195.574649 
L 234.236289 196.666737 
L 234.669148 199.007039 
L 235.246294 203.483081 
L 236.01582 211.356196 
L 237.25027 226.650426 
L 238.292338 239.787394 
L 238.340433 239.472985 
L 239.911551 223.002115 
L 240.649014 217.789527 
L 241.242191 215.040223 
L 241.707114 213.824563 
L 242.043782 213.45955 
L 242.300291 213.466629 
L 242.5568 213.713819 
L 242.893468 214.389085 
L 243.326327 215.807778 
L 243.88744 218.475492 
L 244.624903 223.153155 
L 245.731098 231.79596 
L 246.725071 239.793646 
L 246.773166 239.54285 
L 248.696983 226.315873 
L 249.386351 223.346692 
L 249.931433 221.855078 
L 250.364292 221.23404 
L 250.70096 221.097526 
L 250.989533 221.218215 
L 251.326201 221.628462 
L 251.743028 222.519587 
L 252.288109 224.272032 
L 252.993509 227.382028 
L 253.97145 232.819363 
L 255.141772 239.799427 
L 255.205899 239.577174 
L 257.370194 228.592059 
L 258.027498 226.645028 
L 258.556548 225.697473 
L 258.973375 225.356316 
L 259.310043 225.342485 
L 259.646711 225.558537 
L 260.047506 226.10505 
L 260.544492 227.19225 
L 261.185765 229.189457 
L 262.035451 232.649543 
L 263.558473 239.800489 
L 263.654664 239.530294 
L 265.722767 230.965406 
L 266.412135 229.216365 
L 266.957217 228.364473 
L 267.406108 228.034819 
L 267.774839 228.017971 
L 268.143571 228.226874 
L 268.57643 228.749899 
L 269.10548 229.769379 
L 269.778816 231.59758 
L 270.676597 234.743818 
L 271.991206 239.799987 
L 272.055333 239.663783 
L 272.664542 237.302437 
L 273.786769 233.406048 
L 274.572327 231.41188 
L 275.197568 230.379419 
L 275.694554 229.943654 
L 276.111381 229.848851 
L 276.512177 229.989446 
L 276.961067 230.408552 
L 277.490117 231.235654 
L 278.147421 232.708367 
L 279.029171 235.290865 
L 280.407907 239.803337 
L 280.488066 239.666085 
L 281.097275 237.647456 
L 282.235533 234.250421 
L 283.021092 232.537809 
L 283.646333 231.652529 
L 284.159351 231.274409 
L 284.608242 231.209186 
L 285.0411 231.379746 
L 285.522055 231.828734 
L 286.0992 232.702174 
L 286.820632 234.237935 
L 287.798572 236.897374 
L 288.84064 239.800592 
L 288.872703 239.765151 
L 289.113181 239.134501 
L 290.636203 234.997646 
L 291.453825 233.417524 
L 292.095098 232.621826 
L 292.624147 232.290598 
L 293.08907 232.250263 
L 293.553992 232.442852 
L 294.06701 232.915007 
L 294.676219 233.800573 
L 295.445746 235.345189 
L 296.551941 238.130019 
L 297.257341 239.804636 
L 297.273373 239.79567 
L 297.433691 239.484046 
L 299.421636 234.84633 
L 300.159099 233.760604 
L 300.768308 233.229707 
L 301.281326 233.058252 
L 301.76228 233.129787 
L 302.259266 233.434544 
L 302.836411 234.065055 
L 303.541811 235.191425 
L 304.471656 237.134616 
L 305.690074 239.801655 
L 305.722137 239.773422 
L 305.962615 239.286636 
L 307.597859 235.763039 
L 308.39945 234.566395 
L 309.056754 233.957428 
L 309.601836 233.73267 
L 310.114854 233.759784 
L 310.627872 234.01474 
L 311.221049 234.577576 
L 311.926449 235.578381 
L 312.856294 237.323315 
L 314.106775 239.805838 
L 314.15487 239.767758 
L 314.427411 239.257182 
L 316.030592 236.122242 
L 316.848215 235.016071 
L 317.505519 234.470497 
L 318.066632 234.27198 
L 318.595682 234.316369 
L 319.140764 234.592788 
L 319.766004 235.179774 
L 320.5195 236.220423 
L 321.529504 238.034937 
L 322.539508 239.803046 
L 322.715858 239.565155 
L 324.960311 235.757978 
L 325.681743 235.068305 
L 326.290952 234.768983 
L 326.852065 234.734811 
L 327.413179 234.931487 
L 328.022387 235.393344 
L 328.743819 236.237757 
L 329.673664 237.696997 
L 330.972241 239.799602 
L 330.988273 239.788694 
L 331.22875 239.439149 
L 333.072408 236.445088 
L 333.873999 235.604822 
L 334.531303 235.214035 
L 335.12448 235.11146 
L 335.701625 235.242307 
L 336.310834 235.617869 
L 337.016234 236.328222 
L 337.914015 237.576873 
L 339.404974 239.79592 
L 339.437037 239.7706 
L 339.757674 239.300769 
L 341.360855 236.856401 
L 342.194509 235.989768 
L 342.883877 235.570835 
L 343.493086 235.44745 
L 344.086263 235.554388 
L 344.711503 235.901378 
L 345.432935 236.572344 
L 346.330716 237.733828 
L 347.837707 239.79223 
L 347.853738 239.7805 
L 348.158343 239.377093 
L 349.857715 236.975653 
L 350.691369 236.194791 
L 351.380737 235.831007 
L 352.005978 235.742238 
L 352.615187 235.879436 
L 353.272491 236.264342 
L 354.042018 236.992657 
L 355.03599 238.272836 
L 356.238376 239.806377 
L 356.462821 239.575939 
L 358.691243 236.758008 
L 359.46077 236.222105 
L 360.134106 236.011927 
L 360.759347 236.043827 
L 361.400619 236.299905 
L 362.122051 236.837113 
L 363.0038 237.790733 
L 364.719204 239.773487 
L 364.735236 239.760313 
L 365.152063 239.242137 
L 366.659054 237.368329 
L 367.524771 236.638775 
L 368.246203 236.301734 
L 368.903507 236.230323 
L 369.560811 236.386375 
L 370.266211 236.793621 
L 371.099865 237.55248 
L 372.222092 238.908916 
L 373.055746 239.816642 
L 373.26416 239.662758 
L 375.989568 236.795424 
L 376.727031 236.486759 
L 377.400367 236.439405 
L 378.073703 236.617352 
L 378.811167 237.054758 
L 379.676885 237.843164 
L 380.959429 239.356972 
L 381.472447 239.818473 
L 381.680861 239.681036 
L 382.706897 238.468395 
L 383.813092 237.372466 
L 384.646746 236.839879 
L 385.368178 236.628327 
L 386.057546 236.656186 
L 386.762945 236.913549 
L 387.548504 237.447831 
L 388.526445 238.402713 
L 389.937244 239.810043 
L 390.209785 239.583227 
L 392.406143 237.375173 
L 393.223765 236.931528 
L 393.945197 236.779581 
L 394.650597 236.858043 
L 395.38806 237.172053 
L 396.221714 237.779419 
L 397.327909 238.8888 
L 398.321881 239.820316 
L 398.546327 239.68276 
L 399.780776 238.379297 
L 400.838876 237.490541 
L 401.67253 237.064939 
L 402.409993 236.92735 
L 403.131425 237.019177 
L 403.88492 237.344855 
L 404.750638 237.971971 
L 405.936992 239.137826 
L 406.722551 239.822593 
L 406.946996 239.711139 
L 407.812714 238.834239 
L 409.031132 237.758438 
L 409.912881 237.26155 
L 410.682408 237.072155 
L 411.419872 237.118741 
L 412.189399 237.399593 
L 413.055116 237.966947 
L 414.193375 239.008148 
L 415.155284 239.823522 
L 415.395761 239.697783 
L 416.517988 238.615412 
L 417.640215 237.731182 
L 418.505932 237.317944 
L 419.275459 237.187517 
L 420.028954 237.28575 
L 420.830545 237.624734 
L 421.76039 238.276806 
L 423.732303 239.767236 
L 424.277385 239.288129 
L 425.768343 238.013963 
L 426.698188 237.507253 
L 427.499779 237.312768 
L 428.269306 237.353814 
L 429.070896 237.628299 
L 429.968678 238.182785 
L 431.187095 239.226906 
L 431.988686 239.826058 
L 432.245195 239.710428 
L 433.319326 238.760595 
L 434.473617 237.915559 
L 435.371398 237.521757 
L 436.172989 237.406876 
L 436.958548 237.520516 
L 437.792202 237.872904 
L 438.770142 238.539985 
L 440.51761 239.804454 
L 440.918405 239.516697 
L 442.794127 238.052572 
L 443.723972 237.635104 
L 444.541594 237.504692 
L 445.343185 237.603549 
L 446.192871 237.94136 
L 447.186843 238.590726 
L 448.950343 239.802574 
L 449.383202 239.497376 
L 451.194796 238.135566 
L 452.140673 237.722438 
L 452.974327 237.594875 
L 453.79195 237.697036 
L 454.657668 238.037742 
L 455.683704 238.697232 
L 457.351012 239.812672 
L 457.751807 239.555761 
L 459.72372 238.143284 
L 460.653565 237.777864 
L 461.503251 237.679428 
L 462.336905 237.810577 
L 463.234687 238.187007 
L 464.32485 238.90452 
L 465.719618 239.827044 
L 466.056286 239.655396 
L 468.509153 238.039051 
L 469.406934 237.788873 
L 470.25662 237.782233 
L 471.122338 238.005024 
L 472.084247 238.492605 
L 473.430919 239.457568 
L 474.104255 239.831484 
L 474.40886 239.710203 
L 477.342681 237.96322 
L 478.224431 237.830559 
L 479.074117 237.926102 
L 479.98793 238.260296 
L 481.078093 238.91258 
L 482.585083 239.825843 
L 482.953815 239.63733 
L 485.262396 238.199188 
L 486.208273 237.934583 
L 487.073991 237.919218 
L 487.95574 238.127157 
L 488.949713 238.60034 
L 490.376544 239.561716 
L 490.953689 239.833419 
L 491.290357 239.700645 
L 494.079892 238.117875 
L 494.993706 237.965338 
L 495.875455 238.043642 
L 496.8053 238.354753 
L 497.911495 238.972304 
L 499.418486 239.830248 
L 499.803249 239.651901 
L 502.175957 238.280185 
L 503.137866 238.046549 
L 504.035647 238.056809 
L 504.965492 238.297308 
L 506.023592 238.814144 
L 507.931378 239.809004 
L 508.476459 239.499884 
L 510.239959 238.472235 
L 511.249963 238.149857 
L 512.163776 238.085555 
L 513.077589 238.244597 
L 514.087593 238.654711 
L 515.466329 239.484945 
L 516.203792 239.836899 
L 516.556492 239.719447 
L 519.474282 238.243671 
L 520.420159 238.134201 
L 521.350004 238.254104 
L 522.343976 238.612786 
L 523.626521 239.334299 
L 524.636525 239.837749 
L 525.005257 239.710806 
L 527.810824 238.31212 
L 528.772733 238.18507 
L 529.702578 238.285545 
L 530.712582 238.626702 
L 531.979095 239.310012 
L 533.053226 239.838883 
L 533.421958 239.719324 
L 536.307684 238.339185 
L 537.269593 238.233122 
L 538.21547 238.351736 
L 539.241506 238.710328 
L 540.588178 239.439175 
L 541.469928 239.839951 
L 541.838659 239.727335 
L 544.788513 238.369415 
L 545.766453 238.280042 
L 546.728362 238.416372 
L 547.786461 238.798945 
L 549.293452 239.615026 
L 549.918692 239.840039 
L 550.319488 239.703212 
L 552.9968 238.458813 
L 554.006804 238.322423 
L 554.984745 238.418345 
L 556.026813 238.750547 
L 557.373485 239.433877 
L 557.678089 239.603729 
L 557.678089 239.603729 
" clip-path="url(#pfff471fd0b)" style="fill: none; stroke: #2ca02c; stroke-linecap: square"/>
   </g>
   <g id="line2d_30">
    <path d="M 221.455729 250.421875 
L 221.455729 22.318125 
" clip-path="url(#pfff471fd0b)" style="fill: none; stroke-dasharray: 3.7,1.6; stroke-dashoffset: 0; stroke: #000000"/>
   </g>
   <g id="line2d_31">
    <path d="M 389.561458 250.421875 
L 389.561458 22.318125 
" clip-path="url(#pfff471fd0b)" style="fill: none; stroke-dasharray: 3.7,1.6; stroke-dashoffset: 0; stroke: #000000"/>
   </g>
   <g id="patch_3">
    <path d="M 53.35 250.421875 
L 53.35 22.318125 
" style="fill: none; stroke: #000000; stroke-width: 0.8; stroke-linejoin: miter; stroke-linecap: square"/>
   </g>
   <g id="patch_4">
    <path d="M 557.667188 250.421875 
L 557.667188 22.318125 
" style="fill: none; stroke: #000000; stroke-width: 0.8; stroke-linejoin: miter; stroke-linecap: square"/>
   </g>
   <g id="patch_5">
    <path d="M 53.35 250.421875 
L 557.667188 250.421875 
" style="fill: none; stroke: #000000; stroke-width: 0.8; stroke-linejoin: miter; stroke-linecap: square"/>
   </g>
   <g id="patch_6">
    <path d="M 53.35 22.318125 
L 557.667188 22.318125 
" style="fill: none; stroke: #000000; stroke-width: 0.8; stroke-linejoin: miter; stroke-linecap: square"/>
   </g>
   <g id="text_16">
    <!-- Discrete-time Fourier transform (DTFT) -->
    <g transform="translate(188.899531 16.318125) scale(0.12 -0.12)">
     <defs>
      <path id="DejaVuSans-44" d="M 1259 4147 
L 1259 519 
L 2022 519 
Q 2988 519 3436 956 
Q 3884 1394 3884 2338 
Q 3884 3275 3436 3711 
Q 2988 4147 2022 4147 
L 1259 4147 
z
M 628 4666 
L 1925 4666 
Q 3281 4666 3915 4102 
Q 4550 3538 4550 2338 
Q 4550 1131 3912 565 
Q 3275 0 1925 0 
L 628 0 
L 628 4666 
z
" transform="scale(0.015625)"/>
      <path id="DejaVuSans-73" d="M 2834 3397 
L 2834 2853 
Q 2591 2978 2328 3040 
Q 2066 3103 1784 3103 
Q 1356 3103 1142 2972 
Q 928 2841 928 2578 
Q 928 2378 1081 2264 
Q 1234 2150 1697 2047 
L 1894 2003 
Q 2506 1872 2764 1633 
Q 3022 1394 3022 966 
Q 3022 478 2636 193 
Q 2250 -91 1575 -91 
Q 1294 -91 989 -36 
Q 684 19 347 128 
L 347 722 
Q 666 556 975 473 
Q 1284 391 1588 391 
Q 1994 391 2212 530 
Q 2431 669 2431 922 
Q 2431 1156 2273 1281 
Q 2116 1406 1581 1522 
L 1381 1569 
Q 847 1681 609 1914 
Q 372 2147 372 2553 
Q 372 3047 722 3315 
Q 1072 3584 1716 3584 
Q 2034 3584 2315 3537 
Q 2597 3491 2834 3397 
z
" transform="scale(0.015625)"/>
      <path id="DejaVuSans-2d" d="M 313 2009 
L 1997 2009 
L 1997 1497 
L 313 1497 
L 313 2009 
z
" transform="scale(0.015625)"/>
      <path id="DejaVuSans-6d" d="M 3328 2828 
Q 3544 3216 3844 3400 
Q 4144 3584 4550 3584 
Q 5097 3584 5394 3201 
Q 5691 2819 5691 2113 
L 5691 0 
L 5113 0 
L 5113 2094 
Q 5113 2597 4934 2840 
Q 4756 3084 4391 3084 
Q 3944 3084 3684 2787 
Q 3425 2491 3425 1978 
L 3425 0 
L 2847 0 
L 2847 2094 
Q 2847 2600 2669 2842 
Q 2491 3084 2119 3084 
Q 1678 3084 1418 2786 
Q 1159 2488 1159 1978 
L 1159 0 
L 581 0 
L 581 3500 
L 1159 3500 
L 1159 2956 
Q 1356 3278 1631 3431 
Q 1906 3584 2284 3584 
Q 2666 3584 2933 3390 
Q 3200 3197 3328 2828 
z
" transform="scale(0.015625)"/>
      <path id="DejaVuSans-6f" d="M 1959 3097 
Q 1497 3097 1228 2736 
Q 959 2375 959 1747 
Q 959 1119 1226 758 
Q 1494 397 1959 397 
Q 2419 397 2687 759 
Q 2956 1122 2956 1747 
Q 2956 2369 2687 2733 
Q 2419 3097 1959 3097 
z
M 1959 3584 
Q 2709 3584 3137 3096 
Q 3566 2609 3566 1747 
Q 3566 888 3137 398 
Q 2709 -91 1959 -91 
Q 1206 -91 779 398 
Q 353 888 353 1747 
Q 353 2609 779 3096 
Q 1206 3584 1959 3584 
z
" transform="scale(0.015625)"/>
      <path id="DejaVuSans-66" d="M 2375 4863 
L 2375 4384 
L 1825 4384 
Q 1516 4384 1395 4259 
Q 1275 4134 1275 3809 
L 1275 3500 
L 2222 3500 
L 2222 3053 
L 1275 3053 
L 1275 0 
L 697 0 
L 697 3053 
L 147 3053 
L 147 3500 
L 697 3500 
L 697 3744 
Q 697 4328 969 4595 
Q 1241 4863 1831 4863 
L 2375 4863 
z
" transform="scale(0.015625)"/>
      <path id="DejaVuSans-54" d="M -19 4666 
L 3928 4666 
L 3928 4134 
L 2272 4134 
L 2272 0 
L 1638 0 
L 1638 4134 
L -19 4134 
L -19 4666 
z
" transform="scale(0.015625)"/>
     </defs>
     <use xlink:href="#DejaVuSans-44"/>
     <use xlink:href="#DejaVuSans-69" transform="translate(77.001953 0)"/>
     <use xlink:href="#DejaVuSans-73" transform="translate(104.785156 0)"/>
     <use xlink:href="#DejaVuSans-63" transform="translate(156.884766 0)"/>
     <use xlink:href="#DejaVuSans-72" transform="translate(211.865234 0)"/>
     <use xlink:href="#DejaVuSans-65" transform="translate(250.728516 0)"/>
     <use xlink:href="#DejaVuSans-74" transform="translate(312.251953 0)"/>
     <use xlink:href="#DejaVuSans-65" transform="translate(351.460938 0)"/>
     <use xlink:href="#DejaVuSans-2d" transform="translate(412.984375 0)"/>
     <use xlink:href="#DejaVuSans-74" transform="translate(449.068359 0)"/>
     <use xlink:href="#DejaVuSans-69" transform="translate(488.277344 0)"/>
     <use xlink:href="#DejaVuSans-6d" transform="translate(516.060547 0)"/>
     <use xlink:href="#DejaVuSans-65" transform="translate(613.472656 0)"/>
     <use xlink:href="#DejaVuSans-20" transform="translate(674.996094 0)"/>
     <use xlink:href="#DejaVuSans-46" transform="translate(706.783203 0)"/>
     <use xlink:href="#DejaVuSans-6f" transform="translate(760.677734 0)"/>
     <use xlink:href="#DejaVuSans-75" transform="translate(821.859375 0)"/>
     <use xlink:href="#DejaVuSans-72" transform="translate(885.238281 0)"/>
     <use xlink:href="#DejaVuSans-69" transform="translate(926.351562 0)"/>
     <use xlink:href="#DejaVuSans-65" transform="translate(954.134766 0)"/>
     <use xlink:href="#DejaVuSans-72" transform="translate(1015.658203 0)"/>
     <use xlink:href="#DejaVuSans-20" transform="translate(1056.771484 0)"/>
     <use xlink:href="#DejaVuSans-74" transform="translate(1088.558594 0)"/>
     <use xlink:href="#DejaVuSans-72" transform="translate(1127.767578 0)"/>
     <use xlink:href="#DejaVuSans-61" transform="translate(1168.880859 0)"/>
     <use xlink:href="#DejaVuSans-6e" transform="translate(1230.160156 0)"/>
     <use xlink:href="#DejaVuSans-73" transform="translate(1293.539062 0)"/>
     <use xlink:href="#DejaVuSans-66" transform="translate(1345.638672 0)"/>
     <use xlink:href="#DejaVuSans-6f" transform="translate(1380.84375 0)"/>
     <use xlink:href="#DejaVuSans-72" transform="translate(1442.025391 0)"/>
     <use xlink:href="#DejaVuSans-6d" transform="translate(1481.388672 0)"/>
     <use xlink:href="#DejaVuSans-20" transform="translate(1578.800781 0)"/>
     <use xlink:href="#DejaVuSans-28" transform="translate(1610.587891 0)"/>
     <use xlink:href="#DejaVuSans-44" transform="translate(1649.601562 0)"/>
     <use xlink:href="#DejaVuSans-54" transform="translate(1726.603516 0)"/>
     <use xlink:href="#DejaVuSans-46" transform="translate(1787.6875 0)"/>
     <use xlink:href="#DejaVuSans-54" transform="translate(1843.457031 0)"/>
     <use xlink:href="#DejaVuSans-29" transform="translate(1904.541016 0)"/>
    </g>
   </g>
   <g id="legend_1">
    <g id="patch_7">
     <path d="M 400.285938 74.3525 
L 550.667188 74.3525 
Q 552.667188 74.3525 552.667188 72.3525 
L 552.667188 29.318125 
Q 552.667188 27.318125 550.667188 27.318125 
L 400.285938 27.318125 
Q 398.285938 27.318125 398.285938 29.318125 
L 398.285938 72.3525 
Q 398.285938 74.3525 400.285938 74.3525 
z
" style="fill: #ffffff; opacity: 0.8; stroke: #cccccc; stroke-linejoin: miter"/>
    </g>
    <g id="line2d_32">
     <path d="M 402.285938 35.416563 
L 412.285938 35.416563 
L 422.285938 35.416563 
" style="fill: none; stroke: #1f77b4; stroke-linecap: square"/>
    </g>
    <g id="text_17">
     <!-- No clock error -->
     <g transform="translate(430.285938 38.916563) scale(0.1 -0.1)">
      <defs>
       <path id="DejaVuSans-4e" d="M 628 4666 
L 1478 4666 
L 3547 763 
L 3547 4666 
L 4159 4666 
L 4159 0 
L 3309 0 
L 1241 3903 
L 1241 0 
L 628 0 
L 628 4666 
z
" transform="scale(0.015625)"/>
       <path id="DejaVuSans-6c" d="M 603 4863 
L 1178 4863 
L 1178 0 
L 603 0 
L 603 4863 
z
" transform="scale(0.015625)"/>
       <path id="DejaVuSans-6b" d="M 581 4863 
L 1159 4863 
L 1159 1991 
L 2875 3500 
L 3609 3500 
L 1753 1863 
L 3688 0 
L 2938 0 
L 1159 1709 
L 1159 0 
L 581 0 
L 581 4863 
z
" transform="scale(0.015625)"/>
      </defs>
      <use xlink:href="#DejaVuSans-4e"/>
      <use xlink:href="#DejaVuSans-6f" transform="translate(74.804688 0)"/>
      <use xlink:href="#DejaVuSans-20" transform="translate(135.986328 0)"/>
      <use xlink:href="#DejaVuSans-63" transform="translate(167.773438 0)"/>
      <use xlink:href="#DejaVuSans-6c" transform="translate(222.753906 0)"/>
      <use xlink:href="#DejaVuSans-6f" transform="translate(250.537109 0)"/>
      <use xlink:href="#DejaVuSans-63" transform="translate(311.71875 0)"/>
      <use xlink:href="#DejaVuSans-6b" transform="translate(366.699219 0)"/>
      <use xlink:href="#DejaVuSans-20" transform="translate(424.609375 0)"/>
      <use xlink:href="#DejaVuSans-65" transform="translate(456.396484 0)"/>
      <use xlink:href="#DejaVuSans-72" transform="translate(517.919922 0)"/>
      <use xlink:href="#DejaVuSans-72" transform="translate(557.283203 0)"/>
      <use xlink:href="#DejaVuSans-6f" transform="translate(596.146484 0)"/>
      <use xlink:href="#DejaVuSans-72" transform="translate(657.328125 0)"/>
     </g>
    </g>
    <g id="line2d_33">
     <path d="M 402.285938 50.094688 
L 412.285938 50.094688 
L 422.285938 50.094688 
" style="fill: none; stroke: #ff7f0e; stroke-linecap: square"/>
    </g>
    <g id="text_18">
     <!-- Added Tx clock error -->
     <g transform="translate(430.285938 53.594688) scale(0.1 -0.1)">
      <defs>
       <path id="DejaVuSans-41" d="M 2188 4044 
L 1331 1722 
L 3047 1722 
L 2188 4044 
z
M 1831 4666 
L 2547 4666 
L 4325 0 
L 3669 0 
L 3244 1197 
L 1141 1197 
L 716 0 
L 50 0 
L 1831 4666 
z
" transform="scale(0.015625)"/>
       <path id="DejaVuSans-78" d="M 3513 3500 
L 2247 1797 
L 3578 0 
L 2900 0 
L 1881 1375 
L 863 0 
L 184 0 
L 1544 1831 
L 300 3500 
L 978 3500 
L 1906 2253 
L 2834 3500 
L 3513 3500 
z
" transform="scale(0.015625)"/>
      </defs>
      <use xlink:href="#DejaVuSans-41"/>
      <use xlink:href="#DejaVuSans-64" transform="translate(66.658203 0)"/>
      <use xlink:href="#DejaVuSans-64" transform="translate(130.134766 0)"/>
      <use xlink:href="#DejaVuSans-65" transform="translate(193.611328 0)"/>
      <use xlink:href="#DejaVuSans-64" transform="translate(255.134766 0)"/>
      <use xlink:href="#DejaVuSans-20" transform="translate(318.611328 0)"/>
      <use xlink:href="#DejaVuSans-54" transform="translate(350.398438 0)"/>
      <use xlink:href="#DejaVuSans-78" transform="translate(411.482422 0)"/>
      <use xlink:href="#DejaVuSans-20" transform="translate(470.662109 0)"/>
      <use xlink:href="#DejaVuSans-63" transform="translate(502.449219 0)"/>
      <use xlink:href="#DejaVuSans-6c" transform="translate(557.429688 0)"/>
      <use xlink:href="#DejaVuSans-6f" transform="translate(585.212891 0)"/>
      <use xlink:href="#DejaVuSans-63" transform="translate(646.394531 0)"/>
      <use xlink:href="#DejaVuSans-6b" transform="translate(701.375 0)"/>
      <use xlink:href="#DejaVuSans-20" transform="translate(759.285156 0)"/>
      <use xlink:href="#DejaVuSans-65" transform="translate(791.072266 0)"/>
      <use xlink:href="#DejaVuSans-72" transform="translate(852.595703 0)"/>
      <use xlink:href="#DejaVuSans-72" transform="translate(891.958984 0)"/>
      <use xlink:href="#DejaVuSans-6f" transform="translate(930.822266 0)"/>
      <use xlink:href="#DejaVuSans-72" transform="translate(992.003906 0)"/>
     </g>
    </g>
    <g id="line2d_34">
     <path d="M 402.285938 64.772813 
L 412.285938 64.772813 
L 422.285938 64.772813 
" style="fill: none; stroke: #2ca02c; stroke-linecap: square"/>
    </g>
    <g id="text_19">
     <!-- Removed Tx clock error -->
     <g transform="translate(430.285938 68.272813) scale(0.1 -0.1)">
      <defs>
       <path id="DejaVuSans-52" d="M 2841 2188 
Q 3044 2119 3236 1894 
Q 3428 1669 3622 1275 
L 4263 0 
L 3584 0 
L 2988 1197 
Q 2756 1666 2539 1819 
Q 2322 1972 1947 1972 
L 1259 1972 
L 1259 0 
L 628 0 
L 628 4666 
L 2053 4666 
Q 2853 4666 3247 4331 
Q 3641 3997 3641 3322 
Q 3641 2881 3436 2590 
Q 3231 2300 2841 2188 
z
M 1259 4147 
L 1259 2491 
L 2053 2491 
Q 2509 2491 2742 2702 
Q 2975 2913 2975 3322 
Q 2975 3731 2742 3939 
Q 2509 4147 2053 4147 
L 1259 4147 
z
" transform="scale(0.015625)"/>
       <path id="DejaVuSans-76" d="M 191 3500 
L 800 3500 
L 1894 563 
L 2988 3500 
L 3597 3500 
L 2284 0 
L 1503 0 
L 191 3500 
z
" transform="scale(0.015625)"/>
      </defs>
      <use xlink:href="#DejaVuSans-52"/>
      <use xlink:href="#DejaVuSans-65" transform="translate(64.982422 0)"/>
      <use xlink:href="#DejaVuSans-6d" transform="translate(126.505859 0)"/>
      <use xlink:href="#DejaVuSans-6f" transform="translate(223.917969 0)"/>
      <use xlink:href="#DejaVuSans-76" transform="translate(285.099609 0)"/>
      <use xlink:href="#DejaVuSans-65" transform="translate(344.279297 0)"/>
      <use xlink:href="#DejaVuSans-64" transform="translate(405.802734 0)"/>
      <use xlink:href="#DejaVuSans-20" transform="translate(469.279297 0)"/>
      <use xlink:href="#DejaVuSans-54" transform="translate(501.066406 0)"/>
      <use xlink:href="#DejaVuSans-78" transform="translate(562.150391 0)"/>
      <use xlink:href="#DejaVuSans-20" transform="translate(621.330078 0)"/>
      <use xlink:href="#DejaVuSans-63" transform="translate(653.117188 0)"/>
      <use xlink:href="#DejaVuSans-6c" transform="translate(708.097656 0)"/>
      <use xlink:href="#DejaVuSans-6f" transform="translate(735.880859 0)"/>
      <use xlink:href="#DejaVuSans-63" transform="translate(797.0625 0)"/>
      <use xlink:href="#DejaVuSans-6b" transform="translate(852.042969 0)"/>
      <use xlink:href="#DejaVuSans-20" transform="translate(909.953125 0)"/>
      <use xlink:href="#DejaVuSans-65" transform="translate(941.740234 0)"/>
      <use xlink:href="#DejaVuSans-72" transform="translate(1003.263672 0)"/>
      <use xlink:href="#DejaVuSans-72" transform="translate(1042.626953 0)"/>
      <use xlink:href="#DejaVuSans-6f" transform="translate(1081.490234 0)"/>
      <use xlink:href="#DejaVuSans-72" transform="translate(1142.671875 0)"/>
     </g>
    </g>
   </g>
  </g>
 </g>
 <defs>
  <clipPath id="pfff471fd0b">
   <rect x="53.35" y="22.318125" width="504.317188" height="228.10375"/>
  </clipPath>
 </defs>
</svg>
