<?xml version="1.0" encoding="utf-8" standalone="no"?>
<!DOCTYPE svg PUBLIC "-//W3C//DTD SVG 1.1//EN"
  "http://www.w3.org/Graphics/SVG/1.1/DTD/svg11.dtd">
<svg xmlns:xlink="http://www.w3.org/1999/xlink" width="576pt" height="288pt" viewBox="0 0 576 288" xmlns="http://www.w3.org/2000/svg" version="1.1">
 <metadata>
  <rdf:RDF xmlns:dc="http://purl.org/dc/elements/1.1/" xmlns:cc="http://creativecommons.org/ns#" xmlns:rdf="http://www.w3.org/1999/02/22-rdf-syntax-ns#">
   <cc:Work>
    <dc:type rdf:resource="http://purl.org/dc/dcmitype/StillImage"/>
    <dc:date>2025-05-10T16:54:07.891754</dc:date>
    <dc:format>image/svg+xml</dc:format>
    <dc:creator>
     <cc:Agent>
      <dc:title>Matplotlib v3.10.3, https://matplotlib.org/</dc:title>
     </cc:Agent>
    </dc:creator>
   </cc:Work>
  </rdf:RDF>
 </metadata>
 <defs>
  <style type="text/css">*{stroke-linejoin: round; stroke-linecap: butt}</style>
 </defs>
 <g id="figure_1">
  <g id="patch_1">
   <path d="M 0 288 
L 576 288 
L 576 0 
L 0 0 
z
" style="fill: #ffffff"/>
  </g>
  <g id="axes_1">
   <g id="patch_2">
    <path d="M 57.167188 250.421875 
L 568.8 250.421875 
L 568.8 24.12 
L 57.167188 24.12 
z
" style="fill: #ffffff"/>
   </g>
   <g id="matplotlib.axis_1">
    <g id="xtick_1">
     <g id="line2d_1">
      <path d="M 80.423224 250.421875 
L 80.423224 24.12 
" clip-path="url(#p58376fc7f6)" style="fill: none; stroke-dasharray: 2.96,1.28; stroke-dashoffset: 0; stroke: #b0b0b0; stroke-opacity: 0.8; stroke-width: 0.8"/>
     </g>
     <g id="line2d_2">
      <defs>
       <path id="mba1935941e" d="M 0 0 
L 0 3.5 
" style="stroke: #000000; stroke-width: 0.8"/>
      </defs>
      <g>
       <use xlink:href="#mba1935941e" x="80.423224" y="250.421875" style="stroke: #000000; stroke-width: 0.8"/>
      </g>
     </g>
     <g id="text_1">
      <!-- 0 -->
      <g transform="translate(77.241974 265.020312) scale(0.1 -0.1)">
       <defs>
        <path id="DejaVuSans-30" d="M 2034 4250 
Q 1547 4250 1301 3770 
Q 1056 3291 1056 2328 
Q 1056 1369 1301 889 
Q 1547 409 2034 409 
Q 2525 409 2770 889 
Q 3016 1369 3016 2328 
Q 3016 3291 2770 3770 
Q 2525 4250 2034 4250 
z
M 2034 4750 
Q 2819 4750 3233 4129 
Q 3647 3509 3647 2328 
Q 3647 1150 3233 529 
Q 2819 -91 2034 -91 
Q 1250 -91 836 529 
Q 422 1150 422 2328 
Q 422 3509 836 4129 
Q 1250 4750 2034 4750 
z
" transform="scale(0.015625)"/>
       </defs>
       <use xlink:href="#DejaVuSans-30"/>
      </g>
     </g>
    </g>
    <g id="xtick_2">
     <g id="line2d_3">
      <path d="M 173.538305 250.421875 
L 173.538305 24.12 
" clip-path="url(#p58376fc7f6)" style="fill: none; stroke-dasharray: 2.96,1.28; stroke-dashoffset: 0; stroke: #b0b0b0; stroke-opacity: 0.8; stroke-width: 0.8"/>
     </g>
     <g id="line2d_4">
      <g>
       <use xlink:href="#mba1935941e" x="173.538305" y="250.421875" style="stroke: #000000; stroke-width: 0.8"/>
      </g>
     </g>
     <g id="text_2">
      <!-- 0.1 -->
      <g transform="translate(165.586742 265.020312) scale(0.1 -0.1)">
       <defs>
        <path id="DejaVuSans-2e" d="M 684 794 
L 1344 794 
L 1344 0 
L 684 0 
L 684 794 
z
" transform="scale(0.015625)"/>
        <path id="DejaVuSans-31" d="M 794 531 
L 1825 531 
L 1825 4091 
L 703 3866 
L 703 4441 
L 1819 4666 
L 2450 4666 
L 2450 531 
L 3481 531 
L 3481 0 
L 794 0 
L 794 531 
z
" transform="scale(0.015625)"/>
       </defs>
       <use xlink:href="#DejaVuSans-30"/>
       <use xlink:href="#DejaVuSans-2e" transform="translate(63.623047 0)"/>
       <use xlink:href="#DejaVuSans-31" transform="translate(95.410156 0)"/>
      </g>
     </g>
    </g>
    <g id="xtick_3">
     <g id="line2d_5">
      <path d="M 266.653385 250.421875 
L 266.653385 24.12 
" clip-path="url(#p58376fc7f6)" style="fill: none; stroke-dasharray: 2.96,1.28; stroke-dashoffset: 0; stroke: #b0b0b0; stroke-opacity: 0.8; stroke-width: 0.8"/>
     </g>
     <g id="line2d_6">
      <g>
       <use xlink:href="#mba1935941e" x="266.653385" y="250.421875" style="stroke: #000000; stroke-width: 0.8"/>
      </g>
     </g>
     <g id="text_3">
      <!-- 0.2 -->
      <g transform="translate(258.701823 265.020312) scale(0.1 -0.1)">
       <defs>
        <path id="DejaVuSans-32" d="M 1228 531 
L 3431 531 
L 3431 0 
L 469 0 
L 469 531 
Q 828 903 1448 1529 
Q 2069 2156 2228 2338 
Q 2531 2678 2651 2914 
Q 2772 3150 2772 3378 
Q 2772 3750 2511 3984 
Q 2250 4219 1831 4219 
Q 1534 4219 1204 4116 
Q 875 4013 500 3803 
L 500 4441 
Q 881 4594 1212 4672 
Q 1544 4750 1819 4750 
Q 2544 4750 2975 4387 
Q 3406 4025 3406 3419 
Q 3406 3131 3298 2873 
Q 3191 2616 2906 2266 
Q 2828 2175 2409 1742 
Q 1991 1309 1228 531 
z
" transform="scale(0.015625)"/>
       </defs>
       <use xlink:href="#DejaVuSans-30"/>
       <use xlink:href="#DejaVuSans-2e" transform="translate(63.623047 0)"/>
       <use xlink:href="#DejaVuSans-32" transform="translate(95.410156 0)"/>
      </g>
     </g>
    </g>
    <g id="xtick_4">
     <g id="line2d_7">
      <path d="M 359.768466 250.421875 
L 359.768466 24.12 
" clip-path="url(#p58376fc7f6)" style="fill: none; stroke-dasharray: 2.96,1.28; stroke-dashoffset: 0; stroke: #b0b0b0; stroke-opacity: 0.8; stroke-width: 0.8"/>
     </g>
     <g id="line2d_8">
      <g>
       <use xlink:href="#mba1935941e" x="359.768466" y="250.421875" style="stroke: #000000; stroke-width: 0.8"/>
      </g>
     </g>
     <g id="text_4">
      <!-- 0.3 -->
      <g transform="translate(351.816903 265.020312) scale(0.1 -0.1)">
       <defs>
        <path id="DejaVuSans-33" d="M 2597 2516 
Q 3050 2419 3304 2112 
Q 3559 1806 3559 1356 
Q 3559 666 3084 287 
Q 2609 -91 1734 -91 
Q 1441 -91 1130 -33 
Q 819 25 488 141 
L 488 750 
Q 750 597 1062 519 
Q 1375 441 1716 441 
Q 2309 441 2620 675 
Q 2931 909 2931 1356 
Q 2931 1769 2642 2001 
Q 2353 2234 1838 2234 
L 1294 2234 
L 1294 2753 
L 1863 2753 
Q 2328 2753 2575 2939 
Q 2822 3125 2822 3475 
Q 2822 3834 2567 4026 
Q 2313 4219 1838 4219 
Q 1578 4219 1281 4162 
Q 984 4106 628 3988 
L 628 4550 
Q 988 4650 1302 4700 
Q 1616 4750 1894 4750 
Q 2613 4750 3031 4423 
Q 3450 4097 3450 3541 
Q 3450 3153 3228 2886 
Q 3006 2619 2597 2516 
z
" transform="scale(0.015625)"/>
       </defs>
       <use xlink:href="#DejaVuSans-30"/>
       <use xlink:href="#DejaVuSans-2e" transform="translate(63.623047 0)"/>
       <use xlink:href="#DejaVuSans-33" transform="translate(95.410156 0)"/>
      </g>
     </g>
    </g>
    <g id="xtick_5">
     <g id="line2d_9">
      <path d="M 452.883546 250.421875 
L 452.883546 24.12 
" clip-path="url(#p58376fc7f6)" style="fill: none; stroke-dasharray: 2.96,1.28; stroke-dashoffset: 0; stroke: #b0b0b0; stroke-opacity: 0.8; stroke-width: 0.8"/>
     </g>
     <g id="line2d_10">
      <g>
       <use xlink:href="#mba1935941e" x="452.883546" y="250.421875" style="stroke: #000000; stroke-width: 0.8"/>
      </g>
     </g>
     <g id="text_5">
      <!-- 0.4 -->
      <g transform="translate(444.931984 265.020312) scale(0.1 -0.1)">
       <defs>
        <path id="DejaVuSans-34" d="M 2419 4116 
L 825 1625 
L 2419 1625 
L 2419 4116 
z
M 2253 4666 
L 3047 4666 
L 3047 1625 
L 3713 1625 
L 3713 1100 
L 3047 1100 
L 3047 0 
L 2419 0 
L 2419 1100 
L 313 1100 
L 313 1709 
L 2253 4666 
z
" transform="scale(0.015625)"/>
       </defs>
       <use xlink:href="#DejaVuSans-30"/>
       <use xlink:href="#DejaVuSans-2e" transform="translate(63.623047 0)"/>
       <use xlink:href="#DejaVuSans-34" transform="translate(95.410156 0)"/>
      </g>
     </g>
    </g>
    <g id="xtick_6">
     <g id="line2d_11">
      <path d="M 545.998627 250.421875 
L 545.998627 24.12 
" clip-path="url(#p58376fc7f6)" style="fill: none; stroke-dasharray: 2.96,1.28; stroke-dashoffset: 0; stroke: #b0b0b0; stroke-opacity: 0.8; stroke-width: 0.8"/>
     </g>
     <g id="line2d_12">
      <g>
       <use xlink:href="#mba1935941e" x="545.998627" y="250.421875" style="stroke: #000000; stroke-width: 0.8"/>
      </g>
     </g>
     <g id="text_6">
      <!-- 0.5 -->
      <g transform="translate(538.047064 265.020312) scale(0.1 -0.1)">
       <defs>
        <path id="DejaVuSans-35" d="M 691 4666 
L 3169 4666 
L 3169 4134 
L 1269 4134 
L 1269 2991 
Q 1406 3038 1543 3061 
Q 1681 3084 1819 3084 
Q 2600 3084 3056 2656 
Q 3513 2228 3513 1497 
Q 3513 744 3044 326 
Q 2575 -91 1722 -91 
Q 1428 -91 1123 -41 
Q 819 9 494 109 
L 494 744 
Q 775 591 1075 516 
Q 1375 441 1709 441 
Q 2250 441 2565 725 
Q 2881 1009 2881 1497 
Q 2881 1984 2565 2268 
Q 2250 2553 1709 2553 
Q 1456 2553 1204 2497 
Q 953 2441 691 2322 
L 691 4666 
z
" transform="scale(0.015625)"/>
       </defs>
       <use xlink:href="#DejaVuSans-30"/>
       <use xlink:href="#DejaVuSans-2e" transform="translate(63.623047 0)"/>
       <use xlink:href="#DejaVuSans-35" transform="translate(95.410156 0)"/>
      </g>
     </g>
    </g>
    <g id="text_7">
     <!-- Normalized frequency, $f/f_s$ -->
     <g transform="translate(247.383594 278.7) scale(0.1 -0.1)">
      <defs>
       <path id="DejaVuSans-4e" d="M 628 4666 
L 1478 4666 
L 3547 763 
L 3547 4666 
L 4159 4666 
L 4159 0 
L 3309 0 
L 1241 3903 
L 1241 0 
L 628 0 
L 628 4666 
z
" transform="scale(0.015625)"/>
       <path id="DejaVuSans-6f" d="M 1959 3097 
Q 1497 3097 1228 2736 
Q 959 2375 959 1747 
Q 959 1119 1226 758 
Q 1494 397 1959 397 
Q 2419 397 2687 759 
Q 2956 1122 2956 1747 
Q 2956 2369 2687 2733 
Q 2419 3097 1959 3097 
z
M 1959 3584 
Q 2709 3584 3137 3096 
Q 3566 2609 3566 1747 
Q 3566 888 3137 398 
Q 2709 -91 1959 -91 
Q 1206 -91 779 398 
Q 353 888 353 1747 
Q 353 2609 779 3096 
Q 1206 3584 1959 3584 
z
" transform="scale(0.015625)"/>
       <path id="DejaVuSans-72" d="M 2631 2963 
Q 2534 3019 2420 3045 
Q 2306 3072 2169 3072 
Q 1681 3072 1420 2755 
Q 1159 2438 1159 1844 
L 1159 0 
L 581 0 
L 581 3500 
L 1159 3500 
L 1159 2956 
Q 1341 3275 1631 3429 
Q 1922 3584 2338 3584 
Q 2397 3584 2469 3576 
Q 2541 3569 2628 3553 
L 2631 2963 
z
" transform="scale(0.015625)"/>
       <path id="DejaVuSans-6d" d="M 3328 2828 
Q 3544 3216 3844 3400 
Q 4144 3584 4550 3584 
Q 5097 3584 5394 3201 
Q 5691 2819 5691 2113 
L 5691 0 
L 5113 0 
L 5113 2094 
Q 5113 2597 4934 2840 
Q 4756 3084 4391 3084 
Q 3944 3084 3684 2787 
Q 3425 2491 3425 1978 
L 3425 0 
L 2847 0 
L 2847 2094 
Q 2847 2600 2669 2842 
Q 2491 3084 2119 3084 
Q 1678 3084 1418 2786 
Q 1159 2488 1159 1978 
L 1159 0 
L 581 0 
L 581 3500 
L 1159 3500 
L 1159 2956 
Q 1356 3278 1631 3431 
Q 1906 3584 2284 3584 
Q 2666 3584 2933 3390 
Q 3200 3197 3328 2828 
z
" transform="scale(0.015625)"/>
       <path id="DejaVuSans-61" d="M 2194 1759 
Q 1497 1759 1228 1600 
Q 959 1441 959 1056 
Q 959 750 1161 570 
Q 1363 391 1709 391 
Q 2188 391 2477 730 
Q 2766 1069 2766 1631 
L 2766 1759 
L 2194 1759 
z
M 3341 1997 
L 3341 0 
L 2766 0 
L 2766 531 
Q 2569 213 2275 61 
Q 1981 -91 1556 -91 
Q 1019 -91 701 211 
Q 384 513 384 1019 
Q 384 1609 779 1909 
Q 1175 2209 1959 2209 
L 2766 2209 
L 2766 2266 
Q 2766 2663 2505 2880 
Q 2244 3097 1772 3097 
Q 1472 3097 1187 3025 
Q 903 2953 641 2809 
L 641 3341 
Q 956 3463 1253 3523 
Q 1550 3584 1831 3584 
Q 2591 3584 2966 3190 
Q 3341 2797 3341 1997 
z
" transform="scale(0.015625)"/>
       <path id="DejaVuSans-6c" d="M 603 4863 
L 1178 4863 
L 1178 0 
L 603 0 
L 603 4863 
z
" transform="scale(0.015625)"/>
       <path id="DejaVuSans-69" d="M 603 3500 
L 1178 3500 
L 1178 0 
L 603 0 
L 603 3500 
z
M 603 4863 
L 1178 4863 
L 1178 4134 
L 603 4134 
L 603 4863 
z
" transform="scale(0.015625)"/>
       <path id="DejaVuSans-7a" d="M 353 3500 
L 3084 3500 
L 3084 2975 
L 922 459 
L 3084 459 
L 3084 0 
L 275 0 
L 275 525 
L 2438 3041 
L 353 3041 
L 353 3500 
z
" transform="scale(0.015625)"/>
       <path id="DejaVuSans-65" d="M 3597 1894 
L 3597 1613 
L 953 1613 
Q 991 1019 1311 708 
Q 1631 397 2203 397 
Q 2534 397 2845 478 
Q 3156 559 3463 722 
L 3463 178 
Q 3153 47 2828 -22 
Q 2503 -91 2169 -91 
Q 1331 -91 842 396 
Q 353 884 353 1716 
Q 353 2575 817 3079 
Q 1281 3584 2069 3584 
Q 2775 3584 3186 3129 
Q 3597 2675 3597 1894 
z
M 3022 2063 
Q 3016 2534 2758 2815 
Q 2500 3097 2075 3097 
Q 1594 3097 1305 2825 
Q 1016 2553 972 2059 
L 3022 2063 
z
" transform="scale(0.015625)"/>
       <path id="DejaVuSans-64" d="M 2906 2969 
L 2906 4863 
L 3481 4863 
L 3481 0 
L 2906 0 
L 2906 525 
Q 2725 213 2448 61 
Q 2172 -91 1784 -91 
Q 1150 -91 751 415 
Q 353 922 353 1747 
Q 353 2572 751 3078 
Q 1150 3584 1784 3584 
Q 2172 3584 2448 3432 
Q 2725 3281 2906 2969 
z
M 947 1747 
Q 947 1113 1208 752 
Q 1469 391 1925 391 
Q 2381 391 2643 752 
Q 2906 1113 2906 1747 
Q 2906 2381 2643 2742 
Q 2381 3103 1925 3103 
Q 1469 3103 1208 2742 
Q 947 2381 947 1747 
z
" transform="scale(0.015625)"/>
       <path id="DejaVuSans-20" transform="scale(0.015625)"/>
       <path id="DejaVuSans-66" d="M 2375 4863 
L 2375 4384 
L 1825 4384 
Q 1516 4384 1395 4259 
Q 1275 4134 1275 3809 
L 1275 3500 
L 2222 3500 
L 2222 3053 
L 1275 3053 
L 1275 0 
L 697 0 
L 697 3053 
L 147 3053 
L 147 3500 
L 697 3500 
L 697 3744 
Q 697 4328 969 4595 
Q 1241 4863 1831 4863 
L 2375 4863 
z
" transform="scale(0.015625)"/>
       <path id="DejaVuSans-71" d="M 947 1747 
Q 947 1113 1208 752 
Q 1469 391 1925 391 
Q 2381 391 2643 752 
Q 2906 1113 2906 1747 
Q 2906 2381 2643 2742 
Q 2381 3103 1925 3103 
Q 1469 3103 1208 2742 
Q 947 2381 947 1747 
z
M 2906 525 
Q 2725 213 2448 61 
Q 2172 -91 1784 -91 
Q 1150 -91 751 415 
Q 353 922 353 1747 
Q 353 2572 751 3078 
Q 1150 3584 1784 3584 
Q 2172 3584 2448 3432 
Q 2725 3281 2906 2969 
L 2906 3500 
L 3481 3500 
L 3481 -1331 
L 2906 -1331 
L 2906 525 
z
" transform="scale(0.015625)"/>
       <path id="DejaVuSans-75" d="M 544 1381 
L 544 3500 
L 1119 3500 
L 1119 1403 
Q 1119 906 1312 657 
Q 1506 409 1894 409 
Q 2359 409 2629 706 
Q 2900 1003 2900 1516 
L 2900 3500 
L 3475 3500 
L 3475 0 
L 2900 0 
L 2900 538 
Q 2691 219 2414 64 
Q 2138 -91 1772 -91 
Q 1169 -91 856 284 
Q 544 659 544 1381 
z
M 1991 3584 
L 1991 3584 
z
" transform="scale(0.015625)"/>
       <path id="DejaVuSans-6e" d="M 3513 2113 
L 3513 0 
L 2938 0 
L 2938 2094 
Q 2938 2591 2744 2837 
Q 2550 3084 2163 3084 
Q 1697 3084 1428 2787 
Q 1159 2491 1159 1978 
L 1159 0 
L 581 0 
L 581 3500 
L 1159 3500 
L 1159 2956 
Q 1366 3272 1645 3428 
Q 1925 3584 2291 3584 
Q 2894 3584 3203 3211 
Q 3513 2838 3513 2113 
z
" transform="scale(0.015625)"/>
       <path id="DejaVuSans-63" d="M 3122 3366 
L 3122 2828 
Q 2878 2963 2633 3030 
Q 2388 3097 2138 3097 
Q 1578 3097 1268 2742 
Q 959 2388 959 1747 
Q 959 1106 1268 751 
Q 1578 397 2138 397 
Q 2388 397 2633 464 
Q 2878 531 3122 666 
L 3122 134 
Q 2881 22 2623 -34 
Q 2366 -91 2075 -91 
Q 1284 -91 818 406 
Q 353 903 353 1747 
Q 353 2603 823 3093 
Q 1294 3584 2113 3584 
Q 2378 3584 2631 3529 
Q 2884 3475 3122 3366 
z
" transform="scale(0.015625)"/>
       <path id="DejaVuSans-79" d="M 2059 -325 
Q 1816 -950 1584 -1140 
Q 1353 -1331 966 -1331 
L 506 -1331 
L 506 -850 
L 844 -850 
Q 1081 -850 1212 -737 
Q 1344 -625 1503 -206 
L 1606 56 
L 191 3500 
L 800 3500 
L 1894 763 
L 2988 3500 
L 3597 3500 
L 2059 -325 
z
" transform="scale(0.015625)"/>
       <path id="DejaVuSans-2c" d="M 750 794 
L 1409 794 
L 1409 256 
L 897 -744 
L 494 -744 
L 750 256 
L 750 794 
z
" transform="scale(0.015625)"/>
       <path id="DejaVuSans-Oblique-66" d="M 3059 4863 
L 2969 4384 
L 2419 4384 
Q 2106 4384 1964 4261 
Q 1822 4138 1753 3809 
L 1691 3500 
L 2638 3500 
L 2553 3053 
L 1606 3053 
L 1013 0 
L 434 0 
L 1031 3053 
L 481 3053 
L 563 3500 
L 1113 3500 
L 1159 3744 
Q 1278 4363 1576 4613 
Q 1875 4863 2516 4863 
L 3059 4863 
z
" transform="scale(0.015625)"/>
       <path id="DejaVuSans-2f" d="M 1625 4666 
L 2156 4666 
L 531 -594 
L 0 -594 
L 1625 4666 
z
" transform="scale(0.015625)"/>
       <path id="DejaVuSans-Oblique-73" d="M 3200 3397 
L 3091 2853 
Q 2863 2978 2609 3040 
Q 2356 3103 2088 3103 
Q 1634 3103 1373 2948 
Q 1113 2794 1113 2528 
Q 1113 2219 1719 2053 
Q 1766 2041 1788 2034 
L 1972 1978 
Q 2547 1819 2739 1644 
Q 2931 1469 2931 1166 
Q 2931 609 2489 259 
Q 2047 -91 1331 -91 
Q 1053 -91 747 -37 
Q 441 16 72 128 
L 184 722 
Q 500 559 806 475 
Q 1113 391 1394 391 
Q 1816 391 2080 572 
Q 2344 753 2344 1031 
Q 2344 1331 1650 1516 
L 1591 1531 
L 1394 1581 
Q 956 1697 753 1886 
Q 550 2075 550 2369 
Q 550 2928 970 3256 
Q 1391 3584 2113 3584 
Q 2397 3584 2667 3537 
Q 2938 3491 3200 3397 
z
" transform="scale(0.015625)"/>
      </defs>
      <use xlink:href="#DejaVuSans-4e" transform="translate(0 0.015625)"/>
      <use xlink:href="#DejaVuSans-6f" transform="translate(74.804688 0.015625)"/>
      <use xlink:href="#DejaVuSans-72" transform="translate(135.986328 0.015625)"/>
      <use xlink:href="#DejaVuSans-6d" transform="translate(177.099609 0.015625)"/>
      <use xlink:href="#DejaVuSans-61" transform="translate(274.511719 0.015625)"/>
      <use xlink:href="#DejaVuSans-6c" transform="translate(335.791016 0.015625)"/>
      <use xlink:href="#DejaVuSans-69" transform="translate(363.574219 0.015625)"/>
      <use xlink:href="#DejaVuSans-7a" transform="translate(391.357422 0.015625)"/>
      <use xlink:href="#DejaVuSans-65" transform="translate(443.847656 0.015625)"/>
      <use xlink:href="#DejaVuSans-64" transform="translate(505.371094 0.015625)"/>
      <use xlink:href="#DejaVuSans-20" transform="translate(568.847656 0.015625)"/>
      <use xlink:href="#DejaVuSans-66" transform="translate(600.634766 0.015625)"/>
      <use xlink:href="#DejaVuSans-72" transform="translate(635.839844 0.015625)"/>
      <use xlink:href="#DejaVuSans-65" transform="translate(676.953125 0.015625)"/>
      <use xlink:href="#DejaVuSans-71" transform="translate(738.476562 0.015625)"/>
      <use xlink:href="#DejaVuSans-75" transform="translate(801.953125 0.015625)"/>
      <use xlink:href="#DejaVuSans-65" transform="translate(865.332031 0.015625)"/>
      <use xlink:href="#DejaVuSans-6e" transform="translate(926.855469 0.015625)"/>
      <use xlink:href="#DejaVuSans-63" transform="translate(990.234375 0.015625)"/>
      <use xlink:href="#DejaVuSans-79" transform="translate(1045.214844 0.015625)"/>
      <use xlink:href="#DejaVuSans-2c" transform="translate(1104.394531 0.015625)"/>
      <use xlink:href="#DejaVuSans-20" transform="translate(1136.181641 0.015625)"/>
      <use xlink:href="#DejaVuSans-Oblique-66" transform="translate(1167.96875 0.015625)"/>
      <use xlink:href="#DejaVuSans-2f" transform="translate(1203.173828 0.015625)"/>
      <use xlink:href="#DejaVuSans-Oblique-66" transform="translate(1236.865234 0.015625)"/>
      <use xlink:href="#DejaVuSans-Oblique-73" transform="translate(1272.070312 -16.390625) scale(0.7)"/>
     </g>
    </g>
   </g>
   <g id="matplotlib.axis_2">
    <g id="ytick_1">
     <g id="line2d_13">
      <path d="M 57.167188 223.155898 
L 568.8 223.155898 
" clip-path="url(#p58376fc7f6)" style="fill: none; stroke-dasharray: 2.96,1.28; stroke-dashoffset: 0; stroke: #b0b0b0; stroke-opacity: 0.8; stroke-width: 0.8"/>
     </g>
     <g id="line2d_14">
      <defs>
       <path id="me60fc38617" d="M 0 0 
L -3.5 0 
" style="stroke: #000000; stroke-width: 0.8"/>
      </defs>
      <g>
       <use xlink:href="#me60fc38617" x="57.167188" y="223.155898" style="stroke: #000000; stroke-width: 0.8"/>
      </g>
     </g>
     <g id="text_8">
      <!-- −100 -->
      <g transform="translate(22.7 226.955117) scale(0.1 -0.1)">
       <defs>
        <path id="DejaVuSans-2212" d="M 678 2272 
L 4684 2272 
L 4684 1741 
L 678 1741 
L 678 2272 
z
" transform="scale(0.015625)"/>
       </defs>
       <use xlink:href="#DejaVuSans-2212"/>
       <use xlink:href="#DejaVuSans-31" transform="translate(83.789062 0)"/>
       <use xlink:href="#DejaVuSans-30" transform="translate(147.412109 0)"/>
       <use xlink:href="#DejaVuSans-30" transform="translate(211.035156 0)"/>
      </g>
     </g>
    </g>
    <g id="ytick_2">
     <g id="line2d_15">
      <path d="M 57.167188 185.408137 
L 568.8 185.408137 
" clip-path="url(#p58376fc7f6)" style="fill: none; stroke-dasharray: 2.96,1.28; stroke-dashoffset: 0; stroke: #b0b0b0; stroke-opacity: 0.8; stroke-width: 0.8"/>
     </g>
     <g id="line2d_16">
      <g>
       <use xlink:href="#me60fc38617" x="57.167188" y="185.408137" style="stroke: #000000; stroke-width: 0.8"/>
      </g>
     </g>
     <g id="text_9">
      <!-- −80 -->
      <g transform="translate(29.0625 189.207356) scale(0.1 -0.1)">
       <defs>
        <path id="DejaVuSans-38" d="M 2034 2216 
Q 1584 2216 1326 1975 
Q 1069 1734 1069 1313 
Q 1069 891 1326 650 
Q 1584 409 2034 409 
Q 2484 409 2743 651 
Q 3003 894 3003 1313 
Q 3003 1734 2745 1975 
Q 2488 2216 2034 2216 
z
M 1403 2484 
Q 997 2584 770 2862 
Q 544 3141 544 3541 
Q 544 4100 942 4425 
Q 1341 4750 2034 4750 
Q 2731 4750 3128 4425 
Q 3525 4100 3525 3541 
Q 3525 3141 3298 2862 
Q 3072 2584 2669 2484 
Q 3125 2378 3379 2068 
Q 3634 1759 3634 1313 
Q 3634 634 3220 271 
Q 2806 -91 2034 -91 
Q 1263 -91 848 271 
Q 434 634 434 1313 
Q 434 1759 690 2068 
Q 947 2378 1403 2484 
z
M 1172 3481 
Q 1172 3119 1398 2916 
Q 1625 2713 2034 2713 
Q 2441 2713 2670 2916 
Q 2900 3119 2900 3481 
Q 2900 3844 2670 4047 
Q 2441 4250 2034 4250 
Q 1625 4250 1398 4047 
Q 1172 3844 1172 3481 
z
" transform="scale(0.015625)"/>
       </defs>
       <use xlink:href="#DejaVuSans-2212"/>
       <use xlink:href="#DejaVuSans-38" transform="translate(83.789062 0)"/>
       <use xlink:href="#DejaVuSans-30" transform="translate(147.412109 0)"/>
      </g>
     </g>
    </g>
    <g id="ytick_3">
     <g id="line2d_17">
      <path d="M 57.167188 147.660376 
L 568.8 147.660376 
" clip-path="url(#p58376fc7f6)" style="fill: none; stroke-dasharray: 2.96,1.28; stroke-dashoffset: 0; stroke: #b0b0b0; stroke-opacity: 0.8; stroke-width: 0.8"/>
     </g>
     <g id="line2d_18">
      <g>
       <use xlink:href="#me60fc38617" x="57.167188" y="147.660376" style="stroke: #000000; stroke-width: 0.8"/>
      </g>
     </g>
     <g id="text_10">
      <!-- −60 -->
      <g transform="translate(29.0625 151.459595) scale(0.1 -0.1)">
       <defs>
        <path id="DejaVuSans-36" d="M 2113 2584 
Q 1688 2584 1439 2293 
Q 1191 2003 1191 1497 
Q 1191 994 1439 701 
Q 1688 409 2113 409 
Q 2538 409 2786 701 
Q 3034 994 3034 1497 
Q 3034 2003 2786 2293 
Q 2538 2584 2113 2584 
z
M 3366 4563 
L 3366 3988 
Q 3128 4100 2886 4159 
Q 2644 4219 2406 4219 
Q 1781 4219 1451 3797 
Q 1122 3375 1075 2522 
Q 1259 2794 1537 2939 
Q 1816 3084 2150 3084 
Q 2853 3084 3261 2657 
Q 3669 2231 3669 1497 
Q 3669 778 3244 343 
Q 2819 -91 2113 -91 
Q 1303 -91 875 529 
Q 447 1150 447 2328 
Q 447 3434 972 4092 
Q 1497 4750 2381 4750 
Q 2619 4750 2861 4703 
Q 3103 4656 3366 4563 
z
" transform="scale(0.015625)"/>
       </defs>
       <use xlink:href="#DejaVuSans-2212"/>
       <use xlink:href="#DejaVuSans-36" transform="translate(83.789062 0)"/>
       <use xlink:href="#DejaVuSans-30" transform="translate(147.412109 0)"/>
      </g>
     </g>
    </g>
    <g id="ytick_4">
     <g id="line2d_19">
      <path d="M 57.167188 109.912615 
L 568.8 109.912615 
" clip-path="url(#p58376fc7f6)" style="fill: none; stroke-dasharray: 2.96,1.28; stroke-dashoffset: 0; stroke: #b0b0b0; stroke-opacity: 0.8; stroke-width: 0.8"/>
     </g>
     <g id="line2d_20">
      <g>
       <use xlink:href="#me60fc38617" x="57.167188" y="109.912615" style="stroke: #000000; stroke-width: 0.8"/>
      </g>
     </g>
     <g id="text_11">
      <!-- −40 -->
      <g transform="translate(29.0625 113.711834) scale(0.1 -0.1)">
       <use xlink:href="#DejaVuSans-2212"/>
       <use xlink:href="#DejaVuSans-34" transform="translate(83.789062 0)"/>
       <use xlink:href="#DejaVuSans-30" transform="translate(147.412109 0)"/>
      </g>
     </g>
    </g>
    <g id="ytick_5">
     <g id="line2d_21">
      <path d="M 57.167188 72.164855 
L 568.8 72.164855 
" clip-path="url(#p58376fc7f6)" style="fill: none; stroke-dasharray: 2.96,1.28; stroke-dashoffset: 0; stroke: #b0b0b0; stroke-opacity: 0.8; stroke-width: 0.8"/>
     </g>
     <g id="line2d_22">
      <g>
       <use xlink:href="#me60fc38617" x="57.167188" y="72.164855" style="stroke: #000000; stroke-width: 0.8"/>
      </g>
     </g>
     <g id="text_12">
      <!-- −20 -->
      <g transform="translate(29.0625 75.964073) scale(0.1 -0.1)">
       <use xlink:href="#DejaVuSans-2212"/>
       <use xlink:href="#DejaVuSans-32" transform="translate(83.789062 0)"/>
       <use xlink:href="#DejaVuSans-30" transform="translate(147.412109 0)"/>
      </g>
     </g>
    </g>
    <g id="ytick_6">
     <g id="line2d_23">
      <path d="M 57.167188 34.417094 
L 568.8 34.417094 
" clip-path="url(#p58376fc7f6)" style="fill: none; stroke-dasharray: 2.96,1.28; stroke-dashoffset: 0; stroke: #b0b0b0; stroke-opacity: 0.8; stroke-width: 0.8"/>
     </g>
     <g id="line2d_24">
      <g>
       <use xlink:href="#me60fc38617" x="57.167188" y="34.417094" style="stroke: #000000; stroke-width: 0.8"/>
      </g>
     </g>
     <g id="text_13">
      <!-- 0 -->
      <g transform="translate(43.804688 38.216313) scale(0.1 -0.1)">
       <use xlink:href="#DejaVuSans-30"/>
      </g>
     </g>
    </g>
    <g id="text_14">
     <!-- Power (dB), $|H(\omega)|^2$ -->
     <g transform="translate(16.3 185.470937) rotate(-90) scale(0.1 -0.1)">
      <defs>
       <path id="DejaVuSans-50" d="M 1259 4147 
L 1259 2394 
L 2053 2394 
Q 2494 2394 2734 2622 
Q 2975 2850 2975 3272 
Q 2975 3691 2734 3919 
Q 2494 4147 2053 4147 
L 1259 4147 
z
M 628 4666 
L 2053 4666 
Q 2838 4666 3239 4311 
Q 3641 3956 3641 3272 
Q 3641 2581 3239 2228 
Q 2838 1875 2053 1875 
L 1259 1875 
L 1259 0 
L 628 0 
L 628 4666 
z
" transform="scale(0.015625)"/>
       <path id="DejaVuSans-77" d="M 269 3500 
L 844 3500 
L 1563 769 
L 2278 3500 
L 2956 3500 
L 3675 769 
L 4391 3500 
L 4966 3500 
L 4050 0 
L 3372 0 
L 2619 2869 
L 1863 0 
L 1184 0 
L 269 3500 
z
" transform="scale(0.015625)"/>
       <path id="DejaVuSans-28" d="M 1984 4856 
Q 1566 4138 1362 3434 
Q 1159 2731 1159 2009 
Q 1159 1288 1364 580 
Q 1569 -128 1984 -844 
L 1484 -844 
Q 1016 -109 783 600 
Q 550 1309 550 2009 
Q 550 2706 781 3412 
Q 1013 4119 1484 4856 
L 1984 4856 
z
" transform="scale(0.015625)"/>
       <path id="DejaVuSans-42" d="M 1259 2228 
L 1259 519 
L 2272 519 
Q 2781 519 3026 730 
Q 3272 941 3272 1375 
Q 3272 1813 3026 2020 
Q 2781 2228 2272 2228 
L 1259 2228 
z
M 1259 4147 
L 1259 2741 
L 2194 2741 
Q 2656 2741 2882 2914 
Q 3109 3088 3109 3444 
Q 3109 3797 2882 3972 
Q 2656 4147 2194 4147 
L 1259 4147 
z
M 628 4666 
L 2241 4666 
Q 2963 4666 3353 4366 
Q 3744 4066 3744 3513 
Q 3744 3084 3544 2831 
Q 3344 2578 2956 2516 
Q 3422 2416 3680 2098 
Q 3938 1781 3938 1306 
Q 3938 681 3513 340 
Q 3088 0 2303 0 
L 628 0 
L 628 4666 
z
" transform="scale(0.015625)"/>
       <path id="DejaVuSans-29" d="M 513 4856 
L 1013 4856 
Q 1481 4119 1714 3412 
Q 1947 2706 1947 2009 
Q 1947 1309 1714 600 
Q 1481 -109 1013 -844 
L 513 -844 
Q 928 -128 1133 580 
Q 1338 1288 1338 2009 
Q 1338 2731 1133 3434 
Q 928 4138 513 4856 
z
" transform="scale(0.015625)"/>
       <path id="DejaVuSans-7c" d="M 1344 4891 
L 1344 -1509 
L 813 -1509 
L 813 4891 
L 1344 4891 
z
" transform="scale(0.015625)"/>
       <path id="DejaVuSans-Oblique-48" d="M 1081 4666 
L 1716 4666 
L 1344 2753 
L 3634 2753 
L 4006 4666 
L 4641 4666 
L 3731 0 
L 3097 0 
L 3531 2222 
L 1241 2222 
L 806 0 
L 172 0 
L 1081 4666 
z
" transform="scale(0.015625)"/>
       <path id="DejaVuSans-Oblique-3c9" d="M 1369 -91 
Q 72 -91 434 1766 
Q 575 2500 1256 3500 
L 1875 3500 
Q 1231 2500 1088 1750 
Q 819 397 1519 397 
Q 2166 397 2478 2078 
L 3009 2078 
Q 2669 388 3316 397 
Q 4013 403 4275 1750 
Q 4419 2500 4169 3500 
L 4788 3500 
Q 5075 2500 4934 1766 
Q 4578 -94 3278 -91 
Q 2428 -88 2503 844 
Q 2194 -91 1369 -91 
z
" transform="scale(0.015625)"/>
      </defs>
      <use xlink:href="#DejaVuSans-50" transform="translate(0 0.765625)"/>
      <use xlink:href="#DejaVuSans-6f" transform="translate(60.302734 0.765625)"/>
      <use xlink:href="#DejaVuSans-77" transform="translate(121.484375 0.765625)"/>
      <use xlink:href="#DejaVuSans-65" transform="translate(203.271484 0.765625)"/>
      <use xlink:href="#DejaVuSans-72" transform="translate(264.794922 0.765625)"/>
      <use xlink:href="#DejaVuSans-20" transform="translate(305.908203 0.765625)"/>
      <use xlink:href="#DejaVuSans-28" transform="translate(337.695312 0.765625)"/>
      <use xlink:href="#DejaVuSans-64" transform="translate(376.708984 0.765625)"/>
      <use xlink:href="#DejaVuSans-42" transform="translate(440.185547 0.765625)"/>
      <use xlink:href="#DejaVuSans-29" transform="translate(508.789062 0.765625)"/>
      <use xlink:href="#DejaVuSans-2c" transform="translate(547.802734 0.765625)"/>
      <use xlink:href="#DejaVuSans-20" transform="translate(579.589844 0.765625)"/>
      <use xlink:href="#DejaVuSans-7c" transform="translate(611.376953 0.765625)"/>
      <use xlink:href="#DejaVuSans-Oblique-48" transform="translate(645.068359 0.765625)"/>
      <use xlink:href="#DejaVuSans-28" transform="translate(720.263672 0.765625)"/>
      <use xlink:href="#DejaVuSans-Oblique-3c9" transform="translate(759.277344 0.765625)"/>
      <use xlink:href="#DejaVuSans-29" transform="translate(843.017578 0.765625)"/>
      <use xlink:href="#DejaVuSans-7c" transform="translate(882.03125 0.765625)"/>
      <use xlink:href="#DejaVuSans-32" transform="translate(916.679688 39.046875) scale(0.7)"/>
     </g>
    </g>
   </g>
   <g id="line2d_25">
    <path d="M 80.423224 147.879638 
L 80.877888 148.08484 
L 81.332551 148.710999 
L 81.787215 149.792055 
L 82.241878 151.393264 
L 82.696542 153.629199 
L 83.151205 156.704347 
L 83.605869 161.015886 
L 84.060532 167.478537 
L 84.515196 179.114716 
L 84.969859 225.559504 
L 85.424523 177.306468 
L 85.879186 166.588231 
L 86.33385 160.437356 
L 86.788513 156.286697 
L 87.243177 153.312583 
L 87.69784 151.14834 
L 88.152504 149.602745 
L 88.607167 148.568085 
L 89.061831 147.983204 
L 89.516494 147.817013 
L 89.971157 148.061311 
L 90.425821 148.72903 
L 90.880484 149.857037 
L 91.335148 151.514869 
L 91.789811 153.824364 
L 92.244475 157.004292 
L 92.699138 161.485436 
L 93.153802 168.286777 
L 93.608465 181.004109 
L 94.063129 207.516456 
L 94.517792 175.565851 
L 94.972456 165.625431 
L 95.427119 159.757789 
L 95.881783 155.757327 
L 96.336446 152.878968 
L 96.79111 150.783334 
L 97.245773 149.291332 
L 97.700437 148.301626 
L 98.1551 147.756928 
L 98.609764 147.628873 
L 99.064427 147.911558 
L 99.519091 148.620278 
L 99.973754 149.794856 
L 100.428417 151.509224 
L 100.883081 153.892785 
L 101.337744 157.179429 
L 101.792408 161.836363 
L 102.247071 169.000302 
L 103.156398 199.076534 
L 103.611062 173.880055 
L 104.065725 164.597013 
L 104.520389 158.983448 
L 104.975052 155.12105 
L 105.429716 152.331895 
L 105.884379 150.300724 
L 106.339043 148.859378 
L 106.793706 147.912356 
L 107.24837 147.405962 
L 107.703033 147.314403 
L 108.157697 147.633977 
L 108.61236 148.382285 
L 109.067024 149.602087 
L 109.521687 151.37174 
L 109.976351 153.828376 
L 110.431014 157.221588 
L 110.885677 162.057319 
L 111.340341 169.602962 
L 111.795004 185.080518 
L 112.249668 193.462095 
L 112.704331 172.237112 
L 113.158995 163.507521 
L 113.613658 158.11896 
L 114.068322 154.381451 
L 114.522985 151.673924 
L 114.977649 149.702153 
L 115.432312 148.307701 
L 115.886976 147.400333 
L 116.341639 146.929632 
L 116.796303 146.872189 
L 117.250966 147.226378 
L 117.70563 148.01201 
L 118.160293 149.2747 
L 118.614957 151.097169 
L 119.06962 153.624272 
L 119.524284 157.121549 
L 119.978947 162.135221 
L 120.433611 170.074613 
L 120.888274 187.28946 
L 121.342938 189.211363 
L 121.797601 170.625971 
L 122.252264 162.359534 
L 122.706928 157.167401 
L 123.161591 153.540887 
L 123.616255 150.906577 
L 124.070918 148.988357 
L 124.525582 147.636304 
L 124.980245 146.764857 
L 125.434909 146.326547 
L 125.889572 146.300134 
L 126.344236 146.685908 
L 126.798899 147.505751 
L 127.253563 148.807992 
L 127.708226 150.679544 
L 128.16289 153.272782 
L 128.617553 156.869004 
L 129.072217 162.055161 
L 129.52688 170.390518 
L 129.981544 189.613899 
L 130.436207 185.760117 
L 130.890871 169.036688 
L 131.345534 161.154101 
L 131.800198 156.130486 
L 132.254861 152.600552 
L 132.709524 150.030355 
L 133.164188 148.159143 
L 133.618851 146.844328 
L 134.073515 146.004418 
L 134.528178 145.59454 
L 134.982842 145.595384 
L 135.437505 146.008967 
L 135.892169 146.859057 
L 136.346832 148.196483 
L 136.801496 150.112066 
L 137.256159 152.765255 
L 137.710823 156.452397 
L 138.165486 161.800179 
L 138.62015 170.520496 
L 139.074813 192.027041 
L 139.529477 182.833344 
L 139.98414 167.46097 
L 140.438804 159.891404 
L 140.893467 155.008968 
L 141.348131 151.560731 
L 141.802794 149.044905 
L 142.257458 147.213508 
L 142.712121 145.930126 
L 143.166784 145.116728 
L 143.621448 144.730667 
L 144.076111 144.754301 
L 144.530775 145.191148 
L 144.985438 146.066632 
L 145.440102 147.433792 
L 145.894765 149.386925 
L 146.349429 152.091843 
L 146.804092 155.858587 
L 147.258756 161.350717 
L 147.713419 170.427503 
L 148.168083 194.44311 
L 149.07741 165.893498 
L 149.532073 158.571943 
L 149.986737 153.803491 
L 150.4414 150.421463 
L 150.896064 147.949553 
L 151.350727 146.150067 
L 151.805391 144.89162 
L 152.260054 144.099017 
L 152.714718 143.731443 
L 153.169381 143.772632 
L 153.624044 144.22734 
L 154.078708 145.122356 
L 154.533371 146.512545 
L 154.988035 148.495088 
L 155.442698 151.241102 
L 155.897362 155.072164 
L 156.352025 160.683426 
L 156.806689 170.06489 
L 157.261352 196.645474 
L 157.716016 178.029298 
L 158.170679 164.335053 
L 158.625343 157.199008 
L 159.080006 152.516536 
L 159.53467 149.184153 
L 159.989333 146.744688 
L 160.443997 144.968275 
L 160.89866 143.727376 
L 161.353324 142.948976 
L 161.807987 142.593656 
L 162.262651 142.646191 
L 162.717314 143.112257 
L 163.171978 144.019638 
L 163.626641 145.424511 
L 164.081304 147.426119 
L 164.535968 150.199374 
L 164.990631 154.074153 
L 165.445295 159.768608 
L 165.899958 169.37058 
L 166.354622 198.150946 
L 166.809285 176.056653 
L 167.263949 162.799968 
L 167.718612 155.7843 
L 168.173276 151.157006 
L 168.627939 147.855518 
L 169.082603 145.43527 
L 169.537266 143.671587 
L 169.99193 142.439485 
L 170.446593 141.667373 
L 170.901257 141.316723 
L 171.35592 141.372932 
L 171.810584 141.842184 
L 172.265247 142.752757 
L 172.719911 144.161422 
L 173.174574 146.1683 
L 173.629238 148.949875 
L 174.083901 152.839428 
L 174.538565 158.56457 
L 174.993228 168.253977 
L 175.447891 198.039401 
L 175.902555 174.429592 
L 176.357218 161.33506 
L 176.811882 154.361976 
L 177.266545 149.751824 
L 177.721209 146.457726 
L 178.175872 144.039968 
L 178.630536 142.275846 
L 179.085199 141.041302 
L 179.539863 140.265203 
L 179.994526 139.909232 
L 180.44919 139.958832 
L 180.903853 140.420086 
L 181.358517 141.321008 
L 181.81318 142.717846 
L 182.267844 144.709737 
L 182.722507 147.471197 
L 183.177171 151.33104 
L 183.631834 157.004279 
L 184.086498 166.565051 
L 184.541161 195.007821 
L 184.995825 173.400869 
L 185.450488 160.073377 
L 185.905151 153.027789 
L 186.359815 148.378344 
L 186.814478 145.056899 
L 187.269142 142.617038 
L 187.723805 140.833171 
L 188.178469 139.579679 
L 188.633132 138.784378 
L 189.087796 138.408066 
L 189.542459 138.435255 
L 189.997123 138.87088 
L 190.451786 139.741324 
L 190.90645 141.100292 
L 191.361113 143.042546 
L 191.815777 145.734219 
L 192.27044 149.485551 
L 192.725104 154.960177 
L 193.179767 164.017144 
L 193.634431 188.00628 
L 194.543758 159.417288 
L 194.998421 152.068234 
L 195.453085 147.270131 
L 195.907748 143.855812 
L 196.362411 141.348475 
L 196.817075 139.509801 
L 197.271738 138.207579 
L 197.726402 137.365487 
L 198.181065 136.941145 
L 198.635729 136.916054 
L 199.090392 137.291677 
L 199.545056 138.089744 
L 199.999719 139.356922 
L 200.454383 141.176172 
L 200.909046 143.691531 
L 201.36371 147.165706 
L 201.818373 152.136636 
L 202.273037 159.98288 
L 202.7277 176.79406 
L 203.182364 180.001469 
L 203.637027 160.912581 
L 204.091691 152.529629 
L 204.546354 147.267803 
L 205.001018 143.582443 
L 205.455681 140.889483 
L 205.910345 138.907519 
L 206.365008 137.482651 
L 206.819671 136.525282 
L 207.274335 135.983062 
L 207.728998 135.828253 
L 208.183662 136.051948 
L 208.638325 136.662345 
L 209.092989 137.686318 
L 209.547652 139.174973 
L 210.002316 141.215908 
L 210.456979 143.959407 
L 210.911643 147.679409 
L 211.366306 152.941098 
L 211.82097 161.220586 
L 212.275633 179.458026 
L 212.730297 178.857643 
L 213.18496 161.317886 
L 213.639624 153.349705 
L 214.094287 148.334087 
L 214.548951 144.825571 
L 215.003614 142.262013 
L 215.458278 140.364619 
L 215.912941 138.973707 
L 216.367605 137.988018 
L 216.822268 137.337719 
L 217.276931 136.970664 
L 217.731595 136.84457 
L 218.186258 136.922121 
L 218.640922 137.167686 
L 219.550249 138.016341 
L 221.368903 140.050152 
L 222.27823 140.747532 
L 223.187557 141.321861 
L 223.64222 141.751612 
L 224.096884 142.470653 
L 224.551547 143.726677 
L 225.006211 145.948121 
L 225.460874 150.040987 
L 225.915538 158.798821 
L 226.370201 240.135426 
L 226.824865 153.930915 
L 227.279528 140.045733 
L 228.188855 123.893379 
L 229.098182 112.755557 
L 230.007509 103.855983 
L 231.371499 92.932983 
L 232.73549 83.932412 
L 234.09948 76.308901 
L 235.463471 69.75982 
L 236.827461 64.092371 
L 238.191452 59.172446 
L 239.555442 54.900842 
L 240.919432 51.200623 
L 242.283423 48.009695 
L 243.647413 45.276105 
L 245.011404 42.954869 
L 246.375394 41.00575 
L 247.739385 39.391643 
L 249.103375 38.077421 
L 250.467365 37.02913 
L 251.831356 36.213512 
L 253.65001 35.431487 
L 255.468664 34.929446 
L 257.741981 34.587299 
L 260.469962 34.434979 
L 266.380587 34.417259 
L 274.56453 34.504932 
L 276.837847 34.748124 
L 278.656501 35.12988 
L 280.475155 35.750175 
L 281.839145 36.415736 
L 283.203136 37.28872 
L 284.567126 38.402125 
L 285.931117 39.789661 
L 287.295107 41.485985 
L 288.659098 43.527247 
L 290.023088 45.951973 
L 291.387079 48.802331 
L 292.751069 52.125883 
L 294.115059 55.978011 
L 295.47905 60.425383 
L 296.84304 65.551085 
L 298.207031 71.462701 
L 299.571021 78.30598 
L 300.935012 86.290376 
L 302.299002 95.743755 
L 303.662992 107.25548 
L 304.572319 116.670512 
L 305.481646 128.529187 
L 305.93631 136.149925 
L 306.390973 146.152411 
L 306.845637 162.649899 
L 307.3003 183.669932 
L 307.754964 159.765211 
L 308.209627 152.745028 
L 308.664291 149.258508 
L 309.118954 147.264659 
L 309.573618 146.006605 
L 310.482945 144.325423 
L 311.392272 142.69815 
L 312.756262 139.688501 
L 314.120252 136.735404 
L 315.029579 135.359527 
L 315.484243 134.949669 
L 315.938906 134.762175 
L 316.39357 134.824785 
L 316.848233 135.16859 
L 317.302897 135.831768 
L 317.75756 136.865017 
L 318.212224 138.340365 
L 318.666887 140.367144 
L 319.121551 143.124477 
L 319.576214 146.937527 
L 320.030878 152.496935 
L 320.485541 161.755591 
L 320.940205 187.452367 
L 321.849532 156.251194 
L 322.304195 148.99973 
L 322.758859 144.225183 
L 323.213522 140.805069 
L 323.668185 138.2757 
L 324.122849 136.403491 
L 324.577512 135.057698 
L 325.032176 134.161718 
L 325.486839 133.671558 
L 325.941503 133.565728 
L 326.396166 133.840895 
L 326.85083 134.51126 
L 327.305493 135.611374 
L 327.760157 137.203668 
L 328.21482 139.394576 
L 328.669484 142.369792 
L 329.124147 146.480553 
L 329.578811 152.502725 
L 330.033474 162.776217 
L 330.488138 199.131038 
L 330.942801 166.83559 
L 331.397465 154.593433 
L 331.852128 147.94987 
L 332.306792 143.552317 
L 332.761455 140.424412 
L 333.216119 138.148497 
L 333.670782 136.51076 
L 334.125446 135.391133 
L 334.580109 134.720171 
L 335.034772 134.45988 
L 335.489436 134.594951 
L 335.944099 135.129569 
L 336.398763 136.088265 
L 336.853426 137.521209 
L 337.30809 139.516599 
L 337.762753 142.227659 
L 338.217417 145.936118 
L 338.67208 151.228673 
L 339.126744 159.662005 
L 339.581407 178.945432 
L 340.036071 175.29781 
L 340.490734 158.63828 
L 340.945398 150.840037 
L 341.400061 145.900845 
L 341.854725 142.45272 
L 342.309388 139.960692 
L 342.764052 138.163254 
L 343.218715 136.917013 
L 343.673379 136.13946 
L 344.128042 135.784344 
L 344.582706 135.830412 
L 345.037369 136.276828 
L 345.492032 137.142999 
L 345.946696 138.472725 
L 346.401359 140.34472 
L 346.856023 142.895615 
L 347.310686 146.372934 
L 347.76535 151.27644 
L 348.220013 158.851152 
L 348.674677 174.153716 
L 349.12934 183.799949 
L 349.584004 162.109849 
L 350.038667 153.374304 
L 350.493331 148.026452 
L 350.947994 144.341535 
L 351.402658 141.689356 
L 351.857321 139.771953 
L 352.311985 138.428753 
L 352.766648 137.56785 
L 353.221312 137.137137 
L 353.675975 137.111157 
L 354.130639 137.485506 
L 354.585302 138.275918 
L 355.039966 139.521604 
L 355.494629 141.294461 
L 355.949292 143.719356 
L 356.403956 147.02013 
L 356.858619 151.638792 
L 357.313283 158.629087 
L 357.767946 171.789807 
L 358.22261 194.730351 
L 358.677273 165.381712 
L 359.131937 155.720696 
L 359.5866 149.997072 
L 360.041264 146.099768 
L 360.495927 143.305066 
L 360.950591 141.280872 
L 361.405254 139.850993 
L 361.859918 138.915151 
L 362.314581 138.416096 
L 362.769245 138.324717 
L 363.223908 138.633535 
L 363.678572 139.35514 
L 364.133235 140.524846 
L 364.587899 142.208824 
L 365.042562 144.5222 
L 365.497226 147.669626 
L 365.951889 152.047807 
L 366.406552 158.569103 
L 366.861216 170.242371 
L 367.315879 217.709616 
L 367.770543 168.649755 
L 368.225206 157.962462 
L 368.67987 151.853865 
L 369.134533 147.745658 
L 369.589197 144.811602 
L 370.04386 142.683847 
L 370.498524 141.170285 
L 370.953187 140.162276 
L 371.407851 139.597515 
L 371.862514 139.443364 
L 372.317178 139.689419 
L 372.771841 140.345336 
L 373.226505 141.442846 
L 373.681168 143.042948 
L 374.135832 145.252104 
L 374.590495 148.258249 
L 375.045159 152.419757 
L 375.499822 158.535239 
L 375.954486 169.052384 
L 376.409149 210.055676 
L 376.863812 172.061038 
L 377.318476 160.153299 
L 377.773139 153.627194 
L 378.227803 149.29842 
L 378.682466 146.221503 
L 379.13713 143.988919 
L 379.591793 142.391389 
L 380.046457 141.311438 
L 380.50112 140.681516 
L 380.955784 140.465389 
L 381.410447 140.649742 
L 381.865111 141.24137 
L 382.319774 142.26859 
L 382.774438 143.787559 
L 383.229101 145.896782 
L 383.683765 148.76914 
L 384.138428 152.729423 
L 384.593092 158.480996 
L 385.047755 168.047715 
L 385.502419 195.460957 
L 385.957082 175.770259 
L 386.411746 162.33529 
L 386.866409 155.341566 
L 387.321073 150.775692 
L 387.775736 147.548671 
L 388.230399 145.207589 
L 388.685063 143.524102 
L 389.139726 142.371126 
L 389.59439 141.675519 
L 390.049053 141.39729 
L 390.503717 141.520151 
L 390.95838 142.048048 
L 391.413044 143.005986 
L 391.867707 144.445517 
L 392.322371 146.457723 
L 392.777034 149.201724 
L 393.231698 152.972397 
L 393.686361 158.391757 
L 394.141025 167.152515 
L 394.595688 188.438858 
L 395.050352 179.988881 
L 395.505015 164.546688 
L 395.959679 157.017937 
L 396.414342 152.193062 
L 396.869006 148.80614 
L 397.323669 146.351385 
L 397.778333 144.57893 
L 398.232996 143.351093 
L 398.687659 142.588679 
L 399.142323 142.247715 
L 399.596986 142.308838 
L 400.05165 142.773129 
L 400.506313 143.662342 
L 400.960977 145.023619 
L 401.41564 146.941069 
L 401.870304 149.561137 
L 402.324967 153.151856 
L 402.779631 158.265016 
L 403.234294 166.329129 
L 403.688958 183.857702 
L 404.143621 185.071536 
L 404.598285 166.826675 
L 405.052948 158.675158 
L 405.507612 153.56426 
L 405.962275 150.00554 
L 406.416939 147.430812 
L 406.871602 145.56568 
L 407.326266 144.260657 
L 407.780929 143.429945 
L 408.235593 143.025316 
L 408.690256 143.024198 
L 409.144919 143.424771 
L 409.599583 144.245585 
L 410.054246 145.529537 
L 410.50891 147.35416 
L 410.963573 149.854197 
L 411.418237 153.273487 
L 411.8729 158.102823 
L 412.327564 165.556878 
L 413.236891 191.751461 
L 413.691554 169.219594 
L 414.146218 160.331049 
L 414.600881 154.901536 
L 415.055545 151.157106 
L 415.510208 148.455145 
L 415.964872 146.493073 
L 416.419535 145.108183 
L 416.874199 144.207428 
L 417.328862 143.73801 
L 417.783526 143.673996 
L 418.238189 144.010609 
L 418.692853 144.763226 
L 419.147516 145.97065 
L 419.602179 147.704205 
L 420.056843 150.087808 
L 420.511506 153.343448 
L 420.96617 157.908723 
L 421.420833 164.823334 
L 421.875497 177.802715 
L 422.33016 202.113696 
L 422.784824 171.780147 
L 423.239487 162.003342 
L 423.694151 156.216055 
L 424.148814 152.269876 
L 424.603478 149.432487 
L 425.058141 147.368723 
L 425.512805 145.90099 
L 425.967468 144.928256 
L 426.422132 144.392791 
L 426.876795 144.265126 
L 427.331459 144.537456 
L 427.786122 145.222014 
L 428.240786 146.353639 
L 428.695449 147.997788 
L 429.150113 150.268353 
L 429.604776 153.367565 
L 430.059439 157.686484 
L 430.514103 164.120373 
L 430.968766 175.58968 
L 431.42343 231.103382 
L 431.878093 174.581298 
L 432.332757 163.710611 
L 432.78742 157.518275 
L 433.242084 153.351912 
L 433.696747 150.369927 
L 434.151411 148.199238 
L 434.606074 146.645421 
L 435.060738 145.598609 
L 435.515401 144.995734 
L 435.970065 144.803591 
L 436.424728 145.011269 
L 436.879392 145.627864 
L 437.334055 146.684381 
L 437.788719 148.240723 
L 438.243382 150.401493 
L 438.698046 153.351035 
L 439.152709 157.439588 
L 439.607373 163.442281 
L 440.062036 173.698485 
L 440.5167 210.038265 
L 440.971363 177.728143 
L 441.426026 165.473318 
L 441.88069 158.818298 
L 442.335353 154.41052 
L 442.790017 151.273705 
L 443.24468 148.990361 
L 443.699344 147.346953 
L 444.154007 146.223813 
L 444.608671 145.552075 
L 445.063334 145.294571 
L 445.517998 145.43719 
L 445.972661 145.985897 
L 446.427325 146.967971 
L 446.881988 148.438055 
L 447.336652 150.492138 
L 447.791315 153.298358 
L 448.245979 157.171055 
L 448.700642 162.78476 
L 449.155306 172.042739 
L 449.609969 196.952265 
L 450.519296 167.315134 
L 450.97396 160.126217 
L 451.428623 155.45245 
L 451.883286 152.14936 
L 452.33795 149.747095 
L 452.792613 148.010319 
L 453.247277 146.808452 
L 453.70194 146.066312 
L 454.156604 145.742515 
L 454.611267 145.81964 
L 455.065931 146.300512 
L 455.520594 147.208788 
L 455.975258 148.594116 
L 456.429921 150.544496 
L 456.884585 153.213358 
L 457.339248 156.883403 
L 457.793912 162.144404 
L 458.248575 170.5653 
L 458.703239 189.980483 
L 459.157902 185.839482 
L 459.612566 169.26476 
L 460.067229 161.452467 
L 460.521893 156.484068 
L 460.976556 153.001872 
L 461.43122 150.473825 
L 461.885883 148.639613 
L 462.340546 147.356466 
L 462.79521 146.542298 
L 463.249873 146.151227 
L 463.704537 146.162395 
L 464.1592 146.575468 
L 464.613864 147.410567 
L 465.068527 148.712597 
L 465.523191 150.562132 
L 465.977854 153.099245 
L 466.432518 156.578675 
L 466.887181 161.518379 
L 467.341845 169.226451 
L 467.796508 185.230004 
L 468.251172 191.668807 
L 468.705835 171.358624 
L 469.160499 162.808226 
L 469.615162 157.511529 
L 470.069826 153.835774 
L 470.524489 151.174418 
L 470.979153 149.238384 
L 471.433816 147.871239 
L 471.88848 146.983329 
L 472.343143 146.523953 
L 472.797806 146.468672 
L 473.25247 146.813962 
L 473.707133 147.576483 
L 474.161797 148.796623 
L 474.61646 150.548047 
L 475.071124 152.958678 
L 475.525787 156.258484 
L 475.980451 160.904245 
L 476.435114 167.99748 
L 476.889778 181.62946 
L 477.344441 200.372643 
L 477.799105 173.645177 
L 478.253768 164.205889 
L 478.708432 158.540928 
L 479.163095 154.655257 
L 479.617759 151.852307 
L 480.072422 149.809716 
L 480.527086 148.355676 
L 480.981749 147.392212 
L 481.436413 146.863447 
L 481.891076 146.741194 
L 482.34574 147.018694 
L 482.800403 147.70921 
L 483.255066 148.848816 
L 483.70973 150.50474 
L 484.164393 152.793831 
L 484.619057 155.924063 
L 485.07372 160.299834 
L 485.528384 166.856938 
L 485.983047 178.727722 
L 486.437711 219.046684 
L 486.892374 176.192186 
L 487.347038 165.659665 
L 487.801701 159.578468 
L 488.256365 155.464254 
L 488.711028 152.510561 
L 489.165692 150.356288 
L 489.620355 148.812261 
L 490.075019 147.771331 
L 490.529682 147.172034 
L 490.984346 146.982252 
L 491.439009 147.191931 
L 491.893673 147.810983 
L 492.348336 148.871356 
L 492.803 150.434266 
L 493.257663 152.606453 
L 493.712327 155.576309 
L 494.16699 159.703167 
L 494.621653 165.788348 
L 495.076317 176.292106 
L 495.53098 217.886142 
L 495.985644 179.100075 
L 496.440307 167.186389 
L 496.894971 160.630625 
L 497.349634 156.266524 
L 497.804298 153.151948 
L 498.258961 150.880432 
L 498.713625 149.243113 
L 499.168288 148.122688 
L 499.622952 147.451655 
L 500.077615 147.193749 
L 500.532279 147.335547 
L 500.986942 147.883645 
L 501.441606 148.866029 
L 501.896269 150.338288 
L 502.350933 152.397917 
L 502.805596 155.215828 
L 503.26026 159.112402 
L 503.714923 164.778738 
L 504.169587 174.186889 
L 504.62425 200.454127 
L 505.533577 168.806654 
L 505.98824 161.704346 
L 506.442904 157.065727 
L 506.897567 153.778981 
L 507.352231 151.384171 
L 507.806894 149.650021 
L 508.261558 148.447952 
L 508.716221 147.703912 
L 509.170885 147.377245 
L 509.625548 147.451071 
L 510.080212 147.92869 
L 510.534875 148.834268 
L 510.989539 150.218119 
L 511.444202 152.169261 
L 511.898866 154.84296 
L 512.353529 158.525786 
L 512.808193 163.817663 
L 513.262856 172.32599 
L 513.71752 192.284083 
L 514.172183 186.758501 
L 514.626847 170.546491 
L 515.08151 162.80728 
L 515.536173 157.865498 
L 515.990837 154.393963 
L 516.4455 151.869261 
L 516.900164 150.034479 
L 517.354827 148.748483 
L 517.809491 147.93009 
L 518.264154 147.533983 
L 518.718818 147.539713 
L 519.173481 147.947289 
L 519.628145 148.777186 
L 520.082808 150.074753 
L 520.537472 151.921221 
L 520.992135 154.457814 
L 521.446799 157.941626 
L 521.901462 162.896535 
L 522.356126 170.65135 
L 522.810789 186.894216 
L 523.265453 192.356082 
L 523.720116 172.43994 
L 524.17478 163.948061 
L 524.629443 158.669518 
L 525.084107 154.999024 
L 525.53877 152.337209 
L 525.993433 150.397712 
L 526.448097 149.025362 
L 526.90276 148.131191 
L 527.357424 147.664916 
L 527.812087 147.602388 
L 528.266751 147.940319 
L 528.721414 148.6956 
L 529.176078 149.908894 
L 529.630741 151.654258 
L 530.085405 154.060281 
L 530.540068 157.358255 
L 530.994732 162.008151 
L 531.449395 169.121896 
L 531.904059 182.856275 
L 532.358722 200.784395 
L 532.813386 174.533228 
L 533.268049 165.136686 
L 533.722713 159.481598 
L 534.177376 155.596151 
L 534.63204 152.789304 
L 535.086703 150.740689 
L 535.541367 149.279402 
L 535.99603 148.307945 
L 536.450693 147.770723 
L 536.905357 147.63974 
L 537.36002 147.908384 
L 537.814684 148.590053 
L 538.269347 149.720973 
L 538.724011 151.368578 
L 539.178674 153.650052 
L 539.633338 156.774013 
L 540.088001 161.146352 
L 540.542665 167.707431 
L 540.997328 179.613985 
L 541.451992 218.821555 
L 541.906655 176.891908 
L 542.361319 166.385008 
L 542.815982 160.305761 
L 543.270646 156.187219 
L 543.725309 153.226624 
L 544.179973 151.064145 
L 544.634636 149.511167 
L 545.0893 148.460825 
L 545.543963 147.851824 
L 545.543963 147.851824 
" clip-path="url(#p58376fc7f6)" style="fill: none; stroke: #1f77b4; stroke-linecap: square"/>
   </g>
   <g id="patch_3">
    <path d="M 57.167188 250.421875 
L 57.167188 24.12 
" style="fill: none; stroke: #000000; stroke-width: 0.8; stroke-linejoin: miter; stroke-linecap: square"/>
   </g>
   <g id="patch_4">
    <path d="M 568.8 250.421875 
L 568.8 24.12 
" style="fill: none; stroke: #000000; stroke-width: 0.8; stroke-linejoin: miter; stroke-linecap: square"/>
   </g>
   <g id="patch_5">
    <path d="M 57.167187 250.421875 
L 568.8 250.421875 
" style="fill: none; stroke: #000000; stroke-width: 0.8; stroke-linejoin: miter; stroke-linecap: square"/>
   </g>
   <g id="patch_6">
    <path d="M 57.167187 24.12 
L 568.8 24.12 
" style="fill: none; stroke: #000000; stroke-width: 0.8; stroke-linejoin: miter; stroke-linecap: square"/>
   </g>
   <g id="text_15">
    <!-- Magnitude response, $|H(\omega)|^2$ -->
    <g transform="translate(226.883594 18.12) scale(0.12 -0.12)">
     <defs>
      <path id="DejaVuSans-4d" d="M 628 4666 
L 1569 4666 
L 2759 1491 
L 3956 4666 
L 4897 4666 
L 4897 0 
L 4281 0 
L 4281 4097 
L 3078 897 
L 2444 897 
L 1241 4097 
L 1241 0 
L 628 0 
L 628 4666 
z
" transform="scale(0.015625)"/>
      <path id="DejaVuSans-67" d="M 2906 1791 
Q 2906 2416 2648 2759 
Q 2391 3103 1925 3103 
Q 1463 3103 1205 2759 
Q 947 2416 947 1791 
Q 947 1169 1205 825 
Q 1463 481 1925 481 
Q 2391 481 2648 825 
Q 2906 1169 2906 1791 
z
M 3481 434 
Q 3481 -459 3084 -895 
Q 2688 -1331 1869 -1331 
Q 1566 -1331 1297 -1286 
Q 1028 -1241 775 -1147 
L 775 -588 
Q 1028 -725 1275 -790 
Q 1522 -856 1778 -856 
Q 2344 -856 2625 -561 
Q 2906 -266 2906 331 
L 2906 616 
Q 2728 306 2450 153 
Q 2172 0 1784 0 
Q 1141 0 747 490 
Q 353 981 353 1791 
Q 353 2603 747 3093 
Q 1141 3584 1784 3584 
Q 2172 3584 2450 3431 
Q 2728 3278 2906 2969 
L 2906 3500 
L 3481 3500 
L 3481 434 
z
" transform="scale(0.015625)"/>
      <path id="DejaVuSans-74" d="M 1172 4494 
L 1172 3500 
L 2356 3500 
L 2356 3053 
L 1172 3053 
L 1172 1153 
Q 1172 725 1289 603 
Q 1406 481 1766 481 
L 2356 481 
L 2356 0 
L 1766 0 
Q 1100 0 847 248 
Q 594 497 594 1153 
L 594 3053 
L 172 3053 
L 172 3500 
L 594 3500 
L 594 4494 
L 1172 4494 
z
" transform="scale(0.015625)"/>
      <path id="DejaVuSans-73" d="M 2834 3397 
L 2834 2853 
Q 2591 2978 2328 3040 
Q 2066 3103 1784 3103 
Q 1356 3103 1142 2972 
Q 928 2841 928 2578 
Q 928 2378 1081 2264 
Q 1234 2150 1697 2047 
L 1894 2003 
Q 2506 1872 2764 1633 
Q 3022 1394 3022 966 
Q 3022 478 2636 193 
Q 2250 -91 1575 -91 
Q 1294 -91 989 -36 
Q 684 19 347 128 
L 347 722 
Q 666 556 975 473 
Q 1284 391 1588 391 
Q 1994 391 2212 530 
Q 2431 669 2431 922 
Q 2431 1156 2273 1281 
Q 2116 1406 1581 1522 
L 1381 1569 
Q 847 1681 609 1914 
Q 372 2147 372 2553 
Q 372 3047 722 3315 
Q 1072 3584 1716 3584 
Q 2034 3584 2315 3537 
Q 2597 3491 2834 3397 
z
" transform="scale(0.015625)"/>
      <path id="DejaVuSans-70" d="M 1159 525 
L 1159 -1331 
L 581 -1331 
L 581 3500 
L 1159 3500 
L 1159 2969 
Q 1341 3281 1617 3432 
Q 1894 3584 2278 3584 
Q 2916 3584 3314 3078 
Q 3713 2572 3713 1747 
Q 3713 922 3314 415 
Q 2916 -91 2278 -91 
Q 1894 -91 1617 61 
Q 1341 213 1159 525 
z
M 3116 1747 
Q 3116 2381 2855 2742 
Q 2594 3103 2138 3103 
Q 1681 3103 1420 2742 
Q 1159 2381 1159 1747 
Q 1159 1113 1420 752 
Q 1681 391 2138 391 
Q 2594 391 2855 752 
Q 3116 1113 3116 1747 
z
" transform="scale(0.015625)"/>
     </defs>
     <use xlink:href="#DejaVuSans-4d" transform="translate(0 0.765625)"/>
     <use xlink:href="#DejaVuSans-61" transform="translate(86.279297 0.765625)"/>
     <use xlink:href="#DejaVuSans-67" transform="translate(147.558594 0.765625)"/>
     <use xlink:href="#DejaVuSans-6e" transform="translate(211.035156 0.765625)"/>
     <use xlink:href="#DejaVuSans-69" transform="translate(274.414062 0.765625)"/>
     <use xlink:href="#DejaVuSans-74" transform="translate(302.197266 0.765625)"/>
     <use xlink:href="#DejaVuSans-75" transform="translate(341.40625 0.765625)"/>
     <use xlink:href="#DejaVuSans-64" transform="translate(404.785156 0.765625)"/>
     <use xlink:href="#DejaVuSans-65" transform="translate(468.261719 0.765625)"/>
     <use xlink:href="#DejaVuSans-20" transform="translate(529.785156 0.765625)"/>
     <use xlink:href="#DejaVuSans-72" transform="translate(561.572266 0.765625)"/>
     <use xlink:href="#DejaVuSans-65" transform="translate(602.685547 0.765625)"/>
     <use xlink:href="#DejaVuSans-73" transform="translate(664.208984 0.765625)"/>
     <use xlink:href="#DejaVuSans-70" transform="translate(716.308594 0.765625)"/>
     <use xlink:href="#DejaVuSans-6f" transform="translate(779.785156 0.765625)"/>
     <use xlink:href="#DejaVuSans-6e" transform="translate(840.966797 0.765625)"/>
     <use xlink:href="#DejaVuSans-73" transform="translate(904.345703 0.765625)"/>
     <use xlink:href="#DejaVuSans-65" transform="translate(956.445312 0.765625)"/>
     <use xlink:href="#DejaVuSans-2c" transform="translate(1017.96875 0.765625)"/>
     <use xlink:href="#DejaVuSans-20" transform="translate(1049.755859 0.765625)"/>
     <use xlink:href="#DejaVuSans-7c" transform="translate(1081.542969 0.765625)"/>
     <use xlink:href="#DejaVuSans-Oblique-48" transform="translate(1115.234375 0.765625)"/>
     <use xlink:href="#DejaVuSans-28" transform="translate(1190.429688 0.765625)"/>
     <use xlink:href="#DejaVuSans-Oblique-3c9" transform="translate(1229.443359 0.765625)"/>
     <use xlink:href="#DejaVuSans-29" transform="translate(1313.183594 0.765625)"/>
     <use xlink:href="#DejaVuSans-7c" transform="translate(1352.197266 0.765625)"/>
     <use xlink:href="#DejaVuSans-32" transform="translate(1386.845703 39.046875) scale(0.7)"/>
    </g>
   </g>
  </g>
 </g>
 <defs>
  <clipPath id="p58376fc7f6">
   <rect x="57.167188" y="24.12" width="511.632813" height="226.301875"/>
  </clipPath>
 </defs>
</svg>
