<?xml version="1.0" encoding="utf-8" standalone="no"?>
<!DOCTYPE svg PUBLIC "-//W3C//DTD SVG 1.1//EN"
  "http://www.w3.org/Graphics/SVG/1.1/DTD/svg11.dtd">
<svg xmlns:xlink="http://www.w3.org/1999/xlink" width="576pt" height="288pt" viewBox="0 0 576 288" xmlns="http://www.w3.org/2000/svg" version="1.1">
 <metadata>
  <rdf:RDF xmlns:dc="http://purl.org/dc/elements/1.1/" xmlns:cc="http://creativecommons.org/ns#" xmlns:rdf="http://www.w3.org/1999/02/22-rdf-syntax-ns#">
   <cc:Work>
    <dc:type rdf:resource="http://purl.org/dc/dcmitype/StillImage"/>
    <dc:date>2025-05-10T16:56:44.257068</dc:date>
    <dc:format>image/svg+xml</dc:format>
    <dc:creator>
     <cc:Agent>
      <dc:title>Matplotlib v3.10.3, https://matplotlib.org/</dc:title>
     </cc:Agent>
    </dc:creator>
   </cc:Work>
  </rdf:RDF>
 </metadata>
 <defs>
  <style type="text/css">*{stroke-linejoin: round; stroke-linecap: butt}</style>
 </defs>
 <g id="figure_1">
  <g id="patch_1">
   <path d="M 0 288 
L 576 288 
L 576 0 
L 0 0 
z
" style="fill: #ffffff"/>
  </g>
  <g id="axes_1">
   <g id="patch_2">
    <path d="M 58.523438 250.44375 
L 568.8 250.44375 
L 568.8 9.321428 
L 58.523438 9.321428 
z
" style="fill: #ffffff"/>
   </g>
   <g id="matplotlib.axis_1">
    <g id="xtick_1">
     <g id="line2d_1">
      <path d="M 81.717827 250.44375 
L 81.717827 9.321428 
" clip-path="url(#pd0125a7f89)" style="fill: none; stroke-dasharray: 2.96,1.28; stroke-dashoffset: 0; stroke: #b0b0b0; stroke-opacity: 0.8; stroke-width: 0.8"/>
     </g>
     <g id="line2d_2">
      <defs>
       <path id="m6dc69bb418" d="M 0 0 
L 0 3.5 
" style="stroke: #000000; stroke-width: 0.8"/>
      </defs>
      <g>
       <use xlink:href="#m6dc69bb418" x="81.717827" y="250.44375" style="stroke: #000000; stroke-width: 0.8"/>
      </g>
     </g>
     <g id="text_1">
      <!-- 0 -->
      <g transform="translate(78.536577 265.042188) scale(0.1 -0.1)">
       <defs>
        <path id="DejaVuSans-30" d="M 2034 4250 
Q 1547 4250 1301 3770 
Q 1056 3291 1056 2328 
Q 1056 1369 1301 889 
Q 1547 409 2034 409 
Q 2525 409 2770 889 
Q 3016 1369 3016 2328 
Q 3016 3291 2770 3770 
Q 2525 4250 2034 4250 
z
M 2034 4750 
Q 2819 4750 3233 4129 
Q 3647 3509 3647 2328 
Q 3647 1150 3233 529 
Q 2819 -91 2034 -91 
Q 1250 -91 836 529 
Q 422 1150 422 2328 
Q 422 3509 836 4129 
Q 1250 4750 2034 4750 
z
" transform="scale(0.015625)"/>
       </defs>
       <use xlink:href="#DejaVuSans-30"/>
      </g>
     </g>
    </g>
    <g id="xtick_2">
     <g id="line2d_3">
      <path d="M 166.068728 250.44375 
L 166.068728 9.321428 
" clip-path="url(#pd0125a7f89)" style="fill: none; stroke-dasharray: 2.96,1.28; stroke-dashoffset: 0; stroke: #b0b0b0; stroke-opacity: 0.8; stroke-width: 0.8"/>
     </g>
     <g id="line2d_4">
      <g>
       <use xlink:href="#m6dc69bb418" x="166.068728" y="250.44375" style="stroke: #000000; stroke-width: 0.8"/>
      </g>
     </g>
     <g id="text_2">
      <!-- 0.2 -->
      <g transform="translate(158.117166 265.042188) scale(0.1 -0.1)">
       <defs>
        <path id="DejaVuSans-2e" d="M 684 794 
L 1344 794 
L 1344 0 
L 684 0 
L 684 794 
z
" transform="scale(0.015625)"/>
        <path id="DejaVuSans-32" d="M 1228 531 
L 3431 531 
L 3431 0 
L 469 0 
L 469 531 
Q 828 903 1448 1529 
Q 2069 2156 2228 2338 
Q 2531 2678 2651 2914 
Q 2772 3150 2772 3378 
Q 2772 3750 2511 3984 
Q 2250 4219 1831 4219 
Q 1534 4219 1204 4116 
Q 875 4013 500 3803 
L 500 4441 
Q 881 4594 1212 4672 
Q 1544 4750 1819 4750 
Q 2544 4750 2975 4387 
Q 3406 4025 3406 3419 
Q 3406 3131 3298 2873 
Q 3191 2616 2906 2266 
Q 2828 2175 2409 1742 
Q 1991 1309 1228 531 
z
" transform="scale(0.015625)"/>
       </defs>
       <use xlink:href="#DejaVuSans-30"/>
       <use xlink:href="#DejaVuSans-2e" transform="translate(63.623047 0)"/>
       <use xlink:href="#DejaVuSans-32" transform="translate(95.410156 0)"/>
      </g>
     </g>
    </g>
    <g id="xtick_3">
     <g id="line2d_5">
      <path d="M 250.41963 250.44375 
L 250.41963 9.321428 
" clip-path="url(#pd0125a7f89)" style="fill: none; stroke-dasharray: 2.96,1.28; stroke-dashoffset: 0; stroke: #b0b0b0; stroke-opacity: 0.8; stroke-width: 0.8"/>
     </g>
     <g id="line2d_6">
      <g>
       <use xlink:href="#m6dc69bb418" x="250.41963" y="250.44375" style="stroke: #000000; stroke-width: 0.8"/>
      </g>
     </g>
     <g id="text_3">
      <!-- 0.4 -->
      <g transform="translate(242.468068 265.042188) scale(0.1 -0.1)">
       <defs>
        <path id="DejaVuSans-34" d="M 2419 4116 
L 825 1625 
L 2419 1625 
L 2419 4116 
z
M 2253 4666 
L 3047 4666 
L 3047 1625 
L 3713 1625 
L 3713 1100 
L 3047 1100 
L 3047 0 
L 2419 0 
L 2419 1100 
L 313 1100 
L 313 1709 
L 2253 4666 
z
" transform="scale(0.015625)"/>
       </defs>
       <use xlink:href="#DejaVuSans-30"/>
       <use xlink:href="#DejaVuSans-2e" transform="translate(63.623047 0)"/>
       <use xlink:href="#DejaVuSans-34" transform="translate(95.410156 0)"/>
      </g>
     </g>
    </g>
    <g id="xtick_4">
     <g id="line2d_7">
      <path d="M 334.770532 250.44375 
L 334.770532 9.321428 
" clip-path="url(#pd0125a7f89)" style="fill: none; stroke-dasharray: 2.96,1.28; stroke-dashoffset: 0; stroke: #b0b0b0; stroke-opacity: 0.8; stroke-width: 0.8"/>
     </g>
     <g id="line2d_8">
      <g>
       <use xlink:href="#m6dc69bb418" x="334.770532" y="250.44375" style="stroke: #000000; stroke-width: 0.8"/>
      </g>
     </g>
     <g id="text_4">
      <!-- 0.6 -->
      <g transform="translate(326.818969 265.042188) scale(0.1 -0.1)">
       <defs>
        <path id="DejaVuSans-36" d="M 2113 2584 
Q 1688 2584 1439 2293 
Q 1191 2003 1191 1497 
Q 1191 994 1439 701 
Q 1688 409 2113 409 
Q 2538 409 2786 701 
Q 3034 994 3034 1497 
Q 3034 2003 2786 2293 
Q 2538 2584 2113 2584 
z
M 3366 4563 
L 3366 3988 
Q 3128 4100 2886 4159 
Q 2644 4219 2406 4219 
Q 1781 4219 1451 3797 
Q 1122 3375 1075 2522 
Q 1259 2794 1537 2939 
Q 1816 3084 2150 3084 
Q 2853 3084 3261 2657 
Q 3669 2231 3669 1497 
Q 3669 778 3244 343 
Q 2819 -91 2113 -91 
Q 1303 -91 875 529 
Q 447 1150 447 2328 
Q 447 3434 972 4092 
Q 1497 4750 2381 4750 
Q 2619 4750 2861 4703 
Q 3103 4656 3366 4563 
z
" transform="scale(0.015625)"/>
       </defs>
       <use xlink:href="#DejaVuSans-30"/>
       <use xlink:href="#DejaVuSans-2e" transform="translate(63.623047 0)"/>
       <use xlink:href="#DejaVuSans-36" transform="translate(95.410156 0)"/>
      </g>
     </g>
    </g>
    <g id="xtick_5">
     <g id="line2d_9">
      <path d="M 419.121434 250.44375 
L 419.121434 9.321428 
" clip-path="url(#pd0125a7f89)" style="fill: none; stroke-dasharray: 2.96,1.28; stroke-dashoffset: 0; stroke: #b0b0b0; stroke-opacity: 0.8; stroke-width: 0.8"/>
     </g>
     <g id="line2d_10">
      <g>
       <use xlink:href="#m6dc69bb418" x="419.121434" y="250.44375" style="stroke: #000000; stroke-width: 0.8"/>
      </g>
     </g>
     <g id="text_5">
      <!-- 0.8 -->
      <g transform="translate(411.169871 265.042188) scale(0.1 -0.1)">
       <defs>
        <path id="DejaVuSans-38" d="M 2034 2216 
Q 1584 2216 1326 1975 
Q 1069 1734 1069 1313 
Q 1069 891 1326 650 
Q 1584 409 2034 409 
Q 2484 409 2743 651 
Q 3003 894 3003 1313 
Q 3003 1734 2745 1975 
Q 2488 2216 2034 2216 
z
M 1403 2484 
Q 997 2584 770 2862 
Q 544 3141 544 3541 
Q 544 4100 942 4425 
Q 1341 4750 2034 4750 
Q 2731 4750 3128 4425 
Q 3525 4100 3525 3541 
Q 3525 3141 3298 2862 
Q 3072 2584 2669 2484 
Q 3125 2378 3379 2068 
Q 3634 1759 3634 1313 
Q 3634 634 3220 271 
Q 2806 -91 2034 -91 
Q 1263 -91 848 271 
Q 434 634 434 1313 
Q 434 1759 690 2068 
Q 947 2378 1403 2484 
z
M 1172 3481 
Q 1172 3119 1398 2916 
Q 1625 2713 2034 2713 
Q 2441 2713 2670 2916 
Q 2900 3119 2900 3481 
Q 2900 3844 2670 4047 
Q 2441 4250 2034 4250 
Q 1625 4250 1398 4047 
Q 1172 3844 1172 3481 
z
" transform="scale(0.015625)"/>
       </defs>
       <use xlink:href="#DejaVuSans-30"/>
       <use xlink:href="#DejaVuSans-2e" transform="translate(63.623047 0)"/>
       <use xlink:href="#DejaVuSans-38" transform="translate(95.410156 0)"/>
      </g>
     </g>
    </g>
    <g id="xtick_6">
     <g id="line2d_11">
      <path d="M 503.472335 250.44375 
L 503.472335 9.321428 
" clip-path="url(#pd0125a7f89)" style="fill: none; stroke-dasharray: 2.96,1.28; stroke-dashoffset: 0; stroke: #b0b0b0; stroke-opacity: 0.8; stroke-width: 0.8"/>
     </g>
     <g id="line2d_12">
      <g>
       <use xlink:href="#m6dc69bb418" x="503.472335" y="250.44375" style="stroke: #000000; stroke-width: 0.8"/>
      </g>
     </g>
     <g id="text_6">
      <!-- 1 -->
      <g transform="translate(500.291085 265.042188) scale(0.1 -0.1)">
       <defs>
        <path id="DejaVuSans-31" d="M 794 531 
L 1825 531 
L 1825 4091 
L 703 3866 
L 703 4441 
L 1819 4666 
L 2450 4666 
L 2450 531 
L 3481 531 
L 3481 0 
L 794 0 
L 794 531 
z
" transform="scale(0.015625)"/>
       </defs>
       <use xlink:href="#DejaVuSans-31"/>
      </g>
     </g>
    </g>
    <g id="text_7">
     <!-- Time (s), $t$ -->
     <g transform="translate(288.011719 278.720312) scale(0.1 -0.1)">
      <defs>
       <path id="DejaVuSans-54" d="M -19 4666 
L 3928 4666 
L 3928 4134 
L 2272 4134 
L 2272 0 
L 1638 0 
L 1638 4134 
L -19 4134 
L -19 4666 
z
" transform="scale(0.015625)"/>
       <path id="DejaVuSans-69" d="M 603 3500 
L 1178 3500 
L 1178 0 
L 603 0 
L 603 3500 
z
M 603 4863 
L 1178 4863 
L 1178 4134 
L 603 4134 
L 603 4863 
z
" transform="scale(0.015625)"/>
       <path id="DejaVuSans-6d" d="M 3328 2828 
Q 3544 3216 3844 3400 
Q 4144 3584 4550 3584 
Q 5097 3584 5394 3201 
Q 5691 2819 5691 2113 
L 5691 0 
L 5113 0 
L 5113 2094 
Q 5113 2597 4934 2840 
Q 4756 3084 4391 3084 
Q 3944 3084 3684 2787 
Q 3425 2491 3425 1978 
L 3425 0 
L 2847 0 
L 2847 2094 
Q 2847 2600 2669 2842 
Q 2491 3084 2119 3084 
Q 1678 3084 1418 2786 
Q 1159 2488 1159 1978 
L 1159 0 
L 581 0 
L 581 3500 
L 1159 3500 
L 1159 2956 
Q 1356 3278 1631 3431 
Q 1906 3584 2284 3584 
Q 2666 3584 2933 3390 
Q 3200 3197 3328 2828 
z
" transform="scale(0.015625)"/>
       <path id="DejaVuSans-65" d="M 3597 1894 
L 3597 1613 
L 953 1613 
Q 991 1019 1311 708 
Q 1631 397 2203 397 
Q 2534 397 2845 478 
Q 3156 559 3463 722 
L 3463 178 
Q 3153 47 2828 -22 
Q 2503 -91 2169 -91 
Q 1331 -91 842 396 
Q 353 884 353 1716 
Q 353 2575 817 3079 
Q 1281 3584 2069 3584 
Q 2775 3584 3186 3129 
Q 3597 2675 3597 1894 
z
M 3022 2063 
Q 3016 2534 2758 2815 
Q 2500 3097 2075 3097 
Q 1594 3097 1305 2825 
Q 1016 2553 972 2059 
L 3022 2063 
z
" transform="scale(0.015625)"/>
       <path id="DejaVuSans-20" transform="scale(0.015625)"/>
       <path id="DejaVuSans-28" d="M 1984 4856 
Q 1566 4138 1362 3434 
Q 1159 2731 1159 2009 
Q 1159 1288 1364 580 
Q 1569 -128 1984 -844 
L 1484 -844 
Q 1016 -109 783 600 
Q 550 1309 550 2009 
Q 550 2706 781 3412 
Q 1013 4119 1484 4856 
L 1984 4856 
z
" transform="scale(0.015625)"/>
       <path id="DejaVuSans-73" d="M 2834 3397 
L 2834 2853 
Q 2591 2978 2328 3040 
Q 2066 3103 1784 3103 
Q 1356 3103 1142 2972 
Q 928 2841 928 2578 
Q 928 2378 1081 2264 
Q 1234 2150 1697 2047 
L 1894 2003 
Q 2506 1872 2764 1633 
Q 3022 1394 3022 966 
Q 3022 478 2636 193 
Q 2250 -91 1575 -91 
Q 1294 -91 989 -36 
Q 684 19 347 128 
L 347 722 
Q 666 556 975 473 
Q 1284 391 1588 391 
Q 1994 391 2212 530 
Q 2431 669 2431 922 
Q 2431 1156 2273 1281 
Q 2116 1406 1581 1522 
L 1381 1569 
Q 847 1681 609 1914 
Q 372 2147 372 2553 
Q 372 3047 722 3315 
Q 1072 3584 1716 3584 
Q 2034 3584 2315 3537 
Q 2597 3491 2834 3397 
z
" transform="scale(0.015625)"/>
       <path id="DejaVuSans-29" d="M 513 4856 
L 1013 4856 
Q 1481 4119 1714 3412 
Q 1947 2706 1947 2009 
Q 1947 1309 1714 600 
Q 1481 -109 1013 -844 
L 513 -844 
Q 928 -128 1133 580 
Q 1338 1288 1338 2009 
Q 1338 2731 1133 3434 
Q 928 4138 513 4856 
z
" transform="scale(0.015625)"/>
       <path id="DejaVuSans-2c" d="M 750 794 
L 1409 794 
L 1409 256 
L 897 -744 
L 494 -744 
L 750 256 
L 750 794 
z
" transform="scale(0.015625)"/>
       <path id="DejaVuSans-Oblique-74" d="M 2706 3500 
L 2619 3053 
L 1472 3053 
L 1100 1153 
Q 1081 1047 1072 975 
Q 1063 903 1063 863 
Q 1063 663 1183 572 
Q 1303 481 1569 481 
L 2150 481 
L 2053 0 
L 1503 0 
Q 991 0 739 200 
Q 488 400 488 806 
Q 488 878 497 964 
Q 506 1050 525 1153 
L 897 3053 
L 409 3053 
L 500 3500 
L 978 3500 
L 1172 4494 
L 1747 4494 
L 1556 3500 
L 2706 3500 
z
" transform="scale(0.015625)"/>
      </defs>
      <use xlink:href="#DejaVuSans-54" transform="translate(0 0.015625)"/>
      <use xlink:href="#DejaVuSans-69" transform="translate(61.083984 0.015625)"/>
      <use xlink:href="#DejaVuSans-6d" transform="translate(88.867188 0.015625)"/>
      <use xlink:href="#DejaVuSans-65" transform="translate(186.279297 0.015625)"/>
      <use xlink:href="#DejaVuSans-20" transform="translate(247.802734 0.015625)"/>
      <use xlink:href="#DejaVuSans-28" transform="translate(279.589844 0.015625)"/>
      <use xlink:href="#DejaVuSans-73" transform="translate(318.603516 0.015625)"/>
      <use xlink:href="#DejaVuSans-29" transform="translate(370.703125 0.015625)"/>
      <use xlink:href="#DejaVuSans-2c" transform="translate(409.716797 0.015625)"/>
      <use xlink:href="#DejaVuSans-20" transform="translate(441.503906 0.015625)"/>
      <use xlink:href="#DejaVuSans-Oblique-74" transform="translate(473.291016 0.015625)"/>
     </g>
    </g>
   </g>
   <g id="matplotlib.axis_2">
    <g id="ytick_1">
     <g id="line2d_13">
      <path d="M 58.523438 220.987258 
L 568.8 220.987258 
" clip-path="url(#pd0125a7f89)" style="fill: none; stroke-dasharray: 2.96,1.28; stroke-dashoffset: 0; stroke: #b0b0b0; stroke-opacity: 0.8; stroke-width: 0.8"/>
     </g>
     <g id="line2d_14">
      <defs>
       <path id="mc51af7278a" d="M 0 0 
L -3.5 0 
" style="stroke: #000000; stroke-width: 0.8"/>
      </defs>
      <g>
       <use xlink:href="#mc51af7278a" x="58.523438" y="220.987258" style="stroke: #000000; stroke-width: 0.8"/>
      </g>
     </g>
     <g id="text_8">
      <!-- −0.15 -->
      <g transform="translate(20.878125 224.786476) scale(0.1 -0.1)">
       <defs>
        <path id="DejaVuSans-2212" d="M 678 2272 
L 4684 2272 
L 4684 1741 
L 678 1741 
L 678 2272 
z
" transform="scale(0.015625)"/>
        <path id="DejaVuSans-35" d="M 691 4666 
L 3169 4666 
L 3169 4134 
L 1269 4134 
L 1269 2991 
Q 1406 3038 1543 3061 
Q 1681 3084 1819 3084 
Q 2600 3084 3056 2656 
Q 3513 2228 3513 1497 
Q 3513 744 3044 326 
Q 2575 -91 1722 -91 
Q 1428 -91 1123 -41 
Q 819 9 494 109 
L 494 744 
Q 775 591 1075 516 
Q 1375 441 1709 441 
Q 2250 441 2565 725 
Q 2881 1009 2881 1497 
Q 2881 1984 2565 2268 
Q 2250 2553 1709 2553 
Q 1456 2553 1204 2497 
Q 953 2441 691 2322 
L 691 4666 
z
" transform="scale(0.015625)"/>
       </defs>
       <use xlink:href="#DejaVuSans-2212"/>
       <use xlink:href="#DejaVuSans-30" transform="translate(83.789062 0)"/>
       <use xlink:href="#DejaVuSans-2e" transform="translate(147.412109 0)"/>
       <use xlink:href="#DejaVuSans-31" transform="translate(179.199219 0)"/>
       <use xlink:href="#DejaVuSans-35" transform="translate(242.822266 0)"/>
      </g>
     </g>
    </g>
    <g id="ytick_2">
     <g id="line2d_15">
      <path d="M 58.523438 190.989099 
L 568.8 190.989099 
" clip-path="url(#pd0125a7f89)" style="fill: none; stroke-dasharray: 2.96,1.28; stroke-dashoffset: 0; stroke: #b0b0b0; stroke-opacity: 0.8; stroke-width: 0.8"/>
     </g>
     <g id="line2d_16">
      <g>
       <use xlink:href="#mc51af7278a" x="58.523438" y="190.989099" style="stroke: #000000; stroke-width: 0.8"/>
      </g>
     </g>
     <g id="text_9">
      <!-- −0.10 -->
      <g transform="translate(20.878125 194.788318) scale(0.1 -0.1)">
       <use xlink:href="#DejaVuSans-2212"/>
       <use xlink:href="#DejaVuSans-30" transform="translate(83.789062 0)"/>
       <use xlink:href="#DejaVuSans-2e" transform="translate(147.412109 0)"/>
       <use xlink:href="#DejaVuSans-31" transform="translate(179.199219 0)"/>
       <use xlink:href="#DejaVuSans-30" transform="translate(242.822266 0)"/>
      </g>
     </g>
    </g>
    <g id="ytick_3">
     <g id="line2d_17">
      <path d="M 58.523438 160.990941 
L 568.8 160.990941 
" clip-path="url(#pd0125a7f89)" style="fill: none; stroke-dasharray: 2.96,1.28; stroke-dashoffset: 0; stroke: #b0b0b0; stroke-opacity: 0.8; stroke-width: 0.8"/>
     </g>
     <g id="line2d_18">
      <g>
       <use xlink:href="#mc51af7278a" x="58.523438" y="160.990941" style="stroke: #000000; stroke-width: 0.8"/>
      </g>
     </g>
     <g id="text_10">
      <!-- −0.05 -->
      <g transform="translate(20.878125 164.79016) scale(0.1 -0.1)">
       <use xlink:href="#DejaVuSans-2212"/>
       <use xlink:href="#DejaVuSans-30" transform="translate(83.789062 0)"/>
       <use xlink:href="#DejaVuSans-2e" transform="translate(147.412109 0)"/>
       <use xlink:href="#DejaVuSans-30" transform="translate(179.199219 0)"/>
       <use xlink:href="#DejaVuSans-35" transform="translate(242.822266 0)"/>
      </g>
     </g>
    </g>
    <g id="ytick_4">
     <g id="line2d_19">
      <path d="M 58.523438 130.992783 
L 568.8 130.992783 
" clip-path="url(#pd0125a7f89)" style="fill: none; stroke-dasharray: 2.96,1.28; stroke-dashoffset: 0; stroke: #b0b0b0; stroke-opacity: 0.8; stroke-width: 0.8"/>
     </g>
     <g id="line2d_20">
      <g>
       <use xlink:href="#mc51af7278a" x="58.523438" y="130.992783" style="stroke: #000000; stroke-width: 0.8"/>
      </g>
     </g>
     <g id="text_11">
      <!-- 0.00 -->
      <g transform="translate(29.257813 134.792002) scale(0.1 -0.1)">
       <use xlink:href="#DejaVuSans-30"/>
       <use xlink:href="#DejaVuSans-2e" transform="translate(63.623047 0)"/>
       <use xlink:href="#DejaVuSans-30" transform="translate(95.410156 0)"/>
       <use xlink:href="#DejaVuSans-30" transform="translate(159.033203 0)"/>
      </g>
     </g>
    </g>
    <g id="ytick_5">
     <g id="line2d_21">
      <path d="M 58.523438 100.994625 
L 568.8 100.994625 
" clip-path="url(#pd0125a7f89)" style="fill: none; stroke-dasharray: 2.96,1.28; stroke-dashoffset: 0; stroke: #b0b0b0; stroke-opacity: 0.8; stroke-width: 0.8"/>
     </g>
     <g id="line2d_22">
      <g>
       <use xlink:href="#mc51af7278a" x="58.523438" y="100.994625" style="stroke: #000000; stroke-width: 0.8"/>
      </g>
     </g>
     <g id="text_12">
      <!-- 0.05 -->
      <g transform="translate(29.257813 104.793844) scale(0.1 -0.1)">
       <use xlink:href="#DejaVuSans-30"/>
       <use xlink:href="#DejaVuSans-2e" transform="translate(63.623047 0)"/>
       <use xlink:href="#DejaVuSans-30" transform="translate(95.410156 0)"/>
       <use xlink:href="#DejaVuSans-35" transform="translate(159.033203 0)"/>
      </g>
     </g>
    </g>
    <g id="ytick_6">
     <g id="line2d_23">
      <path d="M 58.523438 70.996467 
L 568.8 70.996467 
" clip-path="url(#pd0125a7f89)" style="fill: none; stroke-dasharray: 2.96,1.28; stroke-dashoffset: 0; stroke: #b0b0b0; stroke-opacity: 0.8; stroke-width: 0.8"/>
     </g>
     <g id="line2d_24">
      <g>
       <use xlink:href="#mc51af7278a" x="58.523438" y="70.996467" style="stroke: #000000; stroke-width: 0.8"/>
      </g>
     </g>
     <g id="text_13">
      <!-- 0.10 -->
      <g transform="translate(29.257813 74.795686) scale(0.1 -0.1)">
       <use xlink:href="#DejaVuSans-30"/>
       <use xlink:href="#DejaVuSans-2e" transform="translate(63.623047 0)"/>
       <use xlink:href="#DejaVuSans-31" transform="translate(95.410156 0)"/>
       <use xlink:href="#DejaVuSans-30" transform="translate(159.033203 0)"/>
      </g>
     </g>
    </g>
    <g id="ytick_7">
     <g id="line2d_25">
      <path d="M 58.523438 40.998309 
L 568.8 40.998309 
" clip-path="url(#pd0125a7f89)" style="fill: none; stroke-dasharray: 2.96,1.28; stroke-dashoffset: 0; stroke: #b0b0b0; stroke-opacity: 0.8; stroke-width: 0.8"/>
     </g>
     <g id="line2d_26">
      <g>
       <use xlink:href="#mc51af7278a" x="58.523438" y="40.998309" style="stroke: #000000; stroke-width: 0.8"/>
      </g>
     </g>
     <g id="text_14">
      <!-- 0.15 -->
      <g transform="translate(29.257813 44.797528) scale(0.1 -0.1)">
       <use xlink:href="#DejaVuSans-30"/>
       <use xlink:href="#DejaVuSans-2e" transform="translate(63.623047 0)"/>
       <use xlink:href="#DejaVuSans-31" transform="translate(95.410156 0)"/>
       <use xlink:href="#DejaVuSans-35" transform="translate(159.033203 0)"/>
      </g>
     </g>
    </g>
    <g id="ytick_8">
     <g id="line2d_27">
      <path d="M 58.523438 11.000151 
L 568.8 11.000151 
" clip-path="url(#pd0125a7f89)" style="fill: none; stroke-dasharray: 2.96,1.28; stroke-dashoffset: 0; stroke: #b0b0b0; stroke-opacity: 0.8; stroke-width: 0.8"/>
     </g>
     <g id="line2d_28">
      <g>
       <use xlink:href="#mc51af7278a" x="58.523438" y="11.000151" style="stroke: #000000; stroke-width: 0.8"/>
      </g>
     </g>
     <g id="text_15">
      <!-- 0.20 -->
      <g transform="translate(29.257813 14.79937) scale(0.1 -0.1)">
       <use xlink:href="#DejaVuSans-30"/>
       <use xlink:href="#DejaVuSans-2e" transform="translate(63.623047 0)"/>
       <use xlink:href="#DejaVuSans-32" transform="translate(95.410156 0)"/>
       <use xlink:href="#DejaVuSans-30" transform="translate(159.033203 0)"/>
      </g>
     </g>
    </g>
    <g id="text_16">
     <!-- Amplitude -->
     <g transform="translate(14.798438 155.505245) rotate(-90) scale(0.1 -0.1)">
      <defs>
       <path id="DejaVuSans-41" d="M 2188 4044 
L 1331 1722 
L 3047 1722 
L 2188 4044 
z
M 1831 4666 
L 2547 4666 
L 4325 0 
L 3669 0 
L 3244 1197 
L 1141 1197 
L 716 0 
L 50 0 
L 1831 4666 
z
" transform="scale(0.015625)"/>
       <path id="DejaVuSans-70" d="M 1159 525 
L 1159 -1331 
L 581 -1331 
L 581 3500 
L 1159 3500 
L 1159 2969 
Q 1341 3281 1617 3432 
Q 1894 3584 2278 3584 
Q 2916 3584 3314 3078 
Q 3713 2572 3713 1747 
Q 3713 922 3314 415 
Q 2916 -91 2278 -91 
Q 1894 -91 1617 61 
Q 1341 213 1159 525 
z
M 3116 1747 
Q 3116 2381 2855 2742 
Q 2594 3103 2138 3103 
Q 1681 3103 1420 2742 
Q 1159 2381 1159 1747 
Q 1159 1113 1420 752 
Q 1681 391 2138 391 
Q 2594 391 2855 752 
Q 3116 1113 3116 1747 
z
" transform="scale(0.015625)"/>
       <path id="DejaVuSans-6c" d="M 603 4863 
L 1178 4863 
L 1178 0 
L 603 0 
L 603 4863 
z
" transform="scale(0.015625)"/>
       <path id="DejaVuSans-74" d="M 1172 4494 
L 1172 3500 
L 2356 3500 
L 2356 3053 
L 1172 3053 
L 1172 1153 
Q 1172 725 1289 603 
Q 1406 481 1766 481 
L 2356 481 
L 2356 0 
L 1766 0 
Q 1100 0 847 248 
Q 594 497 594 1153 
L 594 3053 
L 172 3053 
L 172 3500 
L 594 3500 
L 594 4494 
L 1172 4494 
z
" transform="scale(0.015625)"/>
       <path id="DejaVuSans-75" d="M 544 1381 
L 544 3500 
L 1119 3500 
L 1119 1403 
Q 1119 906 1312 657 
Q 1506 409 1894 409 
Q 2359 409 2629 706 
Q 2900 1003 2900 1516 
L 2900 3500 
L 3475 3500 
L 3475 0 
L 2900 0 
L 2900 538 
Q 2691 219 2414 64 
Q 2138 -91 1772 -91 
Q 1169 -91 856 284 
Q 544 659 544 1381 
z
M 1991 3584 
L 1991 3584 
z
" transform="scale(0.015625)"/>
       <path id="DejaVuSans-64" d="M 2906 2969 
L 2906 4863 
L 3481 4863 
L 3481 0 
L 2906 0 
L 2906 525 
Q 2725 213 2448 61 
Q 2172 -91 1784 -91 
Q 1150 -91 751 415 
Q 353 922 353 1747 
Q 353 2572 751 3078 
Q 1150 3584 1784 3584 
Q 2172 3584 2448 3432 
Q 2725 3281 2906 2969 
z
M 947 1747 
Q 947 1113 1208 752 
Q 1469 391 1925 391 
Q 2381 391 2643 752 
Q 2906 1113 2906 1747 
Q 2906 2381 2643 2742 
Q 2381 3103 1925 3103 
Q 1469 3103 1208 2742 
Q 947 2381 947 1747 
z
" transform="scale(0.015625)"/>
      </defs>
      <use xlink:href="#DejaVuSans-41"/>
      <use xlink:href="#DejaVuSans-6d" transform="translate(68.408203 0)"/>
      <use xlink:href="#DejaVuSans-70" transform="translate(165.820312 0)"/>
      <use xlink:href="#DejaVuSans-6c" transform="translate(229.296875 0)"/>
      <use xlink:href="#DejaVuSans-69" transform="translate(257.080078 0)"/>
      <use xlink:href="#DejaVuSans-74" transform="translate(284.863281 0)"/>
      <use xlink:href="#DejaVuSans-75" transform="translate(324.072266 0)"/>
      <use xlink:href="#DejaVuSans-64" transform="translate(387.451172 0)"/>
      <use xlink:href="#DejaVuSans-65" transform="translate(450.927734 0)"/>
     </g>
    </g>
   </g>
   <g id="line2d_29">
    <path d="M 81.717827 132.011529 
L 82.223932 131.876225 
L 82.772213 131.485221 
L 83.531371 130.632486 
L 84.712284 129.321855 
L 85.218389 129.090698 
L 85.597968 129.135916 
L 85.893196 129.315041 
L 85.935372 128.332302 
L 86.019723 128.419159 
L 86.399302 129.008505 
L 86.905407 130.251415 
L 87.791092 133.16379 
L 88.592425 135.515828 
L 89.01418 136.197451 
L 89.309408 136.333143 
L 89.562461 136.193671 
L 89.857689 135.715906 
L 90.110741 135.035729 
L 90.279443 133.443046 
L 90.912075 130.704149 
L 92.430391 123.814772 
L 92.80997 123.017604 
L 93.063023 122.861883 
L 93.2739 122.988284 
L 93.526953 123.463734 
L 93.864357 124.655622 
L 94.328287 127.284239 
L 94.496988 129.497328 
L 95.551375 138.130861 
L 96.310533 143.380322 
L 96.732287 144.971699 
L 96.98534 145.278322 
L 97.154042 145.174155 
L 97.364919 144.671307 
L 97.660147 143.235387 
L 98.039726 140.09368 
L 98.545832 133.678477 
L 98.756709 129.312914 
L 99.558042 114.073134 
L 101.287236 80.171815 
L 101.835517 73.569414 
L 102.215096 71.105892 
L 102.468149 70.550836 
L 102.594675 70.617456 
L 102.763377 71.072653 
L 102.805552 70.233886 
L 102.889903 70.680961 
L 103.185131 73.138212 
L 103.56471 78.329187 
L 104.070816 88.657386 
L 104.745623 107.726325 
L 105.757834 143.958102 
L 107.318325 199.402607 
L 108.077483 219.380111 
L 108.625764 228.436587 
L 109.005343 231.5535 
L 109.216221 232.086315 
L 109.342747 231.983384 
L 109.511449 231.347688 
L 109.764502 229.322305 
L 110.101905 224.639238 
L 110.565835 214.651323 
L 111.156291 196.645554 
L 111.91545 166.239778 
L 113.813345 91.674635 
L 114.403801 76.915679 
L 114.867731 70.222333 
L 115.162959 68.43764 
L 115.289486 68.278005 
L 115.331661 68.305699 
L 115.416012 68.482169 
L 115.458187 67.612027 
L 115.542538 68.036497 
L 115.795591 70.294705 
L 116.132995 75.521317 
L 116.596925 86.466326 
L 117.271732 108.535953 
L 119.760083 196.374838 
L 120.308364 206.931407 
L 120.730119 211.692277 
L 121.067522 213.452141 
L 121.2784 213.689838 
L 121.404926 213.537414 
L 121.615803 212.830012 
L 121.953207 210.660052 
L 122.459312 205.578469 
L 123.851102 188.208369 
L 124.061979 183.991111 
L 124.568085 180.182243 
L 124.947664 178.775609 
L 125.200717 178.534537 
L 125.369418 178.668985 
L 125.622471 179.280351 
L 126.00205 180.997761 
L 126.550331 184.69736 
L 128.110823 196.849438 
L 128.279524 198.590813 
L 128.616928 199.4586 
L 128.827805 199.603742 
L 128.996507 199.504617 
L 129.24956 199.016743 
L 129.586963 197.802099 
L 130.135244 194.80667 
L 131.611385 186.158186 
L 132.03314 184.990165 
L 132.286192 184.742286 
L 132.454894 186.797294 
L 132.707947 187.026723 
L 133.04535 187.681483 
L 133.551456 189.267678 
L 135.322825 195.427806 
L 135.660228 195.786247 
L 135.913281 195.763184 
L 136.166334 195.480804 
L 136.503737 194.710872 
L 136.672439 192.145122 
L 137.600299 188.698969 
L 138.401633 186.082972 
L 138.823387 185.306124 
L 139.118615 185.118879 
L 139.371668 185.222983 
L 139.666896 185.66996 
L 140.046475 186.761576 
L 140.552581 189.050163 
L 140.721282 189.992311 
L 140.93216 193.282066 
L 142.113072 199.698362 
L 142.619178 201.323274 
L 142.956581 201.757183 
L 143.167459 201.713605 
L 143.378336 201.402858 
L 143.673564 200.483972 
L 144.053143 198.410024 
L 144.517073 194.415165 
L 145.402758 183.963765 
L 146.077565 169.591417 
L 146.921074 146.378428 
L 148.355039 99.306478 
L 149.282899 71.818156 
L 150.168583 48.903204 
L 150.75904 38.47121 
L 151.180794 34.235498 
L 151.476022 33.103239 
L 151.602549 33.110058 
L 151.771251 33.592938 
L 152.024303 35.351627 
L 152.361707 39.647299 
L 152.783461 48.103218 
L 153.331742 63.840003 
L 153.880023 85.855225 
L 156.368375 179.810641 
L 156.87448 189.717492 
L 157.254059 193.5055 
L 157.464936 194.181291 
L 157.549287 194.162174 
L 157.591463 194.090609 
L 157.675814 195.859779 
L 157.760165 195.416763 
L 158.013217 193.045359 
L 158.350621 187.543422 
L 158.814551 176.032621 
L 159.489358 152.933441 
L 161.893359 64.589988 
L 162.44164 54.013002 
L 162.863394 49.57738 
L 163.158622 48.332696 
L 163.327324 48.26322 
L 163.496026 48.625599 
L 163.749079 49.903887 
L 164.128658 53.207309 
L 164.761289 61.125278 
L 166.321781 81.519324 
L 166.70136 83.185276 
L 166.912237 83.433034 
L 167.080939 83.29109 
L 167.291817 82.710736 
L 167.62922 80.947637 
L 168.135326 76.832716 
L 169.695817 63.160849 
L 170.075396 61.820108 
L 170.244098 61.632574 
L 170.328449 59.600696 
L 170.4128 59.682331 
L 170.623677 60.222553 
L 170.918905 61.75375 
L 171.34066 65.314571 
L 172.057642 73.718676 
L 172.985502 84.044365 
L 173.407257 86.623771 
L 173.66031 87.179695 
L 173.786836 87.14625 
L 173.955538 86.764896 
L 174.20859 85.459658 
L 174.461643 83.285447 
L 174.714696 78.29157 
L 175.305152 69.176634 
L 176.823468 44.579618 
L 177.203047 41.913011 
L 177.413925 41.552706 
L 177.540451 41.76673 
L 177.751328 42.886083 
L 178.046556 46.132906 
L 178.426136 53.271952 
L 178.721364 62.113101 
L 179.016592 72.731591 
L 179.77575 103.564255 
L 181.589294 180.401647 
L 182.137575 193.705014 
L 182.517154 198.213049 
L 182.728032 198.920064 
L 182.812382 198.837529 
L 182.896733 198.546461 
L 182.938909 199.341768 
L 182.981084 198.043768 
L 183.234137 195.29623 
L 183.571541 188.885812 
L 184.035471 175.501542 
L 184.752453 147.201363 
L 186.397296 79.622503 
L 186.903401 67.297648 
L 187.409507 59.875876 
L 187.536033 59.747427 
L 187.662559 60.118544 
L 187.873437 61.839161 
L 188.168665 66.500632 
L 188.590419 77.384873 
L 189.180876 99.516562 
L 190.235262 149.7837 
L 191.331824 198.302655 
L 191.45835 200.748302 
L 192.090982 218.6311 
L 192.554912 226.448488 
L 192.892315 229.215564 
L 193.103192 229.728289 
L 193.229719 229.603727 
L 193.398421 228.953555 
L 193.651473 226.996978 
L 194.031052 222.067965 
L 194.579333 211.480004 
L 195.422842 189.927183 
L 198.417299 109.277042 
L 200.694774 58.36692 
L 201.327405 49.61288 
L 201.791335 45.802441 
L 202.086563 44.738011 
L 202.255265 44.645099 
L 202.423967 44.942508 
L 202.634844 45.877076 
L 202.930072 48.255147 
L 203.351827 53.819676 
L 203.857932 63.724648 
L 204.153161 73.006431 
L 205.038845 99.048702 
L 207.569372 176.718121 
L 208.202004 190.019136 
L 208.286355 189.470716 
L 208.961162 199.283212 
L 209.509443 204.486582 
L 209.931197 206.812108 
L 210.268601 207.650366 
L 210.479478 207.728195 
L 210.64818 207.551782 
L 210.901233 206.90474 
L 211.238636 205.370351 
L 211.702566 202.145165 
L 212.377373 195.678888 
L 212.419549 195.22541 
L 212.461724 195.786657 
L 212.5039 196.342704 
L 212.546075 195.873634 
L 214.612672 173.636282 
L 214.992251 172.011634 
L 215.203129 171.735374 
L 215.329655 171.801724 
L 215.498357 172.170763 
L 215.75141 173.338063 
L 216.088813 176.038909 
L 216.552743 181.756475 
L 217.22755 193.357589 
L 218.745867 220.500823 
L 219.167621 224.229835 
L 219.420674 224.962561 
L 219.505025 224.922744 
L 219.631551 224.580772 
L 219.842428 223.226381 
L 220.137656 219.608493 
L 220.517236 211.923395 
L 221.023341 196.501817 
L 221.698148 168.123768 
L 223.933447 67.123312 
L 224.355202 58.403112 
L 224.65043 55.800148 
L 224.776956 55.615382 
L 224.903482 55.996817 
L 225.072184 57.385093 
L 225.11436 56.869383 
L 225.156535 56.416983 
L 225.198711 57.047755 
L 225.536114 64.348555 
L 226.000044 80.354616 
L 226.674851 112.752168 
L 228.235343 190.480453 
L 228.741448 204.375262 
L 229.078852 208.400009 
L 229.205378 208.744723 
L 229.247554 208.716198 
L 229.289729 208.615843 
L 229.331905 207.424943 
L 229.416256 207.892708 
L 229.627133 205.275496 
L 229.964537 197.549644 
L 230.428466 180.623684 
L 231.145449 144.439447 
L 232.495064 75.150641 
L 233.001169 59.607513 
L 233.338573 54.456021 
L 233.507274 53.581117 
L 233.718152 56.126084 
L 233.929029 58.351012 
L 234.224257 64.239306 
L 234.646012 77.724917 
L 235.278643 106.452961 
L 237.007837 189.814598 
L 237.471767 201.597284 
L 237.724819 204.848465 
L 237.766995 204.141472 
L 237.893521 205.708084 
L 237.977872 205.739634 
L 238.104399 205.287949 
L 238.315276 203.22235 
L 238.610504 197.681135 
L 239.032258 184.930213 
L 239.66489 157.665472 
L 241.562785 70.51903 
L 241.98454 59.360328 
L 242.026715 59.671728 
L 242.364119 56.111223 
L 242.532821 55.757462 
L 242.659347 56.120469 
L 242.870224 57.910576 
L 243.165453 62.831321 
L 243.587207 74.371505 
L 244.177663 97.86327 
L 245.189874 149.154931 
L 246.370787 205.474344 
L 247.003419 226.167339 
L 247.467349 235.432097 
L 247.804752 238.807506 
L 248.015629 239.479716 
L 248.09998 239.444628 
L 248.226507 239.072836 
L 248.437384 237.624543 
L 248.774788 233.26877 
L 249.238718 223.618084 
L 249.871349 205.011213 
L 251.178788 157.695475 
L 252.612754 104.688385 
L 253.329736 85.711136 
L 253.878017 76.496671 
L 254.257596 73.19008 
L 254.510649 72.45578 
L 254.595 72.47618 
L 254.679351 70.593485 
L 254.763702 70.891536 
L 255.016754 72.648799 
L 255.354158 76.962202 
L 255.818088 86.341745 
L 256.408544 103.241397 
L 257.336404 137.223888 
L 259.107773 202.622376 
L 259.698229 215.631467 
L 260.162159 221.468913 
L 260.457387 223.127117 
L 260.626089 223.3738 
L 260.752616 223.235087 
L 260.963493 222.410946 
L 261.258721 220.087857 
L 261.680476 214.671012 
L 262.270932 203.796704 
L 263.03009 186.225829 
L 263.325318 176.839513 
L 265.729319 119.656994 
L 267.247635 81.214898 
L 267.458512 75.59873 
L 268.6816 45.850375 
L 269.272057 36.363082 
L 269.651636 33.208415 
L 269.862513 32.655528 
L 269.946864 32.693407 
L 270.07339 33.038168 
L 270.284268 34.402576 
L 270.579496 38.017554 
L 270.959075 45.613816 
L 271.507356 61.13839 
L 271.844759 75.231158 
L 272.772619 118.444784 
L 274.037883 175.971418 
L 274.628339 193.689784 
L 275.050093 200.599741 
L 275.303146 202.169892 
L 275.387497 202.250851 
L 275.429673 202.208022 
L 275.556199 201.746874 
L 275.682725 200.789733 
L 275.935778 195.417633 
L 276.315357 187.167524 
L 276.863638 169.385742 
L 277.749322 131.701716 
L 278.88806 85.074 
L 279.43634 70.342042 
L 279.815919 64.654584 
L 279.942446 62.643799 
L 280.068972 63.148037 
L 280.153323 63.065503 
L 280.195498 63.102582 
L 280.322025 63.526969 
L 280.532902 65.270429 
L 280.82813 69.82793 
L 281.249885 80.30325 
L 281.840341 101.407512 
L 282.979078 152.698424 
L 283.949114 192.159689 
L 284.708272 213.844623 
L 285.130026 219.099484 
L 285.383079 220.327359 
L 285.509605 220.430924 
L 285.636132 220.213464 
L 285.847009 219.185345 
L 286.184413 216.020768 
L 286.690518 208.652371 
L 288.71494 176.247284 
L 289.010168 174.981388 
L 289.221045 174.805871 
L 289.389747 175.087058 
L 289.642799 176.16401 
L 290.022379 179.05519 
L 290.612835 185.628988 
L 291.793747 198.983433 
L 292.215502 201.598334 
L 292.51073 202.353734 
L 292.552906 202.384871 
L 292.595081 203.415366 
L 292.637256 202.384871 
L 292.805958 202.14438 
L 293.059011 201.213852 
L 293.396415 198.983433 
L 293.90252 193.932514 
L 295.547363 176.16401 
L 295.884766 174.900849 
L 296.053468 174.804399 
L 296.179994 174.981388 
L 296.390872 175.763169 
L 296.6861 177.881043 
L 297.107854 182.890092 
L 297.698311 193.014145 
L 299.216627 220.38487 
L 299.596206 223.308875 
L 299.807083 223.669215 
L 299.933609 223.40049 
L 300.144487 222.093549 
L 300.439715 218.374339 
L 300.819294 210.268244 
L 301.114522 199.400979 
L 301.747154 174.339591 
L 302.970242 113.859659 
L 303.813751 77.687262 
L 304.319856 63.692208 
L 304.699435 58.325968 
L 304.910313 57.422407 
L 304.994664 57.486205 
L 305.12119 58.038108 
L 305.205541 58.708699 
L 305.247716 58.115362 
L 305.458594 62.1688 
L 305.838173 71.184737 
L 306.344278 89.368228 
L 307.187787 129.531861 
L 308.326524 181.993632 
L 308.874805 197.792457 
L 309.254384 203.130412 
L 309.423086 203.885436 
L 309.465261 202.896507 
L 309.507437 203.885436 
L 309.633963 203.414222 
L 309.84484 201.368953 
L 310.140069 195.950031 
L 310.561823 183.507888 
L 311.194455 156.830904 
L 313.09235 71.184737 
L 313.55628 60.779152 
L 313.640631 59.623284 
L 313.682806 60.152854 
L 313.724982 60.740578 
L 313.767157 60.366511 
L 313.978035 59.357753 
L 314.062386 59.358237 
L 314.188912 59.791197 
L 314.399789 61.652423 
L 314.695017 66.571292 
L 315.116772 77.88322 
L 315.707228 100.544082 
L 316.972492 160.856889 
L 317.858176 197.433353 
L 317.900352 197.834973 
L 318.153404 206.650265 
L 318.701685 218.845832 
L 319.12344 223.734556 
L 319.376492 224.863619 
L 319.503019 224.951835 
L 319.629545 224.740044 
L 319.840422 223.761997 
L 320.177826 220.74967 
L 320.641756 214.297446 
L 321.485265 198.804918 
L 322.075721 187.700595 
L 322.117897 187.974749 
L 322.160072 188.256813 
L 323.003581 175.564249 
L 323.551862 170.281472 
L 323.931441 168.344482 
L 324.184494 167.890296 
L 324.353196 167.966125 
L 324.564073 168.486028 
L 324.859301 169.993636 
L 325.23888 173.206313 
L 325.787161 180.088094 
L 326.293266 188.256813 
L 326.461968 191.227502 
L 327.980284 216.597534 
L 328.444214 220.99744 
L 328.739442 222.256126 
L 328.908144 222.350716 
L 329.034671 222.101396 
L 329.245548 221.045999 
L 329.540776 218.165357 
L 329.920355 211.978444 
L 330.42646 199.431692 
L 331.059092 177.664054 
L 332.155654 130.531909 
L 333.21004 88.452808 
L 333.800497 72.700606 
L 334.222251 66.543293 
L 334.475304 65.125787 
L 334.559655 65.044425 
L 334.60183 65.077442 
L 334.728356 65.470984 
L 334.812707 63.941798 
L 334.854883 64.272556 
L 335.107936 67.32283 
L 335.487515 75.163097 
L 335.99362 90.917431 
L 336.794954 124.119515 
L 338.144568 179.72413 
L 338.692849 193.909945 
L 339.24113 202.10969 
L 339.367656 202.238139 
L 339.494182 201.867022 
L 339.70506 200.146405 
L 340.000288 195.484934 
L 340.422042 184.600693 
L 341.012499 162.469005 
L 342.066885 112.201867 
L 343.205622 61.13839 
L 343.289973 59.214027 
L 343.880429 42.716373 
L 344.344359 35.230693 
L 344.681763 32.884367 
L 344.850465 32.655528 
L 344.976991 32.878543 
L 345.187868 33.964838 
L 345.483096 36.870384 
L 345.904851 43.424174 
L 346.537483 57.12973 
L 347.423167 81.107444 
L 347.67622 88.783533 
L 348.899308 117.751753 
L 351.429835 174.299466 
L 353.412081 223.417844 
L 353.876011 229.799552 
L 354.213415 231.893178 
L 354.339941 232.041837 
L 354.382117 232.009617 
L 354.508643 231.66079 
L 354.71952 230.21438 
L 355.014748 226.312187 
L 355.394327 218.030461 
L 355.900433 201.508956 
L 356.57524 171.342339 
L 358.768363 66.852371 
L 359.232293 56.587543 
L 359.527522 53.859832 
L 359.654048 53.645199 
L 359.738399 53.823738 
L 359.907101 54.951459 
L 360.033627 56.465427 
L 360.328855 64.142307 
L 360.75061 76.794018 
L 361.383241 103.719126 
L 363.281137 190.67137 
L 363.745067 201.132471 
L 364.040295 203.975925 
L 364.166821 204.235688 
L 364.208997 204.193111 
L 364.251172 204.085935 
L 364.293348 204.932985 
L 364.335523 203.674043 
L 364.5464 201.514889 
L 364.841628 195.884939 
L 365.263383 183.021721 
L 365.896015 155.471421 
L 367.709559 70.823135 
L 368.173489 59.968003 
L 368.468717 56.987918 
L 368.510893 57.844094 
L 368.553068 56.725209 
L 368.637419 56.724783 
L 368.763945 57.223038 
L 368.974823 59.369566 
L 369.270051 65.041136 
L 369.691805 78.033755 
L 370.324437 105.79125 
L 372.137981 190.881443 
L 372.601911 202.231509 
L 373.065841 208.276894 
L 373.150192 208.152758 
L 373.318894 207.116913 
L 373.571947 203.636062 
L 373.90935 195.603061 
L 374.415456 177.287485 
L 375.174614 140.359447 
L 376.650755 68.160266 
L 377.241211 49.593741 
L 377.705141 41.211209 
L 378.042544 38.585076 
L 378.211246 38.309363 
L 378.337773 38.527001 
L 378.54865 39.640313 
L 378.843878 42.595961 
L 379.307808 49.782302 
L 381.121352 82.370862 
L 381.163528 81.822725 
L 381.205703 81.253568 
L 381.247879 81.683329 
L 381.669633 84.841692 
L 381.964861 85.787059 
L 382.133563 85.867358 
L 382.302265 85.629688 
L 382.555318 84.722076 
L 382.934897 82.304033 
L 383.567529 76.432675 
L 384.706266 65.855759 
L 385.170196 63.432713 
L 385.338897 62.95618 
L 385.423248 64.838875 
L 385.507599 64.730515 
L 385.718477 64.65479 
L 385.929354 64.849851 
L 386.224582 65.542484 
L 386.646336 67.234947 
L 387.489845 71.882179 
L 388.206828 75.298405 
L 388.628583 76.362792 
L 388.881635 76.543758 
L 389.092513 76.409884 
L 389.345565 75.902947 
L 389.556443 75.199556 
L 389.598618 76.048309 
L 389.640793 74.846047 
L 390.104723 72.258853 
L 390.863882 66.495304 
L 391.791741 59.806023 
L 392.213496 58.130216 
L 392.466549 57.809954 
L 392.63525 57.934663 
L 392.846128 58.509209 
L 393.141356 60.157654 
L 393.520935 63.826031 
L 393.773988 67.276671 
L 394.02704 73.534935 
L 394.659672 87.015682 
L 395.503181 110.49337 
L 397.316726 169.897847 
L 398.033708 189.934996 
L 398.075884 190.036569 
L 398.919393 209.304667 
L 399.509849 218.299882 
L 399.931603 221.934429 
L 400.226832 222.951558 
L 400.353358 222.985186 
L 400.479884 222.772583 
L 400.690762 221.865035 
L 400.98599 219.425158 
L 401.365569 214.298812 
L 401.871674 204.13233 
L 402.251253 193.218467 
L 402.546481 183.4169 
L 403.685219 144.525171 
L 405.161359 95.698995 
L 405.920518 77.544869 
L 406.426623 69.267903 
L 406.468798 69.741811 
L 406.6375 66.748424 
L 407.10143 63.074023 
L 407.438834 61.882591 
L 407.649711 61.689176 
L 407.818413 61.800691 
L 408.071466 62.348051 
L 408.451045 63.830785 
L 409.252378 68.17079 
L 409.969361 71.508889 
L 410.391115 72.574759 
L 410.644168 72.802323 
L 410.81287 70.750699 
L 411.108098 70.49895 
L 411.487677 69.796867 
L 412.078133 68.11023 
L 413.048169 65.349299 
L 413.385572 64.945473 
L 413.59645 64.962382 
L 413.807327 65.232472 
L 414.06038 65.941689 
L 414.397783 67.634554 
L 414.819538 71.114048 
L 415.325643 77.463559 
L 415.916099 88.050198 
L 416.633082 105.346558 
L 417.560942 133.701842 
L 419.121434 188.69003 
L 419.374486 197.880611 
L 420.17582 219.40206 
L 420.724101 228.926548 
L 421.10368 232.429308 
L 421.356733 233.213184 
L 421.483259 233.119166 
L 421.651961 232.479223 
L 421.905013 230.403677 
L 422.242417 225.550867 
L 422.706347 215.097269 
L 423.296803 196.078736 
L 423.592031 184.605657 
L 424.81512 130.105449 
L 425.82733 89.453068 
L 426.417787 73.551539 
L 426.839541 67.16663 
L 427.134769 65.427908 
L 427.21912 65.35516 
L 427.261296 65.38965 
L 427.387822 65.775817 
L 427.514348 66.583197 
L 427.556524 67.963748 
L 427.640875 67.79776 
L 427.978278 72.980694 
L 428.442208 84.320485 
L 429.117015 107.491335 
L 431.183613 183.267941 
L 431.689718 192.788729 
L 431.731893 193.313362 
L 431.774069 192.775839 
L 431.816244 192.196068 
L 431.85842 192.593984 
L 432.153648 194.208724 
L 432.280174 194.26394 
L 432.406701 193.933581 
L 432.617578 192.527684 
L 432.912806 188.790389 
L 433.334561 180.041116 
L 433.882841 163.35158 
L 434.684175 130.998639 
L 436.877298 38.144922 
L 437.425579 25.845662 
L 437.805158 21.355188 
L 438.058211 20.303486 
L 438.142562 20.303486 
L 438.269088 20.632566 
L 438.479966 22.054137 
L 438.775194 25.845662 
L 439.196948 34.733999 
L 439.745229 51.727329 
L 440.504387 82.940165 
L 442.697511 177.875947 
L 443.245792 191.494372 
L 443.625371 196.664462 
L 443.878423 198.01078 
L 443.962774 198.077599 
L 444.00495 198.039138 
L 444.131476 197.636697 
L 444.342353 196.016299 
L 444.637581 191.826106 
L 445.059336 182.209038 
L 445.649792 162.8125 
L 446.830705 114.063609 
L 447.716389 82.26931 
L 448.26467 69.88178 
L 448.812951 63.080664 
L 448.897302 63.102582 
L 449.023828 63.526969 
L 449.234706 65.270429 
L 449.529934 69.82793 
L 449.951688 80.30325 
L 450.542145 101.407512 
L 451.680882 152.698424 
L 452.650917 192.159689 
L 453.283549 209.621197 
L 453.747479 217.099405 
L 454.084882 219.672417 
L 454.29576 220.124642 
L 454.422286 219.997997 
L 454.633163 219.173232 
L 454.928391 216.870275 
L 455.392321 211.123448 
L 456.320181 195.870055 
L 457.037164 185.002068 
L 457.079339 185.483805 
L 457.248041 182.447543 
L 457.754147 177.946293 
L 458.133726 176.198406 
L 458.386778 175.801422 
L 458.55548 175.85951 
L 458.766357 176.269088 
L 459.061586 177.405484 
L 459.525516 180.252584 
L 460.369025 187.221543 
L 461.254709 194.29898 
L 461.33906 192.828177 
L 461.381235 193.105696 
L 462.140394 197.357291 
L 462.688674 199.332949 
L 463.110429 200.127434 
L 463.405657 200.290847 
L 463.65871 200.17075 
L 463.953938 199.728951 
L 464.333517 198.694894 
L 464.839622 196.550902 
L 465.472254 192.828177 
L 465.51443 191.528475 
L 465.59878 191.983901 
L 467.4545 180.131334 
L 467.876255 178.928153 
L 468.129308 178.715281 
L 468.298009 178.810016 
L 468.508887 179.209489 
L 468.804115 180.310446 
L 469.183694 182.6566 
L 469.689799 187.293784 
L 469.731975 188.767276 
L 469.816326 188.677054 
L 470.786361 200.886324 
L 471.62987 210.310513 
L 472.051624 213.014579 
L 472.304677 213.66278 
L 472.431204 213.670559 
L 472.599905 213.327307 
L 472.852958 212.009331 
L 473.190362 208.666655 
L 473.612116 201.853654 
L 474.329099 185.728963 
L 475.088257 158.659247 
L 477.154854 81.281408 
L 477.660959 70.698635 
L 478.040539 66.568803 
L 478.124889 66.125788 
L 478.167065 64.951545 
L 478.20924 65.863079 
L 478.335767 65.807497 
L 478.462293 66.151978 
L 478.67317 67.612301 
L 478.968398 71.482865 
L 479.390153 80.497167 
L 479.938434 97.508174 
L 480.781943 131.519294 
L 482.553312 203.829723 
L 483.143768 217.936222 
L 483.565523 223.672735 
L 483.860751 225.5185 
L 484.029453 225.798935 
L 484.155979 225.654884 
L 484.366856 224.771553 
L 484.662084 222.282764 
L 485.083839 216.531673 
L 485.716471 204.263924 
L 487.403489 164.685193 
L 491.621034 58.188862 
L 492.338016 45.453454 
L 492.801946 40.409518 
L 493.13935 38.75048 
L 493.308052 38.626667 
L 493.434578 38.858449 
L 493.645455 39.881071 
L 493.940683 42.678543 
L 494.320263 48.62949 
L 494.826368 60.515815 
L 495.501175 82.421542 
L 496.682088 130.004157 
L 497.77865 170.720275 
L 498.411281 186.593265 
L 498.833036 192.688465 
L 499.128264 194.57797 
L 499.212615 194.747566 
L 499.25479 195.789055 
L 499.296966 194.747566 
L 499.423492 194.431184 
L 499.634369 193.080834 
L 499.929598 189.496438 
L 500.351352 181.140614 
L 500.899633 165.331576 
L 501.743142 133.473324 
L 503.472335 66.685573 
L 503.514511 66.414996 
L 504.189318 49.391138 
L 504.695423 41.610458 
L 505.075003 38.75817 
L 505.28588 38.267325 
L 505.412406 38.337167 
L 505.581108 38.842248 
L 505.834161 40.444633 
L 506.21374 44.598457 
L 506.719845 52.934794 
L 507.436828 68.795505 
L 508.491214 97.498729 
L 511.527846 176.714971 
L 512.582233 199.734073 
L 513.383566 213.870833 
L 513.889672 219.452597 
L 514.227075 221.262754 
L 514.437953 221.512629 
L 514.564479 221.316981 
L 514.775356 220.393881 
L 515.070584 217.813264 
L 515.450163 212.25682 
L 515.956269 201.04532 
L 516.50455 183.566184 
L 517.474585 147.463278 
L 518.950726 93.27 
L 519.625533 76.321384 
L 520.131638 68.716935 
L 520.342516 66.950415 
L 520.384691 67.717169 
L 520.469042 67.308367 
L 520.679919 66.837101 
L 520.806446 66.926058 
L 520.975147 67.466408 
L 521.2282 69.142587 
L 521.607779 73.440776 
L 522.15606 82.766369 
L 523.041745 102.463567 
L 524.307008 129.840351 
L 524.770938 136.088559 
L 525.319219 142.019967 
L 525.740973 144.519244 
L 526.036202 145.224435 
L 526.204903 145.264734 
L 526.373605 145.059398 
L 526.626658 144.330081 
L 527.006237 142.428637 
L 527.596693 138.130861 
L 529.410238 124.134468 
L 529.789817 123.107002 
L 530.042869 122.868013 
L 530.253747 122.929906 
L 530.506799 123.294216 
L 530.886378 124.355019 
L 531.434659 126.679418 
L 532.995151 133.879991 
L 533.121677 135.289718 
L 533.543432 136.146385 
L 533.83866 136.333143 
L 534.091713 136.235434 
L 534.386941 135.850307 
L 534.808695 134.885476 
L 535.567853 132.441036 
L 536.537889 129.468767 
L 537.043994 128.522276 
L 537.212696 128.332302 
L 537.254872 129.315041 
L 537.339222 129.250813 
L 537.760977 129.085739 
L 538.182731 129.168458 
L 538.688837 129.538574 
L 539.49017 130.473069 
L 540.544557 131.63067 
L 541.135013 131.95973 
L 541.430241 132.011529 
L 541.556768 130.992783 
L 545.605611 130.992783 
L 545.605611 130.992783 
" clip-path="url(#pd0125a7f89)" style="fill: none; stroke: #1f77b4; stroke-linecap: square"/>
   </g>
   <g id="patch_3">
    <path d="M 58.523438 250.44375 
L 58.523438 9.321428 
" style="fill: none; stroke: #000000; stroke-width: 0.8; stroke-linejoin: miter; stroke-linecap: square"/>
   </g>
   <g id="patch_4">
    <path d="M 568.8 250.44375 
L 568.8 9.321428 
" style="fill: none; stroke: #000000; stroke-width: 0.8; stroke-linejoin: miter; stroke-linecap: square"/>
   </g>
   <g id="patch_5">
    <path d="M 58.523438 250.44375 
L 568.8 250.44375 
" style="fill: none; stroke: #000000; stroke-width: 0.8; stroke-linejoin: miter; stroke-linecap: square"/>
   </g>
   <g id="patch_6">
    <path d="M 58.523438 9.321428 
L 568.8 9.321428 
" style="fill: none; stroke: #000000; stroke-width: 0.8; stroke-linejoin: miter; stroke-linecap: square"/>
   </g>
   <g id="legend_1">
    <g id="patch_7">
     <path d="M 503.071875 31.999553 
L 561.8 31.999553 
Q 563.8 31.999553 563.8 29.999553 
L 563.8 16.321428 
Q 563.8 14.321428 561.8 14.321428 
L 503.071875 14.321428 
Q 501.071875 14.321428 501.071875 16.321428 
L 501.071875 29.999553 
Q 501.071875 31.999553 503.071875 31.999553 
z
" style="fill: #ffffff; opacity: 0.8; stroke: #cccccc; stroke-linejoin: miter"/>
    </g>
    <g id="line2d_30">
     <path d="M 505.071875 22.419866 
L 515.071875 22.419866 
L 525.071875 22.419866 
" style="fill: none; stroke: #1f77b4; stroke-linecap: square"/>
    </g>
    <g id="text_17">
     <!-- SRRC -->
     <g transform="translate(533.071875 25.919866) scale(0.1 -0.1)">
      <defs>
       <path id="DejaVuSans-53" d="M 3425 4513 
L 3425 3897 
Q 3066 4069 2747 4153 
Q 2428 4238 2131 4238 
Q 1616 4238 1336 4038 
Q 1056 3838 1056 3469 
Q 1056 3159 1242 3001 
Q 1428 2844 1947 2747 
L 2328 2669 
Q 3034 2534 3370 2195 
Q 3706 1856 3706 1288 
Q 3706 609 3251 259 
Q 2797 -91 1919 -91 
Q 1588 -91 1214 -16 
Q 841 59 441 206 
L 441 856 
Q 825 641 1194 531 
Q 1563 422 1919 422 
Q 2459 422 2753 634 
Q 3047 847 3047 1241 
Q 3047 1584 2836 1778 
Q 2625 1972 2144 2069 
L 1759 2144 
Q 1053 2284 737 2584 
Q 422 2884 422 3419 
Q 422 4038 858 4394 
Q 1294 4750 2059 4750 
Q 2388 4750 2728 4690 
Q 3069 4631 3425 4513 
z
" transform="scale(0.015625)"/>
       <path id="DejaVuSans-52" d="M 2841 2188 
Q 3044 2119 3236 1894 
Q 3428 1669 3622 1275 
L 4263 0 
L 3584 0 
L 2988 1197 
Q 2756 1666 2539 1819 
Q 2322 1972 1947 1972 
L 1259 1972 
L 1259 0 
L 628 0 
L 628 4666 
L 2053 4666 
Q 2853 4666 3247 4331 
Q 3641 3997 3641 3322 
Q 3641 2881 3436 2590 
Q 3231 2300 2841 2188 
z
M 1259 4147 
L 1259 2491 
L 2053 2491 
Q 2509 2491 2742 2702 
Q 2975 2913 2975 3322 
Q 2975 3731 2742 3939 
Q 2509 4147 2053 4147 
L 1259 4147 
z
" transform="scale(0.015625)"/>
       <path id="DejaVuSans-43" d="M 4122 4306 
L 4122 3641 
Q 3803 3938 3442 4084 
Q 3081 4231 2675 4231 
Q 1875 4231 1450 3742 
Q 1025 3253 1025 2328 
Q 1025 1406 1450 917 
Q 1875 428 2675 428 
Q 3081 428 3442 575 
Q 3803 722 4122 1019 
L 4122 359 
Q 3791 134 3420 21 
Q 3050 -91 2638 -91 
Q 1578 -91 968 557 
Q 359 1206 359 2328 
Q 359 3453 968 4101 
Q 1578 4750 2638 4750 
Q 3056 4750 3426 4639 
Q 3797 4528 4122 4306 
z
" transform="scale(0.015625)"/>
      </defs>
      <use xlink:href="#DejaVuSans-53"/>
      <use xlink:href="#DejaVuSans-52" transform="translate(63.476562 0)"/>
      <use xlink:href="#DejaVuSans-52" transform="translate(132.958984 0)"/>
      <use xlink:href="#DejaVuSans-43" transform="translate(197.441406 0)"/>
     </g>
    </g>
   </g>
  </g>
 </g>
 <defs>
  <clipPath id="pd0125a7f89">
   <rect x="58.523438" y="9.321428" width="510.276563" height="241.122322"/>
  </clipPath>
 </defs>
</svg>
