<?xml version="1.0" encoding="utf-8" standalone="no"?>
<!DOCTYPE svg PUBLIC "-//W3C//DTD SVG 1.1//EN"
  "http://www.w3.org/Graphics/SVG/1.1/DTD/svg11.dtd">
<svg xmlns:xlink="http://www.w3.org/1999/xlink" width="576pt" height="288pt" viewBox="0 0 576 288" xmlns="http://www.w3.org/2000/svg" version="1.1">
 <metadata>
  <rdf:RDF xmlns:dc="http://purl.org/dc/elements/1.1/" xmlns:cc="http://creativecommons.org/ns#" xmlns:rdf="http://www.w3.org/1999/02/22-rdf-syntax-ns#">
   <cc:Work>
    <dc:type rdf:resource="http://purl.org/dc/dcmitype/StillImage"/>
    <dc:date>2025-05-10T16:55:02.627650</dc:date>
    <dc:format>image/svg+xml</dc:format>
    <dc:creator>
     <cc:Agent>
      <dc:title>Matplotlib v3.10.3, https://matplotlib.org/</dc:title>
     </cc:Agent>
    </dc:creator>
   </cc:Work>
  </rdf:RDF>
 </metadata>
 <defs>
  <style type="text/css">*{stroke-linejoin: round; stroke-linecap: butt}</style>
 </defs>
 <g id="figure_1">
  <g id="patch_1">
   <path d="M 0 288 
L 576 288 
L 576 0 
L 0 0 
z
" style="fill: #ffffff"/>
  </g>
  <g id="axes_1">
   <g id="patch_2">
    <path d="M 43.78125 250.44375 
L 568.8 250.44375 
L 568.8 22.318125 
L 43.78125 22.318125 
z
" style="fill: #ffffff"/>
   </g>
   <g id="matplotlib.axis_1">
    <g id="xtick_1">
     <g id="line2d_1">
      <path d="M 67.645739 250.44375 
L 67.645739 22.318125 
" clip-path="url(#pbc8b6c7709)" style="fill: none; stroke-dasharray: 2.96,1.28; stroke-dashoffset: 0; stroke: #b0b0b0; stroke-opacity: 0.8; stroke-width: 0.8"/>
     </g>
     <g id="line2d_2">
      <defs>
       <path id="mb944a8c717" d="M 0 0 
L 0 3.5 
" style="stroke: #000000; stroke-width: 0.8"/>
      </defs>
      <g>
       <use xlink:href="#mb944a8c717" x="67.645739" y="250.44375" style="stroke: #000000; stroke-width: 0.8"/>
      </g>
     </g>
     <g id="text_1">
      <!-- 0 -->
      <g transform="translate(64.464489 265.042188) scale(0.1 -0.1)">
       <defs>
        <path id="DejaVuSans-30" d="M 2034 4250 
Q 1547 4250 1301 3770 
Q 1056 3291 1056 2328 
Q 1056 1369 1301 889 
Q 1547 409 2034 409 
Q 2525 409 2770 889 
Q 3016 1369 3016 2328 
Q 3016 3291 2770 3770 
Q 2525 4250 2034 4250 
z
M 2034 4750 
Q 2819 4750 3233 4129 
Q 3647 3509 3647 2328 
Q 3647 1150 3233 529 
Q 2819 -91 2034 -91 
Q 1250 -91 836 529 
Q 422 1150 422 2328 
Q 422 3509 836 4129 
Q 1250 4750 2034 4750 
z
" transform="scale(0.015625)"/>
       </defs>
       <use xlink:href="#DejaVuSans-30"/>
      </g>
     </g>
    </g>
    <g id="xtick_2">
     <g id="line2d_3">
      <path d="M 147.194034 250.44375 
L 147.194034 22.318125 
" clip-path="url(#pbc8b6c7709)" style="fill: none; stroke-dasharray: 2.96,1.28; stroke-dashoffset: 0; stroke: #b0b0b0; stroke-opacity: 0.8; stroke-width: 0.8"/>
     </g>
     <g id="line2d_4">
      <g>
       <use xlink:href="#mb944a8c717" x="147.194034" y="250.44375" style="stroke: #000000; stroke-width: 0.8"/>
      </g>
     </g>
     <g id="text_2">
      <!-- 1 -->
      <g transform="translate(144.012784 265.042188) scale(0.1 -0.1)">
       <defs>
        <path id="DejaVuSans-31" d="M 794 531 
L 1825 531 
L 1825 4091 
L 703 3866 
L 703 4441 
L 1819 4666 
L 2450 4666 
L 2450 531 
L 3481 531 
L 3481 0 
L 794 0 
L 794 531 
z
" transform="scale(0.015625)"/>
       </defs>
       <use xlink:href="#DejaVuSans-31"/>
      </g>
     </g>
    </g>
    <g id="xtick_3">
     <g id="line2d_5">
      <path d="M 226.74233 250.44375 
L 226.74233 22.318125 
" clip-path="url(#pbc8b6c7709)" style="fill: none; stroke-dasharray: 2.96,1.28; stroke-dashoffset: 0; stroke: #b0b0b0; stroke-opacity: 0.8; stroke-width: 0.8"/>
     </g>
     <g id="line2d_6">
      <g>
       <use xlink:href="#mb944a8c717" x="226.74233" y="250.44375" style="stroke: #000000; stroke-width: 0.8"/>
      </g>
     </g>
     <g id="text_3">
      <!-- 2 -->
      <g transform="translate(223.56108 265.042188) scale(0.1 -0.1)">
       <defs>
        <path id="DejaVuSans-32" d="M 1228 531 
L 3431 531 
L 3431 0 
L 469 0 
L 469 531 
Q 828 903 1448 1529 
Q 2069 2156 2228 2338 
Q 2531 2678 2651 2914 
Q 2772 3150 2772 3378 
Q 2772 3750 2511 3984 
Q 2250 4219 1831 4219 
Q 1534 4219 1204 4116 
Q 875 4013 500 3803 
L 500 4441 
Q 881 4594 1212 4672 
Q 1544 4750 1819 4750 
Q 2544 4750 2975 4387 
Q 3406 4025 3406 3419 
Q 3406 3131 3298 2873 
Q 3191 2616 2906 2266 
Q 2828 2175 2409 1742 
Q 1991 1309 1228 531 
z
" transform="scale(0.015625)"/>
       </defs>
       <use xlink:href="#DejaVuSans-32"/>
      </g>
     </g>
    </g>
    <g id="xtick_4">
     <g id="line2d_7">
      <path d="M 306.290625 250.44375 
L 306.290625 22.318125 
" clip-path="url(#pbc8b6c7709)" style="fill: none; stroke-dasharray: 2.96,1.28; stroke-dashoffset: 0; stroke: #b0b0b0; stroke-opacity: 0.8; stroke-width: 0.8"/>
     </g>
     <g id="line2d_8">
      <g>
       <use xlink:href="#mb944a8c717" x="306.290625" y="250.44375" style="stroke: #000000; stroke-width: 0.8"/>
      </g>
     </g>
     <g id="text_4">
      <!-- 3 -->
      <g transform="translate(303.109375 265.042188) scale(0.1 -0.1)">
       <defs>
        <path id="DejaVuSans-33" d="M 2597 2516 
Q 3050 2419 3304 2112 
Q 3559 1806 3559 1356 
Q 3559 666 3084 287 
Q 2609 -91 1734 -91 
Q 1441 -91 1130 -33 
Q 819 25 488 141 
L 488 750 
Q 750 597 1062 519 
Q 1375 441 1716 441 
Q 2309 441 2620 675 
Q 2931 909 2931 1356 
Q 2931 1769 2642 2001 
Q 2353 2234 1838 2234 
L 1294 2234 
L 1294 2753 
L 1863 2753 
Q 2328 2753 2575 2939 
Q 2822 3125 2822 3475 
Q 2822 3834 2567 4026 
Q 2313 4219 1838 4219 
Q 1578 4219 1281 4162 
Q 984 4106 628 3988 
L 628 4550 
Q 988 4650 1302 4700 
Q 1616 4750 1894 4750 
Q 2613 4750 3031 4423 
Q 3450 4097 3450 3541 
Q 3450 3153 3228 2886 
Q 3006 2619 2597 2516 
z
" transform="scale(0.015625)"/>
       </defs>
       <use xlink:href="#DejaVuSans-33"/>
      </g>
     </g>
    </g>
    <g id="xtick_5">
     <g id="line2d_9">
      <path d="M 385.83892 250.44375 
L 385.83892 22.318125 
" clip-path="url(#pbc8b6c7709)" style="fill: none; stroke-dasharray: 2.96,1.28; stroke-dashoffset: 0; stroke: #b0b0b0; stroke-opacity: 0.8; stroke-width: 0.8"/>
     </g>
     <g id="line2d_10">
      <g>
       <use xlink:href="#mb944a8c717" x="385.83892" y="250.44375" style="stroke: #000000; stroke-width: 0.8"/>
      </g>
     </g>
     <g id="text_5">
      <!-- 4 -->
      <g transform="translate(382.65767 265.042188) scale(0.1 -0.1)">
       <defs>
        <path id="DejaVuSans-34" d="M 2419 4116 
L 825 1625 
L 2419 1625 
L 2419 4116 
z
M 2253 4666 
L 3047 4666 
L 3047 1625 
L 3713 1625 
L 3713 1100 
L 3047 1100 
L 3047 0 
L 2419 0 
L 2419 1100 
L 313 1100 
L 313 1709 
L 2253 4666 
z
" transform="scale(0.015625)"/>
       </defs>
       <use xlink:href="#DejaVuSans-34"/>
      </g>
     </g>
    </g>
    <g id="xtick_6">
     <g id="line2d_11">
      <path d="M 465.387216 250.44375 
L 465.387216 22.318125 
" clip-path="url(#pbc8b6c7709)" style="fill: none; stroke-dasharray: 2.96,1.28; stroke-dashoffset: 0; stroke: #b0b0b0; stroke-opacity: 0.8; stroke-width: 0.8"/>
     </g>
     <g id="line2d_12">
      <g>
       <use xlink:href="#mb944a8c717" x="465.387216" y="250.44375" style="stroke: #000000; stroke-width: 0.8"/>
      </g>
     </g>
     <g id="text_6">
      <!-- 5 -->
      <g transform="translate(462.205966 265.042188) scale(0.1 -0.1)">
       <defs>
        <path id="DejaVuSans-35" d="M 691 4666 
L 3169 4666 
L 3169 4134 
L 1269 4134 
L 1269 2991 
Q 1406 3038 1543 3061 
Q 1681 3084 1819 3084 
Q 2600 3084 3056 2656 
Q 3513 2228 3513 1497 
Q 3513 744 3044 326 
Q 2575 -91 1722 -91 
Q 1428 -91 1123 -41 
Q 819 9 494 109 
L 494 744 
Q 775 591 1075 516 
Q 1375 441 1709 441 
Q 2250 441 2565 725 
Q 2881 1009 2881 1497 
Q 2881 1984 2565 2268 
Q 2250 2553 1709 2553 
Q 1456 2553 1204 2497 
Q 953 2441 691 2322 
L 691 4666 
z
" transform="scale(0.015625)"/>
       </defs>
       <use xlink:href="#DejaVuSans-35"/>
      </g>
     </g>
    </g>
    <g id="xtick_7">
     <g id="line2d_13">
      <path d="M 544.935511 250.44375 
L 544.935511 22.318125 
" clip-path="url(#pbc8b6c7709)" style="fill: none; stroke-dasharray: 2.96,1.28; stroke-dashoffset: 0; stroke: #b0b0b0; stroke-opacity: 0.8; stroke-width: 0.8"/>
     </g>
     <g id="line2d_14">
      <g>
       <use xlink:href="#mb944a8c717" x="544.935511" y="250.44375" style="stroke: #000000; stroke-width: 0.8"/>
      </g>
     </g>
     <g id="text_7">
      <!-- 6 -->
      <g transform="translate(541.754261 265.042188) scale(0.1 -0.1)">
       <defs>
        <path id="DejaVuSans-36" d="M 2113 2584 
Q 1688 2584 1439 2293 
Q 1191 2003 1191 1497 
Q 1191 994 1439 701 
Q 1688 409 2113 409 
Q 2538 409 2786 701 
Q 3034 994 3034 1497 
Q 3034 2003 2786 2293 
Q 2538 2584 2113 2584 
z
M 3366 4563 
L 3366 3988 
Q 3128 4100 2886 4159 
Q 2644 4219 2406 4219 
Q 1781 4219 1451 3797 
Q 1122 3375 1075 2522 
Q 1259 2794 1537 2939 
Q 1816 3084 2150 3084 
Q 2853 3084 3261 2657 
Q 3669 2231 3669 1497 
Q 3669 778 3244 343 
Q 2819 -91 2113 -91 
Q 1303 -91 875 529 
Q 447 1150 447 2328 
Q 447 3434 972 4092 
Q 1497 4750 2381 4750 
Q 2619 4750 2861 4703 
Q 3103 4656 3366 4563 
z
" transform="scale(0.015625)"/>
       </defs>
       <use xlink:href="#DejaVuSans-36"/>
      </g>
     </g>
    </g>
    <g id="text_8">
     <!-- Random variable -->
     <g transform="translate(263.83125 278.720312) scale(0.1 -0.1)">
      <defs>
       <path id="DejaVuSans-52" d="M 2841 2188 
Q 3044 2119 3236 1894 
Q 3428 1669 3622 1275 
L 4263 0 
L 3584 0 
L 2988 1197 
Q 2756 1666 2539 1819 
Q 2322 1972 1947 1972 
L 1259 1972 
L 1259 0 
L 628 0 
L 628 4666 
L 2053 4666 
Q 2853 4666 3247 4331 
Q 3641 3997 3641 3322 
Q 3641 2881 3436 2590 
Q 3231 2300 2841 2188 
z
M 1259 4147 
L 1259 2491 
L 2053 2491 
Q 2509 2491 2742 2702 
Q 2975 2913 2975 3322 
Q 2975 3731 2742 3939 
Q 2509 4147 2053 4147 
L 1259 4147 
z
" transform="scale(0.015625)"/>
       <path id="DejaVuSans-61" d="M 2194 1759 
Q 1497 1759 1228 1600 
Q 959 1441 959 1056 
Q 959 750 1161 570 
Q 1363 391 1709 391 
Q 2188 391 2477 730 
Q 2766 1069 2766 1631 
L 2766 1759 
L 2194 1759 
z
M 3341 1997 
L 3341 0 
L 2766 0 
L 2766 531 
Q 2569 213 2275 61 
Q 1981 -91 1556 -91 
Q 1019 -91 701 211 
Q 384 513 384 1019 
Q 384 1609 779 1909 
Q 1175 2209 1959 2209 
L 2766 2209 
L 2766 2266 
Q 2766 2663 2505 2880 
Q 2244 3097 1772 3097 
Q 1472 3097 1187 3025 
Q 903 2953 641 2809 
L 641 3341 
Q 956 3463 1253 3523 
Q 1550 3584 1831 3584 
Q 2591 3584 2966 3190 
Q 3341 2797 3341 1997 
z
" transform="scale(0.015625)"/>
       <path id="DejaVuSans-6e" d="M 3513 2113 
L 3513 0 
L 2938 0 
L 2938 2094 
Q 2938 2591 2744 2837 
Q 2550 3084 2163 3084 
Q 1697 3084 1428 2787 
Q 1159 2491 1159 1978 
L 1159 0 
L 581 0 
L 581 3500 
L 1159 3500 
L 1159 2956 
Q 1366 3272 1645 3428 
Q 1925 3584 2291 3584 
Q 2894 3584 3203 3211 
Q 3513 2838 3513 2113 
z
" transform="scale(0.015625)"/>
       <path id="DejaVuSans-64" d="M 2906 2969 
L 2906 4863 
L 3481 4863 
L 3481 0 
L 2906 0 
L 2906 525 
Q 2725 213 2448 61 
Q 2172 -91 1784 -91 
Q 1150 -91 751 415 
Q 353 922 353 1747 
Q 353 2572 751 3078 
Q 1150 3584 1784 3584 
Q 2172 3584 2448 3432 
Q 2725 3281 2906 2969 
z
M 947 1747 
Q 947 1113 1208 752 
Q 1469 391 1925 391 
Q 2381 391 2643 752 
Q 2906 1113 2906 1747 
Q 2906 2381 2643 2742 
Q 2381 3103 1925 3103 
Q 1469 3103 1208 2742 
Q 947 2381 947 1747 
z
" transform="scale(0.015625)"/>
       <path id="DejaVuSans-6f" d="M 1959 3097 
Q 1497 3097 1228 2736 
Q 959 2375 959 1747 
Q 959 1119 1226 758 
Q 1494 397 1959 397 
Q 2419 397 2687 759 
Q 2956 1122 2956 1747 
Q 2956 2369 2687 2733 
Q 2419 3097 1959 3097 
z
M 1959 3584 
Q 2709 3584 3137 3096 
Q 3566 2609 3566 1747 
Q 3566 888 3137 398 
Q 2709 -91 1959 -91 
Q 1206 -91 779 398 
Q 353 888 353 1747 
Q 353 2609 779 3096 
Q 1206 3584 1959 3584 
z
" transform="scale(0.015625)"/>
       <path id="DejaVuSans-6d" d="M 3328 2828 
Q 3544 3216 3844 3400 
Q 4144 3584 4550 3584 
Q 5097 3584 5394 3201 
Q 5691 2819 5691 2113 
L 5691 0 
L 5113 0 
L 5113 2094 
Q 5113 2597 4934 2840 
Q 4756 3084 4391 3084 
Q 3944 3084 3684 2787 
Q 3425 2491 3425 1978 
L 3425 0 
L 2847 0 
L 2847 2094 
Q 2847 2600 2669 2842 
Q 2491 3084 2119 3084 
Q 1678 3084 1418 2786 
Q 1159 2488 1159 1978 
L 1159 0 
L 581 0 
L 581 3500 
L 1159 3500 
L 1159 2956 
Q 1356 3278 1631 3431 
Q 1906 3584 2284 3584 
Q 2666 3584 2933 3390 
Q 3200 3197 3328 2828 
z
" transform="scale(0.015625)"/>
       <path id="DejaVuSans-20" transform="scale(0.015625)"/>
       <path id="DejaVuSans-76" d="M 191 3500 
L 800 3500 
L 1894 563 
L 2988 3500 
L 3597 3500 
L 2284 0 
L 1503 0 
L 191 3500 
z
" transform="scale(0.015625)"/>
       <path id="DejaVuSans-72" d="M 2631 2963 
Q 2534 3019 2420 3045 
Q 2306 3072 2169 3072 
Q 1681 3072 1420 2755 
Q 1159 2438 1159 1844 
L 1159 0 
L 581 0 
L 581 3500 
L 1159 3500 
L 1159 2956 
Q 1341 3275 1631 3429 
Q 1922 3584 2338 3584 
Q 2397 3584 2469 3576 
Q 2541 3569 2628 3553 
L 2631 2963 
z
" transform="scale(0.015625)"/>
       <path id="DejaVuSans-69" d="M 603 3500 
L 1178 3500 
L 1178 0 
L 603 0 
L 603 3500 
z
M 603 4863 
L 1178 4863 
L 1178 4134 
L 603 4134 
L 603 4863 
z
" transform="scale(0.015625)"/>
       <path id="DejaVuSans-62" d="M 3116 1747 
Q 3116 2381 2855 2742 
Q 2594 3103 2138 3103 
Q 1681 3103 1420 2742 
Q 1159 2381 1159 1747 
Q 1159 1113 1420 752 
Q 1681 391 2138 391 
Q 2594 391 2855 752 
Q 3116 1113 3116 1747 
z
M 1159 2969 
Q 1341 3281 1617 3432 
Q 1894 3584 2278 3584 
Q 2916 3584 3314 3078 
Q 3713 2572 3713 1747 
Q 3713 922 3314 415 
Q 2916 -91 2278 -91 
Q 1894 -91 1617 61 
Q 1341 213 1159 525 
L 1159 0 
L 581 0 
L 581 4863 
L 1159 4863 
L 1159 2969 
z
" transform="scale(0.015625)"/>
       <path id="DejaVuSans-6c" d="M 603 4863 
L 1178 4863 
L 1178 0 
L 603 0 
L 603 4863 
z
" transform="scale(0.015625)"/>
       <path id="DejaVuSans-65" d="M 3597 1894 
L 3597 1613 
L 953 1613 
Q 991 1019 1311 708 
Q 1631 397 2203 397 
Q 2534 397 2845 478 
Q 3156 559 3463 722 
L 3463 178 
Q 3153 47 2828 -22 
Q 2503 -91 2169 -91 
Q 1331 -91 842 396 
Q 353 884 353 1716 
Q 353 2575 817 3079 
Q 1281 3584 2069 3584 
Q 2775 3584 3186 3129 
Q 3597 2675 3597 1894 
z
M 3022 2063 
Q 3016 2534 2758 2815 
Q 2500 3097 2075 3097 
Q 1594 3097 1305 2825 
Q 1016 2553 972 2059 
L 3022 2063 
z
" transform="scale(0.015625)"/>
      </defs>
      <use xlink:href="#DejaVuSans-52"/>
      <use xlink:href="#DejaVuSans-61" transform="translate(67.232422 0)"/>
      <use xlink:href="#DejaVuSans-6e" transform="translate(128.511719 0)"/>
      <use xlink:href="#DejaVuSans-64" transform="translate(191.890625 0)"/>
      <use xlink:href="#DejaVuSans-6f" transform="translate(255.367188 0)"/>
      <use xlink:href="#DejaVuSans-6d" transform="translate(316.548828 0)"/>
      <use xlink:href="#DejaVuSans-20" transform="translate(413.960938 0)"/>
      <use xlink:href="#DejaVuSans-76" transform="translate(445.748047 0)"/>
      <use xlink:href="#DejaVuSans-61" transform="translate(504.927734 0)"/>
      <use xlink:href="#DejaVuSans-72" transform="translate(566.207031 0)"/>
      <use xlink:href="#DejaVuSans-69" transform="translate(607.320312 0)"/>
      <use xlink:href="#DejaVuSans-61" transform="translate(635.103516 0)"/>
      <use xlink:href="#DejaVuSans-62" transform="translate(696.382812 0)"/>
      <use xlink:href="#DejaVuSans-6c" transform="translate(759.859375 0)"/>
      <use xlink:href="#DejaVuSans-65" transform="translate(787.642578 0)"/>
     </g>
    </g>
   </g>
   <g id="matplotlib.axis_2">
    <g id="ytick_1">
     <g id="line2d_15">
      <path d="M 43.78125 250.44375 
L 568.8 250.44375 
" clip-path="url(#pbc8b6c7709)" style="fill: none; stroke-dasharray: 2.96,1.28; stroke-dashoffset: 0; stroke: #b0b0b0; stroke-opacity: 0.8; stroke-width: 0.8"/>
     </g>
     <g id="line2d_16">
      <defs>
       <path id="m2bb00ac9dd" d="M 0 0 
L -3.5 0 
" style="stroke: #000000; stroke-width: 0.8"/>
      </defs>
      <g>
       <use xlink:href="#m2bb00ac9dd" x="43.78125" y="250.44375" style="stroke: #000000; stroke-width: 0.8"/>
      </g>
     </g>
     <g id="text_9">
      <!-- 0.0 -->
      <g transform="translate(20.878125 254.242969) scale(0.1 -0.1)">
       <defs>
        <path id="DejaVuSans-2e" d="M 684 794 
L 1344 794 
L 1344 0 
L 684 0 
L 684 794 
z
" transform="scale(0.015625)"/>
       </defs>
       <use xlink:href="#DejaVuSans-30"/>
       <use xlink:href="#DejaVuSans-2e" transform="translate(63.623047 0)"/>
       <use xlink:href="#DejaVuSans-30" transform="translate(95.410156 0)"/>
      </g>
     </g>
    </g>
    <g id="ytick_2">
     <g id="line2d_17">
      <path d="M 43.78125 204.053133 
L 568.8 204.053133 
" clip-path="url(#pbc8b6c7709)" style="fill: none; stroke-dasharray: 2.96,1.28; stroke-dashoffset: 0; stroke: #b0b0b0; stroke-opacity: 0.8; stroke-width: 0.8"/>
     </g>
     <g id="line2d_18">
      <g>
       <use xlink:href="#m2bb00ac9dd" x="43.78125" y="204.053133" style="stroke: #000000; stroke-width: 0.8"/>
      </g>
     </g>
     <g id="text_10">
      <!-- 0.5 -->
      <g transform="translate(20.878125 207.852352) scale(0.1 -0.1)">
       <use xlink:href="#DejaVuSans-30"/>
       <use xlink:href="#DejaVuSans-2e" transform="translate(63.623047 0)"/>
       <use xlink:href="#DejaVuSans-35" transform="translate(95.410156 0)"/>
      </g>
     </g>
    </g>
    <g id="ytick_3">
     <g id="line2d_19">
      <path d="M 43.78125 157.662516 
L 568.8 157.662516 
" clip-path="url(#pbc8b6c7709)" style="fill: none; stroke-dasharray: 2.96,1.28; stroke-dashoffset: 0; stroke: #b0b0b0; stroke-opacity: 0.8; stroke-width: 0.8"/>
     </g>
     <g id="line2d_20">
      <g>
       <use xlink:href="#m2bb00ac9dd" x="43.78125" y="157.662516" style="stroke: #000000; stroke-width: 0.8"/>
      </g>
     </g>
     <g id="text_11">
      <!-- 1.0 -->
      <g transform="translate(20.878125 161.461734) scale(0.1 -0.1)">
       <use xlink:href="#DejaVuSans-31"/>
       <use xlink:href="#DejaVuSans-2e" transform="translate(63.623047 0)"/>
       <use xlink:href="#DejaVuSans-30" transform="translate(95.410156 0)"/>
      </g>
     </g>
    </g>
    <g id="ytick_4">
     <g id="line2d_21">
      <path d="M 43.78125 111.271898 
L 568.8 111.271898 
" clip-path="url(#pbc8b6c7709)" style="fill: none; stroke-dasharray: 2.96,1.28; stroke-dashoffset: 0; stroke: #b0b0b0; stroke-opacity: 0.8; stroke-width: 0.8"/>
     </g>
     <g id="line2d_22">
      <g>
       <use xlink:href="#m2bb00ac9dd" x="43.78125" y="111.271898" style="stroke: #000000; stroke-width: 0.8"/>
      </g>
     </g>
     <g id="text_12">
      <!-- 1.5 -->
      <g transform="translate(20.878125 115.071117) scale(0.1 -0.1)">
       <use xlink:href="#DejaVuSans-31"/>
       <use xlink:href="#DejaVuSans-2e" transform="translate(63.623047 0)"/>
       <use xlink:href="#DejaVuSans-35" transform="translate(95.410156 0)"/>
      </g>
     </g>
    </g>
    <g id="ytick_5">
     <g id="line2d_23">
      <path d="M 43.78125 64.881281 
L 568.8 64.881281 
" clip-path="url(#pbc8b6c7709)" style="fill: none; stroke-dasharray: 2.96,1.28; stroke-dashoffset: 0; stroke: #b0b0b0; stroke-opacity: 0.8; stroke-width: 0.8"/>
     </g>
     <g id="line2d_24">
      <g>
       <use xlink:href="#m2bb00ac9dd" x="43.78125" y="64.881281" style="stroke: #000000; stroke-width: 0.8"/>
      </g>
     </g>
     <g id="text_13">
      <!-- 2.0 -->
      <g transform="translate(20.878125 68.6805) scale(0.1 -0.1)">
       <use xlink:href="#DejaVuSans-32"/>
       <use xlink:href="#DejaVuSans-2e" transform="translate(63.623047 0)"/>
       <use xlink:href="#DejaVuSans-30" transform="translate(95.410156 0)"/>
      </g>
     </g>
    </g>
    <g id="text_14">
     <!-- Probability density -->
     <g transform="translate(14.798438 182.731719) rotate(-90) scale(0.1 -0.1)">
      <defs>
       <path id="DejaVuSans-50" d="M 1259 4147 
L 1259 2394 
L 2053 2394 
Q 2494 2394 2734 2622 
Q 2975 2850 2975 3272 
Q 2975 3691 2734 3919 
Q 2494 4147 2053 4147 
L 1259 4147 
z
M 628 4666 
L 2053 4666 
Q 2838 4666 3239 4311 
Q 3641 3956 3641 3272 
Q 3641 2581 3239 2228 
Q 2838 1875 2053 1875 
L 1259 1875 
L 1259 0 
L 628 0 
L 628 4666 
z
" transform="scale(0.015625)"/>
       <path id="DejaVuSans-74" d="M 1172 4494 
L 1172 3500 
L 2356 3500 
L 2356 3053 
L 1172 3053 
L 1172 1153 
Q 1172 725 1289 603 
Q 1406 481 1766 481 
L 2356 481 
L 2356 0 
L 1766 0 
Q 1100 0 847 248 
Q 594 497 594 1153 
L 594 3053 
L 172 3053 
L 172 3500 
L 594 3500 
L 594 4494 
L 1172 4494 
z
" transform="scale(0.015625)"/>
       <path id="DejaVuSans-79" d="M 2059 -325 
Q 1816 -950 1584 -1140 
Q 1353 -1331 966 -1331 
L 506 -1331 
L 506 -850 
L 844 -850 
Q 1081 -850 1212 -737 
Q 1344 -625 1503 -206 
L 1606 56 
L 191 3500 
L 800 3500 
L 1894 763 
L 2988 3500 
L 3597 3500 
L 2059 -325 
z
" transform="scale(0.015625)"/>
       <path id="DejaVuSans-73" d="M 2834 3397 
L 2834 2853 
Q 2591 2978 2328 3040 
Q 2066 3103 1784 3103 
Q 1356 3103 1142 2972 
Q 928 2841 928 2578 
Q 928 2378 1081 2264 
Q 1234 2150 1697 2047 
L 1894 2003 
Q 2506 1872 2764 1633 
Q 3022 1394 3022 966 
Q 3022 478 2636 193 
Q 2250 -91 1575 -91 
Q 1294 -91 989 -36 
Q 684 19 347 128 
L 347 722 
Q 666 556 975 473 
Q 1284 391 1588 391 
Q 1994 391 2212 530 
Q 2431 669 2431 922 
Q 2431 1156 2273 1281 
Q 2116 1406 1581 1522 
L 1381 1569 
Q 847 1681 609 1914 
Q 372 2147 372 2553 
Q 372 3047 722 3315 
Q 1072 3584 1716 3584 
Q 2034 3584 2315 3537 
Q 2597 3491 2834 3397 
z
" transform="scale(0.015625)"/>
      </defs>
      <use xlink:href="#DejaVuSans-50"/>
      <use xlink:href="#DejaVuSans-72" transform="translate(58.552734 0)"/>
      <use xlink:href="#DejaVuSans-6f" transform="translate(97.416016 0)"/>
      <use xlink:href="#DejaVuSans-62" transform="translate(158.597656 0)"/>
      <use xlink:href="#DejaVuSans-61" transform="translate(222.074219 0)"/>
      <use xlink:href="#DejaVuSans-62" transform="translate(283.353516 0)"/>
      <use xlink:href="#DejaVuSans-69" transform="translate(346.830078 0)"/>
      <use xlink:href="#DejaVuSans-6c" transform="translate(374.613281 0)"/>
      <use xlink:href="#DejaVuSans-69" transform="translate(402.396484 0)"/>
      <use xlink:href="#DejaVuSans-74" transform="translate(430.179688 0)"/>
      <use xlink:href="#DejaVuSans-79" transform="translate(469.388672 0)"/>
      <use xlink:href="#DejaVuSans-20" transform="translate(528.568359 0)"/>
      <use xlink:href="#DejaVuSans-64" transform="translate(560.355469 0)"/>
      <use xlink:href="#DejaVuSans-65" transform="translate(623.832031 0)"/>
      <use xlink:href="#DejaVuSans-6e" transform="translate(685.355469 0)"/>
      <use xlink:href="#DejaVuSans-73" transform="translate(748.734375 0)"/>
      <use xlink:href="#DejaVuSans-69" transform="translate(800.833984 0)"/>
      <use xlink:href="#DejaVuSans-74" transform="translate(828.617188 0)"/>
      <use xlink:href="#DejaVuSans-79" transform="translate(867.826172 0)"/>
     </g>
    </g>
   </g>
   <g id="line2d_25">
    <path d="M 67.645739 250.44375 
L 88.169199 247.098121 
L 99.624153 245.004467 
L 109.647239 242.953107 
L 119.193034 240.773729 
L 128.73883 238.361062 
L 138.761915 235.585435 
L 149.73958 232.30206 
L 164.535563 227.620081 
L 184.104443 221.453703 
L 193.650239 218.68854 
L 201.764165 216.570884 
L 208.923511 214.93222 
L 215.605568 213.632622 
L 221.810335 212.648717 
L 228.015102 211.897576 
L 233.74258 211.422436 
L 239.470057 211.164029 
L 245.197534 211.125763 
L 250.925011 211.307401 
L 256.652489 211.705087 
L 262.857256 212.371115 
L 269.062023 213.26835 
L 275.74408 214.472756 
L 282.903426 216.007524 
L 290.540063 217.88173 
L 299.131278 220.221897 
L 310.108943 223.454991 
L 345.905676 234.191609 
L 355.928761 236.865152 
L 364.997267 239.065232 
L 374.065773 241.035955 
L 383.134278 242.768873 
L 392.202784 244.26578 
L 401.27129 245.536711 
L 410.817085 246.648233 
L 420.84017 247.591114 
L 431.817835 248.395833 
L 443.75008 249.046504 
L 457.591483 249.572446 
L 474.296625 249.970839 
L 495.774665 250.241952 
L 527.27579 250.393137 
L 544.935511 250.422008 
L 544.935511 250.422008 
" clip-path="url(#pbc8b6c7709)" style="fill: none; stroke: #1f77b4; stroke-linecap: square"/>
   </g>
   <g id="line2d_26">
    <path d="M 67.645739 250.443702 
L 68.123028 238.160719 
L 68.600318 238.160719 
L 69.077608 225.921463 
L 69.554898 225.921463 
L 70.509477 201.747666 
L 70.986767 201.747666 
L 71.941347 178.263422 
L 72.418636 178.263422 
L 72.895926 166.882711 
L 73.373216 166.882711 
L 74.327795 145.03885 
L 74.805085 145.03885 
L 75.282375 134.64888 
L 75.759665 134.64888 
L 76.714244 115.101795 
L 77.191534 115.101795 
L 77.668824 106.005935 
L 78.146114 106.005935 
L 79.100693 89.305133 
L 79.577983 89.305133 
L 80.532563 74.743278 
L 81.009852 74.743278 
L 81.487142 68.310955 
L 81.964432 68.310955 
L 82.919011 57.211821 
L 83.396301 57.211821 
L 83.873591 52.56364 
L 84.350881 52.56364 
L 85.30546 45.09471 
L 85.78275 45.09471 
L 86.73733 40.061397 
L 87.214619 40.061397 
L 87.691909 38.447108 
L 88.169199 38.447108 
L 88.646489 37.423058 
L 89.123778 36.977471 
L 89.601068 36.977471 
L 90.078358 37.096095 
L 90.555648 37.096095 
L 91.032938 37.762319 
L 91.510227 38.957326 
L 91.987517 38.957326 
L 92.464807 40.660239 
L 92.942097 40.660239 
L 93.896676 45.497001 
L 94.373966 45.497001 
L 95.328545 52.071002 
L 95.805835 52.071002 
L 96.283125 55.940447 
L 96.760415 55.940447 
L 97.714994 64.697253 
L 98.192284 64.697253 
L 98.669574 69.523733 
L 99.146864 69.523733 
L 100.101443 79.917861 
L 100.578733 79.917861 
L 101.533313 91.09295 
L 102.010602 91.09295 
L 102.487892 96.896592 
L 102.965182 96.896592 
L 103.919761 108.787306 
L 104.397051 108.787306 
L 104.874341 114.817307 
L 105.351631 114.817307 
L 106.30621 126.911782 
L 106.7835 126.911782 
L 107.26079 132.926019 
L 107.73808 132.926019 
L 108.692659 144.773418 
L 109.169949 144.773418 
L 110.124528 156.243874 
L 110.601818 156.243874 
L 111.079108 161.79306 
L 111.556398 161.79306 
L 112.510977 172.444758 
L 112.988267 172.444758 
L 113.465557 177.522566 
L 113.942847 177.522566 
L 114.897426 187.13304 
L 115.374716 187.13304 
L 116.329295 195.970385 
L 116.806585 195.970385 
L 117.283875 200.087633 
L 117.761165 200.087633 
L 118.715744 207.708989 
L 119.193034 207.708989 
L 119.670324 211.212954 
L 120.147614 211.212954 
L 121.102193 217.61596 
L 121.579483 217.61596 
L 122.534063 223.235682 
L 123.011352 223.235682 
L 123.488642 225.763779 
L 123.965932 225.763779 
L 124.920511 230.286492 
L 125.397801 230.286492 
L 125.875091 232.294747 
L 126.352381 232.294747 
L 127.30696 235.842045 
L 127.78425 235.842045 
L 128.26154 237.396664 
L 128.73883 237.396664 
L 129.693409 240.107747 
L 130.170699 240.107747 
L 131.125278 242.341313 
L 131.602568 242.341313 
L 132.079858 243.298704 
L 132.557148 243.298704 
L 133.511727 244.932549 
L 133.989017 244.932549 
L 134.466307 245.623424 
L 134.943597 245.623424 
L 135.898176 246.786954 
L 136.375466 246.786954 
L 137.330045 247.700896 
L 137.807335 247.700896 
L 138.284625 248.078487 
L 138.761915 248.078487 
L 139.716494 248.70023 
L 140.193784 248.70023 
L 140.671074 248.953447 
L 141.148364 248.953447 
L 142.102943 249.364657 
L 142.580233 249.364657 
L 143.057523 249.529697 
L 143.534813 249.529697 
L 144.489392 249.793951 
L 145.443972 249.898432 
L 146.875841 250.06333 
L 147.83042 250.127535 
L 149.26229 250.227387 
L 151.648739 250.324295 
L 155.467057 250.402287 
L 544.935511 250.44375 
L 544.935511 250.44375 
" clip-path="url(#pbc8b6c7709)" style="fill: none; stroke: #ff7f0e; stroke-linecap: square"/>
   </g>
   <g id="patch_3">
    <path d="M 67.82865 250.44375 
L 67.82865 240.594711 
L 68.840302 240.594711 
L 68.840302 222.72053 
L 69.851953 222.72053 
L 69.851953 206.597288 
L 70.863605 206.597288 
L 70.863605 189.452665 
L 71.875256 189.452665 
L 71.875256 179.311803 
L 72.886908 179.311803 
L 72.886908 160.635107 
L 73.898559 160.635107 
L 73.898559 151.223804 
L 74.910211 151.223804 
L 74.910211 133.422578 
L 75.921862 133.422578 
L 75.921862 121.384864 
L 76.933514 121.384864 
L 76.933514 113.870412 
L 77.945165 113.870412 
L 77.945165 95.48554 
L 78.956817 95.48554 
L 78.956817 83.156002 
L 79.968468 83.156002 
L 79.968468 77.538402 
L 80.98012 77.538402 
L 80.98012 73.088096 
L 81.991772 73.088096 
L 81.991772 63.312013 
L 83.003423 63.312013 
L 83.003423 58.861707 
L 84.015075 58.861707 
L 84.015075 46.240346 
L 86.038378 46.16739 
L 86.038378 43.322112 
L 87.050029 43.322112 
L 87.050029 37.485645 
L 89.073332 37.485645 
L 89.073332 43.686891 
L 90.084984 43.686891 
L 90.084984 39.090673 
L 91.096635 39.090673 
L 91.096635 40.112055 
L 92.108287 40.112055 
L 92.108287 33.18125 
L 93.119938 33.18125 
L 93.119938 49.304491 
L 94.13159 49.304491 
L 94.13159 51.347255 
L 95.143242 51.347255 
L 95.143242 50.90952 
L 96.154893 50.90952 
L 96.154893 59.518309 
L 97.166545 59.518309 
L 97.166545 63.530881 
L 98.178196 63.530881 
L 98.178196 71.483067 
L 99.189848 71.483067 
L 99.189848 74.474257 
L 100.201499 74.474257 
L 100.201499 83.156002 
L 101.213151 83.156002 
L 101.213151 89.576117 
L 102.224802 89.576117 
L 102.224802 96.652833 
L 103.236454 96.652833 
L 103.236454 101.394963 
L 104.248105 101.394963 
L 104.248105 109.711929 
L 105.259757 109.711929 
L 105.259757 118.174807 
L 106.271408 118.174807 
L 106.271408 125.762215 
L 107.28306 125.762215 
L 107.28306 140.353383 
L 108.294711 140.353383 
L 108.294711 142.979793 
L 109.306363 142.979793 
L 109.306363 152.901788 
L 110.318015 152.901788 
L 110.318015 163.261518 
L 111.329666 163.261518 
L 111.329666 165.523149 
L 112.341318 165.523149 
L 112.341318 170.77597 
L 113.352969 170.77597 
L 113.352969 180.843876 
L 114.364621 180.843876 
L 114.364621 183.178463 
L 115.376272 183.178463 
L 115.376272 190.328135 
L 116.387924 190.328135 
L 116.387924 194.705486 
L 117.399575 194.705486 
L 117.399575 204.189746 
L 118.411227 204.189746 
L 118.411227 206.524333 
L 119.422878 206.524333 
L 119.422878 213.017403 
L 120.43453 213.017403 
L 120.43453 216.665195 
L 121.446181 216.665195 
L 121.446181 219.291605 
L 122.457833 219.291605 
L 122.457833 220.969589 
L 123.469485 220.969589 
L 123.469485 227.243792 
L 124.481136 227.243792 
L 124.481136 228.484041 
L 125.492788 228.484041 
L 125.492788 232.350701 
L 126.504439 232.350701 
L 126.504439 233.080259 
L 127.516091 233.080259 
L 127.516091 237.238742 
L 128.527742 237.238742 
L 128.527742 239.062639 
L 129.539394 239.062639 
L 129.539394 239.427418 
L 130.551045 239.427418 
L 130.551045 242.272696 
L 131.562697 242.272696 
L 131.562697 242.418607 
L 132.574348 242.418607 
L 132.574348 244.023636 
L 133.586 244.023636 
L 133.586 245.555709 
L 134.597651 245.555709 
L 134.597651 246.285267 
L 135.609303 246.285267 
L 135.609303 246.504134 
L 136.620954 246.504134 
L 136.620954 247.087781 
L 137.632606 247.087781 
L 137.632606 248.328031 
L 138.644258 248.328031 
L 138.644258 247.598472 
L 139.655909 247.598472 
L 139.655909 248.69281 
L 140.667561 248.69281 
L 140.667561 248.473942 
L 141.679212 248.473942 
L 141.679212 249.422368 
L 143.702515 249.495324 
L 143.702515 249.787147 
L 145.725818 249.860103 
L 145.725818 250.006015 
L 146.73747 250.006015 
L 146.73747 250.151927 
L 150.784076 250.224882 
L 150.784076 250.370794 
L 151.795727 250.370794 
L 151.795727 250.224882 
L 152.807379 250.224882 
L 152.807379 250.44375 
L 170.005455 250.370794 
L 170.005455 250.44375 
" clip-path="url(#pbc8b6c7709)" style="fill: none; stroke: #2ca02c; stroke-linejoin: miter"/>
   </g>
   <g id="patch_4">
    <path d="M 43.78125 250.44375 
L 43.78125 22.318125 
" style="fill: none; stroke: #000000; stroke-width: 0.8; stroke-linejoin: miter; stroke-linecap: square"/>
   </g>
   <g id="patch_5">
    <path d="M 568.8 250.44375 
L 568.8 22.318125 
" style="fill: none; stroke: #000000; stroke-width: 0.8; stroke-linejoin: miter; stroke-linecap: square"/>
   </g>
   <g id="patch_6">
    <path d="M 43.78125 250.44375 
L 568.8 250.44375 
" style="fill: none; stroke: #000000; stroke-width: 0.8; stroke-linejoin: miter; stroke-linecap: square"/>
   </g>
   <g id="patch_7">
    <path d="M 43.78125 22.318125 
L 568.8 22.318125 
" style="fill: none; stroke: #000000; stroke-width: 0.8; stroke-linejoin: miter; stroke-linecap: square"/>
   </g>
   <g id="text_15">
    <!-- Minimum of 100 Rician random variables -->
    <g transform="translate(182.832188 16.318125) scale(0.12 -0.12)">
     <defs>
      <path id="DejaVuSans-4d" d="M 628 4666 
L 1569 4666 
L 2759 1491 
L 3956 4666 
L 4897 4666 
L 4897 0 
L 4281 0 
L 4281 4097 
L 3078 897 
L 2444 897 
L 1241 4097 
L 1241 0 
L 628 0 
L 628 4666 
z
" transform="scale(0.015625)"/>
      <path id="DejaVuSans-75" d="M 544 1381 
L 544 3500 
L 1119 3500 
L 1119 1403 
Q 1119 906 1312 657 
Q 1506 409 1894 409 
Q 2359 409 2629 706 
Q 2900 1003 2900 1516 
L 2900 3500 
L 3475 3500 
L 3475 0 
L 2900 0 
L 2900 538 
Q 2691 219 2414 64 
Q 2138 -91 1772 -91 
Q 1169 -91 856 284 
Q 544 659 544 1381 
z
M 1991 3584 
L 1991 3584 
z
" transform="scale(0.015625)"/>
      <path id="DejaVuSans-66" d="M 2375 4863 
L 2375 4384 
L 1825 4384 
Q 1516 4384 1395 4259 
Q 1275 4134 1275 3809 
L 1275 3500 
L 2222 3500 
L 2222 3053 
L 1275 3053 
L 1275 0 
L 697 0 
L 697 3053 
L 147 3053 
L 147 3500 
L 697 3500 
L 697 3744 
Q 697 4328 969 4595 
Q 1241 4863 1831 4863 
L 2375 4863 
z
" transform="scale(0.015625)"/>
      <path id="DejaVuSans-63" d="M 3122 3366 
L 3122 2828 
Q 2878 2963 2633 3030 
Q 2388 3097 2138 3097 
Q 1578 3097 1268 2742 
Q 959 2388 959 1747 
Q 959 1106 1268 751 
Q 1578 397 2138 397 
Q 2388 397 2633 464 
Q 2878 531 3122 666 
L 3122 134 
Q 2881 22 2623 -34 
Q 2366 -91 2075 -91 
Q 1284 -91 818 406 
Q 353 903 353 1747 
Q 353 2603 823 3093 
Q 1294 3584 2113 3584 
Q 2378 3584 2631 3529 
Q 2884 3475 3122 3366 
z
" transform="scale(0.015625)"/>
     </defs>
     <use xlink:href="#DejaVuSans-4d"/>
     <use xlink:href="#DejaVuSans-69" transform="translate(86.279297 0)"/>
     <use xlink:href="#DejaVuSans-6e" transform="translate(114.0625 0)"/>
     <use xlink:href="#DejaVuSans-69" transform="translate(177.441406 0)"/>
     <use xlink:href="#DejaVuSans-6d" transform="translate(205.224609 0)"/>
     <use xlink:href="#DejaVuSans-75" transform="translate(302.636719 0)"/>
     <use xlink:href="#DejaVuSans-6d" transform="translate(366.015625 0)"/>
     <use xlink:href="#DejaVuSans-20" transform="translate(463.427734 0)"/>
     <use xlink:href="#DejaVuSans-6f" transform="translate(495.214844 0)"/>
     <use xlink:href="#DejaVuSans-66" transform="translate(556.396484 0)"/>
     <use xlink:href="#DejaVuSans-20" transform="translate(591.601562 0)"/>
     <use xlink:href="#DejaVuSans-31" transform="translate(623.388672 0)"/>
     <use xlink:href="#DejaVuSans-30" transform="translate(687.011719 0)"/>
     <use xlink:href="#DejaVuSans-30" transform="translate(750.634766 0)"/>
     <use xlink:href="#DejaVuSans-20" transform="translate(814.257812 0)"/>
     <use xlink:href="#DejaVuSans-52" transform="translate(846.044922 0)"/>
     <use xlink:href="#DejaVuSans-69" transform="translate(915.527344 0)"/>
     <use xlink:href="#DejaVuSans-63" transform="translate(943.310547 0)"/>
     <use xlink:href="#DejaVuSans-69" transform="translate(998.291016 0)"/>
     <use xlink:href="#DejaVuSans-61" transform="translate(1026.074219 0)"/>
     <use xlink:href="#DejaVuSans-6e" transform="translate(1087.353516 0)"/>
     <use xlink:href="#DejaVuSans-20" transform="translate(1150.732422 0)"/>
     <use xlink:href="#DejaVuSans-72" transform="translate(1182.519531 0)"/>
     <use xlink:href="#DejaVuSans-61" transform="translate(1223.632812 0)"/>
     <use xlink:href="#DejaVuSans-6e" transform="translate(1284.912109 0)"/>
     <use xlink:href="#DejaVuSans-64" transform="translate(1348.291016 0)"/>
     <use xlink:href="#DejaVuSans-6f" transform="translate(1411.767578 0)"/>
     <use xlink:href="#DejaVuSans-6d" transform="translate(1472.949219 0)"/>
     <use xlink:href="#DejaVuSans-20" transform="translate(1570.361328 0)"/>
     <use xlink:href="#DejaVuSans-76" transform="translate(1602.148438 0)"/>
     <use xlink:href="#DejaVuSans-61" transform="translate(1661.328125 0)"/>
     <use xlink:href="#DejaVuSans-72" transform="translate(1722.607422 0)"/>
     <use xlink:href="#DejaVuSans-69" transform="translate(1763.720703 0)"/>
     <use xlink:href="#DejaVuSans-61" transform="translate(1791.503906 0)"/>
     <use xlink:href="#DejaVuSans-62" transform="translate(1852.783203 0)"/>
     <use xlink:href="#DejaVuSans-6c" transform="translate(1916.259766 0)"/>
     <use xlink:href="#DejaVuSans-65" transform="translate(1944.042969 0)"/>
     <use xlink:href="#DejaVuSans-73" transform="translate(2005.566406 0)"/>
    </g>
   </g>
   <g id="legend_1">
    <g id="patch_8">
     <path d="M 397.4 74.374375 
L 561.8 74.374375 
Q 563.8 74.374375 563.8 72.374375 
L 563.8 29.318125 
Q 563.8 27.318125 561.8 27.318125 
L 397.4 27.318125 
Q 395.4 27.318125 395.4 29.318125 
L 395.4 72.374375 
Q 395.4 74.374375 397.4 74.374375 
z
" style="fill: #ffffff; opacity: 0.8; stroke: #cccccc; stroke-linejoin: miter"/>
    </g>
    <g id="line2d_27">
     <path d="M 399.4 35.416562 
L 409.4 35.416562 
L 419.4 35.416562 
" style="fill: none; stroke: #1f77b4; stroke-linecap: square"/>
    </g>
    <g id="text_16">
     <!-- $X$ -->
     <g transform="translate(427.4 38.916562) scale(0.1 -0.1)">
      <defs>
       <path id="DejaVuSans-Oblique-58" d="M 878 4666 
L 1516 4666 
L 2316 2981 
L 3763 4666 
L 4500 4666 
L 2578 2438 
L 3738 0 
L 3103 0 
L 2163 1966 
L 459 0 
L -275 0 
L 1906 2509 
L 878 4666 
z
" transform="scale(0.015625)"/>
      </defs>
      <use xlink:href="#DejaVuSans-Oblique-58" transform="translate(0 0.09375)"/>
     </g>
    </g>
    <g id="line2d_28">
     <path d="M 399.4 50.094687 
L 409.4 50.094687 
L 419.4 50.094687 
" style="fill: none; stroke: #ff7f0e; stroke-linecap: square"/>
    </g>
    <g id="text_17">
     <!-- $\min(X_1, \dots, X_{100})$ -->
     <g transform="translate(427.4 53.594687) scale(0.1 -0.1)">
      <defs>
       <path id="DejaVuSans-28" d="M 1984 4856 
Q 1566 4138 1362 3434 
Q 1159 2731 1159 2009 
Q 1159 1288 1364 580 
Q 1569 -128 1984 -844 
L 1484 -844 
Q 1016 -109 783 600 
Q 550 1309 550 2009 
Q 550 2706 781 3412 
Q 1013 4119 1484 4856 
L 1984 4856 
z
" transform="scale(0.015625)"/>
       <path id="DejaVuSans-2c" d="M 750 794 
L 1409 794 
L 1409 256 
L 897 -744 
L 494 -744 
L 750 256 
L 750 794 
z
" transform="scale(0.015625)"/>
       <path id="DejaVuSans-2026" d="M 2869 794 
L 3531 794 
L 3531 0 
L 2869 0 
L 2869 794 
z
M 4997 794 
L 5663 794 
L 5663 0 
L 4997 0 
L 4997 794 
z
M 738 794 
L 1403 794 
L 1403 0 
L 738 0 
L 738 794 
z
" transform="scale(0.015625)"/>
       <path id="DejaVuSans-29" d="M 513 4856 
L 1013 4856 
Q 1481 4119 1714 3412 
Q 1947 2706 1947 2009 
Q 1947 1309 1714 600 
Q 1481 -109 1013 -844 
L 513 -844 
Q 928 -128 1133 580 
Q 1338 1288 1338 2009 
Q 1338 2731 1133 3434 
Q 928 4138 513 4856 
z
" transform="scale(0.015625)"/>
      </defs>
      <use xlink:href="#DejaVuSans-6d" transform="translate(0 0.015625)"/>
      <use xlink:href="#DejaVuSans-69" transform="translate(97.412109 0.015625)"/>
      <use xlink:href="#DejaVuSans-6e" transform="translate(125.195312 0.015625)"/>
      <use xlink:href="#DejaVuSans-28" transform="translate(188.574219 0.015625)"/>
      <use xlink:href="#DejaVuSans-Oblique-58" transform="translate(227.587891 0.015625)"/>
      <use xlink:href="#DejaVuSans-31" transform="translate(296.09375 -16.390625) scale(0.7)"/>
      <use xlink:href="#DejaVuSans-2c" transform="translate(343.364258 0.015625)"/>
      <use xlink:href="#DejaVuSans-2026" transform="translate(414.116211 0.015625)"/>
      <use xlink:href="#DejaVuSans-2c" transform="translate(533.598633 0.015625)"/>
      <use xlink:href="#DejaVuSans-Oblique-58" transform="translate(584.868164 0.015625)"/>
      <use xlink:href="#DejaVuSans-31" transform="translate(653.374023 -16.390625) scale(0.7)"/>
      <use xlink:href="#DejaVuSans-30" transform="translate(697.910156 -16.390625) scale(0.7)"/>
      <use xlink:href="#DejaVuSans-30" transform="translate(742.446289 -16.390625) scale(0.7)"/>
      <use xlink:href="#DejaVuSans-29" transform="translate(789.716797 0.015625)"/>
     </g>
    </g>
    <g id="patch_9">
     <path d="M 399.4 68.274375 
L 419.4 68.274375 
L 419.4 61.274375 
L 399.4 61.274375 
L 399.4 68.274375 
z
" style="fill: none; stroke: #2ca02c; stroke-linejoin: miter"/>
    </g>
    <g id="text_18">
     <!-- $\min(X_1, \dots, X_{100})$ empirical -->
     <g transform="translate(427.4 68.274375) scale(0.1 -0.1)">
      <defs>
       <path id="DejaVuSans-70" d="M 1159 525 
L 1159 -1331 
L 581 -1331 
L 581 3500 
L 1159 3500 
L 1159 2969 
Q 1341 3281 1617 3432 
Q 1894 3584 2278 3584 
Q 2916 3584 3314 3078 
Q 3713 2572 3713 1747 
Q 3713 922 3314 415 
Q 2916 -91 2278 -91 
Q 1894 -91 1617 61 
Q 1341 213 1159 525 
z
M 3116 1747 
Q 3116 2381 2855 2742 
Q 2594 3103 2138 3103 
Q 1681 3103 1420 2742 
Q 1159 2381 1159 1747 
Q 1159 1113 1420 752 
Q 1681 391 2138 391 
Q 2594 391 2855 752 
Q 3116 1113 3116 1747 
z
" transform="scale(0.015625)"/>
      </defs>
      <use xlink:href="#DejaVuSans-6d" transform="translate(0 0.015625)"/>
      <use xlink:href="#DejaVuSans-69" transform="translate(97.412109 0.015625)"/>
      <use xlink:href="#DejaVuSans-6e" transform="translate(125.195312 0.015625)"/>
      <use xlink:href="#DejaVuSans-28" transform="translate(188.574219 0.015625)"/>
      <use xlink:href="#DejaVuSans-Oblique-58" transform="translate(227.587891 0.015625)"/>
      <use xlink:href="#DejaVuSans-31" transform="translate(296.09375 -16.390625) scale(0.7)"/>
      <use xlink:href="#DejaVuSans-2c" transform="translate(343.364258 0.015625)"/>
      <use xlink:href="#DejaVuSans-2026" transform="translate(414.116211 0.015625)"/>
      <use xlink:href="#DejaVuSans-2c" transform="translate(533.598633 0.015625)"/>
      <use xlink:href="#DejaVuSans-Oblique-58" transform="translate(584.868164 0.015625)"/>
      <use xlink:href="#DejaVuSans-31" transform="translate(653.374023 -16.390625) scale(0.7)"/>
      <use xlink:href="#DejaVuSans-30" transform="translate(697.910156 -16.390625) scale(0.7)"/>
      <use xlink:href="#DejaVuSans-30" transform="translate(742.446289 -16.390625) scale(0.7)"/>
      <use xlink:href="#DejaVuSans-29" transform="translate(789.716797 0.015625)"/>
      <use xlink:href="#DejaVuSans-20" transform="translate(828.730469 0.015625)"/>
      <use xlink:href="#DejaVuSans-65" transform="translate(860.517578 0.015625)"/>
      <use xlink:href="#DejaVuSans-6d" transform="translate(922.041016 0.015625)"/>
      <use xlink:href="#DejaVuSans-70" transform="translate(1019.453125 0.015625)"/>
      <use xlink:href="#DejaVuSans-69" transform="translate(1082.929688 0.015625)"/>
      <use xlink:href="#DejaVuSans-72" transform="translate(1110.712891 0.015625)"/>
      <use xlink:href="#DejaVuSans-69" transform="translate(1151.826172 0.015625)"/>
      <use xlink:href="#DejaVuSans-63" transform="translate(1179.609375 0.015625)"/>
      <use xlink:href="#DejaVuSans-61" transform="translate(1234.589844 0.015625)"/>
      <use xlink:href="#DejaVuSans-6c" transform="translate(1295.869141 0.015625)"/>
     </g>
    </g>
   </g>
  </g>
 </g>
 <defs>
  <clipPath id="pbc8b6c7709">
   <rect x="43.78125" y="22.318125" width="525.01875" height="228.125625"/>
  </clipPath>
 </defs>
</svg>
