<?xml version="1.0" encoding="utf-8" standalone="no"?>
<!DOCTYPE svg PUBLIC "-//W3C//DTD SVG 1.1//EN"
  "http://www.w3.org/Graphics/SVG/1.1/DTD/svg11.dtd">
<svg xmlns:xlink="http://www.w3.org/1999/xlink" width="576pt" height="288pt" viewBox="0 0 576 288" xmlns="http://www.w3.org/2000/svg" version="1.1">
 <metadata>
  <rdf:RDF xmlns:dc="http://purl.org/dc/elements/1.1/" xmlns:cc="http://creativecommons.org/ns#" xmlns:rdf="http://www.w3.org/1999/02/22-rdf-syntax-ns#">
   <cc:Work>
    <dc:type rdf:resource="http://purl.org/dc/dcmitype/StillImage"/>
    <dc:date>2025-05-10T16:53:31.288673</dc:date>
    <dc:format>image/svg+xml</dc:format>
    <dc:creator>
     <cc:Agent>
      <dc:title>Matplotlib v3.10.3, https://matplotlib.org/</dc:title>
     </cc:Agent>
    </dc:creator>
   </cc:Work>
  </rdf:RDF>
 </metadata>
 <defs>
  <style type="text/css">*{stroke-linejoin: round; stroke-linecap: butt}</style>
 </defs>
 <g id="figure_1">
  <g id="patch_1">
   <path d="M 0 288 
L 576 288 
L 576 0 
L 0 0 
z
" style="fill: #ffffff"/>
  </g>
  <g id="axes_1">
   <g id="patch_2">
    <path d="M 50.14375 250.44375 
L 568.8 250.44375 
L 568.8 22.318125 
L 50.14375 22.318125 
z
" style="fill: #ffffff"/>
   </g>
   <g id="matplotlib.axis_1">
    <g id="xtick_1">
     <g id="line2d_1">
      <path d="M 73.719034 250.44375 
L 73.719034 22.318125 
" clip-path="url(#pcb780e8776)" style="fill: none; stroke-dasharray: 2.96,1.28; stroke-dashoffset: 0; stroke: #b0b0b0; stroke-opacity: 0.8; stroke-width: 0.8"/>
     </g>
     <g id="line2d_2">
      <defs>
       <path id="mbca11c8f34" d="M 0 0 
L 0 3.5 
" style="stroke: #000000; stroke-width: 0.8"/>
      </defs>
      <g>
       <use xlink:href="#mbca11c8f34" x="73.719034" y="250.44375" style="stroke: #000000; stroke-width: 0.8"/>
      </g>
     </g>
     <g id="text_1">
      <!-- 0.0 -->
      <g transform="translate(65.767472 265.042188) scale(0.1 -0.1)">
       <defs>
        <path id="DejaVuSans-30" d="M 2034 4250 
Q 1547 4250 1301 3770 
Q 1056 3291 1056 2328 
Q 1056 1369 1301 889 
Q 1547 409 2034 409 
Q 2525 409 2770 889 
Q 3016 1369 3016 2328 
Q 3016 3291 2770 3770 
Q 2525 4250 2034 4250 
z
M 2034 4750 
Q 2819 4750 3233 4129 
Q 3647 3509 3647 2328 
Q 3647 1150 3233 529 
Q 2819 -91 2034 -91 
Q 1250 -91 836 529 
Q 422 1150 422 2328 
Q 422 3509 836 4129 
Q 1250 4750 2034 4750 
z
" transform="scale(0.015625)"/>
        <path id="DejaVuSans-2e" d="M 684 794 
L 1344 794 
L 1344 0 
L 684 0 
L 684 794 
z
" transform="scale(0.015625)"/>
       </defs>
       <use xlink:href="#DejaVuSans-30"/>
       <use xlink:href="#DejaVuSans-2e" transform="translate(63.623047 0)"/>
       <use xlink:href="#DejaVuSans-30" transform="translate(95.410156 0)"/>
      </g>
     </g>
    </g>
    <g id="xtick_2">
     <g id="line2d_3">
      <path d="M 139.205934 250.44375 
L 139.205934 22.318125 
" clip-path="url(#pcb780e8776)" style="fill: none; stroke-dasharray: 2.96,1.28; stroke-dashoffset: 0; stroke: #b0b0b0; stroke-opacity: 0.8; stroke-width: 0.8"/>
     </g>
     <g id="line2d_4">
      <g>
       <use xlink:href="#mbca11c8f34" x="139.205934" y="250.44375" style="stroke: #000000; stroke-width: 0.8"/>
      </g>
     </g>
     <g id="text_2">
      <!-- 2.5 -->
      <g transform="translate(131.254372 265.042188) scale(0.1 -0.1)">
       <defs>
        <path id="DejaVuSans-32" d="M 1228 531 
L 3431 531 
L 3431 0 
L 469 0 
L 469 531 
Q 828 903 1448 1529 
Q 2069 2156 2228 2338 
Q 2531 2678 2651 2914 
Q 2772 3150 2772 3378 
Q 2772 3750 2511 3984 
Q 2250 4219 1831 4219 
Q 1534 4219 1204 4116 
Q 875 4013 500 3803 
L 500 4441 
Q 881 4594 1212 4672 
Q 1544 4750 1819 4750 
Q 2544 4750 2975 4387 
Q 3406 4025 3406 3419 
Q 3406 3131 3298 2873 
Q 3191 2616 2906 2266 
Q 2828 2175 2409 1742 
Q 1991 1309 1228 531 
z
" transform="scale(0.015625)"/>
        <path id="DejaVuSans-35" d="M 691 4666 
L 3169 4666 
L 3169 4134 
L 1269 4134 
L 1269 2991 
Q 1406 3038 1543 3061 
Q 1681 3084 1819 3084 
Q 2600 3084 3056 2656 
Q 3513 2228 3513 1497 
Q 3513 744 3044 326 
Q 2575 -91 1722 -91 
Q 1428 -91 1123 -41 
Q 819 9 494 109 
L 494 744 
Q 775 591 1075 516 
Q 1375 441 1709 441 
Q 2250 441 2565 725 
Q 2881 1009 2881 1497 
Q 2881 1984 2565 2268 
Q 2250 2553 1709 2553 
Q 1456 2553 1204 2497 
Q 953 2441 691 2322 
L 691 4666 
z
" transform="scale(0.015625)"/>
       </defs>
       <use xlink:href="#DejaVuSans-32"/>
       <use xlink:href="#DejaVuSans-2e" transform="translate(63.623047 0)"/>
       <use xlink:href="#DejaVuSans-35" transform="translate(95.410156 0)"/>
      </g>
     </g>
    </g>
    <g id="xtick_3">
     <g id="line2d_5">
      <path d="M 204.692835 250.44375 
L 204.692835 22.318125 
" clip-path="url(#pcb780e8776)" style="fill: none; stroke-dasharray: 2.96,1.28; stroke-dashoffset: 0; stroke: #b0b0b0; stroke-opacity: 0.8; stroke-width: 0.8"/>
     </g>
     <g id="line2d_6">
      <g>
       <use xlink:href="#mbca11c8f34" x="204.692835" y="250.44375" style="stroke: #000000; stroke-width: 0.8"/>
      </g>
     </g>
     <g id="text_3">
      <!-- 5.0 -->
      <g transform="translate(196.741272 265.042188) scale(0.1 -0.1)">
       <use xlink:href="#DejaVuSans-35"/>
       <use xlink:href="#DejaVuSans-2e" transform="translate(63.623047 0)"/>
       <use xlink:href="#DejaVuSans-30" transform="translate(95.410156 0)"/>
      </g>
     </g>
    </g>
    <g id="xtick_4">
     <g id="line2d_7">
      <path d="M 270.179735 250.44375 
L 270.179735 22.318125 
" clip-path="url(#pcb780e8776)" style="fill: none; stroke-dasharray: 2.96,1.28; stroke-dashoffset: 0; stroke: #b0b0b0; stroke-opacity: 0.8; stroke-width: 0.8"/>
     </g>
     <g id="line2d_8">
      <g>
       <use xlink:href="#mbca11c8f34" x="270.179735" y="250.44375" style="stroke: #000000; stroke-width: 0.8"/>
      </g>
     </g>
     <g id="text_4">
      <!-- 7.5 -->
      <g transform="translate(262.228172 265.042188) scale(0.1 -0.1)">
       <defs>
        <path id="DejaVuSans-37" d="M 525 4666 
L 3525 4666 
L 3525 4397 
L 1831 0 
L 1172 0 
L 2766 4134 
L 525 4134 
L 525 4666 
z
" transform="scale(0.015625)"/>
       </defs>
       <use xlink:href="#DejaVuSans-37"/>
       <use xlink:href="#DejaVuSans-2e" transform="translate(63.623047 0)"/>
       <use xlink:href="#DejaVuSans-35" transform="translate(95.410156 0)"/>
      </g>
     </g>
    </g>
    <g id="xtick_5">
     <g id="line2d_9">
      <path d="M 335.666635 250.44375 
L 335.666635 22.318125 
" clip-path="url(#pcb780e8776)" style="fill: none; stroke-dasharray: 2.96,1.28; stroke-dashoffset: 0; stroke: #b0b0b0; stroke-opacity: 0.8; stroke-width: 0.8"/>
     </g>
     <g id="line2d_10">
      <g>
       <use xlink:href="#mbca11c8f34" x="335.666635" y="250.44375" style="stroke: #000000; stroke-width: 0.8"/>
      </g>
     </g>
     <g id="text_5">
      <!-- 10.0 -->
      <g transform="translate(324.533823 265.042188) scale(0.1 -0.1)">
       <defs>
        <path id="DejaVuSans-31" d="M 794 531 
L 1825 531 
L 1825 4091 
L 703 3866 
L 703 4441 
L 1819 4666 
L 2450 4666 
L 2450 531 
L 3481 531 
L 3481 0 
L 794 0 
L 794 531 
z
" transform="scale(0.015625)"/>
       </defs>
       <use xlink:href="#DejaVuSans-31"/>
       <use xlink:href="#DejaVuSans-30" transform="translate(63.623047 0)"/>
       <use xlink:href="#DejaVuSans-2e" transform="translate(127.246094 0)"/>
       <use xlink:href="#DejaVuSans-30" transform="translate(159.033203 0)"/>
      </g>
     </g>
    </g>
    <g id="xtick_6">
     <g id="line2d_11">
      <path d="M 401.153535 250.44375 
L 401.153535 22.318125 
" clip-path="url(#pcb780e8776)" style="fill: none; stroke-dasharray: 2.96,1.28; stroke-dashoffset: 0; stroke: #b0b0b0; stroke-opacity: 0.8; stroke-width: 0.8"/>
     </g>
     <g id="line2d_12">
      <g>
       <use xlink:href="#mbca11c8f34" x="401.153535" y="250.44375" style="stroke: #000000; stroke-width: 0.8"/>
      </g>
     </g>
     <g id="text_6">
      <!-- 12.5 -->
      <g transform="translate(390.020723 265.042188) scale(0.1 -0.1)">
       <use xlink:href="#DejaVuSans-31"/>
       <use xlink:href="#DejaVuSans-32" transform="translate(63.623047 0)"/>
       <use xlink:href="#DejaVuSans-2e" transform="translate(127.246094 0)"/>
       <use xlink:href="#DejaVuSans-35" transform="translate(159.033203 0)"/>
      </g>
     </g>
    </g>
    <g id="xtick_7">
     <g id="line2d_13">
      <path d="M 466.640436 250.44375 
L 466.640436 22.318125 
" clip-path="url(#pcb780e8776)" style="fill: none; stroke-dasharray: 2.96,1.28; stroke-dashoffset: 0; stroke: #b0b0b0; stroke-opacity: 0.8; stroke-width: 0.8"/>
     </g>
     <g id="line2d_14">
      <g>
       <use xlink:href="#mbca11c8f34" x="466.640436" y="250.44375" style="stroke: #000000; stroke-width: 0.8"/>
      </g>
     </g>
     <g id="text_7">
      <!-- 15.0 -->
      <g transform="translate(455.507623 265.042188) scale(0.1 -0.1)">
       <use xlink:href="#DejaVuSans-31"/>
       <use xlink:href="#DejaVuSans-35" transform="translate(63.623047 0)"/>
       <use xlink:href="#DejaVuSans-2e" transform="translate(127.246094 0)"/>
       <use xlink:href="#DejaVuSans-30" transform="translate(159.033203 0)"/>
      </g>
     </g>
    </g>
    <g id="xtick_8">
     <g id="line2d_15">
      <path d="M 532.127336 250.44375 
L 532.127336 22.318125 
" clip-path="url(#pcb780e8776)" style="fill: none; stroke-dasharray: 2.96,1.28; stroke-dashoffset: 0; stroke: #b0b0b0; stroke-opacity: 0.8; stroke-width: 0.8"/>
     </g>
     <g id="line2d_16">
      <g>
       <use xlink:href="#mbca11c8f34" x="532.127336" y="250.44375" style="stroke: #000000; stroke-width: 0.8"/>
      </g>
     </g>
     <g id="text_8">
      <!-- 17.5 -->
      <g transform="translate(520.994523 265.042188) scale(0.1 -0.1)">
       <use xlink:href="#DejaVuSans-31"/>
       <use xlink:href="#DejaVuSans-37" transform="translate(63.623047 0)"/>
       <use xlink:href="#DejaVuSans-2e" transform="translate(127.246094 0)"/>
       <use xlink:href="#DejaVuSans-35" transform="translate(159.033203 0)"/>
      </g>
     </g>
    </g>
    <g id="text_9">
     <!-- Random variable -->
     <g transform="translate(267.0125 278.720312) scale(0.1 -0.1)">
      <defs>
       <path id="DejaVuSans-52" d="M 2841 2188 
Q 3044 2119 3236 1894 
Q 3428 1669 3622 1275 
L 4263 0 
L 3584 0 
L 2988 1197 
Q 2756 1666 2539 1819 
Q 2322 1972 1947 1972 
L 1259 1972 
L 1259 0 
L 628 0 
L 628 4666 
L 2053 4666 
Q 2853 4666 3247 4331 
Q 3641 3997 3641 3322 
Q 3641 2881 3436 2590 
Q 3231 2300 2841 2188 
z
M 1259 4147 
L 1259 2491 
L 2053 2491 
Q 2509 2491 2742 2702 
Q 2975 2913 2975 3322 
Q 2975 3731 2742 3939 
Q 2509 4147 2053 4147 
L 1259 4147 
z
" transform="scale(0.015625)"/>
       <path id="DejaVuSans-61" d="M 2194 1759 
Q 1497 1759 1228 1600 
Q 959 1441 959 1056 
Q 959 750 1161 570 
Q 1363 391 1709 391 
Q 2188 391 2477 730 
Q 2766 1069 2766 1631 
L 2766 1759 
L 2194 1759 
z
M 3341 1997 
L 3341 0 
L 2766 0 
L 2766 531 
Q 2569 213 2275 61 
Q 1981 -91 1556 -91 
Q 1019 -91 701 211 
Q 384 513 384 1019 
Q 384 1609 779 1909 
Q 1175 2209 1959 2209 
L 2766 2209 
L 2766 2266 
Q 2766 2663 2505 2880 
Q 2244 3097 1772 3097 
Q 1472 3097 1187 3025 
Q 903 2953 641 2809 
L 641 3341 
Q 956 3463 1253 3523 
Q 1550 3584 1831 3584 
Q 2591 3584 2966 3190 
Q 3341 2797 3341 1997 
z
" transform="scale(0.015625)"/>
       <path id="DejaVuSans-6e" d="M 3513 2113 
L 3513 0 
L 2938 0 
L 2938 2094 
Q 2938 2591 2744 2837 
Q 2550 3084 2163 3084 
Q 1697 3084 1428 2787 
Q 1159 2491 1159 1978 
L 1159 0 
L 581 0 
L 581 3500 
L 1159 3500 
L 1159 2956 
Q 1366 3272 1645 3428 
Q 1925 3584 2291 3584 
Q 2894 3584 3203 3211 
Q 3513 2838 3513 2113 
z
" transform="scale(0.015625)"/>
       <path id="DejaVuSans-64" d="M 2906 2969 
L 2906 4863 
L 3481 4863 
L 3481 0 
L 2906 0 
L 2906 525 
Q 2725 213 2448 61 
Q 2172 -91 1784 -91 
Q 1150 -91 751 415 
Q 353 922 353 1747 
Q 353 2572 751 3078 
Q 1150 3584 1784 3584 
Q 2172 3584 2448 3432 
Q 2725 3281 2906 2969 
z
M 947 1747 
Q 947 1113 1208 752 
Q 1469 391 1925 391 
Q 2381 391 2643 752 
Q 2906 1113 2906 1747 
Q 2906 2381 2643 2742 
Q 2381 3103 1925 3103 
Q 1469 3103 1208 2742 
Q 947 2381 947 1747 
z
" transform="scale(0.015625)"/>
       <path id="DejaVuSans-6f" d="M 1959 3097 
Q 1497 3097 1228 2736 
Q 959 2375 959 1747 
Q 959 1119 1226 758 
Q 1494 397 1959 397 
Q 2419 397 2687 759 
Q 2956 1122 2956 1747 
Q 2956 2369 2687 2733 
Q 2419 3097 1959 3097 
z
M 1959 3584 
Q 2709 3584 3137 3096 
Q 3566 2609 3566 1747 
Q 3566 888 3137 398 
Q 2709 -91 1959 -91 
Q 1206 -91 779 398 
Q 353 888 353 1747 
Q 353 2609 779 3096 
Q 1206 3584 1959 3584 
z
" transform="scale(0.015625)"/>
       <path id="DejaVuSans-6d" d="M 3328 2828 
Q 3544 3216 3844 3400 
Q 4144 3584 4550 3584 
Q 5097 3584 5394 3201 
Q 5691 2819 5691 2113 
L 5691 0 
L 5113 0 
L 5113 2094 
Q 5113 2597 4934 2840 
Q 4756 3084 4391 3084 
Q 3944 3084 3684 2787 
Q 3425 2491 3425 1978 
L 3425 0 
L 2847 0 
L 2847 2094 
Q 2847 2600 2669 2842 
Q 2491 3084 2119 3084 
Q 1678 3084 1418 2786 
Q 1159 2488 1159 1978 
L 1159 0 
L 581 0 
L 581 3500 
L 1159 3500 
L 1159 2956 
Q 1356 3278 1631 3431 
Q 1906 3584 2284 3584 
Q 2666 3584 2933 3390 
Q 3200 3197 3328 2828 
z
" transform="scale(0.015625)"/>
       <path id="DejaVuSans-20" transform="scale(0.015625)"/>
       <path id="DejaVuSans-76" d="M 191 3500 
L 800 3500 
L 1894 563 
L 2988 3500 
L 3597 3500 
L 2284 0 
L 1503 0 
L 191 3500 
z
" transform="scale(0.015625)"/>
       <path id="DejaVuSans-72" d="M 2631 2963 
Q 2534 3019 2420 3045 
Q 2306 3072 2169 3072 
Q 1681 3072 1420 2755 
Q 1159 2438 1159 1844 
L 1159 0 
L 581 0 
L 581 3500 
L 1159 3500 
L 1159 2956 
Q 1341 3275 1631 3429 
Q 1922 3584 2338 3584 
Q 2397 3584 2469 3576 
Q 2541 3569 2628 3553 
L 2631 2963 
z
" transform="scale(0.015625)"/>
       <path id="DejaVuSans-69" d="M 603 3500 
L 1178 3500 
L 1178 0 
L 603 0 
L 603 3500 
z
M 603 4863 
L 1178 4863 
L 1178 4134 
L 603 4134 
L 603 4863 
z
" transform="scale(0.015625)"/>
       <path id="DejaVuSans-62" d="M 3116 1747 
Q 3116 2381 2855 2742 
Q 2594 3103 2138 3103 
Q 1681 3103 1420 2742 
Q 1159 2381 1159 1747 
Q 1159 1113 1420 752 
Q 1681 391 2138 391 
Q 2594 391 2855 752 
Q 3116 1113 3116 1747 
z
M 1159 2969 
Q 1341 3281 1617 3432 
Q 1894 3584 2278 3584 
Q 2916 3584 3314 3078 
Q 3713 2572 3713 1747 
Q 3713 922 3314 415 
Q 2916 -91 2278 -91 
Q 1894 -91 1617 61 
Q 1341 213 1159 525 
L 1159 0 
L 581 0 
L 581 4863 
L 1159 4863 
L 1159 2969 
z
" transform="scale(0.015625)"/>
       <path id="DejaVuSans-6c" d="M 603 4863 
L 1178 4863 
L 1178 0 
L 603 0 
L 603 4863 
z
" transform="scale(0.015625)"/>
       <path id="DejaVuSans-65" d="M 3597 1894 
L 3597 1613 
L 953 1613 
Q 991 1019 1311 708 
Q 1631 397 2203 397 
Q 2534 397 2845 478 
Q 3156 559 3463 722 
L 3463 178 
Q 3153 47 2828 -22 
Q 2503 -91 2169 -91 
Q 1331 -91 842 396 
Q 353 884 353 1716 
Q 353 2575 817 3079 
Q 1281 3584 2069 3584 
Q 2775 3584 3186 3129 
Q 3597 2675 3597 1894 
z
M 3022 2063 
Q 3016 2534 2758 2815 
Q 2500 3097 2075 3097 
Q 1594 3097 1305 2825 
Q 1016 2553 972 2059 
L 3022 2063 
z
" transform="scale(0.015625)"/>
      </defs>
      <use xlink:href="#DejaVuSans-52"/>
      <use xlink:href="#DejaVuSans-61" transform="translate(67.232422 0)"/>
      <use xlink:href="#DejaVuSans-6e" transform="translate(128.511719 0)"/>
      <use xlink:href="#DejaVuSans-64" transform="translate(191.890625 0)"/>
      <use xlink:href="#DejaVuSans-6f" transform="translate(255.367188 0)"/>
      <use xlink:href="#DejaVuSans-6d" transform="translate(316.548828 0)"/>
      <use xlink:href="#DejaVuSans-20" transform="translate(413.960938 0)"/>
      <use xlink:href="#DejaVuSans-76" transform="translate(445.748047 0)"/>
      <use xlink:href="#DejaVuSans-61" transform="translate(504.927734 0)"/>
      <use xlink:href="#DejaVuSans-72" transform="translate(566.207031 0)"/>
      <use xlink:href="#DejaVuSans-69" transform="translate(607.320312 0)"/>
      <use xlink:href="#DejaVuSans-61" transform="translate(635.103516 0)"/>
      <use xlink:href="#DejaVuSans-62" transform="translate(696.382812 0)"/>
      <use xlink:href="#DejaVuSans-6c" transform="translate(759.859375 0)"/>
      <use xlink:href="#DejaVuSans-65" transform="translate(787.642578 0)"/>
     </g>
    </g>
   </g>
   <g id="matplotlib.axis_2">
    <g id="ytick_1">
     <g id="line2d_17">
      <path d="M 50.14375 250.44375 
L 568.8 250.44375 
" clip-path="url(#pcb780e8776)" style="fill: none; stroke-dasharray: 2.96,1.28; stroke-dashoffset: 0; stroke: #b0b0b0; stroke-opacity: 0.8; stroke-width: 0.8"/>
     </g>
     <g id="line2d_18">
      <defs>
       <path id="m137f51da8c" d="M 0 0 
L -3.5 0 
" style="stroke: #000000; stroke-width: 0.8"/>
      </defs>
      <g>
       <use xlink:href="#m137f51da8c" x="50.14375" y="250.44375" style="stroke: #000000; stroke-width: 0.8"/>
      </g>
     </g>
     <g id="text_10">
      <!-- 0.00 -->
      <g transform="translate(20.878125 254.242969) scale(0.1 -0.1)">
       <use xlink:href="#DejaVuSans-30"/>
       <use xlink:href="#DejaVuSans-2e" transform="translate(63.623047 0)"/>
       <use xlink:href="#DejaVuSans-30" transform="translate(95.410156 0)"/>
       <use xlink:href="#DejaVuSans-30" transform="translate(159.033203 0)"/>
      </g>
     </g>
    </g>
    <g id="ytick_2">
     <g id="line2d_19">
      <path d="M 50.14375 224.816569 
L 568.8 224.816569 
" clip-path="url(#pcb780e8776)" style="fill: none; stroke-dasharray: 2.96,1.28; stroke-dashoffset: 0; stroke: #b0b0b0; stroke-opacity: 0.8; stroke-width: 0.8"/>
     </g>
     <g id="line2d_20">
      <g>
       <use xlink:href="#m137f51da8c" x="50.14375" y="224.816569" style="stroke: #000000; stroke-width: 0.8"/>
      </g>
     </g>
     <g id="text_11">
      <!-- 0.05 -->
      <g transform="translate(20.878125 228.615788) scale(0.1 -0.1)">
       <use xlink:href="#DejaVuSans-30"/>
       <use xlink:href="#DejaVuSans-2e" transform="translate(63.623047 0)"/>
       <use xlink:href="#DejaVuSans-30" transform="translate(95.410156 0)"/>
       <use xlink:href="#DejaVuSans-35" transform="translate(159.033203 0)"/>
      </g>
     </g>
    </g>
    <g id="ytick_3">
     <g id="line2d_21">
      <path d="M 50.14375 199.189389 
L 568.8 199.189389 
" clip-path="url(#pcb780e8776)" style="fill: none; stroke-dasharray: 2.96,1.28; stroke-dashoffset: 0; stroke: #b0b0b0; stroke-opacity: 0.8; stroke-width: 0.8"/>
     </g>
     <g id="line2d_22">
      <g>
       <use xlink:href="#m137f51da8c" x="50.14375" y="199.189389" style="stroke: #000000; stroke-width: 0.8"/>
      </g>
     </g>
     <g id="text_12">
      <!-- 0.10 -->
      <g transform="translate(20.878125 202.988607) scale(0.1 -0.1)">
       <use xlink:href="#DejaVuSans-30"/>
       <use xlink:href="#DejaVuSans-2e" transform="translate(63.623047 0)"/>
       <use xlink:href="#DejaVuSans-31" transform="translate(95.410156 0)"/>
       <use xlink:href="#DejaVuSans-30" transform="translate(159.033203 0)"/>
      </g>
     </g>
    </g>
    <g id="ytick_4">
     <g id="line2d_23">
      <path d="M 50.14375 173.562208 
L 568.8 173.562208 
" clip-path="url(#pcb780e8776)" style="fill: none; stroke-dasharray: 2.96,1.28; stroke-dashoffset: 0; stroke: #b0b0b0; stroke-opacity: 0.8; stroke-width: 0.8"/>
     </g>
     <g id="line2d_24">
      <g>
       <use xlink:href="#m137f51da8c" x="50.14375" y="173.562208" style="stroke: #000000; stroke-width: 0.8"/>
      </g>
     </g>
     <g id="text_13">
      <!-- 0.15 -->
      <g transform="translate(20.878125 177.361427) scale(0.1 -0.1)">
       <use xlink:href="#DejaVuSans-30"/>
       <use xlink:href="#DejaVuSans-2e" transform="translate(63.623047 0)"/>
       <use xlink:href="#DejaVuSans-31" transform="translate(95.410156 0)"/>
       <use xlink:href="#DejaVuSans-35" transform="translate(159.033203 0)"/>
      </g>
     </g>
    </g>
    <g id="ytick_5">
     <g id="line2d_25">
      <path d="M 50.14375 147.935027 
L 568.8 147.935027 
" clip-path="url(#pcb780e8776)" style="fill: none; stroke-dasharray: 2.96,1.28; stroke-dashoffset: 0; stroke: #b0b0b0; stroke-opacity: 0.8; stroke-width: 0.8"/>
     </g>
     <g id="line2d_26">
      <g>
       <use xlink:href="#m137f51da8c" x="50.14375" y="147.935027" style="stroke: #000000; stroke-width: 0.8"/>
      </g>
     </g>
     <g id="text_14">
      <!-- 0.20 -->
      <g transform="translate(20.878125 151.734246) scale(0.1 -0.1)">
       <use xlink:href="#DejaVuSans-30"/>
       <use xlink:href="#DejaVuSans-2e" transform="translate(63.623047 0)"/>
       <use xlink:href="#DejaVuSans-32" transform="translate(95.410156 0)"/>
       <use xlink:href="#DejaVuSans-30" transform="translate(159.033203 0)"/>
      </g>
     </g>
    </g>
    <g id="ytick_6">
     <g id="line2d_27">
      <path d="M 50.14375 122.307847 
L 568.8 122.307847 
" clip-path="url(#pcb780e8776)" style="fill: none; stroke-dasharray: 2.96,1.28; stroke-dashoffset: 0; stroke: #b0b0b0; stroke-opacity: 0.8; stroke-width: 0.8"/>
     </g>
     <g id="line2d_28">
      <g>
       <use xlink:href="#m137f51da8c" x="50.14375" y="122.307847" style="stroke: #000000; stroke-width: 0.8"/>
      </g>
     </g>
     <g id="text_15">
      <!-- 0.25 -->
      <g transform="translate(20.878125 126.107066) scale(0.1 -0.1)">
       <use xlink:href="#DejaVuSans-30"/>
       <use xlink:href="#DejaVuSans-2e" transform="translate(63.623047 0)"/>
       <use xlink:href="#DejaVuSans-32" transform="translate(95.410156 0)"/>
       <use xlink:href="#DejaVuSans-35" transform="translate(159.033203 0)"/>
      </g>
     </g>
    </g>
    <g id="ytick_7">
     <g id="line2d_29">
      <path d="M 50.14375 96.680666 
L 568.8 96.680666 
" clip-path="url(#pcb780e8776)" style="fill: none; stroke-dasharray: 2.96,1.28; stroke-dashoffset: 0; stroke: #b0b0b0; stroke-opacity: 0.8; stroke-width: 0.8"/>
     </g>
     <g id="line2d_30">
      <g>
       <use xlink:href="#m137f51da8c" x="50.14375" y="96.680666" style="stroke: #000000; stroke-width: 0.8"/>
      </g>
     </g>
     <g id="text_16">
      <!-- 0.30 -->
      <g transform="translate(20.878125 100.479885) scale(0.1 -0.1)">
       <defs>
        <path id="DejaVuSans-33" d="M 2597 2516 
Q 3050 2419 3304 2112 
Q 3559 1806 3559 1356 
Q 3559 666 3084 287 
Q 2609 -91 1734 -91 
Q 1441 -91 1130 -33 
Q 819 25 488 141 
L 488 750 
Q 750 597 1062 519 
Q 1375 441 1716 441 
Q 2309 441 2620 675 
Q 2931 909 2931 1356 
Q 2931 1769 2642 2001 
Q 2353 2234 1838 2234 
L 1294 2234 
L 1294 2753 
L 1863 2753 
Q 2328 2753 2575 2939 
Q 2822 3125 2822 3475 
Q 2822 3834 2567 4026 
Q 2313 4219 1838 4219 
Q 1578 4219 1281 4162 
Q 984 4106 628 3988 
L 628 4550 
Q 988 4650 1302 4700 
Q 1616 4750 1894 4750 
Q 2613 4750 3031 4423 
Q 3450 4097 3450 3541 
Q 3450 3153 3228 2886 
Q 3006 2619 2597 2516 
z
" transform="scale(0.015625)"/>
       </defs>
       <use xlink:href="#DejaVuSans-30"/>
       <use xlink:href="#DejaVuSans-2e" transform="translate(63.623047 0)"/>
       <use xlink:href="#DejaVuSans-33" transform="translate(95.410156 0)"/>
       <use xlink:href="#DejaVuSans-30" transform="translate(159.033203 0)"/>
      </g>
     </g>
    </g>
    <g id="ytick_8">
     <g id="line2d_31">
      <path d="M 50.14375 71.053486 
L 568.8 71.053486 
" clip-path="url(#pcb780e8776)" style="fill: none; stroke-dasharray: 2.96,1.28; stroke-dashoffset: 0; stroke: #b0b0b0; stroke-opacity: 0.8; stroke-width: 0.8"/>
     </g>
     <g id="line2d_32">
      <g>
       <use xlink:href="#m137f51da8c" x="50.14375" y="71.053486" style="stroke: #000000; stroke-width: 0.8"/>
      </g>
     </g>
     <g id="text_17">
      <!-- 0.35 -->
      <g transform="translate(20.878125 74.852704) scale(0.1 -0.1)">
       <use xlink:href="#DejaVuSans-30"/>
       <use xlink:href="#DejaVuSans-2e" transform="translate(63.623047 0)"/>
       <use xlink:href="#DejaVuSans-33" transform="translate(95.410156 0)"/>
       <use xlink:href="#DejaVuSans-35" transform="translate(159.033203 0)"/>
      </g>
     </g>
    </g>
    <g id="ytick_9">
     <g id="line2d_33">
      <path d="M 50.14375 45.426305 
L 568.8 45.426305 
" clip-path="url(#pcb780e8776)" style="fill: none; stroke-dasharray: 2.96,1.28; stroke-dashoffset: 0; stroke: #b0b0b0; stroke-opacity: 0.8; stroke-width: 0.8"/>
     </g>
     <g id="line2d_34">
      <g>
       <use xlink:href="#m137f51da8c" x="50.14375" y="45.426305" style="stroke: #000000; stroke-width: 0.8"/>
      </g>
     </g>
     <g id="text_18">
      <!-- 0.40 -->
      <g transform="translate(20.878125 49.225524) scale(0.1 -0.1)">
       <defs>
        <path id="DejaVuSans-34" d="M 2419 4116 
L 825 1625 
L 2419 1625 
L 2419 4116 
z
M 2253 4666 
L 3047 4666 
L 3047 1625 
L 3713 1625 
L 3713 1100 
L 3047 1100 
L 3047 0 
L 2419 0 
L 2419 1100 
L 313 1100 
L 313 1709 
L 2253 4666 
z
" transform="scale(0.015625)"/>
       </defs>
       <use xlink:href="#DejaVuSans-30"/>
       <use xlink:href="#DejaVuSans-2e" transform="translate(63.623047 0)"/>
       <use xlink:href="#DejaVuSans-34" transform="translate(95.410156 0)"/>
       <use xlink:href="#DejaVuSans-30" transform="translate(159.033203 0)"/>
      </g>
     </g>
    </g>
    <g id="text_19">
     <!-- Probability density -->
     <g transform="translate(14.798437 182.731719) rotate(-90) scale(0.1 -0.1)">
      <defs>
       <path id="DejaVuSans-50" d="M 1259 4147 
L 1259 2394 
L 2053 2394 
Q 2494 2394 2734 2622 
Q 2975 2850 2975 3272 
Q 2975 3691 2734 3919 
Q 2494 4147 2053 4147 
L 1259 4147 
z
M 628 4666 
L 2053 4666 
Q 2838 4666 3239 4311 
Q 3641 3956 3641 3272 
Q 3641 2581 3239 2228 
Q 2838 1875 2053 1875 
L 1259 1875 
L 1259 0 
L 628 0 
L 628 4666 
z
" transform="scale(0.015625)"/>
       <path id="DejaVuSans-74" d="M 1172 4494 
L 1172 3500 
L 2356 3500 
L 2356 3053 
L 1172 3053 
L 1172 1153 
Q 1172 725 1289 603 
Q 1406 481 1766 481 
L 2356 481 
L 2356 0 
L 1766 0 
Q 1100 0 847 248 
Q 594 497 594 1153 
L 594 3053 
L 172 3053 
L 172 3500 
L 594 3500 
L 594 4494 
L 1172 4494 
z
" transform="scale(0.015625)"/>
       <path id="DejaVuSans-79" d="M 2059 -325 
Q 1816 -950 1584 -1140 
Q 1353 -1331 966 -1331 
L 506 -1331 
L 506 -850 
L 844 -850 
Q 1081 -850 1212 -737 
Q 1344 -625 1503 -206 
L 1606 56 
L 191 3500 
L 800 3500 
L 1894 763 
L 2988 3500 
L 3597 3500 
L 2059 -325 
z
" transform="scale(0.015625)"/>
       <path id="DejaVuSans-73" d="M 2834 3397 
L 2834 2853 
Q 2591 2978 2328 3040 
Q 2066 3103 1784 3103 
Q 1356 3103 1142 2972 
Q 928 2841 928 2578 
Q 928 2378 1081 2264 
Q 1234 2150 1697 2047 
L 1894 2003 
Q 2506 1872 2764 1633 
Q 3022 1394 3022 966 
Q 3022 478 2636 193 
Q 2250 -91 1575 -91 
Q 1294 -91 989 -36 
Q 684 19 347 128 
L 347 722 
Q 666 556 975 473 
Q 1284 391 1588 391 
Q 1994 391 2212 530 
Q 2431 669 2431 922 
Q 2431 1156 2273 1281 
Q 2116 1406 1581 1522 
L 1381 1569 
Q 847 1681 609 1914 
Q 372 2147 372 2553 
Q 372 3047 722 3315 
Q 1072 3584 1716 3584 
Q 2034 3584 2315 3537 
Q 2597 3491 2834 3397 
z
" transform="scale(0.015625)"/>
      </defs>
      <use xlink:href="#DejaVuSans-50"/>
      <use xlink:href="#DejaVuSans-72" transform="translate(58.552734 0)"/>
      <use xlink:href="#DejaVuSans-6f" transform="translate(97.416016 0)"/>
      <use xlink:href="#DejaVuSans-62" transform="translate(158.597656 0)"/>
      <use xlink:href="#DejaVuSans-61" transform="translate(222.074219 0)"/>
      <use xlink:href="#DejaVuSans-62" transform="translate(283.353516 0)"/>
      <use xlink:href="#DejaVuSans-69" transform="translate(346.830078 0)"/>
      <use xlink:href="#DejaVuSans-6c" transform="translate(374.613281 0)"/>
      <use xlink:href="#DejaVuSans-69" transform="translate(402.396484 0)"/>
      <use xlink:href="#DejaVuSans-74" transform="translate(430.179688 0)"/>
      <use xlink:href="#DejaVuSans-79" transform="translate(469.388672 0)"/>
      <use xlink:href="#DejaVuSans-20" transform="translate(528.568359 0)"/>
      <use xlink:href="#DejaVuSans-64" transform="translate(560.355469 0)"/>
      <use xlink:href="#DejaVuSans-65" transform="translate(623.832031 0)"/>
      <use xlink:href="#DejaVuSans-6e" transform="translate(685.355469 0)"/>
      <use xlink:href="#DejaVuSans-73" transform="translate(748.734375 0)"/>
      <use xlink:href="#DejaVuSans-69" transform="translate(800.833984 0)"/>
      <use xlink:href="#DejaVuSans-74" transform="translate(828.617188 0)"/>
      <use xlink:href="#DejaVuSans-79" transform="translate(867.826172 0)"/>
     </g>
    </g>
   </g>
   <g id="line2d_35">
    <path d="M 73.719034 250.44375 
L 78.905597 236.442846 
L 82.206136 226.820556 
L 85.03517 217.810877 
L 87.392699 209.632758 
L 89.750227 200.770492 
L 92.579261 189.182155 
L 95.408295 176.55775 
L 98.708835 160.629148 
L 102.480881 141.173843 
L 113.797017 81.723601 
L 116.626051 68.655898 
L 118.98358 58.935454 
L 120.869602 52.086716 
L 122.755625 46.174868 
L 124.170142 42.410496 
L 125.584659 39.256425 
L 126.999176 36.739684 
L 127.942188 35.426691 
L 128.885199 34.411372 
L 129.82821 33.697331 
L 130.771222 33.286924 
L 131.714233 33.18125 
L 132.657244 33.380143 
L 133.600256 33.88218 
L 134.543267 34.684689 
L 135.486278 35.783778 
L 136.42929 37.174358 
L 137.843807 39.792803 
L 139.258324 43.027071 
L 140.672841 46.846231 
L 142.087358 51.214613 
L 143.973381 57.824038 
L 145.859403 65.234392 
L 148.216932 75.451029 
L 151.045966 88.801139 
L 154.818011 107.774805 
L 163.305114 150.921676 
L 166.605653 166.442075 
L 169.434688 178.748747 
L 172.263722 189.986082 
L 174.62125 198.473055 
L 176.978778 206.140136 
L 179.336307 212.989776 
L 181.693835 219.043064 
L 183.579858 223.336202 
L 185.465881 227.166552 
L 187.351903 230.561642 
L 189.237926 233.551512 
L 191.123949 236.167743 
L 193.009972 238.442605 
L 194.895994 240.408306 
L 196.782017 242.096374 
L 198.66804 243.537151 
L 201.025568 245.034015 
L 203.383097 246.241323 
L 205.740625 247.206032 
L 208.569659 248.101699 
L 211.398693 248.769586 
L 214.699233 249.328972 
L 218.942784 249.798359 
L 224.129347 250.124601 
L 231.201932 250.329166 
L 243.46108 250.427455 
L 291.554659 250.443749 
L 545.224716 250.44375 
L 545.224716 250.44375 
" clip-path="url(#pcb780e8776)" style="fill: none; stroke: #1f77b4; stroke-linecap: square"/>
   </g>
   <g id="line2d_36">
    <path d="M 73.719034 250.44375 
L 147.745426 250.335349 
L 160.47608 250.070393 
L 169.434688 249.635881 
L 176.507273 249.029321 
L 183.108352 248.160502 
L 190.180938 246.831796 
L 196.310511 245.178348 
L 202.440085 242.973991 
L 208.569659 240.116153 
L 214.699233 236.510315 
L 215.642244 235.830885 
L 216.11375 235.657404 
L 221.300313 231.671787 
L 221.771818 231.257524 
L 222.243324 231.048101 
L 229.315909 224.560772 
L 230.25892 223.536017 
L 230.730426 223.276046 
L 233.087955 220.594042 
L 233.55946 220.317701 
L 236.388494 216.889125 
L 236.86 216.59422 
L 239.217528 213.570382 
L 239.689034 213.260697 
L 242.046563 210.094351 
L 242.518068 209.770987 
L 244.875597 206.474309 
L 245.347102 206.138602 
L 248.176136 202.032259 
L 248.647642 201.684003 
L 251.00517 198.156526 
L 251.476676 197.799639 
L 253.834205 194.195897 
L 254.30571 193.832425 
L 256.663239 190.173871 
L 257.134744 189.806056 
L 259.492273 186.11599 
L 259.963778 185.746246 
L 262.792813 181.311553 
L 263.264318 180.942844 
L 265.621847 177.272332 
L 266.093352 176.907439 
L 268.450881 173.288947 
L 268.922386 172.930654 
L 271.279915 169.392284 
L 271.75142 169.04342 
L 274.108949 165.613554 
L 274.580455 165.27696 
L 277.409489 161.342361 
L 277.880994 161.023885 
L 280.238523 157.928243 
L 280.710028 157.628077 
L 283.067557 154.728711 
L 283.539063 154.449466 
L 285.896591 151.771762 
L 286.368097 151.515898 
L 289.197131 148.625555 
L 289.668636 148.400234 
L 292.026165 146.285555 
L 292.49767 146.088283 
L 294.855199 144.263092 
L 295.326705 144.09562 
L 297.684233 142.576038 
L 298.155739 142.439834 
L 300.513267 141.239051 
L 301.456278 140.936737 
L 303.342301 140.263378 
L 304.756818 139.941544 
L 306.642841 139.586409 
L 310.414886 139.440347 
L 312.772415 139.66522 
L 314.658438 140.072339 
L 317.487472 140.945038 
L 320.788011 142.430077 
L 321.259517 142.700868 
L 321.731023 142.840405 
L 325.503068 145.255406 
L 329.746619 148.678589 
L 330.218125 149.125798 
L 330.689631 149.352741 
L 335.404688 154.061567 
L 335.876193 154.598137 
L 336.347699 154.869125 
L 338.705227 157.673271 
L 339.176733 157.962656 
L 342.005767 161.549935 
L 342.477273 161.857784 
L 344.834801 165.002645 
L 345.306307 165.323295 
L 347.663835 168.583165 
L 348.135341 168.914019 
L 350.492869 172.263034 
L 350.964375 172.601521 
L 353.321903 176.014234 
L 353.793409 176.35784 
L 356.622443 180.502234 
L 357.093949 180.848766 
L 359.451477 184.31594 
L 359.922983 184.662437 
L 362.280511 188.118311 
L 362.752017 188.46261 
L 365.109545 191.886334 
L 365.581051 192.22643 
L 367.93858 195.598769 
L 368.410085 195.932823 
L 371.239119 199.888222 
L 371.710625 200.213013 
L 374.068153 203.415051 
L 374.539659 203.730425 
L 376.897188 206.831891 
L 377.368693 207.136603 
L 379.726222 210.126018 
L 380.197727 210.419015 
L 383.026761 213.84648 
L 383.498267 214.124538 
L 385.855795 216.838842 
L 386.327301 217.103544 
L 388.68483 219.681794 
L 389.156335 219.932673 
L 391.513864 222.37103 
L 391.985369 222.607783 
L 394.342898 224.904017 
L 394.814403 225.126497 
L 397.643438 227.694975 
L 398.114943 227.900592 
L 400.472472 229.885994 
L 400.943977 230.077494 
L 403.301506 231.922914 
L 403.773011 232.100555 
L 406.13054 233.809076 
L 406.602045 233.973212 
L 409.43108 235.849799 
L 409.902585 235.998548 
L 412.260114 237.423246 
L 412.731619 237.559536 
L 415.089148 238.862472 
L 415.560653 238.986877 
L 417.918182 240.173988 
L 418.861193 240.51041 
L 420.747216 241.364692 
L 421.690227 241.669398 
L 424.047756 242.625925 
L 424.990767 242.895707 
L 427.348295 243.659678 
L 429.705824 244.432547 
L 430.648835 244.649594 
L 433.477869 245.390269 
L 436.778409 246.161288 
L 440.550455 246.924483 
L 444.3225 247.567893 
L 446.208523 247.831516 
L 450.452074 248.38599 
L 452.809602 248.635448 
L 457.996165 249.096611 
L 464.125739 249.50991 
L 471.198324 249.835887 
L 480.628438 250.116025 
L 493.359091 250.308996 
L 514.105341 250.41574 
L 545.224716 250.441767 
L 545.224716 250.441767 
" clip-path="url(#pcb780e8776)" style="fill: none; stroke: #ff7f0e; stroke-linecap: square"/>
   </g>
   <g id="patch_3">
    <path d="M 142.693441 250.44375 
L 142.693441 250.370946 
L 157.446456 250.26174 
L 157.446456 250.079731 
L 161.134709 250.079731 
L 161.134709 249.897721 
L 164.822963 249.897721 
L 164.822963 250.043329 
L 168.511217 250.043329 
L 168.511217 249.752113 
L 172.199471 249.752113 
L 172.199471 249.424496 
L 175.887725 249.424496 
L 175.887725 249.242486 
L 179.575978 249.242486 
L 179.575978 248.769261 
L 183.264232 248.769261 
L 183.264232 247.932017 
L 186.952486 247.932017 
L 186.952486 247.531595 
L 190.64074 247.531595 
L 190.64074 245.493087 
L 194.328993 245.493087 
L 194.328993 245.16547 
L 198.017247 245.16547 
L 198.017247 243.782196 
L 201.705501 243.782196 
L 201.705501 242.617334 
L 205.393755 242.617334 
L 205.393755 241.234061 
L 209.082008 241.234061 
L 209.082008 238.57672 
L 212.770262 238.57672 
L 212.770262 236.611015 
L 216.458516 236.611015 
L 216.458516 234.608909 
L 220.14677 234.608909 
L 220.14677 231.077921 
L 223.835023 231.077921 
L 223.835023 227.910953 
L 227.523277 227.910953 
L 227.523277 225.326416 
L 231.211531 225.326416 
L 231.211531 219.57491 
L 234.899785 219.57491 
L 234.899785 216.953971 
L 238.588038 216.953971 
L 238.588038 212.185317 
L 242.276292 212.185317 
L 242.276292 208.909143 
L 245.964546 208.909143 
L 245.964546 203.121236 
L 249.6528 203.121236 
L 249.6528 199.517444 
L 253.341053 199.517444 
L 253.341053 192.237058 
L 257.029307 192.237058 
L 257.029307 185.611906 
L 260.717561 185.611906 
L 260.717561 184.37424 
L 264.405815 184.37424 
L 264.405815 175.601374 
L 268.094068 175.601374 
L 268.094068 169.449447 
L 271.782322 169.449447 
L 271.782322 167.046919 
L 275.470576 167.046919 
L 275.470576 164.025559 
L 279.15883 164.025559 
L 279.15883 154.997879 
L 282.847083 154.997879 
L 282.847083 153.614606 
L 286.535337 153.614606 
L 286.535337 148.627541 
L 290.223591 148.627541 
L 290.223591 142.621222 
L 293.911845 142.621222 
L 293.911845 146.188611 
L 297.600099 146.188611 
L 297.600099 141.529164 
L 301.288352 141.529164 
L 301.288352 139.053832 
L 304.976606 139.053832 
L 304.976606 140.946733 
L 308.66486 140.946733 
L 308.66486 141.856781 
L 312.353114 141.856781 
L 312.353114 140.619115 
L 316.041367 140.619115 
L 316.041367 141.929585 
L 319.729621 141.929585 
L 319.729621 143.167251 
L 323.417875 143.167251 
L 323.417875 144.768936 
L 327.106129 144.768936 
L 327.106129 147.571885 
L 330.794382 147.571885 
L 330.794382 148.227119 
L 334.482636 148.227119 
L 334.482636 152.413342 
L 338.17089 152.413342 
L 338.17089 162.569481 
L 341.859144 162.569481 
L 341.859144 163.042707 
L 345.547397 163.042707 
L 345.547397 170.359495 
L 349.235651 170.359495 
L 349.235651 172.215994 
L 352.923905 172.215994 
L 352.923905 178.222313 
L 356.612159 178.222313 
L 356.612159 180.879654 
L 360.300412 180.879654 
L 360.300412 189.434109 
L 363.988666 189.434109 
L 363.988666 192.419067 
L 367.67692 192.419067 
L 367.67692 198.279779 
L 371.365174 198.279779 
L 371.365174 202.939226 
L 375.053427 202.939226 
L 375.053427 206.178998 
L 378.741681 206.178998 
L 378.741681 211.056857 
L 382.429935 211.056857 
L 382.429935 214.660649 
L 386.118189 214.660649 
L 386.118189 216.808363 
L 389.806442 216.808363 
L 389.806442 222.268653 
L 393.494696 222.268653 
L 393.494696 223.651927 
L 397.18295 223.651927 
L 397.18295 228.493384 
L 400.871204 228.493384 
L 400.871204 232.461195 
L 404.559458 232.461195 
L 404.559458 233.334841 
L 408.247711 233.334841 
L 408.247711 236.902231 
L 411.935965 236.902231 
L 411.935965 237.957887 
L 415.624219 237.957887 
L 415.624219 240.142003 
L 419.312473 240.142003 
L 419.312473 240.724434 
L 423.000726 240.724434 
L 423.000726 243.163363 
L 426.68898 243.163363 
L 426.68898 243.490981 
L 430.377234 243.490981 
L 430.377234 244.401029 
L 434.065488 244.401029 
L 434.065488 246.075518 
L 437.753741 246.075518 
L 437.753741 246.767155 
L 441.441995 246.767155 
L 441.441995 247.094772 
L 445.130249 247.094772 
L 445.130249 248.36884 
L 448.818503 248.36884 
L 448.818503 248.041222 
L 452.506756 248.041222 
L 452.506756 248.623653 
L 456.19501 248.623653 
L 456.19501 249.024075 
L 459.883264 249.024075 
L 459.883264 249.606506 
L 463.571518 249.606506 
L 463.571518 249.388094 
L 467.259771 249.388094 
L 467.259771 249.824917 
L 478.324533 249.861319 
L 478.324533 250.006927 
L 485.70104 250.116133 
L 485.70104 250.298142 
L 507.830563 250.407348 
L 507.830563 250.44375 
L 515.20707 250.407348 
L 515.20707 250.44375 
" clip-path="url(#pcb780e8776)" style="fill: none; stroke: #2ca02c; stroke-linejoin: miter"/>
   </g>
   <g id="patch_4">
    <path d="M 50.14375 250.44375 
L 50.14375 22.318125 
" style="fill: none; stroke: #000000; stroke-width: 0.8; stroke-linejoin: miter; stroke-linecap: square"/>
   </g>
   <g id="patch_5">
    <path d="M 568.8 250.44375 
L 568.8 22.318125 
" style="fill: none; stroke: #000000; stroke-width: 0.8; stroke-linejoin: miter; stroke-linecap: square"/>
   </g>
   <g id="patch_6">
    <path d="M 50.14375 250.44375 
L 568.8 250.44375 
" style="fill: none; stroke: #000000; stroke-width: 0.8; stroke-linejoin: miter; stroke-linecap: square"/>
   </g>
   <g id="patch_7">
    <path d="M 50.14375 22.318125 
L 568.8 22.318125 
" style="fill: none; stroke: #000000; stroke-width: 0.8; stroke-linejoin: miter; stroke-linecap: square"/>
   </g>
   <g id="text_20">
    <!-- Sum of four Rician random variables -->
    <g transform="translate(199.761875 16.318125) scale(0.12 -0.12)">
     <defs>
      <path id="DejaVuSans-53" d="M 3425 4513 
L 3425 3897 
Q 3066 4069 2747 4153 
Q 2428 4238 2131 4238 
Q 1616 4238 1336 4038 
Q 1056 3838 1056 3469 
Q 1056 3159 1242 3001 
Q 1428 2844 1947 2747 
L 2328 2669 
Q 3034 2534 3370 2195 
Q 3706 1856 3706 1288 
Q 3706 609 3251 259 
Q 2797 -91 1919 -91 
Q 1588 -91 1214 -16 
Q 841 59 441 206 
L 441 856 
Q 825 641 1194 531 
Q 1563 422 1919 422 
Q 2459 422 2753 634 
Q 3047 847 3047 1241 
Q 3047 1584 2836 1778 
Q 2625 1972 2144 2069 
L 1759 2144 
Q 1053 2284 737 2584 
Q 422 2884 422 3419 
Q 422 4038 858 4394 
Q 1294 4750 2059 4750 
Q 2388 4750 2728 4690 
Q 3069 4631 3425 4513 
z
" transform="scale(0.015625)"/>
      <path id="DejaVuSans-75" d="M 544 1381 
L 544 3500 
L 1119 3500 
L 1119 1403 
Q 1119 906 1312 657 
Q 1506 409 1894 409 
Q 2359 409 2629 706 
Q 2900 1003 2900 1516 
L 2900 3500 
L 3475 3500 
L 3475 0 
L 2900 0 
L 2900 538 
Q 2691 219 2414 64 
Q 2138 -91 1772 -91 
Q 1169 -91 856 284 
Q 544 659 544 1381 
z
M 1991 3584 
L 1991 3584 
z
" transform="scale(0.015625)"/>
      <path id="DejaVuSans-66" d="M 2375 4863 
L 2375 4384 
L 1825 4384 
Q 1516 4384 1395 4259 
Q 1275 4134 1275 3809 
L 1275 3500 
L 2222 3500 
L 2222 3053 
L 1275 3053 
L 1275 0 
L 697 0 
L 697 3053 
L 147 3053 
L 147 3500 
L 697 3500 
L 697 3744 
Q 697 4328 969 4595 
Q 1241 4863 1831 4863 
L 2375 4863 
z
" transform="scale(0.015625)"/>
      <path id="DejaVuSans-63" d="M 3122 3366 
L 3122 2828 
Q 2878 2963 2633 3030 
Q 2388 3097 2138 3097 
Q 1578 3097 1268 2742 
Q 959 2388 959 1747 
Q 959 1106 1268 751 
Q 1578 397 2138 397 
Q 2388 397 2633 464 
Q 2878 531 3122 666 
L 3122 134 
Q 2881 22 2623 -34 
Q 2366 -91 2075 -91 
Q 1284 -91 818 406 
Q 353 903 353 1747 
Q 353 2603 823 3093 
Q 1294 3584 2113 3584 
Q 2378 3584 2631 3529 
Q 2884 3475 3122 3366 
z
" transform="scale(0.015625)"/>
     </defs>
     <use xlink:href="#DejaVuSans-53"/>
     <use xlink:href="#DejaVuSans-75" transform="translate(63.476562 0)"/>
     <use xlink:href="#DejaVuSans-6d" transform="translate(126.855469 0)"/>
     <use xlink:href="#DejaVuSans-20" transform="translate(224.267578 0)"/>
     <use xlink:href="#DejaVuSans-6f" transform="translate(256.054688 0)"/>
     <use xlink:href="#DejaVuSans-66" transform="translate(317.236328 0)"/>
     <use xlink:href="#DejaVuSans-20" transform="translate(352.441406 0)"/>
     <use xlink:href="#DejaVuSans-66" transform="translate(384.228516 0)"/>
     <use xlink:href="#DejaVuSans-6f" transform="translate(419.433594 0)"/>
     <use xlink:href="#DejaVuSans-75" transform="translate(480.615234 0)"/>
     <use xlink:href="#DejaVuSans-72" transform="translate(543.994141 0)"/>
     <use xlink:href="#DejaVuSans-20" transform="translate(585.107422 0)"/>
     <use xlink:href="#DejaVuSans-52" transform="translate(616.894531 0)"/>
     <use xlink:href="#DejaVuSans-69" transform="translate(686.376953 0)"/>
     <use xlink:href="#DejaVuSans-63" transform="translate(714.160156 0)"/>
     <use xlink:href="#DejaVuSans-69" transform="translate(769.140625 0)"/>
     <use xlink:href="#DejaVuSans-61" transform="translate(796.923828 0)"/>
     <use xlink:href="#DejaVuSans-6e" transform="translate(858.203125 0)"/>
     <use xlink:href="#DejaVuSans-20" transform="translate(921.582031 0)"/>
     <use xlink:href="#DejaVuSans-72" transform="translate(953.369141 0)"/>
     <use xlink:href="#DejaVuSans-61" transform="translate(994.482422 0)"/>
     <use xlink:href="#DejaVuSans-6e" transform="translate(1055.761719 0)"/>
     <use xlink:href="#DejaVuSans-64" transform="translate(1119.140625 0)"/>
     <use xlink:href="#DejaVuSans-6f" transform="translate(1182.617188 0)"/>
     <use xlink:href="#DejaVuSans-6d" transform="translate(1243.798828 0)"/>
     <use xlink:href="#DejaVuSans-20" transform="translate(1341.210938 0)"/>
     <use xlink:href="#DejaVuSans-76" transform="translate(1372.998047 0)"/>
     <use xlink:href="#DejaVuSans-61" transform="translate(1432.177734 0)"/>
     <use xlink:href="#DejaVuSans-72" transform="translate(1493.457031 0)"/>
     <use xlink:href="#DejaVuSans-69" transform="translate(1534.570312 0)"/>
     <use xlink:href="#DejaVuSans-61" transform="translate(1562.353516 0)"/>
     <use xlink:href="#DejaVuSans-62" transform="translate(1623.632812 0)"/>
     <use xlink:href="#DejaVuSans-6c" transform="translate(1687.109375 0)"/>
     <use xlink:href="#DejaVuSans-65" transform="translate(1714.892578 0)"/>
     <use xlink:href="#DejaVuSans-73" transform="translate(1776.416016 0)"/>
    </g>
   </g>
   <g id="legend_1">
    <g id="patch_8">
     <path d="M 397.1 74.374375 
L 561.8 74.374375 
Q 563.8 74.374375 563.8 72.374375 
L 563.8 29.318125 
Q 563.8 27.318125 561.8 27.318125 
L 397.1 27.318125 
Q 395.1 27.318125 395.1 29.318125 
L 395.1 72.374375 
Q 395.1 74.374375 397.1 74.374375 
z
" style="fill: #ffffff; opacity: 0.8; stroke: #cccccc; stroke-linejoin: miter"/>
    </g>
    <g id="line2d_37">
     <path d="M 399.1 35.416562 
L 409.1 35.416562 
L 419.1 35.416562 
" style="fill: none; stroke: #1f77b4; stroke-linecap: square"/>
    </g>
    <g id="text_21">
     <!-- $X$ -->
     <g transform="translate(427.1 38.916562) scale(0.1 -0.1)">
      <defs>
       <path id="DejaVuSans-Oblique-58" d="M 878 4666 
L 1516 4666 
L 2316 2981 
L 3763 4666 
L 4500 4666 
L 2578 2438 
L 3738 0 
L 3103 0 
L 2163 1966 
L 459 0 
L -275 0 
L 1906 2509 
L 878 4666 
z
" transform="scale(0.015625)"/>
      </defs>
      <use xlink:href="#DejaVuSans-Oblique-58" transform="translate(0 0.09375)"/>
     </g>
    </g>
    <g id="line2d_38">
     <path d="M 399.1 50.094687 
L 409.1 50.094687 
L 419.1 50.094687 
" style="fill: none; stroke: #ff7f0e; stroke-linecap: square"/>
    </g>
    <g id="text_22">
     <!-- $X_1 + X_2 + X_3 + X_4$ -->
     <g transform="translate(427.1 53.594687) scale(0.1 -0.1)">
      <defs>
       <path id="DejaVuSans-2b" d="M 2944 4013 
L 2944 2272 
L 4684 2272 
L 4684 1741 
L 2944 1741 
L 2944 0 
L 2419 0 
L 2419 1741 
L 678 1741 
L 678 2272 
L 2419 2272 
L 2419 4013 
L 2944 4013 
z
" transform="scale(0.015625)"/>
      </defs>
      <use xlink:href="#DejaVuSans-Oblique-58" transform="translate(0 0.09375)"/>
      <use xlink:href="#DejaVuSans-31" transform="translate(68.505859 -16.3125) scale(0.7)"/>
      <use xlink:href="#DejaVuSans-2b" transform="translate(135.258789 0.09375)"/>
      <use xlink:href="#DejaVuSans-Oblique-58" transform="translate(238.530273 0.09375)"/>
      <use xlink:href="#DejaVuSans-32" transform="translate(307.036133 -16.3125) scale(0.7)"/>
      <use xlink:href="#DejaVuSans-2b" transform="translate(373.789062 0.09375)"/>
      <use xlink:href="#DejaVuSans-Oblique-58" transform="translate(477.060547 0.09375)"/>
      <use xlink:href="#DejaVuSans-33" transform="translate(545.566406 -16.3125) scale(0.7)"/>
      <use xlink:href="#DejaVuSans-2b" transform="translate(612.319336 0.09375)"/>
      <use xlink:href="#DejaVuSans-Oblique-58" transform="translate(715.59082 0.09375)"/>
      <use xlink:href="#DejaVuSans-34" transform="translate(784.09668 -16.3125) scale(0.7)"/>
     </g>
    </g>
    <g id="patch_9">
     <path d="M 399.1 68.274375 
L 419.1 68.274375 
L 419.1 61.274375 
L 399.1 61.274375 
L 399.1 68.274375 
z
" style="fill: none; stroke: #2ca02c; stroke-linejoin: miter"/>
    </g>
    <g id="text_23">
     <!-- $X_1 + X_2 + X_3 + X_4$ empirical -->
     <g transform="translate(427.1 68.274375) scale(0.1 -0.1)">
      <defs>
       <path id="DejaVuSans-70" d="M 1159 525 
L 1159 -1331 
L 581 -1331 
L 581 3500 
L 1159 3500 
L 1159 2969 
Q 1341 3281 1617 3432 
Q 1894 3584 2278 3584 
Q 2916 3584 3314 3078 
Q 3713 2572 3713 1747 
Q 3713 922 3314 415 
Q 2916 -91 2278 -91 
Q 1894 -91 1617 61 
Q 1341 213 1159 525 
z
M 3116 1747 
Q 3116 2381 2855 2742 
Q 2594 3103 2138 3103 
Q 1681 3103 1420 2742 
Q 1159 2381 1159 1747 
Q 1159 1113 1420 752 
Q 1681 391 2138 391 
Q 2594 391 2855 752 
Q 3116 1113 3116 1747 
z
" transform="scale(0.015625)"/>
      </defs>
      <use xlink:href="#DejaVuSans-Oblique-58" transform="translate(0 0.015625)"/>
      <use xlink:href="#DejaVuSans-31" transform="translate(68.505859 -16.390625) scale(0.7)"/>
      <use xlink:href="#DejaVuSans-2b" transform="translate(135.258789 0.015625)"/>
      <use xlink:href="#DejaVuSans-Oblique-58" transform="translate(238.530273 0.015625)"/>
      <use xlink:href="#DejaVuSans-32" transform="translate(307.036133 -16.390625) scale(0.7)"/>
      <use xlink:href="#DejaVuSans-2b" transform="translate(373.789062 0.015625)"/>
      <use xlink:href="#DejaVuSans-Oblique-58" transform="translate(477.060547 0.015625)"/>
      <use xlink:href="#DejaVuSans-33" transform="translate(545.566406 -16.390625) scale(0.7)"/>
      <use xlink:href="#DejaVuSans-2b" transform="translate(612.319336 0.015625)"/>
      <use xlink:href="#DejaVuSans-Oblique-58" transform="translate(715.59082 0.015625)"/>
      <use xlink:href="#DejaVuSans-34" transform="translate(784.09668 -16.390625) scale(0.7)"/>
      <use xlink:href="#DejaVuSans-20" transform="translate(831.367188 0.015625)"/>
      <use xlink:href="#DejaVuSans-65" transform="translate(863.154297 0.015625)"/>
      <use xlink:href="#DejaVuSans-6d" transform="translate(924.677734 0.015625)"/>
      <use xlink:href="#DejaVuSans-70" transform="translate(1022.089844 0.015625)"/>
      <use xlink:href="#DejaVuSans-69" transform="translate(1085.566406 0.015625)"/>
      <use xlink:href="#DejaVuSans-72" transform="translate(1113.349609 0.015625)"/>
      <use xlink:href="#DejaVuSans-69" transform="translate(1154.462891 0.015625)"/>
      <use xlink:href="#DejaVuSans-63" transform="translate(1182.246094 0.015625)"/>
      <use xlink:href="#DejaVuSans-61" transform="translate(1237.226562 0.015625)"/>
      <use xlink:href="#DejaVuSans-6c" transform="translate(1298.505859 0.015625)"/>
     </g>
    </g>
   </g>
  </g>
 </g>
 <defs>
  <clipPath id="pcb780e8776">
   <rect x="50.14375" y="22.318125" width="518.65625" height="228.125625"/>
  </clipPath>
 </defs>
</svg>
