<?xml version="1.0" encoding="utf-8" standalone="no"?>
<!DOCTYPE svg PUBLIC "-//W3C//DTD SVG 1.1//EN"
  "http://www.w3.org/Graphics/SVG/1.1/DTD/svg11.dtd">
<svg xmlns:xlink="http://www.w3.org/1999/xlink" width="576pt" height="288pt" viewBox="0 0 576 288" xmlns="http://www.w3.org/2000/svg" version="1.1">
 <metadata>
  <rdf:RDF xmlns:dc="http://purl.org/dc/elements/1.1/" xmlns:cc="http://creativecommons.org/ns#" xmlns:rdf="http://www.w3.org/1999/02/22-rdf-syntax-ns#">
   <cc:Work>
    <dc:type rdf:resource="http://purl.org/dc/dcmitype/StillImage"/>
    <dc:date>2025-05-10T16:55:43.971952</dc:date>
    <dc:format>image/svg+xml</dc:format>
    <dc:creator>
     <cc:Agent>
      <dc:title>Matplotlib v3.10.3, https://matplotlib.org/</dc:title>
     </cc:Agent>
    </dc:creator>
   </cc:Work>
  </rdf:RDF>
 </metadata>
 <defs>
  <style type="text/css">*{stroke-linejoin: round; stroke-linecap: butt}</style>
 </defs>
 <g id="figure_1">
  <g id="patch_1">
   <path d="M 0 288 
L 576 288 
L 576 0 
L 0 0 
z
" style="fill: #ffffff"/>
  </g>
  <g id="axes_1">
   <g id="patch_2">
    <path d="M 43.78125 250.44375 
L 568.8 250.44375 
L 568.8 22.318125 
L 43.78125 22.318125 
z
" style="fill: #ffffff"/>
   </g>
   <g id="matplotlib.axis_1">
    <g id="xtick_1">
     <g id="line2d_1">
      <path d="M 116.121719 250.44375 
L 116.121719 22.318125 
" clip-path="url(#p50189f5fe9)" style="fill: none; stroke-dasharray: 2.96,1.28; stroke-dashoffset: 0; stroke: #b0b0b0; stroke-opacity: 0.8; stroke-width: 0.8"/>
     </g>
     <g id="line2d_2">
      <defs>
       <path id="mae485f9cb1" d="M 0 0 
L 0 3.5 
" style="stroke: #000000; stroke-width: 0.8"/>
      </defs>
      <g>
       <use xlink:href="#mae485f9cb1" x="116.121719" y="250.44375" style="stroke: #000000; stroke-width: 0.8"/>
      </g>
     </g>
     <g id="text_1">
      <!-- −15 -->
      <g transform="translate(105.569375 265.042188) scale(0.1 -0.1)">
       <defs>
        <path id="DejaVuSans-2212" d="M 678 2272 
L 4684 2272 
L 4684 1741 
L 678 1741 
L 678 2272 
z
" transform="scale(0.015625)"/>
        <path id="DejaVuSans-31" d="M 794 531 
L 1825 531 
L 1825 4091 
L 703 3866 
L 703 4441 
L 1819 4666 
L 2450 4666 
L 2450 531 
L 3481 531 
L 3481 0 
L 794 0 
L 794 531 
z
" transform="scale(0.015625)"/>
        <path id="DejaVuSans-35" d="M 691 4666 
L 3169 4666 
L 3169 4134 
L 1269 4134 
L 1269 2991 
Q 1406 3038 1543 3061 
Q 1681 3084 1819 3084 
Q 2600 3084 3056 2656 
Q 3513 2228 3513 1497 
Q 3513 744 3044 326 
Q 2575 -91 1722 -91 
Q 1428 -91 1123 -41 
Q 819 9 494 109 
L 494 744 
Q 775 591 1075 516 
Q 1375 441 1709 441 
Q 2250 441 2565 725 
Q 2881 1009 2881 1497 
Q 2881 1984 2565 2268 
Q 2250 2553 1709 2553 
Q 1456 2553 1204 2497 
Q 953 2441 691 2322 
L 691 4666 
z
" transform="scale(0.015625)"/>
       </defs>
       <use xlink:href="#DejaVuSans-2212"/>
       <use xlink:href="#DejaVuSans-31" transform="translate(83.789062 0)"/>
       <use xlink:href="#DejaVuSans-35" transform="translate(147.412109 0)"/>
      </g>
     </g>
    </g>
    <g id="xtick_2">
     <g id="line2d_3">
      <path d="M 201.884477 250.44375 
L 201.884477 22.318125 
" clip-path="url(#p50189f5fe9)" style="fill: none; stroke-dasharray: 2.96,1.28; stroke-dashoffset: 0; stroke: #b0b0b0; stroke-opacity: 0.8; stroke-width: 0.8"/>
     </g>
     <g id="line2d_4">
      <g>
       <use xlink:href="#mae485f9cb1" x="201.884477" y="250.44375" style="stroke: #000000; stroke-width: 0.8"/>
      </g>
     </g>
     <g id="text_2">
      <!-- −10 -->
      <g transform="translate(191.332134 265.042188) scale(0.1 -0.1)">
       <defs>
        <path id="DejaVuSans-30" d="M 2034 4250 
Q 1547 4250 1301 3770 
Q 1056 3291 1056 2328 
Q 1056 1369 1301 889 
Q 1547 409 2034 409 
Q 2525 409 2770 889 
Q 3016 1369 3016 2328 
Q 3016 3291 2770 3770 
Q 2525 4250 2034 4250 
z
M 2034 4750 
Q 2819 4750 3233 4129 
Q 3647 3509 3647 2328 
Q 3647 1150 3233 529 
Q 2819 -91 2034 -91 
Q 1250 -91 836 529 
Q 422 1150 422 2328 
Q 422 3509 836 4129 
Q 1250 4750 2034 4750 
z
" transform="scale(0.015625)"/>
       </defs>
       <use xlink:href="#DejaVuSans-2212"/>
       <use xlink:href="#DejaVuSans-31" transform="translate(83.789062 0)"/>
       <use xlink:href="#DejaVuSans-30" transform="translate(147.412109 0)"/>
      </g>
     </g>
    </g>
    <g id="xtick_3">
     <g id="line2d_5">
      <path d="M 287.647236 250.44375 
L 287.647236 22.318125 
" clip-path="url(#p50189f5fe9)" style="fill: none; stroke-dasharray: 2.96,1.28; stroke-dashoffset: 0; stroke: #b0b0b0; stroke-opacity: 0.8; stroke-width: 0.8"/>
     </g>
     <g id="line2d_6">
      <g>
       <use xlink:href="#mae485f9cb1" x="287.647236" y="250.44375" style="stroke: #000000; stroke-width: 0.8"/>
      </g>
     </g>
     <g id="text_3">
      <!-- −5 -->
      <g transform="translate(280.276142 265.042188) scale(0.1 -0.1)">
       <use xlink:href="#DejaVuSans-2212"/>
       <use xlink:href="#DejaVuSans-35" transform="translate(83.789062 0)"/>
      </g>
     </g>
    </g>
    <g id="xtick_4">
     <g id="line2d_7">
      <path d="M 373.409994 250.44375 
L 373.409994 22.318125 
" clip-path="url(#p50189f5fe9)" style="fill: none; stroke-dasharray: 2.96,1.28; stroke-dashoffset: 0; stroke: #b0b0b0; stroke-opacity: 0.8; stroke-width: 0.8"/>
     </g>
     <g id="line2d_8">
      <g>
       <use xlink:href="#mae485f9cb1" x="373.409994" y="250.44375" style="stroke: #000000; stroke-width: 0.8"/>
      </g>
     </g>
     <g id="text_4">
      <!-- 0 -->
      <g transform="translate(370.228744 265.042188) scale(0.1 -0.1)">
       <use xlink:href="#DejaVuSans-30"/>
      </g>
     </g>
    </g>
    <g id="xtick_5">
     <g id="line2d_9">
      <path d="M 459.172753 250.44375 
L 459.172753 22.318125 
" clip-path="url(#p50189f5fe9)" style="fill: none; stroke-dasharray: 2.96,1.28; stroke-dashoffset: 0; stroke: #b0b0b0; stroke-opacity: 0.8; stroke-width: 0.8"/>
     </g>
     <g id="line2d_10">
      <g>
       <use xlink:href="#mae485f9cb1" x="459.172753" y="250.44375" style="stroke: #000000; stroke-width: 0.8"/>
      </g>
     </g>
     <g id="text_5">
      <!-- 5 -->
      <g transform="translate(455.991503 265.042188) scale(0.1 -0.1)">
       <use xlink:href="#DejaVuSans-35"/>
      </g>
     </g>
    </g>
    <g id="xtick_6">
     <g id="line2d_11">
      <path d="M 544.935511 250.44375 
L 544.935511 22.318125 
" clip-path="url(#p50189f5fe9)" style="fill: none; stroke-dasharray: 2.96,1.28; stroke-dashoffset: 0; stroke: #b0b0b0; stroke-opacity: 0.8; stroke-width: 0.8"/>
     </g>
     <g id="line2d_12">
      <g>
       <use xlink:href="#mae485f9cb1" x="544.935511" y="250.44375" style="stroke: #000000; stroke-width: 0.8"/>
      </g>
     </g>
     <g id="text_6">
      <!-- 10 -->
      <g transform="translate(538.573011 265.042188) scale(0.1 -0.1)">
       <use xlink:href="#DejaVuSans-31"/>
       <use xlink:href="#DejaVuSans-30" transform="translate(63.623047 0)"/>
      </g>
     </g>
    </g>
    <g id="text_7">
     <!-- Random variable -->
     <g transform="translate(263.83125 278.720312) scale(0.1 -0.1)">
      <defs>
       <path id="DejaVuSans-52" d="M 2841 2188 
Q 3044 2119 3236 1894 
Q 3428 1669 3622 1275 
L 4263 0 
L 3584 0 
L 2988 1197 
Q 2756 1666 2539 1819 
Q 2322 1972 1947 1972 
L 1259 1972 
L 1259 0 
L 628 0 
L 628 4666 
L 2053 4666 
Q 2853 4666 3247 4331 
Q 3641 3997 3641 3322 
Q 3641 2881 3436 2590 
Q 3231 2300 2841 2188 
z
M 1259 4147 
L 1259 2491 
L 2053 2491 
Q 2509 2491 2742 2702 
Q 2975 2913 2975 3322 
Q 2975 3731 2742 3939 
Q 2509 4147 2053 4147 
L 1259 4147 
z
" transform="scale(0.015625)"/>
       <path id="DejaVuSans-61" d="M 2194 1759 
Q 1497 1759 1228 1600 
Q 959 1441 959 1056 
Q 959 750 1161 570 
Q 1363 391 1709 391 
Q 2188 391 2477 730 
Q 2766 1069 2766 1631 
L 2766 1759 
L 2194 1759 
z
M 3341 1997 
L 3341 0 
L 2766 0 
L 2766 531 
Q 2569 213 2275 61 
Q 1981 -91 1556 -91 
Q 1019 -91 701 211 
Q 384 513 384 1019 
Q 384 1609 779 1909 
Q 1175 2209 1959 2209 
L 2766 2209 
L 2766 2266 
Q 2766 2663 2505 2880 
Q 2244 3097 1772 3097 
Q 1472 3097 1187 3025 
Q 903 2953 641 2809 
L 641 3341 
Q 956 3463 1253 3523 
Q 1550 3584 1831 3584 
Q 2591 3584 2966 3190 
Q 3341 2797 3341 1997 
z
" transform="scale(0.015625)"/>
       <path id="DejaVuSans-6e" d="M 3513 2113 
L 3513 0 
L 2938 0 
L 2938 2094 
Q 2938 2591 2744 2837 
Q 2550 3084 2163 3084 
Q 1697 3084 1428 2787 
Q 1159 2491 1159 1978 
L 1159 0 
L 581 0 
L 581 3500 
L 1159 3500 
L 1159 2956 
Q 1366 3272 1645 3428 
Q 1925 3584 2291 3584 
Q 2894 3584 3203 3211 
Q 3513 2838 3513 2113 
z
" transform="scale(0.015625)"/>
       <path id="DejaVuSans-64" d="M 2906 2969 
L 2906 4863 
L 3481 4863 
L 3481 0 
L 2906 0 
L 2906 525 
Q 2725 213 2448 61 
Q 2172 -91 1784 -91 
Q 1150 -91 751 415 
Q 353 922 353 1747 
Q 353 2572 751 3078 
Q 1150 3584 1784 3584 
Q 2172 3584 2448 3432 
Q 2725 3281 2906 2969 
z
M 947 1747 
Q 947 1113 1208 752 
Q 1469 391 1925 391 
Q 2381 391 2643 752 
Q 2906 1113 2906 1747 
Q 2906 2381 2643 2742 
Q 2381 3103 1925 3103 
Q 1469 3103 1208 2742 
Q 947 2381 947 1747 
z
" transform="scale(0.015625)"/>
       <path id="DejaVuSans-6f" d="M 1959 3097 
Q 1497 3097 1228 2736 
Q 959 2375 959 1747 
Q 959 1119 1226 758 
Q 1494 397 1959 397 
Q 2419 397 2687 759 
Q 2956 1122 2956 1747 
Q 2956 2369 2687 2733 
Q 2419 3097 1959 3097 
z
M 1959 3584 
Q 2709 3584 3137 3096 
Q 3566 2609 3566 1747 
Q 3566 888 3137 398 
Q 2709 -91 1959 -91 
Q 1206 -91 779 398 
Q 353 888 353 1747 
Q 353 2609 779 3096 
Q 1206 3584 1959 3584 
z
" transform="scale(0.015625)"/>
       <path id="DejaVuSans-6d" d="M 3328 2828 
Q 3544 3216 3844 3400 
Q 4144 3584 4550 3584 
Q 5097 3584 5394 3201 
Q 5691 2819 5691 2113 
L 5691 0 
L 5113 0 
L 5113 2094 
Q 5113 2597 4934 2840 
Q 4756 3084 4391 3084 
Q 3944 3084 3684 2787 
Q 3425 2491 3425 1978 
L 3425 0 
L 2847 0 
L 2847 2094 
Q 2847 2600 2669 2842 
Q 2491 3084 2119 3084 
Q 1678 3084 1418 2786 
Q 1159 2488 1159 1978 
L 1159 0 
L 581 0 
L 581 3500 
L 1159 3500 
L 1159 2956 
Q 1356 3278 1631 3431 
Q 1906 3584 2284 3584 
Q 2666 3584 2933 3390 
Q 3200 3197 3328 2828 
z
" transform="scale(0.015625)"/>
       <path id="DejaVuSans-20" transform="scale(0.015625)"/>
       <path id="DejaVuSans-76" d="M 191 3500 
L 800 3500 
L 1894 563 
L 2988 3500 
L 3597 3500 
L 2284 0 
L 1503 0 
L 191 3500 
z
" transform="scale(0.015625)"/>
       <path id="DejaVuSans-72" d="M 2631 2963 
Q 2534 3019 2420 3045 
Q 2306 3072 2169 3072 
Q 1681 3072 1420 2755 
Q 1159 2438 1159 1844 
L 1159 0 
L 581 0 
L 581 3500 
L 1159 3500 
L 1159 2956 
Q 1341 3275 1631 3429 
Q 1922 3584 2338 3584 
Q 2397 3584 2469 3576 
Q 2541 3569 2628 3553 
L 2631 2963 
z
" transform="scale(0.015625)"/>
       <path id="DejaVuSans-69" d="M 603 3500 
L 1178 3500 
L 1178 0 
L 603 0 
L 603 3500 
z
M 603 4863 
L 1178 4863 
L 1178 4134 
L 603 4134 
L 603 4863 
z
" transform="scale(0.015625)"/>
       <path id="DejaVuSans-62" d="M 3116 1747 
Q 3116 2381 2855 2742 
Q 2594 3103 2138 3103 
Q 1681 3103 1420 2742 
Q 1159 2381 1159 1747 
Q 1159 1113 1420 752 
Q 1681 391 2138 391 
Q 2594 391 2855 752 
Q 3116 1113 3116 1747 
z
M 1159 2969 
Q 1341 3281 1617 3432 
Q 1894 3584 2278 3584 
Q 2916 3584 3314 3078 
Q 3713 2572 3713 1747 
Q 3713 922 3314 415 
Q 2916 -91 2278 -91 
Q 1894 -91 1617 61 
Q 1341 213 1159 525 
L 1159 0 
L 581 0 
L 581 4863 
L 1159 4863 
L 1159 2969 
z
" transform="scale(0.015625)"/>
       <path id="DejaVuSans-6c" d="M 603 4863 
L 1178 4863 
L 1178 0 
L 603 0 
L 603 4863 
z
" transform="scale(0.015625)"/>
       <path id="DejaVuSans-65" d="M 3597 1894 
L 3597 1613 
L 953 1613 
Q 991 1019 1311 708 
Q 1631 397 2203 397 
Q 2534 397 2845 478 
Q 3156 559 3463 722 
L 3463 178 
Q 3153 47 2828 -22 
Q 2503 -91 2169 -91 
Q 1331 -91 842 396 
Q 353 884 353 1716 
Q 353 2575 817 3079 
Q 1281 3584 2069 3584 
Q 2775 3584 3186 3129 
Q 3597 2675 3597 1894 
z
M 3022 2063 
Q 3016 2534 2758 2815 
Q 2500 3097 2075 3097 
Q 1594 3097 1305 2825 
Q 1016 2553 972 2059 
L 3022 2063 
z
" transform="scale(0.015625)"/>
      </defs>
      <use xlink:href="#DejaVuSans-52"/>
      <use xlink:href="#DejaVuSans-61" transform="translate(67.232422 0)"/>
      <use xlink:href="#DejaVuSans-6e" transform="translate(128.511719 0)"/>
      <use xlink:href="#DejaVuSans-64" transform="translate(191.890625 0)"/>
      <use xlink:href="#DejaVuSans-6f" transform="translate(255.367188 0)"/>
      <use xlink:href="#DejaVuSans-6d" transform="translate(316.548828 0)"/>
      <use xlink:href="#DejaVuSans-20" transform="translate(413.960938 0)"/>
      <use xlink:href="#DejaVuSans-76" transform="translate(445.748047 0)"/>
      <use xlink:href="#DejaVuSans-61" transform="translate(504.927734 0)"/>
      <use xlink:href="#DejaVuSans-72" transform="translate(566.207031 0)"/>
      <use xlink:href="#DejaVuSans-69" transform="translate(607.320312 0)"/>
      <use xlink:href="#DejaVuSans-61" transform="translate(635.103516 0)"/>
      <use xlink:href="#DejaVuSans-62" transform="translate(696.382812 0)"/>
      <use xlink:href="#DejaVuSans-6c" transform="translate(759.859375 0)"/>
      <use xlink:href="#DejaVuSans-65" transform="translate(787.642578 0)"/>
     </g>
    </g>
   </g>
   <g id="matplotlib.axis_2">
    <g id="ytick_1">
     <g id="line2d_13">
      <path d="M 43.78125 250.44375 
L 568.8 250.44375 
" clip-path="url(#p50189f5fe9)" style="fill: none; stroke-dasharray: 2.96,1.28; stroke-dashoffset: 0; stroke: #b0b0b0; stroke-opacity: 0.8; stroke-width: 0.8"/>
     </g>
     <g id="line2d_14">
      <defs>
       <path id="medd4be4e0f" d="M 0 0 
L -3.5 0 
" style="stroke: #000000; stroke-width: 0.8"/>
      </defs>
      <g>
       <use xlink:href="#medd4be4e0f" x="43.78125" y="250.44375" style="stroke: #000000; stroke-width: 0.8"/>
      </g>
     </g>
     <g id="text_8">
      <!-- 0.0 -->
      <g transform="translate(20.878125 254.242969) scale(0.1 -0.1)">
       <defs>
        <path id="DejaVuSans-2e" d="M 684 794 
L 1344 794 
L 1344 0 
L 684 0 
L 684 794 
z
" transform="scale(0.015625)"/>
       </defs>
       <use xlink:href="#DejaVuSans-30"/>
       <use xlink:href="#DejaVuSans-2e" transform="translate(63.623047 0)"/>
       <use xlink:href="#DejaVuSans-30" transform="translate(95.410156 0)"/>
      </g>
     </g>
    </g>
    <g id="ytick_2">
     <g id="line2d_15">
      <path d="M 43.78125 223.213934 
L 568.8 223.213934 
" clip-path="url(#p50189f5fe9)" style="fill: none; stroke-dasharray: 2.96,1.28; stroke-dashoffset: 0; stroke: #b0b0b0; stroke-opacity: 0.8; stroke-width: 0.8"/>
     </g>
     <g id="line2d_16">
      <g>
       <use xlink:href="#medd4be4e0f" x="43.78125" y="223.213934" style="stroke: #000000; stroke-width: 0.8"/>
      </g>
     </g>
     <g id="text_9">
      <!-- 0.1 -->
      <g transform="translate(20.878125 227.013152) scale(0.1 -0.1)">
       <use xlink:href="#DejaVuSans-30"/>
       <use xlink:href="#DejaVuSans-2e" transform="translate(63.623047 0)"/>
       <use xlink:href="#DejaVuSans-31" transform="translate(95.410156 0)"/>
      </g>
     </g>
    </g>
    <g id="ytick_3">
     <g id="line2d_17">
      <path d="M 43.78125 195.984117 
L 568.8 195.984117 
" clip-path="url(#p50189f5fe9)" style="fill: none; stroke-dasharray: 2.96,1.28; stroke-dashoffset: 0; stroke: #b0b0b0; stroke-opacity: 0.8; stroke-width: 0.8"/>
     </g>
     <g id="line2d_18">
      <g>
       <use xlink:href="#medd4be4e0f" x="43.78125" y="195.984117" style="stroke: #000000; stroke-width: 0.8"/>
      </g>
     </g>
     <g id="text_10">
      <!-- 0.2 -->
      <g transform="translate(20.878125 199.783336) scale(0.1 -0.1)">
       <defs>
        <path id="DejaVuSans-32" d="M 1228 531 
L 3431 531 
L 3431 0 
L 469 0 
L 469 531 
Q 828 903 1448 1529 
Q 2069 2156 2228 2338 
Q 2531 2678 2651 2914 
Q 2772 3150 2772 3378 
Q 2772 3750 2511 3984 
Q 2250 4219 1831 4219 
Q 1534 4219 1204 4116 
Q 875 4013 500 3803 
L 500 4441 
Q 881 4594 1212 4672 
Q 1544 4750 1819 4750 
Q 2544 4750 2975 4387 
Q 3406 4025 3406 3419 
Q 3406 3131 3298 2873 
Q 3191 2616 2906 2266 
Q 2828 2175 2409 1742 
Q 1991 1309 1228 531 
z
" transform="scale(0.015625)"/>
       </defs>
       <use xlink:href="#DejaVuSans-30"/>
       <use xlink:href="#DejaVuSans-2e" transform="translate(63.623047 0)"/>
       <use xlink:href="#DejaVuSans-32" transform="translate(95.410156 0)"/>
      </g>
     </g>
    </g>
    <g id="ytick_4">
     <g id="line2d_19">
      <path d="M 43.78125 168.754301 
L 568.8 168.754301 
" clip-path="url(#p50189f5fe9)" style="fill: none; stroke-dasharray: 2.96,1.28; stroke-dashoffset: 0; stroke: #b0b0b0; stroke-opacity: 0.8; stroke-width: 0.8"/>
     </g>
     <g id="line2d_20">
      <g>
       <use xlink:href="#medd4be4e0f" x="43.78125" y="168.754301" style="stroke: #000000; stroke-width: 0.8"/>
      </g>
     </g>
     <g id="text_11">
      <!-- 0.3 -->
      <g transform="translate(20.878125 172.55352) scale(0.1 -0.1)">
       <defs>
        <path id="DejaVuSans-33" d="M 2597 2516 
Q 3050 2419 3304 2112 
Q 3559 1806 3559 1356 
Q 3559 666 3084 287 
Q 2609 -91 1734 -91 
Q 1441 -91 1130 -33 
Q 819 25 488 141 
L 488 750 
Q 750 597 1062 519 
Q 1375 441 1716 441 
Q 2309 441 2620 675 
Q 2931 909 2931 1356 
Q 2931 1769 2642 2001 
Q 2353 2234 1838 2234 
L 1294 2234 
L 1294 2753 
L 1863 2753 
Q 2328 2753 2575 2939 
Q 2822 3125 2822 3475 
Q 2822 3834 2567 4026 
Q 2313 4219 1838 4219 
Q 1578 4219 1281 4162 
Q 984 4106 628 3988 
L 628 4550 
Q 988 4650 1302 4700 
Q 1616 4750 1894 4750 
Q 2613 4750 3031 4423 
Q 3450 4097 3450 3541 
Q 3450 3153 3228 2886 
Q 3006 2619 2597 2516 
z
" transform="scale(0.015625)"/>
       </defs>
       <use xlink:href="#DejaVuSans-30"/>
       <use xlink:href="#DejaVuSans-2e" transform="translate(63.623047 0)"/>
       <use xlink:href="#DejaVuSans-33" transform="translate(95.410156 0)"/>
      </g>
     </g>
    </g>
    <g id="ytick_5">
     <g id="line2d_21">
      <path d="M 43.78125 141.524485 
L 568.8 141.524485 
" clip-path="url(#p50189f5fe9)" style="fill: none; stroke-dasharray: 2.96,1.28; stroke-dashoffset: 0; stroke: #b0b0b0; stroke-opacity: 0.8; stroke-width: 0.8"/>
     </g>
     <g id="line2d_22">
      <g>
       <use xlink:href="#medd4be4e0f" x="43.78125" y="141.524485" style="stroke: #000000; stroke-width: 0.8"/>
      </g>
     </g>
     <g id="text_12">
      <!-- 0.4 -->
      <g transform="translate(20.878125 145.323704) scale(0.1 -0.1)">
       <defs>
        <path id="DejaVuSans-34" d="M 2419 4116 
L 825 1625 
L 2419 1625 
L 2419 4116 
z
M 2253 4666 
L 3047 4666 
L 3047 1625 
L 3713 1625 
L 3713 1100 
L 3047 1100 
L 3047 0 
L 2419 0 
L 2419 1100 
L 313 1100 
L 313 1709 
L 2253 4666 
z
" transform="scale(0.015625)"/>
       </defs>
       <use xlink:href="#DejaVuSans-30"/>
       <use xlink:href="#DejaVuSans-2e" transform="translate(63.623047 0)"/>
       <use xlink:href="#DejaVuSans-34" transform="translate(95.410156 0)"/>
      </g>
     </g>
    </g>
    <g id="ytick_6">
     <g id="line2d_23">
      <path d="M 43.78125 114.294669 
L 568.8 114.294669 
" clip-path="url(#p50189f5fe9)" style="fill: none; stroke-dasharray: 2.96,1.28; stroke-dashoffset: 0; stroke: #b0b0b0; stroke-opacity: 0.8; stroke-width: 0.8"/>
     </g>
     <g id="line2d_24">
      <g>
       <use xlink:href="#medd4be4e0f" x="43.78125" y="114.294669" style="stroke: #000000; stroke-width: 0.8"/>
      </g>
     </g>
     <g id="text_13">
      <!-- 0.5 -->
      <g transform="translate(20.878125 118.093887) scale(0.1 -0.1)">
       <use xlink:href="#DejaVuSans-30"/>
       <use xlink:href="#DejaVuSans-2e" transform="translate(63.623047 0)"/>
       <use xlink:href="#DejaVuSans-35" transform="translate(95.410156 0)"/>
      </g>
     </g>
    </g>
    <g id="ytick_7">
     <g id="line2d_25">
      <path d="M 43.78125 87.064852 
L 568.8 87.064852 
" clip-path="url(#p50189f5fe9)" style="fill: none; stroke-dasharray: 2.96,1.28; stroke-dashoffset: 0; stroke: #b0b0b0; stroke-opacity: 0.8; stroke-width: 0.8"/>
     </g>
     <g id="line2d_26">
      <g>
       <use xlink:href="#medd4be4e0f" x="43.78125" y="87.064852" style="stroke: #000000; stroke-width: 0.8"/>
      </g>
     </g>
     <g id="text_14">
      <!-- 0.6 -->
      <g transform="translate(20.878125 90.864071) scale(0.1 -0.1)">
       <defs>
        <path id="DejaVuSans-36" d="M 2113 2584 
Q 1688 2584 1439 2293 
Q 1191 2003 1191 1497 
Q 1191 994 1439 701 
Q 1688 409 2113 409 
Q 2538 409 2786 701 
Q 3034 994 3034 1497 
Q 3034 2003 2786 2293 
Q 2538 2584 2113 2584 
z
M 3366 4563 
L 3366 3988 
Q 3128 4100 2886 4159 
Q 2644 4219 2406 4219 
Q 1781 4219 1451 3797 
Q 1122 3375 1075 2522 
Q 1259 2794 1537 2939 
Q 1816 3084 2150 3084 
Q 2853 3084 3261 2657 
Q 3669 2231 3669 1497 
Q 3669 778 3244 343 
Q 2819 -91 2113 -91 
Q 1303 -91 875 529 
Q 447 1150 447 2328 
Q 447 3434 972 4092 
Q 1497 4750 2381 4750 
Q 2619 4750 2861 4703 
Q 3103 4656 3366 4563 
z
" transform="scale(0.015625)"/>
       </defs>
       <use xlink:href="#DejaVuSans-30"/>
       <use xlink:href="#DejaVuSans-2e" transform="translate(63.623047 0)"/>
       <use xlink:href="#DejaVuSans-36" transform="translate(95.410156 0)"/>
      </g>
     </g>
    </g>
    <g id="ytick_8">
     <g id="line2d_27">
      <path d="M 43.78125 59.835036 
L 568.8 59.835036 
" clip-path="url(#p50189f5fe9)" style="fill: none; stroke-dasharray: 2.96,1.28; stroke-dashoffset: 0; stroke: #b0b0b0; stroke-opacity: 0.8; stroke-width: 0.8"/>
     </g>
     <g id="line2d_28">
      <g>
       <use xlink:href="#medd4be4e0f" x="43.78125" y="59.835036" style="stroke: #000000; stroke-width: 0.8"/>
      </g>
     </g>
     <g id="text_15">
      <!-- 0.7 -->
      <g transform="translate(20.878125 63.634255) scale(0.1 -0.1)">
       <defs>
        <path id="DejaVuSans-37" d="M 525 4666 
L 3525 4666 
L 3525 4397 
L 1831 0 
L 1172 0 
L 2766 4134 
L 525 4134 
L 525 4666 
z
" transform="scale(0.015625)"/>
       </defs>
       <use xlink:href="#DejaVuSans-30"/>
       <use xlink:href="#DejaVuSans-2e" transform="translate(63.623047 0)"/>
       <use xlink:href="#DejaVuSans-37" transform="translate(95.410156 0)"/>
      </g>
     </g>
    </g>
    <g id="ytick_9">
     <g id="line2d_29">
      <path d="M 43.78125 32.60522 
L 568.8 32.60522 
" clip-path="url(#p50189f5fe9)" style="fill: none; stroke-dasharray: 2.96,1.28; stroke-dashoffset: 0; stroke: #b0b0b0; stroke-opacity: 0.8; stroke-width: 0.8"/>
     </g>
     <g id="line2d_30">
      <g>
       <use xlink:href="#medd4be4e0f" x="43.78125" y="32.60522" style="stroke: #000000; stroke-width: 0.8"/>
      </g>
     </g>
     <g id="text_16">
      <!-- 0.8 -->
      <g transform="translate(20.878125 36.404439) scale(0.1 -0.1)">
       <defs>
        <path id="DejaVuSans-38" d="M 2034 2216 
Q 1584 2216 1326 1975 
Q 1069 1734 1069 1313 
Q 1069 891 1326 650 
Q 1584 409 2034 409 
Q 2484 409 2743 651 
Q 3003 894 3003 1313 
Q 3003 1734 2745 1975 
Q 2488 2216 2034 2216 
z
M 1403 2484 
Q 997 2584 770 2862 
Q 544 3141 544 3541 
Q 544 4100 942 4425 
Q 1341 4750 2034 4750 
Q 2731 4750 3128 4425 
Q 3525 4100 3525 3541 
Q 3525 3141 3298 2862 
Q 3072 2584 2669 2484 
Q 3125 2378 3379 2068 
Q 3634 1759 3634 1313 
Q 3634 634 3220 271 
Q 2806 -91 2034 -91 
Q 1263 -91 848 271 
Q 434 634 434 1313 
Q 434 1759 690 2068 
Q 947 2378 1403 2484 
z
M 1172 3481 
Q 1172 3119 1398 2916 
Q 1625 2713 2034 2713 
Q 2441 2713 2670 2916 
Q 2900 3119 2900 3481 
Q 2900 3844 2670 4047 
Q 2441 4250 2034 4250 
Q 1625 4250 1398 4047 
Q 1172 3844 1172 3481 
z
" transform="scale(0.015625)"/>
       </defs>
       <use xlink:href="#DejaVuSans-30"/>
       <use xlink:href="#DejaVuSans-2e" transform="translate(63.623047 0)"/>
       <use xlink:href="#DejaVuSans-38" transform="translate(95.410156 0)"/>
      </g>
     </g>
    </g>
    <g id="text_17">
     <!-- Probability density -->
     <g transform="translate(14.798438 182.731719) rotate(-90) scale(0.1 -0.1)">
      <defs>
       <path id="DejaVuSans-50" d="M 1259 4147 
L 1259 2394 
L 2053 2394 
Q 2494 2394 2734 2622 
Q 2975 2850 2975 3272 
Q 2975 3691 2734 3919 
Q 2494 4147 2053 4147 
L 1259 4147 
z
M 628 4666 
L 2053 4666 
Q 2838 4666 3239 4311 
Q 3641 3956 3641 3272 
Q 3641 2581 3239 2228 
Q 2838 1875 2053 1875 
L 1259 1875 
L 1259 0 
L 628 0 
L 628 4666 
z
" transform="scale(0.015625)"/>
       <path id="DejaVuSans-74" d="M 1172 4494 
L 1172 3500 
L 2356 3500 
L 2356 3053 
L 1172 3053 
L 1172 1153 
Q 1172 725 1289 603 
Q 1406 481 1766 481 
L 2356 481 
L 2356 0 
L 1766 0 
Q 1100 0 847 248 
Q 594 497 594 1153 
L 594 3053 
L 172 3053 
L 172 3500 
L 594 3500 
L 594 4494 
L 1172 4494 
z
" transform="scale(0.015625)"/>
       <path id="DejaVuSans-79" d="M 2059 -325 
Q 1816 -950 1584 -1140 
Q 1353 -1331 966 -1331 
L 506 -1331 
L 506 -850 
L 844 -850 
Q 1081 -850 1212 -737 
Q 1344 -625 1503 -206 
L 1606 56 
L 191 3500 
L 800 3500 
L 1894 763 
L 2988 3500 
L 3597 3500 
L 2059 -325 
z
" transform="scale(0.015625)"/>
       <path id="DejaVuSans-73" d="M 2834 3397 
L 2834 2853 
Q 2591 2978 2328 3040 
Q 2066 3103 1784 3103 
Q 1356 3103 1142 2972 
Q 928 2841 928 2578 
Q 928 2378 1081 2264 
Q 1234 2150 1697 2047 
L 1894 2003 
Q 2506 1872 2764 1633 
Q 3022 1394 3022 966 
Q 3022 478 2636 193 
Q 2250 -91 1575 -91 
Q 1294 -91 989 -36 
Q 684 19 347 128 
L 347 722 
Q 666 556 975 473 
Q 1284 391 1588 391 
Q 1994 391 2212 530 
Q 2431 669 2431 922 
Q 2431 1156 2273 1281 
Q 2116 1406 1581 1522 
L 1381 1569 
Q 847 1681 609 1914 
Q 372 2147 372 2553 
Q 372 3047 722 3315 
Q 1072 3584 1716 3584 
Q 2034 3584 2315 3537 
Q 2597 3491 2834 3397 
z
" transform="scale(0.015625)"/>
      </defs>
      <use xlink:href="#DejaVuSans-50"/>
      <use xlink:href="#DejaVuSans-72" transform="translate(58.552734 0)"/>
      <use xlink:href="#DejaVuSans-6f" transform="translate(97.416016 0)"/>
      <use xlink:href="#DejaVuSans-62" transform="translate(158.597656 0)"/>
      <use xlink:href="#DejaVuSans-61" transform="translate(222.074219 0)"/>
      <use xlink:href="#DejaVuSans-62" transform="translate(283.353516 0)"/>
      <use xlink:href="#DejaVuSans-69" transform="translate(346.830078 0)"/>
      <use xlink:href="#DejaVuSans-6c" transform="translate(374.613281 0)"/>
      <use xlink:href="#DejaVuSans-69" transform="translate(402.396484 0)"/>
      <use xlink:href="#DejaVuSans-74" transform="translate(430.179688 0)"/>
      <use xlink:href="#DejaVuSans-79" transform="translate(469.388672 0)"/>
      <use xlink:href="#DejaVuSans-20" transform="translate(528.568359 0)"/>
      <use xlink:href="#DejaVuSans-64" transform="translate(560.355469 0)"/>
      <use xlink:href="#DejaVuSans-65" transform="translate(623.832031 0)"/>
      <use xlink:href="#DejaVuSans-6e" transform="translate(685.355469 0)"/>
      <use xlink:href="#DejaVuSans-73" transform="translate(748.734375 0)"/>
      <use xlink:href="#DejaVuSans-69" transform="translate(800.833984 0)"/>
      <use xlink:href="#DejaVuSans-74" transform="translate(828.617188 0)"/>
      <use xlink:href="#DejaVuSans-79" transform="translate(867.826172 0)"/>
     </g>
    </g>
   </g>
   <g id="line2d_31">
    <path d="M 116.121719 250.44375 
L 322.809967 250.335563 
L 325.38285 250.11051 
L 327.098105 249.772688 
L 328.384546 249.338738 
L 329.670988 248.664652 
L 330.957429 247.643087 
L 331.815057 246.700867 
L 332.672684 245.491429 
L 333.530312 243.956386 
L 334.387939 242.030092 
L 335.245567 239.6404 
L 336.103194 236.71 
L 336.960822 233.158452 
L 337.81845 228.904943 
L 339.104891 221.040468 
L 340.391332 211.197484 
L 341.677774 199.224968 
L 342.964215 185.087289 
L 344.67947 163.099579 
L 346.823539 131.802255 
L 350.25405 80.391405 
L 351.540491 63.677787 
L 352.826932 49.885185 
L 353.68456 42.741347 
L 354.542188 37.483336 
L 354.971001 35.611756 
L 355.399815 34.264851 
L 355.828629 33.452658 
L 356.257443 33.18125 
L 356.686257 33.452658 
L 357.11507 34.264851 
L 357.543884 35.611756 
L 357.972698 37.483336 
L 358.830325 42.741347 
L 359.687953 49.885185 
L 360.545581 58.710267 
L 361.832022 74.55419 
L 363.547277 99.054202 
L 368.264229 168.902722 
L 369.979484 190.036671 
L 371.265925 203.457439 
L 372.552367 214.709618 
L 373.838808 223.871796 
L 375.12525 231.124417 
L 376.411691 236.71 
L 377.269319 239.6404 
L 378.126946 242.030092 
L 378.984574 243.956386 
L 379.842201 245.491429 
L 380.699829 246.700867 
L 381.557456 247.643087 
L 382.843898 248.664652 
L 384.130339 249.338738 
L 385.416781 249.772688 
L 387.132036 250.11051 
L 389.704919 250.335563 
L 393.993056 250.430166 
L 413.718491 250.44375 
L 544.935511 250.44375 
L 544.935511 250.44375 
" clip-path="url(#p50189f5fe9)" style="fill: none; stroke: #1f77b4; stroke-linecap: square"/>
   </g>
   <g id="line2d_32">
    <path d="M 116.121719 250.44375 
L 315.091319 250.33267 
L 323.667595 250.094882 
L 329.670988 249.716192 
L 334.387939 249.196122 
L 338.247263 248.552016 
L 341.677774 247.756267 
L 344.67947 246.842633 
L 347.681167 245.683635 
L 350.25405 244.462646 
L 352.826932 243.003247 
L 355.399815 241.279851 
L 357.972698 239.269577 
L 360.545581 236.953888 
L 363.118463 234.320347 
L 365.691346 231.364428 
L 368.264229 228.091244 
L 371.265925 223.893961 
L 374.696436 218.657882 
L 378.55576 212.341559 
L 389.704919 193.759635 
L 392.706615 189.353326 
L 395.279498 186.006721 
L 397.423567 183.590895 
L 399.138822 181.936577 
L 400.854077 180.55264 
L 402.569332 179.456945 
L 404.284587 178.663805 
L 405.571029 178.273942 
L 406.85747 178.063139 
L 408.143912 178.032974 
L 409.430353 178.183673 
L 410.716794 178.514107 
L 412.43205 179.229819 
L 414.147305 180.251071 
L 415.86256 181.56449 
L 417.577815 183.153067 
L 419.721884 185.49457 
L 421.865953 188.188429 
L 424.438836 191.813897 
L 427.440532 196.464208 
L 431.72867 203.594338 
L 440.304946 217.975205 
L 443.735456 223.263407 
L 446.737153 227.515836 
L 449.738849 231.364428 
L 452.311732 234.320347 
L 454.884615 236.953888 
L 457.457498 239.269577 
L 460.03038 241.279851 
L 462.603263 243.003247 
L 465.176146 244.462646 
L 467.749029 245.683635 
L 470.750725 246.842633 
L 473.752422 247.756267 
L 477.182932 248.552016 
L 481.042256 249.196122 
L 485.330394 249.678571 
L 490.47616 250.033496 
L 497.33718 250.275837 
L 508.057525 250.407688 
L 535.501608 250.443431 
L 544.935511 250.443702 
L 544.935511 250.443702 
" clip-path="url(#p50189f5fe9)" style="fill: none; stroke: #ff7f0e; stroke-linecap: square"/>
   </g>
   <g id="line2d_33">
    <path d="M 116.121719 250.437257 
L 180.014974 250.293011 
L 210.460753 249.836449 
L 221.181098 249.454948 
L 223.325167 249.361703 
L 227.184491 249.149664 
L 228.899746 249.070655 
L 231.472629 248.898796 
L 233.187884 248.805459 
L 236.189581 248.548414 
L 237.047208 248.492664 
L 238.33365 248.376529 
L 239.191277 248.316068 
L 240.906533 248.124629 
L 242.192974 248.057328 
L 244.337043 247.769532 
L 245.623484 247.69271 
L 247.767553 247.364519 
L 249.053995 247.276999 
L 251.198064 246.903479 
L 252.484505 246.80397 
L 254.628574 246.379735 
L 255.057388 246.379735 
L 256.772643 246.0324 
L 257.201457 246.0324 
L 258.059084 245.78604 
L 258.487898 245.78604 
L 258.916712 245.658228 
L 259.345526 245.658228 
L 260.203153 245.393015 
L 260.631967 245.393015 
L 261.489595 245.114571 
L 261.918408 245.114571 
L 262.347222 244.970216 
L 262.776036 244.970216 
L 263.633664 244.670894 
L 264.062477 244.670894 
L 264.920105 244.356947 
L 265.348919 244.356947 
L 265.777733 244.194309 
L 266.206546 244.194309 
L 267.064174 243.857334 
L 267.492988 243.857334 
L 267.921802 243.682848 
L 268.350615 243.682848 
L 269.208243 243.3215 
L 269.637057 243.3215 
L 270.494684 242.943137 
L 270.923498 242.943137 
L 271.352312 242.747381 
L 271.781126 242.747381 
L 272.638753 242.342325 
L 273.067567 242.342325 
L 273.925195 241.918679 
L 274.354008 241.918679 
L 274.782822 241.699685 
L 275.211636 241.699685 
L 276.069264 241.246951 
L 276.498077 241.246951 
L 277.355705 240.774013 
L 277.784519 240.774013 
L 278.213333 240.529765 
L 278.642146 240.529765 
L 279.499774 240.025302 
L 279.928588 240.025302 
L 280.786215 239.499008 
L 281.215029 239.499008 
L 281.643843 239.227473 
L 282.072657 239.227473 
L 282.930284 238.667222 
L 283.359098 238.667222 
L 284.216726 238.083535 
L 284.645539 238.083535 
L 285.074353 237.782707 
L 285.503167 237.782707 
L 286.360795 237.162693 
L 286.789608 237.162693 
L 287.647236 236.517702 
L 288.07605 236.517702 
L 288.504864 236.185656 
L 288.933677 236.185656 
L 289.791305 235.502105 
L 290.220119 235.502105 
L 291.077746 234.792155 
L 291.50656 234.792155 
L 291.935374 234.427115 
L 292.364188 234.427115 
L 293.221815 233.676597 
L 293.650629 233.676597 
L 294.508257 232.898441 
L 294.93707 232.898441 
L 295.365884 232.498863 
L 295.794698 232.498863 
L 296.652326 231.678467 
L 297.081139 231.678467 
L 297.938767 230.829459 
L 298.367581 230.829459 
L 298.796395 230.394132 
L 299.225208 230.394132 
L 300.082836 229.501675 
L 300.51165 229.501675 
L 301.369277 228.579994 
L 301.798091 228.579994 
L 302.226905 228.108153 
L 302.655719 228.108153 
L 303.513346 227.142434 
L 303.94216 227.142434 
L 304.799788 226.147346 
L 305.228601 226.147346 
L 305.657415 225.638816 
L 306.086229 225.638816 
L 306.943857 224.599899 
L 307.37267 224.599899 
L 308.230298 223.532066 
L 308.659112 223.532066 
L 309.087926 222.987421 
L 309.516739 222.987421 
L 310.374367 221.876971 
L 310.803181 221.876971 
L 311.231995 221.311311 
L 311.660808 221.311311 
L 312.518436 220.159547 
L 312.94725 220.159547 
L 313.804877 218.981211 
L 314.233691 218.981211 
L 314.662505 218.382372 
L 315.091319 218.382372 
L 315.948946 217.166035 
L 316.37776 217.166035 
L 317.235388 215.925861 
L 317.664201 215.925861 
L 318.093015 215.297272 
L 318.521829 215.297272 
L 319.379457 214.024072 
L 319.80827 214.024072 
L 320.665898 212.730978 
L 321.094712 212.730978 
L 321.523526 212.077574 
L 321.952339 212.077574 
L 322.809967 210.758389 
L 323.238781 210.758389 
L 324.096408 209.424662 
L 324.525222 209.424662 
L 324.954036 208.753143 
L 325.38285 208.753143 
L 326.240477 207.402533 
L 326.669291 207.402533 
L 327.526919 206.044357 
L 327.955732 206.044357 
L 328.384546 205.363449 
L 328.81336 205.363449 
L 329.670988 204.000195 
L 330.099801 204.000195 
L 330.957429 202.638189 
L 331.386243 202.638189 
L 331.815057 201.958919 
L 332.24387 201.958919 
L 333.101498 200.606557 
L 333.530312 200.606557 
L 334.387939 199.266305 
L 334.816753 199.266305 
L 335.245567 198.602256 
L 335.674381 198.602256 
L 336.532008 197.289584 
L 336.960822 197.289584 
L 337.81845 196.002117 
L 338.247263 196.002117 
L 338.676077 195.369663 
L 339.104891 195.369663 
L 339.962519 194.131181 
L 340.391332 194.131181 
L 341.24896 192.933376 
L 341.677774 192.933376 
L 342.106588 192.351862 
L 342.535401 192.351862 
L 343.393029 191.22809 
L 343.821843 191.22809 
L 344.67947 190.162925 
L 345.108284 190.162925 
L 345.537098 189.654761 
L 345.965912 189.654761 
L 346.823539 188.692359 
L 347.252353 188.692359 
L 348.109981 187.808918 
L 348.538794 187.808918 
L 348.967608 187.399537 
L 349.396422 187.399537 
L 350.25405 186.651102 
L 350.682863 186.651102 
L 351.540491 186.004185 
L 351.969305 186.004185 
L 352.398119 185.721767 
L 352.826932 185.721767 
L 353.68456 185.245074 
L 354.113374 185.245074 
L 354.542188 185.053257 
L 354.971001 185.053257 
L 355.828629 184.768868 
L 356.686257 184.678771 
L 357.972698 184.608889 
L 359.687953 184.694009 
L 362.260836 185.363774 
L 362.68965 185.640385 
L 363.118463 185.640385 
L 363.976091 186.327985 
L 364.404905 186.327985 
L 364.833719 186.738667 
L 365.262532 186.738667 
L 366.12016 187.688458 
L 366.548974 187.688458 
L 367.406601 188.789085 
L 367.835415 188.789085 
L 368.264229 189.379942 
L 368.693043 189.379942 
L 369.55067 190.56664 
L 369.979484 190.56664 
L 370.837112 191.476992 
L 372.123553 191.517247 
L 372.552367 190.62082 
L 372.981181 184.927438 
L 373.409994 184.927438 
L 374.267622 203.387772 
L 374.696436 203.387772 
L 375.12525 208.778393 
L 375.554063 208.778393 
L 376.411691 216.142771 
L 376.840505 216.142771 
L 377.698132 221.368307 
L 378.126946 221.368307 
L 378.55576 223.510471 
L 378.984574 223.510471 
L 379.842201 227.145446 
L 380.271015 227.145446 
L 381.128643 230.132099 
L 381.557456 230.132099 
L 381.98627 231.436876 
L 382.415084 231.436876 
L 383.272712 233.742707 
L 383.701525 233.742707 
L 384.559153 235.713782 
L 384.987967 235.713782 
L 385.416781 236.594276 
L 385.845594 236.594276 
L 386.703222 238.176666 
L 387.132036 238.176666 
L 387.989663 239.554137 
L 388.418477 239.554137 
L 388.847291 240.17638 
L 389.276105 240.17638 
L 390.133732 241.304822 
L 390.562546 241.304822 
L 391.420174 242.297308 
L 391.848988 242.297308 
L 392.277801 242.748627 
L 392.706615 242.748627 
L 393.564243 243.571688 
L 393.993056 243.571688 
L 394.850684 244.30035 
L 395.279498 244.30035 
L 395.708312 244.633142 
L 396.137125 244.633142 
L 396.994753 245.24233 
L 397.423567 245.24233 
L 397.852381 245.521096 
L 398.281194 245.521096 
L 399.138822 246.032255 
L 399.567636 246.032255 
L 400.425263 246.487764 
L 400.854077 246.487764 
L 401.282891 246.696727 
L 401.711705 246.696727 
L 402.569332 247.080742 
L 402.998146 247.080742 
L 403.855774 247.423876 
L 404.284587 247.423876 
L 404.713401 247.581582 
L 405.142215 247.581582 
L 405.999843 247.871884 
L 406.428656 247.871884 
L 407.286284 248.131815 
L 407.715098 248.131815 
L 408.143912 248.251451 
L 408.572725 248.251451 
L 409.430353 248.47196 
L 410.287981 248.573522 
L 411.574422 248.760837 
L 412.43205 248.847164 
L 414.147305 249.079927 
L 415.433746 249.149551 
L 417.577815 249.393679 
L 419.29307 249.497594 
L 421.865953 249.675168 
L 424.010022 249.785828 
L 427.011718 249.908724 
L 431.299856 250.070717 
L 436.016808 250.169632 
L 442.877829 250.279452 
L 453.16936 250.367296 
L 472.037167 250.425316 
L 544.935511 250.443664 
L 544.935511 250.443664 
" clip-path="url(#p50189f5fe9)" style="fill: none; stroke: #2ca02c; stroke-linecap: square"/>
   </g>
   <g id="patch_3">
    <path d="M 67.645739 250.44375 
L 67.645739 250.432869 
L 174.953088 250.378462 
L 174.953088 250.258767 
L 192.122264 250.237004 
L 192.122264 250.030258 
L 204.999146 250.084664 
L 204.999146 249.758223 
L 213.583734 249.81263 
L 213.583734 249.595002 
L 217.876028 249.595002 
L 217.876028 249.377375 
L 226.460616 249.344731 
L 226.460616 249.072696 
L 230.75291 249.072696 
L 230.75291 248.811543 
L 235.045204 248.811543 
L 235.045204 248.670085 
L 239.337498 248.670085 
L 239.337498 248.104253 
L 243.629792 248.104253 
L 243.629792 247.864863 
L 247.922086 247.864863 
L 247.922086 247.13581 
L 252.21438 247.13581 
L 252.21438 246.831132 
L 256.506673 246.831132 
L 256.506673 245.71035 
L 260.798967 245.71035 
L 260.798967 245.198925 
L 265.091261 245.198925 
L 265.091261 243.969329 
L 269.383555 243.969329 
L 269.383555 243.044411 
L 273.675849 243.044411 
L 273.675849 241.45573 
L 277.968143 241.45573 
L 277.968143 239.116233 
L 282.260437 239.116233 
L 282.260437 237.919281 
L 286.552731 237.919281 
L 286.552731 235.93887 
L 290.845025 235.93887 
L 290.845025 234.491646 
L 295.137319 234.491646 
L 295.137319 231.52103 
L 299.429613 231.52103 
L 299.429613 228.800685 
L 303.721907 228.800685 
L 303.721907 226.156509 
L 308.014201 226.156509 
L 308.014201 221.04226 
L 312.306495 221.04226 
L 312.306495 217.549337 
L 316.598789 217.549337 
L 316.598789 214.785467 
L 320.891083 214.785467 
L 320.891083 210.47644 
L 325.183377 210.47644 
L 325.183377 206.548262 
L 329.475671 206.548262 
L 329.475671 201.891031 
L 333.767965 201.891031 
L 333.767965 198.311057 
L 338.060259 198.311057 
L 338.060259 193.958505 
L 342.352553 193.958505 
L 342.352553 191.336092 
L 346.644847 191.336092 
L 346.644847 187.005303 
L 350.937141 187.005303 
L 350.937141 185.775707 
L 355.229435 185.775707 
L 355.229435 185.547198 
L 359.521729 185.547198 
L 359.521729 185.111943 
L 363.814023 185.111943 
L 363.814023 187.505846 
L 368.106317 187.505846 
L 368.106317 189.725648 
L 372.398611 189.725648 
L 372.398611 200.8573 
L 376.690905 200.8573 
L 376.690905 224.012877 
L 380.983199 224.012877 
L 380.983199 233.305576 
L 385.275493 233.305576 
L 385.275493 238.702741 
L 389.567787 238.702741 
L 389.567787 242.620038 
L 393.860081 242.620038 
L 393.860081 244.872483 
L 398.152375 244.872483 
L 398.152375 246.319707 
L 402.444669 246.319707 
L 402.444669 247.832219 
L 406.736963 247.832219 
L 406.736963 248.213067 
L 411.029257 248.213067 
L 411.029257 249.040052 
L 415.321551 249.040052 
L 415.321551 249.192391 
L 419.613845 249.192391 
L 419.613845 249.758223 
L 423.906138 249.758223 
L 423.906138 249.932325 
L 432.490726 249.997613 
L 432.490726 250.280529 
L 462.536784 250.378462 
L 462.536784 250.421987 
L 501.16743 250.432869 
L 501.16743 250.44375 
" clip-path="url(#p50189f5fe9)" style="fill: none; stroke: #d62728; stroke-linejoin: miter"/>
   </g>
   <g id="patch_4">
    <path d="M 43.78125 250.44375 
L 43.78125 22.318125 
" style="fill: none; stroke: #000000; stroke-width: 0.8; stroke-linejoin: miter; stroke-linecap: square"/>
   </g>
   <g id="patch_5">
    <path d="M 568.8 250.44375 
L 568.8 22.318125 
" style="fill: none; stroke: #000000; stroke-width: 0.8; stroke-linejoin: miter; stroke-linecap: square"/>
   </g>
   <g id="patch_6">
    <path d="M 43.78125 250.44375 
L 568.8 250.44375 
" style="fill: none; stroke: #000000; stroke-width: 0.8; stroke-linejoin: miter; stroke-linecap: square"/>
   </g>
   <g id="patch_7">
    <path d="M 43.78125 22.318125 
L 568.8 22.318125 
" style="fill: none; stroke: #000000; stroke-width: 0.8; stroke-linejoin: miter; stroke-linecap: square"/>
   </g>
   <g id="text_18">
    <!-- Product of two normal random variables -->
    <g transform="translate(185.638125 16.318125) scale(0.12 -0.12)">
     <defs>
      <path id="DejaVuSans-75" d="M 544 1381 
L 544 3500 
L 1119 3500 
L 1119 1403 
Q 1119 906 1312 657 
Q 1506 409 1894 409 
Q 2359 409 2629 706 
Q 2900 1003 2900 1516 
L 2900 3500 
L 3475 3500 
L 3475 0 
L 2900 0 
L 2900 538 
Q 2691 219 2414 64 
Q 2138 -91 1772 -91 
Q 1169 -91 856 284 
Q 544 659 544 1381 
z
M 1991 3584 
L 1991 3584 
z
" transform="scale(0.015625)"/>
      <path id="DejaVuSans-63" d="M 3122 3366 
L 3122 2828 
Q 2878 2963 2633 3030 
Q 2388 3097 2138 3097 
Q 1578 3097 1268 2742 
Q 959 2388 959 1747 
Q 959 1106 1268 751 
Q 1578 397 2138 397 
Q 2388 397 2633 464 
Q 2878 531 3122 666 
L 3122 134 
Q 2881 22 2623 -34 
Q 2366 -91 2075 -91 
Q 1284 -91 818 406 
Q 353 903 353 1747 
Q 353 2603 823 3093 
Q 1294 3584 2113 3584 
Q 2378 3584 2631 3529 
Q 2884 3475 3122 3366 
z
" transform="scale(0.015625)"/>
      <path id="DejaVuSans-66" d="M 2375 4863 
L 2375 4384 
L 1825 4384 
Q 1516 4384 1395 4259 
Q 1275 4134 1275 3809 
L 1275 3500 
L 2222 3500 
L 2222 3053 
L 1275 3053 
L 1275 0 
L 697 0 
L 697 3053 
L 147 3053 
L 147 3500 
L 697 3500 
L 697 3744 
Q 697 4328 969 4595 
Q 1241 4863 1831 4863 
L 2375 4863 
z
" transform="scale(0.015625)"/>
      <path id="DejaVuSans-77" d="M 269 3500 
L 844 3500 
L 1563 769 
L 2278 3500 
L 2956 3500 
L 3675 769 
L 4391 3500 
L 4966 3500 
L 4050 0 
L 3372 0 
L 2619 2869 
L 1863 0 
L 1184 0 
L 269 3500 
z
" transform="scale(0.015625)"/>
     </defs>
     <use xlink:href="#DejaVuSans-50"/>
     <use xlink:href="#DejaVuSans-72" transform="translate(58.552734 0)"/>
     <use xlink:href="#DejaVuSans-6f" transform="translate(97.416016 0)"/>
     <use xlink:href="#DejaVuSans-64" transform="translate(158.597656 0)"/>
     <use xlink:href="#DejaVuSans-75" transform="translate(222.074219 0)"/>
     <use xlink:href="#DejaVuSans-63" transform="translate(285.453125 0)"/>
     <use xlink:href="#DejaVuSans-74" transform="translate(340.433594 0)"/>
     <use xlink:href="#DejaVuSans-20" transform="translate(379.642578 0)"/>
     <use xlink:href="#DejaVuSans-6f" transform="translate(411.429688 0)"/>
     <use xlink:href="#DejaVuSans-66" transform="translate(472.611328 0)"/>
     <use xlink:href="#DejaVuSans-20" transform="translate(507.816406 0)"/>
     <use xlink:href="#DejaVuSans-74" transform="translate(539.603516 0)"/>
     <use xlink:href="#DejaVuSans-77" transform="translate(578.8125 0)"/>
     <use xlink:href="#DejaVuSans-6f" transform="translate(660.599609 0)"/>
     <use xlink:href="#DejaVuSans-20" transform="translate(721.78125 0)"/>
     <use xlink:href="#DejaVuSans-6e" transform="translate(753.568359 0)"/>
     <use xlink:href="#DejaVuSans-6f" transform="translate(816.947266 0)"/>
     <use xlink:href="#DejaVuSans-72" transform="translate(878.128906 0)"/>
     <use xlink:href="#DejaVuSans-6d" transform="translate(917.492188 0)"/>
     <use xlink:href="#DejaVuSans-61" transform="translate(1014.904297 0)"/>
     <use xlink:href="#DejaVuSans-6c" transform="translate(1076.183594 0)"/>
     <use xlink:href="#DejaVuSans-20" transform="translate(1103.966797 0)"/>
     <use xlink:href="#DejaVuSans-72" transform="translate(1135.753906 0)"/>
     <use xlink:href="#DejaVuSans-61" transform="translate(1176.867188 0)"/>
     <use xlink:href="#DejaVuSans-6e" transform="translate(1238.146484 0)"/>
     <use xlink:href="#DejaVuSans-64" transform="translate(1301.525391 0)"/>
     <use xlink:href="#DejaVuSans-6f" transform="translate(1365.001953 0)"/>
     <use xlink:href="#DejaVuSans-6d" transform="translate(1426.183594 0)"/>
     <use xlink:href="#DejaVuSans-20" transform="translate(1523.595703 0)"/>
     <use xlink:href="#DejaVuSans-76" transform="translate(1555.382812 0)"/>
     <use xlink:href="#DejaVuSans-61" transform="translate(1614.5625 0)"/>
     <use xlink:href="#DejaVuSans-72" transform="translate(1675.841797 0)"/>
     <use xlink:href="#DejaVuSans-69" transform="translate(1716.955078 0)"/>
     <use xlink:href="#DejaVuSans-61" transform="translate(1744.738281 0)"/>
     <use xlink:href="#DejaVuSans-62" transform="translate(1806.017578 0)"/>
     <use xlink:href="#DejaVuSans-6c" transform="translate(1869.494141 0)"/>
     <use xlink:href="#DejaVuSans-65" transform="translate(1897.277344 0)"/>
     <use xlink:href="#DejaVuSans-73" transform="translate(1958.800781 0)"/>
    </g>
   </g>
   <g id="legend_1">
    <g id="patch_8">
     <path d="M 460.2 89.0525 
L 561.8 89.0525 
Q 563.8 89.0525 563.8 87.0525 
L 563.8 29.318125 
Q 563.8 27.318125 561.8 27.318125 
L 460.2 27.318125 
Q 458.2 27.318125 458.2 29.318125 
L 458.2 87.0525 
Q 458.2 89.0525 460.2 89.0525 
z
" style="fill: #ffffff; opacity: 0.8; stroke: #cccccc; stroke-linejoin: miter"/>
    </g>
    <g id="line2d_34">
     <path d="M 462.2 35.416562 
L 472.2 35.416562 
L 482.2 35.416562 
" style="fill: none; stroke: #1f77b4; stroke-linecap: square"/>
    </g>
    <g id="text_19">
     <!-- $X$ -->
     <g transform="translate(490.2 38.916562) scale(0.1 -0.1)">
      <defs>
       <path id="DejaVuSans-Oblique-58" d="M 878 4666 
L 1516 4666 
L 2316 2981 
L 3763 4666 
L 4500 4666 
L 2578 2438 
L 3738 0 
L 3103 0 
L 2163 1966 
L 459 0 
L -275 0 
L 1906 2509 
L 878 4666 
z
" transform="scale(0.015625)"/>
      </defs>
      <use xlink:href="#DejaVuSans-Oblique-58" transform="translate(0 0.09375)"/>
     </g>
    </g>
    <g id="line2d_35">
     <path d="M 462.2 50.094687 
L 472.2 50.094687 
L 482.2 50.094687 
" style="fill: none; stroke: #ff7f0e; stroke-linecap: square"/>
    </g>
    <g id="text_20">
     <!-- $Y$ -->
     <g transform="translate(490.2 53.594687) scale(0.1 -0.1)">
      <defs>
       <path id="DejaVuSans-Oblique-59" d="M 403 4666 
L 1081 4666 
L 1953 2747 
L 3616 4666 
L 4325 4666 
L 2209 2222 
L 1778 0 
L 1147 0 
L 1575 2222 
L 403 4666 
z
" transform="scale(0.015625)"/>
      </defs>
      <use xlink:href="#DejaVuSans-Oblique-59" transform="translate(0 0.09375)"/>
     </g>
    </g>
    <g id="line2d_36">
     <path d="M 462.2 64.772812 
L 472.2 64.772812 
L 482.2 64.772812 
" style="fill: none; stroke: #2ca02c; stroke-linecap: square"/>
    </g>
    <g id="text_21">
     <!-- $X \cdot Y$ -->
     <g transform="translate(490.2 68.272812) scale(0.1 -0.1)">
      <defs>
       <path id="DejaVuSans-22c5" d="M 684 2619 
L 1344 2619 
L 1344 1825 
L 684 1825 
L 684 2619 
z
" transform="scale(0.015625)"/>
      </defs>
      <use xlink:href="#DejaVuSans-Oblique-58" transform="translate(0 0.09375)"/>
      <use xlink:href="#DejaVuSans-22c5" transform="translate(87.988281 0.09375)"/>
      <use xlink:href="#DejaVuSans-Oblique-59" transform="translate(139.257812 0.09375)"/>
     </g>
    </g>
    <g id="patch_9">
     <path d="M 462.2 82.9525 
L 482.2 82.9525 
L 482.2 75.9525 
L 462.2 75.9525 
L 462.2 82.9525 
z
" style="fill: none; stroke: #d62728; stroke-linejoin: miter"/>
    </g>
    <g id="text_22">
     <!-- $X \cdot Y$ empirical -->
     <g transform="translate(490.2 82.9525) scale(0.1 -0.1)">
      <defs>
       <path id="DejaVuSans-70" d="M 1159 525 
L 1159 -1331 
L 581 -1331 
L 581 3500 
L 1159 3500 
L 1159 2969 
Q 1341 3281 1617 3432 
Q 1894 3584 2278 3584 
Q 2916 3584 3314 3078 
Q 3713 2572 3713 1747 
Q 3713 922 3314 415 
Q 2916 -91 2278 -91 
Q 1894 -91 1617 61 
Q 1341 213 1159 525 
z
M 3116 1747 
Q 3116 2381 2855 2742 
Q 2594 3103 2138 3103 
Q 1681 3103 1420 2742 
Q 1159 2381 1159 1747 
Q 1159 1113 1420 752 
Q 1681 391 2138 391 
Q 2594 391 2855 752 
Q 3116 1113 3116 1747 
z
" transform="scale(0.015625)"/>
      </defs>
      <use xlink:href="#DejaVuSans-Oblique-58" transform="translate(0 0.015625)"/>
      <use xlink:href="#DejaVuSans-22c5" transform="translate(87.988281 0.015625)"/>
      <use xlink:href="#DejaVuSans-Oblique-59" transform="translate(139.257812 0.015625)"/>
      <use xlink:href="#DejaVuSans-20" transform="translate(200.341797 0.015625)"/>
      <use xlink:href="#DejaVuSans-65" transform="translate(232.128906 0.015625)"/>
      <use xlink:href="#DejaVuSans-6d" transform="translate(293.652344 0.015625)"/>
      <use xlink:href="#DejaVuSans-70" transform="translate(391.064453 0.015625)"/>
      <use xlink:href="#DejaVuSans-69" transform="translate(454.541016 0.015625)"/>
      <use xlink:href="#DejaVuSans-72" transform="translate(482.324219 0.015625)"/>
      <use xlink:href="#DejaVuSans-69" transform="translate(523.4375 0.015625)"/>
      <use xlink:href="#DejaVuSans-63" transform="translate(551.220703 0.015625)"/>
      <use xlink:href="#DejaVuSans-61" transform="translate(606.201172 0.015625)"/>
      <use xlink:href="#DejaVuSans-6c" transform="translate(667.480469 0.015625)"/>
     </g>
    </g>
   </g>
  </g>
 </g>
 <defs>
  <clipPath id="p50189f5fe9">
   <rect x="43.78125" y="22.318125" width="525.01875" height="228.125625"/>
  </clipPath>
 </defs>
</svg>
