<?xml version="1.0" encoding="utf-8" standalone="no"?>
<!DOCTYPE svg PUBLIC "-//W3C//DTD SVG 1.1//EN"
  "http://www.w3.org/Graphics/SVG/1.1/DTD/svg11.dtd">
<svg xmlns:xlink="http://www.w3.org/1999/xlink" width="576pt" height="288pt" viewBox="0 0 576 288" xmlns="http://www.w3.org/2000/svg" version="1.1">
 <metadata>
  <rdf:RDF xmlns:dc="http://purl.org/dc/elements/1.1/" xmlns:cc="http://creativecommons.org/ns#" xmlns:rdf="http://www.w3.org/1999/02/22-rdf-syntax-ns#">
   <cc:Work>
    <dc:type rdf:resource="http://purl.org/dc/dcmitype/StillImage"/>
    <dc:date>2025-05-10T16:53:18.227766</dc:date>
    <dc:format>image/svg+xml</dc:format>
    <dc:creator>
     <cc:Agent>
      <dc:title>Matplotlib v3.10.3, https://matplotlib.org/</dc:title>
     </cc:Agent>
    </dc:creator>
   </cc:Work>
  </rdf:RDF>
 </metadata>
 <defs>
  <style type="text/css">*{stroke-linejoin: round; stroke-linecap: butt}</style>
 </defs>
 <g id="figure_1">
  <g id="patch_1">
   <path d="M 0 288 
L 576 288 
L 576 0 
L 0 0 
z
" style="fill: #ffffff"/>
  </g>
  <g id="axes_1">
   <g id="patch_2">
    <path d="M 52.160938 250.421875 
L 568.8 250.421875 
L 568.8 7.2 
L 52.160938 7.2 
z
" style="fill: #ffffff"/>
   </g>
   <g id="matplotlib.axis_1">
    <g id="xtick_1">
     <g id="line2d_1">
      <path d="M 75.644531 250.421875 
L 75.644531 7.2 
" clip-path="url(#p7a39ee00dd)" style="fill: none; stroke-dasharray: 2.96,1.28; stroke-dashoffset: 0; stroke: #b0b0b0; stroke-opacity: 0.8; stroke-width: 0.8"/>
     </g>
     <g id="line2d_2">
      <defs>
       <path id="m9070fe6931" d="M 0 0 
L 0 3.5 
" style="stroke: #000000; stroke-width: 0.8"/>
      </defs>
      <g>
       <use xlink:href="#m9070fe6931" x="75.644531" y="250.421875" style="stroke: #000000; stroke-width: 0.8"/>
      </g>
     </g>
     <g id="text_1">
      <!-- 0 -->
      <g transform="translate(72.463281 265.020312) scale(0.1 -0.1)">
       <defs>
        <path id="DejaVuSans-30" d="M 2034 4250 
Q 1547 4250 1301 3770 
Q 1056 3291 1056 2328 
Q 1056 1369 1301 889 
Q 1547 409 2034 409 
Q 2525 409 2770 889 
Q 3016 1369 3016 2328 
Q 3016 3291 2770 3770 
Q 2525 4250 2034 4250 
z
M 2034 4750 
Q 2819 4750 3233 4129 
Q 3647 3509 3647 2328 
Q 3647 1150 3233 529 
Q 2819 -91 2034 -91 
Q 1250 -91 836 529 
Q 422 1150 422 2328 
Q 422 3509 836 4129 
Q 1250 4750 2034 4750 
z
" transform="scale(0.015625)"/>
       </defs>
       <use xlink:href="#DejaVuSans-30"/>
      </g>
     </g>
    </g>
    <g id="xtick_2">
     <g id="line2d_3">
      <path d="M 134.500656 250.421875 
L 134.500656 7.2 
" clip-path="url(#p7a39ee00dd)" style="fill: none; stroke-dasharray: 2.96,1.28; stroke-dashoffset: 0; stroke: #b0b0b0; stroke-opacity: 0.8; stroke-width: 0.8"/>
     </g>
     <g id="line2d_4">
      <g>
       <use xlink:href="#m9070fe6931" x="134.500656" y="250.421875" style="stroke: #000000; stroke-width: 0.8"/>
      </g>
     </g>
     <g id="text_2">
      <!-- 50 -->
      <g transform="translate(128.138156 265.020312) scale(0.1 -0.1)">
       <defs>
        <path id="DejaVuSans-35" d="M 691 4666 
L 3169 4666 
L 3169 4134 
L 1269 4134 
L 1269 2991 
Q 1406 3038 1543 3061 
Q 1681 3084 1819 3084 
Q 2600 3084 3056 2656 
Q 3513 2228 3513 1497 
Q 3513 744 3044 326 
Q 2575 -91 1722 -91 
Q 1428 -91 1123 -41 
Q 819 9 494 109 
L 494 744 
Q 775 591 1075 516 
Q 1375 441 1709 441 
Q 2250 441 2565 725 
Q 2881 1009 2881 1497 
Q 2881 1984 2565 2268 
Q 2250 2553 1709 2553 
Q 1456 2553 1204 2497 
Q 953 2441 691 2322 
L 691 4666 
z
" transform="scale(0.015625)"/>
       </defs>
       <use xlink:href="#DejaVuSans-35"/>
       <use xlink:href="#DejaVuSans-30" transform="translate(63.623047 0)"/>
      </g>
     </g>
    </g>
    <g id="xtick_3">
     <g id="line2d_5">
      <path d="M 193.356781 250.421875 
L 193.356781 7.2 
" clip-path="url(#p7a39ee00dd)" style="fill: none; stroke-dasharray: 2.96,1.28; stroke-dashoffset: 0; stroke: #b0b0b0; stroke-opacity: 0.8; stroke-width: 0.8"/>
     </g>
     <g id="line2d_6">
      <g>
       <use xlink:href="#m9070fe6931" x="193.356781" y="250.421875" style="stroke: #000000; stroke-width: 0.8"/>
      </g>
     </g>
     <g id="text_3">
      <!-- 100 -->
      <g transform="translate(183.813031 265.020312) scale(0.1 -0.1)">
       <defs>
        <path id="DejaVuSans-31" d="M 794 531 
L 1825 531 
L 1825 4091 
L 703 3866 
L 703 4441 
L 1819 4666 
L 2450 4666 
L 2450 531 
L 3481 531 
L 3481 0 
L 794 0 
L 794 531 
z
" transform="scale(0.015625)"/>
       </defs>
       <use xlink:href="#DejaVuSans-31"/>
       <use xlink:href="#DejaVuSans-30" transform="translate(63.623047 0)"/>
       <use xlink:href="#DejaVuSans-30" transform="translate(127.246094 0)"/>
      </g>
     </g>
    </g>
    <g id="xtick_4">
     <g id="line2d_7">
      <path d="M 252.212905 250.421875 
L 252.212905 7.2 
" clip-path="url(#p7a39ee00dd)" style="fill: none; stroke-dasharray: 2.96,1.28; stroke-dashoffset: 0; stroke: #b0b0b0; stroke-opacity: 0.8; stroke-width: 0.8"/>
     </g>
     <g id="line2d_8">
      <g>
       <use xlink:href="#m9070fe6931" x="252.212905" y="250.421875" style="stroke: #000000; stroke-width: 0.8"/>
      </g>
     </g>
     <g id="text_4">
      <!-- 150 -->
      <g transform="translate(242.669155 265.020312) scale(0.1 -0.1)">
       <use xlink:href="#DejaVuSans-31"/>
       <use xlink:href="#DejaVuSans-35" transform="translate(63.623047 0)"/>
       <use xlink:href="#DejaVuSans-30" transform="translate(127.246094 0)"/>
      </g>
     </g>
    </g>
    <g id="xtick_5">
     <g id="line2d_9">
      <path d="M 311.06903 250.421875 
L 311.06903 7.2 
" clip-path="url(#p7a39ee00dd)" style="fill: none; stroke-dasharray: 2.96,1.28; stroke-dashoffset: 0; stroke: #b0b0b0; stroke-opacity: 0.8; stroke-width: 0.8"/>
     </g>
     <g id="line2d_10">
      <g>
       <use xlink:href="#m9070fe6931" x="311.06903" y="250.421875" style="stroke: #000000; stroke-width: 0.8"/>
      </g>
     </g>
     <g id="text_5">
      <!-- 200 -->
      <g transform="translate(301.52528 265.020312) scale(0.1 -0.1)">
       <defs>
        <path id="DejaVuSans-32" d="M 1228 531 
L 3431 531 
L 3431 0 
L 469 0 
L 469 531 
Q 828 903 1448 1529 
Q 2069 2156 2228 2338 
Q 2531 2678 2651 2914 
Q 2772 3150 2772 3378 
Q 2772 3750 2511 3984 
Q 2250 4219 1831 4219 
Q 1534 4219 1204 4116 
Q 875 4013 500 3803 
L 500 4441 
Q 881 4594 1212 4672 
Q 1544 4750 1819 4750 
Q 2544 4750 2975 4387 
Q 3406 4025 3406 3419 
Q 3406 3131 3298 2873 
Q 3191 2616 2906 2266 
Q 2828 2175 2409 1742 
Q 1991 1309 1228 531 
z
" transform="scale(0.015625)"/>
       </defs>
       <use xlink:href="#DejaVuSans-32"/>
       <use xlink:href="#DejaVuSans-30" transform="translate(63.623047 0)"/>
       <use xlink:href="#DejaVuSans-30" transform="translate(127.246094 0)"/>
      </g>
     </g>
    </g>
    <g id="xtick_6">
     <g id="line2d_11">
      <path d="M 369.925155 250.421875 
L 369.925155 7.2 
" clip-path="url(#p7a39ee00dd)" style="fill: none; stroke-dasharray: 2.96,1.28; stroke-dashoffset: 0; stroke: #b0b0b0; stroke-opacity: 0.8; stroke-width: 0.8"/>
     </g>
     <g id="line2d_12">
      <g>
       <use xlink:href="#m9070fe6931" x="369.925155" y="250.421875" style="stroke: #000000; stroke-width: 0.8"/>
      </g>
     </g>
     <g id="text_6">
      <!-- 250 -->
      <g transform="translate(360.381405 265.020312) scale(0.1 -0.1)">
       <use xlink:href="#DejaVuSans-32"/>
       <use xlink:href="#DejaVuSans-35" transform="translate(63.623047 0)"/>
       <use xlink:href="#DejaVuSans-30" transform="translate(127.246094 0)"/>
      </g>
     </g>
    </g>
    <g id="xtick_7">
     <g id="line2d_13">
      <path d="M 428.781279 250.421875 
L 428.781279 7.2 
" clip-path="url(#p7a39ee00dd)" style="fill: none; stroke-dasharray: 2.96,1.28; stroke-dashoffset: 0; stroke: #b0b0b0; stroke-opacity: 0.8; stroke-width: 0.8"/>
     </g>
     <g id="line2d_14">
      <g>
       <use xlink:href="#m9070fe6931" x="428.781279" y="250.421875" style="stroke: #000000; stroke-width: 0.8"/>
      </g>
     </g>
     <g id="text_7">
      <!-- 300 -->
      <g transform="translate(419.237529 265.020312) scale(0.1 -0.1)">
       <defs>
        <path id="DejaVuSans-33" d="M 2597 2516 
Q 3050 2419 3304 2112 
Q 3559 1806 3559 1356 
Q 3559 666 3084 287 
Q 2609 -91 1734 -91 
Q 1441 -91 1130 -33 
Q 819 25 488 141 
L 488 750 
Q 750 597 1062 519 
Q 1375 441 1716 441 
Q 2309 441 2620 675 
Q 2931 909 2931 1356 
Q 2931 1769 2642 2001 
Q 2353 2234 1838 2234 
L 1294 2234 
L 1294 2753 
L 1863 2753 
Q 2328 2753 2575 2939 
Q 2822 3125 2822 3475 
Q 2822 3834 2567 4026 
Q 2313 4219 1838 4219 
Q 1578 4219 1281 4162 
Q 984 4106 628 3988 
L 628 4550 
Q 988 4650 1302 4700 
Q 1616 4750 1894 4750 
Q 2613 4750 3031 4423 
Q 3450 4097 3450 3541 
Q 3450 3153 3228 2886 
Q 3006 2619 2597 2516 
z
" transform="scale(0.015625)"/>
       </defs>
       <use xlink:href="#DejaVuSans-33"/>
       <use xlink:href="#DejaVuSans-30" transform="translate(63.623047 0)"/>
       <use xlink:href="#DejaVuSans-30" transform="translate(127.246094 0)"/>
      </g>
     </g>
    </g>
    <g id="xtick_8">
     <g id="line2d_15">
      <path d="M 487.637404 250.421875 
L 487.637404 7.2 
" clip-path="url(#p7a39ee00dd)" style="fill: none; stroke-dasharray: 2.96,1.28; stroke-dashoffset: 0; stroke: #b0b0b0; stroke-opacity: 0.8; stroke-width: 0.8"/>
     </g>
     <g id="line2d_16">
      <g>
       <use xlink:href="#m9070fe6931" x="487.637404" y="250.421875" style="stroke: #000000; stroke-width: 0.8"/>
      </g>
     </g>
     <g id="text_8">
      <!-- 350 -->
      <g transform="translate(478.093654 265.020312) scale(0.1 -0.1)">
       <use xlink:href="#DejaVuSans-33"/>
       <use xlink:href="#DejaVuSans-35" transform="translate(63.623047 0)"/>
       <use xlink:href="#DejaVuSans-30" transform="translate(127.246094 0)"/>
      </g>
     </g>
    </g>
    <g id="xtick_9">
     <g id="line2d_17">
      <path d="M 546.493529 250.421875 
L 546.493529 7.2 
" clip-path="url(#p7a39ee00dd)" style="fill: none; stroke-dasharray: 2.96,1.28; stroke-dashoffset: 0; stroke: #b0b0b0; stroke-opacity: 0.8; stroke-width: 0.8"/>
     </g>
     <g id="line2d_18">
      <g>
       <use xlink:href="#m9070fe6931" x="546.493529" y="250.421875" style="stroke: #000000; stroke-width: 0.8"/>
      </g>
     </g>
     <g id="text_9">
      <!-- 400 -->
      <g transform="translate(536.949779 265.020312) scale(0.1 -0.1)">
       <defs>
        <path id="DejaVuSans-34" d="M 2419 4116 
L 825 1625 
L 2419 1625 
L 2419 4116 
z
M 2253 4666 
L 3047 4666 
L 3047 1625 
L 3713 1625 
L 3713 1100 
L 3047 1100 
L 3047 0 
L 2419 0 
L 2419 1100 
L 313 1100 
L 313 1709 
L 2253 4666 
z
" transform="scale(0.015625)"/>
       </defs>
       <use xlink:href="#DejaVuSans-34"/>
       <use xlink:href="#DejaVuSans-30" transform="translate(63.623047 0)"/>
       <use xlink:href="#DejaVuSans-30" transform="translate(127.246094 0)"/>
      </g>
     </g>
    </g>
    <g id="text_10">
     <!-- Sample, $n$ -->
     <g transform="translate(285.380469 278.7) scale(0.1 -0.1)">
      <defs>
       <path id="DejaVuSans-53" d="M 3425 4513 
L 3425 3897 
Q 3066 4069 2747 4153 
Q 2428 4238 2131 4238 
Q 1616 4238 1336 4038 
Q 1056 3838 1056 3469 
Q 1056 3159 1242 3001 
Q 1428 2844 1947 2747 
L 2328 2669 
Q 3034 2534 3370 2195 
Q 3706 1856 3706 1288 
Q 3706 609 3251 259 
Q 2797 -91 1919 -91 
Q 1588 -91 1214 -16 
Q 841 59 441 206 
L 441 856 
Q 825 641 1194 531 
Q 1563 422 1919 422 
Q 2459 422 2753 634 
Q 3047 847 3047 1241 
Q 3047 1584 2836 1778 
Q 2625 1972 2144 2069 
L 1759 2144 
Q 1053 2284 737 2584 
Q 422 2884 422 3419 
Q 422 4038 858 4394 
Q 1294 4750 2059 4750 
Q 2388 4750 2728 4690 
Q 3069 4631 3425 4513 
z
" transform="scale(0.015625)"/>
       <path id="DejaVuSans-61" d="M 2194 1759 
Q 1497 1759 1228 1600 
Q 959 1441 959 1056 
Q 959 750 1161 570 
Q 1363 391 1709 391 
Q 2188 391 2477 730 
Q 2766 1069 2766 1631 
L 2766 1759 
L 2194 1759 
z
M 3341 1997 
L 3341 0 
L 2766 0 
L 2766 531 
Q 2569 213 2275 61 
Q 1981 -91 1556 -91 
Q 1019 -91 701 211 
Q 384 513 384 1019 
Q 384 1609 779 1909 
Q 1175 2209 1959 2209 
L 2766 2209 
L 2766 2266 
Q 2766 2663 2505 2880 
Q 2244 3097 1772 3097 
Q 1472 3097 1187 3025 
Q 903 2953 641 2809 
L 641 3341 
Q 956 3463 1253 3523 
Q 1550 3584 1831 3584 
Q 2591 3584 2966 3190 
Q 3341 2797 3341 1997 
z
" transform="scale(0.015625)"/>
       <path id="DejaVuSans-6d" d="M 3328 2828 
Q 3544 3216 3844 3400 
Q 4144 3584 4550 3584 
Q 5097 3584 5394 3201 
Q 5691 2819 5691 2113 
L 5691 0 
L 5113 0 
L 5113 2094 
Q 5113 2597 4934 2840 
Q 4756 3084 4391 3084 
Q 3944 3084 3684 2787 
Q 3425 2491 3425 1978 
L 3425 0 
L 2847 0 
L 2847 2094 
Q 2847 2600 2669 2842 
Q 2491 3084 2119 3084 
Q 1678 3084 1418 2786 
Q 1159 2488 1159 1978 
L 1159 0 
L 581 0 
L 581 3500 
L 1159 3500 
L 1159 2956 
Q 1356 3278 1631 3431 
Q 1906 3584 2284 3584 
Q 2666 3584 2933 3390 
Q 3200 3197 3328 2828 
z
" transform="scale(0.015625)"/>
       <path id="DejaVuSans-70" d="M 1159 525 
L 1159 -1331 
L 581 -1331 
L 581 3500 
L 1159 3500 
L 1159 2969 
Q 1341 3281 1617 3432 
Q 1894 3584 2278 3584 
Q 2916 3584 3314 3078 
Q 3713 2572 3713 1747 
Q 3713 922 3314 415 
Q 2916 -91 2278 -91 
Q 1894 -91 1617 61 
Q 1341 213 1159 525 
z
M 3116 1747 
Q 3116 2381 2855 2742 
Q 2594 3103 2138 3103 
Q 1681 3103 1420 2742 
Q 1159 2381 1159 1747 
Q 1159 1113 1420 752 
Q 1681 391 2138 391 
Q 2594 391 2855 752 
Q 3116 1113 3116 1747 
z
" transform="scale(0.015625)"/>
       <path id="DejaVuSans-6c" d="M 603 4863 
L 1178 4863 
L 1178 0 
L 603 0 
L 603 4863 
z
" transform="scale(0.015625)"/>
       <path id="DejaVuSans-65" d="M 3597 1894 
L 3597 1613 
L 953 1613 
Q 991 1019 1311 708 
Q 1631 397 2203 397 
Q 2534 397 2845 478 
Q 3156 559 3463 722 
L 3463 178 
Q 3153 47 2828 -22 
Q 2503 -91 2169 -91 
Q 1331 -91 842 396 
Q 353 884 353 1716 
Q 353 2575 817 3079 
Q 1281 3584 2069 3584 
Q 2775 3584 3186 3129 
Q 3597 2675 3597 1894 
z
M 3022 2063 
Q 3016 2534 2758 2815 
Q 2500 3097 2075 3097 
Q 1594 3097 1305 2825 
Q 1016 2553 972 2059 
L 3022 2063 
z
" transform="scale(0.015625)"/>
       <path id="DejaVuSans-2c" d="M 750 794 
L 1409 794 
L 1409 256 
L 897 -744 
L 494 -744 
L 750 256 
L 750 794 
z
" transform="scale(0.015625)"/>
       <path id="DejaVuSans-20" transform="scale(0.015625)"/>
       <path id="DejaVuSans-Oblique-6e" d="M 3566 2113 
L 3156 0 
L 2578 0 
L 2988 2091 
Q 3016 2238 3031 2350 
Q 3047 2463 3047 2528 
Q 3047 2791 2881 2937 
Q 2716 3084 2419 3084 
Q 1956 3084 1622 2776 
Q 1288 2469 1184 1941 
L 800 0 
L 225 0 
L 903 3500 
L 1478 3500 
L 1363 2950 
Q 1603 3253 1940 3418 
Q 2278 3584 2650 3584 
Q 3113 3584 3367 3334 
Q 3622 3084 3622 2631 
Q 3622 2519 3608 2391 
Q 3594 2263 3566 2113 
z
" transform="scale(0.015625)"/>
      </defs>
      <use xlink:href="#DejaVuSans-53" transform="translate(0 0.015625)"/>
      <use xlink:href="#DejaVuSans-61" transform="translate(63.476562 0.015625)"/>
      <use xlink:href="#DejaVuSans-6d" transform="translate(124.755859 0.015625)"/>
      <use xlink:href="#DejaVuSans-70" transform="translate(222.167969 0.015625)"/>
      <use xlink:href="#DejaVuSans-6c" transform="translate(285.644531 0.015625)"/>
      <use xlink:href="#DejaVuSans-65" transform="translate(313.427734 0.015625)"/>
      <use xlink:href="#DejaVuSans-2c" transform="translate(374.951172 0.015625)"/>
      <use xlink:href="#DejaVuSans-20" transform="translate(406.738281 0.015625)"/>
      <use xlink:href="#DejaVuSans-Oblique-6e" transform="translate(438.525391 0.015625)"/>
     </g>
    </g>
   </g>
   <g id="matplotlib.axis_2">
    <g id="ytick_1">
     <g id="line2d_19">
      <path d="M 52.160938 234.361894 
L 568.8 234.361894 
" clip-path="url(#p7a39ee00dd)" style="fill: none; stroke-dasharray: 2.96,1.28; stroke-dashoffset: 0; stroke: #b0b0b0; stroke-opacity: 0.8; stroke-width: 0.8"/>
     </g>
     <g id="line2d_20">
      <defs>
       <path id="m1b3ae378a0" d="M 0 0 
L -3.5 0 
" style="stroke: #000000; stroke-width: 0.8"/>
      </defs>
      <g>
       <use xlink:href="#m1b3ae378a0" x="52.160938" y="234.361894" style="stroke: #000000; stroke-width: 0.8"/>
      </g>
     </g>
     <g id="text_11">
      <!-- −0.4 -->
      <g transform="translate(20.878125 238.161113) scale(0.1 -0.1)">
       <defs>
        <path id="DejaVuSans-2212" d="M 678 2272 
L 4684 2272 
L 4684 1741 
L 678 1741 
L 678 2272 
z
" transform="scale(0.015625)"/>
        <path id="DejaVuSans-2e" d="M 684 794 
L 1344 794 
L 1344 0 
L 684 0 
L 684 794 
z
" transform="scale(0.015625)"/>
       </defs>
       <use xlink:href="#DejaVuSans-2212"/>
       <use xlink:href="#DejaVuSans-30" transform="translate(83.789062 0)"/>
       <use xlink:href="#DejaVuSans-2e" transform="translate(147.412109 0)"/>
       <use xlink:href="#DejaVuSans-34" transform="translate(179.199219 0)"/>
      </g>
     </g>
    </g>
    <g id="ytick_2">
     <g id="line2d_21">
      <path d="M 52.160938 184.280284 
L 568.8 184.280284 
" clip-path="url(#p7a39ee00dd)" style="fill: none; stroke-dasharray: 2.96,1.28; stroke-dashoffset: 0; stroke: #b0b0b0; stroke-opacity: 0.8; stroke-width: 0.8"/>
     </g>
     <g id="line2d_22">
      <g>
       <use xlink:href="#m1b3ae378a0" x="52.160938" y="184.280284" style="stroke: #000000; stroke-width: 0.8"/>
      </g>
     </g>
     <g id="text_12">
      <!-- −0.2 -->
      <g transform="translate(20.878125 188.079503) scale(0.1 -0.1)">
       <use xlink:href="#DejaVuSans-2212"/>
       <use xlink:href="#DejaVuSans-30" transform="translate(83.789062 0)"/>
       <use xlink:href="#DejaVuSans-2e" transform="translate(147.412109 0)"/>
       <use xlink:href="#DejaVuSans-32" transform="translate(179.199219 0)"/>
      </g>
     </g>
    </g>
    <g id="ytick_3">
     <g id="line2d_23">
      <path d="M 52.160938 134.198674 
L 568.8 134.198674 
" clip-path="url(#p7a39ee00dd)" style="fill: none; stroke-dasharray: 2.96,1.28; stroke-dashoffset: 0; stroke: #b0b0b0; stroke-opacity: 0.8; stroke-width: 0.8"/>
     </g>
     <g id="line2d_24">
      <g>
       <use xlink:href="#m1b3ae378a0" x="52.160938" y="134.198674" style="stroke: #000000; stroke-width: 0.8"/>
      </g>
     </g>
     <g id="text_13">
      <!-- 0.0 -->
      <g transform="translate(29.257812 137.997893) scale(0.1 -0.1)">
       <use xlink:href="#DejaVuSans-30"/>
       <use xlink:href="#DejaVuSans-2e" transform="translate(63.623047 0)"/>
       <use xlink:href="#DejaVuSans-30" transform="translate(95.410156 0)"/>
      </g>
     </g>
    </g>
    <g id="ytick_4">
     <g id="line2d_25">
      <path d="M 52.160938 84.117064 
L 568.8 84.117064 
" clip-path="url(#p7a39ee00dd)" style="fill: none; stroke-dasharray: 2.96,1.28; stroke-dashoffset: 0; stroke: #b0b0b0; stroke-opacity: 0.8; stroke-width: 0.8"/>
     </g>
     <g id="line2d_26">
      <g>
       <use xlink:href="#m1b3ae378a0" x="52.160938" y="84.117064" style="stroke: #000000; stroke-width: 0.8"/>
      </g>
     </g>
     <g id="text_14">
      <!-- 0.2 -->
      <g transform="translate(29.257812 87.916283) scale(0.1 -0.1)">
       <use xlink:href="#DejaVuSans-30"/>
       <use xlink:href="#DejaVuSans-2e" transform="translate(63.623047 0)"/>
       <use xlink:href="#DejaVuSans-32" transform="translate(95.410156 0)"/>
      </g>
     </g>
    </g>
    <g id="ytick_5">
     <g id="line2d_27">
      <path d="M 52.160938 34.035454 
L 568.8 34.035454 
" clip-path="url(#p7a39ee00dd)" style="fill: none; stroke-dasharray: 2.96,1.28; stroke-dashoffset: 0; stroke: #b0b0b0; stroke-opacity: 0.8; stroke-width: 0.8"/>
     </g>
     <g id="line2d_28">
      <g>
       <use xlink:href="#m1b3ae378a0" x="52.160938" y="34.035454" style="stroke: #000000; stroke-width: 0.8"/>
      </g>
     </g>
     <g id="text_15">
      <!-- 0.4 -->
      <g transform="translate(29.257812 37.834672) scale(0.1 -0.1)">
       <use xlink:href="#DejaVuSans-30"/>
       <use xlink:href="#DejaVuSans-2e" transform="translate(63.623047 0)"/>
       <use xlink:href="#DejaVuSans-34" transform="translate(95.410156 0)"/>
      </g>
     </g>
    </g>
    <g id="text_16">
     <!-- Amplitude -->
     <g transform="translate(14.798437 154.433594) rotate(-90) scale(0.1 -0.1)">
      <defs>
       <path id="DejaVuSans-41" d="M 2188 4044 
L 1331 1722 
L 3047 1722 
L 2188 4044 
z
M 1831 4666 
L 2547 4666 
L 4325 0 
L 3669 0 
L 3244 1197 
L 1141 1197 
L 716 0 
L 50 0 
L 1831 4666 
z
" transform="scale(0.015625)"/>
       <path id="DejaVuSans-69" d="M 603 3500 
L 1178 3500 
L 1178 0 
L 603 0 
L 603 3500 
z
M 603 4863 
L 1178 4863 
L 1178 4134 
L 603 4134 
L 603 4863 
z
" transform="scale(0.015625)"/>
       <path id="DejaVuSans-74" d="M 1172 4494 
L 1172 3500 
L 2356 3500 
L 2356 3053 
L 1172 3053 
L 1172 1153 
Q 1172 725 1289 603 
Q 1406 481 1766 481 
L 2356 481 
L 2356 0 
L 1766 0 
Q 1100 0 847 248 
Q 594 497 594 1153 
L 594 3053 
L 172 3053 
L 172 3500 
L 594 3500 
L 594 4494 
L 1172 4494 
z
" transform="scale(0.015625)"/>
       <path id="DejaVuSans-75" d="M 544 1381 
L 544 3500 
L 1119 3500 
L 1119 1403 
Q 1119 906 1312 657 
Q 1506 409 1894 409 
Q 2359 409 2629 706 
Q 2900 1003 2900 1516 
L 2900 3500 
L 3475 3500 
L 3475 0 
L 2900 0 
L 2900 538 
Q 2691 219 2414 64 
Q 2138 -91 1772 -91 
Q 1169 -91 856 284 
Q 544 659 544 1381 
z
M 1991 3584 
L 1991 3584 
z
" transform="scale(0.015625)"/>
       <path id="DejaVuSans-64" d="M 2906 2969 
L 2906 4863 
L 3481 4863 
L 3481 0 
L 2906 0 
L 2906 525 
Q 2725 213 2448 61 
Q 2172 -91 1784 -91 
Q 1150 -91 751 415 
Q 353 922 353 1747 
Q 353 2572 751 3078 
Q 1150 3584 1784 3584 
Q 2172 3584 2448 3432 
Q 2725 3281 2906 2969 
z
M 947 1747 
Q 947 1113 1208 752 
Q 1469 391 1925 391 
Q 2381 391 2643 752 
Q 2906 1113 2906 1747 
Q 2906 2381 2643 2742 
Q 2381 3103 1925 3103 
Q 1469 3103 1208 2742 
Q 947 2381 947 1747 
z
" transform="scale(0.015625)"/>
      </defs>
      <use xlink:href="#DejaVuSans-41"/>
      <use xlink:href="#DejaVuSans-6d" transform="translate(68.408203 0)"/>
      <use xlink:href="#DejaVuSans-70" transform="translate(165.820312 0)"/>
      <use xlink:href="#DejaVuSans-6c" transform="translate(229.296875 0)"/>
      <use xlink:href="#DejaVuSans-69" transform="translate(257.080078 0)"/>
      <use xlink:href="#DejaVuSans-74" transform="translate(284.863281 0)"/>
      <use xlink:href="#DejaVuSans-75" transform="translate(324.072266 0)"/>
      <use xlink:href="#DejaVuSans-64" transform="translate(387.451172 0)"/>
      <use xlink:href="#DejaVuSans-65" transform="translate(450.927734 0)"/>
     </g>
    </g>
   </g>
   <g id="line2d_29">
    <path d="M 75.644531 131.444075 
L 76.821654 124.725172 
L 77.998776 133.923359 
L 79.175899 139.524881 
L 80.353021 134.223796 
L 81.530144 132.435539 
L 82.707266 138.553529 
L 83.884389 130.025594 
L 85.061511 138.591856 
L 86.238634 133.348039 
L 87.415756 142.686518 
L 88.592879 133.391546 
L 89.770001 131.555788 
L 90.947124 127.416208 
L 92.124246 129.767595 
L 93.301369 129.722842 
L 94.478491 124.010229 
L 95.655614 136.360237 
L 96.832736 136.795516 
L 98.009859 143.518775 
L 99.186981 142.901897 
L 101.541226 151.148387 
L 102.718349 146.280859 
L 103.895471 139.935917 
L 105.072594 131.214894 
L 106.249716 128.159407 
L 107.426839 127.059443 
L 108.603961 111.939403 
L 109.781084 115.314957 
L 110.958206 115.903954 
L 112.135329 118.088179 
L 113.312451 126.817944 
L 116.843819 171.038457 
L 118.020941 188.691814 
L 119.198064 202.20019 
L 120.375186 209.559706 
L 121.552309 210.652236 
L 122.729431 209.360022 
L 123.906553 195.178892 
L 125.083676 178.282987 
L 127.437921 128.464016 
L 128.615043 98.354892 
L 129.792166 79.206981 
L 130.969288 66.90706 
L 132.146411 60.140253 
L 134.500656 66.63348 
L 136.854901 130.841826 
L 138.032023 145.638528 
L 139.209146 178.072597 
L 140.386268 193.326929 
L 141.563391 206.829264 
L 142.740513 228.803982 
L 143.917636 213.207698 
L 145.094758 215.189316 
L 146.271881 209.942376 
L 147.449003 201.597105 
L 148.626126 190.392897 
L 149.803248 181.805498 
L 150.980371 184.812792 
L 152.157493 189.824446 
L 154.511738 203.392661 
L 156.865983 219.674148 
L 158.043106 221.736031 
L 159.220228 224.527976 
L 160.397351 206.29231 
L 161.574473 183.951723 
L 162.751596 169.274657 
L 163.928718 134.001874 
L 166.282963 92.166633 
L 167.460086 74.831968 
L 168.637208 59.712459 
L 169.814331 66.465581 
L 170.991453 68.8721 
L 172.168576 84.935546 
L 173.345698 105.334435 
L 175.699943 152.476286 
L 176.877066 180.635184 
L 178.054188 196.224414 
L 179.231311 207.872721 
L 180.408433 205.980069 
L 181.585556 199.543565 
L 182.762678 178.966305 
L 183.939801 167.836332 
L 187.471168 86.899791 
L 188.648291 66.415708 
L 189.825413 48.713317 
L 191.002536 39.87344 
L 192.179658 27.182941 
L 193.356781 34.904624 
L 194.533903 40.33889 
L 195.711026 56.637368 
L 196.888148 67.535577 
L 198.065271 70.189562 
L 199.242393 100.746916 
L 200.419516 106.18421 
L 201.596638 129.436398 
L 202.773761 146.234968 
L 203.950883 149.213487 
L 205.128006 159.105964 
L 206.305128 179.258167 
L 207.482251 193.927269 
L 208.659373 206.614159 
L 209.836496 211.715567 
L 211.013618 225.551277 
L 212.190741 228.633084 
L 213.367863 236.553123 
L 214.544986 223.676304 
L 215.722108 215.98776 
L 216.89923 203.827347 
L 218.076353 182.668715 
L 219.253475 157.836669 
L 220.430598 141.13427 
L 221.60772 113.410259 
L 222.784843 93.513477 
L 225.139088 73.534203 
L 226.31621 66.115215 
L 227.493333 76.778801 
L 228.670455 78.598649 
L 229.847578 91.829531 
L 231.0247 117.746957 
L 232.201823 136.981727 
L 233.378945 154.237431 
L 234.556068 173.844336 
L 235.73319 196.296403 
L 238.087435 224.084168 
L 239.264558 231.879443 
L 240.44168 230.091707 
L 241.618803 234.371857 
L 242.795925 223.3824 
L 243.973048 210.220201 
L 245.15017 199.650795 
L 246.327293 177.934527 
L 247.504415 161.468499 
L 248.681538 142.796211 
L 249.85866 121.382902 
L 251.035783 108.238851 
L 254.56715 65.234926 
L 255.744273 71.357239 
L 256.921395 60.893833 
L 258.098518 61.507631 
L 259.27564 67.091726 
L 260.452763 67.147797 
L 261.629885 72.3794 
L 262.807008 70.141646 
L 263.98413 68.293884 
L 265.161253 73.249636 
L 266.338375 70.329189 
L 267.515498 66.607489 
L 268.69262 59.700834 
L 269.869743 62.394457 
L 271.046865 60.496926 
L 272.223988 68.851864 
L 273.40111 72.422011 
L 275.755355 85.328026 
L 276.932478 105.143523 
L 278.1096 128.367762 
L 279.286723 140.744453 
L 280.463845 156.60436 
L 281.640968 177.158205 
L 282.81809 187.327294 
L 283.995213 205.946576 
L 285.172335 231.38663 
L 287.52658 239.366335 
L 288.703703 237.409871 
L 289.880825 232.926126 
L 291.057948 215.626024 
L 292.23507 194.446656 
L 293.412193 180.173853 
L 295.766438 126.201384 
L 298.120683 94.91901 
L 300.474928 72.330687 
L 301.65205 63.07937 
L 302.829173 81.278278 
L 304.006295 81.229128 
L 305.183418 93.486417 
L 308.714785 171.431131 
L 309.891908 188.676229 
L 311.06903 199.517133 
L 312.246152 217.250614 
L 313.423275 211.326567 
L 314.600397 216.012319 
L 315.77752 215.618093 
L 316.954642 212.295733 
L 318.131765 209.480084 
L 319.308887 200.972113 
L 320.48601 188.232696 
L 321.663132 185.472778 
L 322.840255 183.94939 
L 324.017377 186.628606 
L 325.1945 184.33599 
L 327.548745 195.655685 
L 328.725867 196.671959 
L 329.90299 203.678007 
L 331.080112 205.225478 
L 332.257235 201.823083 
L 333.434357 200.2472 
L 334.61148 194.473233 
L 335.788602 195.489459 
L 336.965725 190.020949 
L 338.142847 197.897507 
L 339.31997 194.633462 
L 340.497092 190.454328 
L 341.674215 192.066008 
L 342.851337 192.612634 
L 344.02846 193.367717 
L 345.205582 206.439016 
L 346.382705 195.149206 
L 347.559827 204.645458 
L 348.73695 199.965423 
L 349.914072 201.341606 
L 351.091195 197.819725 
L 352.268317 195.962507 
L 353.44544 189.180561 
L 354.622562 191.97875 
L 355.799685 193.668602 
L 356.976807 194.793725 
L 359.331052 200.755856 
L 360.508175 207.343738 
L 361.685297 200.468623 
L 362.86242 208.2925 
L 364.039542 207.920345 
L 365.216665 211.056756 
L 366.393787 203.870746 
L 367.57091 195.459265 
L 368.748032 193.021409 
L 371.102277 166.998139 
L 372.2794 149.41162 
L 373.456522 126.082608 
L 374.633645 109.291782 
L 375.810767 94.388392 
L 376.98789 77.37657 
L 378.165012 57.68069 
L 379.342135 50.507703 
L 380.519257 35.495071 
L 381.69638 39.934909 
L 382.873502 25.409946 
L 384.050625 44.512735 
L 385.227747 48.188022 
L 386.40487 71.909401 
L 388.759115 106.365542 
L 389.936237 132.58064 
L 392.290482 174.629021 
L 393.467605 189.741434 
L 394.644727 200.542039 
L 395.82185 199.055991 
L 396.998972 201.160882 
L 398.176095 186.52691 
L 399.353217 163.191582 
L 400.53034 148.65715 
L 401.707462 128.165665 
L 402.884585 98.090014 
L 404.061707 82.600908 
L 405.238829 64.700801 
L 406.415952 57.301602 
L 407.593074 57.805915 
L 408.770197 50.714675 
L 409.947319 52.89855 
L 411.124442 60.887493 
L 412.301564 63.7545 
L 413.478687 70.189477 
L 414.655809 77.566946 
L 415.832932 79.234584 
L 417.010054 85.474444 
L 418.187177 83.782887 
L 419.364299 71.153768 
L 420.541422 70.7036 
L 421.718544 66.028383 
L 422.895667 58.464513 
L 425.249912 52.76926 
L 426.427034 60.374295 
L 427.604157 76.061207 
L 428.781279 83.240223 
L 429.958402 87.492804 
L 431.135524 93.059368 
L 432.312647 85.976262 
L 433.489769 81.165605 
L 434.666892 73.619391 
L 435.844014 64.469558 
L 437.021137 52.517227 
L 438.198259 49.433397 
L 439.375382 44.795846 
L 440.552504 36.68331 
L 441.729627 43.693634 
L 442.906749 63.837372 
L 444.083872 78.927309 
L 445.260994 110.317272 
L 446.438117 128.715043 
L 447.615239 158.471286 
L 448.792362 182.38753 
L 449.969484 203.458663 
L 451.146607 203.177213 
L 452.323729 208.940035 
L 453.500852 197.567818 
L 454.677974 176.340883 
L 455.855097 158.972996 
L 457.032219 124.164418 
L 458.209342 97.228682 
L 459.386464 83.528391 
L 460.563587 76.775427 
L 461.740709 60.565176 
L 462.917832 62.387881 
L 464.094954 67.666237 
L 465.272077 101.771854 
L 466.449199 129.268703 
L 467.626322 149.75691 
L 468.803444 174.987498 
L 471.157689 209.05917 
L 472.334812 208.833118 
L 473.511934 193.191874 
L 474.689057 192.099651 
L 475.866179 179.060965 
L 477.043302 140.670588 
L 478.220424 107.664697 
L 479.397547 88.207022 
L 480.574669 54.571857 
L 481.751792 40.560395 
L 482.928914 25.113964 
L 484.106037 18.25554 
L 485.283159 26.722597 
L 486.460282 28.49907 
L 487.637404 48.75017 
L 488.814527 59.083663 
L 489.991649 74.013318 
L 491.168772 100.714071 
L 492.345894 119.355814 
L 493.523017 133.107193 
L 494.700139 143.287784 
L 495.877262 156.859029 
L 497.054384 163.826583 
L 498.231507 184.108221 
L 499.408629 191.740194 
L 500.585751 195.802246 
L 501.762874 208.265066 
L 502.939996 211.710625 
L 504.117119 219.991044 
L 505.294241 212.663164 
L 506.471364 212.117456 
L 508.825609 206.166864 
L 510.002731 191.0049 
L 511.179854 189.375857 
L 513.534099 178.181947 
L 514.711221 183.474405 
L 515.888344 177.36649 
L 517.065466 184.447922 
L 518.242589 186.452472 
L 519.419711 205.428269 
L 520.596834 213.018238 
L 521.773956 217.846773 
L 522.951079 220.869083 
L 524.128201 230.197677 
L 525.305324 224.953226 
L 526.482446 220.443465 
L 527.659569 201.658624 
L 528.836691 173.94593 
L 530.013814 160.300783 
L 531.190936 130.006605 
L 532.368059 107.87655 
L 533.545181 93.855826 
L 534.722304 69.389742 
L 535.899426 68.768138 
L 537.076549 63.863943 
L 538.253671 67.914772 
L 539.430794 86.851552 
L 540.607916 113.147975 
L 541.785039 132.566049 
L 542.962161 147.399901 
L 545.316406 192.546541 
L 545.316406 192.546541 
" clip-path="url(#p7a39ee00dd)" style="fill: none; stroke: #1f77b4; stroke-linecap: square"/>
   </g>
   <g id="line2d_30">
    <path d="M 75.644531 133.547315 
L 76.821654 131.583718 
L 77.998776 138.702827 
L 79.175899 136.093294 
L 80.353021 137.574506 
L 81.530144 132.94994 
L 82.707266 129.375828 
L 83.884389 135.341152 
L 85.061511 131.352429 
L 86.238634 135.182718 
L 87.415756 134.978065 
L 88.592879 144.119682 
L 89.770001 137.356874 
L 90.947124 145.387291 
L 92.124246 142.27741 
L 93.301369 136.147389 
L 94.478491 136.510774 
L 95.655614 130.417649 
L 96.832736 137.46421 
L 98.009859 136.107831 
L 99.186981 126.195417 
L 100.364104 124.825005 
L 101.541226 125.988278 
L 102.718349 122.803095 
L 103.895471 124.607179 
L 105.072594 136.431694 
L 106.249716 141.848485 
L 107.426839 150.843964 
L 108.603961 151.744529 
L 109.781084 146.532745 
L 110.958206 150.178775 
L 112.135329 152.113624 
L 113.312451 136.475398 
L 114.489574 126.480833 
L 115.666696 120.924571 
L 116.843819 107.84006 
L 118.020941 86.191138 
L 119.198064 72.0365 
L 120.375186 75.286216 
L 121.552309 61.794414 
L 122.729431 58.285152 
L 123.906553 77.735521 
L 125.083676 91.275986 
L 126.260798 112.387178 
L 127.437921 124.236854 
L 128.615043 145.884296 
L 129.792166 164.894048 
L 132.146411 207.060216 
L 134.500656 222.254463 
L 135.677778 216.845493 
L 136.854901 210.530231 
L 138.032023 210.696294 
L 139.209146 203.012936 
L 140.386268 197.994976 
L 141.563391 189.693474 
L 142.740513 182.945403 
L 143.917636 190.667363 
L 145.094758 179.096694 
L 146.271881 193.67002 
L 147.449003 197.322489 
L 148.626126 203.353701 
L 149.803248 196.736671 
L 150.980371 202.110617 
L 152.157493 205.327801 
L 154.511738 191.842606 
L 155.688861 191.322242 
L 156.865983 191.426961 
L 158.043106 187.754032 
L 159.220228 197.781561 
L 160.397351 190.552186 
L 161.574473 197.414512 
L 162.751596 195.765046 
L 163.928718 199.847567 
L 165.105841 210.96834 
L 166.282963 208.218241 
L 167.460086 221.709183 
L 168.637208 207.258199 
L 169.814331 197.253794 
L 170.991453 184.465676 
L 172.168576 165.827589 
L 173.345698 156.300419 
L 174.522821 133.281437 
L 175.699943 117.58134 
L 176.877066 94.046967 
L 178.054188 78.11815 
L 180.408433 57.221971 
L 181.585556 54.256575 
L 182.762678 59.880749 
L 183.939801 55.605427 
L 185.116923 57.629137 
L 186.294046 71.924989 
L 187.471168 71.647952 
L 188.648291 81.3736 
L 189.825413 83.654924 
L 191.002536 76.778608 
L 192.179658 82.505878 
L 193.356781 67.216167 
L 194.533903 74.450627 
L 195.711026 68.449385 
L 196.888148 68.402262 
L 198.065271 59.071535 
L 199.242393 65.539488 
L 200.419516 67.61772 
L 201.596638 76.250196 
L 202.773761 88.25107 
L 203.950883 85.475535 
L 205.128006 86.407378 
L 206.305128 88.978694 
L 207.482251 83.799447 
L 208.659373 72.458805 
L 209.836496 66.661799 
L 211.013618 52.002388 
L 212.190741 43.96766 
L 213.367863 38.83925 
L 214.544986 48.590155 
L 215.722108 43.847933 
L 218.076353 76.556294 
L 220.430598 133.4975 
L 222.784843 181.376079 
L 223.961965 197.683003 
L 225.139088 201.959625 
L 226.31621 199.857939 
L 227.493333 201.923377 
L 228.670455 174.245272 
L 229.847578 152.524431 
L 231.0247 137.542789 
L 232.201823 117.650935 
L 233.378945 88.301593 
L 234.556068 74.28719 
L 235.73319 65.951488 
L 236.910313 62.44834 
L 238.087435 71.243216 
L 239.264558 87.312318 
L 240.44168 98.915568 
L 241.618803 128.771291 
L 242.795925 162.431784 
L 243.973048 179.241012 
L 245.15017 217.278823 
L 246.327293 218.801952 
L 247.504415 226.661899 
L 248.681538 222.289999 
L 249.85866 228.072638 
L 251.035783 201.051164 
L 252.212905 198.395382 
L 253.390028 191.90223 
L 254.56715 187.945015 
L 255.744273 184.806808 
L 256.921395 178.949459 
L 258.098518 181.237344 
L 259.27564 188.745564 
L 260.452763 203.598207 
L 261.629885 204.41092 
L 262.807008 209.085798 
L 263.98413 208.205101 
L 265.161253 204.822102 
L 266.338375 197.107707 
L 267.515498 197.553225 
L 268.69262 191.711077 
L 269.869743 184.435327 
L 271.046865 169.833089 
L 272.223988 180.491705 
L 273.40111 186.412387 
L 274.578233 189.419498 
L 275.755355 202.15314 
L 278.1096 222.686453 
L 279.286723 221.41371 
L 280.463845 232.013443 
L 281.640968 225.99398 
L 282.81809 208.969614 
L 283.995213 187.367043 
L 286.349458 134.236664 
L 288.703703 90.189752 
L 289.880825 73.533506 
L 291.057948 69.895632 
L 292.23507 57.374407 
L 294.589315 85.78547 
L 295.766438 105.760408 
L 296.94356 134.784012 
L 298.120683 148.773123 
L 299.297805 179.486354 
L 300.474928 193.187228 
L 301.65205 204.865546 
L 302.829173 212.356873 
L 304.006295 207.114729 
L 305.183418 182.023614 
L 306.36054 167.189464 
L 307.537663 129.907207 
L 308.714785 112.605541 
L 309.891908 87.457357 
L 311.06903 65.733231 
L 312.246152 46.889258 
L 313.423275 44.091245 
L 314.600397 31.641489 
L 315.77752 26.309059 
L 316.954642 36.476935 
L 320.48601 78.037566 
L 321.663132 83.04008 
L 322.840255 108.553359 
L 325.1945 149.618352 
L 326.371622 154.50396 
L 327.548745 171.547995 
L 328.725867 186.096087 
L 329.90299 196.649763 
L 331.080112 205.288138 
L 332.257235 201.16003 
L 333.434357 216.119329 
L 334.61148 214.900047 
L 335.788602 226.614701 
L 336.965725 223.190918 
L 338.142847 201.271682 
L 340.497092 187.277884 
L 342.851337 146.546849 
L 344.02846 133.554051 
L 345.205582 112.911088 
L 346.382705 98.567035 
L 347.559827 91.287209 
L 348.73695 81.216462 
L 349.914072 59.949195 
L 351.091195 52.985297 
L 352.268317 45.19105 
L 353.44544 40.572328 
L 354.622562 38.203057 
L 355.799685 45.826745 
L 356.976807 58.897706 
L 358.15393 63.166593 
L 360.508175 100.820864 
L 362.86242 146.899403 
L 364.039542 163.939835 
L 365.216665 184.715338 
L 366.393787 194.033651 
L 367.57091 198.123516 
L 368.748032 202.852788 
L 369.925155 199.736651 
L 371.102277 204.855061 
L 372.2794 196.742479 
L 373.456522 199.594101 
L 374.633645 181.699013 
L 375.810767 188.479289 
L 376.98789 191.17902 
L 378.165012 201.427267 
L 379.342135 206.915991 
L 381.69638 211.779588 
L 382.873502 216.92947 
L 384.050625 222.764762 
L 385.227747 216.445045 
L 386.40487 206.684191 
L 387.581992 192.048971 
L 389.936237 143.036507 
L 391.11336 125.015223 
L 392.290482 96.262189 
L 393.467605 74.55735 
L 394.644727 66.038562 
L 395.82185 63.020599 
L 396.998972 64.791155 
L 398.176095 78.72743 
L 399.353217 99.573833 
L 400.53034 112.691986 
L 401.707462 145.129882 
L 402.884585 165.459218 
L 404.061707 188.335314 
L 406.415952 213.97428 
L 407.593074 216.121407 
L 408.770197 224.70179 
L 409.947319 217.300868 
L 411.124442 211.750723 
L 412.301564 196.85716 
L 413.478687 194.002825 
L 414.655809 191.911687 
L 415.832932 186.325259 
L 417.010054 190.540926 
L 418.187177 193.020994 
L 419.364299 197.048611 
L 420.541422 201.522794 
L 421.718544 203.916924 
L 422.895667 199.961925 
L 424.072789 203.308732 
L 425.249912 183.838102 
L 426.427034 182.394475 
L 427.604157 168.773423 
L 428.781279 145.862662 
L 429.958402 129.002492 
L 432.312647 87.30377 
L 433.489769 72.313054 
L 434.666892 53.058733 
L 435.844014 40.131308 
L 437.021137 37.237714 
L 438.198259 27.78446 
L 439.375382 36.488384 
L 440.552504 46.380997 
L 441.729627 45.868754 
L 442.906749 69.198349 
L 444.083872 88.858013 
L 445.260994 111.719184 
L 446.438117 137.442543 
L 449.969484 188.802684 
L 451.146607 195.845835 
L 452.323729 199.976344 
L 453.500852 193.609363 
L 454.677974 190.854761 
L 455.855097 173.45154 
L 457.032219 147.726695 
L 458.209342 130.442595 
L 459.386464 96.286323 
L 460.563587 91.878178 
L 461.740709 69.334523 
L 462.917832 55.118932 
L 464.094954 45.693588 
L 465.272077 44.795355 
L 466.449199 33.086844 
L 467.626322 41.808064 
L 468.803444 52.390843 
L 469.980567 58.547648 
L 472.334812 85.874394 
L 473.511934 105.289172 
L 475.866179 137.619071 
L 477.043302 157.876058 
L 478.220424 167.45865 
L 479.397547 187.105379 
L 480.574669 194.343781 
L 481.751792 207.086456 
L 482.928914 210.771929 
L 484.106037 220.233657 
L 485.283159 218.976952 
L 486.460282 214.422496 
L 487.637404 215.584215 
L 488.814527 213.846776 
L 489.991649 202.144621 
L 491.168772 182.332653 
L 492.345894 168.139409 
L 493.523017 157.594876 
L 494.700139 137.701949 
L 497.054384 106.850143 
L 498.231507 83.577596 
L 499.408629 68.952558 
L 501.762874 51.86329 
L 502.939996 48.798659 
L 504.117119 41.070359 
L 505.294241 51.352623 
L 506.471364 51.782515 
L 507.648486 54.347618 
L 508.825609 72.991801 
L 510.002731 82.915746 
L 511.179854 97.779723 
L 512.356976 122.08145 
L 513.534099 135.717083 
L 514.711221 155.453867 
L 515.888344 168.878292 
L 517.065466 186.698556 
L 518.242589 191.240102 
L 519.419711 206.540388 
L 520.596834 205.858444 
L 522.951079 211.928048 
L 524.128201 207.725077 
L 525.305324 210.334732 
L 526.482446 207.06035 
L 527.659569 201.678335 
L 528.836691 193.228119 
L 530.013814 191.212849 
L 531.190936 182.677027 
L 532.368059 175.574053 
L 533.545181 172.764861 
L 534.722304 183.95429 
L 535.899426 181.79006 
L 537.076549 189.365679 
L 539.430794 210.283234 
L 540.607916 218.681029 
L 541.785039 235.389402 
L 542.962161 232.858758 
L 544.139284 227.627618 
L 545.316406 218.213894 
L 545.316406 218.213894 
" clip-path="url(#p7a39ee00dd)" style="fill: none; stroke: #ff7f0e; stroke-linecap: square"/>
   </g>
   <g id="patch_3">
    <path d="M 52.160938 250.421875 
L 52.160938 7.2 
" style="fill: none; stroke: #000000; stroke-width: 0.8; stroke-linejoin: miter; stroke-linecap: square"/>
   </g>
   <g id="patch_4">
    <path d="M 568.8 250.421875 
L 568.8 7.2 
" style="fill: none; stroke: #000000; stroke-width: 0.8; stroke-linejoin: miter; stroke-linecap: square"/>
   </g>
   <g id="patch_5">
    <path d="M 52.160937 250.421875 
L 568.8 250.421875 
" style="fill: none; stroke: #000000; stroke-width: 0.8; stroke-linejoin: miter; stroke-linecap: square"/>
   </g>
   <g id="patch_6">
    <path d="M 52.160937 7.2 
L 568.8 7.2 
" style="fill: none; stroke: #000000; stroke-width: 0.8; stroke-linejoin: miter; stroke-linecap: square"/>
   </g>
   <g id="legend_1">
    <g id="patch_7">
     <path d="M 59.160938 44.55625 
L 116.15625 44.55625 
Q 118.15625 44.55625 118.15625 42.55625 
L 118.15625 14.2 
Q 118.15625 12.2 116.15625 12.2 
L 59.160938 12.2 
Q 57.160938 12.2 57.160938 14.2 
L 57.160938 42.55625 
Q 57.160938 44.55625 59.160938 44.55625 
z
" style="fill: #ffffff; opacity: 0.8; stroke: #cccccc; stroke-linejoin: miter"/>
    </g>
    <g id="line2d_31">
     <path d="M 61.160938 20.298437 
L 71.160938 20.298437 
L 81.160938 20.298437 
" style="fill: none; stroke: #1f77b4; stroke-linecap: square"/>
    </g>
    <g id="text_17">
     <!-- real -->
     <g transform="translate(89.160938 23.798437) scale(0.1 -0.1)">
      <defs>
       <path id="DejaVuSans-72" d="M 2631 2963 
Q 2534 3019 2420 3045 
Q 2306 3072 2169 3072 
Q 1681 3072 1420 2755 
Q 1159 2438 1159 1844 
L 1159 0 
L 581 0 
L 581 3500 
L 1159 3500 
L 1159 2956 
Q 1341 3275 1631 3429 
Q 1922 3584 2338 3584 
Q 2397 3584 2469 3576 
Q 2541 3569 2628 3553 
L 2631 2963 
z
" transform="scale(0.015625)"/>
      </defs>
      <use xlink:href="#DejaVuSans-72"/>
      <use xlink:href="#DejaVuSans-65" transform="translate(38.863281 0)"/>
      <use xlink:href="#DejaVuSans-61" transform="translate(100.386719 0)"/>
      <use xlink:href="#DejaVuSans-6c" transform="translate(161.666016 0)"/>
     </g>
    </g>
    <g id="line2d_32">
     <path d="M 61.160938 34.976562 
L 71.160938 34.976562 
L 81.160938 34.976562 
" style="fill: none; stroke: #ff7f0e; stroke-linecap: square"/>
    </g>
    <g id="text_18">
     <!-- imag -->
     <g transform="translate(89.160938 38.476562) scale(0.1 -0.1)">
      <defs>
       <path id="DejaVuSans-67" d="M 2906 1791 
Q 2906 2416 2648 2759 
Q 2391 3103 1925 3103 
Q 1463 3103 1205 2759 
Q 947 2416 947 1791 
Q 947 1169 1205 825 
Q 1463 481 1925 481 
Q 2391 481 2648 825 
Q 2906 1169 2906 1791 
z
M 3481 434 
Q 3481 -459 3084 -895 
Q 2688 -1331 1869 -1331 
Q 1566 -1331 1297 -1286 
Q 1028 -1241 775 -1147 
L 775 -588 
Q 1028 -725 1275 -790 
Q 1522 -856 1778 -856 
Q 2344 -856 2625 -561 
Q 2906 -266 2906 331 
L 2906 616 
Q 2728 306 2450 153 
Q 2172 0 1784 0 
Q 1141 0 747 490 
Q 353 981 353 1791 
Q 353 2603 747 3093 
Q 1141 3584 1784 3584 
Q 2172 3584 2450 3431 
Q 2728 3278 2906 2969 
L 2906 3500 
L 3481 3500 
L 3481 434 
z
" transform="scale(0.015625)"/>
      </defs>
      <use xlink:href="#DejaVuSans-69"/>
      <use xlink:href="#DejaVuSans-6d" transform="translate(27.783203 0)"/>
      <use xlink:href="#DejaVuSans-61" transform="translate(125.195312 0)"/>
      <use xlink:href="#DejaVuSans-67" transform="translate(186.474609 0)"/>
     </g>
    </g>
   </g>
  </g>
 </g>
 <defs>
  <clipPath id="p7a39ee00dd">
   <rect x="52.160938" y="7.2" width="516.639063" height="243.221875"/>
  </clipPath>
 </defs>
</svg>
