<?xml version="1.0" encoding="utf-8" standalone="no"?>
<!DOCTYPE svg PUBLIC "-//W3C//DTD SVG 1.1//EN"
  "http://www.w3.org/Graphics/SVG/1.1/DTD/svg11.dtd">
<svg xmlns:xlink="http://www.w3.org/1999/xlink" width="576pt" height="288pt" viewBox="0 0 576 288" xmlns="http://www.w3.org/2000/svg" version="1.1">
 <metadata>
  <rdf:RDF xmlns:dc="http://purl.org/dc/elements/1.1/" xmlns:cc="http://creativecommons.org/ns#" xmlns:rdf="http://www.w3.org/1999/02/22-rdf-syntax-ns#">
   <cc:Work>
    <dc:type rdf:resource="http://purl.org/dc/dcmitype/StillImage"/>
    <dc:date>2025-05-10T16:54:34.284215</dc:date>
    <dc:format>image/svg+xml</dc:format>
    <dc:creator>
     <cc:Agent>
      <dc:title>Matplotlib v3.10.3, https://matplotlib.org/</dc:title>
     </cc:Agent>
    </dc:creator>
   </cc:Work>
  </rdf:RDF>
 </metadata>
 <defs>
  <style type="text/css">*{stroke-linejoin: round; stroke-linecap: butt}</style>
 </defs>
 <g id="figure_1">
  <g id="patch_1">
   <path d="M 0 288 
L 576 288 
L 576 0 
L 0 0 
z
" style="fill: #ffffff"/>
  </g>
  <g id="axes_1">
   <g id="patch_2">
    <path d="M 55.345313 250.421875 
L 559.25625 250.421875 
L 559.25625 22.32 
L 55.345313 22.32 
z
" style="fill: #ffffff"/>
   </g>
   <g id="matplotlib.axis_1">
    <g id="xtick_1">
     <g id="line2d_1">
      <path d="M 55.345312 250.421875 
L 55.345312 22.32 
" clip-path="url(#pa70b8ba3c3)" style="fill: none; stroke-dasharray: 2.96,1.28; stroke-dashoffset: 0; stroke: #b0b0b0; stroke-opacity: 0.8; stroke-width: 0.8"/>
     </g>
     <g id="line2d_2">
      <defs>
       <path id="mbd75092c20" d="M 0 0 
L 0 3.5 
" style="stroke: #000000; stroke-width: 0.8"/>
      </defs>
      <g>
       <use xlink:href="#mbd75092c20" x="55.345312" y="250.421875" style="stroke: #000000; stroke-width: 0.8"/>
      </g>
     </g>
     <g id="text_1">
      <!-- -200 -->
      <g transform="translate(43.997656 265.020312) scale(0.1 -0.1)">
       <defs>
        <path id="DejaVuSans-2d" d="M 313 2009 
L 1997 2009 
L 1997 1497 
L 313 1497 
L 313 2009 
z
" transform="scale(0.015625)"/>
        <path id="DejaVuSans-32" d="M 1228 531 
L 3431 531 
L 3431 0 
L 469 0 
L 469 531 
Q 828 903 1448 1529 
Q 2069 2156 2228 2338 
Q 2531 2678 2651 2914 
Q 2772 3150 2772 3378 
Q 2772 3750 2511 3984 
Q 2250 4219 1831 4219 
Q 1534 4219 1204 4116 
Q 875 4013 500 3803 
L 500 4441 
Q 881 4594 1212 4672 
Q 1544 4750 1819 4750 
Q 2544 4750 2975 4387 
Q 3406 4025 3406 3419 
Q 3406 3131 3298 2873 
Q 3191 2616 2906 2266 
Q 2828 2175 2409 1742 
Q 1991 1309 1228 531 
z
" transform="scale(0.015625)"/>
        <path id="DejaVuSans-30" d="M 2034 4250 
Q 1547 4250 1301 3770 
Q 1056 3291 1056 2328 
Q 1056 1369 1301 889 
Q 1547 409 2034 409 
Q 2525 409 2770 889 
Q 3016 1369 3016 2328 
Q 3016 3291 2770 3770 
Q 2525 4250 2034 4250 
z
M 2034 4750 
Q 2819 4750 3233 4129 
Q 3647 3509 3647 2328 
Q 3647 1150 3233 529 
Q 2819 -91 2034 -91 
Q 1250 -91 836 529 
Q 422 1150 422 2328 
Q 422 3509 836 4129 
Q 1250 4750 2034 4750 
z
" transform="scale(0.015625)"/>
       </defs>
       <use xlink:href="#DejaVuSans-2d"/>
       <use xlink:href="#DejaVuSans-32" transform="translate(36.083984 0)"/>
       <use xlink:href="#DejaVuSans-30" transform="translate(99.707031 0)"/>
       <use xlink:href="#DejaVuSans-30" transform="translate(163.330078 0)"/>
      </g>
     </g>
    </g>
    <g id="xtick_2">
     <g id="line2d_3">
      <path d="M 118.33418 250.421875 
L 118.33418 22.32 
" clip-path="url(#pa70b8ba3c3)" style="fill: none; stroke-dasharray: 2.96,1.28; stroke-dashoffset: 0; stroke: #b0b0b0; stroke-opacity: 0.8; stroke-width: 0.8"/>
     </g>
     <g id="line2d_4">
      <g>
       <use xlink:href="#mbd75092c20" x="118.33418" y="250.421875" style="stroke: #000000; stroke-width: 0.8"/>
      </g>
     </g>
     <g id="text_2">
      <!-- -150 -->
      <g transform="translate(106.986523 265.020312) scale(0.1 -0.1)">
       <defs>
        <path id="DejaVuSans-31" d="M 794 531 
L 1825 531 
L 1825 4091 
L 703 3866 
L 703 4441 
L 1819 4666 
L 2450 4666 
L 2450 531 
L 3481 531 
L 3481 0 
L 794 0 
L 794 531 
z
" transform="scale(0.015625)"/>
        <path id="DejaVuSans-35" d="M 691 4666 
L 3169 4666 
L 3169 4134 
L 1269 4134 
L 1269 2991 
Q 1406 3038 1543 3061 
Q 1681 3084 1819 3084 
Q 2600 3084 3056 2656 
Q 3513 2228 3513 1497 
Q 3513 744 3044 326 
Q 2575 -91 1722 -91 
Q 1428 -91 1123 -41 
Q 819 9 494 109 
L 494 744 
Q 775 591 1075 516 
Q 1375 441 1709 441 
Q 2250 441 2565 725 
Q 2881 1009 2881 1497 
Q 2881 1984 2565 2268 
Q 2250 2553 1709 2553 
Q 1456 2553 1204 2497 
Q 953 2441 691 2322 
L 691 4666 
z
" transform="scale(0.015625)"/>
       </defs>
       <use xlink:href="#DejaVuSans-2d"/>
       <use xlink:href="#DejaVuSans-31" transform="translate(36.083984 0)"/>
       <use xlink:href="#DejaVuSans-35" transform="translate(99.707031 0)"/>
       <use xlink:href="#DejaVuSans-30" transform="translate(163.330078 0)"/>
      </g>
     </g>
    </g>
    <g id="xtick_3">
     <g id="line2d_5">
      <path d="M 181.323047 250.421875 
L 181.323047 22.32 
" clip-path="url(#pa70b8ba3c3)" style="fill: none; stroke-dasharray: 2.96,1.28; stroke-dashoffset: 0; stroke: #b0b0b0; stroke-opacity: 0.8; stroke-width: 0.8"/>
     </g>
     <g id="line2d_6">
      <g>
       <use xlink:href="#mbd75092c20" x="181.323047" y="250.421875" style="stroke: #000000; stroke-width: 0.8"/>
      </g>
     </g>
     <g id="text_3">
      <!-- -100 -->
      <g transform="translate(169.975391 265.020312) scale(0.1 -0.1)">
       <use xlink:href="#DejaVuSans-2d"/>
       <use xlink:href="#DejaVuSans-31" transform="translate(36.083984 0)"/>
       <use xlink:href="#DejaVuSans-30" transform="translate(99.707031 0)"/>
       <use xlink:href="#DejaVuSans-30" transform="translate(163.330078 0)"/>
      </g>
     </g>
    </g>
    <g id="xtick_4">
     <g id="line2d_7">
      <path d="M 244.311914 250.421875 
L 244.311914 22.32 
" clip-path="url(#pa70b8ba3c3)" style="fill: none; stroke-dasharray: 2.96,1.28; stroke-dashoffset: 0; stroke: #b0b0b0; stroke-opacity: 0.8; stroke-width: 0.8"/>
     </g>
     <g id="line2d_8">
      <g>
       <use xlink:href="#mbd75092c20" x="244.311914" y="250.421875" style="stroke: #000000; stroke-width: 0.8"/>
      </g>
     </g>
     <g id="text_4">
      <!-- -50 -->
      <g transform="translate(236.145508 265.020312) scale(0.1 -0.1)">
       <use xlink:href="#DejaVuSans-2d"/>
       <use xlink:href="#DejaVuSans-35" transform="translate(36.083984 0)"/>
       <use xlink:href="#DejaVuSans-30" transform="translate(99.707031 0)"/>
      </g>
     </g>
    </g>
    <g id="xtick_5">
     <g id="line2d_9">
      <path d="M 307.300781 250.421875 
L 307.300781 22.32 
" clip-path="url(#pa70b8ba3c3)" style="fill: none; stroke-dasharray: 2.96,1.28; stroke-dashoffset: 0; stroke: #b0b0b0; stroke-opacity: 0.8; stroke-width: 0.8"/>
     </g>
     <g id="line2d_10">
      <g>
       <use xlink:href="#mbd75092c20" x="307.300781" y="250.421875" style="stroke: #000000; stroke-width: 0.8"/>
      </g>
     </g>
     <g id="text_5">
      <!-- 0 -->
      <g transform="translate(304.119531 265.020312) scale(0.1 -0.1)">
       <use xlink:href="#DejaVuSans-30"/>
      </g>
     </g>
    </g>
    <g id="xtick_6">
     <g id="line2d_11">
      <path d="M 370.289648 250.421875 
L 370.289648 22.32 
" clip-path="url(#pa70b8ba3c3)" style="fill: none; stroke-dasharray: 2.96,1.28; stroke-dashoffset: 0; stroke: #b0b0b0; stroke-opacity: 0.8; stroke-width: 0.8"/>
     </g>
     <g id="line2d_12">
      <g>
       <use xlink:href="#mbd75092c20" x="370.289648" y="250.421875" style="stroke: #000000; stroke-width: 0.8"/>
      </g>
     </g>
     <g id="text_6">
      <!-- 50 -->
      <g transform="translate(363.927148 265.020312) scale(0.1 -0.1)">
       <use xlink:href="#DejaVuSans-35"/>
       <use xlink:href="#DejaVuSans-30" transform="translate(63.623047 0)"/>
      </g>
     </g>
    </g>
    <g id="xtick_7">
     <g id="line2d_13">
      <path d="M 433.278516 250.421875 
L 433.278516 22.32 
" clip-path="url(#pa70b8ba3c3)" style="fill: none; stroke-dasharray: 2.96,1.28; stroke-dashoffset: 0; stroke: #b0b0b0; stroke-opacity: 0.8; stroke-width: 0.8"/>
     </g>
     <g id="line2d_14">
      <g>
       <use xlink:href="#mbd75092c20" x="433.278516" y="250.421875" style="stroke: #000000; stroke-width: 0.8"/>
      </g>
     </g>
     <g id="text_7">
      <!-- 100 -->
      <g transform="translate(423.734766 265.020312) scale(0.1 -0.1)">
       <use xlink:href="#DejaVuSans-31"/>
       <use xlink:href="#DejaVuSans-30" transform="translate(63.623047 0)"/>
       <use xlink:href="#DejaVuSans-30" transform="translate(127.246094 0)"/>
      </g>
     </g>
    </g>
    <g id="xtick_8">
     <g id="line2d_15">
      <path d="M 496.267383 250.421875 
L 496.267383 22.32 
" clip-path="url(#pa70b8ba3c3)" style="fill: none; stroke-dasharray: 2.96,1.28; stroke-dashoffset: 0; stroke: #b0b0b0; stroke-opacity: 0.8; stroke-width: 0.8"/>
     </g>
     <g id="line2d_16">
      <g>
       <use xlink:href="#mbd75092c20" x="496.267383" y="250.421875" style="stroke: #000000; stroke-width: 0.8"/>
      </g>
     </g>
     <g id="text_8">
      <!-- 150 -->
      <g transform="translate(486.723633 265.020312) scale(0.1 -0.1)">
       <use xlink:href="#DejaVuSans-31"/>
       <use xlink:href="#DejaVuSans-35" transform="translate(63.623047 0)"/>
       <use xlink:href="#DejaVuSans-30" transform="translate(127.246094 0)"/>
      </g>
     </g>
    </g>
    <g id="xtick_9">
     <g id="line2d_17">
      <path d="M 559.25625 250.421875 
L 559.25625 22.32 
" clip-path="url(#pa70b8ba3c3)" style="fill: none; stroke-dasharray: 2.96,1.28; stroke-dashoffset: 0; stroke: #b0b0b0; stroke-opacity: 0.8; stroke-width: 0.8"/>
     </g>
     <g id="line2d_18">
      <g>
       <use xlink:href="#mbd75092c20" x="559.25625" y="250.421875" style="stroke: #000000; stroke-width: 0.8"/>
      </g>
     </g>
     <g id="text_9">
      <!-- 200 -->
      <g transform="translate(549.7125 265.020312) scale(0.1 -0.1)">
       <use xlink:href="#DejaVuSans-32"/>
       <use xlink:href="#DejaVuSans-30" transform="translate(63.623047 0)"/>
       <use xlink:href="#DejaVuSans-30" transform="translate(127.246094 0)"/>
      </g>
     </g>
    </g>
    <g id="text_10">
     <!-- Frequency (Hz), $f$ -->
     <g transform="translate(264.150781 278.7) scale(0.1 -0.1)">
      <defs>
       <path id="DejaVuSans-46" d="M 628 4666 
L 3309 4666 
L 3309 4134 
L 1259 4134 
L 1259 2759 
L 3109 2759 
L 3109 2228 
L 1259 2228 
L 1259 0 
L 628 0 
L 628 4666 
z
" transform="scale(0.015625)"/>
       <path id="DejaVuSans-72" d="M 2631 2963 
Q 2534 3019 2420 3045 
Q 2306 3072 2169 3072 
Q 1681 3072 1420 2755 
Q 1159 2438 1159 1844 
L 1159 0 
L 581 0 
L 581 3500 
L 1159 3500 
L 1159 2956 
Q 1341 3275 1631 3429 
Q 1922 3584 2338 3584 
Q 2397 3584 2469 3576 
Q 2541 3569 2628 3553 
L 2631 2963 
z
" transform="scale(0.015625)"/>
       <path id="DejaVuSans-65" d="M 3597 1894 
L 3597 1613 
L 953 1613 
Q 991 1019 1311 708 
Q 1631 397 2203 397 
Q 2534 397 2845 478 
Q 3156 559 3463 722 
L 3463 178 
Q 3153 47 2828 -22 
Q 2503 -91 2169 -91 
Q 1331 -91 842 396 
Q 353 884 353 1716 
Q 353 2575 817 3079 
Q 1281 3584 2069 3584 
Q 2775 3584 3186 3129 
Q 3597 2675 3597 1894 
z
M 3022 2063 
Q 3016 2534 2758 2815 
Q 2500 3097 2075 3097 
Q 1594 3097 1305 2825 
Q 1016 2553 972 2059 
L 3022 2063 
z
" transform="scale(0.015625)"/>
       <path id="DejaVuSans-71" d="M 947 1747 
Q 947 1113 1208 752 
Q 1469 391 1925 391 
Q 2381 391 2643 752 
Q 2906 1113 2906 1747 
Q 2906 2381 2643 2742 
Q 2381 3103 1925 3103 
Q 1469 3103 1208 2742 
Q 947 2381 947 1747 
z
M 2906 525 
Q 2725 213 2448 61 
Q 2172 -91 1784 -91 
Q 1150 -91 751 415 
Q 353 922 353 1747 
Q 353 2572 751 3078 
Q 1150 3584 1784 3584 
Q 2172 3584 2448 3432 
Q 2725 3281 2906 2969 
L 2906 3500 
L 3481 3500 
L 3481 -1331 
L 2906 -1331 
L 2906 525 
z
" transform="scale(0.015625)"/>
       <path id="DejaVuSans-75" d="M 544 1381 
L 544 3500 
L 1119 3500 
L 1119 1403 
Q 1119 906 1312 657 
Q 1506 409 1894 409 
Q 2359 409 2629 706 
Q 2900 1003 2900 1516 
L 2900 3500 
L 3475 3500 
L 3475 0 
L 2900 0 
L 2900 538 
Q 2691 219 2414 64 
Q 2138 -91 1772 -91 
Q 1169 -91 856 284 
Q 544 659 544 1381 
z
M 1991 3584 
L 1991 3584 
z
" transform="scale(0.015625)"/>
       <path id="DejaVuSans-6e" d="M 3513 2113 
L 3513 0 
L 2938 0 
L 2938 2094 
Q 2938 2591 2744 2837 
Q 2550 3084 2163 3084 
Q 1697 3084 1428 2787 
Q 1159 2491 1159 1978 
L 1159 0 
L 581 0 
L 581 3500 
L 1159 3500 
L 1159 2956 
Q 1366 3272 1645 3428 
Q 1925 3584 2291 3584 
Q 2894 3584 3203 3211 
Q 3513 2838 3513 2113 
z
" transform="scale(0.015625)"/>
       <path id="DejaVuSans-63" d="M 3122 3366 
L 3122 2828 
Q 2878 2963 2633 3030 
Q 2388 3097 2138 3097 
Q 1578 3097 1268 2742 
Q 959 2388 959 1747 
Q 959 1106 1268 751 
Q 1578 397 2138 397 
Q 2388 397 2633 464 
Q 2878 531 3122 666 
L 3122 134 
Q 2881 22 2623 -34 
Q 2366 -91 2075 -91 
Q 1284 -91 818 406 
Q 353 903 353 1747 
Q 353 2603 823 3093 
Q 1294 3584 2113 3584 
Q 2378 3584 2631 3529 
Q 2884 3475 3122 3366 
z
" transform="scale(0.015625)"/>
       <path id="DejaVuSans-79" d="M 2059 -325 
Q 1816 -950 1584 -1140 
Q 1353 -1331 966 -1331 
L 506 -1331 
L 506 -850 
L 844 -850 
Q 1081 -850 1212 -737 
Q 1344 -625 1503 -206 
L 1606 56 
L 191 3500 
L 800 3500 
L 1894 763 
L 2988 3500 
L 3597 3500 
L 2059 -325 
z
" transform="scale(0.015625)"/>
       <path id="DejaVuSans-20" transform="scale(0.015625)"/>
       <path id="DejaVuSans-28" d="M 1984 4856 
Q 1566 4138 1362 3434 
Q 1159 2731 1159 2009 
Q 1159 1288 1364 580 
Q 1569 -128 1984 -844 
L 1484 -844 
Q 1016 -109 783 600 
Q 550 1309 550 2009 
Q 550 2706 781 3412 
Q 1013 4119 1484 4856 
L 1984 4856 
z
" transform="scale(0.015625)"/>
       <path id="DejaVuSans-48" d="M 628 4666 
L 1259 4666 
L 1259 2753 
L 3553 2753 
L 3553 4666 
L 4184 4666 
L 4184 0 
L 3553 0 
L 3553 2222 
L 1259 2222 
L 1259 0 
L 628 0 
L 628 4666 
z
" transform="scale(0.015625)"/>
       <path id="DejaVuSans-7a" d="M 353 3500 
L 3084 3500 
L 3084 2975 
L 922 459 
L 3084 459 
L 3084 0 
L 275 0 
L 275 525 
L 2438 3041 
L 353 3041 
L 353 3500 
z
" transform="scale(0.015625)"/>
       <path id="DejaVuSans-29" d="M 513 4856 
L 1013 4856 
Q 1481 4119 1714 3412 
Q 1947 2706 1947 2009 
Q 1947 1309 1714 600 
Q 1481 -109 1013 -844 
L 513 -844 
Q 928 -128 1133 580 
Q 1338 1288 1338 2009 
Q 1338 2731 1133 3434 
Q 928 4138 513 4856 
z
" transform="scale(0.015625)"/>
       <path id="DejaVuSans-2c" d="M 750 794 
L 1409 794 
L 1409 256 
L 897 -744 
L 494 -744 
L 750 256 
L 750 794 
z
" transform="scale(0.015625)"/>
       <path id="DejaVuSans-Oblique-66" d="M 3059 4863 
L 2969 4384 
L 2419 4384 
Q 2106 4384 1964 4261 
Q 1822 4138 1753 3809 
L 1691 3500 
L 2638 3500 
L 2553 3053 
L 1606 3053 
L 1013 0 
L 434 0 
L 1031 3053 
L 481 3053 
L 563 3500 
L 1113 3500 
L 1159 3744 
Q 1278 4363 1576 4613 
Q 1875 4863 2516 4863 
L 3059 4863 
z
" transform="scale(0.015625)"/>
      </defs>
      <use xlink:href="#DejaVuSans-46" transform="translate(0 0.015625)"/>
      <use xlink:href="#DejaVuSans-72" transform="translate(57.519531 0.015625)"/>
      <use xlink:href="#DejaVuSans-65" transform="translate(98.632812 0.015625)"/>
      <use xlink:href="#DejaVuSans-71" transform="translate(160.15625 0.015625)"/>
      <use xlink:href="#DejaVuSans-75" transform="translate(223.632812 0.015625)"/>
      <use xlink:href="#DejaVuSans-65" transform="translate(287.011719 0.015625)"/>
      <use xlink:href="#DejaVuSans-6e" transform="translate(348.535156 0.015625)"/>
      <use xlink:href="#DejaVuSans-63" transform="translate(411.914062 0.015625)"/>
      <use xlink:href="#DejaVuSans-79" transform="translate(466.894531 0.015625)"/>
      <use xlink:href="#DejaVuSans-20" transform="translate(526.074219 0.015625)"/>
      <use xlink:href="#DejaVuSans-28" transform="translate(557.861328 0.015625)"/>
      <use xlink:href="#DejaVuSans-48" transform="translate(596.875 0.015625)"/>
      <use xlink:href="#DejaVuSans-7a" transform="translate(672.070312 0.015625)"/>
      <use xlink:href="#DejaVuSans-29" transform="translate(724.560547 0.015625)"/>
      <use xlink:href="#DejaVuSans-2c" transform="translate(763.574219 0.015625)"/>
      <use xlink:href="#DejaVuSans-20" transform="translate(795.361328 0.015625)"/>
      <use xlink:href="#DejaVuSans-Oblique-66" transform="translate(827.148438 0.015625)"/>
     </g>
    </g>
   </g>
   <g id="matplotlib.axis_2">
    <g id="ytick_1">
     <g id="line2d_19">
      <path d="M 55.345313 250.421875 
L 559.25625 250.421875 
" clip-path="url(#pa70b8ba3c3)" style="fill: none; stroke-dasharray: 2.96,1.28; stroke-dashoffset: 0; stroke: #b0b0b0; stroke-opacity: 0.8; stroke-width: 0.8"/>
     </g>
     <g id="line2d_20">
      <defs>
       <path id="m09acaf9e02" d="M 0 0 
L -3.5 0 
" style="stroke: #000000; stroke-width: 0.8"/>
      </defs>
      <g>
       <use xlink:href="#m09acaf9e02" x="55.345313" y="250.421875" style="stroke: #000000; stroke-width: 0.8"/>
      </g>
     </g>
     <g id="text_11">
      <!-- −100 -->
      <g transform="translate(20.878125 254.221094) scale(0.1 -0.1)">
       <defs>
        <path id="DejaVuSans-2212" d="M 678 2272 
L 4684 2272 
L 4684 1741 
L 678 1741 
L 678 2272 
z
" transform="scale(0.015625)"/>
       </defs>
       <use xlink:href="#DejaVuSans-2212"/>
       <use xlink:href="#DejaVuSans-31" transform="translate(83.789062 0)"/>
       <use xlink:href="#DejaVuSans-30" transform="translate(147.412109 0)"/>
       <use xlink:href="#DejaVuSans-30" transform="translate(211.035156 0)"/>
      </g>
     </g>
    </g>
    <g id="ytick_2">
     <g id="line2d_21">
      <path d="M 55.345313 204.8015 
L 559.25625 204.8015 
" clip-path="url(#pa70b8ba3c3)" style="fill: none; stroke-dasharray: 2.96,1.28; stroke-dashoffset: 0; stroke: #b0b0b0; stroke-opacity: 0.8; stroke-width: 0.8"/>
     </g>
     <g id="line2d_22">
      <g>
       <use xlink:href="#m09acaf9e02" x="55.345313" y="204.8015" style="stroke: #000000; stroke-width: 0.8"/>
      </g>
     </g>
     <g id="text_12">
      <!-- −80 -->
      <g transform="translate(27.240625 208.600719) scale(0.1 -0.1)">
       <defs>
        <path id="DejaVuSans-38" d="M 2034 2216 
Q 1584 2216 1326 1975 
Q 1069 1734 1069 1313 
Q 1069 891 1326 650 
Q 1584 409 2034 409 
Q 2484 409 2743 651 
Q 3003 894 3003 1313 
Q 3003 1734 2745 1975 
Q 2488 2216 2034 2216 
z
M 1403 2484 
Q 997 2584 770 2862 
Q 544 3141 544 3541 
Q 544 4100 942 4425 
Q 1341 4750 2034 4750 
Q 2731 4750 3128 4425 
Q 3525 4100 3525 3541 
Q 3525 3141 3298 2862 
Q 3072 2584 2669 2484 
Q 3125 2378 3379 2068 
Q 3634 1759 3634 1313 
Q 3634 634 3220 271 
Q 2806 -91 2034 -91 
Q 1263 -91 848 271 
Q 434 634 434 1313 
Q 434 1759 690 2068 
Q 947 2378 1403 2484 
z
M 1172 3481 
Q 1172 3119 1398 2916 
Q 1625 2713 2034 2713 
Q 2441 2713 2670 2916 
Q 2900 3119 2900 3481 
Q 2900 3844 2670 4047 
Q 2441 4250 2034 4250 
Q 1625 4250 1398 4047 
Q 1172 3844 1172 3481 
z
" transform="scale(0.015625)"/>
       </defs>
       <use xlink:href="#DejaVuSans-2212"/>
       <use xlink:href="#DejaVuSans-38" transform="translate(83.789062 0)"/>
       <use xlink:href="#DejaVuSans-30" transform="translate(147.412109 0)"/>
      </g>
     </g>
    </g>
    <g id="ytick_3">
     <g id="line2d_23">
      <path d="M 55.345313 159.181125 
L 559.25625 159.181125 
" clip-path="url(#pa70b8ba3c3)" style="fill: none; stroke-dasharray: 2.96,1.28; stroke-dashoffset: 0; stroke: #b0b0b0; stroke-opacity: 0.8; stroke-width: 0.8"/>
     </g>
     <g id="line2d_24">
      <g>
       <use xlink:href="#m09acaf9e02" x="55.345313" y="159.181125" style="stroke: #000000; stroke-width: 0.8"/>
      </g>
     </g>
     <g id="text_13">
      <!-- −60 -->
      <g transform="translate(27.240625 162.980344) scale(0.1 -0.1)">
       <defs>
        <path id="DejaVuSans-36" d="M 2113 2584 
Q 1688 2584 1439 2293 
Q 1191 2003 1191 1497 
Q 1191 994 1439 701 
Q 1688 409 2113 409 
Q 2538 409 2786 701 
Q 3034 994 3034 1497 
Q 3034 2003 2786 2293 
Q 2538 2584 2113 2584 
z
M 3366 4563 
L 3366 3988 
Q 3128 4100 2886 4159 
Q 2644 4219 2406 4219 
Q 1781 4219 1451 3797 
Q 1122 3375 1075 2522 
Q 1259 2794 1537 2939 
Q 1816 3084 2150 3084 
Q 2853 3084 3261 2657 
Q 3669 2231 3669 1497 
Q 3669 778 3244 343 
Q 2819 -91 2113 -91 
Q 1303 -91 875 529 
Q 447 1150 447 2328 
Q 447 3434 972 4092 
Q 1497 4750 2381 4750 
Q 2619 4750 2861 4703 
Q 3103 4656 3366 4563 
z
" transform="scale(0.015625)"/>
       </defs>
       <use xlink:href="#DejaVuSans-2212"/>
       <use xlink:href="#DejaVuSans-36" transform="translate(83.789062 0)"/>
       <use xlink:href="#DejaVuSans-30" transform="translate(147.412109 0)"/>
      </g>
     </g>
    </g>
    <g id="ytick_4">
     <g id="line2d_25">
      <path d="M 55.345313 113.56075 
L 559.25625 113.56075 
" clip-path="url(#pa70b8ba3c3)" style="fill: none; stroke-dasharray: 2.96,1.28; stroke-dashoffset: 0; stroke: #b0b0b0; stroke-opacity: 0.8; stroke-width: 0.8"/>
     </g>
     <g id="line2d_26">
      <g>
       <use xlink:href="#m09acaf9e02" x="55.345313" y="113.56075" style="stroke: #000000; stroke-width: 0.8"/>
      </g>
     </g>
     <g id="text_14">
      <!-- −40 -->
      <g transform="translate(27.240625 117.359969) scale(0.1 -0.1)">
       <defs>
        <path id="DejaVuSans-34" d="M 2419 4116 
L 825 1625 
L 2419 1625 
L 2419 4116 
z
M 2253 4666 
L 3047 4666 
L 3047 1625 
L 3713 1625 
L 3713 1100 
L 3047 1100 
L 3047 0 
L 2419 0 
L 2419 1100 
L 313 1100 
L 313 1709 
L 2253 4666 
z
" transform="scale(0.015625)"/>
       </defs>
       <use xlink:href="#DejaVuSans-2212"/>
       <use xlink:href="#DejaVuSans-34" transform="translate(83.789062 0)"/>
       <use xlink:href="#DejaVuSans-30" transform="translate(147.412109 0)"/>
      </g>
     </g>
    </g>
    <g id="ytick_5">
     <g id="line2d_27">
      <path d="M 55.345313 67.940375 
L 559.25625 67.940375 
" clip-path="url(#pa70b8ba3c3)" style="fill: none; stroke-dasharray: 2.96,1.28; stroke-dashoffset: 0; stroke: #b0b0b0; stroke-opacity: 0.8; stroke-width: 0.8"/>
     </g>
     <g id="line2d_28">
      <g>
       <use xlink:href="#m09acaf9e02" x="55.345313" y="67.940375" style="stroke: #000000; stroke-width: 0.8"/>
      </g>
     </g>
     <g id="text_15">
      <!-- −20 -->
      <g transform="translate(27.240625 71.739594) scale(0.1 -0.1)">
       <use xlink:href="#DejaVuSans-2212"/>
       <use xlink:href="#DejaVuSans-32" transform="translate(83.789062 0)"/>
       <use xlink:href="#DejaVuSans-30" transform="translate(147.412109 0)"/>
      </g>
     </g>
    </g>
    <g id="ytick_6">
     <g id="line2d_29">
      <path d="M 55.345313 22.32 
L 559.25625 22.32 
" clip-path="url(#pa70b8ba3c3)" style="fill: none; stroke-dasharray: 2.96,1.28; stroke-dashoffset: 0; stroke: #b0b0b0; stroke-opacity: 0.8; stroke-width: 0.8"/>
     </g>
     <g id="line2d_30">
      <g>
       <use xlink:href="#m09acaf9e02" x="55.345313" y="22.32" style="stroke: #000000; stroke-width: 0.8"/>
      </g>
     </g>
     <g id="text_16">
      <!-- 0 -->
      <g transform="translate(41.982813 26.119219) scale(0.1 -0.1)">
       <use xlink:href="#DejaVuSans-30"/>
      </g>
     </g>
    </g>
    <g id="text_17">
     <!-- Power density (dB/Hz) -->
     <g transform="translate(14.798438 191.570938) rotate(-90) scale(0.1 -0.1)">
      <defs>
       <path id="DejaVuSans-50" d="M 1259 4147 
L 1259 2394 
L 2053 2394 
Q 2494 2394 2734 2622 
Q 2975 2850 2975 3272 
Q 2975 3691 2734 3919 
Q 2494 4147 2053 4147 
L 1259 4147 
z
M 628 4666 
L 2053 4666 
Q 2838 4666 3239 4311 
Q 3641 3956 3641 3272 
Q 3641 2581 3239 2228 
Q 2838 1875 2053 1875 
L 1259 1875 
L 1259 0 
L 628 0 
L 628 4666 
z
" transform="scale(0.015625)"/>
       <path id="DejaVuSans-6f" d="M 1959 3097 
Q 1497 3097 1228 2736 
Q 959 2375 959 1747 
Q 959 1119 1226 758 
Q 1494 397 1959 397 
Q 2419 397 2687 759 
Q 2956 1122 2956 1747 
Q 2956 2369 2687 2733 
Q 2419 3097 1959 3097 
z
M 1959 3584 
Q 2709 3584 3137 3096 
Q 3566 2609 3566 1747 
Q 3566 888 3137 398 
Q 2709 -91 1959 -91 
Q 1206 -91 779 398 
Q 353 888 353 1747 
Q 353 2609 779 3096 
Q 1206 3584 1959 3584 
z
" transform="scale(0.015625)"/>
       <path id="DejaVuSans-77" d="M 269 3500 
L 844 3500 
L 1563 769 
L 2278 3500 
L 2956 3500 
L 3675 769 
L 4391 3500 
L 4966 3500 
L 4050 0 
L 3372 0 
L 2619 2869 
L 1863 0 
L 1184 0 
L 269 3500 
z
" transform="scale(0.015625)"/>
       <path id="DejaVuSans-64" d="M 2906 2969 
L 2906 4863 
L 3481 4863 
L 3481 0 
L 2906 0 
L 2906 525 
Q 2725 213 2448 61 
Q 2172 -91 1784 -91 
Q 1150 -91 751 415 
Q 353 922 353 1747 
Q 353 2572 751 3078 
Q 1150 3584 1784 3584 
Q 2172 3584 2448 3432 
Q 2725 3281 2906 2969 
z
M 947 1747 
Q 947 1113 1208 752 
Q 1469 391 1925 391 
Q 2381 391 2643 752 
Q 2906 1113 2906 1747 
Q 2906 2381 2643 2742 
Q 2381 3103 1925 3103 
Q 1469 3103 1208 2742 
Q 947 2381 947 1747 
z
" transform="scale(0.015625)"/>
       <path id="DejaVuSans-73" d="M 2834 3397 
L 2834 2853 
Q 2591 2978 2328 3040 
Q 2066 3103 1784 3103 
Q 1356 3103 1142 2972 
Q 928 2841 928 2578 
Q 928 2378 1081 2264 
Q 1234 2150 1697 2047 
L 1894 2003 
Q 2506 1872 2764 1633 
Q 3022 1394 3022 966 
Q 3022 478 2636 193 
Q 2250 -91 1575 -91 
Q 1294 -91 989 -36 
Q 684 19 347 128 
L 347 722 
Q 666 556 975 473 
Q 1284 391 1588 391 
Q 1994 391 2212 530 
Q 2431 669 2431 922 
Q 2431 1156 2273 1281 
Q 2116 1406 1581 1522 
L 1381 1569 
Q 847 1681 609 1914 
Q 372 2147 372 2553 
Q 372 3047 722 3315 
Q 1072 3584 1716 3584 
Q 2034 3584 2315 3537 
Q 2597 3491 2834 3397 
z
" transform="scale(0.015625)"/>
       <path id="DejaVuSans-69" d="M 603 3500 
L 1178 3500 
L 1178 0 
L 603 0 
L 603 3500 
z
M 603 4863 
L 1178 4863 
L 1178 4134 
L 603 4134 
L 603 4863 
z
" transform="scale(0.015625)"/>
       <path id="DejaVuSans-74" d="M 1172 4494 
L 1172 3500 
L 2356 3500 
L 2356 3053 
L 1172 3053 
L 1172 1153 
Q 1172 725 1289 603 
Q 1406 481 1766 481 
L 2356 481 
L 2356 0 
L 1766 0 
Q 1100 0 847 248 
Q 594 497 594 1153 
L 594 3053 
L 172 3053 
L 172 3500 
L 594 3500 
L 594 4494 
L 1172 4494 
z
" transform="scale(0.015625)"/>
       <path id="DejaVuSans-42" d="M 1259 2228 
L 1259 519 
L 2272 519 
Q 2781 519 3026 730 
Q 3272 941 3272 1375 
Q 3272 1813 3026 2020 
Q 2781 2228 2272 2228 
L 1259 2228 
z
M 1259 4147 
L 1259 2741 
L 2194 2741 
Q 2656 2741 2882 2914 
Q 3109 3088 3109 3444 
Q 3109 3797 2882 3972 
Q 2656 4147 2194 4147 
L 1259 4147 
z
M 628 4666 
L 2241 4666 
Q 2963 4666 3353 4366 
Q 3744 4066 3744 3513 
Q 3744 3084 3544 2831 
Q 3344 2578 2956 2516 
Q 3422 2416 3680 2098 
Q 3938 1781 3938 1306 
Q 3938 681 3513 340 
Q 3088 0 2303 0 
L 628 0 
L 628 4666 
z
" transform="scale(0.015625)"/>
       <path id="DejaVuSans-2f" d="M 1625 4666 
L 2156 4666 
L 531 -594 
L 0 -594 
L 1625 4666 
z
" transform="scale(0.015625)"/>
      </defs>
      <use xlink:href="#DejaVuSans-50"/>
      <use xlink:href="#DejaVuSans-6f" transform="translate(56.677734 0)"/>
      <use xlink:href="#DejaVuSans-77" transform="translate(117.859375 0)"/>
      <use xlink:href="#DejaVuSans-65" transform="translate(199.646484 0)"/>
      <use xlink:href="#DejaVuSans-72" transform="translate(261.169922 0)"/>
      <use xlink:href="#DejaVuSans-20" transform="translate(302.283203 0)"/>
      <use xlink:href="#DejaVuSans-64" transform="translate(334.070312 0)"/>
      <use xlink:href="#DejaVuSans-65" transform="translate(397.546875 0)"/>
      <use xlink:href="#DejaVuSans-6e" transform="translate(459.070312 0)"/>
      <use xlink:href="#DejaVuSans-73" transform="translate(522.449219 0)"/>
      <use xlink:href="#DejaVuSans-69" transform="translate(574.548828 0)"/>
      <use xlink:href="#DejaVuSans-74" transform="translate(602.332031 0)"/>
      <use xlink:href="#DejaVuSans-79" transform="translate(641.541016 0)"/>
      <use xlink:href="#DejaVuSans-20" transform="translate(700.720703 0)"/>
      <use xlink:href="#DejaVuSans-28" transform="translate(732.507812 0)"/>
      <use xlink:href="#DejaVuSans-64" transform="translate(771.521484 0)"/>
      <use xlink:href="#DejaVuSans-42" transform="translate(834.998047 0)"/>
      <use xlink:href="#DejaVuSans-2f" transform="translate(903.601562 0)"/>
      <use xlink:href="#DejaVuSans-48" transform="translate(937.292969 0)"/>
      <use xlink:href="#DejaVuSans-7a" transform="translate(1012.488281 0)"/>
      <use xlink:href="#DejaVuSans-29" transform="translate(1064.978516 0)"/>
     </g>
    </g>
   </g>
   <g id="line2d_31">
    <path d="M 244.362638 289 
L 244.434939 189.77876 
L 244.680989 167.193654 
L 245.050065 153.456343 
L 245.41914 147.087498 
L 245.665191 145.373571 
L 245.788216 145.218979 
L 245.911241 145.563933 
L 246.095778 147.160355 
L 246.341829 152.068279 
L 246.587879 163.390707 
L 246.710904 176.29883 
L 246.772417 189.983284 
L 246.833929 252.528857 
L 247.018467 165.68639 
L 247.32603 145.435146 
L 247.695105 134.539788 
L 248.064181 129.365067 
L 248.310231 128.265748 
L 248.371743 128.288037 
L 248.494769 128.727721 
L 248.679306 130.548433 
L 248.925356 136.175306 
L 249.109894 145.270007 
L 249.232919 158.145129 
L 249.294432 172.140054 
L 249.355944 219.982321 
L 249.540482 146.215878 
L 249.848045 125.400868 
L 250.21712 113.565784 
L 250.586196 107.284223 
L 250.893759 105.151829 
L 250.955271 105.076119 
L 251.016784 105.132257 
L 251.139809 105.688118 
L 251.324347 107.930333 
L 251.508884 112.856445 
L 251.693422 124.007223 
L 251.816447 145.63034 
L 251.87796 184.207679 
L 252.062497 117.09617 
L 252.37006 94.292165 
L 252.862161 75.492762 
L 253.477286 60.847532 
L 254.153925 49.9079 
L 254.830563 42.322238 
L 255.445688 37.613173 
L 255.999302 34.884277 
L 256.429889 33.666932 
L 256.737452 33.262694 
L 256.983503 33.2143 
L 257.229553 33.409817 
L 257.537116 33.999549 
L 257.906191 35.223448 
L 258.398292 37.769199 
L 258.951905 41.987584 
L 259.56703 48.623046 
L 260.182156 57.874971 
L 260.735769 69.480819 
L 261.22787 84.511896 
L 261.596945 102.983728 
L 261.781483 120.100093 
L 261.96602 167.725374 
L 262.150558 121.756531 
L 262.396608 110.033991 
L 262.642659 105.901881 
L 262.827196 104.998894 
L 262.888709 104.992875 
L 263.011734 105.357612 
L 263.196272 106.763423 
L 263.503835 111.319485 
L 263.811397 119.171488 
L 264.11896 132.8937 
L 264.303498 148.925726 
L 264.488036 192.488774 
L 264.672573 147.9012 
L 264.918624 135.075643 
L 265.226186 129.157112 
L 265.472237 127.87442 
L 265.533749 127.890586 
L 265.656774 128.279926 
L 265.841312 129.721641 
L 266.148875 134.524798 
L 266.456438 143.352184 
L 266.702488 156.219614 
L 266.887026 177.63173 
L 267.010051 208.395372 
L 267.194588 165.497143 
L 267.502151 150.445939 
L 267.809714 145.176898 
L 268.055764 144.039172 
L 268.17879 144.230131 
L 268.363327 145.386093 
L 268.609377 148.605957 
L 268.91694 156.045489 
L 269.162991 166.797129 
L 269.347528 182.464773 
L 269.532066 220.357463 
L 269.716604 179.103112 
L 270.024166 163.864535 
L 270.331729 158.329158 
L 270.57778 156.981727 
L 270.639292 156.967356 
L 270.762317 157.292678 
L 270.946855 158.653889 
L 271.192905 162.220693 
L 271.500468 170.471002 
L 271.746518 183.018599 
L 271.931056 204.737094 
L 272.054081 230.316874 
L 272.238619 190.616304 
L 272.546182 175.358874 
L 272.853745 169.721129 
L 273.099795 168.291558 
L 273.22282 168.343418 
L 273.407358 169.302052 
L 273.653408 172.28467 
L 273.960971 179.486736 
L 274.207021 190.148465 
L 274.391559 206.009169 
L 274.576096 239.543235 
L 274.760634 201.327478 
L 275.068197 186.206468 
L 275.37576 180.628624 
L 275.62181 179.251711 
L 275.683323 179.233087 
L 275.806348 179.554769 
L 275.990885 180.924718 
L 276.236936 184.536093 
L 276.544498 192.92051 
L 276.790549 205.723327 
L 276.975086 228.226643 
L 277.036599 250.804361 
L 277.098112 249.527826 
L 277.282649 212.81296 
L 277.590212 198.101538 
L 277.897775 192.893037 
L 278.143825 191.846824 
L 278.26685 192.112087 
L 278.451388 193.424004 
L 278.697438 196.951416 
L 279.005001 204.989003 
L 279.251051 216.516923 
L 279.435589 233.370707 
L 279.558614 268.199086 
L 279.620127 263.940074 
L 279.804664 229.156424 
L 280.050715 217.464025 
L 280.296765 213.220624 
L 280.481303 212.484169 
L 280.604328 212.877531 
L 280.788865 214.670697 
L 281.034916 219.33982 
L 281.342479 229.628547 
L 281.650041 248.115448 
L 281.896092 278.09882 
L 281.94507 289 
M 282.264002 289 
L 282.449705 258.706284 
L 282.81878 231.882805 
L 283.187856 219.039944 
L 283.495418 213.782761 
L 283.741469 212.481716 
L 283.864494 212.854114 
L 284.049031 214.985292 
L 284.233569 219.826186 
L 284.418107 230.163395 
L 284.541132 246.811585 
L 284.602645 272.586157 
L 284.664157 260.677566 
L 284.848695 225.006068 
L 285.156258 206.80179 
L 285.525333 196.722268 
L 285.832896 192.767882 
L 286.078946 191.847726 
L 286.201971 192.144656 
L 286.386509 193.677414 
L 286.632559 198.439074 
L 286.878609 209.131802 
L 287.063147 231.348125 
L 287.12466 259.081896 
L 287.186172 243.846517 
L 287.37071 209.733548 
L 287.678273 192.468685 
L 288.047348 183.217654 
L 288.354911 179.815415 
L 288.539449 179.227093 
L 288.662474 179.438065 
L 288.847012 180.758096 
L 289.093062 184.921503 
L 289.339112 193.859128 
L 289.52365 209.24957 
L 289.646675 250.165892 
L 289.708187 231.195532 
L 289.892725 198.119795 
L 290.200288 181.144698 
L 290.569363 172.085046 
L 290.876926 168.792381 
L 291.061464 168.254912 
L 291.184489 168.494907 
L 291.369027 169.852986 
L 291.615077 174.063475 
L 291.861127 183.071827 
L 292.045665 198.656925 
L 292.107178 210.033453 
L 292.16869 242.268797 
L 292.230203 219.167863 
L 292.476253 182.149466 
L 292.783816 167.978827 
L 293.152891 159.993066 
L 293.460454 157.239224 
L 293.583479 156.960634 
L 293.644992 156.999152 
L 293.768017 157.452328 
L 293.952555 159.194184 
L 294.198605 164.21558 
L 294.444655 175.279858 
L 294.629193 198.863424 
L 294.690705 234.02622 
L 294.752218 206.260838 
L 294.998268 169.941843 
L 295.305831 155.650483 
L 295.674906 147.424569 
L 295.982469 144.437111 
L 296.167007 144.04634 
L 296.290032 144.39552 
L 296.47457 145.977648 
L 296.72062 150.786703 
L 296.96667 161.68314 
L 297.089695 173.669293 
L 297.151208 185.542265 
L 297.21272 224.383435 
L 297.397258 166.390083 
L 297.704821 145.337888 
L 298.073896 134.267902 
L 298.442972 129.022246 
L 298.689022 127.87758 
L 298.750535 127.886075 
L 298.87356 128.292646 
L 299.058097 130.040685 
L 299.304148 135.468801 
L 299.488685 144.146226 
L 299.611711 156.046254 
L 299.673223 168.10801 
L 299.734736 211.815068 
L 299.919273 147.413503 
L 300.226836 125.762743 
L 300.595912 113.701863 
L 300.964987 107.304501 
L 301.27255 105.080671 
L 301.395575 105.016295 
L 301.5186 105.516845 
L 301.703138 107.638423 
L 301.887675 112.334595 
L 302.072213 122.81043 
L 302.195238 141.701716 
L 302.256751 192.367774 
L 302.441289 118.529336 
L 302.748851 94.897287 
L 303.240952 75.836532 
L 303.856078 61.077813 
L 304.532716 50.071425 
L 305.209354 42.438083 
L 305.82448 37.69228 
L 306.378093 34.932806 
L 306.808681 33.692491 
L 307.177756 33.233871 
L 307.423806 33.23351 
L 307.669857 33.477217 
L 307.977419 34.128031 
L 308.408007 35.700555 
L 308.900108 38.490414 
L 309.453721 43.017929 
L 310.068847 50.073182 
L 310.683972 59.905896 
L 311.237585 72.369057 
L 311.729686 89.054899 
L 312.037249 106.627691 
L 312.221786 127.71581 
L 312.283299 143.149608 
L 312.344812 192.418791 
L 312.529349 122.869139 
L 312.7754 110.441813 
L 313.02145 106.099717 
L 313.205988 105.109992 
L 313.2675 105.081017 
L 313.390525 105.405042 
L 313.575063 106.756965 
L 313.882626 111.222552 
L 314.190189 118.942854 
L 314.497751 132.341085 
L 314.682289 147.632357 
L 314.805314 172.060408 
L 314.866827 212.055675 
L 315.051365 149.269111 
L 315.297415 135.766807 
L 315.604978 129.631348 
L 315.851028 128.273502 
L 315.91254 128.276163 
L 316.035566 128.641854 
L 316.220103 130.052048 
L 316.527666 134.793527 
L 316.835229 143.488574 
L 317.081279 156.009357 
L 317.265817 176.00988 
L 317.388842 225.143737 
L 317.57338 167.43344 
L 317.880943 151.718693 
L 318.188505 146.350072 
L 318.434556 145.212652 
L 318.557581 145.415153 
L 318.742118 146.595471 
L 318.988169 149.849321 
L 319.295732 157.29206 
L 319.541782 167.891238 
L 319.72632 182.898429 
L 319.849345 208.300396 
L 319.910857 236.115444 
L 320.095395 182.462771 
L 320.402958 166.748106 
L 320.710521 161.313644 
L 320.956571 160.146196 
L 321.079596 160.345027 
L 321.264134 161.536329 
L 321.510184 164.83986 
L 321.817747 172.414281 
L 322.063797 183.203914 
L 322.248335 198.493287 
L 322.37136 224.733401 
L 322.432872 247.979006 
L 322.61741 197.89383 
L 322.86346 184.555019 
L 323.171023 178.456094 
L 323.417073 177.259736 
L 323.540099 177.531087 
L 323.724636 178.910054 
L 323.970687 182.574487 
L 324.278249 190.653944 
L 324.585812 205.228624 
L 324.77035 222.062736 
L 324.893375 250.183766 
L 324.954888 269.915498 
L 325.139425 224.785689 
L 325.385476 215.463594 
L 325.508501 214.848598 
L 325.631526 216.095071 
L 325.816063 221.85759 
L 326.000601 236.39515 
L 326.123626 273.046949 
L 326.185139 261.73457 
L 326.369677 227.698795 
L 326.615727 215.34416 
L 326.861777 211.880195 
L 326.92329 212.022527 
L 327.046315 213.653641 
L 327.230853 221.096904 
L 327.353878 234.245074 
L 327.476903 265.068502 
L 327.66144 216.263797 
L 327.969003 195.362356 
L 328.338079 183.471483 
L 328.707154 177.763812 
L 328.953204 176.568537 
L 329.014717 176.598855 
L 329.137742 177.094361 
L 329.32228 179.107685 
L 329.56833 185.275079 
L 329.752868 195.289497 
L 329.875893 210.041593 
L 329.998918 239.211356 
L 330.183456 193.965464 
L 330.491018 175.104042 
L 330.860094 164.914613 
L 331.167657 160.869987 
L 331.413707 159.826473 
L 331.536732 160.03744 
L 331.72127 161.399773 
L 331.96732 165.807307 
L 332.21337 175.732091 
L 332.397908 195.223264 
L 332.520933 221.929798 
L 332.705471 178.680286 
L 333.013034 160.133362 
L 333.382109 150.100247 
L 333.751184 145.663726 
L 333.935722 145.050504 
L 334.058747 145.246243 
L 334.243285 146.573191 
L 334.489335 150.918284 
L 334.735386 160.800856 
L 334.919923 180.508733 
L 335.042948 204.741523 
L 335.227486 163.009323 
L 335.535049 144.331748 
L 335.904124 133.956424 
L 336.2732 129.089334 
L 336.51925 128.182888 
L 336.642275 128.463889 
L 336.826813 129.986246 
L 337.072863 134.936917 
L 337.257401 142.796194 
L 337.441938 162.481581 
L 337.564964 184.220581 
L 337.749501 143.579061 
L 338.057064 124.301872 
L 338.487652 111.670349 
L 338.856727 106.37686 
L 339.102778 105.07953 
L 339.16429 105.056252 
L 339.287315 105.429898 
L 339.471853 107.294039 
L 339.656391 111.538974 
L 339.840928 120.819588 
L 339.963954 135.863941 
L 340.025466 157.261841 
L 340.086979 154.78777 
L 340.271516 114.366244 
L 340.640592 90.137555 
L 341.132692 73.033633 
L 341.747818 59.214119 
L 342.424456 48.780396 
L 343.101094 41.548698 
L 343.71622 37.10039 
L 344.269833 34.580039 
L 344.700421 33.515614 
L 345.007984 33.218151 
L 345.254034 33.254714 
L 345.500084 33.535476 
L 345.807647 34.233185 
L 346.238235 35.873441 
L 346.730336 38.745879 
L 347.283949 43.377701 
L 347.899075 50.574783 
L 348.5142 60.606326 
L 349.067813 73.373804 
L 349.498401 87.987769 
L 349.805964 104.754788 
L 349.990502 123.615574 
L 350.113527 164.5828 
L 350.175039 150.541355 
L 350.359577 119.907477 
L 350.605627 109.457585 
L 350.851678 105.756306 
L 351.036215 105.050374 
L 351.159241 105.273787 
L 351.343778 106.488928 
L 351.651341 110.723561 
L 351.958904 118.131012 
L 352.266467 130.86155 
L 352.512517 152.477241 
L 352.635542 195.003272 
L 352.697055 176.830038 
L 352.881592 146.116352 
L 353.189155 132.987603 
L 353.496718 128.730401 
L 353.681256 128.183153 
L 353.804281 128.451094 
L 353.988819 129.719541 
L 354.234869 133.046083 
L 354.542432 140.419404 
L 354.849994 154.238812 
L 355.034532 171.86429 
L 355.157557 216.8284 
L 355.21907 194.401376 
L 355.403608 164.178046 
L 355.71117 150.607167 
L 356.018733 145.879739 
L 356.203271 145.068192 
L 356.264783 145.058312 
L 356.387809 145.397531 
L 356.572346 146.778466 
L 356.818397 150.328922 
L 357.125959 158.325256 
L 357.37201 169.921256 
L 357.556547 187.602839 
L 357.61806 199.902828 
L 357.679572 235.731897 
L 357.741085 208.633898 
L 357.925623 179.100859 
L 358.233186 165.492954 
L 358.540748 160.690549 
L 358.725286 159.849367 
L 358.786799 159.833171 
L 358.909824 160.165721 
L 359.094361 161.552959 
L 359.340412 165.146489 
L 359.647975 173.26659 
L 359.894025 185.053284 
L 360.078563 203.070737 
L 360.140075 215.727307 
L 360.201588 255.357732 
L 360.386125 199.768152 
L 360.632176 184.827901 
L 360.939738 178.096525 
L 361.185789 176.581674 
L 361.247301 176.578898 
L 361.370326 176.972176 
L 361.554864 178.519504 
L 361.862427 183.751254 
L 362.16999 193.261754 
L 362.41604 206.518053 
L 362.600578 226.052429 
L 362.66209 239.526927 
L 362.723603 284.689499 
L 362.908141 224.952768 
L 363.154191 213.399226 
L 363.338729 211.900443 
L 363.461754 212.970549 
L 363.646291 217.800753 
L 363.830829 228.755901 
L 363.953854 245.653057 
L 364.015367 269.192598 
L 364.076879 264.36114 
L 364.261417 228.796109 
L 364.507467 217.12446 
L 364.692005 214.824359 
L 364.753518 214.982925 
L 364.876543 216.855458 
L 365.06108 225.761598 
L 365.184105 244.050136 
L 365.238885 289 
M 365.252499 289 
L 365.430156 220.495757 
L 365.737719 197.639426 
L 366.106794 184.973183 
L 366.475869 178.782406 
L 366.72192 177.304189 
L 366.783432 177.262341 
L 366.906457 177.605964 
L 367.090995 179.352429 
L 367.337045 184.96315 
L 367.521583 193.982731 
L 367.644608 206.420597 
L 367.706121 219.284017 
L 367.767633 283.393562 
L 367.952171 197.04773 
L 368.259734 176.51899 
L 368.628809 165.760945 
L 368.997885 160.932207 
L 369.182422 160.167366 
L 369.243935 160.153338 
L 369.36696 160.510576 
L 369.551498 162.137837 
L 369.797548 167.10042 
L 370.043598 178.442538 
L 370.166623 191.220772 
L 370.228136 204.535158 
L 370.228136 204.535158 
" clip-path="url(#pa70b8ba3c3)" style="fill: none; stroke: #1f77b4; stroke-linecap: square"/>
   </g>
   <g id="patch_3">
    <path d="M 55.345313 250.421875 
L 55.345313 22.32 
" style="fill: none; stroke: #000000; stroke-width: 0.8; stroke-linejoin: miter; stroke-linecap: square"/>
   </g>
   <g id="patch_4">
    <path d="M 559.25625 250.421875 
L 559.25625 22.32 
" style="fill: none; stroke: #000000; stroke-width: 0.8; stroke-linejoin: miter; stroke-linecap: square"/>
   </g>
   <g id="patch_5">
    <path d="M 55.345312 250.421875 
L 559.25625 250.421875 
" style="fill: none; stroke: #000000; stroke-width: 0.8; stroke-linejoin: miter; stroke-linecap: square"/>
   </g>
   <g id="patch_6">
    <path d="M 55.345312 22.32 
L 559.25625 22.32 
" style="fill: none; stroke: #000000; stroke-width: 0.8; stroke-linejoin: miter; stroke-linecap: square"/>
   </g>
   <g id="text_18">
    <!-- Downsampled signal $y[n]$ -->
    <g transform="translate(231.040781 16.32) scale(0.12 -0.12)">
     <defs>
      <path id="DejaVuSans-44" d="M 1259 4147 
L 1259 519 
L 2022 519 
Q 2988 519 3436 956 
Q 3884 1394 3884 2338 
Q 3884 3275 3436 3711 
Q 2988 4147 2022 4147 
L 1259 4147 
z
M 628 4666 
L 1925 4666 
Q 3281 4666 3915 4102 
Q 4550 3538 4550 2338 
Q 4550 1131 3912 565 
Q 3275 0 1925 0 
L 628 0 
L 628 4666 
z
" transform="scale(0.015625)"/>
      <path id="DejaVuSans-61" d="M 2194 1759 
Q 1497 1759 1228 1600 
Q 959 1441 959 1056 
Q 959 750 1161 570 
Q 1363 391 1709 391 
Q 2188 391 2477 730 
Q 2766 1069 2766 1631 
L 2766 1759 
L 2194 1759 
z
M 3341 1997 
L 3341 0 
L 2766 0 
L 2766 531 
Q 2569 213 2275 61 
Q 1981 -91 1556 -91 
Q 1019 -91 701 211 
Q 384 513 384 1019 
Q 384 1609 779 1909 
Q 1175 2209 1959 2209 
L 2766 2209 
L 2766 2266 
Q 2766 2663 2505 2880 
Q 2244 3097 1772 3097 
Q 1472 3097 1187 3025 
Q 903 2953 641 2809 
L 641 3341 
Q 956 3463 1253 3523 
Q 1550 3584 1831 3584 
Q 2591 3584 2966 3190 
Q 3341 2797 3341 1997 
z
" transform="scale(0.015625)"/>
      <path id="DejaVuSans-6d" d="M 3328 2828 
Q 3544 3216 3844 3400 
Q 4144 3584 4550 3584 
Q 5097 3584 5394 3201 
Q 5691 2819 5691 2113 
L 5691 0 
L 5113 0 
L 5113 2094 
Q 5113 2597 4934 2840 
Q 4756 3084 4391 3084 
Q 3944 3084 3684 2787 
Q 3425 2491 3425 1978 
L 3425 0 
L 2847 0 
L 2847 2094 
Q 2847 2600 2669 2842 
Q 2491 3084 2119 3084 
Q 1678 3084 1418 2786 
Q 1159 2488 1159 1978 
L 1159 0 
L 581 0 
L 581 3500 
L 1159 3500 
L 1159 2956 
Q 1356 3278 1631 3431 
Q 1906 3584 2284 3584 
Q 2666 3584 2933 3390 
Q 3200 3197 3328 2828 
z
" transform="scale(0.015625)"/>
      <path id="DejaVuSans-70" d="M 1159 525 
L 1159 -1331 
L 581 -1331 
L 581 3500 
L 1159 3500 
L 1159 2969 
Q 1341 3281 1617 3432 
Q 1894 3584 2278 3584 
Q 2916 3584 3314 3078 
Q 3713 2572 3713 1747 
Q 3713 922 3314 415 
Q 2916 -91 2278 -91 
Q 1894 -91 1617 61 
Q 1341 213 1159 525 
z
M 3116 1747 
Q 3116 2381 2855 2742 
Q 2594 3103 2138 3103 
Q 1681 3103 1420 2742 
Q 1159 2381 1159 1747 
Q 1159 1113 1420 752 
Q 1681 391 2138 391 
Q 2594 391 2855 752 
Q 3116 1113 3116 1747 
z
" transform="scale(0.015625)"/>
      <path id="DejaVuSans-6c" d="M 603 4863 
L 1178 4863 
L 1178 0 
L 603 0 
L 603 4863 
z
" transform="scale(0.015625)"/>
      <path id="DejaVuSans-67" d="M 2906 1791 
Q 2906 2416 2648 2759 
Q 2391 3103 1925 3103 
Q 1463 3103 1205 2759 
Q 947 2416 947 1791 
Q 947 1169 1205 825 
Q 1463 481 1925 481 
Q 2391 481 2648 825 
Q 2906 1169 2906 1791 
z
M 3481 434 
Q 3481 -459 3084 -895 
Q 2688 -1331 1869 -1331 
Q 1566 -1331 1297 -1286 
Q 1028 -1241 775 -1147 
L 775 -588 
Q 1028 -725 1275 -790 
Q 1522 -856 1778 -856 
Q 2344 -856 2625 -561 
Q 2906 -266 2906 331 
L 2906 616 
Q 2728 306 2450 153 
Q 2172 0 1784 0 
Q 1141 0 747 490 
Q 353 981 353 1791 
Q 353 2603 747 3093 
Q 1141 3584 1784 3584 
Q 2172 3584 2450 3431 
Q 2728 3278 2906 2969 
L 2906 3500 
L 3481 3500 
L 3481 434 
z
" transform="scale(0.015625)"/>
      <path id="DejaVuSans-Oblique-79" d="M 1588 -325 
Q 1188 -997 936 -1164 
Q 684 -1331 294 -1331 
L -159 -1331 
L -63 -850 
L 269 -850 
Q 509 -850 678 -719 
Q 847 -588 1056 -206 
L 1234 128 
L 459 3500 
L 1069 3500 
L 1650 819 
L 3256 3500 
L 3859 3500 
L 1588 -325 
z
" transform="scale(0.015625)"/>
      <path id="DejaVuSans-5b" d="M 550 4863 
L 1875 4863 
L 1875 4416 
L 1125 4416 
L 1125 -397 
L 1875 -397 
L 1875 -844 
L 550 -844 
L 550 4863 
z
" transform="scale(0.015625)"/>
      <path id="DejaVuSans-Oblique-6e" d="M 3566 2113 
L 3156 0 
L 2578 0 
L 2988 2091 
Q 3016 2238 3031 2350 
Q 3047 2463 3047 2528 
Q 3047 2791 2881 2937 
Q 2716 3084 2419 3084 
Q 1956 3084 1622 2776 
Q 1288 2469 1184 1941 
L 800 0 
L 225 0 
L 903 3500 
L 1478 3500 
L 1363 2950 
Q 1603 3253 1940 3418 
Q 2278 3584 2650 3584 
Q 3113 3584 3367 3334 
Q 3622 3084 3622 2631 
Q 3622 2519 3608 2391 
Q 3594 2263 3566 2113 
z
" transform="scale(0.015625)"/>
      <path id="DejaVuSans-5d" d="M 1947 4863 
L 1947 -844 
L 622 -844 
L 622 -397 
L 1369 -397 
L 1369 4416 
L 622 4416 
L 622 4863 
L 1947 4863 
z
" transform="scale(0.015625)"/>
     </defs>
     <use xlink:href="#DejaVuSans-44" transform="translate(0 0.015625)"/>
     <use xlink:href="#DejaVuSans-6f" transform="translate(77.001953 0.015625)"/>
     <use xlink:href="#DejaVuSans-77" transform="translate(138.183594 0.015625)"/>
     <use xlink:href="#DejaVuSans-6e" transform="translate(219.970703 0.015625)"/>
     <use xlink:href="#DejaVuSans-73" transform="translate(283.349609 0.015625)"/>
     <use xlink:href="#DejaVuSans-61" transform="translate(335.449219 0.015625)"/>
     <use xlink:href="#DejaVuSans-6d" transform="translate(396.728516 0.015625)"/>
     <use xlink:href="#DejaVuSans-70" transform="translate(494.140625 0.015625)"/>
     <use xlink:href="#DejaVuSans-6c" transform="translate(557.617188 0.015625)"/>
     <use xlink:href="#DejaVuSans-65" transform="translate(585.400391 0.015625)"/>
     <use xlink:href="#DejaVuSans-64" transform="translate(646.923828 0.015625)"/>
     <use xlink:href="#DejaVuSans-20" transform="translate(710.400391 0.015625)"/>
     <use xlink:href="#DejaVuSans-73" transform="translate(742.1875 0.015625)"/>
     <use xlink:href="#DejaVuSans-69" transform="translate(794.287109 0.015625)"/>
     <use xlink:href="#DejaVuSans-67" transform="translate(822.070312 0.015625)"/>
     <use xlink:href="#DejaVuSans-6e" transform="translate(885.546875 0.015625)"/>
     <use xlink:href="#DejaVuSans-61" transform="translate(948.925781 0.015625)"/>
     <use xlink:href="#DejaVuSans-6c" transform="translate(1010.205078 0.015625)"/>
     <use xlink:href="#DejaVuSans-20" transform="translate(1037.988281 0.015625)"/>
     <use xlink:href="#DejaVuSans-Oblique-79" transform="translate(1069.775391 0.015625)"/>
     <use xlink:href="#DejaVuSans-5b" transform="translate(1128.955078 0.015625)"/>
     <use xlink:href="#DejaVuSans-Oblique-6e" transform="translate(1167.96875 0.015625)"/>
     <use xlink:href="#DejaVuSans-5d" transform="translate(1231.347656 0.015625)"/>
    </g>
   </g>
  </g>
 </g>
 <defs>
  <clipPath id="pa70b8ba3c3">
   <rect x="55.345313" y="22.32" width="503.910938" height="228.101875"/>
  </clipPath>
 </defs>
</svg>
