<?xml version="1.0" encoding="utf-8" standalone="no"?>
<!DOCTYPE svg PUBLIC "-//W3C//DTD SVG 1.1//EN"
  "http://www.w3.org/Graphics/SVG/1.1/DTD/svg11.dtd">
<svg xmlns:xlink="http://www.w3.org/1999/xlink" width="576pt" height="288pt" viewBox="0 0 576 288" xmlns="http://www.w3.org/2000/svg" version="1.1">
 <metadata>
  <rdf:RDF xmlns:dc="http://purl.org/dc/elements/1.1/" xmlns:cc="http://creativecommons.org/ns#" xmlns:rdf="http://www.w3.org/1999/02/22-rdf-syntax-ns#">
   <cc:Work>
    <dc:type rdf:resource="http://purl.org/dc/dcmitype/StillImage"/>
    <dc:date>2025-05-10T16:54:39.688315</dc:date>
    <dc:format>image/svg+xml</dc:format>
    <dc:creator>
     <cc:Agent>
      <dc:title>Matplotlib v3.10.3, https://matplotlib.org/</dc:title>
     </cc:Agent>
    </dc:creator>
   </cc:Work>
  </rdf:RDF>
 </metadata>
 <defs>
  <style type="text/css">*{stroke-linejoin: round; stroke-linecap: butt}</style>
 </defs>
 <g id="figure_1">
  <g id="patch_1">
   <path d="M 0 288 
L 576 288 
L 576 0 
L 0 0 
z
" style="fill: #ffffff"/>
  </g>
  <g id="axes_1">
   <g id="patch_2">
    <path d="M 50.14375 250.421875 
L 568.8 250.421875 
L 568.8 22.32 
L 50.14375 22.32 
z
" style="fill: #ffffff"/>
   </g>
   <g id="matplotlib.axis_1">
    <g id="xtick_1">
     <g id="line2d_1">
      <path d="M 73.719034 250.421875 
L 73.719034 22.32 
" clip-path="url(#pa01d7d35f0)" style="fill: none; stroke-dasharray: 2.96,1.28; stroke-dashoffset: 0; stroke: #b0b0b0; stroke-opacity: 0.8; stroke-width: 0.8"/>
     </g>
     <g id="line2d_2">
      <defs>
       <path id="ma403d82f7e" d="M 0 0 
L 0 3.5 
" style="stroke: #000000; stroke-width: 0.8"/>
      </defs>
      <g>
       <use xlink:href="#ma403d82f7e" x="73.719034" y="250.421875" style="stroke: #000000; stroke-width: 0.8"/>
      </g>
     </g>
     <g id="text_1">
      <!-- 0 -->
      <g transform="translate(70.537784 265.020312) scale(0.1 -0.1)">
       <defs>
        <path id="DejaVuSans-30" d="M 2034 4250 
Q 1547 4250 1301 3770 
Q 1056 3291 1056 2328 
Q 1056 1369 1301 889 
Q 1547 409 2034 409 
Q 2525 409 2770 889 
Q 3016 1369 3016 2328 
Q 3016 3291 2770 3770 
Q 2525 4250 2034 4250 
z
M 2034 4750 
Q 2819 4750 3233 4129 
Q 3647 3509 3647 2328 
Q 3647 1150 3233 529 
Q 2819 -91 2034 -91 
Q 1250 -91 836 529 
Q 422 1150 422 2328 
Q 422 3509 836 4129 
Q 1250 4750 2034 4750 
z
" transform="scale(0.015625)"/>
       </defs>
       <use xlink:href="#DejaVuSans-30"/>
      </g>
     </g>
    </g>
    <g id="xtick_2">
     <g id="line2d_3">
      <path d="M 130.299716 250.421875 
L 130.299716 22.32 
" clip-path="url(#pa01d7d35f0)" style="fill: none; stroke-dasharray: 2.96,1.28; stroke-dashoffset: 0; stroke: #b0b0b0; stroke-opacity: 0.8; stroke-width: 0.8"/>
     </g>
     <g id="line2d_4">
      <g>
       <use xlink:href="#ma403d82f7e" x="130.299716" y="250.421875" style="stroke: #000000; stroke-width: 0.8"/>
      </g>
     </g>
     <g id="text_2">
      <!-- 6 -->
      <g transform="translate(127.118466 265.020312) scale(0.1 -0.1)">
       <defs>
        <path id="DejaVuSans-36" d="M 2113 2584 
Q 1688 2584 1439 2293 
Q 1191 2003 1191 1497 
Q 1191 994 1439 701 
Q 1688 409 2113 409 
Q 2538 409 2786 701 
Q 3034 994 3034 1497 
Q 3034 2003 2786 2293 
Q 2538 2584 2113 2584 
z
M 3366 4563 
L 3366 3988 
Q 3128 4100 2886 4159 
Q 2644 4219 2406 4219 
Q 1781 4219 1451 3797 
Q 1122 3375 1075 2522 
Q 1259 2794 1537 2939 
Q 1816 3084 2150 3084 
Q 2853 3084 3261 2657 
Q 3669 2231 3669 1497 
Q 3669 778 3244 343 
Q 2819 -91 2113 -91 
Q 1303 -91 875 529 
Q 447 1150 447 2328 
Q 447 3434 972 4092 
Q 1497 4750 2381 4750 
Q 2619 4750 2861 4703 
Q 3103 4656 3366 4563 
z
" transform="scale(0.015625)"/>
       </defs>
       <use xlink:href="#DejaVuSans-36"/>
      </g>
     </g>
    </g>
    <g id="xtick_3">
     <g id="line2d_5">
      <path d="M 186.880398 250.421875 
L 186.880398 22.32 
" clip-path="url(#pa01d7d35f0)" style="fill: none; stroke-dasharray: 2.96,1.28; stroke-dashoffset: 0; stroke: #b0b0b0; stroke-opacity: 0.8; stroke-width: 0.8"/>
     </g>
     <g id="line2d_6">
      <g>
       <use xlink:href="#ma403d82f7e" x="186.880398" y="250.421875" style="stroke: #000000; stroke-width: 0.8"/>
      </g>
     </g>
     <g id="text_3">
      <!-- 12 -->
      <g transform="translate(180.517898 265.020312) scale(0.1 -0.1)">
       <defs>
        <path id="DejaVuSans-31" d="M 794 531 
L 1825 531 
L 1825 4091 
L 703 3866 
L 703 4441 
L 1819 4666 
L 2450 4666 
L 2450 531 
L 3481 531 
L 3481 0 
L 794 0 
L 794 531 
z
" transform="scale(0.015625)"/>
        <path id="DejaVuSans-32" d="M 1228 531 
L 3431 531 
L 3431 0 
L 469 0 
L 469 531 
Q 828 903 1448 1529 
Q 2069 2156 2228 2338 
Q 2531 2678 2651 2914 
Q 2772 3150 2772 3378 
Q 2772 3750 2511 3984 
Q 2250 4219 1831 4219 
Q 1534 4219 1204 4116 
Q 875 4013 500 3803 
L 500 4441 
Q 881 4594 1212 4672 
Q 1544 4750 1819 4750 
Q 2544 4750 2975 4387 
Q 3406 4025 3406 3419 
Q 3406 3131 3298 2873 
Q 3191 2616 2906 2266 
Q 2828 2175 2409 1742 
Q 1991 1309 1228 531 
z
" transform="scale(0.015625)"/>
       </defs>
       <use xlink:href="#DejaVuSans-31"/>
       <use xlink:href="#DejaVuSans-32" transform="translate(63.623047 0)"/>
      </g>
     </g>
    </g>
    <g id="xtick_4">
     <g id="line2d_7">
      <path d="M 243.46108 250.421875 
L 243.46108 22.32 
" clip-path="url(#pa01d7d35f0)" style="fill: none; stroke-dasharray: 2.96,1.28; stroke-dashoffset: 0; stroke: #b0b0b0; stroke-opacity: 0.8; stroke-width: 0.8"/>
     </g>
     <g id="line2d_8">
      <g>
       <use xlink:href="#ma403d82f7e" x="243.46108" y="250.421875" style="stroke: #000000; stroke-width: 0.8"/>
      </g>
     </g>
     <g id="text_4">
      <!-- 18 -->
      <g transform="translate(237.09858 265.020312) scale(0.1 -0.1)">
       <defs>
        <path id="DejaVuSans-38" d="M 2034 2216 
Q 1584 2216 1326 1975 
Q 1069 1734 1069 1313 
Q 1069 891 1326 650 
Q 1584 409 2034 409 
Q 2484 409 2743 651 
Q 3003 894 3003 1313 
Q 3003 1734 2745 1975 
Q 2488 2216 2034 2216 
z
M 1403 2484 
Q 997 2584 770 2862 
Q 544 3141 544 3541 
Q 544 4100 942 4425 
Q 1341 4750 2034 4750 
Q 2731 4750 3128 4425 
Q 3525 4100 3525 3541 
Q 3525 3141 3298 2862 
Q 3072 2584 2669 2484 
Q 3125 2378 3379 2068 
Q 3634 1759 3634 1313 
Q 3634 634 3220 271 
Q 2806 -91 2034 -91 
Q 1263 -91 848 271 
Q 434 634 434 1313 
Q 434 1759 690 2068 
Q 947 2378 1403 2484 
z
M 1172 3481 
Q 1172 3119 1398 2916 
Q 1625 2713 2034 2713 
Q 2441 2713 2670 2916 
Q 2900 3119 2900 3481 
Q 2900 3844 2670 4047 
Q 2441 4250 2034 4250 
Q 1625 4250 1398 4047 
Q 1172 3844 1172 3481 
z
" transform="scale(0.015625)"/>
       </defs>
       <use xlink:href="#DejaVuSans-31"/>
       <use xlink:href="#DejaVuSans-38" transform="translate(63.623047 0)"/>
      </g>
     </g>
    </g>
    <g id="xtick_5">
     <g id="line2d_9">
      <path d="M 300.041761 250.421875 
L 300.041761 22.32 
" clip-path="url(#pa01d7d35f0)" style="fill: none; stroke-dasharray: 2.96,1.28; stroke-dashoffset: 0; stroke: #b0b0b0; stroke-opacity: 0.8; stroke-width: 0.8"/>
     </g>
     <g id="line2d_10">
      <g>
       <use xlink:href="#ma403d82f7e" x="300.041761" y="250.421875" style="stroke: #000000; stroke-width: 0.8"/>
      </g>
     </g>
     <g id="text_5">
      <!-- 24 -->
      <g transform="translate(293.679261 265.020312) scale(0.1 -0.1)">
       <defs>
        <path id="DejaVuSans-34" d="M 2419 4116 
L 825 1625 
L 2419 1625 
L 2419 4116 
z
M 2253 4666 
L 3047 4666 
L 3047 1625 
L 3713 1625 
L 3713 1100 
L 3047 1100 
L 3047 0 
L 2419 0 
L 2419 1100 
L 313 1100 
L 313 1709 
L 2253 4666 
z
" transform="scale(0.015625)"/>
       </defs>
       <use xlink:href="#DejaVuSans-32"/>
       <use xlink:href="#DejaVuSans-34" transform="translate(63.623047 0)"/>
      </g>
     </g>
    </g>
    <g id="xtick_6">
     <g id="line2d_11">
      <path d="M 356.622443 250.421875 
L 356.622443 22.32 
" clip-path="url(#pa01d7d35f0)" style="fill: none; stroke-dasharray: 2.96,1.28; stroke-dashoffset: 0; stroke: #b0b0b0; stroke-opacity: 0.8; stroke-width: 0.8"/>
     </g>
     <g id="line2d_12">
      <g>
       <use xlink:href="#ma403d82f7e" x="356.622443" y="250.421875" style="stroke: #000000; stroke-width: 0.8"/>
      </g>
     </g>
     <g id="text_6">
      <!-- 30 -->
      <g transform="translate(350.259943 265.020312) scale(0.1 -0.1)">
       <defs>
        <path id="DejaVuSans-33" d="M 2597 2516 
Q 3050 2419 3304 2112 
Q 3559 1806 3559 1356 
Q 3559 666 3084 287 
Q 2609 -91 1734 -91 
Q 1441 -91 1130 -33 
Q 819 25 488 141 
L 488 750 
Q 750 597 1062 519 
Q 1375 441 1716 441 
Q 2309 441 2620 675 
Q 2931 909 2931 1356 
Q 2931 1769 2642 2001 
Q 2353 2234 1838 2234 
L 1294 2234 
L 1294 2753 
L 1863 2753 
Q 2328 2753 2575 2939 
Q 2822 3125 2822 3475 
Q 2822 3834 2567 4026 
Q 2313 4219 1838 4219 
Q 1578 4219 1281 4162 
Q 984 4106 628 3988 
L 628 4550 
Q 988 4650 1302 4700 
Q 1616 4750 1894 4750 
Q 2613 4750 3031 4423 
Q 3450 4097 3450 3541 
Q 3450 3153 3228 2886 
Q 3006 2619 2597 2516 
z
" transform="scale(0.015625)"/>
       </defs>
       <use xlink:href="#DejaVuSans-33"/>
       <use xlink:href="#DejaVuSans-30" transform="translate(63.623047 0)"/>
      </g>
     </g>
    </g>
    <g id="xtick_7">
     <g id="line2d_13">
      <path d="M 413.203125 250.421875 
L 413.203125 22.32 
" clip-path="url(#pa01d7d35f0)" style="fill: none; stroke-dasharray: 2.96,1.28; stroke-dashoffset: 0; stroke: #b0b0b0; stroke-opacity: 0.8; stroke-width: 0.8"/>
     </g>
     <g id="line2d_14">
      <g>
       <use xlink:href="#ma403d82f7e" x="413.203125" y="250.421875" style="stroke: #000000; stroke-width: 0.8"/>
      </g>
     </g>
     <g id="text_7">
      <!-- 36 -->
      <g transform="translate(406.840625 265.020312) scale(0.1 -0.1)">
       <use xlink:href="#DejaVuSans-33"/>
       <use xlink:href="#DejaVuSans-36" transform="translate(63.623047 0)"/>
      </g>
     </g>
    </g>
    <g id="xtick_8">
     <g id="line2d_15">
      <path d="M 469.783807 250.421875 
L 469.783807 22.32 
" clip-path="url(#pa01d7d35f0)" style="fill: none; stroke-dasharray: 2.96,1.28; stroke-dashoffset: 0; stroke: #b0b0b0; stroke-opacity: 0.8; stroke-width: 0.8"/>
     </g>
     <g id="line2d_16">
      <g>
       <use xlink:href="#ma403d82f7e" x="469.783807" y="250.421875" style="stroke: #000000; stroke-width: 0.8"/>
      </g>
     </g>
     <g id="text_8">
      <!-- 42 -->
      <g transform="translate(463.421307 265.020312) scale(0.1 -0.1)">
       <use xlink:href="#DejaVuSans-34"/>
       <use xlink:href="#DejaVuSans-32" transform="translate(63.623047 0)"/>
      </g>
     </g>
    </g>
    <g id="xtick_9">
     <g id="line2d_17">
      <path d="M 526.364489 250.421875 
L 526.364489 22.32 
" clip-path="url(#pa01d7d35f0)" style="fill: none; stroke-dasharray: 2.96,1.28; stroke-dashoffset: 0; stroke: #b0b0b0; stroke-opacity: 0.8; stroke-width: 0.8"/>
     </g>
     <g id="line2d_18">
      <g>
       <use xlink:href="#ma403d82f7e" x="526.364489" y="250.421875" style="stroke: #000000; stroke-width: 0.8"/>
      </g>
     </g>
     <g id="text_9">
      <!-- 48 -->
      <g transform="translate(520.001989 265.020312) scale(0.1 -0.1)">
       <use xlink:href="#DejaVuSans-34"/>
       <use xlink:href="#DejaVuSans-38" transform="translate(63.623047 0)"/>
      </g>
     </g>
    </g>
    <g id="text_10">
     <!-- Sample, $n$ -->
     <g transform="translate(284.371875 278.7) scale(0.1 -0.1)">
      <defs>
       <path id="DejaVuSans-53" d="M 3425 4513 
L 3425 3897 
Q 3066 4069 2747 4153 
Q 2428 4238 2131 4238 
Q 1616 4238 1336 4038 
Q 1056 3838 1056 3469 
Q 1056 3159 1242 3001 
Q 1428 2844 1947 2747 
L 2328 2669 
Q 3034 2534 3370 2195 
Q 3706 1856 3706 1288 
Q 3706 609 3251 259 
Q 2797 -91 1919 -91 
Q 1588 -91 1214 -16 
Q 841 59 441 206 
L 441 856 
Q 825 641 1194 531 
Q 1563 422 1919 422 
Q 2459 422 2753 634 
Q 3047 847 3047 1241 
Q 3047 1584 2836 1778 
Q 2625 1972 2144 2069 
L 1759 2144 
Q 1053 2284 737 2584 
Q 422 2884 422 3419 
Q 422 4038 858 4394 
Q 1294 4750 2059 4750 
Q 2388 4750 2728 4690 
Q 3069 4631 3425 4513 
z
" transform="scale(0.015625)"/>
       <path id="DejaVuSans-61" d="M 2194 1759 
Q 1497 1759 1228 1600 
Q 959 1441 959 1056 
Q 959 750 1161 570 
Q 1363 391 1709 391 
Q 2188 391 2477 730 
Q 2766 1069 2766 1631 
L 2766 1759 
L 2194 1759 
z
M 3341 1997 
L 3341 0 
L 2766 0 
L 2766 531 
Q 2569 213 2275 61 
Q 1981 -91 1556 -91 
Q 1019 -91 701 211 
Q 384 513 384 1019 
Q 384 1609 779 1909 
Q 1175 2209 1959 2209 
L 2766 2209 
L 2766 2266 
Q 2766 2663 2505 2880 
Q 2244 3097 1772 3097 
Q 1472 3097 1187 3025 
Q 903 2953 641 2809 
L 641 3341 
Q 956 3463 1253 3523 
Q 1550 3584 1831 3584 
Q 2591 3584 2966 3190 
Q 3341 2797 3341 1997 
z
" transform="scale(0.015625)"/>
       <path id="DejaVuSans-6d" d="M 3328 2828 
Q 3544 3216 3844 3400 
Q 4144 3584 4550 3584 
Q 5097 3584 5394 3201 
Q 5691 2819 5691 2113 
L 5691 0 
L 5113 0 
L 5113 2094 
Q 5113 2597 4934 2840 
Q 4756 3084 4391 3084 
Q 3944 3084 3684 2787 
Q 3425 2491 3425 1978 
L 3425 0 
L 2847 0 
L 2847 2094 
Q 2847 2600 2669 2842 
Q 2491 3084 2119 3084 
Q 1678 3084 1418 2786 
Q 1159 2488 1159 1978 
L 1159 0 
L 581 0 
L 581 3500 
L 1159 3500 
L 1159 2956 
Q 1356 3278 1631 3431 
Q 1906 3584 2284 3584 
Q 2666 3584 2933 3390 
Q 3200 3197 3328 2828 
z
" transform="scale(0.015625)"/>
       <path id="DejaVuSans-70" d="M 1159 525 
L 1159 -1331 
L 581 -1331 
L 581 3500 
L 1159 3500 
L 1159 2969 
Q 1341 3281 1617 3432 
Q 1894 3584 2278 3584 
Q 2916 3584 3314 3078 
Q 3713 2572 3713 1747 
Q 3713 922 3314 415 
Q 2916 -91 2278 -91 
Q 1894 -91 1617 61 
Q 1341 213 1159 525 
z
M 3116 1747 
Q 3116 2381 2855 2742 
Q 2594 3103 2138 3103 
Q 1681 3103 1420 2742 
Q 1159 2381 1159 1747 
Q 1159 1113 1420 752 
Q 1681 391 2138 391 
Q 2594 391 2855 752 
Q 3116 1113 3116 1747 
z
" transform="scale(0.015625)"/>
       <path id="DejaVuSans-6c" d="M 603 4863 
L 1178 4863 
L 1178 0 
L 603 0 
L 603 4863 
z
" transform="scale(0.015625)"/>
       <path id="DejaVuSans-65" d="M 3597 1894 
L 3597 1613 
L 953 1613 
Q 991 1019 1311 708 
Q 1631 397 2203 397 
Q 2534 397 2845 478 
Q 3156 559 3463 722 
L 3463 178 
Q 3153 47 2828 -22 
Q 2503 -91 2169 -91 
Q 1331 -91 842 396 
Q 353 884 353 1716 
Q 353 2575 817 3079 
Q 1281 3584 2069 3584 
Q 2775 3584 3186 3129 
Q 3597 2675 3597 1894 
z
M 3022 2063 
Q 3016 2534 2758 2815 
Q 2500 3097 2075 3097 
Q 1594 3097 1305 2825 
Q 1016 2553 972 2059 
L 3022 2063 
z
" transform="scale(0.015625)"/>
       <path id="DejaVuSans-2c" d="M 750 794 
L 1409 794 
L 1409 256 
L 897 -744 
L 494 -744 
L 750 256 
L 750 794 
z
" transform="scale(0.015625)"/>
       <path id="DejaVuSans-20" transform="scale(0.015625)"/>
       <path id="DejaVuSans-Oblique-6e" d="M 3566 2113 
L 3156 0 
L 2578 0 
L 2988 2091 
Q 3016 2238 3031 2350 
Q 3047 2463 3047 2528 
Q 3047 2791 2881 2937 
Q 2716 3084 2419 3084 
Q 1956 3084 1622 2776 
Q 1288 2469 1184 1941 
L 800 0 
L 225 0 
L 903 3500 
L 1478 3500 
L 1363 2950 
Q 1603 3253 1940 3418 
Q 2278 3584 2650 3584 
Q 3113 3584 3367 3334 
Q 3622 3084 3622 2631 
Q 3622 2519 3608 2391 
Q 3594 2263 3566 2113 
z
" transform="scale(0.015625)"/>
      </defs>
      <use xlink:href="#DejaVuSans-53" transform="translate(0 0.015625)"/>
      <use xlink:href="#DejaVuSans-61" transform="translate(63.476562 0.015625)"/>
      <use xlink:href="#DejaVuSans-6d" transform="translate(124.755859 0.015625)"/>
      <use xlink:href="#DejaVuSans-70" transform="translate(222.167969 0.015625)"/>
      <use xlink:href="#DejaVuSans-6c" transform="translate(285.644531 0.015625)"/>
      <use xlink:href="#DejaVuSans-65" transform="translate(313.427734 0.015625)"/>
      <use xlink:href="#DejaVuSans-2c" transform="translate(374.951172 0.015625)"/>
      <use xlink:href="#DejaVuSans-20" transform="translate(406.738281 0.015625)"/>
      <use xlink:href="#DejaVuSans-Oblique-6e" transform="translate(438.525391 0.015625)"/>
     </g>
    </g>
   </g>
   <g id="matplotlib.axis_2">
    <g id="ytick_1">
     <g id="line2d_19">
      <path d="M 50.14375 240.053608 
L 568.8 240.053608 
" clip-path="url(#pa01d7d35f0)" style="fill: none; stroke-dasharray: 2.96,1.28; stroke-dashoffset: 0; stroke: #b0b0b0; stroke-opacity: 0.8; stroke-width: 0.8"/>
     </g>
     <g id="line2d_20">
      <defs>
       <path id="mbd08795362" d="M 0 0 
L -3.5 0 
" style="stroke: #000000; stroke-width: 0.8"/>
      </defs>
      <g>
       <use xlink:href="#mbd08795362" x="50.14375" y="240.053608" style="stroke: #000000; stroke-width: 0.8"/>
      </g>
     </g>
     <g id="text_11">
      <!-- 0.00 -->
      <g transform="translate(20.878125 243.852827) scale(0.1 -0.1)">
       <defs>
        <path id="DejaVuSans-2e" d="M 684 794 
L 1344 794 
L 1344 0 
L 684 0 
L 684 794 
z
" transform="scale(0.015625)"/>
       </defs>
       <use xlink:href="#DejaVuSans-30"/>
       <use xlink:href="#DejaVuSans-2e" transform="translate(63.623047 0)"/>
       <use xlink:href="#DejaVuSans-30" transform="translate(95.410156 0)"/>
       <use xlink:href="#DejaVuSans-30" transform="translate(159.033203 0)"/>
      </g>
     </g>
    </g>
    <g id="ytick_2">
     <g id="line2d_21">
      <path d="M 50.14375 194.137221 
L 568.8 194.137221 
" clip-path="url(#pa01d7d35f0)" style="fill: none; stroke-dasharray: 2.96,1.28; stroke-dashoffset: 0; stroke: #b0b0b0; stroke-opacity: 0.8; stroke-width: 0.8"/>
     </g>
     <g id="line2d_22">
      <g>
       <use xlink:href="#mbd08795362" x="50.14375" y="194.137221" style="stroke: #000000; stroke-width: 0.8"/>
      </g>
     </g>
     <g id="text_12">
      <!-- 0.02 -->
      <g transform="translate(20.878125 197.93644) scale(0.1 -0.1)">
       <use xlink:href="#DejaVuSans-30"/>
       <use xlink:href="#DejaVuSans-2e" transform="translate(63.623047 0)"/>
       <use xlink:href="#DejaVuSans-30" transform="translate(95.410156 0)"/>
       <use xlink:href="#DejaVuSans-32" transform="translate(159.033203 0)"/>
      </g>
     </g>
    </g>
    <g id="ytick_3">
     <g id="line2d_23">
      <path d="M 50.14375 148.220835 
L 568.8 148.220835 
" clip-path="url(#pa01d7d35f0)" style="fill: none; stroke-dasharray: 2.96,1.28; stroke-dashoffset: 0; stroke: #b0b0b0; stroke-opacity: 0.8; stroke-width: 0.8"/>
     </g>
     <g id="line2d_24">
      <g>
       <use xlink:href="#mbd08795362" x="50.14375" y="148.220835" style="stroke: #000000; stroke-width: 0.8"/>
      </g>
     </g>
     <g id="text_13">
      <!-- 0.04 -->
      <g transform="translate(20.878125 152.020053) scale(0.1 -0.1)">
       <use xlink:href="#DejaVuSans-30"/>
       <use xlink:href="#DejaVuSans-2e" transform="translate(63.623047 0)"/>
       <use xlink:href="#DejaVuSans-30" transform="translate(95.410156 0)"/>
       <use xlink:href="#DejaVuSans-34" transform="translate(159.033203 0)"/>
      </g>
     </g>
    </g>
    <g id="ytick_4">
     <g id="line2d_25">
      <path d="M 50.14375 102.304448 
L 568.8 102.304448 
" clip-path="url(#pa01d7d35f0)" style="fill: none; stroke-dasharray: 2.96,1.28; stroke-dashoffset: 0; stroke: #b0b0b0; stroke-opacity: 0.8; stroke-width: 0.8"/>
     </g>
     <g id="line2d_26">
      <g>
       <use xlink:href="#mbd08795362" x="50.14375" y="102.304448" style="stroke: #000000; stroke-width: 0.8"/>
      </g>
     </g>
     <g id="text_14">
      <!-- 0.06 -->
      <g transform="translate(20.878125 106.103667) scale(0.1 -0.1)">
       <use xlink:href="#DejaVuSans-30"/>
       <use xlink:href="#DejaVuSans-2e" transform="translate(63.623047 0)"/>
       <use xlink:href="#DejaVuSans-30" transform="translate(95.410156 0)"/>
       <use xlink:href="#DejaVuSans-36" transform="translate(159.033203 0)"/>
      </g>
     </g>
    </g>
    <g id="ytick_5">
     <g id="line2d_27">
      <path d="M 50.14375 56.388061 
L 568.8 56.388061 
" clip-path="url(#pa01d7d35f0)" style="fill: none; stroke-dasharray: 2.96,1.28; stroke-dashoffset: 0; stroke: #b0b0b0; stroke-opacity: 0.8; stroke-width: 0.8"/>
     </g>
     <g id="line2d_28">
      <g>
       <use xlink:href="#mbd08795362" x="50.14375" y="56.388061" style="stroke: #000000; stroke-width: 0.8"/>
      </g>
     </g>
     <g id="text_15">
      <!-- 0.08 -->
      <g transform="translate(20.878125 60.18728) scale(0.1 -0.1)">
       <use xlink:href="#DejaVuSans-30"/>
       <use xlink:href="#DejaVuSans-2e" transform="translate(63.623047 0)"/>
       <use xlink:href="#DejaVuSans-30" transform="translate(95.410156 0)"/>
       <use xlink:href="#DejaVuSans-38" transform="translate(159.033203 0)"/>
      </g>
     </g>
    </g>
    <g id="text_16">
     <!-- Amplitude -->
     <g transform="translate(14.798438 161.993594) rotate(-90) scale(0.1 -0.1)">
      <defs>
       <path id="DejaVuSans-41" d="M 2188 4044 
L 1331 1722 
L 3047 1722 
L 2188 4044 
z
M 1831 4666 
L 2547 4666 
L 4325 0 
L 3669 0 
L 3244 1197 
L 1141 1197 
L 716 0 
L 50 0 
L 1831 4666 
z
" transform="scale(0.015625)"/>
       <path id="DejaVuSans-69" d="M 603 3500 
L 1178 3500 
L 1178 0 
L 603 0 
L 603 3500 
z
M 603 4863 
L 1178 4863 
L 1178 4134 
L 603 4134 
L 603 4863 
z
" transform="scale(0.015625)"/>
       <path id="DejaVuSans-74" d="M 1172 4494 
L 1172 3500 
L 2356 3500 
L 2356 3053 
L 1172 3053 
L 1172 1153 
Q 1172 725 1289 603 
Q 1406 481 1766 481 
L 2356 481 
L 2356 0 
L 1766 0 
Q 1100 0 847 248 
Q 594 497 594 1153 
L 594 3053 
L 172 3053 
L 172 3500 
L 594 3500 
L 594 4494 
L 1172 4494 
z
" transform="scale(0.015625)"/>
       <path id="DejaVuSans-75" d="M 544 1381 
L 544 3500 
L 1119 3500 
L 1119 1403 
Q 1119 906 1312 657 
Q 1506 409 1894 409 
Q 2359 409 2629 706 
Q 2900 1003 2900 1516 
L 2900 3500 
L 3475 3500 
L 3475 0 
L 2900 0 
L 2900 538 
Q 2691 219 2414 64 
Q 2138 -91 1772 -91 
Q 1169 -91 856 284 
Q 544 659 544 1381 
z
M 1991 3584 
L 1991 3584 
z
" transform="scale(0.015625)"/>
       <path id="DejaVuSans-64" d="M 2906 2969 
L 2906 4863 
L 3481 4863 
L 3481 0 
L 2906 0 
L 2906 525 
Q 2725 213 2448 61 
Q 2172 -91 1784 -91 
Q 1150 -91 751 415 
Q 353 922 353 1747 
Q 353 2572 751 3078 
Q 1150 3584 1784 3584 
Q 2172 3584 2448 3432 
Q 2725 3281 2906 2969 
z
M 947 1747 
Q 947 1113 1208 752 
Q 1469 391 1925 391 
Q 2381 391 2643 752 
Q 2906 1113 2906 1747 
Q 2906 2381 2643 2742 
Q 2381 3103 1925 3103 
Q 1469 3103 1208 2742 
Q 947 2381 947 1747 
z
" transform="scale(0.015625)"/>
      </defs>
      <use xlink:href="#DejaVuSans-41"/>
      <use xlink:href="#DejaVuSans-6d" transform="translate(68.408203 0)"/>
      <use xlink:href="#DejaVuSans-70" transform="translate(165.820312 0)"/>
      <use xlink:href="#DejaVuSans-6c" transform="translate(229.296875 0)"/>
      <use xlink:href="#DejaVuSans-69" transform="translate(257.080078 0)"/>
      <use xlink:href="#DejaVuSans-74" transform="translate(284.863281 0)"/>
      <use xlink:href="#DejaVuSans-75" transform="translate(324.072266 0)"/>
      <use xlink:href="#DejaVuSans-64" transform="translate(387.451172 0)"/>
      <use xlink:href="#DejaVuSans-65" transform="translate(450.927734 0)"/>
     </g>
    </g>
   </g>
   <g id="line2d_29"/>
   <g id="LineCollection_1">
    <path d="M 73.719034 240.053608 
L 73.719034 227.726715 
" clip-path="url(#pa01d7d35f0)" style="fill: none; stroke: #1f77b4"/>
    <path d="M 83.149148 240.053608 
L 83.149148 225.880819 
" clip-path="url(#pa01d7d35f0)" style="fill: none; stroke: #1f77b4"/>
    <path d="M 92.579261 240.053608 
L 92.579261 223.851055 
" clip-path="url(#pa01d7d35f0)" style="fill: none; stroke: #1f77b4"/>
    <path d="M 102.009375 240.053608 
L 102.009375 221.635795 
" clip-path="url(#pa01d7d35f0)" style="fill: none; stroke: #1f77b4"/>
    <path d="M 111.439489 240.053608 
L 111.439489 219.236561 
" clip-path="url(#pa01d7d35f0)" style="fill: none; stroke: #1f77b4"/>
    <path d="M 120.869602 240.053608 
L 120.869602 216.658413 
" clip-path="url(#pa01d7d35f0)" style="fill: none; stroke: #1f77b4"/>
    <path d="M 130.299716 240.053608 
L 130.299716 213.910293 
" clip-path="url(#pa01d7d35f0)" style="fill: none; stroke: #1f77b4"/>
    <path d="M 139.72983 240.053608 
L 139.72983 211.005282 
" clip-path="url(#pa01d7d35f0)" style="fill: none; stroke: #1f77b4"/>
    <path d="M 149.159943 240.053608 
L 149.159943 207.960778 
" clip-path="url(#pa01d7d35f0)" style="fill: none; stroke: #1f77b4"/>
    <path d="M 158.590057 240.053608 
L 158.590057 204.798553 
" clip-path="url(#pa01d7d35f0)" style="fill: none; stroke: #1f77b4"/>
    <path d="M 168.02017 240.053608 
L 168.02017 201.544697 
" clip-path="url(#pa01d7d35f0)" style="fill: none; stroke: #1f77b4"/>
    <path d="M 177.450284 240.053608 
L 177.450284 198.229418 
" clip-path="url(#pa01d7d35f0)" style="fill: none; stroke: #1f77b4"/>
    <path d="M 186.880398 240.053608 
L 186.880398 194.886706 
" clip-path="url(#pa01d7d35f0)" style="fill: none; stroke: #1f77b4"/>
    <path d="M 196.310511 240.053608 
L 196.310511 191.553855 
" clip-path="url(#pa01d7d35f0)" style="fill: none; stroke: #1f77b4"/>
    <path d="M 205.740625 240.053608 
L 205.740625 188.270846 
" clip-path="url(#pa01d7d35f0)" style="fill: none; stroke: #1f77b4"/>
    <path d="M 215.170739 240.053608 
L 215.170739 185.079605 
" clip-path="url(#pa01d7d35f0)" style="fill: none; stroke: #1f77b4"/>
    <path d="M 224.600852 240.053608 
L 224.600852 182.023154 
" clip-path="url(#pa01d7d35f0)" style="fill: none; stroke: #1f77b4"/>
    <path d="M 234.030966 240.053608 
L 234.030966 179.144668 
" clip-path="url(#pa01d7d35f0)" style="fill: none; stroke: #1f77b4"/>
    <path d="M 243.46108 240.053608 
L 243.46108 176.486481 
" clip-path="url(#pa01d7d35f0)" style="fill: none; stroke: #1f77b4"/>
    <path d="M 252.891193 240.053608 
L 252.891193 174.089062 
" clip-path="url(#pa01d7d35f0)" style="fill: none; stroke: #1f77b4"/>
    <path d="M 262.321307 240.053608 
L 262.321307 171.989989 
" clip-path="url(#pa01d7d35f0)" style="fill: none; stroke: #1f77b4"/>
    <path d="M 271.75142 240.053608 
L 271.75142 170.222979 
" clip-path="url(#pa01d7d35f0)" style="fill: none; stroke: #1f77b4"/>
    <path d="M 281.181534 240.053608 
L 281.181534 168.816982 
" clip-path="url(#pa01d7d35f0)" style="fill: none; stroke: #1f77b4"/>
    <path d="M 290.611648 240.053608 
L 290.611648 167.7954 
" clip-path="url(#pa01d7d35f0)" style="fill: none; stroke: #1f77b4"/>
    <path d="M 300.041761 240.053608 
L 300.041761 167.175432 
" clip-path="url(#pa01d7d35f0)" style="fill: none; stroke: #1f77b4"/>
    <path d="M 309.471875 240.053608 
L 309.471875 166.967597 
" clip-path="url(#pa01d7d35f0)" style="fill: none; stroke: #1f77b4"/>
    <path d="M 318.901989 240.053608 
L 318.901989 167.175432 
" clip-path="url(#pa01d7d35f0)" style="fill: none; stroke: #1f77b4"/>
    <path d="M 328.332102 240.053608 
L 328.332102 167.7954 
" clip-path="url(#pa01d7d35f0)" style="fill: none; stroke: #1f77b4"/>
    <path d="M 337.762216 240.053608 
L 337.762216 168.816982 
" clip-path="url(#pa01d7d35f0)" style="fill: none; stroke: #1f77b4"/>
    <path d="M 347.19233 240.053608 
L 347.19233 170.222979 
" clip-path="url(#pa01d7d35f0)" style="fill: none; stroke: #1f77b4"/>
    <path d="M 356.622443 240.053608 
L 356.622443 171.989989 
" clip-path="url(#pa01d7d35f0)" style="fill: none; stroke: #1f77b4"/>
    <path d="M 366.052557 240.053608 
L 366.052557 174.089062 
" clip-path="url(#pa01d7d35f0)" style="fill: none; stroke: #1f77b4"/>
    <path d="M 375.48267 240.053608 
L 375.48267 176.486481 
" clip-path="url(#pa01d7d35f0)" style="fill: none; stroke: #1f77b4"/>
    <path d="M 384.912784 240.053608 
L 384.912784 179.144668 
" clip-path="url(#pa01d7d35f0)" style="fill: none; stroke: #1f77b4"/>
    <path d="M 394.342898 240.053608 
L 394.342898 182.023154 
" clip-path="url(#pa01d7d35f0)" style="fill: none; stroke: #1f77b4"/>
    <path d="M 403.773011 240.053608 
L 403.773011 185.079605 
" clip-path="url(#pa01d7d35f0)" style="fill: none; stroke: #1f77b4"/>
    <path d="M 413.203125 240.053608 
L 413.203125 188.270846 
" clip-path="url(#pa01d7d35f0)" style="fill: none; stroke: #1f77b4"/>
    <path d="M 422.633239 240.053608 
L 422.633239 191.553855 
" clip-path="url(#pa01d7d35f0)" style="fill: none; stroke: #1f77b4"/>
    <path d="M 432.063352 240.053608 
L 432.063352 194.886706 
" clip-path="url(#pa01d7d35f0)" style="fill: none; stroke: #1f77b4"/>
    <path d="M 441.493466 240.053608 
L 441.493466 198.229418 
" clip-path="url(#pa01d7d35f0)" style="fill: none; stroke: #1f77b4"/>
    <path d="M 450.92358 240.053608 
L 450.92358 201.544697 
" clip-path="url(#pa01d7d35f0)" style="fill: none; stroke: #1f77b4"/>
    <path d="M 460.353693 240.053608 
L 460.353693 204.798553 
" clip-path="url(#pa01d7d35f0)" style="fill: none; stroke: #1f77b4"/>
    <path d="M 469.783807 240.053608 
L 469.783807 207.960778 
" clip-path="url(#pa01d7d35f0)" style="fill: none; stroke: #1f77b4"/>
    <path d="M 479.21392 240.053608 
L 479.21392 211.005282 
" clip-path="url(#pa01d7d35f0)" style="fill: none; stroke: #1f77b4"/>
    <path d="M 488.644034 240.053608 
L 488.644034 213.910293 
" clip-path="url(#pa01d7d35f0)" style="fill: none; stroke: #1f77b4"/>
    <path d="M 498.074148 240.053608 
L 498.074148 216.658413 
" clip-path="url(#pa01d7d35f0)" style="fill: none; stroke: #1f77b4"/>
    <path d="M 507.504261 240.053608 
L 507.504261 219.236561 
" clip-path="url(#pa01d7d35f0)" style="fill: none; stroke: #1f77b4"/>
    <path d="M 516.934375 240.053608 
L 516.934375 221.635795 
" clip-path="url(#pa01d7d35f0)" style="fill: none; stroke: #1f77b4"/>
    <path d="M 526.364489 240.053608 
L 526.364489 223.851055 
" clip-path="url(#pa01d7d35f0)" style="fill: none; stroke: #1f77b4"/>
    <path d="M 535.794602 240.053608 
L 535.794602 225.880819 
" clip-path="url(#pa01d7d35f0)" style="fill: none; stroke: #1f77b4"/>
    <path d="M 545.224716 240.053608 
L 545.224716 227.726715 
" clip-path="url(#pa01d7d35f0)" style="fill: none; stroke: #1f77b4"/>
   </g>
   <g id="line2d_30">
    <defs>
     <path id="mb3e768b38b" d="M 0 3 
C 0.795609 3 1.55874 2.683901 2.12132 2.12132 
C 2.683901 1.55874 3 0.795609 3 0 
C 3 -0.795609 2.683901 -1.55874 2.12132 -2.12132 
C 1.55874 -2.683901 0.795609 -3 0 -3 
C -0.795609 -3 -1.55874 -2.683901 -2.12132 -2.12132 
C -2.683901 -1.55874 -3 -0.795609 -3 0 
C -3 0.795609 -2.683901 1.55874 -2.12132 2.12132 
C -1.55874 2.683901 -0.795609 3 0 3 
z
" style="stroke: #1f77b4"/>
    </defs>
    <g clip-path="url(#pa01d7d35f0)">
     <use xlink:href="#mb3e768b38b" x="73.719034" y="227.726715" style="fill-opacity: 0; stroke: #1f77b4"/>
     <use xlink:href="#mb3e768b38b" x="83.149148" y="225.880819" style="fill-opacity: 0; stroke: #1f77b4"/>
     <use xlink:href="#mb3e768b38b" x="92.579261" y="223.851055" style="fill-opacity: 0; stroke: #1f77b4"/>
     <use xlink:href="#mb3e768b38b" x="102.009375" y="221.635795" style="fill-opacity: 0; stroke: #1f77b4"/>
     <use xlink:href="#mb3e768b38b" x="111.439489" y="219.236561" style="fill-opacity: 0; stroke: #1f77b4"/>
     <use xlink:href="#mb3e768b38b" x="120.869602" y="216.658413" style="fill-opacity: 0; stroke: #1f77b4"/>
     <use xlink:href="#mb3e768b38b" x="130.299716" y="213.910293" style="fill-opacity: 0; stroke: #1f77b4"/>
     <use xlink:href="#mb3e768b38b" x="139.72983" y="211.005282" style="fill-opacity: 0; stroke: #1f77b4"/>
     <use xlink:href="#mb3e768b38b" x="149.159943" y="207.960778" style="fill-opacity: 0; stroke: #1f77b4"/>
     <use xlink:href="#mb3e768b38b" x="158.590057" y="204.798553" style="fill-opacity: 0; stroke: #1f77b4"/>
     <use xlink:href="#mb3e768b38b" x="168.02017" y="201.544697" style="fill-opacity: 0; stroke: #1f77b4"/>
     <use xlink:href="#mb3e768b38b" x="177.450284" y="198.229418" style="fill-opacity: 0; stroke: #1f77b4"/>
     <use xlink:href="#mb3e768b38b" x="186.880398" y="194.886706" style="fill-opacity: 0; stroke: #1f77b4"/>
     <use xlink:href="#mb3e768b38b" x="196.310511" y="191.553855" style="fill-opacity: 0; stroke: #1f77b4"/>
     <use xlink:href="#mb3e768b38b" x="205.740625" y="188.270846" style="fill-opacity: 0; stroke: #1f77b4"/>
     <use xlink:href="#mb3e768b38b" x="215.170739" y="185.079605" style="fill-opacity: 0; stroke: #1f77b4"/>
     <use xlink:href="#mb3e768b38b" x="224.600852" y="182.023154" style="fill-opacity: 0; stroke: #1f77b4"/>
     <use xlink:href="#mb3e768b38b" x="234.030966" y="179.144668" style="fill-opacity: 0; stroke: #1f77b4"/>
     <use xlink:href="#mb3e768b38b" x="243.46108" y="176.486481" style="fill-opacity: 0; stroke: #1f77b4"/>
     <use xlink:href="#mb3e768b38b" x="252.891193" y="174.089062" style="fill-opacity: 0; stroke: #1f77b4"/>
     <use xlink:href="#mb3e768b38b" x="262.321307" y="171.989989" style="fill-opacity: 0; stroke: #1f77b4"/>
     <use xlink:href="#mb3e768b38b" x="271.75142" y="170.222979" style="fill-opacity: 0; stroke: #1f77b4"/>
     <use xlink:href="#mb3e768b38b" x="281.181534" y="168.816982" style="fill-opacity: 0; stroke: #1f77b4"/>
     <use xlink:href="#mb3e768b38b" x="290.611648" y="167.7954" style="fill-opacity: 0; stroke: #1f77b4"/>
     <use xlink:href="#mb3e768b38b" x="300.041761" y="167.175432" style="fill-opacity: 0; stroke: #1f77b4"/>
     <use xlink:href="#mb3e768b38b" x="309.471875" y="166.967597" style="fill-opacity: 0; stroke: #1f77b4"/>
     <use xlink:href="#mb3e768b38b" x="318.901989" y="167.175432" style="fill-opacity: 0; stroke: #1f77b4"/>
     <use xlink:href="#mb3e768b38b" x="328.332102" y="167.7954" style="fill-opacity: 0; stroke: #1f77b4"/>
     <use xlink:href="#mb3e768b38b" x="337.762216" y="168.816982" style="fill-opacity: 0; stroke: #1f77b4"/>
     <use xlink:href="#mb3e768b38b" x="347.19233" y="170.222979" style="fill-opacity: 0; stroke: #1f77b4"/>
     <use xlink:href="#mb3e768b38b" x="356.622443" y="171.989989" style="fill-opacity: 0; stroke: #1f77b4"/>
     <use xlink:href="#mb3e768b38b" x="366.052557" y="174.089062" style="fill-opacity: 0; stroke: #1f77b4"/>
     <use xlink:href="#mb3e768b38b" x="375.48267" y="176.486481" style="fill-opacity: 0; stroke: #1f77b4"/>
     <use xlink:href="#mb3e768b38b" x="384.912784" y="179.144668" style="fill-opacity: 0; stroke: #1f77b4"/>
     <use xlink:href="#mb3e768b38b" x="394.342898" y="182.023154" style="fill-opacity: 0; stroke: #1f77b4"/>
     <use xlink:href="#mb3e768b38b" x="403.773011" y="185.079605" style="fill-opacity: 0; stroke: #1f77b4"/>
     <use xlink:href="#mb3e768b38b" x="413.203125" y="188.270846" style="fill-opacity: 0; stroke: #1f77b4"/>
     <use xlink:href="#mb3e768b38b" x="422.633239" y="191.553855" style="fill-opacity: 0; stroke: #1f77b4"/>
     <use xlink:href="#mb3e768b38b" x="432.063352" y="194.886706" style="fill-opacity: 0; stroke: #1f77b4"/>
     <use xlink:href="#mb3e768b38b" x="441.493466" y="198.229418" style="fill-opacity: 0; stroke: #1f77b4"/>
     <use xlink:href="#mb3e768b38b" x="450.92358" y="201.544697" style="fill-opacity: 0; stroke: #1f77b4"/>
     <use xlink:href="#mb3e768b38b" x="460.353693" y="204.798553" style="fill-opacity: 0; stroke: #1f77b4"/>
     <use xlink:href="#mb3e768b38b" x="469.783807" y="207.960778" style="fill-opacity: 0; stroke: #1f77b4"/>
     <use xlink:href="#mb3e768b38b" x="479.21392" y="211.005282" style="fill-opacity: 0; stroke: #1f77b4"/>
     <use xlink:href="#mb3e768b38b" x="488.644034" y="213.910293" style="fill-opacity: 0; stroke: #1f77b4"/>
     <use xlink:href="#mb3e768b38b" x="498.074148" y="216.658413" style="fill-opacity: 0; stroke: #1f77b4"/>
     <use xlink:href="#mb3e768b38b" x="507.504261" y="219.236561" style="fill-opacity: 0; stroke: #1f77b4"/>
     <use xlink:href="#mb3e768b38b" x="516.934375" y="221.635795" style="fill-opacity: 0; stroke: #1f77b4"/>
     <use xlink:href="#mb3e768b38b" x="526.364489" y="223.851055" style="fill-opacity: 0; stroke: #1f77b4"/>
     <use xlink:href="#mb3e768b38b" x="535.794602" y="225.880819" style="fill-opacity: 0; stroke: #1f77b4"/>
     <use xlink:href="#mb3e768b38b" x="545.224716" y="227.726715" style="fill-opacity: 0; stroke: #1f77b4"/>
    </g>
   </g>
   <g id="line2d_31">
    <path d="M 73.719034 240.053608 
L 545.224716 240.053608 
" clip-path="url(#pa01d7d35f0)" style="fill: none; stroke: #000000; stroke-opacity: 0; stroke-linecap: square"/>
   </g>
   <g id="line2d_32"/>
   <g id="LineCollection_2">
    <path d="M 73.719034 240.053608 
L 73.719034 239.941723 
" clip-path="url(#pa01d7d35f0)" style="fill: none; stroke: #ff7f0e"/>
    <path d="M 83.149148 240.053608 
L 83.149148 239.858093 
" clip-path="url(#pa01d7d35f0)" style="fill: none; stroke: #ff7f0e"/>
    <path d="M 92.579261 240.053608 
L 92.579261 239.719649 
" clip-path="url(#pa01d7d35f0)" style="fill: none; stroke: #ff7f0e"/>
    <path d="M 102.009375 240.053608 
L 102.009375 239.496023 
" clip-path="url(#pa01d7d35f0)" style="fill: none; stroke: #ff7f0e"/>
    <path d="M 111.439489 240.053608 
L 111.439489 239.143621 
" clip-path="url(#pa01d7d35f0)" style="fill: none; stroke: #ff7f0e"/>
    <path d="M 120.869602 240.053608 
L 120.869602 238.601947 
" clip-path="url(#pa01d7d35f0)" style="fill: none; stroke: #ff7f0e"/>
    <path d="M 130.299716 240.053608 
L 130.299716 237.79 
" clip-path="url(#pa01d7d35f0)" style="fill: none; stroke: #ff7f0e"/>
    <path d="M 139.72983 240.053608 
L 139.72983 236.603418 
" clip-path="url(#pa01d7d35f0)" style="fill: none; stroke: #ff7f0e"/>
    <path d="M 149.159943 240.053608 
L 149.159943 234.913281 
" clip-path="url(#pa01d7d35f0)" style="fill: none; stroke: #ff7f0e"/>
    <path d="M 158.590057 240.053608 
L 158.590057 232.567705 
" clip-path="url(#pa01d7d35f0)" style="fill: none; stroke: #ff7f0e"/>
    <path d="M 168.02017 240.053608 
L 168.02017 229.397378 
" clip-path="url(#pa01d7d35f0)" style="fill: none; stroke: #ff7f0e"/>
    <path d="M 177.450284 240.053608 
L 177.450284 225.226079 
" clip-path="url(#pa01d7d35f0)" style="fill: none; stroke: #ff7f0e"/>
    <path d="M 186.880398 240.053608 
L 186.880398 219.886676 
" clip-path="url(#pa01d7d35f0)" style="fill: none; stroke: #ff7f0e"/>
    <path d="M 196.310511 240.053608 
L 196.310511 213.242378 
" clip-path="url(#pa01d7d35f0)" style="fill: none; stroke: #ff7f0e"/>
    <path d="M 205.740625 240.053608 
L 205.740625 205.211897 
" clip-path="url(#pa01d7d35f0)" style="fill: none; stroke: #ff7f0e"/>
    <path d="M 215.170739 240.053608 
L 215.170739 195.795986 
" clip-path="url(#pa01d7d35f0)" style="fill: none; stroke: #ff7f0e"/>
    <path d="M 224.600852 240.053608 
L 224.600852 185.101732 
" clip-path="url(#pa01d7d35f0)" style="fill: none; stroke: #ff7f0e"/>
    <path d="M 234.030966 240.053608 
L 234.030966 173.360215 
" clip-path="url(#pa01d7d35f0)" style="fill: none; stroke: #ff7f0e"/>
    <path d="M 243.46108 240.053608 
L 243.46108 160.933121 
" clip-path="url(#pa01d7d35f0)" style="fill: none; stroke: #ff7f0e"/>
    <path d="M 252.891193 240.053608 
L 252.891193 148.304692 
" clip-path="url(#pa01d7d35f0)" style="fill: none; stroke: #ff7f0e"/>
    <path d="M 262.321307 240.053608 
L 262.321307 136.057095 
" clip-path="url(#pa01d7d35f0)" style="fill: none; stroke: #ff7f0e"/>
    <path d="M 271.75142 240.053608 
L 271.75142 124.829737 
" clip-path="url(#pa01d7d35f0)" style="fill: none; stroke: #ff7f0e"/>
    <path d="M 281.181534 240.053608 
L 281.181534 115.265847 
" clip-path="url(#pa01d7d35f0)" style="fill: none; stroke: #ff7f0e"/>
    <path d="M 290.611648 240.053608 
L 290.611648 107.952223 
" clip-path="url(#pa01d7d35f0)" style="fill: none; stroke: #ff7f0e"/>
    <path d="M 300.041761 240.053608 
L 300.041761 103.359876 
" clip-path="url(#pa01d7d35f0)" style="fill: none; stroke: #ff7f0e"/>
    <path d="M 309.471875 240.053608 
L 309.471875 101.793887 
" clip-path="url(#pa01d7d35f0)" style="fill: none; stroke: #ff7f0e"/>
    <path d="M 318.901989 240.053608 
L 318.901989 103.359876 
" clip-path="url(#pa01d7d35f0)" style="fill: none; stroke: #ff7f0e"/>
    <path d="M 328.332102 240.053608 
L 328.332102 107.952223 
" clip-path="url(#pa01d7d35f0)" style="fill: none; stroke: #ff7f0e"/>
    <path d="M 337.762216 240.053608 
L 337.762216 115.265847 
" clip-path="url(#pa01d7d35f0)" style="fill: none; stroke: #ff7f0e"/>
    <path d="M 347.19233 240.053608 
L 347.19233 124.829737 
" clip-path="url(#pa01d7d35f0)" style="fill: none; stroke: #ff7f0e"/>
    <path d="M 356.622443 240.053608 
L 356.622443 136.057095 
" clip-path="url(#pa01d7d35f0)" style="fill: none; stroke: #ff7f0e"/>
    <path d="M 366.052557 240.053608 
L 366.052557 148.304692 
" clip-path="url(#pa01d7d35f0)" style="fill: none; stroke: #ff7f0e"/>
    <path d="M 375.48267 240.053608 
L 375.48267 160.933121 
" clip-path="url(#pa01d7d35f0)" style="fill: none; stroke: #ff7f0e"/>
    <path d="M 384.912784 240.053608 
L 384.912784 173.360215 
" clip-path="url(#pa01d7d35f0)" style="fill: none; stroke: #ff7f0e"/>
    <path d="M 394.342898 240.053608 
L 394.342898 185.101732 
" clip-path="url(#pa01d7d35f0)" style="fill: none; stroke: #ff7f0e"/>
    <path d="M 403.773011 240.053608 
L 403.773011 195.795986 
" clip-path="url(#pa01d7d35f0)" style="fill: none; stroke: #ff7f0e"/>
    <path d="M 413.203125 240.053608 
L 413.203125 205.211897 
" clip-path="url(#pa01d7d35f0)" style="fill: none; stroke: #ff7f0e"/>
    <path d="M 422.633239 240.053608 
L 422.633239 213.242378 
" clip-path="url(#pa01d7d35f0)" style="fill: none; stroke: #ff7f0e"/>
    <path d="M 432.063352 240.053608 
L 432.063352 219.886676 
" clip-path="url(#pa01d7d35f0)" style="fill: none; stroke: #ff7f0e"/>
    <path d="M 441.493466 240.053608 
L 441.493466 225.226079 
" clip-path="url(#pa01d7d35f0)" style="fill: none; stroke: #ff7f0e"/>
    <path d="M 450.92358 240.053608 
L 450.92358 229.397378 
" clip-path="url(#pa01d7d35f0)" style="fill: none; stroke: #ff7f0e"/>
    <path d="M 460.353693 240.053608 
L 460.353693 232.567705 
" clip-path="url(#pa01d7d35f0)" style="fill: none; stroke: #ff7f0e"/>
    <path d="M 469.783807 240.053608 
L 469.783807 234.913281 
" clip-path="url(#pa01d7d35f0)" style="fill: none; stroke: #ff7f0e"/>
    <path d="M 479.21392 240.053608 
L 479.21392 236.603418 
" clip-path="url(#pa01d7d35f0)" style="fill: none; stroke: #ff7f0e"/>
    <path d="M 488.644034 240.053608 
L 488.644034 237.79 
" clip-path="url(#pa01d7d35f0)" style="fill: none; stroke: #ff7f0e"/>
    <path d="M 498.074148 240.053608 
L 498.074148 238.601947 
" clip-path="url(#pa01d7d35f0)" style="fill: none; stroke: #ff7f0e"/>
    <path d="M 507.504261 240.053608 
L 507.504261 239.143621 
" clip-path="url(#pa01d7d35f0)" style="fill: none; stroke: #ff7f0e"/>
    <path d="M 516.934375 240.053608 
L 516.934375 239.496023 
" clip-path="url(#pa01d7d35f0)" style="fill: none; stroke: #ff7f0e"/>
    <path d="M 526.364489 240.053608 
L 526.364489 239.719649 
" clip-path="url(#pa01d7d35f0)" style="fill: none; stroke: #ff7f0e"/>
    <path d="M 535.794602 240.053608 
L 535.794602 239.858093 
" clip-path="url(#pa01d7d35f0)" style="fill: none; stroke: #ff7f0e"/>
    <path d="M 545.224716 240.053608 
L 545.224716 239.941723 
" clip-path="url(#pa01d7d35f0)" style="fill: none; stroke: #ff7f0e"/>
   </g>
   <g id="line2d_33">
    <defs>
     <path id="m4358aa1113" d="M 0 3 
C 0.795609 3 1.55874 2.683901 2.12132 2.12132 
C 2.683901 1.55874 3 0.795609 3 0 
C 3 -0.795609 2.683901 -1.55874 2.12132 -2.12132 
C 1.55874 -2.683901 0.795609 -3 0 -3 
C -0.795609 -3 -1.55874 -2.683901 -2.12132 -2.12132 
C -2.683901 -1.55874 -3 -0.795609 -3 0 
C -3 0.795609 -2.683901 1.55874 -2.12132 2.12132 
C -1.55874 2.683901 -0.795609 3 0 3 
z
" style="stroke: #ff7f0e"/>
    </defs>
    <g clip-path="url(#pa01d7d35f0)">
     <use xlink:href="#m4358aa1113" x="73.719034" y="239.941723" style="fill-opacity: 0; stroke: #ff7f0e"/>
     <use xlink:href="#m4358aa1113" x="83.149148" y="239.858093" style="fill-opacity: 0; stroke: #ff7f0e"/>
     <use xlink:href="#m4358aa1113" x="92.579261" y="239.719649" style="fill-opacity: 0; stroke: #ff7f0e"/>
     <use xlink:href="#m4358aa1113" x="102.009375" y="239.496023" style="fill-opacity: 0; stroke: #ff7f0e"/>
     <use xlink:href="#m4358aa1113" x="111.439489" y="239.143621" style="fill-opacity: 0; stroke: #ff7f0e"/>
     <use xlink:href="#m4358aa1113" x="120.869602" y="238.601947" style="fill-opacity: 0; stroke: #ff7f0e"/>
     <use xlink:href="#m4358aa1113" x="130.299716" y="237.79" style="fill-opacity: 0; stroke: #ff7f0e"/>
     <use xlink:href="#m4358aa1113" x="139.72983" y="236.603418" style="fill-opacity: 0; stroke: #ff7f0e"/>
     <use xlink:href="#m4358aa1113" x="149.159943" y="234.913281" style="fill-opacity: 0; stroke: #ff7f0e"/>
     <use xlink:href="#m4358aa1113" x="158.590057" y="232.567705" style="fill-opacity: 0; stroke: #ff7f0e"/>
     <use xlink:href="#m4358aa1113" x="168.02017" y="229.397378" style="fill-opacity: 0; stroke: #ff7f0e"/>
     <use xlink:href="#m4358aa1113" x="177.450284" y="225.226079" style="fill-opacity: 0; stroke: #ff7f0e"/>
     <use xlink:href="#m4358aa1113" x="186.880398" y="219.886676" style="fill-opacity: 0; stroke: #ff7f0e"/>
     <use xlink:href="#m4358aa1113" x="196.310511" y="213.242378" style="fill-opacity: 0; stroke: #ff7f0e"/>
     <use xlink:href="#m4358aa1113" x="205.740625" y="205.211897" style="fill-opacity: 0; stroke: #ff7f0e"/>
     <use xlink:href="#m4358aa1113" x="215.170739" y="195.795986" style="fill-opacity: 0; stroke: #ff7f0e"/>
     <use xlink:href="#m4358aa1113" x="224.600852" y="185.101732" style="fill-opacity: 0; stroke: #ff7f0e"/>
     <use xlink:href="#m4358aa1113" x="234.030966" y="173.360215" style="fill-opacity: 0; stroke: #ff7f0e"/>
     <use xlink:href="#m4358aa1113" x="243.46108" y="160.933121" style="fill-opacity: 0; stroke: #ff7f0e"/>
     <use xlink:href="#m4358aa1113" x="252.891193" y="148.304692" style="fill-opacity: 0; stroke: #ff7f0e"/>
     <use xlink:href="#m4358aa1113" x="262.321307" y="136.057095" style="fill-opacity: 0; stroke: #ff7f0e"/>
     <use xlink:href="#m4358aa1113" x="271.75142" y="124.829737" style="fill-opacity: 0; stroke: #ff7f0e"/>
     <use xlink:href="#m4358aa1113" x="281.181534" y="115.265847" style="fill-opacity: 0; stroke: #ff7f0e"/>
     <use xlink:href="#m4358aa1113" x="290.611648" y="107.952223" style="fill-opacity: 0; stroke: #ff7f0e"/>
     <use xlink:href="#m4358aa1113" x="300.041761" y="103.359876" style="fill-opacity: 0; stroke: #ff7f0e"/>
     <use xlink:href="#m4358aa1113" x="309.471875" y="101.793887" style="fill-opacity: 0; stroke: #ff7f0e"/>
     <use xlink:href="#m4358aa1113" x="318.901989" y="103.359876" style="fill-opacity: 0; stroke: #ff7f0e"/>
     <use xlink:href="#m4358aa1113" x="328.332102" y="107.952223" style="fill-opacity: 0; stroke: #ff7f0e"/>
     <use xlink:href="#m4358aa1113" x="337.762216" y="115.265847" style="fill-opacity: 0; stroke: #ff7f0e"/>
     <use xlink:href="#m4358aa1113" x="347.19233" y="124.829737" style="fill-opacity: 0; stroke: #ff7f0e"/>
     <use xlink:href="#m4358aa1113" x="356.622443" y="136.057095" style="fill-opacity: 0; stroke: #ff7f0e"/>
     <use xlink:href="#m4358aa1113" x="366.052557" y="148.304692" style="fill-opacity: 0; stroke: #ff7f0e"/>
     <use xlink:href="#m4358aa1113" x="375.48267" y="160.933121" style="fill-opacity: 0; stroke: #ff7f0e"/>
     <use xlink:href="#m4358aa1113" x="384.912784" y="173.360215" style="fill-opacity: 0; stroke: #ff7f0e"/>
     <use xlink:href="#m4358aa1113" x="394.342898" y="185.101732" style="fill-opacity: 0; stroke: #ff7f0e"/>
     <use xlink:href="#m4358aa1113" x="403.773011" y="195.795986" style="fill-opacity: 0; stroke: #ff7f0e"/>
     <use xlink:href="#m4358aa1113" x="413.203125" y="205.211897" style="fill-opacity: 0; stroke: #ff7f0e"/>
     <use xlink:href="#m4358aa1113" x="422.633239" y="213.242378" style="fill-opacity: 0; stroke: #ff7f0e"/>
     <use xlink:href="#m4358aa1113" x="432.063352" y="219.886676" style="fill-opacity: 0; stroke: #ff7f0e"/>
     <use xlink:href="#m4358aa1113" x="441.493466" y="225.226079" style="fill-opacity: 0; stroke: #ff7f0e"/>
     <use xlink:href="#m4358aa1113" x="450.92358" y="229.397378" style="fill-opacity: 0; stroke: #ff7f0e"/>
     <use xlink:href="#m4358aa1113" x="460.353693" y="232.567705" style="fill-opacity: 0; stroke: #ff7f0e"/>
     <use xlink:href="#m4358aa1113" x="469.783807" y="234.913281" style="fill-opacity: 0; stroke: #ff7f0e"/>
     <use xlink:href="#m4358aa1113" x="479.21392" y="236.603418" style="fill-opacity: 0; stroke: #ff7f0e"/>
     <use xlink:href="#m4358aa1113" x="488.644034" y="237.79" style="fill-opacity: 0; stroke: #ff7f0e"/>
     <use xlink:href="#m4358aa1113" x="498.074148" y="238.601947" style="fill-opacity: 0; stroke: #ff7f0e"/>
     <use xlink:href="#m4358aa1113" x="507.504261" y="239.143621" style="fill-opacity: 0; stroke: #ff7f0e"/>
     <use xlink:href="#m4358aa1113" x="516.934375" y="239.496023" style="fill-opacity: 0; stroke: #ff7f0e"/>
     <use xlink:href="#m4358aa1113" x="526.364489" y="239.719649" style="fill-opacity: 0; stroke: #ff7f0e"/>
     <use xlink:href="#m4358aa1113" x="535.794602" y="239.858093" style="fill-opacity: 0; stroke: #ff7f0e"/>
     <use xlink:href="#m4358aa1113" x="545.224716" y="239.941723" style="fill-opacity: 0; stroke: #ff7f0e"/>
    </g>
   </g>
   <g id="line2d_34">
    <path d="M 73.719034 240.053608 
L 545.224716 240.053608 
" clip-path="url(#pa01d7d35f0)" style="fill: none; stroke: #000000; stroke-opacity: 0; stroke-linecap: square"/>
   </g>
   <g id="line2d_35"/>
   <g id="LineCollection_3">
    <path d="M 73.719034 240.053608 
L 73.719034 240.053585 
" clip-path="url(#pa01d7d35f0)" style="fill: none; stroke: #2ca02c"/>
    <path d="M 83.149148 240.053608 
L 83.149148 240.053528 
" clip-path="url(#pa01d7d35f0)" style="fill: none; stroke: #2ca02c"/>
    <path d="M 92.579261 240.053608 
L 92.579261 240.05334 
" clip-path="url(#pa01d7d35f0)" style="fill: none; stroke: #2ca02c"/>
    <path d="M 102.009375 240.053608 
L 102.009375 240.052758 
" clip-path="url(#pa01d7d35f0)" style="fill: none; stroke: #2ca02c"/>
    <path d="M 111.439489 240.053608 
L 111.439489 240.051049 
" clip-path="url(#pa01d7d35f0)" style="fill: none; stroke: #2ca02c"/>
    <path d="M 120.869602 240.053608 
L 120.869602 240.04629 
" clip-path="url(#pa01d7d35f0)" style="fill: none; stroke: #2ca02c"/>
    <path d="M 130.299716 240.053608 
L 130.299716 240.033725 
" clip-path="url(#pa01d7d35f0)" style="fill: none; stroke: #2ca02c"/>
    <path d="M 139.72983 240.053608 
L 139.72983 240.002284 
" clip-path="url(#pa01d7d35f0)" style="fill: none; stroke: #2ca02c"/>
    <path d="M 149.159943 240.053608 
L 149.159943 239.927744 
" clip-path="url(#pa01d7d35f0)" style="fill: none; stroke: #2ca02c"/>
    <path d="M 158.590057 240.053608 
L 158.590057 239.76037 
" clip-path="url(#pa01d7d35f0)" style="fill: none; stroke: #2ca02c"/>
    <path d="M 168.02017 240.053608 
L 168.02017 239.404557 
" clip-path="url(#pa01d7d35f0)" style="fill: none; stroke: #2ca02c"/>
    <path d="M 177.450284 240.053608 
L 177.450284 238.688787 
" clip-path="url(#pa01d7d35f0)" style="fill: none; stroke: #2ca02c"/>
    <path d="M 186.880398 240.053608 
L 186.880398 237.327076 
" clip-path="url(#pa01d7d35f0)" style="fill: none; stroke: #2ca02c"/>
    <path d="M 196.310511 240.053608 
L 196.310511 234.878927 
" clip-path="url(#pa01d7d35f0)" style="fill: none; stroke: #2ca02c"/>
    <path d="M 205.740625 240.053608 
L 205.740625 230.723327 
" clip-path="url(#pa01d7d35f0)" style="fill: none; stroke: #2ca02c"/>
    <path d="M 215.170739 240.053608 
L 215.170739 224.071132 
" clip-path="url(#pa01d7d35f0)" style="fill: none; stroke: #2ca02c"/>
    <path d="M 224.600852 240.053608 
L 224.600852 214.044134 
" clip-path="url(#pa01d7d35f0)" style="fill: none; stroke: #2ca02c"/>
    <path d="M 234.030966 240.053608 
L 234.030966 199.841464 
" clip-path="url(#pa01d7d35f0)" style="fill: none; stroke: #2ca02c"/>
    <path d="M 243.46108 240.053608 
L 243.46108 180.989855 
" clip-path="url(#pa01d7d35f0)" style="fill: none; stroke: #2ca02c"/>
    <path d="M 252.891193 240.053608 
L 252.891193 157.635429 
" clip-path="url(#pa01d7d35f0)" style="fill: none; stroke: #2ca02c"/>
    <path d="M 262.321307 240.053608 
L 262.321307 130.793118 
" clip-path="url(#pa01d7d35f0)" style="fill: none; stroke: #2ca02c"/>
    <path d="M 271.75142 240.053608 
L 271.75142 102.446321 
" clip-path="url(#pa01d7d35f0)" style="fill: none; stroke: #2ca02c"/>
    <path d="M 281.181534 240.053608 
L 281.181534 75.405069 
" clip-path="url(#pa01d7d35f0)" style="fill: none; stroke: #2ca02c"/>
    <path d="M 290.611648 240.053608 
L 290.611648 52.893845 
" clip-path="url(#pa01d7d35f0)" style="fill: none; stroke: #2ca02c"/>
    <path d="M 300.041761 240.053608 
L 300.041761 37.935488 
" clip-path="url(#pa01d7d35f0)" style="fill: none; stroke: #2ca02c"/>
    <path d="M 309.471875 240.053608 
L 309.471875 32.688267 
" clip-path="url(#pa01d7d35f0)" style="fill: none; stroke: #2ca02c"/>
    <path d="M 318.901989 240.053608 
L 318.901989 37.935488 
" clip-path="url(#pa01d7d35f0)" style="fill: none; stroke: #2ca02c"/>
    <path d="M 328.332102 240.053608 
L 328.332102 52.893845 
" clip-path="url(#pa01d7d35f0)" style="fill: none; stroke: #2ca02c"/>
    <path d="M 337.762216 240.053608 
L 337.762216 75.405069 
" clip-path="url(#pa01d7d35f0)" style="fill: none; stroke: #2ca02c"/>
    <path d="M 347.19233 240.053608 
L 347.19233 102.446321 
" clip-path="url(#pa01d7d35f0)" style="fill: none; stroke: #2ca02c"/>
    <path d="M 356.622443 240.053608 
L 356.622443 130.793118 
" clip-path="url(#pa01d7d35f0)" style="fill: none; stroke: #2ca02c"/>
    <path d="M 366.052557 240.053608 
L 366.052557 157.635429 
" clip-path="url(#pa01d7d35f0)" style="fill: none; stroke: #2ca02c"/>
    <path d="M 375.48267 240.053608 
L 375.48267 180.989855 
" clip-path="url(#pa01d7d35f0)" style="fill: none; stroke: #2ca02c"/>
    <path d="M 384.912784 240.053608 
L 384.912784 199.841464 
" clip-path="url(#pa01d7d35f0)" style="fill: none; stroke: #2ca02c"/>
    <path d="M 394.342898 240.053608 
L 394.342898 214.044134 
" clip-path="url(#pa01d7d35f0)" style="fill: none; stroke: #2ca02c"/>
    <path d="M 403.773011 240.053608 
L 403.773011 224.071132 
" clip-path="url(#pa01d7d35f0)" style="fill: none; stroke: #2ca02c"/>
    <path d="M 413.203125 240.053608 
L 413.203125 230.723327 
" clip-path="url(#pa01d7d35f0)" style="fill: none; stroke: #2ca02c"/>
    <path d="M 422.633239 240.053608 
L 422.633239 234.878927 
" clip-path="url(#pa01d7d35f0)" style="fill: none; stroke: #2ca02c"/>
    <path d="M 432.063352 240.053608 
L 432.063352 237.327076 
" clip-path="url(#pa01d7d35f0)" style="fill: none; stroke: #2ca02c"/>
    <path d="M 441.493466 240.053608 
L 441.493466 238.688787 
" clip-path="url(#pa01d7d35f0)" style="fill: none; stroke: #2ca02c"/>
    <path d="M 450.92358 240.053608 
L 450.92358 239.404557 
" clip-path="url(#pa01d7d35f0)" style="fill: none; stroke: #2ca02c"/>
    <path d="M 460.353693 240.053608 
L 460.353693 239.76037 
" clip-path="url(#pa01d7d35f0)" style="fill: none; stroke: #2ca02c"/>
    <path d="M 469.783807 240.053608 
L 469.783807 239.927744 
" clip-path="url(#pa01d7d35f0)" style="fill: none; stroke: #2ca02c"/>
    <path d="M 479.21392 240.053608 
L 479.21392 240.002284 
" clip-path="url(#pa01d7d35f0)" style="fill: none; stroke: #2ca02c"/>
    <path d="M 488.644034 240.053608 
L 488.644034 240.033725 
" clip-path="url(#pa01d7d35f0)" style="fill: none; stroke: #2ca02c"/>
    <path d="M 498.074148 240.053608 
L 498.074148 240.04629 
" clip-path="url(#pa01d7d35f0)" style="fill: none; stroke: #2ca02c"/>
    <path d="M 507.504261 240.053608 
L 507.504261 240.051049 
" clip-path="url(#pa01d7d35f0)" style="fill: none; stroke: #2ca02c"/>
    <path d="M 516.934375 240.053608 
L 516.934375 240.052758 
" clip-path="url(#pa01d7d35f0)" style="fill: none; stroke: #2ca02c"/>
    <path d="M 526.364489 240.053608 
L 526.364489 240.05334 
" clip-path="url(#pa01d7d35f0)" style="fill: none; stroke: #2ca02c"/>
    <path d="M 535.794602 240.053608 
L 535.794602 240.053528 
" clip-path="url(#pa01d7d35f0)" style="fill: none; stroke: #2ca02c"/>
    <path d="M 545.224716 240.053608 
L 545.224716 240.053585 
" clip-path="url(#pa01d7d35f0)" style="fill: none; stroke: #2ca02c"/>
   </g>
   <g id="line2d_36">
    <defs>
     <path id="mfdd0e6e8d4" d="M 0 3 
C 0.795609 3 1.55874 2.683901 2.12132 2.12132 
C 2.683901 1.55874 3 0.795609 3 0 
C 3 -0.795609 2.683901 -1.55874 2.12132 -2.12132 
C 1.55874 -2.683901 0.795609 -3 0 -3 
C -0.795609 -3 -1.55874 -2.683901 -2.12132 -2.12132 
C -2.683901 -1.55874 -3 -0.795609 -3 0 
C -3 0.795609 -2.683901 1.55874 -2.12132 2.12132 
C -1.55874 2.683901 -0.795609 3 0 3 
z
" style="stroke: #2ca02c"/>
    </defs>
    <g clip-path="url(#pa01d7d35f0)">
     <use xlink:href="#mfdd0e6e8d4" x="73.719034" y="240.053585" style="fill-opacity: 0; stroke: #2ca02c"/>
     <use xlink:href="#mfdd0e6e8d4" x="83.149148" y="240.053528" style="fill-opacity: 0; stroke: #2ca02c"/>
     <use xlink:href="#mfdd0e6e8d4" x="92.579261" y="240.05334" style="fill-opacity: 0; stroke: #2ca02c"/>
     <use xlink:href="#mfdd0e6e8d4" x="102.009375" y="240.052758" style="fill-opacity: 0; stroke: #2ca02c"/>
     <use xlink:href="#mfdd0e6e8d4" x="111.439489" y="240.051049" style="fill-opacity: 0; stroke: #2ca02c"/>
     <use xlink:href="#mfdd0e6e8d4" x="120.869602" y="240.04629" style="fill-opacity: 0; stroke: #2ca02c"/>
     <use xlink:href="#mfdd0e6e8d4" x="130.299716" y="240.033725" style="fill-opacity: 0; stroke: #2ca02c"/>
     <use xlink:href="#mfdd0e6e8d4" x="139.72983" y="240.002284" style="fill-opacity: 0; stroke: #2ca02c"/>
     <use xlink:href="#mfdd0e6e8d4" x="149.159943" y="239.927744" style="fill-opacity: 0; stroke: #2ca02c"/>
     <use xlink:href="#mfdd0e6e8d4" x="158.590057" y="239.76037" style="fill-opacity: 0; stroke: #2ca02c"/>
     <use xlink:href="#mfdd0e6e8d4" x="168.02017" y="239.404557" style="fill-opacity: 0; stroke: #2ca02c"/>
     <use xlink:href="#mfdd0e6e8d4" x="177.450284" y="238.688787" style="fill-opacity: 0; stroke: #2ca02c"/>
     <use xlink:href="#mfdd0e6e8d4" x="186.880398" y="237.327076" style="fill-opacity: 0; stroke: #2ca02c"/>
     <use xlink:href="#mfdd0e6e8d4" x="196.310511" y="234.878927" style="fill-opacity: 0; stroke: #2ca02c"/>
     <use xlink:href="#mfdd0e6e8d4" x="205.740625" y="230.723327" style="fill-opacity: 0; stroke: #2ca02c"/>
     <use xlink:href="#mfdd0e6e8d4" x="215.170739" y="224.071132" style="fill-opacity: 0; stroke: #2ca02c"/>
     <use xlink:href="#mfdd0e6e8d4" x="224.600852" y="214.044134" style="fill-opacity: 0; stroke: #2ca02c"/>
     <use xlink:href="#mfdd0e6e8d4" x="234.030966" y="199.841464" style="fill-opacity: 0; stroke: #2ca02c"/>
     <use xlink:href="#mfdd0e6e8d4" x="243.46108" y="180.989855" style="fill-opacity: 0; stroke: #2ca02c"/>
     <use xlink:href="#mfdd0e6e8d4" x="252.891193" y="157.635429" style="fill-opacity: 0; stroke: #2ca02c"/>
     <use xlink:href="#mfdd0e6e8d4" x="262.321307" y="130.793118" style="fill-opacity: 0; stroke: #2ca02c"/>
     <use xlink:href="#mfdd0e6e8d4" x="271.75142" y="102.446321" style="fill-opacity: 0; stroke: #2ca02c"/>
     <use xlink:href="#mfdd0e6e8d4" x="281.181534" y="75.405069" style="fill-opacity: 0; stroke: #2ca02c"/>
     <use xlink:href="#mfdd0e6e8d4" x="290.611648" y="52.893845" style="fill-opacity: 0; stroke: #2ca02c"/>
     <use xlink:href="#mfdd0e6e8d4" x="300.041761" y="37.935488" style="fill-opacity: 0; stroke: #2ca02c"/>
     <use xlink:href="#mfdd0e6e8d4" x="309.471875" y="32.688267" style="fill-opacity: 0; stroke: #2ca02c"/>
     <use xlink:href="#mfdd0e6e8d4" x="318.901989" y="37.935488" style="fill-opacity: 0; stroke: #2ca02c"/>
     <use xlink:href="#mfdd0e6e8d4" x="328.332102" y="52.893845" style="fill-opacity: 0; stroke: #2ca02c"/>
     <use xlink:href="#mfdd0e6e8d4" x="337.762216" y="75.405069" style="fill-opacity: 0; stroke: #2ca02c"/>
     <use xlink:href="#mfdd0e6e8d4" x="347.19233" y="102.446321" style="fill-opacity: 0; stroke: #2ca02c"/>
     <use xlink:href="#mfdd0e6e8d4" x="356.622443" y="130.793118" style="fill-opacity: 0; stroke: #2ca02c"/>
     <use xlink:href="#mfdd0e6e8d4" x="366.052557" y="157.635429" style="fill-opacity: 0; stroke: #2ca02c"/>
     <use xlink:href="#mfdd0e6e8d4" x="375.48267" y="180.989855" style="fill-opacity: 0; stroke: #2ca02c"/>
     <use xlink:href="#mfdd0e6e8d4" x="384.912784" y="199.841464" style="fill-opacity: 0; stroke: #2ca02c"/>
     <use xlink:href="#mfdd0e6e8d4" x="394.342898" y="214.044134" style="fill-opacity: 0; stroke: #2ca02c"/>
     <use xlink:href="#mfdd0e6e8d4" x="403.773011" y="224.071132" style="fill-opacity: 0; stroke: #2ca02c"/>
     <use xlink:href="#mfdd0e6e8d4" x="413.203125" y="230.723327" style="fill-opacity: 0; stroke: #2ca02c"/>
     <use xlink:href="#mfdd0e6e8d4" x="422.633239" y="234.878927" style="fill-opacity: 0; stroke: #2ca02c"/>
     <use xlink:href="#mfdd0e6e8d4" x="432.063352" y="237.327076" style="fill-opacity: 0; stroke: #2ca02c"/>
     <use xlink:href="#mfdd0e6e8d4" x="441.493466" y="238.688787" style="fill-opacity: 0; stroke: #2ca02c"/>
     <use xlink:href="#mfdd0e6e8d4" x="450.92358" y="239.404557" style="fill-opacity: 0; stroke: #2ca02c"/>
     <use xlink:href="#mfdd0e6e8d4" x="460.353693" y="239.76037" style="fill-opacity: 0; stroke: #2ca02c"/>
     <use xlink:href="#mfdd0e6e8d4" x="469.783807" y="239.927744" style="fill-opacity: 0; stroke: #2ca02c"/>
     <use xlink:href="#mfdd0e6e8d4" x="479.21392" y="240.002284" style="fill-opacity: 0; stroke: #2ca02c"/>
     <use xlink:href="#mfdd0e6e8d4" x="488.644034" y="240.033725" style="fill-opacity: 0; stroke: #2ca02c"/>
     <use xlink:href="#mfdd0e6e8d4" x="498.074148" y="240.04629" style="fill-opacity: 0; stroke: #2ca02c"/>
     <use xlink:href="#mfdd0e6e8d4" x="507.504261" y="240.051049" style="fill-opacity: 0; stroke: #2ca02c"/>
     <use xlink:href="#mfdd0e6e8d4" x="516.934375" y="240.052758" style="fill-opacity: 0; stroke: #2ca02c"/>
     <use xlink:href="#mfdd0e6e8d4" x="526.364489" y="240.05334" style="fill-opacity: 0; stroke: #2ca02c"/>
     <use xlink:href="#mfdd0e6e8d4" x="535.794602" y="240.053528" style="fill-opacity: 0; stroke: #2ca02c"/>
     <use xlink:href="#mfdd0e6e8d4" x="545.224716" y="240.053585" style="fill-opacity: 0; stroke: #2ca02c"/>
    </g>
   </g>
   <g id="line2d_37">
    <path d="M 73.719034 240.053608 
L 545.224716 240.053608 
" clip-path="url(#pa01d7d35f0)" style="fill: none; stroke: #000000; stroke-opacity: 0; stroke-linecap: square"/>
   </g>
   <g id="patch_3">
    <path d="M 50.14375 250.421875 
L 50.14375 22.32 
" style="fill: none; stroke: #000000; stroke-width: 0.8; stroke-linejoin: miter; stroke-linecap: square"/>
   </g>
   <g id="patch_4">
    <path d="M 568.8 250.421875 
L 568.8 22.32 
" style="fill: none; stroke: #000000; stroke-width: 0.8; stroke-linejoin: miter; stroke-linecap: square"/>
   </g>
   <g id="patch_5">
    <path d="M 50.14375 250.421875 
L 568.8 250.421875 
" style="fill: none; stroke: #000000; stroke-width: 0.8; stroke-linejoin: miter; stroke-linecap: square"/>
   </g>
   <g id="patch_6">
    <path d="M 50.14375 22.32 
L 568.8 22.32 
" style="fill: none; stroke: #000000; stroke-width: 0.8; stroke-linejoin: miter; stroke-linecap: square"/>
   </g>
   <g id="text_17">
    <!-- Impulse response, $h[n]$ -->
    <g transform="translate(240.531875 16.32) scale(0.12 -0.12)">
     <defs>
      <path id="DejaVuSans-49" d="M 628 4666 
L 1259 4666 
L 1259 0 
L 628 0 
L 628 4666 
z
" transform="scale(0.015625)"/>
      <path id="DejaVuSans-73" d="M 2834 3397 
L 2834 2853 
Q 2591 2978 2328 3040 
Q 2066 3103 1784 3103 
Q 1356 3103 1142 2972 
Q 928 2841 928 2578 
Q 928 2378 1081 2264 
Q 1234 2150 1697 2047 
L 1894 2003 
Q 2506 1872 2764 1633 
Q 3022 1394 3022 966 
Q 3022 478 2636 193 
Q 2250 -91 1575 -91 
Q 1294 -91 989 -36 
Q 684 19 347 128 
L 347 722 
Q 666 556 975 473 
Q 1284 391 1588 391 
Q 1994 391 2212 530 
Q 2431 669 2431 922 
Q 2431 1156 2273 1281 
Q 2116 1406 1581 1522 
L 1381 1569 
Q 847 1681 609 1914 
Q 372 2147 372 2553 
Q 372 3047 722 3315 
Q 1072 3584 1716 3584 
Q 2034 3584 2315 3537 
Q 2597 3491 2834 3397 
z
" transform="scale(0.015625)"/>
      <path id="DejaVuSans-72" d="M 2631 2963 
Q 2534 3019 2420 3045 
Q 2306 3072 2169 3072 
Q 1681 3072 1420 2755 
Q 1159 2438 1159 1844 
L 1159 0 
L 581 0 
L 581 3500 
L 1159 3500 
L 1159 2956 
Q 1341 3275 1631 3429 
Q 1922 3584 2338 3584 
Q 2397 3584 2469 3576 
Q 2541 3569 2628 3553 
L 2631 2963 
z
" transform="scale(0.015625)"/>
      <path id="DejaVuSans-6f" d="M 1959 3097 
Q 1497 3097 1228 2736 
Q 959 2375 959 1747 
Q 959 1119 1226 758 
Q 1494 397 1959 397 
Q 2419 397 2687 759 
Q 2956 1122 2956 1747 
Q 2956 2369 2687 2733 
Q 2419 3097 1959 3097 
z
M 1959 3584 
Q 2709 3584 3137 3096 
Q 3566 2609 3566 1747 
Q 3566 888 3137 398 
Q 2709 -91 1959 -91 
Q 1206 -91 779 398 
Q 353 888 353 1747 
Q 353 2609 779 3096 
Q 1206 3584 1959 3584 
z
" transform="scale(0.015625)"/>
      <path id="DejaVuSans-6e" d="M 3513 2113 
L 3513 0 
L 2938 0 
L 2938 2094 
Q 2938 2591 2744 2837 
Q 2550 3084 2163 3084 
Q 1697 3084 1428 2787 
Q 1159 2491 1159 1978 
L 1159 0 
L 581 0 
L 581 3500 
L 1159 3500 
L 1159 2956 
Q 1366 3272 1645 3428 
Q 1925 3584 2291 3584 
Q 2894 3584 3203 3211 
Q 3513 2838 3513 2113 
z
" transform="scale(0.015625)"/>
      <path id="DejaVuSans-Oblique-68" d="M 3566 2113 
L 3156 0 
L 2578 0 
L 2988 2091 
Q 3016 2238 3031 2350 
Q 3047 2463 3047 2528 
Q 3047 2791 2881 2937 
Q 2716 3084 2419 3084 
Q 1956 3084 1617 2771 
Q 1278 2459 1178 1941 
L 800 0 
L 225 0 
L 1172 4863 
L 1747 4863 
L 1375 2950 
Q 1594 3244 1934 3414 
Q 2275 3584 2650 3584 
Q 3113 3584 3367 3334 
Q 3622 3084 3622 2631 
Q 3622 2519 3608 2391 
Q 3594 2263 3566 2113 
z
" transform="scale(0.015625)"/>
      <path id="DejaVuSans-5b" d="M 550 4863 
L 1875 4863 
L 1875 4416 
L 1125 4416 
L 1125 -397 
L 1875 -397 
L 1875 -844 
L 550 -844 
L 550 4863 
z
" transform="scale(0.015625)"/>
      <path id="DejaVuSans-5d" d="M 1947 4863 
L 1947 -844 
L 622 -844 
L 622 -397 
L 1369 -397 
L 1369 4416 
L 622 4416 
L 622 4863 
L 1947 4863 
z
" transform="scale(0.015625)"/>
     </defs>
     <use xlink:href="#DejaVuSans-49" transform="translate(0 0.015625)"/>
     <use xlink:href="#DejaVuSans-6d" transform="translate(25.867188 0.015625)"/>
     <use xlink:href="#DejaVuSans-70" transform="translate(123.279297 0.015625)"/>
     <use xlink:href="#DejaVuSans-75" transform="translate(186.755859 0.015625)"/>
     <use xlink:href="#DejaVuSans-6c" transform="translate(250.134766 0.015625)"/>
     <use xlink:href="#DejaVuSans-73" transform="translate(277.917969 0.015625)"/>
     <use xlink:href="#DejaVuSans-65" transform="translate(330.017578 0.015625)"/>
     <use xlink:href="#DejaVuSans-20" transform="translate(391.541016 0.015625)"/>
     <use xlink:href="#DejaVuSans-72" transform="translate(423.328125 0.015625)"/>
     <use xlink:href="#DejaVuSans-65" transform="translate(464.441406 0.015625)"/>
     <use xlink:href="#DejaVuSans-73" transform="translate(525.964844 0.015625)"/>
     <use xlink:href="#DejaVuSans-70" transform="translate(578.064453 0.015625)"/>
     <use xlink:href="#DejaVuSans-6f" transform="translate(641.541016 0.015625)"/>
     <use xlink:href="#DejaVuSans-6e" transform="translate(702.722656 0.015625)"/>
     <use xlink:href="#DejaVuSans-73" transform="translate(766.101562 0.015625)"/>
     <use xlink:href="#DejaVuSans-65" transform="translate(818.201172 0.015625)"/>
     <use xlink:href="#DejaVuSans-2c" transform="translate(879.724609 0.015625)"/>
     <use xlink:href="#DejaVuSans-20" transform="translate(911.511719 0.015625)"/>
     <use xlink:href="#DejaVuSans-Oblique-68" transform="translate(943.298828 0.015625)"/>
     <use xlink:href="#DejaVuSans-5b" transform="translate(1006.677734 0.015625)"/>
     <use xlink:href="#DejaVuSans-Oblique-6e" transform="translate(1045.691406 0.015625)"/>
     <use xlink:href="#DejaVuSans-5d" transform="translate(1109.070312 0.015625)"/>
    </g>
   </g>
   <g id="legend_1">
    <g id="patch_7">
     <path d="M 473.7 77.415312 
L 561.8 77.415312 
Q 563.8 77.415312 563.8 75.415312 
L 563.8 29.32 
Q 563.8 27.32 561.8 27.32 
L 473.7 27.32 
Q 471.7 27.32 471.7 29.32 
L 471.7 75.415312 
Q 471.7 77.415312 473.7 77.415312 
z
" style="fill: #ffffff; opacity: 0.8; stroke: #cccccc; stroke-linejoin: miter"/>
    </g>
    <g id="line2d_38">
     <path d="M 485.7 38.918437 
L 485.7 34.105937 
" style="fill: none; stroke: #1f77b4"/>
    </g>
    <g id="line2d_39">
     <path d="M 475.7 38.918437 
L 495.7 38.918437 
" style="fill: none; stroke: #000000; stroke-opacity: 0; stroke-linecap: square"/>
    </g>
    <g id="line2d_40">
     <g>
      <use xlink:href="#mb3e768b38b" x="485.7" y="34.105937" style="fill-opacity: 0; stroke: #1f77b4"/>
     </g>
    </g>
    <g id="text_18">
     <!-- $B T_{sym} = 0.1$ -->
     <g transform="translate(503.7 38.918437) scale(0.1 -0.1)">
      <defs>
       <path id="DejaVuSans-Oblique-42" d="M 1081 4666 
L 2694 4666 
Q 3350 4666 3675 4422 
Q 4000 4178 4000 3688 
Q 4000 3238 3720 2911 
Q 3441 2584 2988 2516 
Q 3375 2428 3569 2181 
Q 3763 1934 3763 1522 
Q 3763 819 3242 409 
Q 2722 0 1819 0 
L 172 0 
L 1081 4666 
z
M 1234 2228 
L 903 519 
L 1919 519 
Q 2491 519 2800 781 
Q 3109 1044 3109 1522 
Q 3109 1891 2904 2059 
Q 2700 2228 2247 2228 
L 1234 2228 
z
M 1606 4147 
L 1331 2741 
L 2272 2741 
Q 2775 2741 3058 2959 
Q 3341 3178 3341 3566 
Q 3341 3869 3150 4008 
Q 2959 4147 2541 4147 
L 1606 4147 
z
" transform="scale(0.015625)"/>
       <path id="DejaVuSans-Oblique-54" d="M 378 4666 
L 4325 4666 
L 4225 4134 
L 2559 4134 
L 1759 0 
L 1125 0 
L 1925 4134 
L 275 4134 
L 378 4666 
z
" transform="scale(0.015625)"/>
       <path id="DejaVuSans-Oblique-73" d="M 3200 3397 
L 3091 2853 
Q 2863 2978 2609 3040 
Q 2356 3103 2088 3103 
Q 1634 3103 1373 2948 
Q 1113 2794 1113 2528 
Q 1113 2219 1719 2053 
Q 1766 2041 1788 2034 
L 1972 1978 
Q 2547 1819 2739 1644 
Q 2931 1469 2931 1166 
Q 2931 609 2489 259 
Q 2047 -91 1331 -91 
Q 1053 -91 747 -37 
Q 441 16 72 128 
L 184 722 
Q 500 559 806 475 
Q 1113 391 1394 391 
Q 1816 391 2080 572 
Q 2344 753 2344 1031 
Q 2344 1331 1650 1516 
L 1591 1531 
L 1394 1581 
Q 956 1697 753 1886 
Q 550 2075 550 2369 
Q 550 2928 970 3256 
Q 1391 3584 2113 3584 
Q 2397 3584 2667 3537 
Q 2938 3491 3200 3397 
z
" transform="scale(0.015625)"/>
       <path id="DejaVuSans-Oblique-79" d="M 1588 -325 
Q 1188 -997 936 -1164 
Q 684 -1331 294 -1331 
L -159 -1331 
L -63 -850 
L 269 -850 
Q 509 -850 678 -719 
Q 847 -588 1056 -206 
L 1234 128 
L 459 3500 
L 1069 3500 
L 1650 819 
L 3256 3500 
L 3859 3500 
L 1588 -325 
z
" transform="scale(0.015625)"/>
       <path id="DejaVuSans-Oblique-6d" d="M 5747 2113 
L 5338 0 
L 4763 0 
L 5166 2094 
Q 5191 2228 5203 2325 
Q 5216 2422 5216 2491 
Q 5216 2772 5059 2928 
Q 4903 3084 4622 3084 
Q 4203 3084 3875 2770 
Q 3547 2456 3450 1953 
L 3066 0 
L 2491 0 
L 2900 2094 
Q 2925 2209 2937 2307 
Q 2950 2406 2950 2484 
Q 2950 2769 2794 2926 
Q 2638 3084 2363 3084 
Q 1938 3084 1609 2770 
Q 1281 2456 1184 1953 
L 800 0 
L 225 0 
L 909 3500 
L 1484 3500 
L 1375 2956 
Q 1609 3263 1923 3423 
Q 2238 3584 2597 3584 
Q 2978 3584 3223 3384 
Q 3469 3184 3519 2828 
Q 3781 3197 4126 3390 
Q 4472 3584 4856 3584 
Q 5306 3584 5551 3325 
Q 5797 3066 5797 2591 
Q 5797 2488 5784 2364 
Q 5772 2241 5747 2113 
z
" transform="scale(0.015625)"/>
       <path id="DejaVuSans-3d" d="M 678 2906 
L 4684 2906 
L 4684 2381 
L 678 2381 
L 678 2906 
z
M 678 1631 
L 4684 1631 
L 4684 1100 
L 678 1100 
L 678 1631 
z
" transform="scale(0.015625)"/>
      </defs>
      <use xlink:href="#DejaVuSans-Oblique-42" transform="translate(0 0.78125)"/>
      <use xlink:href="#DejaVuSans-Oblique-54" transform="translate(68.603516 0.78125)"/>
      <use xlink:href="#DejaVuSans-Oblique-73" transform="translate(129.6875 -15.625) scale(0.7)"/>
      <use xlink:href="#DejaVuSans-Oblique-79" transform="translate(166.157227 -15.625) scale(0.7)"/>
      <use xlink:href="#DejaVuSans-Oblique-6d" transform="translate(207.583008 -15.625) scale(0.7)"/>
      <use xlink:href="#DejaVuSans-3d" transform="translate(297.988281 0.78125)"/>
      <use xlink:href="#DejaVuSans-30" transform="translate(401.259766 0.78125)"/>
      <use xlink:href="#DejaVuSans-2e" transform="translate(464.882812 0.78125)"/>
      <use xlink:href="#DejaVuSans-31" transform="translate(496.669922 0.78125)"/>
     </g>
    </g>
    <g id="line2d_41">
     <path d="M 485.7 54.616875 
L 485.7 49.804375 
" style="fill: none; stroke: #ff7f0e"/>
    </g>
    <g id="line2d_42">
     <path d="M 475.7 54.616875 
L 495.7 54.616875 
" style="fill: none; stroke: #000000; stroke-opacity: 0; stroke-linecap: square"/>
    </g>
    <g id="line2d_43">
     <g>
      <use xlink:href="#m4358aa1113" x="485.7" y="49.804375" style="fill-opacity: 0; stroke: #ff7f0e"/>
     </g>
    </g>
    <g id="text_19">
     <!-- $B T_{sym} = 0.2$ -->
     <g transform="translate(503.7 54.616875) scale(0.1 -0.1)">
      <use xlink:href="#DejaVuSans-Oblique-42" transform="translate(0 0.78125)"/>
      <use xlink:href="#DejaVuSans-Oblique-54" transform="translate(68.603516 0.78125)"/>
      <use xlink:href="#DejaVuSans-Oblique-73" transform="translate(129.6875 -15.625) scale(0.7)"/>
      <use xlink:href="#DejaVuSans-Oblique-79" transform="translate(166.157227 -15.625) scale(0.7)"/>
      <use xlink:href="#DejaVuSans-Oblique-6d" transform="translate(207.583008 -15.625) scale(0.7)"/>
      <use xlink:href="#DejaVuSans-3d" transform="translate(297.988281 0.78125)"/>
      <use xlink:href="#DejaVuSans-30" transform="translate(401.259766 0.78125)"/>
      <use xlink:href="#DejaVuSans-2e" transform="translate(464.882812 0.78125)"/>
      <use xlink:href="#DejaVuSans-32" transform="translate(491.169922 0.78125)"/>
     </g>
    </g>
    <g id="line2d_44">
     <path d="M 485.7 70.315312 
L 485.7 65.502812 
" style="fill: none; stroke: #2ca02c"/>
    </g>
    <g id="line2d_45">
     <path d="M 475.7 70.315312 
L 495.7 70.315312 
" style="fill: none; stroke: #000000; stroke-opacity: 0; stroke-linecap: square"/>
    </g>
    <g id="line2d_46">
     <g>
      <use xlink:href="#mfdd0e6e8d4" x="485.7" y="65.502812" style="fill-opacity: 0; stroke: #2ca02c"/>
     </g>
    </g>
    <g id="text_20">
     <!-- $B T_{sym} = 0.3$ -->
     <g transform="translate(503.7 70.315312) scale(0.1 -0.1)">
      <use xlink:href="#DejaVuSans-Oblique-42" transform="translate(0 0.78125)"/>
      <use xlink:href="#DejaVuSans-Oblique-54" transform="translate(68.603516 0.78125)"/>
      <use xlink:href="#DejaVuSans-Oblique-73" transform="translate(129.6875 -15.625) scale(0.7)"/>
      <use xlink:href="#DejaVuSans-Oblique-79" transform="translate(166.157227 -15.625) scale(0.7)"/>
      <use xlink:href="#DejaVuSans-Oblique-6d" transform="translate(207.583008 -15.625) scale(0.7)"/>
      <use xlink:href="#DejaVuSans-3d" transform="translate(297.988281 0.78125)"/>
      <use xlink:href="#DejaVuSans-30" transform="translate(401.259766 0.78125)"/>
      <use xlink:href="#DejaVuSans-2e" transform="translate(464.882812 0.78125)"/>
      <use xlink:href="#DejaVuSans-33" transform="translate(496.669922 0.78125)"/>
     </g>
    </g>
   </g>
  </g>
 </g>
 <defs>
  <clipPath id="pa01d7d35f0">
   <rect x="50.14375" y="22.32" width="518.65625" height="228.101875"/>
  </clipPath>
 </defs>
</svg>
