<?xml version="1.0" encoding="utf-8" standalone="no"?>
<!DOCTYPE svg PUBLIC "-//W3C//DTD SVG 1.1//EN"
  "http://www.w3.org/Graphics/SVG/1.1/DTD/svg11.dtd">
<svg xmlns:xlink="http://www.w3.org/1999/xlink" width="576pt" height="288pt" viewBox="0 0 576 288" xmlns="http://www.w3.org/2000/svg" version="1.1">
 <metadata>
  <rdf:RDF xmlns:dc="http://purl.org/dc/elements/1.1/" xmlns:cc="http://creativecommons.org/ns#" xmlns:rdf="http://www.w3.org/1999/02/22-rdf-syntax-ns#">
   <cc:Work>
    <dc:type rdf:resource="http://purl.org/dc/dcmitype/StillImage"/>
    <dc:date>2026-05-03T17:44:10.042027</dc:date>
    <dc:format>image/svg+xml</dc:format>
    <dc:creator>
     <cc:Agent>
      <dc:title>Matplotlib v3.10.9, https://matplotlib.org/</dc:title>
     </cc:Agent>
    </dc:creator>
   </cc:Work>
  </rdf:RDF>
 </metadata>
 <defs>
  <style type="text/css">*{stroke-linejoin: round; stroke-linecap: butt}</style>
 </defs>
 <g id="figure_1">
  <g id="patch_1">
   <path d="M 0 288 
L 576 288 
L 576 0 
L 0 0 
z
" style="fill: #ffffff"/>
  </g>
  <g id="axes_1">
   <g id="patch_2">
    <path d="M 52.160938 250.421875 
L 568.8 250.421875 
L 568.8 7.2 
L 52.160938 7.2 
z
" style="fill: #ffffff"/>
   </g>
   <g id="matplotlib.axis_1">
    <g id="xtick_1">
     <g id="line2d_1">
      <path d="M 75.644531 250.421875 
L 75.644531 7.2 
" clip-path="url(#pcdd0e7ecd3)" style="fill: none; stroke-dasharray: 2.96,1.28; stroke-dashoffset: 0; stroke: #b0b0b0; stroke-opacity: 0.8; stroke-width: 0.8"/>
     </g>
     <g id="line2d_2">
      <defs>
       <path id="m93cb21ddcf" d="M 0 0 
L 0 3.5 
" style="stroke: #000000; stroke-width: 0.8"/>
      </defs>
      <g>
       <use xlink:href="#m93cb21ddcf" x="75.644531" y="250.421875" style="stroke: #000000; stroke-width: 0.8"/>
      </g>
     </g>
     <g id="text_1">
      <!-- 0 -->
      <g transform="translate(72.463281 265.020312) scale(0.1 -0.1)">
       <defs>
        <path id="DejaVuSans-30" d="M 2034 4250 
Q 1547 4250 1301 3770 
Q 1056 3291 1056 2328 
Q 1056 1369 1301 889 
Q 1547 409 2034 409 
Q 2525 409 2770 889 
Q 3016 1369 3016 2328 
Q 3016 3291 2770 3770 
Q 2525 4250 2034 4250 
z
M 2034 4750 
Q 2819 4750 3233 4129 
Q 3647 3509 3647 2328 
Q 3647 1150 3233 529 
Q 2819 -91 2034 -91 
Q 1250 -91 836 529 
Q 422 1150 422 2328 
Q 422 3509 836 4129 
Q 1250 4750 2034 4750 
z
" transform="scale(0.015625)"/>
       </defs>
       <use xlink:href="#DejaVuSans-30"/>
      </g>
     </g>
    </g>
    <g id="xtick_2">
     <g id="line2d_3">
      <path d="M 134.500656 250.421875 
L 134.500656 7.2 
" clip-path="url(#pcdd0e7ecd3)" style="fill: none; stroke-dasharray: 2.96,1.28; stroke-dashoffset: 0; stroke: #b0b0b0; stroke-opacity: 0.8; stroke-width: 0.8"/>
     </g>
     <g id="line2d_4">
      <g>
       <use xlink:href="#m93cb21ddcf" x="134.500656" y="250.421875" style="stroke: #000000; stroke-width: 0.8"/>
      </g>
     </g>
     <g id="text_2">
      <!-- 50 -->
      <g transform="translate(128.138156 265.020312) scale(0.1 -0.1)">
       <defs>
        <path id="DejaVuSans-35" d="M 691 4666 
L 3169 4666 
L 3169 4134 
L 1269 4134 
L 1269 2991 
Q 1406 3038 1543 3061 
Q 1681 3084 1819 3084 
Q 2600 3084 3056 2656 
Q 3513 2228 3513 1497 
Q 3513 744 3044 326 
Q 2575 -91 1722 -91 
Q 1428 -91 1123 -41 
Q 819 9 494 109 
L 494 744 
Q 775 591 1075 516 
Q 1375 441 1709 441 
Q 2250 441 2565 725 
Q 2881 1009 2881 1497 
Q 2881 1984 2565 2268 
Q 2250 2553 1709 2553 
Q 1456 2553 1204 2497 
Q 953 2441 691 2322 
L 691 4666 
z
" transform="scale(0.015625)"/>
       </defs>
       <use xlink:href="#DejaVuSans-35"/>
       <use xlink:href="#DejaVuSans-30" transform="translate(63.623047 0)"/>
      </g>
     </g>
    </g>
    <g id="xtick_3">
     <g id="line2d_5">
      <path d="M 193.356781 250.421875 
L 193.356781 7.2 
" clip-path="url(#pcdd0e7ecd3)" style="fill: none; stroke-dasharray: 2.96,1.28; stroke-dashoffset: 0; stroke: #b0b0b0; stroke-opacity: 0.8; stroke-width: 0.8"/>
     </g>
     <g id="line2d_6">
      <g>
       <use xlink:href="#m93cb21ddcf" x="193.356781" y="250.421875" style="stroke: #000000; stroke-width: 0.8"/>
      </g>
     </g>
     <g id="text_3">
      <!-- 100 -->
      <g transform="translate(183.813031 265.020312) scale(0.1 -0.1)">
       <defs>
        <path id="DejaVuSans-31" d="M 794 531 
L 1825 531 
L 1825 4091 
L 703 3866 
L 703 4441 
L 1819 4666 
L 2450 4666 
L 2450 531 
L 3481 531 
L 3481 0 
L 794 0 
L 794 531 
z
" transform="scale(0.015625)"/>
       </defs>
       <use xlink:href="#DejaVuSans-31"/>
       <use xlink:href="#DejaVuSans-30" transform="translate(63.623047 0)"/>
       <use xlink:href="#DejaVuSans-30" transform="translate(127.246094 0)"/>
      </g>
     </g>
    </g>
    <g id="xtick_4">
     <g id="line2d_7">
      <path d="M 252.212905 250.421875 
L 252.212905 7.2 
" clip-path="url(#pcdd0e7ecd3)" style="fill: none; stroke-dasharray: 2.96,1.28; stroke-dashoffset: 0; stroke: #b0b0b0; stroke-opacity: 0.8; stroke-width: 0.8"/>
     </g>
     <g id="line2d_8">
      <g>
       <use xlink:href="#m93cb21ddcf" x="252.212905" y="250.421875" style="stroke: #000000; stroke-width: 0.8"/>
      </g>
     </g>
     <g id="text_4">
      <!-- 150 -->
      <g transform="translate(242.669155 265.020312) scale(0.1 -0.1)">
       <use xlink:href="#DejaVuSans-31"/>
       <use xlink:href="#DejaVuSans-35" transform="translate(63.623047 0)"/>
       <use xlink:href="#DejaVuSans-30" transform="translate(127.246094 0)"/>
      </g>
     </g>
    </g>
    <g id="xtick_5">
     <g id="line2d_9">
      <path d="M 311.06903 250.421875 
L 311.06903 7.2 
" clip-path="url(#pcdd0e7ecd3)" style="fill: none; stroke-dasharray: 2.96,1.28; stroke-dashoffset: 0; stroke: #b0b0b0; stroke-opacity: 0.8; stroke-width: 0.8"/>
     </g>
     <g id="line2d_10">
      <g>
       <use xlink:href="#m93cb21ddcf" x="311.06903" y="250.421875" style="stroke: #000000; stroke-width: 0.8"/>
      </g>
     </g>
     <g id="text_5">
      <!-- 200 -->
      <g transform="translate(301.52528 265.020312) scale(0.1 -0.1)">
       <defs>
        <path id="DejaVuSans-32" d="M 1228 531 
L 3431 531 
L 3431 0 
L 469 0 
L 469 531 
Q 828 903 1448 1529 
Q 2069 2156 2228 2338 
Q 2531 2678 2651 2914 
Q 2772 3150 2772 3378 
Q 2772 3750 2511 3984 
Q 2250 4219 1831 4219 
Q 1534 4219 1204 4116 
Q 875 4013 500 3803 
L 500 4441 
Q 881 4594 1212 4672 
Q 1544 4750 1819 4750 
Q 2544 4750 2975 4387 
Q 3406 4025 3406 3419 
Q 3406 3131 3298 2873 
Q 3191 2616 2906 2266 
Q 2828 2175 2409 1742 
Q 1991 1309 1228 531 
z
" transform="scale(0.015625)"/>
       </defs>
       <use xlink:href="#DejaVuSans-32"/>
       <use xlink:href="#DejaVuSans-30" transform="translate(63.623047 0)"/>
       <use xlink:href="#DejaVuSans-30" transform="translate(127.246094 0)"/>
      </g>
     </g>
    </g>
    <g id="xtick_6">
     <g id="line2d_11">
      <path d="M 369.925155 250.421875 
L 369.925155 7.2 
" clip-path="url(#pcdd0e7ecd3)" style="fill: none; stroke-dasharray: 2.96,1.28; stroke-dashoffset: 0; stroke: #b0b0b0; stroke-opacity: 0.8; stroke-width: 0.8"/>
     </g>
     <g id="line2d_12">
      <g>
       <use xlink:href="#m93cb21ddcf" x="369.925155" y="250.421875" style="stroke: #000000; stroke-width: 0.8"/>
      </g>
     </g>
     <g id="text_6">
      <!-- 250 -->
      <g transform="translate(360.381405 265.020312) scale(0.1 -0.1)">
       <use xlink:href="#DejaVuSans-32"/>
       <use xlink:href="#DejaVuSans-35" transform="translate(63.623047 0)"/>
       <use xlink:href="#DejaVuSans-30" transform="translate(127.246094 0)"/>
      </g>
     </g>
    </g>
    <g id="xtick_7">
     <g id="line2d_13">
      <path d="M 428.781279 250.421875 
L 428.781279 7.2 
" clip-path="url(#pcdd0e7ecd3)" style="fill: none; stroke-dasharray: 2.96,1.28; stroke-dashoffset: 0; stroke: #b0b0b0; stroke-opacity: 0.8; stroke-width: 0.8"/>
     </g>
     <g id="line2d_14">
      <g>
       <use xlink:href="#m93cb21ddcf" x="428.781279" y="250.421875" style="stroke: #000000; stroke-width: 0.8"/>
      </g>
     </g>
     <g id="text_7">
      <!-- 300 -->
      <g transform="translate(419.237529 265.020312) scale(0.1 -0.1)">
       <defs>
        <path id="DejaVuSans-33" d="M 2597 2516 
Q 3050 2419 3304 2112 
Q 3559 1806 3559 1356 
Q 3559 666 3084 287 
Q 2609 -91 1734 -91 
Q 1441 -91 1130 -33 
Q 819 25 488 141 
L 488 750 
Q 750 597 1062 519 
Q 1375 441 1716 441 
Q 2309 441 2620 675 
Q 2931 909 2931 1356 
Q 2931 1769 2642 2001 
Q 2353 2234 1838 2234 
L 1294 2234 
L 1294 2753 
L 1863 2753 
Q 2328 2753 2575 2939 
Q 2822 3125 2822 3475 
Q 2822 3834 2567 4026 
Q 2313 4219 1838 4219 
Q 1578 4219 1281 4162 
Q 984 4106 628 3988 
L 628 4550 
Q 988 4650 1302 4700 
Q 1616 4750 1894 4750 
Q 2613 4750 3031 4423 
Q 3450 4097 3450 3541 
Q 3450 3153 3228 2886 
Q 3006 2619 2597 2516 
z
" transform="scale(0.015625)"/>
       </defs>
       <use xlink:href="#DejaVuSans-33"/>
       <use xlink:href="#DejaVuSans-30" transform="translate(63.623047 0)"/>
       <use xlink:href="#DejaVuSans-30" transform="translate(127.246094 0)"/>
      </g>
     </g>
    </g>
    <g id="xtick_8">
     <g id="line2d_15">
      <path d="M 487.637404 250.421875 
L 487.637404 7.2 
" clip-path="url(#pcdd0e7ecd3)" style="fill: none; stroke-dasharray: 2.96,1.28; stroke-dashoffset: 0; stroke: #b0b0b0; stroke-opacity: 0.8; stroke-width: 0.8"/>
     </g>
     <g id="line2d_16">
      <g>
       <use xlink:href="#m93cb21ddcf" x="487.637404" y="250.421875" style="stroke: #000000; stroke-width: 0.8"/>
      </g>
     </g>
     <g id="text_8">
      <!-- 350 -->
      <g transform="translate(478.093654 265.020312) scale(0.1 -0.1)">
       <use xlink:href="#DejaVuSans-33"/>
       <use xlink:href="#DejaVuSans-35" transform="translate(63.623047 0)"/>
       <use xlink:href="#DejaVuSans-30" transform="translate(127.246094 0)"/>
      </g>
     </g>
    </g>
    <g id="xtick_9">
     <g id="line2d_17">
      <path d="M 546.493529 250.421875 
L 546.493529 7.2 
" clip-path="url(#pcdd0e7ecd3)" style="fill: none; stroke-dasharray: 2.96,1.28; stroke-dashoffset: 0; stroke: #b0b0b0; stroke-opacity: 0.8; stroke-width: 0.8"/>
     </g>
     <g id="line2d_18">
      <g>
       <use xlink:href="#m93cb21ddcf" x="546.493529" y="250.421875" style="stroke: #000000; stroke-width: 0.8"/>
      </g>
     </g>
     <g id="text_9">
      <!-- 400 -->
      <g transform="translate(536.949779 265.020312) scale(0.1 -0.1)">
       <defs>
        <path id="DejaVuSans-34" d="M 2419 4116 
L 825 1625 
L 2419 1625 
L 2419 4116 
z
M 2253 4666 
L 3047 4666 
L 3047 1625 
L 3713 1625 
L 3713 1100 
L 3047 1100 
L 3047 0 
L 2419 0 
L 2419 1100 
L 313 1100 
L 313 1709 
L 2253 4666 
z
" transform="scale(0.015625)"/>
       </defs>
       <use xlink:href="#DejaVuSans-34"/>
       <use xlink:href="#DejaVuSans-30" transform="translate(63.623047 0)"/>
       <use xlink:href="#DejaVuSans-30" transform="translate(127.246094 0)"/>
      </g>
     </g>
    </g>
    <g id="text_10">
     <!-- Sample, $n$ -->
     <g transform="translate(285.380469 278.7) scale(0.1 -0.1)">
      <defs>
       <path id="DejaVuSans-53" d="M 3425 4513 
L 3425 3897 
Q 3066 4069 2747 4153 
Q 2428 4238 2131 4238 
Q 1616 4238 1336 4038 
Q 1056 3838 1056 3469 
Q 1056 3159 1242 3001 
Q 1428 2844 1947 2747 
L 2328 2669 
Q 3034 2534 3370 2195 
Q 3706 1856 3706 1288 
Q 3706 609 3251 259 
Q 2797 -91 1919 -91 
Q 1588 -91 1214 -16 
Q 841 59 441 206 
L 441 856 
Q 825 641 1194 531 
Q 1563 422 1919 422 
Q 2459 422 2753 634 
Q 3047 847 3047 1241 
Q 3047 1584 2836 1778 
Q 2625 1972 2144 2069 
L 1759 2144 
Q 1053 2284 737 2584 
Q 422 2884 422 3419 
Q 422 4038 858 4394 
Q 1294 4750 2059 4750 
Q 2388 4750 2728 4690 
Q 3069 4631 3425 4513 
z
" transform="scale(0.015625)"/>
       <path id="DejaVuSans-61" d="M 2194 1759 
Q 1497 1759 1228 1600 
Q 959 1441 959 1056 
Q 959 750 1161 570 
Q 1363 391 1709 391 
Q 2188 391 2477 730 
Q 2766 1069 2766 1631 
L 2766 1759 
L 2194 1759 
z
M 3341 1997 
L 3341 0 
L 2766 0 
L 2766 531 
Q 2569 213 2275 61 
Q 1981 -91 1556 -91 
Q 1019 -91 701 211 
Q 384 513 384 1019 
Q 384 1609 779 1909 
Q 1175 2209 1959 2209 
L 2766 2209 
L 2766 2266 
Q 2766 2663 2505 2880 
Q 2244 3097 1772 3097 
Q 1472 3097 1187 3025 
Q 903 2953 641 2809 
L 641 3341 
Q 956 3463 1253 3523 
Q 1550 3584 1831 3584 
Q 2591 3584 2966 3190 
Q 3341 2797 3341 1997 
z
" transform="scale(0.015625)"/>
       <path id="DejaVuSans-6d" d="M 3328 2828 
Q 3544 3216 3844 3400 
Q 4144 3584 4550 3584 
Q 5097 3584 5394 3201 
Q 5691 2819 5691 2113 
L 5691 0 
L 5113 0 
L 5113 2094 
Q 5113 2597 4934 2840 
Q 4756 3084 4391 3084 
Q 3944 3084 3684 2787 
Q 3425 2491 3425 1978 
L 3425 0 
L 2847 0 
L 2847 2094 
Q 2847 2600 2669 2842 
Q 2491 3084 2119 3084 
Q 1678 3084 1418 2786 
Q 1159 2488 1159 1978 
L 1159 0 
L 581 0 
L 581 3500 
L 1159 3500 
L 1159 2956 
Q 1356 3278 1631 3431 
Q 1906 3584 2284 3584 
Q 2666 3584 2933 3390 
Q 3200 3197 3328 2828 
z
" transform="scale(0.015625)"/>
       <path id="DejaVuSans-70" d="M 1159 525 
L 1159 -1331 
L 581 -1331 
L 581 3500 
L 1159 3500 
L 1159 2969 
Q 1341 3281 1617 3432 
Q 1894 3584 2278 3584 
Q 2916 3584 3314 3078 
Q 3713 2572 3713 1747 
Q 3713 922 3314 415 
Q 2916 -91 2278 -91 
Q 1894 -91 1617 61 
Q 1341 213 1159 525 
z
M 3116 1747 
Q 3116 2381 2855 2742 
Q 2594 3103 2138 3103 
Q 1681 3103 1420 2742 
Q 1159 2381 1159 1747 
Q 1159 1113 1420 752 
Q 1681 391 2138 391 
Q 2594 391 2855 752 
Q 3116 1113 3116 1747 
z
" transform="scale(0.015625)"/>
       <path id="DejaVuSans-6c" d="M 603 4863 
L 1178 4863 
L 1178 0 
L 603 0 
L 603 4863 
z
" transform="scale(0.015625)"/>
       <path id="DejaVuSans-65" d="M 3597 1894 
L 3597 1613 
L 953 1613 
Q 991 1019 1311 708 
Q 1631 397 2203 397 
Q 2534 397 2845 478 
Q 3156 559 3463 722 
L 3463 178 
Q 3153 47 2828 -22 
Q 2503 -91 2169 -91 
Q 1331 -91 842 396 
Q 353 884 353 1716 
Q 353 2575 817 3079 
Q 1281 3584 2069 3584 
Q 2775 3584 3186 3129 
Q 3597 2675 3597 1894 
z
M 3022 2063 
Q 3016 2534 2758 2815 
Q 2500 3097 2075 3097 
Q 1594 3097 1305 2825 
Q 1016 2553 972 2059 
L 3022 2063 
z
" transform="scale(0.015625)"/>
       <path id="DejaVuSans-2c" d="M 750 794 
L 1409 794 
L 1409 256 
L 897 -744 
L 494 -744 
L 750 256 
L 750 794 
z
" transform="scale(0.015625)"/>
       <path id="DejaVuSans-20" transform="scale(0.015625)"/>
       <path id="DejaVuSans-Oblique-6e" d="M 3566 2113 
L 3156 0 
L 2578 0 
L 2988 2091 
Q 3016 2238 3031 2350 
Q 3047 2463 3047 2528 
Q 3047 2791 2881 2937 
Q 2716 3084 2419 3084 
Q 1956 3084 1622 2776 
Q 1288 2469 1184 1941 
L 800 0 
L 225 0 
L 903 3500 
L 1478 3500 
L 1363 2950 
Q 1603 3253 1940 3418 
Q 2278 3584 2650 3584 
Q 3113 3584 3367 3334 
Q 3622 3084 3622 2631 
Q 3622 2519 3608 2391 
Q 3594 2263 3566 2113 
z
" transform="scale(0.015625)"/>
      </defs>
      <use xlink:href="#DejaVuSans-53" transform="translate(0 0.015625)"/>
      <use xlink:href="#DejaVuSans-61" transform="translate(63.476562 0.015625)"/>
      <use xlink:href="#DejaVuSans-6d" transform="translate(124.755859 0.015625)"/>
      <use xlink:href="#DejaVuSans-70" transform="translate(222.167969 0.015625)"/>
      <use xlink:href="#DejaVuSans-6c" transform="translate(285.644531 0.015625)"/>
      <use xlink:href="#DejaVuSans-65" transform="translate(313.427734 0.015625)"/>
      <use xlink:href="#DejaVuSans-2c" transform="translate(374.951172 0.015625)"/>
      <use xlink:href="#DejaVuSans-20" transform="translate(406.738281 0.015625)"/>
      <use xlink:href="#DejaVuSans-Oblique-6e" transform="translate(438.525391 0.015625)"/>
     </g>
    </g>
   </g>
   <g id="matplotlib.axis_2">
    <g id="ytick_1">
     <g id="line2d_19">
      <path d="M 52.160938 220.29719 
L 568.8 220.29719 
" clip-path="url(#pcdd0e7ecd3)" style="fill: none; stroke-dasharray: 2.96,1.28; stroke-dashoffset: 0; stroke: #b0b0b0; stroke-opacity: 0.8; stroke-width: 0.8"/>
     </g>
     <g id="line2d_20">
      <defs>
       <path id="mbfe28812c9" d="M 0 0 
L -3.5 0 
" style="stroke: #000000; stroke-width: 0.8"/>
      </defs>
      <g>
       <use xlink:href="#mbfe28812c9" x="52.160938" y="220.29719" style="stroke: #000000; stroke-width: 0.8"/>
      </g>
     </g>
     <g id="text_11">
      <!-- −0.4 -->
      <g transform="translate(20.878125 224.096409) scale(0.1 -0.1)">
       <defs>
        <path id="DejaVuSans-2212" d="M 678 2272 
L 4684 2272 
L 4684 1741 
L 678 1741 
L 678 2272 
z
" transform="scale(0.015625)"/>
        <path id="DejaVuSans-2e" d="M 684 794 
L 1344 794 
L 1344 0 
L 684 0 
L 684 794 
z
" transform="scale(0.015625)"/>
       </defs>
       <use xlink:href="#DejaVuSans-2212"/>
       <use xlink:href="#DejaVuSans-30" transform="translate(83.789062 0)"/>
       <use xlink:href="#DejaVuSans-2e" transform="translate(147.412109 0)"/>
       <use xlink:href="#DejaVuSans-34" transform="translate(179.199219 0)"/>
      </g>
     </g>
    </g>
    <g id="ytick_2">
     <g id="line2d_21">
      <path d="M 52.160938 177.592606 
L 568.8 177.592606 
" clip-path="url(#pcdd0e7ecd3)" style="fill: none; stroke-dasharray: 2.96,1.28; stroke-dashoffset: 0; stroke: #b0b0b0; stroke-opacity: 0.8; stroke-width: 0.8"/>
     </g>
     <g id="line2d_22">
      <g>
       <use xlink:href="#mbfe28812c9" x="52.160938" y="177.592606" style="stroke: #000000; stroke-width: 0.8"/>
      </g>
     </g>
     <g id="text_12">
      <!-- −0.2 -->
      <g transform="translate(20.878125 181.391824) scale(0.1 -0.1)">
       <use xlink:href="#DejaVuSans-2212"/>
       <use xlink:href="#DejaVuSans-30" transform="translate(83.789062 0)"/>
       <use xlink:href="#DejaVuSans-2e" transform="translate(147.412109 0)"/>
       <use xlink:href="#DejaVuSans-32" transform="translate(179.199219 0)"/>
      </g>
     </g>
    </g>
    <g id="ytick_3">
     <g id="line2d_23">
      <path d="M 52.160938 134.888021 
L 568.8 134.888021 
" clip-path="url(#pcdd0e7ecd3)" style="fill: none; stroke-dasharray: 2.96,1.28; stroke-dashoffset: 0; stroke: #b0b0b0; stroke-opacity: 0.8; stroke-width: 0.8"/>
     </g>
     <g id="line2d_24">
      <g>
       <use xlink:href="#mbfe28812c9" x="52.160938" y="134.888021" style="stroke: #000000; stroke-width: 0.8"/>
      </g>
     </g>
     <g id="text_13">
      <!-- 0.0 -->
      <g transform="translate(29.257812 138.68724) scale(0.1 -0.1)">
       <use xlink:href="#DejaVuSans-30"/>
       <use xlink:href="#DejaVuSans-2e" transform="translate(63.623047 0)"/>
       <use xlink:href="#DejaVuSans-30" transform="translate(95.410156 0)"/>
      </g>
     </g>
    </g>
    <g id="ytick_4">
     <g id="line2d_25">
      <path d="M 52.160938 92.183437 
L 568.8 92.183437 
" clip-path="url(#pcdd0e7ecd3)" style="fill: none; stroke-dasharray: 2.96,1.28; stroke-dashoffset: 0; stroke: #b0b0b0; stroke-opacity: 0.8; stroke-width: 0.8"/>
     </g>
     <g id="line2d_26">
      <g>
       <use xlink:href="#mbfe28812c9" x="52.160938" y="92.183437" style="stroke: #000000; stroke-width: 0.8"/>
      </g>
     </g>
     <g id="text_14">
      <!-- 0.2 -->
      <g transform="translate(29.257812 95.982656) scale(0.1 -0.1)">
       <use xlink:href="#DejaVuSans-30"/>
       <use xlink:href="#DejaVuSans-2e" transform="translate(63.623047 0)"/>
       <use xlink:href="#DejaVuSans-32" transform="translate(95.410156 0)"/>
      </g>
     </g>
    </g>
    <g id="ytick_5">
     <g id="line2d_27">
      <path d="M 52.160938 49.478853 
L 568.8 49.478853 
" clip-path="url(#pcdd0e7ecd3)" style="fill: none; stroke-dasharray: 2.96,1.28; stroke-dashoffset: 0; stroke: #b0b0b0; stroke-opacity: 0.8; stroke-width: 0.8"/>
     </g>
     <g id="line2d_28">
      <g>
       <use xlink:href="#mbfe28812c9" x="52.160938" y="49.478853" style="stroke: #000000; stroke-width: 0.8"/>
      </g>
     </g>
     <g id="text_15">
      <!-- 0.4 -->
      <g transform="translate(29.257812 53.278072) scale(0.1 -0.1)">
       <use xlink:href="#DejaVuSans-30"/>
       <use xlink:href="#DejaVuSans-2e" transform="translate(63.623047 0)"/>
       <use xlink:href="#DejaVuSans-34" transform="translate(95.410156 0)"/>
      </g>
     </g>
    </g>
    <g id="text_16">
     <!-- Amplitude -->
     <g transform="translate(14.798437 154.433594) rotate(-90) scale(0.1 -0.1)">
      <defs>
       <path id="DejaVuSans-41" d="M 2188 4044 
L 1331 1722 
L 3047 1722 
L 2188 4044 
z
M 1831 4666 
L 2547 4666 
L 4325 0 
L 3669 0 
L 3244 1197 
L 1141 1197 
L 716 0 
L 50 0 
L 1831 4666 
z
" transform="scale(0.015625)"/>
       <path id="DejaVuSans-69" d="M 603 3500 
L 1178 3500 
L 1178 0 
L 603 0 
L 603 3500 
z
M 603 4863 
L 1178 4863 
L 1178 4134 
L 603 4134 
L 603 4863 
z
" transform="scale(0.015625)"/>
       <path id="DejaVuSans-74" d="M 1172 4494 
L 1172 3500 
L 2356 3500 
L 2356 3053 
L 1172 3053 
L 1172 1153 
Q 1172 725 1289 603 
Q 1406 481 1766 481 
L 2356 481 
L 2356 0 
L 1766 0 
Q 1100 0 847 248 
Q 594 497 594 1153 
L 594 3053 
L 172 3053 
L 172 3500 
L 594 3500 
L 594 4494 
L 1172 4494 
z
" transform="scale(0.015625)"/>
       <path id="DejaVuSans-75" d="M 544 1381 
L 544 3500 
L 1119 3500 
L 1119 1403 
Q 1119 906 1312 657 
Q 1506 409 1894 409 
Q 2359 409 2629 706 
Q 2900 1003 2900 1516 
L 2900 3500 
L 3475 3500 
L 3475 0 
L 2900 0 
L 2900 538 
Q 2691 219 2414 64 
Q 2138 -91 1772 -91 
Q 1169 -91 856 284 
Q 544 659 544 1381 
z
M 1991 3584 
L 1991 3584 
z
" transform="scale(0.015625)"/>
       <path id="DejaVuSans-64" d="M 2906 2969 
L 2906 4863 
L 3481 4863 
L 3481 0 
L 2906 0 
L 2906 525 
Q 2725 213 2448 61 
Q 2172 -91 1784 -91 
Q 1150 -91 751 415 
Q 353 922 353 1747 
Q 353 2572 751 3078 
Q 1150 3584 1784 3584 
Q 2172 3584 2448 3432 
Q 2725 3281 2906 2969 
z
M 947 1747 
Q 947 1113 1208 752 
Q 1469 391 1925 391 
Q 2381 391 2643 752 
Q 2906 1113 2906 1747 
Q 2906 2381 2643 2742 
Q 2381 3103 1925 3103 
Q 1469 3103 1208 2742 
Q 947 2381 947 1747 
z
" transform="scale(0.015625)"/>
      </defs>
      <use xlink:href="#DejaVuSans-41"/>
      <use xlink:href="#DejaVuSans-6d" transform="translate(68.408203 0)"/>
      <use xlink:href="#DejaVuSans-70" transform="translate(165.820312 0)"/>
      <use xlink:href="#DejaVuSans-6c" transform="translate(229.296875 0)"/>
      <use xlink:href="#DejaVuSans-69" transform="translate(257.080078 0)"/>
      <use xlink:href="#DejaVuSans-74" transform="translate(284.863281 0)"/>
      <use xlink:href="#DejaVuSans-75" transform="translate(324.072266 0)"/>
      <use xlink:href="#DejaVuSans-64" transform="translate(387.451172 0)"/>
      <use xlink:href="#DejaVuSans-65" transform="translate(450.927734 0)"/>
     </g>
    </g>
   </g>
   <g id="line2d_29">
    <path d="M 75.644531 137.96856 
L 76.821654 132.472771 
L 77.998776 135.693131 
L 79.175899 130.006833 
L 80.353021 137.089422 
L 81.530144 133.108331 
L 82.707266 135.031468 
L 83.884389 137.318592 
L 85.061511 133.428558 
L 86.238634 132.113147 
L 87.415756 136.852157 
L 88.592879 135.998696 
L 89.770001 131.455812 
L 90.947124 133.496245 
L 92.124246 134.785077 
L 93.301369 130.898457 
L 94.478491 137.732832 
L 95.655614 135.171941 
L 96.832736 135.560149 
L 98.009859 134.107022 
L 99.186981 141.137362 
L 100.364104 138.215036 
L 101.541226 140.426981 
L 102.718349 139.383926 
L 103.895471 133.381246 
L 105.072594 134.976002 
L 106.249716 137.946824 
L 107.426839 133.544134 
L 108.603961 125.639998 
L 109.781084 130.190134 
L 110.958206 124.462294 
L 112.135329 122.587998 
L 113.312451 133.068454 
L 114.489574 130.598629 
L 115.666696 137.742308 
L 116.843819 145.808991 
L 118.020941 151.192229 
L 119.198064 147.881834 
L 120.375186 155.276698 
L 121.552309 149.961547 
L 122.729431 142.872615 
L 125.083676 120.345496 
L 126.260798 103.977472 
L 127.437921 85.870162 
L 128.615043 71.936193 
L 129.792166 70.667477 
L 130.969288 67.615521 
L 132.146411 74.002466 
L 133.323533 93.370991 
L 134.500656 105.022223 
L 135.677778 127.251409 
L 136.854901 151.719582 
L 138.032023 168.294031 
L 139.209146 187.015913 
L 141.563391 220.320408 
L 142.740513 221.417829 
L 143.917636 222.233897 
L 145.094758 217.371414 
L 146.271881 207.671574 
L 147.449003 190.270951 
L 148.626126 185.24152 
L 149.803248 184.875634 
L 150.980371 181.614259 
L 152.157493 177.064309 
L 153.334616 185.270428 
L 154.511738 198.322054 
L 156.865983 214.63921 
L 159.220228 232.536906 
L 160.397351 217.822917 
L 161.574473 216.728665 
L 162.751596 191.195515 
L 163.928718 172.381319 
L 165.105841 151.301448 
L 166.282963 120.830009 
L 168.637208 80.63617 
L 169.814331 78.457863 
L 170.991453 68.026971 
L 172.168576 73.074281 
L 173.345698 76.569359 
L 174.522821 93.920553 
L 175.699943 103.73856 
L 176.877066 114.911026 
L 178.054188 128.857316 
L 179.231311 140.618378 
L 180.408433 150.81743 
L 181.585556 142.386038 
L 182.762678 148.069026 
L 183.939801 137.197165 
L 186.294046 109.002328 
L 188.648291 73.99903 
L 189.825413 65.762492 
L 191.002536 52.868892 
L 192.179658 42.552828 
L 193.356781 34.384375 
L 194.533903 44.118807 
L 195.711026 40.521946 
L 196.888148 53.345171 
L 199.242393 75.134055 
L 200.419516 92.953071 
L 201.596638 107.877991 
L 202.773761 129.133941 
L 203.950883 146.148613 
L 205.128006 165.029661 
L 206.305128 179.236986 
L 207.482251 187.044608 
L 208.659373 193.394595 
L 209.836496 194.891015 
L 211.013618 197.090134 
L 213.367863 178.230368 
L 214.544986 166.406975 
L 215.722108 146.813153 
L 218.076353 117.937909 
L 219.253475 107.494323 
L 220.430598 95.327205 
L 221.60772 80.602082 
L 222.784843 78.048731 
L 223.961965 83.441532 
L 225.139088 85.878695 
L 226.31621 81.253813 
L 227.493333 83.043343 
L 228.670455 86.486779 
L 229.847578 96.197163 
L 231.0247 102.87916 
L 232.201823 105.416322 
L 233.378945 113.015657 
L 234.556068 119.026662 
L 235.73319 126.744108 
L 236.910313 143.552009 
L 238.087435 150.92093 
L 239.264558 167.444561 
L 240.44168 167.684338 
L 241.618803 177.683527 
L 242.795925 177.642967 
L 243.973048 189.134966 
L 245.15017 188.074674 
L 246.327293 191.32449 
L 247.504415 183.669566 
L 248.681538 182.016148 
L 249.85866 168.176719 
L 251.035783 165.933493 
L 252.212905 157.72493 
L 253.390028 135.236207 
L 254.56715 135.309128 
L 255.744273 127.718469 
L 256.921395 109.630594 
L 258.098518 106.935433 
L 259.27564 97.041029 
L 260.452763 88.946121 
L 261.629885 82.723479 
L 263.98413 76.347883 
L 265.161253 80.869692 
L 266.338375 84.882558 
L 268.69262 98.452813 
L 269.869743 100.738123 
L 271.046865 115.455095 
L 272.223988 127.241803 
L 273.40111 132.315348 
L 274.578233 145.267567 
L 276.932478 165.103193 
L 279.286723 176.290277 
L 280.463845 185.1326 
L 281.640968 189.554236 
L 282.81809 193.400252 
L 285.172335 183.69986 
L 286.349458 186.07284 
L 287.52658 172.37766 
L 288.703703 163.021025 
L 289.880825 159.848548 
L 291.057948 146.099194 
L 292.23507 135.457119 
L 293.412193 123.137827 
L 294.589315 118.324863 
L 295.766438 109.203581 
L 296.94356 95.044787 
L 299.297805 83.833041 
L 300.474928 82.377582 
L 301.65205 81.631153 
L 302.829173 86.387505 
L 304.006295 84.424643 
L 305.183418 90.110754 
L 306.36054 97.938361 
L 307.537663 103.987982 
L 308.714785 118.685765 
L 309.891908 130.146186 
L 311.06903 134.299451 
L 312.246152 145.758683 
L 313.423275 149.553559 
L 314.600397 160.595036 
L 315.77752 161.131095 
L 316.954642 174.183438 
L 318.131765 177.219253 
L 319.308887 182.673391 
L 320.48601 187.40606 
L 321.663132 195.424246 
L 322.840255 196.308169 
L 324.017377 197.969574 
L 325.1945 202.341248 
L 326.371622 205.405072 
L 327.548745 202.714829 
L 328.725867 213.741773 
L 329.90299 214.196635 
L 331.080112 218.173584 
L 332.257235 218.574384 
L 333.434357 211.007813 
L 334.61148 208.508311 
L 335.788602 202.845565 
L 336.965725 202.563203 
L 338.142847 198.632298 
L 339.31997 183.490972 
L 340.497092 175.307477 
L 341.674215 171.350083 
L 344.02846 152.631207 
L 345.205582 146.178013 
L 346.382705 149.717797 
L 347.559827 142.009256 
L 348.73695 135.932681 
L 349.914072 140.163391 
L 351.091195 135.588937 
L 352.268317 136.360645 
L 353.44544 150.060006 
L 354.622562 156.102061 
L 355.799685 160.994335 
L 358.15393 190.179301 
L 359.331052 200.398056 
L 360.508175 209.51489 
L 361.685297 220.357121 
L 362.86242 232.861108 
L 364.039542 231.832128 
L 365.216665 224.504195 
L 366.393787 226.022381 
L 367.57091 211.214258 
L 368.748032 194.982931 
L 369.925155 180.754927 
L 371.102277 160.307288 
L 372.2794 144.830343 
L 374.633645 103.707603 
L 375.810767 82.908308 
L 376.98789 79.477983 
L 378.165012 72.609084 
L 379.342135 75.320976 
L 380.519257 76.043243 
L 381.69638 83.80525 
L 382.873502 95.013227 
L 384.050625 109.907944 
L 385.227747 120.068077 
L 386.40487 142.348835 
L 387.581992 146.541906 
L 388.759115 163.164647 
L 389.936237 167.680291 
L 391.11336 172.663788 
L 392.290482 173.473441 
L 393.467605 185.194514 
L 394.644727 181.280179 
L 395.82185 185.525767 
L 396.998972 174.14086 
L 398.176095 177.73542 
L 399.353217 174.545544 
L 400.53034 172.546615 
L 401.707462 158.646044 
L 404.061707 150.62289 
L 405.238829 134.134196 
L 406.415952 125.397886 
L 407.593074 112.962946 
L 408.770197 106.715809 
L 409.947319 98.759987 
L 411.124442 84.779761 
L 412.301564 80.777242 
L 413.478687 81.025046 
L 414.655809 82.221468 
L 415.832932 83.799746 
L 417.010054 97.393228 
L 418.187177 103.461643 
L 419.364299 111.909813 
L 420.541422 111.510414 
L 422.895667 129.161713 
L 424.072789 130.444535 
L 425.249912 129.605387 
L 426.427034 126.839005 
L 427.604157 132.883236 
L 428.781279 130.0923 
L 429.958402 125.627315 
L 431.135524 109.858125 
L 432.312647 106.191527 
L 434.666892 75.543795 
L 435.844014 51.93068 
L 437.021137 46.367219 
L 438.198259 34.040337 
L 439.375382 26.868233 
L 440.552504 18.25554 
L 442.906749 58.522026 
L 444.083872 71.337131 
L 445.260994 103.492387 
L 446.438117 117.185772 
L 447.615239 150.788105 
L 448.792362 170.203774 
L 449.969484 193.154258 
L 451.146607 196.149393 
L 452.323729 199.513507 
L 453.500852 186.661574 
L 454.677974 170.647669 
L 455.855097 148.65177 
L 457.032219 119.538774 
L 458.209342 95.373824 
L 460.563587 59.547924 
L 461.740709 48.06722 
L 465.272077 77.537342 
L 466.449199 103.623999 
L 467.626322 125.034999 
L 468.803444 154.010948 
L 469.980567 179.012793 
L 471.157689 200.026158 
L 472.334812 207.794761 
L 473.511934 210.820055 
L 474.689057 208.507835 
L 475.866179 194.011428 
L 477.043302 182.159467 
L 478.220424 165.080693 
L 480.574669 124.466835 
L 482.928914 99.079485 
L 484.106037 88.14132 
L 485.283159 83.849196 
L 486.460282 85.537909 
L 487.637404 85.434496 
L 488.814527 83.134155 
L 489.991649 94.640462 
L 491.168772 91.700809 
L 492.345894 94.620839 
L 493.523017 102.175959 
L 494.700139 100.518318 
L 495.877262 115.803155 
L 497.054384 117.031842 
L 498.231507 118.454013 
L 499.408629 129.361713 
L 500.585751 143.481767 
L 501.762874 148.424804 
L 504.117119 167.322289 
L 505.294241 171.954448 
L 506.471364 183.527159 
L 507.648486 183.741178 
L 508.825609 195.653216 
L 510.002731 199.445278 
L 511.179854 195.131887 
L 512.356976 200.244708 
L 513.534099 201.854877 
L 514.711221 203.83034 
L 515.888344 196.58181 
L 517.065466 203.022971 
L 518.242589 204.258824 
L 519.419711 214.128137 
L 520.596834 212.215646 
L 521.773956 207.532497 
L 522.951079 217.221346 
L 524.128201 211.371066 
L 525.305324 204.747881 
L 526.482446 197.162826 
L 527.659569 194.419565 
L 528.836691 175.993469 
L 530.013814 164.567566 
L 531.190936 157.525003 
L 532.368059 151.493255 
L 533.545181 124.36259 
L 534.722304 127.863848 
L 535.899426 127.688232 
L 537.076549 129.92838 
L 538.253671 135.272153 
L 539.430794 144.111437 
L 540.607916 163.454562 
L 541.785039 166.97866 
L 542.962161 190.035893 
L 544.139284 191.660988 
L 545.316406 194.09107 
L 545.316406 194.09107 
" clip-path="url(#pcdd0e7ecd3)" style="fill: none; stroke: #1f77b4; stroke-linecap: square"/>
   </g>
   <g id="line2d_30">
    <path d="M 75.644531 134.439441 
L 76.821654 140.134039 
L 77.998776 134.838758 
L 79.175899 127.171299 
L 80.353021 131.565307 
L 81.530144 128.054795 
L 82.707266 131.843916 
L 83.884389 132.440986 
L 85.061511 132.534442 
L 86.238634 136.951287 
L 87.415756 133.32221 
L 88.592879 132.891897 
L 89.770001 140.608684 
L 90.947124 143.802136 
L 92.124246 139.482257 
L 93.301369 140.660573 
L 94.478491 138.817446 
L 95.655614 137.752382 
L 96.832736 137.288797 
L 98.009859 128.015319 
L 99.186981 122.308817 
L 100.364104 126.516862 
L 101.541226 118.581976 
L 102.718349 126.645488 
L 103.895471 133.184823 
L 105.072594 135.360923 
L 106.249716 141.084115 
L 107.426839 150.238825 
L 108.603961 157.989243 
L 109.781084 153.240611 
L 110.958206 152.429634 
L 112.135329 149.808931 
L 113.312451 142.327421 
L 114.489574 128.487321 
L 115.666696 108.736041 
L 119.198064 58.083093 
L 120.375186 47.847917 
L 121.552309 46.24798 
L 122.729431 49.312766 
L 123.906553 60.713596 
L 125.083676 69.865254 
L 126.260798 103.585557 
L 129.792166 173.208308 
L 130.969288 183.071573 
L 132.146411 199.124767 
L 133.323533 204.400418 
L 134.500656 196.745175 
L 136.854901 171.285408 
L 138.032023 152.664544 
L 139.209146 142.51518 
L 140.386268 133.733087 
L 141.563391 118.324689 
L 142.740513 128.388562 
L 143.917636 131.168106 
L 145.094758 143.426548 
L 146.271881 160.663441 
L 147.449003 174.238657 
L 148.626126 182.935876 
L 149.803248 199.158998 
L 150.980371 193.914536 
L 152.157493 195.515277 
L 153.334616 196.391098 
L 154.511738 175.268759 
L 155.688861 160.134659 
L 158.043106 136.970194 
L 159.220228 128.153899 
L 160.397351 124.6178 
L 161.574473 133.767726 
L 162.751596 133.301304 
L 163.928718 146.788245 
L 166.282963 178.323677 
L 167.460086 188.911115 
L 168.637208 197.850722 
L 169.814331 202.929725 
L 170.991453 190.503363 
L 172.168576 179.970986 
L 173.345698 163.239609 
L 175.699943 110.968634 
L 176.877066 92.344934 
L 178.054188 66.839327 
L 179.231311 51.175654 
L 180.408433 40.715089 
L 181.585556 38.116697 
L 182.762678 32.470368 
L 183.939801 36.95183 
L 185.116923 46.524627 
L 186.294046 59.982341 
L 187.471168 80.310193 
L 188.648291 91.497277 
L 189.825413 104.976204 
L 191.002536 109.806105 
L 192.179658 114.020642 
L 193.356781 121.177974 
L 194.533903 122.272037 
L 195.711026 124.183741 
L 196.888148 121.692607 
L 198.065271 129.739906 
L 199.242393 124.857255 
L 200.419516 126.968026 
L 201.596638 120.796689 
L 202.773761 128.085777 
L 203.950883 122.088184 
L 205.128006 112.691516 
L 206.305128 100.356683 
L 207.482251 90.820371 
L 208.659373 71.068443 
L 209.836496 60.573723 
L 211.013618 41.368643 
L 212.190741 32.507193 
L 213.367863 36.484972 
L 214.544986 32.440043 
L 215.722108 31.426531 
L 216.89923 47.335669 
L 218.076353 59.478642 
L 220.430598 122.881767 
L 222.784843 173.174922 
L 223.961965 193.421732 
L 225.139088 203.762226 
L 226.31621 198.541432 
L 227.493333 188.138313 
L 229.847578 153.12027 
L 231.0247 129.603199 
L 232.201823 102.873288 
L 233.378945 81.662006 
L 234.556068 62.567434 
L 235.73319 50.766374 
L 236.910313 50.050966 
L 238.087435 57.225615 
L 239.264558 78.750714 
L 240.44168 90.956773 
L 241.618803 122.267776 
L 242.795925 148.563102 
L 243.973048 178.965861 
L 245.15017 197.840684 
L 246.327293 210.061212 
L 247.504415 224.234438 
L 248.681538 231.714725 
L 249.85866 233.664845 
L 251.035783 220.100721 
L 252.212905 219.690189 
L 253.390028 206.93206 
L 254.56715 197.607679 
L 255.744273 195.674724 
L 256.921395 197.519701 
L 258.098518 183.459767 
L 259.27564 194.198027 
L 260.452763 196.052683 
L 261.629885 189.522727 
L 262.807008 204.901942 
L 263.98413 201.567772 
L 265.161253 195.835295 
L 266.338375 195.393256 
L 267.515498 187.343797 
L 268.69262 189.189771 
L 269.869743 194.031429 
L 271.046865 189.702961 
L 272.223988 186.748253 
L 273.40111 204.652941 
L 275.755355 212.727535 
L 276.932478 225.90871 
L 278.1096 234.440721 
L 279.286723 232.736531 
L 280.463845 223.565735 
L 281.640968 212.542658 
L 282.81809 200.449592 
L 283.995213 165.425816 
L 285.172335 145.562979 
L 286.349458 122.753253 
L 287.52658 95.00713 
L 288.703703 73.505681 
L 289.880825 60.029059 
L 291.057948 40.446863 
L 292.23507 53.100252 
L 293.412193 62.884892 
L 294.589315 69.80023 
L 295.766438 100.201717 
L 298.120683 155.619201 
L 299.297805 175.880593 
L 300.474928 190.599426 
L 302.829173 201.064083 
L 304.006295 192.435925 
L 306.36054 147.79266 
L 307.537663 117.40461 
L 309.891908 68.240629 
L 311.06903 49.829495 
L 312.246152 35.391753 
L 313.423275 41.092748 
L 314.600397 31.069261 
L 315.77752 44.436563 
L 316.954642 60.766001 
L 318.131765 61.375295 
L 319.308887 75.847089 
L 320.48601 93.911208 
L 321.663132 98.110382 
L 322.840255 105.65909 
L 324.017377 108.585434 
L 325.1945 113.730125 
L 326.371622 116.836614 
L 327.548745 112.552635 
L 328.725867 120.26537 
L 329.90299 125.133014 
L 331.080112 133.440493 
L 332.257235 157.628121 
L 333.434357 165.54413 
L 334.61148 181.170501 
L 335.788602 185.304219 
L 336.965725 195.692513 
L 338.142847 204.604054 
L 339.31997 197.930447 
L 340.497092 183.229976 
L 342.851337 149.117624 
L 344.02846 129.860954 
L 345.205582 104.97447 
L 346.382705 89.799554 
L 348.73695 52.954807 
L 349.914072 49.803819 
L 351.091195 43.255515 
L 352.268317 39.210933 
L 353.44544 42.703935 
L 354.622562 54.290094 
L 355.799685 59.684499 
L 358.15393 83.056438 
L 359.331052 88.561666 
L 360.508175 102.209421 
L 361.685297 111.012322 
L 362.86242 116.832478 
L 364.039542 132.631652 
L 365.216665 134.774553 
L 366.393787 137.824199 
L 367.57091 136.718718 
L 368.748032 137.432868 
L 369.925155 143.010916 
L 371.102277 144.542184 
L 372.2794 142.461286 
L 373.456522 159.09033 
L 374.633645 168.85139 
L 375.810767 173.793023 
L 376.98789 185.606846 
L 378.165012 195.844769 
L 379.342135 209.171159 
L 380.519257 225.907456 
L 381.69638 227.510678 
L 382.873502 239.366335 
L 384.050625 232.871143 
L 385.227747 225.614968 
L 386.40487 225.620124 
L 387.581992 206.488404 
L 392.290482 103.071954 
L 394.644727 73.066538 
L 395.82185 72.999247 
L 396.998972 77.099969 
L 398.176095 91.359468 
L 399.353217 107.751957 
L 400.53034 137.446076 
L 401.707462 157.683258 
L 402.884585 190.08106 
L 404.061707 211.512541 
L 405.238829 216.785592 
L 406.415952 228.618677 
L 407.593074 224.260398 
L 408.770197 223.604103 
L 409.947319 217.617702 
L 411.124442 205.810211 
L 412.301564 184.237549 
L 413.478687 183.316548 
L 414.655809 178.860825 
L 417.010054 184.886286 
L 420.541422 211.306842 
L 421.718544 222.200759 
L 422.895667 217.603474 
L 424.072789 219.440787 
L 425.249912 214.215178 
L 426.427034 194.997868 
L 427.604157 179.121015 
L 428.781279 153.337569 
L 429.958402 133.801471 
L 431.135524 107.503142 
L 432.312647 84.523892 
L 433.489769 70.136221 
L 434.666892 59.407412 
L 435.844014 69.246097 
L 437.021137 76.627665 
L 438.198259 83.151499 
L 439.375382 97.391206 
L 440.552504 108.123335 
L 441.729627 128.845682 
L 442.906749 140.221476 
L 444.083872 158.930138 
L 445.260994 161.318764 
L 446.438117 172.290201 
L 447.615239 166.943495 
L 448.792362 177.33336 
L 449.969484 184.003185 
L 451.146607 184.376152 
L 452.323729 188.081514 
L 453.500852 179.843106 
L 454.677974 182.995309 
L 455.855097 180.117405 
L 457.032219 178.800009 
L 458.209342 166.146541 
L 459.386464 158.293396 
L 460.563587 148.349349 
L 461.740709 140.707939 
L 462.917832 126.643282 
L 464.094954 115.355868 
L 465.272077 98.338237 
L 466.449199 88.205463 
L 467.626322 77.097305 
L 468.803444 78.013243 
L 469.980567 70.048245 
L 471.157689 80.676029 
L 472.334812 83.366507 
L 474.689057 121.29416 
L 477.043302 158.611341 
L 478.220424 182.434237 
L 480.574669 211.316242 
L 481.751792 223.106922 
L 482.928914 227.151909 
L 484.106037 233.967027 
L 485.283159 226.322861 
L 486.460282 234.191989 
L 487.637404 214.18861 
L 488.814527 207.525062 
L 489.991649 192.625174 
L 491.168772 171.480042 
L 492.345894 146.636696 
L 493.523017 133.797575 
L 494.700139 111.728979 
L 495.877262 92.457202 
L 497.054384 86.092641 
L 498.231507 69.239611 
L 499.408629 66.721895 
L 500.585751 46.489668 
L 501.762874 52.7239 
L 502.939996 53.690932 
L 504.117119 63.000063 
L 505.294241 59.051862 
L 506.471364 67.652823 
L 507.648486 78.030064 
L 508.825609 81.654783 
L 510.002731 92.365114 
L 511.179854 92.903382 
L 512.356976 113.794269 
L 513.534099 116.301972 
L 514.711221 114.283568 
L 515.888344 118.160909 
L 517.065466 130.88229 
L 518.242589 134.691707 
L 519.419711 139.468122 
L 520.596834 148.56758 
L 521.773956 153.098547 
L 522.951079 163.845757 
L 524.128201 170.824805 
L 525.305324 181.737213 
L 526.482446 184.450042 
L 527.659569 195.577703 
L 528.836691 194.148845 
L 530.013814 203.823053 
L 531.190936 204.417211 
L 532.368059 195.891737 
L 533.545181 199.035023 
L 534.722304 201.052261 
L 535.899426 198.622503 
L 537.076549 197.439071 
L 538.253671 204.791006 
L 539.430794 213.567275 
L 540.607916 220.047166 
L 541.785039 208.692109 
L 542.962161 214.80185 
L 544.139284 207.552788 
L 545.316406 207.938141 
L 545.316406 207.938141 
" clip-path="url(#pcdd0e7ecd3)" style="fill: none; stroke: #ff7f0e; stroke-linecap: square"/>
   </g>
   <g id="patch_3">
    <path d="M 52.160938 250.421875 
L 52.160938 7.2 
" style="fill: none; stroke: #000000; stroke-width: 0.8; stroke-linejoin: miter; stroke-linecap: square"/>
   </g>
   <g id="patch_4">
    <path d="M 568.8 250.421875 
L 568.8 7.2 
" style="fill: none; stroke: #000000; stroke-width: 0.8; stroke-linejoin: miter; stroke-linecap: square"/>
   </g>
   <g id="patch_5">
    <path d="M 52.160937 250.421875 
L 568.8 250.421875 
" style="fill: none; stroke: #000000; stroke-width: 0.8; stroke-linejoin: miter; stroke-linecap: square"/>
   </g>
   <g id="patch_6">
    <path d="M 52.160937 7.2 
L 568.8 7.2 
" style="fill: none; stroke: #000000; stroke-width: 0.8; stroke-linejoin: miter; stroke-linecap: square"/>
   </g>
   <g id="legend_1">
    <g id="patch_7">
     <path d="M 504.804688 44.55625 
L 561.8 44.55625 
Q 563.8 44.55625 563.8 42.55625 
L 563.8 14.2 
Q 563.8 12.2 561.8 12.2 
L 504.804688 12.2 
Q 502.804688 12.2 502.804688 14.2 
L 502.804688 42.55625 
Q 502.804688 44.55625 504.804688 44.55625 
z
" style="fill: #ffffff; opacity: 0.8; stroke: #cccccc; stroke-linejoin: miter"/>
    </g>
    <g id="line2d_31">
     <path d="M 506.804688 20.298437 
L 516.804688 20.298437 
L 526.804688 20.298437 
" style="fill: none; stroke: #1f77b4; stroke-linecap: square"/>
    </g>
    <g id="text_17">
     <!-- real -->
     <g transform="translate(534.804688 23.798437) scale(0.1 -0.1)">
      <defs>
       <path id="DejaVuSans-72" d="M 2631 2963 
Q 2534 3019 2420 3045 
Q 2306 3072 2169 3072 
Q 1681 3072 1420 2755 
Q 1159 2438 1159 1844 
L 1159 0 
L 581 0 
L 581 3500 
L 1159 3500 
L 1159 2956 
Q 1341 3275 1631 3429 
Q 1922 3584 2338 3584 
Q 2397 3584 2469 3576 
Q 2541 3569 2628 3553 
L 2631 2963 
z
" transform="scale(0.015625)"/>
      </defs>
      <use xlink:href="#DejaVuSans-72"/>
      <use xlink:href="#DejaVuSans-65" transform="translate(38.863281 0)"/>
      <use xlink:href="#DejaVuSans-61" transform="translate(100.386719 0)"/>
      <use xlink:href="#DejaVuSans-6c" transform="translate(161.666016 0)"/>
     </g>
    </g>
    <g id="line2d_32">
     <path d="M 506.804688 34.976562 
L 516.804688 34.976562 
L 526.804688 34.976562 
" style="fill: none; stroke: #ff7f0e; stroke-linecap: square"/>
    </g>
    <g id="text_18">
     <!-- imag -->
     <g transform="translate(534.804688 38.476562) scale(0.1 -0.1)">
      <defs>
       <path id="DejaVuSans-67" d="M 2906 1791 
Q 2906 2416 2648 2759 
Q 2391 3103 1925 3103 
Q 1463 3103 1205 2759 
Q 947 2416 947 1791 
Q 947 1169 1205 825 
Q 1463 481 1925 481 
Q 2391 481 2648 825 
Q 2906 1169 2906 1791 
z
M 3481 434 
Q 3481 -459 3084 -895 
Q 2688 -1331 1869 -1331 
Q 1566 -1331 1297 -1286 
Q 1028 -1241 775 -1147 
L 775 -588 
Q 1028 -725 1275 -790 
Q 1522 -856 1778 -856 
Q 2344 -856 2625 -561 
Q 2906 -266 2906 331 
L 2906 616 
Q 2728 306 2450 153 
Q 2172 0 1784 0 
Q 1141 0 747 490 
Q 353 981 353 1791 
Q 353 2603 747 3093 
Q 1141 3584 1784 3584 
Q 2172 3584 2450 3431 
Q 2728 3278 2906 2969 
L 2906 3500 
L 3481 3500 
L 3481 434 
z
" transform="scale(0.015625)"/>
      </defs>
      <use xlink:href="#DejaVuSans-69"/>
      <use xlink:href="#DejaVuSans-6d" transform="translate(27.783203 0)"/>
      <use xlink:href="#DejaVuSans-61" transform="translate(125.195312 0)"/>
      <use xlink:href="#DejaVuSans-67" transform="translate(186.474609 0)"/>
     </g>
    </g>
   </g>
  </g>
 </g>
 <defs>
  <clipPath id="pcdd0e7ecd3">
   <rect x="52.160938" y="7.2" width="516.639063" height="243.221875"/>
  </clipPath>
 </defs>
</svg>
