<?xml version="1.0" encoding="utf-8" standalone="no"?>
<!DOCTYPE svg PUBLIC "-//W3C//DTD SVG 1.1//EN"
  "http://www.w3.org/Graphics/SVG/1.1/DTD/svg11.dtd">
<svg xmlns:xlink="http://www.w3.org/1999/xlink" width="576pt" height="288pt" viewBox="0 0 576 288" xmlns="http://www.w3.org/2000/svg" version="1.1">
 <metadata>
  <rdf:RDF xmlns:dc="http://purl.org/dc/elements/1.1/" xmlns:cc="http://creativecommons.org/ns#" xmlns:rdf="http://www.w3.org/1999/02/22-rdf-syntax-ns#">
   <cc:Work>
    <dc:type rdf:resource="http://purl.org/dc/dcmitype/StillImage"/>
    <dc:date>2026-05-03T17:46:42.499328</dc:date>
    <dc:format>image/svg+xml</dc:format>
    <dc:creator>
     <cc:Agent>
      <dc:title>Matplotlib v3.10.9, https://matplotlib.org/</dc:title>
     </cc:Agent>
    </dc:creator>
   </cc:Work>
  </rdf:RDF>
 </metadata>
 <defs>
  <style type="text/css">*{stroke-linejoin: round; stroke-linecap: butt}</style>
 </defs>
 <g id="figure_1">
  <g id="patch_1">
   <path d="M 0 288 
L 576 288 
L 576 0 
L 0 0 
z
" style="fill: #ffffff"/>
  </g>
  <g id="axes_1">
   <g id="patch_2">
    <path d="M 48.982813 250.421875 
L 568.8 250.421875 
L 568.8 22.32 
L 48.982813 22.32 
z
" style="fill: #ffffff"/>
   </g>
   <g id="matplotlib.axis_1">
    <g id="xtick_1">
     <g id="line2d_1">
      <path d="M 119.89006 250.421875 
L 119.89006 22.32 
" clip-path="url(#p82d965bd2f)" style="fill: none; stroke-dasharray: 2.96,1.28; stroke-dashoffset: 0; stroke: #b0b0b0; stroke-opacity: 0.8; stroke-width: 0.8"/>
     </g>
     <g id="line2d_2">
      <defs>
       <path id="m63b6f4f668" d="M 0 0 
L 0 3.5 
" style="stroke: #000000; stroke-width: 0.8"/>
      </defs>
      <g>
       <use xlink:href="#m63b6f4f668" x="119.89006" y="250.421875" style="stroke: #000000; stroke-width: 0.8"/>
      </g>
     </g>
     <g id="text_1">
      <!-- -200 -->
      <g transform="translate(108.542404 265.020312) scale(0.1 -0.1)">
       <defs>
        <path id="DejaVuSans-2d" d="M 313 2009 
L 1997 2009 
L 1997 1497 
L 313 1497 
L 313 2009 
z
" transform="scale(0.015625)"/>
        <path id="DejaVuSans-32" d="M 1228 531 
L 3431 531 
L 3431 0 
L 469 0 
L 469 531 
Q 828 903 1448 1529 
Q 2069 2156 2228 2338 
Q 2531 2678 2651 2914 
Q 2772 3150 2772 3378 
Q 2772 3750 2511 3984 
Q 2250 4219 1831 4219 
Q 1534 4219 1204 4116 
Q 875 4013 500 3803 
L 500 4441 
Q 881 4594 1212 4672 
Q 1544 4750 1819 4750 
Q 2544 4750 2975 4387 
Q 3406 4025 3406 3419 
Q 3406 3131 3298 2873 
Q 3191 2616 2906 2266 
Q 2828 2175 2409 1742 
Q 1991 1309 1228 531 
z
" transform="scale(0.015625)"/>
        <path id="DejaVuSans-30" d="M 2034 4250 
Q 1547 4250 1301 3770 
Q 1056 3291 1056 2328 
Q 1056 1369 1301 889 
Q 1547 409 2034 409 
Q 2525 409 2770 889 
Q 3016 1369 3016 2328 
Q 3016 3291 2770 3770 
Q 2525 4250 2034 4250 
z
M 2034 4750 
Q 2819 4750 3233 4129 
Q 3647 3509 3647 2328 
Q 3647 1150 3233 529 
Q 2819 -91 2034 -91 
Q 1250 -91 836 529 
Q 422 1150 422 2328 
Q 422 3509 836 4129 
Q 1250 4750 2034 4750 
z
" transform="scale(0.015625)"/>
       </defs>
       <use xlink:href="#DejaVuSans-2d"/>
       <use xlink:href="#DejaVuSans-32" transform="translate(36.083984 0)"/>
       <use xlink:href="#DejaVuSans-30" transform="translate(99.707031 0)"/>
       <use xlink:href="#DejaVuSans-30" transform="translate(163.330078 0)"/>
      </g>
     </g>
    </g>
    <g id="xtick_2">
     <g id="line2d_3">
      <path d="M 214.448447 250.421875 
L 214.448447 22.32 
" clip-path="url(#p82d965bd2f)" style="fill: none; stroke-dasharray: 2.96,1.28; stroke-dashoffset: 0; stroke: #b0b0b0; stroke-opacity: 0.8; stroke-width: 0.8"/>
     </g>
     <g id="line2d_4">
      <g>
       <use xlink:href="#m63b6f4f668" x="214.448447" y="250.421875" style="stroke: #000000; stroke-width: 0.8"/>
      </g>
     </g>
     <g id="text_2">
      <!-- -100 -->
      <g transform="translate(203.100791 265.020312) scale(0.1 -0.1)">
       <defs>
        <path id="DejaVuSans-31" d="M 794 531 
L 1825 531 
L 1825 4091 
L 703 3866 
L 703 4441 
L 1819 4666 
L 2450 4666 
L 2450 531 
L 3481 531 
L 3481 0 
L 794 0 
L 794 531 
z
" transform="scale(0.015625)"/>
       </defs>
       <use xlink:href="#DejaVuSans-2d"/>
       <use xlink:href="#DejaVuSans-31" transform="translate(36.083984 0)"/>
       <use xlink:href="#DejaVuSans-30" transform="translate(99.707031 0)"/>
       <use xlink:href="#DejaVuSans-30" transform="translate(163.330078 0)"/>
      </g>
     </g>
    </g>
    <g id="xtick_3">
     <g id="line2d_5">
      <path d="M 309.006834 250.421875 
L 309.006834 22.32 
" clip-path="url(#p82d965bd2f)" style="fill: none; stroke-dasharray: 2.96,1.28; stroke-dashoffset: 0; stroke: #b0b0b0; stroke-opacity: 0.8; stroke-width: 0.8"/>
     </g>
     <g id="line2d_6">
      <g>
       <use xlink:href="#m63b6f4f668" x="309.006834" y="250.421875" style="stroke: #000000; stroke-width: 0.8"/>
      </g>
     </g>
     <g id="text_3">
      <!-- 0 -->
      <g transform="translate(305.825584 265.020312) scale(0.1 -0.1)">
       <use xlink:href="#DejaVuSans-30"/>
      </g>
     </g>
    </g>
    <g id="xtick_4">
     <g id="line2d_7">
      <path d="M 403.565221 250.421875 
L 403.565221 22.32 
" clip-path="url(#p82d965bd2f)" style="fill: none; stroke-dasharray: 2.96,1.28; stroke-dashoffset: 0; stroke: #b0b0b0; stroke-opacity: 0.8; stroke-width: 0.8"/>
     </g>
     <g id="line2d_8">
      <g>
       <use xlink:href="#m63b6f4f668" x="403.565221" y="250.421875" style="stroke: #000000; stroke-width: 0.8"/>
      </g>
     </g>
     <g id="text_4">
      <!-- 100 -->
      <g transform="translate(394.021471 265.020312) scale(0.1 -0.1)">
       <use xlink:href="#DejaVuSans-31"/>
       <use xlink:href="#DejaVuSans-30" transform="translate(63.623047 0)"/>
       <use xlink:href="#DejaVuSans-30" transform="translate(127.246094 0)"/>
      </g>
     </g>
    </g>
    <g id="xtick_5">
     <g id="line2d_9">
      <path d="M 498.123608 250.421875 
L 498.123608 22.32 
" clip-path="url(#p82d965bd2f)" style="fill: none; stroke-dasharray: 2.96,1.28; stroke-dashoffset: 0; stroke: #b0b0b0; stroke-opacity: 0.8; stroke-width: 0.8"/>
     </g>
     <g id="line2d_10">
      <g>
       <use xlink:href="#m63b6f4f668" x="498.123608" y="250.421875" style="stroke: #000000; stroke-width: 0.8"/>
      </g>
     </g>
     <g id="text_5">
      <!-- 200 -->
      <g transform="translate(488.579858 265.020312) scale(0.1 -0.1)">
       <use xlink:href="#DejaVuSans-32"/>
       <use xlink:href="#DejaVuSans-30" transform="translate(63.623047 0)"/>
       <use xlink:href="#DejaVuSans-30" transform="translate(127.246094 0)"/>
      </g>
     </g>
    </g>
    <g id="text_6">
     <!-- Frequency (Hz), $f$ -->
     <g transform="translate(265.741406 278.7) scale(0.1 -0.1)">
      <defs>
       <path id="DejaVuSans-46" d="M 628 4666 
L 3309 4666 
L 3309 4134 
L 1259 4134 
L 1259 2759 
L 3109 2759 
L 3109 2228 
L 1259 2228 
L 1259 0 
L 628 0 
L 628 4666 
z
" transform="scale(0.015625)"/>
       <path id="DejaVuSans-72" d="M 2631 2963 
Q 2534 3019 2420 3045 
Q 2306 3072 2169 3072 
Q 1681 3072 1420 2755 
Q 1159 2438 1159 1844 
L 1159 0 
L 581 0 
L 581 3500 
L 1159 3500 
L 1159 2956 
Q 1341 3275 1631 3429 
Q 1922 3584 2338 3584 
Q 2397 3584 2469 3576 
Q 2541 3569 2628 3553 
L 2631 2963 
z
" transform="scale(0.015625)"/>
       <path id="DejaVuSans-65" d="M 3597 1894 
L 3597 1613 
L 953 1613 
Q 991 1019 1311 708 
Q 1631 397 2203 397 
Q 2534 397 2845 478 
Q 3156 559 3463 722 
L 3463 178 
Q 3153 47 2828 -22 
Q 2503 -91 2169 -91 
Q 1331 -91 842 396 
Q 353 884 353 1716 
Q 353 2575 817 3079 
Q 1281 3584 2069 3584 
Q 2775 3584 3186 3129 
Q 3597 2675 3597 1894 
z
M 3022 2063 
Q 3016 2534 2758 2815 
Q 2500 3097 2075 3097 
Q 1594 3097 1305 2825 
Q 1016 2553 972 2059 
L 3022 2063 
z
" transform="scale(0.015625)"/>
       <path id="DejaVuSans-71" d="M 947 1747 
Q 947 1113 1208 752 
Q 1469 391 1925 391 
Q 2381 391 2643 752 
Q 2906 1113 2906 1747 
Q 2906 2381 2643 2742 
Q 2381 3103 1925 3103 
Q 1469 3103 1208 2742 
Q 947 2381 947 1747 
z
M 2906 525 
Q 2725 213 2448 61 
Q 2172 -91 1784 -91 
Q 1150 -91 751 415 
Q 353 922 353 1747 
Q 353 2572 751 3078 
Q 1150 3584 1784 3584 
Q 2172 3584 2448 3432 
Q 2725 3281 2906 2969 
L 2906 3500 
L 3481 3500 
L 3481 -1331 
L 2906 -1331 
L 2906 525 
z
" transform="scale(0.015625)"/>
       <path id="DejaVuSans-75" d="M 544 1381 
L 544 3500 
L 1119 3500 
L 1119 1403 
Q 1119 906 1312 657 
Q 1506 409 1894 409 
Q 2359 409 2629 706 
Q 2900 1003 2900 1516 
L 2900 3500 
L 3475 3500 
L 3475 0 
L 2900 0 
L 2900 538 
Q 2691 219 2414 64 
Q 2138 -91 1772 -91 
Q 1169 -91 856 284 
Q 544 659 544 1381 
z
M 1991 3584 
L 1991 3584 
z
" transform="scale(0.015625)"/>
       <path id="DejaVuSans-6e" d="M 3513 2113 
L 3513 0 
L 2938 0 
L 2938 2094 
Q 2938 2591 2744 2837 
Q 2550 3084 2163 3084 
Q 1697 3084 1428 2787 
Q 1159 2491 1159 1978 
L 1159 0 
L 581 0 
L 581 3500 
L 1159 3500 
L 1159 2956 
Q 1366 3272 1645 3428 
Q 1925 3584 2291 3584 
Q 2894 3584 3203 3211 
Q 3513 2838 3513 2113 
z
" transform="scale(0.015625)"/>
       <path id="DejaVuSans-63" d="M 3122 3366 
L 3122 2828 
Q 2878 2963 2633 3030 
Q 2388 3097 2138 3097 
Q 1578 3097 1268 2742 
Q 959 2388 959 1747 
Q 959 1106 1268 751 
Q 1578 397 2138 397 
Q 2388 397 2633 464 
Q 2878 531 3122 666 
L 3122 134 
Q 2881 22 2623 -34 
Q 2366 -91 2075 -91 
Q 1284 -91 818 406 
Q 353 903 353 1747 
Q 353 2603 823 3093 
Q 1294 3584 2113 3584 
Q 2378 3584 2631 3529 
Q 2884 3475 3122 3366 
z
" transform="scale(0.015625)"/>
       <path id="DejaVuSans-79" d="M 2059 -325 
Q 1816 -950 1584 -1140 
Q 1353 -1331 966 -1331 
L 506 -1331 
L 506 -850 
L 844 -850 
Q 1081 -850 1212 -737 
Q 1344 -625 1503 -206 
L 1606 56 
L 191 3500 
L 800 3500 
L 1894 763 
L 2988 3500 
L 3597 3500 
L 2059 -325 
z
" transform="scale(0.015625)"/>
       <path id="DejaVuSans-20" transform="scale(0.015625)"/>
       <path id="DejaVuSans-28" d="M 1984 4856 
Q 1566 4138 1362 3434 
Q 1159 2731 1159 2009 
Q 1159 1288 1364 580 
Q 1569 -128 1984 -844 
L 1484 -844 
Q 1016 -109 783 600 
Q 550 1309 550 2009 
Q 550 2706 781 3412 
Q 1013 4119 1484 4856 
L 1984 4856 
z
" transform="scale(0.015625)"/>
       <path id="DejaVuSans-48" d="M 628 4666 
L 1259 4666 
L 1259 2753 
L 3553 2753 
L 3553 4666 
L 4184 4666 
L 4184 0 
L 3553 0 
L 3553 2222 
L 1259 2222 
L 1259 0 
L 628 0 
L 628 4666 
z
" transform="scale(0.015625)"/>
       <path id="DejaVuSans-7a" d="M 353 3500 
L 3084 3500 
L 3084 2975 
L 922 459 
L 3084 459 
L 3084 0 
L 275 0 
L 275 525 
L 2438 3041 
L 353 3041 
L 353 3500 
z
" transform="scale(0.015625)"/>
       <path id="DejaVuSans-29" d="M 513 4856 
L 1013 4856 
Q 1481 4119 1714 3412 
Q 1947 2706 1947 2009 
Q 1947 1309 1714 600 
Q 1481 -109 1013 -844 
L 513 -844 
Q 928 -128 1133 580 
Q 1338 1288 1338 2009 
Q 1338 2731 1133 3434 
Q 928 4138 513 4856 
z
" transform="scale(0.015625)"/>
       <path id="DejaVuSans-2c" d="M 750 794 
L 1409 794 
L 1409 256 
L 897 -744 
L 494 -744 
L 750 256 
L 750 794 
z
" transform="scale(0.015625)"/>
       <path id="DejaVuSans-Oblique-66" d="M 3059 4863 
L 2969 4384 
L 2419 4384 
Q 2106 4384 1964 4261 
Q 1822 4138 1753 3809 
L 1691 3500 
L 2638 3500 
L 2553 3053 
L 1606 3053 
L 1013 0 
L 434 0 
L 1031 3053 
L 481 3053 
L 563 3500 
L 1113 3500 
L 1159 3744 
Q 1278 4363 1576 4613 
Q 1875 4863 2516 4863 
L 3059 4863 
z
" transform="scale(0.015625)"/>
      </defs>
      <use xlink:href="#DejaVuSans-46" transform="translate(0 0.015625)"/>
      <use xlink:href="#DejaVuSans-72" transform="translate(57.519531 0.015625)"/>
      <use xlink:href="#DejaVuSans-65" transform="translate(98.632812 0.015625)"/>
      <use xlink:href="#DejaVuSans-71" transform="translate(160.15625 0.015625)"/>
      <use xlink:href="#DejaVuSans-75" transform="translate(223.632812 0.015625)"/>
      <use xlink:href="#DejaVuSans-65" transform="translate(287.011719 0.015625)"/>
      <use xlink:href="#DejaVuSans-6e" transform="translate(348.535156 0.015625)"/>
      <use xlink:href="#DejaVuSans-63" transform="translate(411.914062 0.015625)"/>
      <use xlink:href="#DejaVuSans-79" transform="translate(466.894531 0.015625)"/>
      <use xlink:href="#DejaVuSans-20" transform="translate(526.074219 0.015625)"/>
      <use xlink:href="#DejaVuSans-28" transform="translate(557.861328 0.015625)"/>
      <use xlink:href="#DejaVuSans-48" transform="translate(596.875 0.015625)"/>
      <use xlink:href="#DejaVuSans-7a" transform="translate(672.070312 0.015625)"/>
      <use xlink:href="#DejaVuSans-29" transform="translate(724.560547 0.015625)"/>
      <use xlink:href="#DejaVuSans-2c" transform="translate(763.574219 0.015625)"/>
      <use xlink:href="#DejaVuSans-20" transform="translate(795.361328 0.015625)"/>
      <use xlink:href="#DejaVuSans-Oblique-66" transform="translate(827.148438 0.015625)"/>
     </g>
    </g>
   </g>
   <g id="matplotlib.axis_2">
    <g id="ytick_1">
     <g id="line2d_11">
      <path d="M 48.982813 228.317713 
L 568.8 228.317713 
" clip-path="url(#p82d965bd2f)" style="fill: none; stroke-dasharray: 2.96,1.28; stroke-dashoffset: 0; stroke: #b0b0b0; stroke-opacity: 0.8; stroke-width: 0.8"/>
     </g>
     <g id="line2d_12">
      <defs>
       <path id="m5ec7ea74b9" d="M 0 0 
L -3.5 0 
" style="stroke: #000000; stroke-width: 0.8"/>
      </defs>
      <g>
       <use xlink:href="#m5ec7ea74b9" x="48.982813" y="228.317713" style="stroke: #000000; stroke-width: 0.8"/>
      </g>
     </g>
     <g id="text_7">
      <!-- −60 -->
      <g transform="translate(20.878125 232.116932) scale(0.1 -0.1)">
       <defs>
        <path id="DejaVuSans-2212" d="M 678 2272 
L 4684 2272 
L 4684 1741 
L 678 1741 
L 678 2272 
z
" transform="scale(0.015625)"/>
        <path id="DejaVuSans-36" d="M 2113 2584 
Q 1688 2584 1439 2293 
Q 1191 2003 1191 1497 
Q 1191 994 1439 701 
Q 1688 409 2113 409 
Q 2538 409 2786 701 
Q 3034 994 3034 1497 
Q 3034 2003 2786 2293 
Q 2538 2584 2113 2584 
z
M 3366 4563 
L 3366 3988 
Q 3128 4100 2886 4159 
Q 2644 4219 2406 4219 
Q 1781 4219 1451 3797 
Q 1122 3375 1075 2522 
Q 1259 2794 1537 2939 
Q 1816 3084 2150 3084 
Q 2853 3084 3261 2657 
Q 3669 2231 3669 1497 
Q 3669 778 3244 343 
Q 2819 -91 2113 -91 
Q 1303 -91 875 529 
Q 447 1150 447 2328 
Q 447 3434 972 4092 
Q 1497 4750 2381 4750 
Q 2619 4750 2861 4703 
Q 3103 4656 3366 4563 
z
" transform="scale(0.015625)"/>
       </defs>
       <use xlink:href="#DejaVuSans-2212"/>
       <use xlink:href="#DejaVuSans-36" transform="translate(83.789062 0)"/>
       <use xlink:href="#DejaVuSans-30" transform="translate(147.412109 0)"/>
      </g>
     </g>
    </g>
    <g id="ytick_2">
     <g id="line2d_13">
      <path d="M 48.982813 192.969753 
L 568.8 192.969753 
" clip-path="url(#p82d965bd2f)" style="fill: none; stroke-dasharray: 2.96,1.28; stroke-dashoffset: 0; stroke: #b0b0b0; stroke-opacity: 0.8; stroke-width: 0.8"/>
     </g>
     <g id="line2d_14">
      <g>
       <use xlink:href="#m5ec7ea74b9" x="48.982813" y="192.969753" style="stroke: #000000; stroke-width: 0.8"/>
      </g>
     </g>
     <g id="text_8">
      <!-- −50 -->
      <g transform="translate(20.878125 196.768972) scale(0.1 -0.1)">
       <defs>
        <path id="DejaVuSans-35" d="M 691 4666 
L 3169 4666 
L 3169 4134 
L 1269 4134 
L 1269 2991 
Q 1406 3038 1543 3061 
Q 1681 3084 1819 3084 
Q 2600 3084 3056 2656 
Q 3513 2228 3513 1497 
Q 3513 744 3044 326 
Q 2575 -91 1722 -91 
Q 1428 -91 1123 -41 
Q 819 9 494 109 
L 494 744 
Q 775 591 1075 516 
Q 1375 441 1709 441 
Q 2250 441 2565 725 
Q 2881 1009 2881 1497 
Q 2881 1984 2565 2268 
Q 2250 2553 1709 2553 
Q 1456 2553 1204 2497 
Q 953 2441 691 2322 
L 691 4666 
z
" transform="scale(0.015625)"/>
       </defs>
       <use xlink:href="#DejaVuSans-2212"/>
       <use xlink:href="#DejaVuSans-35" transform="translate(83.789062 0)"/>
       <use xlink:href="#DejaVuSans-30" transform="translate(147.412109 0)"/>
      </g>
     </g>
    </g>
    <g id="ytick_3">
     <g id="line2d_15">
      <path d="M 48.982813 157.621793 
L 568.8 157.621793 
" clip-path="url(#p82d965bd2f)" style="fill: none; stroke-dasharray: 2.96,1.28; stroke-dashoffset: 0; stroke: #b0b0b0; stroke-opacity: 0.8; stroke-width: 0.8"/>
     </g>
     <g id="line2d_16">
      <g>
       <use xlink:href="#m5ec7ea74b9" x="48.982813" y="157.621793" style="stroke: #000000; stroke-width: 0.8"/>
      </g>
     </g>
     <g id="text_9">
      <!-- −40 -->
      <g transform="translate(20.878125 161.421012) scale(0.1 -0.1)">
       <defs>
        <path id="DejaVuSans-34" d="M 2419 4116 
L 825 1625 
L 2419 1625 
L 2419 4116 
z
M 2253 4666 
L 3047 4666 
L 3047 1625 
L 3713 1625 
L 3713 1100 
L 3047 1100 
L 3047 0 
L 2419 0 
L 2419 1100 
L 313 1100 
L 313 1709 
L 2253 4666 
z
" transform="scale(0.015625)"/>
       </defs>
       <use xlink:href="#DejaVuSans-2212"/>
       <use xlink:href="#DejaVuSans-34" transform="translate(83.789062 0)"/>
       <use xlink:href="#DejaVuSans-30" transform="translate(147.412109 0)"/>
      </g>
     </g>
    </g>
    <g id="ytick_4">
     <g id="line2d_17">
      <path d="M 48.982813 122.273834 
L 568.8 122.273834 
" clip-path="url(#p82d965bd2f)" style="fill: none; stroke-dasharray: 2.96,1.28; stroke-dashoffset: 0; stroke: #b0b0b0; stroke-opacity: 0.8; stroke-width: 0.8"/>
     </g>
     <g id="line2d_18">
      <g>
       <use xlink:href="#m5ec7ea74b9" x="48.982813" y="122.273834" style="stroke: #000000; stroke-width: 0.8"/>
      </g>
     </g>
     <g id="text_10">
      <!-- −30 -->
      <g transform="translate(20.878125 126.073052) scale(0.1 -0.1)">
       <defs>
        <path id="DejaVuSans-33" d="M 2597 2516 
Q 3050 2419 3304 2112 
Q 3559 1806 3559 1356 
Q 3559 666 3084 287 
Q 2609 -91 1734 -91 
Q 1441 -91 1130 -33 
Q 819 25 488 141 
L 488 750 
Q 750 597 1062 519 
Q 1375 441 1716 441 
Q 2309 441 2620 675 
Q 2931 909 2931 1356 
Q 2931 1769 2642 2001 
Q 2353 2234 1838 2234 
L 1294 2234 
L 1294 2753 
L 1863 2753 
Q 2328 2753 2575 2939 
Q 2822 3125 2822 3475 
Q 2822 3834 2567 4026 
Q 2313 4219 1838 4219 
Q 1578 4219 1281 4162 
Q 984 4106 628 3988 
L 628 4550 
Q 988 4650 1302 4700 
Q 1616 4750 1894 4750 
Q 2613 4750 3031 4423 
Q 3450 4097 3450 3541 
Q 3450 3153 3228 2886 
Q 3006 2619 2597 2516 
z
" transform="scale(0.015625)"/>
       </defs>
       <use xlink:href="#DejaVuSans-2212"/>
       <use xlink:href="#DejaVuSans-33" transform="translate(83.789062 0)"/>
       <use xlink:href="#DejaVuSans-30" transform="translate(147.412109 0)"/>
      </g>
     </g>
    </g>
    <g id="ytick_5">
     <g id="line2d_19">
      <path d="M 48.982813 86.925874 
L 568.8 86.925874 
" clip-path="url(#p82d965bd2f)" style="fill: none; stroke-dasharray: 2.96,1.28; stroke-dashoffset: 0; stroke: #b0b0b0; stroke-opacity: 0.8; stroke-width: 0.8"/>
     </g>
     <g id="line2d_20">
      <g>
       <use xlink:href="#m5ec7ea74b9" x="48.982813" y="86.925874" style="stroke: #000000; stroke-width: 0.8"/>
      </g>
     </g>
     <g id="text_11">
      <!-- −20 -->
      <g transform="translate(20.878125 90.725093) scale(0.1 -0.1)">
       <use xlink:href="#DejaVuSans-2212"/>
       <use xlink:href="#DejaVuSans-32" transform="translate(83.789062 0)"/>
       <use xlink:href="#DejaVuSans-30" transform="translate(147.412109 0)"/>
      </g>
     </g>
    </g>
    <g id="ytick_6">
     <g id="line2d_21">
      <path d="M 48.982813 51.577914 
L 568.8 51.577914 
" clip-path="url(#p82d965bd2f)" style="fill: none; stroke-dasharray: 2.96,1.28; stroke-dashoffset: 0; stroke: #b0b0b0; stroke-opacity: 0.8; stroke-width: 0.8"/>
     </g>
     <g id="line2d_22">
      <g>
       <use xlink:href="#m5ec7ea74b9" x="48.982813" y="51.577914" style="stroke: #000000; stroke-width: 0.8"/>
      </g>
     </g>
     <g id="text_12">
      <!-- −10 -->
      <g transform="translate(20.878125 55.377133) scale(0.1 -0.1)">
       <use xlink:href="#DejaVuSans-2212"/>
       <use xlink:href="#DejaVuSans-31" transform="translate(83.789062 0)"/>
       <use xlink:href="#DejaVuSans-30" transform="translate(147.412109 0)"/>
      </g>
     </g>
    </g>
    <g id="text_13">
     <!-- Power density (dB/Hz) -->
     <g transform="translate(14.798437 191.570938) rotate(-90) scale(0.1 -0.1)">
      <defs>
       <path id="DejaVuSans-50" d="M 1259 4147 
L 1259 2394 
L 2053 2394 
Q 2494 2394 2734 2622 
Q 2975 2850 2975 3272 
Q 2975 3691 2734 3919 
Q 2494 4147 2053 4147 
L 1259 4147 
z
M 628 4666 
L 2053 4666 
Q 2838 4666 3239 4311 
Q 3641 3956 3641 3272 
Q 3641 2581 3239 2228 
Q 2838 1875 2053 1875 
L 1259 1875 
L 1259 0 
L 628 0 
L 628 4666 
z
" transform="scale(0.015625)"/>
       <path id="DejaVuSans-6f" d="M 1959 3097 
Q 1497 3097 1228 2736 
Q 959 2375 959 1747 
Q 959 1119 1226 758 
Q 1494 397 1959 397 
Q 2419 397 2687 759 
Q 2956 1122 2956 1747 
Q 2956 2369 2687 2733 
Q 2419 3097 1959 3097 
z
M 1959 3584 
Q 2709 3584 3137 3096 
Q 3566 2609 3566 1747 
Q 3566 888 3137 398 
Q 2709 -91 1959 -91 
Q 1206 -91 779 398 
Q 353 888 353 1747 
Q 353 2609 779 3096 
Q 1206 3584 1959 3584 
z
" transform="scale(0.015625)"/>
       <path id="DejaVuSans-77" d="M 269 3500 
L 844 3500 
L 1563 769 
L 2278 3500 
L 2956 3500 
L 3675 769 
L 4391 3500 
L 4966 3500 
L 4050 0 
L 3372 0 
L 2619 2869 
L 1863 0 
L 1184 0 
L 269 3500 
z
" transform="scale(0.015625)"/>
       <path id="DejaVuSans-64" d="M 2906 2969 
L 2906 4863 
L 3481 4863 
L 3481 0 
L 2906 0 
L 2906 525 
Q 2725 213 2448 61 
Q 2172 -91 1784 -91 
Q 1150 -91 751 415 
Q 353 922 353 1747 
Q 353 2572 751 3078 
Q 1150 3584 1784 3584 
Q 2172 3584 2448 3432 
Q 2725 3281 2906 2969 
z
M 947 1747 
Q 947 1113 1208 752 
Q 1469 391 1925 391 
Q 2381 391 2643 752 
Q 2906 1113 2906 1747 
Q 2906 2381 2643 2742 
Q 2381 3103 1925 3103 
Q 1469 3103 1208 2742 
Q 947 2381 947 1747 
z
" transform="scale(0.015625)"/>
       <path id="DejaVuSans-73" d="M 2834 3397 
L 2834 2853 
Q 2591 2978 2328 3040 
Q 2066 3103 1784 3103 
Q 1356 3103 1142 2972 
Q 928 2841 928 2578 
Q 928 2378 1081 2264 
Q 1234 2150 1697 2047 
L 1894 2003 
Q 2506 1872 2764 1633 
Q 3022 1394 3022 966 
Q 3022 478 2636 193 
Q 2250 -91 1575 -91 
Q 1294 -91 989 -36 
Q 684 19 347 128 
L 347 722 
Q 666 556 975 473 
Q 1284 391 1588 391 
Q 1994 391 2212 530 
Q 2431 669 2431 922 
Q 2431 1156 2273 1281 
Q 2116 1406 1581 1522 
L 1381 1569 
Q 847 1681 609 1914 
Q 372 2147 372 2553 
Q 372 3047 722 3315 
Q 1072 3584 1716 3584 
Q 2034 3584 2315 3537 
Q 2597 3491 2834 3397 
z
" transform="scale(0.015625)"/>
       <path id="DejaVuSans-69" d="M 603 3500 
L 1178 3500 
L 1178 0 
L 603 0 
L 603 3500 
z
M 603 4863 
L 1178 4863 
L 1178 4134 
L 603 4134 
L 603 4863 
z
" transform="scale(0.015625)"/>
       <path id="DejaVuSans-74" d="M 1172 4494 
L 1172 3500 
L 2356 3500 
L 2356 3053 
L 1172 3053 
L 1172 1153 
Q 1172 725 1289 603 
Q 1406 481 1766 481 
L 2356 481 
L 2356 0 
L 1766 0 
Q 1100 0 847 248 
Q 594 497 594 1153 
L 594 3053 
L 172 3053 
L 172 3500 
L 594 3500 
L 594 4494 
L 1172 4494 
z
" transform="scale(0.015625)"/>
       <path id="DejaVuSans-42" d="M 1259 2228 
L 1259 519 
L 2272 519 
Q 2781 519 3026 730 
Q 3272 941 3272 1375 
Q 3272 1813 3026 2020 
Q 2781 2228 2272 2228 
L 1259 2228 
z
M 1259 4147 
L 1259 2741 
L 2194 2741 
Q 2656 2741 2882 2914 
Q 3109 3088 3109 3444 
Q 3109 3797 2882 3972 
Q 2656 4147 2194 4147 
L 1259 4147 
z
M 628 4666 
L 2241 4666 
Q 2963 4666 3353 4366 
Q 3744 4066 3744 3513 
Q 3744 3084 3544 2831 
Q 3344 2578 2956 2516 
Q 3422 2416 3680 2098 
Q 3938 1781 3938 1306 
Q 3938 681 3513 340 
Q 3088 0 2303 0 
L 628 0 
L 628 4666 
z
" transform="scale(0.015625)"/>
       <path id="DejaVuSans-2f" d="M 1625 4666 
L 2156 4666 
L 531 -594 
L 0 -594 
L 1625 4666 
z
" transform="scale(0.015625)"/>
      </defs>
      <use xlink:href="#DejaVuSans-50"/>
      <use xlink:href="#DejaVuSans-6f" transform="translate(56.677734 0)"/>
      <use xlink:href="#DejaVuSans-77" transform="translate(117.859375 0)"/>
      <use xlink:href="#DejaVuSans-65" transform="translate(199.646484 0)"/>
      <use xlink:href="#DejaVuSans-72" transform="translate(261.169922 0)"/>
      <use xlink:href="#DejaVuSans-20" transform="translate(302.283203 0)"/>
      <use xlink:href="#DejaVuSans-64" transform="translate(334.070312 0)"/>
      <use xlink:href="#DejaVuSans-65" transform="translate(397.546875 0)"/>
      <use xlink:href="#DejaVuSans-6e" transform="translate(459.070312 0)"/>
      <use xlink:href="#DejaVuSans-73" transform="translate(522.449219 0)"/>
      <use xlink:href="#DejaVuSans-69" transform="translate(574.548828 0)"/>
      <use xlink:href="#DejaVuSans-74" transform="translate(602.332031 0)"/>
      <use xlink:href="#DejaVuSans-79" transform="translate(641.541016 0)"/>
      <use xlink:href="#DejaVuSans-20" transform="translate(700.720703 0)"/>
      <use xlink:href="#DejaVuSans-28" transform="translate(732.507812 0)"/>
      <use xlink:href="#DejaVuSans-64" transform="translate(771.521484 0)"/>
      <use xlink:href="#DejaVuSans-42" transform="translate(834.998047 0)"/>
      <use xlink:href="#DejaVuSans-2f" transform="translate(903.601562 0)"/>
      <use xlink:href="#DejaVuSans-48" transform="translate(937.292969 0)"/>
      <use xlink:href="#DejaVuSans-7a" transform="translate(1012.488281 0)"/>
      <use xlink:href="#DejaVuSans-29" transform="translate(1064.978516 0)"/>
     </g>
    </g>
   </g>
   <g id="line2d_23">
    <path d="M 72.610866 222.502395 
L 73.534288 225.893388 
L 73.765144 226.255456 
L 73.995999 226.199605 
L 74.226855 225.710168 
L 74.688565 223.765513 
L 75.381132 220.470986 
L 75.842843 219.212719 
L 76.073698 218.997574 
L 76.304553 219.062071 
L 76.535409 219.384776 
L 76.99712 220.619217 
L 77.689686 222.694143 
L 77.920542 223.021206 
L 78.151397 223.024382 
L 78.382252 222.687507 
L 78.843963 221.200245 
L 79.767385 217.513809 
L 80.229096 216.378313 
L 80.459951 216.081154 
L 80.690807 215.967234 
L 80.921662 216.029996 
L 81.383373 216.63147 
L 82.075939 218.34661 
L 82.768506 220.029556 
L 83.230217 220.562741 
L 83.691927 220.603333 
L 85.307916 220.04042 
L 85.769626 219.252306 
L 86.462193 217.690706 
L 86.693048 217.393745 
L 86.923904 217.329575 
L 87.154759 217.523081 
L 87.61647 218.517269 
L 88.078181 219.405254 
L 88.309036 219.308175 
L 88.539892 218.663277 
L 89.001603 216.016737 
L 89.694169 211.891114 
L 89.925024 211.231447 
L 90.15588 211.105225 
L 90.386735 211.561871 
L 90.617591 212.623827 
L 91.079301 216.482836 
L 92.002723 225.656508 
L 92.233579 225.85301 
L 92.464434 224.86286 
L 93.387856 218.514372 
L 93.618711 217.880882 
L 93.849567 217.82034 
L 94.080422 218.318723 
L 94.542133 220.769464 
L 95.465555 227.434527 
L 95.69641 228.20783 
L 95.927266 228.376759 
L 96.158121 228.07065 
L 96.850687 226.429154 
L 97.081543 226.136917 
L 97.543254 226.048181 
L 97.774109 226.072335 
L 98.004965 225.973009 
L 98.23582 225.637869 
L 98.697531 224.11124 
L 100.313519 216.698153 
L 101.467796 213.045228 
L 102.160362 211.52897 
L 102.852929 210.145594 
L 103.545495 207.969374 
L 104.238061 205.704584 
L 104.468917 205.272904 
L 104.699772 205.109747 
L 104.930628 205.251196 
L 105.161483 205.709963 
L 105.623194 207.492579 
L 106.546616 211.953825 
L 106.777471 212.411676 
L 107.008327 212.395808 
L 107.239182 211.943428 
L 107.700893 210.219812 
L 108.393459 207.525133 
L 108.85517 206.506288 
L 109.086026 206.294491 
L 109.316881 206.274157 
L 109.547736 206.427515 
L 110.009447 207.136285 
L 110.932869 208.892716 
L 111.39458 209.313923 
L 112.087146 209.675055 
L 112.548857 210.382789 
L 113.010568 211.793412 
L 114.395701 217.367636 
L 114.857411 218.234822 
L 115.549978 219.26096 
L 116.011689 220.62228 
L 116.4734 222.921958 
L 118.089388 232.749401 
L 118.320243 232.666677 
L 118.551098 232.019882 
L 119.012809 229.548874 
L 120.167086 221.036165 
L 120.859653 216.384772 
L 121.321364 214.325783 
L 121.552219 213.735042 
L 121.783075 213.463993 
L 122.01393 213.514068 
L 122.244785 213.869676 
L 122.706496 215.334774 
L 123.629918 218.827699 
L 123.860773 219.144587 
L 124.091629 219.084537 
L 124.322484 218.674147 
L 125.015051 216.339669 
L 125.476762 214.988443 
L 125.707617 214.610107 
L 125.938472 214.470294 
L 126.169328 214.562928 
L 126.631039 215.260569 
L 127.09275 215.995622 
L 127.323605 216.052351 
L 127.55446 215.756429 
L 128.016171 214.073038 
L 129.170449 208.577825 
L 129.401304 208.122715 
L 129.632159 208.00614 
L 129.863015 208.236766 
L 130.09387 208.806975 
L 130.555581 210.857957 
L 131.479003 216.990874 
L 132.402425 222.356536 
L 133.556702 227.658256 
L 134.018413 228.90472 
L 134.249268 229.046387 
L 134.480124 228.846019 
L 134.941834 227.69722 
L 135.865256 225.044113 
L 136.326967 224.303292 
L 137.250389 223.205131 
L 137.7121 222.101481 
L 138.404666 219.417103 
L 139.097232 216.609025 
L 139.558943 215.421008 
L 139.789799 215.121389 
L 140.020654 215.015358 
L 140.25151 215.077936 
L 140.71322 215.530929 
L 141.174931 216.039653 
L 141.636642 216.209732 
L 142.098353 215.918158 
L 142.790919 214.914769 
L 143.945197 212.668856 
L 144.637763 211.331327 
L 145.099474 210.800072 
L 145.330329 210.730785 
L 145.561185 210.826496 
L 145.79204 211.106553 
L 146.253751 212.261901 
L 146.715462 214.184837 
L 148.33145 222.01048 
L 149.254872 224.500953 
L 149.716582 226.896944 
L 150.409149 232.805553 
L 150.87086 235.783444 
L 151.101715 235.592638 
L 151.33257 234.006443 
L 152.025137 225.009655 
L 152.717703 216.765591 
L 153.410269 211.135432 
L 154.102836 207.300116 
L 154.795402 204.728714 
L 155.257113 203.868816 
L 155.487968 203.777574 
L 155.718824 203.943505 
L 155.949679 204.378653 
L 156.41139 206.046714 
L 156.873101 208.662487 
L 157.565667 213.903271 
L 158.719944 223.049777 
L 158.9508 223.902376 
L 159.181655 223.974651 
L 159.412511 223.129175 
L 159.874222 219.01273 
L 160.566788 211.741662 
L 160.797643 210.352024 
L 161.028499 209.751436 
L 161.259354 209.859749 
L 161.49021 210.308174 
L 161.721065 210.364425 
L 161.951921 209.215386 
L 162.644487 201.469056 
L 162.875342 201.025977 
L 163.106198 203.472718 
L 163.567909 213.498798 
L 164.722186 143.432843 
L 165.414752 122.278666 
L 165.876463 113.215551 
L 166.338174 107.238102 
L 166.799885 103.974399 
L 167.03074 103.29987 
L 167.261596 103.249806 
L 167.492451 103.823819 
L 167.723307 105.029322 
L 168.185017 109.407201 
L 168.646728 116.636063 
L 169.108439 127.218909 
L 169.57015 142.156776 
L 170.031861 163.71033 
L 170.493572 197.694475 
L 170.724427 216.150774 
L 170.955283 213.101466 
L 171.186138 205.488367 
L 171.416994 202.345537 
L 171.647849 202.665265 
L 171.878704 205.321845 
L 172.571271 215.632287 
L 172.802126 216.095156 
L 173.494692 214.093763 
L 173.725548 214.035746 
L 174.187259 214.209714 
L 174.418114 214.006997 
L 174.879825 212.931873 
L 176.957524 207.315804 
L 177.419235 206.7947 
L 177.65009 206.840832 
L 177.880946 207.08738 
L 178.342657 208.088945 
L 179.496934 211.150355 
L 179.727789 211.301906 
L 179.958645 211.222958 
L 180.882066 210.208716 
L 181.112922 210.257828 
L 181.343777 210.543842 
L 181.805488 211.776775 
L 182.72891 214.912608 
L 183.190621 215.720438 
L 183.652332 216.322436 
L 184.114043 217.531079 
L 184.575753 219.829343 
L 185.26832 224.112081 
L 185.499175 224.86541 
L 185.730031 224.855639 
L 185.960886 224.04461 
L 186.422597 220.830597 
L 187.115163 215.706845 
L 187.80773 212.4115 
L 188.962007 208.743327 
L 189.654573 207.092573 
L 190.116284 206.661943 
L 190.347139 206.705516 
L 190.577995 206.928731 
L 191.039706 207.915223 
L 191.501417 209.639689 
L 191.963127 212.165982 
L 192.655694 217.462398 
L 193.579115 224.575528 
L 193.809971 225.444936 
L 194.040826 225.803872 
L 194.271682 225.764505 
L 194.964248 225.130491 
L 195.195104 225.258563 
L 195.425959 225.672605 
L 195.88767 227.195535 
L 196.349381 228.740856 
L 196.580236 229.029715 
L 196.811092 228.786211 
L 197.041947 227.99016 
L 197.503658 225.190167 
L 200.043068 206.817925 
L 200.504779 204.713946 
L 200.966489 203.613985 
L 201.197345 203.468537 
L 201.4282 203.592838 
L 201.659056 203.979104 
L 202.120767 205.474371 
L 202.813333 209.049227 
L 203.505899 212.686855 
L 203.96761 213.890439 
L 204.198466 213.932474 
L 204.429321 213.628858 
L 204.891032 212.346937 
L 205.583598 210.338747 
L 205.814454 209.972166 
L 206.045309 209.827255 
L 206.276165 209.912041 
L 206.737875 210.686417 
L 207.661297 212.782079 
L 207.892153 212.916049 
L 208.123008 212.807831 
L 208.584719 212.091749 
L 209.04643 211.369391 
L 209.277285 211.242815 
L 209.508141 211.356008 
L 209.738996 211.73807 
L 210.200707 213.30024 
L 210.893273 217.049384 
L 211.816695 222.037078 
L 213.894394 230.70241 
L 214.356105 231.872741 
L 214.58696 231.868043 
L 214.817816 231.335212 
L 215.279527 228.675558 
L 217.357225 212.014892 
L 217.818936 210.606831 
L 218.049792 210.338127 
L 218.280647 210.349375 
L 218.511503 210.616758 
L 218.973214 211.733001 
L 219.66578 213.681115 
L 220.127491 214.266852 
L 221.050912 214.517969 
L 221.281768 214.899447 
L 221.743479 216.346574 
L 222.436045 219.06974 
L 222.666901 219.509584 
L 222.897756 219.484457 
L 223.128611 218.991581 
L 223.821178 216.017256 
L 224.282889 214.261107 
L 224.744599 213.35592 
L 224.975455 213.220112 
L 225.20631 213.255383 
L 225.668021 213.683465 
L 226.591443 215.155148 
L 228.669142 218.758816 
L 229.592564 220.208081 
L 230.746841 222.317661 
L 230.977696 222.495807 
L 231.208552 222.503408 
L 231.439407 222.335336 
L 231.901118 221.586804 
L 232.593684 220.251873 
L 233.055395 219.765747 
L 233.517106 219.656405 
L 233.978817 219.512434 
L 234.209672 219.20221 
L 234.440528 218.609169 
L 234.902239 216.414587 
L 236.749082 204.370462 
L 237.210793 203.041399 
L 237.672504 202.500595 
L 237.903359 202.486794 
L 238.134215 202.634066 
L 238.595926 203.441999 
L 239.057637 205.084904 
L 239.519347 207.809648 
L 240.211914 214.053154 
L 240.673625 218.484033 
L 240.90448 219.908711 
L 241.135335 220.314446 
L 241.366191 219.587603 
L 241.827902 215.790759 
L 242.520468 209.584927 
L 242.982179 207.22307 
L 243.213034 206.721896 
L 243.44389 206.680207 
L 243.674745 207.091312 
L 244.136456 209.210957 
L 244.598167 212.855276 
L 245.9833 225.351883 
L 246.214155 226.168726 
L 246.445011 226.48321 
L 246.675866 226.411356 
L 247.137577 225.658523 
L 247.599288 224.832686 
L 247.830143 224.580972 
L 248.060999 224.499085 
L 248.291854 224.611584 
L 248.753565 225.39584 
L 249.446131 226.919322 
L 249.676987 226.97755 
L 249.907842 226.572943 
L 250.138698 225.656696 
L 250.600408 222.550685 
L 252.216396 209.596889 
L 252.678107 207.205553 
L 253.139818 205.856323 
L 253.370674 205.624477 
L 253.601529 205.700619 
L 253.832385 206.082362 
L 254.294095 207.696455 
L 254.986662 211.631045 
L 255.679228 215.427394 
L 255.910083 216.10322 
L 256.140939 216.299834 
L 256.371794 215.981052 
L 256.833505 214.019354 
L 258.218638 205.860468 
L 258.680349 204.197176 
L 259.14206 203.164241 
L 259.60377 202.657836 
L 260.065481 202.606976 
L 260.527192 202.967677 
L 260.988903 203.671047 
L 262.835747 207.447539 
L 263.528313 209.266249 
L 263.990024 211.134382 
L 264.451735 213.800934 
L 265.144301 219.414215 
L 265.836867 225.284598 
L 266.067723 226.361014 
L 266.298578 226.576266 
L 266.529434 225.869445 
L 266.991144 222.428121 
L 267.914566 214.334088 
L 268.607132 210.487159 
L 269.068843 209.018083 
L 269.530554 208.251431 
L 269.76141 208.1091 
L 269.992265 208.129019 
L 270.223121 208.317817 
L 270.684831 209.223911 
L 271.146542 210.792403 
L 272.300819 215.149321 
L 272.531675 215.509254 
L 272.76253 215.614849 
L 272.993386 215.510831 
L 274.378518 214.214041 
L 274.840229 214.266956 
L 275.532796 214.66932 
L 275.994506 215.143447 
L 276.687073 216.274934 
L 277.84135 218.795333 
L 278.303061 220.31425 
L 278.764772 222.836721 
L 279.226483 226.794804 
L 280.38076 239.01361 
L 280.611615 239.951818 
L 280.842471 240.053608 
L 281.073326 239.564485 
L 281.765892 237.495432 
L 281.996748 237.182618 
L 282.689314 236.989663 
L 282.92017 236.458068 
L 283.151025 235.260642 
L 283.612736 230.740672 
L 284.767013 216.985208 
L 285.228724 213.376905 
L 285.690435 211.02242 
L 286.152146 209.655503 
L 286.613857 208.905547 
L 287.075567 208.464178 
L 287.537278 208.330004 
L 287.768134 208.472133 
L 287.998989 208.819333 
L 288.4607 210.25672 
L 288.922411 212.66212 
L 289.845833 218.253638 
L 290.076688 219.08482 
L 290.307544 219.443675 
L 290.538399 219.336993 
L 291.230965 217.943523 
L 291.461821 217.863784 
L 291.692676 218.221602 
L 292.154387 220.071455 
L 292.616098 221.739209 
L 292.846953 221.633943 
L 293.077809 220.735258 
L 293.770375 215.615005 
L 294.462941 210.660204 
L 294.924652 208.649703 
L 295.155508 208.348807 
L 295.386363 208.591313 
L 295.848074 210.280664 
L 296.309785 211.674114 
L 296.54064 211.696464 
L 296.771496 211.494393 
L 297.002351 211.478298 
L 297.233207 211.941632 
L 297.694918 213.594014 
L 297.925773 213.301196 
L 298.156628 211.425947 
L 298.849195 203.849689 
L 299.08005 203.303277 
L 299.541761 204.873092 
L 299.772616 204.451365 
L 300.003472 201.517187 
L 300.465183 192.927606 
L 300.696038 190.407648 
L 300.926894 190.178756 
L 301.157749 192.780189 
L 301.850315 208.373374 
L 302.542882 182.810473 
L 302.773737 181.546323 
L 303.004593 185.729453 
L 303.466303 210.022523 
L 303.928014 164.574358 
L 304.389725 145.76436 
L 304.620581 143.008432 
L 304.851436 145.447656 
L 305.082292 157.599489 
L 305.313147 215.039931 
L 305.544002 145.396869 
L 306.005713 100.474798 
L 306.467424 76.521756 
L 307.15999 53.977772 
L 307.852557 40.628406 
L 308.314268 35.498182 
L 308.775979 32.997773 
L 309.006834 32.688267 
L 309.237689 32.998248 
L 309.468545 33.931412 
L 309.930256 37.721552 
L 310.391967 44.262354 
L 310.853677 53.968601 
L 311.315388 67.652689 
L 311.777099 87.101431 
L 312.23881 117.733193 
L 312.469666 144.460987 
L 312.700521 217.579184 
L 312.931376 159.455541 
L 313.162232 146.786521 
L 313.393087 144.337276 
L 313.623943 147.328816 
L 313.854798 154.908584 
L 314.085654 168.059053 
L 314.547364 224.422188 
L 314.77822 193.840257 
L 315.009075 181.236928 
L 315.239931 177.234674 
L 315.470786 178.327793 
L 315.701642 183.700825 
L 315.932497 193.834183 
L 316.394208 232.764053 
L 317.086774 202.985888 
L 317.31763 201.763007 
L 317.548485 203.594437 
L 318.010196 209.822212 
L 318.241051 209.979807 
L 318.702762 206.029436 
L 318.933618 205.365852 
L 319.164473 206.45974 
L 319.626184 213.177801 
L 319.85704 216.944369 
L 320.087895 218.666873 
L 320.31875 217.708591 
L 320.780461 213.39323 
L 321.011317 212.166149 
L 321.242172 211.759985 
L 321.934738 212.122176 
L 322.165594 211.883092 
L 322.85816 210.492333 
L 323.319871 209.073655 
L 324.243293 205.005196 
L 324.474148 204.644306 
L 324.705004 204.743671 
L 325.166715 205.984411 
L 325.628425 207.410579 
L 325.859281 207.783514 
L 326.090136 207.902952 
L 326.551847 207.871401 
L 326.782703 207.995514 
L 327.013558 208.328317 
L 327.475269 209.670568 
L 328.167835 212.85088 
L 328.860402 215.983653 
L 329.322112 217.169229 
L 329.552968 217.389097 
L 329.783823 217.357869 
L 330.014679 217.073634 
L 330.47639 215.724963 
L 331.861522 209.489615 
L 332.092378 209.080926 
L 332.323233 208.968244 
L 332.554089 209.130538 
L 333.015799 210.145278 
L 333.47751 211.908019 
L 334.170077 215.871513 
L 335.093498 222.080716 
L 335.555209 223.580488 
L 335.786065 223.744081 
L 336.478631 223.644841 
L 336.709486 223.969854 
L 337.171197 225.629031 
L 337.863764 228.93146 
L 338.094619 229.145536 
L 338.325474 228.515485 
L 338.787185 225.250214 
L 339.710607 217.766661 
L 340.403173 213.952195 
L 341.788306 207.856961 
L 342.250017 206.791698 
L 342.480872 206.790894 
L 342.711728 207.221646 
L 343.173439 209.350138 
L 343.866005 214.533028 
L 344.558571 220.995685 
L 345.020282 225.551283 
L 345.251138 226.297715 
L 345.481993 225.064049 
L 346.405415 214.326537 
L 347.097981 210.213972 
L 348.252258 199.556099 
L 348.483114 199.533929 
L 348.713969 200.02221 
L 348.944825 200.05302 
L 349.17568 198.647932 
L 349.868246 191.26931 
L 350.099102 191.82045 
L 350.329957 195.616024 
L 350.791668 209.884165 
L 351.71509 167.746433 
L 351.945945 165.962073 
L 352.176801 170.051749 
L 352.638512 204.025607 
L 352.869367 157.695627 
L 353.331078 118.31948 
L 353.792789 95.682445 
L 354.485355 74.035681 
L 354.947066 64.700413 
L 355.408777 58.464981 
L 355.870488 54.94658 
L 356.101343 54.142855 
L 356.332199 53.960549 
L 356.563054 54.397674 
L 356.793909 55.459728 
L 357.25562 59.520959 
L 357.717331 66.36847 
L 358.179042 76.452991 
L 358.640753 90.667245 
L 359.102464 111.041007 
L 359.564175 144.271306 
L 360.025886 207.966493 
L 360.256741 172.987537 
L 360.487596 164.043458 
L 360.718452 162.774209 
L 360.949307 166.05912 
L 361.180163 173.180816 
L 361.411018 184.487074 
L 361.872729 223.064912 
L 362.103584 223.179465 
L 362.33444 213.335759 
L 362.565295 210.207818 
L 362.796151 212.596018 
L 363.257862 224.411895 
L 363.488717 221.225872 
L 363.950428 206.932009 
L 364.181283 203.274653 
L 364.412139 202.010561 
L 364.642994 202.680368 
L 365.566416 210.87623 
L 365.797271 210.803378 
L 366.028127 210.315849 
L 366.258982 210.210131 
L 366.489838 210.934738 
L 366.720693 212.615586 
L 367.41326 221.370086 
L 367.87497 225.880537 
L 368.105826 226.797282 
L 368.336681 226.970199 
L 368.567537 226.584217 
L 369.029248 224.53254 
L 370.876091 212.830787 
L 371.337802 211.388505 
L 371.568657 211.219037 
L 371.799513 211.429096 
L 372.722935 213.508925 
L 372.95379 213.374625 
L 373.184645 212.799439 
L 374.338923 208.790528 
L 374.569778 208.550398 
L 374.800634 208.524698 
L 375.262344 208.889518 
L 375.954911 209.570473 
L 376.416622 209.657906 
L 376.878332 209.398876 
L 377.340043 208.879785 
L 378.03261 207.715486 
L 378.956031 206.087397 
L 379.186887 205.957643 
L 379.417742 206.059706 
L 379.648598 206.446373 
L 380.110309 208.192312 
L 381.264586 214.223877 
L 381.495441 213.748767 
L 381.957152 210.269454 
L 382.649718 203.737624 
L 383.111429 201.180673 
L 383.342285 200.668344 
L 383.57314 200.67814 
L 383.803996 201.196909 
L 384.265706 203.635378 
L 384.958273 209.720125 
L 385.650839 215.125966 
L 385.881694 215.964584 
L 386.11255 216.259177 
L 386.343405 216.131899 
L 387.035972 214.780021 
L 387.497683 214.081549 
L 387.959393 213.839325 
L 388.421104 213.975926 
L 391.19137 215.801662 
L 391.65308 215.889913 
L 392.114791 215.559251 
L 392.807358 214.368791 
L 393.499924 213.330582 
L 393.961635 213.116063 
L 395.346767 213.089923 
L 395.808478 213.030722 
L 396.039334 213.14465 
L 396.270189 213.413605 
L 396.7319 214.469539 
L 397.424466 216.607793 
L 397.655322 217.012683 
L 397.886177 217.049703 
L 398.117033 216.67293 
L 398.578744 214.966081 
L 399.27131 212.311127 
L 399.502165 211.938517 
L 399.733021 211.951274 
L 399.963876 212.382988 
L 400.425587 214.528064 
L 400.887298 218.208316 
L 402.272431 230.772328 
L 402.734141 232.89377 
L 403.195852 234.225134 
L 403.426708 234.597195 
L 403.657563 234.630308 
L 403.888419 234.168525 
L 404.119274 233.10176 
L 404.580985 229.301863 
L 405.735262 218.366595 
L 406.196973 216.071248 
L 406.427828 215.53737 
L 406.658684 215.407415 
L 406.889539 215.656003 
L 407.35125 217.063128 
L 408.043816 219.667567 
L 408.274672 220.003404 
L 408.505527 219.866543 
L 408.736383 219.273974 
L 409.428949 216.063355 
L 410.121515 213.17334 
L 410.814082 211.227736 
L 411.737503 209.240936 
L 412.199214 208.865341 
L 412.43007 208.958511 
L 412.660925 209.257043 
L 413.122636 210.391449 
L 414.046058 213.132006 
L 414.507769 213.772786 
L 415.200335 214.214594 
L 415.43119 214.529603 
L 415.892901 215.764502 
L 416.354612 217.880997 
L 417.739745 225.14602 
L 418.201456 225.988099 
L 418.432311 226.022405 
L 418.663167 225.800159 
L 418.894022 225.298599 
L 419.355733 223.343375 
L 420.048299 218.384115 
L 420.740865 213.292975 
L 421.202576 211.058557 
L 421.433432 210.419576 
L 421.664287 210.110309 
L 421.895143 210.120725 
L 422.125998 210.429665 
L 422.587709 211.817616 
L 423.280275 215.238971 
L 424.434552 221.267799 
L 424.665408 221.839498 
L 424.896263 221.987207 
L 425.127119 221.688685 
L 425.58883 220.009223 
L 426.973962 213.511037 
L 428.359095 208.348375 
L 428.820806 207.192399 
L 429.282517 206.654531 
L 430.205938 206.249237 
L 430.436794 205.845361 
L 430.898505 204.37534 
L 431.821926 200.595489 
L 432.283637 199.628383 
L 432.514493 199.546175 
L 432.745348 199.738864 
L 433.207059 200.854413 
L 434.823047 206.57614 
L 435.746469 208.226501 
L 438.055023 212.253801 
L 438.74759 214.265215 
L 440.363578 219.684986 
L 440.825288 220.539873 
L 441.286999 220.916766 
L 441.979566 220.987863 
L 442.672132 221.123023 
L 443.133843 221.192269 
L 443.364698 221.059595 
L 443.595554 220.702233 
L 443.826409 220.042254 
L 444.28812 217.695359 
L 445.904108 206.797561 
L 446.134964 206.095179 
L 446.365819 205.749363 
L 446.596674 205.76988 
L 446.82753 206.154826 
L 447.289241 207.947104 
L 447.981807 212.500396 
L 448.905229 218.514242 
L 449.36694 220.316005 
L 450.059506 221.956477 
L 450.521217 222.498933 
L 450.752072 222.488809 
L 450.982928 222.228662 
L 451.444639 220.966955 
L 453.060627 215.086115 
L 453.984048 212.417826 
L 454.90747 209.629319 
L 455.138326 209.267202 
L 455.369181 209.149582 
L 455.600036 209.304084 
L 455.830892 209.733115 
L 456.292603 211.26689 
L 456.985169 213.797032 
L 457.216025 214.198758 
L 457.44688 214.264783 
L 457.677735 214.046569 
L 458.370302 213.008602 
L 458.601157 212.982864 
L 458.832013 213.264903 
L 459.062868 213.88418 
L 459.524579 216.052867 
L 460.448001 221.162981 
L 460.678856 221.663507 
L 460.909712 221.64065 
L 461.140567 221.144275 
L 461.602278 219.240261 
L 462.5257 215.002036 
L 462.98741 213.593282 
L 463.449121 212.888858 
L 463.679977 212.820607 
L 463.910832 212.937353 
L 464.372543 213.637203 
L 465.295965 215.376757 
L 465.52682 215.472944 
L 465.757676 215.353107 
L 466.219387 214.616027 
L 466.681097 213.75348 
L 466.911953 213.49885 
L 467.142808 213.460448 
L 467.373664 213.692067 
L 467.604519 214.232701 
L 468.06623 216.336434 
L 468.527941 219.855018 
L 469.220507 227.336767 
L 469.913074 234.213845 
L 470.143929 235.049174 
L 470.374784 234.780543 
L 470.60564 233.512689 
L 471.298206 226.723043 
L 471.990772 220.083068 
L 472.683339 215.663121 
L 473.14505 214.062275 
L 473.606761 213.402957 
L 473.837616 213.361322 
L 474.068471 213.472065 
L 474.530182 214.044602 
L 475.222749 215.512294 
L 475.915315 217.155592 
L 476.14617 217.456782 
L 476.377026 217.46087 
L 476.607881 217.077614 
L 477.069592 215.103135 
L 478.223869 208.288839 
L 478.68558 207.197395 
L 478.916436 207.224699 
L 479.147291 207.649992 
L 479.609002 209.652641 
L 480.994135 218.22341 
L 481.22499 217.990751 
L 481.455845 216.994584 
L 483.071833 206.706869 
L 483.302689 206.200765 
L 483.533544 206.007144 
L 483.7644 206.111931 
L 483.995255 206.499079 
L 484.456966 208.055849 
L 484.918677 210.541712 
L 486.534665 221.167587 
L 486.76552 221.797377 
L 486.996376 222.073239 
L 487.227231 222.071819 
L 487.688942 221.597649 
L 488.150653 220.818075 
L 488.612364 219.579962 
L 489.074075 217.474068 
L 489.766641 212.715737 
L 490.690063 206.042978 
L 491.151774 203.603618 
L 491.613485 202.13017 
L 491.84434 201.81377 
L 492.075196 201.799934 
L 492.306051 202.097278 
L 492.767762 203.604061 
L 493.460328 207.530758 
L 493.922039 210.075076 
L 494.152894 210.887108 
L 494.38375 211.258981 
L 494.614605 211.198011 
L 495.076316 210.205002 
L 495.768883 208.559904 
L 495.999738 208.319953 
L 496.230593 208.277123 
L 496.461449 208.417133 
L 496.92316 209.109073 
L 497.846581 210.873955 
L 498.308292 211.362001 
L 498.770003 211.424165 
L 499.231714 211.062015 
L 499.693425 210.299623 
L 500.155136 209.143597 
L 500.847702 206.645619 
L 502.232835 200.847464 
L 502.46369 200.363942 
L 502.694546 200.179735 
L 502.925401 200.344578 
L 503.156256 200.899593 
L 503.617967 203.291323 
L 504.079678 207.408645 
L 505.233955 219.712809 
L 505.464811 220.699863 
L 505.695666 220.986857 
L 505.926522 220.834748 
L 506.388233 220.347712 
L 506.619088 220.378675 
L 506.849943 220.674331 
L 508.004221 223.293762 
L 508.235076 223.295763 
L 508.465932 223.050322 
L 509.158498 221.578408 
L 509.851064 219.785253 
L 510.312775 218.005706 
L 511.005341 213.935756 
L 511.928763 208.182229 
L 512.390474 206.345772 
L 512.852185 205.494083 
L 513.08304 205.414542 
L 513.313896 205.522589 
L 514.006462 206.419923 
L 514.468173 206.893992 
L 514.929884 206.974236 
L 515.62245 206.813787 
L 516.084161 206.980027 
L 516.776727 207.720102 
L 517.469294 208.360844 
L 518.16186 208.815898 
L 518.623571 209.513295 
L 519.085282 210.768593 
L 520.008703 213.822785 
L 520.239559 214.266041 
L 520.470414 214.460016 
L 520.70127 214.402672 
L 521.162981 213.707292 
L 521.855547 212.286517 
L 522.086402 212.002946 
L 522.317258 211.921118 
L 522.548113 212.096551 
L 522.778969 212.576851 
L 523.24068 214.566325 
L 524.394957 221.55421 
L 524.625812 221.158946 
L 524.856668 219.68731 
L 526.472656 204.935871 
L 526.934366 203.713862 
L 527.165222 203.670266 
L 527.396077 203.973596 
L 527.857788 205.517955 
L 528.319499 208.122491 
L 529.012065 213.428536 
L 530.397198 225.070566 
L 530.858909 227.037217 
L 531.089764 227.038535 
L 531.32062 226.33538 
L 531.782331 223.470204 
L 532.474897 218.989255 
L 532.936608 217.629724 
L 533.167463 217.587776 
L 533.398319 217.946751 
L 533.86003 219.554494 
L 534.32174 221.338675 
L 534.552596 221.782181 
L 534.783451 221.696389 
L 535.014307 221.042475 
L 535.476018 218.464525 
L 536.630295 211.298321 
L 537.322861 208.752285 
L 537.784572 207.845922 
L 538.015427 207.629077 
L 538.246283 207.573143 
L 538.477138 207.680622 
L 538.938849 208.391229 
L 539.40056 209.763659 
L 539.862271 211.794016 
L 540.554837 215.989096 
L 541.709114 223.459594 
L 541.93997 224.253814 
L 542.170825 224.637835 
L 542.401681 224.630214 
L 542.632536 224.303788 
L 543.325103 222.432261 
L 543.786813 221.283097 
L 544.248524 220.675307 
L 544.47938 220.639753 
L 544.710235 220.804514 
L 545.171946 221.749762 
L 545.171946 221.749762 
" clip-path="url(#p82d965bd2f)" style="fill: none; stroke: #1f77b4; stroke-linecap: square"/>
   </g>
   <g id="patch_3">
    <path d="M 48.982813 250.421875 
L 48.982813 22.32 
" style="fill: none; stroke: #000000; stroke-width: 0.8; stroke-linejoin: miter; stroke-linecap: square"/>
   </g>
   <g id="patch_4">
    <path d="M 568.8 250.421875 
L 568.8 22.32 
" style="fill: none; stroke: #000000; stroke-width: 0.8; stroke-linejoin: miter; stroke-linecap: square"/>
   </g>
   <g id="patch_5">
    <path d="M 48.982813 250.421875 
L 568.8 250.421875 
" style="fill: none; stroke: #000000; stroke-width: 0.8; stroke-linejoin: miter; stroke-linecap: square"/>
   </g>
   <g id="patch_6">
    <path d="M 48.982813 22.32 
L 568.8 22.32 
" style="fill: none; stroke: #000000; stroke-width: 0.8; stroke-linejoin: miter; stroke-linecap: square"/>
   </g>
   <g id="text_14">
    <!-- Periodogram of $x_c[n]$ -->
    <g transform="translate(246.371406 16.32) scale(0.12 -0.12)">
     <defs>
      <path id="DejaVuSans-67" d="M 2906 1791 
Q 2906 2416 2648 2759 
Q 2391 3103 1925 3103 
Q 1463 3103 1205 2759 
Q 947 2416 947 1791 
Q 947 1169 1205 825 
Q 1463 481 1925 481 
Q 2391 481 2648 825 
Q 2906 1169 2906 1791 
z
M 3481 434 
Q 3481 -459 3084 -895 
Q 2688 -1331 1869 -1331 
Q 1566 -1331 1297 -1286 
Q 1028 -1241 775 -1147 
L 775 -588 
Q 1028 -725 1275 -790 
Q 1522 -856 1778 -856 
Q 2344 -856 2625 -561 
Q 2906 -266 2906 331 
L 2906 616 
Q 2728 306 2450 153 
Q 2172 0 1784 0 
Q 1141 0 747 490 
Q 353 981 353 1791 
Q 353 2603 747 3093 
Q 1141 3584 1784 3584 
Q 2172 3584 2450 3431 
Q 2728 3278 2906 2969 
L 2906 3500 
L 3481 3500 
L 3481 434 
z
" transform="scale(0.015625)"/>
      <path id="DejaVuSans-61" d="M 2194 1759 
Q 1497 1759 1228 1600 
Q 959 1441 959 1056 
Q 959 750 1161 570 
Q 1363 391 1709 391 
Q 2188 391 2477 730 
Q 2766 1069 2766 1631 
L 2766 1759 
L 2194 1759 
z
M 3341 1997 
L 3341 0 
L 2766 0 
L 2766 531 
Q 2569 213 2275 61 
Q 1981 -91 1556 -91 
Q 1019 -91 701 211 
Q 384 513 384 1019 
Q 384 1609 779 1909 
Q 1175 2209 1959 2209 
L 2766 2209 
L 2766 2266 
Q 2766 2663 2505 2880 
Q 2244 3097 1772 3097 
Q 1472 3097 1187 3025 
Q 903 2953 641 2809 
L 641 3341 
Q 956 3463 1253 3523 
Q 1550 3584 1831 3584 
Q 2591 3584 2966 3190 
Q 3341 2797 3341 1997 
z
" transform="scale(0.015625)"/>
      <path id="DejaVuSans-6d" d="M 3328 2828 
Q 3544 3216 3844 3400 
Q 4144 3584 4550 3584 
Q 5097 3584 5394 3201 
Q 5691 2819 5691 2113 
L 5691 0 
L 5113 0 
L 5113 2094 
Q 5113 2597 4934 2840 
Q 4756 3084 4391 3084 
Q 3944 3084 3684 2787 
Q 3425 2491 3425 1978 
L 3425 0 
L 2847 0 
L 2847 2094 
Q 2847 2600 2669 2842 
Q 2491 3084 2119 3084 
Q 1678 3084 1418 2786 
Q 1159 2488 1159 1978 
L 1159 0 
L 581 0 
L 581 3500 
L 1159 3500 
L 1159 2956 
Q 1356 3278 1631 3431 
Q 1906 3584 2284 3584 
Q 2666 3584 2933 3390 
Q 3200 3197 3328 2828 
z
" transform="scale(0.015625)"/>
      <path id="DejaVuSans-66" d="M 2375 4863 
L 2375 4384 
L 1825 4384 
Q 1516 4384 1395 4259 
Q 1275 4134 1275 3809 
L 1275 3500 
L 2222 3500 
L 2222 3053 
L 1275 3053 
L 1275 0 
L 697 0 
L 697 3053 
L 147 3053 
L 147 3500 
L 697 3500 
L 697 3744 
Q 697 4328 969 4595 
Q 1241 4863 1831 4863 
L 2375 4863 
z
" transform="scale(0.015625)"/>
      <path id="DejaVuSans-Oblique-78" d="M 3841 3500 
L 2234 1784 
L 3219 0 
L 2559 0 
L 1819 1388 
L 531 0 
L -166 0 
L 1556 1844 
L 641 3500 
L 1300 3500 
L 1972 2234 
L 3144 3500 
L 3841 3500 
z
" transform="scale(0.015625)"/>
      <path id="DejaVuSans-Oblique-63" d="M 3431 3366 
L 3316 2797 
Q 3109 2947 2876 3022 
Q 2644 3097 2394 3097 
Q 2119 3097 1870 3000 
Q 1622 2903 1453 2725 
Q 1184 2453 1037 2087 
Q 891 1722 891 1331 
Q 891 859 1127 628 
Q 1363 397 1844 397 
Q 2081 397 2348 469 
Q 2616 541 2906 684 
L 2797 116 
Q 2547 13 2283 -39 
Q 2019 -91 1741 -91 
Q 1044 -91 669 257 
Q 294 606 294 1253 
Q 294 1797 489 2255 
Q 684 2713 1069 3078 
Q 1331 3328 1684 3456 
Q 2038 3584 2456 3584 
Q 2700 3584 2940 3529 
Q 3181 3475 3431 3366 
z
" transform="scale(0.015625)"/>
      <path id="DejaVuSans-5b" d="M 550 4863 
L 1875 4863 
L 1875 4416 
L 1125 4416 
L 1125 -397 
L 1875 -397 
L 1875 -844 
L 550 -844 
L 550 4863 
z
" transform="scale(0.015625)"/>
      <path id="DejaVuSans-Oblique-6e" d="M 3566 2113 
L 3156 0 
L 2578 0 
L 2988 2091 
Q 3016 2238 3031 2350 
Q 3047 2463 3047 2528 
Q 3047 2791 2881 2937 
Q 2716 3084 2419 3084 
Q 1956 3084 1622 2776 
Q 1288 2469 1184 1941 
L 800 0 
L 225 0 
L 903 3500 
L 1478 3500 
L 1363 2950 
Q 1603 3253 1940 3418 
Q 2278 3584 2650 3584 
Q 3113 3584 3367 3334 
Q 3622 3084 3622 2631 
Q 3622 2519 3608 2391 
Q 3594 2263 3566 2113 
z
" transform="scale(0.015625)"/>
      <path id="DejaVuSans-5d" d="M 1947 4863 
L 1947 -844 
L 622 -844 
L 622 -397 
L 1369 -397 
L 1369 4416 
L 622 4416 
L 622 4863 
L 1947 4863 
z
" transform="scale(0.015625)"/>
     </defs>
     <use xlink:href="#DejaVuSans-50" transform="translate(0 0.015625)"/>
     <use xlink:href="#DejaVuSans-65" transform="translate(60.302734 0.015625)"/>
     <use xlink:href="#DejaVuSans-72" transform="translate(121.826172 0.015625)"/>
     <use xlink:href="#DejaVuSans-69" transform="translate(162.939453 0.015625)"/>
     <use xlink:href="#DejaVuSans-6f" transform="translate(190.722656 0.015625)"/>
     <use xlink:href="#DejaVuSans-64" transform="translate(251.904297 0.015625)"/>
     <use xlink:href="#DejaVuSans-6f" transform="translate(315.380859 0.015625)"/>
     <use xlink:href="#DejaVuSans-67" transform="translate(376.5625 0.015625)"/>
     <use xlink:href="#DejaVuSans-72" transform="translate(440.039062 0.015625)"/>
     <use xlink:href="#DejaVuSans-61" transform="translate(481.152344 0.015625)"/>
     <use xlink:href="#DejaVuSans-6d" transform="translate(542.431641 0.015625)"/>
     <use xlink:href="#DejaVuSans-20" transform="translate(639.84375 0.015625)"/>
     <use xlink:href="#DejaVuSans-6f" transform="translate(671.630859 0.015625)"/>
     <use xlink:href="#DejaVuSans-66" transform="translate(732.8125 0.015625)"/>
     <use xlink:href="#DejaVuSans-20" transform="translate(768.017578 0.015625)"/>
     <use xlink:href="#DejaVuSans-Oblique-78" transform="translate(799.804688 0.015625)"/>
     <use xlink:href="#DejaVuSans-Oblique-63" transform="translate(858.984375 -16.390625) scale(0.7)"/>
     <use xlink:href="#DejaVuSans-5b" transform="translate(900.205078 0.015625)"/>
     <use xlink:href="#DejaVuSans-Oblique-6e" transform="translate(939.21875 0.015625)"/>
     <use xlink:href="#DejaVuSans-5d" transform="translate(1002.597656 0.015625)"/>
    </g>
   </g>
  </g>
 </g>
 <defs>
  <clipPath id="p82d965bd2f">
   <rect x="48.982813" y="22.32" width="519.817188" height="228.101875"/>
  </clipPath>
 </defs>
</svg>
