<?xml version="1.0" encoding="utf-8" standalone="no"?>
<!DOCTYPE svg PUBLIC "-//W3C//DTD SVG 1.1//EN"
  "http://www.w3.org/Graphics/SVG/1.1/DTD/svg11.dtd">
<svg xmlns:xlink="http://www.w3.org/1999/xlink" width="576pt" height="288pt" viewBox="0 0 576 288" xmlns="http://www.w3.org/2000/svg" version="1.1">
 <metadata>
  <rdf:RDF xmlns:dc="http://purl.org/dc/elements/1.1/" xmlns:cc="http://creativecommons.org/ns#" xmlns:rdf="http://www.w3.org/1999/02/22-rdf-syntax-ns#">
   <cc:Work>
    <dc:type rdf:resource="http://purl.org/dc/dcmitype/StillImage"/>
    <dc:date>2026-05-03T17:43:55.888313</dc:date>
    <dc:format>image/svg+xml</dc:format>
    <dc:creator>
     <cc:Agent>
      <dc:title>Matplotlib v3.10.9, https://matplotlib.org/</dc:title>
     </cc:Agent>
    </dc:creator>
   </cc:Work>
  </rdf:RDF>
 </metadata>
 <defs>
  <style type="text/css">*{stroke-linejoin: round; stroke-linecap: butt}</style>
 </defs>
 <g id="figure_1">
  <g id="patch_1">
   <path d="M 0 288 
L 576 288 
L 576 0 
L 0 0 
z
" style="fill: #ffffff"/>
  </g>
  <g id="axes_1">
   <g id="patch_2">
    <path d="M 52.160938 250.421875 
L 568.8 250.421875 
L 568.8 7.2 
L 52.160938 7.2 
z
" style="fill: #ffffff"/>
   </g>
   <g id="matplotlib.axis_1">
    <g id="xtick_1">
     <g id="line2d_1">
      <path d="M 75.644531 250.421875 
L 75.644531 7.2 
" clip-path="url(#pd75528578a)" style="fill: none; stroke-dasharray: 2.96,1.28; stroke-dashoffset: 0; stroke: #b0b0b0; stroke-opacity: 0.8; stroke-width: 0.8"/>
     </g>
     <g id="line2d_2">
      <defs>
       <path id="m47bb5fe033" d="M 0 0 
L 0 3.5 
" style="stroke: #000000; stroke-width: 0.8"/>
      </defs>
      <g>
       <use xlink:href="#m47bb5fe033" x="75.644531" y="250.421875" style="stroke: #000000; stroke-width: 0.8"/>
      </g>
     </g>
     <g id="text_1">
      <!-- 0 -->
      <g transform="translate(72.463281 265.020312) scale(0.1 -0.1)">
       <defs>
        <path id="DejaVuSans-30" d="M 2034 4250 
Q 1547 4250 1301 3770 
Q 1056 3291 1056 2328 
Q 1056 1369 1301 889 
Q 1547 409 2034 409 
Q 2525 409 2770 889 
Q 3016 1369 3016 2328 
Q 3016 3291 2770 3770 
Q 2525 4250 2034 4250 
z
M 2034 4750 
Q 2819 4750 3233 4129 
Q 3647 3509 3647 2328 
Q 3647 1150 3233 529 
Q 2819 -91 2034 -91 
Q 1250 -91 836 529 
Q 422 1150 422 2328 
Q 422 3509 836 4129 
Q 1250 4750 2034 4750 
z
" transform="scale(0.015625)"/>
       </defs>
       <use xlink:href="#DejaVuSans-30"/>
      </g>
     </g>
    </g>
    <g id="xtick_2">
     <g id="line2d_3">
      <path d="M 134.500656 250.421875 
L 134.500656 7.2 
" clip-path="url(#pd75528578a)" style="fill: none; stroke-dasharray: 2.96,1.28; stroke-dashoffset: 0; stroke: #b0b0b0; stroke-opacity: 0.8; stroke-width: 0.8"/>
     </g>
     <g id="line2d_4">
      <g>
       <use xlink:href="#m47bb5fe033" x="134.500656" y="250.421875" style="stroke: #000000; stroke-width: 0.8"/>
      </g>
     </g>
     <g id="text_2">
      <!-- 50 -->
      <g transform="translate(128.138156 265.020312) scale(0.1 -0.1)">
       <defs>
        <path id="DejaVuSans-35" d="M 691 4666 
L 3169 4666 
L 3169 4134 
L 1269 4134 
L 1269 2991 
Q 1406 3038 1543 3061 
Q 1681 3084 1819 3084 
Q 2600 3084 3056 2656 
Q 3513 2228 3513 1497 
Q 3513 744 3044 326 
Q 2575 -91 1722 -91 
Q 1428 -91 1123 -41 
Q 819 9 494 109 
L 494 744 
Q 775 591 1075 516 
Q 1375 441 1709 441 
Q 2250 441 2565 725 
Q 2881 1009 2881 1497 
Q 2881 1984 2565 2268 
Q 2250 2553 1709 2553 
Q 1456 2553 1204 2497 
Q 953 2441 691 2322 
L 691 4666 
z
" transform="scale(0.015625)"/>
       </defs>
       <use xlink:href="#DejaVuSans-35"/>
       <use xlink:href="#DejaVuSans-30" transform="translate(63.623047 0)"/>
      </g>
     </g>
    </g>
    <g id="xtick_3">
     <g id="line2d_5">
      <path d="M 193.356781 250.421875 
L 193.356781 7.2 
" clip-path="url(#pd75528578a)" style="fill: none; stroke-dasharray: 2.96,1.28; stroke-dashoffset: 0; stroke: #b0b0b0; stroke-opacity: 0.8; stroke-width: 0.8"/>
     </g>
     <g id="line2d_6">
      <g>
       <use xlink:href="#m47bb5fe033" x="193.356781" y="250.421875" style="stroke: #000000; stroke-width: 0.8"/>
      </g>
     </g>
     <g id="text_3">
      <!-- 100 -->
      <g transform="translate(183.813031 265.020312) scale(0.1 -0.1)">
       <defs>
        <path id="DejaVuSans-31" d="M 794 531 
L 1825 531 
L 1825 4091 
L 703 3866 
L 703 4441 
L 1819 4666 
L 2450 4666 
L 2450 531 
L 3481 531 
L 3481 0 
L 794 0 
L 794 531 
z
" transform="scale(0.015625)"/>
       </defs>
       <use xlink:href="#DejaVuSans-31"/>
       <use xlink:href="#DejaVuSans-30" transform="translate(63.623047 0)"/>
       <use xlink:href="#DejaVuSans-30" transform="translate(127.246094 0)"/>
      </g>
     </g>
    </g>
    <g id="xtick_4">
     <g id="line2d_7">
      <path d="M 252.212905 250.421875 
L 252.212905 7.2 
" clip-path="url(#pd75528578a)" style="fill: none; stroke-dasharray: 2.96,1.28; stroke-dashoffset: 0; stroke: #b0b0b0; stroke-opacity: 0.8; stroke-width: 0.8"/>
     </g>
     <g id="line2d_8">
      <g>
       <use xlink:href="#m47bb5fe033" x="252.212905" y="250.421875" style="stroke: #000000; stroke-width: 0.8"/>
      </g>
     </g>
     <g id="text_4">
      <!-- 150 -->
      <g transform="translate(242.669155 265.020312) scale(0.1 -0.1)">
       <use xlink:href="#DejaVuSans-31"/>
       <use xlink:href="#DejaVuSans-35" transform="translate(63.623047 0)"/>
       <use xlink:href="#DejaVuSans-30" transform="translate(127.246094 0)"/>
      </g>
     </g>
    </g>
    <g id="xtick_5">
     <g id="line2d_9">
      <path d="M 311.06903 250.421875 
L 311.06903 7.2 
" clip-path="url(#pd75528578a)" style="fill: none; stroke-dasharray: 2.96,1.28; stroke-dashoffset: 0; stroke: #b0b0b0; stroke-opacity: 0.8; stroke-width: 0.8"/>
     </g>
     <g id="line2d_10">
      <g>
       <use xlink:href="#m47bb5fe033" x="311.06903" y="250.421875" style="stroke: #000000; stroke-width: 0.8"/>
      </g>
     </g>
     <g id="text_5">
      <!-- 200 -->
      <g transform="translate(301.52528 265.020312) scale(0.1 -0.1)">
       <defs>
        <path id="DejaVuSans-32" d="M 1228 531 
L 3431 531 
L 3431 0 
L 469 0 
L 469 531 
Q 828 903 1448 1529 
Q 2069 2156 2228 2338 
Q 2531 2678 2651 2914 
Q 2772 3150 2772 3378 
Q 2772 3750 2511 3984 
Q 2250 4219 1831 4219 
Q 1534 4219 1204 4116 
Q 875 4013 500 3803 
L 500 4441 
Q 881 4594 1212 4672 
Q 1544 4750 1819 4750 
Q 2544 4750 2975 4387 
Q 3406 4025 3406 3419 
Q 3406 3131 3298 2873 
Q 3191 2616 2906 2266 
Q 2828 2175 2409 1742 
Q 1991 1309 1228 531 
z
" transform="scale(0.015625)"/>
       </defs>
       <use xlink:href="#DejaVuSans-32"/>
       <use xlink:href="#DejaVuSans-30" transform="translate(63.623047 0)"/>
       <use xlink:href="#DejaVuSans-30" transform="translate(127.246094 0)"/>
      </g>
     </g>
    </g>
    <g id="xtick_6">
     <g id="line2d_11">
      <path d="M 369.925155 250.421875 
L 369.925155 7.2 
" clip-path="url(#pd75528578a)" style="fill: none; stroke-dasharray: 2.96,1.28; stroke-dashoffset: 0; stroke: #b0b0b0; stroke-opacity: 0.8; stroke-width: 0.8"/>
     </g>
     <g id="line2d_12">
      <g>
       <use xlink:href="#m47bb5fe033" x="369.925155" y="250.421875" style="stroke: #000000; stroke-width: 0.8"/>
      </g>
     </g>
     <g id="text_6">
      <!-- 250 -->
      <g transform="translate(360.381405 265.020312) scale(0.1 -0.1)">
       <use xlink:href="#DejaVuSans-32"/>
       <use xlink:href="#DejaVuSans-35" transform="translate(63.623047 0)"/>
       <use xlink:href="#DejaVuSans-30" transform="translate(127.246094 0)"/>
      </g>
     </g>
    </g>
    <g id="xtick_7">
     <g id="line2d_13">
      <path d="M 428.781279 250.421875 
L 428.781279 7.2 
" clip-path="url(#pd75528578a)" style="fill: none; stroke-dasharray: 2.96,1.28; stroke-dashoffset: 0; stroke: #b0b0b0; stroke-opacity: 0.8; stroke-width: 0.8"/>
     </g>
     <g id="line2d_14">
      <g>
       <use xlink:href="#m47bb5fe033" x="428.781279" y="250.421875" style="stroke: #000000; stroke-width: 0.8"/>
      </g>
     </g>
     <g id="text_7">
      <!-- 300 -->
      <g transform="translate(419.237529 265.020312) scale(0.1 -0.1)">
       <defs>
        <path id="DejaVuSans-33" d="M 2597 2516 
Q 3050 2419 3304 2112 
Q 3559 1806 3559 1356 
Q 3559 666 3084 287 
Q 2609 -91 1734 -91 
Q 1441 -91 1130 -33 
Q 819 25 488 141 
L 488 750 
Q 750 597 1062 519 
Q 1375 441 1716 441 
Q 2309 441 2620 675 
Q 2931 909 2931 1356 
Q 2931 1769 2642 2001 
Q 2353 2234 1838 2234 
L 1294 2234 
L 1294 2753 
L 1863 2753 
Q 2328 2753 2575 2939 
Q 2822 3125 2822 3475 
Q 2822 3834 2567 4026 
Q 2313 4219 1838 4219 
Q 1578 4219 1281 4162 
Q 984 4106 628 3988 
L 628 4550 
Q 988 4650 1302 4700 
Q 1616 4750 1894 4750 
Q 2613 4750 3031 4423 
Q 3450 4097 3450 3541 
Q 3450 3153 3228 2886 
Q 3006 2619 2597 2516 
z
" transform="scale(0.015625)"/>
       </defs>
       <use xlink:href="#DejaVuSans-33"/>
       <use xlink:href="#DejaVuSans-30" transform="translate(63.623047 0)"/>
       <use xlink:href="#DejaVuSans-30" transform="translate(127.246094 0)"/>
      </g>
     </g>
    </g>
    <g id="xtick_8">
     <g id="line2d_15">
      <path d="M 487.637404 250.421875 
L 487.637404 7.2 
" clip-path="url(#pd75528578a)" style="fill: none; stroke-dasharray: 2.96,1.28; stroke-dashoffset: 0; stroke: #b0b0b0; stroke-opacity: 0.8; stroke-width: 0.8"/>
     </g>
     <g id="line2d_16">
      <g>
       <use xlink:href="#m47bb5fe033" x="487.637404" y="250.421875" style="stroke: #000000; stroke-width: 0.8"/>
      </g>
     </g>
     <g id="text_8">
      <!-- 350 -->
      <g transform="translate(478.093654 265.020312) scale(0.1 -0.1)">
       <use xlink:href="#DejaVuSans-33"/>
       <use xlink:href="#DejaVuSans-35" transform="translate(63.623047 0)"/>
       <use xlink:href="#DejaVuSans-30" transform="translate(127.246094 0)"/>
      </g>
     </g>
    </g>
    <g id="xtick_9">
     <g id="line2d_17">
      <path d="M 546.493529 250.421875 
L 546.493529 7.2 
" clip-path="url(#pd75528578a)" style="fill: none; stroke-dasharray: 2.96,1.28; stroke-dashoffset: 0; stroke: #b0b0b0; stroke-opacity: 0.8; stroke-width: 0.8"/>
     </g>
     <g id="line2d_18">
      <g>
       <use xlink:href="#m47bb5fe033" x="546.493529" y="250.421875" style="stroke: #000000; stroke-width: 0.8"/>
      </g>
     </g>
     <g id="text_9">
      <!-- 400 -->
      <g transform="translate(536.949779 265.020312) scale(0.1 -0.1)">
       <defs>
        <path id="DejaVuSans-34" d="M 2419 4116 
L 825 1625 
L 2419 1625 
L 2419 4116 
z
M 2253 4666 
L 3047 4666 
L 3047 1625 
L 3713 1625 
L 3713 1100 
L 3047 1100 
L 3047 0 
L 2419 0 
L 2419 1100 
L 313 1100 
L 313 1709 
L 2253 4666 
z
" transform="scale(0.015625)"/>
       </defs>
       <use xlink:href="#DejaVuSans-34"/>
       <use xlink:href="#DejaVuSans-30" transform="translate(63.623047 0)"/>
       <use xlink:href="#DejaVuSans-30" transform="translate(127.246094 0)"/>
      </g>
     </g>
    </g>
    <g id="text_10">
     <!-- Sample, $n$ -->
     <g transform="translate(285.380469 278.7) scale(0.1 -0.1)">
      <defs>
       <path id="DejaVuSans-53" d="M 3425 4513 
L 3425 3897 
Q 3066 4069 2747 4153 
Q 2428 4238 2131 4238 
Q 1616 4238 1336 4038 
Q 1056 3838 1056 3469 
Q 1056 3159 1242 3001 
Q 1428 2844 1947 2747 
L 2328 2669 
Q 3034 2534 3370 2195 
Q 3706 1856 3706 1288 
Q 3706 609 3251 259 
Q 2797 -91 1919 -91 
Q 1588 -91 1214 -16 
Q 841 59 441 206 
L 441 856 
Q 825 641 1194 531 
Q 1563 422 1919 422 
Q 2459 422 2753 634 
Q 3047 847 3047 1241 
Q 3047 1584 2836 1778 
Q 2625 1972 2144 2069 
L 1759 2144 
Q 1053 2284 737 2584 
Q 422 2884 422 3419 
Q 422 4038 858 4394 
Q 1294 4750 2059 4750 
Q 2388 4750 2728 4690 
Q 3069 4631 3425 4513 
z
" transform="scale(0.015625)"/>
       <path id="DejaVuSans-61" d="M 2194 1759 
Q 1497 1759 1228 1600 
Q 959 1441 959 1056 
Q 959 750 1161 570 
Q 1363 391 1709 391 
Q 2188 391 2477 730 
Q 2766 1069 2766 1631 
L 2766 1759 
L 2194 1759 
z
M 3341 1997 
L 3341 0 
L 2766 0 
L 2766 531 
Q 2569 213 2275 61 
Q 1981 -91 1556 -91 
Q 1019 -91 701 211 
Q 384 513 384 1019 
Q 384 1609 779 1909 
Q 1175 2209 1959 2209 
L 2766 2209 
L 2766 2266 
Q 2766 2663 2505 2880 
Q 2244 3097 1772 3097 
Q 1472 3097 1187 3025 
Q 903 2953 641 2809 
L 641 3341 
Q 956 3463 1253 3523 
Q 1550 3584 1831 3584 
Q 2591 3584 2966 3190 
Q 3341 2797 3341 1997 
z
" transform="scale(0.015625)"/>
       <path id="DejaVuSans-6d" d="M 3328 2828 
Q 3544 3216 3844 3400 
Q 4144 3584 4550 3584 
Q 5097 3584 5394 3201 
Q 5691 2819 5691 2113 
L 5691 0 
L 5113 0 
L 5113 2094 
Q 5113 2597 4934 2840 
Q 4756 3084 4391 3084 
Q 3944 3084 3684 2787 
Q 3425 2491 3425 1978 
L 3425 0 
L 2847 0 
L 2847 2094 
Q 2847 2600 2669 2842 
Q 2491 3084 2119 3084 
Q 1678 3084 1418 2786 
Q 1159 2488 1159 1978 
L 1159 0 
L 581 0 
L 581 3500 
L 1159 3500 
L 1159 2956 
Q 1356 3278 1631 3431 
Q 1906 3584 2284 3584 
Q 2666 3584 2933 3390 
Q 3200 3197 3328 2828 
z
" transform="scale(0.015625)"/>
       <path id="DejaVuSans-70" d="M 1159 525 
L 1159 -1331 
L 581 -1331 
L 581 3500 
L 1159 3500 
L 1159 2969 
Q 1341 3281 1617 3432 
Q 1894 3584 2278 3584 
Q 2916 3584 3314 3078 
Q 3713 2572 3713 1747 
Q 3713 922 3314 415 
Q 2916 -91 2278 -91 
Q 1894 -91 1617 61 
Q 1341 213 1159 525 
z
M 3116 1747 
Q 3116 2381 2855 2742 
Q 2594 3103 2138 3103 
Q 1681 3103 1420 2742 
Q 1159 2381 1159 1747 
Q 1159 1113 1420 752 
Q 1681 391 2138 391 
Q 2594 391 2855 752 
Q 3116 1113 3116 1747 
z
" transform="scale(0.015625)"/>
       <path id="DejaVuSans-6c" d="M 603 4863 
L 1178 4863 
L 1178 0 
L 603 0 
L 603 4863 
z
" transform="scale(0.015625)"/>
       <path id="DejaVuSans-65" d="M 3597 1894 
L 3597 1613 
L 953 1613 
Q 991 1019 1311 708 
Q 1631 397 2203 397 
Q 2534 397 2845 478 
Q 3156 559 3463 722 
L 3463 178 
Q 3153 47 2828 -22 
Q 2503 -91 2169 -91 
Q 1331 -91 842 396 
Q 353 884 353 1716 
Q 353 2575 817 3079 
Q 1281 3584 2069 3584 
Q 2775 3584 3186 3129 
Q 3597 2675 3597 1894 
z
M 3022 2063 
Q 3016 2534 2758 2815 
Q 2500 3097 2075 3097 
Q 1594 3097 1305 2825 
Q 1016 2553 972 2059 
L 3022 2063 
z
" transform="scale(0.015625)"/>
       <path id="DejaVuSans-2c" d="M 750 794 
L 1409 794 
L 1409 256 
L 897 -744 
L 494 -744 
L 750 256 
L 750 794 
z
" transform="scale(0.015625)"/>
       <path id="DejaVuSans-20" transform="scale(0.015625)"/>
       <path id="DejaVuSans-Oblique-6e" d="M 3566 2113 
L 3156 0 
L 2578 0 
L 2988 2091 
Q 3016 2238 3031 2350 
Q 3047 2463 3047 2528 
Q 3047 2791 2881 2937 
Q 2716 3084 2419 3084 
Q 1956 3084 1622 2776 
Q 1288 2469 1184 1941 
L 800 0 
L 225 0 
L 903 3500 
L 1478 3500 
L 1363 2950 
Q 1603 3253 1940 3418 
Q 2278 3584 2650 3584 
Q 3113 3584 3367 3334 
Q 3622 3084 3622 2631 
Q 3622 2519 3608 2391 
Q 3594 2263 3566 2113 
z
" transform="scale(0.015625)"/>
      </defs>
      <use xlink:href="#DejaVuSans-53" transform="translate(0 0.015625)"/>
      <use xlink:href="#DejaVuSans-61" transform="translate(63.476562 0.015625)"/>
      <use xlink:href="#DejaVuSans-6d" transform="translate(124.755859 0.015625)"/>
      <use xlink:href="#DejaVuSans-70" transform="translate(222.167969 0.015625)"/>
      <use xlink:href="#DejaVuSans-6c" transform="translate(285.644531 0.015625)"/>
      <use xlink:href="#DejaVuSans-65" transform="translate(313.427734 0.015625)"/>
      <use xlink:href="#DejaVuSans-2c" transform="translate(374.951172 0.015625)"/>
      <use xlink:href="#DejaVuSans-20" transform="translate(406.738281 0.015625)"/>
      <use xlink:href="#DejaVuSans-Oblique-6e" transform="translate(438.525391 0.015625)"/>
     </g>
    </g>
   </g>
   <g id="matplotlib.axis_2">
    <g id="ytick_1">
     <g id="line2d_19">
      <path d="M 52.160938 243.115913 
L 568.8 243.115913 
" clip-path="url(#pd75528578a)" style="fill: none; stroke-dasharray: 2.96,1.28; stroke-dashoffset: 0; stroke: #b0b0b0; stroke-opacity: 0.8; stroke-width: 0.8"/>
     </g>
     <g id="line2d_20">
      <defs>
       <path id="m7d0d5c0d79" d="M 0 0 
L -3.5 0 
" style="stroke: #000000; stroke-width: 0.8"/>
      </defs>
      <g>
       <use xlink:href="#m7d0d5c0d79" x="52.160938" y="243.115913" style="stroke: #000000; stroke-width: 0.8"/>
      </g>
     </g>
     <g id="text_11">
      <!-- −0.4 -->
      <g transform="translate(20.878125 246.915131) scale(0.1 -0.1)">
       <defs>
        <path id="DejaVuSans-2212" d="M 678 2272 
L 4684 2272 
L 4684 1741 
L 678 1741 
L 678 2272 
z
" transform="scale(0.015625)"/>
        <path id="DejaVuSans-2e" d="M 684 794 
L 1344 794 
L 1344 0 
L 684 0 
L 684 794 
z
" transform="scale(0.015625)"/>
       </defs>
       <use xlink:href="#DejaVuSans-2212"/>
       <use xlink:href="#DejaVuSans-30" transform="translate(83.789062 0)"/>
       <use xlink:href="#DejaVuSans-2e" transform="translate(147.412109 0)"/>
       <use xlink:href="#DejaVuSans-34" transform="translate(179.199219 0)"/>
      </g>
     </g>
    </g>
    <g id="ytick_2">
     <g id="line2d_21">
      <path d="M 52.160938 214.752397 
L 568.8 214.752397 
" clip-path="url(#pd75528578a)" style="fill: none; stroke-dasharray: 2.96,1.28; stroke-dashoffset: 0; stroke: #b0b0b0; stroke-opacity: 0.8; stroke-width: 0.8"/>
     </g>
     <g id="line2d_22">
      <g>
       <use xlink:href="#m7d0d5c0d79" x="52.160938" y="214.752397" style="stroke: #000000; stroke-width: 0.8"/>
      </g>
     </g>
     <g id="text_12">
      <!-- −0.3 -->
      <g transform="translate(20.878125 218.551616) scale(0.1 -0.1)">
       <use xlink:href="#DejaVuSans-2212"/>
       <use xlink:href="#DejaVuSans-30" transform="translate(83.789062 0)"/>
       <use xlink:href="#DejaVuSans-2e" transform="translate(147.412109 0)"/>
       <use xlink:href="#DejaVuSans-33" transform="translate(179.199219 0)"/>
      </g>
     </g>
    </g>
    <g id="ytick_3">
     <g id="line2d_23">
      <path d="M 52.160938 186.388882 
L 568.8 186.388882 
" clip-path="url(#pd75528578a)" style="fill: none; stroke-dasharray: 2.96,1.28; stroke-dashoffset: 0; stroke: #b0b0b0; stroke-opacity: 0.8; stroke-width: 0.8"/>
     </g>
     <g id="line2d_24">
      <g>
       <use xlink:href="#m7d0d5c0d79" x="52.160938" y="186.388882" style="stroke: #000000; stroke-width: 0.8"/>
      </g>
     </g>
     <g id="text_13">
      <!-- −0.2 -->
      <g transform="translate(20.878125 190.188101) scale(0.1 -0.1)">
       <use xlink:href="#DejaVuSans-2212"/>
       <use xlink:href="#DejaVuSans-30" transform="translate(83.789062 0)"/>
       <use xlink:href="#DejaVuSans-2e" transform="translate(147.412109 0)"/>
       <use xlink:href="#DejaVuSans-32" transform="translate(179.199219 0)"/>
      </g>
     </g>
    </g>
    <g id="ytick_4">
     <g id="line2d_25">
      <path d="M 52.160938 158.025367 
L 568.8 158.025367 
" clip-path="url(#pd75528578a)" style="fill: none; stroke-dasharray: 2.96,1.28; stroke-dashoffset: 0; stroke: #b0b0b0; stroke-opacity: 0.8; stroke-width: 0.8"/>
     </g>
     <g id="line2d_26">
      <g>
       <use xlink:href="#m7d0d5c0d79" x="52.160938" y="158.025367" style="stroke: #000000; stroke-width: 0.8"/>
      </g>
     </g>
     <g id="text_14">
      <!-- −0.1 -->
      <g transform="translate(20.878125 161.824586) scale(0.1 -0.1)">
       <use xlink:href="#DejaVuSans-2212"/>
       <use xlink:href="#DejaVuSans-30" transform="translate(83.789062 0)"/>
       <use xlink:href="#DejaVuSans-2e" transform="translate(147.412109 0)"/>
       <use xlink:href="#DejaVuSans-31" transform="translate(179.199219 0)"/>
      </g>
     </g>
    </g>
    <g id="ytick_5">
     <g id="line2d_27">
      <path d="M 52.160938 129.661852 
L 568.8 129.661852 
" clip-path="url(#pd75528578a)" style="fill: none; stroke-dasharray: 2.96,1.28; stroke-dashoffset: 0; stroke: #b0b0b0; stroke-opacity: 0.8; stroke-width: 0.8"/>
     </g>
     <g id="line2d_28">
      <g>
       <use xlink:href="#m7d0d5c0d79" x="52.160938" y="129.661852" style="stroke: #000000; stroke-width: 0.8"/>
      </g>
     </g>
     <g id="text_15">
      <!-- 0.0 -->
      <g transform="translate(29.257812 133.461071) scale(0.1 -0.1)">
       <use xlink:href="#DejaVuSans-30"/>
       <use xlink:href="#DejaVuSans-2e" transform="translate(63.623047 0)"/>
       <use xlink:href="#DejaVuSans-30" transform="translate(95.410156 0)"/>
      </g>
     </g>
    </g>
    <g id="ytick_6">
     <g id="line2d_29">
      <path d="M 52.160938 101.298337 
L 568.8 101.298337 
" clip-path="url(#pd75528578a)" style="fill: none; stroke-dasharray: 2.96,1.28; stroke-dashoffset: 0; stroke: #b0b0b0; stroke-opacity: 0.8; stroke-width: 0.8"/>
     </g>
     <g id="line2d_30">
      <g>
       <use xlink:href="#m7d0d5c0d79" x="52.160938" y="101.298337" style="stroke: #000000; stroke-width: 0.8"/>
      </g>
     </g>
     <g id="text_16">
      <!-- 0.1 -->
      <g transform="translate(29.257812 105.097555) scale(0.1 -0.1)">
       <use xlink:href="#DejaVuSans-30"/>
       <use xlink:href="#DejaVuSans-2e" transform="translate(63.623047 0)"/>
       <use xlink:href="#DejaVuSans-31" transform="translate(95.410156 0)"/>
      </g>
     </g>
    </g>
    <g id="ytick_7">
     <g id="line2d_31">
      <path d="M 52.160938 72.934821 
L 568.8 72.934821 
" clip-path="url(#pd75528578a)" style="fill: none; stroke-dasharray: 2.96,1.28; stroke-dashoffset: 0; stroke: #b0b0b0; stroke-opacity: 0.8; stroke-width: 0.8"/>
     </g>
     <g id="line2d_32">
      <g>
       <use xlink:href="#m7d0d5c0d79" x="52.160938" y="72.934821" style="stroke: #000000; stroke-width: 0.8"/>
      </g>
     </g>
     <g id="text_17">
      <!-- 0.2 -->
      <g transform="translate(29.257812 76.73404) scale(0.1 -0.1)">
       <use xlink:href="#DejaVuSans-30"/>
       <use xlink:href="#DejaVuSans-2e" transform="translate(63.623047 0)"/>
       <use xlink:href="#DejaVuSans-32" transform="translate(95.410156 0)"/>
      </g>
     </g>
    </g>
    <g id="ytick_8">
     <g id="line2d_33">
      <path d="M 52.160938 44.571306 
L 568.8 44.571306 
" clip-path="url(#pd75528578a)" style="fill: none; stroke-dasharray: 2.96,1.28; stroke-dashoffset: 0; stroke: #b0b0b0; stroke-opacity: 0.8; stroke-width: 0.8"/>
     </g>
     <g id="line2d_34">
      <g>
       <use xlink:href="#m7d0d5c0d79" x="52.160938" y="44.571306" style="stroke: #000000; stroke-width: 0.8"/>
      </g>
     </g>
     <g id="text_18">
      <!-- 0.3 -->
      <g transform="translate(29.257812 48.370525) scale(0.1 -0.1)">
       <use xlink:href="#DejaVuSans-30"/>
       <use xlink:href="#DejaVuSans-2e" transform="translate(63.623047 0)"/>
       <use xlink:href="#DejaVuSans-33" transform="translate(95.410156 0)"/>
      </g>
     </g>
    </g>
    <g id="ytick_9">
     <g id="line2d_35">
      <path d="M 52.160938 16.207791 
L 568.8 16.207791 
" clip-path="url(#pd75528578a)" style="fill: none; stroke-dasharray: 2.96,1.28; stroke-dashoffset: 0; stroke: #b0b0b0; stroke-opacity: 0.8; stroke-width: 0.8"/>
     </g>
     <g id="line2d_36">
      <g>
       <use xlink:href="#m7d0d5c0d79" x="52.160938" y="16.207791" style="stroke: #000000; stroke-width: 0.8"/>
      </g>
     </g>
     <g id="text_19">
      <!-- 0.4 -->
      <g transform="translate(29.257812 20.00701) scale(0.1 -0.1)">
       <use xlink:href="#DejaVuSans-30"/>
       <use xlink:href="#DejaVuSans-2e" transform="translate(63.623047 0)"/>
       <use xlink:href="#DejaVuSans-34" transform="translate(95.410156 0)"/>
      </g>
     </g>
    </g>
    <g id="text_20">
     <!-- Amplitude -->
     <g transform="translate(14.798437 154.433594) rotate(-90) scale(0.1 -0.1)">
      <defs>
       <path id="DejaVuSans-41" d="M 2188 4044 
L 1331 1722 
L 3047 1722 
L 2188 4044 
z
M 1831 4666 
L 2547 4666 
L 4325 0 
L 3669 0 
L 3244 1197 
L 1141 1197 
L 716 0 
L 50 0 
L 1831 4666 
z
" transform="scale(0.015625)"/>
       <path id="DejaVuSans-69" d="M 603 3500 
L 1178 3500 
L 1178 0 
L 603 0 
L 603 3500 
z
M 603 4863 
L 1178 4863 
L 1178 4134 
L 603 4134 
L 603 4863 
z
" transform="scale(0.015625)"/>
       <path id="DejaVuSans-74" d="M 1172 4494 
L 1172 3500 
L 2356 3500 
L 2356 3053 
L 1172 3053 
L 1172 1153 
Q 1172 725 1289 603 
Q 1406 481 1766 481 
L 2356 481 
L 2356 0 
L 1766 0 
Q 1100 0 847 248 
Q 594 497 594 1153 
L 594 3053 
L 172 3053 
L 172 3500 
L 594 3500 
L 594 4494 
L 1172 4494 
z
" transform="scale(0.015625)"/>
       <path id="DejaVuSans-75" d="M 544 1381 
L 544 3500 
L 1119 3500 
L 1119 1403 
Q 1119 906 1312 657 
Q 1506 409 1894 409 
Q 2359 409 2629 706 
Q 2900 1003 2900 1516 
L 2900 3500 
L 3475 3500 
L 3475 0 
L 2900 0 
L 2900 538 
Q 2691 219 2414 64 
Q 2138 -91 1772 -91 
Q 1169 -91 856 284 
Q 544 659 544 1381 
z
M 1991 3584 
L 1991 3584 
z
" transform="scale(0.015625)"/>
       <path id="DejaVuSans-64" d="M 2906 2969 
L 2906 4863 
L 3481 4863 
L 3481 0 
L 2906 0 
L 2906 525 
Q 2725 213 2448 61 
Q 2172 -91 1784 -91 
Q 1150 -91 751 415 
Q 353 922 353 1747 
Q 353 2572 751 3078 
Q 1150 3584 1784 3584 
Q 2172 3584 2448 3432 
Q 2725 3281 2906 2969 
z
M 947 1747 
Q 947 1113 1208 752 
Q 1469 391 1925 391 
Q 2381 391 2643 752 
Q 2906 1113 2906 1747 
Q 2906 2381 2643 2742 
Q 2381 3103 1925 3103 
Q 1469 3103 1208 2742 
Q 947 2381 947 1747 
z
" transform="scale(0.015625)"/>
      </defs>
      <use xlink:href="#DejaVuSans-41"/>
      <use xlink:href="#DejaVuSans-6d" transform="translate(68.408203 0)"/>
      <use xlink:href="#DejaVuSans-70" transform="translate(165.820312 0)"/>
      <use xlink:href="#DejaVuSans-6c" transform="translate(229.296875 0)"/>
      <use xlink:href="#DejaVuSans-69" transform="translate(257.080078 0)"/>
      <use xlink:href="#DejaVuSans-74" transform="translate(284.863281 0)"/>
      <use xlink:href="#DejaVuSans-75" transform="translate(324.072266 0)"/>
      <use xlink:href="#DejaVuSans-64" transform="translate(387.451172 0)"/>
      <use xlink:href="#DejaVuSans-65" transform="translate(450.927734 0)"/>
     </g>
    </g>
   </g>
   <g id="line2d_37">
    <path d="M 75.644531 136.751885 
L 76.821654 173.809937 
L 77.998776 204.975398 
L 79.175899 218.141914 
L 80.353021 227.192159 
L 81.530144 221.776688 
L 83.884389 167.295918 
L 87.415756 54.555053 
L 88.592879 40.339991 
L 89.770001 33.197059 
L 90.947124 38.121514 
L 92.124246 52.244127 
L 93.301369 93.265206 
L 94.478491 128.468043 
L 95.655614 176.129152 
L 96.832736 203.839186 
L 98.009859 226.403538 
L 99.186981 228.759729 
L 100.364104 222.486749 
L 101.541226 208.32763 
L 102.718349 165.193741 
L 103.895471 131.920808 
L 105.072594 171.70254 
L 107.426839 223.470107 
L 108.603961 224.191751 
L 109.781084 226.943577 
L 110.958206 201.26624 
L 112.135329 172.404253 
L 113.312451 125.93269 
L 114.489574 167.389854 
L 115.666696 202.993685 
L 116.843819 224.257647 
L 118.020941 231.901162 
L 119.198064 221.0331 
L 120.375186 192.850332 
L 121.552309 167.64125 
L 122.729431 124.950604 
L 123.906553 87.348219 
L 125.083676 65.030466 
L 126.260798 38.399518 
L 127.437921 26.435673 
L 128.615043 44.194321 
L 129.792166 57.410616 
L 130.969288 96.879343 
L 132.146411 126.726099 
L 134.500656 197.767511 
L 135.677778 227.539307 
L 136.854901 222.053859 
L 138.032023 224.261356 
L 141.563391 134.039362 
L 142.740513 91.160636 
L 145.094758 35.429872 
L 146.271881 27.000206 
L 147.449003 42.812987 
L 148.626126 64.253402 
L 149.803248 89.796108 
L 150.980371 128.027568 
L 152.157493 88.972407 
L 154.511738 39.623435 
L 155.688861 31.140481 
L 156.865983 37.638554 
L 158.043106 57.61779 
L 159.220228 91.586684 
L 160.397351 130.701892 
L 162.751596 198.550806 
L 163.928718 220.356892 
L 165.105841 239.315291 
L 166.282963 226.428579 
L 167.460086 195.813607 
L 168.637208 170.883877 
L 169.814331 127.968374 
L 172.168576 207.476324 
L 173.345698 223.382859 
L 174.522821 224.787759 
L 175.699943 215.55697 
L 176.877066 200.934262 
L 178.054188 160.918494 
L 179.231311 132.06662 
L 181.585556 53.644786 
L 182.762678 39.459741 
L 183.939801 33.942726 
L 185.116923 37.8532 
L 186.294046 58.453698 
L 187.471168 96.583911 
L 188.648291 127.248257 
L 191.002536 193.993363 
L 192.179658 218.082128 
L 193.356781 230.381583 
L 194.533903 220.700232 
L 195.711026 202.308347 
L 196.888148 175.554695 
L 198.065271 132.679584 
L 200.419516 209.549448 
L 201.596638 222.201991 
L 202.773761 239.366335 
L 203.950883 229.462682 
L 205.128006 194.998861 
L 206.305128 153.779452 
L 207.482251 129.864729 
L 208.659373 90.604989 
L 209.836496 56.973586 
L 211.013618 38.166004 
L 212.190741 40.615486 
L 213.367863 38.170866 
L 214.544986 54.263841 
L 215.722108 98.015318 
L 216.89923 131.38247 
L 219.253475 62.322746 
L 221.60772 18.25554 
L 222.784843 38.071431 
L 223.961965 52.17469 
L 225.139088 94.372259 
L 226.31621 123.999414 
L 228.670455 65.692555 
L 229.847578 30.281497 
L 231.0247 24.342817 
L 232.201823 35.949983 
L 233.378945 62.939019 
L 238.087435 203.100915 
L 239.264558 216.024028 
L 240.44168 234.711331 
L 241.618803 220.123643 
L 242.795925 193.11427 
L 243.973048 170.741711 
L 245.15017 124.777076 
L 246.327293 172.597816 
L 247.504415 200.522303 
L 248.681538 224.994657 
L 249.85866 232.007039 
L 251.035783 220.30676 
L 252.212905 198.80835 
L 253.390028 167.546064 
L 254.56715 124.309084 
L 255.744273 94.675987 
L 256.921395 58.804628 
L 258.098518 36.444253 
L 259.27564 31.640224 
L 260.452763 34.127051 
L 261.629885 59.254157 
L 262.807008 87.64573 
L 265.161253 175.438746 
L 266.338375 205.31942 
L 267.515498 218.588355 
L 268.69262 233.893414 
L 269.869743 220.261958 
L 271.046865 197.425685 
L 272.223988 171.470699 
L 273.40111 131.628673 
L 274.578233 171.853643 
L 275.755355 200.548128 
L 276.932478 219.81973 
L 278.1096 225.246594 
L 279.286723 221.93461 
L 280.463845 202.889907 
L 281.640968 170.970096 
L 282.81809 132.367193 
L 283.995213 170.067394 
L 285.172335 200.395292 
L 286.349458 220.053346 
L 287.52658 233.202717 
L 288.703703 214.038853 
L 289.880825 201.973883 
L 291.057948 169.411414 
L 292.23507 123.774001 
L 293.412193 166.687865 
L 294.589315 200.318023 
L 295.766438 216.314749 
L 296.94356 226.891662 
L 298.120683 219.803903 
L 299.297805 200.732063 
L 300.474928 175.261454 
L 301.65205 129.211429 
L 302.829173 171.489137 
L 305.183418 224.239865 
L 306.36054 233.896414 
L 307.537663 226.841835 
L 308.714785 200.082899 
L 311.06903 129.490756 
L 312.246152 167.404582 
L 313.423275 195.945733 
L 314.600397 219.249449 
L 315.77752 226.45222 
L 316.954642 221.783966 
L 318.131765 196.663183 
L 319.308887 168.27775 
L 320.48601 135.024105 
L 322.840255 206.439004 
L 324.017377 222.563104 
L 325.1945 229.329546 
L 326.371622 225.535461 
L 328.725867 168.401961 
L 329.90299 123.715729 
L 331.080112 88.080865 
L 332.257235 56.017215 
L 333.434357 49.025612 
L 334.61148 31.964095 
L 335.788602 27.886841 
L 338.142847 87.88781 
L 339.31997 134.984612 
L 341.674215 61.428873 
L 342.851337 29.38975 
L 344.02846 37.32079 
L 345.205582 37.347268 
L 346.382705 61.274874 
L 347.559827 101.398339 
L 348.73695 133.049035 
L 349.914072 167.957961 
L 351.091195 199.05376 
L 352.268317 225.206981 
L 353.44544 229.414591 
L 354.622562 221.726414 
L 355.799685 209.207976 
L 356.976807 160.482843 
L 358.15393 117.110863 
L 359.331052 97.859842 
L 360.508175 62.983593 
L 361.685297 43.800902 
L 362.86242 38.420623 
L 364.039542 43.316914 
L 365.216665 51.561773 
L 366.393787 82.298748 
L 367.57091 121.753881 
L 368.748032 90.43317 
L 369.925155 54.82349 
L 371.102277 31.68269 
L 372.2794 30.425986 
L 373.456522 34.811432 
L 374.633645 53.564218 
L 375.810767 85.560399 
L 376.98789 130.603557 
L 378.165012 86.219 
L 379.342135 57.931148 
L 380.519257 33.506557 
L 381.69638 27.748717 
L 382.873502 33.920448 
L 384.050625 63.210942 
L 385.227747 83.859803 
L 386.40487 119.111091 
L 387.581992 87.390391 
L 389.936237 37.602419 
L 391.11336 23.415583 
L 392.290482 32.961938 
L 394.644727 91.14963 
L 395.82185 135.179754 
L 396.998972 90.300789 
L 398.176095 59.845314 
L 399.353217 34.380574 
L 400.53034 18.551093 
L 401.707462 36.284033 
L 402.884585 60.200304 
L 404.061707 91.076151 
L 405.238829 125.188025 
L 406.415952 175.446027 
L 408.770197 219.008259 
L 409.947319 230.127375 
L 411.124442 225.223822 
L 412.301564 193.16317 
L 413.478687 169.738319 
L 415.832932 91.366352 
L 417.010054 65.307471 
L 418.187177 30.351822 
L 419.364299 20.843214 
L 420.541422 38.736441 
L 421.718544 53.918404 
L 425.249912 168.722257 
L 426.427034 193.435026 
L 427.604157 223.001275 
L 428.781279 224.022704 
L 429.958402 224.515702 
L 431.135524 204.258811 
L 432.312647 168.804113 
L 433.489769 122.970817 
L 434.666892 93.594897 
L 435.844014 60.973341 
L 437.021137 44.439712 
L 438.198259 30.538747 
L 439.375382 37.913137 
L 440.552504 53.40837 
L 441.729627 84.954575 
L 442.906749 133.038115 
L 444.083872 90.885596 
L 445.260994 54.90551 
L 446.438117 41.795732 
L 447.615239 25.479436 
L 448.792362 28.242276 
L 449.969484 60.915657 
L 451.146607 90.230155 
L 452.323729 129.419448 
L 453.500852 177.947126 
L 454.677974 201.257608 
L 455.855097 218.615018 
L 457.032219 222.947802 
L 458.209342 223.046739 
L 459.386464 202.419836 
L 460.563587 176.415918 
L 461.740709 127.60971 
L 462.917832 173.434635 
L 464.094954 201.170456 
L 465.272077 224.063387 
L 466.449199 222.547988 
L 467.626322 219.428293 
L 468.803444 198.878931 
L 469.980567 167.265223 
L 471.157689 129.098747 
L 472.334812 158.085348 
L 473.511934 199.478445 
L 474.689057 221.112088 
L 475.866179 226.706783 
L 477.043302 219.379878 
L 478.220424 202.890657 
L 480.574669 129.024425 
L 481.751792 162.529763 
L 482.928914 202.800619 
L 484.106037 223.38833 
L 485.283159 237.51658 
L 486.460282 222.628042 
L 487.637404 201.870742 
L 488.814527 170.361122 
L 491.168772 83.821414 
L 492.345894 52.220248 
L 494.700139 27.097614 
L 495.877262 39.067681 
L 497.054384 53.381721 
L 499.408629 129.432337 
L 500.585751 176.448361 
L 501.762874 199.68845 
L 502.939996 218.616021 
L 504.117119 223.344293 
L 505.294241 225.775888 
L 506.471364 203.014039 
L 507.648486 166.128389 
L 508.825609 135.600444 
L 510.002731 87.575995 
L 511.179854 50.752958 
L 512.356976 34.301858 
L 513.534099 20.708424 
L 514.711221 38.057631 
L 517.065466 93.027173 
L 518.242589 131.088066 
L 519.419711 94.71948 
L 520.596834 53.299348 
L 521.773956 41.858986 
L 522.951079 35.52927 
L 524.128201 30.524894 
L 525.305324 55.286361 
L 526.482446 95.946044 
L 527.659569 120.585853 
L 528.836691 170.964422 
L 530.013814 195.715857 
L 531.190936 223.282389 
L 532.368059 230.916681 
L 533.545181 226.50052 
L 534.722304 204.02126 
L 537.076549 131.712305 
L 538.253671 89.103327 
L 539.430794 61.765619 
L 540.607916 39.663866 
L 541.785039 34.962888 
L 542.962161 36.966168 
L 544.139284 61.092722 
L 545.316406 97.079888 
L 545.316406 97.079888 
" clip-path="url(#pd75528578a)" style="fill: none; stroke: #1f77b4; stroke-linecap: square"/>
   </g>
   <g id="line2d_38">
    <path d="M 75.644531 119.636727 
L 76.821654 129.836452 
L 77.998776 128.16993 
L 79.175899 134.731982 
L 80.353021 128.950954 
L 82.707266 54.024125 
L 83.884389 46.36 
L 85.061511 23.163409 
L 86.238634 40.790031 
L 87.415756 60.959318 
L 88.592879 89.174287 
L 90.947124 168.072126 
L 92.124246 203.15907 
L 93.301369 223.459868 
L 94.478491 237.240817 
L 95.655614 223.55598 
L 96.832736 204.249279 
L 98.009859 168.957715 
L 99.186981 124.187494 
L 100.364104 169.354306 
L 101.541226 201.405706 
L 102.718349 220.231042 
L 103.895471 226.054676 
L 105.072594 219.897353 
L 106.249716 201.372837 
L 107.426839 172.310814 
L 108.603961 132.74429 
L 109.781084 168.267874 
L 110.958206 194.931416 
L 112.135329 216.480078 
L 113.312451 230.999532 
L 114.489574 218.678838 
L 115.666696 200.22797 
L 118.020941 133.346741 
L 120.375186 202.245618 
L 121.552309 217.9026 
L 122.729431 231.361267 
L 123.906553 230.652095 
L 126.260798 164.644779 
L 127.437921 129.81644 
L 128.615043 171.744369 
L 129.792166 197.109707 
L 130.969288 217.010283 
L 132.146411 222.780849 
L 133.323533 225.282488 
L 134.500656 196.417744 
L 135.677778 175.180213 
L 136.854901 131.088927 
L 138.032023 93.553118 
L 139.209146 61.086044 
L 140.386268 40.113002 
L 141.563391 24.356232 
L 142.740513 37.1464 
L 143.917636 56.872262 
L 145.094758 89.343522 
L 146.271881 126.575651 
L 148.626126 56.672566 
L 149.803248 37.801939 
L 150.980371 31.044244 
L 152.157493 30.29331 
L 154.511738 88.784789 
L 155.688861 134.24293 
L 156.865983 92.842168 
L 158.043106 59.505996 
L 159.220228 37.077186 
L 160.397351 32.274794 
L 161.574473 38.032299 
L 162.751596 55.083295 
L 163.928718 91.725912 
L 165.105841 133.681603 
L 167.460086 53.097492 
L 168.637208 32.893403 
L 169.814331 34.787976 
L 170.991453 31.993101 
L 172.168576 52.466459 
L 173.345698 99.152293 
L 174.522821 130.502989 
L 175.699943 85.357893 
L 176.877066 55.493529 
L 178.054188 40.009103 
L 179.231311 29.831808 
L 180.408433 29.224711 
L 181.585556 60.692189 
L 182.762678 88.981663 
L 183.939801 135.762109 
L 185.116923 169.173704 
L 186.294046 205.774121 
L 187.471168 222.969076 
L 188.648291 229.69465 
L 189.825413 225.03413 
L 191.002536 204.7552 
L 192.179658 171.944029 
L 193.356781 129.80182 
L 194.533903 93.793521 
L 196.888148 34.764401 
L 198.065271 28.926583 
L 199.242393 38.240961 
L 200.419516 61.767783 
L 202.773761 121.695295 
L 205.128006 207.954156 
L 206.305128 224.658471 
L 207.482251 232.338938 
L 208.659373 226.916237 
L 211.013618 172.000059 
L 212.190741 129.46438 
L 214.544986 196.76641 
L 215.722108 222.594882 
L 216.89923 224.690393 
L 218.076353 220.36948 
L 219.253475 203.438559 
L 220.430598 174.184641 
L 221.60772 128.996305 
L 223.961965 201.298224 
L 225.139088 223.494689 
L 226.31621 226.804008 
L 227.493333 229.75763 
L 229.847578 169.528993 
L 231.0247 131.202179 
L 232.201823 163.70671 
L 233.378945 202.074516 
L 234.556068 227.568545 
L 235.73319 226.916995 
L 236.910313 214.346049 
L 238.087435 200.047734 
L 239.264558 168.475235 
L 240.44168 127.574403 
L 241.618803 169.397067 
L 242.795925 202.737843 
L 243.973048 213.654612 
L 245.15017 228.586815 
L 246.327293 229.980918 
L 247.504415 203.038005 
L 252.212905 57.495311 
L 253.390028 39.374306 
L 254.56715 30.500198 
L 255.744273 39.498247 
L 256.921395 54.225737 
L 258.098518 90.086072 
L 260.452763 169.140171 
L 262.807008 224.091939 
L 263.98413 227.023444 
L 265.161253 221.178069 
L 266.338375 197.084796 
L 267.515498 161.494023 
L 268.69262 130.947851 
L 269.869743 85.335851 
L 271.046865 58.057304 
L 272.223988 40.074109 
L 273.40111 27.964826 
L 274.578233 34.146563 
L 275.755355 61.839388 
L 276.932478 96.475541 
L 278.1096 135.57621 
L 279.286723 88.984692 
L 280.463845 58.478238 
L 281.640968 33.252028 
L 282.81809 36.551771 
L 283.995213 42.208778 
L 285.172335 54.202955 
L 286.349458 86.059367 
L 287.52658 125.977976 
L 288.703703 171.69296 
L 289.880825 194.407654 
L 291.057948 213.281324 
L 292.23507 236.132003 
L 293.412193 228.342858 
L 294.589315 204.144904 
L 295.766438 165.553962 
L 296.94356 123.198638 
L 298.120683 169.107417 
L 299.297805 206.951421 
L 300.474928 227.224103 
L 301.65205 235.635197 
L 302.829173 219.417181 
L 305.183418 170.359342 
L 306.36054 137.289108 
L 307.537663 94.366894 
L 308.714785 59.542779 
L 309.891908 33.219601 
L 311.06903 29.640778 
L 312.246152 48.449311 
L 313.423275 56.605247 
L 314.600397 97.203662 
L 315.77752 129.668969 
L 316.954642 89.115904 
L 318.131765 55.270542 
L 319.308887 38.276207 
L 320.48601 29.095654 
L 321.663132 38.562374 
L 322.840255 56.27725 
L 324.017377 93.383877 
L 325.1945 123.239004 
L 326.371622 158.372508 
L 327.548745 201.644859 
L 328.725867 220.222228 
L 329.90299 225.67865 
L 331.080112 229.091366 
L 332.257235 200.832128 
L 333.434357 179.492071 
L 334.61148 132.333296 
L 335.788602 167.117377 
L 336.965725 205.365946 
L 338.142847 213.712552 
L 339.31997 228.975224 
L 340.497092 220.597184 
L 341.674215 195.284745 
L 344.02846 135.913739 
L 345.205582 161.174257 
L 347.559827 218.832032 
L 348.73695 237.989324 
L 349.914072 218.755533 
L 351.091195 201.99106 
L 352.268317 173.253412 
L 354.622562 90.659326 
L 355.799685 58.566711 
L 356.976807 30.780753 
L 358.15393 32.252038 
L 359.331052 34.525932 
L 360.508175 48.783411 
L 361.685297 93.207889 
L 362.86242 128.449132 
L 364.039542 168.688722 
L 365.216665 198.126744 
L 366.393787 216.942893 
L 367.57091 239.128407 
L 368.748032 222.71221 
L 369.925155 202.925594 
L 371.102277 165.215401 
L 372.2794 133.978598 
L 375.810767 223.724501 
L 376.98789 231.496279 
L 378.165012 217.956126 
L 379.342135 197.21046 
L 380.519257 173.051518 
L 381.69638 135.070595 
L 382.873502 172.718183 
L 384.050625 206.527097 
L 385.227747 221.291628 
L 386.40487 225.865464 
L 387.581992 218.063901 
L 388.759115 200.327449 
L 389.936237 165.511416 
L 392.290482 79.289452 
L 393.467605 59.663774 
L 394.644727 36.087304 
L 395.82185 28.82322 
L 396.998972 40.327031 
L 398.176095 49.594673 
L 399.353217 76.583934 
L 400.53034 135.609138 
L 401.707462 89.130356 
L 404.061707 38.53589 
L 405.238829 35.693692 
L 406.415952 43.042088 
L 408.770197 96.731851 
L 409.947319 128.035284 
L 411.124442 168.9642 
L 412.301564 202.52101 
L 413.478687 225.838185 
L 414.655809 235.807805 
L 415.832932 217.666224 
L 417.010054 202.84512 
L 418.187177 164.142775 
L 419.364299 132.845797 
L 421.718544 56.053255 
L 422.895667 32.217354 
L 424.072789 32.436618 
L 425.249912 37.745392 
L 426.427034 54.97669 
L 428.781279 131.3772 
L 429.958402 88.440983 
L 431.135524 51.553985 
L 432.312647 39.672367 
L 433.489769 28.960363 
L 434.666892 29.782835 
L 437.021137 95.582147 
L 438.198259 125.056685 
L 439.375382 163.867677 
L 440.552504 197.753506 
L 441.729627 219.016215 
L 442.906749 230.808988 
L 444.083872 223.541847 
L 445.260994 198.586424 
L 446.438117 166.90119 
L 447.615239 131.409634 
L 448.792362 166.245863 
L 449.969484 204.56247 
L 451.146607 218.810199 
L 452.323729 226.999857 
L 453.500852 220.699032 
L 455.855097 172.976296 
L 457.032219 124.491842 
L 458.209342 86.721093 
L 459.386464 64.825964 
L 460.563587 37.248184 
L 461.740709 25.72784 
L 462.917832 37.998069 
L 464.094954 58.654281 
L 465.272077 95.493651 
L 466.449199 125.776988 
L 467.626322 87.441095 
L 468.803444 59.833693 
L 469.980567 42.40745 
L 471.157689 22.605009 
L 473.511934 57.877543 
L 474.689057 86.39841 
L 477.043302 166.475508 
L 478.220424 198.421363 
L 479.397547 219.028132 
L 480.574669 234.094969 
L 481.751792 223.073837 
L 482.928914 199.944063 
L 484.106037 171.382255 
L 485.283159 136.873822 
L 486.460282 172.813246 
L 487.637404 202.909973 
L 488.814527 226.976534 
L 489.991649 226.465403 
L 491.168772 216.88438 
L 492.345894 194.125147 
L 493.523017 168.392068 
L 494.700139 133.673633 
L 497.054384 204.329777 
L 498.231507 222.722349 
L 499.408629 224.18116 
L 500.585751 226.143755 
L 501.762874 203.454495 
L 502.939996 170.428168 
L 504.117119 129.041364 
L 505.294241 173.672535 
L 506.471364 200.0985 
L 507.648486 221.294564 
L 508.825609 228.729164 
L 510.002731 218.944833 
L 511.179854 201.79919 
L 512.356976 169.99071 
L 513.534099 123.547458 
L 514.711221 88.586821 
L 517.065466 33.347449 
L 518.242589 35.565521 
L 519.419711 39.465127 
L 520.596834 58.036091 
L 521.773956 93.081087 
L 522.951079 137.719183 
L 525.305324 208.334229 
L 527.659569 237.764087 
L 528.836691 222.392902 
L 531.190936 168.836427 
L 533.545181 90.456364 
L 535.899426 33.580161 
L 537.076549 30.965758 
L 538.253671 41.594301 
L 539.430794 59.611057 
L 540.607916 92.24258 
L 541.785039 133.252854 
L 542.962161 160.850296 
L 544.139284 199.80158 
L 545.316406 223.130683 
L 545.316406 223.130683 
" clip-path="url(#pd75528578a)" style="fill: none; stroke: #ff7f0e; stroke-linecap: square"/>
   </g>
   <g id="patch_3">
    <path d="M 52.160938 250.421875 
L 52.160938 7.2 
" style="fill: none; stroke: #000000; stroke-width: 0.8; stroke-linejoin: miter; stroke-linecap: square"/>
   </g>
   <g id="patch_4">
    <path d="M 568.8 250.421875 
L 568.8 7.2 
" style="fill: none; stroke: #000000; stroke-width: 0.8; stroke-linejoin: miter; stroke-linecap: square"/>
   </g>
   <g id="patch_5">
    <path d="M 52.160937 250.421875 
L 568.8 250.421875 
" style="fill: none; stroke: #000000; stroke-width: 0.8; stroke-linejoin: miter; stroke-linecap: square"/>
   </g>
   <g id="patch_6">
    <path d="M 52.160937 7.2 
L 568.8 7.2 
" style="fill: none; stroke: #000000; stroke-width: 0.8; stroke-linejoin: miter; stroke-linecap: square"/>
   </g>
   <g id="legend_1">
    <g id="patch_7">
     <path d="M 59.160938 44.55625 
L 116.15625 44.55625 
Q 118.15625 44.55625 118.15625 42.55625 
L 118.15625 14.2 
Q 118.15625 12.2 116.15625 12.2 
L 59.160938 12.2 
Q 57.160938 12.2 57.160938 14.2 
L 57.160938 42.55625 
Q 57.160938 44.55625 59.160938 44.55625 
z
" style="fill: #ffffff; opacity: 0.8; stroke: #cccccc; stroke-linejoin: miter"/>
    </g>
    <g id="line2d_39">
     <path d="M 61.160938 20.298437 
L 71.160938 20.298437 
L 81.160938 20.298437 
" style="fill: none; stroke: #1f77b4; stroke-linecap: square"/>
    </g>
    <g id="text_21">
     <!-- real -->
     <g transform="translate(89.160938 23.798437) scale(0.1 -0.1)">
      <defs>
       <path id="DejaVuSans-72" d="M 2631 2963 
Q 2534 3019 2420 3045 
Q 2306 3072 2169 3072 
Q 1681 3072 1420 2755 
Q 1159 2438 1159 1844 
L 1159 0 
L 581 0 
L 581 3500 
L 1159 3500 
L 1159 2956 
Q 1341 3275 1631 3429 
Q 1922 3584 2338 3584 
Q 2397 3584 2469 3576 
Q 2541 3569 2628 3553 
L 2631 2963 
z
" transform="scale(0.015625)"/>
      </defs>
      <use xlink:href="#DejaVuSans-72"/>
      <use xlink:href="#DejaVuSans-65" transform="translate(38.863281 0)"/>
      <use xlink:href="#DejaVuSans-61" transform="translate(100.386719 0)"/>
      <use xlink:href="#DejaVuSans-6c" transform="translate(161.666016 0)"/>
     </g>
    </g>
    <g id="line2d_40">
     <path d="M 61.160938 34.976562 
L 71.160938 34.976562 
L 81.160938 34.976562 
" style="fill: none; stroke: #ff7f0e; stroke-linecap: square"/>
    </g>
    <g id="text_22">
     <!-- imag -->
     <g transform="translate(89.160938 38.476562) scale(0.1 -0.1)">
      <defs>
       <path id="DejaVuSans-67" d="M 2906 1791 
Q 2906 2416 2648 2759 
Q 2391 3103 1925 3103 
Q 1463 3103 1205 2759 
Q 947 2416 947 1791 
Q 947 1169 1205 825 
Q 1463 481 1925 481 
Q 2391 481 2648 825 
Q 2906 1169 2906 1791 
z
M 3481 434 
Q 3481 -459 3084 -895 
Q 2688 -1331 1869 -1331 
Q 1566 -1331 1297 -1286 
Q 1028 -1241 775 -1147 
L 775 -588 
Q 1028 -725 1275 -790 
Q 1522 -856 1778 -856 
Q 2344 -856 2625 -561 
Q 2906 -266 2906 331 
L 2906 616 
Q 2728 306 2450 153 
Q 2172 0 1784 0 
Q 1141 0 747 490 
Q 353 981 353 1791 
Q 353 2603 747 3093 
Q 1141 3584 1784 3584 
Q 2172 3584 2450 3431 
Q 2728 3278 2906 2969 
L 2906 3500 
L 3481 3500 
L 3481 434 
z
" transform="scale(0.015625)"/>
      </defs>
      <use xlink:href="#DejaVuSans-69"/>
      <use xlink:href="#DejaVuSans-6d" transform="translate(27.783203 0)"/>
      <use xlink:href="#DejaVuSans-61" transform="translate(125.195312 0)"/>
      <use xlink:href="#DejaVuSans-67" transform="translate(186.474609 0)"/>
     </g>
    </g>
   </g>
  </g>
 </g>
 <defs>
  <clipPath id="pd75528578a">
   <rect x="52.160938" y="7.2" width="516.639063" height="243.221875"/>
  </clipPath>
 </defs>
</svg>
