<?xml version="1.0" encoding="utf-8" standalone="no"?>
<!DOCTYPE svg PUBLIC "-//W3C//DTD SVG 1.1//EN"
  "http://www.w3.org/Graphics/SVG/1.1/DTD/svg11.dtd">
<svg xmlns:xlink="http://www.w3.org/1999/xlink" width="576pt" height="288pt" viewBox="0 0 576 288" xmlns="http://www.w3.org/2000/svg" version="1.1">
 <metadata>
  <rdf:RDF xmlns:dc="http://purl.org/dc/elements/1.1/" xmlns:cc="http://creativecommons.org/ns#" xmlns:rdf="http://www.w3.org/1999/02/22-rdf-syntax-ns#">
   <cc:Work>
    <dc:type rdf:resource="http://purl.org/dc/dcmitype/StillImage"/>
    <dc:date>2026-05-03T17:43:59.628507</dc:date>
    <dc:format>image/svg+xml</dc:format>
    <dc:creator>
     <cc:Agent>
      <dc:title>Matplotlib v3.10.9, https://matplotlib.org/</dc:title>
     </cc:Agent>
    </dc:creator>
   </cc:Work>
  </rdf:RDF>
 </metadata>
 <defs>
  <style type="text/css">*{stroke-linejoin: round; stroke-linecap: butt}</style>
 </defs>
 <g id="figure_1">
  <g id="patch_1">
   <path d="M 0 288 
L 576 288 
L 576 0 
L 0 0 
z
" style="fill: #ffffff"/>
  </g>
  <g id="axes_1">
   <g id="patch_2">
    <path d="M 52.160938 250.421875 
L 568.8 250.421875 
L 568.8 7.2 
L 52.160938 7.2 
z
" style="fill: #ffffff"/>
   </g>
   <g id="matplotlib.axis_1">
    <g id="xtick_1">
     <g id="line2d_1">
      <path d="M 75.644531 250.421875 
L 75.644531 7.2 
" clip-path="url(#p417b2f3d73)" style="fill: none; stroke-dasharray: 2.96,1.28; stroke-dashoffset: 0; stroke: #b0b0b0; stroke-opacity: 0.8; stroke-width: 0.8"/>
     </g>
     <g id="line2d_2">
      <defs>
       <path id="m75def4441a" d="M 0 0 
L 0 3.5 
" style="stroke: #000000; stroke-width: 0.8"/>
      </defs>
      <g>
       <use xlink:href="#m75def4441a" x="75.644531" y="250.421875" style="stroke: #000000; stroke-width: 0.8"/>
      </g>
     </g>
     <g id="text_1">
      <!-- 0 -->
      <g transform="translate(72.463281 265.020312) scale(0.1 -0.1)">
       <defs>
        <path id="DejaVuSans-30" d="M 2034 4250 
Q 1547 4250 1301 3770 
Q 1056 3291 1056 2328 
Q 1056 1369 1301 889 
Q 1547 409 2034 409 
Q 2525 409 2770 889 
Q 3016 1369 3016 2328 
Q 3016 3291 2770 3770 
Q 2525 4250 2034 4250 
z
M 2034 4750 
Q 2819 4750 3233 4129 
Q 3647 3509 3647 2328 
Q 3647 1150 3233 529 
Q 2819 -91 2034 -91 
Q 1250 -91 836 529 
Q 422 1150 422 2328 
Q 422 3509 836 4129 
Q 1250 4750 2034 4750 
z
" transform="scale(0.015625)"/>
       </defs>
       <use xlink:href="#DejaVuSans-30"/>
      </g>
     </g>
    </g>
    <g id="xtick_2">
     <g id="line2d_3">
      <path d="M 134.500656 250.421875 
L 134.500656 7.2 
" clip-path="url(#p417b2f3d73)" style="fill: none; stroke-dasharray: 2.96,1.28; stroke-dashoffset: 0; stroke: #b0b0b0; stroke-opacity: 0.8; stroke-width: 0.8"/>
     </g>
     <g id="line2d_4">
      <g>
       <use xlink:href="#m75def4441a" x="134.500656" y="250.421875" style="stroke: #000000; stroke-width: 0.8"/>
      </g>
     </g>
     <g id="text_2">
      <!-- 50 -->
      <g transform="translate(128.138156 265.020312) scale(0.1 -0.1)">
       <defs>
        <path id="DejaVuSans-35" d="M 691 4666 
L 3169 4666 
L 3169 4134 
L 1269 4134 
L 1269 2991 
Q 1406 3038 1543 3061 
Q 1681 3084 1819 3084 
Q 2600 3084 3056 2656 
Q 3513 2228 3513 1497 
Q 3513 744 3044 326 
Q 2575 -91 1722 -91 
Q 1428 -91 1123 -41 
Q 819 9 494 109 
L 494 744 
Q 775 591 1075 516 
Q 1375 441 1709 441 
Q 2250 441 2565 725 
Q 2881 1009 2881 1497 
Q 2881 1984 2565 2268 
Q 2250 2553 1709 2553 
Q 1456 2553 1204 2497 
Q 953 2441 691 2322 
L 691 4666 
z
" transform="scale(0.015625)"/>
       </defs>
       <use xlink:href="#DejaVuSans-35"/>
       <use xlink:href="#DejaVuSans-30" transform="translate(63.623047 0)"/>
      </g>
     </g>
    </g>
    <g id="xtick_3">
     <g id="line2d_5">
      <path d="M 193.356781 250.421875 
L 193.356781 7.2 
" clip-path="url(#p417b2f3d73)" style="fill: none; stroke-dasharray: 2.96,1.28; stroke-dashoffset: 0; stroke: #b0b0b0; stroke-opacity: 0.8; stroke-width: 0.8"/>
     </g>
     <g id="line2d_6">
      <g>
       <use xlink:href="#m75def4441a" x="193.356781" y="250.421875" style="stroke: #000000; stroke-width: 0.8"/>
      </g>
     </g>
     <g id="text_3">
      <!-- 100 -->
      <g transform="translate(183.813031 265.020312) scale(0.1 -0.1)">
       <defs>
        <path id="DejaVuSans-31" d="M 794 531 
L 1825 531 
L 1825 4091 
L 703 3866 
L 703 4441 
L 1819 4666 
L 2450 4666 
L 2450 531 
L 3481 531 
L 3481 0 
L 794 0 
L 794 531 
z
" transform="scale(0.015625)"/>
       </defs>
       <use xlink:href="#DejaVuSans-31"/>
       <use xlink:href="#DejaVuSans-30" transform="translate(63.623047 0)"/>
       <use xlink:href="#DejaVuSans-30" transform="translate(127.246094 0)"/>
      </g>
     </g>
    </g>
    <g id="xtick_4">
     <g id="line2d_7">
      <path d="M 252.212905 250.421875 
L 252.212905 7.2 
" clip-path="url(#p417b2f3d73)" style="fill: none; stroke-dasharray: 2.96,1.28; stroke-dashoffset: 0; stroke: #b0b0b0; stroke-opacity: 0.8; stroke-width: 0.8"/>
     </g>
     <g id="line2d_8">
      <g>
       <use xlink:href="#m75def4441a" x="252.212905" y="250.421875" style="stroke: #000000; stroke-width: 0.8"/>
      </g>
     </g>
     <g id="text_4">
      <!-- 150 -->
      <g transform="translate(242.669155 265.020312) scale(0.1 -0.1)">
       <use xlink:href="#DejaVuSans-31"/>
       <use xlink:href="#DejaVuSans-35" transform="translate(63.623047 0)"/>
       <use xlink:href="#DejaVuSans-30" transform="translate(127.246094 0)"/>
      </g>
     </g>
    </g>
    <g id="xtick_5">
     <g id="line2d_9">
      <path d="M 311.06903 250.421875 
L 311.06903 7.2 
" clip-path="url(#p417b2f3d73)" style="fill: none; stroke-dasharray: 2.96,1.28; stroke-dashoffset: 0; stroke: #b0b0b0; stroke-opacity: 0.8; stroke-width: 0.8"/>
     </g>
     <g id="line2d_10">
      <g>
       <use xlink:href="#m75def4441a" x="311.06903" y="250.421875" style="stroke: #000000; stroke-width: 0.8"/>
      </g>
     </g>
     <g id="text_5">
      <!-- 200 -->
      <g transform="translate(301.52528 265.020312) scale(0.1 -0.1)">
       <defs>
        <path id="DejaVuSans-32" d="M 1228 531 
L 3431 531 
L 3431 0 
L 469 0 
L 469 531 
Q 828 903 1448 1529 
Q 2069 2156 2228 2338 
Q 2531 2678 2651 2914 
Q 2772 3150 2772 3378 
Q 2772 3750 2511 3984 
Q 2250 4219 1831 4219 
Q 1534 4219 1204 4116 
Q 875 4013 500 3803 
L 500 4441 
Q 881 4594 1212 4672 
Q 1544 4750 1819 4750 
Q 2544 4750 2975 4387 
Q 3406 4025 3406 3419 
Q 3406 3131 3298 2873 
Q 3191 2616 2906 2266 
Q 2828 2175 2409 1742 
Q 1991 1309 1228 531 
z
" transform="scale(0.015625)"/>
       </defs>
       <use xlink:href="#DejaVuSans-32"/>
       <use xlink:href="#DejaVuSans-30" transform="translate(63.623047 0)"/>
       <use xlink:href="#DejaVuSans-30" transform="translate(127.246094 0)"/>
      </g>
     </g>
    </g>
    <g id="xtick_6">
     <g id="line2d_11">
      <path d="M 369.925155 250.421875 
L 369.925155 7.2 
" clip-path="url(#p417b2f3d73)" style="fill: none; stroke-dasharray: 2.96,1.28; stroke-dashoffset: 0; stroke: #b0b0b0; stroke-opacity: 0.8; stroke-width: 0.8"/>
     </g>
     <g id="line2d_12">
      <g>
       <use xlink:href="#m75def4441a" x="369.925155" y="250.421875" style="stroke: #000000; stroke-width: 0.8"/>
      </g>
     </g>
     <g id="text_6">
      <!-- 250 -->
      <g transform="translate(360.381405 265.020312) scale(0.1 -0.1)">
       <use xlink:href="#DejaVuSans-32"/>
       <use xlink:href="#DejaVuSans-35" transform="translate(63.623047 0)"/>
       <use xlink:href="#DejaVuSans-30" transform="translate(127.246094 0)"/>
      </g>
     </g>
    </g>
    <g id="xtick_7">
     <g id="line2d_13">
      <path d="M 428.781279 250.421875 
L 428.781279 7.2 
" clip-path="url(#p417b2f3d73)" style="fill: none; stroke-dasharray: 2.96,1.28; stroke-dashoffset: 0; stroke: #b0b0b0; stroke-opacity: 0.8; stroke-width: 0.8"/>
     </g>
     <g id="line2d_14">
      <g>
       <use xlink:href="#m75def4441a" x="428.781279" y="250.421875" style="stroke: #000000; stroke-width: 0.8"/>
      </g>
     </g>
     <g id="text_7">
      <!-- 300 -->
      <g transform="translate(419.237529 265.020312) scale(0.1 -0.1)">
       <defs>
        <path id="DejaVuSans-33" d="M 2597 2516 
Q 3050 2419 3304 2112 
Q 3559 1806 3559 1356 
Q 3559 666 3084 287 
Q 2609 -91 1734 -91 
Q 1441 -91 1130 -33 
Q 819 25 488 141 
L 488 750 
Q 750 597 1062 519 
Q 1375 441 1716 441 
Q 2309 441 2620 675 
Q 2931 909 2931 1356 
Q 2931 1769 2642 2001 
Q 2353 2234 1838 2234 
L 1294 2234 
L 1294 2753 
L 1863 2753 
Q 2328 2753 2575 2939 
Q 2822 3125 2822 3475 
Q 2822 3834 2567 4026 
Q 2313 4219 1838 4219 
Q 1578 4219 1281 4162 
Q 984 4106 628 3988 
L 628 4550 
Q 988 4650 1302 4700 
Q 1616 4750 1894 4750 
Q 2613 4750 3031 4423 
Q 3450 4097 3450 3541 
Q 3450 3153 3228 2886 
Q 3006 2619 2597 2516 
z
" transform="scale(0.015625)"/>
       </defs>
       <use xlink:href="#DejaVuSans-33"/>
       <use xlink:href="#DejaVuSans-30" transform="translate(63.623047 0)"/>
       <use xlink:href="#DejaVuSans-30" transform="translate(127.246094 0)"/>
      </g>
     </g>
    </g>
    <g id="xtick_8">
     <g id="line2d_15">
      <path d="M 487.637404 250.421875 
L 487.637404 7.2 
" clip-path="url(#p417b2f3d73)" style="fill: none; stroke-dasharray: 2.96,1.28; stroke-dashoffset: 0; stroke: #b0b0b0; stroke-opacity: 0.8; stroke-width: 0.8"/>
     </g>
     <g id="line2d_16">
      <g>
       <use xlink:href="#m75def4441a" x="487.637404" y="250.421875" style="stroke: #000000; stroke-width: 0.8"/>
      </g>
     </g>
     <g id="text_8">
      <!-- 350 -->
      <g transform="translate(478.093654 265.020312) scale(0.1 -0.1)">
       <use xlink:href="#DejaVuSans-33"/>
       <use xlink:href="#DejaVuSans-35" transform="translate(63.623047 0)"/>
       <use xlink:href="#DejaVuSans-30" transform="translate(127.246094 0)"/>
      </g>
     </g>
    </g>
    <g id="xtick_9">
     <g id="line2d_17">
      <path d="M 546.493529 250.421875 
L 546.493529 7.2 
" clip-path="url(#p417b2f3d73)" style="fill: none; stroke-dasharray: 2.96,1.28; stroke-dashoffset: 0; stroke: #b0b0b0; stroke-opacity: 0.8; stroke-width: 0.8"/>
     </g>
     <g id="line2d_18">
      <g>
       <use xlink:href="#m75def4441a" x="546.493529" y="250.421875" style="stroke: #000000; stroke-width: 0.8"/>
      </g>
     </g>
     <g id="text_9">
      <!-- 400 -->
      <g transform="translate(536.949779 265.020312) scale(0.1 -0.1)">
       <defs>
        <path id="DejaVuSans-34" d="M 2419 4116 
L 825 1625 
L 2419 1625 
L 2419 4116 
z
M 2253 4666 
L 3047 4666 
L 3047 1625 
L 3713 1625 
L 3713 1100 
L 3047 1100 
L 3047 0 
L 2419 0 
L 2419 1100 
L 313 1100 
L 313 1709 
L 2253 4666 
z
" transform="scale(0.015625)"/>
       </defs>
       <use xlink:href="#DejaVuSans-34"/>
       <use xlink:href="#DejaVuSans-30" transform="translate(63.623047 0)"/>
       <use xlink:href="#DejaVuSans-30" transform="translate(127.246094 0)"/>
      </g>
     </g>
    </g>
    <g id="text_10">
     <!-- Sample, $n$ -->
     <g transform="translate(285.380469 278.7) scale(0.1 -0.1)">
      <defs>
       <path id="DejaVuSans-53" d="M 3425 4513 
L 3425 3897 
Q 3066 4069 2747 4153 
Q 2428 4238 2131 4238 
Q 1616 4238 1336 4038 
Q 1056 3838 1056 3469 
Q 1056 3159 1242 3001 
Q 1428 2844 1947 2747 
L 2328 2669 
Q 3034 2534 3370 2195 
Q 3706 1856 3706 1288 
Q 3706 609 3251 259 
Q 2797 -91 1919 -91 
Q 1588 -91 1214 -16 
Q 841 59 441 206 
L 441 856 
Q 825 641 1194 531 
Q 1563 422 1919 422 
Q 2459 422 2753 634 
Q 3047 847 3047 1241 
Q 3047 1584 2836 1778 
Q 2625 1972 2144 2069 
L 1759 2144 
Q 1053 2284 737 2584 
Q 422 2884 422 3419 
Q 422 4038 858 4394 
Q 1294 4750 2059 4750 
Q 2388 4750 2728 4690 
Q 3069 4631 3425 4513 
z
" transform="scale(0.015625)"/>
       <path id="DejaVuSans-61" d="M 2194 1759 
Q 1497 1759 1228 1600 
Q 959 1441 959 1056 
Q 959 750 1161 570 
Q 1363 391 1709 391 
Q 2188 391 2477 730 
Q 2766 1069 2766 1631 
L 2766 1759 
L 2194 1759 
z
M 3341 1997 
L 3341 0 
L 2766 0 
L 2766 531 
Q 2569 213 2275 61 
Q 1981 -91 1556 -91 
Q 1019 -91 701 211 
Q 384 513 384 1019 
Q 384 1609 779 1909 
Q 1175 2209 1959 2209 
L 2766 2209 
L 2766 2266 
Q 2766 2663 2505 2880 
Q 2244 3097 1772 3097 
Q 1472 3097 1187 3025 
Q 903 2953 641 2809 
L 641 3341 
Q 956 3463 1253 3523 
Q 1550 3584 1831 3584 
Q 2591 3584 2966 3190 
Q 3341 2797 3341 1997 
z
" transform="scale(0.015625)"/>
       <path id="DejaVuSans-6d" d="M 3328 2828 
Q 3544 3216 3844 3400 
Q 4144 3584 4550 3584 
Q 5097 3584 5394 3201 
Q 5691 2819 5691 2113 
L 5691 0 
L 5113 0 
L 5113 2094 
Q 5113 2597 4934 2840 
Q 4756 3084 4391 3084 
Q 3944 3084 3684 2787 
Q 3425 2491 3425 1978 
L 3425 0 
L 2847 0 
L 2847 2094 
Q 2847 2600 2669 2842 
Q 2491 3084 2119 3084 
Q 1678 3084 1418 2786 
Q 1159 2488 1159 1978 
L 1159 0 
L 581 0 
L 581 3500 
L 1159 3500 
L 1159 2956 
Q 1356 3278 1631 3431 
Q 1906 3584 2284 3584 
Q 2666 3584 2933 3390 
Q 3200 3197 3328 2828 
z
" transform="scale(0.015625)"/>
       <path id="DejaVuSans-70" d="M 1159 525 
L 1159 -1331 
L 581 -1331 
L 581 3500 
L 1159 3500 
L 1159 2969 
Q 1341 3281 1617 3432 
Q 1894 3584 2278 3584 
Q 2916 3584 3314 3078 
Q 3713 2572 3713 1747 
Q 3713 922 3314 415 
Q 2916 -91 2278 -91 
Q 1894 -91 1617 61 
Q 1341 213 1159 525 
z
M 3116 1747 
Q 3116 2381 2855 2742 
Q 2594 3103 2138 3103 
Q 1681 3103 1420 2742 
Q 1159 2381 1159 1747 
Q 1159 1113 1420 752 
Q 1681 391 2138 391 
Q 2594 391 2855 752 
Q 3116 1113 3116 1747 
z
" transform="scale(0.015625)"/>
       <path id="DejaVuSans-6c" d="M 603 4863 
L 1178 4863 
L 1178 0 
L 603 0 
L 603 4863 
z
" transform="scale(0.015625)"/>
       <path id="DejaVuSans-65" d="M 3597 1894 
L 3597 1613 
L 953 1613 
Q 991 1019 1311 708 
Q 1631 397 2203 397 
Q 2534 397 2845 478 
Q 3156 559 3463 722 
L 3463 178 
Q 3153 47 2828 -22 
Q 2503 -91 2169 -91 
Q 1331 -91 842 396 
Q 353 884 353 1716 
Q 353 2575 817 3079 
Q 1281 3584 2069 3584 
Q 2775 3584 3186 3129 
Q 3597 2675 3597 1894 
z
M 3022 2063 
Q 3016 2534 2758 2815 
Q 2500 3097 2075 3097 
Q 1594 3097 1305 2825 
Q 1016 2553 972 2059 
L 3022 2063 
z
" transform="scale(0.015625)"/>
       <path id="DejaVuSans-2c" d="M 750 794 
L 1409 794 
L 1409 256 
L 897 -744 
L 494 -744 
L 750 256 
L 750 794 
z
" transform="scale(0.015625)"/>
       <path id="DejaVuSans-20" transform="scale(0.015625)"/>
       <path id="DejaVuSans-Oblique-6e" d="M 3566 2113 
L 3156 0 
L 2578 0 
L 2988 2091 
Q 3016 2238 3031 2350 
Q 3047 2463 3047 2528 
Q 3047 2791 2881 2937 
Q 2716 3084 2419 3084 
Q 1956 3084 1622 2776 
Q 1288 2469 1184 1941 
L 800 0 
L 225 0 
L 903 3500 
L 1478 3500 
L 1363 2950 
Q 1603 3253 1940 3418 
Q 2278 3584 2650 3584 
Q 3113 3584 3367 3334 
Q 3622 3084 3622 2631 
Q 3622 2519 3608 2391 
Q 3594 2263 3566 2113 
z
" transform="scale(0.015625)"/>
      </defs>
      <use xlink:href="#DejaVuSans-53" transform="translate(0 0.015625)"/>
      <use xlink:href="#DejaVuSans-61" transform="translate(63.476562 0.015625)"/>
      <use xlink:href="#DejaVuSans-6d" transform="translate(124.755859 0.015625)"/>
      <use xlink:href="#DejaVuSans-70" transform="translate(222.167969 0.015625)"/>
      <use xlink:href="#DejaVuSans-6c" transform="translate(285.644531 0.015625)"/>
      <use xlink:href="#DejaVuSans-65" transform="translate(313.427734 0.015625)"/>
      <use xlink:href="#DejaVuSans-2c" transform="translate(374.951172 0.015625)"/>
      <use xlink:href="#DejaVuSans-20" transform="translate(406.738281 0.015625)"/>
      <use xlink:href="#DejaVuSans-Oblique-6e" transform="translate(438.525391 0.015625)"/>
     </g>
    </g>
   </g>
   <g id="matplotlib.axis_2">
    <g id="ytick_1">
     <g id="line2d_19">
      <path d="M 52.160938 234.429659 
L 568.8 234.429659 
" clip-path="url(#p417b2f3d73)" style="fill: none; stroke-dasharray: 2.96,1.28; stroke-dashoffset: 0; stroke: #b0b0b0; stroke-opacity: 0.8; stroke-width: 0.8"/>
     </g>
     <g id="line2d_20">
      <defs>
       <path id="m658e985b8c" d="M 0 0 
L -3.5 0 
" style="stroke: #000000; stroke-width: 0.8"/>
      </defs>
      <g>
       <use xlink:href="#m658e985b8c" x="52.160938" y="234.429659" style="stroke: #000000; stroke-width: 0.8"/>
      </g>
     </g>
     <g id="text_11">
      <!-- −0.4 -->
      <g transform="translate(20.878125 238.228877) scale(0.1 -0.1)">
       <defs>
        <path id="DejaVuSans-2212" d="M 678 2272 
L 4684 2272 
L 4684 1741 
L 678 1741 
L 678 2272 
z
" transform="scale(0.015625)"/>
        <path id="DejaVuSans-2e" d="M 684 794 
L 1344 794 
L 1344 0 
L 684 0 
L 684 794 
z
" transform="scale(0.015625)"/>
       </defs>
       <use xlink:href="#DejaVuSans-2212"/>
       <use xlink:href="#DejaVuSans-30" transform="translate(83.789062 0)"/>
       <use xlink:href="#DejaVuSans-2e" transform="translate(147.412109 0)"/>
       <use xlink:href="#DejaVuSans-34" transform="translate(179.199219 0)"/>
      </g>
     </g>
    </g>
    <g id="ytick_2">
     <g id="line2d_21">
      <path d="M 52.160938 183.773642 
L 568.8 183.773642 
" clip-path="url(#p417b2f3d73)" style="fill: none; stroke-dasharray: 2.96,1.28; stroke-dashoffset: 0; stroke: #b0b0b0; stroke-opacity: 0.8; stroke-width: 0.8"/>
     </g>
     <g id="line2d_22">
      <g>
       <use xlink:href="#m658e985b8c" x="52.160938" y="183.773642" style="stroke: #000000; stroke-width: 0.8"/>
      </g>
     </g>
     <g id="text_12">
      <!-- −0.2 -->
      <g transform="translate(20.878125 187.572861) scale(0.1 -0.1)">
       <use xlink:href="#DejaVuSans-2212"/>
       <use xlink:href="#DejaVuSans-30" transform="translate(83.789062 0)"/>
       <use xlink:href="#DejaVuSans-2e" transform="translate(147.412109 0)"/>
       <use xlink:href="#DejaVuSans-32" transform="translate(179.199219 0)"/>
      </g>
     </g>
    </g>
    <g id="ytick_3">
     <g id="line2d_23">
      <path d="M 52.160938 133.117626 
L 568.8 133.117626 
" clip-path="url(#p417b2f3d73)" style="fill: none; stroke-dasharray: 2.96,1.28; stroke-dashoffset: 0; stroke: #b0b0b0; stroke-opacity: 0.8; stroke-width: 0.8"/>
     </g>
     <g id="line2d_24">
      <g>
       <use xlink:href="#m658e985b8c" x="52.160938" y="133.117626" style="stroke: #000000; stroke-width: 0.8"/>
      </g>
     </g>
     <g id="text_13">
      <!-- 0.0 -->
      <g transform="translate(29.257812 136.916845) scale(0.1 -0.1)">
       <use xlink:href="#DejaVuSans-30"/>
       <use xlink:href="#DejaVuSans-2e" transform="translate(63.623047 0)"/>
       <use xlink:href="#DejaVuSans-30" transform="translate(95.410156 0)"/>
      </g>
     </g>
    </g>
    <g id="ytick_4">
     <g id="line2d_25">
      <path d="M 52.160938 82.46161 
L 568.8 82.46161 
" clip-path="url(#p417b2f3d73)" style="fill: none; stroke-dasharray: 2.96,1.28; stroke-dashoffset: 0; stroke: #b0b0b0; stroke-opacity: 0.8; stroke-width: 0.8"/>
     </g>
     <g id="line2d_26">
      <g>
       <use xlink:href="#m658e985b8c" x="52.160938" y="82.46161" style="stroke: #000000; stroke-width: 0.8"/>
      </g>
     </g>
     <g id="text_14">
      <!-- 0.2 -->
      <g transform="translate(29.257812 86.260829) scale(0.1 -0.1)">
       <use xlink:href="#DejaVuSans-30"/>
       <use xlink:href="#DejaVuSans-2e" transform="translate(63.623047 0)"/>
       <use xlink:href="#DejaVuSans-32" transform="translate(95.410156 0)"/>
      </g>
     </g>
    </g>
    <g id="ytick_5">
     <g id="line2d_27">
      <path d="M 52.160938 31.805594 
L 568.8 31.805594 
" clip-path="url(#p417b2f3d73)" style="fill: none; stroke-dasharray: 2.96,1.28; stroke-dashoffset: 0; stroke: #b0b0b0; stroke-opacity: 0.8; stroke-width: 0.8"/>
     </g>
     <g id="line2d_28">
      <g>
       <use xlink:href="#m658e985b8c" x="52.160938" y="31.805594" style="stroke: #000000; stroke-width: 0.8"/>
      </g>
     </g>
     <g id="text_15">
      <!-- 0.4 -->
      <g transform="translate(29.257812 35.604813) scale(0.1 -0.1)">
       <use xlink:href="#DejaVuSans-30"/>
       <use xlink:href="#DejaVuSans-2e" transform="translate(63.623047 0)"/>
       <use xlink:href="#DejaVuSans-34" transform="translate(95.410156 0)"/>
      </g>
     </g>
    </g>
    <g id="text_16">
     <!-- Amplitude -->
     <g transform="translate(14.798437 154.433594) rotate(-90) scale(0.1 -0.1)">
      <defs>
       <path id="DejaVuSans-41" d="M 2188 4044 
L 1331 1722 
L 3047 1722 
L 2188 4044 
z
M 1831 4666 
L 2547 4666 
L 4325 0 
L 3669 0 
L 3244 1197 
L 1141 1197 
L 716 0 
L 50 0 
L 1831 4666 
z
" transform="scale(0.015625)"/>
       <path id="DejaVuSans-69" d="M 603 3500 
L 1178 3500 
L 1178 0 
L 603 0 
L 603 3500 
z
M 603 4863 
L 1178 4863 
L 1178 4134 
L 603 4134 
L 603 4863 
z
" transform="scale(0.015625)"/>
       <path id="DejaVuSans-74" d="M 1172 4494 
L 1172 3500 
L 2356 3500 
L 2356 3053 
L 1172 3053 
L 1172 1153 
Q 1172 725 1289 603 
Q 1406 481 1766 481 
L 2356 481 
L 2356 0 
L 1766 0 
Q 1100 0 847 248 
Q 594 497 594 1153 
L 594 3053 
L 172 3053 
L 172 3500 
L 594 3500 
L 594 4494 
L 1172 4494 
z
" transform="scale(0.015625)"/>
       <path id="DejaVuSans-75" d="M 544 1381 
L 544 3500 
L 1119 3500 
L 1119 1403 
Q 1119 906 1312 657 
Q 1506 409 1894 409 
Q 2359 409 2629 706 
Q 2900 1003 2900 1516 
L 2900 3500 
L 3475 3500 
L 3475 0 
L 2900 0 
L 2900 538 
Q 2691 219 2414 64 
Q 2138 -91 1772 -91 
Q 1169 -91 856 284 
Q 544 659 544 1381 
z
M 1991 3584 
L 1991 3584 
z
" transform="scale(0.015625)"/>
       <path id="DejaVuSans-64" d="M 2906 2969 
L 2906 4863 
L 3481 4863 
L 3481 0 
L 2906 0 
L 2906 525 
Q 2725 213 2448 61 
Q 2172 -91 1784 -91 
Q 1150 -91 751 415 
Q 353 922 353 1747 
Q 353 2572 751 3078 
Q 1150 3584 1784 3584 
Q 2172 3584 2448 3432 
Q 2725 3281 2906 2969 
z
M 947 1747 
Q 947 1113 1208 752 
Q 1469 391 1925 391 
Q 2381 391 2643 752 
Q 2906 1113 2906 1747 
Q 2906 2381 2643 2742 
Q 2381 3103 1925 3103 
Q 1469 3103 1208 2742 
Q 947 2381 947 1747 
z
" transform="scale(0.015625)"/>
      </defs>
      <use xlink:href="#DejaVuSans-41"/>
      <use xlink:href="#DejaVuSans-6d" transform="translate(68.408203 0)"/>
      <use xlink:href="#DejaVuSans-70" transform="translate(165.820312 0)"/>
      <use xlink:href="#DejaVuSans-6c" transform="translate(229.296875 0)"/>
      <use xlink:href="#DejaVuSans-69" transform="translate(257.080078 0)"/>
      <use xlink:href="#DejaVuSans-74" transform="translate(284.863281 0)"/>
      <use xlink:href="#DejaVuSans-75" transform="translate(324.072266 0)"/>
      <use xlink:href="#DejaVuSans-64" transform="translate(387.451172 0)"/>
      <use xlink:href="#DejaVuSans-65" transform="translate(450.927734 0)"/>
     </g>
    </g>
   </g>
   <g id="line2d_29">
    <path d="M 75.644531 131.289752 
L 76.821654 133.898199 
L 77.998776 130.024807 
L 79.175899 134.994889 
L 80.353021 133.399699 
L 81.530144 136.68224 
L 82.707266 130.350181 
L 83.884389 139.785467 
L 85.061511 137.315219 
L 86.238634 139.115407 
L 87.415756 129.83248 
L 88.592879 125.821649 
L 89.770001 128.086948 
L 90.947124 128.925711 
L 92.124246 132.385899 
L 94.478491 123.707187 
L 95.655614 124.360474 
L 96.832736 134.62784 
L 98.009859 138.210596 
L 99.186981 137.523492 
L 100.364104 140.118369 
L 101.541226 145.826284 
L 102.718349 142.033919 
L 103.895471 135.247356 
L 105.072594 138.190606 
L 106.249716 124.232763 
L 107.426839 122.333505 
L 108.603961 110.514979 
L 109.781084 110.372093 
L 110.958206 116.581628 
L 112.135329 119.736996 
L 113.312451 118.347245 
L 114.489574 143.983282 
L 115.666696 147.693823 
L 116.843819 166.683592 
L 119.198064 210.589991 
L 120.375186 208.682748 
L 121.552309 213.744995 
L 122.729431 209.996145 
L 125.083676 173.304699 
L 126.260798 148.363064 
L 129.792166 81.479764 
L 130.969288 62.172978 
L 132.146411 51.080353 
L 133.323533 65.107949 
L 134.500656 70.848407 
L 135.677778 88.521665 
L 136.854901 115.679084 
L 139.209146 178.235213 
L 140.386268 195.643294 
L 141.563391 208.742624 
L 142.740513 224.249553 
L 143.917636 222.395186 
L 145.094758 221.532329 
L 146.271881 211.956342 
L 148.626126 190.579415 
L 149.803248 180.684343 
L 150.980371 190.444385 
L 152.157493 184.575527 
L 153.334616 190.897454 
L 154.511738 200.522847 
L 156.865983 226.919416 
L 158.043106 220.318634 
L 159.220228 218.265707 
L 160.397351 214.801627 
L 161.574473 195.451547 
L 162.751596 166.188437 
L 163.928718 150.943217 
L 165.105841 119.534951 
L 166.282963 93.333173 
L 167.460086 73.448097 
L 168.637208 66.303259 
L 169.814331 54.238494 
L 170.991453 63.069024 
L 172.168576 81.804464 
L 174.522821 125.893149 
L 176.877066 176.650635 
L 178.054188 195.318766 
L 179.231311 208.268077 
L 180.408433 205.671098 
L 181.585556 199.969141 
L 182.762678 179.870388 
L 183.939801 165.382513 
L 185.116923 142.322933 
L 187.471168 80.12275 
L 188.648291 57.454208 
L 189.825413 41.286321 
L 191.002536 28.353869 
L 192.179658 31.766471 
L 193.356781 30.467387 
L 194.533903 41.946051 
L 195.711026 59.725953 
L 196.888148 67.416129 
L 198.065271 73.231516 
L 199.242393 87.853682 
L 201.596638 130.239299 
L 202.773761 134.406059 
L 203.950883 151.291162 
L 205.128006 162.982136 
L 206.305128 177.40237 
L 207.482251 184.45287 
L 208.659373 206.43697 
L 209.836496 216.570069 
L 211.013618 224.358144 
L 212.190741 235.46317 
L 213.367863 228.631419 
L 214.544986 226.37285 
L 215.722108 216.96065 
L 216.89923 205.872474 
L 218.076353 183.2039 
L 219.253475 156.227014 
L 220.430598 136.976121 
L 222.784843 90.913481 
L 223.961965 78.106892 
L 225.139088 73.670744 
L 226.31621 64.455307 
L 227.493333 68.748626 
L 229.847578 101.754743 
L 231.0247 110.439078 
L 232.201823 131.277895 
L 234.556068 183.800484 
L 239.264558 236.571848 
L 240.44168 239.366335 
L 241.618803 236.792085 
L 242.795925 220.932135 
L 243.973048 215.342151 
L 245.15017 193.28085 
L 246.327293 183.329634 
L 247.504415 154.791244 
L 248.681538 130.822886 
L 249.85866 119.753352 
L 251.035783 97.089279 
L 252.212905 88.77461 
L 253.390028 71.508677 
L 254.56715 68.445774 
L 255.744273 60.042028 
L 256.921395 70.966174 
L 258.098518 68.715445 
L 259.27564 71.536031 
L 260.452763 68.936092 
L 261.629885 61.260492 
L 262.807008 66.65007 
L 263.98413 62.725449 
L 265.161253 66.157135 
L 266.338375 73.680873 
L 267.515498 65.441364 
L 268.69262 66.495739 
L 269.869743 72.323571 
L 271.046865 71.325641 
L 273.40111 67.57555 
L 275.755355 89.641269 
L 276.932478 92.644374 
L 278.1096 120.800887 
L 279.286723 140.672946 
L 280.463845 152.549638 
L 283.995213 216.466389 
L 285.172335 228.812659 
L 286.349458 236.945321 
L 287.52658 237.754744 
L 288.703703 235.499376 
L 289.880825 227.197418 
L 291.057948 212.019213 
L 292.23507 193.85481 
L 293.412193 177.409306 
L 294.589315 158.887387 
L 295.766438 132.762389 
L 296.94356 116.265893 
L 298.120683 94.480686 
L 299.297805 68.243465 
L 300.474928 61.973867 
L 301.65205 72.595104 
L 302.829173 74.509259 
L 304.006295 84.645744 
L 306.36054 113.472959 
L 307.537663 139.125638 
L 308.714785 168.453465 
L 309.891908 190.164672 
L 311.06903 204.429713 
L 312.246152 206.304088 
L 313.423275 216.957731 
L 314.600397 219.497726 
L 315.77752 209.274183 
L 316.954642 214.120024 
L 318.131765 210.464006 
L 319.308887 193.159711 
L 320.48601 193.071465 
L 321.663132 189.792347 
L 322.840255 178.347857 
L 324.017377 185.558645 
L 325.1945 186.998654 
L 326.371622 185.012925 
L 327.548745 190.350077 
L 328.725867 204.331147 
L 329.90299 202.772176 
L 331.080112 203.577939 
L 332.257235 203.134607 
L 333.434357 198.324415 
L 334.61148 197.866691 
L 336.965725 189.889589 
L 338.142847 190.679697 
L 339.31997 190.078172 
L 340.497092 195.051048 
L 341.674215 198.233077 
L 342.851337 193.866831 
L 344.02846 204.717467 
L 345.205582 199.520848 
L 346.382705 196.832274 
L 347.559827 198.319301 
L 348.73695 201.603384 
L 349.914072 194.509929 
L 351.091195 192.172201 
L 352.268317 194.924002 
L 353.44544 191.754708 
L 354.622562 190.791719 
L 355.799685 186.791274 
L 356.976807 187.606002 
L 358.15393 197.92054 
L 359.331052 202.662585 
L 360.508175 210.528609 
L 361.685297 214.769432 
L 362.86242 215.667767 
L 364.039542 211.324799 
L 365.216665 210.185363 
L 366.393787 196.163366 
L 367.57091 198.347064 
L 369.925155 171.677009 
L 371.102277 162.15301 
L 372.2794 147.071821 
L 373.456522 125.282783 
L 374.633645 112.436963 
L 375.810767 84.492693 
L 376.98789 73.620005 
L 378.165012 55.911986 
L 379.342135 41.103032 
L 380.519257 33.155773 
L 381.69638 31.284031 
L 382.873502 33.061388 
L 384.050625 45.090644 
L 385.227747 44.295228 
L 386.40487 66.622253 
L 387.581992 91.290576 
L 388.759115 103.787374 
L 389.936237 129.545074 
L 391.11336 158.644069 
L 392.290482 172.146264 
L 393.467605 189.743989 
L 394.644727 194.871104 
L 395.82185 196.32873 
L 396.998972 196.332943 
L 398.176095 194.604752 
L 399.353217 172.054621 
L 401.707462 120.419255 
L 404.061707 84.426357 
L 405.238829 58.95377 
L 406.415952 54.285052 
L 407.593074 44.384916 
L 408.770197 41.704711 
L 409.947319 49.556477 
L 411.124442 52.957214 
L 412.301564 64.295648 
L 413.478687 74.495079 
L 414.655809 78.679712 
L 415.832932 75.4265 
L 417.010054 83.062843 
L 418.187177 75.611753 
L 419.364299 76.465483 
L 420.541422 73.497085 
L 421.718544 63.753108 
L 422.895667 61.534309 
L 424.072789 62.093162 
L 425.249912 51.350462 
L 426.427034 67.412864 
L 427.604157 72.049357 
L 429.958402 83.678177 
L 431.135524 89.451992 
L 432.312647 83.771926 
L 433.489769 84.7664 
L 434.666892 77.92552 
L 435.844014 68.357315 
L 437.021137 50.049319 
L 438.198259 46.915782 
L 439.375382 37.672283 
L 440.552504 39.180188 
L 441.729627 43.798155 
L 442.906749 60.231307 
L 444.083872 73.809608 
L 445.260994 106.756954 
L 446.438117 124.106775 
L 447.615239 159.092938 
L 448.792362 189.593397 
L 449.969484 198.715439 
L 451.146607 209.284756 
L 452.323729 207.762672 
L 453.500852 196.319808 
L 454.677974 176.81388 
L 455.855097 151.126711 
L 457.032219 129.428677 
L 458.209342 95.579373 
L 459.386464 77.060033 
L 461.740709 50.694493 
L 462.917832 63.240739 
L 464.094954 73.79974 
L 465.272077 95.84454 
L 467.626322 152.769881 
L 468.803444 177.34986 
L 469.980567 185.957223 
L 471.157689 212.909197 
L 472.334812 210.001858 
L 473.511934 203.744062 
L 474.689057 189.451365 
L 475.866179 162.502955 
L 477.043302 145.356347 
L 480.574669 60.919272 
L 481.751792 39.60365 
L 482.928914 29.810886 
L 484.106037 31.540339 
L 485.283159 18.25554 
L 486.460282 35.327988 
L 487.637404 42.643988 
L 489.991649 82.937666 
L 491.168772 91.767474 
L 492.345894 114.257736 
L 493.523017 126.556795 
L 494.700139 144.137661 
L 495.877262 165.342788 
L 497.054384 171.889511 
L 498.231507 179.410721 
L 500.585751 200.164236 
L 501.762874 212.132874 
L 502.939996 207.473424 
L 504.117119 211.588471 
L 505.294241 211.03736 
L 506.471364 219.367114 
L 507.648486 207.571549 
L 508.825609 208.234868 
L 510.002731 199.941379 
L 511.179854 194.631814 
L 512.356976 183.492123 
L 513.534099 175.157614 
L 514.711221 174.605258 
L 515.888344 172.404995 
L 517.065466 184.61788 
L 518.242589 190.391833 
L 519.419711 203.84476 
L 520.596834 208.211176 
L 521.773956 219.191115 
L 522.951079 225.022892 
L 524.128201 229.256986 
L 525.305324 229.112945 
L 527.659569 206.463234 
L 530.013814 156.850244 
L 531.190936 134.379831 
L 532.368059 109.457817 
L 533.545181 89.363693 
L 534.722304 73.432245 
L 535.899426 63.94354 
L 537.076549 65.441224 
L 538.253671 70.345379 
L 540.607916 106.074133 
L 541.785039 130.577654 
L 542.962161 158.994637 
L 544.139284 171.496049 
L 545.316406 191.818593 
L 545.316406 191.818593 
" clip-path="url(#p417b2f3d73)" style="fill: none; stroke: #1f77b4; stroke-linecap: square"/>
   </g>
   <g id="line2d_30">
    <path d="M 75.644531 124.995915 
L 76.821654 132.268582 
L 77.998776 129.306367 
L 79.175899 145.361192 
L 80.353021 129.419152 
L 81.530144 133.803969 
L 83.884389 129.469151 
L 85.061511 130.996571 
L 86.238634 131.338792 
L 87.415756 124.955628 
L 89.770001 126.954631 
L 90.947124 133.229662 
L 92.124246 131.723345 
L 93.301369 131.606566 
L 94.478491 132.212758 
L 95.655614 130.309709 
L 96.832736 144.841239 
L 98.009859 143.031556 
L 99.186981 140.516513 
L 100.364104 132.656226 
L 101.541226 131.679909 
L 102.718349 125.63658 
L 103.895471 127.585694 
L 105.072594 126.957223 
L 106.249716 122.131092 
L 107.426839 123.051055 
L 108.603961 133.545542 
L 109.781084 137.008733 
L 110.958206 142.750148 
L 112.135329 141.587026 
L 113.312451 149.96212 
L 114.489574 144.331787 
L 115.666696 146.657112 
L 116.843819 145.625429 
L 118.020941 136.123549 
L 119.198064 121.332767 
L 120.375186 115.491553 
L 121.552309 103.551697 
L 123.906553 71.156934 
L 125.083676 67.774874 
L 126.260798 69.585754 
L 127.437921 72.883927 
L 128.615043 70.995157 
L 129.792166 79.793135 
L 135.677778 191.986118 
L 136.854901 199.732344 
L 138.032023 213.658363 
L 139.209146 217.324398 
L 140.386268 217.464497 
L 141.563391 218.600035 
L 142.740513 206.72421 
L 145.094758 192.955595 
L 146.271881 191.376251 
L 147.449003 185.788269 
L 148.626126 186.474951 
L 149.803248 184.686704 
L 150.980371 187.467718 
L 152.157493 197.830838 
L 153.334616 196.832797 
L 154.511738 205.655883 
L 155.688861 204.349178 
L 156.865983 203.526212 
L 158.043106 198.929969 
L 159.220228 200.332129 
L 161.574473 183.392423 
L 162.751596 181.770437 
L 163.928718 181.235615 
L 165.105841 192.718994 
L 166.282963 197.523446 
L 167.460086 200.050354 
L 168.637208 201.78957 
L 169.814331 212.921786 
L 170.991453 219.050349 
L 172.168576 210.496379 
L 173.345698 216.382887 
L 174.522821 206.058804 
L 175.699943 186.954085 
L 176.877066 164.828486 
L 178.054188 146.329556 
L 179.231311 136.983712 
L 180.408433 113.828477 
L 181.585556 94.205494 
L 182.762678 81.064496 
L 183.939801 62.083661 
L 185.116923 61.450148 
L 186.294046 51.956689 
L 187.471168 55.592641 
L 188.648291 55.378923 
L 189.825413 60.430215 
L 191.002536 71.896922 
L 192.179658 68.958742 
L 193.356781 75.359631 
L 194.533903 80.301008 
L 195.711026 78.427168 
L 196.888148 75.558873 
L 198.065271 70.678612 
L 199.242393 69.369498 
L 200.419516 58.544429 
L 201.596638 60.947529 
L 202.773761 66.807781 
L 203.950883 69.211656 
L 205.128006 70.762972 
L 206.305128 68.536773 
L 207.482251 81.887669 
L 208.659373 83.086565 
L 209.836496 75.08983 
L 211.013618 83.373008 
L 212.190741 85.028855 
L 213.367863 65.59874 
L 214.544986 59.975109 
L 216.89923 50.260101 
L 218.076353 41.7214 
L 219.253475 50.138833 
L 220.430598 48.981289 
L 221.60772 49.95284 
L 222.784843 79.19019 
L 223.961965 100.081313 
L 225.139088 129.964938 
L 227.493333 179.900948 
L 228.670455 195.312337 
L 231.0247 205.9863 
L 232.201823 195.933817 
L 233.378945 178.332138 
L 234.556068 151.460035 
L 235.73319 134.383119 
L 236.910313 105.438913 
L 238.087435 92.548466 
L 239.264558 71.239751 
L 240.44168 64.434432 
L 241.618803 60.67049 
L 242.795925 70.040231 
L 243.973048 88.530553 
L 246.327293 131.482467 
L 247.504415 165.064374 
L 248.681538 180.339825 
L 249.85866 209.681087 
L 251.035783 228.68429 
L 252.212905 233.571587 
L 253.390028 233.082614 
L 254.56715 225.140605 
L 255.744273 210.226386 
L 256.921395 207.674298 
L 258.098518 198.80251 
L 259.27564 179.308988 
L 260.452763 177.454827 
L 261.629885 180.660479 
L 262.807008 180.555284 
L 263.98413 180.335954 
L 265.161253 196.156535 
L 266.338375 207.47044 
L 267.515498 208.685843 
L 268.69262 205.863769 
L 269.869743 208.164961 
L 271.046865 202.595367 
L 272.223988 200.98284 
L 273.40111 185.915178 
L 274.578233 177.459898 
L 275.755355 176.881099 
L 276.932478 179.373506 
L 278.1096 188.571917 
L 279.286723 189.822808 
L 280.463845 207.86835 
L 281.640968 222.241222 
L 282.81809 223.885282 
L 283.995213 223.454998 
L 285.172335 224.662445 
L 286.349458 223.735991 
L 287.52658 202.43403 
L 288.703703 187.428235 
L 289.880825 156.041262 
L 291.057948 141.903434 
L 292.23507 115.784158 
L 293.412193 85.115144 
L 294.589315 70.916268 
L 295.766438 64.86707 
L 296.94356 64.375113 
L 298.120683 66.491137 
L 299.297805 80.550954 
L 300.474928 99.362582 
L 304.006295 180.340038 
L 305.183418 190.50532 
L 306.36054 205.768591 
L 307.537663 209.595924 
L 308.714785 204.518301 
L 309.891908 187.995514 
L 311.06903 161.909558 
L 312.246152 141.106215 
L 313.423275 108.794338 
L 314.600397 83.406316 
L 316.954642 44.042709 
L 318.131765 29.045763 
L 319.308887 26.365049 
L 320.48601 36.502457 
L 321.663132 38.682763 
L 322.840255 53.054756 
L 324.017377 61.724435 
L 325.1945 76.431284 
L 326.371622 95.000175 
L 327.548745 104.181062 
L 328.725867 129.341709 
L 329.90299 136.103795 
L 331.080112 146.14909 
L 332.257235 170.095923 
L 333.434357 187.15953 
L 334.61148 194.253849 
L 335.788602 200.614032 
L 336.965725 211.278788 
L 338.142847 219.937538 
L 339.31997 223.817219 
L 340.497092 220.390321 
L 341.674215 212.004386 
L 342.851337 202.47892 
L 344.02846 203.912861 
L 345.205582 179.527859 
L 346.382705 173.583464 
L 347.559827 155.826379 
L 348.73695 135.253398 
L 349.914072 120.66123 
L 351.091195 102.486769 
L 352.268317 86.135884 
L 353.44544 67.498131 
L 354.622562 64.744223 
L 355.799685 50.861324 
L 356.976807 43.601808 
L 358.15393 40.860784 
L 359.331052 43.230637 
L 360.508175 42.196543 
L 361.685297 60.010862 
L 362.86242 60.838349 
L 364.039542 76.307737 
L 365.216665 90.190076 
L 366.393787 121.750362 
L 367.57091 139.601598 
L 368.748032 169.963974 
L 369.925155 176.016874 
L 371.102277 195.825792 
L 372.2794 203.866068 
L 373.456522 201.279216 
L 374.633645 199.910833 
L 375.810767 200.680313 
L 376.98789 196.625789 
L 378.165012 193.696098 
L 379.342135 191.114313 
L 380.519257 189.059549 
L 381.69638 182.893028 
L 382.873502 201.48008 
L 384.050625 198.319669 
L 385.227747 201.920199 
L 386.40487 212.45969 
L 387.581992 217.599369 
L 388.759115 215.153437 
L 389.936237 215.836121 
L 391.11336 208.794581 
L 392.290482 186.077515 
L 393.467605 172.708848 
L 394.644727 148.38662 
L 395.82185 113.121786 
L 396.998972 94.653489 
L 398.176095 73.519703 
L 399.353217 66.752097 
L 400.53034 65.262686 
L 401.707462 61.730125 
L 402.884585 83.800667 
L 404.061707 90.039915 
L 407.593074 174.461311 
L 408.770197 186.486236 
L 409.947319 209.459749 
L 411.124442 219.359957 
L 412.301564 217.989356 
L 413.478687 222.963293 
L 414.655809 207.400367 
L 415.832932 212.585514 
L 417.010054 191.536851 
L 418.187177 195.766279 
L 419.364299 187.801453 
L 420.541422 195.07202 
L 421.718544 189.314215 
L 422.895667 194.525012 
L 424.072789 194.364311 
L 425.249912 200.368975 
L 426.427034 204.982266 
L 427.604157 201.339116 
L 428.781279 197.271328 
L 429.958402 197.049946 
L 431.135524 183.499818 
L 432.312647 165.339721 
L 433.489769 149.225189 
L 434.666892 126.650835 
L 438.198259 67.010645 
L 439.375382 56.986328 
L 440.552504 34.859561 
L 441.729627 36.996273 
L 442.906749 32.265205 
L 444.083872 26.618642 
L 446.438117 45.950809 
L 447.615239 64.118461 
L 448.792362 96.901861 
L 449.969484 112.420605 
L 452.323729 156.515645 
L 454.677974 185.50399 
L 455.855097 196.136057 
L 457.032219 201.200699 
L 458.209342 194.946046 
L 459.386464 187.592172 
L 460.563587 169.523749 
L 461.740709 155.662581 
L 462.917832 127.673449 
L 464.094954 102.991812 
L 465.272077 85.060019 
L 466.449199 73.540434 
L 467.626322 49.458578 
L 468.803444 37.089807 
L 469.980567 41.143826 
L 471.157689 39.987434 
L 472.334812 37.899595 
L 473.511934 47.784373 
L 475.866179 71.670299 
L 477.043302 85.833708 
L 478.220424 109.369566 
L 479.397547 120.957689 
L 481.751792 154.155396 
L 482.928914 168.741173 
L 484.106037 177.099567 
L 485.283159 192.876354 
L 486.460282 198.981205 
L 487.637404 213.429597 
L 488.814527 213.754287 
L 489.991649 224.814255 
L 491.168772 223.28498 
L 492.345894 218.029813 
L 493.523017 215.460623 
L 494.700139 195.539143 
L 495.877262 183.067307 
L 497.054384 163.501783 
L 498.231507 156.562559 
L 499.408629 136.047949 
L 500.585751 123.80078 
L 501.762874 104.11337 
L 502.939996 77.751973 
L 504.117119 73.445297 
L 505.294241 51.919211 
L 506.471364 56.969236 
L 507.648486 55.021734 
L 508.825609 39.132757 
L 510.002731 44.761674 
L 511.179854 44.443111 
L 512.356976 59.350753 
L 513.534099 69.248474 
L 514.711221 83.08834 
L 515.888344 99.379221 
L 517.065466 125.701883 
L 518.242589 145.528623 
L 519.419711 149.846348 
L 520.596834 171.843604 
L 521.773956 186.886777 
L 522.951079 198.208733 
L 525.305324 215.455674 
L 526.482446 216.821625 
L 527.659569 212.321259 
L 528.836691 215.605219 
L 530.013814 212.13609 
L 531.190936 204.834152 
L 532.368059 198.754659 
L 533.545181 196.494266 
L 534.722304 185.490426 
L 535.899426 176.974669 
L 537.076549 180.388941 
L 538.253671 181.292818 
L 539.430794 174.296031 
L 540.607916 186.559446 
L 541.785039 189.286061 
L 542.962161 198.53008 
L 544.139284 211.116173 
L 545.316406 219.97833 
L 545.316406 219.97833 
" clip-path="url(#p417b2f3d73)" style="fill: none; stroke: #ff7f0e; stroke-linecap: square"/>
   </g>
   <g id="patch_3">
    <path d="M 52.160938 250.421875 
L 52.160938 7.2 
" style="fill: none; stroke: #000000; stroke-width: 0.8; stroke-linejoin: miter; stroke-linecap: square"/>
   </g>
   <g id="patch_4">
    <path d="M 568.8 250.421875 
L 568.8 7.2 
" style="fill: none; stroke: #000000; stroke-width: 0.8; stroke-linejoin: miter; stroke-linecap: square"/>
   </g>
   <g id="patch_5">
    <path d="M 52.160937 250.421875 
L 568.8 250.421875 
" style="fill: none; stroke: #000000; stroke-width: 0.8; stroke-linejoin: miter; stroke-linecap: square"/>
   </g>
   <g id="patch_6">
    <path d="M 52.160937 7.2 
L 568.8 7.2 
" style="fill: none; stroke: #000000; stroke-width: 0.8; stroke-linejoin: miter; stroke-linecap: square"/>
   </g>
   <g id="legend_1">
    <g id="patch_7">
     <path d="M 59.160938 44.55625 
L 116.15625 44.55625 
Q 118.15625 44.55625 118.15625 42.55625 
L 118.15625 14.2 
Q 118.15625 12.2 116.15625 12.2 
L 59.160938 12.2 
Q 57.160938 12.2 57.160938 14.2 
L 57.160938 42.55625 
Q 57.160938 44.55625 59.160938 44.55625 
z
" style="fill: #ffffff; opacity: 0.8; stroke: #cccccc; stroke-linejoin: miter"/>
    </g>
    <g id="line2d_31">
     <path d="M 61.160938 20.298437 
L 71.160938 20.298437 
L 81.160938 20.298437 
" style="fill: none; stroke: #1f77b4; stroke-linecap: square"/>
    </g>
    <g id="text_17">
     <!-- real -->
     <g transform="translate(89.160938 23.798437) scale(0.1 -0.1)">
      <defs>
       <path id="DejaVuSans-72" d="M 2631 2963 
Q 2534 3019 2420 3045 
Q 2306 3072 2169 3072 
Q 1681 3072 1420 2755 
Q 1159 2438 1159 1844 
L 1159 0 
L 581 0 
L 581 3500 
L 1159 3500 
L 1159 2956 
Q 1341 3275 1631 3429 
Q 1922 3584 2338 3584 
Q 2397 3584 2469 3576 
Q 2541 3569 2628 3553 
L 2631 2963 
z
" transform="scale(0.015625)"/>
      </defs>
      <use xlink:href="#DejaVuSans-72"/>
      <use xlink:href="#DejaVuSans-65" transform="translate(38.863281 0)"/>
      <use xlink:href="#DejaVuSans-61" transform="translate(100.386719 0)"/>
      <use xlink:href="#DejaVuSans-6c" transform="translate(161.666016 0)"/>
     </g>
    </g>
    <g id="line2d_32">
     <path d="M 61.160938 34.976562 
L 71.160938 34.976562 
L 81.160938 34.976562 
" style="fill: none; stroke: #ff7f0e; stroke-linecap: square"/>
    </g>
    <g id="text_18">
     <!-- imag -->
     <g transform="translate(89.160938 38.476562) scale(0.1 -0.1)">
      <defs>
       <path id="DejaVuSans-67" d="M 2906 1791 
Q 2906 2416 2648 2759 
Q 2391 3103 1925 3103 
Q 1463 3103 1205 2759 
Q 947 2416 947 1791 
Q 947 1169 1205 825 
Q 1463 481 1925 481 
Q 2391 481 2648 825 
Q 2906 1169 2906 1791 
z
M 3481 434 
Q 3481 -459 3084 -895 
Q 2688 -1331 1869 -1331 
Q 1566 -1331 1297 -1286 
Q 1028 -1241 775 -1147 
L 775 -588 
Q 1028 -725 1275 -790 
Q 1522 -856 1778 -856 
Q 2344 -856 2625 -561 
Q 2906 -266 2906 331 
L 2906 616 
Q 2728 306 2450 153 
Q 2172 0 1784 0 
Q 1141 0 747 490 
Q 353 981 353 1791 
Q 353 2603 747 3093 
Q 1141 3584 1784 3584 
Q 2172 3584 2450 3431 
Q 2728 3278 2906 2969 
L 2906 3500 
L 3481 3500 
L 3481 434 
z
" transform="scale(0.015625)"/>
      </defs>
      <use xlink:href="#DejaVuSans-69"/>
      <use xlink:href="#DejaVuSans-6d" transform="translate(27.783203 0)"/>
      <use xlink:href="#DejaVuSans-61" transform="translate(125.195312 0)"/>
      <use xlink:href="#DejaVuSans-67" transform="translate(186.474609 0)"/>
     </g>
    </g>
   </g>
  </g>
 </g>
 <defs>
  <clipPath id="p417b2f3d73">
   <rect x="52.160938" y="7.2" width="516.639063" height="243.221875"/>
  </clipPath>
 </defs>
</svg>
